<svg width="32" height="32" viewBox="0 0 32 32" fill="none" xmlns="http://www.w3.org/2000/svg">
    <path fill-rule="evenodd" clip-rule="evenodd"
        d="M5.3332 0C12.2897 0 19.2462 0 26.2028 0C28.1253 0.494943 29.3235 1.73615 29.797 3.72364C29.9516 10.6279 29.9516 17.5321 29.797 24.4364C29.5584 25.5397 28.9787 26.3931 28.0578 26.9964C27.7311 26.5502 27.3446 26.1236 26.8984 25.7164C24.6147 23.9881 22.3731 22.2039 20.1738 20.3636C19.5554 20.2861 18.9371 20.2085 18.3187 20.1309C20.6009 20.0913 22.8425 19.975 25.0433 19.7818C25.0433 19.0061 25.0433 18.2303 25.0433 17.4545C23.1883 17.2994 21.3332 17.1443 19.4781 16.9891C20.9049 15.91 22.3735 14.8627 23.8839 13.8473C25.0001 12.4595 25.3478 10.8691 24.9274 9.07636C23.4997 7.17608 21.606 6.51669 19.2462 7.09818C17.1955 7.79837 16.1907 9.23352 16.2318 11.4036C17.1593 11.4036 18.0868 11.4036 19.0144 11.4036C18.9176 10.1432 19.4974 9.52259 20.7535 9.54182C22.1672 9.54845 22.6309 10.2466 22.1448 11.6364C20.7441 13.0403 19.1982 14.2815 17.5071 15.36C16.8336 16.0913 16.4085 16.9446 16.2318 17.92C16.0458 18.2578 15.9299 18.6457 15.8839 19.0836C15.8097 18.3762 15.8097 17.678 15.8839 16.9891C15.1652 16.0767 14.7787 16.1542 14.7245 17.2218C14.6849 15.3188 14.569 13.4569 14.3767 11.6364C13.4491 11.6364 12.5216 11.6364 11.5941 11.6364C11.5941 12.6448 11.5941 13.6533 11.5941 14.6618C10.7301 14.7369 9.87982 14.6593 9.04335 14.4291C9.98139 12.0305 10.9862 9.66442 12.0578 7.33091C11.053 7.17575 10.0482 7.17575 9.04335 7.33091C8.51166 8.35074 8.04789 9.39802 7.65204 10.4727C5.82148 9.02863 4.00505 7.55468 2.20277 6.05091C2.08714 5.20108 2.04849 4.34774 2.08682 3.49091C2.53344 1.72413 3.61556 0.560489 5.3332 0Z"
        fill="#89BF44" />
    <path fill-rule="evenodd" clip-rule="evenodd"
        d="M19.4781 16.9888C19.3521 17.0028 19.2748 17.0804 19.2462 17.2216C21.1724 17.4538 23.1047 17.5314 25.0433 17.4543C25.0433 18.23 25.0433 19.0058 25.0433 19.7816C22.1061 19.7816 19.1689 19.7816 16.2317 19.7816C16.2317 19.1609 16.2317 18.5404 16.2317 17.9197C16.4084 16.9444 16.8336 16.091 17.507 15.3597C19.1981 14.2812 20.744 13.04 22.1447 11.6361C22.6309 10.2464 22.1671 9.54819 20.7534 9.54156C19.4973 9.52234 18.9176 10.143 19.0143 11.4034C18.0867 11.4034 17.1592 11.4034 16.2317 11.4034C16.1906 9.23327 17.1955 7.79811 19.2462 7.09793C21.6059 6.51643 23.4996 7.17582 24.9273 9.07611C25.3477 10.8689 25 12.4592 23.8839 13.847C22.3734 14.8624 20.9048 15.9097 19.4781 16.9888Z"
        fill="#FDFDFC" />
    <path fill-rule="evenodd" clip-rule="evenodd"
        d="M14.3768 11.6367C14.3768 14.3518 14.3768 17.067 14.3768 19.7821C13.4492 19.7821 12.5217 19.7821 11.5942 19.7821C11.5942 18.9288 11.5942 18.0755 11.5942 17.2221C9.6618 17.2221 7.72941 17.2221 5.79705 17.2221C5.75868 16.288 5.79733 15.3571 5.913 14.4294C6.49609 13.1046 7.0758 11.7858 7.65213 10.473C8.04798 9.39832 8.51174 8.35105 9.04343 7.33121C10.0483 7.17605 11.0531 7.17605 12.0579 7.33121C10.9863 9.66472 9.98147 12.0308 9.04343 14.4294C9.87991 14.6596 10.7302 14.7372 11.5942 14.6621C11.5942 13.6536 11.5942 12.6451 11.5942 11.6367C12.5217 11.6367 13.4492 11.6367 14.3768 11.6367Z"
        fill="#FCFDFA" />
    <path fill-rule="evenodd" clip-rule="evenodd"
        d="M1.85498 3.49121C1.93228 3.49121 2.00957 3.49121 2.08686 3.49121C2.04853 4.34804 2.08718 5.20138 2.20281 6.05121C4.00509 7.55498 5.82152 9.02893 7.65208 10.473C7.07576 11.7858 6.49605 13.1046 5.91295 14.4294C5.79729 15.3571 5.75863 16.288 5.79701 17.2221C7.72937 17.2221 9.66175 17.2221 11.5941 17.2221C11.5941 18.0755 11.5941 18.9288 11.5941 19.7821C12.5216 19.7821 13.4492 19.7821 14.3767 19.7821C14.3767 17.067 14.3767 14.3518 14.3767 11.6367C14.569 13.4572 14.6849 15.3191 14.7245 17.2221C14.7787 16.1545 15.1652 16.077 15.884 16.9894C15.8097 17.6783 15.8097 18.3765 15.884 19.0839C15.9299 18.646 16.0458 18.2581 16.2318 17.9203C16.2318 18.5409 16.2318 19.1615 16.2318 19.7821C19.169 19.7821 22.1062 19.7821 25.0434 19.7821C22.8425 19.9753 20.601 20.0916 18.3187 20.1312C18.9371 20.2088 19.5555 20.2864 20.1738 20.3639C22.3731 22.2042 24.6147 23.9884 26.8985 25.7167C27.3446 26.1239 27.7312 26.5505 28.0579 26.9967C27.3643 27.669 26.514 27.9792 25.5072 27.9276C25.7764 29.3198 26.1629 30.6772 26.6666 32.0003C24.6349 30.9032 22.7025 29.5844 20.8695 28.0439C16.4643 27.9276 12.0586 27.8887 7.65208 27.9276C10.4718 27.7342 13.3317 27.6178 16.2318 27.5785C11.5343 23.8439 6.85795 20.0816 2.20281 16.2912C2.16362 13.1479 2.04768 10.0449 1.85498 6.98212C1.85498 5.81848 1.85498 4.65485 1.85498 3.49121Z"
        fill="#7DB644" />
    <path fill-rule="evenodd" clip-rule="evenodd"
        d="M19.4782 16.9893C21.3333 17.1444 23.1884 17.2996 25.0434 17.4547C23.1049 17.5318 21.1726 17.4542 19.2463 17.222C19.275 17.0808 19.3523 17.0032 19.4782 16.9893Z"
        fill="#CAE1B3" />
    <path fill-rule="evenodd" clip-rule="evenodd"
        d="M1.85498 6.98145C2.04768 10.0442 2.16362 13.1473 2.20281 16.2905C6.85795 20.0809 11.5343 23.8432 16.2318 27.5778C13.3317 27.6171 10.4718 27.7335 7.65208 27.9269C6.72135 27.9655 5.79381 27.9267 4.86947 27.8105C3.49873 27.0947 2.4939 26.0474 1.85498 24.6687C1.85498 18.773 1.85498 12.8772 1.85498 6.98145Z"
        fill="#71AD43" />
</svg>