<svg width="32" height="32" viewBox="0 0 33 33" fill="none" xmlns="http://www.w3.org/2000/svg">
    <path opacity="0.983" fill-rule="evenodd" clip-rule="evenodd"
        d="M15.0455 0.5C16.0151 0.5 16.9848 0.5 17.9545 0.5C22.1363 2.674 26.3383 4.85581 30.5606 7.04545C31.4029 7.60935 31.9955 8.33663 32.3384 9.22727C32.5539 14.2697 32.5539 19.3121 32.3384 24.3545C31.3844 25.5128 30.4147 25.5128 29.4293 24.3545C29.3708 19.4933 29.2092 14.6448 28.9444 9.80909C25.0638 7.57735 21.0773 5.49249 16.9848 3.55455C16.2946 3.3699 15.6482 3.46687 15.0455 3.84545C11.3016 5.7967 7.58441 7.78457 3.89394 9.80909C3.67845 14.2697 3.67845 18.7303 3.89394 23.1909C8.01088 25.4794 12.2129 27.6127 16.5 29.5909C18.8481 28.5821 21.1107 27.4185 23.2879 26.1C23.5034 21.7364 23.5034 17.3727 23.2879 13.0091C21.216 11.5435 18.9534 10.3798 16.5 9.51818C14.1548 10.4282 11.8922 11.4949 9.71212 12.7182C9.06565 15.2394 9.06565 17.7606 9.71212 20.2818C10.8725 21.0226 12.1116 21.6529 13.4293 22.1727C15.0633 23.3927 14.9016 24.4109 12.9444 25.2273C10.6844 24.3563 8.63721 23.1927 6.80303 21.7364C5.7256 18.2455 5.7256 14.7545 6.80303 11.2636C9.19702 9.4335 11.8368 7.93046 14.7222 6.75455C16.4251 6.44385 18.0413 6.6378 19.5707 7.33636C21.754 8.43964 23.855 9.65174 25.8737 10.9727C26.0892 11.3606 26.3047 11.7485 26.5202 12.1364C26.7357 16.9849 26.7357 21.8333 26.5202 26.6818C26.1723 27.7426 25.4719 28.5668 24.4192 29.1545C22.1913 30.2041 20.0364 31.3192 17.9545 32.5C16.9848 32.5 16.0151 32.5 15.0455 32.5C11.2273 30.482 7.34855 28.4941 3.40909 26.5364C2.16282 25.9473 1.19312 25.1231 0.5 24.0636C0.5 19.0212 0.5 13.9788 0.5 8.93636C1.2995 7.97505 2.2692 7.15082 3.40909 6.46364C7.36067 4.54145 11.2395 2.55357 15.0455 0.5Z"
        fill="#00B084" />
</svg>