<svg width="32" height="32" viewBox="0 0 33 33" fill="none" xmlns="http://www.w3.org/2000/svg">
    <path opacity="0.667" fill-rule="evenodd" clip-rule="evenodd"
        d="M0.491645 0.5C1.89191 0.5 3.29134 0.5 4.69161 0.5C4.81761 4.592 3.55762 5.70965 0.911642 3.85296C0.505925 2.7934 0.366486 1.67575 0.491645 0.5Z"
        fill="#C60002" />
    <path opacity="0.677" fill-rule="evenodd" clip-rule="evenodd"
        d="M5.53149 2.73524C6.95864 2.55621 8.35891 2.74249 9.73146 3.29406C10.8512 4.78426 10.8512 6.27448 9.73146 7.76468C8.35891 8.31624 6.95864 8.50255 5.53149 8.32351C5.53149 6.46075 5.53149 4.598 5.53149 2.73524Z"
        fill="#C60002" />
    <path opacity="0.747" fill-rule="evenodd" clip-rule="evenodd"
        d="M11.4116 7.20601C15.2949 5.9857 16.8346 7.84844 16.0316 12.7943C11.3444 15.3108 9.80468 13.448 11.4116 7.20601Z"
        fill="#C60002" />
    <path opacity="0.704" fill-rule="evenodd" clip-rule="evenodd"
        d="M28.2114 11.6764C31.2958 11.3216 32.6953 13.1844 32.4114 17.2646C30.7314 17.2646 29.0514 17.2646 27.3714 17.2646C27.2588 15.2623 27.5385 13.3995 28.2114 11.6764Z"
        fill="#C60002" />
    <path opacity="0.78" fill-rule="evenodd" clip-rule="evenodd"
        d="M15.6116 15.0294C17.3142 14.8482 18.9942 15.0344 20.6515 15.5882C21.5369 17.1391 21.6763 18.8156 21.0715 20.6177C16.1156 23.4128 14.2953 21.55 15.6116 15.0294Z"
        fill="#C60002" />
    <path opacity="0.775" fill-rule="evenodd" clip-rule="evenodd"
        d="M24.0114 18.3824C25.7141 18.2013 27.3941 18.3875 29.0514 18.9413C30.3072 23.0235 29.1866 25.2588 25.6914 25.6472C27.0774 30.8848 25.678 33.1202 21.4915 32.3531C17.9383 30.7467 17.378 28.1389 19.8115 24.5295C21.184 23.978 22.5843 23.7917 24.0114 23.9707C24.0114 22.1079 24.0114 20.2452 24.0114 18.3824Z"
        fill="#C60002" />
    <path opacity="0.663" fill-rule="evenodd" clip-rule="evenodd"
        d="M4.69142 21.7352C6.11857 21.5562 7.51884 21.7425 8.89139 22.2941C9.85822 26.1637 8.73851 27.654 5.53141 26.7647C3.8111 25.3946 3.53139 23.7181 4.69142 21.7352Z"
        fill="#C60002" />
    <path opacity="0.695" fill-rule="evenodd" clip-rule="evenodd"
        d="M11.4116 22.8532C14.0122 22.19 15.9719 23.3076 17.2915 26.2062C15.9702 29.216 14.0097 30.1474 11.4116 29.0003C10.3599 26.9575 10.3599 24.9084 11.4116 22.8532Z"
        fill="#C60002" />
</svg>