<?xml version="1.0" encoding="UTF-8"?>
<svg id="Layer_1" data-name="Layer 1" xmlns="http://www.w3.org/2000/svg" width="32" height="32" xmlns:xlink="http://www.w3.org/1999/xlink" viewBox="0 0 32 32">
  <defs>
    <clipPath id="clippath">
      <rect x="3.37" y="2.66" width="25.25" height="26.68" style="fill: none;"/>
    </clipPath>
    <clipPath id="clippath-1">
      <rect x="3.37" y="2.66" width="25.25" height="26.68" style="fill: none;"/>
    </clipPath>
    <clipPath id="clippath-2">
      <rect x="3.37" y="2.66" width="25.25" height="26.68" style="fill: none;"/>
    </clipPath>
    <clipPath id="clippath-3">
      <rect x="3.37" y="2.66" width="25.25" height="26.68" style="fill: none;"/>
    </clipPath>
    <clipPath id="clippath-4">
      <rect x="3.37" y="2.66" width="25.25" height="26.68" style="fill: none;"/>
    </clipPath>
    <clipPath id="clippath-5">
      <rect x="9.04" y="3.58" width="16.74" height="11.32" style="fill: none;"/>
    </clipPath>
    <clipPath id="clippath-6">
      <rect x="9.04" y="3.58" width="16.74" height="11.32" style="fill: none;"/>
    </clipPath>
  </defs>
  <g id="Fred_green">
    <g style="clip-path: url(#clippath);">
      <g style="clip-path: url(#clippath-1);">
        <g style="clip-path: url(#clippath-2);">
          <path d="M8.44,8.88c0,.47-.38.86-.86.86s-.86-.38-.86-.86.38-.86.86-.86.86.38.86.86" style="fill: #fff;"/>
          <path d="M28.53,15.47c-.32-2.72-1.49-5.69-3.37-7.96-1.49-1.79-3.41-3.13-5.7-3.56-2.33-.43-4.54.4-5.91,2.36-.12.18-.24.36-.43.47-.21-.9.03-1.85-.29-2.75-.17-.48-.49-.92-.93-1.16-.63-.34-1.4-.24-2.08-.05-4.25,1.17-7.04,5.48-6.32,9.82.05.3.17.62.43.78.17.11.38.18.58.17,3.46-.02,7.63.15,9.35.24-.07,0-.16.02-.23.03-.27.05-.53.16-.74.34-.12.11-.23.24-.3.39-.08.17-.09.33-.09.52,0,.25,0,.51,0,.76,0,.09,0,.17.03.26.04.12.15.2.27.22.14.03.29,0,.42-.05.34-.12.66-.31.98-.46.34-.16.68-.3,1.03-.42.34-.12.65-.29.99-.42.24-.09.48-.17.72-.25.48-.14.96-.24,1.46-.29.48-.05.96-.05,1.44.01.46.06.92.18,1.35.37.44.19.84.46,1.19.78.39.36.71.78.96,1.24.13.23.24.47.34.71.28.69.4,1.44.49,2.18.19,1.53.05,3.13-.8,4.43-.99,1.49-2.72,2.38-4.46,2.16-.91-.12-1.93-.54-2.54-1.26-.55-.65-.79-1.49-.65-2.33.1-.57.37-1.1.79-1.5.72-.68,1.72-1.08,2.71-.9.03,0,.06.01.08.02,0,0,0,0,0,0,.06.02.13.03.2.03.4,0,.72-.32.72-.72,0-.36-.26-.65-.6-.71-.58-.15-1.19-.16-1.78-.07-.64.1-1.27.33-1.83.65-.09.05-.17.1-.25.15-.31.2-.61.42-.88.67-1.52,1.39-2.32,4.19-.67,6.56,1.61,2.3,5.43,3.05,8.3,1.85,4.8-2.01,6.61-8.56,6.05-13.3" style="fill: #fff;"/>
          <path d="M16.47,14.9s2.14-.89,4.24-.23c0,0,1.27.36,2.1,1.43,0,0,.93,1.12,1.18,2.59,0,0,.46,2,.09,3.75,0,0-.56,2.94-3.41,3.76,0,0-1.94.74-3.9-.69,0,0-1.38-.91-1.08-2.84,0,0,.18-1.39,1.81-2.11,0,0,.75-.42,1.97-.17,0,0,.52.04.7-.55,0,0,.13-.57-.39-.84,0,0-1.53-.55-3.33.3,0,0-2.39,1-3.02,3.43,0,0-.68,2.13.67,4.09,0,0,1.27,2.07,4.24,2.44,0,0,4.39.93,7.24-3.02,0,0,1.84-2.39,1.33-5.49,0,0-.27-2.33-1.87-3.99,0,0-1.69-2.19-5.11-2.49,0,0-1.97-.13-3.47.65" style="fill: #fff;"/>
          <path d="M8.44,8.88c0,.47-.38.86-.86.86s-.86-.38-.86-.86.38-.86.86-.86.86.38.86.86" style="fill: #82c443;"/>
          <g style="opacity: .8;">
            <g style="clip-path: url(#clippath-3);">
              <g style="clip-path: url(#clippath-4);">
                <path d="M28.53,15.47c-.32-2.72-1.49-5.69-3.37-7.96-1.49-1.79-3.41-3.13-5.7-3.56-2.33-.43-4.54.4-5.91,2.36-.12.18-.24.36-.43.47-.21-.9.03-1.85-.29-2.75-.17-.48-.49-.92-.93-1.16-.63-.34-1.4-.24-2.08-.05-4.25,1.17-7.04,5.48-6.32,9.82.05.3.17.62.43.78.17.11.38.18.58.17,3.46-.02,7.63.15,9.35.24-.07,0-.16.02-.23.03-.27.05-.53.16-.74.34-.12.11-.23.24-.3.39-.08.17-.09.33-.09.52,0,.25,0,.51,0,.76,0,.09,0,.17.03.26.04.12.15.2.27.22.14.03.29,0,.42-.05.34-.12.66-.31.98-.46.34-.16.68-.3,1.03-.42.34-.12.65-.29.99-.42.24-.09.48-.17.72-.25.48-.14.96-.24,1.46-.29.48-.05.96-.05,1.44.01.46.06.92.18,1.35.37.44.19.84.46,1.19.78.39.36.71.78.96,1.24.13.23.24.47.34.71.28.69.4,1.44.49,2.18.19,1.53.05,3.13-.8,4.43-.99,1.49-2.72,2.38-4.46,2.16-.91-.12-1.93-.54-2.54-1.26-.55-.65-.79-1.49-.65-2.33.1-.57.37-1.1.79-1.5.72-.68,1.72-1.08,2.71-.91.03,0,.06.01.08.02,0,0,0,0,0,0,.06.02.13.03.2.03.4,0,.72-.32.72-.72,0-.36-.26-.65-.6-.71-.58-.15-1.19-.16-1.78-.07-.64.1-1.27.33-1.83.65-.09.05-.17.1-.25.15-.31.2-.61.42-.88.67-1.52,1.39-2.32,4.19-.67,6.56,1.61,2.3,5.43,3.05,8.3,1.85,4.8-2.01,6.61-8.56,6.05-13.3M8.6,11.1c-1.37,0-2.4-1.06-2.39-2.42.01-1.34,1.11-2.42,2.43-2.41,1.32.01,2.42,1.13,2.4,2.45-.02,1.35-1.08,2.39-2.44,2.38" style="fill: #82c443;"/>
              </g>
            </g>
          </g>
          <path d="M16.47,14.9s2.14-.89,4.24-.23c0,0,1.27.36,2.1,1.43,0,0,.93,1.12,1.18,2.59,0,0,.46,2,.09,3.75,0,0-.56,2.94-3.41,3.76,0,0-1.94.74-3.9-.69,0,0-1.38-.91-1.08-2.84,0,0,.18-1.39,1.81-2.11,0,0,.75-.42,1.97-.17,0,0,.52.04.7-.55,0,0,.13-.57-.39-.84,0,0-1.53-.55-3.33.3,0,0-2.39,1-3.02,3.43,0,0-.68,2.13.67,4.09,0,0,1.27,2.07,4.24,2.44,0,0,4.39.93,7.24-3.02,0,0,1.84-2.39,1.33-5.49,0,0-.27-2.33-1.87-3.99,0,0-1.69-2.19-5.11-2.49,0,0-1.97-.13-3.47.65" style="fill: #82c443;"/>
          <g style="opacity: .8;">
            <g style="clip-path: url(#clippath-5);">
              <g style="clip-path: url(#clippath-6);">
                <path d="M21.9,9.45c.02.22.22.38.44.36.22-.02.38-.22.36-.44-.02-.22-.22-.38-.44-.36-.22.02-.38.22-.36.44" style="fill: #f4f4f5;"/>
                <path d="M22.49,11.22c.02.22.22.38.44.36.22-.02.38-.22.36-.44-.02-.22-.22-.38-.44-.36-.22.02-.38.22-.36.44" style="fill: #f4f4f5;"/>
                <path d="M24.75,12.74c.02.22.22.38.44.36.22-.02.38-.22.36-.44-.02-.22-.22-.38-.44-.36-.22.02-.38.22-.36.44" style="fill: #f4f4f5;"/>
                <path d="M18.31,8.65c.02.22.22.38.44.36.22-.02.38-.22.36-.44-.02-.22-.22-.38-.44-.36-.22.02-.38.22-.36.44" style="fill: #f4f4f5;"/>
                <path d="M19.9,8.51c.02.17.17.3.35.28.17-.02.3-.17.28-.35-.02-.17-.17-.3-.35-.28-.17.02-.3.17-.28.35" style="fill: #f4f4f5;"/>
                <path d="M18.42,6.77c.02.17.17.3.35.28.17-.02.3-.17.28-.35-.02-.17-.17-.3-.35-.28-.17.02-.3.17-.28.35" style="fill: #f4f4f5;"/>
                <path d="M20.39,10.07c.02.17.17.3.35.28.17-.02.3-.17.28-.35-.02-.17-.17-.3-.35-.28-.17.02-.3.17-.28.35" style="fill: #f4f4f5;"/>
                <path d="M21.06,11.26c.02.17.17.3.35.28.17-.02.3-.17.28-.35-.02-.17-.17-.3-.35-.28-.17.02-.3.17-.28.35" style="fill: #f4f4f5;"/>
                <path d="M23.21,12.56c.02.17.17.3.35.28.17-.02.3-.17.28-.35-.02-.17-.17-.3-.35-.28-.17.02-.3.17-.28.35" style="fill: #f4f4f5;"/>
                <path d="M18.74,10.24c.02.17.17.3.35.28.17-.02.3-.17.28-.35-.02-.17-.17-.3-.35-.28-.17.02-.3.17-.28.35" style="fill: #f4f4f5;"/>
                <path d="M16.73,8.13c.02.17.17.3.35.28.17-.02.3-.17.28-.35-.02-.17-.17-.3-.35-.28-.17.02-.3.17-.28.35" style="fill: #f4f4f5;"/>
                <path d="M16.07,6.76c.02.17.17.3.35.28.17-.02.3-.17.28-.35-.02-.17-.17-.3-.35-.28-.17.02-.3.17-.28.35" style="fill: #f4f4f5;"/>
                <path d="M15.28,9.09c.02.17.17.3.35.28.17-.02.3-.17.28-.35-.02-.17-.17-.3-.35-.28-.17.02-.3.17-.28.35" style="fill: #f4f4f5;"/>
                <path d="M17.2,9.6c.02.17.17.3.35.28.17-.02.3-.17.28-.35-.02-.17-.17-.3-.35-.28-.17.02-.3.17-.28.35" style="fill: #f4f4f5;"/>
                <path d="M12.02,6.14c-.14-.03-.28.05-.31.19-.03.14.05.28.19.31.14.03.28-.05.31-.19.03-.14-.05-.28-.19-.31" style="fill: #f4f4f5;"/>
                <path d="M12.12,5.18c-.06-.13-.21-.19-.34-.14-.13.06-.19.21-.14.34.06.13.21.19.34.14.13-.06.19-.21.14-.34" style="fill: #f4f4f5;"/>
                <path d="M10.61,4.81c-.14,0-.26.12-.26.26,0,.14.12.26.26.26.14,0,.26-.12.26-.26,0-.14-.12-.26-.26-.26" style="fill: #f4f4f5;"/>
                <path d="M10.36,3.58c-.14,0-.26.12-.26.26,0,.14.12.26.26.26.14,0,.26-.12.26-.26,0-.14-.12-.26-.26-.26" style="fill: #f4f4f5;"/>
                <path d="M11.31,3.98c-.14,0-.26.12-.26.26,0,.14.12.26.26.26.14,0,.26-.12.26-.26,0-.14-.12-.26-.26-.26" style="fill: #f4f4f5;"/>
                <path d="M9.3,3.72c-.14,0-.26.12-.26.26,0,.14.12.26.26.26.14,0,.26-.12.26-.26,0-.14-.12-.26-.26-.26" style="fill: #f4f4f5;"/>
                <path d="M25.15,14.62c.02.17.17.3.35.28.17-.02.3-.17.28-.35-.02-.17-.17-.3-.35-.28-.17.02-.3.17-.28.35" style="fill: #f4f4f5;"/>
              </g>
            </g>
          </g>
        </g>
      </g>
    </g>
  </g>
</svg>