<svg width="32" height="32" viewBox="0 0 32 32" fill="none" xmlns="http://www.w3.org/2000/svg">
    <g clip-path="url(#clip0_2138_231)">
        <rect width="32" height="20" transform="translate(0 6)" fill="#FAFAFA" />
        <path opacity="0.849" fill-rule="evenodd" clip-rule="evenodd"
            d="M24.7942 5.8999C25.3616 5.8999 25.929 5.8999 26.4963 5.8999C28.2 6.94114 29.1267 9.07448 29.2765 12.2999C31.3125 13.2766 31.9176 15.4766 31.0921 18.8999C30.2752 20.2883 29.3106 20.755 28.1985 20.2999C28.4287 19.8282 28.6557 19.3615 28.8793 18.8999C30.4043 18.8495 30.915 17.5829 30.4112 15.0999C30.0786 14.3232 29.6437 13.9566 29.1063 13.9999C29.0043 14.3302 28.8908 14.6302 28.7659 14.8999C28.5336 14.49 28.3444 14.0233 28.1985 13.4999C28.5247 9.9698 27.6737 7.90313 25.6453 7.2999C24.4232 7.45918 23.5721 8.52584 23.0921 10.4999C23.2434 10.7666 23.3947 11.0332 23.546 11.2999C23.4747 11.6515 23.3613 11.9515 23.2056 12.1999C22.6569 11.9095 22.0895 11.7762 21.5034 11.7999C21.0246 11.9868 20.6464 12.4202 20.3687 13.0999C20.0283 13.0999 19.6878 13.0999 19.3474 13.0999C19.8999 10.9967 20.8266 10.0634 22.1276 10.2999C22.6026 8.02858 23.4915 6.56191 24.7942 5.8999Z"
            fill="#5C98EA" />
        <path opacity="0.829" fill-rule="evenodd" clip-rule="evenodd"
            d="M12.6526 9.69993C13.7642 9.40483 14.7099 9.93815 15.4895 11.2999C15.3382 11.6999 15.149 12.0333 14.9221 12.2999C13.8146 10.9099 12.7366 10.9765 11.6881 12.4999C10.916 14.7198 11.0484 16.7531 12.0852 18.5999C13.6354 19.912 14.7324 19.1787 15.376 16.3999C14.6951 16.3333 14.0143 16.2666 13.3334 16.1999C13.1822 15.7333 13.1822 15.2666 13.3334 14.7999C14.2783 14.7 15.2239 14.6667 16.1703 14.6999C16.418 17.5649 15.7751 19.5315 14.2412 20.5999C11.5968 21.0721 10.2919 18.9721 10.3263 14.2999C10.5826 11.9176 11.3581 10.3843 12.6526 9.69993Z"
            fill="#444444" />
        <path opacity="0.862" fill-rule="evenodd" clip-rule="evenodd"
            d="M2.43972 9.89998C2.75142 9.8373 3.05402 9.90398 3.34752 10.1C4.0885 13.4845 4.80719 16.8845 5.50355 20.3C5.20781 20.5303 4.90522 20.5637 4.59575 20.4C4.41825 19.5621 4.22912 18.7287 4.02837 17.9C3.23763 17.7006 2.44331 17.6339 1.64539 17.7C1.54049 18.5882 1.38919 19.4549 1.19149 20.3C0.897995 20.496 0.595394 20.5627 0.283691 20.5C0.935066 16.9224 1.65375 13.3891 2.43972 9.89998ZM2.78015 12.1C2.8502 12.1221 2.90694 12.1888 2.95036 12.3C3.2088 13.633 3.45466 14.9663 3.68795 16.3C3.11931 16.3332 2.55194 16.2998 1.98582 16.2C2.32969 14.8818 2.59447 13.5151 2.78015 12.1Z"
            fill="#444444" />
        <path opacity="0.825" fill-rule="evenodd" clip-rule="evenodd"
            d="M8.79442 9.8999C9.09702 9.8999 9.39961 9.8999 9.70222 9.8999C9.70222 13.4332 9.70222 16.9666 9.70222 20.4999C9.39961 20.4999 9.09702 20.4999 8.79442 20.4999C8.81138 20.2895 8.79247 20.0895 8.73768 19.8999C7.65367 21.1746 6.70805 20.9079 5.9008 19.0999C5.39636 17.0571 5.56657 15.2238 6.41144 13.5999C7.24032 12.5943 8.01574 12.6943 8.73768 13.8999C8.79437 12.5682 8.81329 11.2349 8.79442 9.8999ZM7.20576 14.4999C8.51769 14.4438 9.02832 15.5772 8.73768 17.8999C8.29873 19.3573 7.67462 19.6573 6.86534 18.7999C6.54051 17.8437 6.44593 16.8104 6.58165 15.6999C6.73594 15.1954 6.94398 14.7954 7.20576 14.4999Z"
            fill="#444444" />
        <path opacity="0.808" fill-rule="evenodd" clip-rule="evenodd"
            d="M16.8511 9.8999C17.1537 9.8999 17.4562 9.8999 17.7589 9.8999C17.7589 13.4332 17.7589 16.9666 17.7589 20.4999C17.4562 20.4999 17.1537 20.4999 16.8511 20.4999C16.8511 16.9666 16.8511 13.4332 16.8511 9.8999Z"
            fill="#444444" />
        <path opacity="0.79" fill-rule="evenodd" clip-rule="evenodd"
            d="M24.3405 12.8999C25.1383 12.8084 25.3274 13.3417 24.9079 14.4999C24.5224 14.6343 24.1442 14.801 23.7732 14.9999C23.6642 15.2838 23.5697 15.5838 23.4895 15.8999C23.4327 17.4318 23.4139 18.9652 23.4327 20.4999C23.1301 20.4999 22.8276 20.4999 22.5249 20.4999C22.506 18.099 22.5249 15.699 22.5817 13.2999C23.0338 12.8952 23.3363 13.0952 23.4895 13.8999C23.7357 13.4353 24.0194 13.102 24.3405 12.8999Z"
            fill="#434443" />
        <path opacity="0.844" fill-rule="evenodd" clip-rule="evenodd"
            d="M28.1985 13.4999C28.3445 14.0233 28.5336 14.49 28.7659 14.8999C28.9524 15.659 29.0279 16.459 28.9929 17.2999C27.9716 17.2999 26.9503 17.2999 25.929 17.2999C26.0823 18.8706 26.6119 19.5039 27.5177 19.1999C27.7991 18.9036 28.045 18.5369 28.2553 18.0999C28.5476 18.2034 28.7557 18.4701 28.8794 18.8999C28.6557 19.3615 28.4288 19.8282 28.1985 20.2999C26.3194 21.4117 25.2602 20.245 25.0212 16.7999C25.0465 14.4889 25.7084 13.1889 27.0071 12.8999C27.4229 12.9999 27.8201 13.1999 28.1985 13.4999ZM26.6099 14.4999C27.3299 14.2009 27.8216 14.6342 28.0851 15.7999C27.3664 15.9332 26.6477 15.9332 25.929 15.7999C26.1023 15.2619 26.3293 14.8285 26.6099 14.4999Z"
            fill="#444444" />
        <path opacity="0.847" fill-rule="evenodd" clip-rule="evenodd"
            d="M19.3475 13.1001C19.6879 13.1001 20.0283 13.1001 20.3688 13.1001C20.9558 13.1337 21.3907 13.6004 21.6737 14.5001C21.8352 16.4842 21.8919 18.4842 21.8439 20.5001C21.5792 20.5001 21.3143 20.5001 21.0496 20.5001C21.0674 20.2254 21.0485 19.9587 20.9929 19.7001C20.5281 20.6428 19.9417 20.9428 19.234 20.6001C18.1562 19.5688 17.9672 18.1688 18.6666 16.4001C19.4133 15.6185 20.1888 15.5185 20.9929 16.1001C21.0339 15.3904 20.8637 14.8904 20.4822 14.6001C19.918 14.3262 19.4453 14.5596 19.0638 15.3001C18.8947 15.1367 18.7245 14.9701 18.5531 14.8001C18.4377 14.5902 18.4188 14.3569 18.4964 14.1001C18.7346 13.6407 19.0183 13.3073 19.3475 13.1001ZM19.5744 17.1001C19.9546 17.0671 20.3328 17.1004 20.7092 17.2001C20.8422 17.2838 20.9556 17.4172 21.0496 17.6001C20.7894 18.9628 20.2598 19.4961 19.461 19.2001C19.0086 18.421 19.0464 17.721 19.5744 17.1001Z"
            fill="#444444" />
    </g>
    <defs>
        <clipPath id="clip0_2138_231">
            <rect width="32" height="20" fill="white" transform="translate(0 6)" />
        </clipPath>
    </defs>
</svg>