<svg width="512" height="512" viewBox="0 0 512 512" fill="none" xmlns="http://www.w3.org/2000/svg">
<path d="M376.471 0H135.529C60.6786 0 0 60.6786 0 135.529V376.471C0 451.321 60.6786 512 135.529 512H376.471C451.321 512 512 451.321 512 376.471V135.529C512 60.6786 451.321 0 376.471 0Z" fill="#006AFB"/>
<path d="M273.019 167.933C280.587 159.615 290.898 154.967 301.714 155L416.089 155.351C439.285 155.421 452.433 185.114 437.928 204.668L419.305 229.772C411.677 240.054 400.214 246 388.017 246H202L273.019 167.933Z" fill="white"/>
<path d="M138.796 279.152C146.34 270.855 156.642 266.194 167.47 266.177L281.939 266C305.161 265.965 318.438 295.389 303.993 314.87L285.444 339.889C277.848 350.133 266.395 356.089 254.187 356.146L68 357L138.796 279.152Z" fill="white"/>
</svg>
