<svg width="32" height="32" viewBox="0 0 32 32" fill="none" xmlns="http://www.w3.org/2000/svg">
    <path fill-rule="evenodd" clip-rule="evenodd"
        d="M0 0C10.6667 0 21.3334 0 32 0C32 10.6667 32 21.3333 32 32C21.3334 32 10.6667 32 0 32C0 21.3333 0 10.6667 0 0Z"
        fill="#FAFAFA" />
    <path fill-rule="evenodd" clip-rule="evenodd"
        d="M15.1048 3.62036C14.9951 3.63716 14.783 3.66453 14.6334 3.68112C14.3427 3.71334 13.8151 3.8186 13.6363 3.87991C13.5764 3.90038 13.4296 3.94887 13.3099 3.98765C13.0723 4.06458 12.9146 4.12557 12.8023 4.18364C12.7624 4.20433 12.6431 4.26068 12.5372 4.30895C12.0381 4.5365 10.78 5.39565 10.6448 5.60123C10.6348 5.61642 10.5622 5.68603 10.4834 5.75584C10.4046 5.82577 10.2972 5.93136 10.2447 5.99062C10.1921 6.04988 10.0526 6.20664 9.9347 6.33906C9.63908 6.6707 9.27076 7.13745 9.12146 7.36974C9.05293 7.47641 8.98811 7.57338 8.97751 7.58523C8.91985 7.64966 8.75922 7.93033 8.75922 7.96664C8.75922 7.98992 8.74517 8.01545 8.72812 8.02343C8.71099 8.03129 8.59242 8.24139 8.46469 8.49028C8.21715 8.97118 8.00371 9.47572 7.82659 9.9987C7.80656 10.058 7.7635 10.1798 7.73078 10.2696C7.69814 10.3592 7.6714 10.4604 7.6714 10.4942C7.6714 10.5821 7.58048 10.6274 7.29066 10.6838C6.82934 10.7738 6.16368 10.9989 5.78585 11.1927C5.49594 11.3415 5.03008 11.622 4.85386 11.7538C4.75015 11.8314 4.6556 11.895 4.64382 11.895C4.63203 11.895 4.60275 11.9138 4.57864 11.9369C4.55453 11.96 4.3938 12.1027 4.22147 12.2541C3.57567 12.8215 2.41361 14.2956 2.41361 14.5477C2.41361 14.5656 2.37626 14.6404 2.33066 14.7138C2.25714 14.8319 1.99987 15.4374 1.89844 15.7307C1.87804 15.7899 1.84894 15.8682 1.8338 15.9045C1.81875 15.9408 1.79491 16.0327 1.78086 16.1088C1.76681 16.1847 1.74025 16.258 1.72185 16.2715C1.70344 16.285 1.6884 16.3436 1.6884 16.4018C1.6884 16.46 1.67326 16.5412 1.65486 16.5824C1.42542 17.0943 1.37329 20.1816 1.57871 21.0963C1.67398 21.5209 1.70263 21.6303 1.78757 21.8936C1.90324 22.2521 2.15915 22.9272 2.19604 22.9711C2.20602 22.9829 2.24563 23.0605 2.28407 23.1435L2.39285 23.3784C2.41424 23.4245 2.44425 23.4827 2.45957 23.5077C2.53701 23.6366 2.61412 23.7659 2.69091 23.8954C3.03693 24.4778 3.67892 25.2632 4.13599 25.6634C4.21576 25.7332 4.28647 25.8057 4.29309 25.8245C4.2998 25.8433 4.32699 25.8586 4.35355 25.8586C4.38011 25.8586 4.40731 25.8732 4.41402 25.891C4.45109 25.9901 5.56094 26.7206 5.67444 26.7206C5.69637 26.7206 5.74261 26.739 5.77723 26.7616C5.98446 26.8965 6.45984 27.0772 6.80114 27.1508L7.18188 27.2332C7.48384 27.2988 26.1559 27.2995 26.3637 27.2339C26.4435 27.2088 26.5741 27.172 26.6538 27.1524C26.8753 27.0978 27.0851 27.0186 27.1234 26.9752C27.1424 26.9536 27.1846 26.9361 27.2172 26.9361C27.3054 26.9361 27.8714 26.5882 28.1109 26.3867C28.1744 26.3332 28.2424 26.2896 28.262 26.2896C28.2816 26.2896 28.3031 26.275 28.3098 26.257C28.3164 26.239 28.3952 26.1578 28.485 26.0767C28.6953 25.8864 29.2336 25.2466 29.3937 24.9967C29.4619 24.89 29.5302 24.7963 29.5453 24.7884C29.5605 24.7804 29.5728 24.753 29.5728 24.7271C29.5728 24.7014 29.5957 24.6496 29.6235 24.6121C29.7532 24.4382 30.0451 23.7361 30.1716 23.2943C30.2055 23.1758 30.2466 23.04 30.263 22.9926C30.5696 22.1082 30.475 19.9694 30.0818 18.8984C29.8981 18.3979 29.6606 17.8793 29.6015 17.8497C29.5857 17.8417 29.5728 17.8078 29.5728 17.7743C29.5728 17.7407 29.5591 17.7132 29.5424 17.7132C29.5257 17.7132 29.4946 17.6695 29.4735 17.6162C29.3656 17.3447 28.7143 16.5735 28.3361 16.2694C28.1887 16.1509 28.0598 16.0442 28.0499 16.0324C27.9757 15.9442 27.3384 15.5783 27.1071 15.4911C26.9974 15.4497 26.8913 15.4019 26.8714 15.3847C26.8515 15.3676 26.7862 15.3425 26.7264 15.3289C26.6665 15.3153 26.4952 15.2721 26.3456 15.2329C26.1641 15.1854 25.8023 15.1524 25.2578 15.1337L24.4419 15.1058L24.4488 14.8903C24.4526 14.7718 24.4671 14.3753 24.4811 14.0092C24.5058 13.3605 24.47 12.6882 24.38 12.1105C24.3597 11.9801 24.3302 11.7862 24.3143 11.6795C24.2984 11.5728 24.2585 11.3692 24.2256 11.227C24.1927 11.0848 24.1574 10.9199 24.147 10.8607C24.1367 10.8014 24.1149 10.7141 24.0985 10.6667C24.0822 10.6193 24.0412 10.4835 24.0073 10.365C23.9734 10.2465 23.9215 10.0817 23.8921 9.9987C23.8628 9.91574 23.8252 9.80907 23.8088 9.76166C23.728 9.52883 23.5558 9.12231 23.4001 8.7966C23.305 8.59759 23.2272 8.4182 23.2272 8.39794C23.2272 8.37758 23.2146 8.36099 23.1992 8.36099C23.1838 8.36099 23.1389 8.28826 23.0995 8.19937C23.06 8.11048 22.9911 7.98949 22.9462 7.93044C22.9013 7.8714 22.8646 7.80029 22.8646 7.77238C22.8646 7.74458 22.8524 7.71528 22.8374 7.7073C22.8224 7.69944 22.7126 7.54752 22.5934 7.36974C22.389 7.06515 21.586 6.08328 21.3688 5.87253C20.7586 5.28015 19.8063 4.59932 19.1841 4.31067C19.1443 4.29214 19.0382 4.24333 18.9485 4.20207C18.8587 4.1608 18.7526 4.11156 18.7128 4.09249C18.6729 4.07342 18.5423 4.02612 18.4227 3.98755C18.303 3.94887 18.1562 3.89974 18.0963 3.8784C17.9314 3.81957 17.5536 3.74717 17.1898 3.70472C16.9901 3.68099 16.7906 3.65379 16.5915 3.62316C16.2886 3.57489 15.4128 3.57316 15.1048 3.62036ZM17.0629 5.70693C17.2125 5.74658 17.4001 5.79463 17.4799 5.81381C17.6475 5.854 18.044 6.00969 18.2105 6.10062C18.2735 6.13489 18.343 6.16301 18.3652 6.16301C18.3874 6.16301 18.4338 6.18014 18.4685 6.20115C18.5031 6.22216 18.7109 6.34337 18.9303 6.47051C19.1497 6.59765 19.3508 6.72597 19.3771 6.7556C19.4034 6.78523 19.4483 6.80947 19.4769 6.80947C19.5053 6.80947 19.5286 6.82887 19.5286 6.85257C19.5286 6.87627 19.5531 6.89567 19.583 6.89567C19.6129 6.89567 19.6374 6.91194 19.6374 6.93187C19.6374 6.9517 19.6741 6.98822 19.719 7.01279C20.0085 7.17171 20.8754 8.14302 21.2684 8.74887C21.3376 8.85553 21.4034 8.9525 21.4146 8.96436C21.4315 8.98213 21.6431 9.38046 21.8385 9.76252C21.8923 9.86757 22.1679 10.5332 22.2308 10.7098C22.2561 10.7809 22.2943 10.8876 22.3156 10.9468C22.3802 11.126 22.5101 11.6039 22.544 11.7873C22.6585 12.4058 22.6938 12.6593 22.7241 13.0802C22.7606 13.5879 22.7351 14.7633 22.6829 14.9765C22.6525 15.1009 22.5929 15.4586 22.5501 15.7738C22.5389 15.8567 22.5168 15.944 22.5009 15.9677C22.4851 15.9914 22.4607 16.0838 22.4467 16.1729C22.4327 16.2621 22.4068 16.3456 22.3891 16.3586C22.3715 16.3717 22.357 16.4201 22.357 16.4665C22.357 16.5128 22.3415 16.5843 22.3224 16.6255C22.3035 16.6667 22.2609 16.778 22.2278 16.8728C21.9865 17.5647 21.3326 18.8581 21.1602 18.9847C21.1105 19.0212 21.115 19.0757 21.1734 19.143C21.2636 19.2472 21.4677 19.4567 21.6394 19.6212C21.7327 19.7105 21.8548 19.8369 21.9108 19.9019C21.9667 19.9669 22.105 20.1131 22.2183 20.2266L22.4239 20.4332L22.533 20.2907C22.6593 20.1256 23.0459 19.4922 23.0459 19.4506C23.0459 19.435 23.0687 19.3917 23.0966 19.3542C23.1245 19.3168 23.179 19.2184 23.2176 19.1354C23.4807 18.5707 23.532 18.4604 23.5583 18.4027C23.5745 18.3672 23.6546 18.1734 23.7362 17.972C23.9039 17.5586 23.9704 17.4546 24.0673 17.4546C24.1043 17.4546 24.163 17.4366 24.1976 17.4146C24.6135 17.1505 26.1982 17.1516 26.4345 17.416C26.4534 17.4372 26.495 17.4546 26.5268 17.4546C26.5949 17.4546 27.0607 17.732 27.1452 17.8229C27.1773 17.8573 27.2207 17.8856 27.2418 17.8856C27.3698 17.8856 28.34 19.1965 28.34 19.3694C28.34 19.3832 28.377 19.4864 28.4223 19.5989C28.5027 19.7988 28.5888 20.1039 28.6622 20.4499C28.7547 20.8853 28.7298 21.8395 28.6144 22.2815C28.5805 22.4119 28.5437 22.5719 28.5329 22.6371C28.522 22.7023 28.4986 22.7556 28.4809 22.7556C28.4632 22.7556 28.4487 22.7858 28.4487 22.8227C28.4487 22.8964 28.29 23.2545 28.2094 23.3623C28.1815 23.3998 28.1587 23.4515 28.1587 23.4773C28.1587 23.5031 28.1463 23.5306 28.1312 23.5386C28.116 23.5464 28.0467 23.6402 27.9771 23.7468C27.826 23.9781 27.5783 24.271 27.3996 24.4295C27.3286 24.4925 27.2422 24.5743 27.2076 24.6111C26.9768 24.8577 26.2483 25.1885 25.7339 25.2803C25.2972 25.3582 8.50476 25.3728 7.94743 25.2958C7.43788 25.2253 6.91446 25.0924 6.75627 24.9931C6.72164 24.9714 6.67523 24.9536 6.65302 24.9536C6.47144 24.9536 5.48144 24.282 5.09816 23.8989C4.41112 23.212 3.46517 21.6923 3.46517 21.2753C3.46517 21.2389 3.44885 21.1972 3.42891 21.1825C3.40896 21.1679 3.39265 21.1261 3.39265 21.0896C3.39265 21.053 3.36962 20.9621 3.34152 20.8873C3.31351 20.8127 3.27997 20.6934 3.267 20.6223C3.11661 19.7925 3.10628 19.6906 3.10446 19.0061C3.10256 18.3214 3.16429 17.6782 3.25014 17.4875C3.26872 17.4463 3.28386 17.3791 3.28386 17.3381C3.28386 17.2726 3.33943 17.0604 3.42827 16.7866C3.77039 15.7322 4.91206 14.0005 5.40031 13.7956C5.42288 13.7861 5.44953 13.7659 5.4595 13.7506C5.53338 13.6373 6.21028 13.2111 6.52919 13.0769C6.62891 13.035 6.72681 12.9871 6.74675 12.9704C6.7667 12.9538 6.83197 12.9297 6.8918 12.9168C6.95163 12.904 7.10664 12.8621 7.23627 12.8236C7.81889 12.6509 8.86818 12.6482 9.48443 12.8179C9.61406 12.8537 9.76908 12.8951 9.82891 12.9101C9.88874 12.925 9.98909 12.9646 10.0519 12.9979C10.1148 13.0313 10.1913 13.0586 10.2221 13.0586C10.2528 13.0586 10.288 13.078 10.3003 13.1017C10.3126 13.1254 10.3458 13.1448 10.374 13.1448C10.4288 13.1448 10.7628 13.3159 10.9711 13.4508C11.0409 13.496 11.5304 13.7864 12.0589 14.0961C12.5874 14.4059 13.0443 14.6767 13.0742 14.6982C13.1041 14.7195 13.1857 14.7706 13.2555 14.8116C13.3253 14.8527 13.5204 14.9799 13.6889 15.0945C14.0324 15.3277 14.0759 15.3328 14.1621 15.1489L14.344 14.761C14.9815 13.402 14.9613 13.5016 14.6334 13.3368C14.5437 13.2918 14.4621 13.2447 14.4521 13.2322C14.4325 13.2075 13.7459 12.7813 13.5547 12.6752C13.4899 12.6392 13.4368 12.5944 13.4368 12.5756C13.4368 12.5568 13.4075 12.5415 13.3716 12.5415C13.3357 12.5415 13.2908 12.5231 13.2719 12.5007C13.2143 12.4325 11.8429 11.6198 11.5332 11.4703C11.3736 11.3932 11.2104 11.3134 11.1705 11.2928C11.0321 11.2215 10.5892 11.0425 10.3728 10.9704C10.2532 10.9306 10.1178 10.8798 10.0719 10.8577C10.0262 10.8357 9.94295 10.8176 9.88701 10.8176C9.62104 10.8176 9.50247 10.6844 9.58913 10.483C9.6069 10.4419 9.70526 10.2013 9.80769 9.94849C10.0107 9.4477 10.4165 8.72786 10.7006 8.36454C11.089 7.86795 11.4534 7.46596 11.6193 7.3511C11.6512 7.32902 11.7102 7.27439 11.7503 7.22968C11.7904 7.18507 11.8803 7.10717 11.9502 7.05675C12.02 7.00621 12.0852 6.95417 12.0952 6.94103C12.1052 6.92799 12.146 6.8961 12.1858 6.87013C12.6061 6.59765 12.6982 6.53516 12.7279 6.50251C12.7469 6.48172 12.7918 6.46469 12.8277 6.46469C12.8636 6.46469 12.8929 6.4453 12.8929 6.42159C12.8929 6.39789 12.9109 6.3785 12.9328 6.3785C12.9547 6.3785 13.0322 6.34747 13.1051 6.30943C13.1778 6.27151 13.27 6.22431 13.3099 6.2046C13.3498 6.18499 13.4396 6.14038 13.5094 6.10558C13.5792 6.07078 13.6689 6.03199 13.7088 6.01939C13.7487 6.00678 13.8711 5.96433 13.9807 5.92511C14.2191 5.83978 14.3648 5.80153 14.7947 5.71124C14.9732 5.67374 15.1279 5.6328 15.1385 5.62009C15.1858 5.56395 16.7979 5.63668 17.0629 5.70693Z"
        fill="#4A9BD5" />
</svg>