<svg width="32" height="32" viewBox="0 0 33 32" fill="none" xmlns="http://www.w3.org/2000/svg">
    <path fill-rule="evenodd" clip-rule="evenodd"
        d="M5.88418 14.6454L17.645 0.556636C18.2645 -0.185545 19.269 -0.185545 19.8885 0.556636L31.6673 14.667C32.2868 15.4092 32.2868 16.6125 31.6673 17.3547L19.9067 31.4434C19.2869 32.1855 18.2825 32.1855 17.663 31.4434L5.88418 17.333C5.26468 16.5909 5.26468 15.3876 5.88418 14.6454Z"
        fill="#008DFF" />
    <path fill-rule="evenodd" clip-rule="evenodd"
        d="M0.596521 14.6454L12.3571 0.556636C12.9768 -0.185545 13.9811 -0.185545 14.6008 0.556636L26.3796 14.667C26.9991 15.4092 26.9991 16.6125 26.3796 17.3547L14.6188 31.4434C13.9993 32.1855 12.9948 32.1855 12.3753 31.4434L0.596521 17.333C-0.0229778 16.5909 -0.0229778 15.3876 0.596521 14.6454Z"
        fill="#3EE9B5" />
    <path fill-rule="evenodd" clip-rule="evenodd"
        d="M4.76257 15.9919L16.1245 2.38086L27.501 16.0094L16.1391 29.6206L4.76257 15.9919Z"
        fill="#150C3C" />
</svg>