<svg width="32" height="32" viewBox="0 0 32 32" fill="none" xmlns="http://www.w3.org/2000/svg">
    <g clip-path="url(#clip0_2977_1140)">
        <path fill-rule="evenodd" clip-rule="evenodd"
            d="M-0.0178223 -0.0175781C10.6488 -0.0175781 21.3155 -0.0175781 31.9822 -0.0175781C31.9822 10.6491 31.9822 21.3158 31.9822 31.9824C21.3155 31.9824 10.6488 31.9824 -0.0178223 31.9824C-0.0178223 21.3158 -0.0178223 10.6491 -0.0178223 -0.0175781Z"
            fill="#373CCD" />
        <path fill-rule="evenodd" clip-rule="evenodd"
            d="M25.3689 14.4893C26.2517 14.448 27.1406 14.442 28.0356 14.4716C28.1422 14.4834 28.2489 14.4953 28.3556 14.5071C28.3753 14.5207 28.3872 14.5385 28.3911 14.5604C28.2869 14.532 28.1803 14.5202 28.0711 14.5249C28.0237 14.5249 27.9763 14.5249 27.9289 14.5249C27.0817 14.4894 26.2283 14.4776 25.3689 14.4893Z"
            fill="#4D52BC" />
        <path fill-rule="evenodd" clip-rule="evenodd"
            d="M9.51116 14.4885C9.51116 14.5004 9.51116 14.5123 9.51116 14.5241C9.27208 14.515 9.03504 14.5268 8.80005 14.5597C8.804 14.5377 8.81584 14.5199 8.8356 14.5063C9.06049 14.4885 9.28567 14.4826 9.51116 14.4885Z"
            fill="#C4C8F5" />
        <path fill-rule="evenodd" clip-rule="evenodd"
            d="M21.28 14.4886C21.28 14.5004 21.28 14.5123 21.28 14.5241C20.3665 14.5136 19.4539 14.5254 18.5422 14.5597C18.5694 14.5324 18.6049 14.5146 18.6489 14.5063C19.5258 14.4886 20.4029 14.4826 21.28 14.4886Z"
            fill="#C5C7F0" />
        <path fill-rule="evenodd" clip-rule="evenodd"
            d="M24.1956 14.5242C23.9683 14.5153 23.7431 14.5271 23.52 14.5598C23.524 14.5378 23.5358 14.5201 23.5556 14.5064C23.7753 14.4773 23.9887 14.4832 24.1956 14.5242Z"
            fill="#B3B4EB" />
        <path fill-rule="evenodd" clip-rule="evenodd"
            d="M25.3689 14.4888C26.2283 14.477 27.0816 14.4888 27.9289 14.5243C27.0035 14.5138 26.079 14.5256 25.1555 14.5599C25.2165 14.5159 25.2876 14.4922 25.3689 14.4888Z"
            fill="#C4C6F0" />
        <path fill-rule="evenodd" clip-rule="evenodd"
            d="M8.2667 14.4885C8.30784 15.4578 8.31377 16.4297 8.28448 17.4041C8.25898 17.4234 8.2412 17.4471 8.23114 17.4752C8.02286 17.4867 7.82136 17.4748 7.6267 17.4396C7.56184 17.3207 7.53816 17.1903 7.55559 17.0485C7.55559 16.2189 7.55559 15.3893 7.55559 14.5596C7.58364 14.5496 7.60736 14.5318 7.6267 14.5063C7.83971 14.4886 8.05304 14.4826 8.2667 14.4885Z"
            fill="#FAFBFC" />
        <path fill-rule="evenodd" clip-rule="evenodd"
            d="M11.8222 14.4883C12.0118 14.4883 12.2015 14.4883 12.3911 14.4883C12.3911 14.512 12.4029 14.5238 12.4266 14.5238C12.4379 15.4973 12.426 16.4691 12.3911 17.4394C12.3674 17.4394 12.3555 17.4512 12.3555 17.4749C12.1419 17.4809 11.9285 17.4749 11.7155 17.4572C11.1266 16.9095 10.534 16.3703 9.93774 15.8394C9.93774 15.8157 9.9259 15.8038 9.90218 15.8038C9.77276 15.6981 9.65425 15.5796 9.54663 15.4483C9.54449 15.429 9.53265 15.4171 9.51107 15.4127C9.47552 16.076 9.46368 16.7397 9.47552 17.4038C9.46368 17.4276 9.4518 17.4512 9.43996 17.4749C9.25034 17.4749 9.06069 17.4749 8.87107 17.4749C8.81262 17.4639 8.77706 17.4284 8.7644 17.3683C8.7644 16.432 8.7644 15.4957 8.7644 14.5594C8.77624 14.5594 8.78812 14.5594 8.79996 14.5594C9.03495 14.5266 9.272 14.5147 9.51107 14.5238C10.2435 15.1791 10.9605 15.8546 11.6622 16.5505C11.68 15.9106 11.6859 15.2706 11.68 14.6305C11.6918 14.5476 11.7392 14.5001 11.8222 14.4883Z"
            fill="#FAFBFC" />
        <path fill-rule="evenodd" clip-rule="evenodd"
            d="M17.1555 14.4886C17.38 14.5886 17.54 14.7545 17.6355 14.9863C17.6592 15.413 17.6592 15.8397 17.6355 16.2663C17.4742 16.5639 17.2193 16.7239 16.8711 16.7463C17.0926 16.9738 17.3177 17.1931 17.5466 17.4041C17.1956 17.4502 16.8401 17.4502 16.48 17.4041C16.0424 16.9784 15.6039 16.5517 15.1644 16.1241C15.7215 16.1004 16.2785 16.0767 16.8355 16.053C16.8575 16.0491 16.8752 16.0372 16.8889 16.0174C16.9181 15.7504 16.9121 15.4896 16.8711 15.2352C16.8474 15.2115 16.8237 15.1878 16.8 15.1641C15.9172 15.1286 15.0283 15.1168 14.1333 15.1286C14.1333 14.9389 14.1333 14.7493 14.1333 14.5597C14.1614 14.5496 14.1851 14.5318 14.2044 14.5063C15.1881 14.4886 16.1717 14.4826 17.1555 14.4886Z"
            fill="#FBFBFC" />
        <path fill-rule="evenodd" clip-rule="evenodd"
            d="M21.28 14.5252C21.5398 14.5485 21.7176 14.6789 21.8133 14.9163C21.8603 15.6158 21.8603 16.3151 21.8133 17.0141C21.7511 17.199 21.6326 17.3293 21.4577 17.4052C20.486 17.4523 19.5142 17.4523 18.5422 17.4052C18.3656 17.3472 18.2471 17.2287 18.1866 17.0496C18.1528 16.3513 18.141 15.6521 18.1511 14.9519C18.223 14.7615 18.3533 14.6311 18.5422 14.5608C19.4539 14.5265 20.3665 14.5147 21.28 14.5252Z"
            fill="#FCFCFD" />
        <path fill-rule="evenodd" clip-rule="evenodd"
            d="M24.1955 14.5244C24.2074 14.5244 24.2192 14.5244 24.2311 14.5244C24.2426 15.4988 24.2308 16.4707 24.1955 17.4399C24.1955 17.4518 24.1955 17.4636 24.1955 17.4755C23.9809 17.4872 23.7675 17.4753 23.5555 17.4399C23.5446 17.4112 23.5268 17.3875 23.5022 17.3688C23.4844 16.4326 23.4785 15.4963 23.4844 14.5599C23.4962 14.5599 23.5081 14.5599 23.52 14.5599C23.7431 14.5273 23.9682 14.5154 24.1955 14.5244Z"
            fill="#FAFAFC" />
        <path fill-rule="evenodd" clip-rule="evenodd"
            d="M27.9289 14.5252C27.9763 14.5252 28.0237 14.5252 28.0711 14.5252C28.291 14.6387 28.4332 14.8165 28.4978 15.0586C28.5037 15.6631 28.4978 16.2675 28.48 16.8719C28.4358 17.1825 28.2639 17.3722 27.9644 17.4408C27.0873 17.4467 26.2103 17.4408 25.3333 17.423C25.2403 17.3938 25.1455 17.376 25.0489 17.3697C24.8874 17.2723 24.7867 17.1301 24.7467 16.943C24.723 16.2793 24.723 15.6156 24.7467 14.9519C24.8322 14.7655 24.9685 14.6352 25.1556 14.5608C26.0791 14.5265 27.0035 14.5147 27.9289 14.5252Z"
            fill="#FBFCFC" />
        <path fill-rule="evenodd" clip-rule="evenodd"
            d="M5.49331 14.5593C6.07038 15.4403 6.65705 16.3173 7.25331 17.1905C7.31248 17.2717 7.31838 17.3547 7.27109 17.4393C7.04787 17.4852 6.82267 17.4852 6.59554 17.4393C6.20123 16.8446 5.81011 16.252 5.4222 15.6616C5.35294 15.5506 5.27589 15.4439 5.19109 15.3416C4.72688 16.0366 4.27056 16.7359 3.8222 17.4393C3.59184 17.4746 3.3548 17.4864 3.11109 17.4749C3.10083 17.3629 3.11861 17.2563 3.16443 17.1549C3.72599 16.2747 4.30082 15.4035 4.88887 14.5416C5.09683 14.5125 5.29829 14.5184 5.49331 14.5593Z"
            fill="#F8F9FB" />
        <path fill-rule="evenodd" clip-rule="evenodd"
            d="M12.9956 14.4883C13.2089 14.4883 13.4222 14.4883 13.6356 14.4883C13.683 15.4601 13.683 16.432 13.6356 17.4038C13.6119 17.4038 13.6 17.4157 13.6 17.4394C13.3864 17.4453 13.173 17.4394 12.96 17.4216C12.9403 17.408 12.9284 17.3902 12.9245 17.3683C12.9185 16.4319 12.9245 15.4956 12.9422 14.5594C12.9677 14.5401 12.9855 14.5163 12.9956 14.4883Z"
            fill="#F8F9FB" />
        <path fill-rule="evenodd" clip-rule="evenodd"
            d="M12.3911 14.488C12.5194 14.4777 12.6438 14.4895 12.7645 14.5235C12.7882 15.4835 12.7882 16.4435 12.7645 17.4035C12.739 17.4229 12.7212 17.4466 12.7111 17.4746C12.5926 17.4746 12.4741 17.4746 12.3556 17.4746C12.3556 17.4509 12.3674 17.4391 12.3911 17.4391C12.4867 17.4449 12.5815 17.439 12.6756 17.4213C12.61 17.3812 12.5389 17.3634 12.4623 17.368C12.474 16.4137 12.4622 15.4656 12.4267 14.5235C12.403 14.5235 12.3911 14.5117 12.3911 14.488Z"
            fill="#0C3473" />
        <path fill-rule="evenodd" clip-rule="evenodd"
            d="M7.55559 14.5605C7.55559 15.3902 7.55559 16.2198 7.55559 17.0494C7.52003 17.0494 7.48447 17.0494 7.44892 17.0494C7.43715 16.9847 7.41343 16.9254 7.37781 16.8717C7.42481 16.8656 7.46631 16.8775 7.50225 16.9072C7.50823 16.1189 7.526 15.3367 7.55559 14.5605Z"
            fill="#141E99" />
        <path fill-rule="evenodd" clip-rule="evenodd"
            d="M8.26663 14.4883C8.39702 14.4883 8.52736 14.4883 8.65775 14.4883C8.65775 15.4601 8.65775 16.432 8.65775 17.4038C8.53227 17.4722 8.39005 17.4959 8.23108 17.4749C8.24114 17.4469 8.25892 17.4232 8.28441 17.4038C8.31371 16.4294 8.30777 15.4576 8.26663 14.4883Z"
            fill="#0C2A74" />
        <path fill-rule="evenodd" clip-rule="evenodd"
            d="M8.40894 14.5254C8.48005 14.5254 8.55116 14.5254 8.62227 14.5254C8.63411 15.4738 8.62227 16.422 8.58671 17.3698C8.52577 17.3304 8.50206 17.3541 8.5156 17.4409C8.48005 17.4409 8.44449 17.4409 8.40894 17.4409C8.40894 16.4691 8.40894 15.4972 8.40894 14.5254Z"
            fill="#0C366B" />
        <path fill-rule="evenodd" clip-rule="evenodd"
            d="M8.48003 14.6309C8.52739 15.0509 8.5511 15.4835 8.55114 15.9286C8.5393 16.3612 8.52742 16.7938 8.51558 17.2264C8.48003 16.3616 8.46819 15.4964 8.48003 14.6309Z"
            fill="#0E3279" />
        <path fill-rule="evenodd" clip-rule="evenodd"
            d="M8.65784 14.4883C8.68351 14.5257 8.71906 14.5494 8.7645 14.5594C8.7645 15.4957 8.7645 16.432 8.7645 17.3683C8.72507 17.3703 8.68952 17.3821 8.65784 17.4038C8.65784 16.432 8.65784 15.4601 8.65784 14.4883Z"
            fill="#3E45AE" />
        <path fill-rule="evenodd" clip-rule="evenodd"
            d="M12.4267 14.5254C12.4622 15.4674 12.474 16.4156 12.4622 17.3698C12.5388 17.3653 12.61 17.3831 12.6756 17.4232C12.5815 17.4408 12.4867 17.4468 12.3911 17.4409C12.4261 16.4707 12.4379 15.4988 12.4267 14.5254Z"
            fill="#1E3F6D" />
        <path fill-rule="evenodd" clip-rule="evenodd"
            d="M11.8223 14.4885C12.1447 14.4413 12.4706 14.4413 12.8 14.4885C12.8238 15.4723 12.8238 16.4559 12.8 17.4396C12.7762 17.4664 12.7466 17.4783 12.7112 17.4752C12.7212 17.4472 12.739 17.4234 12.7645 17.4041C12.7882 16.4441 12.7882 15.4841 12.7645 14.5241C12.6438 14.4901 12.5194 14.4783 12.3912 14.4885C12.2015 14.4885 12.0119 14.4885 11.8223 14.4885Z"
            fill="#2638A5" />
        <path fill-rule="evenodd" clip-rule="evenodd"
            d="M12.9955 14.4888C12.9854 14.5168 12.9677 14.5405 12.9422 14.5599C12.9244 15.4961 12.9185 16.4324 12.9244 17.3688C12.883 16.4266 12.8771 15.4785 12.9066 14.5243C12.9305 14.4976 12.9601 14.4857 12.9955 14.4888Z"
            fill="#A3A8FC" />
        <path fill-rule="evenodd" clip-rule="evenodd"
            d="M23.4845 14.5605C23.4785 15.4969 23.4845 16.4332 23.5022 17.3694C23.5269 17.3881 23.5446 17.4118 23.5556 17.4405C23.7676 17.476 23.9809 17.4878 24.1956 17.4761C23.9576 17.4906 23.7206 17.5262 23.4845 17.5828C23.4506 17.546 23.4506 17.5045 23.4845 17.4583C23.4725 17.4217 23.4488 17.4039 23.4134 17.405C23.4134 17.2272 23.4134 17.0494 23.4134 16.8717C23.2847 16.8452 23.1543 16.8334 23.0222 16.8361C22.9985 16.8361 22.9867 16.8243 22.9867 16.8005C23.1384 16.79 23.2866 16.8018 23.4311 16.8361C23.4371 16.0715 23.4549 15.313 23.4845 14.5605Z"
            fill="#2E34AD" />
        <path fill-rule="evenodd" clip-rule="evenodd"
            d="M24.2311 14.5243C24.3534 14.5155 24.4719 14.5273 24.5867 14.5598C24.5976 15.5091 24.5857 16.4573 24.5511 17.4043C24.4343 17.4294 24.3158 17.4413 24.1956 17.4398C24.2308 16.4706 24.2426 15.4988 24.2311 14.5243Z"
            fill="#1A3975" />
        <path fill-rule="evenodd" clip-rule="evenodd"
            d="M17.1555 14.488C17.549 14.4433 17.8334 14.5974 18.0089 14.9502C18.0148 15.3889 18.0089 15.8274 17.9911 16.2658C17.9318 16.3251 17.9021 16.3962 17.9022 16.4791C17.8149 16.5418 17.7201 16.6011 17.6178 16.6569C17.4874 16.6806 17.357 16.7043 17.2266 16.728C17.3271 16.8763 17.4574 16.9829 17.6178 17.048C17.6125 17.0854 17.6184 17.121 17.6355 17.1547C17.7414 17.2191 17.8303 17.302 17.9022 17.4036C17.7981 17.4385 17.6914 17.4504 17.5822 17.4391C17.5822 17.4154 17.5704 17.4036 17.5466 17.4036C17.3177 17.1925 17.0926 16.9732 16.8711 16.7458C17.2194 16.7233 17.4742 16.5633 17.6355 16.2658C17.6593 15.8391 17.6593 15.4124 17.6355 14.9858C17.54 14.754 17.38 14.588 17.1555 14.488Z"
            fill="#153673" />
        <path fill-rule="evenodd" clip-rule="evenodd"
            d="M18.1511 14.9512C18.141 15.6514 18.1528 16.3506 18.1866 17.0489C18.1748 17.0489 18.1629 17.0489 18.1511 17.0489C18.1164 16.3987 18.1046 15.7469 18.1155 15.0934C18.106 15.0365 18.1178 14.9891 18.1511 14.9512Z"
            fill="#D9D8FD" />
        <path fill-rule="evenodd" clip-rule="evenodd"
            d="M14.0978 14.5605C14.1096 14.5605 14.1215 14.5605 14.1333 14.5605C14.1333 14.7502 14.1333 14.9398 14.1333 15.1294C15.0283 15.1177 15.9172 15.1295 16.8 15.165C15.8993 15.165 14.9985 15.165 14.0978 15.165C14.0978 14.9635 14.0978 14.762 14.0978 14.5605Z"
            fill="#D5D9FE" />
        <path fill-rule="evenodd" clip-rule="evenodd"
            d="M13.6355 14.4883C13.754 14.4883 13.8725 14.4883 13.9911 14.4883C13.997 15.4365 13.9911 16.3846 13.9733 17.3327C13.8728 17.3981 13.7602 17.4218 13.6355 17.4038C13.6829 16.432 13.6829 15.4601 13.6355 14.4883Z"
            fill="#0C3471" />
        <path fill-rule="evenodd" clip-rule="evenodd"
            d="M13.9911 14.4883C14.0209 14.5004 14.0328 14.5241 14.0266 14.5594C14.0266 15.4838 14.0266 16.4083 14.0266 17.3327C14.0105 17.3668 13.9869 17.3964 13.9555 17.4216C13.8376 17.4393 13.7191 17.4453 13.6 17.4394C13.6 17.4157 13.6118 17.4038 13.6355 17.4038C13.7602 17.4218 13.8728 17.3981 13.9733 17.3327C13.9911 16.3846 13.997 15.4365 13.9911 14.4883Z"
            fill="#0D2E80" />
        <path fill-rule="evenodd" clip-rule="evenodd"
            d="M21.0667 15.2002C20.4621 15.1943 19.8577 15.2002 19.2533 15.218C19.2356 15.2358 19.2178 15.2536 19.2 15.2714C19.1763 15.7454 19.1763 16.2195 19.2 16.6936C19.2246 16.7122 19.2424 16.736 19.2533 16.7647C19.8573 16.8002 20.4618 16.8121 21.0667 16.8002C20.3735 16.8416 19.6742 16.8475 18.9689 16.818C18.9274 16.7765 18.8859 16.7351 18.8444 16.6936C18.8207 16.2195 18.8207 15.7454 18.8444 15.2714C18.8766 15.2287 18.918 15.199 18.9689 15.1825C19.6742 15.153 20.3735 15.1589 21.0667 15.2002Z"
            fill="#2A4281" />
        <path fill-rule="evenodd" clip-rule="evenodd"
            d="M14.0266 14.5605C14.0503 14.5605 14.074 14.5605 14.0977 14.5605C14.0977 14.762 14.0977 14.9635 14.0977 15.165C14.074 15.8879 14.0503 16.6109 14.0266 17.3339C14.0266 16.4094 14.0266 15.485 14.0266 14.5605Z"
            fill="#2D42AF" />
        <path fill-rule="evenodd" clip-rule="evenodd"
            d="M21.0667 15.1995C21.0886 15.2034 21.1064 15.2153 21.12 15.235C21.1494 15.7508 21.1435 16.2604 21.1023 16.7639C21.1023 16.7877 21.0904 16.7995 21.0667 16.7995C20.4618 16.8113 19.8574 16.7995 19.2534 16.7639C19.2424 16.7352 19.2246 16.7115 19.2 16.6928C19.1763 16.2188 19.1763 15.7447 19.2 15.2706C19.2178 15.2528 19.2356 15.235 19.2534 15.2173C19.8577 15.1995 20.4622 15.1936 21.0667 15.1995Z"
            fill="#2F39B6" />
        <path fill-rule="evenodd" clip-rule="evenodd"
            d="M19.2889 15.2349C19.882 15.2231 20.4746 15.2349 21.0667 15.2705C20.7704 15.2823 20.4741 15.2942 20.1778 15.306C19.8687 15.3059 19.5724 15.2822 19.2889 15.2349Z"
            fill="#363AD7" />
        <path fill-rule="evenodd" clip-rule="evenodd"
            d="M21.1022 16.764C20.5095 16.77 19.9169 16.764 19.3244 16.7462C19.3022 16.7196 19.2844 16.6899 19.2711 16.6574C19.2533 16.219 19.2474 15.7805 19.2533 15.3418C19.8696 15.3418 20.4859 15.3418 21.1022 15.3418C21.1022 15.8159 21.1022 16.29 21.1022 16.764Z"
            fill="#363BCD" />
        <path fill-rule="evenodd" clip-rule="evenodd"
            d="M21.8134 14.916C21.8407 14.9431 21.8584 14.9787 21.8667 15.0227C21.8904 15.6627 21.8904 16.3027 21.8667 16.9427C21.8568 16.9753 21.839 16.9989 21.8134 17.0138C21.8603 16.3148 21.8603 15.6155 21.8134 14.916Z"
            fill="#D1DCED" />
        <path fill-rule="evenodd" clip-rule="evenodd"
            d="M21.28 14.5239C21.28 14.5121 21.28 14.5002 21.28 14.4883C21.6066 14.4632 21.891 14.558 22.1334 14.7728C22.1578 14.8359 22.1874 14.8951 22.2223 14.9506C22.2519 15.6264 22.2459 16.302 22.2045 16.9772C22.0843 17.3338 21.8354 17.4879 21.4578 17.4394C21.4578 17.4276 21.4578 17.4157 21.4578 17.4039C21.6327 17.328 21.7512 17.1977 21.8134 17.0128C21.839 16.9979 21.8568 16.9742 21.8667 16.9417C21.8904 16.3017 21.8904 15.6617 21.8667 15.0217C21.8584 14.9777 21.8407 14.9421 21.8134 14.915C21.7176 14.6776 21.5399 14.5472 21.28 14.5239Z"
            fill="#133672" />
        <path fill-rule="evenodd" clip-rule="evenodd"
            d="M24.5867 14.5605C24.628 15.4908 24.634 16.4271 24.6044 17.3694C24.5911 17.402 24.5734 17.4317 24.5511 17.4583C24.4332 17.476 24.3147 17.482 24.1956 17.4761C24.1956 17.4643 24.1956 17.4524 24.1956 17.4405C24.3158 17.442 24.4343 17.4301 24.5511 17.405C24.5857 16.458 24.5976 15.5098 24.5867 14.5605Z"
            fill="#0F2D82" />
        <path fill-rule="evenodd" clip-rule="evenodd"
            d="M27.68 15.2002C27.062 15.1889 26.4457 15.2007 25.8311 15.2358C25.7854 15.758 25.7854 16.2795 25.8311 16.8002C26.4473 16.8002 27.0637 16.8002 27.68 16.8002C26.9868 16.8416 26.2875 16.8475 25.5822 16.818C25.5407 16.7765 25.4992 16.7351 25.4577 16.6936C25.434 16.2195 25.434 15.7454 25.4577 15.2714C25.4898 15.2287 25.5313 15.199 25.5822 15.1825C26.2875 15.153 26.9868 15.1589 27.68 15.2002Z"
            fill="#2D4584" />
        <path fill-rule="evenodd" clip-rule="evenodd"
            d="M27.68 15.1995C27.7019 15.2034 27.7197 15.2153 27.7333 15.235C27.7571 15.7446 27.7571 16.2543 27.7333 16.7639C27.7197 16.7837 27.7019 16.7955 27.68 16.7995C27.0637 16.7995 26.4474 16.7995 25.8311 16.7995C25.7855 16.2787 25.7855 15.7572 25.8311 15.235C26.4457 15.2 27.062 15.1881 27.68 15.1995Z"
            fill="#363BCC" />
        <path fill-rule="evenodd" clip-rule="evenodd"
            d="M28.0712 14.5244C28.1803 14.5197 28.287 14.5316 28.3912 14.56C28.6024 14.6403 28.7447 14.7825 28.8178 14.9867C28.8297 15.6271 28.8178 16.2671 28.7823 16.9067C28.7591 16.7739 28.7294 16.6435 28.6934 16.5155C28.6871 16.6358 28.6694 16.7543 28.6401 16.8711C28.593 16.3533 28.593 15.8378 28.6401 15.3244C28.6178 15.2249 28.5941 15.1241 28.5689 15.0222C28.5447 15.0351 28.5209 15.047 28.4978 15.0578C28.4333 14.8157 28.2911 14.6379 28.0712 14.5244Z"
            fill="#0E3470" />
        <path fill-rule="evenodd" clip-rule="evenodd"
            d="M9.51111 14.5238C9.51111 14.512 9.51111 14.5001 9.51111 14.4883C9.6582 14.4757 9.80042 14.4935 9.93778 14.5416C10.4778 15.0875 11.0348 15.6149 11.6089 16.1238C11.6326 15.6203 11.6563 15.1226 11.68 14.6305C11.6859 15.2706 11.68 15.9106 11.6622 16.5505C10.9606 15.8547 10.2435 15.1791 9.51111 14.5238Z"
            fill="#173777" />
        <path fill-rule="evenodd" clip-rule="evenodd"
            d="M9.54662 15.4496C9.5229 16.1015 9.49922 16.7533 9.47551 17.4052C9.46367 16.741 9.47551 16.0774 9.51106 15.4141C9.53265 15.4185 9.54449 15.4303 9.54662 15.4496Z"
            fill="#A6B6CC" />
        <path fill-rule="evenodd" clip-rule="evenodd"
            d="M16.8711 15.2354C16.8711 15.4843 16.8711 15.7331 16.8711 15.982C16.3031 16.0213 15.7342 16.0273 15.1644 15.9998C15.7086 15.9549 16.2539 15.9371 16.8 15.9465C16.8035 15.7149 16.8035 15.4897 16.8 15.2709C16.8162 15.2425 16.8399 15.2307 16.8711 15.2354Z"
            fill="#3539DF" />
        <path fill-rule="evenodd" clip-rule="evenodd"
            d="M16.8356 16.0533C16.2785 16.077 15.7215 16.1007 15.1645 16.1244C15.1452 16.1222 15.1333 16.1104 15.1289 16.0888C15.6973 16.0533 16.2662 16.0414 16.8356 16.0533Z"
            fill="#9596D7" />
        <path fill-rule="evenodd" clip-rule="evenodd"
            d="M5.49329 14.5603C5.63327 14.5499 5.76955 14.5617 5.90218 14.5959C5.98253 14.7685 6.0892 14.9226 6.22218 15.0581C6.23402 15.1173 6.24589 15.1766 6.25773 15.2359C6.36472 15.331 6.45954 15.4377 6.54218 15.5559C6.82161 15.9967 7.10011 16.4352 7.37773 16.8714C7.41336 16.9251 7.43707 16.9844 7.44884 17.0492C7.4844 17.0492 7.51995 17.0492 7.55551 17.0492C7.53809 17.1909 7.56177 17.3213 7.62662 17.4403C7.50811 17.4403 7.38957 17.4403 7.27106 17.4403C7.31835 17.3556 7.31245 17.2727 7.25329 17.1914C6.65702 16.3183 6.07035 15.4413 5.49329 14.5603Z"
            fill="#0F3372" />
        <path fill-rule="evenodd" clip-rule="evenodd"
            d="M5.42227 15.6618C5.29451 15.6949 5.23528 15.7778 5.24449 15.9107C5.20271 15.9029 5.16715 15.9147 5.13782 15.9462C4.83169 16.4363 4.51763 16.9222 4.1956 17.404C4.07492 17.438 3.95048 17.4499 3.82227 17.4396C4.27062 16.7361 4.72694 16.0369 5.19115 15.3418C5.27595 15.4442 5.353 15.5508 5.42227 15.6618Z"
            fill="#103472" />
        <path fill-rule="evenodd" clip-rule="evenodd"
            d="M9.9022 15.8047C9.92592 15.8047 9.93776 15.8165 9.93776 15.8402C9.90821 16.3793 9.89044 16.9245 9.88443 17.4758C9.54316 17.523 9.20539 17.523 8.87109 17.4758C9.06071 17.4758 9.25036 17.4758 9.43998 17.4758C9.57996 17.4862 9.71625 17.4744 9.84887 17.4402C9.85488 16.889 9.87266 16.3437 9.9022 15.8047Z"
            fill="#3E48B7" />
        <path fill-rule="evenodd" clip-rule="evenodd"
            d="M9.54661 15.4492C9.65423 15.5806 9.77274 15.6991 9.90216 15.8048C9.87262 16.3438 9.85484 16.889 9.84883 17.4403C9.71621 17.4745 9.57992 17.4863 9.43994 17.4759C9.45178 17.4522 9.46366 17.4285 9.4755 17.4048C9.49921 16.7529 9.52289 16.1011 9.54661 15.4492Z"
            fill="#0E3572" />
        <path fill-rule="evenodd" clip-rule="evenodd"
            d="M18.0089 14.9512C18.0374 15.0028 18.0552 15.062 18.0622 15.1289C18.0758 15.1092 18.0936 15.0973 18.1156 15.0934C18.1046 15.7469 18.1165 16.3987 18.1511 17.0489C18.1292 17.045 18.1114 17.0332 18.0978 17.0134C18.0859 16.7408 18.0741 16.4682 18.0622 16.1956C18.054 16.3189 18.0007 16.4137 17.9022 16.4801C17.9022 16.3972 17.9318 16.3261 17.9911 16.2667C18.0089 15.8284 18.0148 15.3899 18.0089 14.9512Z"
            fill="#2C38B3" />
        <path fill-rule="evenodd" clip-rule="evenodd"
            d="M28.8178 14.9863C28.8451 15.0135 28.8629 15.049 28.8711 15.093C28.8989 15.7457 28.893 16.3976 28.8534 17.0486C28.8178 17.0486 28.7823 17.0486 28.7467 17.0486C28.7495 17.0994 28.7377 17.1468 28.7111 17.1908C28.6247 17.2777 28.53 17.3488 28.4267 17.4041C28.279 17.464 28.1249 17.4877 27.9645 17.4752C27.9645 17.4634 27.9645 17.4515 27.9645 17.4397C28.264 17.3711 28.4358 17.1814 28.48 16.8708C28.4978 16.2664 28.5037 15.662 28.4978 15.0574C28.5209 15.0466 28.5446 15.0348 28.5689 15.0219C28.5941 15.1238 28.6178 15.2246 28.64 15.3241C28.593 15.8374 28.593 16.353 28.64 16.8708C28.6693 16.754 28.6871 16.6355 28.6934 16.5152C28.7294 16.6432 28.759 16.7735 28.7823 16.9063C28.8178 16.2668 28.8297 15.6268 28.8178 14.9863Z"
            fill="#103077" />
        <path fill-rule="evenodd" clip-rule="evenodd"
            d="M22.9867 16.7991C22.9867 16.8228 22.9985 16.8346 23.0222 16.8346C23.0696 17.0361 23.0696 17.2376 23.0222 17.4391C22.8344 17.477 22.6448 17.4829 22.4533 17.4569C22.4355 17.4391 22.4178 17.4213 22.4 17.4035C22.3763 17.2257 22.3763 17.048 22.4 16.8702C22.4178 16.8524 22.4355 16.8346 22.4533 16.8169C22.6307 16.7991 22.8085 16.7932 22.9867 16.7991Z"
            fill="#F3F4F9" />
        <path fill-rule="evenodd" clip-rule="evenodd"
            d="M23.0222 16.8363C23.1543 16.8336 23.2847 16.8454 23.4133 16.8719C23.4133 17.0497 23.4133 17.2274 23.4133 17.4052C23.2866 17.438 23.1562 17.4499 23.0222 17.4408C23.0696 17.2393 23.0696 17.0378 23.0222 16.8363Z"
            fill="#0E3072" />
        <path fill-rule="evenodd" clip-rule="evenodd"
            d="M16.48 17.4043C16.8401 17.4503 17.1956 17.4503 17.5466 17.4043C17.5704 17.4043 17.5822 17.4161 17.5822 17.4399C17.2329 17.481 16.8773 17.487 16.5155 17.4576C16.4958 17.444 16.4839 17.4262 16.48 17.4043Z"
            fill="#A9A9E5" />
        <path fill-rule="evenodd" clip-rule="evenodd"
            d="M18.5422 17.4043C19.5142 17.4514 20.4861 17.4514 21.4578 17.4043C21.4578 17.4161 21.4578 17.428 21.4578 17.4399C20.5107 17.4804 19.5626 17.4863 18.6133 17.4576C18.5808 17.4477 18.5571 17.43 18.5422 17.4043Z"
            fill="#A9ABE6" />
        <path fill-rule="evenodd" clip-rule="evenodd"
            d="M25.0488 17.3691C25.1454 17.3755 25.2402 17.3932 25.3333 17.4225C26.2102 17.4403 27.0873 17.4462 27.9644 17.4403C27.9644 17.4521 27.9644 17.464 27.9644 17.4758C27.0517 17.4817 26.1391 17.4758 25.2266 17.458C25.1621 17.4311 25.1028 17.4015 25.0488 17.3691Z"
            fill="#A9ABE6" />
        <path fill-rule="evenodd" clip-rule="evenodd"
            d="M18.6133 17.512C19.5378 17.5061 20.4623 17.512 21.3867 17.5298C20.4491 17.572 19.5069 17.6017 18.56 17.6187C18.5185 17.6127 18.477 17.6068 18.4355 17.6009C18.5153 17.5991 18.5746 17.5695 18.6133 17.512Z"
            fill="#3439DE" />
        <path fill-rule="evenodd" clip-rule="evenodd"
            d="M25.2267 17.546C26.1451 17.5046 27.0695 17.4987 28 17.5282C27.5351 17.569 27.067 17.5868 26.5956 17.5815C26.1367 17.5812 25.6804 17.5694 25.2267 17.546Z"
            fill="#3439DF" />
    </g>
    <defs>
        <clipPath id="clip0_2977_1140">
            <rect width="32" height="32" fill="white" />
        </clipPath>
    </defs>
</svg>