<svg width="32" height="32" viewBox="0 0 33 33" fill="none" xmlns="http://www.w3.org/2000/svg">
    <path fill-rule="evenodd" clip-rule="evenodd"
        d="M15 1.24003C16.2862 1.7404 17.5663 2.27374 18.84 2.84003C19.7648 3.51409 20.6181 4.26075 21.4 5.08003C21.4 5.13335 21.4 5.1867 21.4 5.24003C21.2317 5.26395 21.0717 5.23727 20.92 5.16003C20.3693 4.52779 19.7826 3.94113 19.16 3.40003C18.8762 3.11911 18.6095 3.11911 18.36 3.40003C18.5117 3.47727 18.6717 3.50395 18.84 3.48003C18.8171 3.76201 18.8706 4.02868 19 4.28003C19.9075 4.44892 20.3608 5.03559 20.36 6.04003C19.8973 5.69236 19.3906 5.63902 18.84 5.88003C19.2538 6.03683 19.6805 6.09017 20.12 6.04003C20.12 6.4667 20.12 6.89335 20.12 7.32002C17.2895 7.73108 14.4628 7.73108 11.64 7.32002C11.64 6.89335 11.64 6.4667 11.64 6.04003C11.48 6.04003 11.32 6.04003 11.16 6.04003C11.0675 5.09123 10.9075 4.15788 10.68 3.24003C10.8317 3.16278 10.9917 3.13611 11.16 3.16003C11.16 2.9467 11.16 2.73335 11.16 2.52003C10.9403 2.54509 10.7269 2.51843 10.52 2.44003C11.0298 2.22291 11.5098 1.98291 11.96 1.72003C12.9084 1.30588 13.9217 1.14588 15 1.24003Z"
        fill="#33CCC4" />
    <path fill-rule="evenodd" clip-rule="evenodd"
        d="M15.32 0.919922C16.4933 0.919922 17.6667 0.919922 18.84 0.919922C19.6614 1.20165 20.5147 1.44165 21.4 1.63992C22.0702 2.09128 22.8168 2.33128 23.64 2.35992C25.3843 3.41191 27.0378 4.58523 28.6 5.87992C29.4074 6.81008 30.1006 7.82341 30.68 8.91992C28.2267 8.91992 25.7733 8.91992 23.32 8.91992C23.2667 8.91992 23.2133 8.91992 23.16 8.91992C23.0933 7.46037 22.5066 6.28704 21.4 5.39992C21.4 5.34659 21.4 5.29325 21.4 5.23992C21.4 5.18659 21.4 5.13325 21.4 5.07992C21.2723 4.32511 20.8458 3.84511 20.12 3.63992C20.155 3.45192 20.1018 3.29192 19.96 3.15992C19.6034 2.98759 19.2299 2.88093 18.84 2.83992C17.5662 2.27363 16.2862 1.7403 15 1.23992C15.1067 1.13326 15.2133 1.02659 15.32 0.919922Z"
        fill="#EBE1FD" />
    <path fill-rule="evenodd" clip-rule="evenodd"
        d="M18.84 2.83984C19.2299 2.88085 19.6033 2.98751 19.96 3.15984C20.1017 3.29184 20.155 3.45184 20.12 3.63984C20.8457 3.84503 21.2723 4.32503 21.4 5.07984C20.618 4.26056 19.7648 3.51391 18.84 2.83984Z"
        fill="#D1E6F9" />
    <path fill-rule="evenodd" clip-rule="evenodd"
        d="M11.96 1.72021C11.5098 1.9831 11.0298 2.2231 10.52 2.44021C10.7269 2.51862 10.9402 2.54528 11.16 2.52021C11.16 2.73354 11.16 2.94689 11.16 3.16021C10.9917 3.13629 10.8317 3.16297 10.68 3.24021C10.9075 4.15807 11.0675 5.09141 11.16 6.04021C11.32 6.04021 11.48 6.04021 11.64 6.04021C11.64 6.46689 11.64 6.89354 11.64 7.32021C14.4627 7.73127 17.2894 7.73127 20.12 7.32021C20.12 6.89354 20.12 6.46689 20.12 6.04021C19.6805 6.09036 19.2537 6.03701 18.84 5.88021C19.3905 5.63921 19.8973 5.69255 20.36 6.04021C20.3608 5.03578 19.9075 4.44911 19 4.28021C18.8705 4.02887 18.8171 3.7622 18.84 3.48021C18.6717 3.50413 18.5117 3.47746 18.36 3.40021C18.6094 3.1193 18.8761 3.1193 19.16 3.40021C19.7825 3.94132 20.3693 4.52797 20.92 5.16021C21.0717 5.23746 21.2317 5.26413 21.4 5.24021C21.4 5.29354 21.4 5.34689 21.4 5.40021C21.4163 6.07919 21.7363 6.50586 22.36 6.68021C22.3729 9.14242 22.1597 9.19575 21.72 6.84021C21.5617 7.41738 21.5083 8.00405 21.56 8.60021C20.4387 8.57361 19.3187 8.60028 18.2 8.68021C18.9129 8.66393 19.5529 8.79727 20.12 9.08021C19.6408 9.04722 19.2141 9.15389 18.84 9.40021C17.9833 9.41122 17.1301 9.46457 16.28 9.56021C16.28 9.77354 16.28 9.98689 16.28 10.2002C15.4844 10.3064 14.6844 10.3598 13.88 10.3602C13.9078 10.738 13.9612 11.1113 14.04 11.4802C13.6473 11.5089 13.3007 11.4023 13 11.1602C12.7506 11.2449 12.5106 11.3516 12.28 11.4802C11.9322 11.0673 11.5855 11.0673 11.24 11.4802C11.1607 11.1646 11.134 10.8446 11.16 10.5202C10.7205 10.5704 10.2938 10.517 9.87999 10.3602C9.69221 9.75791 9.29221 9.22458 8.67999 8.76021C8.59018 8.84372 8.48351 8.89705 8.35999 8.92021C7.67501 8.64325 7.32835 8.13658 7.31999 7.40021C7.11307 7.32181 6.89973 7.29514 6.67999 7.32021C6.73407 6.89511 6.62739 6.52178 6.35999 6.20021C6.65763 5.87036 7.03096 5.65703 7.47999 5.56021C7.41808 5.36503 7.28475 5.25837 7.07999 5.24021C6.84557 5.37293 6.60557 5.39961 6.35999 5.32021C6.59571 5.20668 6.70237 5.02002 6.67999 4.76021C6.77048 4.50769 6.93048 4.29436 7.15999 4.12021C8.61589 3.03901 10.2159 2.23902 11.96 1.72021Z"
        fill="#3AD0C5" />
    <path fill-rule="evenodd" clip-rule="evenodd"
        d="M21.4 5.3999C22.5065 6.28702 23.0932 7.46035 23.16 8.9199C22.4057 8.8964 21.659 8.94973 20.92 9.0799C20.6532 9.0799 20.3867 9.0799 20.12 9.0799C19.5529 8.79696 18.9129 8.66361 18.2 8.6799C19.3187 8.59997 20.4387 8.57329 21.56 8.5999C21.5083 8.00374 21.5617 7.41707 21.72 6.8399C22.1596 9.19544 22.3729 9.14211 22.36 6.6799C21.7363 6.50555 21.4163 6.07888 21.4 5.3999Z"
        fill="#44CCC9" />
    <path fill-rule="evenodd" clip-rule="evenodd"
        d="M6.68004 4.75977C6.70242 5.01957 6.59577 5.20623 6.36004 5.31977C6.60562 5.39916 6.84562 5.37249 7.08004 5.23977C7.28481 5.25793 7.41813 5.36458 7.48004 5.55977C7.03101 5.65658 6.65769 5.86991 6.36004 6.19977C6.62745 6.52133 6.73412 6.89466 6.68004 7.31977C6.89978 7.29469 7.11313 7.32137 7.32004 7.39977C7.32841 8.13613 7.67506 8.64281 8.36004 8.91977C8.48356 8.8966 8.59023 8.84327 8.68004 8.75977C9.29226 9.22413 9.69226 9.75746 9.88004 10.3598C10.2939 10.5166 10.7205 10.5699 11.16 10.5198C11.1341 10.8441 11.1608 11.1641 11.24 11.4798C11.5856 11.0669 11.9322 11.0669 12.28 11.4798C12.5106 11.3511 12.7506 11.2445 13 11.1598C13.3007 11.4018 13.6474 11.5085 14.04 11.4798C13.9612 11.1109 13.9079 10.7375 13.88 10.3598C14.6844 10.3593 15.4844 10.306 16.28 10.1998C16.28 10.3064 16.28 10.4131 16.28 10.5198C15.9034 10.5738 15.5301 10.6538 15.16 10.7598C15.0397 10.8671 14.9863 11.0004 15 11.1598C14.7803 11.1347 14.567 11.1614 14.36 11.2398C14.2636 11.5712 14.0502 11.7579 13.72 11.7998C13.3314 11.8134 13.0114 11.9734 12.76 12.2798C12.6663 12.2463 12.5863 12.1929 12.52 12.1198C12.5513 12.3799 12.5513 12.6466 12.52 12.9198C12.1117 13.0307 11.7651 13.244 11.48 13.5598C11.3693 13.4757 11.2893 13.3691 11.24 13.2398C11.1771 13.5116 11.2571 13.7516 11.48 13.9598C11.4689 14.0821 11.4155 14.1621 11.32 14.1998C10.9476 13.921 10.5743 13.6277 10.2 13.3198C9.96114 13.1009 9.72114 13.0742 9.48004 13.2398C9.24111 12.8938 8.97444 12.5738 8.68004 12.2798C8.49081 12.4767 8.30415 12.4767 8.12004 12.2798C7.56149 11.842 7.08149 11.3353 6.68004 10.7598C5.78471 10.1453 4.90471 9.53194 4.04004 8.91977C4.04225 8.11092 4.28225 7.36425 4.76004 6.67977C5.25798 5.89679 5.89798 5.25679 6.68004 4.75977Z"
        fill="#53D7D0" />
    <path fill-rule="evenodd" clip-rule="evenodd"
        d="M23.3199 9.07992C23.3199 9.02659 23.3199 8.97325 23.3199 8.91992C25.7732 8.91992 28.2267 8.91992 30.6799 8.91992C30.814 8.97459 30.8675 9.08127 30.8399 9.23992C28.3457 9.08251 25.839 9.02919 23.3199 9.07992Z"
        fill="#C8ABFD" />
    <path fill-rule="evenodd" clip-rule="evenodd"
        d="M23.16 8.91994C23.2132 8.91994 23.2667 8.91994 23.32 8.91994C23.32 8.97327 23.32 9.02662 23.32 9.07994C23.32 9.13327 23.32 9.18662 23.32 9.23994C23.2667 9.23994 23.2132 9.23994 23.16 9.23994C21.7124 9.25906 20.2724 9.36574 18.84 9.55994C18.84 9.50662 18.84 9.45327 18.84 9.39994C19.5644 9.35668 20.2577 9.25001 20.92 9.07994C21.659 8.94977 22.4057 8.89644 23.16 8.91994Z"
        fill="#2273B7" />
    <path fill-rule="evenodd" clip-rule="evenodd"
        d="M20.12 9.08006C20.3867 9.08006 20.6532 9.08006 20.92 9.08006C20.2577 9.25013 19.5644 9.3568 18.84 9.40006C19.214 9.15374 19.6408 9.04707 20.12 9.08006Z"
        fill="#31A5C6" />
    <path fill-rule="evenodd" clip-rule="evenodd"
        d="M18.84 9.3999C18.84 9.45323 18.84 9.50657 18.84 9.5599C18.4133 9.66657 17.9867 9.77323 17.56 9.8799C17.1594 10.0622 16.7328 10.1688 16.28 10.1999C16.28 9.98657 16.28 9.77323 16.28 9.5599C17.1301 9.46425 17.9834 9.41091 18.84 9.3999Z"
        fill="#3BBDCC" />
    <path fill-rule="evenodd" clip-rule="evenodd"
        d="M4.75997 6.68018C4.28217 7.36466 4.04217 8.11133 4.03997 8.92018C4.90464 9.53235 5.78464 10.1457 6.67997 10.7602C7.08142 11.3357 7.56142 11.8424 8.11997 12.2802C8.30408 12.4771 8.49073 12.4771 8.67997 12.2802C8.97437 12.5743 9.24104 12.8943 9.47997 13.2402C9.72107 13.0746 9.96107 13.1013 10.2 13.3202C10.5742 13.6281 10.9475 13.9215 11.32 14.2002C11.1919 14.4469 11.1385 14.7135 11.16 15.0002C10.897 15.0498 10.737 15.2098 10.68 15.4802C10.4059 15.6618 10.2992 15.9285 10.36 16.2802C10.2 16.2802 10.04 16.2802 9.87997 16.2802C9.80189 15.7665 9.90856 15.3131 10.2 14.9202C9.69395 14.6834 9.40061 14.2834 9.31997 13.7202C9.03549 14.1113 8.82216 14.538 8.67997 15.0002C8.60101 14.7387 8.57433 14.472 8.59997 14.2002C8.43165 14.2241 8.27165 14.1974 8.11997 14.1202C7.55411 13.584 6.91411 13.1306 6.19997 12.7602C5.86269 12.9169 5.54269 12.8636 5.23997 12.6002C5.38013 12.48 5.54013 12.4 5.71997 12.3602C5.08547 11.5917 4.36547 10.9251 3.55997 10.3602C3.50664 10.4135 3.45329 10.4668 3.39997 10.5202C3.27366 10.1873 3.08699 9.89402 2.83997 9.64018C3.06152 9.38464 3.16819 9.0913 3.15997 8.76018C3.41925 8.13696 3.7659 7.55029 4.19997 7.00018C4.33051 6.78853 4.51718 6.68187 4.75997 6.68018Z"
        fill="#6AE0D7" />
    <path fill-rule="evenodd" clip-rule="evenodd"
        d="M25.24 12.4401C24.8133 12.4401 24.3867 12.4401 23.96 12.4401C23.9723 11.8458 23.9191 11.2591 23.8 10.6801C23.9763 10.2794 23.9231 9.87942 23.64 9.48012C25.4525 9.40014 27.2659 9.37348 29.08 9.40012C29.0863 11.7295 29.1928 11.7295 29.4 9.40012C29.6133 9.40012 29.8267 9.40012 30.04 9.40012C30.0757 9.6948 30.1291 9.98812 30.2 10.2801C30.0595 10.5681 29.9528 10.8615 29.88 11.1601C29.3999 11.5262 28.8666 11.8462 28.28 12.1201C28.2576 11.949 28.2576 11.7623 28.28 11.5601C28.2 11.5335 28.12 11.5068 28.04 11.4801C27.5704 11.7508 27.0637 11.8575 26.52 11.8001C26.52 12.0135 26.52 12.2268 26.52 12.4401C26.0933 12.4401 25.6667 12.4401 25.24 12.4401Z"
        fill="#8C59F4" />
    <path fill-rule="evenodd" clip-rule="evenodd"
        d="M23.1601 9.24023C23.0466 9.38487 22.8866 9.4382 22.6801 9.40023C22.6801 9.56023 22.6801 9.72023 22.6801 9.88023C22.5201 9.88023 22.3601 9.88023 22.2001 9.88023C21.9333 9.88023 21.6668 9.88023 21.4001 9.88023C21.4001 10.0402 21.4001 10.2002 21.4001 10.3602C20.9733 10.3602 20.5468 10.3602 20.1201 10.3602C20.1201 10.5736 20.1201 10.7869 20.1201 11.0002C20.55 10.974 20.9767 11.0007 21.4001 11.0802C21.2933 11.1336 21.1868 11.1869 21.0801 11.2402C21.3044 11.888 21.5709 12.528 21.8801 13.1602C21.7284 13.2375 21.5684 13.2642 21.4001 13.2402C21.4001 13.6136 21.4001 13.9869 21.4001 14.3602C21.2818 14.3812 21.1751 14.3545 21.0801 14.2802C20.5748 13.4705 19.9348 12.7771 19.1601 12.2002C18.1218 11.8608 17.0553 11.6741 15.9601 11.6402C15.8686 11.3426 15.8686 11.076 15.9601 10.8402C16.0134 10.8402 16.0667 10.8402 16.1201 10.8402C16.9849 11.1935 17.8916 11.2469 18.8401 11.0002C18.3068 10.8936 17.7733 10.7869 17.2401 10.6802C17.4721 10.4643 17.5788 10.1976 17.5601 9.88023C17.9868 9.77356 18.4133 9.66691 18.8401 9.56023C20.2725 9.36603 21.7125 9.25935 23.1601 9.24023Z"
        fill="#2D66CB" />
    <path fill-rule="evenodd" clip-rule="evenodd"
        d="M31.3199 10.04C31.5478 10.3624 31.6543 10.7357 31.6399 11.16C31.5332 11 31.4267 10.84 31.3199 10.68C31.3199 10.4667 31.3199 10.2534 31.3199 10.04Z"
        fill="#A786DC" />
    <path fill-rule="evenodd" clip-rule="evenodd"
        d="M17.56 9.87988C17.5787 10.1972 17.472 10.4639 17.24 10.6799C17.7733 10.7866 18.3067 10.8932 18.84 10.9999C17.8915 11.2465 16.9849 11.1932 16.12 10.8399C16.1733 10.7332 16.2267 10.6266 16.28 10.5199C16.28 10.4132 16.28 10.3066 16.28 10.1999C16.7327 10.1688 17.1594 10.0622 17.56 9.87988Z"
        fill="#296CC5" />
    <path fill-rule="evenodd" clip-rule="evenodd"
        d="M16.28 10.52C16.2267 10.6267 16.1734 10.7333 16.12 10.84C16.0667 10.84 16.0134 10.84 15.96 10.84C15.6749 11.0352 15.3549 11.1418 15 11.16C14.9863 11.0007 15.0396 10.8673 15.16 10.76C15.5301 10.6541 15.9034 10.5741 16.28 10.52Z"
        fill="#247ABB" />
    <path fill-rule="evenodd" clip-rule="evenodd"
        d="M23.16 9.24023C23.2132 9.24023 23.2667 9.24023 23.32 9.24023C23.458 9.54766 23.5646 9.86766 23.64 10.2002C23.64 11.3736 23.64 12.5469 23.64 13.7202C23.6652 14.2646 23.6118 14.7979 23.48 15.3202C23.4267 15.3202 23.3732 15.3202 23.32 15.3202C23.3731 14.6813 23.4264 14.0413 23.48 13.4002C23.3254 12.6356 23.112 11.8889 22.84 11.1602C22.68 11.1602 22.52 11.1602 22.36 11.1602C22.2652 10.7399 22.212 10.3132 22.2 9.88023C22.36 9.88023 22.52 9.88023 22.68 9.88023C22.68 9.72023 22.68 9.56023 22.68 9.40023C22.8865 9.4382 23.0465 9.38487 23.16 9.24023Z"
        fill="#335BCD" />
    <path fill-rule="evenodd" clip-rule="evenodd"
        d="M23.3199 9.08008C25.839 9.02934 28.3457 9.08267 30.8399 9.24008C30.8171 9.52206 30.8705 9.78873 30.9999 10.0401C30.8615 10.0503 30.7015 10.1036 30.5199 10.2001C30.4132 10.6267 30.3067 11.0534 30.1999 11.4801C29.5873 11.8986 29.1606 12.4319 28.9199 13.0801C28.4964 13.4174 28.0431 13.5241 27.5599 13.4001C26.8564 13.8494 26.0831 14.0627 25.2399 14.0401C25.2399 13.5067 25.2399 12.9734 25.2399 12.4401C25.6667 12.4401 26.0932 12.4401 26.5199 12.4401C26.5199 12.2267 26.5199 12.0134 26.5199 11.8001C27.0636 11.8574 27.5703 11.7507 28.0399 11.4801C28.1199 11.5067 28.1999 11.5334 28.2799 11.5601C28.2575 11.7623 28.2575 11.949 28.2799 12.1201C28.8665 11.8462 29.3998 11.5262 29.8799 11.1601C29.9527 10.8614 30.0595 10.5681 30.1999 10.2801C30.1291 9.98808 30.0756 9.69475 30.0399 9.40008C29.8267 9.40008 29.6132 9.40008 29.3999 9.40008C29.1927 11.7295 29.0862 11.7295 29.0799 9.40008C27.2659 9.37344 25.4524 9.40009 23.6399 9.48008C23.923 9.87937 23.9763 10.2794 23.7999 10.6801C23.8379 10.4735 23.7846 10.3135 23.6399 10.2001C23.5646 9.8675 23.458 9.5475 23.3199 9.24008C23.3199 9.18675 23.3199 9.1334 23.3199 9.08008Z"
        fill="#8F5EF0" />
    <path fill-rule="evenodd" clip-rule="evenodd"
        d="M3.16004 8.75977C3.16826 9.09089 3.06159 9.38423 2.84004 9.63977C3.08706 9.89361 3.27374 10.1869 3.40004 10.5198C3.45337 10.4664 3.50671 10.4131 3.56004 10.3598C4.36554 10.9246 5.08554 11.5913 5.72004 12.3598C5.5402 12.3996 5.3802 12.4796 5.24004 12.5998C5.54276 12.8632 5.86276 12.9165 6.20004 12.7598C6.91418 13.1302 7.55418 13.5835 8.12004 14.1198C8.27172 14.197 8.43172 14.2237 8.60004 14.1998C8.57441 14.4716 8.60108 14.7383 8.68004 14.9998C8.82223 14.5376 9.03556 14.1109 9.32004 13.7198C9.40068 14.283 9.69402 14.683 10.2 14.9198C9.90863 15.3127 9.80196 15.7661 9.88004 16.2798C9.67415 16.9901 9.40748 17.0434 9.08004 16.4398C8.38977 16.4238 7.82977 16.1572 7.40004 15.6398C7.23212 15.8025 7.04546 15.8292 6.84004 15.7198C6.43697 15.157 5.93029 14.7037 5.32004 14.3598C5.27052 14.1572 5.19052 13.9705 5.08004 13.7998C4.55914 13.564 4.0258 13.3773 3.48004 13.2398C3.48004 12.9731 3.48004 12.7064 3.48004 12.4398C3.16004 12.4398 2.84004 12.4398 2.52004 12.4398C2.48588 12.1767 2.53921 11.9367 2.68004 11.7198C2.384 11.6094 2.17067 11.4227 2.04004 11.1598C2.37903 10.3229 2.75236 9.52292 3.16004 8.75977Z"
        fill="#79E4DD" />
    <path fill-rule="evenodd" clip-rule="evenodd"
        d="M13.72 11.7998C13.2385 12.4936 12.7052 13.1336 12.12 13.7198C11.7993 14.1334 11.4793 14.5601 11.16 14.9998C11.1386 14.7132 11.1919 14.4465 11.32 14.1998C11.4155 14.1622 11.4688 14.0822 11.48 13.9598C11.2571 13.7517 11.1771 13.5117 11.24 13.2398C11.2892 13.3691 11.3692 13.4758 11.48 13.5598C11.765 13.2441 12.1117 13.0307 12.52 12.9198C12.5513 12.6467 12.5513 12.38 12.52 12.1198C12.5862 12.193 12.6662 12.2463 12.76 12.2798C13.0114 11.9734 13.3314 11.8134 13.72 11.7998Z"
        fill="#5BCBDC" />
    <path fill-rule="evenodd" clip-rule="evenodd"
        d="M15 11.16C15 11.32 15 11.48 15 11.64C14.4667 11.64 14.2 11.9067 14.2 12.44C13.9885 12.4672 13.8018 12.4138 13.64 12.28C13.2594 12.9008 12.7527 13.3808 12.12 13.72C12.7051 13.1338 13.2385 12.4938 13.72 11.8C14.0502 11.7581 14.2635 11.5714 14.36 11.24C14.5669 11.1616 14.7803 11.1349 15 11.16Z"
        fill="#3178C4" />
    <path fill-rule="evenodd" clip-rule="evenodd"
        d="M22.2 9.87988C22.212 10.3129 22.2653 10.7395 22.36 11.1599C22.52 11.1599 22.68 11.1599 22.84 11.1599C23.112 11.8886 23.3254 12.6353 23.48 13.3999C23.4264 14.041 23.3731 14.681 23.32 15.3199C23.3579 15.5264 23.3046 15.6864 23.16 15.7999C23.16 15.5332 23.16 15.2666 23.16 14.9999C22.7829 15.026 22.4096 14.9993 22.04 14.9199C21.8986 14.6447 21.6853 14.458 21.4 14.3599C21.4 13.9866 21.4 13.6132 21.4 13.2399C21.5683 13.2638 21.7283 13.2371 21.88 13.1599C21.5709 12.5277 21.3043 11.8877 21.08 11.2399C21.1867 11.1866 21.2933 11.1332 21.4 11.0799C20.9766 11.0003 20.5499 10.9736 20.12 10.9999C20.12 10.7866 20.12 10.5732 20.12 10.3599C20.5467 10.3599 20.9733 10.3599 21.4 10.3599C21.4 10.1999 21.4 10.0399 21.4 9.87988C21.6667 9.87988 21.9333 9.87988 22.2 9.87988Z"
        fill="#3264D1" />
    <path fill-rule="evenodd" clip-rule="evenodd"
        d="M2.04005 11.1602C2.17068 11.4231 2.38401 11.6098 2.68005 11.7202C2.53922 11.9371 2.48589 12.1771 2.52005 12.4402C2.84005 12.4402 3.16005 12.4402 3.48005 12.4402C3.48005 12.7068 3.48005 12.9735 3.48005 13.2402C4.02581 13.3777 4.55915 13.5644 5.08005 13.8002C5.19053 13.9709 5.27053 14.1576 5.32005 14.3602C5.9303 14.7041 6.43697 15.1574 6.84005 15.7202C7.04547 15.8296 7.23213 15.8029 7.40005 15.6402C7.82977 16.1576 8.38977 16.4242 9.08005 16.4402C9.40749 17.0438 9.67416 16.9905 9.88005 16.2802C10.04 16.2802 10.2 16.2802 10.36 16.2802C10.2993 15.9285 10.4059 15.6618 10.68 15.4802C10.5651 15.8424 10.5117 16.2157 10.52 16.6002C10.558 16.8067 10.5047 16.9667 10.36 17.0802C9.83942 17.1584 9.73277 17.4251 10.04 17.8802C10.0437 18.1309 9.96373 18.3442 9.80005 18.5202C9.19421 18.208 8.79421 17.728 8.60005 17.0802C8.18621 16.9234 7.75955 16.87 7.32005 16.9202C7.32005 17.1334 7.32005 17.3469 7.32005 17.5602C8.5651 17.6386 8.93845 18.2786 8.44005 19.4802C8.18225 19.349 8.0756 19.1355 8.12005 18.8402C7.85337 18.8402 7.58672 18.8402 7.32005 18.8402C6.73246 18.5853 6.14581 18.3986 5.56005 18.2802C5.18777 17.9374 4.9211 17.5374 4.76005 17.0802C4.31944 17.0347 3.89277 16.928 3.48005 16.7602C3.26718 16.4256 3.05385 16.1056 2.84005 15.8002C2.64496 15.9223 2.48496 16.0823 2.36005 16.2802C2.2278 15.6467 2.1478 15.0067 2.12005 14.3602C1.97958 14.8013 1.81958 15.2279 1.64005 15.6402C1.30103 14.7745 1.38103 13.9479 1.88005 13.1602C1.78702 13.0173 1.73369 12.8573 1.72005 12.6802C1.93764 12.3169 2.0443 11.9169 2.04005 11.4802C2.04005 11.3735 2.04005 11.2668 2.04005 11.1602Z"
        fill="#8FEBE5" />
    <path fill-rule="evenodd" clip-rule="evenodd"
        d="M31.32 10.6802C31.4267 10.8402 31.5333 11.0002 31.64 11.1602C31.7467 11.1602 31.8 11.2135 31.8 11.3202C32.1139 12.3435 32.0072 13.3035 31.48 14.2002C30.7013 14.6871 29.8745 15.0604 29 15.3202C28.6081 15.2624 28.2349 15.1557 27.88 15.0002C27.7721 15.1727 27.6121 15.2794 27.4 15.3202C26.2518 15.4992 25.1051 15.6592 23.96 15.8002C23.96 15.9602 23.96 16.1202 23.96 16.2802C23.8 16.2802 23.64 16.2802 23.48 16.2802C23.48 15.9602 23.48 15.6402 23.48 15.3202C23.6118 14.7979 23.6653 14.2645 23.64 13.7202C23.7957 14.1118 23.8489 14.5385 23.8 15.0002C24.7129 15.0528 25.6195 14.9994 26.52 14.8402C27.676 14.4015 28.8493 14.0281 30.04 13.7202C30.175 13.2368 30.4683 12.8634 30.92 12.6002C30.8056 12.3332 30.7521 11.9598 30.76 11.4802C30.8736 11.2444 31.0601 11.1378 31.32 11.1602C31.32 11.0002 31.32 10.8402 31.32 10.6802Z"
        fill="#9A6EF4" />
    <path fill-rule="evenodd" clip-rule="evenodd"
        d="M30.84 9.24023C31.0379 9.47462 31.1979 9.74129 31.32 10.0402C31.32 10.2536 31.32 10.4669 31.32 10.6802C31.32 10.8402 31.32 11.0002 31.32 11.1602C31.0602 11.1379 30.8736 11.2445 30.76 11.4802C30.7522 11.9599 30.8056 12.3332 30.92 12.6002C30.4683 12.8635 30.1751 13.2368 30.04 13.7202C28.8493 14.0282 27.676 14.4015 26.52 14.8402C25.6195 14.9995 24.713 15.0528 23.8 15.0002C23.849 14.5386 23.7957 14.1119 23.64 13.7202C23.64 12.5469 23.64 11.3736 23.64 10.2002C23.7847 10.3137 23.8379 10.4737 23.8 10.6802C23.9191 11.2592 23.9723 11.8459 23.96 12.4402C24.3867 12.4402 24.8133 12.4402 25.24 12.4402C25.24 12.9736 25.24 13.5069 25.24 14.0402C26.0832 14.0629 26.8565 13.8495 27.56 13.4002C28.0432 13.5243 28.4965 13.4176 28.92 13.0802C29.1607 12.4321 29.5874 11.8988 30.2 11.4802C30.3067 11.0536 30.4133 10.6269 30.52 10.2002C30.7016 10.1038 30.8616 10.0505 31 10.0402C30.8706 9.78889 30.8171 9.52222 30.84 9.24023Z"
        fill="#9465F4" />
    <path fill-rule="evenodd" clip-rule="evenodd"
        d="M15.96 10.8398C15.8686 11.0756 15.8686 11.3422 15.96 11.6398C17.0552 11.6737 18.1218 11.8604 19.16 12.1998C19.9348 12.7767 20.5748 13.4701 21.08 14.2798C21.1751 14.3541 21.2818 14.3808 21.4 14.3598C21.6853 14.458 21.8986 14.6447 22.04 14.9198C22.4096 14.9993 22.7829 15.026 23.16 14.9998C23.16 15.2665 23.16 15.5332 23.16 15.7998C23.16 16.0665 23.16 16.3332 23.16 16.5998C22.9128 17.0822 22.6461 17.5622 22.36 18.0398C22.3951 17.8518 22.3418 17.6918 22.2 17.5598C22.04 17.7731 21.88 17.9866 21.72 18.1998C21.6125 17.968 21.5058 17.7547 21.4 17.5598C21.4325 17.2178 21.5925 16.9511 21.88 16.7598C21.7733 16.7065 21.6668 16.6532 21.56 16.5998C21.5935 16.5061 21.6469 16.4261 21.72 16.3598C21.1736 16.2949 20.7469 16.0283 20.44 15.5598C19.9093 15.4801 19.376 15.4534 18.84 15.4798C18.84 15.3198 18.84 15.1598 18.84 14.9998C17.1333 14.9998 15.4267 14.9998 13.72 14.9998C13.6667 15.8532 13.6134 15.8532 13.56 14.9998C13.0855 15.0622 12.6589 14.9555 12.28 14.6798C12.1576 14.8577 11.9976 14.9644 11.8 14.9998C12 14.5989 12.1066 14.1722 12.12 13.7198C12.7528 13.3807 13.2594 12.9007 13.64 12.2798C13.8019 12.4137 13.9885 12.467 14.2 12.4398C14.2 11.9065 14.4667 11.6398 15 11.6398C15 11.4798 15 11.3198 15 11.1598C15.3549 11.1416 15.6749 11.035 15.96 10.8398Z"
        fill="#3B70D5" />
    <path fill-rule="evenodd" clip-rule="evenodd"
        d="M12.12 13.7202C12.1066 14.1726 12 14.5993 11.8 15.0002C11.5601 15.1802 11.3467 15.3936 11.16 15.6402C11.16 15.4269 11.16 15.2135 11.16 15.0002C11.4793 14.5605 11.7993 14.1338 12.12 13.7202Z"
        fill="#3D7FCA" />
    <path fill-rule="evenodd" clip-rule="evenodd"
        d="M21.4001 17.5602C20.5375 17.4635 19.7375 17.6235 19.0001 18.0402C18.8433 18.4539 18.79 18.8807 18.8401 19.3202C18.4133 19.3202 17.9868 19.3202 17.5601 19.3202C17.5601 19.5335 17.5601 19.7469 17.5601 19.9602C16.4877 19.9339 15.421 19.9872 14.3601 20.1202C13.2401 20.1202 12.1201 20.1202 11.0001 20.1202C10.7479 19.5549 10.8013 19.0215 11.1601 18.5202C11.1051 17.5699 11.1051 16.61 11.1601 15.6402C11.3467 15.3936 11.5601 15.1802 11.8001 15.0002C11.9976 14.9648 12.1576 14.8581 12.2801 14.6802C12.6589 14.9559 13.0855 15.0625 13.5601 15.0002C13.6134 15.8535 13.6667 15.8535 13.7201 15.0002C15.4267 15.0002 17.1333 15.0002 18.8401 15.0002C18.8401 15.1602 18.8401 15.3202 18.8401 15.4802C19.3761 15.4538 19.9093 15.4804 20.4401 15.5602C20.7469 16.0286 21.1737 16.2953 21.7201 16.3602C21.6469 16.4264 21.5935 16.5064 21.5601 16.6002C21.6668 16.6535 21.7733 16.7068 21.8801 16.7602C21.5925 16.9514 21.4325 17.2181 21.4001 17.5602Z"
        fill="#4B74E0" />
    <path fill-rule="evenodd" clip-rule="evenodd"
        d="M31.8 11.3198C32.0314 11.7605 32.1914 12.2405 32.28 12.7598C32.28 13.1865 32.28 13.6132 32.28 14.0398C32.3301 14.4793 32.2768 14.906 32.12 15.3198C31.9024 14.9228 31.7424 14.9762 31.64 15.4798C31.3323 15.6091 31.0123 15.6891 30.68 15.7198C30.4667 15.8265 30.3067 15.9865 30.2 16.1998C28.0187 16.119 25.912 16.4657 23.88 17.2398C23.5669 17.0184 23.4069 17.1251 23.4 17.5598C23.3467 17.3998 23.2933 17.2398 23.24 17.0798C23.1354 17.2712 23.0554 17.2712 23 17.0798C23.1003 16.9331 23.1538 16.7731 23.16 16.5998C23.16 16.3332 23.16 16.0665 23.16 15.7998C23.3046 15.6864 23.3579 15.5264 23.32 15.3198C23.3733 15.3198 23.4267 15.3198 23.48 15.3198C23.48 15.6398 23.48 15.9598 23.48 16.2798C23.64 16.2798 23.8 16.2798 23.96 16.2798C23.96 16.1198 23.96 15.9598 23.96 15.7998C25.1051 15.6589 26.2518 15.4989 27.4 15.3198C27.6122 15.279 27.7722 15.1724 27.88 14.9998C28.2349 15.1553 28.6082 15.262 29 15.3198C29.8746 15.0601 30.7013 14.6868 31.48 14.1998C32.0072 13.3031 32.1139 12.3431 31.8 11.3198Z"
        fill="#A279F5" />
    <path fill-rule="evenodd" clip-rule="evenodd"
        d="M2.04001 11.48C2.04426 11.9167 1.9376 12.3167 1.72001 12.68C1.73364 12.8572 1.78698 13.0172 1.88001 13.16C1.38098 13.9477 1.30098 14.7744 1.64001 15.64C1.81954 15.2278 1.97954 14.8011 2.12001 14.36C2.14776 15.0065 2.22776 15.6465 2.36001 16.28C2.48492 16.0821 2.64492 15.9221 2.84001 15.8C3.05381 16.1054 3.26714 16.4254 3.48001 16.76C3.89273 16.9278 4.3194 17.0345 4.76001 17.08C4.92106 17.5373 5.18773 17.9373 5.56001 18.28C6.14577 18.3984 6.73242 18.5851 7.32 18.84C7.32 19.6933 7.32 20.5467 7.32 21.4C6.98336 21.4478 6.66336 21.3945 6.36 21.24C6.55496 21.3025 6.68829 21.1958 6.76 20.92C6.83896 20.6585 6.86564 20.3918 6.84 20.12C6.57333 20.12 6.30668 20.12 6.04001 20.12C5.96933 20.951 5.80933 20.951 5.56001 20.12C4.70858 19.748 4.06858 19.1613 3.64001 18.36C3.42239 18.9744 3.18239 18.9744 2.92001 18.36C2.84105 18.0985 2.81437 17.8318 2.84001 17.56C2.43012 17.4206 2.00346 17.4206 1.56001 17.56C1.2988 16.5119 1.19213 15.4452 1.24001 14.36C1.21905 13.4835 1.35238 12.6302 1.64001 11.8C1.75333 11.6591 1.88667 11.5524 2.04001 11.48Z"
        fill="#A2F0EA" />
    <path fill-rule="evenodd" clip-rule="evenodd"
        d="M32.28 14.04C32.4629 14.5962 32.4896 15.1828 32.36 15.8C32.1707 15.6031 31.9841 15.6031 31.8 15.8C31.7176 16.0761 31.6109 16.3427 31.48 16.6C29.5579 17.3424 27.5846 17.7424 25.56 17.8C25.6133 17.7468 25.6667 17.6933 25.72 17.64C25.5683 17.5628 25.4083 17.5362 25.24 17.56C25.2672 17.7716 25.2139 17.9583 25.08 18.12C24.6109 18.2725 24.1309 18.3525 23.64 18.36C23.64 18.52 23.64 18.68 23.64 18.84C23.1029 18.777 22.7296 18.9903 22.52 19.48C22.3371 19.0866 22.3904 18.7132 22.68 18.36C22.6048 18.206 22.4981 18.206 22.36 18.36C22.36 18.2533 22.36 18.1468 22.36 18.04C22.6461 17.5624 22.9128 17.0824 23.16 16.6C23.1537 16.7734 23.1003 16.9334 23 17.08C23.0553 17.2714 23.1353 17.2714 23.24 17.08C23.2933 17.24 23.3467 17.4 23.4 17.56C23.4069 17.1253 23.5669 17.0186 23.88 17.24C25.912 16.4659 28.0187 16.1193 30.2 16.2C30.3067 15.9867 30.4667 15.8267 30.68 15.72C31.0123 15.6893 31.3323 15.6093 31.64 15.48C31.7424 14.9764 31.9024 14.923 32.12 15.32C32.2768 14.9062 32.3301 14.4795 32.28 14.04Z"
        fill="#A883F5" />
    <path fill-rule="evenodd" clip-rule="evenodd"
        d="M11.16 15C11.16 15.2133 11.16 15.4267 11.16 15.64C10.8808 15.8852 10.7208 16.2052 10.68 16.6C10.6267 16.6 10.5733 16.6 10.52 16.6C10.5117 16.2155 10.565 15.8422 10.68 15.48C10.737 15.2096 10.897 15.0496 11.16 15Z"
        fill="#78D0F2" />
    <path fill-rule="evenodd" clip-rule="evenodd"
        d="M32.28 12.7598C32.5061 13.1947 32.6128 13.6747 32.6 14.1998C32.6 14.9464 32.6 15.6931 32.6 16.4398C32.4221 16.7757 32.3154 17.149 32.28 17.5598C32.12 17.5598 31.96 17.5598 31.8 17.5598C31.7468 16.7064 31.6933 16.7064 31.64 17.5598C29.9061 17.889 28.1994 18.3158 26.52 18.8398C25.4823 18.6548 24.6023 18.9214 23.88 19.6398C23.3725 19.4002 23.0792 19.5602 23 20.1198C22.7282 20.0942 22.4615 20.1207 22.2 20.1998C21.7876 20.5529 21.3343 20.8462 20.84 21.0798C20.7333 20.973 20.7333 20.8665 20.84 20.7598C21.0602 20.567 21.2468 20.3537 21.4 20.1198C21.3581 19.8833 21.4114 19.67 21.56 19.4798C21.8487 19.127 22.1154 18.7537 22.36 18.3598C22.4981 18.2057 22.6048 18.2057 22.68 18.3598C22.3904 18.7129 22.3372 19.0863 22.52 19.4798C22.7296 18.99 23.1029 18.7767 23.64 18.8398C23.64 18.6798 23.64 18.5198 23.64 18.3598C24.1309 18.3522 24.6109 18.2722 25.08 18.1198C25.214 17.958 25.2672 17.7713 25.24 17.5598C25.4084 17.5359 25.5684 17.5625 25.72 17.6398C25.6668 17.693 25.6133 17.7465 25.56 17.7998C27.5847 17.7422 29.558 17.3422 31.48 16.5998C31.6109 16.3424 31.7176 16.0758 31.8 15.7998C31.9842 15.6028 32.1708 15.6028 32.36 15.7998C32.4896 15.1826 32.4629 14.5959 32.28 14.0398C32.28 13.6131 32.28 13.1864 32.28 12.7598Z"
        fill="#B492F6" />
    <path fill-rule="evenodd" clip-rule="evenodd"
        d="M1.24004 14.3599C1.19217 15.4451 1.29884 16.5117 1.56004 17.5599C2.0035 17.4205 2.43016 17.4205 2.84004 17.5599C2.81441 17.8317 2.84108 18.0984 2.92004 18.3599C3.18243 18.9743 3.42243 18.9743 3.64004 18.3599C4.06862 19.1611 4.70862 19.7479 5.56004 20.1199C5.80937 20.9509 5.96937 20.9509 6.04004 20.1199C6.30672 20.1199 6.57337 20.1199 6.84004 20.1199C6.86568 20.3917 6.839 20.6584 6.76004 20.9199C6.68833 21.1957 6.555 21.3024 6.36004 21.2399C6.6634 21.3944 6.9834 21.4477 7.32004 21.3999C7.47939 21.3861 7.61272 21.4395 7.72004 21.5599C8.06281 22.3136 8.19614 23.1136 8.12004 23.9599C8.28004 23.9599 8.44004 23.9599 8.60004 23.9599C8.60004 24.1199 8.60004 24.2799 8.60004 24.4399C8.93668 24.4877 9.25668 24.4344 9.56004 24.2799C9.38268 24.0056 9.48936 23.8989 9.88004 23.9599C9.85612 24.1282 9.8828 24.2882 9.96004 24.4399C10.0396 24.0165 10.0663 23.5898 10.04 23.1599C10.2252 23.6035 10.3319 24.0835 10.36 24.5999C8.70208 24.7491 7.10208 24.5359 5.56004 23.9599C5.07576 24.0299 4.59576 24.0567 4.12004 24.0399C4.27105 23.6048 4.32438 23.1515 4.28004 22.6799C4.44004 22.6799 4.60004 22.6799 4.76004 22.6799C4.76004 22.2531 4.76004 21.8266 4.76004 21.3999C3.8307 21.4695 3.40403 21.0427 3.48004 20.1199C3.05337 20.1199 2.62672 20.1199 2.20004 20.1199C2.20571 19.0863 2.07237 19.0863 1.80004 20.1199C1.5603 19.5917 1.53363 19.0583 1.72004 18.5199C1.51933 18.2264 1.41266 17.9064 1.40004 17.5599C1.24004 17.5599 1.08004 17.5599 0.920044 17.5599C0.920044 16.7065 0.920044 15.8532 0.920044 14.9999C1.02671 14.7865 1.13338 14.5732 1.24004 14.3599Z"
        fill="#ACF4F0" />
    <path fill-rule="evenodd" clip-rule="evenodd"
        d="M21.4 17.56C21.4512 18.1037 21.3979 18.6371 21.24 19.16C21.1075 19.0136 20.9475 18.907 20.76 18.84C20.391 19.1822 19.9643 19.4222 19.48 19.56C19.3461 19.7218 19.2928 19.9085 19.32 20.12C18.0443 19.9922 17.031 20.4189 16.28 21.4C15.5866 21.4 14.8933 21.4 14.2 21.4C14.0705 21.245 13.9105 21.1117 13.72 21C14.0356 20.9208 14.3556 20.8941 14.68 20.92C14.627 20.6285 14.5204 20.3618 14.36 20.12C15.4209 19.987 16.4876 19.9338 17.56 19.96C17.56 19.7467 17.56 19.5333 17.56 19.32C17.9867 19.32 18.4133 19.32 18.84 19.32C18.7899 18.8805 18.8432 18.4538 19 18.04C19.7374 17.6234 20.5374 17.4634 21.4 17.56Z"
        fill="#4C7EE3" />
    <path fill-rule="evenodd" clip-rule="evenodd"
        d="M10.3599 17.0801C10.291 17.694 10.1843 18.2806 10.0399 18.8401C9.86142 20.2548 9.86142 21.6948 10.0399 23.1601C10.0662 23.59 10.0395 24.0167 9.95995 24.4401C9.8827 24.2884 9.85603 24.1284 9.87995 23.9601C9.48926 23.8991 9.38259 24.0058 9.55995 24.2801C9.25659 24.4346 8.93659 24.4879 8.59995 24.4401C8.59995 24.2801 8.59995 24.1201 8.59995 23.9601C8.43995 23.9601 8.27995 23.9601 8.11995 23.9601C8.19604 23.1138 8.06271 22.3138 7.71995 21.5601C7.61262 21.4398 7.47929 21.3863 7.31995 21.4001C7.31995 20.5468 7.31995 19.6934 7.31995 18.8401C7.58662 18.8401 7.85327 18.8401 8.11995 18.8401C8.0755 19.1354 8.18215 19.3489 8.43995 19.4801C8.93835 18.2785 8.565 17.6385 7.31995 17.5601C7.31995 17.3468 7.31995 17.1334 7.31995 16.9201C7.75945 16.8699 8.18611 16.9233 8.59995 17.0801C8.79411 17.7279 9.19411 18.2079 9.79995 18.5201C9.96363 18.3441 10.0436 18.1308 10.0399 17.8801C9.73267 17.425 9.83932 17.1583 10.3599 17.0801Z"
        fill="#99F0EF" />
    <path fill-rule="evenodd" clip-rule="evenodd"
        d="M10.04 18.8398C9.97039 20.1587 10.0771 21.4387 10.36 22.6798C10.4324 23.3272 10.539 23.9672 10.68 24.5998C10.5734 24.6531 10.4667 24.7066 10.36 24.7598C10.36 24.7066 10.36 24.6531 10.36 24.5998C10.3318 24.0835 10.2252 23.6035 10.04 23.1598C9.8615 21.6946 9.8615 20.2546 10.04 18.8398Z"
        fill="#97DBFA" />
    <path fill-rule="evenodd" clip-rule="evenodd"
        d="M11.16 15.6401C11.105 16.61 11.105 17.5699 11.16 18.5201C10.8012 19.0214 10.7479 19.5549 11 20.1201C12.12 20.1201 13.24 20.1201 14.36 20.1201C14.5204 20.3619 14.6271 20.6286 14.68 20.9201C14.3556 20.8942 14.0356 20.9209 13.72 21.0001C13.9105 21.1118 14.0705 21.2451 14.2 21.4001C13.099 21.52 12.0056 21.52 10.92 21.4001C10.8667 21.5601 10.8133 21.7201 10.76 21.8801C10.7223 21.6211 10.589 21.4611 10.36 21.4001C10.3073 19.7872 10.414 18.1872 10.68 16.6001C10.7208 16.2054 10.8808 15.8854 11.16 15.6401Z"
        fill="#5D7EE5" />
    <path fill-rule="evenodd" clip-rule="evenodd"
        d="M32.5999 17.8799C32.4601 18.4061 32.3534 18.9396 32.2799 19.4799C30.8839 19.6898 29.4972 19.9298 28.1199 20.1999C27.6486 20.5559 27.1151 20.7424 26.5199 20.7599C26.5199 20.9732 26.5199 21.1866 26.5199 21.3999C25.8185 21.3477 25.1252 21.4012 24.4399 21.5599C23.4291 22.1477 22.4691 22.7877 21.5599 23.4799C21.4182 23.6119 21.3649 23.7719 21.3999 23.9599C21.2119 23.9248 21.0519 23.9781 20.9199 24.1199C20.5439 24.6026 20.1172 25.0292 19.6399 25.3999C19.4203 25.7183 19.2603 26.065 19.1599 26.4399C18.8985 26.5189 18.6318 26.5455 18.3599 26.5199C18.3747 27.0893 18.2414 27.6226 17.9599 28.1199C17.174 28.6866 16.4008 29.2732 15.6399 29.8799C15.3124 30.1045 15.0457 30.0512 14.8399 29.7199C14.9781 29.4484 15.1914 29.2618 15.4799 29.1599C15.0359 29.0354 14.6359 29.1154 14.2799 29.3999C14.1076 29.2512 13.921 29.1445 13.7199 29.0799C13.5516 29.1037 13.3916 29.0772 13.2399 28.9999C12.9912 28.634 12.7246 28.2872 12.4399 27.9599C12.8465 28.15 13.2465 28.3634 13.6399 28.5999C13.8417 28.5584 14.0017 28.4517 14.1199 28.2799C14.7519 28.7772 15.0452 28.6172 14.9999 27.7999C15.2364 27.8418 15.4497 27.7885 15.6399 27.6399C16.0926 27.2144 16.5726 26.8144 17.0799 26.4399C17.5067 25.9066 17.9332 25.3732 18.3599 24.8399C18.9535 24.5975 19.487 24.2775 19.9599 23.8799C19.7766 23.4708 19.9366 23.2575 20.4399 23.2399C20.6771 22.9226 20.9438 22.6293 21.2399 22.3599C21.4566 22.6293 21.7233 22.7093 22.0399 22.5999C22.8342 21.8556 23.7407 21.3223 24.7599 20.9999C24.6868 20.9336 24.6334 20.8536 24.5999 20.7599C25.1351 20.2522 25.7751 20.0389 26.5199 20.1199C26.5199 19.9599 26.5199 19.7999 26.5199 19.6399C27.3958 19.6714 28.2492 19.5648 29.0799 19.3199C29.0799 19.1599 29.0799 18.9999 29.0799 18.8399C29.9332 18.8399 30.7867 18.8399 31.6399 18.8399C31.642 18.3821 31.8286 18.2221 32.1999 18.3599C32.3363 18.1885 32.4695 18.0285 32.5999 17.8799Z"
        fill="#C9B0F9" />
    <path fill-rule="evenodd" clip-rule="evenodd"
        d="M10.52 16.6001C10.5734 16.6001 10.6267 16.6001 10.68 16.6001C10.414 18.1871 10.3073 19.7871 10.36 21.4001C10.36 21.8268 10.36 22.2534 10.36 22.6801C10.0771 21.439 9.9704 20.159 10.04 18.8401C10.1844 18.2806 10.2911 17.694 10.36 17.0801C10.5047 16.9667 10.558 16.8067 10.52 16.6001Z"
        fill="#6093DB" />
    <path fill-rule="evenodd" clip-rule="evenodd"
        d="M32.6 14.2002C32.7067 14.6269 32.8133 15.0535 32.92 15.4802C32.92 16.1735 32.92 16.8669 32.92 17.5602C32.8023 18.402 32.6423 19.2552 32.44 20.1202C32.2424 20.1556 32.0824 20.2623 31.96 20.4402C31.8351 20.2436 31.7551 20.0303 31.72 19.8002C31.3271 20.0916 30.8738 20.1983 30.36 20.1202C30.36 20.3869 30.36 20.6535 30.36 20.9202C29.7344 20.8823 29.1477 21.0156 28.6 21.3202C27.9087 21.4 27.2154 21.4268 26.52 21.4002C26.52 21.1869 26.52 20.9735 26.52 20.7602C27.1152 20.7428 27.6487 20.5562 28.12 20.2002C29.4973 19.9301 30.884 19.6901 32.28 19.4802C32.3535 18.9399 32.4602 18.4064 32.6 17.8802C32.6 17.4002 32.6 16.9202 32.6 16.4402C32.6 15.6935 32.6 14.9469 32.6 14.2002Z"
        fill="#CFBAF7" />
    <path fill-rule="evenodd" clip-rule="evenodd"
        d="M0.920044 17.5601C1.08004 17.5601 1.24004 17.5601 1.40004 17.5601C1.41266 17.9066 1.51933 18.2266 1.72004 18.5201C1.53363 19.0585 1.5603 19.5919 1.80004 20.1201C2.07237 19.0865 2.20571 19.0865 2.20004 20.1201C2.62672 20.1201 3.05337 20.1201 3.48004 20.1201C3.40403 21.0429 3.8307 21.4697 4.76004 21.4001C4.76004 21.8268 4.76004 22.2533 4.76004 22.6801C4.60004 22.6801 4.44004 22.6801 4.28004 22.6801C4.32438 23.1517 4.27105 23.605 4.12004 24.0401C4.59576 24.0569 5.07576 24.0301 5.56004 23.9601C7.10208 24.5361 8.70208 24.7493 10.36 24.6001C10.36 24.6533 10.36 24.7068 10.36 24.7601C7.74523 24.9423 5.18523 24.6756 2.68004 23.9601C2.48231 23.6223 2.24231 23.3023 1.96004 23.0001C1.54008 21.6167 1.19342 20.2301 0.920044 18.8401C0.920044 18.4133 0.920044 17.9868 0.920044 17.5601Z"
        fill="#BBF4F2" />
    <path fill-rule="evenodd" clip-rule="evenodd"
        d="M31.8001 21.4001C31.8273 21.6116 31.774 21.7983 31.6401 21.9601C29.5055 22.4028 27.3721 22.8293 25.2401 23.2401C24.4001 23.6847 23.7068 24.2981 23.1601 25.0801C23.0281 25.2218 22.8681 25.2751 22.6801 25.2401C22.2615 25.9823 21.9148 26.7823 21.6401 27.6401C21.4775 27.8215 21.3708 27.7682 21.3201 27.4801C21.2668 27.6933 21.2133 27.9068 21.1601 28.1201C20.7989 28.3674 20.4522 28.634 20.1201 28.9201C20.3167 29.045 20.53 29.125 20.7601 29.1601C20.5663 29.8647 20.353 30.558 20.1201 31.2401C20.2013 31.5429 20.3613 31.7829 20.6001 31.9601C20.0743 32.0732 19.541 32.1265 19.0001 32.1201C18.4745 32.0516 17.9945 31.8916 17.5601 31.6401C17.7284 31.6639 17.8884 31.6373 18.0401 31.5601C18.3548 31.1703 18.6215 30.7703 18.8401 30.3601C19.0001 30.3601 19.1601 30.3601 19.3201 30.3601C19.5458 29.8521 19.7325 29.3186 19.8801 28.7601C20.0647 28.5612 20.2781 28.4012 20.5201 28.2801C20.4101 27.1001 20.8634 26.2468 21.8801 25.7201C22.1341 25.0945 22.5074 24.5612 23.0001 24.1201C23.6085 23.6986 24.1953 23.2453 24.7601 22.7601C26.4636 22.3337 28.1701 21.9069 29.8801 21.4801C30.5178 21.4002 31.1578 21.3735 31.8001 21.4001Z"
        fill="#DCCBFB" />
    <path fill-rule="evenodd" clip-rule="evenodd"
        d="M10.36 21.3999C10.589 21.4609 10.7223 21.6209 10.76 21.8799C10.8133 21.7199 10.8667 21.5599 10.92 21.3999C12.0056 21.5197 13.099 21.5197 14.2 21.3999C14.8933 21.3999 15.5867 21.3999 16.28 21.3999C16.6932 21.4946 16.6932 21.6012 16.28 21.7199C15.4458 21.8143 14.6458 22.0276 13.88 22.3599C13.7314 22.5501 13.6781 22.7634 13.72 22.9999C13.9534 22.9892 14.1667 23.0425 14.36 23.1599C14.2875 23.3132 14.1809 23.4466 14.04 23.5599C13.003 23.6177 12.0164 23.8577 11.08 24.2799C11.1112 24.0197 11.1112 23.753 11.08 23.4799C10.6886 23.3287 10.4486 23.0621 10.36 22.6799C10.36 22.2532 10.36 21.8266 10.36 21.3999Z"
        fill="#6387E9" />
    <path fill-rule="evenodd" clip-rule="evenodd"
        d="M21.4 17.5601C21.5058 17.7549 21.6125 17.9682 21.72 18.2001C21.88 17.9868 22.04 17.7733 22.2 17.5601C22.3418 17.6921 22.3951 17.8521 22.36 18.0401C22.36 18.1468 22.36 18.2533 22.36 18.3601C22.1154 18.754 21.8487 19.1273 21.56 19.4801C21.4114 19.6703 21.3581 19.8836 21.4 20.1201C21.1282 20.1244 20.9147 20.2311 20.76 20.4401C20.6557 20.2441 20.469 20.1373 20.2 20.1201C19.7511 20.1103 19.4843 20.3236 19.4 20.7601C19.0741 21.0698 18.7275 21.3364 18.36 21.5601C17.1541 21.9252 16.0341 22.4052 15 23.0001C14.7442 22.9572 14.5308 23.0106 14.36 23.1601C14.1667 23.0426 13.9534 22.9893 13.72 23.0001C13.6781 22.7636 13.7314 22.5503 13.88 22.3601C14.6458 22.0277 15.4458 21.8145 16.28 21.7201C16.6933 21.6013 16.6933 21.4948 16.28 21.4001C17.0311 20.4189 18.0443 19.9922 19.32 20.1201C19.2928 19.9085 19.3461 19.7218 19.48 19.5601C19.9643 19.4223 20.3911 19.1823 20.76 18.8401C20.9475 18.9071 21.1075 19.0137 21.24 19.1601C21.3979 18.6372 21.4512 18.1037 21.4 17.5601Z"
        fill="#568AE5" />
    <path fill-rule="evenodd" clip-rule="evenodd"
        d="M32.44 20.1198C32.4779 20.3264 32.4246 20.4864 32.28 20.5998C32.0504 20.8259 31.8904 21.0926 31.8 21.3998C31.1577 21.3732 30.5177 21.4 29.88 21.4798C28.17 21.9067 26.4635 22.3334 24.76 22.7598C24.1952 23.2451 23.6084 23.6984 23 24.1198C22.5073 24.5609 22.134 25.0942 21.88 25.7198C20.8633 26.2465 20.41 27.0998 20.52 28.2798C20.278 28.4009 20.0646 28.5609 19.88 28.7598C19.7324 29.3184 19.5457 29.8518 19.32 30.3598C19.16 30.3598 19 30.3598 18.84 30.3598C18.6214 30.77 18.3547 31.17 18.04 31.5598C17.8883 31.6371 17.7283 31.6636 17.56 31.6398C16.8921 31.6144 16.3587 31.3478 15.96 30.8398C16.3791 30.7969 16.7791 30.8502 17.16 30.9998C17.3307 30.8892 17.5174 30.8092 17.72 30.7598C18.1249 30.2878 18.4716 29.7811 18.76 29.2398C18.7841 28.7502 18.9976 28.3769 19.4 28.1198C19.7771 27.1251 20.3104 26.2185 21 25.3998C21.8982 24.4291 22.8849 23.5491 23.96 22.7598C24.4577 22.6888 24.8843 22.4755 25.24 22.1198C25.6587 21.9883 26.0854 21.9083 26.52 21.8798C26.52 21.7198 26.52 21.5598 26.52 21.3998C27.2153 21.4264 27.9086 21.3996 28.6 21.3198C29.1476 21.0152 29.7344 20.8819 30.36 20.9198C30.36 20.6531 30.36 20.3865 30.36 20.1198C30.8737 20.1979 31.327 20.0912 31.72 19.7998C31.755 20.0299 31.835 20.2432 31.96 20.4398C32.0824 20.2619 32.2424 20.1552 32.44 20.1198Z"
        fill="#D7C4FA" />
    <path fill-rule="evenodd" clip-rule="evenodd"
        d="M32.28 20.6001C32.2862 21.4302 32.073 22.1769 31.64 22.8401C31.1502 22.8311 30.8035 23.0446 30.6 23.4801C30.3835 23.2875 30.117 23.1807 29.8 23.1601C27.7198 23.1627 25.8264 23.6961 24.12 24.7601C23.9782 24.8921 23.925 25.0521 23.96 25.2401C23.8 25.2401 23.64 25.2401 23.48 25.2401C23.4669 25.8427 23.2269 26.3227 22.76 26.6801C22.5264 27.3259 22.2597 27.9659 21.96 28.6001C21.8802 29.1844 21.8536 29.771 21.88 30.3601C21.72 30.3601 21.56 30.3601 21.4 30.3601C21.3899 30.8652 21.2299 31.3187 20.92 31.7201C21.0267 31.7734 21.1333 31.8268 21.24 31.8801C21.0331 31.9585 20.8197 31.9852 20.6 31.9601C20.3613 31.783 20.2013 31.543 20.12 31.2401C20.353 30.558 20.5662 29.8647 20.76 29.1601C20.5299 29.1251 20.3166 29.0451 20.12 28.9201C20.4522 28.634 20.7989 28.3675 21.16 28.1201C21.2133 27.9068 21.2667 27.6934 21.32 27.4801C21.3707 27.7683 21.4774 27.8215 21.64 27.6401C21.9147 26.7823 22.2614 25.9823 22.68 25.2401C22.868 25.2751 23.028 25.2219 23.16 25.0801C23.7067 24.2982 24.4 23.6847 25.24 23.2401C27.372 22.8294 29.5054 22.4028 31.64 21.9601C31.7739 21.7983 31.8272 21.6116 31.8 21.4001C31.8904 21.0929 32.0504 20.8262 32.28 20.6001Z"
        fill="#E1D1FB" />
    <path fill-rule="evenodd" clip-rule="evenodd"
        d="M20.76 20.4399C20.1925 21.0985 19.5525 21.6852 18.84 22.1999C18.4704 22.5172 18.0437 22.6772 17.56 22.6799C17.56 22.8399 17.56 22.9999 17.56 23.1599C17.3266 23.1492 17.1133 23.2025 16.92 23.3199C16.28 23.3732 15.64 23.4267 15 23.4799C15 23.3199 15 23.1599 15 22.9999C16.0341 22.4051 17.1541 21.9251 18.36 21.5599C18.7275 21.3363 19.0741 21.0697 19.4 20.7599C19.4843 20.3235 19.751 20.1102 20.2 20.1199C20.469 20.1372 20.6557 20.2439 20.76 20.4399Z"
        fill="#5C93E5" />
    <path fill-rule="evenodd" clip-rule="evenodd"
        d="M26.5199 18.84C25.9356 19.2059 25.2956 19.4994 24.5999 19.72C24.3867 19.8267 24.3867 19.9333 24.5999 20.04C23.4819 20.2125 22.4953 20.6658 21.6399 21.4C21.4382 21.3586 21.2782 21.2519 21.1599 21.08C20.9982 21.2139 20.8115 21.2672 20.5999 21.24C20.3739 21.6664 20.1606 22.1199 19.9599 22.6C19.258 22.7373 18.7247 23.1106 18.3599 23.72C18.0932 23.7733 17.8267 23.8267 17.5599 23.88C17.6667 23.9333 17.7732 23.9867 17.8799 24.04C17.2774 24.525 16.6374 24.9517 15.9599 25.32C15.6811 26.0263 15.2011 26.213 14.5199 25.88C14.5199 26.04 14.5199 26.2 14.5199 26.36C13.7934 26.333 13.7401 26.4397 14.3599 26.68C14.3046 26.8714 14.2246 26.8714 14.1199 26.68C13.882 26.8005 13.8553 26.9338 14.0399 27.08C13.7372 27.2357 13.4172 27.3424 13.0799 27.4C13.2645 27.5463 13.2379 27.6795 12.9999 27.8C12.7234 27.7242 12.5367 27.5642 12.4399 27.32C12.9995 27.2408 13.1595 26.9475 12.9199 26.44C13.789 26.2995 14.3757 25.8195 14.6799 25C15.2422 24.8671 15.7489 24.6271 16.1999 24.28C16.2945 24.1227 16.2411 24.016 16.0399 23.96C15.5782 24.236 15.0716 24.3427 14.5199 24.28C15.1922 23.857 15.9389 23.617 16.7599 23.56C16.8489 23.4987 16.9022 23.4187 16.9199 23.32C17.1132 23.2026 17.3265 23.1493 17.5599 23.16C17.5599 23 17.5599 22.84 17.5599 22.68C18.0436 22.6773 18.4703 22.5173 18.8399 22.2C19.5524 21.6853 20.1924 21.0986 20.7599 20.44C20.9147 20.2311 21.1281 20.1243 21.3999 20.12C21.2467 20.3539 21.0601 20.5672 20.8399 20.76C20.7332 20.8667 20.7332 20.9733 20.8399 21.08C21.3342 20.8464 21.7875 20.5531 22.1999 20.2C22.4614 20.121 22.7281 20.0944 22.9999 20.12C23.0791 19.5605 23.3724 19.4005 23.8799 19.64C24.6022 18.9216 25.4822 18.6551 26.5199 18.84Z"
        fill="#B599F8" />
    <path fill-rule="evenodd" clip-rule="evenodd"
        d="M10.36 22.6802C10.4486 23.0624 10.6886 23.329 11.08 23.4802C11.1112 23.7533 11.1112 24.02 11.08 24.2802C12.0164 23.8579 13.003 23.6179 14.04 23.5602C14.1809 23.4469 14.2875 23.3135 14.36 23.1602C14.5308 23.0107 14.7441 22.9573 15 23.0002C15 23.1602 15 23.3202 15 23.4802C15.64 23.4269 16.28 23.3735 16.92 23.3202C16.9023 23.4189 16.8489 23.4989 16.76 23.5602C15.9389 23.6171 15.1923 23.8571 14.52 24.2802C13.3693 24.377 12.2493 24.537 11.16 24.7602C11.0013 24.7327 10.8947 24.7861 10.84 24.9202C10.7059 24.8655 10.6525 24.7589 10.68 24.6002C10.539 23.9675 10.4323 23.3275 10.36 22.6802Z"
        fill="#6E91E8" />
    <path fill-rule="evenodd" clip-rule="evenodd"
        d="M32.6 16.4399C32.6 16.9199 32.6 17.3999 32.6 17.8799C32.4696 18.0286 32.3363 18.1886 32.2 18.3599C31.8286 18.2222 31.642 18.3822 31.64 18.8399C30.7867 18.8399 29.9332 18.8399 29.08 18.8399C29.08 18.9999 29.08 19.1599 29.08 19.3199C28.2492 19.5649 27.3958 19.6715 26.52 19.6399C26.52 19.7999 26.52 19.9599 26.52 20.1199C25.7752 20.039 25.1352 20.2523 24.6 20.7599C24.6334 20.8537 24.6868 20.9337 24.76 20.9999C23.7408 21.3223 22.8342 21.8556 22.04 22.5999C21.7233 22.7094 21.4566 22.6294 21.24 22.3599C20.9438 22.6294 20.6771 22.9227 20.44 23.2399C19.9366 23.2575 19.7766 23.4708 19.96 23.8799C19.487 24.2775 18.9536 24.5975 18.36 24.8399C17.9332 25.3732 17.5067 25.9067 17.08 26.4399C16.5726 26.8145 16.0926 27.2145 15.64 27.6399C15.4498 27.7886 15.2364 27.8419 15 27.7999C15.0452 28.6172 14.7519 28.7772 14.12 28.2799C14.0018 28.4518 13.8418 28.5585 13.64 28.5999C13.2466 28.3635 12.8466 28.15 12.44 27.9599C11.7017 27.0598 11.1684 26.0463 10.84 24.9199C10.8946 24.7859 11.0013 24.7324 11.16 24.7599C11.162 25.2177 11.3487 25.3777 11.72 25.2399C11.949 25.6403 11.9757 26.0403 11.8 26.4399C11.9954 26.7654 12.2087 27.0587 12.44 27.3199C12.5367 27.5641 12.7234 27.7241 13 27.7999C13.2379 27.6795 13.2646 27.5462 13.08 27.3999C13.4172 27.3423 13.7372 27.2356 14.04 27.0799C13.8554 26.9337 13.882 26.8004 14.12 26.6799C14.2247 26.8713 14.3047 26.8713 14.36 26.6799C13.7401 26.4396 13.7935 26.3329 14.52 26.3599C14.52 26.1999 14.52 26.0399 14.52 25.8799C15.2011 26.2129 15.6811 26.0262 15.96 25.3199C16.6374 24.9516 17.2774 24.5249 17.88 24.0399C17.7732 23.9867 17.6667 23.9332 17.56 23.8799C17.8267 23.8267 18.0932 23.7732 18.36 23.7199C18.7248 23.1105 19.258 22.7372 19.96 22.5999C20.1606 22.1198 20.3739 21.6663 20.6 21.2399C20.8115 21.2671 20.9982 21.2139 21.16 21.0799C21.2782 21.2518 21.4382 21.3585 21.64 21.3999C22.4953 20.6657 23.4819 20.2124 24.6 20.0399C24.3867 19.9332 24.3867 19.8267 24.6 19.7199C25.2956 19.4993 25.9356 19.2059 26.52 18.8399C28.1993 18.3159 29.906 17.8892 31.64 17.5599C31.6932 16.7066 31.7467 16.7066 31.8 17.5599C31.96 17.5599 32.12 17.5599 32.28 17.5599C32.3153 17.1492 32.422 16.7758 32.6 16.4399Z"
        fill="#C0A2F8" />
    <path fill-rule="evenodd" clip-rule="evenodd"
        d="M31.64 22.8401C31.64 22.9468 31.64 23.0534 31.64 23.1601C31.3986 23.5851 31.0518 23.9051 30.6 24.1201C30.5467 24.3868 30.4933 24.6534 30.44 24.9201C30.28 24.7068 30.12 24.7068 29.96 24.9201C29.8195 25.3545 29.5795 25.728 29.24 26.0401C29.2734 26.1339 29.3269 26.2139 29.4 26.2801C28.4414 26.36 27.4814 26.3867 26.52 26.3601C26.4936 26.8961 26.5203 27.4294 26.6 27.9601C26.7149 27.808 26.8482 27.7814 27 27.8801C26.7074 28.0582 26.5739 28.2982 26.6 28.6001C26.7067 28.4934 26.8133 28.3868 26.92 28.2801C26.9091 28.5748 26.9358 28.8416 27 29.0801C26.84 29.0801 26.68 29.0801 26.52 29.0801C26.5619 29.3166 26.5086 29.5299 26.36 29.7201C25.6442 30.1958 24.9509 30.7025 24.28 31.2401C23.0006 31.4864 21.7739 31.8329 20.6 32.2801C20.0333 32.3302 19.5 32.2768 19 32.1201C19.541 32.1265 20.0742 32.0732 20.6 31.9601C20.8197 31.9852 21.0331 31.9585 21.24 31.8801C21.1333 31.8268 21.0267 31.7734 20.92 31.7201C21.2299 31.3187 21.3899 30.8652 21.4 30.3601C21.56 30.3601 21.72 30.3601 21.88 30.3601C21.8536 29.771 21.8802 29.1844 21.96 28.6001C22.2597 27.9659 22.5264 27.3259 22.76 26.6801C23.2269 26.3227 23.4669 25.8427 23.48 25.2401C23.64 25.2401 23.8 25.2401 23.96 25.2401C23.925 25.0521 23.9782 24.8921 24.12 24.7601C25.8264 23.6961 27.7198 23.1627 29.8 23.1601C30.117 23.1808 30.3835 23.2875 30.6 23.4801C30.8035 23.0446 31.1502 22.8312 31.64 22.8401Z"
        fill="#E8DBFC" />
    <path fill-rule="evenodd" clip-rule="evenodd"
        d="M2.67995 23.96C5.18513 24.6755 7.74513 24.9422 10.3599 24.76C10.4666 24.7067 10.5733 24.6532 10.6799 24.6C10.6525 24.7587 10.7058 24.8652 10.8399 24.92C11.1683 26.0464 11.7017 27.0598 12.4399 27.96C12.7246 28.2873 12.9912 28.634 13.2399 29C13.3916 29.0772 13.5516 29.1038 13.7199 29.08C13.6849 29.268 13.7382 29.428 13.8799 29.56C14.5562 30.0305 15.2496 30.4572 15.9599 30.84C16.3587 31.348 16.892 31.6145 17.5599 31.64C17.9943 31.8915 18.4743 32.0515 18.9999 32.12C19.4999 32.2766 20.0332 32.33 20.5999 32.28C19.7033 32.5321 18.7966 32.7454 17.8799 32.92C16.9199 32.92 15.9599 32.92 14.9999 32.92C13.9201 32.4745 12.7734 32.1545 11.5599 31.96C10.1707 31.3816 8.81073 30.7683 7.47995 30.12C7.06894 29.6547 6.61561 29.2547 6.11995 28.92C6.04155 28.7131 6.01487 28.4996 6.03995 28.28C5.8202 28.3051 5.60686 28.2784 5.39995 28.2C4.49164 27.3515 3.7983 26.3649 3.31995 25.24C2.77697 24.9825 2.56364 24.5558 2.67995 23.96Z"
        fill="#EBE1FD" />
    <path fill-rule="evenodd" clip-rule="evenodd"
        d="M12.44 27.32C12.2088 27.0587 11.9954 26.7654 11.8 26.44C11.9757 26.0403 11.9491 25.6403 11.72 25.24C11.3487 25.3777 11.1621 25.2177 11.16 24.76C12.2494 24.5368 13.3694 24.3768 14.52 24.28C15.0717 24.3427 15.5783 24.236 16.04 23.96C16.2412 24.016 16.2946 24.1227 16.2 24.28C15.749 24.627 15.2423 24.867 14.68 25C14.3758 25.8195 13.7891 26.2995 12.92 26.44C13.1596 26.9475 12.9996 27.2408 12.44 27.32Z"
        fill="#B292F8" />
    <path fill-rule="evenodd" clip-rule="evenodd"
        d="M31.64 23.1602C31.6856 23.4462 31.6323 23.713 31.48 23.9602C30.9265 24.5205 30.4733 25.1605 30.12 25.8802C29.9081 26.3192 29.5614 26.5325 29.08 26.5202C29.1056 26.792 29.079 27.0587 29 27.3202C28.5225 27.8778 28.0158 28.411 27.48 28.9202C27.3333 29.0205 27.1733 29.0739 27 29.0802C26.9358 28.8416 26.9091 28.5749 26.92 28.2802C26.8133 28.3869 26.7067 28.4934 26.6 28.6002C26.5739 28.2982 26.7073 28.0582 27 27.8802C26.8481 27.7814 26.7149 27.808 26.6 27.9602C26.5203 27.4294 26.4936 26.8962 26.52 26.3602C27.4814 26.3867 28.4414 26.36 29.4 26.2802C29.3269 26.2139 29.2734 26.1339 29.24 26.0402C29.5795 25.728 29.8195 25.3546 29.96 24.9202C30.12 24.7069 30.28 24.7069 30.44 24.9202C30.4933 24.6534 30.5467 24.3869 30.6 24.1202C31.0518 23.9051 31.3985 23.5851 31.64 23.1602Z"
        fill="#EBE1FB" />
    <path fill-rule="evenodd" clip-rule="evenodd"
        d="M26.52 21.4002C26.52 21.5602 26.52 21.7202 26.52 21.8802C26.0855 21.9087 25.6587 21.9887 25.24 22.1202C24.8843 22.4759 24.4578 22.6891 23.96 22.7602C22.885 23.5495 21.8983 24.4295 21 25.4002C20.3104 26.2189 19.7771 27.1255 19.4 28.1202C18.9976 28.3773 18.7842 28.7506 18.76 29.2402C18.4717 29.7815 18.125 30.2882 17.72 30.7602C17.5175 30.8096 17.3307 30.8896 17.16 31.0002C16.7791 30.8506 16.3791 30.7973 15.96 30.8402C15.2496 30.4575 14.5563 30.0307 13.88 29.5602C13.7383 29.4282 13.685 29.2682 13.72 29.0802C13.921 29.1448 14.1077 29.2515 14.28 29.4002C14.636 29.1157 15.036 29.0357 15.48 29.1602C15.1915 29.2621 14.9782 29.4487 14.84 29.7202C15.0458 30.0515 15.3125 30.1048 15.64 29.8802C16.4008 29.2735 17.1741 28.6869 17.96 28.1202C18.2415 27.6229 18.3747 27.0896 18.36 26.5202C18.6319 26.5458 18.8986 26.5192 19.16 26.4402C19.2603 26.0653 19.4203 25.7186 19.64 25.4002C20.1173 25.0295 20.544 24.6029 20.92 24.1202C21.052 23.9784 21.212 23.9251 21.4 23.9602C21.365 23.7722 21.4183 23.6122 21.56 23.4802C22.4691 22.788 23.4291 22.148 24.44 21.5602C25.1253 21.4015 25.8186 21.348 26.52 21.4002Z"
        fill="#D0BAF9" />
</svg>