<svg width="32" height="32" viewBox="0 0 32 32" fill="none" xmlns="http://www.w3.org/2000/svg">
    <path
        d="M32 32H0L16.0007 0L21.5236 11.0467C20.9574 10.9499 20.3842 10.901 19.81 10.9007C18.5884 10.8993 17.3764 11.1196 16.2312 11.5513C15.1124 11.9669 14.0776 12.5861 13.1778 13.3787C12.2955 14.1627 11.5765 15.1179 11.0629 16.188C10.533 17.302 10.2633 18.525 10.2748 19.762C10.2595 21.0761 10.5006 22.3802 10.9841 23.5993C11.4354 24.7317 12.1121 25.7573 12.9718 26.612C13.8314 27.4667 14.8556 28.1321 15.9803 28.5667C17.2024 29.0413 18.5015 29.2788 19.81 29.2667C21.1183 29.2799 22.4174 29.0436 23.6398 28.57C24.7678 28.1302 25.7958 27.4617 26.661 26.6053C27.2895 25.9771 27.8209 25.2561 28.2373 24.4667L32 32ZM19.81 24.9247C19.1614 24.9286 18.519 24.7965 17.9231 24.5367C17.3451 24.2835 16.821 23.919 16.3796 23.4633C15.9313 22.9948 15.5747 22.4442 15.3288 21.8407C15.0653 21.189 14.9333 20.4903 14.9406 19.786C14.9411 19.1925 15.0738 18.6068 15.3288 18.0727C15.5868 17.527 15.9433 17.0352 16.3796 16.6227C16.8319 16.198 17.3544 15.8577 17.9231 15.6173C19.1321 15.1149 20.4873 15.1149 21.6963 15.6173C22.2649 15.858 22.7873 16.1983 23.2398 16.6227C23.676 17.0353 24.0324 17.5271 24.2906 18.0727C24.5456 18.6068 24.6783 19.1925 24.6788 19.786C24.6861 20.4903 24.5541 21.189 24.2906 21.8407C24.0445 22.4441 23.6879 22.9947 23.2398 23.4633C22.7982 23.9187 22.2741 24.2832 21.6963 24.5367C21.1006 24.7964 20.4584 24.9284 19.81 24.9247Z"
        fill="#D02C2F" />
</svg>