<svg width="32" height="32" viewBox="0 0 32 32" fill="none" xmlns="http://www.w3.org/2000/svg">
    <g clip-path="url(#clip0_4643_2022)">
        <path opacity="0.95" fill-rule="evenodd" clip-rule="evenodd"
            d="M15.1199 0.240242C17.1982 -0.00124674 18.1316 0.90542 17.9199 2.96024C17.4294 3.63583 16.9761 4.32915 16.5599 5.04024C16.9684 5.79687 17.4751 6.49021 18.0799 7.12024C18.6652 8.69424 18.2119 9.84091 16.7199 10.5602C14.4789 10.8257 13.4389 9.83903 13.5999 7.60024C14.1342 6.72139 14.6942 5.86807 15.2799 5.04024C15.0922 4.45368 14.7455 3.97368 14.2399 3.60024C13.4912 2.19031 13.7845 1.07031 15.1199 0.240242Z"
            fill="#3D3DFF" />
        <path opacity="0.913" fill-rule="evenodd" clip-rule="evenodd"
            d="M5.68 4.87981C7.03058 4.71114 7.69725 5.2978 7.68 6.63981C6.82344 8.03138 5.91677 8.08471 4.96 6.79981C4.71588 5.95804 4.95588 5.31804 5.68 4.87981Z"
            fill="#3D3DFF" />
        <path opacity="0.914" fill-rule="evenodd" clip-rule="evenodd"
            d="M24.8801 4.87987C26.5055 4.66517 27.1722 5.3585 26.8801 6.95987C25.6156 8.10373 24.6823 7.86373 24.0801 6.23987C24.1841 5.6844 24.4506 5.23107 24.8801 4.87987Z"
            fill="#3D3DFF" />
        <path opacity="0.934" fill-rule="evenodd" clip-rule="evenodd"
            d="M9.51995 7.75977C11.6992 7.96017 12.4192 9.08017 11.68 11.1198C10.5066 12.3998 9.33328 12.3998 8.15995 11.1198C7.47654 9.52993 7.92989 8.40993 9.51995 7.75977Z"
            fill="#3D3DFF" />
        <path opacity="0.956" fill-rule="evenodd" clip-rule="evenodd"
            d="M21.6799 7.75977C23.7476 8.05591 24.4143 9.17591 23.6799 11.1198C23.433 11.4203 23.1397 11.6603 22.7999 11.8398C21.7684 12.022 20.8884 12.4753 20.1599 13.1998C19.6655 14.4973 19.2922 15.8307 19.0399 17.1998C17.8237 19.2042 16.1437 19.711 13.9999 18.7198C12.4756 17.3801 12.1822 15.8067 13.1199 13.9998C13.5346 13.4778 14.0413 13.0778 14.6399 12.7998C16.009 12.5474 17.3423 12.1741 18.6399 11.6798C18.8266 11.4931 19.0132 11.3064 19.1999 11.1198C19.5512 10.3325 19.8712 9.53252 20.1599 8.71977C20.568 8.21082 21.0748 7.89082 21.6799 7.75977Z"
            fill="#3D3DFF" />
        <path opacity="0.95" fill-rule="evenodd" clip-rule="evenodd"
            d="M7.59991 13.5199C9.40226 13.3499 10.4689 14.1499 10.7999 15.9199C10.4716 17.7151 9.40497 18.4886 7.59991 18.2399C6.72106 17.7057 5.86773 17.1457 5.03991 16.5599C4.5098 16.8262 4.0298 17.1727 3.59991 17.5999C2.21705 18.333 1.12371 18.0398 0.319909 16.7199C0.0510019 14.6956 0.931002 13.7623 2.95991 13.9199C3.63549 14.4104 4.32882 14.8638 5.03991 15.2799C5.89925 14.6847 6.75258 14.0981 7.59991 13.5199Z"
            fill="#3D3DFF" />
        <path opacity="0.949" fill-rule="evenodd" clip-rule="evenodd"
            d="M22.8001 13.5199C23.4569 13.4773 24.0969 13.5573 24.7201 13.7599C25.3502 14.3647 26.0434 14.8714 26.8001 15.2799C27.5111 14.8637 28.2046 14.4104 28.8801 13.9199C30.466 13.6637 31.426 14.3303 31.7601 15.9199C31.2644 17.8727 30.091 18.4327 28.2401 17.5999C27.6977 16.818 27.0042 16.5512 26.1601 16.7999C24.7038 18.6392 23.1303 18.7725 21.4401 17.1999C20.8097 15.5422 21.263 14.3156 22.8001 13.5199Z"
            fill="#3D3DFF" />
        <path opacity="0.933" fill-rule="evenodd" clip-rule="evenodd"
            d="M9.51995 19.7598C11.6992 19.9602 12.4192 21.0802 11.68 23.1198C10.5066 24.3998 9.33328 24.3998 8.15995 23.1198C7.47654 21.53 7.92989 20.41 9.51995 19.7598Z"
            fill="#3D3DFF" />
        <path opacity="0.936" fill-rule="evenodd" clip-rule="evenodd"
            d="M21.52 19.7598C23.6987 19.9593 24.4187 21.0793 23.68 23.1198C22.5067 24.3998 21.3333 24.3998 20.16 23.1198C19.4723 21.5284 19.9256 20.4084 21.52 19.7598Z"
            fill="#3D3DFF" />
        <path opacity="0.95" fill-rule="evenodd" clip-rule="evenodd"
            d="M15.6001 21.04C18.0826 21.3655 18.8561 22.6988 17.9201 25.04C17.3084 25.5167 16.8551 26.1034 16.5601 26.8C16.9191 27.3556 17.3191 27.8888 17.7601 28.4C18.3534 30.9696 17.3668 31.9564 14.8001 31.36C13.5128 30.0877 13.5394 28.8344 14.8801 27.6C15.3233 27.1613 15.3767 26.6813 15.0401 26.16C13.6919 25.1736 13.2652 23.8936 13.7601 22.32C14.23 21.6597 14.8433 21.233 15.6001 21.04Z"
            fill="#3D3DFF" />
        <path opacity="0.913" fill-rule="evenodd" clip-rule="evenodd"
            d="M5.99988 24.0801C7.26787 24.1126 7.82787 24.7526 7.67988 26.0001C7.28777 26.8943 6.6211 27.1876 5.67988 26.8801C4.9351 26.4166 4.6951 25.75 4.95988 24.8801C5.24867 24.5079 5.59534 24.2414 5.99988 24.0801Z"
            fill="#3D3DFF" />
        <path opacity="0.907" fill-rule="evenodd" clip-rule="evenodd"
            d="M25.3601 24.0801C26.6419 24.2143 27.1484 24.9076 26.8801 26.1601C26.4166 26.9049 25.75 27.1449 24.8801 26.8801C23.7286 25.7026 23.8886 24.7692 25.3601 24.0801Z"
            fill="#3D3DFF" />
    </g>
    <defs>
        <clipPath id="clip0_4643_2022">
            <rect width="32" height="32" fill="white" />
        </clipPath>
    </defs>
</svg>