<svg width="32" height="32" viewBox="0 0 32 32" fill="none" xmlns="http://www.w3.org/2000/svg">
    <path
        d="M3.75045 26.2843C9.44094 33.0534 19.5515 33.9364 26.3331 28.2564C29.6063 25.515 31.5057 21.7456 31.955 17.8183L28.8348 16.6847C28.6507 20.0998 27.1042 23.4334 24.2724 25.8052C18.8471 30.349 10.7586 29.6428 6.20636 24.2275C1.65408 18.8123 2.36158 10.7387 7.78687 6.19474C13.2122 1.65093 21.3006 2.35732 25.8529 7.77249C27.2127 9.39014 28.1032 11.2449 28.5389 13.1718L31.9824 14.423C31.6776 11.3239 30.4655 8.28099 28.3088 5.71566C22.6183 -1.05344 12.5078 -1.93631 5.72618 3.74362C-1.05534 9.42343 -1.93988 19.5154 3.75045 26.2843Z"
        fill="#8989EF" />
    <path
        d="M5.72624 3.74362C2.65737 6.31392 0.796219 9.78776 0.205322 13.4484L3.28063 14.6234C3.62381 11.4534 5.14675 8.40624 7.78693 6.19474C13.2122 1.65093 21.3007 2.35732 25.853 7.77249L22.1693 10.8577L32.0001 14.6139C31.727 11.449 30.5097 8.33378 28.3089 5.71566C22.6184 -1.05344 12.5079 -1.93631 5.72624 3.74362Z"
        fill="#8989EF" />
    <path
        d="M11.2208 16H8.01514C8.01514 20.4182 11.6034 23.9998 16.0297 23.9998C20.456 23.9998 24.0444 20.4182 24.0444 16H20.8385C20.8385 18.651 18.6855 20.7998 16.0297 20.7998C13.3738 20.7998 11.2208 18.651 11.2208 16Z"
        fill="#8989EF" />
</svg>