<svg width="32" height="32" viewBox="0 0 32 32" fill="none" xmlns="http://www.w3.org/2000/svg">
    <g clip-path="url(#clip0_2666_457)">
        <path fill-rule="evenodd" clip-rule="evenodd"
            d="M-0.0712891 -0.0712891C10.5954 -0.0712891 21.262 -0.0712891 31.9287 -0.0712891C31.9287 10.5954 31.9287 21.262 31.9287 31.9287C21.262 31.9287 10.5954 31.9287 -0.0712891 31.9287C-0.0712891 21.262 -0.0712891 10.5954 -0.0712891 -0.0712891Z"
            fill="#FEFEFE" />
        <path fill-rule="evenodd" clip-rule="evenodd"
            d="M26.2396 25.1021C24.3434 25.1021 22.447 25.1021 20.5507 25.1021C20.5952 24.7114 20.5479 24.3321 20.4085 23.9643C20.3222 23.9819 20.2748 24.0293 20.2663 24.1065C18.0333 25.1028 15.7102 25.3635 13.2974 24.8887C12.5494 24.6568 11.8383 24.3486 11.1641 23.9643C11.1641 22.5421 11.1641 21.1199 11.1641 19.6976C9.83666 19.6976 8.50925 19.6976 7.18184 19.6976C5.3512 14.692 6.5838 10.6386 10.8796 7.53763C13.9906 5.81656 17.1432 5.74545 20.3374 7.3243C20.4081 6.94798 20.4318 6.56872 20.4085 6.18652C22.3523 6.18652 24.2959 6.18652 26.2396 6.18652C26.2396 12.4917 26.2396 18.7969 26.2396 25.1021Z"
            fill="#1A1A1A" />
        <path fill-rule="evenodd" clip-rule="evenodd"
            d="M14.8625 11.1641C17.4578 10.9413 19.2356 12.0317 20.1958 14.4352C20.5279 18.4171 18.7028 20.2898 14.7203 20.053C12.298 19.1672 11.1839 17.4368 11.3781 14.8619C11.839 12.9553 13.0005 11.7227 14.8625 11.1641Z"
            fill="#FCFCFC" />
        <path fill-rule="evenodd" clip-rule="evenodd"
            d="M5.75977 19.84C6.20418 19.7008 6.67825 19.6533 7.18199 19.6978C8.50939 19.6978 9.83681 19.6978 11.1642 19.6978C11.1642 21.12 11.1642 22.5422 11.1642 23.9645C11.1642 24.0118 11.1642 24.0593 11.1642 24.1067C11.0228 22.7102 10.9754 21.288 11.022 19.84C9.26792 19.84 7.51383 19.84 5.75977 19.84Z"
            fill="#DB6F47" />
        <path fill-rule="evenodd" clip-rule="evenodd"
            d="M5.75977 19.8398C7.51383 19.8398 9.26792 19.8398 11.022 19.8398C10.9754 21.2878 11.0228 22.71 11.1642 24.1065C11.1642 24.4858 11.1642 24.865 11.1642 25.2443C9.36272 25.2443 7.56125 25.2443 5.75977 25.2443C5.75977 23.4428 5.75977 21.6414 5.75977 19.8398Z"
            fill="#FC6625" />
    </g>
    <defs>
        <clipPath id="clip0_2666_457">
            <rect width="32" height="32" fill="white" />
        </clipPath>
    </defs>
</svg>