<svg width="32" height="32" viewBox="0 0 32 32" fill="none" xmlns="http://www.w3.org/2000/svg">
    <g clip-path="url(#clip0_4007_488)">
        <path fill-rule="evenodd" clip-rule="evenodd"
            d="M14.4357 -0.0712891C15.4312 -0.0712891 16.4268 -0.0712891 17.4223 -0.0712891C19.5338 0.279822 21.5724 0.919822 23.5379 1.84871C28.5572 4.75753 31.3543 9.0953 31.929 14.862C31.929 15.5258 31.929 16.1894 31.929 16.8532C31.2796 23.5289 27.8663 28.1985 21.689 30.862C20.3191 31.3099 18.9443 31.6655 17.5646 31.9287C16.4741 31.9287 15.3839 31.9287 14.2935 31.9287C7.55611 30.8901 3.02871 27.1449 0.711229 20.6932C0.141836 18.5977 -0.0714969 16.4643 0.0712288 14.2932C0.19268 13.1853 0.406013 12.0949 0.711229 11.022C3.15547 4.6648 7.73029 0.967014 14.4357 -0.0712891Z"
            fill="#128FF5" />
        <path fill-rule="evenodd" clip-rule="evenodd"
            d="M20.8356 11.7334C20.4563 11.7334 20.0771 11.7334 19.6978 11.7334C19.6978 14.246 19.6978 16.7585 19.6978 19.2711C19.556 16.7359 19.5087 14.1759 19.5556 11.5911C20.0126 11.547 20.4392 11.5944 20.8356 11.7334Z"
            fill="#B8D8EF" />
        <path fill-rule="evenodd" clip-rule="evenodd"
            d="M20.8355 11.7334C20.8355 14.246 20.8355 16.7585 20.8355 19.2712C20.4562 19.2712 20.0771 19.2712 19.6978 19.2712C19.6978 16.7585 19.6978 14.246 19.6978 11.7334C20.0771 11.7334 20.4562 11.7334 20.8355 11.7334Z"
            fill="#FAFDFE" />
        <path fill-rule="evenodd" clip-rule="evenodd"
            d="M17.7067 11.7334C18.7719 11.7083 19.0564 12.1586 18.56 13.0845C17.4114 13.199 17.127 12.7486 17.7067 11.7334Z"
            fill="#F4FBF9" />
        <path fill-rule="evenodd" clip-rule="evenodd"
            d="M21.9733 11.7334C22.9722 11.7318 23.2567 12.1584 22.8266 13.0134C21.6766 13.2058 21.3922 12.7791 21.9733 11.7334Z"
            fill="#F3FBFB" />
        <path fill-rule="evenodd" clip-rule="evenodd"
            d="M11.1645 14.0094C12.0127 13.9601 12.7238 14.2445 13.2978 14.8627C14.0469 13.9392 14.9477 13.7733 16 14.3649C16.3011 14.6111 16.5144 14.9193 16.64 15.2894C16.7111 16.6159 16.7347 17.9434 16.7111 19.2716C16.2845 19.2716 15.8578 19.2716 15.4311 19.2716C15.4547 18.0381 15.4311 16.8055 15.36 15.5738C14.7364 14.9685 14.1674 15.0159 13.6533 15.716C13.5823 16.9003 13.5586 18.0855 13.5822 19.2716C13.1556 19.2716 12.7289 19.2716 12.3022 19.2716C12.3259 18.0855 12.3022 16.9003 12.2311 15.716C11.8569 15.1288 11.3591 15.0103 10.7378 15.3605C10.6367 15.539 10.5182 15.7048 10.3822 15.8583C10.3112 16.995 10.2875 18.1328 10.3111 19.2716C9.93185 19.2716 9.5526 19.2716 9.17334 19.2716C9.17334 17.5649 9.17334 15.8583 9.17334 14.1516C9.5526 14.1516 9.93185 14.1516 10.3111 14.1516C10.2888 14.3469 10.3125 14.5366 10.3822 14.7205C10.6399 14.4645 10.9007 14.2274 11.1645 14.0094Z"
            fill="#F3FAFB" />
        <path fill-rule="evenodd" clip-rule="evenodd"
            d="M25.1023 14.0086C26.0846 13.8726 26.9142 14.157 27.5912 14.8619C27.7138 15.0876 27.8087 15.3247 27.8756 15.573C27.9468 16.8047 27.9704 18.0373 27.9468 19.2708C27.5675 19.2708 27.1883 19.2708 26.809 19.2708C26.8313 19.0755 26.8076 18.8858 26.7379 18.7019C25.7321 19.6414 24.7365 19.6414 23.7512 18.7019C23.2496 17.3585 23.7 16.5289 25.1023 16.213C25.6217 16.142 26.1431 16.1184 26.6668 16.1419C26.7741 15.4197 26.4659 15.0879 25.7423 15.1463C25.2373 15.0593 24.8817 15.249 24.6756 15.7152C24.3566 15.8538 24.0248 15.9013 23.6801 15.8575C23.7304 14.9073 24.2045 14.291 25.1023 14.0086Z"
            fill="#F3FAFA" />
        <path fill-rule="evenodd" clip-rule="evenodd"
            d="M18.7021 14.2929C18.3228 14.2929 17.9437 14.2929 17.5644 14.2929C17.5644 15.9522 17.5644 17.6114 17.5644 19.2707C17.4229 17.5893 17.3755 15.8827 17.4221 14.1507C17.8791 14.1066 18.3058 14.154 18.7021 14.2929Z"
            fill="#8DC4E7" />
        <path fill-rule="evenodd" clip-rule="evenodd"
            d="M18.7022 14.293C18.7022 15.9523 18.7022 17.6114 18.7022 19.2707C18.3229 19.2707 17.9438 19.2707 17.5645 19.2707C17.5645 17.6114 17.5645 15.9523 17.5645 14.293C17.9438 14.293 18.3229 14.293 18.7022 14.293Z"
            fill="#FCFEFE" />
        <path fill-rule="evenodd" clip-rule="evenodd"
            d="M22.8268 19.2714C22.8268 17.6121 22.8268 15.9529 22.8268 14.2936C22.495 14.2936 22.163 14.2936 21.8312 14.2936C21.8312 15.9529 21.8312 17.6121 21.8312 19.2714C21.6897 17.59 21.6423 15.8833 21.689 14.1514C22.1157 14.1514 22.5423 14.1514 22.969 14.1514C23.0156 15.8833 22.9683 17.59 22.8268 19.2714Z"
            fill="#C3E7F8" />
        <path fill-rule="evenodd" clip-rule="evenodd"
            d="M22.8266 19.2707C22.4948 19.2707 22.1629 19.2707 21.8311 19.2707C21.8311 17.6114 21.8311 15.9523 21.8311 14.293C22.1629 14.293 22.4948 14.293 22.8266 14.293C22.8266 15.9523 22.8266 17.6114 22.8266 19.2707Z"
            fill="#FDFEFC" />
        <path fill-rule="evenodd" clip-rule="evenodd"
            d="M5.61787 14.0092C6.64673 13.8482 7.47636 14.18 8.10676 15.0047C8.31291 16.412 8.38402 17.8342 8.32009 19.2714C7.94083 19.2714 7.56158 19.2714 7.18232 19.2714C7.21346 19.1043 7.16606 18.962 7.04009 18.8447C6.12061 19.5989 5.19617 19.5989 4.26676 18.8447C3.63673 17.4263 4.0871 16.5494 5.61787 16.2136C6.13721 16.1426 6.6587 16.119 7.18232 16.1425C7.24195 15.7407 7.09973 15.4327 6.75565 15.218C6.32898 15.1232 5.90231 15.1232 5.47565 15.218C5.25708 15.3759 5.16226 15.5892 5.1912 15.858C4.85936 15.858 4.5275 15.858 4.19565 15.858C4.23634 14.9158 4.71041 14.2994 5.61787 14.0092Z"
            fill="#F4FBFB" />
        <path fill-rule="evenodd" clip-rule="evenodd"
            d="M25.6711 16.9951C26.0029 16.9951 26.3349 16.9951 26.6667 16.9951C26.7203 18.1066 26.1988 18.557 25.1022 18.3462C24.6188 17.6095 24.8084 17.1591 25.6711 16.9951Z"
            fill="#198EEF" />
        <path fill-rule="evenodd" clip-rule="evenodd"
            d="M5.90212 16.9951C6.32878 16.9951 6.75545 16.9951 7.18212 16.9951C7.18486 18.1531 6.61597 18.6034 5.47545 18.3462C5.01543 17.6961 5.15766 17.2457 5.90212 16.9951Z"
            fill="#2391F0" />
    </g>
    <defs>
        <clipPath id="clip0_4007_488">
            <rect width="32" height="32" fill="white" />
        </clipPath>
    </defs>
</svg>