<svg width="32" height="32" viewBox="0 0 32 32" fill="none" xmlns="http://www.w3.org/2000/svg">
    <g clip-path="url(#clip0_4308_45)">
        <path fill-rule="evenodd" clip-rule="evenodd"
            d="M-0.0800781 -0.0800781C10.5866 -0.0800781 21.2532 -0.0800781 31.9199 -0.0800781C31.9199 10.5866 31.9199 21.2532 31.9199 31.9199C21.2532 31.9199 10.5866 31.9199 -0.0800781 31.9199C-0.0800781 21.2532 -0.0800781 10.5866 -0.0800781 -0.0800781Z"
            fill="#FEFEFE" />
        <path fill-rule="evenodd" clip-rule="evenodd"
            d="M15.44 7.27952C17.7339 7.25287 20.0274 7.27954 22.32 7.35952C23.52 7.7062 24.2933 8.47952 24.64 9.67952C24.7467 14.3195 24.7467 18.9595 24.64 23.5995C24.5067 23.7328 24.3733 23.8662 24.24 23.9995C23.0667 24.1062 21.8933 24.1062 20.72 23.9995C19.3974 23.5837 18.5709 22.7037 18.24 21.3595C18.1867 18.4262 18.1333 15.4929 18.08 12.5595C17.2179 14.9324 16.4179 17.3323 15.68 19.7595C13.6948 24.0483 10.4948 25.3283 6.08 23.5995C5.97333 23.3862 5.97333 23.1728 6.08 22.9595C7.6049 22.0734 8.67157 20.7934 9.28 19.1195C10.2096 16.1438 11.2496 13.2105 12.4 10.3195C13.1573 9.02884 14.1707 8.01551 15.44 7.27952Z"
            fill="#201CF3" />
        <path fill-rule="evenodd" clip-rule="evenodd"
            d="M15.7602 8.56074C16.7749 8.53415 17.7882 8.56082 18.8002 8.64074C18.1242 9.38906 17.5642 10.2157 17.1202 11.1207C16.0535 14.2141 14.9869 17.3075 13.9202 20.4007C13.3953 21.3187 12.6753 22.0387 11.7602 22.5607C10.7469 22.6675 9.73354 22.6675 8.72021 22.5607C9.51593 21.6897 10.1293 20.703 10.5602 19.6007C11.4478 16.6177 12.4612 13.6844 13.6002 10.8007C14.1376 9.86359 14.8576 9.11691 15.7602 8.56074Z"
            fill="#FAFBFB" />
        <path fill-rule="evenodd" clip-rule="evenodd"
            d="M20.8801 8.55975C22.1985 8.36171 23.0253 8.89506 23.3601 10.1597C23.4401 14.3194 23.4669 18.4794 23.4401 22.6397C22.532 22.6663 21.6253 22.6396 20.7201 22.5597C20.2669 22.3197 19.9201 21.973 19.6801 21.5197C19.5734 17.573 19.5734 13.6264 19.6801 9.67975C20.0635 9.26909 20.4635 8.89575 20.8801 8.55975Z"
            fill="#F9F9FC" />
    </g>
    <defs>
        <clipPath id="clip0_4308_45">
            <rect width="32" height="32" fill="white" />
        </clipPath>
    </defs>
</svg>