<svg width="32" height="32" viewBox="0 0 32 33" fill="none" xmlns="http://www.w3.org/2000/svg">
    <path opacity="0.999" fill-rule="evenodd" clip-rule="evenodd"
        d="M30.4505 0.534333C30.523 0.534333 30.5956 0.534333 30.668 0.534333C30.9084 0.781208 31.1983 0.930746 31.538 0.982993C31.538 1.13255 31.538 1.28209 31.538 1.43165C31.0086 1.05983 30.4649 0.910265 29.9068 0.982993C29.4702 1.61924 28.9989 2.21746 28.493 2.77763C28.6072 2.93296 28.7523 3.04512 28.928 3.11413C28.4817 3.32273 28.1554 3.65923 27.9492 4.12361C27.8042 3.97405 27.6593 3.82451 27.5142 3.67495C27.2502 4.02239 26.9239 4.28412 26.5355 4.46011C26.8802 4.47913 27.1701 4.5165 27.4055 4.57227C27.0527 5.00716 26.6538 5.08195 26.2092 4.7966C26.0385 5.19726 25.7848 5.53375 25.4479 5.80609C25.593 5.88086 25.7379 5.95565 25.8829 6.03042C25.471 6.27254 25.3986 6.57163 25.6654 6.92774C25.4592 7.03604 25.2417 7.07344 25.0129 7.0399C25.0453 6.80391 25.0092 6.57958 24.9042 6.36691C24.3265 6.99993 23.7103 7.59815 23.0554 8.16155C23.2198 8.59913 23.2922 9.01039 23.2729 9.39537C22.9112 9.45479 22.5849 9.34263 22.2941 9.05887C21.9983 9.41901 21.6721 9.75541 21.3154 10.0684C21.8437 10.1695 21.88 10.3566 21.4241 10.6292C21.3341 10.5267 21.2253 10.4517 21.0979 10.4049C20.3366 11.2275 19.5753 12.0499 18.8141 12.8725C18.7416 12.7978 18.669 12.7229 18.5966 12.6481C18.4771 13.5697 18.296 14.3923 18.0528 15.1158C15.953 15.3394 15.083 16.5358 15.4427 18.7051C15.4427 21.098 15.4427 23.4907 15.4427 25.8836C15.2605 25.8069 15.1878 25.6575 15.2252 25.435C15.2613 23.7881 15.2252 22.1431 15.1165 20.4997C14.8698 21.1274 14.4709 21.6133 13.9202 21.9578C14.1684 22.1241 14.1684 22.3112 13.9202 22.5187C13.5841 22.7322 13.2216 22.8069 12.8327 22.743C12.8843 22.4534 12.8118 22.2291 12.6152 22.07C11.9728 20.6552 10.8852 20.1318 9.35264 20.4997C9.25733 20.5143 9.18481 20.477 9.13513 20.3875C14.4859 14.9058 19.8511 9.33489 25.2304 3.67495C25.2304 3.45062 25.2304 3.22629 25.2304 3.00196C25.8829 3.22629 26.1004 3.00196 25.8829 2.32897C26.0996 2.30972 26.2808 2.38452 26.4267 2.5533C26.5318 2.34064 26.5679 2.11631 26.5355 1.88031C26.8158 2.10484 27.1057 2.06745 27.4055 1.76815C27.2845 1.68232 27.2121 1.57015 27.188 1.43165C27.4046 1.41241 27.5858 1.4872 27.7317 1.65598C28.4151 0.757765 29.3215 0.383875 30.4505 0.534333Z"
        fill="#9290F3" />
    <path fill-rule="evenodd" clip-rule="evenodd"
        d="M31.5381 1.43184C31.9085 1.17157 32.0534 1.32113 31.9731 1.8805C31.9731 4.94635 31.9731 8.01218 31.9731 11.078C31.7928 9.24826 31.684 7.37885 31.6469 5.46978C31.1999 6.45542 30.5113 7.24057 29.5806 7.82524C29.653 7.90001 29.7256 7.9748 29.7981 8.04957C29.1721 8.7401 28.3747 9.41309 27.4055 10.0685C27.6631 10.3254 27.6631 10.5872 27.4055 10.8537C26.0161 8.87024 24.5299 8.79547 22.9467 10.6294C22.8384 11.3735 22.8021 12.1212 22.8379 12.8727C22.8379 17.1349 22.8379 21.3972 22.8379 25.6595C22.6222 23.981 22.5498 22.2613 22.6204 20.4999C22.6568 17.8817 22.6204 15.2645 22.5117 12.6483C22.2663 13.0622 22.1576 13.5109 22.1854 13.9943C21.2073 14.3185 20.4099 15.0664 19.7929 16.2376C19.3298 15.688 18.7497 15.314 18.0529 15.116C18.296 14.3925 18.4772 13.5699 18.5966 12.6483C18.669 12.723 18.7417 12.798 18.8141 12.8727C19.5754 12.05 20.3366 11.2277 21.0979 10.405C21.2254 10.4519 21.3341 10.5268 21.4242 10.6294C21.8801 10.3568 21.8437 10.1697 21.3154 10.0685C21.6721 9.7556 21.9984 9.4192 22.2942 9.05906C22.585 9.34281 22.9112 9.45498 23.273 9.39555C23.2923 9.01058 23.2199 8.59932 23.0554 8.16174C23.7104 7.59833 24.3265 7.00011 24.9042 6.3671C25.0093 6.57976 25.0454 6.80409 25.013 7.04009C25.2418 7.07362 25.4593 7.03623 25.6655 6.92792C25.3986 6.57182 25.471 6.27272 25.883 6.0306C25.7379 5.95583 25.5931 5.88104 25.448 5.80627C25.7849 5.53394 26.0385 5.19744 26.2093 4.79679C26.6538 5.08214 27.0527 5.00734 27.4055 4.57246C27.1702 4.51669 26.8803 4.47932 26.5355 4.46029C26.924 4.28431 27.2502 4.02258 27.5143 3.67514C27.6594 3.8247 27.8042 3.97424 27.9493 4.1238C28.1555 3.65941 28.4817 3.32292 28.9281 3.11431C28.7523 3.04531 28.6072 2.93314 28.493 2.77782C28.999 2.21764 29.4703 1.61942 29.9068 0.983178C30.4649 0.910451 31.0087 1.06001 31.5381 1.43184Z"
        fill="#9A8EF4" />
    <path fill-rule="evenodd" clip-rule="evenodd"
        d="M1.74003 0.534259C1.81253 0.534259 1.88504 0.534259 1.95754 0.534259C2.39254 0.534259 2.82755 0.534259 3.26256 0.534259C3.40757 0.534259 3.48006 0.609028 3.48006 0.758589C3.48006 0.90815 3.55256 0.982919 3.69757 0.982919C3.89345 1.48252 4.25594 1.70685 4.78509 1.65591C4.78509 1.80547 4.85758 1.88024 5.00259 1.88024C5.00259 1.95501 5.00259 2.0298 5.00259 2.10457C3.699 3.733 2.21273 5.37808 0.54376 7.03983C0.506458 5.42943 0.397706 3.85912 0.217504 2.3289C0.14501 2.3289 0.0724941 2.3289 0 2.3289C0.174155 1.98303 0.24665 1.60914 0.217504 1.20725C0.582671 1.11924 0.945164 1.00708 1.30502 0.870754C1.16001 0.795985 1.01503 0.721193 0.870016 0.646424C1.15129 0.536503 1.44131 0.499107 1.74003 0.534259Z"
        fill="#4BBBF7" />
    <path fill-rule="evenodd" clip-rule="evenodd"
        d="M6.74262 3.45068C6.92689 3.9766 7.28941 4.31309 7.83014 4.46017C5.33111 6.70118 3.01108 9.13141 0.870016 11.7509C0.670608 11.8915 0.453104 11.9665 0.217504 11.9752C0.217504 11.9005 0.217504 11.8256 0.217504 11.7509C0.217504 11.6013 0.217504 11.4519 0.217504 11.3022C0.217504 11.1526 0.217504 11.0032 0.217504 10.8536C0.279384 10.424 0.206868 10.0502 0 9.73192C0.270053 9.25831 0.270053 8.80965 0 8.38594C0.244692 8.12747 0.244692 7.90314 0 7.71295C0.144988 6.66282 0.144988 5.7655 0 5.02099C0.177135 4.31628 0.249629 3.56852 0.217504 2.77769C0.217504 2.70292 0.217504 2.62813 0.217504 2.55336C0.217504 2.47859 0.217504 2.4038 0.217504 2.32903C0.397706 3.85925 0.506458 5.42956 0.54376 7.03996C2.21273 5.37821 3.699 3.73313 5.00259 2.1047C5.2192 2.08545 5.40045 2.16025 5.54635 2.32903C5.61885 2.17947 5.69136 2.02993 5.76386 1.88037C5.85123 2.18817 5.95998 2.48727 6.09011 2.77769C6.25844 3.0494 6.43968 3.0494 6.63387 2.77769C6.73888 2.99036 6.77514 3.21469 6.74262 3.45068Z"
        fill="#58B2F6" />
    <path opacity="0.01" fill-rule="evenodd" clip-rule="evenodd"
        d="M10.6578 4.79688C11.0573 4.82817 11.1298 4.97771 10.8753 5.24553C10.7018 5.14304 10.6293 4.99348 10.6578 4.79688Z"
        fill="black" />
    <path opacity="0.01" fill-rule="evenodd" clip-rule="evenodd"
        d="M12.1802 5.02087C12.3056 4.73523 12.4506 4.73523 12.6152 5.02087C12.513 5.2369 12.368 5.2369 12.1802 5.02087Z"
        fill="black" />
    <path opacity="0.01" fill-rule="evenodd" clip-rule="evenodd"
        d="M12.8328 4.79688C13.0557 4.88584 13.092 5.03538 12.9415 5.24553C12.8405 5.11219 12.8043 4.96263 12.8328 4.79688Z"
        fill="black" />
    <path opacity="0.01" fill-rule="evenodd" clip-rule="evenodd"
        d="M13.7028 5.02088C13.789 4.79095 13.934 4.75355 14.1378 4.90872C14.0086 5.01288 13.8635 5.05027 13.7028 5.02088Z"
        fill="black" />
    <path opacity="0.01" fill-rule="evenodd" clip-rule="evenodd"
        d="M17.8353 4.79688C18.4089 5.16787 18.3362 5.28004 17.6178 5.13337C17.7387 5.04754 17.8112 4.93538 17.8353 4.79688Z"
        fill="black" />
    <path opacity="0.01" fill-rule="evenodd" clip-rule="evenodd"
        d="M18.4878 5.02087C18.6133 4.73523 18.7582 4.73523 18.9228 5.02087C18.8206 5.2369 18.6755 5.2369 18.4878 5.02087Z"
        fill="black" />
    <path opacity="0.01" fill-rule="evenodd" clip-rule="evenodd"
        d="M19.1404 5.02088C19.2267 4.79095 19.3716 4.75355 19.5754 4.90872C19.4462 5.01288 19.3011 5.05027 19.1404 5.02088Z"
        fill="black" />
    <path opacity="0.01" fill-rule="evenodd" clip-rule="evenodd"
        d="M20.4454 5.02088C20.2846 5.05027 20.1396 5.01288 20.0104 4.90872C20.2142 4.75355 20.359 4.79095 20.4454 5.02088Z"
        fill="black" />
    <path opacity="0.01" fill-rule="evenodd" clip-rule="evenodd"
        d="M20.4454 5.02091C20.6331 4.80488 20.7782 4.80488 20.8804 5.02091C20.7158 5.30655 20.5709 5.30655 20.4454 5.02091Z"
        fill="black" />
    <path opacity="0.01" fill-rule="evenodd" clip-rule="evenodd"
        d="M9.78772 5.021C10.0777 5.17056 10.0777 5.17056 9.78772 5.021Z" fill="black" />
    <path opacity="0.01" fill-rule="evenodd" clip-rule="evenodd"
        d="M10.2227 5.021C10.5127 5.17056 10.5127 5.17056 10.2227 5.021Z" fill="black" />
    <path opacity="0.01" fill-rule="evenodd" clip-rule="evenodd"
        d="M13.7028 5.021C13.5577 5.17056 13.5577 5.17056 13.7028 5.021Z" fill="black" />
    <path opacity="0.01" fill-rule="evenodd" clip-rule="evenodd"
        d="M15.6603 5.02117C15.497 5.26199 15.2795 5.29936 15.0078 5.13333C15.214 5.02503 15.4315 4.98763 15.6603 5.02117Z"
        fill="black" />
    <path opacity="0.01" fill-rule="evenodd" clip-rule="evenodd"
        d="M16.0953 5.021C16.3853 5.17056 16.3853 5.17056 16.0953 5.021Z" fill="black" />
    <path opacity="0.01" fill-rule="evenodd" clip-rule="evenodd"
        d="M21.3154 5.021C21.6054 5.17056 21.6054 5.17056 21.3154 5.021Z" fill="black" />
    <path opacity="0.01" fill-rule="evenodd" clip-rule="evenodd"
        d="M22.1854 5.021C22.4754 5.17056 22.4754 5.17056 22.1854 5.021Z" fill="black" />
    <path opacity="0.999" fill-rule="evenodd" clip-rule="evenodd"
        d="M6.74262 3.45068C6.81512 3.45068 6.88763 3.45068 6.96013 3.45068C7.03262 3.45068 7.10514 3.45068 7.17763 3.45068C8.06781 4.44433 9.08284 5.26686 10.2227 5.91831C10.3981 6.19381 10.6156 6.41814 10.8752 6.5913C10.464 6.63695 10.1378 6.48739 9.89643 6.14264C8.26944 7.93486 6.56566 9.57996 4.78509 11.0779C4.52689 11.6174 4.20063 12.141 3.80632 12.6482C2.72726 13.4962 1.676 14.5431 0.652512 15.7888C0.506828 16.1906 0.361818 16.5646 0.217504 16.9105C0.217504 16.7609 0.217504 16.6114 0.217504 16.4618C0.14501 16.3122 0.0724941 16.1628 0 16.0132C0.00376282 15.593 0.0762569 15.1443 0.217504 14.6672C0.217504 14.5176 0.217504 14.3681 0.217504 14.2185C0.217504 14.1438 0.217504 14.0689 0.217504 13.9942C0.217504 13.8446 0.217504 13.6952 0.217504 13.5455C0.254828 13.323 0.182312 13.1736 0 13.0969C0.174155 12.751 0.24665 12.3772 0.217504 11.9752C0.453104 11.9665 0.670608 11.8915 0.870016 11.7509C3.01108 9.13141 5.33111 6.70118 7.83014 4.46017C7.28941 4.3131 6.92689 3.9766 6.74262 3.45068Z"
        fill="#67ABF6" />
    <path opacity="0.01" fill-rule="evenodd" clip-rule="evenodd"
        d="M10.2227 5.91839C10.1942 5.75263 10.2304 5.60307 10.3314 5.46973C10.4819 5.67988 10.4456 5.82942 10.2227 5.91839Z"
        fill="black" />
    <path opacity="0.01" fill-rule="evenodd" clip-rule="evenodd"
        d="M11.3102 5.69372C11.4356 5.40808 11.5806 5.40808 11.7452 5.69372C11.643 5.90975 11.498 5.90975 11.3102 5.69372Z"
        fill="black" />
    <path opacity="0.01" fill-rule="evenodd" clip-rule="evenodd"
        d="M11.9628 5.69374C12.049 5.4638 12.194 5.4264 12.3978 5.58157C12.2685 5.68573 12.1235 5.72312 11.9628 5.69374Z"
        fill="black" />
    <path opacity="0.01" fill-rule="evenodd" clip-rule="evenodd"
        d="M13.7027 5.69374C13.542 5.72312 13.397 5.68573 13.2677 5.58157C13.4715 5.4264 13.6164 5.4638 13.7027 5.69374Z"
        fill="black" />
    <path opacity="0.01" fill-rule="evenodd" clip-rule="evenodd"
        d="M13.9203 5.46973C14.2102 5.61929 14.2102 5.61929 13.9203 5.46973Z" fill="black" />
    <path opacity="0.01" fill-rule="evenodd" clip-rule="evenodd"
        d="M14.5728 5.69374C14.6591 5.4638 14.804 5.4264 15.0078 5.58157C14.8786 5.68573 14.7335 5.72312 14.5728 5.69374Z"
        fill="black" />
    <path opacity="0.01" fill-rule="evenodd" clip-rule="evenodd"
        d="M15.2252 5.46973C15.5152 5.61929 15.5152 5.61929 15.2252 5.46973Z" fill="black" />
    <path opacity="0.01" fill-rule="evenodd" clip-rule="evenodd"
        d="M15.6603 5.69378C15.8236 5.45296 16.0411 5.41559 16.3128 5.58162C16.1066 5.68992 15.8891 5.72732 15.6603 5.69378Z"
        fill="black" />
    <path opacity="0.01" fill-rule="evenodd" clip-rule="evenodd"
        d="M16.5303 5.46973C17.0742 5.47217 17.1106 5.62173 16.639 5.91839C16.5381 5.78504 16.5018 5.63548 16.5303 5.46973Z"
        fill="black" />
    <path opacity="0.01" fill-rule="evenodd" clip-rule="evenodd"
        d="M17.1829 5.46973C17.4728 5.61929 17.4728 5.61929 17.1829 5.46973Z" fill="black" />
    <path opacity="0.01" fill-rule="evenodd" clip-rule="evenodd"
        d="M17.8353 5.69386C18.1498 5.4442 18.5124 5.40681 18.9228 5.58169C18.5674 5.6924 18.2049 5.7298 17.8353 5.69386Z"
        fill="black" />
    <path opacity="0.01" fill-rule="evenodd" clip-rule="evenodd"
        d="M19.1404 5.46973C19.4303 5.61929 19.4303 5.61929 19.1404 5.46973Z" fill="black" />
    <path opacity="0.01" fill-rule="evenodd" clip-rule="evenodd"
        d="M20.2279 5.69374C20.3143 5.4638 20.4591 5.4264 20.6629 5.58157C20.5337 5.68573 20.3886 5.72312 20.2279 5.69374Z"
        fill="black" />
    <path opacity="0.01" fill-rule="evenodd" clip-rule="evenodd"
        d="M21.0979 5.46973C21.3878 5.61929 21.3878 5.61929 21.0979 5.46973Z" fill="black" />
    <path opacity="0.01" fill-rule="evenodd" clip-rule="evenodd"
        d="M10.6577 5.69385C10.9477 5.84341 10.9477 5.84341 10.6577 5.69385Z" fill="black" />
    <path opacity="0.01" fill-rule="evenodd" clip-rule="evenodd"
        d="M11.3102 5.69385C11.1652 5.84341 11.1652 5.84341 11.3102 5.69385Z" fill="black" />
    <path opacity="0.01" fill-rule="evenodd" clip-rule="evenodd"
        d="M13.7028 5.69385C13.7753 5.69385 13.8478 5.69385 13.9203 5.69385C13.88 5.84417 13.8074 5.84417 13.7028 5.69385Z"
        fill="black" />
    <path opacity="0.01" fill-rule="evenodd" clip-rule="evenodd"
        d="M21.7504 5.91817C21.6053 5.61907 21.6053 5.61907 21.7504 5.91817Z" fill="black" />
    <path opacity="0.995" fill-rule="evenodd" clip-rule="evenodd"
        d="M25.2305 3.67501C19.8512 9.33495 14.486 14.9059 9.13517 20.3876C9.18485 20.4771 9.25736 20.5143 9.35267 20.4998C8.84517 20.8737 8.41016 21.3224 8.04765 21.8457C8.06187 21.7475 8.02564 21.6726 7.9389 21.6214C7.61264 22.1075 7.21389 22.5187 6.74262 22.8552C6.92537 23.229 6.81662 23.2664 6.41637 22.9674C5.03446 24.7663 3.51193 26.4113 1.84878 27.9026C1.07686 28.5886 0.895616 29.3366 1.30502 30.1459C1.10422 30.3261 0.88672 30.3635 0.652512 30.2581C0.818185 29.6625 0.600681 29.2139 0 28.9121C0.19708 28.531 0.269574 28.1196 0.217504 27.6783C0.217504 27.6036 0.217504 27.5287 0.217504 27.454C0.362514 27.454 0.435008 27.3793 0.435008 27.2297C0.591959 27.1359 0.700711 26.9865 0.761264 26.781C0.833758 26.8557 0.906274 26.9306 0.978768 27.0053C1.66195 25.7776 2.56822 24.7681 3.69757 23.9769C3.62507 23.9022 3.55256 23.8272 3.48006 23.7525C4.14954 23.1352 4.87455 22.6116 5.6551 22.1822C5.58261 22.1075 5.51009 22.0326 5.4376 21.9579C7.37108 20.063 9.2561 18.1187 11.0927 16.1253C11.2989 16.017 11.5164 15.9797 11.7452 16.0132C11.9224 15.1923 12.3937 14.594 13.159 14.2185C13.1952 13.583 13.5215 13.2465 14.1378 13.209C14.0653 13.1343 13.9927 13.0594 13.9203 12.9847C14.6091 12.5735 15.1529 12.0127 15.5515 11.3022C15.624 11.3769 15.6966 11.4519 15.769 11.5266C15.8778 11.2648 16.059 11.0779 16.3128 10.9657C16.0953 10.891 15.8778 10.8161 15.6603 10.7414C16.0988 10.6972 16.5338 10.4729 16.9653 10.0684C17.3053 9.89815 17.5228 9.63636 17.6178 9.28326C18.1996 8.86996 18.671 8.34653 19.0316 7.71295C19.104 7.78772 19.1767 7.86251 19.2491 7.93728C19.7257 7.63816 20.1243 7.26429 20.4454 6.81563C20.9635 6.6248 21.3985 6.3257 21.7504 5.91831C22.9401 5.28584 23.9916 4.46329 24.9042 3.45068C24.9875 3.57541 25.0963 3.65018 25.2305 3.67501Z"
        fill="#8D95F4" />
    <path opacity="0.01" fill-rule="evenodd" clip-rule="evenodd"
        d="M12.3977 6.14278C12.2527 5.84368 12.2527 5.84368 12.3977 6.14278Z" fill="black" />
    <path opacity="0.01" fill-rule="evenodd" clip-rule="evenodd"
        d="M17.6178 6.14278C17.4728 5.84368 17.4728 5.84368 17.6178 6.14278Z" fill="black" />
    <path opacity="0.01" fill-rule="evenodd" clip-rule="evenodd"
        d="M20.8804 5.91846C21.1703 6.06802 21.1703 6.06802 20.8804 5.91846Z" fill="black" />
    <path opacity="0.01" fill-rule="evenodd" clip-rule="evenodd"
        d="M11.0927 6.36708C11.1789 6.13714 11.3239 6.09974 11.5277 6.25491C11.3984 6.35907 11.2534 6.39646 11.0927 6.36708Z"
        fill="black" />
    <path opacity="0.01" fill-rule="evenodd" clip-rule="evenodd"
        d="M12.3977 6.14258C12.7729 6.21941 12.8817 6.44374 12.724 6.81557C12.6123 6.58527 12.5036 6.36094 12.3977 6.14258Z"
        fill="black" />
    <path opacity="0.01" fill-rule="evenodd" clip-rule="evenodd"
        d="M13.2677 6.14258C13.5577 6.29214 13.5577 6.29214 13.2677 6.14258Z" fill="black" />
    <path opacity="0.01" fill-rule="evenodd" clip-rule="evenodd"
        d="M13.9203 6.14258C14.2102 6.29214 14.2102 6.29214 13.9203 6.14258Z" fill="black" />
    <path opacity="0.01" fill-rule="evenodd" clip-rule="evenodd"
        d="M15.0078 6.14258C15.2977 6.29214 15.2977 6.29214 15.0078 6.14258Z" fill="black" />
    <path opacity="0.01" fill-rule="evenodd" clip-rule="evenodd"
        d="M16.5303 6.14258C16.8202 6.29214 16.8202 6.29214 16.5303 6.14258Z" fill="black" />
    <path opacity="0.01" fill-rule="evenodd" clip-rule="evenodd"
        d="M17.6178 6.14258C17.9077 6.29214 17.9077 6.29214 17.6178 6.14258Z" fill="black" />
    <path opacity="0.01" fill-rule="evenodd" clip-rule="evenodd"
        d="M18.4878 6.14258C18.7777 6.29214 18.7777 6.29214 18.4878 6.14258Z" fill="black" />
    <path opacity="0.01" fill-rule="evenodd" clip-rule="evenodd"
        d="M19.3578 6.3669C19.2128 6.0678 19.2128 6.0678 19.3578 6.3669Z" fill="black" />
    <path opacity="0.01" fill-rule="evenodd" clip-rule="evenodd"
        d="M20.2279 6.14258C20.5178 6.29214 20.5178 6.29214 20.2279 6.14258Z" fill="black" />
    <path fill-rule="evenodd" clip-rule="evenodd"
        d="M10.8752 6.59124C10.9077 6.82723 10.8715 7.05156 10.7665 7.26423C7.92063 10.4143 5.05682 13.4055 2.17507 16.2374C1.77092 16.6915 1.40841 17.1776 1.08755 17.6956C0.853337 17.801 0.635833 17.7635 0.435033 17.5834C0.435033 17.4338 0.362539 17.3591 0.217529 17.3591C0.217529 17.2844 0.217529 17.2094 0.217529 17.1347C0.217529 17.06 0.217529 16.9851 0.217529 16.9104C0.361843 16.5645 0.506853 16.1905 0.652537 15.7888C1.67602 14.5431 2.72729 13.4961 3.80635 12.6481C4.20066 12.1409 4.52691 11.6174 4.78511 11.0778C6.56569 9.5799 8.26946 7.93479 9.89646 6.14258C10.1378 6.48733 10.4641 6.63689 10.8752 6.59124Z"
        fill="#6EA6F8" />
    <path opacity="0.01" fill-rule="evenodd" clip-rule="evenodd"
        d="M13.9202 6.36719C13.9202 6.44196 13.9202 6.51675 13.9202 6.59152C13.7745 6.48355 13.7745 6.40876 13.9202 6.36719Z"
        fill="black" />
    <path opacity="0.01" fill-rule="evenodd" clip-rule="evenodd"
        d="M19.3579 6.36719C19.6478 6.51675 19.6478 6.51675 19.3579 6.36719Z" fill="black" />
    <path opacity="0.01" fill-rule="evenodd" clip-rule="evenodd"
        d="M13.9203 6.59131C14.2102 6.74087 14.2102 6.74087 13.9203 6.59131Z" fill="black" />
    <path opacity="0.01" fill-rule="evenodd" clip-rule="evenodd"
        d="M15.0078 6.59131C15.2977 6.74087 15.2977 6.74087 15.0078 6.59131Z" fill="black" />
    <path opacity="0.01" fill-rule="evenodd" clip-rule="evenodd"
        d="M15.4427 6.59131C15.7327 6.74087 15.7327 6.74087 15.4427 6.59131Z" fill="black" />
    <path opacity="0.01" fill-rule="evenodd" clip-rule="evenodd"
        d="M16.3127 6.59131C16.6027 6.74087 16.6027 6.74087 16.3127 6.59131Z" fill="black" />
    <path opacity="0.01" fill-rule="evenodd" clip-rule="evenodd"
        d="M18.2704 6.59131C18.5603 6.74087 18.5603 6.74087 18.2704 6.59131Z" fill="black" />
    <path opacity="0.01" fill-rule="evenodd" clip-rule="evenodd"
        d="M19.3578 6.59131C19.2128 6.74087 19.2128 6.74087 19.3578 6.59131Z" fill="black" />
    <path opacity="0.01" fill-rule="evenodd" clip-rule="evenodd"
        d="M20.4454 6.81581C20.2846 6.84519 20.1396 6.8078 20.0104 6.70364C20.2142 6.54847 20.359 6.58587 20.4454 6.81581Z"
        fill="black" />
    <path opacity="0.01" fill-rule="evenodd" clip-rule="evenodd"
        d="M15.0077 6.81543C14.8627 6.96499 14.8627 6.96499 15.0077 6.81543Z" fill="black" />
    <path opacity="0.01" fill-rule="evenodd" clip-rule="evenodd"
        d="M15.8778 6.81543C16.1677 6.96499 16.1677 6.96499 15.8778 6.81543Z" fill="black" />
    <path opacity="0.01" fill-rule="evenodd" clip-rule="evenodd"
        d="M17.4003 6.81543C17.6902 6.96499 17.6902 6.96499 17.4003 6.81543Z" fill="black" />
    <path opacity="0.01" fill-rule="evenodd" clip-rule="evenodd"
        d="M19.1403 6.81543C18.9952 6.96499 18.9952 6.96499 19.1403 6.81543Z" fill="black" />
    <path opacity="0.01" fill-rule="evenodd" clip-rule="evenodd"
        d="M13.0503 7.48877C13.3403 7.63833 13.3403 7.63833 13.0503 7.48877Z" fill="black" />
    <path opacity="0.01" fill-rule="evenodd" clip-rule="evenodd"
        d="M13.9203 7.48877C14.2102 7.63833 14.2102 7.63833 13.9203 7.48877Z" fill="black" />
    <path opacity="0.01" fill-rule="evenodd" clip-rule="evenodd"
        d="M14.7903 7.48877C15.0802 7.63833 15.0802 7.63833 14.7903 7.48877Z" fill="black" />
    <path opacity="0.01" fill-rule="evenodd" clip-rule="evenodd"
        d="M16.5303 7.48877C16.8202 7.63833 16.8202 7.63833 16.5303 7.48877Z" fill="black" />
    <path opacity="0.01" fill-rule="evenodd" clip-rule="evenodd"
        d="M17.4003 7.48877C17.6902 7.63833 17.6902 7.63833 17.4003 7.48877Z" fill="black" />
    <path opacity="0.01" fill-rule="evenodd" clip-rule="evenodd"
        d="M18.2704 7.48877C18.5603 7.63833 18.5603 7.63833 18.2704 7.48877Z" fill="black" />
    <path opacity="0.01" fill-rule="evenodd" clip-rule="evenodd"
        d="M13.0503 7.71289C12.9053 7.86245 12.9053 7.86245 13.0503 7.71289Z" fill="black" />
    <path opacity="0.01" fill-rule="evenodd" clip-rule="evenodd"
        d="M13.9203 7.71289C13.7753 7.86245 13.7753 7.86245 13.9203 7.71289Z" fill="black" />
    <path opacity="0.01" fill-rule="evenodd" clip-rule="evenodd"
        d="M14.7903 7.71289C14.6452 7.86245 14.6452 7.86245 14.7903 7.71289Z" fill="black" />
    <path opacity="0.01" fill-rule="evenodd" clip-rule="evenodd"
        d="M15.4427 7.71289C15.7327 7.86245 15.7327 7.86245 15.4427 7.71289Z" fill="black" />
    <path opacity="0.01" fill-rule="evenodd" clip-rule="evenodd"
        d="M16.5303 7.71289C16.3852 7.86245 16.3852 7.86245 16.5303 7.71289Z" fill="black" />
    <path opacity="0.01" fill-rule="evenodd" clip-rule="evenodd"
        d="M17.4003 7.71289C17.2552 7.86245 17.2552 7.86245 17.4003 7.71289Z" fill="black" />
    <path opacity="0.01" fill-rule="evenodd" clip-rule="evenodd"
        d="M18.2703 7.71289C18.1252 7.86245 18.1252 7.86245 18.2703 7.71289Z" fill="black" />
    <path fill-rule="evenodd" clip-rule="evenodd"
        d="M10.8753 6.59131C11.5278 7.03997 12.1803 7.48863 12.8328 7.93729C13.5122 8.25469 14.0924 8.70335 14.5728 9.28327C14.2248 9.51029 13.9347 9.39812 13.7028 8.94677C13.4128 8.79721 13.1228 8.79721 12.8328 8.94677C10.7547 11.2396 8.61595 13.4455 6.41642 15.5645C6.12642 16.0132 5.8364 16.4618 5.5464 16.9105C3.80541 18.5194 2.10164 20.1644 0.435059 21.8457C0.435059 20.4251 0.435059 19.0042 0.435059 17.5835C0.635858 17.7636 0.853362 17.8011 1.08757 17.6956C1.40843 17.1777 1.77095 16.6915 2.17509 16.2375C5.05684 13.4056 7.92065 10.4143 10.7665 7.2643C10.8715 7.05163 10.9078 6.8273 10.8753 6.59131Z"
        fill="#77A1F6" />
    <path opacity="0.01" fill-rule="evenodd" clip-rule="evenodd"
        d="M16.5303 8.16162C16.8202 8.31118 16.8202 8.31118 16.5303 8.16162Z" fill="black" />
    <path fill-rule="evenodd" clip-rule="evenodd"
        d="M31.9731 11.078C32.0451 16.7995 31.9727 22.4827 31.7556 28.127C31.7919 23.5651 31.7556 19.0038 31.6468 14.4429C31.5799 14.2617 31.4711 14.112 31.3206 13.9943C31.0522 14.6233 30.6172 15.1094 30.0156 15.4524C30.1804 15.7584 30.0717 16.0202 29.6893 16.2376C29.6169 16.1629 29.5442 16.0879 29.4718 16.0132C29.2817 16.845 28.8106 17.4433 28.058 17.8079C27.8782 16.9198 27.7694 16.0224 27.7318 15.1159C27.695 18.7438 27.5863 22.3331 27.4055 25.8838C27.4055 21.5468 27.4055 17.2096 27.4055 12.8726C27.4055 12.1996 27.4055 11.5266 27.4055 10.8536C27.663 10.5871 27.663 10.3253 27.4055 10.0685C28.3747 9.41304 29.1721 8.74005 29.7981 8.04952C29.7256 7.97475 29.653 7.89996 29.5806 7.82519C30.5113 7.24052 31.1999 6.45537 31.6468 5.46973C31.684 7.3788 31.7928 9.24821 31.9731 11.078Z"
        fill="#A888F3" />
    <path opacity="0.01" fill-rule="evenodd" clip-rule="evenodd"
        d="M15.0078 8.61029C15.1712 8.36947 15.3887 8.33209 15.6603 8.49812C15.4541 8.60643 15.2366 8.64382 15.0078 8.61029Z"
        fill="black" />
    <path opacity="0.01" fill-rule="evenodd" clip-rule="evenodd"
        d="M16.5303 8.38592C16.367 8.62673 16.1495 8.66411 15.8778 8.49808C16.084 8.38977 16.3015 8.35238 16.5303 8.38592Z"
        fill="black" />
    <path opacity="0.01" fill-rule="evenodd" clip-rule="evenodd"
        d="M15.0077 8.61035C15.0077 8.75991 15.0077 8.90945 15.0077 9.05901C14.7178 8.90945 14.7178 8.75991 15.0077 8.61035Z"
        fill="black" />
    <path opacity="0.01" fill-rule="evenodd" clip-rule="evenodd"
        d="M15.6603 8.83447C15.9502 8.98403 15.9502 8.98403 15.6603 8.83447Z" fill="black" />
    <path opacity="0.01" fill-rule="evenodd" clip-rule="evenodd"
        d="M16.7478 9.0588C16.6028 8.7597 16.6028 8.7597 16.7478 9.0588Z" fill="black" />
    <path opacity="0.01" fill-rule="evenodd" clip-rule="evenodd"
        d="M15.0078 9.05908C15.2977 9.20864 15.2977 9.20864 15.0078 9.05908Z" fill="black" />
    <path opacity="0.01" fill-rule="evenodd" clip-rule="evenodd"
        d="M15.6603 9.05908C15.5152 9.20864 15.5152 9.20864 15.6603 9.05908Z" fill="black" />
    <path opacity="0.01" fill-rule="evenodd" clip-rule="evenodd"
        d="M16.5303 9.05902C16.444 9.28895 16.2991 9.32635 16.0953 9.17118C16.2245 9.06702 16.3696 9.02963 16.5303 9.05902Z"
        fill="black" />
    <path opacity="0.01" fill-rule="evenodd" clip-rule="evenodd"
        d="M16.7478 9.05902C16.9085 9.02963 17.0536 9.06702 17.1828 9.17118C16.979 9.32635 16.8342 9.28895 16.7478 9.05902Z"
        fill="black" />
    <path fill-rule="evenodd" clip-rule="evenodd"
        d="M27.4055 10.8535C27.4055 11.5265 27.4055 12.1995 27.4055 12.8725C26.996 13.2982 26.561 13.7094 26.1005 14.1063C25.3623 14.275 24.6374 14.2375 23.9255 13.9941C23.6308 13.5407 23.2684 13.1668 22.838 12.8725C22.8021 12.121 22.8384 11.3733 22.9467 10.6292C24.5299 8.79526 26.0161 8.87003 27.4055 10.8535Z"
        fill="#FCFBFE" />
    <path fill-rule="evenodd" clip-rule="evenodd"
        d="M14.5728 9.28314C14.8512 9.60422 15.2138 9.75378 15.6603 9.7318C15.7349 10.1188 15.9524 10.2309 16.3129 10.0683C16.1301 9.69456 16.2389 9.6571 16.6391 9.95613C16.9156 9.64588 17.2418 9.42166 17.6179 9.28314C17.5228 9.63623 17.3053 9.89803 16.9654 10.0683C16.5338 10.4728 16.0988 10.6971 15.6603 10.7413C15.8778 10.816 16.0953 10.8909 16.3129 10.9656C16.059 11.0778 15.8778 11.2646 15.7691 11.5264C15.6967 11.4517 15.624 11.3768 15.5516 11.3021C15.1529 12.0126 14.6091 12.5734 13.9203 12.9846C13.9927 13.0593 14.0654 13.1342 14.1378 13.2089C13.5216 13.2464 13.1953 13.5829 13.159 14.2184C12.3937 14.5939 11.9224 15.1922 11.7453 16.013C11.5165 15.9796 11.2989 16.0169 11.0928 16.1252C9.25615 18.1186 7.37113 20.0629 5.43765 21.9578C5.51014 22.0325 5.58266 22.1074 5.65515 22.1821C4.8746 22.6115 4.14959 23.1351 3.48011 23.7524C3.55261 23.8271 3.62512 23.902 3.69762 23.9767C2.56827 24.768 1.662 25.7774 0.978819 27.0052C0.906325 26.9305 0.833809 26.8556 0.761315 26.7809C0.700761 26.9864 0.592009 27.1358 0.435059 27.2295C0.435059 25.4349 0.435059 23.6403 0.435059 21.8456C2.10164 20.1643 3.80541 18.5193 5.5464 16.9104C5.8364 16.4617 6.12642 16.013 6.41642 15.5644C8.61595 13.4454 10.7547 11.2395 12.8328 8.94664C13.1228 8.79708 13.4128 8.79708 13.7028 8.94664C13.9347 9.398 14.2248 9.51016 14.5728 9.28314Z"
        fill="#8499F5" />
    <path opacity="0.01" fill-rule="evenodd" clip-rule="evenodd"
        d="M15.6603 9.50781C15.9502 9.65744 15.9502 9.65744 15.6603 9.50781Z" fill="black" />
    <path fill-rule="evenodd" clip-rule="evenodd"
        d="M22.8379 12.8726C23.2683 13.1669 23.6307 13.5408 23.9254 13.9942C24.6373 14.2376 25.3622 14.2751 26.1005 14.1064C26.5609 13.7095 26.9959 13.2983 27.4055 12.8726C27.4055 17.2095 27.4055 21.5467 27.4055 25.8837C27.1058 27.1626 26.3082 27.7607 25.0129 27.6783C23.7353 27.6317 23.0104 26.9587 22.8379 25.6594C22.8379 21.3971 22.8379 17.1348 22.8379 12.8726Z"
        fill="#E4D9FB" />
    <path opacity="0.998" fill-rule="evenodd" clip-rule="evenodd"
        d="M31.7556 28.1269C31.7276 28.5119 31.6551 28.8858 31.5381 29.2486C30.7875 30.3233 29.8448 31.146 28.7106 31.7162C28.6381 31.7162 28.5655 31.7162 28.4931 31.7162C24.143 31.7162 19.7929 31.7162 15.4428 31.7162C15.3143 31.5702 15.1694 31.4205 15.0078 31.2675C15.4594 30.8664 15.9307 30.4927 16.4216 30.1459C16.784 30.3343 16.8203 30.2222 16.5303 29.8094C17.2277 29.6692 17.4452 29.2955 17.1829 28.6878C17.5654 28.4679 17.928 28.3183 18.2704 28.2391C17.9078 28.1644 17.5454 28.0895 17.1829 28.0148C17.5217 27.9677 17.8117 27.8555 18.0529 27.6783C19.1202 27.5421 19.7727 26.944 20.0104 25.8836C20.1901 24.8033 20.2988 23.6816 20.3367 22.5187C20.4091 23.5656 20.4817 24.6123 20.5542 25.6593C20.9087 25.3856 21.1262 24.937 21.2067 24.3133C21.5936 24.5329 21.956 24.4582 22.2942 24.089C22.3318 22.8516 22.4406 21.6552 22.6205 20.4997C22.5498 22.2611 22.6222 23.9809 22.838 25.6593C23.0104 26.9586 23.7354 27.6316 25.013 27.6783C26.3082 27.7606 27.1058 27.1625 27.4055 25.8836C27.5863 22.3329 27.695 18.7437 27.7318 15.1158C27.7694 16.0223 27.8782 16.9196 28.0581 17.8077C28.8106 17.4432 29.2817 16.8449 29.4718 16.0131C29.5443 16.0878 29.6169 16.1627 29.6893 16.2374C30.0717 16.0201 30.1805 15.7583 30.0156 15.4523C30.6172 15.1093 31.0522 14.6232 31.3206 13.9941C31.4711 14.1119 31.5799 14.2615 31.6469 14.4428C31.7556 19.0037 31.7919 23.565 31.7556 28.1269Z"
        fill="#AD81F3" />
    <path fill-rule="evenodd" clip-rule="evenodd"
        d="M18.0529 15.1157C18.7498 15.3138 19.3298 15.6878 19.7929 16.2374C19.9917 16.9615 20.0641 17.7092 20.0104 18.4807C18.5953 20.4828 17.0728 20.5575 15.4428 18.705C15.0831 16.5357 15.9531 15.3394 18.0529 15.1157Z"
        fill="#FCFBFE" />
    <path fill-rule="evenodd" clip-rule="evenodd"
        d="M22.6204 20.4995C22.4405 21.655 22.3318 22.8514 22.2941 24.0888C21.9559 24.458 21.5936 24.5327 21.2066 24.3131C21.1261 24.9367 20.9086 25.3854 20.5541 25.6591C20.4817 24.6121 20.409 23.5654 20.3366 22.5185C20.2988 23.6814 20.19 24.803 20.0104 25.8834C20.0104 23.4158 20.0104 20.9482 20.0104 18.4805C20.0641 17.7091 19.9916 16.9614 19.7928 16.2372C20.4099 15.066 21.2073 14.3181 22.1854 13.9939C22.1576 13.5105 22.2663 13.0618 22.5116 12.6479C22.6204 15.2641 22.6567 17.8813 22.6204 20.4995Z"
        fill="#A588F4" />
    <path fill-rule="evenodd" clip-rule="evenodd"
        d="M20.0103 18.481C20.0103 20.9486 20.0103 23.4162 20.0103 25.8838C19.7726 26.9443 19.1201 27.5423 18.0528 27.6785C16.6688 27.8629 15.7988 27.2646 15.4427 25.8838C15.4427 23.4909 15.4427 21.0982 15.4427 18.7053C17.0727 20.5578 18.5953 20.4831 20.0103 18.481Z"
        fill="#E3DAFB" />
    <path fill-rule="evenodd" clip-rule="evenodd"
        d="M9.35263 20.4996C10.8852 20.1317 11.9727 20.6551 12.6152 22.0699C12.8352 24.4232 11.8201 25.4327 9.57014 25.0984C9.02731 24.7247 8.51981 24.3132 8.04761 23.8646C8.04761 23.1916 8.04761 22.5186 8.04761 21.8456C8.41012 21.3223 8.84513 20.8736 9.35263 20.4996Z"
        fill="#FCFCFE" />
    <path opacity="0.999" fill-rule="evenodd" clip-rule="evenodd"
        d="M8.04762 21.8459C8.04762 22.5189 8.04762 23.1919 8.04762 23.8649C8.01167 24.6909 8.04792 25.5133 8.15637 26.3325C8.38673 26.8168 8.71299 27.1908 9.13514 27.4542C8.71092 27.895 8.20342 28.1942 7.61261 28.3515C7.56289 28.7851 7.38164 29.1591 7.06885 29.4731C6.11129 30.2029 5.20502 30.9508 4.35005 31.7164C4.13255 31.7164 3.91504 31.7164 3.69754 31.7164C2.5641 31.6951 1.76658 31.1715 1.305 30.1461C0.895588 29.3367 1.07683 28.5888 1.84876 27.9028C3.5119 26.4115 5.03443 24.7665 6.41634 22.9676C6.81659 23.2666 6.92534 23.2291 6.7426 22.8554C7.21386 22.5189 7.61261 22.1077 7.93887 21.6216C8.02561 21.6727 8.06184 21.7477 8.04762 21.8459Z"
        fill="#9490F5" />
    <path opacity="0.996" fill-rule="evenodd" clip-rule="evenodd"
        d="M15.2253 25.4348C15.0683 25.341 14.9595 25.1916 14.899 24.9861C14.5004 25.4722 14.1015 25.9581 13.7028 26.4443C13.7753 26.519 13.8478 26.5939 13.9203 26.6686C13.4434 26.9073 13.0083 27.2065 12.6152 27.5659C12.6877 27.6406 12.7603 27.7155 12.8328 27.7902C12.6152 27.8649 12.3977 27.9399 12.1802 28.0146C11.6843 28.5101 11.2855 29.0709 10.984 29.697C10.9115 29.6223 10.839 29.5474 10.7665 29.4727C10.1779 29.9918 9.63418 30.5526 9.13519 31.1552C9.44889 31.2398 9.6664 31.4266 9.7877 31.716C7.97517 31.716 6.16262 31.716 4.3501 31.716C5.20506 30.9504 6.11134 30.2025 7.0689 29.4727C7.38169 29.1586 7.56294 28.7847 7.61266 28.3511C8.20346 28.1938 8.71097 27.8945 9.13519 27.4537C10.95 28.1442 12.1463 27.5459 12.724 25.6591C12.8325 24.6898 12.8688 23.7177 12.8328 22.7428C13.2216 22.8067 13.5842 22.732 13.9203 22.5185C14.1684 22.311 14.1684 22.1239 13.9203 21.9577C14.471 21.6131 14.8699 21.1272 15.1165 20.4995C15.2253 22.143 15.2614 23.788 15.2253 25.4348Z"
        fill="#9F89F4" />
    <path fill-rule="evenodd" clip-rule="evenodd"
        d="M12.6152 22.0698C12.8118 22.2289 12.8843 22.4532 12.8327 22.7428C12.8687 23.7178 12.8325 24.6898 12.7239 25.6591C12.1462 27.5459 10.9499 28.1442 9.13513 27.4537C8.71297 27.1904 8.38672 26.8164 8.15636 26.3321C8.04791 25.5128 8.01165 24.6904 8.04761 23.8645C8.51981 24.3131 9.02731 24.7245 9.57013 25.0983C11.8201 25.4325 12.8352 24.423 12.6152 22.0698Z"
        fill="#DED8FB" />
    <path opacity="0.998" fill-rule="evenodd" clip-rule="evenodd"
        d="M15.2252 25.435C15.1878 25.6575 15.2605 25.8069 15.4427 25.8836C15.7988 27.2644 16.6688 27.8627 18.0528 27.6783C17.8116 27.8555 17.5217 27.9677 17.1828 28.0148C17.5454 28.0895 17.9077 28.1644 18.2703 28.2391C17.9279 28.3183 17.5654 28.4679 17.1828 28.6878C17.4451 29.2955 17.2276 29.6692 16.5303 29.8094C16.8202 30.2222 16.7839 30.3344 16.4215 30.1459C15.9306 30.4927 15.4593 30.8665 15.0077 31.2676C15.1693 31.4206 15.3142 31.5702 15.4427 31.7162C13.5577 31.7162 11.6727 31.7162 9.78764 31.7162C9.66634 31.4268 9.44884 31.24 9.13513 31.1554C9.63413 30.5529 10.1779 29.992 10.7664 29.4729C10.8389 29.5476 10.9114 29.6226 10.9839 29.6973C11.2855 29.0712 11.6842 28.5103 12.1802 28.0148C12.3977 27.9401 12.6152 27.8652 12.8327 27.7905C12.7602 27.7158 12.6877 27.6408 12.6152 27.5661C13.0083 27.2067 13.4433 26.9075 13.9202 26.6688C13.8478 26.5941 13.7752 26.5192 13.7027 26.4445C14.1014 25.9583 14.5003 25.4725 14.899 24.9863C14.9595 25.1918 15.0682 25.3412 15.2252 25.435Z"
        fill="#A686F3" />
    <path opacity="0.01" fill-rule="evenodd" clip-rule="evenodd"
        d="M0.869995 30.8188C1.15999 30.9685 1.15999 30.9685 0.869995 30.8188Z" fill="black" />
    <path opacity="0.01" fill-rule="evenodd" clip-rule="evenodd"
        d="M1.30505 30.8188C1.59505 30.9685 1.59505 30.9685 1.30505 30.8188Z" fill="black" />
    <path opacity="0.024" fill-rule="evenodd" clip-rule="evenodd"
        d="M31.5381 29.2485C31.0341 30.5532 30.1278 31.4506 28.8193 31.9405C28.7325 31.8893 28.6964 31.8144 28.7105 31.7162C29.8448 31.1459 30.7874 30.3233 31.5381 29.2485Z"
        fill="#A0A8EF" />
    <path opacity="0.01" fill-rule="evenodd" clip-rule="evenodd"
        d="M0.869995 31.7162C0.956257 31.4863 1.10125 31.4488 1.305 31.6041C1.17572 31.7082 1.03071 31.7456 0.869995 31.7162Z"
        fill="black" />
    <path opacity="0.01" fill-rule="evenodd" clip-rule="evenodd"
        d="M1.73999 31.4917C2.02999 31.6413 2.02999 31.6413 1.73999 31.4917Z" fill="black" />
    <path opacity="0.01" fill-rule="evenodd" clip-rule="evenodd"
        d="M30.4506 31.4917C30.7405 31.6413 30.7405 31.6413 30.4506 31.4917Z" fill="black" />
    <path opacity="0.01" fill-rule="evenodd" clip-rule="evenodd"
        d="M31.103 31.4917C31.393 31.6413 31.393 31.6413 31.103 31.4917Z" fill="black" />
    <path opacity="0.322" fill-rule="evenodd" clip-rule="evenodd"
        d="M3.69751 31.7163C3.91501 31.7163 4.13252 31.7163 4.35002 31.7163C6.16255 31.7163 7.9751 31.7163 9.78762 31.7163C11.6727 31.7163 13.5577 31.7163 15.4427 31.7163C19.7928 31.7163 24.1429 31.7163 28.493 31.7163C26.0669 31.9395 23.6017 32.0142 21.0978 31.9406C21.0254 31.9406 20.9528 31.9406 20.8803 31.9406C17.3622 31.8666 13.8821 31.9415 10.4401 32.165C10.3676 32.165 10.2951 32.165 10.2226 32.165C8.04759 32.0153 5.87255 31.8659 3.69751 31.7163Z"
        fill="#C2A8F7" />
    <path opacity="0.01" fill-rule="evenodd" clip-rule="evenodd"
        d="M20.8803 31.9404C20.9528 31.9404 21.0254 31.9404 21.0978 31.9404C21.3401 32.3561 21.1953 32.4683 20.6628 32.2769C20.7838 32.191 20.8562 32.0788 20.8803 31.9404Z"
        fill="black" />
    <path opacity="0.01" fill-rule="evenodd" clip-rule="evenodd"
        d="M0.652466 32.165C0.942464 32.3147 0.942464 32.3147 0.652466 32.165Z" fill="black" />
    <path opacity="0.01" fill-rule="evenodd" clip-rule="evenodd"
        d="M1.08752 32.165C1.37752 32.3147 1.37752 32.3147 1.08752 32.165Z" fill="black" />
    <path opacity="0.01" fill-rule="evenodd" clip-rule="evenodd"
        d="M1.52258 32.165C1.81258 32.3147 1.81258 32.3147 1.52258 32.165Z" fill="black" />
    <path opacity="0.01" fill-rule="evenodd" clip-rule="evenodd"
        d="M1.95752 32.165C2.24752 32.3147 2.24752 32.3147 1.95752 32.165Z" fill="black" />
    <path opacity="0.01" fill-rule="evenodd" clip-rule="evenodd"
        d="M2.39258 32.3892C2.70718 32.1395 3.06969 32.1021 3.4801 32.2771C3.12467 32.3879 2.76216 32.4251 2.39258 32.3892Z"
        fill="black" />
    <path opacity="0.01" fill-rule="evenodd" clip-rule="evenodd"
        d="M3.69751 32.165C3.98751 32.3147 3.98751 32.3147 3.69751 32.165Z" fill="black" />
    <path opacity="0.01" fill-rule="evenodd" clip-rule="evenodd"
        d="M4.13257 32.165C4.42257 32.3147 4.42257 32.3147 4.13257 32.165Z" fill="black" />
    <path opacity="0.01" fill-rule="evenodd" clip-rule="evenodd"
        d="M6.30759 32.3892C5.86664 32.4256 5.43163 32.3881 5.00256 32.2771C5.4836 32.1001 5.9186 32.1375 6.30759 32.3892Z"
        fill="black" />
    <path opacity="0.01" fill-rule="evenodd" clip-rule="evenodd"
        d="M6.52515 32.3891C6.6884 32.1483 6.90591 32.1109 7.17766 32.2769C6.97146 32.3852 6.75396 32.4225 6.52515 32.3891Z"
        fill="black" />
    <path opacity="0.01" fill-rule="evenodd" clip-rule="evenodd"
        d="M7.39514 32.3891C7.5584 32.1483 7.7759 32.1109 8.04765 32.2769C7.84146 32.3852 7.62396 32.4225 7.39514 32.3891Z"
        fill="black" />
    <path opacity="0.01" fill-rule="evenodd" clip-rule="evenodd"
        d="M8.26514 32.165C8.55513 32.3147 8.55513 32.3147 8.26514 32.165Z" fill="black" />
    <path opacity="0.01" fill-rule="evenodd" clip-rule="evenodd"
        d="M8.7002 32.165C8.99019 32.3147 8.99019 32.3147 8.7002 32.165Z" fill="black" />
    <path opacity="0.01" fill-rule="evenodd" clip-rule="evenodd"
        d="M9.57019 32.165C9.86019 32.3147 9.86019 32.3147 9.57019 32.165Z" fill="black" />
    <path opacity="0.01" fill-rule="evenodd" clip-rule="evenodd"
        d="M10.2226 32.165C10.0776 32.3147 10.0776 32.3147 10.2226 32.165Z" fill="black" />
    <path opacity="0.01" fill-rule="evenodd" clip-rule="evenodd"
        d="M10.4402 32.165C10.7302 32.3147 10.7302 32.3147 10.4402 32.165Z" fill="black" />
    <path opacity="0.01" fill-rule="evenodd" clip-rule="evenodd"
        d="M10.8752 32.165C11.1652 32.3147 11.1652 32.3147 10.8752 32.165Z" fill="black" />
    <path opacity="0.01" fill-rule="evenodd" clip-rule="evenodd"
        d="M11.3102 32.165C11.6002 32.3147 11.6002 32.3147 11.3102 32.165Z" fill="black" />
    <path opacity="0.01" fill-rule="evenodd" clip-rule="evenodd"
        d="M11.7452 32.165C12.0352 32.3147 12.0352 32.3147 11.7452 32.165Z" fill="black" />
    <path opacity="0.01" fill-rule="evenodd" clip-rule="evenodd"
        d="M12.1802 32.165C12.4702 32.3147 12.4702 32.3147 12.1802 32.165Z" fill="black" />
    <path opacity="0.01" fill-rule="evenodd" clip-rule="evenodd"
        d="M12.6152 32.165C12.9052 32.3147 12.9052 32.3147 12.6152 32.165Z" fill="black" />
    <path opacity="0.01" fill-rule="evenodd" clip-rule="evenodd"
        d="M13.0503 32.165C13.3403 32.3147 13.3403 32.3147 13.0503 32.165Z" fill="black" />
    <path opacity="0.01" fill-rule="evenodd" clip-rule="evenodd"
        d="M13.4852 32.165C13.7752 32.3147 13.7752 32.3147 13.4852 32.165Z" fill="black" />
    <path opacity="0.01" fill-rule="evenodd" clip-rule="evenodd"
        d="M13.9203 32.165C14.2102 32.3147 14.2102 32.3147 13.9203 32.165Z" fill="black" />
    <path opacity="0.01" fill-rule="evenodd" clip-rule="evenodd"
        d="M14.3552 32.165C14.6452 32.3147 14.6452 32.3147 14.3552 32.165Z" fill="black" />
    <path opacity="0.01" fill-rule="evenodd" clip-rule="evenodd"
        d="M14.7903 32.165C15.0802 32.3147 15.0802 32.3147 14.7903 32.165Z" fill="black" />
    <path opacity="0.01" fill-rule="evenodd" clip-rule="evenodd"
        d="M15.2252 32.165C15.5152 32.3147 15.5152 32.3147 15.2252 32.165Z" fill="black" />
    <path opacity="0.01" fill-rule="evenodd" clip-rule="evenodd"
        d="M15.6603 32.165C15.9502 32.3147 15.9502 32.3147 15.6603 32.165Z" fill="black" />
    <path opacity="0.01" fill-rule="evenodd" clip-rule="evenodd"
        d="M16.0953 32.165C16.3853 32.3147 16.3853 32.3147 16.0953 32.165Z" fill="black" />
    <path opacity="0.01" fill-rule="evenodd" clip-rule="evenodd"
        d="M16.5303 32.165C16.8202 32.3147 16.8202 32.3147 16.5303 32.165Z" fill="black" />
    <path opacity="0.01" fill-rule="evenodd" clip-rule="evenodd"
        d="M17.1829 32.3892C17.5718 32.1375 18.0068 32.1001 18.4879 32.2771C18.0587 32.3881 17.6237 32.4256 17.1829 32.3892Z"
        fill="black" />
    <path opacity="0.01" fill-rule="evenodd" clip-rule="evenodd"
        d="M18.9229 32.3891C19.0862 32.1483 19.3037 32.1109 19.5754 32.2769C19.3692 32.3852 19.1517 32.4225 18.9229 32.3891Z"
        fill="black" />
    <path opacity="0.01" fill-rule="evenodd" clip-rule="evenodd"
        d="M19.7928 32.3891C19.9562 32.1483 20.1737 32.1109 20.4454 32.2769C20.2392 32.3852 20.0217 32.4225 19.7928 32.3891Z"
        fill="black" />
    <path opacity="0.01" fill-rule="evenodd" clip-rule="evenodd"
        d="M21.5328 32.3891C21.6962 32.1483 21.9137 32.1109 22.1853 32.2769C21.9792 32.3852 21.7617 32.4225 21.5328 32.3891Z"
        fill="black" />
    <path opacity="0.01" fill-rule="evenodd" clip-rule="evenodd"
        d="M22.403 32.165C22.6929 32.3147 22.6929 32.3147 22.403 32.165Z" fill="black" />
    <path opacity="0.01" fill-rule="evenodd" clip-rule="evenodd"
        d="M22.8379 32.165C23.1278 32.3147 23.1278 32.3147 22.8379 32.165Z" fill="black" />
    <path opacity="0.01" fill-rule="evenodd" clip-rule="evenodd"
        d="M23.2729 32.165C23.5629 32.3147 23.5629 32.3147 23.2729 32.165Z" fill="black" />
    <path opacity="0.01" fill-rule="evenodd" clip-rule="evenodd"
        d="M24.1429 32.165C24.4329 32.3147 24.4329 32.3147 24.1429 32.165Z" fill="black" />
    <path opacity="0.01" fill-rule="evenodd" clip-rule="evenodd"
        d="M24.578 32.165C24.8679 32.3147 24.8679 32.3147 24.578 32.165Z" fill="black" />
    <path opacity="0.01" fill-rule="evenodd" clip-rule="evenodd"
        d="M25.0129 32.165C25.3029 32.3147 25.3029 32.3147 25.0129 32.165Z" fill="black" />
    <path opacity="0.01" fill-rule="evenodd" clip-rule="evenodd"
        d="M25.448 32.165C25.7379 32.3147 25.7379 32.3147 25.448 32.165Z" fill="black" />
    <path opacity="0.01" fill-rule="evenodd" clip-rule="evenodd"
        d="M25.8829 32.165C26.1729 32.3147 26.1729 32.3147 25.8829 32.165Z" fill="black" />
    <path opacity="0.01" fill-rule="evenodd" clip-rule="evenodd"
        d="M26.318 32.165C26.6079 32.3147 26.6079 32.3147 26.318 32.165Z" fill="black" />
    <path opacity="0.01" fill-rule="evenodd" clip-rule="evenodd"
        d="M26.7529 32.165C27.0429 32.3147 27.0429 32.3147 26.7529 32.165Z" fill="black" />
    <path opacity="0.01" fill-rule="evenodd" clip-rule="evenodd"
        d="M27.188 32.165C27.4779 32.3147 27.4779 32.3147 27.188 32.165Z" fill="black" />
    <path opacity="0.01" fill-rule="evenodd" clip-rule="evenodd"
        d="M27.623 32.165C27.913 32.3147 27.913 32.3147 27.623 32.165Z" fill="black" />
    <path opacity="0.01" fill-rule="evenodd" clip-rule="evenodd"
        d="M28.058 32.165C28.3479 32.3147 28.3479 32.3147 28.058 32.165Z" fill="black" />
    <path opacity="0.01" fill-rule="evenodd" clip-rule="evenodd"
        d="M28.493 32.165C28.783 32.3147 28.783 32.3147 28.493 32.165Z" fill="black" />
    <path opacity="0.01" fill-rule="evenodd" clip-rule="evenodd"
        d="M29.363 32.165C29.653 32.3147 29.653 32.3147 29.363 32.165Z" fill="black" />
    <path opacity="0.01" fill-rule="evenodd" clip-rule="evenodd"
        d="M29.7981 32.165C30.088 32.3147 30.088 32.3147 29.7981 32.165Z" fill="black" />
    <path opacity="0.01" fill-rule="evenodd" clip-rule="evenodd"
        d="M30.233 32.165C30.523 32.3147 30.523 32.3147 30.233 32.165Z" fill="black" />
    <path opacity="0.01" fill-rule="evenodd" clip-rule="evenodd"
        d="M30.6681 32.165C30.958 32.3147 30.958 32.3147 30.6681 32.165Z" fill="black" />
    <path opacity="0.01" fill-rule="evenodd" clip-rule="evenodd"
        d="M6.30762 32.3892C6.38011 32.3892 6.45263 32.3892 6.52512 32.3892C6.48482 32.5395 6.4123 32.5395 6.30762 32.3892Z"
        fill="black" />
</svg>