<svg width="32" height="32" viewBox="0 0 32 32" fill="none" xmlns="http://www.w3.org/2000/svg">
    <path opacity="0.951" fill-rule="evenodd" clip-rule="evenodd"
        d="M12.8129 2.60742C14.9408 2.60742 17.0686 2.60742 19.1964 2.60742C21.0117 3.003 22.7454 3.63434 24.3978 4.50144C21.5905 5.45023 18.7141 6.23939 15.7683 6.86896C12.9468 6.31189 10.2279 5.5227 7.61157 4.50144C9.26395 3.63434 10.9977 3.003 12.8129 2.60742Z"
        fill="#030200" />
    <path opacity="0.948" fill-rule="evenodd" clip-rule="evenodd"
        d="M7.61162 4.50163C10.2279 5.52289 12.9468 6.31208 15.7683 6.86916C18.7142 6.23958 21.5905 5.45042 24.3978 4.50163C25.8821 4.05886 27.3794 3.66427 28.8899 3.31787C29.0457 4.01751 29.1245 4.72777 29.1264 5.44864C28.3939 5.50916 27.6846 5.66697 26.9985 5.92215C24.6435 6.37655 22.358 7.00789 20.1422 7.81616C19.5752 7.7592 19.1024 7.91704 18.7236 8.28967C17.7361 8.42173 16.7509 8.57955 15.7683 8.76317C14.6822 8.59728 13.6183 8.36053 12.5766 8.05292C11.959 7.84682 11.3285 7.68898 10.6852 7.57941C8.83867 6.95834 6.94726 6.40593 5.01094 5.92215C4.23215 5.77659 3.48339 5.53984 2.76489 5.21189C2.78452 4.59175 2.824 3.96041 2.88311 3.31787C4.45912 3.71239 6.03537 4.10698 7.61162 4.50163Z"
        fill="#F4B013" />
    <path opacity="0.955" fill-rule="evenodd" clip-rule="evenodd"
        d="M5.01097 5.92188C6.9473 6.40565 8.8387 6.95807 10.6852 7.57914C6.1983 7.46017 3.24298 9.51203 1.81922 13.7347C1.76863 20.1548 4.96037 23.1931 11.3945 22.8497C12.4548 22.4831 13.4793 22.0491 14.468 21.5475C13.9878 22.2321 13.5937 22.9818 13.2859 23.7967C14.1018 25.3124 15.0082 26.7724 16.0048 28.1766C17.0335 26.7468 17.9399 25.2474 18.7237 23.6783C18.3905 22.9322 17.9967 22.222 17.5415 21.5475C21.4026 23.7358 24.9885 23.3412 28.2989 20.3638C31.0781 16.7478 30.9599 13.236 27.9443 9.82829C25.6847 7.86178 23.0841 7.19096 20.1422 7.81589C22.358 7.00762 24.6435 6.37627 26.9986 5.92188C27.9362 6.82184 28.8427 7.76885 29.7175 8.7629C33.9284 16.4781 32.3129 22.6731 24.8707 27.348C20.3179 29.464 15.5894 29.9376 10.6852 28.7685C6.02074 27.4114 2.6713 24.5309 0.637093 20.127C-0.593242 16.0649 -0.0415901 12.2769 2.29207 8.7629C3.16685 7.76885 4.0733 6.82184 5.01097 5.92188Z"
        fill="#010201" />
    <path fill-rule="evenodd" clip-rule="evenodd"
        d="M10.6852 7.57911C11.3285 7.68868 11.959 7.84652 12.5766 8.05261C13.867 8.58985 15.0099 9.37902 16.0047 10.4201C16.8873 9.65178 17.7935 8.94152 18.7236 8.28937C19.2906 8.34633 19.7634 8.18849 20.1422 7.81586C23.084 7.19093 25.6847 7.86174 27.9442 9.82826C30.9598 13.236 31.0781 16.7478 28.2989 20.3637C24.9884 23.3412 21.4026 23.7358 17.5415 21.5475C16.989 20.7944 16.4766 20.0052 16.0047 19.18C15.5489 20.0163 15.0366 20.8054 14.468 21.5475C13.4792 22.0491 12.4548 22.4831 11.3944 22.8496C4.96035 23.1931 1.7686 20.1548 1.8192 13.7347C3.24295 9.512 6.19827 7.46014 10.6852 7.57911Z"
        fill="#16AEDB" />
    <path fill-rule="evenodd" clip-rule="evenodd"
        d="M20.1422 7.81602C19.7634 8.18864 19.2906 8.34648 18.7236 8.28952C19.1024 7.9169 19.5752 7.75905 20.1422 7.81602Z"
        fill="#2B4B54" />
    <path fill-rule="evenodd" clip-rule="evenodd"
        d="M12.5767 8.05273C13.6184 8.36035 14.6823 8.5971 15.7684 8.76299C16.751 8.57937 17.7362 8.42155 18.7237 8.28949C17.7936 8.94164 16.8874 9.6519 16.0048 10.4203C15.01 9.37914 13.8671 8.58997 12.5767 8.05273Z"
        fill="#13110B" />
    <path fill-rule="evenodd" clip-rule="evenodd"
        d="M9.5029 10.8937C12.5481 10.3466 14.7154 11.4514 16.0046 14.2083C17.7844 10.7569 20.4246 9.92832 23.9249 11.7224C26.4468 14.0899 26.4468 16.4574 23.9249 18.8249C20.4317 20.6177 17.7915 19.789 16.0046 16.339C14.7168 19.1341 12.5497 20.1995 9.5029 19.5352C6.36435 18.1077 5.53686 15.8586 7.02043 12.7877C7.71552 11.9504 8.54301 11.319 9.5029 10.8937Z"
        fill="#F9B517" />
    <path fill-rule="evenodd" clip-rule="evenodd"
        d="M10.2122 13.2612C12.2599 12.9841 13.1661 13.8522 12.9311 15.8655C11.6703 17.7595 10.4092 17.7595 9.14831 15.8655C8.85892 14.7116 9.21356 13.8435 10.2122 13.2612Z"
        fill="#0B0601" />
    <path fill-rule="evenodd" clip-rule="evenodd"
        d="M20.1422 13.2615C22.2008 13.1518 23.0283 14.0988 22.6247 16.1025C22.0239 17.1841 21.1175 17.5392 19.9058 17.1679C18.2913 15.7481 18.37 14.446 20.1422 13.2615Z"
        fill="#0C0701" />
    <path fill-rule="evenodd" clip-rule="evenodd"
        d="M17.5416 21.5477C17.9967 22.2222 18.3906 22.9324 18.7237 23.6785C17.9399 25.2476 17.0335 26.747 16.0048 28.1768C15.0082 26.7726 14.1018 25.3125 13.2859 23.7968C13.5937 22.982 13.9878 22.2323 14.468 21.5477C15.0366 20.8056 15.549 20.0165 16.0048 19.1802C16.4767 20.0054 16.989 20.7946 17.5416 21.5477Z"
        fill="#F6B315" />
</svg>
    