<svg width="32" height="32" viewBox="0 0 32 32" fill="none" xmlns="http://www.w3.org/2000/svg">
<g clip-path="url(#clip0_4478_45)">
<path fill-rule="evenodd" clip-rule="evenodd" d="M-0.071167 -0.0712891C10.5955 -0.0712891 21.2622 -0.0712891 31.9288 -0.0712891C31.9288 10.5954 31.9288 21.262 31.9288 31.9287C21.2622 31.9287 10.5955 31.9287 -0.071167 31.9287C-0.071167 21.262 -0.071167 10.5954 -0.071167 -0.0712891Z" fill="#FEFDFE"/>
<path fill-rule="evenodd" clip-rule="evenodd" d="M28.3733 4.05321C27.6817 4.00777 27.0179 4.05519 26.3822 4.19544C26.305 4.1869 26.2576 4.1395 26.24 4.05321C26.9727 3.86638 27.6838 3.86638 28.3733 4.05321Z" fill="#9CCEFD"/>
<path fill-rule="evenodd" clip-rule="evenodd" d="M24.5334 7.32466C23.8571 7.81175 23.146 8.23842 22.4 8.60466C21.5399 7.93724 20.5917 7.41575 19.5556 7.04021C19.1208 6.81338 18.6468 6.64745 18.1334 6.54243C16.9704 6.42541 15.8326 6.44912 14.72 6.61355C10.6824 7.52129 8.14606 9.98647 7.11115 14.0091C6.92873 15.851 7.09466 17.6524 7.60893 19.4135C7.29603 20.0365 6.89306 20.6054 6.40004 21.1202C6.23947 21.3536 6.02614 21.4958 5.76004 21.5469C5.542 20.7777 5.28127 20.0193 4.97782 19.2713C4.72401 18.5338 4.6055 17.7751 4.62227 16.9958C4.60004 15.8539 4.64744 14.7161 4.76449 13.5824C4.9035 12.7142 5.11683 11.8608 5.40449 11.0224C8.73277 5.0579 13.7343 2.92457 20.4089 4.62243C21.1877 4.94078 21.9462 5.29634 22.6845 5.6891C23.3748 6.17236 23.9911 6.71755 24.5334 7.32466Z" fill="#DE2F54"/>
<path fill-rule="evenodd" clip-rule="evenodd" d="M14.72 6.61311C16.3538 6.53825 17.9658 6.68047 19.5555 7.03978C20.5916 7.41532 21.5398 7.9368 22.4 8.60422C22.3318 8.93766 22.1185 9.12729 21.76 9.17311C21.1259 9.0196 20.4859 8.99589 19.84 9.102C18.4537 9.94285 18.193 11.0569 19.0577 12.4442C19.1526 12.6338 19.1526 12.8235 19.0577 13.0131C18.4426 13.9976 17.8264 14.9931 17.2089 15.9998C17.0654 16.2167 16.9942 16.4538 16.9955 16.7109C16.4282 16.6563 15.9068 16.7511 15.4311 16.9953C15.1384 17.1991 14.8064 17.294 14.4355 17.2798C14.3953 17.1676 14.3242 17.0727 14.2222 16.9953C14.4752 15.6051 13.9775 14.6096 12.7289 14.0087C11.5266 13.6259 10.6496 14.0052 10.0977 15.1464C10.0503 15.8102 10.0029 16.4738 9.95552 17.1376C9.14405 17.8635 8.43294 18.6693 7.82219 19.5553C7.76778 19.4763 7.69667 19.4289 7.60886 19.4131C7.09458 17.652 6.92865 15.8506 7.11108 14.0087C8.14599 9.98604 10.6823 7.52086 14.72 6.61311Z" fill="#FCFCFC"/>
<path fill-rule="evenodd" clip-rule="evenodd" d="M14.72 6.61333C15.8326 6.44891 16.9704 6.4252 18.1333 6.54222C18.6467 6.64724 19.1208 6.81317 19.5555 7.04C17.9658 6.68069 16.3538 6.53846 14.72 6.61333Z" fill="#F7C1CC"/>
<path fill-rule="evenodd" clip-rule="evenodd" d="M28.3733 4.0533C29.1101 4.14809 29.8688 4.24291 30.6488 4.33774C30.094 5.54164 29.62 6.77422 29.2266 8.03552C29.1793 8.08292 29.1318 8.13034 29.0844 8.17774C28.8069 7.71039 28.475 7.28372 28.0888 6.89774C27.26 7.40331 26.5015 7.9722 25.8133 8.60441C25.0481 8.93927 24.3845 9.41336 23.8222 10.0266C23.4756 10.147 23.1674 10.3366 22.8977 10.5955C22.9435 12.3267 22.1139 13.2748 20.4088 13.44C19.9141 14.2167 19.4874 15.0226 19.1288 15.8577C18.6747 16.3131 18.3429 16.8583 18.1333 17.4933C18.2805 17.8538 18.4227 18.2094 18.56 18.56C18.4974 20.2816 17.5965 21.1349 15.8577 21.12C14.8326 20.6336 14.2637 19.8276 14.1511 18.7022C13.8082 18.4577 13.429 18.2681 13.0133 18.1333C11.8705 18.0144 10.946 18.3937 10.24 19.2711C9.71249 20.0448 9.11991 20.7559 8.46218 21.4044C7.88824 21.9781 7.36675 22.5945 6.89773 23.2533C6.38316 23.5783 5.95649 24.0049 5.61773 24.5333C5.52992 24.5491 5.45881 24.5964 5.4044 24.6755C5.36441 25.3461 5.29329 26.0099 5.19106 26.6666C4.22494 28.1176 3.06345 28.3072 1.70662 27.2355C0.767457 26.0027 0.885977 24.8887 2.06218 23.8933C2.7614 23.7282 3.47251 23.6335 4.19551 23.6089C4.59329 23.0686 5.04367 22.5708 5.54662 22.1155C5.65918 21.9385 5.73029 21.7489 5.75995 21.5466C6.02605 21.4956 6.23938 21.3534 6.39995 21.12C6.89297 20.6051 7.29594 20.0362 7.60884 19.4133C7.69665 19.4291 7.76776 19.4764 7.82218 19.5555C8.43292 18.6695 9.14403 17.8636 9.95551 17.1377C10.0029 16.474 10.0503 15.8104 10.0977 15.1466C10.6496 14.0053 11.5266 13.6261 12.7288 14.0089C13.9774 14.6097 14.4752 15.6053 14.2222 16.9955C14.3241 17.0729 14.3953 17.1678 14.4355 17.28C14.8482 17.5097 15.18 17.4149 15.4311 16.9955C15.9068 16.7513 16.4282 16.6565 16.9955 16.7111C16.9942 16.4539 17.0653 16.2169 17.2088 16C17.8264 14.9933 18.4426 13.9977 19.0577 13.0133C19.1526 12.8237 19.1526 12.634 19.0577 12.4444C18.193 11.0571 18.4537 9.94303 19.84 9.10219C20.4859 8.99608 21.1259 9.01978 21.76 9.1733C22.1185 9.12747 22.3318 8.93785 22.4 8.60441C23.1459 8.23817 23.857 7.81151 24.5333 7.32441C25.4122 6.71897 26.2656 6.07897 27.0933 5.40441C26.9218 4.95851 26.6847 4.55554 26.3822 4.19552C27.0179 4.05528 27.6817 4.00786 28.3733 4.0533Z" fill="#1985FB"/>
<path fill-rule="evenodd" clip-rule="evenodd" d="M23.8223 10.0269C24.3058 10.5734 24.6851 11.1897 24.9601 11.8757C24.7844 11.8443 24.6422 11.7494 24.5334 11.5913C24.4917 12.1166 24.302 12.5669 23.9645 12.9424C23.4393 13.2798 22.9179 13.6117 22.4001 13.938C22.1038 14.3507 21.7246 14.6351 21.2623 14.7913C20.9043 15.1254 20.5725 15.4809 20.2667 15.858C20.1719 15.7631 20.0771 15.6684 19.9823 15.5735C19.8975 15.7465 19.8738 15.936 19.9112 16.1424C19.747 16.3192 19.5573 16.4614 19.3423 16.5691C19.2753 16.8174 19.1804 17.0545 19.0578 17.2802C19.022 16.9344 19.0931 16.6025 19.2712 16.2846C19.182 16.1542 19.1345 16.012 19.1289 15.858C19.4875 15.0228 19.9142 14.2169 20.4089 13.4402C22.114 13.275 22.9436 12.3269 22.8978 10.5957C23.1675 10.3368 23.4757 10.1472 23.8223 10.0269Z" fill="#EF8EA3"/>
<path fill-rule="evenodd" clip-rule="evenodd" d="M27.52 11.5913C28.3118 13.3214 28.5489 15.123 28.2311 16.9958C28.2072 15.9501 28.1361 14.9072 28.0178 13.8669C27.9022 13.3945 27.6888 12.9678 27.3778 12.5869C27.5021 12.2673 27.5496 11.9355 27.52 11.5913Z" fill="#E3526E"/>
<path fill-rule="evenodd" clip-rule="evenodd" d="M24.96 11.8758C25.2296 12.4158 25.4193 12.9847 25.5289 13.5824C25.4178 13.2798 25.2756 13.2561 25.1022 13.5113C25.39 13.8867 25.4374 14.2897 25.2444 14.7202C25.1558 14.3695 25.0372 14.0376 24.8889 13.7246C23.998 14.7112 23.0262 15.5883 21.9733 16.3558C21.3259 16.339 20.923 16.647 20.7644 17.2802C20.4555 17.4345 20.1711 17.6242 19.9111 17.8491C19.9537 18.3541 19.6931 18.6386 19.1289 18.7024C19.1289 18.892 19.1289 19.0817 19.1289 19.2713C18.9866 19.2713 18.8444 19.2713 18.7022 19.2713C18.7426 18.999 18.6952 18.762 18.56 18.5602C18.4227 18.2096 18.2805 17.8541 18.1333 17.4935C18.3429 16.8585 18.6747 16.3134 19.1289 15.858C19.1344 16.012 19.1819 16.1542 19.2711 16.2846C19.093 16.6025 19.0219 16.9345 19.0577 17.2802C19.1803 17.0545 19.2752 16.8174 19.3422 16.5691C19.5572 16.4614 19.747 16.3192 19.9111 16.1424C19.8737 15.9361 19.8974 15.7465 19.9822 15.5735C20.0771 15.6684 20.1718 15.7631 20.2666 15.858C20.5724 15.4809 20.9042 15.1254 21.2622 14.7913C21.7246 14.6351 22.1037 14.3507 22.4 13.938C22.9178 13.6117 23.4392 13.2798 23.9644 12.9424C24.3019 12.5669 24.4916 12.1166 24.5333 11.5913C24.6421 11.7494 24.7843 11.8443 24.96 11.8758Z" fill="#F29DAE"/>
<path fill-rule="evenodd" clip-rule="evenodd" d="M4.76443 13.582C4.64738 14.7157 4.59998 15.8535 4.62221 16.9954C4.458 16.0253 4.43429 15.0297 4.5511 14.0087C4.58411 13.8327 4.65522 13.6905 4.76443 13.582Z" fill="#E98497"/>
<path fill-rule="evenodd" clip-rule="evenodd" d="M25.5289 13.5822C25.6381 13.6907 25.7093 13.8329 25.7422 14.0089C25.8593 15.1718 25.8355 16.3096 25.6711 17.4222C25.7048 17.2386 25.6575 17.0964 25.5289 16.9956C25.5289 16.6162 25.5289 16.2371 25.5289 15.8578C25.3867 15.8578 25.2445 15.8578 25.1022 15.8578C25.1458 16.2681 25.0984 16.6474 24.96 16.9956C25.0045 16.6049 24.9572 16.2256 24.8178 15.8578C22.9995 17.3197 21.198 18.813 19.4134 20.3378C19.2364 20.4026 19.118 20.3315 19.0578 20.1244C18.8918 20.3851 18.726 20.646 18.56 20.9067C17.1509 21.6508 15.8946 22.6226 14.7911 23.8222C14.7209 24.0546 14.6973 24.2917 14.72 24.5333C13.8772 24.701 13.8298 24.9381 14.5778 25.2444C14.0081 25.1418 13.4392 25.0233 12.8711 24.8889C12.7189 24.7677 12.5766 24.6492 12.4445 24.5333C12.4287 24.4456 12.3813 24.3745 12.3022 24.32C12.5519 24.2913 12.789 24.2202 13.0134 24.1067C12.8753 23.8987 12.9227 23.7092 13.1556 23.5378C13.7931 22.9467 14.5041 22.4489 15.2889 22.0444C15.6507 21.8221 15.6507 21.6088 15.2889 21.4044C15.4526 21.2294 15.6184 21.2294 15.7867 21.4044C15.8527 21.32 15.8764 21.2251 15.8578 21.12C17.5966 21.1349 18.4974 20.2816 18.56 18.56C18.6953 18.7618 18.7426 18.9988 18.7022 19.2711C18.8445 19.2711 18.9867 19.2711 19.1289 19.2711C19.1289 19.0815 19.1289 18.8918 19.1289 18.7022C19.6931 18.6384 19.9538 18.3539 19.9111 17.8489C20.1711 17.624 20.4556 17.4343 20.7645 17.28C20.923 16.6468 21.326 16.3388 21.9734 16.3556C23.0262 15.5881 23.998 14.711 24.8889 13.7244C25.0373 14.0374 25.1559 14.3693 25.2445 14.72C25.4375 14.2895 25.3901 13.8865 25.1022 13.5111C25.2756 13.2559 25.4178 13.2796 25.5289 13.5822Z" fill="#F5AFBC"/>
<path fill-rule="evenodd" clip-rule="evenodd" d="M15.4311 16.9956C15.1801 17.415 14.8483 17.5097 14.4355 17.28C14.8065 17.2943 15.1384 17.1994 15.4311 16.9956Z" fill="#74BCFB"/>
<path fill-rule="evenodd" clip-rule="evenodd" d="M24.96 16.9957C24.9911 17.1628 24.9438 17.305 24.8178 17.4224C24.0069 17.8785 23.2958 18.471 22.6844 19.2001C21.9969 19.6626 21.2858 20.0893 20.5511 20.4801C20.0958 20.8644 19.7165 21.3148 19.4133 21.8312C18.7493 22.1173 18.2752 22.5914 17.9911 23.2535C17.6471 23.6146 17.2204 23.8279 16.7111 23.8935C16.6105 24.2551 16.421 24.5632 16.1422 24.8179C16.4119 24.9553 16.6963 25.0027 16.9955 24.9601C16.6757 25.0985 16.0594 25.1696 15.1466 25.1735C16.1411 25.2446 17.1366 25.2682 18.1333 25.2446C16.9621 25.4315 15.777 25.4315 14.5778 25.2446C13.8297 24.9382 13.8771 24.7011 14.72 24.5335C14.6972 24.2918 14.7208 24.0547 14.7911 23.8224C15.8946 22.6227 17.1508 21.6509 18.56 20.9068C18.726 20.6461 18.8918 20.3853 19.0578 20.1246C19.1179 20.3317 19.2364 20.4028 19.4133 20.3379C21.1979 18.8131 22.9994 17.3198 24.8178 15.8579C24.9571 16.2257 25.0045 16.605 24.96 16.9957Z" fill="#F8BDC8"/>
<path fill-rule="evenodd" clip-rule="evenodd" d="M14.1512 18.702C14.1745 19.0841 14.1508 19.4634 14.0801 19.8398C14.0212 19.7748 13.9501 19.7273 13.8667 19.6975C13.7211 19.89 13.5315 19.9848 13.2978 19.982C13.2632 20.3749 13.0735 20.683 12.7289 20.9064C12.1284 21.3425 11.5121 21.7454 10.8801 22.1153C10.7852 22.2575 10.6904 22.3998 10.5956 22.542C10.6703 22.6404 10.7651 22.7115 10.8801 22.7553C10.6578 22.8633 10.5156 23.0292 10.4534 23.2531C9.78968 22.6368 9.12599 22.0205 8.46228 21.4042C9.12002 20.7557 9.7126 20.0446 10.2401 19.2709C10.9461 18.3935 11.8706 18.0142 13.0134 18.1331C13.4291 18.2679 13.8083 18.4575 14.1512 18.702Z" fill="#EE869C"/>
<path fill-rule="evenodd" clip-rule="evenodd" d="M25.5289 16.9957C25.403 17.5034 25.2608 18.0249 25.1022 18.5601C24.5959 18.6396 24.2641 18.9241 24.1067 19.4135C23.5072 19.6094 23.0569 19.9888 22.7555 20.5512C22.6967 20.4862 22.6256 20.4387 22.5422 20.409C22.0207 20.8594 21.4993 21.3097 20.9778 21.7601C20.7521 21.8827 20.515 21.9776 20.2667 22.0446C20.0459 22.5256 19.6193 22.8574 18.9867 23.0401C18.2081 23.58 17.5444 24.22 16.9955 24.9601C16.6963 25.0027 16.4119 24.9553 16.1422 24.8179C16.421 24.5632 16.6105 24.2551 16.7111 23.8935C17.2204 23.8279 17.6471 23.6146 17.9911 23.2535C18.2753 22.5914 18.7493 22.1173 19.4133 21.8312C19.7165 21.3148 20.0958 20.8644 20.5511 20.4801C21.2858 20.0893 21.9969 19.6626 22.6844 19.2001C23.2958 18.471 24.007 17.8785 24.8178 17.4224C24.9438 17.305 24.9911 17.1628 24.96 16.9957C25.0984 16.6475 25.1457 16.2682 25.1022 15.8579C25.2444 15.8579 25.3867 15.8579 25.5289 15.8579C25.5289 16.2372 25.5289 16.6164 25.5289 16.9957Z" fill="#F9C7D0"/>
<path fill-rule="evenodd" clip-rule="evenodd" d="M25.5288 16.9956C25.6574 17.0964 25.7048 17.2387 25.6711 17.4223C25.1534 20.5642 23.4942 22.9109 20.6933 24.4623C19.8931 24.879 19.0398 25.1397 18.1333 25.2445C17.1366 25.2681 16.141 25.2445 15.1466 25.1734C16.0594 25.1695 16.6756 25.0984 16.9955 24.96C17.5443 24.2199 18.2081 23.5799 18.9866 23.04C19.6192 22.8573 20.0459 22.5255 20.2666 22.0445C20.5149 21.9775 20.752 21.8826 20.9777 21.76C21.4992 21.3096 22.0206 20.8594 22.5422 20.4089C22.6255 20.4387 22.6966 20.4862 22.7555 20.5512C23.0569 19.9887 23.5071 19.6094 24.1066 19.4134C24.264 18.924 24.5959 18.6396 25.1022 18.56C25.2607 18.0249 25.403 17.5033 25.5288 16.9956Z" fill="#FAD3DA"/>
<path fill-rule="evenodd" clip-rule="evenodd" d="M14.1511 18.7021C14.2638 19.8276 14.8327 20.6335 15.8578 21.1199C15.8764 21.225 15.8527 21.3199 15.7867 21.4044C15.6185 21.2293 15.4526 21.2293 15.2889 21.4044C15.6507 21.6087 15.6507 21.8221 15.2889 22.0444C14.5041 22.4489 13.7931 22.9466 13.1556 23.5377C12.9227 23.7091 12.8753 23.8987 13.0134 24.1066C12.789 24.2201 12.5519 24.2912 12.3023 24.3199C12.3813 24.3744 12.4287 24.4455 12.4445 24.5333C11.9206 24.2874 11.3991 24.0267 10.88 23.751C10.7079 23.6033 10.5657 23.4373 10.4534 23.2533C10.5155 23.0294 10.6578 22.8634 10.88 22.7555C10.7651 22.7117 10.6703 22.6406 10.5956 22.5421C10.6904 22.3999 10.7852 22.2577 10.88 22.1155C11.5121 21.7456 12.1284 21.3426 12.7289 20.9066C13.0735 20.6832 13.2631 20.3751 13.2978 19.9821C13.5315 19.985 13.7211 19.8901 13.8667 19.6977C13.95 19.7274 14.0212 19.7749 14.08 19.8399C14.1508 19.4636 14.1745 19.0843 14.1511 18.7021Z" fill="#F29EB0"/>
<path fill-rule="evenodd" clip-rule="evenodd" d="M25.8134 8.60449C26.5697 9.50169 27.1386 10.4972 27.52 11.5912C27.5496 11.9354 27.5021 12.2672 27.3778 12.5867C27.6889 12.9677 27.9022 13.3943 28.0178 13.8667C28.1362 14.9071 28.2073 15.95 28.2312 16.9956C27.5431 22.4497 24.5564 25.9815 19.2712 27.5912C14.2375 28.6396 10.1131 27.1938 6.89783 23.2534C7.36685 22.5946 7.88833 21.9782 8.46227 21.4045C9.12598 22.0207 9.78967 22.6371 10.4534 23.2534C10.5657 23.4374 10.7079 23.6034 10.88 23.7512C11.3991 24.0268 11.9206 24.2875 12.4445 24.5334C12.5767 24.6493 12.7189 24.7678 12.8712 24.8889C13.4392 25.0233 14.0081 25.1418 14.5778 25.2445C15.777 25.4314 16.9622 25.4314 18.1334 25.2445C19.0399 25.1397 19.8932 24.879 20.6934 24.4623C23.4943 22.9109 25.1535 20.5642 25.6712 17.4223C25.8356 16.3097 25.8593 15.1719 25.7423 14.0089C25.7093 13.8329 25.6382 13.6907 25.5289 13.5823C25.4194 12.9846 25.2297 12.4157 24.96 11.8756C24.6851 11.1895 24.3058 10.5732 23.8223 10.0267C24.3846 9.41344 25.0482 8.93935 25.8134 8.60449Z" fill="#DE2F54"/>
<path fill-rule="evenodd" clip-rule="evenodd" d="M5.61783 24.5332C5.5156 25.19 5.44449 25.8537 5.4045 26.5243C5.35008 26.6034 5.27897 26.6507 5.19116 26.6665C5.29339 26.0098 5.3645 25.346 5.4045 24.6754C5.45891 24.5963 5.53002 24.549 5.61783 24.5332Z" fill="#8DC6FA"/>
</g>
<defs>
<clipPath id="clip0_4478_45">
<rect width="32" height="32" fill="white"/>
</clipPath>
</defs>
</svg>
