<svg width="32" height="32" viewBox="0 0 32 32" fill="none" xmlns="http://www.w3.org/2000/svg">
    <path
        d="M20.5415 14.3972C19.9933 13.2407 19.454 12.0752 18.838 10.9532C18.2156 9.821 17.2034 9.20377 15.9011 9.21399C14.5515 9.22805 13.6224 9.97307 13.009 11.127C12.6307 11.835 12.2792 12.5621 11.938 13.2892C9.67337 18.1095 7.4113 22.9298 5.14795 27.7513C8.00046 30.3889 11.8115 32.0003 16.0021 32.0003C20.1926 32.0003 24.0088 30.3863 26.86 27.7475L20.5428 14.3972H20.5415ZM15.8896 27.1596C13.9138 27.1647 12.2664 25.5265 12.2728 23.5623C12.2792 21.5522 13.9406 19.9203 15.9969 19.9037C17.9766 19.8883 19.5996 21.4781 19.5958 23.4269C19.592 25.5341 17.9855 27.1532 15.8909 27.1584L15.8896 27.1596Z"
        fill="#059F77" />
    <path
        d="M22.6067 1.42231C20.5938 0.508607 18.356 0 16.0006 0C13.6453 0 11.456 0.498383 9.46108 1.39292C3.88514 3.89378 0 9.49356 0 16.0007C0 17.5469 0.218539 19.0408 0.630057 20.4567C0.84604 21.2056 1.1157 21.9327 1.43392 22.6317C1.44543 22.6573 1.45948 22.6816 1.47099 22.7071C3.20013 18.9846 4.92671 15.262 6.65458 11.5382C7.35876 10.0239 8.01949 8.48785 8.77224 6.99526C11.2784 2.01526 17.7924 1.01338 21.6967 4.98383C22.7741 6.08028 23.3274 7.48725 23.9626 8.84055C26.1442 13.4909 28.3219 18.1437 30.483 22.8055C30.4945 22.78 30.5086 22.7557 30.5201 22.7301C30.869 21.9787 31.1616 21.1966 31.3917 20.389C31.7878 18.9961 32 17.5239 32 16.0019C32 9.5204 28.1468 3.93723 22.6054 1.42359L22.6067 1.42231Z"
        fill="#059F77" />
</svg>