<svg width="32" height="32" viewBox="0 0 32 32" fill="none" xmlns="http://www.w3.org/2000/svg">
<path d="M31.0974 21.9549L18.3498 0C11.907 3.69858 9.6995 11.8901 13.4192 18.2962L19.432 28.6515C20.3251 30.1897 21.7961 31.312 23.5214 31.7718C25.2468 32.2315 27.0851 31.9908 28.632 31.1028C30.1789 30.2148 31.3078 28.7521 31.7701 27.0366C32.2324 25.321 31.9905 23.493 31.0974 21.9549Z" fill="#FF6666"/>
<path d="M13.4461 25.3135C13.4461 21.6207 10.4361 18.627 6.72302 18.627C3.01 18.627 -1.62198e-07 21.6207 0 25.3135C1.62198e-07 29.0064 3.01 32.0001 6.72302 32.0001C10.4361 32.0001 13.4461 29.0064 13.4461 25.3135Z" fill="#202E52"/>
</svg>
