<svg width="32" height="32" viewBox="0 0 32 32" fill="none" xmlns="http://www.w3.org/2000/svg">
    <g clip-path="url(#clip0_4711_1491)">
        <rect width="32" height="32" fill="#150C2F" />
        <path opacity="0.993" fill-rule="evenodd" clip-rule="evenodd"
            d="M31.7891 30.7597C28.8917 30.7597 25.9944 30.7597 23.097 30.7597C23.1662 29.7034 23.0972 28.8073 22.8901 28.071C20.6928 30.2987 18.0024 31.4016 14.8189 31.3801C7.11831 30.9551 2.3238 27.0255 0.435554 19.5913C-0.763332 13.8705 0.512748 8.80335 4.26421 4.39C8.83003 0.664863 13.9348 -0.300287 19.5788 1.4945C20.7773 2.11083 21.8464 2.90366 22.7866 3.87294C22.8899 2.91024 22.9244 1.94506 22.8901 0.977452C24.9642 0.908809 27.0337 0.977763 29.0987 1.18427C30.0501 3.38193 30.9814 5.58803 31.8926 7.80254C32.0646 15.4898 32.03 23.1422 31.7891 30.7597ZM15.2328 8.62983C20.3826 8.98519 22.9006 11.7428 22.7866 16.9027C21.5825 21.2742 18.7197 23.17 14.198 22.5902C11.4886 21.7431 9.86728 19.9162 9.33458 17.1095C8.86314 12.5239 10.8292 9.69737 15.2328 8.62983Z"
            fill="#FAFAFA" />
    </g>
    <defs>
        <clipPath id="clip0_4711_1491">
            <rect width="32" height="32" fill="white" />
        </clipPath>
    </defs>
</svg>