<svg width="32" height="32" viewBox="0 0 33 33" fill="none" xmlns="http://www.w3.org/2000/svg">
    <path fill-rule="evenodd" clip-rule="evenodd"
        d="M6.60908 0.4555C13.0099 0.407498 19.4099 0.4555 25.809 0.599562C29.341 0.928285 31.5228 2.8011 32.3545 6.21801C32.5485 13.133 32.5485 20.048 32.3545 26.963C31.432 30.086 29.3471 31.8629 26.0999 32.2934C19.5059 32.4855 12.9122 32.4855 6.31817 32.2934C3.39222 31.6045 1.50131 29.8279 0.645461 26.963C0.451513 20.048 0.451513 13.133 0.645461 6.21801C1.45884 3.05897 3.44662 1.13813 6.60908 0.4555Z"
        fill="#446DFE" />
    <path fill-rule="evenodd" clip-rule="evenodd"
        d="M25.5181 6.21777C27.313 6.40843 28.0403 7.36883 27.6999 9.09903C26.7644 9.97804 25.6493 10.5063 24.3545 10.6837C23.7386 11.1824 23.3023 11.8067 23.0454 12.5565C23.2164 13.9392 23.4588 15.3318 23.7727 16.7344C22.474 20.6439 23.8314 23.1889 27.8454 24.3697C28.3123 25.2571 28.1182 25.9774 27.2636 26.5306C26.7588 26.7182 26.2739 26.6704 25.809 26.3866C25.2528 23.985 23.7983 22.4003 21.4454 21.6325C20.3967 21.7606 19.3299 21.9047 18.2454 22.0647C17.4082 22.0975 16.6326 21.9055 15.9181 21.4884C13.0992 23.0895 12.4202 22.5133 13.8818 19.7597C13.1737 18.5026 12.5919 17.206 12.1363 15.87C11.4957 15.5754 10.817 15.4314 10.1 15.4378C8.92905 15.5133 7.814 15.8015 6.75451 16.3022C4.81532 15.9182 4.03946 14.7656 4.42724 12.8447C5.27001 11.5035 6.48193 11.0713 8.0636 11.5481C8.97211 13.1705 10.3298 14.1789 12.1363 14.5734C12.5418 14.5386 12.9299 14.4426 13.2999 14.2853C14.1651 12.6534 15.5228 11.645 17.3727 11.26C18.9162 11.4163 20.4676 11.5123 22.0272 11.5481C22.5468 11.3221 22.9831 10.9859 23.3363 10.5397C23.7628 9.52298 24.0537 8.46654 24.209 7.37028C24.6154 6.91783 25.0518 6.53367 25.5181 6.21777Z"
        fill="#FAFAFE" />
    <path fill-rule="evenodd" clip-rule="evenodd"
        d="M15.3362 15.7261C16.4562 15.7839 16.7471 16.3122 16.2089 17.3108C14.693 17.4682 14.4021 16.9399 15.3362 15.7261Z"
        fill="#5474FF" />
    <path fill-rule="evenodd" clip-rule="evenodd"
        d="M17.9544 15.7261C19.0744 15.7839 19.3653 16.3122 18.8271 17.3108C17.3112 17.4682 17.0203 16.9399 17.9544 15.7261Z"
        fill="#5273FE" />
    <path fill-rule="evenodd" clip-rule="evenodd"
        d="M20.5725 15.7261C21.5808 15.9015 21.8717 16.4298 21.4453 17.3108C19.9293 17.4682 19.6384 16.9399 20.5725 15.7261Z"
        fill="#4B6FFE" />
</svg>