<svg width="32" height="32" viewBox="0 0 32 32" fill="none" xmlns="http://www.w3.org/2000/svg">
    <g clip-path="url(#clip0_4147_100)">
        <path opacity="0.98" fill-rule="evenodd" clip-rule="evenodd"
            d="M0.355642 -0.355469C10.5482 -0.355469 20.7409 -0.355469 30.9334 -0.355469C30.9334 0.118606 31.1704 0.355642 31.6445 0.355642C31.6445 10.5482 31.6445 20.7409 31.6445 30.9334C31.1704 30.9334 30.9334 31.1704 30.9334 31.6445C20.7409 31.6445 10.5482 31.6445 0.355642 31.6445C0.355642 31.1704 0.118606 30.9334 -0.355469 30.9334C-0.355469 20.7409 -0.355469 10.5482 -0.355469 0.355642C0.118606 0.355642 0.355642 0.118606 0.355642 -0.355469Z"
            fill="#1DB772" />
        <path fill-rule="evenodd" clip-rule="evenodd"
            d="M11.7334 3.20023C14.5876 3.08254 17.4321 3.20105 20.2667 3.55579C22.1173 4.18401 23.6581 5.25067 24.8889 6.75579C25.1259 12.6817 25.363 18.6077 25.6 24.5336C27.3548 26.4903 26.8807 27.4385 24.1778 27.378C22.6522 27.452 21.3484 26.9779 20.2667 25.9558C15.137 29.0067 10.2777 28.7697 5.68892 25.2447C3.39123 18.7627 5.64308 14.8516 12.4445 13.5113C15.0545 13.1215 17.662 12.766 20.2667 12.4447C20.7346 8.75394 19.0754 7.09468 15.2889 7.4669C12.3012 7.37488 10.642 8.7971 10.3111 11.7336C8.65191 11.7336 6.99262 11.7336 5.33336 11.7336C5.42439 7.25982 7.55772 4.41539 11.7334 3.20023Z"
            fill="#F8FDFB" />
        <path fill-rule="evenodd" clip-rule="evenodd"
            d="M17.4222 16.7109C18.3704 16.7109 19.3186 16.7109 20.2667 16.7109C20.6515 21.3054 18.5182 23.6758 13.8667 23.822C10.6598 24.0547 9.35612 22.6325 9.95558 19.5554C12.2909 18.0509 14.7798 17.1027 17.4222 16.7109Z"
            fill="#28B875" />
    </g>
    <defs>
        <clipPath id="clip0_4147_100">
            <rect width="32" height="32" fill="white" />
        </clipPath>
    </defs>
</svg>