<svg width="32" height="32" viewBox="0 0 32 32" fill="none" xmlns="http://www.w3.org/2000/svg">
<path opacity="0.847" fill-rule="evenodd" clip-rule="evenodd" d="M23.3846 2.60893C23.3846 4.63892 23.3846 6.66878 23.3846 8.69876C17.7248 8.33337 12.1863 8.73932 6.76923 9.91673C5.94868 14.3826 5.94868 18.8484 6.76923 23.3144C7.59483 24.2308 8.62043 24.6368 9.84616 24.5323C9.84616 26.1562 9.84616 27.7803 9.84616 29.4042C6.62228 29.731 3.54536 29.325 0.615388 28.1862C-0.205129 20.4725 -0.205129 12.7586 0.615388 5.04486C1.23077 4.43588 1.84616 3.8269 2.46154 3.21792C9.42388 2.60966 16.3983 2.40663 23.3846 2.60893Z" fill="#1CAE9A"/>
<path opacity="0.861" fill-rule="evenodd" clip-rule="evenodd" d="M23.3842 2.60734C26.5586 2.09982 29.2252 2.91183 31.3842 5.04328C32.2047 12.757 32.2047 20.4709 31.3842 28.1846C24.3181 29.372 17.1385 29.778 9.8457 29.4026C9.8457 27.7787 9.8457 26.1547 9.8457 24.5307C15.098 24.8925 20.2261 24.4865 25.2303 23.3128C26.0509 18.8469 26.0509 14.3811 25.2303 9.91514C24.7594 9.23795 24.144 8.832 23.3842 8.69718C23.3842 6.66719 23.3842 4.63733 23.3842 2.60734Z" fill="#488ECB"/>
</svg>

