<svg width="32" height="32" viewBox="0 0 32 32" fill="none" xmlns="http://www.w3.org/2000/svg">
    <path fill-rule="evenodd" clip-rule="evenodd"
        d="M27.584 19.2712C27.584 20.6934 29.1555 22.8267 31.3458 23.9503C28.6773 23.964 26.0467 23.3192 23.6871 22.0729C25.2832 20.4739 26.1938 18.3161 26.2258 16.0569C26.1904 14.657 25.828 13.2847 25.1674 12.05C24.5067 10.8152 23.5663 9.75212 22.4213 8.94584C21.3921 8.1732 20.2568 7.5529 19.0507 7.10406C19.4573 7.06854 19.8656 7.0543 20.2738 7.06139C22.7115 6.98357 25.1034 7.73573 27.0578 9.19473C27.9095 9.78757 28.6104 10.5717 29.1044 11.4843C29.5983 12.3969 29.8716 13.4126 29.9022 14.4498C29.8784 15.3635 29.6592 16.2614 29.2593 17.0832C28.8594 17.9051 28.2882 18.6317 27.584 19.2143"
        fill="#71C7EF" />
    <path fill-rule="evenodd" clip-rule="evenodd"
        d="M5.68891 21.5041C5.68891 23.033 3.93957 25.4365 1.42224 26.6668C4.7641 26.6976 8.04946 25.8042 10.9156 24.0854C11.8804 24.2793 12.8613 24.3816 13.8454 24.3912C16.5825 24.4405 19.2586 23.5801 21.4542 21.945C22.408 21.2831 23.191 20.4041 23.7386 19.3805C24.2863 18.3568 24.5831 17.2177 24.6045 16.057C24.5697 14.9019 24.267 13.7707 23.7203 12.7526C23.1736 11.7345 22.3979 10.8574 21.4542 10.1903C19.2233 8.62774 16.5655 7.78955 13.8418 7.78955C11.1181 7.78955 8.4603 8.62774 6.22935 10.1903C5.28625 10.8573 4.51128 11.7347 3.96576 12.7529C3.42024 13.7711 3.11913 14.9023 3.08624 16.057C3.10205 17.0988 3.34281 18.1249 3.79202 19.0651C4.24123 20.0052 4.88829 20.8372 5.68891 21.5041ZM8.46224 19.7548C8.46224 20.8001 7.23913 22.4641 5.57513 23.3103C7.86984 23.3455 10.1278 22.7317 12.0889 21.5396C12.752 21.6664 13.4263 21.726 14.1014 21.7174C15.9711 21.7575 17.8007 21.1719 19.2996 20.0534C19.9704 19.6228 20.5223 19.0305 20.9046 18.331C21.2868 17.6314 21.4871 16.847 21.4871 16.0499C21.4871 15.2527 21.2868 14.4683 20.9046 13.7688C20.5223 13.0692 19.9704 12.4769 19.2996 12.0463C17.7795 10.9676 15.9617 10.3882 14.0978 10.3882C12.2339 10.3882 10.4161 10.9676 8.89602 12.0463C8.23511 12.492 7.68897 13.0877 7.30215 13.7847C6.91533 14.4817 6.6988 15.2603 6.67024 16.057C6.68952 16.7642 6.85932 17.4591 7.16833 18.0955C7.47733 18.7319 7.91843 19.2951 8.46224 19.7476"
        fill="#9B7CB7" />
</svg>