<svg width="32" height="32" viewBox="0 0 32 32" fill="none" xmlns="http://www.w3.org/2000/svg">
    <g clip-path="url(#clip0_4335_1337)">
        <rect width="32" height="32" fill="#FAFAFA" />
        <path opacity="0.96" fill-rule="evenodd" clip-rule="evenodd"
            d="M15.5193 0C16.1144 0 16.7096 0 17.3047 0C19.7503 0.182875 22.0621 0.86957 24.2403 2.06009C24.3319 11.3534 24.3319 20.6466 24.2403 29.9399C22.0588 31.1177 19.7468 31.8044 17.3047 32C16.7553 32 16.206 32 15.6566 32C9.42334 31.4136 4.86826 28.3462 1.99138 22.7983C1.29382 21.1957 0.813135 19.5476 0.549316 17.8541C0.549316 16.618 0.549316 15.382 0.549316 14.1459C1.47438 8.1618 4.67895 3.88141 10.1631 1.30472C11.9088 0.627829 13.6942 0.192921 15.5193 0ZM15.5193 3.29614C17.4004 3.25653 19.2315 3.53121 21.0128 4.12017C21.0128 12.0401 21.0128 19.9599 21.0128 27.8798C15.0978 29.7034 10.1765 28.2386 6.24889 23.485C3.52004 19.4144 3.10803 15.1111 5.01284 10.5751C7.26076 6.32755 10.7629 3.90123 15.5193 3.29614Z"
            fill="black" />
        <path opacity="0.965" fill-rule="evenodd" clip-rule="evenodd"
            d="M27.8799 3.02148C29.1012 3.76176 30.1771 4.67735 31.1074 5.76827C31.199 12.5437 31.199 19.3191 31.1074 26.0944C30.2175 27.1437 29.1874 28.0136 28.0173 28.7039C27.8799 20.1435 27.8342 11.5828 27.8799 3.02148Z"
            fill="black" />
    </g>
    <defs>
        <clipPath id="clip0_4335_1337">
            <rect width="32" height="32" fill="white" />
        </clipPath>
    </defs>
</svg>