<svg width="32" height="32" viewBox="0 0 33 32" fill="none" xmlns="http://www.w3.org/2000/svg">
    <path
        d="M30.6171 7.96649L18.0992 0.498441C17.5704 0.184365 16.9733 0.0129589 16.3633 8.12262e-05C15.7509 -0.00429592 15.1496 0.168315 14.6273 0.498441L2.09575 7.96649C1.57102 8.27885 1.13484 8.72786 0.830808 9.26865C0.52678 9.80945 0.36556 10.4232 0.363281 11.0484V26.0235C0.371348 26.648 0.535032 27.2598 0.838444 27.8002C1.14186 28.3406 1.57483 28.7912 2.09575 29.1089L2.96547 29.6073L6.96463 32V25.0762L16.3633 19.5026L25.762 25.0762V31.9435L29.7611 29.5543L30.6308 29.0064C31.1559 28.6935 31.5922 28.2439 31.8962 27.7025C32.2002 27.161 32.3612 26.5468 32.3633 25.921V10.9954C32.3484 10.3784 32.18 9.77558 31.8741 9.24512C31.5683 8.71466 31.1354 8.27434 30.6171 7.96649ZM25.6661 17.2159L18.0513 12.6212C17.5231 12.3056 16.9256 12.134 16.3153 12.1229C15.7028 12.1168 15.101 12.2895 14.5794 12.6212L6.91666 17.2159V12.8863L14.7746 8.2104C15.2373 7.94029 15.7598 7.79838 16.2914 7.79838C16.823 7.79838 17.3455 7.94029 17.8082 8.2104L25.6832 12.8863L25.6661 17.2159Z"
        fill="#50B95D" />
</svg>