<svg width="32" height="32" viewBox="0 0 32 32" fill="none" xmlns="http://www.w3.org/2000/svg">
    <g clip-path="url(#clip0_4492_45)">
        <rect width="32" height="32" fill="#FAFAFA" />
        <path opacity="0.996" fill-rule="evenodd" clip-rule="evenodd"
            d="M16.0084 -0.00878906C16.0255 -0.00878906 16.0425 -0.00878906 16.0596 -0.00878906C19.8413 2.18031 23.628 4.36368 27.4199 6.54132C27.4399 10.8114 27.4426 15.0815 27.4284 19.3516C27.0499 19.5791 26.6661 19.7952 26.2771 19.9997C26.28 15.7183 26.2771 11.4368 26.2685 7.15539C26.0318 7.27375 25.793 7.38748 25.5521 7.49654C25.5465 11.8121 25.5407 16.1277 25.535 20.4432C24.9658 20.7764 24.3944 21.1063 23.8208 21.4326C23.8066 17.117 23.7981 12.8015 23.7952 8.48588C23.5292 8.63739 23.2591 8.78238 22.9849 8.92085C22.9708 13.2551 22.9623 17.5905 22.9594 21.9272C21.953 22.5128 20.9466 23.0986 19.9402 23.6842C19.9345 18.7148 19.9288 13.7453 19.9231 8.77586C16.6552 6.99266 13.3887 5.20731 10.1235 3.41978C10.1317 3.4031 10.143 3.38889 10.1577 3.37714C12.1145 2.25666 14.0648 1.12801 16.0084 -0.00878906Z"
            fill="#074A7A" />
        <path opacity="0.995" fill-rule="evenodd" clip-rule="evenodd"
            d="M9.5948 3.69338C9.6447 3.6927 9.69017 3.70691 9.73126 3.73603C12.9878 5.55049 16.2429 7.36712 19.4967 9.18592C19.5109 14.1042 19.5081 19.0225 19.4882 23.9407C18.4548 24.5355 17.4228 25.1325 16.3922 25.7318C16.3894 23.7319 16.3808 21.7335 16.3667 19.736C15.7696 19.4319 15.1726 19.1276 14.5756 18.8234C14.5642 20.9045 14.5529 22.9855 14.5415 25.0665C13.2238 24.3068 11.9076 23.5448 10.5927 22.7808C10.5898 20.7851 10.5813 18.7893 10.5671 16.7936C9.91322 16.4183 9.25933 16.0431 8.60546 15.6678C8.59409 17.6521 8.58273 19.6366 8.57135 21.6209C7.32046 20.8988 6.06957 20.1766 4.81868 19.4546C4.79878 15.1277 4.79594 10.8007 4.81015 6.47377C6.40751 5.54867 8.00239 4.62188 9.5948 3.69338ZM9.98713 7.48016C10.1284 7.5377 10.2677 7.60025 10.405 7.6678C10.4192 9.50435 10.4164 11.3409 10.3965 13.1774C9.78385 12.7986 9.17261 12.4176 8.56282 12.0345C8.55144 10.795 8.55144 9.55551 8.56282 8.31598C9.04287 8.04337 9.51763 7.76477 9.98713 7.48016ZM12.4093 8.17952C13.7095 8.9223 15.0059 9.67283 16.2984 10.4311C16.3183 12.3188 16.3212 14.2065 16.307 16.0942C15.7441 15.7701 15.1812 15.446 14.6183 15.122C14.6126 13.6664 14.6069 12.2108 14.6012 10.7552C13.8666 9.8985 13.136 9.03992 12.4093 8.17952Z"
            fill="#074A7A" />
        <path opacity="0.985" fill-rule="evenodd" clip-rule="evenodd"
            d="M25.4072 26.4475C25.9138 26.4118 26.4084 26.4715 26.8912 26.6266C27.0027 26.6667 27.1109 26.715 27.2153 26.7716C27.2209 26.783 27.2267 26.7943 27.2323 26.8057C27.109 27.1358 26.9725 27.4599 26.8229 27.778C26.4789 27.5946 26.1121 27.4923 25.7227 27.471C25.5762 27.4718 25.4368 27.503 25.3048 27.5648C25.2204 27.6253 25.2004 27.7021 25.2451 27.795C25.2888 27.8467 25.3428 27.8837 25.4072 27.9059C25.7301 27.9842 26.0541 28.0581 26.3794 28.1277C26.7032 28.2027 26.979 28.3591 27.2067 28.5968C27.3867 28.8594 27.4493 29.1494 27.3944 29.4667C27.2842 29.9467 26.9969 30.2735 26.533 30.4475C26.216 30.5602 25.889 30.6141 25.5521 30.6095C24.9693 30.6135 24.4149 30.4913 23.889 30.2428C23.8578 30.2275 23.8351 30.2048 23.8208 30.1746C23.9578 29.8466 24.1057 29.5254 24.2643 29.2108C24.7636 29.4948 25.298 29.6057 25.8677 29.5434C25.9516 29.5276 26.017 29.4849 26.0639 29.4155C26.0726 29.2872 26.0129 29.2049 25.8848 29.1682C25.5392 29.0786 25.1922 28.9933 24.8443 28.9123C23.9673 28.6396 23.6915 28.0738 24.017 27.2151C24.2329 26.8744 24.537 26.6498 24.9295 26.5413C25.0894 26.5005 25.2485 26.4693 25.4072 26.4475Z"
            fill="#074A7A" />
        <path opacity="0.988" fill-rule="evenodd" clip-rule="evenodd"
            d="M4.49463 30.5079C4.49463 30.5023 4.49463 30.4965 4.49463 30.4909C5.07153 29.1749 5.65148 27.8585 6.2345 26.542C6.68207 26.5279 7.12842 26.5308 7.57352 26.5506C8.14375 27.8701 8.72086 29.1863 9.30486 30.4994C8.83283 30.5135 8.36091 30.5108 7.88909 30.4909C7.8038 30.2747 7.71851 30.0588 7.63322 29.8427C7.13299 29.8256 6.63264 29.82 6.13216 29.8256C6.05534 30.0532 5.97005 30.2778 5.87629 30.4994C5.41577 30.5079 4.95522 30.5108 4.49463 30.5079ZM6.88269 27.8981C7.00907 28.2116 7.13415 28.5272 7.25796 28.8448C7.01354 28.8533 6.76903 28.8562 6.52448 28.8533C6.63714 28.5325 6.75655 28.214 6.88269 27.8981Z"
            fill="#074A7A" />
        <path opacity="0.987" fill-rule="evenodd" clip-rule="evenodd"
            d="M9.49268 26.5333C10.2148 26.5304 10.9369 26.5333 11.659 26.5418C12.161 26.564 12.5846 26.7546 12.9298 27.1133C13.1864 27.4575 13.2831 27.8442 13.2198 28.2732C13.1516 28.7368 12.9099 29.0752 12.4948 29.2881C12.7656 29.6905 13.0385 30.0914 13.3136 30.4907C12.8304 30.5106 12.3471 30.5134 11.8637 30.4992C11.6419 30.1751 11.4202 29.851 11.1984 29.5269C11.0849 29.5184 10.9711 29.5155 10.8573 29.5184C10.8573 29.8481 10.8573 30.178 10.8573 30.5077C10.4024 30.5077 9.94755 30.5077 9.49268 30.5077C9.49268 29.1829 9.49268 27.8582 9.49268 26.5333ZM10.8573 27.5738C11.028 27.5709 11.1985 27.5738 11.369 27.5824C11.7342 27.6008 11.8963 27.7911 11.8551 28.1538C11.7951 28.3505 11.6615 28.4613 11.4543 28.4864C11.2554 28.4949 11.0564 28.4978 10.8573 28.4949C10.8573 28.1879 10.8573 27.8809 10.8573 27.5738Z"
            fill="#074A7A" />
        <path opacity="0.987" fill-rule="evenodd" clip-rule="evenodd"
            d="M13.7056 26.5333C14.0809 26.5304 14.4562 26.5333 14.8314 26.5418C15.2599 27.2313 15.6864 27.9221 16.1107 28.6143C16.5319 27.9283 16.947 27.2375 17.3559 26.5418C17.7311 26.5333 18.1064 26.5304 18.4817 26.5333C18.4817 27.8582 18.4817 29.1829 18.4817 30.5077C18.0723 30.5077 17.6629 30.5077 17.2535 30.5077C17.2616 29.9269 17.2531 29.347 17.228 28.7679C16.9507 29.2257 16.6778 29.6862 16.4092 30.1495C16.2027 30.172 15.9952 30.172 15.7866 30.1495C15.5074 29.7082 15.2317 29.2647 14.9593 28.819C14.9508 29.3819 14.9479 29.9448 14.9508 30.5077C14.5357 30.5077 14.1206 30.5077 13.7056 30.5077C13.7056 29.1829 13.7056 27.8582 13.7056 26.5333Z"
            fill="#074A7A" />
        <path opacity="0.987" fill-rule="evenodd" clip-rule="evenodd"
            d="M20.8019 26.5332C21.6946 26.5332 22.5873 26.5332 23.48 26.5332C23.488 27.4831 23.4795 28.4327 23.4544 29.3818C23.3604 30.0104 23.0049 30.3998 22.3883 30.5503C21.8317 30.6697 21.2973 30.6072 20.7849 30.3626C20.6212 30.2727 20.4848 30.1533 20.3755 30.0044C20.611 29.7129 20.8526 29.4257 21.1004 29.143C21.2266 29.3267 21.3944 29.4547 21.6036 29.5268C21.911 29.588 22.0901 29.4657 22.1409 29.1601C22.1495 28.6257 22.1524 28.0912 22.1495 27.5567C21.7003 27.5567 21.2511 27.5567 20.8019 27.5567C20.8019 27.2155 20.8019 26.8744 20.8019 26.5332Z"
            fill="#074A7A" />
    </g>
    <defs>
        <clipPath id="clip0_4492_45">
            <rect width="32" height="32" fill="white" />
        </clipPath>
    </defs>
</svg>