<svg width="32" height="32" viewBox="0 0 32 32" fill="none" xmlns="http://www.w3.org/2000/svg">
    <rect width="32" height="32" fill="black" />
    <path
        d="M16.7093 7.72656L10.814 9.27321C10.4666 11.1654 9.55966 12.9157 8.20594 14.3065C6.85223 15.6972 5.11149 16.667 3.2002 17.0953L4.7012 22.521C8.09318 21.7115 11.1142 19.8185 13.2882 17.1399C15.4623 14.4614 16.6658 11.1497 16.7093 7.72656Z"
        fill="#FAFAFA" />
    <path
        d="M23.888 7.53434C23.8866 6.55942 24.0345 5.58983 24.3266 4.65795L18.7903 3.2002C17.8115 6.48435 17.9731 9.99431 19.2495 13.1787C20.526 16.363 22.8449 19.0413 25.8422 20.7928L27.423 15.008C26.3142 14.0898 25.4235 12.9453 24.8129 11.6544C24.2023 10.3635 23.8866 8.95736 23.888 7.53434Z"
        fill="#FAFAFA" />
    <path
        d="M17.427 20.0499C14.7296 20.0433 12.0765 20.722 9.72607 22.0195L14.0551 26.2471C15.8955 25.6015 17.8885 25.4993 19.7875 25.953C21.6866 26.4067 23.4084 27.3966 24.7398 28.7999L28.8005 24.8213C27.3338 23.3111 25.5692 22.1092 23.614 21.2889C21.6586 20.4686 19.5536 20.047 17.427 20.0499Z"
        fill="#FAFAFA" />
</svg>