<svg width="32" height="32" viewBox="0 0 32 32" fill="none" xmlns="http://www.w3.org/2000/svg">
    <g clip-path="url(#clip0_2034_288)">
        <path opacity="0.966" fill-rule="evenodd" clip-rule="evenodd"
            d="M15.9375 3.0625C16.7709 4.41596 17.1875 5.89513 17.1875 7.5C17.1475 8.56868 17.0432 9.63118 16.875 10.6875C16.1223 14.2489 15.4972 17.8321 15 21.4375C14.6876 24.0628 15.0001 26.6044 15.9375 29.0625C13.3758 26.3365 12.5841 23.149 13.5625 19.5C11.306 19.1598 9.056 18.7848 6.8125 18.375C2.67163 16.8595 0.504955 13.9012 0.3125 9.5C0.371756 5.69237 2.08009 2.90071 5.4375 1.125C8.45104 -0.0567275 11.4094 0.0682725 14.3125 1.5C14.97 1.90994 15.5118 2.43077 15.9375 3.0625ZM8.9375 4.0625C11.4598 3.97916 13.2724 5.0625 14.375 7.3125C14.7371 8.55011 14.7789 9.80011 14.5 11.0625C14.2891 12.0725 14.0391 13.0725 13.75 14.0625C13.6644 14.3821 13.4769 14.6114 13.1875 14.75C11.0187 15.0165 8.89369 14.8081 6.8125 14.125C4.40298 12.607 3.59048 10.4612 4.375 7.6875C5.25549 5.66001 6.77632 4.45167 8.9375 4.0625Z"
            fill="#39A2E8" />
        <path opacity="0.966" fill-rule="evenodd" clip-rule="evenodd"
            d="M15.9374 3.0625C17.8121 4.82808 18.7287 7.01557 18.6874 9.625C18.6848 10.6048 18.5598 11.5631 18.3124 12.5C20.6999 12.8492 23.0749 13.266 25.4374 13.75C29.3908 15.3284 31.4326 18.2451 31.5624 22.5C31.4581 26.5839 29.5414 29.4589 25.8124 31.125C23.0151 32.0415 20.3067 31.8331 17.6874 30.5C17.0441 30.085 16.4607 29.6059 15.9374 29.0625C15.0001 26.6044 14.6876 24.0628 14.9999 21.4375C15.4972 17.8321 16.1222 14.2489 16.8749 10.6875C17.0432 9.63118 17.1474 8.56868 17.1874 7.5C17.1874 5.89513 16.7708 4.41596 15.9374 3.0625ZM19.0624 17.0625C20.7449 17.0317 22.4117 17.1776 24.0624 17.5C26.8191 18.4479 28.0483 20.3854 27.7499 23.3125C26.8288 26.6785 24.6413 28.1576 21.1874 27.75C17.8927 26.6417 16.6219 24.3709 17.3749 20.9375C17.5848 19.7014 17.9389 18.5139 18.4374 17.375C18.6643 17.2804 18.8726 17.1763 19.0624 17.0625Z"
            fill="#187FC2" />
    </g>
    <defs>
        <clipPath id="clip0_2034_288">
            <rect width="32" height="32" fill="white" />
        </clipPath>
    </defs>
</svg>