<svg width="32" height="32" viewBox="0 0 32 32" fill="none" xmlns="http://www.w3.org/2000/svg">
    <g clip-path="url(#clip0_2587_243)">
        <path d="M0 0H32V32H0V0Z" fill="#2B2B2B" />
        <path fill-rule="evenodd" clip-rule="evenodd"
            d="M32.0001 1.18555C32.0001 1.97452 32.0001 2.76351 32.0001 3.55249C30.93 3.5474 29.9436 3.84326 29.0412 4.44009C24.6631 8.78306 21.9014 14.0101 20.7563 20.1211C19.8301 21.31 19.2383 22.6908 18.981 24.2632C18.6684 24.9855 18.2738 25.6758 17.7974 26.3343C13.0673 26.63 8.33304 26.7286 3.59473 26.6301C3.59473 26.2356 3.59473 25.8412 3.59473 25.4467C7.69209 24.2849 12.0318 23.8905 16.6139 24.2632C18.3793 17.7756 20.9437 11.661 24.307 5.91942C26.0312 2.98587 28.5956 1.40791 32.0001 1.18555Z"
            fill="#21679B" />
        <path fill-rule="evenodd" clip-rule="evenodd"
            d="M8.32887 15.3874C5.96176 15.3874 3.59464 15.3874 1.22752 15.3874C0.731494 15.1853 0.534195 14.7907 0.635744 14.204C3.26975 13.4187 6.13 13.0242 9.21654 13.0205C12.0768 13.2177 14.9371 13.415 17.7973 13.6122C17.6001 14.0068 17.4028 14.4012 17.2056 14.7957C14.2727 15.384 11.3138 15.5812 8.32887 15.3874Z"
            fill="#20689E" />
        <path fill-rule="evenodd" clip-rule="evenodd"
            d="M24.3067 5.91961C20.9434 11.6612 18.379 17.7758 16.6136 24.2634C12.0316 23.8907 7.69184 24.2851 3.59448 25.4469C3.05951 25.0273 2.86227 24.4356 3.0027 23.6717C6.75582 23.77 10.5037 23.6714 14.2465 23.3758C15.6838 23.1088 15.7825 22.6157 14.5424 21.8964C13.8874 22.6136 13.5915 22.4163 13.6547 21.3047C14.2465 21.3047 14.8383 21.3047 15.4301 21.3047C15.3832 20.4582 15.5805 19.6693 16.0218 18.9378C11.304 18.3474 6.56976 18.1502 1.81914 18.346C1.45377 18.4115 1.15788 18.6088 0.931469 18.9378C0.469586 18.0835 0.568176 17.2945 1.22736 16.5708C1.4246 16.9653 1.6219 17.3598 1.81914 17.7543C2.42246 17.0518 3.11283 16.4601 3.89037 15.9791C4.08761 16.3736 4.2849 16.7681 4.48214 17.1626C4.91136 16.1815 5.60179 15.8856 6.55337 16.275C5.69168 16.525 5.39579 17.0181 5.6657 17.7543C6.66835 17.0449 7.55602 16.2559 8.32871 15.3874C11.3136 15.5812 14.2725 15.3839 17.2054 14.7956C17.4026 14.4011 17.5999 14.0067 17.7972 13.6122C14.9369 13.4149 12.0766 13.2177 9.21638 13.0204C6.12984 13.0242 3.26959 13.4186 0.63558 14.2039C0.100611 13.7844 -0.0966287 13.1926 0.0438005 12.4287C4.99102 12.6247 9.92249 12.4274 14.8383 11.837C14.5414 11.1172 14.3442 10.4268 14.2465 9.76589C15.3673 9.11433 15.7618 8.32531 15.4301 7.39895C14.1366 7.04178 14.038 6.3514 15.1342 5.32788C15.8028 7.58221 16.9864 9.55464 18.6848 11.2452C19.2506 10.607 19.7438 9.9166 20.1643 9.17415C19.9671 8.58242 19.7698 7.99068 19.5725 7.39895C20.8676 6.3053 20.8676 5.4177 19.5725 4.73614C20.3705 4.08488 21.2581 3.49314 22.2355 2.96094C22.3677 4.36974 23.0581 5.35598 24.3067 5.91961Z"
            fill="#2C2E2F" />
        <path fill-rule="evenodd" clip-rule="evenodd"
            d="M1.81922 18.3457C6.56985 18.1498 11.3041 18.347 16.0219 18.9374C15.5806 19.6689 15.3833 20.4579 15.4301 21.3043C14.8384 21.3043 14.2466 21.3043 13.6548 21.3043C9.90169 21.4027 6.15377 21.304 2.411 21.0085C1.89012 20.206 1.69288 19.3184 1.81922 18.3457Z"
            fill="#235D89" />
    </g>
    <defs>
        <clipPath id="clip0_2587_243">
            <rect width="32" height="32" fill="white" />
        </clipPath>
    </defs>
</svg>