<svg width="32" height="32" viewBox="0 0 32 32" fill="none" xmlns="http://www.w3.org/2000/svg">
    <g clip-path="url(#clip0_3693_135)">
        <path fill-rule="evenodd" clip-rule="evenodd"
            d="M23.5379 2.77314C23.5395 2.98895 23.6342 3.15488 23.8223 3.27092C24.6536 3.62799 25.4121 4.10205 26.0979 4.69314C26.5961 5.33801 27.1412 5.93061 27.7335 6.47092C28.8341 7.9711 29.7112 9.58294 30.3646 11.3065C30.3353 11.7324 30.43 12.1117 30.649 12.4443C30.649 12.5865 30.649 12.7287 30.649 12.8709C30.8109 14.383 30.9056 15.9001 30.9335 17.422C30.4684 21.2663 28.8566 24.5137 26.0979 27.1643C25.2881 27.9469 24.3874 28.5869 23.3957 29.0843C18.3427 31.7846 13.3175 31.7373 8.32012 28.942C3.5231 25.9357 1.05792 21.5744 0.924561 15.8576C1.14898 10.2391 3.61417 5.92497 8.32012 2.91537C11.352 1.16455 14.6231 0.524554 18.1334 0.995367C20.0059 1.43425 21.8075 2.02685 23.5379 2.77314Z"
            fill="#FDFDFD" />
        <path fill-rule="evenodd" clip-rule="evenodd"
            d="M19.8399 5.04883C22.254 5.25863 23.5577 6.58605 23.751 9.03105C23.716 12.6174 23.3367 16.1729 22.6132 19.6977C22.2562 21.4574 21.8769 23.2115 21.4754 24.9599C21.293 25.484 20.961 25.6738 20.4799 25.5288C20.3921 23.3941 20.4157 21.2607 20.551 19.1288C18.4691 19.3723 16.3832 19.5619 14.2932 19.6977C13.3486 21.5112 12.4715 23.3601 11.6621 25.2444C11.3234 25.9623 10.8019 26.4839 10.0977 26.8088C9.67845 26.7734 9.51252 26.5363 9.59988 26.0977C9.82869 24.0125 10.2554 21.974 10.8799 19.9822C9.35765 20.016 7.84061 19.9449 6.32877 19.7688C4.57267 19.3405 4.47785 18.7242 6.04433 17.9199C6.55957 17.7555 7.08104 17.6133 7.60877 17.4933C9.03181 17.3316 10.454 17.1657 11.8754 16.9955C13.2489 13.4417 15.0267 10.1231 17.2088 7.03994C17.9179 6.11281 18.7948 5.4491 19.8399 5.04883Z"
            fill="#222222" />
        <path fill-rule="evenodd" clip-rule="evenodd"
            d="M20.1245 8.32002C20.3933 8.29108 20.6066 8.38589 20.7645 8.60446C20.8276 11.6416 20.7565 14.6756 20.5512 17.7067C18.829 17.6573 17.1223 17.4678 15.4312 17.1378C16.7305 14.0359 18.2949 11.0966 20.1245 8.32002Z"
            fill="#F8F8F8" />
        <path fill-rule="evenodd" clip-rule="evenodd"
            d="M30.3646 11.3066C30.5449 11.6487 30.6398 12.028 30.649 12.4444C30.43 12.1119 30.3353 11.7326 30.3646 11.3066Z"
            fill="#F6EE97" />
        <path fill-rule="evenodd" clip-rule="evenodd"
            d="M30.6489 12.8711C30.9288 13.8761 31.071 14.9191 31.0756 16C31.1201 16.5037 31.0726 16.9778 30.9334 17.4222C30.9055 15.9003 30.8108 14.3832 30.6489 12.8711Z"
            fill="#FBEFCE" />
    </g>
    <defs>
        <clipPath id="clip0_3693_135">
            <rect width="32" height="32" fill="white" />
        </clipPath>
    </defs>
</svg>