<svg width="32" height="32" viewBox="0 0 32 32" fill="none" xmlns="http://www.w3.org/2000/svg">
    <g clip-path="url(#clip0_2799_225)">
        <path opacity="0.921" fill-rule="evenodd" clip-rule="evenodd"
            d="M13.8002 -0.19043C15.0002 -0.19043 16.2002 -0.19043 17.4002 -0.19043C22.4142 1.81644 27.2142 4.22915 31.8002 7.04767C31.8002 7.17464 31.8002 7.30165 31.8002 7.42862C26.2784 8.28054 21.3451 10.3758 17.0002 13.7143C16.3824 14.1666 15.7158 14.2936 15.0002 14.0953C10.6976 10.6501 5.76428 8.42786 0.200195 7.42862C4.25816 4.10016 8.79148 1.56048 13.8002 -0.19043Z"
            fill="#F9BF48" />
        <path opacity="0.942" fill-rule="evenodd" clip-rule="evenodd"
            d="M-0.200195 9.33301C5.28968 10.3603 10.223 12.519 14.5998 15.8092C14.9995 21.1365 15.1328 26.4698 14.9998 31.8092C14.3331 31.8092 13.6665 31.8092 12.9998 31.8092C8.20368 30.2236 3.80367 27.9379 -0.200195 24.9521C-0.200195 19.7457 -0.200195 14.5394 -0.200195 9.33301Z"
            fill="#F9BF48" />
        <path opacity="0.939" fill-rule="evenodd" clip-rule="evenodd"
            d="M31.8002 9.33301C31.8002 14.5394 31.8002 19.7457 31.8002 24.9521C27.9117 28.1369 23.5117 30.4226 18.6002 31.8092C17.9335 31.8092 17.2669 31.8092 16.6002 31.8092C16.5335 26.4743 16.6002 21.141 16.8002 15.8092C21.2751 12.5675 26.2751 10.4088 31.8002 9.33301Z"
            fill="#F9BF48" />
    </g>
    <defs>
        <clipPath id="clip0_2799_225">
            <rect width="32" height="32" fill="white" />
        </clipPath>
    </defs>
</svg>