<svg width="32" height="32" viewBox="0 0 32 32" fill="none" xmlns="http://www.w3.org/2000/svg">
    <g clip-path="url(#clip0_2497_111)">
        <path
            d="M18.6616 1.51989C18.0542 0.536483 17.0292 1.64663e-07 15.9825 1.64663e-07C15.3739 -0.000199926 14.7781 0.18196 14.2669 0.524564C13.4244 1.08725 12.9237 1.99356 12.8243 2.95345C12.7809 3.37557 12.6587 9.58593 12.6587 9.58593L14.3677 8.64419C14.447 8.58691 14.5413 8.55618 14.638 8.55613C14.7171 8.55597 14.795 8.57644 14.8646 8.61566C14.9341 8.65487 14.993 8.71158 15.0359 8.78056C15.6075 9.69654 15.8088 10.0885 15.9987 10.4061C16.6377 11.4729 17.7346 12.0453 18.8423 12.0453C19.4699 12.0453 20.101 11.8616 20.6546 11.4801C22.1855 10.4256 22.6151 8.21552 21.614 6.544C21.0535 5.60816 19.1929 2.38003 18.6616 1.51989ZM30.8015 10.4183C30.2353 9.93513 29.5248 9.67122 28.7915 9.67173C28.5703 9.67173 28.3498 9.69557 28.1331 9.74293C27.7337 9.83034 22.0136 11.6283 22.0136 11.6283L23.4034 13.0272C23.454 13.0672 23.4964 13.1173 23.528 13.1746C23.5596 13.2318 23.5798 13.2951 23.5874 13.3606C23.595 13.4261 23.5899 13.4925 23.5723 13.5559C23.5547 13.6193 23.525 13.6784 23.485 13.7297C22.8236 14.5779 22.527 14.8978 22.2953 15.1839C21.0755 16.6901 21.3134 18.931 22.7515 20.1186C23.3594 20.6208 24.096 20.8642 24.8355 20.8642C25.3558 20.8634 25.8697 20.7445 26.341 20.5161C26.8124 20.2876 27.2299 19.9551 27.5642 19.5417C28.2473 18.6982 30.626 15.8617 31.2487 15.0701C32.361 13.6576 32.1609 11.5745 30.8015 10.4183ZM26.6519 26.9749C26.4484 26.6066 23.0357 21.5078 23.0357 21.5078L22.1853 23.3138C22.1531 23.4103 22.0927 23.494 22.0125 23.5534C21.9323 23.6127 21.8363 23.6447 21.7378 23.6449C21.6814 23.6449 21.6239 23.6343 21.5679 23.6115C20.5875 23.2199 20.2028 23.0256 19.8695 22.8849C19.4708 22.716 19.0443 22.629 18.6135 22.6288C17.2576 22.6288 15.9862 23.4928 15.4955 24.8606C14.8532 26.6492 15.7555 28.6997 17.5104 29.4403C18.4931 29.8549 21.8237 31.3298 22.7402 31.7007C23.1078 31.8504 23.4992 31.9273 23.8942 31.9274C25.167 31.9274 26.3684 31.1278 26.8585 29.8213C27.2221 28.8513 27.1145 27.812 26.6519 26.9749ZM8.91444 19.1532C8.86736 19.1508 8.82023 19.1496 8.77308 19.1495C6.99807 19.1495 5.47885 20.647 5.34691 22.5605C5.2711 23.6601 4.951 27.4084 4.89456 28.4289C4.7938 30.2515 6.13355 31.8141 7.88692 31.919C7.94916 31.9227 8.01088 31.9247 8.07261 31.9247C8.99978 31.9247 9.84317 31.507 10.4275 30.8355C10.7015 30.5203 14.3122 25.5712 14.3122 25.5712L12.3969 25.2885C12.3333 25.287 12.2707 25.2723 12.2127 25.2453C12.1548 25.2183 12.1026 25.1794 12.0594 25.1311C12.0162 25.0828 11.9828 25.026 11.9612 24.964C11.9395 24.902 11.9301 24.8362 11.9335 24.7704C11.9892 23.6798 12.048 23.2398 12.0735 22.8666C12.209 20.9028 10.7492 19.2351 8.91444 19.1532ZM12.1027 10.8833C11.6877 9.33133 10.2776 8.30035 8.74274 8.30035C8.45837 8.30035 8.17037 8.33579 7.88268 8.40945C6.85371 8.67436 3.32501 9.51635 2.37371 9.77579C0.675013 10.2392 -0.340702 12.0468 0.105227 13.8126C0.35957 14.8193 1.03364 15.5946 1.882 15.9893C2.2543 16.1626 7.89862 18.2027 7.89862 18.2027L7.56547 16.2224C7.48832 15.9554 7.63807 15.6756 7.89666 15.6037C8.91123 15.3217 9.33251 15.2438 9.68141 15.154C11.5204 14.6812 12.5947 12.7227 12.1027 10.8833Z"
            fill="#662280" />
    </g>
    <defs>
        <clipPath id="clip0_2497_111">
            <rect width="32" height="32" fill="white" />
        </clipPath>
    </defs>
</svg>