<svg width="32" height="32" viewBox="0 0 33 33" fill="none" xmlns="http://www.w3.org/2000/svg">
    <path opacity="0.985" fill-rule="evenodd" clip-rule="evenodd"
        d="M20.4032 0.5C21.1292 0.5 21.8552 0.5 22.5813 0.5C26.0038 0.71079 29.1958 1.68962 32.1573 3.43647C31.3565 4.96594 30.5303 6.49692 29.6788 8.02941C29.6 8.10599 29.5124 8.11856 29.4159 8.06706C24.2368 5.19166 19.0294 5.14146 13.7938 7.91647C8.80368 10.9788 6.14993 15.4588 5.83255 21.3565C4.05503 21.3565 2.27752 21.3565 0.5 21.3565C0.5 20.9549 0.5 20.5533 0.5 20.1518C1.18342 12.9682 4.53817 7.43408 10.5642 3.54941C13.6088 1.74964 16.8885 0.733172 20.4032 0.5Z"
        fill="#7400D4" />
    <path opacity="0.987" fill-rule="evenodd" clip-rule="evenodd"
        d="M21.004 11.1171C25.9138 11.0103 29.4564 13.1436 31.6315 17.5171C32.0718 18.5799 32.3472 19.6842 32.4577 20.83C32.4952 24.7202 32.5078 28.6103 32.4952 32.5006C30.7419 32.4379 29.415 31.6599 28.5146 30.1665C25.5444 32.4009 22.2647 33.0158 18.6757 32.0112C13.9486 30.2695 11.445 26.8688 11.165 21.8089C11.3493 17.475 13.3272 14.275 17.0984 12.2089C18.3502 11.6318 19.6521 11.2679 21.004 11.1171ZM21.2293 16.3124C24.3349 16.2549 26.3253 17.7106 27.2002 20.6795C27.5852 23.3835 26.5963 25.4039 24.2335 26.7406C21.5589 27.7989 19.2932 27.2342 17.4364 25.0465C15.9571 22.7796 16.0071 20.5459 17.5866 18.3453C18.5635 17.2254 19.7777 16.5478 21.2293 16.3124Z"
        fill="#7400D4" />
</svg>