<svg width="107" height="107" viewBox="0 0 107 107" fill="none" xmlns="http://www.w3.org/2000/svg">
<path d="M39.5893 91.1365C34.7555 86.7178 33.3443 77.4335 35.3583 70.7072C38.8503 74.948 43.6888 76.2914 48.7005 77.0497C56.4374 78.2199 64.0358 77.7822 71.2231 74.2459C72.0453 73.841 72.8052 73.3027 73.7036 72.7574C74.378 74.714 74.5535 76.6892 74.3179 78.6996C73.7452 83.5957 71.3086 87.3778 67.4332 90.2448C65.8835 91.3916 64.2437 92.4167 62.6432 93.4979C57.7262 96.8213 56.3959 100.718 58.2435 106.386C58.2874 106.525 58.3267 106.663 58.426 107C55.9155 105.876 54.0817 104.24 52.6844 102.089C51.2086 99.8193 50.5065 97.3081 50.4696 94.5909C50.4511 93.2686 50.4511 91.9345 50.2733 90.6309C49.8391 87.4527 48.3471 86.0297 45.5364 85.9478C42.6518 85.8636 40.37 87.6469 39.7649 90.4554C39.7187 90.6707 39.6517 90.8837 39.5847 91.1341L39.5893 91.1365Z" fill="#17191E"/>
<path d="M12 69.5866C12 69.5866 26.3139 62.6137 40.6678 62.6137L51.4901 29.1204C51.8953 27.5007 53.0783 26.3999 54.4139 26.3999C55.7495 26.3999 56.9325 27.5007 57.3377 29.1204L68.1601 62.6137C85.1601 62.6137 96.8278 69.5866 96.8278 69.5866C96.8278 69.5866 72.5145 3.35233 72.467 3.21944C71.7692 1.2612 70.5911 0 69.0029 0H39.8274C38.2392 0 37.1087 1.2612 36.3634 3.21944C36.3108 3.34983 12 69.5866 12 69.5866Z" fill="#17191E"/>
</svg>
