<svg width="32" height="32" viewBox="0 0 32 32" fill="none" xmlns="http://www.w3.org/2000/svg">
    <path
        d="M0 4C0 2.93913 0.421427 1.92172 1.17157 1.17157C1.92172 0.421427 2.93913 0 4 0L28 0C29.0609 0 30.0783 0.421427 30.8284 1.17157C31.5786 1.92172 32 2.93913 32 4V28C32 29.0609 31.5786 30.0783 30.8284 30.8284C30.0783 31.5786 29.0609 32 28 32H4C2.93913 32 1.92172 31.5786 1.17157 30.8284C0.421427 30.0783 0 29.0609 0 28V4Z"
        fill="#1769FF" />
    <path
        d="M9.6 11.2C8.711 11.2 8 11.911 8 12.8V19.2C8 20.089 8.711 20.8 9.6 20.8C10.489 20.8 11.2 20.089 11.2 19.2V12.8C11.2 11.911 10.489 11.2 9.6 11.2ZM16 8C15.111 8 14.4 8.711 14.4 9.6V22.4C14.4 23.289 15.111 24 16 24C16.89 24 17.6 23.289 17.6 22.4V9.6C17.6 8.711 16.89 8 16 8ZM22.4 12.8C21.51 12.8 20.8 13.511 20.8 14.4V17.6C20.8 18.489 21.51 19.2 22.4 19.2C23.289 19.2 24 18.489 24 17.6V14.4C24 13.511 23.289 12.8 22.4 12.8Z"
        fill="white" />
</svg>