<svg width="32" height="32" viewBox="0 0 33 33" fill="none" xmlns="http://www.w3.org/2000/svg">
    <path fill-rule="evenodd" clip-rule="evenodd"
        d="M17.9896 0.454472C24.2636 0.188868 26.9177 3.23101 25.9519 9.58087C25.5282 10.8006 24.8121 11.8002 23.8033 12.5795C17.1921 15.138 13.8641 20.0488 13.8189 27.3122C12.282 31.5598 9.37517 33.1677 5.09827 32.1361C1.30739 30.14 0.0856465 27.0545 1.43309 22.8793C1.82754 22.0233 2.37522 21.2843 3.0761 20.6629C4.76125 19.7067 6.44637 18.7508 8.13152 17.7946C11.747 14.7241 13.4743 10.7693 13.3133 5.93031C14.0299 3.32337 15.5885 1.49809 17.9896 0.454472Z"
        fill="#5EBF8B" />
    <path fill-rule="evenodd" clip-rule="evenodd"
        d="M24.5618 18.968C29.4774 18.3234 32.2579 20.4963 32.9032 25.4869C32.2584 30.9513 29.3093 33.0808 24.0562 31.8754C20.2437 29.756 19.1062 26.5834 20.6438 22.3578C21.6218 20.7808 22.9276 19.6507 24.5618 18.968Z"
        fill="#5EBF8B" />
</svg>