<svg width="32" height="32" viewBox="0 0 32 32" fill="none" xmlns="http://www.w3.org/2000/svg">
<rect width="32" height="32" fill="white"/>
<path d="M14.7792 17.7581H16.9083L16.1341 12.5863H15.5964L14.7792 17.7581ZM12.0693 8.70755H19.6182L22.8658 23.1883H17.8325L17.4239 21.6368H14.1337L13.7898 23.1883H8.88574L12.0693 8.70755Z" fill="#161E27"/>
<path d="M27.9273 21.6368V22.3674C27.9273 22.6769 27.7459 22.9629 27.4773 23.1171L16.3139 29.5173C16.0474 29.6701 15.716 29.6701 15.4495 29.5173L4.30344 23.1171C4.03485 22.9629 3.87879 22.6769 3.87879 22.3674V9.57637C3.87879 9.26665 4.03283 8.98061 4.30152 8.82646L15.4513 2.42631C15.7178 2.27348 16.0424 2.27348 16.3089 2.42631L27.4787 8.82646C27.7473 8.98061 27.9273 9.26665 27.9273 9.57637V10.2591H29.4788V8.17989L15.903 0.387878L2.32727 8.17989V23.7639L15.903 31.5558L29.4788 23.7639V21.6368H27.9273Z" fill="#161E27"/>
<path d="M27.9512 10.272L29.4472 10.272V21.6566H27.9512V10.272Z" fill="#161E27"/>
</svg>
