<svg width="32" height="32" viewBox="0 0 32 32" fill="none" xmlns="http://www.w3.org/2000/svg">
    <g clip-path="url(#clip0_3214_3353)">
        <path fill-rule="evenodd" clip-rule="evenodd"
            d="M-0.0710449 -0.0712891C0.308215 -0.0712891 0.687473 -0.0712891 1.06673 -0.0712891C0.640066 0.260562 0.260806 0.639822 -0.0710449 1.06649C-0.0710449 0.687229 -0.0710449 0.307971 -0.0710449 -0.0712891Z"
            fill="#EEEEEF" />
        <path fill-rule="evenodd" clip-rule="evenodd"
            d="M30.6489 -0.0712891C31.0756 -0.0712891 31.5023 -0.0712891 31.9289 -0.0712891C31.9289 0.307971 31.9289 0.687229 31.9289 1.06649C31.5872 0.581936 31.1605 0.202676 30.6489 -0.0712891Z"
            fill="#EEEEEE" />
        <path fill-rule="evenodd" clip-rule="evenodd"
            d="M1.06673 -0.0712891C10.9275 -0.0712891 20.7883 -0.0712891 30.649 -0.0712891C31.1605 0.202676 31.5872 0.581936 31.929 1.06649C31.929 10.8798 31.929 20.6932 31.929 30.5065C31.6919 31.2176 31.2178 31.6916 30.5067 31.9287C20.6934 31.9287 10.8801 31.9287 1.06673 31.9287C0.58218 31.587 0.202921 31.1603 -0.0710449 30.6487C-0.0710449 20.788 -0.0710449 10.9272 -0.0710449 1.06649C0.260806 0.639822 0.640066 0.260562 1.06673 -0.0712891Z"
            fill="#212121" />
        <path fill-rule="evenodd" clip-rule="evenodd"
            d="M6.18679 24.2485C7.78049 21.5846 9.27382 18.8351 10.6668 15.9996C10.7365 15.8157 10.7602 15.626 10.7379 15.4307C12.512 11.9776 14.2898 8.5168 16.0712 5.04847C16.1661 4.85884 16.2608 4.85884 16.3557 5.04847C16.9371 6.06903 17.4824 7.11199 17.9912 8.17736C15.2145 13.6596 12.4175 19.1352 9.60012 24.604C8.36752 24.6989 7.13494 24.6989 5.90234 24.604C5.98283 24.4625 6.07765 24.344 6.18679 24.2485Z"
            fill="#FBFBFB" />
        <path fill-rule="evenodd" clip-rule="evenodd"
            d="M18.5599 9.45801C21.2107 14.4745 23.8654 19.4996 26.5244 24.5336C25.3071 24.7206 24.0982 24.7206 22.8977 24.5336C20.8851 20.6033 18.8703 16.6684 16.8533 12.7291C17.3877 11.6125 17.9566 10.5222 18.5599 9.45801Z"
            fill="#F9F9F9" />
        <path fill-rule="evenodd" clip-rule="evenodd"
            d="M18.1334 17.8488C17.8902 17.607 17.6057 17.4174 17.2801 17.2799C16.6206 17.4198 15.9806 17.4198 15.3601 17.2799C14.6454 17.546 14.195 18.0675 14.0089 18.8443C13.9062 18.9938 13.764 19.0887 13.5823 19.1288C14.4215 17.4031 15.2985 15.6964 16.2134 14.0088C16.9299 15.2522 17.5699 16.5322 18.1334 17.8488Z"
            fill="#F35948" />
        <path fill-rule="evenodd" clip-rule="evenodd"
            d="M10.7379 15.4307C10.7602 15.6259 10.7365 15.8157 10.6668 15.9996C9.2738 18.835 7.78047 21.5846 6.18677 24.2484C7.63173 21.2635 9.14877 18.3242 10.7379 15.4307Z"
            fill="#E2E2E2" />
        <path fill-rule="evenodd" clip-rule="evenodd"
            d="M18.1332 17.8492C18.4262 18.2389 18.6632 18.6655 18.8443 19.1292C18.5259 18.8867 18.1704 18.6971 17.7777 18.5603C16.8237 18.682 15.8518 18.682 14.8621 18.5603C14.5734 18.6558 14.289 18.7506 14.0088 18.8447C14.1948 18.0679 14.6452 17.5464 15.3599 17.2803C15.9804 17.4202 16.6204 17.4202 17.2799 17.2803C17.6056 17.4178 17.89 17.6074 18.1332 17.8492Z"
            fill="#FB5240" />
        <path fill-rule="evenodd" clip-rule="evenodd"
            d="M18.8444 19.1285C19.1903 19.7008 19.5223 20.2933 19.84 20.9062C17.4222 21.0011 15.0044 21.0011 12.5867 20.9062C12.9044 20.2933 13.2363 19.7008 13.5822 19.1285C13.7639 19.0884 13.9062 18.9935 14.0089 18.844C14.2891 18.7499 14.5735 18.6551 14.8622 18.5596C15.852 18.6813 16.8238 18.6813 17.7778 18.5596C18.1705 18.6964 18.526 18.886 18.8444 19.1285Z"
            fill="#FC4732" />
        <path fill-rule="evenodd" clip-rule="evenodd"
            d="M-0.0710449 30.6484C0.202921 31.16 0.58218 31.5867 1.06673 31.9284C0.687473 31.9284 0.308215 31.9284 -0.0710449 31.9284C-0.0710449 31.5018 -0.0710449 31.0751 -0.0710449 30.6484Z"
            fill="#EEEEEE" />
        <path fill-rule="evenodd" clip-rule="evenodd"
            d="M31.9288 30.5068C31.9288 30.9809 31.9288 31.455 31.9288 31.9291C31.4548 31.9291 30.9806 31.9291 30.5066 31.9291C31.2177 31.692 31.6917 31.2179 31.9288 30.5068Z"
            fill="#E7E7E8" />
    </g>
    <defs>
        <clipPath id="clip0_3214_3353">
            <rect width="32" height="32" rx="16" fill="white" />
        </clipPath>
    </defs>
</svg>