<svg width="32" height="32" viewBox="0 0 33 33" fill="none" xmlns="http://www.w3.org/2000/svg">
    <path
        d="M14.074 1.57702C15.2424 2.35439 15.891 3.41813 16.2352 4.78397C16.2938 5.5487 16.2929 6.31141 16.2923 7.07819C16.2936 7.30779 16.2949 7.53738 16.2962 7.77393C16.3 8.53213 16.3007 9.29029 16.3012 10.0485C16.3024 10.5767 16.3038 11.105 16.3051 11.6332C16.3076 12.7405 16.3082 13.8478 16.308 14.9551C16.3077 16.231 16.3119 17.5068 16.3181 18.7826C16.3239 20.0142 16.3253 21.2457 16.325 22.4773C16.3255 22.9993 16.3272 23.5213 16.3303 24.0432C16.3341 24.7747 16.333 25.5061 16.3306 26.2376C16.3328 26.4516 16.335 26.6655 16.3373 26.8859C16.3245 28.4558 16.0433 29.857 15.084 31.1215C13.6698 32.2929 12.5088 32.7628 10.6697 32.7007C9.25225 32.5484 8.14038 31.9338 7.19775 30.8404C6.76692 30.1371 6.47191 29.4206 6.21542 28.6356C5.76661 28.3165 5.76661 28.3165 5.22082 28.0092C3.15872 26.7077 2.04492 24.9855 1.24239 22.6852C0.92679 21.1796 0.898679 19.3955 1.31606 17.9124C1.55824 16.99 1.42518 16.3051 1.20171 15.3897C0.629547 12.9961 0.832088 10.6762 2.06509 8.51705C3.04583 6.98694 4.28841 5.39772 6.07959 4.84425C6.24408 4.81441 6.24408 4.81441 6.41189 4.78397C6.4281 4.64341 6.44431 4.50286 6.46101 4.35805C6.79694 3.04427 7.70213 2.12993 8.76948 1.37659C10.586 0.366755 12.2848 0.648319 14.074 1.57702ZM7.98361 3.90707C7.43792 4.89678 7.45836 5.88348 7.59068 6.98874C7.70906 7.39367 7.83493 7.79696 7.98361 8.19134C7.91878 8.32363 7.85395 8.45592 7.78715 8.59221C7.52781 8.59221 7.26848 8.59221 7.00129 8.59221C6.74195 7.86464 6.48262 7.13706 6.21542 6.38744C4.48832 7.23173 3.33732 8.58189 2.61841 10.3875C2.32226 11.2802 2.2542 12.0526 2.24927 13.0018C2.24649 13.2457 2.2437 13.4896 2.24083 13.7409C2.28299 14.3591 2.35928 14.6908 2.67904 15.2065C2.7578 15.1047 2.83657 15.0029 2.91772 14.8981C3.77793 13.8354 4.6735 13.1145 5.82249 12.4005C6.48725 11.9664 7.07656 11.5317 7.65208 10.9849C8.84058 9.93459 10.1281 9.7238 11.665 9.7541C12.0939 9.7934 12.4816 9.8755 12.8953 9.99525C12.8304 10.326 12.7656 10.6567 12.6988 10.9974C12.5327 10.9881 12.3665 10.9788 12.1953 10.9692C10.812 10.9243 9.69532 10.9072 8.57301 11.7992C7.71822 12.6224 7.05781 13.4485 6.96598 14.6765C6.94089 15.6394 7.02036 16.3209 7.39422 17.2109C7.32054 17.7746 7.32054 17.7746 7.19775 18.213C7.00325 18.213 6.80875 18.213 6.60835 18.213C6.11404 17.315 5.90826 16.5521 5.78565 15.5322C5.7545 15.2826 5.72335 15.0331 5.69126 14.7759C5.66973 14.5873 5.64821 14.3987 5.62603 14.2044C4.20014 14.8392 3.39772 16.1757 2.82179 17.5961C2.18489 19.4545 2.21905 21.6275 3.04665 23.4102C3.79498 24.8103 4.75338 26.1644 6.21542 26.8317C6.28406 26.6627 6.35269 26.4937 6.4234 26.3197C6.5128 26.1 6.6022 25.8804 6.69431 25.6541C6.7832 25.4356 6.87209 25.217 6.96368 24.9918C7.09862 24.6659 7.23914 24.342 7.39422 24.0256C7.25467 23.9481 7.11513 23.8706 6.97136 23.7907C6.79078 23.6864 6.61021 23.582 6.42417 23.4744C6.15407 23.321 6.15407 23.321 5.87852 23.1644C5.42956 22.823 5.42956 22.823 5.26916 22.3814C5.25726 22.2626 5.24536 22.1437 5.23309 22.0213C5.62603 21.8584 5.62603 21.8584 6.21542 21.8209C6.57535 22.0236 6.57535 22.0236 6.96445 22.2969C7.89097 22.9318 8.62315 23.1488 9.75871 22.9553C10.9296 22.6032 11.6244 21.823 12.3059 20.8187C12.7674 19.8769 12.7706 19.0201 12.5023 18.0126C12.2015 17.3277 11.8471 16.7428 11.3235 16.2087C11.2007 15.6826 11.2007 15.6826 11.1271 15.2065C11.6428 15.194 11.6428 15.194 12.3059 15.407C13.38 16.5156 13.8102 17.8836 13.8776 19.4156C13.7938 20.7069 13.3298 21.8418 12.5023 22.823C11.7379 23.4939 11.0137 23.837 10.0219 24.0006C9.13556 24.163 8.75897 24.5437 8.21768 25.258C7.5422 26.329 7.46893 27.173 7.59068 28.4352C7.99599 29.7 8.92835 30.4886 10.0465 31.116C11.0646 31.3756 11.9797 31.3389 12.9398 30.878C13.8024 30.2887 14.5321 29.4385 14.8599 28.4352C14.8799 28.1163 14.889 27.7966 14.8915 27.4771C14.8934 27.2799 14.8954 27.0827 14.8975 26.8795C14.8986 26.6633 14.8997 26.4471 14.9009 26.2244C14.9028 25.9966 14.9048 25.7687 14.9067 25.5339C14.9126 24.778 14.9168 24.0221 14.9205 23.2662C14.9225 22.879 14.9225 22.879 14.9245 22.484C14.9295 21.3987 14.9342 20.3134 14.9371 19.228C14.9414 17.6757 14.9497 16.1235 14.9633 14.5712C14.9738 13.3462 14.9777 12.1212 14.9794 10.8961C14.9811 10.3762 14.9848 9.8563 14.9906 9.33642C14.9982 8.60761 14.9984 7.87916 14.9969 7.15032C15.0008 6.93659 15.0047 6.72287 15.0088 6.50267C14.9948 5.03047 14.6434 4.08739 13.6811 2.98006C12.7755 2.16989 11.8687 2.0382 10.6781 2.08985C9.48778 2.2873 8.68897 2.93018 7.98361 3.90707Z"
        fill="#B369D6" />
    <path
        d="M25.469 1.57706C26.3299 2.22399 26.8342 2.87195 27.2004 3.89458C27.5817 4.88922 28.1882 5.23159 29.0967 5.70866C30.7516 6.63216 31.894 8.31739 32.5418 10.108C33.0402 12.1222 32.9295 14.4419 32.3453 16.4092C32.3301 16.8439 32.3301 16.8439 32.4067 17.2234C32.4513 17.4839 32.4959 17.7443 32.5418 18.0126C32.5783 18.1987 32.6147 18.3847 32.6523 18.5764C33.0069 21.2123 32.5577 23.6828 30.9701 25.8296C30.0444 26.9218 29.1131 27.8192 27.8266 28.4352C27.697 28.4352 27.5673 28.4352 27.4337 28.4352C27.4256 28.5964 27.4175 28.7577 27.4091 28.9238C27.1287 30.0887 26.5731 31.0634 25.6079 31.7729C24.1854 32.5897 22.9746 32.8189 21.3433 32.6443C19.9136 32.2035 18.8053 31.324 18.0033 30.0387C17.5017 28.8834 17.551 27.7447 17.5502 26.5051C17.5486 26.2715 17.5469 26.038 17.5453 25.7975C17.5405 25.0263 17.5388 24.2551 17.5375 23.4839C17.5362 23.0825 17.5349 22.6811 17.5335 22.2797C17.5293 21.0177 17.5274 19.7557 17.5268 18.4937C17.5261 17.1959 17.5202 15.8983 17.512 14.6006C17.5052 13.483 17.5021 12.3655 17.502 11.248C17.5019 10.582 17.4997 9.91615 17.4945 9.2502C17.4892 8.50616 17.4902 7.76238 17.4927 7.01833C17.4897 6.80065 17.4868 6.58297 17.4838 6.35869C17.4989 4.7503 17.8643 3.42514 18.9226 2.19619C20.7514 0.383552 23.3296 0.355652 25.469 1.57706ZM19.5014 3.65656C18.7144 4.95361 18.7308 6.27383 18.7321 7.75552C18.7308 7.96951 18.7295 8.18349 18.7281 8.40396C18.7244 9.10901 18.7236 9.81402 18.7232 10.5191C18.7219 11.0111 18.7206 11.5031 18.7192 11.9951C18.7169 13.0257 18.7162 14.0563 18.7164 15.0869C18.7164 16.4045 18.7111 17.722 18.7043 19.0396C18.6999 20.0556 18.6991 21.0717 18.6993 22.0878C18.6989 22.5734 18.6972 23.059 18.6941 23.5446C18.6902 24.2252 18.6914 24.9057 18.6938 25.5863C18.6915 25.7849 18.6893 25.9836 18.6871 26.1882C18.6987 27.516 18.912 28.6782 19.5751 29.8382C20.4958 30.7608 21.2915 31.1784 22.5712 31.3039C23.7517 31.2035 24.6652 30.7595 25.4445 29.8382C26.2028 28.7461 26.4288 27.965 26.2549 26.6313C25.9202 25.5812 25.4334 24.793 24.4867 24.2261C24.1694 24.1237 23.8498 24.0282 23.5289 23.938C22.1462 23.5418 21.3132 23.0001 20.582 21.7207C19.8776 20.3691 19.7736 18.966 20.2013 17.499C20.5111 16.6269 20.8885 16.0551 21.5397 15.407C21.9941 15.2316 21.9941 15.2316 22.3256 15.2066C22.4975 15.6074 22.4975 15.6074 22.5221 16.2087C22.2795 16.5618 22.2795 16.5618 21.9572 16.9478C21.2368 17.8558 21.0651 18.6577 21.1468 19.8165C21.485 20.9243 21.9342 21.8862 22.9541 22.4684C24.019 22.9558 24.9318 23.2339 26.0584 22.8231C26.4809 22.5815 26.8736 22.3242 27.2649 22.0331C27.6302 21.8209 27.6302 21.8209 28.416 21.8209C28.4774 22.2805 28.4774 22.2805 28.416 22.8231C27.9863 23.184 27.9863 23.184 27.4337 23.487C27.2514 23.5896 27.069 23.6921 26.8811 23.7978C26.7393 23.873 26.5975 23.9482 26.4514 24.0257C26.5035 24.1443 26.5557 24.2628 26.6095 24.385C26.9644 25.1952 27.3161 26.0039 27.6302 26.8317C29.4779 25.7478 30.6607 24.1065 31.2801 22.044C31.6847 19.9764 31.3449 17.8765 30.2602 16.0866C29.6147 15.1929 28.9716 14.5468 28.0231 14.004C28.0352 14.2603 28.0474 14.5166 28.0599 14.7806C28.0637 15.9828 27.7644 17.1374 27.2372 18.2131C26.9779 18.2131 26.7186 18.2131 26.4514 18.2131C26.4207 17.556 26.4259 17.0777 26.6601 16.4593C26.9714 15.3585 26.8831 14.3632 26.4399 13.3087C25.735 12.0865 24.8504 11.369 23.5044 10.9975C22.5805 10.923 21.6781 10.9363 20.7539 10.9975C20.8187 10.6667 20.8835 10.336 20.9503 9.99528C22.6427 9.52019 24.0965 9.82715 25.6655 10.5966C26.2397 10.9806 26.7276 11.3607 27.0408 11.9996C27.3347 12.1557 27.6347 12.3 27.9371 12.4381C29.1771 13.0497 30.2018 13.8305 30.9701 15.0061C31.0997 15.0061 31.2294 15.0061 31.363 15.0061C31.87 13.0665 31.5688 11.1937 30.6869 9.42843C29.9284 8.11427 29.0688 7.22944 27.8266 6.38747C27.3651 6.85832 27.29 7.18055 27.1144 7.81557C27.0377 8.08918 27.0377 8.08918 26.9594 8.36833C26.9024 8.57838 26.9024 8.57838 26.8443 8.79268C26.5201 8.79268 26.196 8.79268 25.862 8.79268C25.952 8.09729 26.0371 7.455 26.2549 6.78834C26.4071 5.49821 26.2427 4.43407 25.469 3.38097C24.4274 2.40764 23.4613 2.09405 22.0578 2.10868C20.9767 2.2541 20.2519 2.89086 19.5014 3.65656Z"
        fill="#0497EA" />
    <path
        d="M25.469 1.57704C26.6768 2.46355 27.1799 3.56636 27.6302 4.98442C27.306 4.91828 26.9818 4.85213 26.6478 4.78399C26.583 5.24699 26.5182 5.70999 26.4514 6.18702C26.3865 6.18702 26.3217 6.18702 26.2549 6.18702C26.226 6.01262 26.226 6.01262 26.1966 5.8347C25.9771 4.66491 25.731 3.67693 24.7446 2.92919C23.7181 2.32322 22.7063 2.16341 21.5397 2.37878C20.319 2.86239 19.7144 3.58945 19.1821 4.78399C19.0061 5.37175 18.96 5.89982 18.9568 6.51327C18.9554 6.69868 18.9539 6.88408 18.9525 7.07511C18.952 7.27711 18.9514 7.47912 18.9509 7.68724C18.949 8.00809 18.949 8.00809 18.947 8.33541C18.9431 9.04372 18.9408 9.75202 18.9389 10.4603C18.9381 10.7026 18.9373 10.9448 18.9364 11.1943C18.9323 12.4767 18.9295 13.7591 18.9277 15.0415C18.9255 16.3639 18.9188 17.6861 18.9109 19.0084C18.9058 20.0271 18.9042 21.0457 18.9035 22.0643C18.9025 22.5516 18.9002 23.0389 18.8966 23.5262C18.8918 24.2098 18.892 24.8932 18.8933 25.5768C18.8908 25.7763 18.8883 25.9759 18.8857 26.1815C18.8953 27.5151 19.1138 28.6694 19.7715 29.8382C20.4251 30.4914 21.0374 30.8465 21.9327 31.0408C21.9327 31.1731 21.9327 31.3054 21.9327 31.4417C21.6733 31.4417 21.414 31.4417 21.1468 31.4417C21.1468 31.574 21.1468 31.7063 21.1468 31.8426C21.4061 31.7764 21.6655 31.7103 21.9327 31.6421C21.9327 31.8406 21.9327 32.039 21.9327 32.2434C22.0623 32.2434 22.192 32.2434 22.3256 32.2434C22.3256 32.3757 22.3256 32.508 22.3256 32.6443C20.6966 32.5553 19.6217 31.9841 18.5191 30.7527C17.4714 29.5137 17.5511 28.0521 17.5502 26.505C17.5486 26.2715 17.5469 26.038 17.5453 25.7974C17.5405 25.0262 17.5388 24.2551 17.5375 23.4838C17.5362 23.0825 17.5349 22.6811 17.5335 22.2797C17.5293 21.0177 17.5274 19.7557 17.5268 18.4936C17.5261 17.1959 17.5202 15.8983 17.512 14.6006C17.5052 13.483 17.5021 12.3655 17.502 11.2479C17.5019 10.582 17.4997 9.91613 17.4945 9.25018C17.4892 8.50614 17.4902 7.76236 17.4927 7.01831C17.4897 6.80063 17.4868 6.58295 17.4838 6.35867C17.4989 4.75028 17.8643 3.42512 18.9226 2.19617C20.753 0.381935 23.3277 0.358156 25.469 1.57704Z"
        fill="#0972EF" />
    <path
        d="M13.8776 1.57715C15.1708 2.35674 15.8541 3.27818 16.2352 4.78409C16.2939 5.54882 16.2929 6.31154 16.2923 7.07832C16.2942 7.42271 16.2942 7.42271 16.2963 7.77406C16.3 8.53225 16.3008 9.29041 16.3012 10.0486C16.3024 10.5769 16.3038 11.1051 16.3051 11.6333C16.3076 12.7406 16.3082 13.8479 16.308 14.9552C16.3077 16.2311 16.3119 17.5069 16.3181 18.7827C16.3239 20.0143 16.3253 21.2458 16.325 22.4774C16.3255 22.9994 16.3272 23.5214 16.3303 24.0433C16.3341 24.7749 16.333 25.5062 16.3306 26.2378C16.3328 26.4517 16.335 26.6656 16.3373 26.886C16.3244 28.4637 16.0489 29.8838 15.0564 31.1357C14.9267 31.2408 14.797 31.346 14.6634 31.4543C14.5338 31.5641 14.4041 31.6739 14.2705 31.7871C13.8724 32.0465 13.5538 32.1583 13.0917 32.2435C12.8359 31.8137 12.6857 31.5576 12.7433 31.0495C12.976 30.4225 13.4248 30.1628 13.9382 29.7702C14.4557 29.2521 14.6378 28.6774 14.7151 27.9476C14.7163 27.7765 14.7174 27.6054 14.7186 27.429C14.7209 27.2312 14.7231 27.0335 14.7254 26.8297C14.7259 26.615 14.7263 26.4003 14.7268 26.179C14.7287 25.9511 14.7307 25.7232 14.7327 25.4883C14.7384 24.7346 14.7411 23.9809 14.7433 23.2271C14.7455 22.7026 14.7478 22.1781 14.75 21.6536C14.7538 20.6942 14.7561 19.7348 14.7573 18.7754C14.7591 17.3669 14.766 15.9585 14.7774 14.55C14.7869 13.3268 14.7899 12.1038 14.7906 10.8806C14.7918 10.3618 14.7949 9.84305 14.8001 9.32429C14.8068 8.59744 14.8061 7.87096 14.8035 7.14408C14.8071 6.93099 14.8107 6.71789 14.8145 6.49834C14.7985 5.03588 14.4561 4.07143 13.4847 2.98019C13.2282 2.77247 12.9675 2.56976 12.6988 2.37888C13.3144 2.16953 13.4826 2.19163 14.0741 2.37888C14.0092 2.11431 13.9444 1.84974 13.8776 1.57715Z"
        fill="#F12F7B" />
    <path
        d="M11.9966 15.1446C13.0058 15.668 13.5119 16.6855 13.8568 17.7565C14.2141 19.4285 14.0318 20.708 13.1654 22.1716C12.3365 23.3447 11.4049 23.9676 10.0097 24.2135C9.34901 24.3355 9.0223 24.4769 8.58528 25.0027C7.81441 26.1943 7.6476 27.0093 7.78713 28.4351C8.17601 29.6033 8.92278 30.3178 10.0012 30.8669C10.6502 31.0772 11.1965 31.0798 11.8761 31.0658C12.2184 31.0604 12.2184 31.0604 12.5675 31.0549C12.7405 31.0502 12.9135 31.0456 13.0917 31.0408C12.9945 31.3384 12.9945 31.3384 12.8952 31.6421C12.9717 32.0715 12.9717 32.0715 13.0917 32.4438C11.7414 32.8429 10.2295 32.8322 8.93523 32.2504C7.44331 31.3959 6.74651 30.261 6.21541 28.6356C5.89527 28.3901 5.89527 28.3901 5.5155 28.1971C5.29263 28.0772 5.06977 27.9573 4.84015 27.8338C4.93335 27.747 5.02655 27.6602 5.12257 27.5708C5.47608 27.2279 5.47608 27.2279 5.62601 26.6312C5.49634 26.6312 5.36668 26.6312 5.23308 26.6312C5.29791 26.4989 5.36275 26.3666 5.42955 26.2303C5.62405 26.3626 5.81855 26.4949 6.01894 26.6312C6.40794 25.8375 6.79695 25.0438 7.19774 24.226C6.87762 24.011 6.5575 23.7961 6.22769 23.5746C5.28494 22.9415 5.28494 22.9415 5.04813 22.4002C5.04433 22.2751 5.04053 22.1501 5.03661 22.0212C5.16628 21.889 5.29595 21.7567 5.42955 21.6204C6.10503 21.6597 6.47827 21.8617 7.06267 22.2217C7.94196 22.7517 8.75394 22.9334 9.76637 22.7486C10.8507 22.4094 11.4952 21.776 12.1094 20.8186C12.5629 19.8731 12.5741 19.02 12.3058 18.0126C12.005 17.3276 11.6506 16.7428 11.1271 16.2087C11.1025 15.6825 11.1025 15.6825 11.1271 15.2065C11.52 15.0061 11.52 15.0061 11.9966 15.1446Z"
        fill="#C357BB" />
    <path
        d="M13.0917 9.99525C13.0269 10.326 12.962 10.6567 12.8952 10.9974C12.2829 11.2057 11.9232 11.1942 11.2867 11.1603C10.2064 11.1559 9.4307 11.3099 8.57299 11.9996C7.49846 13.1892 7.15482 14.1152 7.16396 15.7209C7.20263 16.2796 7.37577 16.6993 7.59066 17.2109C7.51698 17.7746 7.51698 17.7746 7.39419 18.213C7.00519 18.3123 7.00519 18.3123 6.60833 18.4135C5.93903 17.2681 5.59628 16.5085 5.61372 15.1564C5.61549 14.9776 5.61727 14.7988 5.61909 14.6146C5.62137 14.4792 5.62365 14.3439 5.626 14.2044C5.37609 14.4254 5.12648 14.6468 4.87698 14.8683C4.66842 15.0532 4.66842 15.0532 4.45565 15.2418C4.11295 15.554 3.78555 15.8733 3.46488 16.2087C3.46488 15.878 3.46488 15.5473 3.46488 15.2065C3.59455 15.1404 3.72421 15.0742 3.85781 15.0061C3.43416 15.0061 3.08679 15.0956 2.67902 15.2065C3.40954 13.5776 4.73973 12.7926 6.23075 11.9526C6.76455 11.6235 7.17759 11.2841 7.6275 10.8471C9.04881 9.51667 11.3353 9.03961 13.0917 9.99525Z"
        fill="#B956B3" />
    <path
        d="M26.6479 4.5835C28.9547 5.20454 30.6113 6.66105 31.8818 8.70883C32.9395 10.6282 33.1148 13.3114 32.6376 15.4595C32.606 15.5744 32.5744 15.6894 32.5418 15.8078C31.9583 15.7086 31.9583 15.7086 31.363 15.6074C31.3699 15.3702 31.3767 15.133 31.3838 14.8886C31.4414 12.0997 31.1588 10.0495 29.3984 7.79044C28.9042 7.33297 28.3946 6.94449 27.8267 6.58784C27.7722 6.7134 27.7178 6.83897 27.6617 6.96835C27.5549 7.21406 27.5549 7.21406 27.446 7.46473C27.3754 7.62751 27.3047 7.79028 27.2319 7.95799C27.1082 8.23878 26.9793 8.51726 26.8443 8.79261C26.5202 8.79261 26.196 8.79261 25.862 8.79261C25.5666 7.91584 25.772 7.41383 26.1045 6.60115C26.3194 6.00935 26.3765 5.40777 26.4514 4.78393C26.5162 4.71779 26.5811 4.65164 26.6479 4.5835ZM30.3807 15.8078C30.6401 15.8739 30.8994 15.9401 31.1666 16.0082C31.1017 16.1405 31.0369 16.2728 30.9701 16.4091C30.7756 16.343 30.5811 16.2768 30.3807 16.2087C30.3807 16.0764 30.3807 15.9441 30.3807 15.8078Z"
        fill="#05A0E8" />
    <path
        d="M13.6811 1.37669C13.9213 1.90048 13.9213 1.90048 14.0741 2.37886C13.9633 2.37361 13.8525 2.36837 13.7383 2.36296C13.2281 2.34191 12.7181 2.32902 12.2076 2.31623C12.0334 2.30783 11.8591 2.29943 11.6796 2.29078C10.4 2.26678 9.55448 2.52582 8.57301 3.38103C7.76092 4.32943 7.69201 5.23368 7.73189 6.46975C7.79686 7.08003 7.98198 7.614 8.18008 8.19144C8.05041 8.38987 7.92075 8.5883 7.78715 8.79275C7.32438 8.75595 7.32438 8.75595 6.80482 8.59231C6.53698 8.13429 6.53698 8.13429 6.35049 7.57762C6.28642 7.3934 6.22235 7.20918 6.15633 7.01938C6.111 6.87701 6.06567 6.73465 6.01896 6.58797C5.85561 6.7147 5.85561 6.7147 5.68896 6.844C5.54663 6.9538 5.4043 7.06361 5.25765 7.17675C5.11634 7.28604 4.97502 7.39533 4.82942 7.50793C4.44723 7.79058 4.44723 7.79058 4.0543 7.99101C4.15155 7.39572 4.15155 7.39572 4.25077 6.78841C3.99143 6.72226 3.7321 6.65612 3.4649 6.58797C5.77099 4.78407 5.77099 4.78407 6.41189 4.78407C6.4281 4.64351 6.44431 4.50296 6.46101 4.35815C6.79695 3.04437 7.70214 2.13003 8.76948 1.37669C10.3835 0.47943 12.0618 0.536181 13.6811 1.37669Z"
        fill="#B15ABD" />
    <path
        d="M11.9966 15.1446C13.0058 15.668 13.512 16.6855 13.8569 17.7565C14.2142 19.4285 14.0318 20.708 13.1654 22.1716C12.3999 23.2611 11.522 23.8855 10.243 24.1884C9.99986 24.207 9.99986 24.207 9.75182 24.226C9.75182 24.0937 9.75182 23.9614 9.75182 23.8251C9.62215 23.759 9.49248 23.6929 9.35889 23.6247C9.35889 23.3601 9.35889 23.0956 9.35889 22.823C9.59391 22.7527 9.82893 22.6824 10.0711 22.61C11.2376 22.1627 11.8545 21.3501 12.3918 20.2299C12.6543 18.7717 12.2929 17.8043 11.52 16.6095C11.3903 16.4772 11.2607 16.3449 11.1271 16.2087C11.1025 15.6825 11.1025 15.6825 11.1271 15.2065C11.52 15.0061 11.52 15.0061 11.9966 15.1446Z"
        fill="#D53783" />
    <path
        d="M21.9327 15.0061C22.3502 15.194 22.3502 15.194 22.7185 15.407C22.6551 16.1191 22.4647 16.5098 22.0309 17.048C21.3987 17.9087 21.2864 18.7557 21.3433 19.8165C21.6475 20.8683 22.076 21.5369 22.915 22.2217C23.4333 22.4664 23.9411 22.6438 24.4867 22.823C24.3571 23.286 24.2274 23.749 24.0938 24.2261C22.8961 24.1634 22.0244 23.6192 21.1468 22.823C20.1014 21.4321 19.6566 20.172 19.7716 18.4135C20.0418 17.0958 20.5751 16.1276 21.5397 15.2065C21.6694 15.1404 21.7991 15.0743 21.9327 15.0061Z"
        fill="#0579E4" />
    <path
        d="M13.8776 1.57715C15.1709 2.35682 15.8488 3.27309 16.2352 4.78409C16.2352 5.04866 16.2352 5.31324 16.2352 5.58583C16.1055 5.58583 15.9758 5.58583 15.8422 5.58583C15.7774 5.71811 15.7126 5.8504 15.6458 5.98669C15.5809 5.92055 15.5161 5.85441 15.4493 5.78626C15.3845 13.062 15.3196 20.3378 15.2528 27.834C15.1232 27.9001 14.9935 27.9663 14.8599 28.0344C14.86 27.9163 14.8601 27.7981 14.8601 27.6764C14.8615 24.7954 14.8564 21.9144 14.8441 19.0335C14.8384 17.6402 14.8347 16.2471 14.8363 14.8538C14.8378 13.5087 14.8332 12.1637 14.8248 10.8186C14.8226 10.3059 14.8225 9.7933 14.8245 9.28068C14.8269 8.56137 14.8219 7.84247 14.8153 7.12319C14.8177 6.91227 14.8201 6.70134 14.8226 6.48403C14.7986 5.02978 14.4485 4.0665 13.4847 2.98019C13.2282 2.77242 12.9676 2.56971 12.6988 2.37888C13.3144 2.16953 13.4826 2.19163 14.0741 2.37888C14.0092 2.11431 13.9444 1.84974 13.8776 1.57715Z"
        fill="#BB1D5E" />
    <path
        d="M24.5113 1.08848C25.9319 1.73434 26.7395 2.60304 27.3232 4.06994C27.4292 4.37346 27.5329 4.67789 27.6302 4.98442C27.306 4.91827 26.9819 4.85213 26.6479 4.78398C26.583 5.24698 26.5182 5.70999 26.4514 6.18702C26.3866 6.18702 26.3217 6.18702 26.2549 6.18702C26.2261 6.01262 26.2261 6.01262 26.1966 5.83469C25.9767 4.66259 25.7218 3.71448 24.7722 2.92919C23.5319 2.15321 22.1598 2.30626 20.7539 2.37878C20.6891 2.04806 20.6242 1.71734 20.5574 1.37661C21.8907 0.539581 23.0658 0.568527 24.5113 1.08848Z"
        fill="#058CE0" />
    <path
        d="M5.42955 21.6204C6.20713 21.6657 6.74243 22.0066 7.39805 22.4111C8.08077 22.7821 8.81648 22.9982 9.55533 23.2238C9.62017 23.5545 9.685 23.8853 9.7518 24.226C9.60592 24.3004 9.46005 24.3748 9.30975 24.4515C8.67622 24.8922 8.37501 25.3644 7.98361 26.0299C7.49735 25.8315 7.49735 25.8315 7.00128 25.629C7.00128 25.7613 7.00128 25.8936 7.00128 26.0299C6.80678 26.0299 6.61228 26.0299 6.41188 26.0299C6.61989 25.3478 6.80658 24.8246 7.19774 24.226C7.0582 24.134 6.91865 24.042 6.77488 23.9473C6.59431 23.8243 6.41374 23.7013 6.22769 23.5746C6.04763 23.4537 5.86756 23.3328 5.68204 23.2082C5.23309 22.823 5.23309 22.823 5.04813 22.4002C5.04433 22.2751 5.04054 22.1501 5.03662 22.0212C5.16629 21.8889 5.29596 21.7567 5.42955 21.6204Z"
        fill="#C750AF" />
    <path
        d="M25.6655 10.3962C26.1087 10.7032 26.4586 11.0156 26.8443 11.3984C26.7551 11.4811 26.666 11.5638 26.5741 11.6489C26.2432 12.0125 26.0599 12.351 25.862 12.8014C25.6614 12.572 25.6614 12.572 25.4567 12.3379C24.2323 11.1951 23.2603 11.1347 21.6525 11.1964C21.1468 11.198 21.1468 11.198 20.7538 10.9975C20.7538 10.6668 20.7538 10.3361 20.7538 9.99537C22.3953 9.13107 24.0837 9.61677 25.6655 10.3962Z"
        fill="#0385E7" />
    <path
        d="M25.6655 29.2368C25.9897 29.3691 26.3138 29.5014 26.6478 29.6377C26.6478 29.5054 26.6478 29.3731 26.6478 29.2368C26.8423 29.2368 27.0368 29.2368 27.2372 29.2368C26.868 30.5866 26.3525 31.3047 25.1621 31.9928C24.175 32.5294 23.4508 32.6659 22.3256 32.6442C22.3256 32.5119 22.3256 32.3796 22.3256 32.2433C22.1959 32.2433 22.0662 32.2433 21.9327 32.2433C21.9327 32.0449 21.9327 31.8465 21.9327 31.642C21.6733 31.7082 21.414 31.7743 21.1468 31.8425C21.1468 31.7102 21.1468 31.5779 21.1468 31.4416C21.3317 31.4075 21.5165 31.3734 21.707 31.3382C23.831 30.9431 23.831 30.9431 25.4445 29.5876C25.5174 29.4718 25.5904 29.3561 25.6655 29.2368Z"
        fill="#058CE3" />
    <path
        d="M8.76948 30.239C8.91649 30.3258 8.91649 30.3258 9.06648 30.4144C10.4102 31.1232 11.6008 31.1254 13.0917 31.0407C13.0269 31.2392 12.9621 31.4376 12.8953 31.6421C12.9717 32.0715 12.9717 32.0715 13.0917 32.4438C11.7384 32.8438 10.2393 32.8243 8.93832 32.2567C8.28397 31.8738 7.73845 31.373 7.19775 30.8403C7.78715 30.6399 7.78715 30.6399 8.57301 30.6399C8.63785 30.5076 8.70268 30.3753 8.76948 30.239Z"
        fill="#C74392" />
    <path
        d="M31.9524 9.59448C32.3453 9.79492 32.3453 9.79492 32.5641 10.3876C32.7978 11.3024 32.7887 12.1998 32.7751 13.1397C32.775 13.3082 32.7748 13.4768 32.7747 13.6505C32.7694 14.4074 32.7447 15.0758 32.5418 15.8079C32.1528 15.7418 31.7638 15.6756 31.363 15.6075C31.3459 14.7181 31.3354 13.8287 31.3262 12.9392C31.3212 12.6861 31.3163 12.4331 31.3112 12.1723C31.3093 11.9301 31.3074 11.6879 31.3054 11.4383C31.3008 11.103 31.3008 11.103 31.2961 10.7608C31.363 10.1958 31.363 10.1958 31.6613 9.81747C31.7574 9.74389 31.8534 9.6703 31.9524 9.59448ZM30.3807 15.8079C30.64 15.8741 30.8993 15.9402 31.1665 16.0084C31.1017 16.1407 31.0369 16.2729 30.9701 16.4092C30.7756 16.3431 30.5811 16.2769 30.3807 16.2088C30.3807 16.0765 30.3807 15.9442 30.3807 15.8079Z"
        fill="#05B7F3" />
    <path
        d="M13.6811 1.37664C13.9213 1.90043 13.9213 1.90043 14.074 2.37881C13.9601 2.37671 13.8462 2.37461 13.7289 2.37244C13.2095 2.36408 12.6902 2.35889 12.1708 2.35375C11.9916 2.35039 11.8124 2.34703 11.6278 2.34357C10.7206 2.33684 9.98373 2.33159 9.16238 2.77967C9.16238 2.64739 9.16238 2.5151 9.16238 2.37881C8.57887 2.27959 8.57887 2.27959 7.98358 2.17837C9.42548 0.400889 11.7881 0.394089 13.6811 1.37664Z"
        fill="#C84094" />
    <path
        d="M3.79642 6.73828C4.02132 6.76308 4.02132 6.76308 4.25075 6.78839C4.19953 7.99024 3.78141 8.74381 3.14563 9.74792C2.84839 10.2026 2.84839 10.2026 2.67903 10.7971C2.35486 10.7309 2.03069 10.6648 1.6967 10.5966C1.71493 10.8261 1.71493 10.8261 1.73353 11.0601C1.68231 12.0879 1.39512 13.0217 1.1073 14.004C1.04247 14.004 0.977632 14.004 0.910834 14.004C0.76865 11.5757 1.31803 9.58608 2.67903 7.59013C2.77754 7.44027 2.87606 7.29041 2.97756 7.13602C3.26842 6.78839 3.26842 6.78839 3.79642 6.73828Z"
        fill="#B267DA" />
    <path
        d="M13.0917 9.99531C13.0269 10.326 12.962 10.6567 12.8952 10.9975C12.1363 11.2556 11.4673 11.203 10.6735 11.1854C10.1971 11.1967 9.81258 11.2583 9.35885 11.3983C9.35885 11.2661 9.35885 11.1338 9.35885 10.9975C8.96985 10.8652 8.58084 10.7329 8.18005 10.5966C9.20867 9.23858 11.7176 9.24764 13.0917 9.99531Z"
        fill="#C1449B" />
    <path
        d="M15.0564 27.834C15.0947 28.0208 15.0947 28.0208 15.1339 28.2114C15.2273 28.6621 15.2273 28.6621 15.5844 29.0115C15.8422 29.4375 15.8422 29.4375 15.7808 30.0012C15.2842 30.9583 14.4735 31.8548 13.434 32.1832C13.2646 32.2131 13.2646 32.2131 13.0917 32.2435C12.8348 31.8119 12.6853 31.5572 12.7448 31.0472C12.9283 30.5507 13.129 30.3986 13.546 30.0889C14.3378 29.4407 14.6574 28.7783 15.0564 27.834Z"
        fill="#D72F73" />
    <path
        d="M21.3433 1.1762C21.2399 1.35602 21.2399 1.35602 21.1345 1.53948C20.8849 1.9996 20.8849 1.9996 21.1468 2.57923C20.9685 2.68258 20.7902 2.78593 20.6065 2.89241C19.8663 3.3881 19.5734 3.98564 19.1821 4.78401C19.1173 4.65172 19.0525 4.51943 18.9857 4.38314C18.5967 4.38314 18.2077 4.38314 17.8069 4.38314C18.1062 3.13117 18.7326 2.20627 19.7915 1.50347C20.8591 0.929201 20.8591 0.929201 21.3433 1.1762Z"
        fill="#0373EC" />
    <path
        d="M24.0815 0.913056C24.6073 1.25439 24.7095 1.57841 24.8797 2.17829C24.3363 2.36307 24.0186 2.40235 23.4591 2.3983C23.3015 2.39766 23.1438 2.39701 22.9814 2.39635C22.8177 2.39467 22.6539 2.39299 22.4853 2.39126C22.2362 2.3899 22.2362 2.3899 21.9822 2.38852C21.5728 2.38616 21.1633 2.38256 20.7539 2.37873C20.6891 2.04801 20.6242 1.7173 20.5574 1.37656C21.7284 0.641435 22.7701 0.599922 24.0815 0.913056Z"
        fill="#0483EB" />
    <path
        d="M2.08962 16.8101C2.28412 16.9423 2.47862 17.0746 2.67901 17.2109C2.64508 17.374 2.61114 17.537 2.57618 17.705C2.46671 18.5334 2.49932 19.2988 2.55622 20.1297C2.56483 20.2784 2.57344 20.4271 2.58232 20.5803C2.6303 21.3438 2.70433 22.0758 2.87548 22.8231C2.68098 22.7569 2.48648 22.6908 2.28608 22.6226C1.98966 21.413 2.15998 20.238 2.28608 19.0148C2.02675 19.081 1.76741 19.1471 1.50022 19.2153C1.62989 20.7366 1.75956 22.2579 1.89315 23.8252C0.842722 22.7536 1.06077 20.9363 1.0551 19.5331C1.10686 18.8202 1.22591 18.2681 1.50022 17.6118C1.62989 17.5457 1.75956 17.4795 1.89315 17.4114C1.95799 17.2129 2.02282 17.0145 2.08962 16.8101Z"
        fill="#A16AC6" />
    <path
        d="M31.5595 17.4114C31.754 17.4775 31.9485 17.5437 32.1489 17.6118C32.3492 18.225 32.368 18.6389 32.3646 19.2803C32.3636 19.5893 32.3636 19.5893 32.3626 19.9047C32.361 20.1195 32.3593 20.3343 32.3576 20.5557C32.3568 20.7728 32.3559 20.99 32.355 21.2137C32.3526 21.7502 32.3494 22.2866 32.3454 22.8231C32.2157 22.8892 32.086 22.9554 31.9524 23.0235C31.9524 22.759 31.9524 22.4944 31.9524 22.2218C31.7579 22.2218 31.5634 22.2218 31.363 22.2218C31.363 17.8122 31.363 17.8122 31.5595 17.4114Z"
        fill="#06BBF5" />
    <path
        d="M31.363 15.6074C31.6922 15.6648 32.02 15.7313 32.3453 15.8079C32.3372 16.0352 32.3291 16.2626 32.3208 16.4968C32.3186 17.125 32.3891 17.6679 32.5418 18.2757C32.8829 19.7021 32.8454 21.1902 32.5418 22.6226C32.477 22.6226 32.4121 22.6226 32.3453 22.6226C32.3404 22.4922 32.3355 22.3618 32.3304 22.2274C32.3076 21.6367 32.2835 21.0461 32.2594 20.4554C32.2517 20.2501 32.2439 20.0449 32.236 19.8334C32.2278 19.6364 32.2195 19.4394 32.211 19.2364C32.2038 19.0548 32.1966 18.8732 32.1892 18.6861C32.1644 18.1829 32.1644 18.1829 31.9524 17.6118C31.5908 17.9807 31.5155 18.5275 31.363 19.0148C30.9438 18.302 30.8304 17.635 30.7736 16.81C31.0315 15.9457 31.0315 15.9457 31.363 15.6074Z"
        fill="#07A1D6" />
    <path
        d="M6.80478 5.18481C6.86962 5.3171 6.93445 5.44939 7.00125 5.58568C7.13092 5.58568 7.26058 5.58568 7.39418 5.58568C7.45901 5.4534 7.52385 5.32111 7.59065 5.18481C7.60508 5.35922 7.60508 5.35922 7.61981 5.53714C7.69084 6.29423 7.77139 6.94315 8.02041 7.66518C8.07309 7.83881 8.12577 8.01244 8.18004 8.19132C7.98554 8.48897 7.98554 8.48897 7.78711 8.79262C7.32434 8.76052 7.32434 8.76052 6.80478 8.59219C6.53695 8.10442 6.53695 8.10442 6.35046 7.50233C6.25435 7.20507 6.25435 7.20507 6.15629 6.90181C6.01892 6.38742 6.01892 6.38742 6.01892 5.98655C6.27282 5.71133 6.53452 5.4433 6.80478 5.18481Z"
        fill="#BE53B3" />
    <path
        d="M12.1094 21.4199C12.4525 21.9449 12.5784 22.2293 12.6988 22.823C10.8863 24.1666 10.8863 24.1666 9.75182 24.226C9.75182 24.0937 9.75182 23.9614 9.75182 23.8251C9.62215 23.759 9.49248 23.6928 9.35889 23.6247C9.35889 23.3601 9.35889 23.0955 9.35889 22.823C9.66989 22.7267 9.98098 22.6307 10.2921 22.5348C10.5519 22.4546 10.5519 22.4546 10.817 22.3728C11.2461 22.2448 11.6749 22.1279 12.1094 22.0212C12.1094 21.8228 12.1094 21.6244 12.1094 21.4199Z"
        fill="#C44291" />
    <path
        d="M31.1665 21.6204C31.2314 21.8188 31.2962 22.0172 31.363 22.2217C31.5575 22.2217 31.752 22.2217 31.9524 22.2217C32.1842 22.6437 32.1842 22.6437 32.3453 23.2238C32.1259 23.8478 32.1259 23.8478 31.7805 24.4891C31.6676 24.7033 31.5546 24.9175 31.4382 25.1381C31.3486 25.3001 31.2589 25.4621 31.1665 25.629C31.0316 25.1298 30.9701 24.7514 30.9701 24.226C30.8404 24.1599 30.7107 24.0937 30.5772 24.0256C30.5123 24.6209 30.4475 25.2161 30.3807 25.8295C30.1214 25.7633 29.862 25.6972 29.5948 25.629C29.1591 25.801 29.1591 25.801 28.809 26.0299C28.8827 25.9374 28.9564 25.8449 29.0323 25.7496C29.9799 24.5174 30.8421 23.1721 31.1665 21.6204Z"
        fill="#04A9E1" />
    <path
        d="M2.28613 19.0149C2.28385 19.2082 2.28157 19.4014 2.27922 19.6005C2.27745 19.8537 2.27567 20.1069 2.27385 20.3678C2.27157 20.619 2.26929 20.8701 2.26694 21.1288C2.28613 21.8957 2.28613 21.8957 2.48259 22.6227C2.61226 22.6888 2.74193 22.755 2.87552 22.8231C2.81069 23.1539 2.74586 23.4846 2.67906 23.8253C2.41972 23.8914 2.16039 23.9576 1.89319 24.0257C1.57764 22.4046 1.44858 20.8674 1.50026 19.2153C1.89319 19.0149 1.89319 19.0149 2.28613 19.0149Z"
        fill="#BD7BEA" />
    <path
        d="M2.08963 10.3962C2.2193 10.6608 2.34897 10.9254 2.48256 11.198C2.3529 11.198 2.22323 11.198 2.08963 11.198C2.09272 11.3173 2.0958 11.4366 2.09898 11.5596C2.11121 12.0988 2.1189 12.638 2.12647 13.1773C2.13388 13.459 2.13388 13.459 2.14143 13.7465C2.14333 13.926 2.14523 14.1056 2.14719 14.2906C2.15028 14.4565 2.15336 14.6223 2.15654 14.7932C2.13446 14.9296 2.11238 15.0661 2.08963 15.2067C1.89513 15.3389 1.70063 15.4712 1.50023 15.6075C0.725543 13.9774 1.18247 12.2572 1.6967 10.5967C1.82637 10.5305 1.95603 10.4644 2.08963 10.3962Z"
        fill="#BF78EF" />
    <path
        d="M29.5948 13.8035C30.426 13.864 30.8231 14.4093 31.363 15.0061C31.363 14.6754 31.363 14.3446 31.363 14.0039C31.4278 14.0039 31.4927 14.0039 31.5595 14.0039C31.6086 14.5551 31.6086 14.5551 31.5595 15.2065C31.1788 15.67 31.1788 15.67 30.7736 16.0082C30.7088 16.0744 30.6439 16.1405 30.5771 16.2087C30.7068 16.2748 30.8365 16.341 30.9701 16.4091C30.9052 16.6075 30.8404 16.806 30.7736 17.0104C30.5116 16.6764 30.2497 16.3423 29.9877 16.0082C29.8378 15.8429 29.6879 15.6775 29.5334 15.5072C29.2019 15.0061 29.2019 15.0061 29.2387 14.4549C29.3983 14.0039 29.3983 14.0039 29.5948 13.8035Z"
        fill="#03A2E2" />
    <path
        d="M7.78711 2.17847C8.4993 2.25363 8.4993 2.25363 9.16237 2.3789C8.89073 2.95388 8.5884 3.49336 8.25372 4.03248C8.16609 4.17407 8.07846 4.31566 7.98818 4.46153C7.88865 4.62121 7.88865 4.62121 7.78711 4.78411C7.72228 4.58568 7.65744 4.38725 7.59065 4.18281C7.46098 4.11666 7.33131 4.05052 7.19771 3.98237C7.00321 4.37923 6.80871 4.77609 6.60832 5.18498C6.41382 5.05269 6.21932 4.9204 6.01892 4.78411C6.14859 4.78411 6.27826 4.78411 6.41185 4.78411C6.42806 4.64355 6.44427 4.503 6.46097 4.35819C6.68639 3.47663 7.16016 2.81809 7.78711 2.17847Z"
        fill="#C74BAD" />
    <path
        d="M7.3942 26.8318C7.45903 26.8318 7.52387 26.8318 7.59067 26.8318C7.60991 26.9793 7.62916 27.1268 7.64899 27.2788C7.82452 28.4474 7.99026 29.1341 8.76946 30.0387C8.72034 30.5022 8.72034 30.5022 8.57299 30.8405C7.9222 30.8029 7.9222 30.8029 7.19773 30.64C6.81708 30.1264 6.81708 30.1264 6.60834 29.6379C6.738 29.6379 6.86767 29.6379 7.00127 29.6379C6.99519 29.396 6.99519 29.396 6.98899 29.1493C7.00127 28.6357 7.00127 28.6357 7.19773 28.4353C7.24307 28.1652 7.27859 27.8933 7.30825 27.621C7.35079 27.2303 7.35079 27.2303 7.3942 26.8318Z"
        fill="#B2469F" />
    <path
        d="M13.8776 1.57715C14.7854 2.12444 15.333 2.60486 15.8422 3.58149C15.7774 3.77992 15.7126 3.97835 15.6458 4.18279C15.5809 3.98436 15.5161 3.78593 15.4493 3.58149C15.0593 3.63496 15.0593 3.63496 14.6634 3.78192C14.5986 3.98035 14.5338 4.17878 14.467 4.38322C14.4052 4.28892 14.3434 4.19461 14.2797 4.09745C13.8132 3.4051 13.4078 2.83431 12.6988 2.37888C13.3144 2.16953 13.4826 2.19163 14.0741 2.37888C14.0092 2.11431 13.9444 1.84974 13.8776 1.57715Z"
        fill="#D12E6F" />
    <path
        d="M28.0231 26.8318C28.2176 26.9641 28.4121 27.0964 28.6125 27.2327C28.6125 27.3649 28.6125 27.4972 28.6125 27.6335C28.4829 27.6335 28.3532 27.6335 28.2196 27.6335C28.2196 27.832 28.2196 28.0304 28.2196 28.2348C27.9603 28.301 27.7009 28.3671 27.4337 28.4353C27.4337 28.6998 27.4337 28.9644 27.4337 29.237C27.1744 29.237 26.9151 29.237 26.6479 29.237C26.6479 29.3693 26.6479 29.5016 26.6479 29.6379C26.3885 29.5717 26.1292 29.5056 25.862 29.4374C25.9917 29.3051 26.1213 29.1729 26.2549 29.0366C26.2995 28.8133 26.3441 28.5901 26.39 28.3601C26.6604 27.5983 26.7147 27.5146 27.3601 27.145C27.5789 27.0416 27.7977 26.9383 28.0231 26.8318Z"
        fill="#05A2F6" />
    <path
        d="M3.82101 6.70068C3.96284 6.72962 4.10466 6.75856 4.25078 6.78837C4.10343 8.11625 4.10343 8.11625 3.66139 8.79271C3.40205 8.79271 3.14272 8.79271 2.87552 8.79271C2.81069 9.05729 2.74586 9.32186 2.67906 9.59445C2.48456 9.46216 2.29006 9.32988 2.08966 9.19358C2.18513 8.12216 2.70529 6.87775 3.82101 6.70068Z"
        fill="#BF66DD" />
    <path
        d="M28.2196 21.6581C28.3493 21.7118 28.4789 21.7656 28.6125 21.821C28.6678 22.2805 28.6678 22.2805 28.6125 22.8231C28.2257 23.1841 28.2257 23.1841 27.7284 23.4871C27.5643 23.5896 27.4002 23.6922 27.2311 23.7979C27.1035 23.8731 26.9758 23.9483 26.8443 24.0257C26.7795 23.7612 26.7147 23.4966 26.6479 23.224C26.8424 23.0917 27.0369 22.9594 27.2373 22.8231C26.9131 22.8893 26.5889 22.9554 26.2549 23.0236C26.1901 22.8913 26.1253 22.759 26.0585 22.6227C27.4445 21.6087 27.4445 21.6087 28.2196 21.6581Z"
        fill="#0691D8" />
    <path
        d="M20.9504 18.2131C21.0152 18.2131 21.08 18.2131 21.1468 18.2131C21.1791 18.4526 21.1791 18.4526 21.2121 18.697C21.3806 19.8461 21.5319 20.8239 22.1292 21.8209C21.7402 22.0194 21.7402 22.0194 21.3433 22.2218C21.3433 22.3541 21.3433 22.4864 21.3433 22.6227C21.5378 22.6888 21.7323 22.755 21.9327 22.8231C21.803 22.9554 21.6734 23.0877 21.5398 23.224C21.3422 22.966 21.1459 22.7069 20.9504 22.4473C20.841 22.3031 20.7315 22.159 20.6188 22.0104C20.361 21.6205 20.361 21.6205 20.361 21.2196C20.5555 21.1535 20.75 21.0874 20.9504 21.0192C20.9504 20.0932 20.9504 19.1672 20.9504 18.2131Z"
        fill="#0773DC" />
    <path
        d="M8.41337 10.6216C8.96593 10.7969 8.96593 10.7969 9.35886 10.9974C9.09545 11.8036 8.62652 12.0788 7.9836 12.6008C7.85394 12.7331 7.72427 12.8654 7.59067 13.0017C7.52584 12.8033 7.461 12.6049 7.39421 12.4004C7.52387 12.4004 7.65354 12.4004 7.78714 12.4004C7.7223 12.202 7.65747 12.0036 7.59067 11.7991C7.19478 11.6521 7.19478 11.6521 6.80481 11.5987C7.62471 10.59 7.62471 10.59 8.41337 10.6216Z"
        fill="#BD4EAA" />
    <path
        d="M10.1447 9.59453C12.219 9.52057 12.219 9.52057 13.0917 9.9954C13.0269 10.3261 12.962 10.6568 12.8952 10.9976C12.2872 11.2043 12.006 11.193 11.3849 11.1103C11.2261 11.0899 11.0673 11.0695 10.9037 11.0485C10.7829 11.0317 10.6621 11.0149 10.5376 10.9976C10.8618 10.6669 11.186 10.3361 11.52 9.9954C11.0661 9.92926 10.6123 9.86311 10.1447 9.79497C10.1447 9.72882 10.1447 9.66268 10.1447 9.59453Z"
        fill="#BF347F" />
    <path
        d="M5.42955 21.6204C6.09255 21.73 6.42806 21.8318 7.00128 22.2217C6.90186 22.6564 6.80484 23.0233 6.60835 23.4243C5.97139 23.354 5.7016 23.3116 5.26992 22.8104C5.19293 22.6823 5.11594 22.5541 5.03662 22.4221C5.16629 22.1575 5.29596 21.893 5.42955 21.6204Z"
        fill="#BC58BB" />
    <path
        d="M4.05428 13.4026C4.18394 13.4687 4.31361 13.5349 4.44721 13.603C4.44721 13.7353 4.44721 13.8676 4.44721 14.0039C4.57687 14.0039 4.70654 14.0039 4.84014 14.0039C4.96981 14.1362 5.09947 14.2685 5.23307 14.4048C4.97587 14.706 4.71786 15.0065 4.45949 15.3067C4.31589 15.4741 4.17229 15.6416 4.02435 15.8141C3.90456 15.9443 3.78476 16.0745 3.66134 16.2087C3.59651 16.2087 3.53168 16.2087 3.46488 16.2087C3.46488 15.8779 3.46488 15.5472 3.46488 15.2065C3.59455 15.1403 3.72421 15.0742 3.85781 15.0061C3.43416 15.0061 3.08679 15.0956 2.67902 15.2065C2.98452 14.4415 3.47194 13.9654 4.05428 13.4026Z"
        fill="#B15DC8" />
    <path
        d="M30.5772 24.0256C30.8365 24.1579 31.0958 24.2902 31.363 24.4265C31.2695 24.6898 31.1752 24.9528 31.0806 25.2157C31.0282 25.3622 30.9757 25.5087 30.9217 25.6596C30.7736 26.03 30.7736 26.03 30.5772 26.2304C30.2498 26.2386 29.9222 26.239 29.5948 26.2304C29.5948 26.4288 29.5948 26.6273 29.5948 26.8317C29.4652 26.8317 29.3355 26.8317 29.2019 26.8317C29.0054 26.6313 29.0054 26.6313 28.809 26.03C29.1651 25.7168 29.1651 25.7168 29.5948 25.4287C29.7893 25.4948 29.9838 25.561 30.1842 25.6291C30.2268 25.3439 30.2268 25.3439 30.2702 25.0529C30.3807 24.4265 30.3807 24.4265 30.5772 24.0256Z"
        fill="#06B4F5" />
    <path
        d="M7.00129 3.5813C7.30827 3.79426 7.30827 3.79426 7.59069 4.1826C7.52929 4.9217 7.52929 4.9217 7.39422 5.58564C7.27671 5.61458 7.1592 5.64351 7.03813 5.67333C6.69451 5.76347 6.35555 5.87204 6.01896 5.98651C6.01896 6.11879 6.01896 6.25108 6.01896 6.38737C5.82446 6.38737 5.62996 6.38737 5.42957 6.38737C5.45412 5.9364 5.45412 5.9364 5.62603 5.3852C6.01896 5.11796 6.41189 4.85071 6.80483 4.58347C6.99386 4.0568 6.99386 4.0568 7.00129 3.5813Z"
        fill="#D160D4" />
    <path
        d="M28.6125 26.03C28.8718 26.1623 29.1312 26.2946 29.3984 26.4309C29.3335 26.5632 29.2687 26.6955 29.2019 26.8318C29.3316 26.8318 29.4612 26.8318 29.5948 26.8318C29.5948 26.6333 29.5948 26.4349 29.5948 26.2305C29.8542 26.2966 30.1135 26.3627 30.3807 26.4309C30.0953 26.6993 29.8085 26.9663 29.5212 27.2326C29.2818 27.4559 29.2818 27.4559 29.0377 27.6836C28.6125 28.0344 28.6125 28.0344 28.2196 28.0344C28.2196 27.9021 28.2196 27.7698 28.2196 27.6335C28.3492 27.6335 28.4789 27.6335 28.6125 27.6335C28.3547 27.3203 28.3547 27.3203 28.0231 27.0322C27.8286 27.0322 27.6341 27.0322 27.4337 27.0322C27.8227 26.7015 28.2117 26.3708 28.6125 26.03Z"
        fill="#049DE1" />
    <path
        d="M6.80484 14.6052C6.86967 14.6052 6.93451 14.6052 7.0013 14.6052C7.09921 15.1502 7.19652 15.6954 7.29217 16.2408C7.36909 16.6698 7.45353 17.0973 7.54158 17.524C7.5659 17.7659 7.5659 17.7659 7.5907 18.0126C7.46103 18.1449 7.33137 18.2772 7.19777 18.4135C6.81712 18.4135 6.81712 18.4135 6.41191 18.213C6.05581 17.6243 6.05581 17.6243 5.82251 17.0104C5.88734 16.8781 5.95218 16.7459 6.01898 16.6096C6.31073 16.808 6.31073 16.808 6.60837 17.0104C6.60837 17.275 6.60837 17.5396 6.60837 17.8122C6.73804 17.8122 6.86771 17.8122 7.0013 17.8122C6.96889 17.6179 6.93647 17.4236 6.90307 17.2234C6.77852 16.35 6.78722 15.4859 6.80484 14.6052Z"
        fill="#AA49A1" />
    <path
        d="M11.9866 15.1189C12.6521 15.4907 12.909 15.9505 13.2882 16.6096C12.8019 16.4112 12.8019 16.4112 12.3058 16.2088C12.1113 16.4072 11.9168 16.6056 11.7165 16.8101C11.4218 16.572 11.4218 16.572 11.1271 16.2088C11.0902 15.6701 11.0902 15.6701 11.1271 15.2066C11.52 15.0062 11.52 15.0062 11.9866 15.1189Z"
        fill="#C43685" />
    <path
        d="M1.30376 18.0127C1.36859 18.0127 1.43343 18.0127 1.50023 18.0127C1.51213 18.2476 1.52403 18.4824 1.5363 18.7244C1.62465 20.4282 1.72089 22.1277 1.89316 23.8253C0.98579 22.8996 1.07192 21.5011 1.07046 20.2676C1.07802 18.7423 1.07802 18.7423 1.30376 18.0127Z"
        fill="#9260B3" />
    <path
        d="M20.5574 30.6399C21.0113 30.7722 21.4651 30.9045 21.9327 31.0408C21.9327 31.173 21.9327 31.3053 21.9327 31.4416C21.6734 31.4416 21.414 31.4416 21.1468 31.4416C21.1468 31.5739 21.1468 31.7062 21.1468 31.8425C21.4062 31.7764 21.6655 31.7102 21.9327 31.6421C21.9327 31.8405 21.9327 32.0389 21.9327 32.2434C22.0624 32.2434 22.192 32.2434 22.3256 32.2434C22.3256 32.3757 22.3256 32.5079 22.3256 32.6442C20.803 32.4689 20.803 32.4689 20.361 32.2434C20.361 31.8425 20.361 31.8425 20.7539 31.4416C20.6913 31.0191 20.6913 31.0191 20.5574 30.6399Z"
        fill="#0573D5" />
    <path
        d="M6.60837 14.2043C6.67321 14.2043 6.73804 14.2043 6.80484 14.2043C6.86967 15.3949 6.93451 16.5855 7.0013 17.8122C6.87164 17.8122 6.74197 17.8122 6.60837 17.8122C6.60837 17.5476 6.60837 17.283 6.60837 17.0104C6.34904 16.8781 6.0897 16.7458 5.82251 16.6096C6.01701 16.5434 6.21151 16.4773 6.41191 16.4091C6.40963 16.2668 6.40735 16.1244 6.405 15.9777C6.40234 15.7014 6.40234 15.7014 6.39963 15.4195C6.39735 15.2358 6.39507 15.0521 6.39272 14.8628C6.41191 14.4048 6.41191 14.4048 6.60837 14.2043Z"
        fill="#CE61C8" />
    <path
        d="M8.76948 30.239C9.15848 30.4374 9.54748 30.6359 9.94827 30.8403C9.94827 30.9065 9.94827 30.9726 9.94827 31.0407C9.49444 31.1069 9.0406 31.173 8.57301 31.2412C8.70268 31.5058 8.83235 31.7703 8.96595 32.0429C8.09778 31.7723 7.71967 31.3893 7.19775 30.6399C7.65159 30.6399 8.10543 30.6399 8.57301 30.6399C8.63785 30.5076 8.70268 30.3753 8.76948 30.239Z"
        fill="#B24292" />
    <path
        d="M1.50021 9.59448C1.56505 9.59448 1.62988 9.59448 1.69668 9.59448C1.7775 11.1733 1.58591 12.5014 1.10728 14.004C1.04245 14.004 0.977616 14.004 0.910817 14.004C0.8194 12.4427 1.0764 11.0924 1.50021 9.59448Z"
        fill="#9360BE" />
    <path
        d="M11.0534 9.76978C11.3816 9.78218 11.3816 9.78218 11.7164 9.79483C11.5219 10.0925 11.5219 10.0925 11.3235 10.3961C11.4532 10.5284 11.5828 10.6607 11.7164 10.797C11.0681 10.8631 10.4198 10.9293 9.75177 10.9974C10.0439 9.80529 10.0439 9.80529 11.0534 9.76978Z"
        fill="#DA4BA4" />
    <path
        d="M26.0584 6.78833C26.1233 7.0529 26.1881 7.31748 26.2549 7.59007C26.4494 7.59007 26.6439 7.59007 26.8443 7.59007C26.9739 7.59007 27.1036 7.59007 27.2372 7.59007C27.1378 8.02476 27.0408 8.39174 26.8443 8.79267C26.5201 8.79267 26.1959 8.79267 25.862 8.79267C25.6344 7.98005 25.6975 7.54635 26.0584 6.78833Z"
        fill="#0584CE" />
    <path
        d="M7.19771 2.77954C7.25039 2.90356 7.30307 3.02758 7.35734 3.15535C7.58192 3.64131 7.58192 3.64131 8.18004 3.98214C7.98554 4.24672 7.79104 4.51129 7.59065 4.78388C7.59065 4.58545 7.59065 4.38702 7.59065 4.18258C7.46098 4.11644 7.33131 4.05029 7.19771 3.98214C7.00321 4.379 6.80871 4.77586 6.60832 5.18475C6.41382 5.05246 6.21932 4.92018 6.01892 4.78388C6.14859 4.78388 6.27826 4.78388 6.41185 4.78388C6.43211 4.63919 6.45237 4.4945 6.47325 4.34543C6.62008 3.73262 6.85988 3.30402 7.19771 2.77954Z"
        fill="#B448A6" />
    <path
        d="M13.6811 30.239C13.7054 30.4292 13.7297 30.6193 13.7548 30.8153C13.8219 31.459 13.8219 31.459 14.2705 31.8425C13.8815 31.9748 13.4925 32.1071 13.0917 32.2434C12.8269 31.7984 12.6901 31.5415 12.7356 31.0157C12.9185 30.585 13.1625 30.239 13.6811 30.239Z"
        fill="#C93172" />
    <path
        d="M12.1094 21.4199C12.4525 21.9449 12.5784 22.2293 12.6988 22.823C12.1787 23.1157 11.9337 23.2238 11.3235 23.2238C11.2587 23.0254 11.1939 22.827 11.1271 22.6225C11.2567 22.4241 11.3864 22.2257 11.52 22.0212C11.7145 22.0212 11.909 22.0212 12.1094 22.0212C12.1094 21.8228 12.1094 21.6244 12.1094 21.4199Z"
        fill="#D53F93" />
    <path
        d="M12.5023 1.37671C13.2145 1.45187 13.2145 1.45187 13.8776 1.57714C13.9424 1.84172 14.0072 2.10629 14.074 2.37888C13.4905 2.37888 12.907 2.37888 12.3058 2.37888C12.241 2.18045 12.1762 1.98202 12.1094 1.77758C12.239 1.64529 12.3687 1.513 12.5023 1.37671Z"
        fill="#E23E8B" />
    <path
        d="M4.64366 26.03C4.83816 26.0962 5.03267 26.1623 5.23306 26.2305C5.23306 26.3627 5.23306 26.495 5.23306 26.6313C5.36273 26.6313 5.4924 26.6313 5.62599 26.6313C5.56116 26.8959 5.49632 27.1605 5.42953 27.4331C5.17019 27.4992 4.91086 27.5654 4.64366 27.6335C4.42264 27.17 4.42264 27.17 4.25073 26.6313C4.3804 26.4329 4.51007 26.2345 4.64366 26.03Z"
        fill="#CB5DCC" />
    <path
        d="M7.19775 29.4373C7.39225 29.4373 7.58676 29.4373 7.78715 29.4373C7.91682 29.6357 8.04649 29.8341 8.18008 30.0386C8.37458 30.1047 8.56908 30.1708 8.76948 30.239C8.70465 30.4374 8.63981 30.6359 8.57301 30.8403C8.11918 30.7741 7.66534 30.708 7.19775 30.6399C7.19775 30.243 7.19775 29.8461 7.19775 29.4373Z"
        fill="#D855BE" />
    <path
        d="M4.25076 25.6292C4.5101 25.6953 4.76943 25.7614 5.03662 25.8296C5.03662 26.028 5.03662 26.2264 5.03662 26.4309C4.84212 26.497 4.64762 26.5632 4.44723 26.6313C4.44723 26.8297 4.44723 27.0282 4.44723 27.2326C3.82617 26.9581 3.6628 26.8339 3.26843 26.2305C3.39405 26.2056 3.51966 26.1808 3.64908 26.1553C3.84966 26.0933 3.84966 26.0933 4.0543 26.03C4.11913 25.8977 4.18396 25.7654 4.25076 25.6292Z"
        fill="#A74FBF" />
    <path
        d="M30.5772 23.4243C30.8262 24.1866 30.652 24.4901 30.3807 25.2282C30.3159 25.4267 30.251 25.6251 30.1842 25.8295C29.7258 25.8295 29.2674 25.8295 28.809 25.8295C28.9037 25.7231 28.9984 25.6166 29.096 25.507C29.2201 25.3654 29.3442 25.2238 29.472 25.0779C29.6567 24.8686 29.6567 24.8686 29.845 24.6551C30.1597 24.2571 30.3738 23.8894 30.5772 23.4243Z"
        fill="#088CC6" />
    <path
        d="M15.4493 3.5813C15.5789 3.84587 15.7086 4.11044 15.8422 4.38303C15.5829 4.71375 15.3235 5.04447 15.0564 5.3852C14.6336 4.73822 14.624 4.52654 14.6634 3.78173C15.0564 3.5813 15.0564 3.5813 15.4493 3.5813Z"
        fill="#E5327D" />
    <path
        d="M13.6811 30.239C13.8756 30.239 14.0701 30.239 14.2705 30.239C14.2705 30.4374 14.2705 30.6359 14.2705 30.8403C14.465 30.7742 14.6595 30.708 14.8599 30.6399C14.7951 30.9045 14.7302 31.169 14.6634 31.4416C14.2828 31.5544 14.2828 31.5544 13.8776 31.6421C13.6811 31.4416 13.6811 31.4416 13.6688 30.8278C13.6729 30.6335 13.6769 30.4392 13.6811 30.239Z"
        fill="#E4377F" />
    <path
        d="M3.26842 25.2283C3.65742 25.2283 4.04642 25.2283 4.44721 25.2283C4.51205 25.3606 4.57688 25.4928 4.64368 25.6291C4.51401 25.6291 4.38434 25.6291 4.25075 25.6291C4.12108 25.8937 3.99141 26.1583 3.85782 26.4309C3.53365 26.2324 3.20948 26.034 2.87549 25.8296C3.00516 25.7634 3.13482 25.6973 3.26842 25.6291C3.26842 25.4969 3.26842 25.3646 3.26842 25.2283Z"
        fill="#BB63D6" />
    <path
        d="M26.0584 10.9976C26.3178 11.1298 26.5771 11.2621 26.8443 11.3984C26.7552 11.4811 26.666 11.5638 26.5742 11.649C26.2432 12.0126 26.0599 12.3511 25.862 12.8015C25.6026 12.4046 25.3433 12.0077 25.0761 11.5989C25.4003 11.5989 25.7244 11.5989 26.0584 11.5989C26.0584 11.4004 26.0584 11.202 26.0584 10.9976Z"
        fill="#0A87DC" />
    <path
        d="M7.00127 3.5813C7.30825 3.79426 7.30825 3.79426 7.59067 4.1826C7.52927 4.9217 7.52927 4.9217 7.3942 5.58564C7.26453 5.58564 7.13487 5.58564 7.00127 5.58564C7.00127 5.45335 7.00127 5.32107 7.00127 5.18477C6.8716 5.18477 6.74193 5.18477 6.60834 5.18477C6.738 4.65562 6.86767 4.12648 7.00127 3.5813Z"
        fill="#D85AC2" />
    <path
        d="M3.26845 6.78833C3.4839 7.44771 3.42554 7.73298 3.26845 8.3918C2.87945 8.52409 2.49045 8.65637 2.08966 8.79267C2.35876 7.99193 2.72959 7.4297 3.26845 6.78833Z"
        fill="#A35AC0" />
    <path
        d="M1.69672 22.823C2.08572 22.823 2.47472 22.823 2.87551 22.823C2.81068 23.1537 2.74584 23.4844 2.67904 23.8252C2.41971 23.8913 2.16038 23.9575 1.89318 24.0256C1.82835 23.6287 1.76351 23.2319 1.69672 22.823Z"
        fill="#C874F0" />
    <path
        d="M26.8443 6.18701C26.974 6.25315 27.1037 6.3193 27.2373 6.38745C27.2373 6.7843 27.2373 7.18116 27.2373 7.59005C27.1076 7.59005 26.9779 7.59005 26.8443 7.59005C26.7795 7.72234 26.7147 7.85462 26.6479 7.99092C26.4557 7.38098 26.4424 6.99521 26.6479 6.38745C26.7127 6.3213 26.7775 6.25516 26.8443 6.18701Z"
        fill="#03A5FD" />
    <path
        d="M8.76944 1.37671C8.89911 1.64128 9.02878 1.90585 9.16238 2.17844C9.35688 2.17844 9.55138 2.17844 9.75177 2.17844C9.75177 2.31073 9.75177 2.44302 9.75177 2.57931C9.55727 2.64546 9.36277 2.7116 9.16238 2.77975C9.16238 2.64746 9.16238 2.51517 9.16238 2.37888C8.57887 2.27966 8.57887 2.27966 7.98358 2.17844C8.24292 1.91387 8.50225 1.6493 8.76944 1.37671Z"
        fill="#BA4798" />
    <path
        d="M5.23311 13.2021C5.23311 13.5329 5.23311 13.8636 5.23311 14.2043C4.77927 14.2705 4.32544 14.3366 3.85785 14.4048C3.92268 14.2725 3.98752 14.1402 4.05431 14.0039C4.18398 14.0039 4.31365 14.0039 4.44725 14.0039C4.38241 13.8055 4.31758 13.607 4.25078 13.4026C4.64371 13.2021 4.64371 13.2021 5.23311 13.2021Z"
        fill="#CB66DB" />
    <path
        d="M31.756 8.79272C31.9893 9.13096 31.9893 9.13096 32.1489 9.59446C31.9033 10.1081 31.9033 10.1081 31.5595 10.5966C31.4298 10.7951 31.3002 10.9935 31.1666 11.1979C31.1017 10.8011 31.0369 10.4042 30.9701 9.99533C31.1646 9.99533 31.3591 9.99533 31.5595 9.99533C31.6243 9.59847 31.6892 9.20161 31.756 8.79272Z"
        fill="#039BD3" />
    <path
        d="M7.78716 2.5791C7.98166 2.71139 8.17616 2.84367 8.37655 2.97997C8.31172 3.24454 8.24689 3.50911 8.18009 3.78171C7.92075 3.71556 7.66142 3.64942 7.39423 3.58127C7.39423 3.3167 7.39423 3.05213 7.39423 2.77954C7.52389 2.71339 7.65356 2.64725 7.78716 2.5791Z"
        fill="#D354B9" />
    <path
        d="M12.5023 31.0408C12.6968 31.1069 12.8913 31.1731 13.0917 31.2412C13.0269 31.3735 12.962 31.5058 12.8952 31.6421C12.9601 31.8405 13.0249 32.0389 13.0917 32.2434C12.7675 32.2434 12.4434 32.2434 12.1094 32.2434C12.1094 31.9127 12.1094 31.5819 12.1094 31.2412C12.239 31.1751 12.3687 31.1089 12.5023 31.0408Z"
        fill="#DD4592" />
    <path
        d="M21.9327 21.8208C22.0623 21.9531 22.192 22.0854 22.3256 22.2217C22.2519 22.7478 22.2519 22.7478 22.1291 23.2238C21.5881 22.9479 21.4386 22.5489 21.1468 22.0212C21.5152 21.896 21.5152 21.896 21.9327 21.8208Z"
        fill="#0589FC" />
    <path
        d="M8.37655 11.198C8.63589 11.3303 8.89522 11.4626 9.16242 11.5989C8.86823 11.8468 8.57404 12.0947 8.27986 12.3427C8.0405 12.5514 7.81337 12.7747 7.59069 13.0019C7.52586 12.8035 7.46102 12.605 7.39423 12.4006C7.52389 12.4006 7.65356 12.4006 7.78716 12.4006C7.78716 12.2022 7.78716 12.0037 7.78716 11.7993C8.08186 11.4611 8.08186 11.4611 8.37655 11.198Z"
        fill="#B1419F" />
    <path
        d="M8.18007 7.79053C8.0504 8.12124 7.92073 8.45196 7.78714 8.7927C7.46297 8.72655 7.1388 8.66041 6.80481 8.59226C6.80481 8.45998 6.80481 8.32769 6.80481 8.1914C7.32493 7.89864 7.56994 7.79053 8.18007 7.79053Z"
        fill="#AC429C" />
    <path
        d="M20.5574 2.17847C20.7519 2.31075 20.9464 2.44304 21.1468 2.57933C20.9644 2.69922 20.7821 2.8191 20.5942 2.94262C20.1247 3.27138 19.7549 3.55583 19.3786 3.98237C19.3786 3.65166 19.3786 3.32094 19.3786 2.9802C19.5731 2.9802 19.7676 2.9802 19.968 2.9802C19.968 2.84792 19.968 2.71563 19.968 2.57933C20.1625 2.44705 20.357 2.31476 20.5574 2.17847Z"
        fill="#0269CF" />
    <path
        d="M9.94826 31.041C9.78863 31.4293 9.78863 31.4293 9.55533 31.8427C9.36083 31.9088 9.16632 31.975 8.96593 32.0431C8.83626 31.7786 8.70659 31.514 8.573 31.2414C9.05685 30.9946 9.41377 31.0266 9.94826 31.041Z"
        fill="#DE53B1" />
    <path
        d="M2.08965 16.8101C2.28415 16.9423 2.47865 17.0746 2.67904 17.2109C2.54938 17.5416 2.41971 17.8724 2.28611 18.2131C2.09161 18.2131 1.89711 18.2131 1.69672 18.2131C1.82638 17.7501 1.95605 17.2871 2.08965 16.8101Z"
        fill="#C374F2" />
    <path
        d="M5.42954 12.8013C5.5592 12.8013 5.68887 12.8013 5.82247 12.8013C5.94526 13.1646 5.94526 13.1646 6.01893 13.603C5.82443 13.9006 5.82443 13.9006 5.626 14.2043C5.49633 14.2043 5.36667 14.2043 5.23307 14.2043C5.22471 13.8035 5.22505 13.4025 5.23307 13.0017C5.2979 12.9356 5.36274 12.8694 5.42954 12.8013Z"
        fill="#C55BC7" />
    <path
        d="M2.48259 8.39185C2.80676 8.45799 3.13093 8.52413 3.46492 8.59228C3.27042 8.65842 3.07592 8.72457 2.87552 8.79271C2.73147 9.1966 2.73147 9.1966 2.67906 9.59445C2.48456 9.46216 2.29006 9.32988 2.08966 9.19358C2.21933 8.92901 2.349 8.66444 2.48259 8.39185Z"
        fill="#C475E8" />
    <path
        d="M30.5771 7.99097C30.7068 7.99097 30.8365 7.99097 30.9701 7.99097C30.9701 8.1894 30.9701 8.38783 30.9701 8.59227C31.0997 8.59227 31.2294 8.59227 31.363 8.59227C31.2982 8.85684 31.2333 9.12141 31.1665 9.394C31.0369 9.394 30.9072 9.394 30.7736 9.394C30.7736 9.26172 30.7736 9.12943 30.7736 8.99314C30.6439 8.99314 30.5143 8.99314 30.3807 8.99314C30.4455 8.66242 30.5103 8.3317 30.5771 7.99097Z"
        fill="#09BBFD" />
    <path
        d="M3.66137 6.38745C4.04202 6.42503 4.04202 6.42503 4.44723 6.58789C4.69282 7.00128 4.69282 7.00128 4.84016 7.38962C4.58083 7.58805 4.3215 7.78648 4.0543 7.99092C4.11914 7.59406 4.18397 7.1972 4.25077 6.78832C3.99143 6.72218 3.7321 6.65603 3.4649 6.58789C3.52974 6.52174 3.59457 6.4556 3.66137 6.38745Z"
        fill="#A555BE" />
    <path
        d="M20.9503 9.79492C21.08 9.79492 21.2097 9.79492 21.3433 9.79492C21.2784 10.1256 21.2136 10.4564 21.1468 10.7971C21.3413 10.8632 21.5358 10.9294 21.7362 10.9975C21.5417 11.0637 21.3472 11.1298 21.1468 11.198C21.0171 11.1318 20.8875 11.0657 20.7539 10.9975C20.7455 10.6636 20.7459 10.3293 20.7539 9.99536C20.8187 9.92921 20.8836 9.86307 20.9503 9.79492Z"
        fill="#046BCC" />
    <path
        d="M3.07196 23.4243C3.5121 24.0016 3.8896 24.5966 4.25075 25.2282C3.99142 25.1621 3.73209 25.0959 3.46489 25.0278C3.46489 24.8294 3.46489 24.6309 3.46489 24.4265C3.33522 24.4265 3.20556 24.4265 3.07196 24.4265C3.07196 24.0958 3.07196 23.7651 3.07196 23.4243Z"
        fill="#9752AC" />
    <path
        d="M1.89319 24.0256C2.28219 24.2241 2.28219 24.2241 2.67905 24.4265C2.67905 24.5588 2.67905 24.6911 2.67905 24.8274C2.80872 24.8935 2.93839 24.9597 3.07198 25.0278C2.87748 25.3254 2.87748 25.3254 2.67905 25.6291C2.41972 25.1 2.16038 24.5708 1.89319 24.0256Z"
        fill="#9C5AC1" />
    <path
        d="M19.7716 1.57715C19.8364 1.70943 19.9012 1.84172 19.968 1.97802C19.7735 2.07723 19.7735 2.07723 19.5751 2.17845C19.3524 2.58266 19.3524 2.58266 19.1822 2.98019C18.9877 2.98019 18.7932 2.98019 18.5928 2.98019C18.8665 2.30528 19.178 1.98083 19.7716 1.57715Z"
        fill="#065CC5" />
    <path
        d="M12.1094 0.97583C13.2391 1.12616 13.2391 1.12616 13.6811 1.57713C13.1858 1.82976 13.0228 1.70987 12.5023 1.57713C12.3078 1.67635 12.3078 1.67635 12.1094 1.77757C12.1094 1.51299 12.1094 1.24842 12.1094 0.97583Z"
        fill="#C8377C" />
    <path
        d="M4.64367 26.03C4.83817 26.0962 5.03267 26.1623 5.23307 26.2305C5.17167 26.6188 5.17167 26.6188 5.0366 27.0322C4.8421 27.0983 4.6476 27.1645 4.4472 27.2326C4.4472 26.4309 4.4472 26.4309 4.64367 26.03Z"
        fill="#CC69E0" />
    <path
        d="M26.8443 22.6226C27.4337 22.823 27.4337 22.823 27.6301 23.2239C27.306 23.2239 26.9818 23.2239 26.6478 23.2239C26.583 23.4223 26.5182 23.6207 26.4514 23.8252C26.4514 23.0234 26.4514 23.0234 26.8443 22.6226Z"
        fill="#03A5FD" />
    <path
        d="M12.1094 20.8186C12.3059 21.4199 12.3059 21.4199 12.1094 22.0212C11.5077 22.2592 11.5077 22.2592 10.9306 22.4221C11.3196 21.8929 11.7086 21.3638 12.1094 20.8186Z"
        fill="#A72C6E" />
    <path
        d="M12.5023 20.6182C12.8265 20.6182 13.1506 20.6182 13.4846 20.6182C13.4846 20.8166 13.4846 21.015 13.4846 21.2195C13.0956 21.2856 12.7066 21.3518 12.3058 21.4199C12.3707 21.1553 12.4355 20.8908 12.5023 20.6182Z"
        fill="#E53D8D" />
    <path
        d="M6.60832 16.2087C6.73799 16.2749 6.86766 16.341 7.00126 16.4092C7.00126 16.8722 7.00126 17.3352 7.00126 17.8122C6.87159 17.8122 6.74192 17.8122 6.60832 17.8122C6.60832 17.5476 6.60832 17.2831 6.60832 17.0105C6.47866 16.9443 6.34899 16.8782 6.21539 16.81C6.34506 16.81 6.47473 16.81 6.60832 16.81C6.60832 16.6116 6.60832 16.4132 6.60832 16.2087Z"
        fill="#D75CCD" />
    <path
        d="M12.3058 16.0083C12.3707 16.1406 12.4355 16.2729 12.5023 16.4092C12.632 16.4092 12.7616 16.4092 12.8952 16.4092C12.7656 16.6737 12.6359 16.9383 12.5023 17.2109C12.3078 17.1448 12.1133 17.0786 11.9129 17.0105C12.0426 16.6798 12.1722 16.349 12.3058 16.0083Z"
        fill="#E74095" />
    <path
        d="M3.85782 14.8057C4.05232 14.8057 4.24682 14.8057 4.44722 14.8057C4.19319 15.3838 3.92474 15.7822 3.46489 16.2087C3.44033 15.7327 3.44033 15.7327 3.46489 15.2065C3.59456 15.0742 3.72423 14.942 3.85782 14.8057Z"
        fill="#A357BA" />
    <path
        d="M4.64371 14.0039C4.83821 14.1362 5.03271 14.2685 5.23311 14.4048C4.87701 14.718 4.87701 14.718 4.44725 15.0061C4.25275 14.9399 4.05824 14.8738 3.85785 14.8056C3.85785 14.6734 3.85785 14.5411 3.85785 14.4048C4.11718 14.2725 4.37652 14.1402 4.64371 14.0039Z"
        fill="#B055BE" />
    <path
        d="M7.19774 11.5986C7.39224 11.6648 7.58674 11.7309 7.78714 11.7991C7.78714 11.9975 7.78714 12.1959 7.78714 12.4004C7.46297 12.4004 7.1388 12.4004 6.80481 12.4004C6.80481 12.2019 6.80481 12.0035 6.80481 11.7991C6.93448 11.7329 7.06414 11.6668 7.19774 11.5986Z"
        fill="#D559C4" />
    <path
        d="M8.37651 10.7971C8.90451 10.8598 8.90451 10.8598 9.35883 10.9976C9.35883 11.1298 9.35883 11.2621 9.35883 11.3984C8.83493 11.3984 8.31102 11.3984 7.78711 11.3984C8.02041 11.0852 8.02041 11.0852 8.37651 10.7971Z"
        fill="#D455BA" />
</svg>