<svg width="32" height="32" viewBox="0 0 32 32" fill="none" xmlns="http://www.w3.org/2000/svg">
    <g clip-path="url(#clip0_2860_2393)">
        <path fill-rule="evenodd" clip-rule="evenodd"
            d="M-0.071106 -0.0712891C10.5956 -0.0712891 21.2622 -0.0712891 31.9289 -0.0712891C31.9289 10.5954 31.9289 21.262 31.9289 31.9287C21.2622 31.9287 10.5956 31.9287 -0.071106 31.9287C-0.071106 21.262 -0.071106 10.5954 -0.071106 -0.0712891Z"
            fill="#FEFEFE" />
        <path fill-rule="evenodd" clip-rule="evenodd"
            d="M16.4266 8.17772C15.4184 8.16036 14.66 8.58702 14.1511 9.45772C11.4453 13.0903 8.81417 16.788 6.25775 20.5511C6.16553 21.1474 6.42628 21.4792 7.03997 21.5466C7.3217 21.5556 7.55874 21.4607 7.75108 21.2622C9.54764 18.6409 11.3965 16.0571 13.2978 13.5111C13.8374 13.392 14.3589 13.4394 14.8622 13.6533C15.3204 14.2765 15.7471 14.9165 16.1422 15.5733C15.189 15.8603 14.4306 16.4292 13.8666 17.2799C12.5169 19.2196 11.1658 21.1632 9.81331 23.1111C7.82018 24.9016 5.92388 24.8069 4.12442 22.8266C3.53326 21.7927 3.39103 20.7024 3.69775 19.5555C6.44355 15.4148 9.3117 11.3615 12.3022 7.3955C13.4831 6.55306 14.6683 6.55306 15.8578 7.3955C16.1371 7.60187 16.3267 7.8626 16.4266 8.17772Z"
            fill="#2698AA" />
        <path fill-rule="evenodd" clip-rule="evenodd"
            d="M16.4267 8.17824C19.8096 13.0229 23.0333 17.9769 26.0978 23.0405C25.9015 24.1821 25.2378 24.6088 24.1067 24.3205C23.8527 24.2088 23.6393 24.043 23.4667 23.8227C20.36 19.0305 17.2548 14.2423 14.1511 9.45824C14.66 8.58755 15.4185 8.16088 16.4267 8.17824Z"
            fill="#28ABC0" />
        <path fill-rule="evenodd" clip-rule="evenodd"
            d="M16.1422 15.5732C17.6675 17.8152 19.1609 20.0908 20.6222 22.3999C20.8355 23.7984 20.2429 24.391 18.8444 24.1777C18.5904 24.066 18.3771 23.9002 18.2044 23.6799C16.8337 21.4824 15.3877 19.3491 13.8666 17.2799C14.4305 16.4291 15.189 15.8602 16.1422 15.5732Z"
            fill="#29ABC0" />
    </g>
    <defs>
        <clipPath id="clip0_2860_2393">
            <rect width="32" height="32" fill="white" />
        </clipPath>
    </defs>
</svg>