<svg width="32" height="32" viewBox="0 0 33 33" fill="none" xmlns="http://www.w3.org/2000/svg">
    <path opacity="0.805" fill-rule="evenodd" clip-rule="evenodd"
        d="M9.91176 0.497216C11.3026 0.243819 12.5576 0.566174 13.6765 1.46438C14.3039 3.3987 15.5588 4.68822 17.4412 5.33303C19.3235 4.04351 20.8922 2.43154 22.147 0.497216C23.7157 0.819571 24.6569 1.78673 24.9706 3.3987C23.9841 5.24637 23.9841 7.01956 24.9706 8.7181C27.1948 9.35894 29.5477 9.84252 32.0294 10.1688C32.6569 11.136 32.6569 12.1032 32.0294 13.0703C26.6188 15.937 26.462 19.1608 31.5588 22.7419C31.457 23.6529 31.1433 24.459 30.6176 25.1599C28.4824 24.7977 26.2863 24.7977 24.0294 25.1599C23.4387 27.4518 23.125 29.7085 23.0882 31.93C22.4607 32.0912 21.8333 32.2523 21.2059 32.4136C19.6662 30.8609 17.9407 29.5714 16.0294 28.5449C15.2451 28.7061 14.4607 28.8673 13.6765 29.0285C12.946 31.917 11.3774 32.723 8.97058 31.4464C8.60663 29.2889 8.44974 27.0322 8.49999 24.6763C5.99016 24.0315 3.48042 23.3868 0.970588 22.7419C0.813694 22.2584 0.656894 21.7748 0.5 21.2912C2.57746 19.922 4.14602 18.1489 5.20588 15.9718C4.93736 13.9709 3.83929 12.6814 1.91176 12.1032C1.45059 10.8524 1.29369 9.56281 1.44118 8.23451C3.71449 8.35686 5.91054 8.51809 8.02941 8.7181C9.25717 7.9405 9.88465 6.81211 9.91176 5.33303C8.89613 3.63788 8.89613 2.02591 9.91176 0.497216ZM14.6176 9.20168C21.3803 9.53844 24.0469 13.0847 22.6176 19.8405C20.5835 23.3456 17.603 24.4738 13.6765 23.2255C10.1833 20.7951 9.08522 17.41 10.3823 13.0703C11.697 11.5516 13.1087 10.2621 14.6176 9.20168Z"
        fill="#F1303F" />
</svg>