<svg width="32" height="32" viewBox="0 0 32 32" fill="none" xmlns="http://www.w3.org/2000/svg">
    <path fill-rule="evenodd" clip-rule="evenodd"
        d="M16.0775 1.03418L29.0833 8.54303V23.5608L16.0775 31.0697L3.07178 23.5608V8.54303L16.0775 1.03418Z"
        fill="#0B1B64" />
    <path fill-rule="evenodd" clip-rule="evenodd"
        d="M16.1549 2.58496L27.7952 9.30542V22.7464L16.1549 29.467L4.51465 22.7464V9.30542L16.1549 2.58496Z"
        fill="#0B1B64" />
    <mask id="mask0_2604_265" style="mask-type:luminance" maskUnits="userSpaceOnUse" x="4" y="2"
        width="24" height="28">
        <path
            d="M16.1549 2.58496L27.7952 9.30542V22.7464L16.1549 29.467L4.51465 22.7464V9.30542L16.1549 2.58496Z"
            fill="white" />
    </mask>
    <g mask="url(#mask0_2604_265)">
        <path d="M32.4657 0.818359H0.60791V34.744H32.4657V0.818359Z"
            fill="url(#paint0_linear_2604_265)" />
        <path d="M19.9582 3.4662L13.4458 5.73633L14.1493 7.078L20.6617 4.80787L19.9582 3.4662Z"
            fill="#1F8DF5" />
        <path d="M6.79098 5.94499L1.75146 10.7207L3.11283 12.1572L8.15234 7.38147L6.79098 5.94499Z"
            fill="#1F8DF5" />
        <path
            d="M21.2448 12.5341C19.7081 12.5923 18.1405 13.0202 16.734 13.8625C15.3274 14.7048 14.225 15.8758 13.4731 17.1881C12.9625 18.1004 13.4642 19.2686 14.491 19.5476L14.6445 19.5834C15.3882 19.7766 16.1905 19.4877 16.5738 18.8431C17.0419 18.0201 17.7071 17.3025 18.5891 16.7743C19.4712 16.246 20.4271 15.9929 21.3893 15.9594C22.165 15.9419 22.7929 15.3742 22.9407 14.6153L22.9779 14.4653C23.1669 13.4582 22.3315 12.4899 21.2448 12.5341Z"
            fill="#1F8DF5" />
        <path
            d="M22.6702 6.65217C19.6679 6.45832 16.5634 7.15258 13.7884 8.79732C11.0135 10.4421 8.97479 12.7962 7.74296 15.4997C7.3292 16.4134 7.81738 17.4608 8.80616 17.7341L8.93581 17.7846C9.77101 18.0216 10.6422 17.6326 10.9798 16.8596C11.9263 14.8026 13.4827 12.9889 15.6118 11.727C17.7409 10.4651 20.1076 9.95345 22.3906 10.0963C23.2491 10.1603 24.0046 9.58526 24.1741 8.75273L24.188 8.61718C24.4097 7.65818 23.6679 6.72926 22.6702 6.65217Z"
            fill="#1F8DF5" />
        <path
            d="M23.9735 0.845424C19.5456 0.406757 14.9381 1.31419 10.8423 3.73216C6.74653 6.15013 3.78508 9.71099 2.12924 13.7413C1.77622 14.6493 2.24842 15.6743 3.19866 15.9401L3.35223 15.9766C4.20174 16.2383 5.09289 15.7758 5.41736 14.98C6.77727 11.6333 9.26036 8.6728 12.6616 6.66489C16.0628 4.65699 19.8791 3.89858 23.5731 4.26178C24.4462 4.35052 25.2796 3.79492 25.4361 2.93936L25.4741 2.78969C25.6496 1.8593 24.9618 0.961565 23.9735 0.845424Z"
            fill="#1F8DF5" />
    </g>
    <path
        d="M25.9823 3.39577C25.5326 3.03606 24.9481 2.94613 24.4085 3.08102L12.8977 6.00371C12.0883 6.22853 11.5038 6.94796 11.5038 7.75732L11.5038 21.4265C10.8743 21.1567 10.1548 21.0218 9.34547 21.0218C6.87243 21.0218 4.93896 22.5506 4.93896 24.4391C4.93896 26.3276 6.87243 27.8564 9.34547 27.8564C11.8185 27.8564 13.752 26.3276 13.752 24.4391L13.752 11.6692L24.3636 8.97136L24.3636 18.0991C23.7341 17.8293 23.0146 17.6944 22.2053 17.6944C19.7322 17.6944 17.7988 19.2232 17.7988 21.1117C17.7988 23.0002 19.7322 24.529 22.2053 24.529C24.6783 24.529 26.6118 23.0002 26.6118 21.1117L26.6118 4.83463C26.7017 4.2501 26.4319 3.71052 25.9823 3.39577Z"
        fill="#0B1B64" />
    <defs>
        <linearGradient id="paint0_linear_2604_265" x1="16.0542" y1="29.4871" x2="16.0225"
            y2="2.74625" gradientUnits="userSpaceOnUse">
            <stop stop-color="#236BE9" />
            <stop offset="1" stop-color="#236BE9" />
        </linearGradient>
    </defs>
</svg>