<svg width="32" height="32" viewBox="0 0 32 32" fill="none" xmlns="http://www.w3.org/2000/svg">
    <g clip-path="url(#clip0_4948_461)">
        <path fill-rule="evenodd" clip-rule="evenodd"
            d="M-0.107422 -0.108398C10.5592 -0.108398 21.2259 -0.108398 31.8926 -0.108398C31.8926 10.5583 31.8926 21.2249 31.8926 31.8916C21.2259 31.8916 10.5592 31.8916 -0.107422 31.8916C-0.107422 21.2249 -0.107422 10.5583 -0.107422 -0.108398Z"
            fill="#4F48C9" />
        <path fill-rule="evenodd" clip-rule="evenodd"
            d="M5.29688 11.1353C5.97251 10.9235 6.69322 10.8515 7.45904 10.9191C9.1167 10.9191 10.7743 10.9191 12.432 10.9191C12.9665 11.4081 13.399 11.9847 13.7293 12.6488C13.3004 12.3282 12.904 11.9678 12.5401 11.5677C12.1583 11.4091 11.7619 11.3371 11.3509 11.3515C9.37218 11.1367 7.35417 11.0646 5.29688 11.1353Z"
            fill="#6762AD" />
        <path fill-rule="evenodd" clip-rule="evenodd"
            d="M5.29801 11.1356C7.3553 11.0649 9.37331 11.137 11.3521 11.3518C9.33405 11.3518 7.31602 11.3518 5.29801 11.3518C5.29801 11.5681 5.29801 11.7843 5.29801 12.0005C5.64374 11.9426 5.93204 12.0147 6.16287 12.2167C6.01872 12.2167 5.87459 12.2167 5.73044 12.2167C5.51422 12.2167 5.29801 12.2167 5.08179 12.2167C5.02028 11.8027 5.09236 11.4424 5.29801 11.1356Z"
            fill="#D0D1F7" />
        <path fill-rule="evenodd" clip-rule="evenodd"
            d="M7.45967 10.9192C6.69385 10.8515 5.97314 10.9236 5.29751 11.1354C5.09187 11.4421 5.01978 11.8025 5.08129 12.2165C5.29751 12.2165 5.51372 12.2165 5.72994 12.2165C5.79939 12.5512 6.01561 12.6953 6.37859 12.6489C6.43718 14.3864 6.36512 16.1162 6.16237 17.8381C6.25803 18.1059 6.40218 18.3221 6.59481 18.4867C6.1523 18.4843 5.71987 18.4123 5.29751 18.2705C4.64086 18.5736 3.99221 18.8618 3.35156 19.1354C3.6027 18.4915 3.89098 17.8428 4.21643 17.1894C4.46421 17.3289 4.68043 17.5091 4.86508 17.73C5.2137 17.8857 5.53803 17.8497 5.83805 17.6219C5.98579 16.0302 5.94977 14.4446 5.72994 12.8651C5.51372 12.8651 5.29751 12.8651 5.08129 12.8651C5.43772 14.2767 5.58185 15.7182 5.51372 17.1894C5.22544 17.1894 4.93714 17.1894 4.64886 17.1894C4.64886 16.0363 4.64886 14.8831 4.64886 13.73C4.36058 13.73 4.07228 13.73 3.78399 13.73C3.81044 12.7974 3.66629 11.8965 3.35156 11.0273C3.42363 10.775 3.49571 10.5228 3.56778 10.2705C3.82378 10.6048 4.03999 10.9651 4.21643 11.3516C5.25061 10.8573 6.33169 10.4969 7.45967 10.2705C7.45967 10.4867 7.45967 10.7029 7.45967 10.9192Z"
            fill="#4F49BF" />
        <path fill-rule="evenodd" clip-rule="evenodd"
            d="M11.3508 11.3514C11.7618 11.337 12.1582 11.409 12.54 11.5676C12.9039 11.9677 13.3003 12.3281 13.7292 12.6487C13.7292 13.2974 13.7292 13.946 13.7292 14.5947C13.2711 14.9856 12.7666 15.346 12.2157 15.6757C12.7263 15.974 13.2309 16.2623 13.7292 16.5406C14.005 17.1537 14.1491 17.8024 14.1616 18.4866C13.9213 19.2084 13.4889 19.785 12.8643 20.2163C12.7202 20.2163 12.576 20.2163 12.4319 20.2163C10.0535 20.2163 7.67514 20.2163 5.29676 20.2163C5.28219 19.9009 5.35425 19.6126 5.51298 19.3514C5.92697 19.4129 6.28731 19.3408 6.59406 19.1352C6.8445 17.0109 6.88052 14.8488 6.70217 12.6487C6.61203 12.3771 6.43185 12.233 6.16163 12.2163C5.93079 12.0142 5.64249 11.9422 5.29676 12.0001C5.29676 11.7839 5.29676 11.5676 5.29676 11.3514C7.31477 11.3514 9.3328 11.3514 11.3508 11.3514Z"
            fill="#F6F6F7" />
        <path fill-rule="evenodd" clip-rule="evenodd"
            d="M25.8376 16.7571C25.8376 16.6129 25.8376 16.4688 25.8376 16.3246C25.971 16.3007 26.0791 16.2286 26.162 16.1084C26.3371 15.2744 26.301 14.4816 26.0538 13.73C24.4845 12.1214 22.6828 11.8331 20.6484 12.8652C20.783 12.4684 21.0713 12.2162 21.5133 12.1084C23.1239 11.9579 24.7094 12.1021 26.2701 12.5409C26.4644 13.0147 26.6807 13.4832 26.9187 13.9463C26.4962 14.8168 26.7124 15.3933 27.5674 15.676C27.6026 16.1856 27.5667 16.6901 27.4592 17.1895C27.1157 16.241 26.5751 16.0969 25.8376 16.7571Z"
            fill="#524CB2" />
        <path fill-rule="evenodd" clip-rule="evenodd"
            d="M5.73047 12.2158C5.87462 12.2158 6.01875 12.2158 6.1629 12.2158C6.43313 12.2326 6.6133 12.3767 6.70344 12.6483C6.8818 14.8483 6.84578 17.0105 6.59533 19.1347C6.59533 18.9185 6.59533 18.7023 6.59533 18.4861C6.40271 18.3215 6.25856 18.1053 6.1629 17.8374C6.36565 16.1155 6.43771 14.3858 6.37912 12.6483C6.01613 12.6947 5.79992 12.5505 5.73047 12.2158Z"
            fill="#6663AF" />
        <path fill-rule="evenodd" clip-rule="evenodd"
            d="M8.9723 12.2158C8.85967 13.0766 8.78761 13.9414 8.75608 14.8104C9.2067 14.6486 9.63913 14.6486 10.0534 14.8104C11.0798 14.4904 11.3681 13.8417 10.9182 12.8645C10.5478 12.7825 10.3316 12.5662 10.2696 12.2158C11.9331 12.627 12.2214 13.528 11.1345 14.9185C10.2726 15.0264 9.40771 15.0624 8.53986 15.0266C8.41081 13.9901 8.55496 13.0532 8.9723 12.2158Z"
            fill="#59509E" />
        <path fill-rule="evenodd" clip-rule="evenodd"
            d="M8.97208 12.2158C9.40451 12.2158 9.83694 12.2158 10.2694 12.2158C10.3314 12.5662 10.5476 12.7825 10.918 12.8645C11.3678 13.8417 11.0796 14.4904 10.0532 14.8104C9.63891 14.6486 9.20648 14.6486 8.75586 14.8104C8.78738 13.9414 8.85945 13.0766 8.97208 12.2158Z"
            fill="#5047C6" />
        <path fill-rule="evenodd" clip-rule="evenodd"
            d="M26.0541 13.7295C26.3012 14.481 26.3374 15.2738 26.1622 16.1079C26.0794 16.2281 25.9713 16.3002 25.8379 16.3241C26.0238 15.4735 26.0958 14.6087 26.0541 13.7295Z"
            fill="#A7A7E2" />
        <path fill-rule="evenodd" clip-rule="evenodd"
            d="M13.7303 14.5947C13.6684 14.9789 13.5243 15.3393 13.2979 15.6758C13.3523 16.0159 13.4964 16.3042 13.7303 16.5407C13.232 16.2624 12.7275 15.9741 12.2168 15.6758C12.7677 15.3461 13.2722 14.9857 13.7303 14.5947Z"
            fill="#6C67A9" />
        <path fill-rule="evenodd" clip-rule="evenodd"
            d="M12.4316 10.9193C12.968 10.8812 13.3644 11.0974 13.6208 11.568C13.7122 11.2532 13.8924 11.145 14.1614 11.2437C14.4892 11.6538 14.6334 12.1223 14.5938 12.6491C15.175 12.7213 15.6795 12.5772 16.1073 12.2166C16.0795 12.5877 16.0074 12.9481 15.8911 13.2977C15.569 13.6825 15.1365 13.8267 14.5938 13.7301C14.5938 14.0184 14.5938 14.3067 14.5938 14.595C14.9175 14.7692 15.2779 14.9134 15.6749 15.0274C15.8904 16.4617 15.9625 17.9032 15.8911 19.3518C15.4587 19.3518 15.0262 19.3518 14.5938 19.3518C14.2313 19.204 14.0872 18.9157 14.1614 18.4869C14.1489 17.8027 14.0047 17.1541 13.7289 16.541C13.4951 16.3045 13.3509 16.0162 13.2965 15.6761C13.5229 15.3396 13.667 14.9792 13.7289 14.595C13.7289 13.9464 13.7289 13.2977 13.7289 12.6491C13.3986 11.9849 12.9662 11.4084 12.4316 10.9193Z"
            fill="#514ABD" />
        <path fill-rule="evenodd" clip-rule="evenodd"
            d="M14.5938 14.5947C15.0982 14.5947 15.6028 14.5947 16.1073 14.5947C16.1775 16.2205 16.1054 17.8061 15.891 19.3515C15.9624 17.9029 15.8903 16.4614 15.6748 15.0272C15.2778 14.9131 14.9175 14.769 14.5938 14.5947Z"
            fill="#7674B2" />
        <path fill-rule="evenodd" clip-rule="evenodd"
            d="M16.1088 12.2167C16.7461 12.1568 17.3587 12.2288 17.9466 12.4329C18.0547 14.3054 18.0907 16.1793 18.0547 18.0545C18.0547 18.487 18.0547 18.9194 18.0547 19.3518C17.9827 19.3518 17.9106 19.3518 17.8385 19.3518C17.8385 17.1176 17.8385 14.8833 17.8385 12.6491C17.0593 12.5515 16.4106 12.7677 15.8926 13.2978C16.0089 12.9481 16.081 12.5877 16.1088 12.2167Z"
            fill="#544DA4" />
        <path fill-rule="evenodd" clip-rule="evenodd"
            d="M20.6484 12.8652C19.8825 13.8819 19.8104 14.963 20.4322 16.1085C21.9411 16.4735 22.5176 15.8969 22.1619 14.3787C22.3781 14.3787 22.5943 14.3787 22.8106 14.3787C22.835 14.9298 22.6908 15.4343 22.3781 15.8923C22.6352 16.0931 22.9234 16.1651 23.243 16.1085C22.846 16.5599 22.3416 16.8482 21.7295 16.9733C21.3392 16.6064 20.8347 16.4263 20.216 16.4328C19.9562 16.2377 19.776 15.9854 19.6754 15.676C19.5599 14.7336 19.5959 13.7966 19.7835 12.8652C20.0718 12.8652 20.3601 12.8652 20.6484 12.8652Z"
            fill="#544FA6" />
        <path fill-rule="evenodd" clip-rule="evenodd"
            d="M25.8376 16.3242C25.8376 16.4684 25.8376 16.6125 25.8376 16.7567C26.065 17.1363 26.4255 17.2805 26.9187 17.1891C27.0467 17.7571 27.1187 18.3337 27.1349 18.9188C26.9418 19.3074 26.6536 19.5957 26.27 19.7837C26.4482 19.0779 26.5204 18.3571 26.4862 17.6215C26.27 17.6215 26.0538 17.6215 25.8376 17.6215C25.7729 18.3009 25.4125 18.7694 24.7565 19.0269C24.049 19.1515 23.4004 19.0434 22.8105 18.7026C23.7924 18.8606 24.6572 18.6444 25.4051 18.0539C25.5664 17.7867 25.6384 17.4984 25.6214 17.1891C25.3331 17.1891 25.0447 17.1891 24.7565 17.1891C25.1115 16.9074 25.472 16.6191 25.8376 16.3242Z"
            fill="#5B54A6" />
        <path fill-rule="evenodd" clip-rule="evenodd"
            d="M20.6484 17.1895C20.8647 17.1895 21.0809 17.1895 21.2971 17.1895C21.0809 17.4057 20.8647 17.6219 20.6484 17.8381C20.6484 17.6219 20.6484 17.4057 20.6484 17.1895Z"
            fill="#616089" />
        <path fill-rule="evenodd" clip-rule="evenodd"
            d="M26.0535 13.7297C26.0952 14.6088 26.0232 15.4737 25.8373 16.3243C25.4716 16.6191 25.1112 16.9074 24.7562 17.1891C24.6842 17.1891 24.612 17.1891 24.54 17.1891C23.543 17.3054 22.6061 17.5937 21.7291 18.054C21.5385 18.3264 21.3223 18.5786 21.0805 18.8107C21.5673 18.766 22.0719 18.73 22.594 18.7026C22.666 18.7026 22.7382 18.7026 22.8102 18.7026C23.4001 19.0435 24.0487 19.1516 24.7562 19.027C25.4122 18.7694 25.7726 18.3009 25.8373 17.6216C26.0535 17.6216 26.2697 17.6216 26.4859 17.6216C26.5201 18.3572 26.4479 19.0779 26.2697 19.7837C25.7776 20.3082 25.1648 20.5965 24.4319 20.6486C23.7296 20.5534 23.0448 20.4093 22.3778 20.2161C21.537 19.3109 20.8163 19.383 20.2156 20.4324C20.0715 20.4324 19.9274 20.4324 19.7832 20.4324C19.7832 20.1441 19.7832 19.8558 19.7832 19.5675C19.8801 18.8795 20.1684 18.3029 20.6481 17.8378C20.8643 17.6216 21.0805 17.4053 21.2967 17.1891C21.5111 17.2262 21.6552 17.1541 21.7291 16.9729C22.3413 16.8478 22.8457 16.5595 23.2427 16.108C24.02 15.8161 24.3082 15.2395 24.1075 14.3783C23.8734 13.6262 23.3328 13.2659 22.4859 13.2972C20.8615 13.5015 20.7534 13.8619 22.1616 14.3783C22.5173 15.8964 21.9408 16.473 20.4319 16.108C19.8101 14.9626 19.8822 13.8815 20.6481 12.8648C22.6824 11.8328 24.4842 12.121 26.0535 13.7297Z"
            fill="#EEEEF6" />
        <path fill-rule="evenodd" clip-rule="evenodd"
            d="M24.1075 14.3786C24.3081 15.2398 24.0199 15.8164 23.2426 16.1084C22.923 16.165 22.6348 16.093 22.3777 15.8922C22.6904 15.4342 22.8346 14.9297 22.8102 14.3786C22.594 14.3786 22.3777 14.3786 22.1615 14.3786C22.0958 14.2381 22.0238 14.094 21.9453 13.9462C22.4303 13.7356 22.9347 13.6635 23.4588 13.73C23.4588 13.9462 23.4588 14.1624 23.4588 14.3786C23.675 14.3786 23.8913 14.3786 24.1075 14.3786Z"
            fill="#514AC2" />
        <path fill-rule="evenodd" clip-rule="evenodd"
            d="M24.1084 14.3789C23.8922 14.3789 23.676 14.3789 23.4598 14.3789C23.4598 14.1626 23.4598 13.9464 23.4598 13.7302C22.9356 13.6637 22.4312 13.7358 21.9462 13.9464C22.0247 14.0942 22.0967 14.2383 22.1625 14.3789C20.7543 13.8624 20.8624 13.5021 22.4868 13.2978C23.3337 13.2664 23.8742 13.6268 24.1084 14.3789Z"
            fill="#5E54AC" />
        <path fill-rule="evenodd" clip-rule="evenodd"
            d="M24.54 17.1895C24.612 17.1895 24.6842 17.1895 24.7562 17.1895C25.0444 17.1895 25.3329 17.1895 25.6211 17.1895C25.6382 17.4988 25.5662 17.787 25.4049 18.0543C24.657 18.6448 23.7921 18.861 22.8103 18.703C22.7383 18.703 22.6661 18.703 22.5941 18.703C22.3567 18.509 22.3567 18.3288 22.5941 18.1624C23.113 18.1223 23.6176 18.0141 24.1076 17.8381C24.348 17.6727 24.4922 17.4564 24.54 17.1895Z"
            fill="#5047C2" />
        <path fill-rule="evenodd" clip-rule="evenodd"
            d="M10.2707 19.3511C10.4982 18.9714 10.8586 18.8273 11.3518 18.9187C11.3518 18.1259 11.3518 17.3331 11.3518 16.5403C10.487 16.5403 9.6221 16.5403 8.75723 16.5403C8.75723 17.4051 8.75723 18.27 8.75723 19.1349C9.17122 19.0734 9.53157 19.1454 9.83831 19.3511C9.40588 19.3511 8.97345 19.3511 8.54102 19.3511C8.54102 18.3421 8.54102 17.3331 8.54102 16.3241C9.56019 16.2534 10.5692 16.3255 11.568 16.5403C12.4494 18.1451 12.017 19.082 10.2707 19.3511Z"
            fill="#554F9D" />
        <path fill-rule="evenodd" clip-rule="evenodd"
            d="M17.837 19.3515C18.2185 19.5593 18.651 19.6314 19.1343 19.5677C19.1343 19.7839 19.1343 20.0001 19.1343 20.2163C17.6611 20.4306 16.1476 20.5027 14.5938 20.4325C14.5938 20.0722 14.5938 19.7118 14.5938 19.3515C15.0262 19.3515 15.4586 19.3515 15.891 19.3515C16.1054 17.806 16.1775 16.2204 16.1073 14.5947C15.6028 14.5947 15.0982 14.5947 14.5938 14.5947C14.5938 14.3064 14.5938 14.0181 14.5938 13.7298C15.1365 13.8264 15.5689 13.6822 15.891 13.2974C16.4091 12.7673 17.0578 12.5511 17.837 12.6488C17.837 14.883 17.837 17.1172 17.837 19.3515Z"
            fill="#F1F1F6" />
        <path fill-rule="evenodd" clip-rule="evenodd"
            d="M20.6493 17.1895C20.6493 17.4057 20.6493 17.6219 20.6493 17.8381C20.1696 18.3033 19.8813 18.8799 19.7844 19.5678C19.6403 19.5678 19.4961 19.5678 19.352 19.5678C18.9704 19.36 18.538 19.2879 18.0547 19.3516C18.0547 18.9192 18.0547 18.4868 18.0547 18.0543C18.5385 18.2784 19.043 18.3145 19.5682 18.1624C19.9156 17.9356 20.0597 17.6113 20.0006 17.1895C20.2168 17.1895 20.4331 17.1895 20.6493 17.1895Z"
            fill="#524AB8" />
        <path fill-rule="evenodd" clip-rule="evenodd"
            d="M24.5415 17.1895C24.4937 17.4564 24.3495 17.6727 24.1091 17.8381C23.6191 18.0141 23.1145 18.1223 22.5955 18.1624C22.3581 18.3288 22.3581 18.509 22.5955 18.703C22.0734 18.7303 21.5688 18.7664 21.082 18.8111C21.3238 18.5789 21.5401 18.3267 21.7307 18.0543C22.6077 17.594 23.5445 17.3057 24.5415 17.1895Z"
            fill="#5E54A9" />
        <path fill-rule="evenodd" clip-rule="evenodd"
            d="M10.2694 19.3518C10.1252 19.3518 9.98109 19.3518 9.83694 19.3518C9.53019 19.1462 9.16985 19.0741 8.75586 19.1356C8.75586 18.2707 8.75586 17.4059 8.75586 16.541C9.62072 16.541 10.4856 16.541 11.3505 16.541C11.3505 17.3338 11.3505 18.1266 11.3505 18.9194C10.8572 18.828 10.4969 18.9722 10.2694 19.3518Z"
            fill="#5048C6" />
        <path fill-rule="evenodd" clip-rule="evenodd"
            d="M17.8379 19.3515C17.91 19.3515 17.982 19.3515 18.0541 19.3515C18.5374 19.2878 18.9699 19.3599 19.3514 19.5677C19.4027 19.8469 19.3306 20.0631 19.1352 20.2164C19.1352 20.0002 19.1352 19.784 19.1352 19.5677C18.6519 19.6315 18.2194 19.5594 17.8379 19.3515Z"
            fill="#B8B7EF" />
        <path fill-rule="evenodd" clip-rule="evenodd"
            d="M14.1625 18.4863C14.0883 18.9151 14.2325 19.2034 14.595 19.3512C14.595 19.7116 14.595 20.0719 14.595 20.4323C14.5229 20.4323 14.4508 20.4323 14.3787 20.4323C13.9231 20.2229 13.4186 20.1508 12.8652 20.2161C13.4898 19.7847 13.9222 19.2081 14.1625 18.4863Z"
            fill="#625BB0" />
        <path fill-rule="evenodd" clip-rule="evenodd"
            d="M5.51372 19.3516C5.35499 19.6127 5.28293 19.901 5.2975 20.2164C7.67588 20.2164 10.0543 20.2164 12.4326 20.2164C10.0209 20.4315 7.57043 20.5036 5.08128 20.4326C4.98989 19.9394 5.13404 19.579 5.51372 19.3516Z"
            fill="#E0DBFC" />
        <path fill-rule="evenodd" clip-rule="evenodd"
            d="M6.59535 19.1353C6.2886 19.3409 5.92825 19.413 5.51426 19.3515C5.13459 19.579 4.99044 19.9393 5.08183 20.4326C7.57098 20.5035 10.0214 20.4314 12.4332 20.2164C12.5773 20.2164 12.7215 20.2164 12.8656 20.2164C12.8417 20.3498 12.7696 20.458 12.6494 20.5407C10.0518 20.7207 7.45721 20.6847 4.86562 20.4326C4.59167 20.0281 4.59167 19.6317 4.86562 19.2434C5.43772 19.1358 6.01431 19.0998 6.59535 19.1353Z"
            fill="#6A5FAE" />
        <path fill-rule="evenodd" clip-rule="evenodd"
            d="M19.3505 19.5674C19.4947 19.5674 19.6388 19.5674 19.7829 19.5674C19.7829 19.8557 19.7829 20.144 19.7829 20.4322C18.0254 20.71 16.2957 20.71 14.5938 20.4322C16.1476 20.5024 17.6611 20.4303 19.1343 20.216C19.3297 20.0627 19.4018 19.8465 19.3505 19.5674Z"
            fill="#7269AB" />
        <path fill-rule="evenodd" clip-rule="evenodd"
            d="M22.379 20.2158C21.7712 20.2312 21.1945 20.3754 20.6492 20.6482C20.4511 20.639 20.3069 20.5669 20.2168 20.432C20.8174 19.3826 21.5382 19.3105 22.379 20.2158Z"
            fill="#5E59AB" />
        <path fill-rule="evenodd" clip-rule="evenodd"
            d="M27.1359 18.9189C27.1331 19.6087 26.9168 20.2214 26.4872 20.7568C26.7292 21.1624 27.0896 21.3426 27.5683 21.2973C27.5683 21.946 27.5683 22.5946 27.5683 23.2433C26.9197 23.2433 26.271 23.2433 25.6224 23.2433C25.5694 21.9341 24.9927 21.6459 23.8926 22.3784C23.743 22.2649 23.6349 22.1207 23.5683 21.946C23.3415 22.2934 23.0172 22.4374 22.5953 22.3784C22.5233 21.5135 22.4511 21.5135 22.3791 22.3784C21.8025 22.3784 21.226 22.3784 20.6494 22.3784C20.6494 22.6666 20.6494 22.9551 20.6494 23.2433C19.4962 23.2433 18.3431 23.2433 17.1899 23.2433C17.1899 22.7388 17.1899 22.2342 17.1899 21.7298C16.0244 21.8822 14.8712 21.8822 13.7305 21.7298C13.7305 21.3694 13.7305 21.009 13.7305 20.6487C14.0096 20.7 14.2258 20.6279 14.3791 20.4325C14.4512 20.4325 14.5233 20.4325 14.5953 20.4325C16.2972 20.7102 18.027 20.7102 19.7845 20.4325C19.9287 20.4325 20.0728 20.4325 20.217 20.4325C20.3071 20.5674 20.4512 20.6394 20.6494 20.6487C21.1947 20.3758 21.7713 20.2317 22.3791 20.2162C23.0461 20.4094 23.7309 20.5535 24.4332 20.6487C25.1661 20.5966 25.7789 20.3083 26.271 19.7838C26.6546 19.5958 26.9428 19.3075 27.1359 18.9189Z"
            fill="#5049C3" />
    </g>
    <defs>
        <clipPath id="clip0_4948_461">
            <rect width="32" height="32" fill="white" />
        </clipPath>
    </defs>
</svg>