<svg width="32" height="32" viewBox="0 0 32 32" fill="none" xmlns="http://www.w3.org/2000/svg">
    <path
        d="M21.0777 18.4895C24.3719 18.4895 26.3187 16.3415 26.3187 12.8756V5.53871C26.3187 2.18498 24.3719 0 21.0777 0C17.7835 0 15.7996 2.18498 15.7996 5.53871V12.8756C15.7996 16.3415 17.7085 18.4895 21.0777 18.4895ZM19.243 5.08547C19.243 3.72943 20.0668 3.12593 21.0777 3.12593C22.0878 3.12593 22.8737 3.72821 22.8737 5.08547V13.3646C22.8737 14.7958 22.0121 15.3242 21.0777 15.3242C20.1426 15.3242 19.243 14.7958 19.243 13.3646V5.08547Z"
        fill="#66C61C" />
    <path
        d="M28.1889 21.5726L26.9424 19.99H14.3279V0.225712H11.108V1.58174C10.8829 1.20485 9.72344 0.0742188 7.81453 0.0742188C5.41834 0.0742188 3.80951 1.50538 3.80951 5.08581V13.365C3.80951 17.0204 5.45623 18.4516 7.92668 18.4516C9.87349 18.4516 10.6972 17.1707 10.8844 16.869V19.9887H9.08764C5.71919 19.9887 3.81027 22.1367 3.81027 25.6026V26.3859C3.81027 29.8518 5.71919 31.9997 9.08764 31.9997C12.4569 31.9997 14.3286 29.8518 14.3286 26.3859V23.1553H26.9431L28.1905 21.5726H28.1889ZM9.08689 15.2494C7.77664 15.2494 7.29012 14.4205 7.29012 12.1592V5.12395C7.29012 3.72976 8.11386 3.1644 9.08689 3.1644C10.3971 3.1644 10.8829 3.91817 10.8829 6.21646V12.2355C10.8829 14.4956 10.4343 15.2494 9.08689 15.2494ZM10.8829 23.8795V26.8761C10.8829 28.3073 10.022 28.8356 9.08689 28.8356C8.15175 28.8356 7.25223 28.3073 7.25223 26.8761V25.1136C7.25223 23.6824 8.11386 23.1541 9.08689 23.1541L10.8829 23.1553V23.8782V23.8795Z"
        fill="#66C61C" />
</svg>