<svg width="32" height="32" viewBox="0 0 33 33" fill="none" xmlns="http://www.w3.org/2000/svg">
    <path fill-rule="evenodd" clip-rule="evenodd"
        d="M31.5699 10.0727C28.6497 9.71849 25.7338 9.82177 22.8221 10.3826C22.9079 10.976 22.8073 11.4924 22.5204 11.9321C22.5204 11.4156 22.5204 10.8991 22.5204 10.3826C17.3153 10.7795 12.1872 11.6059 7.13629 12.8617C4.83144 13.2196 2.87071 14.2525 1.25412 15.9606C0.841637 17.262 0.690812 18.6048 0.801649 19.9891C0.7011 19.9891 0.60055 19.9891 0.5 19.9891C0.5 18.4396 0.5 16.8902 0.5 15.3408C1.00273 12.76 1.65631 10.1776 2.46072 7.59367C2.91739 6.19036 3.57097 4.89916 4.42144 3.72011C10.1045 1.04371 16.037 0.0107588 22.2188 0.621263C25.8888 3.20372 29.0059 6.35422 31.5699 10.0727Z"
        fill="#43B0D8" />
    <path fill-rule="evenodd" clip-rule="evenodd"
        d="M31.5698 10.0729C31.8889 10.4138 32.1405 10.827 32.3239 11.3124C32.8042 15.9723 32.3016 20.5173 30.8157 24.9474C30.4908 26.597 29.7367 27.9914 28.5533 29.1308C23.6485 31.6585 18.5205 32.7431 13.1692 32.3846C17.145 32.4364 19.3571 30.3704 19.8055 26.1869C20.5631 24.4321 21.1162 22.5728 21.4645 20.609C21.9717 17.7366 22.3236 14.8443 22.5203 11.9322C22.8072 11.4926 22.9078 10.9761 22.822 10.3828C25.7337 9.82193 28.6496 9.71864 31.5698 10.0729Z"
        fill="#257BB1" />
    <path fill-rule="evenodd" clip-rule="evenodd"
        d="M22.5204 11.9322C22.3237 14.8443 21.9717 17.7366 21.4646 20.609C21.1162 22.5728 20.5632 24.4322 19.8055 26.1869C15.1779 22.156 10.9548 17.7143 7.13623 12.8619C12.1872 11.6061 17.3152 10.7797 22.5204 10.3828C22.5204 10.8993 22.5204 11.4158 22.5204 11.9322Z"
        fill="#FCFDFE" />
    <path fill-rule="evenodd" clip-rule="evenodd"
        d="M7.13621 12.8618C10.9548 17.7142 15.1778 22.1559 19.8055 26.1869C19.3571 30.3703 17.1451 32.4363 13.1692 32.3846C12.2744 32.233 11.4699 31.8717 10.756 31.3C7.56147 28.6 4.59523 25.6561 1.85734 22.4682C1.30087 21.7348 0.948945 20.9084 0.80157 19.9892C0.690732 18.6049 0.841557 17.2621 1.25404 15.9607C2.87063 14.2526 4.83136 13.2197 7.13621 12.8618Z"
        fill="#17548C" />
</svg>