<svg width="32" height="32" viewBox="0 0 32 32" fill="none" xmlns="http://www.w3.org/2000/svg">
    <path opacity="0.979" fill-rule="evenodd" clip-rule="evenodd"
        d="M0 3.30176C7.51469 3.30176 15.0294 3.30176 22.5441 3.30176C22.7905 3.70006 22.8327 4.12334 22.6707 4.5716C21.5167 7.81658 20.2924 11.0335 18.9978 14.2224C13.9338 14.5186 8.86774 14.561 3.79956 14.3494C2.50259 11.1639 1.23607 7.98925 0 4.82557C0 4.31763 0 3.80969 0 3.30176Z"
        fill="#0E52DD" />
    <path opacity="0.94" fill-rule="evenodd" clip-rule="evenodd"
        d="M24.5701 3.30176C25.1611 3.30176 25.7522 3.30176 26.3432 3.30176C30.3056 5.24886 31.2765 8.21183 29.2562 12.1906C27.7921 14.0208 25.8923 14.7827 23.5569 14.4764C22.7125 14.434 21.8681 14.3917 21.0238 14.3494C20.8823 14.1653 20.7979 13.9537 20.7705 13.7145C21.9886 10.2195 23.2551 6.74859 24.5701 3.30176Z"
        fill="#0E52DD" />
    <path opacity="0.961" fill-rule="evenodd" clip-rule="evenodd"
        d="M13.4248 28.6981C11.9894 28.6981 10.5541 28.6981 9.11867 28.6981C7.60971 24.8795 6.17431 21.0277 4.8125 17.1425C4.83408 16.8613 4.91853 16.6073 5.0658 16.3806C9.26409 16.1712 13.4436 16.2136 17.6043 16.5076C17.7695 17.2934 17.685 18.0553 17.351 18.7933C16.1124 22.141 14.8037 25.4426 13.4248 28.6981Z"
        fill="#0E52DD" />
    <path opacity="0.972" fill-rule="evenodd" clip-rule="evenodd"
        d="M27.8632 28.698C23.8103 28.698 19.7574 28.698 15.7046 28.698C15.4485 28.2149 15.4063 27.7069 15.5779 27.1742C16.9289 23.6187 18.2798 20.0631 19.6308 16.5076C20.9617 16.3412 22.3126 16.2565 23.6836 16.2536C30.537 15.8666 33.1544 18.9989 31.5361 25.6504C30.6391 27.1031 29.4149 28.119 27.8632 28.698Z"
        fill="#0E52DD" />
</svg>