<svg width="32" height="32" viewBox="0 0 32 32" fill="none" xmlns="http://www.w3.org/2000/svg">
    <g clip-path="url(#clip0_2206_452)">
        <path d="M0 0H32V32H0V0Z" fill="white" />
        <path
            d="M20.8868 24.8759C21.1618 24.5994 21.4508 24.3373 21.7527 24.0905C21.8595 24.0019 21.5835 24.2153 21.6943 24.1347L21.8272 24.0361L22.0407 23.885C22.2017 23.7756 22.3662 23.6715 22.534 23.5729C22.6924 23.4807 22.8536 23.3934 23.0174 23.3112C23.1043 23.2675 23.1923 23.2259 23.2812 23.1863L23.3979 23.1319C23.5328 23.0735 23.3656 23.1601 23.3254 23.1641C23.4197 23.1386 23.5109 23.1028 23.5973 23.0574L23.8732 22.9607C24.06 22.9003 24.2487 22.8459 24.439 22.7977C24.7096 22.7231 24.9394 22.5442 25.078 22.3002C25.2166 22.0563 25.2526 21.7672 25.1781 21.4967C25.1035 21.2262 24.9246 20.9964 24.6806 20.8578C24.4367 20.7192 24.1476 20.6832 23.8771 20.7577C22.1708 21.2047 20.6193 22.11 19.3906 23.3756C19.2925 23.4738 19.2146 23.5904 19.1616 23.7187C19.1085 23.847 19.0813 23.9845 19.0814 24.1234C19.0815 24.2622 19.1089 24.3997 19.1621 24.5279C19.2154 24.6562 19.2934 24.7726 19.3916 24.8707C19.5901 25.0688 19.859 25.18 20.1394 25.1798C20.4198 25.1796 20.6886 25.0681 20.8868 24.8697V24.8759Z"
            fill="#0968AC" />
        <path
            d="M21.1932 13.1609C20.3706 12.4267 19.3079 12.1867 18.2332 12.2371C18.727 11.7081 19.1029 11.0804 19.3362 10.3955C19.6447 9.43342 19.3866 8.34018 18.4933 7.79144C17.8117 7.37403 16.9628 7.40232 16.1987 7.47682C15.9969 7.49704 15.7833 7.52328 15.5776 7.55349L15.6442 7.35176C15.7163 7.0809 15.6792 6.79254 15.5407 6.54881C15.4023 6.30508 15.1736 6.12548 14.9041 6.04872C14.6334 5.9808 14.347 6.01985 14.1044 6.15775C13.8618 6.29564 13.6817 6.52177 13.6015 6.78907C13.4575 7.24123 13.3103 7.69235 13.1599 8.14242C12.6737 8.30752 12.1964 8.49808 11.7302 8.7133C10.2079 9.42716 8.82149 10.4004 7.63289 11.5896C7.44979 11.7605 7.33318 11.9907 7.30377 12.2395C7.27437 12.4882 7.33407 12.7393 7.47228 12.9482C7.61049 13.1571 7.81825 13.3102 8.05868 13.3804C8.29911 13.4506 8.55664 13.4334 8.78553 13.3317C8.91537 13.2738 9.03221 13.1903 9.12908 13.0863C9.36051 12.8561 9.59993 12.6341 9.84691 12.4207C9.94982 12.3298 10.0486 12.2432 10.1615 12.1564C10.224 12.1059 10.2866 12.0515 10.3631 12.0032C10.1413 12.1625 10.4357 11.9507 10.476 11.9205C11.0065 11.531 11.5645 11.1804 12.1457 10.8715L12.2424 10.8211C11.5629 12.7313 10.8632 14.6314 10.2098 16.5496C10.056 17.0035 9.90617 17.4586 9.76025 17.9151C9.6151 18.371 9.43961 18.839 9.31865 19.313C9.26282 19.4972 9.23761 19.6894 9.24403 19.8818C9.26916 20.088 9.35564 20.2819 9.49225 20.4383C9.62887 20.5948 9.80933 20.7066 10.0102 20.7592C10.2807 20.8281 10.5673 20.7898 10.8101 20.6522C11.0529 20.5146 11.2331 20.2884 11.3129 20.0209C11.7363 18.6312 12.2021 17.2576 12.684 15.888C12.8312 15.8113 12.9764 15.7327 13.1256 15.6601L13.4039 15.527L13.5652 15.4543L13.67 15.408L13.7507 15.3736C14.7337 14.9776 15.7576 14.6914 16.8036 14.5204C17.2947 14.4365 17.7902 14.3806 18.2876 14.353C18.9126 14.3228 19.5418 14.3994 19.9531 14.9218C20.4572 15.5653 20.0379 16.5597 19.6567 17.1406C19.2599 17.7219 18.7963 18.2546 18.2754 18.728C17.8057 19.1944 17.3037 19.6271 16.7732 20.023C16.61 20.1403 16.4446 20.2546 16.2772 20.3659C15.5305 20.8563 14.7424 21.2808 13.922 21.6346C13.6125 21.7676 13.2977 21.8881 12.9784 21.9956C12.6456 22.1126 12.3094 22.2195 11.9702 22.3164C11.6295 22.4128 11.2851 22.4956 10.9379 22.5644C10.5929 22.6368 10.2441 22.6899 9.89337 22.7238C9.62213 22.7398 9.35248 22.7762 9.08672 22.8327C8.82533 22.8857 8.59071 23.0285 8.42342 23.2362L8.39104 23.2785C8.27398 23.4467 8.21522 23.6486 8.22374 23.8534C8.23319 24.0536 8.29375 24.2481 8.39964 24.4182C8.50553 24.5884 8.65323 24.7286 8.82867 24.8256C9.14726 24.9849 9.53843 24.8921 9.87315 24.8497L10.1998 24.8075C10.6609 24.7429 11.1196 24.6621 11.575 24.5653C12.0307 24.4686 12.4804 24.3536 12.924 24.2205C13.3682 24.0894 13.8068 23.94 14.2387 23.7726C14.6698 23.6064 15.0942 23.4234 15.511 23.224C15.9284 23.023 16.3374 22.805 16.737 22.5706C17.1369 22.3357 17.5258 22.0826 17.9025 21.812C18.2825 21.5405 18.6505 21.2525 19.0054 20.9488C19.0983 20.8698 19.1897 20.7891 19.2797 20.7068C19.908 20.1402 20.4843 19.5184 21.0017 18.849C21.6873 17.9636 22.2761 17.0054 22.3123 15.8476C22.3251 15.3463 22.232 14.8479 22.0392 14.385C21.8464 13.922 21.5581 13.5049 21.1932 13.1609ZM15.5937 9.68149C16.0388 9.59187 16.4908 9.54124 16.9446 9.53019C17.0556 9.51888 17.1676 9.53698 17.2694 9.58267C17.4327 9.68354 17.3157 9.89525 17.2371 10.0204C16.8744 10.606 16.414 11.1251 15.876 11.5553C15.4783 11.8486 15.0635 12.118 14.6339 12.3622C14.3597 12.5154 14.0754 12.6466 13.791 12.7818C14.0874 11.9587 14.3818 11.1357 14.6682 10.3088C14.7206 10.1596 14.7709 10.0083 14.8214 9.85902C15.0715 9.7844 15.3275 9.72782 15.5937 9.68149Z"
            fill="#0F0F0F" />
    </g>
    <defs>
        <clipPath id="clip0_2206_452">
            <rect width="32" height="32" fill="white" />
        </clipPath>
    </defs>
</svg>