<svg width="32" height="32" viewBox="0 0 32 32" fill="none" xmlns="http://www.w3.org/2000/svg">
    <g clip-path="url(#clip0_1633_45)">
        <path fill-rule="evenodd" clip-rule="evenodd"
            d="M-0.0710449 -0.071167C10.5956 -0.071167 21.2623 -0.071167 31.929 -0.071167C31.929 10.5955 31.929 21.2622 31.929 31.9288C21.2623 31.9288 10.5956 31.9288 -0.0710449 31.9288C-0.0710449 21.2622 -0.0710449 10.5955 -0.0710449 -0.071167Z"
            fill="#003ECF" />
        <path fill-rule="evenodd" clip-rule="evenodd"
            d="M0.0710449 0.071167C10.6429 0.071167 21.2148 0.071167 31.7866 0.071167C31.7866 10.643 31.7866 21.2149 31.7866 31.7867C21.2148 31.7867 10.6429 31.7867 0.0710449 31.7867C0.0710449 21.2149 0.0710449 10.643 0.0710449 0.071167Z"
            fill="#024DFF" />
        <path fill-rule="evenodd" clip-rule="evenodd"
            d="M8.2732 27.2666C8.71509 27.7131 8.9532 28.2716 8.98756 28.9422C8.63038 28.9422 8.2732 28.9422 7.91602 28.9422C8.03508 28.3837 8.15413 27.8251 8.2732 27.2666Z"
            fill="#1C4BFF" />
        <path fill-rule="evenodd" clip-rule="evenodd"
            d="M2.91553 26.708C3.32495 26.6604 3.7119 26.7224 4.07637 26.8942C4.10614 27.0493 4.13589 27.2046 4.16567 27.3597C4.13277 27.6158 4.0137 27.7709 3.80848 27.8251C3.51083 27.8251 3.21319 27.8251 2.91553 27.8251C2.91553 27.4528 2.91553 27.0804 2.91553 26.708Z"
            fill="#194BFF" />
        <path fill-rule="evenodd" clip-rule="evenodd"
            d="M18.8102 8.83495C19.9548 8.77588 21.086 8.86896 22.2035 9.11422C22.7689 9.63589 23.2748 10.2255 23.7215 10.8829C24.9295 12.824 26.0605 14.8099 27.1147 16.8406C27.219 17.3538 27.1594 17.8503 26.9361 18.33C26.3159 19.659 25.3933 20.683 24.168 21.402C21.7868 21.5262 19.4055 21.5262 17.0243 21.402C16.3385 20.9041 15.7433 20.3145 15.2384 19.6333C14.7335 20.3145 14.1383 20.9041 13.4525 21.402C11.6533 21.5738 9.86737 21.5118 8.09476 21.2158C6.85446 20.1434 6.02103 18.8091 5.59448 17.213C5.70151 16.6168 5.90987 16.0583 6.21955 15.5374C6.99344 14.2962 7.76735 13.055 8.54124 11.8138C8.9712 11.3565 9.47722 11.0152 10.0593 10.7898C11.1308 10.6657 12.2024 10.6657 13.2739 10.7898C14.0867 11.3576 14.7416 12.0713 15.2384 12.9309C15.9492 12.0721 16.5743 11.1412 17.1136 10.1382C17.6119 9.58618 18.1775 9.15175 18.8102 8.83495Z"
            fill="#F7F8FF" />
        <path fill-rule="evenodd" clip-rule="evenodd"
            d="M12.0236 19.2609C10.833 19.3851 9.6424 19.5092 8.45178 19.6333C8.35479 19.6221 8.29527 19.5601 8.27319 19.4471C9.51769 19.2615 10.7678 19.1994 12.0236 19.2609Z"
            fill="#6683FF" />
        <path fill-rule="evenodd" clip-rule="evenodd"
            d="M23.9892 17.9577C24.0862 17.9689 24.1457 18.0309 24.1678 18.1439C22.2344 18.3903 20.3293 18.3903 18.4529 18.1439C20.3306 18.2049 22.176 18.1428 23.9892 17.9577Z"
            fill="#A5B5FF" />
        <path fill-rule="evenodd" clip-rule="evenodd"
            d="M16.4884 17.3992C16.8552 18.0617 17.3314 18.6512 17.9171 19.1679C20.0593 19.2609 22.2024 19.292 24.3464 19.261C24.4039 19.6747 24.2848 20.0161 23.9892 20.2849C21.7867 20.4091 19.5839 20.4091 17.3814 20.2849C16.7779 19.7789 16.3016 19.1583 15.9526 18.4231C16.0641 18.0349 16.2427 17.6936 16.4884 17.3992Z"
            fill="#2450FF" />
        <path fill-rule="evenodd" clip-rule="evenodd"
            d="M11.3092 13.4894C11.8981 14.0763 12.4041 14.7589 12.8273 15.5373C13.0597 15.8845 13.1192 16.2568 13.0059 16.6544C12.6784 17.1199 12.351 17.5853 12.0236 18.0507C10.8925 18.1749 9.76144 18.1749 8.63037 18.0507C9.59453 16.5665 10.4875 15.0461 11.3092 13.4894Z"
            fill="#0C4CFF" />
        <path fill-rule="evenodd" clip-rule="evenodd"
            d="M12.5593 12C12.8046 11.9708 13.0427 12.0018 13.2737 12.0931C13.8839 12.7765 14.2708 13.5522 14.4345 14.4203C14.2559 14.6685 14.0774 14.9168 13.8988 15.165C13.2666 14.3129 12.7011 13.413 12.2021 12.4654C12.3594 12.3336 12.4785 12.1784 12.5593 12Z"
            fill="#1A4CFF" />
        <path fill-rule="evenodd" clip-rule="evenodd"
            d="M23.9893 17.9577C22.1761 18.1428 20.3307 18.2049 18.453 18.1439C17.9524 17.6008 17.5356 16.9802 17.2029 16.2821C18.1851 14.7306 19.1674 13.1791 20.1496 11.6276C21.476 13.7114 22.756 15.8215 23.9893 17.9577Z"
            fill="#084CFF" />
        <path fill-rule="evenodd" clip-rule="evenodd"
            d="M10.2377 11.8138C10.5571 11.7607 10.8547 11.8227 11.1307 12C9.66928 14.0536 8.38937 16.2257 7.29098 18.5162C6.85177 18.0377 6.67318 17.4792 6.7552 16.8406C7.58863 15.4753 8.42205 14.11 9.25548 12.7447C9.56439 12.3906 9.8918 12.0803 10.2377 11.8138Z"
            fill="#1A4DFF" />
        <path fill-rule="evenodd" clip-rule="evenodd"
            d="M21.3103 10.1382C21.7395 10.1183 22.0668 10.3045 22.2926 10.6968C23.5961 12.8874 24.8761 15.0905 26.1323 17.3061C25.9933 17.751 25.7849 18.1544 25.5072 18.5162C24.0104 15.8603 22.4924 13.2227 20.9531 10.6037C21.0524 10.4154 21.1714 10.2603 21.3103 10.1382Z"
            fill="#184DFF" />
        <path fill-rule="evenodd" clip-rule="evenodd"
            d="M8.4519 19.6333C9.64252 19.5091 10.8331 19.385 12.0237 19.2609C12.4129 19.1976 12.7403 19.0114 13.006 18.7024C14.7419 15.7761 16.6171 12.9524 18.6316 10.2313C19.0236 9.97565 19.4404 9.91359 19.8817 10.0451C17.7386 13.3963 15.5956 16.7475 13.4525 20.0987C11.923 20.3979 10.3752 20.4599 8.80909 20.2849C8.57285 20.133 8.4538 19.9157 8.4519 19.6333Z"
            fill="#114BFF" />
    </g>
    <defs>
        <clipPath id="clip0_1633_45">
            <rect width="32" height="32" rx="8" fill="white" />
        </clipPath>
    </defs>
</svg>