<svg width="32" height="32" viewBox="0 0 32 32" fill="none" xmlns="http://www.w3.org/2000/svg">
    <path
        d="M20.0738 21.8461C19.0384 21.8461 18.0771 21.6041 17.282 21.188C16.4364 20.7454 15.7866 20.114 15.395 19.3586C14.9589 18.5147 14.8818 17.5823 15.1666 16.6616L15.1755 16.6292L15.1874 16.5967C15.5552 15.62 16.2139 14.9089 17.095 14.5342C18.7417 13.8378 20.5811 14.5578 20.8749 14.6788C21.1982 14.8056 22.1506 15.0564 22.7915 14.7732C22.9725 14.6935 23.2365 14.5283 23.4264 14.0443C23.6934 13.106 22.8567 12.5513 22.4799 12.3536C21.7026 11.9464 20.679 11.8549 19.6674 12.0998C18.4064 12.4067 17.2256 13.2152 16.2495 14.4368C11.6093 20.3323 10.9536 21.2352 10.9269 21.2707C10.5501 21.7959 9.82024 21.9169 9.29212 21.5421C8.76403 21.1674 8.64237 20.4386 9.01917 19.9133C9.04292 19.8809 9.66597 19.0163 14.413 12.9968L14.4159 12.9909C15.7184 11.3592 17.3413 10.2674 19.1125 9.83659C20.6731 9.45595 22.299 9.62119 23.5777 10.291C24.4144 10.7277 25.0582 11.3533 25.4409 12.0969C25.8711 12.929 25.9482 13.8525 25.6634 14.7643L25.6545 14.7968L25.6426 14.8292C25.2748 15.8089 24.6131 16.5288 23.732 16.9124C23.1801 17.1515 22.6075 17.2341 22.0824 17.2341C21.0114 17.2341 20.1272 16.8918 19.9907 16.8357L19.97 16.8269C19.6644 16.7 18.6616 16.4049 18.0148 16.6823C17.8397 16.756 17.5905 16.9095 17.4066 17.3787C17.1218 18.3731 18.0801 18.9632 18.3827 19.1225C19.9106 19.9251 22.4859 19.6242 24.5271 17.0688C26.2004 14.9355 27.4554 13.3303 28.3722 12.1588C29.1347 11.1821 29.639 10.5359 29.909 10.1995C30.3125 9.69496 31.0484 9.60939 31.5558 10.0107C32.0629 10.412 32.149 11.1438 31.7457 11.6483C31.4844 11.9759 30.9832 12.6191 30.2235 13.5899C29.3068 14.7643 28.0488 16.3724 26.3725 18.5088L26.3666 18.5147C24.4559 20.9077 22.121 21.8461 20.0738 21.8461Z"
        fill="#7082F5" />
    <path
        d="M3.76182 21.7279C3.25151 21.7279 2.75604 21.6483 2.29617 21.486C0.842397 20.9784 -0.0565701 19.7303 0.00276773 18.3021C0.0621055 16.8681 1.10942 15.6052 2.54539 15.2334C3.80037 14.9088 4.68748 15.0917 6.19763 15.6258C6.8088 15.8412 7.12628 16.5081 6.90969 17.1159C6.69311 17.7238 6.02258 18.0395 5.41141 17.8241C4.10301 17.3608 3.73215 17.3372 3.13582 17.4907C2.70264 17.6028 2.36441 17.9923 2.34661 18.3995C2.32287 18.9601 2.84801 19.205 3.0735 19.2847C4.16234 19.6654 5.96917 19.0959 7.55052 16.9625L7.56834 16.9389C8.16468 16.1746 8.56818 15.6583 8.92717 15.2039C9.48197 14.4986 9.88249 13.9852 10.6064 13.0439C11.001 12.5334 11.7368 12.4361 12.2501 12.8256C12.7634 13.218 12.8613 13.9498 12.4696 14.4603C11.7368 15.4104 11.3333 15.9268 10.7755 16.6379C10.4195 17.0894 10.019 17.6028 9.42858 18.3582C8.39015 19.7568 7.15 20.7748 5.8416 21.306C5.15031 21.5863 4.44123 21.7279 3.76182 21.7279Z"
        fill="#7082F5" />
    <path
        d="M14.5545 11.8397C15.1936 11.8397 15.7116 11.3244 15.7116 10.6889C15.7116 10.0533 15.1936 9.53809 14.5545 9.53809C13.9155 9.53809 13.3975 10.0533 13.3975 10.6889C13.3975 11.3244 13.9155 11.8397 14.5545 11.8397Z"
        fill="#FF8D14" />
    <path
        d="M28.2489 19.6209C28.8879 19.6209 29.406 19.1057 29.406 18.4701C29.406 17.8345 28.8879 17.3193 28.2489 17.3193C27.6099 17.3193 27.0918 17.8345 27.0918 18.4701C27.0918 19.1057 27.6099 19.6209 28.2489 19.6209Z"
        fill="#FF8D14" />
</svg>