<svg width="32" height="32" viewBox="0 0 32 32" fill="none" xmlns="http://www.w3.org/2000/svg">
    <g clip-path="url(#clip0_3026_2934)">
        <path
            d="M29.5892 15.7835C29.189 15.3116 28.1862 15.2084 28.1071 14.5546C28.2968 13.428 28.2437 12.274 27.9511 11.1694C27.6585 10.0647 27.1333 9.03458 26.4102 8.14725C23.372 3.96907 16.6064 3.86093 13.3928 7.81791C19.5557 11.7405 21.4898 21.2766 17.1597 27.3128H25.2468C31.2787 27.6324 34.5294 19.4554 29.5892 15.7835Z"
            fill="#2981C4" />
        <path
            d="M6.79759 9.70799C5.98101 10.2161 5.29264 10.9041 4.78558 11.7189C4.27851 12.5337 3.96629 13.4534 3.87301 14.4072C3.86831 14.5559 3.82308 14.7006 3.74215 14.8257C3.66123 14.9508 3.54765 15.0517 3.41357 15.1175C-3.14945 18.8042 0.516157 27.3891 7.91654 27.3129H14.7686C16.608 25.1123 17.614 22.3398 17.6116 19.4776C17.6857 14.0558 12.6468 5.83457 6.79759 9.70799ZM10.688 15.904C10.688 16.258 10.5825 16.604 10.3848 16.8983C10.1871 17.1926 9.90606 17.4219 9.57734 17.5573C9.24861 17.6926 8.88692 17.7279 8.53803 17.6587C8.18914 17.5894 7.86873 17.4188 7.61735 17.1683C7.36596 16.9178 7.19489 16.5988 7.12578 16.2516C7.05668 15.9043 7.09264 15.5445 7.22912 15.2176C7.36561 14.8907 7.59647 14.6114 7.89252 14.4151C8.18856 14.2188 8.53647 14.1143 8.89223 14.1148C9.36872 14.1154 9.82547 14.3042 10.1622 14.6397C10.4989 14.9752 10.688 15.4299 10.688 15.904ZM10.688 23.0806C10.688 23.4346 10.5825 23.7807 10.3848 24.075C10.1871 24.3693 9.90606 24.5986 9.57734 24.7339C9.24861 24.8693 8.88692 24.9046 8.53803 24.8353C8.18914 24.7661 7.86873 24.5954 7.61735 24.345C7.36596 24.0945 7.19489 23.7754 7.12578 23.4282C7.05668 23.081 7.09264 22.7211 7.22912 22.3942C7.36561 22.0673 7.59647 21.7881 7.89252 21.5918C8.18856 21.3954 8.53647 21.2909 8.89223 21.2914C9.36872 21.2921 9.82547 21.4809 10.1622 21.8163C10.4989 22.1518 10.688 22.6065 10.688 23.0806Z"
            fill="#12B0E6" />
    </g>
    <defs>
        <clipPath id="clip0_3026_2934">
            <rect width="32" height="32" fill="white" />
        </clipPath>
    </defs>
</svg>