<svg width="32" height="32" viewBox="0 0 32 32" fill="none" xmlns="http://www.w3.org/2000/svg">
    <g clip-path="url(#clip0_4211_663)">
        <path fill-rule="evenodd" clip-rule="evenodd"
            d="M-0.071167 -0.0712891C10.5955 -0.0712891 21.2622 -0.0712891 31.9288 -0.0712891C31.9288 10.5954 31.9288 21.262 31.9288 31.9287C21.2622 31.9287 10.5955 31.9287 -0.071167 31.9287C-0.071167 21.262 -0.071167 10.5954 -0.071167 -0.0712891Z"
            fill="#FEFEFE" />
        <path fill-rule="evenodd" clip-rule="evenodd"
            d="M10.0266 7.4668C13.3925 7.4668 16.7584 7.4668 20.1244 7.4668C20.0317 9.93666 20.1264 12.3544 20.4088 14.7201C23.5687 15.6335 24.825 17.7193 24.1777 20.9779C23.4956 23.0815 22.0497 24.243 19.8399 24.4624C16.5691 24.5335 13.2981 24.5572 10.0266 24.5335C10.0266 18.8446 10.0266 13.1557 10.0266 7.4668Z"
            fill="#020202" />
        <path fill-rule="evenodd" clip-rule="evenodd"
            d="M10.0266 7.46645C13.4154 7.32457 16.8288 7.27716 20.2666 7.32422C20.2212 9.80034 20.2687 12.2655 20.4088 14.7198C20.1264 12.3541 20.0317 9.93631 20.1244 7.46645C16.7584 7.46645 13.3925 7.46645 10.0266 7.46645Z"
            fill="#707070" />
        <path fill-rule="evenodd" clip-rule="evenodd"
            d="M12.8711 10.1689C14.3882 10.1689 15.9051 10.1689 17.4222 10.1689C17.4222 11.6386 17.4222 13.1082 17.4222 14.5778C15.9051 14.5778 14.3882 14.5778 12.8711 14.5778C12.8711 13.1082 12.8711 11.6386 12.8711 10.1689Z"
            fill="#FCFCFC" />
        <path fill-rule="evenodd" clip-rule="evenodd"
            d="M12.8711 17.2804C15.1471 17.2566 17.4226 17.2804 19.6978 17.3515C21.471 18.073 21.9214 19.2819 21.0489 20.9782C20.6754 21.3666 20.225 21.6273 19.6978 21.7604C17.4226 21.8315 15.1471 21.8553 12.8711 21.8315C12.8711 20.3144 12.8711 18.7975 12.8711 17.2804Z"
            fill="#F7F7F7" />
    </g>
    <defs>
        <clipPath id="clip0_4211_663">
            <rect width="32" height="32" fill="white" />
        </clipPath>
    </defs>
</svg>