<svg width="32" height="32" viewBox="0 0 32 32" fill="none" xmlns="http://www.w3.org/2000/svg">
<g clip-path="url(#clip0_4508_233)">
<path fill-rule="evenodd" clip-rule="evenodd" d="M-0.0800781 -0.0800781C10.5866 -0.0800781 21.2532 -0.0800781 31.9199 -0.0800781C31.9199 10.5866 31.9199 21.2532 31.9199 31.9199C21.2532 31.9199 10.5866 31.9199 -0.0800781 31.9199C-0.0800781 21.2532 -0.0800781 10.5866 -0.0800781 -0.0800781Z" fill="#0DDB4C"/>
<path fill-rule="evenodd" clip-rule="evenodd" d="M10.9601 6.3201C13.1594 6.26974 15.3461 6.32309 17.5201 6.4801C17.5734 6.58677 17.6268 6.69342 17.6801 6.8001C17.4791 6.80627 17.3191 6.72627 17.2001 6.5601C15.1741 6.48011 13.1475 6.45344 11.1201 6.4801C11.1201 7.2801 11.1201 8.0801 11.1201 8.8801C10.962 8.05762 10.9087 7.20429 10.9601 6.3201Z" fill="#207636"/>
<path fill-rule="evenodd" clip-rule="evenodd" d="M17.8401 7.12011C17.9703 7.85917 18.0236 8.60584 18.0001 9.36011C18.1225 10.8811 18.4158 12.3744 18.8801 13.8401C19.6766 14.4798 20.4498 15.1731 21.2001 15.9201C20.9356 16.3904 20.5623 16.5236 20.0801 16.3201C20.0268 16.3734 19.9734 16.4268 19.9201 16.4801C20.0801 16.5334 20.2401 16.5868 20.4001 16.6401C20.0801 16.7468 19.8668 16.9601 19.7601 17.2801C19.6084 17.3574 19.4484 17.384 19.2801 17.3601C19.2801 17.5734 19.2801 17.7868 19.2801 18.0001C19.2268 18.2134 19.1734 18.4268 19.1201 18.6401C19.1201 18.6934 19.1201 18.7468 19.1201 18.8001C18.8534 19.3334 18.5868 19.8668 18.3201 20.4001C18.0444 20.7649 17.9378 21.1916 18.0001 21.6801C17.8401 21.6801 17.6801 21.6801 17.5201 21.6801C17.5201 22.3201 17.5201 22.9601 17.5201 23.6001C17.3086 23.6273 17.1218 23.574 16.9601 23.4401C16.881 23.7016 16.8545 23.9683 16.8801 24.2401C17.0401 24.2401 17.2001 24.2401 17.3601 24.2401C17.3943 24.5032 17.3409 24.7432 17.2001 24.9601C15.2147 25.09 13.2413 25.0633 11.2801 24.8801C11.2626 23.8088 11.316 22.742 11.4401 21.6801C11.4401 21.5734 11.4401 21.4668 11.4401 21.3601C12.0027 20.6264 12.536 19.8798 13.0401 19.1201C13.539 18.79 14.0724 18.4968 14.6401 18.2401C14.7605 18.1328 14.8138 17.9995 14.8001 17.8401C15.3715 17.6574 15.9581 17.5507 16.5601 17.5201C16.5601 17.3601 16.5601 17.2001 16.5601 17.0401C17.0154 17.0318 17.3889 16.8718 17.6801 16.5601C18.2329 16.4596 18.4196 16.1396 18.2401 15.6001C18.1095 15.3885 17.9228 15.2818 17.6801 15.2801C17.4668 15.2268 17.2534 15.1734 17.0401 15.1201C16.7201 14.9068 16.4001 14.6934 16.0801 14.4801C15.9925 14.29 15.9391 14.1033 15.9201 13.9201C15.2938 13.7149 14.6538 13.5815 14.0001 13.5201C13.9244 13.2951 13.7644 13.1884 13.5201 13.2001C13.376 12.8438 13.1093 12.6838 12.7201 12.7201C12.7201 12.5601 12.7201 12.4001 12.7201 12.2401C12.5452 11.8837 12.3852 11.5103 12.2401 11.1201C11.9728 10.7798 11.7061 10.4598 11.4401 10.1601C11.3203 8.9907 11.267 7.81736 11.2801 6.64011C13.0409 6.61347 14.8009 6.64014 16.5601 6.72011C17.0047 6.80987 17.4314 6.94322 17.8401 7.12011Z" fill="#1B1C1B"/>
<path fill-rule="evenodd" clip-rule="evenodd" d="M17.52 6.47998C17.8531 6.49987 18.0931 6.65987 18.24 6.95998C18.32 8.13211 18.3466 9.30544 18.32 10.48C18.2133 10.1067 18.1067 9.73331 18 9.35998C18.0235 8.60571 17.9703 7.85904 17.84 7.11998C17.8675 6.96132 17.8141 6.85465 17.68 6.79998C17.6267 6.69331 17.5733 6.58665 17.52 6.47998Z" fill="#26CB55"/>
<path fill-rule="evenodd" clip-rule="evenodd" d="M17.6801 6.79996C17.8142 6.85464 17.8676 6.96131 17.8401 7.11996C17.4315 6.94307 17.0048 6.80972 16.5601 6.71996C14.8009 6.64 13.0409 6.61332 11.2801 6.63996C11.267 7.81721 11.3204 8.99056 11.4401 10.16C11.2752 9.76624 11.1685 9.33956 11.1201 8.87996C11.1201 8.07996 11.1201 7.27996 11.1201 6.47996C13.1475 6.45331 15.1741 6.47998 17.2001 6.55996C17.3192 6.72614 17.4792 6.80614 17.6801 6.79996Z" fill="#05330D"/>
<path fill-rule="evenodd" clip-rule="evenodd" d="M10.9599 6.32007C10.9085 7.20426 10.9618 8.05759 11.1199 8.88007C11.1683 9.33967 11.2749 9.76634 11.4399 10.1601C11.5999 10.5867 11.7599 11.0134 11.9199 11.4401C11.676 11.3323 11.4626 11.1723 11.2799 10.9601C10.6582 9.54149 10.4715 8.04816 10.7199 6.48007C10.7811 6.39111 10.8611 6.33778 10.9599 6.32007Z" fill="#23CA54"/>
<path fill-rule="evenodd" clip-rule="evenodd" d="M11.4399 10.1599C11.706 10.4596 11.9726 10.7796 12.2399 11.1199C12.3851 11.5101 12.5451 11.8835 12.7199 12.2399C12.3451 12.0729 12.0784 11.8063 11.9199 11.4399C11.7599 11.0132 11.5999 10.5866 11.4399 10.1599Z" fill="#102F14"/>
<path fill-rule="evenodd" clip-rule="evenodd" d="M13.52 13.2001C13.7643 13.1884 13.9243 13.2951 14 13.5201C13.7557 13.5318 13.5957 13.4251 13.52 13.2001Z" fill="#0A5824"/>
<path fill-rule="evenodd" clip-rule="evenodd" d="M14 13.52C14.6538 13.5814 15.2938 13.7148 15.92 13.92C15.9391 14.1032 15.9924 14.2899 16.08 14.48C15.9733 14.48 15.8667 14.48 15.76 14.48C15.1264 14.218 14.5398 13.898 14 13.52Z" fill="#112818"/>
<path fill-rule="evenodd" clip-rule="evenodd" d="M15.76 14.48C15.8667 14.48 15.9733 14.48 16.08 14.48C16.4 14.6933 16.72 14.9067 17.04 15.12C16.4926 15.1172 16.0659 14.9038 15.76 14.48Z" fill="#1F8D3F"/>
<path fill-rule="evenodd" clip-rule="evenodd" d="M17.6799 15.28C17.9227 15.2817 18.1094 15.3884 18.2399 15.6C18.4195 16.1395 18.2327 16.4595 17.6799 16.56C18.1067 16.1333 18.1067 15.7067 17.6799 15.28Z" fill="#06521E"/>
<path fill-rule="evenodd" clip-rule="evenodd" d="M18 9.36011C18.1067 9.73344 18.2133 10.1068 18.32 10.4801C18.6198 12.3163 19.4198 13.8896 20.72 15.2001C20.8717 15.2774 21.0317 15.304 21.2 15.2801C21.4262 15.5288 21.693 15.7421 22 15.9201C21.5941 16.2028 21.1675 16.4428 20.72 16.6401C20.5083 16.7707 20.4018 16.9574 20.4 17.2001C20.0328 17.3019 19.7662 17.5151 19.6 17.8401C19.4933 17.8934 19.3867 17.9468 19.28 18.0001C19.28 17.7868 19.28 17.5734 19.28 17.3601C19.4483 17.3839 19.6083 17.3574 19.76 17.2801C19.8667 16.9601 20.08 16.7468 20.4 16.6401C20.24 16.5868 20.08 16.5334 19.92 16.4801C19.9733 16.4268 20.0267 16.3734 20.08 16.3201C20.5622 16.5236 20.9355 16.3903 21.2 15.9201C20.4498 15.1731 19.6765 14.4798 18.88 13.8401C18.4157 12.3744 18.1224 10.8811 18 9.36011Z" fill="#102D15"/>
<path fill-rule="evenodd" clip-rule="evenodd" d="M17.6801 16.56C17.3889 16.8717 17.0154 17.0317 16.5601 17.04C16.8297 16.6691 17.2031 16.5091 17.6801 16.56Z" fill="#09421B"/>
<path fill-rule="evenodd" clip-rule="evenodd" d="M21.1999 15.28C21.5621 15.395 21.9354 15.4483 22.3199 15.44C22.4111 16.0674 22.1444 16.4141 21.5199 16.48C21.4105 17.1075 21.037 17.3475 20.3999 17.2C20.4017 16.9573 20.5082 16.7706 20.7199 16.64C21.1674 16.4427 21.594 16.2027 21.9999 15.92C21.6929 15.742 21.4261 15.5287 21.1999 15.28Z" fill="#20C553"/>
<path fill-rule="evenodd" clip-rule="evenodd" d="M16.56 17.04C16.56 17.2 16.56 17.36 16.56 17.52C15.9581 17.5506 15.3714 17.6573 14.8 17.84C15.3135 17.4506 15.9002 17.1839 16.56 17.04Z" fill="#123517"/>
<path fill-rule="evenodd" clip-rule="evenodd" d="M19.6001 17.8401C19.6936 18.2857 19.5336 18.5524 19.1201 18.6401C19.1734 18.4268 19.2268 18.2134 19.2801 18.0001C19.3868 17.9468 19.4934 17.8934 19.6001 17.8401Z" fill="#1A893E"/>
<path fill-rule="evenodd" clip-rule="evenodd" d="M14.8 17.8401C14.8138 17.9994 14.7604 18.1327 14.64 18.2401C14.0723 18.4967 13.539 18.79 13.04 19.1201C13.5362 18.5708 14.1229 18.1441 14.8 17.8401Z" fill="#063815"/>
<path fill-rule="evenodd" clip-rule="evenodd" d="M19.1201 18.8C19.0941 19.6607 18.8274 20.4074 18.3201 21.04C18.3201 20.8268 18.3201 20.6133 18.3201 20.4C18.5868 19.8668 18.8533 19.3333 19.1201 18.8Z" fill="#29BB55"/>
<path fill-rule="evenodd" clip-rule="evenodd" d="M13.0399 19.1201C12.5358 19.8798 12.0025 20.6264 11.4399 21.3601C11.6686 20.3864 12.202 19.6398 13.0399 19.1201Z" fill="#0D501F"/>
<path fill-rule="evenodd" clip-rule="evenodd" d="M18.32 20.3999C18.32 20.6132 18.32 20.8266 18.32 21.0399C18.32 21.0932 18.32 21.1466 18.32 21.1999C18.0712 22.3932 17.9112 23.6199 17.84 24.8799C17.6267 24.9866 17.4133 25.0932 17.2 25.1999C15.1661 25.3033 13.1928 25.1967 11.28 24.8799C13.2413 25.0631 15.2146 25.0898 17.2 24.9599C17.3408 24.7429 17.3943 24.5029 17.36 24.2399C17.2 24.2399 17.04 24.2399 16.88 24.2399C16.8544 23.9681 16.881 23.7013 16.96 23.4399C17.1218 23.5738 17.3085 23.6271 17.52 23.5999C17.52 22.9599 17.52 22.3199 17.52 21.6799C17.68 21.6799 17.84 21.6799 18 21.6799C17.9378 21.1914 18.0443 20.7647 18.32 20.3999Z" fill="#122615"/>
<path fill-rule="evenodd" clip-rule="evenodd" d="M18.3201 21.2C18.3466 22.2147 18.3201 23.228 18.2401 24.24C18.2206 24.5499 18.0873 24.7632 17.8401 24.88C17.9113 23.62 18.0713 22.3932 18.3201 21.2Z" fill="#25C253"/>
<path fill-rule="evenodd" clip-rule="evenodd" d="M11.4401 21.6799C11.316 22.7419 11.2627 23.8086 11.2801 24.8799C13.1929 25.1967 15.1662 25.3033 17.2001 25.1999C15.2019 25.3591 13.1752 25.4126 11.1201 25.3599C11.1201 24.5599 11.1201 23.7599 11.1201 22.9599C11.0871 22.4807 11.1938 22.054 11.4401 21.6799Z" fill="#03330D"/>
<path fill-rule="evenodd" clip-rule="evenodd" d="M11.1201 22.96C11.1201 23.76 11.1201 24.56 11.1201 25.36C13.1752 25.4126 15.2019 25.3592 17.2001 25.2C17.4134 25.0932 17.6268 24.9867 17.8401 24.88C17.7702 25.1318 17.6102 25.3185 17.3601 25.44C15.2274 25.52 13.0941 25.5467 10.9601 25.52C10.9087 24.6358 10.962 23.7824 11.1201 22.96Z" fill="#207739"/>
</g>
<defs>
<clipPath id="clip0_4508_233">
<rect width="32" height="32" fill="white"/>
</clipPath>
</defs>
</svg>
