<svg width="32" height="32" viewBox="0 0 32 33" fill="none" xmlns="http://www.w3.org/2000/svg">
    <path opacity="0.991" fill-rule="evenodd" clip-rule="evenodd"
        d="M31.5 6.76278C31.5 7.57451 31.5 8.38623 31.5 9.19796C31.1034 14.4901 29.1514 18.9428 25.644 22.5562C21.39 26.7473 16.4086 28.5237 10.7 27.8854C8.15837 27.3853 6.17971 25.956 4.764 23.5973C3.52099 21.2758 3.30768 18.8406 4.124 16.2918C5.14374 13.4614 6.98374 11.6321 9.644 10.8038C12.7571 10.0779 15.3971 10.9896 17.564 13.539C19.0104 15.4073 19.6504 17.5719 19.484 20.0328C19.4084 20.7475 19.115 21.318 18.604 21.7445C17.9926 22.0893 17.3846 22.0775 16.78 21.7092C16.3363 21.3606 16.0749 20.8842 15.996 20.2798C15.9549 18.7395 15.9336 17.1984 15.932 15.6565C15.7487 14.6191 15.1887 13.9897 14.252 13.7684C13.036 13.7448 11.82 13.7448 10.604 13.7684C8.59965 14.1321 7.23965 15.3614 6.524 17.4564C5.96678 19.777 6.50547 21.724 8.14 23.2974C9.80669 24.6391 11.5667 24.8039 13.42 23.7915C13.9516 23.4465 14.4209 23.0171 14.828 22.5033C15.3678 23.4093 16.1251 23.9563 17.1 24.1444C18.9577 24.3875 20.2751 23.5699 21.052 21.6915C21.418 20.6673 21.5353 19.6085 21.404 18.5152C21.0289 14.5493 19.2849 11.5789 16.172 9.60383C13.2893 7.99763 10.3667 7.9035 7.404 9.32149C4.64838 10.8082 2.84038 13.1787 1.98 16.4329C1.1678 20.1904 1.89314 23.5314 4.156 26.456C5.95446 28.5683 8.16781 29.7859 10.796 30.1088C15.6244 30.5715 20.0831 29.3833 24.172 26.5443C24.231 26.5045 24.295 26.4868 24.364 26.4913C24.369 26.5398 24.3637 26.5869 24.348 26.6325C21.2707 30.1965 17.4894 32.1199 13.004 32.4028C10.6744 32.6577 8.43443 32.2812 6.284 31.2735C2.81114 29.4189 0.640458 26.4131 -0.228 22.2562C-0.353178 21.5861 -0.443844 20.9155 -0.5 20.2445C-0.5 19.574 -0.5 18.9034 -0.5 18.2329C-0.0847552 13.738 1.83524 10.2734 5.26 7.8392C6.90928 6.76627 8.69062 6.15454 10.604 6.00399C12.2467 5.99223 13.8893 5.98044 15.532 5.96869C18.4573 5.77868 20.9107 4.50814 22.892 2.15709C23.0474 2.09523 23.1434 2.14817 23.18 2.31591C23.0027 4.21433 22.4534 5.96721 21.532 7.57451C21.4947 7.69146 21.5321 7.76205 21.644 7.78626C23.3696 7.3228 24.9269 6.49342 26.316 5.29813C27.3047 4.36817 28.1314 3.29175 28.796 2.06886C29.0746 1.54244 29.3573 1.01893 29.644 0.498342C29.7648 0.456608 29.8661 0.486017 29.948 0.586573C30.87 2.52488 31.3873 4.5836 31.5 6.76278Z"
        fill="#5B2D91" />
    <path opacity="0.991" fill-rule="evenodd" clip-rule="evenodd"
        d="M10.668 15.8684C11.7667 15.8625 12.8653 15.8684 13.964 15.8861C14.0024 15.9179 14.0291 15.9591 14.044 16.0096C14.0653 17.1272 14.0653 18.2448 14.044 19.3624C13.8936 20.6692 13.2696 21.581 12.172 22.0976C10.7353 22.5772 9.56735 22.1596 8.66796 20.8447C8.01528 19.5672 8.05797 18.3201 8.79596 17.1037C9.28594 16.4424 9.90994 16.0307 10.668 15.8684Z"
        fill="#5B2D91" />
</svg>