<svg width="32" height="32" viewBox="0 0 32 32" fill="none" xmlns="http://www.w3.org/2000/svg">
    <path
        d="M17.2386 14.5762C14.2796 14.5762 11.8558 16.8731 11.6549 19.7797V19.9077H11.6477C11.6442 19.9948 11.6406 20.0837 11.6406 20.1726C11.6406 23.2642 14.148 25.7691 17.2386 25.7691C20.331 25.7691 22.8366 23.2624 22.8366 20.1726C22.8384 17.0811 20.331 14.5762 17.2386 14.5762Z"
        fill="#7A2181" />
    <path
        d="M5.47885 20.238C5.47885 20.046 5.48419 19.854 5.49308 19.6638V0.0371094C2.40422 0.369554 0 2.98289 0 6.15978V25.8398C0 29.1376 2.59094 31.8291 5.84873 31.9927C5.95187 31.998 6.05679 31.9998 6.16171 31.9998V31.9927H6.20794V31.9998C6.31286 31.9998 6.41778 31.9962 6.52092 31.9927H16.9327C10.5789 31.8291 5.47885 26.6291 5.47885 20.238Z"
        fill="#7A2181" />
    <path
        d="M25.8403 0H6.16191C6.03921 0 5.91829 0.00533333 5.79736 0.0124444C9.05871 0.170667 11.655 2.864 11.655 6.16533V9.89156C13.3159 8.99378 15.2186 8.48356 17.2388 8.48356C23.733 8.48356 28.9985 13.7476 28.9985 20.24C28.9985 26.6311 23.8984 31.8311 17.5446 31.9929H25.4793C25.5824 31.9982 25.6873 32 25.7922 32V31.9929H25.8385V32C25.9434 32 26.0483 31.9964 26.1515 31.9929C29.4092 31.8293 32.0002 29.1378 32.0002 25.84V6.16C32.002 2.75733 29.2421 0 25.8403 0Z"
        fill="#2F6881" />
    <path
        d="M28.9999 20.2383C28.9999 13.7459 23.7344 8.48185 17.2402 8.48185C15.2183 8.48185 13.3173 8.99208 11.6564 9.88985V6.16363C11.6564 2.86408 9.06013 0.168964 5.79878 0.0107422C5.69742 0.0160755 5.59606 0.0249644 5.49469 0.0356311V19.6641C5.4858 19.8543 5.48047 20.0463 5.48047 20.2383C5.48047 26.6294 10.5805 31.8294 16.9343 31.9912H17.5478C23.898 31.8294 28.9999 26.6294 28.9999 20.2383ZM17.2384 25.7707C14.146 25.7707 11.6404 23.2641 11.6404 20.1743C11.6404 20.0854 11.6422 19.9965 11.6475 19.9094H11.6546V19.7814C11.8556 16.873 14.2794 14.5779 17.2384 14.5779C20.3308 14.5779 22.8364 17.0845 22.8364 20.1743C22.8382 23.2641 20.3308 25.7707 17.2384 25.7707Z"
        fill="white" />
</svg>