<svg width="32" height="32" viewBox="0 0 33 33" fill="none" xmlns="http://www.w3.org/2000/svg">
    <path fill-rule="evenodd" clip-rule="evenodd"
        d="M4.07895 0.450738C12.2897 0.415436 20.5002 0.45074 28.7105 0.556654C30.6347 1.08063 31.8629 2.31633 32.3947 4.26372C32.5351 12.2428 32.5351 20.2218 32.3947 28.2008C32.0088 30.5663 30.6404 31.9432 28.2894 32.3315C20.2894 32.4728 12.2895 32.4728 4.28947 32.3315C2.26596 31.7784 1.03788 30.4721 0.605268 28.4126C0.464911 20.2925 0.464911 12.1721 0.605268 4.05189C1.24087 2.31817 2.39876 1.11779 4.07895 0.450738Z"
        fill="#FF7E03" />
    <path fill-rule="evenodd" clip-rule="evenodd"
        d="M11.6579 7.01761C13.9748 6.98234 16.2905 7.01766 18.6053 7.12353C20.9042 7.67175 22.2726 9.11927 22.7105 11.4661C22.8794 12.5081 22.8442 13.5319 22.6053 14.5377C24.4299 14.6224 25.6579 15.505 26.2895 17.1856C26.4299 18.8802 26.4299 20.5749 26.2895 22.2696C25.5749 24.8249 23.9257 26.3429 21.3421 26.824C17.9737 26.9652 14.6053 26.9652 11.2369 26.824C8.95792 26.2255 7.5194 24.7781 6.92108 22.4814C6.82298 18.6663 6.89308 14.8533 7.13161 11.0424C7.73392 8.9176 9.10234 7.64661 11.2369 7.22945C11.3773 7.15884 11.5175 7.08822 11.6579 7.01761Z"
        fill="#FFFDFC" />
    <path fill-rule="evenodd" clip-rule="evenodd"
        d="M12.2894 11.2542C14.1153 11.2189 15.94 11.2542 17.7631 11.3601C19.0745 12.2436 19.1446 13.2321 17.9736 14.3257C16.0789 14.467 14.1842 14.467 12.2894 14.3257C11.181 13.2826 11.181 12.2587 12.2894 11.2542Z"
        fill="#FF7D05" />
    <path fill-rule="evenodd" clip-rule="evenodd"
        d="M12.079 18.8802C15.0272 18.8449 17.9745 18.8802 20.921 18.9861C22.1122 19.3736 22.4983 20.1856 22.0789 21.4222C21.8333 21.6694 21.5878 21.9164 21.3421 22.1636C18.2543 22.3049 15.1667 22.3049 12.079 22.1636C10.9865 21.5465 10.7409 20.6638 11.3421 19.5157C11.5832 19.2749 11.8289 19.0631 12.079 18.8802Z"
        fill="#FF7D04" />
</svg>