<svg width="32" height="32" viewBox="0 0 32 32" fill="none" xmlns="http://www.w3.org/2000/svg">
    <path
        d="M24.9283 16.0006C25.7404 15.3171 26.4261 14.4965 26.9539 13.5761C27.7492 12.2003 28.1677 10.6398 28.1677 9.05129C28.1676 7.46281 27.749 5.90229 26.9538 4.52654C26.1586 3.15078 25.0148 2.00823 23.6373 1.21368C22.2599 0.41912 20.6973 0.000544892 19.1066 0H4.34799C4.25323 0.000478381 4.16025 0.0257958 4.07837 0.0734198C3.99648 0.121044 3.92856 0.189305 3.88139 0.271374C3.83421 0.353442 3.80945 0.446442 3.80957 0.541068C3.80969 0.635695 3.83469 0.728631 3.88207 0.810582L11.2614 13.5761C11.7884 14.4971 12.4741 15.3179 13.2871 16.0006C12.4735 16.6837 11.7877 17.5053 11.2614 18.4273L3.88207 31.1892C3.8346 31.2714 3.8096 31.3644 3.80957 31.4593C3.80955 31.5541 3.8345 31.6472 3.88193 31.7294C3.92936 31.8116 3.99759 31.8797 4.07978 31.9272C4.16197 31.9747 4.25521 31.9997 4.35016 31.9998H19.1088C20.7017 32.0101 22.2686 31.5967 23.6486 30.802C25.0285 30.0073 26.1716 28.86 26.9605 27.4781C28.6005 24.6418 28.6005 21.2586 26.9605 18.4273C26.4309 17.5056 25.743 16.6841 24.9283 16.0006ZM18.9887 27.8032H11.134C11.0896 27.8025 11.0462 27.7904 11.0079 27.7678C10.9697 27.7453 10.938 27.7131 10.9161 27.6745C10.8942 27.6359 10.8827 27.5923 10.8829 27.548C10.883 27.5036 10.8948 27.4601 10.917 27.4217L14.9047 20.526C15.4419 19.6052 16.2674 18.8862 17.2541 18.4801C18.2408 18.0739 19.3339 18.003 20.3648 18.2784C21.3958 18.5537 22.3076 19.16 22.9595 20.0037C23.6114 20.8474 23.9674 21.8819 23.9726 22.9476C23.9705 23.8353 23.7248 24.7053 23.2621 25.4631C22.3672 26.9441 20.7192 27.8032 18.9887 27.8032ZM10.9141 4.57955C10.8918 4.5412 10.88 4.4977 10.8799 4.45338C10.8797 4.40906 10.8912 4.36546 10.9131 4.32695C10.9351 4.28842 10.9668 4.25632 11.005 4.23385C11.0433 4.21137 11.0868 4.19929 11.1311 4.19883H19.1037C19.9566 4.19837 20.7947 4.42214 21.5336 4.84765C22.2725 5.27317 22.8862 5.88544 23.313 6.6229C23.7399 7.36035 23.9647 8.19699 23.9651 9.04881C23.9654 9.90055 23.7413 10.7374 23.315 11.4752C22.8888 12.213 22.2755 12.8257 21.537 13.2518C20.7984 13.678 19.9606 13.9024 19.1076 13.9027C18.2546 13.9029 17.4167 13.6788 16.6779 13.2531C15.9391 12.8274 15.3256 12.215 14.8989 11.4775L10.9141 4.57955Z"
        fill="url(#paint0_linear_3995_104)" />
    <defs>
        <linearGradient id="paint0_linear_3995_104" x1="3.80539" y1="15.9999" x2="28.1867"
            y2="15.9999" gradientUnits="userSpaceOnUse">
            <stop stop-color="#247BFF" />
            <stop offset="1" stop-color="#65BADB" />
        </linearGradient>
    </defs>
</svg>