<svg width="32" height="32" viewBox="0 0 32 32" fill="none" xmlns="http://www.w3.org/2000/svg">
    <g clip-path="url(#clip0_4361_269)">
        <path fill-rule="evenodd" clip-rule="evenodd"
            d="M-0.03125 -0.03125C4.84375 -0.03125 9.71875 -0.03125 14.5938 -0.03125C14.4271 0.0104167 14.2604 0.0520833 14.0938 0.09375C13.4956 0.152183 12.9122 0.25635 12.3438 0.40625C12.0904 0.438294 11.8404 0.490377 11.5938 0.5625C11.1987 0.660619 10.8237 0.796037 10.4688 0.96875C10.4479 0.96875 10.4271 0.96875 10.4062 0.96875C10.2282 1.04824 10.0407 1.10032 9.84375 1.125C9.48206 1.30961 9.12794 1.50753 8.78125 1.71875C7.74969 2.18212 6.81219 2.78629 5.96875 3.53125C5.54809 3.81577 5.15226 4.13869 4.78125 4.5C4.52061 4.81264 4.24977 5.11472 3.96875 5.40625C3.96875 5.42708 3.96875 5.44792 3.96875 5.46875C3.77998 5.5952 3.63415 5.76186 3.53125 5.96875C3.2961 6.18306 3.1086 6.43306 2.96875 6.71875C2.63586 7.09225 2.36503 7.50894 2.15625 7.96875C1.95902 8.18725 1.81319 8.43725 1.71875 8.71875C1.49504 9.08906 1.32837 9.48487 1.21875 9.90625C1.21875 9.94794 1.19792 9.96875 1.15625 9.96875C0.81085 10.7238 0.560849 11.5155 0.40625 12.3438C0.18016 13.2062 0.0343267 14.0812 -0.03125 14.9688C-0.03125 9.96875 -0.03125 4.96875 -0.03125 -0.03125Z"
            fill="#FDFDFC" />
        <path fill-rule="evenodd" clip-rule="evenodd"
            d="M16.9688 -0.03125C17.1771 -0.03125 17.3854 -0.03125 17.5938 -0.03125C17.6562 0.0104167 17.7188 0.0520833 17.7812 0.09375C17.6771 0.09375 17.5729 0.09375 17.4688 0.09375C17.3021 0.0520833 17.1354 0.0104167 16.9688 -0.03125Z"
            fill="#F6BFC1" />
        <path fill-rule="evenodd" clip-rule="evenodd"
            d="M17.5938 -0.03125C22.3854 -0.03125 27.1771 -0.03125 31.9688 -0.03125C31.9688 4.80208 31.9688 9.63544 31.9688 14.4688C31.9271 14.3438 31.8854 14.2188 31.8438 14.0938C31.8388 13.7014 31.7763 13.3264 31.6562 12.9688C31.6564 12.6562 31.5939 12.3646 31.4688 12.0938C31.4688 12.0521 31.4688 12.0104 31.4688 11.9688C31.3395 11.4497 31.1728 10.9497 30.9688 10.4688C30.9388 10.2848 30.8762 10.1181 30.7812 9.96875C30.6589 9.51625 30.4714 9.09956 30.2188 8.71875C29.8778 8.00319 29.4611 7.3365 28.9688 6.71875C28.7876 6.41987 28.5896 6.12819 28.375 5.84375C27.9372 5.33304 27.4684 4.85388 26.9688 4.40625C26.8394 4.21422 26.6727 4.06838 26.4688 3.96875C26.3423 3.77998 26.1756 3.63415 25.9688 3.53125C25.3054 2.94317 24.5763 2.43276 23.7812 2C23.0376 1.58917 22.2667 1.24542 21.4688 0.96875C20.9878 0.764687 20.4878 0.598021 19.9688 0.46875C19.9271 0.46875 19.8854 0.46875 19.8438 0.46875C19.1736 0.277911 18.4861 0.152911 17.7812 0.09375C17.7188 0.0520833 17.6562 0.0104167 17.5938 -0.03125Z"
            fill="#FDFDFC" />
        <path fill-rule="evenodd" clip-rule="evenodd"
            d="M14.5938 -0.03125C14.8021 -0.03125 15.0104 -0.03125 15.2188 -0.03125C15.2449 0.0138487 15.2865 0.0450987 15.3438 0.0625C14.9276 0.0937237 14.5109 0.104141 14.0938 0.09375C14.2604 0.0520833 14.4271 0.0104167 14.5938 -0.03125Z"
            fill="#D65E53" />
        <path fill-rule="evenodd" clip-rule="evenodd"
            d="M17.4688 0.09375C17.5729 0.09375 17.6771 0.09375 17.7812 0.09375C18.4861 0.152911 19.1736 0.277911 19.8438 0.46875C19.2195 0.419772 18.5945 0.378105 17.9688 0.34375C17.9688 0.28125 17.9688 0.21875 17.9688 0.15625C17.7884 0.1754 17.6217 0.154567 17.4688 0.09375Z"
            fill="#CD472C" />
        <path fill-rule="evenodd" clip-rule="evenodd"
            d="M19.9688 0.46875C20.4878 0.598021 20.9878 0.764687 21.4688 0.96875C21.1978 0.942706 20.927 0.911456 20.6562 0.875C20.4548 0.735 20.2256 0.662081 19.9688 0.65625C19.9688 0.59375 19.9688 0.53125 19.9688 0.46875Z"
            fill="#D5403A" />
        <path fill-rule="evenodd" clip-rule="evenodd"
            d="M12.3438 0.40625C12.2246 0.46765 12.0996 0.53015 11.9688 0.59375C12.1529 0.645087 12.3404 0.676338 12.5312 0.6875C12.6146 0.729169 12.6146 0.770831 12.5312 0.8125C11.8419 0.907719 11.1544 0.9598 10.4688 0.96875C10.8237 0.796037 11.1987 0.660619 11.5938 0.5625C11.8404 0.490377 12.0904 0.438294 12.3438 0.40625Z"
            fill="#D63D30" />
        <path fill-rule="evenodd" clip-rule="evenodd"
            d="M15.2188 -0.03125C15.8021 -0.03125 16.3855 -0.03125 16.9688 -0.03125C17.1355 0.0104167 17.3021 0.0520833 17.4688 0.09375C17.6218 0.154567 17.7885 0.1754 17.9688 0.15625C17.9688 0.21875 17.9688 0.28125 17.9688 0.34375C18.5945 0.378105 19.2195 0.419772 19.8438 0.46875C19.8855 0.46875 19.9271 0.46875 19.9688 0.46875C19.9688 0.53125 19.9688 0.59375 19.9688 0.65625C20.2256 0.662081 20.4548 0.735 20.6563 0.875C20.927 0.911456 21.1978 0.942706 21.4688 0.96875C22.2668 1.24542 23.0376 1.58917 23.7813 2C24.5763 2.43276 25.3055 2.94317 25.9688 3.53125C26.0952 3.72002 26.2619 3.86585 26.4688 3.96875C26.6728 4.06838 26.8395 4.21422 26.9688 4.40625C27.1057 4.62783 27.2724 4.83616 27.4688 5.03125C27.3278 5.08881 27.2653 5.19297 27.2813 5.34375C27.4331 5.31972 27.579 5.27806 27.7188 5.21875C27.7188 5.28125 27.7188 5.34375 27.7188 5.40625C27.6563 5.40625 27.5938 5.40625 27.5313 5.40625C27.5313 5.46875 27.5313 5.53125 27.5313 5.59375C27.4093 5.61083 27.3156 5.56916 27.25 5.46875C27.1707 5.55654 27.1395 5.66071 27.1563 5.78125C27.2389 5.77062 27.3118 5.79146 27.375 5.84375C27.4868 5.73569 27.6223 5.69402 27.7813 5.71875C27.7813 5.80208 27.7813 5.88542 27.7813 5.96875C27.8855 5.96875 27.9896 5.96875 28.0938 5.96875C28.1746 6.13396 28.2579 6.30062 28.3438 6.46875C28.323 6.51044 28.3021 6.55206 28.2813 6.59375C28.1192 6.35088 28.0567 6.39256 28.0938 6.71875C28.3192 6.72631 28.4546 6.62219 28.5 6.40625C28.5793 6.4135 28.6626 6.43431 28.75 6.46875C28.7928 6.549 28.7823 6.62194 28.7188 6.6875C28.7996 6.71813 28.883 6.72856 28.9688 6.71875C28.9584 6.96962 28.9688 7.21962 29 7.46875C29.0561 7.27938 29.1498 7.22725 29.2813 7.3125C29.2028 7.42781 29.1403 7.55281 29.0938 7.6875C29.1146 7.71875 29.1355 7.75 29.1563 7.78125C29.291 7.76013 29.4368 7.76013 29.5938 7.78125C29.6559 7.95744 29.7184 8.13456 29.7813 8.3125C29.722 8.34269 29.6595 8.35306 29.5938 8.34375C29.5821 8.21475 29.5508 8.08975 29.5 7.96875C29.4876 8.08762 29.4355 8.18137 29.3438 8.25C29.3906 8.35837 29.4218 8.47294 29.4375 8.59375C29.4677 8.5345 29.4781 8.472 29.4688 8.40625C29.6316 8.446 29.7879 8.446 29.9375 8.40625C29.9998 8.54125 30.0935 8.64544 30.2188 8.71875C30.2195 8.84669 30.2403 8.97169 30.2813 9.09375C30.417 9.21769 30.5003 9.37394 30.5313 9.5625C30.5231 9.62869 30.4919 9.68075 30.4375 9.71875C30.4177 9.40413 30.3448 9.39369 30.2188 9.6875C30.4281 9.97238 30.5115 10.2953 30.4688 10.6562C30.5313 10.6562 30.5938 10.6562 30.6563 10.6562C30.6641 10.3881 30.6224 10.1277 30.5313 9.875C30.5521 9.84375 30.573 9.8125 30.5938 9.78125C30.6338 9.87456 30.6963 9.93706 30.7813 9.96875C30.8763 10.1181 30.9388 10.2848 30.9688 10.4688C31.0485 11.1534 31.1006 11.8409 31.125 12.5312C31.1667 12.6146 31.2083 12.6146 31.25 12.5312C31.2811 12.3449 31.2916 12.1574 31.2813 11.9688C31.3438 11.9688 31.4063 11.9688 31.4688 11.9688C31.4688 12.0104 31.4688 12.0521 31.4688 12.0938C31.4919 12.4014 31.5544 12.6931 31.6563 12.9688C31.7763 13.3264 31.8388 13.7014 31.8438 14.0938C31.8351 14.4009 31.8768 14.6926 31.9688 14.9688C31.9688 15.4688 31.9688 15.9688 31.9688 16.4688C31.9026 16.5375 31.8505 16.6209 31.8125 16.7188C31.7813 17.1349 31.7709 17.5516 31.7813 17.9688C31.7188 17.9688 31.6563 17.9688 31.5938 17.9688C31.5821 18.5993 31.5196 19.2243 31.4063 19.8438C31.3855 19.8854 31.3646 19.9271 31.3438 19.9688C31.2925 19.7846 31.2612 19.5971 31.25 19.4062C31.2241 19.3777 31.1929 19.3568 31.1563 19.3438C31.091 20.0587 31.0285 20.7671 30.9688 21.4688C30.8978 21.7234 30.8145 21.9734 30.7188 22.2188C30.5629 22.4472 30.4379 22.6972 30.3438 22.9688C30.1188 23.1341 29.9938 23.3633 29.9688 23.6562C29.9688 23.6979 29.9688 23.7396 29.9688 23.7812C29.6825 24.1662 29.4116 24.5621 29.1563 24.9688C29.0938 24.9688 29.0313 24.9688 28.9688 24.9688C28.9688 25.0521 28.9688 25.1354 28.9688 25.2188C28.887 25.4236 28.7724 25.6111 28.625 25.7812C28.2682 26.1691 27.9245 26.5649 27.5938 26.9688C27.573 26.9688 27.5521 26.9688 27.5313 26.9688C27.2823 27.0927 27.0948 27.2803 26.9688 27.5312C26.3733 28.1621 25.7066 28.7038 24.9688 29.1562C24.6837 29.2783 24.4128 29.4345 24.1563 29.625C24.0133 29.6764 23.8674 29.7181 23.7188 29.75C23.6665 29.8132 23.6456 29.8861 23.6563 29.9688C23.121 30.2884 22.5585 30.5592 21.9688 30.7812C21.7398 30.8195 21.5106 30.8299 21.2813 30.8125C21.5995 30.7081 21.5995 30.6561 21.2813 30.6562C21.2838 30.4223 21.2421 30.4119 21.1563 30.625C21.097 30.6552 21.0345 30.6656 20.9688 30.6562C20.9688 30.7604 20.9688 30.8646 20.9688 30.9688C20.4746 31.0519 19.9746 31.1144 19.4688 31.1562C19.6561 31.203 19.8436 31.2447 20.0313 31.2812C20.1013 31.1979 20.1846 31.1667 20.2813 31.1875C20.1706 31.2828 20.0664 31.3765 19.9688 31.4688C19.8046 31.5058 19.6379 31.5266 19.4688 31.5312C19.3291 31.5387 19.1937 31.5179 19.0625 31.4688C18.7095 31.5844 18.345 31.6261 17.9688 31.5938C17.9688 31.6562 17.9688 31.7188 17.9688 31.7812C17.5747 31.8088 17.1893 31.7671 16.8125 31.6562C16.5526 31.6873 16.3339 31.7915 16.1563 31.9688C16.0105 31.9688 15.8646 31.9688 15.7188 31.9688C15.606 31.7873 15.4393 31.704 15.2188 31.7188C14.8968 31.7531 14.574 31.7739 14.25 31.7812C13.8115 31.7856 13.3845 31.744 12.9688 31.6562C12.7424 31.6674 12.534 31.6257 12.3438 31.5312C12.2485 31.4352 12.1235 31.3727 11.9688 31.3438C12.0521 31.3229 12.1355 31.3021 12.2188 31.2812C12.4329 31.3001 12.6308 31.3626 12.8125 31.4688C12.9823 31.3913 13.1595 31.3392 13.3438 31.3125C12.6224 31.1608 11.8828 31.0462 11.125 30.9688C10.907 31.0368 10.6882 31.0368 10.4688 30.9688C9.67802 30.7501 8.94883 30.4168 8.28127 29.9688C8.07902 29.7581 7.82902 29.6123 7.53127 29.5312C7.38708 29.4592 7.24127 29.3862 7.09377 29.3125C6.70295 29.0242 6.32795 28.7221 5.96877 28.4062C5.83945 28.2142 5.67278 28.0684 5.46877 27.9688C5.26475 27.8691 5.09808 27.7233 4.96877 27.5312C4.84102 27.2785 4.65352 27.091 4.40627 26.9688C3.77544 26.3733 3.23377 25.7066 2.78127 24.9688C2.81763 24.8793 2.86972 24.796 2.93752 24.7188C2.97918 24.6562 2.97918 24.5938 2.93752 24.5312C2.85418 24.6146 2.77085 24.6979 2.68752 24.7812C2.65466 24.608 2.60257 24.4414 2.53127 24.2812C2.46728 24.1967 2.38395 24.155 2.28127 24.1562C2.22947 23.9707 2.21905 23.7832 2.25002 23.5938C2.35875 23.6697 2.42125 23.7739 2.43752 23.9062C2.44793 23.8646 2.45835 23.8229 2.46877 23.7812C2.37288 23.6124 2.26871 23.4561 2.15627 23.3125C2.1771 23.2604 2.19793 23.2083 2.21877 23.1562C2.27475 23.2191 2.31641 23.2191 2.34377 23.1562C2.27563 23.0623 2.20272 23.0415 2.12502 23.0938C2.1134 23.2438 2.08215 23.3896 2.03127 23.5312C1.89012 23.3527 1.76512 23.1652 1.65627 22.9688C1.36168 22.5042 1.13251 22.0042 0.968766 21.4688C0.911891 21.2376 0.911891 21.0084 0.968766 20.7812C0.879347 20.1683 0.775178 19.5641 0.656266 18.9688C0.718766 18.9688 0.781266 18.9688 0.843766 18.9688C0.854622 18.4704 0.885872 18.4704 0.937516 18.9688C0.947934 18.875 0.958347 18.7812 0.968766 18.6875C0.968122 16.8647 0.968122 15.0418 0.968766 13.2188C0.958347 13.1354 0.947934 13.0521 0.937516 12.9688C0.937784 13.1995 0.875284 13.4078 0.750016 13.5938C0.680391 13.4394 0.649141 13.2728 0.656266 13.0938C0.781397 12.3432 0.864728 11.5932 0.906266 10.8438C1.0819 10.5872 1.16523 10.2955 1.15627 9.96875C1.19793 9.96875 1.21877 9.94794 1.21877 9.90625C1.31881 9.83481 1.36048 9.8765 1.34377 10.0312C1.29942 10.2374 1.27858 10.4458 1.28127 10.6562C1.34377 10.6562 1.40627 10.6562 1.46877 10.6562C1.4486 10.4234 1.46944 10.1942 1.53127 9.96875C1.65058 9.76788 1.75475 9.55956 1.84377 9.34375C1.73303 9.29563 1.67053 9.21231 1.65627 9.09375C1.69724 8.97169 1.71807 8.84669 1.71877 8.71875C1.88071 8.59663 2.01613 8.45081 2.12502 8.28125C2.15586 8.17913 2.16628 8.07494 2.15627 7.96875C2.25302 7.94869 2.29469 7.88619 2.28127 7.78125C2.34377 7.78125 2.40627 7.78125 2.46877 7.78125C2.42333 7.5485 2.50667 7.38181 2.71877 7.28125C2.84978 7.35125 2.87061 7.445 2.78127 7.5625C2.82442 7.62919 2.85567 7.70212 2.87502 7.78125C3.00738 7.53425 2.99697 7.29462 2.84377 7.0625C2.93031 6.96269 2.97198 6.84812 2.96877 6.71875C3.10862 6.43306 3.29612 6.18306 3.53127 5.96875C3.65393 5.85756 3.78935 5.75339 3.93752 5.65625C3.96769 5.597 3.97811 5.5345 3.96877 5.46875C3.96877 5.44792 3.96877 5.42708 3.96877 5.40625C4.05296 5.3643 4.12588 5.3643 4.18752 5.40625C4.21769 5.347 4.22811 5.2845 4.21877 5.21875C4.3586 5.27806 4.50443 5.31972 4.65627 5.34375C4.67227 5.19297 4.60977 5.08881 4.46877 5.03125C4.6771 4.86458 4.8646 4.67708 5.03127 4.46875C5.03127 4.59375 5.03127 4.71875 5.03127 4.84375C5.10072 4.77429 5.18405 4.73263 5.28127 4.71875C5.37813 4.79577 5.4823 4.82702 5.59377 4.8125C5.62235 4.78662 5.64318 4.75538 5.65627 4.71875C5.58197 4.66071 5.49863 4.63988 5.40627 4.65625C5.41721 4.47944 5.33388 4.37528 5.15627 4.34375C5.18045 4.26751 5.23253 4.22584 5.31252 4.21875C5.41046 4.30351 5.52504 4.34518 5.65627 4.34375C5.65627 4.28125 5.65627 4.21875 5.65627 4.15625C5.59377 4.15625 5.53127 4.15625 5.46877 4.15625C5.45508 4.08281 5.47591 4.02031 5.53127 3.96875C5.70227 3.83942 5.84811 3.69359 5.96877 3.53125C6.8122 2.78629 7.7497 2.18212 8.78127 1.71875C8.87064 1.7237 8.95402 1.70286 9.03127 1.65625C9.12095 1.77507 9.22514 1.79591 9.34377 1.71875C9.30208 1.67708 9.26045 1.63542 9.21877 1.59375C9.23958 1.57292 9.26045 1.55208 9.28127 1.53125C9.52145 1.75965 9.75058 1.75965 9.96877 1.53125C10.1942 1.46943 10.4234 1.44859 10.6563 1.46875C10.6563 1.40625 10.6563 1.34375 10.6563 1.28125C10.3953 1.26175 10.1453 1.30342 9.90627 1.40625C9.88545 1.38542 9.86458 1.36458 9.84377 1.34375C10.0373 1.21021 10.2248 1.08521 10.4063 0.96875C10.4271 0.96875 10.448 0.96875 10.4688 0.96875C11.1544 0.9598 11.8419 0.907719 12.5313 0.8125C12.6146 0.770831 12.6146 0.729169 12.5313 0.6875C12.3405 0.676338 12.153 0.645087 11.9688 0.59375C12.0996 0.53015 12.2246 0.46765 12.3438 0.40625C12.9123 0.25635 13.4956 0.152183 14.0938 0.09375C14.511 0.104141 14.9276 0.0937237 15.3438 0.0625C15.2865 0.0450987 15.2449 0.0138487 15.2188 -0.03125Z"
            fill="#DF3625" />
        <path fill-rule="evenodd" clip-rule="evenodd"
            d="M10.4062 0.96875C10.2248 1.08521 10.0373 1.21021 9.84375 1.34375C9.86456 1.36458 9.88544 1.38542 9.90625 1.40625C10.1453 1.30342 10.3953 1.26175 10.6562 1.28125C10.6562 1.34375 10.6562 1.40625 10.6562 1.46875C10.4234 1.44859 10.1942 1.46943 9.96875 1.53125C9.75056 1.75965 9.52144 1.75965 9.28125 1.53125C9.26044 1.55208 9.23956 1.57292 9.21875 1.59375C9.26044 1.63542 9.30206 1.67708 9.34375 1.71875C9.22512 1.79591 9.12094 1.77507 9.03125 1.65625C8.954 1.70286 8.87062 1.7237 8.78125 1.71875C9.12794 1.50753 9.48206 1.30961 9.84375 1.125C10.0407 1.10032 10.2282 1.04824 10.4062 0.96875Z"
            fill="#D1412C" />
        <path fill-rule="evenodd" clip-rule="evenodd"
            d="M25.9688 3.53125C26.1756 3.63415 26.3423 3.77998 26.4688 3.96875C26.2619 3.86585 26.0952 3.72002 25.9688 3.53125Z"
            fill="#C25150" />
        <path fill-rule="evenodd" clip-rule="evenodd"
            d="M5.96875 3.53125C5.84809 3.69359 5.70226 3.83942 5.53125 3.96875C5.47589 4.02031 5.45506 4.08281 5.46875 4.15625C5.53125 4.15625 5.59375 4.15625 5.65625 4.15625C5.65625 4.21875 5.65625 4.28125 5.65625 4.34375C5.52502 4.34518 5.41044 4.30351 5.3125 4.21875C5.23251 4.22584 5.18043 4.26751 5.15625 4.34375C5.33386 4.37528 5.41719 4.47944 5.40625 4.65625C5.49861 4.63988 5.58195 4.66071 5.65625 4.71875C5.64317 4.75538 5.62234 4.78662 5.59375 4.8125C5.48229 4.82702 5.37812 4.79577 5.28125 4.71875C5.18404 4.73263 5.10071 4.77429 5.03125 4.84375C5.03125 4.71875 5.03125 4.59375 5.03125 4.46875C4.86458 4.67708 4.67708 4.86458 4.46875 5.03125C4.60975 5.08881 4.67225 5.19297 4.65625 5.34375C4.50441 5.31972 4.35858 5.27806 4.21875 5.21875C4.22809 5.2845 4.21768 5.347 4.1875 5.40625C4.12586 5.3643 4.05294 5.3643 3.96875 5.40625C4.24977 5.11472 4.52061 4.81264 4.78125 4.5C5.15226 4.13869 5.54809 3.81577 5.96875 3.53125Z"
            fill="#D14232" />
        <path fill-rule="evenodd" clip-rule="evenodd"
            d="M26.9688 4.40625C27.4684 4.85388 27.9372 5.33304 28.375 5.84375C28.5896 6.12819 28.7876 6.41987 28.9688 6.71875C28.8829 6.72856 28.7996 6.71813 28.7188 6.6875C28.7823 6.62194 28.7928 6.549 28.75 6.46875C28.6626 6.43431 28.5793 6.4135 28.5 6.40625C28.4546 6.62219 28.3192 6.72631 28.0938 6.71875C28.0567 6.39256 28.1192 6.35088 28.2812 6.59375C28.3021 6.55206 28.3229 6.51044 28.3438 6.46875C28.2579 6.30062 28.1746 6.13396 28.0938 5.96875C27.9896 5.96875 27.8854 5.96875 27.7812 5.96875C27.7812 5.88542 27.7812 5.80208 27.7812 5.71875C27.6223 5.69402 27.4868 5.73569 27.375 5.84375C27.3118 5.79146 27.2389 5.77062 27.1562 5.78125C27.1394 5.66071 27.1707 5.55654 27.25 5.46875C27.3156 5.56916 27.4093 5.61083 27.5312 5.59375C27.5312 5.53125 27.5312 5.46875 27.5312 5.40625C27.5938 5.40625 27.6562 5.40625 27.7188 5.40625C27.7188 5.34375 27.7188 5.28125 27.7188 5.21875C27.5789 5.27806 27.4331 5.31972 27.2812 5.34375C27.2652 5.19297 27.3277 5.08881 27.4688 5.03125C27.2724 4.83616 27.1057 4.62783 26.9688 4.40625Z"
            fill="#D83B2E" />
        <path fill-rule="evenodd" clip-rule="evenodd"
            d="M3.96875 5.46875C3.97809 5.5345 3.96768 5.597 3.9375 5.65625C3.78933 5.75339 3.65391 5.85756 3.53125 5.96875C3.63415 5.76186 3.77998 5.5952 3.96875 5.46875Z"
            fill="#C34A4B" />
        <path fill-rule="evenodd" clip-rule="evenodd"
            d="M10.0935 6.78125C10.0831 10.4271 10.0935 14.073 10.1248 17.7188C10.159 17.9481 10.1903 18.1773 10.2185 18.4062C10.1388 18.2774 10.0866 18.1315 10.0623 17.9688C10.0103 14.2291 10.0207 10.4999 10.0935 6.78125Z"
            fill="#AD4633" />
        <path fill-rule="evenodd" clip-rule="evenodd"
            d="M10.0938 6.78125C10.1146 6.78125 10.1354 6.78125 10.1563 6.78125C10.2619 10.3477 10.3244 13.9206 10.3438 17.5C10.3266 17.8235 10.3058 18.1464 10.2813 18.4688C10.2604 18.4688 10.2396 18.4688 10.2188 18.4688C10.2188 18.4479 10.2188 18.4271 10.2188 18.4062C10.1905 18.1773 10.1593 17.9481 10.125 17.7188C10.0938 14.073 10.0833 10.4271 10.0938 6.78125Z"
            fill="#FDF6FB" />
        <path fill-rule="evenodd" clip-rule="evenodd"
            d="M14.5312 6.96875C14.5105 10.3127 14.5313 13.646 14.5938 16.9688C14.5938 17.0312 14.5938 17.0938 14.5938 17.1562C14.6624 17.4319 14.7249 17.7028 14.7812 17.9688C14.8626 18.1045 14.9355 18.2504 15 18.4062C15.1519 18.5688 15.329 18.6938 15.5312 18.7812C16.0104 19.0312 16.4896 19.0312 16.9688 18.7812C17.4203 18.6111 17.7432 18.2986 17.9375 17.8438C17.9792 17.4271 17.9792 17.0104 17.9375 16.5938C17.8256 16.3476 17.6693 16.1392 17.4688 15.9688C17.3448 15.8022 17.1781 15.6981 16.9688 15.6562C16.4235 15.4522 15.9027 15.5147 15.4062 15.8438C15.3443 15.8545 15.3026 15.8336 15.2812 15.7812C15.4827 15.7194 15.5452 15.5944 15.4688 15.4062C15.5104 13.9253 15.5521 12.4461 15.5938 10.9688C16.4794 10.9232 17.3544 10.9857 18.2188 11.1562C18.8296 11.3721 19.4129 11.6429 19.9688 11.9688C20.2976 12.2764 20.6309 12.5889 20.9688 12.9062C21.5171 13.5238 21.9546 14.2113 22.2812 14.9688C22.3663 15.3089 22.4496 15.6423 22.5312 15.9688C22.7479 17.3636 22.5604 18.6969 21.9688 19.9688C21.8854 19.9688 21.8021 19.9688 21.7188 19.9688C21.7377 20.1618 21.6544 20.2659 21.4688 20.2812C21.4805 20.3814 21.4492 20.4648 21.375 20.5312C21.3021 20.4271 21.2292 20.3229 21.1562 20.2188C21.0159 20.536 20.9326 20.8693 20.9062 21.2188C20.7623 21.3636 20.606 21.4886 20.4375 21.5938C20.3589 21.5719 20.3381 21.5302 20.375 21.4688C20.5587 21.3502 20.7149 21.2044 20.8438 21.0312C20.626 20.9434 20.4176 20.9538 20.2188 21.0625C20.4116 21.2819 20.3699 21.4173 20.0938 21.4688C20.1074 21.3953 20.0866 21.3328 20.0312 21.2812C19.9732 21.3556 19.9524 21.4389 19.9688 21.5312C20.1565 21.5209 20.2815 21.6042 20.3438 21.7812C20.2812 21.8229 20.2188 21.8646 20.1562 21.9062C20.1848 21.9561 20.2265 21.9769 20.2812 21.9688C20.0636 22.1712 19.8344 22.3587 19.5938 22.5312C19.4983 22.5267 19.4358 22.5684 19.4062 22.6562C18.6208 23.0137 17.8083 23.2638 16.9688 23.4062C16.5312 23.4062 16.0938 23.4062 15.6562 23.4062C15.334 23.3261 15.0007 23.2636 14.6562 23.2188C13.312 22.8274 12.2078 22.0774 11.3438 20.9688C11.3616 20.8577 11.4033 20.7535 11.4688 20.6562C11.4485 20.5269 11.3964 20.5061 11.3125 20.5938C11.3021 20.5312 11.2917 20.4688 11.2812 20.4062C11.3262 20.2502 11.3887 20.1043 11.4688 19.9688C10.9358 20.2386 10.6961 20.072 10.75 19.4688C10.6169 19.2237 10.5023 18.9737 10.4062 18.7188C10.4875 18.2319 10.5396 18.2527 10.5625 18.7812C10.6192 18.9024 10.713 18.9649 10.8438 18.9688C10.8331 18.7959 10.7915 18.6292 10.7188 18.4688C10.7939 18.1258 10.8669 18.1049 10.9375 18.4062C10.9169 17.9274 10.8752 17.4483 10.8125 16.9688C10.7812 13.5938 10.7708 10.2188 10.7812 6.84375C11.9479 6.84375 13.1146 6.84375 14.2812 6.84375C14.2604 10.219 14.2812 13.594 14.3438 16.9688C14.3647 13.6142 14.4272 10.2809 14.5312 6.96875Z"
            fill="#FDFDFD" />
        <path fill-rule="evenodd" clip-rule="evenodd"
            d="M10.0938 6.78117C11.583 6.7188 13.083 6.69798 14.5938 6.71867C14.5938 10.1354 14.5938 13.552 14.5938 16.9687C14.5313 13.6459 14.5105 10.3126 14.5312 6.96867C14.5312 6.90617 14.5312 6.84367 14.5312 6.78117C13.1979 6.78117 11.8646 6.78117 10.5312 6.78117C10.4688 6.78117 10.4062 6.78117 10.3438 6.78117C10.2812 6.78117 10.2188 6.78117 10.1562 6.78117C10.1354 6.78117 10.1146 6.78117 10.0938 6.78117Z"
            fill="#F1B1AF" />
        <path fill-rule="evenodd" clip-rule="evenodd"
            d="M2.96875 6.71875C2.97196 6.84812 2.93029 6.96269 2.84375 7.0625C2.99696 7.29462 3.00737 7.53425 2.875 7.78125C2.85566 7.70212 2.82441 7.62919 2.78125 7.5625C2.87059 7.445 2.84976 7.35125 2.71875 7.28125C2.50665 7.38181 2.42332 7.5485 2.46875 7.78125C2.40625 7.78125 2.34375 7.78125 2.28125 7.78125C2.29468 7.88619 2.25301 7.94869 2.15625 7.96875C2.36503 7.50894 2.63586 7.09225 2.96875 6.71875Z"
            fill="#D24137" />
        <path fill-rule="evenodd" clip-rule="evenodd"
            d="M2.15625 7.96875C2.16626 8.07494 2.15584 8.17913 2.125 8.28125C2.01611 8.45081 1.88069 8.59663 1.71875 8.71875C1.81319 8.43725 1.95902 8.18725 2.15625 7.96875Z"
            fill="#C44D42" />
        <path fill-rule="evenodd" clip-rule="evenodd"
            d="M28.9687 6.71875C29.461 7.3365 29.8777 8.00319 30.2187 8.71875C30.0935 8.64544 29.9997 8.54125 29.9375 8.40625C29.7878 8.446 29.6316 8.446 29.4687 8.40625C29.478 8.472 29.4677 8.5345 29.4375 8.59375C29.4218 8.47294 29.3905 8.35837 29.3437 8.25C29.4354 8.18137 29.4875 8.08762 29.5 7.96875C29.5508 8.08975 29.582 8.21475 29.5937 8.34375C29.6595 8.35306 29.722 8.34269 29.7812 8.3125C29.7183 8.13456 29.6558 7.95744 29.5937 7.78125C29.4368 7.76013 29.2909 7.76013 29.1562 7.78125C29.1354 7.75 29.1145 7.71875 29.0937 7.6875C29.1402 7.55281 29.2027 7.42781 29.2812 7.3125C29.1498 7.22725 29.056 7.27938 29 7.46875C28.9688 7.21962 28.9583 6.96962 28.9687 6.71875Z"
            fill="#D4412F" />
        <path fill-rule="evenodd" clip-rule="evenodd"
            d="M1.71875 8.71875C1.71806 8.84669 1.69723 8.97169 1.65625 9.09375C1.67051 9.21231 1.73301 9.29563 1.84375 9.34375C1.75473 9.55956 1.65056 9.76788 1.53125 9.96875C1.46943 10.1942 1.44859 10.4234 1.46875 10.6562C1.40625 10.6562 1.34375 10.6562 1.28125 10.6562C1.27857 10.4458 1.2994 10.2374 1.34375 10.0312C1.36046 9.8765 1.31879 9.83481 1.21875 9.90625C1.32837 9.48487 1.49504 9.08906 1.71875 8.71875Z"
            fill="#D53E2C" />
        <path fill-rule="evenodd" clip-rule="evenodd"
            d="M30.2188 8.71875C30.4714 9.09956 30.6589 9.51625 30.7812 9.96875C30.6963 9.93706 30.6338 9.87456 30.5938 9.78125C30.5729 9.8125 30.5521 9.84375 30.5312 9.875C30.6224 10.1277 30.6641 10.3881 30.6562 10.6562C30.5938 10.6562 30.5312 10.6562 30.4688 10.6562C30.5114 10.2953 30.4281 9.97238 30.2188 9.6875C30.3448 9.39369 30.4177 9.40413 30.4375 9.71875C30.4919 9.68075 30.5231 9.62869 30.5312 9.5625C30.5003 9.37394 30.4169 9.21769 30.2812 9.09375C30.2402 8.97169 30.2194 8.84669 30.2188 8.71875Z"
            fill="#D0432D" />
        <path fill-rule="evenodd" clip-rule="evenodd"
            d="M30.9688 10.4688C31.1728 10.9497 31.3395 11.4497 31.4688 11.9688C31.4062 11.9688 31.3438 11.9688 31.2812 11.9688C31.2916 12.1574 31.2811 12.3449 31.25 12.5312C31.2083 12.6146 31.1667 12.6146 31.125 12.5312C31.1006 11.8409 31.0485 11.1534 30.9688 10.4688Z"
            fill="#D63D33" />
        <path fill-rule="evenodd" clip-rule="evenodd"
            d="M15.2812 10.9688C15.2812 12.5729 15.2812 14.1771 15.2812 15.7812C15.3026 15.8336 15.3443 15.8545 15.4062 15.8438C15.3854 15.8854 15.3646 15.9271 15.3438 15.9688C15.2604 15.1573 15.2188 14.324 15.2188 13.4688C15.2188 12.6248 15.2396 11.7914 15.2812 10.9688Z"
            fill="#C57D6F" />
        <path fill-rule="evenodd" clip-rule="evenodd"
            d="M15.2812 10.9688C15.3854 10.9688 15.4896 10.9688 15.5938 10.9688C15.5521 12.4461 15.5104 13.9253 15.4688 15.4062C15.5452 15.5944 15.4827 15.7194 15.2812 15.7812C15.2812 14.1771 15.2812 12.5729 15.2812 10.9688Z"
            fill="#FDF5F5" />
        <path fill-rule="evenodd" clip-rule="evenodd"
            d="M19.9688 11.9686C20.1221 11.9574 20.2576 11.999 20.375 12.0936C20.4563 12.0065 20.5501 11.9753 20.6562 11.9998C20.7512 12.0843 20.8345 12.178 20.9062 12.2811C20.9476 12.4966 20.9685 12.7049 20.9688 12.9061C20.6309 12.5887 20.2976 12.2762 19.9688 11.9686Z"
            fill="#D33E2C" />
        <path fill-rule="evenodd" clip-rule="evenodd"
            d="M31.4688 12.0938C31.5939 12.3646 31.6564 12.6562 31.6562 12.9688C31.5544 12.6931 31.4919 12.4014 31.4688 12.0938Z"
            fill="#C75A48" />
        <path fill-rule="evenodd" clip-rule="evenodd"
            d="M0.40625 12.3438C0.369841 12.8847 0.349007 13.4264 0.34375 13.9688C0.28125 13.9688 0.21875 13.9688 0.15625 13.9688C0.166626 14.3027 0.156209 14.6361 0.125 14.9688C0.107537 15.1536 0.0554536 15.3202 -0.03125 15.4688C-0.03125 15.3021 -0.03125 15.1354 -0.03125 14.9688C0.0343267 14.0812 0.18016 13.2062 0.40625 12.3438Z"
            fill="#CB462F" />
        <path fill-rule="evenodd" clip-rule="evenodd"
            d="M31.8439 14.0938C31.8856 14.2188 31.9272 14.3438 31.9689 14.4688C31.9689 14.6354 31.9689 14.8021 31.9689 14.9688C31.8769 14.6926 31.8353 14.4009 31.8439 14.0938Z"
            fill="#EA9298" />
        <path fill-rule="evenodd" clip-rule="evenodd"
            d="M1.15625 9.96875C1.16522 10.2955 1.08189 10.5872 0.90625 10.8438C0.864712 11.5932 0.781381 12.3432 0.65625 13.0938C0.649125 13.2728 0.680375 13.4394 0.75 13.5938C0.875269 13.4078 0.937769 13.1995 0.9375 12.9688C0.947919 13.0521 0.958331 13.1354 0.96875 13.2188C0.968106 15.0418 0.968106 16.8647 0.96875 18.6875C0.958331 18.7812 0.947919 18.875 0.9375 18.9688C0.885856 18.4704 0.854606 18.4704 0.84375 18.9688C0.78125 18.9688 0.71875 18.9688 0.65625 18.9688C0.775163 19.5641 0.879331 20.1683 0.96875 20.7812C0.911875 21.0084 0.911875 21.2376 0.96875 21.4688C0.877613 21.3168 0.804694 21.1501 0.75 20.9688C0.348261 19.6551 0.0878444 18.3218 -0.03125 16.9688C-0.03125 16.4688 -0.03125 15.9688 -0.03125 15.4688C0.0554536 15.3202 0.107537 15.1536 0.125 14.9688C0.156209 14.6361 0.166626 14.3027 0.15625 13.9688C0.21875 13.9688 0.28125 13.9688 0.34375 13.9688C0.349007 13.4264 0.369841 12.8847 0.40625 12.3438C0.560849 11.5155 0.81085 10.7238 1.15625 9.96875Z"
            fill="#DD3928" />
        <path fill-rule="evenodd" clip-rule="evenodd"
            d="M22.2812 14.9688C22.3474 15.0375 22.3995 15.1209 22.4375 15.2188C22.4792 15.1771 22.5208 15.1354 22.5625 15.0938C22.5628 15.3842 22.5524 15.6759 22.5312 15.9688C22.4496 15.6423 22.3663 15.3089 22.2812 14.9688Z"
            fill="#C9473C" />
        <path fill-rule="evenodd" clip-rule="evenodd"
            d="M16.9688 15.6562C17.1781 15.6981 17.3448 15.8022 17.4688 15.9688C17.2759 15.8939 17.1092 15.7897 16.9688 15.6562Z"
            fill="#BC564B" />
        <path fill-rule="evenodd" clip-rule="evenodd"
            d="M16.9688 15.6562C16.6348 15.6458 16.3014 15.6563 15.9688 15.6875C15.8185 15.7192 15.7768 15.7922 15.8438 15.9062C15.8125 15.927 15.7812 15.9479 15.75 15.9687C15.6144 15.8925 15.4789 15.8925 15.3438 15.9687C15.3646 15.927 15.3854 15.8854 15.4062 15.8437C15.9027 15.5147 16.4235 15.4522 16.9688 15.6562Z"
            fill="#C84B41" />
        <path fill-rule="evenodd" clip-rule="evenodd"
            d="M18.2188 11.1562C17.3544 10.9857 16.4794 10.9232 15.5938 10.9688C15.4896 10.9688 15.3854 10.9688 15.2812 10.9688C15.2396 11.7914 15.2188 12.6248 15.2188 13.4688C15.2188 14.324 15.2604 15.1573 15.3438 15.9688C15.4789 15.8925 15.6144 15.8925 15.75 15.9688C15.7812 15.9479 15.8125 15.9271 15.8438 15.9062C15.7768 15.7922 15.8185 15.7193 15.9688 15.6875C16.3014 15.6563 16.6348 15.6459 16.9688 15.6562C17.1092 15.7897 17.2759 15.8939 17.4688 15.9688C17.6693 16.1392 17.8256 16.3476 17.9375 16.5938C17.9792 17.0104 17.9792 17.4271 17.9375 17.8438C17.7432 18.2986 17.4203 18.6111 16.9688 18.7812C16.4914 18.8294 16.0123 18.8294 15.5312 18.7812C15.329 18.6938 15.1519 18.5688 15 18.4062C14.9355 18.2504 14.8626 18.1045 14.7812 17.9688C14.7956 17.6872 14.7539 17.4163 14.6562 17.1562C14.6948 17.1632 14.7261 17.184 14.75 17.2188C14.7708 13.8021 14.7917 10.3854 14.8125 6.96875C14.8262 6.87888 14.8574 6.79556 14.9062 6.71875C14.9271 6.76044 14.9479 6.80206 14.9688 6.84375C14.8964 10.2174 14.8859 13.5924 14.9375 16.9688C14.9688 14.823 14.9792 12.6772 14.9688 10.5312C15.3057 10.5753 15.639 10.5753 15.9688 10.5312C15.9688 10.6146 15.9688 10.6979 15.9688 10.7812C16.3021 10.7812 16.6354 10.7812 16.9688 10.7812C16.9498 10.6104 17.0227 10.5063 17.1875 10.4688C17.4444 10.5252 17.7049 10.5461 17.9688 10.5312C17.8874 10.667 17.8249 10.8128 17.7812 10.9688C17.9663 10.9665 18.1121 11.029 18.2188 11.1562Z"
            fill="#DC3827" />
        <path fill-rule="evenodd" clip-rule="evenodd"
            d="M14.5938 17.1562C14.6146 17.1562 14.6354 17.1562 14.6562 17.1562C14.7539 17.4163 14.7956 17.6872 14.7812 17.9688C14.7249 17.7028 14.6624 17.4319 14.5938 17.1562Z"
            fill="#D76165" />
        <path fill-rule="evenodd" clip-rule="evenodd"
            d="M31.9688 16.9688C31.9688 17.1979 31.9688 17.4271 31.9688 17.6562C31.9271 17.9593 31.8854 18.2718 31.8438 18.5938C31.8011 18.6402 31.7594 18.6818 31.7188 18.7188C31.8022 18.1275 31.8856 17.5442 31.9688 16.9688Z"
            fill="#F9D2CB" />
        <path fill-rule="evenodd" clip-rule="evenodd"
            d="M10.1562 6.78125C10.2188 6.78125 10.2812 6.78125 10.3438 6.78125C10.4054 10.1753 10.4263 13.5711 10.4062 16.9688C10.4688 16.9688 10.5312 16.9688 10.5938 16.9688C10.6141 13.5703 10.5932 10.1744 10.5312 6.78125C11.8646 6.78125 13.1979 6.78125 14.5312 6.78125C14.5312 6.84375 14.5312 6.90625 14.5312 6.96875C14.4272 10.2809 14.3647 13.6142 14.3438 16.9688C14.2812 13.594 14.2604 10.219 14.2812 6.84375C13.1146 6.84375 11.9479 6.84375 10.7812 6.84375C10.7708 10.2188 10.7812 13.5938 10.8125 16.9688C10.8752 17.4483 10.9169 17.9274 10.9375 18.4062C10.8669 18.1049 10.7939 18.1258 10.7188 18.4688C10.7915 18.6292 10.8331 18.7959 10.8438 18.9688C10.713 18.9649 10.6192 18.9024 10.5625 18.7812C10.5396 18.2527 10.4875 18.2319 10.4062 18.7188C10.5023 18.9737 10.6169 19.2237 10.75 19.4688C10.6961 20.072 10.9358 20.2386 11.4688 19.9688C11.3887 20.1043 11.3262 20.2502 11.2812 20.4062C11.2917 20.4688 11.3021 20.5312 11.3125 20.5938C11.3964 20.5061 11.4485 20.5269 11.4688 20.6562C11.4033 20.7535 11.3616 20.8577 11.3438 20.9688C11.2188 20.8021 11.0938 20.6354 10.9688 20.4688C10.5982 19.8522 10.369 19.1855 10.2812 18.4688C10.3057 18.1464 10.3266 17.8235 10.3438 17.5C10.3244 13.9206 10.2619 10.3477 10.1562 6.78125Z"
            fill="#F8FBF5" />
        <path fill-rule="evenodd" clip-rule="evenodd"
            d="M10.3438 6.78125C10.4062 6.78125 10.4688 6.78125 10.5312 6.78125C10.5932 10.1744 10.6141 13.5703 10.5938 16.9688C10.5312 16.9688 10.4688 16.9688 10.4062 16.9688C10.4263 13.5711 10.4054 10.1753 10.3438 6.78125Z"
            fill="#FDFAFE" />
        <path fill-rule="evenodd" clip-rule="evenodd"
            d="M22.5312 15.9688C22.6731 16.9568 22.6939 17.9568 22.5938 18.9688C22.5312 18.9688 22.4688 18.9688 22.4062 18.9688C22.4165 19.1367 22.4061 19.3034 22.375 19.4688C22.2522 19.6557 22.1168 19.8223 21.9688 19.9688C22.5604 18.6969 22.7479 17.3636 22.5312 15.9688Z"
            fill="#D45041" />
        <path fill-rule="evenodd" clip-rule="evenodd"
            d="M15.5312 18.7812C16.0123 18.8294 16.4914 18.8294 16.9688 18.7812C16.4896 19.0312 16.0104 19.0312 15.5312 18.7812Z"
            fill="#CF483D" />
        <path fill-rule="evenodd" clip-rule="evenodd"
            d="M31.9688 16.4688C31.9688 16.6354 31.9688 16.8021 31.9688 16.9688C31.8856 17.5442 31.8022 18.1275 31.7188 18.7188C31.5806 19.6736 31.3306 20.5903 30.9688 21.4688C31.0285 20.7671 31.091 20.0587 31.1562 19.3438C31.1929 19.3568 31.2241 19.3777 31.25 19.4062C31.2612 19.5971 31.2924 19.7846 31.3438 19.9688C31.3646 19.9271 31.3854 19.8854 31.4062 19.8438C31.5196 19.2243 31.5821 18.5993 31.5938 17.9688C31.6562 17.9688 31.7188 17.9688 31.7812 17.9688C31.7709 17.5516 31.7812 17.1349 31.8125 16.7188C31.8505 16.6209 31.9026 16.5375 31.9688 16.4688Z"
            fill="#D14130" />
        <path fill-rule="evenodd" clip-rule="evenodd"
            d="M10.2188 18.4688C10.2396 18.4688 10.2604 18.4688 10.2812 18.4688C10.369 19.1855 10.5982 19.8522 10.9688 20.4688C10.6881 20.4235 10.5839 20.2568 10.6562 19.9688C10.5938 19.9688 10.5312 19.9688 10.4688 19.9688C10.4647 19.7362 10.4335 19.5071 10.375 19.2812C10.3043 19.3502 10.2522 19.3294 10.2188 19.2188C10.2411 18.9746 10.2411 18.7246 10.2188 18.4688Z"
            fill="#D44036" />
        <path fill-rule="evenodd" clip-rule="evenodd"
            d="M21.9688 19.9688C21.7109 20.5072 21.3775 20.9863 20.9688 21.4062C20.7566 21.6189 20.5274 21.8064 20.2813 21.9688C20.2265 21.9769 20.1848 21.9561 20.1563 21.9062C20.2188 21.8646 20.2813 21.8229 20.3438 21.7812C20.2815 21.6042 20.1565 21.5209 19.9688 21.5312C19.9524 21.4389 19.9732 21.3556 20.0313 21.2812C20.0867 21.3328 20.1075 21.3953 20.0938 21.4688C20.37 21.4173 20.4117 21.2819 20.2188 21.0625C20.4177 20.9538 20.626 20.9434 20.8438 21.0312C20.715 21.2044 20.5587 21.3502 20.375 21.4688C20.3381 21.5302 20.359 21.5719 20.4375 21.5938C20.606 21.4886 20.7623 21.3636 20.9063 21.2188C20.9327 20.8693 21.016 20.536 21.1563 20.2188C21.2292 20.3229 21.3021 20.4271 21.375 20.5312C21.4493 20.4648 21.4805 20.3814 21.4688 20.2812C21.6544 20.2659 21.7377 20.1618 21.7188 19.9688C21.8021 19.9688 21.8855 19.9688 21.9688 19.9688Z"
            fill="#F5F6ED" />
        <path fill-rule="evenodd" clip-rule="evenodd"
            d="M-0.03125 16.9688C0.0878444 18.3218 0.348261 19.6551 0.75 20.9688C0.804694 21.1501 0.877613 21.3168 0.96875 21.4688C1.13249 22.0042 1.36166 22.5042 1.65625 22.9688C1.93617 23.6959 2.31117 24.3626 2.78125 24.9688C3.23376 25.7066 3.77543 26.3733 4.40625 26.9688C4.53125 27.2188 4.71875 27.4062 4.96875 27.5312C5.09807 27.7233 5.26474 27.8691 5.46875 27.9688C5.59807 28.1608 5.76474 28.3066 5.96875 28.4062C6.32794 28.7221 6.70294 29.0242 7.09375 29.3125C7.24125 29.3862 7.38706 29.4592 7.53125 29.5312C7.7485 29.7264 7.9985 29.8723 8.28125 29.9688C8.94881 30.4168 9.678 30.7501 10.4688 30.9688C10.6161 31.0706 10.7827 31.1434 10.9688 31.1875C11.4294 31.3026 11.8877 31.4172 12.3438 31.5312C12.534 31.6257 12.7424 31.6674 12.9688 31.6562C13.3206 31.8086 13.6956 31.8711 14.0938 31.8438C14.2188 31.8854 14.3438 31.9271 14.4688 31.9688C9.63544 31.9688 4.80208 31.9688 -0.03125 31.9688C-0.03125 26.9688 -0.03125 21.9688 -0.03125 16.9688Z"
            fill="#FDFDFC" />
        <path fill-rule="evenodd" clip-rule="evenodd"
            d="M31.9688 17.6562C31.9688 22.4271 31.9688 27.1979 31.9688 31.9688C26.9688 31.9688 21.9688 31.9688 16.9688 31.9688C17.6266 31.8773 18.2933 31.7835 18.9688 31.6875C19.1487 31.6534 19.3154 31.6013 19.4688 31.5312C19.6379 31.5266 19.8046 31.5058 19.9688 31.4688C20.6532 31.2738 21.3199 31.0446 21.9688 30.7812C22.5584 30.5592 23.1209 30.2884 23.6562 29.9688C23.9787 29.818 24.2912 29.6513 24.5938 29.4688C24.8173 29.3812 25.0465 29.3082 25.2812 29.25C25.3773 29.1806 25.4189 29.0869 25.4062 28.9688C25.4921 28.9786 25.5754 28.9681 25.6562 28.9375C25.9488 28.7694 26.2405 28.6027 26.5312 28.4375C26.6781 28.2688 26.8031 28.0813 26.9062 27.875C27.0634 27.8394 27.2093 27.8707 27.3438 27.9688C27.4819 27.8717 27.4611 27.778 27.2812 27.6875C27.3466 27.4278 27.4507 27.1882 27.5938 26.9688C27.9244 26.5649 28.2682 26.1691 28.625 25.7812C28.7724 25.6111 28.8869 25.4236 28.9688 25.2188C29.0609 25.1603 29.1234 25.0769 29.1562 24.9688C29.4116 24.5621 29.6825 24.1662 29.9688 23.7812C30.0312 23.7812 30.0938 23.7812 30.1562 23.7812C30.1118 23.571 30.1848 23.4252 30.375 23.3438C30.5081 22.9724 30.6226 22.5974 30.7188 22.2188C30.8144 21.9734 30.8977 21.7234 30.9688 21.4688C31.3306 20.5903 31.5806 19.6736 31.7188 18.7188C31.7594 18.6818 31.8011 18.6402 31.8438 18.5938C31.8854 18.2718 31.9271 17.9593 31.9688 17.6562Z"
            fill="#FDFDFD" />
        <path fill-rule="evenodd" clip-rule="evenodd"
            d="M20.9688 21.4062C20.7334 21.7151 20.4834 22.0171 20.2188 22.3125C20.0264 22.4321 19.8181 22.5051 19.5938 22.5312C19.8344 22.3587 20.0636 22.1712 20.2812 21.9688C20.5274 21.8064 20.7566 21.6189 20.9688 21.4062Z"
            fill="#C9493D" />
        <path fill-rule="evenodd" clip-rule="evenodd"
            d="M19.4062 22.6562C19.3789 22.7546 19.3164 22.8276 19.2188 22.875C19.0031 22.8981 18.8156 22.9815 18.6562 23.125C18.3369 23.1996 18.0244 23.2829 17.7188 23.375C17.4696 23.4062 17.2196 23.4166 16.9688 23.4062C17.8083 23.2638 18.6208 23.0137 19.4062 22.6562Z"
            fill="#CA4639" />
        <path fill-rule="evenodd" clip-rule="evenodd"
            d="M30.7188 22.2188C30.6226 22.5974 30.5081 22.9724 30.375 23.3438C30.1848 23.4252 30.1118 23.571 30.1562 23.7812C30.0938 23.7812 30.0312 23.7812 29.9688 23.7812C29.9688 23.7396 29.9688 23.6979 29.9688 23.6562C30.1411 23.4576 30.2661 23.2284 30.3438 22.9688C30.4379 22.6972 30.5629 22.4472 30.7188 22.2188Z"
            fill="#F5E4D8" />
        <path fill-rule="evenodd" clip-rule="evenodd"
            d="M14.6562 23.2188C15.0007 23.2636 15.334 23.3261 15.6562 23.4062C15.6354 23.4062 15.6146 23.4062 15.5938 23.4062C15.2991 23.4267 15.0075 23.4058 14.7188 23.3438C14.6961 23.3011 14.6752 23.2594 14.6562 23.2188Z"
            fill="#C64539" />
        <path fill-rule="evenodd" clip-rule="evenodd"
            d="M1.65625 22.9688C1.76511 23.1652 1.89011 23.3527 2.03125 23.5312C2.08214 23.3896 2.11339 23.2438 2.125 23.0938C2.20271 23.0415 2.27562 23.0623 2.34375 23.1562C2.31639 23.2191 2.27473 23.2191 2.21875 23.1562C2.19792 23.2083 2.17708 23.2604 2.15625 23.3125C2.26869 23.4561 2.37286 23.6124 2.46875 23.7812C2.45833 23.8229 2.44792 23.8646 2.4375 23.9062C2.42124 23.7739 2.35874 23.6697 2.25 23.5938C2.21904 23.7832 2.22946 23.9707 2.28125 24.1562C2.38394 24.155 2.46727 24.1967 2.53125 24.2812C2.60256 24.4414 2.65464 24.608 2.6875 24.7812C2.77083 24.6979 2.85417 24.6146 2.9375 24.5312C2.97917 24.5938 2.97917 24.6562 2.9375 24.7188C2.8697 24.796 2.81762 24.8793 2.78125 24.9688C2.31117 24.3626 1.93617 23.6959 1.65625 22.9688Z"
            fill="#D53E31" />
        <path fill-rule="evenodd" clip-rule="evenodd"
            d="M30.3438 22.9688C30.2661 23.2284 30.1411 23.4576 29.9688 23.6562C29.9938 23.3633 30.1188 23.1341 30.3438 22.9688Z"
            fill="#C75451" />
        <path fill-rule="evenodd" clip-rule="evenodd"
            d="M15.5938 23.4062C15.6146 23.4062 15.6354 23.4062 15.6562 23.4062C16.0938 23.4062 16.5312 23.4062 16.9688 23.4062C16.7885 23.6815 16.5281 23.7856 16.1875 23.7188C15.8104 23.6627 15.4354 23.6627 15.0625 23.7188C15.0312 23.6979 15 23.6771 14.9688 23.6562C15.1622 23.521 15.3705 23.4376 15.5938 23.4062Z"
            fill="#D23C29" />
        <path fill-rule="evenodd" clip-rule="evenodd"
            d="M29.1562 24.9688C29.1234 25.0769 29.0609 25.1603 28.9688 25.2188C28.9688 25.1354 28.9688 25.0521 28.9688 24.9688C29.0312 24.9688 29.0938 24.9688 29.1562 24.9688Z"
            fill="#B74A48" />
        <path fill-rule="evenodd" clip-rule="evenodd"
            d="M4.40625 26.9688C4.65351 27.091 4.84101 27.2785 4.96875 27.5312C4.71875 27.4062 4.53125 27.2188 4.40625 26.9688Z"
            fill="#C3534D" />
        <path fill-rule="evenodd" clip-rule="evenodd"
            d="M27.5312 26.9688C27.3646 27.1771 27.1771 27.3646 26.9688 27.5312C27.0948 27.2803 27.2823 27.0927 27.5312 26.9688Z"
            fill="#C34B4A" />
        <path fill-rule="evenodd" clip-rule="evenodd"
            d="M5.46875 27.9688C5.67276 28.0684 5.83943 28.2142 5.96875 28.4062C5.76474 28.3066 5.59807 28.1608 5.46875 27.9688Z"
            fill="#C1504F" />
        <path fill-rule="evenodd" clip-rule="evenodd"
            d="M27.5312 26.9688C27.5521 26.9688 27.5729 26.9688 27.5938 26.9688C27.4507 27.1882 27.3466 27.4278 27.2812 27.6875C27.4611 27.778 27.4819 27.8717 27.3438 27.9688C27.2093 27.8707 27.0634 27.8394 26.9062 27.875C26.8031 28.0813 26.6781 28.2688 26.5312 28.4375C26.2405 28.6027 25.9488 28.7694 25.6562 28.9375C25.5754 28.9681 25.4921 28.9786 25.4062 28.9688C25.4189 29.0869 25.3773 29.1806 25.2812 29.25C25.0465 29.3082 24.8173 29.3812 24.5938 29.4688C24.7418 29.3944 24.8668 29.2902 24.9688 29.1562C25.7066 28.7038 26.3733 28.1621 26.9688 27.5312C27.1771 27.3646 27.3646 27.1771 27.5312 26.9688Z"
            fill="#F6F4EB" />
        <path fill-rule="evenodd" clip-rule="evenodd"
            d="M24.9685 29.1562C24.8666 29.2902 24.7416 29.3944 24.5935 29.4688C24.291 29.6513 23.9785 29.818 23.656 29.9688C23.6454 29.8861 23.6662 29.8132 23.7185 29.75C23.8671 29.7181 24.013 29.6764 24.156 29.625C24.4126 29.4345 24.6835 29.2783 24.9685 29.1562Z"
            fill="#BD5043" />
        <path fill-rule="evenodd" clip-rule="evenodd"
            d="M7.53125 29.5312C7.829 29.6123 8.079 29.7581 8.28125 29.9688C7.9985 29.8723 7.7485 29.7264 7.53125 29.5312Z"
            fill="#BD5849" />
        <path fill-rule="evenodd" clip-rule="evenodd"
            d="M21.9688 30.7813C21.3199 31.0447 20.6532 31.2739 19.9688 31.4688C20.0664 31.3765 20.1706 31.2828 20.2812 31.1875C20.1846 31.1667 20.1013 31.198 20.0312 31.2813C19.8436 31.2447 19.6561 31.203 19.4688 31.1563C19.9746 31.1145 20.4746 31.052 20.9688 30.9688C20.9688 30.8646 20.9688 30.7605 20.9688 30.6563C21.0345 30.6656 21.097 30.6552 21.1562 30.625C21.2421 30.4119 21.2838 30.4224 21.2812 30.6563C21.5995 30.6561 21.5995 30.7082 21.2812 30.8125C21.5106 30.83 21.7398 30.8195 21.9688 30.7813Z"
            fill="#D63E31" />
        <path fill-rule="evenodd" clip-rule="evenodd"
            d="M10.4688 30.9688C10.6882 31.0368 10.9069 31.0368 11.125 30.9688C11.8827 31.0462 12.6224 31.1608 13.3438 31.3125C13.1594 31.3392 12.9823 31.3913 12.8125 31.4688C12.6308 31.3626 12.4329 31.3001 12.2188 31.2812C12.1354 31.3021 12.0521 31.3229 11.9688 31.3438C12.1234 31.3727 12.2484 31.4352 12.3438 31.5312C11.8877 31.4172 11.4294 31.3026 10.9688 31.1875C10.7827 31.1434 10.6161 31.0706 10.4688 30.9688Z"
            fill="#D53C2F" />
        <path fill-rule="evenodd" clip-rule="evenodd"
            d="M12.9688 31.6562C13.3844 31.744 13.8115 31.7856 14.25 31.7812C14.5739 31.7739 14.8968 31.7531 15.2188 31.7188C15.4393 31.704 15.6059 31.7873 15.7188 31.9688C15.4688 31.9688 15.2188 31.9688 14.9688 31.9688C14.6926 31.8767 14.4009 31.8351 14.0938 31.8438C13.6956 31.8711 13.3206 31.8086 12.9688 31.6562Z"
            fill="#D44634" />
        <path fill-rule="evenodd" clip-rule="evenodd"
            d="M19.4688 31.5312C19.3154 31.6013 19.1487 31.6534 18.9688 31.6875C18.2933 31.7835 17.6266 31.8773 16.9688 31.9688C16.6979 31.9688 16.4271 31.9688 16.1562 31.9688C16.3339 31.7915 16.5526 31.6873 16.8125 31.6562C17.1893 31.7671 17.5747 31.8088 17.9688 31.7812C17.9688 31.7188 17.9688 31.6562 17.9688 31.5938C18.3449 31.6261 18.7095 31.5844 19.0625 31.4688C19.1937 31.5179 19.3291 31.5387 19.4688 31.5312Z"
            fill="#D4432F" />
        <path fill-rule="evenodd" clip-rule="evenodd"
            d="M14.0938 31.8429C14.4009 31.8343 14.6926 31.8759 14.9688 31.9679C14.8021 31.9679 14.6354 31.9679 14.4688 31.9679C14.3438 31.9262 14.2188 31.8846 14.0938 31.8429Z"
            fill="#E99295" />
    </g>
    <defs>
        <clipPath id="clip0_4361_269">
            <rect width="32" height="32" fill="white" />
        </clipPath>
    </defs>
</svg>