<svg width="32" height="32" viewBox="0 0 32 32" fill="none" xmlns="http://www.w3.org/2000/svg">
    <g clip-path="url(#clip0_4451_460)">
        <path fill-rule="evenodd" clip-rule="evenodd"
            d="M16 32C24.8366 32 32 24.8366 32 16C32 7.16344 24.8366 0 16 0C7.16344 0 0 7.16344 0 16C0 24.8366 7.16344 32 16 32ZM11.4418 24.0099C8.69698 21.4012 8.42243 16.8802 9.4688 13.429C9.94353 11.8632 10.8157 10.5532 12.1873 9.61123C13.0046 9.04988 13.9514 8.61278 14.9497 8.53427C16.1544 8.43945 17.2846 8.83725 18.25 9.55283C19.1975 10.2551 19.9439 11.2589 19.5805 12.48C19.2644 13.5421 18.3677 14.4067 17.4971 15.0365C16.9231 15.4516 17.0632 16.4924 17.8834 16.4691C19.8662 16.4127 22.2625 16.7475 22.7809 19.0275C23.009 20.0305 22.865 21.1285 22.1751 21.921C21.5101 22.6849 20.5506 23.0961 19.5815 23.308C17.8158 23.6942 15.9305 23.3868 14.7159 22.1035C13.6435 20.9702 13.2212 19.3065 13.2369 17.7322C13.2489 16.5411 13.5105 15.3097 14.0604 14.2539C14.0898 14.4218 14.1222 14.5894 14.1579 14.7567C14.3752 15.7775 15.9634 15.3455 15.7462 14.3255C15.6001 13.6391 15.5238 12.9574 15.484 12.2576C15.4598 11.834 15.171 11.5822 14.8417 11.5036C14.773 11.4857 14.6995 11.4762 14.6214 11.4769C14.5177 11.4761 14.4148 11.4917 14.3193 11.524C13.6503 11.6919 13.0145 11.9457 12.3792 12.1994C12.1071 12.3081 11.8351 12.4167 11.5606 12.5185C11.137 12.6756 10.8377 13.034 10.9691 13.4708C11.0794 13.838 11.5845 14.1697 12.0109 14.0116C12.1964 13.9428 12.3807 13.8709 12.5648 13.798C11.1566 16.7139 11.3974 20.6314 13.4893 23.0321C15.0448 24.8171 17.4634 25.2469 19.7024 24.8477C22.3217 24.3806 24.6219 22.4234 24.3956 19.5609C24.2718 17.9941 23.5645 16.5624 22.1755 15.7648C21.4401 15.3425 20.6174 15.1172 19.7761 15.0094C21.0231 13.601 21.7629 11.7743 20.7014 9.96181C19.9429 8.6669 18.5082 7.69453 17.101 7.24942C15.8325 6.84818 14.4325 6.91319 13.1887 7.37245C11.2029 8.10564 9.42494 9.63806 8.53787 11.5836C7.63523 13.5636 7.29633 15.8224 7.42151 17.9887C7.57264 20.6026 8.42651 23.2602 10.3594 25.0972C11.0748 25.7772 12.1592 24.6917 11.4418 24.0099ZM19.7761 15.0094L19.7747 15.011L19.7742 15.0091L19.7761 15.0094ZM18.2679 16.3577L18.2778 16.3582L18.2696 16.3642L18.2679 16.3577Z"
            fill="#3F1773" />
    </g>
    <defs>
        <clipPath id="clip0_4451_460">
            <rect width="32" height="32" fill="white" />
        </clipPath>
    </defs>
</svg>