<svg width="32" height="32" viewBox="0 0 32 32" fill="none" xmlns="http://www.w3.org/2000/svg">
    <g clip-path="url(#clip0_2948_1377)">
        <path fill-rule="evenodd" clip-rule="evenodd"
            d="M4.90671 0.21299C12.1602 0.189287 19.4135 0.212991 26.6667 0.284101C29.3132 0.749857 30.9487 2.2906 31.5734 4.90632C31.6682 12.1597 31.6682 19.413 31.5734 26.6663C31.0769 29.4384 29.4413 31.0739 26.6667 31.573C19.4134 31.6679 12.16 31.6679 4.90671 31.573C2.29362 30.9509 0.752877 29.3154 0.28449 26.6663C0.189675 19.413 0.189675 12.1597 0.28449 4.90632C0.90671 2.41166 2.44745 0.847211 4.90671 0.21299Z"
            fill="#3A3D4C" />
        <path fill-rule="evenodd" clip-rule="evenodd"
            d="M21.5466 9.17305C21.9456 9.56353 22.0642 10.0376 21.9022 10.5953C20.0121 12.0107 18.0446 13.3143 16 14.5064C15.6989 14.7526 15.4856 15.0608 15.36 15.4308C15.2889 17.5636 15.2651 19.6969 15.2889 21.8308C14.4816 21.8544 13.6756 21.8307 12.8711 21.7597C12.6227 21.6927 12.3857 21.5979 12.16 21.4753C10.3348 19.6501 8.5096 17.8249 6.68441 15.9997C6.49933 15.7345 6.45192 15.45 6.54219 15.1464C8.46683 12.9846 10.5291 10.9698 12.7289 9.10194C15.6743 8.98672 18.6136 9.01043 21.5466 9.17305Z"
            fill="#81D8F3" />
        <path fill-rule="evenodd" clip-rule="evenodd"
            d="M21.5467 9.17285C22.2472 9.42272 22.7449 9.89679 23.04 10.5951C23.1349 13.7714 23.1349 16.9477 23.04 20.124C22.8169 20.8446 22.3665 21.3661 21.6889 21.6884C19.5607 21.8237 17.4274 21.8712 15.2889 21.8306C15.2652 19.6967 15.2889 17.5634 15.36 15.4306C15.4856 15.0606 15.699 14.7524 16 14.5062C18.0446 13.3141 20.0121 12.0105 21.9023 10.5951C22.0643 10.0374 21.9456 9.56334 21.5467 9.17285Z"
            fill="#6EB1F3" />
        <path fill-rule="evenodd" clip-rule="evenodd"
            d="M21.6889 21.6885C19.8994 22.9511 18.0268 24.0889 16.0711 25.1018C15.7652 25.0815 15.5281 24.9392 15.36 24.6751C15.2889 23.7282 15.2653 22.78 15.2889 21.8307C17.4273 21.8712 19.5607 21.8237 21.6889 21.6885Z"
            fill="#7366FC" />
    </g>
    <defs>
        <clipPath id="clip0_2948_1377">
            <rect width="32" height="32" fill="white" />
        </clipPath>
    </defs>
</svg>