<svg width="32" height="32" viewBox="0 0 33 33" fill="none" xmlns="http://www.w3.org/2000/svg">
    <path fill-rule="evenodd" clip-rule="evenodd"
        d="M13.5737 0.116008C21.686 -0.556793 27.5021 2.73024 31.0221 9.97711C33.239 16.1376 32.2647 21.7376 28.0988 26.7775C22.0901 32.566 15.3604 33.5703 7.90977 29.7906C1.68481 25.6227 -0.781721 19.8094 0.510175 12.3511C2.49405 5.71067 6.84854 1.63232 13.5737 0.116008Z"
        fill="#2A2C34" />
    <path fill-rule="evenodd" clip-rule="evenodd"
        d="M14.6699 13.6289C14.8526 13.6289 15.0353 13.6289 15.218 13.6289C15.218 13.8724 15.218 14.1159 15.218 14.3594C16.1924 14.4811 16.1924 14.6028 15.218 14.7246C15.1877 15.5182 15.2182 16.3095 15.3094 17.0986C15.5851 17.2063 15.8591 17.3279 16.1315 17.4638C15.6233 17.7289 15.1666 17.6681 14.7612 17.2812C14.67 16.4311 14.6396 15.5789 14.6699 14.7246C13.9391 14.6028 13.9391 14.4811 14.6699 14.3594C14.6699 14.1159 14.6699 13.8724 14.6699 13.6289Z"
        fill="#E5E6E7" />
    <path fill-rule="evenodd" clip-rule="evenodd"
        d="M4.80376 13.0811C5.12114 13.539 5.27339 14.0869 5.26053 14.7246C5.98101 14.2012 6.65094 14.2621 7.27029 14.9072C7.3921 15.5768 7.3921 16.2463 7.27029 16.9159C6.87541 17.5777 6.29684 17.7908 5.53459 17.5551C5.31972 17.2056 5.13702 17.2359 4.98647 17.6464C4.80415 16.1294 4.74325 14.6077 4.80376 13.0811Z"
        fill="#F2F2F3" />
    <path fill-rule="evenodd" clip-rule="evenodd"
        d="M8.64059 14.3596C10.3965 14.21 11.036 15.0013 10.559 16.7336C10.1804 17.5815 9.54089 17.8554 8.64059 17.5554C8.30563 17.4641 8.09247 17.251 8.00112 16.9162C7.87931 16.3076 7.87931 15.6988 8.00112 15.0901C8.12713 14.7522 8.34029 14.5087 8.64059 14.3596Z"
        fill="#E6E7E8" />
    <path fill-rule="evenodd" clip-rule="evenodd"
        d="M11.7466 14.3598C13.5008 14.1965 14.2012 14.9878 13.8477 16.7338C13.3834 17.5682 12.683 17.8421 11.7466 17.5556C10.7797 16.4906 10.7797 15.4253 11.7466 14.3598Z"
        fill="#E3E3E4" />
    <path fill-rule="evenodd" clip-rule="evenodd"
        d="M17.7759 14.1768C19.3843 14.2798 19.9627 15.132 19.5116 16.7333C19.1226 17.6157 18.4831 17.8591 17.5932 17.4638C17.4141 17.936 17.3533 18.4231 17.4105 18.9247C17.1669 18.9247 16.9232 18.9247 16.6797 18.9247C16.6797 17.403 16.6797 15.8811 16.6797 14.3594C16.98 14.3204 17.2541 14.3812 17.5018 14.542C17.6328 14.4426 17.7242 14.3209 17.7759 14.1768Z"
        fill="#F2F2F2" />
    <path fill-rule="evenodd" clip-rule="evenodd"
        d="M20.6992 14.1767C22.0196 14.0443 22.8115 14.6226 23.0744 15.9115C22.7652 16.4475 22.6435 17.0258 22.709 17.6463C22.3525 17.6962 22.0784 17.5746 21.8868 17.2811C20.3356 18.0435 19.7572 17.587 20.1511 15.9115C20.7485 15.7298 21.3575 15.5777 21.9781 15.455C21.5592 14.7968 21.0414 14.7359 20.4251 15.2724C20.0469 14.7929 20.1383 14.4277 20.6992 14.1767Z"
        fill="#F2F2F2" />
    <path fill-rule="evenodd" clip-rule="evenodd"
        d="M23.0744 14.3598C23.401 14.3077 23.7056 14.3686 23.9879 14.5424C24.1823 15.2166 24.3955 15.8863 24.6274 16.5512C24.8124 15.8718 25.0257 15.2023 25.2668 14.5424C25.5544 14.3359 25.859 14.3055 26.1804 14.4511C25.6525 15.6679 25.1958 16.9158 24.8101 18.1947C24.7145 18.5093 24.5318 18.7527 24.262 18.9251C23.9879 18.8946 23.8357 18.7425 23.8052 18.4686C23.9271 18.1642 24.0487 17.86 24.1706 17.5555C23.7906 16.4913 23.4252 15.4261 23.0744 14.3598Z"
        fill="#F2F2F3" />
    <path fill-rule="evenodd" clip-rule="evenodd"
        d="M5.71729 14.7247C6.24129 14.6489 6.63716 14.8315 6.90488 15.2725C7.02669 15.7595 7.02669 16.2464 6.90488 16.7334C6.35676 17.4639 5.80864 17.4639 5.26053 16.7334C5.04344 15.959 5.19568 15.2893 5.71729 14.7247Z"
        fill="#33363E" />
    <path fill-rule="evenodd" clip-rule="evenodd"
        d="M8.8233 14.7253C9.28817 14.653 9.68404 14.7748 10.0109 15.0905C10.1327 15.6992 10.1327 16.308 10.0109 16.9166C9.52366 17.4036 9.03646 17.4036 8.54924 16.9166C8.36544 16.131 8.45679 15.4007 8.8233 14.7253Z"
        fill="#2F323A" />
    <path fill-rule="evenodd" clip-rule="evenodd"
        d="M11.9293 14.7251C13.2184 14.6793 13.6751 15.288 13.2996 16.5512C12.8378 17.4431 12.2897 17.5039 11.6552 16.7338C11.493 16.0212 11.5844 15.3516 11.9293 14.7251Z"
        fill="#2F323A" />
    <path fill-rule="evenodd" clip-rule="evenodd"
        d="M17.7759 14.9079C18.0763 14.8689 18.3503 14.9298 18.5981 15.0905C18.7413 15.6859 18.7108 16.2642 18.5067 16.8253C18.1046 16.976 17.7697 16.8847 17.5018 16.5514C17.3315 15.9446 17.4229 15.3967 17.7759 14.9079Z"
        fill="#2D3038" />
    <path fill-rule="evenodd" clip-rule="evenodd"
        d="M20.8819 16.1854C21.2663 16.1308 21.6317 16.1916 21.9781 16.368C21.6911 16.8415 21.2648 17.0241 20.6992 16.9158C20.6869 16.6494 20.7478 16.406 20.8819 16.1854Z"
        fill="#383B42" />
    <path fill-rule="evenodd" clip-rule="evenodd"
        d="M26.7285 17.2822C26.972 17.2822 27.2158 17.2822 27.4593 17.2822C27.4529 18.291 27.1485 18.4128 26.5458 17.6475C26.6121 17.5227 26.6729 17.4009 26.7285 17.2822Z"
        fill="#E9E9EA" />
</svg>