<svg width="32" height="32" viewBox="0 0 32 32" fill="none" xmlns="http://www.w3.org/2000/svg">
    <mask id="mask0_4002_53" style="mask-type:luminance" maskUnits="userSpaceOnUse" x="0" y="0"
        width="32" height="32">
        <path d="M32 0H0V32H32V0Z" fill="white" />
    </mask>
    <g mask="url(#mask0_4002_53)">
        <path d="M32.0013 0H0V32.0013H32.0013V0Z" fill="#059669" />
        <path
            d="M12.4975 12.1171C11.572 11.6111 10.5381 11.3581 9.39705 11.3581C8.25599 11.3581 7.22077 11.6111 6.29657 12.1171C6.13005 12.2074 5.97258 12.3081 5.81897 12.4126V9.30829C5.81897 8.75455 5.37107 8.30664 4.81732 8.30664H3.32258V16.9924C3.31097 17.164 3.30322 17.3383 3.30322 17.5164C3.30322 18.7453 3.56396 19.8257 4.08415 20.7576C4.60434 21.6896 5.32073 22.4124 6.23074 22.9261C7.14204 23.4399 8.16047 23.6955 9.28862 23.6955C10.4168 23.6955 11.4752 23.4386 12.4214 22.9261C13.3675 22.4137 14.1162 21.687 14.6661 20.7473C15.2146 19.8076 15.4896 18.7311 15.4896 17.5164C15.4896 16.3018 15.2224 15.2253 14.6867 14.2856C14.1523 13.3459 13.4217 12.623 12.4962 12.1171H12.4975ZM12.433 19.7276C12.0858 20.3342 11.634 20.7899 11.0777 21.0932C10.5213 21.3966 9.92498 21.5489 9.28862 21.5489C8.29084 21.5489 7.46344 21.1991 6.80643 20.4969C6.14813 19.796 5.82027 18.8021 5.82027 17.5151C5.82027 16.6477 5.97903 15.9146 6.29786 15.3143C6.61539 14.7141 7.04652 14.2624 7.58736 13.959C8.12949 13.6557 8.71809 13.5034 9.35445 13.5034C9.99081 13.5034 10.5833 13.6557 11.1319 13.959C11.6805 14.2624 12.1219 14.7141 12.4549 15.3143C12.7867 15.9146 12.9532 16.6477 12.9532 17.5151C12.9532 18.3826 12.7802 19.1196 12.433 19.7276Z"
            fill="white" />
        <path
            d="M25.7914 15.7609C26.5724 15.486 27.1932 15.06 27.6566 14.4818C28.1187 13.9035 28.3511 13.0516 28.3511 12.1841C28.3511 11.4613 28.1626 10.8069 27.787 10.2221C27.4114 9.63612 26.855 9.17015 26.118 8.82292C25.381 8.4757 24.4993 8.30273 23.4732 8.30273H18.7592C18.1887 8.30273 17.7266 8.76484 17.7266 9.33537V10.319H23.2563C24.0656 10.319 24.6981 10.5113 25.1538 10.8934C25.6094 11.2767 25.8366 11.8072 25.8366 12.4875C25.8366 13.1677 25.6094 13.8415 25.1538 14.2107C24.6981 14.5799 24.0656 14.7631 23.2563 14.7631H18.7592C18.1887 14.7631 17.7266 15.2252 17.7266 15.7958V23.5018H23.7546C24.7523 23.5018 25.6262 23.325 26.3787 22.97C27.13 22.6163 27.7044 22.1323 28.1032 21.5179C28.5008 20.9034 28.6996 20.2129 28.6996 19.4474C28.6996 18.5516 28.4182 17.7487 27.8541 17.0401C27.29 16.3315 26.6033 15.9055 25.794 15.7609H25.7914ZM25.51 20.8789C25.0324 21.2842 24.3754 21.4856 23.5364 21.4856H20.1971V16.7806H23.4499C24.2877 16.7806 24.9602 16.9975 25.4661 17.4312C25.9721 17.8649 26.2251 18.4509 26.2251 19.188C26.2251 19.925 25.9863 20.4749 25.51 20.8789Z"
            fill="white" />
    </g>
</svg>