<svg width="32" height="32" viewBox="0 0 32 32" fill="none" xmlns="http://www.w3.org/2000/svg">
    <g clip-path="url(#clip0_1555_45)">
        <path fill-rule="evenodd" clip-rule="evenodd"
            d="M-0.03125 -0.03125C10.6354 -0.03125 21.3021 -0.03125 31.9688 -0.03125C31.9688 10.6354 31.9688 21.3021 31.9688 31.9688C21.3021 31.9688 10.6354 31.9688 -0.03125 31.9688C-0.03125 21.3021 -0.03125 10.6354 -0.03125 -0.03125Z"
            fill="#FEFEFE" />
        <path fill-rule="evenodd" clip-rule="evenodd"
            d="M22.9063 6.28115C22.8173 6.40709 22.7757 6.5529 22.7813 6.71865C22.5389 7.5874 22.341 8.4624 22.1876 9.34365C22.8864 9.79196 23.5114 10.3336 24.0626 10.9686C24.5662 11.6599 25.0454 12.3682 25.5001 13.0936C26.3041 14.7881 26.8875 16.5589 27.2501 18.4061C27.3334 19.5432 27.2605 20.6682 27.0313 21.7811C26.9456 21.9334 26.8831 22.1001 26.8438 22.2811C26.1148 24.3316 24.8023 25.8628 22.9063 26.8749C23.3464 26.3723 23.7111 25.8203 24.0001 25.2186C24.7182 23.628 25.1349 21.9613 25.2501 20.2186C25.3005 19.5888 25.2901 18.9638 25.2188 18.3436C25.2326 18.0561 25.1909 17.7853 25.0938 17.5311C24.4107 14.5478 22.5357 13.1832 19.4688 13.4374C18.2479 13.5947 17.425 14.251 17.0001 15.4061C16.8766 15.7958 16.7828 16.1916 16.7188 16.5936C16.6268 16.8698 16.5852 17.1615 16.5938 17.4686C16.584 18.4695 16.6048 19.4695 16.6563 20.4686C16.2249 20.2585 15.7874 20.2376 15.3438 20.4061C15.4011 19.2608 15.4115 18.115 15.3751 16.9686C15.1457 14.1972 13.6561 12.9993 10.9063 13.3749C9.92155 13.6016 9.05699 14.0495 8.31255 14.7186C7.68761 15.5103 7.30218 16.4061 7.1563 17.4061C7.10574 17.5181 7.07449 17.6431 7.06255 17.7811C7.02086 18.552 7.02086 19.3228 7.06255 20.0936C7.07449 20.2316 7.10574 20.3566 7.1563 20.4686C7.41224 22.3644 7.98518 24.1561 8.87505 25.8436C9.05361 26.1167 9.26193 26.3667 9.50005 26.5936C9.53024 26.6529 9.54061 26.7154 9.5313 26.7811C7.57293 25.7915 6.10419 24.3123 5.12505 22.3436C4.53983 20.5432 4.50858 18.7307 5.0313 16.9061C5.12029 16.7802 5.16196 16.6344 5.1563 16.4686C5.90634 13.5306 7.51049 11.1765 9.9688 9.40615C9.66093 8.33659 9.32761 7.27409 8.9688 6.21865C7.72111 6.03609 7.23155 5.32776 7.50005 4.09365C8.06474 3.21956 8.80436 3.04247 9.7188 3.5624C10.4042 4.2321 10.4563 4.95085 9.87505 5.71865C9.83336 5.80198 9.83336 5.88532 9.87505 5.96865C10.3751 6.80196 10.8751 7.63534 11.3751 8.46865C11.4204 8.50359 11.4724 8.5244 11.5313 8.53115C14.4847 7.37634 17.4431 7.3659 20.4063 8.4999C20.4896 8.54159 20.573 8.54159 20.6563 8.4999C21.12 7.5724 21.5992 6.65571 22.0938 5.7499C21.3807 4.89659 21.4432 4.10492 22.2813 3.3749C23.2383 2.99454 23.9571 3.25496 24.4376 4.15615C24.5834 5.32359 24.0729 5.96942 22.9063 6.09365C22.9063 6.15615 22.9063 6.21865 22.9063 6.28115Z"
            fill="#2E2F2F" />
        <path fill-rule="evenodd" clip-rule="evenodd"
            d="M22.9063 6.28125C22.9119 6.447 22.8703 6.59281 22.7813 6.71875C22.7756 6.553 22.8173 6.40719 22.9063 6.28125Z"
            fill="#9E9F9F" />
        <path fill-rule="evenodd" clip-rule="evenodd"
            d="M5.15627 16.4688C5.16192 16.6345 5.12026 16.7803 5.03127 16.9062C5.02561 16.7405 5.06728 16.5947 5.15627 16.4688Z"
            fill="#7B7C7C" />
        <path fill-rule="evenodd" clip-rule="evenodd"
            d="M16.7188 16.5938C16.7274 16.9009 16.6858 17.1926 16.5938 17.4688C16.5851 17.1616 16.6268 16.8699 16.7188 16.5938Z"
            fill="#7E7E7E" />
        <path fill-rule="evenodd" clip-rule="evenodd"
            d="M25.0937 17.5312C25.1909 17.7854 25.2325 18.0563 25.2187 18.3438C25.1216 18.0896 25.08 17.8187 25.0937 17.5312Z"
            fill="#B4B5B5" />
        <path fill-rule="evenodd" clip-rule="evenodd"
            d="M7.15627 17.4062C7.0742 18.427 7.0742 19.4478 7.15627 20.4688C7.1057 20.3567 7.07445 20.2317 7.06252 20.0938C7.02083 19.3229 7.02083 18.5521 7.06252 17.7812C7.07445 17.6433 7.1057 17.5183 7.15627 17.4062Z"
            fill="#A8A8A8" />
        <path fill-rule="evenodd" clip-rule="evenodd"
            d="M11.4062 19.0938C12.5305 19.1035 13.0201 19.666 12.8749 20.7812C12.5044 21.3637 11.9731 21.5824 11.2812 21.4375C10.5869 21.0803 10.3473 20.5282 10.5624 19.7812C10.7709 19.4543 11.0522 19.2251 11.4062 19.0938Z"
            fill="#060606" />
        <path fill-rule="evenodd" clip-rule="evenodd"
            d="M19.9688 19.0938C20.923 19.1417 21.3918 19.6417 21.375 20.5938C21.2915 20.9688 21.0728 21.2292 20.7188 21.375C19.3812 21.6207 18.8291 21.0687 19.0625 19.7188C19.2188 19.5625 19.375 19.4062 19.5313 19.25C19.694 19.2256 19.8399 19.1735 19.9688 19.0938Z"
            fill="#050505" />
        <path fill-rule="evenodd" clip-rule="evenodd"
            d="M16.6562 20.4687C17.242 20.7402 17.7837 21.0735 18.2812 21.4687C16.7809 21.546 15.2809 21.546 13.7812 21.4687C14.1846 20.9439 14.7054 20.5897 15.3438 20.4062C15.7874 20.2377 16.2249 20.2585 16.6562 20.4687Z"
            fill="#2997FD" />
        <path fill-rule="evenodd" clip-rule="evenodd"
            d="M13.7813 21.4688C15.281 21.5461 16.781 21.5461 18.2813 21.4688C18.2961 21.5494 18.2753 21.6119 18.2188 21.6562C18.1815 21.6163 18.1294 21.5955 18.0625 21.5938C17.7486 21.6405 17.4466 21.703 17.1563 21.7812C16.1186 21.8879 15.0874 21.8463 14.0625 21.6562C14.0147 21.6606 13.9835 21.6814 13.9688 21.7188C13.818 21.7066 13.7555 21.6233 13.7813 21.4688Z"
            fill="#ECF5FE" />
        <path fill-rule="evenodd" clip-rule="evenodd"
            d="M18.2188 21.6562C18.1354 21.6979 18.0521 21.7396 17.9688 21.7812C17.7102 21.7521 17.4393 21.7521 17.1562 21.7812C17.4466 21.703 17.7486 21.6405 18.0625 21.5938C18.1294 21.5955 18.1814 21.6163 18.2188 21.6562Z"
            fill="#76BAFE" />
        <path fill-rule="evenodd" clip-rule="evenodd"
            d="M13.9688 21.7188C13.9834 21.6814 14.0147 21.6606 14.0625 21.6562C15.0874 21.8463 16.1186 21.8879 17.1562 21.7812C17.4393 21.7521 17.7102 21.7521 17.9688 21.7812C16.6179 22.5511 15.2845 22.5303 13.9688 21.7188Z"
            fill="#359BFE" />
        <path fill-rule="evenodd" clip-rule="evenodd"
            d="M27.0312 21.7812C27.0409 21.9823 26.9784 22.1489 26.8438 22.2812C26.8831 22.1002 26.9456 21.9335 27.0312 21.7812Z"
            fill="#ABACAC" />
    </g>
    <defs>
        <clipPath id="clip0_1555_45">
            <rect width="32" height="32" fill="white" />
        </clipPath>
    </defs>
</svg>