<svg width="32" height="32" viewBox="0 0 33 33" fill="none" xmlns="http://www.w3.org/2000/svg">
    <path opacity="0.999" fill-rule="evenodd" clip-rule="evenodd"
        d="M27.7225 0.992892C30.053 1.96559 31.4621 3.69704 31.95 6.1872C32.0255 6.66481 32.0761 7.14504 32.1016 7.62796C32.1269 13.2899 32.1269 18.9518 32.1016 24.6137C32.0921 26.3742 31.5486 27.9414 30.4713 29.3152C28.9914 30.9172 27.1525 31.7197 24.9547 31.7227C19.3181 31.748 13.6814 31.748 8.04478 31.7227C5.99193 31.7224 4.24156 31.0083 2.7936 29.5806C1.83701 28.5392 1.25567 27.3133 1.04952 25.9028C0.961334 25.2995 0.910793 24.6928 0.897865 24.0829C0.872587 18.7749 0.872587 13.4668 0.897865 8.15877C0.893876 7.05795 1.05817 5.98372 1.39076 4.93602C2.14389 3.00116 3.48986 1.67414 5.42867 0.954977C5.80588 0.819925 6.19769 0.725138 6.60402 0.670617C7.19545 0.590427 7.78946 0.539887 8.38601 0.518958C13.7952 0.493681 19.2043 0.493681 24.6135 0.518958C25.3 0.538863 25.9824 0.602029 26.6609 0.708532C27.0287 0.768816 27.3826 0.863603 27.7225 0.992892Z"
        fill="#FEFEFE" />
    <path opacity="0.099" fill-rule="evenodd" clip-rule="evenodd"
        d="M5.42891 0.955078C3.4901 1.67424 2.14413 3.00126 1.391 4.93612C1.05841 5.98382 0.894116 7.05805 0.898105 8.15887C0.872827 13.4669 0.872827 18.775 0.898105 24.083C0.911034 24.6929 0.961574 25.2996 1.04976 25.9029C1.25591 27.3134 1.83725 28.5393 2.79384 29.5807C4.2418 31.0084 5.99217 31.7225 8.04502 31.7228C13.6817 31.7481 19.3183 31.7481 24.955 31.7228C27.1527 31.7198 28.9916 30.9173 30.4716 29.3153C31.5489 27.9415 32.0923 26.3743 32.1019 24.6138C32.1272 18.9519 32.1272 13.29 32.1019 7.62806C32.0763 7.14514 32.0258 6.66491 31.9502 6.1873C31.4623 3.69714 30.0532 1.96569 27.7227 0.992993C30.0007 1.7608 31.4731 3.30268 32.1398 5.61858C32.3498 6.4521 32.4636 7.29885 32.481 8.15887C32.5063 13.7197 32.5063 19.2805 32.481 24.8413C32.4821 26.1629 32.2167 27.4267 31.6848 28.6328C30.5814 30.7242 28.8562 31.9565 26.5095 32.3295C25.9688 32.4097 25.4254 32.4602 24.8791 32.4811C19.3057 32.5064 13.7322 32.5064 8.15877 32.4811C6.75979 32.482 5.43278 32.1786 4.17772 31.5712C1.96882 30.2709 0.774496 28.331 0.594788 25.7513C0.556896 25.2211 0.531618 24.6903 0.518958 24.1589C0.493681 19.0404 0.493681 13.9219 0.518958 8.80342C0.506765 7.69983 0.63315 6.61297 0.898105 5.54275C1.61579 3.22636 3.12605 1.69714 5.42891 0.955078Z"
        fill="black" />
    <path fill-rule="evenodd" clip-rule="evenodd"
        d="M16.6514 3.64688C16.7678 3.64867 16.8815 3.66762 16.9927 3.70376C17.3454 3.86061 17.6361 4.09443 17.8647 4.40518C17.9464 4.59396 18.0285 4.78353 18.1112 4.9739C18.1301 5.21371 18.1364 5.45382 18.1301 5.69428C18.1222 5.83157 18.0843 5.95794 18.0164 6.07342C17.919 6.20446 17.8305 6.34349 17.751 6.49049C17.684 6.57659 17.6082 6.65871 17.5235 6.73693C17.3981 6.76169 17.297 6.82486 17.2202 6.9265C17.0632 6.95877 16.9115 7.00302 16.7652 7.05921C16.0342 7.18577 15.4529 6.95828 15.0211 6.37674C14.7293 5.91202 14.6408 5.40651 14.7557 4.86015C14.9755 4.20495 15.4305 3.80685 16.1206 3.66584C16.2971 3.64692 16.474 3.64059 16.6514 3.64688Z"
        fill="#357AB8" />
    <path fill-rule="evenodd" clip-rule="evenodd"
        d="M16.6524 3.64673C16.475 3.64044 16.2981 3.64677 16.1216 3.66569C15.4314 3.80669 14.9764 4.2048 14.7566 4.86C14.7293 4.87585 14.7103 4.9011 14.6998 4.93583C14.6474 5.37507 14.6854 5.80476 14.8135 6.22493C14.8784 6.28377 14.9479 6.33431 15.022 6.37659C15.4538 6.95812 16.0352 7.18561 16.7661 7.05905C16.7241 7.089 16.6735 7.10796 16.6145 7.11592C15.9262 7.10235 15.2437 7.15293 14.5671 7.26758C11.2895 8.07475 9.05249 10.0526 7.85617 13.2012C7.31376 14.9551 7.25689 16.7244 7.68556 18.5093C7.84461 18.9662 8.03418 19.4085 8.25428 19.8363C8.2669 19.9121 8.27956 19.988 8.29219 20.0638C9.77882 22.8955 12.0979 24.5827 15.2495 25.1254C16.1896 25.2237 17.1248 25.1922 18.0552 25.0306C18.5064 24.8985 18.9614 24.7784 19.4201 24.6704C20.7494 24.174 21.9184 23.4346 22.9273 22.4524C23.0258 22.2528 23.1648 22.0885 23.3443 21.9595C23.3759 21.8963 23.4075 21.8332 23.4391 21.7699C23.6667 21.5486 23.8752 21.3084 24.0647 21.0496C24.4543 20.3241 24.8082 19.5785 25.1263 18.8126C25.2212 18.2806 25.3224 17.7498 25.4296 17.2202C25.465 16.7152 25.4902 16.2096 25.5055 15.7036C25.63 15.3045 25.8512 14.9696 26.169 14.6989C26.3512 14.6216 26.5281 14.5332 26.6998 14.4335C27.0785 14.366 27.4576 14.366 27.8372 14.4335C27.9902 14.5607 28.1545 14.6745 28.3301 14.7747C28.4333 14.954 28.566 15.112 28.7282 15.2486C28.8204 15.4529 28.8836 15.6677 28.9178 15.8932C28.9556 16.9553 28.8545 18.0043 28.6145 19.0401C28.6046 19.1204 28.5667 19.1836 28.5007 19.2297C28.4153 19.5969 28.3268 19.9634 28.2353 20.3292C28.212 20.3905 28.1741 20.441 28.1216 20.4808C28.033 20.7464 27.9446 21.0118 27.8562 21.2771C27.5742 21.7739 27.3088 22.2794 27.06 22.7936C26.6942 23.2607 26.3277 23.7283 25.9604 24.1965C25.9478 24.2344 25.9351 24.2723 25.9225 24.3102C25.6759 24.5424 25.4421 24.7889 25.2211 25.0496C25.033 25.1825 24.856 25.3342 24.6903 25.5045C24.6271 25.5361 24.5639 25.5677 24.5007 25.5993C24.2323 25.8465 23.9669 26.0929 23.7045 26.3387C23.4302 26.4986 23.1648 26.6756 22.9083 26.8695C22.5225 27.0154 22.156 27.205 21.8088 27.4382C21.154 27.6901 20.4969 27.9303 19.8372 28.1586C19.0636 28.3487 18.2801 28.5003 17.4865 28.6135C16.7914 28.6388 16.0963 28.6388 15.4012 28.6135C11.0412 28.0962 7.74899 25.9666 5.52442 22.2249C5.44097 22.0831 5.37776 21.9315 5.33485 21.7699C5.20154 21.5601 5.07513 21.3452 4.9557 21.1254C4.82709 20.7293 4.68806 20.3375 4.53864 19.95C4.47009 19.5743 4.3753 19.2078 4.25428 18.8505C4.17864 18.4225 4.10914 17.9928 4.04575 17.5614C4.02679 16.5757 4.02046 15.5899 4.02679 14.6041C4.26561 13.0911 4.7143 11.6504 5.37276 10.2818C5.48973 10.0857 5.61613 9.89613 5.75191 9.71308C5.81852 9.59236 5.8754 9.46595 5.92252 9.33393C6.04783 9.24639 6.13629 9.12635 6.18793 8.97374C6.69939 8.29829 7.24916 7.66008 7.83721 7.05905C7.86402 6.99911 7.8956 6.94224 7.932 6.88844C8.58121 6.41446 9.22576 5.94686 9.86565 5.48559C9.92885 5.47297 9.99202 5.4603 10.0552 5.44768C10.6253 5.01879 11.2572 4.70284 11.951 4.49981C12.0649 4.40487 12.1912 4.32904 12.3301 4.27232C13.5051 3.93113 14.7057 3.71627 15.932 3.62777C16.179 3.59668 16.4191 3.60302 16.6524 3.64673Z"
        fill="#B9D2E7" />
    <path fill-rule="evenodd" clip-rule="evenodd"
        d="M17.8643 4.40527C18.1463 4.74389 18.2537 5.13566 18.1865 5.58063C18.1777 5.62753 18.1588 5.66544 18.1297 5.69437C18.136 5.45392 18.1297 5.2138 18.1107 4.97399C18.0281 4.78362 17.9459 4.59405 17.8643 4.40527Z"
        fill="#A7C5DB" />
    <path fill-rule="evenodd" clip-rule="evenodd"
        d="M14.7554 4.86035C14.6405 5.4067 14.729 5.91222 15.0208 6.37694C14.9467 6.33466 14.8772 6.28412 14.8123 6.22528C14.6841 5.80511 14.6462 5.37542 14.6985 4.93618C14.7091 4.90145 14.728 4.8762 14.7554 4.86035Z"
        fill="#93BADD" />
    <path fill-rule="evenodd" clip-rule="evenodd"
        d="M18.0164 6.07324C17.9758 6.24295 17.8873 6.38198 17.751 6.4903C17.8306 6.34331 17.9191 6.20428 18.0164 6.07324Z"
        fill="#A0BFDA" />
    <path fill-rule="evenodd" clip-rule="evenodd"
        d="M19.2671 10.6988C19.493 10.8377 19.7205 10.9767 19.9495 11.1159C20.2308 11.3148 20.4962 11.5359 20.7458 11.7794C20.9458 11.9727 21.1227 12.1813 21.2766 12.405C21.3352 12.4953 21.3605 12.5964 21.3524 12.7083C21.4147 12.7075 21.4652 12.7328 21.504 12.7841C21.6617 13.0564 21.8259 13.3218 21.9969 13.5803C22.2253 14.0497 22.377 14.5426 22.4519 15.059C22.4875 15.6646 22.5001 16.2712 22.4898 16.8789C22.4869 17.0449 22.468 17.2092 22.433 17.3718C22.3415 17.7886 22.2151 18.1931 22.0538 18.5851C21.8383 18.9656 21.6235 19.3448 21.4093 19.7225C21.2041 19.9212 21.0208 20.136 20.8595 20.3671C20.7062 20.463 20.5671 20.5831 20.4424 20.7273C20.3123 20.7944 20.1859 20.8639 20.0633 20.9358C20.0066 20.9891 19.9687 21.0522 19.9495 21.1254C19.8025 21.2027 19.6636 21.2975 19.5325 21.4097C19.2527 21.5202 18.9873 21.6529 18.7363 21.8078C18.4625 21.8969 18.1845 21.9791 17.9022 22.0543C17.5988 22.1119 17.2954 22.1561 16.9922 22.187C16.2719 22.2336 15.5641 22.1704 14.869 21.9974C13.8981 21.7711 13.0513 21.3161 12.3287 20.6325C12.0209 20.325 11.7302 20.0091 11.4567 19.6846C11.4277 19.5893 11.3709 19.5134 11.286 19.4571C11.1255 19.1361 10.9676 18.8202 10.8121 18.5093C10.6256 18.0136 10.4866 17.5081 10.395 16.9927C10.395 16.9548 10.395 16.9168 10.395 16.8789C10.3682 16.1658 10.4062 15.4581 10.5088 14.7557C10.6356 14.0953 10.8884 13.4887 11.2671 12.9358C11.311 12.8995 11.3553 12.8616 11.3998 12.8221C11.4291 12.8275 11.4543 12.8402 11.4756 12.86C11.5105 12.7614 11.5358 12.6602 11.5514 12.5566C11.7601 12.4552 11.8865 12.2909 11.9306 12.0638C12.1488 11.8448 12.3826 11.6489 12.632 11.4761C12.7462 11.3153 12.8979 11.2015 13.087 11.1348C13.1343 11.0818 13.1722 11.0249 13.2007 10.9642C13.3097 10.8444 13.4488 10.7749 13.6178 10.7557C13.8377 10.5937 14.0778 10.4673 14.3382 10.3766C15.5461 9.95801 16.772 9.90747 18.0159 10.2249C18.4444 10.3637 18.8614 10.5217 19.2671 10.6988Z"
        fill="#337AB8" />
    <path fill-rule="evenodd" clip-rule="evenodd"
        d="M19.2676 10.6992C19.3534 10.7265 19.4419 10.7391 19.533 10.7371C19.533 10.775 19.533 10.813 19.533 10.8509C19.719 10.8739 19.8581 10.9624 19.95 11.1163C19.721 10.9771 19.4935 10.8381 19.2676 10.6992Z"
        fill="#C1D7E6" />
    <path fill-rule="evenodd" clip-rule="evenodd"
        d="M21.2773 12.4053C21.5849 12.7549 21.8251 13.1467 21.9977 13.5806C21.8267 13.3221 21.6624 13.0566 21.5048 12.7844C21.466 12.7331 21.4155 12.7078 21.3532 12.7086C21.3612 12.5967 21.336 12.4956 21.2773 12.4053Z"
        fill="#6C99C0" />
    <path fill-rule="evenodd" clip-rule="evenodd"
        d="M13.2012 10.9639C13.1727 11.0245 13.1348 11.0814 13.0875 11.1345C12.8984 11.2012 12.7467 11.3149 12.6325 11.4757C12.3831 11.6486 12.1492 11.8444 11.9311 12.0634C11.887 12.2905 11.7606 12.4548 11.5519 12.5563C11.5363 12.6599 11.511 12.761 11.4761 12.8596C11.4548 12.8398 11.4295 12.8272 11.4003 12.8217C11.3558 12.8613 11.3115 12.8992 11.2676 12.9354C11.7346 12.1019 12.3792 11.4447 13.2012 10.9639Z"
        fill="#588DBB" />
    <path fill-rule="evenodd" clip-rule="evenodd"
        d="M4.02592 14.6045C4.01959 15.5903 4.02592 16.5761 4.04488 17.5618C4.10828 17.9932 4.17777 18.4229 4.25341 18.8509C4.14528 18.5436 4.06312 18.2276 4.00697 17.9031C3.9755 16.7971 3.98179 15.6976 4.02592 14.6045Z"
        fill="#E1ECF4" />
    <path fill-rule="evenodd" clip-rule="evenodd"
        d="M22.4531 15.0586C22.4822 15.0875 22.5012 15.1254 22.51 15.1723C22.59 15.7482 22.5837 16.3169 22.491 16.8785C22.5014 16.2708 22.4887 15.6642 22.4531 15.0586Z"
        fill="#6C99C3" />
    <path fill-rule="evenodd" clip-rule="evenodd"
        d="M10.5089 14.7559C10.4063 15.4582 10.3684 16.166 10.3952 16.8791C10.2844 16.1861 10.3033 15.491 10.4521 14.7938C10.4666 14.7727 10.4855 14.7601 10.5089 14.7559Z"
        fill="#79A4C9" />
    <path fill-rule="evenodd" clip-rule="evenodd"
        d="M10.3955 16.9922C10.4871 17.5076 10.6261 18.0131 10.8126 18.5088C10.7601 18.4681 10.7158 18.4175 10.6799 18.3571C10.6569 18.1506 10.5937 17.961 10.4903 17.7884C10.4507 17.5236 10.4191 17.2582 10.3955 16.9922Z"
        fill="#B7D0E2" />
    <path fill-rule="evenodd" clip-rule="evenodd"
        d="M11.458 19.6855C11.7316 20.01 12.0223 20.326 12.33 20.6334C12.042 20.4277 11.7829 20.1875 11.5528 19.913C11.528 19.8324 11.4963 19.7565 11.458 19.6855Z"
        fill="#C0D8E8" />
    <path fill-rule="evenodd" clip-rule="evenodd"
        d="M20.8601 20.3672C20.6007 20.6737 20.2974 20.9264 19.9502 21.1255C19.9694 21.0523 20.0073 20.9892 20.0639 20.9359C20.1866 20.8641 20.3129 20.7946 20.4431 20.7274C20.5678 20.5832 20.7068 20.4631 20.8601 20.3672Z"
        fill="#7BA4C8" />
    <path fill-rule="evenodd" clip-rule="evenodd"
        d="M14.8691 21.9971C15.5643 22.1701 16.2721 22.2333 16.9924 22.1866C16.5821 22.2244 16.165 22.237 15.7412 22.2246C15.5401 22.189 15.3379 22.1573 15.1345 22.1298C15.0327 22.1022 14.9442 22.0579 14.8691 21.9971Z"
        fill="#83ABCB" />
    <path fill-rule="evenodd" clip-rule="evenodd"
        d="M18.7365 21.8086C18.6934 21.8455 18.6555 21.8898 18.6227 21.9413C18.2264 22.0611 17.822 22.1623 17.4095 22.2446C16.8468 22.276 16.2907 22.2697 15.7412 22.2257C16.1651 22.2381 16.5821 22.2255 16.9924 22.1877C17.2956 22.1569 17.599 22.1126 17.9023 22.055C18.1847 21.9798 18.4627 21.8977 18.7365 21.8086Z"
        fill="#CEE2EC" />
</svg>