<svg width="32" height="32" viewBox="0 0 32 32" fill="none" xmlns="http://www.w3.org/2000/svg">
    <path opacity="0.999" fill-rule="evenodd" clip-rule="evenodd"
        d="M15.2975 0.0087735C19.3711 -0.115911 22.9874 1.08837 26.1466 3.62161C28.8881 5.90497 30.6939 8.78602 31.5638 12.2648C32.347 15.6719 32.0755 18.9915 30.7494 22.2237C29.2108 25.7537 26.7409 28.4215 23.3398 30.2272C20.0122 31.8989 16.5171 32.3882 12.8543 31.6956C9.12344 30.9063 6.04275 29.0576 3.61217 26.1491C0.884324 22.7356 -0.298503 18.8393 0.0636763 14.4601C0.514219 10.3146 2.2715 6.84717 5.33552 4.05777C8.17752 1.56321 11.4982 0.213535 15.2975 0.0087735Z"
        fill="#172132" />
    <path fill-rule="evenodd" clip-rule="evenodd"
        d="M10.4113 4.47266C10.8039 4.47266 11.1966 4.47266 11.5893 4.47266C11.5844 6.8885 11.5893 9.30191 11.6038 11.7129C12.3418 11.2834 13.1174 10.9369 13.9307 10.6734C16.3009 10.0361 18.5599 10.3075 20.7077 11.4875C20.8677 11.5772 21.0229 11.6741 21.1731 11.7783C20.4695 12.8627 19.7642 13.9459 19.0571 15.0277C17.7725 14.2269 16.3982 14.0258 14.9341 14.4243C13.4582 14.8967 12.4378 15.8537 11.8728 17.2957C11.3077 19.0482 11.6083 20.6329 12.7745 22.0498C14.0466 23.4096 15.6002 23.9064 17.4355 23.54C19.0537 23.1338 20.1615 22.1524 20.7586 20.5959C20.9971 19.9782 21.1184 19.3385 21.1222 18.6769C21.1101 18.6453 21.0883 18.6235 21.0568 18.6114C20.5041 18.6066 19.9515 18.6017 19.3989 18.5969C19.319 18.5608 19.2875 18.5002 19.3043 18.4152C20.5091 16.5493 21.7209 14.6883 22.9401 12.8323C23.0118 12.7753 23.0845 12.7753 23.1582 12.8323C24.3569 14.6812 25.559 16.5276 26.7649 18.3715C26.8132 18.4756 26.7864 18.5508 26.6849 18.5969C26.1516 18.6017 25.6185 18.6066 25.0852 18.6114C25.0591 18.6228 25.0373 18.6398 25.0197 18.6623C25.0151 20.3722 24.5788 21.9617 23.7109 23.431C22.37 25.5305 20.4769 26.8462 18.0318 27.3782C15.5732 27.8248 13.3238 27.3354 11.2838 25.9098C9.11416 24.2838 7.93376 22.1103 7.74262 19.3892C7.74019 18.9458 7.73778 18.5024 7.73535 18.059C7.76945 13.5302 7.80823 9.00137 7.8517 4.47266C8.70489 4.47266 9.55807 4.47266 10.4113 4.47266Z"
        fill="#46DFC1" />
</svg>