<svg width="32" height="32" viewBox="0 0 32 32" fill="none" xmlns="http://www.w3.org/2000/svg">
    <rect width="32" height="32" fill="#FAFAFA" />
    <path
        d="M9.6 5.40013C6.8 6.00013 6 8.40013 6 16.2001C6 21.6001 6.8 26.0001 7.8 26.0001C8.8 26.0001 9.2 24.4001 8.8 22.4001C8 19.8001 9.2 18.8001 14.8 18.6001C24.2 17.8001 25.8 21.2001 17.6 24.8001C14 26.4001 12.2 27.8001 13.6 27.8001C17.4 28.0001 28 22.2001 28 19.8001C28 18.8001 25.2 17.4001 22 16.6001L15.8 15.4001L20 11.6001C26.6 5.40013 21.4 2.20013 9.6 5.40013ZM20 7.80013C20 9.40013 11.4 16.0001 9 16.0001C6.4 16.0001 8.4 10.0001 11.6 8.20013C15.8 5.60013 20 5.40013 20 7.80013Z"
        fill="black" />
</svg>