<svg width="32" height="32" viewBox="0 0 33 33" fill="none" xmlns="http://www.w3.org/2000/svg">
    <path opacity="0.99" fill-rule="evenodd" clip-rule="evenodd"
        d="M3.30975 0.5C12.1553 0.5 21.0007 0.5 29.8463 0.5C31.1001 0.741074 31.9586 1.48035 32.4219 2.71782C32.526 11.9587 32.526 21.1997 32.4219 30.4406C32.0407 31.488 31.3383 32.1745 30.3146 32.5C21.1049 32.5 11.8951 32.5 2.68536 32.5C1.56681 31.9986 0.838361 31.1538 0.5 29.9653C0.5 21.0413 0.5 12.1172 0.5 3.19307C0.702559 2.54485 1.01475 1.93759 1.43658 1.37129C2.01841 0.943347 2.6428 0.652918 3.30975 0.5Z"
        fill="#6887F4" />
    <path fill-rule="evenodd" clip-rule="evenodd"
        d="M18.7636 19.0351C17.8144 19.4826 16.8778 19.4563 15.9539 18.9559C15.1419 18.1052 14.3094 17.2868 13.4563 16.5004C11.1679 14.1515 8.90445 11.7753 6.66609 9.3717C6.11975 6.33539 7.34251 5.09447 10.3344 5.64893C13.53 8.73349 16.6779 11.8754 19.7783 15.0747C20.4735 16.6788 20.1354 17.9989 18.7636 19.0351Z"
        fill="#FAFAFA" />
    <path fill-rule="evenodd" clip-rule="evenodd"
        d="M24.0709 13.6484C26.8928 13.7385 27.9594 15.1643 27.2709 17.9257C26.4342 19.2128 25.2635 19.6616 23.7587 19.2722C22.0089 18.252 21.5666 16.7998 22.4319 14.9158C22.8908 14.3555 23.4372 13.933 24.0709 13.6484Z"
        fill="#414EAC" />
    <path fill-rule="evenodd" clip-rule="evenodd"
        d="M13.4559 16.5C14.3089 17.2864 15.1414 18.1048 15.9535 18.9554C16.8774 19.4559 17.814 19.4822 18.7632 19.0347C16.1411 21.7751 13.4874 24.4945 10.8023 27.1931C9.28207 28.0951 7.95524 27.8575 6.82177 26.4802C6.25328 25.3377 6.30531 24.2288 6.97787 23.1535C9.16873 20.9566 11.3281 18.7387 13.4559 16.5Z"
        fill="#BDDDED" />
</svg>