<svg width="32" height="32" viewBox="0 0 32 32" fill="none" xmlns="http://www.w3.org/2000/svg">
    <rect width="32" height="32" fill="#FAFAFA" />
    <path fill-rule="evenodd" clip-rule="evenodd"
        d="M3.14258 0.0178028C5.81094 -0.0297015 8.47761 0.0178627 11.1426 0.160501C12.5712 0.3744 13.9045 0.850063 15.1426 1.58749C17.6444 4.07375 18.5491 7.07041 17.8569 10.5775C17.6096 12.4999 16.7048 14.022 15.1426 15.1438C16.1088 15.7773 16.8231 16.6335 17.2854 17.7124C18.1897 20.9276 18.1897 24.1621 17.2854 27.4159C15.997 30.2747 13.7589 31.7491 10.5711 31.8395C8.09678 31.9822 5.6206 32.0296 3.14258 31.9822C3.14258 21.3274 3.14258 10.6726 3.14258 0.0178028Z"
        fill="#111111" />
    <path fill-rule="evenodd" clip-rule="evenodd"
        d="M7.71387 4.29836C12.3261 3.72066 14.2785 5.71844 13.571 10.2917C13.4674 11.5626 12.8484 12.4664 11.7139 13.003C10.3839 13.1454 9.05058 13.193 7.71387 13.1457C7.71387 10.1966 7.71387 7.24745 7.71387 4.29836Z"
        fill="#FAFAFA" />
    <path fill-rule="evenodd" clip-rule="evenodd"
        d="M7.71387 17.1413C11.8865 16.1769 13.8865 17.7941 13.7139 21.993C13.9853 26.2877 11.9853 28.0954 7.71387 27.4156C7.71387 23.9908 7.71387 20.566 7.71387 17.1413Z"
        fill="#FAFAFA" />
    <path fill-rule="evenodd" clip-rule="evenodd"
        d="M27.4287 1.44424C27.965 1.03659 28.3461 1.17929 28.5716 1.87233C28.4764 2.01503 28.381 2.15773 28.2859 2.30043C27.933 2.06076 27.6473 1.77536 27.4287 1.44424Z"
        fill="#FF4A46" />
    <path fill-rule="evenodd" clip-rule="evenodd"
        d="M26.5717 1.15918C27.1946 1.5962 27.4803 2.21456 27.4289 3.01426C27.1354 6.12788 25.5163 8.17323 22.5717 9.15029C22.2443 8.96624 21.9586 8.72839 21.7146 8.4368C24.198 7.62199 25.7217 5.95718 26.286 3.44235C24.4766 3.44235 22.6669 3.44235 20.8574 3.44235C20.8574 3.06183 20.8574 2.68129 20.8574 2.30077C22.7646 2.34821 24.6694 2.30065 26.5717 2.15807C26.2334 1.83115 26.2334 1.49819 26.5717 1.15918Z"
        fill="#FF4642" />
    <path fill-rule="evenodd" clip-rule="evenodd"
        d="M21.4287 13.4316C23.7144 13.4316 26.0001 13.4316 28.2859 13.4316C28.2859 15.6197 28.2859 17.8077 28.2859 19.9958C26.0001 19.2347 23.7144 19.2347 21.4287 19.9958C21.4287 17.8077 21.4287 15.6197 21.4287 13.4316Z"
        fill="#FF4744" />
    <path fill-rule="evenodd" clip-rule="evenodd"
        d="M22.5713 14.2881C24.095 14.2881 25.619 14.2881 27.1427 14.2881C27.1427 15.6199 27.1427 16.9518 27.1427 18.2836C25.619 18.2836 24.095 18.2836 22.5713 18.2836C22.5713 16.9518 22.5713 15.6199 22.5713 14.2881Z"
        fill="#FFFAFA" />
    <path fill-rule="evenodd" clip-rule="evenodd"
        d="M29.1429 23.9912C29.1429 24.0863 29.1429 24.1814 29.1429 24.2766C28.5457 24.2908 28.1649 24.0054 28 23.4204C28.1434 23.129 28.3337 23.0814 28.5714 23.2777C28.7331 23.5615 28.9237 23.7994 29.1429 23.9912Z"
        fill="#FF4641" />
    <path fill-rule="evenodd" clip-rule="evenodd"
        d="M23.7146 23.4199C24.6057 23.4449 24.8914 23.8254 24.5717 24.5615C25.4083 24.8424 26.2654 24.9375 27.1431 24.8469C26.74 23.2023 27.0257 23.0596 28.0003 24.4188C27.5786 27.7508 25.7689 30.0814 22.5717 31.411C22.2443 31.227 21.9586 30.9892 21.7146 30.6975C24.0314 29.8579 25.6506 28.2882 26.5717 25.9885C25.6334 25.6583 24.6809 25.6107 23.7146 25.8458C23.0954 26.6544 22.3811 27.3679 21.5717 27.9863C21.3337 27.7484 21.0954 27.5106 20.8574 27.2728C22.2026 26.2644 23.1549 24.9801 23.7146 23.4199Z"
        fill="#FF4441" />
</svg>