<?xml version="1.0" encoding="UTF-8" standalone="no"?>
<!DOCTYPE svg PUBLIC "-//W3C//DTD SVG 1.1//EN" "http://www.w3.org/Graphics/SVG/1.1/DTD/svg11.dtd">
<svg width="100%" height="100%" viewBox="0 0 342 117" version="1.1" xmlns="http://www.w3.org/2000/svg" xmlns:xlink="http://www.w3.org/1999/xlink" xml:space="preserve" xmlns:serif="http://www.serif.com/" style="fill-rule:evenodd;clip-rule:evenodd;stroke-linejoin:round;stroke-miterlimit:2;">
    <g id="Artboard1" transform="matrix(0.965624,0,0,0.856105,-119.546,-202.559)">
        <rect x="123.801" y="236.606" width="353.753" height="135.748" style="fill:none;"/>
        <g transform="matrix(1.0356,0,0,1.16808,-7.42677,-43.9858)">
            <path d="M170.4,269.5C159.7,269.5 151.6,272 146.1,276.9L146.1,249.9C146.1,247.5 145.2,245.3 143.5,243.6C141.7,241.9 139.7,241 137.3,241L137,241C134.6,241 132.5,241.9 130.8,243.6C129,245.4 128.2,247.5 128.2,249.9L128.2,312.1C128.2,323.8 132.4,333.7 140.7,341.9C148.9,350.1 158.9,354.2 170.5,354.2C182.1,354.2 192.1,350.1 200.4,341.8C208.7,333.5 212.8,323.5 212.8,311.9C212.8,300.2 208.7,290.3 200.4,282C192.1,273.7 182.1,269.5 170.4,269.5ZM187.6,329.3C182.8,334.1 177.1,336.4 170.4,336.4C163.6,336.4 157.9,334 153.1,329.3C148.4,324.5 146,318.8 146,312.1C146,305.3 148.4,299.6 153.1,294.8C157.9,290 163.6,287.7 170.4,287.7C177.1,287.7 182.8,290.1 187.6,294.8C192.4,299.6 194.7,305.3 194.7,312.1C194.8,318.8 192.4,324.6 187.6,329.3ZM344.3,269.5L340.1,269.5C331.1,269.5 323.5,272.7 317.2,279C311,285.3 307.8,293 307.7,301.9L307.7,345.3C307.7,347.8 308.6,349.9 310.3,351.5C312.1,353.3 314.1,354.1 316.5,354.1L316.7,354.1C319.1,354.1 321.2,353.2 322.9,351.5C324.7,349.8 325.5,347.8 325.5,345.3L325.5,302C325.5,298 326.9,294.6 329.7,291.8C332.5,289 335.9,287.6 339.9,287.6L344.1,287.6C346.5,287.6 348.7,286.7 350.4,285C352.1,283.3 353,281.2 353,278.8L353,278.7C353,276.3 352.1,274.1 350.4,272.4C348.9,270.4 346.8,269.5 344.3,269.5ZM458.3,287.6C460.7,287.6 462.8,286.7 464.5,285C466.3,283.3 467.1,281.3 467.1,278.8L467.1,278.7C467.1,276.3 466.2,274.1 464.5,272.4C462.7,270.6 460.7,269.8 458.3,269.8L446.3,269.8L446.3,250.2C446.3,247.8 445.4,245.6 443.7,243.9C441.9,242.2 439.9,241.3 437.5,241.3L437.3,241.3C434.9,241.3 432.8,242.2 431.1,243.9C429.3,245.7 428.5,247.8 428.5,250.2L428.5,269.8L386.5,269.8C379.4,269.8 373.4,272.3 368.3,277.4C363.3,282.4 360.8,288.4 360.8,295.5C360.8,302.8 362.8,308.4 366.9,312.3C369.7,315.1 374.1,317.3 379.9,319.1C387.4,321.2 391.5,322.4 392.2,322.8C395,324.2 396.4,326.2 396.4,328.9C396.4,331.1 395.7,332.9 394.2,334.3C392.7,335.8 390.9,336.5 388.8,336.5L368.9,336.5C366.5,336.5 364.4,337.4 362.7,339.1C360.9,340.9 360.1,343 360.1,345.4L360.1,345.5C360.1,348 361,350.1 362.7,351.7C364.5,353.5 366.5,354.3 368.9,354.3L388.1,354.3C395.2,354.3 401.2,351.8 406.3,346.8C411.3,341.8 413.8,335.7 413.8,328.6C413.8,321.4 411.8,315.9 407.7,312.1C404.9,309.4 400.5,307.2 394.7,305.6C387.5,303.7 383.4,302.5 382.4,301.9C379.6,300.4 378.1,298.2 378.1,295.3C378.1,293.2 378.8,291.4 380.3,289.9C381.8,288.4 383.6,287.7 385.7,287.7L428.5,287.7L428.5,331.3C428.5,337.6 430.8,343.1 435.3,347.6C439.9,352.1 445.3,354.4 451.7,354.4L458.6,354.4C461,354.4 463.1,353.5 464.8,351.8C466.6,350.1 467.4,348.1 467.4,345.6L467.4,345.5C467.4,343.1 466.5,340.9 464.8,339.2C463,337.4 461,336.6 458.6,336.6L451.7,336.6C450.2,336.6 449,336.1 448,335.1C447,334.1 446.5,332.9 446.5,331.5L446.5,287.9L458.3,287.9L458.3,287.6Z" style="fill:url(#_Linear1);fill-rule:nonzero;"/>
        </g>
        <g transform="matrix(1.0356,0,0,1.16808,-7.42677,-43.9858)">
            <path d="M234.2,298C239.1,298 243.2,294 243.2,289L243.2,278.5C243.2,273.6 239.2,269.5 234.2,269.5C229.3,269.5 225.2,273.5 225.2,278.5L225.2,289C225.2,294 229.2,298 234.2,298ZM286.8,297.4C281.8,297.4 277.8,301.4 277.8,306.4L277.8,319.4C277.6,328.7 269.9,336.3 260.5,336.3C250.9,336.3 243.2,328.5 243.2,319L243.2,316.4C243.2,311.4 239.2,307.4 234.2,307.4C229.2,307.4 225.2,311.4 225.2,316.4L225.2,319C225.2,338.5 241.1,354.3 260.5,354.3C280,354.3 295.8,338.4 295.8,319L295.8,306.5C295.8,301.4 291.8,297.4 286.8,297.4ZM291.6,269.5L281.1,269.5C276.2,269.5 272.1,273.5 272.1,278.5C272.1,283.4 276.1,287.5 281.1,287.5L291.6,287.5C296.5,287.5 300.6,283.5 300.6,278.5C300.6,273.6 296.6,269.5 291.6,269.5Z" style="fill-rule:nonzero;"/>
        </g>
    </g>
    <defs>
        <linearGradient id="_Linear1" x1="0" y1="0" x2="1" y2="0" gradientUnits="userSpaceOnUse" gradientTransform="matrix(339.079,0,0,339.079,128.098,297.638)"><stop offset="0" style="stop-color:rgb(77,170,87);stop-opacity:1"/><stop offset="0.01" style="stop-color:rgb(77,170,87);stop-opacity:1"/><stop offset="1" style="stop-color:rgb(18,138,31);stop-opacity:1"/></linearGradient>
    </defs>
</svg>
