<svg width="32" height="32" viewBox="0 0 32 32" fill="none" xmlns="http://www.w3.org/2000/svg">
    <path fill-rule="evenodd" clip-rule="evenodd"
        d="M0 19.7778V10.7267C0.0027827 9.49929 0.48383 8.32291 1.33791 7.45494C2.19199 6.58698 3.34958 6.09809 4.55746 6.09521H27.4425C28.0407 6.09536 28.6331 6.21554 29.1855 6.44886C29.738 6.68219 30.2397 7.02406 30.6618 7.45487V7.4599C31.0855 7.88817 31.4217 8.3972 31.6513 8.9578C31.8809 9.51838 31.9994 10.1195 32 10.7267V19.7778C31.9967 21.005 31.5155 22.1811 30.6615 23.0489C29.8075 23.9167 28.6502 24.4056 27.4425 24.4089H27.2655C26.9847 24.9599 26.5301 25.3991 25.9744 25.656C25.4187 25.913 24.7942 25.9729 24.201 25.8261C23.6078 25.6793 23.0803 25.3343 22.7031 24.8464C22.3259 24.3585 22.1209 23.7561 22.1209 23.1357C22.1209 22.5152 22.3259 21.9128 22.7031 21.425C23.0803 20.9371 23.6078 20.5921 24.201 20.4453C24.7942 20.2985 25.4187 20.3584 25.9744 20.6153C26.5301 20.8723 26.9847 21.3115 27.2655 21.8625H27.4425C27.9857 21.8596 28.5059 21.6391 28.8901 21.2487C29.2742 20.8584 29.4914 20.3298 29.4943 19.7778V19.3406L29.494 17.797C29.494 15.6313 28.2332 14.2366 25.9335 14.2366H5.68427C4.00205 14.2366 4.00062 11.6313 5.68427 11.6313H25.9335C27.439 11.6313 28.605 11.9367 29.4943 12.46V10.7267C29.4942 10.4529 29.4411 10.1818 29.3378 9.92889C29.2346 9.67597 29.0833 9.44619 28.8927 9.2527L28.8904 9.25504C28.7007 9.06096 28.4751 8.90686 28.2266 8.8016C27.9782 8.69633 27.7117 8.64198 27.4425 8.64165H4.55746C4.01404 8.64415 3.49358 8.86464 3.10933 9.25512C2.72507 9.64562 2.50811 10.1745 2.50566 10.7267V19.7778C2.50829 20.3299 2.72531 20.8586 3.10954 21.2491C3.49377 21.6394 4.01413 21.8599 4.55746 21.8625H7.2449C7.52562 21.3116 7.98026 20.8724 8.5359 20.6155C9.09154 20.3586 9.71606 20.2987 10.3091 20.4455C10.9023 20.5923 11.4298 20.9373 11.8069 21.4251C12.184 21.9129 12.3891 22.5153 12.3891 23.1357C12.3891 23.7561 12.184 24.3585 11.8069 24.8463C11.4298 25.3341 10.9023 25.6791 10.3091 25.8259C9.71606 25.9727 9.09154 25.9129 8.5359 25.6559C7.98026 25.3989 7.52562 24.9598 7.2449 24.4089H4.55746C3.34966 24.4059 2.19216 23.9171 1.33809 23.0493C0.484037 22.1814 0.00293097 21.0051 0 19.7778ZM21.11 21.8625H13.3303C13.6066 22.6881 13.6066 23.5834 13.3303 24.4089H21.1104C20.8384 23.5826 20.8382 22.6888 21.11 21.8625Z"
        fill="#FB7743" />
</svg>