<svg width="32" height="32" viewBox="0 0 32 32" fill="none" xmlns="http://www.w3.org/2000/svg">
    <path fill-rule="evenodd" clip-rule="evenodd"
        d="M0 0C10.6666 0 21.3333 0 32 0C32 10.6667 32 21.3333 32 32C21.3333 32 10.6666 32 0 32C0 21.3333 0 10.6667 0 0Z"
        fill="#FEFEFE" />
    <path fill-rule="evenodd" clip-rule="evenodd"
        d="M18.7956 0.320312C19.1257 0.320312 19.4558 0.320312 19.7859 0.320312C20.8283 1.05748 21.9287 1.75081 23.0869 2.40031C21.0998 2.62216 19.1192 2.88883 17.145 3.20031C15.7032 2.87483 14.3828 2.28817 13.1838 1.44031C15.0935 1.04885 16.964 0.675513 18.7956 0.320312Z"
        fill="#ED8B10" />
    <path fill-rule="evenodd" clip-rule="evenodd"
        d="M4.60108 5.11992C4.381 12.5866 4.16095 20.0533 3.94088 27.5199C2.95057 26.8799 1.96027 26.2399 0.969968 25.5999C0.863435 18.0026 0.973469 10.4293 1.30007 2.87992C3.6826 2.69474 6.04834 2.37474 8.39724 1.91992C9.44828 2.34895 10.4936 2.82895 11.5332 3.35992C11.9076 3.68504 11.7975 3.89839 11.2031 3.99992C8.94336 4.30383 6.74271 4.67717 4.60108 5.11992Z"
        fill="#EC8A02" />
    <path fill-rule="evenodd" clip-rule="evenodd"
        d="M0.639893 2.87891C0.85996 2.87891 1.08003 2.87891 1.30009 2.87891C0.973494 10.4283 0.86346 18.0016 0.969993 25.5989C0.85996 25.5989 0.749926 25.5989 0.639893 25.5989C0.639893 18.0256 0.639893 10.4523 0.639893 2.87891Z"
        fill="#FAFAFA" />
    <path fill-rule="evenodd" clip-rule="evenodd"
        d="M25.7277 4.16016C27.689 4.71072 29.5045 5.56406 31.1743 6.72016C31.3394 14.2927 31.3944 21.8661 31.3394 29.4402C29.2296 29.6566 27.139 29.9766 25.0675 30.4002C24.7925 22.8291 24.6274 15.2557 24.5723 7.68016C23.0869 6.88016 21.6014 6.08016 20.116 5.28016C22.0256 4.8887 23.8961 4.51536 25.7277 4.16016Z"
        fill="#EC8A01" />
    <path fill-rule="evenodd" clip-rule="evenodd"
        d="M4.60112 5.12109C4.71108 12.6974 4.60102 20.2708 4.27102 27.8411C4.07076 27.8015 3.96072 27.6949 3.94092 27.5211C4.161 20.0544 4.38104 12.5877 4.60112 5.12109Z"
        fill="#FAFAFA" />
    <path fill-rule="evenodd" clip-rule="evenodd"
        d="M14.5043 5.75977C16.5899 6.20962 18.5155 7.06297 20.281 8.31977C20.4461 15.8923 20.5011 23.4657 20.4461 31.0398C17.9586 31.2547 15.4828 31.5747 13.0188 31.9998C11.1406 31.4094 9.38003 30.5561 7.73719 29.4398C7.57214 21.8672 7.51714 14.2938 7.57214 6.71977C9.95081 6.55973 12.2615 6.23973 14.5043 5.75977Z"
        fill="#EC8A00" />
</svg>