<svg width="32" height="32" viewBox="0 0 32 32" fill="none" xmlns="http://www.w3.org/2000/svg">
    <g clip-path="url(#clip0_2336_800)">
        <path
            d="M12.1377 17.0314C13.9173 17.0314 15.36 15.5887 15.36 13.8091C15.36 12.0296 13.9173 10.5869 12.1377 10.5869C10.3582 10.5869 8.91553 12.0296 8.91553 13.8091C8.91553 15.5887 10.3582 17.0314 12.1377 17.0314Z"
            fill="#FDFEFE" />
        <path d="M1.90674 7.07066L25.2001 2.43066L26.729 9.40844L2.80452 12.0573L1.90674 7.55511"
            fill="#28A8E0" />
        <path d="M1.90674 13.0131L3.61341 22.4576L27.3601 20.0265L25.3823 10.582L1.90674 13.0131Z"
            fill="#F7CB33" />
        <path d="M5.05322 23.1686L28.7066 20.373L30.0577 26.2175L6.49322 31.613L5.05322 23.7908"
            fill="#EE307B" />
        <path d="M4.95996 8.0041L22.8177 6.42188L23.5333 26.9685L8.00441 28.1197L4.95996 8.0041Z"
            fill="#FCFCFC" />
        <path
            d="M17.9512 9.39136C18.0356 9.45803 18.1067 9.50692 18.169 9.56469C18.3734 9.76025 18.4267 10.0758 18.3023 10.3291C18.1867 10.5603 17.929 10.7025 17.6845 10.6714C17.409 10.6358 17.1867 10.4136 17.1423 10.1291C17.1112 9.94247 17.1645 9.76914 17.2845 9.63136C17.3734 9.52914 17.3912 9.42247 17.3823 9.29358C17.3334 8.62692 17.2845 7.96025 17.2356 7.29803C17.2045 6.87581 17.169 6.45358 17.1378 6.03581C17.0978 5.49358 17.0623 4.94692 17.0134 4.40469C16.8623 2.64025 15.4845 1.30247 13.9334 1.05358C12.1645 0.773583 10.3201 1.90247 9.83118 3.86692C9.70229 4.38247 9.71562 4.90247 9.75562 5.42692C9.8134 6.18247 9.87118 6.93358 9.92451 7.68914C9.97784 8.38692 10.0223 9.08914 10.0756 9.78692C10.0801 9.87581 10.0978 9.9647 10.1112 10.058C10.1823 10.1203 10.2623 10.178 10.329 10.2536C10.5512 10.498 10.5601 10.8536 10.3512 11.1025C10.1378 11.3603 9.76007 11.3958 9.50673 11.1914C9.25784 10.9914 9.19562 10.6314 9.36451 10.3514C9.38673 10.3158 9.4134 10.2758 9.44451 10.2447C9.53784 10.1603 9.53784 10.058 9.52896 9.93803C9.44451 8.84025 9.36896 7.74247 9.28896 6.64469C9.25784 6.23581 9.22673 5.82247 9.19118 5.41358C9.12896 4.67581 9.15562 3.94247 9.43118 3.24469C10.0534 1.68025 11.169 0.733583 12.8001 0.471361C14.8623 0.142472 16.929 1.51581 17.4712 3.68469C17.5645 4.06247 17.5956 4.45358 17.6223 4.84025C17.7067 5.97358 17.7912 7.10247 17.8712 8.23581C17.8978 8.62247 17.9245 9.01358 17.9512 9.39136Z"
            fill="black" stroke="white" stroke-width="4" />
        <path
            d="M18.0132 9.39136C18.0977 9.45803 18.1688 9.50692 18.231 9.56469C18.4355 9.76025 18.4888 10.0758 18.3644 10.3291C18.2488 10.5603 17.991 10.7025 17.7466 10.6714C17.471 10.6358 17.2488 10.4136 17.2044 10.1291C17.1732 9.94247 17.2266 9.76914 17.3466 9.63136C17.4355 9.52914 17.4532 9.42247 17.4444 9.29358C17.3955 8.62692 17.3466 7.96025 17.2977 7.29803C17.2666 6.87581 17.231 6.45358 17.1999 6.03581C17.1599 5.49358 17.1244 4.94692 17.0755 4.40469C16.9244 2.64025 15.5466 1.30247 13.9955 1.05358C12.2221 0.769139 10.3777 1.89803 9.88879 3.86692C9.75991 4.38247 9.77324 4.90247 9.81324 5.42692C9.87102 6.18247 9.9288 6.93358 9.98213 7.68914C10.0355 8.38692 10.0799 9.08914 10.1332 9.78692C10.1377 9.87581 10.1555 9.9647 10.1688 10.058C10.2399 10.1203 10.3199 10.178 10.3866 10.2536C10.6088 10.498 10.6177 10.8536 10.4088 11.1025C10.1955 11.3603 9.81768 11.3958 9.56435 11.1914C9.31546 10.9914 9.25324 10.6314 9.42213 10.3514C9.44435 10.3158 9.47102 10.2758 9.50213 10.2447C9.59546 10.1603 9.59546 10.058 9.58657 9.93803C9.50213 8.84025 9.42657 7.74247 9.34657 6.64469C9.31546 6.23581 9.28435 5.82247 9.2488 5.41358C9.18657 4.67581 9.21324 3.94247 9.48879 3.24469C10.111 1.68025 11.2266 0.733583 12.8577 0.471361C14.9199 0.142472 16.9866 1.51581 17.5288 3.68469C17.6221 4.06247 17.6532 4.45358 17.6799 4.84025C17.7643 5.97358 17.8488 7.10247 17.9288 8.23581C17.9599 8.62247 17.9866 9.01358 18.0132 9.39136Z"
            fill="black" />
        <path d="M7.84448 20.6621L8.83115 27.0266L22.1556 25.9866L9.4267 26.2221L7.84448 20.6621Z"
            fill="#0F0F0F" />
        <path
            d="M12.8311 21.8976C12.7733 22.1731 12.7333 22.3687 12.5955 22.6842C12.32 23.4131 11.9067 23.7064 11.2578 23.7064C10.8622 23.7064 10.5289 23.5287 10.5511 23.4709L13.1867 11.0309C13.3244 10.342 13.5822 10.1064 14.0711 10.1064H14.3067C14.8178 10.1064 15.2889 10.3242 15.1511 11.0309L14.1689 15.6576C14.9555 14.5553 16 13.9242 17.4355 13.9242C19.4444 13.9242 21.2533 15.3598 21.2533 18.0576C21.2533 20.9909 19.2044 23.862 16.1778 23.862C14.64 23.8664 13.4178 23.0976 12.8311 21.8976ZM19.3022 18.2176C19.3022 16.5242 18.2 15.542 16.88 15.542C15.6 15.542 14.4578 16.3287 13.7689 17.4531L13.4355 19.1064C13.12 20.7598 14.1244 22.2531 16.0133 22.2531C18.1244 22.2531 19.3022 20.2264 19.3022 18.2176Z"
            fill="black" stroke="black" stroke-width="0.75" stroke-miterlimit="10" />
    </g>
    <defs>
        <clipPath id="clip0_2336_800">
            <rect width="32" height="32" fill="white" />
        </clipPath>
    </defs>
</svg>