<svg width="32" height="32" viewBox="0 0 32 32" fill="none" xmlns="http://www.w3.org/2000/svg">
    <g clip-path="url(#clip0_3664_377)">
        <path fill-rule="evenodd" clip-rule="evenodd"
            d="M-0.0712891 15.9287C-0.0712891 7.09216 7.09216 -0.0712891 15.9287 -0.0712891V-0.0712891C24.7653 -0.0712891 31.9287 7.09216 31.9287 15.9287V15.9287C31.9287 24.7653 24.7653 31.9287 15.9287 31.9287V31.9287C7.09216 31.9287 -0.0712891 24.7653 -0.0712891 15.9287V15.9287Z"
            fill="#FFA408" />
        <path fill-rule="evenodd" clip-rule="evenodd"
            d="M7.75102 9.03135C13.2031 9.00764 18.6549 9.03135 24.1066 9.10246C24.2481 12.7185 24.2954 16.3453 24.2488 19.9825C21.7357 19.9587 19.2232 19.9825 16.711 20.0536C15.2414 20.978 13.7718 21.9025 12.3021 22.8269C12.1058 22.7558 12.011 22.6136 12.0177 22.4002C12.1407 21.5973 12.2355 20.7913 12.3021 19.9825C10.7377 19.9825 9.17324 19.9825 7.6088 19.9825C7.56278 16.3215 7.61019 12.6711 7.75102 9.03135Z"
            fill="#262223" />
        <path fill-rule="evenodd" clip-rule="evenodd"
            d="M8.17773 9.74219C13.3451 9.74219 18.5126 9.74219 23.68 9.74219C23.68 12.9659 23.68 16.1895 23.68 19.4133C21.3091 19.3895 18.9387 19.4133 16.5688 19.4844C15.3007 20.2489 14.0443 21.0311 12.8 21.8311C12.7845 21.1871 12.8556 20.5471 13.0133 19.9111C13.0012 19.7536 12.9538 19.6114 12.8711 19.4844C11.3073 19.4133 9.74289 19.3895 8.17773 19.4133C8.17773 16.1895 8.17773 12.9659 8.17773 9.74219Z"
            fill="#FCFCFC" />
    </g>
    <defs>
        <clipPath id="clip0_3664_377">
            <rect width="32" height="32" fill="white" />
        </clipPath>
    </defs>
</svg>