<svg width="32" height="32" viewBox="0 0 32 32" fill="none" xmlns="http://www.w3.org/2000/svg">
    <g clip-path="url(#clip0_1748_598)">
        <path fill-rule="evenodd" clip-rule="evenodd"
            d="M26.3064 4.78586L26.0192 4.59315C25.1324 3.96912 24.1731 3.45666 23.1626 3.06722C16.7314 0.578193 9.47044 3.34033 6.2949 9.50741C6.10342 9.86093 5.7363 10.5996 5.62471 10.8728C5.60788 10.9356 5.58089 10.9952 5.54482 11.0493C5.27366 11.4989 4.7309 11.6757 4.2522 11.4989C3.67775 11.2741 3.4702 10.6639 3.69359 10.0696C6.18287 3.59727 12.8216 -0.64273 19.8752 0.0800332L20.0189 0.176387L19.8913 0.0800332C21.2794 0.224674 22.6359 0.561802 23.9287 1.05974C25.2691 1.57363 26.514 2.28022 27.6629 3.13168C28.0619 3.51709 28.1097 4.11116 27.7905 4.56103C27.4395 5.02663 26.7851 5.13915 26.3064 4.78586Z"
            fill="#FF4800" />
        <mask id="mask0_1748_598" style="mask-type:luminance" maskUnits="userSpaceOnUse" x="3" y="0"
            width="25" height="12">
            <path
                d="M26.3064 4.78586L26.0192 4.59315C25.1324 3.96912 24.1731 3.45666 23.1626 3.06722C16.7314 0.578193 9.47044 3.34033 6.2949 9.50741C6.10342 9.86093 5.7363 10.5996 5.62471 10.8728C5.60788 10.9356 5.58089 10.9952 5.54482 11.0493C5.27366 11.4989 4.7309 11.6757 4.2522 11.4989C3.67775 11.2741 3.4702 10.6639 3.69359 10.0696C6.18287 3.59727 12.8216 -0.64273 19.8752 0.0800332L20.0189 0.176387L19.8913 0.0800332C21.2794 0.224674 22.6359 0.561802 23.9287 1.05974C25.2691 1.57363 26.514 2.28022 27.6629 3.13168C28.0619 3.51709 28.1097 4.11116 27.7905 4.56103C27.4395 5.02663 26.7851 5.13915 26.3064 4.78586Z"
                fill="white" />
        </mask>
        <g mask="url(#mask0_1748_598)">
            <path
                d="M2.66027 -5.51172L0.84668 11.5591L28.0276 14.4836L29.8409 -2.58722L2.66027 -5.51172Z"
                fill="#FF4800" />
        </g>
        <path fill-rule="evenodd" clip-rule="evenodd"
            d="M18.2473 6.66452C12.9971 6.87318 8.89567 11.3382 9.11907 16.6379C9.1829 18.2761 9.66182 19.8501 10.5076 21.2474C10.5396 21.3276 10.5873 21.3918 10.6353 21.456C10.9065 21.954 10.7469 22.5804 10.284 22.9016C9.77341 23.2227 9.11907 23.0621 8.79993 22.5642L8.67227 22.3715C8.66834 22.3473 8.65722 22.3249 8.64036 22.3073C7.63496 20.621 7.06052 18.7258 6.98084 16.7664C6.96488 16.4079 6.96488 16.0488 6.98084 15.6903C7.252 10.0212 11.5128 5.36364 17.0984 4.60853C17.4478 4.55986 17.7992 4.52778 18.1516 4.5124C20.1268 4.41715 22.0934 4.83179 23.8646 5.71693L24.0561 5.82924C24.1811 5.89316 24.2924 5.98136 24.3835 6.08876C24.4745 6.19616 24.5435 6.32063 24.5866 6.45501C24.6296 6.58938 24.6458 6.731 24.6342 6.87169C24.6225 7.01238 24.5834 7.14937 24.5189 7.27476C24.3912 7.5213 24.1741 7.70889 23.9127 7.7986C23.6512 7.8883 23.3654 7.87324 23.1147 7.75653L22.9072 7.64423C21.455 6.92147 19.8591 6.58412 18.2473 6.66452Z"
            fill="#FF4800" />
        <path fill-rule="evenodd" clip-rule="evenodd"
            d="M9.16705 25.9376C9.27886 26.0502 9.39044 26.1625 9.51832 26.259C10.731 27.3832 12.1353 28.2825 13.6673 28.8929C15.124 29.4868 16.6762 29.8078 18.2475 29.8403H19.2369C19.8113 29.8082 20.3858 29.7601 20.9444 29.6638C21.9337 29.487 22.8913 29.2141 23.8168 28.8287L23.8806 28.7966C24.5031 28.5394 25.1094 28.2182 25.6839 27.8649L25.7477 27.8328C26.2905 27.5116 27.0084 27.4636 27.3916 28.0576C27.7107 28.5556 27.567 29.1979 27.0722 29.5191L27.0564 29.5353C25.7319 30.4025 24.2797 31.0448 22.7476 31.4626C21.2656 31.8628 19.7332 32.0414 18.1995 31.9924H18.1835C17.5096 31.9761 16.8377 31.9117 16.1729 31.7997C14.3217 31.5106 12.5343 30.8683 10.9065 29.9366H10.8906C5.86364 27.0458 2.8316 21.6015 3.00724 15.7875C3.03915 15.1934 3.51786 14.7276 4.10837 14.7436C4.68282 14.7597 5.14568 15.2256 5.14568 15.8037C5.12962 16.2854 5.14568 16.7513 5.1776 17.233C5.35077 19.6537 6.16635 21.9832 7.53922 23.9785C7.93826 24.5404 8.35335 25.0705 8.816 25.5684C8.9278 25.6807 9.05546 25.7932 9.16705 25.9217"
            fill="#FF4800" />
        <mask id="mask1_1748_598" style="mask-type:luminance" maskUnits="userSpaceOnUse" x="3"
            y="14" width="25" height="18">
            <path
                d="M9.16705 25.9367C9.27886 26.0492 9.39044 26.1615 9.51832 26.2581C10.731 27.3822 12.1353 28.2815 13.6673 28.892C15.124 29.4858 16.6762 29.8069 18.2475 29.8393H19.2369C19.8113 29.8072 20.3858 29.7591 20.9444 29.6628C21.9337 29.486 22.8913 29.2131 23.8168 28.8277L23.8806 28.7956C24.5031 28.5384 25.1094 28.2173 25.6839 27.864L25.7477 27.8318C26.2905 27.5107 27.0084 27.4626 27.3916 28.0567C27.7107 28.5546 27.567 29.197 27.0722 29.5181L27.0564 29.5343C25.7319 30.4015 24.2797 31.0439 22.7476 31.4616C21.2656 31.8619 19.7332 32.0404 18.1995 31.9914H18.1835C17.5096 31.9751 16.8377 31.9107 16.1729 31.7987C14.3217 31.5097 12.5343 30.8673 10.9065 29.9357H10.8906C5.86364 27.0448 2.8316 21.6005 3.00724 15.7865C3.03915 15.1925 3.51786 14.7266 4.10837 14.7426C4.68282 14.7588 5.14568 15.2246 5.14568 15.8027C5.12962 16.2845 5.14568 16.7503 5.1776 17.2321C5.35077 19.6527 6.16635 21.9822 7.53922 23.9775C7.93826 24.5394 8.35335 25.0695 8.816 25.5674C8.9278 25.6797 9.05546 25.7922 9.16705 25.9207"
                fill="white" />
        </mask>
        <g mask="url(#mask1_1748_598)">
            <path
                d="M3.91319 8.50488L-1.20117 31.7263L26.469 37.8987L31.5836 14.6773L3.91319 8.50488Z"
                fill="#FF4800" />
        </g>
        <path fill-rule="evenodd" clip-rule="evenodd"
            d="M18.5985 25.9048C21.3752 25.921 24.0084 24.7164 25.8434 22.6124C26.019 22.4839 26.2265 22.4037 26.4339 22.4037C27.0244 22.3876 27.5192 22.8534 27.535 23.4477C27.5511 23.7206 27.4393 23.9937 27.2638 24.2026L27.1201 24.3631L27.0563 24.4274C25.6998 25.8406 24.0243 26.8845 22.157 27.4626C21.8209 27.5739 21.4801 27.6704 21.1357 27.7519C18.1866 28.3943 15.1048 27.8648 12.5344 26.2743C12.1992 25.921 12.1354 25.3909 12.3746 24.9734C12.6618 24.4754 13.2843 24.2989 13.7949 24.5558L14.0024 24.6843C15.4092 25.471 16.9892 25.8905 18.5985 25.9048Z"
            fill="#FF4800" />
        <mask id="mask2_1748_598" style="mask-type:luminance" maskUnits="userSpaceOnUse" x="12"
            y="22" width="16" height="7">
            <path
                d="M18.5986 25.9058C21.3753 25.9219 24.0085 24.7174 25.8435 22.6134C26.0191 22.4849 26.2267 22.4047 26.434 22.4047C27.0245 22.3885 27.5193 22.8544 27.5351 23.4486C27.5512 23.7215 27.4394 23.9947 27.264 24.2035L27.1202 24.3641L27.0564 24.4284C25.7 25.8415 24.0244 26.8855 22.1571 27.4636C21.821 27.5749 21.4803 27.6714 21.1359 27.7529C18.1867 28.3952 15.1049 27.8658 12.5345 26.2752C12.1993 25.9219 12.1355 25.3919 12.3747 24.9744C12.662 24.4764 13.2844 24.2999 13.795 24.5568L14.0026 24.6853C15.4093 25.4719 16.9894 25.8915 18.5986 25.9058Z"
                fill="white" />
        </mask>
        <g mask="url(#mask2_1748_598)">
            <path
                d="M12.8972 19.0449L10.8529 28.3274L26.9782 31.9244L29.0227 22.6421L12.8972 19.0449Z"
                fill="#FF4800" />
        </g>
        <path
            d="M18.5507 8.88086C14.5771 8.88086 11.3694 12.109 11.3694 16.108C11.3694 20.1071 14.5771 23.335 18.5507 23.335C22.5243 23.335 25.7319 20.1071 25.7319 16.108C25.7478 12.125 22.5401 8.89681 18.5826 8.88086H18.5507ZM18.5507 21.2474C15.726 21.2474 13.444 18.9506 13.444 16.108C13.444 13.2653 15.726 10.9687 18.5507 10.9687C21.3751 10.9687 23.6573 13.2653 23.6573 16.108C23.6573 18.9506 21.3751 21.2474 18.5507 21.2474Z"
            fill="#FF4800" />
        <path
            d="M21.3113 17.7786L21.2793 17.6822C21.1997 17.4736 21.024 17.2968 20.8006 17.2326L20.0666 17.0239C19.9564 17.0081 19.8441 17.0157 19.7369 17.0461C19.6297 17.0765 19.53 17.1291 19.4442 17.2005L19.1728 17.4574C18.6966 17.333 18.2621 17.0828 17.9142 16.7327C17.5664 16.3826 17.3178 15.9453 17.1942 15.4661L17.4653 15.193C17.609 15.0162 17.6729 14.7914 17.6249 14.5666L17.4176 13.8279C17.3537 13.603 17.1781 13.4263 16.9708 13.3461L16.8909 13.314C16.6675 13.2497 16.4441 13.314 16.2684 13.4584L15.8696 13.86C15.8058 13.9402 15.7739 14.0365 15.7578 14.1329C15.742 15.4016 16.2365 16.6383 17.1303 17.5378C18.0238 18.4233 19.2276 18.9194 20.4815 18.9189C20.5931 18.9029 20.6891 18.8546 20.7687 18.7904L21.1678 18.405C21.3113 18.2284 21.3751 18.0034 21.3113 17.7786Z"
            fill="#FF4800" />
        <path
            d="M20.4496 19.0798C19.8124 19.0804 19.1814 18.9545 18.5927 18.7092C18.0039 18.4639 17.4691 18.1041 17.0188 17.6504C16.5609 17.1891 16.1994 16.6403 15.9554 16.0362C15.7114 15.4322 15.59 14.7851 15.5983 14.1332C15.6144 13.9887 15.6782 13.8603 15.7579 13.7477L16.1569 13.3462C16.3644 13.1535 16.6675 13.0892 16.9389 13.1696H17.0186C17.2899 13.2821 17.4814 13.4908 17.5772 13.7639L17.7847 14.5026C17.8325 14.7917 17.7687 15.0807 17.5772 15.3056L17.3698 15.5144C17.6252 16.3495 18.2953 17.024 19.1251 17.2812L19.3327 17.0884C19.5402 16.8796 19.8433 16.8153 20.1147 16.8796L20.8487 17.0723C21.12 17.1686 21.3274 17.3613 21.4392 17.6345L21.4711 17.7308C21.5508 18.0037 21.4711 18.3089 21.2796 18.5176L20.8806 18.9192C20.769 19.0155 20.6253 19.0638 20.4816 19.0798H20.4496ZM15.9177 14.1655C15.9016 15.386 16.3803 16.5586 17.2422 17.426C18.1039 18.277 19.2528 18.7428 20.4496 18.7588H20.4657C20.5295 18.7428 20.5934 18.7107 20.6572 18.6786L21.0562 18.277C21.1678 18.1486 21.1997 17.988 21.1678 17.8274L21.1359 17.747C21.0721 17.5704 20.9444 17.442 20.7688 17.3937L20.0348 17.185C19.9505 17.1688 19.8637 17.1719 19.7808 17.1942C19.6979 17.2164 19.6211 17.2572 19.5561 17.3135L19.2208 17.6506L19.1412 17.6185C18.1199 17.3294 17.3219 16.5424 17.0346 15.5147V15.4183L17.3698 15.081C17.4814 14.9525 17.5133 14.776 17.4814 14.6154L17.2899 13.8764C17.2261 13.6999 17.0985 13.5714 16.9228 13.491H16.8432C16.6836 13.4427 16.5079 13.491 16.3803 13.5874L15.9815 13.9728C15.9496 14.037 15.9335 14.1013 15.9177 14.1655Z"
            fill="#FF4800" />
    </g>
    <defs>
        <clipPath id="clip0_1748_598">
            <rect width="32" height="32" fill="white" />
        </clipPath>
    </defs>
</svg>