<svg width="32" height="32" viewBox="0 0 32 32" fill="none" xmlns="http://www.w3.org/2000/svg">
<rect width="32" height="32" fill="#FAFAFA"/>
<path d="M23.1838 22.1442L22.4951 20.7668L22.6667 20.6733C22.8375 20.5815 23.0036 20.481 23.1642 20.3723C23.3039 20.2765 23.4213 20.1836 23.5167 20.0925C23.6047 20.0095 23.6823 19.916 23.7476 19.8142C23.81 19.7164 23.8579 19.6142 23.8914 19.5063H23.8913L23.8916 19.5049C23.9111 19.4368 23.9274 19.3678 23.9405 19.2981C23.9765 19.1046 23.9944 18.8756 23.991 18.6138V12.9246H26.0829V18.5914C26.0842 18.6918 26.0833 18.7922 26.08 18.8926C26.0717 19.1451 26.0488 19.3969 26.0114 19.6468V19.647C25.997 19.7469 25.9772 19.846 25.9522 19.9438C25.8885 20.1943 25.7929 20.4356 25.668 20.6618L25.6672 20.6626C25.572 20.8325 25.4572 20.9908 25.3252 21.1342C25.192 21.2798 25.0343 21.4203 24.8515 21.5554L24.8499 21.5569L24.8497 21.5566C24.7439 21.6348 24.6338 21.7068 24.5197 21.7722C24.2165 21.9482 23.853 22.1068 23.4275 22.2463L23.2619 22.3004L23.1838 22.1442ZM28.834 20.4118C28.6349 20.4118 28.4532 20.4057 28.2873 20.3947C28.128 20.3838 27.9691 20.3674 27.8109 20.3455L27.8069 20.3447C27.6666 20.3234 27.5271 20.2975 27.3885 20.2671C27.2618 20.2396 27.1365 20.2052 27.0135 20.1642C26.9032 20.1265 26.7948 20.0838 26.6884 20.0363C26.5903 19.9924 26.494 19.9448 26.3996 19.8935L26.2428 19.8082L26.8542 18.2543L27.0395 18.3229V18.3233C27.0688 18.3339 27.0959 18.3437 27.1209 18.3523C27.1282 18.3548 27.1556 18.364 27.2017 18.3793C27.3326 18.4229 27.4652 18.4612 27.5992 18.4943L27.6032 18.4949C27.7835 18.5416 27.9672 18.5744 28.1526 18.5929H28.1573C28.2502 18.6041 28.3528 18.6124 28.4649 18.6179C28.5784 18.6234 28.6947 18.6259 28.8144 18.6259C29.0106 18.6259 29.1788 18.6113 29.3197 18.5829C29.3514 18.5766 29.3731 18.572 29.385 18.5691C29.4865 18.5441 29.5706 18.5119 29.638 18.4728L29.6398 18.4714L29.6402 18.471L29.6405 18.4712C29.6577 18.4607 29.6757 18.448 29.6943 18.4337L29.6948 18.434C29.7105 18.4217 29.7253 18.4084 29.7392 18.394C29.8021 18.3298 29.8339 18.2485 29.8349 18.1519C29.834 18.0942 29.8196 18.0374 29.7927 17.9863C29.7639 17.9325 29.7207 17.8826 29.6635 17.836C29.5938 17.7817 29.5135 17.7291 29.4221 17.6782C29.3197 17.6217 29.2141 17.5712 29.1059 17.527L29.1058 17.5274C28.9721 17.4749 28.842 17.4229 28.7149 17.3711C28.6102 17.3286 28.4727 17.2713 28.302 17.1994C28.156 17.1382 28.0132 17.0699 27.874 16.9948C27.7348 16.9195 27.5996 16.837 27.469 16.7476L27.4689 16.7481C27.3314 16.6563 27.2064 16.5501 27.0933 16.43C26.9806 16.3103 26.8811 16.1788 26.7965 16.0379L26.7955 16.0364C26.7701 15.9939 26.7465 15.9508 26.7251 15.9066C26.7034 15.8616 26.6836 15.8157 26.6657 15.769C26.5735 15.5303 26.5245 15.2573 26.5206 14.9544V14.9496C26.5233 14.7676 26.5439 14.5971 26.5837 14.4364C26.6224 14.2773 26.6835 14.1245 26.7654 13.9827L26.7661 13.981C26.8446 13.8482 26.9384 13.7251 27.0455 13.6141C27.1525 13.503 27.2714 13.404 27.3999 13.3186L27.4024 13.3179C27.5332 13.2325 27.6712 13.1586 27.8149 13.0972C27.9613 13.0346 28.1125 12.984 28.2671 12.9457C28.4235 12.9043 28.5826 12.874 28.7432 12.8546C28.9043 12.8353 29.0664 12.8257 29.2286 12.8259H29.229C29.4291 12.8254 29.6292 12.8334 29.8287 12.8499C29.9516 12.8609 30.0752 12.8771 30.1989 12.8982H30.1999C30.2726 12.9106 30.345 12.9247 30.417 12.9405C30.5952 12.9797 30.7606 13.0277 30.9127 13.0844C31.0202 13.122 31.1187 13.1598 31.2108 13.1973C31.3062 13.2363 31.3994 13.2765 31.49 13.3169L31.671 13.3971L31.0428 14.91L30.8698 14.8606L30.8696 14.8605L30.868 14.8597C30.7011 14.8106 30.5343 14.7615 30.3796 14.724L30.3741 14.7233C30.2949 14.7016 30.215 14.6824 30.1345 14.6658C30.0502 14.6484 29.9647 14.6333 29.8773 14.6194C29.6792 14.5948 29.4798 14.5824 29.2802 14.5823C29.1209 14.5848 28.9883 14.5976 28.8834 14.6219C28.7934 14.6426 28.7272 14.67 28.6853 14.7043L28.6828 14.7066L28.682 14.7073C28.6576 14.7255 28.6357 14.7469 28.6168 14.7708C28.5794 14.8174 28.5603 14.876 28.5631 14.9357L28.5632 14.9366C28.5637 14.9509 28.5646 14.9619 28.5661 14.9695C28.5679 14.9797 28.5707 14.99 28.5743 15.0002C28.5952 15.0602 28.6464 15.1187 28.7277 15.1753L28.7332 15.1801C28.8034 15.2328 28.8873 15.2841 28.9826 15.3349C29.0768 15.3849 29.1883 15.4369 29.3135 15.4909L29.3132 15.4916C29.4066 15.5311 29.3976 15.5271 29.4212 15.5372L29.5325 15.5844C29.7033 15.658 29.9024 15.7458 30.1297 15.8477C30.2778 15.9139 30.4227 15.9869 30.5641 16.0664C30.7053 16.146 30.8427 16.2322 30.9758 16.3246L30.9798 16.327C31.1148 16.4248 31.2398 16.5327 31.3533 16.6523C31.467 16.7719 31.5677 16.9018 31.6534 17.0433C31.7474 17.1924 31.818 17.3549 31.8629 17.5254C31.9094 17.6982 31.934 17.885 31.9366 18.0863V18.0933C31.936 18.1496 31.9337 18.2059 31.9296 18.262C31.9264 18.307 31.9202 18.3613 31.9114 18.4245C31.872 18.7024 31.7868 18.9506 31.6558 19.1688C31.5677 19.3167 31.4617 19.4532 31.3403 19.5752C31.2175 19.6976 31.0803 19.8048 30.9318 19.8944H30.9302C30.7796 19.9846 30.622 20.0626 30.459 20.1277C30.2964 20.1925 30.1239 20.2459 29.9396 20.288C29.7589 20.3294 29.5775 20.3602 29.3939 20.3807C29.208 20.4016 29.0219 20.4118 28.834 20.4118ZM6.78111 19.637C5.5416 19.9821 4.14161 20.202 2.84236 19.9555C2.3464 19.8615 1.88907 19.6523 1.45586 19.3489C1.03115 19.0196 0.684561 18.5515 0.415961 17.9277C0.138612 17.295 0 16.4458 0 15.3798C0 14.3139 0.164609 13.4646 0.485204 12.8148C0.779927 12.1649 1.16114 11.6794 1.6291 11.3589C2.08843 11.0382 2.56501 10.8215 3.06771 10.709C3.56166 10.605 4.01225 10.5615 4.41958 10.5615C5.02715 10.5696 6.34128 10.7305 6.97084 11.1427V13.2226C6.32253 12.8909 5.42024 12.7273 4.69681 12.7108C4.4802 12.7108 4.2636 12.7367 4.05562 12.7801C3.84764 12.8407 3.65691 12.962 3.48367 13.144C3.32769 13.3261 3.1977 13.6034 3.10233 13.9587C2.98097 14.3227 2.92897 14.7906 2.92897 15.3798C2.92897 15.8998 2.97235 16.3245 3.06771 16.6451C3.13695 16.9744 3.2282 17.2445 3.37968 17.425C3.94363 18.0972 5.19451 17.8677 6.04643 17.6457C6.1218 18.3292 6.29391 19.0706 6.78111 19.637Z" fill="#1A1918"/>
<path d="M11.5569 15.5704L11.0377 15.5876C10.4744 15.5876 10.067 15.683 9.82444 15.8824C9.57309 16.0817 9.45185 16.4457 9.46047 16.9743C9.46047 17.4162 9.53847 17.7108 9.70295 17.8756C9.85919 18.0402 10.0758 18.1084 10.327 18.1009C10.6337 18.0915 10.8581 18.0194 11.0907 17.8997L11.0909 18.7951C11.0909 19.0933 11.1459 19.3207 11.2417 19.4939C10.9055 19.646 10.6882 19.7616 10.3236 19.8647C9.87443 19.9917 9.4326 20.0853 9.13126 20.0941C7.05345 20.1541 6.53125 18.6044 6.53125 17.1303C6.53125 16.4977 6.65261 15.9864 6.89534 15.5876C7.12069 15.1891 7.39792 14.8945 7.74464 14.6865C8.10848 14.4699 8.48119 14.3225 8.87115 14.2358C9.23235 14.1788 9.5974 14.1499 9.96305 14.1492H11.5577V13.6118C11.5577 13.2565 11.471 13.014 11.2802 12.9013C11.0983 12.7973 10.795 12.7453 10.379 12.7453C9.87181 12.7523 7.92049 12.959 7.46716 13.2392V11.0989C8.47957 10.7074 10.2398 10.5675 10.8468 10.5615C11.887 10.5529 12.7448 10.7349 13.4295 11.1162C13.7674 11.3415 14.0274 11.6536 14.2267 12.0521C14.4 12.4681 14.4866 12.9968 14.4866 13.6295C14.4866 15.726 14.4941 17.8206 14.4941 19.917L14.486 19.9169V19.9516H13.6498C12.6819 19.9516 11.5569 20.0529 11.5569 18.702C11.5569 17.9401 11.5559 17.1782 11.5569 16.4161V15.5704ZM14.9883 10.7347H17.4841L17.8654 11.6708C17.8742 11.6448 18.1617 11.4512 18.7321 11.1161C19.0027 10.9571 19.332 10.8462 19.7025 10.7349C20.0516 10.6296 20.4219 10.5644 20.8205 10.5615C21.6005 10.5557 22.2394 10.7356 22.7184 11.1334C23.2102 11.5418 23.4637 12.2687 23.4637 13.2999V18.6712C23.4637 20.0219 22.3388 19.9207 21.3709 19.9207H20.5347V13.6466C20.5347 13.3432 20.4869 13.131 20.3784 13.0226C20.2702 12.9141 20.0492 12.8717 19.7373 12.8752C19.2953 12.8803 18.8973 12.972 18.5241 13.1439C18.126 13.3272 17.9261 13.43 17.9174 13.4386V19.9207L15.007 19.9174C15.007 16.8364 14.9882 13.8071 14.9882 10.7347M24.9719 9.68945C25.7251 9.68945 26.3393 10.3038 26.3393 11.0568C26.3393 11.81 25.7251 12.4242 24.9719 12.4242C24.2188 12.4242 23.6045 11.81 23.6045 11.0568C23.6045 10.3038 24.2188 9.68945 24.9719 9.68945Z" fill="#1A1918"/>
</svg>
