<svg width="32" height="32" viewBox="0 0 32 32" fill="none" xmlns="http://www.w3.org/2000/svg">
    <path fill-rule="evenodd" clip-rule="evenodd"
        d="M17.9819 0.10091C22.7804 -0.414833 26.8258 1.04637 30.1178 4.48453C25.8633 8.79857 21.6086 13.1126 17.3542 17.4266C19.8594 19.0064 22.161 18.7279 24.2591 16.5917C26.2818 18.4704 28.2346 20.4186 30.1178 22.4365C27.6316 25.1606 24.9814 27.7002 22.1667 30.0556C15.4112 33.4675 9.51758 32.3892 4.4859 26.8201C0.667317 21.1945 0.737077 15.6279 4.69514 10.1206C7.03166 7.78963 9.36816 5.45867 11.7047 3.12769C13.6223 1.71861 15.7148 0.709669 17.9819 0.10091Z"
        fill="#006BDD" />
    <path fill-rule="evenodd" clip-rule="evenodd"
        d="M17.4639 1.5655C21.4275 1.02173 24.9134 2.03261 27.9214 4.59818C26.6286 5.92588 25.3041 7.21565 23.9475 8.46746C20.4173 6.38018 17.3149 6.86819 14.6403 9.93151C13.0894 13.0298 13.4728 15.8534 15.7907 18.4021C17.765 19.795 19.9262 20.1437 22.2743 19.4478C22.8493 19.213 23.3721 18.8992 23.8429 18.5067C25.0978 19.7616 26.3527 21.0165 27.6076 22.2714C27.6417 22.666 27.4673 22.9798 27.0848 23.2126C22.3494 26.1402 17.6086 26.1402 12.8625 23.2126C7.64605 18.6209 6.63516 13.2179 9.82987 7.00341C11.7444 4.28755 14.2892 2.4749 17.4639 1.5655Z"
        fill="#FCFCFC" />
</svg>