<svg width="32" height="32" viewBox="0 0 40 40" fill="none" xmlns="http://www.w3.org/2000/svg">
    <rect width="40" height="40" fill="#FF7A20" />
    <path
        d="M14.0062 12.7256C12.979 12.7256 12.1436 13.5467 12.1436 14.5531C12.1436 15.5615 12.979 16.3806 14.0062 16.3806C15.0313 16.3806 15.8657 15.5615 15.8657 14.5531C15.8657 13.5467 15.0313 12.7256 14.0062 12.7256Z"
        fill="#FAFAFA" />
    <path
        d="M24.178 12.7256C23.1509 12.7256 22.3154 13.5467 22.3154 14.5531C22.3154 15.5615 23.1509 16.3806 24.178 16.3806C25.2032 16.3806 26.0386 15.5615 26.0386 14.5531C26.0386 13.5467 25.2032 12.7256 24.178 12.7256Z"
        fill="#FAFAFA" />
    <path
        d="M29.4791 5.60565C29.468 5.61556 28.3894 6.62887 26.7447 6.62887C26.6882 6.62887 26.6348 6.63878 26.5793 6.64571C24.5189 4.9935 21.8905 4 19.029 4C16.117 4 13.4462 5.02817 11.3707 6.73387C11.3324 6.7309 11.2951 6.72297 11.2547 6.72297C9.60904 6.72297 8.53144 5.70867 8.52841 5.7047C7.97851 5.15496 7.00988 5.14208 6.44686 5.67895C5.86266 6.23563 5.84853 7.15484 6.42063 7.73529C6.55886 7.87199 7.5063 8.76347 9.06217 9.27062C7.81001 11.1249 7.07849 13.3457 7.07849 15.7328C7.07849 16.1132 7.08757 16.4876 7.09968 16.8591C7.08959 16.9651 7.08959 17.074 7.11179 17.184C7.69095 30.5354 16.3007 38 28.4499 38C28.9009 38 29.3631 37.9881 29.8242 37.9633C30.48 37.9267 30.9936 37.3938 30.9936 36.748C30.9936 33.5832 30.9906 30.1877 30.9875 26.0027C30.9845 21.8424 30.9795 18.8491 30.9795 15.7328C30.9795 13.306 30.2247 11.0486 28.9353 9.17652C30.4881 8.66937 31.4406 7.77888 31.5859 7.63525C32.1509 7.06272 32.1358 6.14252 31.5526 5.58584C30.9896 5.05095 30.0139 5.06878 29.4791 5.60565ZM24.5461 8.18004C22.1669 8.66243 20.1732 9.94319 19.034 11.6578C17.8939 9.94022 15.8961 8.65847 13.5138 8.17806C15.0687 7.08154 16.9727 6.43176 19.029 6.43176C21.0863 6.43275 22.9903 7.08154 24.5461 8.18004ZM10.3819 22.5853C11.961 24.0494 14.4048 25.5104 18.0815 26.0383C17.2612 27.8332 16.8556 29.9906 17.24 32.5481C13.9376 30.3749 11.5554 27.0408 10.3819 22.5853ZM28.4499 35.5663C27.5923 35.5663 26.7589 35.5217 25.9456 35.4434C23.634 33.0374 25.3019 29.521 25.3796 29.3596C25.6621 28.7871 25.4179 28.0986 24.8347 27.8193C24.2505 27.54 23.5462 27.7777 23.2617 28.3522C22.5695 29.7469 21.8996 32.4619 22.8874 34.9393C21.8683 34.6956 20.8936 34.3836 19.9714 33.9983C18.919 30.471 19.6041 27.7589 20.8946 25.7412C20.8966 25.7382 20.8976 25.7362 20.8996 25.7333C23.0438 22.3882 26.8406 20.948 27.0959 20.8539C27.7043 20.633 28.0151 19.9703 27.79 19.3721C27.564 18.7738 26.887 18.4677 26.2786 18.6886C26.2079 18.7143 22.0802 20.2645 19.3821 23.8621C12.3565 23.2589 10.1771 18.9699 9.60097 17.3474C9.57473 16.8185 9.55556 16.2836 9.55556 15.7319C9.55556 14.8206 9.69279 13.939 9.94302 13.1069C9.94503 13.1109 9.94503 13.1169 9.94806 13.1208C11.3657 10.5791 13.536 10.2057 15.5853 11.111C17.0423 12.0164 17.9786 13.3863 18.0028 14.9226V17.1721C18.0028 17.7298 18.4639 18.1824 19.032 18.1824C19.6001 18.1824 20.0612 17.7298 20.0612 17.1721V15.0226C20.0612 15.0088 20.0652 14.9969 20.0652 14.983C20.0652 14.9721 20.0642 14.9622 20.0642 14.9513C20.0773 13.4041 21.0177 12.0223 22.4838 11.111C24.531 10.2057 26.7003 10.5791 28.118 13.1159C28.3662 13.9469 28.5024 14.8245 28.5024 15.7328C28.5024 18.8491 28.5054 21.8444 28.5095 26.0057C28.5135 29.6865 28.5165 32.5768 28.5175 35.5663H28.4499Z"
        fill="#FAFAFA" />
</svg>