<svg width="32" height="32" viewBox="0 0 32 32" fill="none" xmlns="http://www.w3.org/2000/svg">
    <g clip-path="url(#clip0_4628_1167)">
        <path opacity="0.991" fill-rule="evenodd" clip-rule="evenodd"
            d="M7.31182 -0.0859375C8.17204 -0.0859375 9.03225 -0.0859375 9.89247 -0.0859375C9.26169 2.20784 8.63086 4.50176 7.99999 6.79578C5.27497 9.58178 4.01333 12.908 4.21505 16.7743C3.15684 20.7184 2.06724 24.6754 0.946229 28.6452C0.437801 28.0364 0.0937144 27.3482 -0.0860291 26.5807C-0.0860291 26.2939 -0.0860291 26.0073 -0.0860291 25.7205C2.44345 17.1548 4.90939 8.55269 7.31182 -0.0859375Z"
            fill="#38587C" />
        <path fill-rule="evenodd" clip-rule="evenodd"
            d="M9.89247 -0.0859375C10.9247 -0.0859375 11.957 -0.0859375 12.9892 -0.0859375C12.5305 1.46245 12.0717 3.01084 11.6129 4.55922C10.3943 5.25591 9.19 6.00143 8 6.79578C8.63086 4.50176 9.26169 2.20784 9.89247 -0.0859375Z"
            fill="#505574" />
        <path fill-rule="evenodd" clip-rule="evenodd"
            d="M12.9893 -0.0859375C13.448 -0.0859375 13.9068 -0.0859375 14.3656 -0.0859375C14.0756 1.1885 13.7315 2.45015 13.3333 3.69901C13.5379 3.85879 13.7673 3.91613 14.0215 3.87105C13.2404 4.12031 12.4376 4.34969 11.6129 4.55922C12.0717 3.01084 12.5305 1.46245 12.9893 -0.0859375Z"
            fill="#66526B" />
        <path fill-rule="evenodd" clip-rule="evenodd"
            d="M14.3656 -0.0859375C14.8817 -0.0859375 15.3979 -0.0859375 15.914 -0.0859375C15.4657 1.14466 15.1216 2.40631 14.8817 3.69901C14.6165 3.83676 14.3297 3.89411 14.0215 3.87105C13.7673 3.91613 13.5379 3.85879 13.3333 3.69901C13.7315 2.45015 14.0756 1.1885 14.3656 -0.0859375Z"
            fill="#715065" />
        <path fill-rule="evenodd" clip-rule="evenodd"
            d="M15.914 -0.0859375C16.3728 -0.0859375 16.8315 -0.0859375 17.2903 -0.0859375C17.0504 1.20676 16.7063 2.46842 16.2581 3.69901C15.7993 3.69901 15.3405 3.69901 14.8817 3.69901C15.1216 2.40631 15.4657 1.14466 15.914 -0.0859375Z"
            fill="#7D4E5F" />
        <path fill-rule="evenodd" clip-rule="evenodd"
            d="M17.2903 -0.0859375C17.9785 -0.0859375 18.6667 -0.0859375 19.3548 -0.0859375C19.0379 1.12388 18.6938 2.32819 18.3226 3.52697C18.4504 3.64426 18.565 3.75897 18.6667 3.87105C17.8701 3.74555 17.0672 3.6882 16.2581 3.69901C16.7063 2.46842 17.0504 1.20676 17.2903 -0.0859375Z"
            fill="#8A4C59" />
        <path fill-rule="evenodd" clip-rule="evenodd"
            d="M19.3548 -0.0859375C20.043 -0.0859375 20.7312 -0.0859375 21.4193 -0.0859375C20.9486 1.38402 20.5473 2.87506 20.215 4.38718C19.6716 4.24426 19.1554 4.07222 18.6667 3.87105C18.565 3.75897 18.4504 3.64426 18.3226 3.52697C18.6938 2.32819 19.0379 1.12388 19.3548 -0.0859375Z"
            fill="#944C55" />
        <path fill-rule="evenodd" clip-rule="evenodd"
            d="M21.4194 -0.0859375C22.2796 -0.0859375 23.1398 -0.0859375 24 -0.0859375C23.5057 1.74076 23.0471 3.57588 22.6237 5.41944C21.8145 5.07174 21.0116 4.72765 20.2151 4.38718C20.5473 2.87506 20.9486 1.38402 21.4194 -0.0859375Z"
            fill="#A34A4D" />
        <path opacity="0.997" fill-rule="evenodd" clip-rule="evenodd"
            d="M24 -0.0859375C24.8602 -0.0859375 25.7204 -0.0859375 26.5806 -0.0859375C26.5806 -0.0285899 26.5806 0.0287579 26.5806 0.0861055C25.9498 2.38013 25.3189 4.67405 24.6882 6.96783C24 6.4517 23.3118 5.93557 22.6237 5.41944C23.0471 3.57588 23.5057 1.74076 24 -0.0859375Z"
            fill="#B04846" />
        <path opacity="0.993" fill-rule="evenodd" clip-rule="evenodd"
            d="M5.2473 -0.0859375C5.93548 -0.0859375 6.62365 -0.0859375 7.31182 -0.0859375C4.90939 8.55269 2.44345 17.1548 -0.0860291 25.7205C-0.0860291 18.8961 -0.0860291 12.0718 -0.0860291 5.2474C0.716839 2.49471 2.49462 0.71693 5.2473 -0.0859375Z"
            fill="#255983" />
        <path opacity="0.985" fill-rule="evenodd" clip-rule="evenodd"
            d="M26.5806 0.0859375C27.516 0.152964 28.319 0.49705 28.9892 1.1182C28.1671 3.65863 27.4216 6.23928 26.7527 8.86013C26.0645 8.2293 25.3763 7.59849 24.6882 6.96766C25.3189 4.67388 25.9498 2.37996 26.5806 0.0859375Z"
            fill="#BD453D" />
        <path opacity="0.994" fill-rule="evenodd" clip-rule="evenodd"
            d="M28.9892 1.11816C29.4381 1.28041 29.7822 1.56715 30.0215 1.97838C28.1641 8.2035 26.3862 14.4544 24.6882 20.7311C24.1757 20.3333 23.7168 19.8745 23.3118 19.3547C22.8497 19.7601 22.3909 20.1614 21.9355 20.559C22.8225 17.5273 23.6828 14.4879 24.5161 11.4407C25.3297 10.628 26.0754 9.76775 26.7527 8.8601C27.4216 6.23925 28.1671 3.6586 28.9892 1.11816Z"
            fill="#C2453B" />
        <path opacity="0.993" fill-rule="evenodd" clip-rule="evenodd"
            d="M30.0215 1.97852C30.6044 2.51135 31.0632 3.14216 31.3978 3.87099C29.6231 9.93556 27.8453 16.0144 26.0645 22.1075C25.5484 21.7062 25.0895 21.2473 24.6882 20.7312C26.3862 14.4545 28.1641 8.20363 30.0215 1.97852Z"
            fill="#CB4435" />
        <path fill-rule="evenodd" clip-rule="evenodd"
            d="M14.8817 3.69904C15.3405 3.69904 15.7993 3.69904 16.2581 3.69904C17.0672 3.68823 17.8701 3.74558 18.6667 3.87108C19.1555 4.07225 19.6716 4.24429 20.2151 4.38721C21.0116 4.72768 21.8146 5.07177 22.6237 5.41947C23.3118 5.9356 24 6.45173 24.6882 6.96786C25.3764 7.59869 26.0645 8.2295 26.7527 8.86033C26.0754 9.76798 25.3297 10.6282 24.5161 11.441C24.118 11.7812 23.7167 12.1252 23.3118 12.4732C22.907 12.1252 22.5056 11.7812 22.1075 11.441C21.5783 10.8032 20.9476 10.2871 20.2151 9.89259C19.6762 9.44354 19.0453 9.15681 18.3226 9.03237C17.8254 8.90423 17.3093 8.78953 16.7742 8.68829C16.086 8.74563 15.3979 8.80299 14.7097 8.86033C14.0021 9.01401 13.3712 9.30074 12.8172 9.72054C10.9959 10.603 9.82023 12.0367 9.29034 14.0216C8.77173 16.0257 9.0298 17.9182 10.0645 19.699C10.4846 20.2546 10.9434 20.7707 11.4409 21.2474C11.9036 21.7094 12.4197 22.1107 12.9893 22.4517C13.37 22.6707 13.7714 22.8428 14.1936 22.9679C14.9067 23.0916 15.6235 23.2061 16.3441 23.3119C16.5823 23.3095 16.7831 23.2521 16.9463 23.1399C17.6215 23.1519 18.2522 23.0372 18.8387 22.7958C20.1604 22.4488 21.1926 21.7033 21.9355 20.5593C22.3909 20.1617 22.8497 19.7603 23.3118 19.355C23.7168 19.8747 24.1757 20.3335 24.6882 20.7313C25.0896 21.2474 25.5484 21.7063 26.0645 22.1076C26.2899 22.3912 26.5192 22.6778 26.7527 22.9679C26.2901 23.4874 25.8312 24.0036 25.3764 24.5162C24.6268 25.095 23.8811 25.6686 23.1398 26.2367C22.2003 26.7607 21.2253 27.2194 20.2151 27.613C19.4894 27.8661 18.7439 28.0381 17.9785 28.1291C16.5354 28.1761 15.1017 28.1188 13.6774 27.9571C13.0064 27.7321 12.3183 27.56 11.6129 27.441C11.1485 27.0788 10.6323 26.7922 10.0645 26.5808C9.54928 26.2379 9.03315 25.8938 8.51614 25.5485C8.2294 25.1471 7.88531 24.803 7.48389 24.5162C7.20569 23.9513 6.80426 23.4924 6.27958 23.1399C6.07652 22.6169 5.78978 22.1582 5.41937 21.7636C4.70606 20.1813 4.30462 18.5183 4.21507 16.7743C4.01335 12.908 5.27499 9.58181 8.00002 6.79581C9.19002 6.00146 10.3943 5.25594 11.6129 4.55925C12.4376 4.34972 13.2404 4.12034 14.0215 3.87108C14.3297 3.89414 14.6165 3.83679 14.8817 3.69904Z"
            fill="#FDFCFC" />
        <path opacity="0.994" fill-rule="evenodd" clip-rule="evenodd"
            d="M31.3979 3.87085C31.572 4.34433 31.744 4.80312 31.914 5.24719C31.914 6.05007 31.914 6.85292 31.914 7.6558C29.5389 15.7198 27.1878 23.8058 24.8602 31.9139C24.3441 31.9139 23.828 31.9139 23.3118 31.9139C24.0688 29.4703 24.757 27.0044 25.3763 24.516C25.8312 24.0033 26.2901 23.4872 26.7527 22.9676C26.5192 22.6776 26.2899 22.3909 26.0645 22.1074C27.8453 16.0143 29.6231 9.93542 31.3979 3.87085Z"
            fill="#D14331" />
        <path opacity="0.997" fill-rule="evenodd" clip-rule="evenodd"
            d="M31.914 7.65601C31.914 10.1219 31.914 12.5879 31.914 15.0539C30.2851 20.5917 28.6794 26.1544 27.0968 31.742C26.8747 31.7013 26.7026 31.7585 26.5807 31.9141C26.0072 31.9141 25.4336 31.9141 24.8602 31.9141C27.1878 23.806 29.5389 15.72 31.914 7.65601Z"
            fill="#D7422D" />
        <path fill-rule="evenodd" clip-rule="evenodd"
            d="M16.7742 8.68823C17.3093 8.78948 17.8254 8.90418 18.3226 9.03232C17.9589 9.18031 17.7583 9.46704 17.7204 9.89253C16.5265 14.1814 15.2936 18.4539 14.0215 22.7097C14.1172 22.7756 14.1745 22.8617 14.1936 22.9678C13.7714 22.8427 13.37 22.6707 12.9893 22.4517C14.3048 17.8777 15.5664 13.29 16.7742 8.68823Z"
            fill="#924C55" />
        <path fill-rule="evenodd" clip-rule="evenodd"
            d="M16.7742 8.68823C15.5664 13.29 14.3047 17.8777 12.9892 22.4517C12.4197 22.1107 11.9036 21.7093 11.4409 21.2474C12.5305 17.1183 13.6201 12.9893 14.7097 8.86028C15.3978 8.80293 16.086 8.74557 16.7742 8.68823Z"
            fill="#884D5A" />
        <path fill-rule="evenodd" clip-rule="evenodd"
            d="M14.7097 8.86011C13.6201 12.9891 12.5305 17.1182 11.4409 21.2472C10.9433 20.7705 10.4846 20.2543 10.0645 19.6988C11.1186 16.5057 12.0935 13.2656 12.9892 9.97839C12.9772 9.84681 12.9199 9.76079 12.8172 9.72032C13.3712 9.30052 14.002 9.01379 14.7097 8.86011Z"
            fill="#7C4F60" />
        <path fill-rule="evenodd" clip-rule="evenodd"
            d="M18.3226 9.03223C19.0453 9.15667 19.6762 9.44339 20.2151 9.89244C19.8887 10.1968 19.6879 10.5982 19.6129 11.0967C18.4411 15.0993 17.3228 19.1136 16.2581 23.1398C16.4875 23.1398 16.7169 23.1398 16.9462 23.1398C16.783 23.2519 16.5823 23.3094 16.3441 23.3118C15.6235 23.206 14.9067 23.0914 14.1936 22.9677C14.1745 22.8616 14.1172 22.7755 14.0215 22.7096C15.2936 18.4538 16.5265 14.1814 17.7204 9.89244C17.7583 9.46694 17.9589 9.18022 18.3226 9.03223Z"
            fill="#9B4A50" />
        <path fill-rule="evenodd" clip-rule="evenodd"
            d="M20.215 9.89258C20.9476 10.2871 21.5783 10.8032 22.1075 11.441C21.9207 11.4616 21.8059 11.5763 21.7634 11.7851C20.7577 15.4066 19.7254 19.0195 18.6667 22.6238C18.688 22.7282 18.7453 22.7855 18.8387 22.7958C18.2522 23.0372 17.6215 23.1519 16.9462 23.1399C16.7168 23.1399 16.4874 23.1399 16.2581 23.1399C17.3228 19.1137 18.4411 15.0995 19.6129 11.0969C19.6879 10.5983 19.8887 10.1969 20.215 9.89258Z"
            fill="#A7494A" />
        <path fill-rule="evenodd" clip-rule="evenodd"
            d="M12.8172 9.72046C12.9199 9.76092 12.9772 9.84695 12.9893 9.97852C12.0935 13.2657 11.1186 16.5059 10.0645 19.699C9.02978 17.9181 8.77172 16.0256 9.29033 14.0215C9.82022 12.0366 10.9958 10.603 12.8172 9.72046Z"
            fill="#6F5268" />
        <path fill-rule="evenodd" clip-rule="evenodd"
            d="M22.1075 11.4409C22.5056 11.7811 22.907 12.1252 23.3118 12.4732C23.7166 12.1252 24.118 11.7811 24.5161 11.4409C23.6827 14.488 22.8225 17.5275 21.9355 20.5592C21.1926 21.7033 20.1603 22.4487 18.8387 22.7958C18.7453 22.7854 18.688 22.7281 18.6667 22.6237C19.7254 19.0194 20.7577 15.4066 21.7634 11.785C21.8059 11.5763 21.9207 11.4616 22.1075 11.4409Z"
            fill="#B44844" />
        <path opacity="0.969" fill-rule="evenodd" clip-rule="evenodd"
            d="M31.914 15.0537C31.914 18.8959 31.914 22.7384 31.914 26.5806C31.2079 29.1224 29.6022 30.8428 27.0968 31.7419C28.6794 26.1543 30.2851 20.5916 31.914 15.0537Z"
            fill="#DC4129" />
        <path opacity="0.99" fill-rule="evenodd" clip-rule="evenodd"
            d="M4.21505 16.7742C4.30459 18.5182 4.70604 20.1811 5.41935 21.7634C4.49554 24.7091 3.63533 27.6912 2.8387 30.7097C1.965 30.2377 1.33417 29.5496 0.946228 28.6451C2.06724 24.6752 3.15684 20.7183 4.21505 16.7742Z"
            fill="#475678" />
        <path opacity="0.984" fill-rule="evenodd" clip-rule="evenodd"
            d="M5.41936 21.7634C5.78977 22.1581 6.07651 22.6168 6.27957 23.1398C5.53406 25.8925 4.78853 28.6451 4.04302 31.3978C3.55594 31.2982 3.15452 31.0689 2.83871 30.7097C3.63534 27.6912 4.49556 24.7091 5.41936 21.7634Z"
            fill="#59536F" />
        <path opacity="0.987" fill-rule="evenodd" clip-rule="evenodd"
            d="M6.27956 23.1399C6.80424 23.4924 7.20567 23.9512 7.48386 24.5162C6.71887 26.9434 6.0307 29.4095 5.41934 31.9141C5.362 31.9141 5.30464 31.9141 5.2473 31.9141C4.83653 31.768 4.4351 31.596 4.043 31.398C4.78851 28.6453 5.53404 25.8926 6.27956 23.1399Z"
            fill="#66526B" />
        <path fill-rule="evenodd" clip-rule="evenodd"
            d="M25.3763 24.5161C24.757 27.0045 24.0688 29.4704 23.3118 31.914C22.6809 31.914 22.0502 31.914 21.4193 31.914C21.9661 30.0136 22.5397 28.1211 23.1398 26.2365C23.8811 25.6685 24.6267 25.0949 25.3763 24.5161Z"
            fill="#CB4435" />
        <path opacity="0.997" fill-rule="evenodd" clip-rule="evenodd"
            d="M7.48386 24.5161C7.88529 24.8029 8.22937 25.147 8.51612 25.5484C7.94265 27.6702 7.36916 29.7922 6.79569 31.914C6.3369 31.914 5.87813 31.914 5.41934 31.914C6.0307 29.4094 6.71887 26.9433 7.48386 24.5161Z"
            fill="#715065" />
        <path fill-rule="evenodd" clip-rule="evenodd"
            d="M8.51611 25.5483C9.03312 25.8936 9.54925 26.2377 10.0645 26.5806C9.81829 26.6461 9.67491 26.8182 9.63439 27.0967C9.15059 28.6909 8.72048 30.2967 8.34407 31.9139C7.82794 31.9139 7.31181 31.9139 6.79568 31.9139C7.36916 29.7921 7.94264 27.6701 8.51611 25.5483Z"
            fill="#7E4E5F" />
        <path fill-rule="evenodd" clip-rule="evenodd"
            d="M10.0645 26.5806C10.6323 26.792 11.1484 27.0786 11.6129 27.4408C11.1243 28.9076 10.6655 30.3987 10.2366 31.9139C9.60573 31.9139 8.97492 31.9139 8.34409 31.9139C8.7205 30.2967 9.15061 28.6908 9.63441 27.0967C9.67492 26.8182 9.81831 26.6461 10.0645 26.5806Z"
            fill="#8A4D59" />
        <path fill-rule="evenodd" clip-rule="evenodd"
            d="M23.1398 26.2366C22.5397 28.1211 21.9661 30.0136 21.4193 31.914C20.6164 31.914 19.8137 31.914 19.0107 31.914C19.3855 30.4726 19.7868 29.039 20.215 27.6129C21.2253 27.2193 22.2002 26.7606 23.1398 26.2366Z"
            fill="#C1453C" />
        <path fill-rule="evenodd" clip-rule="evenodd"
            d="M11.6129 27.4409C12.3183 27.56 13.0064 27.732 13.6774 27.957C13.4038 29.2942 13.0597 30.6132 12.6452 31.914C11.8423 31.914 11.0394 31.914 10.2366 31.914C10.6655 30.3989 11.1243 28.9078 11.6129 27.4409Z"
            fill="#974B52" />
        <path fill-rule="evenodd" clip-rule="evenodd"
            d="M13.6774 27.957C15.1017 28.1188 16.5354 28.176 17.9785 28.1291C17.6829 28.2536 17.3674 28.3684 17.0323 28.4732C16.6632 29.6085 16.3478 30.7553 16.086 31.914C14.9391 31.914 13.7921 31.914 12.6452 31.914C13.0597 30.6132 13.4038 29.2941 13.6774 27.957Z"
            fill="#A64B4D" />
        <path fill-rule="evenodd" clip-rule="evenodd"
            d="M20.2151 27.6128C19.7868 29.0389 19.3855 30.4725 19.0108 31.9139C18.0358 31.9139 17.0609 31.9139 16.086 31.9139C16.3478 30.7552 16.6632 29.6083 17.0323 28.473C17.3674 28.3682 17.6829 28.2535 17.9785 28.1289C18.7439 28.0379 19.4894 27.8659 20.2151 27.6128Z"
            fill="#B44743" />
    </g>
    <defs>
        <clipPath id="clip0_4628_1167">
            <rect width="32" height="32" fill="white" />
        </clipPath>
    </defs>
</svg>