<svg width="32" height="32" viewBox="0 0 32 32" fill="none" xmlns="http://www.w3.org/2000/svg">
    <path fill-rule="evenodd" clip-rule="evenodd"
        d="M15.9902 25.321V31.9992C9.54452 31.8576 4.57129 26.8728 4.57129 20.741C4.57129 9.38938 16.0005 0 16.0005 0C16.0005 0 18.1373 1.8374 20.5617 4.80377C15.6877 9.23983 13.6354 13.1901 13.3352 13.803C12.1687 15.9946 11.3491 18.3818 11.3491 20.741C11.3491 23.1833 13.2987 25.1849 15.9902 25.321Z"
        fill="url(#paint0_linear_2809_439)" />
    <path fill-rule="evenodd" clip-rule="evenodd"
        d="M15.9902 25.32L16.0005 25.3223C18.5642 25.3223 20.6507 23.2667 20.6507 20.74C20.6507 18.5664 19.8871 16.3085 18.7833 14.1877C20.5126 11.5362 22.2396 9.76514 23.4084 8.72949C25.6011 12.185 27.4286 16.3737 27.4286 20.74C27.4286 26.9595 22.3115 31.9994 16.0005 31.9994L15.9902 31.9983V25.32Z"
        fill="url(#paint1_linear_2809_439)" />
    <defs>
        <linearGradient id="paint0_linear_2809_439" x1="12.825" y1="7.14605" x2="12.825"
            y2="25.1237" gradientUnits="userSpaceOnUse">
            <stop stop-color="#126DC6" />
            <stop offset="1" stop-color="#3E96D3" stop-opacity="0.7" />
        </linearGradient>
        <linearGradient id="paint1_linear_2809_439" x1="21.8298" y1="25.0175" x2="21.8298"
            y2="12.0193" gradientUnits="userSpaceOnUse">
            <stop stop-color="#80C8E6" stop-opacity="0.7" />
            <stop offset="1" stop-color="#439AD4" stop-opacity="0.4" />
        </linearGradient>
    </defs>
</svg>