<svg width="32" height="32" viewBox="0 0 32 32" fill="none" xmlns="http://www.w3.org/2000/svg">
    <g clip-path="url(#clip0_2981_76)">
        <path fill-rule="evenodd" clip-rule="evenodd"
            d="M-0.039978 -0.0390625C10.6267 -0.0390625 21.2934 -0.0390625 31.96 -0.0390625C31.96 10.6276 31.96 21.2943 31.96 31.9609C21.2934 31.9609 10.6267 31.9609 -0.039978 31.9609C-0.039978 21.2943 -0.039978 10.6276 -0.039978 -0.0390625Z"
            fill="#FEFEFE" />
        <path fill-rule="evenodd" clip-rule="evenodd"
            d="M17 7.79931C17.2519 7.77622 17.4919 7.81622 17.72 7.91931C19.3263 8.80899 20.9129 9.72899 22.48 10.6793C22.52 12.5991 22.5333 14.5191 22.52 16.4393C22.1733 16.4393 21.8266 16.4393 21.48 16.4393C21.5061 14.7133 21.4795 12.9933 21.4 11.2793C20.037 10.5179 18.677 9.75795 17.32 8.99931C15.8576 9.78147 14.4042 10.5815 12.96 11.3993C12.7347 11.1631 12.5481 10.8963 12.4 10.5993C12.3449 10.5327 12.3583 10.4795 12.44 10.4393C13.9838 9.58619 15.5038 8.70619 17 7.79931Z"
            fill="#0B2080" />
        <path fill-rule="evenodd" clip-rule="evenodd"
            d="M14.84 12.2807C14.7177 12.282 14.6777 12.3354 14.72 12.4407C15.3589 13.093 16.0123 13.733 16.68 14.3607C16.6509 14.4153 16.6243 14.4687 16.6 14.5207C15.9307 14.1322 15.2507 13.7589 14.56 13.4007C14.2709 13.5253 13.9909 13.6587 13.72 13.8007C13.5364 13.5094 13.3497 13.216 13.16 12.9207C13.5149 12.6759 13.8882 12.4493 14.28 12.2407C14.4831 12.177 14.6697 12.1903 14.84 12.2807Z"
            fill="#0F8ADE" />
        <path fill-rule="evenodd" clip-rule="evenodd"
            d="M13.16 12.9199C13.3497 13.2153 13.5364 13.5086 13.72 13.7999C13.2826 14.0856 12.8293 14.3522 12.36 14.5999C12.2565 14.4316 12.0832 14.2716 11.84 14.1199C11.7593 13.9979 11.7193 13.8646 11.72 13.7199C12.1736 13.413 12.6536 13.1463 13.16 12.9199Z"
            fill="#1093D7" />
        <path fill-rule="evenodd" clip-rule="evenodd"
            d="M14.84 12.2793C16.4473 13.1517 18.0473 14.0451 19.64 14.9593C19.7002 15.013 19.7269 15.0796 19.72 15.1593C19.72 16.1727 19.72 17.1859 19.72 18.1993C19.7413 17.6588 19.5546 17.2055 19.16 16.8393C19.08 16.7859 19 16.7327 18.92 16.6793C18.8666 16.9575 18.8133 17.2242 18.76 17.4793C18.8106 16.8335 18.7572 16.2201 18.6 15.6393C17.9204 15.2863 17.2538 14.9129 16.6 14.5193C16.6243 14.4673 16.651 14.4139 16.68 14.3593C16.0123 13.7316 15.359 13.0916 14.72 12.4393C14.6778 12.334 14.7178 12.2807 14.84 12.2793Z"
            fill="#0C84E2" />
        <path fill-rule="evenodd" clip-rule="evenodd"
            d="M11.72 13.7207C11.7193 13.8653 11.7593 13.9987 11.84 14.1207C12.0832 14.2724 12.2565 14.4324 12.36 14.6007C11.9621 14.88 11.5354 15.12 11.08 15.3207C10.6743 15.212 10.3809 14.972 10.2 14.6007C10.6907 14.2884 11.1975 13.995 11.72 13.7207Z"
            fill="#119AD1" />
        <path fill-rule="evenodd" clip-rule="evenodd"
            d="M10.2 14.5996C10.3809 14.9709 10.6743 15.2109 11.08 15.3196C10.8783 15.4411 10.6783 15.5745 10.48 15.7196C10.4408 15.823 10.4275 15.9298 10.44 16.0396C10.3867 16.3478 10.3334 16.6678 10.28 16.9996C10.061 16.777 9.83434 16.5637 9.60002 16.3596C9.58986 16.1584 9.52314 15.9718 9.40002 15.7996C9.40002 15.5862 9.40002 15.373 9.40002 15.1596C9.61002 14.8944 9.87666 14.7077 10.2 14.5996Z"
            fill="#06A0CB" />
        <path fill-rule="evenodd" clip-rule="evenodd"
            d="M9.40002 15.8008C9.52314 15.9729 9.58986 16.1596 9.60002 16.3608C9.83434 16.5649 10.061 16.7782 10.28 17.0008C10.3334 16.669 10.3867 16.349 10.44 16.0408C10.44 16.7341 10.44 17.4274 10.44 18.1208C10.3749 18.2913 10.3349 18.4779 10.32 18.6808C10.0261 18.4134 9.75938 18.1201 9.52002 17.8008C9.50146 17.8997 9.46146 17.9797 9.40002 18.0408C9.40002 17.2941 9.40002 16.5474 9.40002 15.8008Z"
            fill="#01A5C6" />
        <path fill-rule="evenodd" clip-rule="evenodd"
            d="M10.44 18.1208C10.3915 18.9946 10.4448 19.848 10.6 20.6808C10.6052 20.7158 10.592 20.7425 10.56 20.7608C10.4636 20.7151 10.3703 20.6617 10.28 20.6008C10.0259 20.3444 9.77251 20.0777 9.52003 19.8008C9.49339 20.0674 9.46667 20.3341 9.44003 20.6008C9.40003 19.7479 9.38667 18.8945 9.40003 18.0408C9.46147 17.9797 9.50147 17.8997 9.52003 17.8008C9.75939 18.1201 10.0261 18.4134 10.32 18.6808C10.3349 18.4779 10.3749 18.2913 10.44 18.1208Z"
            fill="#01ABC1" />
        <path fill-rule="evenodd" clip-rule="evenodd"
            d="M19.72 15.1602C19.813 17.1199 19.8264 19.0932 19.76 21.0802C19.5745 21.3535 19.3212 21.5402 19 21.6402C18.8786 21.6393 18.7853 21.586 18.72 21.4802C18.5787 21.247 18.4587 21.007 18.36 20.7602C18.4209 20.6889 18.5009 20.6355 18.6 20.6002C18.7056 18.9416 18.7056 17.2883 18.6 15.6402C18.7572 16.221 18.8105 16.8343 18.76 17.4802C18.7466 18.4406 18.76 19.4006 18.8 20.3602C18.8266 19.9602 18.8533 19.5602 18.88 19.1602C19.0767 19.5034 19.3433 19.7701 19.68 19.9602C19.72 19.3741 19.7333 18.7874 19.72 18.2002C19.72 17.1868 19.72 16.1735 19.72 15.1602Z"
            fill="#1896D9" />
        <path fill-rule="evenodd" clip-rule="evenodd"
            d="M19.72 18.1997C19.7333 18.787 19.72 19.3736 19.68 19.9597C19.3434 19.7696 19.0767 19.503 18.88 19.1597C18.8534 19.5597 18.8267 19.9597 18.8 20.3597C18.76 19.4001 18.7467 18.4401 18.76 17.4797C18.8133 17.2246 18.8667 16.9578 18.92 16.6797C19 16.733 19.08 16.7863 19.16 16.8397C19.5547 17.2058 19.7413 17.6592 19.72 18.1997Z"
            fill="#018ADC" />
        <path fill-rule="evenodd" clip-rule="evenodd"
            d="M9.40001 15.1602C9.40001 15.3735 9.40001 15.5868 9.40001 15.8002C9.40001 16.5468 9.40001 17.2935 9.40001 18.0402C9.38665 18.8939 9.40001 19.7473 9.44001 20.6002C9.46665 20.3335 9.49337 20.0668 9.52001 19.8002C9.77249 20.0771 10.0258 20.3438 10.28 20.6002C10.3702 20.6611 10.4636 20.7145 10.56 20.7602C10.5919 20.7419 10.6052 20.7152 10.6 20.6802C10.7322 20.693 10.8389 20.7462 10.92 20.8402C10.8195 20.837 10.7395 20.877 10.68 20.9602C11.4184 21.6851 12.1384 22.4184 12.84 23.1602C11.7393 22.5807 10.6459 21.9807 9.56001 21.3602C9.46393 21.2879 9.39721 21.1946 9.36001 21.0802C9.29361 19.0932 9.30697 17.1199 9.40001 15.1602Z"
            fill="#1FB3C1" />
        <path fill-rule="evenodd" clip-rule="evenodd"
            d="M10.92 20.84C12.2635 21.5251 13.5702 22.2717 14.84 23.08C14.673 23.3339 14.5263 23.6005 14.4 23.88C14.3551 23.9218 14.3018 23.9484 14.24 23.96C13.7501 23.7221 13.2834 23.4554 12.84 23.16C12.1384 22.4183 11.4184 21.685 10.68 20.96C10.7395 20.8769 10.8195 20.8369 10.92 20.84Z"
            fill="#13AEC2" />
        <path fill-rule="evenodd" clip-rule="evenodd"
            d="M18.36 20.7598C18.4587 21.0066 18.5787 21.2466 18.72 21.4798C18.7853 21.5856 18.8786 21.6389 19 21.6398C18.8292 21.7654 18.6426 21.8721 18.44 21.9598C18.2506 21.7723 18.0772 21.559 17.92 21.3198C17.9044 21.2142 17.9178 21.1075 17.96 20.9998C18.0719 20.8886 18.2053 20.8086 18.36 20.7598Z"
            fill="#24A0D5" />
        <path fill-rule="evenodd" clip-rule="evenodd"
            d="M17 21.5605C17.0489 21.954 17.2356 22.2473 17.56 22.4405C17.3892 22.5662 17.2025 22.6729 17 22.7605C16.6915 22.5465 16.4782 22.2532 16.36 21.8805C16.555 21.7392 16.7684 21.6325 17 21.5605Z"
            fill="#84CDE4" />
        <path fill-rule="evenodd" clip-rule="evenodd"
            d="M17.96 21C17.9178 21.1078 17.9044 21.2145 17.92 21.32C18.0772 21.5593 18.2506 21.7726 18.44 21.96C18.1601 22.14 17.8668 22.3 17.56 22.44C17.2356 22.2467 17.049 21.9534 17 21.56C17.2931 21.3332 17.6131 21.1466 17.96 21Z"
            fill="#4BB2DB" />
        <path fill-rule="evenodd" clip-rule="evenodd"
            d="M16.36 21.8809C16.4783 22.2535 16.6915 22.5468 17 22.7609C16.7651 22.9055 16.5251 23.0521 16.28 23.2009C16.1773 23.2556 16.0839 23.2422 16 23.1609C15.7773 22.9035 15.6706 22.6101 15.68 22.2809C15.9155 22.1567 16.1422 22.0233 16.36 21.8809Z"
            fill="#C1E6F1" />
    </g>
    <defs>
        <clipPath id="clip0_2981_76">
            <rect width="32" height="32" fill="white" />
        </clipPath>
    </defs>
</svg>