<svg width="32" height="32" viewBox="0 0 32 32" fill="none" xmlns="http://www.w3.org/2000/svg">
    <g clip-path="url(#clip0_4602_193)">
        <path opacity="0.083" fill-rule="evenodd" clip-rule="evenodd"
            d="M17.3438 -0.0305176C18.3438 -0.0305176 19.3438 -0.0305176 20.3438 -0.0305176C20.3646 0.051063 20.3854 0.051063 20.4062 -0.0305176C20.4271 -0.0305176 20.4479 -0.0305176 20.4688 -0.0305176C20.6614 0.0627676 20.8697 0.123953 21.0938 0.153039C21.0868 0.284446 21.1285 0.304842 21.2188 0.214224C22.0975 0.491861 22.9516 0.818186 23.7812 1.19319C24.223 1.41995 24.6605 1.66469 25.0938 1.92742C25.1304 1.91461 25.1616 1.89422 25.1875 1.86623C25.1906 2.04465 25.2635 2.10583 25.4062 2.04979C25.4479 2.11097 25.4896 2.17216 25.5312 2.23334C26.0019 2.49293 26.4394 2.79886 26.8438 3.15113C26.921 3.19676 27.0044 3.21716 27.0938 3.21231C27.1852 3.43268 27.3519 3.58565 27.5938 3.6712C27.5729 3.6916 27.5521 3.712 27.5312 3.73239C27.6556 3.8955 27.8222 3.99747 28.0312 4.03832C27.9646 4.10923 27.9854 4.16022 28.0938 4.19128C28.7427 4.84706 29.3469 5.54049 29.9062 6.27159C30.1566 6.63956 30.4066 7.00667 30.6562 7.37292C30.5729 7.3933 30.5729 7.41374 30.6562 7.43411C30.8189 7.61797 30.9648 7.81169 31.0938 8.01537C31.0729 8.03575 31.0521 8.05618 31.0312 8.07656C31.37 8.68884 31.6825 9.31085 31.9688 9.94271C31.9688 9.96309 31.9688 9.98353 31.9688 10.0039C31.8854 10.0243 31.8854 10.0447 31.9688 10.0651C31.9688 11.4724 31.9688 12.8796 31.9688 14.2869C31.8106 12.8805 31.4772 11.514 30.9688 10.1875C30.2487 8.22512 29.1653 6.49155 27.7188 4.98669C24.913 2.04295 21.4547 0.370552 17.3438 -0.0305176Z"
            fill="#FEFDFD" />
        <path opacity="0.999" fill-rule="evenodd" clip-rule="evenodd"
            d="M-0.03125 -0.0305176C5.76042 -0.0305176 11.5521 -0.0305176 17.3438 -0.0305176C21.4547 0.370552 24.913 2.04295 27.7188 4.98669C27.7269 5.0319 27.7165 5.07269 27.6875 5.10906C24.3424 1.82022 20.2799 0.188608 15.5 0.214224C10.5773 0.265117 5.65021 0.295709 0.71875 0.306002C0.428911 0.342374 0.178911 0.454547 -0.03125 0.642523C-0.03125 0.418176 -0.03125 0.193829 -0.03125 -0.0305176Z"
            fill="#443F2E" />
        <path opacity="0.012" fill-rule="evenodd" clip-rule="evenodd"
            d="M21.0938 0.0917969C21.1771 0.132587 21.1771 0.132587 21.0938 0.0917969Z"
            fill="#FEFFFE" />
        <path fill-rule="evenodd" clip-rule="evenodd"
            d="M27.7188 4.98663C29.1653 6.49149 30.2487 8.22506 30.9688 10.1874C30.9781 10.2518 30.9677 10.3129 30.9375 10.371C28.5866 5.11314 24.5346 1.90091 18.7812 0.734241C18.3041 0.65801 17.8249 0.596824 17.3438 0.550684C11.8229 0.509894 6.30206 0.509894 0.78125 0.550684C0.414666 0.59549 0.143833 0.768847 -0.03125 1.07076C-0.03125 0.927997 -0.03125 0.785227 -0.03125 0.642462C0.178911 0.454487 0.428911 0.342314 0.71875 0.305942C5.65021 0.295649 10.5773 0.265056 15.5 0.214164C20.2799 0.188548 24.3424 1.82016 27.6875 5.109C27.7165 5.07263 27.7269 5.03184 27.7188 4.98663Z"
            fill="#484230" />
        <path opacity="0.012" fill-rule="evenodd" clip-rule="evenodd"
            d="M22.0938 0.397705C22.1771 0.438496 22.1771 0.438496 22.0938 0.397705Z" fill="#FEFFFE" />
        <path fill-rule="evenodd" clip-rule="evenodd"
            d="M30.9688 10.1873C31.4772 11.5138 31.8106 12.8803 31.9688 14.2867C31.9688 15.0822 31.9688 15.8776 31.9688 16.673C31.9087 16.781 31.8878 16.9033 31.9062 17.0401C31.9502 11.4637 29.721 6.9869 25.2188 3.60989C22.5271 1.77296 19.5374 0.804189 16.25 0.703576C11.1739 0.749893 6.03845 0.780486 0.84375 0.795354C0.4375 0.866739 0.197917 1.10128 0.125 1.49899C0.114563 6.6896 0.0833125 11.87 0.03125 17.0401C0.0460816 16.9611 0.0252483 16.8999 -0.03125 16.8565C-0.03125 11.5946 -0.03125 6.33264 -0.03125 1.07069C0.143833 0.768775 0.414666 0.595418 0.78125 0.550612C6.30206 0.509822 11.8229 0.509822 17.3438 0.550612C17.8249 0.596752 18.3041 0.657938 18.7812 0.734169C24.5346 1.90083 28.5866 5.11307 30.9375 10.3709C30.9677 10.3129 30.9781 10.2517 30.9688 10.1873ZM18.8438 5.59841C18.8646 5.67999 18.8854 5.67999 18.9062 5.59841C19.3533 5.71043 19.7804 5.87358 20.1875 6.0879C20.2083 6.0675 20.2292 6.0471 20.25 6.02671C20.62 6.19791 20.9742 6.40184 21.3125 6.63857C21.3333 6.61819 21.3542 6.59776 21.375 6.57738C21.4417 6.61966 21.5146 6.65025 21.5938 6.66916C21.5729 6.68953 21.5521 6.70997 21.5312 6.73034C22.8414 7.42908 23.9664 8.37746 24.9062 9.57547C25.2076 10.0122 25.5201 10.4405 25.8438 10.8604C25.8307 10.8962 25.8098 10.9268 25.7812 10.9521C26.0476 11.2648 26.2559 11.6115 26.4062 11.9923C26.2909 12.1482 26.1451 12.1584 25.9688 12.0229C25.8449 11.6869 25.6782 11.3707 25.4688 11.0745C25.5038 10.9787 25.4621 10.8971 25.3438 10.8298C25.3646 10.8094 25.3854 10.789 25.4062 10.7686C25.1523 10.5506 24.9857 10.3058 24.9062 10.0344C24.3069 9.29671 23.6819 8.63389 23.0312 8.04583C22.865 7.9264 22.6984 7.80403 22.5312 7.67872C22.5104 7.59716 22.4896 7.59716 22.4688 7.67872C22.2403 7.45478 21.9694 7.31203 21.6562 7.25042C21.6661 7.16641 21.6556 7.08479 21.625 7.00568C21.5991 7.03364 21.5679 7.05408 21.5312 7.06686C21.3232 7.00678 21.1252 6.88441 20.9375 6.69975C20.801 6.73695 20.676 6.69614 20.5625 6.57738C20.5417 6.59776 20.5208 6.61819 20.5 6.63857C20.4792 6.57738 20.4583 6.5162 20.4375 6.45501C20.3245 6.47875 20.2203 6.47875 20.125 6.45501C19.9503 6.32371 19.7524 6.2523 19.5312 6.24086C19.4583 6.21027 19.4062 6.1593 19.375 6.0879C19.3491 6.11588 19.3179 6.13629 19.2812 6.14908C18.9892 6.06748 18.6976 5.9859 18.4062 5.90434C18.3474 5.91096 18.2953 5.93135 18.25 5.96553C17.9907 5.80579 17.7198 5.72421 17.4375 5.72078C13.1932 5.65029 8.98481 5.65029 4.8125 5.72078C4.61591 5.54374 4.60549 5.36019 4.78125 5.17012C8.65119 5.17177 12.5157 5.17177 16.375 5.17012C17.2346 5.21698 18.0575 5.35975 18.8438 5.59841Z"
            fill="#4E4834" />
        <path fill-rule="evenodd" clip-rule="evenodd"
            d="M31.9062 17.0401C31.7723 18.5415 31.4181 19.9895 30.8438 21.3843C30.8064 21.3699 30.7856 21.3393 30.7812 21.2925C32.3981 16.3763 31.7209 11.7772 28.75 7.4952C25.8007 3.53703 21.8111 1.38534 16.7812 1.04013C11.5729 0.999341 6.36456 0.999341 1.15625 1.04013C0.929581 1.07462 0.731662 1.1664 0.5625 1.31547C0.444604 1.58019 0.371687 1.85552 0.34375 2.14147C0.370477 6.76385 0.370477 11.4548 0.34375 16.2141C0.381624 18.1393 0.746206 20.0054 1.4375 21.8126C1.48623 21.9281 1.47581 22.0301 1.40625 22.1185C0.642325 20.5068 0.183992 18.8141 0.03125 17.0401C0.0833125 11.87 0.114563 6.68963 0.125 1.49902C0.197917 1.10132 0.4375 0.866777 0.84375 0.795391C6.03845 0.780523 11.1739 0.749931 16.25 0.703613C19.5374 0.804227 22.5271 1.77299 25.2188 3.60992C29.721 6.98693 31.9502 11.4637 31.9062 17.0401ZM18.8438 5.59845C18.8646 5.68003 18.8854 5.68003 18.9062 5.59845C19.3533 5.71046 19.7804 5.87362 20.1875 6.08793C20.2083 6.06754 20.2292 6.04714 20.25 6.02675C20.62 6.19795 20.9742 6.40188 21.3125 6.6386C21.3333 6.61823 21.3542 6.59779 21.375 6.57742C21.4417 6.6197 21.5146 6.65029 21.5938 6.6692C21.5729 6.68957 21.5521 6.71001 21.5312 6.73038C22.8414 7.42912 23.9664 8.37749 24.9062 9.57551C25.2076 10.0122 25.5201 10.4405 25.8438 10.8604C25.8307 10.8963 25.8098 10.9268 25.7812 10.9522C26.0476 11.2648 26.2559 11.6116 26.4062 11.9923C26.2909 12.1482 26.1451 12.1584 25.9688 12.0229C25.8449 11.6869 25.6782 11.3707 25.4688 11.0746C25.5038 10.9787 25.4621 10.8972 25.3438 10.8298C25.3646 10.8094 25.3854 10.789 25.4062 10.7686C25.1523 10.5506 24.9857 10.3059 24.9062 10.0344C24.3069 9.29675 23.6819 8.63392 23.0312 8.04587C22.865 7.92644 22.6984 7.80406 22.5312 7.67876C22.5104 7.5972 22.4896 7.5972 22.4688 7.67876C22.2403 7.45482 21.9694 7.31207 21.6562 7.25046C21.6661 7.16645 21.6556 7.08483 21.625 7.00572C21.5991 7.03368 21.5679 7.05411 21.5312 7.0669C21.3232 7.00682 21.1252 6.88445 20.9375 6.69979C20.801 6.73699 20.676 6.69618 20.5625 6.57742C20.5417 6.59779 20.5208 6.61823 20.5 6.6386C20.4792 6.57742 20.4583 6.51623 20.4375 6.45505C20.3245 6.47879 20.2203 6.47879 20.125 6.45505C19.9503 6.32374 19.7524 6.25234 19.5312 6.2409C19.4583 6.21031 19.4062 6.15934 19.375 6.08793C19.3491 6.11592 19.3179 6.13633 19.2812 6.14912C18.9892 6.06752 18.6976 5.98594 18.4062 5.90438C18.3474 5.911 18.2953 5.93139 18.25 5.96556C17.9907 5.80583 17.7198 5.72425 17.4375 5.72082C13.1932 5.65033 8.98481 5.65033 4.8125 5.72082C4.61591 5.54378 4.60549 5.36023 4.78125 5.17015C8.65119 5.17181 12.5157 5.17181 16.375 5.17015C17.2346 5.21701 18.0575 5.35978 18.8438 5.59845Z"
            fill="#544E38" />
        <path fill-rule="evenodd" clip-rule="evenodd"
            d="M30.8438 21.3843C29.2142 25.3557 26.4018 28.2212 22.4062 29.9808C17.2993 32.0158 12.3618 31.6895 7.59375 29.0019C4.83165 27.3076 2.76915 25.0131 1.40625 22.1185C1.47581 22.03 1.48623 21.928 1.4375 21.8126C0.746206 20.0054 0.381624 18.1393 0.34375 16.2141C0.370477 11.4547 0.370477 6.76383 0.34375 2.14145C0.371687 1.8555 0.444604 1.58017 0.5625 1.31545C0.731662 1.16638 0.929581 1.07461 1.15625 1.04012C6.36456 0.999323 11.5729 0.999323 16.7812 1.04012C21.8111 1.38532 25.8007 3.53702 28.75 7.49518C31.7209 11.7772 32.3981 16.3763 30.7812 21.2925C30.7856 21.3393 30.8064 21.3699 30.8438 21.3843ZM18.8438 5.59843C18.8646 5.68001 18.8854 5.68001 18.9062 5.59843C19.3533 5.71045 19.7804 5.8736 20.1875 6.08792C20.2083 6.06752 20.2292 6.04712 20.25 6.02673C20.62 6.19793 20.9742 6.40186 21.3125 6.63859C21.3333 6.61821 21.3542 6.59778 21.375 6.5774C21.4417 6.61968 21.5146 6.65027 21.5938 6.66918C21.5729 6.68955 21.5521 6.70999 21.5312 6.73036C22.8414 7.4291 23.9664 8.37748 24.9062 9.57549C25.2076 10.0122 25.5201 10.4405 25.8438 10.8604C25.8307 10.8962 25.8098 10.9268 25.7812 10.9522C26.0476 11.2648 26.2559 11.6116 26.4062 11.9923C26.2909 12.1482 26.1451 12.1584 25.9688 12.0229C25.8449 11.6869 25.6782 11.3707 25.4688 11.0745C25.5038 10.9787 25.4621 10.8972 25.3438 10.8298C25.3646 10.8094 25.3854 10.789 25.4062 10.7686C25.1523 10.5506 24.9857 10.3059 24.9062 10.0344C24.3069 9.29673 23.6819 8.63391 23.0312 8.04585C22.865 7.92642 22.6984 7.80405 22.5312 7.67874C22.5104 7.59718 22.4896 7.59718 22.4688 7.67874C22.2403 7.4548 21.9694 7.31205 21.6562 7.25044C21.6661 7.16643 21.6556 7.08481 21.625 7.0057C21.5991 7.03366 21.5679 7.0541 21.5312 7.06688C21.3232 7.0068 21.1252 6.88443 20.9375 6.69977C20.801 6.73697 20.676 6.69616 20.5625 6.5774C20.5417 6.59778 20.5208 6.61821 20.5 6.63859C20.4792 6.5774 20.4583 6.51622 20.4375 6.45503C20.3245 6.47877 20.2203 6.47877 20.125 6.45503C19.9503 6.32373 19.7524 6.25232 19.5312 6.24088C19.4583 6.21029 19.4062 6.15932 19.375 6.08792C19.3491 6.1159 19.3179 6.13631 19.2812 6.1491C18.9892 6.0675 18.6976 5.98592 18.4062 5.90436C18.3474 5.91098 18.2953 5.93137 18.25 5.96555C17.9907 5.80581 17.7198 5.72423 17.4375 5.7208C13.1932 5.65031 8.98481 5.65031 4.8125 5.7208C4.61591 5.54376 4.60549 5.36021 4.78125 5.17013C8.65119 5.17179 12.5157 5.17179 16.375 5.17013C17.2346 5.217 18.0575 5.35977 18.8438 5.59843ZM18.9062 12.8795C19.7189 13.5601 20.2501 14.3759 20.5 15.3269C20.5523 15.6254 20.6043 15.9212 20.6562 16.2141C20.6114 16.3647 20.5697 16.5177 20.5312 16.673C20.6076 16.9787 20.5451 17.2745 20.3438 17.5602C20.3806 17.6748 20.3389 17.7768 20.2188 17.8661C20.2604 17.8865 20.3021 17.9069 20.3438 17.9273C20.25 17.9783 20.1771 18.0497 20.125 18.1415C20.0864 18.1995 20.0968 18.2505 20.1562 18.2944C19.9262 18.5627 19.6971 18.8278 19.4688 19.0898C19.4896 19.1102 19.5104 19.1306 19.5312 19.151C19.376 19.2723 19.2302 19.4049 19.0938 19.5487C18.9669 19.4796 18.9461 19.5102 19.0312 19.6405C18.9479 19.6609 18.8646 19.6813 18.7812 19.7017C18.8021 19.7221 18.8229 19.7425 18.8438 19.7629C17.2643 21.0922 15.4934 21.2452 13.5312 20.2218C13.3465 20.0638 13.1694 19.9006 13 19.7323C12.9792 19.7527 12.9583 19.7731 12.9375 19.7935C12.8069 19.5956 12.6714 19.4528 12.5312 19.3652C12.4261 19.2824 12.3428 19.1804 12.2812 19.0592C12.1711 18.905 12.0461 18.7623 11.9062 18.6309C11.8321 18.486 11.7488 18.3432 11.6562 18.2026C11.7188 18.1823 11.7812 18.1618 11.8438 18.1415C11.9597 18.1317 12.043 18.1725 12.0938 18.2638C12.0104 18.2842 12.0104 18.3046 12.0938 18.325C12.1706 18.435 12.2122 18.5573 12.2188 18.6921C12.4882 18.9295 12.7278 19.1946 12.9375 19.4875C12.9583 19.4672 12.9792 19.4467 13 19.4263C13.2644 19.706 13.5352 19.9303 13.8125 20.0994C13.8384 20.0714 13.8696 20.051 13.9062 20.0382C14.0236 20.1081 14.1383 20.1693 14.25 20.2218C14.2708 20.2014 14.2917 20.1809 14.3125 20.1606C14.6192 20.2939 14.9421 20.3653 15.2812 20.3747C16.3582 20.5526 17.3374 20.3793 18.2188 19.8546C18.2396 19.9362 18.2604 19.9362 18.2812 19.8546C18.763 19.5762 19.1067 19.2499 19.3125 18.8757C19.3333 18.8961 19.3542 18.9165 19.375 18.9369C19.6749 18.4033 19.9145 17.8424 20.0938 17.2543C20.1144 16.6526 20.1144 16.0407 20.0938 15.4187C19.9119 15.0105 19.7765 14.5925 19.6875 14.1644C19.5899 13.9635 19.4546 13.7901 19.2812 13.6443C19.33 13.5787 19.3196 13.5073 19.25 13.4302C19.2292 13.4505 19.2083 13.471 19.1875 13.4914C19.1701 13.4353 19.1389 13.3946 19.0938 13.369C18.9706 13.2589 18.8664 13.1365 18.7812 13.0019C18.7604 12.9203 18.7396 12.9203 18.7188 13.0019C18.0614 12.5314 17.3217 12.2458 16.5 12.1453C16.3982 12.1818 16.2941 12.1614 16.1875 12.0841C12.9909 12.107 9.78256 12.107 6.5625 12.0841C6.27244 12.1517 5.99117 12.2333 5.71875 12.3288C5.58949 12.3824 5.46449 12.4537 5.34375 12.543C5.38542 12.5634 5.42708 12.5838 5.46875 12.6042C5.32885 12.7329 5.26635 12.8757 5.28125 13.0325C5.23074 13.1602 5.16824 13.2826 5.09375 13.3996C5.02057 14.4959 5.02057 15.6177 5.09375 16.7648C5.14038 16.9655 5.18204 17.1695 5.21875 17.3766C5.15614 17.4847 5.17697 17.5867 5.28125 17.6826C5.26177 18.298 5.38677 18.9099 5.65625 19.5181C5.63542 19.5385 5.61458 19.5589 5.59375 19.5793C5.71591 19.712 5.75758 19.8548 5.71875 20.0076C5.83949 20.23 5.96449 20.4748 6.09375 20.7418C6.07292 20.7622 6.05208 20.7826 6.03125 20.803C6.16026 20.9634 6.26444 21.1062 6.34375 21.2313C6.34375 21.3129 6.34375 21.3945 6.34375 21.4761C6.44081 21.5432 6.52413 21.6247 6.59375 21.7208C6.60331 21.8805 6.68663 22.0232 6.84375 22.1491C6.82294 22.1695 6.80206 22.1899 6.78125 22.2103C6.91744 22.2373 6.95906 22.2985 6.90625 22.3938C7.04494 22.5017 7.16994 22.6241 7.28125 22.761C7.26044 22.7813 7.23956 22.8018 7.21875 22.8221C7.35769 22.862 7.43063 22.9538 7.4375 23.0975C7.47919 23.0159 7.52081 23.0159 7.5625 23.0975C7.60106 23.1555 7.59069 23.2065 7.53125 23.2504C7.59375 23.2708 7.65625 23.2913 7.71875 23.3116C7.79644 23.4411 7.86931 23.5736 7.9375 23.7093C7.95831 23.689 7.97919 23.6685 8 23.6481C8.08531 23.8049 8.19994 23.9273 8.34375 24.0153C8.56806 24.1855 8.79725 24.3997 9.03125 24.6577C9.54325 24.9591 10.0432 25.2752 10.5312 25.6061C10.5698 25.5993 10.6011 25.5789 10.625 25.5449C10.8398 25.7411 11.0689 25.8634 11.3125 25.912C11.5023 26.1023 11.7106 26.2247 11.9375 26.2791C12.2139 26.2748 12.4743 26.3565 12.7188 26.5239C12.8426 26.4339 12.9468 26.4544 13.0312 26.585C13.0679 26.5723 13.0991 26.5518 13.125 26.5239C13.3612 26.5868 13.5903 26.6683 13.8125 26.7686C14.0456 26.7639 14.2747 26.7639 14.5 26.7686C14.6328 26.8131 14.7682 26.8539 14.9062 26.891C15.6128 26.8776 16.3003 26.8776 16.9688 26.891C17.2202 26.8035 17.4493 26.7831 17.6562 26.8298C18.0299 26.7467 18.3945 26.6447 18.75 26.5239C18.7983 26.5327 18.8399 26.5531 18.875 26.585C19.139 26.5056 19.389 26.4036 19.625 26.2791C19.7647 26.3243 19.8897 26.3243 20 26.2791C20.4445 26.0171 20.9341 25.7826 21.4688 25.5755C21.5676 25.4581 21.6718 25.4071 21.7812 25.4225C22.0434 25.1797 22.3559 24.935 22.7188 24.6883C22.7554 24.7011 22.7866 24.7215 22.8125 24.7495C22.827 24.6738 22.8582 24.6126 22.9062 24.5659C23.2978 24.3133 23.6208 24.0277 23.875 23.7093C23.8958 23.7297 23.9167 23.7501 23.9375 23.7705C24.0071 23.6934 24.0175 23.622 23.9688 23.5564C24.3823 23.1242 24.7573 22.7061 25.0938 22.3021C25.7649 21.1125 26.2649 19.8786 26.5938 18.6003C26.5017 18.2009 26.6684 18.0377 27.0938 18.1109C27.0938 18.2944 27.0938 18.478 27.0938 18.6615C27.0859 18.8404 27.0026 19.0036 26.8438 19.151C26.9127 19.2538 26.8919 19.3456 26.7812 19.4263C26.8359 19.5613 26.7942 19.6734 26.6562 19.7629C26.6562 19.8649 26.6562 19.9668 26.6562 20.0688C26.4517 20.4121 26.2746 20.769 26.125 21.1395C26.027 21.2665 25.9333 21.3889 25.8438 21.5067C25.8018 21.5891 25.8018 21.6605 25.8438 21.7208C25.7892 21.7847 25.7267 21.8357 25.6562 21.8738C25.6011 22.0698 25.4969 22.233 25.3438 22.3633C25.2274 22.5176 25.1024 22.6705 24.9688 22.8221C25.0445 22.8899 25.0237 22.9205 24.9062 22.9139C24.8886 22.9921 24.8469 23.0533 24.7812 23.0975C24.7011 23.2373 24.5969 23.3597 24.4688 23.4646C24.38 23.6418 24.2342 23.754 24.0312 23.8011C24.0907 23.845 24.1011 23.896 24.0625 23.9541C23.7914 24.1716 23.5518 24.3756 23.3438 24.5659C22.8422 25.0762 22.2589 25.4636 21.5938 25.7285C21.5744 25.829 21.5119 25.8902 21.4062 25.912C21.332 25.9649 21.2591 26.0261 21.1875 26.0956C21.1667 26.0548 21.1458 26.014 21.125 25.9732C21.0856 26.1654 20.9814 26.2266 20.8125 26.1568C20.7849 26.2901 20.7224 26.3308 20.625 26.2791C20.5 26.3607 20.375 26.4423 20.25 26.5239C20.1891 26.3784 20.1474 26.3988 20.125 26.585C20.1042 26.5647 20.0833 26.5442 20.0625 26.5239C19.3702 26.8696 18.6827 27.0736 18 27.1357C17.7819 27.1929 17.5631 27.2541 17.3438 27.3193C17.1891 27.2466 17.0432 27.2671 16.9062 27.3805C16.2996 27.3688 15.7059 27.3688 15.125 27.3805C15.0625 27.3396 15 27.2989 14.9375 27.2581C14.8281 27.2993 14.7239 27.3197 14.625 27.3193C14.3504 27.2957 14.0691 27.2345 13.7812 27.1357C13.7604 27.0542 13.7396 27.0542 13.7188 27.1357C13.4024 27.1138 13.1107 27.0322 12.8438 26.891C12.4978 26.7979 12.1957 26.6755 11.9375 26.5239C11.6114 26.4776 11.2989 26.3552 11 26.1568C10.9792 26.1771 10.9583 26.1976 10.9375 26.2179C10.8314 26.1094 10.7168 26.0074 10.5938 25.912C10.5142 25.9271 10.4412 25.9271 10.375 25.912C10.2066 25.7126 10.0087 25.5495 9.78125 25.4225C9.53819 25.3045 9.28819 25.1515 9.03125 24.9636C8.64362 24.6561 8.26862 24.2992 7.90625 23.8929C7.97169 23.8575 7.96125 23.8168 7.875 23.7705C7.85006 23.7845 7.83969 23.8049 7.84375 23.8317C7.38537 23.358 6.94787 22.8277 6.53125 22.2409C6.37269 22.0022 6.20603 21.7676 6.03125 21.5372C6.05208 21.5169 6.07292 21.4964 6.09375 21.4761C6.01042 21.3945 5.92708 21.3129 5.84375 21.2313C5.82284 21.1601 5.82284 21.0785 5.84375 20.9866C5.76042 20.905 5.67708 20.8234 5.59375 20.7418C5.61458 20.7215 5.63542 20.701 5.65625 20.6807C5.52435 20.4912 5.42018 20.2872 5.34375 20.0688C5.36458 20.0484 5.38542 20.028 5.40625 20.0076C5.29308 19.8494 5.18892 19.6863 5.09375 19.5181C5.17837 19.3984 5.15754 19.276 5.03125 19.151C5.05208 19.1306 5.07292 19.1102 5.09375 19.0898C4.96993 19.0528 4.94909 18.9916 5.03125 18.9063C4.91278 18.7389 4.87111 18.5656 4.90625 18.3862C4.87646 18.3264 4.83479 18.2754 4.78125 18.2332C4.80208 18.2129 4.82292 18.1924 4.84375 18.172C4.73314 17.687 4.64981 17.1975 4.59375 16.7036C4.5803 15.0301 4.60113 13.3475 4.65625 11.6558C8.53444 11.6213 12.4719 11.6213 16.4688 11.6558C17.4037 11.8636 18.2162 12.2716 18.9062 12.8795Z"
            fill="#5C553E" />
        <path opacity="0.012" fill-rule="evenodd" clip-rule="evenodd"
            d="M23.7812 1.13184C23.8646 1.17263 23.8646 1.17263 23.7812 1.13184Z" fill="#FEFFFE" />
        <path fill-rule="evenodd" clip-rule="evenodd"
            d="M1.09378 1.37663C6.44796 1.36643 11.8022 1.37663 17.1563 1.40722C22.1375 1.88359 26.0228 4.13726 28.8125 8.16821C31.7421 13.085 31.9713 18.1022 29.5 23.2198C26.7597 27.9582 22.6138 30.6096 17.0625 31.1739C10.9896 31.3831 6.28128 29.0172 2.93753 24.0764C1.59302 21.8406 0.853438 19.4238 0.718776 16.826C0.708751 11.852 0.719163 6.86539 0.750026 1.86611C0.780638 1.64302 0.89522 1.47986 1.09378 1.37663ZM18.8438 5.59843C18.8646 5.68 18.8855 5.68 18.9063 5.59843C19.3533 5.71044 19.7804 5.87359 20.1875 6.08791C20.2083 6.06752 20.2292 6.04712 20.25 6.02672C20.62 6.19792 20.9742 6.40185 21.3125 6.63858C21.3333 6.6182 21.3542 6.59777 21.375 6.57739C21.4417 6.61967 21.5147 6.65026 21.5938 6.66917C21.573 6.68955 21.5521 6.70998 21.5313 6.73036C22.8415 7.42909 23.9665 8.37747 24.9063 9.57548C25.2076 10.0122 25.5201 10.4405 25.8438 10.8604C25.8307 10.8962 25.8098 10.9268 25.7813 10.9522C26.0476 11.2648 26.2559 11.6115 26.4063 11.9923C26.291 12.1482 26.1452 12.1584 25.9688 12.0229C25.8449 11.6869 25.6782 11.3707 25.4688 11.0745C25.5038 10.9787 25.4622 10.8971 25.3438 10.8298C25.3646 10.8094 25.3855 10.789 25.4063 10.7686C25.1523 10.5506 24.9857 10.3059 24.9063 10.0344C24.3069 9.29672 23.6819 8.6339 23.0313 8.04584C22.865 7.92641 22.6984 7.80404 22.5313 7.67873C22.5105 7.59717 22.4896 7.59717 22.4688 7.67873C22.2403 7.45479 21.9695 7.31205 21.6563 7.25043C21.6661 7.16643 21.6557 7.0848 21.625 7.00569C21.5992 7.03365 21.5679 7.05409 21.5313 7.06688C21.3232 7.00679 21.1253 6.88442 20.9375 6.69976C20.801 6.73696 20.676 6.69615 20.5625 6.57739C20.5417 6.59777 20.5208 6.6182 20.5 6.63858C20.4792 6.57739 20.4583 6.51621 20.4375 6.45502C20.3245 6.47876 20.2203 6.47876 20.125 6.45502C19.9503 6.32372 19.7525 6.25231 19.5313 6.24087C19.4583 6.21028 19.4063 6.15931 19.375 6.08791C19.3492 6.1159 19.3179 6.13631 19.2813 6.14909C18.9892 6.06749 18.6976 5.98591 18.4063 5.90435C18.3474 5.91097 18.2953 5.93137 18.25 5.96554C17.9907 5.8058 17.7198 5.72422 17.4375 5.7208C13.1932 5.6503 8.98484 5.6503 4.81253 5.7208C4.61593 5.54376 4.60552 5.3602 4.78128 5.17013C8.65121 5.17178 12.5158 5.17178 16.375 5.17013C17.2346 5.21699 18.0575 5.35976 18.8438 5.59843ZM18.9063 12.8795C19.7189 13.5601 20.2502 14.3759 20.5 15.3269C20.5523 15.6254 20.6043 15.9211 20.6563 16.2141C20.6114 16.3647 20.5697 16.5176 20.5313 16.673C20.6077 16.9787 20.5452 17.2744 20.3438 17.5602C20.3806 17.6748 20.3389 17.7768 20.2188 17.8661C20.2605 17.8865 20.3021 17.9069 20.3438 17.9273C20.25 17.9783 20.1771 18.0497 20.125 18.1414C20.0865 18.1995 20.0968 18.2505 20.1563 18.2944C19.9263 18.5626 19.6972 18.8278 19.4688 19.0898C19.4896 19.1102 19.5105 19.1306 19.5313 19.151C19.376 19.2723 19.2302 19.4049 19.0938 19.5487C18.967 19.4796 18.9461 19.5102 19.0313 19.6405C18.948 19.6609 18.8646 19.6813 18.7813 19.7017C18.8021 19.722 18.823 19.7425 18.8438 19.7629C17.2643 21.0922 15.4935 21.2452 13.5313 20.2218C13.3465 20.0638 13.1694 19.9006 13 19.7323C12.9792 19.7526 12.9583 19.7731 12.9375 19.7935C12.8069 19.5956 12.6715 19.4528 12.5313 19.3652C12.4261 19.2824 12.3428 19.1804 12.2813 19.0592C12.1711 18.905 12.0461 18.7623 11.9063 18.6309C11.8321 18.486 11.7488 18.3432 11.6563 18.2026C11.7188 18.1823 11.7813 18.1618 11.8438 18.1414C11.9597 18.1317 12.043 18.1725 12.0938 18.2638C12.0105 18.2842 12.0105 18.3046 12.0938 18.325C12.1707 18.435 12.2123 18.5573 12.2188 18.6921C12.4883 18.9295 12.7278 19.1946 12.9375 19.4875C12.9583 19.4672 12.9792 19.4467 13 19.4263C13.2644 19.706 13.5352 19.9303 13.8125 20.0994C13.8384 20.0714 13.8697 20.051 13.9063 20.0382C14.0237 20.1081 14.1383 20.1693 14.25 20.2218C14.2708 20.2014 14.2917 20.1809 14.3125 20.1606C14.6193 20.2939 14.9422 20.3653 15.2813 20.3747C16.3582 20.5526 17.3374 20.3792 18.2188 19.8546C18.2396 19.9362 18.2605 19.9362 18.2813 19.8546C18.763 19.5762 19.1068 19.2499 19.3125 18.8757C19.3333 18.896 19.3542 18.9165 19.375 18.9369C19.675 18.4033 19.9145 17.8424 20.0938 17.2543C20.1145 16.6526 20.1145 16.0407 20.0938 15.4187C19.912 15.0105 19.7765 14.5924 19.6875 14.1644C19.59 13.9635 19.4546 13.7901 19.2813 13.6443C19.33 13.5787 19.3196 13.5073 19.25 13.4302C19.2292 13.4505 19.2083 13.471 19.1875 13.4914C19.1702 13.4353 19.1389 13.3946 19.0938 13.369C18.9706 13.2588 18.8664 13.1365 18.7813 13.0019C18.7605 12.9203 18.7396 12.9203 18.7188 13.0019C18.0614 12.5314 17.3218 12.2458 16.5 12.1453C16.3983 12.1818 16.2941 12.1614 16.1875 12.0841C12.9909 12.107 9.78259 12.107 6.56253 12.0841C6.27246 12.1517 5.99119 12.2333 5.71878 12.3288C5.58952 12.3824 5.46452 12.4537 5.34378 12.543C5.38544 12.5634 5.42711 12.5838 5.46878 12.6042C5.32888 12.7329 5.26638 12.8757 5.28128 13.0325C5.23077 13.1602 5.16827 13.2826 5.09378 13.3996C5.02059 14.4959 5.02059 15.6177 5.09378 16.7648C5.14041 16.9655 5.18207 17.1695 5.21878 17.3766C5.15617 17.4847 5.177 17.5867 5.28128 17.6826C5.26179 18.298 5.38679 18.9099 5.65628 19.5181C5.63544 19.5385 5.61461 19.5589 5.59378 19.5793C5.71593 19.712 5.7576 19.8548 5.71878 20.0076C5.83951 20.23 5.96451 20.4748 6.09378 20.7418C6.07294 20.7622 6.05211 20.7826 6.03128 20.803C6.16028 20.9634 6.26446 21.1062 6.34378 21.2313C6.34378 21.3129 6.34378 21.3945 6.34378 21.4761C6.44084 21.5432 6.52415 21.6247 6.59378 21.7208C6.60334 21.8805 6.68665 22.0232 6.84378 22.1491C6.82296 22.1695 6.80209 22.1899 6.78128 22.2103C6.91746 22.2373 6.95909 22.2985 6.90628 22.3938C7.04496 22.5017 7.16996 22.6241 7.28128 22.7609C7.26046 22.7813 7.23959 22.8018 7.21878 22.8221C7.35771 22.862 7.43065 22.9538 7.43753 23.0975C7.47921 23.0159 7.52084 23.0159 7.56253 23.0975C7.60109 23.1555 7.59071 23.2065 7.53128 23.2504C7.59378 23.2708 7.65628 23.2912 7.71878 23.3116C7.79646 23.4411 7.86934 23.5736 7.93753 23.7093C7.95834 23.6889 7.97921 23.6685 8.00003 23.6481C8.08534 23.8049 8.19996 23.9273 8.34378 24.0152C8.56809 24.1855 8.79728 24.3997 9.03128 24.6577C9.54328 24.9591 10.0433 25.2752 10.5313 25.6061C10.5698 25.5993 10.6011 25.5789 10.625 25.5449C10.8398 25.741 11.0689 25.8634 11.3125 25.912C11.5023 26.1023 11.7107 26.2247 11.9375 26.2791C12.2139 26.2748 12.4743 26.3565 12.7188 26.5239C12.8427 26.4339 12.9468 26.4543 13.0313 26.585C13.0679 26.5723 13.0992 26.5518 13.125 26.5239C13.3612 26.5868 13.5903 26.6683 13.8125 26.7686C14.0456 26.7639 14.2747 26.7639 14.5 26.7686C14.6328 26.8131 14.7682 26.8539 14.9063 26.891C15.6128 26.8776 16.3003 26.8776 16.9688 26.891C17.2202 26.8035 17.4493 26.7831 17.6563 26.8298C18.03 26.7467 18.3945 26.6447 18.75 26.5239C18.7983 26.5327 18.84 26.5531 18.875 26.585C19.139 26.5056 19.389 26.4036 19.625 26.2791C19.7647 26.3243 19.8897 26.3243 20 26.2791C20.4445 26.0171 20.9342 25.7826 21.4688 25.5755C21.5676 25.4581 21.6718 25.4071 21.7813 25.4225C22.0434 25.1797 22.3559 24.935 22.7188 24.6883C22.7554 24.7011 22.7867 24.7215 22.8125 24.7495C22.827 24.6738 22.8583 24.6126 22.9063 24.5659C23.2978 24.3133 23.6208 24.0277 23.875 23.7093C23.8958 23.7297 23.9167 23.7501 23.9375 23.7705C24.0071 23.6934 24.0175 23.622 23.9688 23.5564C24.3823 23.1242 24.7573 22.7061 25.0938 22.3021C25.765 21.1125 26.265 19.8786 26.5938 18.6003C26.5018 18.2009 26.6685 18.0377 27.0938 18.1109C27.0938 18.2944 27.0938 18.478 27.0938 18.6615C27.0859 18.8404 27.0026 19.0036 26.8438 19.151C26.9127 19.2538 26.8919 19.3456 26.7813 19.4263C26.8359 19.5613 26.7943 19.6734 26.6563 19.7629C26.6563 19.8649 26.6563 19.9668 26.6563 20.0688C26.4517 20.4121 26.2746 20.769 26.125 21.1395C26.027 21.2665 25.9333 21.3889 25.8438 21.5066C25.8018 21.5891 25.8018 21.6605 25.8438 21.7208C25.7892 21.7847 25.7267 21.8357 25.6563 21.8738C25.6011 22.0698 25.4969 22.233 25.3438 22.3632C25.2275 22.5176 25.1025 22.6705 24.9688 22.8221C25.0445 22.8899 25.0237 22.9205 24.9063 22.9139C24.8887 22.9921 24.847 23.0533 24.7813 23.0975C24.7012 23.2373 24.597 23.3596 24.4688 23.4646C24.38 23.6418 24.2342 23.754 24.0313 23.8011C24.0907 23.845 24.1011 23.896 24.0625 23.9541C23.7914 24.1716 23.5518 24.3756 23.3438 24.5659C22.8423 25.0761 22.259 25.4636 21.5938 25.7284C21.5744 25.829 21.5119 25.8902 21.4063 25.912C21.332 25.9649 21.2591 26.026 21.1875 26.0956C21.1667 26.0547 21.1458 26.014 21.125 25.9732C21.0856 26.1654 20.9814 26.2266 20.8125 26.1567C20.7849 26.2901 20.7224 26.3308 20.625 26.2791C20.5 26.3607 20.375 26.4423 20.25 26.5239C20.1892 26.3784 20.1475 26.3988 20.125 26.585C20.1042 26.5647 20.0833 26.5442 20.0625 26.5239C19.3702 26.8696 18.6827 27.0735 18 27.1357C17.7819 27.1929 17.5632 27.254 17.3438 27.3193C17.1891 27.2466 17.0432 27.2671 16.9063 27.3805C16.2997 27.3688 15.7059 27.3688 15.125 27.3805C15.0625 27.3396 15 27.2989 14.9375 27.2581C14.8281 27.2993 14.724 27.3197 14.625 27.3193C14.3504 27.2957 14.0692 27.2345 13.7813 27.1357C13.7605 27.0541 13.7396 27.0541 13.7188 27.1357C13.4025 27.1137 13.1108 27.0322 12.8438 26.891C12.4978 26.7979 12.1958 26.6755 11.9375 26.5239C11.6115 26.4776 11.299 26.3552 11 26.1567C10.9792 26.1771 10.9583 26.1976 10.9375 26.2179C10.8314 26.1094 10.7168 26.0074 10.5938 25.912C10.5142 25.9271 10.4413 25.9271 10.375 25.912C10.2066 25.7126 10.0087 25.5495 9.78128 25.4225C9.53821 25.3045 9.28821 25.1515 9.03128 24.9636C8.64365 24.6561 8.26865 24.2992 7.90628 23.8929C7.97171 23.8575 7.96128 23.8168 7.87503 23.7705C7.85009 23.7845 7.83971 23.8049 7.84378 23.8317C7.3854 23.358 6.9479 22.8277 6.53128 22.2409C6.37271 22.0022 6.20605 21.7676 6.03128 21.5372C6.05211 21.5169 6.07294 21.4964 6.09378 21.4761C6.01044 21.3945 5.92711 21.3129 5.84378 21.2313C5.82286 21.1601 5.82286 21.0785 5.84378 20.9866C5.76044 20.905 5.67711 20.8234 5.59378 20.7418C5.61461 20.7215 5.63544 20.701 5.65628 20.6806C5.52438 20.4912 5.42021 20.2872 5.34378 20.0688C5.36461 20.0484 5.38544 20.028 5.40628 20.0076C5.29311 19.8494 5.18894 19.6863 5.09378 19.5181C5.17839 19.3984 5.15756 19.276 5.03128 19.151C5.05211 19.1306 5.07294 19.1102 5.09378 19.0898C4.96995 19.0528 4.94911 18.9916 5.03128 18.9063C4.91281 18.7389 4.87114 18.5656 4.90628 18.3862C4.87648 18.3263 4.83482 18.2754 4.78128 18.2332C4.80211 18.2128 4.82294 18.1924 4.84378 18.172C4.73317 17.687 4.64984 17.1975 4.59378 16.7036C4.58033 15.03 4.60116 13.3474 4.65628 11.6558C8.53446 11.6213 12.472 11.6213 16.4688 11.6558C17.4037 11.8636 18.2162 12.2716 18.9063 12.8795Z"
            fill="#5F573F" />
        <path fill-rule="evenodd" clip-rule="evenodd"
            d="M1.46875 1.5603C6.57713 1.5685 11.6917 1.5685 16.8125 1.5603C17.2192 1.64367 17.615 1.70486 18 1.74386C18.0625 1.72347 18.125 1.70307 18.1875 1.68267C18.3904 1.7633 18.5987 1.82449 18.8125 1.86623C18.8333 1.84584 18.8542 1.82544 18.875 1.80504C19.5315 2.00988 20.1773 2.19344 20.8125 2.35571C20.8333 2.33532 20.8542 2.31492 20.875 2.29453C21.0457 2.41889 21.2332 2.52087 21.4375 2.60046C21.4583 2.58006 21.4792 2.55966 21.5 2.53927C21.5913 2.65689 21.6954 2.69769 21.8125 2.66164C21.8699 2.79211 21.9532 2.8329 22.0625 2.78401C22.1538 2.90164 22.2579 2.94243 22.375 2.90638C22.7332 3.1077 23.1082 3.33204 23.5 3.57942C25.703 4.79794 27.453 6.47038 28.75 8.59663C30.874 12.0529 31.4782 15.7852 30.5625 19.7936C29.1724 24.6039 26.2037 27.9691 21.6562 29.8892C21.5588 29.9243 21.4651 29.965 21.375 30.0115C21.3033 29.9529 21.2408 29.9733 21.1875 30.0727C21.0833 30.0727 20.9792 30.0727 20.875 30.0727C20.8488 30.1444 20.8072 30.2056 20.75 30.2563C20.6194 30.2413 20.4944 30.2413 20.375 30.2563C20.2922 30.3407 20.2089 30.3612 20.125 30.3175C20.1042 30.3583 20.0833 30.399 20.0625 30.4398C19.9375 30.4398 19.8125 30.4398 19.6875 30.4398C19.6677 30.55 19.626 30.5704 19.5625 30.501C17.7715 30.9774 15.9069 31.0896 13.9688 30.8375C13.8475 30.7637 13.7329 30.7535 13.625 30.807C13.4911 30.6946 13.3557 30.6741 13.2188 30.7458C13.0308 30.7112 12.8537 30.65 12.6875 30.5622C9.23625 29.9188 6.25706 28.022 3.75 24.872C2.30253 22.8447 1.40669 20.6012 1.0625 18.1416C0.997406 16.7618 0.945325 15.3851 0.90625 14.0115C0.955288 10.0919 0.955288 6.17601 0.90625 2.26394C0.955137 2.09626 0.986387 1.9229 1 1.74386C1.14866 1.65411 1.30491 1.59292 1.46875 1.5603ZM18.8438 5.59854C18.8646 5.68012 18.8854 5.68012 18.9062 5.59854C19.3533 5.71056 19.7804 5.87371 20.1875 6.08803C20.2083 6.06763 20.2292 6.04724 20.25 6.02684C20.62 6.19804 20.9742 6.40197 21.3125 6.6387C21.3333 6.61832 21.3542 6.59789 21.375 6.57751C21.4417 6.61979 21.5146 6.65038 21.5938 6.66929C21.5729 6.68966 21.5521 6.7101 21.5312 6.73047C22.8414 7.42921 23.9664 8.37759 24.9062 9.5756C25.2076 10.0123 25.5201 10.4406 25.8438 10.8605C25.8307 10.8963 25.8098 10.9269 25.7812 10.9523C26.0476 11.2649 26.2559 11.6117 26.4062 11.9924C26.2909 12.1483 26.1451 12.1585 25.9688 12.023C25.8449 11.687 25.6782 11.3708 25.4688 11.0746C25.5038 10.9788 25.4621 10.8973 25.3438 10.8299C25.3646 10.8095 25.3854 10.7891 25.4062 10.7687C25.1523 10.5507 24.9857 10.306 24.9062 10.0345C24.3069 9.29684 23.6819 8.63402 23.0312 8.04596C22.865 7.92653 22.6984 7.80416 22.5312 7.67885C22.5104 7.59729 22.4896 7.59729 22.4688 7.67885C22.2403 7.45491 21.9694 7.31217 21.6562 7.25055C21.6661 7.16654 21.6556 7.08492 21.625 7.00581C21.5991 7.03377 21.5679 7.05421 21.5312 7.06699C21.3232 7.00691 21.1252 6.88454 20.9375 6.69988C20.801 6.73708 20.676 6.69627 20.5625 6.57751C20.5417 6.59789 20.5208 6.61832 20.5 6.6387C20.4792 6.57751 20.4583 6.51633 20.4375 6.45514C20.3245 6.47888 20.2203 6.47888 20.125 6.45514C19.9503 6.32384 19.7524 6.25243 19.5312 6.24099C19.4583 6.2104 19.4062 6.15943 19.375 6.08803C19.3491 6.11601 19.3179 6.13643 19.2812 6.14921C18.9892 6.06761 18.6976 5.98603 18.4062 5.90447C18.3474 5.91109 18.2953 5.93148 18.25 5.96566C17.9907 5.80592 17.7198 5.72434 17.4375 5.72091C13.1932 5.65042 8.98481 5.65042 4.8125 5.72091C4.61591 5.54387 4.60549 5.36032 4.78125 5.17025C8.65119 5.1719 12.5157 5.1719 16.375 5.17025C17.2346 5.21711 18.0575 5.35988 18.8438 5.59854ZM18.9062 12.8796C19.7189 13.5602 20.2501 14.376 20.5 15.327C20.5523 15.6256 20.6043 15.9213 20.6562 16.2142C20.6114 16.3648 20.5697 16.5178 20.5312 16.6731C20.6076 16.9789 20.5451 17.2746 20.3438 17.5603C20.3806 17.6749 20.3389 17.7769 20.2188 17.8662C20.2604 17.8866 20.3021 17.907 20.3438 17.9274C20.25 17.9784 20.1771 18.0498 20.125 18.1416C20.0864 18.1996 20.0968 18.2506 20.1562 18.2945C19.9262 18.5628 19.6971 18.8279 19.4688 19.0899C19.4896 19.1103 19.5104 19.1308 19.5312 19.1511C19.376 19.2725 19.2302 19.405 19.0938 19.5488C18.9669 19.4798 18.9461 19.5103 19.0312 19.6406C18.9479 19.661 18.8646 19.6814 18.7812 19.7018C18.8021 19.7222 18.8229 19.7426 18.8438 19.763C17.2643 21.0924 15.4934 21.2453 13.5312 20.2219C13.3465 20.0639 13.1694 19.9007 13 19.7324C12.9792 19.7528 12.9583 19.7732 12.9375 19.7936C12.8069 19.5957 12.6714 19.453 12.5312 19.3653C12.4261 19.2825 12.3428 19.1805 12.2812 19.0593C12.1711 18.9052 12.0461 18.7624 11.9062 18.631C11.8321 18.4861 11.7488 18.3434 11.6562 18.2028C11.7188 18.1824 11.7812 18.1619 11.8438 18.1416C11.9597 18.1318 12.043 18.1726 12.0938 18.2639C12.0104 18.2843 12.0104 18.3047 12.0938 18.3251C12.1706 18.4351 12.2122 18.5574 12.2188 18.6922C12.4882 18.9296 12.7278 19.1947 12.9375 19.4876C12.9583 19.4673 12.9792 19.4468 13 19.4265C13.2644 19.7061 13.5352 19.9304 13.8125 20.0995C13.8384 20.0715 13.8696 20.0511 13.9062 20.0383C14.0236 20.1082 14.1383 20.1694 14.25 20.2219C14.2708 20.2015 14.2917 20.1811 14.3125 20.1607C14.6192 20.294 14.9421 20.3654 15.2812 20.3748C16.3582 20.5527 17.3374 20.3794 18.2188 19.8548C18.2396 19.9363 18.2604 19.9363 18.2812 19.8548C18.763 19.5763 19.1067 19.25 19.3125 18.8758C19.3333 18.8962 19.3542 18.9166 19.375 18.937C19.6749 18.4034 19.9145 17.8425 20.0938 17.2544C20.1144 16.6527 20.1144 16.0408 20.0938 15.4188C19.9119 15.0106 19.7765 14.5926 19.6875 14.1645C19.5899 13.9636 19.4546 13.7902 19.2812 13.6444C19.33 13.5788 19.3196 13.5074 19.25 13.4303C19.2292 13.4507 19.2083 13.4711 19.1875 13.4915C19.1701 13.4354 19.1389 13.3947 19.0938 13.3691C18.9706 13.259 18.8664 13.1366 18.7812 13.002C18.7604 12.9204 18.7396 12.9204 18.7188 13.002C18.0614 12.5315 17.3217 12.2459 16.5 12.1454C16.3982 12.1819 16.2941 12.1615 16.1875 12.0842C12.9909 12.1071 9.78256 12.1071 6.5625 12.0842C6.27244 12.1518 5.99117 12.2334 5.71875 12.3289C5.58949 12.3825 5.46449 12.4538 5.34375 12.5431C5.38542 12.5635 5.42708 12.5839 5.46875 12.6043C5.32885 12.733 5.26635 12.8758 5.28125 13.0326C5.23074 13.1603 5.16824 13.2827 5.09375 13.3997C5.02057 14.496 5.02057 15.6178 5.09375 16.7649C5.14038 16.9656 5.18204 17.1696 5.21875 17.3767C5.15614 17.4848 5.17697 17.5868 5.28125 17.6827C5.26177 18.2981 5.38677 18.91 5.65625 19.5182C5.63542 19.5386 5.61458 19.559 5.59375 19.5794C5.71591 19.7121 5.75758 19.8549 5.71875 20.0077C5.83949 20.2301 5.96449 20.4749 6.09375 20.7419C6.07292 20.7623 6.05208 20.7828 6.03125 20.8031C6.16026 20.9635 6.26444 21.1063 6.34375 21.2314C6.34375 21.313 6.34375 21.3946 6.34375 21.4762C6.44081 21.5433 6.52413 21.6249 6.59375 21.7209C6.60331 21.8806 6.68663 22.0234 6.84375 22.1492C6.82294 22.1696 6.80206 22.19 6.78125 22.2104C6.91744 22.2374 6.95906 22.2986 6.90625 22.394C7.04494 22.5018 7.16994 22.6242 7.28125 22.7611C7.26044 22.7814 7.23956 22.8019 7.21875 22.8223C7.35769 22.8621 7.43063 22.9539 7.4375 23.0976C7.47919 23.016 7.52081 23.016 7.5625 23.0976C7.60106 23.1557 7.59069 23.2066 7.53125 23.2506C7.59375 23.2709 7.65625 23.2914 7.71875 23.3117C7.79644 23.4412 7.86931 23.5737 7.9375 23.7094C7.95831 23.6891 7.97919 23.6686 8 23.6483C8.08531 23.805 8.19994 23.9274 8.34375 24.0154C8.56806 24.1856 8.79725 24.3998 9.03125 24.6578C9.54325 24.9592 10.0432 25.2753 10.5312 25.6062C10.5698 25.5994 10.6011 25.579 10.625 25.545C10.8398 25.7412 11.0689 25.8635 11.3125 25.9121C11.5023 26.1024 11.7106 26.2248 11.9375 26.2792C12.2139 26.2749 12.4743 26.3566 12.7188 26.524C12.8426 26.434 12.9468 26.4545 13.0312 26.5852C13.0679 26.5724 13.0991 26.5519 13.125 26.524C13.3612 26.5869 13.5903 26.6684 13.8125 26.7687C14.0456 26.764 14.2747 26.764 14.5 26.7687C14.6328 26.8132 14.7682 26.854 14.9062 26.8911C15.6128 26.8777 16.3003 26.8777 16.9688 26.8911C17.2202 26.8037 17.4493 26.7832 17.6562 26.8299C18.0299 26.7468 18.3945 26.6448 18.75 26.524C18.7983 26.5328 18.8399 26.5532 18.875 26.5852C19.139 26.5057 19.389 26.4037 19.625 26.2792C19.7647 26.3244 19.8897 26.3244 20 26.2792C20.4445 26.0172 20.9341 25.7827 21.4688 25.5756C21.5676 25.4582 21.6718 25.4072 21.7812 25.4226C22.0434 25.1799 22.3559 24.9351 22.7188 24.6884C22.7554 24.7012 22.7866 24.7216 22.8125 24.7496C22.827 24.6739 22.8582 24.6127 22.9062 24.566C23.2978 24.3134 23.6208 24.0279 23.875 23.7094C23.8958 23.7298 23.9167 23.7503 23.9375 23.7706C24.0071 23.6935 24.0175 23.6221 23.9688 23.5565C24.3823 23.1243 24.7573 22.7062 25.0938 22.3022C25.7649 21.1126 26.2649 19.8787 26.5938 18.6005C26.5017 18.201 26.6684 18.0378 27.0938 18.111C27.0938 18.2945 27.0938 18.4781 27.0938 18.6616C27.0859 18.8405 27.0026 19.0037 26.8438 19.1511C26.9127 19.2539 26.8919 19.3457 26.7812 19.4265C26.8359 19.5614 26.7942 19.6735 26.6562 19.763C26.6562 19.865 26.6562 19.9669 26.6562 20.0689C26.4517 20.4122 26.2746 20.7691 26.125 21.1397C26.027 21.2666 25.9333 21.389 25.8438 21.5068C25.8018 21.5892 25.8018 21.6606 25.8438 21.7209C25.7892 21.7849 25.7267 21.8358 25.6562 21.8739C25.6011 22.0699 25.4969 22.2331 25.3438 22.3634C25.2274 22.5177 25.1024 22.6706 24.9688 22.8223C25.0445 22.89 25.0237 22.9206 24.9062 22.914C24.8886 22.9922 24.8469 23.0534 24.7812 23.0976C24.7011 23.2374 24.5969 23.3598 24.4688 23.4647C24.38 23.6419 24.2342 23.7541 24.0312 23.8012C24.0907 23.8452 24.1011 23.8961 24.0625 23.9542C23.7914 24.1718 23.5518 24.3758 23.3438 24.566C22.8422 25.0763 22.2589 25.4638 21.5938 25.7286C21.5744 25.8292 21.5119 25.8903 21.4062 25.9121C21.332 25.965 21.2591 26.0262 21.1875 26.0957C21.1667 26.0549 21.1458 26.0141 21.125 25.9733C21.0856 26.1655 20.9814 26.2267 20.8125 26.1569C20.7849 26.2902 20.7224 26.3309 20.625 26.2792C20.5 26.3608 20.375 26.4424 20.25 26.524C20.1891 26.3785 20.1474 26.3989 20.125 26.5852C20.1042 26.5648 20.0833 26.5443 20.0625 26.524C19.3702 26.8697 18.6827 27.0737 18 27.1358C17.7819 27.193 17.5631 27.2542 17.3438 27.3194C17.1891 27.2468 17.0432 27.2672 16.9062 27.3806C16.2996 27.3689 15.7059 27.3689 15.125 27.3806C15.0625 27.3398 15 27.299 14.9375 27.2582C14.8281 27.2994 14.7239 27.3198 14.625 27.3194C14.3504 27.2958 14.0691 27.2346 13.7812 27.1358C13.7604 27.0543 13.7396 27.0543 13.7188 27.1358C13.4024 27.1139 13.1107 27.0323 12.8438 26.8911C12.4978 26.798 12.1957 26.6757 11.9375 26.524C11.6114 26.4777 11.2989 26.3553 11 26.1569C10.9792 26.1772 10.9583 26.1977 10.9375 26.218C10.8314 26.1095 10.7168 26.0075 10.5938 25.9121C10.5142 25.9272 10.4412 25.9272 10.375 25.9121C10.2066 25.7127 10.0087 25.5496 9.78125 25.4226C9.53819 25.3046 9.28819 25.1516 9.03125 24.9637C8.64362 24.6562 8.26862 24.2993 7.90625 23.893C7.97169 23.8576 7.96125 23.8169 7.875 23.7706C7.85006 23.7846 7.83969 23.805 7.84375 23.8318C7.38537 23.3581 6.94787 22.8278 6.53125 22.241C6.37269 22.0023 6.20603 21.7677 6.03125 21.5374C6.05208 21.517 6.07292 21.4965 6.09375 21.4762C6.01042 21.3946 5.92708 21.313 5.84375 21.2314C5.82284 21.1602 5.82284 21.0787 5.84375 20.9867C5.76042 20.9051 5.67708 20.8235 5.59375 20.7419C5.61458 20.7216 5.63542 20.7011 5.65625 20.6808C5.52435 20.4913 5.42018 20.2873 5.34375 20.0689C5.36458 20.0485 5.38542 20.0281 5.40625 20.0077C5.29308 19.8496 5.18892 19.6864 5.09375 19.5182C5.17837 19.3985 5.15754 19.2761 5.03125 19.1511C5.05208 19.1308 5.07292 19.1103 5.09375 19.0899C4.96993 19.0529 4.94909 18.9917 5.03125 18.9064C4.91278 18.739 4.87111 18.5657 4.90625 18.3863C4.87646 18.3265 4.83479 18.2755 4.78125 18.2333C4.80208 18.213 4.82292 18.1925 4.84375 18.1722C4.73314 17.6871 4.64981 17.1977 4.59375 16.7037C4.5803 15.0302 4.60113 13.3476 4.65625 11.6559C8.53444 11.6214 12.4719 11.6214 16.4688 11.6559C17.4037 11.8638 18.2162 12.2717 18.9062 12.8796Z"
            fill="#615940" />
        <path opacity="0.012" fill-rule="evenodd" clip-rule="evenodd"
            d="M25.5938 2.11084C25.6771 2.15163 25.6771 2.15163 25.5938 2.11084Z" fill="#FEFFFE" />
        <path fill-rule="evenodd" clip-rule="evenodd"
            d="M10.0937 2.96753C10.1536 2.99523 10.2057 3.03603 10.25 3.0899C12.583 3.05652 14.833 3.03612 17 3.02871C17.0625 3.06951 17.125 3.11029 17.1875 3.15109C20.1568 3.39025 22.8339 4.54258 25.2187 6.60806C26.9102 8.16872 28.1082 10.0349 28.8125 12.2065C29.0874 13.4157 28.6395 14.0786 27.4687 14.1951C26.8658 14.2167 26.2929 14.2269 25.75 14.2257C25.3661 14.1768 25.0015 14.0646 24.6562 13.8891C24.1904 13.4635 23.8467 12.923 23.625 12.2677C22.4561 10.3043 20.8102 8.93782 18.6875 8.16829C18.6667 8.18867 18.6458 8.20911 18.625 8.22948C18.3349 8.11984 18.0432 8.01784 17.75 7.92355C17.6875 7.94393 17.625 7.96436 17.5625 7.98474C17.3521 7.93126 17.1437 7.87008 16.9375 7.80118C12.6839 7.80179 8.41304 7.80179 4.12498 7.80118C3.86274 7.79727 3.61274 7.71564 3.37498 7.55644C3.35414 7.57681 3.33331 7.59725 3.31248 7.61763C3.14687 7.51973 2.98021 7.37698 2.81248 7.18933C2.66821 6.99653 2.57446 6.80276 2.53123 6.60806C2.55981 6.58273 2.58064 6.55214 2.59373 6.51629C2.39664 5.58392 2.44872 4.66614 2.74998 3.76294C3.16087 3.23066 3.71295 2.98592 4.40623 3.02871C6.19599 3.00893 7.97723 3.02932 9.74998 3.0899C9.87173 3.05261 9.98635 3.01183 10.0937 2.96753ZM18.8437 5.5985C18.8645 5.68008 18.8854 5.68008 18.9062 5.5985C19.3533 5.71052 19.7804 5.87367 20.1875 6.08799C20.2083 6.0676 20.2292 6.0472 20.25 6.0268C20.62 6.198 20.9742 6.40193 21.3125 6.63866C21.3333 6.61828 21.3542 6.59785 21.375 6.57747C21.4417 6.61975 21.5146 6.65034 21.5937 6.66925C21.5729 6.68963 21.552 6.71006 21.5312 6.73044C22.8414 7.42917 23.9664 8.37755 24.9062 9.57556C25.2075 10.0123 25.52 10.4406 25.8437 10.8605C25.8307 10.8963 25.8098 10.9269 25.7812 10.9522C26.0475 11.2649 26.2559 11.6116 26.4062 11.9924C26.2909 12.1483 26.1451 12.1584 25.9687 12.023C25.8449 11.6869 25.6782 11.3708 25.4687 11.0746C25.5038 10.9788 25.4621 10.8972 25.3437 10.8299C25.3645 10.8095 25.3854 10.7891 25.4062 10.7687C25.1523 10.5507 24.9857 10.3059 24.9062 10.0345C24.3069 9.2968 23.6819 8.63398 23.0312 8.04592C22.865 7.92649 22.6984 7.80412 22.5312 7.67881C22.5104 7.59725 22.4895 7.59725 22.4687 7.67881C22.2403 7.45487 21.9694 7.31213 21.6562 7.25051C21.666 7.1665 21.6556 7.08488 21.625 7.00577C21.5991 7.03373 21.5679 7.05417 21.5312 7.06696C21.3232 7.00687 21.1252 6.8845 20.9375 6.69984C20.801 6.73704 20.676 6.69623 20.5625 6.57747C20.5417 6.59785 20.5208 6.61828 20.5 6.63866C20.4792 6.57747 20.4583 6.51629 20.4375 6.4551C20.3245 6.47884 20.2203 6.47884 20.125 6.4551C19.9503 6.3238 19.7524 6.25239 19.5312 6.24095C19.4583 6.21036 19.4062 6.15939 19.375 6.08799C19.3491 6.11597 19.3179 6.13639 19.2812 6.14917C18.9892 6.06757 18.6975 5.98599 18.4062 5.90443C18.3474 5.91105 18.2953 5.93145 18.25 5.96562C17.9907 5.80588 17.7198 5.7243 17.4375 5.72088C13.1932 5.65038 8.98479 5.65038 4.81248 5.72088C4.61588 5.54384 4.60547 5.36028 4.78123 5.17021C8.65116 5.17186 12.5157 5.17186 16.375 5.17021C17.2345 5.21707 18.0575 5.35984 18.8437 5.5985Z"
            fill="#5E573F" />
        <path opacity="0.281" fill-rule="evenodd" clip-rule="evenodd"
            d="M28.0938 12.3902C28.0938 12.431 28.0938 12.4717 28.0938 12.5125C27.1256 12.5735 26.1464 12.5939 25.1562 12.5737C25.0938 12.4514 25.0312 12.329 24.9688 12.2066C23.6487 9.10189 21.3154 7.15417 17.9688 6.36341C17.5154 6.26564 17.0571 6.21467 16.5938 6.21045C12.2293 6.14932 7.85431 6.12889 3.46875 6.14926C3.46875 5.23148 3.46875 4.3137 3.46875 3.39591C8.01044 3.38572 12.5521 3.39591 17.0938 3.42651C21.4783 3.93471 24.7804 6.04561 27 9.7592C27.4465 10.6135 27.8111 11.4904 28.0938 12.3902ZM18.8438 5.59859C18.8646 5.68017 18.8854 5.68017 18.9062 5.59859C19.3533 5.7106 19.7804 5.87376 20.1875 6.08808C20.2083 6.06768 20.2292 6.04728 20.25 6.02689C20.62 6.19809 20.9742 6.40202 21.3125 6.63874C21.3333 6.61837 21.3542 6.59793 21.375 6.57756C21.4417 6.61984 21.5146 6.65043 21.5938 6.66934C21.5729 6.68971 21.5521 6.71015 21.5312 6.73052C22.8414 7.42926 23.9664 8.37764 24.9062 9.57565C25.2076 10.0124 25.5201 10.4407 25.8438 10.8605C25.8307 10.8964 25.8098 10.927 25.7812 10.9523C26.0476 11.265 26.2559 11.6117 26.4062 11.9925C26.2909 12.1484 26.1451 12.1585 25.9688 12.0231C25.8449 11.687 25.6782 11.3709 25.4688 11.0747C25.5038 10.9789 25.4621 10.8973 25.3438 10.8299C25.3646 10.8096 25.3854 10.7891 25.4062 10.7688C25.1523 10.5508 24.9857 10.306 24.9062 10.0345C24.3069 9.29689 23.6819 8.63406 23.0312 8.04601C22.865 7.92658 22.6984 7.80421 22.5312 7.6789C22.5104 7.59734 22.4896 7.59734 22.4688 7.6789C22.2403 7.45496 21.9694 7.31221 21.6562 7.2506C21.6661 7.16659 21.6556 7.08497 21.625 7.00586C21.5991 7.03382 21.5679 7.05426 21.5312 7.06704C21.3232 7.00696 21.1252 6.88459 20.9375 6.69993C20.801 6.73713 20.676 6.69632 20.5625 6.57756C20.5417 6.59793 20.5208 6.61837 20.5 6.63874C20.4792 6.57756 20.4583 6.51637 20.4375 6.45519C20.3245 6.47893 20.2203 6.47893 20.125 6.45519C19.9503 6.32388 19.7524 6.25248 19.5312 6.24104C19.4583 6.21045 19.4062 6.15948 19.375 6.08808C19.3491 6.11606 19.3179 6.13647 19.2812 6.14926C18.9892 6.06766 18.6976 5.98608 18.4062 5.90452C18.3474 5.91114 18.2953 5.93153 18.25 5.9657C17.9907 5.80597 17.7198 5.72439 17.4375 5.72096C13.1932 5.65047 8.98481 5.65047 4.8125 5.72096C4.61591 5.54392 4.60549 5.36037 4.78125 5.17029C8.65119 5.17195 12.5157 5.17195 16.375 5.17029C17.2346 5.21716 18.0575 5.35993 18.8438 5.59859Z"
            fill="#FEFEFE" />
        <path opacity="0.012" fill-rule="evenodd" clip-rule="evenodd"
            d="M28.0938 4.13013C28.1771 4.17092 28.1771 4.17092 28.0938 4.13013Z" fill="#FEFFFE" />
        <path fill-rule="evenodd" clip-rule="evenodd"
            d="M3.46864 6.14915C7.85421 6.12878 12.2292 6.14921 16.5936 6.21034C12.3228 6.21034 8.05196 6.21034 3.78114 6.21034C3.66939 6.1929 3.56523 6.21328 3.46864 6.27152C3.64246 6.63497 3.93413 6.84912 4.34364 6.91397C8.44783 6.93435 12.552 6.95478 16.6561 6.97516C20.4755 7.39134 23.1943 9.29831 24.8124 12.696C25.0601 13.0615 25.4039 13.2756 25.8436 13.3384C26.2811 13.3793 26.7186 13.3793 27.1561 13.3384C27.5878 13.2815 27.8378 13.047 27.9061 12.6348C27.9985 12.6508 28.0818 12.6305 28.1561 12.5736C28.1484 12.5365 28.1276 12.5161 28.0936 12.5124C28.0936 12.4716 28.0936 12.4309 28.0936 12.3901C28.0936 12.1356 28.0624 11.8909 27.9999 11.6558C28.5608 13.0437 28.0711 13.7167 26.5311 13.675C25.7612 13.747 25.1258 13.5022 24.6249 12.9407C23.1017 9.65019 20.508 7.76365 16.8436 7.28108C12.5917 7.27986 8.34171 7.23905 4.09364 7.15871C3.56408 7.04821 3.24116 6.73207 3.12489 6.21034C3.0495 5.87332 3.01825 5.5572 3.03114 5.26196C3.05288 4.84059 3.16746 4.44288 3.37489 4.06885C3.38548 4.77293 3.41673 5.46637 3.46864 6.14915Z"
            fill="#554F39" />
        <path fill-rule="evenodd" clip-rule="evenodd"
            d="M3.78125 6.21038C3.92202 6.48369 4.15118 6.63666 4.46875 6.66927C8.48956 6.68964 12.5104 6.71008 16.5312 6.73045C20.4116 7.09414 23.2136 8.98073 24.9375 12.3901C24.9677 12.3321 24.9781 12.2709 24.9688 12.2066C25.0312 12.3289 25.0938 12.4513 25.1562 12.5737C26.0619 12.6346 26.9786 12.655 27.9062 12.6349C27.8379 13.0471 27.5879 13.2816 27.1562 13.3385C26.7188 13.3793 26.2812 13.3793 25.8438 13.3385C25.404 13.2756 25.0602 13.0615 24.8125 12.696C23.1944 9.29835 20.4756 7.39138 16.6562 6.97519C12.5521 6.95482 8.44794 6.93438 4.34375 6.91401C3.93424 6.84915 3.64257 6.635 3.46875 6.27156C3.56533 6.21331 3.6695 6.19294 3.78125 6.21038Z"
            fill="#4C4633" />
        <path fill-rule="evenodd" clip-rule="evenodd"
            d="M3.78125 6.21021C8.05206 6.21021 12.3229 6.21021 16.5938 6.21021C17.0571 6.21443 17.5154 6.26539 17.9688 6.36317C21.3154 7.15393 23.6487 9.10165 24.9688 12.2064C24.9781 12.2707 24.9677 12.3319 24.9375 12.3899C23.2136 8.98056 20.4116 7.09397 16.5312 6.73028C12.5104 6.70991 8.48956 6.68947 4.46875 6.6691C4.15118 6.63648 3.92202 6.48352 3.78125 6.21021Z"
            fill="#46412F" />
        <path opacity="0.012" fill-rule="evenodd" clip-rule="evenodd"
            d="M29.9062 6.21021C29.9896 6.25102 29.9896 6.25102 29.9062 6.21021Z" fill="#FEFFFE" />
        <path opacity="0.012" fill-rule="evenodd" clip-rule="evenodd"
            d="M30.6562 7.3728C30.7396 7.41361 30.7396 7.41361 30.6562 7.3728Z" fill="#FEFFFE" />
        <path fill-rule="evenodd" clip-rule="evenodd"
            d="M3.96875 9.45312C7.88 9.45845 11.7863 9.45845 15.6875 9.45312C15.875 9.49394 16.0625 9.53469 16.25 9.5755C16.3958 9.55512 16.5417 9.53469 16.6875 9.51431C18.8971 9.8753 20.6262 10.9971 21.875 12.8795C23.0517 15.0711 23.0725 17.2942 21.9375 19.5487C20.6743 21.5959 18.9035 22.7176 16.625 22.9139C16.5417 22.9547 16.4583 22.9955 16.375 23.0363C16.0963 23.0178 15.8046 23.0178 15.5 23.0363C15.3125 22.9955 15.125 22.9547 14.9375 22.9139C13.2355 22.682 11.798 21.9273 10.625 20.6501C9.79381 19.6757 9.30419 18.5642 9.15625 17.3155C9.1915 16.7568 9.46231 16.349 9.96875 16.0917C10.3509 15.9903 10.7364 15.9189 11.125 15.8776C11.4269 15.9226 11.7186 15.9226 12 15.8776C12.1458 15.9184 12.2917 15.9592 12.4375 16C12.5 15.9796 12.5625 15.9592 12.625 15.9388C12.6846 16.0668 12.7679 16.0872 12.875 16C13.0839 16.1091 13.3026 16.2518 13.5312 16.4283C13.7864 16.785 14.026 17.1522 14.25 17.5296C14.8894 18.2138 15.6707 18.428 16.5938 18.1721C17.7633 17.611 18.1696 16.7239 17.8125 15.5105C17.6831 15.3215 17.5789 15.1176 17.5 14.8986C17.4792 14.919 17.4583 14.9394 17.4375 14.9598C17.2972 14.8299 17.1722 14.6872 17.0625 14.5315C16.9532 14.5804 16.8699 14.5396 16.8125 14.4091C16.6954 14.4452 16.5913 14.4044 16.5 14.2868C16.4792 14.3072 16.4583 14.3276 16.4375 14.348C16.3082 14.3012 16.1727 14.2706 16.0312 14.2562C13.1771 14.2154 10.3229 14.2154 7.46875 14.2562C7.34912 14.3426 7.26581 14.4549 7.21875 14.5927C7.30206 14.7966 7.30206 15.0006 7.21875 15.2046C7.19131 19.6809 9.108 22.6994 12.9688 24.26C13.0054 24.2472 13.0366 24.2268 13.0625 24.1988C13.2614 24.3574 13.4697 24.4594 13.6875 24.5048C13.7083 24.4844 13.7292 24.4639 13.75 24.4436C13.9776 24.5454 14.2172 24.6168 14.4688 24.6577C14.9935 24.722 15.5039 24.7729 16 24.8107C16.3333 24.7699 16.6667 24.7291 17 24.6883C17.0208 24.7087 17.0417 24.7291 17.0625 24.7495C17.4647 24.6267 17.8606 24.5451 18.25 24.5048C18.3456 24.4352 18.4289 24.3741 18.5 24.3212C18.5625 24.3416 18.625 24.362 18.6875 24.3824C18.8887 24.3033 19.0762 24.2013 19.25 24.0765C20.9926 23.4581 22.4093 22.2752 23.5 20.5277C24.0481 19.489 24.4231 18.3877 24.625 17.2237C24.7104 16.8009 24.9292 16.4644 25.2812 16.2141C25.6377 16.0711 26.0022 15.9589 26.375 15.8776C26.8896 15.9063 27.4105 15.9063 27.9375 15.8776C28.3776 15.9759 28.7629 16.1798 29.0938 16.4895C29.3534 16.976 29.4576 17.4859 29.4062 18.0191C28.2046 24.1618 24.4859 27.9349 18.25 29.3384C18.1626 29.3047 18.0793 29.2843 18 29.2772C17.8934 29.3545 17.7893 29.3749 17.6875 29.3384C17.5208 29.3792 17.3542 29.42 17.1875 29.4608C16.3824 29.4904 15.5491 29.4904 14.6875 29.4608C10.0569 28.8897 6.53606 26.6258 4.125 22.6692C3.06094 20.6751 2.48803 18.5438 2.40625 16.2753C2.44768 14.7047 2.44768 13.1139 2.40625 11.5028C2.47135 11.1491 2.53385 10.7921 2.59375 10.4321C2.75044 10.085 3.00044 9.83009 3.34375 9.66727C3.56932 9.62438 3.77766 9.55298 3.96875 9.45312ZM18.9062 12.8795C19.7189 13.5601 20.2501 14.3759 20.5 15.3269C20.5523 15.6255 20.6043 15.9212 20.6562 16.2141C20.6114 16.3647 20.5697 16.5177 20.5312 16.673C20.6076 16.9788 20.5451 17.2745 20.3438 17.5602C20.3806 17.6748 20.3389 17.7768 20.2188 17.8661C20.2604 17.8865 20.3021 17.9069 20.3438 17.9273C20.25 17.9783 20.1771 18.0497 20.125 18.1415C20.0864 18.1995 20.0968 18.2505 20.1562 18.2944C19.9262 18.5627 19.6971 18.8278 19.4688 19.0898C19.4896 19.1102 19.5104 19.1306 19.5312 19.151C19.376 19.2724 19.2302 19.4049 19.0938 19.5487C18.9669 19.4796 18.9461 19.5102 19.0312 19.6405C18.9479 19.6609 18.8646 19.6813 18.7812 19.7017C18.8021 19.7221 18.8229 19.7425 18.8438 19.7629C17.2643 21.0923 15.4934 21.2452 13.5312 20.2218C13.3465 20.0638 13.1694 19.9006 13 19.7323C12.9792 19.7527 12.9583 19.7731 12.9375 19.7935C12.8069 19.5956 12.6714 19.4529 12.5312 19.3652C12.4261 19.2824 12.3428 19.1804 12.2812 19.0592C12.1711 18.9051 12.0461 18.7623 11.9062 18.6309C11.8321 18.486 11.7488 18.3433 11.6562 18.2026C11.7188 18.1823 11.7812 18.1618 11.8438 18.1415C11.9597 18.1317 12.043 18.1725 12.0938 18.2638C12.0104 18.2842 12.0104 18.3046 12.0938 18.325C12.1706 18.435 12.2122 18.5573 12.2188 18.6921C12.4882 18.9295 12.7278 19.1946 12.9375 19.4875C12.9583 19.4672 12.9792 19.4467 13 19.4264C13.2644 19.706 13.5352 19.9303 13.8125 20.0994C13.8384 20.0714 13.8696 20.051 13.9062 20.0382C14.0236 20.1081 14.1383 20.1693 14.25 20.2218C14.2708 20.2014 14.2917 20.181 14.3125 20.1606C14.6192 20.2939 14.9421 20.3653 15.2812 20.3747C16.3582 20.5526 17.3374 20.3793 18.2188 19.8547C18.2396 19.9362 18.2604 19.9362 18.2812 19.8547C18.763 19.5762 19.1067 19.2499 19.3125 18.8757C19.3333 18.8961 19.3542 18.9165 19.375 18.9369C19.6749 18.4033 19.9145 17.8424 20.0938 17.2543C20.1144 16.6526 20.1144 16.0407 20.0938 15.4187C19.9119 15.0105 19.7765 14.5925 19.6875 14.1644C19.5899 13.9635 19.4546 13.7901 19.2812 13.6443C19.33 13.5787 19.3196 13.5073 19.25 13.4302C19.2292 13.4506 19.2083 13.471 19.1875 13.4914C19.1701 13.4353 19.1389 13.3946 19.0938 13.369C18.9706 13.2589 18.8664 13.1365 18.7812 13.0019C18.7604 12.9203 18.7396 12.9203 18.7188 13.0019C18.0614 12.5314 17.3217 12.2458 16.5 12.1453C16.3982 12.1818 16.2941 12.1614 16.1875 12.0841C12.9909 12.107 9.78256 12.107 6.5625 12.0841C6.27244 12.1517 5.99117 12.2333 5.71875 12.3288C5.58949 12.3824 5.46449 12.4537 5.34375 12.543C5.38542 12.5634 5.42708 12.5838 5.46875 12.6042C5.32885 12.7329 5.26635 12.8757 5.28125 13.0325C5.23074 13.1602 5.16824 13.2826 5.09375 13.3996C5.02057 14.4959 5.02057 15.6177 5.09375 16.7648C5.14038 16.9655 5.18204 17.1695 5.21875 17.3766C5.15614 17.4847 5.17697 17.5867 5.28125 17.6826C5.26177 18.298 5.38677 18.9099 5.65625 19.5181C5.63542 19.5385 5.61458 19.5589 5.59375 19.5793C5.71591 19.712 5.75758 19.8548 5.71875 20.0076C5.83949 20.23 5.96449 20.4748 6.09375 20.7418C6.07292 20.7622 6.05208 20.7827 6.03125 20.803C6.16026 20.9634 6.26444 21.1062 6.34375 21.2313C6.34375 21.3129 6.34375 21.3945 6.34375 21.4761C6.44081 21.5432 6.52413 21.6248 6.59375 21.7208C6.60331 21.8805 6.68663 22.0233 6.84375 22.1491C6.82294 22.1695 6.80206 22.1899 6.78125 22.2103C6.91744 22.2373 6.95906 22.2985 6.90625 22.3939C7.04494 22.5017 7.16994 22.6241 7.28125 22.761C7.26044 22.7813 7.23956 22.8018 7.21875 22.8222C7.35769 22.862 7.43063 22.9538 7.4375 23.0975C7.47919 23.0159 7.52081 23.0159 7.5625 23.0975C7.60106 23.1556 7.59069 23.2065 7.53125 23.2504C7.59375 23.2708 7.65625 23.2913 7.71875 23.3116C7.79644 23.4411 7.86931 23.5736 7.9375 23.7093C7.95831 23.689 7.97919 23.6685 8 23.6482C8.08531 23.8049 8.19994 23.9273 8.34375 24.0153C8.56806 24.1855 8.79725 24.3997 9.03125 24.6577C9.54325 24.9591 10.0432 25.2752 10.5312 25.6061C10.5698 25.5993 10.6011 25.5789 10.625 25.5449C10.8398 25.7411 11.0689 25.8634 11.3125 25.912C11.5023 26.1023 11.7106 26.2247 11.9375 26.2791C12.2139 26.2748 12.4743 26.3565 12.7188 26.5239C12.8426 26.4339 12.9468 26.4544 13.0312 26.5851C13.0679 26.5723 13.0991 26.5518 13.125 26.5239C13.3612 26.5868 13.5903 26.6683 13.8125 26.7686C14.0456 26.7639 14.2747 26.7639 14.5 26.7686C14.6328 26.8131 14.7682 26.8539 14.9062 26.891C15.6128 26.8776 16.3003 26.8776 16.9688 26.891C17.2202 26.8036 17.4493 26.7831 17.6562 26.8298C18.0299 26.7467 18.3945 26.6447 18.75 26.5239C18.7983 26.5327 18.8399 26.5531 18.875 26.5851C19.139 26.5056 19.389 26.4036 19.625 26.2791C19.7647 26.3243 19.8897 26.3243 20 26.2791C20.4445 26.0171 20.9341 25.7826 21.4688 25.5755C21.5676 25.4581 21.6718 25.4071 21.7812 25.4225C22.0434 25.1797 22.3559 24.935 22.7188 24.6883C22.7554 24.7011 22.7866 24.7215 22.8125 24.7495C22.827 24.6738 22.8582 24.6126 22.9062 24.5659C23.2978 24.3133 23.6208 24.0277 23.875 23.7093C23.8958 23.7297 23.9167 23.7502 23.9375 23.7705C24.0071 23.6934 24.0175 23.622 23.9688 23.5564C24.3823 23.1242 24.7573 22.7061 25.0938 22.3021C25.7649 21.1125 26.2649 19.8786 26.5938 18.6004C26.5017 18.2009 26.6684 18.0377 27.0938 18.1109C27.0938 18.2944 27.0938 18.478 27.0938 18.6615C27.0859 18.8404 27.0026 19.0036 26.8438 19.151C26.9127 19.2538 26.8919 19.3456 26.7812 19.4264C26.8359 19.5613 26.7942 19.6734 26.6562 19.7629C26.6562 19.8649 26.6562 19.9668 26.6562 20.0688C26.4517 20.4121 26.2746 20.769 26.125 21.1396C26.027 21.2665 25.9333 21.3889 25.8438 21.5067C25.8018 21.5891 25.8018 21.6605 25.8438 21.7208C25.7892 21.7848 25.7267 21.8357 25.6562 21.8738C25.6011 22.0698 25.4969 22.233 25.3438 22.3633C25.2274 22.5176 25.1024 22.6705 24.9688 22.8222C25.0445 22.8899 25.0237 22.9205 24.9062 22.9139C24.8886 22.9921 24.8469 23.0533 24.7812 23.0975C24.7011 23.2373 24.5969 23.3597 24.4688 23.4646C24.38 23.6418 24.2342 23.754 24.0312 23.8011C24.0907 23.845 24.1011 23.896 24.0625 23.9541C23.7914 24.1717 23.5518 24.3756 23.3438 24.5659C22.8422 25.0762 22.2589 25.4636 21.5938 25.7285C21.5744 25.829 21.5119 25.8902 21.4062 25.912C21.332 25.9649 21.2591 26.0261 21.1875 26.0956C21.1667 26.0548 21.1458 26.014 21.125 25.9732C21.0856 26.1654 20.9814 26.2266 20.8125 26.1568C20.7849 26.2901 20.7224 26.3308 20.625 26.2791C20.5 26.3607 20.375 26.4423 20.25 26.5239C20.1891 26.3784 20.1474 26.3988 20.125 26.5851C20.1042 26.5647 20.0833 26.5442 20.0625 26.5239C19.3702 26.8696 18.6827 27.0736 18 27.1357C17.7819 27.1929 17.5631 27.2541 17.3438 27.3193C17.1891 27.2467 17.0432 27.2671 16.9062 27.3805C16.2996 27.3688 15.7059 27.3688 15.125 27.3805C15.0625 27.3397 15 27.2989 14.9375 27.2581C14.8281 27.2993 14.7239 27.3197 14.625 27.3193C14.3504 27.2957 14.0691 27.2345 13.7812 27.1357C13.7604 27.0542 13.7396 27.0542 13.7188 27.1357C13.4024 27.1138 13.1107 27.0322 12.8438 26.891C12.4978 26.7979 12.1957 26.6756 11.9375 26.5239C11.6114 26.4776 11.2989 26.3552 11 26.1568C10.9792 26.1771 10.9583 26.1976 10.9375 26.2179C10.8314 26.1094 10.7168 26.0074 10.5938 25.912C10.5142 25.9271 10.4412 25.9271 10.375 25.912C10.2066 25.7126 10.0087 25.5495 9.78125 25.4225C9.53819 25.3045 9.28819 25.1515 9.03125 24.9636C8.64362 24.6561 8.26862 24.2992 7.90625 23.8929C7.97169 23.8575 7.96125 23.8168 7.875 23.7705C7.85006 23.7845 7.83969 23.8049 7.84375 23.8317C7.38537 23.358 6.94787 22.8277 6.53125 22.2409C6.37269 22.0022 6.20603 21.7676 6.03125 21.5373C6.05208 21.5169 6.07292 21.4964 6.09375 21.4761C6.01042 21.3945 5.92708 21.3129 5.84375 21.2313C5.82284 21.1601 5.82284 21.0785 5.84375 20.9866C5.76042 20.905 5.67708 20.8234 5.59375 20.7418C5.61458 20.7215 5.63542 20.701 5.65625 20.6807C5.52435 20.4912 5.42018 20.2872 5.34375 20.0688C5.36458 20.0484 5.38542 20.028 5.40625 20.0076C5.29308 19.8495 5.18892 19.6863 5.09375 19.5181C5.17837 19.3984 5.15754 19.276 5.03125 19.151C5.05208 19.1306 5.07292 19.1102 5.09375 19.0898C4.96993 19.0528 4.94909 18.9916 5.03125 18.9063C4.91278 18.7389 4.87111 18.5656 4.90625 18.3862C4.87646 18.3264 4.83479 18.2754 4.78125 18.2332C4.80208 18.2129 4.82292 18.1924 4.84375 18.1721C4.73314 17.687 4.64981 17.1976 4.59375 16.7036C4.5803 15.0301 4.60113 13.3475 4.65625 11.6558C8.53444 11.6213 12.4719 11.6213 16.4688 11.6558C17.4037 11.8636 18.2162 12.2716 18.9062 12.8795Z"
            fill="#5E563F" />
        <path opacity="0.243" fill-rule="evenodd" clip-rule="evenodd"
            d="M21.5312 13.7361C21.7449 14.5173 21.8282 15.3127 21.7812 16.1223C21.71 16.8503 21.5225 17.5437 21.2188 18.2026C19.5615 20.94 17.1448 21.9088 13.9688 21.109C12.4855 20.5643 11.3605 19.6159 10.5938 18.2638C10.4681 17.9553 10.3431 17.6494 10.2188 17.3461C10.1866 17.1996 10.1449 17.0568 10.0938 16.9178C10.0797 16.6927 10.0589 16.4683 10.0312 16.2447C10.9896 16.2447 11.9479 16.2447 12.9062 16.2447C13.298 17.7293 14.2772 18.5247 15.8438 18.6309C16.8407 18.6394 17.6532 18.2723 18.2812 17.5296C18.549 17.2299 18.7365 16.8832 18.8438 16.4895C18.9752 16.0171 18.9961 15.5481 18.9062 15.0822C18.742 14.2163 18.2836 13.5331 17.5312 13.0325C17.2166 12.8618 16.8832 12.7395 16.5312 12.6654C13.1166 12.5751 9.69994 12.5445 6.28125 12.5736C6.28125 12.798 6.28125 13.0223 6.28125 13.2466C6.263 14.3093 6.28387 15.3698 6.34375 16.4283C6.43738 17.4474 6.68738 18.4264 7.09375 19.3652C8.66412 22.6852 11.3099 24.5921 15.0312 25.086C19.0038 25.278 22.0768 23.7585 24.25 20.5277C25.031 19.2231 25.4789 17.8158 25.5938 16.3059C26.5521 16.3059 27.5104 16.3059 28.4688 16.3059C28.4688 16.4079 28.4688 16.5098 28.4688 16.6118C28.4615 16.8174 28.4407 17.0213 28.4062 17.2237C28.3656 17.3421 28.3448 17.4644 28.3438 17.5908C28.1587 18.6213 27.8671 19.6207 27.4688 20.5889C25.1222 25.226 21.2889 27.6531 15.9688 27.87C10.6259 27.6518 6.79262 25.2044 4.46875 20.5277C3.88876 19.1575 3.55543 17.7299 3.46875 16.2447C3.46875 14.1032 3.46875 11.9617 3.46875 9.82024C7.76044 9.81002 12.0521 9.82024 16.3438 9.85083C18.846 10.1705 20.5752 11.4656 21.5312 13.7361ZM18.9062 12.8795C19.7189 13.5601 20.2501 14.3759 20.5 15.3269C20.5523 15.6255 20.6043 15.9212 20.6562 16.2141C20.6114 16.3647 20.5697 16.5177 20.5312 16.673C20.6076 16.9788 20.5451 17.2745 20.3438 17.5602C20.3806 17.6748 20.3389 17.7768 20.2188 17.8661C20.2604 17.8865 20.3021 17.9069 20.3438 17.9273C20.25 17.9783 20.1771 18.0497 20.125 18.1415C20.0864 18.1995 20.0968 18.2505 20.1562 18.2944C19.9262 18.5627 19.6971 18.8278 19.4688 19.0898C19.4896 19.1102 19.5104 19.1306 19.5312 19.151C19.376 19.2724 19.2302 19.4049 19.0938 19.5487C18.9669 19.4796 18.9461 19.5102 19.0312 19.6405C18.9479 19.6609 18.8646 19.6813 18.7812 19.7017C18.8021 19.7221 18.8229 19.7425 18.8438 19.7629C17.2643 21.0923 15.4934 21.2452 13.5312 20.2218C13.3465 20.0638 13.1694 19.9006 13 19.7323C12.9792 19.7527 12.9583 19.7731 12.9375 19.7935C12.8069 19.5956 12.6714 19.4529 12.5312 19.3652C12.4261 19.2824 12.3428 19.1804 12.2812 19.0592C12.1711 18.9051 12.0461 18.7623 11.9062 18.6309C11.8321 18.486 11.7488 18.3433 11.6562 18.2026C11.7188 18.1823 11.7812 18.1618 11.8438 18.1415C11.9597 18.1317 12.043 18.1725 12.0938 18.2638C12.0104 18.2842 12.0104 18.3046 12.0938 18.325C12.1706 18.435 12.2122 18.5573 12.2188 18.6921C12.4882 18.9295 12.7278 19.1946 12.9375 19.4875C12.9583 19.4672 12.9792 19.4467 13 19.4264C13.2644 19.706 13.5352 19.9303 13.8125 20.0994C13.8384 20.0714 13.8696 20.051 13.9062 20.0382C14.0236 20.1081 14.1383 20.1693 14.25 20.2218C14.2708 20.2014 14.2917 20.181 14.3125 20.1606C14.6192 20.2939 14.9421 20.3653 15.2812 20.3747C16.3582 20.5526 17.3374 20.3793 18.2188 19.8547C18.2396 19.9362 18.2604 19.9362 18.2812 19.8547C18.763 19.5762 19.1067 19.2499 19.3125 18.8757C19.3333 18.8961 19.3542 18.9165 19.375 18.9369C19.6749 18.4033 19.9145 17.8424 20.0938 17.2543C20.1144 16.6526 20.1144 16.0407 20.0938 15.4187C19.9119 15.0105 19.7765 14.5925 19.6875 14.1644C19.5899 13.9635 19.4546 13.7901 19.2812 13.6443C19.33 13.5787 19.3196 13.5073 19.25 13.4302C19.2292 13.4506 19.2083 13.471 19.1875 13.4914C19.1701 13.4353 19.1389 13.3946 19.0938 13.369C18.9706 13.2589 18.8664 13.1365 18.7812 13.0019C18.7604 12.9203 18.7396 12.9203 18.7188 13.0019C18.0614 12.5314 17.3217 12.2458 16.5 12.1453C16.3982 12.1818 16.2941 12.1614 16.1875 12.0841C12.9909 12.107 9.78256 12.107 6.5625 12.0841C6.27244 12.1517 5.99117 12.2333 5.71875 12.3288C5.58949 12.3824 5.46449 12.4537 5.34375 12.543C5.38542 12.5634 5.42708 12.5838 5.46875 12.6042C5.32885 12.7329 5.26635 12.8757 5.28125 13.0325C5.23074 13.1602 5.16824 13.2826 5.09375 13.3996C5.02057 14.4959 5.02057 15.6177 5.09375 16.7648C5.14038 16.9655 5.18204 17.1695 5.21875 17.3766C5.15614 17.4847 5.17697 17.5867 5.28125 17.6826C5.26177 18.298 5.38677 18.9099 5.65625 19.5181C5.63542 19.5385 5.61458 19.5589 5.59375 19.5793C5.71591 19.712 5.75758 19.8548 5.71875 20.0076C5.83949 20.23 5.96449 20.4748 6.09375 20.7418C6.07292 20.7622 6.05208 20.7827 6.03125 20.803C6.16026 20.9634 6.26444 21.1062 6.34375 21.2313C6.34375 21.3129 6.34375 21.3945 6.34375 21.4761C6.44081 21.5432 6.52413 21.6248 6.59375 21.7208C6.60331 21.8805 6.68663 22.0233 6.84375 22.1491C6.82294 22.1695 6.80206 22.1899 6.78125 22.2103C6.91744 22.2373 6.95906 22.2985 6.90625 22.3939C7.04494 22.5017 7.16994 22.6241 7.28125 22.761C7.26044 22.7813 7.23956 22.8018 7.21875 22.8222C7.35769 22.862 7.43063 22.9538 7.4375 23.0975C7.47919 23.0159 7.52081 23.0159 7.5625 23.0975C7.60106 23.1556 7.59069 23.2065 7.53125 23.2504C7.59375 23.2708 7.65625 23.2913 7.71875 23.3116C7.79644 23.4411 7.86931 23.5736 7.9375 23.7093C7.95831 23.689 7.97919 23.6685 8 23.6482C8.08531 23.8049 8.19994 23.9273 8.34375 24.0153C8.56806 24.1855 8.79725 24.3997 9.03125 24.6577C9.54325 24.9591 10.0432 25.2752 10.5312 25.6061C10.5698 25.5993 10.6011 25.5789 10.625 25.5449C10.8398 25.7411 11.0689 25.8634 11.3125 25.912C11.5023 26.1023 11.7106 26.2247 11.9375 26.2791C12.2139 26.2748 12.4743 26.3565 12.7188 26.5239C12.8426 26.4339 12.9468 26.4544 13.0312 26.5851C13.0679 26.5723 13.0991 26.5518 13.125 26.5239C13.3612 26.5868 13.5903 26.6683 13.8125 26.7686C14.0456 26.7639 14.2747 26.7639 14.5 26.7686C14.6328 26.8131 14.7682 26.8539 14.9062 26.891C15.6128 26.8776 16.3003 26.8776 16.9688 26.891C17.2202 26.8036 17.4493 26.7831 17.6562 26.8298C18.0299 26.7467 18.3945 26.6447 18.75 26.5239C18.7983 26.5327 18.8399 26.5531 18.875 26.5851C19.139 26.5056 19.389 26.4036 19.625 26.2791C19.7647 26.3243 19.8897 26.3243 20 26.2791C20.4445 26.0171 20.9341 25.7826 21.4688 25.5755C21.5676 25.4581 21.6718 25.4071 21.7812 25.4225C22.0434 25.1797 22.3559 24.935 22.7188 24.6883C22.7554 24.7011 22.7866 24.7215 22.8125 24.7495C22.827 24.6738 22.8582 24.6126 22.9062 24.5659C23.2978 24.3133 23.6208 24.0277 23.875 23.7093C23.8958 23.7297 23.9167 23.7502 23.9375 23.7705C24.0071 23.6934 24.0175 23.622 23.9688 23.5564C24.3823 23.1242 24.7573 22.7061 25.0938 22.3021C25.7649 21.1125 26.2649 19.8786 26.5938 18.6004C26.5017 18.2009 26.6684 18.0377 27.0938 18.1109C27.0938 18.2944 27.0938 18.478 27.0938 18.6615C27.0859 18.8404 27.0026 19.0036 26.8438 19.151C26.9127 19.2538 26.8919 19.3456 26.7812 19.4264C26.8359 19.5613 26.7942 19.6734 26.6562 19.7629C26.6562 19.8649 26.6562 19.9668 26.6562 20.0688C26.4517 20.4121 26.2746 20.769 26.125 21.1396C26.027 21.2665 25.9333 21.3889 25.8438 21.5067C25.8018 21.5891 25.8018 21.6605 25.8438 21.7208C25.7892 21.7848 25.7267 21.8357 25.6562 21.8738C25.6011 22.0698 25.4969 22.233 25.3438 22.3633C25.2274 22.5176 25.1024 22.6705 24.9688 22.8222C25.0445 22.8899 25.0237 22.9205 24.9062 22.9139C24.8886 22.9921 24.8469 23.0533 24.7812 23.0975C24.7011 23.2373 24.5969 23.3597 24.4688 23.4646C24.38 23.6418 24.2342 23.754 24.0312 23.8011C24.0907 23.845 24.1011 23.896 24.0625 23.9541C23.7914 24.1717 23.5518 24.3756 23.3438 24.5659C22.8422 25.0762 22.2589 25.4637 21.5938 25.7285C21.5744 25.8291 21.5119 25.8902 21.4062 25.912C21.332 25.9649 21.2591 26.0261 21.1875 26.0956C21.1667 26.0548 21.1458 26.014 21.125 25.9732C21.0856 26.1654 20.9814 26.2266 20.8125 26.1568C20.7849 26.2901 20.7224 26.3308 20.625 26.2791C20.5 26.3607 20.375 26.4423 20.25 26.5239C20.1891 26.3784 20.1474 26.3988 20.125 26.5851C20.1042 26.5647 20.0833 26.5442 20.0625 26.5239C19.3702 26.8696 18.6827 27.0736 18 27.1357C17.7819 27.1929 17.5631 27.2541 17.3438 27.3193C17.1891 27.2467 17.0432 27.2671 16.9062 27.3805C16.2996 27.3688 15.7059 27.3688 15.125 27.3805C15.0625 27.3397 15 27.2989 14.9375 27.2581C14.8281 27.2993 14.7239 27.3197 14.625 27.3193C14.3504 27.2957 14.0691 27.2345 13.7812 27.1357C13.7604 27.0542 13.7396 27.0542 13.7188 27.1357C13.4024 27.1138 13.1107 27.0322 12.8438 26.891C12.4978 26.7979 12.1957 26.6756 11.9375 26.5239C11.6114 26.4776 11.2989 26.3552 11 26.1568C10.9792 26.1771 10.9583 26.1976 10.9375 26.2179C10.8314 26.1094 10.7168 26.0074 10.5938 25.912C10.5142 25.9271 10.4412 25.9271 10.375 25.912C10.2066 25.7126 10.0087 25.5495 9.78125 25.4225C9.53819 25.3045 9.28819 25.1515 9.03125 24.9636C8.64362 24.6561 8.26862 24.2992 7.90625 23.8929C7.97169 23.8575 7.96125 23.8168 7.875 23.7705C7.85006 23.7845 7.83969 23.8049 7.84375 23.8317C7.38537 23.358 6.94787 22.8277 6.53125 22.2409C6.37269 22.0022 6.20603 21.7676 6.03125 21.5373C6.05208 21.5169 6.07292 21.4964 6.09375 21.4761C6.01042 21.3945 5.92708 21.3129 5.84375 21.2313C5.82284 21.1601 5.82284 21.0785 5.84375 20.9866C5.76042 20.905 5.67708 20.8234 5.59375 20.7418C5.61458 20.7215 5.63542 20.701 5.65625 20.6807C5.52435 20.4912 5.42018 20.2872 5.34375 20.0688C5.36458 20.0484 5.38542 20.028 5.40625 20.0076C5.29308 19.8495 5.18892 19.6863 5.09375 19.5181C5.17837 19.3984 5.15754 19.276 5.03125 19.151C5.05208 19.1306 5.07292 19.1102 5.09375 19.0898C4.96993 19.0528 4.94909 18.9916 5.03125 18.9063C4.91278 18.7389 4.87111 18.5656 4.90625 18.3862C4.87646 18.3264 4.83479 18.2754 4.78125 18.2332C4.80208 18.2129 4.82292 18.1924 4.84375 18.1721C4.73314 17.687 4.64981 17.1976 4.59375 16.7036C4.5803 15.0301 4.60113 13.3475 4.65625 11.6558C8.53444 11.6213 12.4719 11.6213 16.4688 11.6558C17.4037 11.8637 18.2162 12.2716 18.9062 12.8795Z"
            fill="#FEFEFE" />
        <path fill-rule="evenodd" clip-rule="evenodd"
            d="M3.40614 10.4933C3.21467 10.6967 3.10009 10.9414 3.06239 11.2275C3.02072 13.2058 3.02072 15.1842 3.06239 17.1625C3.5001 21.3765 5.51052 24.65 9.09364 26.9828C12.9873 29.2295 17.029 29.515 21.2186 27.8394C25.5376 25.8376 28.0376 22.5234 28.7186 17.8967C28.713 17.5936 28.6401 17.3081 28.4999 17.0401C28.4854 17.1158 28.4541 17.177 28.4061 17.2237C28.4406 17.0214 28.4614 16.8174 28.4686 16.6118C28.5251 16.5685 28.546 16.5073 28.5311 16.4283C29.0083 16.751 29.2166 17.1997 29.1561 17.7744C28.4591 22.4016 26.0008 25.7974 21.7811 27.9617C16.8655 30.0753 12.2197 29.6063 7.84364 26.5545C4.95381 24.2524 3.25589 21.2849 2.74989 17.652C2.62862 15.3873 2.62862 13.1235 2.74989 10.8604C2.84816 10.485 3.05649 10.179 3.37489 9.94263C3.40602 10.1251 3.41643 10.3086 3.40614 10.4933Z"
            fill="#5B543C" />
        <path fill-rule="evenodd" clip-rule="evenodd"
            d="M3.40625 10.4934C3.40625 10.7382 3.40625 10.9829 3.40625 11.2276C3.36278 11.4559 3.32111 11.6905 3.28125 11.9313C3.32711 13.2324 3.32711 14.5173 3.28125 15.786C3.3652 20.9291 5.6777 24.7635 10.2188 27.2888C14.1463 29.1125 18.0629 29.0718 21.9688 27.1664C25.5099 25.2024 27.6661 22.2553 28.4375 18.3251C28.4792 18.0396 28.4792 17.7541 28.4375 17.4686C28.4201 17.5246 28.3889 17.5653 28.3438 17.5909C28.3448 17.4646 28.3656 17.3422 28.4063 17.2238C28.4543 17.1771 28.4855 17.1159 28.5 17.0403C28.6402 17.3082 28.7131 17.5937 28.7188 17.8968C28.0377 22.5235 25.5377 25.8377 21.2188 27.8395C17.0291 29.5151 12.9874 29.2296 9.09375 26.9829C5.51063 24.6501 3.50021 21.3767 3.0625 17.1626C3.02083 15.1843 3.02083 13.2059 3.0625 11.2276C3.1002 10.9415 3.21478 10.6968 3.40625 10.4934Z"
            fill="#544D37" />
        <path fill-rule="evenodd" clip-rule="evenodd"
            d="M3.40625 11.2275C3.38555 12.9104 3.40638 14.5828 3.46875 16.2447C3.55543 17.7299 3.88876 19.1575 4.46875 20.5277C4.40166 20.5737 4.39124 20.6349 4.4375 20.7113C6.28744 24.8966 9.50619 27.4154 14.0938 28.2677C18.9434 28.8005 22.8913 27.2199 25.9375 23.5258C26.5891 22.6481 27.1204 21.6997 27.5312 20.6807C27.5269 20.6339 27.5061 20.6033 27.4688 20.5889C27.8671 19.6208 28.1587 18.6214 28.3438 17.5908C28.3889 17.5653 28.4201 17.5245 28.4375 17.4685C28.4792 17.754 28.4792 18.0395 28.4375 18.3251C27.6661 22.2552 25.5099 25.2023 21.9688 27.1664C18.0629 29.0717 14.1463 29.1124 10.2188 27.2887C5.6777 24.7634 3.3652 20.929 3.28125 15.7859C3.32711 14.5172 3.32711 13.2323 3.28125 11.9312C3.32111 11.6904 3.36278 11.4558 3.40625 11.2275Z"
            fill="#4E4834" />
        <path opacity="0.693" fill-rule="evenodd" clip-rule="evenodd"
            d="M28.0938 12.5125C28.1277 12.5161 28.1485 12.5365 28.1562 12.5736C28.0819 12.6305 27.9986 12.6509 27.9062 12.6348C26.9786 12.655 26.0619 12.6346 25.1562 12.5736C26.1464 12.5938 27.1256 12.5734 28.0938 12.5125Z"
            fill="#99958B" />
        <path fill-rule="evenodd" clip-rule="evenodd"
            d="M18.9062 15.0822C18.9156 15.1466 18.9052 15.2078 18.875 15.2658C18.2676 13.8667 17.1843 13.1529 15.625 13.1243C12.8983 13.1148 10.1588 13.125 7.40625 13.1549C6.98075 13.1437 6.637 13.2966 6.375 13.6138C6.36306 13.4787 6.33181 13.3563 6.28125 13.2466C6.28125 13.0223 6.28125 12.798 6.28125 12.5736C9.69994 12.5445 13.1166 12.5751 16.5312 12.6654C16.8832 12.7395 17.2166 12.8619 17.5312 13.0325C18.2836 13.5331 18.742 14.2163 18.9062 15.0822Z"
            fill="#494432" />
        <path fill-rule="evenodd" clip-rule="evenodd"
            d="M18.9063 15.0822C18.9961 15.5481 18.9752 16.0171 18.8438 16.4895C18.7675 14.6503 17.7884 13.6203 15.9063 13.3996C13.0313 13.3588 10.1563 13.3588 7.28129 13.3996C6.79173 13.471 6.51048 13.7463 6.43754 14.2256C6.42698 14.9705 6.39573 15.7047 6.34379 16.4283C6.28391 15.3698 6.26304 14.3093 6.28129 13.2466C6.33185 13.3563 6.3631 13.4787 6.37504 13.6138C6.63704 13.2966 6.98079 13.1437 7.40629 13.1549C10.1588 13.125 12.8984 13.1148 15.625 13.1243C17.1844 13.1528 18.2677 13.8667 18.875 15.2658C18.9052 15.2078 18.9156 15.1466 18.9063 15.0822Z"
            fill="#4E4834" />
        <path fill-rule="evenodd" clip-rule="evenodd"
            d="M18.8438 16.4894C18.7365 16.8831 18.549 17.2298 18.2812 17.5295C18.2473 17.5259 18.2265 17.5055 18.2188 17.4683C18.7623 16.2028 18.5123 15.1117 17.4688 14.1949C17.0498 13.9288 16.5914 13.7656 16.0938 13.7054C13.1562 13.6646 10.2188 13.6646 7.28125 13.7054C6.90725 13.8471 6.69887 14.1122 6.65625 14.5008C6.60756 16.0883 6.77419 17.6791 7.15625 19.2733C7.15187 19.3201 7.13106 19.3507 7.09375 19.3651C6.68738 18.4263 6.43738 17.4474 6.34375 16.4282C6.39569 15.7046 6.42694 14.9704 6.4375 14.2255C6.51044 13.7462 6.79169 13.4709 7.28125 13.3995C10.1562 13.3587 13.0312 13.3587 15.9062 13.3995C17.7884 13.6202 18.7675 14.6502 18.8438 16.4894Z"
            fill="#554E38" />
        <path fill-rule="evenodd" clip-rule="evenodd"
            d="M10.0938 16.9178C10.1449 17.0568 10.1866 17.1996 10.2188 17.3461C10.1698 17.4588 10.1281 17.5812 10.0938 17.7132C10.7169 19.8836 12.1336 21.3011 14.3438 21.9656C17.0982 22.5284 19.2962 21.7024 20.9375 19.4876C21.6992 18.3312 22.0117 17.0667 21.875 15.6941C21.8634 15.8492 21.8321 15.992 21.7812 16.1224C21.8282 15.3127 21.7449 14.5173 21.5312 13.7361C21.5231 13.6909 21.5335 13.6501 21.5625 13.6138C22.7651 16.4314 22.2339 18.8891 19.9688 20.9866C17.5249 22.7789 15.0041 22.9217 12.4062 21.4149C11.0482 20.4832 10.1732 19.2289 9.78125 17.652C9.78125 17.3553 9.88544 17.1106 10.0938 16.9178Z"
            fill="#554E39" />
        <path fill-rule="evenodd" clip-rule="evenodd"
            d="M10.2188 17.3461C10.3431 17.6495 10.4681 17.9554 10.5938 18.2639C10.5267 18.3098 10.5162 18.371 10.5625 18.4474C11.8684 21.0092 13.9831 22.1411 16.9062 21.8432C18.934 21.3876 20.3819 20.2353 21.25 18.3863C21.2963 18.3098 21.2858 18.2486 21.2188 18.2027C21.5225 17.5437 21.71 16.8503 21.7812 16.1224C21.8321 15.992 21.8634 15.8493 21.875 15.6941C22.0117 17.0667 21.6992 18.3312 20.9375 19.4876C19.2962 21.7024 17.0982 22.5284 14.3438 21.9656C12.1336 21.3011 10.7169 19.8836 10.0938 17.7132C10.1281 17.5812 10.1698 17.4589 10.2188 17.3461Z"
            fill="#4F4935" />
        <path opacity="0.922" fill-rule="evenodd" clip-rule="evenodd"
            d="M25.5938 16.306C26.5619 16.2451 27.5411 16.2246 28.5312 16.2448C28.5312 16.306 28.5312 16.3672 28.5312 16.4284C28.5461 16.5074 28.5252 16.5686 28.4688 16.6119C28.4688 16.5099 28.4688 16.408 28.4688 16.306C27.5104 16.306 26.5521 16.306 25.5938 16.306Z"
            fill="#B9B6AB" />
        <path opacity="0.335" fill-rule="evenodd" clip-rule="evenodd"
            d="M31.9688 16.6731C31.9688 18.6514 31.9688 20.6298 31.9688 22.6081C31.7903 23.0596 31.5924 23.5082 31.375 23.9542C31.3021 24.0256 31.2292 24.0969 31.1562 24.1683C31.3063 24.2176 31.2959 24.2685 31.125 24.3213C30.9077 24.6176 30.7411 24.9439 30.625 25.3002C30.6042 25.2799 30.5833 25.2594 30.5625 25.2391C30.4032 25.6504 30.1845 26.0175 29.9062 26.3404C29.4795 26.849 29.0524 27.3589 28.625 27.87C28.4473 28.0643 28.2494 28.2377 28.0312 28.3901C28.0521 28.4105 28.0729 28.4309 28.0938 28.4513C27.0856 29.3135 25.9606 30.1191 24.7188 30.8681C24.5789 30.967 24.4331 31.0486 24.2812 31.1129C23.6678 31.4002 23.0636 31.6857 22.4688 31.9695C18.1979 31.9695 13.9271 31.9695 9.65625 31.9695C9.57012 31.9246 9.47637 31.8837 9.375 31.8471C9.35419 31.8675 9.33331 31.8879 9.3125 31.9083C9.22906 31.7795 9.12488 31.7387 9 31.7859C8.855 31.632 8.68831 31.5708 8.5 31.6023C8.48225 31.4564 8.41975 31.4156 8.3125 31.48C8.05781 31.3255 7.80781 31.1624 7.5625 30.9905C7.54169 31.0109 7.52081 31.0313 7.5 31.0517C6.95331 30.7268 6.42206 30.4005 5.90625 30.0727C5.84498 29.9821 5.77206 29.9005 5.6875 29.828C5.66667 29.8483 5.64583 29.8688 5.625 29.8892C5.60145 29.8009 5.54937 29.7397 5.46875 29.7056C5.35135 29.6425 5.24718 29.5608 5.15625 29.4609C4.90773 29.299 4.67856 29.1155 4.46875 28.9102C3.29033 27.8848 2.31116 26.7631 1.53125 25.545C1.47831 25.4553 1.39498 25.4043 1.28125 25.392C1.31745 25.2753 1.31745 25.1733 1.28125 25.0861C1.16507 24.9908 1.07132 24.8786 1 24.7496C0.834187 24.3183 0.615439 23.9206 0.34375 23.5565C0.364583 23.5361 0.385417 23.5157 0.40625 23.4953C0.239929 23.1994 0.0940956 22.924 -0.03125 22.6693C-0.03125 20.7317 -0.03125 18.7942 -0.03125 16.8567C0.0252483 16.9 0.0460816 16.9612 0.03125 17.0402C0.183992 18.8142 0.642325 20.5069 1.40625 22.1186C2.76915 25.0132 4.83165 27.3077 7.59375 29.002C12.3618 31.6896 17.2993 32.0159 22.4062 29.9809C26.4018 28.2213 29.2142 25.3558 30.8438 21.3844C31.4181 19.9896 31.7723 18.5416 31.9062 17.0402C31.8878 16.9035 31.9087 16.7811 31.9688 16.6731Z"
            fill="#FEFEFD" />
        <path fill-rule="evenodd" clip-rule="evenodd"
            d="M21.2187 18.2026C21.2858 18.2486 21.2962 18.3098 21.25 18.3862C20.3819 20.2352 18.934 21.3876 16.9062 21.8432C13.983 22.1411 11.8684 21.0092 10.5625 18.4474C10.5162 18.371 10.5267 18.3098 10.5937 18.2638C11.3605 19.6159 12.4855 20.5643 13.9687 21.1089C17.1448 21.9088 19.5615 20.94 21.2187 18.2026Z"
            fill="#494331" />
        <path fill-rule="evenodd" clip-rule="evenodd"
            d="M4.46875 20.5278C6.79262 25.2045 10.6259 27.652 15.9687 27.8701C21.2889 27.6532 25.1222 25.2261 27.4687 20.589C27.5061 20.6034 27.5269 20.634 27.5312 20.6808C27.1204 21.6998 26.5891 22.6482 25.9375 23.5259C22.8913 27.22 18.9434 28.8006 14.0937 28.2678C9.50618 27.4155 6.28743 24.8967 4.4375 20.7114C4.39124 20.635 4.40165 20.5738 4.46875 20.5278Z"
            fill="#484331" />
        <path opacity="0.012" fill-rule="evenodd" clip-rule="evenodd"
            d="M1.53125 25.5449C1.48958 25.5857 1.48958 25.5857 1.53125 25.5449Z" fill="#FEFFFE" />
        <path opacity="0.012" fill-rule="evenodd" clip-rule="evenodd"
            d="M29.9062 26.3403C29.9896 26.3811 29.9896 26.3811 29.9062 26.3403Z" fill="#FEFFFE" />
        <path opacity="0.012" fill-rule="evenodd" clip-rule="evenodd"
            d="M4.46875 28.9101C4.44396 28.9728 4.4023 28.983 4.34375 28.9407C4.3809 28.9123 4.42257 28.9021 4.46875 28.9101Z"
            fill="#FEFFFE" />
        <path opacity="0.012" fill-rule="evenodd" clip-rule="evenodd"
            d="M4.59375 29.0938C4.67708 29.1346 4.67708 29.1346 4.59375 29.0938Z" fill="#FEFFFE" />
        <path opacity="0.012" fill-rule="evenodd" clip-rule="evenodd"
            d="M5.15625 29.4607C5.11458 29.5015 5.11458 29.5015 5.15625 29.4607Z" fill="#FEFFFE" />
        <path opacity="0.012" fill-rule="evenodd" clip-rule="evenodd"
            d="M5.46875 29.7056C5.42708 29.7464 5.42708 29.7464 5.46875 29.7056Z" fill="#FEFFFE" />
        <path opacity="0.012" fill-rule="evenodd" clip-rule="evenodd"
            d="M24.7188 30.8682C24.8021 30.909 24.8021 30.909 24.7188 30.8682Z" fill="#FEFFFE" />
        <path opacity="0.012" fill-rule="evenodd" clip-rule="evenodd"
            d="M24.2812 31.1128C24.3646 31.1536 24.3646 31.1536 24.2812 31.1128Z" fill="#FEFFFE" />
    </g>
    <defs>
        <clipPath id="clip0_4602_193">
            <rect width="32" height="32" fill="white" />
        </clipPath>
    </defs>
</svg>