<svg width="32" height="32" viewBox="0 0 32 32" fill="none" xmlns="http://www.w3.org/2000/svg">
    <path fill-rule="evenodd" clip-rule="evenodd"
        d="M29.7613 8.55815C28.3432 9.08165 26.9794 9.70181 25.6691 10.4186C22.5323 8.21646 19.2462 6.23197 15.8108 4.46513C12.802 6.11022 9.88793 7.9087 7.06852 9.86047C5.29852 10.096 3.68648 9.66193 2.23235 8.55815C1.73635 8.31007 1.73635 8.06204 2.23235 7.81396C6.57251 5.27134 10.9126 2.72868 15.2528 0.186056C15.7488 -0.0620186 16.2448 -0.0620186 16.7408 0.186056C20.6969 2.53765 24.665 4.89426 28.6452 7.25582C29.2267 7.5382 29.5987 7.97233 29.7613 8.55815Z"
        fill="#2535A0" />
    <path fill-rule="evenodd" clip-rule="evenodd"
        d="M15.625 16.7443C15.8618 13.3715 15.6138 10.1466 14.8809 7.06987C15.1309 6.78433 15.441 6.53625 15.8111 6.32568C16.1178 9.86399 16.0558 13.3368 15.625 16.7443Z"
        fill="#F2866B" />
    <path fill-rule="evenodd" clip-rule="evenodd"
        d="M14.8809 7.06982C15.6137 10.1466 15.8617 13.3714 15.625 16.7442C15.625 16.8683 15.625 16.9923 15.625 17.1163C13.0106 18.2984 10.5306 19.6628 8.18471 21.2094C7.69299 17.9194 7.69299 14.5705 8.18471 11.1628C10.4272 9.79436 12.6592 8.43001 14.8809 7.06982Z"
        fill="#EE663E" />
    <path fill-rule="evenodd" clip-rule="evenodd"
        d="M29.7613 8.55811C30.1932 13.8272 30.255 19.1606 29.9473 24.5581C25.453 27.1883 20.8648 29.669 16.1828 32C15.9348 30.3877 15.9348 28.7751 16.1828 27.1628C19.3883 25.7458 22.4884 24.1334 25.4832 22.3255C25.6691 18.3585 25.7311 14.3895 25.6692 10.4186C26.9794 9.70177 28.3432 9.0816 29.7613 8.55811Z"
        fill="#EF653C" />
    <path fill-rule="evenodd" clip-rule="evenodd"
        d="M15.6248 17.1162C18.4473 18.1554 21.0514 19.5818 23.4371 21.3953C21.0124 22.7941 18.5323 24.0964 15.9968 25.3023C13.3249 24.0284 10.7208 22.664 8.18457 21.2092C10.5304 19.6626 13.0105 18.2983 15.6248 17.1162Z"
        fill="#23339F" />
</svg>