<svg width="32" height="32" viewBox="0 0 32 32" fill="none" xmlns="http://www.w3.org/2000/svg">
    <g clip-path="url(#clip0_2551_280)">
        <rect width="32" height="32" fill="black" />
        <path fill-rule="evenodd" clip-rule="evenodd"
            d="M27.8873 23.6339C27.0473 23.2614 26.3137 22.7039 25.6863 21.9607C25.6454 21.6849 25.6804 21.4059 25.7911 21.1241C28.7597 16.4003 28.5851 11.799 25.267 7.32022C21.0143 3.1598 16.2281 2.42777 10.9082 5.12414C8.47155 6.72017 6.82939 8.91624 5.98212 11.7124C5.67691 18.4675 5.5721 25.23 5.66769 32C4.54979 32 3.43169 32 2.31379 32C2.27878 25.6554 2.31379 19.3112 2.4186 12.9673C3.92471 5.15447 8.64113 0.901812 16.5679 0.209106C23.6412 0.541028 28.3576 4.02694 30.7171 10.6666C31.8208 15.4612 30.8775 19.7837 27.8873 23.6339Z"
            fill="#6D21DB" />
        <path fill-rule="evenodd" clip-rule="evenodd"
            d="M24.1141 11.7124C24.1141 11.9912 24.1141 12.2702 24.1141 12.549C23.1578 12.82 22.1795 12.9593 21.1795 12.9673C19.6857 10.158 17.4499 9.35609 14.4717 10.5621C13.5873 11.0958 12.9234 11.8278 12.4803 12.7581C12.1721 19.2313 12.0673 25.715 12.1659 32.2091C11.048 32.2091 9.92986 32.2091 8.81196 32.2091C8.77695 25.9342 8.81196 19.6597 8.91677 13.3856C9.5712 10.2226 11.423 8.09638 14.4717 7.00649C17.9526 6.18161 20.8522 7.12278 23.1708 9.83002C23.5987 10.4048 23.9131 11.0322 24.1141 11.7124Z"
            fill="#F8F8F8" />
        <path fill-rule="evenodd" clip-rule="evenodd"
            d="M24.1141 11.7124C24.3799 12.2154 24.5197 12.7732 24.5333 13.3856C24.5333 14.0131 24.5333 14.6405 24.5333 15.268C23.6919 15.2332 22.8535 15.2682 22.0179 15.3725C21.5867 16.0627 21.3771 16.0278 21.3891 15.268C21.4262 14.487 21.3564 13.72 21.1794 12.9673C22.1795 12.9594 23.1578 12.8201 24.1141 12.549C24.1141 12.2702 24.1141 11.9912 24.1141 11.7124Z"
            fill="#CFCFD1" />
        <path fill-rule="evenodd" clip-rule="evenodd"
            d="M24.5333 13.3856C24.8256 14.7221 24.6857 16.0466 24.1141 17.3595C23.3492 17.17 22.6155 16.891 21.9131 16.5229C21.5622 16.7688 21.2478 17.0478 20.9698 17.3595C20.8026 17.2639 20.7327 17.1244 20.7602 16.9412C20.9723 16.3656 21.182 15.8078 21.3891 15.268C21.3771 16.0278 21.5867 16.0627 22.0179 15.3725C22.8535 15.2682 23.6919 15.2333 24.5333 15.268C24.5333 14.6405 24.5333 14.0131 24.5333 13.3856Z"
            fill="#A6A6AA" />
        <path fill-rule="evenodd" clip-rule="evenodd"
            d="M24.1141 17.3594C23.8748 17.9365 23.5951 18.4943 23.2757 19.0326C22.2863 18.5252 21.3082 18.0371 20.341 17.5686C20.4316 17.3155 20.5714 17.1064 20.7602 16.9411C20.7328 17.1243 20.8026 17.2638 20.9699 17.3594C21.2478 17.0478 21.5622 16.7688 21.9131 16.5228C22.6156 16.8909 23.3492 17.1699 24.1141 17.3594Z"
            fill="#8D8D92" />
        <path fill-rule="evenodd" clip-rule="evenodd"
            d="M20.341 17.5686C21.3082 18.0371 22.2863 18.5253 23.2757 19.0327C22.7866 19.6601 22.2276 20.2179 21.5987 20.7059C21.1359 20.4143 20.8214 19.996 20.6554 19.451C20.1955 19.0609 19.7415 18.7122 19.2929 18.4052C19.6423 18.1264 19.9916 17.8474 20.341 17.5686Z"
            fill="#74747A" />
        <path fill-rule="evenodd" clip-rule="evenodd"
            d="M17.8255 19.0326C17.7511 20.0553 17.7511 21.1011 17.8255 22.1698C18.0352 22.1698 18.2448 22.1698 18.4544 22.1698C17.7993 22.3746 17.1007 22.4445 16.3582 22.379C16.3582 21.3332 16.3582 20.2875 16.3582 19.2417C16.8619 19.2526 17.351 19.183 17.8255 19.0326Z"
            fill="#282831" />
        <path fill-rule="evenodd" clip-rule="evenodd"
            d="M19.2929 18.4052C19.7415 18.7122 20.1955 19.0608 20.6554 19.4509C20.8215 19.9959 21.1359 20.4142 21.5987 20.7058C20.6957 21.4696 19.6476 21.9578 18.4544 22.1699C18.2448 22.1699 18.0352 22.1699 17.8256 22.1699C17.7512 21.1011 17.7512 20.0553 17.8256 19.0326C18.3746 18.9437 18.8638 18.7346 19.2929 18.4052Z"
            fill="#515159" />
        <path fill-rule="evenodd" clip-rule="evenodd"
            d="M25.7911 21.1241C25.6804 21.4059 25.6454 21.6849 25.6863 21.9607C26.3137 22.7039 27.0473 23.2615 27.8873 23.6339C27.2584 24.4009 26.5597 25.098 25.7911 25.7255C25.4731 25.7232 25.2285 25.5839 25.0574 25.3072C24.6287 24.6958 24.1745 24.1031 23.6949 23.5294C23.8114 23.4493 23.8812 23.3447 23.9045 23.2156C24.5394 22.5131 25.1683 21.816 25.7911 21.1241Z"
            fill="#631ECA" />
        <path fill-rule="evenodd" clip-rule="evenodd"
            d="M23.9045 23.2157C23.8812 23.3447 23.8114 23.4493 23.6949 23.5294C24.1745 24.1031 24.6287 24.6959 25.0574 25.3072C25.2285 25.5839 25.4731 25.7232 25.7911 25.7255C25.4337 26.0794 25.0144 26.3582 24.5334 26.5621C24.1535 26.5054 23.8043 26.3659 23.4853 26.1438C23.2589 25.6218 22.9792 25.1336 22.6468 24.6798C22.8032 24.4212 22.873 24.1422 22.8564 23.8431C23.1545 23.5451 23.5039 23.336 23.9045 23.2157Z"
            fill="#561BAE" />
        <path fill-rule="evenodd" clip-rule="evenodd"
            d="M22.8564 23.8431C22.873 24.1422 22.8032 24.4212 22.6468 24.6797C22.9793 25.1336 23.2589 25.6218 23.4853 26.1438C23.8043 26.3659 24.1535 26.5054 24.5334 26.5621C24.0076 27.0691 23.3788 27.4175 22.6468 27.6078C22.3022 27.6526 21.9878 27.5827 21.7035 27.3987C21.4589 26.7712 21.2145 26.1438 20.9698 25.5163C21.1124 25.2319 21.2522 24.9531 21.3891 24.6797C21.8781 24.4009 22.3674 24.1219 22.8564 23.8431Z"
            fill="#46178F" />
        <path fill-rule="evenodd" clip-rule="evenodd"
            d="M21.3891 24.6797C21.2522 24.953 21.1124 25.2318 20.9698 25.5163C21.2145 26.1437 21.4589 26.7712 21.7035 27.3986C21.9878 27.5827 22.3022 27.6526 22.6468 27.6078C22.1458 27.9257 21.5868 28.1349 20.9698 28.2352C20.7602 28.2352 20.5506 28.2352 20.341 28.2352C20.2353 27.4645 20.0957 26.6978 19.9218 25.9346C19.9475 25.6366 20.0175 25.3578 20.1314 25.098C20.5506 24.9585 20.9698 24.8192 21.3891 24.6797Z"
            fill="#371471" />
        <path fill-rule="evenodd" clip-rule="evenodd"
            d="M20.1314 25.098C20.0176 25.3578 19.9476 25.6366 19.9218 25.9346C20.0958 26.6978 20.2354 27.4646 20.341 28.2353C20.5506 28.2353 20.7602 28.2353 20.9699 28.2353C20.3886 28.4773 19.7597 28.6168 19.0833 28.6536C18.7385 27.6635 18.5989 26.6177 18.6641 25.5163C19.1403 25.345 19.6296 25.2057 20.1314 25.098Z"
            fill="#2B1157" />
        <path fill-rule="evenodd" clip-rule="evenodd"
            d="M18.0352 25.5163C17.8113 25.7116 17.5319 25.7815 17.1967 25.7255C17.1967 26.7712 17.1967 27.817 17.1967 28.8627C16.9173 28.8627 16.6377 28.8627 16.3582 28.8627C16.223 28.2388 16.153 27.6461 16.1486 27.0849C16.3088 26.6522 16.4136 26.199 16.463 25.7255C16.9622 25.5299 17.4862 25.4603 18.0352 25.5163Z"
            fill="#140C29" />
        <path fill-rule="evenodd" clip-rule="evenodd"
            d="M18.0352 25.5164C18.2448 25.5164 18.4544 25.5164 18.664 25.5164C18.5989 26.6177 18.7385 27.6635 19.0833 28.6536C18.4991 28.858 17.8702 28.9276 17.1967 28.8628C17.1967 27.817 17.1967 26.7713 17.1967 25.7255C17.5319 25.7816 17.8113 25.7117 18.0352 25.5164Z"
            fill="#1E0E3D" />
    </g>
    <defs>
        <clipPath id="clip0_2551_280">
            <rect width="32" height="32" fill="white" />
        </clipPath>
    </defs>
</svg>