<svg width="32" height="32" viewBox="0 0 32 32" fill="none" xmlns="http://www.w3.org/2000/svg">
    <g clip-path="url(#clip0_3796_1507)">
        <path fill-rule="evenodd" clip-rule="evenodd"
            d="M-0.0710449 -0.0712891C10.5956 -0.0712891 21.2623 -0.0712891 31.929 -0.0712891C31.929 10.5954 31.929 21.262 31.929 31.9287C21.2623 31.9287 10.5956 31.9287 -0.0710449 31.9287C-0.0710449 21.262 -0.0710449 10.5954 -0.0710449 -0.0712891Z"
            fill="#E74848" />
        <path fill-rule="evenodd" clip-rule="evenodd"
            d="M10.8801 15.1464C10.7679 15.1866 10.6731 15.2577 10.5957 15.3597C11.664 15.4766 12.707 15.4528 13.7246 15.2886C15.4282 13.6797 17.0875 12.0205 18.7023 10.3108C19.4608 10.1212 20.2194 10.1212 20.9779 10.3108C19.4105 11.9256 17.846 13.5375 16.2846 15.1464C16.1723 15.1866 16.0775 15.2577 16.0001 15.3597C18.7493 15.4308 21.499 15.4546 24.249 15.4308C24.249 15.9523 24.249 16.4737 24.249 16.9952C21.499 16.9715 18.7493 16.9952 16.0001 17.0664C16.0775 17.1683 16.1723 17.2394 16.2846 17.2797C17.8719 18.8908 19.4363 20.5263 20.9779 22.1864C20.2194 22.2812 19.4608 22.2812 18.7023 22.1864C17.0947 20.4365 15.4355 18.7298 13.7246 17.0664C12.6816 16.9715 11.6386 16.9715 10.5957 17.0664C12.3066 18.7298 13.9658 20.4365 15.5734 22.1864C14.815 22.2812 14.0564 22.2812 13.2979 22.1864C11.5243 20.2705 9.69913 18.3978 7.82234 16.5686C7.72752 16.3315 7.72752 16.0946 7.82234 15.8575C9.69913 14.0282 11.5243 12.1556 13.2979 10.2397C14.0608 10.1217 14.8194 10.1454 15.5734 10.3108C14.0099 11.9218 12.4454 13.5337 10.8801 15.1464Z"
            fill="#FDFBFB" />
    </g>
    <defs>
        <clipPath id="clip0_3796_1507">
            <rect width="32" height="32" fill="white" />
        </clipPath>
    </defs>
</svg>