<svg width="32" height="32" viewBox="0 0 32 32" fill="none" xmlns="http://www.w3.org/2000/svg">
    <g clip-path="url(#clip0_4414_782)">
        <path fill-rule="evenodd" clip-rule="evenodd"
            d="M-0.0639648 -0.0644531C10.6027 -0.0644531 21.2694 -0.0644531 31.936 -0.0644531C31.936 10.6022 31.936 21.2689 31.936 31.9355C21.2694 31.9355 10.6027 31.9355 -0.0639648 31.9355C-0.0639648 21.2689 -0.0639648 10.6022 -0.0639648 -0.0644531Z"
            fill="#FEFEFE" />
        <path fill-rule="evenodd" clip-rule="evenodd"
            d="M1.98403 14.7836C1.92607 14.6609 1.84073 14.5542 1.72803 14.4636C2.88003 13.7596 4.03203 13.0556 5.18403 12.3516C5.35469 13.0769 5.35469 13.8022 5.18403 14.5276C4.64503 14.861 4.09037 15.1596 3.52003 15.4236C3.00071 15.206 2.48871 14.9926 1.98403 14.7836Z"
            fill="#475761" />
        <path fill-rule="evenodd" clip-rule="evenodd"
            d="M6.72021 14.272C7.3782 14.1456 8.06086 14.1029 8.76821 14.144C8.79859 14.3093 8.75593 14.4373 8.64021 14.528C8.05709 14.2795 7.41709 14.1942 6.72021 14.272Z"
            fill="#E06085" />
        <path fill-rule="evenodd" clip-rule="evenodd"
            d="M19.392 14.1436C19.392 14.1862 19.392 14.2289 19.392 14.2716C18.3587 14.1907 17.3773 14.276 16.448 14.5276C16.3323 14.4368 16.2897 14.3088 16.32 14.1436C17.344 14.1436 18.368 14.1436 19.392 14.1436Z"
            fill="#E1547C" />
        <path fill-rule="evenodd" clip-rule="evenodd"
            d="M25.5358 14.2722C24.7678 14.2722 23.9998 14.2722 23.2318 14.2722C23.2318 15.2108 23.2318 16.1495 23.2318 17.0882C23.1048 16.1305 23.0622 15.1492 23.1038 14.1442C23.9386 14.1028 24.7492 14.1455 25.5358 14.2722Z"
            fill="#E67C98" />
        <path fill-rule="evenodd" clip-rule="evenodd"
            d="M15.0399 14.5281C15.1669 14.5061 15.2522 14.5488 15.2959 14.6561C14.7839 14.6561 14.2719 14.6561 13.7599 14.6561C13.7599 14.9121 13.7599 15.1681 13.7599 15.4241C13.636 15.1544 13.5933 14.8556 13.6319 14.5281C14.1013 14.5281 14.5706 14.5281 15.0399 14.5281Z"
            fill="#F6B2C2" />
        <path fill-rule="evenodd" clip-rule="evenodd"
            d="M19.3922 14.2716C19.3922 14.2289 19.3922 14.1862 19.3922 14.1436C19.6193 14.2549 19.7899 14.4255 19.9042 14.6556C19.7336 15.2956 19.7336 15.9356 19.9042 16.5756C19.7573 16.7541 19.6293 16.7327 19.5202 16.5116C19.6624 15.8998 19.6624 15.2812 19.5202 14.6556C19.1362 14.6556 18.7522 14.6556 18.3682 14.6556C18.4096 15.4904 18.367 16.301 18.2402 17.0876C18.2402 16.2342 18.2402 15.3809 18.2402 14.5276C18.6752 14.5685 19.1019 14.5259 19.5202 14.3996C19.5044 14.3219 19.4617 14.2792 19.3922 14.2716Z"
            fill="#FBE4E8" />
        <path fill-rule="evenodd" clip-rule="evenodd"
            d="M22.4638 14.2725C22.5795 14.3632 22.6221 14.4912 22.5918 14.6565C21.9944 14.6565 21.3972 14.6565 20.7998 14.6565C21.3878 14.6097 21.9425 14.4817 22.4638 14.2725Z"
            fill="#F5BAC8" />
        <path fill-rule="evenodd" clip-rule="evenodd"
            d="M19.3922 14.2717C19.4617 14.2794 19.5044 14.322 19.5202 14.3997C19.1019 14.526 18.6752 14.5687 18.2402 14.5277C18.2402 15.3811 18.2402 16.2343 18.2402 17.0877C18.0696 17.0877 17.8989 17.0877 17.7282 17.0877C17.7282 16.2343 17.7282 15.3811 17.7282 14.5277C17.3016 14.5277 16.8749 14.5277 16.4482 14.5277C17.3775 14.2762 18.3589 14.1908 19.3922 14.2717Z"
            fill="#D11849" />
        <path fill-rule="evenodd" clip-rule="evenodd"
            d="M27.9681 14.1437C28.3082 14.1005 28.6068 14.1858 28.8641 14.3997C29.3145 15.2374 29.7411 16.0907 30.1441 16.9597C29.6539 17.1549 29.3553 16.9843 29.2481 16.4477C28.6553 16.299 28.0579 16.2777 27.4561 16.3837C27.2819 16.5865 27.1965 16.8212 27.2001 17.0877C26.9712 17.1242 26.7578 17.0816 26.5601 16.9597C27.0291 16.0216 27.4984 15.083 27.9681 14.1437Z"
            fill="#D4244F" />
        <path fill-rule="evenodd" clip-rule="evenodd"
            d="M15.2958 14.6562C15.5596 14.8164 15.6022 15.0298 15.4238 15.2963C14.8778 15.4164 14.3232 15.4591 13.7598 15.4243C13.7598 15.1683 13.7598 14.9123 13.7598 14.6562C14.2718 14.6562 14.7838 14.6562 15.2958 14.6562Z"
            fill="#FBF9FA" />
        <path fill-rule="evenodd" clip-rule="evenodd"
            d="M13.1201 14.2721C14.0019 14.0986 14.8979 14.12 15.8081 14.3361C16.3671 14.9123 16.2818 15.3816 15.5521 15.7441C15.6902 15.8664 15.8395 15.9731 16.0001 16.0641C16.0637 16.4028 16.0851 16.7441 16.0641 17.0881C15.8935 17.0881 15.7227 17.0881 15.5521 17.0881C15.6185 16.5821 15.4479 16.1981 15.0401 15.9361C15.2315 15.9469 15.3595 15.8617 15.4241 15.6801C14.8504 15.5947 14.2957 15.5093 13.7601 15.4241C14.3236 15.4589 14.8782 15.4163 15.4241 15.2961C15.6025 15.0296 15.5599 14.8162 15.2961 14.6561C15.2523 14.5488 15.1671 14.5061 15.0401 14.5281C15.0259 14.4491 14.9833 14.3851 14.9121 14.3361C14.3163 14.2722 13.719 14.2508 13.1201 14.2721Z"
            fill="#D53458" />
        <path fill-rule="evenodd" clip-rule="evenodd"
            d="M16.4482 14.5283C16.8749 14.5283 17.3016 14.5283 17.7282 14.5283C17.7282 15.3817 17.7282 16.2349 17.7282 17.0883C17.6015 16.3018 17.5589 15.4911 17.6002 14.6563C17.189 14.696 16.805 14.6534 16.4482 14.5283Z"
            fill="#ED91A9" />
        <path fill-rule="evenodd" clip-rule="evenodd"
            d="M28.2239 14.6562C28.569 14.9572 28.825 15.3412 28.9919 15.8083C28.5653 15.9789 28.1385 15.9789 27.7119 15.8083C27.9193 15.4365 28.0899 15.0525 28.2239 14.6562Z"
            fill="#FBEFF2" />
        <path fill-rule="evenodd" clip-rule="evenodd"
            d="M22.4638 14.2719C21.9425 14.4811 21.3879 14.6091 20.7998 14.6559C20.483 14.8078 20.355 15.0638 20.4158 15.4239C21.0985 15.4239 21.7812 15.4239 22.4638 15.4239C22.4638 15.5519 22.4638 15.6799 22.4638 15.8079C21.7812 15.8079 21.0985 15.8079 20.4158 15.8079C20.3622 16.1695 20.4902 16.4467 20.7998 16.6399C21.3529 16.7037 21.9076 16.7251 22.4638 16.7039C22.4638 16.8319 22.4638 16.9599 22.4638 17.0879C21.8224 17.1091 21.1824 17.0877 20.5438 17.0239C20.3105 16.8962 20.0971 16.7469 19.9038 16.5759C19.7332 15.9359 19.7332 15.2959 19.9038 14.6559C20.7038 14.1419 21.5572 14.0139 22.4638 14.2719Z"
            fill="#D5254F" />
        <path fill-rule="evenodd" clip-rule="evenodd"
            d="M10.4319 14.144C10.7986 14.0871 11.1186 14.1725 11.3919 14.4C11.8697 15.2698 12.2751 16.1658 12.6079 17.088C12.3946 17.088 12.1813 17.088 11.9679 17.088C11.9124 16.3901 11.5284 16.1341 10.8159 16.32C10.5173 16.3414 10.2186 16.3627 9.91993 16.384C9.82267 16.5685 9.73735 16.7605 9.66393 16.96C9.45059 17.1307 9.23726 17.1307 9.02393 16.96C9.54226 16.0445 10.0116 15.1058 10.4319 14.144Z"
            fill="#D52851" />
        <path fill-rule="evenodd" clip-rule="evenodd"
            d="M10.6878 14.6562C11.0329 14.9572 11.2889 15.3412 11.4558 15.8083C11.0291 15.9789 10.6024 15.9789 10.1758 15.8083C10.452 15.4693 10.6227 15.0853 10.6878 14.6562Z"
            fill="#FAF2F3" />
        <path fill-rule="evenodd" clip-rule="evenodd"
            d="M13.1201 14.2716C13.719 14.2504 14.3163 14.2717 14.9121 14.3356C14.9833 14.3846 15.0259 14.4486 15.0401 14.5276C14.5707 14.5276 14.1015 14.5276 13.6321 14.5276C13.5935 14.8552 13.6362 15.1539 13.7601 15.4236C14.2957 15.5089 14.8504 15.5942 15.4241 15.6796C15.3595 15.8612 15.2315 15.9465 15.0401 15.9356C14.9975 15.9356 14.9547 15.9356 14.9121 15.9356C14.5121 15.8103 14.0855 15.7676 13.6321 15.8076C13.6321 16.2342 13.6321 16.661 13.6321 17.0876C13.4615 17.0876 13.2907 17.0876 13.1201 17.0876C13.1201 16.149 13.1201 15.2102 13.1201 14.2716Z"
            fill="#D11549" />
        <path fill-rule="evenodd" clip-rule="evenodd"
            d="M25.5359 14.2721C25.7779 14.2461 25.9699 14.3314 26.1119 14.5281C26.2986 15.0761 26.1493 15.4813 25.6639 15.7441C26.1181 16.0758 26.2888 16.5238 26.1759 17.0881C25.9626 17.0881 25.7493 17.0881 25.5359 17.0881C25.6748 16.4904 25.4614 16.1064 24.8959 15.9361C24.5392 15.8111 24.1552 15.7685 23.7439 15.8081C23.7439 16.2348 23.7439 16.6615 23.7439 17.0881C23.5733 17.0881 23.4026 17.0881 23.2319 17.0881C23.2319 16.1495 23.2319 15.2108 23.2319 14.2721C23.9999 14.2721 24.7679 14.2721 25.5359 14.2721Z"
            fill="#D41E4A" />
        <path fill-rule="evenodd" clip-rule="evenodd"
            d="M23.7441 14.5285C24.2579 14.5072 24.7699 14.5286 25.2801 14.5925C25.7272 14.7816 25.7699 15.0376 25.4081 15.3605C24.8551 15.4243 24.3004 15.4457 23.7441 15.4245C23.7441 15.1258 23.7441 14.8271 23.7441 14.5285Z"
            fill="#FCF1F3" />
        <path fill-rule="evenodd" clip-rule="evenodd"
            d="M1.9841 14.7843C3.06386 15.3888 4.13052 16.0288 5.1841 16.7043C5.35476 17.4296 5.35476 18.1549 5.1841 18.8803C4.04224 18.1491 2.8689 17.4665 1.6641 16.8323C1.57876 16.1069 1.57876 15.3816 1.6641 14.6562C1.74996 14.7525 1.85663 14.7953 1.9841 14.7843Z"
            fill="#D31847" />
        <path fill-rule="evenodd" clip-rule="evenodd"
            d="M14.9118 15.9365C14.5278 15.9365 14.1438 15.9365 13.7598 15.9365C13.7995 16.3477 13.7569 16.7317 13.6318 17.0885C13.6318 16.6619 13.6318 16.2351 13.6318 15.8085C14.0852 15.7684 14.5118 15.8112 14.9118 15.9365Z"
            fill="#EB8DA5" />
        <path fill-rule="evenodd" clip-rule="evenodd"
            d="M24.8961 15.9363C24.5548 15.9363 24.2135 15.9363 23.8721 15.9363C23.8367 16.3136 23.8793 16.6763 24.0001 17.0243C23.9241 17.0837 23.8387 17.1051 23.7441 17.0883C23.7441 16.6617 23.7441 16.2349 23.7441 15.8083C24.1554 15.7686 24.5394 15.8112 24.8961 15.9363Z"
            fill="#FBCCD7" />
        <path fill-rule="evenodd" clip-rule="evenodd"
            d="M6.71978 14.272C7.41665 14.1942 8.05665 14.2794 8.63978 14.528C6.93854 14.0343 6.23454 14.6317 6.52778 16.32C6.63444 16.4266 6.74112 16.5334 6.84778 16.64C7.48636 16.7039 8.12636 16.7252 8.76778 16.704C8.76778 16.832 8.76778 16.96 8.76778 17.088C8.12636 17.1092 7.48636 17.0879 6.84778 17.024C6.52348 16.9579 6.24615 16.8086 6.01578 16.576C5.81944 16.037 5.77677 15.4824 5.88778 14.912C6.03607 14.5289 6.31341 14.3155 6.71978 14.272Z"
            fill="#D4274F" />
        <path fill-rule="evenodd" clip-rule="evenodd"
            d="M21.8239 17.7277C22.3377 17.7064 22.8497 17.7278 23.3599 17.7917C23.5241 18.1494 23.5241 18.5121 23.3599 18.8797C23.2557 18.5896 23.1917 18.2909 23.1679 17.9837C23.0399 17.813 22.9119 17.813 22.7839 17.9837C22.6985 19.0077 22.6133 19.0077 22.5279 17.9837C22.436 17.8619 22.3294 17.8407 22.2079 17.9197C22.1286 18.2362 22.0433 18.5562 21.9519 18.8797C21.826 18.5049 21.7833 18.1209 21.8239 17.7277Z"
            fill="#616C74" />
        <path fill-rule="evenodd" clip-rule="evenodd"
            d="M24.5118 17.7284C25.0687 17.6046 25.3675 17.818 25.4078 18.3684C25.1061 18.3476 24.8075 18.3688 24.5118 18.4324C24.6095 18.5532 24.7375 18.6172 24.8958 18.6244C25.3719 18.41 25.4572 18.474 25.1518 18.8164C24.6607 18.9444 24.4047 18.7524 24.3838 18.2404C24.3995 18.058 24.4423 17.8874 24.5118 17.7284Z"
            fill="#5F6A6E" />
        <path fill-rule="evenodd" clip-rule="evenodd"
            d="M24.6402 17.8555C24.8454 17.8315 25.0161 17.8955 25.1522 18.0475C24.9388 18.1329 24.7256 18.1329 24.5122 18.0475C24.5834 17.9985 24.626 17.9345 24.6402 17.8555Z"
            fill="#E5EDF0" />
        <path fill-rule="evenodd" clip-rule="evenodd"
            d="M19.3921 17.7284C19.6372 17.692 19.8504 17.7346 20.0321 17.8564C19.8668 17.826 19.7388 17.8687 19.6481 17.9844C19.5445 18.2137 19.4805 18.4697 19.4561 18.7524C19.3925 18.4137 19.3711 18.0723 19.3921 17.7284Z"
            fill="#4E565C" />
        <path fill-rule="evenodd" clip-rule="evenodd"
            d="M20.2881 17.8563C20.4652 17.6898 20.6572 17.6898 20.8641 17.8563C20.9688 18.2054 20.9475 18.5468 20.8001 18.8803C20.6746 18.5493 20.632 18.208 20.6721 17.8563C20.5441 17.8563 20.4161 17.8563 20.2881 17.8563Z"
            fill="#60666A" />
        <path fill-rule="evenodd" clip-rule="evenodd"
            d="M29.5041 17.7284C30.061 17.6046 30.3597 17.818 30.4001 18.3684C30.0984 18.3476 29.7997 18.3688 29.5041 18.4324C29.6017 18.5532 29.7297 18.6172 29.8881 18.6244C30.3642 18.41 30.4495 18.474 30.1441 18.8164C29.3051 18.8109 29.0918 18.4482 29.5041 17.7284Z"
            fill="#646C73" />
        <path fill-rule="evenodd" clip-rule="evenodd"
            d="M29.6319 17.8555C29.8371 17.8315 30.0078 17.8955 30.1439 18.0475C29.9305 18.1329 29.7173 18.1329 29.5039 18.0475C29.5751 17.9985 29.6177 17.9345 29.6319 17.8555Z"
            fill="#E7EEF2" />
        <path fill-rule="evenodd" clip-rule="evenodd"
            d="M20.0322 17.8564C20.1176 17.8564 20.2029 17.8564 20.2882 17.8564C20.2029 19.2218 20.1176 19.2218 20.0322 17.8564Z"
            fill="#7B8286" />
        <path fill-rule="evenodd" clip-rule="evenodd"
            d="M26.176 17.7284C26.4354 17.7076 26.6914 17.729 26.944 17.7924C26.8001 17.8242 26.6721 17.8882 26.56 17.9844C26.4883 18.2857 26.4029 18.5843 26.304 18.8804C26.178 18.5056 26.1354 18.1216 26.176 17.7284Z"
            fill="#687077" />
        <path fill-rule="evenodd" clip-rule="evenodd"
            d="M15.8078 17.7276C16.5384 17.7265 16.581 17.7905 15.9358 17.9196C15.6949 18.4285 15.8656 18.7057 16.4478 18.7516C16.0928 18.9347 15.8156 18.8493 15.6158 18.4956C15.52 18.196 15.584 17.94 15.8078 17.7276Z"
            fill="#61676B" />
        <path fill-rule="evenodd" clip-rule="evenodd"
            d="M17.4718 17.7278C18.5013 17.6642 18.7147 18.0268 18.1118 18.8158C17.2729 18.8103 17.0595 18.4476 17.4718 17.7278Z"
            fill="#636C71" />
        <path fill-rule="evenodd" clip-rule="evenodd"
            d="M17.7282 17.8564C18.1719 17.9344 18.2999 18.169 18.1122 18.5604C17.4452 18.6303 17.3172 18.3957 17.7282 17.8564Z"
            fill="#EFF2F4" />
        <path fill-rule="evenodd" clip-rule="evenodd"
            d="M19.3919 17.7275C19.3709 18.0715 19.3922 18.4129 19.4559 18.7515C19.4803 18.4689 19.5443 18.2129 19.6479 17.9835C19.6479 18.2822 19.6479 18.5809 19.6479 18.8795C19.5199 18.8795 19.3919 18.8795 19.2639 18.8795C19.2242 18.4683 19.2668 18.0843 19.3919 17.7275Z"
            fill="#B6B9BB" />
        <path fill-rule="evenodd" clip-rule="evenodd"
            d="M27.8398 17.7276C28.5704 17.7265 28.613 17.7905 27.9678 17.9196C27.7269 18.4285 27.8976 18.7057 28.4798 18.7516C27.5721 18.8835 27.3587 18.5421 27.8398 17.7276Z"
            fill="#656C71" />
    </g>
    <defs>
        <clipPath id="clip0_4414_782">
            <rect width="32" height="32" fill="white" />
        </clipPath>
    </defs>
</svg>