<svg width="32" height="32" viewBox="0 0 32 32" fill="none" xmlns="http://www.w3.org/2000/svg">
    <path fill-rule="evenodd" clip-rule="evenodd"
        d="M0 0C10.6666 0 21.3333 0 32 0C32 10.6667 32 21.3333 32 32C21.3333 32 10.6666 32 0 32C0 21.3333 0 10.6667 0 0Z"
        fill="#FEFEFE" />
    <path fill-rule="evenodd" clip-rule="evenodd"
        d="M20.48 18.9415C20.1907 18.9402 19.924 19.02 19.68 19.1811C20.0892 19.2251 20.4627 19.1453 20.8 18.9415C21.3104 18.7366 21.8438 18.6301 22.4 18.6221C23.3123 18.5482 23.7123 18.9741 23.6 19.9C23.8667 20.3792 24.1332 20.8584 24.4 21.3376C24.5544 22.0216 24.4476 22.6606 24.08 23.2544C23.636 23.7582 23.1292 23.8381 22.56 23.494C22.2288 22.8918 22.0153 22.2529 21.92 21.5772C20.7344 21.4806 19.5611 21.5604 18.4 21.8168C18.146 20.7848 17.506 20.4121 16.48 20.6986C16.4267 20.6188 16.3732 20.5389 16.32 20.459C16.4961 19.5335 16.5228 18.6018 16.4 17.6637C15.2739 15.0694 14.1272 12.4871 12.96 9.91653C15.3048 9.98296 17.6513 9.98296 20 9.91653C21.7067 9.11786 23.4132 8.31918 25.12 7.52051C27.0932 7.54706 29.0665 7.62693 31.04 7.76011C30.89 10.105 30.7033 12.4478 30.48 14.7884C30.3544 15.0737 30.1678 15.3133 29.92 15.5072C28.8824 15.9454 27.8689 16.4247 26.88 16.9449C27.9638 16.9573 29.0305 17.0638 30.08 17.2643C30.3993 17.9466 30.4793 18.6654 30.32 19.4207C29.8896 20.3301 29.2496 20.543 28.4 20.0597C28.1268 19.6749 27.9936 19.249 28 18.7818C27.718 18.759 27.4513 18.8123 27.2 18.9415C27.072 17.7773 26.4587 17.0319 25.36 16.7053C23.6729 17.3481 22.0464 18.0935 20.48 18.9415Z"
        fill="#272424" />
    <path fill-rule="evenodd" clip-rule="evenodd"
        d="M26.0801 8.39844C26.7748 8.43669 27.4682 8.48994 28.1601 8.55817C28.1601 9.35685 28.1601 10.1555 28.1601 10.9542C27.4668 10.9542 26.7734 10.9542 26.0801 10.9542C26.0801 10.1023 26.0801 9.25035 26.0801 8.39844Z"
        fill="#F7F6F6" />
    <path fill-rule="evenodd" clip-rule="evenodd"
        d="M28.9601 8.55762C29.2972 8.71228 29.6706 8.76552 30.0801 8.71735C30.0801 8.93033 30.0801 9.14332 30.0801 9.35629C30.0801 9.78226 30.0801 10.2082 30.0801 10.6342C29.5471 10.9213 28.9604 11.0278 28.3201 10.9536C28.3201 10.155 28.3201 9.35629 28.3201 8.55762C28.5333 8.55762 28.7468 8.55762 28.9601 8.55762Z"
        fill="#FAF9F9" />
    <path fill-rule="evenodd" clip-rule="evenodd"
        d="M28.96 8.55762C29.3867 8.55762 29.8132 8.55762 30.24 8.55762C30.2854 8.86346 30.2321 9.12968 30.08 9.35629C30.08 9.14332 30.08 8.93033 30.08 8.71735C29.6705 8.76552 29.2971 8.71228 28.96 8.55762Z"
        fill="#979696" />
    <path fill-rule="evenodd" clip-rule="evenodd"
        d="M24.4801 9.03809C24.6379 9.7521 24.6912 10.4975 24.6401 11.2744C23.786 11.6473 22.9326 12.02 22.0801 12.3925C21.8384 11.9062 21.7316 11.3738 21.7601 10.7952C21.7601 10.6354 21.7601 10.4757 21.7601 10.316C22.6371 9.85184 23.5438 9.42589 24.4801 9.03809Z"
        fill="#FAFAFA" />
    <path fill-rule="evenodd" clip-rule="evenodd"
        d="M24.48 9.03669C24.4896 8.94994 24.5429 8.89669 24.64 8.87695C24.8502 9.69995 24.8502 10.4986 24.64 11.273C24.691 10.4961 24.6377 9.7507 24.48 9.03669Z"
        fill="#646262" />
    <path fill-rule="evenodd" clip-rule="evenodd"
        d="M14.72 10.6349C15.8413 10.6084 16.9613 10.635 18.08 10.7148C17.1589 11.1879 16.2256 11.6404 15.28 12.0726C15.0014 11.6238 14.8147 11.1446 14.72 10.6349Z"
        fill="#F0F0F0" />
    <path fill-rule="evenodd" clip-rule="evenodd"
        d="M21.4399 10.4756C21.3927 10.8327 21.4461 11.1521 21.5999 11.434C21.5999 11.8067 21.5999 12.1794 21.5999 12.5521C20.8679 12.9175 20.1213 13.2902 19.3599 13.6703C19.2661 13.6368 19.1861 13.5836 19.1199 13.5105C19.066 12.9737 18.986 12.4413 18.8799 11.9132C18.8972 11.7627 18.9504 11.6296 19.0399 11.5139C19.8432 11.1658 20.6432 10.8197 21.4399 10.4756Z"
        fill="#F9F9F9" />
    <path fill-rule="evenodd" clip-rule="evenodd"
        d="M30.0801 10.6348C30.0801 10.7945 30.0801 10.9542 30.0801 11.114C29.4607 11.1643 28.874 11.111 28.3201 10.9542C28.9604 11.0284 29.5471 10.9219 30.0801 10.6348Z"
        fill="#737171" />
    <path fill-rule="evenodd" clip-rule="evenodd"
        d="M21.7599 10.3154C21.7599 10.4752 21.7599 10.6349 21.7599 10.7946C21.6105 10.9652 21.5571 11.1782 21.5999 11.4336C21.4462 11.1517 21.3927 10.8322 21.4399 10.4752C21.5467 10.4219 21.6532 10.3687 21.7599 10.3154Z"
        fill="#A1A0A0" />
    <path fill-rule="evenodd" clip-rule="evenodd"
        d="M26.24 11.5938C26.8267 11.5938 27.4133 11.5938 28 11.5938C28 12.4989 28 13.4041 28 14.3092C27.4133 14.3092 26.8267 14.3092 26.24 14.3092C26.24 13.4041 26.24 12.4989 26.24 11.5938Z"
        fill="#FEFEFE" />
    <path fill-rule="evenodd" clip-rule="evenodd"
        d="M29.4401 14.3094C29.0668 14.3094 28.6933 14.3094 28.3201 14.3094C28.3201 13.5107 28.3201 12.712 28.3201 11.9134C28.774 11.6095 29.3074 11.503 29.9201 11.5939C29.9164 12.4523 29.8364 13.3042 29.6801 14.1496C29.6188 14.2385 29.5388 14.2917 29.4401 14.3094Z"
        fill="#F9F8F8" />
    <path fill-rule="evenodd" clip-rule="evenodd"
        d="M18.3999 11.7529C18.5959 11.8571 18.7027 12.0435 18.7199 12.312C18.8444 12.816 18.8711 13.3218 18.7999 13.8295C18.0731 14.2455 17.3265 14.6183 16.5599 14.9476C16.2435 14.3425 15.9502 13.7302 15.6799 13.1107C16.5963 12.6532 17.503 12.2007 18.3999 11.7529Z"
        fill="#F8F8F8" />
    <path fill-rule="evenodd" clip-rule="evenodd"
        d="M24.4799 12.0723C24.6372 12.679 24.6906 13.3179 24.6399 13.9891C24.5997 14.2559 24.493 14.4955 24.3199 14.7079C23.6292 15.0173 22.9359 15.3101 22.2399 15.5864C22.1073 14.7953 22.0538 13.9966 22.0799 13.1904C22.8497 12.7799 23.6497 12.4072 24.4799 12.0723Z"
        fill="#FAFAFA" />
    <path fill-rule="evenodd" clip-rule="evenodd"
        d="M21.76 10.7939C21.7315 11.3726 21.8383 11.905 22.08 12.3913C21.9666 12.5357 21.8066 12.5889 21.6 12.551C21.6 12.1783 21.6 11.8056 21.6 11.4329C21.5571 11.1775 21.6106 10.9645 21.76 10.7939Z"
        fill="#646262" />
    <path fill-rule="evenodd" clip-rule="evenodd"
        d="M24.48 12.0718C24.4896 11.9851 24.5429 11.9319 24.64 11.9121C24.8497 12.6283 24.8497 13.3205 24.64 13.9887C24.6907 13.3175 24.6373 12.6786 24.48 12.0718Z"
        fill="#7F7E7E" />
    <path fill-rule="evenodd" clip-rule="evenodd"
        d="M26.2401 11.5938C26.2401 12.4989 26.2401 13.4041 26.2401 14.3092C26.8268 14.3092 27.4134 14.3092 28.0001 14.3092C28.0001 14.3625 28.0001 14.4157 28.0001 14.469C27.3601 14.469 26.7201 14.469 26.0801 14.469C26.0284 13.4802 26.0817 12.5218 26.2401 11.5938Z"
        fill="#BAB9B9" />
    <path fill-rule="evenodd" clip-rule="evenodd"
        d="M13.28 12.8717C13.468 12.8367 13.628 12.89 13.76 13.0315C14.4423 14.569 15.109 16.1131 15.76 17.6638C16.1864 20.6989 14.8797 21.9501 11.84 21.4175C10.5949 20.7612 9.31493 20.1755 8.00005 19.6605C7.406 19.5957 6.81934 19.5957 6.24005 19.6605C6.91942 19.2307 7.6661 19.0444 8.48005 19.1014C9.49717 19.2266 10.5106 19.3864 11.52 19.5806C12.8778 19.5366 13.3845 18.8444 13.04 17.504C12.7231 16.9857 12.2698 16.6397 11.68 16.4658C10.88 16.3593 10.08 16.3593 9.28005 16.4658C6.63941 17.1138 4.02606 17.8592 1.44005 18.7021C1.22672 18.8085 1.01338 18.8085 0.800049 18.7021C4.99384 16.7945 9.15381 14.8511 13.28 12.8717Z"
        fill="#EF453B" />
    <path fill-rule="evenodd" clip-rule="evenodd"
        d="M21.7601 13.8288C21.866 14.4623 21.9193 15.1012 21.9201 15.7456C21.3481 16.0311 20.7615 16.324 20.1601 16.6242C19.9603 16.7424 19.8003 16.7158 19.6801 16.5443C19.5388 15.8045 19.4321 15.059 19.3601 14.308C20.1033 13.9905 20.85 13.671 21.6001 13.3496C21.7419 13.4814 21.7951 13.6411 21.7601 13.8288Z"
        fill="#F9F9F9" />
    <path fill-rule="evenodd" clip-rule="evenodd"
        d="M28 11.5938C28.1067 11.7002 28.2133 11.8067 28.32 11.9132C28.32 12.7119 28.32 13.5106 28.32 14.3092C28.6933 14.3092 29.0667 14.3092 29.44 14.3092C28.9941 14.4653 28.5141 14.5185 28 14.469C28 14.4157 28 14.3625 28 14.3092C28 13.4041 28 12.4989 28 11.5938Z"
        fill="#7F7D7D" />
    <path fill-rule="evenodd" clip-rule="evenodd"
        d="M19.3599 14.3086C19.4319 15.0596 19.5386 15.805 19.6799 16.5449C19.5732 16.7046 19.4666 16.8644 19.3599 17.0241C19.377 16.3795 19.3237 15.7406 19.1999 15.1073C19.1775 14.8629 19.0708 14.7032 18.8799 14.6281C19.0063 14.4841 19.1663 14.3776 19.3599 14.3086Z"
        fill="#5F5D5D" />
    <path fill-rule="evenodd" clip-rule="evenodd"
        d="M18.88 14.6289C19.0709 14.704 19.1776 14.8638 19.2 15.1081C19.3239 15.7414 19.3772 16.3804 19.36 17.0249C18.789 17.2835 18.2023 17.4964 17.6 17.6639C17.4698 16.9237 17.2031 16.2315 16.8 15.5873C17.4764 15.223 18.1696 14.9036 18.88 14.6289Z"
        fill="#F8F8F8" />
    <path fill-rule="evenodd" clip-rule="evenodd"
        d="M22.08 13.1904C22.0539 13.9966 22.1074 14.7953 22.24 15.5865C22.1333 15.6397 22.0267 15.6929 21.92 15.7462C21.9192 15.1018 21.8659 14.4629 21.76 13.8294C21.8667 13.6164 21.9733 13.4034 22.08 13.1904Z"
        fill="#5B5959" />
    <path fill-rule="evenodd" clip-rule="evenodd"
        d="M24.7999 17.1838C26.0004 17.0515 26.5871 17.5839 26.5599 18.7812C26.6329 19.9051 26.1263 20.5973 25.0399 20.8577C24.2266 20.5435 23.8266 19.9311 23.8399 19.0208C23.9292 18.2831 24.2492 17.6708 24.7999 17.1838Z"
        fill="#2C2A2A" />
    <path fill-rule="evenodd" clip-rule="evenodd"
        d="M24.8001 18.1426C25.6783 18.1432 25.9716 18.5692 25.6801 19.4205C25.3767 19.9709 25.0033 20.0242 24.5601 19.5802C24.411 19.0494 24.491 18.5702 24.8001 18.1426Z"
        fill="#F5F5F5" />
    <path fill-rule="evenodd" clip-rule="evenodd"
        d="M20.4799 18.9404C20.5867 18.9404 20.6932 18.9404 20.7999 18.9404C20.4627 19.1442 20.0892 19.224 19.6799 19.18C19.9239 19.0189 20.1907 18.9391 20.4799 18.9404Z"
        fill="#706E6E" />
    <path fill-rule="evenodd" clip-rule="evenodd"
        d="M16.4801 21.0168C17.7361 20.9074 18.3226 21.4931 18.2401 22.7739C18.2095 24.0569 17.5695 24.616 16.3201 24.4511C16.0722 24.2572 15.8857 24.0176 15.7601 23.7323C15.4829 22.6685 15.7229 21.7634 16.4801 21.0168Z"
        fill="#2C2929" />
    <path fill-rule="evenodd" clip-rule="evenodd"
        d="M16.4799 21.9756C17.3582 21.9762 17.6514 22.4022 17.3599 23.2535C16.6897 23.9533 16.2897 23.8202 16.1599 22.8541C16.1431 22.5062 16.2497 22.2134 16.4799 21.9756Z"
        fill="#F9F9F9" />
</svg>