<svg width="32" height="32" viewBox="0 0 32 32" fill="none" xmlns="http://www.w3.org/2000/svg">
    <g clip-path="url(#clip0_1936_209)">
        <path fill-rule="evenodd" clip-rule="evenodd"
            d="M-0.0799561 -0.0800781C5.78672 -0.0800781 11.6534 -0.0800781 17.52 -0.0800781C16.8789 0.0731902 16.2656 0.339856 15.68 0.719922C15.1272 0.551859 14.5672 0.525192 14 0.639922C14.4584 0.669186 14.8851 0.749186 15.28 0.879922C14.3589 0.788991 13.5056 0.948991 12.72 1.35992C12.3543 1.37511 12.0343 1.48178 11.76 1.67992C11.1241 1.67767 10.5907 1.89101 10.16 2.31992C9.09214 2.47896 8.23881 2.95896 7.60004 3.75992C6.18158 4.44263 5.06158 5.45597 4.24004 6.79992C3.66844 7.46279 3.1351 8.15613 2.64004 8.87992C1.90523 9.54331 1.58523 10.3966 1.68004 11.4399C1.37621 11.9993 1.08288 12.586 0.800044 13.1999C0.753265 14.7754 0.833265 16.3222 1.04004 17.8399C1.44576 20.0423 2.2191 22.1223 3.36004 24.0799C3.80974 24.8214 4.36974 25.4614 5.04004 25.9999C6.68936 28.1062 8.82268 29.4929 11.44 30.1599C12.6571 30.6303 13.9371 30.8969 15.28 30.9599C15.5158 30.8686 15.7824 30.8686 16.08 30.9599C16.1935 31.1046 16.3535 31.1578 16.56 31.1199C16.5423 31.2186 16.489 31.2986 16.4 31.3599C17.1468 31.4132 17.8933 31.4666 18.64 31.5199C18.0813 31.5087 17.6013 31.642 17.2 31.9199C11.44 31.9199 5.68004 31.9199 -0.0799561 31.9199C-0.0799561 21.2532 -0.0799561 10.5866 -0.0799561 -0.0800781Z"
            fill="#FCFEFD" />
        <path fill-rule="evenodd" clip-rule="evenodd"
            d="M17.84 1.19995C18.7592 1.29849 19.6658 1.45849 20.56 1.67995C20.8115 1.86992 21.0782 2.02992 21.36 2.15995C19.748 1.70768 18.148 1.76101 16.56 2.31995C16.4035 4.0717 16.3502 5.83169 16.4 7.59995C16.3467 7.59995 16.2933 7.59995 16.24 7.59995C16.24 5.46662 16.24 3.33328 16.24 1.19995C16.7733 1.19995 17.3067 1.19995 17.84 1.19995Z"
            fill="#E41365" />
        <path fill-rule="evenodd" clip-rule="evenodd"
            d="M20.5601 1.68008C20.8319 1.65444 21.0986 1.68112 21.3601 1.76008C21.79 1.92785 22.1633 2.16785 22.4801 2.48008C22.4268 2.48008 22.3733 2.48008 22.3201 2.48008C22.0127 2.34204 21.6927 2.23539 21.3601 2.16008C21.0783 2.03004 20.8116 1.87004 20.5601 1.68008Z"
            fill="#E41365" />
        <path fill-rule="evenodd" clip-rule="evenodd"
            d="M15.28 1.20004C14.9067 1.20004 14.5333 1.20004 14.16 1.20004C14.1334 3.17409 14.16 5.14743 14.24 7.12004C14.2771 7.31804 14.3571 7.47804 14.48 7.60004C13.733 7.82607 12.9863 8.09274 12.24 8.40004C12.2263 8.24069 12.2796 8.10737 12.4 8.00004C12.9243 7.81709 13.4576 7.68377 14 7.60004C14 5.57337 14 3.54671 14 1.52004C13.2475 1.50999 12.5009 1.56332 11.76 1.68004C12.0343 1.4819 12.3543 1.37523 12.72 1.36004C13.3585 1.25389 13.9985 1.14723 14.64 1.04004C14.8872 1.04177 15.1006 1.09511 15.28 1.20004Z"
            fill="#E41365" />
        <path fill-rule="evenodd" clip-rule="evenodd"
            d="M12.24 8.39999C12.1333 8.39999 12.08 8.45332 12.08 8.55999C10.7614 9.23857 9.69471 10.1986 8.88002 11.44C7.52221 13.6709 7.25554 16.0176 8.08002 18.48C8.36461 19.9037 9.05794 21.077 10.16 22C10.3336 22.3339 10.6002 22.5472 10.96 22.64C11.5346 23.2102 12.228 23.5837 13.04 23.76C13.1467 23.8667 13.2533 23.9733 13.36 24.08C13.1705 24.2701 13.1705 24.4568 13.36 24.64C12.9431 24.712 12.7297 24.952 12.72 25.36C13.1467 25.36 13.5733 25.36 14 25.36C14 26.6933 14 28.0267 14 29.36C13.2252 29.4213 12.4785 29.3147 11.76 29.04C11.6533 29.0933 11.5467 29.1467 11.44 29.2C11.572 29.3418 11.732 29.395 11.92 29.36C11.92 29.52 11.92 29.68 11.92 29.84C12.5991 29.6571 13.2924 29.5504 14 29.52C14.0437 29.8322 13.9371 30.0722 13.68 30.24C13.7867 30.2933 13.8933 30.3467 14 30.4C13.133 30.4768 12.2797 30.3968 11.44 30.16C8.82266 29.493 6.68933 28.1062 5.04002 26C5.09164 25.4038 5.03829 24.8171 4.88002 24.24C4.74484 24.6019 4.53149 24.7086 4.24002 24.56C4.13335 24.24 4.02669 23.92 3.92002 23.6C3.62716 23.8443 3.46716 23.7643 3.44002 23.36C3.54669 23.0933 3.65335 22.8267 3.76002 22.56C3.70669 22.4267 3.65335 22.2933 3.60002 22.16C3.22153 21.8595 2.82153 21.5928 2.40002 21.36C2.46045 20.297 2.46045 19.2302 2.40002 18.16C2.22185 18.8835 2.08852 19.6302 2.00002 20.4C1.84002 19.76 1.68002 19.12 1.52002 18.48C1.77548 17.924 1.69548 17.444 1.28002 17.04C1.2001 16.028 1.17343 15.0147 1.20002 14C1.23748 13.1196 1.39748 12.2663 1.68002 11.44C2.05807 10.6258 2.37807 9.77246 2.64002 8.87999C3.13508 8.1562 3.66842 7.46286 4.24002 6.79999C4.61669 6.62951 4.99002 6.44284 5.36002 6.23999C5.72676 5.55396 6.20676 4.96731 6.80002 4.47999C7.18628 4.67307 7.61293 4.72639 8.08002 4.63999C8.15321 4.57375 8.20653 4.49375 8.24002 4.39999C8.04981 4.2514 7.83647 4.19807 7.60002 4.23999C7.60002 4.07999 7.60002 3.91999 7.60002 3.75999C7.99268 3.73127 8.33935 3.83795 8.64002 4.07999C8.72002 4.02667 8.80002 3.97332 8.88002 3.91999C8.30882 3.82169 8.25548 3.60836 8.72002 3.27999C9.0254 3.14428 9.3454 3.09094 9.68002 3.11999C9.68002 3.33332 9.68002 3.54667 9.68002 3.75999C9.84002 3.75999 10 3.75999 10.16 3.75999C10.1199 3.24633 10.1199 2.76633 10.16 2.31999C10.5907 1.89108 11.1241 1.67774 11.76 1.67999C12.5009 1.56328 13.2476 1.50994 14 1.51999C14 3.54667 14 5.57332 14 7.59999C13.4577 7.68372 12.9243 7.81705 12.4 7.99999C12.2796 8.10732 12.2263 8.24065 12.24 8.39999Z"
            fill="#E41365" />
        <path fill-rule="evenodd" clip-rule="evenodd"
            d="M15.28 1.19995C15.28 3.33328 15.28 5.46662 15.28 7.59995C15.0133 7.59995 14.7467 7.59995 14.48 7.59995C14.3571 7.47795 14.2771 7.31795 14.24 7.11995C14.16 5.14734 14.1334 3.174 14.16 1.19995C14.5333 1.19995 14.9067 1.19995 15.28 1.19995Z"
            fill="#E41365" />
        <path fill-rule="evenodd" clip-rule="evenodd"
            d="M17.84 1.04006C17.2533 1.04006 16.6667 1.04006 16.08 1.04006C16.08 3.22673 16.08 5.41339 16.08 7.60006C15.9733 5.49241 15.8666 3.35908 15.76 1.20006C15.705 3.39076 15.545 5.52411 15.28 7.60006C15.28 5.46673 15.28 3.33339 15.28 1.20006C15.1005 1.09513 14.8872 1.04179 14.64 1.04006C13.9984 1.14725 13.3584 1.25391 12.72 1.36006C13.5055 0.949127 14.3588 0.789127 15.28 0.880059C15.7051 0.934135 16.0784 0.827468 16.4 0.560059C16.9171 0.661375 17.3971 0.821375 17.84 1.04006Z"
            fill="#E41365" />
        <path fill-rule="evenodd" clip-rule="evenodd"
            d="M16.08 7.59995C16.1332 7.59995 16.1867 7.59995 16.24 7.59995C16.2932 7.59995 16.3467 7.59995 16.4 7.59995C17.6992 7.65458 18.8724 8.0279 19.92 8.71995C19.7084 8.74715 19.5217 8.69381 19.36 8.55995C19.1892 8.84517 18.9492 8.92517 18.64 8.79995C18.8198 8.76008 18.9798 8.68008 19.12 8.55995C18.1139 8.06552 17.0473 7.85219 15.92 7.91995C14.7343 7.88102 13.641 8.14768 12.64 8.71995C12.4781 8.5861 12.2915 8.53275 12.08 8.55995C12.08 8.45328 12.1333 8.39995 12.24 8.39995C12.9863 8.09266 13.7329 7.82598 14.48 7.59995C14.7466 7.59995 15.0133 7.59995 15.28 7.59995C15.545 5.524 15.705 3.39066 15.76 1.19995C15.8666 3.35898 15.9733 5.4923 16.08 7.59995Z"
            fill="#F0FCFC" />
        <path fill-rule="evenodd" clip-rule="evenodd"
            d="M17.84 1.04004C17.84 1.09337 17.84 1.14671 17.84 1.20004C17.3067 1.20004 16.7732 1.20004 16.24 1.20004C16.24 3.33337 16.24 5.46671 16.24 7.60004C16.1867 7.60004 16.1332 7.60004 16.08 7.60004C16.08 5.41337 16.08 3.22671 16.08 1.04004C16.6667 1.04004 17.2532 1.04004 17.84 1.04004Z"
            fill="#E41365" />
        <path fill-rule="evenodd" clip-rule="evenodd"
            d="M21.36 2.16011C21.6926 2.23543 22.0126 2.34208 22.32 2.48011C22.3728 5.06818 22.3193 7.62818 22.16 10.1601C22.0533 10.1601 21.9467 10.1601 21.84 10.1601C21.4398 9.63682 20.9598 9.18349 20.4 8.80011C20.2483 8.72287 20.0883 8.69619 19.92 8.72011C18.8725 8.02807 17.6992 7.65474 16.4 7.60011C16.3502 5.83186 16.4035 4.07186 16.56 2.32011C18.148 1.76117 19.748 1.70784 21.36 2.16011Z"
            fill="#E41365" />
        <path fill-rule="evenodd" clip-rule="evenodd"
            d="M22.32 2.47998C22.3733 2.47998 22.4268 2.47998 22.48 2.47998C22.5068 5.20051 22.48 7.92051 22.4 10.64C22.318 10.4757 22.238 10.3157 22.16 10.16C22.3194 7.62804 22.3728 5.06804 22.32 2.47998Z"
            fill="#E41365" />
        <path fill-rule="evenodd" clip-rule="evenodd"
            d="M10.16 2.32007C10.1198 2.7664 10.1198 3.2464 10.16 3.76007C9.99998 3.76007 9.83998 3.76007 9.67998 3.76007C9.67998 3.54674 9.67998 3.3334 9.67998 3.12007C9.34535 3.09101 9.02535 3.14436 8.71998 3.28007C8.25543 3.60844 8.30878 3.82176 8.87998 3.92007C8.79998 3.9734 8.71998 4.02674 8.63998 4.08007C8.3393 3.83802 7.99263 3.73135 7.59998 3.76007C8.23874 2.95911 9.09207 2.47911 10.16 2.32007Z"
            fill="#E41365" />
        <path fill-rule="evenodd" clip-rule="evenodd"
            d="M7.59999 3.76001C7.59999 3.92001 7.59999 4.08001 7.59999 4.24001C7.83644 4.19809 8.04978 4.25142 8.23999 4.40001C8.2065 4.49377 8.15317 4.57377 8.07999 4.64001C7.6129 4.72641 7.18625 4.67308 6.79999 4.48001C6.20673 4.96732 5.72673 5.55398 5.35999 6.24001C4.98999 6.44286 4.61666 6.62953 4.23999 6.80001C5.06153 5.45606 6.18153 4.44271 7.59999 3.76001Z"
            fill="#E41365" />
        <path fill-rule="evenodd" clip-rule="evenodd"
            d="M25.3601 4.23996C24.9828 4.02014 24.6093 3.80681 24.2401 3.59996C23.9953 3.30452 23.6753 3.14452 23.2801 3.11996C23.2801 6.05329 23.2801 8.98663 23.2801 11.92C23.146 11.8653 23.0925 11.7586 23.1201 11.6C23.1201 8.71996 23.1201 5.83996 23.1201 2.95996C23.6029 2.99257 24.0829 3.0459 24.5601 3.11996C24.7524 3.52894 25.0191 3.90226 25.3601 4.23996Z"
            fill="#E41365" />
        <path fill-rule="evenodd" clip-rule="evenodd"
            d="M24.24 3.60012C23.9376 3.63268 23.6976 3.52601 23.52 3.28012C23.4405 3.64969 23.4139 4.02303 23.44 4.40012C23.4133 6.7474 23.44 9.09405 23.52 11.4401C23.8469 12.0401 24.0335 12.6801 24.08 13.3601C23.7831 12.8947 23.5163 12.4147 23.28 11.9201C23.28 8.98679 23.28 6.05345 23.28 3.12012C23.6752 3.14468 23.9952 3.30468 24.24 3.60012Z"
            fill="#E41365" />
        <path fill-rule="evenodd" clip-rule="evenodd"
            d="M24.24 3.60003C24.6093 3.80688 24.9827 4.02021 25.36 4.24003C25.7334 4.74662 26.1867 5.17329 26.72 5.52003C27.2067 6.08598 27.66 6.67265 28.08 7.28003C27.872 7.37729 27.6587 7.48395 27.44 7.60003C27.2414 7.51408 27.0547 7.40741 26.88 7.28003C26.3168 7.77667 25.9168 7.67001 25.68 6.96003C25.555 7.15662 25.475 7.36995 25.44 7.60003C25.3867 6.69336 25.3333 5.7867 25.28 4.88003C25.1781 4.59153 24.9915 4.37821 24.72 4.24003C24.6667 4.37336 24.6133 4.5067 24.56 4.64003C24.871 6.54219 24.871 8.43552 24.56 10.32C24.7733 10.5334 24.9867 10.5334 25.2 10.32C25.319 9.84915 25.399 9.36915 25.44 8.88003C25.4667 9.17336 25.4933 9.4667 25.52 9.76003C25.3206 10.525 25.1606 11.2983 25.04 12.08C25.1505 12.5118 25.2573 12.9384 25.36 13.36C25.2 13.36 25.04 13.36 24.88 13.36C24.88 13.1467 24.88 12.9334 24.88 12.72C24.6201 12.6976 24.4336 12.8043 24.32 13.04C24.2933 12.9334 24.2667 12.8267 24.24 12.72C24.4182 12.3544 24.6315 12.0077 24.88 11.68C24.6843 11.351 24.5243 11.0043 24.4 10.64C24.1333 10.9067 23.9733 10.8534 23.92 10.48C24.1192 9.5376 24.2259 8.5776 24.24 7.60003C24.1867 6.7467 24.1333 5.89336 24.08 5.04003C23.9992 4.67691 23.7859 4.46358 23.44 4.40003C23.4139 4.02294 23.4405 3.6496 23.52 3.28003C23.6976 3.52592 23.9376 3.63259 24.24 3.60003Z"
            fill="#E41365" />
        <path fill-rule="evenodd" clip-rule="evenodd"
            d="M28.08 7.27999C28.0944 7.73535 28.2809 8.10869 28.64 8.39999C28.6793 8.94234 28.7593 9.47567 28.88 9.99999C28.6328 10.1523 28.366 10.2056 28.08 10.16C28.0534 11.015 28.0801 11.8683 28.16 12.72C28.2395 12.2966 28.2662 11.87 28.24 11.44C28.56 11.44 28.88 11.44 29.2 11.44C29.3065 12.7172 29.3598 13.9972 29.36 15.28C29.7867 15.28 30.2132 15.28 30.64 15.28C30.64 15.7067 30.64 16.1333 30.64 16.56C30.2132 16.56 29.7867 16.56 29.36 16.56C29.36 16.9867 29.36 17.4133 29.36 17.84C29.52 17.84 29.68 17.84 29.84 17.84C29.9795 18.8462 30.0328 19.8595 30 20.88C29.8105 21.7377 29.4905 22.5377 29.04 23.28C28.9867 23.28 28.9332 23.28 28.88 23.28C28.6867 23.3974 28.4734 23.4507 28.24 23.44C28.2664 22.8509 28.2398 22.2643 28.16 21.68C28.0804 22.1033 28.0537 22.5301 28.08 22.96C27.6532 22.96 27.2267 22.96 26.8 22.96C26.8 23.2267 26.8 23.4933 26.8 23.76C26.64 23.76 26.48 23.76 26.32 23.76C26.32 23.92 26.32 24.08 26.32 24.24C26.64 24.24 26.96 24.24 27.28 24.24C27.3051 24.4597 27.2784 24.6731 27.2 24.88C26.9062 25.067 26.7196 25.3337 26.64 25.68C26.2307 25.796 25.8572 25.796 25.52 25.68C25.9056 25.9721 26.1723 26.3456 26.32 26.8C26.2667 26.8 26.2132 26.8 26.16 26.8C25.9867 26.7937 25.8267 26.7403 25.68 26.64C25.2526 27.2005 24.746 27.6805 24.16 28.08C24.0827 28.2317 24.0561 28.3917 24.08 28.56C24.0267 28.56 23.9732 28.56 23.92 28.56C23.76 28.56 23.6 28.56 23.44 28.56C23.4132 25.7861 23.44 23.0128 23.52 20.24C23.9966 19.5185 24.2366 18.7185 24.24 17.84C24.24 17.68 24.24 17.52 24.24 17.36C24.4772 16.0138 24.424 14.6804 24.08 13.36C24.0334 12.68 23.8468 12.04 23.52 11.44C23.44 9.09393 23.4132 6.74727 23.44 4.39999C23.7859 4.46354 23.9992 4.67687 24.08 5.03999C24.1332 5.89332 24.1867 6.74666 24.24 7.59999C24.2259 8.57756 24.1192 9.53756 23.92 10.48C23.9732 10.8533 24.1332 10.9067 24.4 10.64C24.5243 11.0043 24.6843 11.3509 24.88 11.68C24.6315 12.0077 24.4182 12.3543 24.24 12.72C24.2667 12.8267 24.2932 12.9333 24.32 13.04C24.4336 12.8043 24.6201 12.6976 24.88 12.72C24.88 12.9333 24.88 13.1467 24.88 13.36C25.04 13.36 25.2 13.36 25.36 13.36C25.2572 12.9384 25.1505 12.5117 25.04 12.08C25.1606 11.2983 25.3206 10.525 25.52 9.75999C25.4932 9.46666 25.4667 9.17332 25.44 8.87999C25.399 9.36911 25.319 9.84911 25.2 10.32C24.9867 10.5333 24.7732 10.5333 24.56 10.32C24.871 8.43548 24.871 6.54215 24.56 4.63999C24.6132 4.50666 24.6667 4.37332 24.72 4.23999C24.9915 4.37817 25.178 4.59149 25.28 4.87999C25.3332 5.78666 25.3867 6.69332 25.44 7.59999C25.475 7.36991 25.555 7.15658 25.68 6.95999C25.9168 7.66997 26.3168 7.77663 26.88 7.27999C27.0547 7.40737 27.2414 7.51404 27.44 7.59999C27.6587 7.48391 27.872 7.37725 28.08 7.27999Z"
            fill="#E41365" />
        <path fill-rule="evenodd" clip-rule="evenodd"
            d="M19.92 8.71997C20.0884 8.69605 20.2484 8.72272 20.4 8.79997C20.9599 9.18334 21.4399 9.63667 21.84 10.16C21.861 10.9229 22.1544 11.0829 22.72 10.64C22.7733 10.2133 22.8268 9.78664 22.88 9.35997C22.9079 10.1362 22.9879 10.8829 23.12 11.6C23.0925 11.7586 23.146 11.8653 23.28 11.92C23.5164 12.4146 23.7831 12.8946 24.08 13.36C24.424 14.6803 24.4773 16.0137 24.24 17.36C23.9034 18.1323 23.5301 18.9056 23.12 19.68C23.0074 20.1804 22.9274 20.687 22.88 21.2C22.8268 21.1467 22.7733 21.0932 22.72 21.04C22.4962 21.1563 22.2562 21.2363 22 21.28C21.8661 21.4417 21.8128 21.6284 21.84 21.84C21.6826 22.1568 21.4693 22.4235 21.2 22.64C20.249 23.302 19.2357 23.8353 18.16 24.24C18.0533 24.24 17.9468 24.24 17.84 24.24C17.7333 24.24 17.6268 24.24 17.52 24.24C17.006 24.1904 16.526 24.2436 16.08 24.4C15.9734 26.4544 15.8667 28.5344 15.76 30.64C15.6534 28.5067 15.5467 26.3732 15.44 24.24C14.6787 23.9528 13.8787 23.7928 13.04 23.76C12.228 23.5836 11.5347 23.2102 10.96 22.64C10.7865 22.306 10.5199 22.0928 10.16 22C9.05797 21.0769 8.36464 19.9036 8.08005 18.48C8.08005 18.2667 8.08005 18.0532 8.08005 17.84C8.24005 17.84 8.40005 17.84 8.56005 17.84C8.58598 17.5156 8.55933 17.1956 8.48005 16.88C8.44502 17.11 8.36502 17.3233 8.24005 17.52C8.12926 17.436 8.04926 17.3292 8.00005 17.2C7.89338 16.3467 7.89338 15.4933 8.00005 14.64C8.05338 14.6933 8.10672 14.7466 8.16005 14.8C8.1924 14.5191 8.2724 14.2524 8.40005 14C8.50672 14.16 8.61338 14.32 8.72005 14.48C8.77338 14.4 8.82672 14.32 8.88005 14.24C8.68861 13.8257 8.52861 13.399 8.40005 12.96C8.64122 12.4766 8.80122 11.9699 8.88005 11.44C9.69474 10.1985 10.7614 9.23854 12.08 8.55997C12.2916 8.53277 12.4782 8.58611 12.64 8.71997C13.6411 8.14769 14.7344 7.88104 15.92 7.91997C17.0474 7.85221 18.114 8.06553 19.12 8.55997C18.9799 8.68009 18.8199 8.76009 18.64 8.79997C18.9493 8.92518 19.1893 8.84518 19.36 8.55997C19.5218 8.69382 19.7085 8.74717 19.92 8.71997Z"
            fill="#FDFEFE" />
        <path fill-rule="evenodd" clip-rule="evenodd"
            d="M2.63995 8.87988C2.378 9.77235 2.058 10.6257 1.67995 11.4399C1.58514 10.3966 1.90513 9.54327 2.63995 8.87988Z"
            fill="#DEF9FB" />
        <path fill-rule="evenodd" clip-rule="evenodd"
            d="M1.68005 11.4399C1.39751 12.2662 1.23751 13.1196 1.20005 13.9999C1.04127 15.2505 0.98794 16.5305 1.04005 17.8399C0.833276 16.3222 0.753276 14.7755 0.800055 13.1999C1.08289 12.586 1.37622 11.9993 1.68005 11.4399Z"
            fill="#E4FDFC" />
        <path fill-rule="evenodd" clip-rule="evenodd"
            d="M8.88003 11.4399C8.8012 11.9699 8.6412 12.4765 8.40003 12.9599C8.52859 13.399 8.68859 13.8257 8.88003 14.2399C8.8267 14.3199 8.77336 14.3999 8.72003 14.4799C8.61336 14.3199 8.5067 14.1599 8.40003 13.9999C8.27238 14.2524 8.19238 14.519 8.16003 14.7999C8.1067 14.7466 8.05336 14.6933 8.00003 14.6399C7.89336 15.4933 7.89336 16.3467 8.00003 17.1999C8.04925 17.3292 8.12925 17.4359 8.24003 17.5199C8.36501 17.3233 8.44501 17.11 8.48003 16.8799C8.55931 17.1956 8.58597 17.5156 8.56003 17.8399C8.40003 17.8399 8.24003 17.8399 8.08003 17.8399C8.08003 18.0532 8.08003 18.2667 8.08003 18.4799C7.25555 16.0175 7.52222 13.6709 8.88003 11.4399Z"
            fill="#EAF9F9" />
        <path fill-rule="evenodd" clip-rule="evenodd"
            d="M28.08 7.28003C29.5661 9.29245 30.5261 11.5324 30.96 14C31.0306 15.7237 30.9238 17.4304 30.64 19.12C30.64 19.2268 30.64 19.3333 30.64 19.44C30.4267 19.92 30.2133 20.4 30 20.88C30.0328 19.8596 29.9795 18.8463 29.84 17.84C29.68 17.84 29.52 17.84 29.36 17.84C29.36 17.4133 29.36 16.9867 29.36 16.56C29.7867 16.56 30.2133 16.56 30.64 16.56C30.64 16.1333 30.64 15.7067 30.64 15.28C30.2133 15.28 29.7867 15.28 29.36 15.28C29.3598 13.9973 29.3066 12.7173 29.2 11.44C28.88 11.44 28.56 11.44 28.24 11.44C28.2662 11.87 28.2395 12.2967 28.16 12.72C28.0802 11.8684 28.0534 11.015 28.08 10.16C28.3661 10.2057 28.6328 10.1523 28.88 10C28.7594 9.47571 28.6794 8.94238 28.64 8.40003C28.281 8.10873 28.0944 7.73539 28.08 7.28003Z"
            fill="#E41365" />
        <path fill-rule="evenodd" clip-rule="evenodd"
            d="M30.9599 14C31.145 15.4118 31.1717 16.8518 31.0399 18.32C31.0319 18.679 30.8986 18.9458 30.6399 19.12C30.9237 17.4304 31.0305 15.7237 30.9599 14Z"
            fill="#E4FDFD" />
        <path fill-rule="evenodd" clip-rule="evenodd"
            d="M17.52 -0.0800781C22.32 -0.0800781 27.12 -0.0800781 31.92 -0.0800781C31.92 10.5866 31.92 21.2532 31.92 31.9199C27.0133 31.9199 22.1067 31.9199 17.2 31.9199C17.6013 31.642 18.0813 31.5087 18.64 31.5199C17.8933 31.4666 17.1467 31.4132 16.4 31.3599C16.489 31.2986 16.5422 31.2186 16.56 31.1199C17.2614 31.1721 16.88 30.8799 17.68 30.8799C17.8563 30.7718 18.9763 30.7452 19.12 30.6399C19.5835 30.5393 20.0102 30.3793 20.4 30.1599C21.0659 30.0412 21.7059 29.8278 22.32 29.5199C22.5293 26.6874 22.5293 24.074 22.32 21.6799C22.1426 21.689 21.9826 21.7423 21.84 21.8399C21.8128 21.6284 21.8661 21.4417 22 21.2799C22.2562 21.2362 22.4962 21.1562 22.72 21.0399C22.7733 21.0932 22.8267 21.1466 22.88 21.1999C22.9274 20.687 23.0074 20.1804 23.12 19.6799C23.5301 18.9055 23.9034 18.1322 24.24 17.3599C24.24 17.5199 24.24 17.6799 24.24 17.8399C24.0576 18.6346 23.7376 19.3812 23.28 20.0799C23.1205 23.0388 23.0672 26.0254 23.12 29.0399C23.965 29.2052 24.4984 28.8852 24.72 28.0799C25.2968 27.7644 25.7768 27.3377 26.16 26.7999C26.2133 26.7999 26.2667 26.7999 26.32 26.7999C27.3579 25.7618 28.2112 24.5886 28.88 23.2799C28.9333 23.2799 28.9867 23.2799 29.04 23.2799C29.4126 22.9338 29.7592 22.5606 30.08 22.1599C30.3363 21.2786 30.523 20.3721 30.64 19.4399C30.64 19.3332 30.64 19.2266 30.64 19.1199C30.8987 18.9457 31.032 18.679 31.04 18.3199C31.1718 16.8518 31.1451 15.4117 30.96 13.9999C30.5261 11.5323 29.5661 9.29234 28.08 7.27992C27.66 6.67255 27.2067 6.08587 26.72 5.51992C26.1867 5.17319 25.7334 4.74651 25.36 4.23992C25.019 3.90223 24.7523 3.5289 24.56 3.11992C24.0829 3.04586 23.6029 2.99253 23.12 2.95992C23.12 5.83992 23.12 8.71992 23.12 11.5999C22.9878 10.8828 22.9078 10.1361 22.88 9.35992C22.8267 9.78659 22.7733 10.2132 22.72 10.6399C22.1544 11.0829 21.861 10.9229 21.84 10.1599C21.9467 10.1599 22.0533 10.1599 22.16 10.1599C22.2379 10.3157 22.3179 10.4757 22.4 10.6399C22.48 7.92045 22.5067 5.20045 22.48 2.47992C22.1632 2.1677 21.7899 1.9277 21.36 1.75992C21.0986 1.68096 20.8318 1.65429 20.56 1.67992C19.6658 1.45846 18.7592 1.29846 17.84 1.19992C17.84 1.14659 17.84 1.09325 17.84 1.03992C17.3971 0.821239 16.9171 0.661239 16.4 0.559922C16.0784 0.827331 15.7051 0.933999 15.28 0.879922C14.885 0.749186 14.4584 0.669186 14 0.639922C14.5672 0.525192 15.1272 0.551859 15.68 0.719922C16.2656 0.339856 16.8789 0.0731902 17.52 -0.0800781Z"
            fill="#FBFEFE" />
        <path fill-rule="evenodd" clip-rule="evenodd"
            d="M23.28 20.0801C23.2268 23.0153 23.28 25.9487 23.44 28.8801C23.6383 28.8094 23.7983 28.7026 23.92 28.5601C23.9733 28.5601 24.0268 28.5601 24.08 28.5601C24.2442 28.3436 24.4575 28.1836 24.72 28.0801C24.4984 28.8854 23.965 29.2054 23.12 29.0401C23.0672 26.0255 23.1205 23.039 23.28 20.0801Z"
            fill="#E41365" />
        <path fill-rule="evenodd" clip-rule="evenodd"
            d="M24.24 17.8401C24.2366 18.7186 23.9966 19.5186 23.52 20.2401C23.44 23.0129 23.4133 25.7862 23.44 28.5601C23.6 28.5601 23.76 28.5601 23.92 28.5601C23.7982 28.7026 23.6382 28.8094 23.44 28.8801C23.28 25.9487 23.2267 23.0153 23.28 20.0801C23.7376 19.3814 24.0576 18.6348 24.24 17.8401Z"
            fill="#E41365" />
        <path fill-rule="evenodd" clip-rule="evenodd"
            d="M1.19995 14C1.17335 15.0147 1.20002 16.028 1.27995 17.04C1.6954 17.444 1.7754 17.924 1.51995 18.48C1.67995 19.12 1.83995 19.76 1.99995 20.4C2.08844 19.6302 2.22177 18.8835 2.39995 18.16C2.46038 19.2302 2.46038 20.297 2.39995 21.36C2.82145 21.5928 3.22145 21.8595 3.59995 22.16C3.65328 22.2933 3.70662 22.4267 3.75995 22.56C3.65328 22.8267 3.54662 23.0933 3.43995 23.36C3.46708 23.7643 3.62708 23.8443 3.91995 23.6C4.02662 23.92 4.13328 24.24 4.23995 24.56C4.53142 24.7086 4.74476 24.6019 4.87995 24.24C5.03822 24.8171 5.09156 25.4038 5.03995 26C4.36964 25.4614 3.80964 24.8214 3.35995 24.08C2.219 22.1224 1.44566 20.0424 1.03995 17.84C0.987832 16.5306 1.04116 15.2505 1.19995 14Z"
            fill="#E41365" />
        <path fill-rule="evenodd" clip-rule="evenodd"
            d="M10.16 22C10.5198 22.0928 10.7865 22.3061 10.96 22.64C10.6002 22.5472 10.3336 22.3339 10.16 22Z"
            fill="#C5F1F8" />
        <path fill-rule="evenodd" clip-rule="evenodd"
            d="M30.64 19.4399C30.5231 20.3721 30.3364 21.2787 30.08 22.1599C29.7592 22.5606 29.4127 22.9339 29.04 23.2799C29.4906 22.5377 29.8106 21.7377 30 20.8799C30.2133 20.3999 30.4268 19.9199 30.64 19.4399Z"
            fill="#E2F8FB" />
        <path fill-rule="evenodd" clip-rule="evenodd"
            d="M28.88 23.2799C28.2112 24.5886 27.3579 25.7619 26.32 26.7999C26.1723 26.3455 25.9056 25.9721 25.52 25.6799C25.8573 25.7959 26.2307 25.7959 26.64 25.6799C26.7197 25.3337 26.9063 25.067 27.2 24.8799C27.2784 24.6731 27.3051 24.4596 27.28 24.2399C26.96 24.2399 26.64 24.2399 26.32 24.2399C26.32 24.0799 26.32 23.9199 26.32 23.7599C26.48 23.7599 26.64 23.7599 26.8 23.7599C26.8 23.4932 26.8 23.2267 26.8 22.9599C27.2267 22.9599 27.6533 22.9599 28.08 22.9599C28.0538 22.53 28.0805 22.1033 28.16 21.6799C28.2399 22.2643 28.2664 22.8508 28.24 23.4399C28.4735 23.4507 28.6867 23.3974 28.88 23.2799Z"
            fill="#E41365" />
        <path fill-rule="evenodd" clip-rule="evenodd"
            d="M20.4 30.16C20.0103 30.3794 19.5836 30.5394 19.12 30.64C18.8533 30.64 18.5868 30.64 18.32 30.64C18.0533 30.64 17.7868 30.64 17.52 30.64C17.52 28.9333 17.52 27.2267 17.52 25.52C17.3068 25.52 17.0933 25.52 16.88 25.52C16.88 27.2267 16.88 28.9333 16.88 30.64C16.72 30.64 16.56 30.64 16.4 30.64C16.3452 28.5 16.3984 26.6866 16.56 25.2C16.9996 25.2501 17.4263 25.1968 17.84 25.04C17.68 24.9333 17.52 24.8267 17.36 24.72C17.5989 24.6174 17.7589 24.4574 17.84 24.24C17.9468 24.24 18.0533 24.24 18.16 24.24C18.8021 24.0472 19.4421 24.0472 20.08 24.24C20.08 24.08 20.08 23.92 20.08 23.76C20.3893 23.7966 20.656 23.9299 20.88 24.16C20.7284 24.2373 20.5684 24.2638 20.4 24.24C20.4 25.52 20.4 26.8 20.4 28.08C18.6933 28.1867 18.6933 28.2933 20.4 28.4C20.4 28.6133 20.4 28.8267 20.4 29.04C19.5468 28.9333 18.6933 28.8267 17.84 28.72C17.84 28.9333 17.84 29.1467 17.84 29.36C18.4292 29.3336 19.0157 29.3602 19.6 29.44C19.9037 29.6667 20.1703 29.9067 20.4 30.16Z"
            fill="#E41365" />
        <path fill-rule="evenodd" clip-rule="evenodd"
            d="M20.4 30.1599C20.1702 29.9067 19.9036 29.6667 19.6 29.4399C19.0156 29.3601 18.4291 29.3335 17.84 29.3599C17.84 29.1467 17.84 28.9332 17.84 28.7199C18.6932 28.8267 19.5467 28.9332 20.4 29.0399C20.4 28.8267 20.4 28.6132 20.4 28.3999C18.6932 28.2932 18.6932 28.1867 20.4 28.0799C20.4 26.7999 20.4 25.5199 20.4 24.2399C20.5683 24.2638 20.7283 24.2372 20.88 24.1599C20.656 23.9299 20.3892 23.7966 20.08 23.7599C20.08 23.9199 20.08 24.0799 20.08 24.2399C19.442 24.0471 18.802 24.0471 18.16 24.2399C19.2356 23.8353 20.2489 23.302 21.2 22.6399C20.9675 22.8519 21.0209 22.9852 21.36 23.0399C20.8361 23.6023 20.9428 23.9756 21.68 24.1599C21.4134 24.5567 21.2801 25.01 21.28 25.5199C21.2001 26.3716 21.1734 27.2249 21.2 28.0799C21.04 28.0799 20.88 28.0799 20.72 28.0799C20.72 28.6132 20.72 29.1467 20.72 29.6799C20.9488 29.6926 21.1622 29.6393 21.36 29.5199C21.4667 29.0399 21.5732 28.5599 21.68 28.0799C21.9313 28.4611 22.0646 28.8878 22.08 29.3599C22.1332 29.1999 22.1867 29.0399 22.24 28.8799C22.32 26.4806 22.3467 24.0806 22.32 21.6799C22.5292 24.074 22.5292 26.6875 22.32 29.5199C21.7059 29.8278 21.0659 30.0412 20.4 30.1599Z"
            fill="#E41365" />
        <path fill-rule="evenodd" clip-rule="evenodd"
            d="M17.52 24.2401C17.1371 24.3537 16.7371 24.4604 16.32 24.5601C16.24 26.6395 16.2132 28.7195 16.24 30.8001C16.4532 30.8001 16.6667 30.8001 16.88 30.8001C16.6529 30.9523 16.3864 31.0055 16.08 30.9601C16.08 28.7734 16.08 26.5868 16.08 24.4001C16.5259 24.2438 17.0059 24.1905 17.52 24.2401Z"
            fill="#E41365" />
        <path fill-rule="evenodd" clip-rule="evenodd"
            d="M13.3599 24.0801C13.9999 24.1868 14.6399 24.2934 15.2799 24.4001C15.2799 26.5868 15.2799 28.7734 15.2799 30.9601C13.937 30.897 12.657 30.6305 11.4399 30.1601C12.2796 30.3969 13.1329 30.4769 13.9999 30.4001C13.8933 30.3468 13.7866 30.2934 13.6799 30.2401C13.937 30.0722 14.0437 29.8322 13.9999 29.5201C13.2923 29.5505 12.599 29.6572 11.9199 29.8401C11.9199 29.6801 11.9199 29.5201 11.9199 29.3601C11.7319 29.3951 11.5719 29.3418 11.4399 29.2001C11.5466 29.1468 11.6533 29.0934 11.7599 29.0401C12.4785 29.3148 13.2251 29.4214 13.9999 29.3601C13.9999 28.0268 13.9999 26.6934 13.9999 25.3601C13.5733 25.3601 13.1466 25.3601 12.7199 25.3601C12.7297 24.9521 12.943 24.7121 13.3599 24.6401C13.1705 24.4569 13.1705 24.2702 13.3599 24.0801Z"
            fill="#E41365" />
        <path fill-rule="evenodd" clip-rule="evenodd"
            d="M13.04 23.76C13.8787 23.7928 14.6787 23.9528 15.44 24.24C15.5467 26.3733 15.6534 28.5067 15.76 30.64C15.8667 28.5344 15.9734 26.4544 16.08 24.4C16.08 26.5867 16.08 28.7733 16.08 30.96C15.7824 30.8686 15.5158 30.8686 15.28 30.96C15.28 28.7733 15.28 26.5867 15.28 24.4C14.64 24.2933 14 24.1867 13.36 24.08C13.2534 23.9733 13.1467 23.8667 13.04 23.76Z"
            fill="#E41365" />
        <path fill-rule="evenodd" clip-rule="evenodd"
            d="M17.52 24.24C17.6267 24.24 17.7333 24.24 17.84 24.24C17.7589 24.4574 17.5989 24.6174 17.36 24.72C17.52 24.8267 17.68 24.9333 17.84 25.04C17.4262 25.1968 16.9995 25.2501 16.56 25.2C16.3984 26.6866 16.3451 28.5 16.4 30.64C16.56 30.64 16.72 30.64 16.88 30.64C16.88 28.9333 16.88 27.2267 16.88 25.52C17.0933 25.52 17.3067 25.52 17.52 25.52C17.52 27.2267 17.52 28.9333 17.52 30.64C17.7867 30.64 18.0533 30.64 18.32 30.64C17.8741 30.7963 17.3941 30.8496 16.88 30.8C16.6667 30.8 16.4533 30.8 16.24 30.8C16.2133 28.7194 16.24 26.6394 16.32 24.56C16.7371 24.4603 17.1371 24.3536 17.52 24.24Z"
            fill="#E41365" />
        <path fill-rule="evenodd" clip-rule="evenodd"
            d="M22.32 21.6799C22.3467 24.0806 22.32 26.4806 22.24 28.8799C22.1867 29.0399 22.1333 29.1999 22.08 29.3599C22.0646 28.8878 21.9313 28.4611 21.68 28.0799C21.5733 28.5599 21.4667 29.0399 21.36 29.5199C21.1622 29.6393 20.9488 29.6926 20.72 29.6799C20.72 29.1467 20.72 28.6132 20.72 28.0799C20.88 28.0799 21.04 28.0799 21.2 28.0799C21.1734 27.2249 21.2001 26.3716 21.28 25.5199C21.2801 25.01 21.4134 24.5567 21.68 24.1599C20.9429 23.9756 20.8361 23.6023 21.36 23.0399C21.0209 22.9852 20.9675 22.8519 21.2 22.6399C21.4693 22.4235 21.6825 22.1567 21.84 21.8399C21.9825 21.7423 22.1425 21.6891 22.32 21.6799Z"
            fill="#E41365" />
        <path fill-rule="evenodd" clip-rule="evenodd"
            d="M26.16 26.7999C25.7768 27.3377 25.2968 27.7644 24.72 28.0799C24.4574 28.1834 24.2441 28.3434 24.08 28.5599C24.0561 28.3916 24.0827 28.2316 24.16 28.0799C24.7461 27.6804 25.2526 27.2004 25.68 26.6399C25.8267 26.7402 25.9867 26.7937 26.16 26.7999Z"
            fill="#E41365" />
    </g>
    <defs>
        <clipPath id="clip0_1936_209">
            <rect width="32" height="32" fill="white" />
        </clipPath>
    </defs>
</svg>