<svg width="32" height="32" viewBox="0 0 32 32" fill="none" xmlns="http://www.w3.org/2000/svg">
    <g clip-path="url(#clip0_4216_787)">
        <path fill-rule="evenodd" clip-rule="evenodd"
            d="M-0.071167 -0.0712891C10.5955 -0.0712891 21.2622 -0.0712891 31.9288 -0.0712891C31.9288 10.5954 31.9288 21.262 31.9288 31.9287C21.2622 31.9287 10.5955 31.9287 -0.071167 31.9287C-0.071167 21.262 -0.071167 10.5954 -0.071167 -0.0712891Z"
            fill="#FEFEFE" />
        <path fill-rule="evenodd" clip-rule="evenodd"
            d="M23.68 24.1069C22.9081 24.147 22.1497 24.0996 21.4044 23.9647C19.7086 19.2444 17.9308 14.5511 16.0711 9.88465C13.9385 14.5763 11.9237 19.3171 10.0266 24.1069C9.30928 24.1534 8.59816 24.106 7.89331 23.9647C10.2109 18.3348 12.4865 12.6932 14.72 7.04021C15.5626 6.99638 16.3924 7.04378 17.2089 7.18243C19.3251 12.8447 21.4822 18.4861 23.68 24.1069Z"
            fill="#050505" />
        <path fill-rule="evenodd" clip-rule="evenodd"
            d="M15.4312 17.2801C17.0505 17.2158 17.738 17.9743 17.4934 19.5557C16.87 20.6612 15.9929 20.9219 14.8623 20.3379C14.1876 19.573 14.1165 18.7435 14.6489 17.849C14.9355 17.6788 15.1964 17.4892 15.4312 17.2801Z"
            fill="#0A0A0A" />
        <path fill-rule="evenodd" clip-rule="evenodd"
            d="M21.4044 23.9648C22.1497 24.0998 22.9081 24.1472 23.68 24.1071C23.3275 24.2015 22.9482 24.2489 22.5422 24.2493C22.1027 24.2462 21.7234 24.1514 21.4044 23.9648Z"
            fill="#B9B9B9" />
    </g>
    <defs>
        <clipPath id="clip0_4216_787">
            <rect width="32" height="32" fill="white" />
        </clipPath>
    </defs>
</svg>