<svg width="32" height="32" viewBox="0 0 33 33" fill="none" xmlns="http://www.w3.org/2000/svg">
    <path fill-rule="evenodd" clip-rule="evenodd"
        d="M15.06 0.5C15.8866 0.5 16.7134 0.5 17.54 0.5C24.2062 1.22561 28.8595 4.66561 31.5 10.82C31.9884 12.2079 32.3217 13.6213 32.5 15.06C32.5 15.8866 32.5 16.7134 32.5 17.54C31.8871 23.5544 28.9271 27.9944 23.62 30.86C21.6847 31.7767 19.658 32.3234 17.54 32.5C16.7134 32.5 15.8866 32.5 15.06 32.5C8.65384 31.6542 4.1605 28.2674 1.58 22.34C1.02199 20.7757 0.661993 19.1757 0.5 17.54C0.5 16.7134 0.5 15.8866 0.5 15.06C0.678294 13.6213 1.01163 12.2079 1.5 10.82C4.0729 4.8203 8.59288 1.3803 15.06 0.5Z"
        fill="#01437F" />
    <path fill-rule="evenodd" clip-rule="evenodd"
        d="M30.9 17.4602C30.9 17.5136 30.8733 17.5402 30.82 17.5402C28.9501 14.2158 26.1234 12.2024 22.34 11.5002C17.1807 10.8078 13.0873 12.5546 10.06 16.7402C9.18237 18.5786 9.10237 18.5519 9.81997 16.6602C10.2098 15.9102 10.6498 15.1902 11.14 14.5002C8.00887 13.5661 5.32887 14.2861 3.09997 16.6602C2.78671 17.0999 2.49337 17.5533 2.21997 18.0202C3.05071 15.6968 4.66405 14.1901 7.05997 13.5002C8.63021 13.1341 10.1502 13.2808 11.62 13.9402C15.1833 10.2955 19.3967 9.26889 24.26 10.8602C27.4189 12.1126 29.6323 14.3126 30.9 17.4602Z"
        fill="#F6F8FA" />
    <path fill-rule="evenodd" clip-rule="evenodd"
        d="M30.9 17.46C31.0124 17.598 31.0524 17.758 31.02 17.94C30.9522 17.8045 30.8856 17.6712 30.82 17.54C30.8734 17.54 30.9 17.5133 30.9 17.46Z"
        fill="#87A6C2" />
</svg>