<svg width="32" height="32" viewBox="0 0 32 32" fill="none" xmlns="http://www.w3.org/2000/svg">
<g clip-path="url(#clip0_4010_525)">
<path fill-rule="evenodd" clip-rule="evenodd" d="M-0.0710449 -0.0712891C10.5956 -0.0712891 21.2623 -0.0712891 31.929 -0.0712891C31.929 10.5954 31.929 21.262 31.929 31.9287C21.2623 31.9287 10.5956 31.9287 -0.0710449 31.9287C-0.0710449 21.262 -0.0710449 10.5954 -0.0710449 -0.0712891Z" fill="#FDFDFD"/>
<path fill-rule="evenodd" clip-rule="evenodd" d="M25.5289 16.2846C25.1829 15.5446 25.1592 14.7862 25.4578 14.0091C25.772 13.1854 26.1276 12.3795 26.5245 11.5913C26.261 11.4121 26.0003 11.4121 25.7423 11.5913C25.3903 12.9351 24.8214 14.1677 24.0356 15.2891C23.1407 16.0781 22.2874 16.0308 21.4756 15.1468C21.283 14.6102 21.0697 14.0887 20.8356 13.5824C20.7188 14.0015 20.6477 14.4282 20.6223 14.8624C20.1411 15.8255 19.4064 16.0862 18.4178 15.6446C18.2611 15.3031 18.2374 14.9476 18.3467 14.578C18.632 14.1269 18.9876 13.7476 19.4134 13.4402C19.236 13.0379 19.0227 12.6586 18.7734 12.3024C18.5184 13.1505 18.2814 14.0038 18.0623 14.8624C17.7465 16.1141 17.1303 16.3038 16.2134 15.4313C15.8672 16.4029 15.2035 16.6874 14.2223 16.2846C13.9116 16.6426 13.5561 16.9506 13.1556 17.2091C12.374 17.4779 11.8762 17.2172 11.6623 16.4268C11.5912 15.4799 11.5675 14.5317 11.5912 13.5824C11.1865 13.6263 10.9731 13.8633 10.9512 14.2935C10.9038 15.4313 10.8563 16.5691 10.8089 17.7068C10.5052 17.9597 10.1497 18.0546 9.74228 17.9913C9.78784 17.508 9.74043 17.0338 9.60005 16.5691C9.00716 17.9455 8.20123 19.178 7.18228 20.2668C6.02406 21.1304 5.00481 20.9882 4.1245 19.8402C3.26563 17.9449 2.98119 15.9538 3.27117 13.8668C3.54574 12.4862 4.23314 11.3721 5.33339 10.5246C6.37849 9.92915 7.30294 10.0477 8.10672 10.8802C8.35255 11.8338 8.09182 12.616 7.3245 13.2268C6.8485 13.3984 6.51663 13.2562 6.32894 12.8002C6.62448 12.4573 6.86152 12.078 7.04005 11.6624C7.01635 11.4491 6.89783 11.3305 6.6845 11.3068C5.84057 11.5676 5.31908 12.1365 5.12005 13.0135C4.60392 14.8827 4.65132 16.7316 5.26228 18.5602C5.64515 19.1458 6.14293 19.2643 6.75561 18.9157C9.2477 16.5938 9.95881 13.8679 8.88894 10.738C9.40842 9.99773 9.9062 9.99773 10.3823 10.738C10.4297 11.5439 10.4771 12.3498 10.5245 13.1557C10.9449 12.4829 11.5375 12.2222 12.3023 12.3735C12.4172 12.4173 12.512 12.4884 12.5867 12.5868C12.7247 13.7642 12.7721 14.9493 12.7289 16.1424C13.2542 16.1871 13.5861 15.9501 13.7245 15.4313C13.499 14.416 13.5701 13.4204 13.9378 12.4446C14.1383 12.2615 14.3517 12.0956 14.5778 11.9468C15.344 11.8551 16.1025 11.7366 16.8534 11.5913C16.868 12.4959 16.9391 13.3967 17.0667 14.2935C17.1105 14.4084 17.1816 14.5033 17.2801 14.578C17.4342 14.4123 17.5527 14.2227 17.6356 14.0091C17.9812 12.9449 18.2183 11.8545 18.3467 10.738C18.6504 10.485 19.0059 10.3902 19.4134 10.4535C19.3185 10.7834 19.2948 11.1152 19.3423 11.4491C19.6089 12.0718 19.9645 12.6406 20.4089 13.1557C20.6083 13.1037 20.7506 12.9852 20.8356 12.8002C20.8548 11.432 21.5186 10.6023 22.8267 10.3113C23.9506 10.487 24.2588 11.1033 23.7512 12.1602C23.2315 12.6651 22.6862 13.1155 22.1156 13.5113C22.7142 14.9025 23.4017 14.9263 24.1778 13.5824C24.4246 12.9131 24.6854 12.2494 24.9601 11.5913C24.4057 10.8889 24.4057 10.2015 24.9601 9.52906C25.678 9.39112 26.0811 9.69926 26.1689 10.4535C26.7199 10.002 27.3126 9.9309 27.9467 10.2402C28.0914 10.3894 28.1151 10.5554 28.0178 10.738C27.465 11.7485 26.991 12.7915 26.5956 13.8668C26.5249 14.2432 26.5012 14.6225 26.5245 15.0046C26.9263 15.0642 27.2343 14.922 27.4489 14.578C27.7342 14.1462 27.8529 13.6721 27.8045 13.1557C28.2903 13.0656 28.5748 13.2552 28.6578 13.7246C28.4007 15.1194 27.5947 16.0202 26.2401 16.4268C26.0075 16.3492 25.7706 16.3017 25.5289 16.2846Z" fill="#211F20"/>
<path fill-rule="evenodd" clip-rule="evenodd" d="M15.1467 12.4443C15.3363 12.4443 15.526 12.4443 15.7156 12.4443C15.7392 13.2516 15.7155 14.0576 15.6445 14.8621C15.4074 15.6206 15.1705 15.6206 14.9334 14.8621C14.7986 14.03 14.8697 13.2241 15.1467 12.4443Z" fill="#EFEEEF"/>
<path fill-rule="evenodd" clip-rule="evenodd" d="M22.6845 11.1641C22.8741 11.1641 23.0638 11.1641 23.2534 11.1641C23.1933 11.8883 22.814 12.3624 22.1156 12.5863C21.9571 12.4123 21.9334 12.2227 22.0445 12.0174C22.2339 11.7102 22.4472 11.4258 22.6845 11.1641Z" fill="#E2DFE0"/>
<path fill-rule="evenodd" clip-rule="evenodd" d="M25.2444 17.5647C25.6228 18.0756 25.5279 18.526 24.96 18.9158C23.7316 18.7572 22.499 18.5914 21.2622 18.418C20.6239 18.3233 19.9603 18.2759 19.2711 18.2758C18.2428 18.252 17.2473 18.3468 16.2844 18.5602C13.0564 19.0131 10.2593 20.3406 7.89333 22.5425C7.76324 22.4247 7.66842 22.2825 7.60889 22.1158C7.753 21.8275 7.89522 21.5431 8.03555 21.2625C12.9537 17.3609 18.5004 16.0098 24.6756 17.2091C24.8866 17.3033 25.0762 17.4219 25.2444 17.5647Z" fill="#201F1F"/>
<path fill-rule="evenodd" clip-rule="evenodd" d="M25.5288 16.2847C25.4261 16.3442 25.355 16.4389 25.3155 16.5692C24.9957 16.5183 24.6402 16.4234 24.2488 16.2847C24.1228 16.4021 24.0754 16.5443 24.1066 16.7114C24.3482 16.6886 24.5853 16.7122 24.8177 16.7825C24.6536 16.9125 24.6773 17.031 24.8888 17.1381C25.3288 16.986 25.4473 17.1282 25.2444 17.5647C25.0761 17.4219 24.8865 17.3033 24.6755 17.2092C18.5003 16.0098 12.9536 17.3609 8.03546 21.2625C7.89926 20.8892 7.73334 20.8892 7.53768 21.2625C7.468 21.0786 7.44429 20.8889 7.46657 20.6936C8.08009 20.6549 8.1512 20.4653 7.67991 20.1247C7.53608 20.2438 7.37016 20.2911 7.18213 20.2669C8.20108 19.1781 9.00701 17.9456 9.59991 16.5692C9.74028 17.0339 9.7877 17.5081 9.74213 17.9914C10.1495 18.0547 10.5051 17.9598 10.8088 17.7069C10.8562 16.5692 10.9036 15.4314 10.951 14.2936C10.973 13.8634 11.1863 13.6264 11.591 13.5825C11.5674 14.5318 11.5911 15.48 11.6621 16.4269C11.8761 17.2173 12.3739 17.478 13.1555 17.2092C13.5559 16.9507 13.9115 16.6427 14.2221 16.2847C15.2033 16.6875 15.8671 16.4031 16.2132 15.4314C17.1301 16.3039 17.7464 16.1142 18.0621 14.8625C18.2813 14.0039 18.5182 13.1506 18.7732 12.3025C19.0226 12.6587 19.2359 13.038 19.4132 13.4403C18.9874 13.7477 18.6319 14.127 18.3466 14.5781C18.2372 14.9477 18.261 15.3032 18.4177 15.6447C19.4063 16.0863 20.141 15.8256 20.6221 14.8625C20.6476 14.4283 20.7187 14.0016 20.8355 13.5825C21.0696 14.0888 21.2829 14.6103 21.4755 15.1469C22.2873 16.0309 23.1406 16.0782 24.0355 15.2892C24.8212 14.1678 25.3901 12.9352 25.7421 11.5914C26.0001 11.4122 26.2608 11.4122 26.5244 11.5914C26.1274 12.3796 25.7719 13.1855 25.4577 14.0092C25.159 14.7863 25.1828 15.5447 25.5288 16.2847Z" fill="#F1F0F1"/>
<path fill-rule="evenodd" clip-rule="evenodd" d="M19.4134 14.1514C19.6705 14.353 19.7654 14.6375 19.6978 15.0047C19.5083 15.0047 19.3185 15.0047 19.129 15.0047C19.0938 14.6693 19.1885 14.3849 19.4134 14.1514Z" fill="#DFDDDE"/>
<path fill-rule="evenodd" clip-rule="evenodd" d="M21.2622 18.4183C19.6006 18.4037 17.9413 18.4511 16.2844 18.5605C17.2473 18.347 18.2428 18.2523 19.2711 18.276C19.9603 18.2762 20.6239 18.3235 21.2622 18.4183Z" fill="#A3A3A3"/>
</g>
<defs>
<clipPath id="clip0_4010_525">
<rect width="32" height="32" fill="white"/>
</clipPath>
</defs>
</svg>
