<svg width="32" height="32" viewBox="0 0 32 32" fill="none" xmlns="http://www.w3.org/2000/svg">
    <path
        d="M16 32C24.8366 32 32 24.8366 32 16C32 7.16344 24.8366 0 16 0C7.16344 0 0 7.16344 0 16C0 24.8366 7.16344 32 16 32Z"
        fill="url(#paint0_linear_2461_488)" />
    <path fill-rule="evenodd" clip-rule="evenodd"
        d="M13.9299 25.2946C12.4569 26.1337 10.7972 26.6959 9.49585 26.1013C10.7234 25.497 10.9546 24.8116 11.0755 24.2402C11.0819 24.2099 11.088 24.1799 11.0936 24.1501C10.6818 23.8868 10.2605 23.5749 9.82015 23.2069C7.66297 21.4044 6.28906 18.6831 6.28906 15.6381C6.28906 10.2105 10.6546 5.81091 16.0403 5.81091C18.922 5.81091 21.5115 7.07043 23.2966 9.07304C24.8478 10.8132 25.7915 13.1146 25.7915 15.6381C25.7915 21.0658 21.426 25.4654 16.0403 25.4654C15.2805 25.4654 14.5895 25.4183 13.9299 25.2946ZM11.4966 19.4163C13.0032 20.4257 14.537 20.9353 16.0907 20.9353C17.6428 20.9353 19.1942 20.4267 20.7387 19.4193C20.9426 19.2863 20.9972 19.0174 20.8606 18.8188C20.7239 18.6202 20.4478 18.5671 20.2438 18.7001C18.839 19.6164 17.4566 20.0696 16.0907 20.0696C14.7262 20.0696 13.3653 19.6174 12.0006 18.7031C11.7983 18.5676 11.5215 18.6174 11.3824 18.8144C11.2432 19.0113 11.2943 19.2808 11.4966 19.4163Z"
        fill="#FEFEFE" />
    <defs>
        <linearGradient id="paint0_linear_2461_488" x1="1599.48" y1="1598.44" x2="1599.48" y2="0"
            gradientUnits="userSpaceOnUse">
            <stop offset="0.000325796" stop-color="#724CDA" />
            <stop offset="1" stop-color="#6554B0" />
        </linearGradient>
    </defs>
</svg>