<svg width="32" height="32" viewBox="0 0 32 32" fill="none" xmlns="http://www.w3.org/2000/svg">
    <g clip-path="url(#clip0_2383_209)">
        <mask id="mask0_2383_209" style="mask-type:luminance" maskUnits="userSpaceOnUse" x="0" y="0"
            width="32" height="32">
            <path d="M32 0H0V32H32V0Z" fill="white" />
        </mask>
        <g mask="url(#mask0_2383_209)">
            <path
                d="M24.8 0H7.2C3.2 0 0 3.2 0 7.2V24.8C0 28.8 3.2 32 7.2 32H24.8C28.8 32 32 28.8 32 24.8V7.2C32 3.2 28.8 0 24.8 0Z"
                fill="white" />
            <path
                d="M13.3332 5.4668C13.2665 5.53346 9.13317 6.80013 6.93317 5.60013C6.8665 5.53346 6.73317 5.60013 6.6665 5.6668V5.73346C6.6665 6.53346 6.8665 8.6668 9.0665 8.53346C11.8665 8.4668 13.3332 5.4668 13.3332 5.4668Z"
                fill="#E96BB0" />
            <path
                d="M13.8002 5.33288C13.7335 5.33288 11.4002 5.39954 10.5335 4.66621C10.4669 4.59954 10.3335 4.59954 10.2669 4.66621L10.2002 4.73288C10.0002 5.33288 10.2669 5.93288 10.8002 6.19954C10.8669 6.19954 10.9335 6.26621 10.9335 6.26621C12.2002 6.53288 13.8002 5.33288 13.8002 5.33288Z"
                fill="#E96BB0" />
            <path
                d="M19.1999 20.1998L16.8666 18.5998C19.8666 16.5998 22.8666 13.9998 22.8666 13.9998C22.8666 13.9998 25.4666 8.06644 17.9332 5.5331C14.6666 4.46644 11.0666 5.7331 9.13322 8.5331C8.13322 9.79977 7.39989 11.1998 6.93322 12.7331C6.26655 14.6664 5.06655 19.6664 10.8666 24.7331C10.3999 23.3331 10.1999 21.9331 10.1332 20.4664C10.1332 20.4664 11.9999 26.1331 15.4666 26.8664C15.4666 26.8664 13.5332 23.2664 13.8666 21.9331C13.8666 21.9331 16.4666 28.3331 23.3999 27.2664C23.3332 27.2664 18.5332 22.3331 19.1999 20.1998Z"
                fill="#00CE7C" />
            <path
                d="M20.4001 18.6663C22.0001 16.5329 21.6001 13.5329 19.5335 11.8663C17.4001 10.2663 14.4001 10.6663 12.7335 12.7329C11.1335 14.8663 11.5335 17.8663 13.6001 19.5329C15.5335 20.9996 18.2668 20.7996 20.0001 19.1329C20.9335 19.9329 22.0668 20.5996 23.2001 21.1329L23.6668 21.1996C23.6668 21.1996 23.7335 21.1329 23.8668 20.9996C22.5335 20.4663 21.4001 19.6663 20.4001 18.6663Z"
                fill="white" />
            <path
                d="M18.7998 16.0665C18.9331 16.7332 19.2665 17.3999 19.7331 17.9332C20.7998 19.2665 22.1998 20.3332 23.7998 20.9999C24.5998 20.0665 27.8665 15.6665 23.2665 11.5332C23.2665 11.5332 21.3331 11.8665 20.5331 12.9999C19.9331 13.9332 19.3331 14.9999 18.7998 16.0665Z"
                fill="#00482B" />
            <path
                d="M23.1999 21.1331C20.1999 19.7997 18.8665 18.0664 18.2665 17.0664C17.3332 18.8664 16.5332 20.5331 16.5332 20.5331L23.1999 21.1331Z"
                fill="#00482B" />
            <path
                d="M16.5335 16.6667C17.2669 16.6667 17.8669 16.0667 17.8669 15.3333C17.8669 14.6 17.2669 14 16.5335 14C15.8002 14 15.2002 14.6 15.2002 15.3333C15.2002 16.0667 15.8002 16.6667 16.5335 16.6667Z"
                fill="#010101" />
            <path
                d="M16.9332 15.133C17.1332 15.133 17.3332 14.933 17.3332 14.733C17.3332 14.533 17.1332 14.333 16.9332 14.333C16.7332 14.333 16.5332 14.533 16.5332 14.733C16.5332 14.9997 16.7332 15.133 16.9332 15.133Z"
                fill="white" />
        </g>
    </g>
    <defs>
        <clipPath id="clip0_2383_209">
            <rect width="32" height="32" fill="white" />
        </clipPath>
    </defs>
</svg>