<svg width="32" height="32" viewBox="0 0 32 32" fill="none" xmlns="http://www.w3.org/2000/svg">
    <g clip-path="url(#clip0_1543_45)">
        <path
            d="M23.5999 12.5601V15.6801C23.5999 16.1201 23.3599 16.5201 22.9599 16.7201C20.7999 17.7601 18.3999 18.3201 15.9999 18.4001C13.5999 18.3201 11.1999 17.7601 9.0399 16.7201C8.6399 16.5201 8.3999 16.1201 8.3999 15.6801V12.5601C8.3999 12.0801 8.7999 11.6801 9.2799 11.6801C9.3999 11.6801 9.5199 11.7201 9.5999 11.7601C11.5999 12.6401 13.7599 13.1601 15.9599 13.2001C18.1599 13.1601 20.3199 12.6801 22.3199 11.8001C22.7599 11.6001 23.2799 11.8001 23.4799 12.2801C23.5599 12.3601 23.5999 12.4401 23.5999 12.5601Z"
            fill="#0066FF" />
        <path
            d="M31.7999 19.88C31.4799 23.8 28.1599 26.84 24.1999 26.8H19.9999L11.9999 32V26.8L19.9999 21.6H24.1999C25.4399 21.64 26.4799 20.72 26.6399 19.48C26.8799 15.48 26.8799 11.48 26.5599 7.48C26.4799 6.36 25.5599 5.52 24.4799 5.44C21.7599 5.32 18.8799 5.2 15.9999 5.2C13.1199 5.2 10.2399 5.28 7.51994 5.48C6.39994 5.56 5.51994 6.4 5.43994 7.52C5.15994 11.52 5.11994 15.52 5.35994 19.52C5.47994 20.76 6.55994 21.64 7.79994 21.6H11.9999V26.8H7.79994C3.83994 26.84 0.51994 23.84 0.19994 19.88C-0.0800597 15.6 -0.0400597 11.36 0.27994 7.08C0.59994 3.4 3.51994 0.52 7.19994 0.28C9.99994 0.08 12.9999 0 15.9999 0C18.9999 0 21.9999 0.08 24.8399 0.32C28.5199 0.56 31.4399 3.44 31.7599 7.12C32.0399 11.36 32.0799 15.64 31.7999 19.88Z"
            fill="#0066FF" />
    </g>
    <defs>
        <clipPath id="clip0_1543_45">
            <rect width="32" height="32" fill="white" />
        </clipPath>
    </defs>
</svg>