<svg width="32" height="32" viewBox="0 0 32 32" fill="none" xmlns="http://www.w3.org/2000/svg">
    <g clip-path="url(#clip0_2442_63)">
        <path
            d="M14.5779 32.034V25.1465C14.5779 25.1465 3.55566 23.5696 3.55566 12.5948C3.55542 9.28277 4.83546 6.10411 7.11833 3.74779C9.4012 1.39148 12.5029 0.0473765 15.7512 0.00684079C18.8139 -0.0963607 21.8039 0.971214 24.1342 3.00003C26.4646 5.02884 27.9671 7.8724 28.3468 10.9726C28.6598 14.1403 27.8181 17.3147 25.9823 19.8902C22.599 24.3258 18.7774 28.3952 14.5779 32.034Z"
            fill="#1258FF" />
        <path
            d="M16.0001 19.0382C19.4365 19.0382 22.2223 16.198 22.2223 12.6944C22.2223 9.19081 19.4365 6.35059 16.0001 6.35059C12.5636 6.35059 9.77783 9.19081 9.77783 12.6944C9.77783 16.198 12.5636 19.0382 16.0001 19.0382Z"
            fill="white" />
    </g>
    <defs>
        <clipPath id="clip0_2442_63">
            <rect width="32" height="32" fill="white" />
        </clipPath>
    </defs>
</svg>