<svg width="32" height="32" viewBox="0 0 32 32" fill="none" xmlns="http://www.w3.org/2000/svg">
    <g clip-path="url(#clip0_3853_186)">
        <path opacity="0.997" fill-rule="evenodd" clip-rule="evenodd"
            d="M31.98 14.8602C31.98 15.6202 31.98 16.3802 31.98 17.1402C31.4527 22.3904 28.9993 26.4638 24.62 29.3602C21.0364 31.5502 17.1697 32.2902 13.02 31.5802C16.3149 30.5052 18.9882 28.5718 21.04 25.7802C21.6365 24.9472 22.2232 24.1072 22.8 23.2602C23.28 22.4004 23.6067 21.4871 23.78 20.5202C23.7508 19.9653 23.4708 19.7786 22.94 19.9602C22.5109 20.2691 22.1175 20.6224 21.76 21.0202C21.1042 21.8494 20.3775 22.6161 19.58 23.3202C18.275 24.4655 16.9017 25.5188 15.46 26.4802C14.6939 26.9566 13.8939 27.3699 13.06 27.7202C11.2478 28.2887 9.5011 28.1287 7.81998 27.2402C6.44946 26.3739 5.68282 25.1272 5.51998 23.5002C5.37374 20.8323 6.1471 18.4723 7.83998 16.4202C8.12466 15.8955 8.47134 15.4155 8.87998 14.9802C10.5926 13.2605 12.5459 11.8805 14.74 10.8402C15.1167 10.688 15.5033 10.568 15.9 10.4802C17.1517 10.3186 17.665 10.8586 17.44 12.1002C17.3473 12.5782 17.214 13.0448 17.04 13.5002C16.298 14.9358 15.2913 16.1558 14.02 17.1602C13.6006 17.4833 13.1606 17.7766 12.7 18.0402C13.3847 18.6559 14.1847 19.0226 15.1 19.1402C16.2673 19.0556 17.3473 18.7022 18.34 18.0802C20.1063 17.0074 21.4197 15.534 22.28 13.6602C22.8258 12.1325 22.8391 10.5992 22.32 9.06019C21.5977 7.36791 20.3111 6.46791 18.46 6.36019C16.6065 6.29883 14.8199 6.61883 13.1 7.32019C8.36454 9.45171 4.58454 12.6984 1.75998 17.0602C1.22904 17.9487 0.795704 18.882 0.45998 19.8602C0.222189 18.9668 0.0621889 18.0601 -0.0200195 17.1402C-0.0200195 16.3802 -0.0200195 15.6202 -0.0200195 14.8602C0.580436 9.16959 3.35377 4.90959 8.29998 2.08019C12.2546 0.0383876 16.3746 -0.374945 20.66 0.840194C25.4781 2.3918 28.8848 5.49179 30.88 10.1402C31.4748 11.6657 31.8415 13.2391 31.98 14.8602Z"
            fill="#1B1B19" />
        <path opacity="0.998" fill-rule="evenodd" clip-rule="evenodd"
            d="M13.02 31.5799C8.12692 30.5713 4.42692 27.9179 1.91996 23.6199C1.26497 22.4303 0.778301 21.1769 0.459961 19.8599C0.795685 18.8818 1.22902 17.9485 1.75996 17.0599C4.58452 12.6981 8.36452 9.45146 13.1 7.31994C14.8198 6.61858 16.6065 6.29858 18.46 6.35994C20.3111 6.46766 21.5977 7.36766 22.32 9.05994C22.8391 10.5989 22.8258 12.1323 22.28 13.6599C21.4196 15.5338 20.1063 17.0071 18.34 18.0799C17.3473 18.7019 16.2673 19.0553 15.1 19.1399C14.1847 19.0223 13.3847 18.6556 12.7 18.0399C13.1606 17.7764 13.6006 17.4831 14.02 17.1599C15.2913 16.1556 16.298 14.9356 17.04 13.4999C17.214 13.0446 17.3473 12.5779 17.44 12.0999C17.665 10.8583 17.1516 10.3183 15.9 10.4799C15.5033 10.5677 15.1167 10.6877 14.74 10.8399C12.5459 11.8802 10.5926 13.2602 8.87996 14.9799C8.47132 15.4152 8.12464 15.8952 7.83996 16.4199C6.14708 18.4721 5.37372 20.8321 5.51996 23.4999C5.6828 25.1269 6.44944 26.3736 7.81996 27.2399C9.50108 28.1285 11.2478 28.2885 13.06 27.7199C13.8938 27.3697 14.6938 26.9563 15.46 26.4799C16.9017 25.5185 18.275 24.4652 19.58 23.3199C20.3775 22.6159 21.1042 21.8492 21.76 21.0199C22.1175 20.6222 22.5108 20.2688 22.94 19.9599C23.4708 19.7784 23.7508 19.965 23.78 20.5199C23.6067 21.4869 23.28 22.4002 22.8 23.2599C22.2232 24.1069 21.6365 24.9469 21.04 25.7799C18.9882 28.5716 16.3148 30.5049 13.02 31.5799Z"
            fill="#FEFEFE" />
    </g>
    <defs>
        <clipPath id="clip0_3853_186">
            <rect width="32" height="32" fill="white" />
        </clipPath>
    </defs>
</svg>