<svg width="32" height="32" viewBox="0 0 32 32" fill="none" xmlns="http://www.w3.org/2000/svg">
    <path opacity="0.931" fill-rule="evenodd" clip-rule="evenodd"
        d="M11.8081 2.84837C16.1117 2.40382 19.973 3.48116 23.3921 6.08037C24.7424 7.25944 25.7984 8.65675 26.5601 10.2724C27.9527 14.3538 27.1314 17.9271 24.0961 20.9924C21.1666 23.6127 17.7213 24.9033 13.7601 24.8644C11.6761 24.8849 9.66008 24.5222 7.71211 23.7764C5.99229 24.4101 4.27496 25.0501 2.56011 25.6964C2.46537 25.5788 2.46537 25.4508 2.56011 25.3124C3.07916 24.1542 3.60182 22.9702 4.12811 21.7604C4.10492 21.682 4.07292 21.6073 4.03211 21.5364C2.36556 20.0692 1.21356 18.2985 0.576109 16.2244C-0.140642 12.9496 0.542025 10.0696 2.62411 7.58437C4.45944 5.56248 6.68875 4.16515 9.31211 3.39237C10.1478 3.18751 10.9798 3.00617 11.8081 2.84837ZM13.2161 3.87237C16.7408 3.79232 19.8982 4.80566 22.6881 6.91237C24.5929 8.52952 25.7343 10.5455 26.1121 12.9604C26.2995 15.5462 25.5315 17.7862 23.8081 19.6804C21.5657 22.0121 18.8244 23.3454 15.5841 23.6804C13.9103 23.8495 12.2463 23.7855 10.5921 23.4884C9.62532 23.2514 8.67595 22.9634 7.74411 22.6244C6.65643 22.9551 5.58977 23.3391 4.54411 23.7764C4.82992 22.9963 5.16059 22.1963 5.53611 21.3764C4.17065 20.3124 3.08265 19.0537 2.27211 17.6004C0.976321 14.8112 1.11498 12.0699 2.68811 9.37637C4.39064 6.92907 6.68395 5.29707 9.56811 4.48037C10.7737 4.15672 11.9897 3.95406 13.2161 3.87237ZM14.5601 11.8724C14.7748 13.1404 14.9668 14.4204 15.1361 15.7124C14.7734 15.7124 14.4108 15.7124 14.0481 15.7124C14.2247 14.4332 14.3954 13.1532 14.5601 11.8724Z"
        fill="#FE5A39" />
    <path opacity="0.941" fill-rule="evenodd" clip-rule="evenodd"
        d="M5.15207 10.2078C5.69709 10.1685 6.23042 10.2218 6.75207 10.3678C7.24097 10.6738 7.52897 11.1111 7.61607 11.6798C7.64807 12.1273 7.6587 12.5753 7.64807 13.0238C7.24276 13.0238 6.83738 13.0238 6.43207 13.0238C6.46612 12.5212 6.41274 12.0306 6.27207 11.5518C5.85646 11.2614 5.51513 11.3254 5.24807 11.7438C5.2054 13.4505 5.2054 15.1572 5.24807 16.8638C5.36794 17.0896 5.55994 17.1962 5.82407 17.1838C6.18464 17.1646 6.37664 16.9726 6.40007 16.6078C6.43207 16.1604 6.4427 15.7124 6.43207 15.2638C6.83738 15.2638 7.24276 15.2638 7.64807 15.2638C7.6587 15.8189 7.64807 16.3736 7.61607 16.9278C7.4843 17.7209 7.02561 18.2009 6.24007 18.3678C5.2545 18.5627 4.5185 18.232 4.03207 17.3758C3.97317 17.2094 3.9305 17.0387 3.90407 16.8638C3.8614 15.1358 3.8614 13.4078 3.90407 11.6798C4.03646 10.9401 4.45246 10.4494 5.15207 10.2078Z"
        fill="#FF6847" />
    <path opacity="0.954" fill-rule="evenodd" clip-rule="evenodd"
        d="M8.16016 10.2725C8.58684 10.2725 9.01347 10.2725 9.44016 10.2725C9.44016 11.4031 9.44016 12.5338 9.44016 13.6645C9.88816 13.6645 10.3362 13.6645 10.7842 13.6645C10.7842 12.5338 10.7842 11.4031 10.7842 10.2725C11.2322 10.2725 11.6802 10.2725 12.1282 10.2725C12.1282 12.9605 12.1282 15.6485 12.1282 18.3365C11.6802 18.3365 11.2322 18.3365 10.7842 18.3365C10.7842 17.1845 10.7842 16.0325 10.7842 14.8805C10.3362 14.8805 9.88816 14.8805 9.44016 14.8805C9.44016 16.0325 9.44016 17.1845 9.44016 18.3365C9.01347 18.3365 8.58684 18.3365 8.16016 18.3365C8.16016 15.6485 8.16016 12.9605 8.16016 10.2725Z"
        fill="#FF6847" />
    <path opacity="0.94" fill-rule="evenodd" clip-rule="evenodd"
        d="M13.6642 10.2724C14.3315 10.2323 14.9822 10.275 15.6162 10.4004C16.0413 13.045 16.4573 15.6903 16.8642 18.3364C16.4162 18.3364 15.9682 18.3364 15.5202 18.3364C15.4742 17.8431 15.4102 17.3524 15.3282 16.8644C14.8376 16.8644 14.3469 16.8644 13.8562 16.8644C13.7743 17.3524 13.7103 17.8431 13.6642 18.3364C13.2589 18.3364 12.8536 18.3364 12.4482 18.3364C12.8536 15.6483 13.2589 12.9603 13.6642 10.2724ZM14.5602 11.8724C14.3956 13.1532 14.2249 14.4332 14.0482 15.7124C14.4109 15.7124 14.7736 15.7124 15.1362 15.7124C14.967 14.4204 14.775 13.1404 14.5602 11.8724Z"
        fill="#FF6847" />
    <path opacity="0.957" fill-rule="evenodd" clip-rule="evenodd"
        d="M20.2561 10.2725C20.2561 10.6778 20.2561 11.0831 20.2561 11.4885C19.8294 11.4885 19.4027 11.4885 18.9761 11.4885C18.9761 13.7711 18.9761 16.0538 18.9761 18.3365C18.5494 18.3365 18.1227 18.3365 17.6961 18.3365C17.6961 16.0538 17.6961 13.7711 17.6961 11.4885C17.2481 11.4885 16.8001 11.4885 16.3521 11.4885C16.3521 11.0831 16.3521 10.6778 16.3521 10.2725C17.6534 10.2725 18.9547 10.2725 20.2561 10.2725Z"
        fill="#FF6847" />
    <path opacity="0.933" fill-rule="evenodd" clip-rule="evenodd"
        d="M20.2559 10.2725C21.5359 10.2725 22.8159 10.2725 24.0959 10.2725C24.0959 10.6778 24.0959 11.0831 24.0959 11.4885C23.6692 11.4885 23.2425 11.4885 22.8159 11.4885C22.8159 13.7711 22.8159 16.0538 22.8159 18.3365C22.3679 18.3365 21.9199 18.3365 21.4719 18.3365C21.4508 16.0598 21.4721 13.7878 21.5359 11.5205C21.1097 11.4885 20.6831 11.4778 20.2559 11.4885C20.2559 11.0831 20.2559 10.6778 20.2559 10.2725Z"
        fill="#FEAF00" />
    <path opacity="0.982" fill-rule="evenodd" clip-rule="evenodd"
        d="M28.1281 14.688C28.3025 14.6729 28.4518 14.7263 28.5761 14.848C29.2115 15.4405 29.7981 16.0699 30.3361 16.736C30.9413 17.6552 31.3466 18.6578 31.5521 19.744C31.8663 22.6 30.949 24.968 28.8001 26.848C28.7501 26.9267 28.7181 27.012 28.7041 27.104C28.981 27.7291 29.237 28.3371 29.4721 28.928C29.6775 29.2775 29.8268 29.6508 29.9201 30.048C28.5775 29.5928 27.2442 29.1234 25.9201 28.64C22.79 29.7595 19.6646 29.7488 16.5441 28.608C15.5452 28.1846 14.6279 27.6299 13.7921 26.944C13.3961 26.6441 13.0548 26.2921 12.7681 25.888C16.1466 25.9714 19.3039 25.1928 22.2401 23.552C25.0976 21.8269 26.9856 19.3842 27.9041 16.224C27.9859 15.7119 28.0605 15.1999 28.1281 14.688Z"
        fill="#FEAB00" />
</svg>