<svg width="32" height="32" viewBox="0 0 33 33" fill="none" xmlns="http://www.w3.org/2000/svg">
    <path fill-rule="evenodd" clip-rule="evenodd"
        d="M13.0465 0.5C15.2097 0.5 17.3729 0.5 19.5361 0.5C21.6235 1.07136 23.6425 1.88377 25.5931 2.93721C21.6993 3.20801 17.8056 3.47881 13.9118 3.74961C11.1949 4.47247 9.3922 6.0973 8.50382 8.62403C8.21538 12.2798 8.21538 15.9357 8.50382 19.5915C9.30831 21.9716 10.9667 23.5287 13.4792 24.2628C16.5076 24.3982 19.5361 24.5336 22.5646 24.669C24.7001 27.9613 27.5844 30.4663 31.2174 32.1837C27.6562 32.8272 24.1951 32.4888 20.834 31.1682C10.41 32.1077 3.63198 27.978 0.5 18.7791C0.5 16.7481 0.5 14.7171 0.5 12.6861C2.32881 6.50057 6.511 2.43857 13.0465 0.5Z"
        fill="#1CC3EA" />
    <path fill-rule="evenodd" clip-rule="evenodd"
        d="M14.7774 6.99926C19.9318 6.86867 25.0514 7.00405 30.136 7.40546C32.9671 12.4141 33.2555 17.5593 31.0013 22.8411C30.4057 23.7566 29.7567 24.6367 29.0544 25.4814C28.6946 25.7608 28.4062 25.6931 28.1892 25.2783C27.4056 23.875 26.6845 22.4533 26.026 21.0132C21.988 20.8778 17.95 20.7424 13.9121 20.607C13.4073 20.1331 12.9026 19.6592 12.3978 19.1853C11.7065 16.1141 11.5623 12.9998 11.9652 9.84267C12.4058 8.415 13.3431 7.46721 14.7774 6.99926Z"
        fill="#1EC3EA" />
    <path fill-rule="evenodd" clip-rule="evenodd"
        d="M16.5077 11.8737C19.8806 11.4291 20.8901 12.7154 19.5361 15.7327C18.4117 16.045 17.3301 15.9773 16.2913 15.5296C15.973 14.2736 16.0451 13.055 16.5077 11.8737Z"
        fill="#FCFEFE" />
    <path fill-rule="evenodd" clip-rule="evenodd"
        d="M25.5933 11.8737C28.9662 11.4291 29.9757 12.7154 28.6217 15.7327C24.8367 16.3119 23.8272 15.0255 25.5933 11.8737Z"
        fill="#F7FDFE" />
</svg>