<svg width="32" height="32" viewBox="0 0 32 32" fill="none" xmlns="http://www.w3.org/2000/svg">
    <g clip-path="url(#clip0_2950_2235)">
        <path fill-rule="evenodd" clip-rule="evenodd"
            d="M-0.0710449 -0.0712891C4.71711 -0.0712891 9.50525 -0.0712891 14.2934 -0.0712891C6.20883 1.33991 1.42069 6.08066 -0.0710449 14.1509C-0.0710449 9.4102 -0.0710449 4.66945 -0.0710449 -0.0712891Z"
            fill="#FEFDFD" />
        <path fill-rule="evenodd" clip-rule="evenodd"
            d="M14.2934 -0.0712891C15.2416 -0.0712891 16.1896 -0.0712891 17.1378 -0.0712891C24.4228 0.88389 29.1872 4.86611 31.4312 11.8754C31.5801 12.7045 31.7459 13.5104 31.929 14.2932C31.929 15.2887 31.929 16.2843 31.929 17.2798C30.6016 25.7183 25.7185 30.6014 17.2801 31.9287C16.3794 31.9287 15.4785 31.9287 14.5778 31.9287C8.56682 31.1556 4.18164 28.0741 1.42229 22.6843C0.630517 20.7968 0.13274 18.8531 -0.0710449 16.8532C-0.0710449 15.9525 -0.0710449 15.0516 -0.0710449 14.1509C1.42069 6.08066 6.20883 1.33991 14.2934 -0.0712891Z"
            fill="#CC011F" />
        <path fill-rule="evenodd" clip-rule="evenodd"
            d="M17.1377 -0.0712891C22.0681 -0.0712891 26.9984 -0.0712891 31.9288 -0.0712891C31.9288 4.71686 31.9288 9.505 31.9288 14.2932C31.7458 13.5104 31.5799 12.7045 31.431 11.8754C29.187 4.86611 24.4226 0.88389 17.1377 -0.0712891Z"
            fill="#FEFDFD" />
        <path fill-rule="evenodd" clip-rule="evenodd"
            d="M10.4533 11.8751C12.0056 11.8296 13.5464 11.877 15.0755 12.0174C15.1908 13.0007 15.1672 13.9726 15.0044 14.9329C13.7244 14.9803 12.4444 15.0278 11.1644 15.0751C10.4787 15.5873 10.4313 16.1562 11.0222 16.7818C12.3022 16.8292 13.5822 16.8767 14.8622 16.924C14.9333 16.9951 15.0044 17.0663 15.0755 17.1374C15.1907 18.0735 15.1669 18.9979 15.0044 19.9107C13.4873 20.0056 11.9703 20.0056 10.4533 19.9107C7.80032 18.8951 6.87588 17.0226 7.67993 14.2929C8.32643 13.1474 9.25088 12.3415 10.4533 11.8751Z"
            fill="#FEFBFB" />
        <path fill-rule="evenodd" clip-rule="evenodd"
            d="M16.8534 11.8751C18.2765 11.8514 19.6987 11.8751 21.1201 11.9462C23.7556 12.8792 24.7274 14.7043 24.0357 17.4218C23.187 19.1704 21.7886 20.0475 19.8401 20.0529C19.129 20.764 18.4179 21.4751 17.7068 22.1862C17.3841 22.294 17.0759 22.2703 16.7823 22.1151C16.6875 20.4084 16.6875 18.7018 16.7823 16.9951C18.075 16.8786 19.3787 16.8075 20.6934 16.7818C21.0986 16.4178 21.2172 15.9674 21.049 15.4306C20.9206 15.2598 20.7547 15.1412 20.5512 15.0751C19.3186 15.0277 18.0861 14.9802 16.8534 14.9329C16.6661 13.9136 16.6661 12.8944 16.8534 11.8751Z"
            fill="#FEFCFC" />
        <path fill-rule="evenodd" clip-rule="evenodd"
            d="M-0.0710449 16.8535C0.13274 18.8534 0.630517 20.7972 1.42229 22.6846C4.18164 28.0744 8.56682 31.156 14.5778 31.9291C9.69489 31.9291 4.81191 31.9291 -0.0710449 31.9291C-0.0710449 26.9039 -0.0710449 21.8787 -0.0710449 16.8535Z"
            fill="#FEFCFC" />
        <path fill-rule="evenodd" clip-rule="evenodd"
            d="M31.9289 17.2803C31.9289 22.1632 31.9289 27.0462 31.9289 31.9292C27.046 31.9292 22.1629 31.9292 17.28 31.9292C25.7185 30.6018 30.6016 25.7187 31.9289 17.2803Z"
            fill="#FEFCFD" />
    </g>
    <defs>
        <clipPath id="clip0_2950_2235">
            <rect width="32" height="32" fill="white" />
        </clipPath>
    </defs>
</svg>