<svg width="32" height="32" viewBox="0 0 32 32" fill="none" xmlns="http://www.w3.org/2000/svg">
<g clip-path="url(#clip0_3253_981)">
<path fill-rule="evenodd" clip-rule="evenodd" d="M-0.0710449 -0.0712891C10.5956 -0.0712891 21.2623 -0.0712891 31.929 -0.0712891C31.929 10.5954 31.929 21.262 31.929 31.9287C21.2623 31.9287 10.5956 31.9287 -0.0710449 31.9287C-0.0710449 21.262 -0.0710449 10.5954 -0.0710449 -0.0712891Z" fill="#FEFEFE"/>
<path fill-rule="evenodd" clip-rule="evenodd" d="M26.8089 5.19141C28.0702 5.19377 28.4022 5.73896 27.8044 6.82696C26.7483 7.23968 26.2505 6.88412 26.3111 5.7603C26.5068 5.5889 26.6726 5.39928 26.8089 5.19141Z" fill="#DB2237"/>
<path fill-rule="evenodd" clip-rule="evenodd" d="M23.3955 8.60449C24.6569 8.60685 24.9889 9.15205 24.3911 10.24C23.5459 10.6541 23.0243 10.3933 22.8267 9.45783C22.9592 9.13562 23.1488 8.85118 23.3955 8.60449Z" fill="#DC2237"/>
<path fill-rule="evenodd" clip-rule="evenodd" d="M26.3821 11.4491C27.5917 11.3088 28.1842 11.8303 28.1599 13.0135C27.8113 13.8084 27.2188 14.0691 26.3821 13.7957C25.439 13.0276 25.439 12.2454 26.3821 11.4491Z" fill="#DD2237"/>
<path fill-rule="evenodd" clip-rule="evenodd" d="M19.6977 12.3018C20.691 12.2757 21.0939 12.7498 20.9066 13.724C20.5426 14.1292 20.0922 14.2478 19.5555 14.0796C18.9594 13.4339 19.0068 12.8413 19.6977 12.3018Z" fill="#DB2337"/>
<path fill-rule="evenodd" clip-rule="evenodd" d="M22.8267 15.289C23.8325 15.121 24.4014 15.5241 24.5333 16.4979C24.5096 17.2801 24.1067 17.683 23.3245 17.7068C22.3111 17.5791 21.9318 17.0102 22.1867 16.0001C22.3325 15.6891 22.5458 15.452 22.8267 15.289Z" fill="#DD1F35"/>
<path fill-rule="evenodd" clip-rule="evenodd" d="M15.7155 16.2842C16.591 16.2823 16.9941 16.709 16.9244 17.5642C16.6324 18.1035 16.1822 18.2693 15.5733 18.062C14.9772 17.4163 15.0246 16.8236 15.7155 16.2842Z" fill="#DB2035"/>
<path fill-rule="evenodd" clip-rule="evenodd" d="M26.0978 18.2754C27.9338 18.3013 28.5262 19.1546 27.8756 20.8354C27.2664 21.4168 26.5791 21.5353 25.8134 21.1909C24.7942 20.1018 24.8889 19.1299 26.0978 18.2754Z" fill="#DD2237"/>
<path fill-rule="evenodd" clip-rule="evenodd" d="M18.8445 19.2708C20.0585 19.2281 20.6038 19.797 20.4801 20.9775C20.068 21.6395 19.4755 21.8528 18.7023 21.6175C18.1651 21.1972 17.9993 20.652 18.2045 19.9819C18.3503 19.6709 18.5636 19.4338 18.8445 19.2708Z" fill="#DD1F35"/>
<path fill-rule="evenodd" clip-rule="evenodd" d="M11.5911 20.4092C12.5402 20.2502 12.9906 20.6296 12.9422 21.547C12.4333 22.4363 11.8644 22.4837 11.2356 21.6892C11.083 21.1772 11.2015 20.7506 11.5911 20.4092Z" fill="#DB2639"/>
<path fill-rule="evenodd" clip-rule="evenodd" d="M21.689 21.9736C23.3308 21.7899 24.0181 22.501 23.7512 24.1069C22.6963 25.4723 21.7008 25.4249 20.7645 23.9647C20.652 23.0996 20.9602 22.4358 21.689 21.9736Z" fill="#DD2337"/>
<path fill-rule="evenodd" clip-rule="evenodd" d="M14.8621 23.2529C16.4034 23.304 16.8538 24.0151 16.2132 25.3863C15.2609 26.0777 14.5498 25.8882 14.0799 24.8174C13.9851 24.5803 13.9851 24.3433 14.0799 24.1063C14.2733 23.7474 14.534 23.463 14.8621 23.2529Z" fill="#DC2337"/>
<path fill-rule="evenodd" clip-rule="evenodd" d="M7.89334 24.1069C9.15212 24.0881 9.48396 24.6334 8.88889 25.7425C7.78454 26.1087 7.33416 25.7058 7.53778 24.5336C7.6864 24.4094 7.80492 24.2672 7.89334 24.1069Z" fill="#DC2036"/>
<path fill-rule="evenodd" clip-rule="evenodd" d="M25.3866 25.2447C27.3093 25.0587 28.2337 25.912 28.1599 27.8047C27.3899 29.4203 26.2286 29.7759 24.6755 28.8714C24.0058 27.951 23.9347 26.9792 24.4622 25.9558C24.793 25.7331 25.101 25.4961 25.3866 25.2447Z" fill="#DE2237"/>
<path fill-rule="evenodd" clip-rule="evenodd" d="M17.9912 26.2405C19.7345 26.2036 20.3745 27.0096 19.9112 28.6582C19.2249 29.4324 18.4427 29.551 17.5645 29.0138C16.7234 27.9342 16.8656 27.0097 17.9912 26.2405Z" fill="#DD2036"/>
<path fill-rule="evenodd" clip-rule="evenodd" d="M10.8801 26.8089C12.2613 26.6964 12.8065 27.3128 12.5156 28.6578C11.6848 29.6383 10.9263 29.5909 10.2401 28.5156C10.1452 28.1838 10.1452 27.8518 10.2401 27.52C10.4829 27.3014 10.6962 27.0644 10.8801 26.8089Z" fill="#DC2438"/>
<path fill-rule="evenodd" clip-rule="evenodd" d="M4.47989 27.5198C5.82646 27.4892 6.15832 28.0343 5.47544 29.1553C4.65383 29.5267 4.17976 29.266 4.05322 28.3731C4.07148 28.024 4.21371 27.7395 4.47989 27.5198Z" fill="#DB2437"/>
</g>
<defs>
<clipPath id="clip0_3253_981">
<rect width="32" height="32" fill="white"/>
</clipPath>
</defs>
</svg>

