<svg width="32" height="32" viewBox="0 0 33 33" fill="none" xmlns="http://www.w3.org/2000/svg">
    <mask id="mask0_2393_369" style="mask-type:luminance" maskUnits="userSpaceOnUse" x="1" y="0"
        width="31" height="32">
        <path
            d="M16.4595 0.950195C8.08211 0.950195 1.29102 7.8789 1.29102 16.4257C1.29102 24.9729 8.08211 31.9016 16.4595 31.9016C24.8369 31.9016 31.6284 24.9729 31.6284 16.4257C31.6284 7.8789 24.8369 0.950195 16.4595 0.950195Z"
            fill="white" />
    </mask>
    <g mask="url(#mask0_2393_369)">
        <path d="M1.29102 0.950195H31.608V31.8748H1.29102V0.950195Z" fill="#5F9094" />
    </g>
    <mask id="mask1_2393_369" style="mask-type:luminance" maskUnits="userSpaceOnUse" x="0" y="0"
        width="33" height="33">
        <path d="M0.511719 0.511719H32.5117V32.5117H0.511719V0.511719Z" fill="white" />
    </mask>
    <g mask="url(#mask1_2393_369)">
        <path
            d="M16.5076 1.62707C24.727 1.62707 31.3877 8.28783 31.3877 16.5076C31.3877 24.727 24.727 31.3959 16.5076 31.3959C8.28783 31.3959 1.62707 24.727 1.62707 16.5076C1.62707 8.28783 8.28783 1.62707 16.5076 1.62707ZM16.5076 0.511719C14.35 0.511719 12.2501 0.938149 10.2815 1.76649C8.3782 2.57076 6.66385 3.72698 5.19564 5.19564C3.72698 6.66385 2.57076 8.3782 1.76649 10.2815C0.938149 12.2583 0.511719 14.35 0.511719 16.5076C0.511719 18.6648 0.938149 20.7647 1.76649 22.7338C2.57076 24.6366 3.72698 26.351 5.19564 27.8196C6.66385 29.2878 8.3782 30.4445 10.2815 31.2483C12.2583 32.0848 14.35 32.5035 16.5076 32.5035C18.6648 32.5035 20.7647 32.0767 22.7338 31.2483C24.6366 30.4445 26.351 29.2878 27.8196 27.8196C29.2878 26.351 30.4445 24.6366 31.2483 22.7338C32.0848 20.7565 32.5035 18.6648 32.5035 16.5076C32.5035 14.35 32.0767 12.2501 31.2483 10.2815C30.4445 8.3782 29.2878 6.66385 27.8196 5.19564C26.351 3.72698 24.6366 2.57076 22.7338 1.76649C20.7647 0.938149 18.6729 0.511719 16.5076 0.511719Z"
            fill="#B8D8D4" />
    </g>
    <path
        d="M17.4998 11.6269C17.4998 11.7358 17.4894 11.8435 17.4681 11.9502C17.4467 12.0569 17.4154 12.1605 17.374 12.2608C17.3323 12.3616 17.2809 12.457 17.2205 12.5474C17.1601 12.6378 17.0916 12.7218 17.0148 12.7985C16.9376 12.8757 16.8541 12.9443 16.7637 13.0047C16.6729 13.0651 16.5775 13.116 16.4771 13.1577C16.3768 13.1995 16.2728 13.2309 16.1661 13.2522C16.0593 13.2731 15.9517 13.284 15.8432 13.284C15.7342 13.284 15.6265 13.2731 15.5198 13.2522C15.4131 13.2309 15.3096 13.1995 15.2087 13.1577C15.1084 13.116 15.013 13.0651 14.9222 13.0047C14.8318 12.9443 14.7483 12.8757 14.671 12.7985C14.5943 12.7218 14.5257 12.6378 14.4653 12.5474C14.4049 12.457 14.3536 12.3616 14.3123 12.2608C14.2705 12.1605 14.2392 12.0569 14.2178 11.9502C14.1965 11.8435 14.186 11.7358 14.186 11.6269C14.186 11.5183 14.1965 11.4102 14.2178 11.3035C14.2392 11.1968 14.2705 11.0933 14.3123 10.9929C14.3536 10.8921 14.4049 10.7967 14.4653 10.7063C14.5257 10.616 14.5943 10.5319 14.671 10.4552C14.7483 10.3784 14.8318 10.3094 14.9222 10.249C15.013 10.1886 15.1084 10.1378 15.2087 10.096C15.3096 10.0542 15.4131 10.0229 15.5198 10.0015C15.6265 9.98063 15.7342 9.96973 15.8432 9.96973C15.9517 9.96973 16.0593 9.98063 16.1661 10.0015C16.2728 10.0229 16.3768 10.0542 16.4771 10.096C16.5775 10.1378 16.6729 10.1886 16.7637 10.249C16.8541 10.3094 16.9376 10.3784 17.0148 10.4552C17.0916 10.5319 17.1601 10.616 17.2205 10.7063C17.2809 10.7967 17.3323 10.8921 17.374 10.9929C17.4154 11.0933 17.4467 11.1968 17.4681 11.3035C17.4894 11.4102 17.4998 11.5183 17.4998 11.6269Z"
        fill="white" />
    <path
        d="M22.1837 22.1183C20.453 24.497 14.2432 26.6873 13.0457 22.274C11.84 17.8608 16.1955 17.7622 20.33 13.997C24.4644 10.2318 20.9453 7.57422 20.9453 7.57422C20.9453 7.57422 23.4471 10.1991 17.7623 13.3821C12.0779 16.5647 10.0516 18.4925 10.9785 22.75C12.0121 27.4502 19.4935 27.6469 22.1837 22.1183Z"
        fill="white" />
</svg>