<svg width="32" height="32" viewBox="0 0 32 32" fill="none" xmlns="http://www.w3.org/2000/svg">
    <g clip-path="url(#clip0_2051_968)">
        <path fill-rule="evenodd" clip-rule="evenodd"
            d="M-0.0712891 -0.0712891C4.85909 -0.0712891 9.78945 -0.0712891 14.7198 -0.0712891C14.1776 0.0458766 13.6087 0.116988 13.0132 0.142044C12.0104 0.335886 11.0623 0.644035 10.1687 1.06649C9.89806 1.10857 9.66102 1.20338 9.4576 1.35093C8.91583 1.46926 8.44175 1.70629 8.03538 2.06204C7.94056 2.10945 7.84575 2.15686 7.75093 2.20427C6.30236 3.03617 5.02236 4.07913 3.91093 5.33316C3.2997 5.98325 2.75452 6.69436 2.27538 7.46649C2.03994 8.00737 1.77919 8.52886 1.49316 9.03093C0.79797 10.4823 0.27649 11.9993 -0.0712891 13.582C-0.0712891 9.03093 -0.0712891 4.47982 -0.0712891 -0.0712891Z"
            fill="#198FFD" />
        <path fill-rule="evenodd" clip-rule="evenodd"
            d="M15.1465 -0.0712891C15.7627 -0.0712891 16.3791 -0.0712891 16.9954 -0.0712891C17.3435 0.0671027 17.7228 0.11451 18.1332 0.0709332C18.4657 0.28989 18.845 0.384705 19.2709 0.355378C22.4486 0.977991 25.1508 2.44762 27.3776 4.76427C27.1519 5.30719 27.3416 5.63903 27.9465 5.75982C27.459 5.92157 27.2456 6.25342 27.3065 6.75538C28.0106 6.31564 28.4847 6.50528 28.7287 7.32427C28.7725 7.20934 28.8436 7.11453 28.942 7.03982C29.2566 7.57917 29.6359 8.05326 30.0798 8.46204C30.1572 9.03251 30.3943 9.50658 30.7909 9.88427C30.9296 10.4486 31.0718 11.0175 31.2176 11.5909C31.0994 11.8716 31.0757 12.156 31.1465 12.4443C31.1903 12.3293 31.2614 12.2345 31.3598 12.1598C31.4221 12.5573 31.5643 12.8892 31.7865 13.1554C31.7528 13.339 31.8001 13.4812 31.9287 13.582C31.9287 15.0991 31.9287 16.6161 31.9287 18.1332C31.7935 18.335 31.7461 18.5719 31.7865 18.8443C31.5555 18.6114 31.4133 18.659 31.3598 18.9865C31.5035 19.4577 31.5035 19.9317 31.3598 20.4087C31.2721 20.4245 31.201 20.4719 31.1465 20.5509C31.1109 20.0881 30.9687 19.6615 30.7198 19.2709C30.7803 20.0816 30.8039 20.8876 30.7909 21.6887C30.7436 21.8309 30.6487 21.9258 30.5065 21.9732C30.3365 21.7176 30.0994 21.5754 29.7954 21.5465C29.7726 21.7881 29.7962 22.0252 29.8665 22.2576C29.9116 22.0015 30.0064 21.9541 30.1509 22.1154C30.4291 22.9452 30.1684 23.5141 29.3687 23.822C29.2576 23.9968 29.1865 24.1864 29.1554 24.3909C28.9321 24.2325 28.7425 24.0429 28.5865 23.822C28.5333 23.9523 28.4622 24.0709 28.3732 24.1776C28.374 24.7469 28.4214 25.3396 28.5154 25.9554C25.9759 29.1453 22.7047 31.1364 18.702 31.9287C16.948 31.9287 15.1938 31.9287 13.4398 31.9287C13.3754 31.7925 13.2806 31.6738 13.1554 31.5732C12.537 31.507 11.9207 31.4359 11.3065 31.3598C10.5852 31.2517 9.92146 31.0146 9.31538 30.6487C8.86431 30.2804 8.48506 29.9248 8.1776 29.582C7.89308 29.6948 7.60864 29.6711 7.32427 29.5109C7.4903 29.33 7.60881 29.1403 7.67982 28.942C7.20712 28.6818 6.70934 28.4922 6.18649 28.3732C6.21067 28.1851 6.16325 28.0192 6.04427 27.8754C5.61029 27.5633 5.13621 27.3026 4.62204 27.0932C4.81167 26.9983 5.00131 26.9036 5.19093 26.8087C4.82308 26.6693 4.44383 26.622 4.05316 26.6665C3.61618 26.3722 3.28432 25.9929 3.0576 25.5287C3.21743 25.2114 3.28854 24.8796 3.27093 24.5332C3.2114 24.6998 3.11658 24.8421 2.98649 24.9598C3.03075 24.7557 3.00704 24.5662 2.91538 24.3909C2.60081 24.1864 2.31637 23.9493 2.06204 23.6798C2.20209 23.4526 2.2258 23.2155 2.13316 22.9687C2.09771 23.1286 2.0266 23.2708 1.91982 23.3954C1.87242 23.3716 1.825 23.348 1.7776 23.3243C1.9398 23.2189 1.9398 23.1003 1.7776 22.9687C1.85231 22.8703 1.94711 22.7992 2.06204 22.7554C1.98782 22.6756 1.94042 22.5807 1.91982 22.4709C2.13725 22.2459 2.20836 21.9852 2.13316 21.6887C1.90305 22.1929 1.5475 22.3351 1.06649 22.1154C0.742172 21.3323 0.505135 20.5265 0.355378 19.6976C0.408829 18.9305 0.266607 18.2193 -0.0712891 17.5643C-0.0712891 16.6161 -0.0712891 15.668 -0.0712891 14.7198C0.0688324 14.3562 0.211055 13.9769 0.355378 13.582C0.471778 13.9528 0.542889 14.3321 0.568711 14.7198C0.616118 14.1983 0.663526 13.6769 0.710933 13.1554C0.841025 13.2731 0.935841 13.4153 0.995378 13.582C1.00539 13.0164 0.886876 12.4712 0.639822 11.9465C0.729008 11.6428 0.800119 11.3347 0.853155 11.022C0.900562 11.1169 0.947971 11.2117 0.995378 11.3065C1.06956 10.8804 1.28289 10.5485 1.63538 10.3109C1.57899 9.91932 1.53158 9.49266 1.49316 9.03093C1.77919 8.52886 2.03994 8.00737 2.27538 7.46649C2.75452 6.69436 3.2997 5.98325 3.91093 5.33316C4.14094 5.40967 4.37798 5.45707 4.62204 5.47538C4.59926 5.23371 4.62297 4.99667 4.69316 4.76427C5.33543 4.69136 5.92803 4.47803 6.47093 4.12427C6.62648 3.87107 6.7687 3.61033 6.8976 3.34204C7.15822 3.23559 7.39525 3.09337 7.60871 2.91538C7.41089 2.56895 7.48201 2.47413 7.82204 2.63093C7.88883 2.47779 7.86512 2.33557 7.75093 2.20427C7.84575 2.15686 7.94056 2.10945 8.03538 2.06204C8.21148 2.19181 8.4011 2.21552 8.60427 2.13316C8.55686 2.08575 8.50945 2.03834 8.46204 1.99093C8.9431 1.98861 9.27496 1.77528 9.4576 1.35093C9.66102 1.20338 9.89806 1.10857 10.1687 1.06649C10.5057 1.01655 10.8376 0.992847 11.1643 0.995378C10.8228 1.10987 10.8465 1.22839 11.2354 1.35093C11.5891 1.09768 11.9921 0.931752 12.4443 0.853155C12.3293 0.809405 12.2345 0.738294 12.1598 0.639822C12.8102 0.358154 13.4739 0.310747 14.1509 0.4976C14.6021 0.480124 14.9339 0.290493 15.1465 -0.0712891Z"
            fill="#198FFD" />
        <path fill-rule="evenodd" clip-rule="evenodd"
            d="M16.9956 -0.0712891C21.9734 -0.0712891 26.9512 -0.0712891 31.9289 -0.0712891C31.9289 4.47982 31.9289 9.03093 31.9289 13.582C31.8004 13.4812 31.753 13.339 31.7867 13.1554C31.6068 12.0067 31.275 10.9163 30.7912 9.88427C30.6679 9.33963 30.4309 8.86556 30.0801 8.46204C29.4571 7.0264 28.5563 5.7938 27.3778 4.76427C25.1511 2.44762 22.4488 0.977991 19.2712 0.355378C18.9291 0.175011 18.5498 0.0801962 18.1334 0.0709332C17.7231 0.11451 17.3438 0.0671027 16.9956 -0.0712891Z"
            fill="#198FFD" />
        <path fill-rule="evenodd" clip-rule="evenodd"
            d="M14.7201 -0.0712891C14.8623 -0.0712891 15.0045 -0.0712891 15.1467 -0.0712891C14.9341 0.290493 14.6023 0.480124 14.1512 0.4976C13.4741 0.310747 12.8104 0.358154 12.1601 0.639822C12.2348 0.738294 12.3296 0.809405 12.4445 0.853155C11.9923 0.931752 11.5893 1.09768 11.2356 1.35093C10.8467 1.22839 10.823 1.10987 11.1645 0.995378C10.8378 0.992847 10.5059 1.01655 10.1689 1.06649C11.0625 0.644035 12.0107 0.335886 13.0134 0.142044C13.609 0.116988 14.1779 0.0458766 14.7201 -0.0712891Z"
            fill="#198FFD" />
        <path fill-rule="evenodd" clip-rule="evenodd"
            d="M18.1333 0.0712891C18.5497 0.0805521 18.929 0.175367 19.2711 0.355734C18.8451 0.385061 18.4658 0.290246 18.1333 0.0712891Z"
            fill="#198FFD" />
        <path fill-rule="evenodd" clip-rule="evenodd"
            d="M9.45787 1.35107C9.27523 1.77542 8.94336 1.98876 8.46231 1.99107C8.50971 2.03848 8.55713 2.08589 8.60453 2.1333C8.40137 2.21566 8.21174 2.19195 8.03564 2.06219C8.44202 1.70643 8.9161 1.4694 9.45787 1.35107Z"
            fill="#198FFD" />
        <path fill-rule="evenodd" clip-rule="evenodd"
            d="M7.75113 2.20459C7.86532 2.33589 7.88903 2.47811 7.82224 2.63126C7.4822 2.47446 7.41109 2.56928 7.60891 2.9157C7.39545 3.09369 7.15842 3.23591 6.8978 3.34237C6.7689 3.61066 6.62668 3.87139 6.47113 4.12459C5.92823 4.47835 5.33563 4.69169 4.69335 4.76459C4.62317 4.99699 4.59946 5.23404 4.62224 5.4757C4.37818 5.4574 4.14113 5.40999 3.91113 5.33348C5.02256 4.07945 6.30256 3.03649 7.75113 2.20459Z"
            fill="#2790F0" />
        <path fill-rule="evenodd" clip-rule="evenodd"
            d="M27.3776 4.76465C28.5561 5.79418 29.4569 7.02678 30.0798 8.46243C29.636 8.05364 29.2567 7.57955 28.9421 7.0402C28.8436 7.11491 28.7725 7.20972 28.7287 7.32465C28.4847 6.50566 28.0107 6.31602 27.3065 6.75576C27.2456 6.2538 27.459 5.92195 27.9465 5.7602C27.3416 5.63941 27.1519 5.30757 27.3776 4.76465Z"
            fill="#198FFD" />
        <path fill-rule="evenodd" clip-rule="evenodd"
            d="M20.4091 8.31982C19.3254 7.81176 18.1876 7.47989 16.9958 7.32426C16.2647 7.18373 15.5061 7.13633 14.7202 7.18204C15.5485 7.11637 16.3781 6.97415 17.2091 6.75537C17.304 6.85019 17.3987 6.945 17.4935 7.03982C17.7385 7.02407 17.7621 6.95296 17.5647 6.82648C18.1388 6.7402 18.7077 6.7639 19.2713 6.89759C19.2925 7.04721 19.2689 7.18943 19.2002 7.32426C19.051 7.17961 18.8851 7.1559 18.7024 7.25315C18.8654 7.34487 19.0076 7.4634 19.1291 7.6087C19.4554 7.43723 19.7872 7.295 20.1247 7.18204C20.1247 7.41908 20.1247 7.65611 20.1247 7.89315C20.2743 7.87189 20.4165 7.8956 20.5513 7.96426C20.4444 8.05966 20.3969 8.17818 20.4091 8.31982Z"
            fill="#248FEF" />
        <path fill-rule="evenodd" clip-rule="evenodd"
            d="M14.7198 7.18236C15.5057 7.13665 16.2643 7.18405 16.9954 7.32458C15.8354 7.25563 14.6976 7.35044 13.582 7.60902C13.8545 7.25674 14.2338 7.11452 14.7198 7.18236Z"
            fill="#4494CF" />
        <path fill-rule="evenodd" clip-rule="evenodd"
            d="M16.9958 7.32451C18.1876 7.48014 19.3254 7.812 20.4091 8.32006C21.6736 9.23023 22.598 10.4154 23.1824 11.8756C23.2766 12.2045 23.3477 12.5364 23.3958 12.8712C21.9231 12.9184 20.4535 12.871 18.9869 12.729C18.5813 11.8607 17.9175 11.3392 16.9958 11.1645C15.6428 10.7462 14.505 11.0781 13.5824 12.1601C13.1724 12.7055 12.9116 13.3218 12.8002 14.009C12.6831 15.2193 12.7068 16.4045 12.8713 17.5645C12.8378 19.0176 13.4541 20.0605 14.7202 20.6934C14.7689 20.8126 14.8636 20.8601 15.0047 20.8356C16.4299 21.4038 17.6625 21.1194 18.7024 19.9823C18.9947 19.69 19.3265 19.4531 19.698 19.2712C20.978 19.2712 22.258 19.2712 23.538 19.2712C23.538 19.3185 23.538 19.366 23.538 19.4134C22.9896 21.1949 21.9467 22.6171 20.4091 23.6801C20.0174 23.8423 19.6381 24.0321 19.2713 24.249C17.1966 24.7856 15.1106 24.8093 13.0136 24.3201C12.4143 24.0446 11.8454 23.7364 11.3069 23.3956C10.7049 22.8064 10.136 22.19 9.60022 21.5467C9.23749 20.8093 8.95305 20.0507 8.74688 19.2712C8.12051 16.6832 8.21533 14.1232 9.03133 11.5912C9.90954 9.53928 11.4266 8.21187 13.5824 7.60895C14.698 7.35036 15.8358 7.25556 16.9958 7.32451Z"
            fill="#F9FCFC" />
        <path fill-rule="evenodd" clip-rule="evenodd"
            d="M30.0801 8.4624C30.4309 8.86592 30.6679 9.33998 30.7912 9.88462C30.3945 9.50694 30.1574 9.03287 30.0801 8.4624Z"
            fill="#198FFD" />
        <path fill-rule="evenodd" clip-rule="evenodd"
            d="M16.9954 11.1647C16.2726 11.2891 15.5615 11.3365 14.862 11.3069C14.8854 11.6891 14.8616 12.0684 14.7909 12.4447C14.5836 12.2673 14.3702 12.2673 14.1509 12.4447C13.9575 12.348 13.7679 12.2532 13.582 12.1602C14.5046 11.0782 15.6424 10.7464 16.9954 11.1647Z"
            fill="#278EEC" />
        <path fill-rule="evenodd" clip-rule="evenodd"
            d="M30.791 9.88428C31.2749 10.9163 31.6067 12.0067 31.7866 13.1554C31.5644 12.8892 31.4222 12.5573 31.3599 12.1598C31.2615 12.2345 31.1904 12.3293 31.1466 12.4443C31.0757 12.156 31.0995 11.8716 31.2177 11.5909C31.0719 11.0175 30.9297 10.4487 30.791 9.88428Z"
            fill="#3E91DE" />
        <path fill-rule="evenodd" clip-rule="evenodd"
            d="M1.49316 9.03125C1.53158 9.49297 1.57899 9.91964 1.63538 10.3113C1.28289 10.5489 1.06956 10.8807 0.995378 11.3068C0.947971 11.212 0.900562 11.1172 0.853155 11.0224C0.800119 11.335 0.729008 11.6431 0.639822 11.9468C0.886876 12.4715 1.00539 13.0167 0.995378 13.5824C0.935841 13.4157 0.841025 13.2734 0.710933 13.1557C0.663526 13.6772 0.616118 14.1987 0.568711 14.7201C0.542889 14.3324 0.471778 13.9531 0.355378 13.5824C0.211055 13.9772 0.0688324 14.3565 -0.0712891 14.7201C-0.0712891 14.3408 -0.0712891 13.9616 -0.0712891 13.5824C0.27649 11.9996 0.79797 10.4826 1.49316 9.03125Z"
            fill="#3091EC" />
        <path fill-rule="evenodd" clip-rule="evenodd"
            d="M9.03133 11.5911C8.21533 14.1231 8.12051 16.6831 8.74689 19.2711C8.52715 19.3749 8.40863 19.5645 8.39133 19.84C8.12586 18.8729 7.95994 17.9011 7.89355 16.9244C7.93639 16.292 8.0075 16.3156 8.10689 16.9955C8.1306 16.6162 8.15429 16.2371 8.178 15.8578C8.05839 15 8.05839 14.1467 8.178 13.2978C7.99725 12.6415 7.92614 11.9778 7.96467 11.3066C8.09599 11.4857 8.21452 11.6753 8.32022 11.8755C8.4523 11.7065 8.49971 11.5168 8.46244 11.3066C8.70412 11.3105 8.89375 11.4053 9.03133 11.5911Z"
            fill="#2690EE" />
        <path fill-rule="evenodd" clip-rule="evenodd"
            d="M-0.0712891 17.5645C0.266607 18.2195 0.408829 18.9306 0.355378 19.6978C0.260562 19.366 0.165748 19.034 0.0709332 18.7022C0.0953357 18.5611 0.0479281 18.4664 -0.0712891 18.4178C-0.0712891 18.1333 -0.0712891 17.8489 -0.0712891 17.5645Z"
            fill="#3995D3" />
        <path fill-rule="evenodd" clip-rule="evenodd"
            d="M23.5378 19.2713C22.2578 19.2713 20.9778 19.2713 19.6978 19.2713C20.8142 19.168 21.952 19.0731 23.1111 18.9868C23.4163 19.0059 23.5585 19.1007 23.5378 19.2713Z"
            fill="#198FFD" />
        <path fill-rule="evenodd" clip-rule="evenodd"
            d="M31.7865 18.8443C31.7322 19.4055 31.59 19.9269 31.3599 20.4087C31.5035 19.9317 31.5035 19.4577 31.3599 18.9865C31.4133 18.6589 31.5556 18.6114 31.7865 18.8443Z"
            fill="#198FFD" />
        <path fill-rule="evenodd" clip-rule="evenodd"
            d="M12.8709 17.5645C13.0392 18.1858 13.2526 18.8021 13.5109 19.4133C13.7038 19.2882 13.9171 19.2407 14.1509 19.2711C14.3109 19.6012 14.3347 19.933 14.222 20.2667C14.6244 19.4618 14.7904 19.5093 14.7198 20.4089C14.9151 20.3866 15.1048 20.4103 15.2887 20.48C15.0671 20.5099 14.8775 20.581 14.7198 20.6933C13.4537 20.0605 12.8374 19.0175 12.8709 17.5645Z"
            fill="#318FE8" />
        <path fill-rule="evenodd" clip-rule="evenodd"
            d="M18.7022 19.9821C17.6622 21.1191 16.4296 21.4036 15.0044 20.8354C16.0291 20.6036 17.072 20.414 18.1333 20.2665C18.1121 20.1169 18.1357 19.9747 18.2044 19.8398C18.3482 19.9589 18.5142 20.0062 18.7022 19.9821Z"
            fill="#3290EA" />
        <path fill-rule="evenodd" clip-rule="evenodd"
            d="M0.0712891 18.7021C0.166104 19.034 0.260918 19.3659 0.355734 19.6977C0.505491 20.5266 0.742528 21.3324 1.06684 22.1155C0.942195 22.1341 0.84738 22.0868 0.7824 21.9733C0.345011 20.9339 0.107975 19.8435 0.0712891 18.7021Z"
            fill="#198FFD" />
        <path fill-rule="evenodd" clip-rule="evenodd"
            d="M-0.0712891 18.418C0.0479281 18.4666 0.0953357 18.5613 0.0709332 18.7024C0.107619 19.8437 0.344655 20.9342 0.782044 21.9735C0.847024 22.087 0.941839 22.1344 1.06649 22.1157C1.51174 23.3861 2.17544 24.5239 3.0576 25.5291C3.28432 25.9933 3.61618 26.3726 4.05316 26.6669C4.39344 27.2218 4.8201 27.7196 5.33316 28.1602C5.80722 28.5395 6.28131 28.9187 6.75538 29.298C6.93244 29.4105 7.12207 29.4816 7.32427 29.5113C7.89411 30.0338 8.55782 30.4131 9.31538 30.6491C9.92146 31.015 10.5852 31.2521 11.3065 31.3602C11.9125 31.5856 12.5288 31.7752 13.1554 31.9291C8.74649 31.9291 4.3376 31.9291 -0.0712891 31.9291C-0.0712891 27.4253 -0.0712891 22.9217 -0.0712891 18.418Z"
            fill="#198FFD" />
        <path fill-rule="evenodd" clip-rule="evenodd"
            d="M23.5376 19.4136C23.8627 20.3677 23.6731 21.2447 22.9687 22.0447C22.7918 22.1095 22.6733 22.0384 22.6131 21.8314C22.3172 22.0908 22.3408 22.3278 22.6842 22.5425C22.6369 22.5898 22.5894 22.6373 22.542 22.6847C22.3662 22.5786 22.1765 22.5312 21.9731 22.5425C21.9731 22.732 21.9731 22.9218 21.9731 23.1114C21.7779 23.089 21.5881 23.1128 21.4042 23.1825C21.6036 23.3733 21.5563 23.4919 21.262 23.538C20.9843 23.6313 20.6998 23.6787 20.4087 23.6802C21.9463 22.6173 22.9892 21.195 23.5376 19.4136Z"
            fill="#2890EF" />
        <path fill-rule="evenodd" clip-rule="evenodd"
            d="M31.3602 20.4088C30.8958 22.5229 29.9478 24.3718 28.5158 25.9554C28.4217 25.3396 28.3744 24.747 28.3735 24.1777C28.4626 24.071 28.5337 23.9524 28.5869 23.8221C28.7429 24.043 28.9325 24.2326 29.1558 24.391C29.1869 24.1865 29.258 23.9969 29.3691 23.8221C30.1688 23.5142 30.4295 22.9453 30.1513 22.1154C30.0068 21.9542 29.912 22.0015 29.8669 22.2577C29.7966 22.0253 29.773 21.7882 29.7958 21.5466C30.0998 21.5754 30.3369 21.7176 30.5069 21.9732C30.6491 21.9259 30.744 21.831 30.7913 21.6888C30.8043 20.8876 30.7806 20.0817 30.7202 19.271C30.9691 19.6615 31.1113 20.0882 31.1469 20.551C31.2013 20.4719 31.2725 20.4246 31.3602 20.4088Z"
            fill="#248FF1" />
        <path fill-rule="evenodd" clip-rule="evenodd"
            d="M31.9288 18.1333C31.9288 22.7318 31.9288 27.3304 31.9288 31.9289C27.5199 31.9289 23.111 31.9289 18.7021 31.9289C22.7049 31.1365 25.976 29.1454 28.5155 25.9555C29.9475 24.3719 30.8956 22.523 31.3599 20.4089C31.59 19.927 31.7323 19.4056 31.7866 18.8444C31.7462 18.5721 31.7936 18.3351 31.9288 18.1333Z"
            fill="#198FFD" />
        <path fill-rule="evenodd" clip-rule="evenodd"
            d="M3.05801 25.529C2.17584 24.5237 1.51215 23.386 1.06689 22.1156C1.5479 22.3354 1.90346 22.1931 2.13356 21.689C2.20877 21.9855 2.13766 22.2462 1.92023 22.4712C1.94082 22.581 1.98822 22.6758 2.06245 22.7556C1.94752 22.7994 1.85271 22.8705 1.77801 22.969C1.94021 23.1005 1.94021 23.2191 1.77801 23.3245C1.82541 23.3483 1.87283 23.3719 1.92023 23.3956C2.02701 23.271 2.09812 23.1288 2.13356 22.969C2.2262 23.2157 2.2025 23.4528 2.06245 23.6801C2.31677 23.9496 2.60122 24.1867 2.91578 24.3912C3.00745 24.5664 3.03115 24.756 2.98689 24.9601C3.11699 24.8423 3.2118 24.7001 3.27134 24.5334C3.28895 24.8799 3.21784 25.2117 3.05801 25.529Z"
            fill="#198FFD" />
        <path fill-rule="evenodd" clip-rule="evenodd"
            d="M9.59987 21.5469C10.1357 22.1901 10.7046 22.8065 11.3065 23.3958C11.178 23.4966 11.1306 23.6388 11.1643 23.8224C10.8225 23.8376 10.5618 23.6954 10.3821 23.3958C10.2399 23.064 10.0977 22.732 9.95543 22.4002C9.79143 22.6842 9.5781 22.7316 9.31543 22.5424C9.65995 22.3223 9.65995 22.0853 9.31543 21.8313C9.3646 21.6612 9.43571 21.6612 9.52876 21.8313C9.5948 21.7468 9.61851 21.652 9.59987 21.5469Z"
            fill="#2992F0" />
        <path fill-rule="evenodd" clip-rule="evenodd"
            d="M11.3069 23.3955C11.8453 23.7363 12.4142 24.0445 13.0135 24.32C15.1106 24.8092 17.1966 24.7854 19.2713 24.2488C19.1631 24.3756 19.0208 24.4704 18.8446 24.5333C18.7186 24.6506 18.6713 24.7928 18.7024 24.96C16.9003 24.9837 15.0988 24.96 13.298 24.8888C12.9187 24.794 12.9187 24.6993 13.298 24.6044C13.2269 24.5806 13.1557 24.557 13.0846 24.5333C12.7925 24.6313 12.6503 24.7735 12.658 24.96C12.1356 24.8529 11.6853 24.6159 11.3069 24.2488C11.5258 24.1021 11.5969 23.9125 11.5202 23.68C11.4728 23.7273 11.4254 23.7748 11.378 23.8222C11.3093 23.6873 11.2856 23.5451 11.3069 23.3955Z"
            fill="#3192EC" />
        <path fill-rule="evenodd" clip-rule="evenodd"
            d="M4.05322 26.6666C4.44389 26.622 4.82314 26.6694 5.191 26.8088C5.00138 26.9036 4.81174 26.9984 4.62211 27.0932C5.13627 27.3027 5.61036 27.5634 6.04433 27.8755C6.16332 28.0192 6.21073 28.1852 6.18656 28.3732C6.70941 28.4923 7.20719 28.6819 7.67989 28.9421C7.60888 29.1404 7.49036 29.3301 7.32433 29.511C7.12214 29.4813 6.93251 29.4102 6.75544 29.2977C6.28138 28.9184 5.80729 28.5392 5.33322 28.1599C4.82017 27.7193 4.3935 27.2215 4.05322 26.6666Z"
            fill="#2990F0" />
        <path fill-rule="evenodd" clip-rule="evenodd"
            d="M7.32422 29.5112C7.60859 29.6714 7.89304 29.6951 8.17755 29.5823C8.48501 29.9251 8.86426 30.2807 9.31533 30.649C8.55777 30.4131 7.89406 30.0338 7.32422 29.5112Z"
            fill="#198FFD" />
        <path fill-rule="evenodd" clip-rule="evenodd"
            d="M11.3066 31.3599C11.9209 31.436 12.5372 31.5071 13.1555 31.5732C13.2808 31.6739 13.3756 31.7925 13.44 31.9288C13.3452 31.9288 13.2503 31.9288 13.1555 31.9288C12.529 31.7749 11.9127 31.5853 11.3066 31.3599Z"
            fill="#198FFD" />
    </g>
    <defs>
        <clipPath id="clip0_2051_968">
            <rect width="32" height="32" fill="white" />
        </clipPath>
    </defs>
</svg>