<svg width="32" height="32" viewBox="0 0 33 33" fill="none" xmlns="http://www.w3.org/2000/svg">
    <path fill-rule="evenodd" clip-rule="evenodd"
        d="M29.5314 7.56497C29.553 7.68896 29.5255 7.80084 29.4489 7.90058C26.1654 3.22361 21.6843 0.874315 16.0056 0.852685C10.4686 1.17927 6.12497 3.64043 2.97461 8.23619C5.03558 4.71614 8.00466 2.33887 11.8819 1.1044C18.457 -0.501293 24.0379 1.20474 28.6242 6.22251C28.963 6.64995 29.2653 7.09744 29.5314 7.56497Z"
        fill="#1F93B5" />
    <path fill-rule="evenodd" clip-rule="evenodd"
        d="M29.5314 7.56482C32.8533 12.82 33.2106 18.3016 30.6036 24.0099C30.4886 24.3596 30.2961 24.6394 30.0263 24.8489C29.3801 25.5359 28.7479 26.2632 28.1293 27.0304C28.0485 27.2474 28.021 27.4713 28.0469 27.7017C28.0327 27.8688 28.0878 28.0086 28.2118 28.1212C29.6731 29.3571 31.1027 30.6156 32.5005 31.8968C32.3905 31.8968 32.2806 31.8968 32.1706 31.8968C32.1016 31.7757 31.9918 31.6918 31.8407 31.6451C28.9259 31.5053 26.0117 31.3654 23.0984 31.2256C21.4199 31.5777 19.7704 31.9692 18.1499 32.4003C13.2163 32.974 8.98261 31.4918 5.44886 27.9534C5.29248 27.8723 5.12753 27.8445 4.95401 27.8695C4.56668 26.9442 4.01685 26.133 3.30452 25.4363C3.20647 25.3584 3.0965 25.3304 2.97462 25.3524C2.97462 25.2965 2.97462 25.2404 2.97462 25.1846C2.62697 24.3917 2.29708 23.5807 1.98493 22.7514C1.88099 22.5315 1.71604 22.3916 1.49008 22.3318C-0.121907 17.5884 0.235478 13.0018 2.56225 8.57166C2.67908 8.42391 2.81653 8.31203 2.97462 8.23605C6.12498 3.64028 10.4686 1.17913 16.0056 0.852539C21.6843 0.874169 26.1655 3.22347 29.4489 7.90043C29.5255 7.80069 29.553 7.68881 29.5314 7.56482Z"
        fill="#1F93B5" />
    <path fill-rule="evenodd" clip-rule="evenodd"
        d="M14.3563 2.69892C21.1449 2.16516 26.0659 4.96195 29.1192 11.0893C31.3813 17.6582 29.9793 23.2518 24.913 27.87C25.511 28.4558 26.1157 29.0431 26.7275 29.632C25.3495 29.6554 23.975 29.5715 22.6037 29.3802C15.4778 32.2108 9.56718 30.5886 4.87172 24.5138C0.898629 17.0531 2.08075 10.5926 8.41812 5.13212C10.246 3.89324 12.2253 3.08218 14.3563 2.69892Z"
        fill="#FEFEFE" />
    <path fill-rule="evenodd" clip-rule="evenodd"
        d="M15.1809 13.4387C18.0626 13.0998 19.5196 14.3863 19.5521 17.2983C18.5827 19.7919 16.9056 20.4912 14.5211 19.3959C12.4116 17.1419 12.6316 15.1563 15.1809 13.4387Z"
        fill="#34C337" />
</svg>