<svg width="32" height="32" viewBox="0 0 32 32" fill="none" xmlns="http://www.w3.org/2000/svg">
    <path
        d="M15.0317 2.94739C21.8838 2.50788 28.3726 5.90529 30.8391 10.8118C31.4175 11.9689 32.363 14.2967 31.8551 16.0256C31.084 18.6762 24.9451 17.8565 21.2294 17.8565C19.9386 17.9754 18.6375 17.9014 17.3681 17.6368C16.9261 17.4773 16.5329 17.2042 16.2275 16.8446C15.922 16.485 15.7148 16.0512 15.6264 15.5861C15.6632 15.0938 15.8504 14.6251 16.1624 14.2448C16.4744 13.8644 16.8956 13.5911 17.3681 13.4624C19.3855 12.6573 23.3345 14.3123 23.3345 11.3388C23.3345 9.97751 21.825 9.25894 20.8525 8.7611C19.6524 8.13497 18.3388 7.76117 16.9912 7.66234C12.3753 7.29576 8.68749 9.52245 7.2359 12.5095C6.76076 13.5704 6.54576 14.731 6.60901 15.8934C6.67225 17.0557 7.01191 18.1857 7.59929 19.1877C8.41445 20.3633 9.47775 21.3421 10.7127 22.0536C11.9477 22.7652 13.3236 23.1917 14.7416 23.3027C16.6577 23.5516 18.9826 23.8297 19.0385 25.7336C19.1397 28.7352 14.3493 28.2675 11.8239 27.7104C6.9612 26.6563 2.91103 23.8734 1.05269 20.0657C0.494128 18.9411 0.14952 17.7207 0.0367595 16.468C-0.4712 9.90751 4.37418 6.02683 9.0663 4.19589C10.981 3.47875 12.9922 3.05782 15.0317 2.94739Z"
        fill="#5DB98F" />
</svg>