<svg width="32" height="32" viewBox="0 0 32 32" fill="none" xmlns="http://www.w3.org/2000/svg">
    <g clip-path="url(#clip0_3239_68)">
        <path fill-rule="evenodd" clip-rule="evenodd"
            d="M9.03118 -0.0712891C10.9275 -0.0712891 12.8238 -0.0712891 14.7201 -0.0712891C14.7201 0.307971 14.7201 0.687229 14.7201 1.06649C14.3408 1.06649 13.9616 1.06649 13.5823 1.06649C13.5823 1.44575 13.5823 1.825 13.5823 2.20427C13.203 2.20427 12.8238 2.20427 12.4445 2.20427C12.4445 2.58353 12.4445 2.96278 12.4445 3.34204C12.0652 3.34204 11.686 3.34204 11.3067 3.34204C11.3067 3.72131 11.3067 4.10056 11.3067 4.47982C10.9275 4.47982 10.5482 4.47982 10.169 4.47982C10.169 4.85909 10.169 5.23834 10.169 5.6176C9.41044 5.6176 8.65191 5.6176 7.8934 5.6176C7.8934 5.99686 7.8934 6.37611 7.8934 6.75538C7.51414 6.75538 7.13489 6.75538 6.75562 6.75538C6.75562 7.13464 6.75562 7.51389 6.75562 7.89316C6.37636 7.89316 5.99711 7.89316 5.61784 7.89316C5.61784 8.27242 5.61784 8.65167 5.61784 9.03093C5.23858 9.03093 4.85933 9.03093 4.48007 9.03093C4.48007 9.4102 4.48007 9.78945 4.48007 10.1687C4.1008 10.1687 3.72155 10.1687 3.34229 10.1687C3.34229 10.548 3.34229 10.9272 3.34229 11.3065C2.96302 11.3065 2.58377 11.3065 2.20451 11.3065C2.20451 11.6858 2.20451 12.065 2.20451 12.4443C1.82525 12.4443 1.446 12.4443 1.06673 12.4443C1.06673 12.8235 1.06673 13.2028 1.06673 13.582C0.687473 13.582 0.308215 13.582 -0.0710449 13.582C-0.0710449 12.065 -0.0710449 10.548 -0.0710449 9.03093C0.0432642 8.79076 0.185487 8.55372 0.355622 8.31982C0.491002 8.5396 0.538409 8.77664 0.497844 9.03093C0.640066 9.03093 0.782288 9.03093 0.924511 9.03093C0.924511 8.65167 0.924511 8.27242 0.924511 7.89316C1.35118 7.89316 1.77784 7.89316 2.20451 7.89316C2.20451 7.51389 2.20451 7.13464 2.20451 6.75538C2.58377 6.75538 2.96302 6.75538 3.34229 6.75538C3.34229 6.37611 3.34229 5.99686 3.34229 5.6176C3.72155 5.6176 4.1008 5.6176 4.48007 5.6176C4.48007 5.23834 4.48007 4.85909 4.48007 4.47982C4.85933 4.47982 5.23858 4.47982 5.61784 4.47982C5.61784 4.10056 5.61784 3.72131 5.61784 3.34204C5.99711 3.34204 6.37636 3.34204 6.75562 3.34204C6.75562 2.96278 6.75562 2.58353 6.75562 2.20427C7.13489 2.20427 7.51414 2.20427 7.8934 2.20427C7.9628 1.74763 7.86798 1.34468 7.60896 0.995378C8.11204 0.974753 8.58611 0.856233 9.03118 0.639822C8.66683 0.477555 8.28758 0.359037 7.8934 0.284267C8.34498 0.291853 8.72425 0.173335 9.03118 -0.0712891Z"
            fill="#4244F5" />
        <path fill-rule="evenodd" clip-rule="evenodd"
            d="M14.7201 -0.0712891C16.9956 -0.0712891 19.2712 -0.0712891 21.5467 -0.0712891C21.5467 0.307971 21.5467 0.687229 21.5467 1.06649C21.1674 1.06649 20.7883 1.06649 20.409 1.06649C20.409 1.44575 20.409 1.825 20.409 2.20427C20.0296 2.20427 19.6505 2.20427 19.2712 2.20427C19.2712 2.58353 19.2712 2.96278 19.2712 3.34204C18.8919 3.34204 18.5127 3.34204 18.1334 3.34204C18.1334 3.76871 18.1334 4.19538 18.1334 4.62204C17.2242 4.62716 16.3233 4.60346 15.4312 4.55093C16.498 4.73584 17.5884 4.83064 18.7023 4.83538C17.9438 4.88278 17.1852 4.9302 16.4267 4.9776C16.9956 5.025 17.5645 5.07242 18.1334 5.11982C17.2293 5.22036 16.3286 5.19665 15.4312 5.04871C15.2116 5.00752 15.022 4.9127 14.8623 4.76427C14.7067 4.95883 14.7542 5.12476 15.0045 5.26204C15.3185 5.28919 15.603 5.36031 15.8578 5.47538C11.9181 5.96391 9.09737 8.00242 7.39562 11.5909C7.11476 12.4093 6.85402 13.2152 6.6134 14.0087C6.58592 13.4471 6.51481 13.4471 6.40007 14.0087C6.32537 15.388 6.32537 16.7628 6.40007 18.1332C6.18202 16.6283 6.08721 15.1112 6.11562 13.582C5.66769 14.6709 5.50176 15.8087 5.61784 16.9954C5.23858 16.9954 4.85933 16.9954 4.48007 16.9954C4.48007 17.3747 4.48007 17.7538 4.48007 18.1332C4.1008 18.1332 3.72155 18.1332 3.34229 18.1332C3.34229 18.5125 3.34229 18.8916 3.34229 19.2709C2.96302 19.2709 2.58377 19.2709 2.20451 19.2709C2.20451 19.6502 2.20451 20.0294 2.20451 20.4087C1.82525 20.4087 1.446 20.4087 1.06673 20.4087C1.06673 20.788 1.06673 21.1672 1.06673 21.5465C0.687473 21.5465 0.308215 21.5465 -0.0710449 21.5465C-0.0710449 18.8916 -0.0710449 16.2369 -0.0710449 13.582C0.308215 13.582 0.687473 13.582 1.06673 13.582C1.06673 13.2028 1.06673 12.8235 1.06673 12.4443C1.446 12.4443 1.82525 12.4443 2.20451 12.4443C2.20451 12.065 2.20451 11.6858 2.20451 11.3065C2.58377 11.3065 2.96302 11.3065 3.34229 11.3065C3.34229 10.9272 3.34229 10.548 3.34229 10.1687C3.72155 10.1687 4.1008 10.1687 4.48007 10.1687C4.48007 9.78945 4.48007 9.4102 4.48007 9.03093C4.85933 9.03093 5.23858 9.03093 5.61784 9.03093C5.61784 8.65167 5.61784 8.27242 5.61784 7.89315C5.99711 7.89315 6.37636 7.89315 6.75562 7.89315C6.75562 7.51389 6.75562 7.13464 6.75562 6.75538C7.13489 6.75538 7.51413 6.75538 7.8934 6.75538C7.8934 6.37611 7.8934 5.99686 7.8934 5.6176C8.65191 5.6176 9.41044 5.6176 10.169 5.6176C10.169 5.23834 10.169 4.85909 10.169 4.47982C10.5482 4.47982 10.9275 4.47982 11.3067 4.47982C11.3067 4.10056 11.3067 3.72131 11.3067 3.34204C11.686 3.34204 12.0652 3.34204 12.4445 3.34204C12.4445 2.96278 12.4445 2.58353 12.4445 2.20427C12.8238 2.20427 13.203 2.20427 13.5823 2.20427C13.5823 1.825 13.5823 1.44575 13.5823 1.06649C13.9616 1.06649 14.3408 1.06649 14.7201 1.06649C14.7201 0.687229 14.7201 0.307971 14.7201 -0.0712891Z"
            fill="#4244F5" />
        <path fill-rule="evenodd" clip-rule="evenodd"
            d="M21.5466 -0.0712891C22.305 -0.0712891 23.0636 -0.0712891 23.8221 -0.0712891C24.391 0.0235258 24.9599 0.118341 25.5288 0.213155C25.5446 0.300966 25.5919 0.372077 25.671 0.426489C25.0548 0.473896 24.4384 0.521304 23.8221 0.568711C24.5876 0.612419 25.346 0.707234 26.0977 0.853155C25.7214 0.9239 25.342 0.947604 24.9599 0.924267C24.9599 1.35093 24.9599 1.7776 24.9599 2.20427C24.5806 2.20427 24.2014 2.20427 23.8221 2.20427C23.8221 2.58353 23.8221 2.96278 23.8221 3.34204C23.4428 3.34204 23.0636 3.34204 22.6843 3.34204C22.6843 3.72131 22.6843 4.10056 22.6843 4.47982C22.305 4.47982 21.9259 4.47982 21.5466 4.47982C21.5466 4.85909 21.5466 5.23834 21.5466 5.6176C21.2214 5.63111 20.937 5.72592 20.6932 5.90204C19.1035 5.55127 17.4917 5.40905 15.8577 5.47538C15.6028 5.36031 15.3184 5.28919 15.0043 5.26204C14.754 5.12476 14.7065 4.95883 14.8621 4.76427C15.0218 4.9127 15.2114 5.00752 15.431 5.04871C16.3284 5.19665 17.2291 5.22036 18.1332 5.11982C17.5643 5.07242 16.9955 5.025 16.4266 4.9776C17.185 4.9302 17.9436 4.88278 18.7021 4.83538C17.5882 4.83064 16.4978 4.73584 15.431 4.55093C16.3232 4.60346 17.224 4.62716 18.1332 4.62204C18.1332 4.19538 18.1332 3.76871 18.1332 3.34204C18.5125 3.34204 18.8917 3.34204 19.271 3.34204C19.271 2.96278 19.271 2.58353 19.271 2.20427C19.6503 2.20427 20.0295 2.20427 20.4088 2.20427C20.4088 1.825 20.4088 1.44575 20.4088 1.06649C20.7881 1.06649 21.1673 1.06649 21.5466 1.06649C21.5466 0.687229 21.5466 0.307971 21.5466 -0.0712891Z"
            fill="#4244F5" />
        <path fill-rule="evenodd" clip-rule="evenodd"
            d="M25.5289 0.212891C27.6886 0.344577 29.3952 1.29273 30.6489 3.05733C30.2976 2.9755 29.9657 3.07031 29.6534 3.34178C29.514 3.70964 29.4666 4.08889 29.5111 4.47956C29.1318 4.47956 28.7527 4.47956 28.3734 4.47956C28.3734 4.85882 28.3734 5.23807 28.3734 5.61733C27.9941 5.61733 27.6149 5.61733 27.2356 5.61733C27.2356 5.9966 27.2356 6.37585 27.2356 6.75511C26.8563 6.75511 26.4771 6.75511 26.0978 6.75511C26.2602 7.7729 25.8811 8.48401 24.96 8.88845C25.0742 8.75715 25.098 8.61492 25.0311 8.46178C24.6143 7.95914 24.1165 7.57989 23.5378 7.324C22.7143 6.6278 21.7661 6.15371 20.6934 5.90178C20.9371 5.72565 21.2216 5.63085 21.5467 5.61733C21.5467 5.23807 21.5467 4.85882 21.5467 4.47956C21.926 4.47956 22.3052 4.47956 22.6845 4.47956C22.6845 4.10029 22.6845 3.72104 22.6845 3.34178C23.0638 3.34178 23.4429 3.34178 23.8222 3.34178C23.8222 2.96252 23.8222 2.58327 23.8222 2.204C24.2016 2.204 24.5807 2.204 24.96 2.204C24.96 1.77733 24.96 1.35067 24.96 0.924002C25.3422 0.947339 25.7215 0.923635 26.0978 0.852891C25.3462 0.706969 24.5877 0.612154 23.8222 0.568446C24.4385 0.521039 25.0549 0.473631 25.6711 0.426224C25.5921 0.371813 25.5447 0.300701 25.5289 0.212891Z"
            fill="#4244F5" />
        <path fill-rule="evenodd" clip-rule="evenodd"
            d="M7.8934 -0.0712891C8.27266 -0.0712891 8.65191 -0.0712891 9.03118 -0.0712891C8.72425 0.173335 8.34498 0.291853 7.8934 0.284267C8.28758 0.359037 8.66683 0.477555 9.03118 0.639822C8.58611 0.856233 8.11204 0.974753 7.60896 0.995378C7.86798 1.34468 7.9628 1.74763 7.8934 2.20427C7.51414 2.20427 7.13489 2.20427 6.75562 2.20427C6.75562 2.58353 6.75562 2.96278 6.75562 3.34204C6.37636 3.34204 5.99711 3.34204 5.61784 3.34204C5.61784 3.72131 5.61784 4.10056 5.61784 4.47982C5.23858 4.47982 4.85933 4.47982 4.48007 4.47982C4.48007 4.85909 4.48007 5.23834 4.48007 5.6176C4.1008 5.6176 3.72155 5.6176 3.34229 5.6176C3.34229 5.99686 3.34229 6.37611 3.34229 6.75538C2.96302 6.75538 2.58377 6.75538 2.20451 6.75538C2.20451 7.13464 2.20451 7.51389 2.20451 7.89316C1.77784 7.89316 1.35118 7.89316 0.924511 7.89316C0.924511 8.27242 0.924511 8.65167 0.924511 9.03093C0.782288 9.03093 0.640066 9.03093 0.497844 9.03093C0.538409 8.77664 0.491002 8.5396 0.355622 8.31982C0.185487 8.55372 0.0432642 8.79076 -0.0710449 9.03093C-0.0710449 8.27242 -0.0710449 7.51389 -0.0710449 6.75538C0.701761 2.28484 3.35658 0.00927407 7.8934 -0.0712891Z"
            fill="#4244F5" />
        <path fill-rule="evenodd" clip-rule="evenodd"
            d="M30.6488 3.05773C31.2821 4.10436 31.6614 5.24214 31.7866 6.47106C31.4493 6.86455 31.2834 7.33862 31.2888 7.89329C31.1709 6.37917 31.0998 6.37917 31.0754 7.89329C30.5539 7.89329 30.0325 7.89329 29.511 7.89329C29.511 8.27255 29.511 8.6518 29.511 9.03106C29.1317 9.03106 28.7525 9.03106 28.3732 9.03106C28.3732 9.41033 28.3732 9.78958 28.3732 10.1688C27.9939 10.1688 27.6148 10.1688 27.2354 10.1688C27.2354 10.5481 27.2354 10.9274 27.2354 11.3066C26.8561 11.3066 26.477 11.3066 26.0977 11.3066C26.0977 11.6859 26.0977 12.0651 26.0977 12.4444C25.7184 12.4444 25.3392 12.4444 24.9599 12.4444C24.9599 12.8237 24.9599 13.2029 24.9599 13.5822C24.5806 13.5822 24.2014 13.5822 23.8221 13.5822C23.8221 13.9614 23.8221 14.3406 23.8221 14.72C23.4428 14.72 23.0636 14.72 22.6843 14.72C22.6843 15.0993 22.6843 15.4784 22.6843 15.8577C22.305 15.8577 21.9259 15.8577 21.5466 15.8577C21.5466 16.237 21.5466 16.6162 21.5466 16.9955C21.1673 16.9955 20.7881 16.9955 20.4088 16.9955C20.4088 17.3748 20.4088 17.754 20.4088 18.1333C20.0295 18.1333 19.6503 18.1333 19.271 18.1333C19.271 18.5126 19.271 18.8918 19.271 19.2711C18.8917 19.2711 18.5125 19.2711 18.1332 19.2711C18.1332 19.6504 18.1332 20.0295 18.1332 20.4088C17.7539 20.4088 17.3748 20.4088 16.9954 20.4088C16.9954 20.7881 16.9954 21.1673 16.9954 21.5466C17.4871 21.7053 17.9613 21.8951 18.4177 22.1155C16.9853 22.4327 15.6105 22.2431 14.2932 21.5466C13.4803 21.113 12.864 20.4967 12.4443 19.6977C12.7253 19.6797 13.0097 19.5374 13.2977 19.2711C13.3961 19.3457 13.4673 19.4406 13.511 19.5555C13.8603 19.2965 14.2632 19.2017 14.7199 19.2711C14.7199 18.8918 14.7199 18.5126 14.7199 18.1333C15.0992 18.1333 15.4784 18.1333 15.8577 18.1333C15.8577 17.754 15.8577 17.3748 15.8577 16.9955C16.237 16.9955 16.6161 16.9955 16.9954 16.9955C16.9954 16.6162 16.9954 16.237 16.9954 15.8577C17.3748 15.8577 17.7539 15.8577 18.1332 15.8577C18.1332 15.4784 18.1332 15.0993 18.1332 14.72C18.5125 14.72 18.8917 14.72 19.271 14.72C19.271 14.3406 19.271 13.9614 19.271 13.5822C19.6503 13.5822 20.0295 13.5822 20.4088 13.5822C20.4088 13.2029 20.4088 12.8237 20.4088 12.4444C21.1385 12.3567 21.8259 12.3567 22.471 12.4444C22.687 12.2113 22.7108 11.9742 22.5421 11.7333C23.2455 10.698 24.0515 9.74987 24.9599 8.88884C25.8809 8.48441 26.2601 7.77329 26.0977 6.75551C26.477 6.75551 26.8561 6.75551 27.2354 6.75551C27.2354 6.37624 27.2354 5.997 27.2354 5.61773C27.6148 5.61773 27.9939 5.61773 28.3732 5.61773C28.3732 5.23847 28.3732 4.85922 28.3732 4.47995C28.7525 4.47995 29.1317 4.47995 29.511 4.47995C29.4665 4.08928 29.5138 3.71003 29.6532 3.34218C29.9655 3.0707 30.2975 2.9759 30.6488 3.05773Z"
            fill="#4244F5" />
        <path fill-rule="evenodd" clip-rule="evenodd"
            d="M20.8354 6.61295C21.4099 6.77281 21.9788 6.96245 22.5421 7.18184C22.8022 7.07057 23.0156 7.16539 23.1821 7.46629C23.2775 7.35928 23.396 7.31186 23.5377 7.32407C24.1164 7.57995 24.6141 7.9592 25.031 8.46184C25.0978 8.61499 25.0741 8.75721 24.9599 8.88851C24.0515 9.74954 23.2455 10.6977 22.5421 11.733C22.4544 11.7487 22.3832 11.7961 22.3288 11.8752C19.7445 9.36663 16.8763 8.96367 13.7243 10.6663C11.3655 12.7756 10.6781 15.3593 11.6621 18.4174C11.8551 18.9007 12.1159 19.3273 12.4443 19.6974C12.864 20.4964 13.4803 21.1127 14.2932 21.5463C14.4784 21.8578 14.7155 22.1422 15.0043 22.3996C15.3387 22.4724 15.6231 22.6147 15.8577 22.8263C17.1351 22.992 18.4151 23.0157 19.6977 22.8974C20.0854 22.6087 20.512 22.3954 20.9777 22.2574C21.1199 22.0203 21.3095 21.8307 21.5466 21.6885C21.6316 21.5043 21.7027 21.3147 21.7599 21.1196C22.1391 20.9043 22.4946 20.6674 22.8266 20.4085C23.6473 21.158 24.4533 21.9402 25.2443 22.7552C25.119 22.8559 25.0243 22.9745 24.9599 23.1107C23.5923 24.5775 21.933 25.573 19.9821 26.0974C17.7684 26.5576 15.5877 26.4629 13.4399 25.813C13.6463 25.6989 13.8834 25.6278 14.151 25.5996C13.6055 25.3684 13.0366 25.2261 12.4443 25.173C12.1879 25.0824 11.9983 24.9165 11.8754 24.6752C11.6557 24.5398 11.4186 24.4924 11.1643 24.533C11.1856 24.3833 11.1619 24.2411 11.0932 24.1063C10.0432 23.2211 9.16614 22.178 8.46211 20.9774C8.49188 20.8941 8.53928 20.8229 8.60433 20.7641C8.05052 20.079 7.67125 19.2968 7.46655 18.4174C7.51654 18.2345 7.61136 18.116 7.751 18.0618C7.52451 16.3626 7.59562 14.6797 7.96433 13.013C8.51029 12.3475 8.86585 11.589 9.031 10.7374C10.0377 9.87333 10.9385 8.92519 11.7332 7.89295C12.4285 7.79818 13.0448 7.53743 13.5821 7.11073C15.9603 6.45179 18.3781 6.28586 20.8354 6.61295Z"
            fill="#FCFCFC" />
        <path fill-rule="evenodd" clip-rule="evenodd"
            d="M31.7867 6.4707C31.7623 6.61173 31.8098 6.70655 31.9289 6.75515C31.9289 8.65144 31.9289 10.5477 31.9289 12.444C31.7906 12.7922 31.7432 13.1714 31.7867 13.5818C31.4074 13.5818 31.0282 13.5818 30.6489 13.5818C30.6489 13.9611 30.6489 14.3403 30.6489 14.7196C30.2696 14.7196 29.8905 14.7196 29.5112 14.7196C29.5112 15.0989 29.5112 15.4781 29.5112 15.8574C29.1319 15.8574 28.7527 15.8574 28.3734 15.8574C28.3734 16.2367 28.3734 16.6158 28.3734 16.9951C27.9941 16.9951 27.6149 16.9951 27.2356 16.9951C27.2356 17.3745 27.2356 17.7536 27.2356 18.1329C26.8563 18.1329 26.4771 18.1329 26.0978 18.1329C26.0978 18.5122 26.0978 18.8914 26.0978 19.2707C25.7185 19.2707 25.3394 19.2707 24.9601 19.2707C24.9601 19.65 24.9601 20.0292 24.9601 20.4085C24.5018 20.3527 24.0751 20.4238 23.6801 20.6218C24.3963 20.4819 24.7993 20.7899 24.8889 21.5463C25.9505 21.7811 26.2349 22.3973 25.7423 23.3951C25.6787 22.4723 25.5365 22.4723 25.3156 23.3951C25.2563 23.2165 25.1378 23.1217 24.9601 23.1107C25.0245 22.9745 25.1192 22.8558 25.2445 22.7551C24.4535 21.9402 23.6475 21.158 22.8267 20.4085C22.735 20.2219 22.5928 20.0797 22.4001 19.9818C21.7565 20.5069 21.0927 21.0047 20.4089 21.4751C19.7852 21.8173 19.1215 22.0307 18.4178 22.1151C17.9614 21.8947 17.4873 21.705 16.9956 21.5463C16.9956 21.167 16.9956 20.7878 16.9956 20.4085C17.3749 20.4085 17.7541 20.4085 18.1334 20.4085C18.1334 20.0292 18.1334 19.65 18.1334 19.2707C18.5127 19.2707 18.8919 19.2707 19.2712 19.2707C19.2712 18.8914 19.2712 18.5122 19.2712 18.1329C19.6505 18.1329 20.0296 18.1329 20.4089 18.1329C20.4089 17.7536 20.4089 17.3745 20.4089 16.9951C20.7882 16.9951 21.1674 16.9951 21.5467 16.9951C21.5467 16.6158 21.5467 16.2367 21.5467 15.8574C21.926 15.8574 22.3052 15.8574 22.6845 15.8574C22.6845 15.4781 22.6845 15.0989 22.6845 14.7196C23.0638 14.7196 23.443 14.7196 23.8223 14.7196C23.8223 14.3403 23.8223 13.9611 23.8223 13.5818C24.2016 13.5818 24.5807 13.5818 24.9601 13.5818C24.9601 13.2026 24.9601 12.8233 24.9601 12.444C25.3394 12.444 25.7185 12.444 26.0978 12.444C26.0978 12.0648 26.0978 11.6855 26.0978 11.3063C26.4771 11.3063 26.8563 11.3063 27.2356 11.3063C27.2356 10.927 27.2356 10.5477 27.2356 10.1685C27.6149 10.1685 27.9941 10.1685 28.3734 10.1685C28.3734 9.78922 28.3734 9.40997 28.3734 9.0307C28.7527 9.0307 29.1319 9.0307 29.5112 9.0307C29.5112 8.65144 29.5112 8.27219 29.5112 7.89293C30.0327 7.89293 30.5541 7.89293 31.0756 7.89293C31.0999 6.37881 31.171 6.37881 31.2889 7.89293C31.2835 7.33826 31.4495 6.86419 31.7867 6.4707Z"
            fill="#4244F5" />
        <path fill-rule="evenodd" clip-rule="evenodd"
            d="M15.8577 5.47578C17.4917 5.40945 19.1035 5.55167 20.6933 5.90245C21.7661 6.15438 22.7143 6.62847 23.5377 7.32467C23.3961 7.31247 23.2776 7.35989 23.1822 7.4669C23.0156 7.166 22.8023 7.07118 22.5422 7.18245C21.9788 6.96306 21.4099 6.77342 20.8355 6.61356C20.7561 6.43011 20.6139 6.3116 20.4088 6.25801C18.6999 6.15143 16.9932 6.17512 15.2888 6.32912C14.5675 6.61109 13.8089 6.77702 13.0133 6.8269C11.4312 7.65449 10.0801 8.76856 8.95994 10.1691C8.84143 10.4536 8.7229 10.738 8.60439 11.0225C8.4136 11.2365 8.17656 11.3313 7.89328 11.3069C7.62812 12.2471 7.34367 13.1953 7.03994 14.1513C6.90995 15.6393 6.86255 17.109 6.89772 18.5602C6.64575 17.075 6.55093 15.5579 6.61328 14.0091C6.8539 13.2156 7.11464 12.4097 7.3955 11.5913C9.09725 8.00283 11.918 5.96432 15.8577 5.47578Z"
            fill="#FCFCFC" />
        <path fill-rule="evenodd" clip-rule="evenodd"
            d="M22.5423 11.733C22.711 11.974 22.6872 12.211 22.4712 12.4441C21.8261 12.3565 21.1387 12.3565 20.409 12.4441C20.409 12.8234 20.409 13.2027 20.409 13.5819C20.0296 13.5819 19.6505 13.5819 19.2712 13.5819C19.2712 13.9612 19.2712 14.3404 19.2712 14.7197C18.8919 14.7197 18.5127 14.7197 18.1334 14.7197C18.1334 15.099 18.1334 15.4782 18.1334 15.8575C17.7541 15.8575 17.3749 15.8575 16.9956 15.8575C16.9956 16.2368 16.9956 16.6159 16.9956 16.9953C16.6163 16.9953 16.2371 16.9953 15.8578 16.9953C15.8578 17.3746 15.8578 17.7537 15.8578 18.133C15.4785 18.133 15.0994 18.133 14.7201 18.133C14.7201 18.5123 14.7201 18.8915 14.7201 19.2708C14.2634 19.2014 13.8605 19.2963 13.5112 19.5553C13.4674 19.4403 13.3963 19.3455 13.2978 19.2708C13.0099 19.5372 12.7254 19.6794 12.4445 19.6975C12.116 19.3274 11.8553 18.9007 11.6623 18.4175C10.6783 15.3594 11.3657 12.7757 13.7245 10.6664C16.8764 8.96375 19.7446 9.36671 22.329 11.8753C22.3834 11.7962 22.4545 11.7488 22.5423 11.733Z"
            fill="#4244F5" />
        <path fill-rule="evenodd" clip-rule="evenodd"
            d="M6.6134 14.0087C6.55105 15.5575 6.64587 17.0746 6.89784 18.5598C7.10953 19.5047 7.44139 20.4054 7.8934 21.262C7.80074 21.3461 7.70592 21.4408 7.60896 21.5465C7.56155 21.4991 7.51414 21.4516 7.46673 21.4043C7.5987 21.2239 7.62241 21.0343 7.53784 20.8354C7.48553 21.0359 7.36702 21.1781 7.18229 21.262C7.02003 20.8977 6.9015 20.5185 6.82673 20.1243C6.47744 20.3832 6.07448 20.4781 5.61784 20.4087C5.61784 20.788 5.61784 21.1672 5.61784 21.5465C5.23858 21.5465 4.85933 21.5465 4.48007 21.5465C4.48007 21.9258 4.48007 22.3049 4.48007 22.6843C4.1008 22.6843 3.72155 22.6843 3.34229 22.6843C3.34229 23.0636 3.34229 23.4427 3.34229 23.822C2.96302 23.822 2.58377 23.822 2.20451 23.822C2.20451 24.2013 2.20451 24.5805 2.20451 24.9598C1.77784 24.9598 1.35118 24.9598 0.924511 24.9598C0.862502 25.5872 0.862502 26.2034 0.924511 26.8087C0.82859 27.0498 0.733776 27.2868 0.640066 27.5198C0.425185 27.2388 0.306667 26.907 0.284511 26.5243C0.173058 25.6015 0.05454 24.7007 -0.0710449 23.822C-0.0710449 23.0636 -0.0710449 22.3049 -0.0710449 21.5465C0.308215 21.5465 0.687473 21.5465 1.06673 21.5465C1.06673 21.1672 1.06673 20.788 1.06673 20.4087C1.446 20.4087 1.82525 20.4087 2.20451 20.4087C2.20451 20.0294 2.20451 19.6502 2.20451 19.2709C2.58377 19.2709 2.96302 19.2709 3.34229 19.2709C3.34229 18.8916 3.34229 18.5124 3.34229 18.1331C3.72155 18.1331 4.1008 18.1331 4.48007 18.1331C4.48007 17.7538 4.48007 17.3747 4.48007 16.9954C4.85933 16.9954 5.23858 16.9954 5.61784 16.9954C5.50176 15.8087 5.66769 14.6709 6.11562 13.582C6.08721 15.1112 6.18203 16.6283 6.40007 18.1331C6.32537 16.7628 6.32537 15.388 6.40007 14.0087C6.51481 13.4471 6.58592 13.4471 6.6134 14.0087Z"
            fill="#4244F5" />
        <path fill-rule="evenodd" clip-rule="evenodd"
            d="M31.9288 12.4443C31.9288 16.3792 31.9288 20.3139 31.9288 24.2488C31.6014 29.0324 29.0414 31.5924 24.2488 31.9288C20.3139 31.9288 16.3792 31.9288 12.4443 31.9288C12.7925 31.7904 13.1717 31.743 13.5821 31.7866C13.5821 31.4072 13.5821 31.0281 13.5821 30.6488C13.9614 30.6488 14.3406 30.6488 14.7199 30.6488C14.7199 30.2695 14.7199 29.8903 14.7199 29.511C15.0992 29.511 15.4784 29.511 15.8577 29.511C15.8577 29.1317 15.8577 28.7525 15.8577 28.3732C16.237 28.3732 16.6161 28.3732 16.9954 28.3732C16.9954 27.9939 16.9954 27.6148 16.9954 27.2354C17.8129 27.1941 18.6189 27.1941 19.4132 27.2354C19.7044 27.02 20.0363 26.9014 20.4088 26.8799C20.0593 26.6577 19.68 26.5155 19.271 26.4532C19.5857 26.3642 19.8939 26.3879 20.1954 26.5243C20.2666 26.477 20.3377 26.4295 20.4088 26.3821C20.2521 26.286 20.1098 26.1913 19.9821 26.0977C21.933 25.5733 23.5923 24.5777 24.9599 23.111C25.1377 23.122 25.2561 23.2168 25.3154 23.3954C25.5363 22.4726 25.6785 22.4726 25.7421 23.3954C26.2348 22.3976 25.9503 21.7814 24.8888 21.5466C24.7992 20.7902 24.3961 20.4822 23.6799 20.6221C24.075 20.4241 24.5017 20.353 24.9599 20.4088C24.9599 20.0295 24.9599 19.6503 24.9599 19.271C25.3392 19.271 25.7184 19.271 26.0977 19.271C26.0977 18.8917 26.0977 18.5125 26.0977 18.1332C26.477 18.1332 26.8561 18.1332 27.2354 18.1332C27.2354 17.7539 27.2354 17.3748 27.2354 16.9954C27.6148 16.9954 27.9939 16.9954 28.3732 16.9954C28.3732 16.6161 28.3732 16.237 28.3732 15.8577C28.7525 15.8577 29.1317 15.8577 29.511 15.8577C29.511 15.4784 29.511 15.0992 29.511 14.7199C29.8903 14.7199 30.2695 14.7199 30.6488 14.7199C30.6488 14.3406 30.6488 13.9614 30.6488 13.5821C31.0281 13.5821 31.4072 13.5821 31.7866 13.5821C31.743 13.1717 31.7904 12.7925 31.9288 12.4443Z"
            fill="#4244F5" />
        <path fill-rule="evenodd" clip-rule="evenodd"
            d="M7.89323 21.2618C8.27141 21.9201 8.72178 22.5364 9.24434 23.1107C9.58509 23.4758 9.94064 23.8076 10.311 24.1062C10.1349 24.236 9.94528 24.2597 9.74212 24.1774C9.6236 23.964 9.45767 23.7981 9.24434 23.6796C8.96093 23.9507 9.03204 24.1166 9.45767 24.1774C10.0399 24.965 9.94507 25.0836 9.17323 24.5329C9.04726 24.6502 8.99986 24.7925 9.031 24.9596C8.65174 24.9596 8.27249 24.9596 7.89323 24.9596C7.89323 25.3389 7.89323 25.7181 7.89323 26.0974C7.51396 26.0974 7.13471 26.0974 6.75545 26.0974C6.75545 26.4767 6.75545 26.8558 6.75545 27.2351C6.37618 27.2351 5.99693 27.2351 5.61767 27.2351C5.61767 27.6144 5.61767 27.9936 5.61767 28.3729C5.23841 28.3729 4.85916 28.3729 4.47989 28.3729C4.47989 28.7522 4.47989 29.1314 4.47989 29.5107C3.60961 29.3326 3.08812 29.6644 2.91545 30.5062C1.83053 29.7539 1.07201 28.7583 0.639893 27.5196C0.733603 27.2866 0.828417 27.0495 0.924337 26.8085C0.862328 26.2032 0.862328 25.5869 0.924337 24.9596C1.351 24.9596 1.77767 24.9596 2.20434 24.9596C2.20434 24.5803 2.20434 24.2011 2.20434 23.8218C2.5836 23.8218 2.96285 23.8218 3.34211 23.8218C3.34211 23.4425 3.34211 23.0633 3.34211 22.684C3.72138 22.684 4.10063 22.684 4.47989 22.684C4.47989 22.3047 4.47989 21.9256 4.47989 21.5462C4.85916 21.5462 5.23841 21.5462 5.61767 21.5462C5.61767 21.1669 5.61767 20.7878 5.61767 20.4085C6.0743 20.4779 6.47726 20.383 6.82656 20.124C6.90133 20.5183 7.01985 20.8974 7.18211 21.2618C7.36685 21.1779 7.48536 21.0357 7.53767 20.8351C7.62224 21.0341 7.59853 21.2237 7.46656 21.404C7.51396 21.4514 7.56138 21.4989 7.60878 21.5462C7.70575 21.4406 7.80057 21.3459 7.89323 21.2618Z"
            fill="#4244F5" />
        <path fill-rule="evenodd" clip-rule="evenodd"
            d="M20.8355 6.61333C18.3782 6.28624 15.9604 6.45217 13.5822 7.11111C13.0448 7.53781 12.4285 7.79856 11.7333 7.89333C10.9385 8.92557 10.0378 9.87371 9.03104 10.7378C8.8659 11.5894 8.51034 12.3479 7.96438 13.0133C7.59567 14.68 7.52455 16.363 7.75104 18.0622C7.61141 18.1164 7.51659 18.2349 7.4666 18.4178C7.6713 19.2971 8.05056 20.0794 8.60438 20.7644C8.53932 20.8233 8.49192 20.8944 8.46215 20.9778C9.16618 22.1784 10.0432 23.2215 11.0933 24.1067C11.1619 24.2415 11.1856 24.3837 11.1644 24.5333C11.4187 24.4928 11.6557 24.5402 11.8755 24.6756C11.9983 24.9169 12.1879 25.0827 12.4444 25.1733C13.0367 25.2265 13.6056 25.3687 14.151 25.6C13.8834 25.6282 13.6464 25.6993 13.4399 25.8133C12.2687 25.465 11.2257 24.8961 10.311 24.1067C9.94068 23.808 9.58513 23.4762 9.24438 23.1111C8.72182 22.5368 8.27145 21.9206 7.89327 21.2622C7.44126 20.4056 7.10939 19.5049 6.89771 18.56C6.86254 17.1088 6.90994 15.639 7.03993 14.1511C7.34366 13.1951 7.62811 12.2469 7.89327 11.3067C8.17654 11.3311 8.41359 11.2363 8.60438 11.0222C8.72289 10.7378 8.84142 10.4533 8.95993 10.1689C10.0801 8.76833 11.4312 7.65426 13.0133 6.82667C13.8089 6.77679 14.5675 6.61086 15.2888 6.32889C16.9932 6.17489 18.6999 6.1512 20.4088 6.25778C20.6139 6.31137 20.7561 6.42988 20.8355 6.61333Z"
            fill="#FCFCFC" />
        <path fill-rule="evenodd" clip-rule="evenodd"
            d="M22.8265 20.4091C22.4946 20.6679 22.139 20.9049 21.7599 21.1202C21.7027 21.3153 21.6316 21.5049 21.5465 21.6891C21.3095 21.8313 21.1199 22.0209 20.9777 22.258C20.512 22.3959 20.0854 22.6093 19.6977 22.898C18.4151 23.0163 17.1351 22.9926 15.8577 22.8269C15.6231 22.6152 15.3387 22.473 15.0043 22.4002C14.7155 22.1428 14.4784 21.8583 14.2932 21.5469C15.6105 22.2433 16.9853 22.4329 18.4177 22.1158C19.1214 22.0313 19.785 21.8179 20.4088 21.4758C21.0926 21.0053 21.7563 20.5075 22.3999 19.9824C22.5926 20.0803 22.7348 20.2225 22.8265 20.4091Z"
            fill="#FCFCFC" />
        <path fill-rule="evenodd" clip-rule="evenodd"
            d="M10.3111 24.1064C11.2258 24.8958 12.2687 25.4647 13.44 25.813C15.5878 26.463 17.7685 26.5577 19.9822 26.0975C20.1099 26.191 20.2521 26.2858 20.4089 26.3819C20.3377 26.4293 20.2666 26.4768 20.1955 26.5241C19.894 26.3877 19.5858 26.364 19.2711 26.453C19.6801 26.5153 20.0594 26.6575 20.4089 26.8797C20.0364 26.9012 19.7044 27.0198 19.4133 27.2352C18.619 27.1939 17.813 27.1939 16.9955 27.2352C16.9955 27.6145 16.9955 27.9937 16.9955 28.373C16.6162 28.373 16.2371 28.373 15.8577 28.373C15.8577 28.7523 15.8577 29.1315 15.8577 29.5108C15.4784 29.5108 15.0993 29.5108 14.72 29.5108C14.72 29.8901 14.72 30.2693 14.72 30.6486C14.3407 30.6486 13.9615 30.6486 13.5822 30.6486C13.5822 31.0279 13.5822 31.407 13.5822 31.7864C13.1718 31.7428 12.7926 31.7902 12.4444 31.9286C10.5481 31.9286 8.65182 31.9286 6.75553 31.9286C5.38149 31.7389 4.10149 31.2648 2.91553 30.5064C3.0882 29.6645 3.60969 29.3327 4.47997 29.5108C4.47997 29.1315 4.47997 28.7523 4.47997 28.373C4.85924 28.373 5.23849 28.373 5.61775 28.373C5.61775 27.9937 5.61775 27.6145 5.61775 27.2352C5.99701 27.2352 6.37626 27.2352 6.75553 27.2352C6.75553 26.8559 6.75553 26.4768 6.75553 26.0975C7.13479 26.0975 7.51404 26.0975 7.89331 26.0975C7.89331 25.7182 7.89331 25.339 7.89331 24.9597C8.27257 24.9597 8.65182 24.9597 9.03108 24.9597C8.99994 24.7926 9.04734 24.6504 9.17331 24.533C9.94515 25.0837 10.04 24.9651 9.45775 24.1775C9.03212 24.1167 8.96101 23.9508 9.24442 23.6797C9.45775 23.7982 9.62368 23.9641 9.74219 24.1775C9.94536 24.2598 10.135 24.2361 10.3111 24.1064Z"
            fill="#4244F5" />
    </g>
    <defs>
        <clipPath id="clip0_3239_68">
            <rect width="32" height="32" fill="white" />
        </clipPath>
    </defs>
</svg>