<svg width="32" height="32" viewBox="0 0 33 33" fill="none" xmlns="http://www.w3.org/2000/svg">
    <path opacity="0.84" fill-rule="evenodd" clip-rule="evenodd"
        d="M11.7165 0.5C14.1357 0.5 16.555 0.5 18.9742 0.5C19.3264 0.832258 19.7663 0.950777 20.2938 0.855556C19.2182 3.50636 19.768 5.69897 21.9433 7.43333C19.2199 9.90956 19.4948 11.8651 22.768 13.3C23.7366 12.9825 24.6713 12.6269 25.5722 12.2333C25.973 15.2638 27.6224 16.5674 30.5206 16.1444C30.335 22.4145 27.8058 27.2145 22.933 30.5444C21.474 31.2148 20.0444 31.8666 18.6443 32.5C16.445 32.5 14.2457 32.5 12.0464 32.5C6.24974 30.6377 2.40093 26.6081 0.5 20.4111C0.5 17.8037 0.5 15.1963 0.5 12.5889C2.36942 6.54444 6.10825 2.51482 11.7165 0.5ZM13.0361 3.34444C14.3557 3.34444 15.6753 3.34444 16.9948 3.34444C17.0531 4.83714 17.383 6.25936 17.9845 7.61111C16.6192 13.1377 18.5985 16.0414 23.9227 16.3222C24.839 17.645 26.0486 18.4154 27.5515 18.6333C25.7094 26.6006 20.9809 30.2154 13.366 29.4778C6.91224 27.9162 3.5033 23.5903 3.13918 16.5C3.56421 9.52997 6.86318 5.1448 13.0361 3.34444Z"
        fill="black" />
    <path opacity="0.778" fill-rule="evenodd" clip-rule="evenodd"
        d="M27.2218 5.12285C29.3066 5.0587 30.1313 6.12537 29.696 8.32285C28.3227 9.83307 27.1131 9.71453 26.0671 7.96729C25.8294 6.70375 26.2142 5.75559 27.2218 5.12285Z"
        fill="black" />
    <path opacity="0.829" fill-rule="evenodd" clip-rule="evenodd"
        d="M12.0471 7.25546C14.0575 6.91452 15.2671 7.80341 15.6759 9.92213C14.5577 12.6969 12.9632 13.1117 10.8924 11.1666C10.3719 9.58886 10.7568 8.28515 12.0471 7.25546Z"
        fill="black" />
    <path opacity="0.551" fill-rule="evenodd" clip-rule="evenodd"
        d="M30.8504 10.1005C31.6614 10.0036 32.2112 10.3592 32.4999 11.1672C31.7433 12.5991 31.0835 12.5398 30.5205 10.9894C30.6007 10.6687 30.7107 10.3724 30.8504 10.1005Z"
        fill="black" />
    <path opacity="0.792" fill-rule="evenodd" clip-rule="evenodd"
        d="M7.09872 16.1444C8.35791 15.9046 9.29264 16.3787 9.90285 17.5666C10.2053 19.283 9.54554 20.2312 7.92347 20.411C6.26633 20.0405 5.71649 18.9738 6.27398 17.211C6.61872 16.9005 6.89363 16.5449 7.09872 16.1444Z"
        fill="black" />
    <path opacity="0.57" fill-rule="evenodd" clip-rule="evenodd"
        d="M14.0259 16.1445C15.296 16.2159 15.6259 16.8678 15.0156 18.1001C13.7082 18.1419 13.3783 17.4901 14.0259 16.1445Z"
        fill="black" />
    <path opacity="0.776" fill-rule="evenodd" clip-rule="evenodd"
        d="M17.3253 18.9883C19.4883 19.477 20.0931 20.7807 19.1397 22.8994C17.3397 24.0473 16.1851 23.514 15.6758 21.2994C15.9207 20.2664 16.4705 19.496 17.3253 18.9883Z"
        fill="black" />
    <path opacity="0.621" fill-rule="evenodd" clip-rule="evenodd"
        d="M10.0664 23.9668C11.386 23.7298 11.9358 24.3224 11.7159 25.7446C11.1661 25.7446 10.6162 25.7446 10.0664 25.7446C10.0664 25.152 10.0664 24.5594 10.0664 23.9668Z"
        fill="black" />
</svg>