<svg width="32" height="32" viewBox="0 0 32 32" fill="none" xmlns="http://www.w3.org/2000/svg">
    <path fill-rule="evenodd" clip-rule="evenodd"
        d="M11.2 0C11.6 0 12 0 12.4 0C12.3124 0.470018 12.4457 0.870016 12.8 1.2C13.6297 0.268907 14.0297 0.535574 14 2C15.0819 1.95208 15.3486 2.35208 14.8 3.2C15.7936 3.75774 15.7936 4.35772 14.8 5C15.4614 5.9644 15.1947 6.43108 14 6.4C14.0479 7.48192 13.6479 7.7486 12.8 7.2C12.1333 8.26668 11.4667 8.26668 10.8 7.2C9.95208 7.7486 9.55208 7.48192 9.6 6.4C9.2 6.4 8.8 6.4 8.4 6.4C8.10072 5.03372 8.10072 3.70038 8.4 2.4C8.73 2.04573 9.13 1.9124 9.6 2C9.6 1.6 9.6 1.2 9.6 0.8C10.3933 0.937264 10.9266 0.670596 11.2 0Z"
        fill="#9F9F9F" />
    <path fill-rule="evenodd" clip-rule="evenodd"
        d="M17.2 0.799805C24.0138 1.41537 27.1471 5.14868 26.6 11.9998C28.0945 12.8933 29.2278 14.0933 30 15.5998C28.5333 15.5998 27.0667 15.5998 25.6 15.5998C25.2169 12.801 23.7502 11.8676 21.2 12.7998C20.4 12.7998 20 13.1998 20 13.9998C19.6262 14.4268 19.4929 14.9602 19.6 15.5998C18.5333 15.5998 17.4667 15.5998 16.4 15.5998C16.4 14.6665 16.4 13.7331 16.4 12.7998C17.2619 12.851 18.0619 12.651 18.8 12.1998C20.8508 9.23768 20.0508 7.571 16.4 7.1998C16.1549 4.89144 16.4216 2.75812 17.2 0.799805Z"
        fill="#1E89F3" />
    <path fill-rule="evenodd" clip-rule="evenodd"
        d="M10.8 2.7999C13.2219 2.57674 13.7552 3.4434 12.4 5.3999C10.5166 5.4327 9.98328 4.56606 10.8 2.7999Z"
        fill="#F9F9F9" />
    <path fill-rule="evenodd" clip-rule="evenodd"
        d="M17.2 0.799723C16.4216 2.75804 16.1549 4.89136 16.4 7.19972C16.0044 5.0096 15.8711 2.74292 16 0.399723C16.5164 0.304801 16.9164 0.438134 17.2 0.799723Z"
        fill="#1A88F3" />
    <path fill-rule="evenodd" clip-rule="evenodd"
        d="M5.2 5.2002C8.11616 6.21856 8.24952 7.41856 5.6 8.8002C4.4694 8.74224 3.93608 8.14224 4 7.0002C4.02288 6.11664 4.42288 5.51664 5.2 5.2002Z"
        fill="#A4A4A4" />
    <path fill-rule="evenodd" clip-rule="evenodd"
        d="M4.8 6.40039C5.33332 6.40039 5.86668 6.40039 6.4 6.40039C6.4 6.93371 6.4 7.46707 6.4 8.00039C5.2 8.13371 4.66668 7.60039 4.8 6.40039Z"
        fill="#F8F8F8" />
    <path fill-rule="evenodd" clip-rule="evenodd"
        d="M8 8.39979C9.45512 8.09443 10.0551 8.62775 9.8 9.99979C7.9662 10.7648 7.3662 10.2315 8 8.39979Z"
        fill="#AEAEAE" />
    <path fill-rule="evenodd" clip-rule="evenodd"
        d="M16 8.39997C18.7138 8.05032 19.5138 9.05033 18.4 11.4C15.616 11.8864 14.816 10.8864 16 8.39997Z"
        fill="#A5A5A5" />
    <path fill-rule="evenodd" clip-rule="evenodd"
        d="M16.4 9.2002C16.9333 9.2002 17.4667 9.2002 18 9.2002C18 9.73352 18 10.2669 18 10.8002C17.4667 10.8002 16.9333 10.8002 16.4 10.8002C16.4 10.2669 16.4 9.73352 16.4 9.2002Z"
        fill="#F5F5F5" />
    <path fill-rule="evenodd" clip-rule="evenodd"
        d="M12 9.59961C14.3442 10.1214 15.4108 11.5214 15.2 13.7996C14.8208 13.9927 14.4208 14.0594 14 13.9996C14.0585 14.9766 13.7252 15.2432 13 14.7996C12.4736 15.8108 12.007 15.8108 11.6 14.7996C10.9144 15.243 10.6477 14.9763 10.8 13.9996C9.82328 14.1519 9.5566 13.8852 10 13.1996C8.9888 12.6732 8.9888 12.2066 10 11.7996C9.81704 11.634 9.68372 11.434 9.6 11.1996C10.4309 10.6457 11.2309 10.1124 12 9.59961Z"
        fill="#9F9F9F" />
    <path fill-rule="evenodd" clip-rule="evenodd"
        d="M5.2 10C7.88348 10.549 8.68348 12.0156 7.6 14.4C6.4942 15.6955 5.2942 15.8288 4 14.8C3.46668 14.1333 2.93333 13.4667 2.4 12.8C3.0934 11.5732 4.02672 10.6398 5.2 10Z"
        fill="#A1A1A1" />
    <path fill-rule="evenodd" clip-rule="evenodd"
        d="M11.6 11.5996C12.1333 11.5996 12.6667 11.5996 13.2 11.5996C13.396 12.579 13.0626 13.2456 12.2 13.5996C11.1558 13.1996 10.9558 12.533 11.6 11.5996Z"
        fill="#F6F6F6" />
    <path fill-rule="evenodd" clip-rule="evenodd"
        d="M5.2 11.5996C7.04624 12.1922 7.17956 12.9922 5.6 13.9996C4.21 13.3659 4.07668 12.5659 5.2 11.5996Z"
        fill="#F2F2F2" />
    <path fill-rule="evenodd" clip-rule="evenodd"
        d="M21.2 12.8C23.8667 12.5334 25.0667 13.7334 24.8 16.4C26.3486 16.274 27.8152 16.4074 29.2 16.8C28.0784 17.2404 27.8118 17.9738 28.4 19C27.6377 19.7148 27.5044 20.5148 28 21.4C27.78 22.9658 27.4466 24.4992 27 26C25.4239 26.66 23.7572 26.9934 22 27C21.3752 28.6144 20.8419 30.281 20.4 32C19.4667 32 18.5333 32 17.6 32C17.3164 31.6384 16.9164 31.5051 16.4 31.6C16.4 29.3334 16.4 27.0667 16.4 24.8C14.9986 24.9485 13.7986 24.5485 12.8 23.6C12.5333 20.9334 13.7333 19.7334 16.4 20C16.4 18.8 16.4 17.6 16.4 16.4C17.6 16.4 18.8 16.4 20 16.4C20 15.6 20 14.8 20 14C20.5333 13.7334 20.9333 13.3334 21.2 12.8Z"
        fill="#1A88F3" />
    <path fill-rule="evenodd" clip-rule="evenodd"
        d="M21.2 12.7998C20.9333 13.3331 20.5333 13.7331 20 13.9998C20 13.1998 20.4 12.7998 21.2 12.7998Z"
        fill="#C1DEFC" />
    <path fill-rule="evenodd" clip-rule="evenodd"
        d="M7.19999 18.4C6.81955 17.8325 6.68619 17.1659 6.79999 16.4C5.59999 16.4 4.39999 16.4 3.19999 16.4C3.19999 16.9333 3.19999 17.4667 3.19999 18C2.81953 17.4325 2.6862 16.7659 2.79999 16C4.26667 16 5.73331 16 7.19999 16C7.19999 16.8 7.19999 17.6 7.19999 18.4Z"
        fill="#1A88F3" />
    <path fill-rule="evenodd" clip-rule="evenodd"
        d="M21.2 12.8005C23.7502 11.8683 25.2169 12.8017 25.6 15.6005C27.0667 15.6005 28.5333 15.6005 30 15.6005C29.8272 16.0843 29.5605 16.4843 29.2 16.8005C27.8152 16.4079 26.3486 16.2745 24.8 16.4005C25.0667 13.7339 23.8667 12.5339 21.2 12.8005Z"
        fill="#9FCCFA" />
    <path fill-rule="evenodd" clip-rule="evenodd"
        d="M7.2 18.4004C7.36324 18.8576 7.62992 19.2576 8 19.6004C9.85172 20.4078 11.3184 20.0078 12.4 18.4004C12.7804 17.8329 12.9138 17.1663 12.8 16.4004C13.8667 16.4004 14.9333 16.4004 16 16.4004C16 17.4671 16 18.5337 16 19.6004C12.9388 19.4542 11.8721 20.7875 12.8 23.6004C13.266 24.8365 14.1993 25.3698 15.6 25.2004C15.8433 27.3781 15.5767 29.3781 14.8 31.2004C13.0524 31.1873 11.3191 31.3206 9.6 31.6004C10.2831 29.652 10.4831 27.652 10.2 25.6004C8.1418 24.5552 6.27512 23.2219 4.6 21.6004C3.83032 20.5247 3.36364 19.3247 3.2 18.0004C3.2 17.4671 3.2 16.9337 3.2 16.4004C4.4 16.4004 5.6 16.4004 6.8 16.4004C6.6862 17.1663 6.81956 17.8329 7.2 18.4004Z"
        fill="#238AF3" />
    <path fill-rule="evenodd" clip-rule="evenodd"
        d="M16.4 12.7998C16.4 13.7331 16.4 14.6665 16.4 15.5998C17.4667 15.5998 18.5333 15.5998 19.6 15.5998C19.4929 14.9602 19.6262 14.4268 20 13.9998C20 14.7998 20 15.5998 20 16.3998C18.8 16.3998 17.6 16.3998 16.4 16.3998C16.4 17.5998 16.4 18.7998 16.4 19.9998C13.7333 19.7331 12.5333 20.9331 12.8 23.5998C11.8721 20.7869 12.9388 19.4536 16 19.5998C16 18.5331 16 17.4665 16 16.3998C14.9333 16.3998 13.8667 16.3998 12.8 16.3998C12.9138 17.1657 12.7804 17.8323 12.4 18.3998C12.4 17.5998 12.4 16.7998 12.4 15.9998C13.4749 16.0654 14.5416 15.9988 15.6 15.7998C15.8493 14.7569 16.116 13.7569 16.4 12.7998Z"
        fill="#B5D7FB" />
    <path fill-rule="evenodd" clip-rule="evenodd"
        d="M9.6 15.5996C12.1579 16.807 12.2245 18.1403 9.8 19.5996C7.48492 18.3362 7.41824 17.0028 9.6 15.5996Z"
        fill="#A9A9A9" />
    <path fill-rule="evenodd" clip-rule="evenodd"
        d="M9.2 16.7998C9.6 16.7998 10 16.7998 10.4 16.7998C10.4 17.1998 10.4 17.5998 10.4 17.9998C10 17.9998 9.6 17.9998 9.2 17.9998C9.2 17.5998 9.2 17.1998 9.2 16.7998Z"
        fill="#F9F9F9" />
    <path fill-rule="evenodd" clip-rule="evenodd"
        d="M15.6 25.2002C15.9952 27.2564 16.1286 29.3897 16 31.6002C15.4836 31.6951 15.0836 31.5618 14.8 31.2002C15.5767 29.3779 15.8433 27.3779 15.6 25.2002Z"
        fill="#1A88F3" />
    <path fill-rule="evenodd" clip-rule="evenodd"
        d="M12.8 23.5996C13.7986 24.548 14.9986 24.948 16.4 24.7996C16.4 27.0663 16.4 29.3329 16.4 31.5996C16.2667 31.5996 16.1333 31.5996 16 31.5996C16.1286 29.3891 15.9952 27.2558 15.6 25.1996C14.1993 25.369 13.266 24.8357 12.8 23.5996Z"
        fill="#C2DFFB" />
</svg>