<svg width="32" height="32" viewBox="0 0 33 33" fill="none" xmlns="http://www.w3.org/2000/svg">
    <path
        d="M14.3597 1.01978C15.8932 1.1507 18.3415 1.63228 20.9379 2.21984V9.3065C19.2407 9.05714 17.8118 8.87012 17.1042 8.81714C14.4433 8.61915 8.60213 10.5315 8.82524 16.9869C9.04826 23.4423 15.1804 24.7453 16.1005 24.7453C16.4229 24.7453 18.4408 24.5239 20.9466 24.2325V31.4236C19.5404 31.7883 18.1586 32.1685 16.8777 32.5457C10.6741 34.3988 0.696053 30.6271 0.119258 17.1459C-0.457538 3.66461 9.70697 0.623918 14.3597 1.01978Z"
        fill="#4FAEDE" />
    <path
        d="M32.0957 5.05001V11.0644C32.0957 11.0644 27.6503 10.3272 23.5204 9.69444V2.8291C27.9674 3.89981 32.0957 5.05001 32.0957 5.05001Z"
        fill="#4FAEDE" />
    <path
        d="M23.5204 23.9302C27.7113 23.4331 32.0957 22.897 32.0957 22.897V28.8459C32.0957 28.8459 28.0528 29.6719 23.5204 30.78V23.9302Z"
        fill="#4FAEDE" />
</svg>