<svg width="32" height="32" viewBox="0 0 32 32" fill="none" xmlns="http://www.w3.org/2000/svg">
    <g clip-path="url(#clip0_2734_3984)">
        <path fill-rule="evenodd" clip-rule="evenodd"
            d="M-0.0712891 -0.0712891C4.76427 -0.0712891 9.59982 -0.0712891 14.4354 -0.0712891C7.59612 0.915424 2.9739 4.67733 0.568711 11.2144C0.250622 12.3583 0.0372892 13.5012 -0.0712891 14.643C-0.0712891 9.73824 -0.0712891 4.83347 -0.0712891 -0.0712891Z"
            fill="#FEFDFE" />
        <path fill-rule="evenodd" clip-rule="evenodd"
            d="M14.4354 -0.0712891C15.4783 -0.0712891 16.5214 -0.0712891 17.5643 -0.0712891C24.6747 1.09386 29.2969 5.14148 31.4309 12.0716C32.6476 18.408 30.9172 23.7651 26.2398 28.143C23.6781 30.192 20.7863 31.454 17.5643 31.9287C16.5214 31.9287 15.4783 31.9287 14.4354 31.9287C8.21582 31.0874 3.78322 27.8017 1.1376 22.0716C0.596369 20.4684 0.193406 18.8494 -0.0712891 17.2144C-0.0712891 16.3573 -0.0712891 15.5001 -0.0712891 14.643C0.0372892 13.5012 0.250622 12.3583 0.568711 11.2144C2.9739 4.67733 7.59612 0.915424 14.4354 -0.0712891Z"
            fill="#7E61F5" />
        <path fill-rule="evenodd" clip-rule="evenodd"
            d="M19.6978 14.4999C19.6035 14.8057 19.556 15.1392 19.5556 15.4999C19.5597 15.8954 19.6544 16.2289 19.84 16.4999C21.3394 16.9426 22.0741 17.9426 22.0445 19.4999C21.3371 21.1447 20.2231 21.5019 18.7023 20.5713C18.16 19.7226 17.9229 18.794 17.9912 17.7856C14.7001 18.2344 12.7564 20.0916 12.16 23.357C12.7476 26.8672 14.7387 28.0814 18.1334 26.9999C19.9218 26.3464 21.2729 25.1797 22.1867 23.4999C22.535 21.636 22.9143 19.7789 23.3245 17.9284C24.1406 16.538 25.065 15.2286 26.0978 13.9999C26.0135 13.7311 25.8238 13.5882 25.5289 13.5713C24.7442 13.3875 24.033 13.5303 23.3956 13.9999C22.8876 14.5449 22.4136 15.1163 21.9734 15.7142C21.1198 15.856 20.8117 15.4989 21.0489 14.6427C22.0455 12.7739 23.5862 11.8929 25.6712 11.9999C27.2446 12.2949 27.8372 13.2235 27.4489 14.7856C26.3363 15.9506 25.3881 17.2363 24.6045 18.6427C24.3626 20.529 23.9834 22.3862 23.4667 24.2142C21.3681 27.8036 18.2629 29.2559 14.1512 28.5713C13.1135 28.1334 12.2839 27.443 11.6623 26.4999C9.3765 22.1446 6.91132 17.9064 4.26672 13.7856C4.0935 12.0548 4.87573 11.2691 6.61338 11.4284C6.89783 11.6189 7.18227 11.8094 7.46672 11.9999C7.62625 12.3033 7.83958 12.5652 8.10672 12.7856C8.20154 12.5951 8.20154 12.4046 8.10672 12.2142C7.63293 11.0738 7.22996 9.90715 6.89783 8.71415C7.20789 7.15337 8.10862 6.67717 9.60005 7.28558C9.86078 7.54748 10.1215 7.80939 10.3823 8.07129C10.9132 9.08997 11.4821 10.09 12.0889 11.0713C11.8066 9.36589 11.5221 7.65161 11.2356 5.92844C10.9265 4.86218 11.2346 4.02885 12.16 3.42844C13.3106 3.16099 14.1402 3.56575 14.6489 4.64272C15.1056 6.06601 15.5323 7.49458 15.9289 8.92844C16.0144 7.71671 16.204 6.52624 16.4978 5.35701C17.4607 4.33402 18.5036 4.23878 19.6267 5.07129C19.7216 5.26177 19.8163 5.45225 19.9112 5.64272C19.9349 6.28558 19.9585 6.92844 19.9823 7.57129C19.8691 9.88044 19.7742 12.19 19.6978 14.4999Z"
            fill="#FAF9FE" />
        <path fill-rule="evenodd" clip-rule="evenodd"
            d="M12.729 4.78613C13.0494 4.8455 13.2627 5.03599 13.369 5.35756C14.0477 8.1277 14.8773 10.842 15.8579 13.5004C16.2941 13.7221 16.6496 13.6269 16.9246 13.2147C17.2319 11.0308 17.469 8.84029 17.6357 6.64328C17.7145 6.08218 17.9989 5.8917 18.489 6.07185C18.4691 9.50192 18.3506 12.9305 18.1334 16.3576C14.5221 16.6521 12.1044 18.5093 10.8801 21.929C9.31791 19.1718 7.68235 16.4576 5.97344 13.7861C5.81301 13.5225 5.7419 13.2368 5.76011 12.929C6.27883 12.9464 6.68179 13.1844 6.969 13.6433C8.08307 14.9528 9.19715 16.2623 10.3112 17.5718C11.4089 17.6071 11.7171 17.1071 11.2357 16.0718C10.1266 13.6103 9.20218 11.0865 8.46233 8.50042C8.65036 8.47613 8.81628 8.52376 8.96011 8.64328C10.2993 10.9053 11.6741 13.1434 13.0846 15.3576C13.4582 15.713 13.8611 15.7368 14.2934 15.429C14.4226 14.8403 14.3988 14.2451 14.2223 13.6433C13.7736 11.1037 13.2521 8.57989 12.6579 6.07185C12.5532 5.63013 12.5769 5.20156 12.729 4.78613Z"
            fill="#8063F5" />
        <path fill-rule="evenodd" clip-rule="evenodd"
            d="M19.6979 14.5C19.6589 15.1804 19.7063 15.8471 19.8401 16.5C19.6545 16.229 19.5598 15.8956 19.5557 15.5C19.5561 15.1393 19.6036 14.8059 19.6979 14.5Z"
            fill="#BCAEF9" />
        <path fill-rule="evenodd" clip-rule="evenodd"
            d="M17.5645 -0.0712891C22.3526 -0.0712891 27.1407 -0.0712891 31.9289 -0.0712891C31.9289 10.5954 31.9289 21.262 31.9289 31.9287C27.1407 31.9287 22.3526 31.9287 17.5645 31.9287C20.7865 31.454 23.6783 30.192 26.24 28.143C30.9174 23.7651 32.6478 18.408 31.4311 12.0716C29.2971 5.14148 24.6749 1.09386 17.5645 -0.0712891Z"
            fill="#FDFDFE" />
        <path fill-rule="evenodd" clip-rule="evenodd"
            d="M-0.0712891 17.2139C0.193406 18.8489 0.596369 20.4679 1.1376 22.071C3.78322 27.8012 8.21582 31.0869 14.4354 31.9282C9.59982 31.9282 4.76427 31.9282 -0.0712891 31.9282C-0.0712891 27.0234 -0.0712891 22.1186 -0.0712891 17.2139Z"
            fill="#FDFDFE" />
        <path fill-rule="evenodd" clip-rule="evenodd"
            d="M19.5555 18.0713C20.4988 18.272 20.7358 18.772 20.2667 19.5713C19.927 19.6949 19.7137 19.5759 19.6267 19.2141C19.556 18.8361 19.5322 18.4551 19.5555 18.0713Z"
            fill="#8165F5" />
    </g>
    <defs>
        <clipPath id="clip0_2734_3984">
            <rect width="32" height="32" fill="white" />
        </clipPath>
    </defs>
</svg>