<svg width="32" height="32" viewBox="0 0 32 32" fill="none" xmlns="http://www.w3.org/2000/svg">
    <g clip-path="url(#clip0_3790_1297)">
        <path fill-rule="evenodd" clip-rule="evenodd"
            d="M-0.0800781 -0.0800781C10.5866 -0.0800781 21.2532 -0.0800781 31.9199 -0.0800781C31.9199 10.5866 31.9199 21.2532 31.9199 31.9199C21.2532 31.9199 10.5866 31.9199 -0.0800781 31.9199C-0.0800781 21.2532 -0.0800781 10.5866 -0.0800781 -0.0800781Z"
            fill="#FEFEFE" />
        <path fill-rule="evenodd" clip-rule="evenodd"
            d="M26.1601 4.55977C19.3062 4.50665 12.4796 4.55998 5.68009 4.71977C5.52075 4.70604 5.38742 4.75938 5.28009 4.87977C5.20011 6.79903 5.17345 8.71903 5.20009 10.6398C5.04083 8.64153 4.9875 6.61486 5.04009 4.55977C12.1024 4.34857 19.1425 4.34857 26.1601 4.55977Z"
            fill="#FEF5EA" />
        <path fill-rule="evenodd" clip-rule="evenodd"
            d="M5.5201 5.04026C5.49353 5.94848 5.5202 6.85515 5.6001 7.76026C5.76191 7.89411 5.94857 7.94746 6.1601 7.92026C6.1601 8.18693 6.1601 8.45359 6.1601 8.72026C6.37164 8.74746 6.5583 8.69411 6.7201 8.56026C6.79938 8.24463 6.82604 7.92463 6.8001 7.60026C6.9601 7.60026 7.1201 7.60026 7.2801 7.60026C7.2801 6.74693 7.2801 5.89359 7.2801 5.04026C8.9343 5.01362 10.5876 5.04029 12.2401 5.12026C12.0576 5.23885 12.0576 5.37218 12.2401 5.52026C11.5186 5.70698 10.8253 5.97363 10.1601 6.32026C11.0062 6.49018 11.8595 6.59685 12.7201 6.64026C10.0115 7.47983 7.61154 8.8665 5.5201 10.8003C5.30678 8.88026 5.30678 6.96026 5.5201 5.04026Z"
            fill="#E42E3B" />
        <path fill-rule="evenodd" clip-rule="evenodd"
            d="M27.28 5.04004C27.4933 7.97143 27.6 10.9581 27.6 14C27.5467 16.9868 27.4933 19.9733 27.44 22.96C27.28 16.9877 27.2267 11.0143 27.28 5.04004Z"
            fill="#F9FFF4" />
        <path fill-rule="evenodd" clip-rule="evenodd"
            d="M16.88 6.48031C15.8914 6.43503 14.9314 6.56836 14 6.88031C14.7231 6.90836 15.4164 6.98836 16.08 7.12031C14.7924 7.08468 13.5124 7.16468 12.24 7.36031C12.151 7.42153 12.0977 7.50153 12.08 7.60031C11.1175 7.65594 10.2641 7.97594 9.51998 8.56031C8.75789 8.83254 8.11789 9.25921 7.59998 9.84031C6.90838 10.3192 6.26838 10.8525 5.67998 11.4403C5.63597 11.079 5.47597 11.0257 5.19998 11.2803C4.99584 11.1021 4.99584 10.9421 5.19998 10.8003C5.30666 11.0136 5.41331 11.0136 5.51998 10.8003C7.61142 8.86655 10.0114 7.47988 12.72 6.64031C13.6793 6.5343 14.6393 6.42764 15.6 6.32031C16.0568 6.32071 16.4835 6.37406 16.88 6.48031Z"
            fill="#FEFEFE" />
        <path fill-rule="evenodd" clip-rule="evenodd"
            d="M14.8 9.03967C13.5381 8.67478 12.2581 8.62145 10.96 8.87967C10.96 8.82634 10.96 8.773 10.96 8.71967C12.0208 8.55225 13.0875 8.52558 14.16 8.63967C14.4511 8.67174 14.6644 8.80506 14.8 9.03967Z"
            fill="#DF6C7A" />
        <path fill-rule="evenodd" clip-rule="evenodd"
            d="M9.52003 8.55957C9.53923 8.73336 9.6459 8.84002 9.84003 8.87957C10.2052 8.76383 10.5785 8.7105 10.96 8.71957C10.96 8.7729 10.96 8.82624 10.96 8.87957C10.9067 8.87957 10.8534 8.87957 10.8 8.87957C9.64233 9.17578 8.57566 9.65578 7.60003 10.3196C7.48181 10.3405 7.37513 10.3139 7.28003 10.2396C7.42091 10.1262 7.52758 9.99291 7.60003 9.83957C8.11793 9.25847 8.75793 8.83179 9.52003 8.55957Z"
            fill="#DA4147" />
        <path fill-rule="evenodd" clip-rule="evenodd"
            d="M14.8 9.04024C15.9769 9.47044 16.7768 10.2704 17.2 11.4402C17.2511 12.2184 17.1978 12.965 17.04 13.6802C17.07 12.7663 17.0167 11.8596 16.88 10.9602C16.4247 10.9109 16.1847 10.6442 16.16 10.1602C16.08 10.2402 16 10.3202 15.92 10.4002C16.0416 10.6308 16.1482 10.8708 16.24 11.1202C16.1426 11.7818 16.0359 12.4218 15.92 13.0402C16.1965 11.1028 15.3965 9.84951 13.52 9.28024C12.6149 9.20034 11.7083 9.17367 10.8 9.20024C10.8 9.09357 10.8 8.98692 10.8 8.88024C10.8534 8.88024 10.9067 8.88024 10.96 8.88024C12.2581 8.62202 13.5381 8.67535 14.8 9.04024Z"
            fill="#FEFEFE" />
        <path fill-rule="evenodd" clip-rule="evenodd"
            d="M19.28 8.39999C20.0058 8.85868 20.4858 9.49868 20.72 10.32C20.9333 11.4933 20.9333 12.6667 20.72 13.84C20.1229 15.2666 19.3496 16.6 18.4 17.84C18.2695 18.0517 18.0827 18.1582 17.84 18.16C17.1024 18.0992 16.6759 18.4192 16.56 19.12C16.288 19.1401 16.048 19.2469 15.84 19.44C15.7003 19.4024 15.567 19.3489 15.44 19.28C15.2831 18.5886 14.8564 18.2686 14.16 18.32C14.1427 17.9978 14.2493 17.7312 14.48 17.52C14.5867 17.3067 14.7467 17.1467 14.96 17.04C15.3087 16.9856 15.602 16.8256 15.84 16.56C16.0634 16.1498 16.2501 15.7231 16.4 15.28C16.7498 15.0683 16.9898 14.7483 17.12 14.32C17.1871 14.5075 17.2936 14.6675 17.44 14.8C17.4453 13.655 17.3653 12.535 17.2 11.44C16.7768 10.2702 15.9769 9.47018 14.8 9.03999C14.6645 8.80538 14.4512 8.67205 14.16 8.63999C13.0875 8.52589 12.0209 8.55257 10.96 8.71999C10.5785 8.71092 10.2052 8.76425 9.84002 8.87999C9.64589 8.84044 9.53922 8.73378 9.52002 8.55999C10.2642 7.97562 11.1175 7.65562 12.08 7.59999C13.6223 7.43061 15.169 7.40394 16.72 7.51999C16.7733 7.57332 16.8267 7.62666 16.88 7.67999C16.4514 7.9662 16.4779 8.15287 16.96 8.23999C17.2499 8.24105 17.4899 8.13439 17.68 7.91999C17.8287 8.1102 17.8819 8.32354 17.84 8.55999C18.1243 8.51418 18.3911 8.40753 18.64 8.23999C18.8559 8.2953 19.0693 8.34863 19.28 8.39999Z"
            fill="#E62D3A" />
        <path fill-rule="evenodd" clip-rule="evenodd"
            d="M10.7999 9.20038C11.7081 9.1738 12.6148 9.20047 13.5199 9.28038C15.3964 9.84964 16.1964 11.103 15.9199 13.0404C15.9307 13.2738 15.8773 13.4871 15.7599 13.6804C15.328 14.1174 15.0613 14.6507 14.9599 15.2804C14.8258 15.3351 14.7724 15.4417 14.7999 15.6004C14.4799 15.8137 14.2132 16.0804 13.9999 16.4004C13.7883 16.4276 13.6017 16.3743 13.4399 16.2404C13.1985 16.6274 12.8518 16.7874 12.3999 16.7204C12.3999 16.8804 12.3999 17.0404 12.3999 17.2004C11.7225 17.2154 11.3492 16.8954 11.2799 16.2404C11.8413 16.1911 12.108 15.8711 12.0799 15.2804C12.1332 15.2804 12.1866 15.2804 12.2399 15.2804C12.3932 15.2079 12.5266 15.1013 12.6399 14.9604C12.6932 15.0671 12.7466 15.1737 12.7999 15.2804C13.0747 14.3347 13.1814 13.3747 13.1199 12.4004C13.0587 12.3114 12.9787 12.2581 12.8799 12.2404C12.7624 12.0471 12.7091 11.8338 12.7199 11.6004C12.3306 11.6367 12.064 11.4767 11.9199 11.1204C11.8307 10.914 11.6707 10.7807 11.4399 10.7204C10.5816 10.6931 9.72828 10.6131 8.87988 10.4804C9.34622 9.95254 9.87955 9.57921 10.4799 9.36038C10.6385 9.38783 10.7452 9.33449 10.7999 9.20038Z"
            fill="#E72D39" />
        <path fill-rule="evenodd" clip-rule="evenodd"
            d="M10.8 8.87988C10.8 8.98655 10.8 9.09321 10.8 9.19988C10.7453 9.33399 10.6386 9.38734 10.48 9.35988C8.43947 9.90681 6.78613 11.0268 5.51995 12.7199C5.4748 12.5155 5.36813 12.3555 5.19995 12.2399C6.00083 11.5988 6.80083 10.9588 7.59995 10.3199C8.57558 9.65609 9.64226 9.17609 10.8 8.87988Z"
            fill="#FEFEFE" />
        <path fill-rule="evenodd" clip-rule="evenodd"
            d="M10.4799 9.36035C9.87961 9.57918 9.34628 9.95251 8.87994 10.4804C9.72834 10.6131 10.5817 10.6931 11.4399 10.7204C11.6707 10.7806 11.8307 10.914 11.9199 11.1204C11.6612 11.0343 11.3945 10.9809 11.1199 10.9604C8.72562 10.65 6.83229 11.5033 5.43994 13.5204C5.36154 13.3134 5.33487 13.1001 5.35994 12.8804C5.35994 12.7737 5.41327 12.7204 5.51994 12.7204C6.78612 11.0273 8.43946 9.90728 10.4799 9.36035Z"
            fill="#FEFEFE" />
        <path fill-rule="evenodd" clip-rule="evenodd"
            d="M26.1601 5.04024C26.3199 11.573 26.3732 18.133 26.3201 24.7202C26.3201 24.827 26.2668 24.8802 26.1601 24.8802C19.2529 24.9334 12.3729 24.8801 5.52011 24.7202C5.45636 24.243 5.40304 23.763 5.36011 23.2802C5.36908 22.9378 5.47574 22.6713 5.68011 22.4802C5.86936 22.6409 6.08268 22.7743 6.32011 22.8802C6.77846 22.9095 7.20513 22.9895 7.60011 23.1202C8.15756 23.2266 8.74424 23.2801 9.36011 23.2802C10.2029 23.3143 11.0029 23.2076 11.7601 22.9602C11.8668 22.9602 11.9734 22.9602 12.0801 22.9602C12.5196 23.0103 12.9463 22.957 13.3601 22.8002C14.0308 22.5078 14.6708 22.1878 15.2801 21.8402C16.1321 21.3607 16.9855 20.8807 17.8401 20.4002C18.5127 20.155 19.046 19.7282 19.4401 19.1202C20.4798 17.8913 21.4398 16.6113 22.3201 15.2802C22.7321 14.6721 22.9454 13.9787 22.9601 13.2002C23.1897 10.0165 21.803 7.88317 18.8001 6.80024C18.2945 6.4796 17.7078 6.29293 17.0401 6.24024C16.4558 6.16047 15.8692 6.1338 15.2801 6.16024C15.2801 6.00024 15.2801 5.84024 15.2801 5.68024C14.7762 5.63407 14.2962 5.71407 13.8401 5.92024C14.0001 5.97357 14.1601 6.02692 14.3201 6.08024C14.2668 6.13357 14.2134 6.18692 14.1601 6.24024C13.6325 6.27284 13.1525 6.40616 12.7201 6.64024C11.8595 6.59684 11.0062 6.49016 10.1601 6.32024C10.8253 5.97362 11.5187 5.70696 12.2401 5.52024C12.0576 5.37216 12.0576 5.23884 12.2401 5.12024C10.5876 5.04028 8.9343 5.0136 7.28011 5.04024C7.28011 5.89357 7.28011 6.74692 7.28011 7.60024C7.12011 7.60024 6.96011 7.60024 6.80011 7.60024C6.82604 7.92461 6.79939 8.24461 6.72011 8.56024C6.5583 8.6941 6.37164 8.74744 6.16011 8.72024C6.16011 8.45357 6.16011 8.18692 6.16011 7.92024C5.94857 7.94744 5.76192 7.8941 5.60011 7.76024C5.5202 6.85514 5.49353 5.94847 5.52011 5.04024C12.3981 4.82773 19.2782 4.82773 26.1601 5.04024Z"
            fill="#E62C3A" />
        <path fill-rule="evenodd" clip-rule="evenodd"
            d="M16.0801 7.11956C17.3044 7.19993 18.3711 7.6266 19.2801 8.39956C19.0694 8.3482 18.8559 8.29488 18.6401 8.23956C18.3911 8.4071 18.1244 8.51376 17.8401 8.55956C17.882 8.32312 17.8287 8.10977 17.6801 7.91956C17.49 8.13396 17.25 8.24062 16.9601 8.23956C16.478 8.15244 16.4514 7.96577 16.8801 7.67956C16.8268 7.62624 16.7734 7.57289 16.7201 7.51956C15.1691 7.40352 13.6224 7.43019 12.0801 7.59956C12.0978 7.50078 12.1511 7.42078 12.2401 7.35956C13.5125 7.16393 14.7925 7.08393 16.0801 7.11956Z"
            fill="#DE3843" />
        <path fill-rule="evenodd" clip-rule="evenodd"
            d="M18.8 6.79967C18.1673 6.65866 17.5273 6.552 16.88 6.47967C16.4835 6.37341 16.0568 6.32007 15.6 6.31967C14.6393 6.42699 13.6793 6.53365 12.72 6.63967C13.1524 6.40559 13.6324 6.27226 14.16 6.23967C14.2133 6.18634 14.2666 6.13299 14.32 6.07967C14.16 6.02634 14 5.97299 13.84 5.91967C14.2961 5.71349 14.7761 5.63349 15.28 5.67967C15.28 5.83967 15.28 5.99967 15.28 6.15967C15.869 6.13322 16.4557 6.15989 17.04 6.23967C17.7077 6.29235 18.2944 6.47903 18.8 6.79967Z"
            fill="#DA3C48" />
        <path fill-rule="evenodd" clip-rule="evenodd"
            d="M7.59995 9.83984C7.5275 9.99319 7.42083 10.1265 7.27995 10.2398C7.37506 10.3141 7.48173 10.3408 7.59995 10.3198C6.80083 10.9588 6.00083 11.5988 5.19995 12.2398C5.29195 11.934 5.45195 11.6674 5.67995 11.4398C6.26835 10.8521 6.90835 10.3187 7.59995 9.83984Z"
            fill="#CE5B70" />
        <path fill-rule="evenodd" clip-rule="evenodd"
            d="M20.72 10.3203C20.9662 10.8586 21.0729 11.4453 21.04 12.0803C21.0729 12.7153 20.9662 13.302 20.72 13.8403C20.9333 12.667 20.9333 11.4936 20.72 10.3203Z"
            fill="#FEFEFE" />
        <path fill-rule="evenodd" clip-rule="evenodd"
            d="M12.0799 12.7196C12.0738 13.4052 11.8338 13.9919 11.3599 14.4796C11.2809 14.7411 11.2543 15.0077 11.2799 15.2796C11.1199 15.3329 11.0132 15.4396 10.9599 15.5996C10.5928 15.7013 10.3261 15.9146 10.1599 16.2396C9.5614 16.5369 8.9214 16.7502 8.23989 16.8796C7.47632 16.8761 6.72967 16.7694 5.99989 16.5596C5.93959 16.2783 5.83293 16.0116 5.67989 15.7596C5.62701 14.9503 5.73368 14.1503 5.99989 13.3596C6.15989 13.3596 6.31989 13.3596 6.47989 13.3596C6.43797 13.5961 6.4913 13.8094 6.63989 13.9996C6.73365 13.9661 6.81365 13.9128 6.87989 13.8396C7.1362 13.2038 7.3762 12.5638 7.59989 11.9196C8.02247 12.0417 8.44914 12.0684 8.87989 11.9996C8.64981 11.9646 8.43648 11.8846 8.23989 11.7596C9.14189 11.5735 10.0485 11.5468 10.9599 11.6796C11.4594 11.9203 11.8327 12.2669 12.0799 12.7196Z"
            fill="#E72B38" />
        <path fill-rule="evenodd" clip-rule="evenodd"
            d="M11.12 10.9595C10.9613 10.9321 10.8547 10.9854 10.8 11.1195C9.37875 10.9923 8.09875 11.339 6.95998 12.1595C6.54115 12.4965 6.22115 12.8964 5.99998 13.3595C5.78666 13.5729 5.57331 13.7862 5.35998 13.9995C5.15898 13.609 5.15898 13.2356 5.35998 12.8795C5.33491 13.0993 5.36158 13.3126 5.43998 13.5195C6.83234 11.5025 8.72566 10.6492 11.12 10.9595Z"
            fill="#FEFEFE" />
        <path fill-rule="evenodd" clip-rule="evenodd"
            d="M10.8 11.1203C11.3536 11.3445 11.7802 11.7178 12.08 12.2403C12.08 12.4003 12.08 12.5603 12.08 12.7203C11.8328 12.2677 11.4595 11.921 10.96 11.6803C10.0487 11.5476 9.142 11.5742 8.24 11.7603C8.43659 11.8853 8.64992 11.9653 8.88 12.0003C8.44925 12.0691 8.02258 12.0424 7.6 11.9203C7.3763 12.5646 7.1363 13.2046 6.88 13.8403C6.81376 13.9135 6.73376 13.9669 6.64 14.0003C6.49141 13.8101 6.43808 13.5968 6.48 13.3603C6.32 13.3603 6.16 13.3603 6 13.3603C6.22117 12.8973 6.54117 12.4973 6.96 12.1603C8.09877 11.3398 9.37877 10.9931 10.8 11.1203Z"
            fill="#E03643" />
        <path fill-rule="evenodd" clip-rule="evenodd"
            d="M17.1999 11.4404C17.3652 12.5354 17.4452 13.6554 17.4399 14.8004C17.2935 14.668 17.1869 14.508 17.1199 14.3204C16.9897 14.7487 16.7497 15.0687 16.3999 15.2804C16.6132 14.7471 16.8266 14.2138 17.0399 13.6804C17.1977 12.9652 17.2509 12.2186 17.1999 11.4404Z"
            fill="#DE4B53" />
        <path fill-rule="evenodd" clip-rule="evenodd"
            d="M15.76 13.6797C15.6213 14.2924 15.3546 14.8257 14.96 15.2797C15.0614 14.6501 15.3281 14.1167 15.76 13.6797Z"
            fill="#DA595B" />
        <path fill-rule="evenodd" clip-rule="evenodd"
            d="M22.9601 13.2002C22.9453 13.9787 22.7321 14.672 22.3201 15.2802C22.4098 14.5321 22.6231 13.8388 22.9601 13.2002Z"
            fill="#FEFEFE" />
        <path fill-rule="evenodd" clip-rule="evenodd"
            d="M5.99991 13.3604C5.73371 14.151 5.62703 14.951 5.67991 15.7604C5.83295 16.0124 5.93961 16.2791 5.99991 16.5604C5.66231 16.4079 5.47564 16.1413 5.43991 15.7604C5.36023 15.2833 5.33358 14.8033 5.35991 14.3204C5.35991 14.2137 5.35991 14.107 5.35991 14.0004C5.57324 13.787 5.78659 13.5737 5.99991 13.3604Z"
            fill="#DC414C" />
        <path fill-rule="evenodd" clip-rule="evenodd"
            d="M12.88 12.2402C12.9788 12.2579 13.0588 12.3113 13.12 12.4002C13.1815 13.3746 13.0748 14.3346 12.8 15.2802C12.7467 15.1736 12.6933 15.0669 12.64 14.9602C12.5267 15.1011 12.3933 15.2078 12.24 15.2802C12.5557 14.7351 12.7957 14.1484 12.96 13.5202C13.0288 13.0895 13.0021 12.6628 12.88 12.2402Z"
            fill="#D8444D" />
        <path fill-rule="evenodd" clip-rule="evenodd"
            d="M11.12 10.9601C11.3946 10.9807 11.6613 11.034 11.92 11.1201C12.0641 11.4765 12.3308 11.6365 12.72 11.6001C12.7092 11.8335 12.7625 12.0469 12.88 12.2401C13.0021 12.6627 13.0288 13.0894 12.96 13.5201C12.7957 14.1483 12.5557 14.7349 12.24 15.2801C12.1867 15.2801 12.1333 15.2801 12.08 15.2801C10.5377 16.9856 8.61775 17.679 6.32001 17.3601C6.07519 17.2464 5.86186 17.0864 5.68001 16.8801C5.56657 16.7355 5.40657 16.6822 5.20001 16.7201C5.14873 15.889 5.20205 15.089 5.36001 14.3201C5.33367 14.8031 5.36033 15.2831 5.44001 15.7601C5.47573 16.1411 5.66241 16.4076 6.00001 16.5601C6.08924 16.7665 6.24924 16.8998 6.48001 16.9601C7.09721 17.0897 7.68388 17.063 8.24001 16.8801C8.92151 16.7507 9.56151 16.5374 10.16 16.2401C10.5198 16.1473 10.7865 15.934 10.96 15.6001C11.0133 15.4401 11.12 15.3335 11.28 15.2801C11.5672 14.8155 11.8605 14.3355 12.16 13.8401C12.2892 13.2759 12.2625 12.7425 12.08 12.2401C11.7802 11.7176 11.3536 11.3443 10.8 11.1201C10.8547 10.986 10.9613 10.9327 11.12 10.9601Z"
            fill="#FEFEFE" />
        <path fill-rule="evenodd" clip-rule="evenodd"
            d="M16.88 6.48029C17.5273 6.55263 18.1673 6.65928 18.8 6.80029C21.8028 7.88322 23.1896 10.0165 22.96 13.2003C22.623 13.8389 22.4097 14.5322 22.32 15.2803C21.4396 16.6113 20.4796 17.8913 19.44 19.1203C18.8596 19.4873 18.3262 19.9139 17.84 20.4003C16.9854 20.8808 16.132 21.3608 15.28 21.8403C14.1755 22.1548 13.1088 22.5281 12.08 22.9603C11.9733 22.9603 11.8666 22.9603 11.76 22.9603C10.3778 23.0947 8.99115 23.148 7.59995 23.1203C7.20498 22.9896 6.7783 22.9096 6.31995 22.8803C6.08253 22.7744 5.8692 22.6409 5.67995 22.4803C5.56651 22.3356 5.40651 22.2824 5.19995 22.3203C5.26666 22.2204 5.37333 22.1672 5.51995 22.1603C5.77664 22.2305 6.01664 22.3372 6.23995 22.4803C6.42734 22.3459 6.61402 22.2126 6.79995 22.0803C6.47285 22.0006 6.25952 21.8139 6.15995 21.5203C6.31995 21.5203 6.47995 21.5203 6.63995 21.5203C7.39986 21.9126 8.22651 22.0726 9.11995 22.0003C10.4448 21.9056 11.7514 21.6923 13.04 21.3603C13.4347 21.3195 13.7547 21.1595 14 20.8803C14.8961 20.4614 15.7494 19.9814 16.56 19.4403C16.9198 19.3475 17.1864 19.1342 17.36 18.8003C17.6366 18.6825 17.7966 18.4691 17.84 18.1603C18.0827 18.1585 18.2694 18.052 18.4 17.8403C19.3496 16.6003 20.1228 15.2669 20.72 13.8403C20.9662 13.302 21.0729 12.7153 21.04 12.0803C21.0729 11.4453 20.9662 10.8586 20.72 10.3203C20.4857 9.49898 20.0057 8.85898 19.28 8.40029C18.371 7.62733 17.3043 7.20066 16.08 7.12029C15.4164 6.98834 14.7231 6.90834 14 6.88029C14.9314 6.56834 15.8914 6.43501 16.88 6.48029Z"
            fill="#FAF6F4" />
        <path fill-rule="evenodd" clip-rule="evenodd"
            d="M16.4 15.2803C16.25 15.7234 16.0633 16.15 15.84 16.5603C15.6019 16.8259 15.3086 16.9859 14.96 17.0403C15.4034 16.4179 15.8834 15.8312 16.4 15.2803Z"
            fill="#FEFEFE" />
        <path fill-rule="evenodd" clip-rule="evenodd"
            d="M12.0801 15.2803C12.1082 15.871 11.8415 16.191 11.2801 16.2403C11.3494 16.8953 11.7227 17.2153 12.4001 17.2003C12.4001 17.0403 12.4001 16.8803 12.4001 16.7203C12.852 16.7873 13.1987 16.6273 13.4401 16.2403C13.6019 16.3742 13.7885 16.4275 14.0001 16.4003C14.0001 16.4536 14.0001 16.507 14.0001 16.5603C13.4491 16.871 12.9691 17.271 12.5601 17.7603C12.3532 17.8387 12.1398 17.8654 11.9201 17.8403C11.5122 17.5732 11.0855 17.3067 10.6401 17.0403C10.1753 17.0761 9.74858 17.2094 9.36007 17.4403C9.79367 17.7072 9.767 17.8404 9.28007 17.8403C8.3506 17.7249 7.41725 17.6449 6.48007 17.6003C6.39111 17.539 6.33778 17.459 6.32007 17.3603C8.61781 17.6792 10.5378 16.9857 12.0801 15.2803Z"
            fill="#DF3C47" />
        <path fill-rule="evenodd" clip-rule="evenodd"
            d="M5.68004 16.8799C5.86189 17.0861 6.07522 17.2461 6.32004 17.3599C6.33775 17.4586 6.39108 17.5386 6.48004 17.5999C7.41722 17.6445 8.35057 17.7245 9.28004 17.8399C9.76697 17.84 9.79364 17.7068 9.36004 17.4399C9.74855 17.209 10.1752 17.0757 10.64 17.0399C11.0855 17.3063 11.5121 17.5728 11.92 17.8399C11.2218 18.3743 10.4218 18.6943 9.52004 18.7999C8.36812 18.8514 7.24812 18.7447 6.16004 18.4799C5.8122 18.4399 5.54554 18.2799 5.36004 17.9999C5.27841 17.5378 5.38508 17.1645 5.68004 16.8799Z"
            fill="#E62E3B" />
        <path fill-rule="evenodd" clip-rule="evenodd"
            d="M13.3601 18.3203C12.7594 18.9408 12.0127 19.3141 11.1201 19.4403C11.8159 18.9858 12.5626 18.6125 13.3601 18.3203Z"
            fill="#DC525E" />
        <path fill-rule="evenodd" clip-rule="evenodd"
            d="M17.0399 13.6802C16.8267 14.2135 16.6132 14.7468 16.3999 15.2802C15.8834 15.8311 15.4034 16.4178 14.9599 17.0402C14.7466 17.1469 14.5866 17.3069 14.4799 17.5202C14.0207 17.6694 13.6474 17.9362 13.3599 18.3202C12.5624 18.6123 11.8158 18.9856 11.1199 19.4402C9.40995 19.852 7.70328 19.852 5.99993 19.4402C5.89326 19.3334 5.78661 19.2269 5.67993 19.1202C5.44837 18.8986 5.28837 18.9518 5.19993 19.2802C5.12216 18.8878 5.12216 18.4613 5.19993 18.0002C5.25326 18.0002 5.30661 18.0002 5.35993 18.0002C5.54544 18.2802 5.81209 18.4402 6.15993 18.4802C6.34886 18.7309 6.61552 18.8643 6.95993 18.8802C7.84256 19.0109 8.69589 18.9843 9.51993 18.8002C10.4217 18.6946 11.2217 18.3746 11.9199 17.8402C12.1397 17.8653 12.353 17.8386 12.5599 17.7602C12.969 17.2709 13.449 16.8709 13.9999 16.5602C14.3862 16.3344 14.6528 16.0144 14.7999 15.6002C14.7725 15.4415 14.8258 15.3348 14.9599 15.2802C15.3546 14.8262 15.6213 14.2929 15.7599 13.6802C15.8774 13.4869 15.9307 13.2735 15.9199 13.0402C16.0358 12.4217 16.1425 11.7817 16.2399 11.1202C16.1481 10.8707 16.0415 10.6307 15.9199 10.4002C15.9999 10.3202 16.0799 10.2402 16.1599 10.1602C16.1846 10.6441 16.4246 10.9108 16.8799 10.9602C17.0166 11.8595 17.0699 12.7662 17.0399 13.6802Z"
            fill="#FBF2F0" />
        <path fill-rule="evenodd" clip-rule="evenodd"
            d="M6.15991 18.4805C7.24799 18.7453 8.36799 18.852 9.51991 18.8005C8.69586 18.9846 7.84254 19.0112 6.95991 18.8805C6.6155 18.8646 6.34884 18.7312 6.15991 18.4805Z"
            fill="#D34A56" />
        <path fill-rule="evenodd" clip-rule="evenodd"
            d="M17.3601 18.7998C17.1865 19.1337 16.9199 19.347 16.5601 19.4398C16.7337 19.1059 17.0002 18.8926 17.3601 18.7998Z"
            fill="#FEFEFE" />
        <path fill-rule="evenodd" clip-rule="evenodd"
            d="M19.4401 19.1201C19.046 19.7281 18.5127 20.1548 17.8401 20.4001C18.3263 19.9137 18.8598 19.4872 19.4401 19.1201Z"
            fill="#FEFEFE" />
        <path fill-rule="evenodd" clip-rule="evenodd"
            d="M14.4801 17.5195C14.2494 17.7307 14.1427 17.9973 14.1601 18.3195C14.8565 18.2682 15.2832 18.5882 15.4401 19.2795C15.5671 19.3485 15.7004 19.4019 15.8401 19.4395C16.0481 19.2464 16.2881 19.1397 16.5601 19.1195C16.6759 18.4187 17.1025 18.0987 17.8401 18.1595C17.7967 18.4683 17.6367 18.6818 17.3601 18.7995C17.0003 18.8923 16.7337 19.1056 16.5601 19.4395C15.7495 19.9807 14.8962 20.4607 14.0001 20.8795C13.8934 20.8795 13.7868 20.8795 13.6801 20.8795C13.9896 20.6699 14.3096 20.4567 14.6401 20.2395C14.5081 20.0978 14.3481 20.0445 14.1601 20.0795C14.1601 19.9195 14.1601 19.7595 14.1601 19.5995C14.5334 19.7063 14.9068 19.8128 15.2801 19.9195C15.0812 18.8679 14.4412 18.3346 13.3601 18.3195C13.6475 17.9355 14.0209 17.6688 14.4801 17.5195Z"
            fill="#DF3944" />
        <path fill-rule="evenodd" clip-rule="evenodd"
            d="M13.3601 18.3203C14.4411 18.3354 15.0811 18.8686 15.2801 19.9203C14.9067 19.8136 14.5334 19.707 14.1601 19.6003C14.1601 19.7603 14.1601 19.9203 14.1601 20.0803C14.3481 20.0453 14.5081 20.0986 14.6401 20.2403C14.3096 20.4574 13.9896 20.6707 13.6801 20.8803C13.4278 20.9832 13.2145 21.1432 13.0401 21.3603C11.7516 21.6923 10.4449 21.9056 9.12007 22.0003C8.22663 22.0726 7.39997 21.9126 6.64007 21.5203C6.36013 21.2166 6.01346 21.0034 5.60007 20.8803C5.52039 20.4032 5.49373 19.9232 5.52007 19.4403C5.68007 19.4403 5.84007 19.4403 6.00007 19.4403C6.07252 19.5936 6.17919 19.727 6.32007 19.8403C7.60007 19.947 8.88007 19.947 10.1601 19.8403C10.5363 19.8019 10.8563 19.6686 11.1201 19.4403C12.0127 19.3141 12.7593 18.9408 13.3601 18.3203Z"
            fill="#E72F3B" />
        <path fill-rule="evenodd" clip-rule="evenodd"
            d="M6 19.4404C7.70334 19.8523 9.41002 19.8523 11.12 19.4404C10.8563 19.6687 10.5363 19.802 10.16 19.8404C8.88 19.9471 7.6 19.9471 6.32 19.8404C6.17912 19.7271 6.07245 19.5937 6 19.4404Z"
            fill="#D5525F" />
        <path fill-rule="evenodd" clip-rule="evenodd"
            d="M5.68009 19.1201C5.78677 19.2268 5.89342 19.3334 6.00009 19.4401C5.84009 19.4401 5.68009 19.4401 5.52009 19.4401C5.49376 19.923 5.52041 20.403 5.60009 20.8801C6.01349 21.0032 6.36016 21.2164 6.64009 21.5201C6.48009 21.5201 6.32009 21.5201 6.16009 21.5201C5.86689 21.4004 5.60024 21.2404 5.36009 21.0401C5.26579 20.3248 5.37245 19.6848 5.68009 19.1201Z"
            fill="#D94758" />
        <path fill-rule="evenodd" clip-rule="evenodd"
            d="M13.68 20.8799C13.7867 20.8799 13.8934 20.8799 14 20.8799C13.7548 21.1591 13.4348 21.3191 13.04 21.3599C13.2145 21.1428 13.4278 20.9828 13.68 20.8799Z"
            fill="#FEFEFE" />
        <path fill-rule="evenodd" clip-rule="evenodd"
            d="M15.2801 21.8398C14.6707 22.1874 14.0307 22.5074 13.3601 22.7998C12.9462 22.9566 12.5196 23.0099 12.0801 22.9598C13.109 22.5277 14.1756 22.1544 15.2801 21.8398Z"
            fill="#FEFEFE" />
        <path fill-rule="evenodd" clip-rule="evenodd"
            d="M11.7601 22.96C11.0028 23.2073 10.2028 23.314 9.3601 23.28C8.74423 23.2798 8.15755 23.2264 7.6001 23.12C8.9913 23.1476 10.378 23.0944 11.7601 22.96Z"
            fill="#FEFEFE" />
        <path fill-rule="evenodd" clip-rule="evenodd"
            d="M6.80005 25.04C13.04 25.04 19.28 25.04 25.52 25.04C22.4552 25.2533 19.3352 25.36 16.16 25.36C12.9848 25.36 9.86485 25.2533 6.80005 25.04Z"
            fill="#F1FEFC" />
    </g>
    <defs>
        <clipPath id="clip0_3790_1297">
            <rect width="32" height="32" fill="white" />
        </clipPath>
    </defs>
</svg>