<svg width="32" height="32" viewBox="0 0 33 32" fill="none" xmlns="http://www.w3.org/2000/svg">
    <path
        d="M29.081 6.0415L32.2346 1.64316L28.301 5.14523C25.3798 1.99171 21.1973 0 16.55 0C7.72015 0 0.550049 7.17013 0.550049 16C0.550049 24.8465 7.72015 32 16.55 32C25.3964 32 32.5499 24.8299 32.5499 16C32.5665 12.2324 31.2553 8.78008 29.081 6.0415ZM27.6868 21.2946C27.6868 24.5312 25.0645 27.137 21.8446 27.137H11.272C8.03553 27.137 5.4297 24.5146 5.4297 21.2946V10.722C5.4297 7.48545 8.05207 4.87967 11.272 4.87967H21.8446C23.6371 4.87967 25.2305 5.67635 26.2926 6.93777L16.5002 15.6846L9.84461 11.1701L14.6579 20.4316C14.691 20.4813 14.7243 20.5311 14.7741 20.5809C14.7906 20.6141 14.8072 20.6307 14.8239 20.6639C14.8737 20.7303 14.9068 20.7967 14.9732 20.8465C15.023 20.8963 15.0728 20.9295 15.1226 20.9793C15.7367 21.527 16.55 21.7095 17.3134 21.527H17.33C17.4628 21.4938 17.5956 21.444 17.7284 21.3776C17.745 21.361 17.7616 21.361 17.7948 21.3444C17.9109 21.2946 18.0105 21.2282 18.1267 21.1452C18.1599 21.1287 18.1931 21.0954 18.2263 21.0788C18.2761 21.0457 18.3425 21.0124 18.3923 20.9627C18.4255 20.9295 18.4587 20.8797 18.4919 20.8465C18.5084 20.8299 18.5251 20.8133 18.5417 20.7967L18.5915 20.7303C18.6578 20.6473 18.7242 20.5644 18.774 20.4813L27.2719 8.56429C27.5375 9.22822 27.6868 9.95848 27.6868 10.722V21.2946Z"
        fill="#0070E0" />
</svg>