<svg width="32" height="32" viewBox="0 0 33 33" fill="none" xmlns="http://www.w3.org/2000/svg">
    <path opacity="0.993" fill-rule="evenodd" clip-rule="evenodd"
        d="M22.4015 32.5C19.1489 32.5 15.8963 32.5 12.6438 32.5C12.6438 31.7898 12.6438 31.0797 12.6438 30.3695C11.9336 30.3695 11.2235 30.3695 10.5133 30.3695C10.5133 27.7277 10.5133 25.0859 10.5133 22.4441C7.88569 22.4441 5.25811 22.4441 2.63049 22.4441C2.63049 21.7339 2.63049 21.0238 2.63049 20.3136C1.92033 20.3136 1.21017 20.3136 0.5 20.3136C0.5 17.061 0.5 13.8085 0.5 10.5559C4.19088 10.4405 7.03865 8.84974 9.04328 5.78362C10.0242 4.16091 10.5143 2.39969 10.5133 0.5C13.7659 0.5 17.0184 0.5 20.271 0.5C20.271 1.21017 20.271 1.92033 20.271 2.63049C20.9811 2.63049 21.6913 2.63049 22.4015 2.63049C22.4015 5.2723 22.4015 7.91411 22.4015 10.5559C25.0575 10.5559 27.7135 10.5559 30.3695 10.5559C30.3695 11.2661 30.3695 11.9762 30.3695 12.6864C31.0797 12.6864 31.7898 12.6864 32.5 12.6864C32.5 15.939 32.5 19.1915 32.5 22.4441C28.6338 22.5759 25.7007 24.2803 23.7011 27.5573C22.8415 29.0923 22.4083 30.7399 22.4015 32.5Z"
        fill="black" />
    <path fill-rule="evenodd" clip-rule="evenodd"
        d="M11.5359 1.56543C14.0925 1.56543 16.6491 1.56543 19.2057 1.56543C19.2057 4.91742 19.2057 8.26937 19.2057 11.6214C22.5718 11.6214 25.938 11.6214 29.3042 11.6214C29.3042 14.1779 29.3042 16.7345 29.3042 19.2911C25.8147 19.6965 23.0664 21.3299 21.0592 24.1913C20.0283 25.7428 19.4246 27.4472 19.2483 29.3044C16.7059 29.3044 14.1635 29.3044 11.6211 29.3044C11.6211 25.9525 11.6211 22.6005 11.6211 19.2485C8.26912 19.2485 4.91718 19.2485 1.56519 19.2485C1.56519 16.6919 1.56519 14.1353 1.56519 11.5787C4.90345 11.1922 7.56657 9.65823 9.55453 6.97688C10.6924 5.35323 11.3529 3.54943 11.5359 1.56543Z"
        fill="#5A64F0" />
</svg>