<svg width="32" height="32" viewBox="0 0 33 33" fill="none" xmlns="http://www.w3.org/2000/svg">
    <path fill-rule="evenodd" clip-rule="evenodd"
        d="M22.7438 4.83996C22.7949 5.18574 22.6648 5.44878 22.3536 5.62904C20.6661 6.37176 18.975 7.02934 17.2804 7.60173C12.783 7.31108 9.27082 9.02073 6.7438 12.7307C4.75738 13.5755 2.80617 14.4961 0.890137 15.4925C0.890137 15.361 0.890137 15.2295 0.890137 15.098C1.15932 12.9726 1.87476 10.9999 3.03648 9.17989C8.46067 2.19699 15.0298 0.750336 22.7438 4.83996Z"
        fill="#13EF7E" />
    <path fill-rule="evenodd" clip-rule="evenodd"
        d="M29.7684 7.20715C28.5244 6.62829 27.2236 6.16802 25.8659 5.82627C25.3758 5.66179 25.1157 5.33302 25.0854 4.83992C26.1071 3.34435 27.2128 1.89769 28.4025 0.5C29.7684 1.61785 31.1342 2.73573 32.5001 3.85358C31.6329 5.01991 30.7224 6.13776 29.7684 7.20715Z"
        fill="#15C098" />
    <path fill-rule="evenodd" clip-rule="evenodd"
        d="M22.7439 4.83984C23.3534 4.93173 23.8737 5.19473 24.3049 5.62892C23.7846 6.418 23.2642 7.20707 22.7439 7.99615C22.3307 8.80709 21.6804 9.33316 20.7927 9.5743C19.7431 8.69468 18.5724 8.0371 17.2805 7.60161C18.9752 7.02922 20.6662 6.37164 22.3537 5.62892C22.6649 5.44866 22.795 5.18562 22.7439 4.83984Z"
        fill="#15D78B" />
    <path fill-rule="evenodd" clip-rule="evenodd"
        d="M25.0854 4.83984C25.1156 5.33294 25.3757 5.66171 25.8658 5.82619C27.2235 6.16794 28.5243 6.62821 29.7683 7.20707C29.1138 8.01185 28.4634 8.80093 27.8171 9.5743C26.3038 8.58287 24.6127 8.05683 22.7439 7.99615C23.2642 7.20707 23.7846 6.418 24.3049 5.62892C24.565 5.36588 24.8252 5.10288 25.0854 4.83984Z"
        fill="#11AFA0" />
    <path fill-rule="evenodd" clip-rule="evenodd"
        d="M22.7439 7.99609C24.6127 8.05677 26.3038 8.58281 27.8171 9.57425C27.3863 10.3193 26.866 10.9769 26.2561 11.5469C24.9359 10.8467 23.505 10.3206 21.9635 9.96879C21.5405 10.0418 21.1503 10.1733 20.7927 10.3633C20.7927 10.1003 20.7927 9.83729 20.7927 9.57425C21.6804 9.33311 22.3308 8.80703 22.7439 7.99609Z"
        fill="#13A3A7" />
    <path fill-rule="evenodd" clip-rule="evenodd"
        d="M26.2562 11.5469C25.8882 12.5763 25.2378 13.3654 24.305 13.9141C22.9425 12.967 21.3815 12.3095 19.6221 11.9414C20.0123 11.4154 20.4026 10.8893 20.7928 10.3633C21.1504 10.1732 21.5406 10.0417 21.9635 9.96875C23.505 10.3206 24.9359 10.8467 26.2562 11.5469Z"
        fill="#0B96AD" />
    <path fill-rule="evenodd" clip-rule="evenodd"
        d="M19.6219 11.9414C21.3813 12.3094 22.9423 12.967 24.3048 13.9141C23.9346 14.8125 23.4143 15.6016 22.7438 16.2813C22.7136 15.7882 22.4535 15.4595 21.9633 15.295C20.5918 14.6788 19.161 14.3501 17.6707 14.3086C18.3327 13.5098 18.983 12.7207 19.6219 11.9414Z"
        fill="#148BB4" />
    <path fill-rule="evenodd" clip-rule="evenodd"
        d="M6.74405 12.7305C6.19735 13.9944 5.80711 15.3095 5.57331 16.6759C4.19905 17.4359 2.76816 18.0935 1.28063 18.6485C0.898184 17.6281 0.768103 16.576 0.890387 15.4922C2.80642 14.4958 4.75763 13.5752 6.74405 12.7305Z"
        fill="#04D589" />
    <path fill-rule="evenodd" clip-rule="evenodd"
        d="M17.6707 14.3091C19.161 14.3505 20.5919 14.6793 21.9634 15.2954C22.4536 15.4599 22.7137 15.7887 22.7439 16.2818C22.2117 16.949 21.6914 17.6065 21.1829 18.2545C19.9214 16.9929 18.3604 16.3354 16.5 16.2818C16.7244 15.5277 17.1146 14.8701 17.6707 14.3091Z"
        fill="#0C7EBA" />
    <path fill-rule="evenodd" clip-rule="evenodd"
        d="M16.5 16.2818C18.3605 16.3353 19.9214 16.9929 21.183 18.2545C20.4094 19.5605 19.4989 20.7441 18.4512 21.8053C18.3121 21.2648 17.9869 20.8703 17.4756 20.6217C14.1916 19.5453 10.8745 18.6247 7.52441 17.8599C8.44519 16.5351 9.61593 15.483 11.0366 14.7036C12.3374 15.7557 13.5081 16.9393 14.5488 18.2545C15.0774 17.457 15.7278 16.7994 16.5 16.2818Z"
        fill="#126EC4" />
    <path fill-rule="evenodd" clip-rule="evenodd"
        d="M0.5 15.0981C0.630081 15.0981 0.760163 15.0981 0.890244 15.0981C0.890244 15.2296 0.890244 15.3612 0.890244 15.4927C0.767959 16.5764 0.898041 17.6285 1.28049 18.649C2.76802 18.0939 4.19891 17.4363 5.57317 16.6763C5.57317 17.3339 5.57317 17.9914 5.57317 18.649C4.10343 19.5233 2.54245 20.1809 0.890244 20.6217C0.982851 20.1123 0.85277 19.7178 0.5 19.4381C0.5 17.9914 0.5 16.5448 0.5 15.0981Z"
        fill="#21C798" />
    <path fill-rule="evenodd" clip-rule="evenodd"
        d="M7.52441 17.8599C10.8745 18.6246 14.1916 19.5452 17.4756 20.6216C17.9869 20.8702 18.3121 21.2648 18.4512 21.8052C18.0204 22.5503 17.5001 23.2079 16.8903 23.7779C16.7406 23.0707 16.2853 22.6762 15.5244 22.5943C14.2415 22.1386 12.9407 21.744 11.622 21.4107C11.3235 21.4383 11.1284 21.5698 11.0366 21.8052C9.58806 20.7357 8.41733 19.4206 7.52441 17.8599Z"
        fill="#1060CB" />
    <path fill-rule="evenodd" clip-rule="evenodd"
        d="M5.57306 18.6489C5.98922 19.5175 6.24936 20.438 6.35355 21.4107C4.87386 22.2449 3.31288 22.9024 1.67062 23.3834C1.41046 22.4628 1.1503 21.5422 0.890137 20.6216C2.54234 20.1808 4.10332 19.5233 5.57306 18.6489Z"
        fill="#12B1A0" />
    <path fill-rule="evenodd" clip-rule="evenodd"
        d="M6.35358 21.4106C6.96662 22.253 7.48697 23.1736 7.91456 24.1724C6.29828 24.6688 4.86738 25.4579 3.62187 26.5396C2.78168 25.6347 2.13127 24.5826 1.67065 23.3833C3.31291 22.9024 4.87389 22.2448 6.35358 21.4106Z"
        fill="#129CAB" />
    <path fill-rule="evenodd" clip-rule="evenodd"
        d="M16.8903 23.7779C16.425 24.7162 15.7746 25.5053 14.9391 26.1451C13.6296 24.6906 12.3288 23.2439 11.0366 21.8052C11.1284 21.5698 11.3235 21.4382 11.622 21.4106C12.9407 21.744 14.2415 22.1385 15.5244 22.5943C16.2853 22.6761 16.7406 23.0706 16.8903 23.7779Z"
        fill="#0D53D2" />
    <path fill-rule="evenodd" clip-rule="evenodd"
        d="M7.91475 24.1724C8.85438 25.1256 9.89501 25.9147 11.0367 26.5396C9.18293 27.03 7.49189 27.8191 5.96353 28.9068C5.05298 28.2492 4.27248 27.4602 3.62207 26.5396C4.86757 25.4578 6.29848 24.6688 7.91475 24.1724Z"
        fill="#0786B5" />
    <path fill-rule="evenodd" clip-rule="evenodd"
        d="M24.6951 25.7505C20.22 27.5528 15.9273 29.657 11.817 32.0631C10.6685 31.8737 9.62783 31.4791 8.69507 30.8795C11.0401 29.0825 13.6418 27.8989 16.4999 27.3287C19.0509 27.0257 21.2623 25.9736 23.1341 24.1724C23.7928 24.5753 24.3131 25.1013 24.6951 25.7505Z"
        fill="#0C5ACD" />
    <path fill-rule="evenodd" clip-rule="evenodd"
        d="M24.6952 25.7505C25.3704 25.9579 25.8908 26.3524 26.2562 26.9341C22.2921 28.7051 18.3897 30.5463 14.5488 32.4576C13.5501 32.5766 12.6395 32.4451 11.8171 32.0631C15.9275 29.657 20.2201 27.5528 24.6952 25.7505Z"
        fill="#064BD5" />
    <path fill-rule="evenodd" clip-rule="evenodd"
        d="M11.0365 26.5396C12.7796 27.2163 14.6007 27.4794 16.5 27.3286C13.6418 27.8989 11.0401 29.0825 8.69509 30.8795C7.56334 30.5073 6.65278 29.8498 5.96338 28.9068C7.49173 27.819 9.18277 27.03 11.0365 26.5396Z"
        fill="#1570C4" />
    <path fill-rule="evenodd" clip-rule="evenodd"
        d="M26.2561 26.9341C26.6561 27.0906 26.7212 27.3536 26.4513 27.7232C23.2321 31.1977 19.2646 32.7758 14.5488 32.4576C18.3896 30.5463 22.2921 28.7051 26.2561 26.9341Z"
        fill="#1443DC" />
</svg>