<svg width="32" height="32" viewBox="0 0 32 32" fill="none" xmlns="http://www.w3.org/2000/svg">
    <g clip-path="url(#clip0_3343_2495)">
        <path fill-rule="evenodd" clip-rule="evenodd"
            d="M8.10668 0.425781C13.2741 0.425781 18.4415 0.425781 23.6089 0.425781C28.3017 1.23114 31.0512 3.98077 31.8578 8.67467C31.8578 13.8421 31.8578 19.0095 31.8578 24.1769C31.0518 28.8702 28.3022 31.6198 23.6089 32.4258C18.4415 32.4258 13.2741 32.4258 8.10668 32.4258C3.41277 31.6192 0.663146 28.8697 -0.142212 24.1769C-0.142212 19.0095 -0.142212 13.8421 -0.142212 8.67467C0.665485 3.97956 3.41512 1.22994 8.10668 0.425781Z"
            fill="#302CFF" />
        <path fill-rule="evenodd" clip-rule="evenodd"
            d="M12.5867 8.88974C15.6685 8.86605 18.75 8.88974 21.8311 8.96086C22.6846 9.15081 23.2772 9.64859 23.6089 10.4542C23.7037 14.1046 23.7037 17.7549 23.6089 21.4053C23.2772 22.2108 22.6846 22.7086 21.8311 22.8986C17.7067 22.9935 13.5822 22.9935 9.45777 22.8986C8.68829 22.6507 8.14311 22.153 7.82221 21.4053C7.72739 17.9446 7.72739 14.4838 7.82221 11.0231C8.24888 10.4542 8.67555 10.4542 9.10221 11.0231C9.14962 14.2942 9.19703 17.5653 9.24444 20.8364C9.646 21.5326 10.1201 21.5801 10.6667 20.9786C10.7141 17.4704 10.7615 13.9623 10.8089 10.4542C11.1697 9.6414 11.7623 9.11992 12.5867 8.88974Z"
            fill="#F8F7FF" />
        <path fill-rule="evenodd" clip-rule="evenodd"
            d="M12.5866 10.4542C15.6211 10.4305 18.6551 10.4542 21.6889 10.5253C21.8191 10.5785 21.9378 10.6496 22.0444 10.7386C22.1393 14.1994 22.1393 17.6602 22.0444 21.1209C21.9378 21.2099 21.8191 21.281 21.6889 21.3342C18.5129 21.4053 15.3366 21.4291 12.16 21.4053C12.2745 17.854 12.3456 14.2985 12.3733 10.7386C12.4753 10.6612 12.5464 10.5664 12.5866 10.4542Z"
            fill="#312AFF" />
        <path fill-rule="evenodd" clip-rule="evenodd"
            d="M13.5822 11.4483C14.8157 11.4247 16.0484 11.4484 17.28 11.5194C17.3985 11.6379 17.5171 11.7565 17.6356 11.875C17.7304 12.9179 17.7304 13.9609 17.6356 15.0039C17.5171 15.1223 17.3985 15.241 17.28 15.3594C16.0474 15.4543 14.8149 15.4543 13.5822 15.3594C13.4637 15.241 13.3452 15.1223 13.2267 15.0039C13.1319 13.9609 13.1319 12.9179 13.2267 11.875C13.3753 11.7508 13.4938 11.6085 13.5822 11.4483Z"
            fill="#FDFDFF" />
        <path fill-rule="evenodd" clip-rule="evenodd"
            d="M19.1289 11.4482C19.6998 11.4247 20.2687 11.4484 20.8356 11.5194C21.2149 11.946 21.2149 12.3727 20.8356 12.7994C20.2193 12.8942 19.6029 12.8942 18.9867 12.7994C18.5977 12.3028 18.6451 11.8524 19.1289 11.4482Z"
            fill="#FCFCFF" />
        <path fill-rule="evenodd" clip-rule="evenodd"
            d="M19.1289 13.8661C19.7079 13.8283 20.2768 13.8757 20.8356 14.0083C21.4128 15.0055 21.1284 15.4795 19.9822 15.4306C18.6816 15.4361 18.3972 14.9146 19.1289 13.8661Z"
            fill="#F6F5FF" />
        <path fill-rule="evenodd" clip-rule="evenodd"
            d="M13.5822 16.4269C16.0004 16.4031 18.4182 16.4269 20.8356 16.498C21.4276 17.0426 21.3801 17.5167 20.6933 17.9202C18.3704 18.0151 16.0474 18.0151 13.7245 17.9202C13.0759 17.4712 13.0284 16.9734 13.5822 16.4269Z"
            fill="#F6F4FF" />
        <path fill-rule="evenodd" clip-rule="evenodd"
            d="M13.5822 18.9874C16.0004 18.9637 18.4182 18.9874 20.8356 19.0585C21.2149 19.4852 21.2149 19.9119 20.8356 20.3385C18.4178 20.4334 16 20.4334 13.5822 20.3385C13.0248 19.8891 13.0248 19.4387 13.5822 18.9874Z"
            fill="#FEFEFF" />
    </g>
    <defs>
        <clipPath id="clip0_3343_2495">
            <rect width="32" height="32" fill="white" />
        </clipPath>
    </defs>
</svg>