<svg width="32" height="32" viewBox="0 0 32 32" fill="none" xmlns="http://www.w3.org/2000/svg">
    <g clip-path="url(#clip0_3572_3060)">
        <path opacity="0.941" fill-rule="evenodd" clip-rule="evenodd"
            d="M17.4398 -0.160156C18.8265 -0.160156 20.2132 -0.160156 21.5998 -0.160156C22.4287 0.239602 23.1754 0.772935 23.8398 1.43984C22.4532 1.43984 21.0665 1.43984 19.6798 1.43984C18.456 0.965837 17.176 0.699169 15.8398 0.639844C16.3758 0.324545 16.9091 0.0578783 17.4398 -0.160156Z"
            fill="#871E24" />
        <path opacity="0.914" fill-rule="evenodd" clip-rule="evenodd"
            d="M19.6802 1.44043C21.0668 1.44043 22.4535 1.44043 23.8402 1.44043C24.2849 1.8882 24.6049 2.42153 24.8002 3.04043C23.4135 3.04043 22.0268 3.04043 20.6402 3.04043C20.4007 2.45404 20.0807 1.92071 19.6802 1.44043Z"
            fill="#750E11" />
        <path opacity="0.955" fill-rule="evenodd" clip-rule="evenodd"
            d="M20.6401 3.04004C22.0268 3.04004 23.4135 3.04004 24.8001 3.04004C25.0694 3.64138 25.176 4.28138 25.1201 4.96004C23.6268 4.96004 22.1335 4.96004 20.6401 4.96004C20.6401 4.32004 20.6401 3.68004 20.6401 3.04004Z"
            fill="#840D11" />
        <path opacity="0.942" fill-rule="evenodd" clip-rule="evenodd"
            d="M20.64 4.95996C22.1333 4.95996 23.6267 4.95996 25.12 4.95996C25.12 5.38662 25.12 5.8133 25.12 6.23996C23.4133 6.23996 21.7067 6.23996 20 6.23996C20.0511 5.711 20.2644 5.28434 20.64 4.95996Z"
            fill="#971014" />
        <path opacity="0.924" fill-rule="evenodd" clip-rule="evenodd"
            d="M7.19979 7.20008C6.55979 7.20008 5.91979 7.20008 5.27979 7.20008C6.32254 3.9932 6.96254 3.9932 7.19979 7.20008Z"
            fill="#A01116" />
        <path opacity="0.964" fill-rule="evenodd" clip-rule="evenodd"
            d="M19.9999 6.24023C21.7066 6.24023 23.4132 6.24023 25.1199 6.24023C24.9066 6.98689 24.6932 7.73358 24.4799 8.48023C22.4848 8.51335 20.4581 8.4067 18.3999 8.16023C18.3999 7.94689 18.3999 7.73358 18.3999 7.52023C19.1278 7.32465 19.6611 6.89796 19.9999 6.24023Z"
            fill="#AA1318" />
        <path opacity="0.83" fill-rule="evenodd" clip-rule="evenodd"
            d="M5.27995 7.2002C5.91995 7.2002 6.55995 7.2002 7.19995 7.2002C7.59624 7.74877 7.80955 8.38877 7.83995 9.1202C6.91662 9.02215 6.06328 9.1288 5.27995 9.4402C4.8533 8.69354 4.8533 7.94685 5.27995 7.2002Z"
            fill="#B6141A" />
        <path opacity="0.827" fill-rule="evenodd" clip-rule="evenodd"
            d="M18.4002 7.51992C17.8669 7.94658 17.3336 8.37327 16.8002 8.79992C15.9469 8.79992 15.0936 8.79992 14.2402 8.79992C15.8469 7.96821 17.3936 7.00821 18.8802 5.91992C18.8373 6.4605 18.6773 6.99384 18.4002 7.51992Z"
            fill="#B21419" />
        <path opacity="0.962" fill-rule="evenodd" clip-rule="evenodd"
            d="M18.4001 8.16016C20.4584 8.40662 22.485 8.51328 24.4801 8.48016C24.3418 8.8672 24.1285 9.1872 23.8401 9.44016C21.6001 9.44016 19.3601 9.44016 17.1201 9.44016C17.6447 9.12896 18.0713 8.7023 18.4001 8.16016Z"
            fill="#BC151B" />
        <path opacity="0.894" fill-rule="evenodd" clip-rule="evenodd"
            d="M7.83979 9.12018C7.78871 9.64914 7.57537 10.0758 7.19979 10.4002C6.55979 10.4002 5.91979 10.4002 5.27979 10.4002C5.27979 10.0802 5.27979 9.76018 5.27979 9.44018C6.06311 9.12879 6.91646 9.02213 7.83979 9.12018Z"
            fill="#C6161D" />
        <path opacity="0.907" fill-rule="evenodd" clip-rule="evenodd"
            d="M14.2399 8.7998C15.0933 8.7998 15.9466 8.7998 16.7999 8.7998C16.5866 9.1198 16.3733 9.4398 16.1599 9.7598C15.607 10.312 14.967 10.7387 14.2399 11.0398C12.5777 11.1424 10.9777 11.0357 9.43994 10.7198C10.9874 9.95497 12.5874 9.31497 14.2399 8.7998Z"
            fill="#CA171D" />
        <path opacity="0.916" fill-rule="evenodd" clip-rule="evenodd"
            d="M17.1202 9.44043C19.3602 9.44043 21.6002 9.44043 23.8402 9.44043C23.7019 9.82747 23.4886 10.1475 23.2002 10.4004C20.8535 10.4004 18.5068 10.4004 16.1602 10.4004C16.1602 10.1871 16.1602 9.97377 16.1602 9.76043C16.515 9.74222 16.835 9.63557 17.1202 9.44043Z"
            fill="#C8171D" />
        <path opacity="0.941" fill-rule="evenodd" clip-rule="evenodd"
            d="M31.8398 9.1198C31.8398 9.33315 31.8398 9.54646 31.8398 9.7598C31.4131 10.0798 30.9865 10.3998 30.5598 10.7198C28.7006 10.4031 26.7806 10.2965 24.7998 10.3998C25.4639 9.50585 26.3706 8.97251 27.5198 8.7998C28.9567 9.2815 30.3967 9.38819 31.8398 9.1198Z"
            fill="#C7171D" />
        <path opacity="0.894" fill-rule="evenodd" clip-rule="evenodd"
            d="M5.28012 10.4004C5.92012 10.4004 6.56012 10.4004 7.20012 10.4004C6.70373 11.3805 6.01039 12.2338 5.12012 12.9604C5.14677 12.1222 5.20012 11.2689 5.28012 10.4004Z"
            fill="#D91920" />
        <path opacity="0.729" fill-rule="evenodd" clip-rule="evenodd"
            d="M24.8 10.4004C26.7808 10.2971 28.7008 10.4038 30.56 10.7204C28.2782 11.4019 25.9315 11.8286 23.52 12.0004C23.7056 11.2808 24.1322 10.7475 24.8 10.4004Z"
            fill="#D5181F" />
        <path opacity="0.971" fill-rule="evenodd" clip-rule="evenodd"
            d="M16.1602 10.4004C18.5069 10.4004 20.8536 10.4004 23.2002 10.4004C22.7736 11.0404 22.2402 11.5737 21.6002 12.0004C19.1469 12.0004 16.6936 12.0004 14.2402 12.0004C14.8675 11.4704 15.5075 10.937 16.1602 10.4004Z"
            fill="#D91920" />
        <path opacity="0.904" fill-rule="evenodd" clip-rule="evenodd"
            d="M9.44006 10.7197C10.9778 11.0356 12.5778 11.1423 14.2401 11.0397C13.795 11.8046 13.155 12.3379 12.3201 12.6397C10.4001 12.6397 8.48006 12.6397 6.56006 12.6397C7.45321 11.9246 8.41321 11.2846 9.44006 10.7197Z"
            fill="#E11A21" />
        <path opacity="0.11" fill-rule="evenodd" clip-rule="evenodd"
            d="M23.5199 12C23.3065 12.2133 23.3065 12.2133 23.5199 12Z" fill="#E01A21" />
        <path opacity="0.961" fill-rule="evenodd" clip-rule="evenodd"
            d="M14.2401 12C16.6935 12 19.1468 12 21.6001 12C21.1735 12.64 20.6401 13.1733 20.0001 13.6C17.6453 13.5813 15.192 13.5813 12.6401 13.6C13.0668 12.96 13.6001 12.4267 14.2401 12Z"
            fill="#E91C23" />
        <path opacity="0.983" fill-rule="evenodd" clip-rule="evenodd"
            d="M27.6798 14.8796C25.1673 14.9838 22.714 14.8771 20.3198 14.5596C21.254 13.478 22.4807 12.838 23.9998 12.6396C25.8568 13.2547 27.7234 13.5214 29.5998 13.4396C29.0834 14.1202 28.4434 14.6002 27.6798 14.8796Z"
            fill="#ED2422" />
        <path opacity="0.949" fill-rule="evenodd" clip-rule="evenodd"
            d="M6.55996 12.6396C8.47996 12.6396 10.4 12.6396 12.32 12.6396C11.68 13.3863 11.04 14.133 10.4 14.8796C8.60591 14.5894 6.7926 14.4828 4.95996 14.5596C5.4966 13.9069 6.02994 13.2669 6.55996 12.6396Z"
            fill="#ED2322" />
        <path opacity="0.897" fill-rule="evenodd" clip-rule="evenodd"
            d="M20 13.5999C19.6479 13.9535 19.4346 14.3802 19.36 14.8799C18.9334 15.0933 18.5067 15.3066 18.08 15.5199C15.737 15.3479 13.3903 15.2412 11.04 15.1999C11.4667 14.5599 12 14.0266 12.64 13.5999C15.1919 13.5813 17.6452 13.5813 20 13.5999Z"
            fill="#EE2821" />
        <path opacity="0.92" fill-rule="evenodd" clip-rule="evenodd"
            d="M20.32 14.5596C22.7142 14.877 25.1675 14.9837 27.68 14.8796C27.2506 15.2933 26.7173 15.56 26.08 15.6796C23.7227 15.7671 21.376 15.9271 19.04 16.1596C19.275 15.773 19.3816 15.3464 19.36 14.8796C19.7149 14.8614 20.0349 14.7547 20.32 14.5596Z"
            fill="#EE3020" />
        <path opacity="0.975" fill-rule="evenodd" clip-rule="evenodd"
            d="M4.95982 14.5603C6.79246 14.4834 8.60578 14.5901 10.3998 14.8803C10.0761 15.3192 9.75611 15.7459 9.43982 16.1603C7.73317 16.1603 6.02648 16.1603 4.31982 16.1603C4.53317 15.6269 4.74648 15.0936 4.95982 14.5603Z"
            fill="#EE3220" />
        <path opacity="0.896" fill-rule="evenodd" clip-rule="evenodd"
            d="M3.36012 16.8C2.61345 16.8 1.86678 16.8 1.12012 16.8C1.83222 15.3925 2.73889 14.1125 3.84012 12.96C3.78834 14.2402 3.62834 15.5202 3.36012 16.8Z"
            fill="#EF351F" />
        <path opacity="0.059" fill-rule="evenodd" clip-rule="evenodd"
            d="M19.0399 16.1602C18.8265 16.3735 18.8265 16.3735 19.0399 16.1602Z" fill="#EF381E" />
        <path opacity="0.939" fill-rule="evenodd" clip-rule="evenodd"
            d="M4.32 16.1602C6.02666 16.1602 7.73334 16.1602 9.44 16.1602C9.28938 16.8253 9.07606 17.4653 8.8 18.0802C7.2 18.0802 5.6 18.0802 4 18.0802C4.26925 17.4788 4.3759 16.8388 4.32 16.1602Z"
            fill="#F0411D" />
        <path opacity="0.868" fill-rule="evenodd" clip-rule="evenodd"
            d="M11.0401 15.2002C13.3904 15.2415 15.7371 15.3482 18.0801 15.5202C17.911 15.9108 17.6977 16.2841 17.4401 16.6402C18.8054 16.7008 20.0854 16.9675 21.2801 17.4402C17.5467 17.4402 13.8134 17.4402 10.0801 17.4402C10.2162 16.6021 10.5362 15.8554 11.0401 15.2002Z"
            fill="#EF3D1E" />
        <path opacity="0.841" fill-rule="evenodd" clip-rule="evenodd"
            d="M1.11998 16.7998C1.86665 16.7998 2.61332 16.7998 3.35998 16.7998C3.35998 17.2265 3.35998 17.6531 3.35998 18.0798C2.39998 18.0798 1.43998 18.0798 0.47998 18.0798C0.531052 17.5508 0.744387 17.1242 1.11998 16.7998Z"
            fill="#F0451D" />
        <path opacity="0.981" fill-rule="evenodd" clip-rule="evenodd"
            d="M10.08 17.4404C13.8133 17.4404 17.5466 17.4404 21.28 17.4404C22.2957 17.6037 23.0424 18.137 23.52 19.0404C18.9333 19.0404 14.3466 19.0404 9.75995 19.0404C9.66891 18.4277 9.7756 17.8944 10.08 17.4404Z"
            fill="#F04C1B" />
        <path opacity="0.973" fill-rule="evenodd" clip-rule="evenodd"
            d="M4 18.0801C5.6 18.0801 7.2 18.0801 8.8 18.0801C8.84288 18.6534 8.73622 19.1867 8.48 19.6801C7.06355 19.4887 5.6769 19.4887 4.32 19.6801C4.14784 19.1626 4.04118 18.6292 4 18.0801Z"
            fill="#F1511A" />
        <path opacity="0.941" fill-rule="evenodd" clip-rule="evenodd"
            d="M0.479844 18.0801C1.43984 18.0801 2.39984 18.0801 3.35984 18.0801C3.35984 18.8267 3.35984 19.5734 3.35984 20.3201C2.18651 20.3201 1.01318 20.3201 -0.160156 20.3201C-0.160156 20.0001 -0.160156 19.6801 -0.160156 19.3601C0.11013 18.9852 0.323463 18.5585 0.479844 18.0801Z"
            fill="#F1571A" />
        <path opacity="0.982" fill-rule="evenodd" clip-rule="evenodd"
            d="M8.48014 19.6797C8.48014 20.1063 8.48014 20.533 8.48014 20.9597C7.20014 20.9597 5.92014 20.9597 4.64014 20.9597C4.3411 20.618 4.23444 20.1913 4.32014 19.6797C5.67703 19.4883 7.06369 19.4883 8.48014 19.6797Z"
            fill="#F25C19" />
        <path opacity="0.982" fill-rule="evenodd" clip-rule="evenodd"
            d="M9.75977 19.04C14.3464 19.04 18.9331 19.04 23.5198 19.04C23.7547 19.4266 23.8613 19.8533 23.8398 20.32C19.0398 20.32 14.2398 20.32 9.43977 20.32C9.35407 19.8084 9.46073 19.3817 9.75977 19.04Z"
            fill="#F25919" />
        <path opacity="0.983" fill-rule="evenodd" clip-rule="evenodd"
            d="M9.43994 20.3203C14.2399 20.3203 19.0399 20.3203 23.8399 20.3203C24.1082 20.4297 24.2149 20.643 24.1599 20.9603C19.2533 20.9603 14.3466 20.9603 9.43994 20.9603C9.43994 20.747 9.43994 20.5337 9.43994 20.3203Z"
            fill="#F26018" />
        <path opacity="0.924" fill-rule="evenodd" clip-rule="evenodd"
            d="M-0.160156 20.3203C1.01318 20.3203 2.18651 20.3203 3.35984 20.3203C3.59476 20.7068 3.70141 21.1335 3.67984 21.6003C2.39984 21.6003 1.11984 21.6003 -0.160156 21.6003C-0.160156 21.1737 -0.160156 20.747 -0.160156 20.3203Z"
            fill="#F36517" />
        <path opacity="0.891" fill-rule="evenodd" clip-rule="evenodd"
            d="M9.43978 20.96C14.3464 20.96 19.2531 20.96 24.1598 20.96C24.211 21.5037 24.1577 22.037 23.9998 22.56C22.1479 21.1483 20.1746 20.935 18.0798 21.92C15.3079 21.7829 12.5346 21.6762 9.75978 21.6C9.49155 21.4906 9.38486 21.2773 9.43978 20.96Z"
            fill="#F36717" />
        <path opacity="0.908" fill-rule="evenodd" clip-rule="evenodd"
            d="M4.64022 20.96C5.92022 20.96 7.20022 20.96 8.48022 20.96C8.77926 21.3016 8.88591 21.7283 8.80022 22.24C7.56137 22.1392 6.38802 22.2458 5.28022 22.56C4.8222 22.1502 4.60889 21.6169 4.64022 20.96Z"
            fill="#F36B16" />
        <path opacity="0.977" fill-rule="evenodd" clip-rule="evenodd"
            d="M9.75977 21.5996C12.5345 21.6759 15.3079 21.7826 18.0798 21.9196C17.9731 22.2396 17.7598 22.453 17.4398 22.5596C15.0195 22.5791 12.4595 22.4724 9.75977 22.2396C9.75977 22.0263 9.75977 21.813 9.75977 21.5996Z"
            fill="#F36D16" />
        <path opacity="0.943" fill-rule="evenodd" clip-rule="evenodd"
            d="M-0.160156 21.5996C1.11984 21.5996 2.39984 21.5996 3.67984 21.5996C4.06218 22.32 4.38218 23.0667 4.63984 23.8396C3.20631 23.4676 1.81965 23.4676 0.479844 23.8396C0.26651 23.6263 0.0531772 23.413 -0.160156 23.1996C-0.160156 22.6663 -0.160156 22.133 -0.160156 21.5996Z"
            fill="#F47514" />
        <path opacity="0.897" fill-rule="evenodd" clip-rule="evenodd"
            d="M8.79979 22.2399C8.84097 22.789 8.94763 23.3223 9.11979 23.8399C8.00062 23.7862 6.93396 23.7862 5.91979 23.8399C5.5442 23.5155 5.33086 23.0888 5.27979 22.5599C6.38759 22.2457 7.56094 22.1391 8.79979 22.2399Z"
            fill="#F47714" />
        <path opacity="0.936" fill-rule="evenodd" clip-rule="evenodd"
            d="M9.75977 22.2402C12.4595 22.473 15.0195 22.5797 17.4398 22.5602C17.2264 22.9869 17.0131 23.4136 16.7998 23.8402C15.2485 23.8161 13.7018 23.7094 12.1598 23.5202C11.4253 23.5351 10.8386 23.7485 10.3998 24.1602C10.0035 23.6117 9.79017 22.9717 9.75977 22.2402Z"
            fill="#F47814" />
        <path opacity="0.951" fill-rule="evenodd" clip-rule="evenodd"
            d="M4.63981 23.8395C4.90804 23.9489 5.01473 24.1622 4.95981 24.4795C3.57316 24.4795 2.18648 24.4795 0.799814 24.4795C0.531574 24.3702 0.424908 24.1568 0.479814 23.8395C1.81962 23.4676 3.20628 23.4676 4.63981 23.8395Z"
            fill="#F57F13" />
        <path opacity="0.881" fill-rule="evenodd" clip-rule="evenodd"
            d="M9.11992 23.8401C9.35483 24.2266 9.46149 24.6533 9.43992 25.1201C8.58658 25.1201 7.73327 25.1201 6.87992 25.1201C6.40811 24.8204 6.08811 24.3937 5.91992 23.8401C6.9341 23.7864 8.00075 23.7864 9.11992 23.8401Z"
            fill="#F58412" />
        <path opacity="0.91" fill-rule="evenodd" clip-rule="evenodd"
            d="M16.7999 23.8395C16.6435 24.318 16.4302 24.7447 16.1599 25.1195C14.3915 25.0167 12.6849 25.1233 11.0399 25.4395C10.6643 25.1151 10.451 24.6885 10.3999 24.1595C10.8388 23.7478 11.4254 23.5344 12.1599 23.5195C13.702 23.7087 15.2486 23.8154 16.7999 23.8395Z"
            fill="#F58312" />
        <path opacity="0.939" fill-rule="evenodd" clip-rule="evenodd"
            d="M0.799805 24.4805C2.18647 24.4805 3.57315 24.4805 4.9598 24.4805C5.27609 24.8949 5.59609 25.3215 5.9198 25.7605C4.53315 25.7605 3.14647 25.7605 1.7598 25.7605C1.19583 25.5165 0.87583 25.0899 0.799805 24.4805Z"
            fill="#F68A11" />
        <path opacity="0.924" fill-rule="evenodd" clip-rule="evenodd"
            d="M6.87988 25.1201C7.73323 25.1201 8.58654 25.1201 9.43988 25.1201C9.98135 25.6657 10.408 26.3057 10.7199 27.0401C10.2659 27.3445 9.73259 27.4512 9.11988 27.3601C8.26654 26.7201 7.51988 25.9735 6.87988 25.1201Z"
            fill="#F6920F" />
        <path opacity="0.934" fill-rule="evenodd" clip-rule="evenodd"
            d="M16.1598 25.1199C16.1598 25.6532 16.1598 26.1866 16.1598 26.7199C14.6973 26.4188 13.204 26.3121 11.6798 26.3999C11.2298 26.2485 11.0165 25.9285 11.0398 25.4399C12.6848 25.1237 14.3914 25.017 16.1598 25.1199Z"
            fill="#F69010" />
        <path opacity="0.919" fill-rule="evenodd" clip-rule="evenodd"
            d="M1.75977 25.7598C3.14643 25.7598 4.53311 25.7598 5.91977 25.7598C6.45311 26.0798 6.87977 26.5064 7.19977 27.0398C5.76972 26.9926 4.48972 27.0992 3.35977 27.3598C2.71977 26.9331 2.18643 26.3998 1.75977 25.7598Z"
            fill="#F7960F" />
        <path opacity="0.93" fill-rule="evenodd" clip-rule="evenodd"
            d="M11.68 26.3998C13.2041 26.312 14.6974 26.4187 16.16 26.7198C16.16 26.9332 16.16 27.1465 16.16 27.3598C14.88 27.3598 13.6 27.3598 12.32 27.3598C11.8699 27.2085 11.6566 26.8885 11.68 26.3998Z"
            fill="#F7980F" />
        <path opacity="0.925" fill-rule="evenodd" clip-rule="evenodd"
            d="M7.19986 27.0402C7.51986 27.1468 7.73321 27.3602 7.83986 27.6802C6.66217 27.9485 5.48882 28.0552 4.31986 28.0002C3.93282 27.8619 3.61282 27.6486 3.35986 27.3602C4.48982 27.0996 5.76982 26.993 7.19986 27.0402Z"
            fill="#F89F0D" />
        <path opacity="0.896" fill-rule="evenodd" clip-rule="evenodd"
            d="M12.3198 27.3604C13.5998 27.3604 14.8798 27.3604 16.1598 27.3604C16.1598 28.0004 16.1598 28.6404 16.1598 29.2804C15.4132 29.2804 14.6665 29.2804 13.9198 29.2804C13.1473 28.8289 12.614 28.1889 12.3198 27.3604Z"
            fill="#F8A30D" />
        <path opacity="0.659" fill-rule="evenodd" clip-rule="evenodd"
            d="M10.7201 27.04C11.1371 27.5656 11.5637 28.0989 12.0001 28.64C11.5735 28.64 11.1468 28.64 10.7201 28.64C10.0005 28.4545 9.46719 28.0278 9.12012 27.36C9.73282 27.4511 10.2661 27.3444 10.7201 27.04Z"
            fill="#F8A30D" />
        <path opacity="0.833" fill-rule="evenodd" clip-rule="evenodd"
            d="M7.83982 27.6797C8.87016 28.3526 9.83016 29.0993 10.7198 29.9197C9.97317 29.9197 9.22648 29.9197 8.47982 29.9197C6.95598 29.5304 5.56933 28.8904 4.31982 27.9997C5.48878 28.0547 6.66213 27.948 7.83982 27.6797Z"
            fill="#F8AB0B" />
        <path opacity="0.61" fill-rule="evenodd" clip-rule="evenodd"
            d="M10.7202 28.6396C11.1469 28.6396 11.5736 28.6396 12.0002 28.6396C12.9602 29.3863 13.8136 30.2396 14.5602 31.1996C13.0573 30.6628 11.7773 29.8095 10.7202 28.6396Z"
            fill="#F9B20A" />
        <path opacity="0.709" fill-rule="evenodd" clip-rule="evenodd"
            d="M8.47998 29.9199C9.22664 29.9199 9.97332 29.9199 10.72 29.9199C11.4496 30.2848 12.1963 30.6581 12.96 31.0399C11.3793 30.9563 9.88593 30.583 8.47998 29.9199Z"
            fill="#FABA09" />
        <path opacity="0.872" fill-rule="evenodd" clip-rule="evenodd"
            d="M13.9199 29.2803C14.6666 29.2803 15.4133 29.2803 16.1599 29.2803C16.3336 30.1502 16.5469 31.0035 16.7999 31.8403C16.5866 31.8403 16.3733 31.8403 16.1599 31.8403C15.4133 30.9869 14.6666 30.1336 13.9199 29.2803Z"
            fill="#F9B709" />
        <path opacity="0.188" fill-rule="evenodd" clip-rule="evenodd"
            d="M14.5601 31.2002C14.9867 31.4135 14.9867 31.4135 14.5601 31.2002Z" fill="#F9C007" />
    </g>
    <defs>
        <clipPath id="clip0_3572_3060">
            <rect width="32" height="32" fill="white" />
        </clipPath>
    </defs>
</svg>