<svg width="32" height="32" viewBox="0 0 32 32" fill="none" xmlns="http://www.w3.org/2000/svg">
    <g clip-path="url(#clip0_3416_928)">
        <rect width="32" height="32" rx="4" fill="#FAFAFA" />
        <path fill-rule="evenodd" clip-rule="evenodd"
            d="M13.7163 0.18626C18.7438 -0.0265122 23.8023 -0.0569945 28.8918 0.0948318C29.3441 0.101543 29.7098 0.253918 29.9888 0.551975C29.5681 0.449502 29.1415 0.358073 28.7089 0.277689C23.7118 0.18626 18.7142 0.155796 13.7163 0.18626Z"
            fill="#010101" />
        <path fill-rule="evenodd" clip-rule="evenodd"
            d="M13.7112 0.186223C18.7072 0.155773 23.703 0.186223 28.6982 0.277607C29.1307 0.357953 29.5571 0.449337 29.9776 0.551761C30.7736 0.982147 31.3827 1.59137 31.8053 2.37945C31.9077 2.79997 31.999 3.22643 32.0795 3.65884C32.2273 12.3132 32.1968 20.9644 31.9881 29.6121C31.9036 30.0246 31.7209 30.3901 31.4398 30.7087C30.9545 31.3164 30.3454 31.743 29.6121 31.9881C20.9644 32.1968 12.3133 32.2273 3.65895 32.0795C3.22654 31.9991 2.80009 31.9077 2.37957 31.8053C1.5915 31.3828 0.982273 30.7736 0.551889 29.9776C0.449466 29.5571 0.358082 29.1307 0.277737 28.6982C0.186352 21.6315 0.155885 14.5643 0.186352 7.497C2.31866 7.497 4.45095 7.497 6.58325 7.497C6.55289 8.53447 6.58336 9.57017 6.67464 10.6041C7.56622 9.65194 8.38868 8.64671 9.14201 7.58838C10.2382 7.59536 11.2739 7.35168 12.2491 6.8573C12.7756 6.44083 13.1411 5.92299 13.3457 5.30376C13.4776 5.22746 13.569 5.10561 13.6198 4.93823C13.7112 3.35539 13.7416 1.7714 13.7112 0.186223Z"
            fill="#010101" />
        <path fill-rule="evenodd" clip-rule="evenodd"
            d="M13.7163 0.186035C13.7467 1.77181 13.7163 3.35639 13.6249 4.93982C13.574 5.10726 13.4825 5.22916 13.3506 5.30549C13.4581 3.57277 13.58 1.8663 13.7163 0.186035Z"
            fill="#010101" />
        <path fill-rule="evenodd" clip-rule="evenodd"
            d="M31.8171 2.38037C32.1152 2.6594 32.2675 3.02508 32.2743 3.4774C32.3962 12.0098 32.3962 20.5422 32.2743 29.0747C32.2319 29.3008 32.1404 29.4837 32 29.6232C32.2088 20.9722 32.2394 12.3179 32.0914 3.66024C32.011 3.22766 31.9195 2.80104 31.8171 2.38037Z"
            fill="#010101" />
        <path fill-rule="evenodd" clip-rule="evenodd"
            d="M24.138 11.888C24.1753 12.4397 24.2362 12.9882 24.3208 13.5335C22.7817 13.5887 21.258 13.5278 19.7499 13.3507C19.3616 11.6245 18.2645 10.7713 16.4589 10.791C15.3883 10.7297 14.5047 11.0954 13.8077 11.888C12.0455 14.6514 11.9846 17.4548 13.6249 20.2985C14.9658 21.6517 16.5199 21.926 18.2872 21.1213C19.0932 20.5311 19.6417 19.7692 19.9328 18.8358C20.098 18.7062 20.1589 18.5233 20.1156 18.2873C21.5174 18.2873 22.919 18.2873 24.3208 18.2873C24.3071 18.7821 24.2462 19.2697 24.138 19.75C23.2383 22.7511 21.2271 24.4881 18.1044 24.9609C15.4417 25.352 13.0039 24.8035 10.7909 23.3153C9.38268 22.0532 8.46849 20.4991 8.04835 18.653C7.90396 17.3784 7.84301 16.0986 7.86551 14.8134C8.47802 10.5138 10.9158 7.98456 15.179 7.22562C18.1353 6.95173 20.7255 7.7745 22.9496 9.69393C23.4664 10.3623 23.8625 11.0936 24.138 11.888Z"
            fill="#FAFAFA" />
        <path fill-rule="evenodd" clip-rule="evenodd"
            d="M0.18638 7.49951C0.155898 14.5695 0.18638 21.6393 0.277809 28.7087C0.358193 29.1413 0.449622 29.5678 0.552095 29.9886C0.254038 29.7095 0.101663 29.3439 0.0949518 28.8915C-0.057039 21.73 -0.0265567 14.5993 0.18638 7.49951Z"
            fill="#010101" />
        <path fill-rule="evenodd" clip-rule="evenodd"
            d="M24.138 11.8877C24.4442 12.4375 24.566 13.047 24.5036 13.7161C22.8462 13.8324 21.2618 13.7106 19.7499 13.3504C21.2579 13.5275 22.7817 13.5884 24.3208 13.5332C24.2361 12.9879 24.1753 12.4394 24.138 11.8877Z"
            fill="#FAFAFA" />
        <path fill-rule="evenodd" clip-rule="evenodd"
            d="M7.86554 14.8135C7.84303 16.0986 7.90399 17.3785 8.04839 18.6531C7.77275 17.9416 7.65084 17.1798 7.68268 16.3676C7.68308 15.8152 7.74405 15.2973 7.86554 14.8135Z"
            fill="#FAFAFA" />
        <path fill-rule="evenodd" clip-rule="evenodd"
            d="M24.138 19.7502C24.2462 19.2698 24.3071 18.7822 24.3208 18.2873C22.919 18.2873 21.5174 18.2873 20.1156 18.2873C20.1589 18.5234 20.098 18.7063 19.9327 18.8359C19.9327 18.5922 19.9327 18.3482 19.9327 18.1045C21.4563 18.1045 22.9801 18.1045 24.5037 18.1045C24.5826 18.722 24.4607 19.2706 24.138 19.7502Z"
            fill="#FAFAFA" />
        <path fill-rule="evenodd" clip-rule="evenodd"
            d="M2.38037 31.8174C2.80104 31.9198 3.22766 32.0112 3.66023 32.0917C12.3178 32.2396 20.9721 32.2091 29.6231 32.0002C29.4836 32.1407 29.3007 32.2321 29.0746 32.2745C20.5421 32.3965 12.0098 32.3965 3.47739 32.2745C3.02507 32.2678 2.6594 32.1154 2.38037 31.8174Z"
            fill="#010101" />
    </g>
    <defs>
        <clipPath id="clip0_3416_928">
            <rect width="32" height="32" rx="4" fill="white" />
        </clipPath>
    </defs>
</svg>