<svg width="32" height="32" viewBox="0 0 32 32" fill="none" xmlns="http://www.w3.org/2000/svg">
    <g clip-path="url(#clip0_1500_133)">
        <path fill-rule="evenodd" clip-rule="evenodd"
            d="M21 24H16.4993C15.7323 23.9996 14.9781 23.7735 14.3084 23.3433C13.6387 22.913 13.0757 22.2929 12.6729 21.5418C12.2697 20.7904 12.0401 19.933 12.0056 19.0508C11.9711 18.1687 12.1329 17.291 12.4758 16.501C12.1325 15.7108 11.9702 14.8328 12.0045 13.9503C12.0388 13.0678 12.2684 12.2099 12.6716 11.4582C13.0746 10.7067 13.6379 10.0864 14.308 9.65617C14.9782 9.22592 15.7328 9.00003 16.5001 9H21V14.7254H16.4993C15.923 14.7259 15.3555 14.8878 14.8457 15.1972C14.336 15.5065 13.8993 15.954 13.5735 16.501C13.8994 17.0471 14.3358 17.4939 14.8451 17.8028C15.3545 18.1117 15.9215 18.2735 16.4972 18.2741H20.9971L21 24ZM13.1112 17.5872C12.9437 18.2001 12.904 18.8498 12.9951 19.4837C13.0862 20.1176 13.3058 20.718 13.6359 21.2362C13.9657 21.7541 14.3969 22.1754 14.8946 22.4659C15.3923 22.7563 15.9425 22.9078 16.5006 22.9081H20.0531V19.3694H16.4989C15.8563 19.3686 15.2213 19.2092 14.6369 18.9018C14.0525 18.5944 13.5322 18.1458 13.1112 17.5872ZM13.6359 11.7615C13.9657 11.2435 14.3969 10.8222 14.8946 10.5317C15.3923 10.2413 15.9425 10.0898 16.5006 10.0896H20.0519V13.6335H16.4989C15.8566 13.6336 15.2218 13.7923 14.6374 14.0988C14.053 14.4054 13.5325 14.8527 13.1112 15.4104C12.9437 14.7974 12.9038 14.1476 12.995 13.5137C13.0861 12.8797 13.3057 12.2797 13.6359 11.7615Z"
            fill="black" />
    </g>
    <defs>
        <clipPath id="clip0_1500_133">
            <rect width="32" height="32" fill="white" />
        </clipPath>
    </defs>
</svg>