<svg width="32" height="32" viewBox="0 0 32 32" fill="none" xmlns="http://www.w3.org/2000/svg">
    <path d="M32 0H0V32H32V0Z" fill="#FAFAFA" />
    <g clip-path="url(#clip0_3171_757)">
        <path fill-rule="evenodd" clip-rule="evenodd"
            d="M15.3231 -0.0615234C15.6923 -0.0615234 16.0615 -0.0615234 16.4308 -0.0615234C16.7066 0.0764122 16.9938 0.220001 17.2923 0.369246C17.9282 1.00514 18.5641 1.64104 19.2 2.27694C19.6261 2.92756 19.7286 3.625 19.5077 4.36925C20.0945 4.63177 20.6894 4.87792 21.2923 5.10771C21.6396 4.84278 21.9884 4.57611 22.3385 4.30771C22.5262 4.18357 22.7313 4.12203 22.9538 4.12309C24.4498 4.24558 25.9679 4.28661 27.5077 4.24617C27.4673 5.70405 27.5083 7.13995 27.6308 8.55386C27.5366 9.32382 27.1674 9.91869 26.5231 10.3385C27.2907 11.7988 27.742 13.3372 27.8769 14.9539C27.8769 15.4872 27.8769 16.0206 27.8769 16.5539C27.7055 18.1606 27.2542 19.6991 26.5231 21.1692C27.0143 21.5371 27.363 22.0089 27.5692 22.5846C27.6308 24.2251 27.6513 25.8662 27.6308 27.5077C26.0303 27.5283 24.4303 27.5077 22.8308 27.4462C22.2299 27.2485 21.7376 26.8998 21.3538 26.4C20.2214 26.9601 19.0316 27.3499 17.7846 27.5692C17.3316 28.7014 16.8598 29.8297 16.3692 30.9539C16.2691 31.2833 16.0845 31.5295 15.8154 31.6923C15.2577 30.3104 14.6834 28.936 14.0923 27.5692C12.834 27.3915 11.6442 27.0017 10.5231 26.4C10.1109 26.9343 9.57753 27.283 8.92308 27.4462C7.36464 27.5077 5.80567 27.5283 4.24615 27.5077C4.22565 25.8662 4.24617 24.2251 4.30769 22.5846C4.54682 22.0403 4.85451 21.548 5.23077 21.1077C4.54466 19.6491 4.13441 18.1311 4 16.5539C4 15.8975 4 15.241 4 14.5846C4.21157 13.1083 4.66285 11.6929 5.35385 10.3385C4.65318 9.90089 4.28395 9.265 4.24615 8.43078C4.36859 7.05793 4.40961 5.66307 4.36923 4.24617C5.90908 4.28661 7.42703 4.24558 8.92308 4.12309C9.56293 4.30955 10.1168 4.63776 10.5846 5.10771C11.1871 4.87818 11.782 4.63203 12.3692 4.36925C12.2347 3.92521 12.2142 3.47392 12.3077 3.0154C13.0904 1.761 14.0955 0.735354 15.3231 -0.0615234Z"
            fill="#55297B" />
        <path fill-rule="evenodd" clip-rule="evenodd"
            d="M15.5694 1.04591C15.9164 1.01483 16.2447 1.07637 16.554 1.23052C17.1488 1.82539 17.7438 2.42027 18.3386 3.01514C18.5434 3.35844 18.5639 3.70716 18.4002 4.06129C17.5901 3.96072 16.7696 3.89919 15.9386 3.87668C15.124 3.87504 14.324 3.95709 13.5386 4.12283C13.3035 3.76208 13.3035 3.39285 13.5386 3.01514C14.2027 2.33036 14.8796 1.67396 15.5694 1.04591Z"
            fill="#FBFAFC" />
        <path fill-rule="evenodd" clip-rule="evenodd"
            d="M8.92302 4.12305C7.42697 4.24553 5.90902 4.28657 4.36917 4.24612C4.40955 5.66302 4.36853 7.05789 4.24609 8.43074C4.24609 6.99484 4.24609 5.55895 4.24609 4.12305C5.80507 4.12305 7.36404 4.12305 8.92302 4.12305Z"
            fill="#470972" />
        <path fill-rule="evenodd" clip-rule="evenodd"
            d="M22.9536 4.12305C24.5126 4.12305 26.0715 4.12305 27.6305 4.12305C27.6305 5.59997 27.6305 7.07689 27.6305 8.55382C27.5081 7.13991 27.4671 5.70401 27.5075 4.24612C25.9676 4.28657 24.4496 4.24553 22.9536 4.12305Z"
            fill="#440470" />
        <path fill-rule="evenodd" clip-rule="evenodd"
            d="M14.4617 4.61574C20.3031 4.32757 24.344 6.87117 26.5848 12.2465C27.9908 17.6449 26.4523 21.9732 21.9694 25.2311C17.5961 27.7435 13.3294 27.5794 9.1694 24.7388C5.05534 21.1862 3.84509 16.817 5.53863 11.6311C7.31087 7.74429 10.2852 5.40582 14.4617 4.61574Z"
            fill="#F6F5F7" />
        <path fill-rule="evenodd" clip-rule="evenodd"
            d="M5.35387 5.23034C6.54432 5.20984 7.73407 5.23036 8.9231 5.29187C9.14502 5.37025 9.30912 5.51384 9.41541 5.72264C8.88692 6.1521 8.35359 6.58287 7.81541 7.01495C7.13242 7.75887 6.47601 8.51784 5.84618 9.29187C5.64358 9.13451 5.49999 8.92938 5.41541 8.67649C5.3539 7.5285 5.33338 6.37979 5.35387 5.23034Z"
            fill="#FAF9FB" />
        <path fill-rule="evenodd" clip-rule="evenodd"
            d="M22.9537 5.23047C24.1435 5.23047 25.3332 5.23047 26.5229 5.23047C26.5434 6.37992 26.5229 7.52864 26.4614 8.67662C26.3769 8.92951 26.2332 9.13464 26.0306 9.29201C25.0877 7.91836 23.9185 6.76964 22.5229 5.84585C22.5367 5.56312 22.6802 5.35799 22.9537 5.23047Z"
            fill="#FBFAFB" />
        <path fill-rule="evenodd" clip-rule="evenodd"
            d="M19.5076 6.09246C19.4666 6.17451 19.4255 6.25656 19.3846 6.33861C18.2359 7.44631 17.0871 8.554 15.9384 9.66169C14.753 8.53786 13.5837 7.38915 12.4307 6.21554C12.3692 8.18434 12.3487 10.1536 12.3692 12.1232C12.3281 12.1232 12.2871 12.1232 12.2461 12.1232C12.2461 10.154 12.2461 8.18477 12.2461 6.21554C14.6333 5.27835 17.0538 5.23732 19.5076 6.09246Z"
            fill="#582D7D" />
        <path fill-rule="evenodd" clip-rule="evenodd"
            d="M19.5078 6.09277C19.5899 6.09277 19.6309 6.13379 19.6309 6.21585C19.6309 8.18508 19.6309 10.1543 19.6309 12.1235C19.5899 12.1235 19.5488 12.1235 19.5078 12.1235C19.5485 10.1737 19.5074 8.24552 19.3848 6.33893C19.4258 6.25687 19.4669 6.17483 19.5078 6.09277Z"
            fill="#8976B8" />
        <path fill-rule="evenodd" clip-rule="evenodd"
            d="M12.2461 6.21582C12.2461 8.18505 12.2461 10.1543 12.2461 12.1235C10.2751 12.1645 8.3059 12.1234 6.33838 12.0004C7.50005 9.23868 9.46928 7.31048 12.2461 6.21582Z"
            fill="#55297B" />
        <path fill-rule="evenodd" clip-rule="evenodd"
            d="M19.6309 6.21582C22.4616 7.32351 24.4309 9.29274 25.5386 12.1235C23.5693 12.1235 21.6001 12.1235 19.6309 12.1235C19.6309 10.1543 19.6309 8.18505 19.6309 6.21582Z"
            fill="#552A7B" />
        <path fill-rule="evenodd" clip-rule="evenodd"
            d="M15.9382 9.66197C15.9382 11.6722 15.9382 13.6825 15.9382 15.6927C14.7485 14.5441 13.5588 13.3953 12.369 12.2466C12.369 12.2056 12.369 12.1645 12.369 12.1235C12.3485 10.1539 12.369 8.18462 12.4306 6.21582C13.5836 7.38943 14.7528 8.53815 15.9382 9.66197Z"
            fill="#FED3EC" />
        <path fill-rule="evenodd" clip-rule="evenodd"
            d="M19.3846 6.33887C19.5072 8.24546 19.5483 10.1737 19.5077 12.1235C18.359 13.3543 17.1692 14.544 15.9385 15.6927C15.9385 13.6825 15.9385 11.6722 15.9385 9.66194C17.0872 8.55425 18.236 7.44656 19.3846 6.33887Z"
            fill="#C3BFFE" />
        <path fill-rule="evenodd" clip-rule="evenodd"
            d="M6.46143 12.2461C8.43066 12.2461 10.3999 12.2461 12.3691 12.2461C13.5589 13.3948 14.7486 14.5436 15.9383 15.6922C15.9383 15.7332 15.9383 15.7743 15.9383 15.8153C15.8973 15.8153 15.8563 15.8153 15.8153 15.8153C13.846 15.8153 11.8768 15.8153 9.90758 15.8153C8.75887 14.6255 7.61014 13.4359 6.46143 12.2461Z"
            fill="#FEF2AD" />
        <path fill-rule="evenodd" clip-rule="evenodd"
            d="M19.5077 12.123C19.5487 12.123 19.5898 12.123 19.6308 12.123C21.6 12.123 23.5692 12.123 25.5385 12.123C25.6206 12.123 25.6616 12.1641 25.6616 12.2461C24.3963 13.3061 23.2065 14.4547 22.0923 15.6923C20.0916 15.8134 18.0814 15.8545 16.0616 15.8154C16.0205 15.8154 15.9795 15.8154 15.9385 15.8154C15.9385 15.7744 15.9385 15.7333 15.9385 15.6923C17.1692 14.5436 18.359 13.3538 19.5077 12.123Z"
            fill="#FBD1EB" />
        <path fill-rule="evenodd" clip-rule="evenodd"
            d="M6.46149 12.2461C7.61021 13.4359 8.75893 14.6255 9.90765 15.8153C8.7179 16.964 7.52816 18.1128 6.33842 19.2615C5.43631 17.0436 5.37477 14.7873 6.1538 12.4922C6.20511 12.3377 6.30767 12.2556 6.46149 12.2461Z"
            fill="#572C7C" />
        <path fill-rule="evenodd" clip-rule="evenodd"
            d="M25.6615 12.2461C25.9861 13.389 26.1912 14.5582 26.2768 15.7538C26.1843 16.945 25.9791 18.1143 25.6615 19.2615C24.4414 18.2265 23.2722 17.1188 22.1538 15.9384C22.0967 15.8653 22.0761 15.7832 22.0922 15.6922C23.2064 14.4547 24.3962 13.306 25.6615 12.2461Z"
            fill="#572C7C" />
        <path fill-rule="evenodd" clip-rule="evenodd"
            d="M9.90761 15.8154C11.8768 15.8154 13.8461 15.8154 15.8153 15.8154C14.6666 17.0052 13.5179 18.1949 12.3691 19.3847C12.3281 19.3847 12.2871 19.3847 12.2461 19.3847C10.2768 19.3847 8.30761 19.3847 6.33838 19.3847C6.33838 19.3437 6.33838 19.3026 6.33838 19.2616C7.52813 18.1129 8.71786 16.9641 9.90761 15.8154Z"
            fill="#F5C55A" />
        <path fill-rule="evenodd" clip-rule="evenodd"
            d="M15.8153 15.8154C15.8563 15.8154 15.8973 15.8154 15.9384 15.8154C15.9384 17.8256 15.9384 19.836 15.9384 21.8462C14.7486 22.9539 13.5999 24.1026 12.4922 25.2924C12.3696 23.3447 12.3286 21.3754 12.3691 19.3847C13.5179 18.1949 14.6666 17.0052 15.8153 15.8154Z"
            fill="#C4C0FD" />
        <path fill-rule="evenodd" clip-rule="evenodd"
            d="M22.0923 15.6924C22.0762 15.7833 22.0967 15.8654 22.1538 15.9385C23.2722 17.119 24.4415 18.2267 25.6615 19.2616C25.6615 19.3437 25.6205 19.3847 25.5384 19.3847C23.5692 19.3847 21.6 19.3847 19.6308 19.3847C19.6308 21.3949 19.6308 23.4052 19.6308 25.4155C19.5487 25.4155 19.4667 25.4155 19.3846 25.4155C19.3846 25.3745 19.3846 25.3334 19.3846 25.2924C19.5276 23.3033 19.548 21.293 19.4461 19.2616C18.293 18.1291 17.1648 16.9804 16.0615 15.8155C18.0813 15.8546 20.0916 15.8135 22.0923 15.6924Z"
            fill="#8552A1" />
        <path fill-rule="evenodd" clip-rule="evenodd"
            d="M15.9385 15.8154C15.9795 15.8154 16.0205 15.8154 16.0616 15.8154C17.1648 16.9804 18.2931 18.129 19.4462 19.2616C19.5481 21.293 19.5276 23.3033 19.3846 25.2924C18.2769 24.1026 17.1283 22.9539 15.9385 21.8462C15.9385 19.836 15.9385 17.8256 15.9385 15.8154Z"
            fill="#EE7CFE" />
        <path fill-rule="evenodd" clip-rule="evenodd"
            d="M12.2461 19.3848C12.2871 19.3848 12.3282 19.3848 12.3692 19.3848C12.3286 21.3755 12.3696 23.3448 12.4923 25.2925C12.4923 25.3334 12.4923 25.3746 12.4923 25.4155C12.3334 25.4447 12.2103 25.4037 12.123 25.2925C12.2457 23.3448 12.2867 21.3755 12.2461 19.3848Z"
            fill="#7B63A9" />
        <path fill-rule="evenodd" clip-rule="evenodd"
            d="M6.33838 19.3848C8.30761 19.3848 10.2768 19.3848 12.2461 19.3848C12.2866 21.3755 12.2456 23.3448 12.123 25.2925C9.31371 24.1874 7.38551 22.2181 6.33838 19.3848Z"
            fill="#562A7B" />
        <path fill-rule="evenodd" clip-rule="evenodd"
            d="M25.5386 19.3848C24.4785 22.2836 22.5093 24.2938 19.6309 25.4155C19.6309 23.4053 19.6309 21.395 19.6309 19.3848C21.6001 19.3848 23.5693 19.3848 25.5386 19.3848Z"
            fill="#562A7C" />
        <path fill-rule="evenodd" clip-rule="evenodd"
            d="M15.9383 21.8457C17.1281 22.9534 18.2768 24.1021 19.3845 25.2919C19.3845 25.3328 19.3845 25.3739 19.3845 25.4149C18.2736 25.8634 17.1044 26.0686 15.8768 26.0303C14.689 26.0674 13.5608 25.8622 12.4922 25.4149C12.4922 25.3739 12.4922 25.3328 12.4922 25.2919C13.5999 24.1021 14.7486 22.9534 15.9383 21.8457Z"
            fill="#562B7C" />
        <path fill-rule="evenodd" clip-rule="evenodd"
            d="M5.84618 22.2158C6.84556 23.605 8.0353 24.8153 9.41541 25.8466C9.28985 26.0959 9.08473 26.26 8.80003 26.3389C7.65204 26.4004 6.50332 26.4209 5.35387 26.4004C5.33338 25.21 5.3539 24.0203 5.41541 22.8312C5.53815 22.6068 5.68174 22.4017 5.84618 22.2158Z"
            fill="#F7F5F8" />
        <path fill-rule="evenodd" clip-rule="evenodd"
            d="M25.9076 22.2158C26.1542 22.3602 26.3388 22.5654 26.4614 22.8312C26.523 24.0203 26.5434 25.21 26.523 26.4004C25.3735 26.4209 24.2247 26.4004 23.0768 26.3389C22.7921 26.26 22.587 26.0959 22.4614 25.8466C23.8464 24.8516 24.9951 23.6414 25.9076 22.2158Z"
            fill="#F7F5F8" />
        <path fill-rule="evenodd" clip-rule="evenodd"
            d="M15.4463 27.7539C15.7745 27.7539 16.1027 27.7539 16.4309 27.7539C16.3367 28.189 16.1726 28.5993 15.9386 28.9847C15.7046 28.5993 15.5405 28.189 15.4463 27.7539Z"
            fill="#F3F1F5" />
    </g>
    <defs>
        <clipPath id="clip0_3171_757">
            <rect width="23.8769" height="32" fill="white" transform="translate(4.06152)" />
        </clipPath>
    </defs>
</svg>