<svg width="32" height="32" viewBox="0 0 32 32" fill="none" xmlns="http://www.w3.org/2000/svg">
    <mask id="mask0_2129_1631" style="mask-type:luminance" maskUnits="userSpaceOnUse" x="1" y="0"
        width="30" height="32">
        <path d="M1.3335 31.9998V0.0541992H30.26V31.9998H1.3335Z" fill="white" />
    </mask>
    <g mask="url(#mask0_2129_1631)">
        <path fill-rule="evenodd" clip-rule="evenodd"
            d="M12.299 9.27577C10.8503 9.27577 9.67183 10.4678 9.67183 11.9327C9.67183 13.3975 10.8503 14.5895 12.299 14.5895C13.7472 14.5895 14.9257 13.3975 14.9257 11.9327C14.9257 10.4678 13.7472 9.27577 12.299 9.27577ZM12.2164 16.8251C9.59449 16.8251 7.46167 14.6682 7.46167 12.0162C7.46167 9.36421 9.59449 7.20688 12.2164 7.20688C14.8378 7.20688 16.971 9.36421 16.971 12.0162C16.971 14.6682 14.8378 16.8251 12.2164 16.8251ZM20.9581 14.4895C20.1202 14.4895 19.4387 15.1793 19.4387 16.0269C19.4387 16.8744 20.1202 17.5638 20.9581 17.5638C21.7956 17.5638 22.4775 16.8744 22.4775 16.0269C22.4775 15.1793 21.7956 14.4895 20.9581 14.4895ZM20.9581 19.1607C19.2493 19.1607 17.8595 17.7549 17.8595 16.0269C17.8595 14.2989 19.2493 12.8931 20.9581 12.8931C22.6665 12.8931 24.0563 14.2989 24.0563 16.0269C24.0563 17.7549 22.6665 19.1607 20.9581 19.1607ZM16.297 21.4571C15.7983 21.4571 15.3927 21.8673 15.3927 22.3718C15.3927 22.8762 15.7983 23.286 16.297 23.286C16.7953 23.286 17.2008 22.8762 17.2008 22.3718C17.2008 21.8673 16.7953 21.4571 16.297 21.4571ZM16.297 24.8833C14.9274 24.8833 13.814 23.7567 13.814 22.3718C13.814 20.9873 14.9274 19.8602 16.297 19.8602C17.6662 19.8602 18.78 20.9873 18.78 22.3718C18.78 23.7567 17.6662 24.8833 16.297 24.8833ZM15.7333 2.56243C15.0329 2.56243 14.3325 2.74466 13.7072 3.1091L5.56964 7.86154C4.32001 8.59132 3.5436 9.95177 3.5436 11.4109V20.9153C3.5436 22.3753 4.32001 23.7349 5.56964 24.4651L13.7072 29.2171C14.9569 29.9469 16.5092 29.9473 17.7593 29.2171L25.8969 24.4651C27.1465 23.7353 27.9229 22.3753 27.9229 20.9153V11.4109C27.9229 9.95177 27.1465 8.59132 25.8969 7.86154L17.7593 3.1091C17.1345 2.74466 16.4337 2.56243 15.7333 2.56243ZM15.7965 31.9998C14.7829 31.9998 13.7696 31.7358 12.8658 31.2082L4.2642 26.1847C2.45654 25.1291 1.33301 23.1615 1.33301 21.05V11.0038C1.33301 8.89221 2.45654 6.92466 4.2642 5.8691L12.8658 0.845544C14.6734 -0.210011 16.9196 -0.210456 18.7273 0.845544L27.3289 5.8691C29.1365 6.92421 30.2596 8.89221 30.2596 11.0038V21.05C30.2596 23.162 29.1365 25.1295 27.3289 26.1847L18.7273 31.2082C17.8235 31.7358 16.8102 31.9998 15.7965 31.9998Z"
            fill="#5D62AB" />
    </g>
</svg>