<svg width="32" height="32" viewBox="0 0 32 32" fill="none" xmlns="http://www.w3.org/2000/svg">
    <g clip-path="url(#clip0_4432_255)">
        <path fill-rule="evenodd" clip-rule="evenodd"
            d="M-0.0786133 -0.0830078C10.5881 -0.0830078 21.2547 -0.0830078 31.9214 -0.0830078C31.9214 10.5837 31.9214 21.2503 31.9214 31.917C21.2547 31.917 10.5881 31.917 -0.0786133 31.917C-0.0786133 21.2503 -0.0786133 10.5837 -0.0786133 -0.0830078Z"
            fill="black" />
        <path fill-rule="evenodd" clip-rule="evenodd"
            d="M14.1963 2.08308C17.1881 1.72653 19.881 2.5043 22.2747 4.41641C23.948 2.63863 25.6211 2.63863 27.2943 4.41641C28.3417 6.22306 28.1064 7.83418 26.5884 9.24975C26.801 9.90645 26.984 10.5731 27.1375 11.2497C27.2662 14.7014 27.2402 18.1459 27.059 21.5831C23.4057 24.4531 19.6672 27.1754 15.8433 29.7497C12.0253 27.1374 8.31284 24.3597 4.70608 21.4164C4.6015 18.0276 4.6015 14.6386 4.70608 11.2497C4.85953 10.5731 5.04254 9.90645 5.2551 9.24975C3.37981 7.38221 3.37981 5.5211 5.2551 3.66641C6.85236 2.77163 8.26412 3.02163 9.4904 4.41641C10.9472 3.36446 12.5158 2.58668 14.1963 2.08308Z"
            fill="#FCFCFC" />
        <path fill-rule="evenodd" clip-rule="evenodd"
            d="M19.2159 21.7504C19.2206 21.5842 19.1421 21.4731 18.9806 21.4171C16.8827 21.4186 14.7911 21.4186 12.7061 21.4171C12.7033 21.7999 12.7294 22.1889 12.7845 22.5837C12.5607 22.3091 12.43 21.9757 12.3923 21.5837C11.5289 20.8877 10.9015 19.9989 10.51 18.9171C10.2657 17.3161 10.2134 15.705 10.3531 14.0837C10.5398 13.2982 10.8535 12.576 11.2943 11.9171C12.4812 10.5443 13.7623 9.29426 15.1374 8.16706C15.9065 8.01091 16.6386 8.12202 17.3335 8.50039C18.4054 9.63927 19.4774 10.7782 20.5492 11.9171C20.989 12.5743 21.3028 13.2965 21.4904 14.0837C21.6301 15.705 21.5777 17.3161 21.3335 18.9171C20.878 20.0931 20.1721 21.0376 19.2159 21.7504Z"
            fill="#D8DEE3" />
        <path fill-rule="evenodd" clip-rule="evenodd"
            d="M9.80387 8.083C10.8235 7.91611 11.2157 8.36055 10.9803 9.41633C10.5098 10.083 10.0392 10.083 9.56858 9.41633C9.42886 8.91673 9.50729 8.47228 9.80387 8.083Z"
            fill="#121212" />
        <path fill-rule="evenodd" clip-rule="evenodd"
            d="M21.0978 8.08325C22.0649 7.97147 22.4571 8.41592 22.2743 9.41659C21.8037 10.0833 21.3331 10.0833 20.8626 9.41659C20.7228 8.91699 20.8012 8.47254 21.0978 8.08325Z"
            fill="#0F0F0F" />
        <path fill-rule="evenodd" clip-rule="evenodd"
            d="M14.9805 14.4166C15.5783 14.2257 16.2057 14.1979 16.8628 14.3332C16.95 14.397 17.0023 14.4803 17.0197 14.5832C16.3502 14.4378 15.6704 14.3822 14.9805 14.4166Z"
            fill="#6B6B6B" />
        <path fill-rule="evenodd" clip-rule="evenodd"
            d="M14.9803 14.4171C15.6702 14.3827 16.35 14.4383 17.0195 14.5837C18.5588 15.3015 18.9509 16.4681 18.1959 18.0837C17.9286 18.3959 17.6411 18.6737 17.3332 18.9171C16.515 19.2757 15.6784 19.3312 14.8234 19.0837C13.2359 18.3174 12.8438 17.0952 13.6469 15.4171C14.0044 14.937 14.4488 14.6036 14.9803 14.4171Z"
            fill="#050505" />
        <path fill-rule="evenodd" clip-rule="evenodd"
            d="M17.3335 18.917C16.9553 19.3103 16.4848 19.477 15.9218 19.417C15.4975 19.4477 15.1315 19.3365 14.8237 19.0837C15.6788 19.3312 16.5153 19.2757 17.3335 18.917Z"
            fill="#98999B" />
        <path fill-rule="evenodd" clip-rule="evenodd"
            d="M19.2156 21.7503C19.0901 23.5768 18.2535 24.8825 16.7058 25.667C14.5639 25.8605 13.2567 24.8328 12.7842 22.5837C12.7291 22.1888 12.703 21.7998 12.7058 21.417C14.7909 21.4185 16.8824 21.4185 18.9803 21.417C19.1418 21.473 19.2203 21.5842 19.2156 21.7503Z"
            fill="#ED455D" />
    </g>
    <defs>
        <clipPath id="clip0_4432_255">
            <rect width="32" height="32" fill="white" />
        </clipPath>
    </defs>
</svg>