<svg width="32" height="32" viewBox="0 0 32 32" fill="none" xmlns="http://www.w3.org/2000/svg">
    <rect width="32" height="32" fill="#3A0FF6" fill-opacity="0.63" />
    <path
        d="M15.7984 3.80019C18.749 3.80019 21.8605 4.96489 24.1137 6.9615C28.9419 11.1211 29.6393 18.6084 25.5622 23.6C23.2553 26.373 19.661 28.1478 16.2276 28.1478C14.3499 28.1478 11.6676 27.6487 9.57532 25.2638L8.87791 24.4874C3.83508 18.6639 1.04543 15.4471 7.48309 7.62704C9.41438 5.18673 12.365 3.80019 15.7984 3.80019ZM15.7984 2.13635C13.9804 2.09871 12.1768 2.47694 10.5168 3.24398C8.85666 4.01101 7.38107 5.14789 6.19556 6.57327C-1.36869 15.8908 2.97673 20.1059 8.34144 26.373C10.4873 28.7579 13.277 29.8671 16.2276 29.8671C20.1438 29.8671 24.1673 27.9814 26.796 24.7092C27.9032 23.3477 28.74 21.774 29.2583 20.0779C29.7767 18.3819 29.9666 16.5969 29.8171 14.8249C29.6677 13.0529 29.1818 11.3288 28.3872 9.75112C27.5927 8.17345 26.5051 6.77319 25.1866 5.63042C22.5043 3.3565 19.1245 2.13635 15.7984 2.13635Z"
        fill="white" />
    <path
        d="M12.2577 16.0014C12.2577 13.5611 14.2426 11.5645 16.6031 11.5645C17.676 11.5645 18.588 11.9527 19.3391 12.5628C19.6073 12.7846 19.661 13.2283 19.4464 13.5056C19.2318 13.8384 18.8026 13.8938 18.5344 13.672C17.9432 13.2201 17.2183 12.9951 16.4841 13.0356C15.7499 13.076 15.0522 13.3795 14.5109 13.8938C13.9744 14.4485 13.5989 15.1695 13.5989 16.0014C13.5989 16.8333 13.9744 17.6098 14.4572 18.1089C14.9937 18.6635 15.7984 18.9963 16.6031 18.9963C17.3542 18.9963 17.9979 18.7745 18.5344 18.3308C18.8026 18.1089 19.2318 18.1644 19.4464 18.4417C19.661 18.7745 19.6073 19.2181 19.3391 19.44C18.5555 20.0632 17.5917 20.3953 16.6031 20.3828C16.035 20.3902 15.4711 20.2808 14.9442 20.0612C14.4173 19.8415 13.9379 19.5158 13.5336 19.1031C13.1294 18.6903 12.8085 18.1987 12.5894 17.6568C12.3704 17.1148 12.2576 16.5333 12.2577 15.9459V16.0014Z"
        fill="white" />
</svg>