<svg width="32" height="32" viewBox="0 0 33 33" fill="none" xmlns="http://www.w3.org/2000/svg">
    <path opacity="0.961" fill-rule="evenodd" clip-rule="evenodd"
        d="M8.24193 0.5C15.8118 0.5 23.3817 0.5 30.9516 0.5C31.4516 0.970033 31.8817 1.55073 32.2419 2.2421C32.586 9.40403 32.586 16.566 32.2419 23.728C31.8118 24.2119 31.3817 24.6958 30.9516 25.1797C28.371 25.3733 25.7903 25.5669 23.2097 25.7604C21.3714 27.5364 19.823 29.5689 18.5645 31.8578C17.5859 32.4185 16.5537 32.612 15.4677 32.4385C15.4677 30.5028 15.4677 28.5671 15.4677 26.6315C10.8328 26.236 6.18764 25.9457 1.53226 25.7604C1.25138 25.3439 0.907293 25.0536 0.5 24.8894C0.5 19.0824 0.5 13.2754 0.5 7.46839C2.26902 5.88238 4.33354 5.30168 6.69355 5.72629C6.39677 3.60403 6.9129 1.86194 8.24193 0.5ZM25.2742 11.5333C25.5375 9.85634 25.1934 8.5014 24.2419 7.46839C23.9541 6.71935 23.438 6.23542 22.6935 6.01664C18.2237 5.72644 13.7506 5.62965 9.27419 5.72629C9.18645 4.95857 9.35853 4.28109 9.79032 3.69385C16.328 3.30671 22.8656 3.30671 29.4032 3.69385C29.9022 6.24975 30.0742 8.86288 29.9193 11.5333C28.371 11.5333 26.8226 11.5333 25.2742 11.5333ZM3.59677 9.21049C9.44622 9.21049 15.2957 9.21049 21.1452 9.21049C21.1452 9.98473 21.1452 10.759 21.1452 11.5333C18.3871 11.4369 15.6344 11.5336 12.8871 11.8236C11.6406 12.6745 11.1245 13.9327 11.3387 15.5982C7.89623 15.6463 5.22954 14.0977 3.33871 10.9526C2.95671 10.2271 3.04273 9.64636 3.59677 9.21049ZM14.4355 14.4368C19.4277 14.3401 24.4169 14.4369 29.4032 14.7271C29.9862 17.0955 30.0722 19.5151 29.6613 21.9859C27.0378 22.4546 24.3711 22.7449 21.6613 22.8569C20.543 24.1151 19.4247 25.3733 18.3064 26.6315C18.1542 25.22 17.5521 24.1554 16.5 23.4376C12.0725 23.3319 7.68539 23.0416 3.33871 22.5666C2.99462 20.4373 2.99462 18.3081 3.33871 16.1789C5.73912 18.0786 8.4058 18.8529 11.3387 18.5017C11.3387 19.6631 11.3387 20.8245 11.3387 21.9859C12.1989 21.9859 13.0591 21.9859 13.9193 21.9859C13.7804 19.4125 13.9524 16.8962 14.4355 14.4368Z"
        fill="#7BC947" />
    <path fill-rule="evenodd" clip-rule="evenodd"
        d="M24.2419 7.46826C25.1934 8.50127 25.5375 9.85621 25.2741 11.5332C24.3226 10.5002 23.9785 9.1452 24.2419 7.46826Z"
        fill="#FEFFFE" />
    <path fill-rule="evenodd" clip-rule="evenodd"
        d="M3.59668 9.21035C9.52839 8.53703 15.5499 8.44029 21.6612 8.92C22.4577 10.1075 22.2857 10.9785 21.1451 11.5331C21.1451 10.7589 21.1451 9.9846 21.1451 9.21035C15.2956 9.21035 9.44612 9.21035 3.59668 9.21035Z"
        fill="#FEFFFE" />
</svg>