<svg width="32" height="32" viewBox="0 0 32 32" fill="none" xmlns="http://www.w3.org/2000/svg">
    <path fill-rule="evenodd" clip-rule="evenodd"
        d="M27.3266 18.3642C26.9794 19.0408 26.5761 19.7534 26.1185 20.5052C24.9897 22.3378 23.7485 24.0998 22.4019 25.7811C21.839 26.5198 21.2333 27.2635 20.5815 28.0121C20.2902 28.3782 19.9528 28.7704 19.5725 29.1872L16.7909 32L13.9779 29.1692C13.2775 28.3517 12.5878 27.5252 11.909 26.6898L10.5099 24.9165C9.67046 23.8051 8.92484 22.746 8.26811 21.7359C7.78069 20.9876 7.32223 20.2211 6.89373 19.438C6.74559 19.1765 6.52668 18.7744 6.24029 18.2318C5.28923 16.3391 4.79608 14.2522 4.80007 12.1371C4.80007 8.79146 5.9687 5.93289 8.30925 3.563C10.6597 1.18821 13.4874 0 16.7909 0C20.1124 0 22.9484 1.18821 25.3005 3.563C25.5803 3.85719 25.7844 4.0762 25.9111 4.22167C27.8369 6.45753 28.7998 9.09709 28.7998 12.1371C28.8134 14.2995 28.3085 16.434 27.3266 18.3642ZM14.4322 9.28995C14.4158 9.28995 14.3219 9.21314 14.1524 9.05787L13.4397 9.19025V8.19327L22.4019 6.31861V23.4848C23.9854 21.3698 25.2132 19.4494 26.0856 17.7235L26.1021 17.7071L26.1185 17.6483V7.20936L23.3039 4.76265L12.0653 7.10966V9.46483L6.89373 10.4226V16.2247C7.05339 16.6742 7.24926 17.1302 7.48134 17.5895C7.87308 18.3446 8.13478 18.8381 8.26811 19.0719V11.5487L12.8686 10.6743C12.9015 10.6743 12.9262 10.6678 12.9426 10.658L13.2488 10.5991V13.4708L10.5099 13.9872V22.545C10.9082 23.117 11.374 23.7463 11.909 24.4343V15.1117L14.0931 14.6868H14.1096L16.8666 14.1637V29.9456L18.5537 28.2638C19.3273 27.3648 20.0021 26.5574 20.5815 25.8416V15.0708L18.0747 12.8726H18.0583V12.8562L17.7686 12.6225L16.9653 12.781V11.5062L14.4322 9.28995Z"
        fill="#00B3A3" />
</svg>