<svg width="32" height="32" viewBox="0 0 32 32" fill="none" xmlns="http://www.w3.org/2000/svg">
    <g clip-path="url(#clip0_4261_2739)">
        <path fill-rule="evenodd" clip-rule="evenodd"
            d="M-0.0800781 -0.0800781C10.5866 -0.0800781 21.2532 -0.0800781 31.9199 -0.0800781C31.9199 10.5866 31.9199 21.2532 31.9199 31.9199C21.2532 31.9199 10.5866 31.9199 -0.0800781 31.9199C-0.0800781 21.2532 -0.0800781 10.5866 -0.0800781 -0.0800781Z"
            fill="#010101" />
        <path fill-rule="evenodd" clip-rule="evenodd"
            d="M5.51995 13.68C4.93328 13.2533 4.34662 13.2533 3.75995 13.68C3.24238 13.8552 2.94904 14.2285 2.87995 14.8C2.65382 16.2252 3.24048 17.0785 4.63995 17.36C5.24027 17.2699 5.80027 17.0564 6.31995 16.72C6.71125 16.8683 6.84458 17.135 6.71995 17.52C5.81506 18.2708 4.77506 18.5108 3.59995 18.24C2.62518 17.8262 2.03851 17.1062 1.83995 16.08C1.8347 15.3809 1.88803 14.6876 1.99995 14C2.52931 13.0189 3.35598 12.5389 4.47995 12.56C5.35826 12.4792 6.10491 12.7459 6.71995 13.36C6.79923 13.6756 6.82589 13.9956 6.79995 14.32C6.47995 14.32 6.15995 14.32 5.83995 14.32C5.8833 14.0192 5.77662 13.8059 5.51995 13.68Z"
            fill="#F0F0F0" />
        <path fill-rule="evenodd" clip-rule="evenodd"
            d="M5.52001 13.6804C4.93334 13.467 4.34668 13.467 3.76001 13.6804C4.34668 13.2537 4.93334 13.2537 5.52001 13.6804Z"
            fill="#4D4D4D" />
        <path fill-rule="evenodd" clip-rule="evenodd"
            d="M9.04003 14.8002C9.03043 14.8871 8.9771 14.9404 8.88003 14.9602C8.75809 14.7797 8.65142 14.593 8.56003 14.4002C8.19046 14.3208 7.81712 14.2941 7.44003 14.3202C7.41848 14.6489 7.52515 14.9156 7.76003 15.1202C7.60003 15.1202 7.44003 15.1202 7.28003 15.1202C7.28003 14.8002 7.28003 14.4802 7.28003 14.1602C7.76297 14.1339 8.24297 14.1605 8.72003 14.2402C8.8136 14.4486 8.92027 14.6352 9.04003 14.8002Z"
            fill="#ABABAB" />
        <path fill-rule="evenodd" clip-rule="evenodd"
            d="M9.51997 15.1202C9.3062 15.3618 9.11954 15.6285 8.95997 15.9202C8.88008 16.7184 8.85343 17.5184 8.87997 18.3202C8.50664 18.3202 8.1333 18.3202 7.75997 18.3202C7.75997 17.2534 7.75997 16.1869 7.75997 15.1202C7.52509 14.9155 7.41842 14.6488 7.43997 14.3202C7.81706 14.294 8.1904 14.3207 8.55997 14.4002C8.65136 14.593 8.75804 14.7796 8.87997 14.9602C8.97704 14.9404 9.03037 14.8871 9.03997 14.8002C9.02829 14.5559 9.13496 14.3959 9.35997 14.3202C9.623 14.3543 9.863 14.301 10.08 14.1602C10.1589 14.4216 10.1856 14.6883 10.16 14.9602C9.90413 14.9173 9.69079 14.9706 9.51997 15.1202Z"
            fill="#EAEAEA" />
        <path fill-rule="evenodd" clip-rule="evenodd"
            d="M12.08 13.9996C13.3648 13.872 14.3515 14.352 15.04 15.4396C15.198 17.6713 14.158 18.6047 11.92 18.2396C10.7141 17.5945 10.3141 16.6079 10.72 15.2796C11.065 14.7234 11.5183 14.2968 12.08 13.9996Z"
            fill="#E7E7E7" />
        <path fill-rule="evenodd" clip-rule="evenodd"
            d="M17.04 13.9998C19.1235 13.8703 20.1102 14.8303 20 16.8798C19.3646 18.1957 18.3246 18.6491 16.88 18.2398C15.5611 17.425 15.2678 16.3317 16 14.9598C16.33 14.6024 16.6766 14.2824 17.04 13.9998Z"
            fill="#E9E9E9" />
        <path fill-rule="evenodd" clip-rule="evenodd"
            d="M20.8801 15.1195C21.105 15.0438 21.2118 14.8838 21.2001 14.6395C21.9519 13.844 22.7785 13.7907 23.6801 14.4795C24.1322 14.1852 24.639 14.0785 25.2001 14.1595C25.2001 14.4795 25.2001 14.7995 25.2001 15.1195C25.0401 15.1195 24.8801 15.1195 24.7201 15.1195C24.7902 16.4704 24.7102 17.8038 24.4801 19.1195C24.129 19.5485 23.6758 19.7885 23.1201 19.8395C22.4742 19.9366 21.8342 19.9099 21.2001 19.7595C21.1658 19.4965 21.2193 19.2565 21.3601 19.0395C21.8865 19.0986 22.4198 19.0986 22.9601 19.0395C23.538 18.8667 23.698 18.52 23.4401 17.9995C22.1694 18.5026 21.2894 18.1293 20.8001 16.8795C20.6705 16.2622 20.6972 15.6756 20.8801 15.1195Z"
            fill="#E8E8E8" />
        <path fill-rule="evenodd" clip-rule="evenodd"
            d="M27.12 14.0004C28.3853 13.8997 29.372 14.3797 30.08 15.4404C30.2146 17.6516 29.1746 18.585 26.96 18.2404C25.7533 17.6102 25.3533 16.6236 25.76 15.2804C26.0918 14.7081 26.5451 14.2814 27.12 14.0004Z"
            fill="#E5E5E5" />
        <path fill-rule="evenodd" clip-rule="evenodd"
            d="M2.0001 14C1.88818 14.6876 1.83486 15.381 1.8401 16.08C1.73433 15.8186 1.681 15.5252 1.6801 15.2C1.64809 14.7415 1.75476 14.3415 2.0001 14Z"
            fill="#909090" />
        <path fill-rule="evenodd" clip-rule="evenodd"
            d="M9.52011 15.1198C9.69092 14.9703 9.90427 14.917 10.1601 14.9598C10.1857 14.688 10.1591 14.4213 10.0801 14.1598C9.86313 14.3007 9.62313 14.354 9.36011 14.3198C9.61636 14.068 9.93636 13.9613 10.3201 13.9998C10.3201 14.3732 10.3201 14.7465 10.3201 15.1198C10.0534 15.1198 9.78678 15.1198 9.52011 15.1198Z"
            fill="#BABABA" />
        <path fill-rule="evenodd" clip-rule="evenodd"
            d="M21.2 14.6396C21.2117 14.884 21.105 15.044 20.88 15.1196C20.8683 14.8753 20.9751 14.7153 21.2 14.6396Z"
            fill="#7A7A7A" />
        <path fill-rule="evenodd" clip-rule="evenodd"
            d="M14.0001 15.76C14.0158 16.198 13.9625 16.6247 13.8401 17.04C13.6801 17.1468 13.5201 17.2533 13.3601 17.36C12.9221 17.3759 12.4954 17.3224 12.0801 17.2C11.1695 15.8027 11.5428 15.0827 13.2001 15.04C13.5457 15.1994 13.8124 15.4394 14.0001 15.76Z"
            fill="#0C0C0C" />
        <path fill-rule="evenodd" clip-rule="evenodd"
            d="M18.32 15.1203C17.8821 15.1045 17.4554 15.1578 17.04 15.2803C17.1988 15.036 17.4388 14.9294 17.76 14.9603C17.9816 14.9626 18.1682 15.0159 18.32 15.1203Z"
            fill="#505050" />
        <path fill-rule="evenodd" clip-rule="evenodd"
            d="M18.3201 15.1199C19.146 15.4715 19.3328 16.0581 18.8801 16.8799C18.4147 17.3429 17.8547 17.4762 17.2001 17.2799C17.0592 17.1666 16.9526 17.0332 16.8801 16.8799C16.8548 16.3356 16.9083 15.8022 17.0401 15.2799C17.4555 15.1574 17.8822 15.1041 18.3201 15.1199Z"
            fill="#070707" />
        <path fill-rule="evenodd" clip-rule="evenodd"
            d="M22.16 14.9599C23.5016 14.8345 24.0081 15.4212 23.68 16.7199C23.2283 17.2113 22.695 17.318 22.08 17.0399C21.7491 16.3289 21.7758 15.6356 22.16 14.9599Z"
            fill="#111111" />
        <path fill-rule="evenodd" clip-rule="evenodd"
            d="M27.2801 14.9601C28.8987 14.949 29.3787 15.669 28.7201 17.1201C27.2281 17.6772 26.5616 17.1705 26.7201 15.6001C26.9403 15.4073 27.1268 15.1939 27.2801 14.9601Z"
            fill="#0C0C0C" />
        <path fill-rule="evenodd" clip-rule="evenodd"
            d="M17.0399 15.2803C16.908 15.8026 16.8546 16.336 16.8799 16.8803C16.4298 16.302 16.4832 15.7687 17.0399 15.2803Z"
            fill="#3B3B3B" />
        <path fill-rule="evenodd" clip-rule="evenodd"
            d="M14.0001 15.7598C14.1045 15.9115 14.1578 16.0982 14.1601 16.3198C14.191 16.641 14.0843 16.881 13.8401 17.0398C13.9625 16.6244 14.0159 16.1977 14.0001 15.7598Z"
            fill="#8F8F8F" />
        <path fill-rule="evenodd" clip-rule="evenodd"
            d="M12.0801 17.2002C12.4955 17.3226 12.9221 17.376 13.3601 17.3602C13.2083 17.4645 13.0216 17.518 12.8001 17.5202C12.4788 17.5511 12.2388 17.4444 12.0801 17.2002Z"
            fill="#767676" />
    </g>
    <defs>
        <clipPath id="clip0_4261_2739">
            <rect width="32" height="32" fill="white" />
        </clipPath>
    </defs>
</svg>