<svg width="32" height="32" viewBox="0 0 32 32" fill="none" xmlns="http://www.w3.org/2000/svg">
    <g clip-path="url(#clip0_4635_1572)">
        <path opacity="0.999" fill-rule="evenodd" clip-rule="evenodd"
            d="M7.65001 -0.0498047C13.15 -0.0498047 18.65 -0.0498047 24.15 -0.0498047C28.5833 0.716862 31.1833 3.31687 31.95 7.7502C31.95 13.2169 31.95 18.6835 31.95 24.1502C31.1833 28.5835 28.5833 31.1835 24.15 31.9502C18.6833 31.9502 13.2167 31.9502 7.75001 31.9502C3.31668 31.1835 0.716679 28.5835 -0.0499878 24.1502C-0.0499878 18.6502 -0.0499878 13.1502 -0.0499878 7.6502C0.686083 3.24746 3.25275 0.68079 7.65001 -0.0498047Z"
            fill="#263238" />
        <path fill-rule="evenodd" clip-rule="evenodd"
            d="M17.05 5.54999C20.6206 5.39108 24.1206 5.80775 27.55 6.79999C27.9223 6.92586 28.0223 7.1592 27.85 7.49999C25.5506 7.46252 23.2506 7.46252 20.95 7.49999C18.0565 7.64207 15.4565 8.57541 13.15 10.3C11.8485 11.4525 10.9651 12.8692 10.5 14.55C9.92787 15.4854 9.1112 15.7687 8.04998 15.4C5.8221 15.0599 5.10543 13.8432 5.89998 11.75C7.26374 8.98942 9.44708 7.20608 12.45 6.39999C13.9722 5.98071 15.5056 5.69738 17.05 5.54999Z"
            fill="#FCFCFC" />
        <path fill-rule="evenodd" clip-rule="evenodd"
            d="M21.35 9.25023C22.8248 9.20165 24.2915 9.28498 25.75 9.50023C26.0637 9.56034 26.3637 9.66034 26.65 9.80023C26.786 9.99399 26.7527 10.1606 26.55 10.3002C25.1912 10.4283 23.8246 10.5283 22.45 10.6002C19.1905 11.0935 17.0738 12.9102 16.1 16.0502C15.9833 16.2335 15.8333 16.3835 15.65 16.5002C14.8057 16.5804 13.9724 16.5137 13.15 16.3002C12.7278 16.0393 12.5278 15.656 12.55 15.1502C12.7861 13.7283 13.4528 12.5449 14.55 11.6002C15.8125 10.6787 17.2125 10.0453 18.75 9.70023C19.6297 9.54327 20.4964 9.39327 21.35 9.25023Z"
            fill="#FAFBFB" />
        <path fill-rule="evenodd" clip-rule="evenodd"
            d="M22.75 12.7499C23.2179 12.7333 23.6845 12.75 24.15 12.7999C24.4346 12.8878 24.5013 13.0545 24.35 13.2999C22.6036 13.2478 21.2869 13.9644 20.4 15.4499C20.1629 16.0074 19.9129 16.5574 19.65 17.0999C19.2289 17.2533 18.7956 17.2866 18.35 17.1999C17.9708 16.9946 17.8542 16.678 18 16.2499C18.4676 14.7823 19.4176 13.7657 20.85 13.1999C21.4857 12.9991 22.119 12.8491 22.75 12.7499Z"
            fill="#F8F8F9" />
        <path fill-rule="evenodd" clip-rule="evenodd"
            d="M5.94999 17.3501C7.16878 17.3505 8.33544 17.6005 9.44999 18.1001C9.67088 18.2874 9.85421 18.5041 9.99999 18.7501C9.98948 21.4461 11.0728 23.5628 13.25 25.1001C13.8269 25.4813 14.4602 25.6813 15.15 25.7001C15.2554 25.8389 15.272 25.9889 15.2 26.1501C14.8901 26.3825 14.5401 26.5325 14.15 26.6001C8.22075 26.6709 5.30409 23.7542 5.39999 17.8501C5.57296 17.6599 5.75629 17.4932 5.94999 17.3501Z"
            fill="#FCFCFC" />
        <path fill-rule="evenodd" clip-rule="evenodd"
            d="M12.95 18.3501C13.873 18.3803 14.773 18.5303 15.65 18.8001C15.9123 19.7309 16.2289 20.6476 16.6 21.5501C17.1296 22.4898 17.913 23.1065 18.95 23.4001C19.1515 23.5556 19.1848 23.739 19.05 23.9501C16.5992 24.6337 14.6826 23.9004 13.3 21.7501C12.6838 20.8026 12.4505 19.7693 12.6 18.6501C12.7145 18.5365 12.8312 18.4365 12.95 18.3501Z"
            fill="#FBFBFB" />
        <path fill-rule="evenodd" clip-rule="evenodd"
            d="M18.25 18.9501C18.6514 18.9335 19.0514 18.9502 19.45 19.0001C19.5 19.0501 19.55 19.1001 19.6 19.1501C19.7486 19.5777 19.8819 20.011 20 20.4501C20.2026 20.8027 20.4859 21.0694 20.85 21.2501C20.9747 21.4007 20.9747 21.5507 20.85 21.7001C19.3467 21.798 18.3967 21.1147 18 19.6501C17.8916 19.3342 17.975 19.1009 18.25 18.9501Z"
            fill="#F6F7F7" />
    </g>
    <defs>
        <clipPath id="clip0_4635_1572">
            <rect width="32" height="32" fill="white" />
        </clipPath>
    </defs>
</svg>