<svg width="32" height="32" viewBox="0 0 32 32" fill="none" xmlns="http://www.w3.org/2000/svg">
    <g clip-path="url(#clip0_2499_372)">
        <path fill-rule="evenodd" clip-rule="evenodd"
            d="M-0.0800781 -0.0799561C10.5866 -0.0799561 21.2532 -0.0799561 31.9199 -0.0799561C31.9199 10.5867 31.9199 21.2533 31.9199 31.92C21.2532 31.92 10.5866 31.92 -0.0800781 31.92C-0.0800781 21.2533 -0.0800781 10.5867 -0.0800781 -0.0799561Z"
            fill="#F9F9FC" />
        <path fill-rule="evenodd" clip-rule="evenodd"
            d="M30.7999 2.16001C30.7999 2.21334 30.7999 2.26668 30.7999 2.32001C30.6401 11.6263 30.5868 20.9597 30.6399 30.32C21.2531 30.3467 11.8664 30.32 2.47993 30.24C2.20502 30.1846 1.93835 30.1046 1.67993 30C1.58616 30.0334 1.50616 30.0869 1.43993 30.16C1.25444 25.4269 1.17444 20.6802 1.19993 15.92C1.20055 11.2201 1.25388 6.52675 1.35993 1.84001C1.72252 1.70974 2.09585 1.62974 2.47993 1.60001C11.8664 1.52001 21.2531 1.49334 30.6399 1.52001C30.5971 1.77585 30.6505 1.98919 30.7999 2.16001Z"
            fill="#141A5C" />
        <path fill-rule="evenodd" clip-rule="evenodd"
            d="M30.8 1.35999C30.8 1.62666 30.8 1.89331 30.8 2.15999C30.6506 1.98917 30.5972 1.77583 30.64 1.51999C21.2532 1.49332 11.8666 1.51999 2.48004 1.59999C2.09596 1.62971 1.72263 1.70971 1.36004 1.83999C1.25399 6.52672 1.20066 11.2201 1.20004 15.92C1.17455 20.6801 1.25455 25.4269 1.44004 30.16C1.50627 30.0869 1.58627 30.0334 1.68004 30C1.93846 30.1046 2.20513 30.1846 2.48004 30.24C11.8666 30.32 21.2532 30.3467 30.64 30.32C30.5869 20.9597 30.6402 11.6263 30.8 2.31999C30.8 11.7067 30.8 21.0933 30.8 30.48C20.88 30.48 10.96 30.48 1.04004 30.48C1.04004 20.7733 1.04004 11.0667 1.04004 1.35999C10.96 1.35999 20.88 1.35999 30.8 1.35999Z"
            fill="#181B4C" />
        <path fill-rule="evenodd" clip-rule="evenodd"
            d="M2.63998 29.52C11.92 29.52 21.2 29.52 30.48 29.52C30.48 29.68 30.48 29.84 30.48 30C21.1461 30.0533 11.8127 30 2.47998 29.84C2.53801 29.7307 2.59136 29.624 2.63998 29.52Z"
            fill="#141960" />
        <path fill-rule="evenodd" clip-rule="evenodd"
            d="M21.8399 19.28C21.8932 19.28 21.9466 19.28 21.9999 19.28C22.5937 19.6293 23.2337 19.8693 23.9199 20C25.1988 20.08 26.4788 20.1066 27.7599 20.08C25.7954 20.2546 23.8222 20.2546 21.8399 20.08C21.7516 19.8395 21.7516 19.573 21.8399 19.28Z"
            fill="#092356" />
        <path fill-rule="evenodd" clip-rule="evenodd"
            d="M14.48 19.76C15.3832 19.9546 16.2899 19.9546 17.2 19.76C16.743 20.001 16.2363 20.1075 15.68 20.08C15.3333 20.0533 14.9867 20.0267 14.64 20C14.551 19.9387 14.4977 19.8587 14.48 19.76Z"
            fill="#0A3C5E" />
        <path fill-rule="evenodd" clip-rule="evenodd"
            d="M23.6001 18.3199C25.0401 18.3199 26.4801 18.3199 27.9201 18.3199C27.9705 18.9393 27.9172 19.526 27.7601 20.0799C26.479 20.1065 25.199 20.0799 23.9201 19.9999C23.2338 19.8692 22.5938 19.6292 22.0001 19.2799C21.9468 19.1732 21.8934 19.0667 21.8401 18.9599C22.4426 19.1505 23.0294 19.3905 23.6001 19.6799C24.9857 19.7599 26.3724 19.7865 27.7601 19.7599C27.7601 19.3332 27.7601 18.9067 27.7601 18.4799C26.3442 18.5321 24.9575 18.4788 23.6001 18.3199Z"
            fill="#55BEC6" />
        <path fill-rule="evenodd" clip-rule="evenodd"
            d="M6.64011 18.3199C8.02678 18.3199 9.41344 18.3199 10.8001 18.3199C10.8001 18.9067 10.8001 19.4932 10.8001 20.0799C9.19382 20.1212 7.59382 20.0678 6.00011 19.9199C5.78678 19.7599 5.57344 19.5999 5.36011 19.4399C7.10233 19.7307 8.86233 19.8374 10.6401 19.7599C10.6401 19.3332 10.6401 18.9067 10.6401 18.4799C9.27742 18.5321 7.94409 18.4788 6.64011 18.3199Z"
            fill="#52BAC3" />
        <path fill-rule="evenodd" clip-rule="evenodd"
            d="M3.9199 18.16C4.29972 18.6999 4.77972 19.1266 5.3599 19.44C5.57323 19.6 5.78657 19.76 5.9999 19.92C5.44952 19.8255 4.91619 19.6655 4.3999 19.44C4.30614 19.4735 4.22614 19.5269 4.1599 19.6C3.95372 19.1439 3.87372 18.6639 3.9199 18.16Z"
            fill="#0E2456" />
        <path fill-rule="evenodd" clip-rule="evenodd"
            d="M18.96 18.16C18.9217 18.4748 18.975 18.7682 19.12 19.04C18.5107 19.3588 17.8707 19.5988 17.2 19.76C17.8865 19.3404 18.4731 18.8071 18.96 18.16Z"
            fill="#0D2858" />
        <path fill-rule="evenodd" clip-rule="evenodd"
            d="M17.8399 12.72C18.3732 12.72 18.9066 12.72 19.4399 12.72C19.4665 14.161 19.4399 15.601 19.3599 17.04C19.2244 17.4166 19.0911 17.7901 18.9599 18.16C18.473 18.807 17.8865 19.3403 17.1999 19.76C16.2898 19.9545 15.3831 19.9545 14.4799 19.76C13.9219 19.5608 13.4419 19.2408 13.0399 18.8C12.7638 18.5235 12.5505 18.2035 12.3999 17.84C12.5599 17.84 12.7199 17.84 12.8799 17.84C12.856 18.0083 12.8827 18.1683 12.9599 18.32C13.1217 18.1861 13.3084 18.1328 13.5199 18.16C13.5199 18.4267 13.5199 18.6933 13.5199 18.96C13.8678 18.9891 14.1878 19.0958 14.4799 19.28C14.9023 19.1761 15.3023 19.0161 15.6799 18.8C15.928 18.8886 16.1681 18.9952 16.3999 19.12C16.7951 18.8077 17.2218 18.7544 17.6799 18.96C17.8711 18.6725 18.1378 18.5125 18.4799 18.48C18.509 18.1454 18.4556 17.8254 18.3199 17.52C18.3732 17.4667 18.4266 17.4133 18.4799 17.36C18.5866 17.4667 18.6932 17.5733 18.7999 17.68C19.0293 17.4048 19.1626 17.0848 19.1999 16.72C19.2799 15.4411 19.3065 14.1611 19.2799 12.88C18.8532 12.88 18.4266 12.88 17.9999 12.88C18.0265 14.2677 17.9999 15.6543 17.9199 17.04C17.8789 17.7184 17.5324 18.0384 16.8799 18C17.3506 17.6353 17.6173 17.1553 17.6799 16.56C17.8386 15.3094 17.8921 14.0294 17.8399 12.72Z"
            fill="#56DBD2" />
        <path fill-rule="evenodd" clip-rule="evenodd"
            d="M23.12 12.88C24.6133 12.88 26.1067 12.88 27.6 12.88C27.6 13.3067 27.6 13.7333 27.6 14.16C26.1057 14.1334 24.6123 14.16 23.12 14.24C22.6957 14.4103 22.4024 14.7037 22.24 15.12C22.1078 15.9343 22.1613 16.7342 22.4 17.52C22.5305 17.7317 22.7173 17.8382 22.96 17.84C23.0667 17.8933 23.1733 17.9467 23.28 18C23.3867 18.1067 23.4933 18.2133 23.6 18.32C24.9574 18.4789 26.3441 18.5322 27.76 18.48C27.76 18.9067 27.76 19.3333 27.76 19.76C26.3723 19.7866 24.9856 19.76 23.6 19.68C23.0293 19.3906 22.4425 19.1506 21.84 18.96C21.5958 18.3634 21.3025 17.7766 20.96 17.2C20.8801 16.6157 20.8536 16.0291 20.88 15.44C21.2147 15.4498 21.4547 15.6098 21.6 15.92C21.6693 15.5738 21.5893 15.2538 21.36 14.96C21.9872 14.2864 22.5739 13.5931 23.12 12.88Z"
            fill="#4DE7D1" />
        <path fill-rule="evenodd" clip-rule="evenodd"
            d="M23.28 18C24.8509 18.0899 26.3975 18.1966 27.92 18.32C26.48 18.32 25.04 18.32 23.6 18.32C23.4933 18.2133 23.3867 18.1067 23.28 18Z"
            fill="#013052" />
        <path fill-rule="evenodd" clip-rule="evenodd"
            d="M13.68 12.72C13.1467 12.72 12.6133 12.72 12.08 12.72C12.0534 14.2143 12.08 15.7076 12.16 17.2C12.2046 17.3466 12.2846 17.4531 12.4 17.52C12.4 17.6267 12.4 17.7333 12.4 17.84C12.5506 18.2035 12.7639 18.5235 13.04 18.8C12.4961 18.6349 12.0694 18.3149 11.76 17.84C11.9164 16.0883 11.9698 14.3282 11.92 12.56C12.5394 12.5096 13.1261 12.5629 13.68 12.72Z"
            fill="#112F5E" />
        <path fill-rule="evenodd" clip-rule="evenodd"
            d="M21.6799 13.68C20.7069 14.9229 20.4669 16.3096 20.9599 17.84C21.1095 18.3352 21.4029 18.7086 21.8399 18.96C21.8932 19.0667 21.9466 19.1733 21.9999 19.28C21.9466 19.28 21.8932 19.28 21.8399 19.28C20.825 18.4805 20.3983 17.4137 20.5599 16.08C20.5201 15.2512 20.7335 14.5045 21.1999 13.84C21.3319 13.6983 21.4919 13.6449 21.6799 13.68Z"
            fill="#103961" />
        <path fill-rule="evenodd" clip-rule="evenodd"
            d="M13.9999 17.36C14.1693 17.6888 14.436 17.9022 14.7999 18C15.0042 18.2237 15.2709 18.3302 15.5999 18.32C16.0372 18.2451 16.4639 18.1384 16.8799 18C17.5324 18.0384 17.8789 17.7184 17.9199 17.04C17.9999 15.6544 18.0265 14.2677 17.9999 12.88C18.4266 12.88 18.8532 12.88 19.2799 12.88C19.3065 14.1611 19.2799 15.4411 19.1999 16.72C19.1626 17.0848 19.0293 17.4048 18.7999 17.68C18.6932 17.5733 18.5866 17.4667 18.4799 17.36C18.4266 17.4133 18.3732 17.4667 18.3199 17.52C18.4556 17.8254 18.509 18.1454 18.4799 18.48C18.1378 18.5125 17.8711 18.6725 17.6799 18.96C17.2218 18.7544 16.7951 18.8077 16.3999 19.12C16.1681 18.9952 15.928 18.8886 15.6799 18.8C15.3023 19.0162 14.9023 19.1762 14.4799 19.28C14.1878 19.0958 13.8678 18.9891 13.5199 18.96C13.5199 18.6933 13.5199 18.4267 13.5199 18.16C13.3084 18.1328 13.1217 18.1861 12.9599 18.32C12.8827 18.1683 12.856 18.0083 12.8799 17.84C12.7199 17.84 12.5599 17.84 12.3999 17.84C12.3999 17.7333 12.3999 17.6267 12.3999 17.52C12.2572 15.9785 12.2039 14.4319 12.2399 12.88C12.6666 12.88 13.0932 12.88 13.5199 12.88C13.4933 14.2677 13.5199 15.6544 13.5999 17.04C13.6666 17.241 13.7999 17.3477 13.9999 17.36Z"
            fill="#4DE7D2" />
        <path fill-rule="evenodd" clip-rule="evenodd"
            d="M17.68 16.5601C17.6175 17.1554 17.3508 17.6354 16.88 18.0001C16.464 18.1385 16.0373 18.2452 15.6 18.3201C15.271 18.3303 15.0043 18.2237 14.8 18.0001C16.1628 18.2788 17.1228 17.7988 17.68 16.5601Z"
            fill="#082E59" />
        <path fill-rule="evenodd" clip-rule="evenodd"
            d="M5.03988 13.36C5.04158 13.6028 5.14823 13.7894 5.35988 13.92C4.32278 14.168 3.84278 14.8347 3.91988 15.92C4.1517 16.7592 4.33836 17.6126 4.47988 18.48C4.86071 18.7272 5.15404 19.0472 5.35988 19.44C4.7797 19.1265 4.2997 18.6998 3.91988 18.16C3.50066 16.9816 3.50066 15.8083 3.91988 14.64C4.1786 14.1145 4.55193 13.6878 5.03988 13.36Z"
            fill="#56D9D3" />
        <path fill-rule="evenodd" clip-rule="evenodd"
            d="M23.1201 14.8C22.6564 15.3927 22.443 16.086 22.4801 16.88C22.1414 16.0271 22.3547 15.3338 23.1201 14.8Z"
            fill="#052D56" />
        <path fill-rule="evenodd" clip-rule="evenodd"
            d="M6.00003 14.8C5.80435 15.3979 5.64435 16.0112 5.52003 16.64C5.66692 16.9738 5.77358 17.3205 5.84003 17.68C5.31875 17.221 5.1054 16.6343 5.20003 15.92C5.27606 15.5547 5.43606 15.2347 5.68003 14.96C5.7867 14.9067 5.89336 14.8534 6.00003 14.8Z"
            fill="#0A2959" />
        <path fill-rule="evenodd" clip-rule="evenodd"
            d="M5.19988 15.92C5.10526 16.6343 5.3186 17.221 5.83988 17.68C6.02737 18.0063 6.29403 18.2196 6.63988 18.32C6.31988 18.32 5.99988 18.32 5.67988 18.32C5.35169 17.7096 5.08502 17.0696 4.87988 16.4C4.90227 16.1552 5.00892 15.9953 5.19988 15.92Z"
            fill="#57CECE" />
        <path fill-rule="evenodd" clip-rule="evenodd"
            d="M3.91999 14.64C3.50077 15.8083 3.50077 16.9816 3.91999 18.16C3.47236 17.5899 3.25903 16.9232 3.27999 16.16C3.18504 15.4937 3.39837 14.987 3.91999 14.64Z"
            fill="#0F3560" />
        <path fill-rule="evenodd" clip-rule="evenodd"
            d="M24.0801 15.4399C24.6668 15.4399 25.2534 15.4399 25.8401 15.4399C25.8401 16.0267 25.8401 16.6132 25.8401 17.1999C25.251 17.2263 24.6644 17.1998 24.0801 17.1199C23.4505 16.5606 23.4505 16.0006 24.0801 15.4399Z"
            fill="#55C4CA" />
        <path fill-rule="evenodd" clip-rule="evenodd"
            d="M24.0799 15.76C24.6132 15.76 25.1466 15.76 25.6799 15.76C25.6799 16.1333 25.6799 16.5067 25.6799 16.88C25.1439 16.9064 24.6106 16.8797 24.0799 16.8C23.877 16.4539 23.877 16.1072 24.0799 15.76Z"
            fill="#4DE7D0" />
        <path fill-rule="evenodd" clip-rule="evenodd"
            d="M23.1201 12.88C22.574 13.5931 21.9873 14.2864 21.3601 14.96C21.5894 15.2538 21.6694 15.5738 21.6001 15.92C21.4548 15.6098 21.2148 15.4498 20.8801 15.44C20.8537 16.0291 20.8802 16.6157 20.9601 17.2C21.3026 17.7766 21.5959 18.3634 21.8401 18.96C21.4031 18.7086 21.1097 18.3352 20.9601 17.84C20.4671 16.3096 20.7071 14.9229 21.6801 13.68C22.087 13.2897 22.567 13.023 23.1201 12.88Z"
            fill="#58DAD4" />
        <path fill-rule="evenodd" clip-rule="evenodd"
            d="M17.8401 12.72C18.394 12.5629 18.9807 12.5096 19.6001 12.56C19.6489 14.1084 19.6756 15.655 19.6801 17.2C19.6295 17.6794 19.3895 17.9994 18.9601 18.16C19.0913 17.7901 19.2246 17.4166 19.3601 17.04C19.4401 15.601 19.4666 14.161 19.4401 12.72C18.9068 12.72 18.3734 12.72 17.8401 12.72Z"
            fill="#0E275A" />
        <path fill-rule="evenodd" clip-rule="evenodd"
            d="M10.8 14.32C9.1973 14.3952 7.5973 14.5552 6 14.8C6.08923 14.5937 6.24923 14.4603 6.48 14.4C7.91901 14.3201 9.35901 14.2934 10.8 14.32Z"
            fill="#072D59" />
        <path fill-rule="evenodd" clip-rule="evenodd"
            d="M23.12 12.88C24.6911 12.721 26.2911 12.6676 27.92 12.72C27.92 13.2534 27.92 13.7867 27.92 14.32C26.4791 14.2934 25.0391 14.3201 23.6 14.4C23.3693 14.4603 23.2093 14.5936 23.12 14.8C22.3546 15.3338 22.1413 16.0271 22.48 16.88C22.4984 17.2715 22.6584 17.5915 22.96 17.84C22.7173 17.8383 22.5306 17.7317 22.4 17.52C22.1613 16.7343 22.1079 15.9343 22.24 15.12C22.4024 14.7037 22.6957 14.4103 23.12 14.24C24.6123 14.1601 26.1058 14.1334 27.6 14.16C27.6 13.7334 27.6 13.3067 27.6 12.88C26.1067 12.88 24.6133 12.88 23.12 12.88Z"
            fill="#5AD0D1" />
        <path fill-rule="evenodd" clip-rule="evenodd"
            d="M10.8 14.3199C9.35905 14.2933 7.91905 14.32 6.48004 14.3999C6.24927 14.4602 6.08927 14.5936 6.00004 14.7999C5.89337 14.8533 5.78671 14.9066 5.68004 14.9599C5.67687 14.6971 5.78353 14.4837 6.00004 14.3199C7.54303 14.1602 9.0897 14.1069 10.64 14.1599C10.64 13.7333 10.64 13.3066 10.64 12.8799C9.19905 12.8533 7.75905 12.88 6.32004 12.9599C5.93463 13.233 5.50796 13.3664 5.04004 13.3599C5.32366 13.1372 5.64366 12.9505 6.00004 12.7999C7.59914 12.72 9.19914 12.6933 10.8 12.7199C10.8 13.2533 10.8 13.7866 10.8 14.3199Z"
            fill="#5BD1D1" />
        <path fill-rule="evenodd" clip-rule="evenodd"
            d="M13.6801 12.72C13.6534 14.0544 13.6801 15.3877 13.7601 16.72C13.8867 16.9192 13.9667 17.1325 14.0001 17.36C13.8001 17.3477 13.6668 17.2409 13.6001 17.04C13.5201 15.6543 13.4934 14.2677 13.5201 12.88C13.0934 12.88 12.6667 12.88 12.2401 12.88C12.204 14.4318 12.2573 15.9785 12.4001 17.52C12.2846 17.4531 12.2046 17.3465 12.1601 17.2C12.0801 15.7076 12.0534 14.2143 12.0801 12.72C12.6134 12.72 13.1467 12.72 13.6801 12.72Z"
            fill="#61D7D8" />
        <path fill-rule="evenodd" clip-rule="evenodd"
            d="M5.68011 14.96C5.43614 15.2346 5.27614 15.5546 5.20011 15.92C5.00915 15.9952 4.9025 16.1552 4.88011 16.4C5.08525 17.0696 5.35192 17.7096 5.68011 18.32C6.00011 18.32 6.32011 18.32 6.64011 18.32C7.9441 18.4789 9.27742 18.5321 10.6401 18.48C10.6401 18.9067 10.6401 19.3333 10.6401 19.76C8.86234 19.8374 7.10234 19.7307 5.36011 19.44C5.15427 19.0472 4.86094 18.7272 4.48011 18.48C4.33859 17.6126 4.15194 16.7592 3.92011 15.92C3.84301 14.8347 4.32301 14.168 5.36011 13.92C5.14846 13.7894 5.04181 13.6028 5.04011 13.36C5.50803 13.3664 5.9347 13.2331 6.32011 12.96C7.75912 12.88 9.19912 12.8533 10.6401 12.88C10.6401 13.3066 10.6401 13.7333 10.6401 14.16C9.08978 14.1069 7.5431 14.1602 6.00011 14.32C5.7836 14.4838 5.67694 14.6971 5.68011 14.96Z"
            fill="#4DE7D1" />
        <path fill-rule="evenodd" clip-rule="evenodd"
            d="M30.8 1.35999C30.9599 11.093 31.0132 20.8529 30.96 30.64C20.9597 30.6931 10.9863 30.6398 1.04004 30.48C10.96 30.48 20.88 30.48 30.8 30.48C30.8 21.0933 30.8 11.7067 30.8 2.31999C30.8 2.26666 30.8 2.21331 30.8 2.15999C30.8 1.89331 30.8 1.62666 30.8 1.35999Z"
            fill="#A9ADCD" />
    </g>
    <defs>
        <clipPath id="clip0_2499_372">
            <rect width="32" height="32" fill="white" />
        </clipPath>
    </defs>
</svg>