<svg width="32" height="32" viewBox="0 0 32 32" fill="none" xmlns="http://www.w3.org/2000/svg">
    <g clip-path="url(#clip0_3339_2393)">
        <path fill-rule="evenodd" clip-rule="evenodd"
            d="M-0.0800171 -0.0800781C10.5867 -0.0800781 21.2533 -0.0800781 31.92 -0.0800781C31.92 10.5866 31.92 21.2532 31.92 31.9199C21.2533 31.9199 10.5867 31.9199 -0.0800171 31.9199C-0.0800171 21.2532 -0.0800171 10.5866 -0.0800171 -0.0800781Z"
            fill="#FEFEFE" />
        <path fill-rule="evenodd" clip-rule="evenodd"
            d="M17.84 6.95921C21.3344 6.9063 24.801 6.95965 28.24 7.11921C24.9056 7.06633 21.5989 7.11966 18.32 7.27921C18.1264 7.21008 17.9664 7.10342 17.84 6.95921Z"
            fill="#4A63A1" />
        <path fill-rule="evenodd" clip-rule="evenodd"
            d="M17.52 6.95921C14.3844 7.25265 13.3444 8.90598 14.4 11.9192C15.2081 12.9506 16.248 13.4306 17.52 13.3592C14.9594 13.3326 12.3994 13.3592 9.83999 13.4392C8.71631 13.9034 8.07631 14.7301 7.91999 15.9192C7.89831 14.355 7.15164 13.315 5.67999 12.7992C4.91881 12.6696 4.17214 12.723 3.43999 12.9592C2.70836 13.4505 2.1217 14.0638 1.67999 14.7992C2.47852 10.5606 4.98518 7.97398 9.19999 7.03921C11.9728 6.95923 14.7462 6.93256 17.52 6.95921Z"
            fill="#0FA3C7" />
        <path fill-rule="evenodd" clip-rule="evenodd"
            d="M17.52 6.96094C17.6267 6.96094 17.7333 6.96094 17.84 6.96094C17.9664 7.10515 18.1264 7.2118 18.32 7.28094C20.1754 8.28631 20.6819 9.77964 19.84 11.7609C19.5022 12.3924 18.9955 12.819 18.32 13.0409C18.1264 13.1101 17.9664 13.2167 17.84 13.3609C17.7333 13.3609 17.6267 13.3609 17.52 13.3609C16.248 13.4323 15.2081 12.9523 14.4 11.9209C13.3444 8.90771 14.3844 7.25438 17.52 6.96094Z"
            fill="#0981B3" />
        <path fill-rule="evenodd" clip-rule="evenodd"
            d="M18.32 7.27936C21.5989 7.1198 24.9056 7.06648 28.24 7.11936C30.3157 7.85728 31.0357 9.29728 30.4 11.4394C29.9914 12.4079 29.2714 12.9946 28.24 13.1994C24.9056 13.2522 21.5989 13.1989 18.32 13.0394C18.9955 12.8174 19.5022 12.3908 19.84 11.7594C20.6819 9.77806 20.1754 8.28473 18.32 7.27936Z"
            fill="#0D2E82" />
        <path fill-rule="evenodd" clip-rule="evenodd"
            d="M18.32 13.0391C21.5989 13.1986 24.9056 13.2519 28.24 13.1991C24.801 13.3586 21.3344 13.412 17.84 13.3591C17.9664 13.2149 18.1264 13.1082 18.32 13.0391Z"
            fill="#4B64A2" />
        <path fill-rule="evenodd" clip-rule="evenodd"
            d="M21.52 14.3203C21.9816 14.2713 22.4083 14.3246 22.8 14.4803C22.4832 16.4466 22.3765 18.4733 22.48 20.5603C22.16 20.5603 21.84 20.5603 21.52 20.5603C21.52 18.4803 21.52 16.4003 21.52 14.3203Z"
            fill="#F76500" />
        <path fill-rule="evenodd" clip-rule="evenodd"
            d="M21.36 14.3208C23.3589 14.1352 25.3856 14.1085 27.44 14.2408C30.0531 15.0908 30.7731 16.7707 29.6 19.2808C29.1667 19.8574 28.6067 20.2574 27.92 20.4808C26.908 20.5608 25.8947 20.5873 24.88 20.5608C24.9065 19.1731 24.88 17.7864 24.8 16.4008C24.4673 15.4012 23.8006 14.7612 22.8 14.4808C22.4083 14.3251 21.9816 14.2717 21.52 14.3208C21.4667 14.3208 21.4133 14.3208 21.36 14.3208Z"
            fill="#FC930D" />
        <path fill-rule="evenodd" clip-rule="evenodd"
            d="M21.36 14.3203C21.4133 14.3203 21.4667 14.3203 21.52 14.3203C21.52 16.4003 21.52 18.4803 21.52 20.5603C20.0629 20.3278 19.1029 19.5278 18.64 18.1603C18.3741 16.0195 19.2808 14.7396 21.36 14.3203Z"
            fill="#F97B01" />
        <path fill-rule="evenodd" clip-rule="evenodd"
            d="M22.8 14.4805C23.8006 14.7609 24.4674 15.4009 24.8 16.4005C24.88 17.7861 24.9066 19.1728 24.88 20.5605C24.08 20.5605 23.28 20.5605 22.48 20.5605C22.3765 18.4734 22.4832 16.4467 22.8 14.4805Z"
            fill="#F55300" />
        <path fill-rule="evenodd" clip-rule="evenodd"
            d="M7.91999 15.9193C7.91999 16.0793 7.91999 16.2393 7.91999 16.3993C7.32058 18.4875 5.93393 19.3142 3.75999 18.8793C2.63847 18.4679 1.94514 17.6945 1.67999 16.5593C1.67999 15.9726 1.67999 15.386 1.67999 14.7993C2.1217 14.0639 2.70836 13.4506 3.43999 12.9593C4.17214 12.7231 4.91881 12.6697 5.67999 12.7993C7.15164 13.3151 7.89831 14.3551 7.91999 15.9193Z"
            fill="#0796C0" />
        <path fill-rule="evenodd" clip-rule="evenodd"
            d="M7.91999 16.4004C8.24087 17.1762 8.7742 17.7895 9.51999 18.2404C11.2685 18.4428 13.0285 18.5495 14.8 18.5604C17.1158 19.5335 17.7291 21.1601 16.64 23.4404C16.2013 24.019 15.6412 24.419 14.96 24.6404C12.6591 24.7862 10.3658 24.7329 8.07999 24.4804C4.33087 23.1569 2.19754 20.5169 1.67999 16.5604C1.94514 17.6956 2.63847 18.469 3.75999 18.8804C5.93393 19.3153 7.32058 18.4886 7.91999 16.4004Z"
            fill="#6EBC23" />
        <path fill-rule="evenodd" clip-rule="evenodd"
            d="M18.64 18.1602C19.1029 19.5277 20.0629 20.3277 21.52 20.5602C21.84 20.5602 22.16 20.5602 22.48 20.5602C23.28 20.5602 24.08 20.5602 24.88 20.5602C25.0954 23.7325 23.6554 25.0925 20.56 24.6402C19.6013 24.2147 18.988 23.4947 18.72 22.4802C18.64 21.0411 18.6135 19.6011 18.64 18.1602Z"
            fill="#C90618" />
    </g>
    <defs>
        <clipPath id="clip0_3339_2393">
            <rect width="32" height="32" fill="white" />
        </clipPath>
    </defs>
</svg>