<svg width="32" height="32" viewBox="0 0 32 32" fill="none" xmlns="http://www.w3.org/2000/svg">
    <g clip-path="url(#clip0_4211_674)">
        <path fill-rule="evenodd" clip-rule="evenodd"
            d="M-0.071167 -0.0712891C10.5955 -0.0712891 21.2622 -0.0712891 31.9288 -0.0712891C31.9288 10.5954 31.9288 21.262 31.9288 31.9287C21.2622 31.9287 10.5955 31.9287 -0.071167 31.9287C-0.071167 21.262 -0.071167 10.5954 -0.071167 -0.0712891Z"
            fill="#95E0CD" />
        <path fill-rule="evenodd" clip-rule="evenodd"
            d="M22.1156 11.307C22.5202 10.8786 22.8995 10.4282 23.2534 9.95587C23.172 9.66095 22.9824 9.49504 22.6845 9.45809C22.6084 9.18138 22.4188 9.03916 22.1156 9.03142C21.0408 8.19134 19.8083 7.69356 18.4178 7.53809C17.0289 7.36256 15.7015 7.52849 14.4356 8.03587C13.8856 8.20562 13.3642 8.44266 12.8712 8.74698C12.6908 8.56394 12.7382 8.42171 13.0134 8.32031C13.8445 8.02907 14.6504 7.67351 15.4312 7.25364C15.0799 7.09521 14.7007 7.0241 14.2934 7.04031C13.5815 7.12361 12.8704 7.14732 12.16 7.11142C12.095 7.05254 12.0476 6.98143 12.0178 6.89809C12.6578 6.85068 13.2978 6.80327 13.9378 6.75587C15.154 6.7907 16.3391 6.93292 17.4934 7.18253C17.9438 7.13513 18.3941 7.08771 18.8445 7.04031C18.8148 6.95697 18.7673 6.88586 18.7023 6.82698C19.2692 6.75604 19.8381 6.73233 20.4089 6.75587C20.4317 6.99753 20.4081 7.23457 20.3378 7.46698C20.1111 7.11401 19.8503 7.0903 19.5556 7.39587C20.6432 7.63205 21.6861 7.98761 22.6845 8.46253C22.6845 8.65216 22.6845 8.8418 22.6845 9.03142C23.3167 8.94232 23.5538 9.17936 23.3956 9.74253C23.4703 9.84101 23.5651 9.91212 23.68 9.95587C23.4905 10.2403 23.3007 10.5248 23.1112 10.8092C22.9763 10.8779 22.8341 10.9016 22.6845 10.8803C22.6845 11.0225 22.6845 11.1648 22.6845 11.307C22.4949 11.307 22.3052 11.307 22.1156 11.307Z"
            fill="#92DDD3" />
        <path fill-rule="evenodd" clip-rule="evenodd"
            d="M22.1155 9.03073C21.1553 8.55091 20.1597 8.14793 19.1289 7.82185C17.5596 7.78265 15.9952 7.85376 14.4355 8.03518C15.7015 7.5278 17.0288 7.36187 18.4178 7.5374C19.8083 7.69288 21.0408 8.19066 22.1155 9.03073Z"
            fill="#0B575E" />
        <path fill-rule="evenodd" clip-rule="evenodd"
            d="M22.1156 9.03086C22.4188 9.0386 22.6084 9.18082 22.6845 9.45752C22.6845 9.78937 22.6845 10.1212 22.6845 10.4531C22.0362 10.4072 21.5148 10.6205 21.12 11.0931C21.1943 11.2282 21.2891 11.3467 21.4045 11.4486C21.2778 11.6036 21.1355 11.6036 20.9778 11.4486C20.6126 11.6376 20.5179 11.8984 20.6934 12.2309C20.6288 12.4615 20.4866 12.6274 20.2667 12.7286C19.9022 12.4999 19.6177 12.1917 19.4134 11.8042C18.91 11.7641 18.4123 11.693 17.92 11.5909C17.2689 11.6858 16.5816 11.7332 15.8578 11.7331C15.8578 11.8753 15.8578 12.0175 15.8578 12.1597C15.7629 12.2546 15.6682 12.3494 15.5734 12.4442C15.0284 12.6317 14.5779 12.9635 14.2222 13.4397C14.1678 13.3607 14.0967 13.3133 14.0089 13.2975C12.8516 12.5522 11.7138 11.77 10.5956 10.9509C11.1433 10.2373 11.7596 9.59732 12.4445 9.03086C12.5867 8.93604 12.7289 8.84123 12.8711 8.74641C13.3641 8.4421 13.8856 8.20506 14.4356 8.0353C15.9952 7.85388 17.5596 7.78277 19.1289 7.82197C20.1597 8.14806 21.1553 8.55103 22.1156 9.03086Z"
            fill="#035268" />
        <path fill-rule="evenodd" clip-rule="evenodd"
            d="M12.4445 9.03124C11.7597 9.5977 11.1434 10.2377 10.5956 10.9512C11.7138 11.7703 12.8516 12.5526 14.0089 13.2979C13.6015 13.3612 13.246 13.2664 12.9423 13.0135C12.8834 13.0785 12.8123 13.1259 12.7289 13.1557C12.7955 12.9263 12.7007 12.7129 12.4445 12.5157C11.8034 12.1813 11.1396 11.8732 10.4534 11.5912C10.406 11.4964 10.3586 11.4016 10.3112 11.3068C10.4021 10.8837 10.4732 10.457 10.5245 10.0268C11.0856 9.96386 11.4885 9.67942 11.7334 9.17346C11.616 9.0475 11.4738 9.00009 11.3067 9.03124C11.3067 8.50976 11.3067 7.98828 11.3067 7.4668C11.4963 7.4668 11.686 7.4668 11.8756 7.4668C11.9814 7.98143 12.0288 8.50291 12.0178 9.03124C12.16 9.03124 12.3023 9.03124 12.4445 9.03124Z"
            fill="#92DBD2" />
        <path fill-rule="evenodd" clip-rule="evenodd"
            d="M22.6845 9.45801C22.9824 9.49496 23.172 9.66087 23.2533 9.95579C22.8995 10.4281 22.5202 10.8785 22.1156 11.3069C21.448 11.8796 20.8317 12.4959 20.2667 13.1558C19.0029 12.0436 17.5333 11.7117 15.8578 12.1602C15.8578 12.018 15.8578 11.8758 15.8578 11.7336C16.5816 11.7337 17.2689 11.6863 17.92 11.5913C18.4122 11.6935 18.91 11.7646 19.4133 11.8047C19.6177 12.1922 19.9022 12.5004 20.2667 12.7291C20.4866 12.6279 20.6288 12.462 20.6933 12.2313C20.5178 11.8989 20.6126 11.6381 20.9778 11.4491C21.1355 11.6041 21.2777 11.6041 21.4045 11.4491C21.2891 11.3472 21.1943 11.2287 21.12 11.0936C21.5148 10.621 22.0362 10.4076 22.6845 10.4536C22.6845 10.1217 22.6845 9.78985 22.6845 9.45801Z"
            fill="#0D5663" />
        <path fill-rule="evenodd" clip-rule="evenodd"
            d="M13.5823 16.9957C13.4846 16.2277 13.3898 15.4455 13.2978 14.649C11.3307 13.3572 9.33961 12.1009 7.3245 10.8802C7.09305 11.2023 6.90341 11.5342 6.75562 11.8757C6.75562 11.4016 6.75562 10.9276 6.75562 10.4535C7.56066 10.2698 8.08215 10.5542 8.32006 11.3068C9.48634 11.9738 10.6715 12.6138 11.8756 13.2268C12.2809 13.5009 12.6602 13.8091 13.0134 14.1513C13.1825 14.2834 13.3721 14.3308 13.5823 14.2935C13.5823 15.1942 13.5823 16.095 13.5823 16.9957Z"
            fill="#8FDAD7" />
        <path fill-rule="evenodd" clip-rule="evenodd"
            d="M20.2667 13.1557C19.6756 13.2378 19.1067 13.3801 18.56 13.5824C18.4178 13.535 18.2756 13.4875 18.1334 13.4401C19.0146 13.1914 19.0619 12.8358 18.2756 12.3735C17.3847 12.2599 16.484 12.2836 15.5734 12.4446C15.6682 12.3498 15.7629 12.255 15.8578 12.1601C17.5333 11.7116 19.0029 12.0435 20.2667 13.1557Z"
            fill="#93DDD2" />
        <path fill-rule="evenodd" clip-rule="evenodd"
            d="M13.5822 16.9954C11.8299 18.2039 10.0284 19.3417 8.17774 20.4088C7.65853 20.4568 7.42149 20.2199 7.46663 19.6977C7.19777 19.7265 6.98444 19.6318 6.82663 19.4132C6.38933 17.0563 6.36563 14.7334 6.75552 12.4443C6.75552 12.2547 6.75552 12.0651 6.75552 11.8754C6.90332 11.5339 7.09296 11.2021 7.32441 10.8799C9.33951 12.1006 11.3306 13.3569 13.2977 14.6488C13.3897 15.4452 13.4845 16.2274 13.5822 16.9954Z"
            fill="#035268" />
        <path fill-rule="evenodd" clip-rule="evenodd"
            d="M6.75557 12.4443C6.36568 14.7334 6.38937 17.0563 6.82668 19.4132C6.98449 19.6318 7.19782 19.7265 7.46668 19.6977C7.42154 20.2199 7.65858 20.4569 8.17779 20.4088C7.93789 20.6457 7.65344 20.8354 7.32446 20.9777C6.8916 20.225 6.58345 19.4191 6.40001 18.5599C6.18975 17.0485 6.14235 15.5314 6.25779 14.0088C6.27414 13.4237 6.44007 12.9022 6.75557 12.4443Z"
            fill="#08515D" />
        <path fill-rule="evenodd" clip-rule="evenodd"
            d="M15.8578 19.5556C15.6007 19.5568 15.3636 19.4857 15.1467 19.3422C14.8786 19.0262 14.5706 18.7654 14.2223 18.56C13.2272 19.1546 12.2553 19.7709 11.3067 20.4089C10.9906 20.4962 10.7536 20.6859 10.5956 20.9778C10.895 21.2753 11.132 21.6071 11.3067 21.9733C11.0223 21.926 10.7378 21.8785 10.4534 21.8311C10.4591 21.3503 10.4117 20.8762 10.3112 20.4089C11.4501 19.9563 12.493 19.3163 13.44 18.4889C13.6297 18.394 13.6297 18.2993 13.44 18.2045C14.3547 17.9059 15.0184 18.1668 15.4312 18.9867C15.5485 19.1127 15.6907 19.16 15.8578 19.1289C15.8578 19.2711 15.8578 19.4133 15.8578 19.5556Z"
            fill="#90D9D4" />
        <path fill-rule="evenodd" clip-rule="evenodd"
            d="M21.5467 20.1243C21.614 20.3242 21.7562 20.4191 21.9734 20.4087C22.1867 20.7705 22.4238 21.1025 22.6845 21.4043C22.6845 21.7361 22.6845 22.068 22.6845 22.3998C22.3493 22.3767 22.0174 22.4003 21.6889 22.4709C21.5521 22.8399 21.315 23.1243 20.9778 23.3243C20.4563 23.3716 19.9349 23.4191 19.4134 23.4665C18.3285 24.1305 17.1432 24.3912 15.8578 24.2487C15.0641 24.166 14.3056 23.9526 13.5822 23.6087C12.7616 23.1427 12.0031 22.5975 11.3067 21.9732C11.132 21.6069 10.8949 21.2751 10.5956 20.9776C10.7536 20.6858 10.9906 20.4961 11.3067 20.4087C11.6419 20.4319 11.9737 20.4083 12.3022 20.3376C12.5346 19.7482 12.9613 19.4876 13.5822 19.5554C13.5822 19.4132 13.5822 19.2709 13.5822 19.1287C13.9174 19.1055 14.2493 19.1292 14.5778 19.1998C15.5867 20.3358 16.8905 20.5966 18.4889 19.9821C18.8729 20.1462 19.2522 20.2884 19.6267 20.4087C19.6978 20.3614 19.7689 20.3139 19.84 20.2665C19.7226 20.1313 19.6989 19.989 19.7689 19.8398C20.0197 19.6345 20.3041 19.4922 20.6222 19.4132C20.8659 19.6986 21.1028 19.9831 21.3334 20.2665C21.3878 20.1874 21.4589 20.1401 21.5467 20.1243Z"
            fill="#035268" />
        <path fill-rule="evenodd" clip-rule="evenodd"
            d="M21.9733 20.4091C21.7561 20.4195 21.6139 20.3246 21.5467 20.1246C21.1703 19.6536 20.7437 19.2269 20.2667 18.8446C19.0306 19.925 17.6557 20.2094 16.1422 19.698C17.0065 19.7412 17.8598 19.6701 18.7022 19.4846C19.1961 18.9157 19.7888 18.6551 20.48 18.7024C20.7233 18.7111 20.9129 18.6162 21.0489 18.418C21.0607 19.0563 21.3451 19.5776 21.9022 19.9824C21.9709 20.1172 21.9945 20.2595 21.9733 20.4091Z"
            fill="#8CD9D3" />
        <path fill-rule="evenodd" clip-rule="evenodd"
            d="M15.8578 19.5551C15.9064 19.6743 16.0011 19.7218 16.1422 19.6973C17.6557 20.2088 19.0306 19.9243 20.2666 18.844C20.7437 19.2263 21.1703 19.653 21.5466 20.124C21.4589 20.1398 21.3878 20.1872 21.3333 20.2662C21.1028 19.9828 20.8658 19.6983 20.6222 19.4129C20.304 19.492 20.0196 19.6342 19.7689 19.8396C19.6989 19.9888 19.7225 20.131 19.84 20.2662C19.7689 20.3136 19.6978 20.3611 19.6266 20.4085C19.2522 20.2881 18.8729 20.1459 18.4889 19.9818C16.8904 20.5963 15.5867 20.3355 14.5778 19.1996C14.2492 19.1289 13.9174 19.1053 13.5822 19.1285C13.5822 19.2707 13.5822 19.4129 13.5822 19.5551C12.9612 19.4873 12.5346 19.748 12.3022 20.3373C11.9737 20.408 11.6418 20.4316 11.3066 20.4085C12.2552 19.7705 13.2271 19.1542 14.2222 18.5596C14.5705 18.7649 14.8786 19.0258 15.1466 19.3418C15.3635 19.4853 15.6006 19.5564 15.8578 19.5551Z"
            fill="#075364" />
        <path fill-rule="evenodd" clip-rule="evenodd"
            d="M22.6845 21.4043C22.9399 21.5882 23.177 21.8015 23.3956 22.0443C21.2149 23.9521 18.7022 24.6868 15.8578 24.2487C17.1432 24.3912 18.3285 24.1306 19.4133 23.4665C19.9349 23.4192 20.4563 23.3717 20.9778 23.3243C21.315 23.1243 21.5521 22.8399 21.6889 22.471C22.0174 22.4003 22.3492 22.3767 22.6845 22.3999C22.6845 22.068 22.6845 21.7361 22.6845 21.4043Z"
            fill="#08525F" />
    </g>
    <defs>
        <clipPath id="clip0_4211_674">
            <rect width="32" height="32" fill="white" />
        </clipPath>
    </defs>
</svg>