<svg width="32" height="32" viewBox="0 0 32 32" fill="none" xmlns="http://www.w3.org/2000/svg">
    <g clip-path="url(#clip0_2782_136)">
        <rect width="32" height="32" fill="#FAFAFA" fill-opacity="0.686275" />
        <path d="M32 0H0V32H32V0Z" fill="#FAFAFA" />
        <path fill-rule="evenodd" clip-rule="evenodd"
            d="M21.9 8.30194C20.6067 7.66851 19.3067 7.3518 18 7.3518C16.4267 7.3518 14.9867 7.72668 13.68 8.47645C12.3733 9.22623 11.3467 10.2475 10.6 11.5402C9.85333 12.8329 9.48 14.2678 9.48 15.8449C9.48 17.422 9.85333 18.8633 10.6 20.169C11.3467 21.4746 12.3733 22.5088 13.68 23.2715C14.9867 24.0342 16.4267 24.4155 18 24.4155C19.2533 24.4155 20.5267 24.1247 21.82 23.5429C22.8142 23.0958 23.7257 22.5302 24.5544 21.8462C24.8038 21.6404 25.0456 21.4239 25.28 21.1967L29 25.1136C28.8932 25.2208 28.7657 25.3401 28.6266 25.465C27.8804 26.1351 26.8006 26.9674 26.8006 26.9674C25.8577 27.6309 24.8375 28.2023 23.74 28.6814C21.7267 29.5605 19.7067 30 17.68 30C14.9333 30 12.44 29.386 10.2 28.1579C7.95999 26.9298 6.20001 25.2429 4.92 23.097C3.63999 20.9511 3 18.5596 3 15.9224C3 13.3112 3.65333 10.9455 4.96 8.82548C6.26667 6.70544 8.05999 5.03786 10.34 3.82271C12.62 2.60757 15.1467 2 17.92 2C19.9467 2 21.9467 2.4072 23.92 3.22161C25.7147 3.96229 27.2668 4.94355 28.5762 6.1654L24.7509 10.3481C23.9131 9.50452 22.9628 8.82248 21.9 8.30194Z"
            fill="#394B54" />
    </g>
    <defs>
        <clipPath id="clip0_2782_136">
            <rect width="32" height="32" fill="white" />
        </clipPath>
    </defs>
</svg>