<svg width="32" height="32" viewBox="0 0 32 32" fill="none" xmlns="http://www.w3.org/2000/svg">
    <g clip-path="url(#clip0_1700_4264)">
        <path d="M0 0V32H32V0H0Z" fill="#00B0BD" />
        <path
            d="M16 5.33301C10.1088 5.33301 5.3332 10.1086 5.3332 15.9998C5.3332 21.891 10.1088 26.6662 16 26.6662C21.8912 26.6662 26.6664 21.8906 26.6664 15.9998C26.6664 10.109 21.8908 5.33301 16 5.33301Z"
            fill="white" />
        <path
            d="M19.6156 21.2524C17.1576 20.7704 15.3012 18.602 15.3012 16C15.3012 13.398 17.1576 11.2292 19.6156 10.7472C19.7336 10.724 19.8196 10.6244 19.8196 10.5044V8.75636C19.8196 8.64756 19.7504 8.54916 19.6468 8.51676C18.9796 8.30476 18.2776 8.18156 17.5484 8.15756C13.4164 8.02116 9.8168 11.1924 9.4656 15.3116C9.0696 19.9572 12.724 23.8476 17.2832 23.8476C18.1076 23.8476 18.8996 23.7212 19.6472 23.484C19.7504 23.4512 19.82 23.3528 19.82 23.2444V21.496C19.82 21.376 19.7336 21.276 19.616 21.2532L19.6156 21.2524Z"
            fill="#00B0BD" />
        <path
            d="M19.802 12.3843C18.2748 12.8759 17.1676 14.3115 17.1676 15.9999C17.1676 17.6883 18.2744 19.1235 19.802 19.6151C19.9644 19.6671 20.1312 19.5475 20.1312 19.3771V12.6223C20.1312 12.4523 19.964 12.3323 19.802 12.3843Z"
            fill="#00B0BD" />
    </g>
    <defs>
        <clipPath id="clip0_1700_4264">
            <rect width="32" height="32" fill="white" />
        </clipPath>
    </defs>
</svg>