<svg width="32" height="32" viewBox="0 0 32 32" fill="none" xmlns="http://www.w3.org/2000/svg">
    <g clip-path="url(#clip0_3040_75)">
        <path fill-rule="evenodd" clip-rule="evenodd"
            d="M-0.0712891 -0.0703125C10.5954 -0.0703125 21.262 -0.0703125 31.9287 -0.0703125C31.9287 10.5964 31.9287 21.263 31.9287 31.9297C21.262 31.9297 10.5954 31.9297 -0.0712891 31.9297C-0.0712891 21.263 -0.0712891 10.5964 -0.0712891 -0.0703125Z"
            fill="#FEFEFE" />
        <path fill-rule="evenodd" clip-rule="evenodd"
            d="M15.1466 3.76858C15.7647 3.74501 16.3809 3.76872 16.9955 3.83969C18.0097 4.37063 19.0052 4.93952 19.9822 5.54635C21.9184 5.35047 23.862 5.18456 25.8133 5.04858C25.8555 5.67595 25.6897 6.24484 25.3155 6.75524C24.9339 7.11306 24.5784 7.49232 24.2488 7.89302C24.7577 8.32811 25.3266 8.68366 25.9555 8.95969C26.4366 9.42464 26.7922 9.96984 27.0222 10.5952C27.117 14.1982 27.117 17.8012 27.0222 21.4041C26.682 22.2185 26.1367 22.8585 25.3866 23.3241C22.5086 24.976 19.6168 26.588 16.711 28.1597C16.0816 28.2722 15.4653 28.2247 14.8622 28.0175C14.4109 27.7206 13.9368 27.4598 13.4399 27.2352C13.3217 26.1005 13.2506 24.9627 13.2266 23.8219C12.9797 23.1859 12.6241 22.617 12.1599 22.1152C9.87406 20.6838 7.5511 19.3089 5.19105 17.9908C5.02517 15.4796 5.00147 12.967 5.11994 10.453C5.35415 9.79088 5.75712 9.2457 6.32883 8.81747C6.8972 8.58099 7.41869 8.27284 7.89327 7.89302C7.51632 7.44486 7.11335 7.0182 6.68438 6.61302C6.38917 6.13045 6.22324 5.60896 6.1866 5.04858C8.00523 5.15459 9.80671 5.39163 11.591 5.75969C12.8073 5.12843 13.9925 4.46473 15.1466 3.76858Z"
            fill="#0671CF" />
        <path fill-rule="evenodd" clip-rule="evenodd"
            d="M9.74247 12.4453C10.1818 12.6215 10.6084 12.8348 11.0225 13.0853C10.4126 13.6217 10.2941 14.2616 10.6669 15.0053C11.7083 15.7082 12.4906 15.4711 13.0136 14.2942C13.1669 15.0733 12.8825 15.6659 12.1602 16.072C10.9771 16.5548 10.0053 16.2941 9.24469 15.2898C8.82987 14.2174 8.99579 13.2692 9.74247 12.4453Z"
            fill="#F6FAFD" />
        <path fill-rule="evenodd" clip-rule="evenodd"
            d="M21.9731 12.4453C22.9675 12.9312 23.3231 13.7372 23.0398 14.8631C22.2867 16.317 21.1727 16.6726 19.6976 15.9298C19.1658 15.4987 18.905 14.9535 18.9153 14.2942C18.9742 14.2292 19.0453 14.1817 19.1287 14.152C19.5838 15.5421 20.366 15.7791 21.4753 14.8631C21.8232 14.177 21.7047 13.5844 21.1198 13.0853C21.4394 12.9036 21.7238 12.6903 21.9731 12.4453Z"
            fill="#F4F8FC" />
        <path fill-rule="evenodd" clip-rule="evenodd"
            d="M15.5735 14.7191C16.5692 14.5987 17.1381 15.0254 17.2802 15.9991C17.1481 16.9274 16.7214 17.686 16.0002 18.2746C15.3554 17.6496 14.9287 16.8911 14.7202 15.9991C14.7856 15.4145 15.0701 14.9879 15.5735 14.7191Z"
            fill="#F7FAFD" />
        <path fill-rule="evenodd" clip-rule="evenodd"
            d="M5.04867 18.9863C6.92434 20.0775 8.82063 21.1441 10.7376 22.1863C12.3556 23.221 12.8771 24.667 12.302 26.5241C10.0103 25.3199 7.80588 23.9926 5.68867 22.5419C5.10555 21.4365 4.89221 20.2514 5.04867 18.9863Z"
            fill="#0C72CF" />
    </g>
    <defs>
        <clipPath id="clip0_3040_75">
            <rect width="32" height="32" fill="white" />
        </clipPath>
    </defs>
</svg>