<?xml version="1.0" encoding="utf-8"?>
<!-- Generator: Adobe Illustrator 25.4.1, SVG Export Plug-In . SVG Version: 6.00 Build 0)  -->
<svg version="1.1" id="Layer_1" xmlns="http://www.w3.org/2000/svg" xmlns:xlink="http://www.w3.org/1999/xlink" x="0px" y="0px"
	 viewBox="0 0 80 80" style="enable-background:new 0 0 80 80;" xml:space="preserve">
<style type="text/css">
	.st0{fill:none;stroke:#76C4FF;stroke-width:2.5;stroke-linecap:round;stroke-linejoin:round;stroke-miterlimit:10;}
	.st1{fill:none;stroke:#002470;stroke-width:2.5;stroke-linecap:round;stroke-linejoin:round;stroke-miterlimit:10;}
</style>
<g id="fkDyKy_1_">
</g>
<g>
	<g>
		<path class="st0" d="M19.4,10.4c0,4.3-3.5,7.8-7.8,7.8c-4.3,0-7.8-3.5-7.8-7.8s3.5-7.8,7.8-7.8C15.9,2.6,19.4,6.1,19.4,10.4z"/>
		<path class="st0" d="M22.7,69.8c0,4.3-3.5,7.8-7.8,7.8c-4.3,0-7.8-3.5-7.8-7.8c0-4.3,3.5-7.8,7.8-7.8
			C19.2,62.1,22.7,65.6,22.7,69.8z"/>
		<circle class="st0" cx="70.5" cy="16" r="7.8"/>
		<path class="st0" d="M4,26.4c0.6-1.6,1.3-3.2,2.1-4.7c0,0,0,0,0,0c0,0,0,0,0,0C5.3,23.2,4.6,24.8,4,26.4C4,26.4,4,26.4,4,26.4
			C4,26.4,4,26.4,4,26.4z"/>
		<path class="st0" d="M2,34.6C2,34.6,2,34.6,2,34.6L2,34.6C2,34.6,2,34.6,2,34.6c-0.2,1.4-0.3,2.9-0.3,4.4v0.1c0,1.3,0.1,2.7,0.2,4
			c0,0,0,0,0,0h0c0,0,0,0,0,0c-0.1-1.3-0.2-2.7-0.2-4V39C1.8,37.6,1.9,36.1,2,34.6z"/>
		<path class="st0" d="M3.8,51.3C3.8,51.3,3.8,51.3,3.8,51.3C4.8,54,6,56.6,7.6,58.9c0,0,0,0,0,0c0,0,0,0,0,0
			C6,56.6,4.8,54,3.8,51.3C3.9,51.3,3.9,51.3,3.8,51.3z"/>
		<path class="st0" d="M73.8,29.2C73.8,29.2,73.8,29.2,73.8,29.2C73.8,29.2,73.8,29.2,73.8,29.2c0.7,2.7,1.2,5.5,1.3,8.4
			c0,0,0,0,0,0c0,0,0,0,0,0C75,34.7,74.6,31.9,73.8,29.2z"/>
		<path class="st0" d="M37.4,75.8c-2.5-0.1-5-0.4-7.4-1c0,0,0,0,0,0c0,0,0,0,0,0C32.4,75.4,34.9,75.7,37.4,75.8c0.3,0,0.7,0,1,0
			c0,0,0,0,0,0s0,0,0,0C38.1,75.8,37.8,75.8,37.4,75.8z"/>
		<path class="st0" d="M46.8,74.9C46.8,74.9,46.8,74.9,46.8,74.9C46.8,74.9,46.8,74.9,46.8,74.9L46.8,74.9c2.8-0.6,5.4-1.6,8-2.8
			c0,0,0,0,0,0c0,0,0,0,0,0C52.2,73.3,49.5,74.2,46.8,74.9z"/>
		<path class="st0" d="M67.7,61.3c-1.7,2.2-3.7,4.3-5.9,6.1c0,0,0,0,0,0c0,0,0,0,0,0c0,0,0,0,0,0C64,65.6,66,63.6,67.7,61.3
			C67.7,61.3,67.7,61.3,67.7,61.3C67.7,61.3,67.7,61.3,67.7,61.3z"/>
		<path class="st0" d="M74.5,46C74,48.7,73.2,51.5,72,54c0,0,0,0,0,0c0,0,0,0,0,0C73.2,51.5,74,48.7,74.5,46
			C74.6,46,74.5,46,74.5,46C74.5,46,74.5,46,74.5,46z"/>
		<path class="st0" d="M20.5,7.1"/>
		<path class="st0" d="M27.3,4.1C27.3,4.1,27.3,4.1,27.3,4.1C27.3,4.1,27.3,4.1,27.3,4.1c-1.6,0.5-3.1,1.1-4.6,1.8"/>
		<path class="st0" d="M39.5,2.4c-0.4,0-0.7,0-1,0c-0.9,0-1.9,0-2.8,0.1c0,0,0,0,0,0c0,0,0,0,0,0h0c0.9-0.1,1.9-0.1,2.8-0.1
			C38.8,2.4,39.1,2.4,39.5,2.4c1.5,0.1,3.1,0.2,4.6,0.4h0c0,0,0,0,0,0c0,0,0,0,0,0C42.6,2.6,41,2.4,39.5,2.4z"/>
		<path class="st0" d="M52.2,5.1C52.2,5.1,52.2,5.1,52.2,5.1C52.2,5.1,52.2,5.1,52.2,5.1c2.6,1.1,5.1,2.4,7.4,4.1c0,0,0,0,0,0
			c0,0,0,0,0,0c0,0,0,0,0,0C57.4,7.5,54.9,6.1,52.2,5.1z"/>
	</g>
	<g>
		<path class="st1" d="M52.9,48.5c4-1.4,7.5-3.3,10.3-5.7"/>
		<path class="st1" d="M30.2,49.6c5.3,1.2,10.6,1.3,15.5,0.6"/>
		<path class="st1" d="M14.7,42.9c2.6,1.7,5.2,3.2,7.9,4.3"/>
		<path class="st1" d="M63.6,39.4c0.2-13.6-10.6-24.8-24.3-25c-13.6-0.2-24.8,10.6-25,24.3c-0.2,13.6,10.6,24.8,24.3,25
			C52.2,63.8,63.4,53,63.6,39.4z"/>
		<path class="st1" d="M23.5,51.2c-1.3,1-2.6,1.9-4,2.8"/>
		<path class="st1" d="M42.5,26.1c-2.8,6-7.2,13.5-13.3,19.9"/>
		<path class="st1" d="M46.7,15.6c0,0-0.4,1.4-1.2,3.6"/>
		<path class="st1" d="M22.6,28.4c-1.8-0.7-3.5-1.2-5-1.6"/>
		<path class="st1" d="M46.4,46c-5-6-11.7-11.2-18-14.8"/>
		<path class="st1" d="M53.5,58.9c-0.6-2.2-1.6-4.4-2.8-6.6"/>
		<path class="st1" d="M21.4,34.2c-2.6,1.4-5,3.2-7.1,5.4"/>
		<path class="st1" d="M50,29.9c-6.6-1-14.5-0.8-21.8,1.5"/>
		<path class="st1" d="M63.2,34.2c-1.4-1-3.4-1.9-5.8-2.7"/>
		<path class="st1" d="M28.2,31.9c-0.1,2-1.8,3.5-3.8,3.4c-2-0.1-3.5-1.8-3.4-3.8c0.1-2,1.8-3.5,3.8-3.4
			C26.8,28.2,28.3,29.9,28.2,31.9z"/>
		<path class="st1" d="M57.4,30.2c-0.1,2-1.8,3.5-3.8,3.4c-2-0.1-3.5-1.8-3.4-3.8c0.1-2,1.8-3.5,3.8-3.4
			C56,26.5,57.5,28.2,57.4,30.2z"/>
		<path class="st1" d="M47.6,23c-0.1,2-1.8,3.5-3.8,3.4c-2-0.1-3.5-1.8-3.4-3.8c0.1-2,1.8-3.5,3.8-3.4C46.2,19.3,47.7,21,47.6,23z"
			/>
		<path class="st1" d="M30,48.9c-0.1,2-1.8,3.5-3.8,3.4c-2-0.1-3.5-1.8-3.4-3.8c0.1-2,1.8-3.5,3.8-3.4C28.6,45.2,30.1,46.9,30,48.9z
			"/>
		<path class="st1" d="M52.9,48.9c-0.1,2-1.8,3.5-3.8,3.4c-2-0.1-3.5-1.8-3.4-3.8c0.1-2,1.8-3.5,3.8-3.4
			C51.5,45.2,53,46.9,52.9,48.9z"/>
	</g>
</g>
</svg>
