<svg width="32" height="32" viewBox="0 0 33 33" fill="none" xmlns="http://www.w3.org/2000/svg">
    <path fill-rule="evenodd" clip-rule="evenodd"
        d="M0.620605 0.472656C11.2873 0.472656 21.9539 0.472656 32.6206 0.472656C32.6206 11.1394 32.6206 21.806 32.6206 32.4727C21.9539 32.4727 11.2873 32.4727 0.620605 32.4727C0.620605 21.806 0.620605 11.1394 0.620605 0.472656Z"
        fill="#FEFEFE" />
    <path fill-rule="evenodd" clip-rule="evenodd"
        d="M22.7452 9.37148H19.712C19.6348 9.37148 19.558 9.44827 19.558 9.56347V15.1315H13.3376V8.83387H16.0636C16.1788 8.83387 16.2556 8.75708 16.2556 8.68028V5.60828C16.2556 5.49308 16.1788 5.41627 16.0636 5.41627H13.3376V2.11388C13.3376 1.99868 13.2604 1.92188 13.1452 1.92188H10.4956C10.4188 1.92188 10.342 1.99868 10.342 2.11388V21.4675C10.342 21.5827 10.4188 21.6595 10.4956 21.6595H13.1452C13.2604 21.6595 13.3376 21.5827 13.3376 21.4675V18.2419H19.558V30.2227C19.558 30.3379 19.6348 30.4147 19.712 30.4147H22.7452C22.822 30.4147 22.8988 30.3379 22.8988 30.2227V9.56347C22.8988 9.44827 22.822 9.37148 22.7452 9.37148Z"
        fill="black" />
</svg>