<svg width="32" height="32" viewBox="0 0 32 32" fill="none" xmlns="http://www.w3.org/2000/svg">
    <g clip-path="url(#clip0_4421_899)">
        <path fill-rule="evenodd" clip-rule="evenodd"
            d="M-0.0800781 -0.0800781C10.5866 -0.0800781 21.2532 -0.0800781 31.9199 -0.0800781C31.9199 10.5866 31.9199 21.2532 31.9199 31.9199C21.2532 31.9199 10.5866 31.9199 -0.0800781 31.9199C-0.0800781 21.2532 -0.0800781 10.5866 -0.0800781 -0.0800781Z"
            fill="#C94E2A" />
        <path fill-rule="evenodd" clip-rule="evenodd"
            d="M19.2802 10.7995C18.4441 9.94184 17.4841 9.78184 16.4002 10.3195C16.3825 10.2207 16.3292 10.1407 16.2402 10.0795C17.1263 9.57508 18.0329 9.49508 18.9602 9.83952C18.9399 10.162 19.0465 10.482 19.2802 10.7995Z"
            fill="#C05B3E" />
        <path fill-rule="evenodd" clip-rule="evenodd"
            d="M19.2802 10.7996C19.6532 11.3069 20.0797 11.7602 20.5602 12.1596C20.8269 12.2662 21.0935 12.2662 21.3602 12.1596C21.8665 11.4045 22.4532 11.2979 23.1202 11.8396C22.8772 12.0558 22.6639 12.2958 22.4802 12.5596C23.114 13.0679 23.8073 13.2279 24.5602 13.0396C24.2082 13.7241 23.9949 14.4708 23.9202 15.2796C23.954 16.0183 24.3273 16.3116 25.0402 16.1596C25.6116 15.9806 26.1449 15.7139 26.6402 15.3596C26.8002 15.2529 26.9602 15.2529 27.1202 15.3596C26.6402 16.2663 25.9469 16.9596 25.0402 17.4396C24.6916 18.2149 24.1316 18.7749 23.3602 19.1196C22.5233 18.6877 21.6965 18.2344 20.8802 17.7596C20.6324 17.5653 20.4458 17.3253 20.3202 17.0396C19.9817 18.0087 19.5817 18.9421 19.1202 19.8396C19.1175 20.6096 19.4908 21.0629 20.2402 21.1996C20.3428 21.3567 20.4493 21.5167 20.5602 21.6796C19.6002 21.8928 18.6402 21.8928 17.6802 21.6796C17.47 20.4029 16.8567 19.3896 15.8402 18.6396C15.6067 18.6888 15.42 18.7956 15.2802 18.9596C14.3735 19.1728 13.4669 19.3863 12.5602 19.5996C12.1302 19.6258 11.7036 19.5991 11.2802 19.5196C11.4833 18.98 11.75 18.4733 12.0802 17.9996C12.0269 17.9463 11.9735 17.8928 11.9202 17.8396C11.4104 18.4021 11.037 19.0421 10.8002 19.7596C9.97813 20.1975 9.17813 20.6775 8.40021 21.1996C8.41999 21.2967 8.47332 21.35 8.56021 21.3596C8.65778 21.5021 8.71111 21.6621 8.72021 21.8396C7.92021 21.8396 7.12021 21.8396 6.32021 21.8396C6.32021 21.6796 6.32021 21.5196 6.32021 21.3596C6.53154 20.8295 6.74487 20.2962 6.96021 19.7596C6.9333 19.4922 6.82663 19.2789 6.64021 19.1196C6.52521 18.3807 6.44521 17.634 6.40021 16.8796C6.23404 16.9986 6.15404 17.1586 6.16021 17.3596C5.77821 17.7717 5.29821 17.9317 4.72021 17.8396C4.72021 17.6796 4.72021 17.5196 4.72021 17.3596C4.94909 17.3469 5.16242 17.4002 5.36021 17.5196C5.78601 16.8276 6.07933 16.0808 6.24021 15.2796C7.40471 14.1134 8.73805 13.2068 10.2402 12.5596C10.8489 12.7162 11.4623 12.7428 12.0802 12.6396C12.9378 11.9976 13.8444 11.4376 14.8002 10.9596C15.0511 10.8039 15.3178 10.7772 15.6002 10.8796C15.0988 11.4314 14.7522 12.0447 14.5602 12.7196C15.0684 12.0215 15.575 11.3282 16.0802 10.6396C16.2402 10.5862 16.3469 10.4796 16.4002 10.3196C17.4841 9.78189 18.4441 9.94189 19.2802 10.7996Z"
            fill="#FDFCFA" />
        <path fill-rule="evenodd" clip-rule="evenodd"
            d="M16.08 10.6405C15.5748 11.3291 15.0681 12.0224 14.56 12.7205C14.7519 12.0456 15.0986 11.4323 15.6 10.8805C15.3176 10.7781 15.0509 10.8048 14.8 10.9605C14.7876 10.7605 14.6809 10.6272 14.48 10.5605C14.56 10.5338 14.64 10.5071 14.72 10.4805C15.1631 10.6161 15.6164 10.6695 16.08 10.6405Z"
            fill="#C3664E" />
        <path fill-rule="evenodd" clip-rule="evenodd"
            d="M22 15.5996C22.2621 15.7847 22.5286 15.9714 22.8 16.1596C22.2875 16.4281 22.0208 16.2414 22 15.5996Z"
            fill="#C07367" />
        <path fill-rule="evenodd" clip-rule="evenodd"
            d="M6.64 19.1199C6.54122 19.1021 6.46122 19.0488 6.4 18.9599C6.37141 18.3959 6.29141 17.8624 6.16 17.3599C6.15382 17.1589 6.23382 16.9989 6.4 16.8799C6.44499 17.6343 6.52499 18.381 6.64 19.1199Z"
            fill="#BB664E" />
        <path fill-rule="evenodd" clip-rule="evenodd"
            d="M12.5598 19.5998C11.971 19.7341 11.3843 19.7874 10.7998 19.7598C11.0366 19.0424 11.41 18.4024 11.9198 17.8398C11.9731 17.8931 12.0265 17.9466 12.0798 17.9998C11.7496 18.4736 11.4829 18.9803 11.2798 19.5198C11.7032 19.5994 12.1298 19.6261 12.5598 19.5998Z"
            fill="#C36848" />
        <path fill-rule="evenodd" clip-rule="evenodd"
            d="M20.2398 21.1996C20.6532 21.2873 20.8132 21.554 20.7198 21.9996C19.6654 21.9499 18.6254 22.0032 17.5998 22.1596C17.4087 21.82 17.3022 21.4465 17.2798 21.0396C17.1724 20.9193 17.0391 20.8659 16.8798 20.8796C17.0843 20.5526 17.0577 20.2326 16.7998 19.9196C16.4772 19.5702 16.1305 19.2502 15.7598 18.9596C15.6507 19.0785 15.544 19.1851 15.4398 19.2796C15.4672 19.1209 15.4139 19.0144 15.2798 18.9596C15.4196 18.7956 15.6063 18.6889 15.8398 18.6396C16.8563 19.3897 17.4695 20.403 17.6798 21.6796C18.6398 21.8929 19.5998 21.8929 20.5598 21.6796C20.4489 21.5168 20.3423 21.3568 20.2398 21.1996Z"
            fill="#C6715D" />
        <path fill-rule="evenodd" clip-rule="evenodd"
            d="M10.7999 19.7598C10.7999 19.8665 10.7999 19.973 10.7999 20.0798C10.1112 20.3945 9.52456 20.821 9.0399 21.3598C8.85555 21.1798 8.69555 21.1798 8.5599 21.3598C8.47301 21.3502 8.41968 21.2969 8.3999 21.1998C9.17782 20.6777 9.97782 20.1977 10.7999 19.7598Z"
            fill="#C27362" />
        <path fill-rule="evenodd" clip-rule="evenodd"
            d="M16.88 20.88C16.5296 21.116 16.3163 21.436 16.24 21.84C15.3027 21.8915 14.3961 21.8382 13.52 21.68C14.1649 20.8761 14.8049 20.0761 15.44 19.28C15.5443 19.1854 15.6509 19.0788 15.76 18.96C16.1307 19.2505 16.4775 19.5705 16.8 19.92C17.0579 20.2329 17.0845 20.5529 16.88 20.88Z"
            fill="#FBF7F4" />
        <path fill-rule="evenodd" clip-rule="evenodd"
            d="M10.8 20.0801C11.0037 20.4188 11.0037 20.7655 10.8 21.1201C10.8962 21.3769 11.0562 21.5902 11.28 21.7601C10.5806 21.8926 9.88729 21.8658 9.20004 21.6801C9.14201 21.5708 9.08866 21.4641 9.04004 21.3601C9.5247 20.8214 10.1114 20.3948 10.8 20.0801Z"
            fill="#FCF9F5" />
        <path fill-rule="evenodd" clip-rule="evenodd"
            d="M6.31982 21.3604C6.31982 21.5204 6.31982 21.6804 6.31982 21.8404C7.11982 21.8404 7.91982 21.8404 8.71982 21.8404C7.89734 21.9984 7.04402 22.0517 6.15982 22.0004C6.11698 21.7445 6.1703 21.5312 6.31982 21.3604Z"
            fill="#D4907C" />
        <path fill-rule="evenodd" clip-rule="evenodd"
            d="M13.5199 21.6797C14.3959 21.8379 15.3026 21.8912 16.2399 21.8397C15.3046 22.0504 14.3446 22.0504 13.3599 21.8397C13.3796 21.7426 13.433 21.6893 13.5199 21.6797Z"
            fill="#D59881" />
    </g>
    <defs>
        <clipPath id="clip0_4421_899">
            <rect width="32" height="32" fill="white" />
        </clipPath>
    </defs>
</svg>