<svg width="32" height="32" viewBox="0 0 32 32" fill="none" xmlns="http://www.w3.org/2000/svg">
<g clip-path="url(#clip0_4039_1280)">
<mask id="mask0_4039_1280" style="mask-type:luminance" maskUnits="userSpaceOnUse" x="0" y="0" width="32" height="32">
<path d="M32 0H0V32H32V0Z" fill="white"/>
</mask>
<g mask="url(#mask0_4039_1280)">
<path d="M32 0H0V32H32V0Z" fill="#FAFAFA"/>
</g>
<path opacity="0.962" fill-rule="evenodd" clip-rule="evenodd" d="M11.4455 0.582031C13.5148 0.582031 15.5841 0.582031 17.6534 0.582031C18.1134 1.06633 18.3074 1.64828 18.2354 2.32788C18.1061 2.32788 18.0414 2.39254 18.0414 2.52187C17.7828 2.58653 17.7828 2.65119 18.0414 2.71585C18.0414 2.97449 17.9121 3.10382 17.6534 3.10382C17.5888 2.84518 17.5241 2.84518 17.4594 3.10382C15.4844 3.04031 13.5444 3.10498 11.6395 3.2978C11.27 3.25171 11.0114 3.05773 10.8635 2.71585C11.1221 2.58653 11.1221 2.4572 10.8635 2.32788C10.7915 1.64828 10.9855 1.06633 11.4455 0.582031Z" fill="#373C3C"/>
<path opacity="0.016" fill-rule="evenodd" clip-rule="evenodd" d="M24.4436 1.94003C24.4436 1.87539 24.4436 1.81074 24.4436 1.74609C25.2194 1.81074 25.2194 1.87539 24.4436 1.94003Z" fill="#222222"/>
<path opacity="0.01" fill-rule="evenodd" clip-rule="evenodd" d="M18.4296 2.32783C18.3986 1.99821 18.4309 1.67491 18.5266 1.35791C18.6778 1.72395 18.6455 2.04725 18.4296 2.32783Z" fill="#1C1B1B"/>
<path opacity="0.95" fill-rule="evenodd" clip-rule="evenodd" d="M24.4436 1.74575C23.6676 1.81041 23.6676 1.87507 24.4436 1.93973C24.5812 2.11508 24.7752 2.17975 25.0256 2.13371C25.279 3.43251 25.57 4.72572 25.8986 6.01338C26.0573 4.98649 26.1543 4.98649 26.1896 6.01338C26.7906 5.99641 26.8554 6.0934 26.3836 6.30436C27.2706 6.57071 28.176 6.73238 29.0996 6.78931C29.3987 6.91802 29.7221 7.04735 30.0696 7.17728C30.3429 7.80323 30.5369 8.44983 30.6516 9.11712C30.5222 9.11712 30.4576 9.18177 30.4576 9.3111C30.3282 9.3111 30.2636 9.37575 30.2636 9.50508C30.1342 9.50508 30.0696 9.56974 30.0696 9.69907C29.9402 9.69907 29.8756 9.76372 29.8756 9.89305C29.7462 9.89305 29.6816 9.9577 29.6816 10.087C29.5522 10.087 29.4876 10.1517 29.4876 10.281C29.229 10.3457 29.229 10.4103 29.4876 10.475C27.9251 12.2316 26.2437 13.8481 24.4436 15.3246C24.379 15.0659 24.3142 15.0659 24.2496 15.3246C22.5682 15.2599 20.8871 15.1953 19.2057 15.1306C19.141 14.872 19.0763 14.872 19.0117 15.1306C18.8823 15.1306 18.8177 15.1953 18.8177 15.3246C18.6883 15.3246 18.6237 15.3892 18.6237 15.5186C18.4943 15.5186 18.4297 15.5832 18.4297 15.7126C18.3003 15.7126 18.2357 15.7772 18.2357 15.9065C18.1063 15.9065 18.0417 15.9712 18.0417 16.1005C17.9123 16.1005 17.8477 16.1652 17.8477 16.2945C17.7183 16.2945 17.6537 16.3592 17.6537 16.4885C17.5243 16.4885 17.4597 16.5531 17.4597 16.6825C17.201 16.7471 17.201 16.8118 17.4597 16.8765C16.9941 17.5366 16.4121 18.0539 15.7137 18.4283C15.649 18.1697 15.5844 18.1697 15.5197 18.4283C15.3904 18.4283 15.3257 18.493 15.3257 18.6223C15.1964 18.6223 15.1317 18.687 15.1317 18.8163C14.698 18.7591 14.31 18.8238 13.9677 19.0103C13.6033 19.031 13.5386 18.934 13.7737 18.7193C13.4691 18.4483 13.2104 18.1574 12.9977 17.8464C12.9771 17.3462 13.1065 16.8935 13.3857 16.4885C13.5151 16.4885 13.5797 16.4238 13.5797 16.2945C13.7091 16.2945 13.7737 16.2298 13.7737 16.1005C13.9031 16.1005 13.9677 16.0359 13.9677 15.9065C14.9955 14.976 15.9978 14.0061 16.9747 12.9968C16.9821 11.5336 16.8205 10.1111 16.4897 8.72915C16.4607 8.52508 16.493 8.3311 16.5867 8.1472C18.6883 6.04572 20.7901 3.94422 22.8916 1.84274C22.633 1.71341 22.633 1.58409 22.8916 1.45477C23.4701 1.31843 23.9875 1.41542 24.4436 1.74575ZM23.2796 5.43143C23.215 5.43143 23.1502 5.43143 23.0856 5.43143C23.0856 5.3021 23.021 5.23745 22.8916 5.23745C23.1803 4.71633 23.3097 4.78099 23.2796 5.43143ZM23.0856 5.43143C23.087 5.92374 23.1518 6.4087 23.2796 6.88631C23.2092 7.31158 23.0152 7.66721 22.6976 7.95322C22.439 7.95322 22.3096 8.08254 22.3096 8.34118C21.9862 8.53517 21.7276 8.7938 21.5336 9.11712C21.0973 9.22959 20.7741 9.48823 20.5637 9.89305C20.4343 9.89305 20.3697 9.9577 20.3697 10.087C20.111 10.2164 20.111 10.3457 20.3697 10.475C20.6164 10.979 20.7458 11.4639 20.7577 11.9299C21.1868 12.0829 21.5748 12.0506 21.9216 11.8329C22.1156 11.7682 22.245 11.6389 22.3096 11.4449C22.8916 11.2509 23.2796 10.863 23.4736 10.281C23.7699 10.2952 23.9639 10.1658 24.0556 9.89305C24.4436 9.63441 24.767 9.3111 25.0256 8.92313C25.2842 8.92313 25.543 8.92313 25.8016 8.92313C26.0833 9.07869 26.4065 9.17568 26.7716 9.21411C26.6007 9.35151 26.4715 9.51315 26.3836 9.69907C25.62 10.1386 24.9734 10.7205 24.4436 11.4449C24.185 11.5742 23.991 11.7682 23.8616 12.0269C23.6676 12.0915 23.5382 12.2209 23.4736 12.4148C23.3442 12.4148 23.2796 12.4795 23.2796 12.6088C22.8864 12.5774 22.4984 12.6097 22.1156 12.7058C22.3742 12.7705 22.633 12.8351 22.8916 12.8998C21.8601 12.8944 20.8256 12.8297 19.7877 12.7058C22.6301 12.5446 22.6301 12.4476 19.7877 12.4148C19.8448 11.9812 19.7802 11.5932 19.5937 11.2509C19.5928 10.4684 19.5281 9.69245 19.3997 8.92313C19.7877 8.66449 20.111 8.34118 20.3697 7.95322C20.5637 7.88856 20.6931 7.75923 20.7577 7.56525C21.5336 6.85397 22.3096 6.14271 23.0856 5.43143ZM19.2057 9.89305C19.335 10.3457 19.4643 10.7983 19.5937 11.2509C19.6255 11.7722 19.5932 12.2895 19.4967 12.8028C19.3197 11.8399 19.2227 10.87 19.2057 9.89305ZM20.5637 9.89305C20.9614 10.0525 20.8968 10.2464 20.3697 10.475C20.3697 10.3457 20.3697 10.2164 20.3697 10.087C20.4991 10.087 20.5637 10.0224 20.5637 9.89305Z" fill="#373B3B"/>
<path opacity="0.012" fill-rule="evenodd" clip-rule="evenodd" d="M18.2356 2.32812C18.3002 2.32812 18.3649 2.32812 18.4295 2.32812C18.3936 2.45809 18.3289 2.45809 18.2356 2.32812Z" fill="#545554"/>
<path opacity="0.01" fill-rule="evenodd" clip-rule="evenodd" d="M10.8636 2.32812C10.8636 2.45742 10.8636 2.58671 10.8636 2.716C10.605 2.58671 10.605 2.45742 10.8636 2.32812Z" fill="#1F1F1F"/>
<path opacity="0.01" fill-rule="evenodd" clip-rule="evenodd" d="M18.0415 2.52197C18.1061 2.52197 18.1708 2.52197 18.2354 2.52197C18.1995 2.65193 18.1348 2.65193 18.0415 2.52197Z" fill="#010000"/>
<path opacity="0.01" fill-rule="evenodd" clip-rule="evenodd" d="M17.4595 3.104C17.5241 3.104 17.5888 3.104 17.6534 3.104C17.6175 3.23396 17.5528 3.23396 17.4595 3.104Z" fill="#7E7F7E"/>
<path opacity="0.016" fill-rule="evenodd" clip-rule="evenodd" d="M11.6396 3.29785C13.5796 3.29785 15.5196 3.29785 17.4596 3.29785C15.5181 3.78309 13.5781 3.78309 11.6396 3.29785Z" fill="#343434"/>
<path opacity="0.012" fill-rule="evenodd" clip-rule="evenodd" d="M16.8775 3.87969C16.4203 3.91136 15.9676 3.87903 15.5195 3.78272C16.012 3.62838 16.4647 3.66071 16.8775 3.87969Z" fill="#353535"/>
<path opacity="0.927" fill-rule="evenodd" clip-rule="evenodd" d="M16.8776 4.07354C17.2717 4.16518 17.595 4.35916 17.8476 4.65549C17.7182 4.65549 17.6536 4.72015 17.6536 4.84948C17.5242 4.84948 17.4596 4.91413 17.4596 5.04346C17.3302 5.04346 17.2656 5.10812 17.2656 5.23744C17.1362 5.23744 17.0716 5.3021 17.0716 5.43143C16.9422 5.43143 16.8776 5.49608 16.8776 5.62541C16.7482 5.62541 16.6836 5.69007 16.6836 5.81939C16.5542 5.81939 16.4896 5.88405 16.4896 6.01338C16.3602 6.01338 16.2956 6.07803 16.2956 6.20736C15.233 5.97427 14.1984 5.97427 13.1916 6.20736C12.758 6.15019 12.37 6.21485 12.0276 6.40134C11.7174 6.3494 11.4587 6.41405 11.2516 6.59533C10.6506 6.57835 10.5859 6.67535 11.0576 6.8863C10.7915 6.96423 10.5328 7.06122 10.2816 7.17728C10.0972 7.01713 9.90315 6.98481 9.69965 7.08029C9.76431 7.14494 9.82899 7.20962 9.89365 7.27427C9.13814 7.74871 8.36215 8.169 7.56567 8.53516C7.50101 8.27652 7.43633 8.27652 7.37167 8.53516C7.11301 8.59982 7.11301 8.66449 7.37167 8.72915C7.27989 9.00194 7.08589 9.13127 6.78967 9.11711C6.72501 8.85847 6.66034 8.85847 6.59568 9.11711C6.46634 9.11711 6.40168 9.18177 6.40168 9.3111C6.27234 9.3111 6.20768 9.37575 6.20768 9.50508C6.07834 9.50508 6.01368 9.56973 6.01368 9.69906C5.88434 9.69906 5.81968 9.76372 5.81968 9.89305C5.65707 9.95933 5.59239 10.0887 5.62568 10.281C5.49635 10.281 5.43169 10.3457 5.43169 10.475C5.30235 10.475 5.23769 10.5397 5.23769 10.669C5.07508 10.7353 5.0104 10.8646 5.04369 11.0569C4.91435 11.0569 4.84969 11.1216 4.84969 11.2509C4.68708 11.3172 4.6224 11.4465 4.65569 11.6389C4.52635 11.6389 4.4617 11.7036 4.4617 11.8329C4.29909 11.8992 4.23441 12.0285 4.2677 12.2208C3.99003 12.4692 3.86071 12.7925 3.8797 13.1908C3.49704 13.6919 3.30304 14.2739 3.29771 14.9366C2.93603 16.183 2.83903 17.4762 3.00671 18.8163C3.0916 19.8714 3.3826 20.8413 3.8797 21.726C4.0659 22.6156 4.4539 23.3916 5.04369 24.0538C5.04369 24.1832 5.10835 24.2478 5.23769 24.2478C5.32151 24.4825 5.45083 24.6765 5.62568 24.8298C5.62568 24.9592 5.69034 25.0238 5.81968 25.0238C6.19179 25.7017 6.70913 26.0575 7.37167 26.0907C7.34854 26.3392 7.44554 26.5655 7.66267 26.7696C7.74298 26.681 7.83998 26.6162 7.95366 26.5756C8.78155 27.086 9.6222 27.5386 10.4756 27.9335C9.95831 27.9981 9.95831 28.0629 10.4756 28.1275C10.6132 28.3028 10.8072 28.3674 11.0576 28.3215C11.2647 28.5027 11.5234 28.5674 11.8336 28.5155C13.1144 28.9118 14.4077 28.9766 15.7136 28.7094C16.1069 28.7409 16.4949 28.7085 16.8776 28.6124C16.6836 28.5479 16.4896 28.4831 16.2956 28.4185C17.5018 28.1168 18.6658 27.6967 19.7876 27.1576C19.9169 27.2222 20.0462 27.287 20.1756 27.3516C20.5201 27.1935 20.6495 26.9671 20.5635 26.6726C20.7477 26.5529 20.9093 26.5851 21.0485 26.7696C21.2656 26.5655 21.3626 26.3392 21.3395 26.0907C21.5236 25.971 21.6852 26.0032 21.8245 26.1877C22.1801 25.8321 22.5359 25.4763 22.8915 25.1207C22.6649 24.7578 22.7619 24.4668 23.1825 24.2478C23.2471 24.3124 23.3119 24.3772 23.3765 24.4418C25.237 21.9177 26.0778 19.0726 25.8985 15.9065C26.5626 15.3864 27.0152 14.8045 27.2565 14.1607C27.6235 14.6237 27.8497 15.141 27.9355 15.7125C27.9355 16.8764 27.9355 18.0404 27.9355 19.2043C27.7491 19.5466 27.6843 19.9345 27.7415 20.3682C27.5603 20.5753 27.4955 20.8339 27.5475 21.1441C27.3721 21.2816 27.3075 21.4756 27.3535 21.726C27.1781 21.8636 27.1135 22.0576 27.1595 22.308C26.9969 22.3743 26.9321 22.5035 26.9655 22.696C26.8029 22.7623 26.7381 22.8915 26.7715 23.0839C26.6089 23.1503 26.5441 23.2795 26.5775 23.4719C26.4149 23.5382 26.3501 23.6674 26.3835 23.8599C26.2209 23.9262 26.1561 24.0554 26.1895 24.2478C26.0269 24.3142 25.9621 24.4434 25.9955 24.6358C25.8661 24.6358 25.8015 24.7004 25.8015 24.8298C25.6389 24.8961 25.5741 25.0253 25.6075 25.2177C25.4781 25.2177 25.4135 25.2823 25.4135 25.4117C25.2841 25.4117 25.2195 25.4763 25.2195 25.6057C25.0569 25.672 24.9921 25.8012 25.0255 25.9937C24.8961 25.9937 24.8315 26.0583 24.8315 26.1877C24.7021 26.1877 24.6375 26.2523 24.6375 26.3816C24.5081 26.3816 24.4435 26.4462 24.4435 26.5756C24.3141 26.5756 24.2495 26.6402 24.2495 26.7696C24.1201 26.7696 24.0555 26.8342 24.0555 26.9636C23.9261 26.9636 23.8615 27.0282 23.8615 27.1576C23.7321 27.1576 23.6675 27.2222 23.6675 27.3516C23.5381 27.3516 23.4735 27.4162 23.4735 27.5455C23.2149 27.6101 23.2149 27.6749 23.4735 27.7395C23.272 28.1335 22.9488 28.3921 22.5035 28.5155C22.4389 28.2569 22.3741 28.2569 22.3095 28.5155C22.0509 28.5801 22.0509 28.6448 22.3095 28.7094C21.7287 29.1944 21.0821 29.5824 20.3696 29.8733C20.2402 29.6148 20.1109 29.6148 19.9816 29.8733C19.7876 30.0027 19.5936 30.1319 19.3996 30.2613C19.2702 30.0027 19.1409 30.0027 19.0116 30.2613C18.4105 30.2444 18.3458 30.3414 18.8176 30.5523C16.009 31.638 13.1637 31.7028 10.2816 30.7463C10.4756 30.6817 10.6696 30.6169 10.8636 30.5523C10.4881 30.3946 10.1001 30.2976 9.69965 30.2613C9.57031 30.0027 9.44099 30.0027 9.31165 30.2613C9.06378 30.2066 8.86978 30.0772 8.72966 29.8733C8.665 29.6148 8.60032 29.6148 8.53566 29.8733C8.33157 29.9022 8.13757 29.87 7.95366 29.7763C7.889 29.5824 7.82432 29.3884 7.75967 29.1944C7.55616 29.099 7.36216 29.1312 7.17767 29.2914C6.69896 29.0386 6.24628 28.7477 5.81968 28.4185C5.26863 27.5021 4.55732 26.6292 3.6857 25.7997C3.48945 25.5335 3.29546 25.275 3.10371 25.0238C2.91464 24.5786 2.65598 24.1906 2.32771 23.8599C2.361 23.6674 2.29634 23.5382 2.13372 23.4719C2.167 23.2795 2.10234 23.1503 1.93972 23.0839C1.973 22.8915 1.90834 22.7623 1.74572 22.696C1.79176 22.4455 1.72709 22.2515 1.55172 22.114C1.59776 21.8636 1.53309 21.6696 1.35772 21.5321C1.40376 21.2816 1.33909 21.0876 1.16372 20.9501C1.21568 20.6399 1.15101 20.3813 0.969727 20.1742C0.969727 18.4283 0.969727 16.6825 0.969727 14.9366C1.15425 14.6614 1.21891 14.3381 1.16372 13.9667C1.46867 13.44 1.66267 12.858 1.74572 12.2208C2.6927 10.2683 3.98603 8.55474 5.62568 7.08029C5.41153 6.86083 5.47621 6.69919 5.81968 6.59533C5.93337 6.63593 6.03036 6.70058 6.11068 6.78931C6.3278 6.58522 6.4248 6.3589 6.40168 6.11037C7.67287 5.20006 9.0632 4.52112 10.5726 4.07354C12.6628 3.90127 14.7644 3.90127 16.8776 4.07354Z" fill="#373B3B"/>
<path opacity="0.012" fill-rule="evenodd" clip-rule="evenodd" d="M16.8777 4.07382C16.8777 4.00918 16.8777 3.94452 16.8777 3.87988C17.9123 3.94452 17.9123 4.00918 16.8777 4.07382Z" fill="#302F2F"/>
<path opacity="0.01" fill-rule="evenodd" clip-rule="evenodd" d="M18.0415 4.46191C18.3001 4.59121 18.3001 4.59121 18.0415 4.46191Z" fill="#007F7E"/>
<path opacity="0.01" fill-rule="evenodd" clip-rule="evenodd" d="M17.8477 4.65576C17.9123 4.65576 17.977 4.65576 18.0416 4.65576C18.0057 4.78572 17.941 4.78572 17.8477 4.65576Z" fill="#010000"/>
<path opacity="0.01" fill-rule="evenodd" clip-rule="evenodd" d="M17.6534 4.84961C17.7181 4.84961 17.7827 4.84961 17.8474 4.84961C17.8474 5.10819 17.7181 5.23749 17.4595 5.23749C17.4595 5.17285 17.4595 5.10819 17.4595 5.04355C17.5888 5.04355 17.6534 4.97891 17.6534 4.84961Z" fill="#121212"/>
<path opacity="0.016" fill-rule="evenodd" clip-rule="evenodd" d="M17.2656 5.23779C17.3303 5.23779 17.3949 5.23779 17.4596 5.23779C17.4236 5.36775 17.359 5.36775 17.2656 5.23779Z" fill="#3E3F3E"/>
<path opacity="0.016" fill-rule="evenodd" clip-rule="evenodd" d="M17.0715 5.43164C17.1362 5.43164 17.2008 5.43164 17.2655 5.43164C17.2295 5.5616 17.1649 5.5616 17.0715 5.43164Z" fill="#3E3F3E"/>
<path opacity="0.016" fill-rule="evenodd" clip-rule="evenodd" d="M16.8777 5.62549C16.9423 5.62549 17.007 5.62549 17.0716 5.62549C17.0357 5.75545 16.971 5.75545 16.8777 5.62549Z" fill="#3E3F3E"/>
<path opacity="0.016" fill-rule="evenodd" clip-rule="evenodd" d="M16.6836 5.81982C16.7482 5.81982 16.8129 5.81982 16.8775 5.81982C16.8416 5.94978 16.7769 5.94978 16.6836 5.81982Z" fill="#3E3F3E"/>
<path opacity="0.01" fill-rule="evenodd" clip-rule="evenodd" d="M16.4895 6.01367C16.5541 6.01367 16.6188 6.01367 16.6834 6.01367C16.6475 6.14363 16.5828 6.14363 16.4895 6.01367Z" fill="#7E7F7E"/>
<path opacity="0.012" fill-rule="evenodd" clip-rule="evenodd" d="M13.1917 6.20731C13.9703 6.17521 14.7463 6.20754 15.5196 6.30428C14.707 6.46173 13.931 6.42942 13.1917 6.20731Z" fill="#3A3A3A"/>
<path opacity="0.01" fill-rule="evenodd" clip-rule="evenodd" d="M16.2957 6.20752C16.3603 6.20752 16.425 6.20752 16.4896 6.20752C16.4537 6.33748 16.389 6.33748 16.2957 6.20752Z" fill="#7E7F7E"/>
<path opacity="0.012" fill-rule="evenodd" clip-rule="evenodd" d="M27.1594 6.40171C27.373 6.18871 27.6316 6.15638 27.9354 6.30474C27.6846 6.39977 27.4258 6.4321 27.1594 6.40171Z" fill="#3B3B3B"/>
<path opacity="0.01" fill-rule="evenodd" clip-rule="evenodd" d="M12.0276 6.40156C12.3572 6.37049 12.6806 6.40282 12.9976 6.49853C12.6315 6.64972 12.3082 6.61739 12.0276 6.40156Z" fill="#181818"/>
<path opacity="0.01" fill-rule="evenodd" clip-rule="evenodd" d="M16.2954 6.40139C16.1499 6.60959 15.9559 6.6419 15.7136 6.49836C15.8975 6.40473 16.0914 6.3724 16.2954 6.40139Z" fill="#222222"/>
<path opacity="0.01" fill-rule="evenodd" clip-rule="evenodd" d="M29.0995 6.59556C28.8331 6.62595 28.5743 6.59362 28.3235 6.49859C28.6273 6.35023 28.8859 6.38256 29.0995 6.59556Z" fill="#1F1F1F"/>
<path opacity="0.012" fill-rule="evenodd" clip-rule="evenodd" d="M11.2517 6.59524C11.4557 6.56625 11.6497 6.59858 11.8335 6.69221C11.5912 6.83575 11.3973 6.80344 11.2517 6.59524Z" fill="#2C2C2C"/>
<path opacity="0.012" fill-rule="evenodd" clip-rule="evenodd" d="M29.0994 6.78964C29.0994 6.725 29.0994 6.66034 29.0994 6.5957C30.3928 6.66034 30.3928 6.725 29.0994 6.78964Z" fill="#454545"/>
<path opacity="0.958" fill-rule="evenodd" clip-rule="evenodd" d="M15.3256 9.89349C15.3424 10.7386 15.407 11.5792 15.5196 12.4153C15.3902 12.4153 15.3256 12.4799 15.3256 12.6093C15.1962 12.6093 15.1316 12.6739 15.1316 12.8032C15.0022 12.8032 14.9376 12.8679 14.9376 12.9972C14.6789 13.0619 14.6789 13.1265 14.9376 13.1912C14.9161 13.311 14.8514 13.408 14.7436 13.4822C14.0275 13.5636 13.3161 13.6606 12.6096 13.7732C12.4803 13.5145 12.3509 13.5145 12.2216 13.7732C11.9629 13.8378 11.9629 13.9025 12.2216 13.9671C12.0737 14.309 11.8151 14.503 11.4456 14.5491C11.3809 14.2905 11.3163 14.2905 11.2516 14.5491C11.1223 14.5491 11.0576 14.6137 11.0576 14.7431C10.895 14.8094 10.8303 14.9387 10.8636 15.131C10.701 15.1973 10.6363 15.3267 10.6696 15.519C10.507 15.5853 10.4423 15.7146 10.4756 15.907C9.85804 17.4925 10.0844 18.9797 11.1546 20.3686C11.2193 20.2392 11.2839 20.11 11.3486 19.9806C11.8876 20.6221 12.5666 21.0425 13.3856 21.2415C13.1656 21.4386 13.2302 21.568 13.5796 21.6295C14.3157 21.7918 15.0271 21.7273 15.7136 21.4355C15.6489 21.3709 15.5842 21.3061 15.5196 21.2415C15.9298 21.1335 16.3178 20.9717 16.6836 20.7566C16.7972 20.7971 16.8942 20.8619 16.9746 20.9505C17.8072 20.3831 18.2922 19.6072 18.4295 18.6227C18.6466 17.7744 18.9699 17.0308 19.3995 16.3919C21.0194 16.3175 22.636 16.3821 24.2495 16.5859C20.8892 16.7473 20.8892 16.8443 24.2495 16.8769C24.2549 17.917 24.1901 18.9516 24.0555 19.9806C23.8801 20.1182 23.8155 20.3121 23.8615 20.5626C23.6861 20.7001 23.6215 20.8941 23.6675 21.1445C23.5049 21.2109 23.4401 21.3401 23.4735 21.5325C23.3109 21.5988 23.2461 21.728 23.2795 21.9205C23.1169 21.9868 23.0521 22.116 23.0855 22.3084C22.9229 22.3748 22.8581 22.504 22.8915 22.6964C22.7621 22.6964 22.6975 22.761 22.6975 22.8904C22.5349 22.9567 22.4701 23.0859 22.5035 23.2783C22.3741 23.2783 22.3095 23.3429 22.3095 23.4723C22.1801 23.4723 22.1155 23.5369 22.1155 23.6663C21.8569 23.7309 21.8569 23.7957 22.1155 23.8603C22.0385 24.0591 21.9093 24.0915 21.7275 23.9573C21.5873 23.412 21.2317 22.927 20.6605 22.5024C20.4643 22.6648 20.238 22.7294 19.9815 22.6964C20.0145 22.9528 19.9498 23.1792 19.7875 23.3753C20.2954 23.7839 20.6834 24.2688 20.9515 24.8302C20.8221 24.8302 20.7575 24.8948 20.7575 25.0242C20.6281 25.0242 20.5635 25.0888 20.5635 25.2182C20.4342 25.2182 20.3695 25.2828 20.3695 25.4122C20.1109 25.4768 20.1109 25.5415 20.3695 25.6061C19.8533 26.1885 19.2066 26.5764 18.4295 26.77C18.3002 26.5115 18.1709 26.5115 18.0415 26.77C17.7911 26.7241 17.5971 26.7887 17.4596 26.964C17.2091 26.9181 17.0151 26.9827 16.8776 27.158C16.5674 27.106 16.3087 27.1708 16.1016 27.352C15.6489 27.352 15.1962 27.352 14.7436 27.352C14.7757 26.5733 14.7433 25.7974 14.6466 25.0242C14.5819 25.7355 14.5172 26.4467 14.4526 27.158C14.4688 26.4187 14.3071 25.772 13.9676 25.2182C13.9029 24.9596 13.8382 24.9596 13.7736 25.2182C13.5832 25.8897 13.5185 26.6011 13.5796 27.352C13.2563 27.352 12.9329 27.352 12.6096 27.352C12.4025 27.1708 12.1438 27.106 11.8336 27.158C11.6265 26.9768 11.3678 26.912 11.0576 26.964C10.9283 26.7054 10.799 26.7054 10.6696 26.964C10.406 26.8657 10.212 26.6717 10.0876 26.3821C10.023 26.5115 9.95828 26.6407 9.89362 26.77C9.53746 26.4948 9.14946 26.2684 8.72963 26.0911C8.75276 25.8426 8.65576 25.6162 8.43863 25.4122C8.18692 25.6612 7.96058 25.6288 7.75964 25.3152C7.85309 25.1196 7.88543 24.8933 7.85664 24.6362C8.2123 24.2807 8.56797 23.9249 8.92363 23.5693C8.76133 23.3732 8.69665 23.1468 8.72963 22.8904C8.53563 22.8904 8.34164 22.8904 8.14764 22.8904C8.08298 22.6318 8.0183 22.6318 7.95364 22.8904C7.8243 22.8904 7.75964 22.955 7.75964 23.0844C7.6303 23.0844 7.56564 23.149 7.56564 23.2783C7.4363 23.2783 7.37164 23.3429 7.37164 23.4723C7.24231 23.4723 7.17765 23.5369 7.17765 23.6663C6.91899 23.7309 6.91899 23.7957 7.17765 23.8603C7.11731 24.05 6.98797 24.1794 6.78965 24.2483C6.6593 23.9672 6.52996 23.7086 6.40165 23.4723C6.2054 23.2062 6.01141 22.9476 5.81966 22.6964C5.73583 22.4617 5.60651 22.2677 5.43166 22.1144C5.46495 21.922 5.40027 21.7928 5.23766 21.7265C5.27095 21.534 5.20627 21.4049 5.04366 21.3385C5.0897 21.0881 5.02504 20.8941 4.84967 20.7566C4.8957 20.5061 4.83104 20.3121 4.65567 20.1746C4.70762 19.8644 4.64296 19.6058 4.46167 19.3987C4.46167 18.9461 4.46167 18.4934 4.46167 18.0408C6.7861 18.0079 6.7861 17.9109 4.46167 17.7498C7.04831 17.5558 7.04831 17.3618 4.46167 17.1679C6.7861 17.0068 6.7861 16.9098 4.46167 16.8769C4.46167 16.4243 4.46167 15.9716 4.46167 15.519C5.03705 13.659 5.84536 11.9778 6.88665 10.4754C7.09492 10.6924 7.32124 10.8864 7.56564 11.0574C7.52504 11.1711 7.46038 11.2681 7.37164 11.3484C7.73815 11.8655 8.15848 12.1565 8.63263 12.2213C8.72963 12.0273 8.82663 11.8333 8.92363 11.6393C8.60029 11.2514 8.27698 10.8634 7.95364 10.4754C7.94394 10.0233 8.00862 9.60302 8.14764 9.21454C8.45703 9.33425 8.71568 9.26958 8.92363 9.02056C8.85897 8.95591 8.79429 8.89123 8.72963 8.82658C10.5844 7.45766 12.6537 6.94038 14.9376 7.27471C11.5774 7.43607 11.5774 7.53306 14.9376 7.56568C14.9796 8.3814 15.1089 9.15734 15.3256 9.89349Z" fill="#373C3C"/>
<path opacity="0.016" fill-rule="evenodd" clip-rule="evenodd" d="M15.1316 7.56543C15.3447 7.77894 15.377 8.03754 15.2286 8.34119C15.1336 8.09038 15.1013 7.83179 15.1316 7.56543Z" fill="#354343"/>
<path opacity="0.012" fill-rule="evenodd" clip-rule="evenodd" d="M22.6974 7.95361C22.6974 8.01825 22.6974 8.08291 22.6974 8.14755C22.5681 8.14755 22.5035 8.21219 22.5035 8.34149C22.4389 8.34149 22.3742 8.34149 22.3096 8.34149C22.3096 8.08291 22.4389 7.95361 22.6974 7.95361Z" fill="#101C1C"/>
<path opacity="0.016" fill-rule="evenodd" clip-rule="evenodd" d="M7.37158 8.53516C7.43622 8.53516 7.50088 8.53516 7.56552 8.53516C7.52958 8.66512 7.46493 8.66512 7.37158 8.53516Z" fill="#3E3F3E"/>
<path opacity="0.01" fill-rule="evenodd" clip-rule="evenodd" d="M30.8455 9.11697C30.8166 8.91295 30.8487 8.71901 30.9424 8.53516C31.0859 8.77746 31.0535 8.9714 30.8455 9.11697Z" fill="#3E3E3E"/>
<path opacity="0.012" fill-rule="evenodd" clip-rule="evenodd" d="M16.4895 8.72949C16.5213 9.25078 16.489 9.76808 16.3925 10.2814C16.2373 9.72521 16.2696 9.20793 16.4895 8.72949Z" fill="#3F3F3F"/>
<path opacity="0.016" fill-rule="evenodd" clip-rule="evenodd" d="M6.5957 9.11719C6.66034 9.11719 6.725 9.11719 6.78964 9.11719C6.75371 9.24715 6.68905 9.24715 6.5957 9.11719Z" fill="#3E3F3E"/>
<path opacity="0.016" fill-rule="evenodd" clip-rule="evenodd" d="M15.3257 9.89304C15.294 9.43586 15.3264 8.98322 15.4227 8.53516C15.577 9.02758 15.5447 9.4802 15.3257 9.89304Z" fill="#2F2F2F"/>
<path opacity="0.01" fill-rule="evenodd" clip-rule="evenodd" d="M30.6514 9.11719C30.7159 9.11719 30.7807 9.11719 30.8453 9.11719C30.8094 9.24715 30.7447 9.24715 30.6514 9.11719Z" fill="black"/>
<path opacity="0.012" fill-rule="evenodd" clip-rule="evenodd" d="M6.40161 9.31152C6.46625 9.31152 6.53091 9.31152 6.59555 9.31152C6.55961 9.44148 6.49495 9.44148 6.40161 9.31152Z" fill="#545554"/>
<path opacity="0.01" fill-rule="evenodd" clip-rule="evenodd" d="M30.4575 9.31152C30.5221 9.31152 30.5869 9.31152 30.6515 9.31152C30.6156 9.44148 30.5508 9.44148 30.4575 9.31152Z" fill="#010000"/>
<path opacity="0.012" fill-rule="evenodd" clip-rule="evenodd" d="M6.20776 9.50537C6.2724 9.50537 6.33706 9.50537 6.4017 9.50537C6.36577 9.63533 6.30111 9.63533 6.20776 9.50537Z" fill="#02201F"/>
<path opacity="0.01" fill-rule="evenodd" clip-rule="evenodd" d="M30.2634 9.50537C30.328 9.50537 30.3928 9.50537 30.4574 9.50537C30.4215 9.63533 30.3567 9.63533 30.2634 9.50537Z" fill="#010000"/>
<path opacity="0.01" fill-rule="evenodd" clip-rule="evenodd" d="M19.2056 8.92334C19.2702 8.92334 19.3349 8.92334 19.3995 8.92334C19.5279 9.69266 19.5926 10.4686 19.5934 11.2511C19.4641 10.7985 19.3349 10.3459 19.2056 9.89326C19.2056 9.56994 19.2056 9.24665 19.2056 8.92334Z" fill="#282A2A"/>
<path opacity="0.01" fill-rule="evenodd" clip-rule="evenodd" d="M30.0693 9.69922C30.1339 9.69922 30.1987 9.69922 30.2633 9.69922C30.2274 9.82918 30.1626 9.82918 30.0693 9.69922Z" fill="#010000"/>
<path opacity="0.01" fill-rule="evenodd" clip-rule="evenodd" d="M6.01352 9.69922C6.07816 9.69922 6.14282 9.69922 6.20746 9.69922C6.22162 9.99534 6.09232 10.1893 5.81958 10.281C5.81958 10.1517 5.81958 10.0225 5.81958 9.89316C5.94888 9.89316 6.01352 9.82852 6.01352 9.69922Z" fill="#151515"/>
<path opacity="0.01" fill-rule="evenodd" clip-rule="evenodd" d="M7.56576 9.69922C7.76455 9.77614 7.79688 9.90542 7.66273 10.0871C7.57268 9.97182 7.54035 9.84252 7.56576 9.69922Z" fill="#535353"/>
<path opacity="0.01" fill-rule="evenodd" clip-rule="evenodd" d="M29.8755 9.89307C29.9401 9.89307 30.0048 9.89307 30.0694 9.89307C30.0335 10.023 29.9688 10.023 29.8755 9.89307Z" fill="#010000"/>
<path opacity="0.01" fill-rule="evenodd" clip-rule="evenodd" d="M29.6814 10.0874C29.746 10.0874 29.8108 10.0874 29.8753 10.0874C29.8395 10.2174 29.7747 10.2174 29.6814 10.0874Z" fill="#010000"/>
<path opacity="0.01" fill-rule="evenodd" clip-rule="evenodd" d="M5.62573 10.2812C5.69037 10.2812 5.75503 10.2812 5.81967 10.2812C5.78373 10.4112 5.71908 10.4112 5.62573 10.2812Z" fill="#010000"/>
<path opacity="0.01" fill-rule="evenodd" clip-rule="evenodd" d="M29.4875 10.2812C29.5521 10.2812 29.6169 10.2812 29.6815 10.2812C29.6456 10.4112 29.5808 10.4112 29.4875 10.2812Z" fill="black"/>
<path opacity="0.016" fill-rule="evenodd" clip-rule="evenodd" d="M5.43164 10.4751C5.49628 10.4751 5.56094 10.4751 5.62558 10.4751C5.58964 10.6051 5.52498 10.6051 5.43164 10.4751Z" fill="#3E3F3E"/>
<path opacity="0.016" fill-rule="evenodd" clip-rule="evenodd" d="M15.5197 10.0874C15.7374 10.4343 15.7697 10.8223 15.6167 11.2513C15.5206 10.8686 15.4882 10.4807 15.5197 10.0874Z" fill="#3C3C3C"/>
<path opacity="0.01" fill-rule="evenodd" clip-rule="evenodd" d="M5.23779 10.6689C5.30243 10.6689 5.36709 10.6689 5.43173 10.6689C5.46501 10.8613 5.40035 10.9906 5.23779 11.0568C5.23779 10.9275 5.23779 10.7982 5.23779 10.6689Z" fill="#171919"/>
<path opacity="0.012" fill-rule="evenodd" clip-rule="evenodd" d="M5.0437 11.0571C5.10834 11.0571 5.173 11.0571 5.23764 11.0571C5.2017 11.1871 5.13704 11.1871 5.0437 11.0571Z" fill="#02201F"/>
<path opacity="0.01" fill-rule="evenodd" clip-rule="evenodd" d="M23.2796 10.2812C23.3442 10.2812 23.409 10.2812 23.4736 10.2812C23.2796 10.8632 22.8916 11.2512 22.3096 11.4452C22.3096 11.3805 22.3096 11.3158 22.3096 11.2512C22.439 11.2512 22.5036 11.1865 22.5036 11.0572C22.633 11.0572 22.6976 10.9925 22.6976 10.8632C22.827 10.8632 22.8916 10.7985 22.8916 10.6692C23.021 10.6692 23.0856 10.6046 23.0856 10.4752C23.215 10.4752 23.2796 10.4106 23.2796 10.2812Z" fill="#252525"/>
<path opacity="0.01" fill-rule="evenodd" clip-rule="evenodd" d="M4.84961 11.251C4.91425 11.251 4.97891 11.251 5.04355 11.251C5.07683 11.4433 5.01217 11.5726 4.84961 11.6389C4.84961 11.5096 4.84961 11.3803 4.84961 11.251Z" fill="#1F1F1F"/>
<path opacity="0.01" fill-rule="evenodd" clip-rule="evenodd" d="M15.7136 12.4152C15.6825 12.0856 15.7148 11.7623 15.8105 11.4453C15.9617 11.8113 15.9294 12.1347 15.7136 12.4152Z" fill="#131313"/>
<path opacity="0.012" fill-rule="evenodd" clip-rule="evenodd" d="M4.65576 11.6392C4.7204 11.6392 4.78506 11.6392 4.8497 11.6392C4.81376 11.7691 4.7491 11.7691 4.65576 11.6392Z" fill="#545554"/>
<path opacity="0.01" fill-rule="evenodd" clip-rule="evenodd" d="M4.46167 11.833C4.52631 11.833 4.59097 11.833 4.65561 11.833C4.68889 12.0253 4.62423 12.1546 4.46167 12.2209C4.46167 12.0916 4.46167 11.9623 4.46167 11.833Z" fill="#535353"/>
<path opacity="0.012" fill-rule="evenodd" clip-rule="evenodd" d="M4.26758 12.2212C4.33222 12.2212 4.39688 12.2212 4.46152 12.2212C4.39688 12.7384 4.33222 12.7384 4.26758 12.2212Z" fill="#393939"/>
<path opacity="0.01" fill-rule="evenodd" clip-rule="evenodd" d="M15.5195 12.415C15.5842 12.415 15.6488 12.415 15.7135 12.415C15.6775 12.545 15.6129 12.545 15.5195 12.415Z" fill="black"/>
<path opacity="0.01" fill-rule="evenodd" clip-rule="evenodd" d="M15.3257 12.6089C15.3903 12.6089 15.455 12.6089 15.5196 12.6089C15.4837 12.7388 15.419 12.7388 15.3257 12.6089Z" fill="#010000"/>
<path opacity="0.01" fill-rule="evenodd" clip-rule="evenodd" d="M15.1316 12.8032C15.1962 12.8032 15.2609 12.8032 15.3255 12.8032C15.2896 12.9332 15.2249 12.9332 15.1316 12.8032Z" fill="black"/>
<path opacity="0.01" fill-rule="evenodd" clip-rule="evenodd" d="M4.07381 13.1911C4.04841 13.0478 4.08074 12.9185 4.17078 12.8032C4.30493 12.9849 4.2726 13.1142 4.07381 13.1911Z" fill="#1F1F1F"/>
<path opacity="0.01" fill-rule="evenodd" clip-rule="evenodd" d="M14.9377 12.9971C15.0024 12.9971 15.067 12.9971 15.1317 12.9971C15.0957 13.127 15.0311 13.127 14.9377 12.9971Z" fill="black"/>
<path opacity="0.01" fill-rule="evenodd" clip-rule="evenodd" d="M3.87964 13.1909C3.94428 13.1909 4.00894 13.1909 4.07358 13.1909C4.00894 13.7081 3.94428 13.7081 3.87964 13.1909Z" fill="#201F1F"/>
<path opacity="0.012" fill-rule="evenodd" clip-rule="evenodd" d="M12.2217 13.9669C12.2217 13.9022 12.2217 13.8376 12.2217 13.7729C12.351 13.7729 12.4803 13.7729 12.6096 13.7729C12.5433 13.9355 12.414 14.0002 12.2217 13.9669Z" fill="#4D4D4D"/>
<path opacity="0.01" fill-rule="evenodd" clip-rule="evenodd" d="M3.68563 13.7729C3.88442 13.8499 3.91675 13.9791 3.7826 14.1608C3.69255 14.0456 3.66023 13.9163 3.68563 13.7729Z" fill="#191919"/>
<path opacity="0.012" fill-rule="evenodd" clip-rule="evenodd" d="M3.49173 14.9368C3.46273 14.7328 3.49506 14.5388 3.5887 14.355C3.73223 14.5973 3.69992 14.7912 3.49173 14.9368Z" fill="#404040"/>
<path opacity="0.01" fill-rule="evenodd" clip-rule="evenodd" d="M11.2516 14.5488C11.3162 14.5488 11.3809 14.5488 11.4455 14.5488C11.4597 14.845 11.3304 15.0389 11.0576 15.1306C11.0576 15.0013 11.0576 14.8721 11.0576 14.7428C11.1869 14.7428 11.2516 14.6781 11.2516 14.5488Z" fill="#3B3C3C"/>
<path opacity="0.012" fill-rule="evenodd" clip-rule="evenodd" d="M4.46152 15.5184C4.39688 15.5184 4.33222 15.5184 4.26758 15.5184C4.33222 14.4841 4.39688 14.4841 4.46152 15.5184Z" fill="#343333"/>
<path opacity="0.01" fill-rule="evenodd" clip-rule="evenodd" d="M3.29761 14.937C3.36225 14.937 3.42691 14.937 3.49155 14.937C3.42691 16.4889 3.36225 16.4889 3.29761 14.937Z" fill="#3C3C3C"/>
<path opacity="0.01" fill-rule="evenodd" clip-rule="evenodd" d="M19.0115 15.1309C19.0761 15.1309 19.1408 15.1309 19.2054 15.1309C19.1695 15.2608 19.1048 15.2608 19.0115 15.1309Z" fill="#010000"/>
<path opacity="0.01" fill-rule="evenodd" clip-rule="evenodd" d="M10.8635 15.1309C10.9282 15.1309 10.9928 15.1309 11.0575 15.1309C11.0907 15.3232 11.0261 15.4525 10.8635 15.5187C10.8635 15.3894 10.8635 15.2602 10.8635 15.1309Z" fill="#191919"/>
<path opacity="0.012" fill-rule="evenodd" clip-rule="evenodd" d="M18.8176 15.3247C18.8823 15.3247 18.9469 15.3247 19.0116 15.3247C18.9756 15.4547 18.911 15.4547 18.8176 15.3247Z" fill="#02201F"/>
<path opacity="0.012" fill-rule="evenodd" clip-rule="evenodd" d="M19.7876 15.5186C20.3315 15.2979 20.9136 15.2656 21.5336 15.4216C20.9551 15.5182 20.3732 15.5505 19.7876 15.5186Z" fill="#333333"/>
<path opacity="0.01" fill-rule="evenodd" clip-rule="evenodd" d="M24.2495 15.3247C24.3141 15.3247 24.3789 15.3247 24.4435 15.3247C24.4076 15.4547 24.3428 15.4547 24.2495 15.3247Z" fill="#010000"/>
<path opacity="0.012" fill-rule="evenodd" clip-rule="evenodd" d="M18.6235 15.5186C18.6882 15.5186 18.7528 15.5186 18.8175 15.5186C18.7815 15.6485 18.7169 15.6485 18.6235 15.5186Z" fill="#02201F"/>
<path opacity="0.012" fill-rule="evenodd" clip-rule="evenodd" d="M22.3096 15.7129C22.788 15.493 23.3054 15.4606 23.8616 15.6159C23.3482 15.7124 22.8308 15.7447 22.3096 15.7129Z" fill="#3B3B3B"/>
<path opacity="0.01" fill-rule="evenodd" clip-rule="evenodd" d="M24.2496 15.5186C24.1202 15.6479 24.1202 15.6479 24.2496 15.5186Z" fill="black"/>
<path opacity="0.01" fill-rule="evenodd" clip-rule="evenodd" d="M10.6697 15.5186C10.7343 15.5186 10.799 15.5186 10.8636 15.5186C10.8969 15.7109 10.8322 15.8402 10.6697 15.9064C10.6697 15.7771 10.6697 15.6479 10.6697 15.5186Z" fill="#1F1F1F"/>
<path opacity="0.012" fill-rule="evenodd" clip-rule="evenodd" d="M18.4297 15.7129C18.4943 15.7129 18.559 15.7129 18.6236 15.7129C18.5877 15.8428 18.523 15.8428 18.4297 15.7129Z" fill="#02201F"/>
<path opacity="0.016" fill-rule="evenodd" clip-rule="evenodd" d="M13.9676 15.9068C13.8382 15.9068 13.7736 15.9715 13.7736 16.1008C13.6442 16.1008 13.5796 16.1654 13.5796 16.2947C13.4502 16.2947 13.3856 16.3593 13.3856 16.4886C13.1901 16.1458 13.3195 15.8872 13.7736 15.7129C13.8913 15.7369 13.9559 15.8015 13.9676 15.9068Z" fill="#252525"/>
<path opacity="0.01" fill-rule="evenodd" clip-rule="evenodd" d="M18.2356 15.9067C18.3002 15.9067 18.3649 15.9067 18.4295 15.9067C18.3936 16.0367 18.3289 16.0367 18.2356 15.9067Z" fill="#010000"/>
<path opacity="0.016" fill-rule="evenodd" clip-rule="evenodd" d="M4.26766 15.5186C4.2991 15.9118 4.26679 16.2998 4.17069 16.6825C4.01766 16.2534 4.04997 15.8655 4.26766 15.5186Z" fill="#2E2D2D"/>
<path opacity="0.01" fill-rule="evenodd" clip-rule="evenodd" d="M18.0415 16.1006C18.1061 16.1006 18.1708 16.1006 18.2354 16.1006C18.1995 16.2305 18.1348 16.2305 18.0415 16.1006Z" fill="#010000"/>
<path opacity="0.01" fill-rule="evenodd" clip-rule="evenodd" d="M10.4756 15.9067C10.5402 15.9067 10.6049 15.9067 10.6695 15.9067C10.6049 16.9411 10.5402 16.9411 10.4756 15.9067Z" fill="#1F1F1F"/>
<path opacity="0.016" fill-rule="evenodd" clip-rule="evenodd" d="M17.8477 16.2949C17.9123 16.2949 17.977 16.2949 18.0416 16.2949C18.0057 16.4249 17.941 16.4249 17.8477 16.2949Z" fill="#3E3F3E"/>
<path opacity="0.012" fill-rule="evenodd" clip-rule="evenodd" d="M27.9354 20.3683C27.9354 19.9804 27.9354 19.5924 27.9354 19.2044C28.194 18.0405 28.194 16.8766 27.9354 15.7127C27.904 15.3195 27.9364 14.9315 28.0324 14.5488C28.45 16.5251 28.4176 18.4649 27.9354 20.3683Z" fill="#3A3A3A"/>
<path opacity="0.012" fill-rule="evenodd" clip-rule="evenodd" d="M17.6536 16.4888C17.7182 16.4888 17.7829 16.4888 17.8475 16.4888C17.8116 16.6187 17.7469 16.6187 17.6536 16.4888Z" fill="#545554"/>
<path opacity="0.012" fill-rule="evenodd" clip-rule="evenodd" d="M17.4595 16.6826C17.5241 16.6826 17.5888 16.6826 17.6534 16.6826C17.6175 16.8126 17.5528 16.8126 17.4595 16.6826Z" fill="#545554"/>
<path opacity="0.012" fill-rule="evenodd" clip-rule="evenodd" d="M12.8036 17.8466C12.5906 17.6331 12.5582 17.3745 12.7066 17.0708C12.8016 17.3216 12.834 17.5802 12.8036 17.8466Z" fill="#333333"/>
<path opacity="0.016" fill-rule="evenodd" clip-rule="evenodd" d="M24.4436 17.0708C24.6649 17.6799 24.6972 18.3265 24.5405 19.0106C24.444 18.3672 24.4116 17.7206 24.4436 17.0708Z" fill="#373737"/>
<path opacity="0.01" fill-rule="evenodd" clip-rule="evenodd" d="M12.8037 17.8467C12.8684 17.8467 12.933 17.8467 12.9977 17.8467C12.933 18.3639 12.8684 18.3639 12.8037 17.8467Z" fill="#155353"/>
<path opacity="0.016" fill-rule="evenodd" clip-rule="evenodd" d="M18.4296 18.6223C18.2138 18.3417 18.1815 18.0184 18.3327 17.6523C18.4284 17.9693 18.4607 18.2926 18.4296 18.6223Z" fill="#3C3C3C"/>
<path opacity="0.01" fill-rule="evenodd" clip-rule="evenodd" d="M15.5195 18.4287C15.5842 18.4287 15.6488 18.4287 15.7135 18.4287C15.6775 18.5587 15.6129 18.5587 15.5195 18.4287Z" fill="#010000"/>
<path opacity="0.012" fill-rule="evenodd" clip-rule="evenodd" d="M4.26763 19.3984C4.04865 18.9856 4.01632 18.533 4.17066 18.0405C4.26697 18.4886 4.2993 18.9412 4.26763 19.3984Z" fill="#3F3E3E"/>
<path opacity="0.01" fill-rule="evenodd" clip-rule="evenodd" d="M15.3257 18.6226C15.3903 18.6226 15.455 18.6226 15.5196 18.6226C15.4837 18.7525 15.419 18.7525 15.3257 18.6226Z" fill="black"/>
<path opacity="0.01" fill-rule="evenodd" clip-rule="evenodd" d="M15.1316 18.8164C15.1962 18.8164 15.2609 18.8164 15.3255 18.8164C15.2896 18.9464 15.2249 18.9464 15.1316 18.8164Z" fill="#010000"/>
<path opacity="0.012" fill-rule="evenodd" clip-rule="evenodd" d="M13.9675 19.0104C14.2972 18.9794 14.6205 19.0117 14.9375 19.1074C14.5715 19.2586 14.2481 19.2263 13.9675 19.0104Z" fill="#353535"/>
<path opacity="0.012" fill-rule="evenodd" clip-rule="evenodd" d="M4.2676 19.3984C4.33224 19.3984 4.3969 19.3984 4.46154 19.3984C4.46154 19.657 4.46154 19.9156 4.46154 20.1742C4.2803 19.9671 4.21566 19.7085 4.2676 19.3984Z" fill="#333333"/>
<path opacity="0.01" fill-rule="evenodd" clip-rule="evenodd" d="M24.2496 19.9803C24.2191 19.714 24.2515 19.4554 24.3466 19.2046C24.4949 19.5082 24.4625 19.7668 24.2496 19.9803Z" fill="#1B1B1B"/>
<path opacity="0.016" fill-rule="evenodd" clip-rule="evenodd" d="M24.0554 19.9805C24.12 19.9805 24.1848 19.9805 24.2494 19.9805C24.2953 20.2308 24.2307 20.4248 24.0554 20.5623C24.0554 20.3683 24.0554 20.1744 24.0554 19.9805Z" fill="#2D3F3E"/>
<path opacity="0.012" fill-rule="evenodd" clip-rule="evenodd" d="M4.46162 20.1743C4.52626 20.1743 4.59092 20.1743 4.65556 20.1743C4.65556 20.3683 4.65556 20.5622 4.65556 20.7561C4.48024 20.6186 4.4156 20.4247 4.46162 20.1743Z" fill="#384A49"/>
<path opacity="0.016" fill-rule="evenodd" clip-rule="evenodd" d="M23.8616 20.5625C23.9262 20.5625 23.9909 20.5625 24.0555 20.5625C24.1015 20.8129 24.0369 21.0068 23.8616 21.1443C23.8616 20.9504 23.8616 20.7564 23.8616 20.5625Z" fill="#222222"/>
<path opacity="0.01" fill-rule="evenodd" clip-rule="evenodd" d="M27.7415 20.3682C27.806 20.3682 27.8708 20.3682 27.9354 20.3682C27.9874 20.6783 27.9226 20.9368 27.7415 21.1439C27.7415 20.8854 27.7415 20.6267 27.7415 20.3682Z" fill="#1F1F1F"/>
<path opacity="0.012" fill-rule="evenodd" clip-rule="evenodd" d="M4.65571 20.7563C4.72035 20.7563 4.78501 20.7563 4.84965 20.7563C4.84965 20.9503 4.84965 21.1442 4.84965 21.3382C4.67433 21.2007 4.60969 21.0067 4.65571 20.7563Z" fill="#494949"/>
<path opacity="0.01" fill-rule="evenodd" clip-rule="evenodd" d="M23.6675 21.144C23.7321 21.144 23.7968 21.144 23.8614 21.144C23.8948 21.3364 23.83 21.4656 23.6675 21.5319C23.6675 21.4026 23.6675 21.2734 23.6675 21.144Z" fill="#367170"/>
<path opacity="0.012" fill-rule="evenodd" clip-rule="evenodd" d="M27.5474 21.144C27.6119 21.144 27.6767 21.144 27.7413 21.144C27.7873 21.3944 27.7227 21.5884 27.5474 21.7259C27.5474 21.5319 27.5474 21.338 27.5474 21.144Z" fill="#3A3A3A"/>
<path opacity="0.016" fill-rule="evenodd" clip-rule="evenodd" d="M3.87972 21.7263C3.85432 21.5829 3.88665 21.4536 3.97669 21.3384C4.11084 21.5201 4.07851 21.6493 3.87972 21.7263Z" fill="#2B2B2B"/>
<path opacity="0.01" fill-rule="evenodd" clip-rule="evenodd" d="M4.84979 21.3384C4.91443 21.3384 4.97909 21.3384 5.04373 21.3384C5.04373 21.4677 5.04373 21.5969 5.04373 21.7263C4.88117 21.6599 4.81651 21.5308 4.84979 21.3384Z" fill="#201F1F"/>
<path opacity="0.01" fill-rule="evenodd" clip-rule="evenodd" d="M23.4736 21.5322C23.5382 21.5322 23.603 21.5322 23.6676 21.5322C23.7009 21.7246 23.6362 21.8538 23.4736 21.9201C23.4736 21.7907 23.4736 21.6616 23.4736 21.5322Z" fill="#535353"/>
<path opacity="0.012" fill-rule="evenodd" clip-rule="evenodd" d="M27.3535 21.7261C27.4181 21.7261 27.4829 21.7261 27.5475 21.7261C27.5934 21.9764 27.5288 22.1704 27.3535 22.3079C27.3535 22.114 27.3535 21.92 27.3535 21.7261Z" fill="#404040"/>
<path opacity="0.01" fill-rule="evenodd" clip-rule="evenodd" d="M5.04364 21.7261C5.10828 21.7261 5.17294 21.7261 5.23758 21.7261C5.23758 21.8554 5.23758 21.9846 5.23758 22.114C5.07502 22.0476 5.01036 21.9185 5.04364 21.7261Z" fill="#201F1F"/>
<path opacity="0.01" fill-rule="evenodd" clip-rule="evenodd" d="M23.2795 21.9204C23.3441 21.9204 23.4089 21.9204 23.4735 21.9204C23.5068 22.1128 23.4421 22.242 23.2795 22.3083C23.2795 22.1789 23.2795 22.0498 23.2795 21.9204Z" fill="#007F7E"/>
<path opacity="0.01" fill-rule="evenodd" clip-rule="evenodd" d="M5.23779 22.1143C5.30243 22.1143 5.36709 22.1143 5.43173 22.1143C5.36709 22.6315 5.30243 22.6315 5.23779 22.1143Z" fill="#191919"/>
<path opacity="0.01" fill-rule="evenodd" clip-rule="evenodd" d="M23.0854 22.3081C23.15 22.3081 23.2148 22.3081 23.2794 22.3081C23.3127 22.5005 23.248 22.6297 23.0854 22.696C23.0854 22.5666 23.0854 22.4375 23.0854 22.3081Z" fill="#201F1F"/>
<path opacity="0.01" fill-rule="evenodd" clip-rule="evenodd" d="M27.1594 22.3081C27.224 22.3081 27.2888 22.3081 27.3534 22.3081C27.3867 22.5005 27.3219 22.6297 27.1594 22.696C27.1594 22.5666 27.1594 22.4375 27.1594 22.3081Z" fill="#201F1F"/>
<path opacity="0.012" fill-rule="evenodd" clip-rule="evenodd" d="M22.8916 22.6963C22.9562 22.6963 23.021 22.6963 23.0855 22.6963C23.0497 22.8262 22.9849 22.8262 22.8916 22.6963Z" fill="#545554"/>
<path opacity="0.01" fill-rule="evenodd" clip-rule="evenodd" d="M5.81964 22.6963C5.84505 22.8396 5.81272 22.969 5.72268 23.0842C5.58853 22.9024 5.62086 22.7733 5.81964 22.6963Z" fill="#2B2B2B"/>
<path opacity="0.01" fill-rule="evenodd" clip-rule="evenodd" d="M7.95361 22.8901C8.01825 22.8901 8.08291 22.8901 8.14755 22.8901C8.11162 23.0201 8.04696 23.0201 7.95361 22.8901Z" fill="#007F7E"/>
<path opacity="0.01" fill-rule="evenodd" clip-rule="evenodd" d="M26.9656 22.6963C27.0302 22.6963 27.0949 22.6963 27.1595 22.6963C27.1929 22.8887 27.1281 23.0178 26.9656 23.0842C26.9656 22.9548 26.9656 22.8256 26.9656 22.6963Z" fill="#535353"/>
<path opacity="0.01" fill-rule="evenodd" clip-rule="evenodd" d="M7.75977 23.084C7.82441 23.084 7.88907 23.084 7.95371 23.084C7.91777 23.2139 7.85311 23.2139 7.75977 23.084Z" fill="#010000"/>
<path opacity="0.01" fill-rule="evenodd" clip-rule="evenodd" d="M22.6975 22.8901C22.7621 22.8901 22.8269 22.8901 22.8914 22.8901C22.9248 23.0825 22.86 23.2117 22.6975 23.278C22.6975 23.1487 22.6975 23.0195 22.6975 22.8901Z" fill="#2C2B2B"/>
<path opacity="0.01" fill-rule="evenodd" clip-rule="evenodd" d="M7.56567 23.2783C7.63031 23.2783 7.69497 23.2783 7.75961 23.2783C7.72368 23.4083 7.65902 23.4083 7.56567 23.2783Z" fill="#010000"/>
<path opacity="0.012" fill-rule="evenodd" clip-rule="evenodd" d="M22.5034 23.2783C22.568 23.2783 22.6328 23.2783 22.6974 23.2783C22.6615 23.4083 22.5967 23.4083 22.5034 23.2783Z" fill="#545554"/>
<path opacity="0.012" fill-rule="evenodd" clip-rule="evenodd" d="M26.7715 23.084C26.8361 23.084 26.9008 23.084 26.9654 23.084C26.9988 23.2764 26.934 23.4055 26.7715 23.4719C26.7715 23.3425 26.7715 23.2133 26.7715 23.084Z" fill="#393939"/>
<path opacity="0.01" fill-rule="evenodd" clip-rule="evenodd" d="M6.40168 23.4722C6.42708 23.6155 6.39475 23.7448 6.30471 23.86C6.17056 23.6783 6.20289 23.5492 6.40168 23.4722Z" fill="black"/>
<path opacity="0.01" fill-rule="evenodd" clip-rule="evenodd" d="M7.37158 23.4722C7.43622 23.4722 7.50088 23.4722 7.56552 23.4722C7.52958 23.6021 7.46493 23.6021 7.37158 23.4722Z" fill="#010000"/>
<path opacity="0.01" fill-rule="evenodd" clip-rule="evenodd" d="M22.3096 23.4722C22.3742 23.4722 22.4389 23.4722 22.5035 23.4722C22.4676 23.6021 22.4029 23.6021 22.3096 23.4722Z" fill="black"/>
<path opacity="0.01" fill-rule="evenodd" clip-rule="evenodd" d="M5.23764 24.2478C5.10834 24.2478 5.0437 24.1832 5.0437 24.0538C5.09155 23.5738 5.22085 23.5738 5.43158 24.0538C5.40761 24.1716 5.34297 24.2362 5.23764 24.2478Z" fill="#121111"/>
<path opacity="0.01" fill-rule="evenodd" clip-rule="evenodd" d="M7.17773 23.666C7.24237 23.666 7.30703 23.666 7.37167 23.666C7.33574 23.796 7.27108 23.796 7.17773 23.666Z" fill="black"/>
<path opacity="0.01" fill-rule="evenodd" clip-rule="evenodd" d="M22.1155 23.666C22.1801 23.666 22.2448 23.666 22.3094 23.666C22.2735 23.796 22.2088 23.796 22.1155 23.666Z" fill="#F9FFFE"/>
<path opacity="0.012" fill-rule="evenodd" clip-rule="evenodd" d="M26.5774 23.4722C26.642 23.4722 26.7068 23.4722 26.7713 23.4722C26.8047 23.6646 26.7399 23.7937 26.5774 23.86C26.5774 23.7307 26.5774 23.6015 26.5774 23.4722Z" fill="#393939"/>
<path opacity="0.01" fill-rule="evenodd" clip-rule="evenodd" d="M26.3835 23.8599C26.4481 23.8599 26.5129 23.8599 26.5775 23.8599C26.6108 24.0523 26.5461 24.1814 26.3835 24.2477C26.3835 24.1184 26.3835 23.9892 26.3835 23.8599Z" fill="#010000"/>
<path opacity="0.01" fill-rule="evenodd" clip-rule="evenodd" d="M21.1456 24.8298C21.1202 24.6865 21.1526 24.5571 21.2426 24.4419C21.3768 24.6236 21.3444 24.7528 21.1456 24.8298Z" fill="black"/>
<path opacity="0.01" fill-rule="evenodd" clip-rule="evenodd" d="M26.1895 24.248C26.254 24.248 26.3188 24.248 26.3834 24.248C26.4168 24.4404 26.352 24.5696 26.1895 24.6359C26.1895 24.5066 26.1895 24.3774 26.1895 24.248Z" fill="#1F1F1F"/>
<path opacity="0.01" fill-rule="evenodd" clip-rule="evenodd" d="M25.9956 24.6357C26.0602 24.6357 26.125 24.6357 26.1895 24.6357C26.1537 24.7657 26.0889 24.7657 25.9956 24.6357Z" fill="#7E7F7E"/>
<path opacity="0.016" fill-rule="evenodd" clip-rule="evenodd" d="M5.81967 25.0237C5.69037 25.0237 5.62573 24.9591 5.62573 24.8297C5.67358 24.3497 5.80288 24.3497 6.01361 24.8297C5.98964 24.9474 5.925 25.012 5.81967 25.0237Z" fill="#383838"/>
<path opacity="0.01" fill-rule="evenodd" clip-rule="evenodd" d="M7.37167 24.6357C7.57045 24.7127 7.60278 24.8419 7.46864 25.0236C7.37859 24.9084 7.34626 24.7791 7.37167 24.6357Z" fill="#142B2B"/>
<path opacity="0.01" fill-rule="evenodd" clip-rule="evenodd" d="M20.9517 24.8301C21.0162 24.8301 21.081 24.8301 21.1456 24.8301C21.1097 24.96 21.0449 24.96 20.9517 24.8301Z" fill="black"/>
<path opacity="0.01" fill-rule="evenodd" clip-rule="evenodd" d="M20.7574 25.0239C20.822 25.0239 20.8868 25.0239 20.9514 25.0239C20.9514 25.2824 20.822 25.4118 20.5635 25.4118C20.5635 25.3472 20.5635 25.2824 20.5635 25.2179C20.6928 25.2179 20.7574 25.1533 20.7574 25.0239Z" fill="#151414"/>
<path opacity="0.01" fill-rule="evenodd" clip-rule="evenodd" d="M25.8015 24.8301C25.8661 24.8301 25.9309 24.8301 25.9955 24.8301C26.0288 25.0225 25.964 25.1516 25.8015 25.218C25.8015 25.0886 25.8015 24.9594 25.8015 24.8301Z" fill="#191919"/>
<path opacity="0.01" fill-rule="evenodd" clip-rule="evenodd" d="M3.10358 25.0239C3.12899 25.1672 3.09666 25.2966 3.00661 25.4118C2.87247 25.2301 2.90479 25.1009 3.10358 25.0239Z" fill="#4D4E4E"/>
<path opacity="0.012" fill-rule="evenodd" clip-rule="evenodd" d="M25.6074 25.2178C25.672 25.2178 25.7368 25.2178 25.8014 25.2178C25.7655 25.3477 25.7007 25.3477 25.6074 25.2178Z" fill="#02201F"/>
<path opacity="0.012" fill-rule="evenodd" clip-rule="evenodd" d="M13.7737 25.2178C13.8383 25.2178 13.903 25.2178 13.9676 25.2178C13.903 28.0629 13.8383 28.0629 13.7737 25.2178Z" fill="#4A4A4A"/>
<path opacity="0.016" fill-rule="evenodd" clip-rule="evenodd" d="M20.3696 25.4121C20.4343 25.4121 20.499 25.4121 20.5636 25.4121C20.5277 25.542 20.463 25.542 20.3696 25.4121Z" fill="#3E3F3E"/>
<path opacity="0.02" fill-rule="evenodd" clip-rule="evenodd" d="M25.4136 25.4121C25.4782 25.4121 25.5429 25.4121 25.6075 25.4121C25.5716 25.542 25.5069 25.542 25.4136 25.4121Z" fill="#353837"/>
<path opacity="0.01" fill-rule="evenodd" clip-rule="evenodd" d="M25.2195 25.606C25.2841 25.606 25.3488 25.606 25.4134 25.606C25.4468 25.7983 25.382 25.9275 25.2195 25.9938C25.2195 25.8645 25.2195 25.7353 25.2195 25.606Z" fill="#132B2B"/>
<path opacity="0.01" fill-rule="evenodd" clip-rule="evenodd" d="M3.68561 25.7998C3.71102 25.9431 3.67869 26.0725 3.58864 26.1877C3.45449 26.006 3.48682 25.8768 3.68561 25.7998Z" fill="#2B2B2B"/>
<path opacity="0.01" fill-rule="evenodd" clip-rule="evenodd" d="M25.0254 25.9937C25.09 25.9937 25.1547 25.9937 25.2193 25.9937C25.1835 26.1236 25.1187 26.1236 25.0254 25.9937Z" fill="#010000"/>
<path opacity="0.012" fill-rule="evenodd" clip-rule="evenodd" d="M24.8315 26.188C24.8961 26.188 24.9609 26.188 25.0255 26.188C24.9896 26.3179 24.9248 26.3179 24.8315 26.188Z" fill="#545554"/>
<path opacity="0.012" fill-rule="evenodd" clip-rule="evenodd" d="M24.6375 26.3818C24.702 26.3818 24.7668 26.3818 24.8314 26.3818C24.7955 26.5118 24.7307 26.5118 24.6375 26.3818Z" fill="#02201F"/>
<path opacity="0.012" fill-rule="evenodd" clip-rule="evenodd" d="M24.4436 26.5757C24.5082 26.5757 24.573 26.5757 24.6375 26.5757C24.6017 26.7056 24.5369 26.7056 24.4436 26.5757Z" fill="#02201F"/>
<path opacity="0.01" fill-rule="evenodd" clip-rule="evenodd" d="M18.0415 26.77C18.1708 26.77 18.3001 26.77 18.4294 26.77C18.3001 27.0285 18.1708 27.0285 18.0415 26.77Z" fill="#010E0E"/>
<path opacity="0.012" fill-rule="evenodd" clip-rule="evenodd" d="M24.2495 26.77C24.3141 26.77 24.3789 26.77 24.4435 26.77C24.4076 26.9 24.3428 26.9 24.2495 26.77Z" fill="#545554"/>
<path opacity="0.012" fill-rule="evenodd" clip-rule="evenodd" d="M10.6697 26.9639C10.799 26.9639 10.9283 26.9639 11.0576 26.9639C10.9283 27.2224 10.799 27.2224 10.6697 26.9639Z" fill="#393939"/>
<path opacity="0.012" fill-rule="evenodd" clip-rule="evenodd" d="M17.4595 26.9639C17.6028 26.9385 17.7321 26.9709 17.8474 27.0609C17.6657 27.1951 17.5364 27.1627 17.4595 26.9639Z" fill="#031817"/>
<path opacity="0.012" fill-rule="evenodd" clip-rule="evenodd" d="M24.0554 26.9639C24.12 26.9639 24.1848 26.9639 24.2494 26.9639C24.2135 27.0938 24.1487 27.0938 24.0554 26.9639Z" fill="#02201F"/>
<path opacity="0.012" fill-rule="evenodd" clip-rule="evenodd" d="M11.8335 27.1577C11.688 27.3658 11.494 27.3982 11.2517 27.2547C11.4356 27.161 11.6295 27.1288 11.8335 27.1577Z" fill="#2C2C2C"/>
<path opacity="0.01" fill-rule="evenodd" clip-rule="evenodd" d="M16.8777 27.1578C17.021 27.1324 17.1503 27.1648 17.2656 27.2548C17.0839 27.389 16.9546 27.3566 16.8777 27.1578Z" fill="#457F7E"/>
<path opacity="0.012" fill-rule="evenodd" clip-rule="evenodd" d="M23.8616 27.1577C23.9262 27.1577 23.9909 27.1577 24.0555 27.1577C24.0196 27.2877 23.9549 27.2877 23.8616 27.1577Z" fill="#02201F"/>
<path opacity="0.012" fill-rule="evenodd" clip-rule="evenodd" d="M12.6094 27.3516C12.4638 27.5597 12.2699 27.592 12.0276 27.4485C12.2114 27.3549 12.4054 27.3227 12.6094 27.3516Z" fill="#404040"/>
<path opacity="0.01" fill-rule="evenodd" clip-rule="evenodd" d="M16.1016 27.3516C16.3056 27.3227 16.4995 27.3549 16.6834 27.4485C16.4411 27.592 16.2471 27.5597 16.1016 27.3516Z" fill="#535353"/>
<path opacity="0.01" fill-rule="evenodd" clip-rule="evenodd" d="M23.6675 27.3516C23.7321 27.3516 23.7968 27.3516 23.8614 27.3516C23.8255 27.4815 23.7608 27.4815 23.6675 27.3516Z" fill="#010000"/>
<path opacity="0.01" fill-rule="evenodd" clip-rule="evenodd" d="M13.1917 27.5459C13.4502 27.6753 13.4502 27.6753 13.1917 27.5459Z" fill="black"/>
<path opacity="0.01" fill-rule="evenodd" clip-rule="evenodd" d="M14.9377 27.7395C15.0833 27.5314 15.2773 27.499 15.5196 27.6425C15.3357 27.7362 15.1418 27.7684 14.9377 27.7395Z" fill="#010000"/>
<path opacity="0.01" fill-rule="evenodd" clip-rule="evenodd" d="M23.4736 27.5459C23.5382 27.5459 23.603 27.5459 23.6676 27.5459C23.6317 27.6758 23.5669 27.6758 23.4736 27.5459Z" fill="#010000"/>
<path opacity="0.02" fill-rule="evenodd" clip-rule="evenodd" d="M10.4756 28.1275C10.4756 28.063 10.4756 27.9982 10.4756 27.9336C11.1523 27.9734 11.7989 28.1351 12.4156 28.4184C12.2317 28.5121 12.0377 28.5443 11.8336 28.5154C11.6265 28.3343 11.3678 28.2695 11.0576 28.3215C10.92 28.1462 10.726 28.0816 10.4756 28.1275Z" fill="#3E3F3F"/>
<path opacity="0.01" fill-rule="evenodd" clip-rule="evenodd" d="M15.7136 28.7094C14.8705 28.7416 14.0298 28.7092 13.1917 28.6124C14.0686 28.4546 14.9093 28.4869 15.7136 28.7094Z" fill="#626262"/>
<path opacity="0.016" fill-rule="evenodd" clip-rule="evenodd" d="M22.3096 28.5156C22.3742 28.5156 22.4389 28.5156 22.5035 28.5156C22.4676 28.6456 22.4029 28.6456 22.3096 28.5156Z" fill="#3E3F3E"/>
<path opacity="0.01" fill-rule="evenodd" clip-rule="evenodd" d="M8.53564 29.8735C8.60028 29.8735 8.66494 29.8735 8.72958 29.8735C8.69365 30.0035 8.62899 30.0035 8.53564 29.8735Z" fill="#7E7F7E"/>
<path opacity="0.01" fill-rule="evenodd" clip-rule="evenodd" d="M19.9814 29.8735C20.1107 29.8735 20.24 29.8735 20.3693 29.8735C20.24 30.1321 20.1107 30.1321 19.9814 29.8735Z" fill="#1F1F1F"/>
<path opacity="0.01" fill-rule="evenodd" clip-rule="evenodd" d="M9.31152 30.2617C9.44082 30.2617 9.5701 30.2617 9.6994 30.2617C9.5701 30.5202 9.44082 30.5202 9.31152 30.2617Z" fill="#535353"/>
<path opacity="0.01" fill-rule="evenodd" clip-rule="evenodd" d="M19.0115 30.2617C19.1408 30.2617 19.2701 30.2617 19.3994 30.2617C19.2701 30.5202 19.1408 30.5202 19.0115 30.2617Z" fill="#1F1F1F"/>
</g>
<defs>
<clipPath id="clip0_4039_1280">
<rect width="32" height="32" fill="white"/>
</clipPath>
</defs>
</svg>
