<svg width="32" height="32" viewBox="0 0 32 32" fill="none" xmlns="http://www.w3.org/2000/svg">
    <g clip-path="url(#clip0_3874_1221)">
        <path fill-rule="evenodd" clip-rule="evenodd"
            d="M-0.0400391 -0.0400391C10.6266 -0.0400391 21.2933 -0.0400391 31.96 -0.0400391C31.96 10.6266 31.96 21.2933 31.96 31.96C21.2933 31.96 10.6266 31.96 -0.0400391 31.96C-0.0400391 21.2933 -0.0400391 10.6266 -0.0400391 -0.0400391Z"
            fill="#FEFEFE" />
        <path fill-rule="evenodd" clip-rule="evenodd"
            d="M17 1.47973C16.0119 1.46783 15.0252 1.4945 14.04 1.55973C14.6084 1.43876 15.1951 1.38542 15.8 1.39973C16.2143 1.39979 16.6143 1.42645 17 1.47973Z"
            fill="#8AF199" />
        <path fill-rule="evenodd" clip-rule="evenodd"
            d="M16.9998 1.48029C17.7458 1.48605 18.4658 1.59271 19.1598 1.80029C18.2469 1.69229 17.3269 1.61229 16.3998 1.56029C15.8229 1.70506 15.2362 1.73173 14.6398 1.64029C14.0102 1.66762 13.3835 1.72096 12.7598 1.80029C13.1655 1.66058 13.5922 1.58058 14.0398 1.56029C15.025 1.49506 16.0116 1.46839 16.9998 1.48029Z"
            fill="#38D94B" />
        <path fill-rule="evenodd" clip-rule="evenodd"
            d="M12.76 1.7998C12.3609 1.98555 11.9343 2.09221 11.48 2.1198C11.8867 1.9671 12.3134 1.86044 12.76 1.7998Z"
            fill="#6EE280" />
        <path fill-rule="evenodd" clip-rule="evenodd"
            d="M19.1599 1.79957C24.8168 3.25594 28.4834 6.8026 30.1599 12.4396C30.1997 12.6244 30.213 12.811 30.1999 12.9996C30.2169 13.5657 30.2835 14.1257 30.3999 14.6796C30.4399 15.6125 30.4533 16.5459 30.4399 17.4796C30.4399 17.6129 30.4399 17.7462 30.4399 17.8796C29.888 21.3567 28.3414 24.3167 25.7999 26.7596C24.103 28.2653 22.1562 29.3453 19.9599 29.9996C19.6237 30.1251 19.277 30.1917 18.9199 30.1996C18.5611 30.2668 18.2144 30.3468 17.8799 30.4396C17.0278 30.4953 16.1744 30.522 15.3199 30.5196C13.5105 30.4836 11.8038 30.0836 10.1999 29.3196C9.948 29.093 9.65464 28.9197 9.31992 28.7996C9.50472 28.7598 9.69136 28.7465 9.87992 28.7596C9.87992 28.6796 9.87992 28.5996 9.87992 28.5196C9.55064 28.5229 9.23064 28.5761 8.91992 28.6796C8.6464 28.5829 8.37968 28.4629 8.11992 28.3196C4.82814 26.0816 2.72148 23.0282 1.79992 19.1596C1.58753 17.0264 1.58753 14.893 1.79992 12.7596C1.91642 12.5829 2.03642 12.3961 2.15992 12.1996C2.19981 11.9074 2.21315 11.6141 2.19992 11.3196C2.56195 11.4749 2.93528 11.5016 3.31992 11.3996C3.11392 11.2225 2.88726 11.1959 2.63992 11.3196C2.46388 11.2026 2.41055 11.0426 2.47992 10.8396C2.88897 10.7041 2.98231 10.4641 2.75992 10.1196C2.87297 9.86669 3.0063 9.62669 3.15992 9.39957C3.26461 9.59085 3.34461 9.59085 3.39992 9.39957C3.36816 9.28069 3.34148 9.16069 3.31992 9.03957C3.43626 8.79365 3.58292 8.56693 3.75992 8.35957C3.79912 8.25613 3.81246 8.14941 3.79992 8.03957C3.79992 8.01293 3.79992 7.98623 3.79992 7.95957C4.09856 7.94087 4.24523 7.78087 4.23992 7.47957C4.59129 7.29671 4.79129 7.00337 4.83992 6.59957C5.02297 6.28311 5.26297 6.01644 5.55992 5.79957C5.87992 5.63957 6.11992 5.39957 6.27992 5.07957C6.72023 4.70624 7.17356 4.34624 7.63992 3.99957C7.77725 3.87487 7.93725 3.8082 8.11992 3.79957C8.47784 3.69597 8.8112 3.53597 9.11992 3.31957C9.218 3.33115 9.31136 3.35782 9.39992 3.39957C9.4476 3.30228 9.46096 3.19562 9.43992 3.07957C9.6248 3.00783 9.77144 2.90116 9.87992 2.75957C10.3964 2.50125 10.9297 2.28791 11.4799 2.11957C11.9342 2.09198 12.3609 1.98531 12.7599 1.79957C13.3837 1.72023 14.0103 1.6669 14.6399 1.63957C15.2364 1.73101 15.823 1.70434 16.3999 1.55957C17.327 1.61157 18.247 1.69157 19.1599 1.79957Z"
            fill="#0FDF31" />
        <path fill-rule="evenodd" clip-rule="evenodd"
            d="M9.88012 2.75977C9.77164 2.90136 9.625 3.00802 9.44012 3.07977C9.46116 3.19581 9.4478 3.30248 9.40012 3.39977C9.31156 3.35801 9.2182 3.33135 9.12012 3.31977C8.8114 3.53617 8.47804 3.69617 8.12012 3.79977C8.62644 3.33561 9.21308 2.98894 9.88012 2.75977Z"
            fill="#45DD55" />
        <path fill-rule="evenodd" clip-rule="evenodd"
            d="M6.28006 5.08008C6.12006 5.40008 5.88006 5.64008 5.56006 5.80008C5.77339 5.53341 6.01339 5.29341 6.28006 5.08008Z"
            fill="#6BE786" />
        <path fill-rule="evenodd" clip-rule="evenodd"
            d="M4.8398 6.59961C4.79117 7.00341 4.59117 7.29675 4.2398 7.47961C4.24511 7.78091 4.09844 7.94091 3.7998 7.95961C4.11764 7.48209 4.46432 7.02875 4.8398 6.59961Z"
            fill="#46DB5D" />
        <path fill-rule="evenodd" clip-rule="evenodd"
            d="M20.4398 7.16033C20.2041 7.49188 20.0441 7.86522 19.9598 8.28033C19.9598 8.30697 19.9598 8.33369 19.9598 8.36033C19.682 9.06809 19.4153 9.78809 19.1598 10.5203C19.1598 10.547 19.1598 10.5737 19.1598 10.6003C18.9884 10.8643 18.8818 11.1577 18.8398 11.4803C18.5638 12.0618 18.3504 12.6751 18.1998 13.3203C18.1504 13.3292 18.1104 13.3559 18.0798 13.4003C17.9594 13.7761 17.8394 14.1494 17.7198 14.5203C17.645 14.6058 17.6183 14.7124 17.6398 14.8403C18.9198 14.8403 20.1998 14.8403 21.4798 14.8403C21.5753 14.9991 21.5753 15.1591 21.4798 15.3203C21.013 15.7063 20.613 16.1331 20.2798 16.6003C19.8798 16.947 19.5064 17.3203 19.1598 17.7203C18.3074 18.6228 17.454 19.5295 16.5998 20.4403C16.3598 20.627 16.1464 20.8403 15.9598 21.0803C15.7198 21.267 15.5064 21.4803 15.3198 21.7203C14.4338 22.6325 13.5805 23.5659 12.7598 24.5203C12.4664 24.6537 12.2531 24.867 12.1198 25.1603C11.9562 25.3591 11.7428 25.4391 11.4798 25.4003C11.4667 25.2118 11.48 25.0251 11.5198 24.8403C12.4143 22.4118 13.3076 19.9851 14.1998 17.5603C14.2758 17.4468 14.3025 17.3135 14.2798 17.1603C13.0669 17.0939 11.8402 17.0539 10.5998 17.0403C10.5169 16.8983 10.5169 16.7516 10.5998 16.6003C11.2653 15.8148 11.9719 15.0682 12.7198 14.3603C12.759 14.2569 12.7723 14.1502 12.7598 14.0403C12.8439 14.0523 12.9239 14.039 12.9998 14.0003C13.4268 13.6412 13.7734 13.2279 14.0398 12.7603C14.1338 12.7779 14.2138 12.7512 14.2798 12.6803C16.2388 10.6546 18.1854 8.61457 20.1198 6.56033C20.2225 6.50563 20.3158 6.51896 20.3998 6.60033C20.4395 6.78511 20.4528 6.97179 20.4398 7.16033Z"
            fill="#FCFEFC" />
        <path fill-rule="evenodd" clip-rule="evenodd"
            d="M20.44 7.16016C20.3757 7.58084 20.2157 7.95418 19.96 8.28016C20.0443 7.86504 20.2043 7.49171 20.44 7.16016Z"
            fill="#70E47E" />
        <path fill-rule="evenodd" clip-rule="evenodd"
            d="M19.9602 8.36035C19.8885 8.95195 19.7151 9.51195 19.4402 10.0404C19.4006 10.1982 19.3872 10.3582 19.4002 10.5204C19.3202 10.5204 19.2402 10.5204 19.1602 10.5204C19.4157 9.78811 19.6824 9.06811 19.9602 8.36035Z"
            fill="#49DB5B" />
        <path fill-rule="evenodd" clip-rule="evenodd"
            d="M3.7998 8.04004C3.81234 8.14988 3.799 8.2566 3.7598 8.36004C3.5828 8.5674 3.43614 8.79412 3.3198 9.04004C3.34136 9.16116 3.36804 9.28116 3.3998 9.40004C3.34449 9.59132 3.26449 9.59132 3.1598 9.40004C3.00618 9.62716 2.87285 9.86716 2.7598 10.12C2.98219 10.4646 2.88885 10.7046 2.4798 10.84C2.41043 11.0431 2.46376 11.2031 2.6398 11.32C2.88714 11.1964 3.1138 11.223 3.3198 11.4C2.93516 11.502 2.56183 11.4753 2.1998 11.32C2.21303 11.6146 2.19969 11.9079 2.1598 12.2C2.0363 12.3966 1.9163 12.5833 1.7998 12.76C2.08883 11.3545 2.58216 10.0212 3.2798 8.76004C3.41568 8.48636 3.58902 8.24636 3.7998 8.04004Z"
            fill="#34DD47" />
        <path fill-rule="evenodd" clip-rule="evenodd"
            d="M19.1598 10.5996C19.1425 10.8344 19.0892 11.0611 18.9998 11.2796C18.9851 11.3897 18.9318 11.4563 18.8398 11.4796C18.8818 11.157 18.9885 10.8636 19.1598 10.5996Z"
            fill="#55DE70" />
        <path fill-rule="evenodd" clip-rule="evenodd"
            d="M18.8402 11.4805C18.6893 12.1198 18.476 12.7332 18.2002 13.3205C18.3508 12.6752 18.5642 12.0619 18.8402 11.4805Z"
            fill="#59DC65" />
        <path fill-rule="evenodd" clip-rule="evenodd"
            d="M17.72 14.5195C17.72 14.5995 17.72 14.6795 17.72 14.7595C18.9873 14.7331 20.2407 14.7599 21.48 14.8395C20.2 14.8395 18.92 14.8395 17.64 14.8395C17.6185 14.7116 17.6453 14.605 17.72 14.5195Z"
            fill="#71EC84" />
        <path fill-rule="evenodd" clip-rule="evenodd"
            d="M1.80022 12.7598C1.58782 14.8932 1.58782 17.0266 1.80022 19.1598C1.26907 17.027 1.26907 14.8937 1.80022 12.7598Z"
            fill="#38DC4B" />
        <path fill-rule="evenodd" clip-rule="evenodd"
            d="M30.2002 13C30.3873 13.752 30.494 14.5254 30.5202 15.32C30.5464 16.0546 30.5196 16.7746 30.4402 17.48C30.4536 16.5463 30.4402 15.613 30.4002 14.68C30.2838 14.1261 30.2172 13.5661 30.2002 13Z"
            fill="#4BDF62" />
        <path fill-rule="evenodd" clip-rule="evenodd"
            d="M10.5999 16.5996C10.517 16.7509 10.517 16.8975 10.5999 17.0396C11.8403 17.0531 13.067 17.0931 14.2799 17.1596C13.0532 17.1596 11.8265 17.1596 10.5999 17.1596C10.4411 17.1609 10.3611 17.0809 10.3599 16.9196C10.3647 16.7474 10.4447 16.6407 10.5999 16.5996Z"
            fill="#CDFED5" />
        <path fill-rule="evenodd" clip-rule="evenodd"
            d="M10.6001 17.1602C11.8267 17.1602 13.0535 17.1602 14.2801 17.1602C14.3028 17.3134 14.2762 17.4466 14.2001 17.5602C14.2001 17.4535 14.2001 17.3468 14.2001 17.2402C12.986 17.2665 11.786 17.2398 10.6001 17.1602Z"
            fill="#5BDB72" />
        <path fill-rule="evenodd" clip-rule="evenodd"
            d="M30.5199 15.3203C30.5732 15.7328 30.5999 16.1594 30.5999 16.6003C30.5995 17.0572 30.5462 17.4838 30.4399 17.8803C30.4399 17.747 30.4399 17.6137 30.4399 17.4803C30.5194 16.7749 30.5461 16.0549 30.5199 15.3203Z"
            fill="#D6FEDD" />
        <path fill-rule="evenodd" clip-rule="evenodd"
            d="M20.2802 16.5996C19.9868 17.053 19.6135 17.4262 19.1602 17.7196C19.5068 17.3196 19.8802 16.9462 20.2802 16.5996Z"
            fill="#5CDD72" />
        <path fill-rule="evenodd" clip-rule="evenodd"
            d="M16.6 20.4404C16.4666 20.7338 16.2533 20.9471 15.96 21.0804C16.1466 20.8404 16.36 20.6271 16.6 20.4404Z"
            fill="#5BDE6E" />
        <path fill-rule="evenodd" clip-rule="evenodd"
            d="M15.9598 21.0801C15.8265 21.3734 15.6132 21.5867 15.3198 21.7201C15.5065 21.4801 15.7198 21.2667 15.9598 21.0801Z"
            fill="#75EB85" />
        <path fill-rule="evenodd" clip-rule="evenodd"
            d="M12.7601 24.5195C12.5735 24.7595 12.3601 24.9729 12.1201 25.1595C12.2535 24.8662 12.4668 24.6529 12.7601 24.5195Z"
            fill="#7BEA88" />
        <path fill-rule="evenodd" clip-rule="evenodd"
            d="M10.1999 29.3195C9.70472 29.21 9.278 28.9967 8.91992 28.6795C9.23064 28.5761 9.55064 28.5228 9.87992 28.5195C9.87992 28.5995 9.87992 28.6795 9.87992 28.7595C9.69136 28.7465 9.50472 28.7598 9.31992 28.7995C9.65464 28.9196 9.948 29.093 10.1999 29.3195Z"
            fill="#3FDF54" />
        <path fill-rule="evenodd" clip-rule="evenodd"
            d="M18.9199 30.2002C18.618 30.4131 18.2713 30.4931 17.8799 30.4402C18.2144 30.3474 18.5611 30.2674 18.9199 30.2002Z"
            fill="#B7F6BB" />
        <path fill-rule="evenodd" clip-rule="evenodd"
            d="M17.8798 30.4404C17.3783 30.5588 16.8583 30.6122 16.3198 30.6004C15.9721 30.6003 15.6387 30.5737 15.3198 30.5204C16.1743 30.5228 17.0277 30.4961 17.8798 30.4404Z"
            fill="#BFFDC9" />
    </g>
    <defs>
        <clipPath id="clip0_3874_1221">
            <rect width="32" height="32" fill="white" />
        </clipPath>
    </defs>
</svg>