<svg width="32" height="32" viewBox="0 0 33 33" fill="none" xmlns="http://www.w3.org/2000/svg">
    <path
        d="M31.7589 8.47028C32.3978 8.63137 32.877 8.30906 32.5575 7.66459L29.5228 1.38054C29.3631 0.89715 28.7243 0.89715 28.4048 1.05829L20.7383 3.95862C20.0994 4.11975 20.0994 4.76426 20.7383 4.9254L23.1341 5.56992C21.2174 9.75923 18.9815 16.2045 17.0647 20.2327C14.9885 24.7443 13.8704 27.8058 10.3566 27.8058C6.84281 27.8058 6.20394 25.0666 7.80108 21.0384C9.55801 16.3656 12.4329 15.0765 15.7871 16.0433C16.7454 14.7543 17.3842 12.8208 17.7037 11.0483C16.7454 10.726 15.6273 10.726 14.669 10.726C9.23853 10.726 3.96788 13.4653 1.89154 19.427C-1.14311 27.0002 1.41238 32.9619 9.71768 32.9619C15.7871 32.9619 19.1411 30.2228 23.1341 21.6829C25.3701 17.0101 27.127 12.3374 29.3631 7.82568L31.7589 8.47028Z"
        fill="#02F67C" />
</svg>