<svg width="32" height="32" viewBox="0 0 32 32" fill="none" xmlns="http://www.w3.org/2000/svg">
    <g clip-path="url(#clip0_2195_202)">
        <path
            d="M24.0003 0H8C3.58172 0 0 3.58172 0 8V24C0 28.4183 3.58172 32 8 32H24.0003C28.4185 32 32.0003 28.4183 32.0003 24V8C32.0003 3.58172 28.4185 0 24.0003 0Z"
            fill="#3545D6" />
        <path
            d="M15.5349 16.1733C14.3249 16.1733 13.339 17.1588 13.339 18.3684C13.339 19.5779 14.3249 20.5633 15.5349 20.5633C16.7449 20.5633 17.7307 19.5779 17.7307 18.3684V16.4869C17.7307 16.3077 17.5963 16.1733 17.417 16.1733H15.5349Z"
            fill="#FF9E2D" />
        <path
            d="M22.1664 6.07568C20.8015 6.07568 19.6936 7.18239 19.6936 8.546V11.5012V18.3785C19.6936 20.6513 17.834 22.5089 15.5391 22.5089C13.2443 22.5089 11.4045 20.6908 11.4045 18.3984C11.4045 16.1256 13.2443 14.268 15.5391 14.268H18.0318C18.19 14.268 18.3088 14.1494 18.3088 13.9913V11.7976C18.3088 11.6395 18.19 11.521 18.0318 11.521H15.5391C11.7408 11.521 8.65466 14.604 8.65466 18.3984C8.65466 22.1928 11.7408 25.2757 15.5391 25.2757C19.3375 25.2757 22.4236 22.1928 22.4236 18.3984V11.521V6.35236C22.4435 6.19427 22.3247 6.07568 22.1664 6.07568Z"
            fill="white" />
    </g>
    <defs>
        <clipPath id="clip0_2195_202">
            <rect width="32" height="32" fill="white" />
        </clipPath>
    </defs>
</svg>