<svg width="32" height="32" viewBox="0 0 32 32" fill="none" xmlns="http://www.w3.org/2000/svg">
<rect width="32" height="32" rx="5" fill="#020202"/>
<path fill-rule="evenodd" clip-rule="evenodd" d="M1.28027 1.28027C6.92778 1.28027 12.5753 1.28027 18.2228 1.28027C28.2373 4.01592 32.2332 10.4526 30.2104 20.5904C28.1105 26.2073 24.1146 29.5839 18.2228 30.7203C12.5753 30.7203 6.92778 30.7203 1.28027 30.7203C1.28027 28.9264 1.28027 27.1326 1.28027 25.3388C6.60917 25.3915 11.937 25.3387 17.2638 25.1805C23.9445 23.2911 26.4486 19.0176 24.776 12.3598C23.1903 9.3148 20.6862 7.46821 17.2638 6.82006C13.749 6.66184 10.2326 6.60907 6.71466 6.66178C6.71466 10.6715 6.71466 14.6813 6.71466 18.691C4.90319 18.691 3.09174 18.691 1.28027 18.691C1.28027 12.8875 1.28027 7.08385 1.28027 1.28027Z" fill="#FAFAFA"/>
</svg>
