<svg width="32" height="32" viewBox="0 0 32 32" fill="none" xmlns="http://www.w3.org/2000/svg">
    <path
        d="M4.2444 26.2941L0 15.8858L6.53387 19.0624L8.72198 12.1539L12.687 16.5747V16.5737L19.5811 8.63683L20.2783 15.3806L32 5.47754L21.4057 26.2941H4.2444Z"
        fill="#E45B5B" />
    <path d="M9.32851 20.4412L4.24438 26.2942L6.53385 19.0625L9.32851 20.4412Z" fill="#DB2222" />
    <path d="M9.34033 20.427L12.6871 16.5737L15.3494 19.5435L12.4908 21.959L9.34033 20.427Z"
        fill="#DB2222" />
    <path d="M15.3618 19.5326L20.2783 15.3804L21.4057 26.2938L15.3618 19.5326Z" fill="#DB2222" />
    <path
        d="M21.1933 26.0654H4.45691C4.34935 26.0654 4.26416 26.1672 4.26416 26.2939C4.26416 26.4196 4.34949 26.5224 4.45691 26.5224H21.1933C21.3001 26.5224 21.3853 26.4198 21.3853 26.2939C21.3853 26.1672 21.3001 26.0654 21.1933 26.0654Z"
        fill="#D70707" />
    <path
        d="M4.51164 26.294H21.1383H21.4057L15.3618 19.5327L12.4906 21.9589L9.34021 20.4269L4.24438 26.294H4.51164Z"
        fill="#D70707" />
</svg>