<svg width="32" height="32" viewBox="0 0 32 32" fill="none" xmlns="http://www.w3.org/2000/svg">
    <path fill-rule="evenodd" clip-rule="evenodd"
        d="M0 0C10.6667 0 21.3333 0 32 0C32 10.6667 32 21.3333 32 32C21.3333 32 10.6667 32 0 32C0 21.3333 0 10.6667 0 0Z"
        fill="#FEFEFE" />
    <path
        d="M9.01812 8.21845V15.7094C4.82903 15.7094 1.38176 12.3275 1.38176 8.21845C1.38176 4.10936 4.82903 0.727539 9.01812 0.727539C13.2072 0.727539 16.6545 4.10936 16.6545 8.21845H9.01812ZM22.9818 24.2184V31.7094C18.7927 31.7094 15.3454 28.3275 15.3454 24.2184C15.3454 20.1094 18.7927 16.7275 22.9818 16.7275C27.1708 16.7275 30.6181 20.1094 30.6181 24.2184H22.9818ZM22.9818 15.4912L30.8363 0.945721H15.1272L22.9818 15.4912ZM9.01812 31.4912L16.8727 16.9457H1.16357L9.01812 31.4912Z"
        fill="black" />
</svg>