<svg width="32" height="32" viewBox="0 0 32 32" fill="none" xmlns="http://www.w3.org/2000/svg">
    <g clip-path="url(#clip0_3863_71)">
        <rect width="32" height="32" fill="#FAFAFA" />
        <path opacity="0.966" fill-rule="evenodd" clip-rule="evenodd"
            d="M14.6398 0C15.5467 0 16.4536 0 17.3605 0C21.1348 1.18797 22.9486 3.77906 22.8018 7.77328C21.9813 7.94601 21.1607 7.94601 20.3402 7.77328C20.3707 3.89475 18.4705 2.18896 14.6398 2.65587C13.1288 3.21688 12.1572 4.27492 11.7248 5.82996C11.6601 7.98877 11.6385 10.148 11.6601 12.3077C10.7964 12.3077 9.93268 12.3077 9.06898 12.3077C9.06898 11.6167 9.06898 10.9258 9.06898 10.2348C9.24171 9.41431 9.24171 8.59379 9.06898 7.77328C8.96629 3.73751 10.8233 1.14642 14.6398 0Z"
            fill="#F0592A" />
        <path opacity="0.966" fill-rule="evenodd" clip-rule="evenodd"
            d="M3.49805 7.77344C5.35499 7.77344 7.21195 7.77344 9.0689 7.77344C9.24163 8.59395 9.24163 9.41447 9.0689 10.235C8.03246 10.235 6.99602 10.235 5.95959 10.235C5.95959 16.7127 5.95959 23.1904 5.95959 29.6682C13.4738 29.6682 20.9879 29.6682 28.5021 29.6682C28.5021 30.4455 28.5021 31.2228 28.5021 32.0002C20.1675 32.0002 11.8327 32.0002 3.49805 32.0002C3.49805 23.9246 3.49805 15.849 3.49805 7.77344Z"
            fill="#545454" />
        <path opacity="0.963" fill-rule="evenodd" clip-rule="evenodd"
            d="M20.34 7.77344C21.1605 7.94617 21.9811 7.94617 22.8015 7.77344C24.7017 7.77344 26.6018 7.77344 28.5019 7.77344C28.5019 13.6465 28.5019 19.5198 28.5019 25.3929C25.4786 25.4145 22.4557 25.3929 19.4331 25.3281C17.6798 23.6178 15.8877 21.9553 14.0566 20.3402C13.9918 21.8078 13.9702 23.2762 13.9918 24.7451C13.1713 24.7451 12.3508 24.7451 11.5303 24.7451C11.5303 21.8949 11.5303 19.0447 11.5303 16.1945C14.3805 16.1945 17.2307 16.1945 20.0809 16.1945C20.0809 17.015 20.0809 17.8356 20.0809 18.656C18.7414 18.6345 17.4027 18.656 16.0647 18.7208C17.5329 20.1028 19.0013 21.4846 20.4695 22.8666C22.3259 22.9313 24.183 22.953 26.0404 22.9313C26.0404 18.6992 26.0404 14.4671 26.0404 10.235C21.9378 10.235 17.8353 10.235 13.7327 10.235C13.7327 9.41447 13.7327 8.59395 13.7327 7.77344C15.9351 7.77344 18.1376 7.77344 20.34 7.77344Z"
            fill="#535353" />
    </g>
    <defs>
        <clipPath id="clip0_3863_71">
            <rect width="32" height="32" fill="white" />
        </clipPath>
    </defs>
</svg>