<svg width="32" height="32" viewBox="0 0 32 32" fill="none" xmlns="http://www.w3.org/2000/svg">
    <g clip-path="url(#clip0_3063_45)">
        <path
            d="M27.312 27.3154C29.5502 25.078 31.0745 22.227 31.6922 19.1232C32.31 16.0194 31.9934 12.8021 30.7826 9.87816C29.5717 6.95428 27.521 4.45514 24.8896 2.69682C22.2583 0.938504 19.1647 0 16 0C12.8353 0 9.74168 0.938504 7.11038 2.69682C4.47909 4.45514 2.42834 6.95428 1.21747 9.87816C0.00661259 12.8021 -0.309959 16.0194 0.307796 19.1232C0.925552 22.227 2.44988 25.078 4.68801 27.3154C7.68845 30.315 11.7574 32 16 32C20.2426 32 24.3116 30.315 27.312 27.3154Z"
            fill="white" />
        <path
            d="M25.0317 15.9316V16.4276C25.0553 18.1232 24.6712 19.7996 23.9117 21.3156C23.1954 22.7853 22.0485 24.002 20.6237 24.8036C19.1474 25.5914 17.4969 25.9957 15.8237 25.9796H9.30371V15.9316H11.4637V23.7236H15.7677C17.0664 23.7572 18.3496 23.4364 19.4797 22.7956C20.5131 22.2065 21.3483 21.324 21.8797 20.2596C22.4714 19.0694 22.7756 17.7568 22.7677 16.4276V15.9316H25.0317Z"
            fill="#58A5FF" />
        <path
            d="M25.0157 15.3798V15.9318H22.8077V15.3798C22.8199 14.0493 22.5214 12.7344 21.9357 11.5398C21.4236 10.4622 20.5835 9.57442 19.5357 9.00378C18.4397 8.37234 17.1924 8.05146 15.9277 8.07578H11.4637V15.9398H9.30371V5.91576H15.9517C17.6072 5.87589 19.2431 6.28208 20.6877 7.09176C22.1166 7.88491 23.2714 9.09274 23.9997 10.5558C24.6627 12.0699 25.0111 13.7029 25.0237 15.3558L25.0157 15.3798Z"
            fill="#4787EF" />
        <path
            d="M22.8079 15.3472V15.9312H20.7999V15.4112C20.87 13.8954 20.3994 12.4041 19.4719 11.2032C19.0337 10.7008 18.4868 10.3049 17.8727 10.0457C17.2586 9.78646 16.5935 9.6707 15.9279 9.70718H13.5999V15.9072H11.4639V8.05118H15.8639C17.1311 8.01182 18.3849 8.32182 19.4879 8.94718C20.5398 9.5423 21.3917 10.436 21.9359 11.5152C22.5529 12.6957 22.8533 14.016 22.8079 15.3472Z"
            fill="#D8D8D8" />
        <path
            d="M22.8079 15.3552V15.9312H20.7999V15.4192C20.8719 13.9007 20.4011 12.4061 19.4719 11.2032C19.0349 10.6993 18.4882 10.3025 17.8738 10.0432C17.2594 9.78382 16.5936 9.66886 15.9279 9.70718H13.5999V15.8992H11.4639V8.05118H15.8639C17.1315 8.0183 18.3842 8.33078 19.4879 8.95518C20.5398 9.5503 21.3917 10.444 21.9359 11.5232C22.5529 12.7037 22.8533 14.0239 22.8079 15.3552Z"
            fill="#21AAF5" />
        <path
            d="M22.8079 15.9316V16.4276C22.832 17.7586 22.527 19.075 21.9199 20.2596C21.4106 21.3392 20.5697 22.2277 19.5199 22.7956C18.3985 23.4508 17.1136 23.7727 15.8159 23.7236H11.4639V15.9316H13.5999V22.0516H15.7759C16.4656 22.096 17.1567 21.9861 17.7987 21.7301C18.4407 21.4741 19.0178 21.0784 19.4879 20.5716C20.419 19.3738 20.8825 17.8781 20.7919 16.3636V15.9316H22.8079Z"
            fill="white" fill-opacity="0.8" />
        <path
            d="M22.8079 15.9316V16.4276C22.832 17.7586 22.527 19.075 21.9199 20.2596C21.4106 21.3392 20.5697 22.2277 19.5199 22.7956C18.3985 23.4508 17.1136 23.7727 15.8159 23.7236H11.4639V15.9316H13.5999V22.0516H15.7759C16.4656 22.096 17.1567 21.9861 17.7987 21.7301C18.4407 21.4741 19.0178 21.0784 19.4879 20.5716C20.419 19.3738 20.8825 17.8781 20.7919 16.3636V15.9316H22.8079Z"
            fill="#70CBFC" />
    </g>
    <defs>
        <clipPath id="clip0_3063_45">
            <rect width="32" height="32" fill="white" />
        </clipPath>
    </defs>
</svg>