<svg width="32" height="32" viewBox="0 0 33 33" fill="none" xmlns="http://www.w3.org/2000/svg">
    <path fill-rule="evenodd" clip-rule="evenodd"
        d="M17.5831 1.75714C17.5831 3.25412 17.5831 4.75111 17.5831 6.24809C19.5654 6.24809 21.5477 6.24809 23.53 6.24809C25.0431 6.37522 26.0966 7.23064 26.6922 8.81434C26.8159 9.2335 26.9103 9.66121 26.9754 10.0975C27.0386 16.1923 27.0386 22.2872 26.9754 28.382C26.7319 30.2973 25.803 31.5626 24.1907 32.178C18.7791 32.2493 13.3665 32.2493 7.95488 32.178C6.3445 31.5646 5.41661 30.2994 5.17024 28.382C5.10699 22.2872 5.10699 16.1923 5.17024 10.0975C5.36658 8.34846 6.16893 7.1188 7.5773 6.40848C7.91618 6.29 8.26166 6.23654 8.61564 6.24809C10.5979 6.24809 12.5802 6.24809 14.5625 6.24809C14.5625 4.75111 14.5625 3.25412 14.5625 1.75714C14.8353 0.503953 15.5272 0.0227801 16.6392 0.313622C17.1536 0.62863 17.468 1.1098 17.5831 1.75714ZM13.4298 17.6893C13.241 17.8318 13.0833 18.0101 12.9578 18.2239C11.119 19.1073 9.9551 18.4479 9.46519 16.2458C9.52183 15.7152 9.67852 15.234 9.93716 14.8023C10.126 14.6597 10.2836 14.4815 10.4091 14.2676C11.9138 13.3806 13.0314 13.8083 13.7601 15.5508C13.8961 16.3202 13.7856 17.033 13.4298 17.6893ZM20.415 13.733C22.233 14.0748 22.9098 15.251 22.4444 17.2616C21.7091 18.6798 20.6859 19.0183 19.3766 18.2774C18.376 17.3397 18.1712 16.2169 18.7631 14.9092C19.1935 14.2834 19.7438 13.8913 20.415 13.733ZM10.3147 24.3188C11.0387 24.3011 11.7628 24.3188 12.4858 24.3723C13.105 24.9499 13.105 25.5202 12.4858 26.0831C12.1243 26.101 11.7618 26.1187 11.4003 26.1366C10.9651 26.148 10.5403 26.0945 10.126 25.9762C9.76631 25.3747 9.82861 24.8222 10.3147 24.3188ZM19.6598 24.3188C20.3838 24.3011 21.1078 24.3188 21.8309 24.3723C22.4501 24.9499 22.4501 25.5202 21.8309 26.0831C21.4694 26.101 21.1069 26.1187 20.7453 26.1366C20.3102 26.148 19.8854 26.0945 19.471 25.9762C19.1114 25.3747 19.1737 24.8222 19.6598 24.3188ZM14.9401 25.3881C15.6962 25.3703 16.4513 25.3881 17.2055 25.4415C17.7087 26.0118 17.7087 26.5821 17.2055 27.1524C16.4504 27.2237 15.6952 27.2237 14.9401 27.1524C14.4407 26.5645 14.4407 25.9764 14.9401 25.3881Z"
        fill="#12B7A6" />
    <path opacity="0.157" fill-rule="evenodd" clip-rule="evenodd"
        d="M14.5626 1.75708C14.5626 3.25406 14.5626 4.75104 14.5626 6.24803C12.5803 6.24803 10.598 6.24803 8.61572 6.24803C10.5499 6.14142 12.501 6.10571 14.4682 6.1411C14.437 4.6608 14.4682 3.19953 14.5626 1.75708Z"
        fill="#0FABA9" />
    <path opacity="0.157" fill-rule="evenodd" clip-rule="evenodd"
        d="M17.5833 1.75708C17.6776 3.19953 17.7088 4.6608 17.6776 6.1411C19.6448 6.10571 21.596 6.14142 23.5301 6.24803C21.5478 6.24803 19.5655 6.24803 17.5833 6.24803C17.5833 4.75104 17.5833 3.25406 17.5833 1.75708Z"
        fill="#0FABA9" />
    <path opacity="0.516" fill-rule="evenodd" clip-rule="evenodd"
        d="M32.2144 12.6638C32.3399 12.7351 32.4343 12.8421 32.4975 12.9846C32.3088 12.9846 32.2144 12.8777 32.2144 12.6638Z"
        fill="#0EA9AA" />
    <path fill-rule="evenodd" clip-rule="evenodd"
        d="M2.57448 14.1606C2.9209 14.1606 3.26639 14.1606 3.61282 14.1606C3.61282 18.1883 3.61282 22.2158 3.61282 26.2434C2.00056 26.4987 0.978263 25.7502 0.544992 23.998C0.481747 21.4673 0.481747 18.9368 0.544992 16.4061C0.839503 15.1987 1.51631 14.4502 2.57448 14.1606Z"
        fill="#12B7A6" />
    <path opacity="0.516" fill-rule="evenodd" clip-rule="evenodd"
        d="M10.4092 14.2676C10.2837 14.4814 10.126 14.6597 9.93726 14.8022C10.0005 14.517 10.1572 14.3389 10.4092 14.2676Z"
        fill="#0EAAAA" />
    <path fill-rule="evenodd" clip-rule="evenodd"
        d="M28.533 14.1607C30.0942 13.9902 31.1175 14.7386 31.6008 16.4062C31.664 18.9368 31.664 21.4674 31.6008 23.998C31.1675 25.7502 30.1452 26.4987 28.533 26.2435C28.533 22.2159 28.533 18.1883 28.533 14.1607Z"
        fill="#12B7A6" />
    <path opacity="0.464" fill-rule="evenodd" clip-rule="evenodd"
        d="M13.4297 17.6892C13.3665 17.9744 13.2098 18.1525 12.9578 18.2238C13.0833 18.01 13.2409 17.8317 13.4297 17.6892Z"
        fill="#0FABA9" />
</svg>