<svg width="32" height="32" viewBox="0 0 32 32" fill="none" xmlns="http://www.w3.org/2000/svg">
    <rect width="32" height="32" fill="black" />
    <path opacity="0.949" fill-rule="evenodd" clip-rule="evenodd"
        d="M9.92925 2.98145C10.0616 2.98145 10.194 2.98145 10.3264 2.98145C10.4588 3.24646 10.5912 3.24646 10.7236 2.98145C11.4517 2.98145 12.1799 2.98145 12.908 2.98145C13.0404 3.24646 13.1728 3.24646 13.3052 2.98145C13.4376 2.98145 13.5699 2.98145 13.7023 2.98145C13.4843 3.15972 13.4843 3.32535 13.7023 3.47834C13.9671 3.47834 14.2319 3.47834 14.4967 3.47834C17.2525 5.17708 19.9003 6.70088 22.44 8.04977C22.5061 8.24853 22.5725 8.44728 22.6386 8.64604C22.9033 8.64604 23.1682 8.64604 23.4329 8.64604C23.5973 8.82785 23.7959 8.96036 24.0287 9.04356C26.0725 10.1778 28.2569 11.4366 30.5819 12.82C30.5158 12.8862 30.4495 12.9525 30.3833 13.0187C31.8648 14.1875 32.3281 15.6782 31.7734 17.4908C31.607 17.5587 31.5407 17.6912 31.5748 17.8883C31.4084 17.9562 31.3421 18.0887 31.3763 18.2858C31.2438 18.2858 31.1777 18.352 31.1777 18.4846C30.913 18.5508 30.913 18.6171 31.1777 18.6833C31.0264 19.0336 30.7614 19.2324 30.3833 19.2796C30.2509 19.0146 30.1186 19.0146 29.9862 19.2796C29.7215 19.3458 29.7215 19.4121 29.9862 19.4783C28.4642 20.5055 26.8756 21.4331 25.2202 22.2609C25.0877 21.9959 24.9555 21.9959 24.823 22.2609C24.5583 22.3272 24.5583 22.3935 24.823 22.4597C23.7973 23.2718 22.6719 23.9345 21.4471 24.4473C21.3146 24.1823 21.1824 24.1823 21.0499 24.4473C20.7852 24.5135 20.7852 24.5799 21.0499 24.646C20.7721 24.9223 20.4411 25.1211 20.057 25.2423C19.9246 24.9774 19.7922 24.9774 19.6598 25.2423C19.3951 25.3085 19.3951 25.3749 19.6598 25.4411C18.6342 26.2532 17.5089 26.9159 16.2839 27.4287C16.1515 27.1637 16.0191 27.1637 15.8868 27.4287C15.622 27.4948 15.622 27.5612 15.8868 27.6274C15.2248 28.0911 14.5629 28.555 13.9009 29.0187C13.7685 29.0187 13.6361 29.0187 13.5037 29.0187C13.3714 28.7538 13.239 28.7538 13.1066 29.0187C12.2461 29.0187 11.3855 29.0187 10.525 29.0187C10.4588 28.7538 10.3926 28.7538 10.3264 29.0187C10.194 29.0187 10.0616 29.0187 9.92925 29.0187C9.61088 28.8009 9.313 28.5357 9.03562 28.2237C8.91306 28.0351 8.94614 27.8695 9.13491 27.7268C8.89634 27.5473 8.73084 27.3156 8.63846 27.0311C8.29517 25.0523 8.26206 23.0647 8.53916 21.0684C8.94398 20.914 9.07637 20.6821 8.93633 20.3727C9.30689 20.5732 9.57166 20.4738 9.73066 20.0746C9.86306 20.0746 9.92925 20.0084 9.92925 19.8759C11.2255 18.3952 11.6558 16.6727 11.22 14.7082C11.1724 14.2408 11.0069 13.8432 10.7236 13.5156C10.428 12.7201 9.93151 12.0576 9.23421 11.528C9.09172 11.717 8.92622 11.7501 8.73775 11.6274C8.76142 11.3728 8.66213 11.1409 8.43987 10.9318C8.30748 9.27545 8.30748 7.61912 8.43987 5.96281C8.60549 4.93559 9.10195 4.10743 9.92925 3.47834C9.71118 3.32535 9.71118 3.15972 9.92925 2.98145Z"
        fill="#FEFEFE" />
    <path opacity="0.925" fill-rule="evenodd" clip-rule="evenodd"
        d="M9.73059 16.8944C9.54501 17.1066 9.47882 17.3716 9.532 17.6895C9.36555 17.7574 9.29934 17.8899 9.33342 18.087C9.16697 18.1549 9.10076 18.2874 9.13484 18.4845C8.96838 18.5524 8.90218 18.6849 8.93625 18.882C8.80386 18.882 8.73767 18.9483 8.73767 19.0808C8.60527 19.0808 8.53909 19.147 8.53909 19.2795C8.40669 19.2795 8.3405 19.3458 8.3405 19.4783C8.20811 19.4783 8.14192 19.5445 8.14192 19.677C8.00952 19.677 7.94334 19.7433 7.94334 19.8758C7.67856 19.942 7.67856 20.0083 7.94334 20.0746C7.57788 20.5056 7.11451 20.7707 6.55325 20.8696C6.42086 20.6046 6.28848 20.6046 6.15609 20.8696C5.25605 20.8063 4.39552 20.8726 3.5745 21.0683C2.95923 21.0857 2.89304 20.9864 3.37592 20.7702C2.87592 20.3799 2.34636 20.2474 1.78725 20.3727C1.71395 19.8821 1.41608 19.4514 0.893625 19.0808C0.53716 18.5641 0.239286 18.0341 0 17.4907C0 16.4969 0 15.5031 0 14.5093C0.472466 13.9684 0.704147 13.3721 0.695042 12.7205C0.926723 12.4886 1.1584 12.2568 1.39008 12.0249C1.70677 12.1475 1.97155 12.0813 2.18442 11.8261C2.11823 11.7599 2.05203 11.6936 1.98583 11.6274C2.21859 11.5442 2.41718 11.4116 2.58158 11.2298C3.93316 11.1512 5.29014 11.1181 6.65254 11.1305C7.12714 11.2851 7.55741 11.5169 7.94334 11.8261C7.94477 12.2473 8.17645 12.6117 8.63838 12.9193C8.77077 12.6543 8.90315 12.6543 9.03554 12.9193C9.44179 14.1626 9.67347 15.4877 9.73059 16.8944Z"
        fill="#FEFEFE" />
    <path opacity="0.01" fill-rule="evenodd" clip-rule="evenodd"
        d="M10.7237 13.5156C10.7498 13.6625 10.7166 13.795 10.6243 13.9131C10.4869 13.7269 10.52 13.5945 10.7237 13.5156Z"
        fill="#FEFFFE" />
    <path opacity="0.01" fill-rule="evenodd" clip-rule="evenodd"
        d="M10.7234 14.1123C10.9368 14.2615 10.9699 14.4603 10.8228 14.7086C10.7268 14.5202 10.6937 14.3214 10.7234 14.1123Z"
        fill="#FEFFFE" />
    <path opacity="0.01" fill-rule="evenodd" clip-rule="evenodd"
        d="M9.92913 16.8947C9.89651 16.3606 9.92964 15.8306 10.0285 15.3047C10.1877 15.8745 10.1545 16.4045 9.92913 16.8947Z"
        fill="#FEFFFE" />
    <path opacity="0.01" fill-rule="evenodd" clip-rule="evenodd"
        d="M9.73047 16.8945C9.79671 16.8945 9.86298 16.8945 9.92923 16.8945C9.98245 17.2123 9.91621 17.4774 9.73047 17.6896C9.73047 17.4246 9.73047 17.1595 9.73047 16.8945Z"
        fill="#FEFFFE" />
    <path opacity="0.01" fill-rule="evenodd" clip-rule="evenodd"
        d="M31.7734 17.4912C32.0384 17.6237 32.0384 17.7562 31.7734 17.8887C31.7734 17.7562 31.7734 17.6237 31.7734 17.4912Z"
        fill="#FEFFFE" />
    <path opacity="0.01" fill-rule="evenodd" clip-rule="evenodd"
        d="M9.53198 17.6895C9.59823 17.6895 9.66449 17.6895 9.73074 17.6895C9.76485 17.8865 9.69858 18.0191 9.53198 18.087C9.53198 17.9545 9.53198 17.822 9.53198 17.6895Z"
        fill="#FEFFFE" />
    <path opacity="0.01" fill-rule="evenodd" clip-rule="evenodd"
        d="M31.5747 17.8887C31.6409 17.8887 31.7073 17.8887 31.7735 17.8887C31.8077 18.0858 31.7413 18.2183 31.5747 18.2862C31.5747 18.1537 31.5747 18.0212 31.5747 17.8887Z"
        fill="#FEFFFE" />
    <path opacity="0.01" fill-rule="evenodd" clip-rule="evenodd"
        d="M9.3335 18.0869C9.39974 18.0869 9.46601 18.0869 9.53225 18.0869C9.56636 18.284 9.50009 18.4165 9.3335 18.4844C9.3335 18.3519 9.3335 18.2194 9.3335 18.0869Z"
        fill="#FEFFFE" />
    <path opacity="0.01" fill-rule="evenodd" clip-rule="evenodd"
        d="M31.3762 18.2861C31.4424 18.2861 31.5088 18.2861 31.575 18.2861C31.5382 18.4193 31.4718 18.4193 31.3762 18.2861Z"
        fill="#FEFFFE" />
    <path opacity="0.01" fill-rule="evenodd" clip-rule="evenodd"
        d="M9.13477 18.4844C9.20101 18.4844 9.26728 18.4844 9.33352 18.4844C9.36763 18.6815 9.30136 18.814 9.13477 18.8819C9.13477 18.7494 9.13477 18.6169 9.13477 18.4844Z"
        fill="#FEFFFE" />
    <path opacity="0.01" fill-rule="evenodd" clip-rule="evenodd"
        d="M31.1775 18.4844C31.2437 18.4844 31.3101 18.4844 31.3762 18.4844C31.3395 18.6176 31.2731 18.6176 31.1775 18.4844Z"
        fill="#FEFFFE" />
    <path opacity="0.01" fill-rule="evenodd" clip-rule="evenodd"
        d="M8.93628 18.8818C9.00253 18.8818 9.06879 18.8818 9.13504 18.8818C9.09821 19.015 9.03194 19.015 8.93628 18.8818Z"
        fill="#FEFFFE" />
    <path opacity="0.012" fill-rule="evenodd" clip-rule="evenodd"
        d="M8.73755 19.0811C8.80379 19.0811 8.87006 19.0811 8.93631 19.0811C8.89948 19.2142 8.83321 19.2142 8.73755 19.0811Z"
        fill="#FEFFFE" />
    <path opacity="0.012" fill-rule="evenodd" clip-rule="evenodd"
        d="M8.53906 19.2793C8.60531 19.2793 8.67157 19.2793 8.73782 19.2793C8.70099 19.4125 8.63472 19.4125 8.53906 19.2793Z"
        fill="#FEFFFE" />
    <path opacity="0.012" fill-rule="evenodd" clip-rule="evenodd"
        d="M29.9861 19.4781C29.9861 19.4118 29.9861 19.3455 29.9861 19.2793C30.1185 19.2793 30.2508 19.2793 30.3833 19.2793C30.3153 19.4459 30.1831 19.5122 29.9861 19.4781Z"
        fill="#FEFFFE" />
    <path opacity="0.02" fill-rule="evenodd" clip-rule="evenodd"
        d="M8.34058 19.4785C8.40682 19.4785 8.47309 19.4785 8.53933 19.4785C8.5025 19.6117 8.43624 19.6117 8.34058 19.4785Z"
        fill="#FEFFFE" />
    <path opacity="0.01" fill-rule="evenodd" clip-rule="evenodd"
        d="M9.92912 19.876C9.79673 19.876 9.73054 19.9423 9.73054 20.0748C9.48976 19.8766 9.52286 19.6778 9.82983 19.4785C9.92203 19.5967 9.95514 19.7292 9.92912 19.876Z"
        fill="#FEFFFE" />
    <path opacity="0.01" fill-rule="evenodd" clip-rule="evenodd"
        d="M8.14185 19.6768C8.20809 19.6768 8.27436 19.6768 8.3406 19.6768C8.30377 19.8099 8.23751 19.8099 8.14185 19.6768Z"
        fill="#FEFFFE" />
    <path opacity="0.012" fill-rule="evenodd" clip-rule="evenodd"
        d="M7.94336 19.876C8.00961 19.876 8.07587 19.876 8.14212 19.876C8.10529 20.0092 8.03902 20.0092 7.94336 19.876Z"
        fill="#FEFFFE" />
    <path opacity="0.014" fill-rule="evenodd" clip-rule="evenodd"
        d="M6.15601 21.0689C6.15601 21.0026 6.15601 20.9364 6.15601 20.8701C6.2884 20.8701 6.42078 20.8701 6.55317 20.8701C6.48532 21.0367 6.35292 21.103 6.15601 21.0689Z"
        fill="#FEFFFE" />
    <path opacity="0.02" fill-rule="evenodd" clip-rule="evenodd"
        d="M3.57446 21.0684C4.43498 21.0684 5.29553 21.0684 6.15605 21.0684C5.29553 21.3334 4.43498 21.3334 3.57446 21.0684Z"
        fill="#FEFEFE" />
    <path opacity="0.01" fill-rule="evenodd" clip-rule="evenodd"
        d="M7.9433 21.0684C8.17325 22.7558 8.20638 24.4784 8.04268 26.2361C7.94334 24.5148 7.91023 22.7922 7.9433 21.0684Z"
        fill="#FEFFFE" />
    <path opacity="0.012" fill-rule="evenodd" clip-rule="evenodd"
        d="M24.823 22.4595C24.823 22.3933 24.823 22.327 24.823 22.2607C24.9555 22.2607 25.0877 22.2607 25.2202 22.2607C25.1522 22.4273 25.02 22.4936 24.823 22.4595Z"
        fill="#FEFFFE" />
    <path opacity="0.01" fill-rule="evenodd" clip-rule="evenodd"
        d="M21.0498 24.646C21.0498 24.5798 21.0498 24.5135 21.0498 24.4473C21.1823 24.4473 21.3145 24.4473 21.447 24.4473C21.3791 24.6138 21.2468 24.6802 21.0498 24.646Z"
        fill="#FEFFFE" />
    <path opacity="0.01" fill-rule="evenodd" clip-rule="evenodd"
        d="M19.6597 25.4409C19.6597 25.3748 19.6597 25.3084 19.6597 25.2422C19.7921 25.2422 19.9244 25.2422 20.0568 25.2422C19.9889 25.4087 19.8566 25.4751 19.6597 25.4409Z"
        fill="#FEFFFE" />
    <path opacity="0.018" fill-rule="evenodd" clip-rule="evenodd"
        d="M15.8867 27.6275C15.8867 27.5613 15.8867 27.4949 15.8867 27.4287C16.0191 27.4287 16.1515 27.4287 16.2839 27.4287C16.216 27.5953 16.0836 27.6617 15.8867 27.6275Z"
        fill="#FEFFFE" />
</svg>