<svg width="32" height="32" viewBox="0 0 32 32" fill="none" xmlns="http://www.w3.org/2000/svg">
    <path fill-rule="evenodd" clip-rule="evenodd"
        d="M15.9064 9.21868C19.7667 13.5983 19.8569 18.0611 16.1763 22.607C12.1047 25.8962 7.87546 26.1193 3.48853 23.2764C-0.476753 19.4767 -1.06163 15.237 1.73384 10.5575C5.2506 6.54418 9.43487 5.69624 14.2867 8.01373C14.8698 8.3704 15.4097 8.77205 15.9064 9.21868Z"
        fill="#5E5E5D" />
    <path fill-rule="evenodd" clip-rule="evenodd"
        d="M16.1762 22.6068C19.8567 18.0609 19.7666 13.5981 15.9062 9.21849C18.8474 6.81917 22.177 6.14975 25.8945 7.21024C30.8689 9.44681 32.8037 13.2402 31.6985 18.5903C29.1183 24.7109 24.6641 26.6297 18.3358 24.3473C17.5476 23.8262 16.8276 23.246 16.1762 22.6068Z"
        fill="#21B7E9" />
    <path fill-rule="evenodd" clip-rule="evenodd"
        d="M21.3055 10.2896C21.5895 10.2496 21.8594 10.2942 22.1153 10.4235C23.982 12.1399 25.6917 13.9696 27.2444 15.9127C27.1853 16.2977 27.0503 16.6547 26.8395 16.9837C25.3548 18.4565 23.87 19.9292 22.3853 21.4019C20.7674 21.8485 20.0926 21.2685 20.3606 19.6614C21.4353 18.372 22.5602 17.1224 23.735 15.9127C22.6593 14.7117 21.5347 13.5514 20.3606 12.4317C20.0313 11.4161 20.3463 10.702 21.3055 10.2896Z"
        fill="#FBFDFE" />
    <path fill-rule="evenodd" clip-rule="evenodd"
        d="M8.07748 12.4317C11.3979 12.0391 13.0627 13.4671 13.0716 16.7159C12.31 19.2012 10.6452 20.1385 8.07748 19.5275C5.5762 17.9798 5.08127 15.9715 6.59274 13.5027C7.08192 13.1072 7.57685 12.7502 8.07748 12.4317Z"
        fill="#1DB5E7" />
</svg>