<svg width="32" height="32" viewBox="0 0 32 32" fill="none" xmlns="http://www.w3.org/2000/svg">
    <g clip-path="url(#clip0_3692_45)">
        <path fill-rule="evenodd" clip-rule="evenodd"
            d="M-0.0800781 -0.0800781C10.5866 -0.0800781 21.2532 -0.0800781 31.9199 -0.0800781C31.9199 10.5866 31.9199 21.2532 31.9199 31.9199C21.2532 31.9199 10.5866 31.9199 -0.0800781 31.9199C-0.0800781 21.2532 -0.0800781 10.5866 -0.0800781 -0.0800781Z"
            fill="#FDFEFE" />
        <path fill-rule="evenodd" clip-rule="evenodd"
            d="M21.8399 9.04006C21.5681 9.01443 21.3013 9.0411 21.0399 9.12006C20.9106 9.39299 20.6973 9.52631 20.3999 9.52006C20.669 9.11774 21.0156 8.79774 21.4399 8.56006C21.6495 8.66087 21.7829 8.82087 21.8399 9.04006Z"
            fill="#5DB08D" />
        <path fill-rule="evenodd" clip-rule="evenodd"
            d="M30.64 10C30.14 9.68699 29.7134 9.28699 29.36 8.8C29.1531 8.7216 28.9397 8.69492 28.72 8.72C28.72 8.56 28.72 8.4 28.72 8.24C29.0019 8.21716 29.2686 8.27049 29.52 8.4C29.6632 8.68908 29.8765 8.90241 30.16 9.04C30.3107 9.02268 30.444 8.96936 30.56 8.88C30.6395 9.24956 30.6661 9.62291 30.64 10Z"
            fill="#E5FBF1" />
        <path fill-rule="evenodd" clip-rule="evenodd"
            d="M28.7201 8.72005C28.9398 8.69498 29.1532 8.72165 29.3601 8.80005C29.7135 9.28704 30.1401 9.68704 30.6401 10C30.6401 10.16 30.6401 10.32 30.6401 10.48C29.7394 11.1138 28.9394 11.8604 28.2401 12.72C28.1868 12.72 28.1334 12.72 28.0801 12.72C28.0892 12.5426 28.1425 12.3826 28.2401 12.24C28.9458 11.6148 29.6393 10.9481 30.3201 10.24C29.8641 9.81086 29.4375 9.35754 29.0401 8.88005C28.7158 9.04218 28.3958 9.20218 28.0801 9.36005C28.2193 9.07626 28.4326 8.86293 28.7201 8.72005Z"
            fill="#49AB82" />
        <path fill-rule="evenodd" clip-rule="evenodd"
            d="M27.44 10.1602C27.1557 11.1161 26.5157 11.7028 25.52 11.9202C26.0557 11.2246 26.6957 10.638 27.44 10.1602Z"
            fill="#52B089" />
        <path fill-rule="evenodd" clip-rule="evenodd"
            d="M28.08 9.52002C28.0676 9.99789 28.2543 10.1046 28.64 9.84002C29.7724 10.09 29.7991 10.3567 28.72 10.64C28.72 10.48 28.72 10.32 28.72 10.16C28.4 10.16 28.08 10.16 27.76 10.16C27.7282 10.5536 27.6216 10.9269 27.44 11.28C27.0188 11.4081 26.7253 11.6748 26.56 12.08C26.4172 11.8862 26.2839 11.8862 26.16 12.08C26.4634 12.2345 26.7834 12.2878 27.12 12.24C27.0928 12.0285 27.1461 11.8418 27.28 11.68C27.5362 11.6363 27.7762 11.5563 28 11.44C28.0317 11.7411 28.1117 12.0078 28.24 12.24C28.1424 12.3826 28.0892 12.5426 28.08 12.72C27.12 13.7867 26.1068 14.8 25.04 15.76C25.04 15.5467 25.04 15.3333 25.04 15.12C25.8282 14.5204 26.6016 13.8804 27.36 13.2C27.4373 13.0483 27.4639 12.8883 27.44 12.72C27.1413 12.7928 26.848 12.8995 26.56 13.04C26.0258 12.793 25.4658 12.6864 24.88 12.72C24.8045 13.2505 24.5112 13.6238 24 13.84C24.0655 14.116 24.0388 14.3827 23.92 14.64C23.6146 14.5043 23.2946 14.451 22.96 14.48C22.9391 14.3618 22.9658 14.2551 23.04 14.16C23.8322 13.3762 24.6589 12.6295 25.52 11.92C26.5157 11.7027 27.1557 11.116 27.44 10.16C27.4933 9.78669 27.7068 9.57335 28.08 9.52002Z"
            fill="#37B07C" />
        <path fill-rule="evenodd" clip-rule="evenodd"
            d="M28.2399 12.2399C28.1116 12.0076 28.0316 11.741 27.9999 11.4399C27.7761 11.5561 27.5361 11.6361 27.2799 11.6799C27.146 11.8417 27.0927 12.0283 27.1199 12.2399C26.7833 12.2877 26.4633 12.2344 26.1599 12.0799C26.2838 11.8861 26.417 11.8861 26.5599 12.0799C26.7252 11.6747 27.0186 11.408 27.4399 11.2799C27.6215 10.9268 27.7281 10.5535 27.7599 10.1599C28.0799 10.1599 28.3999 10.1599 28.7199 10.1599C28.7199 10.3199 28.7199 10.4799 28.7199 10.6399C29.799 10.3566 29.7722 10.0899 28.6399 9.83988C28.2542 10.1044 28.0674 9.99775 28.0799 9.51988C28.0799 9.46655 28.0799 9.41321 28.0799 9.35988C28.3956 9.20201 28.7156 9.04201 29.0399 8.87988C29.4374 9.35737 29.8639 9.8107 30.3199 10.2399C29.6391 10.9479 28.9457 11.6146 28.2399 12.2399Z"
            fill="#27B47A" />
        <path fill-rule="evenodd" clip-rule="evenodd"
            d="M30.64 10.48C29.9256 11.3556 29.1256 12.1023 28.24 12.72C28.9394 11.8604 29.7394 11.1137 30.64 10.48Z"
            fill="#C0EDD8" />
        <path fill-rule="evenodd" clip-rule="evenodd"
            d="M22.96 10.6401C22.7342 11.0264 22.4142 11.293 22 11.4401C22.2258 11.0539 22.5458 10.7872 22.96 10.6401Z"
            fill="#BCF2DB" />
        <path fill-rule="evenodd" clip-rule="evenodd"
            d="M20.3999 12.7198C20.3999 12.8265 20.3999 12.9332 20.3999 13.0398C19.4637 12.8779 18.957 12.3445 18.8799 11.4398C19.0672 11.2169 19.3072 11.0836 19.5999 11.0398C19.8533 10.5599 20.2 10.1599 20.6399 9.83984C20.969 10.0355 21.3156 10.1955 21.6799 10.3198C21.493 10.5946 21.2263 10.7013 20.8799 10.6398C20.98 11.2599 20.7133 11.5532 20.0799 11.5198C19.946 11.6817 19.8927 11.8683 19.9199 12.0798C20.0799 12.0798 20.2399 12.0798 20.3999 12.0798C20.3999 12.2932 20.3999 12.5065 20.3999 12.7198Z"
            fill="#24B577" />
        <path fill-rule="evenodd" clip-rule="evenodd"
            d="M21.84 9.04018C22.5928 9.31226 22.9661 9.84561 22.96 10.6402C22.5458 10.7873 22.2258 11.0539 22 11.4402C21.5035 11.9391 20.9703 12.3658 20.4 12.7202C20.4 12.5069 20.4 12.2935 20.4 12.0802C20.24 12.0802 20.08 12.0802 19.92 12.0802C19.8928 11.8686 19.9461 11.682 20.08 11.5202C20.7135 11.5536 20.9802 11.2602 20.88 10.6402C21.2264 10.7016 21.4931 10.595 21.68 10.3202C21.3157 10.1959 20.9691 10.0359 20.64 9.84018C20.2002 10.1603 19.8535 10.5603 19.6 11.0402C19.3074 11.0839 19.0674 11.2173 18.88 11.4402C18.9571 12.3449 19.4639 12.8782 20.4 13.0402C20.209 13.1637 20.049 13.3237 19.92 13.5202C19.1656 14.1679 18.4723 14.8612 17.84 15.6002C17.264 15.909 16.784 16.3357 16.4 16.8802C16.0061 17.2887 15.6327 17.2887 15.28 16.8802C15.5694 16.8816 15.836 16.8016 16.08 16.6402C16.5832 16.3237 17.0099 15.9237 17.36 15.4402C16.8635 15.1927 16.4635 15.2994 16.16 15.7602C15.9553 15.742 15.8219 15.6354 15.76 15.4402C15.9765 15.2764 16.0832 15.0631 16.08 14.8002C16.7447 14.8559 17.1712 14.5626 17.36 13.9202C17.5117 13.8429 17.6717 13.8163 17.84 13.8402C17.84 14.0535 17.84 14.2669 17.84 14.4802C18.5418 14.3676 19.0752 13.9943 19.44 13.3602C19.3179 13.1651 19.1579 13.0051 18.96 12.8802C18.3829 12.7219 17.7962 12.6686 17.2 12.7202C18.1951 11.5847 19.2618 10.518 20.4 9.52018C20.6975 9.52644 20.9107 9.39311 21.04 9.12018C21.3015 9.04122 21.5682 9.01455 21.84 9.04018Z"
            fill="#3AAF7D" />
        <path fill-rule="evenodd" clip-rule="evenodd"
            d="M21.9999 11.4399C21.9138 11.6987 21.8606 11.9654 21.8399 12.2399C21.6716 12.216 21.5116 12.2427 21.3599 12.3199C21.1466 13.0398 20.6666 13.4398 19.9199 13.5199C20.0489 13.3234 20.2089 13.1634 20.3999 13.0399C20.3999 12.9333 20.3999 12.8266 20.3999 12.7199C20.9702 12.3656 21.5034 11.9389 21.9999 11.4399Z"
            fill="#DAF9EE" />
        <path fill-rule="evenodd" clip-rule="evenodd"
            d="M17.2 12.7202C17.2272 12.9318 17.1739 13.1184 17.04 13.2802C16.5643 13.4899 16.1909 13.8099 15.92 14.2402C15.6959 14.3058 15.4826 14.3858 15.28 14.4802C15.8444 13.8224 16.4843 13.2357 17.2 12.7202Z"
            fill="#66B996" />
        <path fill-rule="evenodd" clip-rule="evenodd"
            d="M15.28 14.48C15.1733 14.9067 14.9067 15.1733 14.48 15.28C14.6933 14.96 14.96 14.6933 15.28 14.48Z"
            fill="#6CBBA0" />
        <path fill-rule="evenodd" clip-rule="evenodd"
            d="M22.9599 14.48C22.7466 14.8 22.4799 15.0667 22.1599 15.28C22.2666 14.8533 22.5332 14.5867 22.9599 14.48Z"
            fill="#75C4A9" />
        <path fill-rule="evenodd" clip-rule="evenodd"
            d="M25.04 15.7599C24.2933 16.3999 23.6 17.0932 22.96 17.8399C22.5333 18.2132 22.1068 18.5866 21.68 18.9599C21.4668 18.9599 21.2533 18.9599 21.04 18.9599C21.2341 18.4946 21.4207 18.0146 21.6 17.5199C21.8165 17.3303 22.0032 17.1169 22.16 16.8799C21.21 16.6874 21.13 16.314 21.92 15.7599C21.9973 15.6082 22.0239 15.4482 22 15.2799C22.0533 15.2799 22.1068 15.2799 22.16 15.2799C22.48 15.0666 22.7468 14.7999 22.96 14.4799C23.2946 14.4509 23.6146 14.5042 23.92 14.6399C24.0388 14.3826 24.0655 14.1159 24 13.8399C24.5112 13.6237 24.8045 13.2504 24.88 12.7199C25.4658 12.6863 26.0258 12.7929 26.56 13.0399C26.848 12.8994 27.1413 12.7927 27.44 12.7199C27.4639 12.8882 27.4373 13.0482 27.36 13.1999C26.6016 13.8803 25.8282 14.5203 25.04 15.1199C25.04 15.3332 25.04 15.5466 25.04 15.7599Z"
            fill="#2CB279" />
        <path fill-rule="evenodd" clip-rule="evenodd"
            d="M17.2001 12.7202C17.7962 12.6686 18.3829 12.7219 18.9601 12.8802C19.158 13.0051 19.318 13.1651 19.4401 13.3602C19.0753 13.9943 18.5418 14.3676 17.8401 14.4802C17.8401 14.2669 17.8401 14.0535 17.8401 13.8402C17.6717 13.8163 17.5117 13.843 17.3601 13.9202C17.1713 14.5626 16.7447 14.8559 16.0801 14.8002C16.0833 15.0631 15.9766 15.2764 15.7601 15.4402C15.822 15.6354 15.9553 15.742 16.1601 15.7602C16.4636 15.2994 16.8636 15.1927 17.3601 15.4402C17.01 15.9237 16.5833 16.3237 16.0801 16.6402C15.8361 16.8016 15.5694 16.8816 15.2801 16.8802C15.2801 16.8269 15.2801 16.7735 15.2801 16.7202C15.1569 16.1672 14.8369 15.7405 14.3201 15.4402C14.3201 15.3335 14.3734 15.2802 14.4801 15.2802C14.9067 15.1735 15.1734 14.9069 15.2801 14.4802C15.4826 14.3858 15.696 14.3058 15.9201 14.2402C16.1909 13.8099 16.5644 13.4899 17.0401 13.2802C17.174 13.1184 17.2273 12.9317 17.2001 12.7202Z"
            fill="#25B579" />
        <path fill-rule="evenodd" clip-rule="evenodd"
            d="M14.32 15.4399C14.8368 15.7403 15.1568 16.167 15.28 16.7199C14.9125 16.4329 14.5659 16.1129 14.24 15.7599C14.1293 15.6101 14.156 15.5034 14.32 15.4399Z"
            fill="#58A983" />
        <path fill-rule="evenodd" clip-rule="evenodd"
            d="M5.03998 17.6799C5.03998 17.7332 5.03998 17.7866 5.03998 17.8399C4.85198 17.875 4.69198 17.8217 4.55998 17.6799C4.11672 17.3502 3.74339 16.9502 3.43998 16.4799C3.12435 16.4007 2.80435 16.374 2.47998 16.3999C2.62489 16.1655 2.83822 16.0055 3.11998 15.9199C3.7632 16.5102 4.4032 17.0967 5.03998 17.6799Z"
            fill="#56AE89" />
        <path fill-rule="evenodd" clip-rule="evenodd"
            d="M17.8399 15.6001C17.4559 16.1446 16.9759 16.5713 16.3999 16.8801C16.7839 16.3356 17.2639 15.9089 17.8399 15.6001Z"
            fill="#B7EDD7" />
        <path fill-rule="evenodd" clip-rule="evenodd"
            d="M12.72 17.8399C12.88 18.0532 13.04 18.2666 13.2 18.4799C12.543 18.4828 12.143 18.1628 12 17.5199C10.9303 16.2326 9.99697 16.3391 9.20004 17.8399C9.14671 17.8399 9.09337 17.8399 9.04004 17.8399C9.25094 17.0234 9.78426 16.3834 10.64 15.9199C11.3366 16.5634 12.0299 17.2034 12.72 17.8399Z"
            fill="#49AA81" />
        <path fill-rule="evenodd" clip-rule="evenodd"
            d="M12.7201 17.84C12.03 17.2035 11.3366 16.5635 10.6401 15.92C9.7843 16.3835 9.25097 17.0235 9.04007 17.84C8.88007 17.84 8.72007 17.84 8.56007 17.84C8.45579 17.1904 8.72246 16.8704 9.36007 16.88C9.46675 16.56 9.5734 16.24 9.68007 15.92C10.3453 15.6595 10.9853 15.7128 11.6001 16.08C11.7194 16.2777 11.7727 16.4912 11.7601 16.72C12.5318 16.6923 12.8518 17.0657 12.7201 17.84Z"
            fill="#E1FBF1" />
        <path fill-rule="evenodd" clip-rule="evenodd"
            d="M5.04004 17.6799C4.40326 17.0967 3.76326 16.5101 3.12004 15.9199C2.83828 16.0055 2.62495 16.1655 2.48004 16.3999C2.48004 16.4532 2.48004 16.5066 2.48004 16.5599C2.06903 16.7405 1.72236 17.0073 1.44004 17.3599C1.36491 17.5322 1.39157 17.6922 1.52004 17.8399C1.36004 17.8399 1.20004 17.8399 1.04004 17.8399C1.15261 17.2833 1.33928 16.75 1.60004 16.2399C1.85116 16.2127 2.14449 16.1594 2.48004 16.0799C2.48004 15.9199 2.48004 15.7599 2.48004 15.5999C2.86726 15.5667 3.24058 15.62 3.60004 15.7599C3.87914 16.3058 4.3058 16.6793 4.88004 16.8799C5.00954 17.1313 5.06287 17.398 5.04004 17.6799Z"
            fill="#E2FBF2" />
        <path fill-rule="evenodd" clip-rule="evenodd"
            d="M2.48003 16.5601C2.24761 16.9322 2.03428 17.3322 1.84003 17.7601C2.27436 17.9001 2.48769 18.1933 2.48003 18.6401C2.16003 18.3733 1.84003 18.1068 1.52003 17.8401C1.39156 17.6924 1.36489 17.5324 1.44003 17.3601C1.72235 17.0074 2.06902 16.7407 2.48003 16.5601Z"
            fill="#4AA783" />
        <path fill-rule="evenodd" clip-rule="evenodd"
            d="M5.19995 17.8398C5.5653 17.8571 5.8853 17.9904 6.15995 18.2398C6.45675 18.7272 6.77675 19.1806 7.11995 19.5998C6.3831 19.1301 5.7431 18.5435 5.19995 17.8398Z"
            fill="#E4F9EE" />
        <path fill-rule="evenodd" clip-rule="evenodd"
            d="M12.72 17.8398C13.1301 17.8768 13.3967 18.0902 13.52 18.4798C13.4666 18.4798 13.4133 18.4798 13.36 18.4798C13.3066 18.4798 13.2533 18.4798 13.2 18.4798C13.04 18.2666 12.88 18.0531 12.72 17.8398Z"
            fill="#C9F4E4" />
        <path fill-rule="evenodd" clip-rule="evenodd"
            d="M22.9599 17.8398C22.6932 18.4266 22.2667 18.8531 21.6799 19.1198C21.6799 19.0666 21.6799 19.0131 21.6799 18.9598C22.1067 18.5866 22.5332 18.2131 22.9599 17.8398Z"
            fill="#C0F5DE" />
        <path fill-rule="evenodd" clip-rule="evenodd"
            d="M13.2 18.4801C13.2533 18.4801 13.3066 18.4801 13.36 18.4801C13.554 18.9951 13.874 19.4217 14.32 19.7601C14.6895 20.5558 14.4495 20.9292 13.6 20.8801C13.36 20.8268 13.12 20.7734 12.88 20.7201C12.9134 20.6263 12.9668 20.5463 13.04 20.4801C12.6704 20.4006 12.297 20.374 11.92 20.4001C10.9242 19.6719 10.0175 18.8185 9.19995 17.8401C9.99688 16.3393 10.9302 16.2327 12 17.5201C12.1429 18.163 12.5429 18.483 13.2 18.4801Z"
            fill="#2BB279" />
        <path fill-rule="evenodd" clip-rule="evenodd"
            d="M2.48009 16.4002C2.80446 16.3743 3.12446 16.401 3.44009 16.4802C3.7435 16.9504 4.11682 17.3504 4.56009 17.6802C4.69209 17.822 4.85209 17.8752 5.04009 17.8402C5.09342 17.8402 5.14676 17.8402 5.20009 17.8402C5.74324 18.5439 6.38324 19.1304 7.12009 19.6002C7.34118 19.928 7.60783 20.1946 7.92009 20.4002C8.01988 20.7608 8.23321 21.0276 8.56009 21.2002C8.37769 21.6042 8.27102 22.0309 8.24009 22.4802C8.40009 22.4802 8.56009 22.4802 8.72009 22.4802C8.72009 22.6402 8.72009 22.8002 8.72009 22.9602C8.33558 22.9431 8.04225 23.1031 7.84009 23.4402C7.69484 23.13 7.45484 22.97 7.12009 22.9602C7.14401 22.7919 7.11734 22.6319 7.04009 22.4802C6.63322 22.1855 6.28655 21.8388 6.00009 21.4402C5.73303 21.1732 5.41303 21.0399 5.04009 21.0402C5.04009 20.8269 5.04009 20.6135 5.04009 20.4002C4.82676 20.4002 4.61342 20.4002 4.40009 20.4002C3.95655 19.8631 3.52988 19.3031 3.12009 18.7202C2.909 18.689 2.69567 18.7157 2.48009 18.8002C2.48009 18.7469 2.48009 18.6935 2.48009 18.6402C2.48775 18.1935 2.27442 17.9002 1.84009 17.7602C2.03434 17.3324 2.24767 16.9324 2.48009 16.5602C2.48009 16.5069 2.48009 16.4535 2.48009 16.4002Z"
            fill="#29B378" />
        <path fill-rule="evenodd" clip-rule="evenodd"
            d="M17.8401 19.4399C18.099 19.0743 18.419 18.7543 18.8001 18.4799C19.3521 18.5989 19.6187 18.3855 19.6001 17.8399C19.8668 17.8399 20.1334 17.8399 20.4001 17.8399C20.4001 17.6266 20.4001 17.4131 20.4001 17.1999C20.5684 17.176 20.7284 17.2026 20.8801 17.2799C20.7468 17.6128 20.7468 17.9595 20.8801 18.3199C20.7201 18.3199 20.5601 18.3199 20.4001 18.3199C20.4001 18.5866 20.4001 18.8531 20.4001 19.1199C20.6198 19.0947 20.8332 19.1215 21.0401 19.1999C20.5939 19.7264 20.1139 20.2331 19.6001 20.7199C19.3534 20.9194 19.1134 20.9194 18.8801 20.7199C18.6214 20.8856 18.5947 21.0723 18.8001 21.2799C18.4835 21.3893 18.2167 21.3093 18.0001 21.0399C17.8422 20.517 17.7889 19.9835 17.8401 19.4399Z"
            fill="#2BB278" />
        <path fill-rule="evenodd" clip-rule="evenodd"
            d="M4.39998 20.4001C4.23166 20.424 4.07166 20.3974 3.91998 20.3201C3.51532 19.7291 3.03532 19.2225 2.47998 18.8001C2.69556 18.7156 2.90889 18.6889 3.11998 18.7201C3.52977 19.303 3.95644 19.863 4.39998 20.4001Z"
            fill="#54AF87" />
        <path fill-rule="evenodd" clip-rule="evenodd"
            d="M18.8001 18.3198C18.8001 18.3731 18.8001 18.4265 18.8001 18.4798C18.4189 18.7542 18.0989 19.0742 17.8401 19.4398C17.4444 19.6896 17.1244 20.0096 16.8801 20.3998C16.8268 20.3998 16.7733 20.3998 16.7201 20.3998C16.6714 20.2958 16.6181 20.1891 16.5601 20.0798C16.7837 19.743 17.0237 19.423 17.2801 19.1198C17.5335 18.9021 17.8269 18.7953 18.1601 18.7998C18.1601 18.6398 18.1601 18.4798 18.1601 18.3198C18.3733 18.3198 18.5868 18.3198 18.8001 18.3198Z"
            fill="#DBF9F1" />
        <path fill-rule="evenodd" clip-rule="evenodd"
            d="M21.6799 19.1201C21.4132 19.7068 20.9866 20.1334 20.3999 20.4001C20.7732 19.9201 21.1999 19.4934 21.6799 19.1201Z"
            fill="#CFFAE7" />
        <path fill-rule="evenodd" clip-rule="evenodd"
            d="M13.3599 18.48C13.4132 18.48 13.4666 18.48 13.5199 18.48C14.0774 19.1888 14.7174 19.8288 15.4399 20.4C15.8521 21.2253 16.2255 21.2253 16.5599 20.4C16.6132 20.4 16.6666 20.4 16.7199 20.4C16.7732 20.4 16.8266 20.4 16.8799 20.4C16.9314 20.7555 16.8247 21.0489 16.5599 21.28C15.9199 21.1733 15.2799 21.0667 14.6399 20.96C14.4575 21.2757 14.2442 21.5691 13.9999 21.84C14.1869 22.1147 14.4536 22.2214 14.7999 22.16C14.8087 22.7491 14.9687 23.2824 15.2799 23.76C14.8533 23.3867 14.4266 23.0133 13.9999 22.64C13.6721 22.152 13.2454 21.7787 12.7199 21.52C12.5193 21.1051 12.2527 20.7317 11.9199 20.4C12.297 20.3739 12.6704 20.4005 13.0399 20.48C12.9667 20.5462 12.9134 20.6262 12.8799 20.72C13.1199 20.7733 13.3599 20.8267 13.5999 20.88C14.4495 20.9291 14.6895 20.5557 14.3199 19.76C13.874 19.4216 13.554 18.995 13.3599 18.48Z"
            fill="#3DB07F" />
        <path fill-rule="evenodd" clip-rule="evenodd"
            d="M7.91992 20.3999C8.54314 20.5428 8.96981 20.9161 9.19992 21.5199C8.95003 21.4826 8.73671 21.3759 8.55992 21.1999C8.23304 21.0273 8.01971 20.7605 7.91992 20.3999Z"
            fill="#D8FBEE" />
        <path fill-rule="evenodd" clip-rule="evenodd"
            d="M15.4399 20.3999C15.8133 20.3999 16.1867 20.3999 16.5599 20.3999C16.2255 21.2252 15.8521 21.2252 15.4399 20.3999Z"
            fill="#D9FAED" />
        <path fill-rule="evenodd" clip-rule="evenodd"
            d="M21.9999 15.2798C22.0237 15.4481 21.9972 15.6081 21.9199 15.7598C21.1298 16.3139 21.2098 16.6873 22.1599 16.8798C22.0031 17.1167 21.8164 17.3302 21.5999 17.5198C21.4205 18.0145 21.234 18.4945 21.0399 18.9598C21.2532 18.9598 21.4666 18.9598 21.6799 18.9598C21.6799 19.0131 21.6799 19.0665 21.6799 19.1198C21.1999 19.4931 20.7732 19.9198 20.3999 20.3998C19.594 21.206 18.7405 21.9527 17.8399 22.6398C17.86 22.3678 17.9668 22.1278 18.1599 21.9198C18.058 21.6457 17.898 21.6191 17.6799 21.8398C17.5506 21.7905 17.4439 21.7105 17.3599 21.5998C17.5316 21.3998 17.5316 21.1863 17.3599 20.9598C17.4434 20.8078 17.5501 20.6743 17.6799 20.5598C17.4327 20.4075 17.166 20.3542 16.8799 20.3998C17.1242 20.0095 17.4442 19.6895 17.8399 19.4398C17.7887 19.9835 17.842 20.5169 17.9999 21.0398C18.2165 21.3092 18.4832 21.3892 18.7999 21.2798C18.5944 21.0723 18.6212 20.8855 18.8799 20.7198C19.1132 20.9193 19.3532 20.9193 19.5999 20.7198C20.1136 20.2331 20.5936 19.7263 21.0399 19.1998C20.833 19.1214 20.6196 19.0947 20.3999 19.1198C20.3999 18.8531 20.3999 18.5865 20.3999 18.3198C20.5599 18.3198 20.7199 18.3198 20.8799 18.3198C20.7466 17.9595 20.7466 17.6127 20.8799 17.2798C20.7282 17.2025 20.5682 17.1759 20.3999 17.1998C20.3999 17.4131 20.3999 17.6265 20.3999 17.8398C20.1332 17.8398 19.8666 17.8398 19.5999 17.8398C19.6184 18.3854 19.3519 18.5988 18.7999 18.4798C18.7999 18.4265 18.7999 18.3731 18.7999 18.3198C19.8975 17.3651 20.964 16.3518 21.9999 15.2798Z"
            fill="#39B07F" />
        <path fill-rule="evenodd" clip-rule="evenodd"
            d="M16.88 20.4C17.1661 20.3544 17.4328 20.4077 17.68 20.56C17.5502 20.6746 17.4435 20.808 17.36 20.96C17.5317 21.1866 17.5317 21.4 17.36 21.6C17.444 21.7108 17.5507 21.7908 17.68 21.84C17.8981 21.6194 18.0581 21.646 18.16 21.92C17.9669 22.128 17.8602 22.368 17.84 22.64C17.84 22.7468 17.84 22.8533 17.84 22.96C17.7333 22.96 17.6267 22.96 17.52 22.96C17.3067 22.96 17.0933 22.96 16.88 22.96C16.88 23.12 16.88 23.28 16.88 23.44C16.72 23.44 16.56 23.44 16.4 23.44C16.4 23.6 16.4 23.76 16.4 23.92C16.031 23.8412 15.6578 23.7879 15.28 23.76C14.9688 23.2824 14.8088 22.7492 14.8 22.16C14.4536 22.2215 14.187 22.1148 14 21.84C14.2443 21.5692 14.4576 21.2757 14.64 20.96C15.28 21.0668 15.92 21.1733 16.56 21.28C16.8248 21.049 16.9315 20.7556 16.88 20.4Z"
            fill="#27B479" />
        <path fill-rule="evenodd" clip-rule="evenodd"
            d="M5.04004 21.3599C5.72334 21.776 6.30999 22.3093 6.80004 22.9599C6.51806 22.9827 6.25138 22.9293 6.00004 22.7999C5.63372 22.3288 5.31372 21.8488 5.04004 21.3599Z"
            fill="#DFF8EF" />
        <path fill-rule="evenodd" clip-rule="evenodd"
            d="M12.72 21.52C13.2455 21.7787 13.6721 22.152 14 22.64C13.448 22.7591 13.1814 22.5456 13.2 22C13.04 22 12.88 22 12.72 22C12.72 21.84 12.72 21.68 12.72 21.52Z"
            fill="#D9FBEF" />
        <path fill-rule="evenodd" clip-rule="evenodd"
            d="M4.3999 20.3999C4.61323 20.3999 4.82657 20.3999 5.0399 20.3999C5.0399 20.6132 5.0399 20.8266 5.0399 21.0399C5.41285 21.0396 5.73285 21.1729 5.9999 21.4399C6.28637 21.8385 6.63304 22.1852 7.0399 22.4799C7.11715 22.6316 7.14382 22.7916 7.1199 22.9599C7.45465 22.9697 7.69465 23.1297 7.8399 23.4399C8.04206 23.1028 8.33539 22.9428 8.7199 22.9599C8.7199 22.7999 8.7199 22.6399 8.7199 22.4799C8.5599 22.4799 8.3999 22.4799 8.2399 22.4799C8.27083 22.0306 8.3775 21.6039 8.5599 21.1999C8.73669 21.3759 8.95001 21.4826 9.1999 21.5199C9.25731 21.8193 9.41731 22.0593 9.6799 22.2399C9.14657 22.7732 8.61323 23.3066 8.0799 23.8399C7.90761 23.9151 7.74761 23.8884 7.5999 23.7599C7.38657 23.4399 7.1199 23.1732 6.7999 22.9599C6.30985 22.3093 5.7232 21.7761 5.0399 21.3599C4.76382 21.0834 4.55048 20.7634 4.3999 20.3999Z"
            fill="#46AC82" />
        <path fill-rule="evenodd" clip-rule="evenodd"
            d="M9.20001 21.5199C9.63891 21.4522 9.85225 21.6389 9.84001 22.0799C9.50631 23.1962 8.81299 24.0229 7.76001 24.5599C7.60771 24.3127 7.55438 24.0459 7.60001 23.7599C7.74772 23.8883 7.90772 23.9151 8.08001 23.8399C8.61334 23.3066 9.14668 22.7731 9.68001 22.2399C9.41742 22.0592 9.25742 21.8192 9.20001 21.5199Z"
            fill="#E0FCF2" />
        <path fill-rule="evenodd" clip-rule="evenodd"
            d="M17.5199 22.96C17.6266 22.96 17.7332 22.96 17.8399 22.96C17.91 23.6652 17.59 23.932 16.8799 23.76C17.0932 23.4932 17.3066 23.2267 17.5199 22.96Z"
            fill="#DBF9ED" />
        <path fill-rule="evenodd" clip-rule="evenodd"
            d="M17.52 22.96C17.3067 23.2267 17.0933 23.4932 16.88 23.76C16.6103 24.0025 16.317 24.216 16 24.4C15.7256 24.2233 15.4856 24.0099 15.28 23.76C15.6578 23.7878 16.0311 23.8411 16.4 23.92C16.4 23.76 16.4 23.6 16.4 23.44C16.56 23.44 16.72 23.44 16.88 23.44C16.88 23.28 16.88 23.12 16.88 22.96C17.0933 22.96 17.3067 22.96 17.52 22.96Z"
            fill="#43AC81" />
    </g>
    <defs>
        <clipPath id="clip0_3692_45">
            <rect width="32" height="32" fill="white" />
        </clipPath>
    </defs>
</svg>