<svg width="32" height="32" viewBox="0 0 33 33" fill="none" xmlns="http://www.w3.org/2000/svg">
    <path fill-rule="evenodd" clip-rule="evenodd"
        d="M0.919922 16.915C0.919922 8.07846 8.08335 0.915039 16.9199 0.915039V0.915039C25.7565 0.915039 32.9199 8.07846 32.9199 16.915V16.915C32.9199 25.7516 25.7565 32.915 16.9199 32.915V32.915C8.08335 32.915 0.919922 25.7516 0.919922 16.915V16.915Z"
        fill="#9353FF" />
    <path
        d="M24.7409 4C23.4456 4.22587 22.2797 4.87838 21.4249 5.85714C20.5699 6.8359 20.1294 8.06564 20.1294 9.34556V11.4537H14.5337C8.91191 11.6544 5 15.4691 5 20.7142C5 26.11 9.19689 30 14.9741 30C20.259 30 24.2487 26.8127 24.8963 22.0695C24.9481 21.6429 24.974 21.2413 24.974 20.8147L25 4H24.7409ZM20.1036 16.1216L20.0777 20.7142C20.0777 21.166 20.0259 21.6178 19.9223 22.0695C19.3004 24.4035 17.2798 25.9344 14.7668 25.9344C11.6321 25.9344 9.45594 23.7008 9.45594 20.5386C9.45594 17.3513 11.6321 15.3938 14.7668 15.3938H20.1036V16.1216Z"
        fill="#FAFAFA" />
</svg>