<svg width="32" height="32" viewBox="0 0 32 32" fill="none" xmlns="http://www.w3.org/2000/svg">
    <g clip-path="url(#clip0_2375_112)">
        <path fill-rule="evenodd" clip-rule="evenodd"
            d="M-0.0742188 -0.0742188C10.5924 -0.0742188 21.2591 -0.0742188 31.9258 -0.0742188C31.9258 10.5924 31.9258 21.2591 31.9258 31.9258C21.2591 31.9258 10.5924 31.9258 -0.0742188 31.9258C-0.0742188 21.2591 -0.0742188 10.5924 -0.0742188 -0.0742188Z"
            fill="#FEFEFE" />
        <path fill-rule="evenodd" clip-rule="evenodd"
            d="M2.88871 2.29636C4.76591 2.27168 6.64244 2.29638 8.51834 2.37044C9.38253 2.64204 9.95044 3.20995 10.222 4.07414C9.15124 10.0137 11.5957 12.7544 17.5554 12.2964C17.9167 12.411 18.1884 12.6332 18.3702 12.963C18.469 14.9383 18.469 16.9137 18.3702 18.889C18.1884 19.2187 17.9167 19.441 17.5554 19.5556C11.6694 19.0725 9.22499 21.7638 10.222 27.6297C10.0147 28.5778 9.44683 29.195 8.51834 29.4815C6.64179 29.5804 4.76526 29.5804 2.88871 29.4815C2.09792 29.1842 1.6288 28.6162 1.4813 27.7778C1.38254 25.8519 1.38254 23.926 1.4813 22.0001C1.80229 21.2841 2.32081 20.7655 3.03686 20.4445C4.41957 20.3952 5.80229 20.3457 7.185 20.2964C10.0811 19.5695 11.291 17.7177 10.8146 14.7408C10.1998 12.9896 8.98994 11.9279 7.185 11.5556C5.80229 11.5062 4.41957 11.4569 3.03686 11.4075C2.25797 11.0732 1.73945 10.5053 1.4813 9.70377C1.38254 7.72847 1.38254 5.75315 1.4813 3.77784C1.7809 3.10821 2.25004 2.61439 2.88871 2.29636Z"
            fill="#75BC21" />
        <path fill-rule="evenodd" clip-rule="evenodd"
            d="M15.926 2.29664C18.1535 2.24407 20.3758 2.31814 22.5926 2.51887C26.8872 3.72358 29.4798 6.5137 30.3704 10.8892C30.5079 14.4496 30.4584 18.0051 30.2223 21.5559C29.2263 25.663 26.683 28.2556 22.5926 29.3337C20.3264 29.535 18.0547 29.6091 15.7778 29.5559C15.7778 27.8275 15.7778 26.0992 15.7778 24.3707C17.4082 24.3955 19.0378 24.3707 20.6667 24.2966C22.7503 23.9403 24.1577 22.7799 24.8889 20.8152C25.1291 17.6623 25.1786 14.5017 25.0371 11.3337C24.3546 9.17861 22.8978 7.94404 20.6667 7.62998C19.1131 7.48266 17.5328 7.43327 15.926 7.48183C15.926 5.75343 15.926 4.02504 15.926 2.29664Z"
            fill="#75BC22" />
        <path fill-rule="evenodd" clip-rule="evenodd"
            d="M15.926 2.2959C15.926 4.0243 15.926 5.75268 15.926 7.48108C17.5328 7.43252 19.1131 7.48191 20.6667 7.62923C19.0371 7.62923 17.4075 7.62923 15.7778 7.62923C15.7293 5.82504 15.7786 4.04726 15.926 2.2959Z"
            fill="#CDE6AE" />
    </g>
    <defs>
        <clipPath id="clip0_2375_112">
            <rect width="32" height="32" fill="white" />
        </clipPath>
    </defs>
</svg>