<svg width="32" height="32" viewBox="0 0 32 32" fill="none" xmlns="http://www.w3.org/2000/svg">
    <rect width="32" height="32" fill="black" />
    <path opacity="0.881" fill-rule="evenodd" clip-rule="evenodd"
        d="M0.680851 6.80859C10.8936 6.80859 21.1064 6.80859 31.3191 6.80859C31.3191 7.26249 31.5461 7.48944 32 7.48944C32 8.85115 32 10.2128 32 11.5746C29.9431 13.5261 28.241 15.7956 26.8936 18.3831C26.5543 20.6413 26.4409 22.9108 26.5532 25.1916C24.7376 25.1916 22.922 25.1916 21.1064 25.1916C21.2131 24.2565 21.0996 23.3486 20.766 22.4682C19.8149 23.5373 18.7937 24.4451 17.7021 25.1916C12.0284 25.1916 6.35461 25.1916 0.680851 25.1916C0.680851 24.7376 0.453901 24.5107 0 24.5107C0 18.837 0 13.1632 0 7.48944C0.453901 7.48944 0.680851 7.26249 0.680851 6.80859ZM4.76596 10.8937C7.95132 10.7808 11.1286 10.8943 14.2979 11.2341C11.9408 12.7588 11.0329 14.9148 11.5745 17.7022C13.1631 17.7022 14.7518 17.7022 16.3404 17.7022C16.3404 18.61 16.3404 19.5178 16.3404 20.4256C12.4822 20.4256 8.62414 20.4256 4.76596 20.4256C4.76596 19.5178 4.76596 18.61 4.76596 17.7022C6.58156 17.7022 8.39714 17.7022 10.2128 17.7022C10.2128 16.3405 10.2128 14.9788 10.2128 13.6171C8.39714 13.6171 6.58156 13.6171 4.76596 13.6171C4.76596 12.7093 4.76596 11.8015 4.76596 10.8937ZM20.4255 10.8937C22.4806 10.7816 24.5232 10.8951 26.5532 11.2341C25.0459 13.2259 23.4572 15.1549 21.7872 17.0214C20.7782 15.6713 19.6434 14.423 18.383 13.2767C19.2069 12.5692 19.8877 11.7749 20.4255 10.8937Z"
        fill="#FEFFFE" />
</svg>