<svg width="32" height="32" viewBox="0 0 32 32" fill="none" xmlns="http://www.w3.org/2000/svg">
<g clip-path="url(#clip0_3773_805)">
<path fill-rule="evenodd" clip-rule="evenodd" d="M19.5555 0.497691C20.128 0.516196 20.6494 0.658418 21.12 0.924358C20.5875 0.898001 20.066 0.803186 19.5555 0.639913C19.4607 0.68732 19.3659 0.734728 19.2711 0.782135C19.5446 0.897021 19.829 0.968132 20.1244 0.995469C19.9405 1.06516 19.7508 1.08886 19.5555 1.06658C19.4618 1.82235 19.3669 2.58086 19.2711 3.34214C19.2745 3.75751 19.3219 4.16048 19.4133 4.55102C19.2072 4.70989 18.9701 4.80471 18.7022 4.83547C19.4144 4.9591 19.3671 5.05391 18.56 5.11991C19.1279 5.14413 19.6968 5.12044 20.2666 5.0488C20.289 5.24413 20.2652 5.43377 20.1955 5.61769C19.9985 5.7671 19.8563 5.95673 19.7689 6.18658C19.7293 6.71193 19.7293 7.23342 19.7689 7.75102C19.5851 7.93465 19.4193 7.93465 19.2711 7.75102C19.2711 7.51398 19.2711 7.27696 19.2711 7.03991C19.4036 6.50002 19.5934 5.97854 19.84 5.47547C19.7451 5.42807 19.6504 5.38065 19.5555 5.33325C18.4625 5.61876 17.3721 5.9032 16.2844 6.18658C15.7819 5.98135 15.2606 5.81542 14.72 5.6888C14.9524 5.61862 15.1894 5.59491 15.4311 5.61769C15.4311 5.23843 15.4311 4.85918 15.4311 4.47991C15.5733 4.47991 15.7155 4.47991 15.8577 4.47991C15.8577 3.29473 15.8577 2.10954 15.8577 0.924358C15.0056 0.882184 14.9582 0.692555 15.7155 0.355469C16.095 0.547819 16.4979 0.642632 16.9244 0.639913C17.3037 0.545098 17.6829 0.450284 18.0622 0.355469C18.5585 0.426395 19.0563 0.473803 19.5555 0.497691Z" fill="#40035A"/>
<path fill-rule="evenodd" clip-rule="evenodd" d="M14.72 0.0712891C14.3561 0.260019 13.7872 0.402242 13.0134 0.497956C13.5765 0.615508 14.1453 0.686619 14.72 0.711289C14.3437 0.782033 13.9644 0.805737 13.5823 0.7824C13.5823 1.25647 13.5823 1.73055 13.5823 2.20462C13.203 2.20462 12.8237 2.20462 12.4445 2.20462C12.4445 2.96314 12.4445 3.72166 12.4445 4.48018C12.0652 4.48018 11.686 4.48018 11.3067 4.48018C11.3067 5.23869 11.3067 5.99722 11.3067 6.75573C11.8164 6.82335 12.2905 6.96557 12.7289 7.1824C11.6933 7.40384 10.674 7.68828 9.67114 8.03573C8.31506 11.3698 7.05875 14.7357 5.90226 18.1335C6.56596 17.9913 7.22966 17.8491 7.89337 17.7068C7.5726 17.9742 7.19334 18.1164 6.75559 18.1335C6.75559 19.2713 6.75559 20.4091 6.75559 21.5468C6.37633 21.5468 5.99708 21.5468 5.61781 21.5468C5.61781 22.6846 5.61781 23.8224 5.61781 24.9602C5.23855 24.9602 4.8593 24.9602 4.48003 24.9602C4.51068 25.4663 4.46328 25.9641 4.33781 26.4535C4.41976 26.6973 4.58569 26.8633 4.83559 26.9513C4.90425 27.0861 4.92796 27.2283 4.9067 27.378C3.72523 26.3956 2.77708 25.2105 2.06226 23.8224C2.13672 22.0044 2.18414 20.1081 2.20448 18.1335C2.58374 18.1335 2.96299 18.1335 3.34226 18.1335C3.34226 16.9957 3.34226 15.858 3.34226 14.7202C3.72152 14.7202 4.10077 14.7202 4.48003 14.7202C4.48003 13.5824 4.48003 12.4446 4.48003 11.3068C4.8593 11.3068 5.23855 11.3068 5.61781 11.3068C5.61781 10.1691 5.61781 9.03129 5.61781 7.89351C5.99708 7.89351 6.37633 7.89351 6.75559 7.89351C6.75559 6.75573 6.75559 5.61796 6.75559 4.48018C7.13485 4.48018 7.5141 4.48018 7.89337 4.48018C7.89337 4.00611 7.89337 3.53203 7.89337 3.05796C6.44849 3.27317 6.44849 3.10724 7.89337 2.56018C7.73719 2.45071 7.73719 2.3322 7.89337 2.20462C9.93519 0.813271 12.2108 0.10216 14.72 0.0712891Z" fill="#2B0349"/>
<path fill-rule="evenodd" clip-rule="evenodd" d="M14.72 0.0709332C14.72 0.0235258 14.72 -0.0238817 14.72 -0.0712891C15.4784 -0.0712891 16.2371 -0.0712891 16.9955 -0.0712891C17.7268 0.0918545 18.4853 0.210374 19.2711 0.284267C19.4014 0.323864 19.4961 0.394975 19.5555 0.4976C19.0563 0.473712 18.5586 0.426304 18.0622 0.355378C17.6829 0.450193 17.3037 0.545007 16.9244 0.639822C16.4979 0.642541 16.095 0.547727 15.7155 0.355378C14.9582 0.692464 15.0056 0.882093 15.8578 0.924267C15.8578 2.10945 15.8578 3.29464 15.8578 4.47982C15.7155 4.47982 15.5733 4.47982 15.4311 4.47982C15.4311 4.85909 15.4311 5.23834 15.4311 5.6176C15.1894 5.59482 14.9524 5.61852 14.72 5.68871C15.2606 5.81533 15.7819 5.98126 16.2844 6.18649C15.1074 6.48314 13.9222 6.81498 12.7289 7.18204C12.2904 6.96521 11.8164 6.82299 11.3066 6.75538C11.3066 5.99686 11.3066 5.23834 11.3066 4.47982C11.6859 4.47982 12.0652 4.47982 12.4444 4.47982C12.4444 3.72131 12.4444 2.96278 12.4444 2.20427C12.8237 2.20427 13.2029 2.20427 13.5822 2.20427C13.5822 1.7302 13.5822 1.25612 13.5822 0.782044C13.9644 0.805382 14.3437 0.781677 14.72 0.710933C14.1453 0.686263 13.5764 0.615152 13.0133 0.4976C13.7871 0.401886 14.356 0.259663 14.72 0.0709332Z" fill="#370452"/>
<path fill-rule="evenodd" clip-rule="evenodd" d="M21.1201 0.924093C22.1827 1.13447 23.1309 1.56113 23.9645 2.20409C23.6549 2.19185 23.3704 2.09703 23.1112 1.91965C22.891 2.26417 22.6541 2.26417 22.4001 1.91965C22.0391 2.31921 21.8969 2.79328 21.9734 3.34187C21.7363 3.34187 21.4994 3.34187 21.2623 3.34187C21.3571 4.10038 21.4519 4.85891 21.5467 5.61743C21.3096 5.61743 21.0727 5.61743 20.8356 5.61743C20.8356 5.99669 20.8356 6.37594 20.8356 6.7552C20.5937 6.82151 20.3804 6.82151 20.1956 6.7552C20.1719 6.82632 20.1483 6.89743 20.1245 6.96854C20.432 8.07284 20.4793 9.18691 20.2667 10.3108C20.5641 10.3366 20.8486 10.2892 21.1201 10.1685C21.257 10.2354 21.257 10.3302 21.1201 10.453C20.8356 10.453 20.5512 10.453 20.2667 10.453C19.7906 9.97634 19.3639 9.45485 18.9867 8.88854C18.9579 8.6689 18.863 8.47926 18.7023 8.31965C18.8948 8.12704 19.0846 7.9374 19.2712 7.75076C19.4194 7.93438 19.5852 7.93438 19.7689 7.75076C19.7294 7.23316 19.7294 6.71167 19.7689 6.18632C19.8564 5.95647 19.9986 5.76683 20.1956 5.61743C20.2653 5.4335 20.2891 5.24387 20.2667 5.04854C19.6968 5.12017 19.128 5.14387 18.5601 5.11965C19.3672 5.05364 19.4145 4.95884 18.7023 4.8352C18.9702 4.80444 19.2073 4.70962 19.4134 4.55076C19.3219 4.16022 19.2746 3.75724 19.2712 3.34187C19.367 2.5806 19.4619 1.82208 19.5556 1.06632C19.7509 1.0886 19.9406 1.06489 20.1245 0.995204C19.8291 0.967867 19.5447 0.896756 19.2712 0.781871C19.366 0.734464 19.4608 0.687055 19.5556 0.639648C20.066 0.802921 20.5876 0.897736 21.1201 0.924093Z" fill="#480461"/>
<path fill-rule="evenodd" clip-rule="evenodd" d="M23.9644 2.20437C24.6794 2.51489 25.343 2.91787 25.9555 3.41326C26.7868 4.17355 27.5928 4.95577 28.3733 5.75992C29.017 6.66882 29.5859 7.61697 30.08 8.60437C29.9166 8.64577 29.8217 8.76428 29.7955 8.95992C29.8614 9.29975 29.9562 9.63161 30.08 9.95548C30.0326 10.0266 29.9851 10.0977 29.9377 10.1688C29.6786 9.65651 29.5364 9.65651 29.5111 10.1688C29.2266 10.1688 28.9422 10.1688 28.6577 10.1688C28.4694 11.2969 28.3746 12.4347 28.3733 13.5821C28.0889 13.5821 27.8044 13.5821 27.52 13.5821C27.3317 14.7103 27.2368 15.848 27.2355 16.9955C26.9511 16.9955 26.6666 16.9955 26.3822 16.9955C26.4542 17.6575 26.2646 18.2264 25.8133 18.7021C25.9907 18.9614 26.0855 19.2459 26.0977 19.5555C25.2185 17.8488 24.0096 17.5644 22.4711 18.7021C22.0921 19.8184 21.4521 20.7429 20.5511 21.4755C19.7731 21.8366 18.9671 21.9077 18.1333 21.6888C19.9816 19.6509 21.8779 17.6598 23.8222 15.7155C24.5501 14.9799 24.7634 14.1265 24.4622 13.1555C23.9357 12.605 23.3904 12.0835 22.8266 11.591C22.8389 11.4494 22.7914 11.3309 22.6844 11.2355C22.1066 11.0414 21.5852 10.7807 21.12 10.4533C21.2569 10.3304 21.2569 10.2356 21.12 10.1688C20.8485 10.2894 20.564 10.3369 20.2666 10.311C20.4793 9.18718 20.4319 8.07311 20.1244 6.96881C20.1482 6.8977 20.1718 6.82659 20.1955 6.75548C20.3803 6.82178 20.5936 6.82178 20.8355 6.75548C20.8355 6.37621 20.8355 5.99696 20.8355 5.6177C21.0726 5.6177 21.3095 5.6177 21.5466 5.6177C21.4518 4.85919 21.3571 4.10066 21.2622 3.34214C21.4993 3.34214 21.7362 3.34214 21.9733 3.34214C21.8968 2.79355 22.039 2.31948 22.4 1.91992C22.654 2.26444 22.8909 2.26444 23.1111 1.91992C23.3703 2.0973 23.6548 2.19212 23.9644 2.20437Z" fill="#500469"/>
<path fill-rule="evenodd" clip-rule="evenodd" d="M7.8934 2.2041C7.73723 2.33167 7.73723 2.45019 7.8934 2.55966C6.44852 3.10671 6.44852 3.27265 7.8934 3.05743C7.8934 3.5315 7.8934 4.00559 7.8934 4.47966C7.51414 4.47966 7.13489 4.47966 6.75562 4.47966C6.75562 5.61743 6.75562 6.75521 6.75562 7.89299C6.37636 7.89299 5.99711 7.89299 5.61784 7.89299C5.61784 9.03077 5.61784 10.1685 5.61784 11.3063C5.23858 11.3063 4.85933 11.3063 4.48007 11.3063C4.48007 12.4441 4.48007 13.5819 4.48007 14.7197C4.1008 14.7197 3.72155 14.7197 3.34229 14.7197C3.34229 15.8574 3.34229 16.9952 3.34229 18.133C2.96302 18.133 2.58377 18.133 2.20451 18.133C2.18417 20.1076 2.13676 22.0039 2.06229 23.8219C0.911267 21.6827 0.200156 19.4072 -0.0710449 16.9952C-0.0710449 16.0945 -0.0710449 15.1937 -0.0710449 14.293C0.128284 13.0033 0.436432 11.7233 0.8534 10.453C2.21424 6.8419 4.56091 4.09226 7.8934 2.2041Z" fill="#250342"/>
<path fill-rule="evenodd" clip-rule="evenodd" d="M19.2712 7.03967C19.1041 7.24928 18.9619 7.48631 18.8446 7.75079C18.4594 7.47549 18.0328 7.40437 17.5646 7.53745C13.4551 9.41878 10.3025 12.3343 8.10679 16.2841C7.97947 16.706 8.05058 17.0853 8.32012 17.4219C8.16345 17.518 8.02123 17.6128 7.89345 17.7063C7.22975 17.8486 6.56605 17.9908 5.90234 18.133C7.05884 14.7352 8.31514 11.3693 9.67123 8.03523C10.6741 7.68778 11.6934 7.40334 12.729 7.1819C13.9223 6.81484 15.1075 6.48299 16.2846 6.18634C17.3723 5.90296 18.4627 5.61852 19.5557 5.33301C19.6505 5.38041 19.7453 5.42783 19.8401 5.47523C19.5935 5.9783 19.4038 6.49978 19.2712 7.03967Z" fill="#F8F6F9"/>
<path fill-rule="evenodd" clip-rule="evenodd" d="M18.9867 8.88885C19.3639 9.45516 19.7906 9.97665 20.2667 10.4533C20.2789 10.5949 20.2314 10.7134 20.1245 10.8088C16.2255 12.6392 13.1915 15.4126 11.0223 19.1288C10.9512 19.1762 10.88 19.2237 10.8089 19.2711C10.6651 19.192 10.5466 19.0973 10.4534 18.9866C10.0286 18.3727 9.55458 17.8038 9.03116 17.28C8.89241 17.0929 8.75018 16.9034 8.60449 16.7111C10.6976 12.888 13.7316 10.0672 17.7067 8.24885C17.8963 8.15403 18.086 8.15403 18.2756 8.24885C18.4942 8.49167 18.7313 8.705 18.9867 8.88885Z" fill="#FAF9FB"/>
<path fill-rule="evenodd" clip-rule="evenodd" d="M30.0801 8.60449C30.9797 10.1171 31.5485 11.7763 31.7868 13.5823C31.567 13.4785 31.4486 13.2889 31.4312 13.0134C31.3839 13.2978 31.3364 13.5823 31.289 13.8667C31.2301 13.8017 31.159 13.7543 31.0757 13.7245C30.9684 13.2818 30.9211 12.8551 30.9334 12.4445C30.7941 12.8123 30.7467 13.1916 30.7912 13.5823C30.3645 13.5823 29.9379 13.5823 29.5112 13.5823C29.5112 14.72 29.5112 15.8578 29.5112 16.9956C29.1319 16.9956 28.7527 16.9956 28.3734 16.9956C28.3734 18.1334 28.3734 19.2712 28.3734 20.4089C27.9941 20.4089 27.615 20.4089 27.2357 20.4089C27.2357 21.5467 27.2357 22.6845 27.2357 23.8223C26.8564 23.8223 26.4772 23.8223 26.0979 23.8223C26.0743 25.0558 26.0979 26.2884 26.169 27.52C26.3128 27.6391 26.4788 27.6864 26.6668 27.6623C26.2293 28.1895 25.7079 28.6162 25.1023 28.9423C24.6555 29.044 24.2288 29.1624 23.8223 29.2978C23.9543 29.2426 24.0492 29.1478 24.1068 29.0134C23.9351 28.8285 23.8402 28.6152 23.8223 28.3734C23.5379 28.3734 23.2534 28.3734 22.969 28.3734C22.969 27.9941 22.969 27.6149 22.969 27.2356C23.2534 27.2356 23.5379 27.2356 23.8223 27.2356C23.8223 26.8563 23.8223 26.4771 23.8223 26.0978C24.0119 26.0978 24.2016 26.0978 24.3912 26.0978C24.4619 25.4921 24.3672 24.9232 24.1068 24.3912C24.2308 24.1138 24.3257 23.8294 24.3912 23.5378C25.3501 22.3786 25.919 21.0512 26.0979 19.5556C26.0857 19.246 25.9908 18.9615 25.8134 18.7023C26.2647 18.2265 26.4543 17.6576 26.3823 16.9956C26.6668 16.9956 26.9512 16.9956 27.2357 16.9956C27.2369 15.8482 27.3318 14.7104 27.5201 13.5823C27.8045 13.5823 28.089 13.5823 28.3734 13.5823C28.3747 12.4348 28.4696 11.297 28.6579 10.1689C28.9423 10.1689 29.2268 10.1689 29.5112 10.1689C29.5365 9.65664 29.6788 9.65664 29.9379 10.1689C29.9852 10.0978 30.0327 10.0267 30.0801 9.9556C29.9564 9.63173 29.8615 9.29987 29.7957 8.96005C29.8218 8.76441 29.9167 8.64589 30.0801 8.60449Z" fill="#5C0472"/>
<path fill-rule="evenodd" clip-rule="evenodd" d="M19.2711 7.04004C19.2711 7.27708 19.2711 7.51411 19.2711 7.75115C19.0845 7.93779 18.8948 8.12743 18.7022 8.32004C18.8629 8.47966 18.9578 8.66929 18.9866 8.88893C18.7312 8.70508 18.4941 8.49174 18.2755 8.24893C18.086 8.15411 17.8962 8.15411 17.7066 8.24893C13.7316 10.0673 10.6975 12.888 8.60442 16.7112C8.75011 16.9034 8.89234 17.093 9.03109 17.28C8.84146 17.28 8.65182 17.28 8.4622 17.28C8.49131 17.7758 8.30169 17.918 7.89331 17.7067C8.02108 17.6131 8.16331 17.5184 8.31998 17.4223C8.05044 17.0856 7.97933 16.7063 8.10664 16.2845C10.3024 12.3347 13.455 9.41915 17.5644 7.53782C18.0326 7.40474 18.4593 7.47585 18.8444 7.75115C18.9618 7.48667 19.104 7.24965 19.2711 7.04004Z" fill="#3D1056"/>
<path fill-rule="evenodd" clip-rule="evenodd" d="M22.8267 11.5913C23.3904 12.0839 23.9357 12.6053 24.4622 13.1558C24.7634 14.1268 24.5501 14.9802 23.8222 15.7158C21.8779 17.6601 19.9816 19.6512 18.1333 21.6891C18.9672 21.908 19.7732 21.8369 20.5511 21.4758C21.4521 20.7432 22.0921 19.8188 22.4711 18.7025C24.0097 17.5647 25.2186 17.8491 26.0978 19.5558C25.9189 21.0514 25.35 22.3788 24.3911 23.538C22.0874 25.8919 19.3377 26.603 16.1422 25.6714C15.7722 25.4437 15.3691 25.2539 14.9333 25.1025C14.3566 25.4657 13.9062 25.9397 13.5822 26.5247C12.699 25.7363 11.8457 24.883 11.0222 23.9647C11.4489 23.4907 11.8756 23.0165 12.3022 22.5425C11.8165 21.6991 11.5558 20.7982 11.52 19.8402C13.762 15.7491 17.0331 12.8098 21.3333 11.0225C21.829 11.227 22.3268 11.4166 22.8267 11.5913Z" fill="#FCFAFC"/>
<path fill-rule="evenodd" clip-rule="evenodd" d="M31.7866 13.5821C31.7485 13.8095 31.796 13.9992 31.9288 14.151C31.9288 15.2414 31.9288 16.3317 31.9288 17.4221C31.783 17.9162 31.6882 18.4376 31.6444 18.9866C31.464 19.3286 31.3692 19.7079 31.3599 20.1243C30.5469 23.1295 28.9824 25.642 26.6666 27.6621C26.4786 27.6863 26.3126 27.6389 26.1688 27.5199C26.0977 26.2882 26.0741 25.0556 26.0977 23.8221C26.477 23.8221 26.8562 23.8221 27.2355 23.8221C27.2355 22.6843 27.2355 21.5466 27.2355 20.4088C27.6148 20.4088 27.994 20.4088 28.3733 20.4088C28.3733 19.271 28.3733 18.1332 28.3733 16.9954C28.7526 16.9954 29.1317 16.9954 29.511 16.9954C29.511 15.8577 29.511 14.7199 29.511 13.5821C29.9377 13.5821 30.3644 13.5821 30.791 13.5821C30.7465 13.1914 30.7939 12.8122 30.9333 12.4443C30.9209 12.855 30.9683 13.2816 31.0755 13.7243C31.1588 13.7541 31.2299 13.8015 31.2888 13.8666C31.3362 13.5821 31.3837 13.2977 31.431 13.0132C31.4484 13.2887 31.5669 13.4783 31.7866 13.5821Z" fill="#67057C"/>
<path fill-rule="evenodd" clip-rule="evenodd" d="M17.4222 14.862C18.0926 14.8155 18.7562 14.863 19.4133 15.0042C18.1954 16.4361 16.8917 17.8108 15.5022 19.1287C15.0968 17.2371 15.7368 15.8149 17.4222 14.862Z" fill="#4D0E64"/>
<path fill-rule="evenodd" clip-rule="evenodd" d="M9.03122 17.2803C9.55464 17.8041 10.0287 18.373 10.4534 18.9869C10.4177 19.2245 10.3229 19.4378 10.169 19.6269C10.349 19.6709 10.515 19.742 10.6668 19.8403C11.0195 19.2283 11.2328 19.2757 11.3068 19.9825C11.2084 20.3225 11.0662 20.3225 10.8801 19.9825C10.6905 20.0299 10.5008 20.0774 10.3112 20.1247C10.1808 20.5881 10.1333 21.0621 10.169 21.5469C10.0268 21.5469 9.88456 21.5469 9.74234 21.5469C9.74234 21.9262 9.74234 22.3054 9.74234 22.6847C9.60011 22.6847 9.45789 22.6847 9.31567 22.6847C9.22085 23.4432 9.12604 24.2018 9.03122 24.9603C8.889 24.9603 8.74678 24.9603 8.60456 24.9603C8.60456 25.3396 8.60456 25.7187 8.60456 26.0981C8.46234 26.0981 8.32011 26.0981 8.17789 26.0981C8.08557 26.9054 7.96705 27.7113 7.82234 28.5158C7.72605 28.8272 7.56012 28.8745 7.32456 28.6581C7.18234 28.7292 7.04011 28.8003 6.89789 28.8714C7.18234 28.9662 7.46678 29.061 7.75122 29.1558C7.70382 29.2032 7.6564 29.2507 7.609 29.2981C7.73423 29.3987 7.82905 29.5174 7.89345 29.6536C6.73543 29.1123 5.73987 28.3538 4.90678 27.3781C4.92804 27.2284 4.90433 27.0862 4.83567 26.9514C4.58577 26.8633 4.41984 26.6974 4.33789 26.4536C4.46336 25.9642 4.51076 25.4664 4.48011 24.9603C4.85938 24.9603 5.23863 24.9603 5.61789 24.9603C5.61789 23.8225 5.61789 22.6847 5.61789 21.5469C5.99715 21.5469 6.3764 21.5469 6.75567 21.5469C6.75567 20.4092 6.75567 19.2714 6.75567 18.1336C7.19341 18.1165 7.57268 17.9743 7.89345 17.7069C8.30182 17.9183 8.49145 17.7761 8.46234 17.2803C8.65196 17.2803 8.8416 17.2803 9.03122 17.2803Z" fill="#360352"/>
<path fill-rule="evenodd" clip-rule="evenodd" d="M20.2666 10.4531C20.551 10.4531 20.8355 10.4531 21.1199 10.4531C21.5851 10.7805 22.1065 11.0413 22.6844 11.2353C22.7913 11.3307 22.8388 11.4493 22.8266 11.5909C22.3267 11.4162 21.8289 11.2266 21.3333 11.022C17.033 12.8093 13.7619 15.7486 11.5199 19.8398C11.5557 20.7978 11.8165 21.6986 12.3021 22.542C11.8755 23.016 11.4488 23.4902 11.0221 23.9642C11.8456 24.8826 12.6989 25.7359 13.5821 26.5242C13.5379 26.6633 13.4431 26.7582 13.2977 26.8087C13.0557 26.4227 12.7475 26.0909 12.3733 25.8131C12.0787 26.2278 11.8891 26.1803 11.8044 25.6709C11.6621 25.8131 11.5199 25.9553 11.3777 26.0976C11.3067 26.8546 11.283 27.6131 11.3066 28.3731C11.0221 28.3731 10.7377 28.3731 10.4533 28.3731C10.4394 29.1947 10.3446 30.0006 10.1688 30.7909C9.3115 30.5944 8.55299 30.2152 7.89326 29.6531C7.82886 29.5169 7.73404 29.3983 7.60882 29.2976C7.65622 29.2502 7.70364 29.2027 7.75104 29.1553C7.46659 29.0605 7.18215 28.9658 6.89771 28.8709C7.03993 28.7998 7.18215 28.7287 7.32437 28.6576C7.55993 28.874 7.72587 28.8267 7.82215 28.5153C7.96686 27.7108 8.08539 26.905 8.17771 26.0976C8.31993 26.0976 8.46215 26.0976 8.60437 26.0976C8.60437 25.7183 8.60437 25.3391 8.60437 24.9598C8.74659 24.9598 8.88882 24.9598 9.03104 24.9598C9.12586 24.2013 9.22066 23.4427 9.31548 22.6842C9.45771 22.6842 9.59993 22.6842 9.74215 22.6842C9.74215 22.3049 9.74215 21.9258 9.74215 21.5465C9.88437 21.5465 10.0266 21.5465 10.1688 21.5465C10.1332 21.0616 10.1806 20.5876 10.311 20.1242C10.5007 20.0769 10.6903 20.0294 10.8799 19.982C11.066 20.3221 11.2083 20.3221 11.3066 19.982C11.2327 19.2752 11.0193 19.2278 10.6666 19.8398C10.5148 19.7415 10.3489 19.6704 10.1688 19.6265C10.3227 19.4373 10.4175 19.224 10.4533 18.9865C10.5465 19.0971 10.665 19.1918 10.8088 19.2709C10.8799 19.2235 10.951 19.176 11.0221 19.1287C13.1913 15.4124 16.2253 12.639 20.1244 10.8087C20.2313 10.7133 20.2788 10.5948 20.2666 10.4531Z" fill="#41075A"/>
<path fill-rule="evenodd" clip-rule="evenodd" d="M24.391 23.5381C24.3255 23.8296 24.2306 24.1141 24.1066 24.3914C24.367 24.9235 24.4617 25.4924 24.391 26.0981C24.2014 26.0981 24.0117 26.0981 23.8221 26.0981C23.8221 26.4774 23.8221 26.8566 23.8221 27.2359C23.5377 27.2359 23.2532 27.2359 22.9688 27.2359C22.9688 27.6152 22.9688 27.9943 22.9688 28.3736C23.2532 28.3736 23.5377 28.3736 23.8221 28.3736C23.8401 28.6154 23.9349 28.8288 24.1066 29.0136C24.049 29.148 23.9541 29.2429 23.8221 29.2981C24.2286 29.1627 24.6553 29.0442 25.1021 28.9425C24.3006 29.6201 23.3999 30.1654 22.3999 30.5781C20.6191 31.213 18.8176 31.6632 16.9955 31.9292C16.4266 31.9292 15.8577 31.9292 15.2888 31.9292C14.763 31.8508 14.2652 31.6611 13.7955 31.3603C13.2491 31.5079 12.7039 31.4843 12.1599 31.2892C12.739 31.1574 13.3079 31.0151 13.8666 30.8625C13.5315 30.8405 13.1997 30.8405 12.871 30.8625C12.8964 30.4423 12.8964 29.992 12.871 29.5114C13.1081 29.5114 13.3451 29.5114 13.5821 29.5114C13.5821 28.7529 13.5821 27.9943 13.5821 27.2359C13.9173 27.259 14.2492 27.2354 14.5777 27.1648C14.6666 26.7665 14.7614 26.3635 14.8621 25.9559C15.1304 26.0167 15.3911 26.0641 15.6444 26.0981C15.7913 26.0913 15.8386 26.0439 15.7866 25.9559C15.6348 25.8576 15.4689 25.7865 15.2888 25.7425C15.5694 25.6721 15.8538 25.6484 16.1421 25.6714C19.3376 26.6031 22.0873 25.892 24.391 23.5381Z" fill="#510469"/>
<path fill-rule="evenodd" clip-rule="evenodd" d="M16.1423 25.6714C15.854 25.6484 15.5695 25.6721 15.2889 25.7425C15.469 25.7865 15.635 25.8576 15.7867 25.9559C15.8388 26.0439 15.7914 26.0913 15.6445 26.0981C15.3912 26.0641 15.1305 26.0167 14.8623 25.9559C14.7616 26.3635 14.6667 26.7665 14.5778 27.1648C14.2493 27.2354 13.9175 27.2591 13.5823 27.2359C13.5823 27.9943 13.5823 28.753 13.5823 29.5114C13.3452 29.5114 13.1082 29.5114 12.8712 29.5114C12.8965 29.992 12.8965 30.4423 12.8712 30.8625C13.1998 30.8405 13.5316 30.8405 13.8667 30.8625C13.308 31.0151 12.7392 31.1574 12.1601 31.2892C12.7041 31.4843 13.2493 31.5079 13.7956 31.3603C14.2654 31.6611 14.7631 31.8508 15.2889 31.9292C14.9096 31.9292 14.5305 31.9292 14.1512 31.9292C12.784 31.6948 11.4566 31.3155 10.1689 30.7914C10.3447 30.0011 10.4395 29.1953 10.4534 28.3737C10.7378 28.3737 11.0223 28.3737 11.3067 28.3737C11.2831 27.6136 11.3068 26.8551 11.3778 26.0981C11.5201 25.9559 11.6623 25.8137 11.8045 25.6714C11.8892 26.1809 12.0788 26.2284 12.3734 25.8137C12.7477 26.0914 13.0558 26.4232 13.2978 26.8092C13.4432 26.7587 13.538 26.6639 13.5823 26.5248C13.9063 25.9398 14.3567 25.4658 14.9334 25.1025C15.3692 25.254 15.7722 25.4437 16.1423 25.6714Z" fill="#480661"/>
</g>
<defs>
<clipPath id="clip0_3773_805">
<rect width="32" height="32" fill="white"/>
</clipPath>
</defs>
</svg>
