<svg width="32" height="32" viewBox="0 0 32 32" fill="none" xmlns="http://www.w3.org/2000/svg">
    <rect width="32" height="32" fill="#FAFAFA" />
    <path opacity="0.939" fill-rule="evenodd" clip-rule="evenodd"
        d="M12.3238 4.16699C14.4891 4.16699 16.6544 4.16699 18.8197 4.16699C21.8075 4.21936 24.7501 4.69158 27.6474 5.58366C30.1677 6.59818 31.5834 8.45929 31.8947 11.167C32.1744 13.3015 31.8967 15.357 31.0619 17.3337C30.4853 18.4609 29.8469 19.5442 29.1465 20.5837C29.609 21.8608 30.1364 23.1108 30.7288 24.3337C31.1584 25.267 31.2138 26.2113 30.8954 27.167C30.5623 27.6115 30.118 27.8337 29.5629 27.8337C28.5865 27.6372 27.6704 27.2762 26.8146 26.7503C25.6765 26.0558 24.5382 25.3615 23.4001 24.667C20.2881 26.0043 17.0402 26.4765 13.6563 26.0837C7.81785 25.3465 3.57054 22.3743 0.914391 17.167C-0.357969 14.1875 -0.302504 11.2431 1.08095 8.33366C2.61565 6.21763 4.69766 5.02318 7.32699 4.75033C9.00992 4.48671 10.6755 4.29226 12.3238 4.16699ZM11.9907 6.83366C15.8303 6.75809 19.6612 6.89698 23.4834 7.25033C28.3672 7.63886 30.2271 10.2222 29.0632 15.0003C28.5715 16.652 27.7387 18.0965 26.5648 19.3337C26.4475 19.6301 26.3643 19.9356 26.315 20.2503C26.6193 21.5255 27.0635 22.7477 27.6474 23.917C26.4554 23.3207 25.234 22.7095 23.9831 22.0837C23.7611 22.0558 23.5389 22.0282 23.3169 22.0003C22.4169 22.2542 21.5287 22.5598 20.6519 22.917C14.5348 24.6027 9.28808 23.186 4.91186 18.667C3.24941 16.565 2.52753 14.1761 2.74656 11.5003C3.2056 9.27983 4.56591 7.97428 6.82731 7.58366C8.55471 7.20834 10.276 6.95834 11.9907 6.83366Z"
        fill="black" />
    <path opacity="0.929" fill-rule="evenodd" clip-rule="evenodd"
        d="M11.3244 10.5C13.4003 10.6057 14.1498 11.6613 13.573 13.6667C12.9421 14.4422 12.1369 14.6922 11.1579 14.4167C9.91033 13.5868 9.66049 12.5035 10.4084 11.1667C10.7102 10.9205 11.0155 10.6983 11.3244 10.5Z"
        fill="black" />
    <path opacity="0.917" fill-rule="evenodd" clip-rule="evenodd"
        d="M19.819 10.5C22.0543 10.6526 22.7482 11.7636 21.901 13.8333C21.0053 14.624 20.0337 14.7073 18.9862 14.0833C18.018 12.5977 18.2957 11.4033 19.819 10.5Z"
        fill="black" />
    <path opacity="0.9" fill-rule="evenodd" clip-rule="evenodd"
        d="M20.4853 17.3329C21.9731 17.251 22.4451 17.9177 21.9011 19.3329C21.2222 20.4939 20.1952 21.1327 18.8197 21.2496C17.7093 21.3607 16.599 21.3607 15.4885 21.2496C14.9162 20.7396 14.8607 20.184 15.3219 19.5829C16.6471 19.4039 17.9796 19.2372 19.3194 19.0829C19.5696 18.9857 19.7916 18.8468 19.9857 18.6662C20.0701 18.1792 20.2367 17.7348 20.4853 17.3329Z"
        fill="black" />
</svg>