<svg width="32" height="32" viewBox="0 0 32 32" fill="none" xmlns="http://www.w3.org/2000/svg">
    <rect width="32" height="32" fill="black" />
    <path opacity="0.984" fill-rule="evenodd" clip-rule="evenodd"
        d="M3.20001 0.800049C11.7867 0.800049 20.3733 0.800049 28.96 0.800049C28.96 3.46677 28.96 6.13333 28.96 8.80005C23.4667 8.80005 17.9733 8.80005 12.48 8.80005C12.48 10.1333 12.48 11.4668 12.48 12.8C17.76 12.8 23.04 12.8 28.32 12.8C28.3717 14.9194 28.3183 17.0261 28.16 19.12C22.9336 19.2 17.707 19.2268 12.48 19.2C12.48 20.5333 12.48 21.8668 12.48 23.2C17.9733 23.2 23.4667 23.2 28.96 23.2C28.96 25.8668 28.96 28.5333 28.96 31.2C20.3733 31.2 11.7867 31.2 3.20001 31.2C3.20001 21.0668 3.20001 10.9333 3.20001 0.800049Z"
        fill="#FAFAFA" />
</svg>