<svg width="32" height="32" viewBox="0 0 32 32" fill="none" xmlns="http://www.w3.org/2000/svg">
    <path d="M32 0H0V32H32V0Z" fill="#FAFAFA" />
    <path fill-rule="evenodd" clip-rule="evenodd"
        d="M10.7629 4.5045C17.6515 4.45473 24.5393 4.5045 31.4265 4.65387C32.1913 5.33175 32.1913 6.02884 31.4265 6.74508C24.5386 6.94425 17.6508 6.94425 10.7629 6.74508C9.98854 6.00001 9.98854 5.25315 10.7629 4.5045Z"
        fill="#EE7B31" />
    <path fill-rule="evenodd" clip-rule="evenodd"
        d="M8.36711 8.08944C11.3635 8.0397 14.3582 8.0895 17.3513 8.23881C17.7505 8.8363 17.7505 9.43379 17.3513 10.0313C14.2519 10.2799 11.1573 10.2301 8.06764 9.8819C7.66335 9.19999 7.76317 8.6025 8.36711 8.08944Z"
        fill="#EF891B" />
    <path fill-rule="evenodd" clip-rule="evenodd"
        d="M2.97652 11.3756C8.26812 11.3258 13.5588 11.3756 18.8485 11.525C19.6135 12.2412 19.6135 12.9383 18.8485 13.6162C13.5578 13.8153 8.2672 13.8153 2.97652 13.6162C2.23113 12.8891 2.23113 12.1423 2.97652 11.3756Z"
        fill="#F6C12A" />
    <path fill-rule="evenodd" clip-rule="evenodd"
        d="M10.7629 14.9606C15.2561 14.9108 19.7481 14.9606 24.2391 15.1099C24.8684 15.6276 24.9683 16.2251 24.5386 16.9024C19.8468 17.1016 15.1551 17.1016 10.4634 16.9024C10.0574 16.1812 10.1572 15.5339 10.7629 14.9606Z"
        fill="#74BC41" />
    <path fill-rule="evenodd" clip-rule="evenodd"
        d="M7.7682 18.5455C10.8643 18.4958 13.9589 18.5456 17.0518 18.6949C17.4511 19.2924 17.4511 19.8898 17.0518 20.4873C13.9573 20.6865 10.8627 20.6865 7.7682 20.4873C7.38847 19.8411 7.38847 19.1938 7.7682 18.5455Z"
        fill="#11BDD5" />
    <path fill-rule="evenodd" clip-rule="evenodd"
        d="M0.58078 21.8316C5.07396 21.7819 9.56604 21.8317 14.057 21.981C15.0916 22.5496 15.1914 23.2467 14.3565 24.0722C9.76459 24.2714 5.17267 24.2714 0.58078 24.0722C-0.193593 23.3272 -0.193593 22.5803 0.58078 21.8316Z"
        fill="#27AAE1" />
    <path fill-rule="evenodd" clip-rule="evenodd"
        d="M10.7629 25.4166C16.3539 25.3668 21.944 25.4166 27.5333 25.566C28.332 26.1635 28.332 26.761 27.5333 27.3584C21.8407 27.6073 16.1507 27.5575 10.4634 27.2091C10.0591 26.5272 10.1589 25.9297 10.7629 25.4166Z"
        fill="#1998D6" />
</svg>