<svg width="32" height="32" viewBox="0 0 32 32" fill="none" xmlns="http://www.w3.org/2000/svg">
    <g clip-path="url(#clip0_3274_1251)">
        <path opacity="0.895" fill-rule="evenodd" clip-rule="evenodd"
            d="M9.1081 -0.193359C9.62553 -0.193359 10.1428 -0.193359 10.6602 -0.193359C12.2719 0.708816 13.3067 2.06638 13.7644 3.87937C14.0911 4.8831 14.2203 5.91746 14.1524 6.9824C14.1524 7.1117 14.1524 7.24098 14.1524 7.37028C13.9315 7.93922 13.608 8.4564 13.1824 8.92179C12.8617 8.95275 12.603 9.08204 12.4063 9.30967C11.8813 9.29511 11.3639 9.23047 10.8542 9.11573C10.8542 8.98643 10.7896 8.92179 10.6602 8.92179C10.6602 8.40461 10.6602 7.88746 10.6602 7.37028C10.7248 7.37028 10.7896 7.37028 10.8542 7.37028C10.8542 7.62886 10.9836 7.75816 11.2422 7.75816C11.3924 7.88365 11.5864 7.94831 11.8243 7.9521C12.1842 7.98309 12.4428 7.85379 12.6003 7.56422C12.8405 7.23175 12.9699 6.84387 12.9884 6.40058C13.0204 5.7509 12.988 5.10444 12.8914 4.46119C12.8188 4.07499 12.6572 3.75176 12.4063 3.49149C12.4063 3.36219 12.3417 3.29755 12.2123 3.29755C12.2457 3.10524 12.1809 2.97594 12.0183 2.90967C12.0517 2.71736 11.9869 2.58806 11.8243 2.52179C11.8243 2.39249 11.7597 2.32785 11.6303 2.32785C11.5009 1.81068 11.1776 1.48745 10.6602 1.35816C10.0669 0.795099 9.54967 0.859747 9.1081 1.5521C8.66575 2.40686 8.60114 3.3119 8.91408 4.26725C8.59648 4.61948 8.30546 5.00736 8.04102 5.43088C7.98709 5.25327 7.89008 5.12397 7.75 5.043C7.61031 3.94963 7.54571 2.85064 7.55599 1.74603C7.79463 1.07791 8.18265 0.496087 8.72007 0.000580028C8.91253 0.0338562 9.04174 -0.0307904 9.1081 -0.193359ZM10.6602 1.5521C10.6602 1.68139 10.7248 1.74603 10.8542 1.74603C10.8542 1.87533 10.9188 1.93997 11.0482 1.93997C11.0482 2.06927 11.1128 2.13391 11.2422 2.13391C11.2422 2.26321 11.3068 2.32785 11.4363 2.32785C11.4363 2.45715 11.5009 2.52179 11.6303 2.52179C11.6153 2.76418 11.4859 2.92579 11.2422 3.00664C11.5461 3.155 11.8047 3.12267 12.0183 2.90967C12.1809 2.97594 12.2457 3.10524 12.2123 3.29755C11.8243 3.29755 11.4363 3.29755 11.0482 3.29755C10.4431 3.14319 9.92586 3.33713 9.49612 3.87937C9.16572 3.65436 9.0365 3.78366 9.1081 4.26725C9.04349 4.26725 8.97869 4.26725 8.91408 4.26725C8.60114 3.3119 8.66575 2.40686 9.1081 1.5521C9.07919 1.75612 9.11139 1.95006 9.2051 2.13391C9.42046 1.34239 9.90549 1.14845 10.6602 1.5521ZM10.6602 1.5521C10.6602 1.48745 10.6602 1.4228 10.6602 1.35816C11.1776 1.48745 11.5009 1.81068 11.6303 2.32785C11.5657 2.32785 11.5009 2.32785 11.4363 2.32785C11.3068 2.32785 11.2422 2.26321 11.2422 2.13391C11.1128 2.13391 11.0482 2.06927 11.0482 1.93997C10.9188 1.93997 10.8542 1.87533 10.8542 1.74603C10.7248 1.74603 10.6602 1.68139 10.6602 1.5521ZM9.49612 3.87937C9.62553 3.87937 9.75474 3.87937 9.88415 3.87937C9.69013 4.20261 9.43152 4.46119 9.1081 4.65513C9.1081 4.52583 9.1081 4.39655 9.1081 4.26725C9.30211 4.20261 9.43152 4.07331 9.49612 3.87937ZM9.1081 4.65513C9.12226 4.95125 8.99285 5.14519 8.72007 5.23694C8.70591 4.94082 8.83531 4.74688 9.1081 4.65513ZM10.8542 7.37028C10.9188 7.37028 10.9836 7.37028 11.0482 7.37028C11.0482 7.49958 11.1128 7.56422 11.2422 7.56422C11.2422 7.62886 11.2422 7.69352 11.2422 7.75816C10.9836 7.75816 10.8542 7.62886 10.8542 7.37028Z"
            fill="#00AFEF" />
        <path opacity="0.01" fill-rule="evenodd" clip-rule="evenodd"
            d="M8.13794 0C8.39646 0.129294 8.39646 0.129294 8.13794 0Z" fill="#01BDFB" />
        <path opacity="0.012" fill-rule="evenodd" clip-rule="evenodd"
            d="M7.55589 1.74588C7.3478 1.60032 7.31541 1.40638 7.45892 1.16406C7.5526 1.34792 7.58479 1.54186 7.55589 1.74588Z"
            fill="#00B5F5" />
        <path opacity="0.012" fill-rule="evenodd" clip-rule="evenodd"
            d="M7.16796 1.93945C7.38964 2.61355 7.42202 3.32467 7.26493 4.07279C7.16816 3.3646 7.13596 2.65348 7.16796 1.93945Z"
            fill="#00B1F2" />
        <path opacity="0.01" fill-rule="evenodd" clip-rule="evenodd"
            d="M11.6302 2.52148C11.6948 2.52148 11.7596 2.52148 11.8242 2.52148C11.7909 2.71379 11.8557 2.84309 12.0182 2.90936C11.8046 3.12237 11.546 3.1547 11.2422 3.00633C11.4859 2.92548 11.6153 2.76387 11.6302 2.52148Z"
            fill="#00BCFA" />
        <path opacity="0.982" fill-rule="evenodd" clip-rule="evenodd"
            d="M11.0483 3.29688C11.4363 3.29688 11.8243 3.29688 12.2124 3.29688C12.3418 3.29688 12.4064 3.36151 12.4064 3.49081C12.6572 3.75108 12.8188 4.07432 12.8914 4.46051C12.988 5.10377 13.0204 5.75023 12.9884 6.39991C12.4919 6.34141 12.0391 6.40607 11.6303 6.59384C11.194 6.70629 10.8708 6.96487 10.6602 7.3696C10.2757 7.92671 10.2111 8.50853 10.4662 9.11506C10.4203 9.36543 10.4849 9.55937 10.6602 9.69687C10.6602 9.82617 10.7249 9.89081 10.8543 9.89081C10.8543 10.1494 10.9837 10.2787 11.2423 10.2787C11.2423 10.408 11.3069 10.4726 11.4363 10.4726C12.1477 10.9898 12.859 10.9898 13.5704 10.4726C14.0231 10.408 14.2819 10.1494 14.3465 9.69687C14.5091 9.63061 14.5739 9.50131 14.5405 9.309C14.7991 8.79182 14.7991 8.27466 14.5405 7.75748C14.5739 7.56517 14.5091 7.43587 14.3465 7.3696C14.3799 7.17729 14.3151 7.04799 14.1525 6.98172C14.2204 5.91678 14.0912 4.88243 13.7645 3.87869C13.8291 3.87869 13.8939 3.87869 13.9585 3.87869C14.096 4.05401 14.29 4.11865 14.5405 4.07263C15.3746 4.54489 16.28 4.86813 17.2567 5.04233C17.3942 5.21765 17.5883 5.28229 17.8387 5.23627C17.9763 5.41159 18.1703 5.47623 18.4208 5.43021C19.0604 5.83773 19.7717 6.09633 20.5549 6.20597C20.6925 6.38129 20.8865 6.44593 21.137 6.39991C21.7929 6.86142 22.3102 7.44324 22.6891 8.14536C22.7343 8.73528 22.9283 9.25244 23.2711 9.69687C23.2251 9.94725 23.2897 10.1412 23.4651 10.2787C23.4191 10.5291 23.4837 10.723 23.6591 10.8605C23.6131 11.1109 23.6778 11.3048 23.8531 11.4423C23.8072 11.6927 23.8718 11.8866 24.0472 12.0241C24.0012 12.2745 24.0658 12.4685 24.2412 12.606C24.8416 14.7943 25.5529 16.9277 26.3753 19.006C26.5495 19.9823 26.873 20.8874 27.3454 21.7211C27.2994 21.9715 27.364 22.1654 27.5394 22.3029C27.4934 22.5533 27.558 22.7473 27.7334 22.8848C27.6874 23.1351 27.752 23.3291 27.9274 23.4666C27.9274 24.2423 27.9274 25.0181 27.9274 25.7938C27.7648 25.8602 27.7 25.9893 27.7334 26.1817C27.4606 26.2735 27.3312 26.4674 27.3454 26.7635C27.216 26.7635 27.1514 26.8281 27.1514 26.9575C26.9589 26.9241 26.8297 26.9889 26.7633 27.1514C26.6339 27.1514 26.5693 27.216 26.5693 27.3454C26.3769 27.312 26.2476 27.3768 26.1813 27.5393C25.9308 27.4933 25.7368 27.5579 25.5993 27.7332C25.3488 27.6873 25.1548 27.7519 25.0172 27.9272C24.7667 27.8812 24.5727 27.9458 24.4352 28.1211C24.1847 28.0752 23.9907 28.1397 23.8531 28.3151C23.6027 28.2691 23.4087 28.3337 23.2711 28.509C23.0771 28.509 22.8831 28.509 22.6891 28.509C21.2297 26.3365 19.613 24.2677 17.8387 22.3029C17.1273 23.2081 16.416 24.113 15.7046 25.0181C16.8048 26.6326 17.9689 28.1841 19.1968 29.6726C19.1968 29.7372 19.1968 29.802 19.1968 29.8666C18.9464 29.8206 18.7523 29.8852 18.6148 30.0605C18.3643 30.0145 18.1703 30.0791 18.0327 30.2544C16.8625 30.4932 15.763 30.8811 14.7345 31.4181C14.4841 31.3721 14.29 31.4367 14.1525 31.612C13.902 31.5661 13.708 31.6306 13.5704 31.806C12.9238 31.806 12.277 31.806 11.6303 31.806C11.4928 31.6306 11.2987 31.5661 11.0483 31.612C10.7897 31.2241 10.4662 30.9008 10.0782 30.6423C9.99439 30.4077 9.86499 30.2137 9.69018 30.0605C9.69018 29.9959 9.69018 29.9312 9.69018 29.8666C13.9849 24.5049 18.2531 19.1069 22.495 13.6726C20.9389 13.5114 19.3868 13.5437 17.8387 13.7696C14.8787 17.9562 11.7745 22.0289 8.5261 25.9878C8.4615 25.9878 8.39669 25.9878 8.33209 25.9878C8.37807 25.7374 8.31346 25.5435 8.13808 25.406C8.18406 25.1556 8.11945 24.9617 7.94406 24.8241C7.99004 24.5738 7.92544 24.3798 7.75005 24.2423C7.79603 23.992 7.73142 23.798 7.55604 23.6605C7.60202 23.4101 7.53741 23.2162 7.36202 23.0787C7.408 22.8283 7.3434 22.6344 7.16801 22.4969C7.21399 22.2465 7.14938 22.0526 6.974 21.9151C6.79977 20.9388 6.47635 20.0337 6.00393 19.1999C6.04991 18.9495 5.98531 18.7556 5.80992 18.6181C5.8559 18.3677 5.79129 18.1738 5.6159 18.0363C5.66189 17.7859 5.59728 17.592 5.42189 17.4545C5.46787 17.2041 5.40327 17.0101 5.22788 16.8726C5.27386 16.6223 5.20925 16.4283 5.03387 16.2908C5.07985 16.0404 5.01524 15.8465 4.83985 15.709C4.71762 15.021 4.52361 14.3745 4.25781 13.7696C4.25781 13.511 4.25781 13.2524 4.25781 12.9938C4.43902 12.7868 4.50382 12.5282 4.45183 12.2181C4.87167 11.7678 5.19509 11.2506 5.42189 10.6666C6.22996 9.5692 6.9414 8.40557 7.55604 7.17566C8.04107 6.59507 8.42909 5.94861 8.72011 5.23627C8.9929 5.14452 9.1223 4.95058 9.10814 4.65445C9.43156 4.46051 9.69018 4.20193 9.88419 3.87869C10.2866 3.68206 10.6746 3.48812 11.0483 3.29688ZM11.6303 6.59384C12.0391 6.40607 12.4919 6.34141 12.9884 6.39991C12.97 6.84319 12.8406 7.23107 12.6004 7.56354C12.5358 6.78778 12.471 6.78778 12.4064 7.56354C12.0183 7.56354 11.6303 7.56354 11.2423 7.56354C11.1129 7.56354 11.0483 7.4989 11.0483 7.3696C11.1565 7.11944 11.3505 6.95783 11.6303 6.88475C13.1772 6.7245 13.1772 6.62753 11.6303 6.59384ZM10.6602 7.3696C10.6602 7.88678 10.6602 8.40394 10.6602 8.92112C10.5308 8.92112 10.4662 8.98576 10.4662 9.11506C10.2111 8.50853 10.2757 7.92671 10.6602 7.3696ZM10.8543 7.3696C10.9189 7.3696 10.9837 7.3696 11.0483 7.3696C11.0483 7.4989 11.1129 7.56354 11.2423 7.56354C11.2423 7.62818 11.2423 7.69284 11.2423 7.75748C10.9837 7.75748 10.8543 7.62818 10.8543 7.3696ZM14.1525 7.95142C14.3403 8.36013 14.4051 8.81265 14.3465 9.309C14.1839 9.37527 14.1191 9.50456 14.1525 9.69687C14.0231 9.69687 13.9585 9.76151 13.9585 9.89081C13.8291 9.89081 13.7645 9.95545 13.7645 10.0848C13.635 10.0848 13.5704 10.1494 13.5704 10.2787C12.7944 10.3433 12.7944 10.408 13.5704 10.4726C12.859 10.9898 12.1477 10.9898 11.4363 10.4726C11.6404 10.5016 11.8344 10.4693 12.0183 10.3757C11.7465 10.2961 11.4879 10.1992 11.2423 10.0848C11.2423 9.95545 11.1777 9.89081 11.0483 9.89081C11.0483 9.76151 10.9837 9.69687 10.8543 9.69687C10.9354 9.55693 11.0646 9.45996 11.2423 9.40597C11.0646 9.35197 10.9354 9.255 10.8543 9.11506C11.3639 9.22979 11.8814 9.29443 12.4064 9.309C12.6031 9.08137 12.8617 8.95207 13.1824 8.92112C13.1698 9.0061 13.202 9.07076 13.2794 9.11506C13.6921 8.8021 13.9831 8.41422 14.1525 7.95142ZM14.1525 9.69687C14.2171 9.69687 14.2819 9.69687 14.3465 9.69687C14.2819 10.1494 14.0231 10.408 13.5704 10.4726C13.5704 10.408 13.5704 10.3433 13.5704 10.2787C13.6998 10.2787 13.7645 10.2141 13.7645 10.0848C13.8939 10.0848 13.9585 10.0201 13.9585 9.89081C14.0879 9.89081 14.1525 9.82617 14.1525 9.69687ZM10.8543 9.89081C10.9189 9.89081 10.9837 9.89081 11.0483 9.89081C11.1777 9.89081 11.2423 9.95545 11.2423 10.0848C11.2423 10.1494 11.2423 10.2141 11.2423 10.2787C10.9837 10.2787 10.8543 10.1494 10.8543 9.89081Z"
            fill="#05C2FE" />
        <path opacity="0.01" fill-rule="evenodd" clip-rule="evenodd"
            d="M9.49588 3.87866C9.4313 4.0726 9.30194 4.2019 9.108 4.26654C9.03644 3.78295 9.1656 3.65365 9.49588 3.87866Z"
            fill="#00BCFA" />
        <path opacity="0.012" fill-rule="evenodd" clip-rule="evenodd"
            d="M13.9584 3.88042C13.9504 3.15442 14.0798 3.12209 14.3462 3.78345C14.231 3.87349 14.1017 3.90582 13.9584 3.88042Z"
            fill="#00BBFA" />
        <path opacity="0.01" fill-rule="evenodd" clip-rule="evenodd"
            d="M14.5405 4.07257C14.6175 3.87379 14.7467 3.84146 14.9284 3.9756C14.8132 4.06565 14.6838 4.09798 14.5405 4.07257Z"
            fill="#00BDFC" />
        <path opacity="0.01" fill-rule="evenodd" clip-rule="evenodd"
            d="M15.1226 4.26789C15.1996 4.0691 15.3287 4.03677 15.5104 4.17092C15.3952 4.26096 15.2659 4.29329 15.1226 4.26789Z"
            fill="#00BDFC" />
        <path opacity="0.012" fill-rule="evenodd" clip-rule="evenodd"
            d="M7.36205 4.26758C7.57015 4.41315 7.60254 4.60709 7.45902 4.8494C7.36535 4.66554 7.33316 4.4716 7.36205 4.26758Z"
            fill="#00B4F5" />
        <path opacity="0.012" fill-rule="evenodd" clip-rule="evenodd"
            d="M17.2566 5.04328C17.3336 4.84449 17.4627 4.81216 17.6445 4.94631C17.5293 5.03635 17.3999 5.06868 17.2566 5.04328Z"
            fill="#00C2FF" />
        <path opacity="0.01" fill-rule="evenodd" clip-rule="evenodd"
            d="M7.75009 5.04297C7.62074 5.17227 7.62074 5.17227 7.75009 5.04297Z" fill="#01BCFB" />
        <path opacity="0.01" fill-rule="evenodd" clip-rule="evenodd"
            d="M17.8386 5.23664C17.9156 5.03785 18.0448 5.00552 18.2265 5.13967C18.1113 5.22971 17.9819 5.26204 17.8386 5.23664Z"
            fill="#00BDFC" />
        <path opacity="0.01" fill-rule="evenodd" clip-rule="evenodd"
            d="M18.4207 5.43C18.4976 5.23121 18.6268 5.19888 18.8085 5.33303C18.6933 5.42307 18.564 5.4554 18.4207 5.43Z"
            fill="#00BDFC" />
        <path opacity="0.01" fill-rule="evenodd" clip-rule="evenodd"
            d="M19.0027 5.62531C19.0797 5.42652 19.2088 5.39419 19.3906 5.52834C19.2754 5.61839 19.146 5.65072 19.0027 5.62531Z"
            fill="#00BEFC" />
        <path opacity="0.012" fill-rule="evenodd" clip-rule="evenodd"
            d="M20.5549 6.20734C20.6319 6.00855 20.7611 5.97622 20.9428 6.11037C20.8276 6.20042 20.6983 6.23275 20.5549 6.20734Z"
            fill="#00C2FF" />
        <path opacity="0.012" fill-rule="evenodd" clip-rule="evenodd"
            d="M21.137 6.20703C21.3955 6.33633 21.3955 6.33633 21.137 6.20703Z" fill="#00C2FF" />
        <path opacity="0.01" fill-rule="evenodd" clip-rule="evenodd"
            d="M21.5249 6.40039C21.7834 6.52969 21.7834 6.52969 21.5249 6.40039Z" fill="#01BCFB" />
        <path opacity="0.012" fill-rule="evenodd" clip-rule="evenodd"
            d="M7.556 7.17695C7.49142 7.17695 7.42664 7.17695 7.36206 7.17695C7.42664 6.65977 7.49142 6.65977 7.556 7.17695Z"
            fill="#00C0FD" />
        <path opacity="0.012" fill-rule="evenodd" clip-rule="evenodd"
            d="M7.36191 7.17578C7.23255 7.30508 7.23255 7.30508 7.36191 7.17578Z" fill="#00C2FF" />
        <path opacity="0.01" fill-rule="evenodd" clip-rule="evenodd"
            d="M14.1523 7.37109C14.2169 7.37109 14.2817 7.37109 14.3463 7.37109C14.3129 7.5634 14.3777 7.6927 14.5402 7.75897C14.5402 8.27615 14.5402 8.79331 14.5402 9.31049C14.4756 9.31049 14.4109 9.31049 14.3463 9.31049C14.4049 8.81414 14.3401 8.36162 14.1523 7.95291C14.1523 7.75897 14.1523 7.56503 14.1523 7.37109Z"
            fill="#00BEFC" />
        <path opacity="0.01" fill-rule="evenodd" clip-rule="evenodd"
            d="M22.8829 8.1457C22.8183 8.1457 22.7535 8.1457 22.689 8.1457C22.7535 7.62852 22.8183 7.62852 22.8829 8.1457Z"
            fill="#00BEFC" />
        <path opacity="0.012" fill-rule="evenodd" clip-rule="evenodd"
            d="M22.8831 8.14648C23.0819 8.2234 23.1143 8.35268 22.9801 8.53436C22.8901 8.41909 22.8577 8.28979 22.8831 8.14648Z"
            fill="#00BFFD" />
        <path opacity="0.012" fill-rule="evenodd" clip-rule="evenodd"
            d="M23.077 8.72852C23.2758 8.80543 23.3082 8.93471 23.174 9.11639C23.084 9.00112 23.0516 8.87182 23.077 8.72852Z"
            fill="#00BFFD" />
        <path opacity="0.01" fill-rule="evenodd" clip-rule="evenodd"
            d="M10.8541 9.11523C10.9352 9.25518 11.0644 9.35215 11.2421 9.40614C11.0644 9.46014 10.9352 9.55711 10.8541 9.69705C10.7895 9.69705 10.7247 9.69705 10.6601 9.69705C10.6141 9.44668 10.6787 9.25274 10.8541 9.11523Z"
            fill="#00BAF9" />
        <path opacity="0.012" fill-rule="evenodd" clip-rule="evenodd"
            d="M23.2711 9.69843C23.2457 9.55512 23.2781 9.42582 23.368 9.31055C23.5022 9.49223 23.4699 9.62151 23.2711 9.69843Z"
            fill="#00BFFD" />
        <path opacity="0.012" fill-rule="evenodd" clip-rule="evenodd"
            d="M23.4652 10.2785C23.4398 10.1352 23.4721 10.0059 23.5621 9.89062C23.6963 10.0723 23.664 10.2016 23.4652 10.2785Z"
            fill="#00BFFD" />
        <path opacity="0.012" fill-rule="evenodd" clip-rule="evenodd"
            d="M5.42172 10.6672C5.35714 10.6672 5.29237 10.6672 5.22778 10.6672C5.29237 10.15 5.35714 10.15 5.42172 10.6672Z"
            fill="#00C0FD" />
        <path opacity="0.012" fill-rule="evenodd" clip-rule="evenodd"
            d="M5.22788 10.668C5.09852 10.7973 5.09852 10.7973 5.22788 10.668Z" fill="#00C2FF" />
        <path opacity="0.012" fill-rule="evenodd" clip-rule="evenodd"
            d="M23.659 10.8605C23.6336 10.7172 23.666 10.5879 23.756 10.4727C23.8902 10.6543 23.8578 10.7836 23.659 10.8605Z"
            fill="#00BFFD" />
        <path opacity="0.012" fill-rule="evenodd" clip-rule="evenodd"
            d="M23.8531 11.4426C23.8277 11.2993 23.8601 11.17 23.9501 11.0547C24.0843 11.2364 24.0519 11.3656 23.8531 11.4426Z"
            fill="#00BFFD" />
        <path opacity="0.012" fill-rule="evenodd" clip-rule="evenodd"
            d="M24.0472 12.0246C24.0218 11.8813 24.0542 11.752 24.1442 11.6367C24.2784 11.8184 24.246 11.9477 24.0472 12.0246Z"
            fill="#00BFFD" />
        <path opacity="0.012" fill-rule="evenodd" clip-rule="evenodd"
            d="M4.45175 12.218C4.25296 12.141 4.22057 12.0118 4.35478 11.8301C4.44477 11.9454 4.47716 12.0747 4.45175 12.218Z"
            fill="#00C0FD" />
        <path opacity="0.012" fill-rule="evenodd" clip-rule="evenodd"
            d="M24.241 12.6066C24.2156 12.4633 24.248 12.334 24.338 12.2188C24.4722 12.4004 24.4398 12.5297 24.241 12.6066Z"
            fill="#00C2FF" />
        <path opacity="0.012" fill-rule="evenodd" clip-rule="evenodd"
            d="M4.2578 12.9939C4.0497 12.8484 4.01731 12.6544 4.16083 12.4121C4.2545 12.596 4.2867 12.7899 4.2578 12.9939Z"
            fill="#00C0FD" />
        <path opacity="0.01" fill-rule="evenodd" clip-rule="evenodd"
            d="M4.06371 13.7693C3.85561 13.6237 3.82322 13.4298 3.96674 13.1875C4.06041 13.3714 4.0926 13.5653 4.06371 13.7693Z"
            fill="#01BDFB" />
        <path fill-rule="evenodd" clip-rule="evenodd"
            d="M6.58594 13.7701C8.04298 13.5141 9.53047 13.5141 11.0482 13.7701C11.8491 14.8229 12.6252 15.8896 13.3764 16.9701C12.8504 18.0139 12.1714 18.9512 11.3393 19.7822C9.75107 17.7647 8.16656 15.7607 6.58594 13.7701Z"
            fill="#FBFEFF" />
        <path opacity="0.991" fill-rule="evenodd" clip-rule="evenodd"
            d="M9.6902 29.867C9.72357 29.6746 9.65877 29.5454 9.49619 29.4791C9.54217 29.2287 9.47756 29.0348 9.30218 28.8973C9.34816 28.6469 9.28355 28.453 9.10816 28.3155C9.15414 28.0651 9.08954 27.8711 8.91415 27.7336C8.78474 27.1518 8.65553 26.57 8.52612 25.9882C11.7745 22.0293 14.8787 17.9566 17.8388 13.77C19.3868 13.5441 20.9389 13.5117 22.4951 13.673C18.2532 19.1072 13.9849 24.5053 9.6902 29.867Z"
            fill="#FCFEFE" />
        <path opacity="0.012" fill-rule="evenodd" clip-rule="evenodd"
            d="M4.06372 13.7695C4.1283 13.7695 4.19308 13.7695 4.25766 13.7695C4.19308 14.8039 4.1283 14.8039 4.06372 13.7695Z"
            fill="#00BFFD" />
        <path opacity="0.012" fill-rule="evenodd" clip-rule="evenodd"
            d="M4.83969 15.709C4.8651 15.8523 4.83271 15.9816 4.74272 16.0969C4.60851 15.9152 4.6409 15.7859 4.83969 15.709Z"
            fill="#00C2FF" />
        <path opacity="0.012" fill-rule="evenodd" clip-rule="evenodd"
            d="M5.03378 16.291C5.05919 16.4343 5.0268 16.5636 4.93681 16.6789C4.80261 16.4972 4.83499 16.3679 5.03378 16.291Z"
            fill="#00C2FF" />
        <path opacity="0.01" fill-rule="evenodd" clip-rule="evenodd"
            d="M5.22787 16.873C5.25328 17.0163 5.22089 17.1456 5.1309 17.2609C4.9967 17.0792 5.02909 16.95 5.22787 16.873Z"
            fill="#00BDFC" />
        <path opacity="0.01" fill-rule="evenodd" clip-rule="evenodd"
            d="M5.42172 17.4551C5.44713 17.5984 5.41474 17.7277 5.32475 17.843C5.19055 17.6613 5.22293 17.532 5.42172 17.4551Z"
            fill="#00BDFC" />
        <path opacity="0.01" fill-rule="evenodd" clip-rule="evenodd"
            d="M5.61581 18.0371C5.64122 18.1804 5.60883 18.3097 5.51884 18.425C5.38464 18.2433 5.41702 18.114 5.61581 18.0371Z"
            fill="#00BDFC" />
        <path opacity="0.012" fill-rule="evenodd" clip-rule="evenodd"
            d="M26.5692 19.0076C26.5046 19.0076 26.4398 19.0076 26.3752 19.0076C26.4398 18.2318 26.5046 18.2318 26.5692 19.0076Z"
            fill="#00BFFC" />
        <path opacity="0.01" fill-rule="evenodd" clip-rule="evenodd"
            d="M5.8099 18.6191C5.83531 18.7624 5.80292 18.8917 5.71293 19.007C5.57873 18.8253 5.61112 18.6961 5.8099 18.6191Z"
            fill="#00BDFC" />
        <path opacity="0.01" fill-rule="evenodd" clip-rule="evenodd"
            d="M4.25766 19.9769C4.19308 19.9769 4.1283 19.9769 4.06372 19.9769C4.1283 18.9426 4.19308 18.9426 4.25766 19.9769Z"
            fill="#FEFFFE" />
        <path opacity="0.012" fill-rule="evenodd" clip-rule="evenodd"
            d="M26.5694 19.0059C26.7682 19.0828 26.8006 19.2121 26.6664 19.3937C26.5764 19.2785 26.544 19.1492 26.5694 19.0059Z"
            fill="#00BFFD" />
        <path opacity="0.01" fill-rule="evenodd" clip-rule="evenodd"
            d="M6.00375 19.2012C6.02916 19.3445 5.99677 19.4739 5.90678 19.5891C5.77258 19.4073 5.80496 19.2781 6.00375 19.2012Z"
            fill="#00BDFC" />
        <path opacity="0.012" fill-rule="evenodd" clip-rule="evenodd"
            d="M26.7633 19.5879C26.962 19.6649 26.9944 19.794 26.8602 19.9758C26.7702 19.8606 26.7379 19.7312 26.7633 19.5879Z"
            fill="#00BFFD" />
        <path opacity="0.01" fill-rule="evenodd" clip-rule="evenodd"
            d="M4.25783 19.9766C4.47679 20.3893 4.50918 20.8417 4.3548 21.3341C4.25842 20.8861 4.22622 20.4337 4.25783 19.9766Z"
            fill="#FEFFFE" />
        <path opacity="0.01" fill-rule="evenodd" clip-rule="evenodd"
            d="M6.00398 19.7832C6.20277 19.8602 6.23516 19.9894 6.10095 20.1711C6.01097 20.0559 5.97858 19.9265 6.00398 19.7832Z"
            fill="#00BDFC" />
        <path opacity="0.012" fill-rule="evenodd" clip-rule="evenodd"
            d="M26.9574 20.1699C27.1561 20.2469 27.1885 20.3761 27.0543 20.5578C26.9643 20.4426 26.9319 20.3132 26.9574 20.1699Z"
            fill="#00BFFD" />
        <path opacity="0.01" fill-rule="evenodd" clip-rule="evenodd"
            d="M6.19783 20.3633C6.39662 20.4403 6.42901 20.5694 6.2948 20.7512C6.20481 20.636 6.17243 20.5066 6.19783 20.3633Z"
            fill="#00BDFC" />
        <path opacity="0.012" fill-rule="evenodd" clip-rule="evenodd"
            d="M27.1514 20.752C27.3502 20.8289 27.3826 20.9581 27.2484 21.1398C27.1584 21.0246 27.126 20.8953 27.1514 20.752Z"
            fill="#00BFFD" />
        <path opacity="0.01" fill-rule="evenodd" clip-rule="evenodd"
            d="M6.39192 20.9453C6.59071 21.0223 6.6231 21.1515 6.48889 21.3332C6.39891 21.218 6.36652 21.0886 6.39192 20.9453Z"
            fill="#00BDFC" />
        <path opacity="0.012" fill-rule="evenodd" clip-rule="evenodd"
            d="M27.3453 21.7219C27.3199 21.5785 27.3523 21.4492 27.4423 21.334C27.5765 21.5157 27.5441 21.6449 27.3453 21.7219Z"
            fill="#00BFFD" />
        <path opacity="0.01" fill-rule="evenodd" clip-rule="evenodd"
            d="M6.77988 21.9152C6.58109 21.8382 6.5487 21.7091 6.68291 21.5273C6.77289 21.6425 6.80528 21.7719 6.77988 21.9152Z"
            fill="#00BDFC" />
        <path opacity="0.012" fill-rule="evenodd" clip-rule="evenodd"
            d="M6.77996 21.916C6.84454 21.916 6.90931 21.916 6.9739 21.916C6.9739 22.11 6.9739 22.3039 6.9739 22.4978C6.79857 22.3603 6.73399 22.1664 6.77996 21.916Z"
            fill="#00BFFC" />
        <path opacity="0.012" fill-rule="evenodd" clip-rule="evenodd"
            d="M27.5394 22.3039C27.514 22.1606 27.5464 22.0312 27.6364 21.916C27.7706 22.0977 27.7382 22.2269 27.5394 22.3039Z"
            fill="#00BFFD" />
        <path opacity="0.985" fill-rule="evenodd" clip-rule="evenodd"
            d="M22.6891 28.5088C22.6891 28.5734 22.6891 28.6382 22.6891 28.7027C22.4386 28.6568 22.2446 28.7214 22.107 28.8967C21.8566 28.8507 21.6625 28.9153 21.525 29.0906C21.2745 29.0446 21.0805 29.1092 20.9429 29.2846C20.6925 29.2386 20.4985 29.3032 20.3609 29.4785C20.1104 29.4325 19.9164 29.4971 19.7789 29.6724C19.5849 29.6724 19.3908 29.6724 19.1968 29.6724C17.9689 28.1839 16.8048 26.6324 15.7046 25.0179C16.416 24.1128 17.1273 23.2078 17.8387 22.3027C19.613 24.2675 21.2297 26.3363 22.6891 28.5088Z"
            fill="#FCFEFE" />
        <path opacity="0.012" fill-rule="evenodd" clip-rule="evenodd"
            d="M6.97405 22.498C7.03863 22.498 7.10341 22.498 7.16799 22.498C7.16799 22.692 7.16799 22.8859 7.16799 23.0799C6.99267 22.9424 6.92808 22.7484 6.97405 22.498Z"
            fill="#00BFFC" />
        <path opacity="0.012" fill-rule="evenodd" clip-rule="evenodd"
            d="M27.9273 22.498C27.9273 22.6274 27.9273 22.7566 27.9273 22.8859C27.8627 22.8859 27.7979 22.8859 27.7334 22.8859C27.7 22.6935 27.7648 22.5644 27.9273 22.498Z"
            fill="#00BFFD" />
        <path opacity="0.012" fill-rule="evenodd" clip-rule="evenodd"
            d="M7.1679 23.0801C7.23248 23.0801 7.29725 23.0801 7.36184 23.0801C7.36184 23.274 7.36184 23.468 7.36184 23.6619C7.18651 23.5244 7.12193 23.3305 7.1679 23.0801Z"
            fill="#00BFFC" />
        <path opacity="0.012" fill-rule="evenodd" clip-rule="evenodd"
            d="M7.36199 23.6621C7.42657 23.6621 7.49135 23.6621 7.55593 23.6621C7.55593 23.856 7.55593 24.05 7.55593 24.2439C7.38061 24.1064 7.31602 23.9125 7.36199 23.6621Z"
            fill="#00BFFC" />
        <path opacity="0.012" fill-rule="evenodd" clip-rule="evenodd"
            d="M7.55608 24.2422C7.62066 24.2422 7.68544 24.2422 7.75002 24.2422C7.75002 24.4361 7.75002 24.6301 7.75002 24.824C7.5747 24.6865 7.51012 24.4926 7.55608 24.2422Z"
            fill="#00BFFC" />
        <path opacity="0.012" fill-rule="evenodd" clip-rule="evenodd"
            d="M7.74993 24.8242C7.81451 24.8242 7.87928 24.8242 7.94387 24.8242C7.94387 25.0182 7.94387 25.2121 7.94387 25.406C7.76855 25.2685 7.70396 25.0746 7.74993 24.8242Z"
            fill="#00BFFC" />
        <path opacity="0.012" fill-rule="evenodd" clip-rule="evenodd"
            d="M7.94402 25.4062C8.0086 25.4062 8.07338 25.4062 8.13796 25.4062C8.13796 25.6002 8.13796 25.7941 8.13796 25.9881C7.96264 25.8506 7.89806 25.6566 7.94402 25.4062Z"
            fill="#00BFFC" />
        <path opacity="0.01" fill-rule="evenodd" clip-rule="evenodd"
            d="M8.13794 25.9883C8.20252 25.9883 8.2673 25.9883 8.33188 25.9883C8.2673 26.764 8.20252 26.764 8.13794 25.9883Z"
            fill="#F1FBFF" />
        <path opacity="0.012" fill-rule="evenodd" clip-rule="evenodd"
            d="M27.7334 26.1816C27.798 26.1816 27.8628 26.1816 27.9273 26.1816C27.9273 26.2462 27.9273 26.311 27.9273 26.3756C27.8628 26.311 27.798 26.2462 27.7334 26.1816Z"
            fill="#00C2FF" />
        <path opacity="0.01" fill-rule="evenodd" clip-rule="evenodd"
            d="M27.5393 26.5703C27.7978 26.6997 27.7978 26.6997 27.5393 26.5703Z" fill="#01BDFB" />
        <path opacity="0.01" fill-rule="evenodd" clip-rule="evenodd"
            d="M27.3455 26.7637C27.41 26.7637 27.4748 26.7637 27.5394 26.7637C27.5035 26.8936 27.4387 26.8936 27.3455 26.7637Z"
            fill="#01BCFB" />
        <path opacity="0.01" fill-rule="evenodd" clip-rule="evenodd"
            d="M27.1514 26.959C27.2159 26.959 27.2807 26.959 27.3453 26.959C27.3094 27.0889 27.2447 27.0889 27.1514 26.959Z"
            fill="#01BCFB" />
        <path opacity="0.01" fill-rule="evenodd" clip-rule="evenodd"
            d="M26.7634 27.3463C26.7634 27.2817 26.7634 27.2169 26.7634 27.1523C26.8928 27.1523 27.0219 27.1523 27.1513 27.1523C27.085 27.3149 26.9558 27.3796 26.7634 27.3463Z"
            fill="#01BDFB" />
        <path opacity="0.012" fill-rule="evenodd" clip-rule="evenodd"
            d="M26.5693 27.3457C26.6339 27.3457 26.6987 27.3457 26.7633 27.3457C26.7274 27.4756 26.6626 27.4756 26.5693 27.3457Z"
            fill="#00C2FF" />
        <path opacity="0.01" fill-rule="evenodd" clip-rule="evenodd"
            d="M26.1812 27.5391C26.3105 27.5391 26.4397 27.5391 26.569 27.5391C26.4397 27.7976 26.3105 27.7976 26.1812 27.5391Z"
            fill="#00BEFC" />
        <path opacity="0.012" fill-rule="evenodd" clip-rule="evenodd"
            d="M8.91391 27.7344C8.93931 27.8777 8.90693 28.0071 8.81694 28.1223C8.68273 27.9405 8.71512 27.8114 8.91391 27.7344Z"
            fill="#FEFFFE" />
        <path opacity="0.01" fill-rule="evenodd" clip-rule="evenodd"
            d="M25.5991 27.733C25.7424 27.7076 25.8718 27.74 25.987 27.83C25.8053 27.9642 25.6761 27.9318 25.5991 27.733Z"
            fill="#00BDFC" />
        <path opacity="0.01" fill-rule="evenodd" clip-rule="evenodd"
            d="M25.0171 27.9283C25.1604 27.9029 25.2898 27.9353 25.405 28.0253C25.2232 28.1595 25.0941 28.1271 25.0171 27.9283Z"
            fill="#00BDFC" />
        <path opacity="0.012" fill-rule="evenodd" clip-rule="evenodd"
            d="M24.4351 28.1217C24.5784 28.0963 24.7077 28.1286 24.8229 28.2186C24.6412 28.3528 24.5121 28.3204 24.4351 28.1217Z"
            fill="#00C2FF" />
        <path opacity="0.012" fill-rule="evenodd" clip-rule="evenodd"
            d="M9.108 28.3164C9.13341 28.4597 9.10102 28.5891 9.01103 28.7043C8.87682 28.5226 8.90921 28.3934 9.108 28.3164Z"
            fill="#FEFFFE" />
        <path opacity="0.01" fill-rule="evenodd" clip-rule="evenodd"
            d="M23.853 28.5103C23.853 28.4458 23.853 28.381 23.853 28.3164C24.3703 28.381 24.3703 28.4458 23.853 28.5103Z"
            fill="#00BDFC" />
        <path opacity="0.012" fill-rule="evenodd" clip-rule="evenodd"
            d="M23.271 28.5098C23.465 28.5098 23.659 28.5098 23.853 28.5098C23.659 28.7683 23.465 28.7683 23.271 28.5098Z"
            fill="#00C0FD" />
        <path opacity="0.012" fill-rule="evenodd" clip-rule="evenodd"
            d="M22.689 28.8971C22.689 28.8325 22.689 28.7677 22.689 28.7031C23.2062 28.7677 23.2062 28.8325 22.689 28.8971Z"
            fill="#00BFFD" />
        <path opacity="0.01" fill-rule="evenodd" clip-rule="evenodd"
            d="M9.30209 28.8984C9.3275 29.0418 9.29511 29.1711 9.20512 29.2863C9.07092 29.1046 9.1033 28.9754 9.30209 28.8984Z"
            fill="#FEFFFE" />
        <path opacity="0.01" fill-rule="evenodd" clip-rule="evenodd"
            d="M22.1069 29.0924C22.1069 29.0278 22.1069 28.963 22.1069 28.8984C22.3009 28.8984 22.495 28.8984 22.689 28.8984C22.5514 29.0738 22.3574 29.1383 22.1069 29.0924Z"
            fill="#FEFFFE" />
        <path opacity="0.01" fill-rule="evenodd" clip-rule="evenodd"
            d="M21.5249 29.2857C21.5249 29.2212 21.5249 29.1564 21.5249 29.0918C21.7189 29.0918 21.9129 29.0918 22.1069 29.0918C21.9694 29.2671 21.7754 29.3317 21.5249 29.2857Z"
            fill="#FEFFFE" />
        <path opacity="0.01" fill-rule="evenodd" clip-rule="evenodd"
            d="M20.9429 29.4791C20.9429 29.4145 20.9429 29.3497 20.9429 29.2852C21.1369 29.2852 21.3309 29.2852 21.5249 29.2852C21.3874 29.4605 21.1933 29.5251 20.9429 29.4791Z"
            fill="#FEFFFE" />
        <path opacity="0.01" fill-rule="evenodd" clip-rule="evenodd"
            d="M20.3608 29.6725C20.3608 29.6079 20.3608 29.5431 20.3608 29.4785C20.5549 29.4785 20.7489 29.4785 20.9429 29.4785C20.8053 29.6538 20.6113 29.7184 20.3608 29.6725Z"
            fill="#FEFFFE" />
        <path opacity="0.01" fill-rule="evenodd" clip-rule="evenodd"
            d="M9.49618 29.4785C9.52159 29.6218 9.4892 29.7512 9.39921 29.8664C9.26501 29.6847 9.2974 29.5555 9.49618 29.4785Z"
            fill="#DBF6FF" />
        <path opacity="0.01" fill-rule="evenodd" clip-rule="evenodd"
            d="M19.7788 29.8678C19.7788 29.8032 19.7788 29.7384 19.7788 29.6738C19.9728 29.6738 20.1668 29.6738 20.3608 29.6738C20.2233 29.8491 20.0293 29.9137 19.7788 29.8678Z"
            fill="#FEFFFE" />
        <path opacity="0.01" fill-rule="evenodd" clip-rule="evenodd"
            d="M19.1968 30.0611C19.1968 29.9965 19.1968 29.9318 19.1968 29.8672C19.3908 29.8672 19.5848 29.8672 19.7788 29.8672C19.6413 30.0425 19.4472 30.1071 19.1968 30.0611Z"
            fill="#FEFFFE" />
        <path opacity="0.012" fill-rule="evenodd" clip-rule="evenodd"
            d="M9.69004 30.0605C9.56068 30.1899 9.56068 30.1899 9.69004 30.0605Z" fill="#00C2FF" />
        <path opacity="0.012" fill-rule="evenodd" clip-rule="evenodd"
            d="M18.6147 30.2545C18.6147 30.1899 18.6147 30.1251 18.6147 30.0605C18.8088 30.0605 19.0028 30.0605 19.1968 30.0605C19.0592 30.2359 18.8652 30.3004 18.6147 30.2545Z"
            fill="#76CFFE" />
        <path opacity="0.012" fill-rule="evenodd" clip-rule="evenodd"
            d="M18.0327 30.4498C18.0327 30.3852 18.0327 30.3204 18.0327 30.2559C18.2267 30.2559 18.4207 30.2559 18.6148 30.2559C18.4772 30.4312 18.2832 30.4958 18.0327 30.4498Z"
            fill="#00BFFC" />
        <path opacity="0.01" fill-rule="evenodd" clip-rule="evenodd"
            d="M18.0327 30.4498C17.9557 30.6486 17.8265 30.681 17.6448 30.5468C17.76 30.4568 17.8893 30.4244 18.0327 30.4498Z"
            fill="#00BEFC" />
        <path opacity="0.012" fill-rule="evenodd" clip-rule="evenodd"
            d="M10.0782 30.6426C9.94886 30.7719 9.94886 30.7719 10.0782 30.6426Z" fill="#00C2FF" />
        <path opacity="0.01" fill-rule="evenodd" clip-rule="evenodd"
            d="M17.0627 30.8363C17.1397 30.6375 17.2689 30.6051 17.4506 30.7393C17.3354 30.8293 17.2061 30.8617 17.0627 30.8363Z"
            fill="#00BDFC" />
        <path opacity="0.01" fill-rule="evenodd" clip-rule="evenodd"
            d="M16.4807 31.0316C16.5577 30.8328 16.6869 30.8004 16.8686 30.9346C16.7534 31.0246 16.624 31.057 16.4807 31.0316Z"
            fill="#00BDFC" />
        <path opacity="0.01" fill-rule="evenodd" clip-rule="evenodd"
            d="M10.0781 31.0312C10.3366 31.1606 10.3366 31.1606 10.0781 31.0312Z" fill="#01BDFB" />
        <path opacity="0.01" fill-rule="evenodd" clip-rule="evenodd"
            d="M15.8987 31.2249C15.9757 31.0262 16.1048 30.9938 16.2866 31.128C16.1714 31.218 16.042 31.2503 15.8987 31.2249Z"
            fill="#00BDFC" />
        <path opacity="0.01" fill-rule="evenodd" clip-rule="evenodd"
            d="M15.3167 31.4183C15.3936 31.2195 15.5228 31.1871 15.7045 31.3213C15.5893 31.4113 15.46 31.4437 15.3167 31.4183Z"
            fill="#00BDFC" />
        <path opacity="0.01" fill-rule="evenodd" clip-rule="evenodd"
            d="M14.7346 31.4185C14.8779 31.3931 15.0073 31.4255 15.1225 31.5155C14.9408 31.6497 14.8116 31.6173 14.7346 31.4185Z"
            fill="#00BDFC" />
        <path opacity="0.012" fill-rule="evenodd" clip-rule="evenodd"
            d="M11.0481 31.6133C11.0481 31.6779 11.0481 31.7426 11.0481 31.8072C10.9182 31.7139 10.9182 31.6492 11.0481 31.6133Z"
            fill="#00C2FF" />
        <path opacity="0.01" fill-rule="evenodd" clip-rule="evenodd"
            d="M14.1523 31.806C14.1523 31.7414 14.1523 31.6766 14.1523 31.612C14.3447 31.5787 14.4739 31.6434 14.5402 31.806C14.4109 31.806 14.2817 31.806 14.1523 31.806Z"
            fill="#00BDFC" />
    </g>
    <defs>
        <clipPath id="clip0_3274_1251">
            <rect width="32" height="32" fill="white" />
        </clipPath>
    </defs>
</svg>