<svg width="32" height="32" viewBox="0 0 32 32" fill="none" xmlns="http://www.w3.org/2000/svg">
    <g clip-path="url(#clip0_4597_58)">
        <path fill-rule="evenodd" clip-rule="evenodd"
            d="M-0.0712891 -0.0712891C10.5954 -0.0712891 21.262 -0.0712891 31.9287 -0.0712891C31.9287 10.5954 31.9287 21.262 31.9287 31.9287C21.262 31.9287 10.5954 31.9287 -0.0712891 31.9287C-0.0712891 21.262 -0.0712891 10.5954 -0.0712891 -0.0712891Z"
            fill="#FEFEFE" />
        <path fill-rule="evenodd" clip-rule="evenodd"
            d="M9.60024 12.1598C11.4971 12.1361 13.3934 12.1598 15.2891 12.2309C17.4812 12.9014 18.3583 14.3473 17.9202 16.5687C17.5256 17.0172 17.0752 17.0883 16.5691 16.782C16.3815 16.1373 16.1682 15.4973 15.9291 14.862C15.6627 14.5478 15.3546 14.2871 15.0047 14.0798C13.298 13.9849 11.5914 13.9849 9.88468 14.0798C8.30293 15.1484 8.20811 16.3337 9.60024 17.6353C10.6906 17.6827 11.781 17.7302 12.8714 17.7775C13.3868 18.0849 13.5527 18.5353 13.3691 19.1287C13.298 19.3893 13.1321 19.5553 12.8714 19.6264C11.4385 19.7577 10.0163 19.7103 8.60468 19.4842C7.06748 18.3831 6.47488 16.8898 6.82691 15.0042C7.29982 13.6069 8.22427 12.6588 9.60024 12.1598Z"
            fill="#16426E" />
        <path fill-rule="evenodd" clip-rule="evenodd"
            d="M18.8443 12.1602C20.1252 12.1366 21.4052 12.1603 22.6843 12.2313C24.6405 13.085 25.4227 14.5783 25.031 16.7113C24.6433 18.1896 23.7189 19.1614 22.2577 19.6269C20.3139 19.7218 18.3703 19.7218 16.4266 19.6269C14.3204 18.8976 13.4907 17.4518 13.9377 15.2891C14.3602 14.7783 14.8343 14.7309 15.3599 15.1469C15.3984 16.2914 15.8962 17.1683 16.8532 17.778C18.5599 17.8729 20.2666 17.8729 21.9732 17.778C23.2094 17.0867 23.5175 16.1149 22.8977 14.8625C22.6782 14.5954 22.4175 14.382 22.1155 14.2225C20.963 14.2135 19.8253 14.1186 18.7021 13.938C18.3052 13.3092 18.3527 12.7166 18.8443 12.1602Z"
            fill="#F9171C" />
    </g>
    <defs>
        <clipPath id="clip0_4597_58">
            <rect width="32" height="32" fill="white" />
        </clipPath>
    </defs>
</svg>