<svg width="32" height="32" viewBox="0 0 32 32" fill="none" xmlns="http://www.w3.org/2000/svg">
    <g clip-path="url(#clip0_4381_114)">
        <path opacity="0.875" fill-rule="evenodd" clip-rule="evenodd"
            d="M0 4.41406C2.2069 4.41406 4.41379 4.41406 6.62069 4.41406C9.41352 12.0568 11.9882 19.7809 14.3448 27.5865C12.1379 27.5865 9.93103 27.5865 7.72414 27.5865C5.3675 19.7809 2.79278 12.0568 0 4.41406Z"
            fill="#A0DCF4" />
        <path opacity="0.799" fill-rule="evenodd" clip-rule="evenodd"
            d="M8.82764 4.41406C11.0345 4.41406 13.2414 4.41406 15.4483 4.41406C17.805 12.2196 20.3796 19.9438 23.1725 27.5865C20.9656 27.5865 18.7587 27.5865 16.5518 27.5865C13.7589 19.9438 11.1843 12.2196 8.82764 4.41406Z"
            fill="#80D2F0" />
        <path opacity="0.92" fill-rule="evenodd" clip-rule="evenodd"
            d="M17.6553 4.41406C19.8622 4.41406 22.0691 4.41406 24.276 4.41406C26.6301 12.2121 29.2048 19.9362 32.0001 27.5865C29.7932 27.5865 27.5863 27.5865 25.3794 27.5865C22.5842 19.9362 20.0094 12.2121 17.6553 4.41406Z"
            fill="#40C7F3" />
    </g>
    <defs>
        <clipPath id="clip0_4381_114">
            <rect width="32" height="32" fill="white" />
        </clipPath>
    </defs>
</svg>