<svg width="32" height="32" viewBox="0 0 33 33" fill="none" xmlns="http://www.w3.org/2000/svg">
    <path opacity="0.932" fill-rule="evenodd" clip-rule="evenodd"
        d="M0.5 0.5C11.1666 0.5 21.8334 0.5 32.5 0.5C32.5 11.1667 32.5 21.8333 32.5 32.5C21.8334 32.5 11.1666 32.5 0.5 32.5C0.5 21.8333 0.5 11.1667 0.5 0.5ZM10.9186 5.59091C12.2492 5.38348 13.4895 5.6259 14.6395 6.31818C12.9978 13.2779 11.7575 20.3081 10.9186 27.4091C9.65408 27.5256 8.41375 27.4044 7.19767 27.0455C9.11782 20.0293 10.3581 12.8778 10.9186 5.59091ZM22.0814 5.59091C23.0736 5.59091 24.0659 5.59091 25.0581 5.59091C23.6573 12.8353 22.4169 20.1081 21.3372 27.4091C20.345 27.4091 19.3527 27.4091 18.3605 27.4091C19.4409 20.1041 20.6812 12.8314 22.0814 5.59091Z"
        fill="#FE7E6A" />
</svg>