<svg width="32" height="32" viewBox="0 0 32 32" fill="none" xmlns="http://www.w3.org/2000/svg">
    <path fill-rule="evenodd" clip-rule="evenodd"
        d="M20.3467 8.53764C21.4007 10.4401 22.1578 12.5997 22.6155 14.8095L16.995 18.4606L17.0058 11.9355L8.55176 17.9342C8.81141 14.6852 9.72041 11.3334 11.268 8.53802C12.0196 7.18004 14.0011 4.26953 15.8079 4.26953C17.6136 4.26915 19.5966 7.18004 20.3467 8.53764Z"
        fill="#FCB614" />
    <path fill-rule="evenodd" clip-rule="evenodd"
        d="M28.1445 0V11.2192L24.2951 13.7199C22.7941 7.37623 19.1519 2.54483 15.808 2.54483C11.53 2.54483 6.76766 10.4491 6.61572 19.3076L3.47021 21.5405V0H28.1445Z"
        fill="#FCB614" />
    <path fill-rule="evenodd" clip-rule="evenodd"
        d="M8.47217 19.8747C8.47217 19.7155 8.47332 19.5562 8.47755 19.3958L15.2336 15.4639L15.2225 21.6364L22.9883 17.1538C23.091 18.0697 23.1426 18.9814 23.1426 19.8747C23.1426 23.918 19.8601 27.1926 15.808 27.1926C11.7546 27.193 8.47217 23.918 8.47217 19.8747Z"
        fill="#071343" />
    <path fill-rule="evenodd" clip-rule="evenodd"
        d="M28.1444 14.1758V31.9995H3.46973V22.3083L6.63946 20.4634C7.00798 25.1924 10.9721 28.916 15.8078 28.916C20.8856 28.916 25.0043 24.8094 25.0043 19.7428C25.0043 18.5191 24.9151 17.3096 24.75 16.1362L28.1444 14.1758Z"
        fill="#071343" />
</svg>