<svg width="32" height="32" viewBox="0 0 32 32" fill="none" xmlns="http://www.w3.org/2000/svg">
    <g clip-path="url(#clip0_3605_254)">
        <path
            d="M14.8755 20.1777L14.8865 20.1887C14.888 20.1851 14.8894 20.1813 14.8909 20.1777H14.8755Z"
            fill="#2BCC7E" />
        <path
            d="M23.2001 11.8207H14.8758L20.762 5.91037L14.8758 0L9.6001 5.29731L12.436 8.14488C13.5139 9.2272 14.3237 10.4769 14.8656 11.8105C14.8689 11.8188 14.8724 11.8271 14.8758 11.8354C15.9526 14.5043 15.9575 17.5072 14.8908 20.1793H23.2001V11.8207Z"
            fill="#2BCC7E" />
        <path
            d="M9.6285 26.7271H9.62402L14.8757 32.0004L20.7619 26.09L14.8865 20.1904C14.3446 21.5436 13.5279 22.8117 12.4359 23.9081L9.6285 26.7271Z"
            fill="#2BCC7E" />
    </g>
    <defs>
        <clipPath id="clip0_3605_254">
            <rect width="32" height="32" fill="white" />
        </clipPath>
    </defs>
</svg>