<svg width="32" height="32" viewBox="0 0 32 33" fill="none" xmlns="http://www.w3.org/2000/svg">
    <path
        d="M13.7462 0.830543C13.2181 0.915824 12.4516 1.08639 12.0428 1.18872C11.651 1.30812 11.2593 1.42751 11.1571 1.44457C10.629 1.58102 9.36853 2.14387 9.43666 2.2121C9.47073 2.24621 9.33446 2.29738 9.11302 2.29738C8.67015 2.33149 6.59204 3.69599 5.38265 4.77053C4.37766 5.65746 2.70836 7.65304 2.81056 7.8236C2.86166 7.90888 2.77649 7.99416 2.64022 8.06239C2.50395 8.11355 2.38472 8.26706 2.38472 8.38645C2.38472 8.5229 2.26548 8.72758 2.12921 8.84697C1.78854 9.11987 1.17532 10.5185 1.14126 11.0984C1.12422 11.3372 1.05609 11.5077 0.987954 11.4736C0.834651 11.3713 0.630247 12.1047 0.613213 12.787C0.596179 13.0428 0.545078 13.2134 0.493977 13.1793C0.340674 13.094 0 15.3283 0 16.4199C0 17.0681 0.0681348 17.3751 0.221438 17.3751C0.374741 17.3751 0.374741 17.4092 0.204404 17.5286C0 17.648 0 17.9038 0.170337 18.9613C0.289573 19.6777 0.442876 20.2405 0.493977 20.1894C0.562112 20.1553 0.613213 20.377 0.630247 20.684C0.64728 21.3151 1.34566 23.3789 1.516 23.2765C1.5671 23.2424 1.63523 23.3789 1.63523 23.5836C1.68634 24.2829 3.57708 26.8925 5.04197 28.274C6.50687 29.6556 9.4026 31.5318 10.0499 31.5318C10.135 31.5318 10.4076 31.617 10.6801 31.7364C10.9356 31.8388 11.2422 31.9411 11.3274 31.9752C14.683 32.8451 16.6419 32.9474 19.0777 32.3846C21.3943 31.8388 22.3652 31.4806 21.9564 31.31C21.8202 31.2418 21.9394 31.2589 22.2119 31.31C22.4845 31.3612 22.6718 31.3441 22.6037 31.2589C22.5526 31.1736 22.6889 31.0883 22.8933 31.0883C23.1147 31.0712 23.7961 30.7301 24.4093 30.3208C25.3121 29.7238 25.5165 29.5021 25.4483 29.2292C25.3802 28.9733 25.3972 28.9392 25.5335 29.1268C25.6698 29.3315 25.806 29.2974 26.3171 28.9051C26.811 28.5299 26.8962 28.3764 26.7259 28.257C26.5385 28.1205 26.5555 28.1035 26.777 28.1887C26.9814 28.2399 27.305 28.0011 27.8501 27.4042C28.7529 26.3978 29.3661 25.5621 29.2128 25.5621C29.1446 25.5621 29.2128 25.4427 29.332 25.3062C29.8941 24.6752 29.9963 24.5216 29.8771 24.334C29.809 24.2146 29.826 24.1976 29.9452 24.2658C30.1837 24.4023 30.5584 23.5836 30.3881 23.3107C30.32 23.1913 30.354 23.1742 30.4733 23.2424C30.5925 23.3277 30.7117 23.1742 30.7799 22.799C30.848 22.492 30.8991 22.202 30.8821 22.1508C30.8821 22.0997 30.8139 21.8779 30.7628 21.6391L30.6436 21.2127L30.8991 21.6391L31.1376 22.0656L31.2568 21.5539C31.3079 21.2639 31.4272 20.8716 31.5123 20.6669C31.5975 20.4452 31.7678 19.4389 31.8871 18.3985C32.0404 16.9146 32.0404 16.1812 31.87 14.7996C31.7508 13.8615 31.5975 12.9234 31.5123 12.7187C31.4272 12.5141 31.325 12.1218 31.2568 11.8659C31.2057 11.576 31.0865 11.4395 30.9672 11.5077C30.865 11.576 30.831 11.5589 30.8821 11.4566C31.0184 11.2519 30.6777 10.0068 30.5244 10.1091C30.4562 10.1432 30.3881 9.97268 30.3711 9.7339C30.3711 9.47805 30.2689 9.25632 30.1667 9.22221C30.0645 9.1881 29.9793 9.05165 29.9793 8.9152C29.9793 8.77875 29.9112 8.67641 29.809 8.67641C29.7238 8.67641 29.6386 8.57407 29.6386 8.45468C29.6386 8.33528 29.5024 8.06239 29.349 7.84065C28.3611 6.54438 27.3731 5.41867 26.6748 4.80464C25.4483 3.7301 23.3532 2.33149 22.9103 2.29738C22.6889 2.29738 22.5526 2.24621 22.5867 2.2121C22.6548 2.12682 21.3091 1.56396 20.7811 1.42751C20.6448 1.41045 20.0657 1.25695 19.5036 1.10344C18.2771 0.762318 15.1089 0.625868 13.7462 0.830543ZM21.5817 2.12682C21.5306 2.17798 21.3773 2.19504 21.258 2.14387C21.1218 2.0927 21.1729 2.04154 21.3602 2.04154C21.5476 2.02448 21.6498 2.07565 21.5817 2.12682ZM15.6199 5.35044C15.6199 5.48689 15.5518 5.60629 15.4666 5.60629C15.2963 5.60629 15.2792 5.3675 15.4496 5.21399C15.6029 5.04343 15.6199 5.06049 15.6199 5.35044ZM16.8804 6.64672C17.3403 7.02195 17.7832 7.29485 17.8854 7.22663C17.9876 7.1584 18.0557 7.17546 18.0387 7.26074C17.9876 7.56775 18.0727 7.8236 18.226 7.8236C18.3964 7.8236 18.9585 8.25 21.5136 10.2456C22.5356 11.0643 23.0636 11.3713 23.2851 11.3031C23.5065 11.2348 23.5406 11.2519 23.3532 11.3713C23.1829 11.5077 23.1999 11.593 23.5235 11.7977C23.7279 11.9512 23.9494 12.0535 24.0005 12.0194C24.0516 11.9853 24.1027 13.5545 24.1027 15.516C24.1027 17.4774 24.0516 19.0807 23.9834 19.0807C23.8983 19.0807 23.8472 19.2172 23.8472 19.3707C23.8472 19.5924 23.8131 19.6265 23.7109 19.4559C23.5917 19.2854 22.2971 19.2513 17.6128 19.2854L11.6681 19.3366L11.7532 18.262L11.8384 17.1704L16.4886 17.1875C19.9124 17.2045 21.1218 17.1704 21.1218 17.0169C21.1218 16.8634 21.1729 16.8634 21.3602 17.0169C21.6328 17.2386 21.9053 16.9828 21.718 16.6928C21.6669 16.5905 21.7009 16.5223 21.7861 16.5223C21.9053 16.5223 21.9735 15.9253 21.9735 14.919V13.3157L20.3212 12.0535C19.4014 11.3713 18.6008 10.7402 18.5497 10.6549C18.4816 10.5697 18.3453 10.5697 18.226 10.6379C18.0898 10.7232 18.0387 10.7061 18.1068 10.6038C18.2601 10.365 17.6128 9.80212 17.3573 9.97268C17.2381 10.0409 17.187 10.0239 17.2722 9.90446C17.3233 9.81918 17.0678 9.47805 16.693 9.1881L16.0117 8.6423L15.3985 9.10282C14.9215 9.47805 14.8363 9.6145 15.0067 9.7339C15.1941 9.87035 15.177 9.8874 14.9556 9.80212C14.683 9.71684 13.644 10.4503 10.6972 12.8211L10.0499 13.3328V18.0914V22.8331L17.0848 22.8501C20.9344 22.8672 24.1538 22.8672 24.2389 22.8501C24.4433 22.816 24.3752 23.1401 24.1538 23.2254C23.9834 23.2936 24.0005 23.3618 24.1878 23.4983C24.3582 23.6177 24.3752 23.6859 24.2389 23.6859C24.1027 23.6859 24.0175 23.9247 24.0175 24.2829V24.8798L16.0798 24.9139C11.7192 24.9481 8.10804 24.9139 8.07397 24.8457C8.02287 24.7775 7.9888 21.895 8.00583 18.4496V12.1729L8.43168 11.8148C8.67015 11.6101 8.78938 11.3884 8.72125 11.3201C8.65311 11.2348 8.70422 11.2348 8.82345 11.3031C9.09599 11.4566 9.57293 11.0984 9.41963 10.8426C9.36853 10.7402 9.4026 10.7232 9.5048 10.7914C9.7603 10.9449 11.4466 9.54628 11.2933 9.30749C11.2422 9.20515 11.2763 9.1881 11.3955 9.25632C11.651 9.42688 12.7071 8.5229 12.639 8.18178C12.6049 7.94299 12.622 7.94299 12.7753 8.16472C12.9286 8.38645 13.0137 8.35234 13.3714 7.94299C13.5929 7.68715 13.8484 7.48247 13.9165 7.48247C13.9847 7.48247 14.4786 7.14135 14.9896 6.732C15.5007 6.30559 15.9606 5.96447 15.9946 5.96447C16.0287 5.94741 16.4205 6.25442 16.8804 6.64672ZM3.74741 7.20957C3.74741 7.26074 3.67928 7.34602 3.57708 7.39719C3.49191 7.44836 3.40674 7.41425 3.40674 7.32897C3.40674 7.22663 3.49191 7.14135 3.57708 7.14135C3.67928 7.14135 3.74741 7.17546 3.74741 7.20957ZM28.6166 7.31191C28.6166 7.39719 28.5825 7.48247 28.5485 7.48247C28.4974 7.48247 28.4122 7.39719 28.3611 7.31191C28.31 7.20957 28.3441 7.14135 28.4292 7.14135C28.5314 7.14135 28.6166 7.20957 28.6166 7.31191ZM19.3332 7.99416C19.2821 8.07944 19.1288 8.16472 19.0266 8.16472C18.9074 8.16472 18.9244 8.0965 19.0777 7.99416C19.4014 7.78949 19.4695 7.78949 19.3332 7.99416ZM2.86166 8.76169C2.81056 8.81286 2.70836 8.72758 2.65726 8.55702C2.55505 8.31823 2.57209 8.30117 2.74242 8.45468C2.86166 8.57407 2.91276 8.71052 2.86166 8.76169ZM10.3054 9.49511C10.2543 9.54628 10.118 9.49511 9.99878 9.37571C9.84547 9.20515 9.86251 9.1881 10.101 9.29043C10.2713 9.3416 10.3565 9.44394 10.3054 9.49511ZM30.6095 12.6335C30.5584 12.7699 30.5073 12.7187 30.5073 12.5311C30.4903 12.3435 30.5414 12.2412 30.5925 12.3094C30.6436 12.3606 30.6606 12.5141 30.6095 12.6335ZM11.5318 17.0681C11.4807 17.2045 11.4296 17.1534 11.4296 16.9657C11.4126 16.7781 11.4637 16.6758 11.5148 16.744C11.5659 16.7952 11.5829 16.9487 11.5318 17.0681ZM1.48193 20.991C1.43083 21.1275 1.37973 21.0763 1.37973 20.8887C1.3627 20.7011 1.4138 20.5987 1.4649 20.6669C1.516 20.7181 1.53303 20.8716 1.48193 20.991ZM30.6095 20.991C30.5584 21.1275 30.5073 21.0763 30.5073 20.8887C30.4903 20.7011 30.5414 20.5987 30.5925 20.6669C30.6436 20.7181 30.6606 20.8716 30.6095 20.991ZM2.74242 24.931C2.57209 25.0845 2.55505 25.0674 2.65726 24.8287C2.70836 24.6581 2.81056 24.5728 2.86166 24.624C2.91276 24.6752 2.86166 24.8116 2.74242 24.931ZM4.08809 26.6878C4.08809 26.756 3.93478 26.6707 3.74741 26.5002C3.56004 26.3296 3.40674 26.1079 3.40674 26.0226C3.40674 25.9203 3.56004 26.0055 3.74741 26.2102C3.93478 26.4149 4.08809 26.6196 4.08809 26.6878ZM28.4803 26.2784C28.3611 26.3978 28.2759 26.4149 28.2759 26.3126C28.2759 26.0738 28.4803 25.8691 28.5996 25.9885C28.6336 26.0397 28.5825 26.1761 28.4803 26.2784ZM11.2593 31.5829C11.0889 31.7364 11.0719 31.7194 11.1741 31.4806C11.2252 31.31 11.3274 31.2247 11.3785 31.2759C11.4296 31.3271 11.3785 31.4635 11.2593 31.5829ZM21.0366 31.6682C20.9855 31.7194 20.8492 31.6682 20.73 31.5488C20.5767 31.3783 20.5937 31.3612 20.8322 31.4635C21.0025 31.5147 21.0877 31.617 21.0366 31.6682ZM17.1529 32.4869C17.1018 32.5381 16.9485 32.5551 16.8293 32.504C16.693 32.4528 16.7441 32.4016 16.9315 32.4016C17.1189 32.3846 17.2211 32.4357 17.1529 32.4869Z"
        fill="#A27344" />
</svg>