<svg width="32" height="32" viewBox="0 0 32 32" fill="none" xmlns="http://www.w3.org/2000/svg">
    <path
        d="M16.1146 11.434C15.7544 10.8504 15.3281 10.319 14.8458 9.85254C14.054 11.0181 13.4912 12.3499 13.1924 13.7644H15.1081C15.3326 12.9359 15.672 12.15 16.1146 11.434Z"
        fill="#05EAA7" />
    <path
        d="M14.6458 21.8864C14.7022 21.9675 14.7586 22.0394 14.818 22.1251C15.2059 22.6514 15.6453 23.1373 16.1297 23.5756C17.8497 25.1482 20.0911 26.0211 22.4173 26.0238C25.3743 26.0129 28.1556 24.612 29.9327 22.2383C31.2109 20.5535 31.9294 18.5077 31.9863 16.3903C31.9863 16.2863 32 16.1837 32 16.0843C32 10.5928 27.7098 6.13867 22.4173 6.13867C21.1845 6.13996 19.9644 6.38754 18.8278 6.867C18.2288 7.11699 17.6571 7.42822 17.1215 7.79576C16.7724 8.03937 16.439 8.30514 16.1236 8.59142C16.6081 9.03061 17.048 9.517 17.4369 10.0435C17.4871 9.99757 17.5374 9.95165 17.5892 9.90728C18.1281 9.45294 18.7269 9.07552 19.3686 8.78573C20.3264 8.35218 21.3651 8.12842 22.4158 8.12933C26.6434 8.12933 30.0819 11.699 30.0819 16.0858C30.0819 16.1929 30.0714 16.2954 30.0667 16.401L19.4022 16.4209H17.4856H14.7601H12.8435V16.4316C12.9055 18.3868 13.5317 20.2818 14.6458 21.8864ZM17.1733 18.4115H19.1539L29.7544 18.3917C28.7991 21.6554 25.8726 24.0408 22.4173 24.0408C20.581 24.037 18.8103 23.3558 17.4414 22.1266C16.3286 21.1337 15.5134 19.8487 15.0876 18.4161L17.1733 18.4115Z"
        fill="#05EAA7" />
    <path
        d="M9.58206 25.8607C10.8133 25.8598 12.0321 25.6134 13.1677 25.1356C14.163 24.7242 15.0789 24.1413 15.8741 23.4131C15.3896 22.9749 14.9501 22.4891 14.5621 21.963L14.4097 22.0991C13.87 22.5508 13.2711 22.926 12.6298 23.2143C11.6717 23.6475 10.6329 23.8717 9.58206 23.8721C5.35334 23.8721 1.91398 20.3032 1.91398 15.9175C1.91398 15.8105 1.92464 15.708 1.92922 15.6024L12.5963 15.5825H14.5148H17.2395H19.1565V15.5718C19.0947 13.6166 18.4685 11.7215 17.3538 10.1169C17.2989 10.0358 17.241 9.9639 17.1831 9.87822C16.7942 9.35189 16.3542 8.86561 15.8695 8.42654C13.9168 6.63931 11.302 5.76467 8.67163 6.01881C6.04124 6.27295 3.64067 7.63216 2.06331 9.76044C0.78517 11.4464 0.0685654 13.4936 0.0152387 15.6116C0.0152387 15.7156 0 15.8181 0 15.9175C0 21.4077 4.2912 25.8607 9.58206 25.8607ZM9.58206 7.96302C11.4187 7.96679 13.1899 8.64784 14.559 9.8767C15.0578 10.3198 15.4986 10.8246 15.8711 11.3789C16.329 12.0568 16.6805 12.8013 16.9134 13.5862H14.8287H12.8477L2.24313 13.6061C3.20317 10.3478 6.12898 7.96302 9.58206 7.96302Z"
        fill="#2C2D71" />
    <path
        d="M16.1907 20.4534C16.5511 21.0366 16.9771 21.5679 17.4588 22.0349C18.25 20.869 18.8131 19.5374 19.1128 18.123H17.1981C16.9733 18.9516 16.6335 19.7375 16.1907 20.4534Z"
        fill="#2C2D71" />
</svg>