<svg width="32" height="32" viewBox="0 0 32 32" fill="none" xmlns="http://www.w3.org/2000/svg">
    <g clip-path="url(#clip0_3605_254)">
        <path opacity="0.948" fill-rule="evenodd" clip-rule="evenodd"
            d="M16.4039 0.251969C16.9632 3.43436 17.468 6.62597 17.9182 9.82677C17.1511 9.52937 16.478 9.10942 15.8991 8.56693C15.3664 5.96296 14.8616 3.35929 14.3848 0.755906C14.9099 0.47302 15.4567 0.221052 16.0253 0C16.2183 0.0176126 16.3445 0.101619 16.4039 0.251969Z"
            fill="#294F74" />
        <path opacity="0.96" fill-rule="evenodd" clip-rule="evenodd"
            d="M16.4038 0.251953C17.0428 0.528035 17.6317 0.86401 18.1705 1.25983C18.6988 4.44773 19.2036 7.63934 19.6849 10.8346C19.0549 10.5624 18.466 10.2264 17.9182 9.82676C17.4679 6.62595 16.9631 3.43434 16.4038 0.251953Z"
            fill="#213D5F" />
        <path opacity="0.976" fill-rule="evenodd" clip-rule="evenodd"
            d="M12.3653 2.01562C12.6739 4.11666 13.0105 6.21642 13.3748 8.31484C13.4101 8.70025 13.5784 8.95222 13.8796 9.07074C13.1651 9.55372 12.4079 9.97365 11.6081 10.3306C11.3069 10.2121 11.1386 9.96009 11.1033 9.57468C10.7195 7.47971 10.3829 5.37996 10.0938 3.27547C10.7267 2.6648 11.4839 2.24484 12.3653 2.01562Z"
            fill="#3979A5" />
        <path fill-rule="evenodd" clip-rule="evenodd"
            d="M14.3849 0.755859C14.8617 3.35925 15.3665 5.96291 15.8992 8.56688C15.8151 8.56688 15.7309 8.56688 15.6468 8.56688C15.0358 8.66218 14.4469 8.83014 13.8801 9.07082C13.5788 8.95229 13.4106 8.70033 13.3753 8.31491C13.0109 6.2165 12.6744 4.11674 12.3657 2.0157C13.0296 1.5993 13.7027 1.17934 14.3849 0.755859Z"
            fill="#30638B" />
        <path opacity="0.97" fill-rule="evenodd" clip-rule="evenodd"
            d="M10.0942 3.27539C10.3833 5.37988 10.7199 7.47964 11.1037 9.5746C11.1391 9.96001 11.3073 10.212 11.6085 10.3305C10.7255 10.8976 9.80004 11.4015 8.83222 11.8423C8.30323 9.43501 7.79845 6.99931 7.31787 4.53523C8.21214 4.04684 9.13759 3.62691 10.0942 3.27539Z"
            fill="#3B8CBE" />
        <path fill-rule="evenodd" clip-rule="evenodd"
            d="M20.9468 2.77148C21.2833 2.93947 21.6198 3.10743 21.9563 3.27542C22.4841 4.11836 22.8206 5.04222 22.9659 6.04707C23.0483 8.27684 22.9641 10.4606 22.7135 12.5983C22.5452 12.5143 22.377 12.4303 22.2087 12.3463C21.898 9.1411 21.4774 5.94949 20.9468 2.77148Z"
            fill="#15173A" />
        <path opacity="0.97" fill-rule="evenodd" clip-rule="evenodd"
            d="M7.31761 4.53516C7.79819 6.99923 8.30297 9.43494 8.83196 11.8422C8.66369 12.0102 8.49545 12.1782 8.32718 12.3462C7.38916 12.9824 6.3796 13.4863 5.29848 13.858C4.81618 13.8393 4.52172 13.5873 4.41511 13.1021C4.24936 10.9781 3.95492 8.87839 3.53174 6.80287C4.75187 5.98357 6.01383 5.22767 7.31761 4.53516Z"
            fill="#3E9ED5" />
        <path fill-rule="evenodd" clip-rule="evenodd"
            d="M21.9565 3.27539C24.221 4.65842 26.4925 6.04425 28.7711 7.43287C29.1853 7.71734 29.4377 8.0953 29.5283 8.56673C27.3577 7.67655 25.1703 6.83664 22.9661 6.04704C22.8208 5.04219 22.4843 4.11833 21.9565 3.27539Z"
            fill="#ED3E3F" />
        <path fill-rule="evenodd" clip-rule="evenodd"
            d="M22.9658 6.04688C25.17 6.83647 27.3574 7.67638 29.528 8.56656C29.8243 8.82198 29.9924 9.15793 30.0327 9.57443C27.8432 8.53753 25.5716 7.69765 23.2182 7.05475C23.2182 9.74242 23.2182 12.4301 23.2182 15.1177C23.1711 16.4644 23.0869 17.8082 22.9658 19.1492C23.0257 19.4745 22.9415 19.7265 22.7134 19.9051C22.7134 17.4694 22.7134 15.0338 22.7134 12.5981C22.964 10.4604 23.0482 8.27664 22.9658 6.04688Z"
            fill="#E74A4B" />
        <path fill-rule="evenodd" clip-rule="evenodd"
            d="M18.1704 1.25977C19.1362 1.6997 20.0617 2.20364 20.9467 2.77158C21.4773 5.94958 21.898 9.14119 22.2087 12.3464C21.3674 11.8424 20.5261 11.3385 19.6848 10.8346C19.2035 7.63928 18.6987 4.44767 18.1704 1.25977Z"
            fill="#152748" />
        <path opacity="0.97" fill-rule="evenodd" clip-rule="evenodd"
            d="M30.0328 9.57437C30.5389 12.3003 30.6232 15.072 30.2852 17.8893C27.9297 16.9654 25.5739 16.0416 23.2183 15.1177C23.2183 12.43 23.2183 9.74236 23.2183 7.05469C25.5717 7.69759 27.8433 8.53747 30.0328 9.57437Z"
            fill="#E92025" />
        <path opacity="0.739" fill-rule="evenodd" clip-rule="evenodd"
            d="M1.00781 10.0791C1.09194 10.0791 1.17607 10.0791 1.2602 10.0791C1.44232 10.1843 1.56852 10.3523 1.63879 10.583C2.01449 12.329 2.22482 14.0928 2.26977 15.8744C1.8465 16.3883 1.42585 16.8923 1.00781 17.3862C1.00781 14.9505 1.00781 12.5148 1.00781 10.0791Z"
            fill="#73ADDD" />
        <path opacity="0.318" fill-rule="evenodd" clip-rule="evenodd"
            d="M15.6465 8.56738C13.3731 9.95455 11.0174 11.2144 8.57954 12.3469C8.49542 12.3469 8.41127 12.3469 8.32715 12.3469C8.49542 12.1789 8.66366 12.011 8.83193 11.843C9.79975 11.4022 10.7252 10.8982 11.6082 10.3312C12.4081 9.97422 13.1652 9.55429 13.8798 9.07132C14.4466 8.83064 15.0355 8.66268 15.6465 8.56738Z"
            fill="#ABBFDE" />
        <path fill-rule="evenodd" clip-rule="evenodd"
            d="M3.53198 6.80273C3.95516 8.87825 4.2496 10.978 4.41535 13.1019C4.52196 13.5872 4.81642 13.8391 5.29872 13.8579C5.0061 14.2989 4.58546 14.5508 4.03676 14.6138C3.15385 12.5502 2.56493 10.3664 2.27002 8.06258C2.60654 7.55864 3.02719 7.13868 3.53198 6.80273Z"
            fill="#84B4E0" />
        <path fill-rule="evenodd" clip-rule="evenodd"
            d="M2.26995 8.06348C2.56487 10.3673 3.15378 12.5511 4.03669 14.6147C3.52401 15.1242 2.93509 15.5442 2.26995 15.8745C2.225 14.0929 2.01468 12.3292 1.63898 10.5832C1.5687 10.3524 1.44251 10.1844 1.26039 10.0792C1.19963 9.1926 1.53615 8.52067 2.26995 8.06348Z"
            fill="#B0C5E5" />
        <path fill-rule="evenodd" clip-rule="evenodd"
            d="M8.32717 12.3467C8.41129 12.3467 8.49544 12.3467 8.57956 12.3467C8.57956 12.7666 8.57956 13.1866 8.57956 13.6065C6.0482 15.4566 3.52428 17.3044 1.00781 19.1498C1.00781 18.5619 1.00781 17.974 1.00781 17.386C1.42585 16.8921 1.8465 16.3882 2.26977 15.8742C2.93491 15.5439 3.52383 15.124 4.03651 14.6144C4.58521 14.5515 5.00585 14.2995 5.29847 13.8585C6.37959 13.4868 7.38915 12.9829 8.32717 12.3467Z"
            fill="#274932" />
        <path opacity="0.989" fill-rule="evenodd" clip-rule="evenodd"
            d="M23.2182 15.1182C25.5739 16.0421 27.9296 16.9659 30.2852 17.8898C30.2852 18.9817 30.2852 20.0736 30.2852 21.1654C27.9046 20.4185 25.5911 19.4946 23.3444 18.3938C23.2858 18.7056 23.1596 18.9575 22.9658 19.1497C23.087 17.8087 23.1711 16.4648 23.2182 15.1182Z"
            fill="#CB2626" />
        <path opacity="0.947" fill-rule="evenodd" clip-rule="evenodd"
            d="M8.57956 16.3779C8.57956 17.5538 8.57956 18.7296 8.57956 19.9055C6.27053 21.5215 3.99901 23.2012 1.76499 24.9449C1.4851 24.9305 1.23271 24.8466 1.00781 24.6929C1.00781 23.7689 1.00781 22.8452 1.00781 21.9212C3.59798 20.177 6.1219 18.3292 8.57956 16.3779Z"
            fill="#277940" />
        <path fill-rule="evenodd" clip-rule="evenodd"
            d="M8.57956 13.6064C8.57956 14.5303 8.57956 15.4542 8.57956 16.3781C6.1219 18.3294 3.59798 20.1772 1.00781 21.9214C1.00781 20.9975 1.00781 20.0736 1.00781 19.1498C3.52428 17.3043 6.0482 15.4565 8.57956 13.6064Z"
            fill="#285F38" />
        <path opacity="0.955" fill-rule="evenodd" clip-rule="evenodd"
            d="M30.2855 21.1652C30.2855 22.0891 30.2855 23.0129 30.2855 23.9369C27.5516 22.9431 24.8594 21.8513 22.209 20.6613C22.4743 20.4793 22.6425 20.2273 22.7138 19.9054C22.9419 19.7267 23.0261 19.4748 22.9662 19.1495C23.16 18.9573 23.2862 18.7054 23.3447 18.3936C25.5915 19.4944 27.905 20.4183 30.2855 21.1652Z"
            fill="#B22926" />
        <path opacity="0.973" fill-rule="evenodd" clip-rule="evenodd"
            d="M8.57971 19.9053C8.57971 20.0733 8.57971 20.2412 8.57971 20.4092C8.94653 20.7704 9.15685 21.1903 9.21069 21.6691C7.54763 22.8561 5.90708 24.0741 4.28905 25.3226C3.95519 25.5282 3.78694 25.8222 3.78427 26.2045C3.01709 25.9072 2.34405 25.4871 1.76514 24.9446C3.99916 23.201 6.27068 21.5213 8.57971 19.9053Z"
            fill="#268A45" />
        <path opacity="0.947" fill-rule="evenodd" clip-rule="evenodd"
            d="M22.2085 20.6611C24.859 21.8512 27.5512 22.943 30.2851 23.9367C30.3926 25.057 29.8878 25.6451 28.7707 25.7005C25.7459 24.5835 22.8014 23.3237 19.937 21.921C20.6515 21.438 21.4087 21.0181 22.2085 20.6611Z"
            fill="#982B25" />
        <path opacity="0.962" fill-rule="evenodd" clip-rule="evenodd"
            d="M8.57962 20.4092C8.91613 20.5772 9.25267 20.7451 9.58919 20.9131C10.1449 21.5314 10.8179 22.0354 11.6083 22.4249C9.76419 24.095 7.82921 25.6907 5.80331 27.2123C5.05871 27.0087 4.38565 26.6726 3.78418 26.2045C3.78686 25.8222 3.9551 25.5282 4.28896 25.3226C5.90699 24.0741 7.54754 22.856 9.2106 21.669C9.15676 21.1903 8.94645 20.7703 8.57962 20.4092Z"
            fill="#259747" />
        <path opacity="0.518" fill-rule="evenodd" clip-rule="evenodd"
            d="M9.58936 20.9131C11.6085 22.0049 13.6276 23.0969 15.6468 24.1887C15.6468 24.3567 15.6468 24.5246 15.6468 24.6926C15.3102 24.5246 14.9737 24.3567 14.6372 24.1887C13.6276 23.6008 12.6181 23.0127 11.6085 22.4249C10.8181 22.0353 10.145 21.5314 9.58936 20.9131Z"
            fill="#8CC44A" />
        <path opacity="0.94" fill-rule="evenodd" clip-rule="evenodd"
            d="M19.9371 21.9209C22.8014 23.3236 25.7459 24.5834 28.7708 25.7004C28.1378 26.3112 27.3806 26.731 26.4992 26.9603C23.5254 25.7697 20.5808 24.5099 17.6655 23.1807C18.38 22.6977 19.1372 22.2778 19.9371 21.9209Z"
            fill="#7F2A23" />
        <path opacity="0.968" fill-rule="evenodd" clip-rule="evenodd"
            d="M11.6082 22.4248C12.6178 23.0126 13.6274 23.6007 14.6369 24.1886C14.7703 24.528 14.8123 24.8641 14.7631 25.1965C12.8864 26.4835 11.1617 27.9112 9.5891 29.4799C8.25972 28.8223 6.99777 28.0664 5.80322 27.2122C7.82912 25.6906 9.7641 24.0949 11.6082 22.4248Z"
            fill="#21A349" />
        <path opacity="0.973" fill-rule="evenodd" clip-rule="evenodd"
            d="M14.6372 24.1895C14.9737 24.3575 15.3102 24.5253 15.6468 24.6934C17.2444 25.4065 18.7588 26.2463 20.1898 27.2131C18.1992 28.6669 16.2642 30.1787 14.3848 31.7485C12.6147 31.3181 11.0163 30.5622 9.58936 29.4808C11.1619 27.912 12.8866 26.4844 14.7634 25.1973C14.8126 24.865 14.7705 24.5289 14.6372 24.1895Z"
            fill="#27A949" />
        <path fill-rule="evenodd" clip-rule="evenodd"
            d="M17.6656 23.1807C20.5809 24.5098 23.5255 25.7696 26.4993 26.9602C25.7917 27.4402 25.0345 27.86 24.2278 28.22C22.86 28.0835 21.5139 27.7473 20.1895 27.2122C18.7585 26.2454 17.2442 25.4055 15.6465 24.6925C15.6465 24.5244 15.6465 24.3566 15.6465 24.1885C16.3262 23.8491 16.9993 23.5133 17.6656 23.1807Z"
            fill="#652821" />
        <path opacity="0.675" fill-rule="evenodd" clip-rule="evenodd"
            d="M20.1898 27.2129C21.5141 27.7481 22.8602 28.0842 24.228 28.2208C21.9188 29.4998 19.5631 30.7175 17.1611 31.8743C16.1875 32.0784 15.262 32.0363 14.3848 31.7483C16.2642 30.1786 18.1992 28.6667 20.1898 27.2129Z"
            fill="#7AC04A" />
    </g>
    <defs>
        <clipPath id="clip0_3605_254">
            <rect width="32" height="32" fill="white" />
        </clipPath>
    </defs>
</svg>