<svg width="32" height="32" viewBox="0 0 33 32" fill="none" xmlns="http://www.w3.org/2000/svg">
    <path
        d="M14.1268 0.112344C17.7752 -0.274766 21.6131 0.315235 24.775 2.24581C27.6687 3.94486 29.8702 6.72185 30.9902 9.86728C31.9768 12.5559 32.2014 15.4822 31.892 18.314C23.7135 18.3053 15.535 18.3115 7.35653 18.3115C7.72947 20.2782 8.72605 22.1453 10.2951 23.4161C12.3993 25.211 15.2544 25.8807 17.9735 25.7649C20.952 25.7313 23.9256 24.5451 25.9886 22.3793C27.2883 23.9003 28.6341 25.3828 29.9201 26.9151C28.8586 28.1474 27.5814 29.1954 26.1482 29.9684C23.131 31.589 19.6274 32.1106 16.2348 31.9811C14.0071 31.8442 11.7694 31.4583 9.69645 30.6107C6.71292 29.417 4.06492 27.3283 2.37609 24.5825C0.556286 21.6661 -0.178369 18.1422 0.0673472 14.7391C0.270656 11.229 1.61773 7.76369 3.98385 5.1398C6.55701 2.25203 10.2877 0.479539 14.1268 0.112344ZM10.3401 7.86202C8.64124 9.2362 7.61971 11.3037 7.30165 13.4421C13.2188 13.4446 19.1347 13.4409 25.0506 13.4434C24.7837 11.3784 23.8146 9.38432 22.2317 8.0089C20.6177 6.5339 18.4075 5.82191 16.2385 5.85801C14.1181 5.81195 11.9653 6.48286 10.3401 7.86202Z"
        fill="#2569C3" />
</svg>