<svg width="32" height="32" viewBox="0 0 32 32" fill="none" xmlns="http://www.w3.org/2000/svg">
    <rect width="32" height="32" fill="#FAFAFA" />
    <path fill-rule="evenodd" clip-rule="evenodd"
        d="M5.88894 7.28896C9.82485 6.94486 13.5645 7.60117 17.1078 9.25799C19.0328 11.3872 20.1012 13.8813 20.3132 16.7403C16.3065 16.7403 12.2997 16.7403 8.29299 16.7403C7.95851 20.3385 9.56121 21.5199 13.1011 20.2845C14.8782 18.3081 17.0151 17.9143 19.5119 19.1031C18.7907 22.0441 16.9209 23.7508 13.9024 24.2226C2.5841 26.4744 -1.82332 22.1423 0.680173 11.227C2.12653 9.39527 3.86281 8.08264 5.88894 7.28896Z"
        fill="#222222" />
    <path fill-rule="evenodd" clip-rule="evenodd"
        d="M9.0943 11.2269C11.4983 10.9644 12.5668 12.0145 12.2997 14.3773C10.9641 14.3773 9.62856 14.3773 8.29295 14.3773C8.23894 13.2284 8.50603 12.1782 9.0943 11.2269Z"
        fill="#EDEDED" />
    <path fill-rule="evenodd" clip-rule="evenodd"
        d="M25.9221 16.7396C30.4008 16.1399 32.4042 17.9777 31.9322 22.2528C29.4737 25.3151 27.0696 25.3151 24.7201 22.2528C24.0526 20.1491 24.4532 18.3114 25.9221 16.7396Z"
        fill="#5EDCE8" />
</svg>