<svg width="32" height="32" viewBox="0 0 32 32" fill="none" xmlns="http://www.w3.org/2000/svg">
    <g clip-path="url(#clip0_4463_742)">
        <path fill-rule="evenodd" clip-rule="evenodd"
            d="M-0.0800781 -0.0800781C10.5866 -0.0800781 21.2532 -0.0800781 31.9199 -0.0800781C31.9199 10.5866 31.9199 21.2532 31.9199 31.9199C21.2532 31.9199 10.5866 31.9199 -0.0800781 31.9199C-0.0800781 21.2532 -0.0800781 10.5866 -0.0800781 -0.0800781Z"
            fill="#F1F1F1" />
        <path fill-rule="evenodd" clip-rule="evenodd"
            d="M7.44003 29.0401C7.33336 29.0401 7.28003 28.9868 7.28003 28.8801C9.85003 24.5772 12.5167 20.3372 15.28 16.1601C13.5092 13.337 11.9359 10.4304 10.56 7.4401C12.6076 9.72378 14.5009 12.1238 16.24 14.6401C19.1434 10.3485 22.2367 6.1885 25.52 2.1601C25.6003 1.99674 25.7069 1.97006 25.84 2.0801C24.2207 5.026 22.5407 7.93267 20.8 10.8001C19.6323 12.5758 18.4858 14.3625 17.36 16.1601C18.4211 17.8828 19.4611 19.6161 20.48 21.3601C21.0047 22.3004 21.4312 23.2604 21.76 24.2401C19.8851 22.0729 18.0451 19.8862 16.24 17.6801C13.4864 21.607 10.5531 25.3935 7.44003 29.0401Z"
            fill="#5D36B2" />
        <path fill-rule="evenodd" clip-rule="evenodd"
            d="M7.27988 28.8799C7.27988 28.9866 7.33321 29.0399 7.43988 29.0399C7.28665 29.2738 7.09998 29.4871 6.87988 29.6799C6.89539 29.3664 7.02871 29.0999 7.27988 28.8799Z"
            fill="#9075C7" />
    </g>
    <defs>
        <clipPath id="clip0_4463_742">
            <rect width="32" height="32" fill="white" />
        </clipPath>
    </defs>
</svg>