<svg width="32" height="32" viewBox="0 0 32 32" fill="none" xmlns="http://www.w3.org/2000/svg">
    <rect width="32" height="32" fill="#FAFAFA" />
    <path
        d="M10.1581 12.9669C11.3296 12.9164 12.4776 13.3124 13.3772 14.0774C14.2768 14.8424 14.8634 15.9213 15.0221 17.1031H5.11616C5.33527 15.9165 5.96315 14.8482 6.88701 14.0901C7.81088 13.332 8.97149 12.9338 10.1581 12.9669ZM19.7453 20.971C19.8605 20.173 19.9194 19.4218 19.9245 18.6667C19.9245 12.3875 15.703 8.72656 10.1581 8.72656C4.07808 8.72656 0 13.1622 0 19.1809C0 24.3964 3.29216 29.44 10.5894 29.44C13.6344 29.4424 16.6058 28.4885 19.0976 26.7086L17.0944 23.1179C15.222 24.3706 13.04 25.0606 10.7994 25.1085C7.47264 25.1085 5.72288 23.3067 5.11616 20.971H19.7453Z"
        fill="black" />
    <path
        d="M20.2482 25.3085C20.2508 24.9222 20.3307 24.5405 20.483 24.1867C20.6353 23.8328 20.8568 23.5142 21.1339 23.2501C21.4067 22.9735 21.7321 22.7564 22.0901 22.612C22.4482 22.4676 22.8315 22.399 23.2165 22.4104C23.9593 22.4455 24.6603 22.7703 25.1739 23.3172C25.6875 23.8641 25.9744 24.5912 25.9749 25.3475C25.9749 26.8304 24.7653 28.2078 23.2165 28.2846C22.8275 28.2933 22.4407 28.2225 22.079 28.0765C21.7174 27.9304 21.3882 27.7121 21.1109 27.4345C20.5515 26.8304 20.2405 26.1065 20.2482 25.3085Z"
        fill="#FF3465" />
    <path
        d="M32 1.28027V6.48792H31.1857V2.71035L28.9759 5.4474H28.6517L26.4011 2.71035V6.48792H25.6441V1.28027H26.0566L28.8031 4.61516L31.6079 1.28027H32ZM20.48 1.28027H24.9754V1.89076H23.1567V6.48792H22.2968V1.89076H20.481L20.48 1.28027Z"
        fill="black" />
</svg>