<svg width="32" height="32" viewBox="0 0 33 33" fill="none" xmlns="http://www.w3.org/2000/svg">
    <path opacity="0.975" fill-rule="evenodd" clip-rule="evenodd"
        d="M1.08618 0.5C1.40745 0.5 1.7287 0.5 2.04997 0.5C6.28946 2.98821 10.5944 5.37044 14.9648 7.64667C15.1254 7.82444 15.2862 8.00223 15.4467 8.18C15.7629 15.7077 15.8271 23.2456 15.6395 30.7933C15.5545 31.527 15.2332 32.0959 14.6757 32.5C10.1965 29.9325 5.6667 27.4436 1.08618 25.0333C0.351226 23.5709 0.319093 22.0776 0.989799 20.5533C1.16186 20.4293 1.35462 20.3582 1.56808 20.34C5.56993 22.4121 9.55363 24.5454 13.5191 26.74C13.6759 25.1229 13.6438 23.5229 13.4228 21.94C9.15086 19.754 4.9744 17.4073 0.893419 14.9C0.370213 13.4979 0.402327 12.1113 0.989799 10.74C1.12949 10.6209 1.29014 10.5497 1.4717 10.5267C5.52471 12.5739 9.54052 14.7073 13.5191 16.9267C13.6761 15.2386 13.6439 13.5675 13.4228 11.9133C9.26347 9.62949 5.11914 7.31839 0.989799 4.98C0.345868 3.46663 0.378001 1.9733 1.08618 0.5Z"
        fill="#464649" />
    <path opacity="0.984" fill-rule="evenodd" clip-rule="evenodd"
        d="M31.1565 0.5C31.3493 0.5 31.5421 0.5 31.7348 0.5C32.5949 1.89422 32.7235 3.38755 32.1203 4.98C27.9739 7.38119 23.7976 9.72786 19.591 12.02C19.334 13.6556 19.334 15.2911 19.591 16.9267C23.5208 14.7757 27.4723 12.6424 31.4457 10.5267C31.9571 10.666 32.2784 11.0216 32.4095 11.5933C32.6234 12.8575 32.4951 14.0664 32.024 15.22C27.5843 17.8367 23.0545 20.2544 18.4344 22.4733C17.7621 22.2617 17.4088 21.7639 17.3743 20.98C17.2457 17.2111 17.2457 13.4422 17.3743 9.67333C17.4207 9.07837 17.5493 8.50947 17.7598 7.96667C22.2759 5.55647 26.7416 3.06757 31.1565 0.5Z"
        fill="#EE4223" />
    <path opacity="0.981" fill-rule="evenodd" clip-rule="evenodd"
        d="M31.1565 20.3398C31.8446 20.4253 32.2622 20.852 32.4094 21.6198C32.538 22.4732 32.538 23.3265 32.4094 24.1798C32.3568 24.57 32.196 24.89 31.9275 25.1398C27.394 27.542 22.8964 29.9953 18.4344 32.4998C17.6747 31.9215 17.2892 31.1036 17.2778 30.0465C17.3199 29.165 17.5768 28.3829 18.0489 27.6998C22.4598 25.2947 26.829 22.8414 31.1565 20.3398Z"
        fill="#EE4223" />
</svg>