<svg width="32" height="32" viewBox="0 0 32 32" fill="none" xmlns="http://www.w3.org/2000/svg">
    <path
        d="M10.9456 7.19001C10.9456 7.50839 10.9193 8.03901 10.6041 8.38392C10.2626 8.7023 9.73729 8.72883 9.42209 8.72883H6.05996C5.08809 8.72883 4.51023 8.72883 4.11623 8.78189C3.90609 8.80842 3.64343 8.91455 3.51209 8.96761C3.45956 8.99414 3.45956 8.96761 3.48583 8.94108L11.1557 1.06126C11.182 1.03472 11.2082 1.03472 11.182 1.08779C11.1294 1.22044 11.0244 1.48576 10.9981 1.69801C10.9456 2.09598 10.9456 2.67967 10.9456 3.66133V7.19001ZM18.0901 31.0152C17.197 30.4315 16.7242 29.6621 16.5404 29.1845C16.3565 28.7335 16.2514 28.2294 16.2514 27.7253C16.2514 25.5232 18.0376 23.7191 20.244 23.7191C20.9006 23.7191 21.426 24.2497 21.426 24.913C21.426 25.364 21.1896 25.7355 20.8218 25.9477C20.6905 26.0273 20.5066 26.0804 20.3753 26.1069C20.244 26.1334 19.7449 26.1865 19.5085 26.3987C19.2458 26.611 19.0357 26.9559 19.0357 27.3273C19.0357 27.7253 19.1933 28.0967 19.456 28.3621C19.9288 28.8396 20.5592 29.1049 21.2421 29.1049C23.0282 29.1049 24.4729 27.6457 24.4729 25.8416C24.4729 24.2232 23.3959 22.7905 21.9776 22.1537C21.7674 22.0476 21.426 21.968 21.1108 21.8884C20.7168 21.8088 20.349 21.7557 20.3228 21.7557C19.2196 21.6231 16.4616 20.7476 16.2777 18.2801C16.2777 18.2801 15.4634 21.9945 13.8349 23.0027C13.6773 23.0823 13.4672 23.1619 13.2308 23.215C12.9944 23.268 12.7317 23.2946 12.6529 23.2946C9.99996 23.4538 7.18942 22.6048 5.24569 20.5884C5.24569 20.5884 3.93236 19.5006 3.24943 16.4495C3.09183 15.7066 2.77663 14.38 2.59276 13.133C2.51396 12.682 2.48769 12.3371 2.46143 12.0187C2.46143 10.7187 3.24943 9.84315 4.24756 9.71049C4.27383 9.71049 4.35263 9.71049 4.40516 9.71049C5.00929 9.71049 9.60596 9.71049 9.60596 9.71049C10.5253 9.71049 11.0506 9.47171 11.3921 9.15333C11.8386 8.72883 11.9437 8.11861 11.9437 7.40226C11.9437 7.40226 11.9437 2.57355 11.9437 1.96332C11.9437 1.93679 11.9437 1.83067 11.9437 1.80413C12.075 0.822473 12.9418 0 14.2289 0C14.2289 0 14.6229 0 14.8593 0C15.122 0 15.4372 0.0265314 15.7261 0.0530628C15.9362 0.0795942 16.1201 0.132657 16.4353 0.212251C18.0376 0.610222 18.379 2.25517 18.379 2.25517C18.379 2.25517 21.3997 2.7858 22.9232 3.05111C24.3678 3.31642 27.9401 3.55521 28.623 7.19001C30.2253 15.8392 29.2534 24.2232 29.1746 24.2232C28.0451 32.3948 21.3209 31.9969 21.3209 31.9969C19.8762 31.9969 18.7993 31.5193 18.0901 31.0152ZM24.1314 13.6371C23.2646 13.5575 22.5292 13.9025 22.2665 14.5657C22.214 14.6984 22.1614 14.8576 22.1877 14.9372C22.2139 15.0168 22.2665 15.0433 22.319 15.0698C22.6342 15.229 23.1595 15.3086 23.9213 15.3882C24.683 15.4678 25.2083 15.5209 25.5498 15.4678C25.6023 15.4678 25.6549 15.4413 25.7074 15.3617C25.7599 15.2821 25.7337 15.1229 25.7337 14.9902C25.6286 14.2474 24.9982 13.7433 24.1314 13.6371Z"
        fill="#00A82D" />
</svg>