<svg width="32" height="32" viewBox="0 0 32 32" fill="none" xmlns="http://www.w3.org/2000/svg">
    <path fill-rule="evenodd" clip-rule="evenodd"
        d="M13.9253 22.0124L15.0159 16.5052C14.4691 16.1819 14.083 15.6451 13.9801 15.0152C13.9624 14.9179 13.9515 14.8186 13.9485 14.7172C13.9481 14.7064 13.9452 14.6965 13.9452 14.6861C13.9452 14.6836 13.9456 14.682 13.9456 14.6799C13.9456 14.6724 13.9443 14.6658 13.9443 14.6584C13.9443 13.4875 14.9552 12.5388 16.2034 12.5388H16.2047H16.2059C17.4541 12.5388 18.4654 13.4875 18.4654 14.6584C18.4654 14.6658 18.4638 14.6724 18.4638 14.6799C18.4638 14.682 18.4646 14.6836 18.4646 14.6861C18.4646 14.6965 18.4612 14.7064 18.4612 14.7172C18.4579 14.8186 18.4473 14.9179 18.4296 15.0152C18.3267 15.6451 17.9406 16.1819 17.3939 16.5052L18.484 22.0124H13.9253ZM23.8697 23.3116C23.8697 25.5458 22.662 26.662 20.2482 26.662H15.5546H11.8711C11.7105 26.662 11.5562 26.6558 11.4061 26.6459V26.6517C9.2242 26.5474 8.12985 25.4357 8.12985 23.3116V20.8042H8.12775V12.3108C8.12775 10.2103 9.37596 9.15943 11.8711 9.15943H20.2482C22.662 9.15943 23.8697 10.2103 23.8697 12.3108V23.3116ZM15.9543 2.25947C18.2053 2.25947 20.0315 3.28592 20.0315 4.55201V4.82186H11.877V4.55201C11.877 3.28592 13.7007 2.25947 15.9543 2.25947ZM22.1654 4.94686V4.55118C22.1654 2.62245 19.3844 1 15.9543 1C12.5224 1 9.74228 2.62245 9.74228 4.55118V4.89098C5.25024 5.38682 3 7.40578 3 10.9549V20.707V21.37V24.5677C3 26.9613 4.4143 28.8399 7.24586 30.2037C8.3381 30.7322 9.66641 30.9959 11.2245 30.9992L11.254 31H15.8603H20.746C22.3172 31 23.6552 30.7355 24.7541 30.2037C27.5857 28.8399 29 26.9613 29 24.5677V10.9549C29 7.54402 26.7181 5.54369 22.1654 4.94686Z"
        fill="#007267" />
</svg>