<svg width="32" height="32" viewBox="0 0 32 32" fill="none" xmlns="http://www.w3.org/2000/svg">
    <g clip-path="url(#clip0_3138_45)">
        <path fill-rule="evenodd" clip-rule="evenodd"
            d="M-0.0651855 -0.078125C10.6015 -0.078125 21.2681 -0.078125 31.9348 -0.078125C31.9348 10.5885 31.9348 21.2552 31.9348 31.9219C27.5375 31.9219 23.1403 31.9219 18.743 31.9219C19.8222 31.1304 20.7147 30.0949 21.4205 28.8151C24.7827 22.32 27.395 15.4332 29.2573 8.15488C25.9703 14.4984 21.8125 19.9094 16.7838 24.3879C15.5976 25.3134 14.4003 26.2197 13.192 27.1063C13.1048 27.21 13.1048 27.3134 13.192 27.417C14.6653 29.1989 16.2979 30.7006 18.0899 31.9219C12.0382 31.9219 5.98651 31.9219 -0.0651855 31.9219C-0.0651855 23.5335 -0.0651855 15.1452 -0.0651855 6.75683C0.488848 8.7218 1.27252 10.56 2.28583 12.2714C3.85404 12.3423 5.42139 12.3164 6.98788 12.1937C7.71285 12.1895 8.40945 12.086 9.07767 11.883C16.6171 10.5524 23.3655 7.08312 29.3226 1.47527C29.774 1.12059 30.2094 0.732241 30.6287 0.310225C29.9876 0.434952 29.3781 0.667961 28.8001 1.00925C28.3782 1.21245 27.9428 1.36779 27.494 1.47527C26.9345 1.59353 26.412 1.80066 25.9267 2.09663C25.5803 2.08257 25.2755 2.18614 25.0124 2.40731C20.8213 3.78544 16.5547 4.71748 12.2124 5.20343C9.99368 5.33023 7.77327 5.38201 5.55114 5.35877C4.7127 5.36779 3.8855 5.26424 3.06951 5.04809C2.38005 4.76685 1.68345 4.71507 0.979712 4.89275C0.520661 5.02406 0.172363 5.33474 -0.0651855 5.82479C-0.0651855 3.85714 -0.0651855 1.88952 -0.0651855 -0.078125Z"
            fill="#FDFEFE" />
        <path fill-rule="evenodd" clip-rule="evenodd"
            d="M29.3225 1.4756C29.2972 1.10095 29.1231 0.945613 28.8 1.00958C29.378 0.668284 29.9876 0.435274 30.6286 0.310547C30.2094 0.732563 29.7739 1.12091 29.3225 1.4756Z"
            fill="#53BFF3" />
        <path fill-rule="evenodd" clip-rule="evenodd"
            d="M28.8001 1.01009C29.1231 0.946123 29.2972 1.10146 29.3226 1.4761C23.3655 7.08395 16.6171 10.5532 9.07767 11.8839C8.34833 11.8458 7.65173 11.9494 6.98788 12.1946C5.42139 12.3172 3.85404 12.3431 2.28583 12.2722C1.27252 10.5608 0.488848 8.72263 -0.0651855 6.75766C-0.0651855 6.44698 -0.0651855 6.1363 -0.0651855 5.82562C0.172363 5.33557 0.520661 5.02489 0.979712 4.89358C1.67484 4.96816 2.37144 5.01995 3.06951 5.04892C3.8855 5.26508 4.7127 5.36863 5.55114 5.3596C6.46438 5.4631 7.40044 5.51489 8.3593 5.51494C9.67201 5.54776 10.9564 5.4442 12.2124 5.20426C16.5547 4.71831 20.8213 3.78627 25.0124 2.40814C25.3587 2.4222 25.6635 2.31864 25.9267 2.09746C26.5033 2.04145 27.0258 1.83433 27.494 1.4761C27.9428 1.36862 28.3782 1.21328 28.8001 1.01009Z"
            fill="#0AAEEF" />
        <path fill-rule="evenodd" clip-rule="evenodd"
            d="M5.42041 17.3208C6.00446 17.1431 6.61398 17.0137 7.24898 16.9325C7.48599 16.8149 7.70367 16.6855 7.90204 16.5441C17.42 14.2381 25.3657 8.74946 31.7388 0.078125C26.9919 11.0028 19.8083 18.8216 10.1878 23.5344C9.62769 23.0241 9.10524 22.4545 8.62041 21.8257C7.52622 20.3439 6.45956 18.8422 5.42041 17.3208Z"
            fill="#0FAFEF" />
        <path fill-rule="evenodd" clip-rule="evenodd"
            d="M27.4939 1.47559C27.0256 1.83382 26.5032 2.04093 25.9265 2.09695C26.4119 1.80098 26.9343 1.59385 27.4939 1.47559Z"
            fill="#83D1F6" />
        <path fill-rule="evenodd" clip-rule="evenodd"
            d="M25.9265 2.09696C25.6633 2.31814 25.3586 2.4217 25.0122 2.40764C25.2754 2.18647 25.5801 2.08291 25.9265 2.09696Z"
            fill="#7FCFF5" />
        <path fill-rule="evenodd" clip-rule="evenodd"
            d="M0.979492 4.89323C1.68323 4.71555 2.37983 4.76732 3.06929 5.04857C2.37122 5.0196 1.67462 4.96781 0.979492 4.89323Z"
            fill="#CDEEFB" />
        <path fill-rule="evenodd" clip-rule="evenodd"
            d="M12.2122 5.2041C10.9563 5.44404 9.67189 5.5476 8.35919 5.51478C7.40032 5.51473 6.46427 5.46294 5.55103 5.35944C7.77316 5.38268 9.99357 5.33091 12.2122 5.2041Z"
            fill="#47BFF2" />
        <path fill-rule="evenodd" clip-rule="evenodd"
            d="M18.7428 31.9223C18.5251 31.9223 18.3075 31.9223 18.0898 31.9223C16.2978 30.701 14.6651 29.1993 13.1918 27.4174C13.1047 27.3138 13.1047 27.2103 13.1918 27.1067C14.4001 26.2201 15.5974 25.3138 16.7836 24.3883C21.8123 19.9098 25.9701 14.4988 29.2571 8.15527C27.3948 15.4336 24.7826 22.3204 21.4204 28.8155C20.7145 30.0953 19.8221 31.1308 18.7428 31.9223Z"
            fill="#10AFEF" />
        <path fill-rule="evenodd" clip-rule="evenodd"
            d="M9.07759 11.8837C8.40936 12.0866 7.71277 12.1901 6.98779 12.1943C7.65164 11.9491 8.34825 11.8456 9.07759 11.8837Z"
            fill="#C6EBFB" />
        <path fill-rule="evenodd" clip-rule="evenodd"
            d="M7.90204 16.5439C7.70367 16.6853 7.48599 16.8147 7.24898 16.9323C6.61398 17.0135 6.00445 17.1429 5.42041 17.3206C5.34947 17.3113 5.30594 17.2596 5.28979 17.1653C6.13862 16.858 7.00937 16.651 7.90204 16.5439Z"
            fill="#54C1F3" />
    </g>
    <defs>
        <clipPath id="clip0_3138_45">
            <rect width="32" height="32" fill="white" />
        </clipPath>
    </defs>
</svg>