<svg width="32" height="32" viewBox="0 0 32 32" fill="none" xmlns="http://www.w3.org/2000/svg">
    <g clip-path="url(#clip0_4321_809)">
        <path fill-rule="evenodd" clip-rule="evenodd"
            d="M-0.0712891 -0.0703125C10.5954 -0.0703125 21.262 -0.0703125 31.9287 -0.0703125C31.9287 10.5964 31.9287 21.263 31.9287 31.9297C21.262 31.9297 10.5954 31.9297 -0.0712891 31.9297C-0.0712891 21.263 -0.0712891 10.5964 -0.0712891 -0.0703125Z"
            fill="#DDDFDE" />
        <path fill-rule="evenodd" clip-rule="evenodd"
            d="M7.46684 6.75498C13.0611 6.73128 18.6552 6.75498 24.2491 6.8261C24.5959 6.93616 24.8568 7.14949 25.0313 7.4661C25.1261 13.0602 25.1261 18.6543 25.0313 24.2483C24.9196 24.5023 24.7538 24.7157 24.5335 24.8883C18.9041 25.1237 13.2625 25.1711 7.60906 25.0305C7.35505 24.9189 7.14172 24.7531 6.96906 24.5328C6.73375 18.9033 6.68633 13.2618 6.82684 7.60832C7.01628 7.30112 7.22961 7.01667 7.46684 6.75498Z"
            fill="#24303E" />
        <path fill-rule="evenodd" clip-rule="evenodd"
            d="M14.7202 10.169C16.5697 10.1453 18.4186 10.1691 20.2669 10.2402C20.4061 11.1994 20.4535 12.1712 20.4091 13.1557C18.6551 13.1557 16.9009 13.1557 15.1469 13.1557C15.1469 13.9616 15.1469 14.7675 15.1469 15.5735C16.0962 15.5499 17.0444 15.5735 17.9913 15.6446C18.1809 16.5928 18.1809 17.5408 17.9913 18.489C17.0444 18.5602 16.0962 18.5838 15.1469 18.5602C15.1705 19.5095 15.1469 20.4577 15.0758 21.4046C14.163 21.5672 13.2385 21.5909 12.3025 21.4757C12.1391 20.3254 12.1154 19.164 12.2313 17.9913C12.9527 17.8532 13.6875 17.8057 14.4358 17.849C14.4358 17.3275 14.4358 16.8061 14.4358 16.2846C13.7231 16.3082 13.012 16.2845 12.3025 16.2135C12.1128 15.0283 12.1128 13.8431 12.3025 12.6579C13.012 12.5869 13.7231 12.5632 14.4358 12.5868C14.4122 11.8741 14.4359 11.163 14.5069 10.4535C14.6089 10.3761 14.68 10.2813 14.7202 10.169Z"
            fill="#CFD2D2" />
        <path fill-rule="evenodd" clip-rule="evenodd"
            d="M15.1465 10.8809C16.7109 10.8809 18.2754 10.8809 19.8398 10.8809C19.8398 11.4497 19.8398 12.0186 19.8398 12.5875C18.2754 12.5875 16.7109 12.5875 15.1465 12.5875C15.1465 12.0186 15.1465 11.4497 15.1465 10.8809Z"
            fill="#263241" />
        <path fill-rule="evenodd" clip-rule="evenodd"
            d="M12.8711 13.1562C12.8711 13.9622 12.8711 14.7681 12.8711 15.574C13.3926 15.574 13.914 15.574 14.4355 15.574C13.8953 15.7138 13.3264 15.7613 12.7289 15.7163C12.6829 14.8359 12.7303 13.9826 12.8711 13.1562Z"
            fill="#92989C" />
        <path fill-rule="evenodd" clip-rule="evenodd"
            d="M12.8711 13.1562C13.3926 13.1562 13.9141 13.1562 14.4355 13.1562C14.4355 13.9622 14.4355 14.7681 14.4355 15.574C13.9141 15.574 13.3926 15.574 12.8711 15.574C12.8711 14.7681 12.8711 13.9622 12.8711 13.1562Z"
            fill="#222E3D" />
        <path fill-rule="evenodd" clip-rule="evenodd"
            d="M15.1465 16.2852C15.9525 16.2852 16.7583 16.2852 17.5643 16.2852C17.5643 16.8067 17.5643 17.3281 17.5643 17.8496C16.7583 17.8496 15.9525 17.8496 15.1465 17.8496C15.1465 17.3281 15.1465 16.8067 15.1465 16.2852Z"
            fill="#212F3D" />
        <path fill-rule="evenodd" clip-rule="evenodd"
            d="M14.4355 18.5591C13.914 18.5591 13.3926 18.5591 12.8711 18.5591C12.8711 19.3651 12.8711 20.1709 12.8711 20.9769C12.7303 20.1505 12.6829 19.2972 12.7289 18.4169C13.3264 18.3718 13.8953 18.4193 14.4355 18.5591Z"
            fill="#92989C" />
        <path fill-rule="evenodd" clip-rule="evenodd"
            d="M14.4355 18.5605C14.4355 19.3665 14.4355 20.1724 14.4355 20.9783C13.9141 20.9783 13.3926 20.9783 12.8711 20.9783C12.8711 20.1724 12.8711 19.3665 12.8711 18.5605C13.3926 18.5605 13.9141 18.5605 14.4355 18.5605Z"
            fill="#212D3C" />
    </g>
    <defs>
        <clipPath id="clip0_4321_809">
            <rect width="32" height="32" fill="white" />
        </clipPath>
    </defs>
</svg>