<svg width="32" height="32" viewBox="0 0 32 32" fill="none" xmlns="http://www.w3.org/2000/svg">
    <path opacity="0.858" fill-rule="evenodd" clip-rule="evenodd"
        d="M6.88069 8.91154C6.88069 8.23642 6.88069 7.56133 6.88069 6.88622C7.61287 5.81715 8.55731 4.93951 9.71391 4.25331C16.0549 3.98327 22.3959 3.98327 28.737 4.25331C30.1184 4.68974 31.1302 5.56738 31.7726 6.88622C31.9745 8.63634 32.042 10.3916 31.9749 12.152C31.5702 12.152 31.1654 12.152 30.7607 12.152C30.8276 10.6607 30.7601 9.17548 30.5583 7.69635C30.0861 6.68369 29.3441 5.94108 28.3322 5.4685C22.3959 5.19846 16.4597 5.19846 10.5234 5.4685C9.6638 5.92287 8.92178 6.53047 8.2973 7.29129C8.02745 10.5318 8.02745 13.7723 8.2973 17.0128C8.76951 17.7554 9.37663 18.363 10.1187 18.8356C14.5709 18.9706 19.0231 19.1056 23.4753 19.2407C24.0149 19.6457 24.0149 20.0508 23.4753 20.4558C19.4278 20.7259 15.3804 20.7259 11.3329 20.4558C9.49696 20.2356 8.08035 19.358 7.08306 17.8229C6.88081 14.8555 6.81338 11.8851 6.88069 8.91154Z"
        fill="#ED2E3D" />
    <path opacity="0.855" fill-rule="evenodd" clip-rule="evenodd"
        d="M6.88068 6.88642C6.88068 7.56153 6.88068 8.23662 6.88068 8.91174C5.28732 8.79285 3.7358 8.9279 2.2261 9.3168C1.95627 13.2324 1.95627 17.148 2.2261 21.0636C3.76404 21.3467 5.31557 21.6167 6.88068 21.8738C7.21023 22.7917 7.4126 23.7369 7.4878 24.7092C9.96772 22.0163 13.0033 21.0036 16.5946 21.6712C17.2448 22.0961 17.5147 22.7037 17.4041 23.494C15.7795 23.427 14.1605 23.4945 12.5471 23.6965C10.6183 25.236 8.52715 26.5187 6.27356 27.5446C5.9611 27.486 5.69125 27.351 5.46407 27.1396C5.26251 25.9318 5.19508 24.7167 5.2617 23.494C4.04001 23.5607 2.82578 23.4932 1.61898 23.2915C0.876951 23.089 0.404746 22.6164 0.202373 21.8738C-0.0674577 17.4181 -0.0674577 12.9624 0.202373 8.50667C0.404746 7.76406 0.876951 7.29148 1.61898 7.08895C3.36771 6.88682 5.12162 6.81931 6.88068 6.88642Z"
        fill="#F6BF27" />
    <path opacity="0.918" fill-rule="evenodd" clip-rule="evenodd"
        d="M12.5471 10.5318C15.9847 10.1149 16.9291 11.3975 15.3803 14.3799C11.8394 14.9575 10.8949 13.6748 12.5471 10.5318Z"
        fill="#ED2E3D" />
    <path opacity="0.946" fill-rule="evenodd" clip-rule="evenodd"
        d="M18.2135 10.5318C21.6511 10.1149 22.5956 11.3975 21.0468 14.3799C17.5058 14.9575 16.5614 13.6748 18.2135 10.5318Z"
        fill="#ED2E3D" />
    <path opacity="0.919" fill-rule="evenodd" clip-rule="evenodd"
        d="M23.88 10.5318C27.3176 10.1149 28.262 11.3975 26.7132 14.3799C23.1723 14.9575 22.2278 13.6748 23.88 10.5318Z"
        fill="#ED2E3D" />
</svg>