<svg width="32" height="32" viewBox="0 0 32 32" fill="none" xmlns="http://www.w3.org/2000/svg">
    <g clip-path="url(#clip0_4918_315)">
        <path opacity="0.881" fill-rule="evenodd" clip-rule="evenodd"
            d="M13.5 -0.5C14.8333 -0.5 16.1667 -0.5 17.5 -0.5C17.5 0.166667 17.8333 0.5 18.5 0.5C18.0296 1.69348 17.0296 2.36015 15.5 2.5C13.9704 2.36015 12.9704 1.69348 12.5 0.5C13.1667 0.5 13.5 0.166667 13.5 -0.5Z"
            fill="#FBB91E" />
        <path opacity="0.704" fill-rule="evenodd" clip-rule="evenodd"
            d="M12.5 0.5C12.9704 1.69348 13.9704 2.36015 15.5 2.5C17.0296 2.36015 18.0296 1.69348 18.5 0.5C19.7095 0.932053 20.7095 1.59872 21.5 2.5C20.0813 3.45115 18.4147 3.78448 16.5 3.5C15.8333 3.5 15.1667 3.5 14.5 3.5C12.5853 3.78448 10.9187 3.45115 9.5 2.5C10.2905 1.59872 11.2905 0.932053 12.5 0.5Z"
            fill="#F8B11D" />
        <path opacity="0.766" fill-rule="evenodd" clip-rule="evenodd"
            d="M9.5 2.5C10.9187 3.45115 12.5853 3.78448 14.5 3.5C14.5 3.83333 14.5 4.16667 14.5 4.5C14.1667 4.5 13.8333 4.5 13.5 4.5C12.8333 4.5 12.5 4.83333 12.5 5.5C11.8333 5.5 11.5 5.83333 11.5 6.5C11.1667 6.5 10.8333 6.5 10.5 6.5C8.73535 5.53862 6.73535 5.20528 4.5 5.5C5.89928 4.11028 7.56594 3.11028 9.5 2.5Z"
            fill="#F4A71C" />
        <path opacity="0.767" fill-rule="evenodd" clip-rule="evenodd"
            d="M21.5 2.5C23.4341 3.11028 25.1007 4.11028 26.5 5.5C24.2646 5.20528 22.2646 5.53862 20.5 6.5C19.8333 6.16667 19.1667 5.83333 18.5 5.5C18.5 4.83333 18.1667 4.5 17.5 4.5C17.1667 4.5 16.8333 4.5 16.5 4.5C16.5 4.16667 16.5 3.83333 16.5 3.5C18.4147 3.78448 20.0813 3.45115 21.5 2.5Z"
            fill="#F4A71C" />
        <path opacity="0.809" fill-rule="evenodd" clip-rule="evenodd"
            d="M13.5 4.5C13.8333 4.5 14.1667 4.5 14.5 4.5C15.1667 4.5 15.8333 4.5 16.5 4.5C16.8333 4.5 17.1667 4.5 17.5 4.5C18.1667 4.5 18.5 4.83333 18.5 5.5C19.1667 5.83333 19.8333 6.16667 20.5 6.5C20.5 7.16667 20.8333 7.5 21.5 7.5C20.7081 9.74479 19.3747 10.0781 17.5 8.5C17.1667 8.5 16.8333 8.5 16.5 8.5C14.8333 7.83333 13.1667 7.16667 11.5 6.5C11.5 5.83333 11.8333 5.5 12.5 5.5C13.1667 5.5 13.5 5.16667 13.5 4.5Z"
            fill="#ED951A" />
        <path opacity="0.506" fill-rule="evenodd" clip-rule="evenodd"
            d="M2.5002 6.5C3.91886 7.45115 5.58553 7.78448 7.5002 7.5C7.5002 8.16667 7.83353 8.5 8.5002 8.5C8.83353 9.16667 9.16687 9.83333 9.5002 10.5C8.16687 10.5 6.83353 10.5 5.5002 10.5C5.16687 9.16667 4.83353 9.16667 4.5002 10.5C3.04145 10.5674 1.70812 10.2341 0.500198 9.5C0.285389 7.82124 0.952055 6.82124 2.5002 6.5Z"
            fill="#EA8B19" />
        <path opacity="0.713" fill-rule="evenodd" clip-rule="evenodd"
            d="M4.5 5.50021C6.73535 5.20549 8.73535 5.53883 10.5 6.50021C9.83333 6.50021 9.5 6.83354 9.5 7.50021C9.16667 7.50021 8.83333 7.50021 8.5 7.50021C8.16667 7.50021 7.83333 7.50021 7.5 7.50021C5.58533 7.78469 3.91866 7.45136 2.5 6.50021C2.84171 5.66196 3.50838 5.32863 4.5 5.50021Z"
            fill="#EF9B1B" />
        <path opacity="0.713" fill-rule="evenodd" clip-rule="evenodd"
            d="M20.5 6.50021C22.2646 5.53883 24.2646 5.20549 26.5 5.50021C27.4916 5.32863 28.1583 5.66196 28.5 6.50021C27.0813 7.45136 25.4147 7.78469 23.5 7.50021C23.1667 7.50021 22.8333 7.50021 22.5 7.50021C22.1667 7.50021 21.8333 7.50021 21.5 7.50021C20.8333 7.50021 20.5 7.16688 20.5 6.50021Z"
            fill="#EF9B1B" />
        <path opacity="0.504" fill-rule="evenodd" clip-rule="evenodd"
            d="M28.5 6.5C30.0481 6.82124 30.7148 7.82124 30.5 9.5C28.965 8.6457 27.6316 8.6457 26.5 9.5C26.1667 9.5 25.8333 9.5 25.5 9.5C25.1667 8.16667 24.8333 8.16667 24.5 9.5C23.8333 9.5 23.5 9.16667 23.5 8.5C23.5 8.16667 23.5 7.83333 23.5 7.5C25.4147 7.78448 27.0813 7.45115 28.5 6.5Z"
            fill="#ED931A" />
        <path opacity="0.483" fill-rule="evenodd" clip-rule="evenodd"
            d="M10.5 6.5C10.8333 6.5 11.1667 6.5 11.5 6.5C13.1667 7.16667 14.8333 7.83333 16.5 8.5C14.8212 8.28519 13.8212 8.95186 13.5 10.5C12.1667 9.16667 10.8333 9.16667 9.5 10.5C9.16667 9.83333 8.83333 9.16667 8.5 8.5C8.5 8.16667 8.5 7.83333 8.5 7.5C8.83333 7.5 9.16667 7.5 9.5 7.5C10.1667 7.5 10.5 7.16667 10.5 6.5Z"
            fill="#E98819" />
        <path opacity="0.527" fill-rule="evenodd" clip-rule="evenodd"
            d="M21.5 7.5C21.8333 7.5 22.1667 7.5 22.5 7.5C22.5 8.16667 22.8333 8.5 23.5 8.5C23.5 9.16667 23.8333 9.5 24.5 9.5C22.264 10.9821 19.9307 11.3154 17.5 10.5C17.5 9.83333 17.5 9.16667 17.5 8.5C19.3747 10.0781 20.7081 9.74479 21.5 7.5Z"
            fill="#E88819" />
        <path opacity="0.118" fill-rule="evenodd" clip-rule="evenodd"
            d="M30.5 9.5001C30.5 10.8334 30.5 12.1668 30.5 13.5001C29.1667 13.5001 27.8333 13.5001 26.5 13.5001C26.5 12.1668 26.5 10.8334 26.5 9.5001C27.6316 8.6458 28.965 8.6458 30.5 9.5001Z"
            fill="#E58018" />
        <path opacity="0.863" fill-rule="evenodd" clip-rule="evenodd"
            d="M13.5 10.5C14.1667 10.5 14.5 10.8333 14.5 11.5C11.6727 12.3683 8.67269 12.3683 5.5 11.5C5.5 11.1667 5.5 10.8333 5.5 10.5C6.83333 10.5 8.16667 10.5 9.5 10.5C10.8333 9.16667 12.1667 9.16667 13.5 10.5Z"
            fill="#E68118" />
        <path opacity="0.53" fill-rule="evenodd" clip-rule="evenodd"
            d="M24.5 9.5C24.8333 9.5 25.1667 9.5 25.5 9.5C25.5 10.8333 25.5 12.1667 25.5 13.5C23.139 13.3259 20.8056 12.9926 18.5 12.5C17.209 12.7373 16.209 12.404 15.5 11.5C16.1667 11.1667 16.8333 10.8333 17.5 10.5C19.9307 11.3154 22.264 10.9821 24.5 9.5Z"
            fill="#E47D18" />
        <path opacity="0.802" fill-rule="evenodd" clip-rule="evenodd"
            d="M0.5 9.5C1.70792 10.2341 3.04125 10.5674 4.5 10.5C4.5 11.5 4.5 12.5 4.5 13.5C3.16667 13.5 1.83333 13.5 0.5 13.5C0.5 12.1667 0.5 10.8333 0.5 9.5Z"
            fill="#E37B18" />
        <path opacity="0.694" fill-rule="evenodd" clip-rule="evenodd"
            d="M5.5 11.5C8.67269 12.3683 11.6727 12.3683 14.5 11.5C14.8333 11.5 15.1667 11.5 15.5 11.5C16.209 12.404 17.209 12.7373 18.5 12.5C18.5 12.8333 18.5 13.1667 18.5 13.5C17.6618 13.8417 17.3284 14.5084 17.5 15.5C16.1667 15.5 14.8333 15.5 13.5 15.5C13.5393 13.7761 13.206 13.4427 12.5 14.5C10.1667 14.5 7.83333 14.5 5.5 14.5C5.5 13.5 5.5 12.5 5.5 11.5Z"
            fill="#E07116" />
        <path opacity="0.917" fill-rule="evenodd" clip-rule="evenodd"
            d="M18.5 12.5C20.8056 12.9926 23.139 13.3259 25.5 13.5C25.5 14.5 25.5 15.5 25.5 16.5C23.0504 16.702 20.717 16.3686 18.5 15.5C18.5 14.8333 18.5 14.1667 18.5 13.5C18.5 13.1667 18.5 12.8333 18.5 12.5Z"
            fill="#DD6815" />
        <path opacity="0.846" fill-rule="evenodd" clip-rule="evenodd"
            d="M0.5 13.5C1.83333 13.5 3.16667 13.5 4.5 13.5C4.5 14.5 4.5 15.5 4.5 16.5C3.16667 16.5 1.83333 16.5 0.5 16.5C0.5 15.5 0.5 14.5 0.5 13.5Z"
            fill="#DD6A16" />
        <path opacity="0.867" fill-rule="evenodd" clip-rule="evenodd"
            d="M5.5 14.5C7.83333 14.5 10.1667 14.5 12.5 14.5C12.5 14.8333 12.5 15.1667 12.5 15.5C10.6208 16.3414 8.6208 16.6747 6.5 16.5C6.16667 16.5 5.83333 16.5 5.5 16.5C5.5 15.8333 5.5 15.1667 5.5 14.5Z"
            fill="#DC6716" />
        <path opacity="0.846" fill-rule="evenodd" clip-rule="evenodd"
            d="M26.5 13.5C27.8333 13.5 29.1667 13.5 30.5 13.5C30.5 14.5 30.5 15.5 30.5 16.5C29.1667 16.5 27.8333 16.5 26.5 16.5C26.5 15.5 26.5 14.5 26.5 13.5Z"
            fill="#DD6916" />
        <path opacity="0.461" fill-rule="evenodd" clip-rule="evenodd"
            d="M0.5 16.5C1.83333 16.5 3.16667 16.5 4.5 16.5C4.5 17.5 4.5 18.5 4.5 19.5C3.04125 19.4326 1.70792 19.7659 0.5 20.5C0.5 19.1667 0.5 17.8333 0.5 16.5Z"
            fill="#D65814" />
        <path opacity="0.733" fill-rule="evenodd" clip-rule="evenodd"
            d="M5.5 16.5C5.83333 16.5 6.16667 16.5 6.5 16.5C8.16667 17.1667 9.83333 17.8333 11.5 18.5C9.62642 19.2852 7.62642 19.9518 5.5 20.5C5.5 19.1667 5.5 17.8333 5.5 16.5Z"
            fill="#D55414" />
        <path opacity="0.508" fill-rule="evenodd" clip-rule="evenodd"
            d="M26.5 16.5C27.8333 16.5 29.1667 16.5 30.5 16.5C30.5 17.8333 30.5 19.1667 30.5 20.5C29.2921 19.7659 27.9587 19.4326 26.5 19.5C26.5 18.5 26.5 17.5 26.5 16.5Z"
            fill="#D65714" />
        <path opacity="0.714" fill-rule="evenodd" clip-rule="evenodd"
            d="M12.5 15.5C12.8333 15.5 13.1667 15.5 13.5 15.5C14.8333 15.5 16.1667 15.5 17.5 15.5C17.8333 15.5 18.1667 15.5 18.5 15.5C20.717 16.3686 23.0504 16.702 25.5 16.5C25.5 17.5 25.5 18.5 25.5 19.5C23.283 18.6314 20.9496 18.298 18.5 18.5C18.1667 18.5 17.8333 18.5 17.5 18.5C16.1667 18.5 14.8333 18.5 13.5 18.5C12.8333 18.5 12.1667 18.5 11.5 18.5C9.83333 17.8333 8.16667 17.1667 6.5 16.5C8.6208 16.6747 10.6208 16.3414 12.5 15.5Z"
            fill="#D85C14" />
        <path opacity="0.409" fill-rule="evenodd" clip-rule="evenodd"
            d="M13.5 18.5C14.8333 18.5 16.1667 18.5 17.5 18.5C17.5 19.5 17.5 20.5 17.5 21.5C16.1667 20.1667 14.8333 20.1667 13.5 21.5C13.5 20.8333 13.1667 20.5 12.5 20.5C12.8333 19.8333 13.1667 19.1667 13.5 18.5Z"
            fill="#D34F13" />
        <path opacity="0.759" fill-rule="evenodd" clip-rule="evenodd"
            d="M18.5 18.4995C20.9496 18.2975 23.283 18.6309 25.5 19.4995C25.5 20.1662 25.5 20.8328 25.5 21.4995C25.5 22.1662 25.1667 22.4995 24.5 22.4995C24.5 21.8328 24.1667 21.4995 23.5 21.4995C20.715 22.0833 19.0483 21.0833 18.5 18.4995Z"
            fill="#D24C13" />
        <path opacity="0.784" fill-rule="evenodd" clip-rule="evenodd"
            d="M11.5 18.5C12.1667 18.5 12.8333 18.5 13.5 18.5C13.1667 19.1667 12.8333 19.8333 12.5 20.5C10.6943 21.0241 9.02763 21.6908 7.5 22.5C6.50838 22.6716 5.84171 22.3382 5.5 21.5C5.5 21.1667 5.5 20.8333 5.5 20.5C7.62642 19.9518 9.62642 19.2852 11.5 18.5Z"
            fill="#D14A12" />
        <path opacity="0.618" fill-rule="evenodd" clip-rule="evenodd"
            d="M12.5 20.5C13.1667 20.5 13.5 20.8333 13.5 21.5C13.1667 22.1667 12.8333 22.8333 12.5 23.5C11.8333 23.5 11.1667 23.5 10.5 23.5C10.1667 23.5 9.83333 23.5 9.5 23.5C9.16667 23.5 8.83333 23.5 8.5 23.5C8.5 22.8333 8.16667 22.5 7.5 22.5C9.02763 21.6908 10.6943 21.0241 12.5 20.5Z"
            fill="#CD3F11" />
        <path opacity="0.356" fill-rule="evenodd" clip-rule="evenodd"
            d="M17.5 21.5C17.8333 22.1667 18.1667 22.8333 18.5 23.5C16.5 23.5 14.5 23.5 12.5 23.5C12.8333 22.8333 13.1667 22.1667 13.5 21.5C14.8333 20.1667 16.1667 20.1667 17.5 21.5Z"
            fill="#CD3F11" />
        <path opacity="0.578" fill-rule="evenodd" clip-rule="evenodd"
            d="M17.5 18.5C17.8333 18.5 18.1667 18.5 18.5 18.5C19.0483 21.0838 20.715 22.0838 23.5 21.5C23.5 21.8333 23.5 22.1667 23.5 22.5C23.1667 22.5 22.8333 22.5 22.5 22.5C21.8333 22.5 21.5 22.8333 21.5 23.5C21.1667 23.5 20.8333 23.5 20.5 23.5C19.8333 23.5 19.1667 23.5 18.5 23.5C18.1667 22.8333 17.8333 22.1667 17.5 21.5C17.5 20.5 17.5 19.5 17.5 18.5Z"
            fill="#CE4011" />
        <path opacity="0.909" fill-rule="evenodd" clip-rule="evenodd"
            d="M4.49964 19.4997C4.32806 20.4913 4.66139 21.158 5.49964 21.4997C5.84135 22.3379 6.50802 22.6713 7.49964 22.4997C7.49964 22.833 7.49964 23.1664 7.49964 23.4997C5.26429 23.205 3.26429 23.5383 1.49964 24.4997C0.565163 23.4321 0.231829 22.0987 0.499638 20.4997C1.70756 19.7656 3.04089 19.4323 4.49964 19.4997Z"
            fill="#CE4211" />
        <path opacity="0.909" fill-rule="evenodd" clip-rule="evenodd"
            d="M26.5 19.4997C27.9587 19.4323 29.2921 19.7656 30.5 20.4997C30.7678 22.0987 30.4345 23.4321 29.5 24.4997C27.7354 23.5383 25.7354 23.205 23.5 23.4997C23.5 23.1664 23.5 22.833 23.5 22.4997C23.8333 22.4997 24.1667 22.4997 24.5 22.4997C25.1667 22.4997 25.5 22.1664 25.5 21.4997C26.3382 21.158 26.6716 20.4913 26.5 19.4997Z"
            fill="#CE4211" />
        <path opacity="0.778" fill-rule="evenodd" clip-rule="evenodd"
            d="M1.5 24.5002C3.26465 23.5388 5.26465 23.2055 7.5 23.5002C7.83333 23.5002 8.16667 23.5002 8.5 23.5002C8.83333 23.5002 9.16667 23.5002 9.5 23.5002C9.5 23.8335 9.5 24.1669 9.5 24.5002C7.70848 24.3662 6.04181 24.6995 4.5 25.5002C3.39105 25.4433 2.39105 25.11 1.5 24.5002Z"
            fill="#C93410" />
        <path opacity="0.319" fill-rule="evenodd" clip-rule="evenodd"
            d="M10.5 23.5C11.1667 23.5 11.8333 23.5 12.5 23.5C14.5 23.5 16.5 23.5 18.5 23.5C18.5 23.8333 18.5 24.1667 18.5 24.5C18.5 24.8333 18.5 25.1667 18.5 25.5C18.5 26.1667 18.5 26.8333 18.5 27.5C16.901 27.7678 15.5676 27.4345 14.5 26.5C17.8056 25.5772 17.4723 25.5772 13.5 26.5C13.1667 26.5 12.8333 26.5 12.5 26.5C12.5 26.1667 12.5 25.8333 12.5 25.5C12.1667 24.1667 11.8333 24.1667 11.5 25.5C10.8333 25.5 10.5 25.1667 10.5 24.5C10.5 24.1667 10.5 23.8333 10.5 23.5Z"
            fill="#C93610" />
        <path opacity="0.778" fill-rule="evenodd" clip-rule="evenodd"
            d="M22.5 22.5C22.5 23.1667 22.8333 23.5 23.5 23.5C25.7354 23.2053 27.7354 23.5386 29.5 24.5C28.609 25.1098 27.609 25.4431 26.5 25.5C24.1667 25.5 21.8333 25.5 19.5 25.5C19.5 24.8333 19.1667 24.5 18.5 24.5C18.5 24.1667 18.5 23.8333 18.5 23.5C19.1667 23.5 19.8333 23.5 20.5 23.5C20.8333 24.8333 21.1667 24.8333 21.5 23.5C21.5 22.8333 21.8333 22.5 22.5 22.5Z"
            fill="#C93410" />
        <path opacity="0.902" fill-rule="evenodd" clip-rule="evenodd"
            d="M9.5 24.4995C9.83333 24.4995 10.1667 24.4995 10.5 24.4995C10.5 25.1662 10.8333 25.4995 11.5 25.4995C11.8333 25.4995 12.1667 25.4995 12.5 25.4995C12.5 25.8328 12.5 26.1662 12.5 26.4995C11.1667 27.1662 9.83333 27.8328 8.5 28.4995C7.12835 27.4879 5.79502 26.4879 4.5 25.4995C6.04181 24.6988 7.70848 24.3655 9.5 24.4995Z"
            fill="#C62D0F" />
        <path opacity="0.902" fill-rule="evenodd" clip-rule="evenodd"
            d="M18.5 25.5C18.8333 25.5 19.1667 25.5 19.5 25.5C21.8333 25.5 24.1667 25.5 26.5 25.5C25.205 26.4884 23.8717 27.4884 22.5 28.5C21.4324 27.5655 20.099 27.2322 18.5 27.5C18.5 26.8333 18.5 26.1667 18.5 25.5Z"
            fill="#C52B0F" />
        <path opacity="0.983" fill-rule="evenodd" clip-rule="evenodd"
            d="M12.5 26.5C12.8333 26.5 13.1667 26.5 13.5 26.5C13.8333 26.5 14.1667 26.5 14.5 26.5C15.5676 27.4345 16.901 27.7678 18.5 27.5C20.099 27.2322 21.4324 27.5655 22.5 28.5C20.6316 29.2632 18.9649 30.2632 17.5 31.5C16.1667 31.5 14.8333 31.5 13.5 31.5C12.0351 30.2632 10.3684 29.2632 8.5 28.5C9.83333 27.8333 11.1667 27.1667 12.5 26.5Z"
            fill="#C01E0D" />
    </g>
    <defs>
        <clipPath id="clip0_4918_315">
            <rect width="32" height="32" fill="white" />
        </clipPath>
    </defs>
</svg>