<svg width="32" height="32" viewBox="0 0 32 32" fill="none" xmlns="http://www.w3.org/2000/svg">
    <path fill-rule="evenodd" clip-rule="evenodd"
        d="M0 10C0 4.47715 4.47715 0 10 0C14 0 18 0 22 0C27.5228 0 32 4.47715 32 10C32 14 32 18 32 22C32 27.5228 27.5228 32 22 32C18 32 14 32 10 32C4.47715 32 0 27.5228 0 22C0 18 0 14 0 10Z"
        fill="#06232C" />
    <path fill-rule="evenodd" clip-rule="evenodd"
        d="M2.98817 15.3265L2.98742 15.5879H4.10981C4.33508 15.5879 4.51779 15.7695 4.51779 15.9933V16.7449C4.51779 16.9687 4.33508 17.1503 4.10981 17.1503H2.98742V19.6383C2.98742 19.8622 2.80471 20.0437 2.57944 20.0437H1.53737C1.312 20.0437 1.12939 19.8622 1.12939 19.6383V15.3038H1.13014C1.14054 13.2475 2.53509 11.5483 4.33062 11.2978C4.57381 11.2639 4.78985 11.4567 4.78985 11.7008V12.8096C4.78985 13.0022 4.65265 13.1642 4.46357 13.2058C3.62533 13.3901 2.98817 14.2709 2.98817 15.3265ZM27.211 16.5867H27.2101V19.6394C27.2101 19.8648 27.4004 20.0477 27.6351 20.0477H28.7112C28.9493 20.0477 29.1409 19.8597 29.136 19.6309L29.0706 16.5867C29.0859 15.619 29.7081 14.8145 30.5277 14.6364C30.7257 14.5934 30.8706 14.4314 30.8706 14.2363V13.252C30.8706 13.0043 30.6426 12.8111 30.3876 12.8462C28.6079 13.0914 27.2281 14.6727 27.211 16.5867ZM24.5453 15.8845C24.4868 15.271 23.9167 14.6716 23.1419 14.6716C22.3524 14.6716 21.7092 15.2567 21.6214 15.8845H24.5453ZM26.0903 18.8041C26.2599 18.9695 26.2527 19.2405 26.0744 19.3966C25.3853 20 24.4176 20.3292 23.4718 20.3292C21.352 20.3292 19.7585 18.9023 19.7585 16.7336C19.7585 14.8072 21.1034 13.1235 23.2086 13.1235C25.1677 13.1235 26.5565 14.7359 26.5565 16.6621C26.5565 16.7088 26.5555 16.7557 26.5537 16.802C26.545 17.0194 26.3594 17.1901 26.1365 17.1901H21.6005C21.7029 18.1603 22.507 18.831 23.5157 18.831C24.1414 18.831 24.6696 18.5631 25.0317 18.2763C25.1954 18.1466 25.4342 18.1637 25.5833 18.3092L26.0903 18.8041ZM17.789 13.3648L15.9673 17.3642L14.1456 13.3648C14.0787 13.2181 13.9306 13.1235 13.7674 13.1235H12.7219C12.4196 13.1235 12.2189 13.4325 12.3453 13.7034L15.2027 19.8337C15.2704 19.9788 15.4175 20.0719 15.5794 20.0719H16.3551C16.5171 20.0719 16.6642 19.9788 16.7318 19.8337L19.5894 13.7034C19.7156 13.4325 19.515 13.1235 19.2126 13.1235H18.1672C18.0039 13.1235 17.8559 13.2181 17.789 13.3648ZM10.3585 15.8845C10.3 15.271 9.7299 14.6716 8.95505 14.6716C8.16559 14.6716 7.52232 15.2567 7.43464 15.8845H10.3585ZM11.8025 18.7055C12.0339 18.9314 12.0129 19.3032 11.7583 19.504C11.0805 20.039 10.1732 20.3292 9.28495 20.3292C7.1652 20.3292 5.57171 18.9023 5.57171 16.7336C5.57171 14.8072 6.91665 13.1235 9.02187 13.1235C10.9808 13.1235 12.3697 14.7359 12.3697 16.6621C12.3697 16.7088 12.3687 16.7557 12.3669 16.8021C12.3582 17.0194 12.1726 17.1901 11.9497 17.1901H7.41374C7.51611 18.1603 8.3201 18.831 9.32892 18.831C9.90315 18.831 10.3955 18.6053 10.7524 18.3463C10.9752 18.1849 11.2828 18.1983 11.4791 18.3899L11.8025 18.7055Z"
        fill="#FAFAFA" />
</svg>