<svg width="32" height="32" viewBox="0 0 32 32" fill="none" xmlns="http://www.w3.org/2000/svg">
    <rect width="32" height="32" fill="#039BE5" />
    <path fill-rule="evenodd" clip-rule="evenodd"
        d="M2.89798 9.14316C2.33174 8.90665 1.86164 8.4869 1.56326 7.95142C1.26489 7.41593 1.15558 6.79584 1.25292 6.19084C1.37614 4.97301 2.38043 3.93355 3.87147 4.4379C4.3173 4.58265 4.71986 4.83623 5.04264 5.17564C5.36542 5.51505 5.5982 5.92954 5.71986 6.38151C6.00944 6.2954 6.2867 6.19699 6.5578 6.09858C7.09999 5.90176 7.62986 5.71109 8.1967 5.61883C9.04576 5.52529 9.90501 5.6241 10.7105 5.90791C11.0555 6.00632 11.3944 6.11704 11.7333 6.2339L12.3001 6.41842C13.0703 6.66444 13.3229 7.00273 13.3722 7.82077C13.4769 9.4999 12.8423 10.9576 12.0167 12.3477C10.8972 14.1632 9.40656 15.7225 7.64219 16.9238C6.13267 18.0001 4.79567 19.261 3.97621 20.9832C3.55281 21.8695 3.34589 22.8433 3.3724 23.8248C2.01692 23.1667 0.784657 22.4717 0.168527 21.0447C-0.176506 20.2451 0.0576232 19.4947 0.427301 18.769L0.636786 18.363C1.06808 17.5327 1.51169 16.7023 1.55482 15.7305C1.58563 15.0417 1.65956 14.3589 1.73966 13.6762C1.90246 12.1143 2.29483 10.5848 2.90415 9.13701L2.89798 9.14316ZM6.21893 15.4599C5.47957 15.4599 4.92505 14.8817 4.93738 14.1068C4.93738 13.3564 5.54118 12.7413 6.24973 12.7598C6.59313 12.7814 6.91575 12.9314 7.15327 13.1799C7.39079 13.4284 7.52577 13.7572 7.53128 14.1006C7.53465 14.4537 7.39901 14.7939 7.15356 15.0482C6.90811 15.3024 6.57249 15.4502 6.21893 15.4599ZM26.2863 6.40612C26.6806 5.23749 27.42 4.53016 28.6153 4.35179C28.9324 4.28521 29.2622 4.31328 29.5635 4.4325C29.8648 4.55171 30.1243 4.75681 30.3096 5.02222C30.5202 5.31554 30.6699 5.64793 30.7499 5.99986C30.8298 6.35178 30.8385 6.71612 30.7754 7.07143C30.7122 7.42675 30.5785 7.76587 30.3821 8.06885C30.1858 8.37182 29.9307 8.63253 29.6319 8.83563C29.5271 8.90944 29.4224 8.9771 29.3053 9.04475L29.1267 9.16162C29.69 10.493 30.0634 11.8967 30.2357 13.3318L30.2973 13.7623C30.3774 14.3528 30.4575 14.9432 30.4698 15.5337C30.514 16.4318 30.7762 17.3056 31.2338 18.0801C31.4433 18.4676 31.6343 18.8674 31.8007 19.2733C31.9702 19.6624 32.0332 20.0895 31.9835 20.5109C31.9337 20.9323 31.7728 21.333 31.5172 21.6721C30.8025 22.6869 29.7921 23.2959 28.6337 23.8371C28.6337 23.0006 28.5536 22.2379 28.2764 21.5183C27.6079 19.8782 26.4834 18.4633 25.0355 17.4404C23.3104 16.1488 21.6283 14.8387 20.4207 13.0119C19.4349 11.5358 18.6524 9.9735 18.6278 8.1283C18.6278 7.95609 18.6401 7.77772 18.6709 7.6055C18.7757 6.99043 19.0468 6.55988 19.7245 6.40612C20.1558 6.31386 20.5624 6.17239 20.9814 6.02478C21.2402 5.93867 21.5051 5.84026 21.7701 5.76645C23.0886 5.37896 24.3578 5.63113 25.5901 6.13549L26.0522 6.31386L26.2863 6.39997V6.40612ZM24.4133 14.1191C24.429 13.7567 24.5836 13.4143 24.845 13.1625C25.1064 12.9107 25.4548 12.7687 25.818 12.7659C26.1627 12.793 26.4853 12.946 26.724 13.1957C26.9627 13.4453 27.1008 13.7741 27.1119 14.1191C27.1119 14.8141 26.3849 15.503 25.6948 15.4722C25.3513 15.4449 25.0302 15.2915 24.7935 15.0415C24.5568 14.7916 24.4213 14.4629 24.4133 14.1191ZM22.608 22.8899C23.8033 22.2133 25.5285 22.3117 26.6868 23.9724C26.9332 23.4804 26.7977 23.0191 26.6621 22.5885L26.6252 22.4471C26.2555 21.1616 25.3929 20.2082 24.4256 19.3471C23.9635 18.9289 23.4644 18.5598 22.9653 18.1846C22.3573 17.7496 21.777 17.2771 21.2279 16.77C19.3487 14.9678 17.8391 12.9197 17.0813 10.3856C16.7527 9.32777 16.6582 8.21134 16.804 7.11344C16.2495 7.1934 15.695 7.19955 15.1405 7.12575C15.4239 8.84793 15.0173 10.3794 14.3395 11.8618C13.1073 14.5742 11.1603 16.6839 8.76354 18.3999C7.67959 19.1259 6.7413 20.048 5.99712 21.1185C5.50956 21.8362 5.23218 22.6755 5.19615 23.5419C6.6379 22.1149 8.29529 22.3794 9.201 23.0314C10.3593 23.874 10.7413 25.178 10.2484 26.7095C13.8505 27.9785 17.7724 28.0196 21.4004 26.8263C20.698 25.1041 21.4065 23.5849 22.608 22.8899ZM22.8544 26.3773C22.6917 26.1499 22.5947 25.8821 22.5741 25.6033C22.5534 25.3246 22.6099 25.0455 22.7374 24.7966C23.0454 24.1754 23.5753 23.9355 24.2592 23.997C24.9616 24.0524 25.3436 24.4768 25.5839 25.1349C25.0047 25.4978 24.3824 25.75 23.7417 26.0083C23.4521 26.1252 23.1563 26.242 22.8544 26.3773ZM8.80667 26.2359C7.86576 25.9231 6.96106 25.5107 6.10802 25.0057C6.16494 24.81 6.26215 24.6284 6.39345 24.4723C6.52474 24.3163 6.68722 24.1893 6.87049 24.0996C7.05376 24.0099 7.25378 23.9593 7.45775 23.9512C7.66172 23.9431 7.86514 23.9775 8.05499 24.0524C8.68345 24.2861 9.41048 25.2948 8.80667 26.2359Z"
        fill="#FAFAFA" />
</svg>