<svg width="32" height="32" viewBox="0 0 32 32" fill="none" xmlns="http://www.w3.org/2000/svg">
    <path
        d="M27.0663 11.1967C26.4396 11.1518 25.6405 10.9771 24.6683 10.6727C23.6951 10.3675 22.8737 10.0467 22.2033 9.70864L21.3304 11.2979C21.8046 11.5305 22.3593 11.7553 22.9946 11.9732C20.8426 12.9286 18.7558 14.1176 16.7349 15.5426C16.4459 15.7458 16.1647 15.9525 15.8878 16.16C15.8724 15.8495 15.8561 15.5287 15.839 15.2002C16.8095 14.4194 17.7012 13.5253 18.5131 12.5154C19.5634 11.2079 20.3856 9.83832 20.9781 8.4064C21.5696 6.9745 21.8672 5.62646 21.8672 4.36403C21.8672 3.01081 21.5319 1.94553 20.8606 1.16731C20.1901 0.389105 19.2847 0 18.1436 0C16.5557 0 15.3365 0.727194 14.4877 2.18245C13.6381 3.63683 13.1905 5.69477 13.1459 8.35624C13.1236 9.41544 13.1673 10.9157 13.2797 12.8543C13.3088 13.2642 13.3431 13.7847 13.3808 14.4133C12.9933 14.6571 12.6358 14.8534 12.3074 15.0022C11.6369 15.3074 10.9433 15.4596 10.2282 15.4596C9.51319 15.4596 8.90272 15.2054 8.46718 14.6978C8.03077 14.1902 7.76842 13.5089 7.67925 12.652L5.6001 13.6999C5.68926 14.8734 6.16511 15.8314 7.02506 16.575C7.88587 17.3204 8.93188 17.6913 10.1614 17.6913C10.9004 17.6913 11.6592 17.5452 12.442 17.2512C12.7841 17.1232 13.1373 16.9615 13.5009 16.7687C13.5197 17.2287 13.5377 17.6662 13.5532 18.083C12.3117 19.2123 11.2262 20.3951 10.296 21.6317C8.64037 23.8306 7.81299 25.9446 7.81299 27.975C7.81299 29.2149 8.13709 30.1954 8.78613 30.9174C9.43431 31.6386 10.2951 32 11.3686 32C12.7104 32 13.7829 31.5089 14.5889 30.5283C15.3931 29.5478 15.8629 28.1098 15.9975 26.2153C16.0858 25.0878 16.1262 23.8029 16.115 22.3597C16.1081 21.5011 16.0722 20.287 16.0061 18.7186C16.6423 18.1928 17.3213 17.681 18.0432 17.1838C19.9089 15.8988 21.8543 14.7894 23.8795 13.8522C23.6205 14.4427 23.407 15.0013 23.2425 15.5262L25.0206 16.0338C25.2221 15.3575 25.529 14.5672 25.9432 13.6662C26.3564 12.7644 26.7757 12.0536 27.2001 11.5348L27.0663 11.1967ZM15.628 8.38912C15.6503 6.42715 15.8801 4.91137 16.3165 3.84003C16.752 2.76956 17.3505 2.2326 18.111 2.2326C18.5346 2.2326 18.8604 2.41332 19.0833 2.77389C19.3062 3.13532 19.4185 3.68698 19.4185 4.43061C19.4185 5.46822 19.2119 6.56204 18.7977 7.7112C18.3828 8.86208 17.8195 9.94376 17.1044 10.959C16.6731 11.5694 16.2093 12.1176 15.7137 12.6062L15.6949 12.2101C15.628 10.4289 15.6058 9.15432 15.628 8.38736V8.38912ZM13.5489 26.1825C13.4366 27.2866 13.1974 28.1608 12.8278 28.8033C12.4591 29.4466 11.9944 29.7674 11.4354 29.7674C11.077 29.7674 10.7924 29.6213 10.5806 29.3282C10.368 29.0342 10.2617 28.5828 10.2617 27.975C10.2617 26.1703 10.9776 24.3217 12.4086 22.4271C12.7901 21.9222 13.2051 21.4276 13.65 20.9425C13.6646 21.4751 13.6758 21.9421 13.6818 22.3433C13.7041 23.7752 13.6595 25.0549 13.548 26.1825H13.5489Z"
        fill="#8EDE65" />
</svg>