<svg width="32" height="32" viewBox="0 0 32 32" fill="none" xmlns="http://www.w3.org/2000/svg">
<g clip-path="url(#clip0_4105_576)">
<path fill-rule="evenodd" clip-rule="evenodd" d="M31.7867 2.34684C31.7867 5.52314 31.7867 8.69944 31.7867 11.8757C31.6539 11.7239 31.6064 11.5343 31.6445 11.3068C31.6683 9.36257 31.6445 7.41886 31.5734 5.47573C25.7521 5.57015 19.9448 5.66497 14.1512 5.76018C13.1082 5.76018 12.0653 5.76018 11.0223 5.76018C7.49123 5.61828 3.93568 5.57088 0.355633 5.61796C0.203027 6.70414 0.155619 8.64784 0.213411 11.4491C0.213411 12.3024 0.213411 13.1557 0.213411 14.0091C0.213411 15.858 0.213411 17.7068 0.213411 19.5557C0.213411 20.8357 0.213411 22.1157 0.213411 23.3957C0.213411 25.4817 0.213411 27.5675 0.213411 29.6535C0.0476684 20.4803 0.0239646 11.2833 0.1423 2.0624C0.416725 1.05944 1.05672 0.419439 2.0623 0.1424C11.3067 0.0475853 20.5512 0.0475853 29.7956 0.1424C30.9344 0.45135 31.598 1.18616 31.7867 2.34684Z" fill="#E02E6F"/>
<path fill-rule="evenodd" clip-rule="evenodd" d="M11.0222 5.75991C9.80661 6.17129 9.0955 7.02462 8.88882 8.31991C8.74764 9.47901 8.70022 10.6642 8.7466 11.8755C5.94956 11.8755 3.15253 11.8755 0.355487 11.8755C0.389237 11.6919 0.341829 11.5496 0.213264 11.4488C0.155472 8.64758 0.202881 6.70387 0.355487 5.61769C3.93553 5.57061 7.49109 5.61802 11.0222 5.75991Z" fill="#DD2967"/>
<path fill-rule="evenodd" clip-rule="evenodd" d="M31.6444 11.3067C31.5116 11.4585 31.4641 11.6482 31.5022 11.8756C28.7051 11.8756 25.9081 11.8756 23.1111 11.8756C23.1448 11.692 23.0974 11.5498 22.9688 11.4489C22.9215 11.4489 22.874 11.4489 22.8266 11.4489C19.1059 11.307 15.3607 11.2596 11.5911 11.3067C11.5911 10.4534 11.5911 9.60003 11.5911 8.7467C11.7295 8.67748 11.8717 8.60637 12.0177 8.53336C14.0141 8.55505 15.9577 8.43654 17.8488 8.17781C18.0384 7.4667 18.0384 6.75559 17.8488 6.04447C16.6088 6.00333 15.3762 5.90851 14.1511 5.76003C19.9446 5.66483 25.752 5.57001 31.5733 5.47559C31.6444 7.41871 31.6681 9.36242 31.6444 11.3067Z" fill="#DD2967"/>
<path fill-rule="evenodd" clip-rule="evenodd" d="M11.0222 5.75977C12.0652 5.75977 13.1082 5.75977 14.1511 5.75977C15.3762 5.90825 16.6089 6.00307 17.8489 6.04421C17.8489 6.70792 17.8489 7.37161 17.8489 8.03532C15.9748 7.98856 14.1259 8.03596 12.3022 8.17754C11.8945 8.15894 11.6575 8.34858 11.5911 8.74643C11.4503 9.62033 11.4029 10.5211 11.4489 11.4487C15.2415 11.4487 19.034 11.4487 22.8267 11.4487C22.874 11.4487 22.9215 11.4487 22.9689 11.4487C23.009 12.2204 22.9616 12.979 22.8267 13.7242C21.5255 15.2837 20.2928 16.8955 19.1289 18.5598C18.7163 18.9597 18.337 19.3864 17.9911 19.8398C17.9139 19.8483 17.8665 19.8957 17.8489 19.982C19.5055 20.1241 21.1647 20.1714 22.8267 20.1242C22.8267 20.788 22.8267 21.4516 22.8267 22.1153C20.1244 22.1153 17.4222 22.1153 14.72 22.1153C14.5796 21.4319 14.5321 20.7208 14.5778 19.982C16.2866 17.9882 17.9459 15.9497 19.5556 13.8664C19.6504 13.8664 19.6978 13.819 19.6978 13.7242C19.775 13.7157 19.8224 13.6683 19.84 13.582C17.0199 13.3931 14.2228 13.3931 11.4489 13.582C11.4489 16.4264 11.4489 19.2709 11.4489 22.1153C10.643 22.1153 9.83704 22.1153 9.03111 22.1153C8.88929 19.2481 8.84189 16.3563 8.88889 13.4398C8.88889 11.7331 8.88889 10.0264 8.88889 8.31977C9.09557 7.02448 9.80668 6.17114 11.0222 5.75977Z" fill="#FEFCFC"/>
<path fill-rule="evenodd" clip-rule="evenodd" d="M12.3022 8.178C14.1511 8.178 16 8.178 17.8488 8.178C15.9577 8.43673 14.0141 8.55525 12.0177 8.53356C11.8717 8.60656 11.7295 8.67767 11.5911 8.74689C11.6574 8.34904 11.8945 8.1594 12.3022 8.178Z" fill="#9F1745"/>
<path fill-rule="evenodd" clip-rule="evenodd" d="M11.5911 8.74658C11.5911 9.59992 11.5911 10.4532 11.5911 11.3066C15.3607 11.2595 19.106 11.3069 22.8267 11.4488C19.034 11.4488 15.2415 11.4488 11.4489 11.4488C11.4029 10.5212 11.4503 9.62048 11.5911 8.74658Z" fill="#E35C89"/>
<path fill-rule="evenodd" clip-rule="evenodd" d="M8.88893 8.31982C8.88893 10.0265 8.88893 11.7332 8.88893 13.4398C8.74853 14.1233 8.70113 14.8343 8.74671 15.5732C5.94967 15.5732 3.15264 15.5732 0.355601 15.5732C0.400397 15.0226 0.35299 14.5011 0.213379 14.0087C0.213379 13.1554 0.213379 12.302 0.213379 11.4487C0.341944 11.5495 0.389352 11.6918 0.355601 11.8754C3.15264 11.8754 5.94967 11.8754 8.74671 11.8754C8.70033 10.6641 8.74775 9.47892 8.88893 8.31982Z" fill="#DA2660"/>
<path fill-rule="evenodd" clip-rule="evenodd" d="M31.6445 11.3066C31.6064 11.5341 31.6539 11.7237 31.7867 11.8755C31.7867 13.914 31.7867 15.9526 31.7867 17.9911C31.7212 16.8216 31.6265 16.0158 31.5023 15.5733C28.2312 15.5733 24.9601 15.5733 21.689 15.5733C22.0683 14.9571 22.4474 14.3407 22.8267 13.7244C22.9617 12.9792 23.0091 12.2206 22.969 11.4489C23.0975 11.5497 23.1449 11.6919 23.1112 11.8755C25.9083 11.8755 28.7052 11.8755 31.5023 11.8755C31.4642 11.6481 31.5117 11.4585 31.6445 11.3066Z" fill="#DA2660"/>
<path fill-rule="evenodd" clip-rule="evenodd" d="M11.449 13.5821C14.2229 13.3932 17.02 13.3932 19.8401 13.5821C19.8225 13.6684 19.7751 13.7158 19.6979 13.7243C16.973 13.5825 14.2233 13.5351 11.449 13.5821Z" fill="#BD7D8C"/>
<path fill-rule="evenodd" clip-rule="evenodd" d="M11.449 13.582C14.2233 13.535 16.973 13.5824 19.6979 13.7242C19.6979 13.819 19.6505 13.8664 19.5556 13.8664C16.9008 13.8664 14.2461 13.8664 11.5912 13.8664C11.5912 15.5731 11.5912 17.2798 11.5912 18.9864C11.6374 20.0558 11.59 21.0987 11.449 22.1153C11.449 19.2709 11.449 16.4264 11.449 13.582Z" fill="#B22D54"/>
<path fill-rule="evenodd" clip-rule="evenodd" d="M0.213379 14.0088C0.35299 14.5012 0.400397 15.0227 0.355601 15.5732C3.15264 15.5732 5.94967 15.5732 8.74671 15.5732C8.74671 17.4221 8.74671 19.271 8.74671 21.1199C5.94967 21.1199 3.15264 21.1199 0.355601 21.1199C0.400397 20.5694 0.35299 20.0478 0.213379 19.5555C0.213379 17.7066 0.213379 15.8577 0.213379 14.0088Z" fill="#D8245A"/>
<path fill-rule="evenodd" clip-rule="evenodd" d="M19.5555 13.8667C17.9458 15.95 16.2865 17.9884 14.5777 19.9823C14.4393 20.3304 14.392 20.7097 14.4355 21.12C13.5348 21.12 12.634 21.12 11.7333 21.12C11.7789 20.3812 11.7315 19.6701 11.5911 18.9867C11.5911 17.28 11.5911 15.5734 11.5911 13.8667C14.2459 13.8667 16.9006 13.8667 19.5555 13.8667Z" fill="#D8255C"/>
<path fill-rule="evenodd" clip-rule="evenodd" d="M31.7868 17.991C31.8338 21.9977 31.7865 25.9799 31.6445 29.9377C31.6445 27.757 31.6445 25.5762 31.6445 23.3955C31.7054 22.2462 31.6579 21.4877 31.5023 21.1199C28.7052 21.1199 25.9083 21.1199 23.1112 21.1199C23.1542 20.756 23.1067 20.424 22.969 20.1244C21.3097 20.0295 19.6505 19.9348 17.9912 19.8399C18.3371 19.3865 18.7164 18.9598 19.129 18.5599C19.9823 17.5644 20.8357 16.5688 21.689 15.5732C24.9601 15.5732 28.2312 15.5732 31.5023 15.5732C31.6265 16.0157 31.7212 16.8215 31.7868 17.991Z" fill="#D7245A"/>
<path fill-rule="evenodd" clip-rule="evenodd" d="M22.8267 13.7246C22.4474 14.3409 22.0682 14.9572 21.6889 15.5735C20.8356 16.5691 19.9822 17.5646 19.1289 18.5602C20.2929 16.8959 21.5255 15.2841 22.8267 13.7246Z" fill="#A22247"/>
<path fill-rule="evenodd" clip-rule="evenodd" d="M8.88893 13.4399C8.84193 16.3565 8.88933 19.2483 9.03116 22.1155C9.37464 22.3024 9.77761 22.3972 10.24 22.3999C10.7025 22.3972 11.1055 22.3024 11.4489 22.1155C11.59 21.0989 11.6374 20.056 11.5912 18.9866C11.7316 19.67 11.779 20.3811 11.7334 21.1199C12.6341 21.1199 13.5349 21.1199 14.4356 21.1199C14.3921 20.7096 14.4394 20.3303 14.5778 19.9822C14.5322 20.721 14.5797 21.4321 14.72 22.1155C16.0202 22.3049 17.3714 22.3997 18.7734 22.3999C20.1754 22.3997 21.5265 22.3049 22.8267 22.1155C22.9669 21.4798 23.0143 20.816 22.9689 20.1244C23.1066 20.424 23.1541 20.756 23.1112 21.1199C25.9082 21.1199 28.7052 21.1199 31.5023 21.1199C31.6579 21.4877 31.7054 22.2462 31.6445 23.3955C31.5047 23.9357 31.4572 24.5045 31.5023 25.1022C29.5112 25.1022 27.52 25.1022 25.5289 25.1022C25.5513 24.9069 25.5275 24.7172 25.4578 24.5333C25.428 24.7549 25.3568 24.9444 25.2445 25.1022C25.2445 24.9126 25.2445 24.7229 25.2445 24.5333C23.5852 24.5333 21.926 24.5333 20.2667 24.5333C20.2667 25.0548 20.2667 25.5762 20.2667 26.0977C20.1497 25.6032 20.0786 25.0817 20.0534 24.5333C19.9837 24.7172 19.9599 24.9069 19.9823 25.1022C19.5556 25.1022 19.1289 25.1022 18.7023 25.1022C18.7246 24.9069 18.7008 24.7172 18.6312 24.5333C18.606 25.0817 18.5349 25.6032 18.4178 26.0977C18.4178 25.5762 18.4178 25.0548 18.4178 24.5333C16.7585 24.5333 15.0994 24.5333 13.44 24.5333C13.44 25.0548 13.44 25.5762 13.44 26.0977C13.323 25.6032 13.2519 25.0817 13.2267 24.5333C13.157 24.7172 13.1333 24.9069 13.1556 25.1022C12.7289 25.1022 12.3023 25.1022 11.8756 25.1022C11.8979 24.9069 11.8742 24.7172 11.8045 24.5333C11.7793 25.0817 11.7082 25.6032 11.5912 26.0977C11.5912 25.5762 11.5912 25.0548 11.5912 24.5333C9.93189 24.5333 8.27264 24.5333 6.61338 24.5333C6.61338 24.9126 6.61338 25.2917 6.61338 25.6711C6.48047 25.5192 6.43307 25.3296 6.47116 25.1022C4.43264 25.1022 2.39411 25.1022 0.355601 25.1022C0.40065 24.5045 0.353243 23.9357 0.213379 23.3955C0.213379 22.1155 0.213379 20.8355 0.213379 19.5555C0.35299 20.0479 0.400397 20.5694 0.355601 21.1199C3.15264 21.1199 5.94967 21.1199 8.74671 21.1199C8.74671 19.2711 8.74671 17.4222 8.74671 15.5733C8.70113 14.8344 8.74853 14.1234 8.88893 13.4399Z" fill="#D42153"/>
<path fill-rule="evenodd" clip-rule="evenodd" d="M17.9911 19.8398C19.6504 19.9347 21.3096 20.0294 22.9689 20.1243C23.0142 20.8159 22.9669 21.4797 22.8267 22.1154C22.8267 21.4516 22.8267 20.788 22.8267 20.1243C21.1646 20.1715 19.5055 20.1241 17.8489 19.9821C17.8665 19.8957 17.9139 19.8484 17.9911 19.8398Z" fill="#E8A4B3"/>
<path fill-rule="evenodd" clip-rule="evenodd" d="M9.03101 22.1157C9.83694 22.1157 10.6429 22.1157 11.4488 22.1157C11.1053 22.3026 10.7023 22.3975 10.2399 22.4002C9.77746 22.3975 9.37449 22.3026 9.03101 22.1157Z" fill="#992041"/>
<path fill-rule="evenodd" clip-rule="evenodd" d="M14.72 22.1157C17.4222 22.1157 20.1244 22.1157 22.8266 22.1157C21.5264 22.3052 20.1753 22.3999 18.7733 22.4002C17.3713 22.3999 16.0202 22.3052 14.72 22.1157Z" fill="#992041"/>
<path fill-rule="evenodd" clip-rule="evenodd" d="M0.213379 23.3955C0.353243 23.9357 0.40065 24.5046 0.355601 25.1022C2.39411 25.1022 4.43264 25.1022 6.47116 25.1022C6.43307 25.3296 6.48047 25.5192 6.61338 25.6711C6.61338 25.8133 6.61338 25.9555 6.61338 26.0977C6.61338 26.24 6.61338 26.3822 6.61338 26.5244C8.27264 26.5244 9.93189 26.5244 11.5912 26.5244C11.5912 26.3822 11.5912 26.24 11.5912 26.0977C11.7082 25.6032 11.7793 25.0817 11.8045 24.5333C11.8742 24.7172 11.8979 24.9069 11.8756 25.1022C12.3023 25.1022 12.7289 25.1022 13.1556 25.1022C13.1333 24.9069 13.157 24.7172 13.2267 24.5333C13.2519 25.0817 13.323 25.6032 13.44 26.0977C13.44 26.24 13.44 26.3822 13.44 26.5244C15.0994 26.5244 16.7585 26.5244 18.4178 26.5244C18.4178 26.3822 18.4178 26.24 18.4178 26.0977C18.5349 25.6032 18.606 25.0817 18.6312 24.5333C18.7008 24.7172 18.7246 24.9069 18.7023 25.1022C19.1289 25.1022 19.5556 25.1022 19.9823 25.1022C19.9599 24.9069 19.9837 24.7172 20.0534 24.5333C20.0786 25.0817 20.1497 25.6032 20.2667 26.0977C20.2667 26.24 20.2667 26.3822 20.2667 26.5244C21.926 26.5244 23.5852 26.5244 25.2445 26.5244C25.2445 26.3822 25.2445 26.24 25.2445 26.0977C25.2445 25.7659 25.2445 25.434 25.2445 25.1022C25.3568 24.9444 25.428 24.7549 25.4578 24.5333C25.5275 24.7172 25.5513 24.9069 25.5289 25.1022C27.52 25.1022 29.5112 25.1022 31.5023 25.1022C31.4572 24.5046 31.5047 23.9357 31.6445 23.3955C31.6445 25.5762 31.6445 27.757 31.6445 29.9377C31.3952 30.8272 30.8263 31.4198 29.9378 31.7155C20.7409 31.7866 11.5439 31.8104 2.34671 31.7866C1.11412 31.597 0.403008 30.8859 0.213379 29.6533C0.213379 27.5673 0.213379 25.4815 0.213379 23.3955Z" fill="#D21F4D"/>
<path fill-rule="evenodd" clip-rule="evenodd" d="M11.5911 26.0976C9.9318 26.0976 8.27255 26.0976 6.61328 26.0976C6.61328 25.9554 6.61328 25.8132 6.61328 25.671C6.61328 25.2917 6.61328 24.9125 6.61328 24.5332C8.27255 24.5332 9.9318 24.5332 11.5911 24.5332C11.5911 25.0547 11.5911 25.5761 11.5911 26.0976Z" fill="#FEFDFD"/>
<path fill-rule="evenodd" clip-rule="evenodd" d="M18.4177 26.0976C16.7584 26.0976 15.0992 26.0976 13.4399 26.0976C13.4399 25.5761 13.4399 25.0547 13.4399 24.5332C15.0992 24.5332 16.7584 24.5332 18.4177 24.5332C18.4177 25.0547 18.4177 25.5761 18.4177 26.0976Z" fill="#FEFDFD"/>
<path fill-rule="evenodd" clip-rule="evenodd" d="M25.2444 25.1021C25.2444 25.4339 25.2444 25.7658 25.2444 26.0976C23.5851 26.0976 21.9259 26.0976 20.2666 26.0976C20.2666 25.5761 20.2666 25.0547 20.2666 24.5332C21.9259 24.5332 23.5851 24.5332 25.2444 24.5332C25.2444 24.7228 25.2444 24.9125 25.2444 25.1021Z" fill="#FEFDFD"/>
<path fill-rule="evenodd" clip-rule="evenodd" d="M6.61328 26.0977C8.27255 26.0977 9.9318 26.0977 11.5911 26.0977C11.5911 26.2399 11.5911 26.3821 11.5911 26.5243C9.9318 26.5243 8.27255 26.5243 6.61328 26.5243C6.61328 26.3821 6.61328 26.2399 6.61328 26.0977Z" fill="#A82C49"/>
<path fill-rule="evenodd" clip-rule="evenodd" d="M13.4399 26.0977C15.0992 26.0977 16.7584 26.0977 18.4177 26.0977C18.4177 26.2399 18.4177 26.3821 18.4177 26.5243C16.7584 26.5243 15.0992 26.5243 13.4399 26.5243C13.4399 26.3821 13.4399 26.2399 13.4399 26.0977Z" fill="#A82C48"/>
<path fill-rule="evenodd" clip-rule="evenodd" d="M20.2666 26.0977C21.9259 26.0977 23.5851 26.0977 25.2444 26.0977C25.2444 26.2399 25.2444 26.3821 25.2444 26.5243C23.5851 26.5243 21.9259 26.5243 20.2666 26.5243C20.2666 26.3821 20.2666 26.2399 20.2666 26.0977Z" fill="#A82C49"/>
</g>
<defs>
<clipPath id="clip0_4105_576">
<rect width="32" height="32" fill="white"/>
</clipPath>
</defs>
</svg>

