<svg width="32" height="32" viewBox="0 0 32 32" fill="none" xmlns="http://www.w3.org/2000/svg">
<g clip-path="url(#clip0_4858_556)">
<rect width="32" height="32" fill="#FAFAFA"/>
<path fill-rule="evenodd" clip-rule="evenodd" d="M24.2394 28.0979C22.5234 28.1611 20.8428 28.0965 19.1976 27.9041C20.8345 25.1372 22.5151 22.3923 24.2394 19.6697C17.7231 19.8102 14.7175 16.6133 15.2224 10.079C16.5535 6.00669 19.3652 3.94001 23.6576 3.87891C28.8198 4.12702 31.5993 6.80725 31.9959 11.9196C32.0302 13.0151 31.8687 14.0807 31.5111 15.1165C29.1801 19.5183 26.7562 23.8454 24.2394 28.0979Z" fill="#2B4CF9"/>
<path fill-rule="evenodd" clip-rule="evenodd" d="M0 4.2666C4.91244 4.2666 9.8249 4.2666 14.7373 4.2666C14.7373 5.55828 14.7373 6.84995 14.7373 8.14164C11.3116 8.14164 7.88578 8.14164 4.45999 8.14164C4.45999 10.2729 4.45999 12.4042 4.45999 14.5355C7.52857 14.7285 10.6312 14.7931 13.7678 14.7292C13.7678 15.9563 13.7678 17.1834 13.7678 18.4105C10.6312 18.3466 7.52857 18.4112 4.45999 18.6042C4.45999 21.7689 4.45999 24.9335 4.45999 28.0981C2.97332 28.0981 1.48667 28.0981 0 28.0981C0 20.1543 0 12.2104 0 4.2666Z" fill="#284BF9"/>
<path fill-rule="evenodd" clip-rule="evenodd" d="M22.3002 8.14155C26.5 7.97653 28.0837 9.91405 27.0511 13.9541C25.52 16.0086 23.613 16.4284 21.3307 15.2135C19.8777 14.0223 19.3929 12.5045 19.8763 10.6603C20.3326 9.46205 21.1407 8.62244 22.3002 8.14155Z" fill="#FCFCFE"/>
</g>
<defs>
<clipPath id="clip0_4858_556">
<rect width="32" height="32" fill="white"/>
</clipPath>
</defs>
</svg>
