<svg width="32" height="32" viewBox="0 0 32 32" fill="none" xmlns="http://www.w3.org/2000/svg">
<path d="M28.2971 25.4864C26.8911 25.8966 25.2451 26.1359 23.3252 26.2383C24.7308 23.9473 28.6401 15.0227 30.4227 9.38071V21.8957C30.4227 23.4344 30.0457 24.9735 28.2971 25.4864ZM15.9877 25.623C16.0904 22.7164 15.8847 15.2621 15.7477 11.4666C15.5074 3.80717 25.4168 7.50029 30.5944 6.98737V7.12398C27.8168 12.2531 22.2279 18.7501 18.7993 21.554C22.8452 24.4602 22.9822 26.2725 21.3366 26.2725H21.2336C19.3823 26.1359 17.599 25.999 15.9877 25.623ZM15.4734 6.74804C11.4275 4.69639 4.84396 3.94415 0.626377 4.833C-0.539245 10.5778 0.112055 18.2029 1.03806 24.0839C1.44937 26.9909 1.68936 27.4011 3.81532 26.7512C12.0788 24.4602 19.4167 29.0426 27.6454 26.9909C30.4227 26.341 31.4513 24.9393 31.5887 22.409L32 5.55137C27.7824 5.72222 18.251 4.08075 15.4734 6.74804Z" fill="#0362FC"/>
</svg>
