<svg width="32" height="32" viewBox="0 0 33 33" fill="none" xmlns="http://www.w3.org/2000/svg">
    <path fill-rule="evenodd" clip-rule="evenodd"
        d="M0.873291 0.873047C11.54 0.873047 22.2066 0.873047 32.8733 0.873047C32.8733 11.5397 32.8733 22.2063 32.8733 32.873C22.2066 32.873 11.54 32.873 0.873291 32.873C0.873291 22.2063 0.873291 11.5397 0.873291 0.873047Z"
        fill="#FEFEFE" />
    <path opacity="0.993" fill-rule="evenodd" clip-rule="evenodd"
        d="M16.8461 1.38672C22.0541 4.36412 27.2541 7.35806 32.4461 10.3685C32.4824 12.6472 32.4944 14.926 32.4824 17.2049C31.2217 17.2049 29.9614 17.2049 28.7006 17.2049C28.7068 15.6533 28.7006 14.1018 28.6824 12.5504C24.7526 10.257 20.813 7.97825 16.8643 5.71399C12.9355 8.00003 9.00245 10.2788 5.06427 12.5504C5.0279 17.9564 5.0159 23.3624 5.0279 28.7685C3.77954 28.7685 2.53081 28.7685 1.28245 28.7685C1.27045 22.6352 1.28245 16.5018 1.31881 10.3685C6.50281 7.38279 11.6784 4.38887 16.8461 1.38672Z"
        fill="#DF8B24" />
    <path opacity="0.993" fill-rule="evenodd" clip-rule="evenodd"
        d="M9.49805 15.0557C9.82559 15.0497 10.1528 15.0557 10.4796 15.0739C10.9391 15.1212 11.1692 15.3757 11.1703 15.8373C11.1692 16.2989 10.9391 16.5534 10.4796 16.6007C10.1528 16.6189 9.82559 16.6249 9.49805 16.6189C9.49805 16.0979 9.49805 15.5768 9.49805 15.0557ZM15.0964 15.0921C15.4603 15.086 15.8239 15.0921 16.187 15.1103C16.7545 15.2328 16.9664 15.5782 16.8232 16.1463C16.7371 16.4021 16.5615 16.5536 16.2961 16.6007C15.8966 16.6189 15.4967 16.625 15.0964 16.6189C15.0964 16.11 15.0964 15.601 15.0964 15.0921Z"
        fill="#FAFAFA" />
    <path opacity="0.985" fill-rule="evenodd" clip-rule="evenodd"
        d="M21.8944 13.7109C23.3278 13.5644 24.4366 14.0854 25.2208 15.274C25.797 16.4381 25.773 17.5892 25.148 18.7275C24.3548 19.8449 23.2704 20.3235 21.8944 20.1635C20.4254 19.9062 19.5228 19.0519 19.1861 17.6006C18.9502 16.1126 19.4533 14.9554 20.6948 14.1289C21.0776 13.9267 21.4775 13.7874 21.8944 13.7109ZM22.1126 15.1286C23.2246 15.0716 23.8608 15.5927 24.0211 16.6918C24.0953 17.366 23.8953 17.9416 23.4213 18.4185C22.7306 18.879 22.0399 18.879 21.3491 18.4185C20.8089 17.8632 20.621 17.2028 20.7857 16.4373C20.9602 15.7237 21.4022 15.2875 22.1126 15.1286Z"
        fill="#DF8B24" />
    <path opacity="0.99" fill-rule="evenodd" clip-rule="evenodd"
        d="M7.93481 13.7835C8.88 13.7775 9.82518 13.7835 10.7704 13.8017C12.2834 13.9944 12.9316 14.8487 12.7153 16.3646C12.435 17.2378 11.8351 17.7286 10.9158 17.8369C10.4432 17.855 9.97059 17.8611 9.498 17.855C9.498 18.6184 9.498 19.3818 9.498 20.1452C8.97706 20.1452 8.45576 20.1452 7.93481 20.1452C7.93481 18.0247 7.93481 15.9041 7.93481 13.7835ZM9.498 15.0559C9.498 15.5769 9.498 16.098 9.498 16.619C9.82554 16.6251 10.1527 16.619 10.4795 16.6009C10.939 16.5535 11.1692 16.2991 11.1702 15.8375C11.1692 15.3758 10.939 15.1214 10.4795 15.074C10.1527 15.0559 9.82554 15.0498 9.498 15.0559Z"
        fill="#DF8B24" />
    <path opacity="0.983" fill-rule="evenodd" clip-rule="evenodd"
        d="M13.5332 13.7836C14.6129 13.7678 15.6911 13.786 16.7686 13.8381C18.1097 14.1632 18.6492 15.0054 18.3864 16.3646C18.1799 17.0135 17.7494 17.4376 17.0958 17.637C17.5793 18.4707 18.0519 19.3069 18.5136 20.1453C17.9192 20.1574 17.3256 20.1453 16.7323 20.1089C16.308 19.3334 15.8842 18.5579 15.4599 17.7824C15.341 17.7465 15.22 17.7344 15.0964 17.746C15.0964 18.5458 15.0964 19.3455 15.0964 20.1453C14.5754 20.1453 14.0541 20.1453 13.5332 20.1453C13.5332 18.0247 13.5332 15.9041 13.5332 13.7836ZM15.0964 15.0923C15.0964 15.6012 15.0964 16.1101 15.0964 16.6191C15.4966 16.6252 15.8965 16.6191 16.296 16.6009C16.5614 16.5538 16.737 16.4023 16.8232 16.1465C16.9664 15.5783 16.7545 15.233 16.187 15.1104C15.8238 15.0923 15.4603 15.0862 15.0964 15.0923Z"
        fill="#DF8B24" />
    <path opacity="0.994" fill-rule="evenodd" clip-rule="evenodd"
        d="M6.77161 21.0177C8.01961 21.0177 9.26798 21.0177 10.516 21.0177C10.7534 24.4094 12.4256 26.7784 15.5327 28.1247C18.473 29.1118 21.1267 28.615 23.4941 26.6342C24.2818 25.8466 25.0692 25.0589 25.857 24.2713C24.7842 23.2044 23.7176 22.132 22.6579 21.0541C25.748 21.0177 28.838 21.0056 31.928 21.0177C31.94 24.1078 31.928 27.1978 31.8916 30.2877C30.7647 29.1728 29.6377 28.058 28.5108 26.9432C27.6569 27.7788 26.8087 28.621 25.9661 29.4697C22.8761 32.0779 19.3498 32.9261 15.3873 32.0144C11.9727 31.0498 9.47047 28.9838 7.88038 25.8163C7.17876 24.2947 6.80941 22.6952 6.77161 21.0177Z"
        fill="#DF8B24" />
</svg>