<svg width="32" height="32" viewBox="0 0 32 32" fill="none" xmlns="http://www.w3.org/2000/svg">
    <g clip-path="url(#clip0_2496_108)">
        <path
            d="M0 6C0 2.68629 2.68629 0 6 0H26C29.3137 0 32 2.68629 32 6V26C32 29.3137 29.3137 32 26 32H6C2.68629 32 0 29.3137 0 26V6Z"
            fill="#FAFAFA" fill-opacity="0.980392" />
        <path fill-rule="evenodd" clip-rule="evenodd"
            d="M1.77778 2.71107C3.272 2.51416 4.53111 2.97156 5.55556 4.08326C5.70356 9.2671 5.852 14.451 6 19.6348C9.40311 26.8 14.6627 28.7058 21.7778 25.3523C23.8738 23.803 25.2813 21.7447 26 19.1774C26.148 14.146 26.2964 9.11465 26.4444 4.08326C28.0742 2.25367 29.7036 2.25367 31.3333 4.08326C31.6298 9.11465 31.6298 14.146 31.3333 19.1774C29.7778 25.6572 25.852 29.6976 19.5556 31.2985C9.45956 32.7022 3.16311 28.3569 0.666669 18.2626C0.370225 13.5362 0.370225 8.8097 0.666669 4.08326C1.13111 3.68377 1.50134 3.22637 1.77778 2.71107Z"
            fill="#449CD4" />
        <path fill-rule="evenodd" clip-rule="evenodd"
            d="M12.4444 7.28503C15.6955 9.56032 18.9551 11.8473 22.2222 14.146C18.9982 16.3766 15.8128 18.6636 12.6666 21.007C12.4444 16.4356 12.3706 11.8616 12.4444 7.28503Z"
            fill="#3F9AD4" />
    </g>
    <defs>
        <clipPath id="clip0_2496_108">
            <rect width="32" height="32" fill="white" />
        </clipPath>
    </defs>
</svg>