<svg width="32" height="32" viewBox="0 0 32 32" fill="none" xmlns="http://www.w3.org/2000/svg">
    <g clip-path="url(#clip0_4688_2284)">
        <path opacity="0.962" fill-rule="evenodd" clip-rule="evenodd"
            d="M15.958 -0.0419922C16.3768 -0.0419922 16.7956 -0.0419922 17.2145 -0.0419922C15.7443 0.411027 14.9205 1.41626 14.7433 2.97371C14.295 6.53406 14.8256 9.94067 16.3349 13.1936C16.6141 13.6962 17.0051 14.0872 17.5077 14.3664C16.9235 12.9218 16.6303 11.4139 16.6281 9.84282C17.0117 9.65803 17.3887 9.46259 17.759 9.25644C18.1291 9.49041 18.5061 9.71374 18.8899 9.92659C18.8976 11.3043 18.6602 12.6446 18.1778 13.9475C18.1121 14.0971 18.0144 14.2228 17.8847 14.3245C18.3115 14.2277 18.6606 13.9903 18.9318 13.6125C19.4594 12.7803 19.8504 11.8868 20.1045 10.9318C20.9032 8.2672 21.1265 5.55864 20.7747 2.80618C20.5835 1.7226 20.039 0.884902 19.1412 0.293086C19.2959 0.203208 19.4635 0.203208 19.6438 0.293086C21.237 0.840337 22.1445 1.95726 22.3663 3.64387C22.68 7.05655 21.8981 10.1839 20.0208 13.0261C19.6653 13.4378 19.2604 13.7868 18.8061 14.0732C19.271 13.9946 19.6898 13.7991 20.0627 13.4868C21.6945 11.9633 22.7696 10.1064 23.2878 7.91612C23.6577 6.5077 23.7415 5.08361 23.5391 3.64387C23.0346 1.70137 21.7919 0.556523 19.8114 0.209317C19.6228 0.166185 19.4553 0.0824148 19.3087 -0.0419922C19.3925 -0.0419922 19.4763 -0.0419922 19.56 -0.0419922C20.8741 0.133403 22.1027 0.566212 23.2459 1.25644C24.0132 1.82805 24.5438 2.56801 24.8375 3.47633C24.83 3.69851 24.8858 3.89397 25.0051 4.06272C25.1232 6.2709 24.6346 8.33722 23.5391 10.2617C22.3174 12.0622 21.1586 13.9051 20.0627 15.7905C20.1345 15.868 20.2182 15.9238 20.314 15.958C20.3651 16.0326 20.393 16.1164 20.3977 16.2093C20.4161 16.3077 20.3882 16.3915 20.314 16.4606C20.1563 16.5103 20.0028 16.5662 19.8532 16.6282C19.8121 17.2497 19.7283 17.864 19.6019 18.4711C19.445 18.6561 19.2635 18.8097 19.0574 18.9318C18.2197 18.9877 17.382 18.9877 16.5443 18.9318C16.463 18.8078 16.3513 18.7379 16.2093 18.7224C16.0685 18.5526 15.9708 18.3571 15.9161 18.136C15.8465 17.6914 15.8047 17.2446 15.7904 16.7957C15.7904 16.7119 15.7904 16.6282 15.7904 16.5444C15.6508 16.5444 15.5112 16.5444 15.3716 16.5444C15.1202 16.2655 15.1621 16.0421 15.4972 15.8742C14.54 14.0739 13.451 12.3427 12.2302 10.6805C10.9766 8.70976 10.4182 6.55967 10.5548 4.23026C10.8705 2.46277 11.8617 1.24811 13.5286 0.58628C14.3353 0.322469 15.1451 0.113044 15.958 -0.0419922ZM14.3663 13.1936C14.3942 13.1936 14.4222 13.1936 14.4501 13.1936C14.541 13.3684 14.6805 13.4801 14.8689 13.5287C14.9069 13.6089 14.9627 13.6788 15.0365 13.7381C15.3221 13.9368 15.6293 14.0904 15.958 14.1988C16.1239 14.7664 16.3473 15.3109 16.6281 15.8324C16.4047 15.8882 16.1814 15.8882 15.958 15.8324C15.4062 14.9609 14.8756 14.0813 14.3663 13.1936ZM20.9841 13.6125C20.6005 14.3185 20.1957 15.0166 19.7695 15.7067C19.6485 15.8453 19.4949 15.9012 19.3087 15.8742C19.5168 15.3458 19.7262 14.8153 19.937 14.2826C20.2955 14.0688 20.6445 13.8454 20.9841 13.6125ZM16.4606 14.4502C16.8169 14.5462 17.1799 14.602 17.5496 14.6177C17.5496 15.0365 17.5496 15.4554 17.5496 15.8742C17.3465 15.9 17.1511 15.8721 16.9632 15.7905C16.7786 15.3482 16.6111 14.9014 16.4606 14.4502ZM19.225 14.4502C19.0744 14.9014 18.9069 15.3482 18.7224 15.7905C18.5057 15.8726 18.2823 15.9005 18.0522 15.8742C18.0522 15.4833 18.0522 15.0924 18.0522 14.7015C18.4531 14.6534 18.844 14.5696 19.225 14.4502Z"
            fill="#418BBD" />
        <path opacity="0.873" fill-rule="evenodd" clip-rule="evenodd"
            d="M18.3037 -0.0419922C18.6388 -0.0419922 18.9739 -0.0419922 19.3089 -0.0419922C19.4555 0.0824148 19.623 0.166185 19.8116 0.209317C19.7285 0.194944 19.6727 0.222866 19.644 0.293086C19.4637 0.203208 19.2961 0.203208 19.1414 0.293086C18.8357 0.228858 18.5565 0.117165 18.3037 -0.0419922Z"
            fill="#92BCD9" />
        <path fill-rule="evenodd" clip-rule="evenodd"
            d="M17.2145 -0.0419922C17.3262 -0.0419922 17.4379 -0.0419922 17.5496 -0.0419922C17.1403 0.21301 16.8471 0.576012 16.67 1.04701C16.4309 1.7821 16.3052 2.53603 16.293 3.30879C16.2098 4.13136 16.1819 4.96906 16.2093 5.82188C16.3697 5.84571 16.5093 5.81779 16.6281 5.73811C16.8365 5.32149 17.0459 4.90264 17.2564 4.48157C17.5841 4.04592 17.9192 4.04592 18.2616 4.48157C18.4721 4.90264 18.6816 5.32149 18.8899 5.73811C19.0088 5.81779 19.1483 5.84571 19.3088 5.82188C19.3362 4.91328 19.3083 4.01974 19.225 3.14125C19.2194 2.15649 18.9821 1.23503 18.5129 0.376856C18.3181 0.245697 18.1367 0.106081 17.9684 -0.0419922C18.0801 -0.0419922 18.1919 -0.0419922 18.3035 -0.0419922C18.5563 0.117165 18.8355 0.228858 19.1412 0.293086C20.0391 0.884902 20.5836 1.7226 20.7747 2.80618C21.1266 5.55864 20.9032 8.2672 20.1046 10.9318C19.8504 11.8868 19.4595 12.7803 18.9318 13.6125C18.6606 13.9903 18.3116 14.2277 17.8847 14.3245C18.0144 14.2228 18.1121 14.0971 18.1779 13.9475C18.6602 12.6446 18.8976 11.3043 18.8899 9.92659C18.5061 9.71374 18.1291 9.49041 17.759 9.25644C17.3887 9.46259 17.0117 9.65803 16.6281 9.84282C16.6303 11.4139 16.9235 12.9218 17.5077 14.3664C17.0051 14.0872 16.6141 13.6962 16.3349 13.1936C14.8257 9.94067 14.2951 6.53406 14.7433 2.97371C14.9205 1.41626 15.7443 0.411027 17.2145 -0.0419922Z"
            fill="#FBFCFD" />
        <path fill-rule="evenodd" clip-rule="evenodd"
            d="M17.5495 -0.0419922C17.6892 -0.0419922 17.8287 -0.0419922 17.9684 -0.0419922C18.1366 0.106081 18.318 0.245697 18.5129 0.376856C18.982 1.23503 19.2193 2.15649 19.2249 3.14125C19.2249 4.00687 19.2249 4.8725 19.2249 5.73811C19.1132 5.73811 19.0015 5.73811 18.8898 5.73811C18.6815 5.32149 18.4721 4.90264 18.2616 4.48157C17.9191 4.04592 17.584 4.04592 17.2563 4.48157C17.0458 4.90264 16.8364 5.32149 16.628 5.73811C16.5164 5.73811 16.4046 5.73811 16.293 5.73811C16.293 4.92834 16.293 4.11857 16.293 3.30879C16.3051 2.53603 16.4308 1.7821 16.6699 1.04701C16.847 0.576012 17.1402 0.21301 17.5495 -0.0419922Z"
            fill="#418CBE" />
        <path fill-rule="evenodd" clip-rule="evenodd"
            d="M15.7066 0.125537C15.8489 0.112119 15.9886 0.126081 16.1255 0.167422C14.262 0.7512 13.2708 2.02171 13.1516 3.97894C12.884 7.32256 13.6938 10.3662 15.581 13.1098C15.9946 13.5555 16.3855 13.9185 16.7537 14.1988C15.4278 13.571 14.3945 12.6216 13.6543 11.3507C12.2619 8.96122 11.7034 6.3923 11.9789 3.64386C12.5037 1.70889 13.7462 0.536118 15.7066 0.125537Z"
            fill="#F9FBFD" />
        <path fill-rule="evenodd" clip-rule="evenodd"
            d="M19.6438 0.292999C19.6725 0.222779 19.7283 0.194856 19.8114 0.20923C21.792 0.556436 23.0346 1.70128 23.5391 3.64378C23.7415 5.08353 23.6578 6.50761 23.2878 7.91604C22.7696 10.1064 21.6945 11.9632 20.0627 13.4867C19.6898 13.799 19.271 13.9945 18.8062 14.0731C19.2604 13.7867 19.6653 13.4377 20.0208 13.026C21.8981 10.1838 22.68 7.05646 22.3664 3.64378C22.1445 1.95718 21.2371 0.84025 19.6438 0.292999Z"
            fill="#F9FBFD" />
        <path opacity="0.022" fill-rule="evenodd" clip-rule="evenodd"
            d="M24.8376 3.47656C24.9569 3.64532 25.0127 3.84078 25.0051 4.06295C24.8858 3.8942 24.83 3.69874 24.8376 3.47656Z"
            fill="#000102" />
        <path opacity="0.041" fill-rule="evenodd" clip-rule="evenodd"
            d="M25.0054 4.06299C25.0697 4.12686 25.1116 4.21063 25.1311 4.3143C25.2909 6.52329 24.8162 8.58965 23.707 10.5132C22.4912 12.2743 21.3603 14.0893 20.3143 15.9583C20.2185 15.9241 20.1348 15.8682 20.063 15.7907C21.1589 13.9054 22.3177 12.0625 23.5394 10.2619C24.6349 8.33749 25.1235 6.27117 25.0054 4.06299Z"
            fill="#000101" />
        <path fill-rule="evenodd" clip-rule="evenodd"
            d="M19.2252 3.1416C19.3085 4.02009 19.3365 4.91363 19.309 5.82223C19.1486 5.84606 19.009 5.81813 18.8901 5.73846C19.0018 5.73846 19.1136 5.73846 19.2252 5.73846C19.2252 4.87284 19.2252 4.00722 19.2252 3.1416Z"
            fill="#70A8CE" />
        <path fill-rule="evenodd" clip-rule="evenodd"
            d="M17.6333 4.98454C17.8346 4.97557 17.9882 5.05934 18.094 5.23585C18.2476 5.543 18.4012 5.85015 18.5548 6.15731C18.9705 6.27016 19.3894 6.36789 19.8113 6.45051C19.9014 6.5951 19.9154 6.74867 19.8532 6.91124C19.6189 7.22946 19.3536 7.52266 19.0574 7.79082C19.4649 9.29557 19.0182 9.58877 17.7171 8.6704C16.4793 9.62906 16.0604 9.34977 16.4605 7.8327C16.1072 7.49333 15.8 7.11636 15.5391 6.70181C15.5938 6.53536 15.7055 6.42367 15.8741 6.36674C16.2141 6.33822 16.5492 6.28237 16.8794 6.1992C17.1211 5.78494 17.3724 5.38005 17.6333 4.98454Z"
            fill="#095C89" />
        <path fill-rule="evenodd" clip-rule="evenodd"
            d="M16.2932 3.30908C16.2932 4.11886 16.2932 4.92863 16.2932 5.7384C16.4048 5.7384 16.5166 5.7384 16.6282 5.7384C16.5094 5.81807 16.3698 5.846 16.2094 5.82217C16.182 4.96935 16.2099 4.13165 16.2932 3.30908Z"
            fill="#87B6D6" />
        <path opacity="0.043" fill-rule="evenodd" clip-rule="evenodd"
            d="M20.9843 13.6125C20.6447 13.8455 20.2957 14.0688 19.9372 14.2827C19.7264 14.8154 19.517 15.3459 19.3089 15.8743C19.2105 15.8927 19.1267 15.8648 19.0576 15.7906C19.2949 15.2042 19.5323 14.6178 19.7697 14.0314C20.3292 13.7098 20.8598 13.3468 21.3613 12.9424C21.3037 13.1964 21.1781 13.4198 20.9843 13.6125Z"
            fill="#000102" />
        <path opacity="0.022" fill-rule="evenodd" clip-rule="evenodd"
            d="M14.4504 13.1937C14.4225 13.1937 14.3946 13.1937 14.3667 13.1937C14.2339 13.1516 14.192 13.0679 14.241 12.9424C14.3285 13.0155 14.3983 13.0993 14.4504 13.1937Z"
            fill="#020508" />
        <path opacity="0.029" fill-rule="evenodd" clip-rule="evenodd"
            d="M14.4502 13.1938C14.6386 13.2424 14.7782 13.3541 14.869 13.5289C14.6806 13.4803 14.5411 13.3687 14.4502 13.1938Z"
            fill="#0F151A" />
        <path opacity="0.031" fill-rule="evenodd" clip-rule="evenodd"
            d="M14.8691 13.5288C15.1719 13.6802 15.479 13.8337 15.7906 13.9895C15.8644 14.0489 15.9202 14.1187 15.9581 14.199C15.6295 14.0905 15.3223 13.9369 15.0367 13.7382C14.9629 13.6789 14.9071 13.6091 14.8691 13.5288Z"
            fill="#020305" />
        <path opacity="0.04" fill-rule="evenodd" clip-rule="evenodd"
            d="M17.5495 14.6176C17.1798 14.6019 16.8169 14.546 16.4605 14.45C16.411 14.3955 16.3552 14.3396 16.293 14.2825C16.3349 14.2546 16.3767 14.2266 16.4186 14.1987C16.7328 14.2999 17.0539 14.3698 17.382 14.4082C17.4872 14.4431 17.5431 14.5129 17.5495 14.6176Z"
            fill="#000101" />
        <path opacity="0.038" fill-rule="evenodd" clip-rule="evenodd"
            d="M19.2252 14.4503C18.8442 14.5698 18.4533 14.6535 18.0524 14.7016C18.0524 15.0926 18.0524 15.4834 18.0524 15.8744C17.889 15.4359 17.8332 14.9611 17.8848 14.4503C18.3739 14.4014 18.8486 14.2896 19.3089 14.1152C19.3861 14.2435 19.3582 14.3552 19.2252 14.4503Z"
            fill="#010202" />
        <path opacity="0.975" fill-rule="evenodd" clip-rule="evenodd"
            d="M12.3559 14.9529C12.5085 15.8633 12.4386 16.7568 12.1465 17.6336C11.9464 18.2292 11.723 18.8156 11.4763 19.3927C10.8406 20.5803 10.2263 21.781 9.6334 22.9948C9.55859 23.2405 9.51671 23.4918 9.50775 23.7487C9.49233 23.9753 9.54821 24.1708 9.67529 24.3351C9.73024 24.4003 9.80002 24.4561 9.88471 24.5027C10.2731 24.3505 10.6361 24.1549 10.9737 23.9163C11.0468 22.786 11.3539 21.725 11.8952 20.733C12.254 20.3906 12.6588 20.3208 13.1098 20.5236C13.1728 20.5798 13.2008 20.6496 13.1936 20.733C12.9996 21.5931 12.8182 22.4588 12.6491 23.3299C12.5932 23.7209 12.5932 24.1117 12.6491 24.5027C12.6724 24.5794 12.7143 24.6352 12.7748 24.6702C12.8719 24.8275 13.0115 24.8693 13.1936 24.7959C13.4475 24.5815 13.629 24.3162 13.7381 24.0001C13.9766 23.0182 14.2279 22.0409 14.492 21.0681C14.8172 20.619 15.2501 20.4375 15.7905 20.5236C15.8918 20.6107 15.9756 20.7084 16.0418 20.8168C15.7048 22.336 15.4396 23.8717 15.246 25.4241C15.3335 25.351 15.4033 25.2672 15.4554 25.1728C15.5173 25.1838 15.5732 25.1698 15.6229 25.1309C16.605 24.0804 17.4706 22.9495 18.2198 21.7383C18.3196 21.649 18.2917 21.5792 18.136 21.5289C17.8926 21.4184 17.6413 21.3905 17.3821 21.4451C17.1128 21.7016 16.8615 21.9809 16.6282 22.2828C16.5784 22.3216 16.5225 22.3356 16.4606 22.3247C16.3537 22.2246 16.2978 22.0851 16.2931 21.9058C16.316 21.1191 16.651 20.5188 17.2983 20.1048C17.4473 20.0458 17.6009 20.0039 17.7591 19.9791C18.1218 20.0976 18.4708 20.2511 18.8062 20.4398C19.2135 20.4978 19.6183 20.4838 20.0208 20.398C20.2589 20.3992 20.4125 20.5109 20.4816 20.733C20.4953 20.9581 20.4813 21.1815 20.4397 21.4032C20.2442 21.5428 20.0487 21.6824 19.8533 21.822C19.2295 22.753 18.5734 23.6605 17.8847 24.5446C17.9738 24.6441 18.0855 24.686 18.2198 24.6702C18.6339 24.8935 19.0527 24.8796 19.4763 24.6283C19.7695 24.391 20.0627 24.1536 20.3559 23.9163C20.2293 22.5064 20.7179 21.3755 21.8219 20.5236C23.4178 19.8858 24.8 20.207 25.9685 21.487C26.7582 20.3393 27.8332 19.9345 29.1936 20.2723C30.327 20.6664 31.1926 21.3784 31.7905 22.4084C31.819 22.715 31.7632 22.9942 31.6229 23.2461C31.3995 23.0786 31.2041 22.8832 31.0365 22.6597C30.9457 22.4849 30.8061 22.3733 30.6177 22.3247C30.5539 22.1771 30.4421 22.0933 30.2826 22.0734C30.2188 21.9258 30.107 21.842 29.9475 21.822C29.8586 21.633 29.719 21.5353 29.5287 21.5289C29.604 21.6672 29.6878 21.7929 29.78 21.9058C30.1726 23.5634 29.6979 24.8898 28.3559 25.8849C27.6394 26.2102 26.9693 26.1403 26.3454 25.6755C26.004 25.357 25.7667 24.966 25.6334 24.5027C25.5107 23.7714 25.4688 23.0453 25.5077 22.3247C25.4439 22.1771 25.3322 22.0933 25.1727 22.0734C24.9833 21.8933 24.7879 21.7117 24.5863 21.5289C24.5304 21.473 24.4746 21.473 24.4187 21.5289C24.4662 21.6122 24.522 21.682 24.5863 21.7383C24.5863 21.7942 24.6142 21.822 24.67 21.822C24.67 21.8779 24.67 21.9337 24.67 21.9896C24.8739 22.9849 24.7483 23.9343 24.2931 24.8378C24.2052 25.0152 24.0796 25.1547 23.9161 25.2566C22.8967 25.6588 22.045 25.4354 21.3611 24.5864C20.305 25.5041 19.1461 25.6857 17.8847 25.1309C17.6334 25.0751 17.3821 25.0751 17.1308 25.1309C16.6708 25.4866 16.1961 25.8217 15.7067 26.1362C15.6366 26.2209 15.6087 26.3186 15.6229 26.4294C15.3694 26.5771 15.1599 26.7727 14.9947 27.0158C14.8161 28.4329 14.3135 29.7173 13.4868 30.8692C12.6809 31.7416 11.7456 31.9371 10.6805 31.4556C10.5078 31.2956 10.3821 31.1001 10.3036 30.8692C10.2453 30.5002 10.2731 30.1371 10.3873 29.7802C10.6893 29.2273 11.0244 28.6967 11.3926 28.1885C11.9794 27.532 12.5797 26.8898 13.1936 26.2618C13.2215 26.2618 13.2495 26.2618 13.2774 26.2618C13.3333 26.2618 13.3611 26.2339 13.3611 26.1781C13.5008 26.0943 13.6125 25.9826 13.6962 25.843C13.9771 25.6605 14.2005 25.4231 14.3664 25.1309C14.3245 25.0891 14.2826 25.0472 14.2407 25.0053C13.354 25.7126 12.5442 25.6288 11.8114 24.754C11.3769 25.0201 10.9162 25.2295 10.4292 25.3823C9.79667 25.5476 9.33593 25.3382 9.04701 24.754C8.85761 24.3812 8.71797 23.9903 8.62816 23.5812C8.46347 22.6895 8.39369 21.7959 8.41874 20.9006C8.36289 20.8727 8.30705 20.8447 8.2512 20.8168C7.58511 20.8841 6.91495 20.926 6.24073 20.9425C6.14283 21.1106 6.08698 21.292 6.07319 21.487C5.88593 21.4623 5.71839 21.4902 5.57057 21.5707C5.46945 22.8968 5.1204 24.1534 4.52345 25.3404C3.43734 26.8443 2.02722 27.2352 0.293086 26.5131C0.181394 26.4015 0.0697006 26.2897 -0.0419922 26.1781C-0.0419922 25.9547 -0.0419922 25.7313 -0.0419922 25.5079C0.126225 25.186 0.391496 25.0184 0.753819 25.0053C1.30236 25.125 1.84686 25.2646 2.38733 25.4241C2.65163 25.3697 2.86105 25.23 3.0156 25.0053C3.51938 23.9955 3.86842 22.9344 4.06272 21.822C4.05553 21.7386 4.08346 21.6688 4.14649 21.6126C3.64419 21.6134 3.16949 21.5156 2.72241 21.3194C2.50579 21.1095 2.50579 20.9001 2.72241 20.6912C3.27867 20.5324 3.83713 20.3788 4.3978 20.2304C4.64316 19.2669 4.8107 18.2896 4.90042 17.2985C4.96191 17.1973 4.98983 17.0856 4.98419 16.9634C3.84132 17.2545 3.14324 17.9665 2.88995 19.0995C2.46399 19.264 2.04515 19.25 1.6334 19.0576C1.31369 18.064 1.565 17.2124 2.38733 16.5027C3.53828 15.7002 4.82275 15.2814 6.24073 15.2461C7.52622 15.21 8.8107 15.21 10.0941 15.2461C10.5492 14.5995 11.1635 14.3203 11.9371 14.4084C12.1268 14.5557 12.2664 14.7372 12.3559 14.9529ZM9.0889 16.8796C8.67013 17.9126 8.33506 18.9737 8.08366 20.0629C7.3878 20.1465 6.68973 20.1744 5.98942 20.1467C6.08102 19.1067 6.22063 18.0735 6.40827 17.0472C6.54043 16.9803 6.68005 16.9384 6.82712 16.9215C7.58053 16.8796 8.33445 16.8657 9.0889 16.8796ZM11.0156 17.0472C10.715 18.2296 10.2682 19.3465 9.67529 20.398C9.76986 19.2347 10.077 18.1318 10.5968 17.0891C10.7336 17.0477 10.8733 17.0338 11.0156 17.0472ZM23.4135 21.7383C23.6722 22.6666 23.5744 23.5602 23.1203 24.4189C22.7303 24.9656 22.3533 24.9656 21.9894 24.4189C21.8912 23.612 22.0449 22.8581 22.4502 22.1571C22.6799 21.7788 23.0009 21.6393 23.4135 21.7383ZM28.5235 21.7383C28.813 22.8072 28.6455 23.7985 28.0208 24.7121C27.6173 24.9007 27.3101 24.8029 27.0994 24.4189C26.9597 23.3981 27.2389 22.5185 27.9371 21.7802C28.0431 21.7543 28.1409 21.7124 28.2303 21.6545C28.315 21.7246 28.4127 21.7525 28.5235 21.7383ZM13.1936 28.3561C13.0585 29.1433 12.6954 29.7995 12.1046 30.3247C11.9769 30.4092 11.8372 30.4511 11.6858 30.4503C11.9965 29.6098 12.4992 28.9116 13.1936 28.3561Z"
            fill="#005885" />
        <path opacity="0.081" fill-rule="evenodd" clip-rule="evenodd"
            d="M12.356 14.9526C12.4644 15.0651 12.5341 15.2047 12.5655 15.3715C12.6486 16.1364 12.5928 16.8903 12.3979 17.6333C11.7193 19.5211 10.8816 21.3361 9.88483 23.0783C9.71453 23.48 9.64475 23.8988 9.67541 24.3348C9.54833 24.1705 9.49246 23.975 9.50787 23.7484C9.51683 23.4915 9.55872 23.2402 9.63353 22.9945C10.2264 21.7807 10.8407 20.58 11.4765 19.3924C11.7231 18.8153 11.9465 18.2289 12.1466 17.6333C12.4387 16.7565 12.5086 15.863 12.356 14.9526Z"
            fill="#000203" />
        <path opacity="0.037" fill-rule="evenodd" clip-rule="evenodd"
            d="M20.398 16.2095C20.5606 16.336 20.6024 16.5036 20.5236 16.7121C20.3561 16.768 20.1885 16.8238 20.021 16.8796C19.9799 17.5012 19.8961 18.1155 19.7697 18.7226C19.6128 18.9076 19.4313 19.0612 19.2252 19.1833C18.3875 19.2392 17.5498 19.2392 16.7121 19.1833C16.503 19.0718 16.3355 18.9182 16.2095 18.7226C16.3515 18.7381 16.4632 18.8079 16.5446 18.932C17.3822 18.9879 18.2199 18.9879 19.0576 18.932C19.2637 18.8098 19.4452 18.6563 19.6021 18.4713C19.7286 17.8642 19.8123 17.2499 19.8535 16.6283C20.003 16.5663 20.1565 16.5105 20.3142 16.4608C20.3884 16.3917 20.4163 16.3079 20.398 16.2095Z"
            fill="#010102" />
        <path opacity="0.041" fill-rule="evenodd" clip-rule="evenodd"
            d="M15.3716 16.5444C15.5112 16.5444 15.6508 16.5444 15.7904 16.5444C15.7904 16.6282 15.7904 16.712 15.7904 16.7957C15.5866 16.8148 15.4471 16.731 15.3716 16.5444Z"
            fill="black" />
        <path opacity="0.079" fill-rule="evenodd" clip-rule="evenodd"
            d="M9.08879 16.8795C8.33435 16.8656 7.58042 16.8795 6.82701 16.9214C6.67995 16.9383 6.54033 16.9802 6.40816 17.047C6.22053 18.0734 6.08092 19.1065 5.98932 20.1465C5.88669 20.0919 5.83085 19.9941 5.82178 19.8533C5.95078 18.8074 6.06247 17.7603 6.15686 16.7119C7.18819 16.623 8.22135 16.6091 9.25633 16.67C9.20892 16.7534 9.15304 16.8232 9.08879 16.8795Z"
            fill="black" />
        <path opacity="0.081" fill-rule="evenodd" clip-rule="evenodd"
            d="M11.0156 17.0471C10.8732 17.0337 10.7336 17.0476 10.5967 17.0889C10.077 18.1317 9.76982 19.2346 9.67524 20.3978C9.60655 20.5915 9.53677 20.787 9.46582 20.9842C9.46683 19.5271 9.78791 18.1449 10.4292 16.8376C10.6576 16.7691 10.881 16.783 11.0993 16.8795C11.0689 16.9367 11.041 16.9926 11.0156 17.0471Z"
            fill="#000102" />
        <path opacity="0.083" fill-rule="evenodd" clip-rule="evenodd"
            d="M4.90044 17.2985C3.95177 17.5626 3.40727 18.1769 3.26694 19.1414C2.78929 19.5442 2.27271 19.5861 1.7172 19.267C1.65417 19.2108 1.62624 19.1411 1.63343 19.0576C2.04517 19.25 2.46402 19.2639 2.88997 19.0995C3.14327 17.9665 3.84134 17.2545 4.98421 16.9634C4.98986 17.0856 4.96194 17.1973 4.90044 17.2985Z"
            fill="#000001" />
        <path opacity="0.078" fill-rule="evenodd" clip-rule="evenodd"
            d="M13.1938 20.7329C13.2455 20.7422 13.2874 20.7701 13.3195 20.8167C13.3335 20.9283 13.3474 21.0401 13.3614 21.1518C13.0029 22.2972 12.8075 23.47 12.775 24.6701C12.7145 24.6351 12.6726 24.5793 12.6493 24.5025C12.5935 24.1116 12.5935 23.7207 12.6493 23.3298C12.8184 22.4586 12.9998 21.593 13.1938 20.7329Z"
            fill="#000001" />
        <path opacity="0.085" fill-rule="evenodd" clip-rule="evenodd"
            d="M20.4816 20.7329C20.5421 20.7679 20.584 20.8237 20.6073 20.9004C20.7891 21.4379 20.6215 21.8009 20.1047 21.9895C19.4885 22.8976 18.8602 23.7912 18.2198 24.6701C18.0856 24.6858 17.9738 24.6439 17.8848 24.5444C18.5734 23.6603 19.2296 22.7528 19.8534 21.8219C20.0488 21.6823 20.2443 21.5427 20.4397 21.4031C20.4814 21.1814 20.4954 20.958 20.4816 20.7329Z"
            fill="#000102" />
        <path opacity="0.969" fill-rule="evenodd" clip-rule="evenodd"
            d="M13.6965 25.8431C13.7407 25.7302 13.7547 25.6185 13.7383 25.508C13.1361 26.1364 12.452 26.2481 11.686 25.8431C11.6022 25.8152 11.5463 25.7593 11.5184 25.6755C11.4606 25.548 11.3628 25.4643 11.2253 25.4242C10.6636 25.754 10.0632 25.9774 9.4242 26.0944C9.17985 26.0555 8.95643 25.9717 8.75405 25.8431C8.25653 25.1752 7.96334 24.4213 7.87447 23.5813C7.83261 22.9676 7.81865 22.3533 7.83258 21.7384C7.82539 21.6549 7.85332 21.5851 7.91635 21.5289C7.13357 21.4856 6.35172 21.4996 5.5708 21.5708C5.71862 21.4903 5.88616 21.4623 6.07342 21.4871C6.08721 21.2921 6.14306 21.1107 6.24096 20.9425C6.91518 20.926 7.58533 20.8842 8.25143 20.8169C8.30728 20.8448 8.36312 20.8728 8.41897 20.9007C8.39392 21.796 8.4637 22.6896 8.62839 23.5813C8.71819 23.9903 8.85784 24.3813 9.04724 24.7541C9.33616 25.3383 9.7969 25.5477 10.4294 25.3823C10.9164 25.2296 11.3771 25.0202 11.8116 24.7541C12.5445 25.6289 13.3543 25.7126 14.241 25.0054C14.2828 25.0473 14.3247 25.0891 14.3666 25.131C14.2007 25.4232 13.9773 25.6605 13.6965 25.8431Z"
            fill="#00537C" />
        <path opacity="0.076" fill-rule="evenodd" clip-rule="evenodd"
            d="M16.0419 20.8169C16.0861 20.9192 16.142 21.0169 16.2094 21.1101C15.9268 22.4568 15.6755 23.811 15.4555 25.1729C15.4034 25.2673 15.3336 25.3511 15.2461 25.4242C15.4397 23.8718 15.7049 22.3361 16.0419 20.8169Z"
            fill="#000204" />
        <path opacity="0.078" fill-rule="evenodd" clip-rule="evenodd"
            d="M18.2201 21.7383C17.9745 21.6771 17.7232 21.6911 17.4662 21.7801C17.2271 22.1027 16.9618 22.3958 16.6704 22.6597C16.5463 22.5784 16.4764 22.4667 16.4609 22.3246C16.5228 22.3356 16.5787 22.3216 16.6285 22.2828C16.8618 21.9809 17.1131 21.7016 17.3824 21.4451C17.6416 21.3904 17.8929 21.4184 18.1363 21.5288C18.2921 21.5792 18.32 21.649 18.2201 21.7383Z"
            fill="#000306" />
        <path opacity="0.079" fill-rule="evenodd" clip-rule="evenodd"
            d="M23.4137 21.7381C23.0012 21.6391 22.6801 21.7786 22.4504 22.1569C22.0451 22.8579 21.8915 23.6119 21.9896 24.4187C21.6519 23.4046 21.8194 22.4691 22.4923 21.6124C22.8435 21.3416 23.1506 21.3835 23.4137 21.7381Z"
            fill="#000204" />
        <path opacity="0.079" fill-rule="evenodd" clip-rule="evenodd"
            d="M28.5233 21.7381C28.4126 21.7523 28.3148 21.7244 28.2302 21.6543C28.1408 21.7122 28.043 21.7541 27.937 21.78C27.2388 22.5183 26.9596 23.3979 27.0993 24.4187C26.7751 23.4086 26.9426 22.4732 27.6019 21.6124C27.9531 21.3416 28.2602 21.3835 28.5233 21.7381Z"
            fill="#000101" />
        <path opacity="0.074" fill-rule="evenodd" clip-rule="evenodd"
            d="M2.72266 21.3193C3.16974 21.5155 3.64444 21.6133 4.14674 21.6125C4.08371 21.6687 4.05578 21.7385 4.06297 21.822C3.72105 21.835 3.38597 21.7931 3.05773 21.6963C2.92861 21.5815 2.81692 21.4558 2.72266 21.3193Z"
            fill="#010305" />
        <path opacity="0.082" fill-rule="evenodd" clip-rule="evenodd"
            d="M7.83224 21.7384C7.13325 21.7478 6.43517 21.7757 5.73799 21.8221C5.64123 23.2154 5.26427 24.5277 4.6071 25.7593C3.68039 26.9934 2.46573 27.3984 0.963126 26.974C0.690404 26.8805 0.467018 26.7269 0.292969 26.5132C2.0271 27.2353 3.43722 26.8444 4.52334 25.3405C5.12029 24.1535 5.46933 22.8969 5.57046 21.5708C6.35137 21.4996 7.13322 21.4856 7.91601 21.529C7.85298 21.5852 7.82505 21.6549 7.83224 21.7384Z"
            fill="#000102" />
        <path opacity="0.058" fill-rule="evenodd" clip-rule="evenodd"
            d="M25.1729 22.0732C25.0068 21.9919 24.8392 21.9081 24.6703 21.8219C24.6144 21.8219 24.5865 21.794 24.5865 21.7381C24.5222 21.6819 24.4664 21.6121 24.4189 21.5287C24.4748 21.4728 24.5306 21.4728 24.5865 21.5287C24.7881 21.7116 24.9836 21.8931 25.1729 22.0732Z"
            fill="#02070B" />
        <path opacity="0.051" fill-rule="evenodd" clip-rule="evenodd"
            d="M29.9477 21.822C29.8646 21.8076 29.8088 21.8356 29.7801 21.9058C29.6879 21.7929 29.6041 21.6672 29.5288 21.5288C29.7191 21.5353 29.8587 21.6329 29.9477 21.822Z"
            fill="#030A0F" />
        <path opacity="0.059" fill-rule="evenodd" clip-rule="evenodd"
            d="M29.9478 21.8218C30.1073 21.8417 30.219 21.9255 30.2828 22.0731C30.1233 22.0531 30.0116 21.9694 29.9478 21.8218Z"
            fill="black" />
        <path opacity="0.078" fill-rule="evenodd" clip-rule="evenodd"
            d="M29.7803 21.9058C30.2827 23.2208 30.1012 24.4494 29.2358 25.5916C28.5362 26.3354 27.7125 26.5169 26.7646 26.1361C26.5747 26.0167 26.4352 25.863 26.3457 25.6754C26.9695 26.1402 27.6397 26.2101 28.3562 25.8848C29.6982 24.8897 30.1729 23.5633 29.7803 21.9058Z"
            fill="#000204" />
        <path opacity="0.079" fill-rule="evenodd" clip-rule="evenodd"
            d="M24.6702 21.9897C25.1555 23.2701 24.9739 24.4708 24.1257 25.5918C23.4899 26.2778 22.722 26.4873 21.822 26.2201C21.5774 26.0571 21.354 25.8756 21.1519 25.6756C22.1959 26.3353 23.1173 26.1957 23.9163 25.2568C24.0797 25.1549 24.2053 25.0153 24.2932 24.8379C24.7484 23.9345 24.8741 22.9851 24.6702 21.9897Z"
            fill="#000203" />
        <path opacity="0.06" fill-rule="evenodd" clip-rule="evenodd"
            d="M25.1729 22.0732C25.3323 22.0932 25.4441 22.1769 25.5079 22.3246C25.3484 22.3046 25.2367 22.2208 25.1729 22.0732Z"
            fill="black" />
        <path opacity="0.058" fill-rule="evenodd" clip-rule="evenodd"
            d="M30.2827 22.0732C30.4422 22.0932 30.554 22.1769 30.6178 22.3246C30.4583 22.3046 30.3465 22.2208 30.2827 22.0732Z"
            fill="black" />
        <path opacity="0.068" fill-rule="evenodd" clip-rule="evenodd"
            d="M31.7906 22.4082C31.8465 22.4361 31.9023 22.4641 31.9581 22.492C31.9581 22.7433 31.9581 22.9946 31.9581 23.2459C31.8502 23.5743 31.7385 23.5743 31.623 23.2459C31.7634 22.994 31.8192 22.7148 31.7906 22.4082Z"
            fill="black" />
        <path opacity="0.045" fill-rule="evenodd" clip-rule="evenodd"
            d="M30.6177 22.3247C30.8061 22.3733 30.9456 22.485 31.0365 22.6598C30.8481 22.6112 30.7086 22.4995 30.6177 22.3247Z"
            fill="#010407" />
        <path opacity="0.997" fill-rule="evenodd" clip-rule="evenodd"
            d="M23.9164 25.2566C23.1175 26.1955 22.1961 26.3351 21.152 25.6754C21.0962 25.5917 21.0404 25.5079 20.9845 25.4241C20.9324 25.3297 20.8626 25.2459 20.7751 25.1728C19.65 26.1915 18.4215 26.359 17.0892 25.6754C16.8828 25.7308 16.6734 25.7727 16.4609 25.8011C16.192 26.0287 15.9127 26.2381 15.6232 26.4294C15.609 26.3186 15.6369 26.2209 15.707 26.1362C16.1964 25.8217 16.6711 25.4866 17.1311 25.1309C17.3824 25.0751 17.6337 25.0751 17.885 25.1309C19.1464 25.6857 20.3053 25.5041 21.3615 24.5864C22.0454 25.4353 22.897 25.6588 23.9164 25.2566Z"
            fill="#00527B" />
        <path opacity="0.082" fill-rule="evenodd" clip-rule="evenodd"
            d="M20.9845 25.4242C20.3063 25.9863 19.5244 26.3213 18.6389 26.4294C18.1512 26.3367 17.6905 26.1691 17.2567 25.9268C17.0503 25.9822 16.8409 26.024 16.6284 26.0524C16.2245 26.3801 15.8057 26.6872 15.3719 26.9739C15.0807 28.0985 14.7037 29.2015 14.241 30.2828C13.8389 31.0621 13.2385 31.6206 12.44 31.9582C12.0211 31.9582 11.6023 31.9582 11.1834 31.9582C11.0588 31.849 10.9192 31.7513 10.7646 31.665C10.7016 31.6088 10.6736 31.539 10.6808 31.4556C11.7458 31.9371 12.6812 31.7416 13.4871 30.8692C14.3138 29.7174 14.8164 28.4329 14.9949 27.0158C15.1602 26.7727 15.3696 26.5772 15.6232 26.4294C15.9127 26.2382 16.192 26.0287 16.4609 25.8011C16.6733 25.7727 16.8828 25.7308 17.0892 25.6755C18.4214 26.359 19.65 26.1915 20.775 25.1729C20.8626 25.246 20.9324 25.3298 20.9845 25.4242Z"
            fill="#000101" />
        <path opacity="0.083" fill-rule="evenodd" clip-rule="evenodd"
            d="M11.5183 25.6756C10.9028 25.9691 10.2607 26.1924 9.5916 26.3458C9.20593 26.3483 8.92664 26.1808 8.75391 25.8432C8.95629 25.9718 9.17971 26.0556 9.42406 26.0945C10.0631 25.9775 10.6634 25.7541 11.2251 25.4243C11.3627 25.4644 11.4604 25.5481 11.5183 25.6756Z"
            fill="#000103" />
        <path opacity="0.083" fill-rule="evenodd" clip-rule="evenodd"
            d="M13.6965 25.8429C13.6127 25.9825 13.5011 26.0942 13.3614 26.178C13.3056 26.178 13.2777 26.2059 13.2777 26.2617C13.2498 26.2617 13.2218 26.2617 13.1939 26.2617C12.5825 26.4576 12.0799 26.3179 11.686 25.8429C12.452 26.2479 13.1362 26.1363 13.7384 25.5078C13.7547 25.6183 13.7407 25.7301 13.6965 25.8429Z"
            fill="#000001" />
        <path opacity="0.085" fill-rule="evenodd" clip-rule="evenodd"
            d="M13.2777 28.2724C13.2218 28.2724 13.1939 28.3003 13.1939 28.3562C12.4995 28.9118 11.9969 29.6099 11.6861 30.4504C11.5862 30.4111 11.5303 30.3273 11.5186 30.1991C11.9039 29.1847 12.5322 28.347 13.4034 27.686C13.3902 27.8813 13.3483 28.0767 13.2777 28.2724Z"
            fill="#000304" />
    </g>
    <defs>
        <clipPath id="clip0_4688_2284">
            <rect width="32" height="32" fill="white" />
        </clipPath>
    </defs>
</svg>