<svg width="32" height="32" viewBox="0 0 32 32" fill="none" xmlns="http://www.w3.org/2000/svg">
    <path fill-rule="evenodd" clip-rule="evenodd"
        d="M24.4935 26.733C19.7469 26.733 15.0002 26.733 10.2535 26.733C10.2535 25.7196 10.2535 24.7063 10.2535 23.693C12.1024 23.693 13.9513 23.693 15.8002 23.693C15.8002 22.9552 15.8002 22.2174 15.8002 21.4796C13.9513 21.4796 12.1024 21.4796 10.2535 21.4796C10.2535 20.413 10.2535 19.3463 10.2535 18.2796C12.3513 18.2796 14.4491 18.2796 16.5469 18.2796C16.5469 17.5418 16.5469 16.8041 16.5469 16.0663C13.5246 16.0663 10.5024 16.0663 7.48019 16.0663C7.48019 12.4485 7.48019 8.83076 7.48019 5.21297C7.47573 4.03961 7.48019 2.86628 7.49352 1.69297C7.56976 1.51006 7.69864 1.38117 7.88019 1.3063C15.258 1.28852 22.6357 1.28852 30.0135 1.3063C30.2047 1.37297 30.3335 1.50186 30.4002 1.69297C30.4181 9.9063 30.4181 18.1196 30.4002 26.333C30.3423 26.533 30.2135 26.6618 30.0135 26.7196C28.1735 26.733 26.3335 26.7375 24.4935 26.733Z"
        fill="#31AF91" />
    <path fill-rule="evenodd" clip-rule="evenodd"
        d="M7.47957 5.21358C7.47957 8.83137 7.47957 12.4491 7.47957 16.0669C7.47512 19.5158 7.47957 22.9647 7.4929 26.4136C7.5724 26.5624 7.6924 26.6646 7.8529 26.7202C8.65285 26.7336 9.45285 26.7381 10.2529 26.7336C14.9996 26.7336 19.7462 26.7336 24.4929 26.7336C24.4974 27.9069 24.4929 29.0802 24.4796 30.2536C24.404 30.4357 24.2751 30.5648 24.0929 30.6402C16.7151 30.6581 9.33736 30.6581 1.95957 30.6402C1.76846 30.5736 1.63957 30.4448 1.5729 30.2536C1.55513 22.0402 1.55513 13.8269 1.5729 5.61358C1.63068 5.41358 1.75957 5.2847 1.95957 5.22692C3.79954 5.21358 5.63954 5.20913 7.47957 5.21358Z"
        fill="#242855" />
    <path fill-rule="evenodd" clip-rule="evenodd"
        d="M7.48019 16.0664C10.5024 16.0664 13.5246 16.0664 16.5469 16.0664C16.5469 16.8042 16.5469 17.542 16.5469 18.2797C14.4491 18.2797 12.3513 18.2797 10.2535 18.2797C10.2535 19.3464 10.2535 20.4131 10.2535 21.4797C12.1024 21.4797 13.9513 21.4797 15.8002 21.4797C15.8002 22.2175 15.8002 22.9553 15.8002 23.6931C13.9513 23.6931 12.1024 23.6931 10.2535 23.6931C10.2535 24.7064 10.2535 25.7197 10.2535 26.7331C9.45347 26.7376 8.65347 26.7331 7.85352 26.7197C7.69301 26.6641 7.57301 26.5619 7.49352 26.4131C7.48019 22.9642 7.47573 19.5153 7.48019 16.0664Z"
        fill="#FEFEFE" />
</svg>