<svg width="32" height="32" viewBox="0 0 32 32" fill="none" xmlns="http://www.w3.org/2000/svg">
    <g clip-path="url(#clip0_3567_2725)">
        <path d="M0 0V32H32V0H0Z" fill="#FFF5F3" />
        <path d="M12.0801 14.5596V14.6396H12.6401L12.0801 14.5596Z" fill="#333D68" />
        <path
            d="M11.6799 14.677C9.80104 15.0157 8.94784 17.2702 9.85384 18.8798C10.4779 19.9885 11.7402 20.4637 12.9599 20.2322C14.9213 19.8599 15.9101 17.4036 14.7368 15.7598C14.0423 14.7868 12.8196 14.4715 11.6799 14.677Z"
            fill="#010F45" />
        <path d="M12.3999 15.5996V15.6796H12.6399L12.3999 15.5996Z" fill="#333D68" />
        <path
            d="M12.0001 15.7175C9.85894 16.1215 10.4735 19.5351 12.6401 19.174C14.8844 18.8 14.2615 15.2909 12.0001 15.7175Z"
            fill="#FFF5F3" />
        <path d="M14.0801 17.2002V17.6002H14.1601L14.0801 17.2002Z" fill="#333D68" />
        <path d="M10.5601 17.2802V17.5202H10.6401L10.5601 17.2802Z" fill="#333D68" />
        <path d="M12.2402 19.2002V19.2802H12.4802L12.2402 19.2002Z" fill="#5C6284" />
        <path
            d="M4.08008 12.0801V20.1601H5.20008V16.7201H7.68008V15.6801H5.20008V13.1201H8.80008V12.0801H4.08008Z"
            fill="#010F45" />
        <path
            d="M17.2002 11.7598V20.1598H18.3202C18.3202 19.1303 18.011 17.4936 18.4802 16.5598C18.9781 15.5688 20.4397 15.3625 21.0068 16.3998C21.5296 17.3562 21.2002 19.0918 21.2002 20.1598H22.3202C22.3202 18.727 22.6844 16.7054 21.8828 15.441C21.1876 14.3446 18.9853 14.2762 18.4002 15.5198H18.3202V11.7598H17.2002Z"
            fill="#010F45" />
        <path
            d="M25.5199 15.9199H25.4399V14.7199H24.3999V20.1599H25.4399C25.4399 18.5641 25.1777 15.0213 27.7599 15.8399L27.9199 14.7199C26.7677 14.5059 25.9241 14.7353 25.5199 15.9199Z"
            fill="#010F45" />
    </g>
    <defs>
        <clipPath id="clip0_3567_2725">
            <rect width="32" height="32" fill="white" />
        </clipPath>
    </defs>
</svg>