<svg width="32" height="32" viewBox="0 0 32 32" fill="none" xmlns="http://www.w3.org/2000/svg">
<path d="M28.413 0H3.58698C2.63746 0.00585537 1.7285 0.385648 1.05707 1.05707C0.385648 1.7285 0.00585537 2.63746 0 3.58698L0 28.413C0.00585537 29.3625 0.385648 30.2715 1.05707 30.9429C1.7285 31.6144 2.63746 31.9941 3.58698 32H28.413C29.3625 31.9941 30.2715 31.6144 30.9429 30.9429C31.6144 30.2715 31.9941 29.3625 32 28.413V3.58698C31.9941 2.63746 31.6144 1.7285 30.9429 1.05707C30.2715 0.385648 29.3625 0.00585537 28.413 0V0ZM25.1721 20.3088C25.1721 20.6065 24.9116 20.7367 24.614 20.867C23.4233 21.3767 22.1433 21.8419 20.7702 21.8419C18.8502 21.8419 17.9572 20.6512 15.6502 20.6512C13.987 20.6512 12.2344 21.2465 10.8279 21.8865C10.7423 21.9274 10.6567 21.9274 10.5712 21.9721V25.213C10.5712 25.3433 10.5712 25.4735 10.5302 25.5553V25.6447C10.4226 25.9675 10.2043 26.2419 9.91402 26.4195C9.6237 26.5971 9.27998 26.6665 8.94353 26.6153C8.60707 26.5641 8.29951 26.3957 8.07514 26.1398C7.85076 25.8839 7.72399 25.557 7.71721 25.2167V9.6C7.31734 9.2995 7.02261 8.88038 6.87506 8.40245C6.72752 7.92451 6.73471 7.41218 6.8956 6.93857C7.0565 6.46497 7.36288 6.05428 7.77102 5.76512C8.17916 5.47596 8.66821 5.32311 9.16837 5.32837C9.48302 5.32739 9.79476 5.38858 10.0857 5.50842C10.3766 5.62827 10.641 5.80441 10.8637 6.02672C11.0863 6.24904 11.2629 6.51315 11.3832 6.8039C11.5035 7.09464 11.5651 7.40628 11.5647 7.72093C11.5647 8.49116 11.2223 9.17209 10.627 9.6V10.9209C10.7572 10.88 10.8874 10.8353 11.014 10.7498C12.3349 10.1916 13.9163 9.73023 15.4047 9.73023C17.027 9.73023 18.307 10.1581 19.7581 10.7088C20.0558 10.8353 20.3572 10.88 20.6921 10.88C22.3144 10.88 24.1079 9.72651 24.5358 9.72651C24.8781 9.72651 25.1795 9.98698 25.1795 10.2847V20.3088H25.1721Z" fill="#339AF0"/>
</svg>
