<svg width="32" height="32" viewBox="0 0 33 33" fill="none" xmlns="http://www.w3.org/2000/svg">
    <path fill-rule="evenodd" clip-rule="evenodd"
        d="M14.8499 0.49716C24.0946 0.417362 29.9601 4.81871 32.4465 13.7011C33.2717 22.4821 29.6474 28.51 21.5738 31.7849C13.3944 33.8665 7.0043 31.3787 2.40352 24.3217C-0.598974 17.7708 0.0686382 11.6472 4.40639 5.95098C7.29735 2.94641 10.7785 1.12848 14.8499 0.49716Z"
        fill="#020202" />
    <path fill-rule="evenodd" clip-rule="evenodd"
        d="M21.4308 18.8679C19.2371 18.8679 17.0437 18.8679 14.85 18.8679C14.85 20.4946 14.85 22.121 14.85 23.7477C13.5146 23.7477 12.1795 23.7477 10.8442 23.7477C10.8442 18.9635 10.8442 14.1797 10.8442 9.39551C14.6591 9.39551 18.4743 9.39551 22.2892 9.39551C22.2892 10.7351 22.2892 12.0746 22.2892 13.4141C19.8094 13.4141 17.3298 13.4141 14.85 13.4141C14.85 13.8926 14.85 14.3708 14.85 14.8493C17.0437 14.8493 19.2371 14.8493 21.4308 14.8493C21.4308 16.189 21.4308 17.5283 21.4308 18.8679Z"
        fill="#FAFAFA" />
    <path fill-rule="evenodd" clip-rule="evenodd"
        d="M21.4307 18.8682C19.3855 19.1529 17.2873 19.2485 15.136 19.1552C15.2278 20.7414 15.1325 22.2725 14.8499 23.7479C14.8499 22.1212 14.8499 20.4948 14.8499 18.8682C17.0436 18.8682 19.237 18.8682 21.4307 18.8682Z"
        fill="#020202" />
</svg>