<svg width="32" height="32" viewBox="0 0 32 32" fill="none" xmlns="http://www.w3.org/2000/svg">
    <g clip-path="url(#clip0_2740_4145)">
        <path fill-rule="evenodd" clip-rule="evenodd"
            d="M-0.0712891 -0.0712891C10.5954 -0.0712891 21.262 -0.0712891 31.9287 -0.0712891C31.9287 10.5954 31.9287 21.262 31.9287 31.9287C21.262 31.9287 10.5954 31.9287 -0.0712891 31.9287C-0.0712891 21.262 -0.0712891 10.5954 -0.0712891 -0.0712891Z"
            fill="#FEFEFE" />
        <path fill-rule="evenodd" clip-rule="evenodd"
            d="M21.8309 16.142C21.8309 15.9049 21.8309 15.6679 21.8309 15.4309C21.8309 14.4353 21.8309 13.4397 21.8309 12.4442C21.8546 11.6369 21.8308 10.8309 21.7598 10.0264C21.1816 9.88935 20.5889 9.84194 19.9821 9.88418C20.0283 8.86209 19.9808 7.86653 19.8398 6.89752C17.185 6.89752 14.5303 6.89752 11.8754 6.89752C11.8989 7.46837 11.8752 8.03726 11.8043 8.60418C11.3516 8.89196 10.8538 8.96307 10.3109 8.81752C10.1924 8.699 10.0739 8.58048 9.95539 8.46196C9.86057 7.51381 9.86057 6.56567 9.95539 5.61752C10.0739 5.30936 10.2872 5.09603 10.5954 4.97752C14.2582 4.838 17.9086 4.8854 21.5465 5.11974C21.7173 5.24809 21.8359 5.41403 21.9021 5.61752C22.0201 9.14986 21.9964 12.658 21.8309 16.142Z"
            fill="#41A7E8" />
        <path fill-rule="evenodd" clip-rule="evenodd"
            d="M10.3109 10.0264C10.9763 10.0028 11.64 10.0265 12.3021 10.0975C12.1655 10.628 12.1181 11.1732 12.1598 11.7331C12.5238 11.6902 12.8557 11.7376 13.1554 11.8753C12.2072 11.8753 11.2591 11.8753 10.3109 11.8753C10.2025 11.7661 10.0603 11.695 9.88428 11.662C10.0739 11.2353 10.0739 10.8086 9.88428 10.382C10.0366 10.2608 10.1788 10.1423 10.3109 10.0264Z"
            fill="#EDD328" />
        <path fill-rule="evenodd" clip-rule="evenodd"
            d="M5.61768 10.027C9.12583 9.83736 12.634 9.83736 16.1421 10.027C15.3185 9.96404 14.797 10.0115 14.5777 10.1692C14.5777 10.6907 14.5777 11.2122 14.5777 11.7337C14.2598 11.6917 13.9753 11.7391 13.7243 11.8759C13.5347 11.8759 13.3451 11.8759 13.1555 11.8759C12.8557 11.7382 12.5239 11.6908 12.1599 11.7337C12.1182 11.1738 12.1656 10.6286 12.3021 10.0981C11.6401 10.0271 10.9764 10.0034 10.311 10.027C8.74656 10.027 7.18212 10.027 5.61768 10.027Z"
            fill="#E4D744" />
        <path fill-rule="evenodd" clip-rule="evenodd"
            d="M16.1424 10.0269C16.4385 10.0446 16.6518 10.1868 16.7824 10.4536C16.8535 11.9225 16.8771 13.3921 16.8535 14.8625C16.2372 14.8625 15.6209 14.8625 15.0046 14.8625C15.0046 13.8669 15.0046 12.8714 15.0046 11.8758C14.5779 11.8758 14.1513 11.8758 13.7246 11.8758C13.9756 11.7391 14.2601 11.6917 14.5779 11.7336C14.5779 11.2121 14.5779 10.6906 14.5779 10.1691C14.7972 10.0114 15.3188 9.96398 16.1424 10.0269Z"
            fill="#D1D531" />
        <path fill-rule="evenodd" clip-rule="evenodd"
            d="M15.5732 21.8314C16.3317 21.8314 17.0903 21.8314 17.8488 21.8314C19.1845 21.8869 20.1326 21.8395 20.6932 21.6892C20.6932 21.1677 20.6932 20.6463 20.6932 20.1248C21.1036 20.1683 21.4829 20.1209 21.831 19.9825C22.9004 20.0288 23.9433 19.9814 24.9599 19.8403C24.9599 17.1855 24.9599 14.5307 24.9599 11.8759C24.4859 11.8759 24.0117 11.8759 23.5377 11.8759C23.0546 11.768 22.865 11.4599 22.9688 10.9514C22.9092 10.5275 23.0514 10.1956 23.3955 9.95588C24.3437 9.86106 25.2917 9.86106 26.2399 9.95588C26.5343 10.0907 26.7476 10.304 26.8799 10.5959C27.0194 14.2587 26.9721 17.9091 26.7377 21.547C26.6093 21.7178 26.4434 21.8364 26.2399 21.9025C22.6602 22.0206 19.1046 21.9968 15.5732 21.8314Z"
            fill="#B0D942" />
        <path fill-rule="evenodd" clip-rule="evenodd"
            d="M5.61785 10.0264C7.1823 10.0264 8.74674 10.0264 10.3112 10.0264C10.179 10.1423 10.0368 10.2608 9.88452 10.3819C10.0741 10.8086 10.0741 11.2353 9.88452 11.6619C10.0605 11.6949 10.2027 11.766 10.3112 11.8753C9.14723 11.8289 8.00945 11.8763 6.89785 12.0175C6.89785 14.6723 6.89785 17.3271 6.89785 19.9819C7.37192 19.9819 7.84601 19.9819 8.32007 19.9819C8.80318 20.0897 8.9928 20.3979 8.88896 20.9064C8.94848 21.3303 8.80626 21.6621 8.4623 21.9019C7.51414 21.9968 6.56601 21.9968 5.61785 21.9019C5.3097 21.7835 5.09637 21.5701 4.97785 21.2619C4.88303 17.7064 4.88303 14.1508 4.97785 10.5953C5.08416 10.2751 5.2975 10.0855 5.61785 10.0264Z"
            fill="#F8D32A" />
        <path fill-rule="evenodd" clip-rule="evenodd"
            d="M19.9824 9.88407C20.5893 9.84183 21.1819 9.88923 21.7602 10.0263C21.8312 10.8308 21.8549 11.6368 21.8313 12.4441C21.7027 12.5449 21.6554 12.6871 21.6891 12.8707C21.1676 12.8707 20.6462 12.8707 20.1246 12.8707C20.165 12.5984 20.1177 12.3614 19.9824 12.1596C19.9824 11.4011 19.9824 10.6426 19.9824 9.88407Z"
            fill="#479BE8" />
        <path fill-rule="evenodd" clip-rule="evenodd"
            d="M6.89795 12.0176C6.94535 12.0176 6.99277 12.0176 7.04017 12.0176C7.04017 14.6249 7.04017 17.2324 7.04017 19.8398C7.49715 19.7957 7.92381 19.8431 8.32017 19.982C7.8461 19.982 7.37202 19.982 6.89795 19.982C6.89795 17.3272 6.89795 14.6724 6.89795 12.0176Z"
            fill="#FDF6DE" />
        <path fill-rule="evenodd" clip-rule="evenodd"
            d="M23.5376 11.876C24.0116 11.876 24.4858 11.876 24.9598 11.876C24.9598 14.5308 24.9598 17.1856 24.9598 19.8404C24.9125 19.8404 24.865 19.8404 24.8176 19.8404C24.8176 17.2331 24.8176 14.6256 24.8176 12.0182C24.3606 12.0623 23.934 12.0149 23.5376 11.876Z"
            fill="#F0F8E1" />
        <path fill-rule="evenodd" clip-rule="evenodd"
            d="M19.9824 12.1602C20.1177 12.3619 20.165 12.599 20.1246 12.8713C20.6462 12.8713 21.1675 12.8713 21.6891 12.8713C21.6554 12.6877 21.7027 12.5454 21.8313 12.4446C21.8313 13.4402 21.8313 14.4357 21.8313 15.4313C21.7027 15.5321 21.6554 15.6743 21.6891 15.8579C18.1293 15.8942 14.5973 15.9416 11.0935 16.0002C10.701 15.9252 10.3455 15.783 10.0269 15.5735C10.1217 15.289 10.3113 15.0995 10.5957 15.0046C13.7246 15.0046 16.8535 15.0046 19.9824 15.0046C19.9824 14.0564 19.9824 13.1083 19.9824 12.1602Z"
            fill="#588CE8" />
        <path fill-rule="evenodd" clip-rule="evenodd"
            d="M21.8309 15.4307C21.8309 15.6677 21.8309 15.9047 21.8309 16.1418C21.7836 16.5684 21.5465 16.8055 21.1198 16.8529C18.0383 16.8529 14.9569 16.8529 11.8754 16.8529C11.3207 16.9852 10.7519 17.0325 10.1687 16.9951C10.0174 17.5078 9.97003 18.4085 10.0265 19.6973C10.0265 21.878 10.0265 24.0589 10.0265 26.2396C9.83687 22.684 9.83687 19.1284 10.0265 15.5729C10.3451 15.7824 10.7007 15.9246 11.0932 15.9996C14.5969 15.941 18.1289 15.8936 21.6887 15.8573C21.655 15.6737 21.7024 15.5315 21.8309 15.4307Z"
            fill="#668AE9" />
        <path fill-rule="evenodd" clip-rule="evenodd"
            d="M15.0045 16.9951C15.6207 16.9951 16.2371 16.9951 16.8533 16.9951C16.8533 17.9907 16.8533 18.9862 16.8533 19.9818C17.0904 19.9818 17.3274 19.9818 17.5645 19.9818C17.5986 20.4197 17.5512 20.8464 17.4222 21.2618C17.5178 21.4979 17.66 21.6875 17.8489 21.8307C17.0904 21.8307 16.3318 21.8307 15.5733 21.8307C15.3439 21.7675 15.178 21.6253 15.0756 21.404C15.0045 19.9351 14.9808 18.4656 15.0045 16.9951Z"
            fill="#D1D531" />
        <path fill-rule="evenodd" clip-rule="evenodd"
            d="M11.8753 16.8535C11.8753 17.5646 11.8753 18.2757 11.8753 18.9868C11.7369 19.335 11.6895 19.7143 11.7331 20.1246C11.2116 20.1246 10.6901 20.1246 10.1687 20.1246C10.2024 19.941 10.155 19.7988 10.0264 19.698C9.96998 18.4091 10.0174 17.5084 10.1687 16.9957C10.7518 17.0331 11.3207 16.9858 11.8753 16.8535Z"
            fill="#677FE8" />
        <path fill-rule="evenodd" clip-rule="evenodd"
            d="M16.8535 16.9951C16.9009 16.9951 16.9484 16.9951 16.9957 16.9951C16.9957 17.9433 16.9957 18.8914 16.9957 19.8396C19.6031 19.8396 22.2106 19.8396 24.818 19.8396C24.8653 19.8396 24.9128 19.8396 24.9602 19.8396C23.9436 19.9806 22.9007 20.028 21.8313 19.9818C20.4091 19.9818 18.9868 19.9818 17.5646 19.9818C17.3275 19.9818 17.0906 19.9818 16.8535 19.9818C16.8535 18.9862 16.8535 17.9907 16.8535 16.9951Z"
            fill="#E6F0C4" />
        <path fill-rule="evenodd" clip-rule="evenodd"
            d="M17.5646 19.9824C18.9868 19.9824 20.409 19.9824 21.8313 19.9824C21.4831 20.1208 21.1038 20.1682 20.6935 20.1246C20.6935 20.6462 20.6935 21.1676 20.6935 21.6891C20.1328 21.8394 19.1848 21.8868 17.849 21.8313C17.6602 21.6881 17.5179 21.4985 17.4224 21.2624C17.5514 20.847 17.5987 20.4203 17.5646 19.9824Z"
            fill="#BFD736" />
        <path fill-rule="evenodd" clip-rule="evenodd"
            d="M11.8757 18.9863C11.8289 21.0026 11.8763 22.9937 12.018 24.9597C14.6728 24.9597 17.3275 24.9597 19.9824 24.9597C19.9824 24.4856 19.9824 24.0115 19.9824 23.5374C20.0902 23.0543 20.3984 22.8647 20.9069 22.9686C21.3308 22.909 21.6626 23.0512 21.9024 23.3952C21.9973 24.3434 21.9973 25.2915 21.9024 26.2397C21.7839 26.5479 21.5706 26.7612 21.2624 26.8797C17.7069 26.9745 14.1513 26.9745 10.5957 26.8797C10.2756 26.7733 10.086 26.5599 10.0269 26.2397C10.0269 24.059 10.0269 21.8781 10.0269 19.6974C10.1554 19.7983 10.2028 19.9405 10.1691 20.1241C10.6906 20.1241 11.212 20.1241 11.7335 20.1241C11.6899 19.7138 11.7373 19.3345 11.8757 18.9863Z"
            fill="#7E6FE9" />
    </g>
    <defs>
        <clipPath id="clip0_2740_4145">
            <rect width="32" height="32" fill="white" />
        </clipPath>
    </defs>
</svg>