<svg width="32" height="32" viewBox="0 0 32 32" fill="none" xmlns="http://www.w3.org/2000/svg">
    <g clip-path="url(#clip0_4410_65)">
        <path opacity="0.997" fill-rule="evenodd" clip-rule="evenodd"
            d="M-0.0322266 16.2242C-0.0322266 16.0535 -0.0322266 15.8829 -0.0322266 15.7122C0.256682 10.0023 2.77401 5.57558 7.51977 2.43222C12.1336 -0.222477 16.9336 -0.606477 21.9198 1.28022C27.0296 3.55368 30.1976 7.42569 31.4238 12.8962C32.3762 18.7428 30.7229 23.7028 26.4638 27.7762C22.5587 31.1155 18.0574 32.3742 12.9598 31.5522C7.44374 30.3874 3.5291 27.2407 1.21577 22.1122C0.450272 20.2149 0.0342719 18.2522 -0.0322266 16.2242Z"
            fill="#353C42" />
        <path fill-rule="evenodd" clip-rule="evenodd"
            d="M19.552 4.57617C19.4453 4.61884 19.3387 4.6615 19.232 4.70417C16.575 5.26152 14.1857 6.37085 12.064 8.03217C12.064 6.88017 12.064 5.72817 12.064 4.57617C14.56 4.57617 17.056 4.57617 19.552 4.57617Z"
            fill="#DB4C32" />
        <path fill-rule="evenodd" clip-rule="evenodd"
            d="M19.5521 4.57617C19.6801 4.57617 19.8081 4.57617 19.9361 4.57617C19.9361 7.02948 19.9361 9.48286 19.9361 11.9362C19.6249 11.9158 19.3262 11.9371 19.0401 12.0002C14.912 12.3843 11.4453 14.091 8.6401 17.1202C8.62967 17.2409 8.68305 17.3369 8.8001 17.4082C9.85553 18.1547 10.9009 18.912 11.9361 19.6802C9.53636 19.744 7.12567 19.7654 4.7041 19.7442C4.7041 17.1629 4.7041 14.5815 4.7041 12.0002C4.74677 12.0002 4.7681 12.0215 4.7681 12.0642C5.48129 13.2767 6.19595 14.4927 6.9121 15.7122C6.95818 15.8245 7.03287 15.8779 7.1361 15.8722C9.04938 11.8256 11.9081 8.62564 15.7121 6.27217C16.8439 5.64196 18.0173 5.11929 19.2321 4.70417C19.3388 4.6615 19.4454 4.61884 19.5521 4.57617Z"
            fill="#FEFEFD" />
        <path fill-rule="evenodd" clip-rule="evenodd"
            d="M19.2321 4.7041C18.0172 5.11922 16.8439 5.64189 15.7121 6.2721C11.908 8.62557 9.04935 11.8256 7.13607 15.8721C7.03283 15.8778 6.95815 15.8244 6.91207 15.7121C6.19592 14.4926 5.48126 13.2766 4.76807 12.0641C5.51345 12.7454 6.26011 13.428 7.00807 14.1121C7.42471 13.3636 7.87271 12.6382 8.35207 11.9361C9.41127 10.4714 10.6486 9.17002 12.0641 8.0321C14.1858 6.37078 16.5751 5.26145 19.2321 4.7041Z"
            fill="#DFDCD6" />
        <path fill-rule="evenodd" clip-rule="evenodd"
            d="M19.04 12.0002C19.3261 11.9371 19.6248 11.9158 19.936 11.9362C19.936 11.9575 19.936 11.9789 19.936 12.0002C19.6971 11.9889 19.4624 12.0102 19.232 12.0642C19.1867 12.0063 19.1227 11.985 19.04 12.0002Z"
            fill="#976B65" />
        <path fill-rule="evenodd" clip-rule="evenodd"
            d="M4.7041 11.9995C4.7041 11.9782 4.7041 11.9569 4.7041 11.9355C5.9201 11.9355 7.1361 11.9355 8.3521 11.9355C7.87274 12.6376 7.42474 13.363 7.0081 14.1115C6.26015 13.4275 5.51348 12.7448 4.7681 12.0635C4.7681 12.0209 4.74677 11.9995 4.7041 11.9995Z"
            fill="#DA4D33" />
        <path fill-rule="evenodd" clip-rule="evenodd"
            d="M19.04 11.9998C19.1226 11.9847 19.1866 12.006 19.232 12.0638C15.6044 12.7734 12.4791 14.416 9.85595 16.9918C9.88142 17.1282 9.94542 17.2562 10.048 17.3758C10.6881 18.1545 11.3388 18.9225 12 19.6798C11.9786 19.6798 11.9573 19.6798 11.936 19.6798C10.9008 18.9117 9.85537 18.1544 8.79995 17.4078C8.6829 17.3366 8.62952 17.2406 8.63995 17.1198C11.4451 14.0907 14.9118 12.384 19.04 11.9998Z"
            fill="#3A3E43" />
        <path fill-rule="evenodd" clip-rule="evenodd"
            d="M19.936 12C20.6166 12.7771 21.2886 13.5664 21.952 14.368C22.0545 14.4876 22.1185 14.6156 22.144 14.752C19.4893 17.3116 16.3426 18.9543 12.704 19.68C12.4582 19.7335 12.2236 19.7335 12 19.68C11.3388 18.9226 10.6881 18.1546 10.048 17.376C9.94543 17.2564 9.88143 17.1284 9.85596 16.992C12.4791 14.4162 15.6044 12.7735 19.232 12.064C19.4623 12.01 19.697 11.9887 19.936 12Z"
            fill="#DB4C32" />
        <path fill-rule="evenodd" clip-rule="evenodd"
            d="M27.2961 12.0001C27.2961 14.5814 27.2961 17.1628 27.2961 19.7441C27.2748 19.7441 27.2534 19.7441 27.2321 19.7441C27.2108 19.7014 27.1894 19.6588 27.1681 19.6161C26.4444 18.3398 25.6871 17.0811 24.8961 15.8401C23.3501 19.0291 21.2061 21.7491 18.4641 24.0001C16.8415 25.2381 15.0708 26.2088 13.1521 26.9121C12.9824 26.9063 12.8331 26.949 12.7041 27.0401C12.5592 27.0861 12.4099 27.1074 12.2561 27.1041C12.1285 24.6944 12.0858 22.2624 12.1281 19.8081C12.3841 19.8081 12.6401 19.8081 12.8961 19.8081C17.1127 19.4064 20.6327 17.6464 23.4561 14.5281C22.3368 13.6805 21.2061 12.8485 20.0641 12.0321C22.4747 12.0001 24.8853 11.9894 27.2961 12.0001Z"
            fill="#FEFEFD" />
        <path fill-rule="evenodd" clip-rule="evenodd"
            d="M19.9361 11.9997C19.9361 11.9784 19.9361 11.957 19.9361 11.9357C22.4004 11.9144 24.8537 11.9358 27.2961 11.9997C24.8854 11.989 22.4747 11.9997 20.0641 12.0317C21.2061 12.8481 22.3368 13.6801 23.4561 14.5277C20.6327 17.646 17.1127 19.406 12.8961 19.8077C12.8321 19.765 12.7681 19.7224 12.7041 19.6797C16.3428 18.9539 19.4894 17.3112 22.1441 14.7517C22.1186 14.6153 22.0546 14.4873 21.9521 14.3677C21.2887 13.5661 20.6167 12.7768 19.9361 11.9997Z"
            fill="#DFDAD5" />
        <path fill-rule="evenodd" clip-rule="evenodd"
            d="M27.1679 19.6164C27.1892 19.659 27.2106 19.7017 27.2319 19.7444C26.0474 19.7655 24.8741 19.7442 23.7119 19.6804C24.1594 18.9992 24.5754 18.2952 24.9599 17.5684C25.6876 18.2642 26.4236 18.9469 27.1679 19.6164Z"
            fill="#DA4B32" />
        <path fill-rule="evenodd" clip-rule="evenodd"
            d="M4.70379 11.9355C4.70379 11.9569 4.70379 11.9782 4.70379 11.9995C4.70379 14.5809 4.70379 17.1622 4.70379 19.7435C7.12536 19.7648 9.53604 19.7434 11.9358 19.6795C11.9571 19.6795 11.9785 19.6795 11.9998 19.6795C12.2234 19.733 12.458 19.733 12.7038 19.6795C12.7678 19.7222 12.8318 19.7649 12.8958 19.8075C12.6398 19.8075 12.3838 19.8075 12.1278 19.8075C12.064 20.9484 12.0427 22.1004 12.0638 23.2635C12 22.1227 11.9787 20.9707 11.9998 19.8075C9.54648 19.8075 7.0931 19.8075 4.63979 19.8075C4.61854 17.1727 4.63988 14.5487 4.70379 11.9355Z"
            fill="#AD918D" />
        <path fill-rule="evenodd" clip-rule="evenodd"
            d="M23.7119 19.6797C24.8741 19.7435 26.0474 19.7648 27.2319 19.7437C27.2533 19.7437 27.2746 19.7437 27.2959 19.7437C26.0903 19.8287 24.8743 19.8287 23.6479 19.7437C23.6559 19.7048 23.6772 19.6835 23.7119 19.6797Z"
            fill="#90453A" />
        <path fill-rule="evenodd" clip-rule="evenodd"
            d="M12.128 19.8076C12.0857 22.2619 12.1284 24.6939 12.256 27.1036C12.256 27.1249 12.256 27.1463 12.256 27.1676C12.192 27.1676 12.128 27.1676 12.064 27.1676C12.064 25.8663 12.064 24.5649 12.064 23.2636C12.0429 22.1005 12.0642 20.9485 12.128 19.8076Z"
            fill="#DEDFE0" />
        <path fill-rule="evenodd" clip-rule="evenodd"
            d="M19.8081 23.7759C19.8119 23.7412 19.8333 23.7199 19.8721 23.7119C19.957 24.8743 19.957 26.0263 19.8721 27.1679C19.8932 26.0261 19.8719 24.8954 19.8081 23.7759Z"
            fill="#934439" />
        <path fill-rule="evenodd" clip-rule="evenodd"
            d="M19.8079 23.7764C19.8717 24.8959 19.893 26.0265 19.8719 27.1684C17.3332 27.1684 14.7945 27.1684 12.2559 27.1684C12.2559 27.1471 12.2559 27.1257 12.2559 27.1044C12.4097 27.1077 12.559 27.0864 12.7039 27.0404C12.8736 27.0461 13.0229 27.0035 13.1519 26.9124C15.6228 26.3807 17.8415 25.3353 19.8079 23.7764Z"
            fill="#DA4B32" />
        <path fill-rule="evenodd" clip-rule="evenodd"
            d="M13.1521 26.9116C13.0231 27.0028 12.8738 27.0454 12.7041 27.0396C12.8331 26.9485 12.9824 26.9059 13.1521 26.9116Z"
            fill="#875952" />
    </g>
    <defs>
        <clipPath id="clip0_4410_65">
            <rect width="32" height="32" fill="white" />
        </clipPath>
    </defs>
</svg>