<svg width="32" height="32" viewBox="0 0 32 32" fill="none" xmlns="http://www.w3.org/2000/svg">
    <path d="M32 0H0V32H32V0Z" fill="#2073E7" />
    <path fill-rule="evenodd" clip-rule="evenodd"
        d="M25.612 4.79921C21.7739 4.68057 18.0569 5.21393 14.4612 6.39921C17.9544 4.05473 21.6714 3.52137 25.612 4.79921Z"
        fill="#FAFAFA" />
    <path fill-rule="evenodd" clip-rule="evenodd"
        d="M14.4612 6.4C18.0569 5.21472 21.7739 4.68136 25.612 4.8C28.5325 5.06664 30.1254 6.66664 30.3909 9.6C28.2884 9.2368 26.4298 8.30344 24.8155 6.8C22.7936 6.16336 20.9352 6.29672 19.2401 7.2C17.1236 7.54784 15.2651 8.34784 13.6647 9.6C10.9548 9.72608 8.29992 9.45936 5.69988 8.8C3.09091 8.30272 2.02896 6.70272 2.51394 4C4.36529 4.1292 5.69279 5.06256 6.49636 6.8C9.30533 7.446 11.9603 7.31264 14.4612 6.4Z"
        fill="#FAFAFA" />
    <path fill-rule="evenodd" clip-rule="evenodd"
        d="M19.2399 7.20117C17.9053 9.06813 16.0468 9.86813 13.6646 9.60117C15.2649 8.34901 17.1234 7.54901 19.2399 7.20117Z"
        fill="#FAFAFA" />
    <path fill-rule="evenodd" clip-rule="evenodd"
        d="M5.69971 8.79883C8.29975 9.45819 10.9547 9.72491 13.6646 9.59883C11.4316 10.5091 9.04216 10.6424 6.49619 9.99883C6.05335 9.69275 5.78788 9.29275 5.69971 8.79883Z"
        fill="#FAFAFA" />
    <path fill-rule="evenodd" clip-rule="evenodd"
        d="M27.205 13.5986C23.4592 13.5484 19.7422 13.815 16.0542 14.3986C17.8914 13.1612 20.0154 12.6279 22.4261 12.7987C24.1756 12.8023 25.7685 13.069 27.205 13.5986Z"
        fill="#FAFAFA" />
    <path fill-rule="evenodd" clip-rule="evenodd"
        d="M16.0542 14.3988C19.7422 13.8152 23.4592 13.5486 27.205 13.5988C29.2314 14.5651 30.2933 16.1651 30.3909 18.3988C28.3691 17.9647 26.5106 17.1647 24.8155 15.9988C20.7474 14.7748 17.0305 15.5748 13.6647 18.3988C10.9548 18.5249 8.29992 18.2582 5.69988 17.5988C3.09091 17.1015 2.02896 15.5015 2.51394 12.7988C4.52873 14.4728 6.91818 15.5395 9.6823 15.9988C11.8594 15.6244 13.9833 15.0911 16.0542 14.3988Z"
        fill="#FAFAFA" />
    <path fill-rule="evenodd" clip-rule="evenodd"
        d="M24.8153 16.0005C20.9867 16.3261 17.2698 17.1261 13.6646 18.4005C17.0303 15.5765 20.7472 14.7765 24.8153 16.0005Z"
        fill="#FAFAFA" />
    <path fill-rule="evenodd" clip-rule="evenodd"
        d="M5.69971 17.5996C8.29975 18.259 10.9547 18.5257 13.6646 18.3996C11.4316 19.3098 9.04216 19.4432 6.49619 18.7996C6.05335 18.4935 5.78788 18.0935 5.69971 17.5996Z"
        fill="#FAFAFA" />
    <path fill-rule="evenodd" clip-rule="evenodd"
        d="M26.4085 21.5982C26.7853 22.7233 27.5818 23.2566 28.7979 23.1982C29.9463 24.2538 30.4773 25.5872 30.3909 27.1982C28.4532 27.3799 27.1258 26.5799 26.4085 24.7982C22.4679 23.5204 18.7509 24.0537 15.2577 26.3982C12.6403 26.9639 9.98542 27.2306 7.29283 27.1982C4.4027 26.4646 2.80973 24.5979 2.51392 21.5982C4.84794 22.4698 7.1047 23.5364 9.28404 24.7982C12.2607 24.4178 15.0484 23.4845 17.6471 21.9982C20.5556 21.5993 23.4761 21.466 26.4085 21.5982Z"
        fill="#FAFAFA" />
    <path fill-rule="evenodd" clip-rule="evenodd"
        d="M26.4087 21.6C27.6248 21.5416 28.4213 22.075 28.7981 23.2C27.582 23.2584 26.7855 22.7251 26.4087 21.6Z"
        fill="#FAFAFA" />
    <path fill-rule="evenodd" clip-rule="evenodd"
        d="M26.4084 24.7992C22.5703 24.6806 18.8533 25.2139 15.2576 26.3992C18.7508 24.0547 22.4677 23.5214 26.4084 24.7992Z"
        fill="#FAFAFA" />
    <path fill-rule="evenodd" clip-rule="evenodd"
        d="M15.2576 26.4004C15.1694 26.8943 14.9039 27.2943 14.4611 27.6004C11.9151 28.244 9.52567 28.1106 7.29272 27.2004C9.98532 27.2328 12.6402 26.9661 15.2576 26.4004Z"
        fill="#FAFAFA" />
</svg>