<svg width="32" height="32" viewBox="0 0 32 32" fill="none" xmlns="http://www.w3.org/2000/svg">
    <g clip-path="url(#clip0_2571_47)">
        <path fill-rule="evenodd" clip-rule="evenodd"
            d="M0 5C0 2.23857 2.23858 0 5 0C12.3333 0 19.6667 0 27 0C29.7614 0 32 2.23858 32 5C32 12.3334 32 19.6667 32 27C32 29.7614 29.7614 32 27 32C19.6667 32 12.3333 32 5 32C2.23858 32 0 29.7614 0 27C0 19.6667 0 12.3333 0 5Z"
            fill="#EC4D74" />
        <path fill-rule="evenodd" clip-rule="evenodd"
            d="M27.1931 4.28448C26.8184 4.15938 26.4374 4.24254 26.1148 4.4799C25.8123 4.70251 25.5602 5.0571 25.3467 5.50575C24.9187 6.40518 24.5614 7.86369 24.3461 10.0448C24.1691 11.439 24.1231 13.6157 24.3782 15.4898C24.3847 15.5375 24.3914 15.585 24.3983 15.6324C24.1657 16.0272 23.9253 16.4065 23.6804 16.7549C23.2136 17.4183 22.7571 17.9291 22.3356 18.2242C21.9197 18.5155 21.6287 18.5406 21.3976 18.4398C21.0162 18.2732 20.6696 17.8285 20.3989 17.0577C20.2861 16.7369 20.1936 16.3795 20.1187 15.9974C20.2242 15.7981 20.315 15.62 20.3891 15.474C20.4887 15.2781 20.613 15.0538 20.7539 14.7994C21.4092 13.6166 22.4252 11.7827 22.9921 9.12409L22.9947 9.11196L22.9967 9.09972C23.1123 8.40534 23.2189 7.34426 23.1534 6.42042C23.121 5.96311 23.0437 5.49478 22.8761 5.11379C22.708 4.73168 22.3969 4.33452 21.8613 4.26136C21.2452 4.17723 20.7743 4.54335 20.461 4.93185C20.1416 5.32781 19.887 5.86065 19.6852 6.3975C19.2786 7.4794 19.0276 8.74061 18.9328 9.42132C18.8244 10.2001 18.6544 12.3424 18.8131 14.4331C18.8482 14.8951 18.8997 15.3607 18.9732 15.8126C18.6993 16.3087 18.3593 16.8735 17.9757 17.375C17.6604 17.7871 17.334 18.1318 17.0124 18.3595C16.6905 18.5873 16.4193 18.6668 16.1892 18.6412C15.9032 18.6094 15.6789 18.4305 15.5047 18.0274C15.3576 17.6871 15.2757 17.2411 15.2488 16.7573C15.4762 16.3066 15.6251 15.8448 15.7186 15.4465C15.8255 14.9919 15.8705 14.5773 15.8682 14.2886C15.8676 14.2153 15.8639 14.1422 15.8554 14.0738C15.8482 14.016 15.8329 13.9204 15.7905 13.8252C15.7701 13.7795 15.7238 13.6879 15.6291 13.6077C15.5154 13.5113 15.3406 13.4426 15.1429 13.4851C15.0883 13.4968 15.0407 13.5153 14.9999 13.5365C14.9121 13.564 14.8435 13.6071 14.7951 13.6449C14.6722 13.741 14.5983 13.8669 14.5573 13.9459C14.4665 14.1207 14.3944 14.3519 14.3379 14.5918C14.2219 15.0843 14.1396 15.7533 14.1436 16.4363C14.1438 16.4555 14.1439 16.4748 14.1442 16.4943C13.9457 16.8271 13.6957 17.1214 13.3874 17.3309C12.5572 17.8952 12.0116 18.0943 11.6484 18.1049C11.3484 18.1136 11.1087 17.9953 10.8509 17.6432C10.8043 17.5795 10.7586 17.4613 10.7485 17.2512C10.7385 17.0436 10.7654 16.7915 10.82 16.5047C10.8743 16.2202 10.9511 15.9243 11.0309 15.63C11.0447 15.5793 11.0587 15.5281 11.0727 15.4768C11.1372 15.2405 11.2021 15.0031 11.2481 14.7958C11.3458 14.355 11.1938 13.9633 10.8815 13.7103C10.6034 13.485 10.2421 13.4012 9.91783 13.3958C9.28393 13.3852 8.45434 13.6795 8.09025 14.4396C7.58734 15.4894 6.64324 16.5728 5.61261 17.485C4.88143 18.1322 4.13505 18.6685 3.51715 19.0305C3.51784 18.9856 3.51857 18.9407 3.51936 18.8957C5.68943 16.6081 6.9135 13.4014 7.29868 10.8732C7.49458 9.58735 7.48489 8.4058 7.22096 7.58147C7.08952 7.17092 6.87102 6.77452 6.50664 6.53804C6.11084 6.28118 5.65219 6.28129 5.21268 6.46136C4.89602 6.5911 4.64143 6.82976 4.43621 7.10229C4.22932 7.37706 4.05031 7.71578 3.89308 8.09341C3.57882 8.84818 3.3241 9.82589 3.11971 10.9275C2.71003 13.1357 2.48623 15.9335 2.42856 18.6576C2.34562 22.5755 2.6496 26.4305 3.19258 28.2138C3.44738 29.0505 3.75654 29.6913 4.11144 30.137C4.46547 30.5816 4.90895 30.8823 5.42017 30.9004C5.93589 30.9187 6.36464 30.6446 6.67311 30.2769C6.98083 29.9102 7.20823 29.4107 7.35098 28.8428C7.8985 26.6648 7.31421 23.0531 4.13819 19.9371C4.82115 19.5299 5.59733 18.9624 6.33789 18.3069C7.42161 17.3476 8.48538 16.1504 9.07768 14.9141C9.19753 14.664 9.53739 14.4865 9.89959 14.4925C10.0516 14.4951 10.1421 14.531 10.1797 14.5541L10.179 14.558C10.1394 14.7366 10.0834 14.9414 10.0192 15.1765C10.0045 15.2302 9.98944 15.2856 9.97398 15.3426C9.89344 15.6396 9.80692 15.9702 9.74424 16.2991C9.68206 16.6255 9.6387 16.9734 9.65458 17.3039C9.67034 17.632 9.74666 17.9899 9.9677 18.2919C10.3792 18.8538 10.9305 19.2231 11.6801 19.2013C12.3664 19.1814 13.129 18.8321 14.0024 18.2386C14.1194 18.1591 14.2293 18.0728 14.3326 17.9811C14.3781 18.1481 14.4333 18.3098 14.4996 18.4631C14.7684 19.0853 15.2591 19.6414 16.0682 19.7314C16.6595 19.7972 17.1969 19.5721 17.6445 19.2552C18.0923 18.9383 18.4961 18.4983 18.845 18.0421C19.0189 17.8148 19.1836 17.5774 19.3376 17.34C19.3468 17.3675 19.3562 17.3947 19.3657 17.4218C19.6693 18.2857 20.1551 19.0939 20.96 19.4453C21.6782 19.7589 22.3818 19.5303 22.9633 19.1232C23.5391 18.7198 24.0826 18.0875 24.5756 17.3866C24.6252 17.3161 24.6745 17.2446 24.7236 17.1721C24.8138 17.4772 24.9183 17.7629 25.0393 18.0207C25.3568 18.6978 25.861 19.3303 26.6498 19.4261C27.8801 19.5755 28.7873 19.0194 29.4274 18.3349C30.0015 17.7211 30.3986 16.9641 30.6633 16.4593C30.6861 16.416 30.7078 16.3744 30.7286 16.3351C30.8702 16.0673 30.7682 15.7355 30.5009 15.5937C30.2336 15.452 29.9023 15.5541 29.7607 15.8219C29.7414 15.8584 29.7218 15.8956 29.7019 15.9334L29.7009 15.9353C29.4278 16.4542 29.0958 17.085 28.6281 17.585C28.1427 18.1041 27.5592 18.4315 26.7816 18.3372C26.5665 18.311 26.2974 18.1234 26.0306 17.5544C25.8226 17.1109 25.6599 16.5223 25.5412 15.8443C26.1421 14.7854 26.6757 13.6721 27.0908 12.7745C28.3793 9.9893 28.6019 7.89941 28.6019 6.8767C28.6019 5.7917 28.2846 4.64888 27.1931 4.28448ZM26.0971 12.3134C25.8696 12.8053 25.6112 13.3512 25.33 13.9102C25.2536 12.5339 25.3101 11.1428 25.4335 10.176L25.4345 10.1681L25.4353 10.1603C25.6461 8.01908 25.9882 6.70729 26.3354 5.9777C26.5098 5.61129 26.6646 5.43648 26.7632 5.36391C26.8086 5.33051 26.8336 5.32488 26.8381 5.32403L26.8387 5.3239C26.8406 5.32352 26.8415 5.32334 26.8467 5.32509C27.2155 5.4482 27.5067 5.8862 27.5067 6.87671C27.5067 7.74452 27.317 9.6766 26.0971 12.3134ZM19.8878 14.0991C20.5366 12.9226 21.4088 11.2887 21.9184 8.90723C22.0251 8.26101 22.1178 7.2999 22.0609 6.49812C22.032 6.0901 21.967 5.76776 21.8739 5.55611C21.8287 5.45327 21.7864 5.39903 21.7588 5.3732C21.7369 5.35278 21.7252 5.34982 21.7133 5.3482C21.66 5.34094 21.5301 5.35176 21.313 5.62107C21.1018 5.88292 20.8963 6.28875 20.7102 6.78393C20.3411 7.76611 20.1053 8.94245 20.0175 9.57281C19.9221 10.258 19.767 12.1804 19.8878 14.0991ZM5.62736 7.47659C5.81152 7.40114 5.87956 7.43812 5.91107 7.45857C5.97398 7.4994 6.0834 7.62074 6.17806 7.9164C6.36635 8.50448 6.40166 9.4892 6.21601 10.7077C5.91054 12.7127 5.03765 15.1576 3.57473 17.1266C3.67203 14.9605 3.87752 12.8472 4.19649 11.1279C4.39447 10.0609 4.63211 9.16841 4.90391 8.51559C5.03972 8.18942 5.17717 7.93999 5.31063 7.76275C5.44577 7.58328 5.55542 7.50607 5.62736 7.47659ZM15.4594 10.9909C15.0898 10.9909 14.7902 11.2911 14.7902 11.6612C14.7902 12.0315 15.0898 12.3316 15.4594 12.3316C15.8291 12.3316 16.1287 12.0315 16.1287 11.6612C16.1287 11.2911 15.8291 10.9909 15.4594 10.9909ZM3.51745 20.8658C3.56503 23.9128 3.84409 26.5931 4.24016 27.8938C4.47244 28.6566 4.73015 29.1547 4.96772 29.4531C5.20615 29.7526 5.38074 29.8014 5.45902 29.8042C5.5328 29.8068 5.66497 29.7735 5.83467 29.5712C6.00513 29.3681 6.17317 29.0354 6.28893 28.575C6.7257 26.8375 6.30848 23.6952 3.51745 20.8658Z"
            fill="#FAFAFA" />
    </g>
    <defs>
        <clipPath id="clip0_2571_47">
            <rect width="32" height="32" fill="white" />
        </clipPath>
    </defs>
</svg>