<svg width="32" height="32" viewBox="0 0 32 33" fill="none" xmlns="http://www.w3.org/2000/svg">
    <path fill-rule="evenodd" clip-rule="evenodd"
        d="M31.4339 32.2472H25.7814L24.8901 30.3513C23.0063 31.931 20.6204 32.8011 18.1528 32.8083C12.0697 32.8083 7.13104 27.5371 7.13104 21.0462C7.13104 14.5552 12.0697 9.28229 18.1528 9.28229C20.6204 9.2895 23.0063 10.1596 24.8901 11.7393L25.7814 9.84338H31.4339V32.2472ZM3.67101 25.5262C4.39798 25.5256 5.10884 25.7386 5.71361 26.1384C6.31838 26.5383 6.78989 27.1069 7.0685 27.7724C7.3471 28.438 7.42026 29.1704 7.27874 29.8772C7.13721 30.5839 6.78735 31.2331 6.27343 31.7427C5.7595 32.2524 5.10461 32.5994 4.39161 32.74C3.67861 32.8806 2.93954 32.8085 2.26794 32.5327C1.59633 32.2569 1.02236 31.7898 0.618656 31.1906C0.21495 30.5914 -0.000347083 29.8869 4.20004e-07 29.1664C0.000465826 28.2014 0.387324 27.2761 1.07562 26.5935C1.76392 25.911 2.69738 25.5272 3.67101 25.5262ZM19.5646 16.0033C22.397 16.0033 24.0866 18.2686 24.0866 21.0444C24.0866 23.8203 22.404 26.0856 19.5646 26.0856C16.7252 26.0856 15.0445 23.8203 15.0445 21.0444C15.0445 18.2686 16.7323 16.0033 19.5646 16.0033ZM28.3255 0.810059C29.0522 0.810059 29.7627 1.02365 30.3669 1.42383C30.9712 1.82401 31.4422 2.3928 31.7203 3.05827C31.9984 3.72374 32.0712 4.45601 31.9294 5.16247C31.7876 5.86893 31.4377 6.51785 30.9238 7.02718C30.4099 7.53651 29.7551 7.88337 29.0423 8.0239C28.3296 8.16442 27.5907 8.0923 26.9193 7.81665C26.2479 7.541 25.674 7.07421 25.2702 6.4753C24.8665 5.87639 24.651 5.17227 24.651 4.45197C24.651 3.48607 25.0381 2.55974 25.7272 1.87675C26.4163 1.19376 27.3509 0.810059 28.3255 0.810059Z"
        fill="#00C7B1" />
</svg>