<svg width="32" height="32" viewBox="0 0 32 32" fill="none" xmlns="http://www.w3.org/2000/svg">
    <rect width="32" height="32" fill="#FAFAFA" />
    <path opacity="0.02" fill-rule="evenodd" clip-rule="evenodd"
        d="M4.95559 0C5.64879 0 6.34198 0 7.03518 0C7.72837 0.231884 8.42156 0.463768 9.11476 0.695652C7.84379 0.695652 6.57316 0.695652 5.30219 0.695652C5.24119 1.8182 5.01001 2.86168 4.609 3.82609C4.52027 2.51503 4.63569 1.23967 4.95559 0Z"
        fill="#1F65A0" />
    <path fill-rule="evenodd" clip-rule="evenodd"
        d="M9.11466 0.695312C9.34584 0.695312 9.57667 0.695312 9.80785 0.695312C10.1191 0.924067 10.4657 1.15595 10.8476 1.39096C10.5191 3.1075 10.4037 4.84665 10.501 6.60836C10.447 10.0024 10.1004 13.3647 9.46125 16.6953C8.9424 17.3178 8.71122 18.0714 8.76806 18.9562C8.77083 19.5498 8.8866 20.0716 9.11466 20.5214C10.9135 25.3699 14.0329 26.4714 18.4728 23.8257C19.0353 23.1024 19.5552 22.3488 20.0325 21.5649C20.4511 17.4241 21.0865 13.3662 21.9387 9.39096C22.5404 7.27312 22.887 5.07023 22.9785 2.78227C24.0027 3.01139 25.0425 3.12733 26.0979 3.1301C26.8282 3.46687 27.6371 3.58281 28.5241 3.47792C28.5241 4.86923 28.5241 6.26053 28.5241 7.65183C28.2738 7.50662 28.1005 7.27472 28.0042 6.95618C27.634 12.5792 26.9984 18.1445 26.0979 23.6518C25.6491 25.7674 24.6093 27.5645 22.9785 29.0431C17.433 32.9852 11.8874 32.9852 6.34188 29.0431C5.47539 27.9417 4.6089 26.8403 3.74241 25.7388C3.13274 24.6579 2.84403 23.4984 2.87591 22.2605C3.32337 16.2188 3.90115 10.1898 4.6089 4.17357C4.6089 4.05764 4.6089 3.94168 4.6089 3.82575C5.00991 2.86134 5.24109 1.81786 5.30209 0.695312C6.57306 0.695312 7.84369 0.695312 9.11466 0.695312Z"
        fill="#2771BF" />
    <path opacity="0.861" fill-rule="evenodd" clip-rule="evenodd"
        d="M9.80811 0.695052C10.7651 0.491453 11.3425 0.839278 11.5411 1.73853C11.2635 3.42348 10.9169 5.04667 10.5013 6.6081C10.4039 4.84639 10.5193 3.10724 10.8479 1.3907C10.4659 1.15569 10.1193 0.923807 9.80811 0.695052Z"
        fill="#2167A8" />
    <path opacity="0.888" fill-rule="evenodd" clip-rule="evenodd"
        d="M28.5243 7.65268C28.098 12.067 27.5781 16.4728 26.9646 20.8701C26.8679 21.8985 26.5789 22.826 26.0981 23.6527C26.9986 18.1453 27.6343 12.5801 28.0044 6.95703C28.1008 7.27557 28.2741 7.50747 28.5243 7.65268Z"
        fill="#2269AA" />
</svg>