<svg width="32" height="32" viewBox="0 0 32 32" fill="none" xmlns="http://www.w3.org/2000/svg">
<g clip-path="url(#clip0_3822_527)">
<path opacity="0.993" fill-rule="evenodd" clip-rule="evenodd" d="M15.1515 0.00999086C19.8396 -0.145327 23.7412 1.51029 26.8563 4.97691C30.0163 8.87867 30.9799 13.2756 29.7469 18.1678C28.4865 22.2778 25.9351 25.2905 22.093 27.2059C22.0794 28.5494 22.0658 29.8929 22.0523 31.2365C21.9686 31.6323 21.7311 31.8833 21.3398 31.9896C21.1461 32.0226 20.9561 32.009 20.7698 31.9489C19.3208 31.1374 17.8823 30.3096 16.4543 29.4655C16.1558 29.3298 15.8572 29.3298 15.5586 29.4655C14.1306 30.3096 12.6921 31.1374 11.2431 31.9489C10.8042 32.0876 10.431 31.9858 10.1235 31.6436C10.0464 31.5166 9.99217 31.3809 9.96066 31.2365C9.9471 29.8929 9.9335 28.5494 9.91995 27.2059C5.64229 25.0577 2.99598 21.6379 1.98102 16.9464C1.21236 12.2924 2.36591 8.19397 5.44158 4.65121C8.07873 1.86371 11.3154 0.316637 15.1515 0.00999086ZM15.0701 2.90058C19.2198 2.71472 22.5786 4.23464 25.1464 7.46037C27.3377 10.5787 27.9348 13.985 26.9378 17.6792C26.3656 19.4856 25.3817 21.0258 23.9861 22.3001C21.4897 24.4369 18.8298 26.3437 16.0065 28.0202C13.3273 26.4227 10.7896 24.6245 8.39323 22.6258C5.67071 20.2799 4.41538 17.3011 4.62733 13.6894C4.98169 9.51016 6.95624 6.3685 10.551 4.26444C11.9715 3.50809 13.4779 3.05345 15.0701 2.90058Z" fill="#F03927"/>
<path opacity="0.991" fill-rule="evenodd" clip-rule="evenodd" d="M10.5513 18.6969C10.7282 18.6901 10.9046 18.6969 11.0806 18.7172C14.3648 20.5357 17.6489 20.5357 20.933 18.7172C21.5953 18.6131 21.9753 18.8913 22.0729 19.5518C22.0633 19.726 22.0158 19.8889 21.9304 20.0404C20.4906 21.6615 18.6789 22.5369 16.4953 22.6663C14.0622 22.7921 11.9926 21.9982 10.2867 20.2846C9.81897 19.7945 9.82577 19.3127 10.307 18.8394C10.3977 18.801 10.4791 18.7535 10.5513 18.6969Z" fill="#F03927"/>
</g>
<defs>
<clipPath id="clip0_3822_527">
<rect width="32" height="32" fill="white"/>
</clipPath>
</defs>
</svg>
