<svg width="32" height="32" viewBox="0 0 33 33" fill="none" xmlns="http://www.w3.org/2000/svg">
    <path fill-rule="evenodd" clip-rule="evenodd"
        d="M0.900391 15.9004C0.900391 7.61612 7.61612 0.900391 15.9004 0.900391C16.5671 0.900391 17.2337 0.900391 17.9004 0.900391C26.1847 0.900391 32.9004 7.61612 32.9004 15.9004C32.9004 16.5671 32.9004 17.2337 32.9004 17.9004C32.9004 26.1847 26.1847 32.9004 17.9004 32.9004C17.2337 32.9004 16.5671 32.9004 15.9004 32.9004C7.61612 32.9004 0.900391 26.1847 0.900391 17.9004C0.900391 17.2337 0.900391 16.5671 0.900391 15.9004Z"
        fill="#FEFEFE" />
    <path
        d="M5.85078 11.2049C7.27578 16.6506 15.5089 11.7184 12.4555 6.98954V6.98954C12.2699 6.70216 12.0696 6.44254 11.8585 6.20801C9.39197 3.46764 5.41042 6.55781 5.68513 10.2345V10.2345C5.7081 10.5419 5.76279 10.8687 5.85078 11.2049Z"
        fill="black" />
    <path
        d="M25.8457 12.524C21.5415 16.1394 17.64 7.29418 22.8862 5.27551V5.27551C23.1894 5.15883 23.4889 5.06948 23.7831 5.00372C27.3867 4.1983 28.9134 8.99303 26.5458 11.8266V11.8266C26.3467 12.0649 26.112 12.3003 25.8457 12.524Z"
        fill="black" />
    <path
        d="M17.0878 30.5001C23.1513 30.5001 28.0667 25.5661 28.0667 19.4796C28.0667 13.3931 23.1513 8.45898 17.0878 8.45898C11.0243 8.45898 6.10889 13.3931 6.10889 19.4796C6.10889 25.5661 11.0243 30.5001 17.0878 30.5001Z"
        fill="black" />
</svg>