<svg width="32" height="32" viewBox="0 0 33 33" fill="none" xmlns="http://www.w3.org/2000/svg">
    <path opacity="0.905" fill-rule="evenodd" clip-rule="evenodd"
        d="M13.4032 0.5C18.7365 0.5 24.0699 0.5 29.4032 0.5C25.1957 2.8144 20.8946 4.98724 16.5 7.01852C11.1667 7.01852 5.83333 7.01852 0.5 7.01852C0.5 6.82101 0.5 6.62345 0.5 6.42593C4.8918 4.59196 9.19285 2.61666 13.4032 0.5Z"
        fill="#ECC054" />
    <path opacity="0.957" fill-rule="evenodd" clip-rule="evenodd"
        d="M29.4032 0.5C29.7473 0.5 30.0914 0.5 30.4355 0.5C31.0293 7.32797 31.7175 14.1428 32.5 20.9444C32.0151 22.0964 31.327 23.0841 30.4355 23.9074C27.2082 26.6407 24.1115 29.5049 21.1452 32.5C20.8011 32.5 20.457 32.5 20.1129 32.5C18.9712 23.9741 17.7669 15.4803 16.5 7.01852C20.8946 4.98724 25.1957 2.8144 29.4032 0.5Z"
        fill="#F7CC65" />
    <path opacity="0.958" fill-rule="evenodd" clip-rule="evenodd"
        d="M0.5 7.01855C5.83333 7.01855 11.1667 7.01855 16.5 7.01855C17.7669 15.4803 18.9712 23.9741 20.1129 32.5C19.5968 32.5 19.0806 32.5 18.5645 32.5C13.9653 30.5404 9.32018 28.5651 4.62903 26.5741C3.40072 20.5336 2.02438 14.6077 0.5 8.79633C0.5 8.20374 0.5 7.61115 0.5 7.01855Z"
        fill="#D8AA3B" />
    <path fill-rule="evenodd" clip-rule="evenodd"
        d="M24.2419 7.61133C24.7581 7.61133 25.2742 7.61133 25.7903 7.61133C25.7847 10.562 26.3009 12.9324 27.3387 14.7224C27.0592 16.602 26.5431 18.3798 25.7903 20.0558C24.7375 19.062 23.7053 18.0743 22.6935 17.0928C23.2322 16.4276 23.5763 15.6375 23.7258 14.7224C23.5036 13.0105 23.1595 11.3315 22.6935 9.6854C22.9881 8.73779 23.5042 8.04641 24.2419 7.61133Z"
        fill="#957637" />
    <path fill-rule="evenodd" clip-rule="evenodd"
        d="M11.8549 12.9443C12.8871 12.9443 13.9194 12.9443 14.9516 12.9443C14.9516 13.5369 14.9516 14.1295 14.9516 14.7221C14.1032 14.5956 13.329 14.7931 12.629 15.3147C12.1573 17.7465 11.2971 19.9194 10.0484 21.8332C8.73686 21.5328 7.44654 21.1377 6.17743 20.648C7.55379 20.4505 8.9301 20.253 10.3065 20.0554C8.62321 19.3376 6.9028 18.745 5.14517 18.2777C7.04411 18.0189 8.93661 17.8213 10.8226 17.6851C8.8181 16.8903 6.75359 16.3965 4.62904 16.2036C4.39299 15.9583 4.22095 15.662 4.11292 15.3147C5.9012 14.7162 7.70765 14.7162 9.53227 15.3147C11.015 15.3772 11.7891 14.5871 11.8549 12.9443Z"
        fill="#8F6E2B" />
    <path fill-rule="evenodd" clip-rule="evenodd"
        d="M27.8548 19.4629C28.4089 19.9077 28.4949 20.5003 28.1129 21.2407C27.1342 22.4436 26.0159 23.4312 24.7581 24.2036C24.2311 23.9064 24.1451 23.5113 24.5 23.0184C25.8748 22.1305 26.9931 20.9453 27.8548 19.4629Z"
        fill="#9A7A39" />
    <path fill-rule="evenodd" clip-rule="evenodd"
        d="M6.69355 22.4258C7.64168 22.5084 7.81375 22.9035 7.20968 23.611C6.79806 23.3402 6.62598 22.9451 6.69355 22.4258Z"
        fill="#97752E" />
    <path fill-rule="evenodd" clip-rule="evenodd"
        d="M9.79031 22.4258C11.7568 23.169 11.7568 23.7616 9.79031 24.2036C9.79031 23.611 9.79031 23.0184 9.79031 22.4258Z"
        fill="#93712C" />
</svg>