<svg width="32" height="32" viewBox="0 0 32 32" fill="none" xmlns="http://www.w3.org/2000/svg">
<path d="M25.2089 21.9379C25.2089 22.3518 24.893 22.6913 24.5078 22.6913H19.62C19.2348 22.6913 18.9189 22.3518 18.9189 21.9379V16.6851C18.9189 16.2711 19.2348 15.9316 19.62 15.9316H24.5078C24.893 15.9316 25.2089 16.2711 25.2089 16.6851V21.9379Z" fill="#07BFDD"/>
<path d="M31.578 15.3157C31.578 15.7298 31.2622 16.0692 30.877 16.0692H25.9892C25.604 16.0692 25.2881 15.7298 25.2881 15.3157V10.063C25.2881 9.64898 25.604 9.30957 25.9892 9.30957H30.877C31.2622 9.30957 31.578 9.64898 31.578 10.063V15.3157Z" fill="#007FFF"/>
<path d="M12.6502 21.9379C12.6502 22.3518 12.3344 22.6913 11.9492 22.6913H7.06138C6.67616 22.6913 6.36035 22.3518 6.36035 21.9379V16.6851C6.36035 16.2711 6.67616 15.9316 7.06138 15.9316H11.9492C12.3344 15.9316 12.6502 16.2711 12.6502 16.6851V21.9379Z" fill="#1DA5F8"/>
<path d="M6.28992 15.3158C6.28992 15.7298 5.97405 16.0691 5.58883 16.0691H0.701062C0.315825 16.0691 0 15.731 0 15.3158V10.063C0 9.64898 0.315825 9.30957 0.701062 9.30957H5.58883C5.97405 9.30957 6.28992 9.64898 6.28992 10.063V15.3158Z" fill="#8CC936"/>
</svg>
