<svg width="32" height="32" viewBox="0 0 32 32" fill="none" xmlns="http://www.w3.org/2000/svg">
    <g clip-path="url(#clip0_3143_263)">
        <path
            d="M0 0C10.56 0 21.12 0 32 0C32 10.56 32 21.12 32 32C21.44 32 10.88 32 0 32C0 21.44 0 10.88 0 0Z"
            fill="#ED3896" />
        <path
            d="M20.0801 4.64C21.1601 4.64 21.1601 4.64 21.4001 4.8C21.4401 4.84 21.4401 4.84 21.4449 4.94807C21.4448 4.9963 21.4447 5.04454 21.4446 5.09423C21.4446 5.12076 21.4446 5.1473 21.4446 5.17464C21.4446 5.26273 21.4443 5.35082 21.444 5.43891C21.4439 5.49983 21.4438 5.56076 21.4438 5.62168C21.4436 5.78234 21.4433 5.94298 21.4428 6.10364C21.4424 6.26745 21.4422 6.43126 21.442 6.59508C21.4416 6.91672 21.4409 7.23836 21.4401 7.56C21.6034 7.55676 21.7667 7.55225 21.9301 7.5475C21.9764 7.5466 22.0228 7.5457 22.0705 7.54477C22.1151 7.54335 22.1597 7.54193 22.2057 7.54047C22.2673 7.5389 22.2673 7.5389 22.3301 7.53729C22.4552 7.51762 22.5117 7.49012 22.6001 7.4C22.6171 7.28343 22.6243 7.1813 22.6244 7.06453C22.6251 7.03185 22.6258 6.99917 22.6264 6.9655C22.6284 6.86116 22.6292 6.75685 22.6301 6.6525C22.6312 6.58174 22.6324 6.51099 22.6337 6.44023C22.6366 6.26682 22.6386 6.09343 22.6401 5.92C22.8159 5.91651 22.9917 5.91438 23.1676 5.9125C23.2174 5.91149 23.2672 5.91049 23.3186 5.90945C23.3667 5.90907 23.4147 5.90868 23.4643 5.90828C23.5085 5.90765 23.5527 5.90702 23.5982 5.90638C23.774 5.92603 23.8768 5.99673 24.0001 6.12C24.0091 6.23633 24.0132 6.34873 24.0135 6.46516C24.0138 6.4997 24.014 6.53425 24.0143 6.56984C24.0147 6.64318 24.0149 6.71652 24.0149 6.78985C24.0151 6.9011 24.0165 7.01228 24.018 7.12352C24.0183 7.1949 24.0184 7.26628 24.0185 7.33766C24.0191 7.37055 24.0197 7.40343 24.0202 7.43732C24.0171 7.83732 23.8137 8.22876 23.5304 8.50891C23.0864 8.86905 22.6358 8.90741 22.0901 8.8925C21.8756 8.88837 21.6611 8.88425 21.4401 8.88C21.4401 9.4344 21.4401 9.9888 21.4401 10.56C21.9681 10.56 22.4961 10.56 23.0401 10.56C23.0434 10.7481 23.0467 10.9362 23.0501 11.13C23.0515 11.1891 23.053 11.2482 23.0545 11.3091C23.0549 11.3558 23.0553 11.4025 23.0557 11.4506C23.0565 11.4984 23.0574 11.5461 23.0582 11.5954C23.0401 11.72 23.0401 11.72 22.9798 11.8159C22.8393 11.9062 22.7109 11.9 22.5494 11.8956C22.5213 11.8955 22.4931 11.8953 22.4641 11.8951C22.3594 11.8943 22.2548 11.8921 22.1501 11.89C21.9158 11.8867 21.6815 11.8834 21.4401 11.88C21.4401 12.5004 21.4401 13.1208 21.4401 13.76C21.9681 13.76 22.4961 13.76 23.0401 13.76C23.0434 13.9481 23.0467 14.1362 23.0501 14.33C23.0515 14.3891 23.053 14.4482 23.0545 14.5091C23.0549 14.5558 23.0553 14.6025 23.0557 14.6506C23.0565 14.6984 23.0574 14.7461 23.0582 14.7954C23.0401 14.92 23.0401 14.92 22.9871 15.0067C22.8135 15.1256 22.6341 15.1009 22.4286 15.0982C22.3595 15.0982 22.3595 15.0982 22.289 15.0982C22.1367 15.0981 21.9843 15.0969 21.8319 15.0956C21.7263 15.0953 21.6208 15.0951 21.5152 15.0949C21.2655 15.0944 21.0159 15.0931 20.7663 15.0915C20.4821 15.0897 20.1979 15.0889 19.9137 15.0881C19.3292 15.0864 18.7446 15.0836 18.1601 15.08C18.1561 14.9177 18.1532 14.7555 18.1513 14.5932C18.1505 14.538 18.1494 14.4828 18.148 14.4277C18.146 14.3483 18.1452 14.2688 18.1444 14.1894C18.1436 14.1416 18.1428 14.0939 18.1419 14.0446C18.1636 13.8957 18.2019 13.85 18.3201 13.76C18.4076 13.7408 18.4076 13.7408 18.5035 13.7418C18.54 13.7419 18.5765 13.7419 18.6141 13.7419C18.6522 13.7427 18.6902 13.7435 18.7294 13.7444C18.7647 13.7445 18.7999 13.7447 18.8362 13.7449C18.9675 13.7457 19.0988 13.7479 19.2301 13.75C19.5238 13.7533 19.8175 13.7566 20.1201 13.76C20.1201 13.1396 20.1201 12.5192 20.1201 11.88C19.7149 11.8814 19.7149 11.8814 19.3015 11.8828C19.1299 11.8832 18.9584 11.8836 18.7869 11.8839C18.5148 11.8844 18.2428 11.8849 17.9708 11.886C17.7513 11.8869 17.5319 11.8874 17.3125 11.8876C17.229 11.8877 17.1454 11.888 17.0619 11.8885C16.9445 11.889 16.8271 11.8891 16.7098 11.8891C16.6755 11.8894 16.6413 11.8897 16.606 11.89C16.141 11.8884 15.8369 11.7666 15.4885 11.4562C15.2528 11.2097 15.0745 10.8065 15.0755 10.4648C15.0755 10.4291 15.0755 10.3934 15.0755 10.3566C15.0757 10.3192 15.0759 10.2818 15.0762 10.2433C15.0762 10.2088 15.0762 10.1743 15.0763 10.1388C15.0765 10.01 15.0771 9.88127 15.0776 9.7525C15.0784 9.46457 15.0792 9.17665 15.0801 8.88C14.1297 8.88 13.1793 8.88 12.2001 8.88C12.2001 9.4344 12.2001 9.9888 12.2001 10.56C12.6225 10.56 13.0449 10.56 13.4801 10.56C13.4834 10.7407 13.4867 10.9213 13.4901 11.1075C13.4915 11.1642 13.493 11.2208 13.4945 11.2792C13.4949 11.3241 13.4953 11.3691 13.4957 11.4155C13.4965 11.4613 13.4974 11.5072 13.4982 11.5545C13.4756 11.711 13.4381 11.7751 13.3201 11.88C13.1991 11.9027 13.1991 11.9027 13.0594 11.8995C13.0144 11.899 12.9693 11.8985 12.9228 11.898C12.8658 11.8962 12.8088 11.8944 12.7501 11.8925C12.4778 11.8863 12.4778 11.8863 12.2001 11.88C12.2001 12.4476 12.2001 13.0152 12.2001 13.6C12.5316 13.5972 12.5316 13.5972 12.8699 13.5944C13.0105 13.5936 13.151 13.5928 13.2916 13.5922C13.5143 13.5912 13.7371 13.5901 13.9599 13.5879C14.1396 13.5862 14.3194 13.5852 14.4991 13.5848C14.5675 13.5845 14.6358 13.584 14.7042 13.5831C15.3895 13.5747 15.3895 13.5747 15.6801 13.76C15.712 13.7792 15.7439 13.7985 15.7768 13.8183C16.1088 14.0726 16.3749 14.3746 16.4401 14.8C16.4455 14.9319 16.4447 15.0637 16.444 15.1958C16.4439 15.2294 16.4439 15.263 16.4439 15.2976C16.4436 15.4226 16.4431 15.5475 16.4426 15.6725C16.4417 15.9522 16.4409 16.2318 16.4401 16.52C17.0341 16.52 17.6281 16.52 18.2401 16.52C18.2438 16.7811 18.2438 16.7811 18.2476 17.0475C18.2487 17.1021 18.2498 17.1566 18.2509 17.2128C18.2513 17.2779 18.2513 17.2779 18.2518 17.3442C18.2524 17.3884 18.253 17.4326 18.2537 17.4782C18.2381 17.6176 18.2059 17.6897 18.1201 17.8C17.9838 17.8893 17.8671 17.8903 17.7064 17.891C17.655 17.8914 17.6036 17.8917 17.5507 17.8921C17.4947 17.8921 17.4387 17.8921 17.3827 17.892C17.3251 17.8922 17.2676 17.8924 17.21 17.8926C17.0894 17.8928 16.9688 17.8928 16.8481 17.8926C16.6938 17.8924 16.5395 17.8931 16.3852 17.894C16.2663 17.8946 16.1474 17.8946 16.0285 17.8945C15.9716 17.8945 15.9147 17.8947 15.8578 17.8951C15.7782 17.8956 15.6985 17.8953 15.6189 17.8949C15.5736 17.8949 15.5284 17.8949 15.4817 17.895C15.3442 17.878 15.2704 17.8427 15.1601 17.76C15.065 17.6174 15.0703 17.5569 15.071 17.3877C15.071 17.3096 15.071 17.3096 15.071 17.23C15.0714 17.1732 15.0718 17.1164 15.0723 17.0595C15.0724 17.0014 15.0725 16.9433 15.0726 16.8852C15.0729 16.7323 15.0737 16.5794 15.0746 16.4265C15.0754 16.2705 15.0758 16.1144 15.0762 15.9584C15.077 15.6522 15.0784 15.3461 15.0801 15.04C14.9421 14.956 14.8332 14.9497 14.6731 14.949C14.6232 14.9486 14.5733 14.9483 14.5218 14.9479C14.4675 14.9479 14.4132 14.9479 14.3588 14.948C14.3029 14.9478 14.247 14.9476 14.1912 14.9474C14.0741 14.9472 13.9571 14.9472 13.8401 14.9474C13.6903 14.9476 13.5405 14.9469 13.3906 14.946C13.2753 14.9454 13.1599 14.9454 13.0445 14.9455C12.9893 14.9455 12.934 14.9453 12.8788 14.9449C12.8015 14.9444 12.7243 14.9447 12.647 14.9451C12.5811 14.9451 12.5811 14.9451 12.5139 14.945C12.3826 14.9623 12.3349 14.9891 12.2401 15.08C12.2164 15.1699 12.2164 15.1699 12.2206 15.2724C12.2203 15.3121 12.22 15.3517 12.2197 15.3926C12.2202 15.436 12.2207 15.4795 12.2213 15.5242C12.2212 15.57 12.2211 15.6158 12.221 15.663C12.2209 15.815 12.222 15.9669 12.223 16.1189C12.2232 16.2245 12.2234 16.3301 12.2234 16.4357C12.2237 16.6574 12.2245 16.8791 12.2258 17.1008C12.2274 17.3843 12.2281 17.6679 12.2285 17.9515C12.2289 18.2223 12.2297 18.4931 12.2305 18.7639C12.2307 18.8154 12.2308 18.8668 12.2309 18.9198C12.2314 19.0664 12.2322 19.213 12.233 19.3595C12.2331 19.4024 12.2332 19.4453 12.2333 19.4895C12.236 19.8697 12.2574 20.2242 12.3826 20.585C12.393 20.6156 12.4035 20.6462 12.4143 20.6778C12.5796 21.1446 12.7895 21.5875 13.1201 21.96C13.149 21.9937 13.1779 22.0273 13.2077 22.062C13.7049 22.6299 14.291 22.9917 15.0001 23.24C15.0413 23.2545 15.0826 23.269 15.1251 23.2839C16.0707 23.5543 17.1571 23.3202 18.0001 22.855C18.8686 22.3508 19.4688 21.5277 19.7384 20.5639C19.8616 20.0873 19.8971 19.6088 19.894 19.1184C19.8935 19.0184 19.8938 18.9186 19.8942 18.8186C19.8955 18.5352 19.8953 18.2518 19.8945 17.9684C19.894 17.7936 19.8946 17.6187 19.8957 17.4439C19.8959 17.3777 19.8957 17.3115 19.8952 17.2453C19.8944 17.1533 19.8949 17.0614 19.8956 16.9695C19.8955 16.9173 19.8954 16.8651 19.8953 16.8113C19.9201 16.68 19.9201 16.68 20.0073 16.583C20.1339 16.5123 20.2044 16.5005 20.3484 16.5018C20.3932 16.5018 20.4381 16.5019 20.4842 16.5019C20.5322 16.5027 20.5802 16.5035 20.6296 16.5044C20.679 16.5046 20.7285 16.5048 20.7794 16.5051C20.9103 16.5058 21.0413 16.5072 21.1722 16.509C21.306 16.5107 21.4398 16.5114 21.5736 16.5122C21.8358 16.514 22.0979 16.5166 22.3601 16.52C22.364 16.6823 22.3669 16.8445 22.3689 17.0068C22.3697 17.062 22.3707 17.1172 22.3721 17.1723C22.3741 17.2517 22.3749 17.3312 22.3757 17.4106C22.3765 17.4584 22.3774 17.5061 22.3782 17.5554C22.3559 17.7084 22.3194 17.7448 22.2001 17.84C22.0974 17.8618 22.0974 17.8618 21.9832 17.8644C21.9422 17.8657 21.9012 17.867 21.859 17.8683C21.8164 17.8688 21.7739 17.8694 21.7301 17.87C21.6653 17.8718 21.6653 17.8718 21.5993 17.8736C21.4929 17.8764 21.3865 17.8785 21.2801 17.88C21.2799 17.9058 21.2798 17.9316 21.2796 17.9581C21.2779 18.2308 21.2751 18.5034 21.2718 18.776C21.2706 18.8772 21.2698 18.9785 21.2692 19.0797C21.2655 19.699 21.2299 20.2782 21.0801 20.88C21.0703 20.9234 21.0606 20.9667 21.0506 21.0114C20.9773 21.3337 20.8292 21.6272 20.6801 21.92C20.6665 21.9467 20.653 21.9734 20.6391 22.0009C20.4315 22.4049 20.1905 22.7488 19.8801 23.08C19.851 23.1112 19.851 23.1112 19.8214 23.1431C19.4282 23.5625 18.9977 23.9042 18.4801 24.16C18.433 24.1835 18.3859 24.207 18.3374 24.2312C17.0281 24.8717 15.635 24.9102 14.2691 24.4501C13.9398 24.3338 13.651 24.1953 13.3601 24C13.3375 23.9853 13.315 23.9705 13.2918 23.9554C12.3656 23.3464 11.6651 22.5054 11.2401 21.48C11.2236 21.4418 11.2072 21.4036 11.1902 21.3642C10.938 20.7464 10.833 20.1076 10.8362 19.4425C10.8362 19.3977 10.8363 19.3528 10.8363 19.3067C10.8366 19.1644 10.8371 19.0222 10.8376 18.88C10.8378 18.7832 10.838 18.6864 10.8381 18.5895C10.8386 18.353 10.8392 18.1165 10.8401 17.88C10.7999 17.881 10.7598 17.8821 10.7184 17.8832C10.5689 17.8868 10.4195 17.8891 10.27 17.891C10.2054 17.892 10.1408 17.8934 10.0762 17.8951C9.98316 17.8975 9.89017 17.8987 9.7971 17.8995C9.75402 17.9011 9.75402 17.9011 9.71008 17.9027C9.55147 17.9027 9.48706 17.8857 9.36275 17.7838C9.23911 17.6286 9.23524 17.5526 9.23616 17.3559C9.23626 17.3123 9.23636 17.2686 9.23646 17.2237C9.23683 17.168 9.23719 17.1123 9.23757 17.055C9.23839 16.8784 9.23922 16.7019 9.24007 16.52C9.78127 16.52 10.3225 16.52 10.8801 16.52C10.8801 15.992 10.8801 15.464 10.8801 14.92C10.4134 14.9263 10.4134 14.9263 9.94667 14.9344C9.88801 14.9349 9.82935 14.9353 9.77069 14.9356C9.74042 14.9364 9.71014 14.9373 9.67895 14.9381C9.54319 14.9382 9.45572 14.9301 9.34038 14.8559C9.25972 14.7277 9.26179 14.6415 9.26444 14.4906C9.26484 14.4439 9.26524 14.3972 9.26565 14.3491C9.26711 14.29 9.26857 14.2309 9.27007 14.17C9.27337 13.9819 9.27667 13.7938 9.28007 13.6C9.80807 13.6 10.3361 13.6 10.8801 13.6C10.8801 13.0324 10.8801 12.4648 10.8801 11.88C10.6856 11.8823 10.4911 11.8846 10.2907 11.887C10.1675 11.8881 10.0442 11.889 9.921 11.8898C9.72541 11.891 9.52983 11.8924 9.33425 11.8951C9.17656 11.8973 9.01889 11.8985 8.86118 11.899C8.80102 11.8993 8.74087 11.9001 8.68072 11.9011C8.59643 11.9026 8.51222 11.9028 8.42792 11.9027C8.37995 11.9031 8.33199 11.9036 8.28257 11.9041C8.16007 11.88 8.16007 11.88 8.00007 11.68C8.00007 11.3104 8.00007 10.9408 8.00007 10.56C8.95047 10.56 9.90087 10.56 10.8801 10.56C10.8801 10.0056 10.8801 9.4512 10.8801 8.88C10.347 8.8863 10.347 8.8863 9.81392 8.89441C9.29949 8.89968 8.88902 8.86229 8.48007 8.51906C8.34691 8.38746 8.24551 8.24632 8.16007 8.08C8.14636 8.05595 8.13265 8.03189 8.11852 8.00711C7.95904 7.68346 7.97583 7.34462 7.97921 6.99211C7.98007 6.88439 7.97921 6.77678 7.97819 6.66906C7.9783 6.60031 7.9785 6.53156 7.97882 6.46281C7.97849 6.43077 7.97817 6.39873 7.97784 6.36571C7.98015 6.22828 7.98957 6.13635 8.06456 6.01955C8.19254 5.93976 8.27915 5.94174 8.42944 5.94437C8.50717 5.94515 8.50717 5.94515 8.58647 5.94594C8.641 5.94727 8.69554 5.94863 8.75007 5.95C8.80522 5.9508 8.86038 5.95153 8.91554 5.95219C9.05041 5.95407 9.18522 5.95671 9.32007 5.96C9.32065 6.00178 9.32123 6.04356 9.32183 6.08661C9.32415 6.24161 9.32724 6.39658 9.33057 6.55155C9.3319 6.61863 9.33302 6.68572 9.33392 6.7528C9.33527 6.84923 9.33736 6.94562 9.3396 7.04203C9.33985 7.07204 9.34011 7.10204 9.34037 7.13295C9.34282 7.28929 9.34282 7.28929 9.40696 7.42789C9.50929 7.50083 9.58196 7.49539 9.7071 7.49595C9.77802 7.4967 9.77802 7.4967 9.85038 7.49747C9.92828 7.49738 9.92828 7.49738 10.0078 7.49729C10.0629 7.49766 10.1181 7.49807 10.1733 7.49853C10.3232 7.49964 10.4731 7.5 10.623 7.50024C10.7797 7.50062 10.9363 7.50167 11.0929 7.50264C11.3896 7.50439 11.6862 7.50553 11.9829 7.50646C12.3206 7.50754 12.6583 7.5093 12.9959 7.51111C13.6907 7.51483 14.3854 7.51769 15.0801 7.52C15.0797 7.47181 15.0797 7.47181 15.0793 7.42264C15.0769 7.11955 15.075 6.81647 15.0738 6.51337C15.0732 6.35755 15.0724 6.20174 15.071 6.04593C15.0697 5.8955 15.069 5.74508 15.0687 5.59465C15.0685 5.53732 15.068 5.47998 15.0674 5.42266C15.0665 5.34223 15.0665 5.2618 15.0664 5.18138C15.066 5.11276 15.066 5.11276 15.0656 5.04276C15.0818 4.90529 15.1179 4.83035 15.2001 4.72C15.57 4.53506 16.0265 4.68 16.4401 4.68C16.4401 5.6172 16.4401 6.5544 16.4401 7.52C17.6413 7.52 18.8425 7.52 20.0801 7.52C20.0801 6.5696 20.0801 5.6192 20.0801 4.64Z"
            fill="#032D47" />
        <path
            d="M9.54333 26.0196C9.58279 26.0196 9.62226 26.0197 9.66292 26.0197C9.70856 26.0193 9.75421 26.0189 9.80123 26.0186C9.8514 26.019 9.90156 26.0194 9.95324 26.0198C10.0071 26.0197 10.0609 26.0195 10.1147 26.0192C10.2627 26.0187 10.4107 26.0192 10.5587 26.0198C10.7183 26.0204 10.8778 26.02 11.0374 26.0197C11.35 26.0193 11.6627 26.0197 11.9753 26.0205C12.3392 26.0213 12.7031 26.0213 13.067 26.0213C13.7162 26.0212 14.3654 26.022 15.0146 26.0231C15.6449 26.0242 16.2752 26.0248 16.9055 26.0248C16.9637 26.0248 16.9637 26.0248 17.0231 26.0247C17.0812 26.0247 17.0812 26.0247 17.1405 26.0247C17.8576 26.0247 18.5746 26.0252 19.2916 26.0259C19.5454 26.0261 19.7992 26.0262 20.053 26.0262C20.3622 26.0263 20.6714 26.0266 20.9806 26.0274C21.1385 26.0277 21.2963 26.028 21.4541 26.0279C21.5985 26.0278 21.7429 26.0281 21.8873 26.0287C21.9645 26.0289 22.0416 26.0287 22.1188 26.0285C22.1645 26.0288 22.2101 26.029 22.2571 26.0293C22.2966 26.0293 22.3361 26.0294 22.3767 26.0295C22.4845 26.04 22.5495 26.061 22.64 26.1196C22.819 26.4776 22.68 26.9194 22.68 27.3196C18.258 27.3196 13.836 27.3196 9.28003 27.3196C9.28003 26.0705 9.28003 26.0705 9.54333 26.0196Z"
            fill="#032C47" />
        <path
            d="M13.4294 17.7846C13.5071 17.7853 13.5071 17.7853 13.5864 17.7861C13.6409 17.7875 13.6955 17.7888 13.75 17.7902C13.8052 17.791 13.8603 17.7917 13.9155 17.7924C14.0503 17.7943 14.1852 17.7969 14.32 17.8002C14.3202 17.8239 14.3203 17.8477 14.3205 17.8722C14.3218 17.9816 14.3247 18.0908 14.3275 18.2002C14.3277 18.2376 14.328 18.2749 14.3282 18.3135C14.3361 18.5658 14.3759 18.7755 14.56 18.9602C14.7353 19.0515 14.9052 19.0524 15.0985 19.0529C15.1321 19.0533 15.1656 19.0537 15.2002 19.0541C15.3108 19.0554 15.4214 19.0561 15.532 19.0567C15.6089 19.0575 15.6857 19.0583 15.7626 19.0591C15.9645 19.0611 16.1664 19.0627 16.3684 19.0642C16.5746 19.0658 16.7808 19.0679 16.987 19.0699C17.3913 19.0737 17.7956 19.0771 18.2 19.0802C18.204 19.2424 18.2069 19.4047 18.2088 19.567C18.2096 19.6222 18.2107 19.6773 18.2121 19.7325C18.214 19.8119 18.2148 19.8914 18.2156 19.9708C18.2165 20.0186 18.2173 20.0663 18.2182 20.1155C18.1964 20.2646 18.157 20.3088 18.04 20.4002C17.9173 20.4616 17.7885 20.4464 17.6538 20.4466C17.6221 20.4468 17.5905 20.447 17.5579 20.4472C17.4529 20.4478 17.3479 20.4481 17.2428 20.4483C17.1696 20.4485 17.0965 20.4488 17.0233 20.449C16.8695 20.4494 16.7157 20.4496 16.5619 20.4498C16.3659 20.45 16.1699 20.451 15.9739 20.4521C15.8225 20.4529 15.6711 20.4531 15.5197 20.4531C15.4475 20.4532 15.3753 20.4536 15.3032 20.4541C14.5671 20.4591 14.013 20.3481 13.4561 19.8308C13.0886 19.4077 12.9926 18.963 12.9875 18.4152C12.9863 18.3737 12.9852 18.3323 12.984 18.2896C12.9835 18.2297 12.9835 18.2297 12.983 18.1686C12.9824 18.1324 12.9818 18.0963 12.9812 18.059C13.0294 17.8054 13.1993 17.7805 13.4294 17.7846Z"
            fill="#052C47" />
        <path
            d="M16.4399 8.87988C17.6543 8.87988 18.8687 8.87988 20.1199 8.87988C20.1199 9.43428 20.1199 9.98868 20.1199 10.5599C19.2247 10.5631 19.2247 10.5631 18.8442 10.5638C18.5841 10.5643 18.3241 10.5648 18.0641 10.5659C17.8545 10.5668 17.6449 10.5673 17.4354 10.5675C17.3553 10.5676 17.2752 10.5679 17.1951 10.5683C17.0832 10.5689 16.9714 10.569 16.8595 10.569C16.8261 10.5693 16.7927 10.5695 16.7584 10.5698C16.5291 10.569 16.5291 10.569 16.4399 10.4799C16.4399 9.95188 16.4399 9.42388 16.4399 8.87988Z"
            fill="#E83996" />
        <path
            d="M13.48 10.5596C13.5064 10.5596 13.5328 10.5596 13.56 10.5596C13.5649 10.7211 13.5685 10.8826 13.5709 11.0442C13.5719 11.0991 13.5733 11.154 13.575 11.2089C13.5775 11.288 13.5785 11.3671 13.5795 11.4463C13.5805 11.4938 13.5816 11.5414 13.5827 11.5904C13.5535 11.756 13.4863 11.813 13.36 11.9196C13.3468 11.9328 13.3336 11.946 13.32 11.9596C13.2429 11.9631 13.1657 11.9638 13.0885 11.9635C13.0464 11.9634 13.0043 11.9633 12.9609 11.9632C12.9069 11.9628 12.853 11.9624 12.7975 11.9621C12.6267 11.9612 12.4559 11.9604 12.28 11.9596C12.28 12.4744 12.28 12.9892 12.28 13.5196C13.2172 13.5196 14.1544 13.5196 15.12 13.5196C15.12 13.546 15.12 13.5724 15.12 13.5996C14.1564 13.5996 13.1928 13.5996 12.2 13.5996C12.2 13.032 12.2 12.4644 12.2 11.8796C12.7525 11.8696 12.7525 11.8696 12.9263 11.8677C12.9715 11.8664 13.0167 11.8652 13.0632 11.8639C13.1095 11.8631 13.1558 11.8623 13.2035 11.8614C13.3213 11.8495 13.3213 11.8495 13.3947 11.7743C13.4534 11.6515 13.4573 11.555 13.4604 11.4189C13.4618 11.3689 13.4633 11.3189 13.4647 11.2674C13.4656 11.2153 13.4665 11.1632 13.4675 11.1096C13.4688 11.0569 13.4702 11.0042 13.4716 10.9499C13.4749 10.8198 13.4777 10.6897 13.48 10.5596Z"
            fill="#AF408B" />
        <path
            d="M12.2401 15.04C12.2533 15.04 12.2665 15.04 12.2801 15.04C12.2802 15.0661 12.2803 15.0922 12.2804 15.1191C12.2827 15.7548 12.2857 16.3905 12.2895 17.0262C12.2913 17.3336 12.2929 17.641 12.2939 17.9484C12.2948 18.2164 12.2962 18.4845 12.298 18.7525C12.299 18.8943 12.2997 19.0362 12.3 19.178C12.3003 19.3366 12.3015 19.4951 12.3028 19.6537C12.3027 19.7004 12.3027 19.7472 12.3026 19.7953C12.3056 20.0544 12.338 20.2424 12.4401 20.48C12.4495 20.5761 12.4461 20.6633 12.4401 20.76C12.3686 20.6528 12.3346 20.5784 12.2976 20.4575C12.2826 20.4104 12.2826 20.4104 12.2674 20.3624C12.1936 20.0322 12.1943 19.6951 12.1949 19.3583C12.1948 19.3119 12.1947 19.2655 12.1947 19.2176C12.1945 19.0655 12.1946 18.9133 12.1948 18.7611C12.1947 18.6551 12.1947 18.549 12.1946 18.443C12.1946 18.2214 12.1947 17.9999 12.1948 17.7784C12.1951 17.5221 12.195 17.2658 12.1948 17.0095C12.1946 16.7625 12.1946 16.5156 12.1947 16.2686C12.1947 16.1636 12.1947 16.0586 12.1946 15.9536C12.1945 15.8074 12.1947 15.6613 12.1949 15.5152C12.1948 15.4714 12.1947 15.4277 12.1946 15.3826C12.1948 15.3431 12.1949 15.3036 12.195 15.2629C12.195 15.2283 12.195 15.1938 12.195 15.1582C12.2001 15.08 12.2001 15.08 12.2401 15.04Z"
            fill="#C24897" />
        <path
            d="M16.4401 4.67974C16.4401 5.61694 16.4401 6.55414 16.4401 7.51974C16.4137 7.51974 16.3873 7.51974 16.3601 7.51974C16.3601 6.60894 16.3601 5.69814 16.3601 4.75974C15.9905 4.75974 15.6209 4.75974 15.2401 4.75974C15.2401 4.78614 15.2401 4.81254 15.2401 4.83974C15.2137 4.83974 15.1873 4.83974 15.1601 4.83974C15.1601 5.72414 15.1601 6.60854 15.1601 7.51974C15.1469 7.51974 15.1337 7.51974 15.1201 7.51974C15.1164 7.16717 15.1135 6.81461 15.1118 6.46202C15.1109 6.29831 15.1098 6.13461 15.108 5.9709C15.1063 5.81295 15.1053 5.65502 15.1049 5.49706C15.1046 5.43676 15.104 5.37646 15.1032 5.31616C15.102 5.23177 15.1018 5.14744 15.1019 5.06305C15.1016 5.01499 15.1012 4.96694 15.1008 4.91743C15.1874 4.38816 16.2693 4.67974 16.4401 4.67974Z"
            fill="#212148" />
        <path
            d="M16.28 14.3604C16.3064 14.3604 16.3328 14.3604 16.36 14.3604C16.49 14.6365 16.5429 14.8627 16.5357 15.1669C16.5354 15.2036 16.5352 15.2404 16.535 15.2782C16.5341 15.3939 16.5321 15.5096 16.53 15.6254C16.5292 15.7045 16.5285 15.7836 16.5278 15.8627C16.5261 16.0553 16.5233 16.2478 16.52 16.4404C16.5719 16.4401 16.6238 16.4399 16.6773 16.4397C16.8691 16.439 17.0609 16.4385 17.2527 16.4382C17.3358 16.438 17.419 16.4377 17.5021 16.4373C17.6214 16.4369 17.7406 16.4366 17.8599 16.4364C17.916 16.4361 17.916 16.4361 17.9733 16.4358C18.0077 16.4358 18.0421 16.4358 18.0776 16.4358C18.1081 16.4357 18.1385 16.4356 18.1699 16.4355C18.24 16.4404 18.24 16.4404 18.28 16.4804C18.2835 16.5691 18.2843 16.6579 18.2839 16.7468C18.2839 16.7733 18.2838 16.7999 18.2838 16.8273C18.2835 16.9125 18.283 16.9977 18.2825 17.0829C18.2823 17.1405 18.2821 17.1981 18.282 17.2557C18.2815 17.3973 18.2808 17.5388 18.28 17.6804C18.2536 17.6804 18.2272 17.6804 18.2 17.6804C18.2132 17.2976 18.2264 16.9148 18.24 16.5204C17.646 16.5204 17.052 16.5204 16.44 16.5204C16.4275 15.6879 16.4275 15.6879 16.4245 15.4279C16.4169 14.8842 16.4169 14.8842 16.28 14.3604Z"
            fill="#C04695" />
        <path
            d="M12.16 15.1602C12.1732 15.1602 12.1864 15.1602 12.2 15.1602C12.2002 15.1958 12.2002 15.1958 12.2005 15.2321C12.2046 15.8114 12.209 16.3907 12.2136 16.97C12.2158 17.2502 12.2179 17.5303 12.2199 17.8105C12.2218 18.081 12.2239 18.3515 12.2261 18.622C12.2269 18.725 12.2277 18.8281 12.2284 18.9311C12.2293 19.0758 12.2305 19.2205 12.2318 19.3651C12.232 19.4075 12.2322 19.4498 12.2325 19.4934C12.2323 19.9714 12.2323 19.9714 12.3378 20.4339C12.3487 20.4647 12.3596 20.4956 12.3708 20.5273C12.3821 20.558 12.3934 20.5886 12.405 20.6202C12.4461 20.7331 12.4842 20.8453 12.52 20.9602C12.5002 20.9998 12.5002 20.9998 12.48 21.0402C12.3257 20.7089 12.1952 20.3975 12.1684 20.0302C12.1672 19.9591 12.1672 19.9591 12.12 19.9202C12.1159 19.805 12.1144 19.6909 12.1147 19.5758C12.1146 19.5389 12.1146 19.502 12.1145 19.464C12.1144 19.3394 12.1147 19.2148 12.115 19.0902C12.115 19.0474 12.1151 19.0045 12.1151 18.9604C12.1163 17.6936 12.1389 16.4268 12.16 15.1602Z"
            fill="#401D4F" />
        <path
            d="M22.3201 17.6797C22.3201 17.7997 22.3201 17.7997 22.2801 17.8797C22.1625 17.9189 22.0871 17.9243 21.9646 17.9236C21.9271 17.9235 21.8896 17.9233 21.851 17.9232C21.8119 17.9229 21.7729 17.9225 21.7326 17.9222C21.6931 17.922 21.6536 17.9218 21.6128 17.9216C21.5153 17.9212 21.4177 17.9205 21.3201 17.9197C21.3203 17.9439 21.3205 17.9681 21.3207 17.9931C21.3224 18.2482 21.3236 18.5032 21.3245 18.7583C21.3249 18.8532 21.3254 18.948 21.3261 19.0428C21.3361 20.4316 21.3361 20.4316 21.0801 20.9597C21.0231 20.8457 21.0633 20.7658 21.0921 20.6466C21.2271 20.078 21.2255 19.5137 21.2276 18.9322C21.2288 18.781 21.2302 18.6299 21.2317 18.4788C21.2326 18.3856 21.2332 18.2923 21.2336 18.1991C21.2339 18.1577 21.2341 18.1162 21.2344 18.0735C21.2346 18.0186 21.2346 18.0186 21.2349 17.9626C21.2401 17.8797 21.2401 17.8797 21.2801 17.8397C21.347 17.8348 21.414 17.8325 21.481 17.8312C21.5423 17.8295 21.5423 17.8295 21.6048 17.8278C21.6914 17.8257 21.7779 17.824 21.8645 17.8225C21.9259 17.8206 21.9259 17.8206 21.9885 17.8187C22.045 17.8176 22.045 17.8176 22.1027 17.8163C22.2147 17.7972 22.2505 17.7672 22.3201 17.6797Z"
            fill="#AA4089" />
        <path
            d="M16 14.04C16.23 14.2437 16.3943 14.4926 16.44 14.8C16.4453 14.932 16.4447 15.0638 16.4439 15.1958C16.4439 15.2294 16.4438 15.263 16.4438 15.2977C16.4436 15.4226 16.443 15.5476 16.4425 15.6725C16.4417 15.9522 16.4408 16.2319 16.44 16.52C17.034 16.52 17.628 16.52 18.24 16.52C18.24 16.8764 18.24 17.2328 18.24 17.6C18.2268 17.6 18.2136 17.6 18.2 17.6C18.2 17.2568 18.2 16.9136 18.2 16.56C17.5928 16.56 16.9856 16.56 16.36 16.56C16.3576 16.4262 16.3552 16.2923 16.3527 16.1544C16.3502 16.0248 16.3476 15.8952 16.3451 15.7656C16.3434 15.6755 16.3417 15.5854 16.3401 15.4953C16.3378 15.3659 16.3352 15.2364 16.3327 15.1069C16.332 15.0666 16.3313 15.0263 16.3306 14.9848C16.3298 14.9472 16.329 14.9095 16.3282 14.8708C16.3273 14.8212 16.3273 14.8212 16.3263 14.7707C16.3202 14.6826 16.3042 14.6047 16.28 14.52C16.2536 14.52 16.2272 14.52 16.2 14.52C16.1893 14.4837 16.1785 14.4474 16.1675 14.41C16.1239 14.2906 16.0773 14.2184 16 14.12C16 14.0936 16 14.0672 16 14.04Z"
            fill="#342450" />
        <path
            d="M22.6399 5.91987C22.901 5.91616 22.901 5.91616 23.1674 5.91237C23.222 5.91128 23.2765 5.91019 23.3327 5.90906C23.3761 5.90876 23.4194 5.90846 23.4641 5.90815C23.5083 5.90753 23.5525 5.9069 23.598 5.90625C23.7738 5.9259 23.8766 5.99661 23.9999 6.11987C24.0079 6.23946 24.0111 6.35526 24.0105 6.47487C24.0106 6.52769 24.0106 6.52769 24.0107 6.58157C24.0108 6.65608 24.0107 6.7306 24.0103 6.80511C24.0099 6.91941 24.0103 7.03369 24.0108 7.148C24.0108 7.22029 24.0107 7.29258 24.0105 7.36487C24.0107 7.39921 24.0108 7.43354 24.011 7.46892C24.0091 7.71068 24.0091 7.71068 23.9199 7.79987C23.9209 7.75082 23.922 7.70177 23.9231 7.65123C23.9267 7.46942 23.929 7.28762 23.9309 7.10578C23.9319 7.02705 23.9333 6.94833 23.935 6.86961C23.9374 6.75651 23.9385 6.64346 23.9394 6.53034C23.9405 6.49509 23.9415 6.45983 23.9426 6.42351C23.9426 6.33154 23.9403 6.24953 23.9199 6.15987C23.7872 6.03398 23.6599 6.02398 23.4816 6.0194C23.4371 6.01799 23.3927 6.01657 23.3468 6.01511C23.3008 6.01421 23.2548 6.0133 23.2074 6.01237C23.1606 6.01101 23.1138 6.00964 23.0656 6.00823C22.9504 6.00494 22.8351 6.00217 22.7199 5.99987C22.7203 6.03681 22.7207 6.07374 22.7212 6.1118C22.7225 6.24889 22.7235 6.38597 22.7243 6.52307C22.7247 6.58239 22.7252 6.64171 22.7259 6.70104C22.7269 6.78633 22.7274 6.87161 22.7277 6.9569C22.7281 7.00823 22.7285 7.05955 22.729 7.11242C22.7199 7.23987 22.7199 7.23987 22.6399 7.35987C22.6399 6.88467 22.6399 6.40947 22.6399 5.91987Z"
            fill="#402957" />
        <path
            d="M19.84 16.7998C19.8664 16.7998 19.8928 16.7998 19.92 16.7998C19.9219 17.1775 19.9233 17.5551 19.9242 17.9327C19.9246 18.1081 19.9252 18.2835 19.9261 18.4589C19.927 18.6286 19.9274 18.7982 19.9276 18.9678C19.9278 19.0322 19.9281 19.0965 19.9285 19.1609C19.9309 19.5277 19.9171 19.8793 19.84 20.2398C19.8268 20.2398 19.8136 20.2398 19.8 20.2398C19.8132 19.1046 19.8264 17.9694 19.84 16.7998Z"
            fill="#C03E8E" />
        <path
            d="M9.52002 17.8799C9.95562 17.8799 10.3912 17.8799 10.84 17.8799C10.842 18.0197 10.8439 18.1596 10.846 18.3036C10.8481 18.4412 10.8504 18.5788 10.8527 18.7163C10.8542 18.8109 10.8556 18.9054 10.8569 19C10.864 19.525 10.876 20.0407 10.96 20.5599C10.8429 20.4526 10.8239 20.3947 10.815 20.2349C10.8174 20.1051 10.8174 20.1051 10.76 19.9999C10.756 19.8906 10.7544 19.7823 10.7547 19.673C10.7547 19.6397 10.7546 19.6063 10.7546 19.572C10.7546 19.501 10.7546 19.4299 10.7548 19.3589C10.755 19.252 10.7548 19.1451 10.7546 19.0382C10.7546 18.9689 10.7546 18.8997 10.7547 18.8305C10.7546 18.7992 10.7545 18.7679 10.7545 18.7356C10.7556 18.4605 10.7787 18.1967 10.8 17.9199C10.3776 17.9199 9.95522 17.9199 9.52002 17.9199C9.52002 17.9067 9.52002 17.8935 9.52002 17.8799Z"
            fill="#C94B9A" />
        <path
            d="M9.23989 16.5195C9.76789 16.5195 10.2959 16.5195 10.8399 16.5195C10.8399 16.5459 10.8399 16.5723 10.8399 16.5995C10.3383 16.5995 9.83669 16.5995 9.31989 16.5995C9.32567 16.7678 9.33144 16.9361 9.33739 17.1095C9.33912 17.1624 9.34084 17.2152 9.34262 17.2696C9.34414 17.3115 9.34567 17.3533 9.34724 17.3964C9.3487 17.4391 9.35017 17.4819 9.35168 17.5259C9.35869 17.6229 9.37237 17.7067 9.39989 17.7995C9.29316 17.6974 9.24175 17.6439 9.23535 17.4913C9.23556 17.4465 9.23577 17.4017 9.23599 17.3555C9.23609 17.3118 9.23619 17.2682 9.23629 17.2232C9.23665 17.1675 9.23702 17.1119 9.23739 17.0545C9.23822 16.878 9.23904 16.7014 9.23989 16.5195Z"
            fill="#2F224D" />
        <path
            d="M15.8401 11.6797C15.9325 11.6929 16.0249 11.7061 16.1201 11.7197C16.1201 11.7461 16.1201 11.7725 16.1201 11.7997C17.4269 11.8129 18.7337 11.8261 20.0801 11.8397C20.0801 11.8529 20.0801 11.8661 20.0801 11.8797C19.5961 11.8815 19.112 11.883 18.628 11.8838C18.4032 11.8842 18.1785 11.8848 17.9537 11.8857C17.7366 11.8866 17.5195 11.8871 17.3024 11.8873C17.2198 11.8874 17.1371 11.8877 17.0545 11.8881C16.9384 11.8887 16.8222 11.8888 16.7061 11.8888C16.6722 11.8891 16.6384 11.8893 16.6035 11.8896C16.0584 11.8878 16.0584 11.8878 15.8899 11.7368C15.8734 11.7179 15.857 11.6991 15.8401 11.6797Z"
            fill="#111F43" />
        <path
            d="M8.71997 8.63965C8.83877 8.65945 8.83877 8.65945 8.95997 8.67965C8.95997 8.70605 8.95997 8.73245 8.95997 8.75965C9.02803 8.75841 9.02803 8.75841 9.09747 8.75715C9.23997 8.75965 9.23997 8.75965 9.27997 8.79965C9.40109 8.80606 9.52141 8.81004 9.64263 8.8123C9.69093 8.81342 9.69093 8.81342 9.7402 8.81457C9.86095 8.81731 9.98171 8.81971 10.1025 8.82215C10.5071 8.83081 10.5071 8.83081 10.92 8.83965C10.92 9.40725 10.92 9.97485 10.92 10.5596C10.9068 10.5596 10.8936 10.5596 10.88 10.5596C10.88 10.0052 10.88 9.45085 10.88 8.87965C10.3469 8.88595 10.3469 8.88595 9.81383 8.89406C9.05864 8.9017 9.05864 8.9017 8.75997 8.71965C8.74677 8.69325 8.73357 8.66685 8.71997 8.63965Z"
            fill="#2A214A" />
        <path
            d="M12.12 17.9199C12.1332 17.9199 12.1464 17.9199 12.16 17.9199C12.1604 17.9434 12.1609 17.9668 12.1613 17.991C12.1656 18.2343 12.1702 18.4776 12.1749 18.7209C12.1767 18.8119 12.1783 18.9028 12.1799 18.9937C12.1822 19.124 12.1848 19.2544 12.1874 19.3848C12.188 19.4257 12.1887 19.4666 12.1894 19.5088C12.1902 19.5464 12.191 19.584 12.1918 19.6228C12.1924 19.6561 12.1931 19.6894 12.1937 19.7237C12.1918 19.8003 12.1918 19.8003 12.24 19.8399C12.2425 19.8919 12.245 19.9439 12.2475 19.9974C12.2686 20.2509 12.3542 20.4796 12.4402 20.7171C12.4688 20.7974 12.4947 20.8786 12.52 20.9599C12.5002 20.9995 12.5002 20.9995 12.48 21.0399C12.3258 20.7087 12.1953 20.3973 12.1685 20.0299C12.1672 19.9589 12.1672 19.9589 12.12 19.9199C12.1163 19.8573 12.1153 19.7945 12.1155 19.7318C12.1155 19.6917 12.1155 19.6517 12.1155 19.6105C12.1157 19.5669 12.1159 19.5234 12.1161 19.4785C12.1162 19.4342 12.1162 19.3898 12.1163 19.3442C12.1165 19.2019 12.117 19.0597 12.1175 18.9174C12.1177 18.8213 12.1179 18.7251 12.1181 18.6289C12.1185 18.3926 12.1192 18.1562 12.12 17.9199Z"
            fill="#26244C" />
        <path
            d="M16.8602 24.5957C16.9208 24.5964 16.9208 24.5964 16.9825 24.5971C17.023 24.5975 17.0635 24.5978 17.1052 24.5982C17.1365 24.5987 17.1678 24.5991 17.2 24.5996C17.2 24.6128 17.2 24.626 17.2 24.6396C16.5 24.7881 15.7424 24.8521 15.04 24.6796C15.04 24.6664 15.04 24.6532 15.04 24.6396C15.0907 24.6398 15.1414 24.64 15.1936 24.6402C15.381 24.641 15.5683 24.6414 15.7556 24.6418C15.8368 24.642 15.918 24.6423 15.9992 24.6426C16.1157 24.6431 16.2322 24.6433 16.3486 24.6435C16.3852 24.6437 16.4217 24.6439 16.4594 24.6441C16.5463 24.6441 16.6332 24.6421 16.72 24.6396C16.76 24.5996 16.76 24.5996 16.8602 24.5957Z"
            fill="#452657" />
        <path
            d="M10.76 18.4404C10.7732 18.4404 10.7864 18.4404 10.8 18.4404C10.8006 18.4771 10.8011 18.5137 10.8017 18.5514C10.8042 18.6907 10.8072 18.83 10.8105 18.9692C10.8118 19.0289 10.8129 19.0885 10.8138 19.1482C10.8199 19.5332 10.8552 19.893 10.9386 20.2694C10.9579 20.3876 10.9616 20.4504 10.92 20.5604C10.8354 20.4336 10.8276 20.3828 10.8175 20.2354C10.8182 20.1057 10.8182 20.1057 10.76 20.0004C10.7564 19.8851 10.7554 19.7706 10.7561 19.6553C10.7561 19.6207 10.7562 19.5861 10.7562 19.5505C10.7565 19.4397 10.757 19.3288 10.7575 19.2179C10.7577 19.143 10.7579 19.068 10.758 18.993C10.7585 18.8088 10.7591 18.6246 10.76 18.4404Z"
            fill="#DF409A" />
        <path
            d="M8.00002 5.91992C8.01322 5.94632 8.02642 5.97272 8.04002 5.99992C8.06642 6.01312 8.09282 6.02632 8.12002 6.03992C8.09362 6.06632 8.06722 6.09272 8.04002 6.11992C8.03151 6.23291 8.02786 6.34187 8.02799 6.45492C8.02782 6.48849 8.02765 6.52205 8.02747 6.55663C8.02724 6.62792 8.02722 6.6992 8.02739 6.77049C8.02752 6.87839 8.02659 6.98625 8.02557 7.09414C8.0224 7.59812 8.0224 7.59812 8.16002 8.07992C8.12042 8.06672 8.08082 8.05352 8.04002 8.03992C7.95176 7.81764 7.94885 7.60751 7.9508 7.3707C7.95082 7.33419 7.95084 7.29768 7.95086 7.26006C7.95098 7.18331 7.95129 7.10656 7.95179 7.02981C7.95252 6.91237 7.95261 6.79494 7.9526 6.6775C7.95279 6.60273 7.95303 6.52797 7.9533 6.4532C7.95335 6.41816 7.95339 6.38312 7.95344 6.34701C7.95369 6.31429 7.95395 6.28157 7.95421 6.24786C7.95436 6.21922 7.95451 6.19057 7.95467 6.16106C7.96024 6.07656 7.97704 6.00127 8.00002 5.91992Z"
            fill="#BF4392" />
        <path
            d="M14.3201 17.7998C14.3465 17.7998 14.3729 17.7998 14.4001 17.7998C14.4133 18.1166 14.4265 18.4334 14.4401 18.7598C14.4665 18.7598 14.4929 18.7598 14.5201 18.7598C14.5333 18.7994 14.5465 18.839 14.5601 18.8798C14.5865 18.893 14.6129 18.9062 14.6401 18.9198C14.6401 18.9462 14.6401 18.9726 14.6401 18.9998C14.4912 18.9519 14.4272 18.8618 14.3532 18.7276C14.2889 18.5573 14.3037 18.3817 14.3101 18.2023C14.3108 18.1635 14.3115 18.1247 14.3122 18.0847C14.3141 17.9897 14.3167 17.8948 14.3201 17.7998Z"
            fill="#C64092" />
        <path
            d="M19.2401 21.6797C19.2533 21.7061 19.2665 21.7325 19.2801 21.7597C19.1764 22.0414 18.9633 22.3065 18.7201 22.4797C18.629 22.4694 18.629 22.4694 18.5601 22.4397C18.5948 22.4127 18.6296 22.3858 18.6654 22.358C18.8106 22.237 18.9213 22.0973 19.0351 21.9472C19.0649 21.9085 19.0649 21.9085 19.0954 21.869C19.1438 21.8061 19.192 21.7429 19.2401 21.6797Z"
            fill="#22284B" />
        <path
            d="M15.8401 11.6797C15.9325 11.6929 16.0249 11.7061 16.1201 11.7197C16.1201 11.7461 16.1201 11.7725 16.1201 11.7997C16.1468 11.7992 16.1736 11.7988 16.2012 11.7983C16.5622 11.7949 16.9201 11.8158 17.2801 11.8397C17.2801 11.8529 17.2801 11.8661 17.2801 11.8797C17.1276 11.882 16.9751 11.8834 16.8226 11.8847C16.7798 11.8854 16.737 11.886 16.693 11.8867C16.0608 11.8906 16.0608 11.8906 15.8903 11.7367C15.8738 11.7179 15.8572 11.6991 15.8401 11.6797Z"
            fill="#20234A" />
        <path
            d="M12.96 18.04C12.9732 18.04 12.9864 18.04 13 18.04C13.0008 18.0638 13.0016 18.0876 13.0024 18.1121C13.0063 18.2214 13.0107 18.3307 13.015 18.44C13.0169 18.4961 13.0169 18.4961 13.0188 18.5533C13.0283 18.7806 13.0572 18.9814 13.12 19.2C13.1336 19.2533 13.1469 19.3066 13.16 19.36C13.1336 19.36 13.1072 19.36 13.08 19.36C13.08 19.3204 13.08 19.2808 13.08 19.24C13.0536 19.24 13.0272 19.24 13 19.24C12.9943 19.1947 12.9885 19.1493 12.9825 19.1025C12.9756 18.9677 12.9756 18.9677 12.92 18.92C12.9194 18.8546 12.9215 18.789 12.9249 18.7236C12.9268 18.6841 12.9288 18.6445 12.9307 18.6037C12.933 18.5621 12.9352 18.5204 12.9375 18.4775C12.9396 18.4357 12.9417 18.394 12.9439 18.3509C12.9491 18.2473 12.9545 18.1437 12.96 18.04Z"
            fill="#9F3E85" />
        <path
            d="M17.0399 23.3203C16.9601 23.3476 16.8801 23.3741 16.7999 23.4003C16.7362 23.422 16.7362 23.422 16.6712 23.4441C16.5043 23.4841 16.3728 23.4804 16.2024 23.4653C16.1751 23.4631 16.1477 23.4608 16.1195 23.4584C16.053 23.4529 15.9864 23.4467 15.9199 23.4403C15.9199 23.4271 15.9199 23.4139 15.9199 23.4003C15.9736 23.3974 15.9736 23.3974 16.0284 23.3944C16.2905 23.3782 16.5413 23.3561 16.7965 23.2925C16.8892 23.279 16.9514 23.2919 17.0399 23.3203Z"
            fill="#362551" />
        <path
            d="M21.2401 19.7998C21.2533 19.7998 21.2665 19.7998 21.2801 19.7998C21.263 20.6287 21.263 20.6287 21.0801 20.9598C21.029 20.8577 21.0462 20.8175 21.0698 20.7068C21.0769 20.6723 21.0841 20.6377 21.0915 20.6021C21.0993 20.5658 21.107 20.5296 21.1151 20.4923C21.1637 20.2619 21.21 20.0334 21.2401 19.7998Z"
            fill="#B74491" />
        <path
            d="M14.48 23.04C14.6895 23.0621 14.8789 23.0972 15.08 23.16C15.08 23.1864 15.08 23.2128 15.08 23.24C15.1724 23.24 15.2648 23.24 15.36 23.24C15.36 23.2664 15.36 23.2928 15.36 23.32C15.039 23.3037 14.775 23.2036 14.48 23.08C14.48 23.0668 14.48 23.0536 14.48 23.04Z"
            fill="#BD4391" />
        <path
            d="M19.88 23.04C19.8932 23.0928 19.9064 23.1456 19.92 23.2C19.8804 23.2132 19.8408 23.2264 19.8 23.24C19.7885 23.2664 19.7769 23.2928 19.765 23.32C19.72 23.4 19.72 23.4 19.615 23.43C19.5837 23.4333 19.5523 23.4366 19.52 23.44C19.5575 23.3958 19.595 23.3517 19.6325 23.3075C19.6534 23.2829 19.6743 23.2583 19.6958 23.233C19.7549 23.1659 19.816 23.1025 19.88 23.04Z"
            fill="#C14091" />
        <path
            d="M16 14.04C16.1815 14.2008 16.2983 14.3798 16.4 14.6C16.4 14.6264 16.4 14.6528 16.4 14.68C16.3736 14.68 16.3472 14.68 16.32 14.68C16.3068 14.6272 16.2936 14.5744 16.28 14.52C16.2536 14.52 16.2272 14.52 16.2 14.52C16.1893 14.4837 16.1785 14.4474 16.1675 14.41C16.1239 14.2906 16.0773 14.2184 16 14.12C16 14.0936 16 14.0672 16 14.04Z"
            fill="#2F254F" />
        <path
            d="M20.4801 22.2402C20.4933 22.2666 20.5065 22.293 20.5201 22.3202C20.4771 22.4229 20.4771 22.4229 20.4126 22.5427C20.3814 22.6022 20.3814 22.6022 20.3496 22.6629C20.2801 22.7602 20.2801 22.7602 20.1918 22.7938C20.1682 22.7959 20.1445 22.7981 20.1201 22.8002C20.2317 22.608 20.356 22.4245 20.4801 22.2402Z"
            fill="#C34393" />
        <path
            d="M21.0001 20.7998C21.0265 20.7998 21.0529 20.7998 21.0801 20.7998C21.0631 20.8832 21.0455 20.9666 21.0276 21.0498C21.0178 21.0962 21.0081 21.1426 20.9981 21.1904C20.9618 21.314 20.9244 21.3844 20.8401 21.4798C20.8401 21.4006 20.8401 21.3214 20.8401 21.2398C20.8665 21.2398 20.8929 21.2398 20.9201 21.2398C20.9184 21.2118 20.9168 21.1837 20.9151 21.1548C20.9208 21.0245 20.9548 20.9216 21.0001 20.7998Z"
            fill="#2A234C" />
        <path
            d="M12.24 20.1201C12.3978 20.2253 12.4011 20.2974 12.44 20.4801C12.443 20.5734 12.4438 20.6669 12.44 20.7601C12.3653 20.6482 12.3325 20.5673 12.295 20.4401C12.2846 20.4055 12.2742 20.3708 12.2634 20.3351C12.24 20.2401 12.24 20.2401 12.24 20.1201Z"
            fill="#BE4291" />
        <path
            d="M15.1201 13.5598C15.3243 13.5527 15.4915 13.5499 15.6801 13.6398C15.7267 13.7229 15.7267 13.7229 15.7601 13.7998C15.7374 13.792 15.7146 13.7843 15.6912 13.7763C15.502 13.7125 15.3126 13.653 15.1201 13.5998C15.1201 13.5866 15.1201 13.5734 15.1201 13.5598Z"
            fill="#BE4391" />
        <path
            d="M18.5201 22.4805C18.5333 22.5201 18.5465 22.5597 18.5601 22.6005C18.4643 22.7164 18.3876 22.7405 18.2401 22.7605C18.2401 22.7869 18.2401 22.8133 18.2401 22.8405C18.1873 22.8273 18.1345 22.8141 18.0801 22.8005C18.2253 22.6949 18.3705 22.5893 18.5201 22.4805Z"
            fill="#28254E" />
        <path
            d="M19.68 20.7197C19.6932 20.7197 19.7064 20.7197 19.72 20.7197C19.7468 20.9773 19.6702 21.1132 19.52 21.3197C19.48 21.2397 19.48 21.2397 19.5199 21.1182C19.5389 21.0708 19.5579 21.0235 19.5775 20.9747C19.5964 20.9272 19.6154 20.8796 19.6349 20.8307C19.6498 20.7941 19.6647 20.7574 19.68 20.7197Z"
            fill="#372650" />
        <path
            d="M10.8401 19.9199C10.8533 19.9199 10.8665 19.9199 10.8801 19.9199C10.9065 20.1311 10.9329 20.3423 10.9601 20.5599C10.8401 20.4399 10.8401 20.4399 10.8284 20.3145C10.8298 20.2676 10.8312 20.2207 10.8326 20.1724C10.8337 20.1252 10.8348 20.0781 10.8359 20.0295C10.8373 19.9933 10.8387 19.9572 10.8401 19.9199Z"
            fill="#B7428F" />
        <path
            d="M13.52 19.8404C13.6125 19.8279 13.6125 19.8279 13.72 19.8404C13.79 19.9354 13.79 19.9354 13.84 20.0404C13.8532 20.0668 13.8664 20.0932 13.88 20.1204C13.7273 20.0582 13.6323 19.959 13.52 19.8404Z"
            fill="#2B224B" />
        <path
            d="M19.24 21.6797C19.2532 21.7061 19.2664 21.7325 19.28 21.7597C19.2489 21.8288 19.2489 21.8288 19.2025 21.9047C19.1753 21.9492 19.148 21.9938 19.12 22.0397C19.0804 22.0265 19.0408 22.0133 19 21.9997C19.0792 21.8941 19.1584 21.7885 19.24 21.6797Z"
            fill="#32244F" />
        <path
            d="M19.44 21.3203C19.4532 21.3731 19.4664 21.4259 19.48 21.4803C19.4536 21.4803 19.4272 21.4803 19.4 21.4803C19.3868 21.5463 19.3736 21.6123 19.36 21.6803C19.3336 21.6803 19.3072 21.6803 19.28 21.6803C19.3224 21.5442 19.3604 21.4398 19.44 21.3203Z"
            fill="#342852" />
    </g>
    <defs>
        <clipPath id="clip0_3143_263">
            <rect width="32" height="32" fill="white" />
        </clipPath>
    </defs>
</svg>