<svg width="32" height="32" viewBox="0 0 32 32" fill="none" xmlns="http://www.w3.org/2000/svg">
    <path
        d="M9.12306 21.7891H12.7313L12.9387 22.0951L13.2584 22.5678L13.5849 23.0473L13.9181 23.5439L14.2514 24.0472L14.5915 24.5607L14.9384 25.0878L15.2886 25.6285L15.6423 26.1794L15.9994 26.7406L16.3565 26.1794L16.7102 25.6285L17.0604 25.0878L17.4039 24.5607L17.7474 24.0472L18.0807 23.5439L18.4139 23.0473L18.7404 22.5678L19.0601 22.0951L19.2675 21.7891H22.8757L27.1233 27.3085L15.9994 30.7195L4.87549 27.3085L9.12306 21.7891Z"
        fill="#6D62C7" />
    <path
        d="M16.6422 1.30268L16.9619 1.34008L17.2714 1.3843L17.5808 1.44214L17.8869 1.51361L18.1896 1.59857L18.482 1.69381L18.7745 1.80268L19.0568 1.92169L19.3356 2.05091L19.6111 2.19036L19.8764 2.3434L20.1382 2.50663L20.3899 2.67667L20.6381 2.8603L20.8762 3.04735L21.1108 3.248L21.3353 3.45884L21.5529 3.67648L21.7638 3.90095L21.961 4.13898L22.1583 4.38045L22.3385 4.6321L22.5153 4.89056L22.6786 5.15581L22.8316 5.42449L22.9778 5.70336L23.1139 5.98901L23.2397 6.27806L23.3519 6.57735L23.454 6.88001L23.5492 7.18948L23.624 7.50234L23.6955 7.81863L23.7533 8.14169L23.7975 8.46816L23.8316 8.79804L23.8486 9.13132L23.855 9.46799L23.8486 9.80807L23.8316 10.1413L23.7975 10.4746L23.7533 10.8079L23.6955 11.1344L23.624 11.4642L23.5492 11.7873L23.454 12.1172L23.3519 12.4402L23.2397 12.7667L23.1139 13.0932L22.9778 13.4231L22.8316 13.7495L22.6786 14.0828L22.5153 14.4161L22.3385 14.7494L22.1583 15.0895L21.961 15.4295L21.7638 15.7764L21.5529 16.1233L21.3353 16.477L21.1108 16.8374L20.8762 17.2013L20.6381 17.572L20.3899 17.9495L19.8764 18.7181L19.6111 19.1159L19.3356 19.5172L19.0568 19.9321L18.7745 20.3504L18.482 20.7789L18.1896 21.2142L17.8869 21.6631L17.5808 22.1188L17.2714 22.5847L16.9619 23.0608L16.6422 23.554L16.3226 24.0505L15.9995 24.564L15.673 24.0505L15.3567 23.554L15.0371 23.0608L14.7276 22.5847L14.4181 22.1188L14.1121 21.6631L13.8094 21.2142L13.5169 20.7789L13.2244 20.3504L12.9422 19.9321L12.6633 19.5172L12.3879 19.1159L12.1226 18.7181L11.6091 17.9495L11.3608 17.572L11.1194 17.2013L10.8881 16.8374L10.6637 16.477L10.446 16.1233L10.2352 15.7764L10.0345 15.4295L9.84069 15.0895L9.66045 14.7494L9.48362 14.4161L9.32039 14.0828L9.16394 13.7495L9.01771 13.4231L8.88509 13.0932L8.75925 12.7667L8.64703 12.4402L8.54499 12.1172L8.44975 11.7873L8.37147 11.4642L8.30001 11.1344L8.24564 10.8079L8.20141 10.4746L8.16735 10.1413L8.14691 9.80807L8.14307 9.46799L8.14691 9.13132L8.16735 8.79804L8.20141 8.46816L8.24564 8.14169L8.30001 7.81863L8.37147 7.50234L8.44975 7.18948L8.54499 6.88001L8.64703 6.57735L8.75925 6.27806L8.88509 5.98901L9.01771 5.70336L9.16394 5.42449L9.32039 5.15581L9.48362 4.89056L9.66045 4.6321L9.84069 4.38045L10.0345 4.13898L10.2352 3.90095L10.446 3.67648L10.6637 3.45884L10.8881 3.248L11.1194 3.04735L11.3608 2.8603L11.6091 2.67667L11.8607 2.50663L12.1226 2.3434L12.3879 2.19036L12.6633 2.05091L12.9422 1.92169L13.2244 1.80268L13.5169 1.69381L13.8094 1.59857L14.1121 1.51361L14.4181 1.44214L14.7276 1.3843L15.0371 1.34008L15.3567 1.30268L15.673 1.28571L15.9995 1.2793L16.3226 1.28571L16.6422 1.30268ZM15.6934 5.17276L15.5438 5.18973L15.3941 5.20669L15.2479 5.23729L15.1051 5.26786L14.9622 5.31209L14.8228 5.35629L14.6868 5.40733L14.5508 5.46516L14.4181 5.52635L14.2889 5.591L14.1631 5.66247L14.0407 5.7406L13.9182 5.82223L13.7992 5.90719L13.687 5.99562L13.5748 6.09086L13.4727 6.19293L13.3673 6.29497L13.2687 6.40384L13.1735 6.51271L13.0817 6.62838L12.9933 6.74741L12.915 6.86978L12.8369 6.99561L12.7621 7.12484L12.6941 7.25406L12.5682 7.52613L12.5172 7.66897L12.4696 7.81179L12.4221 7.95802L12.388 8.10427L12.354 8.2573L12.3267 8.41032L12.3063 8.56336L12.2893 8.7232L12.279 8.87963L12.2752 9.03947L12.279 9.19929L12.2893 9.35914L12.3063 9.51559L12.3267 9.6686L12.354 9.82164L12.388 9.97128L12.4221 10.1175L12.4696 10.2637L12.5172 10.4066L12.5682 10.5494L12.6941 10.8249L12.7621 10.9541L12.8369 11.0833L12.915 11.2092L12.9933 11.3315L13.0817 11.4506L13.1735 11.5628L13.2687 11.675L13.3673 11.7804L13.4727 11.8858L13.5748 11.9878L13.687 12.0796L13.7992 12.1714L13.9182 12.2563L14.0407 12.3379L14.1631 12.4161L14.2889 12.4876L14.4181 12.5556L14.5508 12.6134L14.6868 12.6712L14.8228 12.7188L14.9622 12.7663L15.1051 12.8071L15.2479 12.8411L15.3941 12.8684L15.5438 12.8922L15.6934 12.9058L15.8464 12.9161L15.9995 12.9199L16.1525 12.9161L16.3056 12.9058L16.4552 12.8922L16.6048 12.8684L16.7511 12.8411L16.8939 12.8071L17.0367 12.7663L17.1761 12.7188L17.3122 12.6712L17.4482 12.6134L17.5808 12.5556L17.7101 12.4876L17.8359 12.4161L17.9583 12.3379L18.0808 12.2563L18.1998 12.1714L18.312 12.0796L18.4208 11.9878L18.5262 11.8858L18.6316 11.7804L18.7302 11.675L18.8255 11.5628L18.9172 11.4506L19.0022 11.3315L19.0838 11.2092L19.1621 11.0833L19.2369 10.9541L19.3049 10.8249L19.4273 10.5494L19.4816 10.4066L19.5292 10.2637L19.5734 10.1175L19.6108 9.97128L19.6449 9.82164L19.6721 9.6686L19.6926 9.51559L19.7095 9.35914L19.7159 9.19929L19.7198 9.03947L19.7159 8.87963L19.7095 8.7232L19.6926 8.56336L19.6721 8.41032L19.6449 8.2573L19.6108 8.10427L19.5734 7.95802L19.5292 7.81179L19.4816 7.66897L19.4273 7.52613L19.3049 7.25406L19.2369 7.12484L19.1621 6.99561L19.0838 6.86978L19.0022 6.74741L18.9172 6.62838L18.8255 6.51271L18.7302 6.40384L18.6316 6.29497L18.5262 6.19293L18.4208 6.09086L18.312 5.99562L18.1998 5.90719L18.0808 5.82223L17.9583 5.7406L17.8359 5.66247L17.7101 5.591L17.5808 5.52635L17.4482 5.46516L17.3122 5.40733L17.1761 5.35629L17.0367 5.31209L16.8939 5.26786L16.7511 5.23729L16.6048 5.20669L16.4552 5.18973L16.3056 5.17276L16.1525 5.16246L15.9995 5.15862L15.8464 5.16246L15.6934 5.17276Z"
        fill="#6D62C7" />
</svg>