<svg width="32" height="32" viewBox="0 0 32 32" fill="none" xmlns="http://www.w3.org/2000/svg">
    <g clip-path="url(#clip0_1694_3862)">
        <mask id="mask0_1694_3862" style="mask-type:luminance" maskUnits="userSpaceOnUse" x="0"
            y="0" width="32" height="32">
            <path d="M32 0H0V32H32V0Z" fill="white" />
        </mask>
        <g mask="url(#mask0_1694_3862)">
            <path fill-rule="evenodd" clip-rule="evenodd"
                d="M-0.0319824 -0.0317383C10.6347 -0.0317383 21.3014 -0.0317383 31.968 -0.0317383C31.968 10.6349 31.968 21.3015 31.968 31.9682C21.3014 31.9682 10.6347 31.9682 -0.0319824 31.9682C-0.0319824 21.3015 -0.0319824 10.6349 -0.0319824 -0.0317383Z"
                fill="#FAFAFA" />
        </g>
        <path
            d="M4.62762 22.5598L0.670071 17.0345C0.494409 16.7855 0.399902 16.4865 0.399902 16.1798C0.399902 15.8731 0.494409 15.5741 0.670071 15.3251L4.62762 9.7998H8.85395L4.82045 15.4322C4.52604 15.8436 4.52604 16.516 4.82045 16.9273L8.85444 22.5598H4.62762ZM14.0967 22.5598L18.0547 17.0345C18.4147 16.5316 18.4147 15.828 18.0547 15.3246L14.0967 9.80031H9.86984L13.9038 15.4322C14.1982 15.8431 14.1982 16.516 13.9038 16.9268L9.86984 22.5593L14.0967 22.5598Z"
            fill="#4900FF" />
        <path opacity="0.43"
            d="M20.7351 22.5597L24.6922 17.0344C25.0522 16.5315 25.0522 15.828 24.6922 15.3246L20.7351 9.80029H16.5078L20.5418 15.4322C20.8362 15.8431 20.8362 16.516 20.5418 16.9268L16.5078 22.5592L20.7351 22.5597Z"
            fill="#4900FF" />
        <path opacity="0.11"
            d="M27.3728 22.5597L31.3299 17.0344C31.6899 16.5315 31.6899 15.828 31.3299 15.3246L27.3728 9.80029H23.146L27.18 15.4322C27.4744 15.8431 27.4744 16.516 27.18 16.9268L23.146 22.5592L27.3728 22.5597Z"
            fill="#4900FF" />
    </g>
    <defs>
        <clipPath id="clip0_1694_3862">
            <rect width="32" height="32" fill="white" />
        </clipPath>
    </defs>
</svg>
    