<svg width="32" height="32" viewBox="0 0 33 32" fill="none" xmlns="http://www.w3.org/2000/svg">
    <path
        d="M16.3 0C7.48649 0 0.300049 7.18644 0.300049 16C0.300049 24.8136 7.48649 32 16.3 32C25.1136 32 32.3 24.8136 32.3 16C32.3 7.18644 25.1136 0 16.3 0ZM15.7577 19.2542C13.8594 20.8814 10.6051 21.1525 8.70683 19.7966C7.62208 18.9831 7.3509 17.8983 7.21531 17.4915C5.85937 12.4746 8.84242 7.32203 13.7238 5.9661C18.7407 4.61017 23.8933 7.59322 25.2492 12.4746C25.5204 13.4237 25.5204 13.9661 25.2492 14.1017C24.4356 14.9153 22.5373 13.2881 20.3678 13.9661C18.0628 14.6441 18.3339 16.9492 15.7577 19.2542Z"
        fill="url(#paint0_linear_4581_156)" />
    <defs>
        <linearGradient id="paint0_linear_4581_156" x1="10.6051" y1="30.6441" x2="21.4526"
            y2="2.30508" gradientUnits="userSpaceOnUse">
            <stop stop-color="#FC7ED2" />
            <stop offset="1" stop-color="#FF9A4C" />
        </linearGradient>
    </defs>
</svg>