<svg width="32" height="32" viewBox="0 0 33 33" fill="none" xmlns="http://www.w3.org/2000/svg">
    <path opacity="0.958" fill-rule="evenodd" clip-rule="evenodd"
        d="M7.34122 0.451678C13.4847 0.413868 19.6279 0.451678 25.7708 0.565155C26.2092 0.868183 26.6296 1.20861 27.0317 1.58644C28.8761 4.34084 30.6868 7.13994 32.4636 9.98371C32.7046 11.1624 32.5106 12.2215 31.8816 13.1611C27.6081 18.9919 23.3402 24.8169 19.0779 30.6365C17.3939 33.0378 15.7126 33.0378 14.0341 30.6365C9.70629 24.3666 5.2444 18.2389 0.648378 12.2532C0.509264 11.4487 0.541603 10.6544 0.745376 9.87024C2.37631 7.44234 3.96062 4.98368 5.49826 2.49426C6.02996 1.68233 6.64427 1.00147 7.34122 0.451678Z"
        fill="#000101" />
    <path fill-rule="evenodd" clip-rule="evenodd"
        d="M12.773 3.17528C11.9682 5.80447 11.1922 8.45226 10.4451 11.1186C7.98778 11.1186 5.53052 11.1186 3.07324 11.1186C4.58598 8.37989 6.26728 5.76992 8.11712 3.28876C9.66775 3.17535 11.2197 3.13752 12.773 3.17528Z"
        fill="#BBDBF2" />
    <path fill-rule="evenodd" clip-rule="evenodd"
        d="M12.773 3.17529C15.295 3.17529 17.8169 3.17529 20.3388 3.17529C21.1441 5.80822 21.9201 8.45602 22.6668 11.1187C18.5929 11.1187 14.519 11.1187 10.4451 11.1187C11.1922 8.45227 11.9682 5.80448 12.773 3.17529Z"
        fill="#8BC9F6" />
    <path fill-rule="evenodd" clip-rule="evenodd"
        d="M20.3389 3.17528C21.8922 3.13752 23.4442 3.17535 24.9948 3.28876C26.1263 4.91526 27.2581 6.54175 28.3897 8.16825C28.9876 9.12908 29.5374 10.1125 30.0386 11.1186C27.5813 11.1186 25.1242 11.1186 22.6668 11.1186C21.9201 8.45601 21.1441 5.80821 20.3389 3.17528Z"
        fill="#5CABEA" />
    <path fill-rule="evenodd" clip-rule="evenodd"
        d="M3.07324 11.1187C5.53052 11.1187 7.98778 11.1187 10.4451 11.1187C12.4616 17.0612 14.4016 23.0378 16.2649 29.048C11.7282 23.2109 7.33101 17.2346 3.07324 11.1187Z"
        fill="#8AC8F4" />
    <path fill-rule="evenodd" clip-rule="evenodd"
        d="M10.4451 11.1187C14.519 11.1187 18.5929 11.1187 22.6668 11.1187C20.6673 17.0805 18.7273 23.0568 16.8469 29.048C16.6529 29.6532 16.4589 29.6532 16.2649 29.048C14.4016 23.0378 12.4616 17.0612 10.4451 11.1187Z"
        fill="#5DACEB" />
    <path fill-rule="evenodd" clip-rule="evenodd"
        d="M22.6668 11.1187C25.1241 11.1187 27.5813 11.1187 30.0386 11.1187C25.7763 17.2391 21.3792 23.2155 16.8469 29.048C18.7273 23.0568 20.6673 17.0805 22.6668 11.1187Z"
        fill="#4187BF" />
</svg>