<svg width="32" height="32" viewBox="0 0 32 32" fill="none" xmlns="http://www.w3.org/2000/svg">
    <g clip-path="url(#clip0_3127_325)">
        <path fill-rule="evenodd" clip-rule="evenodd"
            d="M-0.0800781 -0.0849609C10.5866 -0.0849609 21.2532 -0.0849609 31.9199 -0.0849609C31.9199 10.5817 31.9199 21.2483 31.9199 31.915C21.2532 31.915 10.5866 31.915 -0.0800781 31.915C-0.0800781 21.2483 -0.0800781 10.5817 -0.0800781 -0.0849609Z"
            fill="#010101" />
        <path fill-rule="evenodd" clip-rule="evenodd"
            d="M11.7599 4.51067C13.2423 4.33013 14.629 4.6138 15.9199 5.36173C19.5942 3.55714 22.3407 4.57842 24.1599 8.42556C24.2991 9.16163 24.4324 9.89922 24.5599 10.6383C27.0766 12.3988 27.9033 14.8385 27.0399 17.9575C26.5289 19.2959 25.6756 20.3171 24.4799 21.0213C23.9094 25.7131 21.4294 27.6705 17.0399 26.8936C16.6666 26.695 16.2932 26.4965 15.9199 26.2979C12.4152 28.0545 9.72189 27.1468 7.83992 23.5745C7.58847 22.7393 7.40181 21.8882 7.27992 21.0213C4.47525 18.8451 3.80858 16.065 5.27992 12.6809C5.81677 11.8544 6.48344 11.1736 7.27992 10.6383C7.53597 7.53341 9.0293 5.49086 11.7599 4.51067Z"
            fill="#F1F1F1" />
        <path fill-rule="evenodd" clip-rule="evenodd"
            d="M15.7599 17.6172C16.9466 18.41 17.5332 19.5731 17.5199 21.1065C17.5538 22.6191 17.0204 23.839 15.9199 24.7661C14.8029 23.8151 14.2696 22.567 14.3199 21.0214C14.3672 19.6732 14.8472 18.5384 15.7599 17.6172Z"
            fill="#090909" />
        <path fill-rule="evenodd" clip-rule="evenodd"
            d="M17.8401 16.4252C20.3548 16.1594 22.1414 17.2374 23.2001 19.6592C23.2791 19.9373 23.3057 20.2211 23.2801 20.5103C20.1443 21.1423 18.171 19.8372 17.3601 16.5954C17.5667 16.6358 17.7267 16.579 17.8401 16.4252Z"
            fill="#0A0A0A" />
        <path fill-rule="evenodd" clip-rule="evenodd"
            d="M11.7601 16.4256C12.674 16.3937 13.5807 16.4505 14.4801 16.5958C13.6205 19.776 11.6472 21.0809 8.56006 20.5107C8.87217 18.4768 9.93883 17.1151 11.7601 16.4256Z"
            fill="#0A0A0A" />
        <path fill-rule="evenodd" clip-rule="evenodd"
            d="M15.44 15.0638C16.6304 14.9367 16.9504 15.419 16.4 16.5106C15.23 16.659 14.91 16.1767 15.44 15.0638Z"
            fill="#181818" />
        <path fill-rule="evenodd" clip-rule="evenodd"
            d="M24.24 11.8301C26.2721 13.3232 26.8321 15.309 25.92 17.7875C25.6041 18.6299 25.0976 19.3108 24.4 19.8301C23.7561 18.0968 22.6894 16.7635 21.2 15.8301C22.7635 14.9724 23.7768 13.6391 24.24 11.8301Z"
            fill="#0A0A0A" />
        <path fill-rule="evenodd" clip-rule="evenodd"
            d="M7.28006 11.8301C7.77829 12.6576 8.28494 13.5087 8.80006 14.3833C9.3137 15.0109 9.92702 15.4932 10.6401 15.8301C9.10862 16.7285 8.04195 18.0617 7.44006 19.8301C5.6107 18.1615 5.10403 16.1189 5.92006 13.7024C6.28542 13.0022 6.73877 12.3781 7.28006 11.8301Z"
            fill="#0A0A0A" />
        <path fill-rule="evenodd" clip-rule="evenodd"
            d="M20.7201 10.979C21.5793 10.9606 22.4326 11.0173 23.2801 11.1492C22.4817 14.3855 20.5083 15.6905 17.3601 15.0641C17.7398 13.0049 18.8598 11.6432 20.7201 10.979Z"
            fill="#0A0A0A" />
        <path fill-rule="evenodd" clip-rule="evenodd"
            d="M9.20006 10.979C12.0496 10.8153 13.8096 12.177 14.4801 15.0641C12.337 15.6664 10.6036 15.0423 9.28006 13.1918C8.89766 12.567 8.65766 11.8861 8.56006 11.1492C8.8159 11.1948 9.02924 11.1381 9.20006 10.979Z"
            fill="#0B0B0B" />
        <path fill-rule="evenodd" clip-rule="evenodd"
            d="M15.76 6.72363C16.2285 6.9094 16.575 7.24983 16.8 7.74491C17.9747 10.0885 17.6814 12.1878 15.92 14.0428C13.8536 11.6595 13.8002 9.21975 15.76 6.72363Z"
            fill="#080808" />
        <path fill-rule="evenodd" clip-rule="evenodd"
            d="M18.1599 5.53229C21.1335 5.52068 22.8935 7.0526 23.4399 10.128C22.4324 9.9512 21.4191 9.92283 20.3999 10.0429C19.7528 10.2429 19.1661 10.555 18.6399 10.9791C18.7197 9.06952 18.133 7.4525 16.8799 6.12804C17.2994 5.87701 17.726 5.67844 18.1599 5.53229Z"
            fill="#0A0A0A" />
        <path fill-rule="evenodd" clip-rule="evenodd"
            d="M12.2399 5.53236C13.1981 5.48089 14.1048 5.67948 14.9599 6.12811C13.7067 7.45256 13.1201 9.06959 13.1999 10.9792C11.7273 9.96508 10.1273 9.68138 8.3999 10.1281C8.76142 7.70555 10.0414 6.17364 12.2399 5.53236Z"
            fill="#0A0A0A" />
        <path fill-rule="evenodd" clip-rule="evenodd"
            d="M18.4801 20.6807C20.0067 21.688 21.6601 21.9717 23.4401 21.5317C22.8881 24.6444 21.1281 26.1479 18.1601 26.0424C16.7617 25.9859 16.575 25.5036 17.6001 24.5956C18.3694 23.4122 18.6628 22.1072 18.4801 20.6807Z"
            fill="#0A0A0A" />
        <path fill-rule="evenodd" clip-rule="evenodd"
            d="M13.0399 20.6807C13.2193 22.4647 13.8593 24.0817 14.9599 25.5317C12.7354 26.5642 10.8421 26.082 9.2799 24.0849C8.84318 23.2866 8.54985 22.4356 8.3999 21.5317C9.40737 21.7086 10.4207 21.737 11.4399 21.6168C12.0553 21.432 12.5887 21.12 13.0399 20.6807Z"
            fill="#0A0A0A" />
    </g>
    <defs>
        <clipPath id="clip0_3127_325">
            <rect width="32" height="32" fill="white" />
        </clipPath>
    </defs>
</svg>