<svg width="32" height="32" viewBox="0 0 32 32" fill="none" xmlns="http://www.w3.org/2000/svg">
    <g clip-path="url(#clip0_3546_163)">
        <path fill-rule="evenodd" clip-rule="evenodd"
            d="M-0.0710449 -0.0712891C10.5956 -0.0712891 21.2623 -0.0712891 31.929 -0.0712891C31.929 10.5954 31.929 21.262 31.929 31.9287C21.2623 31.9287 10.5956 31.9287 -0.0710449 31.9287C-0.0710449 21.262 -0.0710449 10.5954 -0.0710449 -0.0712891Z"
            fill="#FEFDFD" />
        <path fill-rule="evenodd" clip-rule="evenodd"
            d="M7.75102 9.45788C7.60968 10.8069 7.56228 12.1818 7.6088 13.5823C5.19102 13.5823 2.77325 13.5823 0.355469 13.5823C1.37699 8.12978 4.36366 4.17127 9.31547 1.70677C11.2694 0.850679 13.3079 0.424012 15.431 0.426771C16.8195 0.819863 17.744 1.6969 18.2044 3.05788C18.2755 6.61313 18.2992 10.1687 18.2755 13.7245C16.2844 13.7245 14.2932 13.7245 12.3021 13.7245C12.3258 12.2068 12.3021 10.6897 12.231 9.17344C11.679 7.62925 10.6123 7.08407 9.03102 7.53788C8.23134 7.93372 7.80467 8.57372 7.75102 9.45788Z"
            fill="#B71334" />
        <path fill-rule="evenodd" clip-rule="evenodd"
            d="M23.9646 3.48467C24.5012 3.45101 25.0227 3.52212 25.529 3.69801C28.7348 6.29288 30.6311 9.6351 31.2179 13.7247C28.4208 13.7247 25.6239 13.7247 22.8268 13.7247C22.803 10.6902 22.8268 7.65615 22.8979 4.62245C23.1863 4.16845 23.5419 3.78919 23.9646 3.48467Z"
            fill="#B71334" />
        <path fill-rule="evenodd" clip-rule="evenodd"
            d="M7.75102 9.45801C7.75102 10.8802 7.75102 12.3025 7.75102 13.7247C5.261 13.7716 2.7958 13.7242 0.355469 13.5825C2.77325 13.5825 5.19102 13.5825 7.6088 13.5825C7.56228 12.1819 7.60968 10.8071 7.75102 9.45801Z"
            fill="#C03450" />
        <path fill-rule="evenodd" clip-rule="evenodd"
            d="M22.8267 18.2755C25.6464 18.1337 28.4908 18.0863 31.36 18.1332C31.3981 18.3607 31.3506 18.5502 31.2178 18.7021C31.2178 18.5599 31.2178 18.4177 31.2178 18.2755C28.4207 18.2755 25.6237 18.2755 22.8267 18.2755Z"
            fill="#E4AFB9" />
        <path fill-rule="evenodd" clip-rule="evenodd"
            d="M12.3021 22.6843C12.4435 21.2878 12.4909 19.8656 12.4444 18.4176C14.3406 18.4176 16.237 18.4176 18.1332 18.4176C18.0862 21.7607 18.1335 25.0792 18.2755 28.3732C17.9906 30.0092 17.0425 31.0283 15.431 31.4309C8.22753 31.0622 3.36826 27.4829 0.853247 20.6932C0.664189 19.8899 0.498263 19.0839 0.355469 18.2754C2.82065 18.2754 5.28584 18.2754 7.75102 18.2754C7.72734 19.8405 7.75105 21.405 7.82214 22.9687C8.3539 24.3132 9.32575 24.8109 10.7377 24.4621C11.5453 24.1058 12.0667 23.5133 12.3021 22.6843Z"
            fill="#B71234" />
        <path fill-rule="evenodd" clip-rule="evenodd"
            d="M18.2756 28.3732C18.1336 25.0792 18.0863 21.7607 18.1334 18.4176C16.2371 18.4176 14.3407 18.4176 12.4445 18.4176C12.491 19.8656 12.4436 21.2878 12.3022 22.6843C12.3022 21.2147 12.3022 19.745 12.3022 18.2754C14.2934 18.2754 16.2845 18.2754 18.2756 18.2754C18.2756 21.6414 18.2756 25.0072 18.2756 28.3732Z"
            fill="#B30022" />
        <path fill-rule="evenodd" clip-rule="evenodd"
            d="M22.8268 18.2754C25.6239 18.2754 28.4208 18.2754 31.2179 18.2754C31.2179 18.4176 31.2179 18.5598 31.2179 18.7021C30.5344 22.464 28.733 25.5693 25.8134 28.0176C24.5481 28.8536 23.5763 28.5929 22.8979 27.2354C22.8268 24.2492 22.803 21.2625 22.8268 18.2754Z"
            fill="#B71233" />
    </g>
    <defs>
        <clipPath id="clip0_3546_163">
            <rect width="32" height="32" fill="white" />
        </clipPath>
    </defs>
</svg>