<svg width="32" height="32" viewBox="0 0 32 32" fill="none" xmlns="http://www.w3.org/2000/svg">
    <g clip-path="url(#clip0_4541_168)">
        <path opacity="0.01" fill-rule="evenodd" clip-rule="evenodd"
            d="M19.6667 4.33339C20.4151 3.49511 20.8596 3.71733 21.0001 5.00006C20.5556 4.77784 20.1112 4.55561 19.6667 4.33339Z"
            fill="#FFE5DF" />
        <path fill-rule="evenodd" clip-rule="evenodd"
            d="M19.6666 4.33325C20.1111 4.55547 20.5555 4.7777 20.9999 4.99992C22.6763 6.121 24.0096 7.56545 24.9999 9.33325C21.2153 12.8957 17.6597 16.6735 14.3333 20.6666C14.9015 21.8189 15.5681 21.9299 16.3333 20.9999C16.1451 21.8517 15.7007 22.5184 14.9999 22.9999C14.9999 23.2221 14.9999 23.4444 14.9999 23.6666C13.8888 25.2221 12.5555 26.5555 10.9999 27.6666C10.5555 26.7777 9.88879 26.1111 8.99992 25.6666C8.11105 25.2221 7.44439 24.5555 6.99992 23.6666C6.5934 23.0726 6.37117 22.4059 6.33325 21.6666C9.97639 18.3575 13.5319 14.9131 16.9999 11.3333C16.6293 11.0782 16.4071 10.7449 16.3333 10.3333C15.7343 9.89479 15.0677 9.45039 14.3333 8.99992C15.0677 8.54945 15.7343 8.10505 16.3333 7.66659C17.2221 6.33325 18.3333 5.22214 19.6666 4.33325Z"
            fill="#FB5F34" />
        <path fill-rule="evenodd" clip-rule="evenodd"
            d="M11.6667 4.33325C13.0489 5.71977 14.6045 6.83085 16.3334 7.66659C15.7345 8.10505 15.0678 8.54945 14.3334 8.99992C15.0678 9.45038 15.7345 9.89478 16.3334 10.3333C12.1616 13.6115 8.16161 17.1671 4.33341 20.9999C2.76485 19.6515 1.20929 18.3181 -0.333252 16.9999C-0.333252 16.3333 -0.333252 15.6666 -0.333252 14.9999C1.88897 12.9999 4.11119 10.9999 6.33341 8.99992C8.11121 7.44439 9.88895 5.88881 11.6667 4.33325Z"
            fill="#FC663C" />
        <path opacity="0.278" fill-rule="evenodd" clip-rule="evenodd"
            d="M11.6666 4.33322C9.88879 5.88877 8.11105 7.44435 6.33325 8.99988C7.25479 7.07035 8.58812 5.40368 10.3333 3.99988C10.9578 3.53876 11.4022 3.64987 11.6666 4.33322Z"
            fill="#FFCEC0" />
        <path fill-rule="evenodd" clip-rule="evenodd"
            d="M31.6667 15C31.6667 15.6667 31.6667 16.3333 31.6667 17C31.1741 16.9127 30.7296 17.0238 30.3333 17.3333C27.4668 20.8675 24.3557 24.2008 21 27.3333C19.7651 27.8484 18.8762 27.5151 18.3333 26.3333C17.8889 24.5555 16.7778 23.4445 15 23C15.7007 22.5185 16.1452 21.8518 16.3333 21C19.3089 17.6903 22.4201 14.4681 25.6667 11.3334C26.3333 10.8889 27 10.8889 27.6667 11.3334C28.9135 12.6931 30.2468 13.9153 31.6667 15Z"
            fill="#FC6238" />
        <path opacity="0.024" fill-rule="evenodd" clip-rule="evenodd"
            d="M6.33339 21.6667C6.37131 22.4061 6.59353 23.0727 7.00005 23.6667C5.63217 23.2983 5.40995 22.6316 6.33339 21.6667Z"
            fill="#FFE5DF" />
        <path opacity="0.304" fill-rule="evenodd" clip-rule="evenodd"
            d="M15 23.6667C15 23.4445 15 23.2222 15 23C16.7778 23.4445 17.8889 24.5555 18.3333 26.3333C17.2222 25.4445 16.1111 24.5555 15 23.6667Z"
            fill="#FFB6A2" />
        <path opacity="0.01" fill-rule="evenodd" clip-rule="evenodd"
            d="M9 25.6667C9.88887 26.1112 10.5555 26.7779 11 27.6667C9.66667 27.6667 9 27.0001 9 25.6667Z"
            fill="#FFD6CB" />
    </g>
    <defs>
        <clipPath id="clip0_4541_168">
            <rect width="32" height="32" fill="white" />
        </clipPath>
    </defs>
</svg>