<svg width="32" height="32" viewBox="0 0 32 32" fill="none" xmlns="http://www.w3.org/2000/svg">
    <path fill-rule="evenodd" clip-rule="evenodd"
        d="M0 0C10.6667 0 21.3333 0 32 0C32 10.6667 32 21.3333 32 32C21.3333 32 10.6667 32 0 32C0 21.3333 0 10.6667 0 0Z"
        fill="#FEFEFE" />
    <path fill-rule="evenodd" clip-rule="evenodd"
        d="M8.03786 1.26138C10.8951 0.87683 13.359 1.65527 15.4294 3.59672C15.6114 2.96099 15.6979 2.31228 15.6887 1.6506C17.7635 1.6506 19.8383 1.6506 21.9132 1.6506C21.9348 8.74327 21.9132 15.8357 21.8483 22.9281C21.1402 26.0587 19.303 28.2428 16.3371 29.48C11.4948 31.2144 6.69678 31.1063 1.9431 29.1557C1.89988 28.9394 1.85664 28.7232 1.81342 28.507C1.98646 26.8626 2.15937 25.2192 2.33213 23.5768C5.88852 25.0302 9.51944 25.2248 13.2249 24.1606C14.229 23.6325 14.899 22.8323 15.2349 21.7604C15.3214 21.2415 15.3214 20.7225 15.2349 20.2035C13.5314 21.6656 11.5431 22.3575 9.26978 22.2794C5.42538 22.1735 2.65897 20.4004 0.970531 16.96C-0.32351 13.4935 -0.32351 10.0337 0.970531 6.58075C2.42685 3.58569 4.78262 1.81265 8.03786 1.26138Z"
        fill="#253528" />
    <path fill-rule="evenodd" clip-rule="evenodd"
        d="M10.1126 7.22934C13.6285 7.09286 15.3791 8.77949 15.3644 12.2892C15.0089 14.8504 13.5392 16.1912 10.9555 16.3112C8.77925 16.2537 7.39605 15.1725 6.80583 13.0677C6.17211 10.0943 7.27435 8.14817 10.1126 7.22934Z"
        fill="#FCFCFC" />
    <path fill-rule="evenodd" clip-rule="evenodd"
        d="M26.9705 7.74805C30.6109 7.82291 32.2751 9.68261 31.963 13.3269C31.4783 15.7797 29.987 17.0337 27.4892 17.0894C24.8393 16.6629 23.4993 15.0844 23.4692 12.3538C23.5323 9.94975 24.6993 8.4144 26.9705 7.74805Z"
        fill="#68CC9A" />
</svg>