<svg width="32" height="32" viewBox="0 0 32 32" fill="none" xmlns="http://www.w3.org/2000/svg">
<g clip-path="url(#clip0)">
<path fill-rule="evenodd" clip-rule="evenodd" d="M28.8723 21.9058H18.3241C18.2056 21.9058 17.9686 21.9058 17.8501 22.0243L9.90932 28.3058C9.7908 28.4243 9.7908 28.5428 9.90932 28.6613C9.90932 28.7798 10.0278 28.7798 10.1464 28.7798H28.9908C30.8871 28.7798 32.5464 27.1206 32.4278 25.1058C32.3093 23.2095 30.6501 21.9058 28.8723 21.9058Z" fill="#00C9DB"/>
<mask id="mask0" mask-type="alpha" maskUnits="userSpaceOnUse" x="1" y="2" width="20" height="27">
<path fill-rule="evenodd" clip-rule="evenodd" d="M1.18518 2.37036H20.2667V28.8H1.18518V2.37036Z" fill="white"/>
</mask>
<g mask="url(#mask0)">
<path fill-rule="evenodd" clip-rule="evenodd" d="M20.2666 15.2889C20.1481 14.3407 19.674 13.3926 18.9629 12.8L6.75553 3.08145C5.21479 1.89627 3.08146 2.13331 1.89627 3.67405C0.711089 5.21479 0.948126 7.34812 2.48887 8.53331L11.3778 15.6444L2.48887 22.7555C0.948126 23.9407 0.711089 26.074 1.89627 27.6148C3.08146 29.1555 5.21479 29.3926 6.75553 28.2074L18.9629 18.2518C19.7926 17.5407 20.2666 16.5926 20.2666 15.5259V15.2889Z" fill="#0D55FF"/>
</g>
<path fill-rule="evenodd" clip-rule="evenodd" d="M32.4279 25.3428C32.4279 27.2391 30.8872 28.7798 28.9909 28.7798C27.0946 28.7798 25.5538 27.2391 25.5538 25.3428C25.5538 23.4465 27.0946 21.9058 28.9909 21.9058C30.8872 21.9058 32.4279 23.4465 32.4279 25.3428Z" fill="#7000F2"/>
</g>
<defs>
<clipPath id="clip0">
<rect width="32" height="32" fill="white"/>
</clipPath>
</defs>
</svg>
