<svg width="32" height="32" viewBox="0 0 32 32" fill="none" xmlns="http://www.w3.org/2000/svg">
    <rect width="32" height="32" fill="#4F5EE2" />
    <path
        d="M24 16C24 15.3698 23.9866 14.7783 23.9596 14.2314H15.8181V18.0421H19.6192C19.4507 20.6639 18.925 22.4652 18.059 23.3957C17.3176 24.1892 16.492 24.1892 16 24.1892C14.8981 24.1892 12.3202 24.1892 12.3202 16C12.3202 7.81076 14.8981 7.81076 16 7.81076C16.856 7.81076 18.6285 7.81076 19.3564 11.7285H23.7204C23.4912 10.2096 23.1205 8.95814 22.5813 7.9029C20.9436 4.67774 18.0994 4 16 4C13.9006 4 11.0531 4.67774 9.41871 7.9029C8.45156 9.80828 8 12.3795 8 16C8 19.6206 8.45156 22.1917 9.41871 24.0971C11.0565 27.3222 13.9006 28 16 28C18.0994 28 20.947 27.3222 22.5813 24.0971C23.5485 22.1947 24 19.6206 24 16Z"
        fill="#FAFAFA" />
</svg>