<svg width="32" height="32" viewBox="0 0 33 32" fill="none" xmlns="http://www.w3.org/2000/svg">
    <path
        d="M25.4204 11.2378H23.7163C23.0914 11.2378 22.5234 11.7482 22.4666 12.3721V20.312C22.4666 20.9925 21.8985 21.5597 21.2168 21.5597H12.696C12.0144 21.5597 11.4463 20.9925 11.4463 20.312V11.7482C11.4463 11.0677 12.0144 10.5005 12.696 10.5005H19.5695H21.2168C21.8985 10.5005 22.4666 9.93339 22.4666 9.25282V7.04099V1.93677C22.4666 1.36963 22.0689 0.85921 21.5577 0.68907C19.9103 0.178648 18.2061 -0.0482066 16.3884 0.00850703C8.03797 0.348789 1.27811 7.15442 0.994083 15.4913C0.710056 24.7356 8.26519 32.2218 17.4677 31.995C25.8181 31.7681 32.6915 24.9625 32.9756 16.6256C33.0324 15.0943 32.862 13.6765 32.5211 12.2586C32.3507 11.6915 31.8395 11.2378 31.2146 11.2378H25.4204Z"
        fill="url(#paint0_linear_3224_295)" />
    <defs>
        <linearGradient id="paint0_linear_3224_295" x1="7.14329" y1="27.6361" x2="26.6542"
            y2="4.54043" gradientUnits="userSpaceOnUse">
            <stop stop-color="#FF8600" />
            <stop offset="1" stop-color="#FFC100" />
        </linearGradient>
    </defs>
</svg>