<svg width="32" height="32" viewBox="0 0 32 32" fill="none" xmlns="http://www.w3.org/2000/svg">
    <g clip-path="url(#clip0_2315_316)">
        <path fill-rule="evenodd" clip-rule="evenodd"
            d="M-0.0783691 -0.0830078C10.5883 -0.0830078 21.255 -0.0830078 31.9216 -0.0830078C31.9216 10.5837 31.9216 21.2503 31.9216 31.917C21.255 31.917 10.5883 31.917 -0.0783691 31.917C-0.0783691 21.2503 -0.0783691 10.5837 -0.0783691 -0.0830078Z"
            fill="#FFFDFD" />
        <path fill-rule="evenodd" clip-rule="evenodd"
            d="M14.9805 2.25C15.6079 2.25 16.2354 2.25 16.8628 2.25C16.8628 4.19445 16.8628 6.13888 16.8628 8.08333C16.2354 8.08333 15.6079 8.08333 14.9805 8.08333C14.9805 6.13888 14.9805 4.19445 14.9805 2.25Z"
            fill="#FF4317" />
        <path fill-rule="evenodd" clip-rule="evenodd"
            d="M11.5293 2.91699C11.8291 2.92938 12.0121 3.09604 12.0783 3.41699C12.644 5.01548 13.2453 6.59881 13.8823 8.16699C13.4552 8.54213 12.9584 8.79213 12.3921 8.91699C12.2438 8.84943 12.1392 8.73833 12.0783 8.58366C11.5389 6.97554 10.9376 5.39221 10.2744 3.83366C10.6711 3.48488 11.0894 3.17933 11.5293 2.91699Z"
            fill="#FF4114" />
        <path fill-rule="evenodd" clip-rule="evenodd"
            d="M19.9999 2.91699C20.591 3.14751 21.1662 3.42529 21.7254 3.75033C20.9063 5.49053 20.1743 7.26831 19.5293 9.08366C18.9627 8.89374 18.4398 8.61598 17.9607 8.25033C18.6878 6.49389 19.3676 4.71611 19.9999 2.91699Z"
            fill="#FF4216" />
        <path fill-rule="evenodd" clip-rule="evenodd"
            d="M7.29402 5.58301C8.69647 6.76737 9.97752 8.10071 11.1372 9.58301C10.9971 10.0724 10.7095 10.489 10.2744 10.833C10.1176 10.9441 9.96069 10.9441 9.80383 10.833C8.61887 9.57399 7.4424 8.32399 6.27441 7.08301C6.62154 6.62436 6.96141 6.12436 7.29402 5.58301Z"
            fill="#FF451A" />
        <path fill-rule="evenodd" clip-rule="evenodd"
            d="M24.2352 5.58301C24.742 5.86966 25.1864 6.25854 25.5686 6.74967C25.6732 6.86079 25.6732 6.97189 25.5686 7.08301C24.3921 8.33301 23.2156 9.58301 22.0391 10.833C21.8823 10.9441 21.7254 10.9441 21.5686 10.833C21.1334 10.489 20.8459 10.0724 20.7058 9.58301C21.9753 8.31827 23.1518 6.98494 24.2352 5.58301Z"
            fill="#FF4215" />
        <path fill-rule="evenodd" clip-rule="evenodd"
            d="M4.31373 9.91699C6.0926 10.5415 7.81809 11.2915 9.4902 12.167C9.26647 12.6292 9.05733 13.1014 8.86275 13.5837C8.67091 13.7693 8.46176 13.7971 8.2353 13.667C6.81571 13.0081 5.40395 12.3692 4.00001 11.7503C3.85649 11.1038 3.96107 10.4927 4.31373 9.91699Z"
            fill="#FF4215" />
        <path fill-rule="evenodd" clip-rule="evenodd"
            d="M17.804 15.0838C21.4893 14.9175 25.2018 14.8619 28.9412 14.9171C28.9909 15.6174 28.9385 16.284 28.7843 16.9171C28.7843 16.306 28.7843 15.6949 28.7843 15.0838C25.1243 15.0838 21.464 15.0838 17.804 15.0838Z"
            fill="#FF9784" />
        <path fill-rule="evenodd" clip-rule="evenodd"
            d="M3.05884 14.917C4.88891 14.917 6.71896 14.917 8.54903 14.917C8.54903 15.5837 8.54903 16.2503 8.54903 16.917C6.71896 16.917 4.88891 16.917 3.05884 16.917C3.05884 16.2503 3.05884 15.5837 3.05884 14.917Z"
            fill="#FF451A" />
        <path fill-rule="evenodd" clip-rule="evenodd"
            d="M17.804 15.083C21.464 15.083 25.1243 15.083 28.7843 15.083C28.7843 15.6941 28.7843 16.3052 28.7843 16.9163C25.1243 16.9163 21.464 16.9163 17.804 16.9163C17.804 16.3052 17.804 15.6941 17.804 15.083Z"
            fill="#FF3D10" />
        <path fill-rule="evenodd" clip-rule="evenodd"
            d="M8.54893 18.083C8.9328 18.5605 9.24653 19.116 9.49011 19.7497C7.82167 20.5245 6.14847 21.3023 4.4705 22.083C4.02694 21.5028 3.87007 20.864 3.99991 20.1663C5.53139 19.4858 7.04774 18.7915 8.54893 18.083Z"
            fill="#FF4115" />
        <path fill-rule="evenodd" clip-rule="evenodd"
            d="M23.1372 18.083C24.7946 18.8803 26.4678 19.6303 28.1568 20.333C27.9704 20.955 27.7089 21.5383 27.3725 22.083C25.7974 21.4048 24.2288 20.7103 22.6666 19.9997C22.6371 19.3378 22.794 18.699 23.1372 18.083Z"
            fill="#FF4114" />
        <path fill-rule="evenodd" clip-rule="evenodd"
            d="M9.96075 20.917C10.6269 21.2053 11.0191 21.7053 11.1372 22.417C9.96075 23.667 8.78428 24.917 7.60781 26.167C7.06739 25.9325 6.5968 25.5435 6.19604 25.0003C7.4827 23.6612 8.7376 22.3 9.96075 20.917Z"
            fill="#FF4012" />
        <path fill-rule="evenodd" clip-rule="evenodd"
            d="M21.7255 20.917C23.0534 22.2443 24.3605 23.6055 25.6471 25.0003C25.2463 25.5435 24.7757 25.9325 24.2353 26.167C23.0589 24.917 21.8824 23.667 20.7059 22.417C20.6013 22.3058 20.6013 22.1948 20.7059 22.0837C21.078 21.7165 21.4179 21.3275 21.7255 20.917Z"
            fill="#FF3F11" />
        <path fill-rule="evenodd" clip-rule="evenodd"
            d="M12.1568 22.917C12.7978 23.0635 13.373 23.3413 13.8823 23.7503C13.1816 25.4047 12.5281 27.0713 11.9215 28.7503C11.8334 28.8373 11.7288 28.8928 11.6077 28.917C11.1835 28.6772 10.739 28.5105 10.2744 28.417C10.8414 26.5537 11.4688 24.7203 12.1568 22.917Z"
            fill="#FF4114" />
        <path fill-rule="evenodd" clip-rule="evenodd"
            d="M19.2156 22.917C19.6758 23.0485 19.9635 23.3818 20.0783 23.917C20.5756 25.2803 21.0724 26.6415 21.5685 28.0003C21.5163 28.1392 21.4639 28.2782 21.4117 28.417C21.0132 28.5673 20.6211 28.734 20.2352 28.917C20.1141 28.8928 20.0095 28.8373 19.9215 28.7503C19.2691 27.0965 18.6156 25.4298 17.9607 23.7503C18.3781 23.4727 18.7965 23.1948 19.2156 22.917Z"
            fill="#FF4316" />
        <path fill-rule="evenodd" clip-rule="evenodd"
            d="M16.8628 23.9164C16.2876 23.9164 15.7125 23.9164 15.1373 23.9164C15.1373 25.8053 15.1373 27.6943 15.1373 29.5831C15.7125 29.5831 16.2876 29.5831 16.8628 29.5831C16.2671 29.7469 15.6395 29.8026 14.9805 29.7498C14.9805 27.7498 14.9805 25.7498 14.9805 23.7498C15.6395 23.6969 16.2671 23.7526 16.8628 23.9164Z"
            fill="#FF8068" />
        <path fill-rule="evenodd" clip-rule="evenodd"
            d="M16.8627 23.917C16.8627 25.8058 16.8627 27.6948 16.8627 29.5837C16.2875 29.5837 15.7124 29.5837 15.1372 29.5837C15.1372 27.6948 15.1372 25.8058 15.1372 23.917C15.7124 23.917 16.2875 23.917 16.8627 23.917Z"
            fill="#FF3E0F" />
    </g>
    <defs>
        <clipPath id="clip0_2315_316">
            <rect width="32" height="32" fill="white" />
        </clipPath>
    </defs>
</svg>