<svg width="32" height="32" viewBox="0 0 33 33" fill="none" xmlns="http://www.w3.org/2000/svg">
    <path
        d="M27.5442 7.16709C27.3377 7.16709 27.2345 7.16709 27.028 7.16709C26.2021 7.06292 25.5827 6.3337 25.4795 5.5003C25.4795 5.29195 25.4795 5.18778 25.4795 5.0836C25.4795 4.87525 25.3763 4.66691 25.273 4.45856C24.4472 3.83351 23.6213 3.41681 22.7954 3.00011C22.6922 3.00011 22.5889 3.00011 22.5889 3.10429C22.176 3.72934 21.3501 4.04186 20.5242 3.72934C19.8016 3.52099 19.2854 2.79176 19.2854 1.95837C19.2854 1.85419 19.1822 1.75002 19.0789 1.75002C14.0204 0.812449 8.54898 2.37507 4.72928 6.43787C-1.05187 12.7925 -0.742166 22.4807 5.55517 28.3145C6.38104 29.1479 7.31016 29.773 8.23927 30.2938C9.58133 29.1479 10.9234 28.1062 12.3687 26.9603C12.3687 26.6477 12.4719 26.4394 12.5751 26.231C12.9881 25.606 13.401 25.0851 13.814 24.5642C15.9819 21.7515 18.4595 19.1472 21.0404 16.647C22.2792 15.3969 23.6213 14.3551 24.8601 13.105C25.9957 11.9591 27.1313 10.8132 28.4733 9.87563C28.5766 9.45893 28.8863 9.04224 29.2992 8.93806C28.9895 8.41719 28.6798 8.00049 28.2669 7.47962C28.1636 7.27127 27.8539 7.16709 27.5442 7.16709Z"
        fill="white" />
    <path
        d="M31.3639 14.0427C31.2606 13.7302 31.0541 13.4176 30.6412 13.4176C30.538 13.4176 30.3315 13.3135 30.3315 13.3135C29.7121 13.0009 29.2992 12.3759 29.2992 11.6467C29.2992 11.23 29.5056 10.8133 29.7121 10.5008C29.9186 10.1882 29.9186 9.87571 29.8153 9.56319C29.4024 8.83397 28.9894 8.20892 28.4733 7.58387C28.2668 7.37552 27.9571 7.16717 27.6474 7.27135C27.5442 7.27135 27.5442 7.27135 27.4409 7.27135C27.2345 7.27135 27.1312 7.27135 26.9247 7.16717C26.5118 7.063 26.0989 7.27135 25.9956 7.68804L25.3762 9.87571C25.3762 9.97988 25.1698 10.2924 24.9633 10.3966H24.86C24.5503 10.2924 24.3439 10.3966 24.1374 10.7091C22.0727 14.5636 18.3563 18.8347 14.9495 22.0641C12.4719 24.356 9.16834 26.6478 6.48423 28.3146C6.17453 28.5229 6.17453 28.8355 6.48423 29.0438C12.7816 33.94 22.1759 33.7317 27.6474 27.7937C31.0542 24.0434 32.293 18.8347 31.3639 14.0427Z"
        fill="black" />
    <path
        d="M22.5891 1.95844C22.5891 2.79184 21.9697 3.41689 21.1438 3.41689C20.3179 3.41689 19.6985 2.79184 19.6985 1.95844C19.6985 1.12505 20.3179 0.5 21.1438 0.5C21.9697 0.5 22.5891 1.12505 22.5891 1.95844Z"
        fill="#81C241" />
    <path
        d="M28.8862 5.29243C28.8862 6.12582 28.2668 6.75087 27.4409 6.75087C26.615 6.75087 25.9956 6.12582 25.9956 5.29243C25.9956 4.45903 26.615 3.83398 27.4409 3.83398C28.1635 3.83398 28.8862 4.56321 28.8862 5.29243Z"
        fill="#44B8E9" />
    <path
        d="M32.6027 11.5429C32.6027 12.3763 31.9833 13.0014 31.1574 13.0014C30.3316 13.0014 29.7122 12.3763 29.7122 11.5429C29.7122 10.7095 30.3316 10.0845 31.1574 10.0845C31.9833 10.0845 32.6027 10.8137 32.6027 11.5429Z"
        fill="#F79720" />
    <path
        d="M5.03882 26.7517C5.03882 26.7517 7.10352 25.2933 8.2391 24.6682V19.9804C8.2391 19.5637 7.82616 19.147 7.41322 19.147H5.8647C5.45176 19.147 5.03882 19.5637 5.03882 19.9804V26.335"
        fill="#81C241" />
    <path
        d="M12.1624 22.3771C12.1624 22.3771 13.8141 20.6061 14.9497 19.7727C15.1562 19.5644 15.3626 19.2518 15.3626 18.9393V13.2097C15.3626 12.6888 14.9497 12.168 14.3303 12.168H13.1947C12.6785 12.168 12.1624 12.5847 12.1624 13.2097V22.0645"
        fill="#81C241" />
    <path
        d="M18.9756 15.8133C18.9756 15.8133 21.5565 12.4797 22.1759 11.5421V8.52107C22.1759 8.00019 21.7629 7.5835 21.2468 7.5835H19.9047C19.3885 7.5835 18.9756 8.00019 18.9756 8.52107V15.5008"
        fill="#81C241" />
    <path
        d="M25.5829 6.54173L22.7956 8.3127C22.6923 8.41687 22.6923 8.62522 22.8988 8.62522H23.3117C23.415 8.62522 23.5182 8.62522 23.6214 8.7294C23.7247 8.7294 23.7247 8.83357 23.7247 8.93775C22.2794 11.0212 17.6338 17.3759 9.58148 23.5222C8.34267 24.4597 6.89738 25.3973 5.34886 26.3349C5.14239 26.4391 4.93592 26.4391 4.83268 26.2307C4.62621 26.0224 4.41974 25.814 4.41974 25.7098C2.56151 23.3138 1.6324 20.3969 1.52916 17.3759C1.42593 13.5214 2.76798 9.97949 5.34886 7.06261C8.03296 4.14572 11.4397 2.37475 15.3626 2.27058C15.7756 2.27058 16.1885 2.27058 16.6015 2.27058C16.8079 2.27058 16.9112 2.1664 17.0144 2.06223C17.0144 1.95805 17.1176 1.85388 17.2209 1.74971C17.3241 1.54136 17.2209 1.33301 17.0144 1.33301C16.6015 1.33301 16.1885 1.33301 15.7756 1.33301C11.6462 1.54136 7.72326 3.31232 4.93591 6.33338C2.04534 9.45862 0.600047 13.4172 0.806517 17.5842C0.909752 20.9178 2.14857 24.043 4.21327 26.6474C4.41974 26.8558 4.3165 27.1683 4.11003 27.2725C3.18092 27.7933 2.25181 28.3142 1.32269 28.7309C0.909752 28.9393 0.703282 29.4601 1.01299 29.8768C1.01299 29.8768 1.01299 29.981 1.11622 29.981C1.32269 30.3977 1.83887 30.5019 2.14857 30.2935C4.21327 29.1476 10.7171 25.5015 14.9497 21.5429C18.6662 18.0009 22.6923 13.3131 24.5506 9.35444C24.6538 9.25027 24.757 9.25027 24.8603 9.35444C24.8603 9.45862 24.9635 9.45862 24.9635 9.56279L25.0667 9.87532C25.17 10.0837 25.3764 9.97949 25.3764 9.87532L26.2023 6.75008C25.8926 6.54173 25.6861 6.43756 25.5829 6.54173Z"
        fill="black" />
    <path
        d="M14.8465 22.1685C12.4721 24.3562 9.4783 26.5439 6.79419 28.1065C11.6462 30.5025 16.6015 29.4607 18.0468 28.6273C18.2533 28.5232 18.15 28.2106 17.9436 28.1065C17.0144 28.0023 15.7756 27.6898 15.5692 26.7522C15.3627 25.2938 17.1177 26.4397 19.8018 25.8146C22.4859 25.1896 23.6215 21.4393 24.1377 18.6266C24.7571 14.9805 24.3441 11.9594 24.0344 10.501C22.1762 14.3554 18.3565 18.8349 14.8465 22.1685Z"
        fill="#81C241" />
</svg>