<svg width="32" height="32" viewBox="0 0 32 32" fill="none" xmlns="http://www.w3.org/2000/svg">
    <g clip-path="url(#clip0_3181_132)">
        <path fill-rule="evenodd" clip-rule="evenodd"
            d="M-0.0710449 -0.0712891C10.5956 -0.0712891 21.2623 -0.0712891 31.929 -0.0712891C31.929 10.5954 31.929 21.262 31.929 31.9287C21.2623 31.9287 10.5956 31.9287 -0.0710449 31.9287C-0.0710449 21.262 -0.0710449 10.5954 -0.0710449 -0.0712891Z"
            fill="#FEFEFE" />
        <path fill-rule="evenodd" clip-rule="evenodd"
            d="M19.5555 13.1553C18.2022 13.2018 16.8749 13.1544 15.5732 13.0131C16.9381 10.518 18.4079 8.10026 19.9821 5.75977C20.7008 5.95317 21.3644 6.26133 21.9732 6.68421C22.3543 6.87564 22.6387 7.16009 22.8266 7.53754C21.7872 9.45177 20.6968 11.3244 19.5555 13.1553Z"
            fill="#09B888" />
        <path fill-rule="evenodd" clip-rule="evenodd"
            d="M11.7333 5.61808C11.8749 5.60588 11.9935 5.6533 12.0889 5.76031C13.1671 7.67999 14.2812 9.57629 15.4311 11.4492C15.0993 12.0181 14.7673 12.587 14.4355 13.1559C13.7244 13.3455 13.0133 13.3455 12.3022 13.1559C11.2072 11.3729 10.1405 9.57145 9.10219 7.75142C9.01256 7.4096 9.13107 7.14886 9.45774 6.9692C10.2488 6.55092 11.0073 6.10054 11.7333 5.61808Z"
            fill="#10B989" />
        <path fill-rule="evenodd" clip-rule="evenodd"
            d="M15.5734 13.0137C16.875 13.155 18.2024 13.2024 19.5556 13.1559C18.2033 13.344 16.8285 13.344 15.4312 13.1559C15.4488 13.0696 15.4961 13.0222 15.5734 13.0137Z"
            fill="#09B888" />
        <path fill-rule="evenodd" clip-rule="evenodd"
            d="M20.1244 14.1515C22.3546 14.1042 24.5828 14.1516 26.8088 14.2937C26.9984 15.3842 26.9984 16.4744 26.8088 17.5649C24.2488 17.6597 21.6888 17.7544 19.1288 17.8493C20.4088 20.03 21.6888 22.2108 22.9688 24.3915C22.0801 25.2042 21.0609 25.8204 19.9111 26.2404C18.7228 24.3378 17.6088 22.394 16.5688 20.4093C17.6815 18.2785 18.8666 16.1927 20.1244 14.1515Z"
            fill="#0BB888" />
        <path fill-rule="evenodd" clip-rule="evenodd"
            d="M5.049 14.1515C9.69517 14.1278 14.3411 14.1515 18.9868 14.2226C16.6222 18.2169 14.2755 22.2227 11.9468 26.2404C10.8181 25.8548 9.84623 25.2385 9.03122 24.3915C10.2574 22.152 11.5374 19.9476 12.8712 17.7781C10.2642 17.707 7.65685 17.6833 5.049 17.707C4.86453 16.5209 4.86453 15.3356 5.049 14.1515Z"
            fill="#4B2BA6" />
    </g>
    <defs>
        <clipPath id="clip0_3181_132">
            <rect width="32" height="32" rx="16" fill="white" />
        </clipPath>
    </defs>
</svg>