<svg width="32" height="32" viewBox="0 0 32 32" fill="none" xmlns="http://www.w3.org/2000/svg">
<g clip-path="url(#clip0_6157_9)">
<path d="M11.5927 1.17845C5.39566 3.17205 1.60267 7.26419 0.480801 13.1925L0 15.9207H3.84641H7.69282L8.33389 13.8745C9.13523 11.094 11.9666 8.73316 15.0117 8.31346C17.0952 7.99867 17.8431 8.15607 19.8731 9.31027C21.2087 10.0972 22.2771 10.9366 22.2771 11.2514C22.2771 11.5662 23.7195 10.6743 25.4825 9.31027C27.5125 7.73636 28.5275 6.63463 28.2604 6.21493C27.6728 5.21812 24.8948 3.06712 22.8114 2.01785C20.7279 0.968589 13.8364 0.443956 11.5927 1.17845Z" fill="#FE3663"/>
<path d="M18.5375 19.0684C19.4457 20.2227 20.4608 21.272 20.7279 21.4294C21.5826 22.0064 21.2621 22.6884 19.606 23.5279C17.4691 24.6295 14.3706 24.5246 12.0734 23.318L10.1502 22.2687L7.58599 24.8394C4.59434 27.8298 4.70118 28.1971 9.29551 30.4005C16.9349 34.0729 26.9783 30.558 30.3439 23.0556C30.8247 21.849 31.4658 20.0128 31.626 18.911L32 16.9699H24.414H16.828L18.5375 19.0684Z" fill="#FE3663"/>
</g>
<defs>
<clipPath id="clip0_6157_9">
<rect width="32" height="32" fill="white"/>
</clipPath>
</defs>
</svg>
