<svg width="32" height="32" viewBox="0 0 32 32" fill="none" xmlns="http://www.w3.org/2000/svg">
<g clip-path="url(#clip0_1777_782)">
<path fill-rule="evenodd" clip-rule="evenodd" d="M-0.0473633 -0.046875C10.6193 -0.046875 21.286 -0.046875 31.9526 -0.046875C31.9526 1.62571 31.9526 3.29829 31.9526 4.97088C31.0031 5.41269 30.0535 5.8545 29.104 6.29632C29.0779 6.07461 28.9988 6.07461 28.8666 6.29632C28.7716 6.17009 28.6767 6.17009 28.5817 6.29632C28.5184 6.2332 28.4551 6.17009 28.3918 6.10697C28.2652 6.2332 28.1386 6.35944 28.012 6.48567C27.8584 6.35774 27.7476 6.19994 27.6796 6.0123C27.6117 6.19994 27.5008 6.35774 27.3473 6.48567C27.2207 6.35944 27.094 6.2332 26.9675 6.10697C26.8567 6.21743 26.7459 6.32788 26.6351 6.43833C26.7012 6.57921 26.6695 6.72122 26.5402 6.86437C26.4835 6.67114 26.4835 6.49756 26.5402 6.34366C26.4611 6.26477 26.3819 6.18586 26.3028 6.10697C26.1762 6.2332 26.0495 6.35944 25.923 6.48567C25.8596 6.42255 25.7964 6.35944 25.7331 6.29632C25.4039 6.57163 25.1191 6.50851 24.8785 6.10697C24.7502 6.25078 24.6077 6.37701 24.4512 6.48567C24.4681 6.34782 24.3889 6.22159 24.2138 6.10697C24.0872 6.2332 23.9605 6.35944 23.8339 6.48567C23.7074 6.35944 23.5807 6.2332 23.4541 6.10697C23.3036 6.18988 23.2087 6.31612 23.1693 6.48567C23.0427 6.35944 22.916 6.2332 22.7894 6.10697C22.6629 6.2332 22.5362 6.35944 22.4096 6.48567C22.3702 6.31612 22.2752 6.18988 22.1247 6.10697C21.9982 6.2332 21.8715 6.35944 21.7449 6.48567C21.6183 6.35944 21.4917 6.2332 21.3651 6.10697C21.19 6.22159 21.1108 6.34782 21.1277 6.48567C20.9711 6.37701 20.8287 6.25078 20.7004 6.10697C20.4598 6.50851 20.1749 6.57163 19.8458 6.29632C19.7825 6.35944 19.7192 6.42255 19.6559 6.48567C19.5293 6.35944 19.4027 6.2332 19.2761 6.10697C19.2127 6.17009 19.1495 6.2332 19.0862 6.29632C18.9912 6.17009 18.8963 6.17009 18.8013 6.29632C18.738 6.2332 18.6747 6.17009 18.6114 6.10697C18.4848 6.2332 18.3581 6.35944 18.2316 6.48567C18.078 6.35774 17.9672 6.19994 17.8992 6.0123C17.8312 6.19994 17.7204 6.35774 17.5669 6.48567C17.4403 6.35944 17.3136 6.2332 17.1871 6.10697C17.0588 6.25078 16.9163 6.37701 16.7598 6.48567C16.7767 6.34782 16.6975 6.22159 16.5224 6.10697C16.3958 6.2332 16.2691 6.35944 16.1425 6.48567C16.0792 6.42255 16.016 6.35944 15.9526 6.29632C15.6235 6.57163 15.3387 6.50851 15.098 6.10697C14.9698 6.25078 14.8273 6.37701 14.6707 6.48567C14.6876 6.34782 14.6084 6.22159 14.4333 6.10697C14.3068 6.2332 14.1801 6.35944 14.0535 6.48567C13.927 6.35944 13.8003 6.2332 13.6737 6.10697C13.5232 6.18988 13.4282 6.31612 13.3888 6.48567C13.2623 6.35944 13.1356 6.2332 13.009 6.10697C12.8824 6.2332 12.7558 6.35944 12.6292 6.48567C12.5898 6.31612 12.4948 6.18988 12.3443 6.10697C12.2178 6.2332 12.0911 6.35944 11.9645 6.48567C11.8379 6.35944 11.7113 6.2332 11.5847 6.10697C11.4096 6.22159 11.3304 6.34782 11.3473 6.48567C11.1907 6.37701 11.0483 6.25078 10.92 6.10697C10.6794 6.50851 10.3945 6.57163 10.0654 6.29632C10.0021 6.35944 9.93882 6.42255 9.87549 6.48567C9.74891 6.35944 9.62224 6.2332 9.49566 6.10697C9.43236 6.17009 9.36906 6.2332 9.30575 6.29632C9.2108 6.17009 9.11584 6.17009 9.02089 6.29632C8.95758 6.2332 8.89428 6.17009 8.83097 6.10697C8.70437 6.2332 8.57776 6.35944 8.45115 6.48567C8.2976 6.35774 8.18682 6.19994 8.11881 6.0123C8.0508 6.19994 7.94002 6.35774 7.78646 6.48567C7.65986 6.35944 7.53325 6.2332 7.40664 6.10697C7.27833 6.25078 7.1359 6.37701 6.97934 6.48567C6.99623 6.34782 6.9171 6.22159 6.74195 6.10697C6.61535 6.2332 6.48874 6.35944 6.36213 6.48567C6.29883 6.42255 6.23553 6.35944 6.17222 6.29632C5.84313 6.57163 5.55827 6.50851 5.31762 6.10697C5.17519 6.24898 5.03276 6.39099 4.89032 6.53301C5.00721 6.64498 5.00721 6.75543 4.89032 6.86437C4.69328 6.66695 4.69328 6.49338 4.89032 6.34366C4.8112 6.26477 4.73206 6.18586 4.65293 6.10697C4.52633 6.2332 4.39972 6.35944 4.27311 6.48567C4.14651 6.35944 4.01989 6.2332 3.89329 6.10697C3.7428 6.18988 3.64785 6.31612 3.60842 6.48567C3.48182 6.35944 3.35521 6.2332 3.2286 6.10697C3.102 6.2332 2.97538 6.35944 2.84878 6.48567C2.80935 6.31612 2.7144 6.18988 2.56391 6.10697C2.43731 6.2332 2.31069 6.35944 2.18409 6.48567C2.05749 6.35944 1.93087 6.2332 1.80427 6.10697C1.62912 6.22159 1.55 6.34782 1.56688 6.48567C1.41033 6.37701 1.26789 6.25078 1.13958 6.10697C0.898935 6.50851 0.614068 6.57163 0.284981 6.29632C0.194495 6.47366 0.0837134 6.50522 -0.0473633 6.39099C-0.0473633 4.24504 -0.0473633 2.09908 -0.0473633 -0.046875Z" fill="#2365C5"/>
<path fill-rule="evenodd" clip-rule="evenodd" d="M31.9526 4.9707C31.9526 6.04368 31.9526 7.11666 31.9526 8.18964C31.7984 8.20288 31.6877 8.13977 31.6203 8.00029C31.4937 8.25276 31.367 8.25276 31.2404 8.00029C31.0189 8.25276 30.7973 8.25276 30.5758 8.00029C30.4492 8.25276 30.3225 8.25276 30.1959 8.00029C29.9744 8.25276 29.7528 8.25276 29.5312 8.00029C29.4047 8.25276 29.278 8.25276 29.1514 8.00029C29.0204 8.24245 28.878 8.24245 28.7241 8.00029C28.6925 8.06341 28.6608 8.12652 28.6292 8.18964C28.5635 8.13991 28.516 8.0768 28.4867 8.00029C28.3602 8.25276 28.2335 8.25276 28.1069 8.00029C27.9759 8.24245 27.8334 8.24245 27.6796 8.00029C27.648 8.06341 27.6163 8.12652 27.5847 8.18964C27.5189 8.13991 27.4715 8.0768 27.4422 8.00029C27.3156 8.25276 27.189 8.25276 27.0624 8.00029C26.9358 8.25276 26.8092 8.25276 26.6826 8.00029C26.5876 8.25276 26.4927 8.25276 26.3977 8.00029C26.2711 8.25276 26.1445 8.25276 26.0179 8.00029C25.8872 8.24878 25.7765 8.24878 25.6855 8.00029C26.7985 7.38233 27.938 6.81428 29.1039 6.29615C30.0535 5.85433 31.0031 5.41252 31.9526 4.9707Z" fill="#306BC6"/>
<path fill-rule="evenodd" clip-rule="evenodd" d="M29.104 6.29574C27.938 6.81388 26.7985 7.38192 25.6856 7.99988C24.4655 8.60512 23.2943 9.20472 22.1722 9.7987C22.2224 9.67117 22.2382 9.54488 22.2197 9.42C21.3034 8.72567 20.2747 8.26807 19.1336 8.04722C16.4189 7.47785 13.9184 7.95122 11.6322 9.46734C9.79962 10.9914 8.72345 12.9322 8.40368 15.2898C8.3113 15.4121 8.21635 15.4121 8.11881 15.2898C7.99405 15.3668 7.88327 15.4615 7.78646 15.5738C7.65986 15.3214 7.53325 15.3214 7.40664 15.5738C7.27352 15.3397 7.13109 15.3397 6.97934 15.5738C6.89146 15.4658 6.81234 15.4658 6.74195 15.5738C6.61535 15.3214 6.48874 15.3214 6.36213 15.5738C6.29883 15.5107 6.23553 15.4476 6.17222 15.3845C6.03359 15.5665 5.87532 15.6296 5.69744 15.5738C5.57084 15.3214 5.44423 15.3214 5.31762 15.5738C5.25432 15.5107 5.19102 15.4476 5.12771 15.3845C4.90615 15.7632 4.68458 15.7632 4.46302 15.3845C4.33642 15.637 4.2098 15.637 4.0832 15.3845C3.92264 15.6336 3.81186 15.602 3.75086 15.2898C3.68986 15.602 3.57907 15.6336 3.41851 15.3845C3.29191 15.637 3.16529 15.637 3.03869 15.3845C2.87813 15.6336 2.76735 15.602 2.70635 15.2898C2.64535 15.602 2.53456 15.6336 2.374 15.3845C2.2474 15.637 2.12078 15.637 1.99418 15.3845C1.93087 15.4476 1.86758 15.5107 1.80427 15.5738C1.62639 15.6296 1.46813 15.5665 1.32949 15.3845C1.20289 15.637 1.07627 15.637 0.949669 15.3845C0.886365 15.4476 0.823062 15.5107 0.759758 15.5738C0.581876 15.6296 0.423618 15.5665 0.284981 15.3845C0.194495 15.5618 0.0837134 15.5934 -0.0473633 15.4792C-0.0473633 12.4496 -0.0473633 9.42 -0.0473633 6.39042C0.0837134 6.50464 0.194495 6.47308 0.284981 6.29574C0.614068 6.57106 0.898935 6.50794 1.13958 6.10639C1.26789 6.2502 1.41033 6.37643 1.56688 6.48509C1.55 6.34725 1.62912 6.22102 1.80427 6.10639C1.93087 6.23262 2.05749 6.35886 2.18409 6.48509C2.31069 6.35886 2.43731 6.23262 2.56391 6.10639C2.7144 6.1893 2.80935 6.31554 2.84878 6.48509C2.97538 6.35886 3.102 6.23262 3.2286 6.10639C3.35521 6.23262 3.48182 6.35886 3.60842 6.48509C3.64785 6.31554 3.7428 6.1893 3.89329 6.10639C4.01989 6.23262 4.14651 6.35886 4.27311 6.48509C4.39972 6.35886 4.52633 6.23262 4.65293 6.10639C4.73206 6.18529 4.8112 6.26419 4.89032 6.34308C4.69328 6.4928 4.69328 6.66637 4.89032 6.86379C5.00721 6.75485 5.00721 6.6444 4.89032 6.53243C5.03276 6.39042 5.17519 6.24841 5.31762 6.10639C5.55827 6.50794 5.84313 6.57106 6.17222 6.29574C6.23553 6.35886 6.29883 6.42197 6.36213 6.48509C6.48874 6.35886 6.61535 6.23262 6.74195 6.10639C6.9171 6.22102 6.99623 6.34725 6.97934 6.48509C7.1359 6.37643 7.27833 6.2502 7.40664 6.10639C7.53325 6.23262 7.65986 6.35886 7.78646 6.48509C7.94002 6.35716 8.0508 6.19936 8.11881 6.01172C8.18682 6.19936 8.2976 6.35716 8.45115 6.48509C8.57776 6.35886 8.70437 6.23262 8.83097 6.10639C8.89428 6.16951 8.95758 6.23262 9.02089 6.29574C9.11584 6.16951 9.2108 6.16951 9.30575 6.29574C9.36906 6.23262 9.43236 6.16951 9.49566 6.10639C9.62224 6.23262 9.74891 6.35886 9.87549 6.48509C9.93882 6.42197 10.0021 6.35886 10.0654 6.29574C10.3945 6.57106 10.6794 6.50794 10.92 6.10639C11.0483 6.2502 11.1907 6.37643 11.3473 6.48509C11.3304 6.34725 11.4096 6.22102 11.5847 6.10639C11.7113 6.23262 11.8379 6.35886 11.9645 6.48509C12.0911 6.35886 12.2178 6.23262 12.3443 6.10639C12.4948 6.1893 12.5898 6.31554 12.6292 6.48509C12.7558 6.35886 12.8824 6.23262 13.009 6.10639C13.1356 6.23262 13.2623 6.35886 13.3888 6.48509C13.4282 6.31554 13.5232 6.1893 13.6737 6.10639C13.8003 6.23262 13.927 6.35886 14.0535 6.48509C14.1801 6.35886 14.3068 6.23262 14.4333 6.10639C14.6084 6.22102 14.6876 6.34725 14.6707 6.48509C14.8273 6.37643 14.9698 6.2502 15.098 6.10639C15.3387 6.50794 15.6235 6.57106 15.9526 6.29574C16.016 6.35886 16.0792 6.42197 16.1425 6.48509C16.2691 6.35886 16.3958 6.23262 16.5224 6.10639C16.6975 6.22102 16.7767 6.34725 16.7598 6.48509C16.9163 6.37643 17.0588 6.2502 17.1871 6.10639C17.3136 6.23262 17.4403 6.35886 17.5669 6.48509C17.7204 6.35716 17.8312 6.19936 17.8992 6.01172C17.9672 6.19936 18.078 6.35716 18.2316 6.48509C18.3581 6.35886 18.4848 6.23262 18.6114 6.10639C18.6747 6.16951 18.738 6.23262 18.8013 6.29574C18.8963 6.16951 18.9912 6.16951 19.0862 6.29574C19.1495 6.23262 19.2127 6.16951 19.2761 6.10639C19.4027 6.23262 19.5293 6.35886 19.6559 6.48509C19.7192 6.42197 19.7825 6.35886 19.8458 6.29574C20.1749 6.57106 20.4598 6.50794 20.7004 6.10639C20.8287 6.2502 20.9711 6.37643 21.1277 6.48509C21.1108 6.34725 21.19 6.22102 21.3651 6.10639C21.4917 6.23262 21.6183 6.35886 21.7449 6.48509C21.8715 6.35886 21.9982 6.23262 22.1247 6.10639C22.2752 6.1893 22.3702 6.31554 22.4096 6.48509C22.5362 6.35886 22.6629 6.23262 22.7894 6.10639C22.916 6.23262 23.0427 6.35886 23.1693 6.48509C23.2087 6.31554 23.3036 6.1893 23.4541 6.10639C23.5807 6.23262 23.7074 6.35886 23.8339 6.48509C23.9605 6.35886 24.0872 6.23262 24.2138 6.10639C24.3889 6.22102 24.4681 6.34725 24.4512 6.48509C24.6077 6.37643 24.7502 6.2502 24.8785 6.10639C25.1191 6.50794 25.4039 6.57106 25.7331 6.29574C25.7964 6.35886 25.8596 6.42197 25.923 6.48509C26.0495 6.35886 26.1762 6.23262 26.3028 6.10639C26.3819 6.18529 26.4611 6.26419 26.5402 6.34308C26.4835 6.49698 26.4835 6.67056 26.5402 6.86379C26.6695 6.72064 26.7012 6.57863 26.6351 6.43775C26.7459 6.3273 26.8567 6.21685 26.9675 6.10639C27.094 6.23262 27.2207 6.35886 27.3473 6.48509C27.5008 6.35716 27.6117 6.19936 27.6796 6.01172C27.7476 6.19936 27.8584 6.35716 28.012 6.48509C28.1386 6.35886 28.2652 6.23262 28.3918 6.10639C28.4551 6.16951 28.5184 6.23262 28.5817 6.29574C28.6767 6.16951 28.7716 6.16951 28.8666 6.29574C28.9988 6.07403 29.0779 6.07403 29.104 6.29574Z" fill="#2461C3"/>
<path fill-rule="evenodd" clip-rule="evenodd" d="M22.172 9.7991C21.846 10.3059 21.5295 10.8266 21.2225 11.3612C20.8857 11.2259 20.5375 11.0839 20.178 10.9352C18.1507 10.045 16.1249 10.0608 14.1008 10.9825C12.1603 12.3477 11.2425 14.2255 11.3471 16.6157C11.3955 17.2739 11.5222 17.9051 11.7269 18.5092C12.2744 20.4883 13.5722 21.6402 15.6201 21.9648C16.9388 22.0829 18.2366 21.9725 19.5133 21.6334C19.5133 20.592 19.5133 19.5506 19.5133 18.5092C19.5133 18.2883 19.5133 18.0673 19.5133 17.8464C18.2788 17.8464 17.0444 17.8464 15.81 17.8464C15.81 17.0575 15.81 16.2685 15.81 15.4796C17.994 15.4796 20.178 15.4796 22.3619 15.4796C22.3619 18.0673 22.3619 20.6552 22.3619 23.2429C19.6104 24.4417 16.7617 24.7414 13.8159 24.1423C11.0234 23.3305 9.28259 21.5158 8.59338 18.6985C8.43158 17.5693 8.36828 16.4332 8.40347 15.2902C8.72325 12.9326 9.79941 10.9918 11.632 9.46774C13.9182 7.95163 16.4187 7.47825 19.1334 8.04763C20.2745 8.26847 21.3032 8.72607 22.2195 9.42041C22.238 9.54528 22.2222 9.67158 22.172 9.7991Z" fill="#FDFDFE"/>
<path fill-rule="evenodd" clip-rule="evenodd" d="M25.6854 8C25.7764 8.24849 25.8871 8.24849 26.0178 8C26.1444 8.25247 26.271 8.25247 26.3976 8C26.4926 8.25247 26.5875 8.25247 26.6825 8C26.8091 8.25247 26.9357 8.25247 27.0623 8C27.1889 8.25247 27.3155 8.25247 27.4421 8C27.4714 8.07651 27.5188 8.13962 27.5846 8.18935C27.6162 8.12623 27.6479 8.06312 27.6795 8C27.8333 8.24216 27.9758 8.24216 28.1068 8C28.2334 8.25247 28.3601 8.25247 28.4866 8C28.5159 8.07651 28.5634 8.13962 28.6291 8.18935C28.6607 8.12623 28.6924 8.06312 28.724 8C28.8779 8.24216 29.0203 8.24216 29.1513 8C29.2779 8.25247 29.4046 8.25247 29.5311 8C29.7527 8.25247 29.9743 8.25247 30.1958 8C30.3224 8.25247 30.4491 8.25247 30.5757 8C30.7972 8.25247 31.0188 8.25247 31.2403 8C31.3669 8.25247 31.4936 8.25247 31.6202 8C31.6876 8.13948 31.7983 8.20259 31.9525 8.18935C31.9525 11.787 31.9525 15.3846 31.9525 18.9822C31.7983 18.9955 31.6876 18.9324 31.6202 18.7929C31.4936 19.0454 31.3669 19.0454 31.2403 18.7929C31.0188 19.0454 30.7972 19.0454 30.5757 18.7929C30.4491 19.0454 30.3224 19.0454 30.1958 18.7929C29.9743 19.0454 29.7527 19.0454 29.5311 18.7929C29.4046 19.0454 29.2779 19.0454 29.1513 18.7929C29.0203 19.0351 28.8779 19.0351 28.724 18.7929C28.6924 18.856 28.6607 18.9191 28.6291 18.9822C28.5634 18.9325 28.5159 18.8694 28.4866 18.7929C28.3601 19.0454 28.2334 19.0454 28.1068 18.7929C27.9802 19.0454 27.8536 19.0454 27.727 18.7929C27.632 19.0454 27.5371 19.0454 27.4421 18.7929C27.3155 19.0454 27.1889 19.0454 27.0623 18.7929C26.9357 19.0454 26.8091 19.0454 26.6825 18.7929C26.5875 19.0454 26.4926 19.0454 26.3976 18.7929C26.271 19.0454 26.1444 19.0454 26.0178 18.7929C25.8912 19.0454 25.7645 19.0454 25.638 18.7929C25.543 19.0454 25.4481 19.0454 25.3531 18.7929C25.2265 19.0454 25.0999 19.0454 24.9733 18.7929C24.8467 19.0454 24.72 19.0454 24.5935 18.7929C24.4985 19.0454 24.4035 19.0454 24.3086 18.7929C24.182 19.0454 24.0553 19.0454 23.9288 18.7929C23.8022 19.0454 23.6755 19.0454 23.5489 18.7929C23.454 19.0454 23.359 19.0454 23.2641 18.7929C23.1375 19.0454 23.0108 19.0454 22.8843 18.7929C22.7577 19.0454 22.631 19.0454 22.5044 18.7929C22.4884 20.2924 22.4409 21.7756 22.362 23.2426C22.362 20.6549 22.362 18.067 22.362 15.4793C20.178 15.4793 17.9941 15.4793 15.8101 15.4793C15.8101 16.2682 15.8101 17.0572 15.8101 17.8462C17.0445 17.8462 18.2789 17.8462 19.5133 17.8462C19.5133 18.067 19.5133 18.288 19.5133 18.5089C19.3663 18.4865 19.2238 18.4865 19.086 18.5089C18.9911 18.1302 18.8961 18.1302 18.8012 18.5089C18.6746 18.5089 18.5479 18.5089 18.4214 18.5089C18.2948 18.2564 18.1681 18.2564 18.0415 18.5089C17.9466 18.3827 17.8516 18.3827 17.7567 18.5089C17.6301 18.2564 17.5034 18.2564 17.3768 18.5089C17.2819 18.4773 17.1869 18.4457 17.092 18.4142C16.9952 18.5266 16.8844 18.6213 16.7596 18.6982C16.779 18.6008 16.7315 18.5061 16.6172 18.4142C16.4483 18.5069 16.2901 18.4754 16.1424 18.3195C16.0791 18.3827 16.0158 18.4457 15.9525 18.5089C15.7747 18.5646 15.6164 18.5015 15.4777 18.3195C15.3301 18.4754 15.1719 18.5069 15.003 18.4142C14.9062 18.5266 14.7954 18.6213 14.6706 18.6982C14.69 18.6008 14.6425 18.5061 14.5282 18.4142C14.3593 18.5069 14.2011 18.4754 14.0534 18.3195C13.9901 18.3827 13.9268 18.4457 13.8635 18.5089C13.7059 18.5255 13.5477 18.4624 13.3887 18.3195C13.3254 18.3827 13.2621 18.4457 13.1988 18.5089C13.0722 18.5089 12.9456 18.5089 12.819 18.5089C12.6783 18.2929 12.52 18.2929 12.3442 18.5089C12.1955 18.562 12.0689 18.4988 11.9644 18.3195C11.8972 18.4029 11.818 18.466 11.727 18.5089C11.5223 17.9049 11.3956 17.2737 11.3472 16.6154C14.2431 14.6508 17.1867 12.7573 20.178 10.9349C20.5375 11.0836 20.8857 11.2257 21.2225 11.3609C21.5295 10.8263 21.8461 10.3056 22.1721 9.79882C23.2942 9.20484 24.4654 8.60524 25.6854 8Z" fill="#3167C4"/>
<path fill-rule="evenodd" clip-rule="evenodd" d="M20.1782 10.9353C17.187 12.7577 14.2433 14.6512 11.3474 16.6158C11.2427 14.2256 12.1606 12.3479 14.1011 10.9827C16.1252 10.0609 18.1509 10.0451 20.1782 10.9353Z" fill="#2760C3"/>
<path fill-rule="evenodd" clip-rule="evenodd" d="M8.40368 15.29C8.36848 16.433 8.43178 17.5691 8.59359 18.6983C5.54552 20.9472 2.66519 23.4088 -0.0473633 26.0829C-0.0473633 22.5485 -0.0473633 19.0139 -0.0473633 15.4794C0.0837134 15.5936 0.194495 15.562 0.284981 15.3847C0.423618 15.5667 0.581876 15.6298 0.759758 15.5741C0.823062 15.5109 0.886365 15.4479 0.949669 15.3847C1.07627 15.6372 1.20289 15.6372 1.32949 15.3847C1.46813 15.5667 1.62639 15.6298 1.80427 15.5741C1.86758 15.5109 1.93087 15.4479 1.99418 15.3847C2.12078 15.6372 2.2474 15.6372 2.374 15.3847C2.53456 15.6338 2.64535 15.6022 2.70635 15.29C2.76735 15.6022 2.87813 15.6338 3.03869 15.3847C3.16529 15.6372 3.29191 15.6372 3.41851 15.3847C3.57907 15.6338 3.68986 15.6022 3.75086 15.29C3.81186 15.6022 3.92264 15.6338 4.0832 15.3847C4.2098 15.6372 4.33642 15.6372 4.46302 15.3847C4.68458 15.7634 4.90615 15.7634 5.12771 15.3847C5.19102 15.4479 5.25432 15.5109 5.31762 15.5741C5.44423 15.3216 5.57084 15.3216 5.69744 15.5741C5.87532 15.6298 6.03359 15.5667 6.17222 15.3847C6.23553 15.4479 6.29883 15.5109 6.36213 15.5741C6.48874 15.3216 6.61535 15.3216 6.74195 15.5741C6.81234 15.466 6.89146 15.466 6.97934 15.5741C7.13109 15.3399 7.27352 15.3399 7.40664 15.5741C7.53325 15.3216 7.65986 15.3216 7.78646 15.5741C7.88327 15.4617 7.99405 15.367 8.11881 15.29C8.21635 15.4123 8.3113 15.4123 8.40368 15.29Z" fill="#245BC0"/>
<path fill-rule="evenodd" clip-rule="evenodd" d="M8.59359 18.6982C9.28279 21.5156 11.0236 23.3302 13.8161 24.142C16.7619 24.7411 19.6106 24.4414 22.3621 23.2426C22.441 21.7756 22.4885 20.2925 22.5046 18.7929C22.6311 19.0454 22.7578 19.0454 22.8844 18.7929C23.011 19.0454 23.1376 19.0454 23.2642 18.7929C23.3592 19.0454 23.4541 19.0454 23.5491 18.7929C23.6757 19.0454 23.8023 19.0454 23.9289 18.7929C24.0555 19.0454 24.1821 19.0454 24.3087 18.7929C24.4037 19.0454 24.4986 19.0454 24.5936 18.7929C24.7202 19.0454 24.8468 19.0454 24.9734 18.7929C25.1 19.0454 25.2267 19.0454 25.3532 18.7929C25.4482 19.0454 25.5431 19.0454 25.6381 18.7929C25.7647 19.0454 25.8913 19.0454 26.0179 18.7929C26.1445 19.0454 26.2712 19.0454 26.3977 18.7929C26.4927 19.0454 26.5877 19.0454 26.6826 18.7929C26.8092 19.0454 26.9359 19.0454 27.0624 18.7929C27.189 19.0454 27.3157 19.0454 27.4423 18.7929C27.5372 19.0454 27.6322 19.0454 27.7271 18.7929C27.8537 19.0454 27.9804 19.0454 28.1069 18.7929C28.2335 19.0454 28.3602 19.0454 28.4868 18.7929C28.516 18.8694 28.5635 18.9326 28.6292 18.9823C28.6608 18.9191 28.6925 18.8561 28.7241 18.7929C28.878 19.0351 29.0204 19.0351 29.1514 18.7929C29.278 19.0454 29.4047 19.0454 29.5313 18.7929C29.7528 19.0454 29.9744 19.0454 30.196 18.7929C30.3225 19.0454 30.4492 19.0454 30.5758 18.7929C30.7973 19.0454 31.0189 19.0454 31.2405 18.7929C31.367 19.0454 31.4937 19.0454 31.6203 18.7929C31.6877 18.9324 31.7984 18.9955 31.9526 18.9823C31.9526 22.8954 31.9526 26.8087 31.9526 30.7219C31.8037 30.4918 31.6613 30.4918 31.5253 30.7219C31.3988 30.4694 31.2721 30.4694 31.1455 30.7219C30.9677 30.7777 30.8094 30.7145 30.6707 30.5326C30.5442 30.7851 30.4175 30.7851 30.2909 30.5326C30.2276 30.5957 30.1643 30.6588 30.101 30.7219C29.9232 30.7777 29.7649 30.7145 29.6262 30.5326C29.4997 30.7851 29.373 30.7851 29.2464 30.5326C29.1831 30.5957 29.1198 30.6588 29.0565 30.7219C28.835 30.3432 28.6133 30.3432 28.3918 30.7219C28.2652 30.4694 28.1386 30.4694 28.012 30.7219C27.7905 30.3432 27.5688 30.3432 27.3473 30.7219C27.2207 30.4694 27.094 30.4694 26.9675 30.7219C26.9041 30.6588 26.8409 30.5957 26.7776 30.5326C26.6632 30.6245 26.6158 30.7192 26.6351 30.8166C26.4568 30.7085 26.2827 30.6138 26.1129 30.5326C25.9863 30.7851 25.8596 30.7851 25.7331 30.5326C25.6676 30.6137 25.5885 30.6768 25.4957 30.7219C25.4078 30.6139 25.3286 30.6139 25.2583 30.7219C25.1317 30.4694 25.005 30.4694 24.8785 30.7219C24.7453 30.4878 24.6029 30.4878 24.4512 30.7219C24.3633 30.6139 24.2841 30.6139 24.2138 30.7219C24.0872 30.4694 23.9605 30.4694 23.8339 30.7219C23.7074 30.4694 23.5807 30.4694 23.4541 30.7219C23.3592 30.3432 23.2642 30.3432 23.1693 30.7219C23.0427 30.4694 22.916 30.4694 22.7894 30.7219C22.6629 30.4694 22.5362 30.4694 22.4096 30.7219C22.3147 30.3432 22.2197 30.3432 22.1247 30.7219C21.9982 30.4694 21.8715 30.4694 21.7449 30.7219C21.6183 30.4694 21.4917 30.4694 21.3651 30.7219C21.1872 30.7777 21.029 30.7145 20.8903 30.5326C20.7637 30.7851 20.6371 30.7851 20.5105 30.5326C20.4472 30.5957 20.3839 30.6588 20.3206 30.7219C20.1427 30.7777 19.9844 30.7145 19.8458 30.5326C19.7192 30.7851 19.5926 30.7851 19.466 30.5326C19.4027 30.5957 19.3394 30.6588 19.2761 30.7219C19.0545 30.3432 18.8329 30.3432 18.6114 30.7219C18.4848 30.4694 18.3581 30.4694 18.2316 30.7219C18.01 30.3432 17.7884 30.3432 17.5669 30.7219C17.4403 30.4694 17.3136 30.4694 17.1871 30.7219C17.0539 30.4878 16.9115 30.4878 16.7598 30.7219C16.6719 30.6139 16.5927 30.6139 16.5224 30.7219C16.3958 30.4694 16.2691 30.4694 16.1425 30.7219C16.0094 30.4878 15.867 30.4878 15.7152 30.7219C15.6274 30.6139 15.5482 30.6139 15.4779 30.7219C15.3513 30.4694 15.2246 30.4694 15.098 30.7219C15.0347 30.6588 14.9715 30.5957 14.9081 30.5326C14.7695 30.7145 14.6112 30.7777 14.4333 30.7219C14.3068 30.4694 14.1801 30.4694 14.0535 30.7219C13.927 30.4694 13.8003 30.4694 13.6737 30.7219C13.5787 30.3432 13.4838 30.3432 13.3888 30.7219C13.2623 30.4694 13.1356 30.4694 13.009 30.7219C12.8824 30.4694 12.7558 30.4694 12.6292 30.7219C12.5342 30.3432 12.4393 30.3432 12.3443 30.7219C12.2178 30.4694 12.0911 30.4694 11.9645 30.7219C11.8379 30.4694 11.7113 30.4694 11.5847 30.7219C11.4068 30.7777 11.2485 30.7145 11.1099 30.5326C10.9833 30.7851 10.8567 30.7851 10.7301 30.5326C10.6667 30.5957 10.6035 30.6588 10.5402 30.7219C10.3623 30.7777 10.204 30.7145 10.0654 30.5326C9.93882 30.7851 9.81215 30.7851 9.68557 30.5326C9.62224 30.5957 9.559 30.6588 9.49566 30.7219C9.2741 30.3432 9.05253 30.3432 8.83097 30.7219C8.70437 30.4694 8.57776 30.4694 8.45115 30.7219C8.22959 30.3432 8.00802 30.3432 7.78646 30.7219C7.65986 30.4694 7.53325 30.4694 7.40664 30.7219C7.27352 30.4878 7.13109 30.4878 6.97934 30.7219C6.89146 30.6139 6.81234 30.6139 6.74195 30.7219C6.61535 30.4694 6.48874 30.4694 6.36213 30.7219C6.29883 30.6588 6.23553 30.5957 6.17222 30.5326C6.03359 30.7145 5.87532 30.7777 5.69744 30.7219C5.57084 30.4694 5.44423 30.4694 5.31762 30.7219C5.10278 30.5129 4.94452 30.576 4.84284 30.9113C4.71624 30.7851 4.58963 30.6588 4.46302 30.5326C4.33642 30.7851 4.2098 30.7851 4.0832 30.5326C3.92264 30.7817 3.81186 30.75 3.75086 30.4379C3.68986 30.75 3.57907 30.7817 3.41851 30.5326C3.29191 30.7851 3.16529 30.7851 3.03869 30.5326C2.87813 30.7817 2.76735 30.75 2.70635 30.4379C2.64535 30.75 2.53456 30.7817 2.374 30.5326C2.2474 30.7851 2.12078 30.7851 1.99418 30.5326C1.93087 30.5957 1.86758 30.6588 1.80427 30.7219C1.62639 30.7777 1.46813 30.7145 1.32949 30.5326C1.20289 30.7851 1.07627 30.7851 0.949669 30.5326C0.886365 30.5957 0.823062 30.6588 0.759758 30.7219C0.581876 30.7777 0.423618 30.7145 0.284981 30.5326C0.194495 30.7099 0.0837134 30.7414 -0.0473633 30.6272C-0.0473633 29.1124 -0.0473633 27.5977 -0.0473633 26.0829C2.66519 23.4087 5.54552 20.9471 8.59359 18.6982Z" fill="#2F5FC2"/>
<path fill-rule="evenodd" clip-rule="evenodd" d="M19.5134 18.5086C19.5134 19.5501 19.5134 20.5915 19.5134 21.6329C18.2367 21.9719 16.939 22.0824 15.6202 21.9643C13.5723 21.6397 12.2746 20.4878 11.7271 18.5086C11.818 18.4657 11.8972 18.4027 11.9644 18.3193C12.069 18.4986 12.1956 18.5617 12.3443 18.5086C12.52 18.2927 12.6783 18.2927 12.819 18.5086C12.9456 18.5086 13.0723 18.5086 13.1989 18.5086C13.2622 18.4455 13.3254 18.3824 13.3888 18.3193C13.5477 18.4621 13.7059 18.5253 13.8635 18.5086C13.9269 18.4455 13.9901 18.3824 14.0535 18.3193C14.2011 18.4751 14.3593 18.5066 14.5282 18.414C14.6426 18.5059 14.69 18.6006 14.6707 18.698C14.7954 18.621 14.9063 18.5263 15.003 18.414C15.1719 18.5066 15.3301 18.4751 15.4778 18.3193C15.6164 18.5012 15.7747 18.5644 15.9526 18.5086C16.0159 18.4455 16.0791 18.3824 16.1425 18.3193C16.2901 18.4751 16.4483 18.5066 16.6173 18.414C16.7316 18.5059 16.7791 18.6006 16.7597 18.698C16.8845 18.621 16.9953 18.5263 17.092 18.414C17.187 18.4455 17.2819 18.4771 17.3769 18.5086C17.5035 18.2561 17.6301 18.2561 17.7567 18.5086C17.8517 18.3824 17.9466 18.3824 18.0416 18.5086C18.1682 18.2561 18.2948 18.2561 18.4214 18.5086C18.548 18.5086 18.6747 18.5086 18.8012 18.5086C18.8962 18.1299 18.9911 18.1299 19.0861 18.5086C19.2239 18.4863 19.3663 18.4863 19.5134 18.5086Z" fill="#3162C3"/>
<path fill-rule="evenodd" clip-rule="evenodd" d="M31.9526 30.7215C31.9526 31.1317 31.9526 31.5421 31.9526 31.9523C21.286 31.9523 10.6193 31.9523 -0.0473633 31.9523C-0.0473633 31.5104 -0.0473633 31.0687 -0.0473633 30.6268C0.0837134 30.741 0.194495 30.7095 0.284981 30.5322C0.423618 30.7141 0.581876 30.7773 0.759758 30.7215C0.823062 30.6584 0.886365 30.5953 0.949669 30.5322C1.07627 30.7847 1.20289 30.7847 1.32949 30.5322C1.46813 30.7141 1.62639 30.7773 1.80427 30.7215C1.86758 30.6584 1.93087 30.5953 1.99418 30.5322C2.12078 30.7847 2.2474 30.7847 2.374 30.5322C2.53456 30.7813 2.64535 30.7496 2.70635 30.4375C2.76735 30.7496 2.87813 30.7813 3.03869 30.5322C3.16529 30.7847 3.29191 30.7847 3.41851 30.5322C3.57907 30.7813 3.68986 30.7496 3.75086 30.4375C3.81186 30.7496 3.92264 30.7813 4.0832 30.5322C4.2098 30.7847 4.33642 30.7847 4.46302 30.5322C4.58963 30.6584 4.71624 30.7847 4.84284 30.9109C4.94452 30.5756 5.10278 30.5125 5.31762 30.7215C5.44423 30.469 5.57084 30.469 5.69744 30.7215C5.87532 30.7773 6.03359 30.7141 6.17222 30.5322C6.23553 30.5953 6.29883 30.6584 6.36213 30.7215C6.48874 30.469 6.61535 30.469 6.74195 30.7215C6.81234 30.6135 6.89146 30.6135 6.97934 30.7215C7.13109 30.4874 7.27352 30.4874 7.40664 30.7215C7.53325 30.469 7.65986 30.469 7.78646 30.7215C8.00802 30.3428 8.22959 30.3428 8.45115 30.7215C8.57776 30.469 8.70437 30.469 8.83097 30.7215C9.05253 30.3428 9.2741 30.3428 9.49566 30.7215C9.559 30.6584 9.62224 30.5953 9.68557 30.5322C9.81215 30.7847 9.93882 30.7847 10.0654 30.5322C10.204 30.7141 10.3623 30.7773 10.5402 30.7215C10.6035 30.6584 10.6667 30.5953 10.7301 30.5322C10.8567 30.7847 10.9833 30.7847 11.1099 30.5322C11.2485 30.7141 11.4068 30.7773 11.5847 30.7215C11.7113 30.469 11.8379 30.469 11.9645 30.7215C12.0911 30.469 12.2178 30.469 12.3443 30.7215C12.4393 30.3428 12.5342 30.3428 12.6292 30.7215C12.7558 30.469 12.8824 30.469 13.009 30.7215C13.1356 30.469 13.2623 30.469 13.3888 30.7215C13.4838 30.3428 13.5787 30.3428 13.6737 30.7215C13.8003 30.469 13.927 30.469 14.0535 30.7215C14.1801 30.469 14.3068 30.469 14.4333 30.7215C14.6112 30.7773 14.7695 30.7141 14.9081 30.5322C14.9715 30.5953 15.0347 30.6584 15.098 30.7215C15.2246 30.469 15.3513 30.469 15.4779 30.7215C15.5482 30.6135 15.6274 30.6135 15.7152 30.7215C15.867 30.4874 16.0094 30.4874 16.1425 30.7215C16.2691 30.469 16.3958 30.469 16.5224 30.7215C16.5927 30.6135 16.6719 30.6135 16.7598 30.7215C16.9115 30.4874 17.0539 30.4874 17.1871 30.7215C17.3136 30.469 17.4403 30.469 17.5669 30.7215C17.7884 30.3428 18.01 30.3428 18.2316 30.7215C18.3581 30.469 18.4848 30.469 18.6114 30.7215C18.8329 30.3428 19.0545 30.3428 19.2761 30.7215C19.3394 30.6584 19.4027 30.5953 19.466 30.5322C19.5926 30.7847 19.7192 30.7847 19.8458 30.5322C19.9844 30.7141 20.1427 30.7773 20.3206 30.7215C20.3839 30.6584 20.4472 30.5953 20.5105 30.5322C20.6371 30.7847 20.7637 30.7847 20.8903 30.5322C21.029 30.7141 21.1872 30.7773 21.3651 30.7215C21.4917 30.469 21.6183 30.469 21.7449 30.7215C21.8715 30.469 21.9982 30.469 22.1247 30.7215C22.2197 30.3428 22.3147 30.3428 22.4096 30.7215C22.5362 30.469 22.6629 30.469 22.7894 30.7215C22.916 30.469 23.0427 30.469 23.1693 30.7215C23.2642 30.3428 23.3592 30.3428 23.4541 30.7215C23.5807 30.469 23.7074 30.469 23.8339 30.7215C23.9605 30.469 24.0872 30.469 24.2138 30.7215C24.2841 30.6135 24.3633 30.6135 24.4512 30.7215C24.6029 30.4874 24.7453 30.4874 24.8785 30.7215C25.005 30.469 25.1317 30.469 25.2583 30.7215C25.3286 30.6135 25.4078 30.6135 25.4957 30.7215C25.5885 30.6764 25.6676 30.6133 25.7331 30.5322C25.8596 30.7847 25.9863 30.7847 26.1129 30.5322C26.2827 30.6134 26.4568 30.7081 26.6351 30.8162C26.6158 30.7188 26.6632 30.6241 26.7776 30.5322C26.8409 30.5953 26.9041 30.6584 26.9675 30.7215C27.094 30.469 27.2207 30.469 27.3473 30.7215C27.5688 30.3428 27.7905 30.3428 28.012 30.7215C28.1386 30.469 28.2652 30.469 28.3918 30.7215C28.6133 30.3428 28.835 30.3428 29.0565 30.7215C29.1198 30.6584 29.1831 30.5953 29.2464 30.5322C29.373 30.7847 29.4997 30.7847 29.6262 30.5322C29.7649 30.7141 29.9232 30.7773 30.101 30.7215C30.1643 30.6584 30.2276 30.5953 30.2909 30.5322C30.4175 30.7847 30.5442 30.7847 30.6707 30.5322C30.8094 30.7141 30.9677 30.7773 31.1455 30.7215C31.2721 30.469 31.3988 30.469 31.5253 30.7215C31.6613 30.4914 31.8037 30.4914 31.9526 30.7215Z" fill="#2E5DC1"/>
</g>
<defs>
<clipPath id="clip0_1777_782">
<rect width="32" height="32" fill="white"/>
</clipPath>
</defs>
</svg>

