<svg width="32" height="32" viewBox="0 0 32 32" fill="none" xmlns="http://www.w3.org/2000/svg">
    <g clip-path="url(#clip0_3958_277)">
        <path opacity="0.996" fill-rule="evenodd" clip-rule="evenodd"
            d="M8.93725 -0.0625C9.27058 -0.0625 9.60391 -0.0625 9.93725 -0.0625C16.7631 2.44236 23.5964 4.9632 30.4372 7.5C30.7619 7.88596 30.8661 8.32346 30.7497 8.8125C28.299 15.665 25.799 22.4984 23.2497 29.3125C22.8964 29.7081 22.4589 29.8539 21.9372 29.75C20.2914 29.1459 18.6456 28.5416 16.9997 27.9375C16.9032 27.9556 16.8199 27.9972 16.7497 28.0625C16.2079 29.3345 15.7286 30.6261 15.3122 31.9375C15.2289 31.9375 15.1456 31.9375 15.0622 31.9375C13.0651 29.6483 11.0651 27.3566 9.06225 25.0625C6.59912 24.179 4.1408 23.2831 1.68725 22.375C0.928853 21.9104 0.741353 21.2645 1.12475 20.4375C3.56601 13.8221 5.98269 7.19707 8.37475 0.5625C8.5239 0.312859 8.7114 0.104526 8.93725 -0.0625Z"
            fill="#B11540" />
        <path fill-rule="evenodd" clip-rule="evenodd"
            d="M10.1873 8.43742C10.6891 8.41673 11.1891 8.43757 11.6873 8.49992C12.1359 8.70919 12.3443 9.06335 12.3123 9.56242C12.0888 9.59807 11.8805 9.55641 11.6873 9.43742C11.1033 8.78386 10.4991 8.78386 9.87484 9.43742C8.5283 11.3654 7.98663 13.4904 8.24984 15.8124C8.5054 15.9714 8.73457 15.9298 8.93734 15.6874C9.6333 14.9204 10.2375 14.0872 10.7498 13.1874C11.3748 12.0208 11.9998 10.8541 12.6248 9.68742C12.8751 9.26404 13.2292 9.07654 13.6873 9.12492C13.7572 9.21551 13.7988 9.31968 13.8123 9.43742C13.423 10.4112 13.1105 11.4112 12.8748 12.4374C12.6241 13.8377 12.3533 15.2335 12.0623 16.6249C12.5467 16.858 12.9842 17.1705 13.3748 17.5624C13.7067 18.1337 13.6026 18.5919 13.0623 18.9374C13.0445 18.0875 12.6278 17.5875 11.8123 17.4374C11.5591 18.9648 10.8925 20.2773 9.81234 21.3749C8.7931 22.1592 7.6681 22.3675 6.43734 21.9999C5.30814 21.2273 5.1623 20.2898 5.99984 19.1874C7.2833 17.5873 8.94997 16.754 10.9998 16.6874C11.2167 15.48 11.3834 14.2717 11.4998 13.0624C10.9655 13.9714 10.3822 14.8464 9.74984 15.6874C9.34929 16.1787 8.84929 16.512 8.24984 16.6874C7.503 16.6073 7.08633 16.1905 6.99984 15.4374C6.75567 13.2953 7.29734 11.3787 8.62484 9.68742C9.12017 9.22328 9.641 8.8066 10.1873 8.43742Z"
            fill="#FCF6F8" />
        <path fill-rule="evenodd" clip-rule="evenodd"
            d="M21.5625 11.5625C21.7291 11.5625 21.8959 11.5625 22.0625 11.5625C21.8406 12.0701 21.6322 12.5909 21.4375 13.125C21.836 14.1552 21.9817 15.2177 21.875 16.3125C21.6285 17.2689 21.0244 17.6647 20.0625 17.5C19.5531 16.3118 19.8031 15.2701 20.8125 14.375C20.931 14.3146 21.056 14.2939 21.1875 14.3125C21.1524 13.8515 21.0899 13.3931 21 12.9375C20.5985 13.8568 20.0778 14.6901 19.4375 15.4375C19.3365 15.399 19.2531 15.3365 19.1875 15.25C19.7041 14.5299 20.1416 13.7591 20.5 12.9375C20.7948 12.4302 21.149 11.9719 21.5625 11.5625Z"
            fill="#FAF0F3" />
        <path fill-rule="evenodd" clip-rule="evenodd"
            d="M23.5621 11.6873C23.7928 11.6526 23.9596 11.7359 24.0621 11.9373C23.9062 12.1652 23.8228 12.4152 23.8121 12.6873C24.1961 12.6477 24.5711 12.6893 24.9371 12.8123C24.9109 12.8856 24.8692 12.9481 24.8121 12.9998C24.3699 13.018 23.9532 13.1221 23.5621 13.3123C22.9782 14.7311 22.8323 16.1893 23.1246 17.6873C23.2557 17.8145 23.4016 17.8353 23.5621 17.7498C23.8109 17.6051 24.0193 17.4176 24.1871 17.1873C24.2287 17.2498 24.2704 17.3123 24.3121 17.3748C24.0488 18.1106 23.5488 18.3397 22.8121 18.0623C22.5874 17.8585 22.4416 17.6085 22.3746 17.3123C22.2021 15.9581 22.3479 14.6456 22.8121 13.3748C22.2298 13.3806 22.0841 13.1513 22.3746 12.6873C22.5869 12.8006 22.8162 12.8422 23.0621 12.8123C23.1274 12.3901 23.2941 12.0151 23.5621 11.6873Z"
            fill="#FBF2F4" />
        <path fill-rule="evenodd" clip-rule="evenodd"
            d="M14.1872 12.6875C14.3122 12.6875 14.4372 12.6875 14.5622 12.6875C14.1684 13.9112 13.8767 15.1612 13.6872 16.4375C13.9876 16.4509 14.2167 16.3259 14.3747 16.0625C14.9799 15.1024 15.5216 14.1024 15.9997 13.0625C16.2446 12.6514 16.5153 12.6096 16.8122 12.9375C16.1678 14.3679 15.8761 15.8679 15.9372 17.4375C16.2044 17.4121 16.4128 17.2871 16.5622 17.0625C16.6883 17.6659 16.4383 17.9367 15.8122 17.875C15.7081 17.7709 15.6038 17.6666 15.4997 17.5625C15.3457 16.9099 15.2623 16.2433 15.2497 15.5625C14.9106 16.0115 14.5563 16.449 14.1872 16.875C13.6903 17.0474 13.3361 16.9016 13.1247 16.4375C12.9353 15.0276 13.2894 13.7776 14.1872 12.6875Z"
            fill="#FCF5F7" />
        <path fill-rule="evenodd" clip-rule="evenodd"
            d="M18.4377 12.6872C19.4155 12.6454 19.7697 13.1038 19.5002 14.0622C19.1626 15.0097 18.5167 15.3847 17.5627 15.1872C18.5052 14.8411 18.9843 14.1743 19.0002 13.1872C18.6601 13.0421 18.3685 13.1254 18.1252 13.4372C17.4442 14.3276 17.1942 15.3276 17.3752 16.4372C17.5148 16.6402 17.7023 16.7652 17.9377 16.8122C18.3776 16.6647 18.7526 16.4147 19.0627 16.0622C19.1043 16.1247 19.1461 16.1872 19.1877 16.2497C18.6321 17.3937 17.8613 17.5812 16.8752 16.8122C16.2743 15.0138 16.7951 13.6388 18.4377 12.6872Z"
            fill="#FBF4F6" />
        <path fill-rule="evenodd" clip-rule="evenodd"
            d="M21.1875 14.4375C21.3494 15.0905 21.3285 15.7571 21.125 16.4375C20.4784 17.4883 20.145 17.4049 20.125 16.1875C20.322 15.5006 20.6761 14.9173 21.1875 14.4375Z"
            fill="#B52648" />
        <path fill-rule="evenodd" clip-rule="evenodd"
            d="M9.68742 17.3125C10.0624 17.3125 10.4374 17.3125 10.8124 17.3125C10.6057 18.8299 9.98074 20.1424 8.93742 21.25C8.04827 21.8009 7.15245 21.8217 6.24992 21.3125C5.85796 20.828 5.83714 20.328 6.18742 19.8125C7.04544 18.5365 8.21211 17.7031 9.68742 17.3125Z"
            fill="#B21942" />
        <path fill-rule="evenodd" clip-rule="evenodd"
            d="M17.6875 18.1876C18.0831 18.1206 18.4164 18.2248 18.6875 18.5001C18.6219 18.5866 18.5385 18.6491 18.4375 18.6876C17.8945 18.4266 17.6445 18.5933 17.6875 19.1876C18.4195 19.2319 18.6904 19.6069 18.5 20.3126C18.0111 20.9073 17.4902 20.9489 16.9375 20.4376C16.9791 20.3126 17.0625 20.2293 17.1875 20.1876C17.7513 20.5958 18.0637 20.4708 18.125 19.8126C17.0676 19.503 16.9218 18.9614 17.6875 18.1876Z"
            fill="#F9ECEF" />
        <path fill-rule="evenodd" clip-rule="evenodd"
            d="M20.9373 18.1871C21.2705 18.1329 21.4164 18.2579 21.3748 18.5621C21.0425 18.7114 20.8968 18.5864 20.9373 18.1871Z"
            fill="#FBF4F6" />
        <path fill-rule="evenodd" clip-rule="evenodd"
            d="M22.0625 18.4375C22.272 18.5229 22.3554 18.6896 22.3125 18.9375C22.4375 18.9375 22.5625 18.9375 22.6875 18.9375C22.6875 19.0625 22.6875 19.1875 22.6875 19.3125C22.5209 19.3125 22.3541 19.3125 22.1875 19.3125C22.1875 19.6875 22.1875 20.0625 22.1875 20.4375C22.4927 20.4193 22.5761 20.5234 22.4375 20.75C22.1624 20.8531 21.9332 20.7906 21.75 20.5625C21.6876 20.2472 21.7085 19.9347 21.8125 19.625C21.7695 19.4544 21.6861 19.3085 21.5625 19.1875C21.8057 18.9894 21.9724 18.7394 22.0625 18.4375Z"
            fill="#F8E7EB" />
        <path fill-rule="evenodd" clip-rule="evenodd"
            d="M23.3129 18.9372C23.5663 18.9169 23.8163 18.9378 24.0629 18.9997C24.3963 19.2497 24.3963 19.4997 24.0629 19.7497C23.7908 19.8999 23.499 19.9624 23.1879 19.9372C23.1667 20.1024 23.2083 20.2483 23.3129 20.3747C23.6174 20.368 23.909 20.3888 24.1879 20.4372C23.7512 20.9285 23.3137 20.9285 22.8754 20.4372C22.7185 19.8419 22.8644 19.3419 23.3129 18.9372Z"
            fill="#FAEEF1" />
        <path fill-rule="evenodd" clip-rule="evenodd"
            d="M18.9379 18.9378C19.0629 18.9378 19.1879 18.9378 19.3129 18.9378C19.2724 19.4447 19.3141 19.9447 19.4379 20.4378C19.6022 20.3362 19.7481 20.2112 19.8754 20.0628C19.9092 19.7223 19.9717 19.389 20.0629 19.0628C20.1661 18.9521 20.2911 18.9105 20.4379 18.9378C20.4168 19.523 20.3752 20.1063 20.3129 20.6878C20.1099 20.7053 19.9642 20.622 19.8754 20.4378C19.5656 20.8357 19.2322 20.8773 18.8754 20.5628C18.8236 20.0193 18.8443 19.4777 18.9379 18.9378Z"
            fill="#F8E9ED" />
        <path fill-rule="evenodd" clip-rule="evenodd"
            d="M20.9375 18.9375C21.0625 18.9375 21.1875 18.9375 21.3125 18.9375C21.2709 19.5209 21.2291 20.1041 21.1875 20.6875C21.0027 20.7202 20.8361 20.6786 20.6875 20.5625C20.8014 20.0265 20.8848 19.4849 20.9375 18.9375Z"
            fill="#F9ECEF" />
        <path fill-rule="evenodd" clip-rule="evenodd"
            d="M23.5625 19.1875C23.6875 19.1875 23.8125 19.1875 23.9375 19.1875C23.8939 19.6048 23.6855 19.7298 23.3125 19.5625C23.3991 19.4352 23.4824 19.3102 23.5625 19.1875Z"
            fill="#BE3F5C" />
    </g>
    <defs>
        <clipPath id="clip0_3958_277">
            <rect width="32" height="32" fill="white" />
        </clipPath>
    </defs>
</svg>