<svg width="32" height="32" viewBox="0 0 32 32" fill="none" xmlns="http://www.w3.org/2000/svg">
    <path opacity="0.98" fill-rule="evenodd" clip-rule="evenodd"
        d="M19.1249 0C20.0316 0 20.9385 0 21.8452 0C21.8452 1.61904 21.8452 3.2381 21.8452 4.85714C17.5613 4.86364 14.1013 6.5303 11.4651 9.85714C9.41808 13.1774 9.084 16.6536 10.4629 20.2857C12.2978 24.0191 15.2806 26.2334 19.4112 26.9286C20.2163 27.0756 21.0276 27.147 21.8452 27.1429C21.8452 28.7619 21.8452 30.381 21.8452 32C20.9385 32 20.0316 32 19.1249 32C11.413 30.7581 6.6644 26.3296 4.87908 18.7143C3.9919 11.3665 6.68834 5.77127 12.9684 1.92857C14.9248 0.920404 16.9769 0.277547 19.1249 0Z"
        fill="#FF5C00" />
    <path opacity="0.969" fill-rule="evenodd" clip-rule="evenodd"
        d="M14.2568 17.4285C18.6009 17.3809 22.9438 17.4285 27.2856 17.5713C26.8869 21.5141 24.7155 23.6569 20.7712 23.9999C16.7529 23.6333 14.5814 21.4428 14.2568 17.4285Z"
        fill="#FF5C00" />
</svg>