<svg width="32" height="32" viewBox="0 0 34 34" fill="none" xmlns="http://www.w3.org/2000/svg">
    <path fill-rule="evenodd" clip-rule="evenodd"
        d="M6.21999 0.464958C13.2613 0.391716 20.3013 0.465002 27.3399 0.684775C30.3042 1.44802 32.2842 3.27984 33.2799 6.18018C33.5734 13.0678 33.5734 19.9553 33.2799 26.8429C32.6199 30.4334 30.4934 32.5581 26.8999 33.2176C20.0065 33.5108 13.1134 33.5108 6.21999 33.2176C3.31723 32.2227 1.48389 30.2443 0.72001 27.2825C0.426663 20.2484 0.426663 13.2143 0.72001 6.18018C1.75537 3.46123 3.58871 1.55613 6.21999 0.464958Z"
        fill="#E9F1F5" />
    <path fill-rule="evenodd" clip-rule="evenodd"
        d="M7.10006 1.78429C13.7018 1.71105 20.3018 1.78434 26.9 2.00411C29.6614 2.85796 31.3484 4.68978 31.96 7.49952C32.2534 13.6544 32.2534 19.8092 31.96 25.9641C31.4465 29.4077 29.4665 31.3861 26.02 31.8991C19.7135 32.1924 13.4066 32.1924 7.10006 31.8991C4.33845 31.0453 2.65181 29.2134 2.04008 26.4037C1.74673 19.9558 1.74673 13.5078 2.04008 7.05988C2.92835 4.48795 4.61504 2.72942 7.10006 1.78429Z"
        fill="#0868FC" />
    <path fill-rule="evenodd" clip-rule="evenodd"
        d="M13.6999 7.93891C19.1467 6.88687 23.0332 8.79197 25.3599 13.6541C25.8602 21.5073 22.1937 25.0243 14.3599 24.2053C13.197 24.5661 12.1705 25.1523 11.28 25.9638C11.5257 23.7601 10.7924 22.0016 9.07996 20.6883C6.43117 14.855 7.97116 10.6052 13.6999 7.93891Z"
        fill="#F8FAFC" />
    <path fill-rule="evenodd" clip-rule="evenodd"
        d="M18.5399 20.2477C18.6838 18.0302 18.5373 15.832 18.1 13.6532C17.663 15.6841 17.5161 17.7358 17.66 19.808C17.2978 18.2794 17.0778 16.6674 17 14.9721C16.9203 16.3765 16.7003 17.6954 16.34 18.9288C16.5903 17.2453 16.2968 15.7798 15.46 14.5325C15.7719 14.135 16.2119 13.9885 16.78 14.0928C16.8279 12.7589 17.4149 12.3193 18.5399 12.7739C19.119 15.3328 19.119 17.824 18.5399 20.2477Z"
        fill="#2E6CEE" />
    <path fill-rule="evenodd" clip-rule="evenodd"
        d="M18.5398 20.2488C18.1034 20.3242 17.8103 20.1777 17.6598 19.8092C17.516 17.7369 17.6629 15.6852 18.0998 13.6543C18.5372 15.8331 18.6837 18.0313 18.5398 20.2488Z"
        fill="#035BF6" />
    <path fill-rule="evenodd" clip-rule="evenodd"
        d="M19.4199 14.9727C19.8599 14.9727 20.2999 14.9727 20.7399 14.9727C20.7399 16.145 20.7399 17.3173 20.7399 18.4897C20.2999 18.4897 19.8599 18.4897 19.4199 18.4897C19.4199 17.3173 19.4199 16.145 19.4199 14.9727Z"
        fill="#2C6CF1" />
    <path fill-rule="evenodd" clip-rule="evenodd"
        d="M13.26 14.9727C13.7 14.9727 14.14 14.9727 14.58 14.9727C14.58 16.145 14.58 17.3173 14.58 18.4897C14.14 18.4897 13.7 18.4897 13.26 18.4897C13.26 17.3173 13.26 16.145 13.26 14.9727Z"
        fill="#2E6CEE" />
    <path fill-rule="evenodd" clip-rule="evenodd"
        d="M15.46 14.5332C16.2969 15.7806 16.5903 17.246 16.34 18.9295C15.5031 17.6822 15.2096 16.2167 15.46 14.5332Z"
        fill="#075EF6" />
</svg>