<svg width="32" height="32" viewBox="0 0 32 32" fill="none" xmlns="http://www.w3.org/2000/svg">
    <path d="M32 0H0V32H32V0Z" fill="#3DD8F1" />
    <path
        d="M3.38216 3C3.17131 3 3 3.17146 3 3.38249V28.6175C3 28.8285 3.17131 29 3.38216 29H17.345C17.5559 29 17.7272 28.8285 17.7272 28.6175V18.4447H14.2746V25.5463H6.45261V6.45561H10.8314V3H3.38216Z"
        fill="black" />
    <path
        d="M21.1758 29H28.6176C28.8284 29 28.9997 28.8285 28.9997 28.6175V3.38249C28.9997 3.17146 28.8284 3 28.6176 3H14.6565C14.4457 3 14.2744 3.17146 14.2744 3.38249V13.5571H17.727V6.45561H25.5471V25.5444H21.1758V29Z"
        fill="black" />
</svg>