<svg width="32" height="32" viewBox="0 0 32 32" fill="none" xmlns="http://www.w3.org/2000/svg">
    <path
        d="M24.504 0H7.496C3.35608 0 0 3.35608 0 7.496V24.504C0 28.644 3.35608 32 7.496 32H24.504C28.644 32 32 28.644 32 24.504V7.496C32 3.35608 28.644 0 24.504 0Z"
        fill="#F80005" />
    <path
        d="M26.0065 19.2527L23.471 11.4799H21.6316L24.6101 20.5263H25.7227L25.1806 22.0984H22.3868V23.6799H24.5821C25.9044 23.6799 26.6084 22.9464 26.974 21.8411L30.4001 11.4799H28.5663L26.0065 19.2527ZM17.7536 11.3104C15.2084 11.3104 13.5032 13.0363 13.5032 16.015C13.5032 19.0051 15.2398 20.6859 17.8254 20.6859C20.5183 20.6859 21.5453 18.8588 21.7584 17.506H19.9623C19.8102 18.3501 19.3526 19.1091 17.8912 19.1091C16.2548 19.1091 15.3976 18.1473 15.3422 16.5885H21.7643V15.7224C21.7643 13.2113 20.405 11.3104 17.7536 11.3104ZM15.3437 15.105C15.3908 14.0213 15.995 12.8924 17.6811 12.8924C19.3672 12.8924 19.9784 14.0213 20.0252 15.1046H15.3441L15.3437 15.105ZM10.6242 13.4348H4.40766V8.31995H2.56006V20.5255H4.40803V15.1827H10.6242V20.5251H12.4725V8.32034H10.6242V13.4352V13.4348Z"
        fill="#FAFAFA" />
</svg>