<svg width="32" height="32" viewBox="0 0 33 33" fill="none" xmlns="http://www.w3.org/2000/svg">
<path fill-rule="evenodd" clip-rule="evenodd" d="M0.5 0.5C11.1666 0.5 21.8334 0.5 32.5 0.5C32.5 11.1667 32.5 21.8333 32.5 32.5C21.8334 32.5 11.1666 32.5 0.5 32.5C0.5 21.8333 0.5 11.1667 0.5 0.5Z" fill="#F3F1E6"/>
<path fill-rule="evenodd" clip-rule="evenodd" d="M5.69995 8.3493C5.78355 8.20407 5.91675 8.10344 6.09995 8.04741C8.23335 7.91323 10.3666 7.91323 12.5 8.04741C10.2268 8.0941 7.96015 8.19473 5.69995 8.3493Z" fill="#3D3B36"/>
<path fill-rule="evenodd" clip-rule="evenodd" d="M14.1001 9.35537C13.7409 9.0952 13.4075 8.79331 13.1001 8.44971C13.6373 8.48537 13.9705 8.78726 14.1001 9.35537Z" fill="#64625C"/>
<path fill-rule="evenodd" clip-rule="evenodd" d="M5.69995 8.34912C5.43335 8.75164 5.09995 9.08707 4.69995 9.35541C4.83335 8.81872 5.16655 8.4833 5.69995 8.34912Z" fill="#65645E"/>
<path fill-rule="evenodd" clip-rule="evenodd" d="M6.5001 9.95893C6.3133 9.74406 6.2465 9.47571 6.3001 9.15389C6.1001 9.15389 5.9001 9.15389 5.7001 9.15389C5.7001 9.95893 5.7001 10.764 5.7001 11.569C5.5031 10.7369 5.4365 9.8648 5.5001 8.95264C5.8335 8.95264 6.1667 8.95264 6.5001 8.95264C6.5001 9.28807 6.5001 9.62349 6.5001 9.95893Z" fill="#787771"/>
<path fill-rule="evenodd" clip-rule="evenodd" d="M5.69995 11.569C5.69995 10.764 5.69995 9.95893 5.69995 9.15389C5.89995 9.15389 6.09995 9.15389 6.29995 9.15389C6.24635 9.47571 6.31315 9.74406 6.49995 9.95893C6.76655 9.95893 7.03335 9.95893 7.29995 9.95893C7.29995 9.62349 7.29995 9.28807 7.29995 8.95264C7.56655 8.95264 7.83335 8.95264 8.09995 8.95264C8.09995 9.82475 8.09995 10.6969 8.09995 11.569C7.83335 11.569 7.56655 11.569 7.29995 11.569C7.29995 11.2336 7.29995 10.8981 7.29995 10.5627C6.96655 10.5627 6.63335 10.5627 6.29995 10.5627C6.29995 10.8981 6.29995 11.2336 6.29995 11.569C6.09995 11.569 5.89995 11.569 5.69995 11.569Z" fill="#2E2B25"/>
<path fill-rule="evenodd" clip-rule="evenodd" d="M10.9001 9.55664C11.1667 9.55664 11.4335 9.55664 11.7001 9.55664C11.6403 9.98009 11.7069 10.3826 11.9001 10.7642C12.2567 10.4578 12.3899 10.0553 12.3001 9.55664C12.5001 9.55664 12.7001 9.55664 12.9001 9.55664C12.9333 10.3644 12.8999 11.1695 12.8001 11.9717C12.1751 12.2308 11.5419 12.2308 10.9001 11.9717C10.9617 11.8091 11.0617 11.6749 11.2001 11.5692C11.4989 11.8202 11.7989 11.8202 12.1001 11.5692C11.0139 11.3401 10.6139 10.6693 10.9001 9.55664Z" fill="#292621"/>
<path fill-rule="evenodd" clip-rule="evenodd" d="M4.70001 9.35547C4.61341 9.89194 4.51341 10.4286 4.40001 10.9655C4.22301 10.3541 4.32301 9.81744 4.70001 9.35547Z" fill="#4B4943"/>
<path fill-rule="evenodd" clip-rule="evenodd" d="M14.1001 9.35547C14.6335 10.0934 14.6335 10.8314 14.1001 11.5693C14.1001 10.8314 14.1001 10.0934 14.1001 9.35547Z" fill="#898780"/>
<path fill-rule="evenodd" clip-rule="evenodd" d="M8.8999 9.55677C9.8349 9.32321 10.3681 9.65863 10.4999 10.5631C9.0957 10.6851 9.0289 10.8864 10.2999 11.1668C9.8247 11.6607 9.2913 11.6942 8.6999 11.2675C8.4081 10.6495 8.4747 10.0793 8.8999 9.55677Z" fill="#2E2B26"/>
<path fill-rule="evenodd" clip-rule="evenodd" d="M9.29998 9.95898C9.66738 9.98706 9.73398 10.1212 9.49998 10.3615C9.34038 10.2695 9.27378 10.1354 9.29998 9.95898Z" fill="#CECCC2"/>
<path fill-rule="evenodd" clip-rule="evenodd" d="M14.1 11.5693C14.0892 11.9984 13.8892 12.2668 13.5 12.3744C13.6052 12.0261 13.8052 11.7578 14.1 11.5693Z" fill="#66645E"/>
<path fill-rule="evenodd" clip-rule="evenodd" d="M13.5 12.374C13.3884 12.6336 13.1884 12.8013 12.9 12.8772C10.5666 13.0113 8.23345 13.0113 5.90005 12.8772C5.66565 12.7929 5.46565 12.6587 5.30005 12.4747C6.63105 12.6933 7.99765 12.7939 9.40005 12.7765C10.5 12.743 11.6 12.7095 12.7 12.6759C12.949 12.5166 13.2156 12.416 13.5 12.374Z" fill="#53524D"/>
<path fill-rule="evenodd" clip-rule="evenodd" d="M4.5 13.783C5.5022 13.7496 6.5022 13.7831 7.5 13.8836C8.1166 14.0418 8.5498 14.4108 8.8 14.9905C9.965 13.6682 11.3316 13.4334 12.9 14.2861C13.2718 14.5997 13.5718 14.9686 13.8 15.3931C14.7098 13.7206 16.0098 13.3516 17.7 14.2861C17.9574 14.5698 18.1908 14.8717 18.4 15.1918C19.9918 13.3882 21.6586 13.3212 23.4 14.9905C24.5808 13.688 25.9476 13.4532 27.5 14.2861C28.895 15.4997 29.0618 16.8749 28 18.4119C26.5784 19.7151 25.1784 19.7151 23.8 18.4119C23.3978 22.3731 21.2312 24.2178 17.3 23.9465C15.884 23.5255 14.7506 22.7205 13.9 21.5314C14.2334 21.2966 14.5666 21.0619 14.9 20.827C16.59 22.8038 18.59 23.1727 20.9 21.9339C21.8018 21.1599 22.235 20.1872 22.2 19.0157C20.7946 19.7141 19.5946 19.4457 18.6 18.2107C18.501 18.6077 18.4676 19.0102 18.5 19.4182C18.1 19.4182 17.7 19.4182 17.3 19.4182C17.3332 18.2088 17.2998 17.0013 17.2 15.7956C16.4468 14.7296 15.7134 14.7296 15 15.7956C14.9002 17.0013 14.8668 18.2088 14.9 19.4182C14.5 19.4182 14.1 19.4182 13.7 19.4182C13.7326 18.9439 13.6994 18.4743 13.6 18.0094C11.8036 19.9495 10.1036 19.8824 8.5 17.8082C7.6876 18.4491 6.7542 18.7174 5.7 18.6132C5.7 19.4853 5.7 20.3574 5.7 21.2295C5.3 21.2295 4.9 21.2295 4.5 21.2295C4.5 18.7474 4.5 16.2652 4.5 13.783Z" fill="#302D27"/>
<path fill-rule="evenodd" clip-rule="evenodd" d="M5.69995 14.9908C7.45975 14.8435 7.99295 15.5479 7.29995 17.104C6.77075 17.2041 6.23735 17.2376 5.69995 17.2046C5.69995 16.4667 5.69995 15.7287 5.69995 14.9908Z" fill="#EBE9DE"/>
<path fill-rule="evenodd" clip-rule="evenodd" d="M10.7001 14.9907C12.0639 14.9874 12.6973 15.6582 12.6001 17.0033C12.1857 17.9378 11.4857 18.2397 10.5001 17.909C9.38927 16.8472 9.45587 15.8744 10.7001 14.9907Z" fill="#EEECE1"/>
<path fill-rule="evenodd" clip-rule="evenodd" d="M20.5 14.9907C21.8638 14.9874 22.4972 15.6582 22.4 17.0033C21.9548 17.881 21.2548 18.1828 20.3 17.909C19.5576 17.4032 19.3244 16.6988 19.6 15.7958C19.8794 15.4797 20.1794 15.2114 20.5 14.9907Z" fill="#EEECE1"/>
<path fill-rule="evenodd" clip-rule="evenodd" d="M25.2999 14.9906C26.8297 14.9533 27.4629 15.6912 27.1999 17.2044C26.1665 18.3299 25.2333 18.2629 24.3999 17.0032C24.2153 16.1008 24.5153 15.43 25.2999 14.9906Z" fill="#EFEDE2"/>
</svg>

