<svg width="32" height="32" viewBox="0 0 32 32" fill="none" xmlns="http://www.w3.org/2000/svg">
<path fill-rule="evenodd" clip-rule="evenodd" d="M16.0668 0.0615234C16.1109 0.108747 16.1655 0.149773 16.2308 0.1846C16.7417 0.126221 17.2444 0.105708 17.739 0.123062C17.7827 0.451267 17.8264 0.451267 17.8701 0.123062C17.8915 0.503709 17.979 0.503709 18.1324 0.123062C18.1723 0.355872 18.3144 0.458437 18.5586 0.430754C18.5658 0.244039 18.6533 0.1825 18.8209 0.246139C18.7772 0.307677 18.7335 0.369216 18.6898 0.430754C18.7838 0.475664 18.8603 0.537202 18.9193 0.61537C18.9411 0.533319 18.963 0.451267 18.9849 0.369216C19.0058 0.58292 19.1042 0.757277 19.28 0.892293C19.2043 0.948527 19.2152 0.999807 19.3127 1.04614C19.3346 1.00511 19.3565 0.96409 19.3783 0.923062C19.5337 1.11432 19.6649 1.31945 19.7718 1.53845C19.7936 1.49742 19.8155 1.4564 19.8373 1.41537C20.015 1.72264 20.2118 1.92777 20.4275 2.03075C20.4493 1.98973 20.4712 1.9487 20.4931 1.90768C20.738 2.30178 21.0331 2.66075 21.3783 2.9846C21.2821 3.13237 21.2274 3.28622 21.2144 3.44614C21.2581 3.28203 21.3018 3.28203 21.3455 3.44614C21.3893 3.28203 21.4329 3.28203 21.4767 3.44614C21.5499 3.35694 21.5937 3.25438 21.6078 3.13845C21.6297 3.2205 21.6516 3.30255 21.6734 3.3846C21.7171 3.2205 21.7608 3.2205 21.8046 3.3846C21.8264 3.34357 21.8483 3.30255 21.8701 3.26152C21.9339 3.37259 22.0104 3.47516 22.0996 3.56922C22.0423 3.70747 22.0204 3.85106 22.0341 3.99998C18.9474 3.99575 15.8982 3.99575 12.8865 3.99998C12.8537 2.68733 12.8428 1.3745 12.8537 0.0615234C13.9247 0.0615234 14.9958 0.0615234 16.0668 0.0615234Z" fill="#F1662F"/>
<path fill-rule="evenodd" clip-rule="evenodd" d="M16.0645 0.0615234C21.3541 0.0615234 26.6437 0.0615234 31.9333 0.0615234C31.9443 4.53336 31.9333 9.00515 31.9005 13.4769C31.8644 13.2904 31.777 13.1058 31.6383 12.9231C31.6285 13.0941 31.5738 13.1248 31.4743 13.0154C31.4962 12.9949 31.5181 12.9743 31.5399 12.9538C31.4882 12.7645 31.4554 12.5697 31.4415 12.3692C31.4197 12.5538 31.3978 12.7384 31.376 12.9231C31.3322 12.0205 31.2885 12.0205 31.2448 12.9231C31.223 12.6564 31.2011 12.3897 31.1792 12.1231C31.1574 12.3282 31.1355 12.5333 31.1137 12.7384C31.0918 12.4923 31.0699 12.2461 31.0481 12C31.0262 12.2051 31.0043 12.4103 30.9825 12.6154C30.9607 12.3692 30.9388 12.1231 30.9169 11.8769C30.8951 12.082 30.8732 12.2872 30.8514 12.4923C30.8561 12.1664 30.7905 11.8587 30.6546 11.5692C30.2244 11.1895 29.8747 10.8407 29.6055 10.5231C29.5836 10.6051 29.5617 10.6872 29.5399 10.7692C29.5312 10.5831 29.4656 10.4189 29.3432 10.2769C29.3213 10.318 29.2994 10.3589 29.2776 10.4C29.2339 10.0718 29.1902 10.0718 29.1464 10.4C29.1027 9.98971 29.059 9.98971 29.0153 10.4C28.9935 10.2974 28.9716 10.1949 28.9497 10.0923C28.8374 10.0075 28.7499 9.90491 28.6874 9.7846C28.6656 9.82565 28.6437 9.86663 28.6219 9.90768C28.5781 9.57949 28.5344 9.57949 28.4907 9.90768C28.447 9.41537 28.4033 9.41537 28.3596 9.90768C28.3158 9.41537 28.2721 9.41537 28.2284 9.90768C28.1847 9.41537 28.141 9.41537 28.0973 9.90768C27.9879 9.80509 27.8787 9.70257 27.7694 9.59998C27.7584 8.01002 27.7256 6.43057 27.671 4.86152C27.671 4.59486 27.671 4.32819 27.671 4.06152C25.8025 4.00011 23.9227 3.9796 22.0317 3.99998C22.018 3.85106 22.0399 3.70747 22.0973 3.56922C22.008 3.47516 21.9315 3.37259 21.8677 3.26152C21.8459 3.30255 21.824 3.34357 21.8022 3.3846C21.7584 3.2205 21.7148 3.2205 21.671 3.3846C21.6492 3.30255 21.6273 3.2205 21.6054 3.13845C21.5913 3.25438 21.5475 3.35694 21.4743 3.44614C21.4306 3.28203 21.3869 3.28203 21.3432 3.44614C21.2994 3.28203 21.2557 3.28203 21.212 3.44614C21.2251 3.28622 21.2797 3.13237 21.3759 2.9846C21.0307 2.66075 20.7356 2.30178 20.4907 1.90768C20.4689 1.9487 20.447 1.98973 20.4251 2.03075C20.2094 1.92777 20.0127 1.72264 19.835 1.41537C19.8131 1.4564 19.7912 1.49742 19.7694 1.53845C19.6625 1.31945 19.5313 1.11432 19.3759 0.923062C19.3541 0.96409 19.3322 1.00511 19.3104 1.04614C19.2129 0.999807 19.2019 0.948527 19.2776 0.892293C19.1018 0.757277 19.0034 0.58292 18.9825 0.369216C18.9607 0.451267 18.9388 0.533319 18.9169 0.61537C18.8579 0.537202 18.7814 0.475664 18.6874 0.430754C18.7311 0.369216 18.7748 0.307677 18.8186 0.246139C18.6509 0.1825 18.5634 0.244039 18.5563 0.430754C18.3121 0.458437 18.17 0.355872 18.13 0.123062C17.9766 0.503709 17.8891 0.503709 17.8677 0.123062C17.824 0.451267 17.7803 0.451267 17.7366 0.123062C17.242 0.105708 16.7393 0.126221 16.2284 0.1846C16.1631 0.149773 16.1085 0.108747 16.0645 0.0615234Z" fill="#F1612D"/>
<path opacity="0.584" fill-rule="evenodd" clip-rule="evenodd" d="M12.7871 0C19.1696 0 25.5522 0 31.9347 0C31.9347 0.0205128 31.9347 0.0410257 31.9347 0.0615385C26.645 0.0615385 21.3555 0.0615385 16.0658 0.0615385C14.9948 0.0615385 13.9237 0.0615385 12.8527 0.0615385C12.8417 1.37452 12.8527 2.68734 12.8855 4C15.8972 3.99577 18.9464 3.99577 22.033 4C23.924 3.97961 25.8039 4.00012 27.6724 4.06154C22.7106 4.06154 17.7489 4.06154 12.7871 4.06154C12.7871 2.70769 12.7871 1.35385 12.7871 0Z" fill="#F07033"/>
<path fill-rule="evenodd" clip-rule="evenodd" d="M19.1464 8.12305C19.1464 10.0923 19.1464 12.0615 19.1464 14.0307C18.9433 14.0254 18.9214 14.0562 19.0808 14.123C19.0371 14.1641 18.9934 14.2051 18.9497 14.2461C19.0371 14.3077 19.0371 14.3692 18.9497 14.4307C19.0928 14.5894 19.2349 14.7022 19.3759 14.7692C19.3978 14.7282 19.4197 14.6872 19.4415 14.6461C19.5192 14.7616 19.5848 14.8847 19.6382 15.0154C19.66 14.9743 19.6819 14.9333 19.7038 14.8923C19.8131 15.0358 19.9223 15.1795 20.0317 15.323C20.1049 15.2339 20.1486 15.1313 20.1628 15.0154C20.278 15.072 20.2889 15.1438 20.1956 15.2307C20.3244 15.4099 20.2807 15.5739 20.0644 15.723C20.3254 15.9923 20.4456 15.941 20.4251 15.5692C20.4968 15.683 20.5842 15.7856 20.6874 15.8769C20.7092 15.8564 20.7311 15.8358 20.753 15.8154C20.7839 15.9228 20.8276 16.0254 20.8841 16.123C20.9279 16.2051 20.9715 16.2051 21.0153 16.123C21.1299 16.4242 21.272 16.6806 21.4415 16.8923C21.2981 16.9294 21.2873 17.0012 21.4087 17.1077C21.4524 17.1487 21.4961 17.1897 21.5399 17.2307C21.6273 17.1487 21.7147 17.0666 21.8021 16.9846C21.7345 16.6844 21.8001 16.6639 21.9989 16.923C22.0313 17.0445 22.0423 17.1675 22.0317 17.2923C22.3317 17.1556 22.3753 17.2479 22.1628 17.5692C22.2155 17.6782 22.2921 17.7705 22.3923 17.8461C22.6068 17.7074 22.6396 17.5535 22.4907 17.3846C22.5442 17.2929 22.5989 17.2006 22.6546 17.1077C22.742 17.1897 22.8295 17.2718 22.9169 17.3538C22.9387 17.3333 22.9606 17.3128 22.9825 17.2923C23.0215 17.3784 23.0105 17.4604 22.9497 17.5384C23.0587 17.6499 23.0696 17.7525 22.9825 17.8461C22.9387 17.723 22.8951 17.6 22.8513 17.4769C22.8148 17.607 22.7601 17.7301 22.6874 17.8461C22.7657 18.0381 22.8641 18.0586 22.9825 17.9077C23.0297 18.0069 23.0188 18.0992 22.9497 18.1846C23.0262 18.2564 23.1027 18.3282 23.1792 18.4C23.212 18.3692 23.2448 18.3384 23.2776 18.3077C23.2479 18.1165 23.2479 17.9318 23.2776 17.7538C23.0854 17.4614 23.0526 17.1435 23.1792 16.8C23.201 16.9641 23.2229 17.1282 23.2448 17.2923C23.2591 17.1122 23.2919 16.9378 23.3431 16.7692C23.2978 16.7035 23.265 16.6317 23.2448 16.5538C23.2229 16.6154 23.201 16.6769 23.1792 16.7384C23.0742 16.4042 22.9867 16.3837 22.9169 16.6769C22.8903 16.4667 22.781 16.3026 22.589 16.1846C22.5453 16.4307 22.5016 16.4307 22.4579 16.1846C22.342 16.2234 22.2654 16.1722 22.2284 16.0307C22.2612 15.9384 22.294 15.8461 22.3267 15.7538C22.4642 15.8829 22.6829 16.088 22.9825 16.3692C23.0043 16.3077 23.0262 16.2461 23.0481 16.1846C23.0651 16.3149 23.1307 16.4174 23.2448 16.4923C23.2776 16.4615 23.3103 16.4307 23.3431 16.4C23.3269 14.0129 23.3269 11.2539 23.3431 8.12305C23.4086 13.364 23.4305 18.6152 23.4087 23.8769C21.9661 23.8769 20.5235 23.8769 19.0808 23.8769C19.0808 21.9282 19.0808 19.9795 19.0808 18.0307C17.0043 18.0307 14.9278 18.0307 12.8513 18.0307C12.8513 19.9795 12.8513 21.9282 12.8513 23.8769C11.4087 23.8769 9.96606 23.8769 8.52344 23.8769C8.52344 18.6256 8.52344 13.3743 8.52344 8.12305C9.96606 8.12305 11.4087 8.12305 12.8513 8.12305C12.8513 10.0718 12.8513 12.0205 12.8513 13.9692C14.9278 13.9692 17.0043 13.9692 19.0808 13.9692C19.0591 12.0099 19.081 10.0613 19.1464 8.12305Z" fill="#F07032"/>
<path fill-rule="evenodd" clip-rule="evenodd" d="M19.1479 8.12305C20.5468 8.12305 21.9457 8.12305 23.3446 8.12305C23.3284 11.2539 23.3284 14.0129 23.3446 16.4C23.3118 16.4307 23.279 16.4615 23.2463 16.4923C23.1322 16.4174 23.0666 16.3149 23.0495 16.1846C23.0277 16.2461 23.0058 16.3077 22.984 16.3692C22.6844 16.088 22.4657 15.8829 22.3282 15.7538C22.2954 15.8461 22.2627 15.9384 22.2299 16.0307C22.2669 16.1722 22.3434 16.2234 22.4594 16.1846C22.5031 16.4307 22.5468 16.4307 22.5905 16.1846C22.7825 16.3026 22.8918 16.4667 22.9184 16.6769C22.9882 16.3837 23.0756 16.4042 23.1807 16.7384C23.2025 16.6769 23.2244 16.6154 23.2463 16.5538C23.2665 16.6317 23.2993 16.7035 23.3446 16.7692C23.2933 16.9378 23.2606 17.1122 23.2463 17.2923C23.2244 17.1282 23.2025 16.9641 23.1807 16.8C23.0541 17.1435 23.0869 17.4614 23.279 17.7538C23.2493 17.9318 23.2493 18.1165 23.279 18.3077C23.2463 18.3384 23.2135 18.3692 23.1807 18.4C23.1042 18.3282 23.0277 18.2564 22.9512 18.1846C23.0203 18.0992 23.0312 18.0069 22.984 17.9077C22.8655 18.0586 22.7672 18.0381 22.6889 17.8461C22.7616 17.7301 22.8163 17.607 22.8528 17.4769C22.8966 17.6 22.9402 17.723 22.984 17.8461C23.071 17.7525 23.0602 17.6499 22.9512 17.5384C23.012 17.4604 23.023 17.3784 22.984 17.2923C22.9621 17.3128 22.9402 17.3333 22.9184 17.3538C22.831 17.2718 22.7435 17.1897 22.6561 17.1077C22.6004 17.2006 22.5457 17.2929 22.4922 17.3846C22.6411 17.5535 22.6083 17.7074 22.3938 17.8461C22.2935 17.7705 22.217 17.6782 22.1643 17.5692C22.3768 17.2479 22.3331 17.1556 22.0331 17.2923C22.0438 17.1675 22.0328 17.0445 22.0004 16.923C21.8016 16.6639 21.736 16.6844 21.8036 16.9846C21.7162 17.0666 21.6288 17.1487 21.5413 17.2307C21.4976 17.1897 21.4539 17.1487 21.4102 17.1077C21.2887 17.0012 21.2996 16.9294 21.443 16.8923C21.2735 16.6806 21.1314 16.4242 21.0167 16.123C20.973 16.2051 20.9293 16.2051 20.8856 16.123C20.8291 16.0254 20.7853 15.9228 20.7545 15.8154C20.7326 15.8358 20.7107 15.8564 20.6889 15.8769C20.5857 15.7856 20.4983 15.683 20.4266 15.5692C20.447 15.941 20.3268 15.9923 20.0659 15.723C20.2822 15.5739 20.3259 15.4099 20.1971 15.2307C20.2904 15.1438 20.2794 15.072 20.1643 15.0154C20.1501 15.1313 20.1064 15.2339 20.0331 15.323C19.9238 15.1795 19.8146 15.0358 19.7053 14.8923C19.6834 14.9333 19.6615 14.9743 19.6397 15.0154C19.5863 14.8847 19.5207 14.7616 19.443 14.6461C19.4211 14.6872 19.3992 14.7282 19.3774 14.7692C19.2364 14.7022 19.0943 14.5894 18.9512 14.4307C19.0386 14.3692 19.0386 14.3077 18.9512 14.2461C18.9949 14.2051 19.0386 14.1641 19.0823 14.123C18.9228 14.0562 18.9447 14.0254 19.1479 14.0307C19.1479 12.0615 19.1479 10.0923 19.1479 8.12305Z" fill="#F16A30"/>
<path fill-rule="evenodd" clip-rule="evenodd" d="M31.9344 0.0615234C32.0217 6.02055 32.0217 11.9898 31.9344 17.9692C30.52 17.9812 29.1101 17.9812 27.7049 17.9692C27.6721 13.6 27.6611 9.23082 27.6721 4.86152C27.7266 6.43057 27.7594 8.01002 27.7704 9.59998C27.8797 9.70257 27.989 9.80509 28.0983 9.90768C28.142 9.41537 28.1857 9.41537 28.2295 9.90768C28.2732 9.41537 28.3169 9.41537 28.3606 9.90768C28.4043 9.41537 28.448 9.41537 28.4917 9.90768C28.5355 9.57949 28.5792 9.57949 28.6229 9.90768C28.6447 9.86663 28.6666 9.82565 28.6885 9.7846C28.751 9.90491 28.8384 10.0075 28.9508 10.0923C28.9726 10.1949 28.9945 10.2974 29.0163 10.4C29.0601 9.98971 29.1038 9.98971 29.1475 10.4C29.1912 10.0718 29.2349 10.0718 29.2786 10.4C29.3005 10.3589 29.3224 10.318 29.3442 10.2769C29.4666 10.4189 29.5322 10.5831 29.5409 10.7692C29.5628 10.6872 29.5847 10.6051 29.6065 10.5231C29.8758 10.8407 30.2255 11.1895 30.6557 11.5692C30.7916 11.8587 30.8571 12.1664 30.8524 12.4923C30.8742 12.2872 30.8961 12.082 30.918 11.8769C30.9398 12.1231 30.9617 12.3692 30.9836 12.6154C31.0054 12.4103 31.0273 12.2051 31.0491 12C31.071 12.2461 31.0929 12.4923 31.1147 12.7384C31.1365 12.5333 31.1584 12.3282 31.1803 12.1231C31.2021 12.3897 31.224 12.6564 31.2459 12.9231C31.2896 12.0205 31.3333 12.0205 31.377 12.9231C31.3988 12.7384 31.4207 12.5538 31.4426 12.3692C31.4565 12.5697 31.4893 12.7645 31.5409 12.9538C31.5191 12.9743 31.4972 12.9949 31.4754 13.0154C31.5748 13.1248 31.6295 13.0941 31.6393 12.9231C31.7781 13.1058 31.8655 13.2904 31.9016 13.4769C31.9344 9.00515 31.9453 4.53336 31.9344 0.0615234Z" fill="#ED6732"/>
<path fill-rule="evenodd" clip-rule="evenodd" d="M4.2623 14.0308C4.27323 17.0257 4.2623 20.0205 4.22952 23.0154C4.1858 22.7692 4.14209 22.7692 4.09837 23.0154C4.06671 22.957 4.05578 22.8955 4.06558 22.8308C3.97889 22.8203 3.90239 22.8408 3.83607 22.8923C3.82514 22.8718 3.81422 22.8513 3.80329 22.8308C4.14563 22.7616 4.14563 22.7103 3.80329 22.6769C3.74678 22.5087 3.69214 22.4984 3.63935 22.6461C3.59563 22.482 3.55192 22.482 3.5082 22.6461C3.46448 22.482 3.42077 22.482 3.37706 22.6461C3.33334 22.482 3.28963 22.482 3.24591 22.6461C3.23409 22.4335 3.19038 22.2284 3.11476 22.0308C3.0929 22.0718 3.07104 22.1128 3.04919 22.1538C2.98361 22.0513 2.91804 21.9487 2.85246 21.8461C2.83061 21.8872 2.80875 21.9282 2.78689 21.9692C2.74923 21.8466 2.67273 21.7543 2.55738 21.6923C2.6011 21.6718 2.64481 21.6513 2.68853 21.6308C2.5923 21.5632 2.53766 21.4709 2.52459 21.3538C2.50274 21.3949 2.48088 21.4359 2.45902 21.4769C2.42623 21.4051 2.37159 21.3538 2.29509 21.3231C2.3388 21.3026 2.38252 21.282 2.42623 21.2615C2.30602 21.2308 2.22951 21.1589 2.19673 21.0461C2.15301 21.2103 2.1093 21.2103 2.06558 21.0461C2.02186 21.2103 1.97815 21.2103 1.93443 21.0461C1.89071 21.2103 1.847 21.2103 1.80328 21.0461C1.75956 21.2103 1.71585 21.2103 1.67213 21.0461C1.62842 21.2103 1.5847 21.2103 1.54099 21.0461C1.49727 21.2103 1.45356 21.2103 1.40984 21.0461C1.36612 21.2103 1.32241 21.2103 1.27869 21.0461C1.23497 21.2103 1.19126 21.2103 1.14754 21.0461C1.12569 21.0872 1.10382 21.1282 1.08197 21.1692C0.752487 20.86 0.424617 20.5523 0.0983608 20.2461C0.0732739 20.2804 0.040487 20.3009 0 20.3077C0 18.2154 0 16.1231 0 14.0308C1.42077 14.0308 2.84153 14.0308 4.2623 14.0308Z" fill="#F07937"/>
<path fill-rule="evenodd" clip-rule="evenodd" d="M9.9671 15.7539C10.0018 15.885 10.1001 16.0081 10.2622 16.1231C10.2897 16.051 10.3333 15.9895 10.3933 15.9385C10.4917 16.0308 10.59 16.1231 10.6884 16.2154C10.547 16.2822 10.536 16.354 10.6556 16.4308C10.7622 16.2126 10.8824 16.2228 11.0163 16.4616C10.8375 16.5826 10.8156 16.7057 10.9507 16.8308C10.7967 16.9347 10.7858 17.0476 10.9179 17.1693C10.9584 17.1109 10.9475 17.0596 10.8851 17.0154C11.0241 16.9217 11.046 16.8089 10.9507 16.677C10.9709 16.6273 11.0037 16.5862 11.0491 16.5539C11.3441 16.8308 11.6392 17.1078 11.9343 17.3847C11.9125 17.4052 11.8906 17.4257 11.8687 17.4462C11.9207 17.513 11.9645 17.5848 11.9999 17.6616C11.9125 17.7305 11.8797 17.8126 11.9015 17.9078C12.0047 17.8164 12.0921 17.7138 12.1638 17.6001C12.2622 17.6924 12.3605 17.7847 12.4589 17.877C12.3887 18.063 12.3231 18.2784 12.2622 18.5231C12.2948 18.713 12.3822 18.7644 12.5245 18.677C12.4807 18.6359 12.4371 18.595 12.3933 18.5539C12.3691 18.4548 12.4128 18.3625 12.5245 18.277C12.432 18.1836 12.4429 18.1015 12.5573 18.0308C12.6424 18.0961 12.7189 18.1678 12.7868 18.2462C12.7733 20.0166 12.7733 21.873 12.7868 23.8154C11.3973 23.8025 9.99844 23.8025 8.59005 23.8154C8.57909 21.7436 8.59005 19.6718 8.62283 17.6001C8.66572 17.6737 8.6985 17.6737 8.72119 17.6001C8.66257 17.324 8.64067 17.0368 8.65562 16.7385C8.72119 16.7385 8.78677 16.7385 8.85234 16.7385C8.865 16.9815 8.89778 16.9815 8.9507 16.7385C8.99444 16.9847 9.03811 16.9847 9.08185 16.7385C9.12559 16.9847 9.16926 16.9847 9.213 16.7385C9.25673 16.9847 9.30041 16.9847 9.34414 16.7385C9.38788 16.9847 9.43155 16.9847 9.47529 16.7385C9.51903 16.9847 9.5627 16.9847 9.60644 16.7385C9.65018 16.9847 9.69385 16.9847 9.73759 16.7385C9.78133 16.9847 9.825 16.9847 9.86874 16.7385C9.91247 16.9847 9.95615 16.9847 9.99988 16.7385C10.0436 16.9847 10.0873 16.9847 10.131 16.7385C10.1529 16.8001 10.1748 16.8616 10.1966 16.9231C10.2824 16.7849 10.3261 16.6413 10.3278 16.4924C10.3059 16.4719 10.284 16.4513 10.2622 16.4308C10.2327 16.5912 10.1343 16.6732 9.9671 16.677C10.0414 16.3505 10.0414 16.0428 9.9671 15.7539Z" fill="#F17635"/>
<path fill-rule="evenodd" clip-rule="evenodd" d="M4.2623 14.0308C4.32783 18.6563 4.34969 23.2922 4.32788 27.9385C7.33955 28 10.3997 28.0205 13.5082 28C13.0229 28.042 12.5311 28.0829 12.0328 28.1231C11.276 28.0951 10.5219 28.0746 9.77051 28.0615C9.69943 28.1332 9.6448 28.2153 9.60657 28.3077C9.58474 28.2666 9.56284 28.2257 9.541 28.1846C9.3928 28.3383 9.30539 28.2972 9.2787 28.0615C9.25687 28.1231 9.23497 28.1846 9.21313 28.2461C9.11811 28.1776 9.03064 28.1161 8.95084 28.0615C8.929 28.1026 8.9071 28.1436 8.88526 28.1846C8.8267 28.1101 8.77208 28.1101 8.72133 28.1846C8.81057 28.2786 8.8871 28.3812 8.95084 28.4923C8.99457 28.3282 9.03825 28.3282 9.08198 28.4923C9.12572 28.3282 9.16939 28.3282 9.21313 28.4923C9.23497 28.4513 9.25687 28.4103 9.2787 28.3692C9.39451 28.4982 9.48192 28.6418 9.541 28.8C9.58474 28.5538 9.62841 28.5538 9.67215 28.8C9.71589 28.5538 9.75956 28.5538 9.8033 28.8C9.84703 28.5538 9.89071 28.5538 9.93444 28.8C9.97818 28.5538 10.0219 28.5538 10.0656 28.8C10.1093 28.5538 10.153 28.5538 10.1967 28.8C10.2405 28.5538 10.2841 28.5538 10.3279 28.8C10.3497 28.7385 10.3716 28.6769 10.3935 28.6154C10.4809 28.7795 10.5683 28.9436 10.6558 29.1077C10.6776 29.0666 10.6995 29.0257 10.7213 28.9846C10.8718 29.1875 11.0467 29.3721 11.2459 29.5385C11.2987 29.3907 11.3533 29.401 11.4099 29.5692C11.3602 29.6532 11.3929 29.725 11.5082 29.7846C11.561 29.6369 11.6156 29.6471 11.6722 29.8154C11.6422 29.8409 11.6203 29.8716 11.6066 29.9077C11.6736 29.9602 11.7282 30.0218 11.7705 30.0923C11.8233 29.9445 11.8779 29.9548 11.9344 30.1231C11.8868 30.2092 11.854 30.3015 11.8361 30.4C11.7923 30.0718 11.7487 30.0718 11.7049 30.4C11.6612 30.0718 11.6175 30.0718 11.5738 30.4C11.5301 30.0718 11.4864 30.0718 11.4426 30.4C11.3989 30.2359 11.3552 30.2359 11.3115 30.4C11.2282 30.2562 11.1299 30.2562 11.0164 30.4C11.1342 30.5004 11.2108 30.6234 11.2459 30.7692C11.2897 30.5231 11.3333 30.5231 11.3771 30.7692C11.4208 30.5231 11.4645 30.5231 11.5082 30.7692C11.8237 31.0034 12.0642 31.2906 12.2295 31.6308C12.3378 31.5137 12.3596 31.3906 12.2951 31.2615C12.3728 31.377 12.4384 31.5001 12.4918 31.6308C12.5356 31.4666 12.5792 31.4666 12.623 31.6308C12.6667 31.4666 12.7104 31.4666 12.7541 31.6308C12.8934 31.3295 12.9808 31.3295 13.0164 31.6308C13.0602 31.3026 13.1038 31.3026 13.1476 31.6308C13.1792 31.5724 13.1901 31.5109 13.1804 31.4461C13.2493 31.437 13.3149 31.4472 13.3771 31.4769C13.2816 31.5029 13.2488 31.5542 13.2787 31.6308C13.4099 31.6718 13.4973 31.7538 13.541 31.8769C13.607 31.7389 13.6617 31.7595 13.7049 31.9385C9.13661 31.9385 4.56832 31.9385 0 31.9385C0 28.0615 0 24.1846 0 20.3077C0.040487 20.3009 0.0732739 20.2804 0.0983608 20.2461C0.424617 20.5523 0.752487 20.86 1.08197 21.1692C1.10382 21.1282 1.12569 21.0872 1.14754 21.0461C1.19126 21.2103 1.23497 21.2103 1.27869 21.0461C1.32241 21.2103 1.36612 21.2103 1.40984 21.0461C1.45356 21.2103 1.49727 21.2103 1.54099 21.0461C1.5847 21.2103 1.62842 21.2103 1.67213 21.0461C1.71585 21.2103 1.75956 21.2103 1.80328 21.0461C1.847 21.2103 1.89071 21.2103 1.93443 21.0461C1.97815 21.2103 2.02186 21.2103 2.06558 21.0461C2.1093 21.2103 2.15301 21.2103 2.19673 21.0461C2.22951 21.1589 2.30602 21.2308 2.42623 21.2615C2.38252 21.282 2.3388 21.3026 2.29509 21.3231C2.37159 21.3538 2.42623 21.4051 2.45902 21.4769C2.48088 21.4359 2.50274 21.3949 2.52459 21.3538C2.53766 21.4709 2.5923 21.5632 2.68853 21.6308C2.64481 21.6513 2.6011 21.6718 2.55738 21.6923C2.67273 21.7543 2.74923 21.8466 2.78689 21.9692C2.80875 21.9282 2.83061 21.8872 2.85246 21.8461C2.91804 21.9487 2.98361 22.0513 3.04919 22.1538C3.07104 22.1128 3.0929 22.0718 3.11476 22.0308C3.19038 22.2284 3.23409 22.4335 3.24591 22.6461C3.28963 22.482 3.33334 22.482 3.37706 22.6461C3.42077 22.482 3.46448 22.482 3.5082 22.6461C3.55192 22.482 3.59563 22.482 3.63935 22.6461C3.69214 22.4984 3.74678 22.5087 3.80329 22.6769C4.14563 22.7103 4.14563 22.7616 3.80329 22.8308C3.81422 22.8513 3.82514 22.8718 3.83607 22.8923C3.90239 22.8408 3.97889 22.8203 4.06558 22.8308C4.05578 22.8955 4.06671 22.957 4.09837 23.0154C4.14209 22.7692 4.1858 22.7692 4.22952 23.0154C4.2623 20.0205 4.27323 17.0257 4.2623 14.0308Z" fill="#EF7E39"/>
<path fill-rule="evenodd" clip-rule="evenodd" d="M13.5095 27.9999C15.3676 27.9897 17.2256 27.9999 19.0833 28.0307C19.0818 29.3204 19.0818 30.623 19.0833 31.9384C17.291 31.9384 15.4986 31.9384 13.7063 31.9384C13.6631 31.7595 13.6084 31.7389 13.5423 31.8769C13.4986 31.7538 13.4112 31.6718 13.28 31.6307C13.2501 31.5542 13.2829 31.5029 13.3784 31.4769C13.3162 31.4471 13.2507 31.4369 13.1817 31.4461C13.1915 31.5108 13.1806 31.5724 13.1489 31.6307C13.1052 31.3025 13.0615 31.3025 13.0177 31.6307C12.9821 31.3294 12.8947 31.3294 12.7555 31.6307C12.7117 31.4666 12.668 31.4666 12.6243 31.6307C12.5806 31.4666 12.5369 31.4666 12.4932 31.6307C12.4397 31.5001 12.3741 31.377 12.2964 31.2615C12.361 31.3906 12.3391 31.5137 12.2309 31.6307C12.0655 31.2906 11.825 31.0034 11.5095 30.7692C11.4658 30.523 11.4221 30.523 11.3784 30.7692C11.3347 30.523 11.291 30.523 11.2473 30.7692C11.2121 30.6234 11.1356 30.5003 11.0177 30.3999C11.1312 30.2562 11.2295 30.2562 11.3128 30.3999C11.3566 30.2358 11.4002 30.2358 11.444 30.3999C11.4877 30.0718 11.5314 30.0718 11.5751 30.3999C11.6189 30.0718 11.6625 30.0718 11.7063 30.3999C11.75 30.0718 11.7937 30.0718 11.8374 30.3999C11.8553 30.3014 11.8881 30.2091 11.9358 30.123C11.8793 29.9548 11.8246 29.9445 11.7718 30.0923C11.7295 30.0217 11.6749 29.9602 11.6079 29.9076C11.6216 29.8716 11.6435 29.8408 11.6735 29.8153C11.617 29.6471 11.5623 29.6368 11.5095 29.7846C11.3943 29.7249 11.3615 29.6531 11.4112 29.5692C11.3547 29.4009 11.3 29.3907 11.2473 29.5384C11.048 29.3721 10.8732 29.1875 10.7227 28.9846C10.7008 29.0256 10.6789 29.0666 10.6571 29.1076C10.5697 28.9435 10.4822 28.7795 10.3948 28.6153C10.373 28.6769 10.3511 28.7384 10.3292 28.7999C10.2855 28.5538 10.2418 28.5538 10.1981 28.7999C10.1543 28.5538 10.1107 28.5538 10.0669 28.7999C10.0232 28.5538 9.97951 28.5538 9.93577 28.7999C9.89204 28.5538 9.84836 28.5538 9.80463 28.7999C9.76089 28.5538 9.71722 28.5538 9.67348 28.7999C9.62974 28.5538 9.58607 28.5538 9.54233 28.7999C9.48325 28.6417 9.39584 28.4982 9.28003 28.3692C9.2582 28.4102 9.2363 28.4512 9.21446 28.4923C9.17072 28.3281 9.12705 28.3281 9.08331 28.4923C9.03957 28.3281 8.9959 28.3281 8.95216 28.4923C8.88843 28.3812 8.8119 28.2786 8.72266 28.1846C8.77341 28.11 8.82803 28.11 8.88659 28.1846C8.90843 28.1435 8.93033 28.1025 8.95216 28.0615C9.03197 28.116 9.11944 28.1775 9.21446 28.2461C9.2363 28.1846 9.2582 28.123 9.28003 28.0615C9.30672 28.2972 9.39413 28.3382 9.54233 28.1846C9.56417 28.2256 9.58607 28.2666 9.6079 28.3076C9.64613 28.2152 9.70076 28.1332 9.77184 28.0615C10.5232 28.0745 11.2773 28.095 12.0341 28.123C12.5324 28.0829 13.0242 28.0419 13.5095 27.9999Z" fill="#F07937"/>
<path opacity="0.584" fill-rule="evenodd" clip-rule="evenodd" d="M4.32788 27.9385C9.26775 27.9385 14.2077 27.9385 19.1476 27.9385C19.1476 29.2923 19.1476 30.6462 19.1476 32C12.7651 32 6.38252 32 0 32C0 31.9795 0 31.959 0 31.9385C4.56832 31.9385 9.13661 31.9385 13.7049 31.9385C15.4973 31.9385 17.2897 31.9385 19.082 31.9385C19.0805 30.6231 19.0805 29.3205 19.082 28.0308C17.2242 28 15.3663 27.9897 13.5082 28C10.3997 28.0205 7.33955 28 4.32788 27.9385Z" fill="#F07033"/>
</svg>
