<svg width="32" height="32" viewBox="0 0 32 32" fill="none" xmlns="http://www.w3.org/2000/svg">
    <g clip-path="url(#clip0_3782_1086)">
        <path fill-rule="evenodd" clip-rule="evenodd"
            d="M-0.0800781 -0.0800781C10.5866 -0.0800781 21.2532 -0.0800781 31.9199 -0.0800781C31.9199 10.5866 31.9199 21.2532 31.9199 31.9199C21.2532 31.9199 10.5866 31.9199 -0.0800781 31.9199C-0.0800781 21.2532 -0.0800781 10.5866 -0.0800781 -0.0800781Z"
            fill="#00487E" />
        <path fill-rule="evenodd" clip-rule="evenodd"
            d="M20.7201 7.44039C20.7063 8.13744 20.6529 8.83079 20.5601 9.52039C20.1073 12.1306 19.6539 14.7439 19.2001 17.3604C18.7484 17.8517 18.2151 17.9585 17.6001 17.6804C17.6583 16.0055 17.8983 14.3521 18.3201 12.7204C16.8268 12.7204 15.3334 12.7204 13.8401 12.7204C13.5243 14.4328 13.1776 16.1394 12.8001 17.8404C12.3201 18.2671 11.8401 18.2671 11.3601 17.8404C11.7515 14.3894 12.3915 10.9761 13.2801 7.60039C13.7466 7.35823 14.1733 7.41157 14.5601 7.76039C14.5961 8.62175 14.5161 9.47507 14.3201 10.3204C14.1679 10.5474 14.1146 10.814 14.1601 11.1204C15.6825 11.1727 17.1758 11.1194 18.6401 10.9604C18.8601 9.80527 19.1001 8.63194 19.3601 7.44039C19.8321 7.01727 20.2854 7.01727 20.7201 7.44039Z"
            fill="#F6F8FA" />
        <path fill-rule="evenodd" clip-rule="evenodd"
            d="M20.7201 7.44043C20.8257 7.67467 20.8789 7.94134 20.8801 8.24043C20.8989 8.71814 20.7924 9.14481 20.5601 9.52043C20.6529 8.83083 20.7063 8.13749 20.7201 7.44043Z"
            fill="#3D6E98" />
        <path fill-rule="evenodd" clip-rule="evenodd"
            d="M14.32 10.3203C14.32 10.5336 14.32 10.747 14.32 10.9603C15.76 10.9603 17.2 10.9603 18.64 10.9603C17.1757 11.1193 15.6824 11.1726 14.16 11.1203C14.1145 10.814 14.1678 10.5473 14.32 10.3203Z"
            fill="#357099" />
        <path fill-rule="evenodd" clip-rule="evenodd"
            d="M16.72 24.3996C15.1465 24.4663 13.5998 24.573 12.08 24.7196C11.225 24.7461 10.3717 24.7194 9.52002 24.6396C9.11051 24.1716 9.11051 23.6916 9.52002 23.1996C13.2424 22.8061 16.9757 22.5929 20.72 22.5596C21.1407 23.0714 21.0874 23.5514 20.56 23.9996C19.2837 24.1762 18.0037 24.3095 16.72 24.3996Z"
            fill="#F5F8F9" />
        <path fill-rule="evenodd" clip-rule="evenodd"
            d="M16.7201 24.4004C16.3791 24.5306 16.0058 24.6106 15.6001 24.6404C14.428 24.7204 13.2546 24.747 12.0801 24.7204C13.5999 24.5738 15.1465 24.4671 16.7201 24.4004Z"
            fill="#2B6390" />
    </g>
    <defs>
        <clipPath id="clip0_3782_1086">
            <rect width="32" height="32" rx="16" fill="white" />
        </clipPath>
    </defs>
</svg>