<svg width="32" height="32" viewBox="0 0 33 33" fill="none" xmlns="http://www.w3.org/2000/svg">
    <path opacity="0.991" fill-rule="evenodd" clip-rule="evenodd"
        d="M16.2952 0.5C23.3234 0.530743 28.4162 3.65451 31.5736 9.87143C33.3283 14.2891 33.3283 18.7081 31.5736 23.1286C28.5506 29.1926 23.6294 32.3163 16.8102 32.5C9.60894 32.2402 4.61145 28.8117 1.81784 22.2143C0.224647 17.2472 0.682429 12.4853 3.19119 7.92857C6.31291 3.27429 10.6808 0.798057 16.2952 0.5Z"
        fill="#87C65A" />
    <path fill-rule="evenodd" clip-rule="evenodd"
        d="M18.584 23.8143C18.6032 22.2139 18.584 20.6139 18.5268 19.0143C18.4696 18.9572 18.4124 18.9 18.3551 18.8429C17.3632 18.7667 16.3715 18.7667 15.3796 18.8429C15.3223 18.9 15.2651 18.9572 15.2079 19.0143C15.1507 20.6139 15.1316 22.2139 15.1507 23.8143C12.3502 23.018 10.5001 21.2275 9.60008 18.4429C9.4529 17.3433 9.39568 16.2385 9.42841 15.1286C8.93103 15.1476 8.43514 15.1285 7.94062 15.0715C7.87664 14.9886 7.83853 14.8934 7.82617 14.7857C8.30902 13.9788 8.86213 13.2168 9.48563 12.5C9.52374 11.2048 9.56197 9.90951 9.60008 8.61431C10.1342 8.46197 10.6682 8.46197 11.2023 8.61431C11.2404 9.10951 11.2786 9.60483 11.3168 10.1C11.7159 9.54929 12.1546 9.035 12.6329 8.55717C15.494 8.48094 18.3551 8.48094 21.2163 8.55717C22.8396 10.5215 24.4227 12.5215 25.9658 14.5572C26.0482 14.7414 26.0292 14.9128 25.9085 15.0715C25.3758 15.1285 24.8418 15.1476 24.3063 15.1286C24.6937 19.5367 22.7862 22.4319 18.584 23.8143Z"
        fill="#FEFEFE" />
    <path fill-rule="evenodd" clip-rule="evenodd"
        d="M20.1864 15.1282C20.798 15.1092 21.4084 15.1283 22.0176 15.1853C22.0748 15.2425 22.132 15.2996 22.1892 15.3568C22.2656 16.1568 22.2656 16.9568 22.1892 17.7568C22.132 17.8139 22.0748 17.871 22.0176 17.9282C21.4072 18.0044 20.7968 18.0044 20.1864 17.9282C20.1292 17.871 20.072 17.8139 20.0148 17.7568C19.9384 16.9568 19.9384 16.1568 20.0148 15.3568C20.0968 15.2946 20.1541 15.2184 20.1864 15.1282Z"
        fill="#312F2F" />
    <path fill-rule="evenodd" clip-rule="evenodd"
        d="M18.5841 23.8138C17.4375 24.1053 16.293 24.1053 15.1507 23.8138C15.1316 22.2133 15.1507 20.6133 15.2079 19.0138C15.2652 18.9566 15.3224 18.8995 15.3796 18.8423C16.3715 18.7661 17.3633 18.7661 18.3552 18.8423C18.4124 18.8995 18.4696 18.9566 18.5269 19.0138C18.5841 20.6133 18.6032 22.2133 18.5841 23.8138Z"
        fill="#2C2B2A" />
    <path fill-rule="evenodd" clip-rule="evenodd"
        d="M17.4395 21.1855C17.6303 21.1855 17.8209 21.1855 18.0117 21.1855C18.0117 21.3761 18.0117 21.5665 18.0117 21.757C17.4486 21.881 17.2579 21.6905 17.4395 21.1855Z"
        fill="#EAE9E9" />
</svg>