<svg width="32" height="32" viewBox="0 0 32 32" fill="none" xmlns="http://www.w3.org/2000/svg">
    <rect width="32" height="32" fill="black" />
    <path fill-rule="evenodd" clip-rule="evenodd"
        d="M23.9521 22.7759C24.2242 22.0867 24.5934 21.4507 25.0597 20.8669C25.358 20.9845 25.6043 21.1754 25.7981 21.4396C25.5013 22.1158 25.0704 22.6884 24.5059 23.1577C24.3645 22.9454 24.1799 22.8182 23.9521 22.7759Z"
        fill="#D2E5E9" />
    <path fill-rule="evenodd" clip-rule="evenodd"
        d="M23.9523 20.1035C24.3662 20.7102 24.3045 21.3466 23.7677 22.0124C23.1024 21.3355 23.1641 20.6991 23.9523 20.1035Z"
        fill="#D3E8EB" />
    <path fill-rule="evenodd" clip-rule="evenodd"
        d="M8.81548 20.1036C9.32254 20.0436 9.81482 20.1074 10.2923 20.2945C12.3266 23.8283 15.2802 25.1645 19.1529 24.3032C19.761 24.6002 20.2533 25.0454 20.6297 25.6395C15.2566 27.6992 11.1955 26.1087 8.44629 20.8671C8.5802 20.6064 8.70329 20.3517 8.81548 20.1036Z"
        fill="#E8EFF2" />
    <path fill-rule="evenodd" clip-rule="evenodd"
        d="M28.0135 7.12283C26.049 9.15568 24.2031 11.3191 22.4756 13.6132C23.5954 16.1849 23.3491 18.6031 21.7372 20.8671C22.3822 21.665 23.1206 22.3015 23.9524 22.776C24.1484 23.5564 24.5793 24.1928 25.2446 24.685C25.3609 23.4877 25.7917 22.4695 26.5367 21.6307C27.5808 22.4889 28.6884 23.2525 29.8595 23.9214C30.2708 24.3883 30.3324 24.8972 30.0441 25.4485C29.5523 26.2732 28.9985 27.0368 28.3827 27.7392C28.0135 28.2482 27.6443 28.7575 27.2751 29.2664C26.3721 29.928 25.3874 30.2464 24.3216 30.2209C22.7217 27.803 21.1219 25.3848 19.522 22.9669C14.8438 23.7881 12.0133 21.8155 11.0306 17.0493C9.1805 16.9859 7.33453 17.0496 5.49265 17.2401C5.96001 17.3581 6.39075 17.549 6.78483 17.8128C6.91785 18.5462 7.2255 19.1827 7.70782 19.7217C6.17943 20.4517 4.5796 20.7698 2.90829 20.6762C2.43531 20.1383 2.06612 19.5656 1.8007 18.9582C1.73953 17.2989 1.80107 15.6447 1.9853 13.995C2.05929 13.3002 2.36694 12.7912 2.90829 12.4678C3.15443 12.4678 3.40054 12.4678 3.64668 12.4678C4.63121 12.5951 5.6157 12.7224 6.60023 12.8496C8.06889 13.3288 9.60721 13.7106 11.2152 13.995C12.3654 12.5985 13.7807 11.5168 15.4609 10.7498C16.9984 10.4395 18.4752 10.6304 19.8912 11.3225C20.9812 10.1517 21.8427 8.81547 22.4756 7.31372C21.6486 6.94072 20.7872 6.74982 19.8912 6.74104C20.0073 5.42518 20.3149 4.15258 20.8142 2.92319C20.965 2.19413 21.3957 1.81235 22.1064 1.77783C24.4368 2.37785 26.4673 3.5232 28.1981 5.2139C28.4344 5.88775 28.3727 6.52407 28.0135 7.12283Z"
        fill="#F4F8F8" />
    <path fill-rule="evenodd" clip-rule="evenodd"
        d="M9.18451 17.8127C10.1514 18.1575 10.3975 18.7936 9.9229 19.7217C9.38753 19.2063 9.14139 18.5702 9.18451 17.8127Z"
        fill="#BACFD4" />
    <path fill-rule="evenodd" clip-rule="evenodd"
        d="M7.70776 17.431C8.03132 17.381 8.27746 17.5081 8.44615 17.8128C8.65792 18.408 8.90403 18.9807 9.18454 19.5308C7.96398 19.5152 7.47173 18.8154 7.70776 17.431Z"
        fill="#CFDFE3" />
    <path fill-rule="evenodd" clip-rule="evenodd"
        d="M16.1992 14.7585C18.8742 14.7796 19.6126 15.9887 18.4144 18.3855C15.4336 18.7108 14.6952 17.5017 16.1992 14.7585Z"
        fill="#314A52" />
    <path fill-rule="evenodd" clip-rule="evenodd"
        d="M24.3215 11.7041C25.5724 11.8469 26.2495 12.6104 26.3521 13.9948C26.5984 15.7766 26.5984 17.558 26.3521 19.3398C25.6462 20.292 24.9691 20.2282 24.3215 19.1489C24.6457 16.6253 24.6457 14.1439 24.3215 11.7041Z"
        fill="#ECF4F6" />
    <path fill-rule="evenodd" clip-rule="evenodd"
        d="M14.7225 13.613C15.5188 13.8243 15.4573 14.2061 14.5379 14.7584C14.3645 14.3473 14.426 13.9655 14.7225 13.613Z"
        fill="#4A5556" />
    <path fill-rule="evenodd" clip-rule="evenodd"
        d="M18.7837 8.65007C19.5829 8.50342 20.1982 8.75796 20.6296 9.41364C20.2483 9.7771 19.8176 9.7771 19.3375 9.41364C18.9572 9.28532 18.7726 9.03078 18.7837 8.65007Z"
        fill="#C1DBDD" />
    <path fill-rule="evenodd" clip-rule="evenodd"
        d="M14.7226 7.12282C16.0982 6.99966 17.4519 7.12694 18.7837 7.50461C18.5084 7.97657 18.3853 8.4856 18.4145 9.03175C14.7729 8.65599 12.004 10.0558 10.1077 13.2314C9.55387 13.0405 9.00008 12.8496 8.44629 12.6587C9.8469 9.9089 11.939 8.06362 14.7226 7.12282Z"
        fill="#EBF1F5" />
</svg>