<svg width="32" height="32" viewBox="0 0 33 33" fill="none" xmlns="http://www.w3.org/2000/svg">
    <path opacity="0.864" fill-rule="evenodd" clip-rule="evenodd"
        d="M10.2843 0.535678C28.017 -1.0927 35.1606 6.49215 31.7149 23.2902C24.7218 33.1322 15.9454 34.9286 5.38593 28.6795C-2.40413 17.5517 -0.771327 8.17042 10.2843 0.535678ZM12.7335 2.93089C25.3561 2.69901 30.8669 8.68705 29.2657 20.895C25.5424 28.2035 19.6235 30.7984 11.5089 28.6795C4.03563 25.0383 1.38233 19.2499 3.54902 11.3141C5.71266 7.39562 8.77417 4.60121 12.7335 2.93089ZM15.1827 7.72133C23.5419 8.90814 26.1952 13.2994 23.1427 20.895C15.8226 26.4064 10.7201 24.8095 7.83513 16.1046C8.62252 11.7525 11.0718 8.9581 15.1827 7.72133Z"
        fill="#ED3057" />
    <path opacity="0.85" fill-rule="evenodd" clip-rule="evenodd"
        d="M12.7335 5.32602C24.2095 4.7681 28.9038 9.95773 26.8165 20.8949C23.2693 26.4697 18.1667 28.2661 11.5089 26.2842C3.09746 18.7679 3.50567 11.7817 12.7335 5.32602ZM15.1827 7.72123C11.0717 8.958 8.6225 11.7524 7.83512 16.1045C10.7201 24.8094 15.8226 26.4063 23.1427 20.8949C26.1952 13.2993 23.5419 8.90805 15.1827 7.72123Z"
        fill="#ED3057" />
</svg>