<svg width="32" height="32" viewBox="0 0 32 32" fill="none" xmlns="http://www.w3.org/2000/svg">
    <g clip-path="url(#clip0_3365_4100)">
        <rect width="32" height="32" fill="#FAFAFA" />
        <path
            d="M32 16.7508C32 22.3659 29.3602 27.3334 25.3106 30.3735C20.8784 33.6985 14.6102 31.7121 12.728 26.3577C12.2195 24.9142 11.8985 23.1993 11.8985 21.1671C11.8985 11.735 25.4133 5.64405 24.5942 5.64405C23.775 5.64405 17.2192 10.9474 12.9231 10.9474C3.20621 10.9448 0.802662 15.5762 0.802662 21.9521L0.79239 21.9628C0.355848 20.5651 0.0887888 19.084 0.0194544 17.5492C-0.43763 7.39928 7.21728 -0.540993 16.9136 0.0288597C25.326 0.52345 32 7.82132 32 16.7481V16.7508Z"
            fill="#003642" />
        <path
            d="M7.80785 17.2856C8.25033 17.2856 8.609 16.9102 8.609 16.447C8.609 15.9838 8.25033 15.6084 7.80785 15.6084C7.36538 15.6084 7.00666 15.9838 7.00666 16.447C7.00666 16.9102 7.36538 17.2856 7.80785 17.2856Z"
            fill="#003642" />
    </g>
    <defs>
        <clipPath id="clip0_3365_4100">
            <rect width="32" height="32" fill="white" />
        </clipPath>
    </defs>
</svg>