<svg width="32" height="32" viewBox="0 0 32 32" fill="none" xmlns="http://www.w3.org/2000/svg">
    <rect width="32" height="32" fill="#FAFAFA" />
    <path opacity="0.983" fill-rule="evenodd" clip-rule="evenodd"
        d="M0.576802 1.73242C4.34524 1.73242 8.11367 1.73242 11.8821 1.73242C13.3233 1.82841 14.7846 1.88617 16.2658 1.90571C14.4151 2.91093 12.7616 4.18169 11.3053 5.71798C13.0417 4.98352 14.8105 4.29038 16.6119 3.63856C21.6342 1.99775 26.7486 1.61268 31.9548 2.48332C32.0511 2.89488 31.9935 3.29921 31.7818 3.69632C26.9366 12.2451 22.0915 20.7938 17.2464 29.3425C17.0124 29.7113 16.724 30.0194 16.3812 30.2667C16.112 30.2667 15.8428 30.2667 15.5736 30.2667C15.273 29.945 14.9846 29.5984 14.7084 29.227C13.4395 26.955 12.1705 24.6831 10.9016 22.4111C10.9676 21.2885 11.3137 20.2488 11.9398 19.292C13.3293 17.2456 15.002 15.455 16.958 13.9201C20.8708 11.1231 20.7554 10.969 16.6119 13.4581C14.2339 14.8925 12.0997 16.6447 10.2094 18.7144C9.50735 19.591 8.87287 20.5152 8.30594 21.4869C7.93482 20.9327 7.68488 20.3166 7.5561 19.6386C7.36394 18.6017 7.32549 17.562 7.44074 16.5194C4.8974 12.1947 2.41716 7.84332 0 3.46527C0 3.04168 0 2.6181 0 2.19452C0.195082 2.03698 0.38735 1.88295 0.576802 1.73242ZM15.689 20.3317C16.8784 20.4051 17.2437 20.9827 16.7849 22.0646C16.1409 22.567 15.5641 22.49 15.0545 21.8335C14.9776 21.5254 14.9776 21.2174 15.0545 20.9093C15.2541 20.6896 15.4656 20.497 15.689 20.3317Z"
        fill="#221F1F" />
</svg>