<svg width="32" height="32" viewBox="0 0 32 32" fill="none" xmlns="http://www.w3.org/2000/svg">
    <path fill-rule="evenodd" clip-rule="evenodd"
        d="M16.1311 0.00890336C17.7822 -0.0241154 19.4286 0.0347042 21.0699 0.18538C24.06 0.665838 26.5001 2.07765 28.3899 4.42082C30.139 7.41444 30.139 10.4145 28.3899 13.4211C27.9784 13.8329 27.5667 14.2447 27.1552 14.6565C26.9174 21.7769 23.2426 25.1595 16.1311 24.8039C11.5971 23.5043 9.24531 20.5042 9.07566 15.8036C9.37968 10.9685 11.9079 8.02728 16.6603 6.97973C20.4344 6.66257 23.4329 8.01556 25.6559 11.0387C25.8027 11.1601 25.9202 11.1306 26.0087 10.9505C26.9797 8.53964 26.4505 6.51016 24.4212 4.86201C23.04 3.90131 21.5112 3.34246 19.8352 3.18548C18.8088 2.98209 17.7505 2.95267 16.6603 3.09724C16.027 3.15206 15.4391 3.29913 14.8964 3.53844C8.9336 5.40679 5.69987 9.46576 5.19518 15.7153C5.60206 22.0319 8.77701 26.2379 14.72 28.3334C19.3272 29.4311 23.3841 28.4017 26.8906 25.2451C27.5912 26.0051 28.2968 26.77 29.0073 27.5393C24.9645 31.3016 20.2021 32.6839 14.72 31.6865C8.06682 29.8536 3.92176 25.5888 2.28481 18.8919C1.31878 10.4987 4.64071 4.5279 12.2506 0.979525C13.4982 0.455283 14.7916 0.131731 16.1311 0.00890336Z"
        fill="#14BFDF" />
    <path fill-rule="evenodd" clip-rule="evenodd"
        d="M17.0475 10.0865C19.1314 9.9656 20.9289 10.6139 22.4398 12.0313C22.8535 12.4364 23.0892 12.9078 23.147 13.4456C22.6219 13.7818 22.0622 14.047 21.4674 14.2412C18.5993 15.0225 15.8294 14.7868 13.158 13.534C12.9508 13.2037 12.9803 12.8796 13.2464 12.5617C14.2283 11.2627 15.4953 10.4377 17.0475 10.0865Z"
        fill="#FBFEFE" />
    <path fill-rule="evenodd" clip-rule="evenodd"
        d="M12.2742 16.627C14.0529 17.463 15.9388 17.8755 17.9316 17.8645C19.8776 17.8053 21.7635 17.4517 23.5891 16.8037C23.7878 17.4225 23.6994 18.0118 23.3239 18.5717C20.896 22.0901 17.8609 22.7089 14.2189 20.4281C13.1732 19.368 12.525 18.1009 12.2742 16.627Z"
        fill="#FBFEFE" />
</svg>