<svg width="32" height="32" viewBox="0 0 33 33" fill="none" xmlns="http://www.w3.org/2000/svg">
    <path fill-rule="evenodd" clip-rule="evenodd"
        d="M0.5 0.5C11.1667 0.5 21.8334 0.5 32.5 0.5C32.5 11.1667 32.5 21.8334 32.5 32.5C21.8334 32.5 11.1667 32.5 0.5 32.5C0.5 21.8334 0.5 11.1667 0.5 0.5Z"
        fill="#1E446E" />
    <path fill-rule="evenodd" clip-rule="evenodd"
        d="M28.4799 22.0478C28.4523 22.2073 28.506 22.3144 28.6408 22.3694C28.6408 22.5302 28.6408 22.691 28.6408 22.8518C28.1583 22.8518 27.6759 22.8518 27.1935 22.8518C27.012 22.0079 26.476 21.6328 25.5855 21.7262C24.4393 21.7614 24.1712 22.2705 24.7815 23.2538C25.8781 23.4228 26.9502 23.6909 27.9975 24.0578C28.2923 24.2455 28.5335 24.4867 28.7212 24.7815C29.1426 26.6471 28.419 27.7459 26.5503 28.0779C25.2518 28.3418 24.1529 27.9934 23.2538 27.0327C23.0047 26.5805 22.8708 26.0981 22.8518 25.5855C23.3371 25.5589 23.8195 25.5858 24.299 25.6659C24.638 26.8 25.3885 27.1752 26.5503 26.7915C27.2924 26.6183 27.5336 26.1628 27.2739 25.4247C27.1935 25.3443 27.1131 25.2639 27.0327 25.1835C26.1398 24.895 25.2287 24.6806 24.299 24.5403C23.0777 23.9818 22.6757 23.0438 23.093 21.7262C23.4286 21.1148 23.9379 20.7128 24.6207 20.5201C25.7585 20.3021 26.8306 20.4629 27.8367 21.0026C28.196 21.266 28.4103 21.6144 28.4799 22.0478Z"
        fill="#F1F3F6" />
    <path fill-rule="evenodd" clip-rule="evenodd"
        d="M4.35938 20.6005C4.84179 20.6005 5.3242 20.6005 5.80661 20.6005C5.80661 23.0125 5.80661 25.4246 5.80661 27.8366C5.3242 27.8366 4.84179 27.8366 4.35938 27.8366C4.35938 25.4246 4.35938 23.0125 4.35938 20.6005Z"
        fill="#FEFEFE" />
    <path fill-rule="evenodd" clip-rule="evenodd"
        d="M8.7009 26.5502C9.79652 26.7096 10.9221 26.7633 12.0778 26.711C12.0778 27.0862 12.0778 27.4615 12.0778 27.8366C10.4697 27.8366 8.8617 27.8366 7.25366 27.8366C7.25366 25.4246 7.25366 23.0125 7.25366 20.6005C7.73607 20.6005 8.21849 20.6005 8.7009 20.6005C8.7009 22.5837 8.7009 24.567 8.7009 26.5502Z"
        fill="#FEFEFE" />
    <path fill-rule="evenodd" clip-rule="evenodd"
        d="M13.2036 20.6005C13.686 20.6005 14.1684 20.6005 14.6508 20.6005C14.6508 23.0125 14.6508 25.4246 14.6508 27.8366C14.1684 27.8366 13.686 27.8366 13.2036 27.8366C13.2036 25.4246 13.2036 23.0125 13.2036 20.6005Z"
        fill="#FDFDFD" />
    <path fill-rule="evenodd" clip-rule="evenodd"
        d="M18.0275 20.6004C18.6796 20.5483 19.3228 20.6019 19.9572 20.7612C20.8054 23.0977 21.5557 25.4562 22.2084 27.8366C21.726 27.8366 21.2436 27.8366 20.7612 27.8366C20.6067 27.3661 20.4996 26.8837 20.4396 26.3894C19.4748 26.3894 18.51 26.3894 17.5451 26.3894C17.3906 26.8599 17.2835 27.3423 17.2235 27.8366C16.6876 27.8366 16.1514 27.8366 15.6155 27.8366C16.3877 25.4127 17.1917 23.0006 18.0275 20.6004Z"
        fill="#F4F5F7" />
    <path fill-rule="evenodd" clip-rule="evenodd"
        d="M28.6408 22.3694C28.506 22.3144 28.4523 22.2073 28.48 22.0478C28.5486 20.9337 29.1383 20.4245 30.2488 20.5201C30.9612 21.1277 31.0684 21.8246 30.5704 22.6106C30.3237 22.759 30.0557 22.8394 29.7664 22.8518C29.357 22.7622 28.9818 22.6014 28.6408 22.3694Z"
        fill="#C7CED9" />
    <path fill-rule="evenodd" clip-rule="evenodd"
        d="M29.2839 22.3693C29.0385 22.2098 28.9312 21.9686 28.9623 21.6457C29.0158 21.458 29.0695 21.2705 29.1231 21.0829C29.2806 21.4987 29.3342 21.9276 29.2839 22.3693Z"
        fill="#1F4570" />
    <path fill-rule="evenodd" clip-rule="evenodd"
        d="M29.4448 20.9221C30.1352 20.611 30.5639 20.8522 30.7313 21.6457C30.6127 22.3597 30.3982 22.3866 30.088 21.7261C30.3672 21.0926 30.1528 20.8245 29.4448 20.9221Z"
        fill="#35557D" />
    <path fill-rule="evenodd" clip-rule="evenodd"
        d="M29.2839 22.3693C29.5324 22.2519 29.6663 22.0376 29.6859 21.7261C30.3259 22.4783 30.192 22.6927 29.2839 22.3693Z"
        fill="#3E5C83" />
    <path fill-rule="evenodd" clip-rule="evenodd"
        d="M18.8316 22.5302C19.039 22.6199 19.173 22.7807 19.2336 23.0126C19.4967 23.6895 19.6844 24.3865 19.7964 25.103C19.1973 25.155 18.6076 25.1012 18.0276 24.9422C18.3904 24.1753 18.6584 23.3713 18.8316 22.5302Z"
        fill="#254873" />
    <path fill-rule="evenodd" clip-rule="evenodd"
        d="M8.70093 26.5503C9.88015 26.5503 11.0594 26.5503 12.2386 26.5503C12.2879 27.0142 12.2343 27.4431 12.0778 27.8367C12.0778 27.4616 12.0778 27.0863 12.0778 26.7111C10.9222 26.7634 9.79655 26.7096 8.70093 26.5503Z"
        fill="#BBC3CE" />
</svg>