<svg width="32" height="32" viewBox="0 0 32 32" fill="none" xmlns="http://www.w3.org/2000/svg">
    <g clip-path="url(#clip0_2110_1118)">
        <path d="M0 0H32V32H0V0Z" fill="#0450D5" />
        <path fill-rule="evenodd" clip-rule="evenodd"
            d="M14.2816 9.58092C13.881 9.14655 13.6682 8.57146 13.6896 7.98092C13.6966 7.38656 13.9248 6.81613 14.3296 6.38092C14.5389 6.17013 14.7883 6.00347 15.0632 5.89079C15.338 5.77811 15.6326 5.72171 15.9296 5.72492C16.2196 5.71818 16.5076 5.77319 16.7746 5.88629C17.0416 5.99939 17.2816 6.168 17.4784 6.38092C17.6943 6.58732 17.8656 6.83579 17.9818 7.11098C18.0979 7.38617 18.1564 7.68224 18.1536 7.98092C18.1573 8.28241 18.0964 8.58119 17.9749 8.85717C17.8535 9.13315 17.6744 9.37993 17.4496 9.58092C17.2384 9.78794 16.9883 9.95109 16.7136 10.0609C16.439 10.1708 16.1454 10.2252 15.8496 10.2209C15.5584 10.2274 15.2689 10.174 14.9991 10.0639C14.7294 9.95379 14.4852 9.78939 14.2816 9.58092ZM20.6816 21.0337C18.448 27.2001 9.94564 28.8609 11.52 20.8641L13.376 11.8081H17.28C16.3648 16.6401 15.7184 19.5777 15.0688 22.9505C14.4288 26.3777 18.6144 23.8337 19.5712 21.0305L20.6816 21.0337Z"
            fill="white" />
    </g>
    <defs>
        <clipPath id="clip0_2110_1118">
            <rect width="32" height="32" fill="white" />
        </clipPath>
    </defs>
</svg>