<svg xmlns="http://www.w3.org/2000/svg" width="288" height="288" fill="none"><rect width="260" height="260" y="28" fill="#0073AA" rx="40"/><rect width="96" height="96" x="192" fill="#191E23" rx="26"/><rect width="17.369" height="17.369" x="219.218" y="20.009" fill="#fff" rx="2.546"/><path fill="#fff" d="M219.218 49.746v24.617a2.546 2.546 0 0 0 2.546 2.545h12.278a2.545 2.545 0 0 0 2.545-2.545V42.336c0-1.981-2.164-3.203-3.86-2.18l-12.279 7.41a2.547 2.547 0 0 0-1.23 2.18ZM238.983 34.833V22.554a2.546 2.546 0 0 1 2.545-2.545h13.177c.864 0 1.693.34 2.309.945l7.128 7.01c.573.562.895 1.332.895 2.134v17.03c0 .803-.323 1.573-.895 2.136l-7.271 7.149a2.548 2.548 0 0 1-1.785.73h-13.558a2.546 2.546 0 0 1-2.545-2.545V42.319a2.546 2.546 0 0 1 2.545-2.545h13.477a1.198 1.198 0 0 0 0-2.396h-13.477a2.546 2.546 0 0 1-2.545-2.545Z"/><path fill="#fff" fill-rule="evenodd" d="M176 109H84a3 3 0 0 0-3 3v32a3 3 0 0 0 3 3h92a3 3 0 0 0 3-3v-32a3 3 0 0 0-3-3Zm-92-7c-5.523 0-10 4.477-10 10v32c0 5.523 4.477 10 10 10h92c5.523 0 10-4.477 10-10v-32c0-5.523-4.477-10-10-10H84Z" clip-rule="evenodd"/><mask id="a" width="112" height="52" x="74" y="102" maskUnits="userSpaceOnUse" style="mask-type:alpha"><rect width="112" height="52" x="74" y="102" fill="#D9D9D9" rx="10"/></mask><g mask="url(#a)"><mask id="b" width="111" height="112" x="72" y="77" maskUnits="userSpaceOnUse" style="mask-type:alpha"><rect width="103" height="103" x="-4" y="4" fill="#D9D9D9" stroke="#fff" stroke-width="8" rx="22" transform="matrix(-1 0 0 1 175 77.42)"/></mask><g fill="#fff" mask="url(#b)"><path fill-rule="evenodd" d="M145.219 119.62a4.377 4.377 0 0 1 5.595.027l33 27.698a4.374 4.374 0 0 1 1.563 3.352V199a4.377 4.377 0 0 1-4.43 4.377l-109-1.309a4.376 4.376 0 0 1-4.324-4.376v-32.267c0-1.19.485-2.329 1.343-3.154l27.541-26.486a4.376 4.376 0 0 1 5.756-.273l12.035 9.557 30.921-25.449Z" clip-rule="evenodd"/><circle cx="94" cy="122" r="7"/></g></g><path fill="#fff" fill-rule="evenodd" d="M130 169H84a3 3 0 0 0-3 3v32a3 3 0 0 0 3 3h46a3 3 0 0 0 3-3v-32a3 3 0 0 0-3-3Zm-46-7c-5.523 0-10 4.477-10 10v32c0 5.523 4.477 10 10 10h46c5.523 0 10-4.477 10-10v-32c0-5.523-4.477-10-10-10H84Z" clip-rule="evenodd"/><path fill="#fff" fill-rule="evenodd" d="M129.311 173.99a2 2 0 0 0-2.821.199l-23 26.5a2 2 0 1 0 3.02 2.622l23-26.5a2 2 0 0 0-.199-2.821ZM128.338 190.513a2.001 2.001 0 0 0-2.825.149l-9 10a2 2 0 0 0 2.974 2.676l9-10a2.001 2.001 0 0 0-.149-2.825ZM118.317 172.495a2 2 0 0 0-2.822.188l-24.5 28a2 2 0 1 0 3.01 2.634l24.5-28a2 2 0 0 0-.188-2.822ZM106.342 172.517a2 2 0 0 0-2.825.141l-19 21a2 2 0 0 0 2.966 2.684l19-21a2 2 0 0 0-.141-2.825ZM94.365 172.538a2 2 0 0 0-2.827.097l-7 7.5a2 2 0 0 0 2.924 2.73l7-7.5a2 2 0 0 0-.097-2.827ZM175.227 187.497a2 2 0 0 0-2.822.184l-11.408 13a2 2 0 1 0 3.006 2.638l11.408-13a1.998 1.998 0 0 0-.184-2.822ZM175.331 173.507a2 2 0 0 0-2.824.162l-14 15.695a2 2 0 0 0 2.986 2.663l14-15.696a2 2 0 0 0-.162-2.824ZM164.387 172.559a2 2 0 0 0-2.828.054l-3 3.118a2 2 0 1 0 2.882 2.773l3-3.117a2 2 0 0 0-.054-2.828ZM175.334 199.51a2 2 0 0 0-2.825.156l-1 1.118a2 2 0 0 0 2.981 2.667l1-1.117a2 2 0 0 0-.156-2.824Z" clip-rule="evenodd"/><path fill="#fff" fill-rule="evenodd" d="M176 169h-18a3 3 0 0 0-3 3v32a3 3 0 0 0 3 3h18a3 3 0 0 0 3-3v-32a3 3 0 0 0-3-3Zm-18-7c-5.523 0-10 4.477-10 10v32c0 5.523 4.477 10 10 10h18c5.523 0 10-4.477 10-10v-32c0-5.523-4.477-10-10-10h-18Z" clip-rule="evenodd"/></svg>