<svg width="32" height="32" viewBox="0 0 32 32" fill="none" xmlns="http://www.w3.org/2000/svg">
    <path opacity="0.984" fill-rule="evenodd" clip-rule="evenodd"
        d="M14.1538 0.116897C19.5369 -0.457655 24.182 1.08574 28.0893 4.74709C30.2164 7.02019 31.5199 9.70272 32 12.7948C28.8779 12.8315 25.7566 12.7948 22.6363 12.6846C21.5958 10.3396 19.7965 9.03509 17.2384 8.77095C13.438 8.45687 10.9226 10.0922 9.6923 13.6768C9.0527 16.2535 9.45655 18.642 10.9041 20.8425C12.3623 22.5639 14.1983 23.409 16.4122 23.3781C19.4115 23.3394 21.523 21.9614 22.7464 19.244C25.8307 19.1889 28.9153 19.1705 32 19.1889C30.8995 25.2705 27.411 29.2944 21.5347 31.2605C16.9508 32.5316 12.5077 32.1641 8.20512 30.158C2.10674 26.533 -0.592212 21.1496 0.108249 14.0075C0.684658 8.86245 3.16329 4.94881 7.54415 2.26663C9.62069 1.11446 11.8239 0.397884 14.1538 0.116897Z"
        fill="#6FBD43" />
</svg>