<svg width="32" height="32" viewBox="0 0 33 33" fill="none" xmlns="http://www.w3.org/2000/svg">
    <path fill-rule="evenodd" clip-rule="evenodd"
        d="M7.02592 0.608887C8.42589 0.690977 9.82533 0.798611 11.2242 0.931822C11.8726 1.58996 12.5185 2.23583 13.1619 2.86943C12.0011 3.17503 10.8708 3.60561 9.77097 4.16117C8.78309 2.98478 7.7066 1.88141 6.5415 0.851088C6.70727 0.768207 6.86875 0.687473 7.02592 0.608887Z"
        fill="#F4684F" />
    <path fill-rule="evenodd" clip-rule="evenodd"
        d="M7.02588 0.609221C7.02588 0.555404 7.02588 0.501571 7.02588 0.447754C9.77092 0.447754 12.516 0.447754 15.261 0.447754C16.115 0.988089 16.9224 1.60704 17.6831 2.30463C17.5933 2.36641 17.5396 2.44714 17.5216 2.54683C16.0522 2.48528 14.599 2.59293 13.1619 2.86977C12.5184 2.23617 11.8725 1.5903 11.2242 0.932156C9.82529 0.798946 8.42585 0.691311 7.02588 0.609221Z"
        fill="#F56C48" />
    <path fill-rule="evenodd" clip-rule="evenodd"
        d="M15.261 0.447587C19.0291 0.420687 22.7968 0.447587 26.5641 0.528321C27.0521 0.544209 27.4827 0.678776 27.8559 0.93199C25.4433 0.62617 23.0212 0.545436 20.5896 0.689788C21.4023 0.717399 22.2097 0.798133 23.0117 0.93199C23.7856 1.67931 24.5392 2.45973 25.2723 3.27327C25.4254 3.35122 25.5869 3.37814 25.7567 3.354C25.7214 3.54373 25.7751 3.70519 25.9182 3.8384C27.2166 5.16381 28.5354 6.45555 29.8743 7.71362C29.9523 7.8667 29.9791 8.02816 29.955 8.19803C30.1937 8.15572 30.4089 8.20954 30.6009 8.35949C30.9663 8.96779 31.4238 9.50601 31.9735 9.97417C32.0015 10.7575 32.0823 11.511 32.2157 12.2347C32.2157 14.3876 32.2157 16.5406 32.2157 18.6934C32.2589 18.9516 32.205 19.1668 32.0542 19.3393C32.1072 18.4714 32.0534 17.6103 31.8927 16.7558C31.6998 16.4656 31.4306 16.3042 31.0853 16.2714C31.1207 16.0817 31.0669 15.9202 30.9239 15.787C30.7395 15.5729 30.5241 15.4114 30.278 15.3026C29.6731 9.96924 26.9818 6.12093 22.2043 3.75767C20.6803 3.20471 19.1194 2.80104 17.5216 2.54666C17.5395 2.44697 17.5933 2.36624 17.6831 2.30446C16.9224 1.60688 16.115 0.987922 15.261 0.447587Z"
        fill="#F6743F" />
    <path fill-rule="evenodd" clip-rule="evenodd"
        d="M27.8559 0.93175C28.8921 1.26799 29.7532 1.86004 30.4395 2.70789C30.7937 3.46332 31.1974 4.21682 31.6505 4.96844C31.7832 5.33796 31.8909 5.71471 31.9735 6.09871C32.1953 8.13646 32.2761 10.1817 32.2157 12.2345C32.0823 11.5108 32.0015 10.7573 31.9735 9.97393C31.4238 9.50577 30.9663 8.96755 30.6009 8.35925C30.4089 8.2093 30.1937 8.15548 29.955 8.19779C29.9791 8.02792 29.9523 7.86646 29.8743 7.71338C28.5354 6.45531 27.2166 5.16357 25.9182 3.83816C25.7751 3.70495 25.7214 3.54349 25.7567 3.35376C25.5869 3.3779 25.4254 3.35099 25.2723 3.27303C24.5392 2.45949 23.7856 1.67907 23.0117 0.93175C22.2097 0.797894 21.4023 0.71716 20.5896 0.689549C23.0212 0.545197 25.4433 0.625931 27.8559 0.93175Z"
        fill="#F67738" />
    <path fill-rule="evenodd" clip-rule="evenodd"
        d="M7.02573 0.447754C7.02573 0.501571 7.02573 0.555404 7.02573 0.609221C6.86855 0.687808 6.70708 0.768541 6.54131 0.851423C7.7064 1.88175 8.7829 2.98512 9.77077 4.16151C8.44416 5.00211 7.20619 5.97091 6.05689 7.06792C5.41337 6.66635 4.90205 6.12813 4.5229 5.45325C4.36837 5.80996 4.17999 5.78304 3.95774 5.37251C4.0316 5.30566 4.08542 5.22493 4.11921 5.13031C3.68338 4.6949 3.19896 4.31815 2.66596 4.00004C2.5314 3.73092 2.39683 3.46182 2.26227 3.1927C2.08963 3.50068 1.84742 3.71597 1.53564 3.83857C2.77812 1.79446 4.60814 0.664185 7.02573 0.447754Z"
        fill="#F36254" />
    <path fill-rule="evenodd" clip-rule="evenodd"
        d="M17.5217 2.54658C19.1194 2.80095 20.6804 3.20462 22.2044 3.75758C26.9819 6.12084 29.6732 9.96916 30.278 15.3025C30.3557 16.944 30.1942 18.5587 29.7936 20.1465C29.4705 20.9547 29.1476 21.762 28.8248 22.5685C27.9827 24.1432 26.9063 25.5426 25.5953 26.7667C24.3137 27.8358 22.9144 28.6969 21.397 29.3502C15.8094 31.188 10.8844 30.1115 6.62224 26.1208C6.37053 25.8436 6.23598 25.5207 6.21856 25.152C6.13822 24.5515 6.27278 24.0132 6.62224 23.5374C8.13506 22.0515 9.61524 20.5446 11.0627 19.0163C12.6237 17.5093 14.1846 16.0021 15.7455 14.4952C15.8331 14.4855 15.8869 14.4317 15.9069 14.3337C14.5656 14.1726 13.22 14.1188 11.8701 14.1722C10.7892 13.733 10.3855 12.9257 10.6591 11.7502C10.7958 11.4768 10.9303 11.2077 11.0627 10.9429C11.3366 10.913 11.5519 10.7784 11.7086 10.5392C13.3763 10.4585 15.0449 10.4316 16.7143 10.4585C18.0599 10.4585 19.4056 10.4585 20.7511 10.4585C21.5621 10.7312 22.1004 11.2694 22.3659 12.0732C22.3659 13.4187 22.3659 14.7643 22.3659 16.1098C22.3927 17.6716 22.3659 19.2325 22.2851 20.7924C22.1962 21.4455 21.8462 21.8762 21.2356 22.0841C19.8503 22.522 18.9891 22.0376 18.652 20.6309C18.6788 19.3918 18.652 18.1539 18.5712 16.9172C18.4555 17.005 18.3747 17.1127 18.329 17.2401C17.145 18.3166 16.0146 19.4469 14.9381 20.6309C13.5925 21.9227 12.2469 23.2144 10.9013 24.5062C10.1311 25.3573 9.32378 26.1916 8.47918 27.0089C9.33442 26.7152 10.1418 26.2847 10.9013 25.7172C11.263 25.5594 11.6397 25.4787 12.0316 25.475C14.5871 26.6219 17.1706 26.7294 19.7823 25.7979C20.9862 25.4929 22.0088 24.9008 22.8503 24.0218C22.9696 24.0429 23.0773 24.0159 23.1732 23.941C24.434 22.7899 25.3491 21.4174 25.9183 19.8236C26.1795 19.1472 26.341 18.4476 26.4027 17.7245C26.8099 11.9522 24.2264 8.21157 18.652 6.50253C17.3395 6.24034 16.0477 6.21344 14.7766 6.4218C14.1426 6.49053 13.5505 6.652 13.0004 6.9062C11.547 7.39217 10.309 8.19951 9.28655 9.32821C7.54356 10.9849 6.57472 13.0302 6.38003 15.464C6.61578 17.2033 6.1852 18.7372 5.08824 20.0658C4.5673 20.4816 3.97523 20.7238 3.31204 20.7924C2.4676 17.7759 2.4676 14.7619 3.31204 11.7502C4.01776 10.0736 4.93276 8.51277 6.05708 7.06767C7.20638 5.97066 8.44435 5.00185 9.77096 4.16125C10.8708 3.60569 12.0011 3.17511 13.1619 2.86951C14.5991 2.59268 16.0523 2.48503 17.5217 2.54658Z"
        fill="#FFFCFC" />
    <path fill-rule="evenodd" clip-rule="evenodd"
        d="M6.05698 7.0676C4.93266 8.5127 4.01766 10.0735 3.31194 11.7502C2.56191 10.9461 1.80836 10.1388 1.05131 9.32815C0.823315 8.64722 0.715666 7.94752 0.728368 7.22907C0.703239 6.81473 0.757063 6.41106 0.889841 6.01806C0.835568 5.85177 0.727919 5.77103 0.566895 5.77586C0.746869 5.04693 1.06982 4.40106 1.53573 3.83825C1.84751 3.71565 2.08971 3.50037 2.26236 3.19238C2.39692 3.4615 2.53149 3.7306 2.66604 3.99972C3.19905 4.31783 3.68347 4.69458 4.1193 5.12999C4.08551 5.22461 4.03169 5.30535 3.95783 5.37219C4.18008 5.78272 4.36846 5.80964 4.52299 5.45293C4.90214 6.12781 5.41346 6.66603 6.05698 7.0676Z"
        fill="#F25E5A" />
    <path fill-rule="evenodd" clip-rule="evenodd"
        d="M14.7765 6.42211C15.4783 6.39536 16.178 6.42227 16.8757 6.50285C18.1623 7.86321 19.4541 9.18185 20.751 10.4588C19.4055 10.4588 18.0598 10.4588 16.7142 10.4588C16.4798 10.3293 16.2107 10.2486 15.9069 10.2166C14.8842 9.19398 13.8615 8.17134 12.8389 7.14872C12.9286 7.08694 12.9825 7.00621 13.0003 6.90652C13.5504 6.65232 14.1425 6.49085 14.7765 6.42211Z"
        fill="#F4684E" />
    <path fill-rule="evenodd" clip-rule="evenodd"
        d="M14.7766 6.42209C16.0477 6.21373 17.3395 6.24063 18.652 6.50282C24.2263 8.21186 26.8099 11.9525 26.4027 17.7248C26.455 17.0701 26.4012 16.4242 26.2412 15.7872C24.843 14.6468 23.5512 13.4088 22.3658 12.0735C22.1004 11.2697 21.562 10.7315 20.7511 10.4588C19.4542 9.18183 18.1624 7.86319 16.8758 6.50282C16.178 6.42225 15.4784 6.39533 14.7766 6.42209Z"
        fill="#F56F4C" />
    <path opacity="0.502" fill-rule="evenodd" clip-rule="evenodd"
        d="M30.4395 2.70801C31.437 3.68014 32.0561 4.86423 32.2964 6.26029C32.3771 10.4043 32.4041 14.5486 32.3771 18.6933C32.3234 18.6933 32.2694 18.6933 32.2157 18.6933C32.2157 16.5404 32.2157 14.3874 32.2157 12.2346C32.276 10.1818 32.1953 8.13658 31.9734 6.09882C31.8909 5.71482 31.7832 5.33807 31.6505 4.96855C31.1974 4.21694 30.7937 3.46343 30.4395 2.70801Z"
        fill="#F5652C" />
    <path fill-rule="evenodd" clip-rule="evenodd"
        d="M13.0003 6.90625C12.9824 7.00594 12.9286 7.08667 12.8388 7.14845C13.8614 8.17107 14.8841 9.19371 15.9068 10.2163C16.2107 10.2483 16.4797 10.3291 16.7141 10.4585C15.0447 10.4317 13.3762 10.4586 11.7085 10.5393C11.5517 10.7785 11.3364 10.913 11.0626 10.9429C10.6121 10.6555 10.2891 10.2788 10.0937 9.81266C9.93227 9.81266 9.7708 9.81266 9.60932 9.81266C9.64401 9.54159 9.53635 9.38013 9.28638 9.32826C10.3089 8.19956 11.5468 7.39222 13.0003 6.90625Z"
        fill="#F46556" />
    <path fill-rule="evenodd" clip-rule="evenodd"
        d="M0.728464 7.229C0.715762 7.94745 0.823412 8.64716 1.05141 9.32808C1.80846 10.1387 2.56201 10.946 3.31203 11.7501C2.46759 14.7618 2.46759 17.7757 3.31203 20.7923C3.97522 20.7236 4.56729 20.4814 5.08824 20.0657C6.18519 18.7371 6.61577 17.2032 6.38002 15.4638C6.50402 15.3406 6.58475 15.1792 6.62223 14.9794C7.22947 15.5047 7.7408 16.0968 8.15623 16.7556C8.3261 16.7315 8.48757 16.7583 8.64065 16.8363C9.32248 17.7068 10.1298 18.4334 11.0627 19.0161C9.61523 20.5444 8.13506 22.0514 6.62223 23.5372C6.27277 24.0131 6.13822 24.5514 6.21855 25.1519C6.09481 24.7993 5.98717 24.4224 5.8956 24.0216C4.29705 22.3965 2.6554 20.7818 0.970673 19.1776C0.91685 18.3703 0.863024 17.5629 0.8092 16.7556C0.701551 19.9312 0.701551 23.1066 0.8092 26.2822C0.973494 27.0175 1.21571 27.7173 1.53583 28.3812C1.47726 28.4915 1.42343 28.5992 1.37436 28.7042C1.10331 28.462 0.888007 28.166 0.728464 27.8161C0.782288 27.7623 0.836113 27.7084 0.889937 27.6546C0.691036 27.208 0.529563 26.7506 0.405518 26.2822C0.513167 19.9312 0.620814 13.5801 0.728464 7.229Z"
        fill="#F25A60" />
    <path fill-rule="evenodd" clip-rule="evenodd"
        d="M9.2864 9.32812C9.53638 9.37999 9.64403 9.54146 9.60934 9.81253C9.77082 9.81253 9.93229 9.81253 10.0938 9.81253C10.2891 10.2786 10.6121 10.6554 11.0626 10.9428C10.9302 11.2076 10.7956 11.4767 10.6589 11.7501C10.3854 12.9256 10.7891 13.733 11.87 14.1721C13.1618 14.2798 14.4535 14.3874 15.7453 14.4951C14.1844 16.0021 12.6235 17.5092 11.0626 19.0162C10.1297 18.4334 9.32234 17.7068 8.64051 16.8364C8.48743 16.7584 8.32596 16.7316 8.15609 16.7556C7.74067 16.0968 7.22933 15.5047 6.62209 14.9795C6.58461 15.1792 6.50388 15.3407 6.37988 15.4639C6.57457 13.0301 7.54341 10.9849 9.2864 9.32812Z"
        fill="#F3605C" />
    <path fill-rule="evenodd" clip-rule="evenodd"
        d="M22.3657 12.0732C23.5511 13.4086 24.8429 14.6465 26.2411 15.787C26.4011 16.424 26.4549 17.0699 26.4026 17.7246C26.3409 18.4477 26.1794 19.1473 25.9181 19.8237C25.8185 19.8416 25.7378 19.8954 25.6759 19.9851C24.649 18.9582 23.6262 17.9355 22.6079 16.9173C22.576 16.6134 22.4952 16.3444 22.3657 16.1099C22.3657 14.7644 22.3657 13.4188 22.3657 12.0732Z"
        fill="#F4684E" />
    <path fill-rule="evenodd" clip-rule="evenodd"
        d="M11.8701 14.1723C13.22 14.1189 14.5656 14.1726 15.9069 14.3338C15.8869 14.4318 15.8332 14.4856 15.7455 14.4953C14.4537 14.3876 13.1619 14.28 11.8701 14.1723Z"
        fill="#F9B1AE" />
    <path opacity="0.086" fill-rule="evenodd" clip-rule="evenodd"
        d="M0.5669 5.77608C0.727924 5.77126 0.835573 5.85199 0.889846 6.01828C0.757068 6.41128 0.703245 6.81495 0.728373 7.22929C0.620724 13.5803 0.513076 19.9315 0.405427 26.2825C0.355134 19.4432 0.40896 12.6077 0.5669 5.77608Z"
        fill="#F14A4E" />
    <path fill-rule="evenodd" clip-rule="evenodd"
        d="M30.2779 15.3027C30.524 15.4116 30.7394 15.573 30.9238 15.7871C31.0668 15.9203 31.1206 16.0818 31.0852 16.2715C31.4305 16.3043 31.6996 16.4658 31.8926 16.7559C32.0533 17.6104 32.107 18.4715 32.0541 19.3394C32.0541 20.0391 32.0541 20.7389 32.0541 21.4385C31.8926 21.4385 31.7311 21.4385 31.5697 21.4385C31.5697 21.277 31.5697 21.1156 31.5697 20.9541C31.3799 20.9895 31.2185 20.9357 31.0852 20.7926C30.8198 20.3387 30.47 19.962 30.0357 19.6624C29.9982 19.8621 29.9175 20.0236 29.7935 20.1468C30.1941 18.5589 30.3555 16.9442 30.2779 15.3027Z"
        fill="#F56E4A" />
    <path fill-rule="evenodd" clip-rule="evenodd"
        d="M6.21836 25.1522C6.23578 25.5208 6.37034 25.8437 6.62204 26.121C10.8842 30.1116 15.8092 31.1881 21.3968 29.3503C21.3789 29.4499 21.3251 29.5307 21.2354 29.5925C21.505 30.0057 21.8817 30.2747 22.3657 30.3999C22.6728 30.8762 23.1033 31.3606 23.6575 31.8531C23.9266 31.9068 24.1956 31.9608 24.4648 32.0145C18.4921 32.2186 12.5176 32.2994 6.5413 32.2567C5.74233 32.3588 5.01571 32.1435 4.36142 31.6109C4.3076 31.6646 4.25376 31.7186 4.19994 31.7723C3.66171 31.3417 3.12345 30.9112 2.58521 30.4806C2.23692 29.971 1.83323 29.5136 1.37416 29.1081C1.55148 28.9838 1.55148 28.8493 1.37416 28.7045C1.42324 28.5995 1.47707 28.4918 1.53564 28.3815C1.21552 27.7176 0.973302 27.0178 0.809008 26.2824C0.701359 23.1069 0.701359 19.9314 0.809008 16.7559C0.862832 17.5632 0.916658 18.3705 0.970482 19.1779C2.65521 20.7821 4.29686 22.3967 5.89541 24.0219C5.98698 24.4227 6.09462 24.7995 6.21836 25.1522Z"
        fill="#F25662" />
    <path fill-rule="evenodd" clip-rule="evenodd"
        d="M18.6518 20.6312C18.5441 19.501 18.4366 18.3707 18.3289 17.2404C18.3746 17.113 18.4553 17.0053 18.5711 16.9175C18.6518 18.1542 18.6786 19.3921 18.6518 20.6312Z"
        fill="#F79B96" />
    <path fill-rule="evenodd" clip-rule="evenodd"
        d="M18.3289 17.2402C18.4366 18.3705 18.5442 19.5008 18.6519 20.6311C18.989 22.0378 19.8502 22.5222 21.2354 22.0843C21.2395 22.5168 21.4547 22.7321 21.8813 22.7301C21.9194 23.1294 22.1347 23.3986 22.5272 23.5375C22.3748 23.8018 22.4825 23.9633 22.8502 24.0219C22.0087 24.9009 20.9861 25.493 19.7822 25.798C18.5839 24.1888 17.1844 22.7624 15.5839 21.5191C15.3907 21.1938 15.1754 20.8976 14.938 20.6311C16.0145 19.447 17.1448 18.3167 18.3289 17.2402Z"
        fill="#F3605B" />
    <path fill-rule="evenodd" clip-rule="evenodd"
        d="M22.3657 16.1099C22.4952 16.3443 22.5759 16.6133 22.6079 16.9172C23.6261 17.9354 24.6489 18.9581 25.6759 19.9851C25.7377 19.8953 25.8184 19.8415 25.9181 19.8236C25.3489 21.4175 24.4338 22.7899 23.173 23.941C23.0771 24.016 22.9694 24.0429 22.8501 24.0218C22.4824 23.9632 22.3747 23.8017 22.5271 23.5374C22.1346 23.3985 21.9194 23.1293 21.8812 22.73C21.4546 22.732 21.2394 22.5167 21.2354 22.0842C21.846 21.8762 22.196 21.4456 22.2849 20.7924C22.3657 19.2325 22.3925 17.6716 22.3657 16.1099Z"
        fill="#F46456" />
    <path fill-rule="evenodd" clip-rule="evenodd"
        d="M32.2156 18.6934C32.2694 18.6934 32.3233 18.6934 32.3771 18.6934C32.3771 20.9539 32.3771 23.2144 32.3771 25.475C32.2301 25.7203 32.0956 25.9893 31.9734 26.2823C30.9508 25.2598 29.928 24.237 28.9054 23.2144C28.8263 23.0057 28.7993 22.7903 28.8246 22.5686C29.1474 21.762 29.4704 20.9547 29.7935 20.1466C29.9175 20.0234 29.9982 19.8619 30.0357 19.6622C30.4701 19.9618 30.8198 20.3386 31.0853 20.7924C31.2185 20.9355 31.38 20.9893 31.5697 20.9539C31.5697 21.1154 31.5697 21.2768 31.5697 21.4383C31.7312 21.4383 31.8926 21.4383 32.0541 21.4383C32.0541 20.7387 32.0541 20.0389 32.0541 19.3392C32.2049 19.1668 32.2589 18.9515 32.2156 18.6934Z"
        fill="#F4674E" />
    <path fill-rule="evenodd" clip-rule="evenodd"
        d="M14.9379 20.6309C15.1753 20.8974 15.3906 21.1936 15.5838 21.5189C17.1843 22.7622 18.5838 24.1886 19.7821 25.7978C17.1704 26.7293 14.5868 26.6218 12.0314 25.4749C11.7451 25.2501 11.4222 25.0617 11.0625 24.9097C10.941 24.8014 10.8872 24.6669 10.9011 24.5061C12.2467 23.2143 13.5923 21.9226 14.9379 20.6309Z"
        fill="#F35D60" />
    <path fill-rule="evenodd" clip-rule="evenodd"
        d="M28.8247 22.5688C28.7993 22.7905 28.8263 23.0059 28.9054 23.2147C29.928 24.2373 30.9508 25.26 31.9734 26.2826C32.0956 25.9895 32.2301 25.7205 32.3771 25.4753C32.3185 28.0581 31.1882 29.9957 28.9861 31.2881C28.9879 31.0431 29.0955 30.8547 29.3091 30.723C28.9191 30.4864 28.7577 30.1365 28.8247 29.6734C28.5938 29.6862 28.3784 29.6324 28.1788 29.5119C27.9479 29.0384 27.6249 28.6347 27.2099 28.3009C27.0091 28.2273 26.8746 28.308 26.8063 28.5431C26.5603 27.8338 26.1567 27.2417 25.5952 26.767C26.9062 25.5429 27.9826 24.1435 28.8247 22.5688Z"
        fill="#F36255" />
    <path fill-rule="evenodd" clip-rule="evenodd"
        d="M10.9011 24.5063C10.8872 24.6672 10.9411 24.8017 11.0626 24.91C11.4222 25.062 11.7452 25.2504 12.0314 25.4752C11.6396 25.4789 11.2628 25.5596 10.9011 25.7174C10.1416 26.2849 9.33425 26.7154 8.479 27.0091C9.32361 26.1917 10.131 25.3574 10.9011 24.5063Z"
        fill="#FDE5E1" />
    <path fill-rule="evenodd" clip-rule="evenodd"
        d="M25.5953 26.7666C26.1568 27.2413 26.5605 27.8334 26.8064 28.5427C26.8747 28.3076 27.0092 28.2269 27.2101 28.3005C27.625 28.6343 27.948 29.038 28.1789 29.5115C28.3785 29.632 28.5939 29.6858 28.8248 29.673C28.7578 30.1361 28.9193 30.486 29.3092 30.7226C29.0956 30.8543 28.988 31.0427 28.9863 31.2877C28.2301 31.7196 27.5035 32.0965 26.8064 32.418C20.0574 32.4703 13.3026 32.4165 6.5415 32.2565C12.5178 32.2991 18.4923 32.2184 24.465 32.0143C24.1958 31.9605 23.9268 31.9066 23.6577 31.8528C23.1035 31.3604 22.673 30.8759 22.3659 30.3996C21.8819 30.2745 21.5052 30.0055 21.2356 29.5923C21.3253 29.5304 21.3791 29.4497 21.397 29.3501C22.9144 28.6968 24.3137 27.8357 25.5953 26.7666Z"
        fill="#F15C58" />
</svg>