<svg width="32" height="32" viewBox="0 0 32 32" fill="none" xmlns="http://www.w3.org/2000/svg">
    <g clip-path="url(#clip0_3758_581)">
        <rect width="32" height="32" fill="#FAFAFA" />
        <path fill-rule="evenodd" clip-rule="evenodd"
            d="M8.22985 18.0612C7.69302 17.7754 7.66761 17.438 7.94873 16.9451C9.68624 13.9074 11.3961 10.8955 13.2104 7.70289C14.3597 8.37656 15.5091 9.02721 16.607 9.75421C16.7346 9.83225 16.7854 10.3257 16.6838 10.5329C14.9463 13.6205 13.2088 16.7121 11.3972 19.9081C10.2717 19.2586 9.27588 18.636 8.22929 18.0645L8.22985 18.0612ZM11.6364 0C11.3437 0.00367401 11.0542 0.0630743 10.7831 0.175144C10.3206 0.465296 9.95491 0.89043 9.73373 1.39505C9.42169 1.94185 9.10965 2.48921 8.78932 3.03096L1.51452 15.8307C1.16989 16.4152 0.827478 17.0024 0.491685 17.5969C-0.401924 19.2053 -0.0716573 20.3477 1.435 21.2308C7.33403 24.6839 13.2331 28.1612 19.1315 31.5896C19.5091 31.8373 19.9446 31.9789 20.3935 32C20.7426 31.9746 21.0789 31.8561 21.3685 31.6563C21.6581 31.4564 21.8906 31.1825 22.0427 30.8621C22.247 30.5522 22.426 30.2148 22.6049 29.9032C23.1925 28.8365 23.1925 28.7596 22.12 28.1365C17.447 25.4104 12.7995 22.6578 8.12601 19.9323C7.13188 19.3613 6.15985 18.764 5.0884 18.1409L12.4444 5.21198C18.5478 8.76841 24.5484 12.2996 30.6004 15.8566C30.9578 15.2334 31.2902 14.6883 31.6222 14.1162C32.3401 12.7925 32.0309 11.572 30.7286 10.8192C24.6839 7.22626 18.6229 3.67824 12.5455 0.175144C12.2743 0.0629976 11.9849 0.00359438 11.6922 0H11.6364ZM20.7426 25.3262V25.3295C21.8151 26.0279 22.9136 26.6258 24.0861 27.2994C25.8734 24.1321 27.66 21.0163 29.3975 17.9012C29.4295 17.7582 29.4253 17.6093 29.3851 17.4684C29.3449 17.3276 29.2701 17.1995 29.1678 17.0961C28.1184 16.3955 26.9967 15.7718 25.848 15.0976C24.9091 16.7256 24.0221 18.2576 23.1351 19.7857L22.5789 16.3433C22.4768 15.4888 22.3492 14.631 22.2476 13.7732C22.2473 13.5971 22.2108 13.4229 22.1404 13.2619C22.07 13.101 21.9673 12.9567 21.8389 12.8385C20.7663 12.1087 19.643 11.4884 18.4936 10.813C17.9574 11.7735 17.4719 12.6033 16.987 13.4611L13.3087 19.9295C13.079 20.3449 12.8492 20.7603 13.4363 21.0977C14.5089 21.6951 15.5814 22.344 16.7053 22.993C17.5995 21.4099 18.4931 19.8778 19.3613 18.3458L19.9235 21.4334C19.9683 21.7141 20.2212 23.3983 20.3206 24.0888C20.3333 24.1815 20.3466 24.2741 20.3598 24.3695C20.3804 24.5546 20.4216 24.7367 20.4824 24.9124C20.5243 25.0754 20.6153 25.221 20.7426 25.3289V25.3262Z"
            fill="black" />
        <path fill-rule="evenodd" clip-rule="evenodd"
            d="M8.76053 3.04004L1.51335 15.7331L1.41504 15.9016L6.6933 18.9819C6.17138 18.6726 5.63953 18.356 5.08006 18.032L12.4255 5.18119L8.76053 3.04004Z"
            fill="#0069A9" />
        <path fill-rule="evenodd" clip-rule="evenodd"
            d="M20.384 24.5181L23.13 19.7945L22.5777 16.3728C22.4756 15.5234 22.348 14.6707 22.2463 13.8179C22.2347 13.6939 22.2137 13.5709 22.1834 13.4502L19.3667 18.3596L19.9278 21.431C19.9726 21.7089 20.2255 23.3863 20.3244 24.0695L20.3636 24.3457C20.3647 24.4058 20.3736 24.4619 20.384 24.5181Z"
            fill="#0069A9" />
    </g>
    <defs>
        <clipPath id="clip0_3758_581">
            <rect width="32" height="32" fill="white" />
        </clipPath>
    </defs>
</svg>