<svg width="32" height="32" viewBox="0 0 33 33" fill="none" xmlns="http://www.w3.org/2000/svg">
    <path opacity="0.01" fill-rule="evenodd" clip-rule="evenodd"
        d="M15.7236 0.893615C15.9964 0.503061 16.3598 0.442449 16.8139 0.711708C16.4693 0.887358 16.1059 0.948006 15.7236 0.893615Z"
        fill="#002144" />
    <path opacity="0.01" fill-rule="evenodd" clip-rule="evenodd"
        d="M20.448 1.25782C20.1795 1.30548 19.9372 1.24483 19.7212 1.07592C20.0616 0.824265 20.3039 0.884913 20.448 1.25782Z"
        fill="#002144" />
    <path opacity="0.221" fill-rule="evenodd" clip-rule="evenodd"
        d="M17.9038 2.34887C17.0418 4.20214 16.0727 4.26275 14.9966 2.53078C15.8937 0.90951 16.8627 0.848862 17.9038 2.34887Z"
        fill="#002144" />
    <path opacity="0.01" fill-rule="evenodd" clip-rule="evenodd"
        d="M20.4478 1.25781C20.9323 1.50037 20.9323 1.50037 20.4478 1.25781Z" fill="#002144" />
    <path opacity="0.661" fill-rule="evenodd" clip-rule="evenodd"
        d="M4.82158 20.9032C4.75922 21.264 4.88038 21.5066 5.18499 21.6309C5.84214 23.6241 7.05352 25.2007 8.81906 26.3605C8.81906 26.6031 8.94018 26.7243 9.18247 26.7243C9.79354 27.2729 10.5204 27.6367 11.3629 27.8157C11.9449 28.3884 12.6718 28.631 13.5434 28.5433C15.4815 29.0283 17.4197 29.0283 19.3579 28.5433C19.827 28.6296 20.1904 28.5084 20.4481 28.1795C20.9172 28.2658 21.2806 28.1446 21.5383 27.8157C24.4456 26.6031 26.505 24.5414 27.7162 21.6309C28.0447 21.3729 28.1658 21.0091 28.0796 20.5394C28.7156 19.1995 28.958 17.7443 28.8064 16.1737C29.1339 15.8861 29.3763 15.5223 29.5333 15.0822C30.0177 15.0822 30.5025 15.0822 30.9869 15.0822C31.6294 16.0509 31.8718 17.1423 31.7137 18.3565C31.2424 19.8967 30.7576 21.4732 30.2601 23.0861C29.9555 23.2104 29.8342 23.453 29.8967 23.8138C29.5921 23.9381 29.4708 24.1806 29.5333 24.5414C29.2909 24.5414 29.1699 24.6626 29.1699 24.9052C28.8653 25.0295 28.7439 25.2721 28.8064 25.6328C28.5641 25.6328 28.443 25.7541 28.443 25.9966C27.4738 26.7243 26.626 27.5731 25.8992 28.5433C25.6569 28.5433 25.5358 28.6645 25.5358 28.9072C25.1754 28.8446 24.9331 28.9661 24.809 29.271C24.5667 29.271 24.4456 29.3921 24.4456 29.6348C24.0852 29.5722 23.8429 29.6937 23.7187 29.9986C23.3584 29.936 23.1161 30.0575 22.9919 30.3624C22.6316 30.2998 22.3893 30.4214 22.2651 30.7262C21.9048 30.6637 21.6625 30.7852 21.5383 31.09C19.1474 31.6165 16.7247 31.8588 14.2702 31.8177C11.8641 31.161 9.56248 30.1907 7.36543 28.9072C7.36543 28.6645 7.24431 28.5433 7.00203 28.5433C0.894898 22.9959 -0.377026 16.4473 3.18625 8.89738C4.64951 6.52345 6.52709 4.58309 8.81906 3.07635C9.17941 3.13878 9.4217 3.01749 9.54587 2.71254C10.9691 2.23507 12.4227 1.87125 13.9068 1.62109C13.9789 2.37612 14.0394 3.10375 14.0885 3.80398C5.67156 6.69205 2.5826 12.3918 4.82158 20.9032ZM28.443 16.1737C28.5641 16.1737 28.6854 16.1737 28.8064 16.1737C28.958 17.7443 28.7156 19.1995 28.0796 20.5394C28.0328 19.9151 27.9117 19.3087 27.7162 18.7204C27.9404 18.7606 28.1221 18.8819 28.2613 19.0842C28.4419 18.1215 28.5026 17.1513 28.443 16.1737ZM12.4531 19.0842C12.8576 19.6104 12.9181 20.2168 12.6348 20.9032C12.0477 21.3765 11.5026 21.3765 10.9995 20.9032C12.2388 20.9455 12.7234 20.3392 12.4531 19.0842ZM6.27521 21.2671C6.78627 21.4392 7.02855 21.803 7.00203 22.3585C6.67605 21.959 6.37322 21.959 6.09351 22.3585C5.92285 21.9667 5.98343 21.6029 6.27521 21.2671ZM25.8992 23.4499C25.8852 22.9929 26.0669 22.6291 26.4443 22.3585C26.6569 22.9034 26.4752 23.2672 25.8992 23.4499ZM9.54587 25.9966C9.30359 25.9966 9.06134 25.9966 8.81906 25.9966C8.22776 25.2218 7.56153 24.4942 6.82032 23.8138C6.57804 23.5712 6.57804 23.3287 6.82032 23.0861C7.80334 24.0088 8.71186 24.979 9.54587 25.9966ZM25.8992 23.4499C25.4147 24.6626 24.5667 25.5116 23.3553 25.9966C24.0822 25.0265 24.9301 24.1776 25.8992 23.4499ZM9.90928 25.6328C10.2696 25.5704 10.5119 25.6917 10.6361 25.9966C10.1516 26.1179 10.1516 26.2393 10.6361 26.3605C10.6361 26.4816 10.6361 26.6031 10.6361 26.7243C10.3938 26.7243 10.1516 26.7243 9.90928 26.7243C9.78816 26.4816 9.667 26.2393 9.54587 25.9966C9.78816 25.9966 9.90928 25.8754 9.90928 25.6328ZM10.6361 26.3605C10.6361 26.2393 10.6361 26.1179 10.6361 25.9966C11.4787 26.1758 12.2055 26.5395 12.8165 27.0881C12.4562 27.0255 12.2139 27.147 12.0897 27.4519C11.489 27.3937 11.0045 27.1514 10.6361 26.7243C11.1206 26.6031 11.1206 26.4816 10.6361 26.3605ZM23.3553 25.9966C23.1728 26.5733 22.8094 26.7552 22.2651 26.5424C22.5354 26.1645 22.8988 25.9826 23.3553 25.9966ZM12.8165 27.0881C14.7414 27.37 16.6796 27.4912 18.631 27.4519C18.8733 27.6946 19.1156 27.9369 19.3579 28.1795C17.4197 27.6946 15.4815 27.6946 13.5434 28.1795C13.5434 28.3007 13.5434 28.4222 13.5434 28.5433C12.6718 28.631 11.9449 28.3884 11.3629 27.8157C11.7233 27.8783 11.9655 27.7568 12.0897 27.4519C12.4501 27.5145 12.6924 27.393 12.8165 27.0881ZM18.631 27.4519C19.019 27.1121 19.5036 26.9906 20.0847 27.0881C20.2058 27.3308 20.327 27.5731 20.4481 27.8157C19.8604 27.62 19.2547 27.4988 18.631 27.4519Z"
        fill="#002043" />
    <path opacity="0.01" fill-rule="evenodd" clip-rule="evenodd"
        d="M18.6311 2.34933C18.3888 2.34933 18.1466 2.34933 17.9043 2.34933C18.0081 1.46428 18.2504 1.46428 18.6311 2.34933Z"
        fill="#002144" />
    <path opacity="0.217" fill-rule="evenodd" clip-rule="evenodd"
        d="M20.4479 1.62133C21.3762 2.56899 21.3762 3.53914 20.4479 4.53184C19.0461 4.46283 18.4404 3.7352 18.6308 2.34896C19.1104 1.82441 19.716 1.58186 20.4479 1.62133Z"
        fill="#002144" />
    <path opacity="0.01" fill-rule="evenodd" clip-rule="evenodd"
        d="M9.54548 2.71244C9.3032 2.22736 9.3032 2.22736 9.54548 2.71244Z" fill="#002043" />
    <path opacity="0.01" fill-rule="evenodd" clip-rule="evenodd"
        d="M21.5381 2.34863C22.0226 2.59119 22.0226 2.59119 21.5381 2.34863Z" fill="#002144" />
    <path opacity="0.01" fill-rule="evenodd" clip-rule="evenodd"
        d="M8.81892 3.0767C8.57664 2.59162 8.57664 2.59162 8.81892 3.0767Z" fill="#002043" />
    <path opacity="0.01" fill-rule="evenodd" clip-rule="evenodd"
        d="M24.082 2.71289C24.5666 2.95545 24.5666 2.95545 24.082 2.71289Z" fill="#002144" />
    <path opacity="0.01" fill-rule="evenodd" clip-rule="evenodd"
        d="M7.72852 3.07617C8.21305 3.31873 8.21305 3.31873 7.72852 3.07617Z" fill="#002043" />
    <path opacity="0.223" fill-rule="evenodd" clip-rule="evenodd"
        d="M24.0818 3.07624C24.2029 3.44005 24.4452 3.68261 24.8086 3.80386C24.8086 4.16768 24.8086 4.53149 24.8086 4.89531C23.8395 5.86549 22.8705 5.86549 21.9014 4.89531C21.9562 3.50772 22.683 2.90135 24.0818 3.07624Z"
        fill="#002144" />
    <path opacity="0.01" fill-rule="evenodd" clip-rule="evenodd"
        d="M24.8086 3.44043C25.2931 3.68298 25.2931 3.68298 24.8086 3.44043Z" fill="#002144" />
    <path opacity="0.01" fill-rule="evenodd" clip-rule="evenodd"
        d="M6.2749 4.16797C6.75943 4.41052 6.75943 4.41052 6.2749 4.16797Z" fill="#002043" />
    <path opacity="0.01" fill-rule="evenodd" clip-rule="evenodd"
        d="M21.1748 4.16797C21.6593 4.41052 21.6593 4.41052 21.1748 4.16797Z" fill="#002144" />
    <path opacity="0.01" fill-rule="evenodd" clip-rule="evenodd"
        d="M25.5354 5.25941C25.2931 5.25941 25.172 5.38067 25.172 5.62323C25.0509 5.62323 24.9297 5.62323 24.8086 5.62323C24.8086 5.38067 24.8086 5.13815 24.8086 4.8956C25.0708 4.7437 25.2525 4.50115 25.3537 4.16797C25.862 4.43232 26.4072 4.61422 26.989 4.71369C26.4228 4.79009 25.9382 4.972 25.5354 5.25941Z"
        fill="#002144" />
    <path opacity="0.01" fill-rule="evenodd" clip-rule="evenodd"
        d="M20.4478 4.53223C20.9323 4.77478 20.9323 4.77478 20.4478 4.53223Z" fill="#002144" />
    <path opacity="0.01" fill-rule="evenodd" clip-rule="evenodd"
        d="M18.9941 5.62314C19.2384 5.34395 19.5412 5.10139 19.9027 4.89551C19.971 5.46353 19.6682 5.70609 18.9941 5.62314Z"
        fill="#002143" />
    <path opacity="0.01" fill-rule="evenodd" clip-rule="evenodd"
        d="M21.9014 4.89551C21.6592 5.13806 21.6592 5.13806 21.9014 4.89551Z" fill="#002144" />
    <path opacity="0.234" fill-rule="evenodd" clip-rule="evenodd"
        d="M25.5357 5.25965C27.2488 5.15079 27.8542 5.87842 27.3527 7.44253C25.4688 8.09991 24.742 7.49354 25.1723 5.62346C25.4145 5.62346 25.5357 5.5022 25.5357 5.25965Z"
        fill="#002144" />
    <path opacity="0.634" fill-rule="evenodd" clip-rule="evenodd"
        d="M18.9942 5.62291C24.9902 7.87772 27.7763 12.2435 27.3526 18.7202C27.0132 19.1086 26.8918 19.5937 26.9892 20.1755C25.5356 23.3285 23.234 25.6327 20.0845 27.0879C19.5034 26.9904 19.0188 27.112 18.6308 27.4518C16.6794 27.491 14.7412 27.3699 12.8163 27.0879C12.2052 26.5393 11.4784 26.1757 10.6359 25.9965C10.5117 25.6915 10.2694 25.5703 9.90906 25.6327C8.92953 24.5319 7.96043 23.4405 7.0018 22.3584C7.02833 21.8028 6.78605 21.439 6.27499 21.2669C6.36122 20.7972 6.2401 20.4334 5.91158 20.1755C5.99782 19.7058 5.87669 19.342 5.54817 19.084C5.48836 17.9859 5.5489 16.8945 5.72988 15.8097C6.33557 15.3246 6.94122 15.3246 7.54691 15.8097C7.74126 17.097 8.04409 18.3097 8.45543 19.4478C9.78688 23.1525 12.4519 25.0928 16.4504 25.2689C18.5366 25.1008 20.3536 24.3731 21.9015 23.086C22.1438 23.086 22.2649 22.9647 22.2649 22.7222C22.5072 22.7222 22.6283 22.6009 22.6283 22.3584C22.8706 22.3584 22.9917 22.2371 22.9917 21.9945C25.9899 17.4887 25.5054 13.3048 21.5381 9.44295C19.7343 8.42631 17.7961 7.81994 15.7236 7.62388C15.239 7.01751 15.239 6.41118 15.7236 5.80481C16.8071 5.62363 17.8973 5.56302 18.9942 5.62291ZM12.4529 19.084C12.8573 19.6103 12.9179 20.2166 12.6346 20.9031C12.0475 21.3764 11.5024 21.3764 10.9993 20.9031C12.2386 20.9454 12.7231 20.339 12.4529 19.084Z"
        fill="#002043" />
    <path opacity="0.01" fill-rule="evenodd" clip-rule="evenodd"
        d="M24.8087 5.62305C24.5664 5.8656 24.5664 5.8656 24.8087 5.62305Z" fill="#002144" />
    <path opacity="0.01" fill-rule="evenodd" clip-rule="evenodd"
        d="M22.6284 5.9873C23.1129 6.22986 23.1129 6.22986 22.6284 5.9873Z" fill="#002144" />
    <path opacity="0.01" fill-rule="evenodd" clip-rule="evenodd"
        d="M23.7188 5.9873C24.2033 6.22986 24.2033 6.22986 23.7188 5.9873Z" fill="#002144" />
    <path opacity="0.01" fill-rule="evenodd" clip-rule="evenodd"
        d="M28.0793 5.9873C28.4692 6.26038 28.5299 6.6242 28.261 7.07875C28.0854 6.73385 28.0251 6.37004 28.0793 5.9873Z"
        fill="#002144" />
    <path opacity="0.215" fill-rule="evenodd" clip-rule="evenodd"
        d="M12.0894 6.35112C13.5506 6.25787 14.0351 6.86424 13.543 8.17019C12.7757 8.66079 12.1095 8.53953 11.5443 7.80637C11.4354 7.23675 11.6171 6.75168 12.0894 6.35112Z"
        fill="#002144" />
    <path opacity="0.01" fill-rule="evenodd" clip-rule="evenodd"
        d="M14.2698 6.71484C15.0911 6.98319 15.1517 7.34701 14.4515 7.80629C14.276 7.46139 14.2154 7.09758 14.2698 6.71484Z"
        fill="#002143" />
    <path opacity="0.01" fill-rule="evenodd" clip-rule="evenodd"
        d="M24.4453 7.07812C24.9298 7.32068 24.9298 7.32068 24.4453 7.07812Z" fill="#002144" />
    <path opacity="0.01" fill-rule="evenodd" clip-rule="evenodd"
        d="M29.1694 7.44238C29.6539 7.68494 29.6539 7.68494 29.1694 7.44238Z" fill="#002144" />
    <path opacity="0.224" fill-rule="evenodd" clip-rule="evenodd"
        d="M30.2599 8.89772C30.1389 9.3828 30.0175 9.86791 29.8965 10.353C29.6541 10.353 29.5331 10.4742 29.5331 10.7168C27.8977 10.8391 27.2316 10.1115 27.5343 8.53391C28.4832 7.74556 29.3917 7.86686 30.2599 8.89772Z"
        fill="#002144" />
    <path opacity="0.216" fill-rule="evenodd" clip-rule="evenodd"
        d="M8.81906 8.53358C10.512 8.35699 10.9966 9.02401 10.2727 10.5346C8.53858 10.8294 8.05402 10.1624 8.81906 8.53358Z"
        fill="#002144" />
    <path opacity="0.01" fill-rule="evenodd" clip-rule="evenodd"
        d="M30.2598 8.53418C30.7442 8.77673 30.7442 8.77673 30.2598 8.53418Z" fill="#002144" />
    <path opacity="0.01" fill-rule="evenodd" clip-rule="evenodd"
        d="M17.5404 8.53316C19.1367 8.51745 19.2579 8.69935 17.9038 9.07889C16.9347 9.32144 15.9657 9.32144 14.9966 9.07889C15.918 9.01114 16.766 8.82924 17.5404 8.53316Z"
        fill="#041D41" />
    <path opacity="0.01" fill-rule="evenodd" clip-rule="evenodd"
        d="M26.6256 8.89746C27.0156 9.17054 27.0763 9.53435 26.8073 9.9889C26.6318 9.64401 26.5715 9.28019 26.6256 8.89746Z"
        fill="#002144" />
    <path opacity="0.495" fill-rule="evenodd" clip-rule="evenodd"
        d="M21.9015 19.0839C21.6244 18.8045 21.261 18.6226 20.8113 18.5381C21.0392 17.9059 21.1603 17.2389 21.1747 16.5372C21.2415 15.5532 20.9993 14.7043 20.4479 13.9905C20.4744 13.4349 20.2321 13.0711 19.7211 12.899C18.0324 11.4117 16.2154 11.1691 14.27 12.1714C13.7151 12.1448 13.3517 12.3874 13.1797 12.899C12.9375 12.899 12.8163 13.0203 12.8163 13.2628C12.3053 13.4349 12.063 13.7988 12.0895 14.3543C11.0823 16.0196 11.2034 17.5961 12.4529 19.0839C12.7232 20.3389 12.2386 20.9452 10.9993 20.9029C8.24554 15.8943 9.45689 12.1955 14.6334 9.80659C19.6206 9.22161 22.5278 11.4045 23.3551 16.3552C23.446 17.6157 22.9614 18.5252 21.9015 19.0839ZM14.27 12.1714C14.098 12.683 13.7346 12.9256 13.1797 12.899C13.3517 12.3874 13.7151 12.1448 14.27 12.1714ZM19.7211 12.899C20.2321 13.0711 20.4744 13.4349 20.4479 13.9905C20.2056 13.8692 19.9633 13.7479 19.7211 13.6266C19.7211 13.3841 19.7211 13.1416 19.7211 12.899ZM12.8163 13.2628C12.8429 13.8183 12.6006 14.1821 12.0895 14.3543C12.063 13.7988 12.3053 13.4349 12.8163 13.2628Z"
        fill="#051C40" />
    <path opacity="0.01" fill-rule="evenodd" clip-rule="evenodd"
        d="M30.2598 9.98926C30.7442 10.2318 30.7442 10.2318 30.2598 9.98926Z" fill="#002144" />
    <path opacity="0.012" fill-rule="evenodd" clip-rule="evenodd"
        d="M29.8966 10.3525C30.0176 10.3525 30.139 10.3525 30.26 10.3525C30.4119 10.6151 30.654 10.797 30.9868 10.8983C30.5169 11.0765 30.0322 11.1372 29.5332 11.0802C29.5332 10.9589 29.5332 10.8376 29.5332 10.7164C29.7756 10.7164 29.8966 10.5951 29.8966 10.3525Z"
        fill="#31BB77" />
    <path opacity="0.01" fill-rule="evenodd" clip-rule="evenodd"
        d="M29.533 11.0807C29.533 11.202 29.533 11.3233 29.533 11.4445C29.2906 11.4445 29.1696 11.5658 29.1696 11.8083C27.7479 11.2651 27.8689 11.0225 29.533 11.0807Z"
        fill="#1D4F53" />
    <path opacity="0.215" fill-rule="evenodd" clip-rule="evenodd"
        d="M7.00187 11.4443C8.71003 12.0951 8.83115 12.9441 7.36528 13.991C6.04415 13.3281 5.92303 12.4792 7.00187 11.4443Z"
        fill="#002144" />
    <path opacity="0.703" fill-rule="evenodd" clip-rule="evenodd"
        d="M29.5328 11.4437C31.1075 11.3224 31.8343 12.05 31.7133 13.6265C31.4709 13.6265 31.3499 13.7478 31.3499 13.9904C30.9894 13.9279 30.7474 14.0492 30.6231 14.3542C30.3807 14.3542 30.1386 14.3542 29.8963 14.3542C28.9125 13.7054 28.6705 12.8565 29.1694 11.8075C29.4118 11.8075 29.5328 11.6862 29.5328 11.4437Z"
        fill="#33D27D" />
    <path opacity="0.01" fill-rule="evenodd" clip-rule="evenodd"
        d="M32.0769 13.6271C32.0198 13.1275 32.0805 12.6424 32.2586 12.1719C32.5366 12.7415 32.4759 13.2266 32.0769 13.6271Z"
        fill="#33D27D" />
    <path opacity="0.01" fill-rule="evenodd" clip-rule="evenodd"
        d="M0.823918 12.5361C1.22305 12.9367 1.28363 13.4218 1.00562 13.9914C0.827552 13.5209 0.766972 13.0358 0.823918 12.5361Z"
        fill="#002043" />
    <path opacity="0.01" fill-rule="evenodd" clip-rule="evenodd"
        d="M19.7212 12.8994C19.7212 13.142 19.7212 13.3845 19.7212 13.627C18.8371 13.2459 18.8371 13.0033 19.7212 12.8994Z"
        fill="#051C40" />
    <path opacity="0.01" fill-rule="evenodd" clip-rule="evenodd"
        d="M31.7134 13.627C31.8344 13.627 31.9558 13.627 32.0768 13.627C32.0096 13.8707 31.8882 13.8707 31.7134 13.627Z"
        fill="#33D27D" />
    <path opacity="0.01" fill-rule="evenodd" clip-rule="evenodd"
        d="M31.3501 13.9912C31.4711 13.9912 31.5925 13.9912 31.7135 13.9912C31.6463 14.235 31.5249 14.235 31.3501 13.9912Z"
        fill="#33D27D" />
    <path opacity="0.01" fill-rule="evenodd" clip-rule="evenodd"
        d="M0.460461 14.3545C0.876671 15.7411 0.937215 17.1963 0.642165 18.7203C0.460897 17.27 0.400317 15.8148 0.460461 14.3545Z"
        fill="#002043" />
    <path opacity="0.01" fill-rule="evenodd" clip-rule="evenodd"
        d="M7.00184 14.3547C7.68454 14.3159 7.80566 14.4978 7.36525 14.9005C6.88072 15.143 6.39615 15.143 5.91162 14.9005C6.36134 14.816 6.72474 14.6341 7.00184 14.3547Z"
        fill="#002143" />
    <path opacity="0.011" fill-rule="evenodd" clip-rule="evenodd"
        d="M28.4427 16.1736C28.5023 17.1512 28.4416 18.1214 28.261 19.0841C28.1218 18.8818 27.9401 18.7605 27.7159 18.7203C27.6556 17.26 27.7163 15.8047 27.8976 14.3545C27.9696 15.0391 28.1513 15.6455 28.4427 16.1736Z"
        fill="#002043" />
    <path opacity="0.012" fill-rule="evenodd" clip-rule="evenodd"
        d="M29.8964 14.3545C29.7754 14.597 29.654 14.8396 29.533 15.0821C29.0762 14.6737 29.1972 14.4311 29.8964 14.3545Z"
        fill="#2A8D69" />
    <path opacity="0.01" fill-rule="evenodd" clip-rule="evenodd"
        d="M30.6235 14.3545C30.8659 14.3545 31.108 14.3545 31.3503 14.3545C31.4129 14.7153 31.2915 14.9578 30.9869 15.0821C30.8659 14.8396 30.7445 14.597 30.6235 14.3545Z"
        fill="#2B8B69" />
    <path opacity="0.011" fill-rule="evenodd" clip-rule="evenodd"
        d="M8.45557 19.4483C8.607 17.8713 8.7887 16.2948 9.00068 14.7188C9.34181 16.4052 9.1601 17.9818 8.45557 19.4483Z"
        fill="#041E41" />
    <path opacity="0.011" fill-rule="evenodd" clip-rule="evenodd"
        d="M5.18507 19.0839C4.63658 19.5785 4.3943 19.3966 4.45826 18.5382C4.63996 17.6286 4.82167 16.7191 5.00337 15.8096C5.18435 16.8943 5.24489 17.9858 5.18507 19.0839Z"
        fill="#002043" />
    <path opacity="0.01" fill-rule="evenodd" clip-rule="evenodd"
        d="M32.0767 18.3563C32.0175 17.4988 32.0778 16.6499 32.2584 15.8096C32.5477 16.7331 32.487 17.582 32.0767 18.3563Z"
        fill="#002043" />
    <path opacity="0.011" fill-rule="evenodd" clip-rule="evenodd"
        d="M31.7134 18.3564C31.8344 18.3564 31.9558 18.3564 32.0768 18.3564C31.9558 20.7819 31.8344 20.7819 31.7134 18.3564Z"
        fill="#002043" />
    <path opacity="0.01" fill-rule="evenodd" clip-rule="evenodd"
        d="M27.3525 18.7207C27.4736 18.7207 27.5949 18.7207 27.7159 18.7207C27.9115 19.3091 28.0325 19.9154 28.0794 20.5398C27.9583 20.5398 27.837 20.5398 27.7159 20.5398C27.7159 20.2972 27.5949 20.176 27.3525 20.176C27.3525 19.6909 27.3525 19.2058 27.3525 18.7207Z"
        fill="#002043" />
    <path opacity="0.01" fill-rule="evenodd" clip-rule="evenodd"
        d="M5.1847 19.084C5.30582 19.084 5.42698 19.084 5.5481 19.084C5.5481 19.4478 5.5481 19.8116 5.5481 20.1754C5.2435 20.2997 5.12234 20.5423 5.1847 20.9031C5.06357 20.9031 4.94241 20.9031 4.82129 20.9031C4.86806 20.2787 4.98918 19.6723 5.1847 19.084Z"
        fill="#002043" />
    <path opacity="0.187" fill-rule="evenodd" clip-rule="evenodd"
        d="M21.9018 19.0845C22.3924 20.5241 21.9079 21.0092 20.4482 20.5398C20.137 19.4561 20.6216 18.971 21.9018 19.0845Z"
        fill="#002144" />
    <path opacity="0.01" fill-rule="evenodd" clip-rule="evenodd"
        d="M5.54847 20.1758C5.66959 20.1758 5.79075 20.1758 5.91187 20.1758C6.01032 20.8596 5.76804 21.3447 5.18506 21.631C5.18506 21.3885 5.18506 21.146 5.18506 20.9034C5.48967 20.7791 5.61083 20.5365 5.54847 20.1758Z"
        fill="#002043" />
    <path opacity="0.01" fill-rule="evenodd" clip-rule="evenodd"
        d="M26.9893 20.1758C27.1103 20.1758 27.2317 20.1758 27.3527 20.1758C27.5951 20.1758 27.7161 20.297 27.7161 20.5396C27.7161 20.9034 27.7161 21.2672 27.7161 21.631C27.2894 21.2622 27.0474 20.7772 26.9893 20.1758Z"
        fill="#002043" />
    <path opacity="0.188" fill-rule="evenodd" clip-rule="evenodd"
        d="M13.9065 21.267C14.7118 21.185 15.3175 21.4882 15.7236 22.1765C14.14 23.5325 13.5343 23.2293 13.9065 21.267Z"
        fill="#002144" />
    <path opacity="0.179" fill-rule="evenodd" clip-rule="evenodd"
        d="M17.5404 21.2671C18.8206 21.1536 19.3052 21.6387 18.994 22.7224C17.4097 23.3191 16.9251 22.8341 17.5404 21.2671Z"
        fill="#002144" />
    <path opacity="0.01" fill-rule="evenodd" clip-rule="evenodd"
        d="M22.992 21.9955C22.7497 21.9955 22.6285 22.1167 22.6285 22.3593C22.5074 22.3593 22.3863 22.3593 22.2651 22.3593C22.4585 21.2825 22.7008 21.1613 22.992 21.9955Z"
        fill="#002043" />
    <path opacity="0.01" fill-rule="evenodd" clip-rule="evenodd"
        d="M22.265 22.3584C22.265 22.4797 22.265 22.601 22.265 22.7222C22.0227 22.7222 21.9016 22.8435 21.9016 23.086C21.0683 22.7945 21.1895 22.5519 22.265 22.3584Z"
        fill="#002043" />
    <path opacity="0.01" fill-rule="evenodd" clip-rule="evenodd"
        d="M30.2598 23.0859C30.7442 23.3285 30.7442 23.571 30.2598 23.8136C30.2598 23.571 30.2598 23.3285 30.2598 23.0859Z"
        fill="#002043" />
    <path opacity="0.01" fill-rule="evenodd" clip-rule="evenodd"
        d="M29.8965 23.8135C30.0175 23.8135 30.1389 23.8135 30.2599 23.8135C30.3224 24.1742 30.201 24.4168 29.8965 24.5411C29.8965 24.2986 29.8965 24.056 29.8965 23.8135Z"
        fill="#002043" />
    <path opacity="0.016" fill-rule="evenodd" clip-rule="evenodd"
        d="M29.5332 24.542C29.6542 24.542 29.7756 24.542 29.8966 24.542C29.8294 24.7858 29.708 24.7858 29.5332 24.542Z"
        fill="#002043" />
    <path opacity="0.01" fill-rule="evenodd" clip-rule="evenodd"
        d="M29.1694 24.9053C29.2904 24.9053 29.4118 24.9053 29.5328 24.9053C29.5953 25.266 29.474 25.5086 29.1694 25.6329C29.1694 25.3903 29.1694 25.1478 29.1694 24.9053Z"
        fill="#002043" />
    <path opacity="0.016" fill-rule="evenodd" clip-rule="evenodd"
        d="M28.8062 25.6328C28.9272 25.6328 29.0485 25.6328 29.1696 25.6328C29.1023 25.8766 28.981 25.8766 28.8062 25.6328Z"
        fill="#002043" />
    <path opacity="0.01" fill-rule="evenodd" clip-rule="evenodd"
        d="M8.81885 26.3609C8.81885 26.2397 8.81885 26.1183 8.81885 25.9971C9.06113 25.9971 9.30338 25.9971 9.54566 25.9971C9.66679 26.2397 9.78795 26.482 9.90907 26.7247C9.66679 26.7247 9.42454 26.7247 9.18225 26.7247C8.93997 26.7247 8.81885 26.6035 8.81885 26.3609Z"
        fill="#002043" />
    <path opacity="0.016" fill-rule="evenodd" clip-rule="evenodd"
        d="M28.4429 25.9971C28.5639 25.9971 28.6853 25.9971 28.8063 25.9971C28.739 26.2408 28.6177 26.2408 28.4429 25.9971Z"
        fill="#002043" />
    <path opacity="0.01" fill-rule="evenodd" clip-rule="evenodd"
        d="M20.0845 27.0879C20.6852 27.1461 21.1697 27.3884 21.5381 27.8155C21.1747 27.8155 20.8113 27.8155 20.4479 27.8155C20.3268 27.5729 20.2056 27.3306 20.0845 27.0879Z"
        fill="#002043" />
    <path opacity="0.01" fill-rule="evenodd" clip-rule="evenodd"
        d="M13.543 28.1798C12.1478 28.139 12.1478 27.8964 13.543 27.4521C13.893 27.6231 13.893 27.8658 13.543 28.1798Z"
        fill="#002043" />
    <path opacity="0.01" fill-rule="evenodd" clip-rule="evenodd"
        d="M18.6309 27.4521C19.2545 27.4991 19.8602 27.6202 20.4479 27.816C20.4479 27.9371 20.4479 28.0586 20.4479 28.1798C20.0845 28.1798 19.7211 28.1798 19.3577 28.1798C19.1154 27.9371 18.8731 27.6948 18.6309 27.4521Z"
        fill="#002043" />
    <path opacity="0.01" fill-rule="evenodd" clip-rule="evenodd"
        d="M19.3575 28.1792C19.3575 28.3003 19.3575 28.4218 19.3575 28.543C17.4193 28.543 15.4811 28.543 13.543 28.543C13.543 28.4218 13.543 28.3003 13.543 28.1792C15.4811 27.6942 17.4193 27.6942 19.3575 28.1792Z"
        fill="#002043" />
    <path opacity="0.01" fill-rule="evenodd" clip-rule="evenodd"
        d="M7.00172 28.544C7.244 28.544 7.36512 28.6652 7.36512 28.9079C7.00277 29.3492 6.63936 29.2884 6.2749 28.7259C6.49091 28.5571 6.73319 28.4964 7.00172 28.544Z"
        fill="#002043" />
    <path opacity="0.016" fill-rule="evenodd" clip-rule="evenodd"
        d="M25.8989 28.5439C26.3833 28.7866 26.3833 28.7866 25.8989 28.5439Z" fill="#002043" />
    <path opacity="0.02" fill-rule="evenodd" clip-rule="evenodd"
        d="M25.5356 28.9072C25.6568 28.9072 25.7779 28.9072 25.8991 28.9072C25.8317 29.151 25.7106 29.151 25.5356 28.9072Z"
        fill="#002043" />
    <path opacity="0.01" fill-rule="evenodd" clip-rule="evenodd"
        d="M24.8087 29.2715C25.051 29.2715 25.2933 29.2715 25.5355 29.2715C25.3636 29.783 25.0002 30.0257 24.4453 29.9991C24.4453 29.878 24.4453 29.7564 24.4453 29.6353C24.6876 29.6353 24.8087 29.5141 24.8087 29.2715Z"
        fill="#002043" />
    <path opacity="0.01" fill-rule="evenodd" clip-rule="evenodd"
        d="M23.7188 30.3628C23.7188 30.2417 23.7188 30.1202 23.7188 29.999C23.961 29.999 24.2033 29.999 24.4456 29.999C24.3214 30.3039 24.0791 30.4254 23.7188 30.3628Z"
        fill="#002043" />
    <path opacity="0.01" fill-rule="evenodd" clip-rule="evenodd"
        d="M22.9917 30.7261C22.9917 30.605 22.9917 30.4835 22.9917 30.3623C23.234 30.3623 23.4762 30.3623 23.7185 30.3623C23.5943 30.6672 23.3521 30.7887 22.9917 30.7261Z"
        fill="#002043" />
    <path opacity="0.01" fill-rule="evenodd" clip-rule="evenodd"
        d="M9.5459 31.0899C9.69003 30.717 9.93227 30.6562 10.2727 30.908C10.0567 31.0768 9.81442 31.1376 9.5459 31.0899Z"
        fill="#002043" />
    <path opacity="0.01" fill-rule="evenodd" clip-rule="evenodd"
        d="M22.2651 31.0904C22.2651 30.9692 22.2651 30.8477 22.2651 30.7266C22.5074 30.7266 22.7497 30.7266 22.992 30.7266C22.8678 31.0314 22.6255 31.153 22.2651 31.0904Z"
        fill="#002043" />
    <path opacity="0.012" fill-rule="evenodd" clip-rule="evenodd"
        d="M21.5381 31.4537C21.5381 31.3325 21.5381 31.211 21.5381 31.0898C21.7804 31.0898 22.0226 31.0898 22.2649 31.0898C22.1407 31.3947 21.8984 31.5162 21.5381 31.4537Z"
        fill="#002043" />
    <path opacity="0.01" fill-rule="evenodd" clip-rule="evenodd"
        d="M21.538 31.4538C21.2652 31.8442 20.9018 31.9049 20.4478 31.6357C20.7923 31.46 21.1557 31.3996 21.538 31.4538Z"
        fill="#002043" />
    <path opacity="0.011" fill-rule="evenodd" clip-rule="evenodd"
        d="M14.2702 31.8174C14.2702 31.9385 14.2702 32.06 14.2702 32.1812C11.8474 32.06 11.8474 31.9385 14.2702 31.8174Z"
        fill="#002043" />
    <path opacity="0.012" fill-rule="evenodd" clip-rule="evenodd"
        d="M18.6309 32.1814C19.0309 31.7819 19.5155 31.7212 20.0845 31.9995C19.6145 32.1778 19.13 32.2385 18.6309 32.1814Z"
        fill="#002043" />
    <path opacity="0.01" fill-rule="evenodd" clip-rule="evenodd"
        d="M14.27 32.1816C15.608 32.1216 16.9405 32.182 18.2675 32.3635C16.8657 32.6582 15.5331 32.5975 14.27 32.1816Z"
        fill="#002043" />
</svg>