<svg width="32" height="32" viewBox="0 0 32 32" fill="none" xmlns="http://www.w3.org/2000/svg">
    <g clip-path="url(#clip0_3434_141)">
        <path fill-rule="evenodd" clip-rule="evenodd"
            d="M-0.0314941 -0.03125C10.6352 -0.03125 21.3019 -0.03125 31.9685 -0.03125C31.9685 10.6354 31.9685 21.3021 31.9685 31.9687C21.3019 31.9687 10.6352 31.9687 -0.0314941 31.9687C-0.0314941 21.3021 -0.0314941 10.6354 -0.0314941 -0.03125Z"
            fill="#3B414F" />
        <path fill-rule="evenodd" clip-rule="evenodd"
            d="M10.8031 5.7642C11.8689 5.70891 12.5933 6.17085 12.9764 7.15002C13.1375 8.32892 12.6441 9.07437 11.496 9.38625C10.3621 9.49699 9.59569 9.02454 9.19682 7.96892C9.13578 6.80136 9.67122 6.06647 10.8031 5.7642Z"
            fill="#FCFCFC" />
        <path fill-rule="evenodd" clip-rule="evenodd"
            d="M23.8426 6.83511C23.7318 7.04638 23.6688 7.27737 23.6536 7.52802C23.5305 7.89369 23.4255 8.27164 23.3386 8.66188C23.2757 8.68286 23.2127 8.70389 23.1497 8.72487C22.5202 8.57841 21.8903 8.56789 21.2599 8.69337C20.7836 8.87964 20.5106 9.2261 20.441 9.73275C20.3785 10.2882 20.3574 10.8551 20.378 11.4335C21.3439 11.4335 22.3098 11.4335 23.2757 11.4335C23.2757 12.2734 23.2757 13.1133 23.2757 13.9532C22.3098 13.9532 21.3439 13.9532 20.378 13.9532C20.378 17.7957 20.378 21.6383 20.378 25.4808C19.2651 25.4808 18.1523 25.4808 17.0394 25.4808C17.0394 21.6383 17.0394 17.7957 17.0394 13.9532C16.3675 13.9532 15.6956 13.9532 15.0237 13.9532C15.0237 13.1133 15.0237 12.2734 15.0237 11.4335C15.7069 11.4542 16.3788 11.4332 17.0394 11.3705C17.0289 10.6773 17.0394 9.9844 17.0709 9.2918C17.4721 7.33684 18.6585 6.19249 20.63 5.85873C21.7484 5.73809 22.8402 5.85357 23.9056 6.20519C23.9265 6.23668 23.9476 6.26818 23.9686 6.29967C23.8938 6.47126 23.8518 6.64972 23.8426 6.83511Z"
            fill="#FDFDFD" />
        <path fill-rule="evenodd" clip-rule="evenodd"
            d="M12.7558 11.4326C12.7558 16.115 12.7558 20.7975 12.7558 25.4799C11.664 25.4799 10.5721 25.4799 9.48022 25.4799C9.48022 20.7975 9.48022 16.115 9.48022 11.4326C10.5721 11.4326 11.664 11.4326 12.7558 11.4326Z"
            fill="#FEFEFE" />
    </g>
    <defs>
        <clipPath id="clip0_3434_141">
            <rect width="32" height="32" fill="white" />
        </clipPath>
    </defs>
</svg>