<svg width="32" height="32" viewBox="0 0 33 33" fill="none" xmlns="http://www.w3.org/2000/svg">
    <path
        d="M17.5287 0.829956V5.82106C19.6077 6.05071 21.579 6.86507 23.2139 8.16966C24.8487 9.47424 26.0801 11.2156 26.7652 13.1916C27.4503 15.1677 27.561 17.2975 27.0844 19.3339C26.6079 21.3703 25.5636 23.2299 24.0728 24.6969C22.582 26.1638 20.7057 27.1781 18.6617 27.622C16.6177 28.0659 14.4897 27.9212 12.5246 27.2047C10.5595 26.4882 8.83787 25.2293 7.55942 23.574C6.28098 21.9187 5.49813 19.9349 5.30171 17.8527H0.309998C0.579658 22.0055 2.45542 25.8902 5.54 28.6841C8.62459 31.478 12.6757 32.9616 16.8354 32.8208C20.995 32.6799 24.9364 30.9256 27.8249 27.9294C30.7133 24.9332 32.3219 20.9305 32.3099 16.769C32.2714 8.3738 25.7707 1.45249 17.5287 0.829956Z"
        fill="black" />
</svg>