<svg width="32" height="32" viewBox="0 0 32 32" fill="none" xmlns="http://www.w3.org/2000/svg">
    <g clip-path="url(#clip0_1518_181)">
        <path fill-rule="evenodd" clip-rule="evenodd"
            d="M-0.235352 -0.235352C10.2744 -0.235352 20.7843 -0.235352 31.2941 -0.235352C31.2941 -0.078489 31.2941 0.0783741 31.2941 0.235237C20.9411 0.235237 10.5882 0.235237 0.235237 0.235237C0.235237 10.5882 0.235237 20.9411 0.235237 31.2941C0.0783741 31.2941 -0.078489 31.2941 -0.235352 31.2941C-0.235352 20.7843 -0.235352 10.2744 -0.235352 -0.235352Z"
            fill="#FCF38C" />
        <path fill-rule="evenodd" clip-rule="evenodd"
            d="M31.2942 0.235352C31.2942 10.5883 31.2942 20.9412 31.2942 31.2942C20.9412 31.2942 10.5883 31.2942 0.235352 31.2942C0.235352 20.9412 0.235352 10.5883 0.235352 0.235352C10.5883 0.235352 20.9412 0.235352 31.2942 0.235352Z"
            fill="#F8E51A" />
        <path fill-rule="evenodd" clip-rule="evenodd"
            d="M9.17638 10.1177C10.745 10.1177 12.3137 10.1177 13.8823 10.1177C13.9606 14.9829 13.8822 19.8457 13.647 24.7059C12.822 27.8867 10.7828 29.4553 7.52933 29.4118C4.81963 29.5877 2.85887 28.4897 1.64697 26.1177C2.35672 25.173 3.21947 24.3887 4.23521 23.7647C5.57591 25.672 7.14457 25.9857 8.94109 24.7059C9.17629 19.8457 9.25474 14.9829 9.17638 10.1177Z"
            fill="#1A1A13" />
        <path fill-rule="evenodd" clip-rule="evenodd"
            d="M20.9411 9.64718C24.1747 9.23532 26.9982 10.098 29.4117 12.2354C28.7843 13.0197 28.1568 13.804 27.5294 14.5884C26.0541 14.4813 24.6423 14.0892 23.2941 13.4119C21.3048 13.5108 20.6774 14.452 21.4117 16.2354C24.2487 17.222 26.837 18.6337 29.1764 20.4707C30.8275 24.7799 29.4942 27.6819 25.1764 29.1766C21.4864 30.1071 18.3492 29.2443 15.7646 26.5884C16.5538 25.6284 17.3382 24.6873 18.1176 23.7648C20.1975 25.6017 22.5504 26.0723 25.1764 25.1766C25.3106 24.3352 25.1538 23.5508 24.7058 22.8236C22.8797 21.832 20.9973 20.9693 19.0588 20.2354C14.9013 15.8468 15.5287 12.3173 20.9411 9.64718Z"
            fill="#171711" />
        <path fill-rule="evenodd" clip-rule="evenodd"
            d="M31.2941 -0.235352C31.4509 -0.235352 31.6078 -0.235352 31.7646 -0.235352C31.7646 10.4313 31.7646 21.098 31.7646 31.7646C21.098 31.7646 10.4313 31.7646 -0.235352 31.7646C-0.235352 31.6078 -0.235352 31.4509 -0.235352 31.2941C-0.078489 31.2941 0.0783741 31.2941 0.235237 31.2941C10.5882 31.2941 20.9411 31.2941 31.2941 31.2941C31.2941 20.9411 31.2941 10.5882 31.2941 0.235237C31.2941 0.0783741 31.2941 -0.078489 31.2941 -0.235352Z"
            fill="#FEF9C5" />
    </g>
    <defs>
        <clipPath id="clip0_1518_181">
            <rect width="32" height="32" fill="white" />
        </clipPath>
    </defs>
</svg>