<svg width="32" height="32" viewBox="0 0 32 33" fill="none" xmlns="http://www.w3.org/2000/svg">
    <path
        d="M23.1552 32.6562H8.84483C3.96055 32.6562 0 28.6957 0 23.8114V9.50107C0 4.61679 3.96055 0.65625 8.84483 0.65625H23.1552C28.0395 0.65625 32 4.61679 32 9.50107V23.8114C32 28.6957 28.0395 32.6562 23.1552 32.6562Z"
        fill="#B1F2B3" />
    <path
        d="M13.2562 10.6687C13.2754 10.711 13.2946 10.7533 13.3177 10.7957C13.3408 10.838 13.3601 10.8765 13.3832 10.9188C13.4062 10.9573 13.4293 10.9997 13.4563 11.0382C13.5448 11.1767 13.6449 11.3037 13.7527 11.4231C13.7681 11.4385 13.7835 11.4577 13.7988 11.4731C13.8296 11.5077 13.8642 11.5385 13.899 11.5731C13.9336 11.6039 13.9682 11.6347 14.0028 11.6656C14.0567 11.7118 14.1106 11.754 14.1645 11.7964C14.2377 11.8503 14.3146 11.9042 14.3954 11.9542C14.434 11.9772 14.4763 12.0003 14.5147 12.0234C14.534 12.035 14.5571 12.0466 14.5764 12.0543C14.6802 12.1082 14.788 12.1544 14.8997 12.1967C14.9651 12.2198 15.0344 12.2428 15.1036 12.2621C15.196 12.289 15.2884 12.3083 15.3846 12.3275C15.5501 12.3583 15.7233 12.3737 15.8965 12.3737C15.9965 12.3737 16.0967 12.3699 16.1928 12.3583C16.2429 12.3545 16.2891 12.3468 16.3392 12.3391C16.3622 12.3352 16.3853 12.3314 16.4123 12.3275C16.5316 12.3044 16.647 12.2775 16.7587 12.2428C16.7818 12.2351 16.8049 12.2274 16.828 12.2198C17.9711 11.8349 18.7948 10.7533 18.7948 9.47935C18.7948 8.20535 17.9634 7.12381 16.8203 6.73892C16.7972 6.73122 16.7741 6.72351 16.751 6.71582C16.6394 6.68118 16.5201 6.65038 16.4046 6.63114C16.3815 6.62729 16.3584 6.62344 16.3314 6.6196C16.2853 6.6119 16.2352 6.60805 16.1852 6.60035C16.089 6.58881 15.9889 6.58496 15.8889 6.58496C15.7157 6.58496 15.5425 6.60035 15.3769 6.63114C15.2807 6.64653 15.1883 6.66964 15.096 6.69657C15.0266 6.71582 14.9612 6.73892 14.892 6.76201C14.7804 6.80435 14.6726 6.85053 14.5686 6.90442C14.5494 6.91596 14.5263 6.92751 14.5071 6.93521C14.4648 6.95831 14.4262 6.9814 14.3878 7.00449C14.3069 7.05453 14.2299 7.10456 14.1568 7.16229C14.1029 7.20464 14.0452 7.24697 13.9951 7.29316C13.9605 7.32395 13.9259 7.35474 13.8912 7.38553C13.8566 7.41633 13.8258 7.45096 13.7912 7.4856C13.7757 7.501 13.7604 7.52025 13.7449 7.53564C13.6373 7.65496 13.5371 7.78582 13.4486 7.92053C13.4217 7.95903 13.3986 8.00136 13.3754 8.03985C13.3523 8.07834 13.3293 8.12068 13.31 8.16301C13.2869 8.20535 13.2678 8.24769 13.2485 8.29003C13.083 8.65183 12.9944 9.05596 12.9944 9.47935C12.9944 9.90273 13.0906 10.3069 13.2562 10.6687Z"
        fill="#131301" />
    <path
        d="M25.0889 18.6725C26.2192 17.5422 26.2192 15.7096 25.0889 14.5793C23.9587 13.4488 22.1259 13.4488 20.9957 14.5793C19.8654 15.7096 19.8654 17.5422 20.9957 18.6725C22.1259 19.8028 23.9587 19.8028 25.0889 18.6725Z"
        fill="#131301" />
    <path
        d="M17.9398 25.8247C19.0701 24.6944 19.0701 22.8618 17.9398 21.7315C16.8095 20.6012 14.9769 20.6012 13.8465 21.7315C12.7162 22.8618 12.7162 24.6944 13.8465 25.8247C14.9769 26.9551 16.8095 26.9551 17.9398 25.8247Z"
        fill="#131301" />
    <path
        d="M23.0439 20.8837C20.6922 20.8837 18.787 18.9784 18.787 16.6267C18.787 14.2751 20.6922 12.3699 23.0439 12.3699C24.6412 12.3699 25.9383 11.0727 25.9383 9.47545C25.9383 7.87814 24.6412 6.58105 23.0439 6.58105C21.4466 6.58105 20.1495 7.87814 20.1495 9.47545C20.1495 11.8272 18.2443 13.7324 15.8926 13.7324C14.7803 13.7324 13.8142 14.3597 13.3292 15.2797C13.1329 15.6337 12.7519 15.8762 12.317 15.8762C11.8858 15.8762 11.5125 15.6414 11.3124 15.2951C11.0391 14.7677 10.608 14.3366 10.0846 14.0634C9.73049 13.8632 9.4957 13.486 9.4957 13.055C9.4957 12.6201 9.73819 12.239 10.0923 12.0427C10.1038 12.035 10.1154 12.0311 10.1269 12.0234C10.1269 12.0234 10.1308 12.0234 10.1308 12.0196C11.0276 11.5269 11.6357 10.5762 11.6357 9.47929C11.6357 7.88199 10.3386 6.5849 8.74132 6.5849C7.14401 6.5849 5.84692 7.88199 5.84692 9.47929C5.84692 10.5916 6.4743 11.5577 7.39419 12.0427C7.74829 12.239 7.99078 12.6201 7.99078 13.055C7.99078 13.486 7.75599 13.8593 7.40958 14.0595C6.482 14.5407 5.85077 15.5106 5.85077 16.6267C5.85077 17.739 6.47814 18.7051 7.39804 19.1902C7.75214 19.3864 7.99462 19.7674 7.99462 20.2024C7.99462 20.6335 7.75983 21.0068 7.41344 21.2069C6.48584 21.688 5.85462 22.658 5.85462 23.7742C5.85462 25.3715 7.1517 26.6686 8.74902 26.6686C10.3463 26.6686 11.6434 25.3715 11.6434 23.7742C11.6434 22.658 11.0122 21.6919 10.0884 21.2069C9.73434 21.0068 9.49956 20.6297 9.49956 20.1985C9.49956 19.7636 9.74204 19.3826 10.0961 19.1863C10.1077 19.1786 10.1192 19.1748 10.1308 19.1671C10.1308 19.1671 10.1346 19.1671 10.1346 19.1632C10.635 18.8899 11.0468 18.4703 11.3124 17.9624C11.5125 17.6082 11.8898 17.3734 12.3208 17.3734C12.7557 17.3734 13.1367 17.6159 13.3331 17.9701C13.3408 17.9815 13.3447 17.9931 13.3523 18.0046C13.3523 18.0046 13.3523 18.0085 13.3562 18.0085C13.8489 18.9053 14.7995 19.5134 15.8965 19.5134C18.2481 19.5134 20.1534 21.4186 20.1534 23.7704C20.1534 25.3676 21.4505 26.6648 23.0478 26.6648C24.645 26.6648 25.9422 25.3676 25.9422 23.7704C25.9345 22.1769 24.6412 20.8837 23.0439 20.8837Z"
        fill="#131301" />
</svg>