<svg width="32" height="32" viewBox="0 0 33 33" fill="none" xmlns="http://www.w3.org/2000/svg">
    <path opacity="0.962" fill-rule="evenodd" clip-rule="evenodd"
        d="M13.4044 0.5C15.1502 0.5 16.896 0.5 18.6418 0.5C28.6823 3.10875 33.1164 9.59241 31.9447 19.951C30.0388 26.8393 25.6044 31.0224 18.6418 32.5C16.896 32.5 15.1502 32.5 13.4044 32.5C3.51578 29.7754 -0.848691 23.2917 0.311012 13.049C2.19762 6.24979 6.56209 2.0668 13.4044 0.5Z"
        fill="#FCFDFB" />
    <path fill-rule="evenodd" clip-rule="evenodd"
        d="M12.5665 6.77466C11.51 7.30791 10.7768 8.14451 10.3668 9.28446C9.8287 10.5557 9.51446 11.8803 9.42411 13.2583C7.39249 11.8734 5.15787 11.1414 2.72027 11.0622C2.52833 11.1405 2.35374 11.2451 2.19653 11.376C4.58536 5.27881 9.0895 2.00213 15.709 1.5459C23.3293 1.87161 28.3222 5.63631 30.6878 12.84C31.1626 15.4373 31.0926 18.0168 30.4783 20.5786C28.0805 14.1413 23.7858 9.43543 17.5944 6.46093C16.1484 5.88807 14.682 5.81836 13.195 6.25178C12.8929 6.33059 12.6834 6.50487 12.5665 6.77466Z"
        fill="#6DB340" />
    <path fill-rule="evenodd" clip-rule="evenodd"
        d="M12.5665 6.77456C14.5644 6.76347 16.3102 7.39092 17.8039 8.65691C15.415 8.705 13.9137 9.89017 13.2997 12.2125C13.0567 13.2445 12.9519 14.2902 12.9855 15.3497C11.8328 14.5998 10.6457 13.9027 9.42407 13.2582C9.51443 11.8802 9.82867 10.5556 10.3668 9.28436C10.7767 8.14441 11.51 7.30781 12.5665 6.77456Z"
        fill="#056551" />
    <path fill-rule="evenodd" clip-rule="evenodd"
        d="M17.8037 8.65674C21.3624 11.0875 23.9811 14.2945 25.6598 18.2777C25.9129 20.5803 24.9004 21.3821 22.6221 20.6829C19.2421 19.1708 16.0299 17.393 12.9853 15.3495C12.9518 14.29 13.0566 13.2443 13.2996 12.2123C13.9135 9.88999 15.4149 8.70482 17.8037 8.65674Z"
        fill="#6CB33F" />
    <path fill-rule="evenodd" clip-rule="evenodd"
        d="M9.42407 15.9771C9.4345 17.0337 9.32976 18.0794 9.10983 19.1143C8.88741 19.2392 8.64299 19.3089 8.3766 19.3235C6.32367 18.6824 4.57789 17.567 3.13922 15.9771C2.983 14.7457 3.50674 14.1183 4.71044 14.0947C6.42532 14.3747 7.99653 15.0021 9.42407 15.9771Z"
        fill="#6BB23F" />
    <path fill-rule="evenodd" clip-rule="evenodd"
        d="M5.23424 20.3691C6.6216 21.6911 8.22771 22.7019 10.0526 23.4017C11.2078 23.6937 12.0109 23.3103 12.4618 22.2514C12.7286 20.8704 12.8334 19.4761 12.7761 18.0684C16.6441 20.697 20.7642 22.8931 25.1363 24.6566C26.1793 24.8497 27.2268 25.0239 28.2787 25.1795C24.8463 29.611 20.3073 31.6676 14.6615 31.3495C7.9229 30.4097 3.55841 26.6798 1.56808 20.1599C1.26355 18.4269 1.19372 16.6839 1.35859 14.9312C1.92584 16.5521 2.76382 18.0161 3.87253 19.3233C4.24484 19.8022 4.69873 20.1508 5.23424 20.3691Z"
        fill="#6CB33F" />
    <path fill-rule="evenodd" clip-rule="evenodd"
        d="M3.13916 15.9771C4.57782 17.5669 6.32361 18.6824 8.37653 19.3235C8.64293 19.3089 8.88734 19.2391 9.10976 19.1143C9.32969 18.0794 9.43444 17.0336 9.42401 15.9771C10.6194 16.5725 11.7367 17.2696 12.7759 18.0686C12.8332 19.4762 12.7285 20.8706 12.4617 22.2516C12.0108 23.3105 11.2077 23.6939 10.0525 23.4019C8.22758 22.7021 6.62147 21.6912 5.23411 20.3692C4.14344 19.0976 3.44513 17.6335 3.13916 15.9771Z"
        fill="#046451" />
</svg>