<svg width="32" height="32" viewBox="0 0 32 32" fill="none" xmlns="http://www.w3.org/2000/svg">
    <g clip-path="url(#clip0_4639_1889)">
        <path opacity="0.997" fill-rule="evenodd" clip-rule="evenodd"
            d="M28.3911 -0.0078125C29.5096 -0.0078125 30.6281 -0.0078125 31.7467 -0.0078125C31.7467 2.40267 31.7467 4.81317 31.7467 7.22365C31.538 8.51378 31.0458 9.7031 30.2699 10.7916C29.4693 11.8184 28.4294 12.575 27.1503 13.0614C26.0361 13.4825 24.8827 13.7798 23.6899 13.9534C22.543 14.1264 21.3896 14.2246 20.2295 14.248C19.9968 13.8026 19.7462 13.3672 19.478 12.9419C20.6915 11.2965 22.0285 9.73556 23.4889 8.25899C24.3958 7.37375 25.3715 6.56407 26.4162 5.82992C26.8297 5.54845 27.2784 5.32015 27.762 5.145C28.0339 5.05649 28.3135 4.99808 28.6008 4.96979C25.7948 4.93209 23.2781 5.68072 21.0509 7.21568C20.3826 7.70798 19.7854 8.26281 19.2595 8.88019C18.7639 9.4779 18.2715 10.0779 17.7827 10.6801C17.2791 10.1281 16.7461 9.59714 16.1836 9.08726C16.137 7.89714 16.2419 6.71845 16.4982 5.55117C16.6986 4.65759 17.0598 3.82402 17.5817 3.05043C18.2245 2.17174 19.0839 1.53195 20.1596 1.13106C21.2768 0.735777 22.4303 0.464996 23.62 0.318718C25.2058 0.12274 26.7962 0.0138963 28.3911 -0.0078125Z"
            fill="#DDA641" />
        <path opacity="0.993" fill-rule="evenodd" clip-rule="evenodd"
            d="M31.7466 -0.0078125C31.7698 -0.0078125 31.7932 -0.0078125 31.8165 -0.0078125C31.8165 2.26994 31.8165 4.54769 31.8165 6.82544C31.806 6.96209 31.7828 7.09482 31.7466 7.22365C31.7466 4.81317 31.7466 2.40267 31.7466 -0.0078125Z"
            fill="#DBA646" />
        <path opacity="0.991" fill-rule="evenodd" clip-rule="evenodd"
            d="M31.8164 -0.0078125C31.8281 -0.0078125 31.8397 -0.0078125 31.8514 -0.0078125C31.8514 2.18499 31.8514 4.37778 31.8514 6.57058C31.8508 6.659 31.8393 6.74395 31.8164 6.82544C31.8164 4.54769 31.8164 2.26994 31.8164 -0.0078125Z"
            fill="#DAA749" />
        <path opacity="0.988" fill-rule="evenodd" clip-rule="evenodd"
            d="M31.8516 -0.0078125C31.8807 -0.0078125 31.9098 -0.0078125 31.9389 -0.0078125C31.9389 1.90889 31.9389 3.82561 31.9389 5.74231C31.9304 6.02248 31.9012 6.29856 31.8516 6.57058C31.8516 4.37778 31.8516 2.18499 31.8516 -0.0078125Z"
            fill="#D6A74D" />
        <path opacity="0.975" fill-rule="evenodd" clip-rule="evenodd"
            d="M31.9387 -0.0078125C31.9562 -0.0078125 31.9737 -0.0078125 31.9912 -0.0078125C31.9912 1.69652 31.9912 3.40085 31.9912 5.10518C31.9766 5.31773 31.9592 5.53011 31.9387 5.74231C31.9387 3.82561 31.9387 1.90889 31.9387 -0.0078125Z"
            fill="#D2A852" />
        <path opacity="0.997" fill-rule="evenodd" clip-rule="evenodd"
            d="M-0.00878906 0.613281C4.12155 0.613281 8.25191 0.613281 12.3823 0.613281C12.3823 2.69459 12.3823 4.77588 12.3823 6.85718C11.2065 6.62705 10.018 6.55005 8.81699 6.62622C7.68549 6.65825 6.59027 6.85471 5.53135 7.21557C5.08447 7.37657 4.67669 7.59427 4.30798 7.86863C4.25817 7.91135 4.21158 7.95649 4.16816 8.00402C4.57123 8.11179 4.97903 8.2047 5.39154 8.28277C6.68926 8.66964 7.74079 9.36252 8.5461 10.3614C9.06103 11.0896 9.37562 11.886 9.48985 12.7507C9.58162 13.3335 9.66318 13.9175 9.73452 14.5028C9.91565 15.8586 10.2535 17.1806 10.7482 18.4689C11.1486 19.4909 11.6904 20.4413 12.3735 21.3201C12.3823 24.7235 12.3852 28.1268 12.3823 31.5302C8.25191 31.5302 4.12155 31.5302 -0.00878906 31.5302C-0.00878906 21.2245 -0.00878906 10.9189 -0.00878906 0.613281Z"
            fill="#1E2718" />
        <path opacity="0.965" fill-rule="evenodd" clip-rule="evenodd"
            d="M9.79576 7.73304C10.1385 7.72158 10.3307 7.87026 10.3725 8.17903C10.3451 8.44556 10.1849 8.59423 9.89189 8.62502C9.59013 8.60221 9.4241 8.45354 9.3938 8.17903C9.41433 7.94284 9.54833 7.79419 9.79576 7.73304Z"
            fill="#1E2718" />
        <path opacity="0.993" fill-rule="evenodd" clip-rule="evenodd"
            d="M25.4548 17.5449C25.4548 19.4563 25.4548 21.3677 25.4548 23.2791C24.5016 22.3072 23.6949 21.24 23.0343 20.0775C22.4614 19.0201 21.9341 17.9449 21.4526 16.8521C22.817 16.9389 24.1511 17.1698 25.4548 17.5449Z"
            fill="#DDA642" />
        <path opacity="0.997" fill-rule="evenodd" clip-rule="evenodd"
            d="M25.4548 17.5449C26.1097 17.7367 26.7389 17.9809 27.3423 18.2776C27.3423 20.4651 27.3423 22.6527 27.3423 24.8401C26.6426 24.3936 26.0134 23.8734 25.4548 23.2791C25.4548 21.3677 25.4548 19.4563 25.4548 17.5449Z"
            fill="#DBA646" />
        <path opacity="0.997" fill-rule="evenodd" clip-rule="evenodd"
            d="M27.3425 18.2778C27.6594 18.4288 27.9623 18.5986 28.2513 18.7875C28.2513 20.9645 28.2513 23.1412 28.2513 25.3182C27.9369 25.175 27.634 25.0157 27.3425 24.8403C27.3425 22.6529 27.3425 20.4653 27.3425 18.2778Z"
            fill="#D9A649" />
        <path opacity="0.997" fill-rule="evenodd" clip-rule="evenodd"
            d="M28.2512 18.7876C29.2519 19.4338 30.0325 20.2516 30.5931 21.2406C30.5931 24.8244 30.5931 28.4083 30.5931 31.9922C29.9582 31.9922 29.3231 31.9922 28.6881 31.9922C28.5457 31.9764 28.4001 31.971 28.2512 31.9762C28.2512 29.9108 28.2512 27.8456 28.2512 25.7801C28.8164 25.7717 29.3814 25.7585 29.9465 25.7403C29.3531 25.6914 28.7881 25.5508 28.2512 25.3182C28.2512 23.1413 28.2512 20.9645 28.2512 18.7876Z"
            fill="#D6A74D" />
        <path opacity="0.997" fill-rule="evenodd" clip-rule="evenodd"
            d="M30.593 21.2402C30.6986 21.39 30.786 21.5492 30.8552 21.7181C30.8552 25.1427 30.8552 28.5673 30.8552 31.9919C30.7678 31.9919 30.6804 31.9919 30.593 31.9919C30.593 28.408 30.593 24.8241 30.593 21.2402Z"
            fill="#D4A750" />
        <path opacity="0.997" fill-rule="evenodd" clip-rule="evenodd"
            d="M30.8552 21.7183C30.9788 21.9436 31.0836 22.1773 31.1698 22.4191C31.1698 25.61 31.1698 28.8011 31.1698 31.992C31.0649 31.992 30.9601 31.992 30.8552 31.992C30.8552 28.5674 30.8552 25.1429 30.8552 21.7183Z"
            fill="#D3A852" />
        <path opacity="0.997" fill-rule="evenodd" clip-rule="evenodd"
            d="M31.1699 22.4189C31.1881 22.4417 31.1996 22.4683 31.2049 22.4986C31.2049 25.6631 31.2049 28.8274 31.2049 31.9919C31.1932 31.9919 31.1816 31.9919 31.1699 31.9919C31.1699 28.8009 31.1699 25.6099 31.1699 22.4189Z"
            fill="#D2A953" />
        <path opacity="0.996" fill-rule="evenodd" clip-rule="evenodd"
            d="M31.2048 22.4985C31.3868 22.9482 31.5266 23.4101 31.6243 23.8843C31.6243 26.5869 31.6243 29.2893 31.6243 31.9918C31.4845 31.9918 31.3446 31.9918 31.2048 31.9918C31.2048 28.8273 31.2048 25.663 31.2048 22.4985Z"
            fill="#D2A753" />
        <path opacity="0.994" fill-rule="evenodd" clip-rule="evenodd"
            d="M31.6243 23.8843C31.6912 24.1073 31.7379 24.3355 31.7641 24.5692C31.7641 27.0433 31.7641 29.5176 31.7641 31.9918C31.7174 31.9918 31.6709 31.9918 31.6243 31.9918C31.6243 29.2892 31.6243 26.5868 31.6243 23.8843Z"
            fill="#D2A955" />
        <path opacity="0.996" fill-rule="evenodd" clip-rule="evenodd"
            d="M25.4549 25.78C25.4549 27.7923 25.4549 29.8047 25.4549 31.8169C24.0529 31.703 22.6839 31.4456 21.3478 31.0444C20.3986 30.7581 19.5423 30.3281 18.7787 29.7542C18.0461 29.1341 17.4839 28.4039 17.0922 27.564C16.6284 26.5255 16.3575 25.4478 16.2795 24.3306C17.8037 25.0067 19.4116 25.4129 21.1031 25.5491C22.5499 25.6859 24.0004 25.763 25.4549 25.78Z"
            fill="#DDA641" />
        <path opacity="0.973" fill-rule="evenodd" clip-rule="evenodd"
            d="M31.7642 24.5693C31.8889 25.2606 31.9648 25.9561 31.9914 26.6559C31.9914 28.4347 31.9914 30.2132 31.9914 31.9919C31.9157 31.9919 31.8398 31.9919 31.7642 31.9919C31.7642 29.5178 31.7642 27.0435 31.7642 24.5693Z"
            fill="#D0A856" />
        <path opacity="0.998" fill-rule="evenodd" clip-rule="evenodd"
            d="M25.4548 25.7798C26.084 25.7916 26.7132 25.797 27.3423 25.7957C27.3423 27.8452 27.3423 29.8945 27.3423 31.944C26.7114 31.9211 26.0823 31.8787 25.4548 31.8166C25.4548 29.8044 25.4548 27.792 25.4548 25.7798Z"
            fill="#DBA646" />
        <path opacity="0.998" fill-rule="evenodd" clip-rule="evenodd"
            d="M28.2513 25.7801C28.2513 27.8456 28.2513 29.9108 28.2513 31.9762C27.9481 31.9699 27.6452 31.9594 27.3425 31.9444C27.3425 29.8949 27.3425 27.8456 27.3425 25.7961C27.6452 25.7824 27.9481 25.7771 28.2513 25.7801Z"
            fill="#D9A649" />
    </g>
    <defs>
        <clipPath id="clip0_4639_1889">
            <rect width="32" height="32" fill="white" />
        </clipPath>
    </defs>
</svg>