<svg width="32" height="32" viewBox="0 0 32 32" fill="none" xmlns="http://www.w3.org/2000/svg">
    <g clip-path="url(#clip0_4492_45)">
        <path fill-rule="evenodd" clip-rule="evenodd"
            d="M-0.0400391 -0.0400391C10.6266 -0.0400391 21.2933 -0.0400391 31.96 -0.0400391C31.96 10.6266 31.96 21.2933 31.96 31.96C21.2933 31.96 10.6266 31.96 -0.0400391 31.96C-0.0400391 21.2933 -0.0400391 10.6266 -0.0400391 -0.0400391Z"
            fill="#314974" />
        <path fill-rule="evenodd" clip-rule="evenodd"
            d="M4.43995 15.8001C4.69325 15.6134 4.90658 15.3867 5.07995 15.1201C4.92942 15.1043 4.79608 15.0643 4.67995 15.0001C4.67995 14.7601 4.67995 14.5201 4.67995 14.2801C5.37329 14.2801 6.06662 14.2801 6.75995 14.2801C6.75995 14.5467 6.75995 14.8135 6.75995 15.0801C6.54497 15.067 6.33163 15.0803 6.11995 15.1201C5.97326 15.3331 5.81326 15.5331 5.63995 15.7201C5.52918 15.806 5.43585 15.9127 5.35995 16.0401C5.60613 16.5847 5.89946 17.118 6.23995 17.6401C6.40322 17.7139 6.57655 17.7406 6.75995 17.7201C6.75995 17.9867 6.75995 18.2535 6.75995 18.5201C6.35906 18.5334 5.95906 18.52 5.55995 18.4801C5.22732 18.0124 4.90732 17.5457 4.59995 17.0801C4.54202 16.7208 4.3287 16.5875 3.95995 16.6801C3.95995 17.0267 3.95995 17.3735 3.95995 17.7201C4.09329 17.7201 4.22662 17.7201 4.35995 17.7201C4.35995 17.9867 4.35995 18.2535 4.35995 18.5201C3.63995 18.5201 2.91995 18.5201 2.19995 18.5201C2.19995 18.2535 2.19995 17.9867 2.19995 17.7201C2.41329 17.7201 2.62662 17.7201 2.83995 17.7201C2.83995 16.2801 2.83995 14.8401 2.83995 13.4001C2.62662 13.4001 2.41329 13.4001 2.19995 13.4001C2.19995 13.1335 2.19995 12.8667 2.19995 12.6001C2.75995 12.6001 3.31995 12.6001 3.87995 12.6001C3.87995 13.6935 3.87995 14.7867 3.87995 15.8801C4.0847 15.9043 4.27136 15.8775 4.43995 15.8001Z"
            fill="#F9FCFB" />
        <path fill-rule="evenodd" clip-rule="evenodd"
            d="M3.80002 12.52C3.95857 13.5834 4.01191 14.6767 3.96002 15.8C4.12002 15.8 4.28002 15.8 4.44002 15.8C4.27143 15.8775 4.08477 15.9042 3.88002 15.88C3.88002 14.7867 3.88002 13.6934 3.88002 12.6C3.32002 12.6 2.76002 12.6 2.20002 12.6C2.20002 12.8667 2.20002 13.1334 2.20002 13.4C2.12149 13.1231 2.09482 12.8297 2.12002 12.52C2.68002 12.52 3.24002 12.52 3.80002 12.52Z"
            fill="#96A1B3" />
        <path fill-rule="evenodd" clip-rule="evenodd"
            d="M6.76003 14.2801C6.06669 14.2801 5.37336 14.2801 4.68003 14.2801C4.68003 14.5201 4.68003 14.7601 4.68003 15.0001C4.60168 14.7501 4.575 14.4835 4.60003 14.2001C5.3346 14.174 6.0546 14.2007 6.76003 14.2801Z"
            fill="#8D9BB1" />
        <path fill-rule="evenodd" clip-rule="evenodd"
            d="M13.32 14.2802C12.6266 14.2802 11.9333 14.2802 11.24 14.2802C11.24 14.5468 11.24 14.8136 11.24 15.0802C11.1618 14.8572 11.1352 14.6172 11.16 14.3602C11.4891 14.2541 11.8491 14.2008 12.24 14.2002C12.6144 14.2003 12.9744 14.2269 13.32 14.2802Z"
            fill="#97A6BC" />
        <path fill-rule="evenodd" clip-rule="evenodd"
            d="M17.16 14.28C17.16 14.2534 17.16 14.2267 17.16 14.2C17.5436 14.1523 17.8902 14.2056 18.2 14.36C17.8612 14.2851 17.5145 14.2585 17.16 14.28Z"
            fill="#97A4BE" />
        <path fill-rule="evenodd" clip-rule="evenodd"
            d="M19.16 14.2802C19.16 14.2536 19.16 14.2268 19.16 14.2002C19.8534 14.2002 20.5467 14.2002 21.24 14.2002C21.24 14.4936 21.24 14.7868 21.24 15.0802C21.0534 15.0802 20.8667 15.0802 20.68 15.0802C20.8212 15.0033 20.9812 14.9766 21.16 15.0002C21.16 14.7602 21.16 14.5202 21.16 14.2802C20.4934 14.2802 19.8267 14.2802 19.16 14.2802Z"
            fill="#B4C0D6" />
        <path fill-rule="evenodd" clip-rule="evenodd"
            d="M23 14.1201C23.2933 14.1201 23.5866 14.1201 23.88 14.1201C25.0073 14.505 25.4873 15.305 25.32 16.5201C24.3319 16.4936 23.3452 16.5202 22.36 16.6001C22.3699 16.6487 22.3965 16.6753 22.44 16.6801C22.4635 16.9404 22.5701 17.1538 22.76 17.3201C22.9822 17.5906 23.2756 17.7239 23.64 17.7201C24.1109 17.7045 24.5242 17.5445 24.88 17.2401C25.0241 17.4919 25.1707 17.7452 25.32 18.0001C25.0253 18.2767 24.6786 18.4633 24.28 18.5601C23.8 18.6135 23.32 18.6135 22.84 18.5601C22.5755 18.4812 22.3355 18.3612 22.12 18.2001C21.9866 18.0935 21.8533 17.9868 21.72 17.8801C21.0193 16.7408 21.0993 15.6608 21.96 14.6401C22.2925 14.4205 22.6392 14.2472 23 14.1201Z"
            fill="#F7FAFA" />
        <path fill-rule="evenodd" clip-rule="evenodd"
            d="M11.16 14.3599C11.1352 14.6169 11.1619 14.8569 11.24 15.0799C11.4267 15.0799 11.6134 15.0799 11.8 15.0799C12.075 15.9499 12.395 16.8032 12.76 17.6399C12.6338 17.5946 12.5271 17.5146 12.44 17.3999C12.3578 17.0488 12.2111 16.7288 12 16.4399C11.9063 16.065 11.813 15.6917 11.72 15.3199C11.56 15.3199 11.4 15.3199 11.24 15.3199C11.2891 15.7815 11.2357 16.2082 11.08 16.5999C11.08 16.5732 11.08 16.5465 11.08 16.5199C11.1635 14.8299 10.3635 14.0433 8.68001 14.1599C8.30889 14.2921 7.96224 14.4654 7.64001 14.6799C7.62293 14.5483 7.6496 14.4283 7.72001 14.3199C7.93416 14.2999 8.12081 14.2199 8.28001 14.0799C8.95817 13.9972 9.62489 14.0372 10.28 14.1999C10.3554 14.1912 10.422 14.1646 10.48 14.1199C10.695 14.2271 10.8283 14.3604 10.88 14.5199C10.9368 14.402 11.0301 14.3487 11.16 14.3599Z"
            fill="#3D4F6E" />
        <path fill-rule="evenodd" clip-rule="evenodd"
            d="M29.4001 14.68C29.8199 15.2204 29.9799 15.8338 29.8801 16.52C28.8792 16.4936 27.8925 16.5204 26.9201 16.6C27.0157 17.3221 27.429 17.6955 28.1601 17.72C28.3857 17.7273 28.5857 17.674 28.7601 17.56C29.0216 17.5292 29.2483 17.4225 29.4401 17.24C29.5697 17.486 29.6897 17.7393 29.8001 18C29.7329 18.1413 29.6262 18.248 29.4801 18.32C28.598 18.6905 27.718 18.6905 26.8401 18.32C26.6136 18.1599 26.4003 17.9866 26.2001 17.8C26.2059 17.6778 26.1525 17.5978 26.0401 17.56C25.4301 16.0552 25.8301 14.9352 27.2401 14.2C28.0452 13.9976 28.7652 14.1576 29.4001 14.68Z"
            fill="#F8FAFA" />
        <path fill-rule="evenodd" clip-rule="evenodd"
            d="M23 14.12C22.6392 14.2471 22.2926 14.4204 21.96 14.64C21.0993 15.6607 21.0193 16.7407 21.72 17.88C21.5476 17.8903 21.3876 17.8503 21.24 17.76C21.2766 17.7269 21.3033 17.6869 21.32 17.64C21.2677 17.5108 21.2277 17.3775 21.2 17.24C21.16 16.5739 21.1468 15.9072 21.16 15.24C21.0456 15.2337 20.9389 15.2604 20.84 15.32C20.622 15.7577 20.5687 16.211 20.68 16.68C20.5816 17.0172 20.4883 17.0439 20.4 16.76C20.1962 17.2771 20.0362 17.8104 19.92 18.36C19.8867 18.4605 19.82 18.5139 19.72 18.52C20.0397 17.3742 20.3597 16.2276 20.68 15.08C20.8667 15.08 21.0534 15.08 21.24 15.08C21.24 14.7867 21.24 14.4934 21.24 14.2C20.5467 14.2 19.8534 14.2 19.16 14.2C19.4756 14.094 19.8223 14.0407 20.2 14.04C20.5467 14.0534 20.8934 14.0667 21.24 14.08C21.3147 14.3304 21.4347 14.5572 21.6 14.76C21.8726 14.5179 22.1526 14.2912 22.44 14.08C22.6432 14.0164 22.8298 14.0297 23 14.12Z"
            fill="#3A4C6B" />
        <path fill-rule="evenodd" clip-rule="evenodd"
            d="M17.16 14.2002C17.16 14.2268 17.16 14.2535 17.16 14.2802C16.8562 15.2852 16.5762 16.2985 16.32 17.3202C16.2113 16.8851 16.078 16.4584 15.92 16.0402C15.7913 16.377 15.6447 16.697 15.48 17.0002C15.5059 16.7021 15.4792 16.4087 15.4 16.1202C15.3376 16.2185 15.2976 16.3251 15.28 16.4402C15.2264 16.5003 15.1597 16.527 15.08 16.5202C15.281 16.0783 15.4677 15.625 15.64 15.1602C15.7917 15.0829 15.9517 15.0562 16.12 15.0802C16.1986 14.8032 16.2252 14.5098 16.2 14.2002C15.4921 14.1741 14.7988 14.2007 14.12 14.2802C14.12 14.5468 14.12 14.8135 14.12 15.0802C14.0898 14.7416 13.9832 14.4216 13.8 14.1202C14.572 14.027 15.3453 14.0136 16.12 14.0802C16.1933 14.1101 16.26 14.1501 16.32 14.2002C16.3467 14.4668 16.3734 14.7335 16.4 15.0002C16.8315 15.1152 16.9782 14.9552 16.84 14.5202C16.8772 14.3355 16.984 14.2288 17.16 14.2002Z"
            fill="#354A6E" />
        <path fill-rule="evenodd" clip-rule="evenodd"
            d="M14.12 14.2801C14.7987 14.2007 15.4921 14.174 16.2 14.2001C16.2252 14.5098 16.1986 14.8031 16.12 15.0801C16.12 14.8135 16.12 14.5467 16.12 14.2801C15.4534 14.2801 14.7866 14.2801 14.12 14.2801Z"
            fill="#8C9AB1" />
        <path fill-rule="evenodd" clip-rule="evenodd"
            d="M24.1999 15.6399C24.1999 15.7199 24.1999 15.7999 24.1999 15.8799C23.5984 15.9059 23.0118 15.8792 22.4399 15.7999C22.6712 15.049 23.1512 14.8223 23.8799 15.1199C24.0176 15.2754 24.1243 15.4487 24.1999 15.6399Z"
            fill="#374A68" />
        <path fill-rule="evenodd" clip-rule="evenodd"
            d="M23 15.16C23.3046 15.133 23.5979 15.173 23.88 15.28C23.8533 15.3066 23.8266 15.3334 23.8 15.36C23.9324 15.4755 23.9857 15.6222 23.96 15.8C23.6144 15.7572 23.2678 15.7172 22.92 15.68C22.8752 15.622 22.8486 15.5554 22.84 15.48C22.898 15.3706 22.9513 15.264 23 15.16Z"
            fill="#2F4879" />
        <path fill-rule="evenodd" clip-rule="evenodd"
            d="M28.6 15.3201C28.6 15.3467 28.6 15.3734 28.6 15.4001C28.5487 15.5234 28.4687 15.6301 28.36 15.7201C28.3131 15.7033 28.2731 15.6766 28.24 15.6401C27.9147 15.7265 27.5814 15.7799 27.24 15.8001C27.2938 15.2749 27.5871 15.0349 28.12 15.0801C28.12 15.1601 28.12 15.2401 28.12 15.3201C28.28 15.3201 28.44 15.3201 28.6 15.3201Z"
            fill="#314976" />
        <path fill-rule="evenodd" clip-rule="evenodd"
            d="M11.08 16.5202C10.0934 16.5202 9.10666 16.5202 8.12002 16.5202C8.10106 16.6235 8.1277 16.7035 8.20002 16.7602C8.52242 17.6411 9.13578 17.9211 10.04 17.6002C10.2599 17.5104 10.4599 17.3904 10.64 17.2402C10.8627 17.4976 10.9695 17.7909 10.96 18.1202C10.3461 18.5369 9.6661 18.6969 8.92002 18.6002C8.24386 18.5092 7.71053 18.1892 7.32002 17.6402C6.85772 16.6999 6.91105 15.7932 7.48002 14.9202C7.53336 14.8402 7.58668 14.7602 7.64002 14.6802C7.96224 14.4657 8.3089 14.2924 8.68002 14.1602C10.3635 14.0436 11.1635 14.8303 11.08 16.5202Z"
            fill="#F9FBFA" />
        <path fill-rule="evenodd" clip-rule="evenodd"
            d="M8.91995 15C8.80139 15.2181 8.66803 15.4314 8.51995 15.64C8.53667 15.6869 8.56339 15.7269 8.59995 15.76C8.97067 15.732 9.34395 15.732 9.71995 15.76C9.78435 15.671 9.83771 15.5777 9.87995 15.48C9.95603 15.5935 9.98267 15.7268 9.95995 15.88C9.37331 15.88 8.78659 15.88 8.19995 15.88C8.27115 15.4422 8.51115 15.1488 8.91995 15Z"
            fill="#3C4C67" />
        <path fill-rule="evenodd" clip-rule="evenodd"
            d="M8.92002 15.0001C9.16858 14.9882 9.40858 15.0282 9.64002 15.1201C9.7713 15.2104 9.8513 15.3304 9.88002 15.4801C9.83778 15.5778 9.78442 15.6711 9.72002 15.7601C9.34402 15.7321 8.97074 15.7321 8.60002 15.7601C8.56346 15.727 8.53674 15.687 8.52002 15.6401C8.6681 15.4315 8.80146 15.2182 8.92002 15.0001Z"
            fill="#334874" />
        <path fill-rule="evenodd" clip-rule="evenodd"
            d="M28.6 15.3201C28.44 15.3201 28.28 15.3201 28.12 15.3201C28.12 15.2401 28.12 15.1601 28.12 15.0801C27.5871 15.035 27.2938 15.275 27.24 15.8001C27.5814 15.78 27.9147 15.7266 28.24 15.6401C28.2731 15.6767 28.3131 15.7034 28.36 15.7201C28.4687 15.6302 28.5487 15.5235 28.6 15.4001C28.7259 15.5283 28.7793 15.6883 28.76 15.8801C28.1734 15.8801 27.5866 15.8801 27 15.8801C27.1141 15.1422 27.5407 14.8622 28.28 15.0401C28.4074 15.116 28.5141 15.2093 28.6 15.3201Z"
            fill="#3A4B68" />
        <path fill-rule="evenodd" clip-rule="evenodd"
            d="M29.4 14.6802C29.6165 14.7753 29.8032 14.9219 29.96 15.1202C30.0351 15.6097 30.0618 16.1031 30.04 16.6002C29.1334 16.6002 28.2267 16.6002 27.32 16.6002C27.1867 16.6002 27.0534 16.6002 26.92 16.6002C27.8924 16.5206 28.8792 16.4939 29.88 16.5202C29.9799 15.834 29.8199 15.2207 29.4 14.6802Z"
            fill="#46566D" />
        <path fill-rule="evenodd" clip-rule="evenodd"
            d="M24.2 15.6401C24.2747 15.7256 24.3014 15.8322 24.28 15.9601C23.6377 15.9866 22.9977 15.96 22.36 15.8801C22.3699 15.8316 22.3965 15.8049 22.44 15.8001C23.0118 15.8795 23.5985 15.9061 24.2 15.8801C24.2 15.8001 24.2 15.7201 24.2 15.6401Z"
            fill="#C5D3E4" />
        <path fill-rule="evenodd" clip-rule="evenodd"
            d="M3.8 12.52C3.24 12.52 2.68 12.52 2.12 12.52C2.0948 12.8296 2.12148 13.123 2.2 13.4C2.41334 13.4 2.62667 13.4 2.84 13.4C2.84 14.84 2.84 16.28 2.84 17.72C2.62667 17.72 2.41334 17.72 2.2 17.72C2.2 17.9866 2.2 18.2533 2.2 18.52C2.92 18.52 3.64 18.52 4.36 18.52C3.6274 18.6126 2.88074 18.6259 2.12 18.56C2.01071 18.2196 2.03737 17.8864 2.2 17.56C2.35474 17.5279 2.47474 17.4479 2.56 17.32C2.56172 16.6545 2.5484 15.9878 2.52 15.32C2.52868 14.8192 2.58202 14.3259 2.68 13.84C2.66927 13.5614 2.54927 13.4947 2.32 13.64C2.18316 13.6448 2.07648 13.5915 2 13.48C1.98307 13.2193 1.94307 12.966 1.88 12.72C1.93334 12.64 1.98667 12.56 2.04 12.48C2.64095 12.4142 3.22761 12.4276 3.8 12.52Z"
            fill="#3F5374" />
        <path fill-rule="evenodd" clip-rule="evenodd"
            d="M11.08 16.52C11.08 16.5467 11.08 16.5734 11.08 16.6C11 16.6 10.92 16.6 10.84 16.6C10.6534 16.6 10.4667 16.6 10.28 16.6C9.61341 16.6 8.94669 16.6 8.28005 16.6C8.21301 16.6274 8.18629 16.6807 8.20005 16.76C8.12773 16.7033 8.10109 16.6233 8.12005 16.52C9.10669 16.52 10.0934 16.52 11.08 16.52Z"
            fill="#6E7681" />
        <path fill-rule="evenodd" clip-rule="evenodd"
            d="M25.32 16.5202C25.32 16.5468 25.32 16.5736 25.32 16.6002C24.3457 16.574 23.3857 16.6006 22.44 16.6802C22.3965 16.6754 22.3699 16.6488 22.36 16.6002C23.3452 16.5203 24.3319 16.4936 25.32 16.5202Z"
            fill="#6F7680" />
        <path fill-rule="evenodd" clip-rule="evenodd"
            d="M8.28004 16.6001C8.26812 16.6843 8.2814 16.7643 8.32004 16.8401C8.49676 16.9899 8.6434 17.1633 8.76004 17.3601C9.27132 17.4207 9.77796 17.394 10.28 17.2801C10.3744 17.0564 10.3744 16.8298 10.28 16.6001C10.4667 16.6001 10.6534 16.6001 10.84 16.6001C10.7898 17.0959 10.9498 17.5093 11.32 17.8401C10.741 18.6756 9.941 19.009 8.92004 18.8401C8.92004 18.7601 8.92004 18.6801 8.92004 18.6001C9.66612 18.6968 10.3461 18.5368 10.96 18.1201C10.9695 17.7908 10.8628 17.4975 10.64 17.2401C10.46 17.3903 10.26 17.5103 10.04 17.6001C9.1358 17.921 8.52244 17.641 8.20004 16.7601C8.18628 16.6807 8.213 16.6275 8.28004 16.6001Z"
            fill="#3C4F6F" />
        <path fill-rule="evenodd" clip-rule="evenodd"
            d="M17.1599 14.2802C17.5144 14.2586 17.8611 14.2853 18.1999 14.3602C18.4796 15.372 18.7596 16.3854 19.0399 17.4002C19.1966 16.6268 19.3966 15.8668 19.6399 15.1202C19.4821 15.0806 19.3221 15.0672 19.1599 15.0802C19.1599 14.8135 19.1599 14.5468 19.1599 14.2802C19.8266 14.2802 20.4933 14.2802 21.1599 14.2802C21.1599 14.5202 21.1599 14.7602 21.1599 15.0002C20.9811 14.9766 20.8211 15.0033 20.6799 15.0802C20.3596 16.2277 20.0396 17.3743 19.7199 18.5202C19.2933 18.5202 18.8666 18.5202 18.4399 18.5202C18.3015 17.8583 18.1147 17.2183 17.8799 16.6002C17.8799 16.5735 17.8799 16.5468 17.8799 16.5202C17.8146 16.2818 17.7479 16.0418 17.6799 15.8002C17.4008 16.691 17.1208 17.5842 16.8399 18.4802C16.4199 18.5445 16.0065 18.5311 15.5999 18.4402C15.5189 18.1426 15.4255 17.8493 15.3199 17.5602C15.4061 17.3818 15.4595 17.1951 15.4799 17.0002C15.6446 16.697 15.7912 16.377 15.9199 16.0402C16.0779 16.4584 16.2112 16.8851 16.3199 17.3202C16.5761 16.2985 16.8561 15.2852 17.1599 14.2802Z"
            fill="#F8FBFA" />
        <path fill-rule="evenodd" clip-rule="evenodd"
            d="M27.24 14.2002C25.8301 14.9354 25.4301 16.0554 26.04 17.5602C25.9603 17.5671 25.8937 17.5404 25.84 17.4802C25.7715 17.2908 25.7048 17.1041 25.64 16.9202C25.2054 16.9752 25.1521 16.8819 25.48 16.6402C25.4325 16.6031 25.3791 16.5897 25.32 16.6002C25.32 16.5736 25.32 16.5469 25.32 16.5202C25.4873 15.3051 25.0073 14.5051 23.88 14.1202C24.191 14.1078 24.471 14.1878 24.72 14.3602C24.7466 14.3336 24.7734 14.3069 24.8 14.2802C24.8451 14.5653 25.0051 14.752 25.28 14.8402C25.3018 14.9683 25.3418 15.0883 25.4 15.2002C25.3734 15.2269 25.3466 15.2536 25.32 15.2802C25.4371 15.4293 25.5171 15.6027 25.56 15.8002C25.6777 15.7297 25.7443 15.6231 25.76 15.4802C25.7998 15.2954 25.813 15.1088 25.8 14.9202C25.3495 14.9157 25.2562 14.7557 25.52 14.4402C25.7271 14.5072 25.8738 14.6405 25.96 14.8402C26.1556 14.778 26.2622 14.6446 26.28 14.4402C26.1962 14.3157 26.1429 14.1824 26.12 14.0402C26.2298 14.0277 26.3366 14.041 26.44 14.0802C26.5119 14.1791 26.6053 14.2458 26.72 14.2802C26.8879 14.2173 27.0613 14.1906 27.24 14.2002Z"
            fill="#394D70" />
        <path fill-rule="evenodd" clip-rule="evenodd"
            d="M8.27998 16.6001C8.94662 16.6001 9.61334 16.6001 10.28 16.6001C10.3743 16.8298 10.3743 17.0564 10.28 17.2801C9.7779 17.394 9.27126 17.4207 8.75998 17.3601C8.64334 17.1633 8.4967 16.9899 8.31998 16.8401C8.28134 16.7643 8.26806 16.6843 8.27998 16.6001Z"
            fill="#314974" />
        <path fill-rule="evenodd" clip-rule="evenodd"
            d="M7.47999 14.9201C6.91102 15.7931 6.85768 16.6998 7.31999 17.6401C7.08349 17.5217 6.95016 17.6017 6.91999 17.8801C6.96193 18.0307 7.01526 18.1774 7.07999 18.3201C7.03743 18.4817 6.93077 18.5483 6.75999 18.5201C6.75999 18.2535 6.75999 17.9867 6.75999 17.7201C6.57659 17.7406 6.40325 17.7139 6.23999 17.6401C5.8995 17.118 5.60616 16.5847 5.35999 16.0401C5.43588 15.9127 5.52922 15.806 5.63999 15.7201C5.57411 15.8765 5.56078 16.0365 5.59999 16.2001C6.02183 16.4024 6.2085 16.7758 6.15999 17.3201C6.32927 17.6031 6.50259 17.6165 6.67999 17.3601C6.65065 17.1806 6.57065 17.1406 6.43999 17.2401C6.33332 17.1067 6.33332 16.9735 6.43999 16.8401C6.67556 16.9507 6.82223 16.8707 6.87999 16.6001C6.90665 16.2801 6.93332 15.9601 6.95999 15.6401C7.01094 15.4315 7.10427 15.2449 7.23999 15.0801C7.22324 15.0332 7.19658 14.9932 7.15999 14.9601C7.26344 14.9209 7.37011 14.9075 7.47999 14.9201Z"
            fill="#384C6F" />
        <path fill-rule="evenodd" clip-rule="evenodd"
            d="M26.92 16.6001C27.0534 16.6001 27.1867 16.6001 27.32 16.6001C27.3071 16.7623 27.3204 16.9223 27.36 17.0801C27.444 17.1615 27.5373 17.1748 27.64 17.1201C27.6035 17.087 27.5768 17.047 27.56 17.0001C27.7527 16.9239 27.926 16.8171 28.08 16.6801C28.2151 16.8037 28.3751 16.8837 28.56 16.9201C28.5994 17.004 28.5861 17.084 28.52 17.1601C28.2586 17.2391 27.9919 17.2657 27.72 17.2401C27.7064 17.3459 27.7331 17.4392 27.8 17.5201C28.1189 17.56 28.4389 17.5734 28.76 17.5601C28.5857 17.6742 28.3857 17.7275 28.16 17.7201C27.429 17.6956 27.0156 17.3223 26.92 16.6001Z"
            fill="#364C6F" />
        <path fill-rule="evenodd" clip-rule="evenodd"
            d="M17.88 16.5198C17.7734 16.5198 17.6667 16.5198 17.56 16.5198C17.3279 17.188 17.1545 17.8812 17.04 18.5998C16.935 18.6856 16.815 18.739 16.68 18.7598C16.3994 18.6568 16.1194 18.6568 15.84 18.7598C15.6808 18.6544 15.5208 18.5476 15.36 18.4398C15.3324 18.1763 15.2657 17.9229 15.16 17.6798C15.2148 17.4192 15.3214 17.1926 15.48 16.9998C15.4596 17.1948 15.4062 17.3815 15.32 17.5598C15.4256 17.8489 15.519 18.1422 15.6 18.4398C16.0066 18.5308 16.42 18.5441 16.84 18.4798C17.1209 17.5839 17.4009 16.6906 17.68 15.7998C17.748 16.0415 17.8147 16.2815 17.88 16.5198Z"
            fill="#42516F" />
        <path fill-rule="evenodd" clip-rule="evenodd"
            d="M4.59996 17.0798C4.50721 17.0034 4.41387 16.9234 4.31996 16.8398C4.16914 16.8688 4.10247 16.9622 4.11996 17.1198C4.20328 17.3377 4.32328 17.5377 4.47996 17.7198C4.4933 17.8532 4.50662 17.9865 4.51996 18.1198C4.51547 18.291 4.46214 18.4243 4.35996 18.5198C4.35996 18.2532 4.35996 17.9865 4.35996 17.7198C4.22662 17.7198 4.0933 17.7198 3.95996 17.7198C3.95996 17.3732 3.95996 17.0265 3.95996 16.6798C4.3287 16.5872 4.54203 16.7206 4.59996 17.0798Z"
            fill="#3B4C69" />
        <path fill-rule="evenodd" clip-rule="evenodd"
            d="M13.32 14.2798C13.32 14.5464 13.32 14.8131 13.32 15.0798C13.1866 15.0798 13.0534 15.0798 12.92 15.0798C12.957 15.2975 13.0103 15.5108 13.08 15.7198C13.3015 16.2968 13.5015 16.8835 13.68 17.4798C14.031 16.7067 14.311 15.9067 14.52 15.0798C14.4134 15.0798 14.3066 15.0798 14.2 15.0798C14.1734 15.0798 14.1466 15.0798 14.12 15.0798C14.12 14.8131 14.12 14.5464 14.12 14.2798C14.7866 14.2798 15.4534 14.2798 16.12 14.2798C16.12 14.5464 16.12 14.8131 16.12 15.0798C15.9517 15.0559 15.7917 15.0825 15.64 15.1598C15.4677 15.6246 15.281 16.0779 15.08 16.5198C14.6999 17.653 14.2332 18.7463 13.68 19.7998C13.1304 20.2451 12.5038 20.3918 11.8 20.2398C11.6002 20.2068 11.4402 20.1135 11.32 19.9598C11.4192 19.7283 11.5259 19.5016 11.64 19.2798C11.945 19.3843 12.265 19.4109 12.6 19.3598C12.9502 19.1779 13.1235 18.8979 13.12 18.5198C13.0072 18.2209 12.8872 17.9276 12.76 17.6398C12.395 16.8031 12.075 15.9498 11.8 15.0798C11.6134 15.0798 11.4266 15.0798 11.24 15.0798C11.24 14.8131 11.24 14.5464 11.24 14.2798C11.9334 14.2798 12.6266 14.2798 13.32 14.2798Z"
            fill="#F7FAFA" />
        <path fill-rule="evenodd" clip-rule="evenodd"
            d="M14.2 15.0801C14.3066 15.0801 14.4133 15.0801 14.52 15.0801C14.311 15.907 14.031 16.707 13.68 17.4801C13.5015 16.8838 13.3015 16.2971 13.08 15.7201C13.2059 15.755 13.2992 15.835 13.36 15.9601C13.4053 16.1735 13.4453 16.3868 13.48 16.6001C13.6133 16.6001 13.7466 16.6001 13.88 16.6001C13.9748 16.1418 14.1081 15.6885 14.28 15.2401C14.2509 15.1854 14.2243 15.1321 14.2 15.0801Z"
            fill="#3D506C" />
        <path fill-rule="evenodd" clip-rule="evenodd"
            d="M17.88 16.6001C18.1148 17.2183 18.3015 17.8583 18.44 18.5201C18.8667 18.5201 19.2934 18.5201 19.72 18.5201C19.6831 18.6841 19.6298 18.8441 19.56 19.0001C19.602 19.0555 19.6554 19.0955 19.72 19.1201C19.5622 19.1597 19.4022 19.1731 19.24 19.1601C19.2683 18.9968 19.2683 18.8502 19.24 18.7201C18.8328 18.7363 18.4595 18.6429 18.12 18.4401C18.1047 18.1272 18.0913 17.8072 18.08 17.4801C17.914 17.2134 17.8473 16.92 17.88 16.6001Z"
            fill="#3F5270" />
        <path fill-rule="evenodd" clip-rule="evenodd"
            d="M26.2 17.8C26.4002 17.9866 26.6135 18.1599 26.84 18.32C27.7179 18.6906 28.5979 18.6906 29.48 18.32C29.6261 18.2481 29.7328 18.1414 29.8 18C29.6896 17.7394 29.5696 17.486 29.44 17.24C29.2482 17.4226 29.0215 17.5293 28.76 17.56C28.8753 17.4544 28.9286 17.3211 28.92 17.16C29.8466 17.0619 30.14 17.4619 29.8 18.36C28.6187 18.9041 27.4454 18.8908 26.28 18.32C26.3066 18.2934 26.3333 18.2666 26.36 18.24C26.2828 18.102 26.2295 17.9553 26.2 17.8Z"
            fill="#3D506E" />
        <path fill-rule="evenodd" clip-rule="evenodd"
            d="M22.1201 18.2002C22.3356 18.3613 22.5756 18.4813 22.8401 18.5602C23.3201 18.6135 23.8001 18.6135 24.2801 18.5602C24.6787 18.4634 25.0253 18.2767 25.3201 18.0002C25.1708 17.7452 25.0241 17.4919 24.8801 17.2402C24.5243 17.5446 24.1109 17.7046 23.6401 17.7202C23.2757 17.7239 22.9823 17.5906 22.7601 17.3202C23.4993 17.5314 24.2059 17.4781 24.8801 17.1602C25.1657 17.223 25.3791 17.383 25.5201 17.6402C25.5467 17.6135 25.5734 17.5868 25.6001 17.5602C25.6951 17.6452 25.7351 17.7519 25.7201 17.8802C25.6359 17.8682 25.5559 17.8815 25.4801 17.9202C25.3897 18.1144 25.2697 18.2878 25.1201 18.4402C25.0401 18.4668 24.9601 18.4935 24.8801 18.5202C24.8409 18.6236 24.8275 18.7303 24.8401 18.8402C25.0516 18.813 25.2382 18.8663 25.4001 19.0002C25.5372 18.9114 25.5905 18.9648 25.5601 19.1602C25.2389 19.1734 24.9189 19.1601 24.6001 19.1202C24.5602 19.0275 24.4936 18.9609 24.4001 18.9202C24.1177 18.958 23.8511 19.038 23.6001 19.1602C23.4301 19.102 23.2568 19.0486 23.0801 19.0002C22.6566 19.2322 22.27 19.1789 21.9201 18.8402C21.8869 18.8767 21.8469 18.9034 21.8001 18.9202C21.7257 18.825 21.6991 18.7184 21.7201 18.6002C21.85 18.6114 21.9433 18.558 22.0001 18.4402C22.0267 18.4668 22.0534 18.4935 22.0801 18.5202C22.1193 18.4167 22.1326 18.31 22.1201 18.2002Z"
            fill="#364C72" />
    </g>
    <defs>
        <clipPath id="clip0_4492_45">
            <rect width="32" height="32" fill="white" />
        </clipPath>
    </defs>
</svg>