<svg width="32" height="32" viewBox="0 0 32 32" fill="none" xmlns="http://www.w3.org/2000/svg">
<g clip-path="url(#clip0_4047_1840)">
<path fill-rule="evenodd" clip-rule="evenodd" d="M-0.0336914 -0.0336914C10.633 -0.0336914 21.2996 -0.0336914 31.9663 -0.0336914C31.9663 10.5427 31.9663 21.1193 31.9663 31.6957C31.8314 21.3224 31.7864 10.9264 31.8313 0.507535C21.2772 0.507535 10.723 0.507535 0.16884 0.507535C0.191284 10.8745 0.168781 21.2367 0.10133 31.5942C0.157588 31.6506 0.213847 31.707 0.270106 31.7633C10.8272 31.7629 21.3926 31.7629 31.9663 31.7633C31.9663 31.831 31.9663 31.8987 31.9663 31.9663C21.2996 31.9663 10.633 31.9663 -0.0336914 31.9663C-0.0336914 21.2996 -0.0336914 10.633 -0.0336914 -0.0336914Z" fill="#65A745"/>
<path fill-rule="evenodd" clip-rule="evenodd" d="M31.9663 31.6955C31.9663 31.718 31.9663 31.7406 31.9663 31.7631C21.3926 31.7627 10.8272 31.7627 0.270095 31.7631C0.213836 31.7068 0.157577 31.6504 0.101318 31.594C0.168769 21.2365 0.191273 10.8743 0.168829 0.507324C10.723 0.507324 21.2771 0.507324 31.8313 0.507324C31.7864 10.9262 31.8313 21.3222 31.9663 31.6955Z" fill="#63A542"/>
<path fill-rule="evenodd" clip-rule="evenodd" d="M15.8313 15.3232C15.8313 15.3458 15.8313 15.3684 15.8313 15.3909C15.6627 15.4334 15.5727 15.5462 15.5613 15.7292C15.5574 15.8042 15.5349 15.8718 15.4937 15.9321C15.257 16.0584 15.122 16.2613 15.0887 16.541C15.0887 16.5635 15.0887 16.5861 15.0887 16.6087C14.9666 16.5127 14.9216 16.3774 14.9537 16.2027C14.8411 16.2027 14.7287 16.2027 14.6161 16.2027C14.6595 16.3939 14.7496 16.563 14.8862 16.7101C14.806 16.8944 14.7611 17.0861 14.7511 17.2852C14.6836 17.2852 14.6161 17.2852 14.5486 17.2852C14.4963 17.6435 14.4738 18.0043 14.4811 18.3676C14.3911 18.3676 14.301 18.3676 14.211 18.3676C14.2092 18.0049 14.2317 17.6441 14.2786 17.2852C14.3461 17.2852 14.4136 17.2852 14.4811 17.2852C14.4673 16.9899 14.3998 16.708 14.2786 16.4395C14.2998 13.1134 14.3673 9.8097 14.4811 6.52831C14.4767 6.55796 14.4879 6.58051 14.5148 6.59597C14.6807 6.47275 14.8719 6.42765 15.0887 6.46066C15.0887 9.34722 15.0887 12.2337 15.0887 15.1203C15.2353 15.2083 15.3928 15.2759 15.5613 15.3232C15.5613 15.2556 15.5613 15.1879 15.5613 15.1203C15.6512 15.1203 15.7413 15.1203 15.8313 15.1203C15.8313 15.1879 15.8313 15.2556 15.8313 15.3232Z" fill="#65A440"/>
<path fill-rule="evenodd" clip-rule="evenodd" d="M9.95776 6.59624C11.3197 6.57388 12.6699 6.59644 14.0084 6.66389C12.6807 6.66389 11.353 6.66389 10.0253 6.66389C10.0253 6.73155 10.0253 6.7992 10.0253 6.86685C10.0028 6.86685 9.98024 6.86685 9.95776 6.86685C9.95776 6.77667 9.95776 6.68644 9.95776 6.59624Z" fill="#E7FDDF"/>
<path fill-rule="evenodd" clip-rule="evenodd" d="M14.0085 6.66406C14.0085 6.75426 14.0085 6.84449 14.0085 6.93468C12.6786 6.95477 11.3508 6.93224 10.0254 6.86702C10.0254 6.79937 10.0254 6.73172 10.0254 6.66406C11.3531 6.66406 12.6808 6.66406 14.0085 6.66406Z" fill="#FCFBFD"/>
<path fill-rule="evenodd" clip-rule="evenodd" d="M10.0253 6.8667C11.3507 6.93192 12.6784 6.95445 14.0084 6.93435C14.0084 7.00201 14.0084 7.06966 14.0084 7.13731C12.9025 7.15883 11.7998 7.1363 10.7004 7.06966C10.5242 7.11905 10.3442 7.15287 10.1603 7.17114C10.1009 7.26288 10.0783 7.36436 10.0928 7.47558C10.0928 13.5192 10.0928 19.563 10.0928 25.6067C10.0253 19.3714 10.0028 13.1248 10.0253 6.8667Z" fill="#FAFEEF"/>
<path fill-rule="evenodd" clip-rule="evenodd" d="M14.0085 7.13748C14.0085 7.25026 14.0085 7.36297 14.0085 7.47574C12.7033 7.47574 11.398 7.47574 10.0929 7.47574C10.0784 7.36452 10.101 7.26304 10.1604 7.1713C10.3443 7.15304 10.5243 7.11921 10.7005 7.06982C11.7999 7.13646 12.9026 7.15899 14.0085 7.13748Z" fill="#FBFCFD"/>
<path fill-rule="evenodd" clip-rule="evenodd" d="M9.82289 7.13753C9.86772 13.0689 9.82269 18.9773 9.68787 24.8627C9.66539 18.8865 9.68787 12.9105 9.75538 6.93457C9.8152 6.99038 9.83768 7.05804 9.82289 7.13753Z" fill="#5DA939"/>
<path fill-rule="evenodd" clip-rule="evenodd" d="M9.82277 7.13721C9.84525 7.13721 9.86779 7.13721 9.89028 7.13721C9.89028 13.1132 9.89028 19.0893 9.89028 25.0653C9.77618 25.0412 9.70867 24.9736 9.68774 24.8624C9.82256 18.9769 9.86759 13.0686 9.82277 7.13721Z" fill="#68A34A"/>
<path fill-rule="evenodd" clip-rule="evenodd" d="M10.0928 7.47559C11.398 7.47559 12.7032 7.47559 14.0084 7.47559C14.0084 7.49811 14.0084 7.52071 14.0084 7.54324C12.7257 7.54324 11.443 7.54324 10.1603 7.54324C10.1603 13.3163 10.1603 19.0894 10.1603 24.8625C10.2503 24.8625 10.3403 24.8625 10.4303 24.8625C10.4303 25.088 10.5429 25.2007 10.7679 25.2007C10.7679 25.3135 10.7679 25.4262 10.7679 25.539C11.848 25.539 12.9282 25.539 14.0084 25.539C14.0084 25.5615 14.0084 25.5841 14.0084 25.6067C12.7032 25.6067 11.398 25.6067 10.0928 25.6067C10.0928 19.563 10.0928 13.5193 10.0928 7.47559Z" fill="#FDFEF5"/>
<path fill-rule="evenodd" clip-rule="evenodd" d="M14.0085 7.54346C14.0085 13.5421 14.0085 19.5406 14.0085 25.5392C12.9283 25.5392 11.8482 25.5392 10.768 25.5392C10.768 25.4265 10.768 25.3137 10.768 25.201C10.543 25.201 10.4304 25.0882 10.4304 24.8627C10.3405 24.8627 10.2504 24.8627 10.1604 24.8627C10.1604 19.0896 10.1604 13.3165 10.1604 7.54346C11.4431 7.54346 12.7258 7.54346 14.0085 7.54346Z" fill="#FDFEFD"/>
<path fill-rule="evenodd" clip-rule="evenodd" d="M9.95778 6.59619C9.95778 6.68639 9.95778 6.77662 9.95778 6.8668C9.95778 13.136 9.95778 19.4052 9.95778 25.6744C11.308 25.6744 12.6582 25.6744 14.0084 25.6744C12.6472 25.7531 11.2745 25.7643 9.89026 25.7082C9.84719 25.5005 9.84719 25.2863 9.89026 25.0655C9.89026 19.0895 9.89026 13.1134 9.89026 7.13742C9.89479 7.00881 9.87224 6.8848 9.82275 6.76532C9.83214 6.67731 9.8771 6.62093 9.95778 6.59619Z" fill="#648E4C"/>
<path fill-rule="evenodd" clip-rule="evenodd" d="M9.95776 6.8667C9.98024 6.8667 10.0028 6.8667 10.0253 6.8667C10.0028 13.1248 10.0253 19.3714 10.0928 25.6067C11.398 25.6067 12.7032 25.6067 14.0084 25.6067C14.0084 25.6292 14.0084 25.6518 14.0084 25.6743C12.6582 25.6743 11.308 25.6743 9.95776 25.6743C9.95776 19.4051 9.95776 13.1359 9.95776 6.8667Z" fill="#BDD5AB"/>
<path fill-rule="evenodd" clip-rule="evenodd" d="M22.6497 13.7676C22.6497 13.8578 22.6497 13.948 22.6497 14.0382C22.4133 14.3766 22.2107 14.7374 22.0421 15.1207C21.9971 15.1207 21.9522 15.1207 21.9071 15.1207C21.8399 15.1149 21.7837 15.1375 21.7384 15.1883C21.6331 15.3045 21.5769 15.4398 21.5696 15.5943C21.2079 15.6298 21.0166 15.8328 20.9957 16.2031C20.8382 16.3159 20.6807 16.4286 20.5232 16.5414C20.4906 16.6055 20.4793 16.6732 20.4894 16.7444C20.2094 16.8434 19.9844 17.0238 19.8143 17.2856C19.6793 17.3984 19.5443 17.5111 19.4092 17.6239C19.2527 17.6571 19.1177 17.7248 19.0042 17.8268C18.9591 17.8268 18.9142 17.8268 18.8692 17.8268C18.5246 17.9541 18.1646 18.033 17.789 18.0636C17.6432 18.131 17.5306 18.2325 17.4514 18.368C17.3643 18.352 17.2968 18.3745 17.2489 18.4357C16.8753 18.4471 16.5153 18.4922 16.1687 18.571C15.6731 18.5822 15.1781 18.571 14.6835 18.5372C14.6198 18.3532 14.5973 18.1616 14.616 17.9621C14.6044 17.895 14.6269 17.85 14.6835 17.8268C14.7706 17.7891 14.8268 17.7214 14.8523 17.6239C14.8613 17.4192 14.9288 17.2388 15.0548 17.0826C15.0716 17.1587 15.1054 17.2263 15.1561 17.2856C15.2358 17.175 15.2358 17.0622 15.1561 16.9473C15.2652 16.7096 15.3327 16.4615 15.3586 16.2031C15.4036 16.113 15.4486 16.0227 15.4936 15.9325C15.5348 15.8722 15.5573 15.8046 15.5611 15.7296C15.6991 15.6566 15.7891 15.5438 15.8312 15.3913C15.8312 15.3688 15.8312 15.3462 15.8312 15.3236C15.9453 15.2314 16.0579 15.1412 16.1687 15.053C16.3697 15.0659 16.5722 15.0772 16.7763 15.0869C16.5663 14.8238 16.6113 14.6208 16.9113 14.478C16.8889 14.4554 16.8663 14.4329 16.8438 14.4103C16.9756 14.3148 17.0656 14.1908 17.1139 14.0382C17.2002 14.0192 17.2677 13.974 17.3164 13.9029C17.4734 13.947 17.6309 13.9921 17.789 14.0382C18.0334 13.9851 18.0109 13.94 17.7215 13.9029C17.7317 13.6449 17.8667 13.5321 18.1265 13.5647C18.1078 13.6895 18.1528 13.7798 18.2616 13.8353C18.3466 13.7099 18.3466 13.5859 18.2616 13.4632C18.5501 13.3494 18.7977 13.1803 19.0042 12.9558C19.1123 12.8493 19.2473 12.8042 19.4092 12.8205C19.6148 12.8343 19.8061 12.8343 19.9831 12.8205C20.1345 12.941 20.3033 12.9749 20.4894 12.922C20.0413 12.7059 20.0638 12.6269 20.5569 12.6852C20.8008 12.616 21.0483 12.5596 21.2995 12.516C21.7663 12.5034 22.2276 12.4696 22.6835 12.4146C22.809 12.492 22.8653 12.6048 22.8523 12.7528C22.7628 13.0889 22.6952 13.4271 22.6497 13.7676Z" fill="#FDFDFC"/>
<path fill-rule="evenodd" clip-rule="evenodd" d="M20.4894 12.4143C20.2574 12.5121 20.0099 12.5797 19.7468 12.6173C19.7774 12.5525 19.8224 12.496 19.8818 12.4481C20.0832 12.4145 20.2857 12.4032 20.4894 12.4143Z" fill="#6B9852"/>
<path fill-rule="evenodd" clip-rule="evenodd" d="M22.6497 13.7677C22.6952 13.4272 22.7627 13.0889 22.8522 12.7529C22.8652 12.6048 22.8089 12.4921 22.6834 12.4146C22.2275 12.4697 21.7662 12.5035 21.2995 12.5161C21.0483 12.5596 20.8008 12.616 20.5569 12.6852C20.0637 12.627 20.0412 12.7059 20.4893 12.922C20.3032 12.9749 20.1344 12.9411 19.983 12.8205C19.8061 12.8343 19.6147 12.8343 19.4092 12.8205C19.5046 12.7234 19.6171 12.6558 19.7467 12.6176C20.0098 12.58 20.2573 12.5124 20.4893 12.4146C21.341 12.3122 22.1961 12.2671 23.0547 12.2793C23.0237 12.8101 22.8887 13.3063 22.6497 13.7677Z" fill="#EDFAE4"/>
<path fill-rule="evenodd" clip-rule="evenodd" d="M22.6498 14.0382C22.6498 13.948 22.6498 13.8578 22.6498 13.7676C22.8888 13.3062 23.0238 12.81 23.0549 12.2792C22.1963 12.267 21.3411 12.3122 20.4895 12.4145C20.7461 12.3375 21.0162 12.2811 21.2996 12.2454C21.9083 12.207 22.5159 12.1844 23.1224 12.1777C23.1644 12.2839 23.187 12.3967 23.1899 12.516C23.1229 13.022 22.9879 13.5069 22.7849 13.9705C22.754 14.0245 22.709 14.0471 22.6498 14.0382Z" fill="#6C9D56"/>
<path fill-rule="evenodd" clip-rule="evenodd" d="M19.7469 12.6174C19.6173 12.6557 19.5047 12.7233 19.4094 12.8204C19.2475 12.8041 19.1124 12.8492 19.0043 12.9557C18.9368 12.9557 18.8693 12.9557 18.8018 12.9557C18.8503 12.7942 18.9628 12.6927 19.1393 12.6513C19.3406 12.6176 19.5432 12.6063 19.7469 12.6174Z" fill="#699E52"/>
<path fill-rule="evenodd" clip-rule="evenodd" d="M18.7341 12.9556C18.355 13.1755 17.9725 13.401 17.5864 13.6321C17.6522 13.4959 17.7648 13.4057 17.924 13.3615C17.9838 13.3057 18.0063 13.238 17.9915 13.1585C18.2503 13.123 18.4978 13.0554 18.7341 12.9556Z" fill="#719B59"/>
<path fill-rule="evenodd" clip-rule="evenodd" d="M18.7341 12.9556C18.7566 12.9556 18.7792 12.9556 18.8016 12.9556C18.8691 12.9556 18.9367 12.9556 19.0042 12.9556C18.7977 13.18 18.5501 13.3492 18.2616 13.463C18.3466 13.5857 18.3466 13.7097 18.2616 13.8351C18.1528 13.7796 18.1078 13.6893 18.1265 13.5644C17.8667 13.5319 17.7317 13.6447 17.7215 13.9027C18.0109 13.9398 18.0334 13.9848 17.789 14.038C17.6309 13.9919 17.4734 13.9468 17.3164 13.9027C17.4271 13.8369 17.5171 13.7467 17.5864 13.6321C17.9725 13.401 18.3551 13.1755 18.7341 12.9556Z" fill="#EEF8E6"/>
<path fill-rule="evenodd" clip-rule="evenodd" d="M17.1138 14.0381C17.0656 14.1906 16.9756 14.3147 16.8438 14.4102C16.8663 14.4327 16.8888 14.4553 16.9113 14.4778C16.6113 14.6206 16.5663 14.8236 16.7763 15.0867C16.5722 15.077 16.3697 15.0657 16.1687 15.0529C16.4117 14.6514 16.7268 14.3131 17.1138 14.0381Z" fill="#ECF6E9"/>
<path fill-rule="evenodd" clip-rule="evenodd" d="M15.8313 15.3911C15.7892 15.5436 15.6992 15.6564 15.5613 15.7294C15.5728 15.5464 15.6627 15.4337 15.8313 15.3911Z" fill="#739E61"/>
<path fill-rule="evenodd" clip-rule="evenodd" d="M21.9073 15.1205C21.8649 15.2957 21.7861 15.4536 21.671 15.5941C21.1621 16.2263 20.5883 16.7901 19.9495 17.2854C19.9044 17.2854 19.8595 17.2854 19.8145 17.2854C19.9845 17.0236 20.2095 16.8432 20.4896 16.7442C20.4795 16.673 20.4907 16.6054 20.5233 16.5412C20.6808 16.4285 20.8384 16.3158 20.9959 16.203C21.0167 15.8326 21.208 15.6297 21.5697 15.5941C21.577 15.4396 21.6333 15.3043 21.7385 15.1882C21.7838 15.1373 21.84 15.1147 21.9073 15.1205Z" fill="#EEF9E4"/>
<path fill-rule="evenodd" clip-rule="evenodd" d="M15.4937 15.9321C15.4487 16.0223 15.4037 16.1126 15.3587 16.2027C15.2849 16.3278 15.1949 16.4406 15.0886 16.541C15.1219 16.2613 15.2569 16.0584 15.4937 15.9321Z" fill="#709B5C"/>
<path fill-rule="evenodd" clip-rule="evenodd" d="M21.9073 15.1206C21.9523 15.1206 21.9973 15.1206 22.0423 15.1206C21.9521 15.5163 21.7383 15.832 21.4009 16.0678C21.384 16.1985 21.3502 16.3225 21.2997 16.4398C21.3305 16.4679 21.3531 16.5017 21.3672 16.5413C21.0685 16.5611 20.866 16.7078 20.7596 16.9811C20.6246 17.0036 20.4895 17.0262 20.3545 17.0487C20.2698 17.2152 20.1348 17.2941 19.9495 17.2855C20.5882 16.7902 21.1621 16.2264 21.671 15.5942C21.7861 15.4537 21.8649 15.2958 21.9073 15.1206Z" fill="#6C9F52"/>
<path fill-rule="evenodd" clip-rule="evenodd" d="M15.3587 16.2031C15.3328 16.4615 15.2653 16.7096 15.1562 16.9473C15.2359 17.0622 15.2359 17.175 15.1562 17.2856C15.1055 17.2263 15.0717 17.1587 15.0549 17.0826C14.9289 17.2388 14.8613 17.4192 14.8524 17.6238C14.8269 17.7214 14.7707 17.7891 14.6836 17.8268C14.7512 17.3979 14.8863 16.992 15.0887 16.609C15.0887 16.5865 15.0887 16.5639 15.0887 16.5414C15.1949 16.441 15.2849 16.3282 15.3587 16.2031Z" fill="#EAF8DE"/>
<path fill-rule="evenodd" clip-rule="evenodd" d="M15.0887 16.609C14.8863 16.992 14.7513 17.3979 14.6836 17.8268C14.627 17.8499 14.6045 17.895 14.6161 17.9621C14.5711 18.0974 14.5261 18.2327 14.4811 18.368C14.4738 18.0047 14.4963 17.6439 14.5486 17.2856C14.6161 17.2856 14.6836 17.2856 14.7511 17.2856C14.761 17.0865 14.806 16.8948 14.8861 16.7105C14.7496 16.5634 14.6595 16.3942 14.6161 16.2031C14.7286 16.2031 14.8411 16.2031 14.9536 16.2031C14.9216 16.3778 14.9666 16.5131 15.0887 16.609Z" fill="#6B9F4F"/>
<path fill-rule="evenodd" clip-rule="evenodd" d="M18.8691 17.8267C18.4526 18.0335 18.025 18.2138 17.5864 18.3679C17.5414 18.3679 17.4964 18.3679 17.4514 18.3679C17.5306 18.2323 17.6431 18.1308 17.789 18.0634C18.1646 18.0329 18.5246 17.9539 18.8691 17.8267Z" fill="#E8F8DD"/>
<path fill-rule="evenodd" clip-rule="evenodd" d="M19.4092 17.6235C19.3944 17.703 19.4169 17.7707 19.4767 17.8265C19.6303 17.8747 19.7878 17.9086 19.9493 17.928C20.0058 17.9964 20.0282 18.0753 20.0168 18.1648C19.8142 18.1648 19.6117 18.1648 19.4092 18.1648C19.4092 18.2324 19.4092 18.3001 19.4092 18.3677C19.3417 18.3677 19.2742 18.3677 19.2066 18.3677C19.2174 18.2528 19.2062 18.14 19.1729 18.0295C18.7797 18.1476 18.3859 18.2604 17.9915 18.3677C18.3412 18.2131 18.6787 18.0327 19.0041 17.8265C19.1176 17.7245 19.2526 17.6568 19.4092 17.6235Z" fill="#64A24C"/>
<path fill-rule="evenodd" clip-rule="evenodd" d="M18.8691 17.8267C18.9142 17.8267 18.9591 17.8267 19.0041 17.8267C18.6787 18.0329 18.3412 18.2132 17.9915 18.3679C17.8565 18.3679 17.7214 18.3679 17.5864 18.3679C18.025 18.2138 18.4526 18.0335 18.8691 17.8267Z" fill="#6C9658"/>
<path fill-rule="evenodd" clip-rule="evenodd" d="M14.481 6.52859C14.3672 9.80998 14.2997 13.1137 14.2784 16.4398C14.3997 16.7082 14.4672 16.9902 14.481 17.2855C14.4135 17.2855 14.3459 17.2855 14.2784 17.2855C14.2316 17.6444 14.209 18.0052 14.2109 18.3679C14.3009 18.3679 14.391 18.3679 14.481 18.3679C14.481 18.4581 14.481 18.5483 14.481 18.6385C14.5238 18.7364 14.6026 18.7815 14.7173 18.7738C15.1989 18.7123 15.6827 18.6897 16.1687 18.7062C15.7759 18.7622 15.3708 18.796 14.9535 18.8077C14.8644 18.9122 14.8868 18.9911 15.0211 19.0444C15.1302 18.9672 15.254 18.9221 15.3924 18.9091C16.0087 18.8844 16.6275 18.8844 17.2489 18.9091C17.4421 19.0193 17.5771 19.1773 17.654 19.3827C17.5261 19.3456 17.4136 19.278 17.3164 19.1798C17.1647 19.2389 17.0072 19.2615 16.8438 19.2474C16.6047 19.2686 16.3797 19.246 16.1687 19.1798C15.6062 19.0896 15.0435 19.0896 14.481 19.1798C14.391 19.1798 14.3009 19.1798 14.2109 19.1798C14.1343 18.5023 14.1343 17.8258 14.2109 17.1502C14.1623 16.8364 14.1286 16.5208 14.1097 16.203C14.0759 17.2853 14.0646 18.3677 14.0759 19.4504C14.0983 21.5367 14.0758 23.6114 14.0084 25.6745C14.0084 25.6519 14.0084 25.6293 14.0084 25.6068C14.0084 25.5843 14.0084 25.5617 14.0084 25.5392C14.0084 19.5405 14.0084 13.542 14.0084 7.54339C14.0084 7.52086 14.0084 7.49827 14.0084 7.47574C14.0084 7.36296 14.0084 7.25025 14.0084 7.13747C14.0084 7.06982 14.0084 7.00216 14.0084 6.93451C14.0084 6.84433 14.0084 6.7541 14.0084 6.6639C12.6699 6.59644 11.3197 6.57388 9.95776 6.59624C9.96526 6.55447 9.98774 6.52065 10.0253 6.49476C10.7117 6.48349 11.398 6.47222 12.0843 6.46094C12.7973 6.46178 13.4949 6.50689 14.1772 6.59624C14.2681 6.46323 14.3694 6.44068 14.481 6.52859Z" fill="#6DA84D"/>
<path fill-rule="evenodd" clip-rule="evenodd" d="M17.2489 18.4355C16.9057 18.5423 16.5457 18.5874 16.1687 18.5709C16.5152 18.492 16.8753 18.4469 17.2489 18.4355Z" fill="#99BE89"/>
<path fill-rule="evenodd" clip-rule="evenodd" d="M14.616 17.9619C14.5973 18.1614 14.6198 18.353 14.6835 18.537C15.1781 18.5708 15.6731 18.582 16.1687 18.5708C16.1687 18.5933 16.1687 18.6159 16.1687 18.6384C15.6062 18.6384 15.0435 18.6384 14.481 18.6384C14.481 18.5483 14.481 18.458 14.481 18.3678C14.526 18.2325 14.5709 18.0972 14.616 17.9619Z" fill="#D1ECBF"/>
<path fill-rule="evenodd" clip-rule="evenodd" d="M14.481 18.6387C15.0435 18.6387 15.6062 18.6387 16.1687 18.6387C16.1687 18.6612 16.1687 18.6838 16.1687 18.7063C15.6826 18.6898 15.1989 18.7124 14.7172 18.774C14.6025 18.7816 14.5238 18.7366 14.481 18.6387Z" fill="#739D56"/>
<path fill-rule="evenodd" clip-rule="evenodd" d="M16.1687 19.1799C15.6286 19.1799 15.0885 19.1799 14.5484 19.1799C14.5484 19.2701 14.5484 19.3604 14.5484 19.4506C14.4854 19.3783 14.4628 19.2881 14.4809 19.1799C15.0435 19.0898 15.6061 19.0898 16.1687 19.1799Z" fill="#B3D6A7"/>
<path fill-rule="evenodd" clip-rule="evenodd" d="M14.4811 19.1799C14.463 19.288 14.4855 19.3782 14.5486 19.4505C14.5626 19.8378 14.6525 20.1987 14.8186 20.5329C14.8704 20.8169 14.9605 21.0876 15.0887 21.3448C15.0381 21.4145 14.9931 21.4935 14.9536 21.5816C14.7692 21.6428 14.7242 21.5977 14.8186 21.4463C14.657 20.787 14.522 20.1217 14.4136 19.4505C14.301 19.4505 14.1885 19.4505 14.076 19.4505C14.0647 18.3678 14.076 17.2854 14.1098 16.2031C14.1287 16.5209 14.1624 16.8366 14.211 17.1503C14.1344 17.8259 14.1344 18.5025 14.211 19.1799C14.301 19.1799 14.3911 19.1799 14.4811 19.1799Z" fill="#689D4D"/>
<path fill-rule="evenodd" clip-rule="evenodd" d="M16.1688 19.1797C16.3798 19.2459 16.6048 19.2685 16.8439 19.2473C16.8439 19.2699 16.8439 19.2925 16.8439 19.315C16.1011 19.3 15.3584 19.2774 14.6161 19.2473C14.7056 19.6738 14.7731 20.1023 14.8186 20.5328C14.6526 20.1985 14.5626 19.8376 14.5486 19.4503C14.5486 19.3601 14.5486 19.2699 14.5486 19.1797C15.0887 19.1797 15.6288 19.1797 16.1688 19.1797Z" fill="#ECFDE4"/>
<path fill-rule="evenodd" clip-rule="evenodd" d="M16.8438 19.3152C16.9947 19.2953 17.1297 19.3179 17.2489 19.3829C17.6579 19.6865 18.1305 19.8218 18.6666 19.7888C18.9207 19.8597 19.1683 19.9499 19.4092 20.0594C19.3944 20.1389 19.4169 20.2065 19.4767 20.2624C19.6918 20.3932 19.9168 20.4834 20.1518 20.533C20.1576 20.6004 20.1351 20.6567 20.0843 20.7021C20.1294 20.7472 20.1743 20.7923 20.2193 20.8374C20.5431 21.0251 20.8469 21.2393 21.1307 21.4801C21.1532 21.638 21.1758 21.7959 21.1982 21.9537C21.4606 22.0214 21.6969 22.1341 21.9071 22.292C22.0639 22.38 22.1539 22.5153 22.1771 22.6979C22.2535 23.0748 22.366 23.4356 22.5147 23.7803C22.5822 23.7803 22.6497 23.7803 22.7172 23.7803C22.8325 24.0137 22.9225 24.2618 22.9873 24.5245C22.9118 24.8415 22.9118 25.1573 22.9873 25.4717C22.4186 25.4568 21.856 25.4568 21.2995 25.4717C21.1027 25.3857 20.9001 25.3068 20.6919 25.2349C20.9836 25.2011 21.2762 25.1898 21.5696 25.201C21.5696 25.1334 21.5696 25.0657 21.5696 24.9981C21.2095 24.9981 20.8494 24.9981 20.4894 24.9981C20.5071 25.0981 20.4846 25.1883 20.4219 25.2687C20.2474 25.2083 20.0674 25.1858 19.8818 25.201C19.8743 25.1593 19.8518 25.1255 19.8143 25.0996C19.5903 25.0659 19.3653 25.0546 19.1392 25.0657C19.1167 25.0657 19.0941 25.0657 19.0717 25.0657C18.9156 24.7183 18.6456 24.5492 18.2615 24.5583C18.0107 24.4903 17.8307 24.3437 17.7215 24.1186C17.5223 24.0371 17.3198 23.9694 17.1139 23.9156C17.0432 23.6169 16.8632 23.4139 16.5738 23.3068C16.5818 23.0158 16.4468 22.8805 16.1687 22.9008C16.1687 22.8332 16.1687 22.7655 16.1687 22.6979C16.0787 22.6979 15.9887 22.6979 15.8987 22.6979C15.9179 22.5769 15.8954 22.4641 15.8312 22.3596C15.7372 22.2849 15.6584 22.1946 15.5949 22.089C15.3751 21.6763 15.1951 21.2478 15.0548 20.8036C15.0048 20.6805 14.926 20.5903 14.8185 20.533C14.773 20.1025 14.7055 19.674 14.616 19.2476C15.3583 19.2776 16.1009 19.3002 16.8438 19.3152Z" fill="#FDFDFC"/>
<path fill-rule="evenodd" clip-rule="evenodd" d="M17.6541 19.3826C17.6992 19.3826 17.7216 19.4052 17.7216 19.4503C17.5622 19.4385 17.4047 19.416 17.2491 19.3826C17.1299 19.3176 16.9949 19.295 16.844 19.315C16.844 19.2925 16.844 19.2699 16.844 19.2473C17.0074 19.2614 17.1649 19.2388 17.3166 19.1797C17.4138 19.2779 17.5263 19.3456 17.6541 19.3826Z" fill="#82A86B"/>
<path fill-rule="evenodd" clip-rule="evenodd" d="M17.249 19.3828C17.4047 19.4162 17.5622 19.4387 17.7216 19.4505C17.9241 19.4956 18.1267 19.5406 18.3292 19.5858C18.4353 19.6661 18.5479 19.7337 18.6667 19.7887C18.1306 19.8217 17.6581 19.6864 17.249 19.3828Z" fill="#EEFAE4"/>
<path fill-rule="evenodd" clip-rule="evenodd" d="M18.3291 19.5854C18.6879 19.6391 19.0254 19.7519 19.3418 19.9237C19.3885 19.8882 19.4222 19.8431 19.443 19.7884C19.5827 19.8401 19.729 19.8739 19.8818 19.8899C20.0757 20.0951 20.2557 20.3094 20.4219 20.5326C20.3544 20.5326 20.2869 20.5326 20.2194 20.5326C20.1969 20.5326 20.1744 20.5326 20.1519 20.5326C19.9182 20.3588 19.6707 20.2009 19.4093 20.059C19.1683 19.9495 18.9208 19.8593 18.6667 19.7884C18.5478 19.7334 18.4352 19.6658 18.3291 19.5854Z" fill="#6C9F4C"/>
<path fill-rule="evenodd" clip-rule="evenodd" d="M19.4092 20.0591C19.6706 20.201 19.9181 20.3589 20.1518 20.5327C19.9168 20.4831 19.6918 20.3929 19.4767 20.262C19.4169 20.2062 19.3944 20.1386 19.4092 20.0591Z" fill="#E5F7D3"/>
<path fill-rule="evenodd" clip-rule="evenodd" d="M20.2195 20.5327C20.287 20.5327 20.3545 20.5327 20.422 20.5327C20.483 20.5807 20.5055 20.6483 20.4895 20.7357C20.361 20.7196 20.2709 20.6519 20.2195 20.5327Z" fill="#87AD79"/>
<path fill-rule="evenodd" clip-rule="evenodd" d="M20.4895 20.7359C20.7751 20.6725 20.9438 20.7852 20.9958 21.0741C21.0889 21.19 21.2014 21.2803 21.3334 21.3447C21.366 21.4089 21.3772 21.4765 21.3671 21.5477C21.0729 21.2752 20.7803 21.0046 20.4895 20.7359Z" fill="#6FA158"/>
<path fill-rule="evenodd" clip-rule="evenodd" d="M20.152 20.5327C20.1745 20.5327 20.197 20.5327 20.2195 20.5327C20.2709 20.6519 20.361 20.7196 20.4895 20.7357C20.7803 21.0044 21.0729 21.275 21.3672 21.5475C21.415 21.6087 21.4825 21.6312 21.5697 21.6152C21.5624 21.7514 21.6074 21.8641 21.7047 21.9534C21.8009 22.0496 21.8684 22.1624 21.9073 22.2917C21.697 22.1339 21.4607 22.0212 21.1984 21.9534C21.1759 21.7956 21.1534 21.6377 21.1309 21.4799C20.847 21.239 20.5432 21.0248 20.2195 20.8372C20.1745 20.792 20.1295 20.747 20.0845 20.7018C20.1352 20.6565 20.1578 20.6001 20.152 20.5327Z" fill="#EFF8E4"/>
<path fill-rule="evenodd" clip-rule="evenodd" d="M15.0886 21.6152C15.1559 21.6093 15.2121 21.6319 15.2574 21.6828C15.4391 22.0483 15.6529 22.3866 15.8987 22.6976C15.9887 22.8329 16.0788 22.9682 16.1688 23.1035C16.0188 23.1253 15.895 23.0802 15.7975 22.9682C15.763 22.8073 15.718 22.6494 15.6625 22.4946C15.3543 22.2798 15.1631 21.9866 15.0886 21.6152Z" fill="#6E9E57"/>
<path fill-rule="evenodd" clip-rule="evenodd" d="M21.7046 21.9536C21.7545 21.9447 21.7995 21.956 21.8396 21.9874C22.2094 22.2983 22.4345 22.693 22.5147 23.1714C22.3856 23.0254 22.2731 22.8675 22.1772 22.6978C22.1539 22.5153 22.0639 22.38 21.9071 22.2919C21.8683 22.1626 21.8008 22.0498 21.7046 21.9536Z" fill="#6E9854"/>
<path fill-rule="evenodd" clip-rule="evenodd" d="M14.8186 20.5327C14.9261 20.5901 15.0049 20.6803 15.0549 20.8033C15.1952 21.2475 15.3752 21.6761 15.595 22.0887C15.6585 22.1943 15.7373 22.2846 15.8313 22.3594C15.8955 22.4639 15.918 22.5767 15.8988 22.6976C15.6529 22.3866 15.4392 22.0484 15.2574 21.6828C15.2121 21.6319 15.1559 21.6093 15.0886 21.6152C15.0886 21.525 15.0886 21.4347 15.0886 21.3446C14.9604 21.0873 14.8704 20.8167 14.8186 20.5327Z" fill="#E6F5DF"/>
<path fill-rule="evenodd" clip-rule="evenodd" d="M22.1772 22.6978C22.2732 22.8675 22.3857 23.0254 22.5148 23.1713C22.5629 23.3806 22.6304 23.5836 22.7173 23.7802C22.6498 23.7802 22.5823 23.7802 22.5148 23.7802C22.3661 23.4355 22.2536 23.0747 22.1772 22.6978Z" fill="#ECFADB"/>
<path fill-rule="evenodd" clip-rule="evenodd" d="M15.8987 22.6978C15.9887 22.6978 16.0787 22.6978 16.1687 22.6978C16.1687 22.7654 16.1687 22.8331 16.1687 22.9007C16.4468 22.8804 16.5818 23.0157 16.5738 23.3066C16.8632 23.4138 17.0433 23.6168 17.1139 23.9155C16.7988 23.6674 16.4838 23.4194 16.1687 23.1713C16.1687 23.1488 16.1687 23.1262 16.1687 23.1037C16.0787 22.9684 15.9887 22.8331 15.8987 22.6978Z" fill="#EBF9E2"/>
<path fill-rule="evenodd" clip-rule="evenodd" d="M16.1687 23.1714C16.4838 23.4195 16.7988 23.6675 17.1138 23.9156C17.2311 24.0543 17.3661 24.1783 17.5189 24.2877C17.8495 24.4641 18.1645 24.6558 18.4641 24.8627C17.9332 24.6148 17.3931 24.378 16.8438 24.1524C16.8031 24.0289 16.7581 23.9048 16.7088 23.7803C16.521 23.576 16.341 23.373 16.1687 23.1714Z" fill="#709C57"/>
<path fill-rule="evenodd" clip-rule="evenodd" d="M17.114 23.9155C17.3199 23.9693 17.5225 24.037 17.7216 24.1185C17.8308 24.3436 18.0109 24.4902 18.2617 24.5582C18.6458 24.5491 18.9158 24.7182 19.0718 25.0656C18.9045 24.9721 18.7245 24.9044 18.5317 24.8627C18.5093 24.8627 18.4867 24.8627 18.4642 24.8627C18.1647 24.6557 17.8497 24.4641 17.5191 24.2876C17.3663 24.1782 17.2313 24.0542 17.114 23.9155Z" fill="#EFF8E5"/>
<path fill-rule="evenodd" clip-rule="evenodd" d="M18.5317 24.8628C18.7244 24.9045 18.9044 24.9722 19.0717 25.0658C19.0942 25.0658 19.1168 25.0658 19.1392 25.0658C19.1843 25.1109 19.2292 25.1559 19.2743 25.2011C19.038 25.1936 18.8129 25.1373 18.5992 25.0319C18.5484 24.9865 18.5258 24.9302 18.5317 24.8628Z" fill="#749F5C"/>
<path fill-rule="evenodd" clip-rule="evenodd" d="M19.1392 25.0657C19.3653 25.0545 19.5903 25.0658 19.8143 25.0995C19.8518 25.1254 19.8743 25.1592 19.8818 25.201C19.9879 25.2813 20.1004 25.3489 20.2193 25.404C19.9423 25.364 19.6723 25.2964 19.4092 25.201C19.3642 25.201 19.3192 25.201 19.2742 25.201C19.2292 25.1559 19.1842 25.1108 19.1392 25.0657Z" fill="#E4F2D8"/>
<path fill-rule="evenodd" clip-rule="evenodd" d="M22.9873 24.5244C23.0324 24.6372 23.0773 24.7499 23.1223 24.8627C23.1223 24.9755 23.1223 25.0882 23.1223 25.2009C23.1223 25.3363 23.1223 25.4716 23.1223 25.6069C22.6047 25.6069 22.0872 25.6069 21.5696 25.6069C21.1262 25.5542 20.6761 25.4866 20.2194 25.4039C20.1005 25.3489 19.988 25.2813 19.8818 25.2009C20.0674 25.1857 20.2475 25.2082 20.4219 25.2686C20.4846 25.1882 20.5071 25.098 20.4894 24.998C20.8495 24.998 21.2096 24.998 21.5696 24.998C21.5696 25.0656 21.5696 25.1333 21.5696 25.2009C21.2762 25.1897 20.9837 25.201 20.692 25.2348C20.9002 25.3067 21.1027 25.3856 21.2996 25.4716C21.856 25.4567 22.4186 25.4567 22.9873 25.4716C22.9118 25.1572 22.9118 24.8414 22.9873 24.5244Z" fill="#F5FDF1"/>
<path fill-rule="evenodd" clip-rule="evenodd" d="M19.4092 25.2007C19.6723 25.2961 19.9423 25.3637 20.2193 25.4036C20.676 25.4863 21.1261 25.554 21.5695 25.6066C21.0267 25.6177 20.4866 25.5839 19.9493 25.5051C19.7465 25.4233 19.5665 25.3218 19.4092 25.2007Z" fill="#7EA863"/>
<path fill-rule="evenodd" clip-rule="evenodd" d="M23.1223 25.2007C23.1877 25.3432 23.2102 25.5011 23.1898 25.6743C22.6497 25.6743 22.1097 25.6743 21.5696 25.6743C21.5696 25.6517 21.5696 25.6291 21.5696 25.6066C22.0872 25.6066 22.6047 25.6066 23.1223 25.6066C23.1223 25.4713 23.1223 25.336 23.1223 25.2007Z" fill="#BBD5AA"/>
<path fill-rule="evenodd" clip-rule="evenodd" d="M23.1223 24.8628C23.2101 24.9794 23.2551 25.126 23.2573 25.3025C23.2553 25.4665 23.2328 25.6244 23.1898 25.7761C22.6402 25.7735 22.1001 25.7396 21.5696 25.6746C22.1097 25.6746 22.6497 25.6746 23.1898 25.6746C23.2102 25.5015 23.1877 25.3436 23.1223 25.2011C23.1223 25.0883 23.1223 24.9756 23.1223 24.8628Z" fill="#65924E"/>
</g>
<defs>
<clipPath id="clip0_4047_1840">
<rect width="32" height="32" fill="white"/>
</clipPath>
</defs>
</svg>
