<svg width="32" height="32" viewBox="0 0 33 32" fill="none" xmlns="http://www.w3.org/2000/svg">
    <path fill-rule="evenodd" clip-rule="evenodd"
        d="M25.5427 4.52051C24.3784 5.59495 23.2053 6.67969 22.023 7.77473C16.066 4.49896 11.0213 5.5837 6.8885 11.029C4.75841 10.4912 4.6412 10.7323 6.53654 11.7521C4.35541 17.9867 5.99803 22.8682 11.4641 26.3961C17.7262 28.5114 22.4778 26.6431 25.7187 20.7916C27.0977 16.9403 26.6873 13.3244 24.4868 9.94421C25.1714 8.41245 26.1101 7.08668 27.3025 5.96683C29.0757 7.92078 30.3076 10.2108 30.9982 12.8369C32.054 23.4901 27.5373 29.8778 17.4475 32.0006C16.2744 32.0006 15.1009 32.0006 13.9278 32.0006C9.92104 31.357 6.57737 29.4287 3.8968 26.2153C-0.901199 18.9421 -0.490455 12.0119 5.12868 5.42446C11.7499 0.196481 18.5544 -0.104823 25.5427 4.52051Z"
        fill="#040404" />
    <path fill-rule="evenodd" clip-rule="evenodd"
        d="M27.3025 5.96607C26.11 7.08592 25.1713 8.41169 24.4867 9.94346C22.3257 12.93 20.3311 16.0637 18.5033 19.3445C17.6076 18.1244 16.7864 16.8589 16.0396 15.548C18.0806 12.974 20.0752 10.3827 22.023 7.77398C23.2052 6.67893 24.3783 5.59419 25.5426 4.51975C27.6491 2.53818 29.9957 1.03159 32.5819 0C30.3716 1.6061 28.6118 3.59479 27.3025 5.96607Z"
        fill="#8DC7AB" />
    <path fill-rule="evenodd" clip-rule="evenodd"
        d="M22.0231 7.77339C20.0753 10.3821 18.0808 12.9734 16.0397 15.5474C16.7866 16.8583 17.6077 18.1238 18.5035 19.344C20.3312 16.0632 22.3258 12.9295 24.4869 9.94287C26.6874 13.3231 27.0978 16.9389 25.7188 20.7903C22.4779 26.6417 17.7263 28.51 11.4642 26.3948C5.99813 22.8668 4.35551 17.9853 6.53664 11.7508C10.5241 15.4793 13.7502 19.8183 16.2157 24.7677C16.7447 23.4399 17.2726 22.1144 17.7995 20.7903C16.663 17.6719 14.6685 15.3216 11.8161 13.7395C10.1967 12.7278 8.5541 11.8239 6.8886 11.0276C11.0214 5.58236 16.0661 4.49762 22.0231 7.77339Z"
        fill="#FAFAFA" />
    <path fill-rule="evenodd" clip-rule="evenodd"
        d="M6.8884 11.0275C8.5539 11.8237 10.1965 12.7277 11.8159 13.7393C14.6682 15.3215 16.6628 17.6717 17.7993 20.7901C17.2724 22.1142 16.7445 23.4398 16.2155 24.7675C13.75 19.8181 10.5239 15.4792 6.53643 11.7506C4.6411 10.7308 4.7583 10.4898 6.8884 11.0275Z"
        fill="#8EC8AD" />
</svg>