<svg width="32" height="32" viewBox="0 0 33 33" fill="none" xmlns="http://www.w3.org/2000/svg">
    <path opacity="0.955" fill-rule="evenodd" clip-rule="evenodd"
        d="M1.71212 0.5C6.96464 0.5 12.2172 0.5 17.4697 0.5C17.4496 1.47704 17.4697 2.45322 17.5303 3.42857C17.8023 3.73288 18.0851 3.73288 18.3788 3.42857C18.4394 2.45322 18.4595 1.47704 18.4394 0.5C22.7222 0.5 27.0051 0.5 31.2878 0.5C31.7287 0.842397 32.1126 1.24914 32.4394 1.72024C32.5202 5.7877 32.5202 9.85517 32.4394 13.9226C32.078 14.6035 31.5326 15.0712 30.803 15.3259C26.7222 15.4073 22.6414 15.4073 18.5606 15.3259C18.4616 14.339 18.401 13.3424 18.3788 12.3363C18.1273 12.0742 17.8445 12.0335 17.5303 12.2143C17.4899 13.1905 17.4494 14.1667 17.4091 15.1429C17.1034 15.4067 16.76 15.4473 16.3788 15.2649C13.8956 12.8261 11.431 10.3653 8.98484 7.88244C8.15586 7.53823 7.42859 7.68059 6.80302 8.30953C5.32711 9.69228 4.74124 11.4006 5.04545 13.4345C5.26463 14.078 5.44644 14.7287 5.5909 15.3869C4.41849 15.4072 3.24677 15.3869 2.07576 15.3259C1.39911 15.0693 0.873863 14.6422 0.5 14.0447C0.5 12.7431 0.5 11.4415 0.5 10.1399C1.16614 9.98494 1.8126 9.76123 2.43939 9.46876C3.44566 8.32617 3.40525 7.22796 2.31818 6.17411C1.68906 5.98951 1.083 5.76579 0.5 5.50298C0.5 4.20139 0.5 2.89981 0.5 1.59821C0.853311 1.17618 1.25735 0.810104 1.71212 0.5ZM17.5909 5.86905C17.8993 5.82077 18.1619 5.90212 18.3788 6.1131C18.4596 7.29267 18.4596 8.47222 18.3788 9.65179C18.0851 9.95609 17.8023 9.95609 17.5303 9.65179C17.4323 8.38151 17.4526 7.12059 17.5909 5.86905Z"
        fill="#30E87A" />
    <path opacity="0.915" fill-rule="evenodd" clip-rule="evenodd"
        d="M7.77278 8.79784C8.01852 8.77806 8.26094 8.79839 8.50005 8.85885C13.1628 13.5529 17.8295 18.2508 22.5 22.9526C24.2613 21.3046 26.3017 20.8368 28.6212 21.5493C31.8351 23.1609 32.9057 25.703 31.8334 29.1758C30.4805 31.7583 28.3593 32.8362 25.4697 32.4095C24.5357 32.1648 23.6872 31.7581 22.9243 31.1892C21.2476 29.5013 19.5707 27.8132 17.894 26.1252C16.1364 27.8946 14.3788 29.6639 12.6213 31.4333C10.7871 32.5788 8.84775 32.7822 6.80309 32.0434C4.07213 30.4697 3.08223 28.1309 3.83339 25.027C5.22168 22.0042 7.54492 20.8043 10.8031 21.4273C11.76 21.7619 12.6085 22.2703 13.3485 22.9526C13.6091 22.7514 13.8516 22.5277 14.0758 22.2815C11.7154 19.9053 9.35181 17.5258 6.9849 15.1431C5.72542 13.493 5.64462 11.7846 6.74248 10.0181C7.06595 9.59103 7.40939 9.18429 7.77278 8.79784ZM8.50005 24.5389C10.2971 24.3428 11.3072 25.136 11.5304 26.9184C11.2329 28.8379 10.142 29.5701 8.25763 29.1148C6.58201 27.9021 6.42038 26.5193 7.77278 24.966C8.04277 24.8512 8.28519 24.7088 8.50005 24.5389ZM25.9546 24.5389C27.7089 24.3426 28.7189 25.1155 28.9849 26.8574C28.8668 28.3387 28.0789 29.1523 26.6212 29.2979C24.6125 28.9019 23.9256 27.7224 24.5606 25.7592C24.8993 25.1937 25.3639 24.787 25.9546 24.5389Z"
        fill="#30E87A" />
    <path opacity="0.85" fill-rule="evenodd" clip-rule="evenodd"
        d="M19.7727 16.4854C22.2373 16.4854 24.702 16.4854 27.1666 16.4854C27.1847 16.6137 27.1646 16.7357 27.106 16.8514C25.6062 18.4022 24.0708 19.9071 22.5 21.3663C21.2629 20.2236 20.0508 19.0439 18.8636 17.8276C18.7828 17.7056 18.7828 17.5836 18.8636 17.4615C19.1915 17.1521 19.4945 16.8267 19.7727 16.4854Z"
        fill="#30E87A" />
</svg>