<svg width="32" height="32" viewBox="0 0 33 33" fill="none" xmlns="http://www.w3.org/2000/svg">
    <path opacity="0.958" fill-rule="evenodd" clip-rule="evenodd"
        d="M32.5 12.4638C32.5 12.7137 32.5 12.9636 32.5 13.2135C29.3406 15.513 26.1979 17.8455 23.0672 20.2112C24.0152 24.2688 24.9322 28.3507 25.8134 32.457C25.269 32.43 24.7913 32.2219 24.3806 31.8322C21.7943 29.6247 19.2057 27.417 16.6194 25.2095C14.042 27.323 11.5345 29.5308 9.09701 31.8322C8.68698 32.2219 8.20937 32.43 7.66418 32.457C8.49928 28.3789 9.25558 24.2969 9.93284 20.2112C7.10704 18.0869 4.28101 15.9626 1.45522 13.8383C0.918866 13.5242 0.600537 13.066 0.5 12.4638C4.5597 12.4638 8.6194 12.4638 12.6791 12.4638C13.7955 8.54162 14.9497 4.62627 16.1418 0.717706C16.3832 0.508619 16.6624 0.425312 16.9776 0.46779C18.0522 4.46527 19.2463 8.42226 20.5597 12.3388C24.5382 12.4637 28.5191 12.5054 32.5 12.4638Z"
        fill="#BB232F" />
</svg>