<svg width="32" height="32" viewBox="0 0 32 32" fill="none" xmlns="http://www.w3.org/2000/svg">
    <g clip-path="url(#clip0_2893_2606)">
        <path fill-rule="evenodd" clip-rule="evenodd"
            d="M-0.5 -0.5C10.1667 -0.5 20.8333 -0.5 31.5 -0.5C31.5 9.5 31.5 19.5 31.5 29.5C30.5 29.8333 29.8333 30.5 29.5 31.5C19.5 31.5 9.5 31.5 -0.5 31.5C-0.5 20.8333 -0.5 10.1667 -0.5 -0.5Z"
            fill="#170E46" />
        <path fill-rule="evenodd" clip-rule="evenodd"
            d="M9.5001 6.5C10.5001 6.5 11.5001 6.5 12.5001 6.5C12.338 8.5273 12.5046 10.5273 13.0001 12.5C14.8334 10.6667 16.6668 8.83333 18.5001 7C20.1668 6.33333 21.8334 6.33333 23.5001 7C21.1668 9.33333 18.8334 11.6667 16.5001 14C19.1668 17.3333 21.8334 20.6667 24.5001 24C22.8334 24.6667 21.1668 24.6667 19.5001 24C18.1668 22 16.8334 20 15.5001 18C14.5521 17.5172 13.5521 17.3505 12.5001 17.5C12.5001 19.8333 12.5001 22.1667 12.5001 24.5C11.1668 24.5 9.83343 24.5 8.5001 24.5C8.21149 18.4093 8.54482 12.4093 9.5001 6.5Z"
            fill="#ECEBF0" />
        <path fill-rule="evenodd" clip-rule="evenodd"
            d="M31.5 29.5C31.5 30.1667 31.5 30.8333 31.5 31.5C30.8333 31.5 30.1667 31.5 29.5 31.5C29.8333 30.5 30.5 29.8333 31.5 29.5Z"
            fill="#170E46" />
    </g>
    <defs>
        <clipPath id="clip0_2893_2606">
            <rect width="32" height="32" fill="white" />
        </clipPath>
    </defs>
</svg>