<svg width="32" height="32" viewBox="0 0 32 32" fill="none" xmlns="http://www.w3.org/2000/svg">
    <g clip-path="url(#clip0_3449_341)">
        <path fill-rule="evenodd" clip-rule="evenodd"
            d="M-0.0710449 -0.0712891C10.5956 -0.0712891 21.2623 -0.0712891 31.929 -0.0712891C31.929 10.5954 31.929 21.262 31.929 31.9287C21.2623 31.9287 10.5956 31.9287 -0.0710449 31.9287C-0.0710449 21.262 -0.0710449 10.5954 -0.0710449 -0.0712891Z"
            fill="#5345EF" />
        <path fill-rule="evenodd" clip-rule="evenodd"
            d="M8.60449 8.4624C12.8792 8.84973 15.2022 11.1727 15.5734 15.4313C13.2504 15.4313 10.9275 15.4313 8.60449 15.4313C8.60449 13.1083 8.60449 10.7854 8.60449 8.4624Z"
            fill="#FDFDFE" />
        <path fill-rule="evenodd" clip-rule="evenodd"
            d="M23.2534 9.59978C22.8809 12.083 21.5534 13.8608 19.2712 14.9331C18.4517 15.2803 17.5984 15.4463 16.7112 15.4309C16.7112 13.2502 16.7112 11.0694 16.7112 8.88867C18.8919 8.88867 21.0727 8.88867 23.2534 8.88867C23.2534 9.12571 23.2534 9.36274 23.2534 9.59978Z"
            fill="#FDFDFE" />
        <path fill-rule="evenodd" clip-rule="evenodd"
            d="M8.60449 16.4268C10.9275 16.4268 13.2504 16.4268 15.5734 16.4268C15.1955 20.6921 12.8725 23.0151 8.60449 23.3956C8.60449 21.0727 8.60449 18.7497 8.60449 16.4268Z"
            fill="#FDFDFE" />
        <path fill-rule="evenodd" clip-rule="evenodd"
            d="M16.5688 16.4268C19.7448 16.5811 21.9018 18.1455 23.04 21.1201C23.2497 21.7691 23.3682 22.4328 23.3955 23.1112C21.12 23.1112 18.8444 23.1112 16.5688 23.1112C16.5688 20.883 16.5688 18.655 16.5688 16.4268Z"
            fill="#FBFBFD" />
    </g>
    <defs>
        <clipPath id="clip0_3449_341">
            <rect width="32" height="32" fill="white" />
        </clipPath>
    </defs>
</svg>