<svg width="32" height="32" viewBox="0 0 32 32" fill="none" xmlns="http://www.w3.org/2000/svg">
    <g opacity="0.8">
        <path
            d="M28.2099 25.3438L17.7901 31.5083C16.6819 32.1639 15.3181 32.1639 14.2099 31.5083L3.79015 25.3438C2.68184 24.6883 2 23.477 2 22.1659V9.83687C2 8.52574 2.68184 7.31442 3.79015 6.65886L14.2099 0.491674C15.3181 -0.163891 16.6819 -0.163891 17.7901 0.491674L28.2099 6.65616C29.3181 7.31172 30 8.52304 30 9.83418V22.1632C30 23.4743 29.3181 24.6856 28.2099 25.3412V25.3438Z"
            fill="#81C105" />
    </g>
    <path
        d="M15.701 22.6647V22.5514C15.701 20.0586 15.701 17.5685 15.701 15.0758C15.701 14.984 15.701 14.984 15.7931 14.984C16.2828 14.984 16.7698 14.984 17.2595 14.984C17.32 14.984 17.3674 14.9678 17.4148 14.93C17.9966 14.493 18.5757 14.0559 19.1602 13.6216C19.2207 13.5758 19.247 13.5272 19.247 13.449C19.2418 12.7448 19.2444 12.0434 19.2418 11.3393C19.2418 11.2826 19.255 11.261 19.3155 11.261C20.3765 11.261 21.4347 11.261 22.4957 11.261C22.5588 11.261 22.6194 11.2637 22.6826 11.261C22.701 11.261 22.7299 11.2341 22.7352 11.2152C22.8485 10.7566 23.2591 10.449 23.7172 10.4976C24.17 10.5461 24.4911 10.8699 24.549 11.3339C24.6096 11.8222 24.2595 12.2916 23.7672 12.3725C23.3881 12.4346 23.0143 12.2269 22.8432 11.9247C22.8115 11.8681 22.7721 11.8465 22.7089 11.8465C21.7744 11.8465 20.8372 11.8465 19.9026 11.8465C19.8025 11.8465 19.8025 11.8465 19.8025 11.949C19.8025 12.5641 19.8025 13.1792 19.8025 13.7943C19.8025 13.824 19.7788 13.8618 19.7525 13.8806C19.513 14.0668 19.2707 14.2502 19.026 14.4309C18.6679 14.7008 18.3099 14.9705 17.9519 15.2376C17.8281 15.3294 17.7018 15.421 17.5728 15.5047C17.5332 15.5317 17.4806 15.5451 17.4332 15.5451C17.0725 15.5479 16.7145 15.5479 16.3539 15.5451C16.2986 15.5451 16.2801 15.556 16.2801 15.618C16.2801 17.9327 16.2801 20.2475 16.2801 22.5621C16.2801 22.6197 16.3083 22.6485 16.3644 22.6485C16.525 22.6485 16.6856 22.6485 16.8435 22.6485C16.8857 22.6485 16.9067 22.6377 16.9014 22.5918C16.8988 22.5567 16.9014 22.5243 16.9014 22.4893C16.9014 20.849 16.9014 19.2088 16.9014 17.5685C16.9014 17.5127 16.9286 17.4849 16.9831 17.4849C17.5517 17.4849 18.1229 17.4849 18.6916 17.4849C18.7443 17.4849 18.7863 17.4714 18.8259 17.4363C19.0917 17.2097 19.3603 16.9831 19.6315 16.7619C19.663 16.7348 19.7131 16.7214 19.7578 16.7187C19.8999 16.7133 20.0395 16.7187 20.1922 16.7187C20.1922 16.689 20.1922 16.6621 20.1922 16.635C20.1922 16.1657 20.1922 15.6989 20.1922 15.2296C20.1922 15.1243 20.1922 15.1216 20.2949 15.1216C20.7371 15.1243 21.1793 15.127 21.6217 15.1296C21.64 15.1296 21.6585 15.1296 21.677 15.1296C21.7331 15.1296 21.7612 15.1018 21.7612 15.046C21.7612 14.8464 21.7612 14.6468 21.7612 14.4445C21.7612 14.3958 21.7453 14.3771 21.7007 14.3582C21.34 14.2233 21.1267 13.9616 21.0741 13.5677C21.003 13.0281 21.4347 12.4994 22.0191 12.5209C22.4772 12.5371 22.8668 12.9067 22.9116 13.3708C22.9459 13.7484 22.7404 14.1288 22.4009 14.3042C22.343 14.3338 22.3245 14.3662 22.3245 14.4309C22.3271 14.833 22.3245 15.2349 22.3298 15.6396C22.3298 15.6935 22.314 15.7098 22.2614 15.7098C21.7981 15.7098 21.3347 15.7098 20.8713 15.7098C20.7713 15.7098 20.7661 15.7098 20.7634 15.8069C20.7582 16.0955 20.7582 16.3815 20.7556 16.6701C20.7556 16.7025 20.7661 16.7241 20.8029 16.7214C20.8187 16.7214 20.8319 16.7214 20.8476 16.7214C21.6953 16.7214 22.5431 16.7214 23.3907 16.7214C23.4512 16.7214 23.4803 16.7079 23.4986 16.6432C23.6013 16.2844 23.9225 16.0254 24.2964 15.9903C24.7044 15.9525 25.0808 16.1953 25.2309 16.5892C25.2625 16.6728 25.2678 16.7673 25.2757 16.8563C25.3257 17.4228 24.9544 17.7574 24.5727 17.8518C24.2016 17.9435 23.7829 17.7627 23.5882 17.4255C23.5882 17.4228 23.583 17.4174 23.583 17.4148C23.546 17.3149 23.4829 17.2772 23.3802 17.3068C23.3618 17.3123 23.3381 17.3068 23.317 17.3068C22.2534 17.3068 21.1899 17.3123 20.1237 17.3014C19.9473 17.3014 19.8131 17.3419 19.6815 17.4606C19.4629 17.6575 19.2287 17.841 18.997 18.0244C18.9522 18.0595 18.8811 18.0703 18.8206 18.0703C18.4415 18.073 18.0598 18.0703 17.6807 18.0703C17.628 18.0703 17.5728 18.0622 17.5201 18.0595C17.4832 18.0595 17.4649 18.0757 17.4675 18.1135C17.4675 18.1459 17.4675 18.1782 17.4675 18.2106C17.4675 19.6566 17.4675 21.1027 17.4675 22.5487C17.4675 22.6458 17.4675 22.6458 17.5649 22.6458C18.2125 22.6458 18.8574 22.6458 19.5051 22.6458C19.5709 22.6458 19.5946 22.6241 19.6156 22.5621C19.7762 22.0766 20.1 21.7582 20.587 21.6368C21.1136 21.5046 21.5663 21.6584 21.9323 22.0712C22.1982 22.3706 22.3114 22.7267 22.2666 23.1233C22.1929 23.7573 21.8244 24.2293 21.203 24.348C20.5555 24.4722 20.0132 24.2482 19.6815 23.5873C19.6287 23.4821 19.5787 23.4579 19.4734 23.4605C16.8515 23.4632 14.2268 23.4632 11.6047 23.4605C11.5336 23.4605 11.4626 23.4579 11.3941 23.4497C11.3415 23.4443 11.3151 23.4686 11.2888 23.5172C11.2151 23.6547 11.1493 23.8005 11.0519 23.9192C10.8571 24.1566 10.5964 24.3022 10.3016 24.3508C10.062 24.3886 9.81721 24.3993 9.58291 24.3076C9.08535 24.1106 8.77471 23.7492 8.68783 23.2069C8.56936 22.4705 9.03007 21.796 9.7198 21.6287C10.4122 21.4615 11.0914 21.8634 11.3204 22.5325C11.3573 22.643 11.3573 22.643 11.4731 22.643C12.147 22.643 12.8209 22.643 13.4923 22.643C13.5467 22.643 13.5739 22.6152 13.5739 22.5594C13.5739 21.108 13.5739 19.6539 13.5739 18.2024C13.5739 18.1782 13.5739 18.1566 13.5739 18.1324C13.5791 18.073 13.5476 18.0595 13.4975 18.0595C12.95 18.0622 12.3998 18.065 11.8522 18.0676C11.8153 18.0676 11.7785 18.0595 11.7416 18.0595C11.6626 18.0541 11.6547 18.0595 11.6547 18.1431C11.6547 18.4831 11.6547 18.8203 11.6547 19.1602C11.6547 19.2223 11.6363 19.2412 11.5784 19.2412C11.0019 19.2412 10.428 19.2412 9.85143 19.233C9.70663 19.233 9.61449 19.2601 9.52762 19.3895C9.38019 19.6108 9.15643 19.7267 8.89317 19.7591C8.41668 19.8185 7.96651 19.457 7.88753 18.966C7.80855 18.4669 8.15079 17.9759 8.64308 17.8923C9.11431 17.8113 9.55132 18.0946 9.68558 18.5721C9.704 18.6395 9.73297 18.6584 9.80141 18.6584C10.2042 18.6557 10.607 18.6584 11.0098 18.6584C11.0914 18.6584 11.094 18.6584 11.094 18.5721C11.094 18.2322 11.094 17.8896 11.094 17.5497C11.094 17.4957 11.1098 17.4822 11.1598 17.4822C11.9338 17.4822 12.7104 17.4822 13.4843 17.4822C13.5458 17.4822 13.5765 17.4507 13.5765 17.3877C13.5765 17.0451 13.5765 16.7025 13.5765 16.3599C13.5765 16.2709 13.5765 16.2709 13.4923 16.2709C11.4362 16.2709 9.38019 16.2709 7.32679 16.2709C7.27678 16.2709 7.22676 16.2682 7.17674 16.2628C7.13462 16.26 7.11093 16.2735 7.09249 16.3167C6.9477 16.6566 6.68971 16.859 6.33168 16.894C5.94469 16.9318 5.64721 16.7592 5.44451 16.4193C5.41555 16.3734 5.39712 16.3113 5.39448 16.2573C5.38659 16.0632 5.38659 15.8662 5.39185 15.6693C5.39448 15.5235 5.47873 15.4157 5.57351 15.3159C6.04999 14.8033 6.84766 14.9624 7.10565 15.6234C7.12672 15.68 7.15568 15.6962 7.21096 15.6962C9.29069 15.6962 11.3731 15.6962 13.4528 15.6962C13.5388 15.6962 13.5817 15.6531 13.5817 15.5668C13.5817 15.0353 13.5817 14.5011 13.5817 13.9696C13.5817 13.8834 13.566 13.8698 13.4843 13.8779C13.4475 13.8806 13.4107 13.8834 13.3738 13.8834C12.2918 13.8834 11.2125 13.8834 10.1305 13.8834C10.0778 13.8834 10.0278 13.8752 9.97516 13.8752C9.91987 13.8752 9.90145 13.8536 9.90408 13.7996C9.90408 13.5326 9.90408 13.2683 9.90408 13.0011C9.90408 12.9256 9.90145 12.8528 9.90408 12.7772C9.90671 12.7232 9.88566 12.707 9.83563 12.707C9.49603 12.707 9.1538 12.707 8.81419 12.707C8.75102 12.707 8.69047 12.7017 8.62728 12.699C8.59043 12.699 8.56936 12.7097 8.5562 12.7502C8.41405 13.128 8.15079 13.3465 7.75327 13.387C7.25308 13.4382 6.8345 13.0335 6.77132 12.5721C6.70815 12.1055 7.01878 11.5767 7.58215 11.5066C7.97441 11.458 8.36403 11.6846 8.52198 12.0568C8.54304 12.1081 8.56936 12.1244 8.62465 12.1217C8.74575 12.1162 8.86948 12.119 8.99321 12.119C9.4618 12.119 9.92777 12.119 10.3964 12.119C10.4543 12.119 10.4701 12.1379 10.4701 12.1944C10.4675 12.5345 10.4701 12.877 10.4675 13.217C10.4675 13.279 10.4859 13.2952 10.5464 13.2952C11.5336 13.2952 12.5209 13.2952 13.508 13.2952C13.566 13.2952 13.5871 13.2817 13.5871 13.217C13.5844 12.8366 13.5871 12.4589 13.5871 12.0785C13.5871 11.9921 13.5844 11.9894 13.4975 11.9894C13.029 11.9894 12.5629 11.9894 12.0944 11.9894C12.0101 11.9894 11.9996 11.9814 11.9996 11.895C11.9996 11.369 11.9996 10.8455 11.9996 10.3195C11.9996 10.2952 12.0075 10.2656 11.9996 10.244C11.9891 10.217 11.9733 10.1846 11.9496 10.1765C11.6442 10.0497 11.4441 9.82582 11.3625 9.49669C11.2335 8.99219 11.5837 8.44723 12.0839 8.35282C12.5261 8.26918 12.9052 8.50659 13.0869 8.8519C13.2633 9.18643 13.2026 9.5857 12.971 9.87977C12.8789 9.99577 12.7683 10.0875 12.6314 10.1415C12.5814 10.1603 12.5629 10.19 12.5629 10.2467C12.5629 10.6028 12.5629 10.9589 12.5629 11.315C12.5629 11.3761 12.5928 11.4068 12.6525 11.4068C13.1316 11.4068 13.6081 11.4013 14.0872 11.3986C14.1083 11.3986 14.132 11.3986 14.1505 11.4013C14.1505 12.6774 14.1505 13.9454 14.1505 15.216C14.1505 17.6495 14.1505 20.0855 14.1505 22.519C14.1505 22.5243 14.1505 22.5325 14.1505 22.5379C14.1505 22.608 14.1846 22.643 14.2531 22.643C14.3715 22.643 14.49 22.6404 14.6085 22.643C14.6664 22.643 14.6821 22.6215 14.6821 22.5649C14.6821 21.9066 14.6821 21.2483 14.6821 20.5901C14.6821 17.9678 14.6821 15.3455 14.6821 12.7259V12.4211H17.8149C17.8149 12.3887 17.8149 12.3644 17.8149 12.3402C17.8149 11.9166 17.8149 11.4931 17.8149 11.0695C17.8149 10.9858 17.8097 10.9805 17.7255 10.9805C17.0225 10.9805 16.3197 10.9805 15.6167 10.9805C15.593 10.9805 15.5693 10.9858 15.5483 10.9805C15.5325 10.9724 15.5115 10.9481 15.5088 10.9319C15.5088 10.8455 15.5167 10.7566 15.5167 10.6703C15.5167 9.66395 15.5167 8.65497 15.5167 7.64868C15.5167 7.54617 15.4956 7.48951 15.3983 7.43825C15.0403 7.24672 14.8665 6.93106 14.8954 6.5237C14.9323 6.01921 15.3561 5.6685 15.7616 5.67389C15.9826 5.67659 16.1881 5.70627 16.3644 5.85195C16.6066 6.04888 16.7488 6.30518 16.7356 6.62352C16.7224 6.97963 16.525 7.32495 16.1459 7.48142C16.0906 7.50301 16.0696 7.53268 16.0696 7.59203C16.0696 8.49849 16.0696 9.40766 16.0696 10.3141C16.0696 10.4085 16.0696 10.4058 16.1616 10.4058C16.6856 10.4058 17.2095 10.4058 17.7333 10.4058C17.7966 10.4058 17.8149 10.3869 17.8149 10.3222C17.8149 9.67473 17.8149 9.02727 17.8149 8.37979C17.8149 8.29616 17.8149 8.29616 17.8966 8.29616C18.5573 8.29885 19.2181 8.30425 19.8789 8.30965C19.9421 8.30965 19.9658 8.28537 19.9841 8.22871C20.1 7.88069 20.3422 7.66757 20.6897 7.59743C21.1056 7.51379 21.4953 7.72962 21.6901 8.1235C21.9508 8.64687 21.6243 9.33212 21.0372 9.44812C20.6212 9.52906 20.2316 9.33211 20.0368 8.94902C20.0132 8.90316 19.9895 8.88428 19.9368 8.88428C19.4445 8.88428 18.9522 8.88428 18.46 8.88428C18.3783 8.88428 18.3757 8.88428 18.3757 8.96791C18.3757 10.2763 18.3757 11.5848 18.3757 12.8959C18.3757 12.9202 18.381 12.9444 18.3757 12.966C18.3678 12.9849 18.3467 13.0065 18.331 13.012C18.2914 13.0173 18.2493 13.012 18.2072 13.012C17.2516 13.012 16.296 13.012 15.3377 13.012C15.2482 13.012 15.2482 13.012 15.2482 13.1036C15.2482 16.26 15.2482 19.4165 15.2482 22.5729C15.2482 22.635 15.2666 22.6485 15.322 22.6458C15.4509 22.643 15.5826 22.6458 15.722 22.6458L15.701 22.6647ZM10.0173 23.5954C10.3306 23.5819 10.5859 23.3581 10.5964 22.9884C10.6043 22.7052 10.3174 22.4218 10.0278 22.4245C9.67241 22.43 9.45654 22.7321 9.45391 23.0019C9.44864 23.3121 9.704 23.5846 10.0199 23.5981L10.0173 23.5954ZM20.3264 23.0046C20.3264 23.3121 20.5686 23.59 20.8898 23.5927C21.2163 23.5954 21.4636 23.3445 21.4716 22.983C21.4769 22.7024 21.1926 22.4245 20.9056 22.4218C20.5975 22.4218 20.3291 22.689 20.3264 23.0019V23.0046ZM11.7837 9.30244C11.7837 9.55333 11.997 9.77995 12.2286 9.77725C12.4866 9.77456 12.7104 9.55873 12.7025 9.30244C12.6947 9.00838 12.4682 8.83572 12.2444 8.83302C11.9891 8.83302 11.7837 9.04345 11.7837 9.30244ZM8.78787 18.3725C8.53778 18.3725 8.32717 18.591 8.32981 18.8473C8.32981 19.0955 8.54567 19.3167 8.78787 19.3167C9.03796 19.3167 9.2512 19.0955 9.2512 18.8364C9.2512 18.5883 9.03533 18.3725 8.78787 18.3725ZM20.8345 8.07224C20.587 8.07224 20.3765 8.28537 20.3765 8.53626C20.3765 8.78446 20.5923 9.01378 20.8293 9.01378C21.0793 9.01378 21.2978 8.79255 21.2978 8.53896C21.2978 8.27997 21.0899 8.07224 20.8345 8.07224ZM6.68181 15.9822C6.70551 15.726 6.45804 15.502 6.22375 15.5074C5.98156 15.5128 5.76831 15.7232 5.76831 15.9714C5.76831 16.2277 5.98156 16.457 6.22902 16.4516C6.5107 16.4462 6.69761 16.2008 6.68181 15.9849V15.9822ZM21.9797 13.9481C22.2324 13.9481 22.443 13.7376 22.4456 13.4813C22.4456 13.2385 22.2271 13.0038 21.9876 13.0093C21.7007 13.0146 21.5243 13.2494 21.5243 13.4759C21.5243 13.7349 21.7296 13.9481 21.9823 13.9481H21.9797ZM15.7879 7.08484C16.0406 7.08484 16.2407 6.87982 16.2486 6.62352C16.2538 6.3996 16.0801 6.14871 15.7826 6.14331C15.543 6.13791 15.3324 6.36183 15.3324 6.61003C15.3324 6.87171 15.5352 7.08215 15.7879 7.08215V7.08484ZM24.0778 11.4445C24.0778 11.1828 23.8725 10.9697 23.6224 10.9697C23.3697 10.9697 23.1591 11.1856 23.1617 11.4472C23.1617 11.69 23.3802 11.9139 23.6171 11.9139C23.8673 11.9139 24.0778 11.698 24.0778 11.4445ZM24.3595 17.4121C24.5964 17.4174 24.8176 17.2124 24.8255 16.975C24.8334 16.6999 24.6333 16.4786 24.3621 16.4732C24.1357 16.4705 23.9119 16.6594 23.9067 16.9426C23.9014 17.1989 24.1252 17.4148 24.3621 17.4121H24.3595ZM8.08761 12.4643C8.08761 12.4643 8.09814 12.4643 8.10341 12.4616C8.08498 12.3753 8.08498 12.2808 8.04285 12.208C7.95861 12.0623 7.82172 11.9868 7.65323 11.9921C7.46369 11.9975 7.32943 12.0919 7.25045 12.2619C7.16884 12.4346 7.19254 12.6019 7.30837 12.7502C7.42683 12.9013 7.58478 12.9553 7.76907 12.9148C7.9902 12.8635 8.08761 12.7206 8.08761 12.4643Z"
        fill="white" />
    <path
        d="M10.0152 23.5965C9.69933 23.5829 9.44661 23.3104 9.44924 23.0002C9.45187 22.7304 9.66775 22.4283 10.0231 22.4229C10.3127 22.4175 10.6023 22.7035 10.5918 22.9867C10.5812 23.359 10.3259 23.5829 10.0126 23.5938L10.0152 23.5965Z"
        fill="white" />
    <path
        d="M20.3267 23.0059C20.3267 22.6929 20.5951 22.4231 20.9058 22.4258C21.1928 22.4258 21.4771 22.7037 21.4718 22.987C21.4665 23.3458 21.2165 23.5993 20.89 23.5966C20.5714 23.594 20.3267 23.3161 20.3267 23.0086V23.0059Z"
        fill="white" />
    <path
        d="M11.7856 9.30244C11.7856 9.04346 11.991 8.83033 12.2463 8.83303C12.4701 8.83303 12.6965 9.00839 12.7044 9.30244C12.7124 9.55874 12.4886 9.77456 12.2306 9.77726C11.9989 9.77726 11.7856 9.55064 11.7856 9.30244Z"
        fill="white" />
    <path
        d="M8.78913 18.373C9.03395 18.373 9.24983 18.5889 9.25246 18.8371C9.25246 19.0961 9.03922 19.3173 8.78913 19.3173C8.54693 19.3173 8.33105 19.0961 8.33105 18.8479C8.33105 18.5916 8.54166 18.3757 8.78913 18.373Z"
        fill="white" />
    <path
        d="M20.836 8.07324C21.0914 8.07324 21.2993 8.28367 21.2993 8.53997C21.2993 8.79356 21.0808 9.01478 20.8307 9.01478C20.5938 9.01478 20.3779 8.78546 20.3779 8.53726C20.3779 8.28637 20.5885 8.07324 20.836 8.07324Z"
        fill="white" />
    <path
        d="M6.68352 15.9835C6.69932 16.1993 6.5124 16.4448 6.23072 16.4502C5.98589 16.4556 5.77002 16.2262 5.77002 15.9699C5.77002 15.7218 5.98326 15.514 6.22546 15.506C6.45976 15.5006 6.70459 15.7245 6.68352 15.9808V15.9835Z"
        fill="white" />
    <path
        d="M21.9825 13.9488C21.7297 13.9488 21.527 13.7356 21.5244 13.4766C21.5244 13.2473 21.7008 13.0153 21.9877 13.0099C22.2273 13.0045 22.4458 13.2392 22.4458 13.482C22.4458 13.7383 22.2352 13.9488 21.9799 13.9488H21.9825Z"
        fill="white" />
    <path
        d="M15.7903 7.08933C15.5377 7.08933 15.335 6.8789 15.335 6.61721C15.335 6.36902 15.5455 6.1451 15.7851 6.15049C16.08 6.15588 16.2563 6.40678 16.251 6.6307C16.2431 6.88429 16.043 7.09202 15.7903 7.09202V7.08933Z"
        fill="white" />
    <path
        d="M24.0792 11.4485C24.0792 11.7021 23.8685 11.9178 23.6185 11.9178C23.3815 11.9178 23.1631 11.6966 23.1631 11.4511C23.1631 11.1922 23.371 10.9736 23.6238 10.9736C23.8739 10.9736 24.0792 11.1868 24.0792 11.4485Z"
        fill="white" />
    <path
        d="M24.3632 17.4154C24.1262 17.4181 23.9051 17.2022 23.9077 16.9459C23.913 16.6627 24.1368 16.4739 24.3632 16.4766C24.6343 16.4793 24.8344 16.7032 24.8265 16.9783C24.8186 17.2158 24.6001 17.4234 24.3606 17.4154H24.3632Z"
        fill="white" />
    <path
        d="M8.09063 12.4665C8.09063 12.7255 7.99322 12.8685 7.77209 12.9171C7.58781 12.9576 7.42985 12.9063 7.31139 12.7525C7.19555 12.6041 7.16923 12.4368 7.25347 12.2642C7.33508 12.0942 7.46935 11.9998 7.65626 11.9944C7.82737 11.989 7.96164 12.0646 8.04588 12.2102C8.088 12.2803 8.088 12.3775 8.10643 12.4639C8.10116 12.4639 8.09589 12.4639 8.09063 12.4665Z"
        fill="white" />
</svg>