<svg width="32" height="32" viewBox="0 0 32 32" fill="none" xmlns="http://www.w3.org/2000/svg">
    <path
        d="M21.2593 0H10.7371C9.86295 0 9.02461 0.347553 8.40484 0.963834L0.963724 8.40577C0.347514 9.02566 0 9.86406 0 10.7383V21.2617C0 22.1359 0.347514 22.9743 0.963724 23.5942L8.40484 31.0362C9.02461 31.6561 9.86295 32 10.7371 32H21.2593C22.1334 32 22.9717 31.6525 23.5916 31.0362L31.0326 23.5942C31.6525 22.9743 31.9963 22.1359 31.9963 21.2617V10.7383C31.9963 9.86406 31.6489 9.02566 31.0326 8.40577L23.588 0.963834C22.9717 0.347553 22.1334 0 21.2593 0Z"
        fill="white" />
    <path
        d="M23.2083 31.3658C22.5778 31.785 22.1515 31.8065 21.718 31.5306C21.6212 31.4697 21.5138 31.3587 21.46 31.2691C21.4063 31.1723 21.2451 30.6707 21.0659 30.0222C20.7937 29.0297 20.7578 28.9294 20.6826 28.9079C20.4999 28.8506 19.1278 28.7431 17.7377 28.6786L17.2827 28.6571L17.4081 28.8828C17.6839 29.3665 17.9383 29.9756 18.1605 30.685C18.2464 30.961 18.3037 31.1974 18.293 31.2118C18.2643 31.2404 16.6701 31.6775 16.6522 31.6632C16.645 31.6561 16.5841 31.4626 16.516 31.2333C16.2222 30.2658 15.8819 29.5994 15.3517 28.9401L15.1295 28.6606L15.0257 28.7144C14.8859 28.7861 14.5528 29.1623 14.3234 29.5062C14.0906 29.8574 13.7681 30.5238 13.5389 31.1329C13.4457 31.3802 13.3597 31.5951 13.3454 31.6095C13.3239 31.631 11.8013 31.0935 11.7368 31.0398C11.6866 31.0039 12.4068 29.345 12.6862 28.8362C12.6934 28.8255 12.654 28.8219 12.6002 28.8255C12.5429 28.8326 12.1703 28.8721 11.7654 28.9115C11.3606 28.9509 10.9988 29.001 10.9558 29.0154C10.877 29.0512 10.8268 29.1766 10.4363 30.2838C10.182 31.0111 10.1605 31.0577 9.96699 31.2189C9.68036 31.4662 9.22539 31.5915 8.87785 31.4196C8.87785 31.4196 9.62305 32.0072 10.8053 32C12.31 31.9929 21.4708 32 21.4708 32C21.4708 32 22.3843 31.9714 23.2083 31.3658ZM16.602 10.3514C19.4717 10.4983 21.1269 11.0537 21.6069 12.0318C21.6965 12.2074 21.7072 12.2719 21.7072 12.5729C21.7072 12.8846 21.6965 12.9347 21.589 13.1533C21.4457 13.4435 21.1161 13.766 20.7507 13.9667C20.0091 14.3787 18.8053 14.5901 17.6768 14.5077C16.7489 14.4396 16.1398 14.2927 15.3624 13.938C15.1797 13.8592 15.0006 13.7911 14.9575 13.7911C14.9146 13.7911 14.7319 13.8556 14.5491 13.9309C13.7717 14.2641 13.0731 14.3859 12.1058 14.3537C10.6978 14.307 9.76276 13.8986 9.42602 13.1891C9.32927 12.9778 9.32213 12.9383 9.34002 12.6875C9.43316 11.3833 10.4614 10.699 12.7149 10.441C13.7252 10.3263 15.3588 10.2869 16.602 10.3514ZM28.3207 26.3174C28.3064 26.3066 28.0628 26.2278 27.9052 26.1705C27.1922 25.9197 26.6154 25.5864 25.666 24.8841C24.3512 23.9024 23.7995 23.6265 22.8572 23.476C22.5491 23.4258 22.4345 23.4258 22.0834 23.4617C21.6714 23.5011 21.3024 23.5799 20.8689 23.7233L20.6396 23.7985L20.6647 24.1783C20.6754 24.3861 20.6969 25.1457 20.7112 25.8623L20.7327 27.1665L20.5751 27.1414C20.4891 27.1307 20.1201 27.0949 19.7547 27.0662C17.1717 26.8584 14.1121 26.905 11.5505 27.1916C11.2066 27.231 10.9092 27.2633 10.8913 27.2633C10.8555 27.2633 10.8877 25.6617 10.9414 24.7731C11.0776 22.6483 11.3678 21.2402 11.8049 20.6167C11.8837 20.5057 11.9446 20.4089 11.9374 20.4018C11.9302 20.3982 11.8228 20.3445 11.6938 20.2835C11.5648 20.2226 11.289 20.0721 11.0812 19.9467C9.23613 18.836 8.04671 17.0337 7.76728 14.9269C7.68842 14.3429 7.71711 13.2751 7.82099 12.6481C8.30465 9.81394 9.88459 7.53154 12.2849 6.20583C13.1412 5.72932 14.3736 5.37816 15.9213 5.16676C16.4838 5.09151 18.0816 5.08076 18.6441 5.14884C21.0158 5.44265 23.1044 6.44229 24.8563 8.11914C25.2254 8.47389 25.3149 8.64229 25.3185 8.96834C25.3221 9.35172 25.2325 9.48789 24.602 10.0898C23.8604 10.7957 23.6239 11.1325 23.6239 11.4979C23.6239 11.5732 23.6634 11.8169 23.7099 12.0426C24.0431 13.5869 24.0072 14.8982 23.5988 16.1738C23.4555 16.6181 23.1761 17.2272 22.9325 17.6249C22.8429 17.7718 22.7748 17.8973 22.7784 17.9008C22.7856 17.908 22.997 17.8865 23.2514 17.8578C24.4587 17.7181 25.5657 17.8435 26.6298 18.2412C27.0955 18.4168 27.6723 18.5673 28.2097 18.6533C28.5393 18.7034 28.8223 18.7178 29.6427 18.7178C30.6459 18.7142 31.2298 18.6246 32.0001 18.4885C32.0001 18.4885 31.9965 20.7529 31.9965 21.1936C31.9965 21.6343 31.9248 21.9568 31.9248 21.9568C30.5455 22.3079 28.8438 22.2148 27.7905 21.8708C27.5863 21.8027 27.1062 21.62 26.7193 21.4587C25.5836 20.9858 25.0068 20.8282 24.1613 20.7422C23.6848 20.6956 23.2263 20.6991 22.9683 20.7565C22.6674 20.821 22.6746 20.8497 22.997 20.8497C23.606 20.8497 24.3619 21.0181 25.0856 21.3119C25.6266 21.5304 26.0028 21.7347 26.6763 22.1825C27.9732 23.0425 29.1949 23.5226 31.0686 23.5584L28.3207 26.3174ZM14.1837 21.0646C14.4238 21.1041 14.9468 21.1578 15.3517 21.1829L16.0861 21.2259L15.2979 22.2005C14.8609 22.7343 14.499 23.175 14.4882 23.175C14.4775 23.1786 14.3593 22.9242 14.2303 22.6125C14.0977 22.3043 13.8864 21.8027 13.7574 21.4982L13.5245 20.9464L13.6392 20.9679C13.7037 20.9786 13.9473 21.0217 14.1837 21.0646Z"
        fill="#0F1015" />
    <path
        d="M16.6447 10.319C19.5144 10.4659 21.1696 11.0213 21.6496 11.9995C21.7392 12.1751 21.75 12.2395 21.75 12.5405C21.75 12.8522 21.7392 12.9024 21.6317 13.121C21.4884 13.4112 21.1588 13.7336 20.7934 13.9343C20.0518 14.3464 18.848 14.5578 17.7195 14.4754C16.7916 14.4073 16.1826 14.2604 15.4051 13.9056C15.2224 13.8268 15.0433 13.7587 15.0003 13.7587C14.9573 13.7587 14.7746 13.8232 14.5919 13.8985C13.8145 14.2317 13.1158 14.3535 12.1486 14.3213C10.7406 14.2747 9.80549 13.8662 9.46874 13.1568C9.372 12.9454 9.36486 12.906 9.38274 12.6552C9.47589 11.351 10.5041 10.6666 12.7576 10.4086C13.7679 10.2939 15.4015 10.2546 16.6447 10.319Z"
        fill="white" />
    <path
        d="M14.1836 21.0646C14.4236 21.104 14.9467 21.1577 15.3516 21.1828L16.086 21.2258L15.2978 22.2003C14.8607 22.7342 14.4989 23.175 14.4881 23.175C14.4774 23.1786 14.3592 22.9241 14.2302 22.6124C14.0976 22.3043 13.8862 21.8026 13.7573 21.4981L13.5244 20.9463L13.639 20.9679C13.7035 20.9786 13.9472 21.0216 14.1836 21.0646Z"
        fill="white" />
    <path
        d="M11.7618 11.4219C11.4968 11.5472 11.3463 11.7013 11.2209 11.9772C11.1385 12.1635 11.1277 12.2173 11.1421 12.4788C11.1672 12.9267 11.3714 13.2384 11.7618 13.4319C12.0126 13.5537 12.4318 13.5573 12.7005 13.4355C12.919 13.3388 13.1519 13.1023 13.2594 12.8658C13.3776 12.6079 13.3669 12.1886 13.2379 11.9342C12.9513 11.3824 12.31 11.1603 11.7618 11.4219Z"
        fill="#0F1015" />
    <path
        d="M17.555 11.3788C17.3437 11.4541 17.0356 11.7443 16.946 11.9557C16.7024 12.5254 16.9245 13.156 17.469 13.4212C17.641 13.5071 17.7198 13.5214 17.9598 13.5214C18.1999 13.5214 18.2787 13.5071 18.4507 13.4212C18.9881 13.1596 19.2245 12.4788 18.9666 11.9485C18.8483 11.7049 18.5725 11.4505 18.3467 11.3752C18.139 11.3036 17.7592 11.3072 17.555 11.3788Z"
        fill="#0F1015" />
</svg>