<svg width="32" height="32" viewBox="0 0 32 32" fill="none" xmlns="http://www.w3.org/2000/svg">
    <g clip-path="url(#clip0_4492_45)">
        <rect width="32" height="32" fill="#FAFAFA" />
        <path opacity="0.975" fill-rule="evenodd" clip-rule="evenodd"
            d="M6.58244 7.75684C6.67404 7.75684 6.76562 7.75684 6.85722 7.75684C7.38184 7.86926 7.88977 8.03996 8.38103 8.26894C8.96505 8.29419 9.51462 8.44408 10.0297 8.71858C10.7988 9.17626 11.0944 9.84657 10.9166 10.7295C11.0513 11.0406 11.1928 11.3487 11.3412 11.6538C11.392 11.7812 11.4378 11.9103 11.4786 12.041C11.4635 12.1298 11.4135 12.1881 11.3287 12.2159C10.3468 12.6383 9.3226 12.8839 8.25613 12.9528C7.93343 12.959 7.62535 12.8966 7.33185 12.7654C7.22361 12.6905 7.13201 12.5989 7.05707 12.4906C6.89897 12.474 6.83651 12.5447 6.86971 12.703C6.9877 12.8875 7.15007 13.0166 7.35683 13.0902C7.77193 13.2198 8.1966 13.2614 8.63084 13.2151C9.45452 13.1257 10.2539 12.9342 11.029 12.6405C11.2544 12.6168 11.321 12.7084 11.2288 12.9153C11.0036 13.057 10.7621 13.1652 10.5044 13.2401C9.67827 13.4744 8.83725 13.6201 7.98135 13.6772C7.44964 13.7018 6.96669 13.5644 6.53248 13.265C6.14083 12.8986 5.93684 12.4448 5.92046 11.9036C5.90379 10.7462 5.90379 9.58874 5.92046 8.43131C6.01243 8.07706 6.23309 7.85223 6.58244 7.75684ZM8.60586 9.48049C9.47226 9.49087 10.0093 9.91553 10.2171 10.7545C10.2791 11.5008 9.97519 12.0379 9.30531 12.3657C8.60658 12.599 8.01954 12.4367 7.54419 11.8786C7.12824 11.2795 7.12824 10.68 7.54419 10.08C7.82167 9.73949 8.17557 9.53965 8.60586 9.48049Z"
            fill="black" />
        <path opacity="0.982" fill-rule="evenodd" clip-rule="evenodd"
            d="M-0.0124512 15.55C-0.0124512 15.4001 -0.0124512 15.2502 -0.0124512 15.1003C0.0707781 14.8796 0.220661 14.7172 0.437198 14.6132C0.755346 14.5881 1.07177 14.5464 1.38646 14.4883C1.51733 14.453 1.64223 14.4031 1.76116 14.3384C1.83085 14.2832 1.85167 14.2124 1.82361 14.1261C1.79549 14.09 1.75802 14.0734 1.7112 14.0761C1.29521 14.2634 0.862215 14.3175 0.412217 14.2385C0.191194 14.1798 0.0496381 14.0424 -0.0124512 13.8263C-0.0124512 13.7347 -0.0124512 13.6431 -0.0124512 13.5515C0.0966593 12.9703 0.284012 12.4124 0.54961 11.8779C0.773712 11.5229 1.07764 11.4355 1.4614 11.6156C1.67338 11.8278 1.92735 11.9652 2.2233 12.0277C2.39227 11.9856 2.42141 11.8981 2.31073 11.7654C1.9118 11.6744 1.62453 11.4454 1.44891 11.0785C1.39349 10.8972 1.41014 10.7224 1.49887 10.5539C1.97387 10.0374 2.52761 9.62525 3.16007 9.31735C3.44989 9.23715 3.68721 9.31626 3.87201 9.55467C4.01535 9.8146 4.21102 10.0269 4.45906 10.1917C4.62095 10.2256 4.68341 10.1631 4.64641 10.0043C4.49478 9.90259 4.37819 9.76936 4.29668 9.60463C4.19788 9.1193 4.39356 8.84451 4.88372 8.78027C5.25059 8.7989 5.4879 8.98209 5.59567 9.32984C5.61233 10.1126 5.61233 10.8953 5.59567 11.678C5.52555 11.8814 5.38815 12.0188 5.18349 12.0902C4.70564 12.2715 4.29346 12.1757 3.94696 11.8029C3.85605 11.6584 3.76862 11.5127 3.68466 11.3658C3.57145 11.3433 3.50485 11.3891 3.48482 11.5031C3.59491 11.8445 3.80307 12.1067 4.10933 12.29C4.19201 12.3672 4.23363 12.4629 4.23423 12.5773C4.17018 12.7977 4.12854 13.0225 4.10933 13.2518C4.11243 13.4609 4.17071 13.6524 4.28419 13.8263C4.44971 13.8814 4.52048 13.8231 4.49653 13.6515C4.36895 13.3195 4.38561 12.9948 4.54649 12.6772C4.81755 12.4135 5.11317 12.3844 5.43329 12.5898C5.50306 12.6668 5.5572 12.7542 5.59567 12.8521C5.61233 13.3434 5.61233 13.8346 5.59567 14.3259C5.57553 14.3995 5.54223 14.4661 5.49575 14.5258C4.9478 15.001 4.32746 15.1301 3.6347 14.913C3.42314 14.811 3.27743 14.6486 3.19754 14.4259C3.148 14.263 3.11471 14.0964 3.09762 13.9263C3.02982 13.8544 2.95905 13.846 2.88528 13.9013C2.80055 14.5514 3.06702 14.9969 3.68466 15.2377C4.1142 15.3618 4.53887 15.3451 4.95867 15.1878C5.26165 15.1494 5.47399 15.2701 5.59567 15.55C5.61233 15.7581 5.61233 15.9663 5.59567 16.1745C5.50376 16.4495 5.31226 16.591 5.02112 16.5992C4.79047 16.5457 4.55733 16.5041 4.32166 16.4743C3.56585 16.506 3.10789 16.889 2.94774 17.6234C2.91116 18.3694 3.26089 18.8024 3.99692 18.9223C4.63492 18.8591 4.94303 18.5094 4.92119 17.8732C4.78907 17.3915 4.47682 17.1958 3.98443 17.2861C3.65571 17.423 3.51832 17.6686 3.57225 18.0231C3.67237 18.308 3.86804 18.4287 4.15929 18.3853C4.22321 18.3122 4.22321 18.2373 4.15929 18.1604C3.92854 18.1463 3.82445 18.0256 3.84703 17.7982C3.89682 17.6233 4.01338 17.54 4.19676 17.5484C4.4074 17.5497 4.54894 17.6496 4.62143 17.8482C4.6572 18.445 4.37827 18.6907 3.78458 18.5851C3.49034 18.4824 3.3113 18.2784 3.2475 17.9731C3.18135 17.3735 3.43531 16.9863 4.00941 16.8115C4.99611 16.7153 5.52902 17.1649 5.60816 18.1604C5.56996 18.9616 5.17027 19.4862 4.40909 19.7342C3.91446 19.8711 3.43151 19.8378 2.96023 19.6343C2.24278 19.2584 1.63908 18.7463 1.14914 18.098C1.06899 17.8857 1.11479 17.7066 1.28653 17.5609C1.59893 17.463 1.88204 17.3132 2.13587 17.1113C2.23373 17.0405 2.25455 16.953 2.19832 16.849C2.15837 16.8106 2.11257 16.7981 2.06093 16.8115C1.07755 17.5773 0.432216 17.3566 0.124941 16.1495C0.0706009 15.9481 0.0248033 15.7483 -0.0124512 15.55Z"
            fill="black" />
        <path opacity="0.982" fill-rule="evenodd" clip-rule="evenodd"
            d="M24.2935 10.3041C24.9569 10.273 25.4274 10.5561 25.7049 11.1534C25.9235 11.9233 25.6819 12.4979 24.9805 12.8771C24.9094 12.9913 24.8761 13.1162 24.8806 13.2518C24.7805 13.5579 24.5765 13.662 24.2686 13.564C24.1461 13.5165 24.067 13.4291 24.0312 13.3017C24.032 13.1464 23.9904 13.0049 23.9063 12.8771C23.6982 12.7565 23.515 12.6066 23.3568 12.4274C22.9889 11.8392 23.0222 11.273 23.4567 10.7287C23.6953 10.5033 23.9743 10.3617 24.2935 10.3041Z"
            fill="black" />
        <path opacity="0.958" fill-rule="evenodd" clip-rule="evenodd"
            d="M9.43003 10.6796C9.82992 10.6425 10.0547 10.8216 10.1045 11.2166C10.0267 11.6597 9.76862 11.8179 9.33011 11.6913C9.0566 11.5092 8.97749 11.2635 9.0928 10.9543C9.17306 10.8196 9.28547 10.728 9.43003 10.6796Z"
            fill="black" />
        <path opacity="0.985" fill-rule="evenodd" clip-rule="evenodd"
            d="M6.15777 13.4268C6.2184 13.4273 6.27668 13.4398 6.33263 13.4642C6.65486 13.6995 7.01293 13.8577 7.40679 13.9389C7.4952 13.9865 7.55765 14.0573 7.59415 14.1512C7.62692 14.949 7.64356 15.7484 7.64411 16.5493C8.23025 15.8882 8.82564 15.2345 9.43021 14.5884C9.8274 14.3661 10.1813 14.4203 10.4919 14.7507C10.7013 15.1243 10.6679 15.474 10.392 15.7999C10.125 16.096 9.86273 16.3957 9.60508 16.6992C10.0374 17.2773 10.4746 17.8519 10.9166 18.4229C11.209 18.8812 11.1549 19.2934 10.7542 19.6594C10.408 19.8767 10.0666 19.8684 9.72998 19.6344C9.2915 19.1003 8.85849 18.5632 8.43099 18.0232C8.16478 18.3102 7.90248 18.6017 7.64411 18.8975C7.60959 19.4483 7.31814 19.7564 6.76979 19.8218C6.29846 19.7833 6.01536 19.5335 5.92046 19.0723C5.90379 17.2654 5.90379 15.4585 5.92046 13.6516C5.965 13.5361 6.04411 13.4612 6.15777 13.4268Z"
            fill="black" />
        <path opacity="0.985" fill-rule="evenodd" clip-rule="evenodd"
            d="M31.9874 17.0987C31.9874 17.1237 31.9874 17.1487 31.9874 17.1737C31.8845 18.6635 31.1016 19.5753 29.6392 19.909C28.6405 20.0778 27.7495 19.8446 26.9663 19.2096C26.2319 18.4797 25.9529 17.6012 26.1295 16.5741C26.4285 15.3344 27.2069 14.5975 28.4651 14.3634C29.4484 14.2032 30.3227 14.4363 31.0881 15.0628C31.6641 15.6196 31.9639 16.2983 31.9874 17.0987ZM28.8149 15.7748C29.4898 15.7217 29.9605 16.0048 30.2263 16.6241C30.4416 17.3166 30.2625 17.8787 29.6892 18.3103C29.0949 18.6161 28.5578 18.537 28.0779 18.073C27.658 17.498 27.633 16.9068 28.003 16.2994C28.2118 16.0278 28.4826 15.853 28.8149 15.7748Z"
            fill="black" />
        <path opacity="0.985" fill-rule="evenodd" clip-rule="evenodd"
            d="M12.103 14.4017C12.4869 14.3667 12.7825 14.5083 12.9898 14.8263C13.3479 15.709 13.7059 16.5916 14.064 17.4743C14.4482 16.6216 14.8229 15.7639 15.1881 14.9013C15.4408 14.4617 15.8114 14.316 16.2997 14.4641C16.7854 14.7301 16.9311 15.1256 16.7369 15.6507C15.8543 17.6991 14.9716 19.7475 14.089 21.7959C13.7925 22.3165 13.372 22.4456 12.8274 22.1831C12.5011 21.9508 12.3803 21.6385 12.4652 21.2463C12.6904 20.6833 12.9277 20.1254 13.1772 19.5726C12.573 18.1972 11.986 16.815 11.416 15.4259C11.3597 14.8881 11.5887 14.5467 12.103 14.4017Z"
            fill="black" />
        <path opacity="0.984" fill-rule="evenodd" clip-rule="evenodd"
            d="M18.1483 14.4516C18.5137 14.3993 18.8093 14.5159 19.0351 14.8013C19.4319 15.7616 19.815 16.7275 20.1842 17.699C20.5339 16.7998 20.8836 15.9005 21.2334 15.0012C21.4258 14.578 21.7547 14.399 22.2201 14.4641C22.6236 14.5836 22.8401 14.8542 22.8696 15.2759C22.8579 15.405 22.8288 15.5299 22.7822 15.6506C22.3075 16.7998 21.8329 17.9489 21.3583 19.098C20.9757 19.7242 20.4302 19.9366 19.722 19.735C19.4305 19.6097 19.2015 19.414 19.0351 19.1479C18.5123 17.9042 18.0044 16.6552 17.5113 15.4008C17.4816 14.9182 17.694 14.6018 18.1483 14.4516Z"
            fill="black" />
        <path opacity="0.984" fill-rule="evenodd" clip-rule="evenodd"
            d="M24.3184 14.4511C24.8538 14.4332 25.1828 14.683 25.3052 15.2005C25.3294 16.5336 25.3212 17.8659 25.2802 19.1974C25.0886 19.6825 24.7348 19.8782 24.2185 19.7844C23.9039 19.678 23.6999 19.4656 23.6065 19.1474C23.5898 17.8068 23.5898 16.4662 23.6065 15.1256C23.7039 14.7491 23.9412 14.5243 24.3184 14.4511Z"
            fill="black" />
        <path opacity="0.348" fill-rule="evenodd" clip-rule="evenodd"
            d="M9.87988 24.2183C9.92153 24.185 9.96314 24.185 10.0048 24.2183C9.96314 24.2183 9.92153 24.2183 9.87988 24.2183Z"
            fill="black" />
    </g>
    <defs>
        <clipPath id="clip0_4492_45">
            <rect width="32" height="32" fill="white" />
        </clipPath>
    </defs>
</svg>