<svg width="32" height="32" viewBox="0 0 33 33" fill="none" xmlns="http://www.w3.org/2000/svg">
    <path fill-rule="evenodd" clip-rule="evenodd"
        d="M19.7542 0.36156C21.3367 0.234913 22.7695 0.606229 24.0525 1.47551C23.1444 1.53 22.2424 1.62902 21.3461 1.77256C16.9904 2.59522 12.639 3.43687 8.29207 4.29751C5.41733 5.29639 3.6927 7.20249 3.11821 10.0158C3.06515 11.5505 3.01207 13.0853 2.95901 14.6201C2.16304 15.2637 1.36706 15.9074 0.571078 16.5509C0.42379 13.5748 0.47685 10.6043 0.730273 7.63935C1.65891 5.3867 3.33047 3.82717 5.74494 2.96077C10.4302 2.0453 15.0999 1.17889 19.7542 0.36156Z"
        fill="#18DEBC" />
    <path fill-rule="evenodd" clip-rule="evenodd"
        d="M29.1467 3.77766C28.9665 3.90454 28.7543 3.90454 28.51 3.77766C28.2978 3.77766 28.0854 3.77766 27.8732 3.77766C27.0099 3.7804 26.1609 3.87941 25.3261 4.07471C20.8948 4.81335 16.4904 5.67974 12.1128 6.67392C9.84082 7.70493 8.38154 9.36347 7.73492 11.6496C7.68186 13.9765 7.62878 16.3033 7.57572 18.6303C6.71229 17.456 5.88978 16.2678 5.10819 15.0657C5.03282 13.2693 5.13894 11.487 5.42658 9.71871C6.26121 7.42992 7.90624 5.9199 10.3616 5.18866C15.2819 4.1864 20.217 3.27048 25.1669 2.44092C26.571 2.67459 27.8975 3.12017 29.1467 3.77766Z"
        fill="#2209C2" />
    <path fill-rule="evenodd" clip-rule="evenodd"
        d="M27.8732 3.77759C28.0854 3.77759 28.2978 3.77759 28.51 3.77759C29.2822 4.57498 29.7332 5.51564 29.8631 6.59959C29.9693 12.1446 29.9693 17.6896 29.8631 23.2345C29.7439 24.291 29.4255 25.2811 28.908 26.2051C27.9396 27.1904 26.7456 27.8588 25.3261 28.2102C20.4693 29.0396 15.6404 29.9802 10.8392 31.0322C10.3112 31.1062 9.78058 31.131 9.24729 31.1064C8.81741 30.8489 8.49902 30.5022 8.29211 30.0668C13.0144 29.1608 17.7372 28.2449 22.4605 27.319C23.4781 27.0447 24.4863 26.7476 25.4853 26.4279C26.7314 25.8595 27.5008 24.9435 27.7936 23.6801C27.8732 17.0462 27.8998 10.412 27.8732 3.77759Z"
        fill="#F5FBFD" />
    <path fill-rule="evenodd" clip-rule="evenodd"
        d="M27.8731 3.77759C27.8997 10.412 27.8731 17.0462 27.7935 23.6801C27.5008 24.9435 26.7314 25.8595 25.4852 26.4279C24.4862 26.7476 23.478 27.0447 22.4605 27.319C17.7371 28.2449 13.0144 29.1608 8.29204 30.0668C8.03811 29.6531 7.87891 29.2075 7.81445 28.73C7.81445 28.5815 7.81445 28.433 7.81445 28.2844C12.6675 27.4368 17.4964 26.5208 22.3013 25.5367C23.83 25.1501 24.7586 24.2343 25.0872 22.789C25.1146 16.5403 25.1942 10.3022 25.326 4.07464C26.1608 3.87934 27.0098 3.78034 27.8731 3.77759Z"
        fill="#1DDEBD" />
    <path fill-rule="evenodd" clip-rule="evenodd"
        d="M28.5099 3.77759C28.7542 3.90447 28.9665 3.90447 29.1467 3.77759C30.9106 4.50654 31.9983 5.74426 32.4102 7.49075C32.5164 12.9862 32.5164 18.4817 32.4102 23.9772C32.0066 27.2255 30.0698 29.1315 26.5995 29.6954C22.197 30.5492 17.7925 31.3909 13.3863 32.2204C11.903 32.5186 10.5764 32.2464 9.40639 31.4035C9.35333 31.3044 9.30025 31.2055 9.24719 31.1064C9.78048 31.131 10.3111 31.1062 10.8392 31.0322C15.6403 29.9802 20.4692 29.0396 25.326 28.2102C26.7455 27.8588 27.9395 27.1904 28.9079 26.2051C29.4254 25.2811 29.7438 24.291 29.863 23.2345C29.9692 17.6896 29.9692 12.1446 29.863 6.59959C29.7331 5.51564 29.2821 4.57498 28.5099 3.77759Z"
        fill="#1A8DFE" />
    <path fill-rule="evenodd" clip-rule="evenodd"
        d="M18.3214 11.2039C19.9768 11.5842 21.1178 12.5249 21.7441 14.0259C22.2486 17.2172 21.0546 19.6679 18.1622 21.378C14.2329 22.6139 12.0572 21.302 11.6351 17.4421C11.8024 14.5055 13.3413 12.4757 16.2518 11.3525C16.936 11.2486 17.6258 11.1991 18.3214 11.2039Z"
        fill="#1E02C2" />
    <path fill-rule="evenodd" clip-rule="evenodd"
        d="M2.8794 18.0361C3.0118 20.7337 3.0914 23.4566 3.11819 26.2051C3.31765 27.36 3.82175 28.3749 4.63055 29.2499C2.40902 28.6619 1.05586 27.3003 0.571057 25.1654C0.464921 23.4325 0.464921 21.6998 0.571057 19.967C1.37149 19.3433 2.14093 18.6997 2.8794 18.0361Z"
        fill="#17DEBC" />
    <path fill-rule="evenodd" clip-rule="evenodd"
        d="M5.26734 19.373C5.95375 20.5535 6.72319 21.6921 7.57568 22.7892C7.60259 24.7952 7.68218 26.7756 7.81448 28.7302C7.87893 29.2077 8.03813 29.6533 8.29206 30.0669C8.49897 30.5024 8.81736 30.8491 9.24724 31.1066C9.3003 31.2057 9.35337 31.3046 9.40643 31.4037C7.36317 30.8835 5.98349 29.6953 5.26734 27.8391C5.06437 24.9946 5.06437 22.1726 5.26734 19.373Z"
        fill="#250CC3" />
</svg>