<svg width="32" height="32" viewBox="0 0 32 32" fill="none" xmlns="http://www.w3.org/2000/svg">
    <g clip-path="url(#clip0_2465_566)">
        <path fill-rule="evenodd" clip-rule="evenodd"
            d="M0.939453 0.939453C11.2829 0.939453 21.6263 0.939453 31.9697 0.939453C31.9697 11.2829 31.9697 21.6263 31.9697 31.9697C21.6263 31.9697 11.2829 31.9697 0.939453 31.9697C0.939453 21.6263 0.939453 11.2829 0.939453 0.939453Z"
            fill="#192A3E" />
        <path
            d="M27.5 20.8418H25.4166C24.5149 23.8891 21.6977 26.1128 18.3631 26.1128C18.3631 26.1128 18.3631 26.1128 18.3611 26.1128C17.9074 26.1128 17.5347 25.7493 17.5251 25.2949C17.4039 19.4806 17.4124 13.6513 17.5077 7.83629C17.5251 6.83081 18.2974 6.00322 19.2957 5.91234L20.7516 5.77892V4H8V5.77892C9.66056 5.94715 10.9807 7.33548 11 9.00612C11 14.2338 11 17.9838 11 22.9939C10.9807 24.6665 9.66249 26.0567 8 26.2211V28H27.1138L27.5 20.8398V20.8418Z"
            fill="#FAFAFA" />
    </g>
    <defs>
        <clipPath id="clip0_2465_566">
            <rect width="32" height="32" fill="white" />
        </clipPath>
    </defs>
</svg>