<svg width="32" height="32" viewBox="0 0 32 32" fill="none" xmlns="http://www.w3.org/2000/svg">
    <path opacity="0.016" fill-rule="evenodd" clip-rule="evenodd"
        d="M5.78418 8.00153C7.17939 7.4939 8.66036 7.41973 10.2275 7.77904C8.75367 8.00077 7.2727 8.07495 5.78418 8.00153Z"
        fill="#208BFF" />
    <path opacity="0.016" fill-rule="evenodd" clip-rule="evenodd"
        d="M22.2246 8.00153C23.6198 7.4939 25.1008 7.41973 26.668 7.77904C25.1941 8.00077 23.7131 8.07495 22.2246 8.00153Z"
        fill="#45BFFF" />
    <path opacity="0.963" fill-rule="evenodd" clip-rule="evenodd"
        d="M11.5605 8.89119C13.1783 10.3618 14.8077 11.8451 16.4482 13.3409C18.5779 16.1437 21.1697 18.3685 24.2241 20.0155C25.3269 19.7757 26.2893 19.3308 27.1122 18.6806C27.2602 18.6806 27.4086 18.6806 27.5566 18.6806C28.4452 19.4222 29.3339 20.1638 30.2226 20.9054C30.2226 21.0536 30.2226 21.2022 30.2226 21.3504C29.9262 21.3504 29.7782 21.4986 29.7782 21.7954C29.4819 21.7954 29.3339 21.9436 29.3339 22.2404C29.0375 22.2404 28.8896 22.3885 28.8896 22.6853C28.4488 22.6088 28.1529 22.7574 28.0009 23.1303C27.5601 23.0538 27.2642 23.2024 27.1122 23.5753C25.7872 23.7813 24.4542 23.9295 23.1132 24.0202C22.4778 23.5588 21.7371 23.262 20.8915 23.1303C18.9778 21.3629 17.0521 19.5831 15.1152 17.7906C13.7249 16.175 12.2435 14.6176 10.6719 13.1184C9.06114 12.3411 7.43176 12.2669 5.78417 12.8959C4.85996 11.9734 4.1197 10.9351 3.5625 9.78114C4.05127 9.31013 4.64401 8.93934 5.33984 8.66871C7.4371 8.34975 9.51036 8.42388 11.5605 8.89119Z"
        fill="#047FFA" />
    <path opacity="0.012" fill-rule="evenodd" clip-rule="evenodd"
        d="M11.5605 8.44629C12.153 8.7426 12.153 8.7426 11.5605 8.44629Z" fill="#00A9FF" />
    <path opacity="0.947" fill-rule="evenodd" clip-rule="evenodd"
        d="M28.0009 8.8915C28.8718 9.62851 29.7605 10.3701 30.6669 11.1164C30.6345 11.7958 30.9309 12.2408 31.5556 12.4513C31.4792 12.8925 31.6276 13.1892 31.9999 13.3412C31.9999 15.1211 31.9999 16.901 31.9999 18.6809C31.6276 18.8329 31.4792 19.1296 31.5556 19.5708C31.1833 19.7229 31.0349 20.0195 31.1113 20.4608C30.8149 20.4608 30.6669 20.6091 30.6669 20.9058C30.519 20.9058 30.3706 20.9058 30.2226 20.9058C29.3339 20.1641 28.4453 19.4225 27.5566 18.6809C28.0898 17.1373 28.0898 15.6541 27.5566 14.2312C27.5566 13.3412 27.1123 12.8963 26.2236 12.8963C25.7251 12.6044 25.1328 12.4561 24.4463 12.4513C23.3874 12.3894 22.4987 12.6861 21.7803 13.3412C21.4839 13.3412 21.3359 13.4895 21.3359 13.7862C20.733 14.3137 20.0665 14.7586 19.3364 15.1211C18.4215 14.4227 17.4587 13.8294 16.4482 13.3412C19.1476 8.87535 22.9982 7.39208 28.0009 8.8915ZM27.5566 14.2312C27.5566 13.3412 27.1123 12.8963 26.2236 12.8963C26.52 13.4895 26.9643 13.9345 27.5566 14.2312Z"
        fill="#3BA1FE" />
    <path opacity="0.012" fill-rule="evenodd" clip-rule="evenodd"
        d="M28.001 8.44629C28.5934 8.7426 28.5934 8.7426 28.001 8.44629Z" fill="#55AAFF" />
    <path opacity="0.01" fill-rule="evenodd" clip-rule="evenodd"
        d="M12.4492 8.8916C13.0417 9.18791 13.0417 9.18791 12.4492 8.8916Z" fill="#007FFF" />
    <path opacity="0.01" fill-rule="evenodd" clip-rule="evenodd"
        d="M28.8896 8.8916C29.4821 9.18791 29.4821 9.18791 28.8896 8.8916Z" fill="#8080FF" />
    <path opacity="0.012" fill-rule="evenodd" clip-rule="evenodd"
        d="M31.1115 11.1159C30.815 10.5226 30.815 10.5226 31.1115 11.1159Z" fill="#55AAFF" />
    <path opacity="0.01" fill-rule="evenodd" clip-rule="evenodd"
        d="M31.1113 11.1162C31.7038 11.4125 31.7038 11.4125 31.1113 11.1162Z" fill="#8080FF" />
    <path opacity="0.01" fill-rule="evenodd" clip-rule="evenodd"
        d="M21.7804 13.3408C22.8804 13.4506 22.8804 13.7473 21.7804 14.2308C21.5106 14.1758 21.3626 14.0275 21.3359 13.7858C21.6324 13.7858 21.7804 13.6375 21.7804 13.3408Z"
        fill="#31CBFF" />
    <path opacity="0.899" fill-rule="evenodd" clip-rule="evenodd"
        d="M3.56255 9.78125C4.11974 10.9352 4.86 11.9735 5.78422 12.8961C3.7345 14.7406 3.58654 16.6688 5.33988 18.6807C6.96926 20.359 8.7466 20.4332 10.6719 18.9032C11.346 18.1534 12.0867 17.4859 12.8936 16.9008C13.4943 17.3566 14.0866 17.8016 14.6709 18.2357C14.8722 18.6622 15.1681 19.033 15.5596 19.3482C15.1681 19.6633 14.8722 20.0341 14.6709 20.4606C14.3745 20.4606 14.2266 20.6089 14.2266 20.9056C13.9302 20.9056 13.7822 21.0537 13.7822 21.3505C13.4859 21.3505 13.3379 21.4987 13.3379 21.7955C13.0415 21.7955 12.8936 21.9437 12.8936 22.2405C12.5972 22.2405 12.4492 22.3886 12.4492 22.6854C12.0085 22.6089 11.7125 22.7575 11.5606 23.1304C11.1198 23.0539 10.8239 23.2025 10.6719 23.5754C9.34689 23.7814 8.01389 23.9296 6.67289 24.0204C4.84889 23.3271 3.21996 22.289 1.78521 20.9056C1.59325 20.3674 1.29688 19.9224 0.896539 19.5706C0.972964 19.1294 0.824556 18.8327 0.452204 18.6807C0.557511 18.1062 0.409548 17.6613 0.00786971 17.3458C-0.10899 14.1703 1.07561 11.6488 3.56255 9.78125Z"
        fill="#0064C9" />
    <path opacity="0.01" fill-rule="evenodd" clip-rule="evenodd"
        d="M15.1154 17.791C14.819 18.0873 14.819 18.0873 15.1154 17.791Z" fill="#007FFF" />
    <path opacity="0.01" fill-rule="evenodd" clip-rule="evenodd"
        d="M27.1125 18.681C26.0009 18.6761 25.9267 18.3794 26.8903 17.791C27.0965 18.0555 27.1707 18.3522 27.1125 18.681Z"
        fill="#32BEFF" />
    <path opacity="0.01" fill-rule="evenodd" clip-rule="evenodd"
        d="M14.6709 20.4609C15.2633 20.7574 15.2633 20.7574 14.6709 20.4609Z" fill="#007FFF" />
    <path opacity="0.012" fill-rule="evenodd" clip-rule="evenodd"
        d="M31.1113 20.4609C31.2593 20.4609 31.4078 20.4609 31.5558 20.4609C31.4736 20.7587 31.3251 20.7587 31.1113 20.4609Z"
        fill="#00A9FF" />
    <path opacity="0.01" fill-rule="evenodd" clip-rule="evenodd"
        d="M14.2266 20.9062C14.3746 20.9062 14.523 20.9062 14.671 20.9062C14.5888 21.204 14.4403 21.204 14.2266 20.9062Z"
        fill="#007FFF" />
    <path opacity="0.012" fill-rule="evenodd" clip-rule="evenodd"
        d="M30.667 20.9062C30.815 20.9062 30.9634 20.9062 31.1114 20.9062C31.0292 21.204 30.8808 21.204 30.667 20.9062Z"
        fill="#00A9FF" />
    <path opacity="0.01" fill-rule="evenodd" clip-rule="evenodd"
        d="M13.7822 21.3506C13.9302 21.3506 14.0787 21.3506 14.2267 21.3506C14.1444 21.6484 13.996 21.6484 13.7822 21.3506Z"
        fill="#007FFF" />
    <path opacity="0.012" fill-rule="evenodd" clip-rule="evenodd"
        d="M30.2227 21.3506C30.3707 21.3506 30.5191 21.3506 30.6671 21.3506C30.5849 21.6484 30.4364 21.6484 30.2227 21.3506Z"
        fill="#00A9FF" />
    <path opacity="0.01" fill-rule="evenodd" clip-rule="evenodd"
        d="M13.3379 21.7959C13.4859 21.7959 13.6343 21.7959 13.7823 21.7959C13.7001 22.0937 13.5517 22.0937 13.3379 21.7959Z"
        fill="#007FFF" />
    <path opacity="0.012" fill-rule="evenodd" clip-rule="evenodd"
        d="M29.7783 21.7959C29.9263 21.7959 30.0748 21.7959 30.2228 21.7959C30.1405 22.0937 29.9921 22.0937 29.7783 21.7959Z"
        fill="#00A9FF" />
    <path opacity="0.012" fill-rule="evenodd" clip-rule="evenodd"
        d="M12.8936 22.2402C13.0416 22.2402 13.19 22.2402 13.338 22.2402C13.2558 22.538 13.1073 22.538 12.8936 22.2402Z"
        fill="#0054FF" />
    <path opacity="0.016" fill-rule="evenodd" clip-rule="evenodd"
        d="M29.334 22.2402C29.482 22.2402 29.6304 22.2402 29.7784 22.2402C29.6962 22.538 29.5478 22.538 29.334 22.2402Z"
        fill="#407FFF" />
    <path opacity="0.012" fill-rule="evenodd" clip-rule="evenodd"
        d="M12.4492 22.6855C12.5972 22.6855 12.7457 22.6855 12.8937 22.6855C12.8114 22.9833 12.663 22.9833 12.4492 22.6855Z"
        fill="#0054FF" />
    <path opacity="0.012" fill-rule="evenodd" clip-rule="evenodd"
        d="M28.8896 22.6855C29.0376 22.6855 29.1861 22.6855 29.3341 22.6855C29.2519 22.9833 29.1034 22.9833 28.8896 22.6855Z"
        fill="#00A9FF" />
    <path opacity="0.01" fill-rule="evenodd" clip-rule="evenodd"
        d="M11.5605 23.5749C11.5605 23.4267 11.5605 23.2781 11.5605 23.1299C11.857 23.1299 12.153 23.1299 12.4494 23.1299C12.2974 23.5028 12.0014 23.6514 11.5605 23.5749Z"
        fill="#1D3FFF" />
    <path opacity="0.01" fill-rule="evenodd" clip-rule="evenodd"
        d="M20.8919 23.1299C20.8919 23.2781 20.8919 23.4267 20.8919 23.5749C19.7066 23.4267 19.7066 23.2781 20.8919 23.1299Z"
        fill="#1D3FFF" />
    <path opacity="0.01" fill-rule="evenodd" clip-rule="evenodd"
        d="M28.001 23.5749C28.001 23.4267 28.001 23.2781 28.001 23.1299C28.2974 23.1299 28.5934 23.1299 28.8899 23.1299C28.7379 23.5028 28.4419 23.6514 28.001 23.5749Z"
        fill="#30D3FF" />
    <path opacity="0.01" fill-rule="evenodd" clip-rule="evenodd"
        d="M10.6719 24.0202C10.6719 23.872 10.6719 23.7234 10.6719 23.5752C10.9683 23.5752 11.2643 23.5752 11.5608 23.5752C11.4088 23.9481 11.1128 24.0967 10.6719 24.0202Z"
        fill="#007FFF" />
    <path opacity="0.012" fill-rule="evenodd" clip-rule="evenodd"
        d="M20.8916 23.5752C21.484 23.8716 21.484 23.8716 20.8916 23.5752Z" fill="#0054FF" />
    <path opacity="0.01" fill-rule="evenodd" clip-rule="evenodd"
        d="M27.1123 24.0202C27.1123 23.872 27.1123 23.7234 27.1123 23.5752C27.4087 23.5752 27.7047 23.5752 28.0012 23.5752C27.8492 23.9481 27.5532 24.0967 27.1123 24.0202Z"
        fill="#007FFF" />
    <path opacity="0.012" fill-rule="evenodd" clip-rule="evenodd"
        d="M10.6722 24.0206C10.3384 24.498 9.89398 24.5723 9.33887 24.2431C9.7602 24.0281 10.2046 23.9543 10.6722 24.0206Z"
        fill="#144ABE" />
    <path opacity="0.016" fill-rule="evenodd" clip-rule="evenodd"
        d="M23.1136 24.0206C22.7798 24.498 22.3354 24.5723 21.7803 24.2431C22.2016 24.0281 22.6461 23.9543 23.1136 24.0206Z"
        fill="#195EFF" />
    <path opacity="0.012" fill-rule="evenodd" clip-rule="evenodd"
        d="M27.1126 24.0206C26.7789 24.498 26.3344 24.5723 25.7793 24.2431C26.2006 24.0281 26.6451 23.9543 27.1126 24.0206Z"
        fill="#19BEFF" />
</svg>