<svg width="32" height="32" viewBox="0 0 32 32" fill="none" xmlns="http://www.w3.org/2000/svg">
<rect width="32" height="32" fill="#FAFAFA"/>
<mask id="mask0_4435_84" style="mask-type:alpha" maskUnits="userSpaceOnUse" x="4" y="1" width="25" height="31">
<path fill-rule="evenodd" clip-rule="evenodd" d="M12.8083 1.52393C11.3605 4.56687 13.4512 6.65004 13.2437 10.6569C12.7204 9.11073 11.5255 8.04007 10.5653 7.68207C11.5593 13.6483 5.77236 15.175 4.75231 20.6147C3.86067 25.3716 6.20558 29.5957 13.1145 31.2382C11.4067 29.6986 10.8707 27.7741 11.228 25.7981C12.0033 21.5047 16.6249 20.037 17.5634 15.9961C17.571 15.9629 17.5771 15.93 17.5839 15.8968C20.05 18.0639 21.3674 22.7302 18.9783 26.1062C20.1923 25.799 21.1886 25.2358 21.9938 24.5086C22.3059 26.2699 22.3531 29.0192 20.0104 31.2382C29.6864 29.1596 28.8827 19.9606 27.0469 17.6897C26.8673 18.9555 25.9783 20.6629 23.9674 21.6629C24.9021 19.4377 24.9797 16.8541 24.4568 14.9287C22.1392 6.39919 14.0834 6.55286 12.8083 1.52393Z" fill="white"/>
</mask>
<g mask="url(#mask0_4435_84)">
<path fill-rule="evenodd" clip-rule="evenodd" d="M12.8083 1.52393C11.3605 4.56687 13.4512 6.65004 13.2437 10.6569C12.7204 9.11073 11.5255 8.04007 10.5653 7.68207C11.5593 13.6483 5.77236 15.175 4.75231 20.6147C3.86067 25.3716 6.20558 29.5957 13.1145 31.2382C11.4067 29.6986 10.8707 27.7741 11.228 25.7981C12.0033 21.5047 16.6249 20.037 17.5634 15.9961C17.571 15.9629 17.5771 15.93 17.5839 15.8968C20.05 18.0639 21.3674 22.7302 18.9783 26.1062C20.1923 25.799 21.1886 25.2358 21.9938 24.5086C22.3059 26.2699 22.3531 29.0192 20.0104 31.2382C29.6864 29.1596 28.8827 19.9606 27.0469 17.6897C26.8673 18.9555 25.9783 20.6629 23.9674 21.6629C24.9021 19.4377 24.9797 16.8541 24.4568 14.9287C22.1392 6.39919 14.0834 6.55286 12.8083 1.52393Z" fill="url(#paint0_linear_4435_84)"/>
</g>
<defs>
<linearGradient id="paint0_linear_4435_84" x1="28.834" y1="31.7771" x2="28.834" y2="0.444315" gradientUnits="userSpaceOnUse">
<stop stop-color="#F05236"/>
<stop offset="1" stop-color="#F5803B"/>
</linearGradient>
</defs>
</svg>

