<svg width="32" height="32" viewBox="0 0 32 32" fill="none" xmlns="http://www.w3.org/2000/svg">
    <g clip-path="url(#clip0_2228_184)">
        <path d="M32 0H0V32H32V0Z" fill="#001223" />
        <path fill-rule="evenodd" clip-rule="evenodd"
            d="M24.6984 7.64439C25.0123 7.89191 25.3664 8.09933 25.7607 8.26662C27.069 9.49412 28.1017 10.946 28.8588 12.6222C31.8855 13.963 32.5937 16.0963 30.9833 19.0222C30.4058 19.6612 29.6977 20.0761 28.8588 20.2666C28.7999 20.5036 28.7408 20.7407 28.6818 20.9777C28.2096 21.6888 27.7377 22.3999 27.2655 23.1111C26.8266 23.5495 26.384 23.9642 25.9377 24.3555C24.4925 25.5247 22.8402 26.2655 20.9806 26.5777C17.5579 26.6963 14.1351 26.6963 10.7124 26.5777C10.24 26.4769 9.76806 26.388 9.29608 26.3111C8.59483 25.9589 7.88667 25.6033 7.17161 25.2444C5.36403 24.051 4.03624 22.451 3.18824 20.4444C0.207246 19.1083 -0.559915 16.9749 0.886738 14.0444C1.52096 13.4145 2.25861 12.9404 3.09972 12.6222C4.2888 9.88738 6.23614 7.93183 8.942 6.75551C9.60218 6.66434 10.2514 6.5162 10.8894 6.31106C14.1942 6.19254 17.4988 6.19254 20.8036 6.31106C22.2022 6.50132 23.5006 6.94576 24.6984 7.64439Z"
            fill="#02FA11" />
        <path fill-rule="evenodd" clip-rule="evenodd"
            d="M9.82716 12.2666C10.3878 12.4432 10.9779 12.4432 11.5975 12.2666C11.6792 12.8808 11.8562 13.4438 12.1287 13.9555C11.8702 14.0997 11.8112 14.2479 11.9516 14.3999C12.1876 14.2814 12.4238 14.1629 12.6598 14.0444C12.6578 14.2118 12.7464 14.3303 12.9253 14.3999C13.2486 14.3092 13.2782 14.161 13.0139 13.9555C13.3031 13.8678 13.5983 13.8381 13.8991 13.8666C13.8227 14.5643 13.9998 15.1865 14.4302 15.7333C14.2666 16.0553 14.1191 16.0257 13.9876 15.6444C13.9169 15.685 13.8875 15.7443 13.8991 15.8222C13.0073 14.5696 11.9745 14.4511 10.8009 15.4666C10.2064 17.2401 10.826 18.129 12.6598 18.1333C12.8696 18.3744 13.0466 18.6411 13.1909 18.9333C13.1555 19.644 13.1555 20.3848 13.1909 21.1555C12.6801 21.1011 12.208 21.1603 11.7746 21.3333C8.45511 20.3552 7.12732 18.1626 7.79122 14.7555C8.25099 13.7321 8.92975 12.9025 9.82716 12.2666Z"
            fill="#0E285B" />
        <path fill-rule="evenodd" clip-rule="evenodd"
            d="M11.7746 21.3334C12.208 21.1605 12.6801 21.1013 13.1909 21.1557C13.1555 20.385 13.1555 19.6442 13.1909 18.9334C13.0466 18.6413 12.8696 18.3746 12.6598 18.1334C13.6712 17.703 14.0842 16.9326 13.899 15.8223C13.8875 15.7444 13.9169 15.6852 13.9876 15.6446C14.1191 16.0258 14.2666 16.0555 14.4302 15.7334C13.9998 15.1867 13.8227 14.5645 13.899 13.8668C13.5982 13.8383 13.3031 13.8679 13.0138 13.9557C13.2782 14.1612 13.2486 14.3094 12.9253 14.4001C12.7463 14.3304 12.6578 14.2119 12.6598 14.0446C12.4238 14.1631 12.1876 14.2816 11.9516 14.4001C11.8112 14.248 11.8702 14.0999 12.1287 13.9557C11.8562 13.444 11.6792 12.881 11.5975 12.2668C10.9779 12.4434 10.3878 12.4434 9.82715 12.2668C10.274 12.0131 10.746 11.8057 11.2435 11.6446C14.3712 11.526 17.4988 11.526 20.6265 11.6446C23.2373 12.5907 24.447 14.4574 24.2558 17.2446C23.9256 18.4121 23.306 19.3899 22.3969 20.1779C20.5691 21.3921 18.7398 22.6069 16.9087 23.8223C16.7906 23.7631 16.6727 23.7038 16.5546 23.6446C16.379 22.8831 16.3199 22.1128 16.3776 21.3334C14.8432 21.3334 13.309 21.3334 11.7746 21.3334Z"
            fill="#121D4C" />
        <path fill-rule="evenodd" clip-rule="evenodd"
            d="M19.2102 14.7554C20.9047 14.8625 21.5243 15.7514 21.0692 17.422C20.1868 18.3037 19.2425 18.3629 18.2365 17.5998C17.6535 16.3043 17.9782 15.3562 19.2102 14.7554Z"
            fill="#05F712" />
        <path fill-rule="evenodd" clip-rule="evenodd"
            d="M13.8991 15.8222C14.0843 16.9325 13.6713 17.7029 12.6599 18.1334C10.8261 18.1291 10.2065 17.2402 10.801 15.4667C11.9746 14.4512 13.0074 14.5697 13.8991 15.8222Z"
            fill="#07F517" />
    </g>
    <defs>
        <clipPath id="clip0_2228_184">
            <rect width="32" height="32" fill="white" />
        </clipPath>
    </defs>
</svg>