<svg width="32" height="32" viewBox="0 0 32 32" fill="none" xmlns="http://www.w3.org/2000/svg">
    <path opacity="0.945" fill-rule="evenodd" clip-rule="evenodd"
        d="M21.8125 1.0625C22.6459 1.0625 23.4791 1.0625 24.3125 1.0625C23.0429 5.22409 21.8138 9.39075 20.625 13.5625C22.8674 11.3404 25.5133 10.6529 28.5625 11.5C30.0918 12.2805 31.071 13.5096 31.5 15.1875C31.8514 18.341 31.018 21.1326 29 23.5625C26.1321 26.9631 22.4863 28.4006 18.0625 27.875C14.4509 26.922 12.9718 24.6095 13.625 20.9375C15.2208 15.4002 16.8666 9.87945 18.5625 4.375C18.5503 4.01589 18.3835 3.76589 18.0625 3.625C17.3241 3.4549 16.5741 3.3924 15.8125 3.4375C15.8813 2.78782 16.0479 2.16282 16.3125 1.5625C18.1698 1.44895 20.0031 1.28229 21.8125 1.0625ZM23.4375 13.8125C24.2819 13.7085 25.0736 13.8544 25.8125 14.25C26.6451 15.3845 26.916 16.6552 26.625 18.0625C26.3246 20.2029 25.5746 22.1612 24.375 23.9375C23.0691 25.8303 21.2983 26.5178 19.0625 26C18.1851 25.4538 17.7685 24.6621 17.8125 23.625C18.058 20.5317 19.1205 17.7609 21 15.3125C21.6984 14.6 22.5109 14.1 23.4375 13.8125Z"
        fill="#EFCC00" />
    <path opacity="0.945" fill-rule="evenodd" clip-rule="evenodd"
        d="M1.8125 10.8125C2.85416 10.8125 3.89584 10.8125 4.9375 10.8125C4.97871 15.4674 4.93704 20.1132 4.8125 24.75C7.18714 24.8125 9.56214 24.8334 11.9375 24.8125C11.9375 25.8125 11.9375 26.8125 11.9375 27.8125C8.5625 27.8125 5.1875 27.8125 1.8125 27.8125C1.8125 22.1459 1.8125 16.4791 1.8125 10.8125Z"
        fill="black" />
</svg>