<svg width="32" height="32" viewBox="0 0 33 33" fill="none" xmlns="http://www.w3.org/2000/svg">
    <path opacity="0.966" fill-rule="evenodd" clip-rule="evenodd"
        d="M15.2402 0.40737C23.1789 0.0935512 28.7611 3.53384 31.987 10.7281C33.1241 14.1316 33.2409 17.5719 32.3378 21.0488C32.1393 21.7939 31.8469 22.4937 31.461 23.1479C26.6672 16.0063 21.8448 8.89256 16.9938 1.80679C12.0578 8.85337 7.20612 15.9671 2.43898 23.1479C-0.168793 16.9088 0.620324 11.1362 4.80633 5.83011C7.65259 2.7925 11.1305 0.984979 15.2402 0.40737Z"
        fill="#23D892" />
    <path opacity="0.969" fill-rule="evenodd" clip-rule="evenodd"
        d="M15.4157 24.0228C19.9564 23.6755 23.785 25.1334 26.9017 28.3959C27.0187 28.5709 27.0187 28.7458 26.9017 28.9207C21.854 32.637 16.3886 33.3658 10.5056 31.1073C9.36716 30.6275 8.31501 30.0152 7.34913 29.2706C7.06434 29.0311 6.97666 28.7395 7.08609 28.3959C9.36664 25.9903 12.1433 24.5325 15.4157 24.0228Z"
        fill="#23D892" />
</svg>