<svg width="32" height="32" viewBox="0 0 32 32" fill="none" xmlns="http://www.w3.org/2000/svg">
    <path fill-rule="evenodd" clip-rule="evenodd"
        d="M13.9052 0.496827C13.8217 0.486155 13.772 0.519279 13.756 0.596192C13.3215 0.59573 12.8908 0.554325 12.4638 0.471986C12.3975 0.35606 12.3975 0.240133 12.4638 0.124207C13.1559 0.0476571 13.8518 0.00625505 14.5513 0C14.5513 0.0662434 14.5513 0.132487 14.5513 0.198731C14.0211 0.231853 13.491 0.264974 12.9608 0.298096C12.9608 0.347779 12.9608 0.397462 12.9608 0.447144C13.285 0.431072 13.5997 0.447631 13.9052 0.496827Z"
        fill="#232D57" />
    <path fill-rule="evenodd" clip-rule="evenodd"
        d="M16.6886 0.497048C16.0171 0.480705 15.3544 0.497267 14.7005 0.546738C14.3842 0.542117 14.0694 0.558678 13.7561 0.596427C13.7721 0.519503 13.8218 0.486375 13.9052 0.497048C14.841 0.440437 15.7689 0.440437 16.6886 0.497048Z"
        fill="#124370" />
    <path fill-rule="evenodd" clip-rule="evenodd"
        d="M14.7004 0.5465C15.3543 0.497029 16.0171 0.480468 16.6886 0.49681C17.1763 0.5432 17.6567 0.609456 18.13 0.695568C16.9883 0.624179 15.8451 0.57449 14.7004 0.5465Z"
        fill="#50ADDB" />
    <path fill-rule="evenodd" clip-rule="evenodd"
        d="M14.7004 0.546654C15.8451 0.574641 16.9883 0.624323 18.13 0.695703C19.5579 0.945164 20.9165 1.39231 22.2057 2.03714C23.0097 2.49283 23.7884 2.98966 24.5418 3.52762C27.0973 5.62805 28.7457 8.29437 29.4873 11.5265C29.5673 12.0561 29.6419 12.5861 29.7109 13.1164C29.7109 19.3102 29.7109 25.5039 29.7109 31.6977C29.595 31.6977 29.479 31.6977 29.363 31.6977C29.363 31.6315 29.363 31.5652 29.363 31.499C29.1388 31.4718 28.9234 31.4222 28.7169 31.3499C28.4269 31.2133 28.1453 31.0643 27.8719 30.9028C27.8221 30.8277 27.7889 30.7449 27.7725 30.6544C27.609 30.6109 27.4433 30.5778 27.2755 30.555C27.2755 30.5053 27.2755 30.4556 27.2755 30.406C27.0514 30.326 26.8195 30.2763 26.5796 30.2569C26.0185 30.0596 25.4552 29.8609 24.8897 29.6607C24.8897 29.6442 24.8897 29.6276 24.8897 29.611C24.8981 29.5454 24.8816 29.4874 24.84 29.4371C24.2859 29.2846 23.7226 29.177 23.1501 29.1142C22.2735 28.9051 21.3954 28.7395 20.5158 28.6174C20.29 28.5066 20.0414 28.4321 19.7702 28.3938C18.0133 28.4019 16.2737 28.3604 14.5513 28.2696C14.2842 28.2859 14.0191 28.2694 13.7561 28.2199C13.5848 28.1757 13.4357 28.0929 13.3087 27.9715C13.2195 28.0095 13.1284 28.0426 13.0354 28.0709C12.5032 27.8238 11.9481 27.7079 11.3703 27.7231C11.0287 27.6377 10.6973 27.5218 10.3762 27.3753C9.28705 26.9473 8.29298 26.3677 7.39399 25.6364C7.39399 25.5867 7.39399 25.5371 7.39399 25.4874C7.32774 25.4874 7.26143 25.4874 7.19518 25.4874C7.23971 25.2252 7.1403 25.1341 6.89695 25.2141C6.84725 25.1644 6.79755 25.1147 6.74784 25.0651C6.8141 25.0319 6.8141 24.9988 6.74784 24.9657C6.59381 24.9292 6.4447 24.8547 6.30051 24.7421C6.2008 24.6003 6.06829 24.4927 5.90288 24.4192C5.61271 24.0878 5.31449 23.7649 5.00821 23.4504C4.8678 23.2362 4.72699 23.021 4.58573 22.8045C4.47216 22.6588 4.3479 22.5264 4.21295 22.407C4.05763 22.0636 3.87537 21.7324 3.66621 21.4134C3.6435 21.3737 3.61035 21.3572 3.56681 21.3637C1.74631 17.956 1.32383 14.3788 2.29936 10.6322C2.42685 10.2248 2.56766 9.82733 2.72184 9.43986C2.77135 9.44413 2.81275 9.42754 2.8461 9.39017C2.86663 9.25444 2.89978 9.12194 2.94551 8.99271C2.96206 9.02585 2.97866 9.05894 2.99521 9.09208C3.05933 8.97821 3.14219 8.87884 3.24373 8.79398C3.17967 8.62322 3.22937 8.49077 3.39284 8.39652C3.41745 8.2985 3.42575 8.19913 3.4177 8.09842C3.61343 8.08138 3.66313 7.98202 3.56681 7.80033C3.61964 7.58192 3.75215 7.44942 3.96444 7.40287C3.97865 7.31458 4.0118 7.23176 4.06384 7.15445C4.04804 7.09747 4.01494 7.05603 3.96444 7.03025C4.00181 6.99691 4.01841 6.95552 4.01414 6.90604C4.69647 5.80959 5.52488 4.83248 6.49932 3.97476C6.96763 3.57226 7.44812 3.19136 7.94073 2.83206C8.59468 2.41392 9.27398 2.03302 9.97858 1.68936C11.1971 1.17943 12.4563 0.815095 13.7561 0.596337C14.0694 0.558593 14.3842 0.542034 14.7004 0.546654Z"
        fill="#3CBDEF" />
    <path fill-rule="evenodd" clip-rule="evenodd"
        d="M9.9786 1.68935C9.274 2.03301 8.5947 2.41391 7.94075 2.83205C7.93682 2.76098 7.95337 2.69473 7.99045 2.63332C8.25165 2.44546 8.51677 2.27157 8.78571 2.11165C9.10004 2.07278 9.37341 1.94857 9.60582 1.73903C9.7268 1.69817 9.85106 1.68161 9.9786 1.68935Z"
        fill="#143865" />
    <path fill-rule="evenodd" clip-rule="evenodd"
        d="M22.2057 2.03711C22.4662 2.12929 22.7313 2.22037 23.0009 2.31036C23.122 2.40753 23.2546 2.49033 23.3986 2.55878C23.4648 2.5919 23.4648 2.62502 23.3986 2.65814C23.5765 2.69749 23.7421 2.76373 23.8956 2.85687C24.0473 3.04071 24.2295 3.18976 24.4424 3.30402C24.4258 3.32058 24.4092 3.33714 24.3927 3.3537C24.4528 3.40533 24.5025 3.46329 24.5418 3.52759C23.7884 2.98963 23.0097 2.4928 22.2057 2.03711Z"
        fill="#153E69" />
    <path fill-rule="evenodd" clip-rule="evenodd"
        d="M16.291 7.00521C16.2578 7.00521 16.2413 7.02176 16.2413 7.0549C15.9866 6.78795 15.7381 6.7962 15.4957 7.07974C13.0712 9.50321 10.644 11.9294 8.21413 14.3583C8.11472 14.6564 8.11472 14.9544 8.21413 15.2525C8.30673 15.3742 8.43099 15.4239 8.58691 15.4016C8.66976 15.3933 8.75257 15.385 8.83543 15.3767C8.89472 15.3223 8.96103 15.281 9.03424 15.2525C9.03424 15.2857 9.03424 15.3188 9.03424 15.3519C8.98006 15.4193 8.91376 15.469 8.83543 15.501C8.63164 15.514 8.43283 15.4975 8.23898 15.4513C8.08664 15.2934 8.02034 15.0947 8.04017 14.8551C8.03574 14.667 8.0606 14.4848 8.11472 14.3086C10.6274 11.7969 13.1375 9.28794 15.6448 6.78164C15.8318 6.74498 16.014 6.76152 16.1916 6.83133C16.2573 6.87187 16.2904 6.92985 16.291 7.00521Z"
        fill="#15466B" />
    <path fill-rule="evenodd" clip-rule="evenodd"
        d="M22.504 14.855C22.5205 16.7017 22.5039 18.54 22.4543 20.3698C22.2084 20.2157 21.9682 20.05 21.7336 19.873C21.608 19.9427 21.5168 20.0421 21.4602 20.1711C21.2932 20.2215 21.1441 20.1801 21.0128 20.0469C20.3895 19.5477 19.7599 19.0591 19.1241 18.5812C19.0708 18.5439 19.0625 18.4942 19.0993 18.4322C19.3876 17.9881 19.5947 17.5078 19.7206 16.9914C19.7564 16.9706 19.7813 16.9375 19.7951 16.892C19.836 16.5188 19.8277 16.1545 19.7703 15.799C19.5627 14.2835 18.7509 13.2319 17.3348 12.6441C15.5337 12.0694 14.0343 12.5082 12.8366 13.9607C11.9274 15.365 11.8777 16.8058 12.6875 18.2831C13.2714 19.1896 14.0915 19.7527 15.1478 19.9723C15.4607 19.9929 15.6926 20.1503 15.8437 20.4443C15.8768 20.4526 15.9099 20.4609 15.9431 20.4692C16.1071 20.322 16.2728 20.1729 16.4401 20.022C17.2027 19.9223 17.8819 19.6325 18.478 19.1526C18.6441 19.0031 18.7932 18.8374 18.9253 18.6558C18.9788 18.6324 19.0285 18.6407 19.0744 18.6806C19.7248 19.1967 20.3875 19.7019 21.0626 20.1959C21.1742 20.2584 21.2404 20.3494 21.2614 20.4692C21.106 20.5817 21.0314 20.7308 21.0377 20.9163C21.1701 21.0074 21.2943 21.1068 21.4105 21.2144C17.3848 21.3136 13.3423 21.3468 9.28278 21.3138C9.25212 21.3083 9.22726 21.2917 9.20823 21.2641C9.18338 19.3265 9.17507 17.3889 9.18338 15.4512C9.17015 15.2473 9.19501 15.0485 9.25793 14.855C11.3871 12.7351 13.4995 10.6153 15.5951 8.49564C15.8289 8.28852 16.0443 8.31336 16.2413 8.57017C18.3362 10.6559 20.4237 12.7508 22.504 14.855Z"
        fill="#FCFCFC" />
    <path fill-rule="evenodd" clip-rule="evenodd"
        d="M4.0141 6.90576C4.01837 6.95525 4.00177 6.99663 3.96439 7.02997C4.01489 7.05575 4.048 7.09719 4.0638 7.15418C4.01176 7.23148 3.97861 7.3143 3.96439 7.40259C3.75211 7.44914 3.6196 7.58165 3.56676 7.80005C3.66309 7.98174 3.61339 8.08111 3.41765 8.09815C3.42571 8.19885 3.4174 8.29822 3.3928 8.39624C3.22933 8.49049 3.17962 8.62294 3.24369 8.7937C3.14215 8.87856 3.05929 8.97793 2.99517 9.0918C2.97862 9.05866 2.96202 9.02557 2.94547 8.99244C2.89974 9.12166 2.86659 9.25416 2.84606 9.3899C2.81271 9.42726 2.77131 9.44385 2.7218 9.43958C3.06257 8.54296 3.49335 7.69835 4.0141 6.90576Z"
        fill="#48B0E5" />
    <path fill-rule="evenodd" clip-rule="evenodd"
        d="M15.5455 8.39648C15.5369 8.44577 15.5535 8.47886 15.5952 8.49585C13.4995 10.6155 11.3871 12.7353 9.25795 14.8552C9.19503 15.0487 9.17018 15.2475 9.1834 15.4514C9.15025 15.3024 9.11714 15.1533 9.08399 15.0043C9.08354 14.9145 9.10839 14.8316 9.15855 14.7559C11.3154 12.6579 13.4444 10.5381 15.5455 8.39648Z"
        fill="#364C5D" />
    <path fill-rule="evenodd" clip-rule="evenodd"
        d="M16.2412 7.05504C18.6943 9.53187 21.1546 11.9994 23.6222 14.4578C23.8082 15.2004 23.5348 15.4985 22.8021 15.352C22.7266 15.1991 22.6852 15.0335 22.6779 14.8552C20.5126 12.6909 18.3339 10.5132 16.1418 8.32195C15.9221 8.2124 15.7233 8.23724 15.5454 8.39647C13.4443 10.538 11.3153 12.6579 9.15845 14.7559C9.1083 14.8316 9.08345 14.9144 9.0839 15.0043C9.07748 15.0895 9.06093 15.1723 9.03419 15.2527C8.96098 15.2811 8.89467 15.3225 8.83538 15.3769C8.75252 15.3852 8.66972 15.3934 8.58686 15.4017C8.43094 15.424 8.30668 15.3744 8.21408 15.2527C8.11467 14.9546 8.11467 14.6565 8.21408 14.3584C10.6439 11.9296 13.0712 9.50335 15.4957 7.07988C15.7381 6.79634 15.9866 6.78809 16.2412 7.05504Z"
        fill="#B3DCF0" />
    <path fill-rule="evenodd" clip-rule="evenodd"
        d="M22.8021 15.352C22.769 15.352 22.7524 15.3685 22.7524 15.4016C22.7079 15.3517 22.6748 15.3517 22.653 15.4016C22.6199 15.501 22.5868 15.6004 22.5536 15.6997C22.5696 15.4087 22.5531 15.1271 22.5039 14.8551C20.4237 12.7509 18.3361 10.656 16.2412 8.57027C16.0442 8.31346 15.8289 8.28862 15.5951 8.49575C15.5534 8.47876 15.5368 8.44567 15.5454 8.39638C15.7233 8.23715 15.9221 8.21231 16.1418 8.32186C18.334 10.5131 20.5126 12.6908 22.6779 14.8551C22.6852 15.0334 22.7266 15.199 22.8021 15.352Z"
        fill="#2E4256" />
    <path fill-rule="evenodd" clip-rule="evenodd"
        d="M21.5596 12.2222C21.6642 12.2859 21.7803 12.3273 21.9075 12.3464C21.9823 12.4205 22.0237 12.5115 22.0318 12.6196C22.1351 12.7003 22.2428 12.7748 22.3548 12.8432C22.4005 13.0482 22.5165 13.1393 22.7028 13.1165C22.7816 13.1996 22.8147 13.2989 22.8022 13.4146C22.8545 13.4072 22.9042 13.4154 22.9513 13.4394C22.9234 13.5172 22.9565 13.5834 23.0507 13.6381C23.0978 13.6621 23.1475 13.6704 23.1998 13.663C23.1944 13.763 23.2275 13.8458 23.2992 13.9114C23.2625 13.9179 23.2293 13.9096 23.1998 13.8865C22.6417 13.3369 22.0949 12.7822 21.5596 12.2222Z"
        fill="#43A5D2" />
    <path fill-rule="evenodd" clip-rule="evenodd"
        d="M16.2909 7.00537C16.3824 7.08824 16.4818 7.16277 16.5891 7.22894C18.2282 8.92521 19.8849 10.5896 21.5595 12.2221C22.0949 12.7821 22.6416 13.3368 23.1997 13.8864C23.2292 13.9095 23.2624 13.9178 23.2991 13.9113C23.4123 14.0991 23.5532 14.2647 23.7216 14.4081C23.7644 14.7104 23.7478 15.0085 23.6719 15.3024C23.4493 15.4883 23.1925 15.5463 22.9015 15.4763C22.84 15.4647 22.7903 15.4399 22.7524 15.4017C22.7524 15.3686 22.7689 15.3521 22.8021 15.3521C23.5348 15.4985 23.8082 15.2004 23.6222 14.4578C21.1546 11.9994 18.6942 9.53189 16.2412 7.05505C16.2412 7.02192 16.2578 7.00537 16.2909 7.00537Z"
        fill="#1E466F" />
    <path fill-rule="evenodd" clip-rule="evenodd"
        d="M30.0092 31.6978C30.0754 28.7419 30.1086 25.7691 30.1086 22.7797C30.0902 19.4911 30.0902 16.2037 30.1086 12.9177C30.1086 12.8184 30.1086 12.719 30.1086 12.6196C30.1583 12.6196 30.208 12.6196 30.2577 12.6196C30.2718 12.8844 30.2387 13.1411 30.1583 13.3897C30.1982 13.609 30.223 13.8326 30.2328 14.0604C30.266 19.9395 30.266 25.8187 30.2328 31.6978C30.1614 31.9498 30.0869 31.9498 30.0092 31.6978Z"
        fill="#222D57" />
    <path fill-rule="evenodd" clip-rule="evenodd"
        d="M29.8103 31.6978C29.8103 25.6862 29.8103 19.6746 29.8103 13.663C29.8021 13.3148 29.8103 12.967 29.8352 12.6196C29.8517 12.7521 29.8683 12.8846 29.8849 13.0171C29.8932 16.1306 29.9014 19.244 29.9097 22.3574C29.9097 25.4876 29.8766 28.6011 29.8103 31.6978Z"
        fill="#1F2E5F" />
    <path fill-rule="evenodd" clip-rule="evenodd"
        d="M29.7607 13.6626C29.7772 13.6626 29.7938 13.6626 29.8104 13.6626C29.8104 19.6742 29.8104 25.6858 29.8104 31.6974C29.8104 31.7968 29.8104 31.8961 29.8104 31.9955C29.7118 32.0126 29.6455 31.9794 29.6116 31.8961C29.6439 31.9113 29.677 31.9278 29.711 31.9458C29.7607 25.8515 29.7772 19.7571 29.7607 13.6626Z"
        fill="#164D7E" />
    <path fill-rule="evenodd" clip-rule="evenodd"
        d="M29.711 13.1162C29.7598 13.2882 29.7764 13.4704 29.7607 13.6627C29.7772 19.7572 29.7607 25.8516 29.711 31.946C29.677 31.9279 29.6439 31.9114 29.6116 31.8963C29.3111 31.7132 29.0129 31.5311 28.7169 31.3498C28.9234 31.422 29.1388 31.4717 29.3631 31.4988C29.3631 31.565 29.3631 31.6313 29.3631 31.6975C29.479 31.6975 29.595 31.6975 29.711 31.6975C29.711 25.5037 29.711 19.31 29.711 13.1162Z"
        fill="#52B1DB" />
    <path fill-rule="evenodd" clip-rule="evenodd"
        d="M30.1086 12.9177C30.0903 16.2037 30.0903 19.4911 30.1086 22.7797C30.1086 25.7691 30.0755 28.7419 30.0092 31.6978C29.9429 25.749 29.9429 19.7954 30.0092 13.8369C29.9703 13.4338 29.9372 13.0281 29.9098 12.6196C29.9595 12.6196 30.0092 12.6196 30.0589 12.6196C30.0442 12.7307 30.0608 12.83 30.1086 12.9177Z"
        fill="#1A3253" />
    <path fill-rule="evenodd" clip-rule="evenodd"
        d="M16.5395 19.7739C16.5063 19.7739 16.4898 19.7905 16.4898 19.8236C16.3085 19.9881 16.1263 20.1537 15.943 20.3204C15.7727 20.2002 15.6402 20.0511 15.5454 19.8733C15.6025 19.7914 15.6688 19.7168 15.7442 19.6497C15.6883 19.5522 15.622 19.4611 15.5454 19.3765C15.6116 19.2936 15.6779 19.2109 15.7442 19.128C15.6935 19.0442 15.6272 18.9779 15.5454 18.9293C15.5728 18.7918 15.639 18.6759 15.7442 18.5815C15.686 18.4986 15.6197 18.4241 15.5454 18.358C15.6013 18.2604 15.6676 18.1694 15.7442 18.0847C15.7038 18.0194 15.6541 17.9614 15.5951 17.9108C14.7213 17.5302 14.3982 16.876 14.6259 15.9483C15.1682 15.0408 15.9054 14.8504 16.8377 15.377C17.4514 15.9536 17.5425 16.6077 17.1111 17.3395C16.9577 17.5261 16.7755 17.6752 16.5643 17.7866C16.5395 18.4488 16.5312 19.1113 16.5395 19.7739Z"
        fill="#F8FAFA" />
    <path fill-rule="evenodd" clip-rule="evenodd"
        d="M9.03426 15.3521C9.08392 17.3309 9.10047 19.3182 9.08397 21.314C9.03431 19.3848 9.01776 17.4472 9.03426 15.5011C8.96801 15.5011 8.9017 15.5011 8.83545 15.5011C8.91378 15.4692 8.98009 15.4195 9.03426 15.3521Z"
        fill="#4295C2" />
    <path fill-rule="evenodd" clip-rule="evenodd"
        d="M9.08388 15.0044C9.11704 15.1534 9.15014 15.3025 9.18329 15.4515C9.17499 17.3892 9.18329 19.3268 9.20814 21.2644C9.22718 21.292 9.25203 21.3086 9.2827 21.3141C13.35 21.3637 17.4257 21.3803 21.5098 21.3638C17.5998 21.3969 13.6898 21.43 9.77973 21.4631C9.59673 21.4713 9.41451 21.4631 9.23299 21.4383C9.1896 21.3864 9.1399 21.345 9.08388 21.3141C9.10038 19.3183 9.08383 17.331 9.03418 15.3522C9.03418 15.319 9.03418 15.2859 9.03418 15.2528C9.06092 15.1725 9.07747 15.0897 9.08388 15.0044Z"
        fill="#264162" />
    <path fill-rule="evenodd" clip-rule="evenodd"
        d="M22.5039 14.855C22.5531 15.127 22.5696 15.4085 22.5536 15.6996C22.5536 17.2729 22.5536 18.8461 22.5536 20.4194C22.5043 20.428 22.4712 20.4114 22.4542 20.3698C22.5038 18.5399 22.5204 16.7017 22.5039 14.855Z"
        fill="#BEC9D8" />
    <path fill-rule="evenodd" clip-rule="evenodd"
        d="M22.8518 15.7993C22.9015 15.7993 22.9512 15.7993 23.0009 15.7993C23.0009 17.1242 23.0009 18.449 23.0009 19.7739C22.9512 19.7739 22.9015 19.7739 22.8518 19.7739C22.8518 18.449 22.8518 17.1242 22.8518 15.7993Z"
        fill="#3EBDE6" />
    <path fill-rule="evenodd" clip-rule="evenodd"
        d="M19.7703 15.7992C19.778 16.1981 19.7615 16.5956 19.7205 16.9916C19.5947 17.508 19.3876 17.9883 19.0993 18.4324C19.0625 18.4944 19.0708 18.5441 19.1241 18.5814C19.1327 18.6307 19.1161 18.6638 19.0744 18.6808C19.0285 18.6409 18.9788 18.6326 18.9253 18.656C18.7932 18.8376 18.6441 19.0033 18.478 19.1528C17.8819 19.6327 17.2027 19.9225 16.4401 20.0222C16.4183 20.0255 16.4017 20.0172 16.3904 19.9974C16.4562 19.9568 16.4893 19.8989 16.4898 19.8235C16.4898 19.7904 16.5064 19.7738 16.5395 19.7738C16.5807 19.4515 16.6055 19.1203 16.6141 18.7802C16.6279 18.8257 16.6527 18.8588 16.6886 18.8795C17.9869 18.4414 18.6662 17.5306 18.7265 16.147C18.5895 14.6689 17.7943 13.7911 16.3407 13.5138C16.2092 13.4808 16.0684 13.4642 15.9182 13.4641C15.7128 13.4535 15.5223 13.4866 15.3466 13.5635C14.2414 13.8485 13.5372 14.5441 13.2342 15.6502C13.0616 16.8227 13.4344 17.7749 14.3526 18.5069C14.6716 18.7208 15.0195 18.8616 15.3963 18.9292C15.446 18.863 15.4957 18.863 15.5454 18.9292C15.6272 18.9778 15.6935 19.0441 15.7443 19.1279C15.678 19.2108 15.6117 19.2935 15.5454 19.3764C15.622 19.461 15.6883 19.5521 15.7443 19.6496C15.6688 19.7167 15.6025 19.7913 15.5454 19.8732C15.4311 19.9577 15.2986 19.9908 15.1478 19.9725C14.0915 19.7529 13.2713 19.1898 12.6875 18.2833C11.8777 16.806 11.9274 15.3652 12.8366 13.9609C14.0343 12.5084 15.5337 12.0696 17.3348 12.6443C18.7509 13.2321 19.5627 14.2837 19.7703 15.7992Z"
        fill="#254865" />
    <path fill-rule="evenodd" clip-rule="evenodd"
        d="M17.8814 13.1162C17.8103 13.1122 17.744 13.1288 17.6826 13.1658C17.6326 13.1441 17.6326 13.111 17.6826 13.0665C17.5868 12.9632 17.4791 12.9301 17.3595 12.9671C17.2211 12.8978 17.0803 12.8316 16.937 12.7684C16.8045 12.7518 16.672 12.7352 16.5394 12.7187C16.1442 12.7847 15.7465 12.8178 15.3465 12.8181C15.3465 12.8843 15.3465 12.9506 15.3465 13.0168C15.6116 13.0168 15.8767 13.0168 16.1418 13.0168C16.1418 13.0665 16.1418 13.1162 16.1418 13.1658C15.7551 13.1842 15.3741 13.151 14.9986 13.0665C14.8528 13.1313 14.7037 13.181 14.5513 13.2155C14.5513 13.1327 14.5513 13.0499 14.5513 12.9671C14.7402 12.9979 14.9059 12.9565 15.0483 12.8429C14.9808 12.7965 14.9145 12.7551 14.8495 12.7187C14.9988 12.6312 15.1645 12.5732 15.3465 12.5448C16.2259 12.4468 17.0543 12.6041 17.8317 13.0168C17.8714 13.0395 17.8879 13.0726 17.8814 13.1162Z"
        fill="#5FBFF1" />
    <path fill-rule="evenodd" clip-rule="evenodd"
        d="M19.7701 15.7993C19.8275 16.1548 19.8358 16.5191 19.795 16.8923C19.7812 16.9378 19.7563 16.9709 19.7205 16.9917C19.7614 16.5957 19.7779 16.1982 19.7701 15.7993Z"
        fill="#B1C2CE" />
    <path fill-rule="evenodd" clip-rule="evenodd"
        d="M14.8495 12.7188C14.9145 12.7551 14.9808 12.7966 15.0483 12.843C14.9059 12.9565 14.7403 12.998 14.5513 12.9672C14.5513 13.05 14.5513 13.1328 14.5513 13.2156C14.7037 13.181 14.8528 13.1314 14.9986 13.0665C15.3741 13.1511 15.7552 13.1842 16.1418 13.1659C16.1418 13.1162 16.1418 13.0665 16.1418 13.0168C15.8767 13.0168 15.6116 13.0168 15.3466 13.0168C15.3466 12.9506 15.3466 12.8843 15.3466 12.8181C15.7466 12.8178 16.1442 12.7847 16.5394 12.7188C16.672 12.7353 16.8045 12.7519 16.9371 12.7684C17.0803 12.8316 17.2211 12.8979 17.3596 12.9672C17.4791 12.9301 17.5868 12.9633 17.6826 13.0665C17.6326 13.111 17.6326 13.1441 17.6826 13.1659C17.7441 13.1288 17.8104 13.1123 17.8814 13.1162C17.9713 13.1158 18.0542 13.1406 18.13 13.1907C19.7198 14.548 20.076 16.1792 19.1986 18.0845C18.6037 19.0712 17.7504 19.6508 16.6388 19.8234C16.6863 19.545 16.7029 19.2634 16.6886 18.9788C17.5717 18.7507 18.2096 18.2207 18.6021 17.3889C19.1581 15.7263 18.6859 14.4594 17.1856 13.5882C15.9431 13.1098 14.8414 13.3167 13.8803 14.2092C12.8243 15.4847 12.7911 16.793 13.7809 18.1342C14.2712 18.6482 14.8594 18.9877 15.5454 19.1527C15.5054 19.2506 15.4391 19.3252 15.3466 19.3762C15.4198 19.4704 15.5026 19.5532 15.5951 19.6246C15.478 19.8534 15.2958 19.928 15.0483 19.8482C13.5058 19.399 12.5863 18.3805 12.2898 16.7927C12.1158 14.9955 12.8199 13.6789 14.4022 12.843C14.544 12.7719 14.6931 12.7305 14.8495 12.7188Z"
        fill="#5BC1EE" />
    <path fill-rule="evenodd" clip-rule="evenodd"
        d="M16.6886 18.8794C16.6527 18.8587 16.6278 18.8256 16.614 18.7801C16.6055 19.1202 16.5806 19.4514 16.5395 19.7737C16.5312 19.1111 16.5395 18.4486 16.5643 17.7864C16.7755 17.675 16.9577 17.5259 17.1111 17.3393C17.5425 16.6075 17.4514 15.9534 16.8377 15.3768C15.9055 14.8502 15.1682 15.0406 14.6259 15.9482C14.3982 16.8758 14.7213 17.53 15.5951 17.9106C15.6541 17.9613 15.7038 18.0192 15.7442 18.0845C15.6676 18.1692 15.6013 18.2602 15.5454 18.3578C15.6198 18.4239 15.686 18.4984 15.7442 18.5813C15.639 18.6757 15.5728 18.7917 15.5454 18.9291C15.4957 18.8629 15.446 18.8629 15.3963 18.9291C15.4099 18.7909 15.4761 18.6832 15.5951 18.6062C15.4996 18.5357 15.4333 18.4446 15.3963 18.3329C15.4349 18.2362 15.4846 18.1451 15.5454 18.0597C14.496 17.5601 14.1894 16.7734 14.6259 15.6997C15.0705 15.0513 15.6752 14.8278 16.4401 15.029C17.3988 15.4974 17.6888 16.2343 17.3099 17.2399C17.1452 17.4625 16.9546 17.6613 16.7383 17.8361C16.6887 18.1823 16.6722 18.5301 16.6886 18.8794Z"
        fill="#404756" />
    <path fill-rule="evenodd" clip-rule="evenodd"
        d="M16.3407 13.5137C17.7943 13.7911 18.5895 14.6688 18.7265 16.1469C18.6662 17.5305 17.9869 18.4414 16.6886 18.8795C16.6722 18.5301 16.6888 18.1823 16.7383 17.8361C16.9546 17.6613 17.1452 17.4626 17.3099 17.2399C17.6888 16.2344 17.3988 15.4974 16.4401 15.0291C15.6753 14.8278 15.0705 15.0514 14.6259 15.6998C14.1895 16.7735 14.496 17.5601 15.5454 18.0597C15.4846 18.1452 15.4349 18.2362 15.3963 18.333C15.4334 18.4446 15.4996 18.5357 15.5951 18.6062C15.4761 18.6833 15.4099 18.7909 15.3963 18.9291C15.0195 18.8615 14.6716 18.7207 14.3525 18.5068C13.4344 17.7749 13.0616 16.8226 13.2342 15.6501C13.5372 14.544 14.2414 13.8484 15.3466 13.5634C15.6762 13.5221 16.0076 13.5056 16.3407 13.5137Z"
        fill="#F7F9F9" />
    <path fill-rule="evenodd" clip-rule="evenodd"
        d="M15.7939 15.5508C16.2004 15.5221 16.3909 15.7043 16.3655 16.0973C16.2437 16.375 16.0366 16.466 15.7442 16.3705C15.4685 16.074 15.4851 15.8008 15.7939 15.5508Z"
        fill="#3C414D" />
    <path fill-rule="evenodd" clip-rule="evenodd"
        d="M15.7442 15.6997C16.2191 15.6349 16.3517 15.8088 16.1418 16.2214C15.8696 16.3503 15.7039 16.2675 15.6448 15.973C15.6576 15.8732 15.6908 15.7821 15.7442 15.6997Z"
        fill="#E9EFF3" />
    <path fill-rule="evenodd" clip-rule="evenodd"
        d="M15.5951 14.1595C16.2522 14.0695 16.8155 14.2517 17.285 14.706C17.1584 14.7576 17.059 14.7162 16.9868 14.5818C16.0853 14.1277 15.2652 14.2353 14.5265 14.9048C14.4933 14.8551 14.4933 14.8054 14.5265 14.7557C14.8389 14.4714 15.1951 14.2726 15.5951 14.1595Z"
        fill="#404857" />
    <path fill-rule="evenodd" clip-rule="evenodd"
        d="M16.3406 13.5135C16.0075 13.5054 15.6761 13.5219 15.3466 13.5632C15.5222 13.4863 15.7127 13.4532 15.9181 13.4639C16.0683 13.464 16.2091 13.4805 16.3406 13.5135Z"
        fill="#ADB6CC" />
    <path fill-rule="evenodd" clip-rule="evenodd"
        d="M19.124 18.5815C19.7598 19.0594 20.3894 19.548 21.0128 20.0472C21.1441 20.1804 21.2932 20.2218 21.4601 20.1714C21.3951 20.2706 21.3288 20.37 21.2613 20.4695C21.2404 20.3498 21.1741 20.2587 21.0625 20.1962C20.3874 19.7022 19.7247 19.1971 19.0743 18.6809C19.116 18.6639 19.1326 18.6308 19.124 18.5815Z"
        fill="#3E4854" />
    <path fill-rule="evenodd" clip-rule="evenodd"
        d="M16.4898 19.8232C16.4893 19.8986 16.4562 19.9566 16.3904 19.9971C16.4018 20.017 16.4184 20.0252 16.4401 20.022C16.2728 20.1729 16.1071 20.3219 15.9431 20.4691C15.9099 20.4608 15.8768 20.4526 15.8437 20.4443C15.6926 20.1502 15.4607 19.9929 15.1478 19.9723C15.2986 19.9906 15.4311 19.9575 15.5455 19.8729C15.6403 20.0508 15.7728 20.1998 15.9431 20.3201C16.1263 20.1534 16.3086 19.9877 16.4898 19.8232Z"
        fill="#3B4555" />
    <path fill-rule="evenodd" clip-rule="evenodd"
        d="M22.4543 20.3699C22.4713 20.4115 22.5044 20.4281 22.5537 20.4196C22.5205 20.4527 22.4874 20.4858 22.4543 20.5189C22.2403 20.3621 22.025 20.2047 21.8081 20.0469C21.775 20.0138 21.7419 20.0138 21.7087 20.0469C21.5168 20.2967 21.3345 20.5534 21.162 20.817C21.3105 20.9897 21.4762 21.1388 21.659 21.2642C21.6259 21.2973 21.5928 21.3304 21.5596 21.3635C21.5442 21.2818 21.4945 21.2322 21.4105 21.2145C21.2943 21.1069 21.1701 21.0075 21.0377 20.9164C21.0315 20.7308 21.106 20.5818 21.2614 20.4692C21.3289 20.3697 21.3952 20.2704 21.4602 20.1711C21.5169 20.0422 21.608 19.9428 21.7336 19.873C21.9682 20.0501 22.2084 20.2158 22.4543 20.3699Z"
        fill="#2C4156" />
    <path fill-rule="evenodd" clip-rule="evenodd"
        d="M22.4542 20.5188C22.9388 20.919 23.4358 21.3082 23.9453 21.6864C23.7653 21.9491 23.5665 22.1975 23.3488 22.4316C23.2351 22.4524 23.1357 22.4192 23.0506 22.3322C22.5941 21.967 22.1301 21.6109 21.6589 21.2641C21.476 21.1387 21.3104 20.9896 21.1619 20.8169C21.3344 20.5533 21.5167 20.2966 21.7086 20.0468C21.7418 20.0137 21.7749 20.0137 21.808 20.0468C22.0249 20.2046 22.2402 20.362 22.4542 20.5188Z"
        fill="#B4DCF0" />
    <path fill-rule="evenodd" clip-rule="evenodd"
        d="M21.4104 21.2144C21.4944 21.232 21.5441 21.2817 21.5595 21.3634C21.543 21.3634 21.5264 21.3634 21.5098 21.3634C17.4258 21.38 13.3501 21.3634 9.28271 21.3137C13.3422 21.3467 17.3848 21.3136 21.4104 21.2144Z"
        fill="#C5CFD9" />
    <path fill-rule="evenodd" clip-rule="evenodd"
        d="M21.659 21.2642C21.6628 21.3263 21.6959 21.3677 21.7584 21.3884C21.7307 21.4074 21.7142 21.4323 21.7087 21.4629C17.7324 21.4629 13.7561 21.4629 9.77979 21.4629C13.6898 21.4298 17.5998 21.3967 21.5099 21.3635C21.5264 21.3635 21.543 21.3635 21.5596 21.3635C21.5927 21.3304 21.6258 21.2973 21.659 21.2642Z"
        fill="#0D3756" />
    <path fill-rule="evenodd" clip-rule="evenodd"
        d="M8.23901 15.4512C8.43286 15.4974 8.63167 15.5139 8.83546 15.5009C8.90171 15.5009 8.96802 15.5009 9.03427 15.5009C9.01777 17.4469 9.03432 19.3846 9.08398 21.3137C9.13999 21.3446 9.1897 21.386 9.23309 21.4379C9.4146 21.4627 9.59682 21.471 9.77983 21.4628C13.7561 21.4628 17.7324 21.4628 21.7087 21.4628C22.1539 21.7753 22.5847 22.1065 23.001 22.4564C22.7849 22.4654 22.6192 22.3743 22.504 22.1832C22.3586 22.1492 22.2426 22.0747 22.156 21.9596C22.1664 21.9305 22.183 21.9057 22.2057 21.8851C22.0177 21.8576 21.8852 21.7582 21.8081 21.587C17.5332 21.547 13.2587 21.5553 8.98457 21.6118C8.98457 19.5914 8.98457 17.571 8.98457 15.5505C8.71398 15.5807 8.46546 15.5477 8.23901 15.4512Z"
        fill="#41A8D4" />
    <path fill-rule="evenodd" clip-rule="evenodd"
        d="M9.77979 21.7611C13.7562 21.7445 17.7325 21.7611 21.7087 21.8108C19.7205 21.8273 17.7324 21.8439 15.7442 21.8605C13.7392 21.8605 11.7511 21.8273 9.77979 21.7611Z"
        fill="#39C1E9" />
    <path fill-rule="evenodd" clip-rule="evenodd"
        d="M3.56679 21.3637C3.61033 21.3572 3.64349 21.3737 3.6662 21.4134C3.87535 21.7323 4.05762 22.0636 4.21294 22.407C4.18058 22.4364 4.14743 22.4695 4.11353 22.5064C3.97725 22.3873 3.92754 22.2465 3.96442 22.0841C3.84737 21.9671 3.73141 21.8512 3.6165 21.7363C3.57564 21.6154 3.55904 21.4912 3.56679 21.3637Z"
        fill="#144068" />
    <path fill-rule="evenodd" clip-rule="evenodd"
        d="M9.77979 21.9102C13.7561 21.9102 17.7324 21.9102 21.7087 21.9102C21.7087 21.9598 21.7087 22.0095 21.7087 22.0592C17.7324 22.0592 13.7561 22.0592 9.77979 22.0592C9.77979 22.0095 9.77979 21.9598 9.77979 21.9102Z"
        fill="#40BAF7" />
    <path fill-rule="evenodd" clip-rule="evenodd"
        d="M22.653 15.4019C22.6447 17.1243 22.653 18.8466 22.6779 20.5689C23.0864 20.8945 23.5089 21.2008 23.9453 21.488C23.9831 21.5596 24.0162 21.6341 24.0447 21.7116C23.836 22.0039 23.6206 22.2937 23.3986 22.581C23.3323 22.6141 23.266 22.6141 23.1997 22.581C23.1405 22.5266 23.0741 22.4852 23.0009 22.4568C22.5846 22.1069 22.1538 21.7757 21.7086 21.4631C21.7142 21.4325 21.7307 21.4076 21.7583 21.3886C21.6959 21.3679 21.6628 21.3265 21.6589 21.2644C22.1302 21.6113 22.5941 21.9674 23.0506 22.3326C23.1357 22.4196 23.2351 22.4527 23.3489 22.432C23.5666 22.1979 23.7654 21.9495 23.9453 21.6867C23.4358 21.3085 22.9388 20.9194 22.4542 20.5192C22.4873 20.486 22.5204 20.4529 22.5536 20.4198C22.5536 18.8465 22.5536 17.2733 22.5536 15.7C22.5868 15.6006 22.6199 15.5012 22.653 15.4019Z"
        fill="#1C486B" />
    <path fill-rule="evenodd" clip-rule="evenodd"
        d="M5.00818 23.4502C5.31445 23.7647 5.61267 24.0876 5.90284 24.419C6.06826 24.4925 6.20077 24.6001 6.30047 24.7419C6.49884 24.9385 6.69766 25.1373 6.89692 25.3381C6.71684 25.2593 6.53463 25.1765 6.35018 25.0897C6.254 24.9134 6.14634 24.7478 6.0271 24.5929C5.95971 24.5492 5.88515 24.5326 5.80344 24.5432C5.81084 24.4909 5.80259 24.4413 5.77859 24.3942C5.67426 24.3462 5.58315 24.2799 5.50522 24.1954C5.36778 24.0692 5.26838 23.9201 5.20699 23.7483C5.14074 23.7483 5.07443 23.7483 5.00818 23.7483C5.00818 23.6489 5.00818 23.5496 5.00818 23.4502Z"
        fill="#103A64" />
    <path fill-rule="evenodd" clip-rule="evenodd"
        d="M6.30054 24.7422C6.44473 24.8548 6.59384 24.9293 6.74787 24.9658C6.81413 24.9989 6.81413 25.032 6.74787 25.0651C6.79757 25.1148 6.84728 25.1645 6.89698 25.2142C7.14033 25.1342 7.23974 25.2253 7.1952 25.4874C7.26146 25.4874 7.32776 25.4874 7.39402 25.4874C7.39402 25.5371 7.39402 25.5868 7.39402 25.6365C7.21533 25.5569 7.04962 25.4575 6.89698 25.3384C6.69772 25.1375 6.4989 24.9388 6.30054 24.7422Z"
        fill="#49A9D9" />
    <path fill-rule="evenodd" clip-rule="evenodd"
        d="M14.5513 28.2695C14.7955 28.1712 15.0606 28.105 15.3465 28.0708C16.6736 28.0156 17.9991 28.0488 19.3228 28.1701C17.7323 28.2099 16.1418 28.243 14.5513 28.2695Z"
        fill="#41BBF4" />
    <path fill-rule="evenodd" clip-rule="evenodd"
        d="M10.3762 27.375C10.6973 27.5215 11.0287 27.6374 11.3703 27.7228C11.4827 27.81 11.6152 27.868 11.7679 27.8967C12.3109 28.0433 12.8576 28.1675 13.4081 28.2693C13.5079 28.3479 13.6239 28.3976 13.7561 28.4183C13.3936 28.4674 13.0291 28.5006 12.6626 28.5177C12.3675 28.5181 12.0859 28.4602 11.8176 28.3438C12.0659 28.3479 12.3144 28.3479 12.5632 28.3438C12.6512 28.3172 12.6678 28.2758 12.6129 28.2196C12.3389 28.1269 12.0573 28.0607 11.7679 28.0209C11.6796 27.9491 11.5801 27.8994 11.4697 27.8718C11.4127 27.8876 11.3712 27.9207 11.3454 27.9712C11.1949 27.8378 11.0292 27.7219 10.8484 27.6234C10.805 27.6351 10.7636 27.6517 10.7241 27.6731C10.6248 27.582 10.5088 27.5323 10.3762 27.524C10.3762 27.4744 10.3762 27.4247 10.3762 27.375Z"
        fill="#19355B" />
    <path fill-rule="evenodd" clip-rule="evenodd"
        d="M11.3702 27.723C11.9481 27.7078 12.5031 27.8238 13.0353 28.0708C13.1284 28.0426 13.2195 28.0094 13.3087 27.9714C13.4356 28.0928 13.5847 28.1757 13.756 28.2198C14.019 28.2693 14.2841 28.2858 14.5513 28.2695C16.2736 28.3603 18.0132 28.4018 19.7702 28.3937C20.0414 28.432 20.2899 28.5065 20.5157 28.6173C20.1181 28.5841 19.7205 28.5511 19.3228 28.5179C19.1903 28.5179 19.0578 28.5179 18.9252 28.5179C17.6082 28.4766 16.2828 28.4517 14.9489 28.4434C14.4338 28.3962 13.9202 28.3382 13.4081 28.2695C12.8576 28.1677 12.3108 28.0435 11.7679 27.8969C11.6152 27.8682 11.4826 27.8102 11.3702 27.723Z"
        fill="#48AED9" />
    <path fill-rule="evenodd" clip-rule="evenodd"
        d="M13.4082 28.2695C13.9203 28.3383 14.4339 28.3962 14.949 28.4434C16.2829 28.4518 17.6083 28.4766 18.9253 28.518C17.3844 28.5263 15.8436 28.518 14.3029 28.4931C14.1232 28.4466 13.941 28.4218 13.7561 28.4186C13.624 28.3979 13.508 28.3482 13.4082 28.2695Z"
        fill="#0B3969" />
    <path fill-rule="evenodd" clip-rule="evenodd"
        d="M19.3229 28.5181C19.7205 28.5512 20.1181 28.5843 20.5158 28.6174C21.3954 28.7396 22.2735 28.9051 23.1501 29.1143C23.7268 29.2787 24.3067 29.4443 24.8897 29.6111C24.8897 29.6276 24.8897 29.6442 24.8897 29.6608C24.8242 29.6767 24.7579 29.6933 24.6909 29.7105C24.4868 29.6499 24.288 29.5754 24.0944 29.4869C23.9296 29.4621 23.7639 29.4538 23.5974 29.462C23.5974 29.4124 23.5974 29.3627 23.5974 29.313C22.6885 29.1975 21.7938 29.0236 20.9134 28.7913C20.4492 28.7357 19.9853 28.6777 19.5217 28.6174C19.4306 28.6132 19.3643 28.5801 19.3229 28.5181Z"
        fill="#143863" />
    <path fill-rule="evenodd" clip-rule="evenodd"
        d="M23.15 29.1143C23.7226 29.177 24.2859 29.2847 24.8399 29.4372C24.8816 29.4874 24.8981 29.5454 24.8897 29.6111C24.3067 29.4443 23.7268 29.2787 23.15 29.1143Z"
        fill="#48A9DA" />
    <path fill-rule="evenodd" clip-rule="evenodd"
        d="M26.5796 30.2568C26.8195 30.2762 27.0514 30.3259 27.2754 30.4059C27.2754 30.4556 27.2754 30.5052 27.2754 30.5549C27.4433 30.5777 27.609 30.6109 27.7725 30.6543C27.7889 30.7448 27.8221 30.8276 27.8719 30.9027C27.4238 30.7119 26.993 30.4966 26.5796 30.2568Z"
        fill="#47A7D5" />
</svg>