<svg width="32" height="32" viewBox="0 0 33 32" fill="none" xmlns="http://www.w3.org/2000/svg">
    <path fill-rule="evenodd" clip-rule="evenodd"
        d="M25.2044 0H3.20674C1.53558 0 0.180176 1.52656 0.180176 3.41041V19.1134C0.180176 20.9965 1.53492 22.5238 3.20674 22.5238H3.96389V26.7394C3.96389 27.6098 4.59007 28.3154 5.3625 28.3154C5.73077 28.3154 6.08441 28.1521 6.34565 27.86L11.1364 22.5231H25.205C26.8762 22.5231 28.2316 20.9965 28.2316 19.1127V3.41041C28.2309 1.52656 26.8762 0 25.2044 0ZM21.5809 9.41701C21.3529 9.41701 21.1348 9.36907 20.9347 9.28143L18.0232 12.3158C18.0631 12.4836 18.0843 12.6596 18.0843 12.8409C18.0843 13.957 17.2813 14.8611 16.2915 14.8611C15.3011 14.8611 14.4987 13.9562 14.4987 12.8409C14.4987 12.7428 14.5047 12.6461 14.5167 12.5518L13.0921 11.4342C12.8023 11.6611 12.45 11.7945 12.0697 11.7945C11.7992 11.7945 11.5433 11.7271 11.3133 11.6065L8.50739 14.53C8.58251 14.7532 8.62372 14.9944 8.62372 15.2476C8.62372 16.3637 7.82072 17.2678 6.83092 17.2678C5.84045 17.2678 5.03811 16.3629 5.03811 15.2476C5.03811 14.1323 5.84112 13.2274 6.83092 13.2274C7.08884 13.2274 7.33413 13.2888 7.55549 13.3997L10.3806 10.4552C10.3128 10.2425 10.2763 10.0132 10.2763 9.7743C10.2763 8.65822 11.0793 7.75413 12.0691 7.75413C13.0589 7.75413 13.8619 8.65897 13.8619 9.7743C13.8619 9.88217 13.8546 9.98778 13.84 10.0911L15.2492 11.196C15.543 10.9593 15.9026 10.82 16.2909 10.82C16.6106 10.82 16.9111 10.9143 17.171 11.0799L19.935 8.19906C19.8399 7.95262 19.7874 7.68147 19.7874 7.39533C19.7874 6.27925 20.5904 5.37515 21.5802 5.37515C22.57 5.37515 23.373 6.28 23.373 7.39533C23.3737 8.51216 22.5707 9.41701 21.5809 9.41701Z"
        fill="#6A3CE9" />
    <path fill-rule="evenodd" clip-rule="evenodd"
        d="M21.9809 27.1851L26.1242 31.4622C26.4619 31.8105 26.8947 32 27.3493 32C27.3766 32 27.4039 31.9992 27.4311 31.9977C27.9157 31.9738 28.3637 31.7386 28.6915 31.3356C29.0139 30.9386 29.1834 30.424 29.1674 29.8862L29.0883 27.1402C30.8359 26.8443 32.18 25.1417 32.18 23.0916V11.4904C32.18 9.47467 30.8804 7.79606 29.1761 7.45898V9.19677C30.0442 9.50013 30.677 10.4132 30.677 11.4904V23.0916C30.677 24.4151 29.7218 25.4915 28.5472 25.4915H27.5375L27.6658 29.9409C27.6684 30.0337 27.6392 30.1229 27.5833 30.191C27.5069 30.2854 27.4138 30.3034 27.3653 30.3056C27.3168 30.3079 27.223 30.2989 27.1393 30.2128L22.5645 25.4908H11.7665C11.2154 25.4908 10.7122 25.2533 10.3339 24.8653L9.26172 26.0518C9.91383 26.7529 10.7959 27.1844 11.7665 27.1844H21.9809V27.1851Z"
        fill="#6A3CE9" />
</svg>