<svg width="32" height="32" viewBox="0 0 33 33" fill="none" xmlns="http://www.w3.org/2000/svg">
    <path fill-rule="evenodd" clip-rule="evenodd"
        d="M24.8507 3.13249C23.4002 6.45316 22.513 9.96325 22.1894 13.6628C21.8638 14.1927 21.7159 14.7778 21.7458 15.4178C21.3423 16.0842 20.9726 16.8154 20.6369 17.6116C20.3227 17.2253 19.9531 16.9328 19.528 16.7341C18.6409 15.7103 17.7537 14.6865 16.8666 13.6628C16.6046 13.3769 16.3089 13.0844 15.9795 12.7852C17.5501 9.65669 18.1415 6.43912 17.7537 3.13249C19.3017 2.80034 20.7803 2.36158 22.1894 1.8162C23.0765 1.66996 23.9636 1.52368 24.8507 1.37744C24.8507 1.96244 24.8507 2.54749 24.8507 3.13249Z"
        fill="#0966B0" />
    <path fill-rule="evenodd" clip-rule="evenodd"
        d="M13.7618 0.5C14.6489 0.5 15.536 0.5 16.4231 0.5C18.1974 0.792522 19.9716 1.085 21.7459 1.37752C21.7459 1.67004 21.8937 1.81628 22.1895 1.81628C20.7804 2.36166 19.3018 2.80043 17.7538 3.13257C14.6139 3.69546 11.509 4.42674 8.43901 5.32637C9.7697 6.7889 11.1004 8.25147 12.4311 9.71399C8.72542 13.6721 4.88119 17.4747 0.898445 21.1218C0.491254 18.3686 0.343415 15.5898 0.454882 12.7853C1.83356 8.29376 4.49494 4.78367 8.43901 2.25505C10.2528 1.66333 12.0271 1.07833 13.7618 0.5Z"
        fill="#454649" />
    <path fill-rule="evenodd" clip-rule="evenodd"
        d="M28.8429 7.52002C30.4672 8.8249 31.2067 10.4337 31.0607 12.3464C30.1736 13.0777 29.2865 13.8089 28.3994 14.5402C26.1691 14.3132 24.0992 14.8982 22.1895 16.2952C21.8357 16.0948 21.6879 15.8023 21.7459 15.4177C21.716 14.7777 21.8639 14.1927 22.1895 13.6627C24.4073 11.6151 26.6251 9.56759 28.8429 7.52002Z"
        fill="#F5F5F5" />
    <path fill-rule="evenodd" clip-rule="evenodd"
        d="M24.8508 3.13232C24.9987 3.13232 25.1466 3.13232 25.2944 3.13232C25.7097 3.77923 26.3011 4.218 27.0686 4.44861C27.3644 5.03361 27.8079 5.47237 28.3993 5.76489C29.1259 6.29342 29.2736 6.87842 28.8429 7.51994C26.6251 9.56751 24.4073 11.615 22.1895 13.6626C22.5131 9.96309 23.4002 6.453 24.8508 3.13232Z"
        fill="#313033" />
    <path fill-rule="evenodd" clip-rule="evenodd"
        d="M17.7538 3.13232C18.1416 6.43896 17.5502 9.65653 15.9796 12.7851C16.309 13.0842 16.6047 13.3767 16.8667 13.6626C15.4188 14.362 14.236 15.3858 13.3182 16.7339C12.7804 16.4137 12.3369 15.9749 11.9875 15.4176C11.3106 16.6502 10.8671 17.9664 10.6568 19.3665C10.3611 19.5127 10.0654 19.659 9.76969 19.8053C7.01539 20.8746 4.20617 21.6059 1.342 21.9991C1.19416 21.9991 1.04628 21.9991 0.898438 21.9991C0.898438 21.7065 0.898438 21.4141 0.898438 21.1215C4.88119 17.4744 8.72541 13.6718 12.4311 9.71374C11.1004 8.25122 9.76969 6.78865 8.439 5.32613C11.509 4.42649 14.6139 3.69521 17.7538 3.13232Z"
        fill="#077BC2" />
    <path fill-rule="evenodd" clip-rule="evenodd"
        d="M31.0608 12.3467C31.7461 12.6668 32.1156 13.2518 32.1697 14.1017C32.3911 16.1441 32.4651 18.1916 32.3915 20.2444C30.3214 26.0944 26.3295 30.0432 20.4153 32.0909C20.2675 32.0909 20.1196 32.0909 19.9718 32.0909C16.8244 32.7565 13.7195 32.61 10.6569 31.6522C10.5091 31.3595 10.3612 31.0673 10.2134 30.7747C11.4875 30.6422 12.6704 30.3495 13.7619 29.8971C14.4089 29.9265 15.0004 29.7804 15.5361 29.4584C18.486 29.1666 21.2952 28.4356 23.9638 27.2646C22.6917 25.9342 21.5088 24.5451 20.4153 23.0963C21.8381 21.3262 23.3167 19.6443 24.8509 18.0506C26.1816 17.0268 27.3645 15.8568 28.3994 14.5405C29.2866 13.8092 30.1737 13.078 31.0608 12.3467Z"
        fill="#282425" />
    <path fill-rule="evenodd" clip-rule="evenodd"
        d="M16.8666 13.6626C17.7537 14.6864 18.6409 15.7102 19.528 16.7339C18.4624 17.791 17.2795 18.6685 15.9795 19.3665C15.2402 18.3427 14.3531 17.4652 13.3181 16.7339C14.2359 15.3858 15.4187 14.362 16.8666 13.6626Z"
        fill="#3D3E41" />
    <path fill-rule="evenodd" clip-rule="evenodd"
        d="M28.3993 14.5403C27.3643 15.8565 26.1815 17.0266 24.8508 18.0504C24.3016 17.65 23.7102 17.5769 23.0765 17.831C18.693 20.4916 16.1794 24.3672 15.536 29.4581C15.0002 29.7802 14.4087 29.9263 13.7617 29.8969C14.9583 27.009 15.9932 24.0109 16.8667 20.9023C16.7062 20.273 16.4105 19.7611 15.9795 19.3666C17.2796 18.6687 18.4624 17.7911 19.528 16.7341C19.9531 16.9327 20.3228 17.2253 20.6369 17.6116C20.9726 16.8154 21.3423 16.0842 21.7458 15.4178C21.6878 15.8023 21.8357 16.0948 22.1894 16.2953C24.0991 14.8983 26.1691 14.3133 28.3993 14.5403Z"
        fill="#E3E4E6" />
    <path fill-rule="evenodd" clip-rule="evenodd"
        d="M13.3181 16.7343C14.3531 17.4655 15.2402 18.3431 15.9795 19.3668C16.4104 19.7613 16.7061 20.2732 16.8666 20.9025C15.9932 24.0111 14.9582 27.0092 13.7617 29.8971C12.6702 30.3495 11.4873 30.6421 10.2132 30.7746C9.44204 31.1844 8.70276 31.1844 7.99536 30.7746C8.35438 30.0853 8.50222 29.3539 8.43892 28.5808C9.22572 25.5196 9.965 22.4481 10.6567 19.3668C10.867 17.9668 11.3105 16.6505 11.9874 15.418C12.3368 15.9752 12.7803 16.414 13.3181 16.7343Z"
        fill="#F7F7F7" />
    <path fill-rule="evenodd" clip-rule="evenodd"
        d="M9.76973 19.8057C7.83562 22.0114 5.76565 24.059 3.55985 25.9483C3.41201 25.9483 3.26413 25.9483 3.11629 25.9483C3.14867 25.2783 2.85295 24.8396 2.22917 24.632C1.72803 23.8357 1.43235 22.9583 1.34204 21.9995C4.20621 21.6063 7.01543 20.8751 9.76973 19.8057Z"
        fill="#1263A9" />
    <path fill-rule="evenodd" clip-rule="evenodd"
        d="M24.8509 18.0505C23.3167 19.6442 21.8381 21.3261 20.4153 23.0962C21.5088 24.545 22.6917 25.9341 23.9638 27.2644C21.2952 28.4355 18.486 29.1665 15.5361 29.4583C16.1796 24.3673 18.6931 20.4917 23.0767 17.8311C23.7103 17.577 24.3017 17.6501 24.8509 18.0505Z"
        fill="#D2D3D4" />
    <path fill-rule="evenodd" clip-rule="evenodd"
        d="M10.6568 19.3667C9.96508 22.4479 9.2258 25.5194 8.439 28.5807C8.14328 29.0194 7.8476 29.4582 7.55188 29.897C5.77763 29.0194 4.44694 27.7032 3.55981 25.9481C5.76561 24.0588 7.83558 22.0112 9.76969 19.8055C10.0654 19.6592 10.3611 19.5129 10.6568 19.3667Z"
        fill="#2C2A2B" />
</svg>