<svg width="32" height="32" viewBox="0 0 32 32" fill="none" xmlns="http://www.w3.org/2000/svg">
    <path fill-rule="evenodd" clip-rule="evenodd"
        d="M17.2047 1.02719C19.955 1.46816 21.7401 2.63356 20.0916 5.66781C23.0313 7.32666 25.1943 10.298 26.5902 13.3322V13.3426C27.3357 12.2193 28.5846 9.93048 28.1963 7.45266L28.1859 7.44216C25.6561 3.75697 21.6562 1.38416 17.2047 1.02719Z"
        fill="#1A5FC4" />
    <path fill-rule="evenodd" clip-rule="evenodd"
        d="M11.4516 13.8466C7.82957 16.2299 1.45727 21.1015 4.9738 25.9941C6.84277 28.01 9.33097 29.3538 12.249 29.3013C10.9059 25.8786 15.1887 22.9809 17.5195 21.007L17.5091 20.9755C16.7221 17.6473 13.7928 15.0435 11.5044 13.8781L11.4516 13.8466Z"
        fill="#1A5FC4" />
    <path fill-rule="evenodd" clip-rule="evenodd"
        d="M30.4432 12.6497C30.118 15.0225 28.774 16.9753 27.9446 17.9832C28.3649 21.2695 27.6194 24.8392 24.5007 28.1674C25.7401 27.275 26.8843 26.1831 27.84 24.9021C30.5591 21.2695 31.3669 16.7759 30.4432 12.6497Z"
        fill="#1A5FC4" />
    <path fill-rule="evenodd" clip-rule="evenodd"
        d="M31.084 10.5919C28.1444 2.27658 19.0002 -2.04906 10.675 0.953695C2.33858 3.93544 -2.02898 13.1012 0.921932 21.4165C3.86074 29.7318 12.9946 34.0364 21.331 31.0546C29.6562 28.0625 34.0228 18.8861 31.084 10.5919ZM17.152 1.02719C21.6242 1.37366 25.6458 3.74646 28.1859 7.44215C29.2782 9.04848 30.0341 10.8124 30.4432 12.6497C31.3565 16.7759 30.5591 21.259 27.8399 24.9022C26.8739 26.1936 25.74 27.275 24.5007 28.1674C27.6194 24.8392 28.3649 21.259 27.9446 17.9832C27.7344 16.3349 27.2311 14.7601 26.5798 13.3322C25.1943 10.298 23.0209 7.33715 20.0812 5.6678C15.3254 2.86453 9.44602 2.38157 4.94268 5.91978C8.12365 2.37107 12.6694 0.670217 17.152 1.02719ZM16.4696 26.8971C15.3989 28.6609 13.8343 29.2593 12.2707 29.3013C6.80041 29.3958 2.87393 24.6502 1.60431 19.6736C1.51955 17.9728 1.80323 12.1878 9.58268 13.1747C10.0869 13.2272 10.7693 13.4896 11.5044 13.8781C13.7928 15.0436 16.7109 17.6473 17.5091 20.9755C17.9398 22.7604 17.7504 24.7762 16.4696 26.8971Z"
        fill="#3C95FB" />
</svg>