<svg width="134" height="39" viewBox="0 0 134 39" fill="none" xmlns="http://www.w3.org/2000/svg">
<g id="Group">
<g id="Logo">
<g id="Group_2">
<path id="Vector" d="M107.055 24.1112L58.2213 29.2385L59.2251 38.8114L108.059 33.6841L107.055 24.1112Z" fill="#FFE900"/>
<g id="Group_3">
<path id="Vector_2" d="M0.283679 0.680672H5.19348V20.3652H16.283V24.7278H0.283679V0.680672Z" fill="black"/>
<path id="Vector_3" d="M45.137 6.6585C48.2612 6.6585 50.6297 8.75403 51.6596 11.8459V7.00158H56.2951V22.7352C56.2951 27.9569 52.2096 31.9421 46.8198 31.9421C43.0771 31.9421 40.0901 29.9838 38.5801 27.1678L42.7342 24.9694C43.5585 26.6532 44.9313 27.7181 46.8198 27.7181C49.4982 27.7181 51.661 25.6569 51.661 22.7366V19.336C50.631 22.4278 48.2625 24.5234 45.1384 24.5234C40.7785 24.5234 37.5172 20.6411 37.5172 15.5909C37.5172 10.5408 40.7785 6.6585 45.1384 6.6585H45.137ZM46.9569 20.2966C49.6697 20.2966 51.661 18.2697 51.661 15.5896C51.661 12.9094 49.6697 10.9182 46.9569 10.9182C44.2442 10.9182 42.3214 12.9108 42.3214 15.5896C42.3214 18.2683 44.347 20.2966 46.9569 20.2966Z" fill="black"/>
<path id="Vector_4" d="M59.3233 0.680672H68.3872L72.6442 23.4571L76.9355 0.680672H85.8623V24.7292H81.2268V1.95144L76.9355 24.7278H68.2501L63.9588 1.7799V24.7278H59.3233V0.680672Z" fill="black"/>
<path id="Vector_5" d="M97.1685 6.6585C103.108 6.6585 107.262 11.6057 106.301 17.5149H92.6372C93.2558 19.6105 95.04 21.0871 97.4785 21.0871C99.4012 21.0871 101.014 20.1594 101.873 18.6142L105.684 20.3323C104.138 23.1154 101.187 25.0737 97.3413 25.0737C91.9515 25.0737 87.866 21.0885 87.866 15.8668C87.866 10.6451 91.8829 6.65987 97.1699 6.65987L97.1685 6.6585ZM101.666 13.9757C101.047 11.9831 99.3656 10.6437 97.1685 10.6437C94.9714 10.6437 93.3572 11.9831 92.7058 13.9757H101.667H101.666Z" fill="black"/>
<path id="Vector_6" d="M108.814 0.680672H113.723V24.7292H108.814V0.680672Z" fill="black"/>
<path id="Vector_7" d="M116.411 7.00158H121.047V11.5357C121.974 8.54681 124.24 6.65713 127.158 6.65713C131.141 6.65713 133.715 9.74897 133.715 13.9743V24.7265H129.079V14.7977C129.079 12.4964 127.431 10.8811 125.234 10.8811C122.763 10.8811 121.045 12.4964 121.045 14.7977V24.7265H116.41V7.00158H116.411Z" fill="black"/>
<path id="Vector_8" d="M26.4523 6.6585C21.3821 6.6585 17.2513 10.7508 17.2513 15.8654C17.2513 20.9389 21.3821 25.0723 26.4523 25.0723C31.5637 25.0723 35.6534 20.9389 35.6534 15.8654C35.6534 10.7508 31.5637 6.6585 26.4523 6.6585ZM26.4523 20.98C23.6313 20.98 21.3409 18.6883 21.3409 15.8654C21.3409 13.0425 23.6313 10.7508 26.4523 10.7508C29.2734 10.7508 31.5637 13.0425 31.5637 15.8654C31.5637 18.6883 29.2734 20.98 26.4523 20.98Z" fill="black"/>
</g>
</g>
</g>
</g>
</svg>
