<svg width="32" height="32" viewBox="0 0 32 32" fill="none" xmlns="http://www.w3.org/2000/svg">
    <path
        d="M23.1267 0H8.87332C3.97272 0 0 3.97285 0 8.87361V23.1264C0 28.0271 3.97272 32 8.87332 32H23.1267C28.0273 32 32 28.0271 32 23.1264V8.87361C32 3.97285 28.0273 0 23.1267 0Z"
        fill="#1246FF" />
    <path
        d="M23.1267 0H8.87332C3.97272 0 0 3.97285 0 8.87361V23.1264C0 28.0271 3.97272 32 8.87332 32H23.1267C28.0273 32 32 28.0271 32 23.1264V8.87361C32 3.97285 28.0273 0 23.1267 0Z"
        fill="url(#paint0_linear_4337_1422)" />
    <path fill-rule="evenodd" clip-rule="evenodd"
        d="M21.6373 6.71875H10.62C10.348 6.71875 9.83542 6.85406 9.68348 7.07971L5.20588 13.7287C4.98878 14.051 5.0286 14.4817 5.30113 14.7588L15.4091 25.0365C15.7292 25.362 16.2538 25.3624 16.5743 25.0374L26.6975 14.7754C26.9705 14.4986 27.0109 14.0678 26.7941 13.745L22.3161 7.08042C22.1641 6.85435 21.9097 6.71875 21.6373 6.71875ZM11.5319 12.9975C11.8798 12.9177 12.2265 13.1351 12.3063 13.483L12.3966 13.877C13.0425 16.6945 16.7299 17.3993 18.3694 15.0187C18.5718 14.7247 18.9742 14.6505 19.2682 14.853C19.5621 15.0555 19.6363 15.4579 19.4338 15.7518C17.1563 19.0588 12.034 18.0798 11.1367 14.1659L11.0464 13.7718C10.9666 13.4239 11.184 13.0772 11.5319 12.9975ZM19.6219 14.1962C19.9931 14.1962 20.294 13.8954 20.294 13.5242C20.294 13.153 19.9931 12.8521 19.6219 12.8521C19.2506 12.8521 18.9497 13.153 18.9497 13.5242C18.9497 13.8954 19.2506 14.1962 19.6219 14.1962Z"
        fill="white" />
    <path
        d="M10.6199 6.71961V6.75369H21.6372V6.71961V6.68555H10.6199V6.71961ZM9.68338 7.08058L9.71158 7.09961C9.7458 7.04886 9.80174 7.00119 9.87314 6.95816C9.94422 6.9153 10.0287 6.87818 10.1176 6.84771C10.296 6.78665 10.4884 6.75369 10.6199 6.75369V6.71961V6.68555C10.4795 6.68555 10.2796 6.72024 10.0956 6.78324C10.0034 6.81481 9.91425 6.85381 9.83796 6.8998C9.76199 6.94561 9.69692 6.99947 9.65509 7.06155L9.68338 7.08058ZM5.20577 13.7296L5.23403 13.7486L9.71158 7.09961L9.68338 7.08058L9.65509 7.06155L5.17751 13.7105L5.20577 13.7296ZM5.30102 14.7597L5.32531 14.7358C5.06414 14.4702 5.02598 14.0575 5.23403 13.7486L5.20577 13.7296L5.17751 13.7105C4.95136 14.0463 4.99284 14.4949 5.27673 14.7835L5.30102 14.7597ZM15.409 25.0374L15.4333 25.0135L5.32531 14.7358L5.30102 14.7597L5.27673 14.7835L15.3847 25.0613L15.409 25.0374ZM16.5742 25.0383L16.5499 25.0144C16.2428 25.3258 15.7401 25.3254 15.4333 25.0135L15.409 25.0374L15.3847 25.0613C15.7181 25.4003 16.2646 25.4007 16.5984 25.0622L16.5742 25.0383ZM26.6974 14.7763L26.6731 14.7523L16.5499 25.0144L16.5742 25.0383L16.5984 25.0622L26.7216 14.8001L26.6974 14.7763ZM26.794 13.7459L26.7657 13.7649C26.9735 14.0742 26.9348 14.487 26.6731 14.7523L26.6974 14.7763L26.7216 14.8001C27.0061 14.5118 27.0482 14.0631 26.8223 13.7269L26.794 13.7459ZM22.316 7.08129L22.2877 7.10029L26.7657 13.7649L26.794 13.7459L26.8223 13.7269L22.3443 7.06228L22.316 7.08129ZM21.6372 6.71961V6.75369C21.8982 6.75369 22.1421 6.88364 22.2877 7.10029L22.316 7.08129L22.3443 7.06228C22.186 6.8268 21.9209 6.68555 21.6372 6.68555V6.71961ZM12.3062 13.4839L12.3393 13.4762C12.2553 13.11 11.8904 12.8812 11.5242 12.9651L11.5318 12.9984L11.5394 13.0315C11.869 12.956 12.1974 13.1619 12.2729 13.4915L12.3062 13.4839ZM12.3965 13.8779L12.4296 13.8703L12.3393 13.4762L12.3062 13.4839L12.2729 13.4915L12.3633 13.8855L12.3965 13.8779ZM18.3693 15.0196L18.3411 15.0002C16.7185 17.3564 13.069 16.6588 12.4296 13.8703L12.3965 13.8779L12.3633 13.8855C13.0158 16.7318 16.741 17.4439 18.3973 15.0389L18.3693 15.0196ZM19.2681 14.8538L19.2874 14.8258C18.9779 14.6127 18.5543 14.6907 18.3411 15.0002L18.3693 15.0196L18.3973 15.0389C18.5891 14.7604 18.9703 14.6902 19.2488 14.882L19.2681 14.8538ZM19.4337 15.7527L19.4618 15.772C19.6749 15.4626 19.5968 15.0389 19.2874 14.8258L19.2681 14.8538L19.2488 14.882C19.5272 15.0737 19.5974 15.4549 19.4057 15.7334L19.4337 15.7527ZM11.1366 14.1667L11.1034 14.1743C12.0073 18.1171 17.1675 19.1034 19.4618 15.772L19.4337 15.7527L19.4057 15.7334C17.1449 19.0159 12.0605 18.0441 11.1698 14.1591L11.1366 14.1667ZM11.0463 13.7727L11.0131 13.7803L11.1034 14.1743L11.1366 14.1667L11.1698 14.1591L11.0795 13.7651L11.0463 13.7727ZM11.5318 12.9984L11.5242 12.9651C11.158 13.0491 10.9291 13.4141 11.0131 13.7803L11.0463 13.7727L11.0795 13.7651C11.0039 13.4355 11.2099 13.1071 11.5394 13.0315L11.5318 12.9984ZM20.2939 13.525H20.2598C20.2598 13.8774 19.9742 14.163 19.6218 14.163V14.1971V14.2312C20.0117 14.2312 20.328 13.915 20.328 13.525H20.2939ZM19.6218 12.8529V12.887C19.9742 12.887 20.2598 13.1726 20.2598 13.525H20.2939H20.328C20.328 13.135 20.0117 12.8189 19.6218 12.8189V12.8529ZM18.9496 13.525H18.9837C18.9837 13.1726 19.2694 12.887 19.6218 12.887V12.8529V12.8189C19.2318 12.8189 18.9156 13.135 18.9156 13.525H18.9496ZM19.6218 14.1971V14.163C19.2694 14.163 18.9837 13.8774 18.9837 13.525H18.9496H18.9156C18.9156 13.915 19.2318 14.2312 19.6218 14.2312V14.1971Z"
        fill="#1246FF" />
    <defs>
        <linearGradient id="paint0_linear_4337_1422" x1="16" y1="0" x2="16" y2="32"
            gradientUnits="userSpaceOnUse">
            <stop stop-color="white" stop-opacity="0" />
            <stop offset="1" stop-color="white" stop-opacity="0.4" />
        </linearGradient>
    </defs>
</svg>