<svg width="32" height="32" viewBox="0 0 33 33" fill="none" xmlns="http://www.w3.org/2000/svg">
    <path opacity="0.965" fill-rule="evenodd" clip-rule="evenodd"
        d="M14.4097 0.5C26.7186 0.688041 32.7463 6.94289 32.4923 19.2641C29.7592 29.3261 23.2018 33.6514 12.82 32.2393C5.24798 29.7437 1.14144 24.4874 0.5 16.4695C1.49872 7.88429 6.13541 2.56126 14.4097 0.5Z"
        fill="#E3176D" />
    <path fill-rule="evenodd" clip-rule="evenodd"
        d="M19.9735 10.4804C21.9694 10.3506 23.4266 11.1491 24.3452 12.8758C24.1465 13.0088 23.9477 13.1421 23.749 13.2751C22.7618 12.0063 21.5034 11.5408 19.9735 11.8777C18.3839 13.0754 18.3839 14.2732 19.9735 15.4709C21.7673 15.8909 23.2907 16.7556 24.5439 18.0659C24.789 22.6044 22.7356 24.1351 18.3839 22.6571C17.7802 22.1178 17.2503 21.5189 16.7942 20.8606C17.1232 20.4953 17.5206 20.2294 17.9864 20.0621C19.3961 22.2767 21.052 22.5429 22.9542 20.8606C23.2192 20.195 23.2192 19.5299 22.9542 18.8644C21.5541 17.9058 20.0307 17.174 18.3839 16.6686C16.48 13.9689 17.0099 11.9065 19.9735 10.4804Z"
        fill="#EAEAE9" />
    <path fill-rule="evenodd" clip-rule="evenodd"
        d="M9.64062 10.6807C10.038 10.6807 10.4355 10.6807 10.8329 10.6807C10.8329 14.2738 10.8329 17.8669 10.8329 21.4601C12.4226 21.4601 14.0122 21.4601 15.6019 21.4601C15.6019 21.8593 15.6019 22.2585 15.6019 22.6578C13.6148 22.6578 11.6277 22.6578 9.64062 22.6578C9.64062 18.6654 9.64062 14.673 9.64062 10.6807Z"
        fill="#FEFEFE" />
</svg>