<svg width="32" height="32" viewBox="0 0 32 32" fill="none" xmlns="http://www.w3.org/2000/svg">
    <g clip-path="url(#clip0_4109_833)">
        <path fill-rule="evenodd" clip-rule="evenodd"
            d="M-0.0710449 -0.0712891C10.5956 -0.0712891 21.2623 -0.0712891 31.929 -0.0712891C31.929 10.5954 31.929 21.262 31.929 31.9287C21.2623 31.9287 10.5956 31.9287 -0.0710449 31.9287C-0.0710449 21.262 -0.0710449 10.5954 -0.0710449 -0.0712891Z"
            fill="#45362F" />
        <path fill-rule="evenodd" clip-rule="evenodd"
            d="M25.6712 10.0265C25.1887 10.3146 24.6671 10.5279 24.1068 10.6665C23.8593 10.8823 23.6224 11.0956 23.3957 11.3065C22.4288 11.4583 21.6229 11.9087 20.9779 12.6576C20.0213 12.97 19.1206 13.3967 18.2757 13.9376C18.1687 14.033 18.1212 14.1515 18.1334 14.2932C17.5455 14.334 17.024 14.5473 16.569 14.9332C16.2504 15.0721 15.9186 15.1432 15.5734 15.1465C14.67 14.7423 13.8167 14.2445 13.0134 13.6532C12.8295 13.5835 12.6399 13.5598 12.4445 13.5821C10.5893 12.4175 8.69305 11.3271 6.75566 10.311C6.65482 10.1824 6.5126 10.135 6.32899 10.1687C6.28159 10.0739 6.23417 9.97911 6.18677 9.88429C6.61093 9.81845 7.0376 9.77105 7.46677 9.74206C7.43783 10.0109 7.53264 10.2243 7.75121 10.3821C8.20007 10.5154 8.60304 10.7287 8.9601 11.0221C9.06576 10.7461 9.04205 10.4853 8.88899 10.2398C8.50193 9.95497 8.12267 9.67053 7.75121 9.38651C7.56159 9.38651 7.37195 9.38651 7.18232 9.38651C7.35498 9.16335 7.59202 9.04483 7.89343 9.03095C8.29604 9.14108 8.6753 9.2833 9.03121 9.45762C9.06015 9.18876 8.96533 8.97543 8.74677 8.81762C8.8617 8.77387 8.9565 8.70276 9.03121 8.60429C9.70206 8.53576 10.3658 8.48835 11.0223 8.46206C12.6197 9.21354 14.1841 10.0432 15.7157 10.951C15.8933 11.0562 16.0355 11.0325 16.1423 10.8798C17.5752 10.1393 18.9974 9.35704 20.409 8.53318C21.088 8.00287 21.8464 7.81325 22.6845 7.96429C23.4905 8.39095 24.2963 8.81762 25.1023 9.24429C25.3816 9.45065 25.5712 9.71139 25.6712 10.0265Z"
            fill="#F9D0D4" />
        <path fill-rule="evenodd" clip-rule="evenodd"
            d="M10.5957 8.03554C10.7654 8.14532 10.9076 8.28754 11.0223 8.46221C10.3658 8.48849 9.70206 8.53591 9.03121 8.60443C8.9565 8.7029 8.8617 8.77401 8.74677 8.81776C8.96533 8.97557 9.06015 9.1889 9.03121 9.45776C8.6753 9.28344 8.29604 9.14122 7.89343 9.03109C7.59202 9.04498 7.35498 9.16349 7.18232 9.38665C7.37195 9.38665 7.56159 9.38665 7.75121 9.38665C8.12267 9.67067 8.50193 9.95511 8.88899 10.24C9.04205 10.4855 9.06576 10.7462 8.9601 11.0222C8.60304 10.7288 8.20007 10.5155 7.75121 10.3822C7.53264 10.2244 7.43783 10.0111 7.46677 9.74221C7.0376 9.77119 6.61093 9.81859 6.18677 9.88443C6.29803 9.60691 6.48765 9.39358 6.75566 9.24443C7.51417 8.81776 8.2727 8.39109 9.03121 7.96443C9.55782 7.88212 10.0793 7.90583 10.5957 8.03554Z"
            fill="#F2D1D2" />
        <path fill-rule="evenodd" clip-rule="evenodd"
            d="M16.1421 10.88C16.0353 11.0327 15.8931 11.0564 15.7155 10.9511C14.1839 10.0433 12.6195 9.21369 11.0221 8.46222C10.9074 8.28756 10.7652 8.14533 10.5955 8.03555C11.0231 8.05474 11.3787 7.91252 11.6621 7.60889C11.7806 7.6326 11.8992 7.65629 12.0177 7.68C12.073 7.91011 12.2626 8.07604 12.5866 8.17778C12.7072 8.44922 12.7546 8.73367 12.7288 9.03111C13.0132 9.03111 13.2977 9.03111 13.5821 9.03111C13.5821 9.22073 13.5821 9.41037 13.5821 9.6C13.8917 9.61224 14.1762 9.70706 14.4355 9.88444C14.5746 9.81664 14.693 9.72184 14.791 9.6C15.0352 9.81165 15.2012 10.0724 15.2888 10.3822C15.4714 10.4795 15.6374 10.4558 15.7866 10.3111C15.8548 10.5434 15.9733 10.733 16.1421 10.88Z"
            fill="#4B3531" />
        <path fill-rule="evenodd" clip-rule="evenodd"
            d="M5.61774 11.3068C5.52509 13.6347 5.6199 15.9103 5.90218 18.1335C5.94274 18.3878 5.89534 18.6249 5.75996 18.8446C5.57523 18.7607 5.45671 18.6185 5.4044 18.4179C5.38064 16.0461 5.30953 13.6758 5.19107 11.3068C5.04912 11.0238 4.9069 10.7394 4.7644 10.4535C5.13422 9.99761 5.13422 9.54724 4.7644 9.10236C4.95403 9.00755 5.14367 9.00755 5.33329 9.10236C5.37832 9.72956 5.40201 10.3696 5.4044 11.0224C5.444 11.1526 5.51511 11.2474 5.61774 11.3068Z"
            fill="#3F392C" />
        <path fill-rule="evenodd" clip-rule="evenodd"
            d="M6.04451 9.88441C5.90414 12.6232 5.85673 15.3729 5.90229 18.1333C5.62 15.9101 5.5252 13.6346 5.61784 11.3066C5.36314 10.735 5.43425 10.2136 5.83118 9.74219C5.88559 9.82126 5.9567 9.86867 6.04451 9.88441Z"
            fill="#572F2A" />
        <path fill-rule="evenodd" clip-rule="evenodd"
            d="M6.04446 9.88428C6.09187 9.88428 6.13928 9.88428 6.18669 9.88428C6.23409 9.9791 6.2815 10.0739 6.32891 10.1687C6.16548 10.2101 6.07066 10.3286 6.04446 10.5243C6.05576 13.0503 6.05576 15.5867 6.04446 18.1332C5.99706 18.1332 5.94964 18.1332 5.90224 18.1332C5.85669 15.3728 5.90409 12.6231 6.04446 9.88428Z"
            fill="#D4717F" />
        <path fill-rule="evenodd" clip-rule="evenodd"
            d="M6.32888 10.1687C6.51249 10.135 6.65471 10.1824 6.75554 10.311C6.75554 10.4532 6.75554 10.5954 6.75554 10.7376C7.7247 10.8808 8.10397 11.4497 7.89332 12.4443C8.26586 12.4061 8.62141 12.4535 8.95999 12.5865C8.99543 12.4266 9.06654 12.2844 9.17332 12.1598C10.1919 12.4014 11.0926 12.8517 11.8755 13.511C12.0595 13.5806 12.2491 13.6043 12.4444 13.5821C12.4203 13.7701 12.4677 13.936 12.5867 14.0798C13.0191 14.1617 13.3984 14.3276 13.7244 14.5776C13.2921 14.7021 12.8655 14.8443 12.4444 15.0043C12.3185 15.1216 12.2711 15.2638 12.3022 15.431C12.8711 15.431 13.44 15.431 14.0089 15.431C14.0089 15.2887 14.0089 15.1465 14.0089 15.0043C14.5409 14.8761 14.8254 15.0657 14.8622 15.5732C14.5879 15.5349 14.3509 15.606 14.1511 15.7865C14.4317 15.8569 14.7161 15.8807 15.0044 15.8576C14.9733 15.6905 15.0206 15.5483 15.1467 15.431C15.3701 15.546 15.6072 15.5935 15.8578 15.5732C15.8578 18.2754 15.8578 20.9776 15.8578 23.6798C15.1624 23.226 14.4038 22.8942 13.5822 22.6843C13.6064 22.4963 13.559 22.3303 13.44 22.1865C12.8783 22.1601 12.4517 21.923 12.16 21.4754C12.567 21.437 12.9463 21.3184 13.2978 21.1198C12.6473 20.5108 11.8888 20.3213 11.0222 20.551C11.2957 20.6659 11.5802 20.737 11.8755 20.7643C12.0202 20.9135 12.0439 21.0794 11.9467 21.2621C11.5556 21.3746 11.1526 21.3746 10.7378 21.2621C10.4823 20.9894 10.1979 20.7287 9.88443 20.4798C9.70051 20.4102 9.51087 20.3864 9.31554 20.4087C9.22073 20.4087 9.12592 20.4087 9.0311 20.4087C9.0311 20.3614 9.0311 20.3139 9.0311 20.2665C9.0311 20.1243 9.0311 19.9821 9.0311 19.8398C8.25009 19.7808 7.6338 19.4253 7.18221 18.7732C6.94517 18.7258 6.70814 18.6783 6.4711 18.631C6.40364 18.385 6.26142 18.2192 6.04443 18.1332C6.05573 15.5867 6.05573 13.0504 6.04443 10.5243C6.07063 10.3286 6.16545 10.2101 6.32888 10.1687Z"
            fill="#F16079" />
        <path fill-rule="evenodd" clip-rule="evenodd"
            d="M25.3866 10.738C24.9967 10.8209 24.6174 10.9631 24.2488 11.1647C24.4685 11.3 24.7056 11.3474 24.9599 11.3069C24.9599 12.0654 24.9599 12.8239 24.9599 13.5824C23.9643 13.5824 22.9688 13.5824 21.9732 13.5824C21.9471 13.1812 22.1366 12.9442 22.5421 12.8713C22.703 12.6474 22.7267 12.4104 22.6132 12.1602C21.9483 12.5182 21.4032 12.9923 20.9777 13.5824C20.168 13.4338 19.4569 13.6471 18.8443 14.2224C18.6119 14.2927 18.3749 14.3163 18.1332 14.2935C18.121 14.1519 18.1685 14.0334 18.2754 13.938C19.1204 13.3971 20.0211 12.9704 20.9777 12.658C21.6226 11.9091 22.4286 11.4587 23.3954 11.3069C23.8292 11.3889 24.1137 11.223 24.2488 10.8091C24.6471 10.6738 25.0263 10.65 25.3866 10.738Z"
            fill="#F4A4AC" />
        <path fill-rule="evenodd" clip-rule="evenodd"
            d="M25.6711 10.0269C25.7589 10.0426 25.83 10.09 25.8845 10.1691C25.9793 12.8239 25.9793 15.4787 25.8845 18.1335C25.6771 18.4834 25.4164 18.7916 25.1022 19.058C24.2879 19.5121 23.482 19.9625 22.6845 20.4091C22.654 20.1753 22.7015 19.9619 22.8267 19.7691C23.1912 19.6156 23.5704 19.5445 23.9645 19.5557C23.9333 19.3886 23.9807 19.2464 24.1067 19.1291C24.3782 19.0085 24.6626 18.961 24.96 18.9869C24.8728 18.4935 25.0626 18.209 25.5289 18.1335C25.5758 15.6435 25.5285 13.1783 25.3867 10.738C25.0264 10.65 24.6473 10.6737 24.2489 10.8091C24.1138 11.223 23.8293 11.3889 23.3956 11.3069C23.6223 11.0959 23.8592 10.8826 24.1067 10.6669C24.667 10.5282 25.1886 10.3149 25.6711 10.0269Z"
            fill="#E6A4AA" />
        <path fill-rule="evenodd" clip-rule="evenodd"
            d="M6.75562 10.311C8.69301 11.3272 10.5893 12.4176 12.4445 13.5821C12.2492 13.6044 12.0595 13.5807 11.8756 13.511C11.0927 12.8518 10.1919 12.4014 9.17339 12.1599C9.06661 12.2845 8.9955 12.4267 8.96006 12.5866C8.62149 12.4536 8.26593 12.4062 7.89339 12.4444C8.10404 11.4498 7.72477 10.8809 6.75562 10.7377C6.75562 10.5955 6.75562 10.4533 6.75562 10.311Z"
            fill="#E6667B" />
        <path fill-rule="evenodd" clip-rule="evenodd"
            d="M25.3866 10.7378C25.5284 13.1781 25.5757 15.6433 25.5288 18.1333C25.0625 18.2089 24.8727 18.4933 24.9599 18.9867C24.6625 18.9608 24.3781 19.0083 24.1066 19.1289C23.9806 19.2462 23.9332 19.3885 23.9644 19.5556C23.5703 19.5443 23.1911 19.6154 22.8266 19.7689C22.7014 19.9618 22.6539 20.1751 22.6844 20.4089C22.637 20.4089 22.5895 20.4089 22.5421 20.4089C22.3005 20.3861 22.0634 20.4098 21.831 20.48C21.425 20.615 21.093 20.8521 20.8355 21.1911C20.2282 21.3695 19.6118 21.5117 18.9866 21.6178C19.0339 21.6652 19.0814 21.7127 19.1288 21.76C18.5645 21.9207 18.2325 22.2763 18.1332 22.8267C17.4483 23.3402 16.6898 23.7196 15.8577 23.9645C15.8577 23.8696 15.8577 23.7749 15.8577 23.68C15.8577 20.9778 15.8577 18.2756 15.8577 15.5733C15.8176 15.3916 15.7227 15.2494 15.5732 15.1467C15.9184 15.1434 16.2502 15.0723 16.5688 14.9333C17.0238 14.5475 17.5453 14.3342 18.1332 14.2933C18.3749 14.3161 18.612 14.2925 18.8444 14.2222C19.4569 13.6469 20.168 13.4336 20.9777 13.5822C21.4032 12.9921 21.9484 12.518 22.6132 12.16C22.7267 12.4102 22.703 12.6472 22.5421 12.8711C22.1367 12.944 21.9471 13.181 21.9732 13.5822C22.9688 13.5822 23.9644 13.5822 24.9599 13.5822C24.9599 12.8237 24.9599 12.0652 24.9599 11.3067C24.7056 11.3472 24.4685 11.2998 24.2488 11.1645C24.6174 10.9629 24.9967 10.8207 25.3866 10.7378Z"
            fill="#F8A1AB" />
        <path fill-rule="evenodd" clip-rule="evenodd"
            d="M12.4445 13.5823C12.6398 13.56 12.8294 13.5837 13.0133 13.6534C13.8167 14.2448 14.6699 14.7426 15.5733 15.1468C15.7228 15.2494 15.8177 15.3917 15.8578 15.5734C15.6072 15.5938 15.3701 15.5463 15.1467 15.4312C15.0207 15.5485 14.9733 15.6908 15.0045 15.8579C14.7162 15.8809 14.4317 15.8572 14.1511 15.7868C14.3509 15.6063 14.5879 15.5352 14.8622 15.5734C14.8254 15.066 14.541 14.8764 14.0089 15.0045C14.0089 15.1468 14.0089 15.289 14.0089 15.4312C13.44 15.4312 12.8711 15.4312 12.3022 15.4312C12.2711 15.2641 12.3185 15.1219 12.4445 15.0045C12.8655 14.8445 13.2921 14.7023 13.7245 14.5779C13.3984 14.3278 13.0192 14.162 12.5867 14.0801C12.4677 13.9363 12.4203 13.7703 12.4445 13.5823Z"
            fill="#E7667A" />
        <path fill-rule="evenodd" clip-rule="evenodd"
            d="M6.04454 18.418C6.86672 19.2811 7.86228 19.8975 9.0312 20.2669C9.0312 20.3142 9.0312 20.3617 9.0312 20.4091C7.9982 20.1535 7.05005 19.7031 6.18676 19.058C6.06157 18.8651 6.01417 18.6518 6.04454 18.418Z"
            fill="#5B2E2C" />
        <path fill-rule="evenodd" clip-rule="evenodd"
            d="M13.5822 22.6842C13.3406 22.707 13.1035 22.6834 12.8711 22.6131C12.1989 22.0882 11.4878 21.6378 10.7378 21.262C11.1526 21.3745 11.5556 21.3745 11.9467 21.262C12.0439 21.0794 12.0202 20.9134 11.8756 20.7642C11.5802 20.7369 11.2958 20.6658 11.0222 20.5509C11.8888 20.3212 12.6473 20.5108 13.2978 21.1198C12.9463 21.3183 12.567 21.437 12.16 21.4754C12.4517 21.9229 12.8784 22.16 13.44 22.1865C13.559 22.3303 13.6064 22.4962 13.5822 22.6842Z"
            fill="#E56477" />
        <path fill-rule="evenodd" clip-rule="evenodd"
            d="M22.5421 20.5513C22.7391 20.6653 22.7154 20.7602 22.471 20.8357C21.8121 21.1268 21.1721 21.4586 20.551 21.8313C20.425 21.9486 20.3777 22.0908 20.4088 22.2579C19.7904 22.272 19.2215 22.4142 18.7021 22.6846C19.9123 21.8658 21.1923 21.1547 22.5421 20.5513Z"
            fill="#563430" />
        <path fill-rule="evenodd" clip-rule="evenodd"
            d="M22.5422 20.4088C22.5422 20.4561 22.5422 20.5036 22.5422 20.551C21.1924 21.1544 19.9124 21.8655 18.7022 22.6843C18.5126 22.7317 18.3229 22.7792 18.1333 22.8265C18.2326 22.2761 18.5645 21.9206 19.1289 21.7599C19.0815 21.7125 19.034 21.665 18.9866 21.6177C19.6118 21.5116 20.2282 21.3693 20.8355 21.191C21.0931 20.8519 21.425 20.6148 21.8311 20.4799C22.0635 20.4096 22.3006 20.386 22.5422 20.4088Z"
            fill="#E9A4AB" />
        <path fill-rule="evenodd" clip-rule="evenodd"
            d="M13.5823 22.6846C14.4039 22.8945 15.1625 23.2263 15.8578 23.6801C15.8578 23.775 15.8578 23.8697 15.8578 23.9646C15.6138 23.9462 15.3767 23.8989 15.1467 23.8223C14.851 23.4849 14.4717 23.2953 14.0089 23.2535C13.8256 23.0918 13.6834 22.9022 13.5823 22.6846Z"
            fill="#D66977" />
        <path fill-rule="evenodd" clip-rule="evenodd"
            d="M14.0088 23.2534C14.4716 23.2952 14.8509 23.4848 15.1466 23.8223C14.66 23.8197 14.2807 23.6302 14.0088 23.2534Z"
            fill="#5F332E" />
    </g>
    <defs>
        <clipPath id="clip0_4109_833">
            <rect width="32" height="32" fill="white" />
        </clipPath>
    </defs>
</svg>