<svg width="32" height="32" viewBox="0 0 32 32" fill="none" xmlns="http://www.w3.org/2000/svg">
    <path opacity="0.928" fill-rule="evenodd" clip-rule="evenodd"
        d="M28 0.799805C28.7362 0.979142 29.4829 1.13914 30.24 1.2798C30.6346 3.03281 30.5812 4.7928 30.08 6.5598C28.9711 10.3173 27.3711 13.8373 25.28 17.1198C23.8789 18.5391 22.3323 19.7657 20.64 20.7998C21.0149 20.9129 21.3882 20.8596 21.76 20.6398C22.24 20.6931 22.5066 20.9598 22.56 21.4398C22.161 22.9569 21.5743 24.3969 20.8 25.7598C19.1466 27.1998 17.4933 28.6398 15.84 30.0798C14.6791 30.5009 13.9324 30.1276 13.6 28.9598C13.9349 27.5907 14.2016 26.2041 14.4 24.7998C14.7225 24.2369 15.2025 23.8636 15.84 23.6798C15.0933 23.5731 14.3466 23.4665 13.6 23.3598C11.7436 21.183 9.77026 19.103 7.67999 17.1198C7.43003 16.7266 7.27003 16.3 7.19999 15.8398C7.68475 14.7738 8.0581 13.7072 8.31999 12.6398C7.74527 13.7364 7.05192 14.7498 6.23999 15.6798C4.53992 15.9994 2.83327 16.106 1.11999 15.9998C0.536018 15.5307 0.376018 14.9441 0.639986 14.2398C2.74497 10.8523 5.73163 8.71904 9.59999 7.8398C10.3234 7.96374 10.7501 8.3904 10.88 9.1198C12.1434 6.78995 14.0101 5.13664 16.48 4.1598C20.2173 2.53383 24.0573 1.41383 28 0.799805ZM19.68 6.5598C23.6847 6.57193 25.1247 8.49193 24 12.3198C21.8682 14.7273 19.6282 14.8339 17.28 12.6398C16.1076 9.86115 16.9076 7.83449 19.68 6.5598Z"
        fill="#00D498" />
    <path opacity="0.775" fill-rule="evenodd" clip-rule="evenodd"
        d="M5.59997 18.0799C6.17213 17.9886 6.70548 18.0953 7.19997 18.3999C7.46417 18.7042 7.51748 19.0242 7.35997 19.3599C6.45332 20.2666 5.54663 21.1732 4.63997 22.0799C3.22058 22.9262 2.6339 22.5529 2.87997 20.9599C3.8521 20.0417 4.75876 19.0817 5.59997 18.0799Z"
        fill="#00D498" />
    <path opacity="0.786" fill-rule="evenodd" clip-rule="evenodd"
        d="M8.15998 20.64C9.49668 20.4293 9.97668 20.9626 9.59998 22.24C7.85019 23.6693 6.19688 25.216 4.63998 26.88C2.74028 27.8179 2.15362 27.3379 2.87998 25.44C4.70254 23.8829 6.46254 22.2829 8.15998 20.64Z"
        fill="#00D498" />
    <path opacity="0.786" fill-rule="evenodd" clip-rule="evenodd"
        d="M10.4 23.2C11.7367 22.9893 12.2167 23.5226 11.84 24.8C10.7931 26.2477 9.45978 27.1544 7.83997 27.52C7.05031 27.0118 6.99699 26.4251 7.67997 25.76C8.7465 25.0665 9.65319 24.2132 10.4 23.2Z"
        fill="#00D498" />
</svg>