<svg width="32" height="32" viewBox="0 0 32 32" fill="none" xmlns="http://www.w3.org/2000/svg">
    <g clip-path="url(#clip0_3525_317)">
        <path fill-rule="evenodd" clip-rule="evenodd"
            d="M-0.0783691 -0.0834961C10.5883 -0.0834961 21.255 -0.0834961 31.9216 -0.0834961C31.9216 10.5832 31.9216 21.2498 31.9216 31.9165C21.255 31.9165 10.5883 31.9165 -0.0783691 31.9165C-0.0783691 21.2498 -0.0783691 10.5832 -0.0783691 -0.0834961Z"
            fill="black" />
        <path fill-rule="evenodd" clip-rule="evenodd"
            d="M6.03931 9.24978C6.79309 9.08525 7.57741 9.0297 8.39225 9.08312C8.34419 9.56402 8.39647 10.0085 8.54911 10.4164C8.5397 10.507 8.48742 10.5625 8.39225 10.5831C8.23852 10.152 8.18622 9.7076 8.23539 9.24978C7.50335 9.24978 6.77134 9.24978 6.03931 9.24978Z"
            fill="#97EA2D" />
        <path fill-rule="evenodd" clip-rule="evenodd"
            d="M25.3334 11.9164C25.3193 12.3585 25.4238 12.7473 25.6472 13.0831C25.6472 13.4164 25.6472 13.7498 25.6472 14.0831C25.6472 16.9719 25.6472 19.8609 25.6472 22.7498C24.8628 22.7498 24.0785 22.7498 23.2942 22.7498C23.346 19.6651 23.2937 16.6096 23.1373 13.5831C22.9692 12.6542 22.4464 12.0709 21.5687 11.8331C20.6798 11.722 19.791 11.722 18.9021 11.8331C18.2417 12.1188 17.7711 12.591 17.4903 13.2498C17.3698 13.3768 17.2914 13.5435 17.255 13.7498C17.1766 16.7493 17.1504 19.7493 17.1766 22.7498C16.3922 22.7498 15.6079 22.7498 14.8236 22.7498C14.8498 19.8603 14.8236 16.9714 14.7452 14.0831C14.6362 12.8753 14.0349 12.1253 12.9413 11.8331C11.8095 11.6476 10.7115 11.7587 9.64715 12.1664C9.35328 12.4504 9.09184 12.756 8.86284 13.0831C8.66858 13.3688 8.56401 13.7021 8.54911 14.0831C8.39277 16.9429 8.34048 19.8318 8.39225 22.7498C7.60793 22.7498 6.82362 22.7498 6.03931 22.7498C6.03931 18.2498 6.03931 13.7498 6.03931 9.24976C6.77134 9.24976 7.50335 9.24976 8.23539 9.24976C8.18622 9.70758 8.23852 10.152 8.39225 10.5831C8.48742 10.5625 8.5397 10.5069 8.54911 10.4164C8.9335 9.95363 9.40409 9.62029 9.96088 9.41643C11.1446 9.13284 12.3472 9.02173 13.5687 9.08309C14.7869 9.41203 15.7541 10.1342 16.4707 11.2498C17.8072 9.27726 19.6111 8.52726 21.8824 8.99976C23.5744 9.27158 24.7246 10.2438 25.3334 11.9164Z"
            fill="#97EA2D" />
        <path fill-rule="evenodd" clip-rule="evenodd"
            d="M25.3333 11.9165C25.5567 12.2523 25.6611 12.6411 25.647 13.0832C25.4236 12.7474 25.3192 12.3585 25.3333 11.9165Z"
            fill="#97EA2D" />
        <path fill-rule="evenodd" clip-rule="evenodd"
            d="M17.4902 13.25C17.3411 16.4677 17.2889 19.69 17.3333 22.9167C16.4665 22.9702 15.6298 22.9147 14.8235 22.75C15.6078 22.75 16.3921 22.75 17.1764 22.75C17.1502 19.7495 17.1764 16.7495 17.2549 13.75C17.2913 13.5437 17.3697 13.3771 17.4902 13.25Z"
            fill="#97EA2D" />
        <path fill-rule="evenodd" clip-rule="evenodd"
            d="M8.54911 14.0835C8.54911 17.028 8.54911 19.9723 8.54911 22.9168C7.68226 22.9703 6.84566 22.9148 6.03931 22.7502C6.82362 22.7502 7.60793 22.7502 8.39225 22.7502C8.34048 19.8322 8.39277 16.9433 8.54911 14.0835Z"
            fill="#97EA2D" />
        <path fill-rule="evenodd" clip-rule="evenodd"
            d="M8.8628 13.0835C8.76576 16.3858 8.6612 19.6637 8.54907 22.9168C8.54907 19.9723 8.54907 17.028 8.54907 14.0835C8.56397 13.7025 8.66854 13.3692 8.8628 13.0835Z"
            fill="#97EA2D" />
    </g>
    <defs>
        <clipPath id="clip0_3525_317">
            <rect width="32" height="32" rx="2" fill="white" />
        </clipPath>
    </defs>
</svg>