<svg width="32" height="32" viewBox="0 0 33 33" fill="none" xmlns="http://www.w3.org/2000/svg">
    <path opacity="0.765" fill-rule="evenodd" clip-rule="evenodd"
        d="M16.4375 0.5C17.38 0.890523 18.1873 1.47385 18.8594 2.25C18.8386 2.49897 18.9194 2.7073 19.1016 2.875C18.1569 4.19983 17.511 5.65815 17.1641 7.25C15.2265 7.33332 15.2265 7.41668 17.1641 7.5C17.1958 7.68473 17.1554 7.8514 17.043 8C16.8815 7.66668 16.72 7.66668 16.5586 8C16.2854 8.46132 16.1643 8.96132 16.1953 9.5C15.7349 9.43662 15.5735 9.51995 15.7109 9.75C15.6401 10.5752 15.2364 11.0752 14.4999 11.25C14.5316 11.0653 14.4913 10.8986 14.3788 10.75C13.7557 11.6912 13.6346 12.6912 14.0155 13.75C12.945 15.7062 11.8955 17.7896 10.867 20C10.0134 19.6853 9.28677 19.1853 8.68724 18.5C8.40041 17.9115 8.44078 17.3281 8.80834 16.75C9.79339 14.5458 10.8833 12.4625 12.078 10.5C12.078 10.1667 12.078 9.83332 12.078 9.5C12.3202 9.5 12.5624 9.5 12.8045 9.5C12.7853 8.80735 12.9064 8.14068 13.1678 7.5C14.2008 5.11805 15.2907 2.7847 16.4375 0.5Z"
        fill="#F15660" />
    <path opacity="0.947" fill-rule="evenodd" clip-rule="evenodd"
        d="M16.4375 0.5C15.2907 2.7847 14.2009 5.11805 13.1679 7.5C12.9065 8.14068 12.7854 8.80735 12.8046 9.5C12.5624 9.5 12.3202 9.5 12.078 9.5C12.078 9.83332 12.078 10.1667 12.078 10.5C10.8833 12.4625 9.79342 14.5458 8.80836 16.75C8.44081 17.3281 8.40044 17.9115 8.68727 18.5C7.50911 17.9343 6.45958 17.1843 5.53874 16.25C5.49994 15.8252 5.54031 15.4085 5.65983 15C6.93678 12.4472 8.14775 9.86387 9.29275 7.25C9.44768 6.80875 9.40734 6.39208 9.17166 6C11.4195 3.92305 13.8414 2.0897 16.4375 0.5Z"
        fill="#EF4A5E" />
    <path opacity="0.918" fill-rule="evenodd" clip-rule="evenodd"
        d="M25.1565 7C26.2212 7.63127 27.1899 8.38127 28.0628 9.25C27.8131 9.43712 27.5305 9.6038 27.2151 9.75C26.07 12.3639 24.8591 14.9472 23.5822 17.5C23.4371 18.0087 23.5582 18.4254 23.9455 18.75C22.7505 19.6194 21.5395 20.4944 20.3126 21.375C20.9229 21.7993 21.488 22.2576 22.0079 22.75C21.3039 22.8932 20.8196 23.3098 20.5548 24C19.3649 23.3454 18.3153 22.5121 17.4062 21.5C17.6644 21.202 17.8662 21.2853 18.0117 21.75C18.4635 20.0251 19.1497 18.4001 20.0704 16.875C19.8629 16.7027 19.7015 16.4944 19.586 16.25C20.1571 15.8689 20.6011 15.3689 20.9181 14.75C22.0886 12.3333 23.2594 9.91668 24.4299 7.5C24.6968 7.33107 24.939 7.16443 25.1565 7Z"
        fill="#F77D65" />
    <path opacity="0.999" fill-rule="evenodd" clip-rule="evenodd"
        d="M9.17164 6C9.40732 6.39208 9.44767 6.80875 9.29274 7.25C8.14774 9.86387 6.93676 12.4472 5.65982 15C5.54029 15.4085 5.49992 15.8252 5.53872 16.25C4.46224 15.6516 3.41273 14.9849 2.39019 14.25C2.14809 19.3306 2.06734 24.414 2.14799 29.5C2.30319 29.7455 2.46466 29.9955 2.63238 30.25C2.4192 30.7323 2.17701 31.1908 1.9058 31.625C2.02426 31.9095 2.105 32.2012 2.14799 32.5C1.58288 32.5 1.01774 32.5 0.45263 32.5C0.412281 25.8327 0.45263 19.1662 0.573728 12.5C3.34659 10.1761 6.21258 8.00945 9.17164 6Z"
        fill="#EE3E5C" />
    <path opacity="0.404" fill-rule="evenodd" clip-rule="evenodd"
        d="M20.797 3.74987C22.3378 4.71142 23.791 5.79475 25.1565 6.99987C24.939 7.1643 24.6968 7.33095 24.4299 7.49987C23.2594 9.91655 22.0886 12.3332 20.9181 14.7499C20.6011 15.3688 20.1571 15.8688 19.586 16.2499C19.7015 16.4943 19.8629 16.7026 20.0704 16.8749C19.1498 18.4 18.4635 20.0249 18.0118 21.7499C17.8663 21.2852 17.6644 21.2018 17.4063 21.4999C17.0898 21.3365 16.7669 21.1698 16.4375 20.9999C15.9462 21.3357 15.4618 21.6691 14.9843 21.9999C14.8617 21.6601 14.6195 21.4101 14.2578 21.2499C14.9908 19.7366 15.7174 18.2366 16.4375 16.7499C17.0884 16.7909 17.7342 16.7492 18.3751 16.6249C17.8156 16.5007 17.2505 16.4591 16.6797 16.4999C16.8291 15.786 17.0713 15.1194 17.4063 14.4999C17.7389 14.5391 18.0619 14.4974 18.3751 14.3749C18.0946 14.1227 17.9331 13.7894 17.8907 13.3749C18.0871 12.0694 18.3293 10.7777 18.6173 9.49987C18.6834 9.01212 18.522 8.63712 18.1329 8.37487C18.3151 8.20717 18.3958 7.99885 18.3751 7.74987C18.5365 7.74987 18.6173 7.66655 18.6173 7.49987C19.1133 6.34817 19.638 5.1815 20.1915 3.99987C20.354 3.81177 20.5558 3.72842 20.797 3.74987Z"
        fill="#F46D63" />
    <path opacity="0.82" fill-rule="evenodd" clip-rule="evenodd"
        d="M28.0628 9.25C29.5053 10.279 30.918 11.3624 32.3012 12.5C32.4223 19.1662 32.4628 25.8327 32.4223 32.5C26.6903 32.5 20.9585 32.5 15.2265 32.5C14.9731 31.9287 14.9731 31.3455 15.2265 30.75C19.6675 30.7917 24.1078 30.75 28.5472 30.625C25.8661 28.4118 23.202 26.2035 20.5548 24C20.8196 23.3098 21.3039 22.8932 22.0079 22.75C24.87 24.9372 27.6956 27.1872 30.4848 29.5C30.7672 24.4187 30.8076 19.3354 30.6059 14.25C28.3995 15.7837 26.1795 17.2837 23.9455 18.75C23.5582 18.4254 23.4371 18.0087 23.5822 17.5C24.8591 14.9472 26.07 12.3639 27.2151 9.75C27.5305 9.6038 27.8131 9.43712 28.0628 9.25Z"
        fill="#F98E68" />
    <path opacity="0.946" fill-rule="evenodd" clip-rule="evenodd"
        d="M18.8595 2.25C19.5941 2.629 20.2399 3.129 20.797 3.75C20.5558 3.72855 20.354 3.8119 20.1915 4C19.638 5.18163 19.1133 6.3483 18.6173 7.5C18.4558 7.5 18.3751 7.58332 18.3751 7.75C18.3959 7.99897 18.3151 8.2073 18.1329 8.375C18.522 8.63725 18.6835 9.01225 18.6173 9.5C18.1545 9.51857 17.8719 9.76858 17.7696 10.25C17.7841 11.5431 17.5016 12.7515 16.9219 13.875C17.1352 14.0521 17.2966 14.2604 17.4063 14.5C17.0713 15.1195 16.8291 15.7861 16.6797 16.5C16.1887 16.4595 15.7043 16.5011 15.2265 16.625C15.6223 16.7484 16.026 16.79 16.4375 16.75C15.7174 18.2367 14.9908 19.7367 14.2578 21.25C14.6195 21.4103 14.8617 21.6603 14.9843 22C12.6887 23.8935 10.3475 25.7268 7.9607 27.5C7.8871 27.3375 7.80635 27.1708 7.71851 27C8.12806 26.1633 8.53172 25.3298 8.92948 24.5C10.0338 23.3438 11.2448 22.3022 12.5624 21.375C11.9521 20.9507 11.387 20.4924 10.867 20C11.8956 17.7896 12.9451 15.7062 14.0156 13.75C14.1651 13.7777 14.2862 13.861 14.3789 14C14.4996 13.0871 14.54 12.1704 14.5 11.25C15.2365 11.0752 15.6402 10.5752 15.7109 9.75C16.0436 9.78918 16.3665 9.7475 16.6797 9.625C16.5357 9.50892 16.3743 9.46725 16.1953 9.5C16.1643 8.96132 16.2854 8.46132 16.5586 8C16.7201 7.66668 16.8815 7.66668 17.043 8C17.1555 7.8514 17.1958 7.68473 17.1641 7.5C18.1329 7.41668 18.1329 7.33332 17.1641 7.25C17.5111 5.65815 18.1569 4.19983 19.1017 2.875C18.9194 2.7073 18.8387 2.49897 18.8595 2.25Z"
        fill="#F36462" />
    <path opacity="0.66" fill-rule="evenodd" clip-rule="evenodd"
        d="M8.92947 24.5C8.53171 25.3298 8.12805 26.1633 7.71849 27C7.80634 27.1708 7.88709 27.3375 7.96069 27.5C6.85635 28.6562 5.64538 29.6977 4.32777 30.625C4.72354 30.7485 5.12721 30.79 5.53874 30.75C5.55134 31.3508 5.47059 31.934 5.29655 32.5C4.24705 32.5 3.19752 32.5 2.14802 32.5C2.10503 32.2012 2.02428 31.9095 1.90582 31.625C2.17703 31.1908 2.41923 30.7323 2.63241 30.25C2.46469 29.9955 2.30322 29.7455 2.14802 29.5C4.40849 27.8333 6.66899 26.1667 8.92947 24.5Z"
        fill="#F1575F" />
    <path opacity="0.895" fill-rule="evenodd" clip-rule="evenodd"
        d="M5.5387 30.75C7.55698 30.75 9.57529 30.75 11.5936 30.75C11.3353 31.3002 11.1738 31.8838 11.1092 32.5C9.17162 32.5 7.23407 32.5 5.29651 32.5C5.47055 31.934 5.5513 31.3508 5.5387 30.75Z"
        fill="#F36762" />
    <path opacity="0.697" fill-rule="evenodd" clip-rule="evenodd"
        d="M11.5936 30.75C12.8046 30.75 14.0155 30.75 15.2265 30.75C14.9731 31.3455 14.9731 31.9287 15.2265 32.5C13.8541 32.5 12.4816 32.5 11.1092 32.5C11.1739 31.8838 11.3353 31.3002 11.5936 30.75Z"
        fill="#F57564" />
</svg>