<svg xmlns="http://www.w3.org/2000/svg" width="100%" height="100%" viewBox="0 0 873 237" fill-rule="evenodd" stroke-linejoin="round" stroke-miterlimit="2"><g transform="translate(-134.353 -479.875)"><clipPath id="A"><path d="M134.353 479.874h872.405v236.975H134.353z"/></clipPath><g clip-path="url(#A)"><path d="M365.56 480.749c5.796 0 10.492 4.654 10.492 10.392v109.133c0 64.867-53.088 117.45-118.571 117.45H145.201c-5.796 0-10.496-4.654-10.496-10.396V591.611c0-61.225 50.113-110.863 111.929-110.863H365.56zm-111.229 40.954c-42.454 0-76.871 34.088-76.871 76.142s34.417 76.138 76.871 76.138 76.871-34.088 76.871-76.138-34.417-76.142-76.871-76.142z" fill="#d7df22"/><g fill-rule="nonzero"><path d="M689.65 590.436c-6.846-6.771-16.821-10.158-29.925-10.158-12.071 0-21.567 3.683-28.488 11.042-6.329 6.925-9.496 15.9-9.496 26.942s3.167 19.875 9.496 26.5c6.771 7.217 16.267 10.821 28.488 10.821s21.975-3.533 29.263-10.6 10.929-15.971 10.929-26.721c0-11.775-3.421-21.05-10.267-27.825m10.267 81.708v-10.158c-10.304 8.246-23.629 12.367-39.971 12.367-18.55 0-33.271-5.521-44.167-16.563-10.158-10.304-15.238-23.479-15.238-39.529 0-16.488 5.154-29.883 15.458-40.192 11.042-11.042 25.983-16.563 44.829-16.563 15.604 0 28.633 3.975 39.088 11.925v-11.483h21.2v110.196h-21.2z" fill="#000"/><path d="M816.97 674.175v-75.417c0-15.604-9.721-23.408-29.154-23.408-11.042 0-19.621 3.021-25.725 9.054-6.113 6.038-9.167 13.988-9.167 23.85v65.921h-21.2V520.804h21.2v45.05c9.275-6.475 20.829-9.717 34.671-9.717 14.133 0 25.763 3.242 34.892 9.717 10.45 7.213 15.683 17.521 15.683 30.917v77.404h-21.2z" fill="#000"/><g fill="#000"><path d="M937.84 590.541c-7.146-6.846-17.267-10.271-30.367-10.271-12.954 0-23.004 3.463-30.142 10.379s-10.713 16.05-10.713 27.383c0 11.192 3.604 20.246 10.821 27.163s17.225 10.379 30.033 10.379 22.854-3.458 30.142-10.379 10.933-15.971 10.933-27.163c0-11.483-3.571-20.646-10.708-27.492m14.904 68.125c-11.342 10.454-26.5 15.679-45.492 15.679s-34.083-5.225-45.271-15.679-16.779-23.996-16.779-40.633 5.663-30.217 17-40.742 26.5-15.792 45.496-15.792c18.988 0 34.075 5.267 45.267 15.792s16.783 24.108 16.783 40.742-5.667 30.183-17.004 40.633M518.04 674.137h-21.2V603.37c0-7.654-2.613-13.767-7.842-18.329s-12.546-6.846-21.971-6.846c-8.392 0-14.467 1.767-18.221 5.3s-5.629 9.275-5.629 17.225v73.417h-21.2v-75.404c0-12.808 3.942-22.563 11.813-29.263 7.879-6.696 19.104-10.046 33.679-10.046 16.783 0 31.617 5.004 40.154 14.279"/><path d="M507.62 573.702c8.538-9.275 23.013-14.238 39.796-14.238 14.575 0 25.8 3.354 33.679 10.05 7.871 6.7 11.813 16.45 11.813 29.258v75.408h-21.2v-73.421c0-7.95-1.875-13.692-5.629-17.225s-9.829-5.3-18.221-5.3c-9.421 0-16.746 2.288-21.971 6.846-5.229 4.567-7.842 10.679-7.842 18.329v70.771h-21.2"/></g></g><g transform="matrix(-4.16667 0 0 4.16667 992.24 674.234)"><path d="M0-7.071c1.971 0 3.569 1.583 3.569 3.535S1.971 0 0 0-3.569-1.583-3.569-3.536-1.971-7.071 0-7.071" fill="#d7df22" fill-rule="nonzero"/></g></g></g></svg>