<svg width="32" height="32" viewBox="0 0 32 32" fill="none" xmlns="http://www.w3.org/2000/svg">
    <path opacity="0.948" fill-rule="evenodd" clip-rule="evenodd"
        d="M13.2 6.40039C15.2 6.40039 17.2 6.40039 19.2 6.40039C19.1666 10.5316 19.2 14.6622 19.3 18.7924C21.393 15.7082 23.5598 12.6768 25.8 9.69825C27.8656 9.59836 29.9322 9.56504 32 9.59832C32 14.9282 32 20.258 32 25.588C30.5334 25.588 29.0666 25.588 27.6 25.588C27.6334 22.1228 27.6 18.6584 27.5 15.1947C25.1404 18.6784 22.707 22.1096 20.2 25.488C18.4176 25.6511 16.651 25.6179 14.9 25.3881C14.8333 20.9909 14.7667 16.5938 14.7 12.1966C11.6246 16.6446 8.52462 21.0751 5.4 25.488C3.60124 25.588 1.80124 25.6211 0 25.588C4.19734 19.068 8.59734 12.6722 13.2 6.40039Z"
        fill="#009DE2" />
</svg>