<svg width="32" height="32" viewBox="0 0 32 32" fill="none" xmlns="http://www.w3.org/2000/svg">
    <g clip-path="url(#clip0_2766_383)">
        <path
            d="M28.8 25.498L31.84 14.1554C32.0525 13.3645 32.0529 12.5316 31.8409 11.7405C31.629 10.9493 31.2123 10.2277 30.6325 9.64803L22.3563 1.37184C21.7745 0.790086 21.0492 0.371765 20.2537 0.159106C19.4581 -0.053554 18.6204 -0.053025 17.8251 0.160639L6.50665 3.20035C5.71385 3.41253 4.99095 3.82911 4.41054 4.40824C3.83012 4.98738 3.41263 5.7087 3.19999 6.49976L0.159986 17.8412C-0.0528596 18.6325 -0.0533355 19.4658 0.158606 20.2573C0.370547 21.0488 0.787447 21.7708 1.36745 22.3508L9.64372 30.6291C10.2256 31.2106 10.9509 31.6288 11.7464 31.8415C12.5419 32.0541 13.3796 32.0537 14.1749 31.8403L25.4933 28.7984C26.2862 28.5861 27.0091 28.1693 27.5895 27.59C28.17 27.0107 28.5874 26.2892 28.8 25.498Z"
            fill="#EA3BA7" />
        <path
            d="M13.6159 14.3894H15.3865L13.9849 19.6323C13.9699 19.6889 13.9681 19.7481 13.9796 19.8055C13.9912 19.8629 14.0158 19.9168 14.0516 19.9632C14.0873 20.0096 14.1333 20.0472 14.1859 20.073C14.2385 20.0989 14.2964 20.1123 14.3551 20.1123H15.0633C15.1621 20.1122 15.2591 20.0867 15.3451 20.0382C15.431 19.9897 15.503 19.9199 15.554 19.8356L20.4052 11.8234C20.4577 11.7365 20.4862 11.6374 20.4877 11.536C20.4892 11.4346 20.4637 11.3346 20.4138 11.2463C20.3639 11.158 20.2914 11.0844 20.2036 11.0332C20.1159 10.982 20.0162 10.955 19.9145 10.9549H17.9199L20.6729 6.88809C20.7312 6.80195 20.7649 6.7016 20.7704 6.59782C20.7758 6.49403 20.7529 6.39072 20.704 6.29895C20.6551 6.20718 20.5821 6.13042 20.4928 6.0769C20.4035 6.02337 20.3014 5.9951 20.1972 5.99512H15.7428C15.575 5.99503 15.4119 6.05 15.2785 6.15155C15.1451 6.2531 15.0489 6.39559 15.0047 6.55708L13.0623 13.6657C13.039 13.7507 13.0356 13.8399 13.0525 13.9263C13.0694 14.0128 13.106 14.0942 13.1596 14.1642C13.2132 14.2343 13.2822 14.291 13.3613 14.3301C13.4405 14.3691 13.5276 14.3895 13.6159 14.3894ZM15.5732 22.4017H13.0729C12.9037 22.4018 12.7393 22.4579 12.6054 22.5611C12.4715 22.6643 12.3756 22.8088 12.3327 22.9722L11.6735 25.501C11.6513 25.5856 11.6488 25.6741 11.6663 25.7598C11.6838 25.8455 11.7207 25.926 11.7743 25.9952C11.8279 26.0644 11.8967 26.1204 11.9753 26.1589C12.054 26.1974 12.1405 26.2174 12.2281 26.2173H14.7199C14.8889 26.2172 15.0532 26.1613 15.1871 26.0583C15.321 25.9553 15.417 25.811 15.4601 25.6479L16.1257 23.119C16.1481 23.0346 16.1507 22.9461 16.1334 22.8604C16.1161 22.7748 16.0794 22.6942 16.026 22.6249C15.9727 22.5557 15.9041 22.4995 15.8256 22.4608C15.7471 22.4221 15.6608 22.4019 15.5732 22.4017Z"
            fill="white" />
    </g>
    <defs>
        <clipPath id="clip0_2766_383">
            <rect width="32" height="32" fill="white" />
        </clipPath>
    </defs>
</svg>