<svg width="32" height="32" viewBox="0 0 33 33" fill="none" xmlns="http://www.w3.org/2000/svg">
<path opacity="0.98" fill-rule="evenodd" clip-rule="evenodd" d="M2.59623 0.5C11.6799 0.5 20.7635 0.5 29.8472 0.5C30.8822 1.16699 31.6683 2.13668 32.2054 3.40909C32.4671 6.31174 32.5544 9.22081 32.4675 12.1364C29.8472 12.1364 27.2269 12.1364 24.6066 12.1364C22.9059 5.71449 19.0628 3.29025 13.0774 4.86364C9.65286 6.94015 8.08069 10.1401 8.36085 14.4636C7.87112 13.8425 7.69645 13.0667 7.8368 12.1364C5.3912 12.1364 2.9456 12.1364 0.5 12.1364C0.5 9.03335 0.5 5.9303 0.5 2.82727C1.02406 1.85757 1.7228 1.08182 2.59623 0.5Z" fill="#F3872F"/>
<path fill-rule="evenodd" clip-rule="evenodd" d="M24.6066 12.1361C24.4753 14.3172 24.126 16.4506 23.5585 18.5361C21.8555 22.1173 19.7592 25.4143 17.2698 28.427C16.5711 28.427 15.8723 28.427 15.1736 28.427C12.9866 25.5046 11.065 22.4016 9.409 19.1179C8.9528 17.598 8.60342 16.0465 8.36088 14.4634C8.08072 10.1399 9.65289 6.93988 13.0774 4.86337C19.0629 3.28998 22.9059 5.71422 24.6066 12.1361Z" fill="#FEF9F5"/>
<path fill-rule="evenodd" clip-rule="evenodd" d="M0.5 12.1362C2.9456 12.1362 5.3912 12.1362 7.8368 12.1362C7.69645 13.0666 7.87112 13.8424 8.36085 14.4635C8.60339 16.0466 8.95278 17.5982 9.40897 19.118C6.48746 18.5639 3.51782 18.37 0.5 18.5362C0.5 16.4029 0.5 14.2696 0.5 12.1362Z" fill="#F27A2B"/>
<path fill-rule="evenodd" clip-rule="evenodd" d="M18.318 15.0456C18.5368 12.3876 17.4887 11.5149 15.1737 12.4274C14.1429 16.7139 15.5404 18.0715 19.3661 16.5002C21.4709 12.3613 20.4227 9.93708 16.2218 9.22743C13.0162 9.78534 11.3568 11.9187 11.2433 15.6274C10.6552 8.7191 13.3628 6.29482 19.3661 8.3547C22.1611 11.6517 22.1611 14.9486 19.3661 18.2456C15.8721 20.1845 13.7759 19.0209 13.0775 14.7547C13.7783 10.8941 15.6125 10.0213 18.5801 12.1365C18.9886 13.2344 18.9012 14.2041 18.318 15.0456Z" fill="#F3873D"/>
<path fill-rule="evenodd" clip-rule="evenodd" d="M18.3181 15.0457C17.7411 15.6847 17.0423 15.7817 16.2218 15.3366C15.401 13.7793 15.7504 13.0035 17.2699 13.0093C17.9687 13.5911 17.9687 14.1729 17.2699 14.7548C17.5814 15.0249 17.9308 15.1219 18.3181 15.0457Z" fill="#F59250"/>
<path opacity="0.948" fill-rule="evenodd" clip-rule="evenodd" d="M24.6067 12.1362C27.227 12.1362 29.8473 12.1362 32.4676 12.1362C32.4676 14.2696 32.4676 16.4029 32.4676 18.5362C29.4979 18.5362 26.5283 18.5362 23.5586 18.5362C24.126 16.4507 24.4754 14.3174 24.6067 12.1362Z" fill="#F27A2B"/>
<path fill-rule="evenodd" clip-rule="evenodd" d="M0.5 18.5361C3.51782 18.3698 6.48745 18.5638 9.40897 19.1179C11.065 22.4015 12.9865 25.5046 15.1736 28.427C10.2824 28.427 5.3912 28.427 0.5 28.427C0.5 25.13 0.5 21.833 0.5 18.5361Z" fill="#F16F28"/>
<path opacity="0.967" fill-rule="evenodd" clip-rule="evenodd" d="M23.5587 18.5361C26.5284 18.5361 29.498 18.5361 32.4677 18.5361C32.4677 21.8331 32.4677 25.1301 32.4677 28.427C27.4018 28.427 22.3359 28.427 17.27 28.427C19.7594 25.4143 21.8556 22.1173 23.5587 18.5361Z" fill="#F17029"/>
<path opacity="0.734" fill-rule="evenodd" clip-rule="evenodd" d="M0.5 28.4272C5.3912 28.4272 10.2824 28.4272 15.1736 28.4272C15.8723 28.4272 16.5711 28.4272 17.2698 28.4272C22.3357 28.4272 27.4016 28.4272 32.4675 28.4272C32.1724 30.0533 31.4737 31.4109 30.3712 32.5C21.1129 32.5 11.8546 32.5 2.59623 32.5C1.91756 31.9249 1.21882 31.3431 0.5 30.7545C0.5 29.9788 0.5 29.203 0.5 28.4272Z" fill="#F16725"/>
</svg>
