<svg width="32" height="32" viewBox="0 0 33 33" fill="none" xmlns="http://www.w3.org/2000/svg">
    <path fill-rule="evenodd" clip-rule="evenodd"
        d="M29.9399 4.65135C28.4346 5.37699 26.9176 6.06888 25.3888 6.72703C25.434 5.94306 25.3867 5.19352 25.2466 4.47838C25.2466 4.36306 25.2939 4.30541 25.3888 4.30541C26.8558 3.04127 28.3256 1.7728 29.7977 0.5C29.9396 1.87899 29.987 3.26278 29.9399 4.65135Z"
        fill="#FDB8CD" />
    <path fill-rule="evenodd" clip-rule="evenodd"
        d="M7.61095 4.30541C7.70577 4.30541 7.75317 4.36306 7.75317 4.47838C7.6131 5.19352 7.5657 5.94306 7.61095 6.72703C5.96783 6.04224 4.35598 5.2927 2.77539 4.47838C3.03214 3.22121 3.15066 1.89508 3.13095 0.5C4.6465 1.73916 6.13983 3.00762 7.61095 4.30541Z"
        fill="#BABCFF" />
    <path fill-rule="evenodd" clip-rule="evenodd"
        d="M12.8736 8.80271C11.1695 7.36565 9.46283 5.92421 7.7536 4.47838C7.7536 4.36306 7.7062 4.30541 7.61138 4.30541C7.58777 3.38109 7.61146 2.45856 7.68249 1.53784C9.49889 3.88957 11.2293 6.31119 12.8736 8.80271Z"
        fill="#D7D8FF" />
    <path fill-rule="evenodd" clip-rule="evenodd"
        d="M25.3887 4.30541C25.2938 4.30541 25.2465 4.36306 25.2465 4.47838C23.5398 5.91982 21.8331 7.36127 20.1265 8.80271C21.821 6.35962 23.5515 3.938 25.3176 1.53784C25.3886 2.45856 25.4123 3.38109 25.3887 4.30541Z"
        fill="#FED4E1" />
    <path fill-rule="evenodd" clip-rule="evenodd"
        d="M0.5 3.44043C1.2468 3.82012 2.00531 4.16607 2.77556 4.47827C4.35615 5.29259 5.968 6.04213 7.61112 6.72692C9.20336 7.55049 10.8152 8.32887 12.4467 9.06205C13.0796 9.51512 13.6485 10.0629 14.1533 10.7053C14.4599 11.2134 14.6732 11.79 14.7933 12.435C14.9118 19.1241 14.8882 25.8124 14.7222 32.4999C11.1141 31.1043 7.51114 29.6918 3.91334 28.2621C2.06484 27.2545 0.927067 25.5536 0.5 23.1593C0.5 16.5864 0.5 10.0134 0.5 3.44043Z"
        fill="#787DFF" />
    <path fill-rule="evenodd" clip-rule="evenodd"
        d="M32.5002 3.44043C32.5002 10.0711 32.5002 16.7017 32.5002 23.3323C32.0211 25.9013 30.7411 27.6023 28.6602 28.435C25.1631 29.7567 21.6787 31.1116 18.2069 32.4999C18.112 25.8115 18.112 19.1234 18.2069 12.435C18.3221 11.6935 18.5828 11.0593 18.9891 10.5323C19.4471 9.94714 19.9685 9.45704 20.5536 9.06205C22.185 8.32887 23.7969 7.55049 25.3891 6.72692C26.9179 6.06877 28.435 5.37688 29.9402 4.65124C30.7936 4.24764 31.6469 3.84403 32.5002 3.44043Z"
        fill="#FD739C" />
    <path fill-rule="evenodd" clip-rule="evenodd"
        d="M7.75353 4.47827C9.46275 5.9241 11.1694 7.36554 12.8735 8.8026C13.4563 9.28083 13.883 9.91507 14.1535 10.7053C13.6487 10.0629 13.0798 9.51512 12.4469 9.06206C10.8154 8.32887 9.20354 7.5505 7.6113 6.72692C7.56605 5.94295 7.61345 5.19341 7.75353 4.47827Z"
        fill="#A7A9FF" />
    <path fill-rule="evenodd" clip-rule="evenodd"
        d="M25.2466 4.47827C25.3866 5.19341 25.434 5.94295 25.3888 6.72692C23.7966 7.5505 22.1846 8.32887 20.5532 9.06206C19.9681 9.45704 19.4467 9.94714 18.9888 10.5323C19.2068 9.80515 19.5861 9.22856 20.1265 8.8026C21.8332 7.36116 23.5399 5.91971 25.2466 4.47827Z"
        fill="#FDA3BE" />
</svg>