<svg width="32" height="32" viewBox="0 0 32 32" fill="none" xmlns="http://www.w3.org/2000/svg">
    <g clip-path="url(#clip0_2621_256)">
        <path fill-rule="evenodd" clip-rule="evenodd"
            d="M4.33905 2.9834C12.2035 2.9834 20.0679 2.9834 27.9323 2.9834C29.1176 4.44035 30.4736 5.70589 32.0001 6.78001C32.0001 10.3958 32.0001 14.0117 32.0001 17.6275C30.69 18.892 29.334 20.1123 27.9323 21.2885C24.8589 21.3789 21.7853 21.4693 18.7119 21.5597C15.1683 24.0515 11.6429 26.5374 8.13566 29.0173C7.95478 26.5766 7.77417 24.1359 7.59329 21.6953C6.46868 21.4716 5.29336 21.336 4.06786 21.2885C2.73119 20.0996 1.42054 18.8793 0.135661 17.6275C-0.0452203 14.0117 -0.0452203 10.3958 0.135661 6.78001C1.58976 5.5509 2.99071 4.28536 4.33905 2.9834Z"
            fill="#6C61A0" />
        <path fill-rule="evenodd" clip-rule="evenodd"
            d="M4.88126 4.33953C12.3863 4.24919 19.889 4.33958 27.3897 4.61072C28.4631 5.54812 29.5028 6.54246 30.5084 7.59377C30.6893 10.7576 30.6893 13.9214 30.5084 17.0853C29.3876 17.9344 28.3481 18.8836 27.3897 19.9328C24.3164 20.0231 21.2428 20.1136 18.1694 20.2039C15.2316 22.2378 12.2936 24.2717 9.35583 26.3056C9.22024 24.2285 9.17522 22.1494 9.22024 20.0683C7.68099 20.1134 6.14417 20.0682 4.61007 19.9328C3.66092 18.9836 2.71177 18.0344 1.76261 17.0853C1.58173 13.8311 1.58173 10.5768 1.76261 7.32258C2.90051 6.41772 3.93997 5.42336 4.88126 4.33953Z"
            fill="#C1B9D9" />
        <path fill-rule="evenodd" clip-rule="evenodd"
            d="M10.034 8.67871C11.6934 9.82816 13.3205 11.0485 14.9154 12.3397C14.7196 13.0832 14.2678 13.3543 13.5594 13.1533C12.5137 12.2429 11.429 11.3841 10.3052 10.577C9.18141 11.3841 8.09666 12.2429 7.05097 13.1533C6.23144 13.3258 5.82466 13.0095 5.83063 12.2041C7.32622 11.1208 8.72744 9.94567 10.034 8.67871Z"
            fill="#6A5F9F" />
        <path fill-rule="evenodd" clip-rule="evenodd"
            d="M22.7796 8.67871C24.308 9.89674 25.8448 11.1171 27.3898 12.3397C27.1574 12.5266 26.9768 12.7526 26.8474 13.0177C26.6128 13.3113 26.3416 13.3565 26.0338 13.1533C24.9881 12.2429 23.9034 11.3841 22.7796 10.577C21.6558 11.3841 20.5711 12.2429 19.5254 13.1533C18.817 13.3543 18.3652 13.0832 18.1694 12.3397C19.757 11.1563 21.2938 9.93596 22.7796 8.67871Z"
            fill="#6B609F" />
    </g>
    <defs>
        <clipPath id="clip0_2621_256">
            <rect width="32" height="32" fill="white" />
        </clipPath>
    </defs>
</svg>