<svg width="32" height="32" viewBox="0 0 32 32" fill="none" xmlns="http://www.w3.org/2000/svg">
    <rect width="32" height="32" fill="#FAFAFA" />
    <path
        d="M4.13661 16.2993C4.80249 17.1809 5.60857 18.0271 6.41464 18.8381C7.81651 20.2485 9.39361 21.5178 11.0058 22.4699H6.3095C3.89128 20.7069 1.75343 18.3444 0.351562 15.982C1.75343 13.6548 3.89128 11.2924 6.3095 9.5294H11.0058C9.39361 10.5167 7.81651 11.7508 6.41464 13.1612C5.60857 13.9722 4.80249 14.8537 4.13661 15.6999C4.06651 15.7704 4.03147 15.8762 4.03147 15.982C4.03147 16.123 4.06651 16.2288 4.13661 16.2993ZM27.8632 16.2993C27.1973 17.1809 26.3913 18.0271 25.5852 18.8381C24.1833 20.2485 22.6062 21.5178 20.9941 22.4699H25.6903C28.1085 20.7069 30.2464 18.3444 31.6483 15.982C30.2464 13.6196 28.1085 11.2571 25.6903 9.49414H20.9941C22.6062 10.5167 24.1833 11.7508 25.5852 13.1612C26.3913 13.9722 27.1973 14.8537 27.8632 15.6999C27.9333 15.7704 27.9684 15.8762 27.9684 15.982C27.9684 16.123 27.9333 16.2288 27.8632 16.2993ZM15.9824 18.8028C17.5244 18.8028 18.7511 17.5687 18.7511 16.0173C18.7511 14.4658 17.5244 13.2317 15.9824 13.2317C14.4403 13.2317 13.2137 14.4658 13.2137 16.0173C13.2487 17.5335 14.4754 18.8028 15.9824 18.8028ZM15.9824 9.5294C19.5572 9.5294 22.431 12.4207 22.431 16.0173C22.431 19.6138 19.5572 22.5051 15.9824 22.5051C12.4076 22.5051 9.5338 19.6138 9.5338 16.0173C9.56884 12.4207 12.4427 9.5294 15.9824 9.5294Z"
        fill="#202020" />
</svg>