<svg width="32" height="32" viewBox="0 0 32 32" fill="none" xmlns="http://www.w3.org/2000/svg">
    <g clip-path="url(#clip0_2075_377)">
        <path
            d="M31.1122 11.4486L24.3445 7.58958C23.8678 7.31714 23.0895 7.31714 22.6128 7.58958L3.94398 18.2434L14.2756 10.4005L9.34325 7.58958C8.86656 7.31714 8.08828 7.31714 7.61159 7.58958L0.843857 11.4486C0.367164 11.721 -0.0219727 12.3909 -0.0219727 12.9357V20.6537C-0.0219727 21.1986 0.367164 21.8684 0.843857 22.1409L7.61159 26.003C8.08828 26.2755 8.86656 26.2755 9.34325 26.003L28.0153 15.3492L17.6837 23.1889L22.6128 26.003C23.0895 26.2755 23.8678 26.2755 24.3445 26.003L31.1122 22.1409C31.5889 21.8684 31.978 21.1986 31.978 20.6569V12.9357C31.978 12.3909 31.5889 11.721 31.1122 11.4486Z"
            fill="#002C77" />
    </g>
    <defs>
        <clipPath id="clip0_2075_377">
            <rect width="32" height="32" fill="white" />
        </clipPath>
    </defs>
</svg>