<svg width="32" height="32" viewBox="0 0 32 32" fill="none" xmlns="http://www.w3.org/2000/svg">
<g clip-path="url(#clip0_2650_446)">
<path fill-rule="evenodd" clip-rule="evenodd" d="M-0.0712891 -0.0712891C10.5954 -0.0712891 21.262 -0.0712891 31.9287 -0.0712891C31.9287 10.5954 31.9287 21.262 31.9287 31.9287C21.262 31.9287 10.5954 31.9287 -0.0712891 31.9287C-0.0712891 21.262 -0.0712891 10.5954 -0.0712891 -0.0712891Z" fill="#FEFEFE"/>
<path fill-rule="evenodd" clip-rule="evenodd" d="M29.6533 19.129C28.0267 24.8085 24.3289 28.3405 18.56 29.7246C12.0942 30.5678 7.11643 28.2685 3.62665 22.8268C2.34951 20.3288 1.78062 17.6741 1.91998 14.8623C2.74813 8.65358 6.11406 4.50543 12.0178 2.41789C18.5719 0.967067 23.8105 2.93447 27.7333 8.32012C29.7832 11.6653 30.4232 15.2682 29.6533 19.129Z" fill="#64B1F8"/>
<path fill-rule="evenodd" clip-rule="evenodd" d="M14.1513 3.05736C19.6856 2.66042 23.976 4.74634 27.0224 9.31514C29.6244 14.3231 29.34 19.1586 26.1691 23.8218C22.4318 28.1647 17.7622 29.658 12.1602 28.3018C5.72684 25.798 2.71646 21.081 3.1291 14.1507C4.36358 8.0096 8.03765 4.31182 14.1513 3.05736Z" fill="#3E9EF8"/>
<path fill-rule="evenodd" clip-rule="evenodd" d="M22.6843 11.5914C22.6843 11.8758 22.6843 12.1603 22.6843 12.4447C22.4016 13.133 21.88 13.5123 21.1198 13.5825C20.9788 13.6069 20.884 13.5595 20.8354 13.4403C21.5559 13.1842 21.8877 12.6628 21.831 11.8758C21.3676 10.1092 20.2298 9.04257 18.4176 8.67581C15.797 8.36199 13.2845 8.74126 10.8798 9.81358C9.00527 10.8039 8.4838 12.2972 9.3154 14.2936C9.75953 15.3486 10.1862 16.4153 10.5954 17.4936C10.5855 17.6024 10.538 17.6735 10.4532 17.7069C8.09921 17.4639 7.12737 16.1839 7.53762 13.8669C8.04031 11.657 9.29661 10.0214 11.3065 8.96025C13.8379 7.60806 16.4926 7.2288 19.271 7.82247C21.0355 8.51999 22.1733 9.77628 22.6843 11.5914Z" fill="#F8FBFE"/>
<path fill-rule="evenodd" clip-rule="evenodd" d="M20.8359 13.4403C19.9415 13.5644 19.0408 13.6118 18.1337 13.5826C15.8687 13.2595 13.5931 13.141 11.3071 13.227C10.7268 13.3247 10.158 13.4669 9.60039 13.6537C9.44421 13.7631 9.44421 13.8817 9.60039 14.0092C9.50557 14.1041 9.41076 14.1989 9.31594 14.2937C8.48434 12.2973 9.00581 10.804 10.8804 9.81368C13.2851 8.74135 15.7976 8.36209 18.4182 8.6759C20.2304 9.04267 21.3681 10.1093 21.8315 11.8759C21.8882 12.6628 21.5564 13.1843 20.8359 13.4403Z" fill="#3F9EF8"/>
<path fill-rule="evenodd" clip-rule="evenodd" d="M22.9692 12.5869C22.9692 13.061 22.9692 13.5351 22.9692 14.0091C22.9058 15.1163 22.6213 16.1594 22.1159 17.138C22.0685 17.138 22.021 17.138 21.9736 17.138C22.3279 15.8887 22.4939 14.6087 22.4714 13.298C22.6405 13.0515 22.8065 12.8145 22.9692 12.5869Z" fill="#EFF5FE"/>
<path fill-rule="evenodd" clip-rule="evenodd" d="M21.1204 12.1604C21.3156 12.1382 21.5054 12.1619 21.6893 12.2316C20.8413 12.5851 20.0354 12.9644 19.2715 13.3693C19.8047 12.8196 20.4209 12.4167 21.1204 12.1604Z" fill="#E8F1FD"/>
<path fill-rule="evenodd" clip-rule="evenodd" d="M18.1329 13.5819C17.8332 13.7196 17.5013 13.767 17.1373 13.7241C14.7257 13.4575 12.4501 13.8842 10.3107 15.0041C10.1278 14.6319 9.89075 14.3001 9.59955 14.0086C9.44338 13.881 9.44338 13.7625 9.59955 13.653C10.1571 13.4662 10.726 13.324 11.3062 13.2264C13.5922 13.1403 15.8679 13.2588 18.1329 13.5819Z" fill="#F7FAFE"/>
<path fill-rule="evenodd" clip-rule="evenodd" d="M22.6849 12.4447C22.8259 12.4203 22.9207 12.4677 22.9693 12.5869C22.8066 12.8145 22.6406 13.0515 22.4715 13.298C22.494 14.6087 22.328 15.8887 21.9737 17.138C22.0003 17.3253 21.9055 17.5149 21.6893 17.7069C20.7303 18.4517 19.8295 19.2815 18.9871 20.1958C18.8922 20.2907 18.7975 20.2907 18.7026 20.1958C19.7579 19.1411 20.7061 18.0033 21.5471 16.7825C21.4522 16.6876 21.3575 16.6876 21.2626 16.7825C19.2506 18.2492 17.4966 19.9796 16.0004 21.9736C15.8689 21.8517 15.774 21.7095 15.716 21.5469C15.4539 21.0225 15.359 20.4537 15.4315 19.8403C15.5063 18.976 15.767 18.17 16.2137 17.4225C17.031 16.2254 17.9554 15.1114 18.9871 14.0803C18.916 14.0565 18.8449 14.0328 18.7737 14.0091C16.7636 15.8814 15.2465 18.1095 14.2226 20.6936C14.3165 20.1836 14.1031 19.8043 13.5826 19.5558C13.5204 19.4127 13.4256 19.4127 13.2982 19.5558C12.4456 17.9454 11.45 16.4285 10.3115 15.0047C12.451 13.8847 14.7265 13.4581 17.1382 13.7247C17.586 13.8193 18.0601 13.8667 18.5604 13.8669C19.4459 13.876 20.2992 13.7812 21.1204 13.5825C21.8806 13.5123 22.4021 13.133 22.6849 12.4447Z" fill="#409EF8"/>
<path fill-rule="evenodd" clip-rule="evenodd" d="M20.8355 13.4404C20.8841 13.5596 20.9788 13.6071 21.1199 13.5827C20.2987 13.7814 19.4454 13.8762 18.5599 13.8671C18.0596 13.8669 17.5856 13.8195 17.1377 13.7249C17.5016 13.7678 17.8336 13.7204 18.1333 13.5827C19.0403 13.6119 19.941 13.5645 20.8355 13.4404Z" fill="#D3E6FD"/>
<path fill-rule="evenodd" clip-rule="evenodd" d="M10.3113 15.0048C11.4497 16.4286 12.4453 17.9455 13.2979 19.5559C13.0609 19.3663 12.8239 19.1766 12.5868 18.987C12.3862 18.6437 12.1017 18.4066 11.7335 18.2759C11.6215 18.0478 11.4319 17.9529 11.1646 17.9915C11.0698 17.8966 10.975 17.8019 10.8801 17.707C10.45 16.6772 10.0945 15.6343 9.81348 14.5781C9.96126 14.7502 10.1272 14.8924 10.3113 15.0048Z" fill="#F8FBFE"/>
<path fill-rule="evenodd" clip-rule="evenodd" d="M9.59987 14.0088C9.89107 14.3003 10.1281 14.6321 10.311 15.0043C10.1269 14.892 9.96099 14.7498 9.81321 14.5777C10.0942 15.6338 10.4498 16.6767 10.8799 17.7066C10.716 17.8666 10.5738 17.8666 10.4532 17.7066C10.5381 17.6731 10.5855 17.602 10.5954 17.4932C10.1862 16.4149 9.75956 15.3482 9.31543 14.2932C9.41025 14.1984 9.50505 14.1036 9.59987 14.0088Z" fill="#6EB1F9"/>
<path fill-rule="evenodd" clip-rule="evenodd" d="M15.4311 19.8399C15.3133 20.7625 15.2422 21.7107 15.2177 22.6843C15.0321 23.1766 14.7241 23.5559 14.2933 23.8221C13.663 23.8604 13.0467 23.813 12.4444 23.6799C9.73651 22.7963 8.10096 20.9474 7.53773 18.1332C7.34452 17.383 7.2971 16.6244 7.39551 15.8577C7.51162 16.3747 7.77237 16.8013 8.17773 17.1377C8.02587 19.6068 9.02142 21.4793 11.1644 22.7555C11.9922 23.4088 12.7745 23.3852 13.5111 22.6843C13.6799 22.4648 13.7273 22.2277 13.6533 21.9732C13.5209 22.3803 13.2839 22.7121 12.9422 22.9688C12.8878 22.8897 12.8166 22.8424 12.7288 22.8266C12.0191 21.2315 11.4976 19.6197 11.1644 17.991C11.3086 18.158 11.4982 18.2527 11.7333 18.2755C11.9339 18.6188 12.2184 18.8559 12.5866 18.9866C12.8552 19.47 13.2107 19.8966 13.6533 20.2666C13.708 20.0252 13.6843 19.7883 13.5822 19.5555C14.1027 19.8039 14.316 20.1832 14.2222 20.6932C15.246 18.1092 16.7631 15.881 18.7733 14.0088C18.8444 14.0325 18.9155 14.0562 18.9866 14.0799C17.9549 15.111 17.0305 16.225 16.2133 17.4221C15.7666 18.1696 15.5059 18.9756 15.4311 19.8399Z" fill="#F7FAFE"/>
<path fill-rule="evenodd" clip-rule="evenodd" d="M21.6888 17.7065C20.8169 18.6496 19.9162 19.574 18.9866 20.4799C17.9588 21.2059 16.9157 21.8934 15.8577 22.5421C15.7215 22.6065 15.6029 22.7012 15.5022 22.8265C15.4827 22.3743 15.5538 21.9476 15.7155 21.5465C15.7735 21.7091 15.8684 21.8513 15.9999 21.9732C17.4961 19.9792 19.2501 18.2488 21.2622 16.7821C21.357 16.6872 21.4517 16.6872 21.5466 16.7821C20.7057 18.0029 19.7575 19.1407 18.7022 20.1954C18.797 20.2903 18.8917 20.2903 18.9866 20.1954C19.829 19.2811 20.7298 18.4513 21.6888 17.7065Z" fill="#F3F8FE"/>
<path fill-rule="evenodd" clip-rule="evenodd" d="M11.1641 17.9908C11.4314 17.9522 11.621 18.0471 11.733 18.2752C11.4979 18.2525 11.3082 18.1577 11.1641 17.9908Z" fill="#6FB2F9"/>
<path fill-rule="evenodd" clip-rule="evenodd" d="M11.7334 18.2754C12.1016 18.4061 12.3861 18.6432 12.5867 18.9865C12.2185 18.8558 11.934 18.6187 11.7334 18.2754Z" fill="#7CB7F9"/>
<path fill-rule="evenodd" clip-rule="evenodd" d="M12.5869 18.9863C12.824 19.1759 13.061 19.3656 13.298 19.5552C13.4254 19.4121 13.5202 19.4121 13.5825 19.5552C13.6846 19.788 13.7083 20.025 13.6536 20.2663C13.211 19.8964 12.8555 19.4697 12.5869 18.9863Z" fill="#9CC8FA"/>
<path fill-rule="evenodd" clip-rule="evenodd" d="M12.7287 22.8266C11.6896 23.1136 11.4763 22.7818 12.0887 21.8311C12.2346 22.2206 12.4479 22.5524 12.7287 22.8266Z" fill="#F1F7FE"/>
<path fill-rule="evenodd" clip-rule="evenodd" d="M15.4307 19.8398C15.3582 20.4532 15.4531 21.0221 15.7152 21.5465C15.5535 21.9476 15.4824 22.3742 15.5019 22.8265C15.6026 22.7012 15.7212 22.6065 15.8574 22.5421C15.6782 22.9824 15.3702 23.3142 14.933 23.5376C14.8941 23.7653 14.823 23.9787 14.7196 24.1776C14.7521 24.2344 14.7996 24.258 14.8619 24.2487C14.7413 24.4087 14.599 24.4087 14.4352 24.2487C14.6669 24.0075 14.6195 23.8653 14.293 23.8221C14.7238 23.5558 15.0318 23.1765 15.2174 22.6843C15.2419 21.7106 15.313 20.7624 15.4307 19.8398Z" fill="#90C1FA"/>
<path fill-rule="evenodd" clip-rule="evenodd" d="M1.91966 14.8623C1.7803 17.674 2.34918 20.3288 3.62633 22.8267C3.76855 23.2061 3.91077 23.5852 4.05299 23.9645C3.67845 23.6095 3.3703 23.1829 3.12855 22.6845C2.22026 20.7809 1.76989 18.766 1.77744 16.6401C1.77758 16.0218 1.82498 15.4292 1.91966 14.8623Z" fill="#E5E7E7"/>
<path fill-rule="evenodd" clip-rule="evenodd" d="M15.8575 22.542C15.9808 23.3347 15.649 23.9036 14.8619 24.2487C14.7997 24.2579 14.7522 24.2343 14.7197 24.1775C14.8231 23.9786 14.8942 23.7652 14.9331 23.5375C15.3703 23.3141 15.6783 22.9823 15.8575 22.542Z" fill="#F4F9FE"/>
<path fill-rule="evenodd" clip-rule="evenodd" d="M14.2936 23.8223C14.6201 23.8655 14.6675 24.0077 14.4358 24.2489C13.8036 24.4486 13.1873 24.4011 12.5869 24.1067C13.1708 24.199 13.7397 24.1043 14.2936 23.8223Z" fill="#EFF6FE"/>
</g>
<defs>
<clipPath id="clip0_2650_446">
<rect width="32" height="32" fill="white"/>
</clipPath>
</defs>
</svg>

