<svg width="32" height="32" viewBox="0 0 32 32" fill="none" xmlns="http://www.w3.org/2000/svg">
    <g clip-path="url(#clip0_4181_118)">
        <path fill-rule="evenodd" clip-rule="evenodd"
            d="M-0.071106 -0.0712891C10.5956 -0.0712891 21.2622 -0.0712891 31.9289 -0.0712891C31.9289 10.5954 31.9289 21.262 31.9289 31.9287C21.2622 31.9287 10.5956 31.9287 -0.071106 31.9287C-0.071106 21.262 -0.071106 10.5954 -0.071106 -0.0712891Z"
            fill="#FEFEFE" />
        <path fill-rule="evenodd" clip-rule="evenodd"
            d="M10.7378 5.47559C11.1494 5.67218 11.505 5.95662 11.8044 6.32892C12.5867 7.20596 13.3689 8.08299 14.1511 8.96003C15.3362 9.05485 16.5215 9.05485 17.7067 8.96003C18.7733 7.79854 19.84 6.63707 20.9067 5.47559C22.3323 8.94628 23.7309 12.4307 25.1022 15.9289C24.6305 15.9997 24.1564 16.0235 23.68 16C22.6844 13.2275 21.6178 10.4779 20.48 7.75114C19.7451 8.58077 19.0104 9.41041 18.2756 10.24C16.7111 10.3349 15.1467 10.3349 13.5822 10.24C12.8973 9.38914 12.1388 8.60692 11.3067 7.89336C10.2014 10.5309 9.13472 13.1857 8.10667 15.8578C7.66226 16.0408 7.2119 16.0408 6.75555 15.8578C8.12525 12.4083 9.45267 8.94756 10.7378 5.47559Z"
            fill="#2D2D2D" />
        <path fill-rule="evenodd" clip-rule="evenodd"
            d="M16.8533 15.0046C16.5266 15.2598 16.2186 15.5442 15.9289 15.8579C15.5971 15.5261 15.2651 15.1942 14.9333 14.8624C14.8624 14.2955 14.8386 13.7266 14.8622 13.1557C13.9602 13.1794 13.0595 13.1556 12.16 13.0846C11.7527 12.7481 11.3734 12.3925 11.0222 12.0179C12.4662 11.8765 13.9359 11.8291 15.4311 11.8757C15.4311 12.8713 15.4311 13.8668 15.4311 14.8624C15.9349 14.8179 16.4089 14.8654 16.8533 15.0046Z"
            fill="#2A2A2A" />
        <path fill-rule="evenodd" clip-rule="evenodd"
            d="M24.8178 19.1289C25.1971 19.1289 25.5763 19.1289 25.9556 19.1289C25.9556 19.5556 25.9556 19.9822 25.9556 20.4089C26.7615 20.4089 27.5674 20.4089 28.3733 20.4089C28.3969 21.6424 28.3733 22.875 28.3022 24.1067C27.8948 25.2944 27.0652 25.721 25.8133 25.3867C25.8133 25.0074 25.8133 24.6282 25.8133 24.2489C26.2794 24.2893 26.7297 24.2419 27.1644 24.1067C27.2354 23.2546 27.2592 22.4013 27.2356 21.5467C26.8089 21.5467 26.3822 21.5467 25.9556 21.5467C25.8603 23.5371 24.8647 24.8171 22.9689 25.3867C22.7837 24.6551 23.0208 24.1573 23.68 23.8934C24.3987 23.2795 24.778 22.4973 24.8178 21.5467C24.2963 21.5467 23.7749 21.5467 23.2533 21.5467C23.2533 21.1674 23.2533 20.7882 23.2533 20.4089C23.7749 20.4089 24.2963 20.4089 24.8178 20.4089C24.8178 19.9822 24.8178 19.5556 24.8178 19.1289Z"
            fill="#2D2D2D" />
        <path fill-rule="evenodd" clip-rule="evenodd"
            d="M19.2711 19.4131C19.2711 19.4604 19.2711 19.5079 19.2711 19.5553C19.2243 21.5716 19.2717 23.5627 19.4133 25.5286C19.4048 25.6059 19.3574 25.6532 19.2711 25.6709C19.0825 23.562 19.0825 21.476 19.2711 19.4131Z"
            fill="#B2B2B2" />
        <path fill-rule="evenodd" clip-rule="evenodd"
            d="M19.2711 19.5557C19.6029 19.5557 19.9349 19.5557 20.2667 19.5557C20.22 21.051 20.2675 22.5206 20.4089 23.9646C21.0074 23.6989 21.5289 23.3196 21.9733 22.8268C22.1379 23.2938 22.1616 23.768 22.0444 24.249C21.2696 24.8853 20.3925 25.312 19.4133 25.529C19.2717 23.5631 19.2243 21.5719 19.2711 19.5557Z"
            fill="#2B2B2B" />
        <path fill-rule="evenodd" clip-rule="evenodd"
            d="M19.2711 19.5553C19.2711 19.5079 19.2711 19.4604 19.2711 19.4131C19.6504 19.4131 20.0296 19.4131 20.4089 19.4131C20.4089 20.9302 20.4089 22.4471 20.4089 23.9642C20.2675 22.5202 20.22 21.0506 20.2667 19.5553C19.9349 19.5553 19.6029 19.5553 19.2711 19.5553Z"
            fill="#565656" />
        <path fill-rule="evenodd" clip-rule="evenodd"
            d="M3.62668 19.6982C5.14372 19.6982 6.66075 19.6982 8.17779 19.6982C8.17779 20.0775 8.17779 20.4567 8.17779 20.836C6.66075 20.836 5.14372 20.836 3.62668 20.836C3.62668 20.4567 3.62668 20.0775 3.62668 19.6982Z"
            fill="#2E2E2E" />
        <path fill-rule="evenodd" clip-rule="evenodd"
            d="M10.1689 19.6982C11.7807 19.6982 13.3926 19.6982 15.0044 19.6982C15.0044 20.0775 15.0044 20.4567 15.0044 20.836C14.3882 20.836 13.7718 20.836 13.1556 20.836C13.1556 21.9738 13.1556 23.1116 13.1556 24.2494C13.8667 24.2494 14.5778 24.2494 15.2889 24.2494C15.2889 24.6287 15.2889 25.0078 15.2889 25.3871C13.44 25.3871 11.5911 25.3871 9.74222 25.3871C9.74222 25.0078 9.74222 24.6287 9.74222 24.2494C10.4533 24.2494 11.1644 24.2494 11.8756 24.2494C11.8756 23.1116 11.8756 21.9738 11.8756 20.836C11.3067 20.836 10.7378 20.836 10.1689 20.836C10.1689 20.4567 10.1689 20.0775 10.1689 19.6982Z"
            fill="#2E2E2E" />
        <path fill-rule="evenodd" clip-rule="evenodd"
            d="M17.1378 19.6982C17.5171 19.6982 17.8962 19.6982 18.2756 19.6982C18.4445 21.6046 18.2076 23.4535 17.5644 25.2449C17.1455 25.4092 16.7188 25.4328 16.2844 25.316C16.5515 24.7935 16.7649 24.2484 16.9244 23.6805C17.1059 22.3595 17.177 21.0321 17.1378 19.6982Z"
            fill="#2A2A2A" />
        <path fill-rule="evenodd" clip-rule="evenodd"
            d="M3.76889 21.9736C5.19111 21.9736 6.61333 21.9736 8.03556 21.9736C8.03556 22.3529 8.03556 22.7321 8.03556 23.1114C6.61333 23.1114 5.19111 23.1114 3.76889 23.1114C3.76889 22.7321 3.76889 22.3529 3.76889 21.9736Z"
            fill="#292929" />
        <path fill-rule="evenodd" clip-rule="evenodd"
            d="M8.31999 24.391C6.75555 24.391 5.1911 24.391 3.62666 24.391C3.62666 24.7228 3.62666 25.0548 3.62666 25.3866C3.48826 25.0384 3.44086 24.6591 3.48443 24.2488C5.12174 24.2022 6.73359 24.2495 8.31999 24.391Z"
            fill="#565656" />
        <path fill-rule="evenodd" clip-rule="evenodd"
            d="M30.08 24.249C30.4555 24.5873 30.4555 24.9429 30.08 25.3156C29.2277 25.5529 28.8721 25.2448 29.0133 24.3912C29.3436 23.9092 29.6991 23.8617 30.08 24.249Z"
            fill="#474747" />
        <path fill-rule="evenodd" clip-rule="evenodd"
            d="M30.08 24.2493C30.3511 24.7641 30.2088 25.0959 29.6533 25.2448C29.0623 25.0848 28.9675 24.8004 29.3689 24.3915C29.5707 24.2563 29.8076 24.2089 30.08 24.2493Z"
            fill="#E2E2E2" />
        <path fill-rule="evenodd" clip-rule="evenodd"
            d="M8.32001 24.3906C8.32001 24.7224 8.32001 25.0544 8.32001 25.3862C6.75557 25.3862 5.19112 25.3862 3.62668 25.3862C3.62668 25.0544 3.62668 24.7224 3.62668 24.3906C5.19112 24.3906 6.75557 24.3906 8.32001 24.3906Z"
            fill="#292929" />
        <path fill-rule="evenodd" clip-rule="evenodd"
            d="M29.3689 24.3906C30.0821 24.4423 30.1059 24.632 29.44 24.9595C29.3703 24.7756 29.3466 24.5859 29.3689 24.3906Z"
            fill="#4E4E4E" />
    </g>
    <defs>
        <clipPath id="clip0_4181_118">
            <rect width="32" height="32" fill="white" />
        </clipPath>
    </defs>
</svg>