<svg width="32" height="32" viewBox="0 0 33 33" fill="none" xmlns="http://www.w3.org/2000/svg">
    <path opacity="0.897" fill-rule="evenodd" clip-rule="evenodd"
        d="M10.0582 0.5C14.3063 0.5 18.5543 0.5 22.8024 0.5C27.7285 2.90072 30.9145 6.81179 32.3606 12.2332C28.1084 5.11496 22.0902 2.80387 14.3063 5.29995C12.0383 6.23462 10.6223 7.83461 10.0582 10.0999C6.50959 15.9113 7.57161 20.7113 13.2442 24.4997C15.3683 25.2109 17.4923 25.2109 19.6164 24.4997C21.5935 23.043 23.3635 21.443 24.9265 19.6998C21.8329 27.6533 16.1688 30.4976 7.93414 28.233C5.10208 26.0997 2.62404 23.6109 0.5 20.7664C0.5 17.211 0.5 13.6554 0.5 10.0999C1.8844 8.51385 3.12342 6.73609 4.21707 4.76662C6.35739 3.49028 8.30442 2.06807 10.0582 0.5Z"
        fill="#059BE3" />
    <path opacity="0.934" fill-rule="evenodd" clip-rule="evenodd"
        d="M32.3605 12.2334C32.3605 12.9446 32.3605 13.6556 32.3605 14.3667C29.6168 12.8332 27.1388 13.1887 24.9264 15.4334C22.0728 7.84115 17.1167 6.0634 10.0581 10.1001C10.6222 7.83483 12.0382 6.23485 14.3062 5.30018C22.0902 2.8041 28.1083 5.11519 32.3605 12.2334Z"
        fill="#3C6ACA" />
    <path fill-rule="evenodd" clip-rule="evenodd"
        d="M32.3605 14.3663C33.2286 22.6994 30.0426 28.7438 22.8024 32.4994C18.5543 32.4994 14.3062 32.4994 10.0581 32.4994C8.79057 31.6761 7.72855 30.6094 6.87207 29.2995C6.87207 28.5883 7.22607 28.2328 7.93409 28.2328C16.1688 30.4974 21.8328 27.6531 24.9264 19.6996C24.9264 18.2774 24.9264 16.8551 24.9264 15.433C27.1388 13.1883 29.6168 12.8328 32.3605 14.3663Z"
        fill="#06CFA7" />
    <path opacity="0.956" fill-rule="evenodd" clip-rule="evenodd"
        d="M0.5 20.7666C2.62404 23.611 5.10208 26.0999 7.93414 28.2332C7.22612 28.2332 6.87212 28.5887 6.87212 29.2998C6.08738 29.4396 5.37936 29.2618 4.74808 28.7665C3.47729 26.6169 2.06126 24.6613 0.5 22.8999C0.5 22.1888 0.5 21.4777 0.5 20.7666Z"
        fill="#09BEBC" />
</svg>