<svg width="32" height="32" viewBox="0 0 32 32" fill="none" xmlns="http://www.w3.org/2000/svg">
    <g clip-path="url(#clip0_3491_198)">
        <path fill-rule="evenodd" clip-rule="evenodd"
            d="M-0.0800781 -0.0800781C10.5866 -0.0800781 21.2532 -0.0800781 31.9199 -0.0800781C31.9199 10.5866 31.9199 21.2532 31.9199 31.9199C21.2532 31.9199 10.5866 31.9199 -0.0800781 31.9199C-0.0800781 21.2532 -0.0800781 10.5866 -0.0800781 -0.0800781Z"
            fill="#2B38E6" />
        <path fill-rule="evenodd" clip-rule="evenodd"
            d="M13.52 8.88015C15.4019 8.64853 16.8952 9.28853 18 10.8001C19.8566 8.83722 21.9899 8.43722 24.4 9.60015C25.0333 10.1475 25.4867 10.8142 25.76 11.6001C25.84 15.3864 25.8667 19.1731 25.84 22.9601C24.24 22.9601 22.64 22.9601 21.04 22.9601C21.0667 19.5464 21.04 16.1331 20.96 12.7201C20.4758 12.1818 19.9158 12.1018 19.28 12.4801C18.9266 12.7799 18.6333 13.1265 18.4 13.5201C18.32 16.6664 18.2933 19.8131 18.32 22.9601C16.72 22.9601 15.12 22.9601 13.52 22.9601C13.5467 19.5997 13.52 16.2397 13.44 12.8801C13.1116 12.2735 12.6049 12.0868 11.92 12.3201C11.5136 12.6729 11.1669 13.0729 10.88 13.5201C10.8 16.6664 10.7733 19.8131 10.8 22.9601C9.2 22.9601 7.6 22.9601 6 22.9601C6 18.4269 6 13.8935 6 9.36015C7.38667 9.36015 8.77333 9.36015 10.16 9.36015C10.2415 10.8939 10.7215 11.0272 11.6 9.76015C12.2108 9.37002 12.8508 9.07669 13.52 8.88015Z"
            fill="#F3F2FD" />
    </g>
    <defs>
        <clipPath id="clip0_3491_198">
            <rect width="32" height="32" fill="white" />
        </clipPath>
    </defs>
</svg>