<svg width="32" height="32" viewBox="0 0 33 33" fill="none" xmlns="http://www.w3.org/2000/svg">
    <path fill-rule="evenodd" clip-rule="evenodd"
        d="M0.928955 0.928711C11.572 0.928711 22.215 0.928711 32.8581 0.928711C32.8581 11.5717 32.8581 22.2147 32.8581 32.8575C22.215 32.8575 11.572 32.8575 0.928955 32.8575C0.928955 22.2147 0.928955 11.5717 0.928955 0.928711Z"
        fill="#FEFEFE" />
    <path
        d="M16.9663 1C8.16074 1 1 7.79388 1 16.1408C1 24.3197 6.95901 30.4244 15.832 31.3287L19.1571 31.6514L16.9167 29.742C16.8529 29.6882 10.3834 24.1651 11.3122 17.2233C11.4788 15.9828 11.7447 14.8836 12.0956 13.9356C12.5352 14.8701 12.6203 16.0568 12.6061 16.7258C12.5919 16.9073 12.5919 17.0216 12.5919 17.0485L14.3608 17.1123C14.3644 17.0888 14.3714 16.9846 14.375 16.8199C14.4317 16.1207 14.7543 14.0667 16.6118 13.5625C17.2747 13.3843 17.9022 13.2969 18.5119 13.2128C19.5931 13.0649 20.6424 12.917 21.7307 12.3153C22.4468 13.1859 22.9679 14.2482 23.1416 15.4551C23.645 18.9512 23.7903 25.1198 23.7903 25.1534C23.7903 25.2442 23.7797 27.0998 24.7226 29.9942C23.294 29.416 21.3691 28.5722 20.3305 27.8427C17.6009 25.9266 15.5767 22.9784 15.7256 21.1295C15.7823 20.4168 16.1545 19.8991 16.8671 19.5395C17.3775 19.284 17.8667 19.2268 18.3559 19.3714C19.4549 19.6941 20.3588 20.9513 20.6105 21.4085L22.1809 20.632C22.1313 20.5412 20.9154 18.3696 18.8841 17.7679C17.9305 17.4855 16.9734 17.583 16.034 18.057C14.7791 18.689 14.0595 19.7075 13.9567 21.0051C13.7972 23.0389 15.3924 26.4678 19.2741 29.1941C21.2486 30.5791 25.7046 32.1893 25.8924 32.2565L27.7571 32.9289L27.0304 31.1674C25.5592 27.6007 25.5592 25.1971 25.5592 25.1467C25.5521 24.8912 25.4139 18.8201 24.8928 15.2265C24.6836 13.7877 24.0349 12.4329 23.1061 11.3001C23.6201 10.8227 24.1448 10.2176 24.6943 9.43436L23.2196 8.50318C22.7481 9.17887 22.3085 9.68984 21.8867 10.0832C20.4616 8.89986 18.6927 8.15357 16.8919 8.14349C16.8813 8.14349 16.8706 8.14349 16.86 8.14349C15.6937 8.14349 13.5561 8.48637 11.851 10.6849C11.4823 9.84784 11.5568 9.10828 11.5639 9.06458L9.80559 8.86624C9.79495 8.95364 9.58226 10.7454 10.8336 12.3691C10.27 13.5591 9.81268 15.0752 9.5539 17.0115C8.8201 22.4943 12.0176 27.0494 14.0914 29.3622C7.24261 27.9301 2.77246 22.8103 2.77246 16.1408C2.77246 8.71833 9.13914 2.68082 16.9663 2.68082C24.7935 2.68082 31.1602 8.71833 31.1602 16.1408C31.1602 19.0453 29.9124 22.2691 27.8209 24.7601L29.2069 25.8056C31.575 22.9851 32.9291 19.4621 32.9291 16.1408C32.9327 7.79388 25.7684 1 16.9663 1ZM16.86 9.82431C16.8671 9.82431 16.8777 9.82431 16.8848 9.82431C18.0511 9.83103 19.3131 10.2781 20.4049 11.0681C19.7278 11.3505 19.0401 11.4446 18.2567 11.5522C17.6221 11.6396 16.9025 11.7371 16.1226 11.9489C15.0627 12.238 14.3218 12.8027 13.8043 13.4549C13.6057 12.9843 13.3363 12.5304 12.9818 12.1338C13.9567 10.6345 15.2754 9.82431 16.86 9.82431Z"
        fill="black" />
</svg>