<svg width="32" height="32" viewBox="0 0 33 33" fill="none" xmlns="http://www.w3.org/2000/svg">
<path fill-rule="evenodd" clip-rule="evenodd" d="M14.4768 0.717773C14.1758 0.820931 13.883 0.968452 13.5984 1.16034C13.7448 1.20951 13.8912 1.25868 14.0376 1.30786C14.9654 1.12953 15.8926 1.12953 16.8194 1.30786C15.2385 1.46151 13.6768 1.70739 12.1343 2.04546C12.1343 1.89794 12.1343 1.75042 12.1343 1.6029C13.8624 1.43569 13.8624 1.33734 12.1343 1.30786C12.8783 1.02209 13.6592 0.825392 14.4768 0.717773Z" fill="#5F5DCD"/>
<path fill-rule="evenodd" clip-rule="evenodd" d="M29.4106 6.76576C29.4106 7.06081 29.4106 7.35585 29.4106 7.65089C29.2155 7.65089 29.0201 7.65089 28.825 7.65089C28.8089 7.13454 28.6869 6.6428 28.459 6.17568C28.0995 6.35899 27.9287 6.65403 27.9465 7.06081C27.3609 7.06081 26.7752 7.06081 26.1896 7.06081C26.1896 7.20833 26.1896 7.35585 26.1896 7.50337C26.5252 7.46554 26.8424 7.51471 27.1413 7.65089C27.1922 8.00829 27.0215 8.15581 26.6288 8.09345C26.2545 7.98089 25.9129 7.80878 25.6039 7.57713C26.1042 7.39414 26.1285 7.22203 25.6772 7.06081C25.3242 7.20574 24.9581 7.3041 24.5791 7.35585C23.746 7.23866 22.9407 7.18947 22.1633 7.20833C22.0916 7.3991 22.0671 7.59581 22.0901 7.79841C21.7784 7.90209 21.4856 8.04961 21.2116 8.24097C19.0302 9.04495 16.883 9.93008 14.7695 10.8964C14.6228 10.6735 14.5252 10.4276 14.4767 10.1588C13.9291 10.3386 13.3923 10.5599 12.8662 10.8226C12.5806 11.0784 12.4342 11.3981 12.427 11.7815C12.6222 11.7815 12.8174 11.7815 13.0126 11.7815C13.0126 11.9782 13.0126 12.1749 13.0126 12.3716C12.8174 12.3716 12.6222 12.3716 12.427 12.3716C12.427 12.5683 12.427 12.765 12.427 12.9617C11.582 12.6125 10.7035 12.3174 9.79158 12.0765C9.69153 11.8292 9.4963 11.7309 9.20594 11.7815C9.05953 11.7815 8.91312 11.7815 8.76671 11.7815C8.86341 11.2802 8.7658 10.7885 8.47389 10.3063C7.38854 9.89014 6.26607 9.69345 5.10644 9.71619C5.10644 9.86371 5.10644 10.0112 5.10644 10.1588C4.66564 10.207 4.29961 10.4037 4.00836 10.7488C3.95956 10.6997 3.91075 10.6505 3.86195 10.6013C3.56804 11.0197 3.25081 11.4131 2.91028 11.7815C2.79107 12.1158 2.71786 12.46 2.69066 12.8141C2.55025 12.3912 2.37943 11.9733 2.17822 11.5602C2.42645 10.9205 2.57286 10.2567 2.61745 9.56867C2.98925 8.65563 3.47728 7.81967 4.08156 7.06081C4.22797 7.06081 4.37438 7.06081 4.5208 7.06081C4.716 6.71659 4.91123 6.37237 5.10644 6.02816C5.9959 6.0242 6.38633 5.58164 6.27772 4.70047C6.60735 4.28817 6.99779 3.94396 7.44901 3.66782C7.66538 3.70647 7.8606 3.6573 8.03465 3.5203C8.26587 3.34815 8.46108 3.15146 8.6203 2.93021C8.96631 2.6086 9.35674 2.36273 9.79158 2.19261C10.3735 2.19469 10.8616 1.99798 11.2557 1.60252C11.5067 1.41983 11.7995 1.32149 12.1342 1.30748C13.8623 1.33696 13.8623 1.43531 12.1342 1.60252C12.1342 1.75004 12.1342 1.89756 12.1342 2.04508C13.6767 1.70701 15.2384 1.46114 16.8193 1.30748C15.8925 1.12915 14.9653 1.12915 14.0375 1.30748C13.8911 1.25831 13.7447 1.20913 13.5983 1.15996C13.8829 0.968072 14.1757 0.820551 14.4767 0.717394C19.8831 0.0866489 24.5438 1.6602 28.459 5.43807C28.8488 5.8316 29.1661 6.27416 29.4106 6.76576Z" fill="#5D57D6"/>
<path fill-rule="evenodd" clip-rule="evenodd" d="M11.2556 1.60254C10.8615 1.998 10.3735 2.1947 9.7915 2.19262C10.2366 1.92031 10.7246 1.72362 11.2556 1.60254Z" fill="#6F6BC2"/>
<path fill-rule="evenodd" clip-rule="evenodd" d="M8.62026 2.93066C8.46104 3.15192 8.26583 3.34861 8.03462 3.52075C7.86056 3.65775 7.66534 3.70692 7.44897 3.66827C7.7607 3.30683 8.15112 3.06097 8.62026 2.93066Z" fill="#746DBF"/>
<path fill-rule="evenodd" clip-rule="evenodd" d="M6.2777 4.7002C6.38631 5.58137 5.99588 6.02393 5.10642 6.02789C4.91121 6.3721 4.71598 6.71632 4.52078 7.06053C4.37436 7.06053 4.22795 7.06053 4.08154 7.06053C4.41584 6.55066 4.78187 6.05892 5.17962 5.58532C5.48792 5.19916 5.85395 4.90411 6.2777 4.7002Z" fill="#665FC1"/>
<path fill-rule="evenodd" clip-rule="evenodd" d="M15.0623 5.73341C15.2163 5.71135 15.3628 5.73594 15.5015 5.80717C15.7452 6.1503 15.9892 6.49451 16.2336 6.83982C16.121 7.3182 15.9746 7.78535 15.7944 8.24127C15.3046 8.39751 14.8166 8.37292 14.3303 8.16751C13.8621 7.60865 13.6669 6.99398 13.7446 6.32349C14.3098 6.38927 14.749 6.19257 15.0623 5.73341Z" fill="#7772D1"/>
<path fill-rule="evenodd" clip-rule="evenodd" d="M14.9159 6.02832C15.1731 6.14516 15.3684 6.34185 15.5015 6.61841C16.1358 6.67951 16.209 6.87621 15.7212 7.20849C15.6916 7.46748 15.6184 7.71335 15.5015 7.9461C15.2087 7.74941 14.9159 7.74941 14.6231 7.9461C14.5218 7.55589 14.3754 7.18708 14.1838 6.83969C14.6534 6.75535 14.8974 6.4849 14.9159 6.02832Z" fill="#F5F4FC"/>
<path fill-rule="evenodd" clip-rule="evenodd" d="M23.8469 7.65137C25.6062 8.12109 27.3142 8.71117 28.9713 9.42162C28.9225 9.42162 28.8736 9.42162 28.8249 9.42162C28.6297 9.42162 28.5321 9.51997 28.5321 9.71666C27.953 9.66474 27.465 9.83683 27.068 10.233C26.5311 10.3313 25.9943 10.3313 25.4574 10.233C25.1153 9.68654 24.7736 9.14562 24.4326 8.61025C24.509 8.52745 24.5577 8.4291 24.579 8.31521C24.3067 8.10626 24.0626 7.88498 23.8469 7.65137Z" fill="#A5C3FA"/>
<path fill-rule="evenodd" clip-rule="evenodd" d="M26.1895 10.8968C26.2535 11.1291 26.3999 11.3012 26.6288 11.4132C26.9626 11.4444 27.2554 11.5673 27.5072 11.782C27.9314 11.4214 28.3462 11.4214 28.7517 11.782C28.8901 11.7222 28.9877 11.6238 29.0446 11.4869C29.1482 11.6168 29.2703 11.7152 29.4106 11.782C30.0052 12.4386 30.3467 13.2253 30.4355 14.1423C30.5819 14.1423 30.7283 14.1423 30.8747 14.1423C31.0431 14.5551 31.2382 14.9485 31.4603 15.3225C31.6965 16.1054 31.9404 16.8921 32.1924 17.6828C32.1924 17.9779 32.1924 18.2729 32.1924 18.5679C32.3388 18.5679 32.4852 18.5679 32.6316 18.5679C32.3559 18.7818 32.2095 19.0769 32.1924 19.4531C32.2343 21.0221 31.8195 22.448 30.9479 23.7312C30.8805 23.3175 30.9538 22.9241 31.1675 22.551C31.0906 22.4489 30.993 22.3752 30.8747 22.3297C31.2299 22.0428 31.3518 21.674 31.2407 21.2233C31.192 21.3217 31.1431 21.42 31.0943 21.5184C30.7113 21.2401 30.394 20.896 30.1426 20.4857C30.305 20.2329 30.2074 20.1345 29.8498 20.1907C28.9182 17.814 27.9421 15.4536 26.9216 13.1097C25.9755 13.6358 24.9994 14.0784 23.9934 14.4373C24.037 14.8452 24.1834 15.214 24.4326 15.5438C24.8601 15.4421 25.2994 15.3191 25.7503 15.175C26.0455 15.1773 26.1919 15.3248 26.1895 15.6175C26.1654 16.1607 26.1897 16.7015 26.2628 17.2402C26.3115 17.1911 26.3604 17.1419 26.4092 17.0927C26.4358 17.4949 26.509 17.8883 26.6288 18.2729C26.9223 18.6461 27.1176 19.0641 27.2144 19.5268C26.6169 19.2875 25.9825 19.0663 25.3111 18.863C25.2111 18.9165 25.1134 18.9657 25.0183 19.0105C24.8559 19.0021 24.7095 18.953 24.579 18.863C24.4227 18.7252 24.2275 18.6759 23.9934 18.7155C24.7455 17.3867 24.5016 16.2803 23.2613 15.3962C21.8941 14.9907 20.674 15.2613 19.6011 16.2076C18.7525 15.8689 17.8984 15.5246 17.0389 15.175C16.5702 14.9748 16.3017 14.6306 16.2336 14.1423C16.0872 14.1423 15.9408 14.1423 15.7944 14.1423C15.8162 14.2975 15.7919 14.445 15.7212 14.5849C15.6565 14.2635 15.5101 14.1651 15.2819 14.2898C15.0213 14.1217 14.7529 13.9742 14.4767 13.8473C14.2917 13.1408 14.0477 12.4524 13.7446 11.782C13.8492 11.3815 14.0932 11.1357 14.4767 11.0444C14.5267 10.9207 14.6243 10.8715 14.7695 10.8968C16.8829 9.93056 19.0302 9.04543 21.2116 8.24146C21.728 8.25674 22.1672 8.08463 22.5293 7.72513C22.8709 7.62678 23.2126 7.62678 23.5542 7.72513C23.9171 8.64355 24.3076 9.55327 24.7254 10.4543C25.1569 10.7794 25.6449 10.9269 26.1895 10.8968Z" fill="#E5E4EA"/>
<path fill-rule="evenodd" clip-rule="evenodd" d="M29.4107 6.76587C30.2045 7.48067 30.6927 8.36579 30.8748 9.42125C31.0212 9.42125 31.1676 9.42125 31.314 9.42125C31.6068 10.3063 31.8997 11.1914 32.1925 12.0766C32.1925 12.47 32.1925 12.8634 32.1925 13.2568C32.0853 13.0638 31.9632 12.8671 31.8265 12.6667C31.7535 13.156 31.7291 13.6477 31.7533 14.1419C31.8997 14.1419 32.0461 14.1419 32.1925 14.1419C32.1925 14.3386 32.1925 14.5353 32.1925 14.732C31.7533 14.7812 31.5581 14.5845 31.6068 14.1419C31.4604 14.1419 31.314 14.1419 31.1676 14.1419C31.1433 12.8511 31.241 11.5726 31.4604 10.3064C31.314 10.3064 31.1676 10.3064 31.0212 10.3064C31.0129 11.0708 30.9152 11.0708 30.7284 10.3064C30.6796 10.4293 30.6307 10.5522 30.582 10.6752C30.7799 11.0088 30.8776 11.3776 30.8748 11.7816C30.6801 12.4715 30.6801 13.16 30.8748 13.8469C30.1621 12.4102 29.5277 10.935 28.9714 9.42125C27.3144 8.7108 25.6063 8.12072 23.8471 7.65099C23.2528 7.30557 22.6671 7.35474 22.0901 7.79851C22.0672 7.59591 22.0916 7.3992 22.1633 7.20843C22.9408 7.18958 23.746 7.23876 24.5791 7.35595C24.9582 7.3042 25.3242 7.20585 25.6772 7.06091C26.1286 7.22213 26.1043 7.39425 25.604 7.57723C25.9129 7.80889 26.2545 7.981 26.6289 8.09356C27.0216 8.15591 27.1923 8.00839 27.1413 7.65099C26.8425 7.51482 26.5252 7.46565 26.1896 7.50347C26.1896 7.35595 26.1896 7.20843 26.1896 7.06091C26.7753 7.06091 27.3609 7.06091 27.9466 7.06091C27.9287 6.65413 28.0996 6.35909 28.459 6.17578C28.687 6.64291 28.8089 7.13464 28.825 7.65099C29.0202 7.65099 29.2155 7.65099 29.4107 7.65099C29.4107 7.35595 29.4107 7.06091 29.4107 6.76587Z" fill="#5E59D0"/>
<path fill-rule="evenodd" clip-rule="evenodd" d="M23.8471 7.65061C24.0627 7.88423 24.3068 8.10551 24.5791 8.31446C24.5579 8.42834 24.5091 8.5267 24.4327 8.6095C24.7737 9.14487 25.1154 9.68578 25.4576 10.2322C25.9945 10.3306 26.5312 10.3306 27.0681 10.2322C27.4652 9.83608 27.9532 9.66398 28.5322 9.71591C27.7474 10.1161 26.9666 10.5095 26.1896 10.8961C25.645 10.9262 25.157 10.7786 24.7255 10.4535C24.3077 9.55251 23.9172 8.64279 23.5542 7.72437C23.2127 7.62602 22.8709 7.62602 22.5294 7.72437C22.1673 8.08387 21.7281 8.25598 21.2117 8.2407C21.4856 8.04933 21.7784 7.90181 22.0901 7.79813C22.6671 7.35436 23.2528 7.30519 23.8471 7.65061Z" fill="#B1C6E9"/>
<path fill-rule="evenodd" clip-rule="evenodd" d="M14.7696 10.8968C14.6244 10.8715 14.5268 10.9207 14.4768 11.0443C14.1311 11.07 13.7894 11.1192 13.4519 11.1918C13.4519 11.6344 13.4519 12.077 13.4519 12.5195C13.3055 12.5195 13.1591 12.5195 13.0126 12.5195C13.1446 13.0714 12.9494 13.3664 12.427 13.4046C12.427 13.2571 12.427 13.1096 12.427 12.9621C12.427 12.7654 12.427 12.5687 12.427 12.372C12.6222 12.372 12.8174 12.372 13.0126 12.372C13.0126 12.1753 13.0126 11.9786 13.0126 11.7819C12.8174 11.7819 12.6222 11.7819 12.427 11.7819C12.4342 11.3985 12.5806 11.0789 12.8662 10.823C13.3923 10.5603 13.9291 10.3391 14.4768 10.1592C14.5252 10.428 14.6228 10.6739 14.7696 10.8968Z" fill="#5B54DA"/>
<path fill-rule="evenodd" clip-rule="evenodd" d="M28.8251 9.4209C29.1441 10.1637 29.3394 10.9505 29.4107 11.7812C29.2705 11.7144 29.1484 11.6161 29.0447 11.4862C28.9879 11.6231 28.8902 11.7214 28.7519 11.7812C28.3463 11.4207 27.9315 11.4207 27.5074 11.7812C27.2556 11.5666 26.9627 11.4437 26.6289 11.4124C26.4001 11.3005 26.2537 11.1284 26.1897 10.8961C26.9667 10.5096 27.7475 10.1162 28.5323 9.71594C28.5323 9.51925 28.6299 9.4209 28.8251 9.4209Z" fill="#D0D1D5"/>
<path fill-rule="evenodd" clip-rule="evenodd" d="M8.76668 11.7819C8.71788 11.7819 8.66907 11.7819 8.62027 11.7819C8.69027 11.4262 8.59266 11.082 8.32745 10.7493C8.08343 10.6509 7.83942 10.5526 7.59539 10.4542C7.47863 10.5216 7.42982 10.62 7.44898 10.7493C6.77306 10.7058 6.18742 10.8288 5.69205 11.1181C5.50272 11.1903 5.30749 11.2149 5.10641 11.1918C5.10641 11.3885 5.10641 11.5852 5.10641 11.7819C4.68062 11.7468 4.339 11.8944 4.08154 12.2245C3.82584 12.8495 3.63063 13.4888 3.49589 14.1422C3.34989 14.1378 3.25228 14.2116 3.20307 14.3635C2.93463 15.0516 2.78822 15.7647 2.76384 16.5026C2.56091 17.4227 2.58532 18.3571 2.83704 19.3055C3.09965 19.7059 3.27046 20.1484 3.34948 20.6332C3.8454 21.0424 4.11382 21.5834 4.15474 22.2559C4.50525 22.5839 4.82248 22.9282 5.10641 23.2886C4.2855 22.7809 3.52904 22.1909 2.83704 21.5183C2.78825 21.6658 2.73943 21.8133 2.69063 21.9609C2.54832 21.6946 2.3775 21.4487 2.1782 21.2233C1.87788 19.6885 1.73147 19.6885 1.73896 21.2233C1.45534 20.4736 1.26013 19.6868 1.15332 18.8629C1.41026 19.7935 1.62988 19.7935 1.81217 18.8629C1.88467 17.676 1.81146 16.4958 1.59255 15.3224C1.64136 14.929 1.69016 14.5356 1.73896 14.1422C1.90729 14.6212 2.0293 15.1129 2.10499 15.6175C2.30042 14.781 2.49564 13.945 2.69063 13.1096C3.11178 12.8031 3.50222 12.4589 3.86192 12.0769C3.89464 11.263 4.30947 10.8204 5.10641 10.7493C5.10641 10.5526 5.10641 10.3559 5.10641 10.1592C5.10641 10.0117 5.10641 9.86413 5.10641 9.71661C6.26604 9.69388 7.38852 9.89057 8.47386 10.3067C8.76577 10.7889 8.86339 11.2806 8.76668 11.7819Z" fill="#6F6CD9"/>
<path fill-rule="evenodd" clip-rule="evenodd" d="M7.44888 11.0441C7.57719 11.0248 7.6748 11.074 7.7417 11.1916C7.57622 11.3572 7.47861 11.5539 7.44888 11.7817C7.23538 12.1405 7.06456 12.5339 6.93644 12.9619C6.49089 15.2564 7.05213 17.2233 8.62016 18.8627C9.50343 19.9903 10.6747 20.6295 12.134 20.7805C12.4968 20.8785 12.8872 20.9276 13.3053 20.928C13.8864 20.9584 14.4232 20.86 14.9158 20.633C15.111 20.633 15.2086 20.7314 15.2086 20.928C14.7503 21.3159 14.3111 21.7338 13.8909 22.182C13.2682 22.4704 12.6826 22.7901 12.134 23.1409C9.8303 23.7584 7.73176 23.3649 5.83836 21.9607C5.68946 21.605 5.44543 21.3591 5.1063 21.2231C3.16085 18.4255 3.16085 15.6226 5.1063 12.8144C5.6978 12.2181 6.33224 11.6772 7.00964 11.1916C7.17201 11.1832 7.31842 11.1341 7.44888 11.0441Z" fill="#FCFCFD"/>
<path fill-rule="evenodd" clip-rule="evenodd" d="M28.825 9.4209C28.8737 9.4209 28.9226 9.4209 28.9714 9.4209C29.5276 10.9346 30.162 12.4098 30.8747 13.8465C30.8747 13.9449 30.8747 14.0432 30.8747 14.1416C30.7283 14.1416 30.5819 14.1416 30.4355 14.1416C30.3467 13.2246 30.0052 12.4378 29.4106 11.7812C29.3393 10.9505 29.144 10.1637 28.825 9.4209Z" fill="#D6D6F3"/>
<path fill-rule="evenodd" clip-rule="evenodd" d="M32.1925 13.2571C32.3933 13.9611 32.5152 14.6987 32.5586 15.4699C32.6147 15.5519 32.6879 15.601 32.7782 15.6174C32.7782 15.9124 32.7782 16.2075 32.7782 16.5025C32.6586 16.8668 32.5854 17.2601 32.5586 17.6827C32.3207 17.1174 32.1742 16.5273 32.1193 15.9124C31.8237 15.786 31.6041 15.5892 31.4605 15.3224C31.2384 14.9484 31.0432 14.555 30.8749 14.1422C30.8749 14.0438 30.8749 13.9455 30.8749 13.8471C30.6801 13.1602 30.6801 12.4718 30.8749 11.7819C30.8776 11.3779 30.78 11.009 30.582 10.6754C30.6308 10.5525 30.6797 10.4296 30.7284 10.3066C30.9153 11.0711 31.0129 11.0711 31.0213 10.3066C31.1677 10.3066 31.3141 10.3066 31.4605 10.3066C31.241 11.5729 31.1434 12.8514 31.1677 14.1422C31.3141 14.1422 31.4605 14.1422 31.6069 14.1422C31.5582 14.5848 31.7533 14.7814 32.1925 14.7323C32.1925 14.5356 32.1925 14.3389 32.1925 14.1422C32.0461 14.1422 31.8997 14.1422 31.7533 14.1422C31.7292 13.648 31.7536 13.1563 31.8265 12.667C31.9633 12.8674 32.0854 13.0641 32.1925 13.2571Z" fill="#5D55DB"/>
<path fill-rule="evenodd" clip-rule="evenodd" d="M7.44894 10.7487C7.8852 10.7105 8.15362 10.9072 8.2542 11.3388C8.42863 13.2525 8.55064 15.1704 8.62023 17.0921C8.52983 17.0758 8.45663 17.0266 8.40061 16.9446C8.31071 15.0732 8.1399 13.2537 7.88817 11.4863C7.88817 11.2896 7.88817 11.0929 7.88817 10.8963C7.69916 10.8612 7.55275 10.9104 7.44894 11.0438C7.31849 11.1337 7.17208 11.1829 7.00971 11.1913C6.4886 11.3277 6.00056 11.5244 5.5456 11.7814C5.5456 11.9289 5.5456 12.0764 5.5456 12.2239C4.61034 12.1833 4.0735 12.6259 3.93508 13.5516C3.93508 13.7483 3.93508 13.945 3.93508 14.1417C3.78867 14.1417 3.64226 14.1417 3.49585 14.1417C3.63059 13.4882 3.8258 12.849 4.08149 12.2239C4.33896 11.8938 4.68058 11.7463 5.10637 11.7814C5.10637 11.5847 5.10637 11.388 5.10637 11.1913C5.30745 11.2144 5.50267 11.1898 5.69201 11.1175C6.18738 10.8282 6.77302 10.7053 7.44894 10.7487Z" fill="#7B79CD"/>
<path fill-rule="evenodd" clip-rule="evenodd" d="M2.61745 9.56836C2.57285 10.2564 2.42644 10.9202 2.17822 11.5599C2.37943 11.973 2.55025 12.3909 2.69065 12.8138C2.71786 12.4597 2.79106 12.1155 2.91027 11.7812C3.25081 11.4128 3.56803 11.0194 3.86194 10.601C3.91074 10.6502 3.95955 10.6994 4.00835 10.7485C4.29961 10.4034 4.66563 10.2067 5.10643 10.1584C5.10643 10.3551 5.10643 10.5518 5.10643 10.7485C4.30949 10.8197 3.89466 11.2622 3.86194 12.0762C3.50224 12.4582 3.1118 12.8024 2.69065 13.1089C2.49566 13.9443 2.30044 14.7803 2.10501 15.6167C2.02932 15.1122 1.90731 14.6205 1.73898 14.1415C1.69018 14.5349 1.64138 14.9282 1.59257 15.3217C1.81148 16.4951 1.88469 17.6752 1.81219 18.8622C1.6299 19.7928 1.41028 19.7928 1.15334 18.8622C0.582209 15.5931 1.07024 12.4952 2.61745 9.56836Z" fill="#6761D6"/>
<path fill-rule="evenodd" clip-rule="evenodd" d="M7.00968 11.1914C6.33229 11.6769 5.69784 12.2178 5.10634 12.8141C4.62275 12.9102 4.23232 13.1561 3.93506 13.5517C4.07348 12.626 4.61032 12.1834 5.54558 12.2241C5.54558 12.0765 5.54558 11.929 5.54558 11.7815C6.00053 11.5245 6.48858 11.3278 7.00968 11.1914Z" fill="#9191CD"/>
<path fill-rule="evenodd" clip-rule="evenodd" d="M32.1924 12.0762C32.4524 12.9792 32.6476 13.9135 32.778 14.8791C32.778 15.125 32.778 15.3708 32.778 15.6167C32.6877 15.6003 32.6145 15.5512 32.5584 15.4692C32.5151 14.6979 32.3931 13.9603 32.1924 13.2563C32.1924 12.8629 32.1924 12.4696 32.1924 12.0762Z" fill="#6C67BA"/>
<path fill-rule="evenodd" clip-rule="evenodd" d="M14.4767 11.0439C14.0932 11.1352 13.8492 11.3811 13.7447 11.7816C14.0477 12.452 14.2917 13.1404 14.4767 13.8468C14.9796 14.6644 15.3212 15.5495 15.5016 16.5022C15.4782 16.7529 15.5025 16.9988 15.5748 17.2398C16.0007 17.5662 16.0252 17.8366 15.648 18.0512C15.5416 17.8448 15.4684 17.6235 15.4284 17.3874C15.3796 17.879 15.3307 18.3709 15.282 18.8626C15.1919 18.6242 15.0455 18.4275 14.8428 18.2725C14.8146 17.9661 14.7414 17.671 14.6231 17.3874C13.6007 17.5285 12.5758 17.6023 11.5485 17.6086C11.0391 17.2676 10.5998 16.8495 10.2308 16.3547C10.671 16.1706 11.1102 16.1706 11.5485 16.3547C11.9563 16.0985 12.1515 15.7297 12.1342 15.2483C12.0118 14.881 11.9142 14.5122 11.8413 14.1419C11.5347 14.2514 11.2175 14.3497 10.8897 14.4369C10.7188 14.3878 10.548 14.3386 10.3772 14.2894C10.6349 13.8893 10.7326 13.4467 10.67 12.9617C10.469 12.9848 10.2737 12.9602 10.0844 12.888C10.2074 12.6421 10.1342 12.6175 9.86479 12.8142C9.79253 12.5731 9.76812 12.3273 9.79158 12.0766C10.7035 12.3175 11.582 12.6125 12.427 12.9617C12.427 13.1092 12.427 13.2568 12.427 13.4043C12.9494 13.366 13.1446 13.071 13.0126 12.5192C13.159 12.5192 13.3054 12.5192 13.4518 12.5192C13.4518 12.0766 13.4518 11.634 13.4518 11.1915C13.7894 11.1188 14.131 11.0696 14.4767 11.0439Z" fill="#534EC2"/>
<path fill-rule="evenodd" clip-rule="evenodd" d="M29.8498 20.1904C29.9866 20.4469 29.9866 20.6927 29.8498 20.928C29.3872 21.1533 28.8992 21.2515 28.3857 21.223C27.7636 19.2899 27.0316 17.4214 26.1896 15.6172C26.1919 15.3246 26.0455 15.177 25.7503 15.1747C25.2994 15.3188 24.8602 15.4418 24.4326 15.5435C24.1834 15.2138 24.037 14.845 23.9934 14.4371C24.9994 14.0781 25.9755 13.6355 26.9216 13.1094C27.9421 15.4533 28.9182 17.8137 29.8498 20.1904Z" fill="#9292AE"/>
<path fill-rule="evenodd" clip-rule="evenodd" d="M7.4491 11.0442C7.55291 10.9108 7.69932 10.8617 7.88833 10.8967C7.88833 11.0934 7.88833 11.2901 7.88833 11.4867C7.63077 13.3671 7.75279 15.2357 8.25436 17.0926C8.58591 17.3014 8.75672 17.5965 8.7668 17.9777C8.62039 17.8793 8.47398 17.781 8.32757 17.6826C8.11871 17.4395 7.99669 17.1445 7.96154 16.7975C7.86065 16.6711 7.73864 16.5728 7.59551 16.5025C7.44929 14.932 7.40049 13.3584 7.4491 11.7818C7.47884 11.554 7.57645 11.3573 7.74192 11.1917C7.67503 11.0741 7.57741 11.0249 7.4491 11.0442Z" fill="#8F8FCA"/>
<path fill-rule="evenodd" clip-rule="evenodd" d="M7.88816 11.4863C8.13988 13.2537 8.3107 15.0732 8.4006 16.9446C8.45661 17.0266 8.52982 17.0758 8.62021 17.0921C8.92098 17.4958 9.28701 17.8399 9.71829 18.1248C9.79055 18.3658 9.81495 18.6117 9.7915 18.8624C10.9458 19.2648 12.117 19.6336 13.3054 19.9688C13.6928 20.0421 14.0832 20.0668 14.4766 20.0426C14.7782 20.236 15.0954 20.236 15.4283 20.0426C15.6431 20.377 15.7163 20.7704 15.6479 21.2227C15.5867 21.7044 15.4159 22.1469 15.1355 22.5504C14.9369 22.6802 14.7173 22.7295 14.4766 22.6979C14.465 22.487 14.5139 22.2902 14.6231 22.1079C14.8671 21.9603 15.0623 21.7637 15.2087 21.5178C15.0824 21.3369 15.0824 21.1401 15.2087 20.9277C15.2087 20.731 15.1111 20.6326 14.9159 20.6326C13.7593 20.5096 12.5881 20.3375 11.402 20.1163C10.8258 19.6966 10.1914 19.4016 9.49868 19.2312C9.26728 18.787 9.02325 18.3691 8.76662 17.9773C8.75655 17.5961 8.58573 17.301 8.25419 17.0921C7.75261 15.2353 7.63059 13.3667 7.88816 11.4863Z" fill="#8280CA"/>
<path fill-rule="evenodd" clip-rule="evenodd" d="M7.44889 11.7812C7.40028 13.3579 7.44908 14.9314 7.5953 16.5019C7.73843 16.5723 7.86044 16.6705 7.96133 16.797C7.99648 17.1439 8.1185 17.439 8.32736 17.6821C8.35577 18.0996 8.45339 18.4929 8.62018 18.8623C7.05215 17.2229 6.49091 15.256 6.93645 12.9614C7.06458 12.5334 7.23539 12.1401 7.44889 11.7812Z" fill="#AAACC3"/>
<path fill-rule="evenodd" clip-rule="evenodd" d="M24.5792 18.8631C24.3351 18.8631 24.0912 18.8631 23.8471 18.8631C23.8471 18.6171 23.8471 18.3714 23.8471 18.1255C23.5073 17.9813 23.1657 17.8338 22.8222 17.6829C22.6373 16.6308 22.0517 16.3111 21.0653 16.724C20.6106 17.0509 20.3665 17.4935 20.3332 18.0517C19.0396 18.8328 18.6248 18.464 19.0888 16.9453C19.1908 16.6379 19.3617 16.3919 19.6012 16.2077C20.6741 15.2613 21.8943 14.9908 23.2615 15.3963C24.5017 16.2804 24.7456 17.3868 23.9935 18.7155C24.2276 18.676 24.4228 18.7253 24.5792 18.8631Z" fill="#8E8DAA"/>
<path fill-rule="evenodd" clip-rule="evenodd" d="M31.4604 15.3223C31.6041 15.5891 31.8237 15.7859 32.1193 15.9124C32.1742 16.5272 32.3206 17.1173 32.5585 17.6826C32.5853 17.26 32.6585 16.8667 32.7781 16.5024C32.8389 17.0741 32.7657 17.615 32.5585 18.1252C32.5033 17.9124 32.3814 17.7649 32.1925 17.6826C31.9405 16.8919 31.6966 16.1052 31.4604 15.3223Z" fill="#635CC3"/>
<path fill-rule="evenodd" clip-rule="evenodd" d="M5.10641 12.8145C3.16097 15.6227 3.16097 18.4256 5.10641 21.2232C4.71182 21.1965 4.3702 21.0489 4.08154 20.7806C3.18881 18.6348 2.9936 16.4219 3.4959 14.1421C3.64231 14.1421 3.78872 14.1421 3.93513 14.1421C3.93513 13.9455 3.93513 13.7487 3.93513 13.5521C4.23239 13.1564 4.62282 12.9105 5.10641 12.8145Z" fill="#A2A3CF"/>
<path fill-rule="evenodd" clip-rule="evenodd" d="M9.20598 11.7815C9.49634 11.7308 9.69157 11.8292 9.79162 12.0765C9.76817 12.3272 9.79258 12.573 9.86483 12.8141C10.1343 12.6174 10.2075 12.642 10.0844 12.8879C10.2738 12.9602 10.469 12.9847 10.6701 12.9616C10.7326 13.4466 10.635 13.8892 10.3773 14.2893C10.5481 14.3385 10.7189 14.3877 10.8897 14.4368C11.2175 14.3496 11.5347 14.2513 11.8414 14.1418C11.9142 14.5121 12.0118 14.8809 12.1342 15.2482C12.1515 15.7296 11.9563 16.0984 11.5486 16.3546C11.1102 16.1705 10.671 16.1705 10.2309 16.3546C10.5999 16.8494 11.0391 17.2675 11.5486 17.6085C12.5758 17.6022 13.6007 17.5284 14.6232 17.3873C14.7415 17.6709 14.8147 17.966 14.8428 18.2724C15.0455 18.4274 15.192 18.6241 15.282 18.8625C15.3308 18.3708 15.3797 17.879 15.4284 17.3873C15.4684 17.6234 15.5416 17.8447 15.6481 18.0511C16.0252 17.8365 16.0008 17.5661 15.5748 17.2397C15.5025 16.9987 15.4782 16.7528 15.5016 16.5021C15.9608 17.0496 16.2536 17.6889 16.3801 18.4199C16.2899 19.4207 15.8019 19.6911 14.916 19.2313C15.1039 19.0399 15.0795 18.8678 14.8428 18.715C14.6483 18.8616 14.4531 19.0091 14.2572 19.1575C13.5643 18.9349 12.8566 18.7874 12.1342 18.715C12.1663 18.5416 12.1175 18.3941 11.9878 18.2724C11.695 18.1249 11.4021 17.9773 11.1093 17.8298C10.9686 17.4175 10.7002 17.1225 10.3041 16.9447C10.1389 16.6725 10.0657 16.3775 10.0844 16.0596C11.2523 16.335 11.7403 15.8924 11.5486 14.7319C11.4021 14.7319 11.2557 14.7319 11.1093 14.7319C10.8008 14.5891 10.4592 14.5399 10.0844 14.5844C10.0844 14.7319 10.0844 14.8794 10.0844 15.0269C9.9653 15.3413 9.89209 15.6855 9.86483 16.0596C9.74001 15.8199 9.5936 15.7707 9.4256 15.9121C9.3815 15.3987 9.25949 14.907 9.05957 14.4368C9.1934 13.5577 9.2422 12.6726 9.20598 11.7815Z" fill="#5854C2"/>
<path fill-rule="evenodd" clip-rule="evenodd" d="M11.1093 14.7317C11.1581 14.8301 11.2069 14.9284 11.2557 15.0268C11.0296 14.9968 10.8344 14.8984 10.6701 14.7317C10.5236 14.8793 10.3772 15.0268 10.2308 15.1743C10.34 15.3566 10.3888 15.5534 10.3772 15.7644C10.6113 15.7248 10.8066 15.7741 10.9629 15.9119C10.2805 16.0104 9.9877 15.7154 10.0844 15.0268C10.0844 14.8793 10.0844 14.7317 10.0844 14.5842C10.4591 14.5397 10.8007 14.5889 11.1093 14.7317Z" fill="#8581C6"/>
<path fill-rule="evenodd" clip-rule="evenodd" d="M3.49597 14.1418C2.99368 16.4216 3.18889 18.6344 4.08161 20.7802C3.62466 20.3911 3.30744 19.8992 3.12994 19.305C3.00441 18.3668 2.88239 17.4325 2.76392 16.5021C2.78829 15.7642 2.9347 15.0511 3.20315 14.3631C3.25236 14.2111 3.34997 14.1374 3.49597 14.1418Z" fill="#8D8BD9"/>
<path fill-rule="evenodd" clip-rule="evenodd" d="M32.778 14.8799C32.9704 16.0947 32.9704 17.324 32.778 18.5679C32.7293 18.5679 32.6804 18.5679 32.6316 18.5679C32.4852 18.5679 32.3388 18.5679 32.1924 18.5679C32.1924 18.2729 32.1924 17.9778 32.1924 17.6828C32.3813 17.7651 32.5032 17.9126 32.5584 18.1253C32.7656 17.6152 32.8388 17.0743 32.778 16.5026C32.778 16.2076 32.778 15.9125 32.778 15.6175C32.778 15.3716 32.778 15.1258 32.778 14.8799Z" fill="#C7C3EC"/>
<path fill-rule="evenodd" clip-rule="evenodd" d="M14.4768 13.8467C14.753 13.9736 15.0214 14.1212 15.2821 14.2892C15.5102 14.1646 15.6566 14.2629 15.7213 14.5843C15.792 14.4444 15.8163 14.2969 15.7945 14.1417C15.9409 14.1417 16.0873 14.1417 16.2337 14.1417C16.3018 14.63 16.5703 14.9742 17.039 15.1744C17.8986 15.524 18.7526 15.8683 19.6012 16.207C19.3617 16.3913 19.1908 16.6372 19.0887 16.9446C18.6248 18.4634 19.0396 18.8322 20.3332 18.051C20.3665 17.4928 20.6105 17.0503 21.0653 16.7233C22.0517 16.3104 22.6373 16.6301 22.8222 17.6822C22.694 18.4154 22.2547 18.858 21.5045 19.0099C21.3486 19.357 21.373 19.7012 21.5777 20.0426C21.6599 20.1196 21.7575 20.1687 21.8706 20.1901C22.5082 19.922 23.167 19.8483 23.8471 19.9688C24.6692 21.2115 24.3764 21.9738 22.9686 22.2554C22.5131 22.2122 22.0984 22.0646 21.7241 21.8128C21.2829 21.8451 20.9168 22.0173 20.6261 22.3291C20.6977 22.497 20.7464 22.6692 20.7725 22.8455C20.5353 22.6476 20.3889 22.3772 20.3332 22.0341C20.6748 21.8128 21.0165 21.5915 21.3581 21.3703C20.83 21.2244 20.2931 21.1751 19.7476 21.2227C19.5439 21.8633 19.3486 22.5025 19.162 23.1405C19.0155 23.1405 18.8691 23.1405 18.7227 23.1405C18.6516 22.6603 18.798 22.2669 19.162 21.9603C18.8169 21.8271 18.5972 21.5812 18.5031 21.2227C18.3645 20.4362 18.2425 19.6493 18.1371 18.8624C17.8753 18.8204 17.6312 18.8695 17.405 19.0099C17.7573 19.7527 17.9281 20.5396 17.9175 21.3703C18.3191 21.8097 18.3923 22.3016 18.1371 22.8455C17.7243 23.1684 17.2851 23.4142 16.8194 23.5831C17.1327 23.1899 17.4987 22.8458 17.9175 22.5504C18.0384 22.1504 17.9652 21.8062 17.6978 21.5178C17.3409 20.4353 16.9017 19.4026 16.3801 18.4198C16.2536 17.6889 15.9608 17.0495 15.5017 16.5021C15.3213 15.5494 14.9797 14.6642 14.4768 13.8467Z" fill="#D4D4DB"/>
<path fill-rule="evenodd" clip-rule="evenodd" d="M8.62041 11.7818C8.54976 13.2963 8.64736 14.796 8.91323 16.2812C8.72262 16.5649 8.74702 16.8354 8.98643 17.0926C9.96478 17.6334 10.8677 18.2972 11.695 19.0841C12.6187 19.2434 13.546 19.3664 14.4768 19.4529C14.4768 19.6495 14.4768 19.8463 14.4768 20.043C14.0834 20.0672 13.693 20.0425 13.3056 19.9692C12.1172 19.6341 10.946 19.2652 9.79169 18.8628C9.81515 18.6122 9.79074 18.3663 9.71849 18.1252C9.28721 17.8403 8.92118 17.4962 8.62041 17.0926C8.55082 15.1708 8.42881 13.2529 8.25438 11.3392C8.1538 10.9076 7.88538 10.711 7.44912 10.7491C7.42996 10.6199 7.47877 10.5215 7.59553 10.4541C7.83955 10.5525 8.08356 10.6508 8.32759 10.7491C8.59279 11.0819 8.69041 11.4261 8.62041 11.7818Z" fill="#706DCB"/>
<path fill-rule="evenodd" clip-rule="evenodd" d="M8.62039 11.7812C8.66919 11.7812 8.718 11.7812 8.7668 11.7812C8.91321 11.7812 9.05962 11.7812 9.20603 11.7812C9.24226 12.6724 9.19346 13.5575 9.05962 14.4366C9.25955 14.9068 9.38155 15.3985 9.42565 15.9118C9.59366 15.7705 9.74007 15.8196 9.86488 16.0594C9.89214 15.6853 9.96535 15.3411 10.0845 15.0267C9.98778 15.7153 10.2806 16.0104 10.963 15.9118C11.1033 15.646 11.2009 15.351 11.2558 15.0267C11.207 14.9283 11.1582 14.8301 11.1094 14.7317C11.2558 14.7317 11.4022 14.7317 11.5486 14.7317C11.7404 15.8922 11.2523 16.3348 10.0845 16.0594C10.0658 16.3773 10.139 16.6723 10.3041 16.9445C10.7002 17.1223 10.9687 17.4173 11.1094 17.8296C11.4022 17.9771 11.695 18.1247 11.9878 18.2722C12.1175 18.3939 12.1663 18.5414 12.1342 18.7147C12.8567 18.7872 13.5644 18.9347 14.2572 19.1573C14.4531 19.0089 14.6483 18.8614 14.8428 18.7147C15.0796 18.8676 15.104 19.0397 14.9161 19.2311C15.802 19.6909 16.29 19.4205 16.3802 18.4197C16.9017 19.4025 17.3409 20.4351 17.6979 21.5177C17.5148 21.5063 17.3929 21.4079 17.3318 21.2226C17.1172 20.6902 16.9463 20.1492 16.8194 19.5999C16.6258 19.5748 16.455 19.6239 16.307 19.7474C16.0431 20.2239 15.8235 20.7156 15.6481 21.2226C15.7165 20.7703 15.6433 20.3769 15.4285 20.0424C15.0956 20.2358 14.7784 20.2358 14.4768 20.0424C14.4768 19.8458 14.4768 19.649 14.4768 19.4524C13.546 19.3659 12.6187 19.2429 11.695 19.0836C10.8676 18.2967 9.96476 17.6328 8.98642 17.092C8.74701 16.8349 8.7226 16.5643 8.91321 16.2806C8.64735 14.7955 8.54975 13.2957 8.62039 11.7812Z" fill="#6360C5"/>
<path fill-rule="evenodd" clip-rule="evenodd" d="M11.2556 15.0275C11.2007 15.3517 11.1031 15.6468 10.9628 15.9126C10.8065 15.7748 10.6112 15.7255 10.3771 15.7651C10.3887 15.5541 10.3399 15.3573 10.2307 15.175C10.3771 15.0275 10.5235 14.8799 10.6699 14.7324C10.8343 14.8991 11.0295 14.9975 11.2556 15.0275Z" fill="#F1F2FC"/>
<path fill-rule="evenodd" clip-rule="evenodd" d="M8.62036 18.8623C8.77439 18.8403 8.9208 18.8648 9.05959 18.936C9.206 19.2802 9.45003 19.5261 9.79165 19.6737C10.5807 20.0883 11.3616 20.4571 12.1342 20.7801C10.6749 20.629 9.50363 19.9898 8.62036 18.8623Z" fill="#ADADC4"/>
<path fill-rule="evenodd" clip-rule="evenodd" d="M22.8221 17.6826C23.1656 17.8335 23.5072 17.9811 23.847 18.1252C23.847 18.3711 23.847 18.6169 23.847 18.8628C24.0911 18.8628 24.335 18.8628 24.5791 18.8628C24.7095 18.9528 24.8559 19.0019 25.0183 19.0103C26.3749 20.3007 26.3749 21.6039 25.0183 22.9196C23.9354 23.6845 22.7642 23.8813 21.5044 23.5097C21.1882 23.3628 20.9441 23.1415 20.7724 22.8459C20.7463 22.6696 20.6976 22.4974 20.626 22.3295C20.9167 22.0177 21.2828 21.8455 21.7241 21.8132C22.0983 22.065 22.5131 22.2126 22.9685 22.2558C24.3763 21.9742 24.6691 21.2119 23.847 19.9692C23.1669 19.8487 22.5081 19.9224 21.8705 20.1905C21.7574 20.1691 21.6598 20.12 21.5776 20.043C21.373 19.7016 21.3485 19.3574 21.5044 19.0103C22.2547 18.8584 22.6939 18.4158 22.8221 17.6826Z" fill="#81809A"/>
<path fill-rule="evenodd" clip-rule="evenodd" d="M17.6977 21.5179C17.965 21.8063 18.0383 22.1505 17.9173 22.5505C17.4986 22.8459 17.1326 23.19 16.8192 23.5832C15.5102 24.6062 14.2413 25.688 13.0126 26.8286C13.0126 26.632 13.0126 26.4352 13.0126 26.2386C12.7637 26.22 12.5441 26.1216 12.3537 25.9435C11.5243 25.9633 10.6702 25.9633 9.79152 25.9435C9.34855 25.9832 8.95812 25.8603 8.62023 25.5747C8.79988 25.3406 8.75108 25.1438 8.47382 24.9846C7.67811 24.8517 6.89726 24.6551 6.13125 24.3945C6.02109 24.2956 5.97228 24.1727 5.98484 24.0257C7.1985 24.4032 8.41858 24.7967 9.64511 25.2059C11.3326 25.0705 12.9432 24.6524 14.4767 23.952C15.005 23.3569 15.5175 22.7422 16.014 22.108C16.0864 21.8169 16.1109 21.5219 16.0872 21.2228C15.9408 21.2228 15.7944 21.2228 15.6479 21.2228C15.8233 20.7158 16.043 20.2241 16.3068 19.7476C16.4548 19.6242 16.6257 19.575 16.8192 19.6001C16.9462 20.1495 17.117 20.6904 17.3317 21.2228C17.3927 21.4081 17.5147 21.5065 17.6977 21.5179Z" fill="#615CCA"/>
<path fill-rule="evenodd" clip-rule="evenodd" d="M8.32739 17.6826C8.4738 17.781 8.62021 17.8793 8.76662 17.9777C9.02325 18.3695 9.26728 18.7874 9.49868 19.2316C10.1914 19.402 10.8258 19.697 11.402 20.1167C12.5881 20.3379 13.7593 20.51 14.9159 20.633C14.4233 20.8601 13.8864 20.9585 13.3054 20.9281C12.8873 20.9276 12.4969 20.8785 12.1341 20.7806C11.3614 20.4576 10.5806 20.0888 9.7915 19.6742C9.44988 19.5266 9.20586 19.2807 9.05945 18.9365C8.92065 18.8653 8.77424 18.8408 8.62021 18.8628C8.45342 18.4934 8.35581 18.1001 8.32739 17.6826Z" fill="#9A99C6"/>
<path fill-rule="evenodd" clip-rule="evenodd" d="M26.1897 15.6172C27.0317 17.4214 27.7637 19.2899 28.3858 21.223C28.8993 21.2515 29.3873 21.1532 29.8499 20.928C29.9867 20.6927 29.9867 20.4469 29.8499 20.1903C30.2075 20.1341 30.3051 20.2325 30.1428 20.4854C30.3942 20.8956 30.7114 21.2398 31.0944 21.518C31.1432 21.4196 31.1921 21.3214 31.2408 21.223C31.352 21.6737 31.23 22.0425 30.8748 22.3294C30.9931 22.3748 31.0908 22.4486 31.1676 22.5507C30.9539 22.9238 30.8807 23.3172 30.948 23.7309C31.8196 22.4477 32.2344 21.0218 32.1925 19.4527C32.2096 19.0766 32.3561 18.7815 32.6318 18.5676C32.6805 18.5676 32.7294 18.5676 32.7782 18.5676C32.4827 20.9359 31.7507 23.1487 30.582 25.2061C29.7056 26.3837 28.7784 27.5146 27.8002 28.5991C26.9637 29.2654 26.0853 29.8555 25.1648 30.3693C26.0655 29.6929 26.944 28.98 27.8002 28.2302C27.9394 28.1243 27.9637 28.0014 27.8734 27.8614C25.8383 28.8127 23.7396 29.5995 21.5777 30.2218C21.4067 30.0729 21.2359 29.9254 21.0653 29.7792C20.7836 29.0015 20.5151 28.2146 20.26 27.4189C20.1136 27.2222 19.9672 27.0254 19.8208 26.8288C19.4123 25.4222 18.8511 24.0945 18.1371 22.8457C18.3923 22.3018 18.3191 21.81 17.9175 21.3705C17.9282 20.5398 17.7573 19.7529 17.405 19.0102C17.6312 18.8697 17.8753 18.8206 18.1371 18.8627C18.2425 19.6495 18.3645 20.4364 18.5031 21.223C18.5973 21.5815 18.8169 21.8274 19.162 21.9606C18.798 22.2671 18.6516 22.6606 18.7227 23.1408C18.8691 23.1408 19.0155 23.1408 19.162 23.1408C19.3486 22.5027 19.5439 21.8635 19.7476 21.223C20.2931 21.1753 20.83 21.2246 21.3581 21.3705C21.0165 21.5918 20.6748 21.8131 20.3332 22.0344C20.3889 22.3775 20.5353 22.6479 20.7725 22.8457C20.9442 23.1414 21.1883 23.3626 21.5045 23.5096C22.7642 23.8812 23.9355 23.6844 25.0184 22.9195C26.375 21.6037 26.375 20.3005 25.0184 19.0102C25.1136 18.9653 25.2112 18.9162 25.3112 18.8627C25.9827 19.0659 26.617 19.2872 27.2146 19.5265C27.1178 19.0637 26.9225 18.6458 26.6289 18.2726C26.5091 17.888 26.4359 17.4945 26.4093 17.0924C26.3605 17.1415 26.3116 17.1908 26.2629 17.2399C26.1898 16.7012 26.1655 16.1604 26.1897 15.6172Z" fill="#DADADF"/>
<path fill-rule="evenodd" clip-rule="evenodd" d="M15.2089 20.9277C15.0826 21.1402 15.0826 21.337 15.2089 21.5178C15.0625 21.7637 14.8673 21.9604 14.6233 22.1079C14.5141 22.2902 14.4653 22.487 14.4768 22.698C14.0454 22.8668 13.655 23.1127 13.3056 23.4356C12.9269 23.5802 12.5365 23.6293 12.1343 23.5831C12.1343 23.4356 12.1343 23.2881 12.1343 23.1406C12.6828 22.7897 13.2685 22.4701 13.8912 22.1817C14.3113 21.7335 14.7506 21.3156 15.2089 20.9277Z" fill="#9A9AC3"/>
<path fill-rule="evenodd" clip-rule="evenodd" d="M18.1371 22.8457C18.8511 24.0945 19.4123 25.4222 19.8208 26.8288C19.9672 27.0254 20.1136 27.2222 20.2601 27.4189C20.5151 28.2146 20.7836 29.0015 21.0653 29.7792C21.2359 29.9254 21.4067 30.0729 21.5777 30.2218C23.7397 29.5995 25.8383 28.8126 27.8734 27.8614C27.9637 28.0014 27.9394 28.1243 27.8002 28.2302C26.944 28.9799 26.0655 29.6929 25.1648 30.3693C23.6183 31.1482 22.0078 31.7628 20.3333 32.2133C19.1674 32.5082 17.9961 32.582 16.8194 32.4346C16.2007 31.417 15.4199 30.5319 14.4768 29.7792C14.4768 29.7301 14.4768 29.6808 14.4768 29.6317C14.0864 29.14 13.6472 28.6974 13.1591 28.304C12.9675 28.0094 12.7723 27.7143 12.5735 27.4189C12.6718 27.174 12.8182 26.9773 13.0127 26.8288C14.2415 25.6881 15.5103 24.6064 16.8194 23.5833C17.2851 23.4144 17.7244 23.1686 18.1371 22.8457Z" fill="#F0F1F1"/>
<path fill-rule="evenodd" clip-rule="evenodd" d="M4.08154 20.7803C4.37021 21.0486 4.71183 21.1961 5.10642 21.2228C5.06266 21.5332 5.11145 21.8283 5.25283 22.108C7.1822 24.0079 9.47596 24.6964 12.1341 24.1733C12.1341 23.9766 12.1341 23.7798 12.1341 23.5832C12.5363 23.6294 12.9267 23.5802 13.3054 23.4357C13.6549 23.1127 14.0453 22.8668 14.4767 22.698C14.0382 23.0443 13.6965 23.4868 13.4518 24.0257C11.469 24.6824 9.46805 24.7561 7.44899 24.247C6.2633 23.6627 5.26283 22.8513 4.44757 21.8129C4.24093 21.4958 4.11892 21.1514 4.08154 20.7803Z" fill="#8280D1"/>
<path fill-rule="evenodd" clip-rule="evenodd" d="M2.76379 16.502C2.88226 17.4324 3.00428 18.3666 3.12981 19.3049C3.30731 19.8991 3.62453 20.3909 4.08148 20.7801C4.11886 21.1512 4.24087 21.4955 4.44751 21.8127C5.26277 22.8511 6.26324 23.6625 7.44893 24.2468C9.46799 24.7559 11.4689 24.6822 13.4518 24.0255C13.6965 23.4866 14.0381 23.0441 14.4766 22.6978C14.7173 22.7294 14.9369 22.6801 15.1355 22.5503C15.4159 22.1469 15.5867 21.7043 15.6479 21.2226C15.7943 21.2226 15.9408 21.2226 16.0872 21.2226C16.1109 21.5217 16.0864 21.8167 16.014 22.1078C15.5175 22.742 15.005 23.3567 14.4766 23.9518C12.9431 24.6522 11.3326 25.0703 9.64509 25.2057C8.41856 24.7965 7.19848 24.403 5.98482 24.0255C5.83841 24.0255 5.692 24.0255 5.54559 24.0255C5.54559 23.878 5.54559 23.7305 5.54559 23.583C5.2998 23.6147 5.15338 23.5163 5.10636 23.2879C4.82242 22.9275 4.5052 22.5832 4.15469 22.2553C4.11377 21.5827 3.84535 21.0418 3.34943 20.6325C3.27041 20.1478 3.09959 19.7052 2.83699 19.3049C2.58527 18.3564 2.56086 17.422 2.76379 16.502Z" fill="#7572D4"/>
<path fill-rule="evenodd" clip-rule="evenodd" d="M5.83857 21.9609C7.73197 23.3652 9.83052 23.7586 12.1342 23.1411C12.1342 23.2886 12.1342 23.4361 12.1342 23.5837C11.3353 23.5461 10.5544 23.6444 9.79166 23.8787C8.37212 23.6893 7.07883 23.1976 5.91178 22.4035C5.84109 22.2637 5.81668 22.1161 5.83857 21.9609Z" fill="#ABAAC5"/>
<path fill-rule="evenodd" clip-rule="evenodd" d="M5.10634 21.2227C5.44547 21.3587 5.68949 21.6046 5.83839 21.9603C5.8165 22.1155 5.84091 22.263 5.9116 22.4028C7.07865 23.1969 8.37194 23.6886 9.79148 23.878C10.5542 23.6438 11.3351 23.5454 12.1341 23.583C12.1341 23.7796 12.1341 23.9764 12.1341 24.1731C9.47588 24.6962 7.18212 24.0077 5.25275 22.1078C5.11137 21.8281 5.06258 21.533 5.10634 21.2227Z" fill="#9695CC"/>
<path fill-rule="evenodd" clip-rule="evenodd" d="M2.76392 24.1729C2.76392 24.1238 2.76392 24.0745 2.76392 24.0254C2.92251 24.0311 3.06892 24.0804 3.20315 24.1729C3.39115 24.5833 3.65958 24.9275 4.00841 25.2056C4.08066 25.4466 4.10507 25.6925 4.08161 25.9432C3.93643 25.9685 3.83882 25.9193 3.78879 25.7956C3.50158 25.3996 3.28196 24.957 3.12994 24.468C3.02624 24.338 2.90424 24.2397 2.76392 24.1729Z" fill="#625DBE"/>
<path fill-rule="evenodd" clip-rule="evenodd" d="M5.10649 23.2887C5.15352 23.517 5.29993 23.6154 5.54572 23.5837C5.54572 23.7312 5.54572 23.8788 5.54572 24.0263C5.69213 24.0263 5.83855 24.0263 5.98496 24.0263C5.97239 24.1732 6.02121 24.2961 6.13137 24.3951C6.89737 24.6556 7.67823 24.8522 8.47394 24.9852C8.7512 25.1443 8.8 25.3411 8.62035 25.5752C8.95824 25.8609 9.34867 25.9837 9.79164 25.9441C9.79164 25.9932 9.79164 26.0424 9.79164 26.0916C9.41194 26.2766 9.0703 26.5223 8.76676 26.8292C8.36965 26.5695 7.93042 26.4711 7.44906 26.5341C7.48742 26.3161 7.43863 26.1195 7.30265 25.9441C7.08763 26.1937 6.99002 26.4887 7.00983 26.8292C7.15797 27.3218 7.30438 27.8134 7.44906 28.3044C7.6211 28.2721 7.76751 28.3212 7.8883 28.4519C7.56262 28.6407 7.2698 28.5916 7.00983 28.3044C6.79752 28.1052 6.69991 27.8595 6.71701 27.5668C6.5706 27.5668 6.42419 27.5668 6.27778 27.5668C6.31063 27.0241 6.35945 26.4831 6.42419 25.9441C6.18017 25.9441 5.93616 25.9441 5.69213 25.9441C5.486 26.3881 5.29079 26.8307 5.10649 27.2717C4.81765 26.8824 4.47603 26.5381 4.08162 26.2391C4.08162 26.1407 4.08162 26.0424 4.08162 25.9441C4.10507 25.6934 4.08066 25.4475 4.00841 25.2064C3.65959 24.9284 3.39116 24.5842 3.20315 24.1738C3.06892 24.0813 2.92251 24.032 2.76392 24.0263C2.28012 23.1549 1.93849 22.2206 1.73904 21.2234C1.73155 19.6886 1.87796 19.6886 2.17828 21.2234C2.37758 21.4488 2.5484 21.6947 2.69071 21.961C2.73951 21.8135 2.78833 21.6659 2.83712 21.5184C3.52912 22.191 4.28558 22.781 5.10649 23.2887Z" fill="#605BD8"/>
<path fill-rule="evenodd" clip-rule="evenodd" d="M9.79159 26.0909C9.79159 26.435 9.79159 26.7794 9.79159 27.1235C10.5236 27.1727 10.9141 27.5661 10.9629 28.3037C11.3533 28.3037 11.7437 28.3037 12.1342 28.3037C12.1342 28.5987 12.1342 28.8938 12.1342 29.1888C12.3062 29.1565 12.4526 29.2056 12.5734 29.3363C12.6603 29.614 12.7579 29.8844 12.8662 30.1477C13.2345 30.478 13.6737 30.6502 14.1839 30.664C14.122 30.3275 14.2196 30.0816 14.4767 29.9264C14.5359 30.1117 14.6335 30.2839 14.7696 30.4428C14.6045 30.5987 14.5313 30.7707 14.5499 30.9591C15.1157 30.7396 15.5306 30.9117 15.7944 31.4754C15.583 31.7755 15.2902 31.8985 14.916 31.8442C14.916 31.9917 14.916 32.1393 14.916 32.2868C13.8852 32.0718 12.8603 31.8259 11.8413 31.5492C12.0395 31.3981 12.1371 31.2015 12.1342 30.9591C11.7843 31.0115 11.4427 31.1098 11.1093 31.2541C10.8593 31.2205 10.6153 31.1712 10.3772 31.1066C10.2209 30.9688 10.0257 30.9195 9.79159 30.9591C9.74456 30.7307 9.59815 30.6323 9.35236 30.664C9.37425 30.5088 9.34984 30.3613 9.27915 30.2215C9.01189 30.1325 8.74348 30.0341 8.47389 29.9264C8.29135 29.699 8.29135 29.4777 8.47389 29.2626C8.73093 29.2328 8.97495 29.159 9.20595 29.0413C9.18154 28.9922 9.15715 28.9429 9.13274 28.8938C8.7842 28.7559 8.41817 28.7067 8.03466 28.7463C8.03466 28.8938 8.03466 29.0413 8.03466 29.1888C7.49954 28.901 6.9139 28.7044 6.27773 28.5987C6.22893 28.4512 6.13132 28.3528 5.98491 28.3037C5.92411 27.7282 5.63128 27.3841 5.10645 27.2711C5.29075 26.83 5.48596 26.3874 5.69209 25.9434C5.93611 25.9434 6.18012 25.9434 6.42414 25.9434C6.3594 26.4824 6.31059 27.0234 6.27773 27.5661C6.42414 27.5661 6.57055 27.5661 6.71696 27.5661C6.69986 27.8588 6.79748 28.1045 7.00979 28.3037C7.26975 28.5909 7.56257 28.64 7.88825 28.4512C7.76746 28.3205 7.62105 28.2714 7.44902 28.3037C7.30433 27.8127 7.15792 27.3211 7.00979 26.8285C6.98998 26.488 7.08759 26.193 7.30261 25.9434C7.43858 26.1188 7.48738 26.3154 7.44902 26.5334C7.93037 26.4705 8.3696 26.5688 8.76671 26.8285C9.07025 26.5216 9.41189 26.2759 9.79159 26.0909Z" fill="#5B55D6"/>
<path fill-rule="evenodd" clip-rule="evenodd" d="M9.7915 25.9434C10.6702 25.9631 11.5243 25.9631 12.3537 25.9434C12.5441 26.1214 12.7637 26.2198 13.0125 26.2384C13.0125 26.435 13.0125 26.6318 13.0125 26.8285C12.818 26.977 12.6716 27.1737 12.5733 27.4186C12.7721 27.7141 12.9673 28.0091 13.159 28.3037C13.4518 28.8938 13.891 29.3363 14.4766 29.6314C14.4766 29.6805 14.4766 29.7298 14.4766 29.7789C14.4766 29.828 14.4766 29.8773 14.4766 29.9264C14.2196 30.0816 14.1219 30.3275 14.1838 30.664C13.6736 30.6502 13.2344 30.478 12.8661 30.1477C12.7578 29.8844 12.6602 29.614 12.5733 29.3363C12.4525 29.2056 12.3061 29.1565 12.1341 29.1888C12.1341 28.8938 12.1341 28.5987 12.1341 28.3037C11.7436 28.3037 11.3532 28.3037 10.9628 28.3037C10.914 27.5661 10.5236 27.1727 9.7915 27.1235C9.7915 26.7794 9.7915 26.435 9.7915 26.0909C9.7915 26.0418 9.7915 25.9925 9.7915 25.9434Z" fill="#5651C8"/>
<path fill-rule="evenodd" clip-rule="evenodd" d="M5.10645 27.2715C5.63128 27.3845 5.92411 27.7287 5.98491 28.3041C5.8873 28.255 5.7897 28.2057 5.69209 28.1566C5.49309 27.8589 5.29788 27.5639 5.10645 27.2715Z" fill="#6B63B9"/>
<path fill-rule="evenodd" clip-rule="evenodd" d="M13.1589 28.3037C13.647 28.6971 14.0862 29.1397 14.4766 29.6314C13.891 29.3364 13.4518 28.8938 13.1589 28.3037Z" fill="#706AB7"/>
<path fill-rule="evenodd" clip-rule="evenodd" d="M6.27783 28.5986C6.914 28.7043 7.49964 28.9009 8.03476 29.1887C8.03476 29.0412 8.03476 28.8937 8.03476 28.7462C8.41827 28.7066 8.7843 28.7557 9.13284 28.8937C9.15725 28.9428 9.18164 28.9921 9.20605 29.0412C8.97506 29.1589 8.73103 29.2327 8.47399 29.2625C8.29145 29.4776 8.29145 29.6988 8.47399 29.9263C8.74358 30.034 9.01199 30.1324 9.27925 30.2214C9.34994 30.3612 9.37435 30.5087 9.35246 30.6639C9.30366 30.6639 9.25485 30.6639 9.20605 30.6639C8.17753 30.0477 7.20146 29.3593 6.27783 28.5986Z" fill="#645DC8"/>
<path fill-rule="evenodd" clip-rule="evenodd" d="M14.4767 29.7793C15.4197 30.532 16.2005 31.4171 16.8193 32.4347C16.8193 32.4838 16.8193 32.5331 16.8193 32.5822C16.0367 32.5546 15.2559 32.5055 14.4767 32.4347C13.4207 32.3428 12.3958 32.0969 11.4021 31.6971C11.1208 31.5698 10.8279 31.4715 10.5236 31.402C10.4748 31.3036 10.426 31.2054 10.3772 31.107C10.6153 31.1716 10.8593 31.2209 11.1093 31.2545C11.4426 31.1102 11.7842 31.0118 12.1341 30.9595C12.137 31.2018 12.0394 31.3985 11.8413 31.5496C12.8603 31.8263 13.8851 32.0722 14.9159 32.2872C14.9159 32.1396 14.9159 31.9921 14.9159 31.8446C15.2902 31.8989 15.583 31.7758 15.7944 31.4758C15.5306 30.9121 15.1157 30.74 14.5499 30.9595C14.5313 30.7711 14.6045 30.5991 14.7695 30.4431C14.6334 30.2843 14.5358 30.1121 14.4767 29.9268C14.4767 29.8777 14.4767 29.8284 14.4767 29.7793Z" fill="#6059C2"/>
</svg>
