<?xml version="1.0" standalone="no"?>
<!DOCTYPE svg PUBLIC "-//W3C//DTD SVG 20010904//EN"
 "http://www.w3.org/TR/2001/REC-SVG-20010904/DTD/svg10.dtd">
<svg version="1.0" xmlns="http://www.w3.org/2000/svg"
 width="32.000000pt" height="32.000000pt" viewBox="0 0 32.000000 32.000000"
 preserveAspectRatio="xMidYMid meet">
<metadata>
Created by potrace 1.16, written by Peter Selinger 2001-2019
</metadata>
<g transform="translate(0.000000,32.000000) scale(0.100000,-0.100000)"
fill="#000000" stroke="none">
<path d="M149 238 l-1 -83 -17 50 c-16 47 -20 50 -54 53 l-37 3 0 -110 0 -111
30 0 c29 0 30 1 31 53 l1 52 16 -47 c9 -26 20 -50 25 -54 4 -4 7 -16 7 -26 0
-16 9 -18 85 -18 l85 0 0 160 0 160 -85 0 -85 0 -1 -82z"/>
</g>
</svg>
