<svg width="32" height="32" viewBox="0 0 33 33" fill="none" xmlns="http://www.w3.org/2000/svg">
    <path opacity="0.929" fill-rule="evenodd" clip-rule="evenodd"
        d="M14.9011 0.5C16.101 0.5 17.3008 0.5 18.5007 0.5C29.9149 3.57371 34.3544 10.8637 31.8191 22.37C26.0835 32.6243 17.8045 35.0935 6.98209 29.7776C-0.0206454 23.3721 -1.34048 15.9646 3.02257 7.55483C6.00641 3.45442 9.96591 1.10281 14.9011 0.5Z"
        fill="#F2F3F4" />
    <path opacity="0.953" fill-rule="evenodd" clip-rule="evenodd"
        d="M19.9405 24.4865C22.3127 18.8966 25.0723 13.4879 28.2195 8.26035C32.3437 15.7806 31.2639 22.4827 24.9799 28.3666C15.3022 33.1995 7.98313 30.9656 3.02257 21.6645C0.872463 13.0619 3.8721 6.83017 12.0215 2.96922C16.8536 1.95907 21.2931 2.78214 25.3399 5.43842C23.3392 11.4867 20.6995 17.3657 17.4208 23.0755C14.8229 23.4721 12.4231 22.7666 10.2217 20.9591C9.59544 21.3879 9.23549 21.9758 9.14183 22.7228C11.6005 24.694 14.3602 26.2225 17.4208 27.3084C18.4374 26.472 19.2773 25.5313 19.9405 24.4865Z"
        fill="#384959" />
    <path opacity="0.953" fill-rule="evenodd" clip-rule="evenodd"
        d="M19.9405 24.4863C22.8788 23.2476 23.9586 24.1882 23.1801 27.3083C20.5385 28.3731 19.4587 27.4324 19.9405 24.4863Z"
        fill="#89939C" />
    <path opacity="0.953" fill-rule="evenodd" clip-rule="evenodd"
        d="M12.0215 11.7878C14.9167 12.3828 17.5564 13.5587 19.9405 15.3153C18.8034 17.7801 17.4836 20.1317 15.981 22.3701C13.4928 21.2138 11.2131 19.8028 9.14183 18.1372C10.3081 16.0887 11.2679 13.9722 12.0215 11.7878Z"
        fill="#8C959E" />
    <path opacity="0.953" fill-rule="evenodd" clip-rule="evenodd"
        d="M17.7808 6.84937C23.5571 7.81171 24.277 10.1633 19.9405 13.9042C18.3725 13.0882 16.9327 12.1476 15.621 11.0823C16.3833 9.64759 17.1032 8.23663 17.7808 6.84937Z"
        fill="#8A939D" />
</svg>