<svg width="32" height="32" viewBox="0 0 32 32" fill="none" xmlns="http://www.w3.org/2000/svg">
    <path
        d="M4.85461 0.111004C7.65172 -0.562201 12.0517 1.9983 14.2893 3.17641C19.5107 6.03752 24.101 8.28649 29.0073 11.6925C31.2716 13.3955 33.5992 16.0632 30.5166 18.8452C29.2115 20.0234 29.3712 20.1997 28.2523 19.5266C24.4786 17.4827 16.6341 12.8343 12.7183 10.6464C11.2264 9.8049 9.38283 8.96762 7.87351 10.33C6.74135 12.7142 8.83716 13.4076 10.5154 14.4174C13.872 16.4371 16.9706 17.8476 20.3273 19.867C21.0819 20.3211 24.856 22.0911 24.856 22.9326C25.0423 23.4376 22.9645 24.808 22.5915 24.9763C21.6592 25.4812 20.7902 26.3388 19.5723 25.998C16.9731 25.2709 14.1615 23.0888 12.1103 21.9108C10.3161 20.8802 8.33642 21.5702 7.95903 21.9108C6.44948 23.2732 7.75026 24.4471 7.95903 24.6355C8.22758 24.8779 14.8528 28.0498 14.6665 28.723C14.6665 29.2278 12.7751 30.2577 12.4021 30.426C10.9105 31.2675 9.92913 31.4519 8.25091 31.7884C4.14848 32.63 1.63997 30.8989 1.08056 27.7011C-0.0382884 21.6423 -0.334951 13.1708 0.410943 7.11208C0.970351 4.41924 1.12514 0.78421 4.85461 0.111004Z"
        fill="#006EFA" />
</svg>