<svg width="32" height="32" viewBox="0 0 32 32" fill="none" xmlns="http://www.w3.org/2000/svg">
<path fill-rule="evenodd" clip-rule="evenodd" d="M6.53125 6.40625C6.6615 6.56581 6.74481 6.75331 6.78125 6.96875C6.69181 6.88106 6.61887 6.77694 6.5625 6.65625C6.53187 6.57544 6.52143 6.49206 6.53125 6.40625Z" fill="#8B97CB"/>
<path d="M21.8178 29.9999C25.815 26.3103 26.0788 20.0586 22.4265 16.041C18.7742 12.0235 12.5856 11.7365 8.56813 15.4261C8.36523 15.6311 8.16232 15.795 8 16L21.8178 29.9999Z" fill="#00916E"/>
<path d="M8 15.9999C11.8349 19.8329 17.9828 19.8329 21.8178 15.9999C22.8323 14.975 28.4324 8.70273 21.8178 2L8 15.9999Z" fill="#FED82F"/>
<path d="M21.8178 15.9999L22.1019 15.7129C18.4699 12.0439 12.3421 12.1054 8.48697 15.5285L8 15.9999L8.46668 16.4304C12.3421 19.874 18.1858 19.669 21.8178 15.9999Z" fill="#14B35F"/>
<path d="M21.5948 7.18569C22.305 7.18569 22.9138 6.61175 22.9138 5.85334C22.9138 5.09493 22.3456 4.521 21.5948 4.521C20.8847 4.521 20.276 5.09493 20.276 5.85334C20.276 6.57076 20.8441 7.18569 21.5948 7.18569Z" fill="#00916E"/>
</svg>
