<svg width="32" height="32" viewBox="0 0 33 33" fill="none" xmlns="http://www.w3.org/2000/svg">
    <path fill-rule="evenodd" clip-rule="evenodd"
        d="M0.928955 0.929688C11.5956 0.929688 22.2623 0.929688 32.929 0.929688C32.929 11.5964 32.929 22.263 32.929 32.9297C22.2623 32.9297 11.5956 32.9297 0.928955 32.9297C0.928955 22.263 0.928955 11.5964 0.928955 0.929688Z"
        fill="#7BCBC7" />
    <path fill-rule="evenodd" clip-rule="evenodd"
        d="M10 5.06208C15.0111 4.89618 20.0111 5.06278 25 5.56208C22.4193 8.54988 19.086 9.71648 15 9.06208C15 11.0621 15 13.0621 15 15.0621C19.086 14.4077 22.4193 15.5743 25 18.5621C21.6832 19.0604 18.3499 19.2271 15 19.0621C15 21.0621 15 23.0621 15 25.0621C18.7666 24.4881 21.7666 25.6551 24 28.5621C19.3452 29.0611 14.6785 29.2281 10 29.0621C10 21.0621 10 13.0621 10 5.06208Z"
        fill="#FCFEFE" />
</svg>