<svg width="32" height="32" viewBox="0 0 32 32" fill="none" xmlns="http://www.w3.org/2000/svg">
<g clip-path="url(#clip0_4256_2440)">
<path opacity="0.999" fill-rule="evenodd" clip-rule="evenodd" d="M3.28125 -0.03125C11.7396 -0.03125 20.1979 -0.03125 28.6562 -0.03125C30.4161 0.374286 31.5202 1.45762 31.9688 3.21875C31.9688 11.6979 31.9688 20.1771 31.9688 28.6562C31.5593 30.4199 30.4759 31.5241 28.7188 31.9688C20.2188 31.9688 11.7188 31.9688 3.21875 31.9688C1.46154 31.5241 0.378209 30.4199 -0.03125 28.6562C-0.03125 20.1771 -0.03125 11.6979 -0.03125 3.21875C0.416752 1.45817 1.52092 0.374844 3.28125 -0.03125Z" fill="#2200FF"/>
<path fill-rule="evenodd" clip-rule="evenodd" d="M24.4687 10.0313C24.531 9.16731 24.5518 8.29231 24.5312 7.40625C23.6451 7.38569 22.7701 7.4065 21.9062 7.46875C19.7251 7.60619 17.9231 8.502 16.5 10.1563C15.6398 11.1888 14.7648 12.2096 13.875 13.2188C13.2095 13.8919 12.4075 14.1524 11.4687 14C10.834 13.8596 10.1986 13.7241 9.56246 13.5938C9.0364 13.6434 8.58846 13.8517 8.21871 14.2188C9.24996 14.8699 10.2916 15.5053 11.3437 16.125C11.6411 16.4057 11.7349 16.7494 11.625 17.1563C11.4046 17.5772 11.0609 17.7334 10.5937 17.625C9.06259 16.7449 7.54177 15.8491 6.03121 14.9375C5.57347 14.413 5.61514 13.9338 6.15621 13.5C6.83315 13.0469 7.52065 12.6094 8.21871 12.1875C8.8179 11.9249 9.4429 11.8416 10.0937 11.9375C10.696 12.0829 11.3002 12.2183 11.9062 12.3438C12.1061 12.3361 12.2936 12.2841 12.4687 12.1875C13.633 10.8356 14.8205 9.50225 16.0312 8.1875C17.6178 6.77994 19.472 5.96742 21.5937 5.75C22.927 5.70833 24.2604 5.70833 25.5937 5.75C25.875 5.86458 26.0729 6.0625 26.1875 6.34375C26.2291 7.57294 26.2291 8.80206 26.1875 10.0313C25.9904 12.7691 24.855 15.0295 22.7812 16.8125C21.7708 17.6979 20.7604 18.5833 19.75 19.4688C19.6437 19.6188 19.5916 19.7854 19.5937 19.9688C19.7845 20.7213 19.9303 21.4817 20.0312 22.25C20.015 22.8519 19.8796 23.4249 19.625 23.9688C19.1631 24.7223 18.6527 25.441 18.0937 26.125C17.5051 26.3359 17.078 26.1588 16.8125 25.5938C16.0157 24.2293 15.2032 22.8751 14.375 21.5313C14.1292 20.9289 14.3063 20.5019 14.9062 20.25C15.3727 20.1863 15.7164 20.3634 15.9375 20.7813C16.4998 21.7812 17.0936 22.7604 17.7187 23.7188C18.09 23.3241 18.2983 22.8553 18.3437 22.3125C18.2528 21.7093 18.1174 21.1156 17.9375 20.5313C17.7728 19.6897 17.9603 18.9397 18.5 18.2813C19.5961 17.2892 20.7106 16.3204 21.8437 15.375C23.4277 13.9465 24.3027 12.1653 24.4687 10.0313Z" fill="#FDFDFF"/>
<path fill-rule="evenodd" clip-rule="evenodd" d="M21.9062 7.4686C22.7702 7.40635 23.6452 7.38554 24.5312 7.4061C24.5518 8.29216 24.531 9.16716 24.4688 10.0311C24.4688 9.17691 24.4688 8.32279 24.4688 7.4686C23.6146 7.4686 22.7604 7.4686 21.9062 7.4686Z" fill="#715AFF"/>
<path fill-rule="evenodd" clip-rule="evenodd" d="M19.4687 9.96851C20.3644 9.93645 20.729 10.3531 20.5625 11.2185C20.3469 11.5817 20.024 11.7588 19.5937 11.7498C19.3437 11.9998 19.3437 12.2498 19.5937 12.4998C19.8296 12.5737 20.0276 12.5216 20.1875 12.3435C20.2581 11.48 20.706 11.157 21.5312 11.3748C21.8913 11.7021 22.0059 12.1083 21.875 12.5935C21.5118 13.7708 20.7097 14.3228 19.4687 14.2498C18.4725 14.0244 17.8788 13.4098 17.6875 12.406C17.642 11.1207 18.2357 10.3082 19.4687 9.96851Z" fill="#FCFBFF"/>
<path fill-rule="evenodd" clip-rule="evenodd" d="M15.7812 15.0938C16.5749 15.1061 16.8978 15.502 16.75 16.2812C16.7083 16.3646 16.6667 16.4479 16.625 16.5312C15.1771 17.9792 13.7292 19.4271 12.2812 20.875C11.5437 21.2668 11.0646 21.0584 10.8438 20.25C10.8553 20.0279 10.9281 19.8301 11.0625 19.6562C12.5104 18.2083 13.9583 16.7604 15.4062 15.3125C15.527 15.2213 15.652 15.1484 15.7812 15.0938Z" fill="#FCFBFF"/>
<path fill-rule="evenodd" clip-rule="evenodd" d="M8.03127 18.5312C8.95321 18.5453 9.27614 18.9827 9.00002 19.8438C8.38352 20.4394 7.78977 21.0539 7.21877 21.6875C6.55858 22.1589 6.06897 22.0234 5.75002 21.2812C5.69305 21.0343 5.73472 20.8051 5.87502 20.5938C6.56827 19.869 7.28702 19.1815 8.03127 18.5312Z" fill="#FCFCFF"/>
<path fill-rule="evenodd" clip-rule="evenodd" d="M8.84375 21.9691C9.49275 21.8758 9.86775 22.1466 9.96875 22.7816C9.96381 23.0152 9.89087 23.2236 9.75 23.4066C8.86456 24.292 7.97919 25.1774 7.09375 26.0628C6.36781 26.3665 5.90946 26.1373 5.71875 25.3753C5.73022 25.1533 5.80314 24.9554 5.9375 24.7816C6.88069 23.807 7.84944 22.8695 8.84375 21.9691Z" fill="#FCFBFF"/>
<path fill-rule="evenodd" clip-rule="evenodd" d="M12.3438 22.7812C13.2589 22.8413 13.561 23.2997 13.2501 24.1562C12.6146 24.7917 11.9793 25.4271 11.3438 26.0625C10.8063 26.3491 10.3791 26.2344 10.0626 25.7188C10.0084 25.4403 10.0292 25.1694 10.1251 24.9062C10.7416 24.3106 11.3353 23.6961 11.9063 23.0625C12.0562 22.9672 12.202 22.8735 12.3438 22.7812Z" fill="#FDFCFF"/>
</g>
<defs>
<clipPath id="clip0_4256_2440">
<rect width="32" height="32" fill="white"/>
</clipPath>
</defs>
</svg>
