<svg width="32" height="32" viewBox="0 0 32 32" fill="none" xmlns="http://www.w3.org/2000/svg">
    <g clip-path="url(#clip0_6112_2)">
        <path
            d="M9.15459 6.94981C8.17929 6.94981 7.42072 7.67383 7.42072 8.60474V29.8089C7.42072 30.6362 8.17929 31.3603 9.15459 31.3603C10.1299 31.3603 10.8885 30.6362 10.8885 29.7054V8.60474C10.8885 7.67383 10.1299 6.94981 9.15459 6.94981Z"
            fill="#25232E" />
        <path
            d="M30.069 0.330017C30.3941 0.330017 30.3941 0.330017 30.069 0.330017H23.0252C22.0499 0.330017 21.2913 1.05406 21.2913 1.98497V23.0856C21.2913 24.0165 22.0499 24.7405 23.0252 24.7405C24.0004 24.7405 24.759 24.0165 24.759 23.0856V3.63993H28.2267V23.0856C28.2267 23.0856 28.2267 23.0856 28.2267 23.189C28.2267 24.6371 27.5765 25.8783 26.4929 26.9127C25.6259 27.6367 24.434 28.1539 23.2419 28.1539C21.7247 28.2574 20.3159 27.7401 19.2323 26.7057C18.257 25.7748 17.7152 24.5337 17.7152 23.189C17.7152 23.0856 17.7152 23.0857 17.7152 22.9821V8.39791C17.7152 7.36357 17.4985 6.32923 16.9566 5.29489C16.5232 4.36398 15.873 3.43306 15.1144 2.70902C14.4642 1.98499 13.4889 1.36437 12.5136 0.95063C11.4299 0.536892 10.3462 0.330017 9.15421 0.330017C7.96217 0.330017 6.87849 0.536898 5.79483 1.05407C4.71115 1.4678 3.84422 2.08842 3.08566 2.81247C2.21872 3.53651 1.56854 4.36398 1.13507 5.39832C0.80997 6.2258 0.59323 7.26013 0.484863 8.19104C0.484863 8.29448 0.484863 8.29449 0.484863 8.39791V29.7054C0.484863 30.6363 1.24344 31.3603 2.21874 31.3603C3.19404 31.3603 3.95261 30.6363 3.95261 29.7054V8.70821V8.60477C3.95261 7.36356 4.38606 6.22579 5.25299 5.29489C6.33665 4.15711 7.85381 3.53649 9.37095 3.63993C10.563 3.63993 11.755 4.15711 12.622 4.88116C13.7056 5.81207 14.3558 7.15671 14.3558 8.50136V22.9821C14.3558 23.0857 14.3558 23.0856 14.3558 23.189C14.3558 24.3268 14.5725 25.3612 15.006 26.3954C15.4394 27.3264 16.0897 28.2574 16.8482 28.9813C17.6068 29.7054 18.5821 30.326 19.5574 30.7398C20.6411 31.1535 21.7247 31.3603 22.9168 31.3603C24.1088 31.3603 25.1925 31.1535 26.2762 30.7398C27.3598 30.326 28.2267 29.7054 28.9853 28.9813C29.7439 28.2574 30.3941 27.3264 30.8276 26.3954C31.261 25.4646 31.4777 24.5337 31.4777 23.6027C31.4777 23.4993 31.4777 23.4993 31.4777 23.3959V1.98497C31.6945 1.05406 30.936 0.433452 30.069 0.330017Z"
            fill="#25232E" />
    </g>
    <defs>
        <clipPath id="clip0_6112_2">
            <rect width="32" height="32" fill="white" />
        </clipPath>
    </defs>
</svg>