<svg width="32" height="32" viewBox="0 0 33 33" fill="none" xmlns="http://www.w3.org/2000/svg">
    <path fill-rule="evenodd" clip-rule="evenodd"
        d="M18.8768 0.747062C17.4543 0.717476 16.0331 0.747115 14.613 0.835962C13.8194 1.02546 13.7306 1.35142 14.3465 1.81386C15.3148 1.64852 16.2919 1.58924 17.2779 1.63606C17.3964 1.63606 17.4556 1.69532 17.4556 1.81386C15.9908 1.70961 14.5695 1.88741 13.1918 2.34726C13.3481 2.01143 13.3481 1.65583 13.1918 1.28046C12.718 1.28046 12.2443 1.28046 11.7705 1.28046C12.2182 1.0283 12.692 0.850506 13.1918 0.747062C15.1137 0.529951 17.0088 0.529951 18.8768 0.747062Z"
        fill="#AC3F92" />
    <path fill-rule="evenodd" clip-rule="evenodd"
        d="M18.8769 0.747169C18.8769 0.924968 18.8769 1.10277 18.8769 1.28057C19.3489 1.22047 19.7634 1.33901 20.1205 1.63617C20.0658 1.77985 19.9769 1.89837 19.854 1.99177C19.0256 1.47542 18.167 1.3569 17.278 1.63617C16.292 1.58935 15.3148 1.64863 14.3466 1.81397C13.7307 1.35153 13.8195 1.02557 14.6131 0.836069C16.0331 0.747222 17.4544 0.717583 18.8769 0.747169Z"
        fill="#BA3592" />
    <path fill-rule="evenodd" clip-rule="evenodd"
        d="M18.8769 0.74707C20.9493 1.05569 22.8443 1.76689 24.5619 2.88066C24.2601 2.85926 23.9641 2.8 23.6736 2.70287C23.3183 2.88066 22.963 3.05846 22.6077 3.23626C22.4892 3.177 22.3709 3.11772 22.2524 3.05846C22.4029 2.81936 22.61 2.64156 22.8742 2.52507C22.9792 2.3502 22.9198 2.23168 22.6965 2.16947C22.2845 2.41328 21.8404 2.5318 21.3641 2.52507C21.5417 3.177 21.9562 3.59186 22.6077 3.76966C22.7509 4.31183 22.9285 4.84522 23.1407 5.36986C22.1113 4.54786 21.1045 3.6885 20.1205 2.79176C19.5689 2.45962 18.9767 2.25218 18.3439 2.16947C18.0899 1.985 17.7937 1.86648 17.4556 1.81387C17.4556 1.69533 17.3965 1.63607 17.278 1.63607C18.167 1.3568 19.0256 1.47532 19.854 1.99167C19.9769 1.89827 20.0658 1.77975 20.1205 1.63607C19.7634 1.33891 19.3489 1.22037 18.8769 1.28047C18.8769 1.10267 18.8769 0.92487 18.8769 0.74707Z"
        fill="#CA3E8D" />
    <path fill-rule="evenodd" clip-rule="evenodd"
        d="M17.4556 1.81381C17.7936 1.86642 18.0898 1.98494 18.3439 2.16941C17.843 2.10384 17.3397 2.04456 16.8338 1.99161C15.5893 2.08655 14.3752 2.26435 13.1918 2.52501C13.1918 2.46575 13.1918 2.40647 13.1918 2.34721C14.5695 1.88736 15.9908 1.70956 17.4556 1.81381Z"
        fill="#F5BAED" />
    <path fill-rule="evenodd" clip-rule="evenodd"
        d="M18.3439 2.1695C18.9767 2.25221 19.5688 2.45965 20.1204 2.7918C21.1045 3.68853 22.1113 4.54789 23.1406 5.36989C23.2341 5.67754 23.4117 5.91461 23.6736 6.08109C23.8143 6.3419 23.8143 6.57896 23.6736 6.79229C23.2732 6.68139 22.977 6.44433 22.7853 6.08109C22.6034 6.32169 22.3666 6.44021 22.0747 6.43669C22.1015 7.11481 22.4568 7.41115 23.1406 7.32568C23.1406 11.1187 23.1406 14.9119 23.1406 18.7049C22.8967 18.6769 22.6597 18.7066 22.43 18.7938C22.6721 19.1723 22.6128 19.2612 22.2523 19.0605C22.1932 19.2086 22.1338 19.3568 22.0747 19.505C22.277 20.0062 22.4844 20.5099 22.6965 21.0162C22.7849 21.5464 22.8146 22.0798 22.7853 22.6164C22.5506 22.9578 22.3138 22.9875 22.0747 22.7053C22.3115 21.9941 22.3115 21.2829 22.0747 20.5717C21.36 20.1996 20.7085 20.2291 20.1204 20.6606C19.3681 21.2154 18.5389 21.571 17.6332 21.7274C16.6264 21.7274 15.6198 21.7274 14.613 21.7274C14.3762 21.7274 14.1392 21.7274 13.9024 21.7274C13.6656 21.6089 13.4286 21.4904 13.1918 21.3718C13.2223 21.1955 13.163 21.0771 13.0141 21.0162C11.3308 20.453 11.39 20.216 13.1918 20.305C13.1918 20.068 13.1918 19.8309 13.1918 19.5939C12.2067 19.8975 11.2592 19.8086 10.3492 19.3272C10.4677 19.2679 10.5861 19.2086 10.7046 19.1494C11.4484 19.1367 12.159 19.0181 12.8365 18.7938C12.3664 18.7054 11.8926 18.6757 11.4152 18.7049C11.4449 14.9113 11.4152 11.1183 11.3264 7.32568C11.2995 6.85997 11.1514 6.4451 10.8822 6.08109C11.2745 5.58905 11.4225 5.05565 11.3264 4.48089C11.8776 4.16032 12.3811 3.77508 12.8365 3.3252C12.9843 3.20292 13.1026 3.23256 13.1918 3.4141C12.955 3.71043 12.718 4.00675 12.4811 4.30309C13.0646 4.50881 13.6569 4.53843 14.2577 4.39199C13.9024 4.24383 13.5471 4.09565 13.1918 3.94749C13.8061 3.4248 14.5167 3.0692 15.3237 2.8807C15.1163 2.82144 14.9092 2.76216 14.7019 2.7029C14.2114 2.86605 13.708 2.98459 13.1918 3.0585C13.1918 2.8807 13.1918 2.7029 13.1918 2.5251C14.3752 2.26444 15.5893 2.08664 16.8338 1.9917C17.3397 2.04465 17.843 2.10393 18.3439 2.1695Z"
        fill="#F0CBEA" />
    <path fill-rule="evenodd" clip-rule="evenodd"
        d="M11.7705 1.28052C12.2444 1.28052 12.718 1.28052 13.1918 1.28052C13.3481 1.65589 13.3481 2.01149 13.1918 2.34731C13.1918 2.40658 13.1918 2.46585 13.1918 2.52511C12.9004 2.67093 12.6043 2.81909 12.3035 2.96961C11.5575 3.51556 10.9061 4.13786 10.3493 4.83651C9.75709 5.36991 9.16488 5.9033 8.57269 6.4367C8.51982 5.94516 8.34216 5.50066 8.03972 5.10321C8.45158 5.04235 8.83651 5.13125 9.1945 5.36991C9.31294 5.13285 9.31294 4.89577 9.1945 4.65871C8.82687 4.5229 8.44194 4.43401 8.03972 4.39201C8.43611 4.18807 8.85064 4.01027 9.28332 3.85861C9.52672 3.60235 9.70437 3.30601 9.8163 2.96961C9.15522 2.84905 8.5038 2.87869 7.86206 3.05851C7.86206 2.99925 7.86206 2.93997 7.86206 2.88071C9.11814 2.20559 10.421 1.67219 11.7705 1.28052Z"
        fill="#9F3496" />
    <path fill-rule="evenodd" clip-rule="evenodd"
        d="M24.5619 2.88063C24.9054 2.98914 25.2016 3.16694 25.4501 3.41403C24.8468 3.43766 24.7877 3.61546 25.2725 3.94743C25.1877 4.12125 25.0694 4.26941 24.9172 4.39193C25.1421 4.44696 25.3494 4.53586 25.539 4.65863C25.7236 5.05802 25.9309 5.44326 26.1608 5.81432C25.9137 6.10771 25.6472 6.19661 25.3613 6.08102C25.3316 6.16992 25.3022 6.25882 25.2725 6.34772C25.5068 6.99237 25.6253 7.61467 25.6278 8.21462C25.3722 7.88386 25.0762 7.58752 24.7395 7.32562C24.5222 6.81032 24.1669 6.39546 23.6736 6.08102C23.4117 5.91455 23.234 5.67747 23.1406 5.36982C22.9285 4.84519 22.7508 4.31179 22.6076 3.76963C21.9561 3.59183 21.5417 3.17697 21.364 2.52503C21.8403 2.53177 22.2845 2.41325 22.6964 2.16943C22.9198 2.23165 22.9791 2.35017 22.8741 2.52503C22.6099 2.64153 22.4028 2.81933 22.2523 3.05843C22.3708 3.11769 22.4891 3.17697 22.6076 3.23623C22.9629 3.05843 23.3183 2.88063 23.6736 2.70283C23.964 2.79996 24.26 2.85922 24.5619 2.88063Z"
        fill="#DA3B89" />
    <path fill-rule="evenodd" clip-rule="evenodd"
        d="M8.57271 6.43665C8.34181 6.95801 7.98649 7.37287 7.50676 7.68124C6.862 7.38627 6.80279 6.9714 7.3291 6.43665C7.15244 5.92117 7.3301 5.80263 7.86208 6.08105C8.05997 5.8636 8.08957 5.62654 7.9509 5.36985C7.41185 5.4106 6.96771 5.17352 6.61847 4.65865C6.40727 4.49353 6.17038 4.43427 5.90784 4.48085C6.45806 3.8784 7.10946 3.40426 7.86208 3.05845C8.50381 2.87863 9.15523 2.84899 9.81631 2.96956C9.70439 3.30595 9.52673 3.60229 9.28334 3.85855C8.85065 4.01022 8.43612 4.18802 8.03973 4.39195C8.44195 4.43395 8.82688 4.52285 9.19451 4.65865C9.31295 4.89571 9.31295 5.13279 9.19451 5.36985C8.83653 5.13119 8.4516 5.04229 8.03973 5.10315C8.34218 5.5006 8.51984 5.9451 8.57271 6.43665Z"
        fill="#92309A" />
    <path fill-rule="evenodd" clip-rule="evenodd"
        d="M5.90784 4.48095C6.17038 4.43437 6.40727 4.49363 6.61847 4.65875C6.96771 5.17362 7.41185 5.4107 7.9509 5.36995C8.08957 5.62664 8.05997 5.8637 7.86207 6.08115C7.3301 5.80273 7.15244 5.92127 7.3291 6.43675C6.80279 6.9715 6.862 7.38637 7.50676 7.68134C6.97378 8.51108 6.44081 9.3408 5.90784 10.1705C5.14032 10.9927 4.54813 11.9409 4.13126 13.0153C3.56383 13.9139 3.09007 14.8623 2.70999 15.8601C2.68119 15.4997 2.71079 15.1441 2.79882 14.7933C3.3415 14.0448 3.6672 13.2152 3.77594 12.3041C3.76077 11.9782 3.64232 11.7412 3.42062 11.5929C3.65467 10.8128 3.89154 10.7536 4.13126 11.4151C4.30891 11.4151 4.48657 11.4151 4.66423 11.4151C4.96033 10.8225 5.25642 10.2298 5.55252 9.63714C5.37486 9.63714 5.1972 9.63714 5.01955 9.63714C5.01955 9.81494 5.01955 9.99274 5.01955 10.1705C4.84189 10.1705 4.66423 10.1705 4.48657 10.1705C4.85887 9.54555 5.15497 8.86399 5.37486 8.12584C5.43408 8.0962 5.49331 8.06658 5.55252 8.03694C5.69129 8.2554 5.78012 8.49246 5.81901 8.74814C5.99867 8.59939 6.20593 8.54012 6.44081 8.57034C6.42551 8.18327 6.30707 7.82767 6.08549 7.50354C6.32237 7.38501 6.55925 7.26648 6.79613 7.14795C5.88087 6.39068 5.37751 6.56848 5.28603 7.68134C4.93386 7.46418 4.66737 7.16784 4.48657 6.79235C4.34679 6.92429 4.22835 7.07245 4.13126 7.23684C4.31195 7.42345 4.34157 7.63087 4.22009 7.85914C4.05881 7.51446 3.79232 7.33666 3.42062 7.32574C4.05218 6.21857 4.88126 5.27031 5.90784 4.48095Z"
        fill="#86319B" />
    <path fill-rule="evenodd" clip-rule="evenodd"
        d="M25.4502 3.41406C25.6085 3.52248 25.7862 3.58175 25.9832 3.59186C26.8075 4.29824 27.5773 5.0687 28.2927 5.90326C28.0534 5.80932 27.8164 5.77969 27.5821 5.81436C27.7733 6.12126 27.8029 6.44722 27.6709 6.79225C27.4933 6.85151 27.3156 6.91079 27.138 6.97005C27.0665 7.21401 26.9777 7.45107 26.8715 7.68125C27.1083 7.74051 27.3453 7.79979 27.5821 7.85905C27.8442 8.4186 27.8145 8.952 27.4933 9.45925C27.4498 9.07461 27.2721 8.77827 26.9603 8.57025C26.9051 8.79116 26.9939 8.96896 27.2268 9.10365C26.816 9.48633 26.8754 9.84192 27.4044 10.1704C27.6352 10.0655 27.7832 9.88774 27.8486 9.63705C28.4608 9.97312 28.4311 10.2398 27.7598 10.4371C27.9847 10.4922 28.192 10.5811 28.3816 10.7038C28.456 10.4954 28.5743 10.3176 28.7369 10.1704C28.9398 11.2202 28.7028 11.398 28.0263 10.7038C28.0183 11.1875 28.1071 11.6615 28.2927 12.1262C27.4945 10.7673 26.6062 9.46348 25.6279 8.21465C25.6254 7.6147 25.5069 6.9924 25.2726 6.34775C25.3022 6.25885 25.3317 6.16996 25.3614 6.08106C25.6472 6.19664 25.9137 6.10774 26.1608 5.81436C25.931 5.44329 25.7236 5.05805 25.539 4.65866C25.3495 4.53589 25.1422 4.44699 24.9172 4.39196C25.0695 4.26944 25.1878 4.12128 25.2726 3.94746C24.7877 3.61549 24.8469 3.43769 25.4502 3.41406Z"
        fill="#E23E87" />
    <path fill-rule="evenodd" clip-rule="evenodd"
        d="M10.3493 4.83643C9.7398 5.65553 9.08838 6.45563 8.39505 7.23672C8.57271 7.29598 8.75037 7.35526 8.92802 7.41452C8.79498 7.72277 8.70615 8.04873 8.66154 8.39242C8.17973 8.24418 7.70597 8.30346 7.24027 8.57022C7.3837 9.32704 7.44291 10.0975 7.41793 10.8816C7.07988 10.5365 6.93184 10.1216 6.97379 9.63701C6.53909 9.65746 6.18378 9.83526 5.90784 10.1704C6.44081 9.34067 6.97379 8.51095 7.50676 7.68122C7.98649 7.37284 8.34181 6.95798 8.57271 6.43662C9.16489 5.90322 9.7571 5.36982 10.3493 4.83643Z"
        fill="#EDC5F4" />
    <path fill-rule="evenodd" clip-rule="evenodd"
        d="M23.6736 6.08105C24.167 6.39549 24.5223 6.81035 24.7396 7.32565C24.7326 7.51824 24.6733 7.69604 24.5619 7.85905C24.7213 7.88912 24.8989 7.94838 25.0949 8.03685C25.0357 8.15539 24.9764 8.27391 24.9172 8.39245C25.1812 8.86298 25.4772 9.30748 25.8055 9.72594C25.7759 9.81484 25.7464 9.90374 25.7167 9.99264C25.4205 9.57778 25.0652 9.22219 24.6507 8.92585C24.509 9.23856 24.5386 9.5349 24.7396 9.81484C25.167 10.2564 25.552 10.7305 25.8944 11.2372C26.0948 10.9091 26.1836 10.5535 26.1608 10.1704C26.6885 10.2141 26.9253 10.5105 26.8715 11.0594C27.0491 11.0594 27.2268 11.0594 27.4044 11.0594C27.4044 11.7114 27.4044 12.3632 27.4044 13.0152C27.2732 13.0385 27.1547 13.0088 27.0491 12.9263C27.3517 12.2571 27.1444 11.8126 26.4273 11.5928C26.075 12.0249 26.1045 12.4397 26.5162 12.8374C26.2417 13.0067 25.9455 13.0659 25.6279 13.0152C25.5698 15.8783 25.7474 18.7231 26.1608 21.5496C25.6279 21.5496 25.0949 21.5496 24.5619 21.5496C24.5619 21.7274 24.5619 21.9052 24.5619 22.083C24.9172 22.083 25.2726 22.083 25.6279 22.083C25.6812 22.9007 25.622 23.7008 25.4502 24.4833C25.1898 24.5962 24.9528 24.7445 24.7396 24.9278C24.595 24.5249 24.5061 24.1099 24.4731 23.6832C24.1819 24.4614 23.6193 24.7578 22.7853 24.5722C22.6297 24.5955 22.5112 24.5363 22.43 24.3944C22.6594 24.2118 22.6594 24.034 22.43 23.861C22.4067 23.7296 22.4364 23.611 22.5189 23.5054C22.6373 23.7424 22.7557 23.7424 22.8742 23.5054C23.0127 23.1699 22.9831 22.8735 22.7853 22.6164C22.8147 22.0798 22.785 21.5464 22.6965 21.0162C22.4844 20.5098 22.2771 20.0061 22.0747 19.5049C22.1339 19.3568 22.1932 19.2085 22.2524 19.0604C22.6128 19.2612 22.6722 19.1723 22.43 18.7937C22.6597 18.7066 22.8967 18.6769 23.1407 18.7048C23.1407 14.9118 23.1407 11.1186 23.1407 7.32565C22.4568 7.41112 22.1015 7.11478 22.0747 6.43665C22.3666 6.44017 22.6034 6.32165 22.7853 6.08105C22.977 6.4443 23.2732 6.68136 23.6736 6.79225C23.8143 6.57893 23.8143 6.34187 23.6736 6.08105Z"
        fill="#F3CAE6" />
    <path fill-rule="evenodd" clip-rule="evenodd"
        d="M3.42058 11.5929C3.02626 12.1726 2.81899 12.8244 2.79877 13.5487C2.6713 13.7178 2.52324 13.7473 2.35463 13.6376C2.31636 12.7413 2.31636 11.8226 2.35463 10.8817C2.84997 10.957 3.20529 10.7792 3.42058 10.3483C3.15322 10.1098 3.03479 9.81348 3.06526 9.45934C3.24292 9.45934 3.42058 9.45934 3.59823 9.45934C3.56501 9.09231 3.47618 8.73671 3.33175 8.39254C3.12824 8.18197 2.92098 8.18197 2.70994 8.39254C2.88238 8.03993 3.06004 7.68433 3.24292 7.32574C3.30213 7.32574 3.36136 7.32574 3.42058 7.32574C3.79227 7.33666 4.05876 7.51446 4.22004 7.85914C4.34152 7.63087 4.3119 7.42344 4.13121 7.23684C4.2283 7.07245 4.34674 6.92429 4.48652 6.79235C4.66733 7.16784 4.93381 7.46418 5.28599 7.68134C5.37746 6.56848 5.88082 6.39068 6.79608 7.14794C6.55921 7.26648 6.32232 7.385 6.08545 7.50354C6.30702 7.82767 6.42547 8.18327 6.44076 8.57034C6.20588 8.54011 5.99863 8.59939 5.81896 8.74814C5.78007 8.49246 5.69124 8.2554 5.55247 8.03694C5.49326 8.06658 5.43403 8.0962 5.37481 8.12584C5.15493 8.86399 4.85882 9.54555 4.48652 10.1705C4.66418 10.1705 4.84184 10.1705 5.0195 10.1705C5.0195 9.99274 5.0195 9.81494 5.0195 9.63714C5.19716 9.63714 5.37481 9.63714 5.55247 9.63714C5.25637 10.2298 4.96029 10.8225 4.66418 11.4151C4.48652 11.4151 4.30887 11.4151 4.13121 11.4151C3.89149 10.7536 3.65462 10.8128 3.42058 11.5929Z"
        fill="#802C9F" />
    <path fill-rule="evenodd" clip-rule="evenodd"
        d="M3.42059 11.5929C3.64229 11.7412 3.76074 11.9782 3.77591 12.3041C3.66716 13.2152 3.34146 14.0448 2.79879 14.7933C2.71076 15.1441 2.68116 15.4997 2.70996 15.8601C2.39778 16.0009 2.16091 16.2379 1.99933 16.5713C1.94011 16.3935 1.88088 16.2157 1.82167 16.0379C1.6926 14.9286 1.6926 13.8026 1.82167 12.6597C1.79205 12.5411 1.76246 12.4227 1.73284 12.3041C1.47382 13.1227 1.32577 13.1524 1.2887 12.393C1.52091 11.666 1.69857 10.9252 1.82167 10.1705C1.93299 9.47355 2.22909 8.88089 2.70996 8.39255C2.921 8.18198 3.12826 8.18198 3.33176 8.39255C3.4762 8.73671 3.56503 9.09231 3.59825 9.45934C3.42059 9.45934 3.24293 9.45934 3.06528 9.45934C3.03481 9.81348 3.15323 10.1098 3.42059 10.3483C3.20531 10.7792 2.84999 10.957 2.35464 10.8817C2.31638 11.8227 2.31638 12.7413 2.35464 13.6376C2.52326 13.7473 2.67132 13.7178 2.79879 13.5487C2.81901 12.8244 3.02628 12.1726 3.42059 11.5929Z"
        fill="#7A2AA3" />
    <path fill-rule="evenodd" clip-rule="evenodd"
        d="M13.1918 2.52515C13.1918 2.70295 13.1918 2.88075 13.1918 3.05855C13.708 2.98463 14.2113 2.86609 14.7019 2.70295C14.9092 2.76221 15.1163 2.82148 15.3237 2.88075C14.5167 3.06925 13.8061 3.42485 13.1918 3.94754C13.5471 4.0957 13.9024 4.24388 14.2577 4.39204C13.6569 4.53848 13.0646 4.50886 12.4811 4.30314C12.718 4.0068 12.955 3.71048 13.1918 3.41414C13.1026 3.23261 12.9843 3.20297 12.8365 3.32524C12.3811 3.77513 11.8776 4.16037 11.3264 4.48094C11.4225 5.0557 11.2745 5.58909 10.8822 6.08114C11.1514 6.44515 11.2995 6.86002 11.3264 7.32573C11.4152 11.1184 11.4449 14.9114 11.4152 18.7049C11.8926 18.6757 12.3664 18.7054 12.8365 18.7938C12.159 19.0182 11.4484 19.1368 10.7046 19.1494C10.5861 19.2086 10.4677 19.268 10.3492 19.3272C11.2592 19.8087 12.2067 19.8976 13.1918 19.5939C13.1918 19.8309 13.1918 20.0681 13.1918 20.3051C11.39 20.216 11.3308 20.453 13.0141 21.0163C12.2717 20.8872 11.561 20.8872 10.8822 21.0163C10.5713 21.2224 10.3936 21.5188 10.3492 21.9053C10.3017 22.1896 10.3609 22.4266 10.5269 22.6165C10.6767 22.9139 10.9135 23.1214 11.2375 23.2388C12.166 23.5418 13.1134 23.7491 14.0801 23.8611C14.0801 23.9203 14.0801 23.9797 14.0801 24.0389C13.306 24.0236 12.5362 23.9642 11.7705 23.8611C11.7705 24.0389 11.7705 24.2167 11.7705 24.3945C11.3399 24.4492 10.9253 24.3899 10.5269 24.2167C10.6317 23.9857 10.8094 23.8376 11.0599 23.7722C10.9118 23.5055 10.7046 23.298 10.4381 23.1499C10.3498 23.5606 10.3202 23.9754 10.3492 24.3945C9.16337 24.365 7.97898 24.3945 6.79608 24.4834C7.23083 24.6564 7.67497 24.8045 8.12852 24.9279C8.69489 24.8278 9.25748 24.7094 9.81627 24.5723C10.5027 24.8436 11.2134 24.962 11.9482 24.9279C11.9784 25.1629 11.9192 25.3704 11.7705 25.5502C10.9465 25.6716 10.2359 25.9977 9.63861 26.5281C8.97104 26.2162 8.26041 26.0976 7.50671 26.1725C7.08726 26.1415 6.67271 26.0823 6.26311 25.9947C5.38169 25.4661 4.61183 24.8143 3.95355 24.0389C3.73372 23.5656 3.58568 23.0914 3.50941 22.6165C3.58296 22.5352 3.67179 22.4759 3.77589 22.4387C4.07656 22.7692 4.34305 23.1248 4.57536 23.5055C4.60497 23.298 4.63457 23.0907 4.66418 22.8832C4.61815 22.4469 4.44049 22.0913 4.13121 21.8164C4.43357 19.8409 4.58161 17.8554 4.57536 15.8601C4.40612 16.982 4.13963 18.0785 3.77589 19.1494C3.926 19.9426 3.98521 20.7427 3.95355 21.5497C3.71668 21.5497 3.47979 21.5497 3.24292 21.5497C3.29089 20.1255 3.37972 18.7031 3.50941 17.2825C3.72276 16.6739 3.98924 16.0813 4.30887 15.5045C4.18701 15.1761 4.00935 14.8797 3.77589 14.6155C4.03034 14.1129 4.14876 13.5795 4.13121 13.0153C5.37448 12.4809 5.96668 11.5326 5.90779 10.1705C6.18373 9.83537 6.53904 9.65757 6.97374 9.63713C6.93179 10.1218 7.07984 10.5366 7.41788 10.8817C7.44286 10.0976 7.38365 9.32715 7.24023 8.57033C7.70592 8.30358 8.17968 8.2443 8.66149 8.39253C8.7061 8.04884 8.79493 7.72288 8.92798 7.41463C8.75032 7.35537 8.57266 7.29609 8.395 7.23683C9.08833 6.45574 9.73975 5.65564 10.3492 4.83654C10.906 4.13789 11.5575 3.5156 12.3035 2.96965C12.6043 2.81912 12.9004 2.67096 13.1918 2.52515Z"
        fill="#ECCBF0" />
    <path fill-rule="evenodd" clip-rule="evenodd"
        d="M30.2469 8.74805C31.2152 9.99113 31.8075 11.4136 32.0235 13.0152C31.6913 12.1081 31.3065 11.2191 30.8688 10.3482C30.8245 10.5481 30.7357 10.7259 30.6023 10.8816C30.4829 10.624 30.3644 10.3869 30.2469 10.1704C30.4477 9.69097 30.4477 9.21685 30.2469 8.74805Z"
        fill="#F0538E" />
    <path fill-rule="evenodd" clip-rule="evenodd"
        d="M28.2927 5.90321C28.9962 6.59613 29.6181 7.36659 30.1581 8.21461C30.2439 8.38316 30.2734 8.56096 30.247 8.748C30.4477 9.21681 30.4477 9.69093 30.247 10.1704C29.9163 10.5696 29.7387 11.0438 29.714 11.5928C29.8916 11.5928 30.0693 11.5928 30.247 11.5928C30.2205 11.4058 30.25 11.228 30.3358 11.0594C30.4273 11.8995 30.5753 12.7293 30.7799 13.5486C30.695 14.3636 30.5174 15.134 30.247 15.86C29.9117 15.4902 29.6156 15.0752 29.3587 14.6154C29.0385 13.7737 28.6832 12.9439 28.2927 12.1262C28.1071 11.6614 28.0182 11.1874 28.0262 10.7038C28.7028 11.3979 28.9398 11.2201 28.7369 10.1704C28.5743 10.3176 28.456 10.4954 28.3816 10.7038C28.192 10.581 27.9847 10.4921 27.7598 10.4371C28.4311 10.2398 28.4608 9.97308 27.8486 9.637C27.7832 9.8877 27.6352 10.0655 27.4044 10.1704C26.8754 9.84188 26.816 9.48628 27.2268 9.1036C26.9939 8.96892 26.905 8.79112 26.9603 8.5702C27.2721 8.77823 27.4497 9.07457 27.4933 9.4592C27.8145 8.95196 27.8441 8.41856 27.5821 7.85901C27.3453 7.79975 27.1083 7.74047 26.8715 7.68121C26.9777 7.45103 27.0665 7.21397 27.1379 6.97001C27.3156 6.91075 27.4933 6.85147 27.6709 6.79221C27.8029 6.44717 27.7733 6.12121 27.5821 5.81431C27.8164 5.77964 28.0534 5.80928 28.2927 5.90321Z"
        fill="#EF3D85" />
    <path fill-rule="evenodd" clip-rule="evenodd"
        d="M27.4045 13.0152C27.6123 13.3315 27.9083 13.5093 28.2928 13.5486C28.2226 14.0861 28.4003 14.2639 28.8257 14.082C28.9396 14.3474 29.1173 14.5252 29.3587 14.6154C29.6156 15.0752 29.9118 15.4901 30.247 15.86C30.247 15.9786 30.247 16.097 30.247 16.2156C31.2913 19.2632 30.7583 21.9894 28.6481 24.3943C28.2697 24.6836 27.9144 25.0095 27.5821 25.3722C26.9888 25.5506 26.4558 25.8173 25.9832 26.1723C25.3234 26.1883 24.7311 26.3661 24.2066 26.7057C23.3775 26.8243 22.5486 26.9427 21.7194 27.0613C21.4568 27.1079 21.22 27.0487 21.0088 26.8835C21.1463 26.6682 21.2943 26.6682 21.4529 26.8835C21.5121 26.7649 21.5714 26.6465 21.6306 26.5279C22.0961 26.7809 22.5402 26.7514 22.963 26.439C22.7262 26.3798 22.4892 26.3204 22.2524 26.2612C22.6555 25.9015 23.1293 25.7534 23.6737 25.8167C23.6737 25.6389 23.6737 25.4611 23.6737 25.2833C23.068 25.2387 22.4759 25.2981 21.8971 25.4611C21.8379 25.4019 21.7786 25.3425 21.7194 25.2833C22.1293 25.107 22.4846 24.87 22.7854 24.5721C23.6193 24.7578 24.1819 24.4614 24.4731 23.6831C24.5062 24.1099 24.595 24.5248 24.7396 24.9277C24.9528 24.7444 25.1898 24.5961 25.4502 24.4832C25.622 23.7007 25.6812 22.9006 25.6279 22.0829C25.2726 22.0829 24.9173 22.0829 24.5619 22.0829C24.5619 21.9051 24.5619 21.7273 24.5619 21.5495C25.0949 21.5495 25.6279 21.5495 26.1609 21.5495C25.7475 18.7231 25.5698 15.8783 25.6279 13.0152C25.9455 13.0658 26.2417 13.0066 26.5162 12.8374C26.1046 12.4396 26.0751 12.0248 26.4274 11.5928C27.1444 11.8125 27.3517 12.257 27.0492 12.9263C27.1547 13.0088 27.2732 13.0385 27.4045 13.0152Z"
        fill="#F5C9E4" />
    <path fill-rule="evenodd" clip-rule="evenodd"
        d="M5.90781 10.1704C5.9667 11.5325 5.37449 12.4807 4.13123 13.0152C4.5481 11.9408 5.14029 10.9926 5.90781 10.1704Z"
        fill="#EAC2F4" />
    <path fill-rule="evenodd" clip-rule="evenodd"
        d="M24.7395 7.32568C25.0762 7.58758 25.3722 7.88392 25.6278 8.21468C26.6062 9.46351 27.4945 10.7674 28.2927 12.1263C28.6832 12.944 29.0385 13.7738 29.3587 14.6155C29.1172 14.5253 28.9396 14.3475 28.8257 14.0821C28.4002 14.264 28.2225 14.0862 28.2927 13.5487C27.9083 13.5094 27.6123 13.3316 27.4044 13.0153C27.4044 12.3633 27.4044 11.7115 27.4044 11.0595C27.2268 11.0595 27.0491 11.0595 26.8714 11.0595C26.9253 10.5105 26.6885 10.2142 26.1608 10.1705C26.1836 10.5536 26.0947 10.9092 25.8943 11.2373C25.552 10.7305 25.167 10.2564 24.7395 9.81488C24.5386 9.53493 24.5089 9.23859 24.6507 8.92588C25.0652 9.22222 25.4205 9.57782 25.7167 9.99268C25.7463 9.90378 25.7758 9.81488 25.8055 9.72598C25.4772 9.30751 25.1812 8.86301 24.9172 8.39248C24.9764 8.27394 25.0357 8.15542 25.0949 8.03688C24.8989 7.94841 24.7212 7.88915 24.5619 7.85908C24.6733 7.69608 24.7326 7.51828 24.7395 7.32568Z"
        fill="#F8C4E2" />
    <path fill-rule="evenodd" clip-rule="evenodd"
        d="M30.247 10.1704C30.3644 10.3869 30.4829 10.6239 30.6023 10.8816C30.7357 10.7259 30.8245 10.5481 30.8688 10.3482C31.3065 11.2191 31.6913 12.1081 32.0235 13.0152C32.2669 14.9196 32.2374 16.8162 31.9347 18.7048C31.8756 18.5862 31.8162 18.4678 31.7571 18.3492C31.4957 18.7709 31.2886 18.7709 31.1353 18.3492C31.0471 17.9987 30.9878 17.6431 30.9576 17.2824C31.0804 16.8027 31.1989 16.3285 31.3129 15.86C30.9189 15.8803 30.5635 15.9987 30.247 16.2156C30.247 16.097 30.247 15.9786 30.247 15.86C30.5174 15.134 30.695 14.3636 30.7799 13.5486C30.5753 12.7293 30.4273 11.8995 30.3358 11.0594C30.25 11.228 30.2205 11.4058 30.247 11.5928C30.0693 11.5928 29.8916 11.5928 29.714 11.5928C29.7387 11.0438 29.9163 10.5696 30.247 10.1704Z"
        fill="#F83D82" />
    <path fill-rule="evenodd" clip-rule="evenodd"
        d="M0.755716 13.0151C1.08024 13.9045 1.34673 14.8527 1.55518 15.8599C1.53197 17.9036 1.73925 19.9187 2.17698 21.9051C2.10613 22.2068 2.0173 22.5031 1.91049 22.7941C1.60288 21.9318 1.42522 21.0428 1.37752 20.1271C1.21502 19.9799 1.09657 19.8021 1.0222 19.5937C1.09472 18.8343 1.18355 18.0639 1.28869 17.2823C1.22948 16.8081 1.17025 16.3341 1.11103 15.8599C0.922075 16.5429 0.80363 17.1947 0.755716 17.8157C0.578591 16.5768 0.519377 15.3322 0.578058 14.0819C0.581113 13.7148 0.640327 13.3592 0.755716 13.0151Z"
        fill="#732AA4" />
    <path fill-rule="evenodd" clip-rule="evenodd"
        d="M4.13124 13.0151C4.14879 13.5793 4.03036 14.1127 3.77592 14.6153C4.00938 14.8795 4.18704 15.1759 4.30889 15.5043C3.98927 16.0811 3.72278 16.6737 3.50943 17.2823C3.37974 18.7029 3.29091 20.1253 3.24295 21.5495C3.47982 21.5495 3.71671 21.5495 3.95358 21.5495C3.98524 20.7425 3.92602 19.9424 3.77592 19.1492C4.13966 18.0783 4.40614 16.9818 4.57538 15.8599C4.58163 17.8552 4.43359 19.8407 4.13124 21.8162C4.44052 22.0911 4.61818 22.4467 4.66421 22.883C4.63459 23.0905 4.605 23.2978 4.57538 23.5053C4.34307 23.1246 4.07659 22.769 3.77592 22.4385C3.67181 22.4757 3.58298 22.5351 3.50943 22.6163C3.5857 23.0912 3.73374 23.5654 3.95358 24.0387C2.29811 22.2351 1.6763 20.1015 2.08817 17.6379C2.24721 17.0243 2.45446 16.4317 2.70997 15.8599C3.09005 14.8621 3.56381 13.9137 4.13124 13.0151Z"
        fill="#E8C8F3" />
    <path fill-rule="evenodd" clip-rule="evenodd"
        d="M10.8822 21.0162C11.561 20.8872 12.2717 20.8872 13.0141 21.0162C13.163 21.0771 13.2223 21.1955 13.1918 21.3718C12.4266 21.2248 11.6568 21.1064 10.8822 21.0162Z"
        fill="#E5B3F0" />
    <path fill-rule="evenodd" clip-rule="evenodd"
        d="M10.5269 22.6165C10.3609 22.4266 10.3017 22.1896 10.3493 21.9053C10.5861 21.9053 10.823 21.9053 11.0599 21.9053C11.0599 21.7275 11.0599 21.5497 11.0599 21.3719C11.9066 21.2931 12.0843 21.5598 11.5929 22.172C11.6796 22.4536 11.8572 22.6611 12.1259 22.7943C12.0074 22.8535 11.889 22.9129 11.7705 22.9721C11.4015 22.7166 10.987 22.598 10.5269 22.6165Z"
        fill="#7D2BA4" />
    <path fill-rule="evenodd" clip-rule="evenodd"
        d="M10.8822 21.0161C11.6568 21.1063 12.4266 21.2247 13.1918 21.3717C13.4286 21.4903 13.6656 21.6087 13.9024 21.7273C14.1796 22.0169 14.1204 22.2244 13.7247 22.3496C14.1129 22.6115 14.4089 22.9671 14.613 23.4164C14.5143 23.5962 14.3959 23.7443 14.2577 23.8609C14.1986 23.8609 14.1392 23.8609 14.0801 23.8609C13.1134 23.7489 12.166 23.5416 11.2375 23.2386C10.9135 23.1213 10.6767 22.9138 10.5269 22.6163C10.9869 22.5978 11.4015 22.7164 11.7705 22.9719C11.889 22.9127 12.0073 22.8533 12.1258 22.7941C11.8572 22.6609 11.6795 22.4534 11.5928 22.1718C12.0843 21.5596 11.9066 21.2929 11.0599 21.3717C11.0599 21.5495 11.0599 21.7273 11.0599 21.9051C10.823 21.9051 10.5861 21.9051 10.3492 21.9051C10.3936 21.5186 10.5713 21.2222 10.8822 21.0161Z"
        fill="#8C359A" />
    <path fill-rule="evenodd" clip-rule="evenodd"
        d="M21.3641 20.6607C20.486 20.623 20.3675 20.8008 21.0088 21.194C20.7905 21.3329 20.5536 21.4218 20.2982 21.4607C20.5009 21.5925 20.5009 21.7408 20.2982 21.9052C20.7405 22.1867 21.2144 22.3645 21.7194 22.4386C21.2659 22.8092 20.7329 23.0462 20.1205 23.1498C19.8579 23.1964 19.6211 23.1372 19.4099 22.972C19.447 22.8679 19.5063 22.779 19.5875 22.7053C19.0889 22.066 18.4374 21.7399 17.6333 21.7274C18.539 21.571 19.3681 21.2154 20.1205 20.6607C20.5542 20.4373 20.9687 20.4373 21.3641 20.6607Z"
        fill="#E0428A" />
    <path fill-rule="evenodd" clip-rule="evenodd"
        d="M21.364 20.6607C22.031 20.8968 22.2383 21.3708 21.9858 22.0831C21.8585 22.1798 21.7696 22.2984 21.7194 22.4387C21.2143 22.3646 20.7405 22.1868 20.2981 21.9053C20.5008 21.7408 20.5008 21.5926 20.2981 21.4608C20.5536 21.4219 20.7904 21.333 21.0087 21.1941C20.3674 20.8008 20.4859 20.623 21.364 20.6607Z"
        fill="#F13F85" />
    <path fill-rule="evenodd" clip-rule="evenodd"
        d="M13.9024 21.7273C14.1392 21.7273 14.3762 21.7273 14.613 21.7273C15.0517 21.8726 15.5253 21.9615 16.0343 21.994C14.8557 22.1403 14.8557 22.2292 16.0343 22.2607C16.0343 22.7349 16.0343 23.2089 16.0343 23.6831C15.4374 23.7037 14.8452 23.7629 14.2577 23.8609C14.3959 23.7443 14.5142 23.5961 14.613 23.4164C14.4089 22.9671 14.1129 22.6115 13.7247 22.3496C14.1204 22.2244 14.1795 22.0169 13.9024 21.7273Z"
        fill="#A63396" />
    <path fill-rule="evenodd" clip-rule="evenodd"
        d="M32.0235 13.0151C32.166 13.2733 32.2549 13.5695 32.29 13.9041C32.4085 15.6229 32.4085 17.3415 32.29 19.0603C31.7338 21.9506 30.5198 24.499 28.648 26.7057C28.5168 26.729 28.3983 26.6993 28.2927 26.6168C28.9813 26.1302 28.9813 25.6265 28.2927 25.1055C28.4935 24.906 28.612 24.6688 28.648 24.3943C30.7583 21.9894 31.2912 19.2632 30.247 16.2155C30.5635 15.9986 30.9189 15.8802 31.3129 15.8599C31.1989 16.3284 31.0804 16.8026 30.9576 17.2823C30.9878 17.6431 31.0471 17.9987 31.1353 18.3491C31.2886 18.7709 31.4957 18.7709 31.7571 18.3491C31.8162 18.4677 31.8756 18.5861 31.9347 18.7047C32.2374 16.8161 32.2669 14.9195 32.0235 13.0151Z"
        fill="#EE4587" />
    <path fill-rule="evenodd" clip-rule="evenodd"
        d="M14.6131 21.7273C15.6198 21.7273 16.6265 21.7273 17.6332 21.7273C17.6135 21.837 17.5544 21.9259 17.4556 21.994C17.1003 22.0532 16.7449 22.1126 16.3896 22.1718C16.9651 22.5663 17.0836 23.07 16.7449 23.6831C17.2188 23.6831 17.6924 23.6831 18.1662 23.6831C17.9692 23.8236 17.7324 23.9125 17.4556 23.9498C16.3319 24.0387 15.2068 24.0682 14.0801 24.0387C14.0801 23.9795 14.0801 23.9201 14.0801 23.8609C14.1392 23.8609 14.1986 23.8609 14.2577 23.8609C14.8453 23.7629 15.4374 23.7037 16.0343 23.6831C16.0343 23.2089 16.0343 22.7349 16.0343 22.2607C14.8557 22.2292 14.8557 22.1403 16.0343 21.994C15.5253 21.9615 15.0517 21.8726 14.6131 21.7273Z"
        fill="#B84396" />
    <path fill-rule="evenodd" clip-rule="evenodd"
        d="M17.6333 21.7273C18.4373 21.7397 19.0888 22.0658 19.5875 22.7052C19.5063 22.7788 19.447 22.8677 19.4098 22.9719C19.6211 23.1371 19.8579 23.1963 20.1205 23.1497C19.5544 23.5718 18.903 23.7496 18.1662 23.6831C17.6924 23.6831 17.2188 23.6831 16.745 23.6831C17.0836 23.07 16.9651 22.5663 16.3896 22.1718C16.745 22.1126 17.1003 22.0532 17.4556 21.994C17.5544 21.9259 17.6135 21.837 17.6333 21.7273Z"
        fill="#CC398C" />
    <path fill-rule="evenodd" clip-rule="evenodd"
        d="M22.7853 22.6165C22.9831 22.8736 23.0127 23.17 22.8742 23.5055C22.7557 23.7425 22.6373 23.7425 22.5188 23.5055C22.4364 23.6111 22.4067 23.7297 22.43 23.8611C22.23 24.0769 21.9931 24.2547 21.7194 24.3945C20.9077 23.9544 20.0787 23.9544 19.2322 24.3945C19.1137 24.3648 18.9953 24.3353 18.8768 24.3056C19.0765 24.2613 19.2542 24.1724 19.4098 24.0389C19.321 23.9797 19.2322 23.9203 19.1433 23.8611C17.4396 24.2268 15.7518 24.286 14.0801 24.0389C15.2068 24.0684 16.3319 24.0389 17.4556 23.95C17.7324 23.9126 17.9692 23.8237 18.1662 23.6833C18.903 23.7498 19.5544 23.572 20.1205 23.1499C20.7328 23.0462 21.2658 22.8092 21.7194 22.4387C21.7697 22.2984 21.8585 22.1798 21.9859 22.0831C22.2383 21.3708 22.031 20.8968 21.3641 20.6607C20.9686 20.4374 20.5541 20.4374 20.1205 20.6607C20.7085 20.2292 21.36 20.1997 22.0747 20.5718C22.3115 21.283 22.3115 21.9942 22.0747 22.7054C22.3138 22.9876 22.5506 22.9579 22.7853 22.6165Z"
        fill="#F6C5E6" />
    <path fill-rule="evenodd" clip-rule="evenodd"
        d="M14.0801 24.0389C15.7519 24.286 17.4396 24.2268 19.1434 23.8611C19.2322 23.9203 19.321 23.9797 19.4099 24.0389C19.2542 24.1724 19.0766 24.2613 18.8769 24.3056C18.9954 24.3353 19.1137 24.3648 19.2322 24.3945C20.0787 23.9544 20.9077 23.9544 21.7194 24.3945C21.9932 24.2547 22.23 24.0769 22.43 23.8611C22.6594 24.0341 22.6594 24.2119 22.43 24.3945C22.5112 24.5364 22.6297 24.5956 22.7854 24.5723C22.4846 24.8701 22.1293 25.1071 21.7194 25.2835C21.7786 25.3427 21.8379 25.4021 21.8971 25.4613C22.4759 25.2983 23.068 25.2389 23.6737 25.2835C23.6737 25.4613 23.6737 25.6391 23.6737 25.8169C23.1293 25.7536 22.6555 25.9017 22.2524 26.2614C22.4892 26.3206 22.7262 26.38 22.963 26.4392C22.5402 26.7516 22.0961 26.7811 21.6306 26.5281C21.5714 26.6467 21.5121 26.7651 21.4529 26.8837C21.2943 26.6684 21.1463 26.6684 21.0088 26.8837C21.22 27.0489 21.4568 27.1081 21.7194 27.0615C21.4058 27.2324 21.0505 27.2917 20.6535 27.2393C18.6426 27.3677 16.6292 27.4269 14.6131 27.4171C14.1393 27.4171 13.6656 27.4171 13.1918 27.4171C12.8783 27.2462 12.5229 27.1868 12.1259 27.2393C11.8891 27.2393 11.6521 27.2393 11.4153 27.2393C11.4153 27.1801 11.4153 27.1207 11.4153 27.0615C11.4931 27.073 11.5524 27.0435 11.5929 26.9726C11.4458 26.8099 11.2682 26.6915 11.0599 26.617C10.5549 26.6627 10.0811 26.633 9.63867 26.5281C10.236 25.9977 10.9466 25.6716 11.7706 25.5502C11.9193 25.3704 11.9784 25.1629 11.9482 24.9279C11.2134 24.962 10.5028 24.8436 9.81633 24.5723C9.25754 24.7094 8.69495 24.8278 8.12858 24.9279C7.67503 24.8045 7.23089 24.6564 6.79614 24.4834C7.97904 24.3945 9.16344 24.365 10.3493 24.3945C10.3203 23.9754 10.3499 23.5606 10.4381 23.1499C10.7046 23.298 10.9119 23.5055 11.0599 23.7722C10.8094 23.8376 10.6318 23.9857 10.527 24.2167C10.9254 24.3899 11.3399 24.4493 11.7706 24.3945C11.7706 24.2167 11.7706 24.0389 11.7706 23.8611C12.5363 23.9642 13.3061 24.0236 14.0801 24.0389Z"
        fill="#EFCBEA" />
    <path fill-rule="evenodd" clip-rule="evenodd"
        d="M1.64403 10.1704C1.70324 10.1704 1.76247 10.1704 1.82169 10.1704C1.69859 10.9251 1.52093 11.6659 1.28871 12.3929C1.32579 13.1523 1.47383 13.1226 1.73286 12.304C1.76247 12.4226 1.79207 12.541 1.82169 12.6596C1.69262 13.8025 1.69262 14.9285 1.82169 16.0378C1.8809 16.2156 1.94013 16.3934 1.99934 16.5712C2.16092 16.2378 2.39779 16.0008 2.70998 15.86C2.45447 16.4318 2.24721 17.0244 2.08817 17.638C1.67631 20.1016 2.29811 22.2352 3.95358 24.0388C4.61186 24.8142 5.38172 25.466 6.26314 25.9946C5.89318 25.9995 5.56748 25.881 5.28602 25.639C5.09104 25.8998 4.82455 26.0481 4.48656 26.0835C4.27415 26.1997 4.27415 26.2886 4.48656 26.3502C4.91306 26.0724 5.26838 26.1316 5.5525 26.528C5.18187 26.7038 4.88577 26.9408 4.66421 27.2392C4.54577 27.2392 4.42734 27.2392 4.3089 27.2392C3.393 26.0004 2.56394 24.6966 1.82169 23.3276C1.28964 21.7866 0.815875 20.2456 0.400421 18.7048C0.342434 17.1314 0.401665 15.5905 0.578079 14.082C0.519399 15.3323 0.578612 16.5769 0.755737 17.8158C0.803652 17.1947 0.922096 16.5429 1.11105 15.86C1.17027 16.3342 1.2295 16.8082 1.28871 17.2824C1.18357 18.064 1.09474 18.8344 1.02222 19.5938C1.09659 19.8022 1.21504 19.98 1.37754 20.1272C1.42524 21.0429 1.6029 21.9318 1.91051 22.7942C2.01732 22.5031 2.10615 22.2069 2.177 21.9052C1.73927 19.9188 1.532 17.9036 1.5552 15.86C1.34675 14.8528 1.08027 13.9046 0.755737 13.0152C0.980759 12.0434 1.27686 11.0951 1.64403 10.1704Z"
        fill="#7A319F" />
    <path fill-rule="evenodd" clip-rule="evenodd"
        d="M28.648 24.3943C28.612 24.6688 28.4935 24.906 28.2927 25.1055C28.9813 25.6264 28.9813 26.1301 28.2927 26.6168C28.3983 26.6993 28.5168 26.729 28.648 26.7057C28.3187 27.2409 27.9042 27.7149 27.4044 28.1281C27.1676 28.1281 26.9306 28.1281 26.6938 28.1281C26.6938 28.3059 26.6938 28.4837 26.6938 28.6615C26.1452 28.7153 25.8492 28.4783 25.8055 27.9503C26.237 27.9352 26.5924 27.7574 26.8715 27.4169C26.5144 26.9694 26.0406 26.7027 25.4502 26.6168C25.6405 26.4653 25.8181 26.3172 25.9832 26.1723C26.4557 25.8172 26.9887 25.5505 27.5821 25.3722C27.9143 25.0095 28.2696 24.6836 28.648 24.3943Z"
        fill="#E33E87" />
    <path fill-rule="evenodd" clip-rule="evenodd"
        d="M7.50671 26.1724C8.26041 26.0975 8.97104 26.2161 9.63861 26.528C10.0811 26.6329 10.5548 26.6626 11.0599 26.6169C11.2681 26.6914 11.4457 26.8098 11.5928 26.9725C11.5523 27.0434 11.493 27.0729 11.4152 27.0614C10.0319 27.0294 8.72911 26.733 7.50671 26.1724Z"
        fill="#EEBAF0" />
    <path fill-rule="evenodd" clip-rule="evenodd"
        d="M6.26317 25.9946C6.67278 26.0823 7.08732 26.1415 7.50677 26.1724C8.72917 26.733 10.032 27.0294 11.4153 27.0614C11.4153 27.1206 11.4153 27.18 11.4153 27.2392C10.7507 27.079 10.3954 27.316 10.3493 27.9504C10.527 27.9504 10.7046 27.9504 10.8823 27.9504C10.7949 28.654 10.9134 29.3058 11.2376 29.9062C10.0837 30.2417 10.1429 30.4195 11.4153 30.4396C11.4153 30.6174 11.4153 30.7952 11.4153 30.973C10.7638 31.21 10.1124 31.21 9.46101 30.973C8.11843 30.5095 6.99327 29.7391 6.08551 28.6616C6.62083 28.7007 7.03538 28.9377 7.32912 29.3728C7.56599 29.1358 7.56599 28.8986 7.32912 28.6616C6.96673 28.3635 6.61141 28.0671 6.26317 27.7726C6.5377 27.6034 6.83381 27.5442 7.15146 27.5948C7.38421 28.5121 7.47304 28.5121 7.41795 27.5948C7.32912 27.5059 7.24029 27.417 7.15146 27.3281C6.55529 27.2899 5.9631 27.2899 5.37488 27.3281C5.91503 26.9994 6.50723 26.7919 7.15146 26.7058C6.8105 26.5081 6.51441 26.2709 6.26317 25.9946Z"
        fill="#923199" />
    <path fill-rule="evenodd" clip-rule="evenodd"
        d="M25.9832 26.1724C25.8182 26.3173 25.6405 26.4654 25.4502 26.6169C26.0406 26.7027 26.5144 26.9694 26.8715 27.417C26.5924 27.7574 26.2371 27.9352 25.8056 27.9504C25.8493 28.4784 26.1452 28.7154 26.6938 28.6616C26.6938 28.4838 26.6938 28.306 26.6938 28.1282C26.9307 28.1282 27.1677 28.1282 27.4045 28.1282C26.5078 28.9876 25.5604 29.7582 24.5619 30.4396C24.0881 30.6174 23.6145 30.7952 23.1407 30.9729C22.9644 31.0035 22.8461 30.9441 22.7854 30.7952C22.8818 30.7845 22.941 30.7253 22.963 30.6174C22.7854 30.4692 22.6077 30.321 22.4301 30.1729C22.8173 30.0984 23.2022 30.128 23.5848 30.2618C23.7328 30.2321 23.881 30.2025 24.029 30.1729C23.7993 30.0857 23.5623 30.056 23.3183 30.084C23.3729 29.0895 23.3135 28.1116 23.1407 27.1503C23.5585 27.1076 23.9139 26.9595 24.2066 26.7058C24.7311 26.3662 25.3234 26.1884 25.9832 26.1724Z"
        fill="#D73C8A" />
    <path fill-rule="evenodd" clip-rule="evenodd"
        d="M11.4152 27.2391C11.652 27.2391 11.889 27.2391 12.1258 27.2391C12.1928 27.5517 12.3113 27.8481 12.4811 28.1281C11.8112 28.6274 11.7817 29.1608 12.3923 29.7283C12.4802 30.0791 12.5099 30.4347 12.4811 30.7951C12.7179 30.7951 12.9549 30.7951 13.1918 30.7951C13.1918 31.0321 13.1918 31.2693 13.1918 31.5063C12.983 31.4674 12.8053 31.5266 12.6588 31.6841C12.924 31.7981 13.1017 31.9759 13.1918 32.2175C12.215 32.0916 11.2675 31.8546 10.3492 31.5063C10.0364 31.3618 9.7403 31.184 9.46094 30.9729C10.1124 31.2099 10.7638 31.2099 11.4152 30.9729C11.4152 30.7951 11.4152 30.6173 11.4152 30.4395C10.1428 30.4194 10.0836 30.2416 11.2375 29.9061C10.9133 29.3057 10.7949 28.6539 10.8822 27.9503C10.7045 27.9503 10.5269 27.9503 10.3492 27.9503C10.3953 27.3159 10.7506 27.0789 11.4152 27.2391Z"
        fill="#9F3297" />
    <path fill-rule="evenodd" clip-rule="evenodd"
        d="M24.2066 26.7058C23.9138 26.9595 23.5585 27.1076 23.1406 27.1503C23.3135 28.1117 23.3728 29.0896 23.3183 30.084C23.5622 30.0561 23.7992 30.0858 24.0289 30.1729C23.8809 30.2026 23.7328 30.2321 23.5848 30.2618C23.2021 30.1281 22.8173 30.0984 22.43 30.1729C22.6077 30.321 22.7853 30.4693 22.963 30.6174C22.941 30.7253 22.8818 30.7845 22.7853 30.7952C22.6219 30.6944 22.5625 30.8128 22.6077 31.1508C21.7753 30.8813 20.9759 30.9406 20.2093 31.3286C20.0449 31.2313 19.897 31.1129 19.7651 30.973C20.2908 30.7888 20.7645 30.5221 21.1864 30.1729C20.8922 29.8534 20.7145 29.4681 20.6534 29.0172C20.3573 28.8097 20.0613 28.6024 19.7651 28.3949C20.2171 28.2007 20.6909 28.0822 21.1864 28.0393C20.8345 27.9317 20.7751 27.7539 21.0087 27.5059C20.9032 27.4234 20.7847 27.3937 20.6534 27.417C20.6534 27.3578 20.6534 27.2984 20.6534 27.2392C21.0505 27.2917 21.4058 27.2323 21.7194 27.0614C22.5485 26.9428 23.3775 26.8244 24.2066 26.7058Z"
        fill="#CC388C" />
    <path fill-rule="evenodd" clip-rule="evenodd"
        d="M20.6534 27.2393C20.6534 27.2985 20.6534 27.3579 20.6534 27.4171C20.3132 27.3666 20.0172 27.4258 19.7651 27.5949C18.0155 27.653 16.2983 27.5938 14.613 27.4171C16.6291 27.4268 18.6425 27.3676 20.6534 27.2393Z"
        fill="#CB68AC" />
    <path fill-rule="evenodd" clip-rule="evenodd"
        d="M6.26316 25.9945C6.5144 26.2708 6.81049 26.508 7.15145 26.7057C6.50722 26.7918 5.91502 26.9993 5.37487 27.328C5.96309 27.2898 6.55528 27.2898 7.15145 27.328C7.24028 27.4169 7.3291 27.5058 7.41793 27.5947C7.47303 28.512 7.3842 28.512 7.15145 27.5947C6.83379 27.544 6.53769 27.6032 6.26316 27.7725C6.6114 28.0669 6.96672 28.3633 7.3291 28.6615C7.56598 28.8985 7.56598 29.1357 7.3291 29.3727C7.03537 28.9376 6.62082 28.7006 6.0855 28.6615C5.43408 28.3651 4.96034 27.8911 4.66423 27.2391C4.88579 26.9408 5.18189 26.7038 5.55252 26.5279C5.2684 26.1316 4.91308 26.0724 4.48658 26.3501C4.27417 26.2886 4.27417 26.1997 4.48658 26.0834C4.82457 26.048 5.09106 25.8997 5.28604 25.6389C5.5675 25.8809 5.8932 25.9995 6.26316 25.9945Z"
        fill="#892E9F" />
    <path fill-rule="evenodd" clip-rule="evenodd"
        d="M13.1918 27.417C13.6656 27.417 14.1392 27.417 14.613 27.417C16.2983 27.5937 18.0155 27.6529 19.7651 27.5948C19.0879 27.7413 18.3773 27.8302 17.6332 27.8615C18.0242 28.0469 18.4387 28.1952 18.8768 28.306C18.2595 28.4091 17.6672 28.5572 17.1002 28.7505C17.7078 28.8424 18.3 28.9905 18.8768 29.195C18.4936 29.4243 18.0791 29.5726 17.6332 29.6395C17.7517 29.7581 17.87 29.8765 17.9885 29.9951C16.5079 30.0877 16.4488 30.2061 17.8109 30.3507C17.6924 30.4099 17.5741 30.4693 17.4556 30.5285C17.6924 30.7063 17.9294 30.8841 18.1662 31.0619C17.5732 31.1675 17.0402 31.2859 16.5673 31.4175C17.3259 31.6086 18.0957 31.6975 18.8768 31.6842C18.8768 31.862 18.8768 32.0398 18.8768 32.2176C18.4222 32.1639 18.0075 32.2233 17.6332 32.3954C16.8634 32.3954 16.0935 32.3954 15.3237 32.3954C15.5134 32.2293 15.7502 32.1699 16.0343 32.2176C16.0343 32.0398 16.0343 31.862 16.0343 31.6842C15.4749 31.7356 14.9419 31.6467 14.4354 31.4175C14.8825 31.0173 15.4155 30.8691 16.0343 30.973C16.0645 30.7379 16.0053 30.5304 15.8566 30.3507C14.2385 29.9771 14.2979 29.7696 16.0343 29.7284C16.0343 29.4914 16.0343 29.2542 16.0343 29.0172C13.4325 28.8381 13.4325 28.6603 16.0343 28.4838C16.0343 28.2468 16.0343 28.0096 16.0343 27.7726C15.009 27.8816 14.0616 27.763 13.1918 27.417Z"
        fill="#B53491" />
    <path fill-rule="evenodd" clip-rule="evenodd"
        d="M20.6534 27.4168C20.7847 27.3936 20.9032 27.4232 21.0087 27.5057C20.7751 27.7538 20.8344 27.9316 21.1864 28.0391C20.6909 28.082 20.2171 28.2006 19.7651 28.3947C20.0613 28.6022 20.3572 28.8095 20.6534 29.017C20.7145 29.4679 20.8922 29.8532 21.1864 30.1727C20.7644 30.5219 20.2908 30.7886 19.7651 30.9728C19.8969 31.1128 20.0449 31.2312 20.2093 31.3284C20.9758 30.9405 21.7753 30.8811 22.6076 31.1506C22.5625 30.8126 22.6218 30.6942 22.7853 30.795C22.8461 30.944 22.9644 31.0034 23.1406 30.9728C22.8256 31.2203 22.4703 31.4278 22.0747 31.5951C21.1603 31.8515 20.272 32.1182 19.4098 32.3952C19.2321 32.3952 19.0545 32.3952 18.8768 32.3952C18.4623 32.3952 18.0477 32.3952 17.6332 32.3952C18.0075 32.2231 18.4222 32.1637 18.8768 32.2174C18.8768 32.0396 18.8768 31.8618 18.8768 31.684C18.0957 31.6974 17.3259 31.6085 16.5673 31.4173C17.0402 31.2858 17.5732 31.1673 18.1662 31.0617C17.9294 30.8839 17.6924 30.7061 17.4556 30.5283C17.574 30.4691 17.6924 30.4097 17.8109 30.3505C16.4488 30.206 16.5079 30.0876 17.9885 29.9949C17.87 29.8763 17.7517 29.7579 17.6332 29.6393C18.0791 29.5725 18.4936 29.4242 18.8768 29.1948C18.3 28.9904 17.7078 28.8423 17.1002 28.7503C17.6671 28.5571 18.2595 28.409 18.8768 28.3058C18.4387 28.1951 18.0242 28.0468 17.6332 27.8613C18.3772 27.83 19.0879 27.7412 19.7651 27.5946C20.0172 27.4256 20.3132 27.3663 20.6534 27.4168Z"
        fill="#C0378F" />
    <path fill-rule="evenodd" clip-rule="evenodd"
        d="M12.1259 27.2392C12.523 27.1867 12.8783 27.2461 13.1918 27.417C14.0617 27.763 15.0091 27.8815 16.0344 27.7726C16.0344 28.0096 16.0344 28.2467 16.0344 28.4838C13.4326 28.6603 13.4326 28.8381 16.0344 29.0172C16.0344 29.2542 16.0344 29.4913 16.0344 29.7284C14.2979 29.7696 14.2386 29.9771 15.8567 30.3506C16.0054 30.5304 16.0646 30.7379 16.0344 30.9729C15.4156 30.8691 14.8826 31.0172 14.4355 31.4174C14.942 31.6466 15.4749 31.7355 16.0344 31.6841C16.0344 31.8619 16.0344 32.0397 16.0344 32.2175C15.7503 32.1699 15.5135 32.2293 15.3237 32.3953C14.6192 32.2776 13.9085 32.2184 13.1918 32.2175C13.1018 31.9759 12.9241 31.7981 12.6589 31.6841C12.8054 31.5266 12.9831 31.4674 13.1918 31.5063C13.1918 31.2693 13.1918 31.0322 13.1918 30.7951C12.955 30.7951 12.718 30.7951 12.4812 30.7951C12.51 30.4347 12.4803 30.0791 12.3924 29.7284C11.7818 29.1608 11.8113 28.6274 12.4812 28.1282C12.3114 27.8481 12.1929 27.5517 12.1259 27.2392Z"
        fill="#A93296" />
    <path fill-rule="evenodd" clip-rule="evenodd"
        d="M13.1918 32.2175C13.9084 32.2184 14.6191 32.2776 15.3237 32.3953C16.0935 32.3953 16.8634 32.3953 17.6332 32.3953C18.0477 32.3953 18.4624 32.3953 18.8768 32.3953C18.8768 32.4545 18.8768 32.5139 18.8768 32.5731C17.2768 32.6026 15.6779 32.5731 14.0801 32.4842C13.7457 32.449 13.4497 32.3601 13.1918 32.2175Z"
        fill="#B14D96" />
</svg>