<svg width="32" height="32" viewBox="0 0 33 32" fill="none" xmlns="http://www.w3.org/2000/svg">
    <path fill-rule="evenodd" clip-rule="evenodd"
        d="M0.928894 0C11.5882 0 22.2473 0 32.9066 0C32.9066 10.6667 32.9066 21.3333 32.9066 32C22.2473 32 11.5882 32 0.928894 32C0.928894 21.3333 0.928894 10.6667 0.928894 0Z"
        fill="#FEFEFE" />
    <path fill-rule="evenodd" clip-rule="evenodd"
        d="M17.8806 0.626953C20.1895 2.83257 22.3841 5.13321 24.4642 7.52891C24.5053 7.80386 24.4009 8.01302 24.1507 8.15637C23.708 7.74651 23.1854 7.48509 22.5832 7.37205C22.3869 7.13663 22.2301 6.87517 22.1129 6.58774C21.743 6.95922 21.2727 7.16835 20.7021 7.21519C20.1315 7.16835 19.6613 6.95922 19.2913 6.58774C19.0242 6.92364 18.7631 7.23737 18.5076 7.52891C18.1941 7.31975 17.8806 7.11062 17.567 6.90146C17.4655 4.75109 17.5699 2.65958 17.8806 0.626953Z"
        fill="#685EA1" />
    <path fill-rule="evenodd" clip-rule="evenodd"
        d="M17.8805 0.626226C17.5699 2.65885 17.4655 4.75037 17.567 6.90074C17.1535 4.7536 17.1535 2.55752 17.567 0.3125C17.7573 0.35127 17.8617 0.455844 17.8805 0.626226Z"
        fill="#ADA8C6" />
    <path fill-rule="evenodd" clip-rule="evenodd"
        d="M11.9239 4.7053C12.2362 4.67839 12.4974 4.78298 12.7077 5.01903C12.7601 5.54192 12.8121 6.06477 12.8645 6.58766C12.9309 7.37555 12.7218 8.0553 12.2375 8.62687C12.4187 9.07142 12.7322 9.33288 13.178 9.41119C12.551 10.2478 11.8196 10.9798 10.9834 11.6073C10.4498 11.0179 10.3451 10.2858 10.6699 9.41119C10.6232 8.8403 10.4141 8.36971 10.0429 7.99942C11.0232 7.44636 11.1276 6.87117 10.3564 6.27393C10.7743 5.64648 11.2969 5.12359 11.9239 4.7053Z"
        fill="#7591C5" />
    <path fill-rule="evenodd" clip-rule="evenodd"
        d="M13.178 9.41127C12.7322 9.33296 12.4187 9.0715 12.2375 8.62695C12.7218 8.05538 12.9309 7.37563 12.8645 6.58774C12.8121 6.06485 12.7601 5.542 12.7077 5.01911C12.4974 4.78306 12.2362 4.67847 11.924 4.70538C13.1629 3.25641 14.5214 1.89695 15.9995 0.626953C17.2401 4.38504 16.2996 7.31313 13.178 9.41127Z"
        fill="#7EAAD8" />
    <path fill-rule="evenodd" clip-rule="evenodd"
        d="M24.4642 7.52907C24.7777 7.63363 24.9868 7.84279 25.0912 8.15652C25.1182 8.46896 25.0135 8.73038 24.7777 8.94083C23.3691 9.02416 22.0107 9.28558 20.7021 9.72515C19.8509 9.08257 19.1195 8.35053 18.5076 7.52907C18.7631 7.23752 19.0242 6.9238 19.2913 6.58789C19.6613 6.95937 20.1315 7.1685 20.7021 7.21534C21.2727 7.1685 21.743 6.95937 22.1129 6.58789C22.2301 6.87533 22.3869 7.13678 22.5832 7.3722C23.1854 7.48524 23.708 7.74667 24.1507 8.15652C24.4009 8.01318 24.5053 7.80402 24.4642 7.52907Z"
        fill="#6D74B1" />
    <path fill-rule="evenodd" clip-rule="evenodd"
        d="M10.3564 6.27344C11.1276 6.87068 11.0232 7.44586 10.0429 7.99893C10.4141 8.36922 10.6232 8.83981 10.6699 9.41069C10.3451 10.2853 10.4498 11.0174 10.9834 11.6068C9.94537 13.158 8.69135 14.5175 7.22131 15.6852C7.16551 15.3104 7.06111 14.9443 6.90781 14.5872C7.32571 14.378 7.74393 14.1689 8.16183 13.9597C7.97498 12.7934 7.76619 11.6431 7.53482 10.5087C7.97686 10.3933 8.29037 10.1319 8.47534 9.72442C8.1402 9.76831 7.77434 9.76831 7.37807 9.72442C7.02412 10.2393 6.55386 10.553 5.96729 10.6656C7.32571 9.09697 8.78885 7.6329 10.3564 6.27344Z"
        fill="#6F76B2" />
    <path fill-rule="evenodd" clip-rule="evenodd"
        d="M25.0912 8.15625C26.0083 8.86461 26.8441 9.70122 27.5993 10.6661C27.6263 10.9785 27.5216 11.2399 27.2858 11.4504C25.4471 11.5142 23.6704 11.4619 21.9562 11.2935C21.5383 10.7706 21.1201 10.2478 20.7021 9.72488C22.0107 9.28532 23.3692 9.02389 24.7777 8.94056C25.0135 8.73012 25.1182 8.46869 25.0912 8.15625Z"
        fill="#748BC0" />
    <path fill-rule="evenodd" clip-rule="evenodd"
        d="M7.22131 15.6873C5.12865 15.7395 3.0385 15.6872 0.951172 15.5305C2.58203 13.8459 4.25397 12.2249 5.96728 10.6677C6.55385 10.5552 7.02411 10.2414 7.37806 9.72656C7.77434 9.77045 8.1402 9.77045 8.47534 9.72656C8.29037 10.1341 7.97686 10.3955 7.53482 10.5109C7.76619 11.6452 7.97498 12.7956 8.16183 13.9619C7.74393 14.171 7.32571 14.3801 6.9078 14.5893C7.06111 14.9465 7.16551 15.3125 7.22131 15.6873Z"
        fill="#675DA1" />
    <path fill-rule="evenodd" clip-rule="evenodd"
        d="M27.5993 10.666C29.4183 12.0634 31.0902 13.6843 32.6154 15.5288C30.5253 15.7379 28.4354 15.7379 26.3453 15.5288C24.9975 13.9685 23.5344 12.5567 21.9562 11.2935C23.6704 11.4619 25.4471 11.5142 27.2858 11.4503C27.5216 11.2399 27.6263 10.9785 27.5993 10.666Z"
        fill="#7FADD8" />
    <path fill-rule="evenodd" clip-rule="evenodd"
        d="M26.3453 16.6267C28.4909 16.213 30.6855 16.213 32.9289 16.6267C32.6602 16.917 32.3467 17.1261 31.9884 17.2542C30.2409 16.6414 28.3599 16.4322 26.3453 16.6267Z"
        fill="#A7A2BF" />
    <path fill-rule="evenodd" clip-rule="evenodd"
        d="M9.72937 19.1381C9.39956 19.185 9.08605 19.1327 8.78885 18.9812C8.60137 18.3387 8.18346 17.9727 7.53482 17.8832C6.58677 18.5175 5.54185 18.8312 4.39975 18.8244C4.39975 19.2427 4.39975 19.661 4.39975 20.0793C3.1523 19.0401 2.00267 17.8898 0.951172 16.6283C3.03348 16.2631 5.12332 16.2108 7.22131 16.4714C8.11261 17.3111 8.94873 18.2 9.72937 19.1381Z"
        fill="#86B6DE" />
    <path fill-rule="evenodd" clip-rule="evenodd"
        d="M9.7294 19.1358C10.1335 19.4923 10.447 19.9106 10.6699 20.3907C10.4765 20.3559 10.3197 20.2514 10.1997 20.0769C9.99055 20.4952 9.78175 20.9135 9.57264 21.3318C9.35005 20.8696 8.98451 20.6605 8.47537 20.7044C8.47537 21.0181 8.47537 21.3318 8.47537 21.6456C7.88284 21.7094 7.41258 21.5002 7.06459 21.0181C6.69214 21.3517 6.53539 21.77 6.59433 22.273C5.75821 21.6456 5.02679 20.9135 4.39978 20.0769C4.39978 19.6586 4.39978 19.2403 4.39978 18.822C5.54189 18.8289 6.5868 18.5152 7.53485 17.8809C8.1835 17.9704 8.6014 18.3364 8.78888 18.9789C9.08608 19.1304 9.39959 19.1827 9.7294 19.1358Z"
        fill="#7A9BCD" />
    <path fill-rule="evenodd" clip-rule="evenodd"
        d="M26.3452 16.6269C28.3598 16.4324 30.2409 16.6416 31.9884 17.2544C30.2117 19.2413 28.3307 21.1237 26.3452 22.9014C25.8041 23.0001 25.2815 23.0524 24.7777 23.0583C25.0335 22.455 25.2426 21.8276 25.4047 21.176C25.0006 19.9698 25.0006 18.7672 25.4047 17.5681C25.6138 17.1498 25.9273 16.8361 26.3452 16.6269Z"
        fill="#6A61A3" />
    <path fill-rule="evenodd" clip-rule="evenodd"
        d="M15.3725 10.6653C20.2657 10.3856 22.617 12.6862 22.4264 17.5673C21.2006 21.0903 18.7449 22.502 15.059 21.8026C11.9202 20.4892 10.6138 18.1362 11.1402 14.7438C12.0196 12.7644 13.4303 11.4049 15.3725 10.6653Z"
        fill="#7C73A9" />
    <path fill-rule="evenodd" clip-rule="evenodd"
        d="M15.3725 11.6065C20.0193 11.3893 22.0048 13.5854 21.3292 18.1947C19.5575 21.0663 17.1539 21.746 14.1185 20.2339C10.9427 16.8303 11.3609 13.9545 15.3725 11.6065Z"
        fill="#F5F3F6" />
    <path fill-rule="evenodd" clip-rule="evenodd"
        d="M18.1941 19.4495C18.0869 19.7125 17.8781 19.8171 17.5671 19.7633C16.6867 19.5705 15.8506 19.2045 15.059 18.6652C15.2452 18.5195 15.4544 18.4673 15.686 18.5083C16.6485 18.5499 17.589 18.4453 18.5076 18.1946C18.912 18.0197 19.1732 17.7059 19.2914 17.2534C19.3958 16.626 19.5005 15.9985 19.6049 15.3711C20.0955 17.1596 19.5209 18.4667 17.8806 19.2927C17.9521 19.4178 18.0568 19.47 18.1941 19.4495Z"
        fill="#B3ACD4" />
    <path fill-rule="evenodd" clip-rule="evenodd"
        d="M18.1941 19.4501C18.0568 19.4706 17.9521 19.4184 17.8806 19.2933C19.5208 18.4673 20.0955 17.1602 19.6049 15.3717C19.5005 15.9991 19.3958 16.6266 19.2914 17.254C19.1732 17.7065 18.912 18.0203 18.5076 18.1952C19.5306 16.646 19.2694 15.3911 17.7238 14.4305C17.2294 17.7672 16.6548 17.7672 15.9995 14.4305C14.4373 15.6441 14.3329 17.0036 15.686 18.5089C15.4543 18.4678 15.2452 18.5201 15.059 18.6658C15.8506 19.2051 16.6867 19.5711 17.5671 19.7638C14.0749 19.5606 12.8732 17.7828 13.9617 14.4305C14.5411 13.6332 15.3249 13.3195 16.313 13.4893C16.313 13.071 16.313 12.6527 16.313 12.2344C17.2536 12.1299 17.6715 12.5482 17.5671 13.4893C20.3215 14.0107 21.1053 15.5794 19.9184 18.1952C19.4635 18.8114 18.8888 19.2297 18.1941 19.4501Z"
        fill="#8077AA" />
    <path fill-rule="evenodd" clip-rule="evenodd"
        d="M18.5076 18.1944C17.589 18.4451 16.6485 18.5496 15.686 18.5081C14.3329 17.0027 14.4373 15.6433 15.9995 14.4297C16.6547 17.7664 17.2294 17.7664 17.7238 14.4297C19.2694 15.3903 19.5305 16.6452 18.5076 18.1944Z"
        fill="#F4F3F5" />
    <path fill-rule="evenodd" clip-rule="evenodd"
        d="M15.059 13.8026C15.2907 13.7615 15.4998 13.8138 15.686 13.9595C14.2768 14.9546 13.8065 16.2618 14.2752 17.8811C13.5247 16.321 13.7862 14.9615 15.059 13.8026Z"
        fill="#C9C4E1" />
    <path fill-rule="evenodd" clip-rule="evenodd"
        d="M10.6699 20.3919C12.5327 21.7324 14.205 23.3011 15.686 25.0977C15.3737 25.0708 15.1126 25.1754 14.9022 25.4115C14.0642 24.3612 13.0193 23.9429 11.7672 24.1566C11.6706 23.903 11.5138 23.6939 11.2969 23.5291C10.6984 23.7952 10.0714 23.8998 9.41586 23.8428C9.41586 24.2611 9.41586 24.6794 9.41586 25.0977C8.37094 24.2611 7.43042 23.3199 6.59429 22.2742C6.53535 21.7712 6.69211 21.3529 7.06455 21.0193C7.41255 21.5014 7.88281 21.7106 8.47534 21.6468C8.47534 21.333 8.47534 21.0193 8.47534 20.7056C8.98447 20.6617 9.35002 20.8708 9.57261 21.333C9.78172 20.9147 9.99051 20.4964 10.1996 20.0781C10.3197 20.2526 10.4764 20.3571 10.6699 20.3919Z"
        fill="#7484BB" />
    <path fill-rule="evenodd" clip-rule="evenodd"
        d="M22.8967 20.0781C22.8277 21.0234 22.4098 21.7555 21.6426 22.2742C22.0223 22.657 22.0223 23.023 21.6426 23.3722C22.5747 23.7563 22.7838 24.3838 22.2696 25.2546C22.643 25.4735 22.9565 25.735 23.2102 26.0389C21.5298 27.9298 19.7531 29.7076 17.8805 31.3722C17.5191 29.5467 17.467 27.6644 17.7238 25.7252C18.3633 25.1385 18.938 24.511 19.4481 23.8428C20.5112 22.5225 21.6605 21.2676 22.8967 20.0781Z"
        fill="#7CA6D3" />
    <path fill-rule="evenodd" clip-rule="evenodd"
        d="M25.4047 17.5684C25.0006 18.7674 25.0006 19.9701 25.4047 21.1762C25.2426 21.8278 25.0335 22.4553 24.7777 23.0586C25.2815 23.0527 25.8041 23.0004 26.3452 22.9017C25.4047 24.052 24.3598 25.0978 23.2102 26.0389C22.9565 25.735 22.643 25.4736 22.2697 25.2546C22.7838 24.3838 22.5747 23.7563 21.6426 23.3723C22.0223 23.0231 22.0223 22.657 21.6426 22.2742C22.4098 21.7555 22.8277 21.0235 22.8967 20.0782C23.6281 19.137 24.4642 18.3004 25.4047 17.5684Z"
        fill="#7381B9" />
    <path fill-rule="evenodd" clip-rule="evenodd"
        d="M15.686 25.0979C15.8795 25.1327 16.0362 25.2372 16.1563 25.4116C16.4168 27.5109 16.3645 29.6025 15.9995 31.6862C13.8555 29.4165 11.6609 27.2204 9.41589 25.0979C9.41589 24.6796 9.41589 24.2613 9.41589 23.843C10.0714 23.9 10.6985 23.7954 11.2969 23.5293C11.5139 23.6941 11.6706 23.9032 11.7672 24.1567C13.0193 23.9431 14.0643 24.3614 14.9023 25.4116C15.1126 25.1756 15.3738 25.071 15.686 25.0979Z"
        fill="#6A61A3" />
    <path fill-rule="evenodd" clip-rule="evenodd"
        d="M19.4481 23.8418C18.938 24.51 18.3633 25.1374 17.7238 25.7241C17.467 27.6633 17.5191 29.5457 17.8805 31.3712C17.8617 31.5416 17.7573 31.646 17.567 31.6849C17.2021 29.6012 17.1498 27.5097 17.4103 25.4104C17.9674 24.692 18.6467 24.1691 19.4481 23.8418Z"
        fill="#B1D4E8" />
</svg>