<svg width="32" height="32" viewBox="0 0 32 32" fill="none" xmlns="http://www.w3.org/2000/svg">
    <g clip-path="url(#clip0_4788_54)">
        <path fill-rule="evenodd" clip-rule="evenodd"
            d="M-0.0799866 -0.0800781C10.5867 -0.0800781 21.2533 -0.0800781 31.92 -0.0800781C31.92 10.5866 31.92 21.2532 31.92 31.9199C21.2533 31.9199 10.5867 31.9199 -0.0799866 31.9199C-0.0799866 21.2532 -0.0799866 10.5866 -0.0799866 -0.0800781Z"
            fill="#FEFEFE" />
        <path fill-rule="evenodd" clip-rule="evenodd"
            d="M19.28 7.92001C19.2896 7.83311 19.3429 7.77979 19.44 7.76001C24.0547 10.4299 25.4147 14.2699 23.52 19.28C20.9523 23.4789 17.299 24.8389 12.56 23.36C8.71795 21.357 7.03795 18.1835 7.52 13.84C8.12322 11.1938 9.61654 9.22046 12 7.92001C11.5948 11.835 13.3281 13.515 17.2 12.96C19.3395 11.8566 20.0328 10.1766 19.28 7.92001Z"
            fill="#020202" />
    </g>
    <defs>
        <clipPath id="clip0_4788_54">
            <rect width="32" height="32" fill="white" />
        </clipPath>
    </defs>
</svg>