<svg width="32" height="32" viewBox="0 0 33 33" fill="none" xmlns="http://www.w3.org/2000/svg">
    <path fill-rule="evenodd" clip-rule="evenodd"
        d="M27.0236 0.453384C28.7172 0.453384 30.4105 0.453384 32.104 0.453384C32.3667 6.71042 32.3667 12.9649 32.104 19.2174C31.4286 24.3714 28.8038 28.1749 24.2294 30.6279C20.5586 32.001 16.7483 32.5928 12.7985 32.4029C8.73419 32.4029 4.66988 32.4029 0.605563 32.4029C0.59337 28.6818 0.508781 24.963 0.351543 21.2459C0.16306 17.3902 0.501669 13.5867 1.36762 9.83538C2.49776 7.68868 3.93728 5.74483 5.68596 4.00333C8.1121 2.24458 10.8215 1.10353 13.8146 0.580167C18.2167 0.453384 22.6197 0.411038 27.0236 0.453384Z"
        fill="#FDFDFD" />
    <path fill-rule="evenodd" clip-rule="evenodd"
        d="M14.8307 8.82129C17.8789 8.82129 20.9271 8.82129 23.9754 8.82129C23.9073 9.22674 23.9921 9.56475 24.2294 9.83556C24.7626 13.2919 24.4661 16.673 23.3403 19.9783C21.8271 22.8284 19.4139 24.223 16.1008 24.1621C13.5575 24.3008 11.0173 24.2585 8.48017 24.0353C8.3778 20.6413 8.50481 17.2605 8.8612 13.8926C9.96568 11.1404 11.9554 9.44988 14.8307 8.82129Z"
        fill="#2578AE" />
</svg>