<svg width="32" height="32" viewBox="0 0 32 33" fill="none" xmlns="http://www.w3.org/2000/svg">
    <path
        d="M4.95199 32.2949C2.21015 32.2949 0 29.7794 0 26.6851V23.39C0 20.2958 2.21015 17.792 4.95199 17.792C7.69383 17.792 9.89355 20.2958 9.89355 23.4018V26.6969C9.89355 29.7912 7.6834 32.2949 4.95199 32.2949Z"
        fill="#29A545" />
    <path
        d="M28.3775 30.4761C26.4489 32.661 23.3109 32.661 21.3822 30.4761L3.73227 10.4933C1.8036 8.30836 1.8036 4.75349 3.73227 2.5686C5.66094 0.383709 8.79894 0.383709 10.7276 2.5686L28.3775 22.5633C30.3062 24.7482 30.3062 28.3031 28.3775 30.488"
        fill="#29A545" />
    <path
        d="M20.3083 6.40671C18.8904 8.48531 20.1936 11.4969 22.508 11.4969H29.2114C31.5258 11.4969 32.829 8.4735 31.4112 6.40671L28.0542 1.51728C26.9387 -0.112531 24.7703 -0.112531 23.6548 1.51728L20.3083 6.40671Z"
        fill="#29A545" />
</svg>