<svg width="32" height="32" viewBox="0 0 32 32" fill="none" xmlns="http://www.w3.org/2000/svg">
    <g clip-path="url(#clip0_4594_72)">
        <path fill-rule="evenodd" clip-rule="evenodd"
            d="M-0.03125 -0.03125C10.6354 -0.03125 21.3021 -0.03125 31.9688 -0.03125C31.9688 10.6354 31.9688 21.3021 31.9688 31.9688C21.3021 31.9688 10.6354 31.9688 -0.03125 31.9688C-0.03125 21.3021 -0.03125 10.6354 -0.03125 -0.03125Z"
            fill="#FEFEFE" />
        <path fill-rule="evenodd" clip-rule="evenodd"
            d="M16.8438 19.3438C16.84 19.3098 16.8192 19.289 16.7812 19.2812C16.7188 20.5514 16.6979 21.8223 16.7188 23.0938C16.2188 23.0938 15.7188 23.0938 15.2188 23.0938C15.2396 21.8223 15.2188 20.5514 15.1562 19.2812C15.1183 19.289 15.0975 19.3098 15.0938 19.3438C13.5411 19.9114 11.9891 20.4739 10.4375 21.0312C12.2271 16.9724 14.0708 12.9307 15.9688 8.90625C17.8661 12.9369 19.6994 16.9786 21.4688 21.0312C19.9352 20.4437 18.3935 19.8812 16.8438 19.3438Z"
            fill="#010101" />
        <path fill-rule="evenodd" clip-rule="evenodd"
            d="M8.40625 18.5938C8.4025 18.5598 8.38169 18.539 8.34375 18.5312C8.28131 19.5304 8.26044 20.5304 8.28125 21.5312C7.88544 21.5312 7.48956 21.5312 7.09375 21.5312C7.09375 20.5521 7.09375 19.5729 7.09375 18.5938C5.82027 19.0226 4.54944 19.4498 3.28125 19.875C4.73141 16.679 6.21057 13.5019 7.71875 10.3438C8.80106 12.6752 9.88437 15.0085 10.9688 17.3438C10.6957 17.9283 10.4249 18.5116 10.1562 19.0938C10.1146 19.1146 10.0729 19.1354 10.0312 19.1562C9.4805 18.9876 8.93888 18.8001 8.40625 18.5938Z"
            fill="#010101" />
        <path fill-rule="evenodd" clip-rule="evenodd"
            d="M23.6562 21.5312C23.6771 20.5304 23.6562 19.5304 23.5938 18.5312C23.5558 18.539 23.535 18.5598 23.5312 18.5938C22.9906 18.7806 22.4489 18.9681 21.9062 19.1562C21.8646 19.1354 21.8229 19.1146 21.7812 19.0938C21.5104 18.5104 21.2396 17.9271 20.9688 17.3438C22.0448 14.9794 23.1386 12.6253 24.25 10.2812C25.6876 13.4776 27.1563 16.6651 28.6562 19.8438C28.625 19.8646 28.5938 19.8854 28.5625 19.9062C27.3281 19.4601 26.099 19.0017 24.875 18.5312C24.8438 19.5311 24.8333 20.5311 24.8438 21.5312C24.4479 21.5312 24.0521 21.5312 23.6562 21.5312Z"
            fill="#010101" />
        <path fill-rule="evenodd" clip-rule="evenodd"
            d="M8.40623 18.5938C8.36454 19.5729 8.32292 20.5521 8.28123 21.5312C8.26042 20.5304 8.28129 19.5304 8.34373 18.5312C8.38167 18.539 8.40248 18.5598 8.40623 18.5938Z"
            fill="#7E7E7E" />
        <path fill-rule="evenodd" clip-rule="evenodd"
            d="M23.5312 18.5938C23.535 18.5598 23.5558 18.539 23.5938 18.5312C23.6562 19.5304 23.6771 20.5304 23.6562 21.5312C23.6146 20.5521 23.5729 19.5729 23.5312 18.5938Z"
            fill="#7E7E7E" />
        <path fill-rule="evenodd" clip-rule="evenodd"
            d="M15.0938 19.3438C15.0975 19.3098 15.1183 19.289 15.1562 19.2812C15.2188 20.5514 15.2396 21.8223 15.2188 23.0938C15.1771 21.8438 15.1354 20.5938 15.0938 19.3438Z"
            fill="#BCBCBC" />
        <path fill-rule="evenodd" clip-rule="evenodd"
            d="M16.8437 19.3438C16.8021 20.5938 16.7604 21.8438 16.7187 23.0938C16.6979 21.8223 16.7187 20.5514 16.7812 19.2812C16.8192 19.289 16.84 19.3098 16.8437 19.3438Z"
            fill="#BCBCBC" />
    </g>
    <defs>
        <clipPath id="clip0_4594_72">
            <rect width="32" height="32" fill="white" />
        </clipPath>
    </defs>
</svg>