<svg width="32" height="32" viewBox="0 0 32 32" fill="none" xmlns="http://www.w3.org/2000/svg">
    <rect width="32" height="32" fill="black" />
    <path d="M4.24316 28.3347H28.445V3.36719H29.4738V29.4733H4.24316V28.3347Z" fill="white" />
    <path
        d="M27.2188 27.0962H2.52637V2.52637H27.2188V27.0962ZM12.9568 19.0716H14.1388V10.4317H12.7767V16.6709L7.93099 10.4191H6.8215V19.0716H8.17112V12.9537L12.9548 19.0716H12.9568ZM22.8388 11.3337C22.5904 11.1475 22.315 10.9801 22.0128 10.8335C21.7106 10.687 21.3877 10.5719 21.0421 10.4861C20.6964 10.4003 20.33 10.3584 19.9449 10.3584C19.3592 10.3584 18.8293 10.4588 18.3594 10.6556C17.8895 10.8544 17.5169 11.1496 17.2437 11.5431C16.9705 11.9365 16.8338 12.4158 16.8338 12.9831C16.8338 13.4289 16.929 13.7951 17.1174 14.0819C17.3058 14.3686 17.5894 14.6051 17.9661 14.7872C18.3428 14.9693 18.8148 15.1368 19.3757 15.2916C19.8663 15.413 20.2865 15.5344 20.6405 15.6558C20.9944 15.7772 21.2635 15.9258 21.4477 16.0995C21.632 16.2732 21.7251 16.5056 21.7251 16.7986C21.7251 17.1544 21.5823 17.4265 21.2966 17.617C21.011 17.8074 20.5991 17.9016 20.0609 17.9016C19.7401 17.9016 19.4233 17.8639 19.1149 17.7865C18.8065 17.7091 18.5209 17.6127 18.26 17.4998C17.9992 17.3867 17.7694 17.2674 17.5728 17.1398C17.3762 17.0141 17.2251 16.897 17.1216 16.7923L16.5068 17.9623C16.8276 18.2135 17.1795 18.427 17.5604 18.6027C17.9412 18.7765 18.3428 18.9083 18.7651 18.9983C19.1874 19.0883 19.6097 19.1323 20.036 19.1323C20.4624 19.1323 20.8764 19.0862 21.2532 18.9921C21.6299 18.8979 21.9652 18.7535 22.2529 18.5546C22.5427 18.3558 22.7663 18.0984 22.9277 17.7844C23.0892 17.4684 23.1679 17.0916 23.1679 16.6541C23.1679 16.1351 23.0561 15.7186 22.8305 15.4025C22.6048 15.0865 22.2799 14.8333 21.8534 14.6428C21.4271 14.4523 20.9261 14.2891 20.3465 14.1509C19.8725 14.0295 19.4792 13.9165 19.1646 13.8098C18.852 13.7051 18.6181 13.5732 18.465 13.4142C18.3118 13.2572 18.2352 13.0395 18.2352 12.7654C18.2352 12.3928 18.3718 12.1019 18.645 11.8905C18.9183 11.6791 19.3364 11.5744 19.8994 11.5744C20.1561 11.5744 20.4065 11.6037 20.6467 11.6602C20.8868 11.7168 21.1124 11.79 21.3215 11.88C21.5305 11.97 21.7106 12.0642 21.8638 12.1668C22.017 12.2693 22.1329 12.3635 22.2136 12.4535L22.8284 11.3316L22.8388 11.3337Z"
        fill="white" />
</svg>