<svg width="32" height="32" viewBox="0 0 32 32" fill="none" xmlns="http://www.w3.org/2000/svg">
    <g clip-path="url(#clip0_2183_952)">
        <path fill-rule="evenodd" clip-rule="evenodd"
            d="M-0.0800171 -0.0800781C10.5867 -0.0800781 21.2533 -0.0800781 31.92 -0.0800781C31.92 10.5866 31.92 21.2532 31.92 31.9199C21.2533 31.9199 10.5867 31.9199 -0.0800171 31.9199C-0.0800171 21.2532 -0.0800171 10.5866 -0.0800171 -0.0800781Z"
            fill="black" />
        <path fill-rule="evenodd" clip-rule="evenodd"
            d="M11.28 8.72023C12.3424 8.61967 13.1424 9.01967 13.68 9.92023C15.7839 9.63002 17.8106 9.89669 19.76 10.7202C21.0339 11.5859 21.8072 12.7859 22.08 14.3202C22.1015 16.5658 22.2082 18.8058 22.4 21.0402C22.5427 21.4857 22.7293 21.9122 22.96 22.3202C21.4704 22.4799 19.9771 22.5333 18.48 22.4802C18.5067 20.0263 18.48 17.573 18.4 15.1202C17.6443 13.3438 16.3911 12.8905 14.64 13.7602C14.3014 14.0372 14.0614 14.3838 13.92 14.8002C13.84 17.3597 13.8134 19.9197 13.84 22.4802C12.5067 22.4802 11.1733 22.4802 9.84001 22.4802C9.81336 18.2666 9.84001 14.0532 9.92001 9.84023C10.3106 9.36765 10.7639 8.99433 11.28 8.72023Z"
            fill="#FAFAFA" />
        <path fill-rule="evenodd" clip-rule="evenodd"
            d="M11.12 9.19991C12.891 8.94978 13.611 9.69645 13.28 11.4399C12.7646 12.3168 11.9913 12.6102 10.96 12.3199C10.1965 11.728 9.95646 10.9547 10.24 9.99991C10.417 9.58183 10.7104 9.31515 11.12 9.19991Z"
            fill="#62DCFA" />
    </g>
    <defs>
        <clipPath id="clip0_2183_952">
            <rect width="32" height="32" rx="16" fill="white" />
        </clipPath>
    </defs>
</svg>