<svg width="32" height="32" viewBox="0 0 32 32" fill="none" xmlns="http://www.w3.org/2000/svg">
    <g clip-path="url(#clip0_4959_275)">
        <path fill-rule="evenodd" clip-rule="evenodd"
            d="M-0.0703125 -0.0712891C10.5964 -0.0712891 21.263 -0.0712891 31.9297 -0.0712891C31.9297 10.5954 31.9297 21.262 31.9297 31.9287C21.263 31.9287 10.5964 31.9287 -0.0703125 31.9287C-0.0703125 21.262 -0.0703125 10.5954 -0.0703125 -0.0712891Z"
            fill="#FEFEFE" />
        <path fill-rule="evenodd" clip-rule="evenodd"
            d="M14.719 3.91089C21.2436 3.82651 25.5339 6.8606 27.5901 13.0131C28.619 18.7029 26.7465 23.1354 21.9724 26.3109C16.962 28.8635 12.2686 28.3893 7.89236 24.8887C4.41888 21.4021 3.25739 17.2539 4.40791 12.4442C6.19772 7.59564 9.63477 4.7512 14.719 3.91089Z"
            fill="#04AA03" />
        <path fill-rule="evenodd" clip-rule="evenodd"
            d="M15.288 7.89318C17.7378 7.80741 19.2786 8.94519 19.9102 11.3065C19.9453 12.424 20.0164 13.538 20.1235 14.6487C20.0921 15.6036 19.6892 16.3385 18.9146 16.8532C18.7335 19.4961 17.3348 20.5154 14.7191 19.911C13.491 19.2822 12.8984 18.2629 12.9413 16.8532C12.1668 16.3385 11.7639 15.6036 11.7324 14.6487C11.8395 13.538 11.9106 12.424 11.9458 11.3065C12.4221 9.52665 13.5361 8.38887 15.288 7.89318Z"
            fill="#FCFEFC" />
        <path fill-rule="evenodd" clip-rule="evenodd"
            d="M11.449 19.5557C13.1143 21.9294 15.3424 22.6169 18.1335 21.6179C19.0976 21.1753 19.8323 20.4879 20.3379 19.5557C20.9653 20.047 21.6053 20.5212 22.2579 20.9779C22.4751 21.2187 22.6647 21.4795 22.8268 21.7601C19.5164 25.1564 15.7238 25.82 11.449 23.7512C10.5189 23.2487 9.71302 22.585 9.03125 21.7601C9.19337 21.4795 9.38301 21.2187 9.60014 20.9779C10.2519 20.5354 10.8681 20.0613 11.449 19.5557Z"
            fill="#FBFDFB" />
    </g>
    <defs>
        <clipPath id="clip0_4959_275">
            <rect width="32" height="32" fill="white" />
        </clipPath>
    </defs>
</svg>