<svg width="32" height="32" viewBox="0 0 33 33" fill="none" xmlns="http://www.w3.org/2000/svg">
    <path opacity="0.988" fill-rule="evenodd" clip-rule="evenodd"
        d="M32.3329 31.4052C32.2582 31.4649 32.2306 31.5492 32.2502 31.6579C32.181 31.6867 32.1533 31.7428 32.1676 31.8263C32.1124 31.8263 32.0849 31.8543 32.0849 31.9105C32.0297 31.9105 32.0022 31.9385 32.0022 31.9947C31.947 31.9947 31.9195 32.0228 31.9195 32.0789C31.8644 32.0789 31.8368 32.107 31.8368 32.1631C31.7266 32.1912 31.7266 32.2193 31.8368 32.2473C31.7668 32.3708 31.6566 32.441 31.5061 32.4579C21.4188 32.514 11.3315 32.514 1.24415 32.4579C0.974898 32.335 0.754411 32.1525 0.582683 31.9105C0.639408 31.7788 0.625627 31.6384 0.541342 31.4895C0.486219 21.4684 0.486219 11.4474 0.541342 1.42632C0.563952 1.2723 0.632854 1.14599 0.748049 1.04737C0.669453 0.986947 0.655673 0.916766 0.706708 0.836842C0.859239 0.703164 1.02461 0.590883 1.20281 0.5C11.4249 0.570575 21.6362 0.61268 31.8368 0.626316C31.8093 0.654386 31.7817 0.682456 31.7541 0.710526C32.0327 0.909676 32.2119 1.17634 32.2916 1.51053C32.3329 11.4754 32.3467 21.4403 32.3329 31.4052Z"
        fill="#3F3D48" />
    <path opacity="0.01" fill-rule="evenodd" clip-rule="evenodd"
        d="M32.4158 31.4052C32.402 21.4403 32.4158 11.4754 32.4572 1.5105C32.526 11.4895 32.5122 21.4544 32.4158 31.4052Z"
        fill="#3E3D47" />
    <path fill-rule="evenodd" clip-rule="evenodd"
        d="M17.2847 28.121C17.2847 20.7385 17.2847 13.3561 17.2847 5.97361C16.8162 5.97361 16.3477 5.97361 15.8791 5.97361C15.8791 13.3561 15.8791 20.7385 15.8791 28.121C15.7965 20.7246 15.7689 13.3141 15.7964 5.8894C16.3201 5.8894 16.8438 5.8894 17.3674 5.8894C17.395 13.3141 17.3673 20.7246 17.2847 28.121Z"
        fill="#929196" />
    <path fill-rule="evenodd" clip-rule="evenodd"
        d="M17.2845 28.121C17.257 28.121 17.2294 28.121 17.2018 28.121C17.2018 20.7666 17.2018 13.4122 17.2018 6.05784C16.7884 6.05784 16.375 6.05784 15.9616 6.05784C15.9616 13.4122 15.9616 20.7666 15.9616 28.121C15.9341 28.121 15.9064 28.121 15.8789 28.121C15.8789 20.7385 15.8789 13.3561 15.8789 5.97363C16.3475 5.97363 16.816 5.97363 17.2845 5.97363C17.2845 13.3561 17.2845 20.7385 17.2845 28.121Z"
        fill="#CFCFCE" />
    <path fill-rule="evenodd" clip-rule="evenodd"
        d="M17.2022 28.121C16.7887 28.121 16.3753 28.121 15.9619 28.121C15.9619 20.7667 15.9619 13.4122 15.9619 6.05786C16.3753 6.05786 16.7887 6.05786 17.2022 6.05786C17.2022 13.4122 17.2022 20.7667 17.2022 28.121Z"
        fill="#C6C6C6" />
    <path fill-rule="evenodd" clip-rule="evenodd"
        d="M22.7417 7.15261C24.0571 7.04197 25.2835 7.32267 26.4211 7.99471C27.5141 10.3126 27.1972 12.4038 25.4702 14.2684C23.67 15.6211 21.7408 15.8457 19.6824 14.9421C19.3163 14.6817 19.0821 14.3308 18.9796 13.8894C18.385 11.7222 18.8673 9.85551 20.4266 8.28945C21.1166 7.72383 21.8883 7.34488 22.7417 7.15261Z"
        fill="#C5C5C5" />
    <path fill-rule="evenodd" clip-rule="evenodd"
        d="M8.68548 7.1526C11.468 6.90543 13.3284 8.11244 14.2666 10.7737C14.4897 12.0045 14.407 13.2115 14.0185 14.3947C13.9242 14.5723 13.8002 14.7267 13.6465 14.8579C11.3659 15.9483 9.28509 15.6536 7.40389 13.9737C5.94139 12.1075 5.73468 10.1006 6.78377 7.9526C7.39819 7.60913 8.0321 7.34247 8.68548 7.1526Z"
        fill="#C5C5C5" />
    <path fill-rule="evenodd" clip-rule="evenodd"
        d="M8.93377 8.66834C10.9491 8.50809 12.2582 9.40636 12.8612 11.3631C12.9341 12.129 12.8927 12.8869 12.7372 13.6368C11.5584 14.1257 10.4008 14.0836 9.2645 13.5104C7.6782 12.3824 7.23721 10.8947 7.94157 9.04729C8.27818 8.91003 8.60891 8.78371 8.93377 8.66834Z"
        fill="#3F3D48" />
    <path fill-rule="evenodd" clip-rule="evenodd"
        d="M22.8243 8.6683C23.407 8.65458 23.9858 8.69668 24.5607 8.79462C24.8297 8.8811 25.0778 9.00742 25.3048 9.17357C25.9766 12.0441 24.8742 13.6441 21.9975 13.9736C21.517 13.9347 21.0485 13.8364 20.5919 13.6788C19.9305 11.9928 20.2613 10.5331 21.5841 9.29988C21.983 9.0406 22.3964 8.83007 22.8243 8.6683Z"
        fill="#3F3D48" />
    <path fill-rule="evenodd" clip-rule="evenodd"
        d="M9.01649 16.3316C11.8461 16.2534 13.6237 17.6007 14.3495 20.3737C14.5004 21.5389 14.3625 22.6617 13.9361 23.7421C13.3791 24.2311 12.7314 24.5259 11.9931 24.6263C9.26942 24.9595 7.38152 23.8507 6.32929 21.3C6.01189 20.1015 6.06701 18.9226 6.49466 17.7632C6.58749 17.5317 6.71151 17.3211 6.86673 17.1316C7.54844 16.7367 8.26502 16.47 9.01649 16.3316Z"
        fill="#C5C5C5" />
    <path fill-rule="evenodd" clip-rule="evenodd"
        d="M22.99 16.3315C24.2495 16.2566 25.4071 16.5654 26.4627 17.2578C27.3329 19.1836 27.2088 21.0363 26.0906 22.8157C24.1931 24.8262 22.002 25.2332 19.5173 24.0368C19.201 23.662 18.9943 23.2269 18.8972 22.7315C18.4077 20.0378 19.331 18.0307 21.6671 16.7105C22.1039 16.5294 22.5449 16.4031 22.99 16.3315Z"
        fill="#C5C5C5" />
    <path fill-rule="evenodd" clip-rule="evenodd"
        d="M8.68581 17.9316C10.8112 17.6162 12.2031 18.4864 12.8613 20.5421C12.9638 21.3356 12.895 22.1076 12.6546 22.8579C10.93 23.5439 9.45551 23.1931 8.23105 21.8053C7.55131 20.7119 7.44107 19.561 7.90032 18.3526C8.1607 18.1991 8.42255 18.0587 8.68581 17.9316Z"
        fill="#3F3D48" />
    <path fill-rule="evenodd" clip-rule="evenodd"
        d="M22.9898 17.8474C23.7761 17.7621 24.5202 17.9025 25.2222 18.2685C25.8301 19.7318 25.6096 21.0511 24.5607 22.2264C23.4186 23.1411 22.1509 23.3796 20.7573 22.9422C20.4684 22.766 20.3169 22.4993 20.3026 22.1422C20.0771 19.9593 20.9729 18.5277 22.9898 17.8474Z"
        fill="#3F3D48" />
    <path opacity="0.01" fill-rule="evenodd" clip-rule="evenodd"
        d="M32.333 31.4053C32.3605 31.4053 32.3882 31.4053 32.4157 31.4053C32.4353 31.514 32.4078 31.5982 32.333 31.6579C32.333 31.5737 32.333 31.4895 32.333 31.4053Z"
        fill="#3E3D47" />
    <path opacity="0.01" fill-rule="evenodd" clip-rule="evenodd"
        d="M32.2505 31.658C32.278 31.658 32.3056 31.658 32.3332 31.658C32.3474 31.7415 32.3198 31.7976 32.2505 31.8264C32.2505 31.7702 32.2505 31.7141 32.2505 31.658Z"
        fill="#3E3D47" />
    <path opacity="0.012" fill-rule="evenodd" clip-rule="evenodd"
        d="M32.1675 31.8264C32.195 31.8264 32.2226 31.8264 32.2502 31.8264C32.2349 31.8828 32.2073 31.8828 32.1675 31.8264Z"
        fill="#3E3D47" />
    <path opacity="0.012" fill-rule="evenodd" clip-rule="evenodd"
        d="M32.085 31.9104C32.1125 31.9104 32.1401 31.9104 32.1676 31.9104C32.1523 31.9668 32.1247 31.9668 32.085 31.9104Z"
        fill="#3E3D47" />
    <path opacity="0.012" fill-rule="evenodd" clip-rule="evenodd"
        d="M32.002 31.9946C32.0295 31.9946 32.0571 31.9946 32.0846 31.9946C32.0693 32.051 32.0417 32.051 32.002 31.9946Z"
        fill="#3E3D47" />
    <path opacity="0.016" fill-rule="evenodd" clip-rule="evenodd"
        d="M31.9194 32.0789C31.947 32.0789 31.9746 32.0789 32.0021 32.0789C31.9868 32.1353 31.9592 32.1353 31.9194 32.0789Z"
        fill="#3E3D47" />
    <path opacity="0.012" fill-rule="evenodd" clip-rule="evenodd"
        d="M31.8369 32.1631C31.8644 32.1631 31.8921 32.1631 31.9196 32.1631C31.9043 32.2195 31.8767 32.2195 31.8369 32.1631Z"
        fill="#3E3D47" />
</svg>