<svg width="32" height="32" viewBox="0 0 32 32" fill="none" xmlns="http://www.w3.org/2000/svg">
    <path opacity="0.066" fill-rule="evenodd" clip-rule="evenodd"
        d="M4.31172 7.94336C7.41314 7.94336 10.5145 7.94336 13.616 7.94336C13.8994 8.31467 14.2776 8.57945 14.7506 8.73769C18.3486 8.91827 21.9417 8.88044 25.5299 8.62421C26.8432 8.92554 28.0913 9.37944 29.2743 9.98591C31.0292 11.5307 31.9369 13.4976 31.9975 15.8866C32.0663 18.9601 30.7047 21.1917 27.9127 22.5817C27.2535 22.8171 26.6104 23.0819 25.9838 23.376C22.4075 23.1133 18.8145 23.0755 15.2045 23.2625C14.5588 23.2644 14.1049 23.5292 13.8429 24.0568C10.6658 24.0568 7.48878 24.0568 4.31172 24.0568C3.07387 23.1966 1.97703 22.1375 1.0212 20.8795C0.954277 20.3279 0.689522 19.9118 0.226933 19.6313C0.480623 19.1036 0.40498 18.5362 0 17.9292C0 16.6431 0 15.3571 0 14.071C0.387982 13.6262 0.463626 13.1344 0.226933 12.5958C0.747056 11.8205 1.23874 11.0262 1.702 10.2129C2.47 9.33079 3.33991 8.57429 4.31172 7.94336Z"
        fill="#060809" />
    <path fill-rule="evenodd" clip-rule="evenodd"
        d="M30.1822 13.617C30.3263 14.2962 30.364 14.9771 30.2957 15.6595C30.2201 15.4326 30.1443 15.2056 30.0687 14.9787C30.0281 15.6717 29.9146 16.3525 29.7283 17.0212C29.3065 16.0677 28.7012 15.2355 27.9129 14.5248C27.7318 14.6285 27.6562 14.7798 27.6859 14.9787C26.3007 12.3106 24.2583 11.6676 21.5587 13.0496C20.9674 13.4895 20.5513 14.0569 20.3106 14.7517C18.874 12.1603 16.8694 11.593 14.2969 13.0496C13.7055 13.4895 13.2895 14.0569 13.0488 14.7517C11.6261 12.3359 9.62158 11.6929 7.03505 12.8226C6.73486 13.0078 6.58359 13.2726 6.58118 13.617C6.03178 13.9327 5.42662 14.1219 4.76572 14.1843C3.73027 14.7346 3.35207 15.6046 3.63106 16.7943C3.44908 16.4648 3.33562 16.0866 3.29066 15.6595C2.975 16.3032 2.55896 16.8327 2.04253 17.2482C1.84032 17.1098 1.61339 17.0341 1.36173 17.0212C1.3241 15.9594 1.36192 14.9003 1.4752 13.8439C1.55998 13.392 1.74909 13.0137 2.04253 12.7092C1.91754 13.4596 1.84189 14.2161 1.8156 14.9787C1.51628 15.4565 1.59193 15.9104 2.04253 16.3404C3.0903 14.4295 4.60319 13.0299 6.58118 12.1418C8.326 11.9378 10.0658 11.7109 11.8006 11.4609C12.9394 11.0347 12.9394 10.5429 11.8006 9.98576C10.092 9.12095 8.27651 8.85617 6.35425 9.19143C5.93549 9.44743 5.48163 9.5609 4.99266 9.53186C6.04853 8.61125 7.29666 8.233 8.73705 8.3971C10.6563 8.33083 12.3583 8.89821 13.843 10.0992C18.0035 10.1749 22.1639 10.2505 26.3243 10.3262C28.1437 10.8233 29.4295 11.9202 30.1822 13.617Z"
        fill="#C1E0F3" />
    <path fill-rule="evenodd" clip-rule="evenodd"
        d="M11.8005 9.9856C11.8248 10.4119 11.7113 10.4876 11.4601 10.2125C9.72506 10.6064 8.02306 10.8712 6.35413 11.0069C4.2681 11.8827 2.79304 13.3578 1.92894 15.4324C1.82357 15.2975 1.78575 15.1462 1.81548 14.9785C1.84177 14.216 1.91742 13.4595 2.04241 12.709C2.71143 11.359 3.69482 10.2999 4.99254 9.5317C5.48151 9.56074 5.93537 9.44727 6.35413 9.19127C8.27639 8.85601 10.0919 9.12079 11.8005 9.9856Z"
        fill="#E6F3FA" />
    <path fill-rule="evenodd" clip-rule="evenodd"
        d="M11.8005 9.98584C12.9393 10.543 12.9393 11.0347 11.8005 11.461C10.0657 11.711 8.32583 11.9379 6.58102 12.1419C4.60302 13.03 3.09013 14.4296 2.04236 16.3404C1.59176 15.9105 1.51611 15.4566 1.81543 14.9787C1.7857 15.1464 1.82352 15.2977 1.92889 15.4326C2.79299 13.3581 4.26805 11.8829 6.35408 11.0071C8.02301 10.8714 9.72501 10.6066 11.4601 10.2128C11.7112 10.4878 11.8247 10.4122 11.8005 9.98584Z"
        fill="#D9ECF8" />
    <path fill-rule="evenodd" clip-rule="evenodd"
        d="M3.63113 16.7944C3.68399 17.1489 3.83527 17.4515 4.08503 17.7022C3.63331 18.0797 3.25508 18.5336 2.95028 19.0639C2.52552 18.517 2.22291 17.9118 2.04248 17.2483C2.55895 16.8329 2.97502 16.3033 3.29071 15.6597C3.33567 16.0867 3.44914 16.465 3.63113 16.7944Z"
        fill="#A1D3F1" />
    <path fill-rule="evenodd" clip-rule="evenodd"
        d="M27.0049 18.1558C27.2375 18.2459 27.2754 18.3971 27.1184 18.6097C25.8319 19.906 24.281 20.3221 22.4662 19.858C22.1837 19.6784 21.8811 19.5649 21.5585 19.5176C21.1851 18.9928 20.7312 18.5389 20.1969 18.1558C18.5708 20.0591 16.604 20.4751 14.2967 19.4041C13.7954 18.9789 13.3794 18.4872 13.0485 17.9289C12.2668 19.1284 11.17 19.8092 9.75801 19.9715C7.87059 20.5406 6.43336 19.9732 5.44629 18.2693C5.55976 18.2315 5.67322 18.1937 5.78669 18.1558C6.43392 18.7274 7.15255 19.2192 7.94255 19.631C8.43595 19.83 8.81418 19.7166 9.07721 19.2906C9.22851 19.2906 9.37978 19.2906 9.53108 19.2906C9.61405 19.5617 9.80317 19.713 10.0984 19.7445C11.4512 19.335 12.4346 18.5029 13.0485 17.248C14.4433 19.8852 16.4479 20.4526 19.0623 18.9502C19.5615 18.4433 19.9775 17.8759 20.3104 17.248C21.3668 19.4974 23.0688 20.2161 25.4164 19.4041C26.1187 19.1918 26.6484 18.7757 27.0049 18.1558Z"
        fill="#6DAED7" />
    <path fill-rule="evenodd" clip-rule="evenodd"
        d="M27.6857 14.9785C27.6689 15.4122 27.442 15.6769 27.0049 15.7728C26.3246 15.9749 25.7195 15.8615 25.1894 15.4324C25.1531 15.818 25.1908 16.1963 25.3029 16.5671C25.8696 16.1182 26.5127 16.0047 27.2318 16.2267C27.7606 16.5643 27.8364 16.9804 27.4588 17.4749C27.3074 17.7019 27.1563 17.9288 27.0049 18.1558C26.6484 18.7757 26.1187 19.1917 25.4164 19.404C23.0687 20.216 21.3668 19.4973 20.3104 17.248C19.9775 17.8758 19.5615 18.4432 19.0622 18.9501C16.4478 20.4525 14.4433 19.8851 13.0485 17.248C12.4346 18.5028 11.4512 19.3349 10.0984 19.7444C9.80316 19.713 9.61404 19.5616 9.53107 19.2905C9.30952 18.2181 9.64992 17.386 10.5523 16.7941C10.8885 14.9356 10.1699 14.2926 8.39641 14.865C7.41497 16.01 7.60407 16.9556 8.96374 17.7019C9.07643 18.2261 9.11426 18.7557 9.07721 19.2905C8.81417 19.7165 8.43594 19.83 7.94254 19.631C7.15254 19.2191 6.43392 18.7274 5.78668 18.1558C5.67321 18.1936 5.55975 18.2314 5.44628 18.2693C6.43335 19.9731 7.87058 20.5405 9.758 19.9714C10.5345 21.2777 10.1563 21.845 8.62334 21.6735C6.47583 21.0243 4.96294 19.7005 4.08468 17.7019C3.83495 17.4511 3.68367 17.1485 3.63082 16.7941C3.35183 15.6044 3.73003 14.7345 4.76548 14.1842C5.42638 14.1217 6.03154 13.9326 6.58095 13.6168C6.58335 13.2724 6.73462 13.0076 7.03481 12.8224C9.62135 11.6927 11.6259 12.3357 13.0485 14.7515C13.2893 14.0567 13.7053 13.4893 14.2967 13.0494C16.8692 11.5928 18.8738 12.1602 20.3104 14.7515C20.5511 14.0567 20.9671 13.4893 21.5585 13.0494C24.2581 11.6674 26.3005 12.3104 27.6857 14.9785Z"
        fill="#E0E6E9" />
    <path fill-rule="evenodd" clip-rule="evenodd"
        d="M24.9626 19.0637C22.9288 19.6735 21.4916 18.9927 20.6509 17.0212C20.8251 16.8481 20.9386 16.6212 20.9913 16.3403C22.0952 17.556 23.419 18.4638 24.9626 19.0637Z"
        fill="#7A7A7A" />
    <path fill-rule="evenodd" clip-rule="evenodd"
        d="M25.6435 18.8366C24.9686 18.5754 24.2878 18.3107 23.6011 18.0423C23.8818 17.9896 24.1087 17.8761 24.2819 17.7019C24.8873 17.6261 25.3412 17.3235 25.6435 16.7941C26.1525 16.573 26.6819 16.4973 27.232 16.5671C27.0482 17.5804 26.5187 18.3369 25.6435 18.8366Z"
        fill="#383838" />
    <path fill-rule="evenodd" clip-rule="evenodd"
        d="M22.2393 15.4328C22.1297 16.9115 22.8105 17.668 24.2817 17.7023C24.1085 17.8766 23.8816 17.99 23.6009 18.0427C24.2876 18.3111 24.9684 18.5759 25.6433 18.837C25.4824 19.0422 25.2555 19.1179 24.9625 19.064C23.4189 18.4641 22.0951 17.5563 20.9912 16.3406C20.9385 16.6214 20.825 16.8484 20.6508 17.0214C20.3827 16.3093 20.3827 15.6285 20.6508 14.9789C20.6152 15.2906 20.653 15.5932 20.7642 15.8867C20.8884 14.9565 21.3044 14.2 22.0124 13.6172C22.2405 13.7556 22.2026 13.9069 21.8989 14.0711C21.7476 14.9032 21.7476 15.7354 21.8989 16.5675C21.9438 16.1405 22.0573 15.7622 22.2393 15.4328Z"
        fill="#646463" />
    <path fill-rule="evenodd" clip-rule="evenodd"
        d="M14.7508 16.3403C14.7508 16.4916 14.8264 16.5673 14.9777 16.5673C15.4825 17.6132 16.3146 17.9537 17.474 17.5886C17.707 17.4721 17.9339 17.3586 18.1548 17.2481C18.751 17.314 19.1292 17.6166 19.2895 18.1559C18.2282 19.2052 16.9423 19.5456 15.4316 19.1772C14.2909 18.7566 13.6101 17.9623 13.3892 16.7942C13.3595 16.6265 13.3973 16.4752 13.5027 16.3403C13.6711 17.0567 14.0115 17.6619 14.5239 18.1559C14.5995 18.1181 14.6752 18.0803 14.7508 18.0425C14.1517 17.4477 14.1517 16.8803 14.7508 16.3403Z"
        fill="#363535" />
    <path fill-rule="evenodd" clip-rule="evenodd"
        d="M4.08483 15.2056C4.08483 15.5082 4.08483 15.8108 4.08483 16.1134C4.51382 16.0672 4.85422 16.2185 5.10603 16.5673C5.15098 16.1402 5.26445 15.762 5.44643 15.4325C5.39199 16.1313 5.46762 16.8121 5.67336 17.4751C5.44643 17.6264 5.21949 17.7777 4.99256 17.929C5.70847 19.4972 6.91877 20.405 8.62349 20.6524C8.62349 20.8037 8.62349 20.955 8.62349 21.1063C6.24028 20.5766 4.68958 19.1393 3.97136 16.7942C3.79077 16.2181 3.8286 15.6886 4.08483 15.2056Z"
        fill="#747473" />
    <path fill-rule="evenodd" clip-rule="evenodd"
        d="M25.1896 15.4326C24.7366 15.0165 24.2071 14.9031 23.6009 15.0922C24.2314 15.6163 24.6853 16.2594 24.9626 17.0212C24.0262 17.7041 23.2319 17.5528 22.5797 16.5673C22.4662 15.1678 23.1091 14.5248 24.5087 14.6383C24.9458 14.7341 25.1728 14.9989 25.1896 15.4326Z"
        fill="#AED8F1" />
    <path fill-rule="evenodd" clip-rule="evenodd"
        d="M19.2895 18.1562C19.1293 17.6169 18.7511 17.3143 18.1548 17.2484C18.5827 16.6584 19.188 16.4315 19.9704 16.5675C19.9233 17.1895 19.6964 17.7191 19.2895 18.1562Z"
        fill="#747373" />
    <path fill-rule="evenodd" clip-rule="evenodd"
        d="M13.389 14.9785C13.5683 15.2301 13.6818 15.5327 13.7294 15.8863C14.5298 15.178 14.8703 15.3293 14.7507 16.3402C14.1515 16.8802 14.1515 17.4476 14.7507 18.0423C14.6751 18.0802 14.5994 18.118 14.5238 18.1558C14.0113 17.6618 13.6709 17.0566 13.5025 16.3402C13.3971 16.4751 13.3593 16.6264 13.389 16.7941C13.1014 16.2128 13.1014 15.6076 13.389 14.9785Z"
        fill="#686868" />
    <path fill-rule="evenodd" clip-rule="evenodd"
        d="M12.7084 15.2059C12.9371 17.4701 11.9537 18.8318 9.75823 19.291C9.72145 18.8309 9.75926 18.377 9.8717 17.9293C11.0697 17.2565 11.4101 16.273 10.8929 14.9789C10.8781 14.8795 10.9159 14.8038 11.0064 14.752C11.5287 15.0622 12.096 15.2135 12.7084 15.2059Z"
        fill="#2B2B2B" />
    <path fill-rule="evenodd" clip-rule="evenodd"
        d="M9.53126 19.2908C9.37995 19.2908 9.22867 19.2908 9.07736 19.2908C9.11442 18.7559 9.07659 18.2264 8.96388 17.7021C7.60411 16.9559 7.41499 16.0103 8.39651 14.8653C10.1701 14.2929 10.8888 14.9359 10.5525 16.7943C9.65011 17.3863 9.30969 18.2184 9.53126 19.2908Z"
        fill="#ABD4EE" />
    <path fill-rule="evenodd" clip-rule="evenodd"
        d="M8.62341 14.9788C9.27691 14.8727 9.80648 15.0618 10.2121 15.5462C9.68284 15.9904 9.07763 16.3308 8.39646 16.5674C8.09107 15.9775 8.16672 15.4479 8.62341 14.9788Z"
        fill="#DEEFF9" />
    <path fill-rule="evenodd" clip-rule="evenodd"
        d="M17.9274 15.4326C18.5376 15.798 19.2185 15.9871 19.97 16C19.253 16.0026 18.61 16.1917 18.0409 16.5674C17.9289 16.1965 17.8911 15.8183 17.9274 15.4326Z"
        fill="#9CC3DB" />
    <path fill-rule="evenodd" clip-rule="evenodd"
        d="M17.9279 15.4326C17.2754 14.8952 16.5945 14.8574 15.8853 15.3191C16.5338 15.8339 17.139 16.4013 17.7009 17.0212C16.7644 17.7041 15.9701 17.5528 15.3179 16.5673C15.2045 15.1678 15.8475 14.5248 17.247 14.6383C17.6841 14.7341 17.911 14.9989 17.9279 15.4326Z"
        fill="#AFD6ED" />
    <path fill-rule="evenodd" clip-rule="evenodd"
        d="M7.48904 16.5675C7.61507 17.0733 7.91766 17.4516 8.39684 17.7023C8.61794 18.2112 8.6936 18.7408 8.62379 19.2909C7.03839 19.0672 6.13059 18.1594 5.90039 16.5675C6.5816 15.1871 7.11117 15.1871 7.48904 16.5675Z"
        fill="#292929" />
    <path fill-rule="evenodd" clip-rule="evenodd"
        d="M14.07 13.8438C14.4897 14.0918 14.8679 14.3944 15.2048 14.7516C15.0032 15.3313 14.9276 15.9365 14.9778 16.5672C14.8265 16.5672 14.7509 16.4915 14.7509 16.3402C14.8704 15.3293 14.53 15.1779 13.7296 15.8863C13.6819 15.5327 13.5685 15.2301 13.3892 14.9785C13.5277 14.5396 13.7546 14.1613 14.07 13.8438Z"
        fill="#8D8D8D" />
    <path fill-rule="evenodd" clip-rule="evenodd"
        d="M7.03491 13.3901C7.22383 13.5782 7.14816 13.7673 6.80796 13.9575C7.45811 13.999 8.06332 14.1125 8.62356 14.2979C7.64924 14.7459 7.27101 15.5024 7.48881 16.5674C7.11094 15.1871 6.58137 15.1871 5.90016 16.5674C5.51782 15.4772 5.74477 14.4937 6.58101 13.6171C6.73232 13.5414 6.8836 13.4658 7.03491 13.3901Z"
        fill="#404040" />
    <path fill-rule="evenodd" clip-rule="evenodd"
        d="M5.44666 15.4329C5.26467 15.7623 5.1512 16.1406 5.10624 16.5677C4.85441 16.2189 4.51399 16.0676 4.08496 16.1137C4.08496 15.8112 4.08496 15.5085 4.08496 15.2059C4.35444 14.6442 4.80834 14.4172 5.44666 14.5251C5.44666 14.8277 5.44666 15.1303 5.44666 15.4329Z"
        fill="#2F2F2F" />
    <path fill-rule="evenodd" clip-rule="evenodd"
        d="M12.7084 15.2057C12.096 15.2134 11.5286 15.0621 11.0064 14.7518C10.9159 14.8036 10.8781 14.8793 10.8929 14.9787C10.2509 14.4162 9.49442 14.1893 8.62357 14.2979C8.06336 14.1124 7.4582 13.9989 6.80811 13.9574C7.14828 13.7672 7.22394 13.5781 7.03504 13.3901C9.04603 12.0085 10.8237 12.3111 12.368 14.2979C12.5476 14.5804 12.661 14.883 12.7084 15.2057Z"
        fill="#7F7F7F" />
    <path fill-rule="evenodd" clip-rule="evenodd"
        d="M24.9623 12.9363C24.0587 12.727 23.529 13.0674 23.3738 13.9576C23.8009 14.0025 24.179 14.116 24.5085 14.298C23.416 14.0876 22.6595 14.4658 22.2391 15.4327C22.0572 15.7622 21.9437 16.1404 21.8987 16.5675C21.7475 15.7353 21.7475 14.9032 21.8987 14.071C22.2025 13.9068 22.2403 13.7555 22.0122 13.6171C21.3043 14.2 20.8882 14.9565 20.7641 15.8866C20.6529 15.5931 20.6151 15.2905 20.6506 14.9788C21.4914 13.0074 22.9286 12.3265 24.9623 12.9363Z"
        fill="#414141" />
    <path fill-rule="evenodd" clip-rule="evenodd"
        d="M24.9626 12.9362C26.1977 13.3391 26.9541 14.1712 27.2319 15.4327C26.7719 15.4695 26.318 15.4317 25.8703 15.3192C25.504 14.8366 25.0501 14.4961 24.5087 14.2979C24.1792 14.1159 23.8011 14.0025 23.374 13.9575C23.5292 13.0674 24.0589 12.7269 24.9626 12.9362Z"
        fill="#292828" />
    <path fill-rule="evenodd" clip-rule="evenodd"
        d="M17.7008 12.9361C18.936 13.3389 19.6924 14.1711 19.9702 15.4325C19.5101 15.4693 19.0562 15.4315 18.6086 15.319C18.2424 14.8364 17.7885 14.496 17.247 14.2978C16.9176 14.1158 16.5393 14.0023 16.1123 13.9573C16.3502 13.173 16.8797 12.8326 17.7008 12.9361Z"
        fill="#292929" />
    <path fill-rule="evenodd" clip-rule="evenodd"
        d="M17.7007 12.9364C16.8796 12.8329 16.3501 13.1733 16.1122 13.9577C16.5392 14.0026 16.9175 14.1161 17.2469 14.2981C16.5084 14.2316 15.8276 14.3829 15.2045 14.752C14.8677 14.3948 14.4895 14.0922 14.0698 13.8442C14.3861 13.343 14.8399 13.0026 15.4314 12.8229C16.2317 12.6397 16.9882 12.6775 17.7007 12.9364Z"
        fill="#444444" />
    <path fill-rule="evenodd" clip-rule="evenodd"
        d="M27.459 17.4751C27.6551 17.7448 27.882 18.0095 28.1398 18.2694C27.8135 19.4278 27.0571 20.1087 25.8705 20.312C23.9037 20.3876 21.937 20.4633 19.9702 20.5389C18.1671 20.8234 16.3516 21.0503 14.5238 21.2198C14.3977 21.3066 14.322 21.4201 14.2969 21.5602C13.4271 21.3189 13.4271 21.1298 14.2969 20.9928C16.7508 20.6219 19.1714 20.1302 21.5588 19.5177C21.8814 19.565 22.184 19.6785 22.4665 19.8581C24.2813 20.3222 25.8321 19.9061 27.1186 18.6098C27.2756 18.3972 27.2377 18.246 27.0051 18.1559C27.1565 17.929 27.3076 17.702 27.459 17.4751Z"
        fill="#88C8EF" />
    <path fill-rule="evenodd" clip-rule="evenodd"
        d="M30.1822 13.6172C31.1444 16.462 30.4636 18.845 28.1398 20.7661C27.4451 21.2279 26.6885 21.4927 25.8704 21.5605C22.0126 21.5605 18.1547 21.5605 14.2969 21.5605C14.322 21.4203 14.3976 21.3069 14.5238 21.22C16.3516 21.0506 18.167 20.8236 19.9702 20.5392C21.937 20.4635 23.9036 20.3879 25.8704 20.3122C27.0571 20.1089 27.8134 19.428 28.1398 18.2697C27.882 18.0098 27.655 17.745 27.459 17.4753C27.8366 16.9808 27.7608 16.5647 27.232 16.2271C26.5129 16.0051 25.8698 16.1186 25.3031 16.5675C25.191 16.1967 25.1533 15.8184 25.1896 15.4328C25.7198 15.8619 26.3248 15.9754 27.0051 15.7732C27.4422 15.6774 27.6691 15.4126 27.6859 14.9789C27.6562 14.78 27.7317 14.6287 27.9128 14.525C28.7012 15.2358 29.3064 16.0679 29.7283 17.0214C29.9146 16.3527 30.0281 15.6719 30.0687 14.9789C30.1443 15.2058 30.2201 15.4328 30.2956 15.6597C30.3639 14.9773 30.3263 14.2964 30.1822 13.6172Z"
        fill="#9FD3F0" />
    <path fill-rule="evenodd" clip-rule="evenodd"
        d="M1.36182 17.0215C1.61347 17.0344 1.84041 17.11 2.04261 17.2484C2.22303 17.9119 2.52562 18.5171 2.95035 19.064C3.25512 18.5337 3.63332 18.0798 4.08501 17.7023C4.96326 19.7009 6.47616 21.0248 8.62367 21.674C10.1566 21.8455 10.5348 21.2781 9.75833 19.9718C11.1703 19.8096 12.2672 19.1288 13.0489 17.9293C13.3797 18.4876 13.7957 18.9793 14.297 19.4045C16.6043 20.4755 18.5711 20.0594 20.1972 18.1562C20.7316 18.5393 21.1854 18.9932 21.5588 19.5179C19.1715 20.1305 16.7509 20.6222 14.297 20.9931C13.4272 21.1301 13.4272 21.3192 14.297 21.5605C18.1548 21.5605 22.0127 21.5605 25.8706 21.5605C21.976 21.7492 18.0425 21.8627 14.0701 21.9009C10.0325 24.7486 6.2881 24.4082 2.83688 20.8796C2.00983 19.7222 1.51814 18.4362 1.36182 17.0215Z"
        fill="#62B3E4" />
    <path fill-rule="evenodd" clip-rule="evenodd"
        d="M8.62354 21.1063C8.62354 20.955 8.62354 20.8037 8.62354 20.6524C8.97345 20.4707 9.35171 20.3951 9.75829 20.4255C9.83904 21.5566 9.46078 21.7835 8.62354 21.1063Z"
        fill="#303030" />
</svg>