<svg width="32" height="32" viewBox="0 0 32 32" fill="none" xmlns="http://www.w3.org/2000/svg">
    <g clip-path="url(#clip0_4614_445)">
        <rect width="32" height="32" fill="#FAFAFA" />
        <path opacity="0.964" fill-rule="evenodd" clip-rule="evenodd"
            d="M14.7826 0C15.5676 0 16.3525 0 17.1375 0C24.877 1.08615 29.652 5.4379 31.4626 13.0553C32.4442 18.9935 30.8089 24.0632 26.5568 28.2646C21.9412 31.8577 16.7955 32.8587 11.1196 31.2674C4.98136 28.9553 1.36191 24.5818 0.26123 18.1468C0.26123 16.7107 0.26123 15.2747 0.26123 13.8386C1.86869 5.83719 6.70916 1.22433 14.7826 0ZM11.9045 1.69718C16.1219 1.46276 19.545 2.98588 22.1742 6.26653C25.618 10.8758 27.3624 16.0544 27.4071 21.8023C27.0209 25.6223 25.0803 28.2986 21.5855 29.8313C18.5623 30.7065 15.7714 30.2278 13.2128 28.3952C7.67452 23.6168 4.99263 17.5461 5.16711 10.1831C5.47124 5.77201 7.71705 2.94336 11.9045 1.69718Z"
            fill="#2A2F56" />
    </g>
    <defs>
        <clipPath id="clip0_4614_445">
            <rect width="32" height="32" fill="white" />
        </clipPath>
    </defs>
</svg>