<svg width="32" height="32" viewBox="0 0 33 33" fill="none" xmlns="http://www.w3.org/2000/svg">
    <path
        d="M16.305 10.6239C11.8945 10.6239 8.3064 13.9525 8.3064 18.0434C8.3064 22.1344 11.8945 25.4634 16.305 25.4634C20.7155 25.4634 24.3036 22.1349 24.3036 18.0434C24.3036 13.952 20.7155 10.6239 16.305 10.6239ZM16.305 13.6278C18.9344 13.6278 21.065 15.6051 21.065 18.0434C21.065 20.4827 18.934 22.4591 16.305 22.4591C13.676 22.4591 11.545 20.4822 11.545 18.0434C11.545 15.6047 13.6765 13.6278 16.305 13.6278Z"
        fill="#55BB87" />
    <path
        d="M25.9827 10.332L30.6143 7.15025C27.3971 3.52078 22.6096 1.13207 17.2251 0.885986V6.23932C20.7234 6.47072 23.8299 8.00937 25.9827 10.332Z"
        fill="#1B2B4D" />
    <path
        d="M16.3049 29.882C9.25711 29.882 3.54402 24.5814 3.54402 18.0434C3.54402 11.7925 8.76706 6.67706 15.3849 6.23929V3.22632C6.98928 3.67013 0.304932 10.1459 0.304932 18.0434C0.304932 26.2275 7.48259 32.8859 16.3049 32.8859C19.4197 32.8891 22.4669 32.044 25.0686 30.4554L23.1396 28.0386C21.0974 29.2449 18.726 29.8845 16.3049 29.882ZM27.0791 11.7027C28.3797 13.5973 29.0692 15.7973 29.0663 18.0434C29.0663 21.6353 27.3402 24.8503 24.6177 27.0215L26.5467 29.4374C30.0632 26.7123 32.3049 22.6166 32.3049 18.0434C32.3083 15.1541 31.3972 12.3275 29.6848 9.9141L27.0796 11.7031"
        fill="#55BB87" />
</svg>