<svg width="32" height="32" viewBox="0 0 32 32" fill="none" xmlns="http://www.w3.org/2000/svg">
    <g clip-path="url(#clip0_4192_1298)">
        <rect width="32" height="32" fill="#FAFAFA" />
        <path fill-rule="evenodd" clip-rule="evenodd"
            d="M22.1125 0.0504933C23.4882 -0.130218 24.7183 0.174162 25.8029 0.963176C26.9763 3.60083 27.5145 6.33888 27.4174 9.17732C24.9801 10.2648 22.4429 11.1775 19.806 11.9154C18.9375 11.7438 18.2455 11.2874 17.7302 10.5463C17.0023 8.34997 16.3104 6.14447 15.6544 3.92939C15.6264 3.14859 15.9339 2.54029 16.577 2.10403C18.4549 1.36019 20.3001 0.675681 22.1125 0.0504933Z"
            fill="#505978" />
        <path fill-rule="evenodd" clip-rule="evenodd"
            d="M6.42842 12.8284C12.2736 12.7522 18.1166 12.8284 23.9577 13.0566C24.1884 13.2847 24.419 13.5129 24.6497 13.7411C24.9572 19.5215 24.9572 25.3016 24.6497 31.082C24.419 31.3102 24.1884 31.5384 23.9577 31.7666C17.8492 32.1417 11.7755 32.0655 5.73647 31.5384C4.98599 25.8017 4.83224 20.0212 5.27517 14.1974C5.75723 13.799 6.14163 13.3427 6.42842 12.8284Z"
            fill="#45C2D8" />
    </g>
    <defs>
        <clipPath id="clip0_4192_1298">
            <rect width="32" height="32" fill="white" />
        </clipPath>
    </defs>
</svg>