<svg width="32" height="32" viewBox="0 0 32 32" fill="none" xmlns="http://www.w3.org/2000/svg">
    <g clip-path="url(#clip0_4646_2078)">
        <path fill-rule="evenodd" clip-rule="evenodd"
            d="M-0.571533 -0.571289C10.0951 -0.571289 20.7618 -0.571289 31.4285 -0.571289C31.4285 10.0954 31.4285 20.7621 31.4285 31.4287C20.7618 31.4287 10.0951 31.4287 -0.571533 31.4287C-0.571533 20.7621 -0.571533 10.0954 -0.571533 -0.571289Z"
            fill="#2AC278" />
        <path fill-rule="evenodd" clip-rule="evenodd"
            d="M10.8571 5.14295C22.0142 4.83475 26.2046 9.9776 23.4285 20.5715C24.3349 21.8118 25.0968 23.1451 25.7142 24.5715C20.9098 24.8852 15.9574 25.0758 10.8571 25.143C3.28527 18.4782 3.28527 11.8114 10.8571 5.14295Z"
            fill="#EAEEE6" />
        <path fill-rule="evenodd" clip-rule="evenodd"
            d="M12 8.57134C20.0684 7.68597 22.9255 11.1145 20.5714 18.8571C16.6653 23.2768 12.8558 23.2768 9.14287 18.8571C7.92028 14.6947 8.87266 11.2661 12 8.57134Z"
            fill="#36C784" />
        <path fill-rule="evenodd" clip-rule="evenodd"
            d="M13.1429 12.0002C18.4669 11.4454 19.9908 13.5408 17.7143 18.2859C10.9093 19.6883 9.38549 17.5931 13.1429 12.0002Z"
            fill="#EDF0E9" />
    </g>
    <defs>
        <clipPath id="clip0_4646_2078">
            <rect width="32" height="32" fill="white" />
        </clipPath>
    </defs>
</svg>