<svg width="32" height="32" viewBox="0 0 32 33" fill="none" xmlns="http://www.w3.org/2000/svg">
    <path
        d="M15.9956 19.5992C17.982 19.5992 19.5923 17.9934 19.5923 16.0125C19.5923 14.0316 17.982 12.4258 15.9956 12.4258C14.0092 12.4258 12.3989 14.0316 12.3989 16.0125C12.3989 17.9934 14.0092 19.5992 15.9956 19.5992Z"
        fill="#E94B24" />
    <path
        d="M11.0418 27.8751C11.0322 27.549 11.0625 27.2229 11.1359 26.9048C11.5027 25.3031 12.9318 24.0021 14.5635 23.7762C15.5013 23.6458 16.4504 23.8414 17.3978 23.8748C20.2369 23.9718 23.0456 22.5085 24.7235 20.2229C26.4015 17.9372 26.9565 14.9072 26.3648 12.1365C25.9214 10.0608 24.8607 8.14097 23.4077 6.58381C22.5863 5.70423 22.0519 4.5813 21.9228 3.38678C21.8223 2.46108 21.4873 1.56082 20.9434 0.803711C25.4365 2.25589 29.2023 5.79649 30.9217 10.1833C31.8308 12.5039 32.1578 15.0392 31.9217 17.5173C31.6904 19.9477 30.9169 22.3876 29.5978 24.4522C28.3777 26.364 26.7364 28.0007 24.8464 29.2541C22.9547 30.509 20.8095 31.3854 18.5717 31.7815C18.023 31.8785 17.4696 31.9453 16.9145 31.9835C15.5205 32.0773 14.0403 31.9676 12.8696 31.2041C11.7643 30.4804 11.0816 29.1857 11.0418 27.8751Z"
        fill="url(#paint0_linear_2363_410)" />
    <path
        d="M11.0418 27.8751C11.0322 27.549 11.0625 27.2229 11.1359 26.9048C11.5027 25.3031 12.9318 24.0021 14.5635 23.7762C15.5013 23.6458 16.4504 23.8414 17.3978 23.8748C20.2369 23.9718 23.0456 22.5085 24.7235 20.2229C26.4015 17.9372 26.9565 14.9072 26.3648 12.1365C25.9214 10.0608 24.8607 8.14097 23.4077 6.58381C22.5863 5.70423 22.0519 4.5813 21.9228 3.38678C21.8223 2.46108 21.4873 1.56082 20.9434 0.803711C25.4365 2.25589 29.2023 5.79649 30.9217 10.1833C31.8308 12.5039 32.1578 15.0392 31.9217 17.5173C31.6904 19.9477 30.9169 22.3876 29.5978 24.4522C28.3777 26.364 26.7364 28.0007 24.8464 29.2541C22.9547 30.509 20.8095 31.3854 18.5717 31.7815C18.023 31.8785 17.4696 31.9453 16.9145 31.9835C15.5205 32.0773 14.0403 31.9676 12.8696 31.2041C11.7643 30.4804 11.0816 29.1857 11.0418 27.8751Z"
        fill="url(#paint1_linear_2363_410)" />
    <path
        d="M20.9496 4.14849C20.9592 4.47456 20.9289 4.80062 20.8555 5.11874C20.4887 6.72043 19.0596 8.02151 17.4279 8.24737C16.49 8.3778 15.541 8.18216 14.5936 8.14876C11.7545 8.05173 8.94576 9.51505 7.26783 11.8007C5.5899 14.0879 5.03485 17.1163 5.62659 19.8871C6.07 21.9628 7.13066 23.8826 8.58369 25.4398C9.40511 26.3193 9.93943 27.4423 10.0686 28.6368C10.1691 29.5625 10.5041 30.4628 11.0479 31.2199C6.55487 29.7677 2.78911 26.2271 1.06971 21.8403C0.160572 19.5197 -0.1664 16.9843 0.0696579 14.5062C0.300931 12.0759 1.0745 9.63593 2.39355 7.57138C3.61372 5.65953 5.25496 4.02284 7.14502 2.76948C9.03667 1.51452 11.1819 0.638124 13.4197 0.242074C13.9684 0.14505 14.5218 0.0782466 15.0769 0.0400731C16.4709 -0.05377 17.951 0.0559778 19.1218 0.819447C20.2271 1.54315 20.9097 2.83946 20.9496 4.14849Z"
        fill="url(#paint2_linear_2363_410)" />
    <defs>
        <linearGradient id="paint0_linear_2363_410" x1="35.0142" y1="3.17333" x2="9.09725"
            y2="29.1623" gradientUnits="userSpaceOnUse">
            <stop stop-color="white" />
            <stop offset="0.301" stop-color="#B6B6B6" />
            <stop offset="1" />
        </linearGradient>
        <linearGradient id="paint1_linear_2363_410" x1="35.0142" y1="3.17333" x2="9.09725"
            y2="29.1623" gradientUnits="userSpaceOnUse">
            <stop stop-color="white" />
            <stop offset="0.301" stop-color="#B6B6B6" />
            <stop offset="1" />
        </linearGradient>
        <linearGradient id="paint2_linear_2363_410" x1="-3.02254" y1="28.8507" x2="22.8943"
            y2="2.86179" gradientUnits="userSpaceOnUse">
            <stop stop-color="white" />
            <stop offset="0.301" stop-color="#B6B6B6" />
            <stop offset="1" />
        </linearGradient>
    </defs>
</svg>