<svg width="32" height="32" viewBox="0 0 32 32" fill="none" xmlns="http://www.w3.org/2000/svg">
    <g clip-path="url(#clip0_2876_250)">
        <path opacity="0.986" fill-rule="evenodd" clip-rule="evenodd"
            d="M13.8134 -0.0532227C15.2356 -0.0532227 16.6579 -0.0532227 18.0801 -0.0532227C25.7956 1.47566 30.4179 6.09789 31.9468 13.8134C31.9468 15.2356 31.9468 16.6579 31.9468 18.0801C30.418 25.7955 25.7958 30.4177 18.0801 31.9468C16.6579 31.9468 15.2356 31.9468 13.8134 31.9468C6.09776 30.4177 1.47553 25.7955 -0.0532227 18.0801C-0.0532227 16.6579 -0.0532227 15.2356 -0.0532227 13.8134C1.47566 6.09789 6.09789 1.47566 13.8134 -0.0532227Z"
            fill="#171F2B" />
        <path fill-rule="evenodd" clip-rule="evenodd"
            d="M15.3066 1.22656C15.5911 1.29768 15.5911 1.36878 15.3066 1.4399C15.3066 1.36878 15.3066 1.29768 15.3066 1.22656Z"
            fill="#FAFAFA" />
        <path fill-rule="evenodd" clip-rule="evenodd"
            d="M16.0534 1.22656C16.0534 1.29768 16.0534 1.36878 16.0534 1.4399C15.769 1.36878 15.769 1.29768 16.0534 1.22656Z"
            fill="#FCFCFD" />
        <path fill-rule="evenodd" clip-rule="evenodd"
            d="M16.2666 1.22667C16.3919 1.20331 16.4986 1.23887 16.5866 1.33334C16.4211 1.47178 16.3144 1.43623 16.2666 1.22667Z"
            fill="#E7E8E9" />
        <path fill-rule="evenodd" clip-rule="evenodd"
            d="M13.6001 1.43976C13.4579 1.43976 13.3868 1.51087 13.3868 1.65309C13.2903 1.57746 13.2548 1.4708 13.2801 1.33309C13.4178 1.30778 13.5245 1.34333 13.6001 1.43976Z"
            fill="#7E8389" />
        <path fill-rule="evenodd" clip-rule="evenodd"
            d="M15.3066 1.22687C15.3823 1.13044 15.4889 1.09489 15.6266 1.1202C15.6266 1.26242 15.6266 1.40465 15.6266 1.54687C15.4889 1.57218 15.3823 1.53663 15.3066 1.4402C15.5911 1.36908 15.5911 1.29798 15.3066 1.22687Z"
            fill="#858990" />
        <path fill-rule="evenodd" clip-rule="evenodd"
            d="M16.0534 1.22687C15.7689 1.29798 15.7689 1.36908 16.0534 1.4402C15.9778 1.53663 15.8711 1.57218 15.7334 1.54687C15.7334 1.40465 15.7334 1.26242 15.7334 1.1202C15.8711 1.09489 15.9778 1.13044 16.0534 1.22687Z"
            fill="#787D84" />
        <path fill-rule="evenodd" clip-rule="evenodd"
            d="M17.0134 1.22656C17.0134 1.36878 16.9422 1.4399 16.8 1.4399C16.8 1.29768 16.8712 1.22656 17.0134 1.22656Z"
            fill="#FBFBFB" />
        <path fill-rule="evenodd" clip-rule="evenodd"
            d="M17.2266 1.22656C17.3332 1.22656 17.4399 1.22656 17.5466 1.22656C17.5466 1.33323 17.5466 1.4399 17.5466 1.54656C17.4399 1.54656 17.3332 1.54656 17.2266 1.54656C17.2266 1.4399 17.2266 1.33323 17.2266 1.22656Z"
            fill="#D2D3D6" />
        <path fill-rule="evenodd" clip-rule="evenodd"
            d="M13.6001 1.43994C13.6001 1.58216 13.5289 1.65327 13.3867 1.65327C13.3867 1.51106 13.4579 1.43994 13.6001 1.43994Z"
            fill="#FBFBFB" />
        <path fill-rule="evenodd" clip-rule="evenodd"
            d="M13.8132 1.3335C13.9199 1.3335 14.0266 1.3335 14.1332 1.3335C14.1332 1.44016 14.1332 1.54683 14.1332 1.6535C14.0266 1.6535 13.9199 1.6535 13.8132 1.6535C13.8132 1.54683 13.8132 1.44016 13.8132 1.3335Z"
            fill="#C7C9CC" />
        <path fill-rule="evenodd" clip-rule="evenodd"
            d="M14.3467 1.22656C14.4533 1.22656 14.56 1.22656 14.6667 1.22656C14.6667 1.33323 14.6667 1.4399 14.6667 1.54656C14.56 1.54656 14.4533 1.54656 14.3467 1.54656C14.3467 1.4399 14.3467 1.33323 14.3467 1.22656Z"
            fill="#C6C8CB" />
        <path fill-rule="evenodd" clip-rule="evenodd"
            d="M14.7734 1.22656C14.8801 1.22656 14.9868 1.22656 15.0934 1.22656C15.0934 1.33323 15.0934 1.4399 15.0934 1.54656C14.9868 1.54656 14.8801 1.54656 14.7734 1.54656C14.7734 1.4399 14.7734 1.33323 14.7734 1.22656Z"
            fill="#B5B7BB" />
        <path fill-rule="evenodd" clip-rule="evenodd"
            d="M17.0134 1.22656C17.1098 1.30219 17.1453 1.40886 17.12 1.54656C16.9823 1.57187 16.8757 1.53632 16.8 1.4399C16.9422 1.4399 17.0134 1.36878 17.0134 1.22656Z"
            fill="#8C8F95" />
        <path fill-rule="evenodd" clip-rule="evenodd"
            d="M17.9733 1.3335C17.9733 1.47571 17.9022 1.54683 17.76 1.54683C17.76 1.40461 17.8312 1.3335 17.9733 1.3335Z"
            fill="#F8F8F8" />
        <path fill-rule="evenodd" clip-rule="evenodd"
            d="M17.9733 1.3335C18.0698 1.40912 18.1053 1.51579 18.08 1.6535C17.9423 1.67881 17.8356 1.64326 17.76 1.54683C17.9022 1.54683 17.9733 1.47571 17.9733 1.3335Z"
            fill="#888C92" />
        <path fill-rule="evenodd" clip-rule="evenodd"
            d="M18.7199 1.54669C18.7199 1.6178 18.7199 1.68891 18.7199 1.76002C18.6488 1.72447 18.5777 1.68891 18.5066 1.65335C18.4354 1.36891 18.3644 1.36891 18.2933 1.65335C18.1968 1.57773 18.1613 1.47106 18.1866 1.33335C18.4057 1.31899 18.5835 1.3901 18.7199 1.54669Z"
            fill="#595F68" />
        <path fill-rule="evenodd" clip-rule="evenodd"
            d="M18.5065 1.65328C18.4354 1.65328 18.3644 1.65328 18.2932 1.65328C18.3644 1.36883 18.4354 1.36883 18.5065 1.65328Z"
            fill="#F7F7F8" />
        <path fill-rule="evenodd" clip-rule="evenodd"
            d="M12.4266 1.54688C12.6362 1.59469 12.6717 1.70136 12.5333 1.86687C12.4388 1.77887 12.4033 1.67221 12.4266 1.54688Z"
            fill="#E6E7E8" />
        <path fill-rule="evenodd" clip-rule="evenodd"
            d="M12.8533 1.43994C12.9599 1.43994 13.0666 1.43994 13.1733 1.43994C13.1733 1.54661 13.1733 1.65327 13.1733 1.75994C13.0666 1.75994 12.9599 1.75994 12.8533 1.75994C12.8533 1.65327 12.8533 1.54661 12.8533 1.43994Z"
            fill="#C3C5C8" />
        <path fill-rule="evenodd" clip-rule="evenodd"
            d="M18.72 1.76002C18.72 1.68891 18.72 1.61781 18.72 1.54669C18.7956 1.45026 18.9023 1.41471 19.04 1.44002C19.04 1.54669 19.04 1.65336 19.04 1.76002C18.9333 1.76002 18.8266 1.76002 18.72 1.76002Z"
            fill="#D3D4D7" />
        <path fill-rule="evenodd" clip-rule="evenodd"
            d="M11.8934 1.76003C11.8934 1.79558 11.8934 1.83115 11.8934 1.8667C11.797 1.94233 11.7615 2.04899 11.7868 2.1867C11.5956 2.17241 11.4179 2.20796 11.2534 2.29337C11.2534 2.22225 11.2534 2.15115 11.2534 2.08003C11.3246 2.00892 11.3956 1.93781 11.4668 1.8667C11.5807 1.76702 11.7229 1.73147 11.8934 1.76003Z"
            fill="#565C65" />
        <path fill-rule="evenodd" clip-rule="evenodd"
            d="M19.1467 1.54688C19.2534 1.54688 19.3601 1.54688 19.4667 1.54688C19.4667 1.65354 19.4667 1.76021 19.4667 1.86687C19.3601 1.86687 19.2534 1.86687 19.1467 1.86687C19.1467 1.76021 19.1467 1.65354 19.1467 1.54688Z"
            fill="#C9CBCE" />
        <path fill-rule="evenodd" clip-rule="evenodd"
            d="M19.6799 1.65332C19.7866 1.65332 19.8933 1.65332 19.9999 1.65332C19.9999 1.75999 19.9999 1.86665 19.9999 1.97332C19.8933 1.97332 19.7866 1.97332 19.6799 1.97332C19.6799 1.86665 19.6799 1.75999 19.6799 1.65332Z"
            fill="#D2D3D6" />
        <path fill-rule="evenodd" clip-rule="evenodd"
            d="M11.4666 1.8667C11.6625 1.88158 11.698 1.95268 11.5732 2.08003C11.4881 2.0313 11.4526 1.96018 11.4666 1.8667Z"
            fill="#FBFBFC" />
        <path fill-rule="evenodd" clip-rule="evenodd"
            d="M11.8933 1.86674C11.8933 1.83118 11.8933 1.79562 11.8933 1.76007C11.9689 1.66364 12.0756 1.62809 12.2133 1.6534C12.2133 1.76007 12.2133 1.86674 12.2133 1.9734C12.0756 1.99871 11.9689 1.96316 11.8933 1.86674Z"
            fill="#C3C5C8" />
        <path fill-rule="evenodd" clip-rule="evenodd"
            d="M20.1067 1.86681C20.232 1.84345 20.3387 1.879 20.4267 1.97348C20.2611 2.11192 20.1545 2.07637 20.1067 1.86681Z"
            fill="#E0E1E3" />
        <path fill-rule="evenodd" clip-rule="evenodd"
            d="M11.2533 2.07989C11.2533 2.15101 11.2533 2.22211 11.2533 2.29323C11.1467 2.29323 11.04 2.29323 10.9333 2.29323C10.9333 2.18656 10.9333 2.07989 10.9333 1.97323C11.0711 1.94791 11.1777 1.98347 11.2533 2.07989Z"
            fill="#D2D3D6" />
        <path fill-rule="evenodd" clip-rule="evenodd"
            d="M20.64 1.97314C20.8496 2.02096 20.8851 2.12763 20.7467 2.29314C20.6522 2.20514 20.6166 2.09848 20.64 1.97314Z"
            fill="#E8E9EA" />
        <path fill-rule="evenodd" clip-rule="evenodd"
            d="M10.5067 2.18652C10.8754 2.20436 10.911 2.31102 10.6134 2.50652C10.5189 2.41852 10.4833 2.31186 10.5067 2.18652Z"
            fill="#D2D4D6" />
        <path fill-rule="evenodd" clip-rule="evenodd"
            d="M21.0667 2.18663C21.192 2.16327 21.2987 2.19883 21.3867 2.2933C21.2211 2.43174 21.1144 2.39619 21.0667 2.18663Z"
            fill="#DFE0E2" />
        <path fill-rule="evenodd" clip-rule="evenodd"
            d="M10.0801 2.29346C10.4865 2.42724 10.4865 2.53391 10.0801 2.61346C10.0801 2.50679 10.0801 2.40012 10.0801 2.29346Z"
            fill="#CECFD2" />
        <path fill-rule="evenodd" clip-rule="evenodd"
            d="M21.6 2.29346C21.8267 2.386 21.8444 2.49267 21.6534 2.61346C21.4738 2.5413 21.456 2.43463 21.6 2.29346Z"
            fill="#DBDDDE" />
        <path fill-rule="evenodd" clip-rule="evenodd"
            d="M9.65322 2.50684C9.86278 2.55465 9.89833 2.66132 9.75989 2.82684C9.5445 2.75933 9.50894 2.65266 9.65322 2.50684Z"
            fill="#DADBDD" />
        <path fill-rule="evenodd" clip-rule="evenodd"
            d="M22.0266 2.50684C22.1917 2.5411 22.2629 2.64776 22.2399 2.82684C21.9468 2.83732 21.8758 2.73065 22.0266 2.50684Z"
            fill="#CED0D2" />
        <path fill-rule="evenodd" clip-rule="evenodd"
            d="M9.22655 2.72021C9.39168 2.75448 9.4628 2.86114 9.43989 3.04021C9.14681 3.0507 9.0757 2.94403 9.22655 2.72021Z"
            fill="#D0D2D4" />
        <path fill-rule="evenodd" clip-rule="evenodd"
            d="M22.4534 2.72021C22.6185 2.75448 22.6896 2.86114 22.6667 3.04021C22.3736 3.0507 22.3025 2.94403 22.4534 2.72021Z"
            fill="#CDCED1" />
        <path fill-rule="evenodd" clip-rule="evenodd"
            d="M23.2001 3.25353C23.0156 3.41094 22.8734 3.37538 22.7734 3.14686C22.9828 2.85951 23.1251 2.89506 23.2001 3.25353Z"
            fill="#AFB2B6" />
        <path fill-rule="evenodd" clip-rule="evenodd"
            d="M8.69334 3.04004C9.01841 3.0394 9.07175 3.14607 8.85334 3.36004C8.74255 3.2807 8.68922 3.17404 8.69334 3.04004Z"
            fill="#DADBDD" />
        <path fill-rule="evenodd" clip-rule="evenodd"
            d="M8.26658 3.25342C8.59166 3.25278 8.64499 3.35945 8.42658 3.57342C8.31579 3.49408 8.26246 3.38742 8.26658 3.25342Z"
            fill="#E2E3E4" />
        <path fill-rule="evenodd" clip-rule="evenodd"
            d="M23.2 3.25337C23.3576 3.22542 23.4998 3.26097 23.6266 3.36003C23.4172 3.64738 23.2749 3.61183 23.2 3.25337Z"
            fill="#C0C2C6" />
        <path fill-rule="evenodd" clip-rule="evenodd"
            d="M7.94677 3.4668C8.1119 3.50106 8.18301 3.60772 8.1601 3.7868C7.86702 3.79728 7.79591 3.69062 7.94677 3.4668Z"
            fill="#D0D2D4" />
        <path fill-rule="evenodd" clip-rule="evenodd"
            d="M23.7333 3.4668C24.0719 3.51503 24.1074 3.6217 23.84 3.7868C23.6246 3.71929 23.589 3.61262 23.7333 3.4668Z"
            fill="#D1D2D5" />
        <path fill-rule="evenodd" clip-rule="evenodd"
            d="M7.41331 3.78662C7.73838 3.78598 7.79172 3.89265 7.57331 4.10662C7.46252 4.02729 7.40919 3.92062 7.41331 3.78662Z"
            fill="#DADBDD" />
        <path fill-rule="evenodd" clip-rule="evenodd"
            d="M24.0532 3.78673C24.1786 3.76337 24.2852 3.79892 24.3732 3.8934C24.2077 4.03184 24.101 3.99629 24.0532 3.78673Z"
            fill="#E0E0E2" />
        <path fill-rule="evenodd" clip-rule="evenodd"
            d="M16.5866 6.13355C16.4088 6.13355 16.2311 6.13355 16.0533 6.13355C16.0533 5.56466 16.0533 4.99577 16.0533 4.42688C15.7688 4.42688 15.4844 4.42688 15.2 4.42688C15.2 4.28466 15.2 4.14243 15.2 4.00021C15.9497 3.98708 16.6964 4.02265 17.44 4.10688C17.44 4.2491 17.44 4.39133 17.44 4.53355C17.1555 4.53355 16.8711 4.53355 16.5866 4.53355C16.5866 5.06688 16.5866 5.60021 16.5866 6.13355Z"
            fill="#F3F3F4" />
        <path fill-rule="evenodd" clip-rule="evenodd"
            d="M18.1867 4.21334C18.0445 4.21334 17.9022 4.21334 17.76 4.21334C17.7886 4.3839 17.7529 4.52613 17.6533 4.64C17.6533 4.46222 17.6533 4.28445 17.6533 4.10667C17.8576 4.07632 18.0353 4.11189 18.1867 4.21334Z"
            fill="#525861" />
        <path fill-rule="evenodd" clip-rule="evenodd"
            d="M24.5866 4C24.8133 4.09254 24.831 4.19921 24.6399 4.32C24.4604 4.24784 24.4426 4.14117 24.5866 4Z"
            fill="#DDDEE0" />
        <path fill-rule="evenodd" clip-rule="evenodd"
            d="M7.09326 4.10656C7.2186 4.0832 7.32526 4.11875 7.41326 4.21322C7.24775 4.35167 7.14108 4.31611 7.09326 4.10656Z"
            fill="#DFE0E2" />
        <path fill-rule="evenodd" clip-rule="evenodd"
            d="M13.92 6.1333C13.8078 6.32061 13.63 6.39172 13.3867 6.34663C13.2936 5.73961 13.187 5.13516 13.0667 4.5333C13.1307 4.38398 13.2373 4.27731 13.3867 4.2133C13.9759 4.01805 14.5269 4.08916 15.04 4.42663C15.1648 5.26625 14.7915 5.65737 13.92 5.59997C13.92 5.77775 13.92 5.95552 13.92 6.1333Z"
            fill="#EFF0F1" />
        <path fill-rule="evenodd" clip-rule="evenodd"
            d="M18.1866 4.21351C18.293 4.21032 18.3641 4.26366 18.3999 4.37351C18.2297 5.02152 18.123 5.6793 18.0799 6.34685C17.8555 6.37873 17.6422 6.34318 17.4399 6.24018C17.5421 5.71222 17.6132 5.17889 17.6533 4.64018C17.7529 4.5263 17.7885 4.38407 17.7599 4.21351C17.9021 4.21351 18.0444 4.21351 18.1866 4.21351Z"
            fill="#EEEEEF" />
        <path fill-rule="evenodd" clip-rule="evenodd"
            d="M6.77326 4.31982C7.02413 4.43103 7.0419 4.57325 6.82659 4.74649C6.63797 4.62042 6.6202 4.4782 6.77326 4.31982Z"
            fill="#D2D4D6" />
        <path fill-rule="evenodd" clip-rule="evenodd"
            d="M13.3867 4.21338C13.2374 4.27739 13.1307 4.38406 13.0667 4.53338C12.9703 4.45775 12.9348 4.35109 12.96 4.21338C13.1022 4.21338 13.2445 4.21338 13.3867 4.21338Z"
            fill="#7D8188" />
        <path fill-rule="evenodd" clip-rule="evenodd"
            d="M19.6799 5.27982C19.647 5.53838 19.6827 5.78727 19.7866 6.02649C19.8513 6.01331 19.8868 5.97775 19.8932 5.91982C20.1693 5.54777 20.4716 5.19222 20.7999 4.85316C21.014 4.97782 21.245 5.04893 21.4932 5.06649C21.2464 5.7031 20.9976 6.3431 20.7466 6.98649C20.5282 7.13624 20.3504 7.10069 20.2132 6.87982C20.8367 5.56522 20.73 5.49411 19.8932 6.66649C19.7284 6.76803 19.5506 6.80358 19.3599 6.77316C19.3807 6.3022 19.3274 5.83997 19.1999 5.38649C19.0602 5.76733 18.9713 6.15844 18.9332 6.55982C18.6721 6.61208 18.4943 6.52319 18.3999 6.29316C18.5825 5.64692 18.6892 4.98914 18.7199 4.31982C19.0043 4.36601 19.2886 4.41934 19.5732 4.47982C19.673 4.73375 19.7085 5.00042 19.6799 5.27982Z"
            fill="#ECEDEE" />
        <path fill-rule="evenodd" clip-rule="evenodd"
            d="M24.9066 4.31982C25.2452 4.36806 25.2807 4.47473 25.0133 4.63982C24.9188 4.55182 24.8832 4.44516 24.9066 4.31982Z"
            fill="#E1E2E3" />
        <path fill-rule="evenodd" clip-rule="evenodd"
            d="M11.2534 4.63985C11.8442 4.54795 12.3598 4.69017 12.8001 5.06652C13.1256 6.37709 12.61 6.96375 11.2534 6.82652C10.6864 6.45616 10.4908 5.94061 10.6667 5.27985C10.8118 5.01077 11.0073 4.79744 11.2534 4.63985Z"
            fill="#F0F0F1" />
        <path fill-rule="evenodd" clip-rule="evenodd"
            d="M13.7068 4.64014C13.9556 4.64014 14.2046 4.64014 14.4535 4.64014C14.4763 4.81549 14.4407 4.97549 14.3468 5.12014C14.1363 5.17299 13.923 5.19076 13.7068 5.17347C13.7068 4.99569 13.7068 4.81792 13.7068 4.64014Z"
            fill="#252C37" />
        <path fill-rule="evenodd" clip-rule="evenodd"
            d="M6.34667 4.64014C6.5118 4.6744 6.58292 4.78106 6.56 4.96014C6.26693 4.97062 6.19581 4.86396 6.34667 4.64014Z"
            fill="#CCCED1" />
        <path fill-rule="evenodd" clip-rule="evenodd"
            d="M25.3334 4.64014C25.543 4.68796 25.5785 4.79462 25.4401 4.96014C25.2247 4.89263 25.1891 4.78596 25.3334 4.64014Z"
            fill="#DBDCDE" />
        <path fill-rule="evenodd" clip-rule="evenodd"
            d="M6.02659 5.3868C5.96154 5.29176 5.92599 5.18509 5.91992 5.0668C6.06575 4.92252 6.17241 4.95807 6.23992 5.17346C6.202 5.28251 6.13089 5.35362 6.02659 5.3868Z"
            fill="#D2D3D6" />
        <path fill-rule="evenodd" clip-rule="evenodd"
            d="M15.2 4.42676C15.4844 4.42676 15.7688 4.42676 16.0533 4.42676C16.0533 4.99564 16.0533 5.56454 16.0533 6.13342C16.2311 6.13342 16.4088 6.13342 16.5866 6.13342C16.3984 6.23597 16.185 6.27153 15.9466 6.24009C15.9466 5.67121 15.9466 5.10231 15.9466 4.53342C15.6737 4.5656 15.4247 4.53003 15.2 4.42676Z"
            fill="#7B7F86" />
        <path fill-rule="evenodd" clip-rule="evenodd"
            d="M25.6534 4.95996C25.992 5.0082 26.0275 5.11486 25.7601 5.27996C25.6656 5.19196 25.6301 5.08529 25.6534 4.95996Z"
            fill="#E1E2E3" />
        <path fill-rule="evenodd" clip-rule="evenodd"
            d="M11.4666 5.0669C12.1935 5.06583 12.4601 5.42138 12.2666 6.13356C11.8208 6.59141 11.4653 6.52029 11.2 5.92023C11.0952 5.57093 11.1841 5.28648 11.4666 5.0669Z"
            fill="#222A35" />
        <path fill-rule="evenodd" clip-rule="evenodd"
            d="M5.9201 5.06689C5.92617 5.18519 5.96172 5.29185 6.02676 5.38689C5.95565 5.45801 5.88455 5.52911 5.81343 5.60023C5.81343 5.45801 5.74232 5.38689 5.6001 5.38689C5.70676 5.28023 5.81343 5.17356 5.9201 5.06689Z"
            fill="#525861" />
        <path fill-rule="evenodd" clip-rule="evenodd"
            d="M5.6001 5.38672C5.74232 5.38672 5.81343 5.45783 5.81343 5.60005C5.67121 5.60005 5.6001 5.52894 5.6001 5.38672Z"
            fill="#FAFAFB" />
        <path fill-rule="evenodd" clip-rule="evenodd"
            d="M26.08 5.27979C26.3067 5.37233 26.3244 5.479 26.1333 5.59979C25.9538 5.52763 25.936 5.42096 26.08 5.27979Z"
            fill="#DBDDDE" />
        <path fill-rule="evenodd" clip-rule="evenodd"
            d="M5.60003 5.38672C5.60003 5.52894 5.67114 5.60005 5.81336 5.60005C5.7067 5.70672 5.60003 5.81339 5.49336 5.92005C5.49336 5.77783 5.42225 5.70672 5.28003 5.70672C5.3867 5.60005 5.49336 5.49339 5.60003 5.38672Z"
            fill="#5A6068" />
        <path fill-rule="evenodd" clip-rule="evenodd"
            d="M5.28011 5.70654C5.42233 5.70654 5.49344 5.77766 5.49344 5.91988C5.45114 6.02921 5.38004 6.04699 5.28011 5.97321C5.14426 5.86897 5.14426 5.78008 5.28011 5.70654Z"
            fill="#D4D5D7" />
        <path fill-rule="evenodd" clip-rule="evenodd"
            d="M19.68 5.27979C19.7512 5.49312 19.8222 5.70645 19.8934 5.91979C19.887 5.97772 19.8515 6.01327 19.7867 6.02645C19.6828 5.78723 19.6472 5.53835 19.68 5.27979Z"
            fill="#80858B" />
        <path fill-rule="evenodd" clip-rule="evenodd"
            d="M26.6132 5.70665C26.6132 5.84887 26.5421 5.91999 26.3999 5.91999C26.342 5.91359 26.3064 5.87804 26.2932 5.81332C26.3812 5.71885 26.4879 5.68329 26.6132 5.70665Z"
            fill="#DDDDDF" />
        <path fill-rule="evenodd" clip-rule="evenodd"
            d="M26.6132 5.70654C26.7199 5.81321 26.8266 5.91988 26.9332 6.02654C26.8149 6.03261 26.7083 6.06816 26.6132 6.13321C26.5421 6.06209 26.471 5.99099 26.3999 5.91988C26.5421 5.91988 26.6132 5.84876 26.6132 5.70654Z"
            fill="#51565F" />
        <path fill-rule="evenodd" clip-rule="evenodd"
            d="M4.95995 6.02686C5.12508 6.06112 5.1962 6.16778 5.17329 6.34686C4.88021 6.35734 4.80909 6.25067 4.95995 6.02686Z"
            fill="#CFD1D3" />
        <path fill-rule="evenodd" clip-rule="evenodd"
            d="M26.9333 6.02686C27.0776 6.17268 27.042 6.27935 26.8266 6.34686C26.7176 6.30894 26.6465 6.23782 26.6133 6.13352C26.7083 6.06848 26.815 6.03292 26.9333 6.02686Z"
            fill="#CFD1D3" />
        <path fill-rule="evenodd" clip-rule="evenodd"
            d="M13.9201 6.1333C14.0165 6.20893 14.052 6.31559 14.0267 6.4533C13.7883 6.48474 13.575 6.44918 13.3867 6.34663C13.63 6.39172 13.8078 6.32061 13.9201 6.1333Z"
            fill="#4F555E" />
        <path fill-rule="evenodd" clip-rule="evenodd"
            d="M27.2532 6.45335C27.2532 6.59557 27.1821 6.66668 27.0399 6.66668C27.0165 6.54135 27.0521 6.43468 27.1466 6.34668C27.2113 6.35986 27.2468 6.39542 27.2532 6.45335Z"
            fill="#E2E2E4" />
        <path fill-rule="evenodd" clip-rule="evenodd"
            d="M4.53345 6.45312C4.64011 6.45312 4.74678 6.45312 4.85345 6.45312C4.7739 6.85952 4.66723 6.85952 4.53345 6.45312Z"
            fill="#CFD0D3" />
        <path fill-rule="evenodd" clip-rule="evenodd"
            d="M27.2534 6.45312C27.36 6.55979 27.4667 6.66646 27.5734 6.77313C27.4551 6.77919 27.3484 6.81475 27.2534 6.87979C27.1822 6.80868 27.1112 6.73757 27.04 6.66646C27.1822 6.66646 27.2534 6.59534 27.2534 6.45312Z"
            fill="#50565F" />
        <path fill-rule="evenodd" clip-rule="evenodd"
            d="M4.32006 6.77344C4.48519 6.8077 4.55631 6.91437 4.53339 7.09344C4.24032 7.10392 4.1692 6.99726 4.32006 6.77344Z"
            fill="#CDCED1" />
        <path fill-rule="evenodd" clip-rule="evenodd"
            d="M9.33322 6.77357C9.43959 6.77038 9.51071 6.82372 9.54656 6.93357C9.38965 7.56782 9.06965 8.10116 8.58656 8.53357C8.4239 8.64116 8.24612 8.69449 8.05322 8.69357C8.10701 7.80347 8.53368 7.16347 9.33322 6.77357Z"
            fill="#EEEEEF" />
        <path fill-rule="evenodd" clip-rule="evenodd"
            d="M27.5734 6.77344C27.7177 6.91926 27.6821 7.02593 27.4668 7.09344C27.3577 7.05552 27.2866 6.9844 27.2534 6.8801C27.3485 6.81506 27.4551 6.77951 27.5734 6.77344Z"
            fill="#D0D2D4" />
        <path fill-rule="evenodd" clip-rule="evenodd"
            d="M22.3467 6.98683C22.7927 6.9333 23.166 7.11108 23.4667 7.52017C23.7812 7.88819 23.9057 8.31485 23.84 8.80017C23.4711 8.70033 23.1688 8.48699 22.9333 8.16017C22.7907 7.73278 22.5952 7.34168 22.3467 6.98683Z"
            fill="#ECECED" />
        <path fill-rule="evenodd" clip-rule="evenodd"
            d="M4.00011 7.2002C4.33868 7.24843 4.37424 7.3551 4.10678 7.5202C4.0123 7.4322 3.97675 7.32553 4.00011 7.2002Z"
            fill="#DEDFE0" />
        <path fill-rule="evenodd" clip-rule="evenodd"
            d="M27.5732 7.2002C27.8983 7.19956 27.9517 7.30622 27.7332 7.5202C27.6224 7.44086 27.5691 7.33419 27.5732 7.2002Z"
            fill="#DADBDD" />
        <path fill-rule="evenodd" clip-rule="evenodd"
            d="M7.30671 7.52002C7.41338 7.52002 7.52005 7.52002 7.62671 7.52002C7.60938 8.05837 7.64493 8.5917 7.73338 9.12002C8.0715 9.05777 8.40927 8.98665 8.74671 8.90669C9.04801 8.95711 9.08357 9.09933 8.85338 9.33335C8.33681 9.83154 7.7146 10.0449 6.98671 9.97335C6.93638 9.13274 7.04304 8.31497 7.30671 7.52002Z"
            fill="#EDEEEF" />
        <path fill-rule="evenodd" clip-rule="evenodd"
            d="M27.9999 7.52002C28.2266 7.61256 28.2443 7.71923 28.0533 7.84002C27.8737 7.76786 27.8559 7.66119 27.9999 7.52002Z"
            fill="#DCDDDF" />
        <path fill-rule="evenodd" clip-rule="evenodd"
            d="M3.67991 7.62647C4.00499 7.62583 4.05832 7.73249 3.83991 7.94647C3.72912 7.86713 3.67579 7.76046 3.67991 7.62647Z"
            fill="#DCDDDE" />
        <path fill-rule="evenodd" clip-rule="evenodd"
            d="M24.3732 7.73334C24.4795 7.72419 24.5683 7.75975 24.6399 7.84001C24.8859 8.6348 24.9747 9.45258 24.9065 10.2933C24.0802 10.289 23.4046 9.96901 22.8799 9.33334C23.3257 9.32324 23.7701 9.28769 24.2132 9.22667C24.2596 8.72705 24.3129 8.22926 24.3732 7.73334Z"
            fill="#EDEDEE" />
        <path fill-rule="evenodd" clip-rule="evenodd"
            d="M3.36011 8.05322C3.46677 8.05322 3.57344 8.05322 3.68011 8.05322C3.60056 8.45962 3.49389 8.45962 3.36011 8.05322Z"
            fill="#CCCDD0" />
        <path fill-rule="evenodd" clip-rule="evenodd"
            d="M28.2133 7.94678C28.4229 7.9946 28.4584 8.10126 28.32 8.26678C28.1046 8.19927 28.069 8.0926 28.2133 7.94678Z"
            fill="#DDDEDF" />
        <path fill-rule="evenodd" clip-rule="evenodd"
            d="M3.25335 8.37354C3.47998 8.46608 3.49776 8.57275 3.30669 8.69354C3.12713 8.62138 3.10936 8.51471 3.25335 8.37354Z"
            fill="#DDDEE0" />
        <path fill-rule="evenodd" clip-rule="evenodd"
            d="M16.1599 8.69354C16.0888 8.40909 16.0177 8.40909 15.9466 8.69354C15.8502 8.61791 15.8146 8.51124 15.8399 8.37354C15.9821 8.37354 16.1244 8.37354 16.2666 8.37354C16.2919 8.51124 16.2563 8.61791 16.1599 8.69354Z"
            fill="#767A82" />
        <path fill-rule="evenodd" clip-rule="evenodd"
            d="M28.4268 8.37354C28.8332 8.50732 28.8332 8.61398 28.4268 8.69354C28.4268 8.58687 28.4268 8.4802 28.4268 8.37354Z"
            fill="#DADBDD" />
        <path fill-rule="evenodd" clip-rule="evenodd"
            d="M15.4133 8.37354C15.52 8.37354 15.6267 8.37354 15.7333 8.37354C15.7333 8.4802 15.7333 8.58687 15.7333 8.69354C15.6267 8.69354 15.52 8.69354 15.4133 8.69354C15.4133 8.58687 15.4133 8.4802 15.4133 8.37354Z"
            fill="#D0D2D4" />
        <path fill-rule="evenodd" clip-rule="evenodd"
            d="M16.1601 8.69332C16.089 8.69332 16.0179 8.69332 15.9468 8.69332C16.0179 8.40887 16.089 8.40887 16.1601 8.69332Z"
            fill="#F8F8F9" />
        <path fill-rule="evenodd" clip-rule="evenodd"
            d="M16.3733 8.48009C16.4986 8.45673 16.6053 8.49228 16.6933 8.58676C16.5277 8.7252 16.4211 8.68965 16.3733 8.48009Z"
            fill="#E3E4E5" />
        <path fill-rule="evenodd" clip-rule="evenodd"
            d="M14.4534 8.58673C14.529 8.4903 14.6357 8.45475 14.7734 8.48006C14.7986 8.61777 14.7631 8.72444 14.6667 8.80006C14.6667 8.65784 14.5956 8.58673 14.4534 8.58673Z"
            fill="#8F9298" />
        <path fill-rule="evenodd" clip-rule="evenodd"
            d="M14.8799 8.47998C14.9865 8.47998 15.0932 8.47998 15.1999 8.47998C15.1999 8.58665 15.1999 8.69331 15.1999 8.79998C15.0932 8.79998 14.9865 8.79998 14.8799 8.79998C14.8799 8.69331 14.8799 8.58665 14.8799 8.47998Z"
            fill="#B7B9BC" />
        <path fill-rule="evenodd" clip-rule="evenodd"
            d="M16.9067 8.47998C17.0134 8.47998 17.1201 8.47998 17.2267 8.47998C17.2267 8.58665 17.2267 8.69331 17.2267 8.79998C17.1201 8.79998 17.0134 8.79998 16.9067 8.79998C16.9067 8.69331 16.9067 8.58665 16.9067 8.47998Z"
            fill="#CDCED1" />
        <path fill-rule="evenodd" clip-rule="evenodd"
            d="M14.0266 8.58643C14.1917 8.62069 14.2629 8.72735 14.2399 8.90643C13.9468 8.91691 13.8758 8.81024 14.0266 8.58643Z"
            fill="#CBCDD0" />
        <path fill-rule="evenodd" clip-rule="evenodd"
            d="M17.3333 8.58643C17.4399 8.58643 17.5466 8.58643 17.6533 8.58643C17.6533 8.69309 17.6533 8.79976 17.6533 8.90643C17.5466 8.90643 17.4399 8.90643 17.3333 8.90643C17.3333 8.79976 17.3333 8.69309 17.3333 8.58643Z"
            fill="#C0C3C6" />
        <path fill-rule="evenodd" clip-rule="evenodd"
            d="M17.8667 8.69336C17.9734 8.69336 18.08 8.69336 18.1867 8.69336C18.1867 8.80003 18.1867 8.90669 18.1867 9.01336C18.08 9.01336 17.9734 9.01336 17.8667 9.01336C17.8667 8.90669 17.8667 8.80003 17.8667 8.69336Z"
            fill="#CBCDD0" />
        <path fill-rule="evenodd" clip-rule="evenodd"
            d="M28.7466 8.7998C28.9117 8.83407 28.9828 8.94073 28.9599 9.1198C28.6668 9.13029 28.5957 9.02362 28.7466 8.7998Z"
            fill="#D7D9DB" />
        <path fill-rule="evenodd" clip-rule="evenodd"
            d="M3.25335 9.12007C3.14668 9.12007 3.04002 9.12007 2.93335 9.12007C3.04002 8.83563 3.14668 8.83563 3.25335 9.12007Z"
            fill="#DCDDDF" />
        <path fill-rule="evenodd" clip-rule="evenodd"
            d="M13.0666 8.90653C13.2261 8.89745 13.3328 8.96856 13.3866 9.11987C13.2444 9.26209 13.1021 9.26209 12.96 9.11987C12.9987 9.04696 13.0342 8.97586 13.0666 8.90653Z"
            fill="#BDBFC3" />
        <path fill-rule="evenodd" clip-rule="evenodd"
            d="M13.4934 8.7998C13.6001 8.7998 13.7067 8.7998 13.8134 8.7998C13.8134 8.90647 13.8134 9.01314 13.8134 9.1198C13.7067 9.1198 13.6001 9.1198 13.4934 9.1198C13.4934 9.01314 13.4934 8.90647 13.4934 8.7998Z"
            fill="#BABCC0" />
        <path fill-rule="evenodd" clip-rule="evenodd"
            d="M18.2932 8.7998C18.3999 8.7998 18.5065 8.7998 18.6132 8.7998C18.6132 8.90647 18.6132 9.01314 18.6132 9.1198C18.5065 9.1198 18.3999 9.1198 18.2932 9.1198C18.2932 9.01314 18.2932 8.90647 18.2932 8.7998Z"
            fill="#BBBDC1" />
        <path fill-rule="evenodd" clip-rule="evenodd"
            d="M7.5201 10.3999C7.72434 10.3695 7.90211 10.4051 8.05344 10.5065C7.95184 10.7316 7.77405 10.8561 7.5201 10.8799C7.031 11.0105 6.53322 11.0639 6.02677 11.0399C6.01685 10.3612 6.0524 9.6856 6.13344 9.01318C6.2401 9.01318 6.34677 9.01318 6.45344 9.01318C6.50163 9.40389 6.55496 9.79501 6.61344 10.1865C6.87813 10.38 7.18035 10.4511 7.5201 10.3999Z"
            fill="#EDEDEE" />
        <path fill-rule="evenodd" clip-rule="evenodd"
            d="M2.9333 9.12012C3.03997 9.12012 3.14664 9.12012 3.2533 9.12012C3.1297 9.25242 3.02303 9.39463 2.9333 9.54678C2.9333 9.40457 2.86219 9.33345 2.71997 9.33345C2.79109 9.26234 2.86219 9.19123 2.9333 9.12012Z"
            fill="#575C65" />
        <path fill-rule="evenodd" clip-rule="evenodd"
            d="M12.6399 9.12012C12.805 9.15438 12.8761 9.26105 12.8532 9.44012C12.5601 9.4506 12.4891 9.34394 12.6399 9.12012Z"
            fill="#D2D3D5" />
        <path fill-rule="evenodd" clip-rule="evenodd"
            d="M18.8266 9.01318C18.9918 9.04744 19.0629 9.15411 19.04 9.33318C18.7469 9.34367 18.6758 9.237 18.8266 9.01318Z"
            fill="#CBCDCF" />
        <path fill-rule="evenodd" clip-rule="evenodd"
            d="M19.2533 9.22656C19.5918 9.2748 19.6274 9.38146 19.36 9.54656C19.2654 9.45856 19.2299 9.3519 19.2533 9.22656Z"
            fill="#DDDEE0" />
        <path fill-rule="evenodd" clip-rule="evenodd"
            d="M28.9601 9.22656C29.1697 9.27438 29.2052 9.38105 29.0668 9.54656C28.8514 9.47905 28.8158 9.37239 28.9601 9.22656Z"
            fill="#DBDCDE" />
        <path fill-rule="evenodd" clip-rule="evenodd"
            d="M2.72008 9.3335C2.8623 9.3335 2.93342 9.40461 2.93342 9.54683C2.92702 9.60476 2.89146 9.64031 2.82675 9.6535C2.73227 9.5655 2.69672 9.45883 2.72008 9.3335Z"
            fill="#DADBDD" />
        <path fill-rule="evenodd" clip-rule="evenodd"
            d="M12.2134 9.3335C12.4769 9.42526 12.4947 9.56748 12.2668 9.76016C12.0782 9.63409 12.0604 9.49187 12.2134 9.3335Z"
            fill="#C7C9CC" />
        <path fill-rule="evenodd" clip-rule="evenodd"
            d="M24.8001 10.7199C24.9515 10.8214 25.1292 10.8569 25.3334 10.8266C25.3334 10.7199 25.3334 10.6133 25.3334 10.5066C25.3538 10.1254 25.4605 9.76987 25.6534 9.43994C25.792 9.50287 25.8809 9.60954 25.9201 9.75994C25.9945 10.4039 25.9766 11.0439 25.8668 11.6799C25.0815 11.6428 24.4415 11.3228 23.9468 10.7199C24.2181 10.672 24.5025 10.672 24.8001 10.7199Z"
            fill="#EFF0F1" />
        <path fill-rule="evenodd" clip-rule="evenodd"
            d="M19.6799 9.43994C20.0384 9.51495 20.0739 9.65717 19.7865 9.86661C19.6875 9.7398 19.6519 9.59757 19.6799 9.43994Z"
            fill="#BBBDC1" />
        <path fill-rule="evenodd" clip-rule="evenodd"
            d="M11.6799 9.65332C11.7866 9.65332 11.8933 9.65332 11.9999 9.65332C11.9204 10.0597 11.8137 10.0597 11.6799 9.65332Z"
            fill="#DBDDDF" />
        <path fill-rule="evenodd" clip-rule="evenodd"
            d="M2.50657 9.75977C2.83165 9.75913 2.88498 9.8658 2.66657 10.0798C2.55578 10.0004 2.50245 9.89376 2.50657 9.75977Z"
            fill="#DADBDD" />
        <path fill-rule="evenodd" clip-rule="evenodd"
            d="M20.1066 9.75977C20.4452 9.808 20.4807 9.91467 20.2133 10.0798C19.9979 10.0123 19.9623 9.90559 20.1066 9.75977Z"
            fill="#D3D4D6" />
        <path fill-rule="evenodd" clip-rule="evenodd"
            d="M29.1733 9.65332C29.3384 9.68758 29.4096 9.79425 29.3867 9.97332C29.0935 9.98381 29.0225 9.87714 29.1733 9.65332Z"
            fill="#CDCFD1" />
        <path fill-rule="evenodd" clip-rule="evenodd"
            d="M11.2534 9.97314C11.3601 9.97314 11.4668 9.97314 11.5734 9.97314C11.4938 10.3795 11.3872 10.3795 11.2534 9.97314Z"
            fill="#CBCDCF" />
        <path fill-rule="evenodd" clip-rule="evenodd"
            d="M20.4268 10.0801C20.5334 10.0801 20.6401 10.0801 20.7468 10.0801C20.6672 10.4865 20.5605 10.4865 20.4268 10.0801Z"
            fill="#D0D2D4" />
        <path fill-rule="evenodd" clip-rule="evenodd"
            d="M7.52002 10.3998C7.71879 10.2619 7.93213 10.2619 8.16002 10.3998C8.14684 10.4645 8.11128 10.5001 8.05335 10.5065C7.90202 10.405 7.72425 10.3695 7.52002 10.3998Z"
            fill="#84898F" />
        <path fill-rule="evenodd" clip-rule="evenodd"
            d="M11.04 10.6134C10.9749 10.5183 10.9394 10.4117 10.9333 10.2934C11.0792 10.1491 11.1858 10.1846 11.2533 10.4C11.2155 10.5091 11.1443 10.5802 11.04 10.6134Z"
            fill="#D4D5D7" />
        <path fill-rule="evenodd" clip-rule="evenodd"
            d="M29.2799 10.1865C29.6486 10.2044 29.6842 10.311 29.3866 10.5065C29.2921 10.4185 29.2565 10.3119 29.2799 10.1865Z"
            fill="#CCCED1" />
        <path fill-rule="evenodd" clip-rule="evenodd"
            d="M2.29321 10.1865C2.39988 10.1865 2.50655 10.1865 2.61321 10.1865C2.61321 10.2932 2.61321 10.3999 2.61321 10.5065C2.50655 10.5065 2.39988 10.5065 2.29321 10.5065C2.29321 10.3999 2.29321 10.2932 2.29321 10.1865Z"
            fill="#C6C7CA" />
        <path fill-rule="evenodd" clip-rule="evenodd"
            d="M10.9333 10.2935C10.9394 10.4118 10.9749 10.5184 11.0399 10.6135C10.9688 10.6846 10.8978 10.7556 10.8266 10.8268C10.8266 10.6846 10.7555 10.6135 10.6133 10.6135C10.7199 10.5068 10.8266 10.4001 10.9333 10.2935Z"
            fill="#555B63" />
        <path fill-rule="evenodd" clip-rule="evenodd"
            d="M20.8534 10.3999C21.2221 10.4177 21.2577 10.5244 20.9601 10.7199C20.8655 10.6319 20.83 10.5252 20.8534 10.3999Z"
            fill="#D7D8DA" />
        <path fill-rule="evenodd" clip-rule="evenodd"
            d="M2.08008 10.6133C2.18674 10.6133 2.29341 10.6133 2.40008 10.6133C2.40008 10.7199 2.40008 10.8266 2.40008 10.9333C2.29341 10.9333 2.18674 10.9333 2.08008 10.9333C2.08008 10.8266 2.08008 10.7199 2.08008 10.6133Z"
            fill="#CDCED1" />
        <path fill-rule="evenodd" clip-rule="evenodd"
            d="M5.28008 10.6133C5.50151 10.8885 5.64374 11.2085 5.70675 11.5733C6.12971 11.5521 6.55638 11.5521 6.98675 11.5733C6.87025 11.85 6.69247 12.0811 6.45342 12.2666C6.01858 12.4572 5.60968 12.6884 5.22675 12.9599C4.72919 12.1719 4.74697 11.3897 5.28008 10.6133Z"
            fill="#EEEFF0" />
        <path fill-rule="evenodd" clip-rule="evenodd"
            d="M10.6134 10.6133C10.7555 10.6133 10.8267 10.6844 10.8267 10.8266C10.7843 10.9359 10.7133 10.9538 10.6134 10.8799C10.4775 10.7757 10.4775 10.6868 10.6134 10.6133Z"
            fill="#CFD1D3" />
        <path fill-rule="evenodd" clip-rule="evenodd"
            d="M25.3334 10.5068C25.3334 10.6135 25.3334 10.7202 25.3334 10.8268C25.1291 10.8571 24.9514 10.8216 24.8 10.7202C25.0191 10.7346 25.197 10.6634 25.3334 10.5068Z"
            fill="#888C92" />
        <path fill-rule="evenodd" clip-rule="evenodd"
            d="M29.4934 10.6133C29.8998 10.747 29.8998 10.8537 29.4934 10.9333C29.4934 10.8266 29.4934 10.7199 29.4934 10.6133Z"
            fill="#D7D8DA" />
        <path fill-rule="evenodd" clip-rule="evenodd"
            d="M21.1733 10.7202C21.28 10.7202 21.3867 10.7202 21.4933 10.7202C21.4933 10.8269 21.4933 10.9335 21.4933 11.0402C21.3867 11.0402 21.28 11.0402 21.1733 11.0402C21.1733 10.9335 21.1733 10.8269 21.1733 10.7202Z"
            fill="#D6D7D9" />
        <path fill-rule="evenodd" clip-rule="evenodd"
            d="M10.2934 10.9331C10.5029 10.9809 10.5385 11.0876 10.4 11.2531C10.1846 11.1856 10.1491 11.0789 10.2934 10.9331Z"
            fill="#DEDFE0" />
        <path fill-rule="evenodd" clip-rule="evenodd"
            d="M21.5999 11.04C21.8508 11.1513 21.8686 11.2935 21.6532 11.4667C21.4647 11.3406 21.4468 11.1984 21.5999 11.04Z"
            fill="#D6D7D9" />
        <path fill-rule="evenodd" clip-rule="evenodd"
            d="M26.6134 10.9332C26.7198 10.93 26.7909 10.9834 26.8268 11.0932C27.1634 11.9364 27.0923 12.7364 26.6134 13.4932C25.9015 13.2089 25.3682 12.7289 25.0134 12.0532C25.3169 12.0585 25.6191 12.1118 25.9201 12.2132C26.2835 11.8791 26.5145 11.4524 26.6134 10.9332Z"
            fill="#EFF0F1" />
        <path fill-rule="evenodd" clip-rule="evenodd"
            d="M29.7067 11.04C29.9163 11.0878 29.9518 11.1945 29.8134 11.36C29.598 11.2925 29.5624 11.1859 29.7067 11.04Z"
            fill="#DDDEE0" />
        <path fill-rule="evenodd" clip-rule="evenodd"
            d="M1.97341 11.1465C2.16936 11.1613 2.20492 11.2325 2.08008 11.3598C1.99501 11.3111 1.95945 11.2399 1.97341 11.1465Z"
            fill="#FAFAFB" />
        <path fill-rule="evenodd" clip-rule="evenodd"
            d="M9.8667 11.3599C9.97337 11.3599 10.08 11.3599 10.1867 11.3599C10.1071 11.7663 10.0005 11.7663 9.8667 11.3599Z"
            fill="#D0D2D4" />
        <path fill-rule="evenodd" clip-rule="evenodd"
            d="M21.8132 11.4668C22.2196 11.6006 22.2196 11.7072 21.8132 11.7868C21.8132 11.6801 21.8132 11.5735 21.8132 11.4668Z"
            fill="#D8D9DB" />
        <path fill-rule="evenodd" clip-rule="evenodd"
            d="M29.8133 11.5732C30.1821 11.5911 30.2176 11.6977 29.92 11.8932C29.8255 11.8052 29.79 11.6986 29.8133 11.5732Z"
            fill="#CED0D3" />
        <path fill-rule="evenodd" clip-rule="evenodd"
            d="M1.76001 11.5732C1.86668 11.5732 1.97334 11.5732 2.08001 11.5732C2.08001 11.6799 2.08001 11.7866 2.08001 11.8932C1.97334 11.8932 1.86668 11.8932 1.76001 11.8932C1.76001 11.7866 1.76001 11.6799 1.76001 11.5732Z"
            fill="#BFC0C4" />
        <path fill-rule="evenodd" clip-rule="evenodd"
            d="M9.65332 11.6802C10.0597 11.8139 10.0597 11.9206 9.65332 12.0002C9.65332 11.8935 9.65332 11.7868 9.65332 11.6802Z"
            fill="#CCCDD0" />
        <path fill-rule="evenodd" clip-rule="evenodd"
            d="M22.1332 11.8936C22.3428 11.9413 22.3783 12.048 22.2399 12.2136C22.0245 12.146 21.9889 12.0394 22.1332 11.8936Z"
            fill="#DDDEE0" />
        <path fill-rule="evenodd" clip-rule="evenodd"
            d="M29.9199 12C30.0266 12 30.1333 12 30.2399 12C30.2399 12.1067 30.2399 12.2133 30.2399 12.32C30.1333 12.32 30.0266 12.32 29.9199 12.32C29.9199 12.2133 29.9199 12.1067 29.9199 12Z"
            fill="#D6D7D9" />
        <path fill-rule="evenodd" clip-rule="evenodd"
            d="M1.65332 12C1.75999 12 1.86665 12 1.97332 12C1.97332 12.1067 1.97332 12.2133 1.97332 12.32C1.86665 12.32 1.75999 12.32 1.65332 12.32C1.65332 12.2133 1.65332 12.1067 1.65332 12Z"
            fill="#C7C9CC" />
        <path fill-rule="evenodd" clip-rule="evenodd"
            d="M9.44012 12.1064C9.66674 12.199 9.68453 12.3057 9.49345 12.4264C9.3139 12.3543 9.29613 12.2477 9.44012 12.1064Z"
            fill="#DDDEDF" />
        <path fill-rule="evenodd" clip-rule="evenodd"
            d="M22.3467 12.3198C22.7531 12.4536 22.7531 12.5603 22.3467 12.6398C22.3467 12.5332 22.3467 12.4265 22.3467 12.3198Z"
            fill="#D5D7D9" />
        <path fill-rule="evenodd" clip-rule="evenodd"
            d="M9.22674 12.5332C9.45337 12.6258 9.47115 12.7325 9.28007 12.8532C9.10052 12.7811 9.08275 12.6744 9.22674 12.5332Z"
            fill="#DDDEE0" />
        <path fill-rule="evenodd" clip-rule="evenodd"
            d="M30.0266 12.5333C30.1519 12.51 30.2586 12.5455 30.3466 12.64C30.1811 12.7784 30.0744 12.7429 30.0266 12.5333Z"
            fill="#E0E1E2" />
        <path fill-rule="evenodd" clip-rule="evenodd"
            d="M1.54663 12.5332C1.6533 12.5332 1.75996 12.5332 1.86663 12.5332C1.86663 12.6399 1.86663 12.7465 1.86663 12.8532C1.75996 12.8532 1.6533 12.8532 1.54663 12.8532C1.54663 12.7465 1.54663 12.6399 1.54663 12.5332Z"
            fill="#BBBDC1" />
        <path fill-rule="evenodd" clip-rule="evenodd"
            d="M14.24 19.1467C13.4024 19.1814 12.5847 19.1459 11.7866 19.0401C12.5977 18.1039 13.4333 17.1795 14.2933 16.2667C14.4081 16.0996 14.4969 15.9218 14.56 15.7334C14.172 14.8153 13.7275 13.9265 13.2266 13.0667C13.1537 12.9298 13.1715 12.8053 13.28 12.6934C14.0848 12.5733 14.867 12.6443 15.6266 12.9067C15.9968 13.2737 16.2101 13.7181 16.2666 14.2401C17.1532 12.7236 18.4332 12.2613 20.1066 12.8534C19.3264 13.7582 18.5264 14.6471 17.7066 15.5201C17.6355 15.8045 17.6355 16.0889 17.7066 16.3734C18.2138 17.2811 18.6938 18.2055 19.1466 19.1467C18.3312 19.271 17.5133 19.2887 16.6933 19.2001C16.3994 18.6226 16.115 18.0359 15.84 17.4401C15.4091 17.8534 15.0358 18.3156 14.72 18.8267C14.5995 19.0018 14.4395 19.1084 14.24 19.1467Z"
            fill="#2AB271" />
        <path fill-rule="evenodd" clip-rule="evenodd"
            d="M22.5601 12.7466C22.9665 12.8803 22.9665 12.987 22.5601 13.0666C22.5601 12.9599 22.5601 12.8532 22.5601 12.7466Z"
            fill="#D8D9DB" />
        <path fill-rule="evenodd" clip-rule="evenodd"
            d="M4.42677 12.96C4.63685 13.189 4.83241 13.4378 5.01343 13.7066C5.37783 13.4621 5.75116 13.231 6.13343 13.0133C6.2545 12.9334 6.36117 12.9511 6.45343 13.0666C5.96074 13.7729 5.42741 14.4484 4.85343 15.0933C4.61687 14.9414 4.45687 14.7281 4.37343 14.4533C4.29697 13.9498 4.31474 13.4521 4.42677 12.96Z"
            fill="#F0F1F2" />
        <path fill-rule="evenodd" clip-rule="evenodd"
            d="M30.1333 12.96C30.24 12.96 30.3466 12.96 30.4533 12.96C30.4533 13.0666 30.4533 13.1733 30.4533 13.28C30.3466 13.28 30.24 13.28 30.1333 13.28C30.1333 13.1733 30.1333 13.0666 30.1333 12.96Z"
            fill="#D0D1D3" />
        <path fill-rule="evenodd" clip-rule="evenodd"
            d="M1.43994 12.96C1.54661 12.96 1.65327 12.96 1.75994 12.96C1.75994 13.0666 1.75994 13.1733 1.75994 13.28C1.65327 13.28 1.54661 13.28 1.43994 13.28C1.43994 13.1733 1.43994 13.0666 1.43994 12.96Z"
            fill="#BCBEC2" />
        <path fill-rule="evenodd" clip-rule="evenodd"
            d="M8.90674 13.0669C9.0134 13.0669 9.12007 13.0669 9.22674 13.0669C9.14719 13.4733 9.04052 13.4733 8.90674 13.0669Z"
            fill="#D0D2D4" />
        <path fill-rule="evenodd" clip-rule="evenodd"
            d="M22.7732 13.2798C22.9692 13.2946 23.0047 13.3658 22.8799 13.4931C22.7948 13.4444 22.7592 13.3732 22.7732 13.2798Z"
            fill="#FCFCFC" />
        <path fill-rule="evenodd" clip-rule="evenodd"
            d="M27.3601 13.0669C27.4981 13.232 27.5693 13.4453 27.5734 13.7069C27.5412 14.3408 27.3279 14.9097 26.9334 15.4136C26.6151 15.0418 26.2773 14.6863 25.9201 14.3469C25.7159 14.0484 25.6093 13.7284 25.6001 13.3869C25.9474 13.6407 26.3207 13.854 26.7201 14.0269C27.0191 13.7635 27.2324 13.4435 27.3601 13.0669Z"
            fill="#F3F3F4" />
        <path fill-rule="evenodd" clip-rule="evenodd"
            d="M30.24 13.4933C30.3653 13.4699 30.472 13.5054 30.56 13.5999C30.3944 13.7384 30.2878 13.7029 30.24 13.4933Z"
            fill="#E1E2E3" />
        <path fill-rule="evenodd" clip-rule="evenodd"
            d="M1.33325 13.4932C1.43992 13.4932 1.54659 13.4932 1.65325 13.4932C1.65325 13.5998 1.65325 13.7065 1.65325 13.8132C1.54659 13.8132 1.43992 13.8132 1.33325 13.8132C1.33325 13.7065 1.33325 13.5998 1.33325 13.4932Z"
            fill="#BBBDC1" />
        <path fill-rule="evenodd" clip-rule="evenodd"
            d="M8.80005 13.4932C8.90672 13.4932 9.01338 13.4932 9.12005 13.4932C9.12005 13.5998 9.12005 13.7065 9.12005 13.8132C9.01338 13.8132 8.90672 13.8132 8.80005 13.8132C8.80005 13.7065 8.80005 13.5998 8.80005 13.4932Z"
            fill="#C8CACC" />
        <path fill-rule="evenodd" clip-rule="evenodd"
            d="M22.8799 13.7065C22.9865 13.7065 23.0932 13.7065 23.1999 13.7065C23.1999 13.8132 23.1999 13.9199 23.1999 14.0265C23.0932 14.0265 22.9865 14.0265 22.8799 14.0265C22.8799 13.9199 22.8799 13.8132 22.8799 13.7065Z"
            fill="#C7C9CC" />
        <path fill-rule="evenodd" clip-rule="evenodd"
            d="M1.54664 14.0267C1.40443 14.0267 1.33331 14.0978 1.33331 14.24C1.23688 14.1644 1.20133 14.0577 1.22664 13.92C1.36435 13.8947 1.47102 13.9302 1.54664 14.0267Z"
            fill="#767B81" />
        <path fill-rule="evenodd" clip-rule="evenodd"
            d="M1.54659 14.0269C1.54659 14.169 1.47547 14.2402 1.33325 14.2402C1.33325 14.098 1.40437 14.0269 1.54659 14.0269Z"
            fill="#FCFCFC" />
        <path fill-rule="evenodd" clip-rule="evenodd"
            d="M8.69338 14.0269C8.88933 14.0417 8.92489 14.1128 8.80005 14.2402C8.71498 14.1914 8.67942 14.1203 8.69338 14.0269Z"
            fill="#FCFCFC" />
        <path fill-rule="evenodd" clip-rule="evenodd"
            d="M30.3465 13.9199C30.5561 13.9677 30.5917 14.0744 30.4532 14.2399C30.3587 14.1519 30.3232 14.0453 30.3465 13.9199Z"
            fill="#E7E8E9" />
        <path fill-rule="evenodd" clip-rule="evenodd"
            d="M23.0932 14.1333C23.2584 14.1675 23.3295 14.2742 23.3066 14.4533C23.0135 14.4638 22.9424 14.3571 23.0932 14.1333Z"
            fill="#C5C7CA" />
        <path fill-rule="evenodd" clip-rule="evenodd"
            d="M30.3467 14.4531C30.4533 14.4531 30.56 14.4531 30.6667 14.4531C30.6667 14.5598 30.6667 14.6665 30.6667 14.7731C30.56 14.7731 30.4533 14.7731 30.3467 14.7731C30.3467 14.6665 30.3467 14.5598 30.3467 14.4531Z"
            fill="#C8CACD" />
        <path fill-rule="evenodd" clip-rule="evenodd"
            d="M1.22656 14.4531C1.33323 14.4531 1.4399 14.4531 1.54656 14.4531C1.54656 14.5598 1.54656 14.6665 1.54656 14.7731C1.4399 14.7731 1.33323 14.7731 1.22656 14.7731C1.22656 14.6665 1.22656 14.5598 1.22656 14.4531Z"
            fill="#C5C7CA" />
        <path fill-rule="evenodd" clip-rule="evenodd"
            d="M8.80002 14.4531C8.82533 14.5908 8.78978 14.6975 8.69335 14.7731C8.52822 14.7389 8.45711 14.6322 8.48002 14.4531C8.58668 14.4531 8.69335 14.4531 8.80002 14.4531Z"
            fill="#C1C3C6" />
        <path fill-rule="evenodd" clip-rule="evenodd"
            d="M8.79998 14.4531C8.88087 14.7178 8.88087 15.0022 8.79998 15.3065C8.66227 15.3317 8.55561 15.2962 8.47998 15.1998C8.76443 15.1286 8.76443 15.0576 8.47998 14.9865C8.5511 14.9153 8.6222 14.8443 8.69331 14.7731C8.78974 14.6975 8.82529 14.5908 8.79998 14.4531Z"
            fill="#515760" />
        <path fill-rule="evenodd" clip-rule="evenodd"
            d="M23.0933 14.6665C23.1999 14.6665 23.3066 14.6665 23.4133 14.6665C23.4133 14.7732 23.4133 14.8798 23.4133 14.9865C23.3066 14.9865 23.1999 14.9865 23.0933 14.9865C23.0933 14.8798 23.0933 14.7732 23.0933 14.6665Z"
            fill="#C9CBCE" />
        <path fill-rule="evenodd" clip-rule="evenodd"
            d="M1.4399 14.9868C1.4399 15.129 1.36878 15.2001 1.22656 15.2001C1.22656 15.058 1.29768 14.9868 1.4399 14.9868Z"
            fill="#FCFCFD" />
        <path fill-rule="evenodd" clip-rule="evenodd"
            d="M4.00008 15.4134C3.97477 15.2757 4.01032 15.1691 4.10675 15.0934C4.34856 15.389 4.61523 15.6735 4.90675 15.9468C5.22675 15.5556 5.54675 15.1646 5.86675 14.7734C5.91228 15.7214 5.61007 16.5392 4.96008 17.2268C4.38852 16.7594 4.06852 16.1549 4.00008 15.4134Z"
            fill="#F2F2F3" />
        <path fill-rule="evenodd" clip-rule="evenodd"
            d="M8.47998 14.9868C8.76443 15.058 8.76443 15.129 8.47998 15.2001C8.47998 15.129 8.47998 15.058 8.47998 14.9868Z"
            fill="#F8F8F9" />
        <path fill-rule="evenodd" clip-rule="evenodd"
            d="M1.4399 14.9868C1.53632 15.0624 1.57187 15.1691 1.54656 15.3068C1.40886 15.3321 1.30219 15.2966 1.22656 15.2001C1.36878 15.2001 1.4399 15.129 1.4399 14.9868Z"
            fill="#747980" />
        <path fill-rule="evenodd" clip-rule="evenodd"
            d="M23.2 15.2002C23.3959 15.215 23.4314 15.2862 23.3066 15.4135C23.2215 15.3648 23.186 15.2936 23.2 15.2002Z"
            fill="#FEFEFE" />
        <path fill-rule="evenodd" clip-rule="evenodd"
            d="M30.6667 15.7332C30.5955 15.3065 30.5245 15.3065 30.4533 15.7332C30.3496 15.4721 30.314 15.1876 30.3467 14.8799C30.4889 14.8799 30.6312 14.8799 30.7733 14.8799C30.806 15.1876 30.7705 15.4721 30.6667 15.7332Z"
            fill="#4D535C" />
        <path fill-rule="evenodd" clip-rule="evenodd"
            d="M30.4534 14.9868C30.6493 15.0016 30.6849 15.0728 30.5601 15.2001C30.4749 15.1514 30.4394 15.0803 30.4534 14.9868Z"
            fill="#F9F9F9" />
        <path fill-rule="evenodd" clip-rule="evenodd"
            d="M4.10669 15.0935C4.01026 15.1691 3.97471 15.2758 4.00002 15.4135C3.86327 15.2846 3.86327 15.1423 4.00002 14.9868C4.06474 15 4.10029 15.0356 4.10669 15.0935Z"
            fill="#6A7077" />
        <path fill-rule="evenodd" clip-rule="evenodd"
            d="M25.76 15.0933C26.1754 15.3647 26.5665 15.6847 26.9333 16.0533C27.9539 15.1352 28.1494 15.313 27.52 16.5866C27.3067 16.8711 27.0933 17.1554 26.88 17.4399C26.3628 16.7256 25.9894 15.9434 25.76 15.0933Z"
            fill="#F0F0F1" />
        <path fill-rule="evenodd" clip-rule="evenodd"
            d="M30.6667 15.7336C30.5956 15.7336 30.5245 15.7336 30.4534 15.7336C30.5245 15.3069 30.5956 15.3069 30.6667 15.7336Z"
            fill="#E7E8E9" />
        <path fill-rule="evenodd" clip-rule="evenodd"
            d="M8.37329 15.4136C8.47996 15.4136 8.58662 15.4136 8.69329 15.4136C8.69329 15.5202 8.69329 15.6269 8.69329 15.7336C8.58662 15.7336 8.47996 15.7336 8.37329 15.7336C8.37329 15.6269 8.37329 15.5202 8.37329 15.4136Z"
            fill="#CACCCF" />
        <path fill-rule="evenodd" clip-rule="evenodd"
            d="M1.22677 15.4136C1.29788 15.8402 1.36898 15.8402 1.4401 15.4136C1.58232 15.6981 1.58232 15.9824 1.4401 16.2669C1.4401 16.1602 1.4401 16.0536 1.4401 15.9469C1.33343 15.9469 1.22677 15.9469 1.1201 15.9469C1.08975 15.7426 1.12531 15.5649 1.22677 15.4136Z"
            fill="#3F454F" />
        <path fill-rule="evenodd" clip-rule="evenodd"
            d="M1.22656 15.4136C1.29768 15.4136 1.36878 15.4136 1.4399 15.4136C1.36878 15.8402 1.29768 15.8402 1.22656 15.4136Z"
            fill="#E7E8E9" />
        <path fill-rule="evenodd" clip-rule="evenodd"
            d="M23.2 15.6265C23.3066 15.6265 23.4133 15.6265 23.52 15.6265C23.52 15.7331 23.52 15.8398 23.52 15.9465C23.4133 15.9465 23.3066 15.9465 23.2 15.9465C23.2 15.8398 23.2 15.7331 23.2 15.6265Z"
            fill="#CFD0D3" />
        <path fill-rule="evenodd" clip-rule="evenodd"
            d="M1.12012 15.9468C1.22678 15.9468 1.33345 15.9468 1.44012 15.9468C1.44012 16.0534 1.44012 16.1601 1.44012 16.2668C1.33345 16.2668 1.22678 16.2668 1.12012 16.2668C1.12012 16.1601 1.12012 16.0534 1.12012 15.9468Z"
            fill="#BDBFC2" />
        <path fill-rule="evenodd" clip-rule="evenodd"
            d="M8.37329 15.9468C8.47996 15.9468 8.58662 15.9468 8.69329 15.9468C8.69329 16.0534 8.69329 16.1601 8.69329 16.2668C8.58662 16.2668 8.47996 16.2668 8.37329 16.2668C8.37329 16.1601 8.37329 16.0534 8.37329 15.9468Z"
            fill="#C1C3C6" />
        <path fill-rule="evenodd" clip-rule="evenodd"
            d="M30.4533 15.9468C30.5245 16.2313 30.5955 16.2313 30.6667 15.9468C30.7631 16.0224 30.7986 16.1291 30.7733 16.2668C30.6356 16.2415 30.5289 16.277 30.4533 16.3734C30.4533 16.4801 30.4533 16.5868 30.4533 16.6934C30.3111 16.4446 30.3111 16.1956 30.4533 15.9468Z"
            fill="#4F555F" />
        <path fill-rule="evenodd" clip-rule="evenodd"
            d="M30.4534 15.9468C30.5245 15.9468 30.5956 15.9468 30.6667 15.9468C30.5956 16.2313 30.5245 16.2313 30.4534 15.9468Z"
            fill="#FDFDFD" />
        <path fill-rule="evenodd" clip-rule="evenodd"
            d="M23.2 16.1602C23.3066 16.1602 23.4133 16.1602 23.52 16.1602C23.52 16.2668 23.52 16.3735 23.52 16.4802C23.4133 16.4802 23.3066 16.4802 23.2 16.4802C23.2 16.3735 23.2 16.2668 23.2 16.1602Z"
            fill="#B8BABE" />
        <path fill-rule="evenodd" clip-rule="evenodd"
            d="M1.22659 16.48C1.42253 16.4948 1.45809 16.566 1.33325 16.6933C1.24819 16.6446 1.21262 16.5734 1.22659 16.48Z"
            fill="#FFFEFF" />
        <path fill-rule="evenodd" clip-rule="evenodd"
            d="M8.48 16.48C8.67595 16.4948 8.71151 16.566 8.58667 16.6933C8.5016 16.6446 8.46604 16.5734 8.48 16.48Z"
            fill="#FEFFFE" />
        <path fill-rule="evenodd" clip-rule="evenodd"
            d="M30.4534 16.3735C30.7378 16.4802 30.7378 16.5869 30.4534 16.6935C30.4534 16.5869 30.4534 16.4802 30.4534 16.3735Z"
            fill="#E8E8E9" />
        <path fill-rule="evenodd" clip-rule="evenodd"
            d="M23.4133 16.6934C23.4133 16.7645 23.4133 16.8355 23.4133 16.9067C23.1288 16.8355 23.1288 16.7645 23.4133 16.6934Z"
            fill="#FAFAFA" />
        <path fill-rule="evenodd" clip-rule="evenodd"
            d="M6.02656 16.5864C6.04412 17.424 5.79523 18.2063 5.27989 18.9331C4.53316 18.4923 4.12427 17.8523 4.05322 17.0131C4.34413 17.3577 4.68192 17.6421 5.06656 17.8664C5.38628 17.4407 5.70628 17.0141 6.02656 16.5864Z"
            fill="#EDEDEE" />
        <path fill-rule="evenodd" clip-rule="evenodd"
            d="M25.8668 16.9067C26.1081 17.2911 26.3926 17.6466 26.7201 17.9734C27.0752 17.7594 27.3952 17.5106 27.6801 17.2267C27.7765 17.3024 27.812 17.409 27.7868 17.5467C27.5271 18.1992 27.1005 18.7326 26.5068 19.1467C26.1157 18.6843 25.8668 18.151 25.7601 17.5467C25.7286 17.3083 25.7643 17.095 25.8668 16.9067Z"
            fill="#F2F3F3" />
        <path fill-rule="evenodd" clip-rule="evenodd"
            d="M23.4133 16.6932C23.1288 16.7643 23.1288 16.8353 23.4133 16.9065C23.3421 16.9776 23.2711 17.0487 23.1999 17.1198C23.1644 17.1198 23.1288 17.1198 23.0933 17.1198C23.0933 16.942 23.0933 16.7643 23.0933 16.5865C23.231 16.5612 23.3376 16.5967 23.4133 16.6932Z"
            fill="#5E636B" />
        <path fill-rule="evenodd" clip-rule="evenodd"
            d="M1.22656 16.9067C1.33323 16.9067 1.4399 16.9067 1.54656 16.9067C1.54656 17.0134 1.54656 17.1201 1.54656 17.2267C1.4399 17.2267 1.33323 17.2267 1.22656 17.2267C1.22656 17.1201 1.22656 17.0134 1.22656 16.9067Z"
            fill="#CED0D2" />
        <path fill-rule="evenodd" clip-rule="evenodd"
            d="M8.47998 16.9067C8.58665 16.9067 8.69331 16.9067 8.79998 16.9067C8.79998 17.0134 8.79998 17.1201 8.79998 17.2267C8.69331 17.2267 8.58665 17.2267 8.47998 17.2267C8.47998 17.1201 8.47998 17.0134 8.47998 16.9067Z"
            fill="#D2D3D6" />
        <path fill-rule="evenodd" clip-rule="evenodd"
            d="M25.8667 16.9065C25.7642 17.0947 25.7285 17.3081 25.76 17.5465C25.6217 17.3126 25.6217 17.0636 25.76 16.7998C25.8248 16.813 25.8603 16.8486 25.8667 16.9065Z"
            fill="#979AA0" />
        <path fill-rule="evenodd" clip-rule="evenodd"
            d="M30.3467 16.9067C30.4533 16.9067 30.56 16.9067 30.6667 16.9067C30.6667 17.0134 30.6667 17.1201 30.6667 17.2267C30.56 17.2267 30.4533 17.2267 30.3467 17.2267C30.3467 17.1201 30.3467 17.0134 30.3467 16.9067Z"
            fill="#B0B3B7" />
        <path fill-rule="evenodd" clip-rule="evenodd"
            d="M23.0933 17.1201C23.1288 17.1201 23.1644 17.1201 23.1999 17.1201C23.365 17.1544 23.4362 17.261 23.4133 17.4401C23.3066 17.4401 23.1999 17.4401 23.0933 17.4401C23.0933 17.3335 23.0933 17.2268 23.0933 17.1201Z"
            fill="#C5C7CA" />
        <path fill-rule="evenodd" clip-rule="evenodd"
            d="M27.6799 17.2265C27.7836 17.0931 27.8548 17.1286 27.8933 17.3332C27.8887 17.4309 27.8532 17.502 27.7866 17.5465C27.8119 17.4088 27.7764 17.3021 27.6799 17.2265Z"
            fill="#8D9196" />
        <path fill-rule="evenodd" clip-rule="evenodd"
            d="M8.58667 17.4399C8.69334 17.4399 8.8 17.4399 8.90667 17.4399C8.90667 17.5466 8.90667 17.6533 8.90667 17.7599C8.8 17.7599 8.69334 17.7599 8.58667 17.7599C8.58667 17.6533 8.58667 17.5466 8.58667 17.4399Z"
            fill="#C6C8CB" />
        <path fill-rule="evenodd" clip-rule="evenodd"
            d="M30.3467 17.3335C30.4533 17.3335 30.56 17.3335 30.6667 17.3335C30.6667 17.4402 30.6667 17.5468 30.6667 17.6535C30.56 17.6535 30.4533 17.6535 30.3467 17.6535C30.3467 17.5468 30.3467 17.4402 30.3467 17.3335Z"
            fill="#B9BBBE" />
        <path fill-rule="evenodd" clip-rule="evenodd"
            d="M1.22656 17.4399C1.33323 17.4399 1.4399 17.4399 1.54656 17.4399C1.54656 17.5466 1.54656 17.6533 1.54656 17.7599C1.4399 17.7599 1.33323 17.7599 1.22656 17.7599C1.22656 17.6533 1.22656 17.5466 1.22656 17.4399Z"
            fill="#B0B2B7" />
        <path fill-rule="evenodd" clip-rule="evenodd"
            d="M22.9866 17.6533C23.1825 17.6681 23.2181 17.7393 23.0933 17.8667C23.0081 17.8179 22.9726 17.7468 22.9866 17.6533Z"
            fill="#FCFCFC" />
        <path fill-rule="evenodd" clip-rule="evenodd"
            d="M1.33325 17.8667C1.43992 17.8667 1.54659 17.8667 1.65325 17.8667C1.65325 17.9734 1.65325 18.08 1.65325 18.1867C1.54659 18.1867 1.43992 18.1867 1.33325 18.1867C1.33325 18.08 1.33325 17.9734 1.33325 17.8667Z"
            fill="#BCBEC1" />
        <path fill-rule="evenodd" clip-rule="evenodd"
            d="M8.69336 17.8667C8.80003 17.8667 8.90669 17.8667 9.01336 17.8667C9.01336 17.9734 9.01336 18.08 9.01336 18.1867C8.90669 18.1867 8.80003 18.1867 8.69336 18.1867C8.69336 18.08 8.69336 17.9734 8.69336 17.8667Z"
            fill="#D4D5D8" />
        <path fill-rule="evenodd" clip-rule="evenodd"
            d="M30.24 17.8667C30.3467 17.8667 30.4533 17.8667 30.56 17.8667C30.56 17.9734 30.56 18.08 30.56 18.1867C30.4533 18.1867 30.3467 18.1867 30.24 18.1867C30.24 18.08 30.24 17.9734 30.24 17.8667Z"
            fill="#BEC1C4" />
        <path fill-rule="evenodd" clip-rule="evenodd"
            d="M22.7734 18.0801C22.8801 18.0801 22.9868 18.0801 23.0934 18.0801C23.0934 18.1867 23.0934 18.2934 23.0934 18.4001C22.9868 18.4001 22.8801 18.4001 22.7734 18.4001C22.7734 18.2934 22.7734 18.1867 22.7734 18.0801Z"
            fill="#C4C5C9" />
        <path fill-rule="evenodd" clip-rule="evenodd"
            d="M8.90661 18.3999C9.27536 18.4177 9.31091 18.5244 9.01327 18.7199C8.9188 18.6319 8.88325 18.5252 8.90661 18.3999Z"
            fill="#C8CACD" />
        <path fill-rule="evenodd" clip-rule="evenodd"
            d="M30.24 18.2933C30.3994 18.2842 30.5061 18.3552 30.56 18.5066C30.4178 18.6488 30.2755 18.6488 30.1333 18.5066C30.172 18.4337 30.2075 18.3626 30.24 18.2933Z"
            fill="#B8BBBE" />
        <path fill-rule="evenodd" clip-rule="evenodd"
            d="M1.44 18.3999C1.51112 18.6844 1.58222 18.6844 1.65333 18.3999C1.74976 18.4755 1.78531 18.5822 1.76 18.7199C1.61778 18.7199 1.47555 18.7199 1.33333 18.7199C1.30802 18.5822 1.34357 18.4755 1.44 18.3999Z"
            fill="#858990" />
        <path fill-rule="evenodd" clip-rule="evenodd"
            d="M1.43994 18.3999C1.51106 18.3999 1.58216 18.3999 1.65327 18.3999C1.58216 18.6844 1.51106 18.6844 1.43994 18.3999Z"
            fill="#FAFAFA" />
        <path fill-rule="evenodd" clip-rule="evenodd"
            d="M6.24007 18.3999C6.30592 18.4117 6.35926 18.4473 6.40007 18.5066C6.4706 19.0461 6.43504 19.5794 6.2934 20.1066C6.22504 20.3533 6.08281 20.5311 5.86674 20.6399C5.49557 20.553 5.17557 20.3752 4.90674 20.1066C4.69099 19.7087 4.49544 19.2998 4.32007 18.8799C4.71477 19.0373 5.10587 19.2329 5.4934 19.4666C5.82106 19.1731 6.06996 18.8175 6.24007 18.3999Z"
            fill="#EAEBEC" />
        <path fill-rule="evenodd" clip-rule="evenodd"
            d="M22.6666 18.5068C23.0052 18.555 23.0407 18.6617 22.7733 18.8268C22.6788 18.7388 22.6433 18.6322 22.6666 18.5068Z"
            fill="#DBDCDE" />
        <path fill-rule="evenodd" clip-rule="evenodd"
            d="M25.3333 18.5068C25.6007 18.9481 25.8496 19.4104 26.08 19.8935C26.4332 19.6279 26.8243 19.4501 27.2533 19.3602C27.246 19.8483 27.0327 20.2216 26.6133 20.4802C26.2842 20.6892 25.9464 20.8848 25.6 21.0668C25.0951 20.2488 25.0062 19.3955 25.3333 18.5068Z"
            fill="#EDEDEE" />
        <path fill-rule="evenodd" clip-rule="evenodd"
            d="M1.76002 18.9334C1.61781 18.9334 1.54669 19.0045 1.54669 19.1467C1.45026 19.0711 1.41471 18.9644 1.44002 18.8267C1.57773 18.8015 1.6844 18.837 1.76002 18.9334Z"
            fill="#878B91" />
        <path fill-rule="evenodd" clip-rule="evenodd"
            d="M1.75996 18.9331C1.75996 19.0753 1.68885 19.1464 1.54663 19.1464C1.54663 19.0043 1.61775 18.9331 1.75996 18.9331Z"
            fill="#FAFAFA" />
        <path fill-rule="evenodd" clip-rule="evenodd"
            d="M9.0134 18.8267C9.33848 18.826 9.39182 18.9327 9.1734 19.1467C9.06262 19.0673 9.00929 18.9606 9.0134 18.8267Z"
            fill="#DCDDDF" />
        <path fill-rule="evenodd" clip-rule="evenodd"
            d="M30.1333 18.8267C30.24 18.8267 30.3466 18.8267 30.4533 18.8267C30.4533 18.9333 30.4533 19.04 30.4533 19.1467C30.3466 19.1467 30.24 19.1467 30.1333 19.1467C30.1333 19.04 30.1333 18.9333 30.1333 18.8267Z"
            fill="#C2C4C7" />
        <path fill-rule="evenodd" clip-rule="evenodd"
            d="M11.7866 19.04C12.5847 19.1459 13.4024 19.1814 14.2399 19.1467C13.4033 19.2875 12.55 19.2875 11.6799 19.1467C11.6932 19.082 11.7287 19.0464 11.7866 19.04Z"
            fill="#258A5E" />
        <path fill-rule="evenodd" clip-rule="evenodd"
            d="M22.4534 19.0402C22.5787 19.0168 22.6854 19.0523 22.7734 19.1468C22.6078 19.2853 22.5012 19.2498 22.4534 19.0402Z"
            fill="#DDDFE0" />
        <path fill-rule="evenodd" clip-rule="evenodd"
            d="M9.22656 19.2534C9.33323 19.2534 9.4399 19.2534 9.54656 19.2534C9.46701 19.6598 9.36034 19.6598 9.22656 19.2534Z"
            fill="#D3D5D7" />
        <path fill-rule="evenodd" clip-rule="evenodd"
            d="M30.0267 19.2534C30.2363 19.3012 30.2718 19.4079 30.1334 19.5734C30.0389 19.4854 30.0034 19.3788 30.0267 19.2534Z"
            fill="#DDDEE0" />
        <path fill-rule="evenodd" clip-rule="evenodd"
            d="M22.24 19.4668C22.5651 19.4662 22.6184 19.5728 22.4 19.7868C22.2891 19.7074 22.2358 19.6008 22.24 19.4668Z"
            fill="#DDDEE0" />
        <path fill-rule="evenodd" clip-rule="evenodd"
            d="M1.65323 19.3599C1.72434 19.6443 1.79545 19.6443 1.86656 19.3599C1.93021 19.3849 1.96577 19.4383 1.97323 19.5199C1.91396 19.6277 1.84286 19.7166 1.75989 19.7865C1.75989 19.8932 1.75989 19.9999 1.75989 20.1065C1.56665 19.8705 1.53108 19.6215 1.65323 19.3599Z"
            fill="#535962" />
        <path fill-rule="evenodd" clip-rule="evenodd"
            d="M1.65332 19.3599C1.72443 19.3599 1.79554 19.3599 1.86665 19.3599C1.79554 19.6443 1.72443 19.6443 1.65332 19.3599Z"
            fill="#F9F9F9" />
        <path fill-rule="evenodd" clip-rule="evenodd"
            d="M9.54674 19.6802C9.88531 19.7284 9.92088 19.8351 9.65341 20.0002C9.55893 19.9122 9.52338 19.8055 9.54674 19.6802Z"
            fill="#E1E2E3" />
        <path fill-rule="evenodd" clip-rule="evenodd"
            d="M1.76001 19.7866C2.16641 19.9204 2.16641 20.027 1.76001 20.1066C1.76001 20 1.76001 19.8933 1.76001 19.7866Z"
            fill="#D5D7D9" />
        <path fill-rule="evenodd" clip-rule="evenodd"
            d="M4.95996 21.0666C4.99641 20.9772 5.06752 20.9416 5.17329 20.96C5.51885 20.9885 5.85663 21.0596 6.18663 21.1733C6.23996 21.1378 6.29329 21.1021 6.34663 21.0666C6.49614 20.6358 6.65614 20.2091 6.82663 19.7866C7.03766 20.0665 7.12655 20.3865 7.09329 20.7466C7.06335 21.2516 6.99224 21.7493 6.87996 22.24C6.07558 22.1098 5.43558 21.7188 4.95996 21.0666Z"
            fill="#EEEEEF" />
        <path fill-rule="evenodd" clip-rule="evenodd"
            d="M21.9199 19.8936C22.0266 19.8936 22.1333 19.8936 22.2399 19.8936C22.1603 20.3 22.0537 20.3 21.9199 19.8936Z"
            fill="#CDCED1" />
        <path fill-rule="evenodd" clip-rule="evenodd"
            d="M29.8132 19.7866C29.9199 19.7866 30.0266 19.7866 30.1332 19.7866C30.1332 19.8933 30.1332 20 30.1332 20.1066C30.0266 20.1066 29.9199 20.1066 29.8132 20.1066C29.8132 20 29.8132 19.8933 29.8132 19.7866Z"
            fill="#BABCBF" />
        <path fill-rule="evenodd" clip-rule="evenodd"
            d="M9.75999 20.1064C10.0851 20.1058 10.1384 20.2125 9.91999 20.4264C9.8092 20.3471 9.75587 20.2404 9.75999 20.1064Z"
            fill="#DEDFE1" />
        <path fill-rule="evenodd" clip-rule="evenodd"
            d="M24.9068 22.4533C24.7404 22.2767 24.6337 22.0634 24.5868 21.8133C24.5514 21.4587 24.5159 21.103 24.4801 20.7467C24.461 20.466 24.532 20.2171 24.6934 20C24.9553 20.4656 25.1331 20.9633 25.2268 21.4933C25.6973 21.4276 26.1594 21.321 26.6134 21.1733C26.6846 21.2089 26.7556 21.2445 26.8268 21.28C26.35 21.9339 25.71 22.3249 24.9068 22.4533Z"
            fill="#EFF0F0" />
        <path fill-rule="evenodd" clip-rule="evenodd"
            d="M21.7067 20.2134C22.0452 20.2616 22.0807 20.3683 21.8133 20.5334C21.7188 20.4454 21.6833 20.3387 21.7067 20.2134Z"
            fill="#DBDCDE" />
        <path fill-rule="evenodd" clip-rule="evenodd"
            d="M1.8667 20.3198C1.97337 20.3198 2.08003 20.3198 2.1867 20.3198C2.1867 20.4265 2.1867 20.5332 2.1867 20.6398C2.08003 20.6398 1.97337 20.6398 1.8667 20.6398C1.8667 20.5332 1.8667 20.4265 1.8667 20.3198Z"
            fill="#C8CACC" />
        <path fill-rule="evenodd" clip-rule="evenodd"
            d="M29.7068 20.2134C29.8135 20.2134 29.9201 20.2134 30.0268 20.2134C30.0268 20.32 30.0268 20.4267 30.0268 20.5334C29.9201 20.5334 29.8135 20.5334 29.7068 20.5334C29.7068 20.4267 29.7068 20.32 29.7068 20.2134Z"
            fill="#D6D7D9" />
        <path fill-rule="evenodd" clip-rule="evenodd"
            d="M10.0801 20.5332C10.4051 20.5326 10.4585 20.6392 10.2401 20.8532C10.1293 20.7738 10.0759 20.6672 10.0801 20.5332Z"
            fill="#D7D8DA" />
        <path fill-rule="evenodd" clip-rule="evenodd"
            d="M21.3866 20.6401C21.7251 20.6884 21.7607 20.795 21.4933 20.9601C21.3987 20.8721 21.3632 20.7655 21.3866 20.6401Z"
            fill="#E2E3E5" />
        <path fill-rule="evenodd" clip-rule="evenodd"
            d="M2.07995 20.7466C2.2895 20.7944 2.32505 20.901 2.18661 21.0666C2.09214 20.9786 2.05659 20.8719 2.07995 20.7466Z"
            fill="#E8E8EA" />
        <path fill-rule="evenodd" clip-rule="evenodd"
            d="M29.6 20.7466C29.9687 20.7644 30.0042 20.8711 29.7066 21.0666C29.6121 20.9786 29.5766 20.8719 29.6 20.7466Z"
            fill="#D1D3D5" />
        <path fill-rule="evenodd" clip-rule="evenodd"
            d="M5.17329 20.9602C5.06752 20.9418 4.99641 20.9775 4.95996 21.0668C4.81226 20.9813 4.83004 20.9102 5.01329 20.8535C5.09487 20.861 5.1482 20.8965 5.17329 20.9602Z"
            fill="#676C74" />
        <path fill-rule="evenodd" clip-rule="evenodd"
            d="M10.3999 20.8535C10.5066 20.8535 10.6132 20.8535 10.7199 20.8535C10.7199 20.9602 10.7199 21.0668 10.7199 21.1735C10.6132 21.1735 10.5066 21.1735 10.3999 21.1735C10.3999 21.0668 10.3999 20.9602 10.3999 20.8535Z"
            fill="#D6D7D9" />
        <path fill-rule="evenodd" clip-rule="evenodd"
            d="M21.28 21.28C21.1378 21.28 21.0667 21.2088 21.0667 21.0666C21.0731 21.0087 21.1086 20.9732 21.1733 20.96C21.2678 21.048 21.3033 21.1546 21.28 21.28Z"
            fill="#E4E5E6" />
        <path fill-rule="evenodd" clip-rule="evenodd"
            d="M10.8268 21.1733C11.0364 21.2211 11.0719 21.3278 10.9334 21.4933C10.8389 21.4053 10.8034 21.2987 10.8268 21.1733Z"
            fill="#E2E3E4" />
        <path fill-rule="evenodd" clip-rule="evenodd"
            d="M21.0666 21.0669C21.0666 21.2091 21.1377 21.2802 21.2799 21.2802C21.1732 21.3869 21.0666 21.4936 20.9599 21.6002C20.9599 21.458 20.8888 21.3869 20.7466 21.3869C20.8532 21.2802 20.9599 21.1736 21.0666 21.0669Z"
            fill="#585D66" />
        <path fill-rule="evenodd" clip-rule="evenodd"
            d="M29.3867 21.1733C29.4934 21.1733 29.6001 21.1733 29.7067 21.1733C29.7067 21.28 29.7067 21.3867 29.7067 21.4933C29.6001 21.4933 29.4934 21.4933 29.3867 21.4933C29.3867 21.3867 29.3867 21.28 29.3867 21.1733Z"
            fill="#CFD1D3" />
        <path fill-rule="evenodd" clip-rule="evenodd"
            d="M2.29345 21.1733C2.45858 21.2076 2.52969 21.3142 2.50678 21.4933C2.2137 21.5038 2.14259 21.3971 2.29345 21.1733Z"
            fill="#CED0D2" />
        <path fill-rule="evenodd" clip-rule="evenodd"
            d="M7.51999 21.2802C7.62622 21.271 7.7151 21.3067 7.78666 21.3869C8.18175 22.125 8.39508 22.9072 8.42666 23.7336C7.49016 24.0037 6.76127 23.7193 6.23999 22.8802C6.62353 22.8185 7.01465 22.8185 7.41332 22.8802C7.44009 22.3461 7.47565 21.8128 7.51999 21.2802Z"
            fill="#EAEBEC" />
        <path fill-rule="evenodd" clip-rule="evenodd"
            d="M20.7466 21.3867C20.8887 21.3867 20.9599 21.4579 20.9599 21.6001C20.8346 21.6234 20.7279 21.5879 20.6399 21.4934C20.6531 21.4286 20.6886 21.3931 20.7466 21.3867Z"
            fill="#DCDDDF" />
        <path fill-rule="evenodd" clip-rule="evenodd"
            d="M11.2533 21.4932C11.48 21.5858 11.4977 21.6924 11.3067 21.8132C11.1272 21.7411 11.1093 21.6344 11.2533 21.4932Z"
            fill="#DBDCDE" />
        <path fill-rule="evenodd" clip-rule="evenodd"
            d="M20.3201 21.6001C20.7265 21.7339 20.7265 21.8405 20.3201 21.9201C20.3201 21.8134 20.3201 21.7068 20.3201 21.6001Z"
            fill="#D1D3D5" />
        <path fill-rule="evenodd" clip-rule="evenodd"
            d="M29.28 21.6001C29.5066 21.6927 29.5243 21.7994 29.3333 21.9201C29.1538 21.848 29.136 21.7413 29.28 21.6001Z"
            fill="#D9DADC" />
        <path fill-rule="evenodd" clip-rule="evenodd"
            d="M2.40001 21.7065C2.76877 21.7244 2.80432 21.831 2.50668 22.0265C2.41221 21.9385 2.37665 21.8319 2.40001 21.7065Z"
            fill="#CED0D2" />
        <path fill-rule="evenodd" clip-rule="evenodd"
            d="M24.0533 22.3468C24.0533 22.6312 24.0533 22.9156 24.0533 23.2001C24.2575 23.2304 24.4352 23.1949 24.5866 23.0934C24.7288 23.0934 24.8711 23.0934 25.0133 23.0934C25.1838 23.0648 25.326 23.1005 25.4399 23.2001C24.791 23.8079 24.0088 24.1279 23.0933 24.1601C23.1484 23.2277 23.4328 22.3744 23.9466 21.6001C24.0505 21.8394 24.0861 22.0882 24.0533 22.3468Z"
            fill="#F0F0F1" />
        <path fill-rule="evenodd" clip-rule="evenodd"
            d="M11.5734 21.8135C11.9119 21.8617 11.9474 21.9684 11.68 22.1335C11.5855 22.0455 11.55 21.9388 11.5734 21.8135Z"
            fill="#DEDFE1" />
        <path fill-rule="evenodd" clip-rule="evenodd"
            d="M19.8933 21.9199C20.2997 22.0537 20.2997 22.1603 19.8933 22.2399C19.8933 22.1333 19.8933 22.0266 19.8933 21.9199Z"
            fill="#DCDDDF" />
        <path fill-rule="evenodd" clip-rule="evenodd"
            d="M11.8933 22.1333C12 22.1333 12.1066 22.1333 12.2133 22.1333C12.1337 22.5397 12.0271 22.5397 11.8933 22.1333Z"
            fill="#CFD1D3" />
        <path fill-rule="evenodd" clip-rule="evenodd"
            d="M28.96 22.1334C29.0853 22.1101 29.192 22.1456 29.28 22.2401C29.1144 22.3785 29.0077 22.343 28.96 22.1334Z"
            fill="#E0E1E3" />
        <path fill-rule="evenodd" clip-rule="evenodd"
            d="M2.61339 22.1333C2.98215 22.1511 3.0177 22.2578 2.72006 22.4533C2.62558 22.3653 2.59003 22.2586 2.61339 22.1333Z"
            fill="#D5D7D9" />
        <path fill-rule="evenodd" clip-rule="evenodd"
            d="M19.4667 22.2402C19.8354 22.258 19.8709 22.3647 19.5733 22.5602C19.4788 22.4722 19.4433 22.3656 19.4667 22.2402Z"
            fill="#CBCCCF" />
        <path fill-rule="evenodd" clip-rule="evenodd"
            d="M24.5867 21.8135C24.6336 22.0635 24.7403 22.2768 24.9067 22.4535C24.831 22.5499 24.7244 22.5854 24.5867 22.5601C24.5867 22.3113 24.5867 22.0623 24.5867 21.8135Z"
            fill="#7F838A" />
        <path fill-rule="evenodd" clip-rule="evenodd"
            d="M12.4267 22.3467C12.6363 22.3945 12.6718 22.5011 12.5333 22.6667C12.318 22.5992 12.2823 22.4925 12.4267 22.3467Z"
            fill="#DDDEE0" />
        <path fill-rule="evenodd" clip-rule="evenodd"
            d="M19.0399 22.4531C19.4087 22.4709 19.4442 22.5776 19.1466 22.7731C19.0521 22.6851 19.0165 22.5785 19.0399 22.4531Z"
            fill="#D3D4D6" />
        <path fill-rule="evenodd" clip-rule="evenodd"
            d="M28.7466 22.5601C28.8532 22.5601 28.9599 22.5601 29.0666 22.5601C28.987 22.9665 28.8803 22.9665 28.7466 22.5601Z"
            fill="#CCCED1" />
        <path fill-rule="evenodd" clip-rule="evenodd"
            d="M2.82666 22.5601C2.93333 22.5601 3.03999 22.5601 3.14666 22.5601C3.14666 22.6667 3.14666 22.7734 3.14666 22.8801C3.03999 22.8801 2.93333 22.8801 2.82666 22.8801C2.82666 22.7734 2.82666 22.6667 2.82666 22.5601Z"
            fill="#CBCDD0" />
        <path fill-rule="evenodd" clip-rule="evenodd"
            d="M12.8534 22.5601C13.063 22.6078 13.0985 22.7145 12.9601 22.8801C12.8655 22.7921 12.83 22.6854 12.8534 22.5601Z"
            fill="#E7E8E9" />
        <path fill-rule="evenodd" clip-rule="evenodd"
            d="M18.6134 22.6665C18.952 22.7147 18.9875 22.8214 18.7201 22.9865C18.6256 22.8985 18.59 22.7918 18.6134 22.6665Z"
            fill="#D9DADD" />
        <path fill-rule="evenodd" clip-rule="evenodd"
            d="M13.28 22.7734C13.3867 22.7734 13.4934 22.7734 13.6 22.7734C13.6 22.8801 13.6 22.9868 13.6 23.0934C13.4934 23.0934 13.3867 23.0934 13.28 23.0934C13.28 22.9868 13.28 22.8801 13.28 22.7734Z"
            fill="#C6C8CB" />
        <path fill-rule="evenodd" clip-rule="evenodd"
            d="M18.0801 22.7734C18.1867 22.7734 18.2934 22.7734 18.4001 22.7734C18.4001 22.8801 18.4001 22.9868 18.4001 23.0934C18.2934 23.0934 18.1867 23.0934 18.0801 23.0934C18.0801 22.9868 18.0801 22.8801 18.0801 22.7734Z"
            fill="#D2D3D5" />
        <path fill-rule="evenodd" clip-rule="evenodd"
            d="M24.0532 22.3467C24.1565 22.5714 24.1921 22.8204 24.1599 23.0933C24.3021 23.0933 24.4444 23.0933 24.5866 23.0933C24.4352 23.1948 24.2575 23.2303 24.0532 23.2C24.0532 22.9155 24.0532 22.6312 24.0532 22.3467Z"
            fill="#656A72" />
        <path fill-rule="evenodd" clip-rule="evenodd"
            d="M8.90671 22.8799C9.18308 22.9603 9.37863 23.1381 9.49338 23.4132C9.80654 23.9439 10.0021 24.5127 10.08 25.1199C9.16646 25.3035 8.33091 25.1256 7.57338 24.5865C7.52733 24.4692 7.58066 24.3981 7.73338 24.3732C8.12756 24.3107 8.51867 24.2396 8.90671 24.1599C8.97972 23.739 8.97972 23.3123 8.90671 22.8799Z"
            fill="#ECEDEE" />
        <path fill-rule="evenodd" clip-rule="evenodd"
            d="M25.0134 23.0933C25.1772 22.9559 25.3549 22.9559 25.5468 23.0933C25.5335 23.158 25.498 23.1935 25.4401 23.1999C25.3262 23.1003 25.184 23.0647 25.0134 23.0933Z"
            fill="#8F9399" />
        <path fill-rule="evenodd" clip-rule="evenodd"
            d="M3.04004 22.9868C3.14671 22.9868 3.25337 22.9868 3.36004 22.9868C3.36004 23.0935 3.36004 23.2001 3.36004 23.3068C3.25337 23.3068 3.14671 23.3068 3.04004 23.3068C3.04004 23.2001 3.04004 23.0935 3.04004 22.9868Z"
            fill="#D5D6D8" />
        <path fill-rule="evenodd" clip-rule="evenodd"
            d="M13.7068 22.8799C13.8135 22.8799 13.9201 22.8799 14.0268 22.8799C14.0268 22.9865 14.0268 23.0932 14.0268 23.1999C13.9201 23.1999 13.8135 23.1999 13.7068 23.1999C13.7068 23.0932 13.7068 22.9865 13.7068 22.8799Z"
            fill="#C6C8CB" />
        <path fill-rule="evenodd" clip-rule="evenodd"
            d="M17.1201 23.0934C17.2455 23.07 17.3521 23.1055 17.4401 23.2C17.2746 23.3385 17.1679 23.303 17.1201 23.0934Z"
            fill="#E0E1E2" />
        <path fill-rule="evenodd" clip-rule="evenodd"
            d="M17.6533 22.8799C17.76 22.8799 17.8667 22.8799 17.9733 22.8799C17.9733 22.9865 17.9733 23.0932 17.9733 23.1999C17.8667 23.1999 17.76 23.1999 17.6533 23.1999C17.6533 23.0932 17.6533 22.9865 17.6533 22.8799Z"
            fill="#B5B7BC" />
        <path fill-rule="evenodd" clip-rule="evenodd"
            d="M22.56 22.9868C22.6758 22.9996 22.747 23.0708 22.7733 23.2001C22.6674 23.6579 22.5963 24.12 22.56 24.5868C23.1013 24.5967 23.6347 24.6678 24.16 24.8001C24.0081 25.0367 23.7948 25.1967 23.52 25.2801C22.8889 25.3662 22.2667 25.3485 21.6533 25.2268C21.7172 24.3872 22.0195 23.6406 22.56 22.9868Z"
            fill="#EFF0F1" />
        <path fill-rule="evenodd" clip-rule="evenodd"
            d="M28.5334 22.9868C28.6401 22.9868 28.7468 22.9868 28.8534 22.9868C28.7739 23.3932 28.6672 23.3932 28.5334 22.9868Z"
            fill="#C6C8CB" />
        <path fill-rule="evenodd" clip-rule="evenodd"
            d="M14.24 22.9868C14.3467 22.9868 14.4533 22.9868 14.56 22.9868C14.56 23.0935 14.56 23.2001 14.56 23.3068C14.4533 23.3068 14.3467 23.3068 14.24 23.3068C14.24 23.2001 14.24 23.0935 14.24 22.9868Z"
            fill="#D2D3D5" />
        <path fill-rule="evenodd" clip-rule="evenodd"
            d="M14.6667 23.0933C14.7734 23.0933 14.8801 23.0933 14.9867 23.0933C14.9867 23.1999 14.9867 23.3066 14.9867 23.4133C14.8801 23.4133 14.7734 23.4133 14.6667 23.4133C14.6667 23.3066 14.6667 23.1999 14.6667 23.0933Z"
            fill="#C6C8CB" />
        <path fill-rule="evenodd" clip-rule="evenodd"
            d="M15.2 23.0933C15.3066 23.0933 15.4133 23.0933 15.52 23.0933C15.52 23.2354 15.52 23.3777 15.52 23.5199C15.4133 23.5199 15.3066 23.5199 15.2 23.5199C15.2 23.3777 15.2 23.2354 15.2 23.0933Z"
            fill="#A6A9AE" />
        <path fill-rule="evenodd" clip-rule="evenodd"
            d="M16.1599 23.1998C16.2852 23.1765 16.3919 23.212 16.4799 23.3065C16.3144 23.4449 16.2077 23.4094 16.1599 23.1998Z"
            fill="#E2E3E4" />
        <path fill-rule="evenodd" clip-rule="evenodd"
            d="M16.6934 23.0933C16.8 23.0933 16.9067 23.0933 17.0134 23.0933C17.0134 23.1999 17.0134 23.3066 17.0134 23.4133C16.9067 23.4133 16.8 23.4133 16.6934 23.4133C16.6934 23.3066 16.6934 23.1999 16.6934 23.0933Z"
            fill="#D1D2D5" />
        <path fill-rule="evenodd" clip-rule="evenodd"
            d="M15.7334 23.2002C15.8046 23.4847 15.8756 23.4847 15.9468 23.2002C16.0432 23.2758 16.0787 23.3825 16.0534 23.5202C15.9113 23.5202 15.769 23.5202 15.6268 23.5202C15.6015 23.3825 15.637 23.2758 15.7334 23.2002Z"
            fill="#7F8389" />
        <path fill-rule="evenodd" clip-rule="evenodd"
            d="M15.7334 23.2002C15.8045 23.2002 15.8756 23.2002 15.9467 23.2002C15.8756 23.4847 15.8045 23.4847 15.7334 23.2002Z"
            fill="#FBFBFB" />
        <path fill-rule="evenodd" clip-rule="evenodd"
            d="M28.32 23.3066C28.6474 23.356 28.7007 23.4982 28.48 23.7333C28.3533 23.6199 28.3 23.4776 28.32 23.3066Z"
            fill="#C9CBCE" />
        <path fill-rule="evenodd" clip-rule="evenodd"
            d="M3.25342 23.4136C3.36008 23.4136 3.46675 23.4136 3.57342 23.4136C3.49387 23.82 3.3872 23.82 3.25342 23.4136Z"
            fill="#D2D3D5" />
        <path fill-rule="evenodd" clip-rule="evenodd"
            d="M28 23.84C28.1253 23.8166 28.232 23.8521 28.32 23.9466C28.1545 24.0851 28.0478 24.0496 28 23.84Z"
            fill="#DEDFE0" />
        <path fill-rule="evenodd" clip-rule="evenodd"
            d="M3.57335 23.8398C3.94211 23.8577 3.97766 23.9643 3.68002 24.1598C3.58555 24.0718 3.54999 23.9652 3.57335 23.8398Z"
            fill="#D3D4D7" />
        <path fill-rule="evenodd" clip-rule="evenodd"
            d="M10.3999 24.0532C10.6362 24.1282 10.8318 24.2704 10.9866 24.4799C11.3094 24.9835 11.5761 25.5168 11.7866 26.0799C11.1707 26.3509 10.5306 26.4754 9.86656 26.4532C9.61651 26.3639 9.40318 26.2216 9.22656 26.0266C9.6821 25.8907 10.1266 25.7307 10.5599 25.5466C10.5287 25.0509 10.4754 24.5531 10.3999 24.0532Z"
            fill="#EEEFF0" />
        <path fill-rule="evenodd" clip-rule="evenodd"
            d="M21.1733 24.0534C21.2797 24.0502 21.3508 24.1035 21.3867 24.2134C21.2543 24.7248 21.1476 25.2405 21.0667 25.76C21.611 25.8683 22.1443 26.0106 22.6667 26.1867C22.4157 26.472 22.0957 26.6142 21.7067 26.6134C21.1367 26.5064 20.5679 26.3997 20 26.2934C20.1956 25.4396 20.5868 24.6929 21.1733 24.0534Z"
            fill="#EBECED" />
        <path fill-rule="evenodd" clip-rule="evenodd"
            d="M27.7867 24.1602C28.1253 24.2084 28.1608 24.315 27.8934 24.4802C27.7989 24.3922 27.7634 24.2855 27.7867 24.1602Z"
            fill="#DEDFE1" />
        <path fill-rule="evenodd" clip-rule="evenodd"
            d="M3.89342 24.2666C4.26218 24.2844 4.29773 24.3911 4.00009 24.5866C3.90561 24.4986 3.87006 24.3919 3.89342 24.2666Z"
            fill="#D0D1D3" />
        <path fill-rule="evenodd" clip-rule="evenodd"
            d="M4.21337 24.5864C4.3785 24.6207 4.44962 24.7273 4.4267 24.9064C4.13363 24.9169 4.06251 24.8102 4.21337 24.5864Z"
            fill="#CED0D2" />
        <path fill-rule="evenodd" clip-rule="evenodd"
            d="M27.4666 24.5864C27.5732 24.5864 27.6799 24.5864 27.7866 24.5864C27.707 24.9928 27.6003 24.9928 27.4666 24.5864Z"
            fill="#DBDDDF" />
        <path fill-rule="evenodd" clip-rule="evenodd"
            d="M13.92 26.7198C13.6711 26.791 13.4222 26.862 13.1733 26.9331C12.457 27.2334 11.7104 27.3224 10.9333 27.1998C10.8622 27.1287 10.7911 27.0576 10.72 26.9865C11.2324 26.7504 11.7657 26.5904 12.32 26.5065C12.1828 25.9292 11.9695 25.378 11.68 24.8531C11.7333 24.8353 11.7866 24.8176 11.84 24.7998C12.5558 25.4271 13.2491 26.0671 13.92 26.7198Z"
            fill="#F3F3F4" />
        <path fill-rule="evenodd" clip-rule="evenodd"
            d="M4.53335 25.0132C4.74291 25.061 4.77846 25.1676 4.64001 25.3332C4.42462 25.2657 4.38907 25.159 4.53335 25.0132Z"
            fill="#E4E5E6" />
        <path fill-rule="evenodd" clip-rule="evenodd"
            d="M27.1467 25.0133C27.2721 24.9899 27.3787 25.0255 27.4667 25.12C27.3012 25.2584 27.1945 25.2229 27.1467 25.0133Z"
            fill="#DEDFE1" />
        <path fill-rule="evenodd" clip-rule="evenodd"
            d="M26.9333 25.3335C27.1429 25.3813 27.1784 25.4879 27.0399 25.6535C26.8246 25.586 26.7889 25.4793 26.9333 25.3335Z"
            fill="#DDDEE0" />
        <path fill-rule="evenodd" clip-rule="evenodd"
            d="M4.74656 25.4399C5.07164 25.4393 5.12497 25.546 4.90656 25.7599C4.79578 25.6806 4.74244 25.5739 4.74656 25.4399Z"
            fill="#D8D9DB" />
        <path fill-rule="evenodd" clip-rule="evenodd"
            d="M5.17324 25.7598C5.3828 25.8076 5.41835 25.9142 5.27991 26.0798C5.06452 26.0122 5.02896 25.9056 5.17324 25.7598Z"
            fill="#DBDCDE" />
        <path fill-rule="evenodd" clip-rule="evenodd"
            d="M26.5066 25.7599C26.6319 25.7365 26.7386 25.772 26.8266 25.8665C26.661 26.005 26.5544 25.9695 26.5066 25.7599Z"
            fill="#DDDEE0" />
        <path fill-rule="evenodd" clip-rule="evenodd"
            d="M5.70676 26.1869C5.70676 26.3291 5.63565 26.4002 5.49343 26.4002C5.3841 26.3579 5.36632 26.2868 5.4401 26.1869C5.54433 26.051 5.63323 26.051 5.70676 26.1869Z"
            fill="#CDCED1" />
        <path fill-rule="evenodd" clip-rule="evenodd"
            d="M26.1867 26.0801C26.5119 26.0794 26.5652 26.1861 26.3467 26.4001C26.2359 26.3207 26.1826 26.2141 26.1867 26.0801Z"
            fill="#DBDCDE" />
        <path fill-rule="evenodd" clip-rule="evenodd"
            d="M5.70674 26.1865C5.81341 26.2932 5.92007 26.3999 6.02674 26.5065C5.88452 26.5065 5.81341 26.5777 5.81341 26.7199C5.70674 26.6132 5.60007 26.5065 5.49341 26.3999C5.63563 26.3999 5.70674 26.3287 5.70674 26.1865Z"
            fill="#595E67" />
        <path fill-rule="evenodd" clip-rule="evenodd"
            d="M25.8666 26.3999C26.2051 26.4481 26.2406 26.5548 25.9732 26.7199C25.8787 26.6319 25.8432 26.5252 25.8666 26.3999Z"
            fill="#E3E4E6" />
        <path fill-rule="evenodd" clip-rule="evenodd"
            d="M6.02657 26.5068C6.0845 26.5132 6.12005 26.5488 6.13323 26.6135C6.04523 26.708 5.93857 26.7435 5.81323 26.7202C5.81323 26.578 5.88435 26.5068 6.02657 26.5068Z"
            fill="#DCDDDF" />
        <path fill-rule="evenodd" clip-rule="evenodd"
            d="M13.92 26.7202C14.1853 26.808 14.4342 26.9147 14.6667 27.0402C14.5955 27.0402 14.56 27.0757 14.56 27.1469C14.1194 26.9674 13.6572 26.8962 13.1733 26.9335C13.4222 26.8624 13.6712 26.7914 13.92 26.7202Z"
            fill="#A8ABB0" />
        <path fill-rule="evenodd" clip-rule="evenodd"
            d="M25.5468 26.7202C25.7564 26.768 25.7919 26.8747 25.6535 27.0402C25.4381 26.9727 25.4025 26.866 25.5468 26.7202Z"
            fill="#DDDEE0" />
        <path fill-rule="evenodd" clip-rule="evenodd"
            d="M6.13328 26.8267C6.45836 26.826 6.51169 26.9327 6.29328 27.1467C6.18249 27.0673 6.12916 26.9606 6.13328 26.8267Z"
            fill="#D9DADC" />
        <path fill-rule="evenodd" clip-rule="evenodd"
            d="M14.5599 27.1465C14.5599 27.0753 14.5954 27.0398 14.6666 27.0398C16.0492 27.2186 17.3292 26.9519 18.5066 26.2398C18.8417 25.638 19.3039 25.158 19.8932 24.7998C19.9288 24.8531 19.9644 24.9065 19.9999 24.9598C19.7569 25.46 19.5969 25.9755 19.5199 26.5065C19.9981 26.7372 20.4781 26.9683 20.9599 27.1998C20.6174 27.3436 20.2619 27.4326 19.8932 27.4665C19.4382 27.3853 19.0115 27.2253 18.6132 26.9865C17.9049 26.8365 17.2649 26.9787 16.6932 27.4131C17.085 27.6622 17.5117 27.8222 17.9732 27.8931C17.9955 28.1293 17.9067 28.3071 17.7066 28.4265C17.0171 28.126 16.3238 27.8415 15.6266 27.5731C15.0116 27.7916 14.4072 28.0404 13.8132 28.3198C13.501 28.2464 13.4299 28.0686 13.5999 27.7865C14.0075 27.6568 14.3986 27.4968 14.7732 27.3065C14.7152 27.23 14.6441 27.1767 14.5599 27.1465Z"
            fill="#EDEEEF" />
        <path fill-rule="evenodd" clip-rule="evenodd"
            d="M25.1201 27.04C25.5265 27.1738 25.5265 27.2805 25.1201 27.36C25.1201 27.2534 25.1201 27.1467 25.1201 27.04Z"
            fill="#D4D6D8" />
        <path fill-rule="evenodd" clip-rule="evenodd"
            d="M6.55993 27.1465C6.92868 27.1643 6.96423 27.271 6.66659 27.4665C6.57212 27.3785 6.53657 27.2718 6.55993 27.1465Z"
            fill="#CBCDCF" />
        <path fill-rule="evenodd" clip-rule="evenodd"
            d="M6.98675 27.3599C7.21338 27.4524 7.23116 27.5591 7.04008 27.6799C6.86053 27.6078 6.84276 27.5011 6.98675 27.3599Z"
            fill="#DCDDDE" />
        <path fill-rule="evenodd" clip-rule="evenodd"
            d="M24.8 27.3599C25.0096 27.4076 25.0451 27.5143 24.9066 27.6799C24.6913 27.6123 24.6556 27.5057 24.8 27.3599Z"
            fill="#DDDEE0" />
        <path fill-rule="evenodd" clip-rule="evenodd"
            d="M7.30664 27.6802C7.71304 27.8139 7.71304 27.9206 7.30664 28.0002C7.30664 27.8935 7.30664 27.7868 7.30664 27.6802Z"
            fill="#D3D4D6" />
        <path fill-rule="evenodd" clip-rule="evenodd"
            d="M24.3734 27.6802C24.712 27.7284 24.7475 27.8351 24.4801 28.0002C24.3856 27.9122 24.35 27.8055 24.3734 27.6802Z"
            fill="#DBDCDE" />
        <path fill-rule="evenodd" clip-rule="evenodd"
            d="M24.0534 27.8936C24.2801 27.9861 24.2978 28.0928 24.1067 28.2136C23.9272 28.1414 23.9094 28.0348 24.0534 27.8936Z"
            fill="#DCDDDF" />
        <path fill-rule="evenodd" clip-rule="evenodd"
            d="M7.73327 28C8.10202 28.0178 8.13757 28.1245 7.83993 28.32C7.74546 28.232 7.70991 28.1253 7.73327 28Z"
            fill="#D7D8DA" />
        <path fill-rule="evenodd" clip-rule="evenodd"
            d="M8.16002 28.2134C8.49859 28.2616 8.53416 28.3683 8.26669 28.5334C8.17222 28.4454 8.13666 28.3387 8.16002 28.2134Z"
            fill="#DADBDD" />
        <path fill-rule="evenodd" clip-rule="evenodd"
            d="M23.52 28.2134C23.6267 28.2134 23.7334 28.2134 23.84 28.2134C23.84 28.32 23.84 28.4267 23.84 28.5334C23.7334 28.5334 23.6267 28.5334 23.52 28.5334C23.52 28.4267 23.52 28.32 23.52 28.2134Z"
            fill="#CBCDD0" />
        <path fill-rule="evenodd" clip-rule="evenodd"
            d="M23.1999 28.4268C23.4265 28.5193 23.4443 28.626 23.2532 28.7468C23.0737 28.6747 23.0559 28.568 23.1999 28.4268Z"
            fill="#DDDEE0" />
        <path fill-rule="evenodd" clip-rule="evenodd"
            d="M8.47998 28.5332C8.63761 28.5052 8.77984 28.5407 8.90665 28.6398C8.69721 28.9272 8.55499 28.8917 8.47998 28.5332Z"
            fill="#BFC1C4" />
        <path fill-rule="evenodd" clip-rule="evenodd"
            d="M9.01329 28.7466C9.22285 28.7944 9.2584 28.901 9.11996 29.0666C9.02549 28.9786 8.98993 28.8719 9.01329 28.7466Z"
            fill="#E6E6E8" />
        <path fill-rule="evenodd" clip-rule="evenodd"
            d="M22.6666 28.7466C23.0354 28.7644 23.0709 28.8711 22.7733 29.0666C22.6788 28.9786 22.6433 28.8719 22.6666 28.7466Z"
            fill="#CCCDD0" />
        <path fill-rule="evenodd" clip-rule="evenodd"
            d="M9.44005 28.96C9.80881 28.9778 9.84436 29.0844 9.54672 29.28C9.45224 29.192 9.41669 29.0853 9.44005 28.96Z"
            fill="#D6D8DA" />
        <path fill-rule="evenodd" clip-rule="evenodd"
            d="M22.2401 28.96C22.6089 28.9778 22.6444 29.0844 22.3468 29.28C22.2523 29.192 22.2167 29.0853 22.2401 28.96Z"
            fill="#D1D2D5" />
        <path fill-rule="evenodd" clip-rule="evenodd"
            d="M9.86657 29.1733C10.2353 29.1912 10.2709 29.2978 9.97323 29.4933C9.87876 29.4053 9.84321 29.2987 9.86657 29.1733Z"
            fill="#D8DADC" />
        <path fill-rule="evenodd" clip-rule="evenodd"
            d="M21.8133 29.1733C22.1821 29.1912 22.2176 29.2978 21.92 29.4933C21.8255 29.4053 21.79 29.2987 21.8133 29.1733Z"
            fill="#CED0D2" />
        <path fill-rule="evenodd" clip-rule="evenodd"
            d="M10.2932 29.3867C10.3999 29.3867 10.5065 29.3867 10.6132 29.3867C10.5337 29.7931 10.427 29.7931 10.2932 29.3867Z"
            fill="#C9CBCD" />
        <path fill-rule="evenodd" clip-rule="evenodd"
            d="M21.3867 29.2801C21.5462 29.271 21.6528 29.342 21.7067 29.4934C21.5645 29.6356 21.4222 29.6356 21.28 29.4934C21.3187 29.4205 21.3543 29.3494 21.3867 29.2801Z"
            fill="#B9BCC0" />
        <path fill-rule="evenodd" clip-rule="evenodd"
            d="M10.8266 29.4932C11.0533 29.5858 11.071 29.6924 10.8799 29.8132C10.7004 29.7411 10.6826 29.6344 10.8266 29.4932Z"
            fill="#DADBDD" />
        <path fill-rule="evenodd" clip-rule="evenodd"
            d="M20.8533 29.4932C20.9599 29.4932 21.0666 29.4932 21.1733 29.4932C21.1733 29.5998 21.1733 29.7065 21.1733 29.8132C21.0666 29.8132 20.9599 29.8132 20.8533 29.8132C20.8533 29.7065 20.8533 29.5998 20.8533 29.4932Z"
            fill="#CED0D2" />
        <path fill-rule="evenodd" clip-rule="evenodd"
            d="M11.2533 29.7065C11.622 29.7244 11.6576 29.831 11.36 30.0265C11.2654 29.9385 11.2299 29.8319 11.2533 29.7065Z"
            fill="#D4D5D7" />
        <path fill-rule="evenodd" clip-rule="evenodd"
            d="M20.4266 29.7065C20.7954 29.7244 20.8309 29.831 20.5333 30.0265C20.4388 29.9385 20.4033 29.8319 20.4266 29.7065Z"
            fill="#D0D2D4" />
        <path fill-rule="evenodd" clip-rule="evenodd"
            d="M19.8933 29.8135C20 29.8135 20.1066 29.8135 20.2133 29.8135C20.2133 29.9201 20.2133 30.0268 20.2133 30.1335C20.1066 30.1335 20 30.1335 19.8933 30.1335C19.8933 30.0268 19.8933 29.9201 19.8933 29.8135Z"
            fill="#CDCED1" />
        <path fill-rule="evenodd" clip-rule="evenodd"
            d="M11.6799 29.8135C11.7866 29.8135 11.8933 29.8135 11.9999 29.8135C11.9999 29.9201 11.9999 30.0268 11.9999 30.1335C11.8933 30.1335 11.7866 30.1335 11.6799 30.1335C11.6799 30.0268 11.6799 29.9201 11.6799 29.8135Z"
            fill="#D3D4D6" />
        <path fill-rule="evenodd" clip-rule="evenodd"
            d="M12.2134 29.9199C12.3785 29.9542 12.4496 30.0608 12.4267 30.2399C12.1336 30.2504 12.0625 30.1437 12.2134 29.9199Z"
            fill="#CBCDD0" />
        <path fill-rule="evenodd" clip-rule="evenodd"
            d="M19.2534 30.1331C19.1112 30.1331 19.0401 30.2043 19.0401 30.3464C18.9437 30.2708 18.9081 30.1641 18.9334 30.0264C19.0711 30.0012 19.1778 30.0367 19.2534 30.1331Z"
            fill="#878B91" />
        <path fill-rule="evenodd" clip-rule="evenodd"
            d="M19.2534 30.1333C19.2534 30.2755 19.1822 30.3466 19.04 30.3466C19.04 30.2044 19.1112 30.1333 19.2534 30.1333Z"
            fill="#FAFAFA" />
        <path fill-rule="evenodd" clip-rule="evenodd"
            d="M19.4666 29.9199C19.5732 29.9199 19.6799 29.9199 19.7866 29.9199C19.7866 30.0266 19.7866 30.1333 19.7866 30.2399C19.6799 30.2399 19.5732 30.2399 19.4666 30.2399C19.4666 30.1333 19.4666 30.0266 19.4666 29.9199Z"
            fill="#BEC0C4" />
        <path fill-rule="evenodd" clip-rule="evenodd"
            d="M12.6399 30.0269C12.7466 30.0269 12.8532 30.0269 12.9599 30.0269C12.9599 30.1335 12.9599 30.2402 12.9599 30.3469C12.8532 30.3469 12.7466 30.3469 12.6399 30.3469C12.6399 30.2402 12.6399 30.1335 12.6399 30.0269Z"
            fill="#BCBEC1" />
        <path fill-rule="evenodd" clip-rule="evenodd"
            d="M13.1733 30.1333C13.3384 30.1675 13.4096 30.2742 13.3867 30.4533C13.0935 30.4638 13.0225 30.3571 13.1733 30.1333Z"
            fill="#CBCDD0" />
        <path fill-rule="evenodd" clip-rule="evenodd"
            d="M13.6001 30.2402C13.7068 30.2402 13.8134 30.2402 13.9201 30.2402C13.9201 30.3469 13.9201 30.4536 13.9201 30.5602C13.8134 30.5602 13.7068 30.5602 13.6001 30.5602C13.6001 30.4536 13.6001 30.3469 13.6001 30.2402Z"
            fill="#D1D2D5" />
        <path fill-rule="evenodd" clip-rule="evenodd"
            d="M18.5066 30.1333C18.6133 30.1333 18.7199 30.1333 18.8266 30.1333C18.8266 30.24 18.8266 30.3466 18.8266 30.4533C18.7199 30.4533 18.6133 30.4533 18.5066 30.4533C18.5066 30.3466 18.5066 30.24 18.5066 30.1333Z"
            fill="#C2C4C7" />
        <path fill-rule="evenodd" clip-rule="evenodd"
            d="M14.5601 30.3467C14.6667 30.3467 14.7734 30.3467 14.8801 30.3467C14.8801 30.4533 14.8801 30.56 14.8801 30.6667C14.7734 30.6667 14.6667 30.6667 14.5601 30.6667C14.5601 30.56 14.5601 30.4533 14.5601 30.3467Z"
            fill="#D2D3D6" />
        <path fill-rule="evenodd" clip-rule="evenodd"
            d="M15.0933 30.4531C15.3777 30.5243 15.3777 30.5953 15.0933 30.6665C15.0933 30.5953 15.0933 30.5243 15.0933 30.4531Z"
            fill="#F9F9FA" />
        <path fill-rule="evenodd" clip-rule="evenodd"
            d="M15.8401 30.4531C15.8401 30.5243 15.8401 30.5953 15.8401 30.6665C15.5556 30.5953 15.5556 30.5243 15.8401 30.4531Z"
            fill="#FDFDFD" />
        <path fill-rule="evenodd" clip-rule="evenodd"
            d="M16.5867 30.4531C16.7826 30.468 16.8182 30.5391 16.6934 30.6665C16.6082 30.6177 16.5727 30.5466 16.5867 30.4531Z"
            fill="#FDFDFD" />
        <path fill-rule="evenodd" clip-rule="evenodd"
            d="M17.0134 30.3467C17.1201 30.3467 17.2268 30.3467 17.3334 30.3467C17.3334 30.4533 17.3334 30.56 17.3334 30.6667C17.2268 30.6667 17.1201 30.6667 17.0134 30.6667C17.0134 30.56 17.0134 30.4533 17.0134 30.3467Z"
            fill="#D3D4D7" />
        <path fill-rule="evenodd" clip-rule="evenodd"
            d="M17.76 30.3467C17.76 30.4889 17.6888 30.56 17.5466 30.56C17.5466 30.4178 17.6178 30.3467 17.76 30.3467Z"
            fill="#F3F4F5" />
        <path fill-rule="evenodd" clip-rule="evenodd"
            d="M17.9734 30.2402C18.0801 30.2402 18.1867 30.2402 18.2934 30.2402C18.2934 30.3469 18.2934 30.4536 18.2934 30.5602C18.1867 30.5602 18.0801 30.5602 17.9734 30.5602C17.9734 30.4536 17.9734 30.3469 17.9734 30.2402Z"
            fill="#C4C6C9" />
        <path fill-rule="evenodd" clip-rule="evenodd"
            d="M14.1333 30.3467C14.2045 30.6312 14.2755 30.6312 14.3467 30.3467C14.4431 30.4223 14.4786 30.529 14.4533 30.6667C14.3112 30.6667 14.1689 30.6667 14.0267 30.6667C14.0014 30.529 14.0369 30.4223 14.1333 30.3467Z"
            fill="#7B8086" />
        <path fill-rule="evenodd" clip-rule="evenodd"
            d="M14.1333 30.3467C14.2044 30.3467 14.2755 30.3467 14.3466 30.3467C14.2755 30.6312 14.2044 30.6312 14.1333 30.3467Z"
            fill="#FBFBFC" />
        <path fill-rule="evenodd" clip-rule="evenodd"
            d="M15.0933 30.4534C15.1689 30.357 15.2756 30.3215 15.4133 30.3467C15.4133 30.4889 15.4133 30.6312 15.4133 30.7734C15.2756 30.7987 15.1689 30.7632 15.0933 30.6667C15.3777 30.5956 15.3777 30.5246 15.0933 30.4534Z"
            fill="#878B91" />
        <path fill-rule="evenodd" clip-rule="evenodd"
            d="M15.84 30.4534C15.5555 30.5246 15.5555 30.5956 15.84 30.6667C15.7644 30.7632 15.6577 30.7987 15.52 30.7734C15.52 30.6312 15.52 30.4889 15.52 30.3467C15.6577 30.3215 15.7644 30.357 15.84 30.4534Z"
            fill="#777C83" />
        <path fill-rule="evenodd" clip-rule="evenodd"
            d="M16.0532 30.4532C16.1786 30.4299 16.2852 30.4654 16.3732 30.5599C16.2077 30.6984 16.101 30.6628 16.0532 30.4532Z"
            fill="#DEDFE0" />
        <path fill-rule="evenodd" clip-rule="evenodd"
            d="M17.76 30.3467C17.8564 30.4223 17.8919 30.529 17.8666 30.6667C17.7289 30.692 17.6223 30.6564 17.5466 30.56C17.6888 30.56 17.76 30.4889 17.76 30.3467Z"
            fill="#898D93" />
    </g>
    <defs>
        <clipPath id="clip0_2876_250">
            <rect width="32" height="32" fill="white" />
        </clipPath>
    </defs>
</svg>