<svg xmlns="http://www.w3.org/2000/svg" width="288" height="288" fill="none"><rect width="260" height="260" y="28" fill="#0073AA" rx="40"/><rect width="96" height="96" x="192" fill="#191E23" rx="26"/><rect width="17.369" height="17.369" x="219.218" y="20.009" fill="#fff" rx="2.546"/><path fill="#fff" d="M219.218 49.746v24.617a2.546 2.546 0 0 0 2.546 2.546h12.278a2.545 2.545 0 0 0 2.545-2.546V42.337c0-1.982-2.164-3.203-3.86-2.18l-12.279 7.41a2.547 2.547 0 0 0-1.23 2.18ZM238.983 34.833V22.555a2.546 2.546 0 0 1 2.545-2.546h13.177c.864 0 1.693.34 2.309.946l7.128 7.009c.573.563.895 1.332.895 2.135v17.03c0 .803-.323 1.572-.895 2.135l-7.271 7.15a2.547 2.547 0 0 1-1.785.73h-13.558a2.546 2.546 0 0 1-2.545-2.546V42.32a2.546 2.546 0 0 1 2.545-2.546h13.477a1.198 1.198 0 0 0 0-2.395h-13.477a2.546 2.546 0 0 1-2.545-2.546Z"/><path fill="#fff" fill-rule="evenodd" d="M156.909 107h-74a5 5 0 0 0-5 5v48a5 5 0 0 0 5 5h74a5 5 0 0 0 5-5v-48a5 5 0 0 0-5-5Zm-74-7c-6.628 0-12 5.373-12 12v48c0 6.627 5.372 12 12 12h74c6.627 0 12-5.373 12-12v-48c0-6.627-5.373-12-12-12h-74Z" clip-rule="evenodd"/><path fill="#fff" d="M71 113.131C71 105.879 76.88 100 84.131 100h71.738c7.252 0 13.131 5.879 13.131 13.131V117H71v-3.869Z"/><circle cx="84.916" cy="109.377" r="4.377" fill="#0073AA"/><circle cx="97.171" cy="109.377" r="4.377" fill="#0073AA"/><circle cx="109.428" cy="109.377" r="4.377" fill="#0073AA"/><path fill="#fff" d="M68.754 169.869A12 12 0 0 1 78.406 165h86.006a12 12 0 0 1 9.787 5.056l11.96 16.855c3.289 4.635-.026 11.051-5.709 11.051H61.875c-5.745 0-9.044-6.539-5.63-11.159l12.51-16.934Z"/><path fill="#0073AA" d="M152 146c0-6.627 5.373-12 12-12h26c6.627 0 12 5.373 12 12v59c0 6.627-5.373 12-12 12h-26c-6.627 0-12-5.373-12-12v-59Z"/><path fill="#fff" fill-rule="evenodd" d="M190 141h-26a5 5 0 0 0-5 5v59a5 5 0 0 0 5 5h26a5 5 0 0 0 5-5v-59a5 5 0 0 0-5-5Zm-26-7c-6.627 0-12 5.373-12 12v59c0 6.627 5.373 12 12 12h26c6.627 0 12-5.373 12-12v-59c0-6.627-5.373-12-12-12h-26Z" clip-rule="evenodd"/><path fill="#fff" d="M152 199h50v4.869c0 7.252-5.879 13.131-13.131 13.131h-23.738c-7.252 0-13.131-5.879-13.131-13.131V199Z"/><circle cx="177.71" cy="208.088" r="4.377" fill="#0073AA"/></svg>