<svg width="32" height="32" viewBox="0 0 32 32" fill="none" xmlns="http://www.w3.org/2000/svg">
    <g clip-path="url(#clip0_4429_185)">
        <path fill-rule="evenodd" clip-rule="evenodd"
            d="M-0.0800781 -0.0800781C10.5866 -0.0800781 21.2532 -0.0800781 31.9199 -0.0800781C31.9199 10.5866 31.9199 21.2532 31.9199 31.9199C21.2532 31.9199 10.5866 31.9199 -0.0800781 31.9199C-0.0800781 21.2532 -0.0800781 10.5866 -0.0800781 -0.0800781Z"
            fill="#FDFEFD" />
        <path fill-rule="evenodd" clip-rule="evenodd"
            d="M20.3999 4.24043C19.5511 4.12936 18.6978 4.07601 17.8399 4.08043C17.8658 4.4048 17.8391 4.7248 17.7599 5.04043C17.6804 4.61707 17.6536 4.1904 17.6799 3.76043C17.4666 3.76043 17.2532 3.76043 17.0399 3.76043C17.0399 4.3471 17.0399 4.93376 17.0399 5.52043C17.9796 5.5963 18.8861 5.78296 19.7599 6.08043C19.9008 6.19376 20.0074 6.32709 20.0799 6.48043C19.046 6.10017 17.9794 5.88683 16.8799 5.84043C16.8799 5.04043 16.8799 4.24043 16.8799 3.44043C18.0967 3.58736 19.27 3.85403 20.3999 4.24043Z"
            fill="#449ADF" />
        <path fill-rule="evenodd" clip-rule="evenodd"
            d="M14.0002 5.84043C14.2272 5.68825 14.4938 5.63491 14.8002 5.68043C14.8002 5.04043 14.8002 4.40043 14.8002 3.76043C14.2669 3.76043 13.7335 3.76043 13.2002 3.76043C13.756 3.59645 14.3426 3.48977 14.9602 3.44043C14.9602 4.24043 14.9602 5.04043 14.9602 5.84043C14.6402 5.84043 14.3202 5.84043 14.0002 5.84043Z"
            fill="#7BB57E" />
        <path fill-rule="evenodd" clip-rule="evenodd"
            d="M13.2001 3.75977C13.7334 3.75977 14.2667 3.75977 14.8001 3.75977C14.8001 4.39977 14.8001 5.03977 14.8001 5.67977C14.4937 5.63425 14.2271 5.68759 14.0001 5.83977C10.2228 6.73679 7.71609 9.03012 6.48006 12.7198C6.32071 12.706 6.18739 12.7594 6.08006 12.8798C6.0006 13.2493 5.97393 13.6227 6.00006 13.9998C5.58095 14.0427 5.18095 13.9894 4.80006 13.8398C4.73758 13.1975 4.65758 12.5575 4.56006 11.9198C4.78718 11.3573 4.89385 10.7706 4.88006 10.1598C5.27014 9.181 5.85679 8.32767 6.64006 7.59977C6.9274 7.39293 7.19406 7.15293 7.44006 6.87977C7.75569 6.80049 8.07569 6.77383 8.40006 6.79977C8.48203 6.26498 8.80203 5.97165 9.36006 5.91977C9.60875 5.54045 9.87542 5.19378 10.1601 4.87977C11.0549 4.24063 12.0683 3.8673 13.2001 3.75977Z"
            fill="#4EAF52" />
        <path fill-rule="evenodd" clip-rule="evenodd"
            d="M10.1602 4.87988C9.87558 5.1939 9.60891 5.54057 9.36022 5.91988C8.80219 5.97177 8.48219 6.2651 8.40022 6.79988C8.07585 6.77395 7.75585 6.8006 7.44022 6.87988C7.19422 7.15305 6.92756 7.39305 6.64022 7.59988C6.61926 7.48166 6.64593 7.37499 6.72022 7.27988C7.67729 6.18649 8.82396 5.38649 10.1602 4.87988Z"
            fill="#61AF64" />
        <path fill-rule="evenodd" clip-rule="evenodd"
            d="M20.4 4.23977C22.9464 5.18663 24.973 6.78663 26.48 9.03977C27.0356 9.93613 27.4088 10.8961 27.6 11.9198C27.5655 12.5577 27.6722 13.171 27.92 13.7598C27.8668 13.8398 27.8133 13.9198 27.76 13.9998C27.6 13.8931 27.44 13.7864 27.28 13.6798C26.8461 13.9614 26.3661 14.0681 25.84 13.9998C25.8648 13.4852 25.7048 13.0585 25.36 12.7198C24.8872 11.4541 24.2472 10.2808 23.44 9.19977C22.5314 8.02631 21.4114 7.11964 20.08 6.47977C20.0076 6.32642 19.901 6.19309 19.76 6.07977C18.8863 5.78229 17.9797 5.59564 17.04 5.51977C17.04 4.93309 17.04 4.34644 17.04 3.75977C17.2533 3.75977 17.4668 3.75977 17.68 3.75977C17.6538 4.18973 17.6805 4.61641 17.76 5.03977C17.8392 4.72413 17.866 4.40413 17.84 4.07977C18.698 4.07535 19.5512 4.12869 20.4 4.23977Z"
            fill="#2996EF" />
        <path fill-rule="evenodd" clip-rule="evenodd"
            d="M23.4399 9.2002C24.2471 10.2812 24.8871 11.4546 25.3599 12.7202C25.3719 13.1532 25.4252 13.5798 25.5199 14.0002C25.3604 14.005 25.2537 13.925 25.1999 13.7602C24.8127 12.9673 24.5462 12.1139 24.3999 11.2002C24.0337 10.5451 23.7137 9.87844 23.4399 9.2002Z"
            fill="#DBF5FB" />
        <path fill-rule="evenodd" clip-rule="evenodd"
            d="M27.5999 11.9199C27.9995 12.872 28.2128 13.8853 28.2399 14.9599C27.3331 14.9599 26.4266 14.9599 25.5199 14.9599C25.5199 14.6399 25.5199 14.3199 25.5199 13.9999C25.4251 13.5796 25.3719 13.1529 25.3599 12.7199C25.7047 13.0587 25.8647 13.4854 25.8399 13.9999C26.3659 14.0682 26.8459 13.9616 27.2799 13.6799C27.4399 13.7866 27.5999 13.8932 27.7599 13.9999C27.8131 13.9199 27.8666 13.8399 27.9199 13.7599C27.672 13.1712 27.5653 12.5579 27.5999 11.9199Z"
            fill="#3E96DE" />
        <path fill-rule="evenodd" clip-rule="evenodd"
            d="M4.88009 10.1602C4.89388 10.771 4.78721 11.3576 4.56009 11.9202C4.65761 12.5579 4.73761 13.1979 4.80009 13.8402C5.18099 13.9898 5.58099 14.0431 6.00009 14.0002C5.97396 13.6231 6.00064 13.2497 6.08009 12.8802C6.18742 12.7598 6.32075 12.7064 6.48009 12.7202C6.37983 13.4627 6.32651 14.2094 6.32009 14.9602C5.41342 14.9602 4.50676 14.9602 3.60009 14.9602C3.55294 14.6025 3.60627 14.2825 3.76009 14.0002C3.83841 12.6177 4.21174 11.3377 4.88009 10.1602Z"
            fill="#5BAC60" />
        <path fill-rule="evenodd" clip-rule="evenodd"
            d="M3.75977 13.9999C3.86593 13.7532 3.9726 13.4865 4.07977 13.1999C4.34644 12.9332 4.50644 12.9865 4.55977 13.3599C4.51809 13.6298 4.41141 13.8698 4.23977 14.0799C4.82402 14.1596 5.41069 14.1863 5.99977 14.1599C5.99977 14.3199 5.99977 14.4799 5.99977 14.6399C5.26071 14.77 4.51404 14.8234 3.75977 14.7999C3.75977 14.5332 3.75977 14.2665 3.75977 13.9999Z"
            fill="#4EAE50" />
        <path fill-rule="evenodd" clip-rule="evenodd"
            d="M25.6802 14.1602C26.4802 14.1602 27.2802 14.1602 28.0802 14.1602C28.0802 14.3735 28.0802 14.5868 28.0802 14.8002C27.2802 14.8002 26.4802 14.8002 25.6802 14.8002C25.6802 14.5868 25.6802 14.3735 25.6802 14.1602Z"
            fill="#2595F5" />
        <path fill-rule="evenodd" clip-rule="evenodd"
            d="M6.3201 17.8399C6.18586 17.6573 6.07919 17.444 6.0001 17.1999C5.26096 17.041 4.51429 16.9876 3.7601 17.0399C4.00922 18.6229 4.38256 20.1695 4.8801 21.6799C4.15039 20.1664 3.72373 18.5664 3.6001 16.8799C4.50677 16.8799 5.41343 16.8799 6.3201 16.8799C6.3201 17.1999 6.3201 17.5199 6.3201 17.8399Z"
            fill="#D04371" />
        <path fill-rule="evenodd" clip-rule="evenodd"
            d="M28.0801 17.84C28.0801 18.2668 28.0801 18.6933 28.0801 19.12C27.5337 20.8077 26.707 22.3543 25.6001 23.76C25.5229 23.9117 25.4963 24.0717 25.5201 24.24C25.3601 24.24 25.2001 24.24 25.0401 24.24C25.064 24.4084 25.0374 24.5684 24.9601 24.72C23.7958 25.8068 22.4891 26.66 21.0401 27.28C20.2467 27.2605 19.6067 27.5272 19.1201 28.08C18.9069 28.08 18.6934 28.08 18.4801 28.08C18.0001 28.08 17.5201 28.08 17.0401 28.08C17.0137 27.4909 17.0403 26.9044 17.1201 26.32C17.3797 26.2242 17.6197 26.1175 17.8401 26C17.8401 25.9468 17.8401 25.8933 17.8401 25.84C18.727 25.725 19.5805 25.5116 20.4001 25.2C20.8675 25.2567 21.2408 25.0967 21.5201 24.72C21.843 24.9301 22.0297 24.8236 22.0801 24.4C22.1334 24.4533 22.1869 24.5068 22.2401 24.56C22.4555 24.1202 22.6689 24.0668 22.8801 24.4C23.2224 23.6656 23.5157 22.9189 23.7601 22.16C24.4291 21.386 24.8558 20.4794 25.0401 19.44C25.2593 18.941 25.4193 18.4077 25.5201 17.84C25.6723 17.613 25.7256 17.3464 25.6801 17.04C26.4801 17.04 27.2801 17.04 28.0801 17.04C28.0801 17.3068 28.0801 17.5733 28.0801 17.84Z"
            fill="#FA980F" />
        <path fill-rule="evenodd" clip-rule="evenodd"
            d="M28.08 19.1196C28.08 18.6929 28.08 18.2663 28.08 17.8396C28.2338 17.5572 28.2872 17.2372 28.24 16.8796C27.3333 16.8796 26.4268 16.8796 25.52 16.8796C25.52 17.1996 25.52 17.5196 25.52 17.8396C25.4192 18.4073 25.2592 18.9405 25.04 19.4396C25.0922 18.4633 25.2255 17.5033 25.44 16.5596C26.3685 16.7701 27.3018 16.7701 28.24 16.5596C28.2933 16.9863 28.3468 17.4129 28.4 17.8396C28.3965 18.334 28.29 18.7607 28.08 19.1196Z"
            fill="#FEF7D8" />
        <path fill-rule="evenodd" clip-rule="evenodd"
            d="M28.08 17.8399C28.08 17.5732 28.08 17.3066 28.08 17.0399C27.28 17.0399 26.48 17.0399 25.68 17.0399C25.7255 17.3463 25.6722 17.6128 25.52 17.8399C25.52 17.5199 25.52 17.1999 25.52 16.8799C26.4267 16.8799 27.3333 16.8799 28.24 16.8799C28.2872 17.2375 28.2338 17.5575 28.08 17.8399Z"
            fill="#E7A948" />
        <path fill-rule="evenodd" clip-rule="evenodd"
            d="M6.31977 17.8399C6.31977 17.9466 6.31977 18.0532 6.31977 18.1599C6.36573 19.2407 6.63241 20.2542 7.11977 21.1999C7.10245 21.3506 7.04913 21.4839 6.95977 21.5999C7.17714 21.7926 7.33714 22.0326 7.43977 22.3199C7.65817 22.1108 7.87151 22.1108 8.07977 22.3199C9.24549 23.7518 10.6855 24.8183 12.3998 25.5199C12.6046 25.7489 12.8713 25.8556 13.1998 25.8399C13.2484 25.9439 13.3017 26.0506 13.3598 26.1599C13.8283 26.3174 14.3083 26.3706 14.7998 26.3199C14.7998 26.9066 14.7998 27.4932 14.7998 28.0799C14.2664 28.0799 13.7331 28.0799 13.1998 28.0799C12.789 28.0446 12.4157 27.9378 12.0798 27.7599C11.5923 27.3295 11.0056 27.1161 10.3198 27.1199C7.86884 25.9471 6.05549 24.1338 4.87977 21.6799C4.38223 20.1695 4.00889 18.623 3.75977 17.0399C4.51396 16.9876 5.26063 17.041 5.99977 17.1999C6.07885 17.4441 6.18553 17.6574 6.31977 17.8399Z"
            fill="#E72263" />
        <path fill-rule="evenodd" clip-rule="evenodd"
            d="M6.31982 18.1602C6.60587 18.8726 6.84587 19.6194 7.03982 20.4002C7.40325 21.0427 7.74992 21.6827 8.07982 22.3202C7.87157 22.111 7.65822 22.111 7.43982 22.3202C7.3372 22.0328 7.1772 21.7928 6.95982 21.6002C7.04918 21.4842 7.10251 21.3509 7.11982 21.2002C6.63246 20.2544 6.36579 19.241 6.31982 18.1602Z"
            fill="#D83E6F" />
        <path fill-rule="evenodd" clip-rule="evenodd"
            d="M23.7599 22.1602C23.5154 22.919 23.2221 23.6658 22.8799 24.4002C22.6687 24.0669 22.4553 24.1203 22.2399 24.5602C22.1866 24.5069 22.1332 24.4534 22.0799 24.4002C22.0295 24.8237 21.8428 24.9302 21.5199 24.7202C21.2405 25.0968 20.8673 25.2568 20.3999 25.2002C21.6783 24.3723 22.7983 23.3589 23.7599 22.1602Z"
            fill="#F19F28" />
        <path fill-rule="evenodd" clip-rule="evenodd"
            d="M12.3999 25.5195C13.0942 25.6085 13.7876 25.7152 14.4799 25.8395C14.7246 25.8619 14.8846 25.9687 14.9599 26.1595C14.3645 26.0938 13.7778 25.9871 13.1999 25.8395C12.8714 25.8552 12.6048 25.7485 12.3999 25.5195Z"
            fill="#FBD3E5" />
        <path fill-rule="evenodd" clip-rule="evenodd"
            d="M13.2002 25.8398C13.7781 25.9874 14.3648 26.0941 14.9602 26.1598C14.9602 26.9066 14.9602 27.6531 14.9602 28.3998C14.3426 28.3506 13.756 28.2438 13.2002 28.0798C13.7335 28.0798 14.2669 28.0798 14.8002 28.0798C14.8002 27.4931 14.8002 26.9066 14.8002 26.3198C14.3087 26.3706 13.8287 26.3173 13.3602 26.1598C13.3022 26.0506 13.2488 25.9438 13.2002 25.8398Z"
            fill="#D23B6E" />
        <path fill-rule="evenodd" clip-rule="evenodd"
            d="M17.8401 25.8395C17.8401 25.8928 17.8401 25.9462 17.8401 25.9995C17.5254 25.9613 17.2319 26.0146 16.9601 26.1595C16.8803 26.9043 16.8535 27.6509 16.8801 28.3995C16.6961 27.629 16.6695 26.829 16.8001 25.9995C17.1267 25.8518 17.4734 25.7986 17.8401 25.8395Z"
            fill="#FEF4C4" />
        <path fill-rule="evenodd" clip-rule="evenodd"
            d="M10.3198 27.1202C11.0057 27.1163 11.5924 27.3298 12.0798 27.7602C11.4345 27.6762 10.8479 27.4629 10.3198 27.1202Z"
            fill="#D14C77" />
        <path fill-rule="evenodd" clip-rule="evenodd"
            d="M21.0401 27.2803C20.4643 27.6688 19.8243 27.9353 19.1201 28.0803C19.6067 27.5275 20.2467 27.2608 21.0401 27.2803Z"
            fill="#EEAC49" />
        <path fill-rule="evenodd" clip-rule="evenodd"
            d="M17.84 26.0003C17.6196 26.1177 17.3796 26.2244 17.12 26.3203C17.0402 26.9046 17.0136 27.4911 17.04 28.0803C17.52 28.0803 18 28.0803 18.48 28.0803C17.993 28.322 17.4596 28.4287 16.88 28.4003C16.8535 27.6516 16.8802 26.9051 16.96 26.1603C17.2319 26.0153 17.5253 25.962 17.84 26.0003Z"
            fill="#EBAB4B" />
    </g>
    <defs>
        <clipPath id="clip0_4429_185">
            <rect width="32" height="32" fill="white" />
        </clipPath>
    </defs>
</svg>