<svg width="32" height="32" viewBox="0 0 32 32" fill="none" xmlns="http://www.w3.org/2000/svg">
    <g clip-path="url(#clip0_4022_548)">
        <path fill-rule="evenodd" clip-rule="evenodd"
            d="M-0.0800781 -0.0800781C10.5866 -0.0800781 21.2532 -0.0800781 31.9199 -0.0800781C31.9199 10.5866 31.9199 21.2532 31.9199 31.9199C21.2532 31.9199 10.5866 31.9199 -0.0800781 31.9199C-0.0800781 21.2532 -0.0800781 10.5866 -0.0800781 -0.0800781Z"
            fill="#FEFEFE" />
        <path fill-rule="evenodd" clip-rule="evenodd"
            d="M21.6802 6.16016C22.4005 6.40142 23.0405 6.77475 23.6002 7.28016C23.7543 7.41832 23.7543 7.52499 23.6002 7.60016C22.8564 7.04193 22.0564 6.61526 21.2002 6.32016C21.4068 6.35812 21.5668 6.3048 21.6802 6.16016Z"
            fill="#4588C4" />
        <path fill-rule="evenodd" clip-rule="evenodd"
            d="M20.4002 5.51992C20.8409 5.70255 21.2676 5.91589 21.6802 6.15992C21.5668 6.30456 21.4068 6.35789 21.2002 6.31992C16.5623 5.50533 13.3357 7.26533 11.5202 11.5999C11.1772 12.964 11.2038 14.2973 11.6002 15.5999C11.632 15.932 11.6586 16.2519 11.6802 16.5599C9.20781 12.6083 9.87448 9.27496 13.6802 6.55992C15.7854 5.38604 18.0253 5.03936 20.4002 5.51992Z"
            fill="#1878D1" />
        <path fill-rule="evenodd" clip-rule="evenodd"
            d="M21.2 6.32025C22.0561 6.61536 22.8561 7.04203 23.6 7.60025C23.7541 7.52509 23.7541 7.41841 23.6 7.28025C23.9859 7.31131 24.1459 7.52464 24.08 7.92025C24.688 7.97136 24.7145 8.13136 24.16 8.40025C24.0827 8.55193 24.0561 8.71193 24.08 8.88025C23.7328 8.62646 23.3593 8.41312 22.96 8.24025C21.1033 7.25851 19.1833 7.04517 17.2 7.60025C14.1668 8.41915 12.5935 10.3925 12.48 13.5203C12.6175 13.019 12.8575 12.5923 13.2 12.2403C13.1674 12.5427 13.2741 12.7827 13.52 12.9603C13.1037 13.3013 12.677 13.5946 12.24 13.8403C12.2833 13.1785 12.0967 12.5918 11.68 12.0803C11.6196 12.6432 11.5396 13.2032 11.44 13.7603C11.5696 14.367 11.623 14.9803 11.6 15.6003C11.2036 14.2976 11.1769 12.9643 11.52 11.6003C13.3355 7.26566 16.5621 5.50566 21.2 6.32025Z"
            fill="#F0F9FA" />
        <path fill-rule="evenodd" clip-rule="evenodd"
            d="M22.9598 8.23956C22.8466 8.50107 22.6601 8.71439 22.3998 8.87956C22.1828 8.73873 21.9428 8.6854 21.6798 8.71956C21.3494 8.71681 21.0294 8.66348 20.7198 8.55956C19.8956 8.42729 19.0423 8.34729 18.1598 8.31956C17.9764 8.21638 17.8164 8.08303 17.6798 7.91956C17.0556 8.25993 16.4156 8.49993 15.7598 8.63956C16.2215 8.24905 16.7015 7.90239 17.1998 7.59956C19.1831 7.04447 21.1031 7.25782 22.9598 8.23956Z"
            fill="#1478D7" />
        <path fill-rule="evenodd" clip-rule="evenodd"
            d="M22.9597 8.24023C23.359 8.4131 23.7325 8.62644 24.0797 8.88023C25.3475 9.77473 26.2542 10.9481 26.7997 12.4002C26.8272 12.5589 26.7738 12.6656 26.6397 12.7202C25.504 10.7398 23.8506 9.40644 21.6797 8.72023C21.9427 8.68607 22.1827 8.7394 22.3997 8.88023C22.66 8.71507 22.8466 8.50174 22.9597 8.24023Z"
            fill="#237BCF" />
        <path fill-rule="evenodd" clip-rule="evenodd"
            d="M17.2005 7.59961C16.7022 7.90244 16.2222 8.2491 15.7605 8.63961C16.4163 8.49998 17.0563 8.25998 17.6805 7.91961C17.8171 8.08308 17.9771 8.21643 18.1605 8.31961C19.043 8.34734 19.8963 8.42734 20.7205 8.55961C18.2592 8.33999 16.1259 9.05999 14.3205 10.7196C13.9123 11.2067 13.539 11.7134 13.2005 12.2396C12.858 12.5917 12.618 13.0184 12.4805 13.5196C12.594 10.3918 14.1673 8.41851 17.2005 7.59961Z"
            fill="#1B78D1" />
        <path fill-rule="evenodd" clip-rule="evenodd"
            d="M26.9597 18.6403C26.8052 19.985 26.3517 21.2115 25.5997 22.3203C25.5255 22.2253 25.4988 22.1186 25.5197 22.0003C25.6184 21.9826 25.6984 21.9293 25.7597 21.8403C27.3133 17.1655 25.9 13.7255 21.5197 11.5203C19.1477 10.6233 16.881 10.81 14.7197 12.0803C15.5877 10.7751 16.841 10.0018 18.4797 9.76035C22.2167 9.60348 24.8567 11.2302 26.3997 14.6403C26.8858 15.9291 27.0725 17.2624 26.9597 18.6403Z"
            fill="#1978D3" />
        <path fill-rule="evenodd" clip-rule="evenodd"
            d="M15.28 4.88021C16.7901 5.1452 18.3368 5.27853 19.92 5.28021C20.118 5.31734 20.278 5.39734 20.4 5.52021C18.0252 5.03965 15.7852 5.38632 13.68 6.56021C9.87429 9.27525 9.20762 12.6086 11.68 16.5602C11.6585 16.2522 11.6318 15.9323 11.6 15.6002C11.623 14.9803 11.5697 14.3669 11.44 13.7602C11.5397 13.2032 11.6197 12.6432 11.68 12.0802C12.0967 12.5918 12.2834 13.1784 12.24 13.8402C12.6771 13.5946 13.1038 13.3012 13.52 12.9602C13.2742 12.7827 13.1675 12.5427 13.2 12.2402C13.5386 11.714 13.9119 11.2073 14.32 10.7202C16.1255 9.06059 18.2588 8.34059 20.72 8.56021C21.0296 8.66413 21.3496 8.71746 21.68 8.72021C23.8509 9.40642 25.5044 10.7397 26.64 12.7202C26.8946 13.4038 27.1346 14.0971 27.36 14.8002C27.4013 14.0955 27.3213 13.4022 27.12 12.7202C27.2464 12.5428 27.3264 12.3295 27.36 12.0802C27.4668 12.1869 27.5733 12.2935 27.68 12.4002C27.6042 13.4187 27.6308 14.432 27.76 15.4402C27.3719 16.4023 27.1852 17.4157 27.2 18.4802C27.1388 18.5692 27.0588 18.6224 26.96 18.6402C27.0728 17.2623 26.8861 15.929 26.4 14.6402C24.857 11.23 22.217 9.60334 18.48 9.76021C16.8413 10.0016 15.588 10.775 14.72 12.0802C16.8813 10.8098 19.148 10.6232 21.52 11.5202C25.9004 13.7254 27.3136 17.1653 25.76 21.8402C25.6988 21.9292 25.6188 21.9824 25.52 22.0002C25.4164 21.7464 25.3364 21.4797 25.28 21.2002C25.1437 21.3716 25.0104 21.5316 24.88 21.6802C25.88 18.1484 24.9735 15.2418 22.16 12.9602C20.7181 12.1457 19.1714 11.8791 17.52 12.1602C22.3837 13.4853 24.517 16.6586 23.92 21.6802C23.234 23.8591 21.9007 25.5125 19.92 26.6402C19.6576 26.7714 19.3909 26.9047 19.12 27.0402C19.484 27.105 19.804 27.025 20.08 26.8002C20.1868 26.8002 20.2933 26.8002 20.4 26.8002C20.5684 26.7764 20.7284 26.8029 20.88 26.8802C20.6639 27.1389 20.3972 27.3256 20.08 27.4402C20.3663 27.6199 20.4196 27.8332 20.24 28.0802C20.0325 27.7815 19.7925 27.7282 19.52 27.9202C19.1087 27.6496 18.6554 27.4896 18.16 27.4402C18.1951 27.6282 18.1418 27.7882 18 27.9202C17.6466 27.8232 17.2999 27.7165 16.96 27.6002C16.6239 27.7786 16.2773 27.7786 15.92 27.6002C15.6754 27.6048 15.4887 27.7116 15.36 27.9202C14.5856 27.6943 13.8122 27.481 13.04 27.2802C16.8125 27.7128 19.746 26.3794 21.84 23.2802C21.84 23.2269 21.84 23.1735 21.84 23.1202C22.8696 21.5026 23.1629 19.7426 22.72 17.8402C22.6128 17.4124 22.4261 17.0391 22.16 16.7202C21.6951 15.5358 20.8951 14.7091 19.76 14.2402C20.5828 15.3257 21.1695 16.5256 21.52 17.8402C21.6855 23.3805 19.0189 26.4205 13.52 26.9602C13.0852 26.942 12.6586 26.8885 12.24 26.8002C12.24 26.7469 12.24 26.6935 12.24 26.6402C12.0337 26.4106 11.767 26.2506 11.44 26.1602C12.478 26.0535 13.4914 25.9469 14.48 25.8402C19.0522 24.71 20.9455 21.83 20.16 17.2002C19.244 22.6757 16.0173 25.1824 10.48 24.7202C8.42101 24.0488 6.76767 22.8221 5.52004 21.0402C4.90238 20.4183 5.00905 20.3116 5.84004 20.7202C6.03417 20.6807 6.14084 20.574 6.16004 20.4002C8.6969 23.494 11.8436 24.3207 15.6 22.8802C17.0242 22.0996 17.9576 20.9528 18.4 19.4402C15.6049 22.2925 12.3782 22.9058 8.72004 21.2802C6.93292 20.213 5.70626 18.693 5.04004 16.7202C5.86839 16.5045 6.00172 16.0778 5.44004 15.4402C5.33535 15.6315 5.25535 15.6315 5.20004 15.4402C5.44991 14.6467 5.60991 13.8467 5.68004 13.0402C5.60159 14.112 5.76159 15.1253 6.16004 16.0802C6.69065 18.0503 7.86398 19.4903 9.68004 20.4002C11.4974 21.4109 13.3641 21.4642 15.28 20.5602C15.4358 20.4823 15.5958 20.4023 15.76 20.3202C14.9084 20.2404 14.055 20.2136 13.2 20.2402C12.1251 20.113 11.1118 19.793 10.16 19.2802C9.4233 18.6239 8.7033 17.9304 8.00004 17.2002C7.41052 16.2885 6.95719 15.3286 6.64004 14.3202C6.1218 11.5826 6.81513 9.20931 8.72004 7.20021C8.62493 7.12592 8.51826 7.09925 8.40004 7.12021C8.35141 7.01622 8.29807 6.90957 8.24004 6.80021C8.90015 6.40286 9.54015 6.40286 10.16 6.80021C8.28223 8.83389 7.5089 11.2339 7.84004 14.0002C8.43927 16.5725 9.98593 18.2791 12.48 19.1202C12.56 19.0669 12.64 19.0135 12.72 18.9602C11.295 17.909 10.2283 16.5757 9.52004 14.9602C9.26212 13.8035 9.15545 12.6301 9.20004 11.4402C9.60885 8.44288 11.2089 6.33621 14 5.12021C14.4101 4.94752 14.8367 4.86752 15.28 4.88021Z"
            fill="#F6FCFB" />
        <path fill-rule="evenodd" clip-rule="evenodd"
            d="M14.8001 4.56064C15.1064 4.51512 15.3731 4.56847 15.6001 4.72064C15.4414 4.69319 15.3348 4.74653 15.2801 4.88064C14.8368 4.86795 14.4101 4.94795 14.0001 5.12064C11.2089 6.33664 9.6089 8.44331 9.20008 11.4406C9.01556 12.4251 8.98888 13.4384 9.12008 14.4806C9.25637 14.652 9.3897 14.812 9.52008 14.9606C10.2284 16.5762 11.295 17.9094 12.7201 18.9606C12.6401 19.0139 12.5601 19.0674 12.4801 19.1206C9.98597 18.2795 8.43932 16.573 7.84008 14.0006C7.50895 11.2343 8.28228 8.83432 10.1601 6.80064C10.9769 6.20418 11.8303 5.64418 12.7201 5.12064C13.3839 4.82258 14.0773 4.63591 14.8001 4.56064Z"
            fill="#1A79D3" />
        <path fill-rule="evenodd" clip-rule="evenodd"
            d="M8.39951 7.1202C8.51774 7.09924 8.62441 7.12591 8.71951 7.2002C6.8146 9.2093 6.12127 11.5826 6.63951 14.3202C6.42753 14.0878 6.2942 14.1411 6.23951 14.4802C6.21156 13.8864 6.13156 13.2998 5.99951 12.7202C5.82161 13.5728 5.82161 14.4261 5.99951 15.2802C6.16783 15.2563 6.32783 15.283 6.47951 15.3602C6.22246 15.528 6.11578 15.768 6.15951 16.0802C5.76106 15.1253 5.60106 14.112 5.67951 13.0402C5.76574 10.6816 6.67239 8.70826 8.39951 7.1202Z"
            fill="#227ACD" />
        <path fill-rule="evenodd" clip-rule="evenodd"
            d="M26.7996 12.4004C26.9064 12.5071 27.0129 12.6137 27.1196 12.7204C27.3209 13.4024 27.4009 14.0957 27.3596 14.8004C27.1342 14.0973 26.8942 13.404 26.6396 12.7204C26.7737 12.6657 26.8272 12.559 26.7996 12.4004Z"
            fill="#5390C7" />
        <path fill-rule="evenodd" clip-rule="evenodd"
            d="M9.19986 11.4395C9.15527 12.6294 9.26194 13.8027 9.51986 14.9595C9.38948 14.8108 9.25615 14.6508 9.11986 14.4795C8.98866 13.4373 9.01533 12.4239 9.19986 11.4395Z"
            fill="#4388CD" />
        <path fill-rule="evenodd" clip-rule="evenodd"
            d="M4.87951 15.7591C4.74756 15.0955 4.66756 14.4022 4.63951 13.6791C4.25039 15.3252 4.38374 16.9251 5.03951 18.4791C4.31441 18.4298 4.15441 18.1365 4.55951 17.5991C4.23913 16.3661 4.15913 15.1128 4.31951 13.8391C4.47951 13.5724 4.63951 13.3057 4.79951 13.0391C4.87942 13.9442 4.90609 14.8508 4.87951 15.7591Z"
            fill="#DEF6FB" />
        <path fill-rule="evenodd" clip-rule="evenodd"
            d="M24.8795 21.681C24.7728 21.681 24.7195 21.7342 24.7195 21.841C24.4719 21.8923 24.3651 22.0523 24.3995 22.321C24.2395 22.321 24.0795 22.321 23.9195 22.321C23.9195 22.1077 23.9195 21.8942 23.9195 21.681C24.5165 16.6594 22.3832 13.486 17.5195 12.161C19.1709 11.8798 20.7176 12.1465 22.1595 12.961C24.973 15.2425 25.8795 18.1491 24.8795 21.681Z"
            fill="#1377D2" />
        <path fill-rule="evenodd" clip-rule="evenodd"
            d="M6.63964 14.3207C6.95679 15.3291 7.41012 16.289 7.99964 17.2007C8.7029 17.9309 9.4229 18.6244 10.1596 19.2807C10.4299 19.6572 10.8032 19.9239 11.2796 20.0807C11.173 20.1874 11.0663 20.294 10.9596 20.4007C11.9688 20.5337 12.9821 20.6137 13.9996 20.6407C13.4432 20.8545 12.8566 20.9877 12.2396 21.0407C11.5185 20.9396 10.8251 20.7796 10.1596 20.5607C10.1853 20.2889 10.1586 20.0221 10.0796 19.7607C10.0602 20.0706 9.92684 20.2839 9.67964 20.4007C7.86357 19.4908 6.69025 18.0508 6.15964 16.0807C6.11591 15.7685 6.22258 15.5285 6.47964 15.3607C6.32796 15.2835 6.16796 15.2568 5.99964 15.2807C5.82173 14.4266 5.82173 13.5733 5.99964 12.7207C6.13169 13.3003 6.21169 13.8869 6.23964 14.4807C6.29433 14.1416 6.42765 14.0883 6.63964 14.3207Z"
            fill="#1378D5" />
        <path fill-rule="evenodd" clip-rule="evenodd"
            d="M22.1598 16.7202C22.146 17.0686 22.0393 17.3886 21.8398 17.6802C21.893 17.7335 21.9465 17.787 21.9998 17.8402C22.1065 17.7335 22.213 17.627 22.3198 17.5202C22.7812 19.1466 22.7012 20.7466 22.0798 22.3202C21.7385 21.931 21.5518 21.4775 21.5198 20.9602C21.6393 20.349 21.7458 19.7358 21.8398 19.1202C21.8289 18.6502 21.7223 18.2234 21.5198 17.8402C21.1692 16.5257 20.5825 15.3258 19.7598 14.2402C20.8948 14.7091 21.6948 15.5358 22.1598 16.7202Z"
            fill="#0C77D5" />
        <path fill-rule="evenodd" clip-rule="evenodd"
            d="M10.1597 19.2793C11.1114 19.7921 12.1248 20.1121 13.1997 20.2393C13.893 20.346 14.5864 20.4526 15.2797 20.5593C13.3638 21.4633 11.4971 21.41 9.67969 20.3993C9.92689 20.2825 10.0602 20.0692 10.0797 19.7593C10.1586 20.0207 10.1853 20.2875 10.1597 20.5593C10.8252 20.7782 11.5185 20.9382 12.2397 21.0393C12.8566 20.9863 13.4433 20.8531 13.9997 20.6393C12.9822 20.6123 11.9688 20.5323 10.9597 20.3993C11.0664 20.2926 11.173 20.186 11.2797 20.0793C10.8033 19.9225 10.4299 19.6558 10.1597 19.2793Z"
            fill="#247ACB" />
        <path fill-rule="evenodd" clip-rule="evenodd"
            d="M4.88021 15.7597C4.93354 16.0797 4.98688 16.3997 5.04021 16.7197C5.70643 18.6925 6.93309 20.2125 8.72021 21.2797C12.3784 22.9053 15.6051 22.292 18.4002 19.4397C17.9578 20.9523 17.0244 22.099 15.6002 22.8797C11.8437 24.3202 8.69707 23.4934 6.16021 20.3997C5.70613 19.8122 5.3328 19.1722 5.04021 18.4797C4.38443 16.9258 4.25109 15.3258 4.64021 13.6797C4.66826 14.4028 4.74826 15.0961 4.88021 15.7597Z"
            fill="#1A79D3" />
        <path fill-rule="evenodd" clip-rule="evenodd"
            d="M23.9199 21.6797C23.9199 21.893 23.9199 22.1064 23.9199 22.3197C24.0799 22.3197 24.2399 22.3197 24.3999 22.3197C24.3655 22.051 24.4722 21.891 24.7199 21.8397C23.9098 24.0494 22.4698 25.7027 20.3999 26.7997C20.2932 26.7997 20.1866 26.7997 20.0799 26.7997C19.9732 26.7997 19.9199 26.7464 19.9199 26.6397C21.9006 25.512 23.2338 23.8586 23.9199 21.6797Z"
            fill="#297BCC" />
        <path fill-rule="evenodd" clip-rule="evenodd"
            d="M21.8399 23.1198C21.8399 23.1731 21.8399 23.2266 21.8399 23.2798C21.6423 23.3152 21.4823 23.4219 21.3599 23.5998C21.0733 23.5259 20.9133 23.3392 20.8799 23.0398C21.0733 22.6688 21.2066 22.2688 21.2799 21.8398C21.6853 22.1709 21.872 22.5974 21.8399 23.1198Z"
            fill="#0277DA" />
        <path fill-rule="evenodd" clip-rule="evenodd"
            d="M5.51953 21.0391C6.76716 22.821 8.42051 24.0477 10.4795 24.7191C10.1935 24.6735 9.92678 24.7267 9.67953 24.8791C10.3913 25.0259 11.0313 25.2925 11.5995 25.6791C8.7442 25.212 6.71753 23.6655 5.51953 21.0391Z"
            fill="#307FCD" />
        <path fill-rule="evenodd" clip-rule="evenodd"
            d="M14.4797 25.8392C13.4893 25.8909 12.5293 25.8376 11.5997 25.6792C11.0314 25.2927 10.3914 25.0261 9.67969 24.8792C9.92694 24.7269 10.1936 24.6736 10.4797 24.7192C16.017 25.1815 19.2437 22.6747 20.1597 17.1992C20.9451 21.829 19.0518 24.709 14.4797 25.8392Z"
            fill="#1D7AD3" />
        <path fill-rule="evenodd" clip-rule="evenodd"
            d="M22.1599 16.7207C22.426 17.0396 22.6127 17.4129 22.7199 17.8407C23.1628 19.7431 22.8695 21.5031 21.8399 23.1207C21.8721 22.5983 21.6854 22.1717 21.2799 21.8407C21.2066 22.2697 21.0734 22.6697 20.8799 23.0407C20.9134 23.3401 21.0734 23.5268 21.3599 23.6007C21.4823 23.4228 21.6423 23.3161 21.8399 23.2807C19.7458 26.3799 16.8124 27.7133 13.0399 27.2807C12.6148 27.2111 12.2414 27.0511 11.9199 26.8007C12.0266 26.8007 12.1332 26.8007 12.2399 26.8007C12.6585 26.889 13.0851 26.9425 13.5199 26.9607C19.0188 26.421 21.6854 23.381 21.5199 17.8407C21.7225 18.2239 21.829 18.6506 21.8399 19.1207C21.746 19.7362 21.6394 20.3495 21.5199 20.9607C21.5519 21.478 21.7386 21.9314 22.0799 22.3207C22.7014 20.7471 22.7814 19.1471 22.3199 17.5207C22.2132 17.6274 22.1066 17.734 21.9999 17.8407C21.9466 17.7874 21.8932 17.734 21.8399 17.6807C22.0394 17.389 22.1462 17.069 22.1599 16.7207Z"
            fill="#247BCF" />
        <path fill-rule="evenodd" clip-rule="evenodd"
            d="M19.9201 26.6406C19.9201 26.7473 19.9734 26.8006 20.0801 26.8006C19.8041 27.0254 19.4841 27.1054 19.1201 27.0406C19.391 26.9051 19.6577 26.7718 19.9201 26.6406Z"
            fill="#76ADD4" />
    </g>
    <defs>
        <clipPath id="clip0_4022_548">
            <rect width="32" height="32" fill="white" />
        </clipPath>
    </defs>
</svg>