<svg width="32" height="32" viewBox="0 0 32 32" fill="none" xmlns="http://www.w3.org/2000/svg">
    <g clip-path="url(#clip0_3736_863)">
        <path fill-rule="evenodd" clip-rule="evenodd"
            d="M-0.0854492 -0.0859375C10.5812 -0.0859375 21.2479 -0.0859375 31.9146 -0.0859375C31.9146 10.5807 31.9146 21.2475 31.9146 31.9141C21.2479 31.9141 10.5812 31.9141 -0.0854492 31.9141C-0.0854492 27.1226 -0.0854492 22.3312 -0.0854492 17.5397C0.287181 21.5649 1.99842 24.9018 5.04824 27.5504C7.90926 29.6605 10.9895 30.0884 14.2889 28.8338C14.403 28.8338 14.517 28.8338 14.6311 28.8338C20.5102 30.2302 25.3301 28.576 29.091 23.8713C32.9642 16.8505 31.9089 10.6616 25.9252 5.30444C21.8144 2.01994 17.3082 1.33545 12.4065 3.25096C11.9091 3.52631 11.4528 3.84003 11.0375 4.19214C10.9235 4.19214 10.8094 4.19214 10.6953 4.19214C4.96591 5.41613 1.37234 8.83859 -0.0854492 14.4595C-0.0854492 9.61104 -0.0854492 4.76254 -0.0854492 -0.0859375Z"
            fill="#000001" />
        <path fill-rule="evenodd" clip-rule="evenodd"
            d="M14.6309 28.8347C18.8974 27.573 22.2914 25.1201 24.8128 21.4764C27.2148 17.6213 27.3859 13.6855 25.3261 9.66889C23.4573 6.97834 20.9189 5.23858 17.7111 4.44964C15.4938 4.0246 13.2692 3.93904 11.0374 4.19295C11.4526 3.84085 11.9089 3.52713 12.4063 3.25178C17.308 1.33627 21.8142 2.02075 25.9251 5.30525C31.9087 10.6624 32.964 16.8513 29.0908 23.8721C25.3299 28.5768 20.51 30.231 14.6309 28.8347Z"
            fill="#05B8FB" />
        <path fill-rule="evenodd" clip-rule="evenodd"
            d="M14.631 28.834C14.5169 28.834 14.4028 28.834 14.2887 28.834C10.0975 27.9807 6.64658 25.9273 3.93579 22.6735C1.94867 18.808 2.06276 14.9863 4.27803 11.2083C5.91359 8.40363 8.05263 6.06494 10.6951 4.19224C10.8092 4.19224 10.9233 4.19224 11.0374 4.19224C13.2692 3.93833 15.4938 4.02389 17.7112 4.44893C20.9189 5.23787 23.4573 6.97763 25.3262 9.66818C27.386 13.6848 27.2148 17.6206 24.8128 21.4757C22.2915 25.1194 18.8974 27.5723 14.631 28.834Z"
            fill="#DFFEFE" />
        <path fill-rule="evenodd" clip-rule="evenodd"
            d="M10.6953 4.19238C8.05278 6.06508 5.91375 8.40377 4.27819 11.2084C2.06291 14.9864 1.94883 18.8082 3.93594 22.6737C6.64673 25.9274 10.0977 27.9809 14.2889 28.8341C10.9895 30.0886 7.90926 29.6608 5.04824 27.5507C1.99842 24.902 0.287181 21.5651 -0.0854492 17.54C-0.0854492 16.5132 -0.0854492 15.4865 -0.0854492 14.4598C1.37234 8.83883 4.96591 5.41637 10.6953 4.19238Z"
            fill="#B042E4" />
    </g>
    <defs>
        <clipPath id="clip0_3736_863">
            <rect width="32" height="32" fill="white" />
        </clipPath>
    </defs>
</svg>