<svg width="32" height="32" viewBox="0 0 32 32" fill="none" xmlns="http://www.w3.org/2000/svg">
    <g clip-path="url(#clip0_4316_470)">
        <path fill-rule="evenodd" clip-rule="evenodd"
            d="M-0.0800781 -0.0800781C10.5866 -0.0800781 21.2532 -0.0800781 31.9199 -0.0800781C31.9199 10.5866 31.9199 21.2532 31.9199 31.9199C21.2532 31.9199 10.5866 31.9199 -0.0800781 31.9199C-0.0800781 21.2532 -0.0800781 10.5866 -0.0800781 -0.0800781Z"
            fill="#FEFEFE" />
        <path fill-rule="evenodd" clip-rule="evenodd"
            d="M26.3199 11.7607C26.1993 13.0996 26.0393 14.4329 25.8399 15.7607C25.5652 16.2959 25.4585 16.8825 25.5199 17.5207C25.4109 18.229 25.2509 18.9223 25.0399 19.6007C24.79 19.3012 24.63 18.9279 24.5599 18.4807C24.3773 18.8906 24.2441 19.3172 24.1599 19.7607C24.1066 19.7074 24.0532 19.654 23.9999 19.6007C23.9201 19.0164 23.8935 18.4298 23.9199 17.8407C23.7066 17.8407 23.4932 17.8407 23.2799 17.8407C23.4809 18.4146 23.5609 19.0013 23.5199 19.6007C23.4623 19.9081 23.3289 20.1748 23.1199 20.4007C23.0092 20.3167 22.9292 20.21 22.8799 20.0807C22.6986 20.3545 22.4586 20.4345 22.1599 20.3207C22.2932 19.974 22.5332 19.734 22.8799 19.6007C22.9589 19.3393 22.9855 19.0725 22.9599 18.8007C22.1364 18.9564 21.5764 19.4364 21.2799 20.2407C20.5269 20.4175 20.2069 20.8975 20.3199 21.6807C19.6074 21.9809 19.1541 22.5141 18.9599 23.2807C18.3311 23.5642 18.3844 23.7508 19.1199 23.8407C18.8609 23.8785 18.7009 24.0117 18.6399 24.2407C18.0916 24.0316 17.5581 23.8449 17.0399 23.6807C15.9851 24.8743 14.9718 26.101 13.9999 27.3607C13.315 27.594 12.8083 27.4074 12.4799 26.8007C12.3732 25.3607 12.3732 23.9207 12.4799 22.4807C12.5411 22.3917 12.6211 22.3385 12.7199 22.3207C12.5422 23.753 12.5155 25.193 12.6399 26.6407C12.6932 26.374 12.7466 26.1074 12.7999 25.8407C12.9702 26.1441 13.1036 26.1708 13.1999 25.9207C13.0764 25.7253 12.9164 25.5653 12.7199 25.4407C13.5242 24.6364 14.3242 23.8364 15.1199 23.0407C14.5311 22.8447 14.5845 22.7114 15.2799 22.6407C15.2799 22.4274 15.2799 22.214 15.2799 22.0007C15.4482 22.0245 15.6082 21.998 15.7599 21.9207C16.1159 21.3714 16.5426 20.8914 17.0399 20.4807C16.8799 20.4274 16.7199 20.374 16.5599 20.3207C16.7901 19.8329 16.9769 19.3263 17.1199 18.8007C17.1986 18.9685 17.1721 19.1285 17.0399 19.2807C17.3423 19.4285 17.5823 19.6418 17.7599 19.9207C17.8132 19.654 17.8666 19.3874 17.9199 19.1207C18.2226 19.0199 18.4893 18.8599 18.7199 18.6407C19.1857 17.8005 19.7189 17.0005 20.3199 16.2407C20.6652 16.0285 20.9586 15.7619 21.1999 15.4407C20.9332 15.334 20.6666 15.2274 20.3999 15.1207C21.2265 15.0168 21.9197 14.6701 22.4799 14.0807C22.4266 14.0274 22.3732 13.974 22.3199 13.9207C22.4917 13.5277 22.6517 13.1277 22.7999 12.7207C22.9249 12.9173 23.0049 13.1306 23.0399 13.3607C23.3948 13.1328 23.6348 12.8128 23.7599 12.4007C24.2356 11.8184 24.7689 11.285 25.3599 10.8007C25.4913 11.2721 25.5713 11.7521 25.5999 12.2407C25.7066 11.654 25.7066 11.0674 25.5999 10.4807C25.1845 10.0568 24.9445 9.55008 24.8799 8.9607C24.9332 8.93403 24.9866 8.90738 25.0399 8.8807C25.1466 9.0407 25.2532 9.2007 25.3599 9.3607C25.4537 9.32722 25.5337 9.27389 25.5999 9.2007C25.6532 9.5207 25.7066 9.8407 25.7599 10.1607C25.8228 9.65942 25.9561 9.17942 26.1599 8.7207C26.3193 9.72846 26.3727 10.7418 26.3199 11.7607Z"
            fill="#FA6277" />
        <path fill-rule="evenodd" clip-rule="evenodd"
            d="M14.6399 11.1191C15.0847 11.2358 15.538 11.3425 15.9999 11.4391C16.4044 11.4031 16.8044 11.3498 17.1999 11.2791C17.1999 11.4925 17.1999 11.7058 17.1999 11.9191C16.5545 11.9199 15.9144 11.9732 15.2799 12.0791C15.2799 12.2391 15.2799 12.3991 15.2799 12.5591C15.0666 12.5591 14.8532 12.5591 14.6399 12.5591C14.738 13.1142 14.5246 13.4342 13.9999 13.5191C13.9999 13.6791 13.9999 13.8391 13.9999 13.9991C13.7866 13.9991 13.5732 13.9991 13.3599 13.9991C13.2442 14.8172 12.8442 15.4572 12.1599 15.9191C12.0815 16.126 12.0548 16.3395 12.0799 16.5591C10.9944 16.8329 10.6744 17.4729 11.1199 18.4791C10.5994 18.419 10.1728 18.6324 9.8399 19.1191C9.5199 19.2259 9.1999 19.3324 8.8799 19.4391C8.91339 19.5329 8.96672 19.6129 9.0399 19.6791C8.23229 19.8641 7.75229 19.5707 7.5999 18.7991C7.17955 18.8939 6.75289 18.9471 6.3199 18.9591C5.31435 18.939 4.67435 18.459 4.3999 17.5191C4.47037 17.0849 4.68371 16.7383 5.0399 16.4791C8.22643 14.6464 11.4264 12.8597 14.6399 11.1191Z"
            fill="#FA5081" />
        <path fill-rule="evenodd" clip-rule="evenodd"
            d="M23.7598 5.83984C23.6573 5.997 23.5507 6.157 23.4398 6.31984C23.5283 6.67621 23.5283 7.04956 23.4398 7.43984C23.6081 7.41592 23.7681 7.4426 23.9198 7.51984C23.8035 7.74365 23.7235 7.98365 23.6798 8.23984C23.4195 7.94992 23.1795 7.92325 22.9598 8.15984C23.1213 8.34674 23.2813 8.53341 23.4398 8.71984C23.2635 8.82796 23.1035 8.93461 22.9598 9.03984C18.72 12.826 14.4534 16.5861 10.1598 20.3198C9.7865 20.4266 9.41315 20.4266 9.03982 20.3198C8.08147 19.9402 7.1748 19.4869 6.31982 18.9598C6.75282 18.9478 7.17947 18.8946 7.59982 18.7998C7.75221 19.5714 8.23221 19.8648 9.03982 19.6798C8.96664 19.6136 8.91331 19.5336 8.87982 19.4398C9.19982 19.3331 9.51982 19.2266 9.83982 19.1198C10.1727 18.6331 10.5993 18.4197 11.1198 18.4798C10.6743 17.4736 10.9943 16.8336 12.0798 16.5598C12.0548 16.3402 12.0814 16.1267 12.1598 15.9198C12.8442 15.4579 13.2442 14.8179 13.3598 13.9998C13.5732 13.9998 13.7865 13.9998 13.9998 13.9998C13.9998 13.8398 13.9998 13.6798 13.9998 13.5198C14.5245 13.4349 14.7379 13.1149 14.6398 12.5598C14.8532 12.5598 15.0665 12.5598 15.2798 12.5598C15.2798 12.3998 15.2798 12.2398 15.2798 12.0798C15.9144 11.9739 16.5544 11.9206 17.1998 11.9198C17.1998 11.7065 17.1998 11.4932 17.1998 11.2798C16.8043 11.3505 16.4043 11.4038 15.9998 11.4398C15.5379 11.3432 15.0846 11.2365 14.6398 11.1198C17.5949 9.24135 20.6349 7.48135 23.7598 5.83984Z"
            fill="#FA567F" />
        <path fill-rule="evenodd" clip-rule="evenodd"
            d="M25.8398 15.7598C25.9012 16.398 25.7945 16.9846 25.5198 17.5198C25.4583 16.8815 25.565 16.295 25.8398 15.7598Z"
            fill="#F7D7DC" />
        <path fill-rule="evenodd" clip-rule="evenodd"
            d="M25.0401 19.5998C24.8789 21.3173 24.6389 23.0238 24.3201 24.7198C24.2603 25.0384 24.127 25.3051 23.9201 25.5198C23.4857 25.7795 23.0057 25.8862 22.4801 25.8398C21.1662 25.3768 19.8862 24.8435 18.6401 24.2398C18.7011 24.0109 18.8611 23.8776 19.1201 23.8398C18.3846 23.7499 18.3313 23.5634 18.9601 23.2798C19.1544 22.5133 19.6077 21.98 20.3201 21.6798C20.2072 20.8966 20.5272 20.4166 21.2801 20.2398C21.5766 19.4355 22.1366 18.9555 22.9601 18.7998C22.9857 19.0717 22.9592 19.3384 22.8801 19.5998C22.5334 19.7331 22.2934 19.9731 22.1601 20.3198C22.4589 20.4336 22.6989 20.3536 22.8801 20.0798C22.9294 20.2091 23.0094 20.3158 23.1201 20.3998C23.3291 20.1739 23.4625 19.9072 23.5201 19.5998C23.5611 19.0005 23.4811 18.4138 23.2801 17.8398C23.4934 17.8398 23.7069 17.8398 23.9201 17.8398C23.8937 18.429 23.9203 19.0155 24.0001 19.5998C24.0534 19.6531 24.1069 19.7066 24.1601 19.7598C24.2443 19.3163 24.3776 18.8898 24.5601 18.4798C24.6302 18.927 24.7902 19.3003 25.0401 19.5998Z"
            fill="#FA6974" />
        <path fill-rule="evenodd" clip-rule="evenodd"
            d="M26.3198 11.7602C26.3726 10.7413 26.3192 9.72794 26.1598 8.72018C25.956 9.1789 25.8227 9.6589 25.7598 10.1602C25.7065 9.84018 25.6531 9.52018 25.5998 9.20018C25.5336 9.27337 25.4536 9.32669 25.3598 9.36018C25.2531 9.20018 25.1465 9.04018 25.0398 8.88018C24.9865 8.90685 24.9331 8.93351 24.8798 8.96018C24.9445 9.54956 25.1845 10.0562 25.5998 10.4802C25.7065 11.0669 25.7065 11.6535 25.5998 12.2402C25.5712 11.7516 25.4912 11.2716 25.3598 10.8002C24.7688 11.2845 24.2355 11.8178 23.7598 12.4002C23.6347 12.8123 23.3947 13.1323 23.0398 13.3602C23.0048 13.1301 22.9248 12.9168 22.7998 12.7202C22.6517 13.1272 22.4917 13.5272 22.3198 13.9202C22.3731 13.9735 22.4265 14.0269 22.4798 14.0802C21.9197 14.6696 21.2264 15.0162 20.3998 15.1202C20.6665 15.2269 20.9331 15.3335 21.1998 15.4402C20.9585 15.7614 20.6651 16.028 20.3198 16.2402C19.7189 17 19.1856 17.8 18.7198 18.6402C18.4893 18.8594 18.2225 19.0194 17.9198 19.1202C17.8665 19.3869 17.8131 19.6535 17.7598 19.9202C17.5822 19.6413 17.3422 19.428 17.0398 19.2802C17.172 19.128 17.1985 18.968 17.1198 18.8002C16.9768 19.3258 16.7901 19.8323 16.5598 20.3202C16.7198 20.3735 16.8798 20.4269 17.0398 20.4802C16.5425 20.8909 16.1158 21.3709 15.7598 21.9202C15.6081 21.9975 15.4481 22.024 15.2798 22.0002C15.2798 22.2135 15.2798 22.4269 15.2798 22.6402C14.5844 22.7109 14.531 22.8442 15.1198 23.0402C14.3241 23.8359 13.5241 24.6359 12.7198 25.4402C12.9163 25.5648 13.0763 25.7248 13.1998 25.9202C13.1035 26.1703 12.9702 26.1435 12.7998 25.8402C12.7465 26.1069 12.6931 26.3735 12.6398 26.6402C12.5154 25.1925 12.5421 23.7525 12.7198 22.3202C16.1792 18.0333 19.6725 13.7667 23.1998 9.52018C23.2934 9.28057 23.2134 9.12057 22.9598 9.04018C23.1035 8.93495 23.2635 8.82829 23.4398 8.72018C23.2813 8.53375 23.1213 8.34708 22.9598 8.16018C23.1795 7.92359 23.4195 7.95026 23.6798 8.24018C23.7235 7.98399 23.8035 7.74399 23.9198 7.52018C23.7681 7.44293 23.6081 7.41626 23.4398 7.44018C23.5283 7.04989 23.5283 6.67655 23.4398 6.32018C23.5507 6.15733 23.6573 5.99733 23.7598 5.84018C24.4814 5.34601 25.2281 4.89266 25.9998 4.48018C27.3414 4.38559 27.7947 4.99892 27.3598 6.32018C27.0377 8.16205 26.6912 9.97538 26.3198 11.7602Z"
            fill="#FB5D7A" />
        <path fill-rule="evenodd" clip-rule="evenodd"
            d="M23.92 25.5195C23.8475 25.6728 23.7409 25.8063 23.6 25.9195C23.1937 26.0469 22.8205 26.0202 22.48 25.8395C23.0056 25.8859 23.4856 25.7792 23.92 25.5195Z"
            fill="#DF8A88" />
    </g>
    <defs>
        <clipPath id="clip0_4316_470">
            <rect width="32" height="32" fill="white" />
        </clipPath>
    </defs>
</svg>