<svg width="32" height="32" viewBox="0 0 32 32" fill="none" xmlns="http://www.w3.org/2000/svg">
    <g clip-path="url(#clip0_3103_679)">
        <rect width="32" height="32" fill="#FAFAFA" />
        <path
            d="M31.8241 16.5936C31.8484 16.5936 24.1715 12.2128 24.149 12.084C23.9754 11.1529 23.7566 9.61529 22.6976 8.81988C21.7862 8.1413 15.6336 5.34105 15.6215 5.31186C14.4886 3.61739 13.4848 1.84186 12.6181 0C11.7951 0.612988 11.1257 1.40522 10.6618 2.31532C10.1978 3.22543 9.95185 4.22901 9.94281 5.24828C6.92047 5.67694 4.08379 6.94791 1.76427 8.91264C7.77972 7.54862 9.51229 8.80615 9.51229 8.80615C7.54285 9.15332 5.64511 9.82091 3.89615 10.7818C1.33199 12.1767 0.175781 13.8517 0.175781 13.8517C0.175781 13.8517 5.99852 12.2042 10.4671 13.807C8.38329 14.098 6.44623 15.035 4.93432 16.4836C14.1962 17.6192 18.7637 25.5732 20.6855 32C21.3921 20.5689 15.6406 16.2276 15.6406 16.2276C17.3107 16.3462 19.4113 17.6312 20.755 19.5433C24.8521 19.0863 27.1332 20.3284 27.1142 20.3284C27.069 20.3284 29.3294 19.6412 30.9231 18.9145C30.7859 18.71 30.2095 18.0005 29.8814 17.6037C29.9266 17.6071 31.1869 17.5333 31.8241 16.5936ZM19.0311 11.5342C19.1214 11.5119 21.1282 10.9536 21.7011 11.1683C22.222 11.3624 22.2324 12.8295 22.2324 12.8295C22.2324 12.8295 21.0432 12.9945 19.0311 11.5342Z"
            fill="black" />
    </g>
    <defs>
        <clipPath id="clip0_3103_679">
            <rect width="32" height="32" fill="white" />
        </clipPath>
    </defs>
</svg>