<svg width="32" height="32" viewBox="0 0 33 33" fill="none" xmlns="http://www.w3.org/2000/svg">
    <path opacity="0.855" fill-rule="evenodd" clip-rule="evenodd"
        d="M23.6705 19.2276C23.6705 17.4279 23.6705 15.6283 23.6705 13.8286C24.8328 13.8286 25.995 13.8286 27.1573 13.8286C27.1573 11.1854 27.1573 8.54218 27.1573 5.89895C24.5141 5.89895 21.8708 5.89895 19.2276 5.89895C19.2276 8.54218 19.2276 11.1854 19.2276 13.8286C19.1526 15.6283 19.1526 17.4279 19.2276 19.2276C19.2276 23.6517 19.2276 28.0758 19.2276 32.5C12.9851 32.5 6.74253 32.5 0.5 32.5C0.5 28.7695 0.5 25.0389 0.5 21.3084C2.29965 21.3084 4.0993 21.3084 5.89895 21.3084C5.89895 23.2581 5.89895 25.2077 5.89895 27.1573C8.54218 27.1573 11.1854 27.1573 13.8286 27.1573C13.8286 24.5141 13.8286 21.8708 13.8286 19.2276C9.38576 19.2276 4.94288 19.2276 0.5 19.2276C0.5 17.4279 0.5 15.6283 0.5 13.8286C4.94288 13.8286 9.38576 13.8286 13.8286 13.8286C13.8286 9.38576 13.8286 4.94288 13.8286 0.5C20.0525 0.5 26.2762 0.5 32.5 0.5C32.5 6.74253 32.5 12.9851 32.5 19.2276C29.5568 19.2276 26.6136 19.2276 23.6705 19.2276ZM23.6705 13.8286C22.1895 13.8286 20.7085 13.8286 19.2276 13.8286C19.2276 11.1854 19.2276 8.54218 19.2276 5.89895C21.8708 5.89895 24.5141 5.89895 27.1573 5.89895C27.1573 8.54218 27.1573 11.1854 27.1573 13.8286C25.995 13.8286 24.8328 13.8286 23.6705 13.8286Z"
        fill="#F8D544" />
    <path opacity="0.823" fill-rule="evenodd" clip-rule="evenodd"
        d="M19.2276 13.8281C20.7086 13.8281 22.1896 13.8281 23.6705 13.8281C23.6705 15.6278 23.6705 17.4274 23.6705 19.2271C22.1896 19.2271 20.7086 19.2271 19.2276 19.2271C19.1526 17.4274 19.1526 15.6278 19.2276 13.8281Z"
        fill="#F5D444" />
</svg>