<svg width="32" height="32" viewBox="0 0 32 32" fill="none" xmlns="http://www.w3.org/2000/svg">
    <g clip-path="url(#clip0_3443_82)">
        <path fill-rule="evenodd" clip-rule="evenodd"
            d="M-0.0678711 -0.0751953C4.94908 -0.0751953 9.96603 -0.0751953 14.983 -0.0751953C12.5749 1.83641 10.1343 3.71434 7.66094 5.55861C11.1446 6.7486 14.4893 8.30102 17.6948 10.2159C20.4684 12.1371 22.7508 14.6159 24.5423 17.6525C25.3439 19.347 25.0501 20.7742 23.6609 21.9342C21.7155 23.286 19.5911 24.0872 17.2881 24.338C20.9476 24.6387 24.3374 23.7373 27.4576 21.6337C28.9499 20.2788 29.4698 18.5511 29.0169 16.4506C28.5374 13.5854 27.4075 11.0815 25.627 8.93889C22.591 5.29702 19.1333 2.29232 15.2542 -0.0751953C20.8135 -0.0751953 26.3728 -0.0751953 31.9321 -0.0751953C31.9321 10.5915 31.9321 21.2581 31.9321 31.9248C25.8756 31.9248 19.8192 31.9248 13.7626 31.9248C13.7853 25.2141 13.7626 18.5036 13.6948 11.7933C13.5083 11.9744 13.3501 12.1747 13.2203 12.3943C9.79168 17.2706 6.33405 22.1283 2.84738 26.9671C2.75466 27.16 2.77727 27.3353 2.91518 27.4929C4.55785 28.0902 6.18497 28.7162 7.79654 29.3708C8.2964 29.7156 8.83877 29.991 9.42365 30.1971C10.2469 30.4746 11.0605 30.7501 11.8643 31.0234C11.9107 31.1493 12.0011 31.1995 12.1355 31.1736C12.57 31.4687 13.022 31.7191 13.4915 31.9248C8.97168 31.9248 4.4519 31.9248 -0.0678711 31.9248C-0.0678711 21.2581 -0.0678711 10.5915 -0.0678711 -0.0751953Z"
            fill="#FDFEFE" />
        <path fill-rule="evenodd" clip-rule="evenodd"
            d="M14.9832 -0.0751953C15.0736 -0.0751953 15.1639 -0.0751953 15.2544 -0.0751953C19.1335 2.29232 22.5912 5.29702 25.6272 8.93889C27.4077 11.0815 28.5376 13.5854 29.0171 16.4506C29.4699 18.5511 28.9501 20.2788 27.4577 21.6337C24.3376 23.7373 20.9478 24.6387 17.2883 24.338C19.5913 24.0872 21.7156 23.286 23.6611 21.9342C25.0503 20.7742 25.3441 19.347 24.5425 17.6525C22.751 14.6159 20.4686 12.1371 17.695 10.2159C14.4895 8.30102 11.1448 6.7486 7.66113 5.55861C10.1344 3.71434 12.5751 1.83641 14.9832 -0.0751953Z"
            fill="#0681C8" />
        <path fill-rule="evenodd" clip-rule="evenodd"
            d="M12.1355 31.1737C12.0011 31.1996 11.9107 31.1494 11.8644 31.0235C11.7843 30.9257 11.6939 30.8255 11.5932 30.723C11.6216 30.635 11.6667 30.5599 11.7288 30.4977C11.548 30.3975 11.3672 30.2974 11.1864 30.1972C10.9648 30.1161 10.784 30.1912 10.644 30.4225C9.74527 29.9105 8.79612 29.56 7.79657 29.3709C6.185 28.7163 4.55788 28.0903 2.91521 27.493C2.7773 27.3354 2.7547 27.16 2.84741 26.9671C6.33409 22.1284 9.79171 17.2707 13.2203 12.3944C13.3553 12.4073 13.4683 12.3572 13.5593 12.2441C13.6722 18.7048 13.6497 25.1649 13.4915 31.6244C13.0819 31.3355 12.6299 31.1853 12.1355 31.1737Z"
            fill="#0481C9" />
        <path fill-rule="evenodd" clip-rule="evenodd"
            d="M18.1016 16.1504C19.5317 16.2064 20.5487 16.9576 21.1525 18.4039C21.2905 19.7458 20.7707 20.1714 19.5932 19.6809C19.2436 19.3493 18.8595 19.074 18.4406 18.8546C18.2146 18.5041 17.9887 18.1535 17.7627 17.803C17.6722 17.3523 17.6722 16.9016 17.7627 16.4509C17.8976 16.3658 18.0105 16.2656 18.1016 16.1504Z"
            fill="#0F81C6" />
        <path fill-rule="evenodd" clip-rule="evenodd"
            d="M13.7626 31.9249C13.6722 31.9249 13.5819 31.9249 13.4914 31.9249C13.022 31.7192 12.57 31.4688 12.1355 31.1737C12.6299 31.1853 13.0819 31.3355 13.4914 31.6244C13.6497 25.1649 13.6722 18.7049 13.5592 12.2442C13.4683 12.3572 13.3553 12.4073 13.2202 12.3944C13.3501 12.1748 13.5083 11.9745 13.6948 11.7935C13.7626 18.5037 13.7853 25.2142 13.7626 31.9249Z"
            fill="#3787B5" />
        <path fill-rule="evenodd" clip-rule="evenodd"
            d="M7.79663 29.3711C8.79618 29.5602 9.74534 29.9107 10.6441 30.4227C10.784 30.1914 10.9648 30.1163 11.1865 30.1974C11.3672 30.2976 11.548 30.3976 11.7288 30.4979C11.6668 30.5601 11.6216 30.6352 11.5932 30.7232C11.6939 30.8257 11.7843 30.9259 11.8644 31.0237C11.0605 30.7504 10.247 30.4749 9.42375 30.1974C8.83887 29.9913 8.2965 29.7159 7.79663 29.3711Z"
            fill="#2282BB" />
    </g>
    <defs>
        <clipPath id="clip0_3443_82">
            <rect width="32" height="32" fill="white" />
        </clipPath>
    </defs>
</svg>