<svg width="32" height="32" viewBox="0 0 32 32" fill="none" xmlns="http://www.w3.org/2000/svg">
    <g clip-path="url(#clip0_3922_64)">
        <path fill-rule="evenodd" clip-rule="evenodd"
            d="M-0.0625 -0.0625C10.6042 -0.0625 21.2709 -0.0625 31.9375 -0.0625C31.9375 10.6042 31.9375 21.2709 31.9375 31.9375C21.2709 31.9375 10.6042 31.9375 -0.0625 31.9375C-0.0625 21.2709 -0.0625 10.6042 -0.0625 -0.0625Z"
            fill="#9155FD" />
        <path fill-rule="evenodd" clip-rule="evenodd"
            d="M5.8125 4.1875C12.0626 4.16666 18.3126 4.1875 24.5625 4.25C26.1435 4.6238 27.206 5.5613 27.75 7.0625C27.8671 9.52628 27.8255 11.9846 27.625 14.4375C26.904 15.9149 25.7165 16.7691 24.0625 17C22.0209 17.0834 19.9791 17.0834 17.9375 17C17.2895 16.387 17.1438 15.6578 17.5 14.8125C17.6129 14.6624 17.7586 14.5581 17.9375 14.5C19.7291 14.4584 21.5209 14.4166 23.3125 14.375C24.1458 14.3336 24.6249 13.8961 24.75 13.0625C24.8334 11.3958 24.8334 9.72916 24.75 8.0625C24.6535 7.34565 24.2578 6.90815 23.5625 6.75C18.8125 6.66666 14.0625 6.66666 9.3125 6.75C8.71935 6.88935 8.32352 7.24351 8.125 7.8125C8.08334 13.2291 8.04167 18.6459 8 24.0625C7.81503 24.4579 7.50253 24.687 7.0625 24.75C6.55357 24.8323 6.05357 24.7906 5.5625 24.625C5.3689 24.4733 5.22307 24.2858 5.125 24.0625C5.04167 17.6875 5.04167 11.3125 5.125 4.9375C5.29497 4.62218 5.52413 4.37218 5.8125 4.1875Z"
            fill="#FAFAFA" />
        <path fill-rule="evenodd" clip-rule="evenodd"
            d="M11.9375 9.4375C15.2711 9.41667 18.6044 9.4375 21.9375 9.5C22.3431 9.81252 22.5099 10.2292 22.4375 10.75C22.5278 11.2535 22.3611 11.6285 21.9375 11.875C19.7709 11.9167 17.6041 11.9583 15.4375 12C14.9918 12.0875 14.6375 12.3166 14.375 12.6875C14.2328 13.7169 14.1703 14.7586 14.1875 15.8125C14.2084 16.7709 14.2291 17.7291 14.25 18.6875C14.4079 19.1524 14.7204 19.4649 15.1875 19.625C16.2709 19.6666 17.3541 19.7084 18.4375 19.75C18.9564 19.975 19.2064 20.3709 19.1875 20.9375C19.1648 21.2782 19.1023 21.6116 19 21.9375C18.8871 22.0876 18.7414 22.1919 18.5625 22.25C17.4791 22.2916 16.3959 22.3334 15.3125 22.375C14.9298 22.5076 14.6173 22.7367 14.375 23.0625C14.212 25.051 14.1288 27.051 14.125 29.0625C13.8534 29.7601 13.3326 30.0517 12.5625 29.9375C11.8309 30.0411 11.3517 29.7495 11.125 29.0625C11.0417 22.8959 11.0417 16.7291 11.125 10.5625C11.2341 10.0594 11.5049 9.68442 11.9375 9.4375Z"
            fill="#FAFAFA" />
    </g>
    <defs>
        <clipPath id="clip0_3922_64">
            <rect width="32" height="32" rx="5" fill="white" />
        </clipPath>
    </defs>
</svg>