<svg width="32" height="32" viewBox="0 0 32 32" fill="none" xmlns="http://www.w3.org/2000/svg">
    <g clip-path="url(#clip0_4279_208)">
        <path
            d="M16.0025 32.0051C24.8405 32.0051 32.0051 24.8405 32.0051 16.0025C32.0051 7.16458 24.8405 0 16.0025 0C7.16458 0 0 7.16458 0 16.0025C0 24.8405 7.16458 32.0051 16.0025 32.0051Z"
            fill="white" />
        <path
            d="M24.4543 7.6969V16.1283C24.4542 17.0582 24.2109 17.9719 23.7488 18.7787C23.2866 19.5856 22.6215 20.2576 21.8195 20.7282C21.0175 21.1987 20.1065 21.4515 19.1767 21.4613C18.2469 21.4712 17.3306 21.2378 16.5188 20.7844C16.9524 20.4612 17.3376 20.0778 17.6626 19.6457C18.496 19.9929 19.4256 20.0333 20.286 19.7598C21.1465 19.4863 21.8821 18.9166 22.3621 18.1519C22.8421 17.3872 23.0354 16.477 22.9076 15.5832C22.7798 14.6894 22.3393 13.8699 21.6643 13.2703C20.9893 12.6707 20.1235 12.3299 19.2209 12.3084C18.3183 12.2869 17.4373 12.5862 16.7345 13.153C16.0317 13.7198 15.5527 14.5174 15.3825 15.4041C15.2124 16.2908 15.3622 17.2091 15.8053 17.9958C15.5159 18.4283 15.1294 18.787 14.6767 19.0434C14.1062 18.1785 13.8034 17.1645 13.8062 16.1283C13.8063 15.0692 14.1219 14.0341 14.7129 13.1552C15.3039 12.2763 16.1433 11.5934 17.1241 11.1937C18.1049 10.7939 19.1826 10.6956 20.2196 10.9111C21.2566 11.1265 22.2058 11.6461 22.9462 12.4035V7.6969H24.4543ZM17.5108 13.2183C17.05 13.4712 16.6561 13.8303 16.362 14.2659C16.6898 14.8321 16.8642 15.4741 16.868 16.1283C16.869 16.8825 16.6463 17.62 16.2279 18.2474C15.8095 18.8749 15.2144 19.3641 14.5179 19.6532C13.8213 19.9423 13.0547 20.0181 12.315 19.8713C11.5753 19.7244 10.8958 19.3613 10.3625 18.8281C9.82925 18.2948 9.4662 17.6153 9.31932 16.8756C9.17244 16.1359 9.24833 15.3693 9.5374 14.6727C9.82646 13.9762 10.3157 13.381 10.9432 12.9627C11.5706 12.5443 12.3081 12.3216 13.0622 12.3226C13.5622 12.3238 14.0571 12.4218 14.5198 12.611C14.849 12.184 15.2337 11.8028 15.6635 11.4774C14.8521 11.0241 13.9364 10.7908 13.007 10.8004C12.0776 10.81 11.1669 11.0623 10.365 11.5323C9.56317 12.0022 8.89803 12.6736 8.4355 13.4797C7.97297 14.2859 7.72911 15.1989 7.72807 16.1283V24.5648H9.24634V19.8582C10.1736 20.7952 11.4151 21.3552 12.7312 21.4302C14.0472 21.5051 15.3444 21.0897 16.372 20.2641C17.3996 19.4385 18.0847 18.2613 18.2951 16.96C18.5054 15.6587 18.226 14.3256 17.5108 13.2183ZM24.4543 7.6969V6.68472C24.1241 6.65731 23.7944 6.74241 23.5188 6.92618C23.2431 7.10995 23.0377 7.38159 22.936 7.6969H24.4543ZM7.71289 24.5648V25.577C8.04306 25.6044 8.37278 25.5193 8.64844 25.3356C8.9241 25.1518 9.12948 24.8802 9.23116 24.5648H7.71289Z"
            fill="url(#paint0_linear_4279_208)" />
        <path
            d="M16.0683 29.8388C23.6932 29.8388 29.8744 23.6576 29.8744 16.0327C29.8744 8.40777 23.6932 2.22656 16.0683 2.22656C8.44341 2.22656 2.26221 8.40777 2.26221 16.0327C2.26221 23.6576 8.44341 29.8388 16.0683 29.8388Z"
            stroke="url(#paint1_linear_4279_208)" stroke-width="3" stroke-miterlimit="10" />
    </g>
    <defs>
        <linearGradient id="paint0_linear_4279_208" x1="7.71289" y1="16.1283" x2="24.4543"
            y2="16.1283" gradientUnits="userSpaceOnUse">
            <stop stop-color="#4387FA" />
            <stop offset="0.51" stop-color="#2D5497" />
            <stop offset="1" stop-color="#DD2F40" />
        </linearGradient>
        <linearGradient id="paint1_linear_4279_208" x1="1.50307" y1="16.0327" x2="30.6335"
            y2="16.0327" gradientUnits="userSpaceOnUse">
            <stop stop-color="#4387FA" />
            <stop offset="0.51" stop-color="#2D5497" />
            <stop offset="1" stop-color="#DD2F40" />
        </linearGradient>
        <clipPath id="clip0_4279_208">
            <rect width="32" height="32" fill="white" />
        </clipPath>
    </defs>
</svg>