<svg width="32" height="32" viewBox="0 0 32 32" fill="none" xmlns="http://www.w3.org/2000/svg">
    <g clip-path="url(#clip0_3343_2520)">
        <path fill-rule="evenodd" clip-rule="evenodd"
            d="M-0.071106 -0.0703125C10.5956 -0.0703125 21.2622 -0.0703125 31.9289 -0.0703125C31.9289 10.5964 31.9289 21.263 31.9289 31.9297C21.2622 31.9297 10.5956 31.9297 -0.071106 31.9297C-0.071106 21.263 -0.071106 10.5964 -0.071106 -0.0703125Z"
            fill="#161615" />
        <path fill-rule="evenodd" clip-rule="evenodd"
            d="M22.5422 10.0261C21.8599 9.84914 21.1961 9.84914 20.5511 10.0261C19.0158 8.12257 17.0247 7.43517 14.5778 7.96384C14.4593 8.08235 14.3407 8.20088 14.2222 8.3194C14.1514 8.79112 14.1277 9.26519 14.1511 9.74162C13.5482 9.79528 12.9793 9.9375 12.4445 10.1683C12.4445 9.50458 12.4445 8.84088 12.4445 8.17717C12.6132 7.3197 13.0873 6.6797 13.8667 6.25717C16.5655 5.54564 18.9833 6.06712 21.12 7.82162C21.6858 8.50403 22.1598 9.23885 22.5422 10.0261Z"
            fill="#01A4C6" />
        <path fill-rule="evenodd" clip-rule="evenodd"
            d="M20.5511 10.0276C20.865 10.5523 21.0546 11.1211 21.12 11.7342C21.2039 12.6772 21.0617 13.578 20.6933 14.4365C20.1244 15.2898 19.4133 16.0009 18.56 16.5698C18.1549 16.7507 17.7283 16.8692 17.28 16.9253C16.2381 16.9965 15.1951 17.0201 14.1511 16.9965C14.1511 16.712 14.1511 16.4276 14.1511 16.1431C14.1511 15.1949 14.1511 14.2469 14.1511 13.2987C14.1511 12.7772 14.1511 12.2557 14.1511 11.7342C14.1511 11.0705 14.1511 10.4068 14.1511 9.74312C14.1276 9.26669 14.1513 8.79262 14.2222 8.3209C14.3407 8.20238 14.4593 8.08386 14.5778 7.96534C17.0247 7.43667 19.0158 8.12408 20.5511 10.0276Z"
            fill="#161616" />
        <path fill-rule="evenodd" clip-rule="evenodd"
            d="M14.1511 9.74219C14.1511 10.4059 14.1511 11.0696 14.1511 11.7333C14.0419 11.8417 13.9708 11.984 13.9378 12.16C13.7454 11.9887 13.5083 11.8939 13.2267 11.8755C12.945 11.8939 12.7079 11.9887 12.5155 12.16C12.4445 11.4979 12.4208 10.8342 12.4444 10.1689C12.9793 9.93807 13.5482 9.79585 14.1511 9.74219Z"
            fill="#00A4B9" />
        <path fill-rule="evenodd" clip-rule="evenodd"
            d="M22.5422 10.0272C22.6938 10.3403 22.7887 10.6722 22.8266 11.0228C22.85 11.405 22.8262 11.7842 22.7555 12.1606C22.5631 11.9893 22.3262 11.8945 22.0444 11.8761C21.7627 11.8945 21.5257 11.9893 21.3333 12.1606C21.3003 11.9846 21.2292 11.8423 21.12 11.7339C21.0546 11.1208 20.865 10.5519 20.5511 10.0272C21.1961 9.8503 21.8598 9.8503 22.5422 10.0272Z"
            fill="#00A3B8" />
        <path fill-rule="evenodd" clip-rule="evenodd"
            d="M12.4444 8.17773C12.4444 8.84144 12.4444 9.50514 12.4444 10.1688C12.4209 10.8342 12.4446 11.4979 12.5156 12.16C12.708 11.9887 12.945 11.8939 13.2267 11.8755C13.5083 11.8939 13.7454 11.9887 13.9378 12.16C13.9708 11.984 14.0419 11.8417 14.1511 11.7333C14.1511 12.2548 14.1511 12.7762 14.1511 13.2977C14.0134 13.5975 13.966 13.9293 14.0089 14.2933C13.4874 14.2933 12.9659 14.2933 12.4444 14.2933C12.4444 15.0518 12.4444 15.8104 12.4444 16.5688C12.4782 16.7525 12.4308 16.8947 12.3022 16.9955C12.2552 14.0316 12.3026 11.0923 12.4444 8.17773Z"
            fill="#029BA4" />
        <path fill-rule="evenodd" clip-rule="evenodd"
            d="M22.8267 11.0215C23.0328 12.1517 22.9854 13.2895 22.6845 14.4348C22.0207 14.2452 21.3571 14.2452 20.6934 14.4348C21.0617 13.5763 21.2039 12.6756 21.12 11.7326C21.2293 11.841 21.3004 11.9833 21.3334 12.1593C21.5258 11.988 21.7627 11.8932 22.0445 11.8748C22.3262 11.8932 22.5632 11.988 22.7556 12.1593C22.8263 11.7829 22.85 11.4037 22.8267 11.0215Z"
            fill="#029EA6" />
        <path fill-rule="evenodd" clip-rule="evenodd"
            d="M14.1511 13.2969C14.1511 14.2451 14.1511 15.1931 14.1511 16.1413C14.0447 16.288 13.9499 16.4539 13.8667 16.6391C13.3798 16.7453 12.9057 16.7216 12.4445 16.568C12.4445 15.8095 12.4445 15.0509 12.4445 14.2924C12.9659 14.2924 13.4874 14.2924 14.0089 14.2924C13.966 13.9284 14.0134 13.5966 14.1511 13.2969Z"
            fill="#00A099" />
        <path fill-rule="evenodd" clip-rule="evenodd"
            d="M22.6844 14.4352C22.3508 15.2946 21.8766 16.0531 21.2622 16.7107C20.3885 16.7525 19.4877 16.7052 18.56 16.5685C19.4133 15.9996 20.1244 15.2885 20.6933 14.4352C21.3571 14.2456 22.0207 14.2456 22.6844 14.4352Z"
            fill="#019C95" />
        <path fill-rule="evenodd" clip-rule="evenodd"
            d="M14.1511 16.1426C14.1511 16.427 14.1511 16.7115 14.1511 16.9959C15.1951 17.0195 16.2381 16.9959 17.28 16.9248C17.7283 16.8686 18.1549 16.7502 18.56 16.5692C19.4877 16.7059 20.3885 16.7533 21.2622 16.7115C20.4332 17.6725 19.3903 18.3125 18.1333 18.6315C16.8132 18.8186 15.4857 18.8897 14.1511 18.8448C14.0446 18.9914 13.9498 19.1574 13.8666 19.3426C13.3797 19.4488 12.9057 19.4251 12.4444 19.2715C12.4444 19.0819 12.4444 18.8922 12.4444 18.7026C11.9874 18.6585 11.5608 18.7058 11.1644 18.8448C10.9804 18.9572 10.8144 19.0994 10.6666 19.2715C10.5956 20.6455 10.5719 22.0203 10.5955 23.3959C10.4557 22.8558 10.4083 22.2869 10.4533 21.6892C10.4533 20.9308 10.4533 20.1722 10.4533 19.4137C9.88442 19.4137 9.31553 19.4137 8.74664 19.4137C9.15986 17.5211 10.3451 16.7153 12.3022 16.9959C12.4308 16.8951 12.4782 16.7529 12.4444 16.5692C12.9057 16.7228 13.3797 16.7466 13.8666 16.6404C13.9498 16.4552 14.0446 16.2892 14.1511 16.1426Z"
            fill="#029982" />
        <path fill-rule="evenodd" clip-rule="evenodd"
            d="M11.1644 18.8438C11.5437 18.8438 11.9229 18.8438 12.3022 18.8438C12.3022 20.3608 12.3022 21.8778 12.3022 23.3949C11.9683 23.9575 11.4942 24.0997 10.88 23.8215C10.7484 23.6996 10.6536 23.5574 10.5955 23.3949C10.5719 22.0193 10.5956 20.6444 10.6667 19.2704C10.8144 19.0983 10.9804 18.9561 11.1644 18.8438Z"
            fill="#161415" />
        <path fill-rule="evenodd" clip-rule="evenodd"
            d="M14.1511 18.8438C14.1511 19.6022 14.1511 20.3608 14.1511 21.1193C14.0182 20.9674 13.9708 20.7778 14.0089 20.5504C13.4874 20.5504 12.9659 20.5504 12.4445 20.5504C12.4445 20.1238 12.4445 19.6971 12.4445 19.2704C12.9057 19.424 13.3798 19.4478 13.8667 19.3415C13.9499 19.1564 14.0447 18.9904 14.1511 18.8438Z"
            fill="#009872" />
        <path fill-rule="evenodd" clip-rule="evenodd"
            d="M11.1644 18.8437C11.5608 18.7048 11.9875 18.6574 12.4444 18.7015C12.4444 18.8911 12.4444 19.0808 12.4444 19.2704C12.4444 19.697 12.4444 20.1237 12.4444 20.5504C12.4444 20.9297 12.4444 21.3088 12.4444 21.6882C12.4895 22.2858 12.4421 22.8547 12.3022 23.3948C12.3022 21.8777 12.3022 20.3608 12.3022 18.8437C11.9229 18.8437 11.5437 18.8437 11.1644 18.8437Z"
            fill="#097757" />
        <path fill-rule="evenodd" clip-rule="evenodd"
            d="M8.74664 19.4141C9.31553 19.4141 9.88442 19.4141 10.4533 19.4141C10.4533 20.1725 10.4533 20.9311 10.4533 21.6896C9.88442 21.8792 9.31553 21.8792 8.74664 21.6896C8.74664 20.9311 8.74664 20.1725 8.74664 19.4141Z"
            fill="#009A6C" />
        <path fill-rule="evenodd" clip-rule="evenodd"
            d="M12.4445 20.5508C12.9659 20.5508 13.4874 20.5508 14.0089 20.5508C13.9708 20.7782 14.0182 20.9678 14.1511 21.1197C14.197 22 14.1496 22.8534 14.0089 23.6797C14.0089 23.0634 14.0089 22.447 14.0089 21.8308C13.4728 21.8672 12.9514 21.8198 12.4445 21.6886C12.4445 21.3093 12.4445 20.9301 12.4445 20.5508Z"
            fill="#009765" />
        <path fill-rule="evenodd" clip-rule="evenodd"
            d="M8.74669 21.6895C9.31558 21.879 9.88447 21.879 10.4534 21.6895C10.4083 22.2871 10.4557 22.856 10.5956 23.3961C10.6536 23.5587 10.7484 23.7009 10.88 23.8228C11.4943 24.101 11.9683 23.9588 12.3022 23.3961C12.4421 22.856 12.4895 22.2871 12.4445 21.6895C12.9514 21.8207 13.4728 21.8681 14.0089 21.8317C14.0089 22.4479 14.0089 23.0643 14.0089 23.6806C13.9954 24.0057 13.9006 24.2901 13.7245 24.5339C13.7087 24.4461 13.6613 24.375 13.5822 24.3206C12.8669 24.282 12.1558 24.2109 11.4489 24.1072C10.6322 24.1409 9.87372 24.2832 9.17336 24.5339C9.02282 24.3775 8.9043 24.1877 8.8178 23.965C8.74678 23.208 8.72308 22.4495 8.74669 21.6895Z"
            fill="#019452" />
        <path fill-rule="evenodd" clip-rule="evenodd"
            d="M13.7245 24.5341C13.1925 25.4405 12.3866 25.8671 11.3067 25.8141C10.9092 25.8208 10.5299 25.7497 10.1689 25.6008C9.70821 25.3539 9.37635 24.9983 9.17334 24.5341C9.8737 24.2834 10.6322 24.1411 11.4489 24.1074C12.1557 24.2111 12.8669 24.2822 13.5822 24.3208C13.6613 24.3752 13.7087 24.4463 13.7245 24.5341Z"
            fill="#019244" />
    </g>
    <defs>
        <clipPath id="clip0_3343_2520">
            <rect width="32" height="32" fill="white" />
        </clipPath>
    </defs>
</svg>