<svg width="32" height="32" viewBox="0 0 32 32" fill="none" xmlns="http://www.w3.org/2000/svg">
    <path
        d="M4.928 0H32V27.072C32 28.379 31.4808 29.6324 30.5566 30.5566C29.6324 31.4808 28.379 32 27.072 32H9.84533C7.23419 32 4.72999 30.9627 2.88363 29.1164C1.03727 27.27 0 24.7658 0 22.1547V4.928C0 3.62101 0.519199 2.36756 1.44338 1.44338C2.36756 0.519199 3.62101 0 4.928 0Z"
        fill="url(#paint0_linear_4352_1951)" />
    <g opacity="0.5">
        <path
            d="M24.256 16.2878C25.2233 15.318 25.7665 14.0042 25.7665 12.6345C25.7665 11.2648 25.2233 9.95098 24.256 8.98118C23.2862 8.0139 21.9724 7.4707 20.6027 7.4707C19.2329 7.4707 17.9191 8.0139 16.9493 8.98118L16 9.91984L23.3067 17.2265L24.256 16.2878Z"
            fill="white" />
    </g>
    <path d="M15.9962 9.92963L8.6875 17.2383L15.9962 24.5469L23.3048 17.2383L15.9962 9.92963Z"
        fill="white" />
    <path
        d="M15.0506 8.97005C14.0661 8.08126 12.7779 7.60455 11.4519 7.63841C10.126 7.67226 8.86375 8.21408 7.92588 9.15195C6.98801 10.0898 6.44618 11.3521 6.41233 12.678C6.37848 14.0039 6.85519 15.2922 7.74398 16.2767L8.69331 17.2261L16 9.91939L15.0506 8.97005ZM12.3413 12.9594C12.3413 13.1235 12.2761 13.2808 12.1601 13.3969C12.0441 13.5129 11.8867 13.5781 11.7226 13.5781H9.30131C9.13723 13.5781 8.97987 13.5129 8.86385 13.3969C8.74783 13.2808 8.68265 13.1235 8.68265 12.9594V10.5381C8.68265 10.374 8.74783 10.2166 8.86385 10.1006C8.97987 9.98457 9.13723 9.91939 9.30131 9.91939H11.7333C11.8974 9.91939 12.0548 9.98457 12.1708 10.1006C12.2868 10.2166 12.352 10.374 12.352 10.5381L12.3413 12.9594Z"
        fill="white" />
    <defs>
        <linearGradient id="paint0_linear_4352_1951" x1="0" y1="16" x2="32" y2="16"
            gradientUnits="userSpaceOnUse">
            <stop stop-color="#3197D6" />
            <stop offset="1" stop-color="#7E80E7" />
        </linearGradient>
    </defs>
</svg>