<svg width="32" height="32" viewBox="0 0 32 32" fill="none" xmlns="http://www.w3.org/2000/svg">
    <rect width="32" height="32" fill="#FAFAFA" />
    <path
        d="M7.14976 7.55289C7.16648 6.72136 7.40056 5.92309 7.76839 5.17471C8.93879 2.68011 10.9619 1.06693 13.7374 0.368447C17.1817 -0.512979 20.3083 0.185509 22.9501 2.48054C24.2542 3.61143 25.0735 5.04166 25.4413 6.6881C25.458 6.80451 25.4748 6.9043 25.4915 7.02071C25.3744 7.15376 25.2407 7.07061 25.1236 7.02071C23.3681 6.42201 21.6125 5.85657 19.8736 5.2246C18.2852 4.65916 16.7135 5.04166 15.7103 6.27233C14.7239 7.48637 14.9412 9.33238 16.1952 10.297C17.2987 11.1451 18.5193 11.3281 19.8402 10.8458C21.5289 10.2138 23.2176 9.63173 24.9063 9.01639C25.1069 8.94987 25.3076 8.86672 25.5082 8.9665C25.6085 9.06629 25.5751 9.19933 25.5751 9.31574C25.5751 16.733 25.5751 24.1669 25.5918 31.5842C25.5918 31.9002 25.5082 31.9833 25.1738 31.9833C19.3051 31.9667 13.4197 31.9833 7.55104 31.9833C7.0996 31.9833 7.04944 31.9501 7.03272 31.5177C7.016 30.3702 6.96584 29.206 7.04944 28.0751C7.13304 27.0773 7.11632 26.0795 7.11632 25.0816C7.13304 19.3773 7.11632 13.6896 7.11632 7.98529C7.13304 7.85225 7.0996 7.70257 7.14976 7.55289Z"
        fill="#252958" />
    <path
        d="M25.3577 8.93288C24.6889 9.11582 24.0369 9.36528 23.3848 9.59811C22.1977 10.0139 21.0106 10.413 19.8402 10.862C18.0511 11.5772 15.9444 10.7789 15.2422 9.14908C14.5065 7.45275 15.493 5.55686 17.3991 4.99142C18.235 4.74196 19.0543 4.80848 19.8736 5.0912C21.7128 5.72317 23.5687 6.3385 25.4079 6.97047C25.4246 6.97047 25.458 6.97046 25.4915 6.9871C26.3609 7.28645 27.2136 7.56917 28.1667 7.90178C27.2805 8.28429 26.4111 8.50049 25.5918 8.84973C25.5584 8.96614 25.4246 8.86636 25.3577 8.93288Z"
        fill="#F4BE2A" />
    <path
        d="M25.3577 8.9332C25.4079 8.85004 25.5082 8.86667 25.5918 8.85004C25.5918 8.96646 25.6085 9.0995 25.5584 9.21592V31.3513C25.6085 31.4012 25.6085 31.4511 25.6085 31.501C25.6085 31.7837 25.6085 31.7837 25.3076 31.7837C24.7224 31.7837 24.1539 31.7837 23.5687 31.9999H4.27394H3.83922C3.80578 31.6341 3.92282 31.5675 3.9897 31.4678C4.94273 30.2038 5.91249 28.9565 6.88224 27.6926C7.03272 27.5097 7.0996 27.3101 7.0996 27.0773C7.0996 20.8075 7.0996 14.5211 7.0996 8.25134C7.0996 7.98525 7.06616 7.73579 7.16648 7.48633C7.16648 7.65263 7.16648 7.83557 7.16648 8.00188C7.16648 15.7351 7.16648 23.4518 7.16648 31.185C7.16648 31.7505 7.11632 31.7006 7.71824 31.7006C13.4699 31.7006 19.2382 31.7006 24.9899 31.9833H25.1069C25.5416 31.6839 25.5416 31.6839 25.5416 31.2848C25.5416 23.9507 25.5416 16.6166 25.5416 9.29907C25.5416 9.16603 25.6252 8.98309 25.3577 8.9332Z"
        fill="#242A5A" />
    <path
        d="M10.4603 29.7546C14.8743 23.9838 19.255 18.2961 23.6189 12.5918C23.7359 12.6916 23.6857 12.7747 23.6857 12.8579C23.6857 18.3626 23.6857 23.8674 23.6857 29.3888C23.6857 29.4553 23.6857 29.5384 23.6857 29.605C23.6857 29.7214 23.6189 29.7546 23.5185 29.7546C23.4517 29.7546 23.3848 29.7546 23.3179 29.7546C19.1379 29.7546 14.9747 29.7546 10.7947 29.7546H10.4603Z"
        fill="white" />
</svg>