<svg width="32" height="32" viewBox="0 0 32 32" fill="none" xmlns="http://www.w3.org/2000/svg">
    <g clip-path="url(#clip0_3532_423)">
        <path fill-rule="evenodd" clip-rule="evenodd"
            d="M-0.0710449 -0.0712891C10.5956 -0.0712891 21.2623 -0.0712891 31.929 -0.0712891C31.929 10.5954 31.929 21.262 31.929 31.9287C21.2623 31.9287 10.5956 31.9287 -0.0710449 31.9287C-0.0710449 21.262 -0.0710449 10.5954 -0.0710449 -0.0712891Z"
            fill="#FDFEFE" />
        <path fill-rule="evenodd" clip-rule="evenodd"
            d="M11.1644 5.04883C11.3693 5.31737 11.6063 5.41219 11.8756 5.33327C11.5338 5.66993 11.5575 6.00177 11.9467 6.32883C12.0736 6.15657 12.1922 6.15657 12.3022 6.32883C12.1816 6.58238 11.992 6.65349 11.7333 6.54216C11.5643 6.15481 11.3273 5.82296 11.0222 5.54661C11.1412 5.40278 11.1886 5.23686 11.1644 5.04883Z"
            fill="#104228" />
        <path fill-rule="evenodd" clip-rule="evenodd"
            d="M10.311 5.75986C10.5212 5.7226 10.7108 5.77 10.8799 5.90208C10.7699 6.07434 10.6513 6.07434 10.5244 5.90208C10.4259 5.97679 10.3548 6.0716 10.311 6.18652C10.5732 6.22282 10.8577 6.24653 11.1644 6.25764C11.3651 6.72448 11.1992 6.98522 10.6666 7.03986C10.5481 6.99246 10.4295 6.94504 10.311 6.89764C10.4378 6.74267 10.58 6.74267 10.7377 6.89764C10.8799 6.85023 10.9747 6.75541 11.0221 6.61319C10.7032 6.47464 10.3713 6.42722 10.0266 6.47097C10.0074 6.17882 10.1022 5.94177 10.311 5.75986Z"
            fill="#144225" />
        <path fill-rule="evenodd" clip-rule="evenodd"
            d="M9.3156 6.4709C9.37201 6.32512 9.46681 6.30141 9.60005 6.39979C9.87097 6.65796 10.108 6.94241 10.3112 7.25312C10.2041 7.4646 10.0856 7.48831 9.9556 7.32423C9.85151 7.66886 9.63818 7.83479 9.3156 7.82201C8.99687 7.57467 8.75983 7.26652 8.60449 6.89756C8.65189 6.85016 8.69931 6.80274 8.74671 6.75534C8.95166 6.94949 9.1413 7.16282 9.3156 7.39534C9.45043 7.46401 9.59265 7.48771 9.74227 7.46645C9.78744 7.04242 9.64522 6.71057 9.3156 6.4709Z"
            fill="#1D4B33" />
        <path fill-rule="evenodd" clip-rule="evenodd"
            d="M8.32011 7.04004C8.65846 7.19106 8.65846 7.38069 8.32011 7.60893C8.41183 7.77191 8.53036 7.91414 8.67567 8.03559C8.77048 8.17782 8.77048 8.32004 8.67567 8.46226C8.36751 8.15411 8.05937 7.84597 7.75122 7.53782C7.8583 7.32633 7.97681 7.30262 8.10678 7.46671C8.17978 7.3207 8.25089 7.17848 8.32011 7.04004Z"
            fill="#13472E" />
        <path fill-rule="evenodd" clip-rule="evenodd"
            d="M6.89771 7.75098C7.18208 7.9111 7.46652 7.9348 7.75104 7.82209C7.42289 8.08201 7.47029 8.31905 7.89326 8.5332C8.07586 8.63045 8.24178 8.60674 8.39104 8.46209C8.46753 8.74271 8.349 8.88493 8.03548 8.88875C7.71865 8.78655 7.45792 8.59691 7.25326 8.31987C7.20586 8.36727 7.15844 8.41469 7.11104 8.46209C7.02461 8.22678 6.9535 7.98975 6.89771 7.75098Z"
            fill="#07432A" />
        <path fill-rule="evenodd" clip-rule="evenodd"
            d="M15.431 8.74658C15.5728 11.4715 15.6202 14.2211 15.5733 16.9955C14.2685 16.8688 13.107 16.3947 12.0888 15.5732C11.9777 15.3985 11.9066 15.2089 11.8755 15.0044C12.6962 12.6978 13.8814 10.6119 15.431 8.74658Z"
            fill="#80C9A7" />
        <path fill-rule="evenodd" clip-rule="evenodd"
            d="M16 8.74658C17.0246 9.79664 17.8779 10.9818 18.56 12.3021C17.8207 12.8908 16.9674 13.1753 16 13.1555C16 11.6858 16 10.2162 16 8.74658Z"
            fill="#03462F" />
        <path fill-rule="evenodd" clip-rule="evenodd"
            d="M6.3289 8.32004C6.47852 8.29878 6.62074 8.32249 6.75557 8.39115C6.32413 8.63815 6.25302 8.9463 6.54223 9.3156C7.24999 8.58063 7.36851 8.62804 6.89779 9.45782C7.01339 9.64468 7.15561 9.8106 7.32445 9.9556C7.25334 10.0267 7.18223 10.0978 7.11112 10.1689C6.66075 9.81337 6.21038 9.45782 5.76001 9.10226C6.03575 8.89859 6.22538 8.63785 6.3289 8.32004Z"
            fill="#194A32" />
        <path fill-rule="evenodd" clip-rule="evenodd"
            d="M5.47563 9.45755C5.60027 9.43893 5.69509 9.48635 5.76007 9.59977C5.65362 9.86039 5.5114 10.0974 5.3334 10.3109C5.69594 10.5002 5.93299 10.3817 6.04452 9.95533C6.1628 9.85752 6.25762 9.88123 6.32896 10.0264C6.1691 10.2275 6.02688 10.4409 5.90229 10.6664C6.01254 10.8413 6.15477 10.8887 6.32896 10.8087C6.44332 10.5567 6.60925 10.3434 6.82674 10.1687C6.78737 10.5816 6.62144 10.9608 6.32896 11.3064C5.83063 11.0337 5.35656 10.7256 4.90674 10.382C5.12839 10.0902 5.31802 9.78203 5.47563 9.45755Z"
            fill="#11442A" />
        <path fill-rule="evenodd" clip-rule="evenodd"
            d="M4.76445 10.88C4.96789 10.8688 5.15752 10.9162 5.33333 11.0223C5.51383 11.3344 5.51383 11.6426 5.33333 11.9467C5.47556 12.0652 5.61778 12.1837 5.76 12.3023C5.68889 12.3497 5.61778 12.3971 5.54667 12.4445C5.08331 12.2483 4.63293 12.0349 4.19556 11.8045C4.36893 11.4805 4.55855 11.1723 4.76445 10.88Z"
            fill="#0D4329" />
        <path fill-rule="evenodd" clip-rule="evenodd"
            d="M4.90658 11.1646C5.43953 11.3364 5.46324 11.5735 4.97769 11.8757C4.54064 11.6981 4.51693 11.4611 4.90658 11.1646Z"
            fill="#DEE5E2" />
        <path fill-rule="evenodd" clip-rule="evenodd"
            d="M18.56 12.8711C18.7758 12.8726 18.9417 12.9674 19.0578 13.1555C19.7036 14.4116 20.0356 15.739 20.0533 17.1378C19.9024 17.5732 19.6417 17.9288 19.2711 18.2044C18.2578 18.8029 17.1674 19.1585 16 19.2711C16 17.3748 16 15.4785 16 13.5822C16.9291 13.5721 17.7825 13.3351 18.56 12.8711Z"
            fill="#067A6E" />
        <path fill-rule="evenodd" clip-rule="evenodd"
            d="M14.0089 4.90651C18.3534 4.44986 22.0274 5.77728 25.0312 8.88873C28.5671 13.5716 28.7093 18.3597 25.4578 23.2532C21.3971 27.7066 16.5379 28.868 10.8801 26.7376C5.9101 24.1688 3.72937 20.1155 4.33784 14.5776C3.89193 19.5408 5.78822 23.357 10.0267 26.0265C13.2232 27.6868 16.5418 27.9713 19.9823 26.8798C25.685 24.3961 28.1263 20.0583 27.3067 13.8665C25.989 9.46739 23.121 6.64666 18.7023 5.40429C17.2677 5.0583 15.8217 4.98719 14.3645 5.19095C14.1689 5.16476 14.0503 5.06994 14.0089 4.90651Z"
            fill="#114023" />
        <path fill-rule="evenodd" clip-rule="evenodd"
            d="M11.449 19.4136C12.6076 20.4903 13.9825 21.0592 15.5734 21.1202C15.5734 21.7365 15.5734 22.3529 15.5734 22.9691C13.2802 22.8571 11.9054 21.6719 11.449 19.4136Z"
            fill="#097A6D" />
        <path fill-rule="evenodd" clip-rule="evenodd"
            d="M20.1244 17.8491C20.4598 20.0937 19.6065 21.7292 17.5644 22.7558C17.0544 22.9134 16.5329 22.9845 16 22.9691C15.9529 21.8746 16.0004 20.7843 16.1422 19.698C17.3682 19.5343 18.506 19.1314 19.5556 18.4891C19.7747 18.2941 19.9644 18.0808 20.1244 17.8491Z"
            fill="#81C9A8" />
        <path fill-rule="evenodd" clip-rule="evenodd"
            d="M11.591 15.7153C12.7057 16.7459 14.0331 17.3148 15.5732 17.422C15.5732 18.5124 15.5732 19.6027 15.5732 20.6931C14.0308 20.6613 12.7271 20.0924 11.6621 18.9864C11.5106 18.5776 11.4395 18.1509 11.4488 17.7064C11.4964 17.042 11.5438 16.3782 11.591 15.7153Z"
            fill="#03462F" />
    </g>
    <defs>
        <clipPath id="clip0_3532_423">
            <rect width="32" height="32" fill="white" />
        </clipPath>
    </defs>
</svg>