<svg width="32" height="32" viewBox="0 0 32 32" fill="none" xmlns="http://www.w3.org/2000/svg">
    <g clip-path="url(#clip0_2539_140)">
        <path opacity="0.992" fill-rule="evenodd" clip-rule="evenodd"
            d="M7.43997 13.84C7.1782 14.0398 6.99152 14.3065 6.87997 14.64C5.23879 20.3945 6.43879 25.4613 10.48 29.84C10.64 30.0533 10.8 30.2667 10.96 30.48C5.98511 28.7851 2.62511 25.4518 0.879973 20.48C0.90664 20.4 0.933306 20.32 0.959973 20.24C1.71962 20.7665 2.49296 21.2733 3.27997 21.76C3.41304 21.8701 3.51972 21.8433 3.59997 21.68C2.53221 19.9709 1.38555 18.3176 0.159973 16.72C0.0413589 15.3832 0.0680254 14.0498 0.239973 12.72C0.316515 11.9876 0.503181 11.2943 0.799973 10.64C1.37437 11.7356 1.9077 12.8556 2.39997 14C2.3154 11.7617 2.26207 9.5217 2.23997 7.27999C3.07269 5.8337 4.11269 4.5537 5.35997 3.43999C5.56247 4.71212 5.6958 5.99212 5.75997 7.27999C6.56232 5.27327 7.44232 3.29994 8.39997 1.35999C9.21948 0.767037 10.1261 0.393704 11.12 0.23999C11.1466 2.53394 11.12 4.82727 11.04 7.11999C9.86223 9.38599 8.66223 11.626 7.43997 13.84Z"
            fill="#F6B23D" />
        <path opacity="0.995" fill-rule="evenodd" clip-rule="evenodd"
            d="M31.92 12.72C31.92 14.0533 31.92 15.3867 31.92 16.72C30.7248 18.3713 29.5514 20.0513 28.4 21.76C28.6253 21.8104 28.8386 21.7571 29.04 21.6C29.7333 21.1467 30.4267 20.6933 31.12 20.24C29.8074 24.6265 27.0339 27.8533 22.8 29.92C22.2787 30.1547 21.7453 30.3413 21.2 30.48C21.4133 30.2133 21.6267 29.9467 21.84 29.68C25.0547 25.9416 26.3614 21.6216 25.76 16.72C25.5899 15.8364 25.3232 14.9831 24.96 14.16C24.8467 14.0191 24.7133 13.9124 24.56 13.84C23.4538 11.6804 22.307 9.54711 21.12 7.43999C21.092 5.05474 21.012 2.6814 20.88 0.31999C21.0133 0.293323 21.1467 0.266657 21.28 0.23999C22.1238 0.528728 22.9238 0.902061 23.68 1.35999C24.532 3.27449 25.3854 5.19449 26.24 7.11999C26.389 5.89569 26.5222 4.66903 26.64 3.43999C27.9384 4.55125 29.0318 5.83125 29.92 7.27999C29.807 9.57425 29.7003 11.8676 29.6 14.16C30.0531 12.933 30.6131 11.7596 31.28 10.64C31.5216 11.3438 31.7349 12.0371 31.92 12.72Z"
            fill="#E93500" />
        <path opacity="0.946" fill-rule="evenodd" clip-rule="evenodd"
            d="M21.04 18.96C19.3867 20.9867 17.7333 23.0133 16.08 25.04C14.3179 23.0641 12.6113 21.0376 10.96 18.96C11.6 18.96 12.24 18.96 12.88 18.96C13.3834 17.8187 13.9168 16.6721 14.48 15.52C13.7182 14.2777 12.8915 13.0777 12 11.92C11.89 11.7869 11.9167 11.6802 12.08 11.6C12.6717 11.8958 13.2583 12.1891 13.84 12.48C15.6052 12.5143 17.3651 12.621 19.12 12.8C19.6919 14.0097 20.2786 15.2097 20.88 16.4C20.8267 16.4533 20.7733 16.5067 20.72 16.56C19.7239 15.9238 18.6573 15.6305 17.52 15.68C18.145 16.7158 18.7317 17.7825 19.28 18.88C19.8643 18.9598 20.4509 18.9864 21.04 18.96Z"
            fill="#EA3500" />
        <path fill-rule="evenodd" clip-rule="evenodd"
            d="M17.52 13.68C17.1829 13.8349 16.8095 13.8882 16.4 13.84C16.4 13.68 16.4 13.52 16.4 13.36C16.7874 13.4205 17.1607 13.5272 17.52 13.68Z"
            fill="#FEF0EC" />
        <path fill-rule="evenodd" clip-rule="evenodd"
            d="M17.52 13.6801C17.6463 13.7253 17.753 13.8053 17.84 13.9201C17.3287 14.0488 16.8487 14.0221 16.4 13.8401C16.8095 13.8883 17.1829 13.835 17.52 13.6801Z"
            fill="#F09074" />
        <path fill-rule="evenodd" clip-rule="evenodd"
            d="M24.56 13.84C24.7133 13.9124 24.8467 14.0191 24.96 14.16C25.3232 14.9831 25.5899 15.8364 25.76 16.72C26.3614 21.6216 25.0547 25.9416 21.84 29.68C21.7531 29.6704 21.6998 29.6171 21.68 29.52C24.2259 25.0292 24.8659 20.2825 23.6 15.28C23.8824 14.7665 24.2024 14.2865 24.56 13.84Z"
            fill="#841C0D" />
        <path fill-rule="evenodd" clip-rule="evenodd"
            d="M7.44002 13.84C7.87859 14.236 8.19859 14.716 8.40002 15.28C7.5344 19.4688 7.82773 23.5753 9.28002 27.6C9.7224 28.3248 10.1224 29.0715 10.48 29.84C6.43883 25.4612 5.23883 20.3945 6.88002 14.64C6.99157 14.3065 7.17824 14.0398 7.44002 13.84Z"
            fill="#851F0D" />
        <path opacity="0.985" fill-rule="evenodd" clip-rule="evenodd"
            d="M8.4 15.28C9.37118 16.4216 10.2245 17.6482 10.96 18.96C12.6113 21.0376 14.3179 23.0642 16.08 25.04C17.6131 26.8824 19.1064 28.749 20.56 30.64C19.1091 31.1821 17.5891 31.3954 16 31.28C14.2361 31.4117 12.5561 31.1451 10.96 30.48C10.8 30.2667 10.64 30.0533 10.48 29.84C10.1224 29.0715 9.72238 28.3248 9.28 27.6C7.82771 23.5754 7.53438 19.4688 8.4 15.28Z"
            fill="#F57700" />
        <path fill-rule="evenodd" clip-rule="evenodd"
            d="M23.6 15.28C24.8659 20.2826 24.2259 25.0293 21.68 29.52C21.6999 29.6171 21.7531 29.6704 21.84 29.68C21.6267 29.9467 21.4133 30.2133 21.2 30.48C21.0291 30.6295 20.8159 30.6829 20.56 30.64C19.1064 28.749 17.6131 26.8824 16.08 25.04C17.7333 23.0133 19.3867 20.9867 21.04 18.96C21.7755 17.6482 22.6288 16.4216 23.6 15.28Z"
            fill="#F15B2B" />
    </g>
    <defs>
        <clipPath id="clip0_2539_140">
            <rect width="32" height="32" fill="white" />
        </clipPath>
    </defs>
</svg>