<svg width="32" height="32" viewBox="0 0 33 32" fill="none" xmlns="http://www.w3.org/2000/svg">
    <path
        d="M0.78209 0.126553C0.716111 0.18079 0.666626 7.39435 0.666626 16.1266V32H2.81096H4.95529L4.98828 26.8836L5.03776 21.7853L9.98621 21.6949C16.2378 21.5684 17.046 21.3876 19.4213 19.5797C19.9656 19.1638 20.5924 18.513 20.7903 18.1695C20.9883 17.8079 21.2357 17.4282 21.3347 17.3017C21.6481 16.9401 22.0604 15.8915 22.4563 14.4633C22.7697 13.3424 22.7697 7.6113 22.4563 6.59887C21.6481 4.03164 20.4275 2.44068 18.4481 1.39209C16.0893 0.144632 14.9512 -7.18981e-07 7.34704 -7.18981e-07C3.80065 -7.18981e-07 0.831574 0.0542366 0.78209 0.126553ZM15.7594 5.02599C17.5903 6.11073 18.3326 7.70169 18.3326 10.6305C18.3326 12.9446 17.8048 14.5898 16.6831 15.8373C15.2976 17.3559 14.5223 17.5367 9.29343 17.5367H4.95529V10.9198V4.30282L9.87075 4.37514L14.7697 4.42938L15.7594 5.02599Z"
        fill="#063386" />
    <path
        d="M28.4934 0.108471C28.4274 0.180787 28.3779 7.39435 28.3779 16.1266V32H30.5223H32.6666L32.6336 16.0362L32.5841 0.0903915L30.5882 0.0361542C29.4996 0.0180751 28.5594 0.0542333 28.4934 0.108471Z"
        fill="#063386" />
</svg>