<svg width="32" height="32" viewBox="0 0 32 32" fill="none" xmlns="http://www.w3.org/2000/svg">
    <path fill-rule="evenodd" clip-rule="evenodd"
        d="M31.7465 32.0006H0.253591C0.113536 32.0006 0 31.8871 0 31.747V0.253585C0 0.113534 0.113536 0 0.253591 0H31.7465C31.8865 0 32 0.113534 32 0.253585V31.747C32 31.8871 31.8865 32.0006 31.7465 32.0006ZM2.81342 29.4392H29.187C29.3271 29.4392 29.4406 29.3257 29.4406 29.1857V2.81431C29.4406 2.67426 29.3271 2.56072 29.187 2.56072H2.81342C2.67336 2.56072 2.55982 2.67426 2.55982 2.81431V29.1857C2.55982 29.2529 2.58654 29.3174 2.6341 29.365"
        fill="#FB5946" />
    <path
        d="M10.3999 26.1349V5.86492C10.3999 5.68819 10.5431 5.54492 10.7199 5.54492C10.7427 5.54492 10.7655 5.54737 10.7878 5.55221L22.1885 8.02789C22.3356 8.05984 22.4405 8.19004 22.4405 8.34061V23.6592C22.4405 23.8098 22.3356 23.94 22.1885 23.9719L10.7878 26.4476C10.6151 26.4851 10.4447 26.3755 10.4072 26.2028C10.4024 26.1805 10.3999 26.1577 10.3999 26.1349ZM13.28 9.31662V22.683C13.28 22.8598 13.4233 23.003 13.6001 23.003C13.6196 23.003 13.6391 23.0012 13.6584 22.9977L19.6189 21.8912C19.7705 21.863 19.8805 21.7308 19.8805 21.5766V10.4231C19.8805 10.2689 19.7705 10.1366 19.6189 10.1085L13.6584 9.002C13.4847 8.96974 13.3177 9.08445 13.2854 9.25822C13.2818 9.27748 13.28 9.29703 13.28 9.31662Z"
        fill="#FB5946" />
</svg>