<svg width="32" height="32" viewBox="0 0 32 32" fill="none" xmlns="http://www.w3.org/2000/svg">
    <g clip-path="url(#clip0_3863_71)">
        <path opacity="0.501" fill-rule="evenodd" clip-rule="evenodd"
            d="M-0.03125 -0.03125C10.6354 -0.03125 21.3021 -0.03125 31.9687 -0.03125C31.9687 10.6354 31.9687 21.3021 31.9687 31.9687C21.3021 31.9687 10.6354 31.9687 -0.03125 31.9687C-0.03125 21.3021 -0.03125 10.6354 -0.03125 -0.03125Z"
            fill="black" />
        <path fill-rule="evenodd" clip-rule="evenodd"
            d="M0.03125 0.03125C10.6564 0.03125 21.2816 0.03125 31.9067 0.03125C31.9067 10.6564 31.9067 21.2816 31.9067 31.9067C21.2816 31.9067 10.6564 31.9067 0.03125 31.9067C0.03125 21.2816 0.03125 10.6564 0.03125 0.03125Z"
            fill="#7E7E7E" />
        <path fill-rule="evenodd" clip-rule="evenodd"
            d="M0.0932617 0.09375C10.6769 0.09375 21.2606 0.09375 31.8442 0.09375C31.8442 10.6774 31.8442 21.2611 31.8442 31.8447C21.2606 31.8447 10.6769 31.8447 0.0932617 31.8447C0.0932617 21.2611 0.0932617 10.6774 0.0932617 0.09375Z"
            fill="#FEFEFF" />
        <path fill-rule="evenodd" clip-rule="evenodd"
            d="M14.6616 8.37365C20.0967 8.18227 24.8075 9.91513 28.7939 13.5721C29.491 14.2484 30.1654 14.9435 30.8172 15.6577C31.0788 15.9738 31.0995 16.3059 30.8795 16.6538C29.5979 17.977 28.2387 19.2118 26.8017 20.3581C21.5314 23.9898 15.8453 24.8198 9.7433 22.8484C7.21779 21.8978 4.97651 20.5074 3.01956 18.6772C2.36587 17.9819 1.71217 17.2868 1.05847 16.5915C0.850952 16.2803 0.850952 15.969 1.05847 15.6577C1.94203 14.712 2.84476 13.7884 3.76664 12.8873C6.91248 10.2231 10.5441 8.71855 14.6616 8.37365Z"
            fill="#D177FF" />
        <path fill-rule="evenodd" clip-rule="evenodd"
            d="M14.9106 9.05842C20.9963 8.9839 26.0079 11.2459 29.9456 15.8444C30.0195 16.1475 29.9572 16.4173 29.7589 16.6538C28.8321 17.5392 27.9086 18.4212 26.9884 19.2997C22.1786 22.9428 16.8453 24.0012 10.9884 22.4748C8.69837 21.7865 6.6231 20.7074 4.76274 19.2374C3.73214 18.2898 2.7464 17.3041 1.80554 16.2802C1.76404 16.1764 1.76404 16.0727 1.80554 15.9689C5.21588 11.8718 9.58422 9.56831 14.9106 9.05842Z"
            fill="#FEFEFF" />
        <path fill-rule="evenodd" clip-rule="evenodd"
            d="M15.2216 9.74332C17.8181 9.59434 19.8622 10.5697 21.3539 12.6694C22.7406 15.2351 22.6161 17.7253 20.9804 20.1402C19.6689 21.6985 17.988 22.4871 15.9376 22.506C12.8614 22.4107 10.8069 20.9165 9.77417 18.0235C9.10796 15.3644 9.76166 13.0921 11.7353 11.2064C12.7632 10.3912 13.9254 9.90357 15.2216 9.74332Z"
            fill="#D278FF" />
        <path fill-rule="evenodd" clip-rule="evenodd"
            d="M15.4085 10.4904C18.8901 10.4716 20.9341 12.1733 21.5408 15.5954C21.695 18.225 20.6056 20.1239 18.2724 21.2919C15.7114 22.293 13.4806 21.8054 11.5797 19.8289C10.1869 17.9266 9.91711 15.8721 10.7704 13.6655C11.7513 11.7818 13.2974 10.7235 15.4085 10.4904Z"
            fill="#FEFDFF" />
        <path fill-rule="evenodd" clip-rule="evenodd"
            d="M15.7199 11.9218C17.6859 11.8523 19.066 12.7239 19.86 14.5366C20.5307 16.4677 20.1053 18.1175 18.5837 19.486C17.2613 20.4191 15.8294 20.6266 14.288 20.1086C12.5489 19.2956 11.6877 17.9363 11.7043 16.0308C11.7241 15.9336 11.776 15.8609 11.86 15.8129C13.0663 15.8017 14.2699 15.7706 15.4709 15.7195C15.5649 15.3957 15.6065 15.0636 15.5954 14.7234C15.5397 13.9351 15.5293 13.1466 15.5643 12.3576C15.6106 12.2082 15.6624 12.063 15.7199 11.9218Z"
            fill="#D278FF" />
        <path fill-rule="evenodd" clip-rule="evenodd"
            d="M16.2803 12.6689C17.6901 12.8093 18.6758 13.5357 19.2375 14.8479C19.6764 16.3194 19.3755 17.6164 18.3348 18.739C17.2214 19.663 15.9763 19.8913 14.5994 19.4238C13.2908 18.872 12.5644 17.8862 12.4204 16.4666C13.4786 16.5124 14.537 16.5228 15.5955 16.4977C15.8529 16.4883 16.0708 16.3949 16.2492 16.2176C16.2803 15.0349 16.2907 13.852 16.2803 12.6689Z"
            fill="#FEFEFF" />
    </g>
    <defs>
        <clipPath id="clip0_3863_71">
            <rect width="32" height="32" fill="white" />
        </clipPath>
    </defs>
</svg>