<svg width="32" height="32" viewBox="0 0 32 32" fill="none" xmlns="http://www.w3.org/2000/svg">
    <g clip-path="url(#clip0_1592_74)">
        <path fill-rule="evenodd" clip-rule="evenodd"
            d="M32 0.231717C27.9207 1.99667 29.8538 8.50354 29.824 10.5914C29.818 11.0428 29.7483 11.4691 29.6156 11.8695C29.4401 12.4619 28.9162 13.1108 27.9155 13.9216L4.11151 31.5556L15.5174 15.9243L20.1522 13.7307L3.07202 16.9722C3.07202 16.9722 13.9708 10.3418 18.5834 7.84051C19.901 7.12603 20.5714 7.26471 21.7545 7.37842L23.9288 4.33845L20.3308 4.59631L27.8536 0.546709C28.1111 0.395302 28.387 0.267773 28.6812 0.180404C29.7647 -0.141498 30.6773 0.0286553 31.9121 0.217897L32 0.231717Z"
            fill="#1216F2" />
    </g>
    <defs>
        <clipPath id="clip0_1592_74">
            <rect width="32" height="32" fill="white" />
        </clipPath>
    </defs>
</svg>