<svg width="32" height="32" viewBox="0 0 32 32" fill="none" xmlns="http://www.w3.org/2000/svg">
    <g clip-path="url(#clip0_4341_1549)">
        <path fill-rule="evenodd" clip-rule="evenodd"
            d="M3.21875 -0.03125C11.7188 -0.03125 20.2188 -0.03125 28.7188 -0.03125C30.4462 0.404587 31.5296 1.48792 31.9688 3.21875C31.9688 11.7188 31.9688 20.2188 31.9688 28.7188C31.5257 30.4742 30.4216 31.5576 28.6562 31.9688C20.1979 31.9688 11.7396 31.9688 3.28125 31.9688C1.51761 31.5593 0.413444 30.4759 -0.03125 28.7188C-0.03125 20.2188 -0.03125 11.7188 -0.03125 3.21875C0.40625 1.48958 1.48958 0.40625 3.21875 -0.03125Z"
            fill="#182EF5" />
        <path fill-rule="evenodd" clip-rule="evenodd"
            d="M11.2812 3.53125C11.285 3.49731 11.3058 3.47647 11.3438 3.46875C11.4062 4.50958 11.4271 5.55125 11.4062 6.59375C11.3646 5.57292 11.3229 4.55208 11.2812 3.53125Z"
            fill="#6472F8" />
        <path fill-rule="evenodd" clip-rule="evenodd"
            d="M11.2812 3.53125C11.3229 4.55208 11.3646 5.57292 11.4062 6.59375C13.8863 8.90706 16.3863 11.1988 18.9062 13.4688C20.4424 13.0638 21.9841 12.6993 23.5312 12.375C21.8927 14.0655 20.2885 15.7843 18.7188 17.5312C21.8177 21.0026 24.9011 24.4818 27.9688 27.9688C24.4307 24.879 20.8994 21.7749 17.375 18.6562C15.8333 20.2396 14.2917 21.8229 12.75 23.4062C12.7083 23.2604 12.7083 23.1146 12.75 22.9688C12.9927 21.7001 13.2011 20.4293 13.375 19.1562C11.2662 16.5844 9.1725 14.0011 7.09375 11.4062C6.94794 11.3854 6.80206 11.3646 6.65625 11.3438C5.61517 11.4333 4.5735 11.4854 3.53125 11.5C6.10457 8.83294 8.68788 6.17669 11.2812 3.53125Z"
            fill="#FDFDFE" />
        <path fill-rule="evenodd" clip-rule="evenodd"
            d="M27.9685 27.9688C28.0833 27.9774 28.1042 28.0191 28.031 28.0938C27.9812 28.0652 27.9603 28.0235 27.9685 27.9688Z"
            fill="#AAA9FC" />
    </g>
    <defs>
        <clipPath id="clip0_4341_1549">
            <rect width="32" height="32" fill="white" />
        </clipPath>
    </defs>
</svg>