<svg width="32" height="32" viewBox="0 0 32 32" fill="none" xmlns="http://www.w3.org/2000/svg">
    <g clip-path="url(#clip0_3553_5021)">
        <path d="M16.9963 9.73828H15.0474V18.3353H16.9963V9.73828Z" fill="#103355" />
        <path d="M13.4831 15.2988H11.5352V18.3347H13.4831V15.2988Z" fill="#103355" />
        <path d="M20.509 12.4863H18.5605V18.3353H20.509V12.4863Z" fill="#103355" />
        <path
            d="M0.0229492 0.00878906V32.0087H32.0227V0.00878906H0.0229492ZM23.3941 17.0524C23.3941 19.8244 22.08 21.0844 19.1894 21.0844H15.098L9.70028 26.2595C9.12361 26.8127 8.65173 26.6254 8.65173 25.842V11.0054C8.65173 8.23391 9.96585 6.97398 12.8564 6.97398H19.1893C22.08 6.97398 23.394 8.23381 23.394 11.0054V17.0524H23.3941Z"
            fill="#103355" />
    </g>
    <defs>
        <clipPath id="clip0_3553_5021">
            <rect width="32" height="32" fill="white" />
        </clipPath>
    </defs>
</svg>