<svg width="32" height="32" viewBox="0 0 32 32" fill="none" xmlns="http://www.w3.org/2000/svg">
    <g clip-path="url(#clip0_4906_77)">
        <path fill-rule="evenodd" clip-rule="evenodd"
            d="M-0.0712891 -0.0712891C10.5954 -0.0712891 21.262 -0.0712891 31.9287 -0.0712891C31.9287 10.5954 31.9287 21.262 31.9287 31.9287C21.262 31.9287 10.5954 31.9287 -0.0712891 31.9287C-0.0712891 21.262 -0.0712891 10.5954 -0.0712891 -0.0712891Z"
            fill="#487FFF" />
        <path fill-rule="evenodd" clip-rule="evenodd"
            d="M9.8843 13.0137C10.3091 13.0774 10.4514 13.2907 10.311 13.6537C9.60297 13.7766 9.46074 13.5632 9.8843 13.0137Z"
            fill="#EEF2FF" />
        <path fill-rule="evenodd" clip-rule="evenodd"
            d="M21.5467 13.0132C22.0674 12.9919 22.2096 13.2052 21.9734 13.6532C21.7895 13.7229 21.5998 13.7466 21.4045 13.7243C21.3854 13.4695 21.4328 13.2324 21.5467 13.0132Z"
            fill="#F2F5FF" />
        <path fill-rule="evenodd" clip-rule="evenodd"
            d="M6.75602 14.0091C8.08166 13.8898 8.84017 14.4824 9.03158 15.7869C8.81679 17.0806 8.05828 17.6021 6.75602 17.3514C6.49103 17.1497 6.41992 16.889 6.54269 16.5691C7.20314 17.0122 7.77203 16.9173 8.24935 16.2847C8.51009 15.0284 8.01231 14.5307 6.75602 14.7914C6.63751 14.9098 6.51898 15.0284 6.40047 15.1469C6.19555 16.364 6.12444 17.5965 6.18713 18.8447C5.99751 18.8447 5.80787 18.8447 5.61824 18.8447C5.59458 17.6112 5.61827 16.3786 5.68936 15.1469C5.90548 14.6267 6.26103 14.2475 6.75602 14.0091Z"
            fill="#F5F7FF" />
        <path fill-rule="evenodd" clip-rule="evenodd"
            d="M9.74219 14.1514C9.93181 14.1514 10.1215 14.1514 10.3111 14.1514C10.3111 15.2418 10.3111 16.3321 10.3111 17.4225C10.1215 17.4225 9.93181 17.4225 9.74219 17.4225C9.74219 16.3321 9.74219 15.2418 9.74219 14.1514Z"
            fill="#FCFDFF" />
        <path fill-rule="evenodd" clip-rule="evenodd"
            d="M11.0221 14.1515C11.5343 14.1468 11.961 14.3365 12.3021 14.7203C12.6431 14.3365 13.0698 14.1468 13.5821 14.1515C13.6193 14.3617 13.5719 14.5512 13.4398 14.7203C12.284 15.4625 12.3077 16.1736 13.511 16.8537C13.5806 17.0376 13.6044 17.2273 13.5821 17.4226C13.0555 17.3711 12.6288 17.134 12.3021 16.7115C11.9812 17.1327 11.5546 17.3698 11.0221 17.4226C11.0221 17.1855 11.0221 16.9485 11.0221 16.7115C11.9411 16.5259 12.2018 16.0043 11.8043 15.147C11.6277 14.9519 11.4143 14.8097 11.1643 14.7203C11.0322 14.5512 10.9848 14.3617 11.0221 14.1515Z"
            fill="#F5F7FF" />
        <path fill-rule="evenodd" clip-rule="evenodd"
            d="M15.1469 14.0093C16.0346 13.9552 16.6982 14.3108 17.1381 15.0759C16.4147 15.4969 15.6798 15.9 14.9336 16.2848C14.7395 16.1294 14.692 15.9398 14.7914 15.7159C15.2533 15.4732 15.7037 15.2125 16.1425 14.9337C15.2346 14.4762 14.6657 14.7369 14.4358 15.7159C14.565 16.6345 15.0864 16.9901 16.0003 16.7826C16.3398 16.5626 16.5293 16.2545 16.5692 15.8582C16.8062 15.8582 17.0432 15.8582 17.2803 15.8582C17.157 16.9056 16.5643 17.427 15.5025 17.4226C14.0726 17.2226 13.5511 16.4167 13.9381 15.0048C14.2534 14.553 14.6563 14.2211 15.1469 14.0093Z"
            fill="#F4F6FF" />
        <path fill-rule="evenodd" clip-rule="evenodd"
            d="M18.4182 15.1466C18.2778 15.8299 18.2303 16.5411 18.276 17.2799C18.0864 17.2799 17.8967 17.2799 17.7071 17.2799C17.6835 16.4726 17.7072 15.6667 17.7782 14.8621C18.6789 13.7243 19.5797 13.7243 20.4804 14.8621C20.5514 15.7142 20.5751 16.5675 20.5515 17.4221C20.3619 17.4221 20.1722 17.4221 19.9826 17.4221C20.0062 16.6621 19.9825 15.9036 19.9115 15.1466C19.3944 14.3928 18.8966 14.3928 18.4182 15.1466Z"
            fill="#F8F9FF" />
        <path fill-rule="evenodd" clip-rule="evenodd"
            d="M21.9732 14.1514C21.9732 15.1943 21.9732 16.2373 21.9732 17.2803C21.7836 17.2803 21.5939 17.2803 21.4043 17.2803C21.4043 16.2373 21.4043 15.1943 21.4043 14.1514C21.5939 14.1514 21.7836 14.1514 21.9732 14.1514Z"
            fill="#FAFBFF" />
        <path fill-rule="evenodd" clip-rule="evenodd"
            d="M21.9732 14.1514C22.1143 15.2155 22.1616 16.3057 22.1154 17.4225C21.8431 17.4629 21.6061 17.4155 21.4043 17.2803C21.5939 17.2803 21.7836 17.2803 21.9732 17.2803C21.9732 16.2373 21.9732 15.1943 21.9732 14.1514Z"
            fill="#B7C9FF" />
        <path fill-rule="evenodd" clip-rule="evenodd"
            d="M24.1062 14.0088C26.0171 14.0433 26.6571 14.944 26.0262 16.711C24.9881 17.6916 23.9926 17.6441 23.0395 16.5688C22.6516 15.4014 23.0071 14.5481 24.1062 14.0088Z"
            fill="#F3F5FF" />
        <path fill-rule="evenodd" clip-rule="evenodd"
            d="M24.1065 14.7198C25.1964 14.5124 25.6941 14.9391 25.5999 15.9998C25.3925 16.7904 24.8947 17.0511 24.1065 16.782C23.3577 16.0817 23.3577 15.3942 24.1065 14.7198Z"
            fill="#4A7FFF" />
        <path fill-rule="evenodd" clip-rule="evenodd"
            d="M18.4181 15.1465C18.4181 15.905 18.4181 16.6636 18.4181 17.422C18.1458 17.4624 17.9088 17.4151 17.707 17.2798C17.8966 17.2798 18.0863 17.2798 18.2759 17.2798C18.2303 16.541 18.2778 15.8299 18.4181 15.1465Z"
            fill="#A9BEFF" />
    </g>
    <defs>
        <clipPath id="clip0_4906_77">
            <rect width="32" height="32" fill="white" />
        </clipPath>
    </defs>
</svg>