<svg width="32" height="32" viewBox="0 0 32 32" fill="none" xmlns="http://www.w3.org/2000/svg">
    <g clip-path="url(#clip0_3345_2555)">
        <path fill-rule="evenodd" clip-rule="evenodd"
            d="M-0.0888672 -0.0898438C10.5778 -0.0898438 21.2445 -0.0898438 31.9111 -0.0898438C31.9111 10.5768 31.9111 21.2435 31.9111 31.9102C21.2445 31.9102 10.5778 31.9102 -0.0888672 31.9102C-0.0888672 21.2435 -0.0888672 10.5768 -0.0888672 -0.0898438Z"
            fill="#FEFFFE" />
        <path fill-rule="evenodd" clip-rule="evenodd"
            d="M5.24444 0.445312C7.46039 2.75024 9.71225 5.03171 12 7.28976C10.4271 8.89232 8.82711 10.4627 7.2 12.0009C4.83148 9.8694 2.52037 7.6768 0.266663 5.42309C0.266663 3.76384 0.266663 2.10457 0.266663 0.445312C1.92592 0.445312 3.58519 0.445312 5.24444 0.445312Z"
            fill="#DDDDDE" />
        <path fill-rule="evenodd" clip-rule="evenodd"
            d="M26.5778 0.445312C28.237 0.445312 29.8963 0.445312 31.5555 0.445312C31.5555 1.98606 31.5555 3.52679 31.5555 5.06753C29.1767 7.41699 26.7767 9.7281 24.3555 12.0009C22.8122 10.4872 21.3011 8.94649 19.8222 7.37865C22.0778 5.06385 24.3298 2.75274 26.5778 0.445312Z"
            fill="#DDDDDE" />
        <path fill-rule="evenodd" clip-rule="evenodd"
            d="M5.24444 0.445312C7.79258 0.445312 10.3407 0.445312 12.8889 0.445312C13.7041 1.55744 14.6522 2.56485 15.7333 3.46753C16.8123 2.50711 17.8197 1.4997 18.7556 0.445312C21.363 0.445312 23.9703 0.445312 26.5778 0.445312C24.3298 2.75274 22.0779 5.06385 19.8222 7.37865C21.3012 8.94649 22.8123 10.4872 24.3556 12.0009C26.7767 9.7281 29.1767 7.41699 31.5556 5.06753C31.5556 7.67495 31.5556 10.2823 31.5556 12.8898C30.474 13.8821 29.4073 14.9191 28.3556 16.0009C29.3495 17.0847 30.4162 18.0626 31.5556 18.9342C31.5556 21.4823 31.5556 24.0306 31.5556 26.5786C29.19 24.3315 26.8789 22.0204 24.6222 19.6453C25.8036 18.4044 26.9888 17.1601 28.1778 15.912C26.9876 14.5735 25.7134 13.329 24.3556 12.1786C23.0299 13.3263 21.7557 14.5412 20.5333 15.8231C21.9268 17.0091 23.2304 18.2832 24.4444 19.6453C22.9036 21.3045 21.3036 22.9045 19.6444 24.4453C18.3444 23.2046 17.0407 21.9602 15.7333 20.712C14.4296 21.8972 13.1852 23.1417 12 24.4453C13.3037 25.6898 14.6074 26.9342 15.9111 28.1786C17.1592 26.9897 18.4036 25.8044 19.6444 24.6231C22.0686 26.7507 24.3797 29.0026 26.5778 31.3786C24.0297 31.3786 21.4814 31.3786 18.9333 31.3786C17.989 30.3157 16.9815 29.3082 15.9111 28.3564C15.2855 28.9527 14.6336 29.5155 13.9556 30.0453C13.4902 30.4197 13.1346 30.8642 12.8889 31.3786C10.2815 31.3786 7.67408 31.3786 5.06666 31.3786C5.12592 31.2601 5.18519 31.1417 5.24444 31.0231C6.78519 29.3639 8.38519 27.7639 10.0444 26.2231C10.5357 25.6325 11.0987 25.0992 11.7333 24.6231C11.8519 24.5045 11.8519 24.3861 11.7333 24.2675C10.2493 22.7539 8.7382 21.2723 7.2 19.8231C6.5444 20.3602 5.9518 20.9527 5.42222 21.6009C3.76296 23.2009 2.10369 24.8009 0.44444 26.4009C0.385182 26.4009 0.325921 26.4009 0.266663 26.4009C0.266663 23.8528 0.266663 21.3045 0.266663 18.7564C1.26682 17.816 2.27424 16.8678 3.28888 15.912C2.33701 14.8416 1.32959 13.8342 0.266663 12.8898C0.266663 10.4009 0.266663 7.91198 0.266663 5.42309C2.52037 7.6768 4.83148 9.8694 7.2 12.0009C8.82711 10.4627 10.4271 8.89232 12 7.28976C9.71225 5.03171 7.46039 2.75024 5.24444 0.445312Z"
            fill="#ECEDED" />
        <path fill-rule="evenodd" clip-rule="evenodd"
            d="M15.5556 3.64453C16.9692 4.82062 18.3323 6.06506 19.6445 7.37786C18.4592 8.68156 17.2148 9.92601 15.9111 11.1112C14.5726 9.92094 13.3282 8.64686 12.1778 7.28898C13.2727 6.04594 14.3986 4.83113 15.5556 3.64453Z"
            fill="#FDFDFD" />
        <path fill-rule="evenodd" clip-rule="evenodd"
            d="M12.8889 0.445312C14.8445 0.445312 16.8 0.445312 18.7556 0.445312C17.8198 1.4997 16.8123 2.50711 15.7334 3.46753C14.6523 2.56485 13.7041 1.55744 12.8889 0.445312Z"
            fill="#DDDDDE" />
        <path fill-rule="evenodd" clip-rule="evenodd"
            d="M7.02223 12.1777C8.43103 13.2897 9.73473 14.5342 10.9333 15.9111C9.74815 17.2148 8.50371 18.4592 7.20001 19.6444C5.89631 18.4592 4.65187 17.2148 3.46667 15.9111C4.65569 14.663 5.84088 13.4185 7.02223 12.1777Z"
            fill="#FDFDFD" />
        <path fill-rule="evenodd" clip-rule="evenodd"
            d="M24.6222 19.6444C24.563 19.6444 24.5036 19.6444 24.4444 19.6444C23.2304 18.2823 21.9267 17.0082 20.5333 15.8222C21.7557 14.5402 23.0299 13.3254 24.3555 12.1777C25.7134 13.3281 26.9875 14.5726 28.1778 15.9111C26.9888 17.1592 25.8035 18.4035 24.6222 19.6444Z"
            fill="#FDFDFD" />
        <path fill-rule="evenodd" clip-rule="evenodd"
            d="M0.266663 12.8887C1.32959 13.8331 2.33701 14.8405 3.28888 15.9109C2.27424 16.8667 1.26682 17.8149 0.266663 18.7553C0.266663 16.7998 0.266663 14.8442 0.266663 12.8887Z"
            fill="#DDDDDE" />
        <path fill-rule="evenodd" clip-rule="evenodd"
            d="M31.5555 12.8887C31.5555 14.9035 31.5555 16.9183 31.5555 18.9331C30.4162 18.0615 29.3495 17.0837 28.3555 15.9998C29.4073 14.918 30.4739 13.881 31.5555 12.8887Z"
            fill="#DFDFE0" />
        <path fill-rule="evenodd" clip-rule="evenodd"
            d="M24.4445 19.6445C24.5037 19.6445 24.563 19.6445 24.6222 19.6445C26.879 22.0196 29.1901 24.3308 31.5556 26.5779C31.5556 28.1779 31.5556 29.7779 31.5556 31.3779C29.8964 31.3779 28.237 31.3779 26.5778 31.3779C24.3798 29.0019 22.0686 26.75 19.6445 24.6223C19.6445 24.5631 19.6445 24.5037 19.6445 24.4445C21.3037 22.9037 22.9037 21.3037 24.4445 19.6445Z"
            fill="#DDDDDE" />
        <path fill-rule="evenodd" clip-rule="evenodd"
            d="M10.0445 26.2223C10.0678 26.0909 10.0381 25.9723 9.95557 25.8667C8.41401 24.4731 6.9029 23.0509 5.42224 21.6C5.95182 20.9519 6.54443 20.3593 7.20002 19.8223C8.73822 21.2715 10.2493 22.7531 11.7334 24.2667C11.8519 24.3853 11.8519 24.5037 11.7334 24.6223C11.0987 25.0984 10.5357 25.6317 10.0445 26.2223Z"
            fill="#D5D7DA" />
        <path fill-rule="evenodd" clip-rule="evenodd"
            d="M19.6444 24.4443C19.6444 24.5035 19.6444 24.5628 19.6444 24.622C18.4036 25.8034 17.1592 26.9886 15.9111 28.1776C14.6074 26.9332 13.3037 25.6887 12 24.4443C13.1852 23.1406 14.4296 21.8962 15.7333 20.7109C17.0407 21.9591 18.3444 23.2036 19.6444 24.4443Z"
            fill="#FDFDFD" />
        <path fill-rule="evenodd" clip-rule="evenodd"
            d="M5.42224 21.5996C6.90289 23.0505 8.414 24.4727 9.95557 25.8663C10.0381 25.9719 10.0677 26.0905 10.0445 26.2218C8.3852 27.7626 6.7852 29.3626 5.24446 31.0218C4.99171 30.9847 4.75468 30.8958 4.53335 30.7552C3.06497 29.3765 1.702 27.9246 0.444458 26.3996C2.10371 24.7996 3.76298 23.1996 5.42224 21.5996Z"
            fill="#3D7190" />
        <path fill-rule="evenodd" clip-rule="evenodd"
            d="M0.266663 26.4004C0.325921 26.4004 0.385182 26.4004 0.44444 26.4004C1.70199 27.9254 3.06496 29.3773 4.53333 30.7559C4.75466 30.8966 4.99169 30.9855 5.24444 31.0226C5.18519 31.1412 5.12592 31.2596 5.06666 31.3782C3.46666 31.3782 1.86666 31.3782 0.266663 31.3782C0.266663 29.719 0.266663 28.0596 0.266663 26.4004Z"
            fill="#DDDDDE" />
        <path fill-rule="evenodd" clip-rule="evenodd"
            d="M18.9334 31.3777C16.9186 31.3777 14.9037 31.3777 12.8889 31.3777C13.1347 30.8632 13.4902 30.4188 13.9556 30.0444C14.6337 29.5146 15.2855 28.9517 15.9111 28.3555C16.9815 29.3073 17.989 30.3148 18.9334 31.3777Z"
            fill="#DDDDDE" />
    </g>
    <defs>
        <clipPath id="clip0_3345_2555">
            <rect width="32" height="32" fill="white" />
        </clipPath>
    </defs>
</svg>