<svg width="32" height="32" viewBox="0 0 32 33" fill="none" xmlns="http://www.w3.org/2000/svg">
    <path d="M32 0.5H0V32.5H32V0.5Z" fill="#023563" />
    <path
        d="M19.0919 18.1382L9.51352 22.5748V9.68371L14.1225 7.53521C15.0193 7.11912 16.0074 6.93483 16.995 6.99943C17.9827 7.06402 18.9379 7.3754 19.7721 7.90474C20.6063 8.43403 21.2925 9.16409 21.767 10.0272C22.2415 10.8903 22.489 11.8586 22.4865 12.842C22.4865 13.9543 22.1671 15.0435 21.5658 15.9816C20.9645 16.9197 20.1063 17.6679 19.0919 18.1382Z"
        fill="white" />
    <path d="M16 12.9064L9.51352 9.68359V22.5747L16 19.5704V12.9064Z" fill="#0987F8" />
    <path d="M9.51352 22.5742L16 25.7969V19.5698L9.51352 22.5742Z" fill="#94D3FF" />
</svg>