<svg width="32" height="32" viewBox="0 0 32 32" fill="none" xmlns="http://www.w3.org/2000/svg">
    <path fill-rule="evenodd" clip-rule="evenodd"
        d="M5.36647 0C12.4588 4.02996 19.5026 8.13252 26.4978 12.3077C25.4658 12.9935 24.4043 13.6451 23.3136 14.2624C24.4233 14.9622 25.5328 15.6622 26.6425 16.362C21.9388 19.125 17.259 21.9243 12.6032 24.7602C12.4828 26.3508 12.4104 27.9435 12.3861 29.5385C11.0835 30.359 9.78088 31.1794 8.47827 32C8.454 30.5015 8.38163 29.0052 8.26117 27.5113C7.30829 28.0724 6.36751 28.6516 5.43884 29.2489C5.36647 19.4993 5.34234 9.74975 5.36647 0Z"
        fill="#5BE3A5" />
    <path fill-rule="evenodd" clip-rule="evenodd"
        d="M6.66889 2.17188C12.5262 5.51218 18.3639 8.89077 24.1818 12.3076C23.4822 12.7784 22.7585 13.2128 22.0108 13.6108C17.4839 10.8884 12.9006 8.28202 8.26097 5.79178C8.2851 12.5491 8.26097 19.3064 8.1886 26.0633C7.73842 26.3726 7.28009 26.6622 6.81362 26.9321C6.66903 18.7031 6.62079 10.4498 6.66889 2.17188Z"
        fill="#FDFEFE" />
    <path fill-rule="evenodd" clip-rule="evenodd"
        d="M6.66922 2.17188C6.6211 10.4498 6.66936 18.7031 6.81401 26.9321C6.80532 27.0107 6.75706 27.0589 6.66922 27.0769C6.62095 22.9019 6.57268 18.7269 6.52442 14.552C6.52384 10.3185 6.5721 6.19176 6.66922 2.17188Z"
        fill="#E4F9EF" />
    <path fill-rule="evenodd" clip-rule="evenodd"
        d="M9.56398 7.81934C13.3513 9.88216 17.0662 12.0541 20.7086 14.3352C17.9467 15.9216 15.2208 17.5625 12.531 19.2583C12.4345 18.5343 12.4345 17.8103 12.531 17.0863C14.0144 16.0907 15.5341 15.1495 17.0902 14.2628C15.1965 13.1103 13.2908 11.9761 11.3732 10.8601C11.3249 15.3005 11.2767 19.7409 11.2284 24.1813C10.7094 24.5012 10.2028 24.8391 9.70871 25.1949C9.56399 19.4039 9.51575 13.612 9.56398 7.81934Z"
        fill="#FBFEFD" />
    <path fill-rule="evenodd" clip-rule="evenodd"
        d="M12.4587 12.8867C13.2506 13.3071 14.0224 13.7656 14.7745 14.2623C14.0388 14.739 13.2909 15.1975 12.5311 15.6379C12.4587 14.722 12.4347 13.805 12.4587 12.8867Z"
        fill="#FAFEFC" />
    <path fill-rule="evenodd" clip-rule="evenodd"
        d="M21.7213 15.0586C22.6588 15.3344 23.5272 15.7688 24.3266 16.3618C20.3346 18.6358 16.4026 21.0007 12.5307 23.4568C12.4104 22.4878 12.4346 21.5226 12.6031 20.5609C15.6483 18.7177 18.6877 16.8838 21.7213 15.0586Z"
        fill="#FCFEFD" />
    <path fill-rule="evenodd" clip-rule="evenodd"
        d="M11.0112 25.7737C11.0199 25.6951 11.0682 25.6469 11.156 25.6289C11.3471 26.7134 11.3471 27.7752 11.156 28.8144C11.203 27.7738 11.1548 26.7602 11.0112 25.7737Z"
        fill="#D1F6E5" />
    <path fill-rule="evenodd" clip-rule="evenodd"
        d="M11.0111 25.7734C11.1546 26.7599 11.2029 27.7735 11.1559 28.8142C10.6789 29.1502 10.1964 29.488 9.70854 29.8277C9.56502 28.7927 9.51676 27.7309 9.5638 26.6422C10.0462 26.3526 10.5287 26.063 11.0111 25.7734Z"
        fill="#FDFEFD" />
    <path fill-rule="evenodd" clip-rule="evenodd"
        d="M9.56375 26.6426C9.51669 27.7313 9.56496 28.7931 9.70854 29.8281C9.69986 29.9067 9.6516 29.9549 9.56375 29.9729C9.37263 28.8402 9.37263 27.73 9.56375 26.6426Z"
        fill="#92EBC1" />
</svg>