<svg width="32" height="32" viewBox="0 0 33 33" fill="none" xmlns="http://www.w3.org/2000/svg">
<path opacity="0.976" fill-rule="evenodd" clip-rule="evenodd" d="M0.5 20.1536C0.5 19.6855 0.5 19.2178 0.5 18.7497C3.18578 18.1354 5.85246 17.4335 8.5 16.644C5.8868 15.7103 3.22012 14.9148 0.5 14.2575C0.5 13.7895 0.5 13.3216 0.5 12.8537C1.31791 9.28494 3.22267 6.38371 6.21429 4.14994C8.30543 6.0644 10.353 8.02975 12.3571 10.046C11.7871 7.24282 11.2157 4.43517 10.6429 1.62305C14.4524 0.125649 18.2619 0.125649 22.0714 1.62305C21.6405 4.34594 21.1643 7.06002 20.6429 9.76525C22.5 7.94027 24.3571 6.1153 26.2143 4.29032C26.5 4.10314 26.7857 4.10314 27.0714 4.29032C30.1171 6.95352 31.9269 10.2759 32.5 14.2575C29.6886 14.9244 26.9265 15.7199 24.2143 16.644C26.9712 17.3914 29.7331 18.0933 32.5 18.7497C32.0183 23.0337 30.066 26.4963 26.6429 29.1381C24.734 27.2154 22.7816 25.3435 20.7857 23.5227C20.6905 23.6631 20.5952 23.8035 20.5 23.9439C21.1856 26.4977 21.757 29.0715 22.2143 31.6649C18.3895 32.8234 14.58 32.7765 10.7857 31.5246C10.6366 31.367 10.5414 31.1798 10.5 30.963C11.2383 28.3898 11.8574 25.816 12.3571 23.242C10.3485 25.3098 8.25323 27.2752 6.07143 29.1381C3.17959 26.7271 1.32244 23.7322 0.5 20.1536Z" fill="#2D94B4"/>
</svg>

