<svg width="32" height="32" viewBox="0 0 32 32" fill="none" xmlns="http://www.w3.org/2000/svg">
    <g clip-path="url(#clip0_2741_4188)">
        <path fill-rule="evenodd" clip-rule="evenodd"
            d="M14.5777 0.0715731C21.4242 -0.0975686 26.5679 2.74687 30.0088 8.60491C32.8039 14.6806 32.235 20.4169 28.3022 25.8138C23.854 30.8361 18.331 32.6139 11.7333 31.1471C5.28067 29.056 1.46436 24.6708 0.284384 17.9916C-0.314229 11.0585 2.31688 5.77258 8.17772 2.1338C10.2068 1.05425 12.3401 0.366846 14.5777 0.0715731Z"
            fill="#5ABFC8" />
        <path fill-rule="evenodd" clip-rule="evenodd"
            d="M16.8535 4.76432C19.0742 4.56794 21.1127 5.06572 22.9691 6.25766C24.8928 8.24737 25.3431 10.5466 24.3202 13.1554C23.15 15.5092 21.2774 17.0025 18.7024 17.6354C17.8982 17.7774 17.0922 17.896 16.2847 17.991C15.9206 20.0251 15.565 22.0637 15.218 24.1065C14.6464 26.1828 13.2953 27.0124 11.1647 26.5954C9.49812 26.0194 8.33665 24.9054 7.68021 23.2532C6.49117 18.7806 6.91784 14.4666 8.96021 10.311C10.7192 7.19805 13.3503 5.34916 16.8535 4.76432Z"
            fill="#FDFEFE" />
        <path fill-rule="evenodd" clip-rule="evenodd"
            d="M16.1422 7.32439C20.7877 7.04319 22.3284 9.08171 20.7644 13.4399C19.77 14.8498 18.4189 15.5135 16.7111 15.4311C17.0653 13.6856 17.326 11.9315 17.4933 10.1688C17.3816 9.91483 17.2158 9.7015 16.9955 9.52884C16.3147 9.4039 15.6511 9.4513 15.0044 9.67106C14.7373 9.8905 14.524 10.1512 14.3644 10.4533C14.057 12.1092 13.7726 13.7685 13.5111 15.4311C12.9776 15.4983 12.4324 15.5219 11.8755 15.5022C11.0494 16.0749 10.9546 16.7623 11.5911 17.5644C12.0337 17.8039 12.5078 17.8986 13.0133 17.8488C12.7495 19.7162 12.3939 21.5651 11.9466 23.3955C11.8364 23.6406 11.6468 23.7828 11.3777 23.8222C10.5005 23.2091 9.97905 22.3557 9.81329 21.2622C9.08362 17.0062 9.93695 13.1187 12.3733 9.59995C13.4345 8.48986 14.6908 7.73135 16.1422 7.32439Z"
            fill="#5BBFC8" />
    </g>
    <defs>
        <clipPath id="clip0_2741_4188">
            <rect width="32" height="32" fill="white" />
        </clipPath>
    </defs>
</svg>