<svg width="32" height="32" viewBox="0 0 33 33" fill="none" xmlns="http://www.w3.org/2000/svg">
    <path fill-rule="evenodd" clip-rule="evenodd"
        d="M17.5 0.570623C17.5838 0.70509 17.712 0.774381 17.8846 0.778506C17.7661 0.90983 17.6763 1.06228 17.6154 1.23585C17.5898 1.18041 17.5641 1.12498 17.5385 1.06954C17.5256 1.20813 17.5129 1.34672 17.5 1.48531C17.5991 1.82224 17.5991 2.14099 17.5 2.44157C17.5513 2.46928 17.6026 2.49701 17.6539 2.52472C17.5757 2.56791 17.5245 2.6372 17.5 2.73261C17.5175 3.93467 17.5432 5.18197 17.5769 6.4745C17.5096 6.53695 17.4326 6.57852 17.3462 6.59923C17.6326 6.71273 17.6326 6.85135 17.3462 7.01499C17.3846 7.05657 17.4231 7.09815 17.4616 7.13972C17.5198 7.60904 17.5582 8.08027 17.5769 8.55333C17.5209 9.01757 17.5209 9.47491 17.5769 9.92535C17.3718 9.98082 17.3718 10.0362 17.5769 10.0917C17.3718 10.1748 17.3718 10.258 17.5769 10.3411C17.3718 10.3966 17.3718 10.452 17.5769 10.5074C17.5229 10.7956 17.4716 11.0867 17.4231 11.3805C17.5251 11.356 17.6276 11.3976 17.7308 11.5053C17.6729 11.6289 17.6088 11.6428 17.5385 11.5468C17.5013 11.6257 17.4886 11.7088 17.5 11.7963C17.5809 11.7839 17.6579 11.7977 17.7308 11.8379C17.5531 11.8792 17.3736 11.893 17.1923 11.8795C16.4082 11.834 15.639 11.9171 14.8846 12.1289C14.908 12.0749 14.9336 12.0194 14.9616 11.9626C14.9009 11.4957 14.8624 11.0245 14.8462 10.549C14.7579 11.431 14.6938 11.431 14.6539 10.549C14.68 10.2116 14.7313 9.87896 14.8077 9.55117C14.6026 8.88594 14.6026 8.22071 14.8077 7.55549C14.6026 6.89026 14.6026 6.22504 14.8077 5.55981C14.7564 5.33804 14.7052 5.11636 14.6539 4.89459C14.8577 4.24125 14.9089 3.57603 14.8077 2.89891C14.8356 2.44552 14.9126 2.00203 15.0385 1.56846C14.9483 1.33085 14.9739 1.12297 15.1154 0.944812C14.8945 0.824124 14.6637 0.810262 14.4231 0.903236C14.757 0.722943 15.116 0.598213 15.5 0.529046C16.1802 0.460561 16.8469 0.474423 17.5 0.570623Z"
        fill="#2479FE" />
    <path fill-rule="evenodd" clip-rule="evenodd"
        d="M17.5001 0.570312C18.6227 0.84461 19.6483 1.34353 20.577 2.06707C20.4682 2.26433 20.4939 2.44449 20.6539 2.60757C20.6026 2.63528 20.5514 2.663 20.5001 2.69072C20.6026 2.88474 20.7052 3.07879 20.8078 3.27279C20.7331 3.70868 20.6947 4.16602 20.6924 4.64482C20.7242 4.60682 20.7627 4.57904 20.8078 4.56166C20.9448 4.94916 20.8679 5.26797 20.577 5.51793C20.6921 5.56008 20.7818 5.51851 20.8462 5.3932C20.8658 5.75932 20.8529 6.10582 20.8078 6.43261C20.996 6.53481 21.0088 6.65954 20.8462 6.8068C20.7409 6.48807 20.6768 6.51585 20.6539 6.88995C20.7218 7.16344 20.773 7.44068 20.8078 7.72149C20.7295 8.09518 20.7295 8.45548 20.8078 8.80248C20.8162 8.95831 20.765 9.08304 20.6539 9.17667C20.7268 9.21683 20.8038 9.23063 20.8847 9.21824C20.8996 9.64848 20.8611 10.0919 20.7693 10.5487C20.5311 10.6143 20.5182 10.7113 20.7308 10.8397C20.5469 10.8972 20.5469 10.9803 20.7308 11.0892C20.6795 11.1169 20.6283 11.1447 20.577 11.1723C20.6496 11.3984 20.6752 11.634 20.6539 11.8791C20.7595 11.8661 20.8621 11.88 20.9616 11.9207C20.7671 12.0053 20.7671 12.1023 20.9616 12.2118C20.7671 12.3212 20.7671 12.4182 20.9616 12.5028C20.8124 12.6032 20.6714 12.617 20.5385 12.5444C20.5129 12.683 20.4872 12.8215 20.4616 12.9601C20.41 13.0227 20.3459 13.0504 20.2693 13.0433C19.7771 12.7496 19.2642 12.5001 18.7308 12.2949C18.2203 12.1129 17.7075 11.9743 17.1924 11.8791C17.3737 11.8927 17.5532 11.8789 17.7308 11.8376C17.6579 11.7974 17.581 11.7836 17.5001 11.796C17.4886 11.7085 17.5014 11.6254 17.5385 11.5465C17.6088 11.6425 17.6729 11.6286 17.7308 11.505C17.6277 11.3973 17.5252 11.3557 17.4232 11.3802C17.4717 11.0864 17.523 10.7953 17.577 10.5071C17.3718 10.4517 17.3718 10.3963 17.577 10.3408C17.3718 10.2577 17.3718 10.1745 17.577 10.0914C17.3718 10.0359 17.3718 9.98051 17.577 9.92504C17.5209 9.4746 17.5209 9.01726 17.577 8.55302C17.5583 8.07996 17.5198 7.60873 17.4616 7.13941C17.4232 7.09784 17.3847 7.05626 17.3462 7.01468C17.6326 6.85104 17.6326 6.71242 17.3462 6.59892C17.4327 6.57821 17.5096 6.53664 17.577 6.47419C17.5432 5.18165 17.5175 3.93436 17.5001 2.7323C17.5245 2.63689 17.5758 2.5676 17.6539 2.52441C17.6026 2.4967 17.5514 2.46897 17.5001 2.44126C17.5992 2.14068 17.5992 1.82193 17.5001 1.485C17.5129 1.34641 17.5257 1.20782 17.5385 1.06923C17.5642 1.12467 17.5898 1.1801 17.6155 1.23554C17.6764 1.06197 17.7662 0.909519 17.8847 0.778195C17.7121 0.774071 17.5838 0.704779 17.5001 0.570312Z"
        fill="#2680FE" />
    <path fill-rule="evenodd" clip-rule="evenodd"
        d="M14.8846 12.1291C14.5143 12.2117 14.1553 12.3364 13.8076 12.5033C13.2289 12.8298 12.6649 13.1762 12.1153 13.5427C12.0199 13.3344 12.0968 13.2097 12.3461 13.1686C12.3205 13.1409 12.2948 13.1131 12.2692 13.0854C12.6742 12.9237 12.6742 12.7574 12.2692 12.5865C12.4436 12.3311 12.4693 12.054 12.3461 11.7549C12.3974 11.6995 12.4486 11.6441 12.4999 11.5886C12.5486 9.37884 12.4974 7.13371 12.3461 4.85323C12.4034 4.06644 12.4546 3.29037 12.4999 2.52494C12.3915 2.41088 12.2633 2.34159 12.1153 2.31706C12.8447 1.77997 13.6139 1.30877 14.423 0.903457C14.6636 0.810483 14.8944 0.824345 15.1153 0.945034C14.9739 1.12319 14.9483 1.33107 15.0384 1.56868C14.9125 2.00225 14.8356 2.44574 14.8076 2.89913C14.9089 3.57625 14.8576 4.24147 14.6538 4.89481C14.7051 5.11658 14.7563 5.33827 14.8076 5.56003C14.6025 6.22526 14.6025 6.89049 14.8076 7.55571C14.6025 8.22094 14.6025 8.88616 14.8076 9.55139C14.7313 9.87918 14.6799 10.2118 14.6538 10.5492C14.6937 11.4312 14.7578 11.4312 14.8461 10.5492C14.8623 11.0247 14.9008 11.4959 14.9615 11.9628C14.9336 12.0196 14.9079 12.0751 14.8846 12.1291Z"
        fill="#2273FE" />
    <path fill-rule="evenodd" clip-rule="evenodd"
        d="M20.577 2.06738C21.3462 2.5663 22.1154 3.06522 22.8847 3.56414C22.8906 3.66808 22.9419 3.73735 23.0385 3.77202C23.0001 3.8136 22.9616 3.85518 22.9231 3.89675C22.9064 4.14006 22.8679 4.37571 22.8077 4.60355C23.218 4.65902 23.218 4.7144 22.8077 4.76986C23.218 4.85301 23.218 4.93617 22.8077 5.01932C23.2094 5.06439 23.2094 5.13374 22.8077 5.2272C22.814 5.58601 22.8396 5.974 22.8847 6.39135C22.8647 6.53163 22.8134 6.65636 22.7308 6.76554C22.936 6.821 22.936 6.87638 22.7308 6.93184C22.7821 6.95953 22.8334 6.98731 22.8847 7.015C22.9635 8.51782 22.9635 10.0285 22.8847 11.5468C23.089 12.427 23.1916 13.314 23.1924 14.2077C23.2234 14.5226 23.1594 14.5779 23.0001 14.3741C22.8597 14.4779 22.8726 14.5749 23.0385 14.6651C22.8842 14.6526 22.7304 14.611 22.577 14.5404C21.7817 14.083 21.0124 13.5841 20.2693 13.0436C20.3459 13.0508 20.41 13.023 20.4616 12.9604C20.4872 12.8218 20.5129 12.6833 20.5385 12.5447C20.6714 12.6174 20.8124 12.6035 20.9616 12.5031C20.7671 12.4185 20.7671 12.3215 20.9616 12.2121C20.7671 12.1026 20.7671 12.0056 20.9616 11.921C20.8621 11.8803 20.7595 11.8664 20.6539 11.8795C20.6752 11.6343 20.6496 11.3987 20.577 11.1727C20.6283 11.145 20.6795 11.1172 20.7308 11.0895C20.5469 10.9807 20.5469 10.8975 20.7308 10.84C20.5182 10.7117 20.5311 10.6146 20.7693 10.549C20.8611 10.0922 20.8996 9.64879 20.8847 9.21856C20.8037 9.23094 20.7268 9.21714 20.6539 9.17698C20.765 9.08335 20.8162 8.95862 20.8077 8.80279C20.7295 8.45579 20.7295 8.09549 20.8077 7.7218C20.773 7.44099 20.7217 7.16376 20.6539 6.89027C20.6767 6.51616 20.7409 6.48839 20.8462 6.80711C21.0087 6.65985 20.996 6.53512 20.8077 6.43292C20.8529 6.10613 20.8657 5.75963 20.8462 5.39351C20.7818 5.51882 20.6921 5.5604 20.577 5.51824C20.8679 5.26828 20.9448 4.94947 20.8077 4.56198C20.7627 4.57936 20.7242 4.60713 20.6924 4.64513C20.6947 4.16634 20.7331 3.70899 20.8077 3.2731C20.7052 3.07911 20.6026 2.88505 20.5001 2.69103C20.5514 2.66332 20.6026 2.63559 20.6539 2.60788C20.4939 2.4448 20.4682 2.26464 20.577 2.06738Z"
        fill="#2786FE" />
    <path fill-rule="evenodd" clip-rule="evenodd"
        d="M12.1153 2.31641C12.2632 2.34094 12.3914 2.41023 12.4999 2.52429C12.4546 3.28971 12.4033 4.06578 12.346 4.85258C12.4973 7.13305 12.5486 9.37819 12.4999 11.588C12.4486 11.6434 12.3973 11.6988 12.346 11.7543C12.4692 12.0533 12.4436 12.3305 12.2691 12.5858C12.6741 12.7568 12.6741 12.9231 12.2691 13.0847C12.2947 13.1124 12.3204 13.1402 12.346 13.1679C12.0967 13.2091 12.0198 13.3338 12.1153 13.5421C11.5255 13.9302 10.9358 14.3182 10.346 14.7062C10.3017 14.5273 10.2119 14.4996 10.0768 14.6231C10.0242 14.5163 10.037 14.4193 10.1153 14.332C9.93235 14.251 9.95804 14.1956 10.1922 14.1657C10.0537 14.1394 10.028 14.0839 10.1153 13.9994C9.91273 13.6835 9.91273 13.3647 10.1153 13.0432C10.081 12.8878 10.0553 12.7354 10.0383 12.5858C10.1553 12.3746 10.2322 12.139 10.2691 11.879C10.4487 9.65991 10.423 7.44255 10.1922 5.22677C10.2691 5.22677 10.346 5.22677 10.423 5.22677C10.423 4.78331 10.423 4.33977 10.423 3.89632C10.085 3.89989 10.0594 3.85832 10.346 3.77159C10.2336 3.63621 10.1054 3.62233 9.96143 3.73001C10.651 3.2182 11.369 2.74703 12.1153 2.31641Z"
        fill="#1E6DFE" />
    <path fill-rule="evenodd" clip-rule="evenodd"
        d="M10.3461 14.7069C9.84317 15.0199 9.35594 15.3525 8.88456 15.7048C8.51202 15.5453 8.17864 15.3236 7.88456 15.0396C8.0334 15.0936 8.18725 15.1213 8.3461 15.1227C8.37171 14.8732 8.26917 14.7624 8.03841 14.7901C8.04648 14.0366 8.05925 13.2882 8.07687 12.545C8.09087 12.7716 8.12933 12.9934 8.19225 13.2102C8.29094 12.9714 8.29094 12.7358 8.19225 12.5034C8.37617 12.4459 8.37617 12.3628 8.19225 12.2539C8.3974 12.1708 8.3974 12.0876 8.19225 12.0045C8.24356 11.9768 8.29479 11.949 8.3461 11.9213C8.24764 11.1383 8.17071 10.3484 8.11533 9.55145C8.11817 9.18349 8.16948 8.83708 8.26917 8.51203C8.07471 8.42746 8.07471 8.33042 8.26917 8.221C8.21787 8.16553 8.16664 8.11015 8.11533 8.05469C8.18664 7.93778 8.26356 7.81305 8.3461 7.6805C8.14094 7.54188 8.14094 7.40335 8.3461 7.26473C7.95871 7.08462 7.95871 6.9322 8.3461 6.80739C8.2874 6.70603 8.21048 6.62287 8.11533 6.55793C8.20017 6.51652 8.2771 6.48883 8.3461 6.47478C8.0491 6.38348 8.0491 6.31421 8.3461 6.2669C8.03841 6.21143 8.03841 6.15605 8.3461 6.10059C8.25964 6.07988 8.18271 6.03831 8.11533 5.97586C8.17287 5.82352 8.24979 5.68491 8.3461 5.56009C8.24356 5.39379 8.14094 5.22748 8.03841 5.06117C7.94333 5.12321 7.84071 5.1509 7.73071 5.14433C8.45394 4.64059 9.19756 4.16944 9.96148 3.73072C10.1055 3.62304 10.2336 3.63693 10.3461 3.7723C10.0595 3.85903 10.0851 3.90061 10.423 3.89703C10.423 4.34049 10.423 4.78403 10.423 5.22748C10.3461 5.22748 10.2692 5.22748 10.1922 5.22748C10.4231 7.44326 10.4487 9.66063 10.2692 11.8797C10.2322 12.1398 10.1553 12.3753 10.0384 12.5865C10.0554 12.7361 10.081 12.8885 10.1153 13.0439C9.91279 13.3654 9.91279 13.6842 10.1153 14.0001C10.0281 14.0846 10.0537 14.1401 10.1922 14.1664C9.9581 14.1963 9.9324 14.2518 10.1153 14.3328C10.0371 14.42 10.0242 14.517 10.0769 14.6238C10.2119 14.5003 10.3017 14.528 10.3461 14.7069Z"
        fill="#1B68FE" />
    <path fill-rule="evenodd" clip-rule="evenodd"
        d="M22.8846 3.56445C23.9102 4.22968 24.9359 4.8949 25.9615 5.56013C25.8655 7.02529 25.8142 8.49427 25.8077 9.96725C26.1114 9.9833 26.1114 10.0249 25.8077 10.092C25.9102 10.1751 25.9102 10.2583 25.8077 10.3414C26.1047 10.3888 26.1047 10.458 25.8077 10.5493C25.8481 10.6069 25.8994 10.6484 25.9615 10.674C25.859 10.8127 25.859 10.9512 25.9615 11.0898C25.9102 11.1175 25.859 11.1453 25.8077 11.173C25.9959 11.4947 25.9959 11.8273 25.8077 12.1708C25.9053 12.6136 25.9053 13.0848 25.8077 13.5844C25.7981 13.7998 25.8494 13.9938 25.9615 14.1665C25.9359 14.1942 25.9102 14.2219 25.8846 14.2496C25.9812 14.2843 26.0325 14.3536 26.0384 14.4575C25.4487 14.8456 24.859 15.2336 24.2692 15.6217C23.6791 15.3029 23.1151 14.9426 22.5769 14.5407C22.7303 14.6114 22.8841 14.6529 23.0384 14.6654C22.8725 14.5752 22.8597 14.4782 23 14.3744C23.1593 14.5783 23.2234 14.5229 23.1923 14.2081C23.1915 13.3143 23.0889 12.4273 22.8846 11.5472C22.9634 10.0288 22.9634 8.51814 22.8846 7.01531C22.8333 6.98762 22.7821 6.95985 22.7308 6.93216C22.9359 6.87669 22.9359 6.82131 22.7308 6.76585C22.8133 6.65667 22.8646 6.53194 22.8846 6.39166C22.8395 5.97432 22.8139 5.58632 22.8077 5.22752C23.2093 5.13405 23.2093 5.0647 22.8077 5.01963C23.2179 4.93648 23.2179 4.85333 22.8077 4.77017C23.2179 4.71471 23.2179 4.65933 22.8077 4.60387C22.8678 4.37603 22.9063 4.14037 22.9231 3.89707C22.9615 3.85549 23 3.81391 23.0384 3.77234C22.9418 3.73766 22.8905 3.66839 22.8846 3.56445Z"
        fill="#288CFE" />
    <path fill-rule="evenodd" clip-rule="evenodd"
        d="M7.8845 15.0389C7.20458 14.6856 6.56358 14.2698 5.96143 13.7916C6.09666 13.823 6.22489 13.8784 6.34604 13.9579C6.44858 11.3525 6.44858 8.74698 6.34604 6.14154C6.2755 6.19368 6.19858 6.22145 6.11527 6.22469C6.63166 5.83429 7.17012 5.47398 7.73066 5.1437C7.84066 5.15027 7.94327 5.12258 8.03835 5.06055C8.14089 5.22685 8.2435 5.39316 8.34604 5.55947C8.24973 5.68428 8.17281 5.8229 8.11527 5.97523C8.18266 6.03768 8.25958 6.07926 8.34604 6.09996C8.03835 6.15542 8.03835 6.2108 8.34604 6.26627C8.04904 6.31358 8.04904 6.38285 8.34604 6.47415C8.27704 6.4882 8.20012 6.51589 8.11527 6.5573C8.21042 6.62225 8.28735 6.7054 8.34604 6.80676C7.95866 6.93158 7.95866 7.084 8.34604 7.26411C8.14089 7.40272 8.14089 7.54126 8.34604 7.67987C8.2635 7.81242 8.18658 7.93715 8.11527 8.05406C8.16658 8.10952 8.21781 8.1649 8.26912 8.22037C8.07466 8.3298 8.07466 8.42684 8.26912 8.5114C8.16942 8.83645 8.11812 9.18287 8.11527 9.55082C8.17066 10.3478 8.24758 11.1377 8.34604 11.9207C8.29473 11.9484 8.2435 11.9761 8.19219 12.0038C8.39735 12.087 8.39735 12.1701 8.19219 12.2533C8.37612 12.3621 8.37612 12.4453 8.19219 12.5028C8.29089 12.7352 8.29089 12.9707 8.19219 13.2096C8.12927 12.9928 8.09081 12.771 8.07681 12.5443C8.05919 13.2876 8.04642 14.0359 8.03835 14.7895C8.26912 14.7618 8.37166 14.8726 8.34604 15.1221C8.18719 15.1207 8.03335 15.093 7.8845 15.0389Z"
        fill="#1664FE" />
    <path fill-rule="evenodd" clip-rule="evenodd"
        d="M25.9616 5.55957C26.6925 6.05175 27.4361 6.52298 28.1924 6.97317C28.2627 7.17557 28.2627 7.35568 28.1924 7.51367C28.3548 7.58901 28.4189 7.71374 28.3847 7.88786C28.3223 7.76646 28.2581 7.73877 28.1924 7.80471C28.2829 8.0012 28.3341 8.20908 28.3462 8.42835C28.344 9.5989 28.344 10.7492 28.3462 11.8792C28.1294 12.0933 28.155 12.2458 28.4231 12.3366C28.3718 12.392 28.3206 12.4474 28.2693 12.5029C28.349 12.6505 28.349 12.803 28.2693 12.9602C27.5414 13.4787 26.7978 13.9777 26.0385 14.457C26.0326 14.353 25.9813 14.2838 25.8847 14.2491C25.9103 14.2214 25.936 14.1936 25.9616 14.1659C25.8495 13.9932 25.7982 13.7992 25.8078 13.5839C25.9054 13.0843 25.9054 12.613 25.8078 12.1702C25.996 11.8267 25.996 11.4941 25.8078 11.1724C25.8591 11.1447 25.9103 11.1169 25.9616 11.0893C25.8591 10.9506 25.8591 10.8121 25.9616 10.6735C25.8995 10.6479 25.8481 10.6063 25.8078 10.5488C26.1048 10.4575 26.1048 10.3882 25.8078 10.3409C25.9103 10.2577 25.9103 10.1746 25.8078 10.0914C26.1115 10.0243 26.1115 9.98274 25.8078 9.96669C25.8143 8.49371 25.8656 7.02473 25.9616 5.55957Z"
        fill="#2892FE" />
    <path fill-rule="evenodd" clip-rule="evenodd"
        d="M5.96148 13.7917C5.52571 13.5841 5.11548 13.3346 4.73071 13.0433C4.96325 13.0762 5.04017 12.993 4.96148 12.7939C4.99817 12.7125 5.0494 12.6433 5.11533 12.586C5.0631 11.065 5.01179 9.54057 4.96148 8.01255C5.05633 7.69382 5.05633 7.37501 4.96148 7.05629C4.89094 7.10842 4.81402 7.1362 4.73071 7.13944C5.15125 6.76916 5.61279 6.46432 6.11533 6.22475C6.19864 6.22151 6.27556 6.19374 6.3461 6.1416C6.44863 8.74704 6.44863 11.3526 6.3461 13.958C6.22494 13.8785 6.09671 13.823 5.96148 13.7917Z"
        fill="#1160FE" />
    <path fill-rule="evenodd" clip-rule="evenodd"
        d="M4.73083 13.0437C3.8658 12.5553 3.05811 11.9732 2.30776 11.2975C1.74904 10.2417 1.86443 9.28539 2.65391 8.42867C3.32534 7.95503 4.01765 7.52538 4.73083 7.13979C4.81414 7.13655 4.89107 7.10878 4.9616 7.05664C5.05645 7.37537 5.05645 7.69418 4.9616 8.0129C5.01191 9.54092 5.06322 11.0654 5.11545 12.5863C5.04953 12.6436 4.9983 12.7129 4.9616 12.7942C5.0403 12.9934 4.96337 13.0765 4.73083 13.0437Z"
        fill="#0A5BFD" />
    <path fill-rule="evenodd" clip-rule="evenodd"
        d="M28.1924 6.97363C28.9602 7.49808 29.7295 8.02469 30.5001 8.55354C31.1395 9.41526 31.2035 10.3299 30.6924 11.2976C30.5514 11.45 30.4103 11.6025 30.2693 11.7549C29.6108 12.1799 28.9442 12.5818 28.2693 12.9607C28.349 12.8034 28.349 12.651 28.2693 12.5033C28.3206 12.4479 28.3718 12.3925 28.4232 12.337C28.155 12.2462 28.1294 12.0938 28.3462 11.8797C28.344 10.7497 28.344 9.59936 28.3462 8.42881C28.3342 8.20954 28.2829 8.00166 28.1924 7.80516C28.2582 7.73922 28.3223 7.76691 28.3847 7.88832C28.4189 7.71419 28.3548 7.58947 28.1924 7.51413C28.2627 7.35614 28.2627 7.17603 28.1924 6.97363Z"
        fill="#2898FD" />
    <path fill-rule="evenodd" clip-rule="evenodd"
        d="M3.88462 14.2909C3.78506 14.3566 3.69532 14.4397 3.61538 14.5403C3.55158 14.9812 3.51312 15.4247 3.5 15.8708C3.59852 19.1441 3.59852 22.3039 3.5 25.3502C2.87636 24.9991 2.26098 24.6249 1.65385 24.2277C1.09655 23.7022 0.724748 23.0509 0.538463 22.2736C0.487179 18.3377 0.487179 14.4017 0.538463 10.4658C0.65814 11.5984 1.15814 12.4716 2.03846 13.0851C2.67152 13.4683 3.2869 13.8702 3.88462 14.2909Z"
        fill="#2799FE" />
    <path fill-rule="evenodd" clip-rule="evenodd"
        d="M30.6538 24.6017C30.6932 23.6281 30.7445 22.6164 30.8077 21.5666C30.6848 21.3432 30.7104 21.1076 30.8846 20.8598C30.8462 20.7767 30.8077 20.6935 30.7692 20.6104C30.7052 18.337 30.7179 16.0641 30.8077 13.7918C30.8528 13.8092 30.8912 13.837 30.9231 13.875C30.9487 14.0967 30.9744 14.3184 31 14.5402C31.021 14.2084 31.0338 13.8896 31.0385 13.5839C31.0128 13.5423 30.9872 13.5008 30.9615 13.4592C31.0012 13.5638 30.95 13.6469 30.8077 13.7086C30.7081 13.6589 30.6055 13.6173 30.5 13.5839C30.5769 13.5562 30.6538 13.5285 30.7308 13.5008C30.7052 13.4731 30.6795 13.4453 30.6538 13.4176C30.7556 13.3498 30.8068 13.2527 30.8077 13.1266C31.7382 12.5575 32.2895 11.6983 32.4615 10.5488C32.5128 14.4016 32.5128 18.2544 32.4615 22.1071C32.2802 23.3064 31.6776 24.1379 30.6538 24.6017Z"
        fill="#0559FE" />
    <path fill-rule="evenodd" clip-rule="evenodd"
        d="M17.1922 11.8792C17.7074 11.9744 18.2201 12.113 18.7307 12.295C18.7366 12.399 18.7879 12.4682 18.8845 12.5029C18.7199 12.6808 18.5533 12.861 18.3845 13.0434C18.3606 13.1467 18.3991 13.2298 18.4999 13.2929C18.3854 13.4656 18.2316 13.5487 18.0384 13.5423C18.0405 13.8462 17.9123 14.068 17.6537 14.2075C17.6698 14.2563 17.6955 14.2978 17.7307 14.3323C17.3387 14.478 17.1208 14.7691 17.0768 15.2054C16.8237 15.3321 16.8364 15.4429 17.1153 15.538C16.9634 15.6276 16.8224 15.5999 16.6922 15.4548C16.5554 15.581 16.5938 15.6503 16.8076 15.6627C16.5965 15.7728 16.494 15.953 16.4999 16.2032C16.3974 16.2032 16.2947 16.2032 16.1922 16.2032C16.1922 16.425 16.1922 16.6467 16.1922 16.8684C16.0384 16.8684 15.8845 16.8684 15.7307 16.8684C15.7176 16.9784 15.7432 17.0754 15.8076 17.1595C15.6922 17.2287 15.6024 17.3258 15.5384 17.4505C15.4465 17.274 15.3953 17.0799 15.3845 16.8684C15.2601 16.9546 15.2473 17.0516 15.3461 17.1595C15.1034 17.241 15.0777 17.352 15.2691 17.4921C15.1666 17.5198 15.064 17.5476 14.9614 17.5752C15.0411 17.7097 15.1309 17.7236 15.2307 17.6168C15.1846 17.8262 15.2487 18.0063 15.423 18.1573C15.2178 18.2128 15.2178 18.2682 15.423 18.3236C15.1394 18.4905 14.8317 18.5737 14.4999 18.5731C14.3513 18.7722 14.2231 18.9247 14.1153 19.0304C12.3717 17.9217 10.6281 16.813 8.88452 15.7043C9.35591 15.3521 9.84314 15.0194 10.3461 14.7065C10.9358 14.3184 11.5255 13.9304 12.1153 13.5423C12.6648 13.1758 13.2289 12.8294 13.8076 12.5029C14.1553 12.336 14.5143 12.2113 14.8845 12.1287C15.6389 11.9169 16.4081 11.8338 17.1922 11.8792Z"
        fill="#F1F0EF" />
    <path fill-rule="evenodd" clip-rule="evenodd"
        d="M30.8076 13.127C30.8068 13.2531 30.7555 13.3501 30.6538 13.418C30.6794 13.4457 30.7051 13.4735 30.7307 13.5011C30.6538 13.5288 30.5768 13.5566 30.4999 13.5843C30.6054 13.6177 30.708 13.6593 30.8076 13.709C30.9499 13.6473 31.0011 13.5642 30.9614 13.4596C30.9871 13.5011 31.0128 13.5427 31.0384 13.5843C31.0337 13.89 31.0209 14.2088 30.9999 14.5406C30.9743 14.3188 30.9486 14.0971 30.923 13.8753C30.8911 13.8373 30.8527 13.8096 30.8076 13.7922C30.7178 16.0645 30.7051 18.3374 30.7691 20.6107C30.8076 20.6939 30.8461 20.777 30.8845 20.8602C30.7103 21.108 30.6847 21.3436 30.8076 21.567C30.7444 22.6168 30.6931 23.6284 30.6538 24.6021C30.1671 24.9763 29.6542 25.3089 29.1153 25.5999C29.0584 25.6108 29.0071 25.5969 28.9614 25.5584C29.0075 24.6773 29.0588 23.7765 29.1153 22.8559C28.9711 22.0588 28.9711 21.2688 29.1153 20.486C29.0128 20.4305 29.0128 20.3752 29.1153 20.3197C28.9101 20.2642 28.9101 20.2089 29.1153 20.1534C28.9101 20.0979 28.9101 20.0426 29.1153 19.9871C29.0384 18.8012 29.0128 17.5401 29.0384 16.2036C29.0498 16.0523 29.1011 15.9276 29.1922 15.8294C29.0551 15.7407 29.0166 15.616 29.0768 15.4552C29.1271 15.5547 29.1656 15.5547 29.1922 15.4552C29.1218 15.3864 29.0706 15.3032 29.0384 15.2058C29.069 14.8505 29.069 14.5456 29.0384 14.2911C29.6125 13.8834 30.2023 13.4953 30.8076 13.127Z"
        fill="#0B5CFE" />
    <path fill-rule="evenodd" clip-rule="evenodd"
        d="M18.7309 12.2949C19.2642 12.5001 19.7771 12.7496 20.2693 13.0433C21.0125 13.5838 21.7817 14.0827 22.577 14.5401C23.1152 14.942 23.6792 15.3023 24.2693 15.621C22.5587 16.7126 20.8408 17.8074 19.1155 18.9056C17.4593 19.8017 15.7926 19.8432 14.1155 19.0303C14.2232 18.9246 14.3515 18.7721 14.5001 18.573C14.8319 18.5736 15.1396 18.4904 15.4232 18.3235C15.218 18.2681 15.218 18.2127 15.4232 18.1572C15.2489 18.0062 15.1848 17.8261 15.2309 17.6167C15.1311 17.7235 15.0413 17.7096 14.9616 17.5751C15.0642 17.5475 15.1668 17.5197 15.2693 17.492C15.0779 17.3519 15.1036 17.241 15.3462 17.1594C15.2475 17.0515 15.2603 16.9545 15.3847 16.8683C15.3955 17.0798 15.4467 17.2739 15.5386 17.4504C15.6026 17.3257 15.6924 17.2286 15.8078 17.1594C15.7434 17.0753 15.7178 16.9783 15.7309 16.8683C15.8847 16.8683 16.0386 16.8683 16.1924 16.8683C16.1924 16.6466 16.1924 16.4249 16.1924 16.2031C16.2949 16.2031 16.3976 16.2031 16.5001 16.2031C16.4942 15.9529 16.5967 15.7727 16.8078 15.6626C16.594 15.6502 16.5556 15.5809 16.6924 15.4547C16.8226 15.5998 16.9636 15.6275 17.1155 15.5379C16.8366 15.4429 16.8239 15.332 17.077 15.2053C17.121 14.769 17.3389 14.4779 17.7309 14.3322C17.6957 14.2977 17.67 14.2562 17.6539 14.2074C17.9125 14.0679 18.0407 13.8461 18.0386 13.5422C18.2318 13.5486 18.3856 13.4655 18.5001 13.2928C18.3992 13.2297 18.3608 13.1466 18.3847 13.0433C18.5535 12.8609 18.7201 12.6808 18.8847 12.5028C18.7881 12.4681 18.7368 12.3989 18.7309 12.2949Z"
        fill="#E8E8E6" />
    <path fill-rule="evenodd" clip-rule="evenodd"
        d="M3.88462 14.291C4.73115 14.776 5.55169 15.3027 6.34615 15.8709C6.23538 15.9427 6.13277 15.9427 6.03846 15.8709C5.94884 16.5344 5.936 17.1996 6 17.8666C6.03838 17.3684 6.05123 16.8695 6.03846 16.3698C6.14408 16.3568 6.24669 16.3707 6.34615 16.4114C6.30769 16.453 6.26923 16.4946 6.23077 16.5362C6.167 16.977 6.12854 17.4206 6.11538 17.8666C6.19261 18.4222 6.19261 18.9766 6.11538 19.5297C6.28523 20.1257 6.28523 20.7217 6.11538 21.3175C6.12331 21.6798 6.17454 22.1095 6.26923 22.6063C6.16923 22.8724 6.118 23.1496 6.11538 23.4379C6.11877 24.3519 6.14438 25.2666 6.19231 26.1819C6.22192 26.4207 6.145 26.6008 5.96154 26.7224C6.08031 26.7465 6.18284 26.8019 6.26923 26.8887C6.21761 26.9707 6.21761 27.0678 6.26923 27.1798C5.32415 26.6001 4.40106 25.9903 3.5 25.3504C3.59852 22.3041 3.59852 19.1443 3.5 15.8709C3.51312 15.4249 3.55158 14.9814 3.61538 14.5405C3.69532 14.4399 3.78506 14.3567 3.88462 14.291Z"
        fill="#2892FE" />
    <path fill-rule="evenodd" clip-rule="evenodd"
        d="M29.0384 14.291C29.069 14.5455 29.069 14.8504 29.0384 15.2057C29.0707 15.3032 29.1219 15.3863 29.1923 15.4552C29.1657 15.5546 29.1272 15.5546 29.0769 15.4552C29.0167 15.6159 29.0551 15.7406 29.1923 15.8293C29.1012 15.9275 29.0499 16.0522 29.0384 16.2035C29.0129 17.5401 29.0385 18.8012 29.1153 19.987C28.9102 20.0425 28.9102 20.0979 29.1153 20.1533C28.9102 20.2088 28.9102 20.2642 29.1153 20.3196C29.0128 20.3751 29.0128 20.4305 29.1153 20.4859C28.9712 21.2687 28.9712 22.0587 29.1153 22.8558C29.0589 23.7765 29.0076 24.6773 28.9615 25.5583C29.0072 25.5969 29.0585 25.6107 29.1153 25.5998C28.5412 26.0075 27.9514 26.3956 27.3461 26.764C27.2692 26.764 27.1923 26.764 27.1153 26.764C27.1659 24.6556 27.1147 22.5767 26.9615 20.5275C26.8697 20.3153 26.7671 20.1074 26.6538 19.9039C26.7623 19.8733 26.8392 19.804 26.8846 19.696C26.8746 19.5361 26.8489 19.3836 26.8077 19.2386C26.9555 19.1172 27.0068 18.9786 26.9615 18.8229C26.7563 18.7674 26.7563 18.712 26.9615 18.6566C26.9359 18.6289 26.9102 18.6011 26.8846 18.5734C26.9266 17.9586 27.0035 17.3488 27.1153 16.744C26.9102 16.6886 26.9102 16.6332 27.1153 16.5777C27.0128 16.55 26.9102 16.5223 26.8077 16.4946C26.8333 16.4669 26.859 16.4391 26.8846 16.4114C26.5982 16.2979 26.5982 16.1593 26.8846 15.9957C26.8168 15.9368 26.7656 15.8674 26.7307 15.7878C27.4739 15.2473 28.2431 14.7484 29.0384 14.291Z"
        fill="#1661FE" />
    <path fill-rule="evenodd" clip-rule="evenodd"
        d="M26.7308 15.7881C26.7657 15.8677 26.8169 15.9371 26.8847 15.996C26.5983 16.1596 26.5983 16.2982 26.8847 16.4117C26.859 16.4394 26.8333 16.4672 26.8077 16.4949C26.9103 16.5226 27.0129 16.5504 27.1154 16.578C26.9103 16.6335 26.9103 16.6889 27.1154 16.7443C27.0036 17.3491 26.9267 17.9589 26.8847 18.5737C26.9103 18.6014 26.936 18.6292 26.9616 18.6569C26.7564 18.7123 26.7564 18.7677 26.9616 18.8232C27.0069 18.9789 26.9556 19.1175 26.8077 19.2389C26.849 19.384 26.8747 19.5364 26.8847 19.6963C26.8393 19.8043 26.7623 19.8736 26.6539 19.9042C26.7672 20.1077 26.8698 20.3156 26.9616 20.5278C26.5668 20.7274 26.1822 20.9491 25.8077 21.193C25.7173 21.2113 25.6404 21.1836 25.577 21.1099C25.6098 20.8782 25.6098 20.6288 25.577 20.3615C25.606 20.2256 25.6573 20.1008 25.7308 19.9873C25.616 19.6921 25.5391 19.3872 25.5 19.0726C25.4426 18.5884 25.4426 18.0618 25.5 17.4927C25.4804 17.3134 25.4291 17.1471 25.3462 16.9938C25.5242 16.8164 25.6523 16.6086 25.7308 16.3702C26.054 16.154 26.3873 15.9599 26.7308 15.7881Z"
        fill="#1865FE" />
    <path fill-rule="evenodd" clip-rule="evenodd"
        d="M6.3461 15.8711C7.44902 16.5224 8.52594 17.2153 9.57686 17.9499C9.21117 17.9922 9.05733 18.2416 9.11533 18.6983C9.12817 18.8646 9.14094 19.0309 9.15379 19.1972C9.1794 18.9201 9.20509 18.6428 9.23071 18.3657C9.35056 18.436 9.42748 18.3806 9.46148 18.1994C9.51386 18.3681 9.53948 18.5344 9.5384 18.6983C9.22979 18.4714 9.19133 18.5268 9.42302 18.8646C9.36656 19.0571 9.26394 19.2095 9.11533 19.322C9.21786 19.3774 9.32048 19.4328 9.42302 19.4883C9.34609 19.5159 9.26917 19.5437 9.19225 19.5714C9.34002 19.6013 9.46825 19.6707 9.57686 19.7793C9.58017 20.2469 9.55448 20.7181 9.49994 21.1929C9.43625 20.8357 9.39779 20.4754 9.38456 20.1119C9.35894 20.0564 9.33325 20.0011 9.30763 19.9456C9.07863 20.2327 9.06579 20.5376 9.26917 20.8603C9.1774 21.8784 9.12609 22.8901 9.11533 23.8954C9.20179 23.9161 9.27871 23.9577 9.34609 24.0201C9.29479 24.1309 9.24356 24.2419 9.19225 24.3527C9.4854 24.4557 9.4854 24.511 9.19225 24.519C9.16509 24.9759 9.13948 25.4332 9.11533 25.8911C9.12548 26.1808 9.17679 26.458 9.26917 26.7226C9.24925 26.8274 9.19794 26.9106 9.11533 26.972C9.15379 27.0136 9.19225 27.0552 9.23071 27.0968C9.2564 27.4044 9.26925 27.6954 9.26917 27.9699C9.07756 28.0219 9.07756 28.0912 9.26917 28.1778C9.22879 28.2353 9.17748 28.2769 9.11533 28.3025C9.19225 28.3856 9.26917 28.4688 9.34609 28.552C9.07956 28.6296 9.05394 28.7543 9.26917 28.9261C9.28217 28.8516 9.30779 28.7684 9.34609 28.6767C9.56779 28.8319 9.67033 29.0537 9.65379 29.3419C8.52556 28.6212 7.3974 27.9006 6.26917 27.1799C6.21756 27.0679 6.21756 26.9709 6.26917 26.8889C6.18279 26.8021 6.08025 26.7467 5.96148 26.7226C6.14494 26.6009 6.22187 26.4208 6.19225 26.1821C6.14433 25.2667 6.11871 24.3521 6.11533 23.438C6.11794 23.1497 6.16917 22.8726 6.26917 22.6065C6.17448 22.1097 6.12325 21.68 6.11533 21.3176C6.28517 20.7218 6.28517 20.1259 6.11533 19.5298C6.19256 18.9768 6.19256 18.4224 6.11533 17.8668C6.12848 17.4207 6.16694 16.9772 6.23071 16.5363C6.26917 16.4947 6.30763 16.4532 6.3461 16.4116C6.24663 16.3708 6.14402 16.357 6.0384 16.37C6.05117 16.8697 6.03833 17.3686 5.99994 17.8668C5.93594 17.1998 5.94879 16.5346 6.0384 15.8711C6.13271 15.9429 6.23533 15.9429 6.3461 15.8711Z"
        fill="#288CFE" />
    <path fill-rule="evenodd" clip-rule="evenodd"
        d="M25.7309 16.3701C25.6524 16.6085 25.5242 16.8164 25.3462 16.9938C25.4292 17.1471 25.4805 17.3134 25.5001 17.4927C25.4426 18.0618 25.4426 18.5884 25.5001 19.0726C25.5392 19.3872 25.6161 19.6921 25.7309 19.9873C25.6573 20.1008 25.6061 20.2255 25.577 20.3615C25.6099 20.6287 25.6099 20.8782 25.577 21.1098C25.6405 21.1835 25.7174 21.2112 25.8078 21.193C25.0237 21.6658 24.2672 22.1924 23.5386 22.7729C23.5001 23.7981 23.4872 24.8236 23.5001 25.8496C23.3694 25.8629 23.2412 25.8491 23.1155 25.808C23.3699 25.6486 23.434 25.4407 23.3078 25.1844C23.2822 25.2398 23.2565 25.2952 23.2309 25.3507C23.1782 25.2439 23.1911 25.1469 23.2693 25.0596C23.218 25.0319 23.1668 25.0042 23.1155 24.9765C23.218 24.8933 23.218 24.8102 23.1155 24.727C23.1411 24.7131 23.1668 24.6993 23.1924 24.6854C23.2723 25.0145 23.3492 25.0145 23.4232 24.6854C23.3676 24.4822 23.2907 24.2881 23.1924 24.1034C23.2437 24.0479 23.2949 23.9925 23.3462 23.9371C23.2392 23.9696 23.1623 23.9003 23.1155 23.7292C23.1448 23.2434 23.1961 22.7445 23.2693 22.2324C23.2049 21.9238 23.2176 21.5773 23.3078 21.193C23.3129 21.5034 23.3769 21.7944 23.5001 22.0661C23.4745 22.0938 23.4488 22.1216 23.4232 22.1493C23.4988 22.1984 23.5501 22.1706 23.577 22.0661C23.5361 21.5289 23.5361 21.03 23.577 20.5694C23.4718 20.2527 23.3436 19.9478 23.1924 19.6547C23.2773 19.3132 23.2773 18.9806 23.1924 18.6568C23.2456 18.5681 23.284 18.4711 23.3078 18.3658C23.3462 18.4074 23.3847 18.4489 23.4232 18.4905C23.3506 18.7166 23.3249 18.9522 23.3462 19.1973C23.4232 19.1973 23.5001 19.1973 23.577 19.1973C23.5989 18.9248 23.5732 18.6616 23.5001 18.4074C23.5826 18.3006 23.6851 18.2729 23.8078 18.3242C23.6693 18.1735 23.5411 18.0211 23.4232 17.8669C24.1896 17.3692 24.9589 16.8703 25.7309 16.3701Z"
        fill="#1C69FE" />
    <path fill-rule="evenodd" clip-rule="evenodd"
        d="M9.57696 17.9492C10.4433 18.4433 11.2895 18.9699 12.1154 19.5291C11.897 19.5547 11.8328 19.6655 11.9231 19.8617C11.8424 19.7772 11.7527 19.7633 11.6539 19.8202C11.7504 20.0631 11.8787 20.2849 12.0385 20.4854C12.0257 20.527 12.0129 20.5685 12 20.6101C11.9487 20.4993 11.8718 20.4161 11.7693 20.3607C11.8308 20.58 11.818 20.8017 11.7308 21.0259C11.7437 21.0813 11.7564 21.1367 11.7693 21.1922C11.8206 21.0813 11.8718 21.0813 11.9231 21.1922C11.9283 21.404 11.9924 21.5842 12.1154 21.7327C11.9933 21.8044 11.8651 21.8598 11.7308 21.899C11.7564 21.9267 11.7821 21.9545 11.8077 21.9821C11.7279 22.264 11.6766 22.5551 11.6539 22.8553C11.7543 23.7148 11.7543 24.574 11.6539 25.433C11.6412 25.6414 11.7181 25.7938 11.8847 25.8903C11.859 25.918 11.8333 25.9458 11.8077 25.9735C11.8847 26.0012 11.9616 26.029 12.0385 26.0567C11.8907 26.0866 11.7625 26.1559 11.6539 26.2645C11.6993 26.3726 11.7762 26.4418 11.8847 26.4724C11.7446 26.6766 11.6933 26.9122 11.7308 27.1792C11.8077 27.1792 11.8847 27.1792 11.9616 27.1792C11.9616 27.401 11.9616 27.6227 11.9616 27.8444C11.8847 27.8444 11.8077 27.8444 11.7308 27.8444C11.7306 28.1791 11.705 28.5117 11.6539 28.8423C11.7778 29.2246 11.8547 29.5988 11.8847 29.9649C11.8117 30.0162 11.7476 30.0024 11.6923 29.9233C11.7443 30.1281 11.7315 30.3083 11.6539 30.4638C11.8077 30.4638 11.9616 30.4638 12.1154 30.4638C12.0477 30.5765 12.022 30.7013 12.0385 30.838C11.2437 30.339 10.4487 29.8401 9.65389 29.3412C9.67042 29.053 9.56789 28.8312 9.34619 28.676C9.30789 28.7677 9.28227 28.8508 9.26927 28.9254C9.05404 28.7536 9.07966 28.6289 9.34619 28.5512C9.26927 28.4681 9.19235 28.3849 9.11543 28.3018C9.17758 28.2762 9.22889 28.2346 9.26927 28.1771C9.07766 28.0905 9.07766 28.0212 9.26927 27.9692C9.26935 27.6947 9.2565 27.4037 9.23081 27.0961C9.19235 27.0545 9.15389 27.0129 9.11543 26.9713C9.19804 26.9099 9.24935 26.8267 9.26927 26.7219C9.17689 26.4573 9.12558 26.1801 9.11543 25.8903C9.13958 25.4325 9.16519 24.9752 9.19235 24.5183C9.4855 24.5103 9.4855 24.455 9.19235 24.352C9.24366 24.2412 9.29489 24.1302 9.34619 24.0194C9.27881 23.957 9.20189 23.9154 9.11543 23.8947C9.12619 22.8894 9.1775 21.8777 9.26927 20.8596C9.06589 20.5369 9.07873 20.232 9.30773 19.9449C9.33335 20.0004 9.35904 20.0557 9.38466 20.1112C9.39789 20.4747 9.43635 20.835 9.50004 21.1922C9.55458 20.7174 9.58027 20.2462 9.57696 19.7786C9.46835 19.67 9.34012 19.6006 9.19235 19.5707C9.26927 19.543 9.34619 19.5152 9.42312 19.4876C9.32058 19.4321 9.21796 19.3767 9.11543 19.3212C9.26404 19.2088 9.36666 19.0564 9.42312 18.8639C9.19143 18.5261 9.22989 18.4707 9.5385 18.6976C9.53958 18.5337 9.51396 18.3674 9.46158 18.1987C9.42758 18.3799 9.35066 18.4352 9.23081 18.365C9.20519 18.6421 9.1795 18.9194 9.15389 19.1965C9.14104 19.0302 9.12827 18.8639 9.11543 18.6976C9.05743 18.2409 9.21127 17.9915 9.57696 17.9492Z"
        fill="#2886FE" />
    <path fill-rule="evenodd" clip-rule="evenodd"
        d="M23.423 17.8662C23.5409 18.0205 23.6692 18.1729 23.8076 18.3236C23.6849 18.2722 23.5824 18.2999 23.4999 18.4067C23.5731 18.6609 23.5987 18.9242 23.5768 19.1967C23.4999 19.1967 23.423 19.1967 23.3461 19.1967C23.3248 18.9515 23.3504 18.716 23.423 18.4899C23.3845 18.4483 23.3461 18.4067 23.3076 18.3651C23.2838 18.4704 23.2454 18.5674 23.1922 18.6562C23.2772 18.98 23.2772 19.3126 23.1922 19.654C23.3435 19.9471 23.4716 20.252 23.5768 20.5687C23.5359 21.0294 23.5359 21.5283 23.5768 22.0654C23.5499 22.17 23.4986 22.1977 23.423 22.1486C23.4486 22.1209 23.4743 22.0931 23.4999 22.0654C23.3768 21.7938 23.3127 21.5027 23.3076 21.1923C23.2175 21.5767 23.2047 21.9232 23.2692 22.2318C23.1959 22.7438 23.1446 23.2427 23.1153 23.7285C23.1622 23.8996 23.2391 23.9689 23.3461 23.9364C23.2948 23.9919 23.2435 24.0472 23.1922 24.1027C23.2905 24.2875 23.3675 24.4815 23.423 24.6848C23.3491 25.0138 23.2722 25.0138 23.1922 24.6848C23.1666 24.6987 23.1409 24.7125 23.1153 24.7263C23.2178 24.8095 23.2178 24.8927 23.1153 24.9758C23.1666 25.0035 23.2178 25.0313 23.2692 25.059C23.1909 25.1462 23.1781 25.2432 23.2307 25.35C23.2563 25.2945 23.282 25.2392 23.3076 25.1837C23.4338 25.4401 23.3698 25.6479 23.1153 25.8073C23.241 25.8484 23.3692 25.8622 23.4999 25.8489C23.5242 26.9919 23.4985 28.1283 23.423 29.2582C22.7794 29.717 22.1127 30.1327 21.423 30.5055C21.3011 30.194 21.1857 29.8614 21.0768 29.5077C20.9628 29.711 20.8731 29.6833 20.8076 29.4245C20.8858 29.2143 20.9756 29.2143 21.0768 29.4245C21.1463 29.3246 21.236 29.2553 21.3461 29.2166C21.2286 29.1029 21.1132 29.0613 20.9999 29.0919C20.9789 28.9588 20.9405 28.834 20.8845 28.7177C20.9008 28.5124 20.9265 28.3045 20.9615 28.0941C20.937 27.9987 20.8858 27.9293 20.8076 27.8862C20.9108 27.7785 21.0133 27.7369 21.1153 27.7614C21.0208 27.6965 20.9182 27.6549 20.8076 27.6367C21.0128 27.5536 21.0128 27.4704 20.8076 27.3872C20.9182 27.369 21.0208 27.3275 21.1153 27.2625C21.0463 27.2485 20.9694 27.2208 20.8845 27.1794C20.9565 26.7757 20.9693 26.3044 20.923 25.7658C20.9914 25.8812 21.0298 25.8674 21.0384 25.7242C20.9777 25.6788 20.9008 25.6233 20.8076 25.5579C20.8608 25.4692 20.8992 25.3721 20.923 25.2668C20.9486 25.35 20.9743 25.4331 20.9999 25.5163C21.0354 25.3009 20.9713 25.1207 20.8076 24.9758C20.8648 24.7693 20.8648 24.5477 20.8076 24.3106C21.3205 24.2274 21.3205 24.1443 20.8076 24.0611C20.8558 23.9988 20.8942 23.9294 20.923 23.8532C21.0298 23.9409 21.1452 23.9547 21.2692 23.8948C21.1001 23.7559 21.0744 23.5896 21.1922 23.3959C21.1018 23.2567 20.9992 23.132 20.8845 23.0217C20.8952 22.8439 20.8952 22.6637 20.8845 22.4812C20.9157 22.4026 20.967 22.3472 21.0384 22.3149C20.8332 22.2594 20.8332 22.2041 21.0384 22.1486C20.967 22.1163 20.9157 22.0609 20.8845 21.9823C20.9337 21.7886 20.9849 21.5946 21.0384 21.4002C20.9871 21.3725 20.9358 21.3448 20.8845 21.3171C21.0608 21.2098 21.2147 21.0712 21.3461 20.9013C21.2929 20.8126 21.2545 20.7155 21.2307 20.6103C21.1148 20.6963 20.9994 20.6824 20.8845 20.5687C20.9119 20.3738 20.9375 20.1798 20.9615 19.9866C20.9415 19.8818 20.8902 19.7986 20.8076 19.7372C21.0081 19.6997 21.1106 19.575 21.1153 19.363C21.8627 18.8339 22.6319 18.3349 23.423 17.8662Z"
        fill="#1E6DFE" />
    <path fill-rule="evenodd" clip-rule="evenodd"
        d="M12.1155 19.5293C13.1201 20.2802 14.2226 20.7791 15.4232 21.0261C15.3741 21.9082 15.3741 22.7536 15.4232 23.5622C15.3719 23.6177 15.3206 23.6731 15.2693 23.7285C15.3251 24.8601 15.3251 25.9965 15.2693 27.1378C15.3206 27.1655 15.3719 27.1933 15.4232 27.221C15.3719 27.415 15.3206 27.609 15.2693 27.803C15.3206 27.8585 15.3719 27.9139 15.4232 27.9693C15.3662 28.1178 15.3149 28.2702 15.2693 28.4267C15.3211 29.0892 15.3468 29.7405 15.3462 30.3808C15.3263 30.4856 15.275 30.5688 15.1924 30.6302C15.2638 30.6625 15.3151 30.718 15.3462 30.7966C15.3128 31.0267 15.3128 31.2624 15.3462 31.5034C15.3387 31.706 15.2618 31.8723 15.1155 32.0023C15.168 32.2485 15.2321 32.2763 15.3078 32.0854C15.3686 32.189 15.4071 32.2998 15.4232 32.418C14.1811 32.1621 13.0529 31.6355 12.0386 30.8381C12.0221 30.7014 12.0478 30.5767 12.1155 30.4639C11.9616 30.4639 11.8078 30.4639 11.6539 30.4639C11.7316 30.3084 11.7444 30.1282 11.6924 29.9234C11.7476 30.0025 11.8117 30.0163 11.8847 29.965C11.8548 29.599 11.7779 29.2248 11.6539 28.8425C11.705 28.5118 11.7306 28.1792 11.7309 27.8446C11.8078 27.8446 11.8847 27.8446 11.9616 27.8446C11.9616 27.6228 11.9616 27.4012 11.9616 27.1794C11.8847 27.1794 11.8078 27.1794 11.7309 27.1794C11.6933 26.9124 11.7446 26.6768 11.8847 26.4726C11.7762 26.442 11.6993 26.3727 11.6539 26.2647C11.7626 26.1561 11.8908 26.0868 12.0386 26.0568C11.9616 26.0291 11.8847 26.0014 11.8078 25.9737C11.8334 25.946 11.8591 25.9182 11.8847 25.8905C11.7182 25.794 11.6412 25.6416 11.6539 25.4332C11.7544 24.5742 11.7544 23.715 11.6539 22.8554C11.6766 22.5552 11.7279 22.2642 11.8078 21.9823C11.7822 21.9546 11.7565 21.9269 11.7309 21.8992C11.8652 21.86 11.9934 21.8045 12.1155 21.7329C11.9925 21.5843 11.9283 21.4042 11.9232 21.1924C11.8719 21.0815 11.8206 21.0815 11.7693 21.1924C11.7565 21.1369 11.7437 21.0815 11.7309 21.0261C11.818 20.8019 11.8309 20.5802 11.7693 20.3608C11.8719 20.4163 11.9488 20.4994 12.0001 20.6103C12.0129 20.5687 12.0257 20.5271 12.0386 20.4856C11.8787 20.2851 11.7505 20.0633 11.6539 19.8203C11.7527 19.7635 11.8425 19.7773 11.9232 19.8619C11.8329 19.6657 11.897 19.5548 12.1155 19.5293Z"
        fill="#2780FE" />
    <path fill-rule="evenodd" clip-rule="evenodd"
        d="M21.1155 19.3633C21.1108 19.5753 21.0082 19.7001 20.8078 19.7375C20.8904 19.7989 20.9417 19.8821 20.9616 19.9869C20.9377 20.1801 20.9121 20.3741 20.8847 20.569C20.9996 20.6828 21.1149 20.6966 21.2309 20.6106C21.2546 20.7159 21.2931 20.8129 21.3462 20.9016C21.2149 21.0715 21.061 21.2101 20.8847 21.3174C20.936 21.3451 20.9872 21.3728 21.0386 21.4005C20.9851 21.5949 20.9339 21.7889 20.8847 21.9826C20.9159 22.0612 20.9672 22.1166 21.0386 22.1489C20.8334 22.2044 20.8334 22.2598 21.0386 22.3152C20.9672 22.3475 20.9159 22.4029 20.8847 22.4815C20.8953 22.664 20.8953 22.8442 20.8847 23.022C20.9993 23.1323 21.1019 23.257 21.1924 23.3962C21.0746 23.59 21.1002 23.7563 21.2693 23.8951C21.1453 23.955 21.0299 23.9412 20.9232 23.8536C20.8944 23.9297 20.8559 23.9991 20.8078 24.0614C21.3206 24.1446 21.3206 24.2277 20.8078 24.3109C20.865 24.548 20.865 24.7697 20.8078 24.9761C20.9715 25.1211 21.0356 25.3012 21.0001 25.5166C20.9745 25.4335 20.9488 25.3503 20.9232 25.2672C20.8994 25.3724 20.8609 25.4695 20.8078 25.5582C20.9009 25.6236 20.9779 25.6791 21.0386 25.7245C21.03 25.8677 20.9916 25.8815 20.9232 25.7661C20.9695 26.3047 20.9566 26.776 20.8847 27.1797C20.9696 27.2211 21.0465 27.2488 21.1155 27.2628C21.0209 27.3278 20.9184 27.3694 20.8078 27.3876C21.0129 27.4707 21.0129 27.5539 20.8078 27.637C20.9184 27.6552 21.0209 27.6968 21.1155 27.7618C21.0135 27.7372 20.9109 27.7788 20.8078 27.8865C20.8859 27.9296 20.9372 27.999 20.9616 28.0944C20.9266 28.3048 20.901 28.5127 20.8847 28.718C20.9406 28.8343 20.9791 28.9591 21.0001 29.0922C21.1134 29.0616 21.2288 29.1032 21.3462 29.2169C21.2362 29.2556 21.1465 29.3249 21.077 29.4248C20.9758 29.2146 20.886 29.2146 20.8078 29.4248C20.8732 29.6836 20.9629 29.7114 21.077 29.508C21.1859 29.8617 21.3012 30.1943 21.4232 30.5058C20.6291 31.1018 19.7829 31.6145 18.8847 32.0441C18.7124 32.1254 18.5329 32.167 18.3462 32.1689C18.1436 32.0726 18.1565 31.9894 18.3847 31.9194C18.4103 31.9471 18.436 31.9749 18.4616 32.0026C18.5 31.5044 18.5129 31.0055 18.5001 30.5058C18.3976 30.5058 18.2949 30.5058 18.1924 30.5058C18.2055 30.3959 18.1799 30.2988 18.1155 30.2148C18.1885 30.1635 18.2526 30.1773 18.3078 30.2563C18.3632 30.1223 18.3504 29.9976 18.2693 29.8822C18.3422 29.842 18.4192 29.8282 18.5001 29.8406C18.5144 28.765 18.4375 27.6978 18.2693 26.6392C18.3499 26.4995 18.4011 26.347 18.4232 26.1818C18.3214 25.7255 18.2445 25.282 18.1924 24.8514C18.2052 24.7405 18.218 24.6296 18.2309 24.5188C18.2879 24.4239 18.352 24.4239 18.4232 24.5188C18.5259 24.1727 18.4746 23.8539 18.2693 23.5625C18.3583 22.9987 18.4352 22.4305 18.5001 21.8579C18.3763 21.8916 18.2737 21.8916 18.1924 21.8579C18.3869 21.7733 18.3869 21.6763 18.1924 21.5668C18.3763 21.5094 18.3763 21.4262 18.1924 21.3174C18.3768 21.1752 18.3768 21.0227 18.1924 20.86C19.2286 20.4939 20.203 19.995 21.1155 19.3633Z"
        fill="#2273FE" />
    <path fill-rule="evenodd" clip-rule="evenodd"
        d="M26.9616 20.5273C27.1147 22.5766 27.1659 24.6554 27.1154 26.7638C27.1923 26.7638 27.2692 26.7638 27.3462 26.7638C26.0542 27.6149 24.7466 28.4464 23.4231 29.2584C23.4986 28.1285 23.5242 26.9922 23.5 25.8491C23.4872 24.8232 23.5 23.7977 23.5385 22.7725C24.2672 22.192 25.0236 21.6654 25.8077 21.1926C26.1822 20.9486 26.5668 20.7269 26.9616 20.5273Z"
        fill="#D6D7D6" />
    <path fill-rule="evenodd" clip-rule="evenodd"
        d="M18.1924 20.8604C18.3768 21.023 18.3768 21.1755 18.1924 21.3177C18.3763 21.4265 18.3763 21.5097 18.1924 21.5672C18.3869 21.6766 18.3869 21.7736 18.1924 21.8582C18.2737 21.8919 18.3763 21.8919 18.5001 21.8582C18.4352 22.4308 18.3583 22.9991 18.2693 23.5628C18.4746 23.8542 18.5259 24.173 18.4232 24.5191C18.352 24.4242 18.2879 24.4242 18.2309 24.5191C18.218 24.6299 18.2052 24.7409 18.1924 24.8517C18.2445 25.2824 18.3214 25.7258 18.4232 26.1822C18.4011 26.3473 18.3499 26.4998 18.2693 26.6395C18.4375 27.6981 18.5144 28.7653 18.5001 29.8409C18.4192 29.8285 18.3422 29.8423 18.2693 29.8825C18.3504 29.9979 18.3632 30.1226 18.3078 30.2567C18.2526 30.1776 18.1885 30.1638 18.1155 30.2151C18.1799 30.2992 18.2055 30.3962 18.1924 30.5061C18.2949 30.5061 18.3976 30.5061 18.5001 30.5061C18.5129 31.0058 18.5 31.5047 18.4616 32.0029C18.436 31.9752 18.4103 31.9474 18.3847 31.9197C18.1565 31.9897 18.1436 32.0729 18.3462 32.1692C17.3942 32.4788 16.4199 32.562 15.4232 32.4186C15.4071 32.3004 15.3686 32.1896 15.3078 32.086C15.2321 32.2769 15.168 32.2491 15.1155 32.0029C15.2618 31.8729 15.3387 31.7066 15.3462 31.504C15.3128 31.263 15.3128 31.0273 15.3462 30.7972C15.3151 30.7186 15.2638 30.6631 15.1924 30.6308C15.275 30.5694 15.3263 30.4862 15.3462 30.3814C15.3468 29.7411 15.3211 29.0898 15.2693 28.4273C15.3149 28.2708 15.3662 28.1184 15.4232 27.9699C15.3719 27.9145 15.3206 27.8591 15.2693 27.8036C15.3206 27.6096 15.3719 27.4156 15.4232 27.2216C15.3719 27.1939 15.3206 27.1661 15.2693 27.1384C15.3251 25.9971 15.3251 24.8607 15.2693 23.7291C15.3206 23.6737 15.3719 23.6183 15.4232 23.5628C15.3741 22.7542 15.3741 21.9088 15.4232 21.0267C16.356 21.1603 17.2791 21.1049 18.1924 20.8604Z"
        fill="#2479FE" />
</svg>