<svg width="32" height="32" viewBox="0 0 32 32" fill="none" xmlns="http://www.w3.org/2000/svg">
    <g clip-path="url(#clip0_2113_1149)">
        <path fill-rule="evenodd" clip-rule="evenodd"
            d="M15.3228 0.761796C17.6938 0.733588 20.0642 0.761812 22.4339 0.846452C24.6549 1.17214 26.856 1.59542 29.0371 2.11629C29.4301 3.74503 29.797 5.38172 30.1376 7.02635C30.2505 7.4214 30.2505 7.81647 30.1376 8.21153C28.3195 9.77598 26.429 11.2434 24.4657 12.6136C17.9805 9.22942 11.3209 6.26646 4.48682 3.72476C7.97505 2.1938 11.587 1.20614 15.3228 0.761796Z"
            fill="#4494FC" />
        <path fill-rule="evenodd" clip-rule="evenodd"
            d="M4.31746 5.84106C6.64427 6.6934 8.95819 7.59641 11.2593 8.55006C11.4431 11.9426 11.697 15.3288 12.0212 18.7088C12.4434 22.6231 12.9514 26.5173 13.545 30.3913C6.57392 25.1956 2.11537 18.3666 0.169312 9.90456C1.52973 8.51579 2.91246 7.16129 4.31746 5.84106Z"
            fill="#4394FC" />
        <path fill-rule="evenodd" clip-rule="evenodd"
            d="M31.746 9.22729C31.9534 9.33772 32.0664 9.53526 32.0847 9.81989C30.9489 18.1306 27.3933 25.1851 21.418 30.9839C19.4441 30.7216 17.5252 30.2137 15.6614 29.4601C15.2576 27.878 14.9472 26.2696 14.7302 24.6347C14.561 23.7351 14.5046 22.8322 14.5608 21.9257C20.6474 18.1644 26.3758 13.9316 31.746 9.22729Z"
            fill="#4394FC" />
        <path fill-rule="evenodd" clip-rule="evenodd"
            d="M13.291 9.56592C16.4411 10.9463 19.5452 12.4419 22.6032 14.0527C19.8512 16.0988 17.0293 18.0459 14.1376 19.894C13.5937 16.4786 13.3116 13.0359 13.291 9.56592Z"
            fill="#4494FC" />
    </g>
    <defs>
        <clipPath id="clip0_2113_1149">
            <rect width="32" height="32" fill="white" />
        </clipPath>
    </defs>
</svg>