<svg width="32" height="32" viewBox="0 0 32 32" fill="none" xmlns="http://www.w3.org/2000/svg">
    <g clip-path="url(#clip0_3297_406)">
        <mask id="mask0_3297_406" style="mask-type:luminance" maskUnits="userSpaceOnUse" x="0" y="0"
            width="32" height="32">
            <path
                d="M32 16C32 7.16344 24.8366 0 16 0C7.16344 0 0 7.16344 0 16C0 24.8366 7.16344 32 16 32C24.8366 32 32 24.8366 32 16Z"
                fill="white" />
        </mask>
        <g mask="url(#mask0_3297_406)">
            <path
                d="M32 16C32 7.16344 24.8366 0 16 0C7.16344 0 0 7.16344 0 16C0 24.8366 7.16344 32 16 32C24.8366 32 32 24.8366 32 16Z"
                fill="#4285F3" />
            <path fill-rule="evenodd" clip-rule="evenodd"
                d="M24.2938 12.8805C25.6087 9.35129 24.2765 6.24617 23.446 5.13477C22.8879 5.39321 21.3623 6.25297 19.532 7.69669C18.4587 7.22589 17.2723 6.96461 16.0248 6.96461C14.7752 6.96461 13.5869 7.22681 12.5121 7.69909C10.6832 6.25685 9.15898 5.39789 8.60118 5.13957C7.77066 6.25101 6.43982 9.35457 7.75478 12.8838C7.45702 13.7618 7.29558 14.7026 7.29558 15.681C7.29558 17.4054 7.79698 19.0128 8.66218 20.3657L18.0559 36.6122L20.4377 35.239L14.0381 24.1708C14.6763 24.3191 15.3414 24.3975 16.0248 24.3975C20.8459 24.3975 24.7541 20.495 24.7541 15.681C24.7541 14.7014 24.5923 13.7595 24.2938 12.8805ZM16.0254 21.6496C19.3267 21.6496 22.0029 18.9773 22.0029 15.6808C22.0029 12.3843 19.3267 9.71201 16.0254 9.71201C12.7241 9.71201 10.0478 12.3843 10.0478 15.6808C10.0478 18.9773 12.7241 21.6496 16.0254 21.6496Z"
                fill="white" />
        </g>
    </g>
    <defs>
        <clipPath id="clip0_3297_406">
            <rect width="32" height="32" fill="white" />
        </clipPath>
    </defs>
</svg>