<svg width="32" height="32" viewBox="0 0 32 32" fill="none" xmlns="http://www.w3.org/2000/svg">
    <path
        d="M6.58224 5.64697H0.732053C0.327751 5.64697 0 5.98436 0 6.40056V12.4228C0 12.839 0.327751 13.1764 0.732053 13.1764H6.58224C6.98654 13.1764 7.31429 12.839 7.31429 12.4228V6.40056C7.31429 5.98436 6.98654 5.64697 6.58224 5.64697Z"
        fill="#1F3349" />
    <path
        d="M6.58224 15.0591H0.732053C0.327751 15.0591 0 15.3965 0 15.8127V21.8349C0 22.2511 0.327751 22.5885 0.732053 22.5885H6.58224C6.98654 22.5885 7.31429 22.2511 7.31429 21.8349V15.8127C7.31429 15.3965 6.98654 15.0591 6.58224 15.0591Z"
        fill="#1F3349" />
    <path
        d="M6.58224 24.4707H0.732053C0.327751 24.4707 0 24.8081 0 25.2243V31.2466C0 31.6627 0.327751 32.0001 0.732053 32.0001H6.58224C6.98654 32.0001 7.31429 31.6627 7.31429 31.2466V25.2243C7.31429 24.8081 6.98654 24.4707 6.58224 24.4707Z"
        fill="#1F3349" />
    <path
        d="M15.7251 24.4707H9.87488C9.47057 24.4707 9.14282 24.8081 9.14282 25.2243V31.2466C9.14282 31.6627 9.47057 32.0001 9.87488 32.0001H15.7251C16.1294 32.0001 16.4571 31.6627 16.4571 31.2466V25.2243C16.4571 24.8081 16.1294 24.4707 15.7251 24.4707Z"
        fill="#1F3349" />
    <path
        d="M15.7251 15.0591H9.87488C9.47057 15.0591 9.14282 15.3965 9.14282 15.8127V21.8349C9.14282 22.2511 9.47057 22.5885 9.87488 22.5885H15.7251C16.1294 22.5885 16.4571 22.2511 16.4571 21.8349V15.8127C16.4571 15.3965 16.1294 15.0591 15.7251 15.0591Z"
        fill="#1F3349" />
    <path
        d="M31.268 0H25.4178C25.0135 0 24.6858 0.337392 24.6858 0.753586V6.77585C24.6858 7.19205 25.0135 7.52944 25.4178 7.52944H31.268C31.6723 7.52944 32.0001 7.19205 32.0001 6.77585V0.753586C32.0001 0.337392 31.6723 0 31.268 0Z"
        fill="#FFB354" />
    <path fill-rule="evenodd" clip-rule="evenodd"
        d="M14.6061 1.87373C14.8436 1.5433 15.2946 1.46978 15.6197 1.7085L20.4459 5.25246C20.7791 5.49714 20.8527 5.97553 20.6092 6.31422L17.1077 11.1852C16.8702 11.5157 16.4192 11.5891 16.0941 11.3505L11.2679 7.80651C10.9347 7.56182 10.8611 7.08342 11.1046 6.74472L14.6061 1.87373Z"
        fill="#A9E853" />
    <path
        d="M24.8681 24.4707H19.0179C18.6136 24.4707 18.2859 24.8081 18.2859 25.2243V31.2466C18.2859 31.6627 18.6136 32.0001 19.0179 32.0001H24.8681C25.2724 32.0001 25.6002 31.6627 25.6002 31.2466V25.2243C25.6002 24.8081 25.2724 24.4707 24.8681 24.4707Z"
        fill="#1F3349" />
    <path fill-rule="evenodd" clip-rule="evenodd"
        d="M19.7154 15.6967C19.4661 15.3624 19.5315 14.8827 19.8607 14.632L24.6246 11.0037C24.9455 10.7594 25.3976 10.8247 25.6407 11.1508L29.2261 15.9596C29.4753 16.2939 29.4098 16.7736 29.0807 17.0242L24.3168 20.6525C23.9958 20.897 23.5438 20.8316 23.3007 20.5056L19.7154 15.6967Z"
        fill="#2B6EB5" />
</svg>