<svg width="32" height="32" viewBox="0 0 32 32" fill="none" xmlns="http://www.w3.org/2000/svg">
    <path d="M32 0H0V32H32V0Z" fill="#FAFAFA" />
    <path fill-rule="evenodd" clip-rule="evenodd"
        d="M13.1787 1.14477C17.1484 0.252857 20.9095 0.879791 24.462 3.02565C24.9109 3.31602 25.287 3.69219 25.5904 4.15418C25.3396 4.15418 25.0889 4.15418 24.8382 4.15418C24.197 3.51765 23.4447 3.01609 22.5815 2.64947C21.7962 2.10797 20.9185 1.85721 19.9487 1.89712C17.7904 1.24694 15.5338 0.996143 13.1787 1.14477Z"
        fill="#8FB330" />
    <path fill-rule="evenodd" clip-rule="evenodd"
        d="M13.1787 1.14695C15.5338 0.998321 17.7904 1.24912 19.9487 1.8993C19.3423 2.57551 18.7782 3.32786 18.2562 4.15635C18.1874 5.23398 17.9994 6.23713 17.692 7.16576C17.1588 6.48567 16.4065 6.23487 15.4354 6.41341C15.6175 4.78554 15.3668 3.28084 14.6832 1.8993C14.1817 1.6485 13.6802 1.39774 13.1787 1.14695Z"
        fill="#8DDF15" />
    <path fill-rule="evenodd" clip-rule="evenodd"
        d="M19.9486 1.89864C20.9184 1.85873 21.796 2.10949 22.5813 2.65099C21.6611 4.50761 20.6582 6.32578 19.5724 8.10554C19.6978 8.23092 19.8232 8.35634 19.9486 8.48172C19.3395 8.5703 18.9634 8.88381 18.8202 9.42215C18.4441 9.42215 18.068 9.42215 17.6919 9.42215C17.6919 8.6698 17.6919 7.91745 17.6919 7.1651C17.9992 6.23647 18.1873 5.23333 18.2561 4.1557C18.778 3.32721 19.3422 2.57485 19.9486 1.89864Z"
        fill="#ABCC15" />
    <path fill-rule="evenodd" clip-rule="evenodd"
        d="M22.5814 2.65039C23.4447 3.01701 24.1969 3.51857 24.8381 4.15509C24.3133 5.83284 23.4984 7.33754 22.3934 8.6692C21.9749 8.97202 21.5361 9.22282 21.077 9.42155C20.3248 9.42155 19.5725 9.42155 18.8203 9.42155C18.9635 8.88321 19.3396 8.5697 19.9486 8.48111C19.8233 8.35573 19.6979 8.23032 19.5725 8.10494C20.6583 6.32518 21.6612 4.50701 22.5814 2.65039Z"
        fill="#B8C41A" />
    <path fill-rule="evenodd" clip-rule="evenodd"
        d="M24.838 4.15625C25.0888 4.15625 25.3395 4.15625 25.5902 4.15625C26.8702 5.059 27.8732 6.18752 28.5991 7.54183C27.8609 6.99265 27.1713 6.36568 26.5305 5.66095C26.3976 6.10168 26.4603 6.54053 26.7186 6.97757C25.9552 7.69046 25.3284 8.50548 24.838 9.42271C23.9604 9.67351 23.0828 9.92426 22.2052 10.1751C21.631 10.2025 21.2548 9.95172 21.0769 9.42271C21.536 9.22398 21.9748 8.97318 22.3933 8.67036C23.4983 7.3387 24.3132 5.83399 24.838 4.15625Z"
        fill="#C2BA22" />
    <path fill-rule="evenodd" clip-rule="evenodd"
        d="M13.1787 1.14453C13.6801 1.39533 14.1816 1.64609 14.6831 1.89688C11.4014 2.15501 9.01929 3.72243 7.537 6.59908C9.49082 9.25285 11.4967 11.8234 13.5548 14.3107C13.0533 14.3107 12.5518 14.3107 12.0503 14.3107C10.7084 13.2557 9.32936 12.1898 7.91311 11.1132C6.595 10.8659 5.46666 10.3016 4.52811 9.4204C4.89132 8.4209 5.07938 7.41779 5.09228 6.41099C4.74825 6.72243 4.4975 7.0986 4.34006 7.53952C4.16543 7.31592 4.10273 7.06512 4.152 6.78717C6.3887 3.6727 9.39759 1.79182 13.1787 1.14453Z"
        fill="#4CEA52" />
    <path fill-rule="evenodd" clip-rule="evenodd"
        d="M14.683 1.89844C15.3666 3.27998 15.6173 4.78468 15.4352 6.41255C14.7032 8.25423 14.4525 10.2605 14.683 12.4314C14.683 13.0583 14.683 13.6853 14.683 14.3122C14.3069 14.3122 13.9308 14.3122 13.5546 14.3122C11.4966 11.8249 9.49069 9.2544 7.53687 6.60063C9.01916 3.72398 11.4012 2.15657 14.683 1.89844Z"
        fill="#52EB2D" />
    <path fill-rule="evenodd" clip-rule="evenodd"
        d="M28.5992 7.54103C28.567 7.91567 28.6924 8.22914 28.9754 8.48147C28.0167 9.53236 26.8884 10.3474 25.5904 10.9266C25.4066 10.3642 25.1558 9.8626 24.8381 9.42191C25.3285 8.50468 25.9553 7.68966 26.7187 6.97677C26.4604 6.53973 26.3977 6.10088 26.5306 5.66016C27.1715 6.36488 27.861 6.99186 28.5992 7.54103Z"
        fill="#DDAA20" />
    <path fill-rule="evenodd" clip-rule="evenodd"
        d="M15.4354 6.41115C16.4065 6.23262 17.1587 6.48341 17.692 7.1635C17.692 7.91585 17.692 8.6682 17.692 9.42056C17.692 10.1729 17.692 10.9253 17.692 11.6776C17.692 11.803 17.692 11.9284 17.692 12.0538C16.7809 12.8626 15.778 12.988 14.6831 12.43C14.4527 10.2591 14.7034 8.25283 15.4354 6.41115Z"
        fill="#DFF3CD" />
    <path fill-rule="evenodd" clip-rule="evenodd"
        d="M24.8381 9.42188C25.1558 9.86256 25.4065 10.3641 25.5903 10.9266C25.5903 11.1774 25.5903 11.4281 25.5903 11.6789C24.5608 11.6418 23.5579 11.7672 22.5814 12.0551C22.533 11.4095 22.4077 10.7826 22.2053 10.1742C23.0829 9.92343 23.9605 9.67267 24.8381 9.42188Z"
        fill="#E3C266" />
    <path fill-rule="evenodd" clip-rule="evenodd"
        d="M28.5992 7.54102C29.6151 8.56997 30.2421 9.82388 30.4798 11.3028C30.5042 11.4676 30.4418 11.593 30.2917 11.6789C30.0409 11.1774 29.7903 10.6758 29.5395 10.1742C28.7625 11.8367 27.4461 12.7144 25.5903 12.8075C25.5903 12.4313 25.5903 12.0551 25.5903 11.6789C25.5903 11.4282 25.5903 11.1774 25.5903 10.9266C26.8884 10.3474 28.0167 9.53234 28.9753 8.48145C28.6923 8.22912 28.567 7.91565 28.5992 7.54102Z"
        fill="#DB9C3E" />
    <path fill-rule="evenodd" clip-rule="evenodd"
        d="M17.6919 9.42188C18.068 9.42188 18.4441 9.42188 18.8202 9.42188C19.5724 9.42188 20.3247 9.42188 21.0769 9.42188C21.2548 9.95089 21.6309 10.2017 22.2052 10.1742C22.4076 10.7826 22.5329 11.4095 22.5813 12.0551C20.9549 11.8944 19.325 11.769 17.6919 11.6789C17.6919 10.9266 17.6919 10.1742 17.6919 9.42188Z"
        fill="#B0B14B" />
    <path fill-rule="evenodd" clip-rule="evenodd"
        d="M12.0504 14.3118C11.4235 14.3118 10.7967 14.3118 10.1698 14.3118C7.86313 13.4179 5.4811 12.6655 3.02371 12.0547C3.08396 11.4155 3.02126 10.7886 2.83565 10.1739C2.57613 10.6397 2.38808 10.6397 2.27148 10.1739C2.61363 8.86019 3.2405 7.73166 4.15204 6.78829C4.10277 7.06624 4.16547 7.31704 4.3401 7.54064C4.49754 7.09972 4.74829 6.72355 5.09232 6.41211C5.07942 7.41891 4.89136 8.42202 4.52815 9.42151C5.4667 10.3027 6.59503 10.867 7.91315 11.1143C9.3294 12.191 10.7085 13.2568 12.0504 14.3118Z"
        fill="#38E379" />
    <path fill-rule="evenodd" clip-rule="evenodd"
        d="M30.4797 11.3024C30.8979 12.0921 31.1488 12.9698 31.2319 13.9356C30.8806 14.3372 30.755 14.8388 30.8558 15.4403C28.7245 15.4403 26.5932 15.4403 24.4619 15.4403C24.9113 14.5934 25.2874 13.7157 25.5902 12.8071C27.4461 12.714 28.7624 11.8363 29.5394 10.1738C29.7902 10.6754 30.0408 11.177 30.2916 11.6785C30.4417 11.5926 30.5041 11.4672 30.4797 11.3024Z"
        fill="#DD9359" />
    <path fill-rule="evenodd" clip-rule="evenodd"
        d="M2.27151 10.1738C2.3881 10.6396 2.57616 10.6396 2.83568 10.1738C3.02129 10.7885 3.08398 11.4155 3.02373 12.0547C5.48113 12.6655 7.86315 13.4178 10.1698 14.3118C9.79373 14.3118 9.41762 14.3118 9.04151 14.3118C8.7015 14.5785 8.57615 14.9546 8.6654 15.4403C6.28337 15.4403 3.90131 15.4403 1.51929 15.4403C1.51929 14.5626 1.51929 13.6848 1.51929 12.8071C1.51929 12.5563 1.51929 12.3055 1.51929 12.0547C1.63058 11.3388 1.88129 10.7119 2.27151 10.1738Z"
        fill="#32DB98" />
    <path fill-rule="evenodd" clip-rule="evenodd"
        d="M17.6919 11.6797C19.325 11.7698 20.9549 11.8952 22.5813 12.0559C22.4506 13.0036 21.9491 13.6932 21.0769 14.1248C19.9555 14.3122 18.8271 14.3748 17.6919 14.3129C17.6919 13.5606 17.6919 12.8082 17.6919 12.0559C17.6919 11.9305 17.6919 11.8051 17.6919 11.6797Z"
        fill="#BEB37F" />
    <path fill-rule="evenodd" clip-rule="evenodd"
        d="M25.5902 11.6802C25.5902 12.0564 25.5902 12.4325 25.5902 12.8087C25.2874 13.7173 24.9113 14.5951 24.4619 15.4419C23.9604 15.8181 23.4589 16.1943 22.9574 16.5705C21.2762 16.1995 19.521 16.0741 17.6919 16.1943C17.6919 15.5673 17.6919 14.9404 17.6919 14.3134C18.8271 14.3753 19.9555 14.3127 21.0769 14.1253C21.9491 13.6937 22.4506 13.0041 22.5813 12.0564C23.5578 11.7685 24.5607 11.6431 25.5902 11.6802Z"
        fill="#F2E1D2" />
    <path fill-rule="evenodd" clip-rule="evenodd"
        d="M9.0415 14.3105C9.41761 14.3105 9.79373 14.3105 10.1698 14.3105C10.7967 14.3105 11.4235 14.3105 12.0504 14.3105C12.5519 14.3105 13.0534 14.3105 13.5548 14.3105C13.9309 14.3105 14.3071 14.3105 14.6832 14.3105C14.6424 15.0681 14.8931 15.6951 15.4354 16.1914C14.9339 16.5676 14.4324 16.9438 13.9309 17.32C13.4295 17.32 12.928 17.32 12.4265 17.32C12.0504 17.32 11.6743 17.32 11.2982 17.32C10.5459 17.32 9.79373 17.32 9.0415 17.32C9.0415 16.3168 9.0415 15.3137 9.0415 14.3105Z"
        fill="#C4EBDB" />
    <path fill-rule="evenodd" clip-rule="evenodd"
        d="M17.6919 12.0547C17.6919 12.807 17.6919 13.5594 17.6919 14.3117C17.6919 14.9387 17.6919 15.5656 17.6919 16.1926C19.521 16.0724 21.2762 16.1978 22.9574 16.5688C22.2348 16.8933 21.4826 17.1441 20.7008 17.3211C20.3247 17.3211 19.9485 17.3211 19.5724 17.3211C19.3217 17.3211 19.071 17.3211 18.8202 17.3211C18.4441 17.3211 18.068 17.3211 17.6919 17.3211C16.7716 17.2779 16.0194 16.9017 15.4352 16.1926C14.8929 15.6963 14.6422 15.0693 14.683 14.3117C14.683 13.6848 14.683 13.0578 14.683 12.4309C15.7778 12.9889 16.7808 12.8635 17.6919 12.0547Z"
        fill="#F4F4EF" />
    <path fill-rule="evenodd" clip-rule="evenodd"
        d="M1.5192 12.8086C1.5192 13.6863 1.5192 14.5641 1.5192 15.4418C3.90122 15.4418 6.28329 15.4418 8.66531 15.4418C8.57606 14.9562 8.70142 14.58 9.04142 14.3133C9.04142 15.3164 9.04142 16.3196 9.04142 17.3227C9.79364 17.3227 10.5459 17.3227 11.2981 17.3227C9.1218 18.4113 6.80247 19.1637 4.34003 19.5798C3.17567 19.7319 2.48614 19.2303 2.27142 18.0751C1.9134 18.6564 1.78804 19.2833 1.89531 19.9559C1.3164 18.6903 1.06569 17.3109 1.14309 15.818C1.14403 14.7438 1.26942 13.7407 1.5192 12.8086Z"
        fill="#2CBD8E" />
    <path fill-rule="evenodd" clip-rule="evenodd"
        d="M31.232 13.9355C31.2933 15.8341 31.1677 17.715 30.8559 19.5782C30.6073 19.1202 30.3565 18.6186 30.1037 18.0735C29.5806 18.9727 28.8284 19.5996 27.847 19.9544C25.3947 19.1624 23.0127 18.2846 20.7009 17.3211C21.4827 17.1441 22.2349 16.8933 22.9576 16.5688C23.4591 16.1926 23.9606 15.8164 24.462 15.4402C26.5933 15.4402 28.7246 15.4402 30.8559 15.4402C30.7551 14.8387 30.8807 14.3372 31.232 13.9355Z"
        fill="#D3724A" />
    <path fill-rule="evenodd" clip-rule="evenodd"
        d="M11.298 17.3223C11.6741 17.3223 12.0502 17.3223 12.4264 17.3223C12.2729 17.7523 12.0221 18.1284 11.6741 18.4508C9.69786 19.0031 7.94266 19.9436 6.40858 21.2721C5.08648 21.8049 3.83275 22.1183 2.64747 22.2125C2.1817 21.5677 1.93098 20.8153 1.89525 19.9555C1.78798 19.2829 1.91334 18.6559 2.27136 18.0746C2.48608 19.2299 3.17561 19.7314 4.33997 19.5793C6.80241 19.1632 9.12173 18.4109 11.298 17.3223Z"
        fill="#35BAAE" />
    <path fill-rule="evenodd" clip-rule="evenodd"
        d="M15.4354 16.1914C16.0195 16.9005 16.7718 17.2767 17.692 17.3199C17.692 18.3231 17.692 19.3262 17.692 20.3293C17.692 21.9594 17.692 23.5895 17.692 25.2196C16.9398 25.2196 16.1876 25.2196 15.4354 25.2196C14.7554 24.6862 14.5046 23.9339 14.6831 22.9626C14.6831 21.2071 14.6831 19.4516 14.6831 17.6961C14.5546 17.3808 14.3039 17.2554 13.9309 17.3199C14.4324 16.9438 14.9339 16.5676 15.4354 16.1914Z"
        fill="#E1DCE6" />
    <path fill-rule="evenodd" clip-rule="evenodd"
        d="M19.5725 17.3223C19.9486 17.3223 20.3247 17.3223 20.7008 17.3223C23.0126 18.2858 25.3946 19.1635 27.847 19.9555C28.8283 19.6007 29.5805 18.9738 30.1036 18.0746C30.3564 18.6198 30.6072 19.1213 30.8558 19.5793C30.708 20.2503 30.4575 20.8773 30.1036 21.4602C30.0096 22.278 29.6336 22.9049 28.9753 23.3411C29.117 22.6798 29.3678 22.0528 29.7275 21.4602C29.339 21.1021 28.9002 21.1021 28.4111 21.4602C27.7298 21.2428 27.0403 21.0547 26.3425 20.8959C24.664 20.0007 22.9089 19.2484 21.077 18.6389C20.6141 18.1104 20.1126 17.6716 19.5725 17.3223Z"
        fill="#D5746A" />
    <path fill-rule="evenodd" clip-rule="evenodd"
        d="M18.8203 17.3223C19.0711 17.3223 19.3218 17.3223 19.5725 17.3223C20.1127 17.6716 20.6142 18.1104 21.077 18.6389C22.9089 19.2484 24.6641 20.0007 26.3425 20.8959C27.0403 21.0547 27.7299 21.2428 28.4111 21.4602C28.9002 21.1021 29.339 21.1021 29.7275 21.4602C29.3678 22.0528 29.1171 22.6798 28.9753 23.3411C28.8814 24.1589 28.5053 24.7858 27.847 25.222C27.3738 25.4162 26.9976 25.1654 26.7186 24.4696C27.5018 24.0615 27.6272 23.4972 27.0948 22.7768C25.3577 21.5947 23.4771 20.7169 21.4531 20.1436C20.6896 19.02 19.812 18.0795 18.8203 17.3223Z"
        fill="#D77683" />
    <path fill-rule="evenodd" clip-rule="evenodd"
        d="M12.4263 17.3211C12.9278 17.3211 13.4293 17.3211 13.9308 17.3211C14.3037 17.2566 14.5545 17.382 14.683 17.6973C13.8933 18.4489 13.141 19.264 12.4263 20.1425C11.2624 20.4503 10.5102 21.2027 10.1697 22.3995C8.83201 23.3016 7.45296 24.1166 6.03246 24.8447C5.28475 24.225 4.78328 24.3504 4.52802 25.2208C4.27726 25.2208 4.15191 25.0954 4.15191 24.8447C3.36068 24.1405 2.85921 23.2628 2.64746 22.2114C3.83274 22.1172 5.08647 21.8037 6.40857 21.271C7.94265 19.9424 9.69785 19.002 11.6741 18.4497C12.0221 18.1273 12.2729 17.7511 12.4263 17.3211Z"
        fill="#65A5B0" />
    <path fill-rule="evenodd" clip-rule="evenodd"
        d="M14.6831 17.6992C14.6831 19.4547 14.6831 21.2102 14.6831 22.9657C13.4189 22.9881 12.2905 23.5524 11.2981 24.6585C12.3934 24.9764 12.7695 25.6033 12.4264 26.5393C11.5443 27.21 10.5413 27.5862 9.41752 27.6679C11.8317 28.9537 11.5809 29.2672 8.6653 28.6083C6.95655 27.9042 5.57746 26.7757 4.52808 25.2227C4.78334 24.3523 5.28481 24.2269 6.03252 24.8466C7.45302 24.1185 8.83207 23.3035 10.1697 22.4014C10.5102 21.2046 11.2625 20.4522 12.4264 20.1444C13.1411 19.2659 13.8933 18.4508 14.6831 17.6992Z"
        fill="#869FB3" />
    <path fill-rule="evenodd" clip-rule="evenodd"
        d="M17.6919 17.3223C18.068 17.3223 18.4441 17.3223 18.8202 17.3223C19.8119 18.0795 20.6895 19.02 21.453 20.1436C23.477 20.717 25.3576 21.5947 27.0947 22.7768C27.6271 23.4972 27.5017 24.0615 26.7186 24.4696C25.7864 24.9294 24.9088 25.4937 24.0858 26.1624C23.7097 26.4132 23.3336 26.4132 22.9574 26.1624C21.1591 24.2578 19.4039 22.3142 17.6919 20.3317C17.6919 19.3285 17.6919 18.3254 17.6919 17.3223Z"
        fill="#D672A5" />
    <path fill-rule="evenodd" clip-rule="evenodd"
        d="M17.6919 20.332C19.4039 22.3146 21.1591 24.2582 22.9574 26.1628C23.3336 26.4136 23.7097 26.4136 24.0858 26.1628C24.9088 25.494 25.7864 24.9298 26.7186 24.47C26.9976 25.1658 27.3737 25.4166 27.8469 25.2223C25.975 27.5958 23.593 29.2259 20.7008 30.1126C20.536 30.1372 20.4106 30.0745 20.3247 29.9245C22.2961 29.2432 22.1707 28.867 19.9486 28.796C20.3247 28.6706 20.7008 28.5452 21.0769 28.4198C20.0076 27.2875 18.8793 26.2217 17.6919 25.2223C17.6919 23.5922 17.6919 21.9621 17.6919 20.332Z"
        fill="#D183B5" />
    <path fill-rule="evenodd" clip-rule="evenodd"
        d="M14.6831 22.9648C14.5046 23.9362 14.7553 24.6885 15.4353 25.2219C15.5931 25.8214 15.8438 26.3856 16.1875 26.9147C15.5345 28.2127 15.9106 29.0904 17.3158 29.5479C16.7943 30.181 16.1675 30.6199 15.4353 30.8645C12.8655 30.9149 10.6088 30.1626 8.66528 28.6075C11.5809 29.2664 11.8317 28.9529 9.41751 27.667C10.5413 27.5853 11.5443 27.2092 12.4264 26.5385C12.7695 25.6025 12.3934 24.9756 11.2981 24.6576C12.2905 23.5516 13.4188 22.9873 14.6831 22.9648Z"
        fill="#9D9EB6" />
    <path fill-rule="evenodd" clip-rule="evenodd"
        d="M15.4353 25.2227C16.1875 25.2227 16.9397 25.2227 17.692 25.2227C18.8794 26.222 20.0077 27.2879 21.077 28.4201C20.7009 28.5455 20.3247 28.6709 19.9486 28.7963C22.1708 28.8673 22.2962 29.2435 20.3247 29.9249C20.4107 30.0749 20.536 30.1375 20.7009 30.1129C19.0387 30.6665 17.2836 30.9173 15.4353 30.8653C16.1675 30.6206 16.7943 30.1818 17.3159 29.5487C15.9106 29.0912 15.5345 28.2134 16.1875 26.9154C15.8438 26.3864 15.5931 25.8221 15.4353 25.2227Z"
        fill="#B895B8" />
</svg>