<svg width="32" height="32" viewBox="0 0 33 33" fill="none" xmlns="http://www.w3.org/2000/svg">
    <path
        d="M29.395 0.962891H4.5308C2.5603 0.962891 0.962891 2.5603 0.962891 4.5308V29.395C0.962891 31.3655 2.5603 32.9629 4.5308 32.9629H29.395C31.3655 32.9629 32.9629 31.3655 32.9629 29.395V4.5308C32.9629 2.5603 31.3655 0.962891 29.395 0.962891Z"
        fill="#7A52FF" />
    <path
        d="M28.5452 15.6512L24.2416 10.0266C24.0314 9.75192 23.6121 9.75192 23.4019 10.0244L21.0842 13.0255C20.9409 13.2111 20.943 13.4687 21.0897 13.6532L23.1972 16.2981C23.4982 16.6758 23.4982 17.2885 23.1972 17.6662L21.0656 20.3422C20.919 20.5267 20.9167 20.7843 21.0602 20.9699L23.3703 23.9603C23.5805 24.2328 23.9997 24.2328 24.21 23.9581L28.5453 18.2917C29.1015 17.5652 29.1015 16.3774 28.5453 15.6511L28.5452 15.6512Z"
        fill="white" />
    <path
        d="M23.2412 8.80481C23.2407 8.80429 23.2396 8.80326 23.2391 8.80274C23.0123 8.5471 22.7593 8.39697 22.4875 8.39697H18.0731C17.9562 8.39697 17.8382 8.42162 17.7257 8.47083C17.6175 8.51796 17.5069 8.58126 17.4187 8.68071C15.0826 11.3129 5.07054 24.7041 5.07054 24.7041C4.88366 24.9461 4.95578 25.2748 5.17432 25.4333C5.17432 25.4341 5.17469 25.4341 5.17544 25.4333C5.25414 25.4922 5.35238 25.5276 5.46385 25.5286H9.8484C9.97855 25.5286 10.1088 25.4986 10.2313 25.4375C10.2325 25.4385 10.2335 25.4375 10.2346 25.4364C10.2379 25.4353 10.2412 25.4343 10.2445 25.4321C10.355 25.3838 10.4611 25.312 10.5563 25.2155L10.5607 25.2111C10.599 25.1736 10.6351 25.1318 10.6701 25.0878L22.6486 9.56446C22.8596 9.30069 23.1315 9.16777 23.4039 9.16777H23.5269C23.5269 9.16777 23.3185 8.89077 23.2413 8.80464L23.2412 8.80481Z"
        fill="white" />
    <path
        d="M23.301 24.7576C23.0356 24.7576 22.7702 24.628 22.5656 24.371L20.9362 22.2691L17.9397 18.3895C17.9205 18.3645 17.8924 18.33 17.8742 18.3063C17.6555 18.0231 17.1982 18.0236 16.9749 18.3115L14.8782 21.0151C14.6926 21.2545 14.6896 21.5526 14.9171 21.8494L17.4197 25.1212C17.6275 25.3927 17.9004 25.5286 18.1732 25.5286C18.1732 25.5286 22.4558 25.5286 22.458 25.5286C22.5093 25.5265 22.5613 25.515 22.6115 25.5004C22.8065 25.4471 22.992 25.3218 23.1433 25.1243L23.4322 24.7576H23.3011H23.301Z"
        fill="white" />
</svg>