<svg width="32" height="32" viewBox="0 0 32 32" fill="none" xmlns="http://www.w3.org/2000/svg">
    <g clip-path="url(#clip0_4435_84)">
        <path
            d="M4.82878 11.1376C6.03875 11.1376 7.01962 10.1602 7.01962 8.95455C7.01962 7.74888 6.03875 6.77148 4.82878 6.77148C3.61881 6.77148 2.63794 7.74888 2.63794 8.95455C2.63794 10.1602 3.61881 11.1376 4.82878 11.1376Z"
            fill="#22C1C5" />
        <path
            d="M7.48443 28.0072L12.4636 27.2133C13.1275 27.1472 13.725 27.2133 14.2561 27.4779C14.7872 27.7425 15.1192 28.1395 15.1192 28.6687V28.8672C15.1856 29.3964 14.9864 29.8595 14.5217 30.3225C14.0569 30.7856 13.5258 31.0502 12.8619 31.1825L7.94915 31.9764C7.28526 32.0425 6.68776 31.9764 6.15665 31.7118C5.62553 31.4471 5.29359 31.0502 5.29359 30.521V30.3225C5.2272 29.7933 5.42636 29.3302 5.8247 28.8672C6.22303 28.4041 6.75415 28.1395 7.48443 28.0072Z"
            fill="#006BFD" />
        <path
            d="M6.82036 22.7811L11.7995 21.9872C12.4634 21.9211 13.0609 21.9872 13.5921 22.2519C14.1232 22.5165 14.4551 22.9134 14.4551 23.4426V23.6411C14.5215 24.1703 14.3223 24.6334 13.8576 25.0965C13.3929 25.5595 12.8618 25.8242 12.1979 25.9565L7.28509 26.7503C6.6212 26.8165 6.0237 26.7503 5.49258 26.4857C4.96147 26.2211 4.62952 25.8242 4.62952 25.2949V25.0965C4.56314 24.5672 4.7623 24.1042 5.16064 23.6411C5.55897 23.1119 6.15647 22.8472 6.82036 22.7811Z"
            fill="#006BFD" />
        <path
            d="M6.22295 17.4884L19.8327 15.3715C20.4966 15.3054 21.0941 15.3715 21.6252 15.6361C22.1563 15.9007 22.4883 16.2977 22.4883 16.8269V17.0254C22.5547 17.5546 22.3555 18.0177 21.9572 18.4807C21.4924 18.9438 20.9613 19.2084 20.2974 19.3407L6.68768 21.4577C6.02379 21.5238 5.42628 21.4577 4.89517 21.193C4.36406 20.9284 4.03211 20.5315 4.03211 20.0023V19.8038C3.96572 19.2746 4.16489 18.8115 4.56323 18.3484C4.96156 17.8854 5.49267 17.6207 6.22295 17.4884Z"
            fill="#C643CA" />
        <path
            d="M5.49273 12.2624L27.9986 8.75628C28.6625 8.69013 29.26 8.75628 29.7911 9.0209C30.3223 9.28551 30.6542 9.68243 30.6542 10.2117V10.4101C30.7206 10.9394 30.5214 11.4024 30.1231 11.8655C29.6584 12.3286 29.1272 12.5932 28.4634 12.7255L5.95745 16.2316C5.29356 16.2978 4.69606 16.2316 4.16495 15.967C3.63383 15.7024 3.30189 15.3055 3.30189 14.7763V14.5778C3.2355 14.0486 3.43467 13.5855 3.833 13.1224C4.23133 12.5932 4.82884 12.3286 5.49273 12.2624Z"
            fill="#C643CA" />
        <path
            d="M14.4552 5.44865L27.4675 3.39788C28.1314 3.33173 28.7289 3.39788 29.26 3.6625C29.7911 3.92711 30.1231 4.32403 30.1231 4.85326V5.05172C30.1895 5.58095 29.9903 6.04403 29.592 6.50711C29.1272 6.97018 28.5961 7.2348 27.9322 7.3671L14.92 9.41787C14.2561 9.48402 13.6586 9.41787 13.1275 9.15325C12.5963 8.88864 12.2644 8.49171 12.2644 7.96249V7.76402C12.198 7.2348 12.3972 6.77172 12.8619 6.30864C13.1938 5.84557 13.725 5.58095 14.4552 5.44865Z"
            fill="#22C1C5" />
        <path
            d="M4.23122 1.74386L15.1854 0.0238603C15.8493 -0.0422934 16.4468 0.0238602 16.9779 0.288475C17.509 0.553089 17.841 0.950011 17.841 1.47924V1.6777C17.9074 2.20693 17.7082 2.67001 17.2435 3.13308C16.7788 3.59616 16.2477 3.86077 15.5838 3.99308L4.69595 5.71307C4.03205 5.77923 3.43455 5.71307 2.90344 5.44846C2.37233 5.18385 2.04038 4.78692 2.04038 4.25769V4.05923C1.9076 3.46385 2.10677 3.00077 2.57149 2.5377C2.96983 2.14078 3.56733 1.81001 4.23122 1.74386Z"
            fill="#22C1C5" />
    </g>
    <defs>
        <clipPath id="clip0_4435_84">
            <rect width="32" height="32" fill="white" />
        </clipPath>
    </defs>
</svg>