<svg width="32" height="32" viewBox="0 0 32 32" fill="none" xmlns="http://www.w3.org/2000/svg">
    <g clip-path="url(#clip0_4541_168)">
        <rect width="32" height="32" fill="#FAFAFA" />
        <path fill-rule="evenodd" clip-rule="evenodd"
            d="M-0.0200195 10.2598C10.6467 10.2598 21.3133 10.2598 31.98 10.2598C31.98 14.0864 31.98 17.9131 31.98 21.7398C21.3133 21.7398 10.6467 21.7398 -0.0200195 21.7398C-0.0200195 17.9131 -0.0200195 14.0864 -0.0200195 10.2598Z"
            fill="#FEFEFE" />
        <path fill-rule="evenodd" clip-rule="evenodd"
            d="M21.5401 10.6599C21.6804 10.6396 21.8071 10.6663 21.9201 10.7399C21.9567 11.5935 21.6034 12.2268 20.8601 12.6399C20.8084 12.6595 20.755 12.6661 20.7001 12.6599C20.7115 12.3665 20.7782 12.0865 20.9001 11.8199C20.8868 11.8065 20.8734 11.7932 20.8601 11.7799C20.6585 12.0097 20.5319 12.2764 20.4801 12.5799C20.1995 11.5805 20.5529 10.9405 21.5401 10.6599Z"
            fill="#95C64C" />
        <path fill-rule="evenodd" clip-rule="evenodd"
            d="M17.5399 11.2999C18.6557 11.1355 19.529 11.5088 20.1599 12.4199C20.3085 12.6711 20.3685 12.9378 20.3399 13.2199C20.0169 12.7173 19.5702 12.3706 18.9999 12.1799C18.931 12.1844 18.9244 12.2044 18.9799 12.2399C19.4542 12.5009 19.8209 12.8676 20.0799 13.3399C20.1111 13.3977 20.1045 13.451 20.0599 13.4999C18.8556 13.534 17.9689 13.014 17.3999 11.9399C17.3174 11.7599 17.2774 11.5732 17.2799 11.3799C17.371 11.3552 17.4577 11.3286 17.5399 11.2999Z"
            fill="#94C64A" />
        <path fill-rule="evenodd" clip-rule="evenodd"
            d="M23.7399 12.2598C23.6341 12.3322 23.5141 12.3722 23.3799 12.3798C23.4832 12.3009 23.6032 12.2609 23.7399 12.2598Z"
            fill="#5D5A5B" />
        <path fill-rule="evenodd" clip-rule="evenodd"
            d="M24.14 13.9C24.1008 14.025 24.0875 14.1583 24.1 14.3C24.5061 14.3397 24.9194 14.3531 25.34 14.34C25.34 14.74 25.34 15.14 25.34 15.54C24.9327 15.5269 24.5327 15.5402 24.14 15.58C24.1001 16.9331 24.0867 18.2931 24.1 19.66C23.6067 19.66 23.1133 19.66 22.62 19.66C22.6333 18.2931 22.6199 16.9331 22.58 15.58C22.3878 15.5405 22.1878 15.5271 21.98 15.54C21.98 15.1267 21.98 14.7133 21.98 14.3C22.1878 14.3128 22.3878 14.2995 22.58 14.26C22.567 13.9858 22.5803 13.7191 22.62 13.46C22.6911 13.3398 22.7311 13.2065 22.74 13.06C22.871 12.7556 23.0844 12.5289 23.38 12.38C23.5142 12.3724 23.6342 12.3324 23.74 12.26C24.2859 12.1924 24.8326 12.2191 25.38 12.34C25.38 12.7666 25.38 13.1933 25.38 13.62C25.2311 13.5993 25.0845 13.566 24.94 13.52C24.6591 13.4541 24.4124 13.5141 24.2 13.7C24.1596 13.761 24.1396 13.8276 24.14 13.9Z"
            fill="#231F20" />
        <path fill-rule="evenodd" clip-rule="evenodd"
            d="M22.7401 13.0601C22.7312 13.2065 22.6912 13.3399 22.6201 13.4601C22.629 13.3136 22.669 13.1802 22.7401 13.0601Z"
            fill="#5D595A" />
        <path fill-rule="evenodd" clip-rule="evenodd"
            d="M3.81999 14.0602C3.45926 14.0581 3.09926 14.0715 2.73999 14.1002C2.94321 14.0396 3.15654 14.0129 3.37999 14.0202C3.53396 14.0203 3.68063 14.0336 3.81999 14.0602Z"
            fill="#6E6C6C" />
        <path fill-rule="evenodd" clip-rule="evenodd"
            d="M3.82012 14.0598C4.6324 14.1425 5.2924 14.5025 5.80012 15.1398C5.92228 15.3307 6.02228 15.5307 6.10012 15.7398C6.10904 15.8863 6.14904 16.0196 6.22012 16.1398C6.29296 16.5207 6.31964 16.9073 6.30012 17.2998C6.26296 17.7711 6.12964 18.2111 5.90012 18.6198C5.84388 18.6387 5.8172 18.6787 5.82012 18.7398C5.21028 19.5654 4.39692 19.8987 3.38012 19.7398C3.2308 19.6633 3.0708 19.61 2.90012 19.5798C2.88119 19.5235 2.84119 19.4969 2.78012 19.4998C2.57125 19.3846 2.38459 19.2379 2.22012 19.0598C2.21772 19.0381 2.20439 19.0247 2.18012 19.0198C2.14013 19.766 2.1268 20.5126 2.14012 21.2598C1.63345 21.2598 1.12679 21.2598 0.620117 21.2598C0.620117 19.6598 0.620117 18.0598 0.620117 16.4598C0.621489 16.2946 0.648157 16.1346 0.700117 15.9798C0.757069 15.8992 0.783737 15.8059 0.780117 15.6998C0.802313 15.5959 0.842313 15.5026 0.900117 15.4198C0.956369 15.4009 0.983037 15.3609 0.980117 15.2998C1.22422 14.8957 1.55755 14.589 1.98012 14.3798C2.07881 14.3696 2.15881 14.3296 2.22012 14.2598C2.35432 14.2522 2.47432 14.2122 2.58012 14.1398C2.62282 14.1024 2.67616 14.0891 2.74012 14.0998C3.09939 14.071 3.45939 14.0577 3.82012 14.0598Z"
            fill="#242021" />
        <path fill-rule="evenodd" clip-rule="evenodd"
            d="M9.97998 14.14C10.186 14.0939 10.3993 14.0873 10.62 14.12C10.6566 14.1311 10.6833 14.1511 10.7 14.18C10.4618 14.1454 10.2218 14.1321 9.97998 14.14Z"
            fill="#D7D6D6" />
        <path fill-rule="evenodd" clip-rule="evenodd"
            d="M2.57997 14.1401C2.47417 14.2126 2.35417 14.2526 2.21997 14.2601C2.32331 14.1812 2.44331 14.1412 2.57997 14.1401Z"
            fill="#6E6A6B" />
        <path fill-rule="evenodd" clip-rule="evenodd"
            d="M10.8999 14.2202C10.9958 14.2106 11.0758 14.2372 11.1399 14.3002C11.0485 14.2964 10.9685 14.2697 10.8999 14.2202Z"
            fill="#A1A0A1" />
        <path fill-rule="evenodd" clip-rule="evenodd"
            d="M15.54 14.18C15.4828 14.2215 15.4161 14.2482 15.34 14.26C15.3133 14.26 15.2867 14.26 15.26 14.26C15.3406 14.2031 15.4339 14.1764 15.54 14.18Z"
            fill="#858384" />
        <path fill-rule="evenodd" clip-rule="evenodd"
            d="M15.54 14.1801C15.9413 14.1709 16.3413 14.1842 16.74 14.2201C16.8486 14.2829 16.9686 14.3229 17.1 14.3401C17.1572 14.3815 17.2239 14.4082 17.3 14.4201C17.5649 14.5124 17.8049 14.6457 18.02 14.8201C17.8253 15.155 17.6387 15.495 17.46 15.8401C17.0643 15.619 16.6376 15.459 16.18 15.3601C15.8838 15.282 15.6372 15.3553 15.44 15.5801C15.3935 15.7739 15.4535 15.9272 15.62 16.0401C15.785 16.1359 15.9583 16.2093 16.14 16.2601C16.3001 16.3445 16.4734 16.3978 16.66 16.4201C16.7404 16.4827 16.8337 16.5227 16.94 16.5401C17.2453 16.666 17.5253 16.8327 17.78 17.0401C17.9225 17.1853 18.0291 17.3519 18.1 17.5401C18.1328 17.7919 18.1461 18.0453 18.14 18.3001C18.0385 19.015 17.6385 19.4683 16.94 19.6601C16.8441 19.6504 16.7641 19.6771 16.7 19.7401C16.1806 19.8147 15.6739 19.788 15.18 19.6601C15.0598 19.589 14.9265 19.549 14.78 19.5401C14.4586 19.4393 14.1652 19.286 13.9 19.0801C13.8441 19.0376 13.8041 18.9843 13.78 18.9201C13.9697 18.594 14.1697 18.274 14.38 17.9601C14.5861 18.0769 14.7994 18.1969 15.02 18.3201C15.2753 18.4385 15.542 18.5119 15.82 18.5401C15.9057 18.5666 15.999 18.5799 16.1 18.5801C16.2457 18.5875 16.379 18.5608 16.5 18.5001C16.7125 18.4276 16.7992 18.2809 16.76 18.0601C16.6766 17.9563 16.5766 17.8763 16.46 17.8201C16.3753 17.7339 16.2687 17.6939 16.14 17.7001C16.0759 17.6371 15.9959 17.6104 15.9 17.6201C15.8102 17.5819 15.7169 17.5552 15.62 17.5401C15.5559 17.4771 15.4759 17.4504 15.38 17.4601C14.8109 17.3038 14.3843 16.9705 14.1 16.4601C14.1036 16.354 14.077 16.2607 14.02 16.1801C13.9639 15.6621 14.0905 15.1955 14.4 14.7801C14.5316 14.6581 14.6716 14.5515 14.82 14.4601C14.8811 14.463 14.9211 14.4363 14.94 14.3801C15.0609 14.3679 15.1809 14.3479 15.3 14.3201C15.3223 14.3047 15.3356 14.2847 15.34 14.2601C15.4161 14.2482 15.4828 14.2216 15.54 14.1801Z"
            fill="#242021" />
        <path fill-rule="evenodd" clip-rule="evenodd"
            d="M16.74 14.2202C16.8766 14.2213 16.9966 14.2613 17.1 14.3402C16.9686 14.3231 16.8486 14.2831 16.74 14.2202Z"
            fill="#B2B1B1" />
        <path fill-rule="evenodd" clip-rule="evenodd"
            d="M27.34 14.26C26.7996 14.2468 26.2662 14.2602 25.74 14.3C25.7182 14.2976 25.7049 14.2843 25.7 14.26C26.2531 14.207 26.7997 14.207 27.34 14.26Z"
            fill="#807E7F" />
        <path fill-rule="evenodd" clip-rule="evenodd"
            d="M29.74 14.26C30.2802 14.207 30.8269 14.207 31.38 14.26C31.375 14.2843 31.3617 14.2976 31.34 14.3C30.8138 14.2602 30.2804 14.2468 29.74 14.26Z"
            fill="#817F80" />
        <path fill-rule="evenodd" clip-rule="evenodd"
            d="M9.38006 14.2199C9.28262 14.2747 9.17594 14.3147 9.06006 14.3399C9.14474 14.2537 9.25142 14.2137 9.38006 14.2199Z"
            fill="#737071" />
        <path fill-rule="evenodd" clip-rule="evenodd"
            d="M9.97993 14.1402C10.2217 14.1323 10.4617 14.1456 10.6999 14.1802C10.7567 14.2182 10.8233 14.2316 10.8999 14.2202C10.9685 14.2697 11.0485 14.2964 11.1399 14.3002C11.1971 14.3417 11.2638 14.3683 11.3399 14.3802C11.4551 14.4444 11.5751 14.4977 11.6999 14.5402C11.7189 14.5964 11.7589 14.6231 11.8199 14.6202C12.1701 14.8636 12.4501 15.1703 12.6599 15.5402C12.8655 16.0879 12.9855 16.6612 13.0199 17.2602C13.0199 17.3269 13.0199 17.3935 13.0199 17.4602C13.0199 17.5002 13.0199 17.5402 13.0199 17.5802C12.963 17.6608 12.9363 17.7541 12.9399 17.8602C12.8148 18.137 12.6681 18.4037 12.4999 18.6602C12.4437 18.6791 12.417 18.7191 12.4199 18.7802C12.1329 19.0676 11.8129 19.3076 11.4599 19.5002C11.3613 19.5104 11.2813 19.5504 11.2199 19.6202C11.1933 19.6202 11.1666 19.6202 11.1399 19.6202C11.0647 19.6093 11.0114 19.636 10.9799 19.7002C10.4906 19.7794 9.99721 19.7994 9.49993 19.7602C9.43761 19.7518 9.38429 19.7318 9.33993 19.7002C9.19061 19.6237 9.03061 19.5704 8.85993 19.5402C8.15165 19.2452 7.65833 18.7385 7.37993 18.0202C7.36809 17.9441 7.34141 17.8774 7.29993 17.8202C7.22281 17.5406 7.18281 17.2539 7.17993 16.9602C7.18805 16.7228 7.21473 16.4895 7.25993 16.2602C7.32289 16.1961 7.34957 16.1161 7.33993 16.0202C7.57077 15.3981 7.97077 14.9181 8.53993 14.5802C8.60101 14.5831 8.64101 14.5564 8.65993 14.5002C8.77353 14.4036 8.90685 14.3503 9.05993 14.3402C9.17581 14.315 9.28249 14.275 9.37993 14.2202C9.56929 14.1544 9.76929 14.1277 9.97993 14.1402Z"
            fill="#242021" />
        <path fill-rule="evenodd" clip-rule="evenodd"
            d="M20.9001 14.2202C20.9467 16.0401 20.9534 17.8668 20.9201 19.7002C20.3895 19.7534 19.8628 19.7534 19.3401 19.7002C19.8538 19.7134 20.3605 19.7 20.8601 19.6602C20.9 17.8537 20.9134 16.0403 20.9001 14.2202Z"
            fill="#ECECEC" />
        <path fill-rule="evenodd" clip-rule="evenodd"
            d="M24.14 13.8999C24.14 14.0199 24.14 14.1399 24.14 14.2599C24.5606 14.2468 24.9739 14.2601 25.38 14.2999C24.9533 14.2999 24.5267 14.2999 24.1 14.2999C24.0875 14.1582 24.1008 14.0249 24.14 13.8999Z"
            fill="#BFBEBE" />
        <path fill-rule="evenodd" clip-rule="evenodd"
            d="M11.1399 14.3C11.2278 14.2848 11.2945 14.3115 11.3399 14.38C11.2638 14.3682 11.1971 14.3415 11.1399 14.3Z"
            fill="#A09F9F" />
        <path fill-rule="evenodd" clip-rule="evenodd"
            d="M15.2599 14.2598C15.2866 14.2598 15.3133 14.2598 15.3399 14.2598C15.3355 14.2844 15.3222 14.3044 15.2999 14.3198C15.1808 14.3476 15.0608 14.3676 14.9399 14.3798C15.0355 14.319 15.1422 14.279 15.2599 14.2598Z"
            fill="#413D3E" />
        <path fill-rule="evenodd" clip-rule="evenodd"
            d="M19.3401 14.2602C19.853 14.2204 20.373 14.2071 20.9001 14.2202C20.9134 16.0404 20.9 17.8537 20.8601 19.6602C20.8734 17.8534 20.86 16.0534 20.8201 14.2602C20.3401 14.2602 19.8601 14.2602 19.3801 14.2602C19.3668 14.2602 19.3534 14.2602 19.3401 14.2602Z"
            fill="#878585" />
        <path fill-rule="evenodd" clip-rule="evenodd"
            d="M27.34 14.2598C27.499 14.7232 27.659 15.1899 27.82 15.6598C27.8104 15.7557 27.837 15.8357 27.9 15.8998C27.965 16.0519 28.0183 16.2119 28.06 16.3798C28.1928 16.8782 28.3461 17.3715 28.52 17.8598C28.5468 17.8899 28.5802 17.9032 28.62 17.8998C28.5773 17.9371 28.524 17.9505 28.46 17.9398C28.0494 16.7615 27.6628 15.5748 27.3 14.3798C26.8198 14.3731 26.3398 14.3798 25.86 14.3998C25.9235 14.5471 25.9701 14.7004 26 14.8598C26.0262 14.8119 26.0462 14.8119 26.06 14.8598C26.0164 14.9041 26.0164 14.9441 26.06 14.9798C26.0877 14.9588 26.1077 14.9321 26.12 14.8998C26.1358 14.9669 26.1291 15.0336 26.1 15.0998C26.1268 15.2009 26.1601 15.2009 26.2 15.0998C26.1967 15.2045 26.19 15.3112 26.18 15.4198C26.0125 15.0575 25.8658 14.6842 25.74 14.2998C26.2662 14.26 26.7996 14.2466 27.34 14.2598Z"
            fill="#292526" />
        <path fill-rule="evenodd" clip-rule="evenodd"
            d="M2.21998 14.2598C2.15868 14.3296 2.07868 14.3696 1.97998 14.3798C2.04128 14.31 2.12128 14.27 2.21998 14.2598Z"
            fill="#636161" />
        <path fill-rule="evenodd" clip-rule="evenodd"
            d="M17.1001 14.3401C17.188 14.3249 17.2547 14.3516 17.3001 14.4201C17.224 14.4082 17.1573 14.3816 17.1001 14.3401Z"
            fill="#9F9E9E" />
        <path fill-rule="evenodd" clip-rule="evenodd"
            d="M19.3401 14.2598C19.3534 14.2598 19.3668 14.2598 19.3801 14.2598C19.3801 16.0464 19.3801 17.8331 19.3801 19.6198C19.8601 19.6198 20.3401 19.6198 20.8201 19.6198C20.8201 17.8331 20.8201 16.0464 20.8201 14.2598C20.86 16.053 20.8734 17.853 20.8601 19.6598C20.3605 19.6996 19.8538 19.7129 19.3401 19.6998C19.3401 17.8864 19.3401 16.0731 19.3401 14.2598Z"
            fill="#3D3A3A" />
        <path fill-rule="evenodd" clip-rule="evenodd"
            d="M19.3799 14.2598C19.8599 14.2598 20.3399 14.2598 20.8199 14.2598C20.8199 16.0464 20.8199 17.8331 20.8199 19.6198C20.3399 19.6198 19.8599 19.6198 19.3799 19.6198C19.3799 17.8331 19.3799 16.0464 19.3799 14.2598Z"
            fill="#221E1F" />
        <path fill-rule="evenodd" clip-rule="evenodd"
            d="M29.7401 14.2598C30.2805 14.2466 30.8139 14.26 31.3401 14.2998C31.347 14.3395 31.3336 14.3661 31.3001 14.3798C31.2331 14.4071 31.2064 14.4605 31.2201 14.5398C31.1551 14.5342 31.1085 14.5609 31.0801 14.6198C30.914 15.1755 30.7273 15.6821 30.5201 16.1398C30.5002 16.2456 30.4935 16.3523 30.5001 16.4598C30.458 16.4538 30.418 16.4605 30.3801 16.4798C30.4115 16.5415 30.4115 16.6082 30.3801 16.6798C30.3729 16.7694 30.3396 16.7894 30.2801 16.7398C30.2943 16.8617 30.2677 16.9817 30.2001 17.0998C30.1739 17.0519 30.1539 17.0519 30.1401 17.0998C30.1534 17.1265 30.1668 17.1531 30.1801 17.1798C30.1213 17.2921 30.088 17.4121 30.0801 17.5398C30.0504 17.454 30.0171 17.4473 29.9801 17.5198C29.9874 17.6568 29.9874 17.7834 29.9801 17.8998C29.9639 18.0284 29.9239 18.1484 29.8601 18.2598C29.8186 18.317 29.7919 18.3837 29.7801 18.4598C29.7778 18.5041 29.7645 18.5441 29.7401 18.5798C29.6986 18.637 29.6719 18.7037 29.6601 18.7798C29.6601 18.7931 29.6601 18.8065 29.6601 18.8198C29.5975 18.9001 29.5575 18.9935 29.5401 19.0998C29.4986 19.157 29.4719 19.2237 29.4601 19.2998C29.4256 19.3766 29.3989 19.4566 29.3801 19.5398C29.3386 19.597 29.3119 19.6637 29.3001 19.7398C29.3001 19.7531 29.3001 19.7665 29.3001 19.7798C29.2375 19.8601 29.1975 19.9535 29.1801 20.0598C28.9769 20.6429 28.5902 21.0496 28.0201 21.2798C27.9277 21.2997 27.8344 21.3063 27.7401 21.2998C27.2853 21.3186 26.8453 21.252 26.4201 21.0998C26.4167 21.0599 26.43 21.0266 26.4601 20.9998C26.3861 20.9561 26.3195 20.9027 26.2601 20.8398C26.2667 20.7951 26.28 20.7484 26.3001 20.6998C26.3331 20.6643 26.3731 20.651 26.4201 20.6598C26.4269 20.6069 26.4136 20.5602 26.3801 20.5198C26.418 20.5005 26.458 20.4938 26.5001 20.4998C26.5229 20.3807 26.5629 20.2674 26.6201 20.1598C26.5693 20.1641 26.5293 20.1575 26.5001 20.1398C26.5402 20.0328 26.6002 19.9395 26.6801 19.8598C26.9479 20.0077 27.2345 20.0544 27.5401 19.9998C27.6565 19.9435 27.7365 19.8569 27.7801 19.7398C27.8348 19.6393 27.8215 19.546 27.7401 19.4598C27.7401 19.4465 27.7401 19.4331 27.7401 19.4198C27.7344 19.3493 27.7477 19.2826 27.7801 19.2198C27.7471 19.1843 27.7071 19.171 27.6601 19.1798C27.658 19.0742 27.6313 18.9742 27.5801 18.8798C27.5835 18.8355 27.5969 18.7955 27.6201 18.7598C27.5182 18.7071 27.4916 18.6338 27.5401 18.5398C27.4925 18.5436 27.4391 18.5303 27.3801 18.4998C27.2929 18.271 27.1995 18.0443 27.1001 17.8198C27.0827 17.7135 27.0427 17.6201 26.9801 17.5398C26.8978 17.2819 26.8045 17.0286 26.7001 16.7798C26.6883 16.7037 26.6616 16.637 26.6201 16.5798C26.6027 16.4735 26.5627 16.3801 26.5001 16.2998C26.5001 16.2865 26.5001 16.2731 26.5001 16.2598C26.4883 16.1837 26.4616 16.117 26.4201 16.0598C26.4027 15.9535 26.3627 15.8601 26.3001 15.7798C26.2539 15.6617 26.2139 15.5417 26.1801 15.4198C26.1901 15.3112 26.1968 15.2045 26.2001 15.0998C26.1602 15.2009 26.1269 15.2009 26.1001 15.0998C26.1292 15.0336 26.1359 14.9669 26.1201 14.8998C26.1078 14.9321 26.0878 14.9588 26.0601 14.9798C26.0165 14.9441 26.0165 14.9041 26.0601 14.8598C26.0463 14.8119 26.0263 14.8119 26.0001 14.8598C25.9702 14.7004 25.9236 14.5471 25.8601 14.3998C26.3399 14.3798 26.8199 14.3731 27.3001 14.3798C27.6629 15.5748 28.0495 16.7615 28.4601 17.9398C28.5241 17.9505 28.5774 17.9371 28.6201 17.8998C28.6448 17.9042 28.6648 17.9175 28.6801 17.9398C28.7379 17.7395 28.8113 17.5462 28.9001 17.3598C28.8643 17.236 28.8643 17.1093 28.9001 16.9798C28.9712 16.8596 29.0112 16.7263 29.0201 16.5798C29.1311 16.3398 29.2111 16.0865 29.2601 15.8198C29.3711 15.5798 29.4511 15.3265 29.5001 15.0598C29.5571 14.9792 29.5837 14.8859 29.5801 14.7798C29.6371 14.6992 29.6637 14.6059 29.6601 14.4998C29.7071 14.4592 29.7337 14.4059 29.7401 14.3398C29.7401 14.3131 29.7401 14.2865 29.7401 14.2598Z"
            fill="#231F20" />
        <path fill-rule="evenodd" clip-rule="evenodd"
            d="M14.9401 14.3801C14.9211 14.4363 14.8811 14.463 14.8201 14.4601C14.839 14.4039 14.879 14.3772 14.9401 14.3801Z"
            fill="#6C696A" />
        <path fill-rule="evenodd" clip-rule="evenodd"
            d="M29.7401 14.3398C29.7337 14.406 29.707 14.4593 29.6601 14.4998C29.6492 14.4246 29.6759 14.3713 29.7401 14.3398Z"
            fill="#A19FA0" />
        <path fill-rule="evenodd" clip-rule="evenodd"
            d="M22.5799 14.2598C22.3877 14.2992 22.1877 14.3126 21.9799 14.2998C21.9799 14.7131 21.9799 15.1264 21.9799 15.5398C22.1877 15.5269 22.3877 15.5403 22.5799 15.5798C22.3666 15.5798 22.1533 15.5798 21.9399 15.5798C21.9399 15.1398 21.9399 14.6998 21.9399 14.2598C22.1533 14.2598 22.3666 14.2598 22.5799 14.2598Z"
            fill="#7B7979" />
        <path fill-rule="evenodd" clip-rule="evenodd"
            d="M8.66004 14.5002C8.64112 14.5565 8.60112 14.5831 8.54004 14.5802C8.55896 14.524 8.59896 14.4973 8.66004 14.5002Z"
            fill="#626060" />
        <path fill-rule="evenodd" clip-rule="evenodd"
            d="M11.7 14.5398C11.761 14.5368 11.801 14.5635 11.82 14.6198C11.7589 14.6227 11.7189 14.596 11.7 14.5398Z"
            fill="#A5A4A4" />
        <path fill-rule="evenodd" clip-rule="evenodd"
            d="M29.5801 14.7798C29.5837 14.8859 29.557 14.9792 29.5001 15.0598C29.4965 14.9537 29.5231 14.8604 29.5801 14.7798Z"
            fill="#7E7C7D" />
        <path fill-rule="evenodd" clip-rule="evenodd"
            d="M29.5 15.0601C29.451 15.3267 29.371 15.5801 29.26 15.8201C29.309 15.5534 29.389 15.3 29.5 15.0601Z"
            fill="#6E6B6C" />
        <path fill-rule="evenodd" clip-rule="evenodd"
            d="M31.06 15.0601C31.0752 15.148 31.0485 15.2147 30.98 15.2601C30.9918 15.1839 31.0185 15.1173 31.06 15.0601Z"
            fill="#AAA9A9" />
        <path fill-rule="evenodd" clip-rule="evenodd"
            d="M0.980118 15.2998C0.983038 15.3609 0.95637 15.4009 0.900118 15.4198C0.897198 15.3587 0.923866 15.3187 0.980118 15.2998Z"
            fill="#7B7979" />
        <path fill-rule="evenodd" clip-rule="evenodd"
            d="M3.81997 18.3799C3.52299 18.439 3.22966 18.4256 2.93997 18.3399C2.60717 18.2004 2.37384 17.9604 2.23997 17.6199C2.20089 17.5303 2.18089 17.437 2.17997 17.3399C2.16153 16.9875 2.1882 16.6408 2.25997 16.2999C2.60069 15.5298 3.17403 15.2832 3.97997 15.5599C4.65673 16.0028 4.90341 16.6228 4.71997 17.4199C4.58861 17.9044 4.28861 18.2244 3.81997 18.3799Z"
            fill="#FCFCFC" />
        <path fill-rule="evenodd" clip-rule="evenodd"
            d="M10.5401 18.3799C10.3015 18.4122 10.0615 18.4255 9.82008 18.4199C9.756 18.3569 9.676 18.3303 9.58008 18.3399C9.122 18.1353 8.842 17.7887 8.74008 17.2999C8.72464 16.9751 8.75132 16.6551 8.82008 16.3399C9.18664 15.5573 9.78664 15.2973 10.6201 15.5599C11.4223 15.9919 11.6957 16.6519 11.4401 17.5399C11.2856 17.9813 10.9856 18.2613 10.5401 18.3799Z"
            fill="#FCFCFC" />
        <path fill-rule="evenodd" clip-rule="evenodd"
            d="M24.1001 14.2998C24.5268 14.2998 24.9534 14.2998 25.3801 14.2998C25.3801 14.7265 25.3801 15.1531 25.3801 15.5798C24.9668 15.5798 24.5534 15.5798 24.1401 15.5798C24.5329 15.54 24.9329 15.5267 25.3401 15.5398C25.3401 15.1398 25.3401 14.7398 25.3401 14.3398C24.9195 14.3529 24.5062 14.3396 24.1001 14.2998Z"
            fill="#6D6A6A" />
        <path fill-rule="evenodd" clip-rule="evenodd"
            d="M31.3 14.3799C31.2353 14.6141 31.1553 14.8408 31.06 15.0599C31.0185 15.1171 30.9918 15.1838 30.98 15.2599C30.8708 15.5208 30.7775 15.7875 30.7 16.0599C30.6374 16.1402 30.5974 16.2336 30.58 16.3399C30.3895 16.8668 30.1895 17.3868 29.98 17.8999C29.9873 17.7835 29.9873 17.6569 29.98 17.5199C30.0169 17.4474 30.0503 17.4541 30.08 17.5399C30.0879 17.4122 30.1212 17.2922 30.18 17.1799C30.1667 17.1532 30.1533 17.1266 30.14 17.0999C30.1538 17.052 30.1738 17.052 30.2 17.0999C30.2675 16.9818 30.2942 16.8618 30.28 16.7399C30.3395 16.7895 30.3728 16.7695 30.38 16.6799C30.4114 16.6083 30.4114 16.5416 30.38 16.4799C30.4179 16.4606 30.4579 16.4539 30.5 16.4599C30.4934 16.3524 30.5001 16.2457 30.52 16.1399C30.7272 15.6822 30.9139 15.1756 31.08 14.6199C31.1084 14.561 31.155 14.5343 31.22 14.5399C31.2063 14.4606 31.2329 14.4072 31.3 14.3799Z"
            fill="#2C2829" />
        <path fill-rule="evenodd" clip-rule="evenodd"
            d="M21.9399 15.5801C22.1533 15.5801 22.3666 15.5801 22.5799 15.5801C22.5799 16.9534 22.5799 18.3268 22.5799 19.7001C22.54 18.3469 22.5267 16.9869 22.5399 15.6201C22.3321 15.6329 22.1321 15.6196 21.9399 15.5801Z"
            fill="#E1E1E1" />
        <path fill-rule="evenodd" clip-rule="evenodd"
            d="M24.1399 15.5801C24.5532 15.5801 24.9666 15.5801 25.3799 15.5801C24.9871 15.6198 24.5871 15.6332 24.1799 15.6201C24.1932 16.9869 24.1798 18.3469 24.1399 19.7001C24.1399 18.3268 24.1399 16.9534 24.1399 15.5801Z"
            fill="#DAD9D9" />
        <path fill-rule="evenodd" clip-rule="evenodd"
            d="M27.82 15.6602C27.8696 15.7287 27.8962 15.8087 27.9 15.9002C27.8371 15.8361 27.8104 15.7561 27.82 15.6602Z"
            fill="#726F70" />
        <path fill-rule="evenodd" clip-rule="evenodd"
            d="M6.1001 15.7402C6.16298 15.8488 6.20298 15.9688 6.2201 16.1002C6.2201 16.1136 6.2201 16.1269 6.2201 16.1402C6.14902 16.02 6.10902 15.8867 6.1001 15.7402Z"
            fill="#535051" />
        <path fill-rule="evenodd" clip-rule="evenodd"
            d="M12.6599 15.54C12.7756 15.63 12.8423 15.75 12.8599 15.9C12.8663 15.9662 12.893 16.0195 12.9399 16.06C12.98 16.2209 13.02 16.3809 13.0599 16.54C13.0728 16.7876 13.0595 17.0276 13.0199 17.26C12.9855 16.6611 12.8655 16.0878 12.6599 15.54Z"
            fill="#332F30" />
        <path fill-rule="evenodd" clip-rule="evenodd"
            d="M26.3001 15.7798C26.3627 15.8601 26.4027 15.9535 26.4201 16.0598C26.3268 15.9927 26.2868 15.8994 26.3001 15.7798Z"
            fill="#B4B3B3" />
        <path fill-rule="evenodd" clip-rule="evenodd"
            d="M0.780032 15.7002C0.783652 15.8063 0.756984 15.8996 0.700032 15.9802C0.696412 15.8741 0.72308 15.7808 0.780032 15.7002Z"
            fill="#7C797A" />
        <path fill-rule="evenodd" clip-rule="evenodd"
            d="M29.26 15.8198C29.2111 16.0865 29.1311 16.3399 29.02 16.5798C29.069 16.3131 29.149 16.0598 29.26 15.8198Z"
            fill="#646162" />
        <path fill-rule="evenodd" clip-rule="evenodd"
            d="M12.8601 15.8999C12.9243 15.9314 12.9509 15.9847 12.9401 16.0599C12.8931 16.0193 12.8665 15.966 12.8601 15.8999Z"
            fill="#AAA8A8" />
        <path fill-rule="evenodd" clip-rule="evenodd"
            d="M7.34001 16.02C7.34965 16.1159 7.32297 16.1959 7.26001 16.26C7.26381 16.1686 7.29049 16.0886 7.34001 16.02Z"
            fill="#727071" />
        <path fill-rule="evenodd" clip-rule="evenodd"
            d="M26.4199 16.0601C26.4614 16.1173 26.4881 16.1839 26.4999 16.2601C26.4314 16.2147 26.4047 16.148 26.4199 16.0601Z"
            fill="#A4A3A3" />
        <path fill-rule="evenodd" clip-rule="evenodd"
            d="M30.7001 16.0601C30.7134 16.1797 30.6734 16.273 30.5801 16.3401C30.5975 16.2338 30.6375 16.1404 30.7001 16.0601Z"
            fill="#C2C1C2" />
        <path fill-rule="evenodd" clip-rule="evenodd"
            d="M16.1399 16.2598C16.3265 16.282 16.4998 16.3354 16.6599 16.4198C16.4733 16.3975 16.3 16.3442 16.1399 16.2598Z"
            fill="#ABA9AA" />
        <path fill-rule="evenodd" clip-rule="evenodd"
            d="M14.0201 16.1802C14.0771 16.2608 14.1037 16.3541 14.1001 16.4602C14.0431 16.3796 14.0165 16.2863 14.0201 16.1802Z"
            fill="#B9B8B9" />
        <path fill-rule="evenodd" clip-rule="evenodd"
            d="M6.21997 16.1001C6.28517 16.1611 6.31849 16.2411 6.31997 16.3401C6.35289 16.6672 6.34621 16.9872 6.29997 17.3001C6.31949 16.9077 6.29281 16.521 6.21997 16.1401C6.21997 16.1268 6.21997 16.1134 6.21997 16.1001Z"
            fill="#C5C5C5" />
        <path fill-rule="evenodd" clip-rule="evenodd"
            d="M16.6599 16.42C16.7796 16.4066 16.8729 16.4466 16.9399 16.54C16.8336 16.5226 16.7403 16.4826 16.6599 16.42Z"
            fill="#C1C0C0" />
        <path fill-rule="evenodd" clip-rule="evenodd"
            d="M26.5001 16.2998C26.5627 16.3802 26.6027 16.4735 26.6201 16.5798C26.5267 16.5128 26.4867 16.4194 26.5001 16.2998Z"
            fill="#BBBABB" />
        <path fill-rule="evenodd" clip-rule="evenodd"
            d="M28.0601 16.3799C28.2307 16.8314 28.3907 17.2914 28.5401 17.7599C28.5535 17.8011 28.5802 17.8211 28.6201 17.8199C28.6201 17.8466 28.6201 17.8732 28.6201 17.8999C28.5802 17.9033 28.5469 17.89 28.5201 17.8599C28.3462 17.3716 28.1929 16.8783 28.0601 16.3799Z"
            fill="#686566" />
        <path fill-rule="evenodd" clip-rule="evenodd"
            d="M26.6201 16.5801C26.6616 16.6373 26.6883 16.704 26.7001 16.7801C26.6316 16.7347 26.6049 16.668 26.6201 16.5801Z"
            fill="#AFAEAE" />
        <path fill-rule="evenodd" clip-rule="evenodd"
            d="M29.0199 16.5801C29.011 16.7266 28.971 16.8599 28.8999 16.9801C28.9088 16.8336 28.9488 16.7003 29.0199 16.5801Z"
            fill="#545051" />
        <path fill-rule="evenodd" clip-rule="evenodd"
            d="M2.25989 16.2998C2.18811 16.6407 2.16145 16.9874 2.17989 17.3398C2.1337 17.067 2.12703 16.787 2.15989 16.4998C2.17483 16.4202 2.20817 16.3535 2.25989 16.2998Z"
            fill="#BDBCBC" />
        <path fill-rule="evenodd" clip-rule="evenodd"
            d="M8.81989 16.3398C8.75113 16.6551 8.72445 16.9751 8.73989 17.2998C8.69377 17.0671 8.68713 16.8271 8.71989 16.5798C8.74253 16.4909 8.77589 16.4109 8.81989 16.3398Z"
            fill="#9C9A9A" />
        <path fill-rule="evenodd" clip-rule="evenodd"
            d="M13.06 16.54C13.1062 16.7995 13.1129 17.0662 13.08 17.34C13.0707 17.3895 13.0507 17.4295 13.02 17.46C13.02 17.3934 13.02 17.3267 13.02 17.26C13.0596 17.0276 13.0729 16.7876 13.06 16.54Z"
            fill="#C2C1C1" />
        <path fill-rule="evenodd" clip-rule="evenodd"
            d="M28.9001 16.98C28.8643 17.1095 28.8643 17.2362 28.9001 17.36C28.8113 17.5464 28.7379 17.7397 28.6801 17.94C28.6648 17.9177 28.6448 17.9044 28.6201 17.9C28.6201 17.8733 28.6201 17.8467 28.6201 17.82C28.6906 17.5286 28.7839 17.2486 28.9001 16.98Z"
            fill="#312D2E" />
        <path fill-rule="evenodd" clip-rule="evenodd"
            d="M15.3799 17.4599C15.4758 17.4503 15.5558 17.477 15.6199 17.5399C15.5284 17.5361 15.4484 17.5094 15.3799 17.4599Z"
            fill="#797777" />
        <path fill-rule="evenodd" clip-rule="evenodd"
            d="M15.8999 17.6201C15.9958 17.6104 16.0758 17.6371 16.1399 17.7001C16.0485 17.6963 15.9685 17.6696 15.8999 17.6201Z"
            fill="#787677" />
        <path fill-rule="evenodd" clip-rule="evenodd"
            d="M26.98 17.54C27.0426 17.6204 27.0826 17.7138 27.1 17.82C27.0067 17.753 26.9667 17.6597 26.98 17.54Z"
            fill="#C6C5C5" />
        <path fill-rule="evenodd" clip-rule="evenodd"
            d="M13.02 17.5801C13.0236 17.6862 12.997 17.7795 12.94 17.8601C12.9364 17.754 12.9631 17.6607 13.02 17.5801Z"
            fill="#C3C2C2" />
        <path fill-rule="evenodd" clip-rule="evenodd"
            d="M16.1399 17.6998C16.2685 17.6936 16.3752 17.7336 16.4599 17.8198C16.344 17.7947 16.2373 17.7547 16.1399 17.6998Z"
            fill="#7D7A7B" />
        <path fill-rule="evenodd" clip-rule="evenodd"
            d="M18.1001 17.54C18.1617 17.6746 18.1883 17.8213 18.1801 17.98C18.18 18.0942 18.1667 18.2009 18.1401 18.3C18.1462 18.0453 18.1329 17.7919 18.1001 17.54Z"
            fill="#969495" />
        <path fill-rule="evenodd" clip-rule="evenodd"
            d="M7.30004 17.8198C7.34152 17.877 7.3682 17.9437 7.38004 18.0198C7.31152 17.9744 7.28484 17.9077 7.30004 17.8198Z"
            fill="#ABAAAB" />
        <path fill-rule="evenodd" clip-rule="evenodd"
            d="M9.58008 18.3398C9.676 18.3302 9.756 18.3568 9.82008 18.4198C9.72416 18.4294 9.64416 18.4028 9.58008 18.3398Z"
            fill="#C6C5C5" />
        <path fill-rule="evenodd" clip-rule="evenodd"
            d="M29.86 18.2598C29.8752 18.3477 29.8485 18.4144 29.78 18.4598C29.7919 18.3836 29.8185 18.317 29.86 18.2598Z"
            fill="#AAA9A9" />
        <path fill-rule="evenodd" clip-rule="evenodd"
            d="M2.93994 18.3398C3.22963 18.4256 3.52297 18.4389 3.81994 18.3798C3.7057 18.4401 3.57904 18.4667 3.43994 18.4598C3.25631 18.4716 3.08964 18.4316 2.93994 18.3398Z"
            fill="#CDCDCD" />
        <path fill-rule="evenodd" clip-rule="evenodd"
            d="M10.5401 18.3799C10.5233 18.4088 10.4967 18.4288 10.4601 18.4399C10.2394 18.4726 10.0261 18.4659 9.82007 18.4199C10.0615 18.4255 10.3015 18.4122 10.5401 18.3799Z"
            fill="#C3C2C2" />
        <path fill-rule="evenodd" clip-rule="evenodd"
            d="M16.5001 18.5C16.379 18.5608 16.2457 18.5874 16.1001 18.58C15.9991 18.5799 15.9057 18.5665 15.8201 18.54C16.0482 18.545 16.2749 18.5317 16.5001 18.5Z"
            fill="#D1D1D1" />
        <path fill-rule="evenodd" clip-rule="evenodd"
            d="M27.3799 18.5C27.4389 18.5305 27.4922 18.5438 27.5399 18.54C27.4914 18.634 27.518 18.7074 27.6199 18.76C27.5966 18.7957 27.5833 18.8357 27.5799 18.88C27.6311 18.9744 27.6578 19.0744 27.6599 19.18C27.7069 19.1712 27.7469 19.1846 27.7799 19.22C27.7475 19.2828 27.7342 19.3495 27.7399 19.42C27.5972 19.1258 27.4772 18.8192 27.3799 18.5Z"
            fill="#3A3637" />
        <path fill-rule="evenodd" clip-rule="evenodd"
            d="M5.90004 18.6201C5.90296 18.6812 5.87628 18.7212 5.82004 18.7401C5.81712 18.679 5.8438 18.639 5.90004 18.6201Z"
            fill="#A9A8A8" />
        <path fill-rule="evenodd" clip-rule="evenodd"
            d="M12.4999 18.6602C12.5028 18.7212 12.4761 18.7612 12.4199 18.7802C12.417 18.7191 12.4437 18.6791 12.4999 18.6602Z"
            fill="#AFAEAF" />
        <path fill-rule="evenodd" clip-rule="evenodd"
            d="M29.7399 18.5801C29.7551 18.668 29.7284 18.7347 29.6599 18.7801C29.6718 18.704 29.6984 18.6373 29.7399 18.5801Z"
            fill="#ABA9A9" />
        <path fill-rule="evenodd" clip-rule="evenodd"
            d="M29.66 18.8198C29.6734 18.9395 29.6334 19.0328 29.54 19.0998C29.5574 18.9935 29.5974 18.9002 29.66 18.8198Z"
            fill="#BAB9B9" />
        <path fill-rule="evenodd" clip-rule="evenodd"
            d="M2.22 19.06C2.19333 19.8067 2.16667 20.5533 2.14 21.3C2.14 21.2867 2.14 21.2733 2.14 21.26C2.12668 20.5129 2.14002 19.7662 2.18 19.02C2.20427 19.025 2.2176 19.0383 2.22 19.06Z"
            fill="#A2A1A2" />
        <path fill-rule="evenodd" clip-rule="evenodd"
            d="M29.54 19.1001C29.5552 19.188 29.5285 19.2547 29.46 19.3001C29.4718 19.224 29.4985 19.1573 29.54 19.1001Z"
            fill="#A2A0A1" />
        <path fill-rule="evenodd" clip-rule="evenodd"
            d="M2.78003 19.5002C2.84111 19.4973 2.88111 19.524 2.90003 19.5802C2.83895 19.5831 2.79895 19.5565 2.78003 19.5002Z"
            fill="#716E6E" />
        <path fill-rule="evenodd" clip-rule="evenodd"
            d="M8.86011 19.54C9.03079 19.5703 9.19079 19.6236 9.34011 19.7C9.16351 19.6856 9.00351 19.6323 8.86011 19.54Z"
            fill="#5D5A5A" />
        <path fill-rule="evenodd" clip-rule="evenodd"
            d="M14.78 19.54C14.9265 19.549 15.0598 19.589 15.18 19.66C15.0335 19.6511 14.9002 19.6111 14.78 19.54Z"
            fill="#706D6E" />
        <path fill-rule="evenodd" clip-rule="evenodd"
            d="M2.8999 19.5801C3.07058 19.6103 3.23058 19.6636 3.3799 19.7401C3.20328 19.7256 3.04328 19.6723 2.8999 19.5801Z"
            fill="#5B5859" />
        <path fill-rule="evenodd" clip-rule="evenodd"
            d="M11.46 19.5C11.3987 19.5698 11.3187 19.6098 11.22 19.62C11.2813 19.5502 11.3613 19.5102 11.46 19.5Z"
            fill="#ADABAC" />
        <path fill-rule="evenodd" clip-rule="evenodd"
            d="M27.74 19.46C27.8214 19.5462 27.8347 19.6395 27.78 19.74C27.7603 19.6477 27.747 19.5544 27.74 19.46Z"
            fill="#B4B3B3" />
        <path fill-rule="evenodd" clip-rule="evenodd"
            d="M11.14 19.62C11.0994 19.667 11.0461 19.6936 10.98 19.7C11.0115 19.6359 11.0648 19.6092 11.14 19.62Z"
            fill="#929091" />
        <path fill-rule="evenodd" clip-rule="evenodd"
            d="M22.5801 15.5801C22.62 16.9332 22.6334 18.2932 22.6201 19.6601C23.1134 19.6601 23.6068 19.6601 24.1001 19.6601C24.0868 18.2932 24.1002 16.9332 24.1401 15.5801C24.1401 16.9534 24.1401 18.3268 24.1401 19.7001C23.6201 19.7001 23.1001 19.7001 22.5801 19.7001C22.5801 18.3268 22.5801 16.9534 22.5801 15.5801Z"
            fill="#6B696A" />
        <path fill-rule="evenodd" clip-rule="evenodd"
            d="M29.38 19.54C29.3952 19.628 29.3686 19.6946 29.3 19.74C29.3119 19.6639 29.3386 19.5972 29.38 19.54Z"
            fill="#B0AFAF" />
        <path fill-rule="evenodd" clip-rule="evenodd"
            d="M16.94 19.6601C16.8759 19.7231 16.7959 19.7498 16.7 19.7401C16.764 19.6772 16.844 19.6505 16.94 19.6601Z"
            fill="#BFBEBE" />
        <path fill-rule="evenodd" clip-rule="evenodd"
            d="M29.2999 19.7798C29.3133 19.8994 29.2733 19.9927 29.1799 20.0598C29.1973 19.9535 29.2373 19.8601 29.2999 19.7798Z"
            fill="#BDBDBD" />
        <path fill-rule="evenodd" clip-rule="evenodd"
            d="M26.4999 20.1401C26.5291 20.1578 26.5691 20.1645 26.6199 20.1601C26.5627 20.2677 26.5227 20.3811 26.4999 20.5001C26.4578 20.4942 26.4178 20.5008 26.3799 20.5201C26.4134 20.5606 26.4267 20.6073 26.4199 20.6601C26.3729 20.6514 26.3329 20.6647 26.2999 20.7001C26.2798 20.7488 26.2665 20.7955 26.2599 20.8401C26.3193 20.9031 26.3859 20.9564 26.4599 21.0001C26.4298 21.027 26.4165 21.0603 26.4199 21.1001C26.2873 21.0812 26.194 21.0145 26.1399 20.9001C26.2661 20.6465 26.3861 20.3931 26.4999 20.1401Z"
            fill="#353132" />
        <path fill-rule="evenodd" clip-rule="evenodd"
            d="M0.619919 16.46C0.619919 18.06 0.619919 19.66 0.619919 21.26C1.12659 21.26 1.63325 21.26 2.13992 21.26C2.13992 21.2733 2.13992 21.2866 2.13992 21.3C1.61992 21.3 1.09992 21.3 0.579919 21.3C0.566643 19.6798 0.579975 18.0665 0.619919 16.46Z"
            fill="#646162" />
        <path fill-rule="evenodd" clip-rule="evenodd"
            d="M26.4199 21.1001C26.8452 21.2523 27.2852 21.3189 27.7399 21.3001C27.2785 21.3854 26.8385 21.3188 26.4199 21.1001Z"
            fill="#6D6B6C" />
    </g>
    <defs>
        <clipPath id="clip0_4541_168">
            <rect width="32" height="32" fill="white" />
        </clipPath>
    </defs>
</svg>