<svg width="32" height="32" viewBox="0 0 32 32" fill="none" xmlns="http://www.w3.org/2000/svg">
    <g clip-path="url(#clip0_4426_45)">
        <path fill-rule="evenodd" clip-rule="evenodd"
            d="M-0.10791 -0.108398C10.5587 -0.108398 21.2254 -0.108398 31.8921 -0.108398C31.8921 10.5583 31.8921 21.2249 31.8921 31.8916C21.2254 31.8916 10.5587 31.8916 -0.10791 31.8916C-0.10791 21.2249 -0.10791 10.5583 -0.10791 -0.108398Z"
            fill="black" />
        <path fill-rule="evenodd" clip-rule="evenodd"
            d="M20.8649 17.1891C17.1171 17.1891 13.3693 17.1891 9.62161 17.1891C9.62161 18.7747 9.62161 20.3603 9.62161 21.9458C9.26124 21.9458 8.90089 21.9458 8.54053 21.9458C8.54053 17.9098 8.54053 13.8738 8.54053 9.83772C12.5772 9.8017 16.6132 9.83774 20.6486 9.94583C23.501 10.3496 24.6181 11.9713 24 14.8107C23.4865 16.3101 22.4415 17.1029 20.8649 17.1891Z"
            fill="#F0F0F0" />
        <path fill-rule="evenodd" clip-rule="evenodd"
            d="M9.83789 10.9191C13.6668 10.8296 17.4866 10.9377 21.2974 11.2434C22.3892 11.5534 22.8937 12.2741 22.8109 13.4056C22.9464 15.0172 22.2256 15.8821 20.6487 16.0002C17.0458 16.1083 13.4422 16.1443 9.83789 16.1083C9.83789 14.3786 9.83789 12.6488 9.83789 10.9191Z"
            fill="#040404" />
        <path fill-rule="evenodd" clip-rule="evenodd"
            d="M20.8648 17.1895C17.227 17.4049 13.5513 17.477 9.8378 17.4057C9.90796 18.9595 9.8359 20.473 9.62158 21.9462C9.62158 20.3606 9.62158 18.775 9.62158 17.1895C13.3693 17.1895 17.1171 17.1895 20.8648 17.1895Z"
            fill="#696969" />
    </g>
    <defs>
        <clipPath id="clip0_4426_45">
            <rect width="32" height="32" fill="white" />
        </clipPath>
    </defs>
</svg>