<svg width="32" height="32" viewBox="0 0 32 32" fill="none" xmlns="http://www.w3.org/2000/svg">
    <g clip-path="url(#clip0_4944_274)">
        <path fill-rule="evenodd" clip-rule="evenodd"
            d="M-0.572266 -0.571289C10.0944 -0.571289 20.7611 -0.571289 31.4277 -0.571289C31.4277 10.0954 31.4277 20.7621 31.4277 31.4287C20.7611 31.4287 10.0944 31.4287 -0.572266 31.4287C-0.572266 20.7621 -0.572266 10.0954 -0.572266 -0.571289Z"
            fill="#000001" />
        <path fill-rule="evenodd" clip-rule="evenodd"
            d="M15.4276 13.1426C15.4276 12.7617 15.4276 12.3806 15.4276 11.9997C16.6299 12.1706 17.7728 11.9801 18.8562 11.4283C15.9584 11.2155 13.2916 10.6441 10.8562 9.71401C9.83083 6.07283 11.3546 5.31092 15.4276 7.42829C16.1896 6.66638 16.9514 5.90449 17.7134 5.14258C23.5828 7.3932 27.7732 11.3932 30.2848 17.1426C29.9039 17.3331 29.5228 17.5235 29.1419 17.714C25.4139 13.8002 20.8425 12.2764 15.4276 13.1426Z"
            fill="#146097" />
        <path fill-rule="evenodd" clip-rule="evenodd"
            d="M10.8574 9.71429C13.2929 10.6444 15.9596 11.2158 18.8574 11.4286C17.774 11.9803 16.6311 12.1709 15.4289 12C10.5132 12.3634 6.32276 14.2682 2.85742 17.7143C3.26751 15.576 4.41037 13.8617 6.28599 12.5714C5.76331 12.0983 5.38235 11.5269 5.14314 10.8571C6.90923 9.76927 8.81398 9.38833 10.8574 9.71429Z"
            fill="#498CBF" />
        <path fill-rule="evenodd" clip-rule="evenodd"
            d="M15.4293 12C15.4293 12.3809 15.4293 12.7619 15.4293 13.1429C8.04028 14.277 3.27837 18.4675 1.14357 25.7143C0.471414 22.6978 1.04284 20.0312 2.85785 17.7143C6.32319 14.2682 10.5137 12.3634 15.4293 12Z"
            fill="#A0BFCB" />
    </g>
    <defs>
        <clipPath id="clip0_4944_274">
            <rect width="32" height="32" fill="white" />
        </clipPath>
    </defs>
</svg>