<svg width="32" height="32" viewBox="0 0 32 32" fill="none" xmlns="http://www.w3.org/2000/svg">
    <path d="M4.36353 0H27.6363V2.90909H4.36353V0Z" fill="#003C81" />
    <path d="M4.36353 29.0908H27.6363V31.9999H4.36353V29.0908Z" fill="#003C81" />
    <path d="M4.36353 30.3606L4.36585 1.9917L7.27378 1.99228L7.27145 30.3612L4.36353 30.3606Z"
        fill="#003C81" />
    <path d="M27.6364 1.83994L27.6358 7.23572H24.7273V1.83936L27.6364 1.83994Z" fill="#003C81" />
    <path d="M27.6365 14.5454L27.6353 30.6728H24.7268L24.728 14.5454H27.6365Z" fill="#003C81" />
    <path d="M27.6363 7.23495L15.9819 18.8911L13.9246 16.8344L25.579 5.17822L27.6363 7.23495Z"
        fill="#003C81" />
    <path d="M12.2601 11.0547L18.0149 16.81L15.9581 18.8668L10.2034 13.1114L12.2601 11.0547Z"
        fill="#003C81" />
    <path d="M27.6363 15.6104L15.9819 27.1688L13.9333 25.1033L25.5878 13.5449L27.6363 15.6104Z"
        fill="#003C81" />
    <path d="M12.2188 19.2773L18.0562 25.1153L15.9995 27.172L10.1621 21.3347L12.2188 19.2773Z"
        fill="#003C81" />
    <path d="M27.6537 11.478L27.6374 15.652L25.5586 13.5732L27.6537 11.478Z" fill="#003C81" />
</svg>