<svg width="32" height="32" viewBox="0 0 33 33" fill="none" xmlns="http://www.w3.org/2000/svg">
    <path
        d="M31.983 6.78219C31.8765 6.6044 31.7247 6.45662 31.5424 6.35325C31.3601 6.24988 31.1536 6.19446 30.9429 6.19238C30.7311 6.19226 30.5231 6.24662 30.3396 6.35L25.771 8.93802L19.9516 12.243L3.076 21.7993C1.73123 22.5578 0.749729 23.8076 0.347425 25.2737C-0.0548785 26.7397 0.154967 28.302 0.930799 29.6168C1.70663 30.9315 2.9849 31.8912 4.48439 32.2845C5.98389 32.6778 7.58179 32.4727 8.92656 31.7141L24.2472 23.0832C25.1084 22.6168 25.8395 21.9511 26.3767 21.1445C26.9138 20.3379 27.2407 19.4149 27.3285 18.4562C27.3285 18.3088 27.3441 18.1588 27.3441 18.0088C27.3615 17.3365 27.2237 16.669 26.941 16.0559C26.6583 15.4429 26.2379 14.8999 25.7112 14.4674L23.4333 15.7513C24.5567 16.6309 24.9649 17.2487 24.9233 18.0164V18.2783C24.8826 18.7499 24.737 19.2071 24.4968 19.6181C24.1588 20.2053 23.8078 20.4773 23.0511 21.0316L7.72785 29.6625C6.93788 30.1109 5.99808 30.2341 5.11521 30.005C4.23233 29.7759 3.4787 29.2133 3.0201 28.441C2.5615 27.6686 2.43549 26.7498 2.6698 25.8866C2.90411 25.0234 3.47955 24.2866 4.26952 23.8382L25.732 11.6837L25.888 11.5947L31.3927 8.49313L31.5409 8.40923C31.6306 8.35741 31.7128 8.29415 31.7853 8.22111C31.9773 8.03691 32.1009 7.79541 32.1367 7.5348C32.1725 7.2742 32.1184 7.00936 31.983 6.78219Z"
        fill="url(#paint0_linear_2796_135)" />
    <path
        d="M0.870987 12.1133C1.22132 12.7183 1.69341 13.2476 2.25875 13.6692C2.82409 14.0909 3.47096 14.3961 4.1603 14.5666C4.59792 14.6759 5.04776 14.7314 5.49943 14.7318C6.46559 14.728 7.41394 14.4774 8.25049 14.0048L16.7689 9.22785L18.8673 8.05079L22.5857 5.96359L23.3657 5.52886C23.6419 5.3715 23.8435 5.11402 23.9267 4.81228C24.01 4.51053 23.9682 4.18887 23.8104 3.91707C23.7033 3.73679 23.5497 3.58717 23.3648 3.48321C23.18 3.37925 22.9705 3.3246 22.7573 3.32472C22.5463 3.3242 22.339 3.3786 22.1566 3.48235L21.3765 3.9247L17.6556 6.00935L15.5572 7.18642L7.05178 11.9582C6.36117 12.3506 5.5417 12.4655 4.76616 12.2786C4.39141 12.1853 4.03989 12.0187 3.73285 11.7889C3.42581 11.559 3.16963 11.2707 2.97979 10.9413C2.74041 10.5367 2.6048 10.0813 2.58455 9.61427V5.29243C2.59571 4.86332 2.71939 4.44419 2.94375 4.07521C3.16811 3.70623 3.48563 3.39976 3.86588 3.18517C4.24613 2.97058 4.67637 2.85505 5.11538 2.84966C5.5544 2.84428 5.98747 2.9492 6.37311 3.15439L11.6568 6.62712L13.9372 5.32803L13.6954 5.16532C12.5513 4.40264 10.5283 3.05525 7.68884 1.16635L7.61864 1.12313C6.86667 0.702874 6.01577 0.481226 5.14963 0.479986C4.28348 0.478746 3.43192 0.697955 2.6787 1.11605C1.92548 1.53415 1.29655 2.13674 0.85376 2.86455C0.410971 3.59236 0.169577 4.42033 0.15332 5.26701V9.66258C0.186624 10.5242 0.432864 11.365 0.870987 12.1133Z"
        fill="url(#paint1_linear_2796_135)" />
    <defs>
        <linearGradient id="paint0_linear_2796_135" x1="0.137724" y1="19.3308" x2="32.1442"
            y2="19.3308" gradientUnits="userSpaceOnUse">
            <stop offset="0.08" stop-color="#3250FC" />
            <stop offset="0.18" stop-color="#3B4CFB" />
            <stop offset="0.33" stop-color="#5542F9" />
            <stop offset="0.52" stop-color="#7E32F6" />
            <stop offset="0.75" stop-color="#B71CF2" />
            <stop offset="1" stop-color="#FF00EC" />
        </linearGradient>
        <linearGradient id="paint1_linear_2796_135" x1="0.15332" y1="7.6008" x2="23.969" y2="7.6008"
            gradientUnits="userSpaceOnUse">
            <stop offset="0.08" stop-color="#3250FC" />
            <stop offset="0.18" stop-color="#3B4CFB" />
            <stop offset="0.33" stop-color="#5542F9" />
            <stop offset="0.52" stop-color="#7E32F6" />
            <stop offset="0.75" stop-color="#B71CF2" />
            <stop offset="1" stop-color="#FF00EC" />
        </linearGradient>
    </defs>
</svg>