<svg width="32" height="32" viewBox="0 0 33 33" fill="none" xmlns="http://www.w3.org/2000/svg">
    <path fill-rule="evenodd" clip-rule="evenodd"
        d="M0.900879 0.900391C11.5675 0.900391 22.2342 0.900391 32.9009 0.900391C32.9009 11.5671 32.9009 22.2337 32.9009 32.9004C22.2342 32.9004 11.5675 32.9004 0.900879 32.9004C0.900879 22.2337 0.900879 11.5671 0.900879 0.900391Z"
        fill="#FEFEFE" />
    <g clip-path="url(#clip0_2936_529)">
        <path
            d="M1.57251 14.9557H4.47299C5.79635 14.9557 6.45801 15.5634 6.45801 16.7787C6.45801 18.0967 5.55313 18.8943 3.74334 19.1718L3.57112 18.1042C4.65881 17.9082 5.20265 17.4784 5.20265 16.8149C5.20265 16.2781 4.93375 16.0097 4.39595 16.0097H2.77349L2.77341 22.2565L30.9465 22.2566V11.6079L1.57813 11.6079L1.57867 10.5348L31.5921 10.5322C31.8298 10.5322 32.0225 10.7249 32.0225 10.9625V22.902C32.0225 23.1396 31.8298 23.3322 31.5921 23.3322H2.0029C1.7652 23.3322 1.57251 23.1396 1.57251 22.902V14.9557ZM27.0001 14.924C28.5712 14.924 29.3567 15.7202 29.3567 17.3125C29.3567 18.9019 28.5712 19.6965 27.0001 19.6965C25.435 19.6965 24.6495 18.9019 24.6434 17.3125C24.6434 15.7202 25.429 14.924 27.0001 14.924ZM8.26024 14.9376L8.4098 15.5438C8.82674 15.1396 9.26785 14.9376 9.73314 14.9376V15.9057C9.28598 15.9057 8.88566 16.0911 8.53216 16.4621V19.6875H7.33118V14.9376H8.26024ZM12.4206 14.9376C13.8648 14.9376 14.5869 15.6734 14.5869 17.1452C14.5869 17.3412 14.5733 17.5372 14.5461 17.7332H11.3873C11.3873 18.4028 11.8798 18.7375 12.8648 18.7375C13.3452 18.7375 13.8255 18.6923 14.3059 18.6018V19.5518C13.886 19.6422 13.3754 19.6875 12.7741 19.6875C11.0489 19.6875 10.1863 18.8777 10.1863 17.2582C10.1863 15.7111 10.9311 14.9376 12.4206 14.9376ZM17.4965 14.9376C18.9407 14.9376 19.6628 15.6734 19.6628 17.1452C19.6628 17.3412 19.6492 17.5372 19.622 17.7332H16.4632C16.4632 18.4028 16.9556 18.7375 17.9406 18.7375C18.421 18.7375 18.9014 18.6923 19.3818 18.6018V19.5518C18.9618 19.6422 18.4512 19.6875 17.85 19.6875C16.1248 19.6875 15.2622 18.8777 15.2622 17.2582C15.2622 15.7111 16.0069 14.9376 17.4965 14.9376ZM22.8533 14.9376C23.2763 14.9376 23.6842 14.9828 24.0769 15.0733V16.0233C23.6842 15.9328 23.3065 15.8876 22.9439 15.8876C21.9922 15.8876 21.5164 16.3324 21.5164 17.2221C21.5164 18.2324 21.9922 18.7375 22.9439 18.7375C23.3065 18.7375 23.6842 18.6923 24.0769 18.6018V19.5518C23.6842 19.6422 23.2763 19.6875 22.8533 19.6875C21.1613 19.6875 20.3154 18.8657 20.3154 17.2221C20.3154 15.6991 21.1613 14.9376 22.8533 14.9376ZM27.0001 15.8423C26.2296 15.8423 25.8444 16.3264 25.8444 17.2944C25.8444 18.2866 26.2296 18.7827 27.0001 18.7827C27.7705 18.7827 28.1557 18.2866 28.1557 17.2944C28.1557 16.3264 27.7705 15.8423 27.0001 15.8423ZM12.4206 15.8785C11.7861 15.8785 11.4417 16.2193 11.3873 16.9009H13.4177V16.8647C13.4177 16.2072 13.0853 15.8785 12.4206 15.8785ZM17.4965 15.8785C16.862 15.8785 16.5176 16.2193 16.4632 16.9009H18.4935V16.8647C18.4935 16.2072 18.1612 15.8785 17.4965 15.8785Z"
            fill="#439DD9" />
    </g>
    <defs>
        <clipPath id="clip0_2936_529">
            <rect width="30.72" height="12.8" fill="white" transform="translate(1.57251 10.5322)" />
        </clipPath>
    </defs>
</svg>