<svg width="32" height="32" viewBox="0 0 32 32" fill="none" xmlns="http://www.w3.org/2000/svg">
    <rect width="32" height="32" fill="#51B7D2" />
    <path fill-rule="evenodd" clip-rule="evenodd"
        d="M13.1615 22.5755C13.0742 20.3718 13.1635 18.2176 13.4295 16.113C19.4789 17.172 21.7569 14.7486 20.2636 8.84267C18.4913 6.77036 16.3028 6.18684 13.6975 7.0924C12.3551 7.94815 11.5064 9.15987 11.1515 10.7276C11.0175 17.8177 10.9728 24.9087 11.0175 32C8.60545 32 6.19342 32 3.78139 32C3.73674 24.1906 3.78139 16.3817 3.91539 8.5734C5.49752 3.48471 8.93689 0.657358 14.2335 0.0913501C21.2448 -0.577789 25.8453 2.42916 28.0357 9.11194C29.0166 15.806 26.3813 20.3387 20.1296 22.7101C17.7532 23.2893 15.4306 23.2444 13.1615 22.5755Z"
        fill="#FEFEFE" />
</svg>