<svg width="32" height="32" viewBox="0 0 32 32" fill="none" xmlns="http://www.w3.org/2000/svg">
    <path
        d="M31.761 5.16132C31.761 5.16132 25.8678 0 15.8749 0C5.8823 0 0.244984 5.16132 0.244984 5.16132C-0.779938 11.7007 0.860082 26.2391 15.8749 32C31.0435 26.2193 32.7859 11.6989 31.761 5.16132Z"
        fill="#0E0E2C" />
    <path
        d="M16.6262 22.4424C16.598 22.4424 16.5705 22.4346 16.5471 22.4196C16.5277 22.4074 16.5116 22.3905 16.5007 22.3709C16.4895 22.3513 16.4839 22.3293 16.4839 22.307V17.1817C16.4839 17.1599 16.4892 17.1386 16.4999 17.1193C16.5104 17.0999 16.5255 17.0833 16.5442 17.0708C16.5629 17.0581 16.5843 17.05 16.6072 17.0473C16.6298 17.0444 16.6527 17.0466 16.6743 17.0541L17.1571 17.2179C17.1851 17.2272 17.2092 17.2446 17.2262 17.2674C17.2432 17.2904 17.2525 17.3176 17.2525 17.3455V21.2778C19.0374 20.1752 19.9536 19.2031 20.4089 18.5776C20.7871 18.0579 20.9204 17.685 20.9647 17.5217C19.9828 17.0084 16.7261 16.0791 16.587 16.0394C16.5576 16.0311 16.5318 16.014 16.5133 15.9905C16.4948 15.9672 16.4849 15.9388 16.4846 15.9094V10.2093C16.4846 10.175 16.4982 10.142 16.5226 10.1167C16.5471 10.0915 16.5807 10.0761 16.6167 10.0737C16.7714 10.0621 16.9292 10.0568 17.0859 10.0568C20.1339 10.0568 22.5522 12.1421 22.576 12.1629C22.5984 12.1827 22.6137 12.2089 22.6193 12.2375C22.9112 13.6932 22.3335 16.1782 22.3102 16.2837C22.3051 16.3053 22.2944 16.3254 22.2793 16.3422C22.264 16.3591 22.2448 16.3721 22.2231 16.3802C22.2066 16.3866 22.1888 16.3897 22.1711 16.3897C22.1421 16.3895 22.1137 16.3809 22.0896 16.3653L21.5783 16.0272C21.555 16.0117 21.5372 15.9902 21.5268 15.965C21.5166 15.94 21.5144 15.9126 21.5205 15.8864C21.9517 14.057 21.824 12.8295 21.7868 12.5592C19.8476 11.058 17.7591 10.9236 17.2471 10.9141V15.3251C20.5675 16.3295 21.8945 17.0786 21.9077 17.0862C21.9361 17.1024 21.9575 17.1274 21.9685 17.157C21.9794 17.1866 21.9794 17.2187 21.9682 17.2483C21.249 19.1296 19.8503 20.4382 18.8039 21.2049C17.672 22.0341 16.6918 22.427 16.6819 22.4311C16.6644 22.4382 16.6454 22.4422 16.6262 22.4424Z"
        fill="white" />
    <path
        d="M15.3632 22.4289C15.3374 22.4289 15.3119 22.4233 15.2888 22.4122L14.7782 22.1633C14.7515 22.1503 14.7291 22.1305 14.7135 22.1062C14.6977 22.0818 14.6895 22.0538 14.6897 22.0252L14.6861 17.5024C14.6861 17.4992 14.6827 17.4987 14.6817 17.4987C12.2276 17.3104 9.88104 16.3334 9.78253 16.2915C9.76137 16.2827 9.74241 16.2697 9.72684 16.2533C9.71152 16.2369 9.69984 16.2176 9.69303 16.1965C9.02613 14.1788 9.40384 12.3104 9.42014 12.2321C9.42695 12.2015 9.44349 12.1736 9.46781 12.152C11.5561 10.172 14.662 10.0702 15.2637 10.0702C15.3114 10.0702 15.3493 10.0702 15.3697 10.0702C15.4126 10.0709 15.4532 10.0876 15.4828 10.1165C15.5125 10.1453 15.5291 10.1843 15.5288 10.2249V22.2742C15.5288 22.3153 15.5115 22.3547 15.4809 22.3836C15.4503 22.4127 15.4087 22.4289 15.3656 22.4289H15.3632ZM10.1992 12.4825C10.1945 12.4963 10.1909 12.5102 10.1877 12.5242C10.1838 12.5396 9.86158 13.9223 10.3784 15.6553C10.3792 15.6577 10.3806 15.6597 10.3826 15.6614C10.3843 15.6633 10.3864 15.6646 10.3886 15.6658C10.7622 15.8227 13.0524 16.597 14.6851 16.7474L14.6727 10.8029C14.6549 10.7916 14.6343 10.7858 14.6131 10.7863H14.6063C13.4559 10.8631 11.3569 11.1863 10.1992 12.4825Z"
        fill="white" />
    <path
        d="M13.8535 21.6012C13.8294 21.6012 13.8058 21.5953 13.7849 21.5846C13.7613 21.5718 11.4417 20.3316 10.1128 17.3599C10.1043 17.3393 10.1009 17.3173 10.1033 17.2953C10.1057 17.2732 10.1138 17.2522 10.1267 17.2338C10.1395 17.2154 10.1568 17.2003 10.1775 17.1897C10.1979 17.1792 10.2205 17.1736 10.2439 17.1733C10.2573 17.1733 10.2704 17.1751 10.2835 17.1785L10.9098 17.3491C10.931 17.3545 10.9507 17.3648 10.9672 17.3787C10.9838 17.3927 10.9966 17.4101 11.0049 17.4297C11.0154 17.4544 12.0675 19.9456 13.9216 20.8695C13.9445 20.8807 13.9639 20.8981 13.9773 20.9192C13.9909 20.9405 13.998 20.9647 13.9982 20.9894V21.4678C13.998 21.4913 13.9916 21.5145 13.9792 21.5351C13.9668 21.5554 13.9491 21.5726 13.9277 21.5846C13.9048 21.5963 13.8793 21.6022 13.8535 21.6012Z"
        fill="white" />
    <path
        d="M19.8007 9.84549C19.627 9.7669 19.4417 9.71378 19.2515 9.68783L19.1768 9.67607L19.172 9.6041C19.1087 8.64641 18.7665 7.86473 18.1828 7.34427C17.6426 6.86322 16.9113 6.60886 16.0668 6.60886C15.2224 6.60886 14.4891 6.86322 13.9489 7.34427C13.3647 7.86473 13.0227 8.64641 12.9592 9.6041L12.9546 9.67607L12.8799 9.68783C12.6888 9.71353 12.5029 9.76666 12.3288 9.84549L12.1831 9.9204L12.1877 9.76347C12.2563 7.37413 13.8141 5.76892 16.0644 5.76892C18.3146 5.76892 19.8744 7.37413 19.941 9.76347L19.9459 9.9204L19.8007 9.84549Z"
        fill="white" />
</svg>