<svg width="32" height="32" viewBox="0 0 33 33" fill="none" xmlns="http://www.w3.org/2000/svg">
    <path
        d="M32.809 15.6818C32.809 12.7727 32.4453 9.95454 31.809 7.04545C31.1726 4.22727 28.9908 2.04545 26.1726 1.5C23.0817 0.863636 19.8999 0.5 16.809 0.5C13.7181 0.5 10.6272 0.863636 7.53627 1.5C4.71809 2.04545 2.53627 4.22727 1.89991 7.04545C1.26354 10.1364 0.899902 13.2273 0.899902 16.3182C0.899902 17.1364 0.899908 17.8636 0.990817 18.6818C3.99082 18.8636 9.62717 17.5909 14.9908 13.5909C12.1726 13.0455 11.1726 12.3182 11.1726 11.5C11.0817 10.9545 11.8999 10.5 13.4454 10.0455L24.7181 7.86364C24.0817 14.5909 23.6272 18.4091 23.5363 19.3182C23.3544 20.6818 22.9908 21.8636 22.1726 21.7727C21.3544 21.5909 20.4454 20.5909 19.809 18.0455C16.1726 24.0455 15.7181 29.5 15.8999 32.4091V32.5H16.9908C20.0817 32.5 23.2635 32.1364 26.3544 31.5C29.1726 30.8636 31.3544 28.6818 31.8999 25.9545C32.5363 23.0455 32.809 20.1364 32.8999 17.1364V15.6818H32.809Z"
        fill="#25A7D9" />
    <path
        d="M9.44538 31.8636C9.6272 25.7727 10.809 22.9545 10.9908 22.5C10.5363 22.6818 7.62719 23.6818 1.6272 23.8636C1.71811 24.5909 1.89993 25.2273 1.99084 25.9545C2.62721 28.7727 4.71811 30.8636 7.53629 31.5C8.17265 31.6818 8.80902 31.7727 9.44538 31.8636Z"
        fill="#25A7D9" />
</svg>