<svg width="32" height="32" viewBox="0 0 32 32" fill="none" xmlns="http://www.w3.org/2000/svg">
    <g clip-path="url(#clip0_2623_259)">
        <path fill-rule="evenodd" clip-rule="evenodd"
            d="M-0.0712891 -0.0712891C10.5954 -0.0712891 21.262 -0.0712891 31.9287 -0.0712891C31.9287 10.5954 31.9287 21.262 31.9287 31.9287C21.262 31.9287 10.5954 31.9287 -0.0712891 31.9287C-0.0712891 21.262 -0.0712891 10.5954 -0.0712891 -0.0712891Z"
            fill="#FEFEFE" />
        <path fill-rule="evenodd" clip-rule="evenodd"
            d="M16.1423 1.6359C16.024 2.81703 15.9766 4.00221 16.0001 5.19146C15.189 5.17365 14.383 5.22106 13.5823 5.33368C13.2603 4.28016 12.9758 3.21349 12.729 2.13368C12.9341 2.08009 13.0764 1.96158 13.1557 1.77813C14.1387 1.64129 15.1343 1.59388 16.1423 1.6359Z"
            fill="#15A294" />
        <path fill-rule="evenodd" clip-rule="evenodd"
            d="M16.1422 1.6354C17.4592 1.5942 18.7392 1.78384 19.9822 2.20429C19.6945 3.44744 19.2678 4.63262 18.7022 5.75984C17.828 5.45845 16.9273 5.26881 16 5.19095C15.9765 4.00171 16.0239 2.81653 16.1422 1.6354Z"
            fill="#1A9F99" />
        <path fill-rule="evenodd" clip-rule="evenodd"
            d="M19.9822 2.2041C21.9826 2.80034 23.7366 3.7959 25.2445 5.19077C25.0287 5.19228 24.8627 5.28708 24.7467 5.47521C24.1232 6.26376 23.5305 7.06968 22.9689 7.89299C22.696 7.60536 22.3878 7.55796 22.0445 7.75077C20.8593 9.8367 19.674 11.9226 18.4889 14.0085C18.3878 14.2741 18.4589 14.4874 18.7022 14.6485C19.0786 14.7192 19.4579 14.743 19.84 14.7197C19.4108 17.9676 17.5619 19.3661 14.2933 18.9152C11.6432 17.8581 10.6714 15.9381 11.3778 13.1552C12.4895 10.8098 14.3147 9.93278 16.8533 10.5241C17.3082 10.6448 17.7111 10.8581 18.0622 11.1641C18.9393 9.69448 19.8163 8.22484 20.6933 6.75521C20.0661 6.34681 19.4024 6.01496 18.7022 5.75966C19.2678 4.63243 19.6945 3.44725 19.9822 2.2041Z"
            fill="#1C999F" />
        <path fill-rule="evenodd" clip-rule="evenodd"
            d="M13.1556 1.77734C13.0763 1.9608 12.9341 2.07931 12.7289 2.1329C12.9758 3.21271 13.2602 4.27937 13.5823 5.3329C12.476 5.60149 11.4331 6.02815 10.4534 6.6129C9.7716 5.72771 9.1553 4.77957 8.60449 3.76845C8.67229 3.62942 8.76709 3.5109 8.88894 3.4129C8.85645 3.35618 8.80904 3.33249 8.74671 3.34179C10.116 2.56911 11.5856 2.04762 13.1556 1.77734Z"
            fill="#17A78F" />
        <path fill-rule="evenodd" clip-rule="evenodd"
            d="M8.74651 3.34181C8.80884 3.33251 8.85625 3.3562 8.88874 3.41292C8.7669 3.51093 8.67209 3.62944 8.60429 3.76848C9.15511 4.77959 9.7714 5.72773 10.4532 6.61292C9.31786 7.32169 8.36973 8.22244 7.60874 9.31514C6.61318 8.46181 5.61763 7.60848 4.62207 6.75514C5.73753 5.30817 7.11234 4.1704 8.74651 3.34181Z"
            fill="#12AB8A" />
        <path fill-rule="evenodd" clip-rule="evenodd"
            d="M25.2443 5.19141C26.1604 5.91707 26.9188 6.7704 27.5199 7.75141C27.368 8.07001 27.131 8.33076 26.8088 8.53363C25.9719 9.11062 25.1186 9.65582 24.2488 10.1692C23.7505 9.45785 23.3239 8.69932 22.9688 7.89363C23.5304 7.07032 24.123 6.2644 24.7465 5.47585C24.8626 5.28772 25.0286 5.19291 25.2443 5.19141Z"
            fill="#1F94A6" />
        <path fill-rule="evenodd" clip-rule="evenodd"
            d="M27.5201 7.75098C28.7435 9.29798 29.5495 11.0521 29.9379 13.0132C29.8093 13.114 29.762 13.2563 29.7957 13.4399C28.6332 13.5424 27.4954 13.6846 26.3824 13.8665C25.5999 12.6815 24.8887 11.449 24.249 10.1688C25.1189 9.65539 25.9722 9.11019 26.809 8.5332C27.1313 8.33033 27.3682 8.06958 27.5201 7.75098Z"
            fill="#2490AC" />
        <path fill-rule="evenodd" clip-rule="evenodd"
            d="M4.62241 6.75586C5.61796 7.60919 6.61352 8.46253 7.60908 9.31586C6.89186 10.5136 6.37038 11.7936 6.04463 13.1559C5.91172 13.3077 5.86432 13.4973 5.90241 13.7247C4.52274 13.4628 3.14792 13.1783 1.77796 12.8714C1.81843 12.5991 1.77101 12.3621 1.63574 12.1603C2.19176 10.0988 3.18732 8.29728 4.62241 6.75586Z"
            fill="#0FAF85" />
        <path fill-rule="evenodd" clip-rule="evenodd"
            d="M1.63578 12.1602C1.77105 12.3619 1.81847 12.599 1.77801 12.8713C3.14796 13.1782 4.52278 13.4626 5.90245 13.7246C5.86436 13.4972 5.91177 13.3075 6.04467 13.1557C6.04467 13.5824 6.04467 14.009 6.04467 14.4357C5.94985 18.5602 5.85505 22.6846 5.76023 26.809C2.69316 23.9434 1.12872 20.3879 1.06689 16.1424C1.11084 14.7918 1.30047 13.4644 1.63578 12.1602Z"
            fill="#0DB281" />
        <path fill-rule="evenodd" clip-rule="evenodd"
            d="M6.04421 14.4355C6.0679 18.6551 6.04421 22.8743 5.9731 27.0933C5.8711 27.016 5.79999 26.9211 5.75977 26.8089C5.85459 22.6844 5.94939 18.56 6.04421 14.4355Z"
            fill="#60C49F" />
        <path fill-rule="evenodd" clip-rule="evenodd"
            d="M29.938 13.0137C30.1476 14.0431 30.2425 15.0861 30.2224 16.1426C30.2532 17.0784 30.1583 17.9791 29.938 18.8448C29.9532 18.5775 29.8821 18.5302 29.7247 18.7026C28.1168 18.3407 26.5287 17.8903 24.9602 17.3514C24.7706 17.2566 24.7706 17.1619 24.9602 17.067C24.8757 17.001 24.7809 16.9773 24.6758 16.9959C24.8847 16.2541 24.9794 15.4954 24.9602 14.7203C25.3981 14.7545 25.8248 14.7071 26.2402 14.5781C26.3756 14.3584 26.423 14.1213 26.3824 13.867C27.4955 13.6851 28.6333 13.5429 29.7958 13.4403C29.7621 13.2567 29.8094 13.1145 29.938 13.0137Z"
            fill="#278AB3" />
        <path fill-rule="evenodd" clip-rule="evenodd"
            d="M24.6756 16.9954C24.7807 16.9768 24.8756 17.0005 24.96 17.0665C24.7705 17.1614 24.7705 17.2561 24.96 17.351C26.5285 17.8898 28.1167 18.3403 29.7245 18.7021C29.8819 18.5297 29.953 18.5771 29.9378 18.8443C29.4786 21.7546 28.1986 24.2197 26.0978 26.2398C24.6376 24.9934 23.2391 23.6661 21.9023 22.2576C21.8791 21.9893 21.9977 21.7759 22.2578 21.6176C22.2254 21.5609 22.1779 21.5373 22.1156 21.5465C23.3871 20.2725 24.2404 18.7554 24.6756 16.9954Z"
            fill="#2A85B8" />
        <path fill-rule="evenodd" clip-rule="evenodd"
            d="M22.1154 21.5469C22.1777 21.5376 22.2252 21.5612 22.2576 21.618C21.9975 21.7763 21.8788 21.9896 21.902 22.258C23.2389 23.6664 24.6374 24.9938 26.0976 26.2402C25.5704 26.9098 24.9541 27.4787 24.2487 27.9469C23.281 26.7774 22.3092 25.5921 21.3331 24.3913C21.0777 23.9039 20.7695 23.4535 20.4087 23.0402C20.4878 22.9857 20.5351 22.9146 20.5509 22.8269C21.0406 22.3676 21.5621 21.941 22.1154 21.5469Z"
            fill="#2B82BB" />
        <path fill-rule="evenodd" clip-rule="evenodd"
            d="M20.5513 22.8271C20.5355 22.9149 20.4882 22.986 20.4091 23.0405C20.7699 23.4538 21.0781 23.9042 21.3335 24.3916C22.3096 25.5924 23.2814 26.7777 24.2491 27.9471C20.2279 30.6782 15.8665 31.3894 11.1646 30.0805C11.141 27.757 11.1647 25.4341 11.2358 23.1116C12.5099 23.8406 13.8847 24.1726 15.3602 24.1071C17.2072 24.1373 18.9375 23.7106 20.5513 22.8271Z"
            fill="#2E81BE" />
    </g>
    <defs>
        <clipPath id="clip0_2623_259">
            <rect width="32" height="32" fill="white" />
        </clipPath>
    </defs>
</svg>