<svg width="32" height="32" viewBox="0 0 32 32" fill="none" xmlns="http://www.w3.org/2000/svg">
    <path
        d="M14.3179 27.7681L5.77319 19.2085V32.0001H11.4776C11.4776 30.0868 12.6526 28.4499 14.3179 27.7681ZM13.2665 13.8317C12.1459 12.7091 10.8876 12.8321 9.6904 14.0314L7.87929 15.8457L11.3013 19.2737L13.1124 17.4594C14.3105 16.2609 14.4019 14.9699 13.2665 13.8317Z"
        fill="#FF6900" />
    <path
        d="M26.3085 15.7574L20.1129 21.9637L17.903 19.7499L22.6047 15.0401L7.5909 0H5.77319V13.6517L7.68071 11.7408C10.4279 8.98887 13.3588 8.75858 15.7533 11.1564C18.2705 13.6773 18.1469 16.7215 15.4006 19.4734L13.4519 21.4255L24.0071 31.9992H26.3093V15.7574H26.3085ZM17.2999 4.25259L25.337 12.3038L26.3093 11.3298V0H20.5974C20.5365 2.02559 19.1645 3.71689 17.2999 4.25259Z"
        fill="#FF6900" />
</svg>