<svg width="32" height="32" viewBox="0 0 32 32" fill="none" xmlns="http://www.w3.org/2000/svg">
    <g clip-path="url(#clip0_2762_182)">
        <path opacity="0.962" fill-rule="evenodd" clip-rule="evenodd"
            d="M15.8731 0C15.8731 5.33002 15.8731 10.66 15.8731 15.9901C11.2641 13.3945 6.78373 10.5962 2.43213 7.59528C2.59361 7.16755 2.86243 6.81219 3.23859 6.52928C6.41938 4.73082 9.55562 2.86531 12.6473 0.932754C13.6384 0.323799 14.7137 0.012872 15.8731 0Z"
            fill="#46A979" />
        <path opacity="0.965" fill-rule="evenodd" clip-rule="evenodd"
            d="M15.873 0C16.5254 0.00612952 17.1526 0.13938 17.7548 0.399752C21.1599 2.26526 24.5648 4.13077 27.97 5.99627C28.6901 6.35498 29.2278 6.88799 29.5829 7.59528C25.2016 10.6573 20.6317 13.4556 15.873 15.9901C15.873 10.66 15.873 5.33002 15.873 0Z"
            fill="#6EBC92" />
        <path opacity="0.937" fill-rule="evenodd" clip-rule="evenodd"
            d="M15.8732 16.7898C15.8732 18.4776 15.8732 20.1655 15.8732 21.8533C10.9818 19.0947 6.18786 16.1632 1.49135 13.0588C1.30396 11.45 1.34877 9.85095 1.62576 8.26175C2.1119 8.25946 2.55994 8.39271 2.96986 8.6615C7.23308 11.4403 11.5342 14.1498 15.8732 16.7898Z"
            fill="#46A97A" />
        <path opacity="0.938" fill-rule="evenodd" clip-rule="evenodd"
            d="M15.873 21.8533C15.873 20.1654 15.873 18.4776 15.873 16.7898C20.5476 13.9166 25.2519 11.0739 29.9861 8.26172C30.4111 9.92005 30.5009 11.6079 30.2549 13.3252C25.5573 16.3415 20.7632 19.1842 15.873 21.8533Z"
            fill="#6EBC92" />
        <path opacity="0.933" fill-rule="evenodd" clip-rule="evenodd"
            d="M15.8729 22.6524C15.8729 24.4292 15.8729 26.2057 15.8729 27.9825C11.0638 24.9982 6.26982 21.9779 1.49103 18.9214C1.26775 17.2266 1.31256 15.5388 1.62544 13.8579C6.42727 16.7256 11.1764 19.6571 15.8729 22.6524Z"
            fill="#46A97A" />
        <path opacity="0.932" fill-rule="evenodd" clip-rule="evenodd"
            d="M15.873 27.9826C15.873 26.2058 15.873 24.4293 15.873 22.6525C20.5605 19.7497 25.3097 16.9071 30.1205 14.1245C30.5305 15.0017 30.7095 15.9344 30.6582 16.9228C30.6514 17.657 30.5616 18.3677 30.3893 19.0548C25.5815 22.0905 20.7427 25.0665 15.873 27.9826Z"
            fill="#6EBC92" />
        <path opacity="0.919" fill-rule="evenodd" clip-rule="evenodd"
            d="M15.8732 28.5157C15.8732 29.6705 15.8732 30.8255 15.8732 31.9802C15.1284 32.0013 14.4115 31.868 13.7226 31.5805C10.2715 29.5585 6.77686 27.6043 3.23865 25.7175C1.47111 24.0564 0.933467 22.0576 1.62573 19.7212C6.33726 22.7223 11.0864 25.6538 15.8732 28.5157Z"
            fill="#46A97A" />
        <path opacity="0.928" fill-rule="evenodd" clip-rule="evenodd"
            d="M15.873 31.9802C15.873 30.8255 15.873 29.6705 15.873 28.5157C20.7043 25.5871 25.543 22.6556 30.3893 19.7212C31.0243 21.9625 30.4866 23.8725 28.7764 25.451C25.4051 27.2533 22.1793 29.2521 19.0989 31.4472C18.0705 31.8856 16.9953 32.0634 15.873 31.9802Z"
            fill="#6EBC93" />
    </g>
    <defs>
        <clipPath id="clip0_2762_182">
            <rect width="32" height="32" fill="white" />
        </clipPath>
    </defs>
</svg>