<svg width="32" height="32" viewBox="0 0 32 32" fill="none" xmlns="http://www.w3.org/2000/svg">
    <g clip-path="url(#clip0_2358_349)">
        <path fill-rule="evenodd" clip-rule="evenodd"
            d="M-0.0712891 -0.0712891C10.5954 -0.0712891 21.262 -0.0712891 31.9287 -0.0712891C31.9287 10.5954 31.9287 21.262 31.9287 31.9287C21.262 31.9287 10.5954 31.9287 -0.0712891 31.9287C-0.0712891 21.262 -0.0712891 10.5954 -0.0712891 -0.0712891Z"
            fill="#FF4070" />
        <path fill-rule="evenodd" clip-rule="evenodd"
            d="M11.3065 8.17767C11.7357 8.15426 12.1624 8.17795 12.5865 8.24878C15.9998 10.3347 19.4131 12.4206 22.8265 14.5066C23.7189 15.0814 23.8847 15.8161 23.3242 16.711C21.2266 18.0799 19.117 19.431 16.9954 20.7643C15.1659 20.874 14.6208 20.0918 15.3598 18.4177C16.7473 17.5938 18.0984 16.7167 19.4131 15.7866C17.3863 14.5481 15.3716 13.2918 13.3687 12.0177C13.3213 13.8192 13.2739 15.6206 13.2265 17.4221C12.2053 18.6124 11.3046 18.5175 10.5242 17.1377C10.4294 14.4828 10.4294 11.828 10.5242 9.17323C10.6617 8.72941 10.9225 8.39755 11.3065 8.17767Z"
            fill="#FFFCFD" />
        <path fill-rule="evenodd" clip-rule="evenodd"
            d="M11.4489 20.5514C12.845 20.5015 13.485 21.1651 13.3689 22.5426C12.5838 23.745 11.683 23.8399 10.6667 22.827C10.2434 21.826 10.5041 21.0676 11.4489 20.5514Z"
            fill="#FFFBFC" />
    </g>
    <defs>
        <clipPath id="clip0_2358_349">
            <rect width="32" height="32" rx="16" fill="white" />
        </clipPath>
    </defs>
</svg>