<svg width="32" height="32" viewBox="0 0 32 32" fill="none" xmlns="http://www.w3.org/2000/svg">
    <g clip-path="url(#clip0_2805_336)">
        <path fill-rule="evenodd" clip-rule="evenodd"
            d="M-0.0712891 -0.0712891C10.5954 -0.0712891 21.262 -0.0712891 31.9287 -0.0712891C31.9287 10.5954 31.9287 21.262 31.9287 31.9287C21.262 31.9287 10.5954 31.9287 -0.0712891 31.9287C-0.0712891 21.262 -0.0712891 10.5954 -0.0712891 -0.0712891Z"
            fill="#FEFEFE" />
        <path fill-rule="evenodd" clip-rule="evenodd"
            d="M22.3999 4.33732C25.4326 4.1707 26.9733 5.59292 27.0221 8.60399C26.4576 11.056 24.9169 12.1701 22.3999 11.9462C20.1866 11.1948 19.2148 9.65402 19.4843 7.32399C19.9133 5.78112 20.8851 4.78557 22.3999 4.33732Z"
            fill="#020202" />
        <path fill-rule="evenodd" clip-rule="evenodd"
            d="M12.5866 6.89736C14.5364 6.80518 16.4326 6.9 18.2755 7.1818C18.0282 10.2207 19.3556 12.1881 22.2577 13.084C23.069 13.1818 23.8748 13.1581 24.6755 13.0129C24.7205 15.4347 24.6494 17.8525 24.4622 20.2662C23.7859 23.2651 21.9134 24.9007 18.8444 25.1729C16.6162 25.2678 14.3882 25.2678 12.16 25.1729C9.2032 24.9653 7.378 23.4246 6.68442 20.5507C6.46024 17.7584 6.41283 14.9614 6.54219 12.1596C7.16473 8.81137 9.17953 7.0573 12.5866 6.89736Z"
            fill="black" />
    </g>
    <defs>
        <clipPath id="clip0_2805_336">
            <rect width="32" height="32" fill="white" />
        </clipPath>
    </defs>
</svg>