<svg width="32" height="32" viewBox="0 0 33 33" fill="none" xmlns="http://www.w3.org/2000/svg">
    <path fill-rule="evenodd" clip-rule="evenodd"
        d="M15.5449 0.477034C20.979 0.34335 25.4667 2.32693 29.0081 6.42798C29.5793 7.1489 30.0385 7.92826 30.3862 8.76586C30.4596 9.15649 30.4596 9.58156 30.3862 10.0411C30.5276 10.1828 30.6688 10.3244 30.8103 10.4661C30.5202 10.6986 30.2728 10.6277 30.0682 10.2536C29.9976 10.4661 29.9268 10.6787 29.8562 10.8912C29.7514 10.5439 29.7162 10.1896 29.7502 9.82853C29.1959 9.87592 28.8425 9.6279 28.6901 9.08466C28.3366 9.01388 27.9834 8.9429 27.63 8.87212C27.8191 8.14037 27.6423 8.0341 27.0999 8.55332C26.9975 8.35184 26.9623 8.13931 26.9939 7.91572C26.7709 7.88405 26.5589 7.91933 26.3579 8.02199C26.6384 8.19542 26.7796 8.44344 26.7819 8.76586C23.6082 5.08264 19.5798 3.38237 14.6968 3.66504C15.8659 3.52328 17.0674 3.38174 18.3012 3.23998C16.9858 2.26168 15.5723 1.44704 14.0608 0.795835C14.5985 0.756303 15.0931 0.650036 15.5449 0.477034Z"
        fill="#4F74F8" />
    <path fill-rule="evenodd" clip-rule="evenodd"
        d="M15.545 0.477482C15.0932 0.650485 14.5986 0.756752 14.0609 0.796283C15.5724 1.44749 16.9859 2.26213 18.3013 3.24042C17.0675 3.38218 15.866 3.52373 14.6969 3.66549C14.1527 3.87271 13.5875 4.01447 13.0008 4.09056C12.8441 4.1184 12.7027 4.08291 12.5768 3.98429C13.0935 3.71246 13.1995 3.39366 12.8948 3.02789C12.8242 3.16965 12.7534 3.3112 12.6828 3.45296C12.616 2.89038 12.3686 2.74883 11.9407 3.02789C11.6871 2.95435 11.6871 2.84809 11.9407 2.70909C11.6439 2.40346 11.2904 2.22642 10.8806 2.17775C10.8806 1.96522 10.8806 1.75269 10.8806 1.54015C12.327 0.81031 13.8819 0.456016 15.545 0.477482Z"
        fill="#4C7DF9" />
    <path fill-rule="evenodd" clip-rule="evenodd"
        d="M10.8806 1.54102C10.8806 1.75355 10.8806 1.96608 10.8806 2.17862C11.2904 2.22729 11.6439 2.40433 11.9407 2.70995C11.6871 2.84895 11.6871 2.95522 11.9407 3.02875C12.3685 2.7497 12.616 2.89124 12.6828 3.45382C12.7534 3.31206 12.8242 3.17051 12.8948 3.02875C13.1994 3.39452 13.0934 3.71333 12.5767 3.98516C12.7027 4.08377 12.8441 4.11927 13.0008 4.09142C11.4978 4.59534 10.0843 5.30372 8.76041 6.21676C8.66755 6.23058 8.59674 6.1953 8.5484 6.1105C9.08777 5.77831 9.08777 5.4595 8.5484 5.15409C8.72352 4.95197 8.75872 4.73944 8.65441 4.51649C8.46507 4.77387 8.28846 4.77387 8.12436 4.51649C8.23567 4.36942 8.37709 4.26315 8.5484 4.19769C8.04464 3.80344 7.90322 3.34288 8.12436 2.81622C8.96183 2.21942 9.88051 1.79436 10.8806 1.54102Z"
        fill="#4884F8" />
    <path fill-rule="evenodd" clip-rule="evenodd"
        d="M14.697 3.66499C19.58 3.38232 23.6083 5.08259 26.782 8.7658C28.6334 11.5936 29.4108 14.7108 29.1142 18.1173C28.8413 18.9277 28.6293 19.7778 28.4782 20.6677C27.8493 22.2109 27.0012 23.6279 25.9339 24.9184C24.8071 26.1181 23.5349 27.1098 22.1176 27.8939C21.5034 28.0275 20.9379 28.2401 20.4215 28.5315C13.6468 30.1469 8.52298 27.9508 5.05011 21.9429C4.70452 21.0777 4.3865 20.2275 4.09603 19.3925C3.94083 17.9099 3.87023 16.4221 3.88401 14.9293C3.89249 14.188 4.03391 13.4796 4.30805 12.8039C4.5771 11.8384 4.96594 10.9175 5.47415 10.041C6.00844 9.24953 6.53848 8.47017 7.06429 7.70313C7.71773 7.30527 8.28318 6.80943 8.76044 6.21539C10.0843 5.30235 11.4978 4.59397 13.0008 4.09005C13.5875 4.01397 14.1527 3.87221 14.697 3.66499Z"
        fill="#F7F7F9" />
    <path fill-rule="evenodd" clip-rule="evenodd"
        d="M8.12447 2.81445C7.90334 3.34111 8.04475 3.80167 8.54851 4.19592C8.3772 4.26138 8.23578 4.36765 8.12447 4.51472C8.28858 4.7721 8.46519 4.7721 8.65452 4.51472C8.75883 4.73767 8.72364 4.95021 8.54851 5.15233C9.08789 5.45774 9.08789 5.77654 8.54851 6.10873C8.59685 6.19353 8.66766 6.22881 8.76053 6.215C8.28328 6.80903 7.71782 7.30487 7.06438 7.70273C7.31393 7.36204 7.27873 7.07873 6.95837 6.8526C6.89307 7.02433 6.78706 7.16609 6.64034 7.27767C6.5532 7.11572 6.51801 6.90318 6.53433 6.64006C6.20231 6.7593 5.91969 6.61754 5.68626 6.215C5.59064 6.73124 5.41382 6.76673 5.15621 6.32126C5.34958 5.9759 5.20816 5.79864 4.73218 5.78993C5.6693 4.56658 6.79999 3.5749 8.12447 2.81445Z"
        fill="#458CF8" />
    <path fill-rule="evenodd" clip-rule="evenodd"
        d="M23.1778 16.4182C23.0103 16.1825 22.9043 15.8992 22.8598 15.5681C22.5402 15.788 22.2222 15.7526 21.9057 15.4618C21.623 15.2493 21.3402 15.0367 21.0576 14.8242C21.1282 14.7534 21.199 14.6824 21.2696 14.6117C21.0576 14.4699 20.8456 14.4699 20.6336 14.6117C20.7042 14.6824 20.775 14.7534 20.8456 14.8242C20.6514 14.9037 20.4745 15.01 20.3155 15.143C20.275 14.6737 20.169 14.2487 19.9975 13.8678C19.8631 13.1998 19.5099 12.6685 18.9374 12.2738C18.0406 11.9996 17.1217 11.8934 16.1812 11.955C16.0186 11.8122 15.8771 11.6351 15.7571 11.4237C15.9346 11.2088 16.0052 10.9608 15.9692 10.6798C15.1819 10.6224 14.5813 10.2683 14.167 9.61712C13.2375 10.1946 12.5306 10.9739 12.0468 11.955C11.9484 11.8288 11.913 11.687 11.9408 11.5299C13.6664 8.68282 16.14 7.72642 19.3614 8.66072C22.6424 10.2441 23.9145 12.8298 23.1778 16.4182Z"
        fill="#4687F8" />
    <path fill-rule="evenodd" clip-rule="evenodd"
        d="M4.73211 5.78906C5.20809 5.79778 5.3495 5.97503 5.15614 6.3204C5.41375 6.76587 5.59057 6.73038 5.68619 6.21413C5.91962 6.61667 6.20224 6.75843 6.53426 6.6392C6.51794 6.90232 6.55313 7.11485 6.64027 7.2768C6.78699 7.16522 6.893 7.02346 6.9583 6.85173C7.27866 7.07787 7.31385 7.36118 7.06431 7.70187C6.5385 8.4689 6.00846 9.24827 5.47417 10.0397C4.96596 10.9162 4.57712 11.8371 4.30807 12.8027C4.13655 12.4811 4.10114 12.1268 4.20206 11.74C3.8005 11.224 3.23526 10.7281 2.50591 10.2523C2.52033 9.86079 2.48492 9.50649 2.3999 9.18961C2.8638 7.83258 3.64127 6.69913 4.73211 5.78906Z"
        fill="#4197F8" />
    <path fill-rule="evenodd" clip-rule="evenodd"
        d="M30.3863 8.76566C31.4794 10.3514 32.1155 12.1226 32.2944 14.079C32.3296 15.2148 32.2942 16.3482 32.1884 17.4796C32.047 16.9127 31.9058 16.9127 31.7644 17.4796C31.3435 16.4445 30.6015 16.0902 29.5382 16.4169C29.4786 17.2007 29.3726 17.9801 29.2202 18.7548C29.1178 18.5533 29.0826 18.3407 29.1142 18.1172C29.4108 14.7107 28.6333 11.5934 26.7819 8.76566C26.7796 8.44325 26.6384 8.19522 26.3579 8.02179C26.5589 7.91914 26.7709 7.88386 26.994 7.91553C26.9624 8.13911 26.9976 8.35165 27.1 8.55313C27.6423 8.03391 27.8191 8.14017 27.63 8.87193C27.9835 8.9427 28.3367 9.01369 28.6901 9.08446C28.8426 9.6277 29.196 9.87573 29.7502 9.82833C29.7163 10.1894 29.7515 10.5437 29.8562 10.891C29.9268 10.6785 29.9976 10.4659 30.0682 10.2534C30.2728 10.6275 30.5203 10.6984 30.8103 10.4659C30.6689 10.3242 30.5277 10.1826 30.3863 10.0409C30.4596 9.58137 30.4596 9.1563 30.3863 8.76566Z"
        fill="#4C7CF8" />
    <path fill-rule="evenodd" clip-rule="evenodd"
        d="M16.1811 11.9551C15.2495 12.5476 14.7547 13.3977 14.697 14.5055C14.5889 16.5333 14.4474 18.021 14.2729 18.9687C14.3081 17.55 14.2729 16.1331 14.1669 14.718C13.2907 14.227 12.478 13.6604 11.7287 13.0177C11.4516 14.6955 11.3104 14.6955 11.3047 13.0177C11.3969 12.453 11.6089 11.957 11.9407 11.53C11.913 11.6871 11.9484 11.8288 12.0468 11.9551C12.5306 10.974 13.2374 10.1946 14.1669 9.61719C14.5812 10.2684 15.1819 10.6225 15.9691 10.6799C16.0051 10.9608 15.9345 11.2089 15.7571 11.4237C15.8771 11.6352 16.0185 11.8122 16.1811 11.9551Z"
        fill="#4091F8" />
    <path fill-rule="evenodd" clip-rule="evenodd"
        d="M2.3998 9.18945C2.48482 9.50634 2.52022 9.86064 2.50581 10.2521C3.23515 10.728 3.80039 11.2238 4.20195 11.7399C4.10103 12.1267 4.13644 12.481 4.30796 12.8025C4.03382 13.4782 3.89241 14.1866 3.88393 14.9279C3.70901 15.8092 3.603 16.7304 3.5659 17.6908C3.39544 16.5748 3.43084 15.4766 3.67191 14.3965C3.40858 13.6831 3.23176 13.7186 3.14186 14.5028C3.00044 14.0777 2.85924 13.6527 2.71782 13.2276C2.64722 13.3694 2.57641 13.5109 2.50581 13.6527C2.22319 13.3694 1.94035 13.0858 1.65773 12.8025C1.58713 13.1568 1.51632 13.5109 1.44571 13.8652C1.27143 13.309 1.16542 12.7422 1.12769 12.1649C1.34861 11.0721 1.77265 10.0802 2.3998 9.18945Z"
        fill="#3EA0F8" />
    <path fill-rule="evenodd" clip-rule="evenodd"
        d="M1.12775 12.166C1.16549 12.7433 1.2715 13.3101 1.44578 13.8663C1.51638 13.512 1.5872 13.1579 1.6578 12.8036C1.94042 13.0869 2.22325 13.3704 2.50587 13.6538C2.57648 13.512 2.64729 13.3704 2.71789 13.2287C2.85931 13.6538 3.00051 14.0788 3.14193 14.5039C3.23182 13.7196 3.40865 13.6841 3.67198 14.3976C3.43091 15.4777 3.3955 16.5759 3.56597 17.6919C3.60307 16.7315 3.70908 15.8103 3.88399 14.929C3.87021 16.4218 3.94081 17.9095 4.09601 19.3922C3.91389 19.79 3.84329 20.1441 3.88399 20.4548C3.59353 20.109 3.2755 19.7548 2.92991 19.3922C2.57648 19.6047 2.22325 19.8172 1.86982 20.0298C1.66967 19.8676 1.56366 19.6551 1.55179 19.3922C1.78989 19.2402 2.00191 18.9924 2.18785 18.6483C1.90904 17.9788 1.4144 17.5892 0.703717 17.4794C0.703717 16.4167 0.703717 15.354 0.703717 14.2914C0.665977 13.5216 0.807394 12.813 1.12775 12.166Z"
        fill="#3FABF9" />
    <path fill-rule="evenodd" clip-rule="evenodd"
        d="M32.2945 14.0781C32.6929 16.5824 32.4809 19.062 31.6584 21.5168C31.2478 21.7485 30.8591 22.032 30.4923 22.3669C30.1289 22.2443 29.8109 21.9255 29.5382 21.4105C29.2556 21.4105 28.9728 21.4105 28.6902 21.4105C28.9728 21.0195 28.9374 20.9132 28.5842 21.0917C28.4858 20.9655 28.4504 20.8237 28.4782 20.6667C28.6293 19.7768 28.8413 18.9267 29.1142 18.1163C29.0826 18.3399 29.1178 18.5524 29.2202 18.7539C29.3727 17.9792 29.4787 17.1998 29.5382 16.416C30.6015 16.0893 31.3436 16.4436 31.7644 17.4787C31.9059 16.9118 32.0471 16.9118 32.1885 17.4787C32.2943 16.3474 32.3297 15.2139 32.2945 14.0781Z"
        fill="#4B8BF8" />
    <path fill-rule="evenodd" clip-rule="evenodd"
        d="M11.3046 13.0176C11.3103 14.6953 11.4515 14.6953 11.7286 13.0176C12.4779 13.6603 13.2905 14.2269 14.1668 14.7178C14.2728 16.1329 14.308 17.5499 14.2728 18.9685C13.2655 18.4217 12.3114 17.7841 11.4106 17.0557C11.3294 17.1739 11.2234 17.2447 11.0925 17.2683C11.0238 15.8115 11.0945 14.3946 11.3046 13.0176Z"
        fill="#3F9AF9" />
    <path fill-rule="evenodd" clip-rule="evenodd"
        d="M19.9974 13.8652C20.1689 14.2461 20.2749 14.6712 20.3154 15.1404C20.4744 15.0074 20.6513 14.9011 20.8455 14.8216C20.7749 14.7509 20.7041 14.6799 20.6335 14.6091C20.8455 14.4673 21.0575 14.4673 21.2695 14.6091C21.1989 14.6799 21.1281 14.7509 21.0575 14.8216C21.3401 15.0342 21.6229 15.2467 21.9056 15.4592C22.2221 15.75 22.5401 15.7855 22.8596 15.5655C22.9042 15.8966 23.0102 16.1799 23.1777 16.4156C22.386 19.0772 20.619 20.5297 17.8772 20.7726C17.7712 20.6663 17.6652 20.5601 17.5592 20.4538C17.4178 19.4619 17.4178 18.4702 17.5592 17.4783C19.4241 17.0007 20.2368 15.7963 19.9974 13.8652Z"
        fill="#4095F8" />
    <path fill-rule="evenodd" clip-rule="evenodd"
        d="M14.6969 14.5039C14.7323 17.551 14.6969 20.5975 14.5908 23.6429C14.4923 23.947 14.3154 24.1948 14.0608 24.3867C13.2833 24.5285 12.5061 24.5285 11.7286 24.3867C11.552 24.2097 11.3752 24.0324 11.1985 23.8554C11.0925 21.6603 11.0573 19.4642 11.0925 17.2668C11.2234 17.2433 11.3294 17.1725 11.4106 17.0543C12.3114 17.7827 13.2655 18.4203 14.2728 18.9671C14.4473 18.0194 14.5887 16.5317 14.6969 14.5039Z"
        fill="#3DA5F8" />
    <path fill-rule="evenodd" clip-rule="evenodd"
        d="M28.4781 20.668C28.4503 20.825 28.4857 20.9668 28.5841 21.093C28.9373 20.9145 28.9727 21.0208 28.6901 21.4118C28.9727 21.4118 29.2555 21.4118 29.5382 21.4118C29.8108 21.9268 30.1288 22.2456 30.4922 22.3682C30.859 22.0333 31.2477 21.7498 31.6583 21.5181C31.0259 23.564 29.9658 25.3352 28.4781 26.8315C27.7782 26.1953 27.0713 25.5577 26.3579 24.9186C26.1609 25.1418 26.0197 25.1418 25.9338 24.9186C27.0011 23.6281 27.8492 22.2112 28.4781 20.668Z"
        fill="#4296F9" />
    <path fill-rule="evenodd" clip-rule="evenodd"
        d="M25.934 24.918C26.0199 25.1411 26.1611 25.1411 26.358 24.918C27.0715 25.5571 27.7784 26.1947 28.4782 26.8308C27.988 27.7472 27.2814 28.4556 26.358 28.9561C26.1507 28.89 26.0093 28.7483 25.934 28.531C26.1768 28.2354 26.1768 27.9521 25.934 27.6809C25.4394 27.3976 24.9445 27.1141 24.4499 26.8308C23.7432 27.2558 23.0364 27.6809 22.3297 28.106C22.201 28.0796 22.1304 28.0088 22.1177 27.8934C23.535 27.1094 24.8071 26.1177 25.934 24.918Z"
        fill="#40A0F8" />
    <path fill-rule="evenodd" clip-rule="evenodd"
        d="M0.703765 14.293C0.703765 15.3556 0.703765 16.4183 0.703765 17.481C1.41445 17.5909 1.90909 17.9804 2.18789 18.6499C2.00195 18.994 1.78994 19.2418 1.55184 19.3938C1.56371 19.6567 1.66972 19.8692 1.86987 20.0314C2.2233 19.8189 2.57652 19.6063 2.92996 19.3938C3.27555 19.7564 3.59358 20.1107 3.88404 20.4565C3.84334 20.1457 3.91394 19.7916 4.09606 19.3938C4.38653 20.2288 4.70455 21.079 5.05014 21.9442C8.52301 27.9521 13.6469 30.1482 20.4215 28.5327C20.4397 28.7444 20.3689 28.9215 20.2095 29.0641C20.458 29.1531 20.67 29.2947 20.8455 29.4891C21.4161 29.3595 21.9815 29.4658 22.5417 29.8079C23.105 29.4649 23.4936 29.6065 23.7078 30.233C23.9505 29.9814 24.198 29.9814 24.4498 30.233C21.1239 32.1936 17.5196 32.8665 13.6369 32.2521C6.13123 30.4668 1.78485 25.7556 0.597756 18.1186C0.424113 16.8049 0.459308 15.5297 0.703765 14.293Z"
        fill="#3AB1F8" />
    <path fill-rule="evenodd" clip-rule="evenodd"
        d="M26.358 28.9554C25.8333 29.538 25.1972 29.963 24.4498 30.2306C24.198 29.979 23.9505 29.979 23.7078 30.2306C23.4936 29.6041 23.105 29.4625 22.5417 29.8056C21.9815 29.4634 21.4161 29.3571 20.8455 29.4868C20.67 29.2923 20.458 29.1507 20.2095 29.0617C20.3689 28.9191 20.4397 28.742 20.4215 28.5303C20.938 28.239 21.5034 28.0264 22.1176 27.8927C22.1304 28.0082 22.201 28.0789 22.3297 28.1053C23.0363 27.6802 23.7432 27.2551 24.4498 26.8301C24.9445 27.1134 25.4393 27.3969 25.934 27.6802C26.1767 27.9514 26.1767 28.2347 25.934 28.5303C26.0092 28.7476 26.1507 28.8893 26.358 28.9554Z"
        fill="#3CA8F9" />
</svg>