<svg width="32" height="32" viewBox="0 0 32 32" fill="none" xmlns="http://www.w3.org/2000/svg">
    <rect width="32" height="32" rx="16" fill="#34B9EF" />
    <path
        d="M27.52 12.5764C27.4374 12.8129 27.3595 13.0368 27.2806 13.2607C26.8234 14.5592 26.3652 15.8577 25.9107 17.1573C25.8837 17.2347 25.8434 17.2619 25.7671 17.2723C23.5459 17.569 21.3931 18.1236 19.3086 18.935C17.4424 19.6616 15.6794 20.5798 14.0266 21.7025C12.6392 22.6443 11.3615 23.7131 10.1977 24.9148C8.70596 26.4545 7.45155 28.1626 6.44346 30.0471C6.43711 30.0597 6.42757 30.0711 6.40002 30.0801C6.40797 30.0058 6.41592 29.9309 6.42439 29.8561C6.4334 29.7808 6.44187 29.706 6.453 29.6312C6.68502 28.0319 7.12682 26.4916 7.77786 25.01C8.60266 23.1319 9.70928 21.4316 11.085 19.9013C12.9343 17.8447 15.1216 16.2265 17.614 15.0075C19.6566 14.0089 21.8031 13.3214 24.0476 12.9295C25.1585 12.7359 26.2768 12.624 27.403 12.5764C27.4363 12.5754 27.4697 12.5764 27.52 12.5764Z"
        fill="black" />
    <path
        d="M21.6738 1.28003C21.42 2.00252 21.1737 2.70514 20.9269 3.40828C20.5947 4.35364 20.261 5.29901 19.9315 6.24542C19.9024 6.32965 19.8578 6.37046 19.7721 6.39714C17.8321 7.00402 16.0041 7.84527 14.3004 8.94863C12.9332 9.83385 11.6851 10.8603 10.5668 12.039C9.57623 13.0832 8.71382 14.2227 7.98544 15.4605C7.96266 15.4998 7.93882 15.539 7.91498 15.5772C7.91127 15.5829 7.90333 15.5861 7.88055 15.6034C7.89539 15.4244 7.90598 15.2591 7.92399 15.0948C8.19575 12.6114 9.07193 10.3512 10.5064 8.30041C12.0533 6.08847 14.0551 4.38085 16.449 3.11478C18.0652 2.26045 19.7752 1.66194 21.5694 1.2952C21.5986 1.28892 21.6282 1.28683 21.6738 1.28003Z"
        fill="black" />
    <path
        d="M24.727 6.87764C24.5776 7.29722 24.4325 7.70688 24.2868 8.1165C23.8736 9.27429 23.4593 10.432 23.0493 11.5909C23.0181 11.6788 22.9762 11.7195 22.8787 11.7399C19.5938 12.4363 16.5421 13.6778 13.7742 15.5706C11.3915 17.1998 9.38747 19.1988 7.80939 21.6053C7.56413 21.9794 7.34429 22.3697 7.11226 22.7527C7.09743 22.7767 7.08048 22.8003 7.0434 22.8165C7.06988 22.5968 7.0916 22.377 7.12232 22.1578C7.33846 20.6239 7.77655 19.1538 8.42547 17.7444C9.13426 16.2058 10.0597 14.8047 11.1865 13.5324C12.7396 11.7781 14.5757 10.3766 16.6523 9.28C18.5 8.30433 20.4547 7.61478 22.509 7.21299C23.2215 7.07383 23.9446 6.98751 24.6629 6.87764C24.6778 6.87555 24.6931 6.87764 24.727 6.87764Z"
        fill="black" />
</svg>