<svg width="32" height="32" viewBox="0 0 32 32" fill="none" xmlns="http://www.w3.org/2000/svg">
    <rect width="32" height="32" rx="15" fill="#DF6A42" />
    <path fill-rule="evenodd" clip-rule="evenodd"
        d="M17.6795 21.9428C17.1692 21.9428 16.9141 21.7797 16.9141 21.502C16.9141 20.7346 17.7818 21.4202 18.1387 19.3956C18.4792 17.4852 19.1259 14.505 19.1259 13.4599C19.1259 12.5621 18.389 12.6039 18.4488 12.0122C18.4908 11.5898 19.9785 11.0469 20.3527 11.0469C21.2501 11.007 21.3298 12.5468 21.2105 13.0367L21.2548 13.0357C21.7087 11.8959 22.454 10.9436 24.3998 10.9375C26.3224 10.9317 27.4283 12.2438 27.4283 14.0398C27.4283 16.4728 25.1484 18.9381 22.5624 18.9381C21.6607 18.9381 21.1767 18.6606 21.1767 18.1708C21.1767 17.8605 21.3808 17.6156 21.5678 17.6156C21.7382 17.6156 21.848 17.73 22.1881 17.73C23.9235 17.6973 25.0806 15.5256 25.0806 14.0725C25.0806 13.1907 24.689 12.2766 23.6343 12.2766C21.5418 12.2766 20.9462 15.9176 20.657 17.2729C20.5547 17.7628 20.1466 19.771 20.1466 20.4571C20.1466 21.0772 20.7421 20.9955 20.7421 21.4529C20.7421 21.7633 20.5039 21.9428 20.0273 21.9428H17.6795Z"
        fill="#FAFAFA" />
    <path fill-rule="evenodd" clip-rule="evenodd"
        d="M16.0803 15.5936H8.60548C8.39713 15.5936 8.22852 15.4043 8.22852 15.1704C8.22852 14.9366 8.39713 14.7471 8.60548 14.7471H16.0803C16.2885 14.7471 16.4571 14.9366 16.4571 15.1704C16.4571 15.4043 16.2885 15.5936 16.0803 15.5936Z"
        fill="#FAFAFA" />
    <path fill-rule="evenodd" clip-rule="evenodd"
        d="M15.6227 18.9803H11.3484C11.1401 18.9803 10.9712 18.7909 10.9712 18.5571C10.9712 18.3232 11.1401 18.1338 11.3484 18.1338H15.6227C15.831 18.1338 15.9998 18.3232 15.9998 18.5571C15.9998 18.7909 15.831 18.9803 15.6227 18.9803Z"
        fill="#FAFAFA" />
    <path fill-rule="evenodd" clip-rule="evenodd"
        d="M16.5464 12.6311H6.60872C5.97058 12.6285 5.43633 12.3899 5.17797 11.9928C4.97378 11.679 4.97953 11.3194 5.19335 11.031C5.34839 10.8219 5.74714 10.4769 6.67367 10.518C6.87671 10.527 7.03276 10.6733 7.02227 10.8448C7.01178 11.0165 6.83763 11.1503 6.63574 11.1396C6.23153 11.1206 5.9348 11.2028 5.81697 11.3615C5.74613 11.4573 5.74829 11.5779 5.82301 11.6929C5.95075 11.8891 6.24518 12.0072 6.61073 12.0088H16.5464C16.7497 12.0088 16.9145 12.148 16.9145 12.3199C16.9145 12.4918 16.7497 12.6311 16.5464 12.6311Z"
        fill="#FAFAFA" />
</svg>