<svg width="32" height="32" viewBox="0 0 32 32" fill="none" xmlns="http://www.w3.org/2000/svg">
    <g clip-path="url(#clip0_2902_3001)">
        <path opacity="0.967" fill-rule="evenodd" clip-rule="evenodd"
            d="M3.59024 3.9121C11.8115 3.88608 20.0326 3.9121 28.2537 3.99015C30.415 4.53832 31.6377 5.91719 31.922 8.12674C32.0261 12.3414 32.0261 16.556 31.922 20.7706C31.5874 23.0312 30.3126 24.4101 28.0976 24.9072C19.9805 25.0113 11.8634 25.0113 3.74634 24.9072C1.93055 24.4446 0.707794 23.3258 0.0780492 21.5511C-0.0260164 16.8162 -0.0260164 12.0812 0.0780492 7.34625C0.66112 5.58753 1.83185 4.4428 3.59024 3.9121ZM7.02439 8.90722C9.21224 8.85531 11.3976 8.90735 13.5805 9.06332C12.2151 11.5343 10.8102 13.9798 9.36585 16.3999C9.73008 16.608 10.0943 16.608 10.4585 16.3999C11.824 13.9289 13.2288 11.4834 14.6732 9.06332C17.0146 8.8552 19.3561 8.8552 21.6976 9.06332C19.5248 12.6278 17.3916 16.218 15.2976 19.8341C12.5413 20.0161 9.78359 20.0421 7.02439 19.9121C6.54463 19.7967 6.20641 19.5106 6.00976 19.0536C5.90569 15.9316 5.90569 12.8097 6.00976 9.68771C6.25375 9.29389 6.59197 9.03373 7.02439 8.90722ZM22.7902 8.90722C23.5206 8.88134 24.249 8.90735 24.9756 8.98527C25.5477 9.24564 25.886 9.68791 25.9902 10.3121C26.0944 13.0178 26.0944 15.7235 25.9902 18.4292C26.0258 19.2719 25.6356 19.7662 24.8195 19.9121C22.0084 20.0421 19.1986 20.0161 16.3902 19.8341C18.5322 16.1864 20.6654 12.5441 22.7902 8.90722Z"
            fill="#1D9ADD" />
        <path opacity="0.956" fill-rule="evenodd" clip-rule="evenodd"
            d="M6.3999 26.2339C12.6958 26.2339 18.9918 26.2339 25.2877 26.2339C25.2877 26.7542 25.2877 27.2746 25.2877 27.7949C18.9918 27.7949 12.6958 27.7949 6.3999 27.7949C6.3999 27.2746 6.3999 26.7542 6.3999 26.2339Z"
            fill="#1D9ADD" />
    </g>
    <defs>
        <clipPath id="clip0_2902_3001">
            <rect width="32" height="32" fill="white" />
        </clipPath>
    </defs>
</svg>