<svg width="32" height="32" viewBox="0 0 33 33" fill="none" xmlns="http://www.w3.org/2000/svg">
    <path fill-rule="evenodd" clip-rule="evenodd"
        d="M17.9185 0.443396C22.302 0.310105 24.493 2.26393 24.4915 6.305C24.4985 7.67681 24.1699 8.97374 23.5055 10.1959C24.9662 10.2295 26.4269 10.2633 27.8875 10.2969C30.2805 10.719 31.796 12.0159 32.4339 14.1878C32.6491 15.6707 32.3388 17.0519 31.5027 18.3314C31.7999 19.6529 31.6356 20.9329 31.0097 22.1717C31.1497 23.8123 30.7115 25.2946 29.6951 26.6185C29.6257 29.984 27.7815 31.8873 24.1628 32.3285C20.962 32.6112 17.8215 32.3416 14.7415 31.52C13.0399 30.9743 11.3237 30.4689 9.59267 30.0041C7.40166 29.9704 5.21066 29.9366 3.01966 29.903C1.54073 29.7514 0.719103 28.9934 0.554778 27.6291C0.481741 23.3171 0.481741 19.0052 0.554778 14.6932C0.834525 13.7556 1.47358 13.1323 2.47191 12.8235C4.62643 12.7898 6.78084 12.7561 8.93537 12.7224C9.35527 12.3351 9.77529 11.9476 10.1952 11.5602C11.427 10.0192 12.7416 8.53705 14.139 7.11349C14.3152 6.82223 14.4612 6.51905 14.5772 6.20394C14.8211 5.22444 15.0768 4.24747 15.3441 3.27313C15.6827 1.90172 16.5408 0.95851 17.9185 0.443396Z"
        fill="#7A35EF" />
    <path fill-rule="evenodd" clip-rule="evenodd"
        d="M18.4661 2.86875C20.4369 2.6832 21.5506 3.4917 21.8074 5.29424C21.8805 5.96802 21.8805 6.6417 21.8074 7.31548C21.2543 8.77411 20.6701 10.2226 20.0546 11.6612C19.9404 11.9903 19.8856 12.3272 19.8903 12.6718C22.4468 12.6549 25.0029 12.6718 27.5588 12.7223C29.4776 13.2468 30.1896 14.409 29.695 16.2089C29.5036 16.9202 29.0472 17.4087 28.3257 17.6743C29.4162 19.1649 29.3067 20.5798 27.997 21.919C28.6526 23.3695 28.3421 24.599 27.0658 25.6077C27.1863 26.6943 27.0038 27.7386 26.5181 28.7406C25.9039 29.4131 25.1189 29.8005 24.1627 29.9029C22.4464 29.9703 20.7302 29.9703 19.0139 29.9029C17.9443 29.7488 16.8854 29.5467 15.8369 29.2965C14.0397 28.7774 12.2503 28.2385 10.469 27.6795C9.8177 27.5621 9.1604 27.5115 8.49707 27.5279C8.49707 23.3844 8.49707 19.2408 8.49707 15.0973C9.38366 15.2269 10.1505 15.0079 10.7976 14.4404C11.2906 13.9856 11.7836 13.5308 12.2766 13.076C13.4716 11.5688 14.7498 10.1203 16.1108 8.73035C16.4516 8.33752 16.7072 7.89962 16.8777 7.41654C17.2577 6.24998 17.5863 5.07089 17.8636 3.87937C17.9808 3.49422 18.1816 3.15738 18.4661 2.86875Z"
        fill="#FEFEFE" />
</svg>