<svg width="32" height="32" viewBox="0 0 32 32" fill="none" xmlns="http://www.w3.org/2000/svg">
<g clip-path="url(#clip0_2131_1702)">
<path fill-rule="evenodd" clip-rule="evenodd" d="M6.61828 6.6376C7.49235 6.61438 8.36507 6.63767 9.23646 6.70747C8.93159 6.81039 8.68916 6.97342 8.50919 7.19655C7.76995 7.58041 7.23661 8.13937 6.90919 8.87341C6.68849 9.14759 6.59153 9.47364 6.61828 9.85158C6.61927 10.1128 6.66775 10.3457 6.76373 10.5503C6.98232 11.2023 7.32171 11.8078 7.78192 12.3669C8.03549 12.5818 8.3264 12.7216 8.65464 12.7861C8.71537 12.8869 8.81235 12.9568 8.94555 12.9957C9.428 13.0653 9.91284 13.0886 10.4001 13.0656C10.7549 12.9883 11.0943 12.9883 11.4183 13.0656C11.5153 12.9724 11.6122 12.8792 11.7092 12.7861C11.9031 12.9724 11.9031 13.1587 11.7092 13.345C11.3523 13.8062 10.9645 13.9459 10.5456 13.7642C10.2394 14.2447 9.85157 14.6173 9.38192 14.8821C9.14215 15.0816 8.85124 15.198 8.50919 15.2315C7.88074 15.3012 7.25044 15.3246 6.61828 15.3014C5.75955 15.2154 5.08075 14.8427 4.58192 14.1835C3.82148 13.2966 3.4336 12.2719 3.41828 11.1092C3.40007 10.3123 3.44855 9.52043 3.56373 8.73367C4.0857 7.38674 5.10388 6.68805 6.61828 6.6376Z" fill="#F8FAFA"/>
<path fill-rule="evenodd" clip-rule="evenodd" d="M30.182 12.5065C30.1432 12.851 30.0462 13.1771 29.8911 13.4847C29.6818 13.6257 29.4879 13.5792 29.3093 13.345C29.1458 13.5426 29.0003 13.7522 28.8729 13.9738C28.7349 14.06 28.6137 14.0368 28.5093 13.9039C28.5084 13.5813 28.4843 13.2785 28.4366 12.9956C28.6433 12.7973 28.7887 12.5644 28.8729 12.2969C28.6425 10.8406 28.5212 9.37333 28.5093 7.89519C28.2611 7.7823 28.14 7.59598 28.1457 7.33624C28.0002 7.33624 27.8547 7.33624 27.7093 7.33624C26.7377 6.62334 25.6226 6.22742 24.3638 6.14847C23.4911 6.0553 22.6184 6.0553 21.7457 6.14847C21.2654 6.24081 20.829 6.40384 20.4366 6.63755C18.9579 7.08348 18.279 8.06165 18.4002 9.57205C18.435 10.1333 18.4834 10.6922 18.5457 11.2489C18.5694 11.5782 18.5452 11.9043 18.4729 12.2271C18.2693 12.0527 18.0511 11.9129 17.8184 11.8079C17.491 11.0604 17.0062 10.4316 16.3638 9.92139C15.9275 9.82823 15.4911 9.82823 15.0547 9.92139C14.7272 10.3037 14.4363 10.6997 14.182 11.1092C13.9013 10.568 13.8043 9.96248 13.8911 9.29257C14.2134 9.32407 14.4559 9.20762 14.6184 8.94323C14.363 8.91497 14.1206 8.8451 13.8911 8.73362C14.6729 8.60132 15.4486 8.46158 16.2184 8.31441C16.2387 8.0875 16.1417 7.92448 15.9275 7.82532C15.5494 7.71786 15.1858 7.74116 14.8366 7.89519C14.5518 7.69229 14.2608 7.6457 13.9638 7.75545C13.8921 7.52711 13.8678 7.29421 13.8911 7.05676C14.6949 7.10168 15.4707 7.0551 16.2184 6.91703C17.9916 6.36365 19.7857 5.82799 21.6002 5.31004C23.4898 5.06766 25.3807 5.04438 27.2729 5.24017C27.7023 5.45296 28.0659 5.35981 28.3638 4.96069C28.4609 5.33333 28.5577 5.33333 28.6547 4.96069C28.6913 5.23081 28.764 5.48699 28.8729 5.72925C30.8961 5.8672 31.4051 6.7755 30.4002 8.45414C30.3518 8.40757 30.3032 8.36098 30.2547 8.31441C30.253 9.37893 30.1318 10.427 29.8911 11.4585C30.0107 11.8039 30.1077 12.1532 30.182 12.5065Z" fill="#17314D"/>
<path fill-rule="evenodd" clip-rule="evenodd" d="M31.9271 6.63757C31.9271 15.0684 31.9271 23.4993 31.9271 31.9302C28.6787 31.9302 25.4301 31.9302 22.1816 31.9302C22.3248 31.6535 22.5187 31.4205 22.7635 31.2315C22.963 31.09 23.1569 30.9503 23.3453 30.8122C23.4901 30.8002 23.6113 30.8469 23.7089 30.952C23.9832 30.7522 24.2257 30.5192 24.4362 30.2533C24.8552 27.9869 24.6855 25.7744 23.9271 23.6157C24.5646 22.4308 24.904 21.1731 24.9453 19.8428C24.754 19.2998 24.851 18.8107 25.2362 18.3756C27.2944 17.1902 28.8458 15.5598 29.8907 13.4847C30.0458 13.1771 30.1428 12.8511 30.1816 12.5066C30.3226 12.2043 30.4438 11.8783 30.5453 11.5284C30.5937 10.4571 30.6423 9.38576 30.6907 8.31443C30.8902 8.09904 31.1083 7.91272 31.3453 7.75548C31.6506 7.43333 31.8445 7.06069 31.9271 6.63757Z" fill="#FDFEFE"/>
<path fill-rule="evenodd" clip-rule="evenodd" d="M-0.0727539 -0.0698242C10.5939 -0.0698242 21.2606 -0.0698242 31.9272 -0.0698242C31.9272 2.16598 31.9272 4.40179 31.9272 6.6376C31.8446 7.06071 31.6507 7.43335 31.3454 7.7555C31.3928 7.14291 31.3443 6.53738 31.2 5.93891C30.6022 5.66719 29.9718 5.50416 29.3091 5.44983C28.3806 3.9523 27.12 2.7878 25.5272 1.95638C22.6328 0.645226 19.5783 0.0164056 16.3636 0.0699138C13.026 -0.0134067 9.87449 0.661993 6.90906 2.09611C5.35896 3.00308 4.09834 4.19086 3.12725 5.65943C2.10602 5.86379 1.11209 6.14326 0.145428 6.49786C0.0484582 7.05681 0.0484582 7.61577 0.145428 8.17472C0.29657 8.34381 0.466267 8.48355 0.654519 8.59393C1.2872 9.30873 1.55386 10.1472 1.45452 11.1092C1.60287 11.8656 1.7968 12.6109 2.03634 13.345C2.8097 14.4362 3.65818 15.4609 4.58179 16.4193C5.70499 17.5672 7.01408 18.4755 8.50906 19.1441C7.52138 20.7855 6.62442 22.4857 5.81815 24.2446C5.06173 25.8746 5.42537 27.2021 6.90906 28.2271C7.19062 28.3407 7.48153 28.4106 7.78179 28.4367C8.08076 30.7501 9.43833 31.7981 11.8545 31.5808C12.3108 31.4968 12.7471 31.3571 13.1636 31.1616C13.8007 30.5033 14.3825 29.8046 14.9091 29.0655C15.5111 28.6665 16.1414 28.6198 16.8 28.9258C17.5306 29.7672 18.3063 30.5591 19.1272 31.3014C20.348 31.7728 21.5603 31.7495 22.7636 31.2315C22.5188 31.4206 22.3249 31.6535 22.1818 31.9302C14.7636 31.9302 7.34543 31.9302 -0.0727539 31.9302C-0.0727539 21.2636 -0.0727539 10.5968 -0.0727539 -0.0698242Z" fill="#FBFCFC"/>
<path fill-rule="evenodd" clip-rule="evenodd" d="M4.58195 14.1834C5.08079 14.8427 5.75958 15.2153 6.61831 15.3013C6.71152 15.4385 6.8085 15.5782 6.90922 15.7205C6.38453 15.8587 5.85119 15.9054 5.30922 15.8602C5.30922 16 5.30922 16.1397 5.30922 16.2794C5.05961 16.2975 4.81718 16.344 4.58195 16.4192C3.65834 15.4609 2.80986 14.4362 2.0365 13.3449C1.79696 12.6108 1.60303 11.8655 1.45468 11.1091C1.55402 10.1471 1.28736 9.30865 0.654679 8.59385C0.492532 8.34136 0.395563 8.06188 0.36377 7.75542C0.450334 7.3865 0.49882 7.01387 0.509224 6.63752C0.708997 6.61562 0.902936 6.63891 1.09104 6.70739C1.20582 7.03788 1.37552 7.34065 1.60013 7.61568C1.7247 7.28473 1.84591 6.95868 1.96377 6.63752C1.764 6.65941 1.57005 6.63612 1.38195 6.56765C1.87317 6.11368 2.35802 6.11368 2.8365 6.56765C3.22438 6.61422 3.61225 6.66081 4.00013 6.70739C3.91754 6.93819 3.72361 7.17109 3.41831 7.40608C2.99175 7.58367 2.60387 7.81657 2.25468 8.10477C2.45091 8.2127 2.57212 8.37573 2.61831 8.59385C2.68786 9.66943 2.68786 10.7408 2.61831 11.8078C2.7528 11.8842 2.87401 11.9774 2.98195 12.0873C3.28304 12.7453 3.59818 13.3975 3.92741 14.0436C4.12925 14.0037 4.34743 14.0503 4.58195 14.1834Z" fill="#142E4C"/>
<path fill-rule="evenodd" clip-rule="evenodd" d="M9.3818 14.8821C9.85146 14.6173 10.2393 14.2446 10.5454 13.7642C10.9644 13.9459 11.3522 13.8061 11.7091 13.345C11.903 13.1587 11.903 12.9723 11.7091 12.786C11.6121 12.8792 11.5151 12.9723 11.4182 13.0655C11.0942 12.9883 10.7548 12.9883 10.4 13.0655C10.4 13.0189 10.4 12.9723 10.4 12.9258C12.4806 12.4374 13.2806 11.1798 12.8 9.15284C11.9579 7.36296 10.5276 6.71086 8.50907 7.19651C8.68904 6.97337 8.93147 6.81034 9.23635 6.70743C8.36496 6.63763 7.49223 6.61433 6.61816 6.63756C8.57509 6.12718 10.466 6.33678 12.2909 7.26638C13.2731 8.15909 13.6367 9.2537 13.3818 10.5502C12.9817 12.8195 11.6484 14.2635 9.3818 14.8821Z" fill="#DFE9EE"/>
<path fill-rule="evenodd" clip-rule="evenodd" d="M25.2361 18.3755C24.851 18.8106 24.7539 19.2997 24.9452 19.8427C24.9039 21.173 24.5646 22.4307 23.927 23.6157C24.6854 25.7743 24.8552 27.9868 24.4361 30.2532C24.2257 30.5191 23.9832 30.7521 23.7089 30.9519C23.6113 30.8468 23.4901 30.8002 23.3452 30.8122C24.1537 30.0724 24.4931 29.1641 24.3634 28.0873C24.2531 26.4862 24.0108 24.9025 23.6361 23.3362C23.6643 22.8872 23.8825 22.5379 24.2907 22.2882C24.8779 21.128 24.7567 20.0567 23.927 19.0742C24.3439 18.8042 24.7803 18.5713 25.2361 18.3755Z" fill="#E8F2F6"/>
<path fill-rule="evenodd" clip-rule="evenodd" d="M31.3455 7.75544C31.1085 7.91269 30.8904 8.099 30.6909 8.31439C30.6425 9.38572 30.5939 10.457 30.5455 11.5284C30.444 11.8782 30.3228 12.2043 30.1818 12.5065C30.1075 12.1532 30.0105 11.8039 29.8909 11.4585C30.1317 10.427 30.2528 9.37892 30.2546 8.31439C30.303 8.36097 30.3516 8.40756 30.4 8.45413C31.405 6.77549 30.8959 5.86719 28.8728 5.72924C28.7638 5.48698 28.6911 5.23079 28.6546 4.96068C28.5576 5.33332 28.4607 5.33332 28.3637 4.96068C28.0658 5.3598 27.7021 5.45295 27.2728 5.24016C27.8906 5.32406 28.0604 5.13773 27.7818 4.6812C25.2082 2.34178 22.1293 1.13072 18.5455 1.04802C17.0194 0.88609 15.4678 0.862801 13.8909 0.978148C13.3193 1.0119 12.7859 1.12835 12.2909 1.32749C11.7545 1.36677 11.2212 1.43664 10.6909 1.5371C8.08663 2.13565 5.95329 3.43987 4.29094 5.44976C6.78102 5.27659 9.25374 5.41632 11.7091 5.86898C13.1195 6.56405 14.6226 6.91339 16.2182 6.91701C15.4706 7.05509 14.6947 7.10166 13.8909 7.05675C13.8676 7.29419 13.8919 7.52709 13.9637 7.75544C14.2606 7.64569 14.5516 7.69228 14.8364 7.89518C15.1856 7.74115 15.5493 7.71785 15.9273 7.82531C16.1416 7.92447 16.2386 8.08749 16.2182 8.31439C15.4485 8.46156 14.6728 8.6013 13.8909 8.73361C14.1204 8.84509 14.3628 8.91496 14.6182 8.94321C14.4557 9.20761 14.2132 9.32406 13.8909 9.29256C13.8041 9.96246 13.9011 10.568 14.1818 11.1092C13.3175 13.4067 11.669 14.9205 9.23639 15.6506C7.98679 15.8818 6.72619 16.0215 5.45457 16.0699C6.84967 17.4159 8.49816 18.3708 10.4 18.9345C10.543 19.1231 10.737 19.2629 10.9818 19.3537C10.9639 19.4385 10.9154 19.485 10.8364 19.4934C10.5322 19.5189 10.2413 19.4722 9.96366 19.3537C9.91518 19.4701 9.86669 19.5866 9.81821 19.703C9.56324 21.7809 9.27233 23.8538 8.94548 25.9214C8.7378 26.5625 8.64083 27.2379 8.65457 27.9476C8.65489 28.3697 8.70339 28.7656 8.80003 29.1354C8.96304 29.4485 9.13274 29.7747 9.30912 30.1135C10.2044 30.7467 11.1984 30.9563 12.2909 30.7423C13.0176 30.1153 13.6236 29.3933 14.1091 28.5764C15.7183 27.5103 17.1728 27.6966 18.4728 29.1354C19.1078 30.7783 20.2957 31.2673 22.0364 30.6026C23.3506 29.7981 23.8112 28.6569 23.4182 27.179C23.2626 25.9095 23.0444 24.6519 22.7637 23.4061C22.2844 23.1758 21.7512 23.0127 21.1637 22.917C21.5804 22.8914 21.9682 22.8216 22.3273 22.7074C23.3077 22.3994 23.7926 21.7474 23.7818 20.7511C23.7538 19.9495 23.366 19.3906 22.6182 19.0742C22.6099 18.9192 22.5615 18.7795 22.4728 18.655C24.2621 17.9602 25.8621 16.9821 27.2728 15.7205C27.6876 15.553 27.8088 15.32 27.6364 15.0218C27.2205 15.2236 26.8085 15.4099 26.4 15.5808C23.4328 16.0046 20.8873 15.2127 18.7637 13.2052C18.4733 12.7181 18.1581 12.2523 17.8182 11.8078C18.0509 11.9129 18.2691 12.0527 18.4728 12.2271C18.545 11.9043 18.5692 11.5782 18.5455 11.2489C18.8195 11.9138 19.2074 12.5194 19.7091 13.0655C20.0045 13.5593 20.4409 13.862 21.0182 13.9738C21.0978 14.103 21.1946 14.2194 21.3091 14.3231C21.9667 14.4525 22.5971 14.6621 23.2 14.9519C26.0541 15.3861 27.7753 14.2449 28.3637 11.5284C28.6274 10.0462 28.4092 8.64877 27.7091 7.33623C27.8546 7.33623 28 7.33623 28.1455 7.33623C28.1398 7.59597 28.261 7.78228 28.5091 7.89518C28.521 9.37331 28.6424 10.8406 28.8728 12.2969C28.7885 12.5644 28.6431 12.7973 28.4364 12.9956C28.4841 13.2785 28.5082 13.5813 28.5091 13.9039C28.6136 14.0368 28.7347 14.06 28.8728 13.9738C29.0002 13.7522 29.1456 13.5425 29.3091 13.345C29.4877 13.5791 29.6816 13.6257 29.8909 13.4847C28.846 15.5598 27.2946 17.1901 25.2364 18.3755C24.7805 18.5713 24.3442 18.8042 23.9273 19.0742C24.757 20.0567 24.8781 21.1281 24.2909 22.2882C23.8828 22.5379 23.6646 22.8872 23.6364 23.3362C24.0111 24.9025 24.2534 26.4862 24.3637 28.0873C24.4934 29.1641 24.1539 30.0724 23.3455 30.8122C23.1571 30.9503 22.9632 31.09 22.7637 31.2314C21.5603 31.7494 20.3481 31.7728 19.1273 31.3013C18.3064 30.559 17.5306 29.7671 16.8 28.9257C16.1414 28.6197 15.5112 28.6664 14.9091 29.0655C14.3826 29.8046 13.8007 30.5032 13.1637 31.1616C12.7472 31.357 12.3108 31.4968 11.8546 31.5808C9.43838 31.7981 8.08081 30.75 7.78184 28.4367C7.48158 28.4105 7.19067 28.3407 6.90912 28.2271C5.42542 27.2021 5.06179 25.8746 5.81821 24.2445C6.62448 22.4856 7.52144 20.7854 8.50912 19.1441C7.01414 18.4754 5.70504 17.5671 4.58184 16.4192C4.81707 16.344 5.0595 16.2975 5.30912 16.2795C5.30912 16.1397 5.30912 16 5.30912 15.8602C5.85108 15.9054 6.38442 15.8587 6.90912 15.7205C6.80839 15.5783 6.71142 15.4385 6.61821 15.3013C7.25037 15.3245 7.88067 15.3012 8.50912 15.2314C8.85117 15.1979 9.14208 15.0815 9.38184 14.8821C11.6484 14.2635 12.9818 12.8195 13.3818 10.5502C13.6368 9.25368 13.2731 8.15907 12.2909 7.26636C10.466 6.33676 8.57514 6.12716 6.61821 6.63754C5.10381 6.68798 4.08563 7.38667 3.56366 8.73361C3.34278 9.1564 3.24582 9.62219 3.27275 10.131C3.27325 10.4839 3.32173 10.8099 3.41821 11.1092C3.43352 12.2718 3.82141 13.2965 4.58184 14.1834C4.34733 14.0504 4.12915 14.0037 3.9273 14.0437C3.59808 13.3975 3.28294 12.7454 2.98184 12.0873C2.8739 11.9774 2.7527 11.8842 2.61821 11.8078C2.68775 10.7408 2.68775 9.66945 2.61821 8.59387C2.57201 8.37575 2.4508 8.21272 2.25457 8.10479C2.60376 7.81659 2.99165 7.58369 3.41821 7.4061C3.7235 7.17111 3.91744 6.93821 4.00003 6.70741C3.61214 6.66083 3.22427 6.61424 2.83639 6.56767C2.35792 6.1137 1.87306 6.1137 1.38184 6.56767C1.56995 6.63614 1.7639 6.65943 1.96366 6.63754C1.8458 6.9587 1.72459 7.28475 1.60003 7.6157C1.37542 7.34067 1.20572 7.0379 1.09094 6.70741C0.90283 6.63893 0.708891 6.61564 0.509118 6.63754C0.498713 7.01389 0.450227 7.38652 0.363663 7.75544C0.395456 8.0619 0.492425 8.34138 0.654572 8.59387C0.46632 8.48349 0.296623 8.34375 0.145481 8.17465C0.0485115 7.6157 0.0485115 7.05675 0.145481 6.4978C1.11214 6.1432 2.10608 5.86372 3.1273 5.65937C4.0984 4.19079 5.35901 3.00302 6.90912 2.09605C9.87454 0.66193 13.026 -0.0134697 16.3637 0.0698508C19.5784 0.0163426 22.6329 0.645163 25.5273 1.95631C27.12 2.78774 28.3807 3.95223 29.3091 5.44976C29.9718 5.50409 30.6022 5.66713 31.2 5.93885C31.3443 6.53732 31.3929 7.14284 31.3455 7.75544Z" fill="#1C334C"/>
<path fill-rule="evenodd" clip-rule="evenodd" d="M8.94551 25.9214C8.85194 26.9904 8.80346 28.0618 8.80005 29.1354C8.70341 28.7656 8.65492 28.3697 8.6546 27.9476C8.64085 27.2379 8.73783 26.5625 8.94551 25.9214Z" fill="#80909F"/>
<path fill-rule="evenodd" clip-rule="evenodd" d="M7.34521 27.4585C7.58764 27.4585 7.83006 27.4585 8.07249 27.4585C8.08194 26.2782 8.2274 25.1136 8.50885 23.9651C8.39794 23.2175 8.4949 22.4721 8.79976 21.7293C8.75128 21.543 8.70279 21.3566 8.65431 21.1703C8.60583 21.1937 8.55733 21.2169 8.50885 21.2402C8.16933 21.7301 7.92692 22.2657 7.78158 22.8472C7.65694 22.9764 7.51148 23.0696 7.34521 23.1267C7.77855 22.015 8.28764 20.9437 8.87249 19.9127C8.93271 19.8488 9.00543 19.8022 9.09067 19.7729C9.13915 19.9592 9.18764 20.1456 9.23612 20.3319C8.95929 22.7654 8.61991 25.1875 8.21794 27.5983C7.89279 27.6395 7.60188 27.5928 7.34521 27.4585Z" fill="#D6E0E8"/>
<path fill-rule="evenodd" clip-rule="evenodd" d="M7.34528 27.4585C6.58503 27.096 6.19715 26.4905 6.18164 25.6419C6.20589 25.4556 6.23012 25.2692 6.25437 25.083C6.66119 24.44 7.02483 23.7879 7.34528 23.1266C7.51155 23.0696 7.657 22.9764 7.78164 22.8471C7.92698 22.2657 8.16939 21.7301 8.50891 21.2402C8.55739 21.2168 8.60589 21.1936 8.65437 21.1703C8.70285 21.3566 8.75134 21.543 8.79982 21.7292C8.49496 22.4721 8.398 23.2174 8.50891 23.965C8.22746 25.1136 8.082 26.2781 8.07255 27.4585C7.83012 27.4585 7.58771 27.4585 7.34528 27.4585Z" fill="#F4F6F7"/>
<path fill-rule="evenodd" clip-rule="evenodd" d="M10.8362 19.4935C12.3215 20.0272 13.873 20.3533 15.4907 20.4717C15.7549 20.7954 16.0458 21.0982 16.3634 21.38C18.0183 21.9894 19.6669 22.5948 21.3089 23.1966C21.8062 23.2312 22.2911 23.3011 22.7634 23.4062C23.0442 24.6519 23.2623 25.9096 23.418 27.1791C23.811 28.657 23.3503 29.7982 22.0362 30.6027C20.2955 31.2674 19.1076 30.7783 18.4725 29.1354C17.1726 27.6967 15.7181 27.5104 14.1089 28.5765C13.6234 29.3934 13.0173 30.1154 12.2907 30.7424C11.1981 30.9563 10.2042 30.7467 9.3089 30.1136C9.13252 29.7747 8.96282 29.4486 8.7998 29.1354C8.80321 28.0618 8.85169 26.9904 8.94526 25.9214C9.27211 23.8539 9.56302 21.781 9.81799 19.7031C9.86647 19.5867 9.91496 19.4702 9.96344 19.3538C10.2411 19.4723 10.532 19.5189 10.8362 19.4935Z" fill="#FAFCFC"/>
<path fill-rule="evenodd" clip-rule="evenodd" d="M22.6183 19.0742C23.3661 19.3906 23.7539 19.9495 23.7819 20.7511C23.7927 21.7474 23.3078 22.3994 22.3274 22.7074C21.8884 22.7304 21.4521 22.7071 21.0183 22.6375C19.4963 22.1156 17.9931 21.5566 16.5092 20.9607C15.3083 19.7526 15.3569 18.6114 16.6547 17.5371C16.9126 17.4551 17.1792 17.4085 17.4547 17.3973C19.225 17.8322 20.9462 18.3912 22.6183 19.0742Z" fill="#F7F8F9"/>
<path fill-rule="evenodd" clip-rule="evenodd" d="M22.4726 18.655C22.5614 18.7795 22.6098 18.9192 22.6181 19.0742C20.9459 18.3912 19.2248 17.8322 17.4544 17.3973C17.179 17.4085 16.9123 17.455 16.6544 17.5371C15.3567 18.6114 15.3081 19.7526 16.509 20.9607C17.9929 21.5566 19.496 22.1156 21.0181 22.6375C21.4518 22.7071 21.8882 22.7304 22.3272 22.7074C21.968 22.8215 21.5803 22.8914 21.1635 22.917C21.751 23.0127 22.2843 23.1758 22.7635 23.4061C22.2912 23.301 21.8063 23.2311 21.309 23.1965C19.667 22.5947 18.0184 21.9893 16.3635 21.3799C16.0459 21.0982 15.755 20.7953 15.4908 20.4716C13.8731 20.3532 12.3216 20.0271 10.8363 19.4934C10.9153 19.485 10.9637 19.4385 10.9817 19.3537C10.7368 19.2628 10.5429 19.1231 10.3999 18.9345C11.9424 19.4998 13.5424 19.7793 15.1999 19.7729C15.0828 17.6725 16.101 16.7642 18.2544 17.048C19.7061 17.5139 21.1122 18.0495 22.4726 18.655Z" fill="#2E3F4E"/>
<path fill-rule="evenodd" clip-rule="evenodd" d="M27.2726 15.7205C27.2917 15.5981 27.2432 15.5049 27.1272 15.4411C26.8987 15.5541 26.6562 15.6008 26.3999 15.5808C26.8083 15.4099 27.2204 15.2236 27.6363 15.0219C27.8086 15.3201 27.6875 15.553 27.2726 15.7205Z" fill="#A4BAC9"/>
<path fill-rule="evenodd" clip-rule="evenodd" d="M8.65479 12.786C9.23164 12.8785 9.81346 12.9251 10.4002 12.9257C10.4002 12.9723 10.4002 13.0189 10.4002 13.0655C9.91298 13.0885 9.42814 13.0652 8.94569 12.9956C8.81249 12.9567 8.71551 12.8868 8.65479 12.786Z" fill="#6F7E8B"/>
<path fill-rule="evenodd" clip-rule="evenodd" d="M17.8182 11.8079C18.1582 12.2524 18.4734 12.7182 18.7637 13.2053C20.8873 15.2128 23.4328 16.0046 26.4 15.5808C26.6563 15.6008 26.8988 15.5541 27.1273 15.4411C27.2434 15.5049 27.2918 15.5982 27.2728 15.7206C25.8622 16.9821 24.2622 17.9603 22.4728 18.6551C21.1123 18.0496 19.7062 17.514 18.2546 17.0481C16.1011 16.7643 15.083 17.6726 15.2 19.773C13.5426 19.7794 11.9426 19.4999 10.4 18.9345C8.49818 18.3708 6.84969 17.416 5.45459 16.0699C6.72621 16.0216 7.98681 15.8818 9.23641 15.6507C11.669 14.9206 13.3175 13.4068 14.1819 11.1092C14.4361 10.6997 14.727 10.3038 15.0546 9.92143C15.491 9.82827 15.9273 9.82827 16.3637 9.92143C17.006 10.4316 17.4908 11.0604 17.8182 11.8079Z" fill="#F8FAFA"/>
<path fill-rule="evenodd" clip-rule="evenodd" d="M6.90902 8.87341C6.81271 9.4276 6.76422 9.98655 6.76356 10.5503C6.66758 10.3457 6.6191 10.1128 6.61811 9.85158C6.59136 9.47364 6.68832 9.14759 6.90902 8.87341Z" fill="#929BA2"/>
<path fill-rule="evenodd" clip-rule="evenodd" d="M3.56386 8.73364C3.44867 9.5204 3.40019 10.3122 3.4184 11.1092C3.32192 10.81 3.27344 10.4839 3.27295 10.131C3.24601 9.62222 3.34297 9.15643 3.56386 8.73364Z" fill="#94A5B0"/>
<path fill-rule="evenodd" clip-rule="evenodd" d="M21.0183 6.77735C23.7086 6.74813 24.945 8.00578 24.7274 10.5503C24.0663 12.3 22.7815 13.022 20.8728 12.7162C20.3653 12.4958 19.8804 12.2396 19.4183 11.9477C17.9281 9.62924 18.4615 7.90579 21.0183 6.77735Z" fill="#16314E"/>
<path fill-rule="evenodd" clip-rule="evenodd" d="M20.4364 6.63757C20.5917 6.76816 20.7856 6.81473 21.0182 6.77731C18.4614 7.90575 17.928 9.6292 19.4182 11.9476C19.3107 11.9293 19.2137 11.9526 19.1273 12.0175C19.4173 12.319 19.6113 12.6683 19.7091 13.0655C19.2074 12.5194 18.8195 11.9139 18.5454 11.2489C18.4832 10.6922 18.4348 10.1333 18.4 9.57207C18.2788 8.06167 18.9577 7.08351 20.4364 6.63757Z" fill="#CAD9E6"/>
<path fill-rule="evenodd" clip-rule="evenodd" d="M10.4 12.9257C9.81326 12.9251 9.23144 12.8785 8.65458 12.786C8.32633 12.7215 8.03542 12.5818 7.78185 12.3668C7.32165 11.8077 6.98226 11.2022 6.76367 10.5502C6.76433 9.98648 6.81282 9.42753 6.90913 8.87334C7.23654 8.1393 7.76988 7.58035 8.50913 7.19649C10.5277 6.71084 11.958 7.36294 12.8 9.15282C13.2807 11.1798 12.4807 12.4374 10.4 12.9257Z" fill="#16314D"/>
<path fill-rule="evenodd" clip-rule="evenodd" d="M27.7093 7.33626C28.4093 8.6488 28.6275 10.0462 28.3638 11.5284C27.7754 14.2449 26.0543 15.3861 23.2002 14.952C22.5973 14.6622 21.9669 14.4526 21.3093 14.3232C21.1948 14.2195 21.0979 14.1031 21.0184 13.9738C20.441 13.8621 20.0047 13.5593 19.7093 13.0655C19.6115 12.6683 19.4175 12.319 19.1274 12.0175C19.2138 11.9526 19.3109 11.9293 19.4184 11.9476C19.8805 12.2396 20.3654 12.4957 20.8729 12.7162C22.7816 13.022 24.0664 12.3 24.7274 10.5502C24.945 8.00573 23.7087 6.74809 21.0184 6.77731C20.7858 6.81473 20.5919 6.76815 20.4365 6.63757C20.829 6.40386 21.2653 6.24082 21.7456 6.14849C22.6184 6.05532 23.4911 6.05532 24.3638 6.14849C25.6226 6.22744 26.7376 6.62336 27.7093 7.33626Z" fill="#F5F8F8"/>
<path fill-rule="evenodd" clip-rule="evenodd" d="M18.5456 1.04798C22.1294 1.13068 25.2083 2.34174 27.7819 4.68116C28.0605 5.13769 27.8907 5.32401 27.2728 5.24012C25.3806 5.04433 23.4897 5.06761 21.6001 5.30999C19.7856 5.82794 17.9915 6.3636 16.2183 6.91697C14.6227 6.91335 13.1196 6.56401 11.7092 5.86894C9.25382 5.41628 6.7811 5.27655 4.29102 5.44972C5.95337 3.43983 8.08671 2.13561 10.691 1.53706C11.2213 1.4366 11.7546 1.36673 12.291 1.32745C14.3674 1.09321 16.4523 1.00005 18.5456 1.04798Z" fill="#FAFCFC"/>
<path fill-rule="evenodd" clip-rule="evenodd" d="M18.5456 1.04797C16.4523 1.00005 14.3674 1.09321 12.291 1.32745C12.786 1.12831 13.3194 1.01186 13.891 0.978105C15.4679 0.862759 17.0195 0.886047 18.5456 1.04797Z" fill="#B4C0CF"/>
</g>
<defs>
<clipPath id="clip0_2131_1702">
<rect width="32" height="32" fill="white"/>
</clipPath>
</defs>
</svg>

