<svg width="32" height="32" viewBox="0 0 32 32" fill="none" xmlns="http://www.w3.org/2000/svg">
    <g clip-path="url(#clip0_3738_967)">
        <path opacity="0.039" fill-rule="evenodd" clip-rule="evenodd"
            d="M17.6799 -0.015625C17.6906 -0.015625 17.7013 -0.015625 17.7119 -0.015625C17.706 0.00581957 17.6953 0.00581957 17.6799 -0.015625Z"
            fill="#1689F5" />
        <path opacity="0.159" fill-rule="evenodd" clip-rule="evenodd"
            d="M17.616 0.0480478C17.6269 0.0212239 17.6482 0.0105572 17.68 0.0160478C17.669 0.0428718 17.6477 0.0535384 17.616 0.0480478Z"
            fill="#1689F5" />
        <path opacity="0.257" fill-rule="evenodd" clip-rule="evenodd"
            d="M17.552 0.0802744C17.5629 0.0534504 17.5843 0.0427838 17.616 0.0482744C17.6051 0.0750984 17.5837 0.0857649 17.552 0.0802744Z"
            fill="#1689F5" />
        <path opacity="0.866" fill-rule="evenodd" clip-rule="evenodd"
            d="M17.5519 0.0800781C16.9846 0.417678 16.478 0.833678 16.0319 1.32808C15.477 2.05438 15.2317 2.87572 15.2959 3.79208C15.3579 4.55185 15.5499 5.2772 15.8719 5.96808C16.0956 6.43685 16.3356 6.8955 16.5919 7.34408C16.5178 7.46075 16.4325 7.56744 16.3359 7.66408C15.6245 6.54984 15.1925 5.33384 15.0399 4.01608C14.965 2.34377 15.653 1.1011 17.1039 0.288078C17.2501 0.20962 17.3995 0.140286 17.5519 0.0800781Z"
            fill="#1689F5" />
        <path opacity="0.985" fill-rule="evenodd" clip-rule="evenodd"
            d="M20.4319 7.56812C20.7656 7.17548 21.107 6.78617 21.4559 6.40012C23.5258 4.94927 25.7764 3.85596 28.2079 3.12012C28.7374 3.48009 29.004 3.98674 29.0079 4.64012C28.9653 5.31711 28.8 5.96245 28.5119 6.57612C28.3892 6.74146 28.2452 6.88546 28.0799 7.00812C27.197 7.73769 26.2584 8.38837 25.2639 8.96012C26.0294 8.80745 26.7921 8.63145 27.5519 8.43212C27.5679 8.44277 27.5839 8.45346 27.5999 8.46412C26.8506 9.78188 26.0452 11.0619 25.1839 12.3041C24.855 12.7184 24.4656 13.065 24.0159 13.3441C22.5993 14.1966 21.1379 14.9753 19.6319 15.6801C19.6639 15.7015 19.6959 15.7015 19.7279 15.6801C21.1751 15.0895 22.6151 14.4922 24.0479 13.8881C23.4922 14.6528 22.9642 15.4368 22.4639 16.2401C22.1487 16.6784 21.818 17.105 21.4719 17.5201C20.742 18.2606 20.0007 18.9913 19.2479 19.7121C18.0076 20.4709 16.7063 21.1109 15.3439 21.6321C16.2238 21.5015 17.0825 21.2828 17.9199 20.9761C16.8415 22.0531 15.6095 22.9331 14.2239 23.6161C13.7084 23.852 13.175 24.0227 12.6239 24.1281C14.7376 18.4464 17.9162 13.465 22.1599 9.18412C22.1386 9.16277 22.1172 9.16277 22.0959 9.18412C18.3244 12.7444 15.2897 16.8457 12.9919 21.4881C12.3393 22.932 11.678 24.372 11.0079 25.8081C10.4834 27.0385 9.95005 28.2652 9.40791 29.4881C9.36266 29.755 9.46397 29.9416 9.71191 30.0481C9.80954 30.135 9.89488 30.231 9.96791 30.3361C9.41949 30.6584 8.87549 30.989 8.33591 31.3281C8.09338 31.4852 7.86938 31.6665 7.66391 31.8721C7.58631 31.9037 7.53299 31.8823 7.50391 31.8081C7.99552 30.7449 8.49152 29.6835 8.99191 28.6241C9.72973 26.8178 10.4764 25.0151 11.2319 23.2161C11.7423 19.6159 12.969 16.2879 14.9119 13.2321C14.9172 13.2481 14.9226 13.2641 14.9279 13.2801C14.8516 13.4946 14.8036 13.7133 14.7839 13.9361C14.9562 13.3997 15.1802 12.8877 15.4559 12.4001C16.9641 10.2625 18.7668 8.40652 20.8639 6.83212C20.8852 6.85346 20.8852 6.87477 20.8639 6.89612C20.7033 7.11106 20.5593 7.33506 20.4319 7.56812ZM20.4319 7.56812C20.4342 7.61698 20.4129 7.64898 20.3679 7.66412C20.3656 7.61525 20.3869 7.58325 20.4319 7.56812ZM9.16791 30.0321C9.37754 30.076 9.43619 30.1933 9.34391 30.3841C9.08992 30.4932 8.98327 30.4079 9.02391 30.1281C9.07677 30.0994 9.12477 30.0674 9.16791 30.0321Z"
            fill="#1689F5" />
        <path opacity="0.956" fill-rule="evenodd" clip-rule="evenodd"
            d="M23.7919 17.7764C24.4474 18.9278 24.9541 20.1438 25.3119 21.4244C25.5172 22.1814 25.5812 22.9494 25.5039 23.7284C25.2824 25.102 24.4984 25.9713 23.1519 26.3364C22.4603 26.5239 21.7563 26.6039 21.0399 26.5764C19.0026 26.5092 17.0186 26.1518 15.0879 25.5044C15.3065 25.3497 15.5252 25.195 15.7439 25.0404C17.2344 25.4764 18.7544 25.759 20.3039 25.8884C21.1785 25.9564 22.0425 25.8924 22.8959 25.6964C24.2095 25.3257 24.8709 24.4564 24.8799 23.0884C24.8508 22.4234 24.7388 21.7728 24.5439 21.1364C24.2312 20.1343 23.8312 19.1689 23.3439 18.2404C23.4997 18.0899 23.6491 17.9352 23.7919 17.7764Z"
            fill="#1689F5" />
        <path opacity="0.896" fill-rule="evenodd" clip-rule="evenodd"
            d="M7.72796 22.4805C7.77062 22.4805 7.8133 22.4805 7.85596 22.4805C7.83292 22.6609 7.82226 22.8422 7.82396 23.0245C6.73446 23.0343 5.6998 23.2743 4.71996 23.7445C3.58668 24.4489 3.12269 25.4676 3.32796 26.8005C3.53087 27.9318 3.91487 28.9984 4.47996 30.0005C4.86358 30.6732 5.26892 31.3239 5.69596 31.9525C4.69551 30.7633 3.90617 29.4406 3.32796 27.9845C3.1149 27.3672 2.99223 26.7325 2.95996 26.0805C3.01098 24.6858 3.67231 23.7045 4.94396 23.1365C5.84361 22.7808 6.77161 22.5622 7.72796 22.4805Z"
            fill="#1689F5" />
    </g>
    <defs>
        <clipPath id="clip0_3738_967">
            <rect width="32" height="32" fill="white" />
        </clipPath>
    </defs>
</svg>