<svg width="32" height="32" viewBox="0 0 32 32" fill="none" xmlns="http://www.w3.org/2000/svg">
    <path fill-rule="evenodd" clip-rule="evenodd"
        d="M8.47998 0.160148C10.6374 -0.246777 12.4508 0.339889 13.92 1.92015C15.2 2.56015 16.48 2.56015 17.76 1.92015C19.7522 -0.0183072 21.9922 -0.338306 24.48 0.960148C26.8118 3.88661 26.3851 6.33992 23.2 8.32015C22.24 8.53349 21.28 8.53349 20.32 8.32015C19.2598 7.69032 18.1931 7.05032 17.12 6.40015C16.2666 6.1868 15.4133 6.1868 14.56 6.40015C13.4868 7.05032 12.4202 7.69032 11.36 8.32015C8.17105 8.8109 6.25105 7.47756 5.59998 4.32015C5.857 2.41114 6.817 1.02447 8.47998 0.160148Z"
        fill="#696969" />
    <path fill-rule="evenodd" clip-rule="evenodd"
        d="M3.68001 9.75977C7.76517 10.2752 9.20517 12.5152 8.00001 16.4798C6.38501 18.3958 4.41169 18.8758 2.08001 17.9198C-0.0225252 16.0557 -0.395857 13.8691 0.960015 11.3598C1.76986 10.5907 2.67652 10.0574 3.68001 9.75977Z"
        fill="#3B69CD" />
    <path fill-rule="evenodd" clip-rule="evenodd"
        d="M15.84 18.7204C14.3411 18.4976 13.0611 17.8576 12 16.8004C10.7667 11.6916 12.6867 9.50487 17.76 10.2404C19.884 11.5257 20.5774 13.3924 19.84 15.8404C18.9343 17.3873 17.601 18.3473 15.84 18.7204Z"
        fill="#6A6A6A" />
    <path fill-rule="evenodd" clip-rule="evenodd"
        d="M26.72 9.75977C30.6179 9.97884 32.1645 12.0055 31.36 15.8398C30.585 17.3618 29.3584 18.2685 27.68 18.5598C26.449 19.421 25.7023 20.5944 25.44 22.0798C26.4975 26.8894 24.5775 28.9161 19.68 28.1598C17.6095 26.8394 16.9162 24.9728 17.6 22.5598C18.0665 21.7726 18.6531 21.0793 19.36 20.4798C21.8821 20.1442 23.2688 18.7042 23.52 16.1598C22.5657 12.9479 23.6324 10.8146 26.72 9.75977Z"
        fill="#696969" />
    <path fill-rule="evenodd" clip-rule="evenodd"
        d="M12 16.7998C13.0611 17.857 14.3411 18.497 15.84 18.7198C15.3067 19.0398 14.88 19.4665 14.56 19.9998C13.55 19.224 12.59 18.3707 11.68 17.4398C11.6251 17.1225 11.7318 16.9091 12 16.7998Z"
        fill="#778093" />
    <path fill-rule="evenodd" clip-rule="evenodd"
        d="M11.68 17.4404C12.59 18.3713 13.55 19.2247 14.56 20.0004C14.6149 20.3177 14.5082 20.5311 14.24 20.6404C13.1014 19.8612 11.8214 19.4345 10.4 19.3604C10.9522 18.8075 11.3789 18.1675 11.68 17.4404Z"
        fill="#6F82A6" />
    <path fill-rule="evenodd" clip-rule="evenodd"
        d="M9.43998 20C10.8677 20.7137 12.3611 21.2471 13.92 21.6C15.0571 26.5408 13.1371 28.7275 8.15998 28.16C5.02478 25.7284 4.91813 23.1684 7.83998 20.48C8.36942 20.2855 8.90273 20.1255 9.43998 20Z"
        fill="#3969CD" />
    <path fill-rule="evenodd" clip-rule="evenodd"
        d="M9.44 20C9.54935 19.7318 9.76269 19.6251 10.08 19.68C11.5703 19.9984 12.8503 20.6384 13.92 21.6C12.3611 21.2471 10.8677 20.7137 9.44 20Z"
        fill="#4A71C3" />
    <path fill-rule="evenodd" clip-rule="evenodd"
        d="M10.08 19.6804C10.08 19.467 10.1867 19.3604 10.4 19.3604C11.8214 19.4344 13.1014 19.8611 14.24 20.6404C14.316 21.0535 14.2093 21.3735 13.92 21.6004C12.8504 20.6388 11.5704 19.9988 10.08 19.6804Z"
        fill="#607DB8" />
</svg>