<svg width="32" height="32" viewBox="0 0 32 32" fill="none" xmlns="http://www.w3.org/2000/svg">
    <g clip-path="url(#clip0_3672_516)">
        <path fill-rule="evenodd" clip-rule="evenodd"
            d="M1.38854 18.0098C2.29333 18.0098 3.02512 18.7458 3.02512 19.6557V20.9136C3.02512 21.8236 2.29333 22.5596 1.38854 22.5596C0.48376 22.5596 -0.248047 21.8236 -0.248047 20.927V19.6691C-0.248047 18.7458 0.48376 18.0098 1.38854 18.0098Z"
            fill="#EE4013" />
        <path fill-rule="evenodd" clip-rule="evenodd"
            d="M30.1152 18.0098C31.0199 18.0098 31.7519 18.7458 31.7519 19.6557V20.9136C31.7519 21.8236 31.0199 22.5596 30.1152 22.5596C29.2106 22.5596 28.4785 21.8236 28.4785 20.9136V19.6557C28.4785 18.7458 29.2106 18.0098 30.1152 18.0098Z"
            fill="#2E8CF0" />
        <path fill-rule="evenodd" clip-rule="evenodd"
            d="M6.17857 16.0029C7.08336 16.0029 7.81515 16.7389 7.81515 17.6489V20.9274C7.81515 21.8374 7.08336 22.5734 6.17857 22.5734C5.27379 22.5734 4.54199 21.824 4.54199 20.9274V17.6355C4.54199 16.7255 5.27379 16.0029 6.17857 16.0029Z"
            fill="#FF9902" />
        <path fill-rule="evenodd" clip-rule="evenodd"
            d="M25.3252 16.0029C26.2298 16.0029 26.9616 16.7389 26.9616 17.6489V20.9274C26.9616 21.8374 26.2298 22.5734 25.3252 22.5734C24.4202 22.5734 23.6885 21.8374 23.6885 20.9274V17.6355C23.6885 16.7255 24.4202 16.0029 25.3252 16.0029Z"
            fill="#2E8CF0" />
        <path fill-rule="evenodd" clip-rule="evenodd"
            d="M10.9686 12.9658C11.8734 12.9658 12.6052 13.7018 12.6052 14.6118V20.928C12.6052 21.8379 11.8734 22.5739 10.9686 22.5739C10.0638 22.5739 9.33203 21.8246 9.33203 20.928V14.6118C9.33203 13.7018 10.0638 12.9658 10.9686 12.9658Z"
            fill="#17BE6B" />
        <path fill-rule="evenodd" clip-rule="evenodd"
            d="M20.5355 12.9658C21.4403 12.9658 22.1721 13.7018 22.1721 14.6118V20.928C22.1721 21.8379 21.4403 22.5739 20.5355 22.5739C19.6307 22.5739 18.8989 21.8379 18.8989 20.928V14.6118C18.8989 13.7018 19.644 12.9658 20.5355 12.9658Z"
            fill="#2E8CF0" />
        <path fill-rule="evenodd" clip-rule="evenodd"
            d="M15.7587 9.17871C16.6634 9.17871 17.3952 9.91471 17.3952 10.8247V20.9279C17.3952 21.8379 16.6634 22.5739 15.7587 22.5739C14.8539 22.5739 14.1221 21.8245 14.1221 20.9279V10.8247C14.1221 9.91471 14.8539 9.17871 15.7587 9.17871Z"
            fill="#2E8CF0" />
    </g>
    <defs>
        <clipPath id="clip0_3672_516">
            <rect width="32" height="32" fill="white" />
        </clipPath>
    </defs>
</svg>