<svg width="32" height="32" viewBox="0 0 33 33" fill="none" xmlns="http://www.w3.org/2000/svg">
    <path fill-rule="evenodd" clip-rule="evenodd"
        d="M22.2381 3.50904C24.4258 5.97786 26.7505 8.30954 29.2119 10.504C30.7178 11.8807 31.8119 13.5265 32.4937 15.4417C32.4937 16.2646 32.4937 17.0876 32.4937 17.9105C31.96 18.9809 31.4131 20.0781 30.8528 21.2023C29.8957 21.8881 29.0753 22.711 28.3914 23.6711C27.1607 24.6312 26.0667 25.7284 25.1096 26.9629C23.4687 28.4716 21.8278 29.9803 20.1869 31.489C17.7461 33.1287 15.2849 33.1287 12.8029 31.489C10.8885 29.706 8.97418 27.9229 7.05979 26.1399C5.69239 24.494 4.18823 22.9853 2.54733 21.6137C1.12985 19.8171 0.446128 17.7598 0.496217 15.4417C1.52498 13.0377 3.02914 10.9804 5.00868 9.26962C7.33329 7.21227 9.52113 5.01778 11.5723 2.6861C15.326 -0.187448 18.8812 0.0868796 22.2381 3.50904Z"
        fill="#FAFBFC" />
    <path fill-rule="evenodd" clip-rule="evenodd"
        d="M18.9561 6.80102C17.9888 5.32914 16.6215 4.84912 14.8539 5.36087C14.2231 6.06337 13.5395 6.68058 12.8027 7.21249C12.8027 6.2524 12.8027 5.29228 12.8027 4.33219C12.9395 3.92072 13.213 3.64639 13.6232 3.50925C16.2226 2.19736 18.5471 2.60883 20.597 4.74366C19.8159 5.26454 19.2691 5.9503 18.9561 6.80102Z"
        fill="#9FBED0" />
    <path fill-rule="evenodd" clip-rule="evenodd"
        d="M21.8281 5.15501C21.8281 7.76098 21.8281 10.367 21.8281 12.9729C20.5982 14.2761 19.4361 15.6476 18.3412 17.0877C18.0676 17.9106 18.0676 18.7335 18.3412 19.5565C19.0521 20.4712 19.6674 21.4313 20.1872 22.4368C19.6654 23.6465 18.8449 24.6066 17.7258 25.3171C17.8596 21.9495 17.7226 18.6578 17.3156 15.4418C18.3941 14.1536 19.5563 12.9192 20.8025 11.7385C21.7058 9.56605 21.0905 7.92017 18.9565 6.80089C19.2695 5.95018 19.8163 5.26442 20.5974 4.74354C18.5475 2.60871 16.223 2.19724 13.6236 3.50913C13.6236 3.2348 13.4869 3.09766 13.2134 3.09766C16.6449 1.13153 19.5165 1.81733 21.8281 5.15501Z"
        fill="#4498C3" />
    <path fill-rule="evenodd" clip-rule="evenodd"
        d="M21.8276 5.15479C23.0583 6.11487 24.1524 7.21214 25.1094 8.44655C25.2378 9.90394 25.1008 11.2755 24.6992 12.5613C23.7134 12.5399 22.7564 12.677 21.8276 12.9727C21.8276 10.3668 21.8276 7.76075 21.8276 5.15479Z"
        fill="#4EB5D8" />
    <path fill-rule="evenodd" clip-rule="evenodd"
        d="M13.213 3.09766C13.4865 3.09766 13.6232 3.2348 13.6232 3.50913C13.213 3.64627 12.9395 3.9206 12.8028 4.33207C10.8884 6.11509 8.97403 7.89816 7.05964 9.68118C6.92291 9.68118 6.78614 9.68118 6.64941 9.68118C8.70053 7.3495 10.8884 5.15501 13.213 3.09766Z"
        fill="#315D7E" />
    <path fill-rule="evenodd" clip-rule="evenodd"
        d="M25.1094 8.44678C26.8726 10.0089 28.5816 11.6548 30.2372 13.3844C31.5688 15.5666 31.5688 17.7611 30.2372 19.968C28.9918 21.2865 27.6926 22.5209 26.3401 23.6712C26.3401 21.4767 26.3401 19.2822 26.3401 17.0877C26.8709 17.4127 27.3497 17.8241 27.7759 18.3221C28.3666 17.7335 28.5036 17.0477 28.1861 16.2647C27.2172 14.8136 26.0546 13.5792 24.6992 12.5615C25.1008 11.2757 25.2378 9.90416 25.1094 8.44678Z"
        fill="#64D8EF" />
    <path fill-rule="evenodd" clip-rule="evenodd"
        d="M12.803 4.33203C12.803 5.29212 12.803 6.25224 12.803 7.21232C10.3564 9.8724 7.82672 12.4784 5.21384 15.0303C4.94034 15.8532 4.94034 16.6761 5.21384 17.4991C8.37358 20.5996 11.4503 23.7541 14.4439 26.9629C14.0546 28.0034 14.3281 28.9634 15.2643 29.8432C15.0592 29.9803 14.8541 30.1175 14.649 30.2547C13.6539 29.5161 12.6283 28.8303 11.5723 28.1973C9.00393 25.0024 6.20071 21.9849 3.16272 19.145C2.25596 17.1465 2.39273 15.2262 3.57294 13.3844C4.81916 12.2037 5.98145 10.9693 7.05984 9.68115C8.97423 7.89812 10.8886 6.11506 12.803 4.33203Z"
        fill="#93A6B3" />
    <path fill-rule="evenodd" clip-rule="evenodd"
        d="M18.9564 6.80079C21.0904 7.92007 21.7057 9.56595 20.8024 11.7384C19.5561 12.9191 18.394 14.1535 17.3155 15.4417C15.3409 16.8697 13.8368 18.6527 12.803 20.7908C13.4719 22.4988 14.5659 23.9389 16.0848 25.1112C16.6153 25.3128 17.1625 25.3814 17.7257 25.317C18.8448 24.6065 19.6653 23.6464 20.1871 22.4367C19.6673 21.4312 19.052 20.4711 18.3411 19.5564C18.0674 18.7334 18.0674 17.9105 18.3411 17.0875C19.436 15.6475 20.5981 14.276 21.828 12.9728C22.7567 12.6772 23.7138 12.54 24.6995 12.5614C26.0549 13.5791 27.2175 14.8135 28.1864 16.2646C28.5039 17.0476 28.3669 17.7334 27.7762 18.322C27.35 17.824 26.8713 17.4126 26.3404 17.0875C25.586 15.6106 24.492 15.062 23.0586 15.4417C21.9395 16.1521 21.1191 17.1122 20.5973 18.322C21.5006 19.5854 22.1844 20.9569 22.6484 22.4367C22.5327 23.7661 21.9859 24.8634 21.0075 25.7284C20.2708 26.2603 19.5869 26.8775 18.9564 27.58C18.1995 28.0442 17.3791 28.2499 16.4951 28.1973C15.711 27.9607 15.0273 27.5492 14.4439 26.9628C11.4503 23.7541 8.37366 20.5995 5.21391 17.499C4.94042 16.6761 4.94042 15.8531 5.21391 15.0302C7.82679 12.4783 10.3565 9.87233 12.803 7.21226C13.5398 6.68035 14.2234 6.06314 14.8542 5.36064C16.6218 4.84889 17.9891 5.32892 18.9564 6.80079Z"
        fill="#F7F9FA" />
    <path fill-rule="evenodd" clip-rule="evenodd"
        d="M17.7257 8.03538C15.3882 10.2508 13.884 12.9939 13.2133 16.2648C11.8599 19.1222 10.1506 19.3965 8.08548 17.0877C7.5985 16.4523 7.46173 15.7665 7.67525 15.0304C10.205 12.493 12.7347 9.95559 15.2644 7.41818C16.2856 7.03094 17.1059 7.23668 17.7257 8.03538Z"
        fill="#9AB3C3" />
    <path fill-rule="evenodd" clip-rule="evenodd"
        d="M17.7258 8.03516C18.8556 8.67409 19.1973 9.63417 18.7514 10.9154C16.9591 12.7822 15.1132 14.5652 13.2134 16.2646C13.8841 12.9937 15.3883 10.2506 17.7258 8.03516Z"
        fill="#3A80AF" />
    <path fill-rule="evenodd" clip-rule="evenodd"
        d="M23.0585 15.4419C23.8666 18.8443 24.1399 22.4104 23.879 26.1401C23.1951 27.1002 22.3747 27.9232 21.4176 28.6089C21.5415 27.5559 21.4045 26.5958 21.0074 25.7287C21.9858 24.8636 22.5326 23.7663 22.6483 22.4369C22.1843 20.9572 21.5005 19.5856 20.5972 18.3222C21.119 17.1125 21.9394 16.1523 23.0585 15.4419Z"
        fill="#4EAFD5" />
    <path fill-rule="evenodd" clip-rule="evenodd"
        d="M23.0586 15.4417C24.4919 15.062 25.586 15.6106 26.3404 17.0876C26.3404 19.282 26.3404 21.4766 26.3404 23.6711C25.6565 24.6312 24.8361 25.4541 23.879 26.1399C24.1399 22.4101 23.8667 18.844 23.0586 15.4417Z"
        fill="#58C2E1" />
    <path fill-rule="evenodd" clip-rule="evenodd"
        d="M17.3152 15.4419C17.7221 18.6579 17.8591 21.9497 17.7254 25.3172C17.1622 25.3817 16.6149 25.3131 16.0845 25.1115C14.5655 23.9391 13.4716 22.499 12.8027 20.791C13.8365 18.653 15.3406 16.8699 17.3152 15.4419Z"
        fill="#2D75A5" />
    <path fill-rule="evenodd" clip-rule="evenodd"
        d="M6.64972 9.68115C6.78645 9.68115 6.92322 9.68115 7.05994 9.68115C5.98155 10.9693 4.81926 12.2037 3.57304 13.3844C2.39283 15.2263 2.25606 17.1465 3.16282 19.145C6.20081 21.9849 9.00403 25.0024 11.5724 28.1973C11.4357 28.1973 11.2989 28.1973 11.1622 28.1973C8.30501 25.5376 5.50183 22.7944 2.7526 19.9679C1.42101 17.761 1.42101 15.5665 2.7526 13.3844C3.99799 12.0659 5.29705 10.8315 6.64972 9.68115Z"
        fill="#2E4E6A" />
    <path fill-rule="evenodd" clip-rule="evenodd"
        d="M21.0074 25.7285C21.4045 26.5956 21.5415 27.5557 21.4176 28.6088C19.7808 31.0815 17.5927 31.9045 14.854 31.0776C15.8112 31.0776 16.7685 31.0776 17.7256 31.0776C17.7256 30.2547 17.7256 29.4317 17.7256 28.6088C17.196 28.7065 16.7857 28.5693 16.4949 28.1973C17.3789 28.25 18.1994 28.0443 18.9562 27.5801C19.5868 26.8776 20.2706 26.2604 21.0074 25.7285Z"
        fill="#4597C3" />
    <path fill-rule="evenodd" clip-rule="evenodd"
        d="M14.4439 26.9629C15.0272 27.5492 15.711 27.9607 16.495 28.1973C16.7859 28.5693 17.1961 28.7064 17.7257 28.6088C17.7257 29.4317 17.7257 30.2547 17.7257 31.0776C16.7686 31.0776 15.8113 31.0776 14.8541 31.0776C13.2693 30.5865 12.0386 29.6263 11.1621 28.1973C11.2988 28.1973 11.4356 28.1973 11.5723 28.1973C12.6283 28.8303 13.6539 29.5161 14.649 30.2547C14.8541 30.1175 15.0592 29.9803 15.2643 29.8432C14.3281 28.9634 14.0546 28.0033 14.4439 26.9629Z"
        fill="#3579A7" />
</svg>