<svg width="32" height="32" viewBox="0 0 32 32" fill="none" xmlns="http://www.w3.org/2000/svg">
    <g clip-path="url(#clip0_3389_341)">
        <path fill-rule="evenodd" clip-rule="evenodd"
            d="M6.28571 2.85762C6.28571 4.38142 6.28571 5.90524 6.28571 7.42905C5.52381 10.4767 4.76191 10.4767 4 7.42905C4 5.90524 4 4.38142 4 2.85762C5.19741 0.077409 5.95931 0.077409 6.28571 2.85762Z"
            fill="#4BE9AD" />
        <path opacity="0.944" fill-rule="evenodd" clip-rule="evenodd"
            d="M18.8574 9.28599C17.7251 16.6906 17.3442 24.3096 17.7145 32.1431C17.7145 32.9051 17.7145 33.6669 17.7145 34.4288C17.3336 34.4288 16.9526 34.4288 16.5716 34.4288C15.4624 32.1623 14.3195 29.8766 13.1431 27.5717C13.1431 22.6194 13.1431 17.6669 13.1431 12.7146C14.7514 10.648 16.0848 8.36227 17.1431 5.85742C17.7297 7.03063 18.3011 8.17349 18.8574 9.28599Z"
            fill="#4BE9AE" />
        <path fill-rule="evenodd" clip-rule="evenodd"
            d="M3.99986 2.85742C3.99986 4.38123 3.99986 5.90504 3.99986 7.42885C-0.571568 5.90504 -0.571568 4.38123 3.99986 2.85742Z"
            fill="#4AE996" />
        <path opacity="0.22" fill-rule="evenodd" clip-rule="evenodd"
            d="M6.28564 2.85742C10.8571 4.38123 10.8571 5.90504 6.28564 7.42885C6.28564 5.90504 6.28564 4.38123 6.28564 2.85742Z"
            fill="#4EEAD4" />
        <path opacity="0.995" fill-rule="evenodd" clip-rule="evenodd"
            d="M18.8574 9.28613C19.987 10.7662 21.1298 12.29 22.286 13.8576C22.286 18.0481 22.286 22.2385 22.286 26.429C21.0242 28.5873 19.5005 30.4921 17.7145 32.1433C17.3442 24.3098 17.7252 16.6907 18.8574 9.28613Z"
            fill="#4EEAD4" />
        <path fill-rule="evenodd" clip-rule="evenodd"
            d="M13.1426 12.7139C13.1426 17.6662 13.1426 22.6187 13.1426 27.571C10.1518 24.5459 6.72318 22.0696 2.85693 20.1424C6.78561 18.3016 10.2142 15.8254 13.1426 12.7139Z"
            fill="#4AE998" />
        <path opacity="0.969" fill-rule="evenodd" clip-rule="evenodd"
            d="M22.2856 13.8574C24.981 16.3468 28.0286 18.2516 31.4285 19.5717C31.4285 19.9526 31.4285 20.3337 31.4285 20.7146C28.0286 22.0347 24.981 23.9395 22.2856 26.4288C22.2856 22.2383 22.2856 18.0479 22.2856 13.8574Z"
            fill="#4EEAD4" />
    </g>
    <defs>
        <clipPath id="clip0_3389_341">
            <rect width="32" height="32" fill="white" />
        </clipPath>
    </defs>
</svg>