<svg width="32" height="32" viewBox="0 0 32 32" fill="none" xmlns="http://www.w3.org/2000/svg">
    <path
        d="M9.48115 7.29045H14.2693C14.3855 7.27985 14.5026 7.29455 14.6126 7.33353C14.7226 7.37251 14.8229 7.43486 14.9065 7.51628C15.0437 7.70188 15.1122 7.92954 15.0994 8.15994C15.0994 8.98554 14.4594 10.1366 13.419 10.1366H8.81555L9.48115 7.29045Z"
        fill="#0059BE" />
    <path fill-rule="evenodd" clip-rule="evenodd"
        d="M7.02354 2.28564H19.5785C21.2306 2.28564 23.1625 3.4925 22.6478 6.08359C22.0526 8.62804 21.3403 11.7247 21.0039 13.1821H15.8281C13.034 13.1821 10.6871 15.2484 10.0837 17.7928V17.8148H8.68845C8.60383 17.8131 8.52077 17.8377 8.45074 17.8852L3.32159 21.5304C3.25078 21.5801 3.16663 21.6072 3.08016 21.6083C2.99368 21.6093 2.9089 21.5843 2.8369 21.5363C2.7649 21.4884 2.70903 21.4199 2.67659 21.3398C2.64415 21.2596 2.63665 21.1715 2.65508 21.087L3.39565 17.8139C1.34491 17.8139 0.070392 16.1224 0.563192 14.0434C0.563192 14.0434 1.79565 8.62622 2.41096 6.05707C3.02628 3.48793 4.96731 2.28564 7.02354 2.28564ZM8.67291 11.5675H13.4181C15.253 11.5675 16.5294 9.7709 16.5294 8.15993C16.5476 7.58492 16.3551 7.02305 15.9881 6.58004C15.7726 6.3404 15.5067 6.1515 15.2095 6.02693C14.9123 5.90235 14.5912 5.8452 14.2693 5.85959H8.98011C8.79929 5.85944 8.62376 5.92056 8.48214 6.03296C8.34051 6.14537 8.24114 6.30244 8.20022 6.47856L6.51519 13.781C6.48758 13.8983 6.4869 14.0204 6.5132 14.138C6.5395 14.2556 6.5921 14.3658 6.66705 14.4602C6.74201 14.5546 6.83737 14.6307 6.94598 14.683C7.05459 14.7353 7.17363 14.7623 7.29416 14.762C7.47519 14.763 7.65113 14.7022 7.79293 14.5896C7.93473 14.4771 8.03389 14.3195 8.07405 14.143L8.67291 11.5675Z"
        fill="#0059BE" />
    <path fill-rule="evenodd" clip-rule="evenodd"
        d="M28.5989 14.2648L29.345 10.9368C29.3621 10.8556 29.3543 10.7712 29.3228 10.6945C29.2914 10.6177 29.2375 10.5522 29.1684 10.5064C29.0992 10.4606 29.0179 10.4366 28.935 10.4375C28.852 10.4385 28.7713 10.4643 28.7032 10.5117L23.5521 14.1807C23.4821 14.2306 23.3985 14.2578 23.3125 14.2584H15.8117C13.7546 14.2584 11.6901 15.9407 11.1973 18.0161L9.34134 25.932C8.84946 28.0083 10.5683 29.7034 12.172 29.7034H24.9601C27.0172 29.7034 29.0817 28.0193 29.5745 25.932L31.4213 18.017C31.9215 15.9398 30.657 14.2648 28.5989 14.2648ZM26.156 19.8118L23.3866 25.7784C23.3208 25.9153 23.2184 26.0313 23.0908 26.1136C22.9632 26.1959 22.8152 26.2413 22.6634 26.2447H22.6268C22.4801 26.2443 22.3361 26.2051 22.2094 26.1311C22.0827 26.057 21.9779 25.9508 21.9055 25.8232L20.1363 22.6954L16.3603 26.0454C16.2326 26.1548 16.0753 26.2239 15.9083 26.2439C15.7414 26.2639 15.5722 26.234 15.4223 26.1578C15.2714 26.0802 15.1479 25.9583 15.0685 25.8084C14.9891 25.6585 14.9574 25.4878 14.9779 25.3194L15.7459 19.33C15.7602 19.1916 15.8092 19.059 15.8883 18.9445C15.9673 18.83 16.074 18.7373 16.1983 18.6749C16.3227 18.6125 16.4608 18.5824 16.5998 18.5874C16.7389 18.5925 16.8744 18.6324 16.9939 18.7037C17.1378 18.7888 17.2526 18.9152 17.3236 19.0666C17.3945 19.2179 17.4182 19.3871 17.3916 19.5521L16.9208 23.3281L19.8072 20.7654C19.8999 20.6832 20.0098 20.6229 20.1288 20.5887C20.2479 20.5545 20.3731 20.5474 20.4953 20.5678C20.6174 20.5882 20.7335 20.6357 20.835 20.7067C20.9364 20.7778 21.0207 20.8706 21.0817 20.9784L22.5519 23.6006L24.6392 19.1032C24.6869 18.9994 24.7555 18.9065 24.8408 18.8305C24.9261 18.7544 25.0261 18.6968 25.1347 18.6612C25.2432 18.6255 25.358 18.6127 25.4717 18.6235C25.5855 18.6343 25.6958 18.6684 25.7957 18.7238C25.982 18.8261 26.1221 18.9959 26.187 19.1982C26.252 19.4006 26.2369 19.6202 26.145 19.8118H26.156Z"
        fill="#00E6A0" />
</svg>