<svg width="32" height="32" viewBox="0 0 32 32" fill="none" xmlns="http://www.w3.org/2000/svg">
    <g clip-path="url(#clip0_2119_1291)">
        <path
            d="M16.0625 31.875C24.83 31.875 31.9375 24.7675 31.9375 16C31.9375 7.23248 24.83 0.125 16.0625 0.125C7.29498 0.125 0.1875 7.23248 0.1875 16C0.1875 24.7675 7.29498 31.875 16.0625 31.875Z"
            fill="#0E82E5" />
        <path
            d="M15.96 24.3043C17.2525 24.3043 18.3013 23.5031 18.3013 22.8468H13.6187C13.6187 23.5031 14.6669 24.3043 15.96 24.3043ZM22 20.8718C21.5937 20.498 21.2695 20.0439 21.0479 19.5382C20.8263 19.0326 20.7121 18.4864 20.7125 17.9343V14.9131C20.7121 13.9615 20.4259 13.032 19.891 12.245C19.3561 11.4581 18.5971 10.8499 17.7125 10.4993V9.43745C17.6872 8.9912 17.4921 8.57157 17.1672 8.2646C16.8423 7.95764 16.4123 7.78662 15.9653 7.78662C15.5184 7.78662 15.0883 7.95764 14.7635 8.2646C14.4386 8.57157 14.2435 8.9912 14.2181 9.43745V10.4999C13.3335 10.8505 12.5746 11.4587 12.0397 12.2457C11.5048 13.0327 11.2186 13.9621 11.2181 14.9137V17.9312C11.2186 18.4833 11.1044 19.0294 10.8827 19.5351C10.6611 20.0407 10.3369 20.4949 9.93062 20.8687C9.81301 20.9632 9.72762 21.0918 9.68624 21.2369C9.64485 21.382 9.64952 21.5364 9.69959 21.6787C9.74966 21.821 9.84266 21.9443 9.96576 22.0315C10.0889 22.1187 10.236 22.1655 10.3869 22.1656H21.5406C21.691 22.1654 21.8376 22.1187 21.9604 22.0319C22.0832 21.9451 22.1762 21.8224 22.2265 21.6807C22.2768 21.539 22.282 21.3851 22.2415 21.2403C22.2009 21.0955 22.1166 20.9668 22 20.8718ZM15.9625 10.1006C15.807 10.1004 15.6549 10.0542 15.5256 9.96774C15.3963 9.88126 15.2956 9.75839 15.2361 9.61467C15.1766 9.47095 15.161 9.31282 15.1914 9.16026C15.2217 9.0077 15.2966 8.86755 15.4065 8.75751C15.5164 8.64748 15.6565 8.5725 15.8091 8.54205C15.9616 8.51159 16.1198 8.52704 16.2635 8.58642C16.4073 8.6458 16.5302 8.74646 16.6168 8.87569C16.7034 9.00491 16.7498 9.1569 16.75 9.31245C16.7502 9.41615 16.7298 9.51886 16.6902 9.61468C16.6505 9.71049 16.5923 9.79753 16.5189 9.87077C16.4455 9.94401 16.3583 10.002 16.2624 10.0415C16.1665 10.0809 16.0637 10.101 15.96 10.1006H15.9625ZM21.0894 8.87495L20.6413 9.55432C21.2951 9.98577 21.8546 10.5453 22.2862 11.199C22.7177 11.8528 23.0122 12.5873 23.1519 13.3581L23.9525 13.2149C23.7933 12.3356 23.4574 11.4977 22.9653 10.7518C22.4733 10.0058 21.8351 9.36738 21.0894 8.87495ZM11.2644 9.5537L10.8169 8.87495C10.071 9.36739 9.43265 10.0059 8.94044 10.752C8.44824 11.498 8.11237 12.3361 7.95312 13.2156L8.75375 13.3587C8.89341 12.588 9.18783 11.8536 9.61924 11.1998C10.0506 10.546 10.6101 9.98648 11.2638 9.55495L11.2644 9.5537Z"
            fill="white" />
    </g>
    <defs>
        <clipPath id="clip0_2119_1291">
            <rect width="32" height="32" fill="white" />
        </clipPath>
    </defs>
</svg>