<svg width="32" height="32" viewBox="0 0 32 32" fill="none" xmlns="http://www.w3.org/2000/svg">
<g clip-path="url(#clip0_4571_45)">
<path fill-rule="evenodd" clip-rule="evenodd" d="M-0.0800781 -0.0800781C2.74659 -0.0800781 5.57325 -0.0800781 8.39992 -0.0800781C5.69813 0.945575 4.81813 2.86557 5.75992 5.67992C7.25283 8.2128 9.25283 10.2395 11.7599 11.7599C11.5478 13.7297 11.0145 15.5964 10.1599 17.3599C7.32747 17.1956 4.66082 17.7556 2.15992 19.0399C1.11865 19.8214 0.371979 20.8079 -0.0800781 21.9999C-0.0800781 14.6399 -0.0800781 7.27992 -0.0800781 -0.0800781Z" fill="#FEFEFD"/>
<path fill-rule="evenodd" clip-rule="evenodd" d="M9.52002 -0.0800781C16.9867 -0.0800781 24.4533 -0.0800781 31.92 -0.0800781C31.92 3.33325 31.92 6.74659 31.92 10.1599C31.8667 10.1599 31.8133 10.1599 31.76 10.1599C31.7866 9.46455 31.7599 8.77122 31.68 8.07992C30.1877 5.27243 28.0277 4.65909 25.2 6.23992C23.0178 7.80394 21.2578 9.75061 19.92 12.0799C19.8735 11.8961 19.7402 11.7894 19.52 11.7599C17.7575 11.51 16.1042 10.9767 14.56 10.1599C14.6674 7.54751 14.1607 5.06751 13.04 2.71992C12.1606 1.38406 10.9873 0.450731 9.52002 -0.0800781Z" fill="#FEFEFD"/>
<path fill-rule="evenodd" clip-rule="evenodd" d="M8.40017 -0.0800781C8.7735 -0.0800781 9.14684 -0.0800781 9.52017 -0.0800781C10.9875 0.450731 12.1608 1.38406 13.0402 2.71992C14.1609 5.06751 14.6675 7.54751 14.5602 10.1599C16.1043 10.9767 17.7576 11.51 19.5202 11.7599C19.7403 11.7894 19.8736 11.8961 19.9202 12.0799C19.48 12.7344 19.1067 13.4278 18.8002 14.1599C17.1847 14.0627 15.6379 13.6893 14.1602 13.0399C13.7306 12.7585 13.2506 12.5985 12.7202 12.5599C12.7202 12.3999 12.7202 12.2399 12.7202 12.0799C12.3705 12.0473 12.0505 11.9407 11.7602 11.7599C9.25308 10.2395 7.25308 8.2128 5.76017 5.67992C4.81838 2.86557 5.69838 0.945575 8.40017 -0.0800781Z" fill="#FCA723"/>
<path fill-rule="evenodd" clip-rule="evenodd" d="M8.55992 2.63996C8.88428 2.61403 9.20428 2.64068 9.51992 2.71996C10.1426 3.23609 10.6492 3.84942 11.0399 4.55996C11.3309 5.66816 11.5709 6.78816 11.7599 7.91996C11.7066 8.07996 11.6532 8.23996 11.5999 8.39996C10.3443 7.49593 9.30433 6.37593 8.47992 5.03996C7.93961 4.19296 7.96628 3.39296 8.55992 2.63996Z" fill="#FCFAF2"/>
<path fill-rule="evenodd" clip-rule="evenodd" d="M31.7598 10.1602C31.813 10.1602 31.8665 10.1602 31.9198 10.1602C31.9198 17.4134 31.9198 24.6669 31.9198 31.9202C28.5065 31.9202 25.093 31.9202 21.6798 31.9202C21.6265 31.8134 21.573 31.7069 21.5198 31.6002C23.7734 32.0854 25.3466 31.2854 26.2398 29.2002C26.4908 27.5744 26.1708 26.081 25.2798 24.7202C23.6798 22.8408 21.8398 21.2408 19.7598 19.9202C20.1745 18.1426 20.7612 16.3826 21.5198 14.6402C23.943 14.583 26.2897 14.1296 28.5598 13.2802C30.0337 12.6327 31.1002 11.5927 31.7598 10.1602Z" fill="#FDFEFD"/>
<path fill-rule="evenodd" clip-rule="evenodd" d="M31.76 10.1599C31.1005 11.5925 30.0339 12.6325 28.56 13.2799C26.2899 14.1294 23.9432 14.5827 21.52 14.6399C20.7615 16.3823 20.1747 18.1423 19.76 19.9199C18.9741 19.6113 18.2275 19.238 17.52 18.7999C17.6863 17.1811 18.113 15.6344 18.8 14.1599C19.1066 13.4278 19.4799 12.7345 19.92 12.0799C21.2578 9.75063 23.0178 7.80396 25.2 6.23995C28.0277 4.65912 30.1877 5.27246 31.68 8.07995C31.7599 8.77124 31.7866 9.46457 31.76 10.1599Z" fill="#4CC5E5"/>
<path fill-rule="evenodd" clip-rule="evenodd" d="M27.4399 8.08017C28.5799 7.91466 29.1399 8.39466 29.1199 9.52017C27.5369 11.0444 25.6436 11.7377 23.4399 11.6002C24.4953 10.0897 25.8286 8.91636 27.4399 8.08017Z" fill="#F5FCFC"/>
<path fill-rule="evenodd" clip-rule="evenodd" d="M14.1602 13.04C15.638 13.6895 17.1847 14.0628 18.8002 14.16C18.1132 15.6345 17.6865 17.1812 17.5202 18.8C16.2213 18.2252 14.8614 17.8517 13.4402 17.68C13.195 17.7237 12.955 17.777 12.7202 17.84C12.7602 17.6125 12.8935 17.4525 13.1202 17.36C13.5736 15.9463 13.9203 14.5063 14.1602 13.04Z" fill="#FBFAF8"/>
<path fill-rule="evenodd" clip-rule="evenodd" d="M11.9199 19.6001C11.8927 19.8116 11.9461 19.9983 12.0799 20.1601C13.9164 20.3451 15.6497 20.8516 17.2799 21.6801C17.3332 22.6401 17.3866 23.6001 17.4399 24.5601C17.6937 25.4494 17.8537 26.3561 17.9199 27.2801C18.4897 28.3654 19.103 29.4321 19.7599 30.4801C19.9502 30.6287 20.1634 30.682 20.3999 30.6401C20.3999 30.8534 20.3999 31.0668 20.3999 31.2801C20.7732 31.3868 21.1466 31.4934 21.5199 31.6001C21.5732 31.7068 21.6266 31.8134 21.6799 31.9201C14.4266 31.9201 7.17325 31.9201 -0.0800781 31.9201C-0.0800781 28.9868 -0.0800781 26.0534 -0.0800781 23.1201C1.18493 26.5235 3.42493 27.2967 6.63992 25.4401C8.87861 23.9217 10.6386 21.975 11.9199 19.6001Z" fill="#FEFDFD"/>
<path fill-rule="evenodd" clip-rule="evenodd" d="M17.52 18.8002C18.2275 19.2383 18.9741 19.6115 19.76 19.9202C21.84 21.2408 23.68 22.8408 25.28 24.7202C26.171 26.081 26.491 27.5744 26.24 29.2002C25.3469 31.2855 23.7736 32.0855 21.52 31.6002C21.1467 31.4935 20.7733 31.3869 20.4 31.2802C20.4 31.0669 20.4 30.8535 20.4 30.6402C20.1635 30.6821 19.9502 30.6288 19.76 30.4802C19.103 29.4322 18.4897 28.3655 17.92 27.2802C17.8537 26.3562 17.6937 25.4495 17.44 24.5602C17.3867 23.6002 17.3333 22.6402 17.28 21.6802C15.6498 20.8517 13.9164 20.3451 12.08 20.1602C11.9461 19.9984 11.8928 19.8117 11.92 19.6002C11.9969 19.1274 12.2369 18.7539 12.64 18.4802C12.7184 18.2733 12.745 18.0599 12.72 17.8402C12.9547 17.7771 13.1947 17.7239 13.44 17.6802C14.8612 17.8519 16.2211 18.2253 17.52 18.8002Z" fill="#B6D342"/>
<path fill-rule="evenodd" clip-rule="evenodd" d="M11.7599 11.7598C12.0503 11.9405 12.3703 12.0472 12.7199 12.0798C12.7199 12.2398 12.7199 12.3998 12.7199 12.5598C13.2504 12.5983 13.7304 12.7583 14.1599 13.0398C13.92 14.5061 13.5733 15.9461 13.1199 17.3598C12.8932 17.4522 12.7599 17.6122 12.7199 17.8398C12.745 18.0594 12.7183 18.2729 12.6399 18.4798C12.2368 18.7535 11.9968 19.127 11.9199 19.5998C10.6386 21.9746 8.87861 23.9214 6.63992 25.4398C3.42493 27.2964 1.18493 26.5231 -0.0800781 23.1198C-0.0800781 22.7465 -0.0800781 22.373 -0.0800781 21.9998C0.371979 20.8078 1.11865 19.8212 2.15992 19.0398C4.66082 17.7554 7.32747 17.1954 10.1599 17.3598C11.0145 15.5962 11.5478 13.7296 11.7599 11.7598Z" fill="#D53F96"/>
<path fill-rule="evenodd" clip-rule="evenodd" d="M6.96014 20.0801C7.45164 20.0294 7.93164 20.0826 8.40014 20.2401C7.33455 21.6516 6.00121 22.745 4.40014 23.5201C3.47113 23.8439 2.88446 23.5505 2.64014 22.6401C2.92353 21.8498 3.45686 21.2898 4.24014 20.9601C5.16231 20.6559 6.06898 20.3626 6.96014 20.0801Z" fill="#FBF7FB"/>
<path fill-rule="evenodd" clip-rule="evenodd" d="M20.0801 23.4399C21.083 24.2022 22.0164 25.0556 22.8801 25.9999C23.23 26.6753 23.47 27.3953 23.6001 28.1599C23.4334 28.9636 22.9534 29.2303 22.1601 28.9599C21.8641 28.6371 21.5441 28.3438 21.2001 28.0799C21.0377 27.4054 20.7977 26.7654 20.4801 26.1599C20.2476 25.2681 20.1143 24.3614 20.0801 23.4399Z" fill="#FCFDF5"/>
</g>
<defs>
<clipPath id="clip0_4571_45">
<rect width="32" height="32" fill="white"/>
</clipPath>
</defs>
</svg>
