<svg width="32" height="32" viewBox="0 0 32 32" fill="none" xmlns="http://www.w3.org/2000/svg">
    <path fill-rule="evenodd" clip-rule="evenodd" d="M0 0H31.8565V32H0V0Z" fill="white" />
    <path opacity="0.976" fill-rule="evenodd" clip-rule="evenodd"
        d="M13.1095 0.192648C19.2498 -0.233693 23.9963 2.11684 27.3489 7.24412C29.363 10.932 29.84 14.8175 28.78 18.9006C28.0143 21.1611 26.8456 23.1758 25.2738 24.9448C27.5597 27.1474 29.8018 29.402 31.9999 31.7084C29.0912 31.8762 26.1814 31.9002 23.2703 31.7804C22.4491 30.8582 21.5428 30.0427 20.5512 29.3339C18.3569 29.286 16.1625 29.2379 13.9682 29.19C7.5897 28.4443 3.27257 25.0625 1.01682 19.0445C-0.619698 12.4688 1.16917 7.07229 6.38341 2.85494C8.4482 1.47976 10.6902 0.592322 13.1095 0.192648ZM14.3975 5.80504C19.1175 5.97212 22.1467 8.32256 23.4849 12.8565C23.8758 14.7414 23.685 16.5643 22.9125 18.325C22.3809 19.2269 21.8323 20.1144 21.2667 20.9873C21.9759 21.8446 22.7391 22.6599 23.5565 23.4337C20.4081 23.5297 17.2597 23.5297 14.1113 23.4337C10.3059 22.8215 7.75382 20.687 6.45496 17.0298C5.54472 12.7461 6.90425 9.41223 10.5336 7.02826C11.7719 6.39694 13.0599 5.98925 14.3975 5.80504Z"
        fill="black" />
</svg>