<svg width="32" height="32" viewBox="0 0 32 32" fill="none" xmlns="http://www.w3.org/2000/svg">
    <g clip-path="url(#clip0_2912_309)">
        <path fill-rule="evenodd" clip-rule="evenodd"
            d="M-0.0710449 -0.0712891C10.5956 -0.0712891 21.2623 -0.0712891 31.929 -0.0712891C31.929 10.5954 31.929 21.262 31.929 31.9287C21.2623 31.9287 10.5956 31.9287 -0.0710449 31.9287C-0.0710449 21.262 -0.0710449 10.5954 -0.0710449 -0.0712891Z"
            fill="#FEFEFE" />
        <path fill-rule="evenodd" clip-rule="evenodd"
            d="M7.18229 5.04883C7.89341 5.04883 8.60452 5.04883 9.31563 5.04883C9.31563 5.80734 9.31563 6.56587 9.31563 7.32438C11.0223 7.32438 12.729 7.32438 14.4356 7.32438C14.4356 8.03549 14.4356 8.74661 14.4356 9.45772C12.729 9.45772 11.0223 9.45772 9.31563 9.45772C9.31563 11.0696 9.31563 12.6814 9.31563 14.2933C8.60452 14.2933 7.89341 14.2933 7.18229 14.2933C7.18229 12.6814 7.18229 11.0696 7.18229 9.45772C6.42378 9.45772 5.66525 9.45772 4.90674 9.45772C4.90674 8.74661 4.90674 8.03549 4.90674 7.32438C5.66525 7.32438 6.42378 7.32438 7.18229 7.32438C7.18229 6.56587 7.18229 5.80734 7.18229 5.04883Z"
            fill="#57BB8C" />
        <path fill-rule="evenodd" clip-rule="evenodd"
            d="M7.18229 5.04883C7.18229 5.80734 7.18229 6.56587 7.18229 7.32438C6.42378 7.32438 5.66525 7.32438 4.90674 7.32438C5.59017 7.18398 6.30128 7.13658 7.04007 7.18216C6.99449 6.44337 7.04189 5.73226 7.18229 5.04883Z"
            fill="#C8E8D9" />
        <path fill-rule="evenodd" clip-rule="evenodd"
            d="M20.8356 20.4091C20.0093 20.5499 19.156 20.5972 18.2756 20.5513C18.1633 20.3672 18.0211 20.2013 17.849 20.0535C16.2985 20.2647 14.7814 20.1225 13.2979 19.6268C11.3806 18.4211 10.6457 16.6907 11.0934 14.4357C11.9313 12.332 13.4957 11.289 15.7868 11.3068C17.8474 11.2468 19.4592 12.0527 20.6223 13.7246C21.3138 15.7427 20.9582 17.5441 19.5556 19.1291C19.9379 19.6061 20.3646 20.0327 20.8356 20.4091Z"
            fill="#0B0708" />
        <path fill-rule="evenodd" clip-rule="evenodd"
            d="M17.1377 16.5686C16.3063 16.3813 15.453 16.3813 14.5777 16.5686C14.5954 16.6549 14.6427 16.7023 14.7199 16.7108C15.1435 17.182 15.5702 17.6562 15.9999 18.1331C14.7251 18.3607 13.8007 17.8867 13.2266 16.7108C12.7957 14.5341 13.6727 13.3489 15.8577 13.1553C18.4891 13.3427 19.3662 14.6701 18.4888 17.1375C18.3704 17.2797 18.2518 17.4219 18.1333 17.5642C17.751 17.2767 17.4192 16.9449 17.1377 16.5686Z"
            fill="#F9F9F9" />
        <path fill-rule="evenodd" clip-rule="evenodd"
            d="M17.1379 16.5692C16.3047 16.5234 15.4988 16.5708 14.7201 16.7114C14.6429 16.7029 14.5955 16.6555 14.5779 16.5692C15.4531 16.3819 16.3064 16.3819 17.1379 16.5692Z"
            fill="#918F8F" />
        <path fill-rule="evenodd" clip-rule="evenodd"
            d="M22.5421 17.5645C23.2532 17.5645 23.9643 17.5645 24.6755 17.5645C24.6755 19.1763 24.6755 20.7882 24.6755 22.4C25.4339 22.4 26.1925 22.4 26.951 22.4C26.951 23.1111 26.951 23.8222 26.951 24.5333C26.1925 24.5333 25.4339 24.5333 24.6755 24.5333C24.6755 25.2918 24.6755 26.0504 24.6755 26.8089C23.9643 26.8089 23.2532 26.8089 22.5421 26.8089C22.5421 26.0504 22.5421 25.2918 22.5421 24.5333C20.8355 24.5333 19.1288 24.5333 17.4221 24.5333C17.4221 23.8222 17.4221 23.1111 17.4221 22.4C19.1288 22.4 20.8355 22.4 22.5421 22.4C22.5421 20.7882 22.5421 19.1763 22.5421 17.5645Z"
            fill="#57BB8C" />
        <path fill-rule="evenodd" clip-rule="evenodd"
            d="M22.5422 17.5643C23.2733 17.4238 24.0319 17.3764 24.8178 17.4221C24.8178 19.0339 24.8178 20.6458 24.8178 22.2576C25.5566 22.212 26.2677 22.2595 26.9511 22.3999C26.1927 22.3999 25.434 22.3999 24.6756 22.3999C24.6756 20.7881 24.6756 19.1761 24.6756 17.5643C23.9645 17.5643 23.2533 17.5643 22.5422 17.5643Z"
            fill="#D1ECDF" />
        <path fill-rule="evenodd" clip-rule="evenodd"
            d="M20.8356 20.4092C20.9129 20.4177 20.9602 20.4651 20.9779 20.5514C20.0551 20.7387 19.1543 20.7387 18.2756 20.5514C19.156 20.5973 20.0093 20.55 20.8356 20.4092Z"
            fill="#ACABAB" />
    </g>
    <defs>
        <clipPath id="clip0_2912_309">
            <rect width="32" height="32" fill="white" />
        </clipPath>
    </defs>
</svg>