<svg width="32" height="32" viewBox="0 0 32 32" fill="none" xmlns="http://www.w3.org/2000/svg">
<path d="M0 5.33333C0 2.38781 2.38781 0 5.33333 0H26.6667C29.6121 0 32 2.38781 32 5.33333V26.6667C32 29.6121 29.6121 32 26.6667 32H5.33333C2.38781 32 0 29.6121 0 26.6667V5.33333Z" fill="#140CA3"/>
<path d="M24.2081 20.815L23.4153 17.2915H14.6949H14.6693C12.7002 17.2659 11.1402 15.6828 11.1402 13.7168C11.1402 11.7508 12.7513 10.1422 14.7205 10.1422C16.6896 10.1422 18.3008 11.7508 18.3008 13.7168V15.9638H21.8299V13.5382C21.7276 9.70815 18.6076 6.61865 14.746 6.61865C10.8333 6.61865 7.63672 9.78475 7.63672 13.7168C7.63672 17.6234 10.8078 20.7895 14.7205 20.815H18.2752V24.8747L21.8299 25.6663V20.815H24.2081Z" fill="white"/>
</svg>
