<svg width="32" height="32" viewBox="0 0 33 33" fill="none" xmlns="http://www.w3.org/2000/svg">
    <path opacity="0.848" fill-rule="evenodd" clip-rule="evenodd"
        d="M13.3 0.5C15.1963 0.5 17.0926 0.5 18.9889 0.5C23.4411 2.89562 27.8263 5.45562 32.1444 8.18C32.6185 13.7267 32.6185 19.2733 32.1444 24.82C27.8263 27.5444 23.4411 30.1044 18.9889 32.5C17.0926 32.5 15.1963 32.5 13.3 32.5C9.29623 29.8412 5.02953 27.4946 0.5 25.46C0.5 19.4867 0.5 13.5133 0.5 7.54C5.02953 5.50541 9.29623 3.15875 13.3 0.5Z"
        fill="#252122" />
    <path fill-rule="evenodd" clip-rule="evenodd"
        d="M15.4333 3.05859C19.4173 4.63895 23.2099 6.55895 26.8111 8.81859C23.422 10.8229 19.985 12.7429 16.5 14.5786C12.6627 12.9054 8.98861 10.9854 5.47778 8.81859C8.84233 6.88308 12.1609 4.96308 15.4333 3.05859Z"
        fill="#565658" />
    <path fill-rule="evenodd" clip-rule="evenodd"
        d="M14.7224 25.4595C11.8368 23.5713 10.8886 24.2113 11.8779 27.3795C9.46641 26.0262 6.97751 24.7462 4.41126 23.5395C3.82085 19.6819 3.93936 15.8419 4.76682 12.0195C8.02548 13.6456 11.2255 15.3523 14.3668 17.1395C14.7217 19.9047 14.8402 22.678 14.7224 25.4595Z"
        fill="#F2F2F3" />
    <path fill-rule="evenodd" clip-rule="evenodd"
        d="M19.7001 28.0189C18.3135 24.6685 17.8394 21.0418 18.2779 17.1389C19.2162 16.2162 20.4014 15.7895 21.8335 15.8589C21.7159 18.2152 21.8345 20.5619 22.189 22.8989C23.2644 22.4146 24.2125 21.7746 25.0335 20.9789C25.2705 18.4189 25.5076 15.8589 25.7446 13.2989C26.5336 12.3154 27.6003 11.8887 28.9446 12.0189C29.0627 15.6518 28.9442 19.2785 28.589 22.8989C25.7089 24.7487 22.746 26.4554 19.7001 28.0189Z"
        fill="#F1F1F1" />
    <path fill-rule="evenodd" clip-rule="evenodd"
        d="M8.32224 17.7787C7.64587 18.6866 7.40883 19.7533 7.61113 20.9787C6.6918 19.786 6.6918 18.506 7.61113 17.1387C8.04256 17.2178 8.27957 17.4311 8.32224 17.7787Z"
        fill="#807E7E" />
    <path fill-rule="evenodd" clip-rule="evenodd"
        d="M8.32223 17.7812C11.1108 18.695 11.8219 20.4016 10.4556 22.9012C9.45901 22.248 8.51089 21.608 7.61112 20.9812C7.40883 19.7558 7.64586 18.6892 8.32223 17.7812Z"
        fill="#231F20" />
    <path fill-rule="evenodd" clip-rule="evenodd"
        d="M18.2778 17.1387C17.8392 21.0415 18.3133 24.6682 19.7 28.0187C19.1958 28.5972 18.4847 28.8105 17.5667 28.6587C17.3371 24.6971 17.5741 20.8571 18.2778 17.1387Z"
        fill="#787676" />
    <path fill-rule="evenodd" clip-rule="evenodd"
        d="M14.7223 25.46C15.613 26.6368 15.613 27.8102 14.7223 28.98C14.2482 29.4067 13.7742 29.4067 13.3001 28.98C12.8977 28.3434 12.4236 27.8101 11.8779 27.38C10.8886 24.2118 11.8367 23.5718 14.7223 25.46Z"
        fill="#25B2E3" />
</svg>