<svg width="32" height="32" viewBox="0 0 32 32" fill="none" xmlns="http://www.w3.org/2000/svg">
    <g clip-path="url(#clip0_4607_45)">
        <path opacity="0.997" fill-rule="evenodd" clip-rule="evenodd"
            d="M6.43996 -0.0400391C12.7866 -0.0400391 19.1333 -0.0400391 25.48 -0.0400391C29.0266 0.733295 31.1866 2.8933 31.96 6.43996C31.96 12.7866 31.96 19.1333 31.96 25.48C31.213 29.0536 29.053 31.2136 25.48 31.96C19.1333 31.96 12.7866 31.96 6.43996 31.96C2.86694 31.2136 0.706939 29.0536 -0.0400391 25.48C-0.0400391 19.1333 -0.0400391 12.7866 -0.0400391 6.43996C0.733295 2.8933 2.8933 0.733295 6.43996 -0.0400391Z"
            fill="#E5662F" />
        <path fill-rule="evenodd" clip-rule="evenodd"
            d="M18.04 4.91996C18.308 4.90676 18.5747 4.9201 18.84 4.95996C19.8 5.4133 20.76 5.86663 21.72 6.31996C21.8134 6.4133 21.9067 6.50663 22 6.59996C22.3207 8.1502 22.6007 9.7102 22.84 11.28C22.2748 12.7037 21.5815 14.0637 20.76 15.36C18.107 16.2734 15.5203 17.34 13 18.56C11.9487 19.1055 10.962 19.7455 10.04 20.48C9.33882 21.5616 9.60546 22.335 10.84 22.8C13.1937 23.7084 15.5937 24.4684 18.04 25.08C17.9196 23.7972 17.7996 22.5172 17.68 21.24C18.6302 20.423 19.6035 19.6363 20.6 18.88C19.1828 18.5524 17.7962 18.1256 16.44 17.6C17.4915 17.3497 18.5583 17.1764 19.64 17.08C21.1327 17.4264 22.6261 17.7732 24.12 18.12C22.5238 19.3556 20.9371 20.6089 19.36 21.88C19.4864 23.6696 19.6598 25.4563 19.88 27.24C16.5808 26.3936 13.3275 25.3936 10.12 24.24C9.24674 23.9169 8.48674 23.4236 7.84002 22.76C7.69118 22.5689 7.58451 22.3556 7.52002 22.12C7.52789 18.3877 7.84789 14.6811 8.48002 11C8.74914 10.1172 9.2425 9.38388 9.96002 8.79996C12.4967 7.17682 15.1901 5.88349 18.04 4.91996Z"
            fill="#FDEDD0" />
        <path fill-rule="evenodd" clip-rule="evenodd"
            d="M17.32 8.76002C18.7355 8.61514 19.3355 9.22842 19.12 10.6C18.6848 11.3055 18.0581 11.5589 17.24 11.36C16.4736 11.0379 16.1936 10.4646 16.4 9.64002C16.5996 9.22826 16.9064 8.9349 17.32 8.76002Z"
            fill="#E56731" />
    </g>
    <defs>
        <clipPath id="clip0_4607_45">
            <rect width="32" height="32" fill="white" />
        </clipPath>
    </defs>
</svg>