<svg width="32" height="32" viewBox="0 0 32 32" fill="none" xmlns="http://www.w3.org/2000/svg">
    <rect width="32" height="32" fill="#FAFAFA" />
    <path
        d="M16.5 4C14.0277 4 11.611 4.73311 9.55537 6.10663C7.49975 7.48015 5.8976 9.43238 4.95151 11.7165C4.00541 14.0005 3.75788 16.5139 4.24019 18.9386C4.72251 21.3634 5.91302 23.5907 7.66117 25.3388C9.40933 27.087 11.6366 28.2775 14.0614 28.7598C16.4861 29.2421 18.9995 28.9946 21.2835 28.0485C23.5676 27.1024 25.5199 25.5002 26.8934 23.4446C28.2669 21.389 29 18.9723 29 16.5C29 13.1848 27.683 10.0054 25.3388 7.66116C22.9946 5.31696 19.8152 4 16.5 4ZM20.6079 13.5388L19.9022 14.7359C19.8338 14.8532 19.743 14.9558 19.6349 15.038C19.5268 15.1202 19.4035 15.1802 19.2722 15.2147C19.0122 15.2747 18.7393 15.2389 18.5035 15.1139L18.4027 15.0509C18.2394 14.8803 18.0475 14.7396 17.8357 14.6351C17.509 14.5227 17.1543 14.5227 16.8276 14.6351C16.7191 14.6795 16.6173 14.7389 16.5252 14.8115C16.4192 14.9029 16.3222 15.0041 16.2354 15.1139L15.996 15.4667V20.9733C16.0084 21.2401 15.9182 21.5016 15.744 21.7041C15.6404 21.8024 15.5173 21.8779 15.3827 21.9256C15.2482 21.9734 15.1051 21.9924 14.9627 21.9813H13.2742C13.1384 21.9926 13.0018 21.9743 12.8737 21.9278C12.7456 21.8813 12.6291 21.8077 12.5322 21.7119C12.4352 21.6162 12.3601 21.5006 12.312 21.3731C12.2639 21.2456 12.244 21.1092 12.2535 20.9733V12.2157C12.2567 12.0674 12.2911 11.9215 12.3543 11.7873C12.4166 11.6629 12.5021 11.5517 12.6064 11.4597C12.8078 11.3242 13.0441 11.2498 13.2868 11.2455H14.4587C14.6174 11.2411 14.7743 11.2804 14.9123 11.3589C15.0151 11.4261 15.1048 11.5115 15.1769 11.6109C15.2306 11.6994 15.2769 11.7921 15.3155 11.8881L15.3911 12.0519C15.4246 12.1173 15.454 12.1846 15.4793 12.2535C15.6289 12.0563 15.7888 11.867 15.9582 11.6865C16.1475 11.4993 16.3642 11.3421 16.6008 11.2203C17.1454 11.0028 17.7439 10.9588 18.3145 11.0943C18.5562 11.1363 18.7927 11.2039 19.0202 11.2959C19.2444 11.3893 19.4595 11.5032 19.6628 11.6361C19.8888 11.776 20.1075 11.9274 20.318 12.0897C20.4306 12.1439 20.5303 12.2213 20.6107 12.3169C20.6911 12.4124 20.7503 12.524 20.7843 12.6442C20.8253 12.7968 20.8307 12.9569 20.8001 13.112C20.7695 13.2671 20.7038 13.4131 20.6079 13.5388Z"
        fill="#1A1A1A" />
</svg>