<svg width="32" height="32" viewBox="0 0 32 32" fill="none" xmlns="http://www.w3.org/2000/svg">
    <path
        d="M23.1192 22.9127C26.8389 20.6692 28.9701 16.888 28.9701 12.5258C28.9701 5.26794 23.2431 0 15.3517 0H1.91211V32H30.0874L23.1192 22.9127ZM4.66899 2.762H15.3517C21.7465 2.762 26.2132 6.77634 26.2132 12.5258C26.2132 16.0319 24.4728 19.0143 21.4363 20.7163L18.8045 17.2714C20.7148 16.5529 21.8819 14.754 21.8819 12.4698C21.8819 9.35743 19.3281 7.01075 15.9417 7.01075H9.00031V24.9969H15.1589C17.073 24.9969 18.8888 24.6988 20.5616 24.1102L24.4919 29.2367H4.66899V2.762ZM18.7764 21.7826C17.6438 22.0833 16.4269 22.2362 15.1589 22.2362H11.7559V9.77403H15.9417C17.4484 9.77403 19.051 10.7448 19.051 12.5437C19.051 14.1795 17.8545 15.2802 16.0745 15.2802H13.79L18.7764 21.7826Z"
        fill="#EF434B" />
</svg>