<svg width="32" height="32" viewBox="0 0 32 32" fill="none" xmlns="http://www.w3.org/2000/svg">
    <g clip-path="url(#clip0_3484_45)">
        <path fill-rule="evenodd" clip-rule="evenodd"
            d="M-0.0710449 -0.0712891C10.5956 -0.0712891 21.2623 -0.0712891 31.929 -0.0712891C31.929 10.5954 31.929 21.262 31.929 31.9287C21.2623 31.9287 10.5956 31.9287 -0.0710449 31.9287C-0.0710449 21.262 -0.0710449 10.5954 -0.0710449 -0.0712891Z"
            fill="#315DF9" />
        <path fill-rule="evenodd" clip-rule="evenodd"
            d="M17.5645 5.90218C18.9136 5.76084 20.2883 5.71344 21.6889 5.75996C21.7226 5.94357 21.6752 6.08579 21.5467 6.18662C20.2752 5.90613 18.9478 5.81131 17.5645 5.90218Z"
            fill="#FBFBFE" fill-opacity="0.984314" />
        <path fill-rule="evenodd" clip-rule="evenodd"
            d="M17.5644 5.902C18.9478 5.81114 20.2751 5.90596 21.5466 6.18645C19.2116 12.8129 16.7938 19.4026 14.2933 25.9553C12.94 26.0018 11.6126 25.9545 10.311 25.8131C12.6165 19.1335 15.0344 12.4965 17.5644 5.902Z"
            fill="#FBFBFE" />
    </g>
    <defs>
        <clipPath id="clip0_3484_45">
            <rect width="32" height="32" fill="white" />
        </clipPath>
    </defs>
</svg>