<svg width="32" height="32" viewBox="0 0 32 32" fill="none" xmlns="http://www.w3.org/2000/svg">
<g clip-path="url(#clip0_4564_135)">
<path fill-rule="evenodd" clip-rule="evenodd" d="M-0.0710449 -0.0712891C10.5956 -0.0712891 21.2623 -0.0712891 31.929 -0.0712891C31.929 10.5954 31.929 21.262 31.929 31.9287C21.2623 31.9287 10.5956 31.9287 -0.0710449 31.9287C-0.0710449 21.262 -0.0710449 10.5954 -0.0710449 -0.0712891Z" fill="#FEFEFE"/>
<path fill-rule="evenodd" clip-rule="evenodd" d="M12.8711 1.06682C9.46827 2.97572 6.00754 4.7772 2.48887 6.47127C2.34665 6.51867 2.25183 6.61349 2.20443 6.75571C2.20443 6.85053 2.20443 6.94534 2.20443 7.04016C1.79406 7.08373 1.4148 7.03633 1.06665 6.89793C4.77781 4.89236 8.52299 2.92496 12.3022 0.995712C12.5249 0.886915 12.7145 0.910617 12.8711 1.06682Z" fill="#65696C"/>
<path fill-rule="evenodd" clip-rule="evenodd" d="M22.1154 7.03985C21.9304 7.20198 21.7644 7.39161 21.6177 7.60874C17.3769 7.56104 13.1577 7.41882 8.95988 7.18207C8.85513 7.48017 8.6892 7.71721 8.4621 7.89318C8.45284 7.47673 8.35802 7.09748 8.17766 6.75541C6.28137 6.66059 4.38506 6.56578 2.48877 6.47096C6.00743 4.7769 9.46817 2.97541 12.871 1.06652C13.1038 0.964428 13.3408 0.940725 13.5821 0.995406C15.8103 2.10947 18.0384 3.22356 20.2665 4.33763C20.9421 5.20188 21.5584 6.10263 22.1154 7.03985Z" fill="#15DDCA"/>
<path fill-rule="evenodd" clip-rule="evenodd" d="M2.48879 6.47119C4.38508 6.56601 6.28139 6.66082 8.17768 6.75564C6.18657 6.75564 4.19546 6.75564 2.20435 6.75564C2.25175 6.61341 2.34657 6.51859 2.48879 6.47119Z" fill="#389A97"/>
<path fill-rule="evenodd" clip-rule="evenodd" d="M1.06667 6.89798C1.41482 7.03638 1.79408 7.08378 2.20445 7.0402C2.84904 6.99495 3.46533 7.04235 4.05334 7.18242C2.95887 7.22947 1.86849 7.18207 0.782227 7.0402C0.847206 6.92678 0.942022 6.87936 1.06667 6.89798Z" fill="#A5A3A4"/>
<path fill-rule="evenodd" clip-rule="evenodd" d="M22.1155 7.04004C22.7997 7.83772 23.416 8.69105 23.9644 9.60004C23.983 9.70513 23.9593 9.79995 23.8933 9.88448C23.7835 9.69261 23.6175 9.5741 23.3955 9.52893C23.2921 9.32999 23.221 9.11665 23.1822 8.88893C23.0755 8.97793 22.9569 9.04904 22.8266 9.10226C23.033 9.44274 22.9856 9.75089 22.6844 10.0267C22.1155 10.1689 21.5466 10.3112 20.9777 10.4534C20.5984 10.3586 20.2192 10.2637 19.8399 10.1689C18.9061 10.4042 17.9579 10.499 16.9955 10.4534C16.9949 11.234 16.6156 11.4947 15.8577 11.2356C16.1449 11.1716 16.4056 11.0531 16.6399 10.88C16.5528 10.4027 16.5765 9.9286 16.711 9.45782C16.711 9.41041 16.711 9.363 16.711 9.31559C16.9207 9.18243 17.0629 8.99279 17.1377 8.74671C17.2149 8.73817 17.2623 8.69077 17.2799 8.60448C16.785 8.4188 16.311 8.4188 15.8577 8.60448C15.1466 8.60448 14.4355 8.60448 13.7244 8.60448C13.6839 8.8768 13.7313 9.11382 13.8666 9.31559C13.9507 9.68924 13.9981 10.0685 14.0088 10.4534C14.0275 10.5585 14.0037 10.6533 13.9377 10.7378C13.8903 10.5482 13.8429 10.3586 13.7955 10.1689C13.2156 10.3535 12.5993 10.4483 11.9466 10.4534C11.2806 10.4446 10.6406 10.3498 10.0266 10.1689C9.86983 10.5515 9.89354 10.9308 10.0977 11.3067C10.1925 11.923 10.1925 12.5393 10.0977 13.1556C10.0061 12.1312 9.79279 11.1357 9.45771 10.1689C9.41031 10.2637 9.36289 10.3586 9.31549 10.4534C9.60396 11.267 9.69877 12.073 9.59994 12.8712C9.21956 11.2094 8.8403 9.5501 8.46216 7.89337C8.68926 7.7174 8.85519 7.48036 8.95994 7.18226C13.1577 7.419 17.3769 7.56123 21.6177 7.60893C21.7645 7.3918 21.9305 7.20217 22.1155 7.04004Z" fill="#13D6C5"/>
<path fill-rule="evenodd" clip-rule="evenodd" d="M15.8577 8.6046C16.3109 8.41891 16.785 8.41891 17.2799 8.6046C17.2623 8.69088 17.2149 8.73828 17.1377 8.74682C16.7413 8.60791 16.3146 8.56051 15.8577 8.6046Z" fill="#46817E"/>
<path fill-rule="evenodd" clip-rule="evenodd" d="M15.8578 8.60431C16.3147 8.56022 16.7414 8.60763 17.1378 8.74654C17.0629 8.99262 16.9207 9.18226 16.7111 9.31542C15.7629 9.1258 14.8148 9.1258 13.8666 9.31542C13.7314 9.11365 13.684 8.87663 13.7244 8.60431C14.4355 8.60431 15.1466 8.60431 15.8578 8.60431Z" fill="#626566"/>
<path fill-rule="evenodd" clip-rule="evenodd" d="M16.7111 9.31556C16.7111 9.36296 16.7111 9.41038 16.7111 9.45778C16.0009 10.2643 15.3371 11.1177 14.72 12.0178C14.6027 12.1437 14.4605 12.1911 14.2934 12.16C14.2878 11.558 14.1931 10.9891 14.0089 10.4533C13.9982 10.0685 13.9508 9.6892 13.8667 9.31556C14.8149 9.12593 15.7629 9.12593 16.7111 9.31556Z" fill="#F1F4F6"/>
<path fill-rule="evenodd" clip-rule="evenodd" d="M23.9646 9.59978C24.2486 9.88608 24.4857 10.2179 24.6757 10.5953C24.624 10.6925 24.5767 10.7874 24.5335 10.8798C23.9314 11.6554 23.3625 12.4614 22.8268 13.2976C18.6075 13.2976 14.3883 13.2976 10.169 13.2976C10.2291 13.622 10.1343 13.859 9.88456 14.0087C9.76076 13.6527 9.66594 13.2734 9.60012 12.8709C9.69895 12.0727 9.60414 11.2668 9.31567 10.4531C9.36308 10.3583 9.41049 10.2635 9.4579 10.1687C9.79297 11.1354 10.0063 12.131 10.0979 13.1553C10.1927 12.539 10.1927 11.9227 10.0979 11.3064C9.89372 10.9305 9.87001 10.5513 10.0268 10.1687C10.6408 10.3495 11.2808 10.4443 11.9468 10.4531C12.5995 10.4481 13.2158 10.3532 13.7957 10.1687C13.8431 10.3583 13.8905 10.5479 13.9379 10.7376C14.0039 10.653 14.0276 10.5582 14.009 10.4531C14.1931 10.9889 14.2879 11.5578 14.2935 12.1598C14.4606 12.1909 14.6028 12.1435 14.7201 12.0176C15.3372 11.1174 16.001 10.2641 16.7112 9.45756C16.5767 9.92834 16.5529 10.4024 16.6401 10.8798C16.4057 11.0529 16.145 11.1714 15.8579 11.2353C16.6158 11.4945 16.9951 11.2337 16.9957 10.4531C17.9581 10.4987 18.9063 10.4039 19.8401 10.1687C20.2194 10.2635 20.5986 10.3583 20.9779 10.4531C21.5468 10.3109 22.1157 10.1687 22.6846 10.0264C22.9858 9.75064 23.0331 9.44249 22.8268 9.10201C22.9571 9.04879 23.0757 8.97767 23.1823 8.88867C23.2212 9.1164 23.2923 9.32973 23.3957 9.52867C23.6177 9.57384 23.7837 9.69236 23.8935 9.88423C23.9594 9.79969 23.9832 9.70487 23.9646 9.59978Z" fill="#13D1C3"/>
<path fill-rule="evenodd" clip-rule="evenodd" d="M24.5332 10.8799C24.6083 11.0715 24.6321 11.2611 24.6043 11.4488C23.3447 13.4017 22.0883 15.3454 20.8354 17.2799C20.6772 17.0742 20.6534 16.8371 20.7643 16.5688C21.0266 16.1381 21.2874 15.7115 21.5466 15.2888C21.964 14.6313 22.3906 13.9675 22.8266 13.2977C23.3623 12.4615 23.9312 11.6555 24.5332 10.8799Z" fill="#616566"/>
<path fill-rule="evenodd" clip-rule="evenodd" d="M22.8267 13.2979C22.3908 13.9677 21.9642 14.6315 21.5467 15.289C21.5025 15.1499 21.4077 15.055 21.2623 15.0045C21.0485 15.083 20.8116 15.083 20.5512 15.0045C20.4728 15.4748 20.4255 15.9489 20.409 16.4267C17.3749 16.4267 14.3408 16.4267 11.3067 16.4267C11.329 16.2315 11.3053 16.0417 11.2356 15.8579C11.1769 16.2464 11.0821 16.6257 10.9512 16.9956C10.8955 16.5509 10.777 16.1242 10.5956 15.7156C10.4783 15.5896 10.3361 15.5423 10.169 15.5734C10.015 15.0635 9.92016 14.5422 9.88452 14.009C10.1343 13.8593 10.2291 13.6223 10.169 13.2979C14.3883 13.2979 18.6074 13.2979 22.8267 13.2979Z" fill="#0DCBBF"/>
<path fill-rule="evenodd" clip-rule="evenodd" d="M21.5466 15.2888C21.2875 15.7115 21.0266 16.1382 20.7644 16.5688C20.6534 16.8372 20.6772 17.0743 20.8355 17.28C20.8828 17.5644 20.9303 17.8488 20.9777 18.1333C20.8021 18.1019 20.6598 18.007 20.551 17.8488C19.7759 18.0942 18.9701 18.2126 18.1333 18.2044C17.8515 18.2904 17.804 18.4327 17.991 18.6311C17.9066 18.6971 17.8117 18.7208 17.7066 18.7022C17.4119 18.2596 17.0801 17.8329 16.711 17.4222C16.4808 17.869 16.3386 18.3432 16.2844 18.8444C16.237 18.8444 16.1895 18.8444 16.1422 18.8444C16.1653 18.5092 16.1417 18.1774 16.071 17.8488C15.2837 18.1226 14.4541 18.2175 13.5822 18.1333C13.5822 17.9437 13.5822 17.754 13.5822 17.5644C14.4878 17.6113 15.3887 17.5638 16.2844 17.4222C16.4805 17.2283 16.4569 17.0861 16.2133 16.9955C16.0789 17.0531 15.984 17.148 15.9288 17.28C14.4245 17.0008 12.8838 16.9059 11.3066 16.9955C11.3066 17.3748 11.3066 17.754 11.3066 18.1333C11.1644 18.1333 11.0222 18.1333 10.8799 18.1333C10.874 17.303 10.6843 16.5444 10.311 15.8577C10.1918 15.8091 10.1444 15.7144 10.1688 15.5733C10.3359 15.5421 10.4782 15.5895 10.5955 15.7155C10.7768 16.1241 10.8953 16.5508 10.951 16.9955C11.0819 16.6256 11.1767 16.2463 11.2355 15.8577C11.3052 16.0416 11.3289 16.2313 11.3066 16.4266C14.3406 16.4266 17.3748 16.4266 20.4088 16.4266C20.4253 15.9488 20.4727 15.4747 20.551 15.0044C20.8114 15.0829 21.0484 15.0829 21.2621 15.0044C21.4075 15.0549 21.5024 15.1497 21.5466 15.2888Z" fill="#11C4BA"/>
<path fill-rule="evenodd" clip-rule="evenodd" d="M10.311 15.8579C10.6843 16.5446 10.874 17.3032 10.8799 18.1335C11.0221 18.1335 11.1644 18.1335 11.3066 18.1335C11.3066 17.7542 11.3066 17.375 11.3066 16.9957C12.8838 16.9061 14.4245 17.001 15.9288 17.2801C15.984 17.1482 16.0789 17.0533 16.2133 16.9957C16.4569 17.0863 16.4805 17.2285 16.2844 17.4224C15.3887 17.564 14.4878 17.6115 13.5821 17.5646C13.5821 17.7542 13.5821 17.9439 13.5821 18.1335C14.4541 18.2177 15.2837 18.1228 16.071 17.849C16.1417 18.1776 16.1653 18.5094 16.1421 18.8446C15.3227 21.2864 14.4693 23.7042 13.5821 26.0979C13.8656 25.0101 14.15 23.9198 14.4355 22.8268C14.3181 22.7008 14.1759 22.6534 14.0088 22.6846C13.8299 24.5603 13.7351 24.5603 13.7244 22.6846C13.2977 22.6846 12.871 22.6846 12.4444 22.6846C12.4674 22.9729 12.4437 23.2573 12.3733 23.5379C12.1965 22.9441 12.1728 22.3516 12.3021 21.7601C12.059 21.3329 11.8693 20.8825 11.7333 20.409C11.6859 20.5039 11.6384 20.5986 11.591 20.6935C11.8795 21.5071 11.9743 22.3131 11.8755 23.1112C11.266 20.7137 10.7446 18.2959 10.311 15.8579Z" fill="#11C1BB"/>
<path fill-rule="evenodd" clip-rule="evenodd" d="M17.7066 18.7024C18.7489 20.0631 19.7918 21.438 20.8355 22.8268C21.7362 24.0594 22.6371 25.2919 23.5378 26.5246C23.8498 27.3869 24.2053 28.2402 24.6044 29.0846C24.7923 29.5497 24.887 30.0237 24.8889 30.5068C22.0447 26.5968 19.1765 22.7093 16.2844 18.8446C16.3386 18.3434 16.4808 17.8692 16.7111 17.4224C17.0802 17.8331 17.412 18.2598 17.7066 18.7024Z" fill="#605F60"/>
<path fill-rule="evenodd" clip-rule="evenodd" d="M20.9779 18.1336C21.6589 19.45 22.2277 20.8247 22.6846 22.258C22.5753 22.3665 22.5042 22.5087 22.4712 22.6847C22.4239 22.6373 22.3764 22.5898 22.329 22.5425C22.1911 22.1238 22.0724 21.6971 21.9735 21.2625C21.9551 21.7322 21.9076 22.2064 21.8312 22.6847C21.7244 22.5601 21.6533 22.4179 21.6179 22.258C21.4943 22.9703 21.3994 22.9229 21.3335 22.1158C21.0516 21.7658 20.7434 21.6947 20.409 21.9025C20.862 21.9959 21.0991 22.2803 21.1201 22.7558C21.0356 22.8218 20.9408 22.8455 20.8357 22.8269C19.7919 21.4381 18.749 20.0632 17.7068 18.7025C17.8119 18.7211 17.9068 18.6973 17.9912 18.6313C17.8042 18.4329 17.8517 18.2907 18.1335 18.2047C18.9703 18.2129 19.7761 18.0945 20.5512 17.8491C20.66 18.0073 20.8023 18.1021 20.9779 18.1336Z" fill="#15BFB9"/>
<path fill-rule="evenodd" clip-rule="evenodd" d="M2.20435 6.75537C4.19546 6.75537 6.18657 6.75537 8.17768 6.75537C8.35804 7.09744 8.45286 7.47669 8.46212 7.89315C8.84026 9.54988 9.21953 11.2091 9.5999 12.8709C9.66572 13.2735 9.76054 13.6527 9.88435 14.0087C9.91999 14.5419 10.0148 15.0633 10.1688 15.5731C10.1444 15.7142 10.1918 15.809 10.311 15.8576C10.7445 18.2956 11.266 20.7133 11.8755 23.1109C12.2028 24.7499 12.582 26.3617 13.0132 27.9465C12.8503 28.7435 12.5896 29.502 12.231 30.222C12.1862 29.9254 12.1151 29.6409 12.0177 29.3687C12.0305 28.9915 11.9357 28.6597 11.7332 28.3731C10.2048 21.3144 8.68772 14.2508 7.18212 7.18204C6.13916 7.18204 5.09619 7.18204 4.05323 7.18204C3.46523 7.04196 2.84894 6.99456 2.20435 7.03982C2.20435 6.945 2.20435 6.85019 2.20435 6.75537Z" fill="#5F6060"/>
<path fill-rule="evenodd" clip-rule="evenodd" d="M22.6845 22.2578C23.5365 24.2174 24.2714 26.2086 24.8889 28.2311C24.512 27.5947 24.0616 27.0258 23.5378 26.5244C22.6371 25.2918 21.7363 24.0593 20.8356 22.8267C20.9407 22.8453 21.0356 22.8215 21.12 22.7555C21.099 22.2801 20.8619 21.9956 20.4089 21.9022C20.7433 21.6944 21.0515 21.7655 21.3334 22.1155C21.3994 22.9227 21.4942 22.97 21.6178 22.2578C21.6532 22.4176 21.7243 22.5598 21.8312 22.6844C21.9075 22.2061 21.955 21.732 21.9734 21.2622C22.0724 21.6968 22.191 22.1235 22.3289 22.5422C22.3763 22.5896 22.4238 22.6371 22.4712 22.6844C22.5042 22.5085 22.5753 22.3663 22.6845 22.2578Z" fill="#21B9B5"/>
<path fill-rule="evenodd" clip-rule="evenodd" d="M13.5822 26.0976C13.5439 26.7751 13.3543 27.3914 13.0133 27.9465C12.5821 26.3617 12.2028 24.7499 11.8755 23.1109C11.9743 22.3128 11.8795 21.5068 11.5911 20.6931C11.6385 20.5983 11.6859 20.5036 11.7333 20.4087C11.8694 20.8821 12.059 21.3326 12.3022 21.7598C12.1728 22.3513 12.1965 22.9438 12.3733 23.5376C12.4438 23.257 12.4675 22.9725 12.4444 22.6842C12.8711 22.6842 13.2977 22.6842 13.7244 22.6842C13.7351 24.56 13.8299 24.56 14.0088 22.6842C14.176 22.6531 14.3182 22.7005 14.4355 22.8265C14.15 23.9194 13.8656 25.0097 13.5822 26.0976Z" fill="#15B6B3"/>
<path fill-rule="evenodd" clip-rule="evenodd" d="M11.7333 28.3735C11.9358 28.6601 12.0306 28.9919 12.0178 29.3691C11.8153 29.0825 11.7205 28.7507 11.7333 28.3735Z" fill="#B8B8B8"/>
</g>
<defs>
<clipPath id="clip0_4564_135">
<rect width="32" height="32" fill="white"/>
</clipPath>
</defs>
</svg>
