<svg width="32" height="32" viewBox="0 0 32 32" fill="none" xmlns="http://www.w3.org/2000/svg">
    <g clip-path="url(#clip0_3074_531)">
        <path fill-rule="evenodd" clip-rule="evenodd"
            d="M-0.0712891 -0.0712891C10.5954 -0.0712891 21.262 -0.0712891 31.9287 -0.0712891C31.9287 2.78585 31.9287 5.643 31.9287 8.50014C24.148 12.5572 16.3861 16.6524 8.643 20.7859C8.31254 22.1019 8.07444 23.4353 7.92871 24.7859C9.30967 24.7859 10.6906 24.7859 12.0716 24.7859C12.2556 22.967 12.5175 21.1574 12.8573 19.3573C13.9204 19.1697 14.9919 19.1697 16.0716 19.3573C17.1963 21.5353 18.3391 23.7019 19.5001 25.8573C21.1191 25.9526 22.7383 25.9526 24.3573 25.8573C23.0057 23.3209 21.6724 20.7733 20.3573 18.2144C21.8006 17.3426 22.8959 16.1521 23.643 14.643C25.4049 13.4049 27.1669 12.1668 28.9287 10.9287C31.0487 17.2821 29.5726 22.6393 24.5001 27.0001C20.1853 29.9823 15.5661 30.5537 10.643 28.7144C8.01294 27.5121 5.9177 25.7026 4.35728 23.2859C3.68405 23.3834 3.065 23.6453 2.50014 24.0716C6.56311 30.1659 12.2298 32.6183 19.5001 31.4287C26.9306 29.3099 31.0734 24.4289 31.9287 16.7859C31.9287 21.8334 31.9287 26.8811 31.9287 31.9287C21.262 31.9287 10.5954 31.9287 -0.0712891 31.9287C-0.0712891 29.1669 -0.0712891 26.4049 -0.0712891 23.643C5.37213 20.8497 10.8007 18.0164 16.2144 15.143C15.3586 15.0717 14.5014 15.0479 13.643 15.0716C13.7884 13.5327 14.0265 12.0089 14.3573 10.5001C15.9369 10.2957 17.5083 10.3195 19.0716 10.5716C19.9499 11.1632 20.307 11.9965 20.143 13.0716C21.4411 12.3391 22.7506 11.6249 24.0716 10.9287C23.7393 8.19184 22.1679 6.64423 19.3573 6.28585C15.9753 6.16684 12.5944 6.19064 9.21443 6.35728C9.76647 6.79014 10.2427 7.29014 10.643 7.85728C10.1696 10.8857 9.66955 13.9095 9.143 16.9287C7.19061 18.3097 5.23824 19.6906 3.28585 21.0716C0.965154 14.0813 2.79848 8.4384 8.78585 4.143C14.3424 1.10641 19.6757 1.43974 24.7859 5.143C25.993 6.20638 27.0406 7.39685 27.9287 8.71443C28.5057 8.66508 29.0296 8.4508 29.5001 8.07157C29.6549 7.948 29.6786 7.80514 29.5716 7.643C25.7874 2.097 20.5256 -0.355386 13.7859 0.285854C6.3811 1.78585 1.92871 6.23824 0.428711 13.643C0.0781875 16.5699 0.435331 19.4031 1.50014 22.143C1.08416 22.6769 0.560354 23.0817 -0.0712891 23.3573C-0.0712891 15.5477 -0.0712891 7.73824 -0.0712891 -0.0712891Z"
            fill="#FDFCFC" />
        <path fill-rule="evenodd" clip-rule="evenodd"
            d="M-0.0712891 23.6424C-0.0712891 23.5471 -0.0712891 23.4519 -0.0712891 23.3567C0.560354 23.0811 1.08416 22.6762 1.50014 22.1424C0.435331 19.4025 0.0781875 16.5692 0.428711 13.6424C1.92871 6.23762 6.3811 1.78523 13.7859 0.285233C20.5256 -0.356007 25.7874 2.09638 29.5716 7.64238C29.6786 7.80452 29.6549 7.94738 29.5001 8.07095C29.0296 8.45018 28.5057 8.66446 27.9287 8.7138C27.0406 7.39623 25.993 6.20576 24.7859 5.14238C19.6757 1.43912 14.3424 1.10578 8.78585 4.14238C2.79848 8.43778 0.965154 14.0806 3.28585 21.0709C5.23824 19.6899 7.19061 18.3091 9.143 16.9281C9.66955 13.9089 10.1696 10.8851 10.643 7.85666C10.2427 7.28952 9.76647 6.78952 9.21442 6.35666C12.5944 6.19002 15.9753 6.16622 19.3573 6.28523C22.1679 6.6436 23.7393 8.19122 24.0716 10.9281C22.7506 11.6242 21.4411 12.3385 20.143 13.0709C20.307 11.9959 19.9499 11.1626 19.0716 10.5709C17.5083 10.3189 15.9369 10.2951 14.3573 10.4995C14.0265 12.0083 13.7884 13.5321 13.643 15.0709C14.5014 15.0472 15.3586 15.0711 16.2144 15.1424C10.8007 18.0158 5.37213 20.8491 -0.0712891 23.6424Z"
            fill="#030303" />
        <path fill-rule="evenodd" clip-rule="evenodd"
            d="M31.9283 8.78613C31.9283 10.7385 31.9283 12.6909 31.9283 14.6433C31.7443 12.9778 31.3157 11.3587 30.6426 9.78613C31.044 9.41863 31.4726 9.0853 31.9283 8.78613Z"
            fill="#FEF6F6" />
        <path fill-rule="evenodd" clip-rule="evenodd"
            d="M31.9286 8.5C31.9286 8.59524 31.9286 8.69047 31.9286 8.78571C31.4729 9.08489 31.0443 9.41821 30.6429 9.78571C31.316 11.3583 31.7446 12.9774 31.9286 14.6429C31.9286 15.3571 31.9286 16.0714 31.9286 16.7857C31.0733 24.4287 26.9304 29.3097 19.5 31.4286C12.2296 32.6181 6.56297 30.1657 2.5 24.0714C3.06486 23.6451 3.68391 23.3833 4.35714 23.2857C5.91756 25.7024 8.0128 27.512 10.6429 28.7143C15.566 30.5536 20.1851 29.9821 24.5 27C29.5724 22.6391 31.0486 17.282 28.9286 10.9286C27.1667 12.1667 25.4047 13.4048 23.6429 14.6429C22.8957 16.152 21.8004 17.3424 20.3571 18.2143C21.6723 20.7731 23.0056 23.3207 24.3571 25.8571C22.7381 25.9524 21.119 25.9524 19.5 25.8571C18.339 23.7017 17.1961 21.5351 16.0714 19.3571C14.9917 19.1696 13.9203 19.1696 12.8571 19.3571C12.5174 21.1573 12.2555 22.9669 12.0714 24.7857C10.6905 24.7857 9.30953 24.7857 7.92857 24.7857C8.0743 23.4351 8.3124 22.1017 8.64286 20.7857C16.386 16.6523 24.1479 12.557 31.9286 8.5Z"
            fill="#EE383B" />
    </g>
    <defs>
        <clipPath id="clip0_3074_531">
            <rect width="32" height="32" fill="white" />
        </clipPath>
    </defs>
</svg>