<svg width="32" height="32" viewBox="0 0 32 32" fill="none" xmlns="http://www.w3.org/2000/svg">
<g clip-path="url(#clip0_6189_51)">
<path d="M11.3096 31.328C12.458 31.07 13.6063 30.812 14.7547 30.5554V29.0738C13.6063 28.8158 12.458 28.5592 11.3096 28.3011V31.328Z" fill="#FCFCFC"/>
<path d="M10.7793 31.9915V27.639L15.2863 28.6485V30.9793L10.7793 31.9915ZM11.8398 28.9632V30.6645L14.2244 30.13V29.4977L11.8398 28.9632Z" fill="white"/>
<path d="M17.6212 29.0737H15.1089V30.5553H17.6212V29.0737Z" fill="#FCFCFC"/>
<path d="M18.1513 31.0856H14.5786V28.5436H18.1513V31.0856ZM15.6391 30.0251H17.0908V29.6041H15.6391V30.0251Z" fill="white"/>
<path d="M17.9756 30.5638C19.124 30.8218 20.2724 31.0799 21.4208 31.3365V28.3096L17.9756 29.0837V30.5638Z" fill="#FCFCFC"/>
<path d="M21.951 32L17.4453 30.9892V28.6584L21.9524 27.6461V32H21.951ZM18.5058 30.1399L20.8905 30.6744V28.9731L18.5058 29.509V30.1399Z" fill="white"/>
<path d="M29.1998 20.573H28.6299C28.3506 18.7469 27.2079 17.2059 25.6328 16.3765C25.6143 16.1922 25.5945 16.0277 25.576 15.8845C25.5505 15.6761 25.525 15.4734 25.5009 15.2763C25.5193 15.2961 25.5349 15.3132 25.5477 15.3273C25.6923 15.4847 25.878 15.7087 26.0623 16.0036C26.3062 15.7399 26.645 15.3132 26.9002 14.7163C26.9739 14.5447 27.2575 13.85 27.2547 12.6875C27.2504 10.7196 26.4267 9.25653 26.0623 8.62705C25.7051 8.01033 25.0671 6.93567 24.0023 6.47207C23.4324 6.22538 23.0085 6.26649 22.9064 6.27925C22.3734 6.34305 22.0047 6.62235 21.8445 6.76271C21.88 6.51885 21.9154 6.17576 21.9083 5.76461C21.8984 5.20602 21.8757 4.41491 21.4249 3.60679C21.3072 3.39413 21.1172 3.10349 20.8124 2.80151C20.9187 3.00567 21.0548 3.30056 21.1668 3.67201C21.2576 3.97258 21.3639 4.33127 21.3597 4.79912C21.3568 5.05574 21.32 5.48673 21.1016 5.99145C21.0619 5.66395 20.9499 5.13088 20.5856 4.60631C20.3034 4.19942 19.983 3.9584 19.8129 3.83364C19.7477 3.78543 19.457 3.57419 19.0076 3.38279C18.6886 3.24669 18.1726 3.07089 17.4935 3.02835C17.8195 3.12051 18.5497 3.3757 19.2004 4.05906C19.8313 4.72115 20.0525 5.43569 20.1347 5.76603C19.8483 5.53919 19.3961 5.23579 18.7822 5.02454C18.3753 4.88561 18.0506 4.83882 17.7515 4.79912C17.312 4.73958 16.6868 4.69279 15.8517 4.76652C15.5072 4.79771 14.4013 4.91396 13.0176 5.41017C11.4014 5.99003 10.2885 6.77547 9.79795 7.14975C9.42508 7.4333 8.89626 7.8402 8.3164 8.50229C7.99032 8.87374 7.39203 9.56702 6.93126 10.6261C6.15859 12.4011 6.29327 14.0032 6.3514 14.6199C6.40811 15.2168 6.51869 15.7045 6.60943 16.0376C6.75971 15.893 6.94544 15.7172 7.16802 15.5187C7.09855 15.9597 7.07162 16.2886 7.06453 16.4077C5.51776 17.2427 4.39774 18.771 4.12128 20.5758H3.52441V22.3268H4.12128C4.54235 25.0758 6.91708 27.1797 9.78377 27.1797C10.3651 27.1797 10.9265 27.0932 11.4553 26.9316C11.6339 27.0635 11.8225 27.1897 12.0209 27.3087C14.1036 28.572 16.1849 28.5308 16.7874 28.4997C18.9296 28.3905 20.4424 27.4789 21.2661 26.9231C21.8034 27.089 22.3734 27.1783 22.966 27.1783C25.8312 27.1783 28.206 25.073 28.6285 22.3254H29.1984V20.573H29.1998Z" fill="#FCFCFC"/>
<path d="M16.3878 29.0384C15.2848 29.0384 13.5155 28.8314 11.7489 27.7595C11.6142 27.6773 11.4852 27.5937 11.359 27.5072C10.8472 27.639 10.3198 27.7071 9.78819 27.7071C6.87755 27.7071 4.33269 25.6499 3.68903 22.8541H3V20.0427H3.68903C4.0307 18.5598 4.91538 17.2398 6.15308 16.3537L6.10487 16.1751C5.9716 15.6874 5.87945 15.1798 5.83125 14.668C5.77595 14.0953 5.60866 12.3529 6.45222 10.4134C6.95411 9.25791 7.60911 8.51075 7.92385 8.15064C8.55049 7.43326 9.1346 6.98951 9.48337 6.72439C10.4744 5.97014 11.6369 5.34208 12.8463 4.90825C14.1605 4.43614 15.2692 4.28444 15.8122 4.23482C16.5282 4.17102 17.1888 4.18236 17.8311 4.26884C18.0976 4.30429 18.4563 4.35249 18.893 4.49568C18.8703 4.47016 18.8476 4.44606 18.8235 4.42054C18.3174 3.88889 17.746 3.64503 17.3561 3.53445L12.5812 2.18192L17.5348 2.49382C18.126 2.53068 18.6945 2.66395 19.2219 2.88937C19.6912 3.08927 20.0173 3.3147 20.1349 3.4026C20.2441 3.48341 20.4525 3.63653 20.6793 3.87329C20.6737 3.85628 20.668 3.83785 20.6637 3.82083C20.5829 3.55288 20.4766 3.29201 20.3462 3.04249L18.7625 0L21.1911 2.42151C21.4719 2.70081 21.7086 3.01272 21.8929 3.34589C22.4175 4.28727 22.4331 5.20456 22.4416 5.75181C22.4416 5.77875 22.443 5.80568 22.443 5.83262C22.5692 5.79434 22.7039 5.76599 22.8471 5.74897C23.0895 5.7192 23.59 5.71069 24.2166 5.98148C25.4628 6.52448 26.1788 7.76218 26.5233 8.35621C26.8678 8.95025 27.7823 10.531 27.7879 12.6818C27.7908 13.8174 27.5398 14.5716 27.391 14.9204C27.1797 15.418 26.8862 15.8788 26.5191 16.2885C27.8021 17.1746 28.7194 18.5187 29.071 20.0385H29.7345V22.8499H29.071C28.4259 25.6471 25.8797 27.7028 22.9704 27.7028C22.4232 27.7028 21.883 27.6319 21.3599 27.4944C20.3717 28.1352 18.8774 28.9178 16.8188 29.0242C16.6884 29.0341 16.5438 29.0384 16.3878 29.0384ZM11.5575 26.3432L11.7716 26.5006C11.9389 26.6225 12.1147 26.7402 12.299 26.8522C14.0755 27.9297 15.8562 28.0119 16.7621 27.9665C18.7058 27.8673 20.0952 27.0705 20.9714 26.4807L21.1826 26.339L21.4251 26.4141C21.9213 26.5672 22.4416 26.6452 22.9676 26.6452C25.511 26.6452 27.7199 24.7525 28.1055 22.2417L28.175 21.7908H28.6698V21.1018H28.175L28.1055 20.6509C27.8574 19.0333 26.8409 17.6099 25.3863 16.8429L25.1353 16.711L25.1056 16.4289C25.0871 16.2488 25.0673 16.0872 25.0503 15.9483L24.7681 13.7026L25.9392 14.9658C25.986 15.0168 26.0328 15.0707 26.0781 15.1246C26.2086 14.9275 26.3192 14.7205 26.4113 14.505C26.5063 14.2838 26.726 13.6657 26.7232 12.686C26.719 10.8188 25.9066 9.41811 25.6018 8.88929C25.2927 8.3548 24.7157 7.35812 23.7899 6.95548C23.3688 6.77259 23.0569 6.79386 22.9704 6.80236C22.6188 6.84489 22.3523 7.01928 22.1921 7.15964L21.1132 8.09535L21.2876 6.89877L20.8098 8.00745L20.6737 6.86049L19.8088 6.17572C19.4459 5.88792 19.0433 5.66816 18.6137 5.52071C18.2451 5.39453 17.9473 5.35484 17.6851 5.3194C17.1222 5.24284 16.5395 5.23291 15.9029 5.28962C15.411 5.33358 14.4044 5.4711 13.2007 5.90351C12.0934 6.30048 11.0287 6.87609 10.1214 7.56511C9.78393 7.82172 9.27354 8.20877 8.71779 8.84534C8.43849 9.16433 7.85721 9.82926 7.42054 10.8316C6.68615 12.5187 6.8336 14.057 6.88322 14.5631C6.8974 14.712 6.91583 14.8609 6.93851 15.0069L7.92668 14.1194L7.69417 15.5938C7.62754 16.0149 7.60343 16.324 7.59493 16.436L7.57508 16.728L7.31705 16.867C5.88938 17.6382 4.89128 19.0517 4.64601 20.6481L4.57654 21.099H4.05481V21.788H4.57654L4.64601 22.2388C5.03022 24.7497 7.23907 26.6424 9.78393 26.6424C10.3 26.6424 10.8104 26.5672 11.3009 26.4169L11.5575 26.3432Z" fill="white"/>
<path d="M7.7408 13.3623C7.14818 14.8411 7.06453 16.4545 7.06453 16.4545C7.02484 17.2101 7.05744 18.3245 7.52955 19.9747C8.24835 22.4884 9.12311 25.5479 12.0238 27.3059C14.105 28.5691 16.1863 28.528 16.7902 28.4968C19.1083 28.3791 20.6905 27.3201 21.4589 26.7899C23.8521 25.1424 25.1266 22.7237 25.4357 21.2422C25.5222 20.8282 25.6866 19.7493 25.7178 18.5626C25.749 17.3774 25.6483 16.4601 25.5775 15.8831C25.0869 11.9361 24.8119 9.96541 24.1668 9.11476C21.4461 5.52927 9.52575 8.90494 7.7408 13.3623Z" fill="#FF8F45"/>
<path d="M5.3125 23.7557H5.33375L5.38758 23.8988L5.44141 23.7557H5.46266L5.3975 23.9215H5.37625L5.3125 23.7557Z" fill="black"/>
<path d="M15.3102 25.6116C15.323 25.6158 15.3684 25.6357 15.4038 25.6825C15.4421 25.7335 15.4463 25.786 15.452 25.8384C15.452 25.8384 15.4619 25.9107 15.5172 26.1007C15.5172 26.1007 15.5584 26.2425 15.6448 26.3743C15.7668 26.5601 15.9993 26.6735 16.2063 26.7132C16.6089 26.7926 16.9321 26.5501 17.0342 26.4381C17.125 26.3389 17.1873 26.2127 17.1873 26.2127C17.2129 26.1602 17.2299 26.1149 17.2327 26.1049C17.254 26.044 17.2639 25.9972 17.2667 25.9802C17.271 25.9603 17.2738 25.9405 17.2795 25.9036C17.2838 25.8753 17.2866 25.8498 17.2894 25.8342C17.2979 25.7803 17.3022 25.7477 17.3121 25.7207C17.3305 25.6711 17.3674 25.6413 17.3745 25.6371C17.4028 25.6158 17.4298 25.6087 17.4468 25.6031C17.5049 25.5875 17.5531 25.5988 17.5645 25.6031C17.5928 25.6116 17.6141 25.6229 17.6268 25.6314C17.6382 25.6385 17.6665 25.6584 17.6878 25.6938C17.6921 25.6995 17.7077 25.7264 17.7162 25.7831C17.7233 25.8327 17.7204 25.8724 17.7162 25.9065C17.7119 25.9547 17.7048 26.0156 17.685 26.0979C17.6595 26.2028 17.6297 26.2808 17.6113 26.3261C17.5971 26.3587 17.5432 26.4849 17.4468 26.6139C17.2171 26.9202 16.891 27.0733 16.6599 27.1229C16.5451 27.1484 16.4331 27.1513 16.4232 27.1527C16.3948 27.1527 16.2771 27.1569 16.1396 27.1342C15.7611 27.069 15.4988 26.8393 15.4747 26.8181C15.4463 26.7926 15.3088 26.6678 15.1954 26.4608C15.1274 26.3389 15.0947 26.2368 15.0678 26.1532C15.0579 26.1234 15.0295 26.0326 15.0168 25.9121C15.0097 25.8483 15.0083 25.803 15.0239 25.7505C15.0324 25.7236 15.0451 25.6825 15.0862 25.6456C15.1288 25.6087 15.1756 25.5988 15.1912 25.596C15.2153 25.596 15.2606 25.5917 15.3102 25.6116Z" fill="#202020"/>
<path d="M27.2547 12.686C27.2505 10.7182 26.4268 9.25506 26.0624 8.62558C25.7051 8.00886 25.0672 6.93421 24.0024 6.4706C23.4325 6.22391 23.0086 6.26503 22.9065 6.27779C22.3734 6.34159 22.0048 6.62088 21.8446 6.76124C21.8801 6.51739 21.9169 6.17429 21.9084 5.76315C21.8985 5.20455 21.8758 4.41487 21.425 3.60533C21.3073 3.39267 21.1173 3.10203 20.8125 2.80005C20.9188 3.0042 21.0549 3.29909 21.1669 3.67055C21.2577 3.97111 21.364 4.3298 21.3597 4.79766C21.3569 5.05427 21.3186 5.48527 21.1017 5.98999C21.0634 5.66249 20.95 5.13083 20.5857 4.60484C20.3035 4.19795 19.9831 3.95693 19.813 3.83217C19.7492 3.78397 19.4571 3.57272 19.0077 3.38132C18.6887 3.24522 18.1726 3.06942 17.4935 3.02689C17.8196 3.11904 18.5498 3.37424 19.2005 4.05759C19.83 4.71968 20.0526 5.43422 20.1348 5.76456C19.8484 5.53772 19.3962 5.23432 18.7823 5.02308C18.3754 4.88414 18.0507 4.83735 17.7516 4.79766C17.3121 4.73811 16.6868 4.69133 15.8518 4.76505C15.5073 4.79624 14.4014 4.9125 13.0177 5.40871C11.4014 5.98999 10.2885 6.774 9.79796 7.14829C9.42509 7.43184 8.89627 7.83873 8.31641 8.50082C7.99033 8.87227 7.39204 9.56697 6.93126 10.626C6.1586 12.401 6.29328 14.0031 6.35141 14.6198C6.40812 15.2167 6.51871 15.7044 6.60944 16.0362C6.87173 15.7838 7.24885 15.4336 7.72379 15.0338C8.06831 14.7432 8.28948 14.5574 8.57444 14.3618C8.74599 14.2441 9.38681 13.816 10.1836 13.5565C11.4029 13.1595 12.4917 13.3183 12.9851 13.3949C13.6798 13.5041 14.2356 13.704 15.5938 13.9421C15.7696 13.9733 16.1013 14.0286 16.5281 13.9748C16.7506 13.9464 17.1462 13.8684 17.6552 13.5877C17.8579 13.4771 18.7497 12.9625 19.8768 11.3023C20.1759 10.8614 20.563 10.2347 20.9401 9.43512C21.0592 9.77254 21.235 10.2631 21.4562 10.8514C21.8276 11.8467 21.9722 12.1728 22.1324 12.4932C22.2643 12.7583 22.7591 13.721 23.2921 13.9748C23.4864 14.0683 23.743 14.1676 23.743 14.1676C23.9727 14.2569 24.1343 14.3079 24.1938 14.3292C24.8247 14.5419 25.3862 15.1529 25.5464 15.3273C25.691 15.4847 25.8767 15.7087 26.061 16.0036C26.3049 15.7398 26.6437 15.3131 26.8989 14.7162C26.974 14.5433 27.2576 13.8472 27.2547 12.686Z" fill="#202020"/>
<path d="M11.3096 28.3805C11.3096 28.3366 11.345 28.3082 11.3875 28.3181L14.6782 29.0554C14.7207 29.0653 14.7561 29.1078 14.7561 29.1518V30.4731C14.7561 30.5171 14.7207 30.561 14.6782 30.5695L11.3875 31.3068C11.345 31.3167 11.3096 31.2883 11.3096 31.2444V28.3805Z" fill="#202020"/>
<path d="M17.6212 29.0737H15.1089V30.5553H17.6212V29.0737Z" fill="#202020"/>
<path d="M21.4206 28.389C21.4206 28.3451 21.3852 28.3167 21.3426 28.3281L18.0521 29.0653C18.0095 29.0738 17.9741 29.1178 17.9741 29.1617V30.483C17.9741 30.527 18.0095 30.5709 18.0521 30.5795L21.3426 31.3167C21.3852 31.3266 21.4206 31.2983 21.4206 31.2557V28.389Z" fill="#202020"/>
<path d="M14.5547 20.9161C14.9631 20.7588 15.6294 20.5631 16.463 20.5744C17.23 20.5844 17.8453 20.7644 18.2395 20.9161" fill="#FCFCFC"/>
<path d="M14.698 21.2918L14.4102 20.5404C15.0709 20.2866 15.7613 20.1562 16.4688 20.1718C17.1238 20.1803 17.7688 20.3036 18.3841 20.5404L18.0963 21.2918C17.5689 21.0891 17.0188 20.9842 16.4588 20.9771C15.8435 20.9671 15.2637 21.0749 14.698 21.2918Z" fill="#202020"/>
<path d="M4.4858 20.5885H3.52881V22.3281H4.4858V20.5885Z" fill="#202020"/>
<path d="M15.1899 21.4789C15.1899 24.4661 12.7684 26.889 9.77977 26.889C6.79257 26.889 4.36963 24.4661 4.36963 21.4789C4.36963 18.4917 6.79257 16.0687 9.77977 16.0687C12.7684 16.0687 15.1899 18.4917 15.1899 21.4789Z" fill="#FCFCFC"/>
<path d="M9.77981 27.2108C6.61965 27.2108 4.04785 24.639 4.04785 21.4788C4.04785 18.3186 6.61965 15.7468 9.77981 15.7468C12.94 15.7468 15.5118 18.3186 15.5118 21.4788C15.5118 24.639 12.94 27.2108 9.77981 27.2108ZM9.77981 16.3905C6.97409 16.3905 4.69151 18.6731 4.69151 21.4788C4.69151 24.2845 6.97409 26.5671 9.77981 26.5671C12.5855 26.5671 14.8681 24.2845 14.8681 21.4788C14.8681 18.6731 12.5855 16.3905 9.77981 16.3905Z" fill="#202020"/>
<path d="M28.3891 21.4576C28.3891 24.4448 25.9676 26.8678 22.979 26.8678C19.9918 26.8678 17.5688 24.4448 17.5688 21.4576C17.5688 18.4704 19.9918 16.0475 22.979 16.0475C25.9676 16.0475 28.3891 18.4704 28.3891 21.4576Z" fill="#FCFCFC"/>
<path d="M22.9791 27.191C19.8189 27.191 17.2471 24.6192 17.2471 21.459C17.2471 18.2987 19.8189 15.7271 22.9791 15.7271C26.1393 15.7271 28.7111 18.2987 28.7111 21.459C28.7111 24.6192 26.1393 27.191 22.9791 27.191ZM22.9791 16.3693C20.1734 16.3693 17.8908 18.6518 17.8908 21.4576C17.8908 24.2633 20.1734 26.5459 22.9791 26.5459C25.7848 26.5459 28.0674 24.2633 28.0674 21.4576C28.0674 18.6518 25.7848 16.3693 22.9791 16.3693Z" fill="#202020"/>
<path d="M22.9815 19.7493L20.9995 21.1387H24.9607C24.3 20.6751 23.6408 20.2129 22.9815 19.7493Z" fill="#202020"/>
<path d="M24.1868 21.1173H21.771V23.1674H24.1868V21.1173Z" fill="#202020"/>
<path d="M29.2016 20.5885H28.2446V22.3281H29.2016V20.5885Z" fill="#202020"/>
<path d="M9.78231 19.7493L7.80029 21.1387H11.7615C11.1008 20.6751 10.4416 20.2129 9.78231 19.7493Z" fill="#202020"/>
<path d="M10.9876 21.1173H8.57178V23.1674H10.9876V21.1173Z" fill="#202020"/>
</g>
<defs>
<clipPath id="clip0_6189_51">
<rect width="32" height="32" fill="white"/>
</clipPath>
</defs>
</svg>
