<svg width="32" height="32" viewBox="0 0 32 32" fill="none" xmlns="http://www.w3.org/2000/svg">
    <g clip-path="url(#clip0_3940_128)">
        <path
            d="M26.1065 19.9292C29.2556 18.06 31.3613 14.6392 31.3613 10.7097C31.3613 4.79015 26.5689 0 20.6464 0C15.0809 0 10.5431 4.22347 9.98913 9.589C6.72427 8.58307 4.34476 5.53925 4.34476 1.95021V0.244689H0.498059V1.95021C0.498059 5.81443 2.35285 9.26387 5.25154 11.4335C5.25168 11.4334 5.25139 11.4335 5.25154 11.4335C2.08246 13.3167 0 16.7479 0 20.6516C0 26.5705 4.7932 31.3613 10.715 31.3613C16.2667 31.3613 20.8159 27.1508 21.3722 21.7736C24.6343 22.7813 27.0111 25.8237 27.0111 29.4108V31.1165H30.8578V29.4108C30.8578 25.6112 29.0554 22.1375 26.1065 19.9292ZM10.715 27.5165C6.92793 27.5165 3.8467 24.4369 3.8467 20.6516C3.8467 17.1309 6.51169 14.2212 9.9314 13.8313V21.4191H13.7781V10.7097C13.7781 6.92453 16.8593 3.84481 20.6464 3.84481C24.4335 3.84481 27.5147 6.92413 27.5147 10.7097C27.5147 14.23 24.8497 17.1398 21.4299 17.5297V9.94193H17.5833V20.6516C17.5833 24.4365 14.5017 27.5165 10.715 27.5165Z"
            fill="url(#paint0_linear_3940_128)" />
    </g>
    <defs>
        <linearGradient id="paint0_linear_3940_128" x1="-5.00557" y1="15.6807" x2="34.1005"
            y2="15.6807" gradientUnits="userSpaceOnUse">
            <stop stop-color="#019DB8" />
            <stop offset="1" stop-color="#19A08B" />
        </linearGradient>
        <clipPath id="clip0_3940_128">
            <rect width="32" height="32" fill="white" />
        </clipPath>
    </defs>
</svg>