<svg width="32" height="32" viewBox="0 0 32 32" fill="none" xmlns="http://www.w3.org/2000/svg">
<g clip-path="url(#clip0_2237_236)">
<path fill-rule="evenodd" clip-rule="evenodd" d="M9.8535 14.2202C9.97628 14.3712 10.1192 14.5036 10.2779 14.6137C11.4282 15.4076 12.7049 13.7869 11.8156 12.6894C11.7419 12.5974 11.6602 12.5126 11.5714 12.436C10.4733 11.4742 8.92886 13.0777 9.8535 14.2202ZM3.43581 10.1622C3.47623 10.2055 3.51918 10.2453 3.56213 10.2833C4.66107 11.245 6.20381 9.63899 5.27834 8.4991C5.20566 8.40842 5.12535 8.3245 5.03834 8.24829C3.94023 7.28656 2.39581 8.88916 3.32044 10.0316C3.35665 10.0758 3.39539 10.1199 3.43581 10.1622ZM8.33013 5.42624C8.37055 5.46862 8.4135 5.50926 8.45644 5.54732C9.55539 6.50732 11.0981 4.90213 10.1727 3.76137C10.1005 3.67044 10.0202 3.58674 9.93265 3.51143C8.83455 2.54883 7.29013 4.15316 8.21307 5.29478C8.25013 5.33975 8.28886 5.38386 8.33013 5.42624ZM16.4809 2.79186C16.5238 2.7538 16.5651 2.71229 16.6055 2.67078C16.6459 2.62753 16.6838 2.5817 16.72 2.53586C17.6278 1.37953 16.059 -0.198845 14.9752 0.780182C14.8894 0.858748 14.8097 0.944051 14.7369 1.03532C13.8299 2.19078 15.3971 3.77002 16.4809 2.79186ZM21.2657 3.64548C21.2253 3.68786 21.1882 3.73197 21.152 3.77694C20.2442 4.93326 21.8114 6.51337 22.8952 5.53521C22.9381 5.49629 22.9802 5.45478 23.0198 5.41153C23.0535 5.37521 23.0872 5.33802 23.1167 5.2991C23.9756 4.23445 22.7638 2.62494 21.6219 3.34624C21.4911 3.42977 21.3714 3.53035 21.2657 3.64548ZM26.2779 8.25953C26.207 8.32289 26.1408 8.3917 26.08 8.46537C25.1453 9.58451 26.6004 11.2459 27.7188 10.3266C27.8311 10.2347 27.933 10.1303 28.0228 10.0152C28.9297 8.85975 27.3617 7.28137 26.2779 8.25953ZM19.7819 12.4481C19.6963 12.5265 19.6168 12.6118 19.5444 12.7032C18.6358 13.8587 20.203 15.4379 21.2876 14.4598C21.3747 14.382 21.4548 14.2964 21.5268 14.2038C22.4337 13.0474 20.8649 11.469 19.7819 12.4481ZM15.5958 10.4087C15.7122 10.4144 15.8288 10.4098 15.9444 10.3949C17.3912 10.2115 17.3145 7.86775 15.8585 7.78991C15.7434 7.78232 15.6277 7.78637 15.5133 7.80202C14.0665 7.98537 14.1407 10.3274 15.5958 10.4087ZM25.0181 28.1428H6.31076C6.0876 28.1428 5.90655 27.9421 5.90655 27.6948L5.90992 26.7002C5.90992 26.452 6.09013 26.2522 6.31413 26.2522H25.0207C25.2438 26.2522 25.4249 26.4511 25.4249 26.7002L25.4223 27.6948C25.4223 27.9421 25.2413 28.1428 25.0181 28.1428ZM19.5049 31.2407H11.8173C11.5933 31.2407 11.4131 31.0409 11.4131 30.7927V29.7973C11.4131 29.549 11.5933 29.3484 11.8173 29.3484H19.5049C19.728 29.3484 19.9091 29.549 19.9091 29.7973V30.7927C19.9091 31.0409 19.728 31.2407 19.5049 31.2407Z" fill="#475DC4"/>
<path fill-rule="evenodd" clip-rule="evenodd" d="M31.1579 10.963C31.0223 10.5565 30.8699 10.1569 30.7032 9.76598C30.5709 9.45203 30.1305 9.42868 30.0008 9.74609C29.3566 11.3253 27.9032 12.2628 26.1516 13.1234C25.9057 13.2445 25.6227 13.0888 25.5579 12.812C25.3374 11.8366 24.9171 10.9206 24.325 10.1249C24.2633 10.0426 24.1728 9.98828 24.0727 9.97327C23.9726 9.95826 23.8707 9.98379 23.7886 10.0445C23.5528 10.2148 23.2606 10.4172 22.9356 10.6239C22.8856 10.6572 22.8429 10.7008 22.8104 10.752C22.7778 10.8033 22.756 10.8609 22.7465 10.9213C22.737 10.9817 22.7399 11.0435 22.7551 11.1026C22.7702 11.1618 22.7973 11.217 22.8345 11.2648C23.392 12.0198 23.728 12.8726 23.861 13.8706C23.8719 13.96 23.8549 14.0507 23.8125 14.1296C23.7702 14.2085 23.7046 14.2716 23.6253 14.31C22.2257 14.9889 20.8446 15.7716 19.8164 16.9002C19.6118 17.1234 19.2606 17.0317 19.1495 16.7454C18.7033 15.6086 18.078 14.5549 17.2985 13.6267C17.2614 13.5838 17.2332 13.5336 17.2154 13.4792C17.1977 13.4248 17.1909 13.3673 17.1953 13.3101C17.1998 13.2529 17.2155 13.1972 17.2415 13.1464C17.2675 13.0956 17.3032 13.0507 17.3465 13.0144C18.5196 12.0769 19.8417 11.27 21.1276 10.4925L21.4307 10.3074C21.5764 10.2209 21.7221 10.131 21.872 10.0453C22.2888 9.78587 22.7343 9.51257 23.1545 9.23063C24.8446 8.12793 26.4724 6.8436 27.3263 4.97636C27.3622 4.8956 27.3733 4.80557 27.3583 4.71816C27.3432 4.63076 27.3027 4.5501 27.2421 4.48684C26.9482 4.18414 26.6442 3.89182 26.3309 3.6116C26.274 3.57522 26.2085 3.5552 26.1415 3.55366C26.0671 3.55311 25.9943 3.57493 25.9319 3.61642C25.8694 3.65792 25.8202 3.71728 25.7903 3.78717C25.7844 3.80101 25.7785 3.81484 25.7735 3.83041C25.1992 5.38111 23.8594 6.54003 22.0404 7.72403C21.974 7.7671 21.8972 7.79032 21.8187 7.79109C21.7402 7.79185 21.663 7.77013 21.5958 7.72836C20.6013 7.10738 19.5192 6.58328 18.4682 6.08079L18.1415 5.92166C18.0765 5.89022 18.0217 5.84039 17.9833 5.77804C17.945 5.71569 17.9248 5.6434 17.925 5.56966C17.925 5.45722 17.973 5.3422 18.0741 5.26609C19.6362 4.07517 20.693 2.68793 21.3128 1.02479C21.3516 0.916154 21.3469 0.7962 21.2999 0.691065C21.2529 0.585929 21.1674 0.504131 21.0619 0.463493C20.7284 0.343277 20.389 0.233439 20.0463 0.136574C19.9456 0.110572 19.839 0.123742 19.7471 0.173554C19.6553 0.223365 19.5846 0.306301 19.5486 0.406412C18.7697 2.44144 17.312 3.63495 15.8669 4.5102C15.8059 4.54734 15.7362 4.56693 15.6653 4.56693C15.5943 4.56693 15.5246 4.54734 15.4636 4.5102C14.0177 3.63495 12.5617 2.44317 11.7802 0.407277C11.7444 0.307006 11.6738 0.223874 11.5819 0.173894C11.49 0.123914 11.3834 0.110621 11.2825 0.136574C10.9398 0.234304 10.6004 0.344142 10.2678 0.465223C10.2154 0.484799 10.1674 0.514807 10.1264 0.553521C10.0854 0.592236 10.0522 0.638894 10.0288 0.690814C10.0054 0.742734 9.99222 0.798891 9.99002 0.856058C9.98783 0.913225 9.99665 0.970274 10.016 1.02393C10.7427 2.96814 12.0589 4.53441 14.08 5.8516C14.5179 6.13874 15.0046 6.42501 15.5646 6.72511C16.2375 7.0849 16.912 7.41095 17.6598 7.7716C17.6657 7.77333 17.6741 7.77679 17.6792 7.78025L17.6909 7.78717L17.6994 7.79236C18.2829 8.07257 18.8446 8.34501 19.3777 8.62263C19.6606 8.76879 19.6682 9.18306 19.3962 9.34998C18.2425 10.0583 17.0223 10.8445 15.9149 11.7647C15.844 11.8244 15.7551 11.8569 15.6634 11.8568C15.5717 11.8566 15.4829 11.8237 15.4122 11.7638C14.4547 10.9681 13.4232 10.2806 12.4817 9.6942C12.4256 9.6594 12.3616 9.64015 12.2961 9.63833C12.2305 9.63651 12.1657 9.65218 12.1078 9.68382C11.6909 9.90695 11.3373 10.137 11.0526 10.3394C10.9981 10.3785 10.9541 10.4311 10.9245 10.4922C10.8949 10.5533 10.8807 10.6211 10.8832 10.6894C10.8857 10.7576 10.9048 10.8241 10.9389 10.8828C10.9729 10.9415 11.0207 10.9904 11.0779 11.0252C12.2989 11.7777 13.4695 12.5431 14.4884 13.4321C14.8792 13.7729 15.2126 14.0972 15.509 14.4215C17.2893 16.3623 18.1213 18.611 18.1213 21.4953V22.6827C18.1213 22.9171 17.9394 23.1065 17.7128 23.1065H13.6168C13.563 23.1062 13.5097 23.0949 13.4601 23.0735C13.4105 23.052 13.3654 23.0207 13.3276 22.9813C13.2897 22.942 13.2598 22.8953 13.2395 22.8441C13.2192 22.7929 13.2089 22.738 13.2093 22.6827V21.4667C13.2135 19.238 13.7389 17.3586 14.8059 15.7327C14.8603 15.6518 14.8877 15.555 14.8841 15.4568C14.8804 15.3586 14.8459 15.2642 14.7857 15.1878C14.5417 14.8927 14.278 14.6152 13.9966 14.3575C13.956 14.32 13.9081 14.2917 13.856 14.2746C13.804 14.2575 13.749 14.2519 13.6947 14.2583C13.6404 14.2647 13.588 14.2828 13.541 14.3116C13.4941 14.3403 13.4536 14.379 13.4223 14.425C12.9128 15.1515 12.5002 15.9212 12.1802 16.7411C12.069 17.0274 11.717 17.1199 11.5133 16.8968C10.4817 15.769 9.09978 14.9854 7.70189 14.3108C7.62204 14.2725 7.5561 14.2092 7.51357 14.1299C7.47104 14.0506 7.45412 13.9595 7.46526 13.8698C7.67326 12.2888 8.38736 11.0762 9.70526 10.0263C10.0623 9.73398 10.4859 9.45117 10.9912 9.15279C11.8105 8.66674 12.709 8.23257 13.6606 7.77506L13.9032 7.65657C13.9671 7.63082 14.0229 7.58742 14.0644 7.53116C14.1059 7.4749 14.1314 7.40797 14.1382 7.33775C14.145 7.26753 14.1328 7.19675 14.1029 7.1332C14.073 7.06966 14.0266 7.01584 13.9688 6.97766C13.6354 6.76144 13.3151 6.5246 13.0097 6.26847C12.9516 6.21862 12.881 6.18678 12.806 6.17667C12.731 6.16656 12.6547 6.1786 12.5861 6.21139C11.6227 6.67841 10.6467 7.16101 9.7381 7.72749C9.6708 7.76974 9.59333 7.7918 9.51446 7.79119C9.43559 7.79058 9.35846 7.76731 9.29178 7.72403C7.47115 6.5383 6.12968 5.37766 5.55368 3.82522C5.52881 3.74642 5.48031 3.67772 5.41512 3.62895C5.34993 3.58017 5.27139 3.55382 5.19073 3.55366C5.12406 3.5553 5.05899 3.57499 5.0021 3.61074C4.68884 3.89095 4.38484 4.18155 4.09263 4.48511C4.03167 4.54888 3.99093 4.63009 3.97575 4.71807C3.96057 4.80606 3.97166 4.8967 4.00757 4.97809C4.75031 6.60317 6.07747 7.78198 7.52084 8.78955C7.57114 8.82512 7.61321 8.87161 7.64409 8.92573C7.67496 8.97985 7.69388 9.04027 7.6995 9.10273C7.70513 9.16519 7.69732 9.22815 7.67663 9.28717C7.65594 9.34618 7.62288 9.39981 7.57978 9.44425C6.68828 10.3814 6.06259 11.5506 5.7701 12.8259C5.70778 13.094 5.43157 13.2471 5.19073 13.1286C3.43578 12.268 1.9781 11.3297 1.33136 9.74782C1.20084 9.43214 0.761257 9.45463 0.627362 9.76944C0.463151 10.156 0.313257 10.5495 0.176836 10.9508C0.132917 11.0794 0.119708 11.2168 0.138319 11.3517C0.156931 11.4866 0.206819 11.6148 0.283783 11.7258C1.58147 13.5342 3.74315 14.5409 5.73894 15.4602C8.74526 16.8475 11.3423 18.0445 11.3499 21.4814V22.6836C11.3499 22.9171 11.1672 23.1074 10.9415 23.1074H3.7061C3.6119 23.1048 3.52055 23.1407 3.45205 23.2072C3.38356 23.2736 3.34349 23.3652 3.34063 23.462L3.33726 24.6901C3.33726 24.8855 3.49978 25.0438 3.70189 25.0438H27.6194C27.8215 25.0438 27.984 24.8855 27.984 24.6892L27.989 23.4611C27.9862 23.3644 27.9461 23.2728 27.8776 23.2063C27.8091 23.1398 27.7178 23.104 27.6236 23.1065H20.3882C20.2794 23.1058 20.1752 23.0608 20.0987 22.9814C20.0221 22.9019 19.9793 22.7945 19.9798 22.6827V21.4979C19.9798 18.0471 22.5802 16.8484 25.5924 15.4602C27.5933 14.5392 29.7583 13.5299 31.056 11.7128C31.1302 11.6053 31.1782 11.4811 31.1961 11.3507C31.2139 11.2202 31.2003 11.0873 31.1579 10.963Z" fill="#475DC4"/>
</g>
<defs>
<clipPath id="clip0_2237_236">
<rect width="32" height="32" fill="white"/>
</clipPath>
</defs>
</svg>

