<svg width="32" height="32" viewBox="0 0 33 33" fill="none" xmlns="http://www.w3.org/2000/svg">
    <path fill-rule="evenodd" clip-rule="evenodd"
        d="M0.873291 0.873291C11.54 0.873291 22.2066 0.873291 32.8733 0.873291C32.8733 11.54 32.8733 22.2066 32.8733 32.8733C22.2066 32.8733 11.54 32.8733 0.873291 32.8733C0.873291 22.2066 0.873291 11.54 0.873291 0.873291Z"
        fill="#FEFEFE" />
    <path fill-rule="evenodd" clip-rule="evenodd"
        d="M14.2951 6.84329C16.538 6.66913 18.7138 6.94055 20.8219 7.65759C20.2577 9.0008 19.605 10.3037 18.8639 11.5662C17.4538 11.7288 16.0397 11.7831 14.6214 11.7291C14.2638 10.362 13.7201 9.0591 12.9897 7.82045C13.3566 7.37773 13.7919 7.05201 14.2951 6.84329Z"
        fill="#DA5040" />
    <path fill-rule="evenodd" clip-rule="evenodd"
        d="M9.72637 8.7976C10.1744 8.74656 10.6098 8.80086 11.0317 8.96046C11.8407 10.0396 12.7108 11.0711 13.6425 12.0548C12.5528 12.9797 11.5193 13.9569 10.5422 14.9863C9.14646 14.1901 7.8956 13.213 6.78931 12.0548C7.55262 10.7513 8.53164 9.66555 9.72637 8.7976Z"
        fill="#D23624" />
    <path fill-rule="evenodd" clip-rule="evenodd"
        d="M22.7799 8.79761C24.5516 9.36586 25.9657 10.4516 27.0223 12.0548C25.8462 13.1867 24.5408 14.1638 23.1063 14.9863C22.2359 13.9006 21.2569 12.9234 20.1692 12.0548C21.1711 11.0569 22.0414 9.97114 22.7799 8.79761Z"
        fill="#D13322" />
    <path fill-rule="evenodd" clip-rule="evenodd"
        d="M5.15745 14.335C6.71638 14.7597 8.18491 15.4111 9.56305 16.2893C9.4126 17.8501 9.03209 19.3701 8.42086 20.8494C6.89782 20.1979 5.37512 19.5465 3.85209 18.895C3.48858 18.4967 3.43421 18.0624 3.68892 17.5922C4.21237 16.5105 4.70188 15.4248 5.15745 14.335Z"
        fill="#C8270E" />
    <path fill-rule="evenodd" clip-rule="evenodd"
        d="M27.6749 14.3347C28.0583 14.2634 28.3847 14.3719 28.6539 14.6604C29.3934 16.0069 29.9371 17.4184 30.2856 18.8948C28.5615 19.288 26.9298 19.9395 25.3905 20.8491C24.8971 19.4241 24.3531 18.0127 23.7588 16.6147C24.9767 15.6821 26.2821 14.9221 27.6749 14.3347Z"
        fill="#C8270F" />
    <path fill-rule="evenodd" clip-rule="evenodd"
        d="M2.54665 21.175C4.30628 21.397 6.04698 21.7227 7.7681 22.1522C8.09281 23.8759 8.20148 25.613 8.09444 27.3637C5.91873 27.3637 3.74324 27.3637 1.56763 27.3637C1.7882 25.283 2.11454 23.2199 2.54665 21.175Z"
        fill="#AF1A04" />
    <path fill-rule="evenodd" clip-rule="evenodd"
        d="M30.2857 20.8491C30.6937 20.8743 30.9655 21.0915 31.1016 21.5006C31.7383 23.4031 32.0101 25.3574 31.9174 27.3635C29.8507 27.3635 27.7837 27.3635 25.717 27.3635C25.6559 25.6226 25.5473 23.8855 25.3906 22.152C27.0967 21.8625 28.7284 21.4283 30.2857 20.8491Z"
        fill="#AF1A04" />
</svg>