<svg width="32" height="32" viewBox="0 0 32 32" fill="none" xmlns="http://www.w3.org/2000/svg">
<path opacity="0.961" fill-rule="evenodd" clip-rule="evenodd" d="M13.3007 0.162099C19.6376 -0.637737 24.6655 1.52237 28.3843 6.64238C32.2341 14.2085 31.0593 20.8297 24.8601 26.5058C23.6454 27.3477 22.3297 27.9583 20.913 28.3372C20.8727 27.8408 20.9667 27.3711 21.1949 26.9285C23.0081 25.915 24.5117 24.5533 25.7059 22.8431C25.4651 22.5551 25.1832 22.3204 24.8601 22.1387C23.8983 23.4297 22.7235 24.4626 21.3359 25.238C20.6456 24.8311 20.0347 24.3144 19.5033 23.6883C17.246 23.1389 14.9905 23.1389 12.7369 23.6883C10.8367 24.8086 10.3668 26.3582 11.3272 28.3372C8.87996 30.7358 5.96664 31.9566 2.5872 32C5.24291 28.0915 5.19592 24.2411 2.44623 20.4482C-0.202024 12.1336 2.19442 5.79422 9.63558 1.42998C10.874 0.959089 12.0957 0.536462 13.3007 0.162099ZM15.2743 3.82487C16.8188 3.72603 17.1947 4.28953 16.402 5.51537C16.1257 6.24412 16.0317 6.99544 16.1201 7.76939C23.7402 8.01144 26.7945 11.862 25.283 19.3212C24.2037 21.0573 22.6531 22.0435 20.631 22.2796C17.5298 22.4675 14.4285 22.4675 11.3272 22.2796C8.01476 21.693 6.32315 19.7208 6.25235 16.3628C6.13256 12.2753 8.01211 9.64562 11.8911 8.47376C13.1955 8.14775 14.5112 7.91297 15.8381 7.76939C15.9502 6.61995 15.6683 5.58688 14.9923 4.67012C15.1692 4.41181 15.2632 4.13006 15.2743 3.82487ZM12.173 13.9679C13.461 13.8503 13.8839 14.4138 13.4417 15.6584C12.4625 16.4598 11.7576 16.225 11.3272 14.954C11.5711 14.5712 11.853 14.2425 12.173 13.9679ZM18.9394 13.9679C20.9466 14.4152 21.0876 15.1665 19.3623 16.2219C18.2361 15.6634 18.0951 14.912 18.9394 13.9679Z" fill="#CA2A2A"/>
<path opacity="0.913" fill-rule="evenodd" clip-rule="evenodd" d="M11.0454 11.9956C14.4299 11.9487 17.8131 11.9956 21.195 12.1365C24.6239 12.8792 25.3758 14.6636 23.4505 17.4898C21.1321 17.895 18.7826 18.0358 16.4022 17.9124C16.355 16.9383 16.0731 16.8444 15.5563 17.6306C13.4952 17.9588 11.4277 18.0057 9.35377 17.7715C8.13209 17.4443 7.56822 16.646 7.66216 15.3766C7.66647 14.7753 7.80744 14.2118 8.08506 13.6861C8.95027 12.8562 9.93704 12.2927 11.0454 11.9956ZM12.1731 13.9679C11.8531 14.2424 11.5712 14.5712 11.3273 14.954C11.7577 16.225 12.4626 16.4597 13.4418 15.6584C13.884 14.4138 13.4611 13.8503 12.1731 13.9679ZM18.9396 13.9679C18.0953 14.912 18.2362 15.6633 19.3625 16.2219C21.0877 15.1665 20.9467 14.4152 18.9396 13.9679Z" fill="#FAFAFA"/>
<path opacity="0.781" fill-rule="evenodd" clip-rule="evenodd" d="M13.0188 19.3213C14.0691 19.3857 15.0559 19.6675 15.9791 20.1665C16.78 19.9072 17.5788 19.6255 18.3756 19.3213C18.9764 19.6346 18.9764 20.0572 18.3756 20.5892C16.8644 21.1369 15.3607 21.1369 13.8646 20.5892C13.4019 20.2711 13.12 19.8484 13.0188 19.3213Z" fill="#CA2A2A"/>
</svg>

