<svg width="32" height="32" viewBox="0 0 32 32" fill="none" xmlns="http://www.w3.org/2000/svg">
    <g clip-path="url(#clip0_3579_45)">
        <path fill-rule="evenodd" clip-rule="evenodd"
            d="M-0.0800781 -0.0800781C10.5866 -0.0800781 21.2532 -0.0800781 31.9199 -0.0800781C31.9199 10.5866 31.9199 21.2532 31.9199 31.9199C21.2532 31.9199 10.5866 31.9199 -0.0800781 31.9199C-0.0800781 21.2532 -0.0800781 10.5866 -0.0800781 -0.0800781Z"
            fill="#FEFEFE" />
        <path fill-rule="evenodd" clip-rule="evenodd"
            d="M7.59988 18.8003C5.94655 18.8003 4.2932 18.8003 2.63988 18.8003C2.61322 16.2931 2.63989 13.7864 2.71988 11.2803C3.54346 5.12338 7.03679 1.63005 13.1999 0.800288C17.7687 0.349176 21.582 1.81584 24.6399 5.20029C26.9018 8.38282 27.4351 11.8495 26.2399 15.6003C25.468 17.7043 24.1615 19.3843 22.3199 20.6403C25.9767 23.2865 27.8434 26.8865 27.9199 31.4403C26.1599 31.4403 24.3999 31.4403 22.6399 31.4403C22.5479 27.5363 20.6812 24.8963 17.0399 23.5203C15.5558 23.3038 14.0625 23.2238 12.5599 23.2803C12.5599 26.0003 12.5599 28.7203 12.5599 31.4403C10.9065 31.4403 9.2532 31.4403 7.59988 31.4403C7.59988 27.227 7.59988 23.0136 7.59988 18.8003Z"
            fill="#BC7DFE" />
        <path fill-rule="evenodd" clip-rule="evenodd"
            d="M7.59984 18.7999C7.57318 16.2927 7.59985 13.786 7.67984 11.2799C8.34651 8.26655 10.1865 6.42655 13.1998 5.75988C15.8771 5.36823 18.1437 6.14158 19.9998 8.07988C22.0917 11.5569 21.6382 14.6769 18.6398 17.4399C17.7214 18.084 16.708 18.5108 15.5998 18.7199C12.9337 18.7999 10.267 18.8266 7.59984 18.7999Z"
            fill="#FDFDFE" />
    </g>
    <defs>
        <clipPath id="clip0_3579_45">
            <rect width="32" height="32" fill="white" />
        </clipPath>
    </defs>
</svg>