<svg width="32" height="32" viewBox="0 0 32 32" fill="none" xmlns="http://www.w3.org/2000/svg">
    <path fill-rule="evenodd" clip-rule="evenodd"
        d="M0 0C10.6667 0 21.3333 0 32 0C32 10.6667 32 21.3334 32 32C21.3333 32 10.6667 32 0 32C0 21.3334 0 10.6667 0 0Z"
        fill="#33C4CD" />
    <path fill-rule="evenodd" clip-rule="evenodd"
        d="M28.5016 30.9735C29.9414 30.7781 31.0115 29.5441 30.9999 28.0926C31.011 26.6413 29.9407 25.4079 28.5011 25.2127C27.0614 25.0175 25.7009 25.9214 25.3243 27.3231H7.76684L23.9879 20.6114C24.8722 21.7373 26.4422 22.0585 27.6982 21.3705C28.9544 20.6824 29.5275 19.1873 29.0525 17.8373C28.5777 16.4871 27.1945 15.6786 25.7836 15.9265C24.3728 16.1745 23.3488 17.4062 23.3638 18.8372C23.3684 18.955 23.3803 19.0724 23.3993 19.1889L7.1773 25.9016L19.5947 13.4977C20.026 13.7472 20.5149 13.8799 21.0132 13.8829C22.6128 13.8829 23.9097 12.5874 23.9097 10.9894C23.9097 9.39139 22.6128 8.09592 21.0132 8.09592C19.4135 8.09592 18.1168 9.39139 18.1168 10.9894C18.1195 11.4882 18.2528 11.9777 18.5032 12.4092L6.08858 24.8121L12.8081 8.60578C12.924 8.62475 13.041 8.63656 13.1583 8.64113C14.5657 8.6482 15.7723 7.63863 16.0123 6.25325C16.2522 4.86787 15.4551 3.51205 14.1272 3.04641C12.7992 2.58078 11.3288 3.14157 10.6493 4.37282C9.96987 5.60408 10.2801 7.14551 11.3832 8.0187L4.66736 24.2223V6.68268C6.0645 6.29742 6.9615 4.93982 6.76691 3.50502C6.57232 2.07023 5.34606 1 3.89668 1C2.44729 1 1.22104 2.07023 1.02645 3.50502C0.831864 4.93982 1.72886 6.29742 3.12599 6.68268V25.3164C1.77983 25.6863 0.891535 26.9656 1.01618 28.3548C1.14083 29.7439 2.24271 30.8449 3.63327 30.9699C5.02385 31.0948 6.30464 30.2077 6.67531 28.8629H25.3243C25.7009 30.265 27.0618 31.169 28.5016 30.9735Z"
        fill="#FAFAFA" />
</svg>