<svg width="32" height="32" viewBox="0 0 32 32" fill="none" xmlns="http://www.w3.org/2000/svg">
    <rect width="32" height="32" fill="#6514DD" />
    <path
        d="M24.3295 4.47998H5.10072C4.25733 4.48066 3.44867 4.816 2.85231 5.41236C2.25594 6.00873 1.9206 6.81739 1.91992 7.66078L1.91992 9.14302C1.91992 10.4934 2.35064 11.5501 3.23128 12.3673C3.55678 12.6632 3.91849 12.9165 4.30776 13.1213C4.34168 13.1405 4.37624 13.1597 4.41528 13.1795C4.5228 13.2333 4.63544 13.287 4.74808 13.3414C4.79672 13.3657 4.846 13.3849 4.89528 13.4099C5.00728 13.4585 5.11992 13.5072 5.23704 13.5513C5.29592 13.5763 5.3548 13.5961 5.41368 13.6153C5.5308 13.6595 5.65304 13.6985 5.77528 13.7369C5.83928 13.7568 5.90776 13.7766 5.97624 13.7965C6.1036 13.8349 6.23032 13.8694 6.3628 13.904C6.43128 13.9232 6.50488 13.9379 6.57784 13.9577C6.7148 13.9917 6.84664 14.0217 6.98872 14.0557C7.05272 14.0704 7.1212 14.08 7.18968 14.0947C7.52248 14.1587 7.87 14.2169 8.2316 14.2662L8.31992 14.2803L8.7308 14.3251C8.84856 14.3392 8.96568 14.3494 9.0828 14.3635L9.48472 14.3929C9.61656 14.4032 9.75352 14.4121 9.89048 14.4224C10.023 14.432 10.1593 14.4371 10.2969 14.4416C10.4434 14.4467 10.5951 14.4569 10.7468 14.4569C10.8793 14.4614 11.0156 14.4614 11.1532 14.4665C11.3145 14.4717 11.4809 14.4717 11.6473 14.4717H12.053C12.2342 14.4717 12.4204 14.4665 12.606 14.4614C12.7334 14.4569 12.8607 14.4569 12.9926 14.4518C13.2082 14.4467 13.4278 14.4326 13.6486 14.4224L13.9814 14.4077C14.3186 14.3885 14.661 14.3693 15.0086 14.3392H15.0278C16.0946 14.2854 16.99 14.6573 17.5622 15.3862C18.1497 16.1446 18.3014 17.1821 17.9782 18.2438C17.8989 18.5624 17.832 18.8839 17.7778 19.2077C17.7484 19.3645 17.7196 19.5213 17.6946 19.6774L17.6505 19.9808C17.6313 20.1177 17.6121 20.2547 17.5967 20.3872C17.582 20.4998 17.5724 20.6073 17.5628 20.72C17.5532 20.8416 17.5385 20.9696 17.5282 21.0912C17.5186 21.2089 17.5135 21.3267 17.509 21.4438L17.4943 21.7817C17.4892 21.9033 17.4892 22.0262 17.4847 22.1485V22.4569C17.4847 22.5843 17.4892 22.7161 17.4943 22.8435C17.4994 22.9363 17.4994 23.024 17.5039 23.1123C17.509 23.2493 17.5186 23.3811 17.5282 23.5187C17.5334 23.5968 17.543 23.6704 17.5481 23.7485L17.5922 24.1741C17.6018 24.2329 17.607 24.2918 17.6166 24.3501C17.6358 24.5017 17.6607 24.6585 17.685 24.8051C17.6902 24.8397 17.6998 24.8736 17.7042 24.9081C17.9154 26.0627 18.2719 27.1001 18.7762 27.9469C18.8889 28.1421 19.0111 28.3283 19.1385 28.5043C19.8623 29.4784 20.7334 30.0064 21.7318 30.0659H24.3398C25.1832 30.0651 25.9917 29.7296 26.588 29.1331C27.1842 28.5366 27.5194 27.7279 27.5199 26.8845V7.65566C27.5159 6.81212 27.178 6.0045 26.5801 5.4094C25.9822 4.8143 25.1731 4.48014 24.3295 4.47998Z"
        fill="#FAFAFA" />
    <path
        d="M16.0754 17.7547L16.0901 17.6958C16.2271 17.2504 16.1976 16.8395 16.0018 16.5899C15.7964 16.3256 15.4194 16.2866 15.1256 16.2962C11.2556 16.5854 8.17333 16.419 5.80469 15.7925L16.5599 27.9518C15.3708 25.2165 15.1647 21.4974 16.0754 17.7547Z"
        fill="#FAFAFA" />
</svg>