<svg width="32" height="32" viewBox="0 0 32 32" fill="none" xmlns="http://www.w3.org/2000/svg">
    <path d="M32 0H0V32H32V0Z" fill="#FAFAFA" />
    <path fill-rule="evenodd" clip-rule="evenodd"
        d="M7.32214 0.0410156C7.21436 6.131 7.32214 12.2177 7.6468 18.2999C8.57337 19.7912 9.76422 20.0084 11.218 18.952C11.7466 17.4743 12.0712 15.9523 12.192 14.3873C13.6263 15.6086 14.8165 17.0218 15.7632 18.6259C13.1679 21.1985 10.1376 21.9595 6.67283 20.9083C5.96897 20.1486 5.42809 19.2793 5.04954 18.2999C4.72553 15.4821 4.61709 12.6566 4.72488 9.82255C5.25992 12.3084 5.58457 14.9168 5.69885 17.6478C5.91507 17.2128 6.13195 16.7785 6.34817 16.3436C6.4592 10.7942 6.78386 5.36021 7.32214 0.0410156Z"
        fill="#FAFAFA" />
    <path fill-rule="evenodd" clip-rule="evenodd"
        d="M7.32227 0.040573C12.9538 -0.0676759 18.5814 0.040573 24.2045 0.366624C29.9925 3.53127 31.6158 8.20489 29.0743 14.3868C27.7433 15.944 26.2277 17.2482 24.5291 18.2994C23.45 17.3232 22.476 16.2368 21.6072 15.0389C24.6058 12.9724 25.5797 10.1468 24.5291 6.56159C23.6136 5.72234 22.6396 4.96133 21.6072 4.27924C18.3678 3.95384 15.1212 3.84494 11.8675 3.95318C11.6642 5.74451 11.8805 7.48367 12.5168 9.17C14.2011 9.8821 15.6082 10.9692 16.7373 12.4305C21.7312 18.6411 26.6011 24.9443 31.347 31.3415C29.6548 32.0927 27.9231 32.2009 26.1524 31.6675C23.724 28.6079 21.2352 25.6734 18.6853 22.8641C16.4997 24.0184 14.2271 24.8876 11.8675 25.4725C11.8675 27.646 11.8675 29.8201 11.8675 31.9936C10.3526 31.9936 8.83712 31.9936 7.32227 31.9936C7.32227 29.8201 7.32227 27.646 7.32227 25.4725C4.21075 25.0702 2.15436 23.331 1.15377 20.2557C-0.131877 15.8247 1.05832 12.347 4.72501 9.8221C4.61722 12.6561 4.72565 15.4817 5.04966 18.2994C5.42821 19.2789 5.96909 20.1481 6.67295 20.9078C10.1377 21.959 13.1681 21.198 15.7634 18.6255C14.8167 17.0213 13.6265 15.6082 12.1921 14.3868C12.0714 15.9519 11.7467 17.4739 11.2182 18.9515C9.76434 20.0079 8.5735 19.7908 7.64693 18.2994C7.32227 12.2173 7.21448 6.13055 7.32227 0.040573Z"
        fill="#0C3325" />
</svg>