<svg width="32" height="32" viewBox="0 0 32 32" fill="none" xmlns="http://www.w3.org/2000/svg">
    <g clip-path="url(#clip0_4442_64)">
        <path fill-rule="evenodd" clip-rule="evenodd"
            d="M-0.071167 -0.0712891C10.5955 -0.0712891 21.2622 -0.0712891 31.9288 -0.0712891C31.9288 4.10056 31.9288 8.27242 31.9288 12.4443C31.5022 12.4443 31.0755 12.4443 30.6488 12.4443C30.6488 12.8235 30.6488 13.2028 30.6488 13.582C30.2695 13.582 29.8904 13.582 29.5111 13.582C29.213 11.7704 28.5493 10.1111 27.5199 8.60427C27.2017 7.95415 26.775 7.38527 26.2399 6.8976C25.4671 5.93439 24.5664 5.12846 23.5377 4.47982C22.7646 3.99109 21.9586 3.56442 21.1199 3.19982C19.0671 2.4053 16.9338 2.07345 14.7199 2.20427C13.9774 2.22864 13.2663 2.37087 12.5866 2.63093C12.146 2.66729 11.7194 2.76209 11.3066 2.91538C10.5073 3.2202 9.74882 3.59945 9.03106 4.05316C8.8139 4.04277 8.67167 4.13759 8.60439 4.3376C7.85828 4.75158 7.19458 5.27307 6.61328 5.90204C5.99098 6.38196 5.4695 6.95085 5.04883 7.60871C4.64733 7.82095 4.41028 8.15281 4.33772 8.60427C3.85038 9.2465 3.47113 9.95761 3.19994 10.7376C2.97512 10.9711 2.8803 11.2555 2.9155 11.5909C2.37397 12.9437 2.13693 14.366 2.20439 15.8576C2.20439 16.2369 2.20439 16.6161 2.20439 16.9954C2.00085 16.9412 1.88233 16.799 1.84883 16.5687C1.7374 16.1051 1.76111 15.6546 1.91994 15.2176C1.68053 14.7028 1.58571 14.1575 1.6355 13.582C1.44587 13.582 1.25624 13.582 1.06661 13.582C1.06661 13.9613 1.06661 14.3405 1.06661 14.7198C0.687351 14.7198 0.308093 14.7198 -0.071167 14.7198C-0.071167 9.78945 -0.071167 4.85909 -0.071167 -0.0712891Z"
            fill="#FDFDFD" />
        <path fill-rule="evenodd" clip-rule="evenodd"
            d="M14.72 2.2045C16.9338 2.07368 19.0671 2.40553 21.12 3.20005C20.5293 3.16126 19.9131 3.20867 19.2711 3.34228C19.2711 4.10079 19.2711 4.85932 19.2711 5.61783C19.1288 5.61783 18.9866 5.61783 18.8444 5.61783C18.8444 5.9971 18.8444 6.37635 18.8444 6.75561C18.4804 6.71272 18.1485 6.76013 17.8488 6.89783C16.8119 6.77091 15.769 6.72351 14.72 6.75561C14.72 5.52301 14.72 4.29043 14.72 3.05783C13.7761 2.98362 13.7761 2.86511 14.72 2.70228C14.2459 2.65487 13.7718 2.60746 13.2977 2.56005C13.8144 2.53888 14.2884 2.42035 14.72 2.2045Z"
            fill="#EF752D" />
        <path fill-rule="evenodd" clip-rule="evenodd"
            d="M12.4445 3.20012C12.7442 3.33781 13.0761 3.38523 13.44 3.34234C13.5141 4.53806 13.6563 5.72325 13.8667 6.89789C13.6367 6.97441 13.3997 7.02181 13.1556 7.04012C13.0962 6.93749 13.0014 6.86638 12.8712 6.82678C12.9587 6.47583 12.8401 6.16768 12.5156 5.90234C12.4594 5.40187 12.3172 4.9278 12.0889 4.48012C11.9941 4.10085 11.9941 3.7216 12.0889 3.34234C12.1843 3.23533 12.3029 3.18791 12.4445 3.20012Z"
            fill="#DC832A" />
        <path fill-rule="evenodd" clip-rule="evenodd"
            d="M14.72 2.20459C14.2885 2.42044 13.8144 2.53897 13.2977 2.56015C13.7718 2.60755 14.2459 2.65496 14.72 2.70237C13.7761 2.8652 13.7761 2.98371 14.72 3.05792C14.72 4.29052 14.72 5.5231 14.72 6.7557C14.4355 6.8031 14.1511 6.85052 13.8666 6.89792C13.6562 5.72328 13.514 4.53809 13.44 3.34237C13.076 3.38526 12.7441 3.33784 12.4444 3.20015C12.1403 3.13781 11.8085 3.11412 11.4489 3.12903C11.8576 2.99499 12.2368 2.82906 12.5866 2.63126C13.2663 2.37119 13.9774 2.22897 14.72 2.20459Z"
            fill="#E37E2E" />
        <path fill-rule="evenodd" clip-rule="evenodd"
            d="M21.12 3.20011C21.9587 3.56471 22.7646 3.99137 23.5378 4.48011C23.5619 4.66814 23.5146 4.83406 23.3955 4.97788C23.5554 5.01333 23.6976 5.08444 23.8222 5.19122C23.5699 5.28888 23.3328 5.40741 23.1111 5.54677C23.206 5.59418 23.3007 5.64159 23.3955 5.689C23.0926 6.46789 22.6659 7.179 22.1155 7.82233C22.1629 7.86973 22.2104 7.91715 22.2578 7.96455C21.9166 8.06567 21.5848 8.04196 21.2622 7.89344C21.0921 7.94261 21.0921 8.01372 21.2622 8.10677C21.1777 8.17281 21.0829 8.19652 20.9778 8.17788C19.9721 7.67553 18.9291 7.24886 17.8489 6.89788C18.1485 6.76019 18.4805 6.71277 18.8444 6.75566C18.8444 6.3764 18.8444 5.99715 18.8444 5.61788C18.9867 5.61788 19.1289 5.61788 19.2711 5.61788C19.2711 4.85937 19.2711 4.10084 19.2711 3.34233C19.9131 3.20873 20.5293 3.16131 21.12 3.20011Z"
            fill="#FA8537" />
        <path fill-rule="evenodd" clip-rule="evenodd"
            d="M9.0311 4.0535C9.29016 4.62427 9.64571 5.14574 10.0978 5.61795C10.3921 6.14236 10.7002 6.66384 11.0222 7.18239C11.1968 7.44138 11.4339 7.5836 11.7333 7.60906C11.4319 7.87925 11.1 8.11628 10.7378 8.32017C10.4427 8.30369 10.1582 8.23257 9.88443 8.10684C10.0741 8.05943 10.2637 8.01202 10.4533 7.96461C10.5275 7.88478 10.5749 7.78997 10.5955 7.68017C10.165 6.79903 9.5487 6.06421 8.74665 5.47573C8.84147 5.38091 8.93628 5.2861 9.0311 5.19128C8.64194 5.32151 8.21527 5.32151 7.7511 5.19128C8.06513 4.93053 8.34957 4.64609 8.60443 4.33795C8.67172 4.13794 8.81394 4.04312 9.0311 4.0535Z"
            fill="#BE9F2A" />
        <path fill-rule="evenodd" clip-rule="evenodd"
            d="M12.5867 2.63135C12.2369 2.82915 11.8576 2.99508 11.4489 3.12913C11.8085 3.11421 12.1403 3.1379 12.4444 3.20024C12.3028 3.18803 12.1843 3.23545 12.0889 3.34246C11.9941 3.72172 11.9941 4.10097 12.0889 4.48024C12.3171 4.92792 12.4593 5.40199 12.5156 5.90246C12.8401 6.1678 12.9586 6.47596 12.8711 6.8269C13.0014 6.8665 13.0962 6.93761 13.1556 7.04024C12.9521 7.18779 12.7151 7.2826 12.4444 7.32468C11.8611 6.4782 11.3633 5.57745 10.9511 4.62246C10.9371 4.24581 10.9134 3.89026 10.88 3.55579C10.9959 3.32206 11.1381 3.10873 11.3067 2.91579C11.7194 2.7625 12.1461 2.6677 12.5867 2.63135Z"
            fill="#D28D2B" />
        <path fill-rule="evenodd" clip-rule="evenodd"
            d="M11.3067 2.91553C11.1381 3.10847 10.9959 3.3218 10.88 3.55553C10.9134 3.88999 10.9371 4.24555 10.9511 4.62219C11.3633 5.57719 11.8611 6.47794 12.4445 7.32442C12.241 7.47197 12.004 7.56678 11.7334 7.60886C11.4339 7.5834 11.1968 7.44118 11.0222 7.18219C10.7003 6.66364 10.3921 6.14217 10.0978 5.61775C9.64574 5.14554 9.29019 4.62407 9.03113 4.05331C9.7489 3.5996 10.5074 3.22035 11.3067 2.91553Z"
            fill="#C7982B" />
        <path fill-rule="evenodd" clip-rule="evenodd"
            d="M8.60442 4.33789C8.34956 4.64603 8.06512 4.93047 7.75109 5.19122C8.21526 5.32146 8.64193 5.32146 9.03109 5.19122C8.93627 5.28604 8.84147 5.38085 8.74665 5.47567C9.54869 6.06416 10.165 6.79898 10.5955 7.68011C10.5749 7.78991 10.5275 7.88473 10.4533 7.96456C10.2637 8.01196 10.074 8.05938 9.88442 8.10678C10.1582 8.23252 10.4426 8.30363 10.7378 8.32011C10.4033 8.5607 10.0715 8.79774 9.7422 9.03122C9.77335 8.86411 9.72595 8.72189 9.59998 8.60456C9.43405 8.8416 9.26813 9.07863 9.1022 9.31567C9.1022 8.8416 9.1022 8.36752 9.1022 7.89345C9.07107 8.09796 8.99996 8.28759 8.88887 8.46234C8.21535 7.73517 7.52793 7.02406 6.82665 6.329C6.63644 6.5089 6.4231 6.58001 6.18665 6.54234C6.42006 6.38177 6.56228 6.16843 6.61331 5.90234C7.19462 5.27336 7.85831 4.75187 8.60442 4.33789Z"
            fill="#B4A72A" />
        <path fill-rule="evenodd" clip-rule="evenodd"
            d="M6.61327 5.90234C6.56224 6.16844 6.42002 6.38177 6.18661 6.54234C6.42306 6.58002 6.6364 6.50891 6.82661 6.32901C7.52789 7.02406 8.21531 7.73518 8.88883 8.46234C8.99992 8.2876 9.07103 8.09797 9.10216 7.89345C9.10216 8.36752 9.10216 8.84161 9.10216 9.31568C9.26809 9.07864 9.43401 8.84161 9.59994 8.60457C9.72591 8.7219 9.77331 8.86412 9.74216 9.03123C9.21028 9.56212 8.7362 10.131 8.31994 10.7379C8.1627 10.3747 8.04417 9.99541 7.96438 9.60012C7.91698 9.64752 7.86956 9.69494 7.82216 9.74234C7.09387 9.29166 6.45387 8.72277 5.90216 8.03568C5.5887 7.93523 5.30426 7.793 5.04883 7.60901C5.46949 6.95115 5.99098 6.38226 6.61327 5.90234Z"
            fill="#A7B229" />
        <path fill-rule="evenodd" clip-rule="evenodd"
            d="M14.72 6.75533C15.769 6.72323 16.812 6.77063 17.8489 6.89755C18.9291 7.24852 19.9721 7.67519 20.9778 8.17755C21.4544 8.65374 21.9759 9.0804 22.5422 9.45755C22.8368 9.92744 23.1923 10.3541 23.6089 10.7375C23.8261 11.1718 24.0394 11.5984 24.2489 12.0175C24.646 12.6224 24.8829 13.2861 24.96 14.0087C26.4771 14.0087 27.994 14.0087 29.5111 14.0087C29.5111 13.8664 29.5111 13.7242 29.5111 13.582C29.8904 13.582 30.2696 13.582 30.6489 13.582C30.6489 13.2027 30.6489 12.8235 30.6489 12.4442C31.0756 12.4442 31.5022 12.4442 31.9289 12.4442C31.9289 16.616 31.9289 20.788 31.9289 24.9598C30.3171 24.9598 28.7051 24.9598 27.0933 24.9598C27.1258 24.6959 27.0309 24.5775 26.8089 24.6042C26.6634 25.0162 26.4026 25.3244 26.0267 25.5287C25.9567 25.6778 25.9803 25.8201 26.0978 25.9553C25.9711 26.1103 25.8288 26.1103 25.6711 25.9553C25.539 26.1244 25.4916 26.314 25.5289 26.5242C25.7242 26.5019 25.9139 26.5256 26.0978 26.5953C25.8499 26.7532 25.6603 26.9665 25.5289 27.2353C25.2725 27.1447 25.0829 26.9789 24.96 26.7375C24.8252 26.6689 24.683 26.6452 24.5333 26.6664C24.7032 26.5566 24.8454 26.4144 24.96 26.2398C25.2918 26.0027 25.5763 25.7182 25.8133 25.3864C26.2471 25.095 26.5789 24.7157 26.8089 24.2487C27.1959 23.766 27.5277 23.2444 27.8045 22.6842C28.2559 21.9708 28.6352 21.2124 28.9422 20.4087C29.0661 20.0372 29.1608 19.6579 29.2267 19.2709C29.351 18.8031 29.4458 18.3289 29.5111 17.8487C27.9393 17.7572 26.4222 17.8521 24.96 18.1331C24.8408 18.1817 24.7933 18.2765 24.8178 18.4175C24.568 19.2025 24.2361 19.9611 23.8222 20.6931C23.5768 20.9389 23.3872 21.2233 23.2533 21.5464C23.0205 21.8273 22.7834 22.1118 22.5422 22.3998C22.34 22.6024 22.1029 22.7447 21.8311 22.8264C17.8916 21.3173 13.9568 21.3173 10.0267 22.8264C9.93186 22.8264 9.83706 22.8264 9.74224 22.8264C9.40626 22.4436 9.07442 22.0643 8.74668 21.6887C8.46059 21.3039 8.17614 20.9246 7.89335 20.5509C7.80927 20.0638 7.61964 19.6371 7.32446 19.2709C7.18141 18.8855 7.03919 18.5063 6.89779 18.1331C6.94137 17.7228 6.89397 17.3435 6.75557 16.9953C6.75557 16.4738 6.75557 15.9524 6.75557 15.4309C6.74462 14.9025 6.79204 14.3811 6.89779 13.8664C7.04001 13.3924 7.18224 12.9183 7.32446 12.4442C7.51132 12.0705 7.70096 11.6912 7.89335 11.3064C8.03392 11.1223 8.17614 10.9326 8.32001 10.7375C8.73627 10.1307 9.21035 9.56177 9.74224 9.03088C10.0715 8.79739 10.4034 8.56035 10.7378 8.31977C11.1001 8.11588 11.4319 7.87885 11.7333 7.60866C12.004 7.56658 12.241 7.47177 12.4445 7.32421C12.7151 7.28213 12.9521 7.18733 13.1556 7.03977C13.3996 7.02147 13.6367 6.97406 13.8667 6.89755C14.1511 6.85015 14.4356 6.80273 14.72 6.75533Z"
            fill="#F7F8FC" />
        <path fill-rule="evenodd" clip-rule="evenodd"
            d="M23.5378 4.47998C24.5665 5.12861 25.4672 5.93454 26.24 6.89776C26.0922 7.26084 25.8552 7.56899 25.5289 7.8222C25.345 7.89189 25.1553 7.9156 24.96 7.89331C24.9823 8.08864 24.9586 8.27828 24.8889 8.4622C24.5557 8.55135 24.2475 8.69357 23.9644 8.88887C23.8696 9.22072 23.7749 9.55258 23.68 9.88442C23.5651 9.61089 23.494 9.32644 23.4667 9.03109C23.3616 9.27578 23.243 9.51283 23.1111 9.7422C22.9057 9.52503 22.7871 9.28799 22.7556 9.03109C22.6844 9.0548 22.6133 9.07849 22.5422 9.1022C22.7234 9.24118 22.7234 9.35971 22.5422 9.45776C21.9759 9.08061 21.4544 8.65395 20.9778 8.17776C21.0829 8.19639 21.1777 8.17268 21.2622 8.10665C21.0921 8.01359 21.0921 7.94248 21.2622 7.89331C21.5848 8.04184 21.9166 8.06554 22.2578 7.96442C22.2104 7.91702 22.1629 7.86961 22.1156 7.8222C22.666 7.17887 23.0926 6.46776 23.3956 5.68887C23.3007 5.64147 23.206 5.59405 23.1111 5.54665C23.3328 5.40728 23.5699 5.28876 23.8222 5.19109C23.6976 5.08431 23.5554 5.0132 23.3956 4.97776C23.5146 4.83393 23.562 4.66801 23.5378 4.47998Z"
            fill="#FC9745" />
        <path fill-rule="evenodd" clip-rule="evenodd"
            d="M5.04888 7.60889C5.30431 7.79288 5.58876 7.9351 5.90221 8.03555C6.45392 8.72264 7.09392 9.29153 7.82221 9.74222C7.86962 9.69482 7.91703 9.6474 7.96444 9.6C8.04422 9.99529 8.16275 10.3745 8.31999 10.7378C8.17612 10.9329 8.0339 11.1225 7.89332 11.3067C7.70057 10.5079 7.17908 10.0812 6.32888 10.0267C5.85898 9.50669 5.29009 9.12744 4.62221 8.88889C4.98836 8.46844 4.89354 8.37362 4.33777 8.60444C4.41033 8.15299 4.64737 7.82112 5.04888 7.60889Z"
            fill="#A0B829" />
        <path fill-rule="evenodd" clip-rule="evenodd"
            d="M26.24 6.89795C26.7751 7.38562 27.2017 7.9545 27.52 8.60462C27.5453 8.77454 27.5927 8.94047 27.6622 9.10239C27.3923 9.50925 27.2501 9.95961 27.2356 10.4535C26.1616 10.2439 25.3794 10.6231 24.8889 11.5913C24.8415 11.4965 24.794 11.4017 24.7467 11.3068C24.6476 11.6033 24.4816 11.8403 24.2489 12.0179C24.0394 11.5988 23.8261 11.1722 23.6089 10.7379C23.1923 10.3545 22.8368 9.92784 22.5422 9.45795C22.7234 9.3599 22.7234 9.24137 22.5422 9.10239C22.6133 9.07869 22.6845 9.05499 22.7556 9.03128C22.7871 9.28818 22.9058 9.52522 23.1111 9.74239C23.243 9.51302 23.3616 9.27598 23.4667 9.03128C23.494 9.32664 23.5651 9.61108 23.68 9.88462C23.7749 9.55277 23.8696 9.22091 23.9645 8.88906C24.2475 8.69376 24.5557 8.55154 24.8889 8.46239C24.9586 8.27847 24.9823 8.08883 24.96 7.8935C25.1553 7.91579 25.345 7.89208 25.5289 7.82239C25.8552 7.56918 26.0922 7.26103 26.24 6.89795Z"
            fill="#FCA451" />
        <path fill-rule="evenodd" clip-rule="evenodd"
            d="M7.89328 11.3069C7.7009 11.6916 7.51126 12.0709 7.3244 12.4446C7.29908 11.9323 7.15686 11.9323 6.89773 12.4446C6.85033 12.3972 6.80291 12.3498 6.75551 12.3024C6.83404 12.0887 6.83404 11.8517 6.75551 11.5913C5.99699 11.4965 5.23846 11.4017 4.47995 11.3069C4.47995 11.1172 4.47995 10.9276 4.47995 10.738C4.05328 10.738 3.62662 10.738 3.19995 10.738C3.47114 9.95799 3.85039 9.24688 4.33773 8.60465C4.8935 8.37382 4.98832 8.46864 4.62217 8.88909C5.29005 9.12764 5.85894 9.50689 6.32884 10.0269C7.17904 10.0814 7.70053 10.5081 7.89328 11.3069Z"
            fill="#94BF28" />
        <path fill-rule="evenodd" clip-rule="evenodd"
            d="M15.2889 11.1646C18.3539 11.1964 20.1553 12.7134 20.6933 15.7157C20.5059 18.8423 18.8467 20.5016 15.7155 20.6934C12.8859 20.3288 11.3689 18.7168 11.1644 15.8579C11.459 13.3149 12.8338 11.7504 15.2889 11.1646Z"
            fill="#4B5860" />
        <path fill-rule="evenodd" clip-rule="evenodd"
            d="M27.52 8.60449C28.5494 10.1113 29.213 11.7706 29.5111 13.5823C29.5111 13.7245 29.5111 13.8667 29.5111 14.0089C27.994 14.0089 26.4771 14.0089 24.96 14.0089C24.8829 13.2864 24.646 12.6227 24.2489 12.0178C24.4816 11.8402 24.6476 11.6032 24.7467 11.3067C24.794 11.4015 24.8415 11.4963 24.8889 11.5912C25.3794 10.623 26.1616 10.2437 27.2356 10.4534C27.2501 9.95949 27.3923 9.50912 27.6622 9.10227C27.5927 8.94035 27.5453 8.77442 27.52 8.60449Z"
            fill="#FCAE61" />
        <path fill-rule="evenodd" clip-rule="evenodd"
            d="M3.20004 10.7378C3.62671 10.7378 4.05337 10.7378 4.48004 10.7378C4.48004 10.9274 4.48004 11.1171 4.48004 11.3067C5.23855 11.4015 5.99708 11.4963 6.75559 11.5911C6.83413 11.8515 6.83413 12.0885 6.75559 12.3022C6.803 12.3496 6.85041 12.3971 6.89782 12.4445C7.15695 11.9322 7.29917 11.9322 7.32448 12.4445C7.18226 12.9185 7.04004 13.3926 6.89782 13.8667C6.47115 13.8667 6.04448 13.8667 5.61782 13.8667C5.61782 13.7245 5.61782 13.5822 5.61782 13.44C5.23855 13.44 4.8593 13.44 4.48004 13.44C4.48004 13.2978 4.48004 13.1556 4.48004 13.0133C4.09785 13.0367 3.71858 13.013 3.34226 12.9422C3.29496 12.4342 3.15274 11.9839 2.91559 11.5911C2.88039 11.2557 2.97521 10.9713 3.20004 10.7378Z"
            fill="#88C42D" />
        <path fill-rule="evenodd" clip-rule="evenodd"
            d="M2.20439 16.9954C2.20439 17.1376 2.20439 17.2798 2.20439 17.422C2.19305 17.8887 2.28787 18.3153 2.48883 18.702C2.48883 18.7494 2.48883 18.7969 2.48883 18.8443C2.69389 19.5815 2.93093 20.2926 3.19994 20.9776C3.22264 21.2127 3.31746 21.4023 3.48439 21.5465C3.52615 22.0093 3.71578 22.3886 4.05328 22.6843C4.28406 23.2338 4.56851 23.7552 4.90661 24.2487C4.69395 24.2366 4.55172 24.3313 4.47994 24.5331C4.57476 24.5805 4.66957 24.628 4.76439 24.6754C4.73462 24.7587 4.68722 24.8298 4.62217 24.8887C3.05843 24.9598 1.49399 24.9836 -0.071167 24.9598C-0.071167 21.5465 -0.071167 18.1331 -0.071167 14.7198C0.308093 14.7198 0.687351 14.7198 1.06661 14.7198C1.06661 14.3405 1.06661 13.9613 1.06661 13.582C1.25624 13.582 1.44587 13.582 1.6355 13.582C1.58571 14.1575 1.68053 14.7027 1.91994 15.2176C1.76111 15.6546 1.7374 16.1051 1.84883 16.5687C1.88233 16.799 2.00085 16.9412 2.20439 16.9954Z"
            fill="#F4F5FA" />
        <path fill-rule="evenodd" clip-rule="evenodd"
            d="M2.91556 11.5913C3.1527 11.9841 3.29492 12.4344 3.34222 12.9424C3.71854 13.0132 4.09781 13.0369 4.48 13.0135C4.48 13.1558 4.48 13.298 4.48 13.4402C4.85926 13.4402 5.23851 13.4402 5.61778 13.4402C5.61778 13.5824 5.61778 13.7246 5.61778 13.8669C6.04445 13.8669 6.47111 13.8669 6.89778 13.8669C6.79202 14.3816 6.74461 14.903 6.75556 15.4313C6.48865 15.4882 6.27531 15.6304 6.11556 15.858C5.9419 15.7482 5.79968 15.606 5.68889 15.4313C4.56678 15.7116 3.4053 15.8539 2.20445 15.858C2.13699 14.3663 2.37403 12.9441 2.91556 11.5913Z"
            fill="#7BC539" />
        <path fill-rule="evenodd" clip-rule="evenodd"
            d="M6.75558 15.4312C6.75558 15.9527 6.75558 16.4741 6.75558 16.9956C6.75558 17.2327 6.75558 17.4696 6.75558 17.7067C6.41139 17.7363 6.07954 17.6888 5.76002 17.5645C5.62794 17.7336 5.58054 17.9232 5.6178 18.1334C4.85929 18.1807 4.10076 18.2282 3.34225 18.2756C3.36547 18.6108 3.34176 18.9426 3.27113 19.2712C3.22373 18.9867 3.17631 18.7023 3.12891 18.4178C2.92984 18.5953 2.71651 18.7375 2.48891 18.8445C2.48891 18.7971 2.48891 18.7496 2.48891 18.7023C2.56777 18.2028 2.47295 17.7761 2.20447 17.4223C2.20447 17.28 2.20447 17.1378 2.20447 16.9956C2.20447 16.6163 2.20447 16.2371 2.20447 15.8578C3.40532 15.8537 4.56681 15.7115 5.68891 15.4312C5.7997 15.6058 5.94193 15.748 6.11558 15.8578C6.27534 15.6303 6.48867 15.488 6.75558 15.4312Z"
            fill="#68C44C" />
        <path fill-rule="evenodd" clip-rule="evenodd"
            d="M2.2044 17.4224C2.47289 17.7762 2.56771 18.2029 2.48884 18.7024C2.28788 18.3157 2.19306 17.889 2.2044 17.4224Z"
            fill="#8DCB7F" />
        <path fill-rule="evenodd" clip-rule="evenodd"
            d="M29.2266 19.2713C28.9115 19.3033 28.6744 19.1848 28.5155 18.9158C27.3076 18.7202 26.1223 18.4595 24.96 18.1335C26.4221 17.8525 27.9392 17.7576 29.5111 17.8491C29.4458 18.3294 29.3509 18.8036 29.2266 19.2713Z"
            fill="#CDB083" />
        <path fill-rule="evenodd" clip-rule="evenodd"
            d="M24.96 18.1333C26.1224 18.4593 27.3077 18.72 28.5156 18.9155C28.6745 19.1846 28.9115 19.3031 29.2267 19.2711C29.1609 19.6581 29.0661 20.0374 28.9423 20.4089C28.7289 20.6484 28.4918 20.8854 28.2312 21.12C27.9941 20.9777 27.8045 20.7882 27.6623 20.5511C27.3888 20.4362 27.1043 20.3651 26.8089 20.3377C26.5902 19.8767 26.3295 19.8055 26.0267 20.1244C25.6562 19.8656 25.2769 19.7708 24.8889 19.84C24.6699 19.3819 24.6462 18.9078 24.8178 18.4177C24.7934 18.2767 24.8409 18.1819 24.96 18.1333Z"
            fill="#BDB18E" />
        <path fill-rule="evenodd" clip-rule="evenodd"
            d="M6.75556 16.9956C6.89395 17.3438 6.94136 17.7231 6.89778 18.1334C6.92056 18.375 6.89686 18.6121 6.82667 18.8445C6.76779 18.7795 6.69668 18.732 6.61334 18.7023C6.49188 18.8476 6.34966 18.9661 6.18667 19.0578C6.23407 19.1052 6.28149 19.1527 6.32889 19.2C5.88871 19.6525 5.27241 19.9132 4.48 19.9823C4.48 20.1245 4.48 20.2667 4.48 20.4089C4.10074 20.4089 3.72149 20.4089 3.34222 20.4089C3.38031 20.6364 3.33291 20.8259 3.2 20.9778C2.93099 20.2929 2.69395 19.5818 2.48889 18.8445C2.71649 18.7375 2.92982 18.5953 3.12889 18.4178C3.17629 18.7023 3.22371 18.9867 3.27111 19.2712C3.34174 18.9426 3.36545 18.6108 3.34222 18.2756C4.10074 18.2282 4.85927 18.1807 5.61778 18.1334C5.58052 17.9232 5.62792 17.7336 5.76 17.5645C6.07952 17.6888 6.41137 17.7363 6.75556 17.7067C6.75556 17.4696 6.75556 17.2327 6.75556 16.9956Z"
            fill="#59C35E" />
        <path fill-rule="evenodd" clip-rule="evenodd"
            d="M6.89773 18.1333C7.03913 18.5065 7.18135 18.8857 7.3244 19.2711C7.36691 19.5703 7.3195 19.8548 7.18217 20.1244C7.08735 20.0295 6.99255 19.9348 6.89773 19.84C6.55153 20.2272 6.17227 20.5828 5.75995 20.9066C4.98722 21.1055 4.2287 21.3188 3.4844 21.5466C3.31747 21.4024 3.22265 21.2128 3.19995 20.9777C3.33286 20.8259 3.38026 20.6363 3.34217 20.4089C3.72144 20.4089 4.10069 20.4089 4.47995 20.4089C4.47995 20.2666 4.47995 20.1244 4.47995 19.9822C5.27236 19.9131 5.88866 19.6524 6.32884 19.2C6.28144 19.1526 6.23402 19.1051 6.18662 19.0577C6.3496 18.966 6.49183 18.8475 6.61328 18.7022C6.69663 18.7319 6.76774 18.7794 6.82662 18.8444C6.8968 18.612 6.92051 18.3749 6.89773 18.1333Z"
            fill="#4EC169" />
        <path fill-rule="evenodd" clip-rule="evenodd"
            d="M24.8178 18.418C24.6462 18.9081 24.6699 19.3821 24.8889 19.8402C25.2769 19.7711 25.6562 19.8658 26.0267 20.1246C26.3295 19.8058 26.5902 19.8769 26.8089 20.338C27.1043 20.3653 27.3888 20.4364 27.6623 20.5513C27.8045 20.7884 27.9941 20.978 28.2312 21.1202C28.4918 20.8857 28.7289 20.6486 28.9423 20.4091C28.6352 21.2128 28.2559 21.9712 27.8045 22.6846C27.8029 22.4689 27.7082 22.3029 27.52 22.1869C27.1713 22.1456 26.8395 22.0509 26.5245 21.9024C25.7474 21.3773 24.9652 20.8796 24.1778 20.4091C24.0771 20.5344 23.9585 20.6291 23.8223 20.6935C24.2361 19.9615 24.5681 19.2029 24.8178 18.418Z"
            fill="#A6B19D" />
        <path fill-rule="evenodd" clip-rule="evenodd"
            d="M27.8044 22.6842C27.5276 23.2445 27.1958 23.766 26.8089 24.2487C25.9549 23.7528 25.1965 23.1128 24.5333 22.3287C24.3164 22.1852 24.0793 22.1141 23.8222 22.1154C23.8222 21.9258 23.8222 21.7361 23.8222 21.5465C23.6326 21.5465 23.4429 21.5465 23.2533 21.5465C23.3871 21.2233 23.5767 20.9389 23.8222 20.6931C23.9584 20.6287 24.077 20.534 24.1777 20.4087C24.9651 20.8792 25.7473 21.3769 26.5244 21.902C26.8394 22.0505 27.1712 22.1452 27.52 22.1865C27.7081 22.3025 27.8028 22.4685 27.8044 22.6842Z"
            fill="#91B0A6" />
        <path fill-rule="evenodd" clip-rule="evenodd"
            d="M7.3245 19.271C7.61968 19.6372 7.8093 20.0639 7.89339 20.551C7.90559 20.6926 7.85817 20.8111 7.75116 20.9066C6.76619 21.2526 5.91286 21.7979 5.19116 22.5421C4.97139 22.6775 4.73435 22.7249 4.48005 22.6843C4.50131 22.8339 4.47761 22.9762 4.40894 23.111C4.35535 22.9059 4.23684 22.7637 4.05339 22.6843C3.71589 22.3886 3.52625 22.0093 3.4845 21.5466C4.2288 21.3187 4.98732 21.1054 5.76005 20.9066C6.17237 20.5827 6.55163 20.2272 6.89783 19.8399C6.99265 19.9347 7.08746 20.0295 7.18227 20.1243C7.3196 19.8547 7.36701 19.5702 7.3245 19.271Z"
            fill="#45BE78" />
        <path fill-rule="evenodd" clip-rule="evenodd"
            d="M23.2533 21.5469C23.4429 21.5469 23.6327 21.5469 23.8222 21.5469C23.8222 21.7365 23.8222 21.9262 23.8222 22.1158C24.0794 22.1145 24.3165 22.1856 24.5333 22.3291C25.1965 23.1132 25.955 23.7532 26.8089 24.2491C26.5789 24.7162 26.2471 25.0955 25.8133 25.3869C25.7936 24.8733 25.5565 24.4941 25.1022 24.2491C24.9762 24.1318 24.9289 23.9895 24.96 23.8224C24.8104 23.8436 24.6682 23.82 24.5333 23.7513C24.4105 23.51 24.2209 23.3441 23.9645 23.2535C23.8323 23.0844 23.785 22.8949 23.8222 22.6847C23.39 22.6121 22.9634 22.5173 22.5422 22.4002C22.7834 22.1122 23.0205 21.8278 23.2533 21.5469Z"
            fill="#7DAEB0" />
        <path fill-rule="evenodd" clip-rule="evenodd"
            d="M21.8311 22.8267C21.7837 22.9215 21.7362 23.0162 21.6888 23.1111C21.3266 23.3151 20.9946 23.552 20.6933 23.8222C20.2687 23.9397 19.8896 24.1293 19.5555 24.3911C18.0044 24.9764 16.3926 25.2133 14.7199 25.1022C14.0658 24.9836 13.402 24.8414 12.7288 24.6756C12.6802 24.5564 12.5854 24.5089 12.4444 24.5333C12.0155 24.2241 11.5415 23.9871 11.0222 23.8222C11.0222 23.7274 10.9748 23.68 10.8799 23.68C10.5343 23.4591 10.2499 23.1747 10.0266 22.8267C13.9567 21.3175 17.8915 21.3175 21.8311 22.8267Z"
            fill="#4A5860" />
        <path fill-rule="evenodd" clip-rule="evenodd"
            d="M7.89334 20.5513C8.17614 20.925 8.46058 21.3043 8.74668 21.689C8.76372 22.0738 8.62149 22.1686 8.32001 21.9735C7.35978 22.2696 6.60127 22.8385 6.04446 23.6802C5.92712 23.8062 5.7849 23.8535 5.61779 23.8224C5.63905 23.6728 5.61534 23.5305 5.54668 23.3957C5.46479 23.6627 5.48849 23.9235 5.61779 24.1779C5.38722 24.649 5.33982 24.649 5.47557 24.1779C5.32242 24.1111 5.1802 24.1348 5.0489 24.249C5.0015 24.249 4.95408 24.249 4.90668 24.249C4.56857 23.7555 4.28413 23.2341 4.05334 22.6846C4.2368 22.764 4.35531 22.9062 4.4089 23.1113C4.47757 22.9764 4.50127 22.8342 4.48001 22.6846C4.7343 22.7251 4.97135 22.6778 5.19112 22.5424C5.91281 21.7981 6.76615 21.2529 7.75112 20.9068C7.85813 20.8114 7.90555 20.6929 7.89334 20.5513Z"
            fill="#3BBB85" />
        <path fill-rule="evenodd" clip-rule="evenodd"
            d="M8.74661 21.689C9.07434 22.0646 9.40619 22.4439 9.74216 22.8267C9.55295 23.0162 9.31591 23.1347 9.03105 23.1823C9.16588 23.251 9.3081 23.2746 9.45772 23.2534C9.43782 23.4844 9.53263 23.6502 9.74216 23.7512C9.36648 23.7971 9.03463 23.9393 8.74661 24.1779C8.39229 24.6742 7.98933 25.1246 7.53772 25.529C7.49031 25.4816 7.4429 25.4341 7.39549 25.3867C7.29415 25.7214 7.12822 26.0058 6.89772 26.2401C6.18092 25.6656 5.56461 25.0019 5.04883 24.249C5.18013 24.1348 5.32235 24.111 5.47549 24.1779C5.33974 24.6489 5.38715 24.6489 5.61772 24.1779C5.48842 23.9234 5.46471 23.6626 5.54661 23.3956C5.61527 23.5305 5.63898 23.6727 5.61772 23.8223C5.78483 23.8534 5.92705 23.8061 6.04438 23.6801C6.6012 22.8384 7.35971 22.2695 8.31994 21.9734C8.62142 22.1685 8.76364 22.0737 8.74661 21.689Z"
            fill="#2FB796" />
        <path fill-rule="evenodd" clip-rule="evenodd"
            d="M10.88 23.6802C10.9748 23.6802 11.0222 23.7275 11.0222 23.8224C11.0445 24.0177 11.0208 24.2074 10.9511 24.3913C10.6992 24.5056 10.4858 24.6716 10.3111 24.8891C10.3761 24.9479 10.4235 25.0191 10.4533 25.1024C10.2372 25.3948 10.1187 25.7268 10.0978 26.098C9.99942 25.7579 9.8572 25.7579 9.67109 26.098C9.6388 26.462 9.44918 26.699 9.1022 26.8091C9.03353 26.9439 9.00983 27.0861 9.03109 27.2357C8.88147 27.2145 8.73925 27.2381 8.60442 27.3068C9.04016 27.5712 9.46683 27.8319 9.88442 28.0891C9.88442 28.1364 9.88442 28.1839 9.88442 28.2313C9.17327 27.9235 8.50956 27.5442 7.89331 27.0935C8.04859 26.729 8.28563 26.4208 8.60442 26.1691C8.73925 26.1004 8.88147 26.0768 9.03109 26.098C9.0083 25.8563 9.03201 25.6192 9.1022 25.3868C9.2654 25.5231 9.40762 25.4757 9.52887 25.2446C9.64168 24.643 9.90243 24.1216 10.3111 23.6802C10.5237 23.8516 10.7133 23.8516 10.88 23.6802Z"
            fill="#1DB1B1" />
        <path fill-rule="evenodd" clip-rule="evenodd"
            d="M22.5422 22.3999C22.9633 22.517 23.39 22.6118 23.8222 22.6843C23.7849 22.8946 23.8323 23.0841 23.9644 23.2532C24.2208 23.3438 24.4104 23.5097 24.5333 23.751C24.6681 23.8197 24.8103 23.8433 24.96 23.8221C24.9288 23.9892 24.9762 24.1315 25.1022 24.2488C25.5564 24.4938 25.7935 24.873 25.8133 25.3866C25.5762 25.7184 25.2918 26.0028 24.96 26.2399C24.7781 25.6316 24.3987 25.205 23.8222 24.9599C23.8222 24.7703 23.8222 24.5806 23.8222 24.391C23.6726 24.4122 23.5303 24.3886 23.3955 24.3199C23.193 24.0045 22.9085 23.7911 22.5422 23.6799C22.3564 23.4791 22.2378 23.242 22.1866 22.9688C22.0428 23.0878 21.8769 23.1352 21.6888 23.111C21.7362 23.0162 21.7837 22.9214 21.8311 22.8266C22.1029 22.7448 22.3399 22.6026 22.5422 22.3999Z"
            fill="#6EACB7" />
        <path fill-rule="evenodd" clip-rule="evenodd"
            d="M11.0223 23.8223C11.5416 23.9871 12.0156 24.2242 12.4445 24.5334C12.2028 24.5106 11.9658 24.5342 11.7334 24.6045C11.8282 24.6518 11.923 24.6994 12.0178 24.7467C11.6645 24.9818 11.3801 25.29 11.1645 25.6712C11.0329 25.5089 10.9144 25.5089 10.8089 25.6712C10.7557 25.8014 10.6846 25.92 10.5956 26.0267C10.7555 26.0621 10.8977 26.1332 11.0223 26.24C10.8462 26.544 10.5854 26.7337 10.24 26.8089C10.1633 27.0415 10.2344 27.231 10.4534 27.3778C10.2877 27.532 10.0981 27.6505 9.88449 27.7334C10.256 27.8857 10.256 28.0043 9.88449 28.0889C9.4669 27.8318 9.04023 27.5711 8.60449 27.3067C8.73932 27.238 8.88154 27.2144 9.03116 27.2356C9.0099 27.086 9.03361 26.9438 9.10227 26.8089C9.44925 26.6989 9.63887 26.4619 9.67116 26.0978C9.85727 25.7578 9.99949 25.7578 10.0978 26.0978C10.1188 25.7266 10.2373 25.3947 10.4534 25.1023C10.4236 25.0189 10.3762 24.9478 10.3112 24.8889C10.4859 24.6715 10.6992 24.5055 10.9512 24.3912C11.0208 24.2073 11.0446 24.0175 11.0223 23.8223Z"
            fill="#17AEB9" />
        <path fill-rule="evenodd" clip-rule="evenodd"
            d="M9.74227 22.8267C9.83709 22.8267 9.9319 22.8267 10.0267 22.8267C10.25 23.1747 10.5344 23.4591 10.88 23.68C10.7134 23.8514 10.5238 23.8514 10.3112 23.68C9.9025 24.1215 9.64175 24.6428 9.52894 25.2444C9.40769 25.4755 9.26547 25.5229 9.10227 25.3867C9.03208 25.6191 9.00838 25.8561 9.03116 26.0978C8.88154 26.0766 8.73932 26.1002 8.60449 26.1689C8.2857 26.4206 8.04866 26.7288 7.89338 27.0933C7.52931 26.8412 7.19746 26.5567 6.89783 26.24C7.12833 26.0058 7.29426 25.7213 7.3956 25.3867C7.44301 25.434 7.49042 25.4815 7.53783 25.5289C7.98944 25.1245 8.3924 24.6741 8.74672 24.1778C9.03474 23.9393 9.36659 23.797 9.74227 23.7511C9.53274 23.6501 9.43793 23.4843 9.45783 23.2533C9.30821 23.2745 9.16599 23.2509 9.03116 23.1822C9.31602 23.1346 9.55306 23.0161 9.74227 22.8267Z"
            fill="#23B2A7" />
        <path fill-rule="evenodd" clip-rule="evenodd"
            d="M20.6933 23.8223C20.9163 24.017 21.177 24.1592 21.4755 24.2489C21.5229 24.5334 21.5704 24.8178 21.6178 25.1023C22.1393 25.7185 22.7082 26.2874 23.3244 26.8089C23.4369 26.986 23.508 27.1756 23.5378 27.3778C22.6651 28.0037 21.717 28.4778 20.6933 28.8C20.8138 28.5915 21.0034 28.4729 21.2622 28.4445C21.128 28.0578 21.0806 27.6549 21.12 27.2356C20.9778 27.2356 20.8355 27.2356 20.6933 27.2356C20.9325 27.0001 21.0273 26.6208 20.9778 26.0978C20.7882 26.0978 20.5985 26.0978 20.4089 26.0978C20.4089 25.6712 20.4089 25.2445 20.4089 24.8178C20.0407 24.8234 19.7562 24.6811 19.5555 24.3912C19.8896 24.1293 20.2688 23.9397 20.6933 23.8223Z"
            fill="#40A8CA" />
        <path fill-rule="evenodd" clip-rule="evenodd"
            d="M24.96 26.2399C24.8454 26.4145 24.7032 26.5567 24.5334 26.6665C24.232 26.9368 23.9 27.1737 23.5378 27.3776C23.5081 27.1754 23.437 26.9858 23.3245 26.8088C22.7082 26.2872 22.1393 25.7183 21.6178 25.1021C21.5704 24.8176 21.5229 24.5332 21.4756 24.2488C21.1771 24.159 20.9164 24.0168 20.6934 23.8221C20.9947 23.5519 21.3267 23.3149 21.6889 23.111C21.8769 23.1352 22.0429 23.0878 22.1867 22.9688C22.2379 23.242 22.3565 23.479 22.5422 23.6799C22.9086 23.7911 23.1931 24.0044 23.3956 24.3199C23.5304 24.3886 23.6726 24.4122 23.8222 24.391C23.8222 24.5806 23.8222 24.7703 23.8222 24.9599C24.3988 25.2049 24.7781 25.6316 24.96 26.2399Z"
            fill="#55AAC2" />
        <path fill-rule="evenodd" clip-rule="evenodd"
            d="M19.5555 24.3911C19.7562 24.6811 20.0407 24.8233 20.4089 24.8178C20.4089 25.2444 20.4089 25.6711 20.4089 26.0978C20.5985 26.0978 20.7882 26.0978 20.9778 26.0978C21.0273 26.6207 20.9325 27 20.6933 27.2356C20.8355 27.2356 20.9778 27.2356 21.12 27.2356C21.0806 27.6548 21.1279 28.0577 21.2622 28.4444C21.0034 28.4729 20.8138 28.5915 20.6933 28.8C18.2182 29.6869 15.6582 29.9002 13.0133 29.44C12.3933 29.3208 11.8244 29.1075 11.3067 28.8C11.2909 28.7123 11.2435 28.6411 11.1644 28.5867C11.7862 28.6447 12.4025 28.6209 13.0133 28.5156C13.6303 28.4982 13.6777 28.4508 13.1555 28.3733C13.1555 27.994 13.1555 27.6149 13.1555 27.2356C13.2978 27.2356 13.44 27.2356 13.5822 27.2356C13.5822 26.8563 13.5822 26.4771 13.5822 26.0978C14.7193 26.0267 15.8571 25.9556 16.9955 25.8844C13.2029 25.7422 13.2029 25.6 16.9955 25.4578C16.1763 25.4751 15.4179 25.3567 14.72 25.1022C16.3927 25.2133 18.0045 24.9764 19.5555 24.3911Z"
            fill="#1DA6D5" />
        <path fill-rule="evenodd" clip-rule="evenodd"
            d="M4.90661 24.2491C4.95401 24.2491 5.00143 24.2491 5.04883 24.2491C5.56462 25.002 6.18092 25.6657 6.89772 26.2402C7.19736 26.5569 7.5292 26.8414 7.89328 27.0935C8.50953 27.5442 9.17324 27.9235 9.88439 28.2313C10.2954 28.5489 10.7695 28.7385 11.3066 28.8002C11.8243 29.1077 12.3932 29.321 13.0133 29.4402C15.6582 29.9004 18.2182 29.6871 20.6933 28.8002C21.717 28.4779 22.665 28.0039 23.5377 27.378C23.9 27.174 24.2319 26.9371 24.5333 26.6669C24.6829 26.6457 24.8251 26.6693 24.9599 26.738C25.0828 26.9793 25.2724 27.1451 25.5288 27.2357C25.6602 26.9669 25.8498 26.7536 26.0977 26.5957C25.9138 26.5261 25.7241 26.5023 25.5288 26.5246C25.4916 26.3144 25.5389 26.1248 25.6711 25.9557C25.8288 26.1108 25.971 26.1108 26.0977 25.9557C25.9802 25.8205 25.9566 25.6783 26.0266 25.5291C26.4025 25.3248 26.6633 25.0166 26.8088 24.6046C27.0308 24.5779 27.1257 24.6964 27.0933 24.9602C28.7051 24.9602 30.317 24.9602 31.9288 24.9602C31.9288 27.2831 31.9288 29.6062 31.9288 31.9291C21.2622 31.9291 10.5955 31.9291 -0.071167 31.9291C-0.071167 29.6062 -0.071167 27.2831 -0.071167 24.9602C1.49399 24.9839 3.05843 24.9602 4.62217 24.8891C4.68722 24.8302 4.73462 24.7591 4.76439 24.6757C4.66957 24.6284 4.57476 24.5809 4.47994 24.5335C4.55172 24.3317 4.69395 24.237 4.90661 24.2491Z"
            fill="#F0F1F9" />
        <path fill-rule="evenodd" clip-rule="evenodd"
            d="M12.4444 24.5333C12.5854 24.5088 12.6802 24.5563 12.7288 24.6755C12.4917 25.0682 12.3495 25.5186 12.3022 26.0266C12.4364 26.4133 12.4838 26.8162 12.4444 27.2355C12.3022 27.2355 12.16 27.2355 12.0177 27.2355C12.0177 27.6148 12.0177 27.994 12.0177 28.3733C12.3817 28.3303 12.7136 28.3778 13.0133 28.5155C12.4025 28.6209 11.7862 28.6446 11.1644 28.5866C11.2435 28.6411 11.2909 28.7122 11.3066 28.7999C10.7695 28.7382 10.2954 28.5486 9.8844 28.2311C9.8844 28.1837 9.8844 28.1362 9.8844 28.0888C10.256 28.0042 10.256 27.8856 9.8844 27.7333C10.098 27.6504 10.2876 27.5319 10.4533 27.3777C10.2343 27.2309 10.1632 27.0414 10.24 26.8088C10.5854 26.7336 10.8461 26.5439 11.0222 26.2399C10.8976 26.1331 10.7554 26.062 10.5955 26.0266C10.6845 25.9199 10.7556 25.8013 10.8088 25.6711C10.9143 25.5088 11.0328 25.5088 11.1644 25.6711C11.38 25.2899 11.6644 24.9817 12.0177 24.7466C11.9229 24.6992 11.8281 24.6517 11.7333 24.6044C11.9657 24.5341 12.2027 24.5105 12.4444 24.5333Z"
            fill="#13ACC0" />
        <path fill-rule="evenodd" clip-rule="evenodd"
            d="M12.7289 24.6758C13.4021 24.8416 14.0659 24.9838 14.72 25.1024C15.4179 25.3569 16.1764 25.4754 16.9956 25.458C13.203 25.6002 13.203 25.7424 16.9956 25.8847C15.8571 25.9558 14.7193 26.0269 13.5823 26.098C13.5823 26.4773 13.5823 26.8565 13.5823 27.2358C13.44 27.2358 13.2978 27.2358 13.1556 27.2358C13.1556 27.6151 13.1556 27.9943 13.1556 28.3736C13.6778 28.4511 13.6304 28.4984 13.0134 28.5158C12.7137 28.3781 12.3818 28.3306 12.0178 28.3736C12.0178 27.9943 12.0178 27.6151 12.0178 27.2358C12.16 27.2358 12.3023 27.2358 12.4445 27.2358C12.4839 26.8165 12.4365 26.4136 12.3023 26.0269C12.3496 25.5189 12.4918 25.0685 12.7289 24.6758Z"
            fill="#10A9CC" />
    </g>
    <defs>
        <clipPath id="clip0_4442_64">
            <rect width="32" height="32" fill="white" />
        </clipPath>
    </defs>
</svg>