<svg width="32" height="32" viewBox="0 0 32 32" fill="none" xmlns="http://www.w3.org/2000/svg">
    <g clip-path="url(#clip0_3554_5033)">
        <rect width="32" height="32" fill="#E67E21" />
        <g filter="url(#filter0_d_3554_5033)">
            <path fill-rule="evenodd" clip-rule="evenodd"
                d="M21.7214 13.6834C19.5591 15.5342 16.8988 16.7097 14.0717 17.0635L15.1073 14.1488C15.473 13.1098 15.987 11.7268 16.6493 9.99975C16.8257 9.5249 17.0324 9.0618 17.2682 8.61329C17.4544 8.26841 17.5487 7.88163 17.5421 7.48997C17.5421 7.07192 17.3122 6.66039 16.8523 6.25539C16.6398 6.07423 16.4001 5.92738 16.142 5.82015C15.839 5.69949 15.5147 5.64095 15.1884 5.64805C14.8035 5.65503 14.432 5.7904 14.1332 6.03255C13.1726 6.95 11.9958 9.37876 10.6027 13.3188L9.38465 16.7395C6.90918 23.8508 4.65694 28.1416 2.62794 29.6121C2.52434 29.693 2.44236 29.7981 2.38926 29.9182C2.33617 30.0382 2.31361 30.1695 2.32359 30.3004C2.3286 30.4644 2.36929 30.6253 2.44285 30.7721C2.51641 30.9188 2.62109 31.0479 2.74961 31.1503C2.89598 31.2927 3.06814 31.4061 3.25692 31.4844C3.47199 31.5744 3.70338 31.6192 3.9366 31.6159C4.19018 31.6151 4.44139 31.5671 4.67728 31.4743C7.61241 30.4489 10.5004 26.2928 13.3414 19.0058C14.079 19.2102 14.7105 19.6881 15.1066 20.3416C15.3336 20.6709 15.5305 21.0198 15.6951 21.3841C15.8707 21.7685 16.0804 22.1935 16.324 22.6591C16.5677 23.1247 16.8315 23.6813 17.1154 24.3289L18.0285 26.3124C18.3532 26.9867 18.7082 27.6479 19.0936 28.2959C19.468 28.9288 19.9103 29.5192 20.4126 30.0568C20.9007 30.5786 21.4692 31.0193 22.0967 31.3622C22.7257 31.7063 23.5474 31.9154 24.5619 31.9896C25.5772 32.0637 26.5815 31.7407 27.3621 31.0889C27.6908 30.8481 27.9612 30.5369 28.1535 30.1782C28.3002 29.9352 28.3609 29.6501 28.3258 29.3685C28.2783 29.1529 28.1904 29.0416 28.0622 29.0346C27.7844 29.0497 27.509 29.0938 27.2404 29.1663C26.8413 29.2602 26.4274 29.2739 26.0229 29.2067C24.9001 28.9775 23.6286 27.5472 22.2083 24.9159L20.5851 22.0216C19.8952 20.8072 19.1579 19.8762 18.3734 19.2284C21.1561 18.4597 23.72 17.0527 25.8606 15.1198C28.2954 12.9339 29.5129 10.5119 29.513 7.85374C29.513 5.61406 28.6337 3.77225 26.8751 2.32831C25.9043 1.56526 24.7998 0.98891 23.6178 0.628647C22.4308 0.228042 21.188 0.0163163 19.935 0.00124272C18.9731 -0.00781997 18.0114 0.0326903 17.0538 0.122612C13.2935 0.527506 10.6018 1.42484 8.97874 2.81461C7.89631 3.73207 7.80162 4.68334 8.69467 5.66844C8.9361 5.92352 9.21663 6.13871 9.52577 6.30596C9.82392 6.47155 10.1594 6.55868 10.5007 6.55914C10.8386 6.55914 11.1937 6.39384 11.566 6.06322C12.0484 5.65481 12.5681 5.29228 13.1181 4.98035C15.404 3.63115 17.6628 2.95649 19.8945 2.95638C23.4516 2.95638 25.2304 4.29895 25.231 6.9841C25.231 9.48056 24.0609 11.7137 21.7207 13.6834H21.7214Z"
                fill="#FAFAFA" />
        </g>
    </g>
    <defs>
        <filter id="filter0_d_3554_5033" x="-5.67871" y="0" width="43.1919" height="51"
            filterUnits="userSpaceOnUse" color-interpolation-filters="sRGB">
            <feFlood flood-opacity="0" result="BackgroundImageFix" />
            <feColorMatrix in="SourceAlpha" type="matrix"
                values="0 0 0 0 0 0 0 0 0 0 0 0 0 0 0 0 0 0 127 0" result="hardAlpha" />
            <feOffset dy="11" />
            <feGaussianBlur stdDeviation="4" />
            <feColorMatrix type="matrix" values="0 0 0 0 0 0 0 0 0 0 0 0 0 0 0 0 0 0 0.18 0" />
            <feBlend mode="normal" in2="BackgroundImageFix" result="effect1_dropShadow_3554_5033" />
            <feBlend mode="normal" in="SourceGraphic" in2="effect1_dropShadow_3554_5033"
                result="shape" />
        </filter>
        <clipPath id="clip0_3554_5033">
            <rect width="32" height="32" fill="white" />
        </clipPath>
    </defs>
</svg>