<svg width="32" height="32" viewBox="0 0 32 32" fill="none" xmlns="http://www.w3.org/2000/svg">
    <g clip-path="url(#clip0_4397_1124)">
        <path fill-rule="evenodd" clip-rule="evenodd"
            d="M-0.03125 -0.03125C10.6354 -0.03125 21.3021 -0.03125 31.9688 -0.03125C31.9688 10.6354 31.9688 21.3021 31.9688 31.9688C21.3021 31.9688 10.6354 31.9688 -0.03125 31.9688C-0.03125 21.3021 -0.03125 10.6354 -0.03125 -0.03125Z"
            fill="#FEFEFE" />
        <path fill-rule="evenodd" clip-rule="evenodd"
            d="M23.4062 3.21875C23.509 3.20541 23.6028 3.22624 23.6875 3.28125C23.8871 3.77269 24.2204 4.14769 24.6875 4.40625C24.8893 4.67084 25.0664 4.95209 25.2188 5.25C22.7936 8.09231 20.2311 10.8214 17.5312 13.4375C17.2416 13.6645 16.9708 13.9145 16.7188 14.1875C15.3528 14.1037 14.1028 13.6766 12.9688 12.9063C14.9844 11.4227 16.8802 9.78731 18.6562 8C18.9649 7.81369 19.2982 7.73038 19.6562 7.75C19.6926 7.80581 19.7134 7.86831 19.7188 7.9375C19.6379 8.14063 19.5754 8.349 19.5312 8.5625C19.5116 8.7315 19.5741 8.8565 19.7188 8.9375C20.0502 8.91575 20.3836 8.91575 20.7188 8.9375C20.9029 8.88713 21.0695 8.80381 21.2188 8.6875C21.4016 8.41575 21.6204 8.17613 21.875 7.96875C22.1292 7.49806 22.2126 6.99806 22.125 6.46875C21.9617 6.17879 21.8575 5.86629 21.8125 5.53125C21.7307 5.37652 21.6161 5.25152 21.4688 5.15625C22.1367 4.52994 22.7826 3.88411 23.4062 3.21875Z"
            fill="#1263F4" />
        <path fill-rule="evenodd" clip-rule="evenodd"
            d="M20.1562 5.59403C20.5017 5.56278 20.8351 5.60444 21.1562 5.71903C21.4314 6.16508 21.6189 6.64422 21.7188 7.15653C21.7158 7.39741 21.6638 7.62659 21.5625 7.84403C21.5366 7.87259 21.5054 7.89347 21.4688 7.90653C21.4314 7.56834 21.3793 7.23497 21.3125 6.90653C21.2448 7.31741 21.1823 7.73409 21.125 8.15653C21.0222 8.33222 20.8869 8.47803 20.7188 8.59403C20.6739 8.42266 20.7051 8.25597 20.8125 8.09403C20.8437 7.82397 20.8541 7.55316 20.8438 7.28153C20.7812 7.28153 20.7188 7.28153 20.6562 7.28153C20.7024 7.85597 20.4836 8.29347 20 8.59403C19.9688 8.58359 19.9375 8.57322 19.9062 8.56278C20.1791 8.17841 20.2832 7.75128 20.2188 7.28153C19.7533 7.25978 19.2949 7.30141 18.8438 7.40653C18.9302 6.54553 19.3677 5.94134 20.1562 5.59403Z"
            fill="#1965F4" />
        <path fill-rule="evenodd" clip-rule="evenodd"
            d="M24.5312 8.90586C26.2092 8.72098 27.4488 9.36686 28.25 10.8434C28.5654 11.927 28.4195 12.9479 27.8125 13.9059C27.2708 14.6975 26.7292 15.4892 26.1875 16.2809C25.3174 17.9168 24.5674 19.6043 23.9375 21.3434C23.003 23.4857 21.6801 25.3504 19.9688 26.9371C18.9426 27.8355 17.7551 28.4189 16.4062 28.6871C14.5017 28.9063 12.835 28.3855 11.4062 27.1246C9.59331 25.5091 8.27044 23.5612 7.4375 21.2809C7.36844 20.925 7.2955 20.5709 7.21875 20.2184C7.75044 19.593 8.31294 18.9992 8.90625 18.4371C9.17475 18.2205 9.46637 18.0434 9.78125 17.9059C9.84012 17.9126 9.89219 17.9334 9.9375 17.9684C9.92581 18.1802 9.93619 18.3885 9.96875 18.5934C11.0563 19.5955 12.3272 20.2309 13.7812 20.4996C13.0803 20.0901 12.4136 19.6317 11.7812 19.1246C12.5066 18.4822 13.2669 17.8885 14.0625 17.3434C15.2962 18.1366 16.6399 18.647 18.0938 18.8746C18.6146 18.9163 19.1354 18.9163 19.6562 18.8746C20.1877 18.7966 20.6252 18.557 20.9688 18.1559C20.9583 18.135 20.9479 18.1142 20.9375 18.0934C20.6608 18.341 20.3379 18.4973 19.9688 18.5621C18.7852 18.6309 17.6602 18.4017 16.5938 17.8746C15.8346 17.5264 15.1054 17.1306 14.4062 16.6871C13.641 16.3148 12.8701 15.9606 12.0938 15.6246C11.647 15.3027 11.2408 14.9382 10.875 14.5309C10.6152 14.0389 10.7298 13.6534 11.2188 13.3746C11.5692 13.1772 11.9234 13.1772 12.2812 13.3746C13.9527 14.4469 15.7861 15.0094 17.7812 15.0621C18.4133 15.1209 19.0383 15.0793 19.6562 14.9371C19.0987 14.923 18.5571 14.8397 18.0312 14.6871C19.4497 14.1916 20.7518 13.4937 21.9375 12.5934C22.1947 12.1074 22.3197 11.5865 22.3125 11.0309C22.6986 9.94667 23.4382 9.23836 24.5312 8.90586Z"
            fill="#1063F4" />
        <path fill-rule="evenodd" clip-rule="evenodd"
            d="M24.2813 9.7185C25.1165 9.66138 25.9082 9.81763 26.6563 10.1873C27.1381 10.4399 27.461 10.8253 27.625 11.3435C27.6749 11.4534 27.6644 11.5576 27.5938 11.656C27.4184 11.2828 27.1476 11.0015 26.7813 10.8123C26.2303 10.6558 25.9907 10.8537 26.0625 11.406C26.4748 11.7372 26.9331 11.9872 27.4375 12.156C27.4662 12.3704 27.4037 12.5579 27.25 12.7185C27.0262 12.9843 26.7658 13.203 26.4688 13.3748C25.9555 13.6418 25.4347 13.8918 24.9063 14.1248C24.8229 14.1664 24.7396 14.1664 24.6563 14.1248C24.1658 13.6759 23.7179 13.1863 23.3125 12.656C23.0403 12.1922 22.9049 11.6922 22.9063 11.156C23.3628 11.2196 23.8212 11.2299 24.2813 11.1873C24.7769 11.0916 24.9019 10.8208 24.6563 10.3748C24.4211 10.24 24.1711 10.1983 23.9063 10.2498C23.6232 10.3444 23.3628 10.4798 23.125 10.656C23.1763 10.4144 23.3117 10.2164 23.5313 10.0623C23.7797 9.92813 24.0297 9.8135 24.2813 9.7185Z"
            fill="#FAFBFE" />
        <path fill-rule="evenodd" clip-rule="evenodd"
            d="M21.1562 10.4063C21.2186 10.4045 21.2603 10.4357 21.2812 10.5001C21.3895 10.9706 21.5353 11.429 21.7188 11.8751C21.6753 11.9934 21.6231 12.108 21.5625 12.2188C20.9126 12.7261 20.2356 13.1949 19.5312 13.6251C19.2204 13.8326 18.8871 13.9889 18.5312 14.0938C18.4381 13.7848 18.386 13.4723 18.375 13.1563C19.3337 12.2705 20.2608 11.3539 21.1562 10.4063Z"
            fill="#1865F4" />
        <path fill-rule="evenodd" clip-rule="evenodd"
            d="M24.7188 11.2188C25.0374 11.2619 25.3499 11.3349 25.6563 11.4375C25.9206 11.6777 25.8997 11.8861 25.5938 12.0625C25.3925 12.1578 25.1842 12.1995 24.9688 12.1875C24.81 12.0497 24.6746 11.8934 24.5625 11.7188C24.5011 11.5141 24.5532 11.3474 24.7188 11.2188Z"
            fill="#1665F4" />
        <path fill-rule="evenodd" clip-rule="evenodd"
            d="M10.2813 14.9688C10.7261 15.3685 11.1844 15.7539 11.6563 16.125C12.2456 16.4361 12.8498 16.7174 13.4688 16.9688C12.778 17.5866 12.0593 18.1699 11.3125 18.7188C10.8057 18.5054 10.5557 18.1304 10.5625 17.5938C10.2587 17.3573 9.91494 17.2843 9.53125 17.375C9.0615 17.6201 8.624 17.9118 8.21875 18.25C7.62688 18.7793 7.05394 19.3314 6.5 19.9062C6.44231 20.0021 6.41106 20.1063 6.40625 20.2188C6.60406 21.1559 6.89575 22.0622 7.28125 22.9375C6.65713 23.7385 6.01131 24.5197 5.34375 25.2812C4.91026 24.9142 4.56651 24.4768 4.3125 23.9688C4.07816 23.2141 3.82816 22.4641 3.5625 21.7188C3.52083 21.6146 3.52083 21.5104 3.5625 21.4062C5.59613 19.0285 7.83569 16.8827 10.2813 14.9688Z"
            fill="#1364F4" />
    </g>
    <defs>
        <clipPath id="clip0_4397_1124">
            <rect width="32" height="32" fill="white" />
        </clipPath>
    </defs>
</svg>