<svg width="32" height="32" viewBox="0 0 32 32" fill="none" xmlns="http://www.w3.org/2000/svg">
    <g clip-path="url(#clip0_4650_2400)">
        <path fill-rule="evenodd" clip-rule="evenodd"
            d="M-0.0800781 -0.0800781C10.5866 -0.0800781 21.2532 -0.0800781 31.9199 -0.0800781C31.9199 10.5866 31.9199 21.2532 31.9199 31.9199C21.2532 31.9199 10.5866 31.9199 -0.0800781 31.9199C-0.0800781 21.2532 -0.0800781 10.5866 -0.0800781 -0.0800781Z"
            fill="#FE5834" />
        <path fill-rule="evenodd" clip-rule="evenodd"
            d="M8.08008 6.96024C11.4661 6.7742 14.8794 6.74753 18.3201 6.88024C18.8644 7.01323 19.3444 7.25323 19.7601 7.60024C19.123 7.41419 18.483 7.22752 17.8401 7.04024C14.5872 6.96024 11.3339 6.93358 8.08008 6.96024Z"
            fill="#E96344" />
        <path fill-rule="evenodd" clip-rule="evenodd"
            d="M7.92001 6.96019C7.97333 6.96019 8.02668 6.96019 8.08001 6.96019C11.3338 6.93353 14.5871 6.96019 17.84 7.04019C18.4829 7.22747 19.1229 7.41414 19.76 7.60019C24.277 10.2525 25.317 13.9325 22.88 18.6402C22.4267 19.0935 21.9733 19.5469 21.52 20.0002C20.6595 20.4829 19.8595 21.0429 19.12 21.6802C20.6096 21.8399 22.1029 21.8933 23.6 21.8402C23.6 22.8002 23.6 23.7602 23.6 24.7202C20.9986 24.9044 18.3851 24.9309 15.76 24.8002C15.4477 24.7416 15.1811 24.6084 14.96 24.4002C14.6419 24.0858 14.4019 23.7125 14.24 23.2802C14.1333 20.7735 14.1333 18.2669 14.24 15.7602C15.2266 15.55 16.2133 15.55 17.2 15.7602C17.147 16.9916 17.2005 18.2181 17.36 19.4402C17.5235 19.3834 17.6302 19.2767 17.68 19.1202C18.4744 18.4061 19.2477 17.6594 20 16.8802C20.3331 16.4023 20.5198 15.8689 20.56 15.2802C20.6661 14.9646 20.7194 14.6179 20.72 14.2402C20.7475 13.6838 20.641 13.1772 20.4 12.7202C19.9022 11.5607 19.049 10.7607 17.84 10.3202C15.6025 10.1603 13.3626 10.107 11.12 10.1602C11.12 15.0135 11.12 19.8669 11.12 24.7202C10.0675 24.8738 9.00087 24.9271 7.92001 24.8802C7.70668 18.9069 7.70668 12.9335 7.92001 6.96019Z"
            fill="#FCFBFA" />
        <path fill-rule="evenodd" clip-rule="evenodd"
            d="M20.3999 12.7202C20.6409 13.1772 20.7474 13.6838 20.7199 14.2402C20.7193 14.6179 20.666 14.9646 20.5599 15.2802C20.5772 14.421 20.5239 13.5677 20.3999 12.7202Z"
            fill="#E56B4D" />
        <path fill-rule="evenodd" clip-rule="evenodd"
            d="M7.91999 6.95996C7.70666 12.9333 7.70666 18.9067 7.91999 24.88C7.81332 24.88 7.70666 24.88 7.59999 24.88C7.49431 18.8508 7.60098 12.8776 7.91999 6.95996Z"
            fill="#EDCFCE" />
        <path fill-rule="evenodd" clip-rule="evenodd"
            d="M17.2 15.7598C17.2558 16.9159 17.4158 18.0359 17.68 19.1198C17.6302 19.2762 17.5235 19.383 17.36 19.4398C17.2004 18.2177 17.147 16.9911 17.2 15.7598Z"
            fill="#EC755E" />
        <path fill-rule="evenodd" clip-rule="evenodd"
            d="M11.1201 24.7202C10.5972 24.9317 10.0105 25.0385 9.3601 25.0402C8.74423 25.0401 8.15755 24.9866 7.6001 24.8802C7.70677 24.8802 7.81343 24.8802 7.9201 24.8802C9.00096 24.9271 10.0676 24.8738 11.1201 24.7202Z"
            fill="#E06447" />
        <path fill-rule="evenodd" clip-rule="evenodd"
            d="M14.96 24.3999C15.181 24.6081 15.4477 24.7413 15.76 24.7999C18.3851 24.9306 20.9985 24.9041 23.6 24.7199C22.3244 24.9329 20.991 25.0396 19.6 25.0399C18.0492 25.0313 16.5027 24.978 14.96 24.8799C14.96 24.7199 14.96 24.5599 14.96 24.3999Z"
            fill="#E5634B" />
    </g>
    <defs>
        <clipPath id="clip0_4650_2400">
            <rect width="32" height="32" fill="white" />
        </clipPath>
    </defs>
</svg>