<svg width="32" height="32" viewBox="0 0 32 32" fill="none" xmlns="http://www.w3.org/2000/svg">
    <rect width="32" height="32" fill="#38A3A5" fill-opacity="0.5" />
    <path fill-rule="evenodd" clip-rule="evenodd"
        d="M16.0794 3.70226L6.62657 11.5213C5.67718 12.3066 4.9129 13.2566 4.36377 14.3082V10.4617C4.36377 5.48693 8.55945 1.4541 13.7351 1.4541H13.7405L16.0794 3.70226ZM12.5531 22.9429L19.86 30.5305H28.3638L18.4584 20.0464C22.1633 19.2749 25.0517 16.3974 25.6994 12.7832L23.0945 10.2793L13.5624 18.23C12.9213 18.7648 12.5531 19.5406 12.5531 20.3565V22.9429Z"
        fill="#80ED99" />
    <path fill-rule="evenodd" clip-rule="evenodd"
        d="M25.8801 1.4541V10.6819L23.1539 8.0615L19.3138 11.2664C19.3348 11.1011 19.3456 10.9328 19.3456 10.7621C19.3456 8.4882 17.4278 6.64481 15.0621 6.64481C15.0499 6.64481 15.0377 6.64485 15.0255 6.64495L18.5874 3.67225L16.0066 1.45411L25.8801 1.4541ZM10.8255 10.1502L7.59094 12.8498C5.54106 14.5606 4.36377 17.0418 4.36377 19.6512V30.545H10.4872V19.5909C10.4872 18.7752 11.1738 18.06 11.8145 17.5252L14.9855 14.8787C12.6551 14.8395 10.7785 13.0115 10.7785 10.7621C10.7785 10.5542 10.7945 10.3499 10.8255 10.1502Z"
        fill="#38A3A5" />
</svg>