<svg width="32" height="32" viewBox="0 0 32 32" fill="none" xmlns="http://www.w3.org/2000/svg">
    <path
        d="M20.2721 31.9642C20.6422 31.6601 24.098 28.6594 24.098 28.6594L26.302 28.8545C26.4707 28.8717 26.6449 28.8831 26.8136 28.8831C29.6762 28.8831 32 26.1291 32 22.7382V6.14498C32 2.75405 29.6707 0 26.8136 0C26.6667 0 26.5197 0.00573761 26.3673 0.0229504L4.75646 2.18029C2.08979 2.44422 0 5.13516 0 8.30232V20.2366C0 22.9275 1.44217 25.716 3.62993 26.0947C3.69524 26.1061 19.6463 28.0397 19.7116 28.0627L19.9456 31.5167C20.0054 31.9355 19.8966 32.0732 20.2721 31.9642Z"
        fill="#59B202" />
    <path
        d="M8.24485 23.4211C4.46254 22.9966 3.7605 21.1892 3.7605 18.1999V7.55665C3.7605 6.73043 3.97274 6.4665 4.70744 6.40339L6.18227 6.26569C6.86798 6.20257 7.04213 6.41487 7.04213 7.22387V18.7565C7.04213 19.6917 7.39043 20.0991 8.33193 20.1679C9.23533 20.2368 9.6054 19.8696 9.6054 18.8827V7.02305C9.6054 6.16241 9.79043 5.93864 10.6013 5.86406L12.3646 5.7034C13.2244 5.62308 13.3932 5.82963 13.3932 6.7247V18.5901C13.3877 21.5564 12.6911 23.9261 8.24485 23.4211Z"
        fill="white" />
    <path
        d="M23.7823 17.3733L20.4027 17.2528V23.2659C20.4027 24.2929 20.1687 24.4994 19.1728 24.3904L17.17 24.1724C16.2013 24.0634 16.0217 23.8511 16.0217 22.8413V6.65546C16.0217 5.70302 16.3047 5.34155 17.17 5.26122L23.1238 4.71615C26.6993 4.38911 28.6802 6.52924 28.6802 10.9874C28.6748 15.2561 26.917 17.4823 23.7823 17.3733Z"
        fill="white" />
    <path
        d="M25.366 10.1098C25.3388 10.0295 25.2626 9.97782 25.132 9.9606L22.9877 9.70815L22.0571 7.74588C22.0027 7.63113 21.932 7.57376 21.8558 7.57949C21.7796 7.58523 21.7088 7.64834 21.6544 7.76883L20.751 9.79421L18.7864 10.1786C18.6721 10.2016 18.6014 10.2532 18.5796 10.3335C18.5578 10.4139 18.585 10.4942 18.6667 10.5803L20.0762 12.0606L19.7388 14.2122C19.7279 14.304 19.7333 14.3786 19.7605 14.4302C19.7878 14.4818 19.8313 14.5105 19.8912 14.5105C19.9347 14.5105 19.9891 14.4933 20.049 14.4589L21.8503 13.4433L23.717 14.4991C23.7823 14.5335 23.8367 14.5564 23.8857 14.5564C23.951 14.5564 24 14.5277 24.0326 14.4761C24.0653 14.4187 24.0707 14.3441 24.0599 14.2466L23.6952 12.0089L25.2571 10.3794C25.3605 10.2819 25.3932 10.1901 25.366 10.1098Z"
        fill="#FFB600" />
</svg>