<svg width="32" height="32" viewBox="0 0 32 32" fill="none" xmlns="http://www.w3.org/2000/svg">
    <rect width="32" height="32" fill="#0C1995" fill-opacity="0.36" />
    <path opacity="0.813" fill-rule="evenodd" clip-rule="evenodd"
        d="M1.25 6.75C4.58333 6.75 7.91665 6.75 11.25 6.75C15.4374 8.55832 16.5208 11.5583 14.5 15.75C13.7103 16.5206 12.7937 17.1039 11.75 17.5C13.1057 19.4612 14.5223 21.3779 16 23.25C16.2348 23.7884 16.1515 24.2884 15.75 24.75C14.75 24.75 13.75 24.75 12.75 24.75C11.1713 22.5981 9.58795 20.4314 8 18.25C7.75225 17.2637 7.66895 16.2636 7.75 15.25C10.0431 15.3321 11.5432 14.3321 12.25 12.25C12.2356 11.4853 11.9022 10.902 11.25 10.5C7.9752 9.78982 4.64185 9.53982 1.25 9.75C1.25 8.75 1.25 7.75 1.25 6.75Z"
        fill="#FEFFFE" />
    <path opacity="0.833" fill-rule="evenodd" clip-rule="evenodd"
        d="M30.75 7.25C30.75 8.25 30.75 9.25 30.75 10.25C26.25 10.25 21.75 10.25 17.25 10.25C17.25 9.25 17.25 8.25 17.25 7.25C21.75 7.25 26.25 7.25 30.75 7.25Z"
        fill="#FEFFFE" />
    <path opacity="0.829" fill-rule="evenodd" clip-rule="evenodd"
        d="M30.75 14.25C30.75 15.25 30.75 16.25 30.75 17.25C26.25 17.25 21.75 17.25 17.25 17.25C17.25 16.25 17.25 15.25 17.25 14.25C21.75 14.25 26.25 14.25 30.75 14.25Z"
        fill="#FEFFFE" />
    <path opacity="0.789" fill-rule="evenodd" clip-rule="evenodd"
        d="M1.25 15.2505C2.14401 15.1079 2.97733 15.2745 3.75 15.7505C5.59617 18.0131 7.3462 20.3464 9 22.7505C9.245 23.3971 9.32835 24.0638 9.25 24.7505C8.08335 24.7505 6.91665 24.7505 5.75 24.7505C4.42865 22.4344 2.92865 20.2678 1.25 18.2505C1.25 17.2505 1.25 16.2505 1.25 15.2505Z"
        fill="#FEFFFE" />
    <path opacity="0.821" fill-rule="evenodd" clip-rule="evenodd"
        d="M30.75 20.75C30.75 21.9167 30.75 23.0833 30.75 24.25C26.25 24.25 21.75 24.25 17.25 24.25C17.25 23.0833 17.25 21.9167 17.25 20.75C21.75 20.75 26.25 20.75 30.75 20.75Z"
        fill="#FEFFFE" />
</svg>