<svg width="32" height="32" viewBox="0 0 32 32" fill="none" xmlns="http://www.w3.org/2000/svg">
    <g clip-path="url(#clip0_4517_1108)">
        <path fill-rule="evenodd" clip-rule="evenodd"
            d="M-0.0178223 -0.0178223C10.6488 -0.0178223 21.3155 -0.0178223 31.9822 -0.0178223C31.9822 10.6488 31.9822 21.3155 31.9822 31.9822C21.3155 31.9822 10.6488 31.9822 -0.0178223 31.9822C-0.0178223 21.3155 -0.0178223 10.6488 -0.0178223 -0.0178223Z"
            fill="black" />
        <path fill-rule="evenodd" clip-rule="evenodd"
            d="M18.2578 7.23551C18.5597 7.19438 18.8678 7.18844 19.1823 7.21774C19.202 7.23135 19.2139 7.24913 19.2178 7.27107C19.1941 7.27107 19.1704 7.27107 19.1467 7.27107C18.8569 7.23576 18.5606 7.22392 18.2578 7.23551Z"
            fill="#222222" />
        <path fill-rule="evenodd" clip-rule="evenodd"
            d="M18.2579 7.2355C18.5607 7.22391 18.857 7.23575 19.1468 7.27106C18.8439 7.25947 18.5477 7.27131 18.2579 7.30661C18.2342 7.30661 18.2105 7.30661 18.1868 7.30661C18.1986 7.27106 18.2223 7.24734 18.2579 7.2355Z"
            fill="#404040" />
        <path fill-rule="evenodd" clip-rule="evenodd"
            d="M18.2578 7.3067C18.5476 7.27139 18.8439 7.25955 19.1467 7.27115C19.1704 7.27115 19.1941 7.27115 19.2178 7.27115C19.2178 7.28299 19.2178 7.29486 19.2178 7.3067C19.2178 7.33042 19.2178 7.3541 19.2178 7.37781C19.1941 7.36597 19.1704 7.3541 19.1467 7.34226C18.8569 7.30695 18.5606 7.29511 18.2578 7.3067Z"
            fill="#686868" />
        <path fill-rule="evenodd" clip-rule="evenodd"
            d="M9.08452 7.30674C10.6283 7.28935 12.169 7.30713 13.7067 7.36007C13.6384 7.3888 13.5673 7.40658 13.4934 7.41341C12.0061 7.4133 10.5186 7.4133 9.03118 7.41341C8.98969 7.40157 8.94823 7.38969 8.90674 7.37785C8.97042 7.35403 9.02969 7.33031 9.08452 7.30674Z"
            fill="#070707" />
        <path fill-rule="evenodd" clip-rule="evenodd"
            d="M18.1867 7.30663C18.1867 7.33034 18.1748 7.34218 18.1511 7.34218C17.9611 7.33628 17.7715 7.34222 17.5822 7.35996C17.5175 7.36707 17.4701 7.39672 17.44 7.44885C17.4163 7.44885 17.3926 7.44885 17.3689 7.44885C17.3917 7.41393 17.4154 7.37838 17.44 7.34218C17.6878 7.30673 17.9366 7.29489 18.1867 7.30663Z"
            fill="#393939" />
        <path fill-rule="evenodd" clip-rule="evenodd"
            d="M18.1867 7.30655C18.2104 7.30655 18.2341 7.30655 18.2578 7.30655C18.5606 7.29495 18.8569 7.30679 19.1467 7.3421C18.832 7.33051 18.5239 7.34235 18.2222 7.37766C18.2104 7.37766 18.1985 7.37766 18.1867 7.37766C18.1748 7.37766 18.163 7.37766 18.1511 7.37766C18.1511 7.36582 18.1511 7.35394 18.1511 7.3421C18.1748 7.3421 18.1867 7.33026 18.1867 7.30655Z"
            fill="#969696" />
        <path fill-rule="evenodd" clip-rule="evenodd"
            d="M18.1511 7.3423C18.1511 7.35414 18.1511 7.36601 18.1511 7.37785C18.0444 7.37785 17.9377 7.37785 17.8311 7.37785C17.7127 7.36772 17.606 7.39143 17.5111 7.44896C17.4873 7.44896 17.4637 7.44896 17.4399 7.44896C17.4701 7.39684 17.5175 7.36718 17.5822 7.36007C17.7714 7.34233 17.961 7.33639 18.1511 7.3423Z"
            fill="#757575" />
        <path fill-rule="evenodd" clip-rule="evenodd"
            d="M17.8311 7.37769C17.9378 7.37769 18.0444 7.37769 18.1511 7.37769C18.1629 7.37769 18.1748 7.37769 18.1867 7.37769C18.0163 7.42124 17.8386 7.44496 17.6533 7.4488C17.7126 7.42508 17.7718 7.4014 17.8311 7.37769Z"
            fill="#CFCFCF" />
        <path fill-rule="evenodd" clip-rule="evenodd"
            d="M17.8312 7.37776C17.772 7.40148 17.7127 7.42516 17.6535 7.44887C17.6061 7.44887 17.5586 7.44887 17.5112 7.44887C17.6062 7.39135 17.7129 7.36763 17.8312 7.37776Z"
            fill="#A6A6A6" />
        <path fill-rule="evenodd" clip-rule="evenodd"
            d="M18.1866 7.37769C18.1984 7.37769 18.2103 7.37769 18.2221 7.37769C18.5303 7.37769 18.8384 7.37769 19.1466 7.37769C19.1466 9.02508 19.1466 10.6725 19.1466 12.3199C18.8501 12.314 18.5538 12.3199 18.2577 12.3377C18.213 12.3525 18.1893 12.3821 18.1866 12.4266C18.0317 12.4296 17.8776 12.4415 17.7244 12.4621C17.5239 12.4387 17.3462 12.4861 17.191 12.6044C17.0847 12.5925 17.0017 12.628 16.9421 12.711C16.9027 12.713 16.8672 12.7249 16.8355 12.7466C16.6692 12.7876 16.5033 12.841 16.3377 12.9066C16.3064 12.9317 16.2827 12.9614 16.2666 12.9955C16.203 12.9853 16.1437 12.9972 16.0888 13.031C15.9586 13.1198 15.8283 13.2087 15.6977 13.2977C15.671 13.3215 15.6591 13.3512 15.6621 13.3866C15.6384 13.3866 15.6266 13.3984 15.6266 13.4221C15.5892 13.4168 15.5536 13.4227 15.5199 13.4399C15.3671 13.5746 15.2367 13.7227 15.1288 13.8844C15.0932 13.8962 15.0695 13.9199 15.0577 13.9555C14.9866 13.9555 14.951 13.991 14.951 14.0621C14.8534 14.1331 14.7645 14.2161 14.6844 14.311C14.6722 14.4066 14.6248 14.4777 14.5421 14.5244C14.5246 14.5825 14.5187 14.6417 14.5244 14.7021C14.4888 14.7021 14.4532 14.7021 14.4177 14.7021C14.3881 14.8912 14.3289 15.069 14.2399 15.2355C14.2044 15.3303 14.1688 15.4251 14.1332 15.5199C14.064 15.5846 14.0284 15.6676 14.0266 15.7688C13.9956 15.8578 13.9719 15.9526 13.9555 16.0532C13.9179 16.0924 13.8882 16.1398 13.8666 16.1955C13.8489 16.3134 13.8429 16.4319 13.8488 16.551C13.8488 16.5747 13.8488 16.5984 13.8488 16.6221C13.7596 16.8949 13.7241 17.1793 13.7421 17.4755C13.7421 17.4873 13.7421 17.4992 13.7421 17.511C13.7155 17.8259 13.6918 18.1459 13.671 18.471C13.6355 20.4443 13.6237 22.4235 13.6355 24.4088C12.071 24.4088 10.5066 24.4088 8.94214 24.4088C8.94214 18.8503 8.94214 13.2917 8.94214 7.73324C10.5184 7.73324 12.0947 7.73324 13.671 7.73324C13.671 8.74064 13.671 9.74807 13.671 10.7555C13.6061 10.825 13.5883 10.9079 13.6177 11.0044C13.6435 11.0242 13.6731 11.0361 13.7066 11.0399C13.7777 10.9749 13.8547 10.9157 13.9377 10.8621C13.9549 10.8284 13.9608 10.7929 13.9555 10.7555C13.9555 10.7081 13.9555 10.6606 13.9555 10.6132C13.9555 10.6014 13.9555 10.5895 13.9555 10.5777C13.9989 10.5589 14.0403 10.5352 14.0799 10.5066C14.0841 10.3823 14.1256 10.2756 14.2044 10.1866C14.1991 10.1492 14.205 10.1136 14.2221 10.0799C14.3307 9.93011 14.4314 9.77605 14.5244 9.61769C14.5689 9.56432 14.6044 9.50505 14.631 9.43991C14.7292 9.40105 14.7884 9.32993 14.8088 9.22657C14.8444 9.22657 14.8799 9.22657 14.9155 9.22657C14.9319 9.12691 14.9793 9.04393 15.0577 8.97769C15.1436 8.83824 15.2502 8.71379 15.3777 8.60435C15.5282 8.45989 15.6941 8.33545 15.8755 8.23102C15.9645 8.17257 16.0593 8.11923 16.1599 8.07102C16.1867 8.04716 16.1985 8.01754 16.1955 7.98213C16.2207 7.94999 16.2562 7.93815 16.3021 7.94657C16.3821 7.92595 16.4413 7.87856 16.4799 7.80435C16.5155 7.80435 16.551 7.80435 16.5866 7.80435C16.624 7.80965 16.6595 7.80375 16.6932 7.78657C16.732 7.73146 16.7794 7.68997 16.8355 7.66213C16.8473 7.66213 16.8592 7.66213 16.871 7.66213C17.138 7.60599 17.3988 7.53488 17.6532 7.4488C17.8385 7.44496 18.0163 7.42124 18.1866 7.37769Z"
            fill="#FEFEFE" />
        <path fill-rule="evenodd" clip-rule="evenodd"
            d="M17.3688 7.44896C17.2451 7.46738 17.1266 7.50294 17.0132 7.55563C16.9895 7.55563 16.9659 7.55563 16.9421 7.55563C16.9449 7.51119 16.9686 7.48157 17.0132 7.46674C17.1312 7.44904 17.2497 7.4431 17.3688 7.44896Z"
            fill="#3D3D3D" />
        <path fill-rule="evenodd" clip-rule="evenodd"
            d="M17.369 7.44897C17.3927 7.44897 17.4164 7.44897 17.4401 7.44897C17.4638 7.44897 17.4875 7.44897 17.5112 7.44897C17.3554 7.51049 17.1894 7.54604 17.0134 7.55564C17.1268 7.50295 17.2453 7.46739 17.369 7.44897Z"
            fill="#8F8F8F" />
        <path fill-rule="evenodd" clip-rule="evenodd"
            d="M17.5111 7.44897C17.5585 7.44897 17.6059 7.44897 17.6533 7.44897C17.3988 7.53505 17.1381 7.60617 16.8711 7.66231C16.9271 7.63945 16.9746 7.60389 17.0133 7.55564C17.1893 7.54604 17.3553 7.51049 17.5111 7.44897Z"
            fill="#D5D5D5" />
        <path fill-rule="evenodd" clip-rule="evenodd"
            d="M19.2179 7.37769C19.2534 9.01907 19.2652 10.6665 19.2534 12.3199C19.1779 12.4288 19.0713 12.4821 18.9334 12.4799C18.6848 12.4977 18.4359 12.5036 18.1868 12.4977C18.2139 12.4704 18.2495 12.4526 18.2934 12.4444C18.5861 12.4422 18.8706 12.4126 19.1468 12.3555C19.1687 12.3515 19.1865 12.3397 19.2001 12.3199C19.2179 10.6725 19.2238 9.02515 19.2179 7.37769Z"
            fill="#7B7B7B" />
        <path fill-rule="evenodd" clip-rule="evenodd"
            d="M19.2178 7.30664C19.2415 7.31848 19.2652 7.33036 19.2889 7.3422C19.3007 9.00748 19.2888 10.6667 19.2533 12.32C19.2651 10.6665 19.2533 9.01914 19.2178 7.37775C19.2178 7.35404 19.2178 7.33036 19.2178 7.30664Z"
            fill="#4E4E4E" />
        <path fill-rule="evenodd" clip-rule="evenodd"
            d="M13.7067 7.62674C13.7186 7.65045 13.7304 7.67413 13.7423 7.69785C13.7304 7.69785 13.7186 7.69785 13.7067 7.69785C13.6949 7.69785 13.683 7.69785 13.6712 7.69785C12.089 7.65643 10.5008 7.65053 8.90671 7.68007C8.88694 7.69369 8.8751 7.71147 8.87116 7.73341C8.8356 13.3808 8.82376 19.0341 8.8356 24.6934C8.79414 19.0342 8.7882 13.369 8.81782 7.69785C8.8356 7.68007 8.85338 7.66229 8.87116 7.64452C10.483 7.62674 12.0948 7.6208 13.7067 7.62674Z"
            fill="#6F6F6F" />
        <path fill-rule="evenodd" clip-rule="evenodd"
            d="M8.83559 7.59122C8.82553 7.61928 8.80775 7.64299 8.78226 7.66233C8.75854 13.3512 8.75854 19.0401 8.78226 24.729C8.80775 24.7483 8.82553 24.7721 8.83559 24.8001C8.77785 24.8051 8.73639 24.7814 8.71115 24.729C8.68743 19.0401 8.68743 13.3512 8.71115 7.66233C8.73639 7.60996 8.77785 7.58625 8.83559 7.59122Z"
            fill="#131313" />
        <path fill-rule="evenodd" clip-rule="evenodd"
            d="M16.9423 7.55566C16.8578 7.60498 16.763 7.63463 16.6578 7.64455C16.6265 7.66973 16.6028 7.69938 16.5867 7.73344C16.563 7.73344 16.5393 7.73344 16.5156 7.73344C16.5437 7.68743 16.5793 7.64594 16.6223 7.609C16.7282 7.58425 16.8348 7.56647 16.9423 7.55566Z"
            fill="#3C3C3C" />
        <path fill-rule="evenodd" clip-rule="evenodd"
            d="M16.9422 7.55566C16.9659 7.55566 16.9896 7.55566 17.0133 7.55566C16.9746 7.60391 16.9271 7.63947 16.8711 7.66233C16.8593 7.66233 16.8474 7.66233 16.8356 7.66233C16.7574 7.64882 16.6981 7.67254 16.6578 7.73344C16.6341 7.73344 16.6104 7.73344 16.5867 7.73344C16.6028 7.69938 16.6265 7.66973 16.6578 7.64455C16.7629 7.63463 16.8577 7.60498 16.9422 7.55566Z"
            fill="#7D7D7D" />
        <path fill-rule="evenodd" clip-rule="evenodd"
            d="M19.289 7.34229C19.3245 9.00735 19.3364 10.6785 19.3246 12.3556C19.277 12.3846 19.2415 12.4261 19.2179 12.4801C18.7809 12.5278 18.3424 12.5456 17.9023 12.5334C17.9023 12.5216 17.9023 12.5097 17.9023 12.4978C17.9972 12.4978 18.092 12.4978 18.1868 12.4978C18.436 12.5037 18.6849 12.4978 18.9335 12.4801C19.0713 12.4823 19.178 12.4289 19.2535 12.3201C19.289 10.6668 19.3008 9.00757 19.289 7.34229Z"
            fill="#313131" />
        <path fill-rule="evenodd" clip-rule="evenodd"
            d="M13.7068 7.62669C13.7422 7.62363 13.7718 7.63551 13.7957 7.66225C13.8252 8.61641 13.8193 9.56457 13.7779 10.5067C13.7897 9.56429 13.7778 8.62797 13.7423 7.6978C13.7305 7.67409 13.7186 7.65041 13.7068 7.62669Z"
            fill="#252525" />
        <path fill-rule="evenodd" clip-rule="evenodd"
            d="M18.2222 7.37775C18.5238 7.34244 18.832 7.3306 19.1466 7.34219C19.1703 7.35403 19.194 7.36591 19.2177 7.37775C19.2237 9.02521 19.2177 10.6726 19.1999 12.32C19.1863 12.3397 19.1686 12.3516 19.1466 12.3555C19.1466 12.3437 19.1466 12.3318 19.1466 12.32C19.1466 10.6726 19.1466 9.02514 19.1466 7.37775C18.8385 7.37775 18.5303 7.37775 18.2222 7.37775Z"
            fill="#C2C2C2" />
        <path fill-rule="evenodd" clip-rule="evenodd"
            d="M16.5156 7.73329C16.4413 7.75822 16.3702 7.79377 16.3022 7.83996C16.2992 7.80455 16.311 7.77493 16.3378 7.75107C16.3959 7.73351 16.4552 7.72761 16.5156 7.73329Z"
            fill="#383838" />
        <path fill-rule="evenodd" clip-rule="evenodd"
            d="M16.8356 7.66213C16.7795 7.68997 16.7321 7.73146 16.6933 7.78657C16.6596 7.80374 16.6241 7.80965 16.5867 7.80435C16.6104 7.78063 16.6341 7.75695 16.6578 7.73324C16.6981 7.67233 16.7574 7.64861 16.8356 7.66213Z"
            fill="#CBCBCB" />
        <path fill-rule="evenodd" clip-rule="evenodd"
            d="M16.5155 7.7334C16.5392 7.7334 16.5629 7.7334 16.5866 7.7334C16.6103 7.7334 16.634 7.7334 16.6577 7.7334C16.634 7.75711 16.6103 7.78079 16.5866 7.80451C16.5511 7.80451 16.5155 7.80451 16.48 7.80451C16.4 7.82513 16.3408 7.87253 16.3022 7.94673C16.2563 7.93831 16.2207 7.95015 16.1955 7.98229C16.1345 8.03651 16.0634 8.07207 15.9822 8.08895C15.994 8.06524 16.0059 8.04156 16.0177 8.01784C16.1142 7.95839 16.209 7.89916 16.3022 7.84007C16.3702 7.79388 16.4413 7.75832 16.5155 7.7334Z"
            fill="#949494" />
        <path fill-rule="evenodd" clip-rule="evenodd"
            d="M8.87105 7.7334C8.85921 13.3927 8.87105 19.046 8.90661 24.6934C10.4887 24.7289 12.0769 24.7408 13.671 24.729C13.671 24.7408 13.671 24.7527 13.671 24.7645C12.071 24.7704 10.471 24.7645 8.87105 24.7467C8.85128 24.7331 8.83944 24.7153 8.83549 24.6934C8.82365 19.0341 8.83549 13.3808 8.87105 7.7334Z"
            fill="#909090" />
        <path fill-rule="evenodd" clip-rule="evenodd"
            d="M8.94214 7.73333C10.5124 7.69781 12.0887 7.68597 13.671 7.69778C13.6829 7.69778 13.6947 7.69778 13.7066 7.69778C13.7066 8.74073 13.7066 9.78372 13.7066 10.8267C13.7847 10.8402 13.844 10.8165 13.8844 10.7556C13.8844 10.7437 13.8844 10.7318 13.8844 10.72C13.9081 10.6844 13.9318 10.6489 13.9555 10.6133C13.9555 10.6607 13.9555 10.7082 13.9555 10.7556C13.8846 10.8504 13.7898 10.9097 13.671 10.9333C13.671 10.8741 13.671 10.8148 13.671 10.7556C13.671 9.74816 13.671 8.74073 13.671 7.73333C12.0947 7.73333 10.5184 7.73333 8.94214 7.73333Z"
            fill="#D7D7D7" />
        <path fill-rule="evenodd" clip-rule="evenodd"
            d="M13.7068 7.69775C13.7186 7.69775 13.7305 7.69775 13.7423 7.69775C13.7423 8.71703 13.7423 9.73626 13.7423 10.7555C13.7897 10.7555 13.8372 10.7555 13.8846 10.7555C13.8442 10.8164 13.7849 10.8402 13.7068 10.8266C13.7068 9.78369 13.7068 8.74071 13.7068 7.69775Z"
            fill="#9D9D9D" />
        <path fill-rule="evenodd" clip-rule="evenodd"
            d="M16.48 7.80444C16.4414 7.87865 16.3822 7.92604 16.3022 7.94667C16.3408 7.87246 16.4001 7.82507 16.48 7.80444Z"
            fill="#CDCDCD" />
        <path fill-rule="evenodd" clip-rule="evenodd"
            d="M16.3023 7.84009C16.2091 7.89918 16.1143 7.95842 16.0178 8.01787C16.0178 8.00603 16.0178 7.99415 16.0178 7.98231C16.0943 7.90131 16.1892 7.85388 16.3023 7.84009Z"
            fill="#515151" />
        <path fill-rule="evenodd" clip-rule="evenodd"
            d="M16.0177 7.98221C16.0177 7.99405 16.0177 8.00593 16.0177 8.01777C15.9622 8.02605 15.9148 8.04977 15.8755 8.08888C15.8824 8.00312 15.9298 7.96756 16.0177 7.98221Z"
            fill="#2B2B2B" />
        <path fill-rule="evenodd" clip-rule="evenodd"
            d="M9.1556 8.05322C9.19706 13.4517 9.20299 18.8562 9.17338 24.2666C9.1556 24.2488 9.13782 24.231 9.12004 24.2132C9.10842 18.8118 9.12026 13.4251 9.1556 8.05322Z"
            fill="#F8F8F8" />
        <path fill-rule="evenodd" clip-rule="evenodd"
            d="M16.1955 7.98218C16.1985 8.01759 16.1867 8.04721 16.1599 8.07107C16.0593 8.11928 15.9645 8.17261 15.8755 8.23107C15.8992 8.19551 15.9229 8.15996 15.9466 8.1244C15.9466 8.10068 15.9584 8.08884 15.9822 8.08884C16.0634 8.07196 16.1345 8.0364 16.1955 7.98218Z"
            fill="#E1E1E1" />
        <path fill-rule="evenodd" clip-rule="evenodd"
            d="M8.83552 7.59109C10.4652 7.57928 12.089 7.59112 13.7066 7.62664C12.0947 7.62071 10.4829 7.62664 8.87108 7.64442C8.8533 7.6622 8.83552 7.67998 8.81775 7.69776C8.78813 13.3689 8.79407 19.0341 8.83552 24.6933C8.83947 24.7152 8.85131 24.733 8.87108 24.7466C10.471 24.7644 12.071 24.7704 13.6711 24.7644C13.6829 24.7644 13.6948 24.7644 13.7066 24.7644C12.089 24.7999 10.4652 24.8118 8.83552 24.8C8.82546 24.7719 8.80768 24.7482 8.78219 24.7289C8.75848 19.04 8.75848 13.3511 8.78219 7.6622C8.80768 7.64286 8.82546 7.61914 8.83552 7.59109Z"
            fill="#3C3C3C" />
        <path fill-rule="evenodd" clip-rule="evenodd"
            d="M13.6711 7.69786C12.0888 7.68606 10.5125 7.6979 8.94225 7.73342C8.90669 13.3334 8.89485 18.9393 8.90669 24.5512C8.90669 24.5986 8.90669 24.646 8.90669 24.6934C8.87114 19.0461 8.8593 13.3927 8.87114 7.73342C8.87509 7.71148 8.88693 7.6937 8.90669 7.68009C10.5008 7.65054 12.089 7.65644 13.6711 7.69786Z"
            fill="#BEBEBE" />
        <path fill-rule="evenodd" clip-rule="evenodd"
            d="M13.7422 7.69775C13.7777 8.62792 13.7895 9.56424 13.7777 10.5066C13.7676 10.5702 13.7794 10.6295 13.8133 10.6844C13.8376 10.6715 13.8613 10.6597 13.8844 10.6489C13.8844 10.6726 13.8844 10.6963 13.8844 10.72C13.8844 10.7318 13.8844 10.7437 13.8844 10.7555C13.837 10.7555 13.7896 10.7555 13.7422 10.7555C13.7422 9.73626 13.7422 8.71703 13.7422 7.69775Z"
            fill="#5D5D5D" />
        <path fill-rule="evenodd" clip-rule="evenodd"
            d="M16.0177 8.01782C16.0058 8.04154 15.994 8.06522 15.9821 8.08893C15.9584 8.08893 15.9466 8.10077 15.9466 8.12449C15.7298 8.23261 15.5402 8.37484 15.3777 8.55116C15.3777 8.53932 15.3777 8.52744 15.3777 8.5156C15.5128 8.34077 15.6787 8.19855 15.8755 8.08893C15.9148 8.04982 15.9621 8.02611 16.0177 8.01782Z"
            fill="#5A5A5A" />
        <path fill-rule="evenodd" clip-rule="evenodd"
            d="M15.3777 8.51562C15.3777 8.52747 15.3777 8.53934 15.3777 8.55118C15.2339 8.65938 15.1154 8.78972 15.0221 8.94229C15.0103 8.94229 14.9984 8.94229 14.9866 8.94229C15.0675 8.75467 15.1979 8.61244 15.3777 8.51562Z"
            fill="#464646" />
        <path fill-rule="evenodd" clip-rule="evenodd"
            d="M15.9467 8.12451C15.9229 8.16007 15.8993 8.19562 15.8756 8.23118C15.6941 8.33561 15.5282 8.46005 15.3778 8.60451C15.2503 8.71395 15.1436 8.8384 15.0578 8.97785C15.0459 8.97785 15.0341 8.97785 15.0222 8.97785C15.0222 8.96601 15.0222 8.95413 15.0222 8.94229C15.1155 8.78972 15.234 8.65937 15.3778 8.55118C15.5403 8.37486 15.7299 8.23264 15.9467 8.12451Z"
            fill="#A1A1A1" />
        <path fill-rule="evenodd" clip-rule="evenodd"
            d="M14.9868 8.94214C14.9986 8.94214 15.0105 8.94214 15.0223 8.94214C15.0223 8.95398 15.0223 8.96585 15.0223 8.97769C14.9263 9.03935 14.8552 9.12233 14.809 9.22658C14.7972 9.22658 14.7853 9.22658 14.7734 9.22658C14.7755 9.18715 14.7873 9.1516 14.809 9.11992C14.8554 9.04977 14.9147 8.99053 14.9868 8.94214Z"
            fill="#6F6F6F" />
        <path fill-rule="evenodd" clip-rule="evenodd"
            d="M15.0222 8.97778C15.034 8.97778 15.0459 8.97778 15.0577 8.97778C14.9793 9.04402 14.9319 9.12701 14.9155 9.22667C14.8799 9.22667 14.8444 9.22667 14.8088 9.22667C14.8551 9.12242 14.9262 9.03944 15.0222 8.97778Z"
            fill="#CCCCCC" />
        <path fill-rule="evenodd" clip-rule="evenodd"
            d="M14.7733 9.22656C14.7852 9.22656 14.797 9.22656 14.8089 9.22656C14.7885 9.32992 14.7293 9.40103 14.6311 9.4399C14.6311 9.42806 14.6311 9.41618 14.6311 9.40434C14.6796 9.34422 14.727 9.28494 14.7733 9.22656Z"
            fill="#AEAEAE" />
        <path fill-rule="evenodd" clip-rule="evenodd"
            d="M14.8089 9.12012C14.7872 9.1518 14.7754 9.18735 14.7734 9.22678C14.727 9.28517 14.6796 9.34444 14.6311 9.40456C14.58 9.47069 14.5207 9.52997 14.4534 9.58234C14.5469 9.40627 14.6654 9.25221 14.8089 9.12012Z"
            fill="#434343" />
        <path fill-rule="evenodd" clip-rule="evenodd"
            d="M14.6311 9.40454C14.6311 9.41638 14.6311 9.42826 14.6311 9.4401C14.6046 9.50523 14.569 9.56451 14.5245 9.61787C14.5008 9.62971 14.4771 9.64159 14.4534 9.65343C14.4534 9.62971 14.4534 9.60603 14.4534 9.58232C14.5207 9.52995 14.58 9.47067 14.6311 9.40454Z"
            fill="#8A8A8A" />
        <path fill-rule="evenodd" clip-rule="evenodd"
            d="M14.4533 9.65332C14.4326 9.73328 14.3852 9.79252 14.311 9.8311C14.3131 9.79167 14.3249 9.75611 14.3466 9.72443C14.3821 9.70072 14.4177 9.67704 14.4533 9.65332Z"
            fill="#6C6C6C" />
        <path fill-rule="evenodd" clip-rule="evenodd"
            d="M14.5245 9.61768C14.4315 9.77604 14.3308 9.9301 14.2223 10.0799C14.2051 10.1136 14.1992 10.1492 14.2045 10.1866C14.1927 10.1866 14.1808 10.1866 14.1689 10.1866C14.1689 10.1747 14.1689 10.1628 14.1689 10.151C14.2146 10.0453 14.262 9.9386 14.3112 9.83101C14.3854 9.79243 14.4328 9.7332 14.4534 9.65323C14.4771 9.64139 14.5008 9.62952 14.5245 9.61768Z"
            fill="#B4B4B4" />
        <path fill-rule="evenodd" clip-rule="evenodd"
            d="M14.3466 9.72437C14.3249 9.75605 14.3131 9.7916 14.3111 9.83103C14.2619 9.93862 14.2145 10.0453 14.1689 10.151C14.157 10.151 14.1451 10.151 14.1333 10.151C14.1333 10.1392 14.1333 10.1273 14.1333 10.1155C14.1964 9.97713 14.2675 9.84678 14.3466 9.72437Z"
            fill="#484848" />
        <path fill-rule="evenodd" clip-rule="evenodd"
            d="M14.1334 10.1155C14.1334 10.1273 14.1334 10.1392 14.1334 10.151C14.0623 10.151 14.0268 10.1866 14.0268 10.2577C14.0268 10.2814 14.0268 10.3051 14.0268 10.3288C14.0149 10.3288 14.0031 10.3288 13.9912 10.3288C13.9912 10.2577 13.9912 10.1866 13.9912 10.1155C14.0386 10.1155 14.086 10.1155 14.1334 10.1155Z"
            fill="#202020" />
        <path fill-rule="evenodd" clip-rule="evenodd"
            d="M14.1333 10.1511C14.1451 10.1511 14.157 10.1511 14.1688 10.1511C14.1688 10.163 14.1688 10.1748 14.1688 10.1867C14.1052 10.2497 14.0578 10.3208 14.0266 10.4C14.0266 10.3763 14.0266 10.3526 14.0266 10.3289C14.0266 10.3052 14.0266 10.2815 14.0266 10.2578C14.074 10.2341 14.1096 10.1985 14.1333 10.1511Z"
            fill="#909090" />
        <path fill-rule="evenodd" clip-rule="evenodd"
            d="M14.1333 10.1511C14.1096 10.1985 14.074 10.2341 14.0266 10.2578C14.0266 10.1867 14.0622 10.1511 14.1333 10.1511Z"
            fill="#4B4B4B" />
        <path fill-rule="evenodd" clip-rule="evenodd"
            d="M13.9911 10.3999C13.9487 10.4573 13.9131 10.5165 13.8844 10.5777C13.8636 10.4787 13.8992 10.4194 13.9911 10.3999Z"
            fill="#2E2E2E" />
        <path fill-rule="evenodd" clip-rule="evenodd"
            d="M13.9912 10.3289C14.003 10.3289 14.0149 10.3289 14.0267 10.3289C14.0267 10.3526 14.0267 10.3763 14.0267 10.4C14.003 10.4592 13.9793 10.5185 13.9556 10.5777C13.9556 10.5896 13.9556 10.6015 13.9556 10.6133C13.9319 10.6489 13.9082 10.6844 13.8845 10.72C13.8845 10.6963 13.8845 10.6726 13.8845 10.6489C13.8845 10.6251 13.8845 10.6015 13.8845 10.5777C13.9133 10.5166 13.9488 10.4573 13.9912 10.4C13.9912 10.3763 13.9912 10.3526 13.9912 10.3289Z"
            fill="#818181" />
        <path fill-rule="evenodd" clip-rule="evenodd"
            d="M14.1689 10.1868C14.1807 10.1868 14.1926 10.1868 14.2045 10.1868C14.1257 10.2758 14.0842 10.3825 14.08 10.5068C14.0404 10.5354 13.999 10.5591 13.9556 10.5779C13.9793 10.5186 14.003 10.4594 14.0267 10.4001C14.0579 10.3209 14.1053 10.2498 14.1689 10.1868Z"
            fill="#DCDCDC" />
        <path fill-rule="evenodd" clip-rule="evenodd"
            d="M13.6711 10.7556C13.6711 10.8149 13.6711 10.8741 13.6711 10.9334C13.7898 10.9097 13.8846 10.8504 13.9555 10.7556C13.9608 10.793 13.9549 10.8286 13.9377 10.8623C13.8548 10.9158 13.7777 10.9751 13.7066 11.0401C13.6731 11.0362 13.6435 11.0244 13.6177 11.0045C13.5884 10.9081 13.6061 10.8251 13.6711 10.7556Z"
            fill="#E6E6E6" />
        <path fill-rule="evenodd" clip-rule="evenodd"
            d="M19.1468 12.3201C19.1468 12.3319 19.1468 12.3438 19.1468 12.3556C18.8253 12.371 18.5053 12.3947 18.1868 12.4267C18.1895 12.3823 18.2132 12.3527 18.2579 12.3379C18.5539 12.3201 18.8502 12.3142 19.1468 12.3201Z"
            fill="#E5E5E5" />
        <path fill-rule="evenodd" clip-rule="evenodd"
            d="M19.1466 12.3555C18.8704 12.4126 18.5859 12.4422 18.2933 12.4444C18.2493 12.4526 18.2137 12.4704 18.1866 12.4977C18.0918 12.4977 17.997 12.4977 17.9021 12.4977C17.8429 12.4977 17.7836 12.4977 17.7244 12.4977C17.7244 12.4859 17.7244 12.474 17.7244 12.4621C17.8776 12.4415 18.0317 12.4296 18.1866 12.4266C18.5051 12.3946 18.8251 12.3709 19.1466 12.3555Z"
            fill="#B9B9B9" />
        <path fill-rule="evenodd" clip-rule="evenodd"
            d="M17.7245 12.4621C17.7245 12.474 17.7245 12.4858 17.7245 12.4977C17.577 12.4844 17.4467 12.5199 17.3334 12.6043C17.286 12.6043 17.2386 12.6043 17.1912 12.6043C17.3463 12.4861 17.5241 12.4387 17.7245 12.4621Z"
            fill="#DFDFDF" />
        <path fill-rule="evenodd" clip-rule="evenodd"
            d="M17.7244 12.4978C17.5995 12.5392 17.4692 12.5748 17.3333 12.6045C17.4465 12.5201 17.5769 12.4845 17.7244 12.4978Z"
            fill="#B4B4B4" />
        <path fill-rule="evenodd" clip-rule="evenodd"
            d="M19.3245 12.3555C19.3162 12.4882 19.2451 12.5534 19.1112 12.551C18.6728 12.5688 18.2343 12.5747 17.7957 12.5688C17.8209 12.5367 17.8564 12.5248 17.9023 12.5332C18.3424 12.5454 18.7809 12.5277 19.2179 12.4799C19.2414 12.4259 19.277 12.3844 19.3245 12.3555Z"
            fill="#141414" />
        <path fill-rule="evenodd" clip-rule="evenodd"
            d="M17.7244 12.5688C17.7077 12.6113 17.6722 12.635 17.6178 12.64C17.5005 12.6652 17.3819 12.677 17.2622 12.6755C17.4109 12.6343 17.565 12.5987 17.7244 12.5688Z"
            fill="#444444" />
        <path fill-rule="evenodd" clip-rule="evenodd"
            d="M17.7243 12.4978C17.7836 12.4978 17.8428 12.4978 17.9021 12.4978C17.9021 12.5096 17.9021 12.5215 17.9021 12.5334C17.8562 12.5249 17.8207 12.5368 17.7954 12.5689C17.7717 12.5689 17.7481 12.5689 17.7243 12.5689C17.5649 12.5988 17.4108 12.6343 17.2621 12.6756C17.2503 12.6756 17.2384 12.6756 17.2266 12.6756C17.1003 12.7246 16.97 12.7601 16.8354 12.7822C16.8354 12.7704 16.8354 12.7585 16.8354 12.7467C16.8671 12.725 16.9027 12.7132 16.9421 12.7111C17.0366 12.6957 17.1196 12.6601 17.191 12.6045C17.2384 12.6045 17.2858 12.6045 17.3332 12.6045C17.4692 12.5747 17.5995 12.5392 17.7243 12.4978Z"
            fill="#808080" />
        <path fill-rule="evenodd" clip-rule="evenodd"
            d="M17.191 12.6045C17.1196 12.6602 17.0366 12.6957 16.9421 12.7112C17.0017 12.6282 17.0847 12.5926 17.191 12.6045Z"
            fill="#BCBCBC" />
        <path fill-rule="evenodd" clip-rule="evenodd"
            d="M17.2266 12.6755C17.1182 12.7712 16.9879 12.8186 16.8354 12.8178C16.8354 12.8059 16.8354 12.794 16.8354 12.7822C16.97 12.7601 17.1003 12.7245 17.2266 12.6755Z"
            fill="#464646" />
        <path fill-rule="evenodd" clip-rule="evenodd"
            d="M16.8355 12.7466C16.8355 12.7584 16.8355 12.7703 16.8355 12.7821C16.6441 12.846 16.4545 12.9171 16.2666 12.9955C16.2827 12.9614 16.3064 12.9318 16.3377 12.9066C16.5033 12.841 16.6692 12.7876 16.8355 12.7466Z"
            fill="#BFBFBF" />
        <path fill-rule="evenodd" clip-rule="evenodd"
            d="M16.8356 12.7822C16.8356 12.7941 16.8356 12.8059 16.8356 12.8178C16.8237 12.8178 16.8118 12.8178 16.8 12.8178C16.7323 12.8262 16.6849 12.8618 16.6578 12.9244C16.5231 12.9177 16.4164 12.9651 16.3378 13.0667C16.2904 13.0667 16.243 13.0667 16.1956 13.0667C16.2193 13.043 16.243 13.0193 16.2667 12.9956C16.4546 12.9172 16.6442 12.846 16.8356 12.7822Z"
            fill="#777777" />
        <path fill-rule="evenodd" clip-rule="evenodd"
            d="M16.7999 12.8179C16.7728 12.8805 16.7254 12.9161 16.6577 12.9245C16.6848 12.8619 16.7322 12.8263 16.7999 12.8179Z"
            fill="#343434" />
        <path fill-rule="evenodd" clip-rule="evenodd"
            d="M16.6579 12.9245C16.5616 12.9832 16.4549 13.0306 16.3379 13.0667C16.4165 12.9651 16.5232 12.9177 16.6579 12.9245Z"
            fill="#222222" />
        <path fill-rule="evenodd" clip-rule="evenodd"
            d="M16.2668 12.9954C16.2431 13.0192 16.2194 13.0428 16.1957 13.0666C16.1147 13.1003 16.0436 13.1477 15.9823 13.2088C15.9144 13.2292 15.8551 13.2648 15.8046 13.3154C15.749 13.3237 15.7016 13.3474 15.6623 13.3866C15.6593 13.3511 15.6712 13.3215 15.6979 13.2977C15.8285 13.2087 15.9588 13.1198 16.089 13.031C16.1439 12.9972 16.2032 12.9853 16.2668 12.9954Z"
            fill="#CBCBCB" />
        <path fill-rule="evenodd" clip-rule="evenodd"
            d="M16.1955 13.0667C16.1526 13.1571 16.0814 13.2045 15.9822 13.2089C16.0434 13.1478 16.1146 13.1004 16.1955 13.0667Z"
            fill="#707070" />
        <path fill-rule="evenodd" clip-rule="evenodd"
            d="M16.1956 13.0667C16.243 13.0667 16.2904 13.0667 16.3378 13.0667C16.202 13.1723 16.0598 13.273 15.9112 13.3689C15.8524 13.3905 15.7931 13.4083 15.7334 13.4222C15.7452 13.3867 15.769 13.3629 15.8045 13.3511C15.8845 13.3305 15.9437 13.2831 15.9823 13.2089C16.0816 13.2045 16.1527 13.1571 16.1956 13.0667Z"
            fill="#282828" />
        <path fill-rule="evenodd" clip-rule="evenodd"
            d="M15.9822 13.209C15.9436 13.2832 15.8844 13.3306 15.8044 13.3512C15.8044 13.3394 15.8044 13.3275 15.8044 13.3157C15.855 13.265 15.9143 13.2294 15.9822 13.209Z"
            fill="#676767" />
        <path fill-rule="evenodd" clip-rule="evenodd"
            d="M15.8045 13.3157C15.8045 13.3275 15.8045 13.3394 15.8045 13.3512C15.7689 13.3631 15.7452 13.3868 15.7334 13.4223C15.6939 13.4244 15.6584 13.4362 15.6267 13.4579C15.6267 13.4461 15.6267 13.4342 15.6267 13.4223C15.6267 13.3986 15.6385 13.3868 15.6623 13.3868C15.7016 13.3477 15.7489 13.324 15.8045 13.3157Z"
            fill="#878787" />
        <path fill-rule="evenodd" clip-rule="evenodd"
            d="M15.7333 13.4221C15.7062 13.4848 15.6588 13.5203 15.5911 13.5288C15.6029 13.5051 15.6148 13.4814 15.6266 13.4577C15.6583 13.436 15.6939 13.4241 15.7333 13.4221Z"
            fill="#424242" />
        <path fill-rule="evenodd" clip-rule="evenodd"
            d="M15.6267 13.4223C15.6267 13.4341 15.6267 13.446 15.6267 13.4578C15.451 13.586 15.2851 13.7282 15.1289 13.8845C15.2368 13.7229 15.3672 13.5747 15.52 13.4401C15.5537 13.4229 15.5893 13.417 15.6267 13.4223Z"
            fill="#BBBBBB" />
        <path fill-rule="evenodd" clip-rule="evenodd"
            d="M15.6266 13.4578C15.6148 13.4815 15.6029 13.5052 15.5911 13.5289C15.4489 13.6474 15.3185 13.7778 15.2 13.92C15.1289 13.92 15.0933 13.9555 15.0933 14.0267C15.0696 14.0267 15.0577 14.0385 15.0577 14.0622C15.0104 14.0978 14.9629 14.1333 14.9155 14.1689C14.9176 14.1294 14.9294 14.0939 14.9511 14.0622C14.9985 14.0385 15.034 14.0029 15.0577 13.9555C15.0696 13.92 15.0933 13.8963 15.1289 13.8844C15.285 13.7281 15.4509 13.5859 15.6266 13.4578Z"
            fill="#6B6B6B" />
        <path fill-rule="evenodd" clip-rule="evenodd"
            d="M15.1999 13.9199C15.1762 13.9673 15.1407 14.0029 15.0933 14.0266C15.0933 13.9555 15.1288 13.9199 15.1999 13.9199Z"
            fill="#393939" />
        <path fill-rule="evenodd" clip-rule="evenodd"
            d="M15.0578 13.9556C15.0341 14.003 14.9986 14.0385 14.9512 14.0622C14.9512 13.9911 14.9867 13.9556 15.0578 13.9556Z"
            fill="#BDBDBD" />
        <path fill-rule="evenodd" clip-rule="evenodd"
            d="M15.0577 14.0623C15.0459 14.1452 14.9985 14.1926 14.9155 14.2045C14.9155 14.1926 14.9155 14.1808 14.9155 14.1689C14.9629 14.1334 15.0104 14.0978 15.0577 14.0623Z"
            fill="#2C2C2C" />
        <path fill-rule="evenodd" clip-rule="evenodd"
            d="M14.9155 14.2043C14.907 14.272 14.8715 14.3195 14.8088 14.3466C14.8088 14.3347 14.8088 14.3229 14.8088 14.311C14.8326 14.2636 14.8681 14.2281 14.9155 14.2043Z"
            fill="#464646" />
        <path fill-rule="evenodd" clip-rule="evenodd"
            d="M14.8088 14.311C14.8088 14.3229 14.8088 14.3348 14.8088 14.3466C14.7733 14.3584 14.7495 14.3821 14.7377 14.4177C14.7259 14.4177 14.714 14.4177 14.7021 14.4177C14.7021 14.3466 14.7377 14.311 14.8088 14.311Z"
            fill="#909090" />
        <path fill-rule="evenodd" clip-rule="evenodd"
            d="M14.9512 14.0623C14.9295 14.0939 14.9177 14.1295 14.9157 14.1689C14.9157 14.1808 14.9157 14.1926 14.9157 14.2045C14.8683 14.2282 14.8327 14.2637 14.809 14.3111C14.7379 14.3111 14.7023 14.3467 14.7023 14.4178C14.6786 14.4771 14.6549 14.5363 14.6312 14.5956C14.5876 14.6242 14.552 14.6598 14.5246 14.7023C14.5189 14.6418 14.5248 14.5826 14.5423 14.5245C14.625 14.4778 14.6724 14.4067 14.6846 14.3111C14.7647 14.2162 14.8536 14.1332 14.9512 14.0623Z"
            fill="#C1C1C1" />
        <path fill-rule="evenodd" clip-rule="evenodd"
            d="M14.7022 14.4177C14.7141 14.4177 14.7259 14.4177 14.7378 14.4177C14.7458 14.5042 14.7103 14.5635 14.6311 14.5955C14.6548 14.5362 14.6785 14.477 14.7022 14.4177Z"
            fill="#606060" />
        <path fill-rule="evenodd" clip-rule="evenodd"
            d="M14.8089 14.3467C14.7942 14.4317 14.7705 14.5146 14.7378 14.5956C14.7052 14.6179 14.6696 14.6297 14.6311 14.6311C14.6311 14.6193 14.6311 14.6074 14.6311 14.5956C14.7103 14.5635 14.7458 14.5043 14.7378 14.4178C14.7496 14.3822 14.7733 14.3585 14.8089 14.3467Z"
            fill="#232323" />
        <path fill-rule="evenodd" clip-rule="evenodd"
            d="M14.6311 14.5955C14.6311 14.6073 14.6311 14.6192 14.6311 14.631C14.6311 14.6429 14.6311 14.6547 14.6311 14.6666C14.5851 14.7486 14.5377 14.8316 14.4888 14.9155C14.4888 14.9273 14.4888 14.9392 14.4888 14.951C14.4651 14.9747 14.4414 14.9984 14.4177 15.0221C14.4236 14.9042 14.4591 14.7975 14.5244 14.7021C14.5518 14.6597 14.5874 14.6241 14.6311 14.5955Z"
            fill="#686868" />
        <path fill-rule="evenodd" clip-rule="evenodd"
            d="M14.631 14.6667C14.6368 14.7388 14.6308 14.8099 14.6132 14.8801C14.5773 14.9098 14.5358 14.9217 14.4888 14.9156C14.5376 14.8318 14.585 14.7488 14.631 14.6667Z"
            fill="#181818" />
        <path fill-rule="evenodd" clip-rule="evenodd"
            d="M14.5244 14.7021C14.4592 14.7975 14.4236 14.9042 14.4178 15.0221C14.3386 15.0542 14.303 15.1134 14.3111 15.1999C14.2874 15.2118 14.2637 15.2236 14.24 15.2355C14.329 15.069 14.3882 14.8912 14.4178 14.7021C14.4533 14.7021 14.4889 14.7021 14.5244 14.7021Z"
            fill="#BCBCBC" />
        <path fill-rule="evenodd" clip-rule="evenodd"
            d="M14.4178 15.0222C14.3941 15.0815 14.3704 15.1407 14.3467 15.2C14.3467 15.2237 14.3349 15.2356 14.3112 15.2356C14.3112 15.2237 14.3112 15.2118 14.3112 15.2C14.3031 15.1135 14.3387 15.0543 14.4178 15.0222Z"
            fill="#656565" />
        <path fill-rule="evenodd" clip-rule="evenodd"
            d="M14.4889 14.9512C14.5014 15.0689 14.454 15.1519 14.3467 15.2001C14.3704 15.1408 14.3941 15.0816 14.4178 15.0223C14.4415 14.9986 14.4652 14.9749 14.4889 14.9512Z"
            fill="#272727" />
        <path fill-rule="evenodd" clip-rule="evenodd"
            d="M14.3111 15.2C14.3111 15.2118 14.3111 15.2237 14.3111 15.2355C14.3111 15.2473 14.3111 15.2592 14.3111 15.2711C14.2506 15.3564 14.2032 15.4512 14.1689 15.5555C14.157 15.5555 14.1451 15.5555 14.1333 15.5555C14.1333 15.5437 14.1333 15.5318 14.1333 15.52C14.1689 15.4251 14.2044 15.3303 14.24 15.2355C14.2637 15.2237 14.2874 15.2118 14.3111 15.2Z"
            fill="#999999" />
        <path fill-rule="evenodd" clip-rule="evenodd"
            d="M14.3112 15.271C14.2559 15.4365 14.2085 15.6024 14.1689 15.7688C14.1689 15.6977 14.1689 15.6266 14.1689 15.5554C14.2033 15.4511 14.2507 15.3563 14.3112 15.271Z"
            fill="#444444" />
        <path fill-rule="evenodd" clip-rule="evenodd"
            d="M14.1333 15.52C14.1333 15.5319 14.1333 15.5437 14.1333 15.5556C14.1333 15.5674 14.1333 15.5793 14.1333 15.5911C14.1044 15.6537 14.0688 15.713 14.0266 15.7689C14.0285 15.6677 14.064 15.5847 14.1333 15.52Z"
            fill="#D9D9D9" />
        <path fill-rule="evenodd" clip-rule="evenodd"
            d="M14.1334 15.5557C14.1453 15.5557 14.1571 15.5557 14.169 15.5557C14.169 15.6268 14.169 15.6979 14.169 15.769C14.1177 15.8159 14.094 15.8752 14.0979 15.9468C14.0641 15.9972 14.0522 16.0565 14.0623 16.1246C14.0386 16.1483 14.0149 16.1719 13.9912 16.1957C14.0049 15.981 14.0523 15.7795 14.1334 15.5912C14.1334 15.5794 14.1334 15.5675 14.1334 15.5557Z"
            fill="#676767" />
        <path fill-rule="evenodd" clip-rule="evenodd"
            d="M13.9555 16.0532C13.9245 16.1702 13.9007 16.2887 13.8844 16.4088C13.8844 16.4562 13.8844 16.5036 13.8844 16.551C13.8726 16.551 13.8607 16.551 13.8489 16.551C13.843 16.4319 13.8489 16.3134 13.8666 16.1954C13.8883 16.1398 13.9179 16.0923 13.9555 16.0532Z"
            fill="#E1E1E1" />
        <path fill-rule="evenodd" clip-rule="evenodd"
            d="M14.0623 16.1245C14.0709 16.2098 14.0472 16.2809 13.9912 16.3378C13.9912 16.3141 13.9912 16.2904 13.9912 16.2667C13.9912 16.243 13.9912 16.2193 13.9912 16.1956C14.0149 16.1719 14.0386 16.1482 14.0623 16.1245Z"
            fill="#4B4B4B" />
        <path fill-rule="evenodd" clip-rule="evenodd"
            d="M14.1334 15.5911C14.0523 15.7793 14.0049 15.9808 13.9912 16.1955C13.9912 16.2192 13.9912 16.2429 13.9912 16.2666C13.9429 16.3054 13.9074 16.3528 13.8845 16.4088C13.9008 16.2888 13.9246 16.1702 13.9556 16.0533C13.9721 15.9527 13.9958 15.8578 14.0267 15.7688C14.0689 15.7129 14.1045 15.6537 14.1334 15.5911Z"
            fill="#B5B5B5" />
        <path fill-rule="evenodd" clip-rule="evenodd"
            d="M14.0979 15.9468C14.1214 16.1624 14.08 16.3638 13.9734 16.5512C13.9671 16.6883 13.9494 16.8187 13.9201 16.9423C13.9041 16.7342 13.9278 16.5327 13.9912 16.3379C14.0472 16.2809 14.0709 16.2098 14.0623 16.1246C14.0522 16.0565 14.0641 15.9972 14.0979 15.9468Z"
            fill="#202020" />
        <path fill-rule="evenodd" clip-rule="evenodd"
            d="M13.9912 16.2666C13.9912 16.2903 13.9912 16.314 13.9912 16.3377C13.9278 16.5326 13.9041 16.7341 13.9201 16.9422C13.9285 16.9881 13.9167 17.0236 13.8845 17.0488C13.8845 16.8829 13.8845 16.717 13.8845 16.551C13.8845 16.5037 13.8845 16.4562 13.8845 16.4088C13.9074 16.3528 13.9429 16.3054 13.9912 16.2666Z"
            fill="#6D6D6D" />
        <path fill-rule="evenodd" clip-rule="evenodd"
            d="M13.8488 16.551C13.8606 16.551 13.8725 16.551 13.8843 16.551C13.8843 16.717 13.8843 16.8829 13.8843 17.0488C13.8606 17.0488 13.8369 17.0488 13.8132 17.0488C13.8368 16.9078 13.8486 16.7656 13.8488 16.6221C13.8488 16.5984 13.8488 16.5747 13.8488 16.551Z"
            fill="#939393" />
        <path fill-rule="evenodd" clip-rule="evenodd"
            d="M13.8488 16.6223C13.8486 16.7657 13.8368 16.908 13.8132 17.049C13.7895 17.1912 13.7658 17.3334 13.7421 17.4756C13.7241 17.1795 13.7596 16.8951 13.8488 16.6223Z"
            fill="#CCCCCC" />
        <path fill-rule="evenodd" clip-rule="evenodd"
            d="M13.991 17.5112C14.0384 18.6962 14.0621 19.8932 14.0621 21.1023C14.0679 22.3163 14.0502 23.5252 14.0088 24.729C13.991 22.3231 13.9851 19.9172 13.991 17.5112Z"
            fill="#080808" />
        <path fill-rule="evenodd" clip-rule="evenodd"
            d="M13.8133 17.0488C13.837 17.0488 13.8607 17.0488 13.8844 17.0488C13.8903 17.1915 13.8844 17.3338 13.8666 17.4755C13.8429 17.4992 13.8192 17.5229 13.7955 17.5466C13.7777 17.8308 13.7718 18.1152 13.7777 18.3999C13.7659 18.3999 13.754 18.3999 13.7422 18.3999C13.7422 18.1037 13.7422 17.8073 13.7422 17.5111C13.7422 17.4992 13.7422 17.4873 13.7422 17.4755C13.7659 17.3333 13.7896 17.1911 13.8133 17.0488Z"
            fill="#6F6F6F" />
        <path fill-rule="evenodd" clip-rule="evenodd"
            d="M13.7423 17.5112C13.7423 17.8075 13.7423 18.1038 13.7423 18.4001C13.7482 20.4979 13.7423 22.5957 13.7245 24.6935C13.7109 24.7132 13.6931 24.7251 13.6712 24.729C12.077 24.7408 10.4889 24.729 8.90674 24.6935C10.4949 24.6935 12.083 24.6935 13.6712 24.6935C13.6712 24.6461 13.6712 24.5986 13.6712 24.5512C13.6712 22.5246 13.6712 20.4979 13.6712 18.4712C13.692 18.1461 13.7157 17.8261 13.7423 17.5112Z"
            fill="#C1C1C1" />
        <path fill-rule="evenodd" clip-rule="evenodd"
            d="M13.7423 18.3999C13.7541 18.3999 13.766 18.3999 13.7778 18.3999C13.7837 20.5096 13.7778 22.6192 13.76 24.7288C13.7464 24.7486 13.7286 24.7604 13.7067 24.7643C13.6949 24.7643 13.683 24.7643 13.6711 24.7643C13.6711 24.7525 13.6711 24.7406 13.6711 24.7288C13.6931 24.7248 13.7109 24.713 13.7245 24.6932C13.7423 22.5955 13.7482 20.4977 13.7423 18.3999Z"
            fill="#5D5D5D" />
        <path fill-rule="evenodd" clip-rule="evenodd"
            d="M18.0089 19.2888C19.7089 19.2712 21.4037 19.289 23.0934 19.3421C21.3867 19.3658 19.6801 19.3658 17.9734 19.3421C17.9932 19.3285 18.005 19.3107 18.0089 19.2888Z"
            fill="#080808" />
        <path fill-rule="evenodd" clip-rule="evenodd"
            d="M23.129 19.5734C21.3842 19.5617 19.642 19.5736 17.9023 19.609C18.7613 19.5616 19.6324 19.5378 20.5157 19.5378C21.3928 19.5378 22.2639 19.5497 23.129 19.5734Z"
            fill="#1F1F1F" />
        <path fill-rule="evenodd" clip-rule="evenodd"
            d="M17.6177 19.6799C17.6396 19.6839 17.6574 19.6957 17.671 19.7155C17.6947 21.3866 17.6947 23.0577 17.671 24.7288C17.6532 24.6933 17.6355 24.6577 17.6177 24.6222C17.618 22.9677 17.618 21.3203 17.6177 19.6799Z"
            fill="#080808" />
        <path fill-rule="evenodd" clip-rule="evenodd"
            d="M17.9733 19.6445C17.9615 21.3335 17.9734 23.0165 18.0089 24.6934C19.7214 24.7289 21.4399 24.7408 23.1644 24.729C23.1644 24.7408 23.1644 24.7527 23.1644 24.7645C21.434 24.7705 19.7037 24.7645 17.9733 24.7468C17.9536 24.7331 17.9417 24.7154 17.9378 24.6934C17.926 23.0044 17.9378 21.3215 17.9733 19.6445Z"
            fill="#8A8A8A" />
        <path fill-rule="evenodd" clip-rule="evenodd"
            d="M23.1289 19.5732C23.1763 19.5732 23.2237 19.5732 23.2711 19.5732C23.2771 21.2918 23.2711 23.0103 23.2534 24.7288C23.2295 24.7555 23.1999 24.7674 23.1645 24.7644C23.1645 24.7525 23.1645 24.7406 23.1645 24.7288C23.1864 24.7249 23.2042 24.713 23.2178 24.6932C23.2356 22.9985 23.2415 21.3037 23.2356 19.6088C23.1897 19.6172 23.1541 19.6054 23.1289 19.5732Z"
            fill="#1A1A1A" />
        <path fill-rule="evenodd" clip-rule="evenodd"
            d="M23.1288 19.6445C23.1643 21.3333 23.1761 23.0281 23.1643 24.729C21.4398 24.7408 19.7213 24.7289 18.0088 24.6934C19.7036 24.6934 21.3984 24.6934 23.0932 24.6934C23.1288 23.0165 23.1406 21.3335 23.1288 19.6445Z"
            fill="#AEAEAE" />
        <path fill-rule="evenodd" clip-rule="evenodd"
            d="M23.129 19.5734C23.1542 19.6056 23.1898 19.6174 23.2357 19.609C23.2416 21.3038 23.2357 22.9986 23.2179 24.6934C23.2043 24.7132 23.1865 24.725 23.1646 24.729C23.1764 23.0282 23.1645 21.3333 23.129 19.6445C21.407 19.5973 19.6885 19.5973 17.9735 19.6445C17.9379 21.3215 17.9261 23.0044 17.9379 24.6934C17.9261 24.6934 17.9142 24.6934 17.9023 24.6934C17.9023 22.9986 17.9023 21.3038 17.9023 19.609C19.642 19.5736 21.3842 19.5618 23.129 19.5734Z"
            fill="#575757" />
        <path fill-rule="evenodd" clip-rule="evenodd"
            d="M23.129 19.6444C23.1408 21.3333 23.1289 23.0163 23.0934 24.6932C23.0934 24.6458 23.0934 24.5984 23.0934 24.551C23.1051 22.9307 23.0933 21.3129 23.0579 19.6977C21.3749 19.6799 19.692 19.674 18.009 19.6799C18.009 21.3036 18.009 22.9273 18.009 24.551C18.009 24.5984 18.009 24.6458 18.009 24.6932C17.9734 23.0163 17.9616 21.3333 17.9734 19.6444C19.6885 19.5971 21.407 19.5971 23.129 19.6444Z"
            fill="#BEBEBE" />
        <path fill-rule="evenodd" clip-rule="evenodd"
            d="M23.0932 24.5511C21.3974 24.5038 19.7025 24.5038 18.0088 24.5511C18.0088 22.9274 18.0088 21.3037 18.0088 19.68C19.6918 19.674 21.3748 19.68 23.0577 19.6977C23.0931 21.313 23.105 22.9307 23.0932 24.5511Z"
            fill="#F1F1F1" />
        <path fill-rule="evenodd" clip-rule="evenodd"
            d="M18.0444 19.7156C19.7037 19.7156 21.3629 19.7156 23.0222 19.7156C23.0222 21.28 23.0222 22.8445 23.0222 24.4089C21.3619 24.3976 19.7026 24.4094 18.0444 24.4445C18.0444 22.8682 18.0444 21.2919 18.0444 19.7156Z"
            fill="#FEFEFE" />
        <path fill-rule="evenodd" clip-rule="evenodd"
            d="M8.94234 7.7334C8.94234 13.2919 8.94234 18.8504 8.94234 24.409C10.5068 24.409 12.0712 24.409 13.6357 24.409C13.6239 22.4237 13.6357 20.4444 13.6712 18.4712C13.6712 20.4978 13.6712 22.5245 13.6712 24.5512C12.0831 24.5038 10.4949 24.5038 8.90678 24.5512C8.89494 18.9393 8.90678 13.3334 8.94234 7.7334Z"
            fill="#F0F0F0" />
        <path fill-rule="evenodd" clip-rule="evenodd"
            d="M13.6712 24.5512C13.6712 24.5986 13.6712 24.646 13.6712 24.6934C12.083 24.6934 10.4949 24.6934 8.90674 24.6934C8.90674 24.646 8.90674 24.5986 8.90674 24.5512C10.4949 24.5038 12.083 24.5038 13.6712 24.5512Z"
            fill="#FEFEFE" />
        <path fill-rule="evenodd" clip-rule="evenodd"
            d="M23.0932 24.5511C23.0932 24.5985 23.0932 24.6459 23.0932 24.6933C21.3984 24.6933 19.7036 24.6933 18.0088 24.6933C18.0088 24.6459 18.0088 24.5985 18.0088 24.5511C19.7025 24.5038 21.3974 24.5038 23.0932 24.5511Z"
            fill="#FEFEFE" />
        <path fill-rule="evenodd" clip-rule="evenodd"
            d="M17.9023 24.6934C17.9142 24.6934 17.926 24.6934 17.9379 24.6934C17.9418 24.7153 17.9537 24.7331 17.9734 24.7467C19.7038 24.7645 21.4341 24.7704 23.1645 24.7645C21.4283 24.8059 19.6861 24.8118 17.9379 24.7822C17.9111 24.7584 17.8993 24.7288 17.9023 24.6934Z"
            fill="#373737" />
        <path fill-rule="evenodd" clip-rule="evenodd"
            d="M8.87109 24.9778C10.495 24.966 12.1187 24.9778 13.7422 25.0134C12.9304 25.0252 12.1185 25.0371 11.3066 25.0489C10.4826 25.0489 9.67074 25.0252 8.87109 24.9778Z"
            fill="#0A0A0A" />
        <path fill-rule="evenodd" clip-rule="evenodd"
            d="M17.9734 24.9778C19.7089 24.9602 21.4392 24.9779 23.1645 25.0311C22.2993 25.037 21.4341 25.0429 20.5689 25.0489C19.6916 25.0489 18.8264 25.0252 17.9734 24.9778Z"
            fill="#0A0A0A" />
    </g>
    <defs>
        <clipPath id="clip0_4517_1108">
            <rect width="32" height="32" fill="white" />
        </clipPath>
    </defs>
</svg>