<svg width="32" height="32" viewBox="0 0 33 33" fill="none" xmlns="http://www.w3.org/2000/svg">
    <path opacity="0.994" fill-rule="evenodd" clip-rule="evenodd"
        d="M0.92098 0.5C11.3052 0.5 21.6893 0.5 32.0735 0.5C32.5602 9.86926 32.6304 19.2661 32.284 28.6905C32.0735 28.881 31.863 29.0714 31.6525 29.2619C28.2481 29.3681 25.3013 30.4474 22.8119 32.5C22.391 32.5 21.97 32.5 21.549 32.5C21.7631 31.4744 22.1841 30.522 22.8119 29.6429C21.698 29.4534 20.5754 29.3899 19.4441 29.4524C19.4441 27.0397 19.4441 24.627 19.4441 22.2143C18.8828 22.2143 18.3215 22.2143 17.7602 22.2143C17.7602 24.5 17.7602 26.7857 17.7602 29.0714C17.4795 27.5476 17.1989 26.0238 16.9182 24.5C16.3747 24.4096 15.9537 24.5366 15.6553 24.881C15.3746 24.246 15.094 23.6111 14.8133 22.9762C14.3923 22.4683 13.9714 22.4683 13.5504 22.9762C13.1344 24.9345 12.9941 26.9662 13.1294 29.0714C9.82403 28.9475 6.59655 29.0745 3.44686 29.4524C2.31526 29.5797 1.33297 29.3257 0.5 28.6905C0.5 19.4206 0.5 10.1508 0.5 0.880952C0.780653 0.880952 0.92098 0.753968 0.92098 0.5Z"
        fill="#3A3A3A" />
    <path fill-rule="evenodd" clip-rule="evenodd"
        d="M15.2344 2.02441C16.7698 2.07072 17.9626 2.70564 18.8127 3.92918C22.6021 9.52613 22.9529 15.3039 19.8651 21.2625C17.4796 21.5165 15.094 21.5165 12.7085 21.2625C9.21258 14.3593 10.0545 7.94662 15.2344 2.02441Z"
        fill="#FBFCFB" />
    <path fill-rule="evenodd" clip-rule="evenodd"
        d="M15.6554 8.5C16.4484 8.83585 17.0097 9.40728 17.3393 10.2143C19.427 10.2248 19.7778 10.7963 18.3917 11.9286C18.3135 12.843 18.103 13.7319 17.7603 14.5952C17.199 14.3413 16.6376 14.0873 16.0763 13.8333C15.515 14.0873 14.9537 14.3413 14.3924 14.5952C14.2504 13.145 13.6891 11.8751 12.7085 10.7857C14.4681 10.8063 15.4504 10.0444 15.6554 8.5Z"
        fill="#2FC879" />
    <path fill-rule="evenodd" clip-rule="evenodd"
        d="M22.3909 16.8809C24.9102 19.0257 25.5417 21.5653 24.2853 24.4999C23.6232 22.9506 22.5707 21.6807 21.1279 20.6904C21.5516 19.4138 21.9726 18.1439 22.3909 16.8809Z"
        fill="#EEEEEE" />
    <path fill-rule="evenodd" clip-rule="evenodd"
        d="M9.76168 16.8809C10.435 18.1318 10.9963 19.4651 11.4456 20.8809C10.5614 21.681 9.64932 22.5063 8.70923 23.357C8.56892 23.865 8.42856 24.3729 8.28825 24.8809C7.14142 21.9788 7.63257 19.3122 9.76168 16.8809Z"
        fill="#EEEEEE" />
    <path fill-rule="evenodd" clip-rule="evenodd"
        d="M19.4442 29.4529C18.8829 29.4529 18.3215 29.4529 17.7603 29.4529C17.7603 29.326 17.7603 29.199 17.7603 29.072C17.7603 26.7863 17.7603 24.5006 17.7603 22.2148C18.3215 22.2148 18.8829 22.2148 19.4442 22.2148C19.4442 24.6275 19.4442 27.0403 19.4442 29.4529Z"
        fill="#F7F7F7" />
    <path fill-rule="evenodd" clip-rule="evenodd"
        d="M14.8132 22.9757C14.8132 25.1344 14.8132 27.2931 14.8132 29.4519C14.3923 29.4519 13.9713 29.4519 13.5503 29.4519C13.5503 27.2931 13.5503 25.1344 13.5503 22.9757C13.9713 22.4677 14.3923 22.4677 14.8132 22.9757Z"
        fill="#FEFEFE" />
    <path fill-rule="evenodd" clip-rule="evenodd"
        d="M14.8132 22.9756C15.0939 23.6105 15.3745 24.2454 15.6552 24.8803C15.6552 26.4042 15.6552 27.928 15.6552 29.4518C15.3745 29.4518 15.0939 29.4518 14.8132 29.4518C14.8132 27.293 14.8132 25.1343 14.8132 22.9756Z"
        fill="#3A3A3A" />
    <path fill-rule="evenodd" clip-rule="evenodd"
        d="M16.9182 24.4999C16.9182 26.1507 16.9182 27.8015 16.9182 29.4523C16.4972 29.4523 16.0763 29.4523 15.6553 29.4523C15.6553 27.9284 15.6553 26.4046 15.6553 24.8808C15.9537 24.5364 16.3747 24.4095 16.9182 24.4999Z"
        fill="#FEFFFE" />
    <path fill-rule="evenodd" clip-rule="evenodd"
        d="M16.9182 24.5C17.1989 26.0238 17.4795 27.5476 17.7602 29.0714C17.7602 29.1984 17.7602 29.3254 17.7602 29.4524C17.4795 29.4524 17.1989 29.4524 16.9182 29.4524C16.9182 27.8016 16.9182 26.1508 16.9182 24.5Z"
        fill="#3A3A3A" />
    <path fill-rule="evenodd" clip-rule="evenodd"
        d="M13.5503 22.9756C13.5503 25.1343 13.5503 27.293 13.5503 29.4518C10.1825 29.4518 6.81462 29.4518 3.44678 29.4518C6.59646 29.0739 9.82395 28.9469 13.1293 29.0708C12.994 26.9656 13.1343 24.9339 13.5503 22.9756Z"
        fill="#3A3A3A" />
</svg>