<svg width="32" height="32" viewBox="0 0 32 32" fill="none" xmlns="http://www.w3.org/2000/svg">
    <g clip-path="url(#clip0_3749_309)">
        <path opacity="0.998" fill-rule="evenodd" clip-rule="evenodd"
            d="M13.7778 -0.0888672C15.2 -0.0888672 16.6222 -0.0888672 18.0445 -0.0888672C25.6889 1.51113 30.3111 6.13336 31.9111 13.7778C31.9111 15.2 31.9111 16.6222 31.9111 18.0445C30.3111 25.6889 25.6889 30.3111 18.0445 31.9111C16.6222 31.9111 15.2 31.9111 13.7778 31.9111C6.13336 30.3111 1.51113 25.6889 -0.0888672 18.0445C-0.0888672 16.6222 -0.0888672 15.2 -0.0888672 13.7778C1.51113 6.13336 6.13336 1.51113 13.7778 -0.0888672Z"
            fill="#FEFEFE" />
        <path fill-rule="evenodd" clip-rule="evenodd"
            d="M8.2666 9.68903C9.36045 9.484 10.4864 9.45436 11.6444 9.60014C12.8805 10.7031 13.9175 11.918 14.7555 13.2446C14.1333 13.6298 13.6296 14.1335 13.2444 14.7557C13.1259 14.8742 13.0073 14.8742 12.8888 14.7557C11.3063 13.0853 9.76559 11.3964 8.2666 9.68903Z"
            fill="#295884" />
        <path fill-rule="evenodd" clip-rule="evenodd"
            d="M20.1778 9.51106C21.3052 9.48152 22.4311 9.51115 23.5556 9.59995C22.0489 11.4326 20.4489 13.1808 18.7556 14.8444C18.2222 14.1925 17.6296 13.6 16.9778 13.0666C17.9826 11.8248 19.0492 10.6397 20.1778 9.51106Z"
            fill="#E86F24" />
        <path fill-rule="evenodd" clip-rule="evenodd"
            d="M12.8888 16.9775C13.469 17.5257 14.0912 18.059 14.7555 18.5775C14.874 18.6961 14.874 18.8145 14.7555 18.9331C13.8105 20.0264 12.8327 21.0931 11.8222 22.1331C10.6414 22.34 9.4562 22.3697 8.2666 22.222C9.77826 20.444 11.319 18.6958 12.8888 16.9775Z"
            fill="#E86F24" />
        <path fill-rule="evenodd" clip-rule="evenodd"
            d="M18.5778 16.9775C20.3769 18.5699 22.0361 20.318 23.5556 22.222C22.3659 22.3697 21.1808 22.34 20 22.1331C18.9509 21.0407 17.9435 19.9148 16.9778 18.7553C17.6365 18.2744 18.1698 17.6818 18.5778 16.9775Z"
            fill="#295884" />
    </g>
    <defs>
        <clipPath id="clip0_3749_309">
            <rect width="32" height="32" fill="white" />
        </clipPath>
    </defs>
</svg>