<svg width="32" height="32" viewBox="0 0 33 33" fill="none" xmlns="http://www.w3.org/2000/svg">
    <path opacity="0.943" fill-rule="evenodd" clip-rule="evenodd"
        d="M4.48653 0.5C5.09744 0.5 5.70727 0.5 6.31818 0.5C6.29987 5.11517 6.31818 9.73013 6.37205 14.3449C9.52357 15.6272 10.7088 18.2395 9.92761 22.1816C9.24343 24.153 8.03993 25.3721 6.31818 25.8388C6.31818 28.0592 6.31818 30.2796 6.31818 32.5C5.70727 32.5 5.09744 32.5 4.48653 32.5C4.48653 30.2796 4.48653 28.0592 4.48653 25.8388C1.99872 25.1281 0.669158 23.2126 0.5 20.0918C0.739192 17.0816 2.05044 15.1659 4.43266 14.3449C4.48653 9.73013 4.50485 5.11517 4.48653 0.5ZM5.133 16.4347C7.46242 16.6673 8.52155 18.1912 8.31145 21.0061C7.707 23.0813 6.50458 23.9738 4.70202 23.6837C2.76047 22.8297 2.06013 21.1971 2.60101 18.7857C3.12572 17.4792 3.96936 16.6955 5.133 16.4347Z"
        fill="#00BB30" />
    <path opacity="0.944" fill-rule="evenodd" clip-rule="evenodd"
        d="M15.5842 0.5C16.1951 0.5 16.8049 0.5 17.4159 0.5C17.4159 1.45782 17.4159 2.41565 17.4159 3.37347C19.9317 4.07248 21.2246 5.98812 21.2946 9.12041C21.1535 12.143 19.8789 14.0587 17.4697 14.8673C17.4159 20.7448 17.3975 26.6223 17.4159 32.5C16.8049 32.5 16.1951 32.5 15.5842 32.5C15.6025 26.6223 15.5842 20.7448 15.5303 14.8673C12.7204 13.8108 11.4641 11.5034 11.7593 7.9449C12.2334 5.43268 13.508 3.90887 15.5842 3.37347C15.5842 2.41565 15.5842 1.45782 15.5842 0.5ZM15.9074 5.46327C17.3469 5.30163 18.4416 5.95469 19.1936 7.42245C19.8433 9.36895 19.4662 10.9581 18.0623 12.1898C16.3988 13.1605 15.0164 12.7469 13.9142 10.949C13.0824 8.30829 13.7472 6.47972 15.9074 5.46327Z"
        fill="#00BB30" />
    <path opacity="0.942" fill-rule="evenodd" clip-rule="evenodd"
        d="M26.6818 0.5C27.2927 0.5 27.9026 0.5 28.5135 0.5C28.5135 6.42108 28.5135 12.3422 28.5135 18.2633C30.8149 18.9195 32.1434 20.661 32.5 23.4878C32.5 23.7925 32.5 24.0973 32.5 24.402C32.1348 27.1998 30.8246 28.9847 28.5673 29.7571C28.5135 30.6704 28.4952 31.5847 28.5135 32.5C27.9026 32.5 27.2927 32.5 26.6818 32.5C26.6818 31.5422 26.6818 30.5843 26.6818 29.6265C24.1962 28.9417 22.9032 27.0479 22.803 23.9449C22.9431 20.8784 24.236 18.9845 26.6818 18.2633C26.6818 12.3422 26.6818 6.42108 26.6818 0.5ZM27.0051 20.3531C29.1675 20.1881 30.3882 21.4072 30.6684 24.0102C30.4173 26.1431 29.4121 27.3621 27.6515 27.6673C25.5128 27.316 24.5259 25.8358 24.6886 23.2265C25.0506 21.7648 25.8231 20.8071 27.0051 20.3531Z"
        fill="#00BB30" />
</svg>