<svg width="32" height="32" viewBox="0 0 32 32" fill="none" xmlns="http://www.w3.org/2000/svg">
    <path
        d="M13 2.77026C13 6.72774 12 7.32136 9.3 4.749L7 2.57238L4.8 4.749L2.6 6.92562L4.8 9.20117C7.8 12.3672 7.6 12.8618 3.5 12.8618C0.3 12.8618 0 13.0597 0 15.83C0 18.6002 0.3 18.7981 3.5 18.7981C7.6 18.7981 7.8 19.2928 4.8 22.4588L2.6 24.7343L4.8 26.9109L7 29.0875L9.3 26.9109C12.5 23.9428 13 24.1407 13 28.1971C13 31.3631 13.2 31.6599 16 31.6599C18.8 31.6599 19 31.3631 19 28.1971C19 24.1407 19.5 23.9428 22.7 26.9109L25 29.0875L27.2 26.9109L29.4 24.7343L27.2 22.4588C24.6 19.7875 25.2 18.7981 29.2 18.7981C31.6 18.7981 32 18.4023 32 15.83C32 13.2576 31.6 12.8618 29.2 12.8618C25.2 12.8618 24.6 11.8725 27.2 9.20117L29.4 6.92562L27.2 4.749L25 2.57238L22.7 4.749C20 7.32136 19 6.72774 19 2.77026C19 0.395763 18.6 1.43153e-05 16 1.43153e-05C13.4 1.43153e-05 13 0.395763 13 2.77026Z"
        fill="#5603DB" />
    <path opacity="0.949" fill-rule="evenodd" clip-rule="evenodd"
        d="M0 11.7334C1.58334 11.7334 3.16666 11.7334 4.75 11.7334C9.12291 12.6285 13.5562 12.9662 18.05 12.7467C17.8442 17.5401 18.1609 22.2689 19 26.9334C19 28.6223 19 30.3111 19 32C16.4666 32 13.9334 32 11.4 32C11.4 30.3111 11.4 28.6223 11.4 26.9334C11.4 26.2578 11.4 25.5823 11.4 24.9067C12.3133 23.1186 12.63 21.0919 12.35 18.8267C10.2264 18.5281 8.32642 18.8658 6.65 19.84C6.01666 19.84 5.38334 19.84 4.75 19.84C3.16666 19.84 1.58334 19.84 0 19.84C0 17.1378 0 14.4356 0 11.7334Z"
        fill="#8A4DFE" />
</svg>