<svg width="32" height="32" viewBox="0 0 32 32" fill="none" xmlns="http://www.w3.org/2000/svg">
    <path
        d="M27.5677 12.0011C27.5034 5.36124 22.3075 0 15.9057 0C9.50397 0 4.3048 5.36124 4.24106 12.0011H27.5677Z"
        fill="#FF3360" />
    <path
        d="M11.8561 27.9219C11.8561 29.0036 12.3076 30.041 13.1112 30.8058C13.9149 31.5707 15.0049 32.0004 16.1414 32.0004C17.278 32.0004 18.3679 31.5707 19.1716 30.8058C19.9753 30.041 20.4267 29.0036 20.4267 27.9219H11.8561Z"
        fill="#FF3360" />
    <path
        d="M21.564 12.5615H10.4821C9.88883 12.5615 9.31985 12.7858 8.90035 13.1851C8.48084 13.5844 8.24516 14.1259 8.24516 14.6905V25.2376C8.24516 25.5172 8.30302 25.7941 8.41544 26.0524C8.52786 26.3107 8.69263 26.5454 8.90035 26.7431C9.10807 26.9407 9.35467 27.0976 9.62606 27.2046C9.89746 27.3116 10.1883 27.3666 10.4821 27.3666H21.564C22.1572 27.3666 22.7262 27.1423 23.1457 26.7431C23.5652 26.3438 23.8009 25.8023 23.8009 25.2376V14.69C23.8008 14.1255 23.565 13.5841 23.1455 13.1849C22.726 12.7858 22.1571 12.5615 21.564 12.5615Z"
        fill="#FF3360" />
    <path
        d="M11.9959 9.38456C12.3413 9.38456 12.6789 9.28708 12.9661 9.10446C13.2532 8.92184 13.4771 8.66227 13.6092 8.35857C13.7414 8.05488 13.776 7.72071 13.7086 7.39831C13.6412 7.07591 13.4749 6.77977 13.2307 6.54734C12.9865 6.3149 12.6753 6.15661 12.3366 6.09248C11.9978 6.02835 11.6467 6.06127 11.3276 6.18706C11.0085 6.31285 10.7358 6.52588 10.5439 6.79919C10.352 7.07251 10.2496 7.39384 10.2496 7.72255C10.2496 7.94081 10.2948 8.15693 10.3825 8.35857C10.4703 8.56022 10.5989 8.74344 10.7611 8.89777C10.9232 9.0521 11.1158 9.17452 11.3276 9.25804C11.5395 9.34157 11.7666 9.38456 11.9959 9.38456Z"
        fill="white" />
    <path
        d="M19.8129 9.38456C20.1582 9.38456 20.4959 9.28708 20.783 9.10446C21.0702 8.92184 21.294 8.66227 21.4262 8.35857C21.5584 8.05488 21.593 7.72071 21.5256 7.39831C21.4582 7.07591 21.2919 6.77977 21.0477 6.54734C20.8034 6.3149 20.4923 6.15661 20.1535 6.09248C19.8148 6.02835 19.4637 6.06127 19.1446 6.18706C18.8255 6.31285 18.5528 6.52588 18.3609 6.79919C18.169 7.07251 18.0666 7.39384 18.0666 7.72255C18.0666 8.16334 18.2506 8.58608 18.5781 8.89777C18.9056 9.20945 19.3497 9.38456 19.8129 9.38456Z"
        fill="white" />
    <path
        d="M13.0726 23.128V16.1787H16.6385C18.027 16.1787 18.9858 16.9817 18.9858 18.1435C18.9725 18.5723 18.806 18.9839 18.5139 19.3105C18.2217 19.6371 17.8214 19.8592 17.3788 19.9401C17.6044 19.9771 17.8158 20.0699 17.9916 20.2094C18.1675 20.3488 18.3016 20.5299 18.3805 20.7344L19.3184 23.1255H17.9846L17.141 20.9333C17.0936 20.8006 17.0012 20.6867 16.8783 20.6096C16.7554 20.5324 16.6091 20.4963 16.4623 20.5071H14.326V23.127H13.0747L13.0726 23.128ZM14.3239 19.4573H16.5758C16.7331 19.4648 16.8901 19.4405 17.0368 19.3861C17.1834 19.3316 17.3163 19.2483 17.4267 19.1415C17.5371 19.0347 17.6225 18.9068 17.6773 18.7664C17.7321 18.6259 17.7551 18.4761 17.7447 18.3266C17.7507 18.1808 17.7243 18.0355 17.6671 17.9002C17.6099 17.7649 17.5232 17.6426 17.4128 17.5415C17.3024 17.4404 17.1707 17.3626 17.0265 17.3134C16.8822 17.2642 16.7286 17.2446 16.5758 17.256H14.326L14.3239 19.4573Z"
        fill="white" />
    <path
        d="M29.0933 23.9748C29.1149 23.9434 29.1285 23.9075 29.133 23.8702C29.1375 23.8328 29.1327 23.7949 29.119 23.7597L28.4687 22.322L29.1426 21.5705L30.1019 21.6286L30.7501 23.1025C30.7659 23.1371 30.7906 23.1673 30.8218 23.1904C30.8531 23.2136 30.8899 23.2289 30.929 23.2351C30.9659 23.2421 31.0041 23.2405 31.0402 23.2303C31.0763 23.2202 31.1093 23.2019 31.1363 23.177C31.4093 22.9183 31.625 22.61 31.7705 22.2705C32.077 21.5636 32.0765 20.77 31.769 20.0635C31.4615 19.357 30.8722 18.7955 30.1303 18.5019C29.8823 18.4054 29.6212 18.3427 29.3547 18.3158L27.1697 13.4527C27.024 13.1324 26.7518 12.8795 26.4119 12.7485C26.0719 12.6175 25.6915 12.6191 25.3527 12.7527C25.1844 12.8204 25.0319 12.9194 24.9044 13.044C24.7769 13.1686 24.6769 13.3162 24.6103 13.4782C24.4724 13.8034 24.4724 14.167 24.6103 14.4922L26.7337 19.257C26.4978 19.5065 26.3103 19.7939 26.1798 20.1058L26.175 20.117C25.9853 20.5458 25.9092 21.0123 25.9534 21.4756C25.9975 21.939 26.1607 22.3848 26.4283 22.7741C26.696 23.1634 27.0601 23.4841 27.4885 23.708C27.917 23.932 28.3967 24.0523 28.8854 24.0584C28.9244 24.0647 28.9644 24.0602 29.0008 24.0454C29.0372 24.0307 29.0683 24.0064 29.0906 23.9753L29.0933 23.9748Z"
        fill="#FF3360" />
    <path
        d="M2.9094 23.973C2.93168 24.0041 2.96284 24.0284 2.9992 24.0431C3.03556 24.0579 3.0756 24.0624 3.11456 24.0561C3.60332 24.05 4.08301 23.9296 4.51146 23.7057C4.9399 23.4817 5.30397 23.161 5.57166 22.7718C5.83935 22.3825 6.00245 21.9367 6.04663 21.4733C6.09081 21.01 6.01471 20.5435 5.82503 20.1147L5.82021 20.1035C5.68899 19.7918 5.50073 19.5048 5.26419 19.2557L7.38757 14.4909C7.52551 14.1657 7.52551 13.8022 7.38757 13.4769C7.32113 13.3147 7.2212 13.1667 7.09368 13.0419C6.96616 12.917 6.81364 12.8177 6.64513 12.7499C6.30659 12.617 5.92677 12.6159 5.58737 12.7468C5.24797 12.8777 4.97612 13.1302 4.8303 13.4499L2.64532 18.3135C2.37894 18.3409 2.11788 18.4036 1.86967 18.4996C1.12778 18.7932 0.538485 19.3547 0.231009 20.0612C-0.0764673 20.7676 -0.0770224 21.5613 0.229465 22.2682C0.374986 22.6077 0.590659 22.9159 0.863694 23.1746C0.890995 23.1989 0.923833 23.2167 0.959621 23.2268C0.995409 23.2369 1.03317 23.2389 1.06992 23.2328C1.109 23.2266 1.14584 23.2113 1.17709 23.1881C1.20834 23.165 1.23301 23.1348 1.24884 23.1002L1.89699 21.6263L2.85637 21.5682L3.53399 22.3197L2.88369 23.7574C2.87001 23.7926 2.86522 23.8305 2.86968 23.8678C2.87415 23.9052 2.88775 23.9416 2.9094 23.973Z"
        fill="#FF3360" />
</svg>