<svg width="32" height="32" viewBox="0 0 33 33" fill="none" xmlns="http://www.w3.org/2000/svg">
    <path
        d="M17.4634 32.3161H11.7456C9.5365 32.1766 7.45731 31.6188 5.50807 30.2241C3.42888 28.6899 2.25934 26.4585 1.6096 24.0875C0.8299 21.2982 0.699951 18.3694 0.699951 15.4406C0.699951 13.0696 0.95985 10.5592 1.73955 8.32772C2.64919 5.53838 4.07863 3.3069 6.54767 1.91222C8.23701 0.935954 9.92635 0.657019 11.8756 0.517552C14.8644 0.378085 17.7233 0.517552 20.7121 0.517552C22.7913 0.517552 24.8705 0.796486 26.6898 1.91222C29.2888 3.3069 30.7182 5.67784 31.6279 8.60666C32.2776 10.8381 32.5375 13.0696 32.6675 15.4406C32.7974 18.2299 32.5375 21.1587 31.8878 23.9481C31.238 26.319 30.1984 28.5505 28.2492 30.0846C26.5599 31.4793 24.6106 32.1766 22.5314 32.4556C20.5822 32.4556 18.6329 32.3161 17.4634 32.3161ZM17.0736 3.86477H13.1751C12.1355 3.86477 11.2258 4.00424 10.1862 4.1437C7.71721 4.70157 6.02787 6.23571 5.37812 8.88559C5.11823 9.86186 4.98828 10.8381 4.98828 11.8144C4.85833 14.1853 4.85833 16.5563 4.85833 18.9272C4.85833 20.3219 4.98828 21.8561 5.24817 23.2507C5.76797 26.0401 7.32736 27.7137 10.0563 28.411C11.0959 28.6899 12.2654 28.8294 13.435 28.8294H20.3223C21.3619 28.8294 22.4015 28.69 23.3111 28.5505C25.9101 27.9926 27.5994 26.4585 28.2492 23.6691C28.5091 22.5534 28.639 21.5771 28.639 20.4614C28.769 18.3694 28.769 16.1379 28.639 14.0459C28.639 12.5117 28.5091 11.1171 28.2492 9.58293C27.7294 7.35145 26.6898 5.53838 24.7406 4.70157C23.701 4.28317 22.6614 4.00423 21.6218 4.00423C19.9324 3.86477 18.373 4.00423 17.0736 3.86477Z"
        fill="#3576ED" />
    <path
        d="M9.92651 23.2507V14.0459H12.6554V25.7612H12.3955C11.0961 25.9006 9.92651 24.6454 9.92651 23.2507Z"
        fill="#3576ED" />
    <path
        d="M23.571 23.2507V14.0459H20.842V25.7612H21.1019C22.4014 25.9006 23.571 24.6454 23.571 23.2507Z"
        fill="#3576ED" />
    <path d="M18.1132 16.8354H15.3843V25.9008H18.1132V16.8354Z" fill="#3576ED" />
    <path
        d="M17.2033 7.07199L19.6723 9.30347H13.5647L16.0337 7.07199C16.5535 6.79306 16.9434 6.79306 17.2033 7.07199Z"
        fill="#3576ED" />
</svg>