<svg width="32" height="32" viewBox="0 0 32 32" fill="none" xmlns="http://www.w3.org/2000/svg">
    <g clip-path="url(#clip0_4157_876)">
        <path fill-rule="evenodd" clip-rule="evenodd"
            d="M-0.0695648 -0.0732422C6.1913 -0.0732422 12.4522 -0.0732422 18.713 -0.0732422C13.9233 1.25733 9.10016 2.49934 4.24348 3.65279C3.22266 3.97248 2.78208 4.67871 2.92174 5.77151C3.06524 6.21563 3.32031 6.58093 3.68696 6.8674C5.91821 8.28263 8.19066 9.62204 10.5043 10.8857C11.0517 11.8894 11.5619 12.9122 12.0348 13.9542C8.3932 14.9438 4.72943 15.8936 1.04348 16.8035C0.561898 16.9942 0.190883 17.3106 -0.0695648 17.7532C-0.0695648 11.8111 -0.0695648 5.86892 -0.0695648 -0.0732422Z"
            fill="#FDFEFE" />
        <path fill-rule="evenodd" clip-rule="evenodd"
            d="M18.713 -0.0732422C18.9913 -0.0732422 19.2696 -0.0732422 19.5478 -0.0732422C19.861 0.0598197 20.1393 0.254645 20.3826 0.511233C17.0435 3.92066 13.7507 7.37881 10.5043 10.8857C8.19067 9.62204 5.91821 8.28263 3.68696 6.8674C3.32031 6.58093 3.06524 6.21563 2.92174 5.77151C2.78208 4.67871 3.22267 3.97248 4.24348 3.65279C9.10016 2.49934 13.9233 1.25733 18.713 -0.0732422Z"
            fill="#5B86F2" />
        <path fill-rule="evenodd" clip-rule="evenodd"
            d="M19.5478 -0.0732422C23.6754 -0.0732422 27.8029 -0.0732422 31.9304 -0.0732422C31.9304 3.38491 31.9304 6.84304 31.9304 10.3012C31.823 10.1268 31.6839 9.98068 31.513 9.86283C31.033 9.30835 30.4301 9.13788 29.7043 9.35141C25.9406 10.2928 22.1841 11.2425 18.4348 12.2007C19.1768 8.83971 19.942 5.47898 20.7304 2.11854C20.8956 1.4927 20.7795 0.956934 20.3826 0.511233C20.1393 0.254645 19.861 0.0598197 19.5478 -0.0732422Z"
            fill="#FEFEFE" />
        <path fill-rule="evenodd" clip-rule="evenodd"
            d="M20.3826 0.511719C20.7795 0.95742 20.8956 1.49318 20.7304 2.11902C19.942 5.47946 19.1768 8.84019 18.4348 12.2012C18.0107 13.941 17.6397 15.6945 17.3217 17.4615C17.1775 17.6704 17.0847 17.914 17.0435 18.1921C16.1334 19.1389 15.2291 19.1389 14.3304 18.1921C14.1532 17.7697 13.9445 17.38 13.7043 17.0231C13.179 15.9667 12.6224 14.9439 12.0348 13.9546C11.5619 12.9127 11.0517 11.8899 10.5043 10.8861C13.7507 7.3793 17.0435 3.92115 20.3826 0.511719Z"
            fill="#5374DE" />
        <path fill-rule="evenodd" clip-rule="evenodd"
            d="M31.5131 9.86317C28.1739 13.2726 24.8811 16.7307 21.6348 20.2376C20.3624 19.4474 19.0638 18.6924 17.7391 17.9728C17.5217 17.8619 17.3825 17.6913 17.3217 17.4613C17.6397 15.6943 18.0107 13.9409 18.4348 12.2011C22.1841 11.2429 25.9406 10.2931 29.7044 9.35175C30.4301 9.13821 31.0331 9.30869 31.5131 9.86317Z"
            fill="#FE7981" />
        <path fill-rule="evenodd" clip-rule="evenodd"
            d="M31.513 9.86328C31.6839 9.98113 31.823 10.1272 31.9304 10.3016C31.9304 10.6913 31.9304 11.0809 31.9304 11.4706C30.6207 16.5837 29.4381 21.7465 28.3826 26.9592C27.9135 27.9722 27.1482 28.3375 26.087 28.0551C25.9368 27.9154 25.7746 27.7937 25.6 27.6898C24.2766 25.2018 22.9549 22.7178 21.6348 20.2377C24.8811 16.7309 28.1739 13.2727 31.513 9.86328Z"
            fill="#FF616A" />
        <path fill-rule="evenodd" clip-rule="evenodd"
            d="M31.9304 11.4707C31.9304 18.2896 31.9304 25.1084 31.9304 31.9273C25.6696 31.9273 19.4087 31.9273 13.1478 31.9273C13.7607 31.6479 14.155 31.1609 14.3304 30.4661C15.2369 26.3668 16.1412 22.2755 17.0435 18.1922C17.0847 17.9141 17.1775 17.6705 17.3217 17.4616C17.3825 17.6916 17.5217 17.8621 17.7391 17.973C19.0638 18.6926 20.3624 19.4476 21.6348 20.2378C22.9549 22.7179 24.2766 25.2019 25.6 27.6899C25.7746 27.7938 25.9368 27.9155 26.087 28.0552C27.1482 28.3376 27.9135 27.9723 28.3826 26.9593C29.4381 21.7466 30.6207 16.5838 31.9304 11.4707Z"
            fill="#FEFDFE" />
        <path fill-rule="evenodd" clip-rule="evenodd"
            d="M12.0348 13.9541C12.6224 14.9433 13.179 15.9662 13.7043 17.0226C13.7251 17.1763 13.702 17.3224 13.6348 17.461C11.5356 19.5922 9.51816 21.784 7.58261 24.0363C5.28403 22.623 2.9652 21.2349 0.626087 19.8719C0.340821 19.5848 0.108938 19.2681 -0.0695648 18.9221C-0.0695648 18.5324 -0.0695648 18.1429 -0.0695648 17.7532C0.190883 17.3106 0.561898 16.9941 1.04348 16.8034C4.72943 15.8935 8.3932 14.9438 12.0348 13.9541Z"
            fill="#88D3F9" />
        <path fill-rule="evenodd" clip-rule="evenodd"
            d="M13.7044 17.0225C13.9445 17.3793 14.1532 17.769 14.3304 18.1914C15.2291 19.1383 16.1334 19.1383 17.0435 18.1914C16.1412 22.2747 15.2369 26.366 14.3304 30.4654C14.155 31.1602 13.7607 31.6472 13.1478 31.9266C12.8232 31.9266 12.4985 31.9266 12.1739 31.9266C11.858 31.6685 11.5566 31.3763 11.2696 31.0499C10.0762 28.6892 8.8472 26.3513 7.58261 24.0362C9.51817 21.7839 11.5356 19.5921 13.6348 17.4608C13.702 17.3223 13.7252 17.1762 13.7044 17.0225Z"
            fill="#67CAF2" />
        <path fill-rule="evenodd" clip-rule="evenodd"
            d="M-0.0695648 18.9229C0.108938 19.2689 0.340821 19.5855 0.626087 19.8726C2.9652 21.2356 5.28403 22.6237 7.58261 24.037C8.84719 26.3521 10.0762 28.69 11.2696 31.0507C11.5565 31.3771 11.858 31.6694 12.1739 31.9274C8.09276 31.9274 4.01159 31.9274 -0.0695648 31.9274C-0.0695648 27.5925 -0.0695648 23.2578 -0.0695648 18.9229Z"
            fill="#FEFEFE" />
    </g>
    <defs>
        <clipPath id="clip0_4157_876">
            <rect width="32" height="32" fill="white" />
        </clipPath>
    </defs>
</svg>