<svg width="32" height="32" viewBox="0 0 32 32" fill="none" xmlns="http://www.w3.org/2000/svg">
    <g clip-path="url(#clip0_3413_757)">
        <rect width="32" height="32" rx="16" fill="#FAFAFA" />
        <path opacity="0.906" fill-rule="evenodd" clip-rule="evenodd"
            d="M14.041 0C15.3444 0 16.6477 0 17.9511 0C19.0406 0.206234 20.107 0.50253 21.1503 0.888889C17.1222 1.13379 13.0936 1.37083 9.06445 1.6C10.6382 0.79186 12.297 0.258525 14.041 0Z"
            fill="#1F376D" />
        <path opacity="0.974" fill-rule="evenodd" clip-rule="evenodd"
            d="M21.1503 0.888672C21.6225 0.965973 22.0374 1.14375 22.3944 1.42201C17.5355 1.70256 12.6774 1.99886 7.82031 2.31089C8.14656 1.93969 8.56126 1.70266 9.06444 1.59978C13.0936 1.37061 17.1222 1.13358 21.1503 0.888672Z"
            fill="#1E396F" />
        <path opacity="0.984" fill-rule="evenodd" clip-rule="evenodd"
            d="M22.3944 1.42236C23.7496 1.86258 24.9346 2.57369 25.9491 3.5557C18.7841 4.07694 11.6155 4.55102 4.44336 4.97792C5.34136 3.78956 6.46701 2.90067 7.82029 2.31125C12.6774 1.99922 17.5354 1.70292 22.3944 1.42236Z"
            fill="#1D3C73" />
        <path opacity="0.989" fill-rule="evenodd" clip-rule="evenodd"
            d="M25.9491 3.55566C26.8306 4.14096 27.6007 4.85207 28.2596 5.689C19.6747 6.32862 11.0843 6.92123 2.48828 7.46678C2.96894 6.50653 3.62062 5.67691 4.44335 4.97789C11.6155 4.55099 18.7841 4.07691 25.9491 3.55566Z"
            fill="#1C4079" />
        <path opacity="0.991" fill-rule="evenodd" clip-rule="evenodd"
            d="M28.2596 5.68896C28.4373 5.926 28.6151 6.16304 28.7928 6.40008C19.8533 7.07124 10.9075 7.66384 1.95508 8.17785C2.04849 7.87024 2.22623 7.6332 2.48828 7.46674C11.0843 6.9212 19.6747 6.32859 28.2596 5.68896Z"
            fill="#1B437D" />
        <path opacity="0.992" fill-rule="evenodd" clip-rule="evenodd"
            d="M28.7928 6.3999C29.2716 7.00013 29.6862 7.65199 30.0369 8.35546C20.3974 9.12468 10.7406 9.77652 1.06641 10.311C1.26386 9.56024 1.56008 8.84913 1.95507 8.17768C10.9075 7.66367 19.8533 7.07107 28.7928 6.3999Z"
            fill="#1A4680" />
        <path opacity="0.995" fill-rule="evenodd" clip-rule="evenodd"
            d="M30.0369 8.35547C30.2147 8.71102 30.3924 9.06658 30.5701 9.42214C20.616 10.0571 10.6628 10.709 0.710938 11.3777C0.727813 10.9713 0.846303 10.6158 1.0664 10.311C10.7406 9.77654 20.3974 9.1247 30.0369 8.35547Z"
            fill="#1A4984" />
        <path opacity="0.982" fill-rule="evenodd" clip-rule="evenodd"
            d="M30.5701 9.42236C30.8175 9.868 30.9953 10.3421 31.1033 10.8446C26.7721 11.0821 22.4472 11.3784 18.1288 11.7335C16.084 11.4149 14.0696 11.5335 12.0859 12.089C8.17936 12.3811 4.26923 12.6182 0.355469 12.8001C0.367045 12.2796 0.485534 11.8055 0.710935 11.3779C10.6628 10.7092 20.616 10.0574 30.5701 9.42236Z"
            fill="#194B87" />
        <path opacity="0.917" fill-rule="evenodd" clip-rule="evenodd"
            d="M31.1033 10.8442C31.2204 11.1354 31.339 11.4317 31.4588 11.7331C28.6168 11.8812 25.7731 11.9701 22.9276 11.9998C22.5033 12.1 22.1479 12.3074 21.8612 12.622C21.2688 12.6813 20.6762 12.7405 20.0838 12.7998C19.4488 12.3937 18.7971 12.0381 18.1288 11.7331C22.4472 11.378 26.7721 11.0817 31.1033 10.8442Z"
            fill="#194E8A" />
        <path opacity="0.984" fill-rule="evenodd" clip-rule="evenodd"
            d="M12.0859 12.0889C11.4524 12.4376 10.9192 12.9117 10.4863 13.5111C6.99131 13.6967 3.49589 13.8745 0 14.0444C0 13.9852 0 13.9259 0 13.8666C0.118489 13.5111 0.236978 13.1555 0.355466 12.8C4.26922 12.618 8.17935 12.381 12.0859 12.0889Z"
            fill="#194E8B" />
        <path opacity="0.88" fill-rule="evenodd" clip-rule="evenodd"
            d="M21.8612 12.6221C21.802 12.9776 21.7426 13.3332 21.6835 13.6887C21.4094 13.8311 21.1133 13.8903 20.7948 13.8665C20.488 13.5593 20.2511 13.2038 20.0839 12.7998C20.6762 12.7406 21.2688 12.6813 21.8612 12.6221Z"
            fill="#18508D" />
        <path opacity="0.976" fill-rule="evenodd" clip-rule="evenodd"
            d="M10.4863 13.5112C10.3506 13.8434 10.1729 14.1397 9.95306 14.4001C6.63451 14.5621 3.31682 14.7399 0 14.9335C0 14.6372 0 14.3409 0 14.0446C3.49589 13.8747 6.99131 13.6969 10.4863 13.5112Z"
            fill="#18508D" />
        <path opacity="0.974" fill-rule="evenodd" clip-rule="evenodd"
            d="M21.6835 13.689C21.6835 13.9853 21.6835 14.2816 21.6835 14.5779C23.2239 14.5779 24.7641 14.5779 26.3045 14.5779C26.3045 14.9927 26.3045 15.4075 26.3045 15.8223C24.7211 16.0328 23.1215 16.1513 21.5057 16.1779C21.4604 15.344 21.2235 14.5736 20.7948 13.8667C21.1133 13.8906 21.4094 13.8313 21.6835 13.689Z"
            fill="#175593" />
        <path opacity="0.818" fill-rule="evenodd" clip-rule="evenodd"
            d="M16.1737 14.0446C15.4986 14.2194 14.7877 14.2787 14.0409 14.2224C14.7391 13.9615 15.4501 13.9023 16.1737 14.0446Z"
            fill="#18518F" />
        <path opacity="0.934" fill-rule="evenodd" clip-rule="evenodd"
            d="M16.1737 14.0444C16.8363 14.0579 17.4288 14.2653 17.951 14.6667C18.2633 15.1725 18.6187 15.6466 19.0174 16.0889C19.6665 16.1775 20.318 16.2072 20.9725 16.1778C18.3651 16.4069 15.7583 16.644 13.1522 16.8889C12.4185 15.9554 12.537 15.0961 13.5077 14.3111C13.6762 14.2253 13.8539 14.1956 14.0409 14.2222C14.7876 14.2785 15.4986 14.2193 16.1737 14.0444Z"
            fill="#175492" />
        <path opacity="0.988" fill-rule="evenodd" clip-rule="evenodd"
            d="M9.95306 14.3999C9.95306 14.4592 9.95306 14.5184 9.95306 14.5777C6.62918 14.7598 3.31151 14.9968 0 15.2888C0 15.1703 0 15.0518 0 14.9332C3.31682 14.7397 6.63451 14.5619 9.95306 14.3999Z"
            fill="#18518F" />
        <path opacity="0.941" fill-rule="evenodd" clip-rule="evenodd"
            d="M9.95306 14.5776C9.79607 15.396 9.73683 16.2256 9.77533 17.0665C9.53836 17.0665 9.30137 17.0665 9.06439 17.0665C8.8908 16.5711 8.83156 16.0377 8.88666 15.4665C6.8364 15.4274 5.05907 16.0792 3.55466 17.4221C2.37405 17.5487 1.18917 17.608 0 17.5999C0 16.8295 0 16.0591 0 15.2887C3.31151 14.9968 6.62918 14.7598 9.95306 14.5776Z"
            fill="#175391" />
        <path opacity="0.977" fill-rule="evenodd" clip-rule="evenodd"
            d="M31.9919 15.4665C31.1624 15.4665 30.3331 15.4665 29.5037 15.4665C29.5037 15.1702 29.5037 14.8739 29.5037 14.5776C30.2828 14.5197 31.053 14.579 31.8142 14.7554C31.9468 14.9751 32.006 15.2122 31.9919 15.4665Z"
            fill="#134183" />
        <path opacity="0.934" fill-rule="evenodd" clip-rule="evenodd"
            d="M29.5037 15.4668C30.3331 15.4668 31.1624 15.4668 31.9919 15.4668C31.9919 15.7038 31.9919 15.9409 31.9919 16.1779C31.1624 16.1779 30.3331 16.1779 29.5037 16.1779C29.5037 15.9409 29.5037 15.7038 29.5037 15.4668Z"
            fill="#124385" />
        <path opacity="0.978" fill-rule="evenodd" clip-rule="evenodd"
            d="M26.3045 15.8223C26.3045 16 26.3045 16.1778 26.3045 16.3556C21.9797 16.5926 17.6548 16.8297 13.33 17.0667C13.2115 17.0667 13.1522 17.0075 13.1522 16.8889C15.7583 16.644 18.3651 16.407 20.9725 16.1778C21.1502 16.1778 21.3279 16.1778 21.5057 16.1778C23.1215 16.1513 24.7211 16.0328 26.3045 15.8223Z"
            fill="#175696" />
        <path opacity="0.935" fill-rule="evenodd" clip-rule="evenodd"
            d="M29.5037 16.1777C30.3331 16.1777 31.1624 16.1777 31.9919 16.1777C32.023 16.5548 31.9637 16.9103 31.8142 17.2444C31.0441 17.2444 30.2738 17.2444 29.5037 17.2444C29.5037 16.8888 29.5037 16.5333 29.5037 16.1777Z"
            fill="#114588" />
        <path opacity="0.975" fill-rule="evenodd" clip-rule="evenodd"
            d="M26.3045 16.3555C26.3045 17.1258 26.3045 17.8963 26.3045 18.6666C24.2316 18.8522 22.158 19.03 20.0838 19.1999C18.2605 18.6698 16.4239 18.1661 14.5741 17.6888C14.0988 17.5697 13.6841 17.3623 13.33 17.0666C17.6548 16.8295 21.9797 16.5925 26.3045 16.3555Z"
            fill="#155999" />
        <path opacity="0.954" fill-rule="evenodd" clip-rule="evenodd"
            d="M9.06445 17.0669C9.30142 17.0669 9.53841 17.0669 9.77539 17.0669C9.77539 17.1854 9.77539 17.3039 9.77539 17.4225C9.53841 17.4225 9.30142 17.4225 9.06445 17.4225C9.06445 17.3039 9.06445 17.1854 9.06445 17.0669Z"
            fill="#175696" />
        <path opacity="0.951" fill-rule="evenodd" clip-rule="evenodd"
            d="M29.5037 17.2446C30.2738 17.2446 31.0441 17.2446 31.8142 17.2446C31.8561 17.7973 31.797 18.3307 31.6365 18.8446C30.9255 18.8446 30.2146 18.8446 29.5037 18.8446C29.5037 18.3113 29.5037 17.778 29.5037 17.2446Z"
            fill="#0F488B" />
        <path opacity="0.925" fill-rule="evenodd" clip-rule="evenodd"
            d="M3.55466 17.4224C3.58516 17.5986 3.52591 17.7172 3.37693 17.7779C2.31697 17.9214 1.25056 17.9806 0.177733 17.9557C0.118489 17.9557 0.0592443 17.9557 0 17.9557C0 17.8372 0 17.7187 0 17.6001C1.18917 17.6083 2.37405 17.549 3.55466 17.4224Z"
            fill="#175696" />
        <path opacity="0.914" fill-rule="evenodd" clip-rule="evenodd"
            d="M9.06443 17.4224C9.3014 17.4224 9.53839 17.4224 9.77536 17.4224C10.096 18.3957 10.6884 19.1662 11.5527 19.7335C9.53997 19.8755 7.52567 19.9941 5.50977 20.089C5.64276 19.3927 6.05749 18.9482 6.7539 18.7557C7.52386 18.6521 8.29403 18.5632 9.06443 18.489C9.06443 18.1335 9.06443 17.7779 9.06443 17.4224Z"
            fill="#155A9A" />
        <path opacity="0.93" fill-rule="evenodd" clip-rule="evenodd"
            d="M3.37693 17.7778C2.8801 18.535 2.58389 19.3645 2.48827 20.2667C1.84859 20.4168 1.1969 20.476 0.533201 20.4445C0.345804 19.6255 0.227316 18.796 0.177734 17.9556C1.25057 17.9805 2.31697 17.9213 3.37693 17.7778Z"
            fill="#155999" />
        <path opacity="0.977" fill-rule="evenodd" clip-rule="evenodd"
            d="M26.3045 18.6665C26.3045 18.9035 26.3045 19.1406 26.3045 19.3776C24.4641 19.4489 22.6274 19.5675 20.7948 19.7332C20.4873 19.6397 20.2502 19.4619 20.0839 19.1998C22.158 19.0299 24.2316 18.8521 26.3045 18.6665Z"
            fill="#155C9D" />
        <path opacity="0.948" fill-rule="evenodd" clip-rule="evenodd"
            d="M29.5037 18.8442C30.2146 18.8442 30.9255 18.8442 31.6365 18.8442C31.6365 18.9628 31.6365 19.0812 31.6365 19.1998C30.9255 19.1998 30.2146 19.1998 29.5037 19.1998C29.5037 19.0812 29.5037 18.9628 29.5037 18.8442Z"
            fill="#0E4B8F" />
        <path opacity="0.93" fill-rule="evenodd" clip-rule="evenodd"
            d="M29.5037 19.2002C30.2146 19.2002 30.9255 19.2002 31.6365 19.2002C31.5179 19.6743 31.3995 20.1483 31.281 20.6224C30.6886 20.6224 30.096 20.6224 29.5037 20.6224C29.5037 20.1483 29.5037 19.6743 29.5037 19.2002Z"
            fill="#0D4C91" />
        <path opacity="0.98" fill-rule="evenodd" clip-rule="evenodd"
            d="M26.3045 19.3779C26.3045 19.9113 26.3045 20.4446 26.3045 20.9779C24.8322 21.1552 23.3511 21.2736 21.8612 21.3335C21.638 20.7084 21.2825 20.1751 20.7948 19.7335C22.6274 19.5678 24.4641 19.4492 26.3045 19.3779Z"
            fill="#145FA0" />
        <path opacity="0.956" fill-rule="evenodd" clip-rule="evenodd"
            d="M11.5526 19.7334C11.9524 19.8454 12.3079 20.0232 12.619 20.2667C10.1849 20.4054 7.75592 20.5832 5.33196 20.8001C5.31998 20.5407 5.37921 20.3037 5.50969 20.089C7.52559 19.994 9.5399 19.8754 11.5526 19.7334Z"
            fill="#155C9D" />
        <path opacity="0.907" fill-rule="evenodd" clip-rule="evenodd"
            d="M2.48827 20.2666C2.35779 20.4814 2.29856 20.7183 2.31054 20.9777C1.77734 20.9777 1.24414 20.9777 0.710936 20.9777C0.700827 20.7806 0.641581 20.6028 0.533203 20.4444C1.19691 20.4758 1.84859 20.4166 2.48827 20.2666Z"
            fill="#155C9D" />
        <path opacity="0.965" fill-rule="evenodd" clip-rule="evenodd"
            d="M12.6191 20.2666C14.3601 20.5235 16.019 20.9976 17.5956 21.6888C13.5087 21.9416 9.42085 22.1786 5.33203 22.3999C5.33203 21.8666 5.33203 21.3333 5.33203 20.7999C7.75599 20.583 10.185 20.4053 12.6191 20.2666Z"
            fill="#145FA0" />
        <path opacity="0.914" fill-rule="evenodd" clip-rule="evenodd"
            d="M29.5037 20.6221C30.096 20.6221 30.6886 20.6221 31.281 20.6221C31.1941 20.8878 31.0757 21.125 30.9255 21.3332C30.4515 21.3332 29.9777 21.3332 29.5037 21.3332C29.5037 21.0962 29.5037 20.859 29.5037 20.6221Z"
            fill="#0C4F94" />
        <path opacity="0.89" fill-rule="evenodd" clip-rule="evenodd"
            d="M0.710938 20.9775C1.24414 20.9775 1.77734 20.9775 2.31054 20.9775C2.31054 21.5701 2.31054 22.1628 2.31054 22.7553C2.01431 22.7553 1.71809 22.7553 1.42187 22.7553C1.18442 22.1619 0.94744 21.5694 0.710938 20.9775Z"
            fill="#145E9F" />
        <path opacity="0.952" fill-rule="evenodd" clip-rule="evenodd"
            d="M26.3045 20.9775C26.465 21.4915 26.5242 22.0248 26.4823 22.5775C25 22.6115 23.5187 22.6707 22.0389 22.7553C22.0565 22.2687 21.9972 21.7946 21.8612 21.3331C23.3511 21.2732 24.8322 21.1548 26.3045 20.9775Z"
            fill="#1362A4" />
        <path opacity="0.907" fill-rule="evenodd" clip-rule="evenodd"
            d="M29.5037 21.3335C29.9777 21.3335 30.4515 21.3335 30.9255 21.3335C30.9677 21.563 30.9085 21.7408 30.7478 21.8668C30.3331 21.8668 29.9183 21.8668 29.5037 21.8668C29.5037 21.6891 29.5037 21.5113 29.5037 21.3335Z"
            fill="#0B5096" />
        <path opacity="0.966" fill-rule="evenodd" clip-rule="evenodd"
            d="M17.5956 21.689C18.2939 21.8545 18.7678 22.2692 19.0175 22.9334C16.8959 23.1421 14.7631 23.3199 12.6191 23.4667C12.6493 23.2317 12.5901 23.0243 12.4414 22.8445C11.4953 22.7558 10.5474 22.7261 9.59763 22.7556C9.59763 23.052 9.59763 23.3482 9.59763 23.6445C8.16858 23.724 6.74672 23.8424 5.33203 24.0001C5.33203 23.4667 5.33203 22.9334 5.33203 22.4001C9.42085 22.1787 13.5087 21.9418 17.5956 21.689Z"
            fill="#1362A4" />
        <path opacity="0.846" fill-rule="evenodd" clip-rule="evenodd"
            d="M29.5038 21.8667C29.9184 21.8667 30.3333 21.8667 30.7479 21.8667C29.7928 24.7993 29.3779 24.7993 29.5038 21.8667Z"
            fill="#0A5399" />
        <path opacity="0.95" fill-rule="evenodd" clip-rule="evenodd"
            d="M26.4823 22.5776C26.4823 22.874 26.4823 23.1702 26.4823 23.4665C25.0002 23.5766 23.5191 23.6951 22.0389 23.8221C22.0389 23.4665 22.0389 23.111 22.0389 22.7554C23.5187 22.6708 25 22.6116 26.4823 22.5776Z"
            fill="#1364A7" />
        <path opacity="0.706" fill-rule="evenodd" clip-rule="evenodd"
            d="M1.42188 22.7554C1.7181 22.7554 2.01431 22.7554 2.31054 22.7554C2.34351 24.2933 2.04728 24.2933 1.42188 22.7554Z"
            fill="#1361A3" />
        <path opacity="0.964" fill-rule="evenodd" clip-rule="evenodd"
            d="M19.0174 22.9331C19.2081 23.2615 19.2081 23.617 19.0174 23.9998C17.1222 24.1262 15.2263 24.2447 13.33 24.3553C12.9668 24.1635 12.7299 23.8671 12.619 23.4664C14.763 23.3196 16.8958 23.1418 19.0174 22.9331Z"
            fill="#1364A7" />
        <path opacity="0.947" fill-rule="evenodd" clip-rule="evenodd"
            d="M26.4823 23.4668C26.4823 23.7038 26.4823 23.9409 26.4823 24.1779C24.9411 24.2202 23.4007 24.2796 21.8612 24.3557C21.8713 24.1585 21.9305 23.9808 22.0389 23.8224C23.5191 23.6954 25.0002 23.5768 26.4823 23.4668Z"
            fill="#1366A9" />
        <path opacity="0.971" fill-rule="evenodd" clip-rule="evenodd"
            d="M9.59763 23.6445C9.69325 23.932 9.75249 24.2284 9.77536 24.5334C8.32684 24.7292 6.84573 24.8477 5.33203 24.889C5.33203 24.5926 5.33203 24.2964 5.33203 24.0001C6.74672 23.8424 8.16858 23.724 9.59763 23.6445Z"
            fill="#1364A7" />
        <path opacity="0.941" fill-rule="evenodd" clip-rule="evenodd"
            d="M19.0174 24C18.9362 24.4041 18.6993 24.6411 18.3065 24.7111C16.9424 24.7431 15.5798 24.8025 14.2186 24.8889C13.7862 24.9292 13.49 24.7515 13.33 24.3556C15.2264 24.245 17.1222 24.1264 19.0174 24Z"
            fill="#1366A9" />
        <path opacity="0.953" fill-rule="evenodd" clip-rule="evenodd"
            d="M26.4823 24.1777C26.4823 24.8296 26.4823 25.4814 26.4823 26.1333C24.521 26.1733 22.5659 26.2917 20.6171 26.4888C21.1785 25.867 21.5932 25.1559 21.8612 24.3555C23.4007 24.2794 24.9411 24.22 26.4823 24.1777Z"
            fill="#1268AC" />
        <path opacity="0.95" fill-rule="evenodd" clip-rule="evenodd"
            d="M9.77536 24.5332C9.98397 24.7135 10.1025 24.9504 10.1308 25.2443C8.51609 25.2848 6.91649 25.4032 5.33203 25.5999C5.33203 25.3629 5.33203 25.1257 5.33203 24.8888C6.84573 24.8475 8.32684 24.7289 9.77536 24.5332Z"
            fill="#1366A9" />
        <path opacity="0.835" fill-rule="evenodd" clip-rule="evenodd"
            d="M18.3065 24.7109C18.156 24.9716 17.919 25.1198 17.5956 25.1554C17.1216 25.1851 16.6477 25.2146 16.1737 25.2443C15.4683 25.2809 14.8166 25.1623 14.2186 24.8887C15.5798 24.8023 16.9424 24.7429 18.3065 24.7109Z"
            fill="#1267AA" />
        <path opacity="0.965" fill-rule="evenodd" clip-rule="evenodd"
            d="M10.1308 25.2446C10.664 25.8965 11.2565 26.4891 11.9082 27.0224C9.70405 27.1614 7.51202 27.3392 5.33203 27.5557C5.33203 26.9038 5.33203 26.2521 5.33203 25.6002C6.91649 25.4036 8.51609 25.2852 10.1308 25.2446Z"
            fill="#1268AC" />
        <path opacity="0.968" fill-rule="evenodd" clip-rule="evenodd"
            d="M26.4823 26.1333C26.4823 26.5481 26.4823 26.963 26.4823 27.3777C26.6693 27.3513 26.847 27.3808 27.0155 27.4666C26.5568 28.0156 26.0236 28.4601 25.4159 28.8C19.7585 29.1745 14.1302 29.5893 8.53123 30.0444C7.23134 29.4275 6.04645 28.6275 4.97656 27.6444C5.08221 27.5619 5.2007 27.5322 5.33203 27.5555C7.51202 27.339 9.70405 27.1612 11.9082 27.0222C13.8008 27.7015 15.7559 27.9089 17.7734 27.6444C18.809 27.448 19.7569 27.0627 20.6171 26.4889C22.5659 26.2917 24.521 26.1733 26.4823 26.1333Z"
            fill="#106DB2" />
        <path opacity="0.983" fill-rule="evenodd" clip-rule="evenodd"
            d="M25.4159 28.7998C25.3318 29.0498 25.1541 29.1683 24.8827 29.1554C19.5617 29.6117 14.2298 29.9673 8.88672 30.222C8.71048 30.2526 8.59198 30.1932 8.53125 30.0442C14.1302 29.5891 19.7585 29.1744 25.4159 28.7998Z"
            fill="#106FB6" />
        <path opacity="0.937" fill-rule="evenodd" clip-rule="evenodd"
            d="M24.8827 29.1558C23.9958 29.8966 22.9888 30.4594 21.8612 30.8447C20.2272 31.4493 18.5682 31.8345 16.8847 32.0002C16.233 32.0002 15.5813 32.0002 14.9296 32.0002C13.635 31.8182 12.3316 31.5515 11.0195 31.2002C10.2529 30.9563 9.54193 30.6304 8.88672 30.2224C14.2298 29.9677 19.5617 29.6121 24.8827 29.1558Z"
            fill="#0F72B8" />
    </g>
    <defs>
        <clipPath id="clip0_3413_757">
            <rect width="32" height="32" rx="16" fill="white" />
        </clipPath>
    </defs>
</svg>