<svg width="32" height="32" viewBox="0 0 32 32" fill="none" xmlns="http://www.w3.org/2000/svg">
    <rect width="32" height="32" fill="black" />
    <path fill-rule="evenodd" clip-rule="evenodd"
        d="M6.5293 0.00149244C9.90843 0.0567435 13.2916 0.0805689 16.6789 0.0729686C17.4896 0.0803068 18.2997 0.104132 19.109 0.144445C19.2351 0.173393 19.3621 0.197218 19.4902 0.215921C19.621 0.235624 19.7559 0.247537 19.8953 0.251659C20.0925 0.333237 20.2991 0.37293 20.5147 0.370786C20.5869 0.418794 20.6662 0.446574 20.753 0.454175C20.8244 0.454175 20.8959 0.454175 20.9674 0.454175C20.9991 0.454175 21.031 0.454175 21.0627 0.454175C21.0706 0.470066 21.0787 0.485934 21.0865 0.501825C21.1068 0.536753 21.1385 0.556624 21.1818 0.561389C21.2609 0.573254 21.3403 0.577233 21.4201 0.573301C21.4439 0.573301 21.4677 0.573301 21.4916 0.573301C21.4994 0.589193 21.5075 0.605061 21.5154 0.620952C21.5604 0.684614 21.624 0.708439 21.706 0.692428C21.7536 0.692428 21.8013 0.692428 21.8489 0.692428C21.8568 0.692428 21.8649 0.692428 21.8728 0.692428C21.8954 0.778676 21.9509 0.818393 22.0395 0.811555C22.0958 0.807672 22.1513 0.811627 22.2063 0.823468C22.2196 0.832593 22.2275 0.844506 22.2301 0.859206C22.2409 0.882031 22.2568 0.901901 22.2778 0.918769C22.3583 0.926846 22.4377 0.938759 22.516 0.954507C22.532 0.954507 22.5399 0.962441 22.5399 0.978333C22.5682 1.0373 22.6159 1.06113 22.6828 1.04981C22.7145 1.04981 22.7464 1.04981 22.7781 1.04981C22.786 1.04981 22.7941 1.04981 22.8019 1.04981C22.8167 1.091 22.8405 1.12674 22.8734 1.15702C22.9704 1.15964 23.0578 1.18752 23.1355 1.24041C23.1515 1.24041 23.1672 1.24041 23.1831 1.24041C23.3301 1.33524 23.481 1.42649 23.6358 1.5144C23.7097 1.5368 23.7812 1.56468 23.8502 1.59779C23.8888 1.63639 23.9365 1.66403 23.9932 1.68118C24.0251 1.7529 24.0806 1.78863 24.16 1.7884C24.1857 1.83819 24.2255 1.86988 24.2791 1.8837C24.3029 1.8837 24.3268 1.8837 24.3506 1.8837C24.3689 1.94183 24.4087 1.97352 24.4697 1.979C24.4938 2.02713 24.5333 2.05905 24.5888 2.0743C24.6203 2.10861 24.6601 2.12457 24.708 2.12195C24.7263 2.18008 24.7661 2.21177 24.8271 2.21725C24.8271 2.24894 24.843 2.2649 24.8747 2.2649C24.8826 2.2649 24.8907 2.2649 24.8986 2.2649C24.9283 2.33971 24.9839 2.38737 25.0653 2.40786C25.0632 2.43168 25.0713 2.45146 25.0892 2.46742C25.1637 2.49887 25.2352 2.53461 25.3036 2.57463C25.3138 2.60346 25.3298 2.62729 25.3512 2.64611C25.422 2.74046 25.5094 2.82003 25.6133 2.88436C25.6212 2.88436 25.6293 2.88436 25.6371 2.88436C25.6643 2.94607 25.712 2.98562 25.7801 3.00349C25.8199 3.09093 25.8833 3.1543 25.9707 3.19409C25.9867 3.19409 26.0024 3.19409 26.0183 3.19409C26.0322 3.2396 26.056 3.27939 26.0898 3.31322C26.2066 3.46594 26.3376 3.60889 26.4829 3.74208C26.5713 3.90147 26.6864 4.03656 26.8284 4.14711C26.8298 4.23312 26.8696 4.28863 26.9475 4.31388C26.9523 4.41348 26.9999 4.47709 27.0905 4.50449C27.1031 4.58049 27.1429 4.636 27.2096 4.67127C27.2206 4.77229 27.2682 4.85186 27.3526 4.90952C27.3983 4.9617 27.4381 5.01745 27.4717 5.0763C27.47 5.11275 27.4857 5.13658 27.5193 5.14777C27.5355 5.22425 27.5634 5.29573 27.6027 5.3622C27.6196 5.38317 27.6394 5.39913 27.6623 5.40985C27.6878 5.50229 27.7354 5.58163 27.8052 5.64811C27.7938 5.78939 27.8415 5.90065 27.9482 5.98166C27.9465 6.01811 27.9622 6.04194 27.9958 6.05314C28.0275 6.14391 28.0475 6.23921 28.0554 6.33904C28.1333 6.4179 28.1772 6.51321 28.1864 6.62495C28.2181 6.66545 28.2501 6.70524 28.2817 6.74407C28.2815 6.83866 28.3132 6.91824 28.377 6.98233C28.3906 7.09312 28.4025 7.20438 28.4128 7.31588C28.4609 7.33637 28.4966 7.36806 28.52 7.41118C28.52 7.42715 28.52 7.44287 28.52 7.45883C28.5159 7.53865 28.52 7.61799 28.5319 7.69709C28.5438 7.74569 28.5715 7.77762 28.6153 7.79239C28.6153 7.80025 28.6153 7.80835 28.6153 7.81622C28.601 7.99514 28.6367 8.16192 28.7225 8.31655C28.7266 8.4321 28.7385 8.54337 28.7583 8.6501C28.778 8.78662 28.8176 8.91385 28.8774 9.03131C28.8774 9.063 28.8774 9.09492 28.8774 9.12661C28.859 9.58644 28.8907 10.0391 28.9727 10.4847C28.9727 10.564 28.9727 10.6436 28.9727 10.7229C28.8952 11.2726 28.8555 11.8284 28.8536 12.3907C28.7735 12.6135 28.7418 12.8436 28.7583 13.0816C28.7583 13.0976 28.7583 13.1133 28.7583 13.1293C28.7504 13.1293 28.7423 13.1293 28.7344 13.1293C28.6889 13.1643 28.661 13.2119 28.651 13.2722C28.6234 13.3897 28.6115 13.5088 28.6153 13.6296C28.5946 13.7106 28.5667 13.79 28.5319 13.8679C28.52 13.9389 28.5162 14.0103 28.52 14.0823C28.418 14.2031 28.3704 14.346 28.377 14.5111C28.3075 14.6005 28.2758 14.7039 28.2817 14.8209C28.232 14.8466 28.2003 14.8864 28.1864 14.94C28.1745 15.0351 28.1309 15.1144 28.0554 15.1783C28.0475 15.2419 28.0394 15.3052 28.0316 15.3689C27.9403 15.4008 27.9046 15.4642 27.9244 15.5595C27.9301 15.5902 27.922 15.614 27.9005 15.6309C27.8767 15.6288 27.8569 15.6369 27.841 15.6548C27.81 15.7234 27.79 15.7949 27.7814 15.8692C27.6983 15.8916 27.6666 15.9473 27.6861 16.036C27.6861 16.0519 27.6861 16.0677 27.6861 16.0836C27.6632 16.1184 27.6356 16.1501 27.6027 16.1789C27.5911 16.2097 27.587 16.2416 27.5908 16.2742C27.5749 16.2742 27.567 16.2821 27.567 16.298C27.4819 16.3209 27.4424 16.3764 27.4479 16.4648C27.4319 16.4808 27.4162 16.4965 27.4002 16.5125C27.3423 16.5494 27.3106 16.6049 27.3049 16.6793C27.2218 16.7016 27.1901 16.7574 27.2096 16.846C27.1548 16.8753 27.1231 16.923 27.1143 16.989C27.0321 17.0154 26.9845 17.0712 26.9714 17.1558C26.9432 17.1505 26.9194 17.1584 26.8999 17.1796C26.8689 17.2494 26.8213 17.3051 26.7569 17.3464C26.6607 17.4822 26.5654 17.617 26.471 17.7514C26.4429 17.7462 26.4191 17.754 26.3996 17.7752C26.0877 18.1264 25.7382 18.4321 25.3512 18.6925C25.3143 18.749 25.2745 18.8007 25.2321 18.8474C25.1559 18.8895 25.0763 18.9253 24.9939 18.9546C24.9655 19.0106 24.9257 19.0544 24.8747 19.0856C24.8006 19.1159 24.7292 19.1516 24.6603 19.1928C24.6231 19.2109 24.5993 19.2388 24.5888 19.2762C24.5729 19.2841 24.5571 19.2922 24.5412 19.3C24.5007 19.2962 24.4609 19.3003 24.4221 19.312C24.4042 19.3279 24.3961 19.3477 24.3982 19.3715C24.2793 19.3794 24.184 19.4308 24.1123 19.5264C24.0628 19.5309 24.0151 19.5428 23.9694 19.5621C23.9108 19.6398 23.8314 19.6755 23.7311 19.6693C23.6944 19.702 23.6627 19.7377 23.6358 19.7766C23.4926 19.8314 23.3418 19.875 23.1831 19.9076C23.1543 19.9324 23.1305 19.9602 23.1117 19.991C23.0948 20.0124 23.0709 20.0205 23.0402 20.0148C22.9825 20.0074 22.9268 20.0155 22.8734 20.0386C22.8594 20.0696 22.8355 20.0894 22.8019 20.0982C22.7414 20.1027 22.6859 20.1146 22.6352 20.1339C22.5942 20.1532 22.5544 20.1771 22.516 20.2054C22.4041 20.2192 22.2928 20.239 22.1825 20.265C22.1532 20.2983 22.1215 20.3262 22.0872 20.3484C22.0074 20.3443 21.928 20.3484 21.8489 20.3603C21.7443 20.4246 21.6331 20.4682 21.5154 20.4913C21.4994 20.4913 21.4837 20.4913 21.4677 20.4913C21.4036 20.4875 21.3403 20.4913 21.2771 20.5032C21.2311 20.5132 21.2073 20.5411 21.2056 20.5866C21.1897 20.5866 21.174 20.5866 21.158 20.5866C21.0782 20.5826 20.9988 20.5866 20.9197 20.5985C20.8726 20.6581 20.8607 20.7255 20.884 20.801C20.9 20.8189 20.9197 20.827 20.9436 20.8249C20.9595 20.8249 20.9753 20.8249 20.9912 20.8249C20.9912 20.8408 20.9912 20.8566 20.9912 20.8725C21.0291 20.9423 21.0768 21.0059 21.1342 21.0631C21.2631 21.2268 21.3979 21.3857 21.5392 21.5396C21.6219 21.6244 21.7091 21.704 21.8013 21.7779C21.8313 21.8477 21.8789 21.9032 21.9442 21.9447C21.9821 22.0145 22.0298 22.0781 22.0872 22.1353C22.1896 22.2932 22.3166 22.4283 22.4684 22.5403C22.5239 22.6039 22.5796 22.6673 22.6352 22.7309C22.6811 22.8167 22.7448 22.8881 22.8258 22.9453C22.8575 22.9851 22.8894 23.0247 22.9211 23.0645C22.9749 23.1464 23.0345 23.2258 23.0998 23.3027C23.1262 23.322 23.1541 23.3377 23.1831 23.3504C23.2468 23.4218 23.3101 23.4933 23.3737 23.5648C23.3897 23.6284 23.4293 23.668 23.4929 23.6839C23.5389 23.7697 23.6025 23.8412 23.6835 23.8983C23.6994 23.9222 23.7152 23.946 23.7311 23.9698C23.8264 24.1047 23.9374 24.2238 24.0647 24.3272C24.0887 24.3718 24.1085 24.4194 24.1242 24.4702C24.2122 24.5383 24.2955 24.6098 24.3744 24.6846C24.4299 24.7482 24.4857 24.8116 24.5412 24.8752C24.5872 24.961 24.6508 25.0324 24.7318 25.0896C24.7318 25.0975 24.7318 25.1056 24.7318 25.1134C24.8349 25.2561 24.9541 25.3834 25.0892 25.4946C25.1528 25.5661 25.2162 25.6376 25.2798 25.7091C25.3736 25.8427 25.4849 25.9619 25.6133 26.0665C25.6271 26.112 25.651 26.1517 25.6848 26.1856C25.7467 26.2873 25.8261 26.3748 25.923 26.4477C26.0343 26.5668 26.1453 26.6859 26.2566 26.805C26.3264 26.9068 26.406 27.0021 26.4949 27.0909C26.5558 27.1879 26.6314 27.2754 26.7212 27.353C26.7291 27.3768 26.7372 27.4007 26.745 27.4245C26.8827 27.5744 27.0297 27.7094 27.1858 27.8295C27.2156 27.8912 27.2554 27.947 27.3049 27.9963C27.359 28.0902 27.4305 28.1695 27.5193 28.2346C27.583 28.3182 27.6425 28.4056 27.698 28.4966C27.9999 28.8104 28.2977 29.128 28.5915 29.4497C28.6772 29.5752 28.7806 29.6865 28.9012 29.7832C28.925 29.8149 28.9489 29.8468 28.9727 29.8785C29.0039 29.9574 29.0594 30.0129 29.1395 30.0453C29.1554 30.0691 29.1711 30.0929 29.1871 30.1168C29.2331 30.2025 29.2967 30.274 29.3777 30.3312C29.4015 30.3629 29.4254 30.3948 29.4492 30.4265C29.5357 30.5449 29.631 30.6559 29.7351 30.76C29.8066 30.8156 29.8702 30.8792 29.9257 30.9507C30.0196 31.0843 30.1308 31.2034 30.2592 31.308C30.3483 31.4276 30.4398 31.5468 30.5332 31.6654C30.5451 31.7364 30.549 31.8079 30.5451 31.8798C30.523 31.9053 30.5149 31.937 30.5213 31.9751C28.1786 31.9751 25.8356 31.9751 23.4929 31.9751C23.4717 31.9606 23.4478 31.9527 23.4214 31.9513C23.3799 31.8946 23.3242 31.8548 23.2546 31.8322C23.2546 31.8162 23.2546 31.8005 23.2546 31.7845C23.1372 31.6232 23.0142 31.4643 22.8853 31.308C22.8694 31.2902 22.8496 31.2821 22.8258 31.2842C22.821 31.2475 22.805 31.2156 22.7781 31.1889C22.7059 31.1215 22.6344 31.0581 22.5637 30.9983C22.5477 30.919 22.5001 30.8713 22.4207 30.8554C22.3752 30.762 22.3116 30.6826 22.2301 30.6171C22.1749 30.4987 22.0955 30.4034 21.9919 30.3312C21.9919 30.3233 21.9919 30.3152 21.9919 30.3074C21.9676 30.2499 21.928 30.2102 21.8728 30.1882C21.8575 30.1337 21.8258 30.0939 21.7775 30.0691C21.7694 30.0491 21.7534 30.0412 21.7298 30.0453C21.7138 29.9659 21.6662 29.9183 21.5869 29.9023C21.5413 29.8089 21.4777 29.7296 21.3962 29.6641C21.3841 29.6117 21.3603 29.564 21.3248 29.5211C21.3138 29.5021 21.2981 29.4942 21.2771 29.4973C21.2233 29.4153 21.1637 29.336 21.0984 29.2591C21.0825 29.2412 21.0627 29.2331 21.0389 29.2352C21.0389 29.2035 21.0229 29.1876 20.9912 29.1876C20.9862 29.1537 20.9743 29.1218 20.9555 29.0923C20.9035 29.0496 20.8518 29.0101 20.8006 28.9731C20.7847 28.9095 20.7451 28.87 20.6815 28.854C20.6815 28.8462 20.6815 28.8381 20.6815 28.8302C20.6577 28.7671 20.6181 28.7194 20.5624 28.6872C20.5078 28.5969 20.4482 28.5095 20.3837 28.4252C20.3129 28.3542 20.2374 28.2905 20.1573 28.2346C20.1523 28.2007 20.1404 28.1688 20.1216 28.1393C20.0494 28.079 19.982 28.0154 19.9191 27.9487C19.8972 27.8869 19.8574 27.8393 19.8 27.8057C19.758 27.7876 19.7342 27.7557 19.7285 27.7104C19.6742 27.628 19.6146 27.5486 19.5498 27.4721C19.5229 27.4331 19.4871 27.4092 19.4426 27.4007C19.3949 27.3478 19.3473 27.292 19.2996 27.2339C19.2729 27.207 19.241 27.191 19.2043 27.1862C19.2043 27.1703 19.2043 27.1546 19.2043 27.1386C19.119 26.9975 19.0156 26.8706 18.8946 26.7574C18.8703 26.7 18.8307 26.6602 18.7755 26.6383C18.7707 26.6016 18.7547 26.5696 18.7278 26.543C18.6621 26.4848 18.5987 26.4293 18.5372 26.3762C18.5129 26.2883 18.4572 26.2328 18.3704 26.2094C18.3249 26.116 18.2613 26.0367 18.1798 25.9711C18.0688 25.8477 17.9695 25.7126 17.882 25.5661C17.8661 25.5482 17.8463 25.5401 17.8225 25.5423C17.8065 25.5423 17.7908 25.5423 17.7748 25.5423C17.7748 25.5263 17.7748 25.5106 17.7748 25.4946C17.77 25.458 17.7541 25.426 17.7272 25.3993C17.6769 25.3329 17.6133 25.2852 17.5366 25.2564C17.5146 25.2028 17.483 25.1551 17.4413 25.1134C17.3152 24.9438 17.1842 24.777 17.0481 24.6131C17.0322 24.5952 17.0124 24.5871 16.9886 24.5893C16.9886 24.5576 16.9726 24.5416 16.9409 24.5416C16.8151 24.3956 16.692 24.2448 16.5716 24.0889C16.5557 24.0711 16.5359 24.063 16.5121 24.0651C16.4992 24.0153 16.4792 23.9677 16.4525 23.9222C16.3586 23.8183 16.2593 23.723 16.1547 23.6363C16.1547 23.6046 16.1387 23.5886 16.107 23.5886C16.102 23.5548 16.0901 23.5229 16.0713 23.4933C15.96 23.4066 15.8647 23.3034 15.7854 23.1836C15.7439 23.1536 15.7003 23.1297 15.6544 23.1121C15.656 23.0757 15.6403 23.0518 15.6067 23.0406C15.6067 23.0247 15.6067 23.0089 15.6067 22.993C15.5769 22.9351 15.5412 22.8793 15.4995 22.8262C15.4726 22.7871 15.4368 22.7633 15.3923 22.7547C15.3606 22.7388 15.3368 22.7149 15.3208 22.6832C15.3208 22.6516 15.3048 22.6356 15.2732 22.6356C15.2682 22.6018 15.2562 22.5698 15.2374 22.5403C15.1795 22.4783 15.1121 22.4307 15.0349 22.3973C15.0211 22.3518 14.9973 22.312 14.9634 22.2782C14.9032 22.1934 14.8436 22.1062 14.7847 22.0161C14.7688 21.9983 14.749 21.9902 14.7252 21.9923C14.7021 21.9065 14.6504 21.8429 14.5703 21.8017C14.5141 21.7336 14.4624 21.6621 14.4155 21.5873C14.3871 21.5651 14.3554 21.5573 14.3202 21.5635C14.3202 21.5556 14.3202 21.5475 14.3202 21.5396C14.3202 21.492 14.2963 21.4682 14.2487 21.4682C14.2487 21.4365 14.2327 21.4205 14.201 21.4205C14.2051 21.3057 14.1496 21.258 14.0342 21.2776C14.0316 21.2628 14.0238 21.2509 14.0104 21.2418C11.8345 21.2258 9.65827 21.2258 7.48231 21.2418C7.44824 21.253 7.42036 21.2728 7.39892 21.3014C7.36318 24.8573 7.35127 28.4154 7.36318 31.9751C5.42929 31.9673 3.49944 31.9751 1.57365 31.999C1.5422 32.003 1.51432 31.9952 1.49026 31.9751C1.48621 26.6456 1.4743 21.3166 1.45452 15.9883C7.07561 15.9685 12.6984 15.9566 18.3228 15.9526C18.3523 15.9471 18.3762 15.9352 18.3943 15.9168C18.4021 15.9168 18.4102 15.9168 18.4181 15.9168C18.526 15.9314 18.6213 15.9075 18.704 15.8454C18.8319 15.8449 18.9592 15.833 19.0852 15.8096C19.1071 15.803 19.1228 15.791 19.1329 15.7739C19.2567 15.7401 19.3837 15.72 19.5141 15.7143C19.5867 15.7019 19.6422 15.6662 19.6808 15.6071C19.7604 15.5978 19.8397 15.5859 19.9191 15.5714C19.9324 15.5623 19.9403 15.5504 19.9429 15.5356C19.9541 15.502 19.9779 15.4863 20.0144 15.488C20.1409 15.4989 20.2362 15.4513 20.3003 15.345C20.3082 15.345 20.3163 15.345 20.3241 15.345C20.3982 15.3529 20.4537 15.325 20.4909 15.2616C20.5986 15.2512 20.6779 15.1995 20.7291 15.1068C20.737 15.1068 20.7451 15.1068 20.753 15.1068C20.9526 15.0343 21.1194 14.9152 21.2533 14.7494C21.2612 14.7256 21.2771 14.7096 21.3009 14.7017C21.4994 14.5509 21.6743 14.3761 21.8251 14.1776C21.9002 14.1583 21.9397 14.1106 21.9442 14.0346C21.9854 14.0199 22.0212 13.996 22.0514 13.9632C22.075 13.9043 22.1029 13.8488 22.1348 13.7964C22.1348 13.7804 22.1348 13.7647 22.1348 13.7487C22.1587 13.7409 22.1746 13.7249 22.1825 13.7011C22.2852 13.6275 22.3607 13.5322 22.4088 13.4152C22.4205 13.3844 22.4245 13.3525 22.4207 13.3199C22.4207 13.312 22.4207 13.3039 22.4207 13.2961C22.5203 13.2296 22.5758 13.1343 22.5875 13.0101C22.6066 12.9735 22.6144 12.9337 22.6113 12.891C22.653 12.8546 22.6769 12.8069 22.6828 12.7481C22.7135 12.7292 22.7414 12.7054 22.7662 12.6766C22.7865 12.582 22.8024 12.4867 22.8139 12.3907C22.8491 12.3676 22.8689 12.3359 22.8734 12.2954C22.8853 12.1846 22.8932 12.0733 22.8972 11.9618C22.8972 11.9301 22.8972 11.8982 22.8972 11.8665C22.9051 11.8665 22.9132 11.8665 22.9211 11.8665C22.9439 11.8558 22.9637 11.8398 22.9806 11.8189C23.0061 11.7336 23.0221 11.6461 23.0283 11.5568C23.0481 11.0126 23.044 10.4727 23.0164 9.93667C23.0311 9.82732 23.0033 9.73201 22.933 9.65077C22.9113 9.50853 22.8956 9.36558 22.8853 9.22191C22.8694 9.20595 22.8536 9.19022 22.8377 9.17426C22.8208 9.00224 22.7612 8.85143 22.659 8.72158C22.68 8.61437 22.6442 8.53503 22.5518 8.48333C22.5449 8.42495 22.5289 8.3692 22.5041 8.31655C22.4882 8.29868 22.4684 8.29058 22.4446 8.29272C22.4386 8.23387 22.4148 8.18622 22.3731 8.14977C22.3731 8.13381 22.3731 8.11808 22.3731 8.10212C22.3597 8.01135 22.3121 7.94773 22.2301 7.91152C22.2301 7.90365 22.2301 7.89555 22.2301 7.88769C22.2037 7.82694 22.1839 7.76332 22.1706 7.69709C22.08 7.58273 21.9807 7.47551 21.8728 7.37545C21.8587 7.36449 21.8427 7.36044 21.8251 7.36353C21.8051 7.30754 21.7734 7.25989 21.7298 7.22058C21.6345 7.07763 21.5154 6.9585 21.3724 6.8632C21.3565 6.8632 21.3407 6.8632 21.3248 6.8632C21.259 6.77338 21.1797 6.7019 21.0865 6.64877C21.0725 6.55776 21.017 6.51821 20.9197 6.52965C20.9188 6.50391 20.9109 6.48009 20.8959 6.45817C20.8416 6.43625 20.7861 6.42029 20.7291 6.41052C20.7313 6.38669 20.7232 6.36692 20.7053 6.35095C20.6374 6.31688 20.5659 6.29711 20.4909 6.29139C20.4909 6.28353 20.4909 6.27543 20.4909 6.26757C20.4802 6.24469 20.4642 6.22492 20.4432 6.208C20.3618 6.17298 20.2824 6.13319 20.205 6.08888C20.1516 6.06553 20.0961 6.05361 20.0382 6.05314C20.0149 6.01049 19.9829 5.97475 19.9429 5.94592C19.8705 5.93735 19.799 5.92543 19.7285 5.91018C19.7125 5.91018 19.6968 5.91018 19.6808 5.91018C19.6606 5.87516 19.6289 5.85539 19.5855 5.85062C19.4981 5.83752 19.4107 5.8256 19.3235 5.81488C19.3235 5.80702 19.3235 5.79892 19.3235 5.79106C19.2594 5.72816 19.1798 5.70433 19.0852 5.71958C19.0376 5.71958 18.9899 5.71958 18.9422 5.71958C18.9003 5.70028 18.8605 5.67646 18.8231 5.64811C18.76 5.60975 18.6885 5.58997 18.6087 5.58854C18.3707 5.57663 18.1324 5.57258 17.8939 5.57663C17.8913 5.56186 17.8835 5.54995 17.8701 5.54089C12.438 5.52898 7.0058 5.52493 1.57365 5.52898C1.54196 5.52898 1.51004 5.52898 1.47835 5.52898C1.48621 3.7142 1.47835 1.90347 1.45452 0.0967939C1.45047 0.0652968 1.45833 0.0374926 1.47835 0.0134051C3.16208 0.00149244 4.84557 -0.0024864 6.5293 0.00149244Z"
        fill="#FEFEFE" />
</svg>