<svg width="32" height="32" viewBox="0 0 32 32" fill="none" xmlns="http://www.w3.org/2000/svg">
    <g clip-path="url(#clip0_4716_45)">
        <path fill-rule="evenodd" clip-rule="evenodd"
            d="M-0.03125 -0.03125C10.6354 -0.03125 21.3021 -0.03125 31.9688 -0.03125C31.9688 10.6354 31.9688 21.3021 31.9688 31.9688C21.3021 31.9688 10.6354 31.9688 -0.03125 31.9688C-0.03125 21.3021 -0.03125 10.6354 -0.03125 -0.03125Z"
            fill="#00AFA6" />
        <path fill-rule="evenodd" clip-rule="evenodd"
            d="M24.2812 28.4688C22.2294 28.5311 20.1669 28.552 18.0938 28.5312C16.4061 25.5914 14.7394 22.6331 13.0938 19.6562C11.2609 19.5938 9.42756 19.5729 7.59375 19.5938C7.59375 18.0312 7.59375 16.4688 7.59375 14.9063C10.0938 14.9167 12.5938 14.9063 15.0938 14.875C16.3176 14.8411 17.3072 14.3516 18.0625 13.4063C18.591 12.487 18.7369 11.5078 18.5 10.4688C17.9158 8.99056 16.8221 8.20931 15.2188 8.125C12.6772 8.09375 10.1355 8.08331 7.59375 8.09375C7.59375 6.51044 7.59375 4.92708 7.59375 3.34375C10.4272 3.33333 13.2605 3.34375 16.0938 3.375C18.9657 3.44097 21.2469 4.61805 22.9375 6.90625C24.3282 9.282 24.599 11.782 23.75 14.4063C22.7969 16.7969 21.0781 18.3281 18.5938 19C20.5054 22.1503 22.4013 25.3065 24.2812 28.4688Z"
            fill="#FEFEFE" />
        <path fill-rule="evenodd" clip-rule="evenodd"
            d="M24.2812 28.4688C24.3152 28.4725 24.336 28.4933 24.3438 28.5312C22.2501 28.6144 20.1668 28.6144 18.0938 28.5312C20.1669 28.552 22.2294 28.5311 24.2812 28.4688Z"
            fill="#BCDCD9" />
    </g>
    <defs>
        <clipPath id="clip0_4716_45">
            <rect width="32" height="32" fill="white" />
        </clipPath>
    </defs>
</svg>