<svg width="32" height="32" viewBox="0 0 33 33" fill="none" xmlns="http://www.w3.org/2000/svg">
    <path fill-rule="evenodd" clip-rule="evenodd"
        d="M19.0944 31.6329C17.9741 31.8958 17.2079 31.4763 16.7956 30.3741C16.7924 26.0423 16.6788 21.7263 16.4551 17.4262C16.0861 16.7968 15.6037 16.2873 15.0078 15.8976C11.5623 13.7491 8.1001 11.6511 4.62102 9.60346C3.80937 9.11951 3.58233 8.43014 3.93992 7.53538C7.59507 5.32249 11.2276 3.07459 14.8375 0.791667C16.475 0.274613 18.0075 0.514383 19.4349 1.511C22.7324 3.55154 26.0244 5.58963 29.3108 7.6253C30.0776 8.31598 30.5601 9.18516 30.7582 10.2329C31.2828 13.4821 31.8503 16.7191 32.4609 19.9438C32.7613 21.7981 32.222 23.3266 30.8433 24.5295C26.9169 26.9019 23.0006 29.2697 19.0944 31.6329Z"
        fill="#F45EA5" />
    <path fill-rule="evenodd" clip-rule="evenodd"
        d="M18.5835 5.3774C19.1539 5.34773 19.7214 5.37771 20.2862 5.46732C20.3814 5.59764 20.4381 5.74752 20.4565 5.9169C19.725 8.06061 18.9021 10.1587 17.9875 12.211C17.8237 12.7427 17.54 13.1623 17.1361 13.4699C14.4771 11.866 11.8094 10.2475 9.13324 8.61439C8.97775 8.1015 9.11964 7.71188 9.55893 7.44548C12.6171 6.87888 15.6253 6.18953 18.5835 5.3774Z"
        fill="#FEFCFD" />
    <path fill-rule="evenodd" clip-rule="evenodd"
        d="M3.93994 7.5354C3.58235 8.43016 3.80939 9.11953 4.62104 9.60347C8.10012 11.6511 11.5624 13.7491 15.0078 15.8976C15.6037 16.2873 16.0861 16.7968 16.4551 17.4262C16.6789 21.7263 16.7924 26.0423 16.7957 30.3741C17.2079 31.4763 17.9741 31.8959 19.0944 31.6329C17.8497 32.553 16.4875 32.7626 15.0078 32.2624C10.7177 29.7278 6.46084 27.1501 2.2372 24.5296C0.864138 23.3364 0.324947 21.8078 0.61959 19.9438C1.29105 16.4794 1.9154 13.0025 2.49261 9.51356C2.81375 8.71177 3.29619 8.05238 3.93994 7.5354Z"
        fill="#DA4691" />
</svg>