<svg width="32" height="32" viewBox="0 0 32 32" fill="none" xmlns="http://www.w3.org/2000/svg">
<path fill-rule="evenodd" clip-rule="evenodd" d="M20.654 1.77954C28.2196 1.4923 31.8732 5.10387 31.6147 12.6142C31.203 14.2792 30.4052 15.7071 29.221 16.8977C28.6621 15.4569 27.6542 14.491 26.1973 14C21.4099 13.916 16.6225 13.832 11.8351 13.748C10.9204 12.9796 10.6264 12.0137 10.9533 10.8504C12.9214 8.21124 15.0631 5.73356 17.3784 3.41734C18.4234 2.72692 19.5151 2.18101 20.654 1.77954Z" fill="#FF5677"/>
<path fill-rule="evenodd" clip-rule="evenodd" d="M2.51419 14.8809C3.23056 16.2249 4.32244 17.1907 5.78978 17.7785C10.4932 17.8624 15.1966 17.9466 19.9 18.0305C21.0903 18.644 21.4683 19.6101 21.0339 20.9281C19.4382 22.9439 17.8422 24.9596 16.2465 26.9753C12.849 30.1126 9.02753 30.7425 4.78191 28.8651C1.27481 26.5805 -0.195025 23.347 0.372458 19.1643C0.822751 17.5918 1.53665 16.1639 2.51419 14.8809Z" fill="#CCCCCF"/>
</svg>
