<svg width="32" height="32" viewBox="0 0 32 32" fill="none" xmlns="http://www.w3.org/2000/svg">
    <g clip-path="url(#clip0_3880_1541)">
        <path fill-rule="evenodd" clip-rule="evenodd"
            d="M-0.0712891 -0.0712891C10.5954 -0.0712891 21.262 -0.0712891 31.9287 -0.0712891C31.9287 10.5954 31.9287 21.262 31.9287 31.9287C21.262 31.9287 10.5954 31.9287 -0.0712891 31.9287C-0.0712891 21.262 -0.0712891 10.5954 -0.0712891 -0.0712891Z"
            fill="#FEFEFD" />
        <path fill-rule="evenodd" clip-rule="evenodd"
            d="M23.2532 2.91593C23.2786 3.08586 23.3259 3.25179 23.3955 3.41371C22.9011 4.2629 22.3797 5.09254 21.831 5.90259C18.9634 5.99741 16.119 6.09222 13.2977 6.18704C10.911 6.56215 9.32291 7.88957 8.53325 10.1693C8.20045 12.7734 9.12489 14.7646 11.3066 16.1426C11.0728 16.173 10.8594 16.1255 10.6666 16.0004C10.5567 16.1922 10.3908 16.3107 10.1688 16.3559C10.331 16.4613 10.331 16.5799 10.1688 16.7115C10.2435 16.8099 10.3383 16.881 10.4532 16.9248C9.88676 17.079 9.41269 17.3872 9.03102 17.8493C9.06079 17.9326 9.10819 18.0037 9.17325 18.0626C9.08316 18.5545 8.98836 19.0523 8.8888 19.5559C8.80546 19.5857 8.73435 19.6332 8.67547 19.6982C8.37579 19.1517 8.11504 19.1992 7.89325 19.8404C7.90864 19.9743 7.95604 20.0928 8.03547 20.1959C7.49373 20.8089 6.85373 21.1645 6.11547 21.2626C5.82249 21.135 5.60916 20.8506 5.47547 20.4093C5.35708 21.9241 5.28597 23.4412 5.26214 24.9604C5.21473 20.4093 5.16732 15.8582 5.11991 11.307C5.0488 16.3794 5.02509 21.452 5.0488 26.5248C4.88314 20.1489 4.85943 13.7488 4.97769 7.32482C5.93759 4.58054 7.85759 2.99239 10.7377 2.56037C14.5303 2.46555 18.3228 2.46555 22.1155 2.56037C22.5126 2.6375 22.8917 2.75601 23.2532 2.91593Z"
            fill="#0FDC05" />
        <path fill-rule="evenodd" clip-rule="evenodd"
            d="M13.2978 6.18662C16.0478 6.16293 18.7975 6.18662 21.5467 6.25773C20.9112 7.17401 20.295 8.09846 19.6978 9.03106C19.5856 9.07128 19.4907 9.1424 19.4134 9.2444C17.2556 9.26839 15.1222 9.3395 13.0134 9.45773C11.6765 10.0485 11.2735 11.044 11.8045 12.4444C12.118 12.8057 12.4736 13.1138 12.8711 13.3688C14.2451 13.4399 15.62 13.4636 16.9956 13.44C19.5566 13.0213 21.8321 13.5901 23.8222 15.1466C26.1856 18.2943 25.8062 21.0676 22.6845 23.4666C22.3818 23.5598 22.0974 23.6784 21.8311 23.8222C21.3571 23.9644 20.8829 24.1066 20.4089 24.2488C16.8289 24.2959 13.2733 24.2486 9.74224 24.1066C9.74224 24.0118 9.74224 23.917 9.74224 23.8222C10.406 22.9215 11.0696 22.0206 11.7334 21.12C14.7446 21.167 17.7313 21.1195 20.6934 20.9777C21.9156 20.4235 22.3659 19.4753 22.0445 18.1333C21.7801 17.4896 21.3297 17.0393 20.6934 16.7822C18.608 16.7111 16.522 16.6873 14.4356 16.7111C13.3483 16.7472 12.3053 16.5576 11.3067 16.1422C9.125 14.7642 8.20056 12.773 8.53336 10.1688C9.32302 7.88915 10.9112 6.56173 13.2978 6.18662Z"
            fill="#FCFDFC" />
        <path fill-rule="evenodd" clip-rule="evenodd"
            d="M23.2534 2.91602C25.3993 4.42657 26.0868 6.4651 25.3156 9.03157C25.0583 9.78597 24.6554 10.4497 24.1067 11.0227C24.5572 11.2716 24.9838 11.556 25.3867 11.876C24.9594 11.9111 24.6038 11.7689 24.3201 11.4493C24.2252 11.5442 24.2252 11.639 24.3201 11.7338C24.5456 11.8584 24.759 12.0006 24.9601 12.1605C24.7401 12.1188 24.503 12.1899 24.249 12.3738C24.4814 12.444 24.7184 12.4677 24.9601 12.4449C24.9601 12.8242 24.9601 13.2034 24.9601 13.5827C23.6528 13.3448 23.3683 13.7478 24.1067 14.7916C23.9281 14.8509 23.8332 14.9693 23.8223 15.1471C21.8322 13.5906 19.5566 13.0218 16.9956 13.4405C16.9551 13.1862 17.0025 12.9491 17.1379 12.7293C17.9278 11.6805 18.6389 10.5901 19.2712 9.45824C19.5556 9.45824 19.6979 9.31602 19.6979 9.03157C20.295 8.09896 20.9113 7.17452 21.5467 6.25824C18.7976 6.18713 16.0479 6.16343 13.2979 6.18713C16.1191 6.09231 18.9636 5.9975 21.8312 5.90268C22.3799 5.09263 22.9013 4.26299 23.3956 3.41379C23.3261 3.25187 23.2787 3.08594 23.2534 2.91602Z"
            fill="#12CF27" />
        <path fill-rule="evenodd" clip-rule="evenodd"
            d="M19.6976 9.03125C19.6976 9.31569 19.5554 9.45792 19.271 9.45792C17.185 9.45792 15.0992 9.45792 13.0132 9.45792C15.1221 9.33969 17.2554 9.26858 19.4132 9.24458C19.4906 9.14258 19.5854 9.07147 19.6976 9.03125Z"
            fill="#7FE670" />
        <path fill-rule="evenodd" clip-rule="evenodd"
            d="M13.0134 9.45801C15.0994 9.45801 17.1852 9.45801 19.2712 9.45801C18.6389 10.5899 17.9278 11.6802 17.1379 12.7291C17.0025 12.9489 16.9551 13.1859 16.9956 13.4402C15.6201 13.4639 14.2452 13.4402 12.8712 13.3691C12.4737 13.1141 12.1181 12.8059 11.8045 12.4447C11.2736 11.0443 11.6765 10.0488 13.0134 9.45801Z"
            fill="#25E107" />
        <path fill-rule="evenodd" clip-rule="evenodd"
            d="M25.3867 11.8759C29.3782 14.6787 30.4922 18.3764 28.7289 22.9692C27.3481 25.3776 25.3332 26.9894 22.6845 27.8048C22.2308 27.8132 21.7804 27.8607 21.3334 27.947C19.8898 27.8409 18.444 27.7698 16.9956 27.7337C18.1334 27.6863 19.2712 27.6388 20.4089 27.5914C19.6519 27.5205 18.8934 27.4967 18.1334 27.5203C18.1334 27.0463 18.1334 26.5721 18.1334 26.0981C18.5127 26.0981 18.8919 26.0981 19.2712 26.0981C19.2712 25.6714 19.2712 25.2448 19.2712 24.8181C20.2718 24.6883 21.2674 24.6883 22.2578 24.8181C22.5191 24.2603 22.3531 24.1181 21.7601 24.3914C21.5858 24.34 21.42 24.2688 21.2623 24.1781C21.5378 24.1608 21.7273 24.0423 21.8312 23.8226C22.0974 23.6788 22.3818 23.5602 22.6845 23.467C25.8063 21.068 26.1856 18.2947 23.8223 15.147C23.8332 14.9692 23.9281 14.8507 24.1067 14.7914C23.3683 13.7477 23.6527 13.3447 24.9601 13.5826C24.9601 13.2033 24.9601 12.824 24.9601 12.4448C24.7184 12.4676 24.4813 12.4438 24.2489 12.3737C24.5029 12.1898 24.74 12.1187 24.9601 12.1603C24.7589 12.0005 24.5456 11.8582 24.3201 11.7337C24.2252 11.6388 24.2252 11.544 24.3201 11.4492C24.6038 11.7688 24.9593 11.911 25.3867 11.8759Z"
            fill="#0CDB0C" />
        <path fill-rule="evenodd" clip-rule="evenodd"
            d="M14.4354 16.7111C16.5218 16.6873 18.6077 16.7111 20.6931 16.7822C21.3294 17.0393 21.7799 17.4896 22.0443 18.1333C22.3657 19.4753 21.9154 20.4235 20.6931 20.9777C18.3223 21.0015 15.9519 20.9777 13.582 20.9066C14.7322 20.8577 15.87 20.7155 16.9954 20.4799C17.0989 19.7088 17.0989 18.9266 16.9954 18.1333C17.3747 18.1333 17.7538 18.1333 18.1331 18.1333C18.1331 17.7066 18.1331 17.2799 18.1331 16.8533C16.9954 16.8533 15.8576 16.8533 14.7198 16.8533C14.7426 17.0949 14.719 17.332 14.6487 17.5644C14.6188 17.3428 14.5477 17.1532 14.4354 16.9955C14.4354 16.9006 14.4354 16.8059 14.4354 16.7111Z"
            fill="#05D21C" />
        <path fill-rule="evenodd" clip-rule="evenodd"
            d="M11.3067 16.1422C12.3053 16.5576 13.3483 16.7472 14.4356 16.7111C14.4356 16.8059 14.4356 16.9007 14.4356 16.9955C13.4149 18.2989 12.5142 19.6737 11.7334 21.12C11.0697 22.0207 10.406 22.9215 9.74226 23.8222C8.99679 24.956 8.28568 26.1411 7.60893 27.3778C7.27758 27.8075 6.85091 28.0446 6.32893 28.0889C5.51805 27.893 5.09138 27.3715 5.04893 26.5244C5.02522 21.4516 5.04893 16.379 5.12004 11.3066C5.16744 15.8578 5.21486 20.4089 5.26226 24.96C5.2861 23.4408 5.35721 21.9237 5.4756 20.4089C5.60929 20.8502 5.82262 21.1346 6.1156 21.2622C6.85386 21.1641 7.49386 20.8085 8.0356 20.1955C7.95617 20.0924 7.90876 19.9739 7.89337 19.84C8.11517 19.1988 8.37592 19.1513 8.6756 19.6978C8.73448 19.6328 8.80559 19.5853 8.88893 19.5555C8.98849 19.0519 9.08329 18.5541 9.17337 18.0622C9.10832 18.0033 9.06092 17.9322 9.03115 17.8489C9.41282 17.3868 9.88689 17.0786 10.4534 16.9244C10.3384 16.8806 10.2436 16.8095 10.1689 16.7111C10.3311 16.5795 10.3311 16.4609 10.1689 16.3555C10.3909 16.3103 10.5569 16.1918 10.6667 16C10.8596 16.1251 11.0729 16.1726 11.3067 16.1422Z"
            fill="#2CE205" />
        <path fill-rule="evenodd" clip-rule="evenodd"
            d="M20.6934 20.978C17.7313 21.1198 14.7447 21.1673 11.7334 21.1202C12.5142 19.6739 13.415 18.2991 14.4356 16.9957C14.548 17.1535 14.6191 17.343 14.649 17.5646C14.7192 17.3322 14.7428 17.0952 14.7201 16.8535C15.8578 16.8535 16.9956 16.8535 18.1334 16.8535C18.1334 17.2802 18.1334 17.7068 18.1334 18.1335C17.7541 18.1335 17.3749 18.1335 16.9956 18.1335C17.0992 18.9268 17.0992 19.7091 16.9956 20.4802C15.8702 20.7157 14.7324 20.8579 13.5823 20.9068C15.9521 20.978 18.3226 21.0017 20.6934 20.978Z"
            fill="#02CD24" />
        <path fill-rule="evenodd" clip-rule="evenodd"
            d="M9.74232 24.1064C13.2734 24.2484 16.829 24.2957 20.409 24.2487C17.0201 24.3906 13.6069 24.438 10.169 24.3909C9.95881 24.4282 9.76917 24.3808 9.6001 24.2487C9.61768 24.1623 9.66508 24.115 9.74232 24.1064Z"
            fill="#B1E5B0" />
        <path fill-rule="evenodd" clip-rule="evenodd"
            d="M21.8313 23.8223C21.7275 24.042 21.5379 24.1605 21.2624 24.1778C21.4202 24.2686 21.586 24.3397 21.7602 24.3912C22.3533 24.1178 22.5193 24.26 22.258 24.8178C21.2676 24.688 20.272 24.688 19.2713 24.8178C19.2713 25.2445 19.2713 25.6712 19.2713 26.0978C18.892 26.0978 18.5129 26.0978 18.1336 26.0978C18.1336 26.5718 18.1336 27.046 18.1336 27.52C18.8936 27.4964 19.6521 27.5202 20.4091 27.5912C19.2713 27.6385 18.1336 27.686 16.9958 27.7334C18.4442 27.7695 19.89 27.8406 21.3336 27.9467C21.7806 27.8604 22.231 27.8129 22.6847 27.8045C22.1493 27.9939 21.5805 28.1124 20.978 28.16C17.7547 28.2312 14.5309 28.2549 11.3069 28.2312C12.4231 28.1131 13.5609 27.9946 14.7202 27.8756C8.65207 27.7807 8.65207 27.686 14.7202 27.5912C12.4447 27.5438 10.1691 27.4963 7.89355 27.4489C9.03035 27.3778 10.1681 27.3542 11.3069 27.3778C11.3069 26.9512 11.3069 26.5245 11.3069 26.0978C11.6862 26.0978 12.0654 26.0978 12.4447 26.0978C12.4447 25.7185 12.4447 25.3394 12.4447 24.96C13.1979 24.8175 14.715 24.7464 16.9958 24.7467C14.7 24.5998 12.4245 24.4813 10.1691 24.3912C13.607 24.4382 17.0202 24.3909 20.4091 24.2489C20.8831 24.1067 21.3573 23.9645 21.8313 23.8223Z"
            fill="#03D514" />
        <path fill-rule="evenodd" clip-rule="evenodd"
            d="M9.74243 23.8223C9.74243 23.9171 9.74243 24.0118 9.74243 24.1067C9.66519 24.1152 9.61779 24.1626 9.60021 24.2489C9.76929 24.3811 9.95893 24.4284 10.1691 24.3912C12.4245 24.4813 14.7 24.5998 16.9958 24.7467C14.715 24.7464 13.1979 24.8175 12.4447 24.96C12.4447 25.3393 12.4447 25.7185 12.4447 26.0978C12.0654 26.0978 11.6861 26.0978 11.3069 26.0978C11.3069 26.5245 11.3069 26.9512 11.3069 27.3778C10.1681 27.3542 9.03034 27.3778 7.89355 27.4489C10.1691 27.4963 12.4447 27.5438 14.7202 27.5912C8.65206 27.686 8.65206 27.7807 14.7202 27.8756C13.5609 27.9946 12.4231 28.1131 11.3069 28.2312C9.62221 28.2778 7.96295 28.2304 6.3291 28.0889C6.85109 28.0447 7.27775 27.8076 7.6091 27.3778C8.28585 26.1412 8.99696 24.9561 9.74243 23.8223Z"
            fill="#04CE23" />
    </g>
    <defs>
        <clipPath id="clip0_3880_1541">
            <rect width="32" height="32" fill="white" />
        </clipPath>
    </defs>
</svg>