<svg width="32" height="32" viewBox="0 0 32 32" fill="none" xmlns="http://www.w3.org/2000/svg">
    <g clip-path="url(#clip0_3879_1532)">
        <path fill-rule="evenodd" clip-rule="evenodd"
            d="M-0.043457 -0.0429688C10.6232 -0.0429688 21.2899 -0.0429688 31.9565 -0.0429688C31.9565 10.6237 31.9565 21.2904 31.9565 31.957C21.2899 31.957 10.6232 31.957 -0.043457 31.957C-0.043457 21.2904 -0.043457 10.6237 -0.043457 -0.0429688Z"
            fill="#FEFEFE" />
        <path fill-rule="evenodd" clip-rule="evenodd"
            d="M9.03801 5.66459C13.6219 5.65017 18.2057 5.66459 22.7894 5.70783C24.713 6.0413 25.9094 7.1512 26.3786 9.03756C26.4362 13.6213 26.4362 18.2051 26.3786 22.7889C26.0471 24.8501 24.8506 26.0466 22.7894 26.3781C18.2056 26.4358 13.6218 26.4358 9.03801 26.3781C7.15166 25.9089 6.04175 24.7125 5.70828 22.7889C5.65062 18.2051 5.65062 13.6213 5.70828 9.03756C6.00465 7.76558 6.71096 6.79981 7.8272 6.14026C8.23012 5.95363 8.63372 5.79508 9.03801 5.66459Z"
            fill="#4F6387" />
        <path fill-rule="evenodd" clip-rule="evenodd"
            d="M9.38366 7.48099C13.7658 7.46658 18.1477 7.48099 22.5296 7.52424C23.5943 7.72416 24.2718 8.34398 24.562 9.3837C24.6197 13.7657 24.6197 18.1476 24.562 22.5296C24.3458 23.6684 23.6684 24.3459 22.5296 24.5621C18.1476 24.6198 13.7657 24.6198 9.38366 24.5621C8.34395 24.2718 7.72412 23.5943 7.5242 22.5296C7.46654 18.1476 7.46654 13.7657 7.5242 9.3837C7.81394 8.41658 8.43375 7.78235 9.38366 7.48099Z"
            fill="#FCFDFD" />
        <path fill-rule="evenodd" clip-rule="evenodd"
            d="M20.454 8.77877C21.2395 8.74296 22.0179 8.7862 22.7891 8.90849C22.9802 9.07048 23.1387 9.2579 23.2648 9.47066C23.3501 13.9154 23.3213 18.355 23.1783 22.7896C23.0087 23.0175 22.7925 23.1761 22.5297 23.2653C18.1766 23.3229 13.8233 23.3229 9.47022 23.2653C9.16017 23.0995 8.94395 22.8545 8.82157 22.5301C8.77833 21.8388 8.76397 21.1469 8.77833 20.4544C13.6955 20.2815 17.2558 18.0039 19.4594 13.622C20.1711 12.0849 20.5026 10.4705 20.454 8.77877Z"
            fill="#4787CE" />
    </g>
    <defs>
        <clipPath id="clip0_3879_1532">
            <rect width="32" height="32" fill="white" />
        </clipPath>
    </defs>
</svg>