<svg width="32" height="32" viewBox="0 0 32 32" fill="none" xmlns="http://www.w3.org/2000/svg">
    <mask id="mask0_2760_93" style="mask-type:luminance" maskUnits="userSpaceOnUse" x="9" y="0"
        width="18" height="18">
        <path
            d="M20.0395 1.12655L10.4634 10.6165C9.7647 11.3434 9.38052 12.312 9.39287 13.3157C9.40522 14.3193 9.81313 15.2784 10.5295 15.9882C11.2458 16.6979 12.2139 17.102 13.2269 17.1143C14.2399 17.1265 15.2176 16.7459 15.9512 16.0537L25.5297 6.56601C25.8902 6.20885 26.1761 5.78484 26.3712 5.31819C26.5663 4.85153 26.6667 4.35138 26.6667 3.84628C26.6667 3.34118 26.5663 2.84102 26.3712 2.37437C26.1761 1.90772 25.8902 1.48371 25.5297 1.12655C25.1692 0.769389 24.7412 0.486074 24.2702 0.292781C23.7992 0.0994869 23.2944 0 22.7846 0C21.755 0 20.7675 0.405232 20.0395 1.12655Z"
            fill="white" />
    </mask>
    <g mask="url(#mask0_2760_93)">
        <path d="M27.0442 0H8.94629V17.5538H27.0442V0Z" fill="url(#paint0_linear_2760_93)" />
    </g>
    <mask id="mask1_2760_93" style="mask-type:luminance" maskUnits="userSpaceOnUse" x="5" y="14"
        width="18" height="18">
        <path
            d="M16.0851 15.9115L6.50667 25.3991C6.13851 25.7544 5.84523 26.1787 5.64385 26.6472C5.44247 27.1157 5.33701 27.6191 5.33358 28.1283C5.33015 28.6375 5.42883 29.1423 5.62388 29.6135C5.81893 30.0846 6.10647 30.5126 6.46982 30.8728C6.83316 31.2329 7.26509 31.518 7.74052 31.7114C8.21595 31.9049 8.72542 32.0029 9.23937 31.9997C9.75333 31.9965 10.2615 31.8922 10.7345 31.6929C11.2074 31.4936 11.6357 31.2032 11.9945 30.8386L21.573 21.3486C22.2717 20.6218 22.6559 19.6531 22.6435 18.6495C22.6311 17.6458 22.2232 16.6867 21.5069 15.977C20.7905 15.2672 19.8225 14.8631 18.8095 14.8509C17.7965 14.8386 16.8188 15.2193 16.0851 15.9115Z"
            fill="white" />
    </mask>
    <g mask="url(#mask1_2760_93)">
        <path d="M23.0901 14.7852H4.99219V32.3389H23.0901V14.7852Z"
            fill="url(#paint1_linear_2760_93)" />
    </g>
    <path
        d="M10.4636 10.6166C9.7415 11.3298 9.16859 12.1772 8.77768 13.1103C8.38677 14.0433 8.18555 15.0435 8.18555 16.0537C8.18555 17.0639 8.38677 18.0642 8.77768 18.9972C9.16859 19.9302 9.7415 20.7776 10.4636 21.4909L21.4416 10.6166C19.9857 9.17444 18.0113 8.36426 15.9526 8.36426C13.8939 8.36426 11.9194 9.17444 10.4636 10.6166Z"
        fill="#ED3D07" />
    <path
        d="M10.4634 21.4905C11.9188 22.9328 13.893 23.7432 15.9516 23.7434C18.0101 23.7437 19.9845 22.9337 21.4402 21.4916C22.896 20.0496 23.714 18.0937 23.7142 16.0542C23.7144 14.0146 22.8969 12.0585 21.4414 10.6162L10.4634 21.4905Z"
        fill="#ED3D07" />
    <defs>
        <linearGradient id="paint0_linear_2760_93" x1="9.41866" y1="9.2616" x2="26.7581" y2="9.2616"
            gradientUnits="userSpaceOnUse">
            <stop stop-color="#FFD4A8" />
            <stop offset="0.45" stop-color="#FD5C12" />
            <stop offset="0.83" stop-color="#C32809" />
            <stop offset="1" stop-color="#ED3D07" />
        </linearGradient>
        <linearGradient id="paint1_linear_2760_93" x1="5.49349" y1="24.128" x2="22.8329" y2="24.128"
            gradientUnits="userSpaceOnUse">
            <stop stop-color="#FFD4A8" />
            <stop offset="0.45" stop-color="#FD5C12" />
            <stop offset="0.83" stop-color="#C32809" />
            <stop offset="1" stop-color="#ED3D07" />
        </linearGradient>
    </defs>
</svg>