<svg width="32" height="32" viewBox="0 0 32 32" fill="none" xmlns="http://www.w3.org/2000/svg">
<path fill-rule="evenodd" clip-rule="evenodd" d="M20.238 7.07506C20.4296 7.15316 20.5059 7.30555 20.4666 7.5322C20.6778 8.5981 21.1349 9.58856 21.838 10.5036C22.0504 10.7754 22.1265 11.0801 22.0666 11.4179C22.3352 11.3679 22.5637 11.444 22.7523 11.6465C22.9233 12.0653 23.1519 12.4463 23.438 12.7893C23.3903 12.9233 23.3139 13.0376 23.2095 13.1322C23.5429 13.051 23.8479 13.089 24.1237 13.2465C25.569 14.9159 26.788 16.7445 27.7809 18.7322C27.7439 19.1956 27.782 19.6527 27.8952 20.1036C28.1813 20.4467 28.4099 20.8277 28.5809 21.2465C28.657 21.094 28.7333 20.9418 28.8095 20.7893C28.8885 21.182 29.0028 21.5631 29.1523 21.9322C29.1045 22.0661 29.0282 22.1804 28.9237 22.2751C29.1807 22.332 29.4092 22.4463 29.6095 22.6179C29.7279 23.1665 29.9946 23.6236 30.4095 23.9893C30.6648 24.0433 30.9315 24.0433 31.2095 23.9893C31.3619 23.9893 31.438 24.0655 31.438 24.2179C31.438 24.8275 31.438 25.4369 31.438 26.0465C30.761 25.9589 30.5324 26.1875 30.7523 26.7322C30.2593 27.2629 29.726 27.7583 29.1523 28.2179C27.9327 28.1807 26.7137 28.0664 25.4952 27.8751C25.4191 27.8751 25.3427 27.8751 25.2666 27.8751C25.2863 27.6474 25.2099 27.457 25.038 27.3036C23.4783 26.5953 21.8401 26.1761 20.1237 26.0465C17.502 26.0956 14.8735 26.1338 12.238 26.1608C8.99304 27.089 5.67875 27.6604 2.29517 27.8751C1.99206 27.8168 1.76349 27.6643 1.60945 27.4179C1.56481 27.0277 1.56481 26.6467 1.60945 26.2751C1.3783 26.4664 1.11165 26.5425 0.809452 26.5036C0.751943 25.2138 0.980514 23.9948 1.49517 22.8465C2.00054 22.7397 2.45768 22.5112 2.86659 22.1608C2.27789 21.8447 2.35407 21.654 3.09517 21.5893C3.27896 21.1845 3.54563 20.8417 3.89517 20.5608C4.59583 19.0834 5.35773 17.6358 6.18088 16.2179C6.11795 17.1284 6.34653 17.1284 6.86659 16.2179C6.93912 16.6295 7.09151 16.7057 7.32374 16.4465C7.40282 16.0538 7.51711 15.6728 7.66659 15.3036C7.54653 15.1454 7.39416 15.0311 7.20945 14.9608C7.43309 14.0127 7.96641 13.2889 8.80945 12.7893C9.20467 12.3449 9.28086 11.8878 9.03802 11.4179C9.17914 11.4432 9.29343 11.5194 9.38088 11.6465C9.73971 11.3919 10.0445 11.0871 10.2952 10.7322C10.3713 10.8846 10.4476 11.037 10.5237 11.1893C10.5999 10.8846 10.6761 10.5798 10.7523 10.2751C10.8248 10.6867 10.9772 10.7629 11.2095 10.5036C11.6163 9.63938 11.883 8.72509 12.0095 7.76077C12.238 7.76077 12.4666 7.76077 12.6952 7.76077C12.6888 7.28479 12.8412 6.86575 13.1523 6.50363C13.7618 6.27506 14.3713 6.04648 14.9809 5.81791C14.9047 5.74173 14.8285 5.66552 14.7523 5.58934C15.2828 5.10482 15.4352 4.53339 15.2095 3.87506C15.4761 3.79887 15.7428 3.72267 16.0095 3.64648C16.5212 3.78159 17.0165 3.93398 17.4952 4.10363C17.4718 4.84562 17.2433 5.49323 16.8095 6.04648C16.8856 6.23695 16.9618 6.42744 17.038 6.61791C17.2275 5.51652 17.837 5.21176 18.8666 5.70363C19.0917 6.06895 19.1297 6.44991 18.9809 6.84648C17.2665 7.49396 17.3807 7.79871 19.3237 7.76077C19.3237 7.5322 19.3237 7.30363 19.3237 7.07506C19.6284 7.07506 19.9333 7.07506 20.238 7.07506Z" fill="#15023A"/>
<path fill-rule="evenodd" clip-rule="evenodd" d="M20.2391 7.07411C19.9344 7.07411 19.6295 7.07411 19.3248 7.07411C19.3248 7.30269 19.3248 7.53126 19.3248 7.75983C17.3818 7.79777 17.2675 7.49302 18.9819 6.84554C19.1307 6.44897 19.0928 6.06801 18.8676 5.70269C17.8381 5.21082 17.2285 5.51558 17.0391 6.61697C16.9629 6.4265 16.8867 6.23601 16.8105 6.04554C17.2443 5.49229 17.4729 4.84468 17.4962 4.10269C17.0175 3.93304 16.5223 3.78065 16.0105 3.64554C15.7438 3.72173 15.4772 3.79793 15.2105 3.87412C15.4363 4.53245 15.2839 5.10388 14.7533 5.5884C14.8295 5.66458 14.9057 5.74079 14.9819 5.81697C14.3724 6.04554 13.7629 6.27412 13.1533 6.50269C12.8422 6.86481 12.6898 7.28385 12.6962 7.75983C12.4676 7.75983 12.2391 7.75983 12.0105 7.75983C11.884 8.72415 11.6174 9.63843 11.2105 10.5027C10.9783 10.7619 10.8259 10.6857 10.7533 10.2741C10.6772 10.5789 10.601 10.8836 10.5248 11.1884C10.4486 11.036 10.3724 10.8836 10.2962 10.7313C10.0455 11.0861 9.74075 11.3909 9.38192 11.6455C9.29447 11.5185 9.18018 11.4423 9.03906 11.417C10.3004 9.04849 11.7099 6.76278 13.2676 4.55983C14.7309 2.96193 16.369 2.77146 18.1819 3.9884C18.9184 4.98996 19.6041 6.01853 20.2391 7.07411Z" fill="#170A34"/>
<path fill-rule="evenodd" clip-rule="evenodd" d="M20.4688 7.53125C21.8665 9.31226 23.0854 11.217 24.1259 13.2455C23.85 13.0881 23.5451 13.05 23.2116 13.1313C23.3161 13.0366 23.3924 12.9223 23.4402 12.7884C23.154 12.4453 22.9254 12.0644 22.7545 11.6455C22.5659 11.4431 22.3373 11.3669 22.0688 11.417C22.1286 11.0792 22.0525 10.7744 21.8402 10.5027C21.1371 9.58762 20.68 8.59715 20.4688 7.53125Z" fill="#1B1232"/>
<path fill-rule="evenodd" clip-rule="evenodd" d="M27.7832 18.7305C29.0143 20.4201 30.1572 22.1723 31.2118 23.9876C30.9338 24.0416 30.6671 24.0416 30.4118 23.9876C29.9969 23.6219 29.7302 23.1648 29.6118 22.6162C29.4116 22.4445 29.183 22.3302 28.9261 22.2733C29.0305 22.1787 29.1069 22.0644 29.1546 21.9305C29.0052 21.5613 28.8909 21.1803 28.8118 20.7876C28.7357 20.9401 28.6593 21.0923 28.5832 21.2448C28.4122 20.826 28.1837 20.445 27.8975 20.1019C27.7844 19.651 27.7462 19.1939 27.7832 18.7305Z" fill="#18102F"/>
<path fill-rule="evenodd" clip-rule="evenodd" d="M9.03827 11.418C9.2811 11.8878 9.20492 12.345 8.8097 12.7894C7.96666 13.289 7.43333 14.0128 7.2097 14.9608C7.39441 15.0311 7.54677 15.1454 7.66684 15.3037C7.51736 15.6728 7.40307 16.0538 7.32398 16.4465C7.09176 16.7058 6.93937 16.6296 6.86684 16.218C6.34677 17.1284 6.1182 17.1284 6.18113 16.218C5.35797 17.6358 4.59608 19.0834 3.89541 20.5608C3.54588 20.8417 3.27921 21.1846 3.09541 21.5894C2.35432 21.6541 2.27813 21.8447 2.86684 22.1608C2.45793 22.5112 2.00078 22.7398 1.49541 22.8465C0.980761 23.9949 0.75219 25.2139 0.809698 26.5037C1.11189 26.5425 1.37854 26.4664 1.6097 26.2751C1.56506 26.6468 1.56506 27.0278 1.6097 27.418C1.76373 27.6644 1.9923 27.8168 2.29541 27.8751C5.679 27.6605 8.99329 27.0891 12.2383 26.1608C14.8737 26.1339 17.5023 26.0957 20.124 26.0465C21.8403 26.1761 23.4785 26.5953 25.0383 27.3037C25.2102 27.4571 25.2865 27.6475 25.2668 27.8751C19.83 26.5718 14.3444 26.3814 8.8097 27.3037C6.96808 27.9012 5.1014 28.3965 3.2097 28.7894C0.664098 28.2724 -0.250188 26.7485 0.466841 24.218C3.20307 19.8486 6.06021 15.5819 9.03827 11.418Z" fill="#190D34"/>
<path fill-rule="evenodd" clip-rule="evenodd" d="M31.439 24.2168C32.3078 26.8154 31.3555 28.3393 28.5818 28.7882C27.4707 28.6838 26.4422 28.3791 25.4961 27.8739C26.7146 28.0653 27.9336 28.1795 29.1532 28.2168C29.727 27.7571 30.2602 27.2618 30.7532 26.7311C30.5334 26.1864 30.7619 25.9578 31.439 26.0454C31.439 25.4358 31.439 24.8264 31.439 24.2168Z" fill="#191330"/>
</svg>
