<svg width="32" height="32" viewBox="0 0 33 33" fill="none" xmlns="http://www.w3.org/2000/svg">
    <path fill-rule="evenodd" clip-rule="evenodd"
        d="M29.1312 1.6215C28.9491 1.60236 28.7747 1.55249 28.6082 1.47196C28.5584 1.52181 28.5086 1.57165 28.4588 1.6215C28.2067 1.60692 27.9577 1.60692 27.7117 1.6215C27.66 1.58222 27.6226 1.53238 27.5996 1.47196C27.3809 1.43146 27.1693 1.48129 26.9646 1.6215C26.7707 1.47697 26.5964 1.47697 26.4416 1.6215C26.1895 1.60692 25.9405 1.60692 25.6945 1.6215C25.6696 1.57165 25.6446 1.52181 25.6198 1.47196C25.5102 1.56133 25.3981 1.56133 25.2836 1.47196C25.0603 1.6215 24.8237 1.6215 24.5738 1.47196C24.5489 1.52181 24.524 1.57165 24.4991 1.6215C24.2296 1.58523 23.9681 1.58523 23.7146 1.6215C23.6916 1.56108 23.6543 1.51124 23.6026 1.47196C23.493 1.56133 23.3809 1.56133 23.2664 1.47196C23.1429 1.49587 23.0682 1.57064 23.0422 1.69626C22.8582 1.49469 22.6715 1.46977 22.4819 1.6215C22.2555 1.5898 22.0065 1.5898 21.7348 1.6215C21.5106 1.45347 21.2615 1.45347 20.9877 1.6215C20.7938 1.47697 20.6195 1.47697 20.4647 1.6215C20.2126 1.60692 19.9636 1.60692 19.7176 1.6215C19.6659 1.58222 19.6286 1.53238 19.6055 1.47196C19.3869 1.43146 19.1752 1.48129 18.9705 1.6215C18.846 1.57165 18.7215 1.52181 18.5969 1.47196C18.5452 1.51124 18.5079 1.56108 18.4849 1.6215C18.2306 1.59174 17.9816 1.59174 17.7378 1.6215C17.7148 1.56108 17.6774 1.51124 17.6257 1.47196C17.5161 1.56133 17.404 1.56133 17.2895 1.47196C17.0733 1.6357 16.8492 1.6357 16.6171 1.47196C16.5941 1.53238 16.5567 1.58222 16.505 1.6215C16.2484 1.60034 15.9994 1.60034 15.7579 1.6215C15.7081 1.57165 15.6583 1.52181 15.6085 1.47196C15.3981 1.42482 15.1989 1.47467 15.0108 1.6215C14.8169 1.47697 14.6426 1.47697 14.4878 1.6215C14.2358 1.60692 13.9868 1.60692 13.7407 1.6215C13.689 1.58222 13.6517 1.53238 13.6287 1.47196C13.41 1.43146 13.1983 1.48129 12.9936 1.6215C12.7998 1.47697 12.6255 1.47697 12.4707 1.6215C12.2186 1.60692 11.9696 1.60692 11.7235 1.6215C11.6987 1.57165 11.6737 1.52181 11.6488 1.47196C11.4146 1.42432 11.1905 1.47416 10.9764 1.6215C10.86 1.57861 10.7479 1.52877 10.6402 1.47196C10.6172 1.53238 10.5799 1.58222 10.5282 1.6215C10.2587 1.58523 9.9972 1.58523 9.74371 1.6215C9.7207 1.56108 9.68334 1.51124 9.63164 1.47196C9.52204 1.56133 9.40998 1.56133 9.29544 1.47196C9.17195 1.49587 9.09724 1.57064 9.07131 1.69626C8.8873 1.49469 8.70052 1.46977 8.51098 1.6215C8.28453 1.5898 8.03552 1.5898 7.76387 1.6215C7.53966 1.45347 7.29058 1.45347 7.01676 1.6215C6.82289 1.47697 6.64859 1.47697 6.49379 1.6215C6.24171 1.60692 5.9927 1.60692 5.74668 1.6215C5.69498 1.58222 5.65762 1.53238 5.63461 1.47196C5.41593 1.43146 5.20428 1.48129 4.99957 1.6215C4.87503 1.57165 4.75056 1.52181 4.62601 1.47196C4.57431 1.51124 4.53696 1.56108 4.51395 1.6215C4.30125 1.59122 4.08959 1.56627 3.87891 1.54673C4.92717 0.910282 6.07272 0.573834 7.31561 0.537385C13.3921 0.487538 19.4686 0.487538 25.5451 0.537385C26.8364 0.607 28.0318 0.968368 29.1312 1.6215Z"
        fill="#FEC903" />
    <path fill-rule="evenodd" clip-rule="evenodd"
        d="M29.1313 1.62208C29.8232 2.01557 30.3961 2.53894 30.8496 3.19217C30.7509 3.20488 30.6637 3.17998 30.5881 3.1174C30.5651 3.17781 30.5278 3.22768 30.4761 3.26694C30.3515 3.16727 30.2271 3.16727 30.1025 3.26694C30.0042 3.07793 29.917 3.07793 29.841 3.26694C29.782 3.09572 29.6823 3.07082 29.5422 3.19217C29.4712 3.15314 29.4089 3.10327 29.3554 3.04264C29.2309 3.1423 29.1064 3.24204 28.9818 3.3417C28.8119 3.13251 28.6376 3.10761 28.4589 3.26694C28.3343 3.16727 28.2099 3.16727 28.0853 3.26694C28.0336 3.22768 27.9963 3.17781 27.9733 3.1174C27.8973 3.30641 27.8101 3.30641 27.7118 3.1174C27.5637 3.22731 27.4392 3.20234 27.3382 3.04264C27.2137 3.1423 27.0892 3.24204 26.9647 3.3417C26.8616 3.23135 26.737 3.15658 26.5911 3.1174C26.5394 3.15665 26.502 3.20652 26.479 3.26694C26.3545 3.16727 26.23 3.16727 26.1055 3.26694C26.0295 3.07793 25.9423 3.07793 25.844 3.26694C25.6796 3.20039 25.5178 3.12563 25.3584 3.04264C25.2183 3.1355 25.0813 3.23523 24.9475 3.3417C24.8444 3.23135 24.7198 3.15658 24.5739 3.1174C24.5222 3.15665 24.4849 3.20652 24.4618 3.26694C24.3529 3.1737 24.2408 3.1737 24.1256 3.26694C24.0261 3.06753 23.9264 3.06753 23.8268 3.26694C23.7751 3.22768 23.7377 3.17781 23.7147 3.1174C23.5839 3.21527 23.4718 3.1903 23.3785 3.04264C23.254 3.1423 23.1295 3.24204 23.005 3.3417C22.8832 3.23718 22.7462 3.16241 22.5941 3.1174C22.5711 3.17781 22.5337 3.22768 22.482 3.26694C22.3575 3.16727 22.233 3.16727 22.1085 3.26694C22.0101 3.07793 21.9229 3.07793 21.847 3.26694C21.7607 3.08323 21.6611 3.08323 21.5481 3.26694C21.4859 3.19217 21.4236 3.1174 21.3613 3.04264C21.2368 3.1423 21.1123 3.24204 20.9878 3.3417C20.8178 3.13251 20.6435 3.10761 20.4648 3.26694C20.3496 3.1737 20.2375 3.1737 20.1286 3.26694C20.0526 3.07793 19.9654 3.07793 19.8671 3.26694C19.7855 3.09722 19.6734 3.07232 19.5309 3.19217C19.46 3.15314 19.3976 3.10327 19.3441 3.04264C19.2196 3.1423 19.0951 3.24204 18.9706 3.3417C18.8675 3.23135 18.743 3.15658 18.597 3.1174C18.5453 3.15665 18.508 3.20652 18.485 3.26694C18.3604 3.16727 18.236 3.16727 18.1114 3.26694C18.0354 3.07793 17.9483 3.07793 17.8499 3.26694C17.7982 3.22768 17.7609 3.17781 17.7379 3.1174C17.5868 3.22888 17.4623 3.20398 17.3643 3.04264C17.2398 3.1423 17.1153 3.24204 16.9908 3.3417C16.8909 3.22925 16.7663 3.15449 16.6172 3.1174C16.5942 3.17781 16.5568 3.22768 16.5051 3.26694C16.3806 3.16727 16.2561 3.16727 16.1316 3.26694C16.0333 3.07793 15.9461 3.07793 15.8701 3.26694C15.8111 3.09572 15.7114 3.07082 15.5713 3.19217C15.5003 3.15314 15.438 3.10327 15.3845 3.04264C15.2599 3.1423 15.1355 3.24204 15.0109 3.3417C14.841 3.13251 14.6667 3.10761 14.4879 3.26694C14.3634 3.16727 14.2389 3.16727 14.1144 3.26694C14.0627 3.22768 14.0253 3.17781 14.0023 3.1174C13.9263 3.30641 13.8392 3.30641 13.7408 3.1174C13.5928 3.22731 13.4683 3.20234 13.3673 3.04264C13.2427 3.1423 13.1183 3.24204 12.9937 3.3417C12.8906 3.23135 12.7661 3.15658 12.6202 3.1174C12.5685 3.15665 12.5311 3.20652 12.5081 3.26694C12.3836 3.16727 12.2591 3.16727 12.1346 3.26694C12.0586 3.07793 11.9714 3.07793 11.8731 3.26694C11.7087 3.20039 11.5469 3.12563 11.3874 3.04264C11.2474 3.1355 11.1103 3.23523 10.9765 3.3417C10.8216 3.14454 10.6722 3.11965 10.5283 3.26694C10.4037 3.16727 10.2793 3.16727 10.1547 3.26694C10.0551 3.06753 9.95546 3.06753 9.85587 3.26694C9.80417 3.22768 9.76681 3.17781 9.7438 3.1174C9.61299 3.21527 9.50092 3.1903 9.4076 3.04264C9.28306 3.1423 9.15859 3.24204 9.03405 3.3417C8.91227 3.23718 8.77525 3.16241 8.62314 3.1174C8.60013 3.17781 8.56277 3.22768 8.51107 3.26694C8.38653 3.16727 8.26206 3.16727 8.13752 3.26694C8.0392 3.07793 7.95201 3.07793 7.87603 3.26694C7.78982 3.08323 7.69015 3.08323 7.57719 3.26694C7.51495 3.19217 7.45265 3.1174 7.39041 3.04264C7.26587 3.1423 7.1414 3.24204 7.01686 3.3417C6.84689 3.13251 6.67259 3.10761 6.49388 3.26694C6.37868 3.1737 6.26661 3.1737 6.15768 3.26694C6.0817 3.07793 5.99451 3.07793 5.89619 3.26694C5.81454 3.09722 5.70247 3.07232 5.56 3.19217C5.48902 3.15314 5.42671 3.10327 5.37322 3.04264C5.24868 3.1423 5.12421 3.24204 4.99966 3.3417C4.89656 3.23135 4.77202 3.15658 4.62611 3.1174C4.57441 3.15665 4.53706 3.20652 4.51404 3.26694C4.3895 3.16727 4.26503 3.16727 4.14049 3.26694C4.06451 3.07793 3.97732 3.07793 3.879 3.26694C3.8273 3.22768 3.78995 3.17781 3.76694 3.1174C3.61587 3.22888 3.4914 3.20398 3.39338 3.04264C3.26884 3.1423 3.14437 3.24204 3.01983 3.3417C2.91994 3.22925 2.7954 3.15449 2.64627 3.1174C2.62326 3.17781 2.58591 3.22768 2.53421 3.26694C2.40966 3.16727 2.2852 3.16727 2.16065 3.26694C2.1097 3.21138 2.05987 3.16159 2.01123 3.1174C2.52412 2.45393 3.14669 1.93056 3.879 1.54731C4.08969 1.56685 4.30134 1.5918 4.51404 1.62208C4.53706 1.56166 4.57441 1.51182 4.62611 1.47254C4.75065 1.52239 4.87512 1.57223 4.99966 1.62208C5.20437 1.48187 5.41603 1.43204 5.63471 1.47254C5.65772 1.53296 5.69507 1.5828 5.74677 1.62208C5.9928 1.6075 6.24181 1.6075 6.49388 1.62208C6.64868 1.47755 6.82298 1.47755 7.01686 1.62208C7.29067 1.45405 7.53976 1.45405 7.76397 1.62208C8.03561 1.59038 8.28463 1.59038 8.51107 1.62208C8.70062 1.47035 8.88739 1.49527 9.07141 1.69684C9.09733 1.57122 9.17204 1.49645 9.29554 1.47254C9.41007 1.56191 9.52214 1.56191 9.63174 1.47254C9.68344 1.51182 9.72079 1.56166 9.7438 1.62208C9.9973 1.58581 10.2588 1.58581 10.5283 1.62208C10.58 1.5828 10.6173 1.53296 10.6403 1.47254C10.748 1.52935 10.8601 1.57919 10.9765 1.62208C11.1906 1.47474 11.4147 1.4249 11.6489 1.47254C11.6738 1.52239 11.6988 1.57223 11.7236 1.62208C11.9697 1.6075 12.2187 1.6075 12.4707 1.62208C12.6256 1.47755 12.7999 1.47755 12.9937 1.62208C13.1984 1.48187 13.4101 1.43204 13.6288 1.47254C13.6518 1.53296 13.6891 1.5828 13.7408 1.62208C13.9869 1.6075 14.2359 1.6075 14.4879 1.62208C14.6427 1.47755 14.817 1.47755 15.0109 1.62208C15.199 1.47525 15.3982 1.4254 15.6086 1.47254C15.6584 1.52239 15.7082 1.57223 15.758 1.62208C15.9995 1.60092 16.2485 1.60092 16.5051 1.62208C16.5568 1.5828 16.5942 1.53296 16.6172 1.47254C16.8493 1.63628 17.0734 1.63628 17.2896 1.47254C17.4041 1.56191 17.5162 1.56191 17.6258 1.47254C17.6775 1.51182 17.7149 1.56166 17.7379 1.62208C17.9816 1.59232 18.2307 1.59232 18.485 1.62208C18.508 1.56166 18.5453 1.51182 18.597 1.47254C18.7216 1.52239 18.8461 1.57223 18.9706 1.62208C19.1753 1.48187 19.387 1.43204 19.6056 1.47254C19.6286 1.53296 19.666 1.5828 19.7177 1.62208C19.9637 1.6075 20.2127 1.6075 20.4648 1.62208C20.6196 1.47755 20.7939 1.47755 20.9878 1.62208C21.2616 1.45405 21.5107 1.45405 21.7349 1.62208C22.0065 1.59038 22.2556 1.59038 22.482 1.62208C22.6715 1.47035 22.8583 1.49527 23.0423 1.69684C23.0683 1.57122 23.143 1.49645 23.2665 1.47254C23.381 1.56191 23.4931 1.56191 23.6027 1.47254C23.6544 1.51182 23.6917 1.56166 23.7147 1.62208C23.9682 1.58581 24.2297 1.58581 24.4992 1.62208C24.5241 1.57223 24.549 1.52239 24.5739 1.47254C24.8238 1.62208 25.0604 1.62208 25.2837 1.47254C25.3982 1.56191 25.5103 1.56191 25.6199 1.47254C25.6447 1.52239 25.6697 1.57223 25.6946 1.62208C25.9406 1.6075 26.1896 1.6075 26.4417 1.62208C26.5965 1.47755 26.7708 1.47755 26.9647 1.62208C27.1694 1.48187 27.381 1.43204 27.5997 1.47254C27.6227 1.53296 27.6601 1.5828 27.7118 1.62208C27.9578 1.6075 28.2068 1.6075 28.4589 1.62208C28.5087 1.57223 28.5585 1.52239 28.6083 1.47254C28.7748 1.55307 28.9492 1.60294 29.1313 1.62208Z"
        fill="#FFC400" />
    <path fill-rule="evenodd" clip-rule="evenodd"
        d="M30.8497 3.19152C31.3122 3.71788 31.6608 4.31601 31.8956 4.98592C31.7763 4.9418 31.6767 4.86704 31.5968 4.76162C31.5035 4.80199 31.4164 4.85186 31.3353 4.91115C31.1701 4.90195 31.0082 4.90195 30.8497 4.91115C30.7962 4.85051 30.7339 4.80065 30.6629 4.76162C30.4285 4.77194 30.1918 4.77194 29.9531 4.76162C29.8197 4.9427 29.6952 4.9427 29.5796 4.76162C29.5049 4.81149 29.4302 4.86128 29.3555 4.91115C29.1812 4.91115 29.0068 4.91115 28.8325 4.91115C28.779 4.85051 28.7167 4.80065 28.6457 4.76162C28.4287 4.79736 28.2045 4.79736 27.9733 4.76162C27.8281 4.92722 27.7037 4.92722 27.5998 4.76162C27.5187 4.82091 27.4315 4.87078 27.3383 4.91115C27.1705 4.89283 26.9962 4.89283 26.8153 4.91115C26.7259 4.88528 26.7259 4.8479 26.8153 4.799C26.7655 4.78651 26.7157 4.7741 26.6659 4.76162C26.4488 4.77956 26.2246 4.77956 25.9935 4.76162C25.8407 4.90928 25.7161 4.90928 25.6199 4.76162C25.5267 4.80199 25.4395 4.85186 25.3584 4.91115C25.1932 4.90195 25.0313 4.90195 24.8728 4.91115C24.8193 4.85051 24.757 4.80065 24.686 4.76162C24.5715 4.85096 24.4594 4.85096 24.3498 4.76162C24.2768 4.79728 24.2145 4.84708 24.1631 4.91115C24.022 4.73007 23.8726 4.73007 23.7148 4.91115C23.6918 4.85074 23.6544 4.80087 23.6027 4.76162C23.528 4.81149 23.4533 4.86128 23.3786 4.91115C23.2874 4.82061 23.2003 4.82061 23.1171 4.91115C23.0922 4.86128 23.0673 4.81149 23.0424 4.76162C22.9186 4.9605 22.7941 4.9605 22.6688 4.76162C22.4344 4.77194 22.1978 4.77194 21.9591 4.76162C21.8844 4.81149 21.8097 4.86128 21.735 4.91115C21.6387 4.76349 21.5142 4.76349 21.3614 4.91115C21.1871 4.91115 21.0127 4.91115 20.8384 4.91115C20.7849 4.85051 20.7226 4.80065 20.6516 4.76162C20.4442 4.77792 20.2326 4.77792 20.0166 4.76162C19.917 4.81149 19.8173 4.86128 19.7178 4.91115C19.6215 4.76349 19.497 4.76349 19.3442 4.91115C19.1857 4.90195 19.0238 4.90195 18.8586 4.91115C18.8198 4.83519 18.7575 4.78539 18.6718 4.76162C18.4547 4.77956 18.2306 4.77956 17.9994 4.76162C17.8466 4.90928 17.7221 4.90928 17.6259 4.76162C17.5326 4.80199 17.4454 4.85186 17.3644 4.91115C17.1992 4.90195 17.0373 4.90195 16.8787 4.91115C16.8253 4.85051 16.7629 4.80065 16.692 4.76162C16.4575 4.77194 16.2209 4.77194 15.9822 4.76162C15.8488 4.9427 15.7243 4.9427 15.6087 4.76162C15.5339 4.81149 15.4592 4.86128 15.3845 4.91115C15.2102 4.91115 15.0359 4.91115 14.8616 4.91115C14.8081 4.85051 14.7458 4.80065 14.6748 4.76162C14.4577 4.79736 14.2336 4.79736 14.0024 4.76162C13.8572 4.92722 13.7327 4.92722 13.6288 4.76162C13.5478 4.82091 13.4606 4.87078 13.3673 4.91115C13.1996 4.89283 13.0253 4.89283 12.8444 4.91115C12.755 4.88528 12.755 4.8479 12.8444 4.799C12.7945 4.78651 12.7448 4.7741 12.6949 4.76162C12.4778 4.77956 12.2537 4.77956 12.0225 4.76162C11.8698 4.90928 11.7452 4.90928 11.649 4.76162C11.5557 4.80199 11.4686 4.85186 11.3875 4.91115C11.2223 4.90195 11.0604 4.90195 10.9019 4.91115C10.8484 4.85051 10.7861 4.80065 10.7151 4.76162C10.6006 4.85096 10.4885 4.85096 10.3789 4.76162C10.3058 4.79728 10.2436 4.84708 10.1921 4.91115C10.0511 4.73007 9.90165 4.73007 9.74386 4.91115C9.72085 4.85074 9.68349 4.80087 9.63179 4.76162C9.55708 4.81149 9.48237 4.86128 9.40766 4.91115C9.31651 4.82061 9.22932 4.82061 9.14617 4.91115C9.12129 4.86128 9.09634 4.81149 9.07146 4.76162C8.94766 4.9605 8.82312 4.9605 8.69791 4.76162C8.46346 4.77194 8.22685 4.77194 7.98815 4.76162C7.91344 4.81149 7.83873 4.86128 7.76402 4.91115C7.66779 4.76349 7.54325 4.76349 7.39047 4.91115C7.21617 4.91115 7.04179 4.91115 6.86749 4.91115C6.814 4.85051 6.75169 4.80065 6.68071 4.76162C6.47332 4.77792 6.26166 4.77792 6.04567 4.76162C5.94608 4.81149 5.84642 4.86128 5.74683 4.91115C5.6506 4.76349 5.52606 4.76349 5.37327 4.91115C5.21474 4.90195 5.05284 4.90195 4.88765 4.91115C4.84888 4.83519 4.78657 4.78539 4.70088 4.76162C4.48377 4.77956 4.25963 4.77956 4.02848 4.76162C3.87569 4.90928 3.75115 4.90928 3.65492 4.76162C3.56168 4.80199 3.4745 4.85186 3.39344 4.91115C3.22825 4.90195 3.06635 4.90195 2.90781 4.91115C2.85432 4.85051 2.79201 4.80065 2.72104 4.76162C2.48659 4.77194 2.24999 4.77194 2.01128 4.76162C1.87785 4.9427 1.75338 4.9427 1.63773 4.76162C1.41561 4.81844 1.19148 4.89321 0.965332 4.98592C1.21733 4.30689 1.56601 3.68379 2.01128 3.11676C2.05992 3.16095 2.10975 3.21074 2.16071 3.26629C2.28525 3.16663 2.40972 3.16663 2.53426 3.26629C2.58596 3.22704 2.62332 3.17717 2.64633 3.11676C2.79545 3.15384 2.91999 3.22861 3.01988 3.34106C3.14442 3.24139 3.26889 3.14166 3.39344 3.04199C3.49146 3.20334 3.61592 3.22824 3.76699 3.11676C3.79 3.17717 3.82736 3.22704 3.87906 3.26629C3.97738 3.07728 4.06456 3.07728 4.14054 3.26629C4.26509 3.16663 4.38955 3.16663 4.5141 3.26629C4.53711 3.20588 4.57446 3.15601 4.62616 3.11676C4.77207 3.15594 4.89662 3.2307 4.99972 3.34106C5.12426 3.24139 5.24873 3.14166 5.37327 3.04199C5.42677 3.10263 5.48907 3.1525 5.56005 3.19152C5.70252 3.07167 5.81459 3.09657 5.89625 3.26629C5.99457 3.07728 6.08176 3.07728 6.15774 3.26629C6.26667 3.17306 6.37873 3.17306 6.49394 3.26629C6.67264 3.10696 6.84694 3.13186 7.01691 3.34106C7.14145 3.24139 7.26592 3.14166 7.39047 3.04199C7.4527 3.11676 7.51501 3.19152 7.57724 3.26629C7.69021 3.08259 7.78987 3.08259 7.87609 3.26629C7.95207 3.07728 8.03926 3.07728 8.13757 3.26629C8.26212 3.16663 8.38659 3.16663 8.51113 3.26629C8.56283 3.22704 8.60018 3.17717 8.6232 3.11676C8.77531 3.16177 8.91233 3.23653 9.03411 3.34106C9.15865 3.24139 9.28312 3.14166 9.40766 3.04199C9.50097 3.18966 9.61304 3.21463 9.74386 3.11676C9.76687 3.17717 9.80422 3.22704 9.85592 3.26629C9.95551 3.06689 10.0552 3.06689 10.1548 3.26629C10.2793 3.16663 10.4038 3.16663 10.5283 3.26629C10.6722 3.119 10.8216 3.1439 10.9766 3.34106C11.1104 3.23459 11.2474 3.13485 11.3875 3.04199C11.5469 3.12498 11.7088 3.19975 11.8731 3.26629C11.9714 3.07728 12.0586 3.07728 12.1346 3.26629C12.2591 3.16663 12.3836 3.16663 12.5082 3.26629C12.5312 3.20588 12.5685 3.15601 12.6202 3.11676C12.7661 3.15594 12.8907 3.2307 12.9938 3.34106C13.1183 3.24139 13.2428 3.14166 13.3673 3.04199C13.4683 3.20169 13.5928 3.22666 13.7409 3.11676C13.8392 3.30577 13.9264 3.30577 14.0024 3.11676C14.0254 3.17717 14.0627 3.22704 14.1144 3.26629C14.239 3.16663 14.3635 3.16663 14.488 3.26629C14.6667 3.10696 14.841 3.13186 15.011 3.34106C15.1355 3.24139 15.26 3.14166 15.3845 3.04199C15.438 3.10263 15.5003 3.1525 15.5713 3.19152C15.7115 3.07018 15.8111 3.09508 15.8701 3.26629C15.9461 3.07728 16.0333 3.07728 16.1316 3.26629C16.2562 3.16663 16.3806 3.16663 16.5052 3.26629C16.5569 3.22704 16.5942 3.17717 16.6173 3.11676C16.7664 3.15384 16.8909 3.22861 16.9908 3.34106C17.1154 3.24139 17.2398 3.14166 17.3644 3.04199C17.4624 3.20334 17.5869 3.22824 17.7379 3.11676C17.7609 3.17717 17.7983 3.22704 17.85 3.26629C17.9483 3.07728 18.0355 3.07728 18.1115 3.26629C18.236 3.16663 18.3605 3.16663 18.485 3.26629C18.508 3.20588 18.5454 3.15601 18.5971 3.11676C18.743 3.15594 18.8675 3.2307 18.9706 3.34106C19.0952 3.24139 19.2197 3.14166 19.3442 3.04199C19.3977 3.10263 19.46 3.1525 19.531 3.19152C19.6735 3.07167 19.7855 3.09657 19.8672 3.26629C19.9655 3.07728 20.0527 3.07728 20.1287 3.26629C20.2376 3.17306 20.3497 3.17306 20.4649 3.26629C20.6436 3.10696 20.8179 3.13186 20.9878 3.34106C21.1124 3.24139 21.2369 3.14166 21.3614 3.04199C21.4236 3.11676 21.4859 3.19152 21.5482 3.26629C21.6611 3.08259 21.7608 3.08259 21.847 3.26629C21.923 3.07728 22.0102 3.07728 22.1085 3.26629C22.233 3.16663 22.3575 3.16663 22.4821 3.26629C22.5338 3.22704 22.5711 3.17717 22.5941 3.11676C22.7462 3.16177 22.8833 3.23653 23.005 3.34106C23.1296 3.24139 23.254 3.14166 23.3786 3.04199C23.4719 3.18966 23.584 3.21463 23.7148 3.11676C23.7378 3.17717 23.7752 3.22704 23.8269 3.26629C23.9264 3.06689 24.0261 3.06689 24.1257 3.26629C24.2409 3.17306 24.353 3.17306 24.4619 3.26629C24.4849 3.20588 24.5223 3.15601 24.574 3.11676C24.7199 3.15594 24.8444 3.2307 24.9475 3.34106C25.0813 3.23459 25.2183 3.13485 25.3584 3.04199C25.5179 3.12498 25.6797 3.19975 25.844 3.26629C25.9424 3.07728 26.0296 3.07728 26.1055 3.26629C26.2301 3.16663 26.3545 3.16663 26.4791 3.26629C26.5021 3.20588 26.5395 3.15601 26.5912 3.11676C26.7371 3.15594 26.8616 3.2307 26.9647 3.34106C27.0893 3.24139 27.2137 3.14166 27.3383 3.04199C27.4393 3.20169 27.5637 3.22666 27.7118 3.11676C27.8101 3.30577 27.8973 3.30577 27.9733 3.11676C27.9963 3.17717 28.0337 3.22704 28.0854 3.26629C28.2099 3.16663 28.3344 3.16663 28.4589 3.26629C28.6376 3.10696 28.8119 3.13186 28.9819 3.34106C29.1064 3.24139 29.2309 3.14166 29.3555 3.04199C29.409 3.10263 29.4713 3.1525 29.5422 3.19152C29.6824 3.07018 29.7821 3.09508 29.8411 3.26629C29.9171 3.07728 30.0042 3.07728 30.1026 3.26629C30.2271 3.16663 30.3516 3.16663 30.4761 3.26629C30.5278 3.22704 30.5652 3.17717 30.5882 3.11676C30.6637 3.17934 30.7509 3.20424 30.8497 3.19152Z"
        fill="#FFBE00" />
    <path fill-rule="evenodd" clip-rule="evenodd"
        d="M31.8956 4.98602C32.1237 5.48194 32.2482 6.00531 32.2692 6.55611C32.1538 6.54093 32.0542 6.49106 31.9704 6.40658C31.7837 6.36015 31.6094 6.40994 31.4474 6.55611C31.0873 6.59043 30.7137 6.54063 30.3267 6.40658C30.2305 6.55424 30.1059 6.55424 29.9532 6.40658C29.783 6.37032 29.6212 6.42011 29.4675 6.55611C29.1077 6.59327 28.7342 6.54347 28.3469 6.40658C28.243 6.57218 28.1185 6.57218 27.9733 6.40658C27.8902 6.49712 27.803 6.49712 27.7118 6.40658C27.6371 6.45645 27.5624 6.50624 27.4877 6.55611C27.1276 6.59043 26.754 6.54063 26.367 6.40658C26.2514 6.58766 26.1269 6.58766 25.9935 6.40658C25.8069 6.36015 25.6325 6.40994 25.4705 6.55611C25.2926 6.52747 25.1058 6.52747 24.9102 6.55611C24.7216 6.51095 24.5348 6.46108 24.3499 6.40658C24.2342 6.58766 24.1097 6.58766 23.9763 6.40658C23.8851 6.49712 23.798 6.49712 23.7148 6.40658C23.5374 6.61503 23.4379 6.59005 23.416 6.33181C23.3885 6.43723 23.3262 6.512 23.2292 6.55611C22.9333 6.55895 22.6344 6.50916 22.3327 6.40658C22.2364 6.55424 22.1119 6.55424 21.9591 6.40658C21.7959 6.36112 21.6465 6.41099 21.5108 6.55611C21.3089 6.55342 21.1096 6.55342 20.9132 6.55611C20.7202 6.52015 20.5334 6.47028 20.3528 6.40658C20.3298 6.46699 20.2925 6.51686 20.2408 6.55611C20.166 6.50624 20.0913 6.45645 20.0166 6.40658C19.917 6.50624 19.8174 6.50624 19.7178 6.40658C19.6431 6.45645 19.5684 6.50624 19.4936 6.55611C19.1335 6.59043 18.76 6.54063 18.373 6.40658C18.2573 6.58766 18.1329 6.58766 17.9994 6.40658C17.8128 6.36015 17.6384 6.40994 17.4765 6.55611C17.2985 6.52747 17.1117 6.52747 16.9161 6.55611C16.7275 6.51095 16.5408 6.46108 16.3558 6.40658C16.3041 6.44583 16.2667 6.4957 16.2437 6.55611C16.0901 6.42011 15.9282 6.37032 15.7581 6.40658C15.6649 6.44695 15.5777 6.49682 15.4966 6.55611C15.3721 6.53121 15.2476 6.50624 15.1231 6.48134C14.9942 6.55342 14.8572 6.60329 14.7121 6.63088C13.2645 6.14048 11.8201 6.14048 10.3789 6.63088C10.2374 6.5899 10.1129 6.51514 10.0054 6.40658C9.81874 6.36015 9.64436 6.40994 9.48239 6.55611C9.12228 6.59043 8.74873 6.54063 8.36173 6.40658C8.2655 6.55424 8.14096 6.55424 7.98817 6.40658C7.825 6.36112 7.67558 6.41099 7.53991 6.55611C7.33796 6.55342 7.13871 6.55342 6.94222 6.55611C6.74924 6.52015 6.56246 6.47028 6.38189 6.40658C6.35888 6.46699 6.32152 6.51686 6.26982 6.55611C6.19511 6.50624 6.1204 6.45645 6.04569 6.40658C5.9461 6.50624 5.84644 6.50624 5.74685 6.40658C5.67214 6.45645 5.59742 6.50624 5.52271 6.55611C5.16261 6.59043 4.78905 6.54063 4.40205 6.40658C4.2864 6.58766 4.16193 6.58766 4.0285 6.40658C3.84187 6.36015 3.66749 6.40994 3.50552 6.55611C3.14541 6.59043 2.77186 6.54063 2.38486 6.40658C2.28863 6.55424 2.16409 6.55424 2.0113 6.40658C1.84119 6.37032 1.67929 6.42011 1.52568 6.55611C1.22826 6.51798 0.917013 6.51798 0.591797 6.55611C0.612791 6.00531 0.737334 5.48194 0.965351 4.98602C1.1915 4.89331 1.41563 4.81854 1.63775 4.76172C1.7534 4.9428 1.87787 4.9428 2.0113 4.76172C2.25 4.77204 2.48661 4.77204 2.72106 4.76172C2.79203 4.80075 2.85434 4.85062 2.90783 4.91125C3.06637 4.90206 3.22827 4.90206 3.39345 4.91125C3.47452 4.85196 3.5617 4.80209 3.65494 4.76172C3.75117 4.90938 3.87571 4.90938 4.0285 4.76172C4.25965 4.77966 4.48378 4.77966 4.70089 4.76172C4.78659 4.78549 4.8489 4.83529 4.88767 4.91125C5.05286 4.90206 5.21476 4.90206 5.37329 4.91125C5.52608 4.76359 5.65062 4.76359 5.74685 4.91125C5.84644 4.86138 5.9461 4.81159 6.04569 4.76172C6.26168 4.77802 6.47333 4.77802 6.68073 4.76172C6.75171 4.80075 6.81402 4.85062 6.86751 4.91125C7.04181 4.91125 7.21618 4.91125 7.39049 4.91125C7.54327 4.76359 7.66781 4.76359 7.76404 4.91125C7.83875 4.86138 7.91346 4.81159 7.98817 4.76172C8.22687 4.77204 8.46348 4.77204 8.69793 4.76172C8.82314 4.9606 8.94768 4.9606 9.07148 4.76172C9.09636 4.81159 9.12131 4.86138 9.14619 4.91125C9.22934 4.82071 9.31653 4.82071 9.40768 4.91125C9.48239 4.86138 9.5571 4.81159 9.63181 4.76172C9.68351 4.80097 9.72087 4.85084 9.74388 4.91125C9.90167 4.73017 10.0511 4.73017 10.1921 4.91125C10.2436 4.84718 10.3059 4.79738 10.3789 4.76172C10.4885 4.85106 10.6006 4.85106 10.7151 4.76172C10.7861 4.80075 10.8484 4.85062 10.9019 4.91125C11.0604 4.90206 11.2223 4.90206 11.3875 4.91125C11.4686 4.85196 11.5558 4.80209 11.649 4.76172C11.7452 4.90938 11.8698 4.90938 12.0226 4.76172C12.2537 4.77966 12.4778 4.77966 12.695 4.76172C12.7448 4.7742 12.7945 4.78662 12.8444 4.7991C12.755 4.848 12.755 4.88538 12.8444 4.91125C13.0253 4.89293 13.1996 4.89293 13.3674 4.91125C13.4606 4.87088 13.5478 4.82101 13.6288 4.76172C13.7328 4.92733 13.8572 4.92733 14.0024 4.76172C14.2336 4.79746 14.4578 4.79746 14.6748 4.76172C14.7458 4.80075 14.8081 4.85062 14.8616 4.91125C15.0359 4.91125 15.2102 4.91125 15.3845 4.91125C15.4593 4.86138 15.534 4.81159 15.6087 4.76172C15.7243 4.9428 15.8488 4.9428 15.9822 4.76172C16.2209 4.77204 16.4575 4.77204 16.692 4.76172C16.763 4.80075 16.8253 4.85062 16.8788 4.91125C17.0373 4.90206 17.1992 4.90206 17.3644 4.91125C17.4454 4.85196 17.5326 4.80209 17.6259 4.76172C17.7221 4.90938 17.8466 4.90938 17.9994 4.76172C18.2306 4.77966 18.4547 4.77966 18.6718 4.76172C18.7575 4.78549 18.8198 4.83529 18.8586 4.91125C19.0238 4.90206 19.1857 4.90206 19.3442 4.91125C19.497 4.76359 19.6215 4.76359 19.7178 4.91125C19.8174 4.86138 19.917 4.81159 20.0166 4.76172C20.2326 4.77802 20.4443 4.77802 20.6517 4.76172C20.7226 4.80075 20.7849 4.85062 20.8384 4.91125C21.0127 4.91125 21.1871 4.91125 21.3614 4.91125C21.5142 4.76359 21.6387 4.76359 21.735 4.91125C21.8097 4.86138 21.8844 4.81159 21.9591 4.76172C22.1978 4.77204 22.4344 4.77204 22.6689 4.76172C22.7941 4.9606 22.9186 4.9606 23.0424 4.76172C23.0673 4.81159 23.0922 4.86138 23.1171 4.91125C23.2003 4.82071 23.2875 4.82071 23.3786 4.91125C23.4533 4.86138 23.528 4.81159 23.6027 4.76172C23.6544 4.80097 23.6918 4.85084 23.7148 4.91125C23.8726 4.73017 24.022 4.73017 24.1631 4.91125C24.2145 4.84718 24.2768 4.79738 24.3499 4.76172C24.4595 4.85106 24.5715 4.85106 24.686 4.76172C24.757 4.80075 24.8193 4.85062 24.8728 4.91125C25.0314 4.90206 25.1933 4.90206 25.3584 4.91125C25.4395 4.85196 25.5267 4.80209 25.6199 4.76172C25.7162 4.90938 25.8407 4.90938 25.9935 4.76172C26.2246 4.77966 26.4488 4.77966 26.6659 4.76172C26.7157 4.7742 26.7655 4.78662 26.8153 4.7991C26.726 4.848 26.726 4.88538 26.8153 4.91125C26.9963 4.89293 27.1706 4.89293 27.3383 4.91125C27.4315 4.87088 27.5187 4.82101 27.5998 4.76172C27.7037 4.92733 27.8282 4.92733 27.9733 4.76172C28.2046 4.79746 28.4287 4.79746 28.6457 4.76172C28.7167 4.80075 28.779 4.85062 28.8325 4.91125C29.0068 4.91125 29.1812 4.91125 29.3555 4.91125C29.4302 4.86138 29.5049 4.81159 29.5796 4.76172C29.6953 4.9428 29.8197 4.9428 29.9532 4.76172C30.1919 4.77204 30.4285 4.77204 30.6629 4.76172C30.7339 4.80075 30.7962 4.85062 30.8497 4.91125C31.0082 4.90206 31.1701 4.90206 31.3353 4.91125C31.4164 4.85196 31.5036 4.80209 31.5968 4.76172C31.6767 4.86714 31.7763 4.94191 31.8956 4.98602Z"
        fill="#FEB800" />
    <path fill-rule="evenodd" clip-rule="evenodd"
        d="M14.7121 6.63147C15.6371 7.05823 16.4092 7.68126 17.0281 8.50062C17.2359 8.85397 17.4351 9.21531 17.6258 9.58474C18.4077 9.80163 19.1299 10.1381 19.7924 10.5941C20.5902 11.2677 21.1878 12.0902 21.5855 13.0614C21.851 13.8603 21.9506 14.6828 21.8843 15.5287C21.2465 15.6947 20.599 15.8193 19.9418 15.9025C19.9911 15.6816 20.0159 15.4573 20.0165 15.2296C20.0886 13.6538 19.4411 12.4825 18.074 11.7156C17.9777 13.0042 17.4796 14.1008 16.5798 15.0053C16.0174 15.4297 15.3824 15.654 14.6747 15.6782C13.9954 15.6931 13.4101 15.4688 12.919 15.0053C12.2751 14.3686 12.0012 13.5959 12.0972 12.6875C12.263 11.8574 12.6614 11.1595 13.2925 10.5941C13.9301 10.0757 14.6524 9.71431 15.4592 9.50997C14.3044 8.18623 12.8849 7.7875 11.2006 8.31371C10.8394 8.45681 10.5156 8.65621 10.2294 8.91184C9.65331 9.15879 9.20504 9.02174 8.88461 8.50062C8.75902 8.15797 8.79638 7.83401 8.99668 7.52866C9.41767 7.16261 9.87841 6.86354 10.3788 6.63147C11.82 6.14107 13.2644 6.14107 14.7121 6.63147Z"
        fill="#F35800" />
    <path fill-rule="evenodd" clip-rule="evenodd"
        d="M32.269 6.55535C32.381 7.1875 32.4307 7.8355 32.4184 8.49928C28.9981 8.45771 25.5614 8.45771 22.1083 8.49928C22.0336 8.44941 21.9589 8.39961 21.8842 8.34975C21.7398 8.41449 21.5904 8.46436 21.4359 8.49928C19.9518 8.43356 18.4825 8.43356 17.028 8.49928C16.409 7.67991 15.637 7.05689 14.7119 6.63012C14.8569 6.60253 14.9939 6.55266 15.1228 6.48059C15.2474 6.50548 15.3718 6.53046 15.4964 6.55535C15.5774 6.49606 15.6646 6.44619 15.7579 6.40582C15.928 6.36956 16.0899 6.41935 16.2435 6.55535C16.2665 6.49494 16.3039 6.44507 16.3556 6.40582C16.5405 6.46033 16.7273 6.51019 16.9159 6.55535C17.1115 6.52672 17.2983 6.52672 17.4762 6.55535C17.6382 6.40919 17.8126 6.35939 17.9992 6.40582C18.1326 6.58691 18.2571 6.58691 18.3727 6.40582C18.7597 6.53988 19.1333 6.58967 19.4934 6.55535C19.5681 6.50548 19.6428 6.45569 19.7175 6.40582C19.8171 6.50548 19.9168 6.50548 20.0164 6.40582C20.0911 6.45569 20.1658 6.50548 20.2405 6.55535C20.2922 6.5161 20.3296 6.46623 20.3526 6.40582C20.5332 6.46952 20.7199 6.51939 20.9129 6.55535C21.1094 6.55266 21.3087 6.55266 21.5106 6.55535C21.6463 6.41023 21.7957 6.36036 21.9589 6.40582C22.1117 6.55348 22.2362 6.55348 22.3324 6.40582C22.6342 6.5084 22.933 6.55819 23.229 6.55535C23.326 6.51124 23.3882 6.43648 23.4157 6.33105C23.4376 6.5893 23.5372 6.61427 23.7146 6.40582C23.7977 6.49636 23.8849 6.49636 23.9761 6.40582C24.1095 6.58691 24.234 6.58691 24.3496 6.40582C24.5346 6.46033 24.7214 6.51019 24.9099 6.55535C25.1055 6.52672 25.2923 6.52672 25.4703 6.55535C25.6323 6.40919 25.8066 6.35939 25.9933 6.40582C26.1267 6.58691 26.2512 6.58691 26.3668 6.40582C26.7538 6.53988 27.1274 6.58967 27.4875 6.55535C27.5622 6.50548 27.6369 6.45569 27.7116 6.40582C27.8028 6.49636 27.8899 6.49636 27.9731 6.40582C28.1183 6.57143 28.2427 6.57143 28.3466 6.40582C28.7339 6.54272 29.1075 6.59251 29.4673 6.55535C29.6209 6.41935 29.7828 6.36956 29.9529 6.40582C30.1057 6.55348 30.2303 6.55348 30.3265 6.40582C30.7135 6.53988 31.087 6.58967 31.4471 6.55535C31.6091 6.40919 31.7835 6.35939 31.9701 6.40582C32.0539 6.49031 32.1536 6.54018 32.269 6.55535Z"
        fill="#FEB100" />
    <path fill-rule="evenodd" clip-rule="evenodd"
        d="M10.3786 6.63075C9.87822 6.86282 9.41748 7.16189 8.99648 7.52794C8.79618 7.83329 8.75883 8.15725 8.88442 8.49991C8.66409 8.4712 8.41501 8.4712 8.13731 8.49991C8.0626 8.45004 7.98789 8.40024 7.91317 8.35037C7.76883 8.41512 7.61941 8.46499 7.46491 8.49991C5.12855 8.47037 2.78764 8.4454 0.442089 8.42514C0.432452 7.78634 0.482284 7.16331 0.591511 6.55598C0.916727 6.51785 1.22797 6.51785 1.5254 6.55598C1.679 6.41998 1.8409 6.37019 2.01102 6.40645C2.1638 6.55411 2.28834 6.55411 2.38457 6.40645C2.77157 6.5405 3.14513 6.5903 3.50523 6.55598C3.66721 6.40981 3.84158 6.36002 4.02821 6.40645C4.16164 6.58753 4.28611 6.58753 4.40176 6.40645C4.78877 6.5405 5.16232 6.5903 5.52243 6.55598C5.59714 6.50611 5.67185 6.45632 5.74656 6.40645C5.84615 6.50611 5.94581 6.50611 6.0454 6.40645C6.12011 6.45632 6.19483 6.50611 6.26954 6.55598C6.32124 6.51673 6.35859 6.46686 6.3816 6.40645C6.56218 6.47015 6.74896 6.52002 6.94193 6.55598C7.13842 6.55329 7.33768 6.55329 7.53962 6.55598C7.6753 6.41086 7.82472 6.36099 7.98789 6.40645C8.14067 6.55411 8.26521 6.55411 8.36144 6.40645C8.74844 6.5405 9.122 6.5903 9.4821 6.55598C9.64408 6.40981 9.81845 6.36002 10.0051 6.40645C10.1127 6.51501 10.2371 6.58978 10.3786 6.63075Z"
        fill="#FEB200" />
    <path fill-rule="evenodd" clip-rule="evenodd"
        d="M13.2926 10.5928C13.1457 10.6107 13.0087 10.5858 12.8817 10.518C12.6579 10.6669 12.4463 10.6669 12.2467 10.518C12.1222 10.6177 11.9977 10.6177 11.8731 10.518C11.8001 10.5537 11.7378 10.6035 11.6864 10.6676C11.6921 10.575 11.6797 10.5002 11.649 10.4433C11.5121 10.4992 11.3876 10.5739 11.2755 10.6676C11.2256 10.6177 11.1759 10.5679 11.126 10.518C10.9283 10.5046 10.7291 10.5545 10.5283 10.6676C10.4288 10.6177 10.3291 10.5679 10.2295 10.518C10.0633 10.563 9.90145 10.5878 9.74388 10.5928C9.72087 10.5324 9.68352 10.4825 9.63182 10.4433C9.49495 10.4992 9.3704 10.5739 9.25826 10.6676C9.13424 10.4 8.97235 10.3751 8.77264 10.5928C8.74963 10.5324 8.71228 10.4825 8.66058 10.4433C8.62247 10.7002 8.48553 10.7252 8.24967 10.518C8.08814 10.5509 7.92624 10.5758 7.76405 10.5928C7.71421 10.5429 7.66446 10.4931 7.61462 10.4433C7.50248 10.5369 7.37794 10.6116 7.24107 10.6676C7.18937 10.6283 7.15202 10.5784 7.129 10.518C6.92542 10.492 6.72616 10.5418 6.53132 10.6676C6.45026 10.6083 6.36307 10.5584 6.26983 10.518C6.09344 10.557 5.91914 10.5819 5.74685 10.5928C5.69515 10.5535 5.6578 10.5037 5.63479 10.4433C5.51024 10.518 5.38578 10.5928 5.26123 10.6676C5.23822 10.6071 5.20087 10.5573 5.14917 10.518C4.94371 10.5224 4.73198 10.5722 4.51412 10.6676C4.43306 10.6083 4.34588 10.5584 4.25264 10.518C4.0864 10.563 3.92458 10.5878 3.76702 10.5928C3.744 10.5324 3.70665 10.4825 3.65495 10.4433C3.51808 10.4992 3.39354 10.5739 3.2814 10.6676C3.05913 10.4919 2.81004 10.4919 2.53429 10.6676C2.44105 10.6272 2.35386 10.5773 2.2728 10.518C2.10604 10.5694 1.94422 10.5944 1.78718 10.5928C1.73735 10.5429 1.68759 10.4931 1.63776 10.4433C1.52562 10.5369 1.40107 10.6116 1.2642 10.6676C1.2125 10.6283 1.17515 10.5784 1.15214 10.518C0.948549 10.492 0.749295 10.5418 0.554449 10.6676C0.525835 10.626 0.488479 10.6011 0.442383 10.5928C0.442383 9.87002 0.442383 9.14733 0.442383 8.42456C2.78793 8.44482 5.12885 8.4698 7.4652 8.49933C7.61971 8.46441 7.76913 8.41454 7.91347 8.3498C7.98818 8.39966 8.06289 8.44946 8.1376 8.49933C8.4153 8.47062 8.66439 8.47062 8.88471 8.49933C9.20514 9.02045 9.65341 9.1575 10.2295 8.91054C10.5157 8.65492 10.8395 8.45551 11.2007 8.31241C12.885 7.78621 14.3045 8.18494 15.4593 9.50867C14.6525 9.71301 13.9302 10.0744 13.2926 10.5928Z"
        fill="#FEAB00" />
    <path fill-rule="evenodd" clip-rule="evenodd"
        d="M32.4183 8.50012C32.4183 9.22288 32.4183 9.94558 32.4183 10.6683C32.3449 10.6204 32.2702 10.5706 32.1941 10.5188C32.0279 10.5637 31.8661 10.5886 31.7085 10.5936C31.6855 10.5332 31.6481 10.4833 31.5964 10.444C31.4596 10.5 31.335 10.5747 31.2229 10.6683C31.0006 10.4927 30.7515 10.4927 30.4758 10.6683C30.3825 10.628 30.2954 10.5781 30.2143 10.5188C30.0475 10.5702 29.8857 10.5951 29.7287 10.5936C29.6788 10.5437 29.6291 10.4939 29.5793 10.444C29.4671 10.5377 29.3426 10.6124 29.2057 10.6683C29.154 10.6291 29.1166 10.5792 29.0936 10.5188C28.8824 10.5021 28.6708 10.552 28.4586 10.6683C28.3839 10.6185 28.3092 10.5687 28.2345 10.5188C28.0581 10.5578 27.8838 10.5827 27.7115 10.5936C27.6598 10.5543 27.6224 10.5045 27.5994 10.444C27.4749 10.5188 27.3504 10.5936 27.2259 10.6683C27.2029 10.6079 27.1655 10.5581 27.1138 10.5188C26.9083 10.5232 26.6966 10.573 26.4788 10.6683C26.3977 10.6091 26.3105 10.5592 26.2173 10.5188C26.0927 10.6185 25.9683 10.6185 25.8437 10.5188C25.7706 10.5545 25.7084 10.6043 25.6569 10.6683C25.6627 10.5758 25.6503 10.501 25.6196 10.444C25.4827 10.5 25.3582 10.5747 25.246 10.6683C25.0238 10.4927 24.7747 10.4927 24.4989 10.6683C24.3993 10.6185 24.2997 10.5687 24.2001 10.5188C24.0338 10.5637 23.872 10.5886 23.7145 10.5936C23.6914 10.5332 23.6541 10.4833 23.6024 10.444C23.4902 10.5377 23.3657 10.6124 23.2288 10.6683C23.1048 10.4008 22.9429 10.3759 22.7432 10.5936C22.7202 10.5332 22.6828 10.4833 22.6311 10.444C22.593 10.701 22.4561 10.726 22.2202 10.5188C22.0587 10.5517 21.8968 10.5766 21.7346 10.5936C21.6848 10.5437 21.635 10.4939 21.5852 10.444C21.4731 10.5377 21.3485 10.6124 21.2116 10.6683C21.1599 10.6291 21.1226 10.5792 21.0996 10.5188C20.896 10.4928 20.6967 10.5426 20.5019 10.6683C20.4208 10.6091 20.3336 10.5592 20.2404 10.5188C20.0822 10.5679 19.9327 10.5928 19.7921 10.5936C19.1296 10.1376 18.4074 9.80113 17.6255 9.58423C17.4349 9.21481 17.2356 8.85346 17.0278 8.50012C18.4824 8.4344 19.9516 8.4344 21.4358 8.50012C21.5903 8.4652 21.7397 8.41533 21.884 8.35059C21.9587 8.40046 22.0335 8.45025 22.1082 8.50012C25.5613 8.45855 28.998 8.45855 32.4183 8.50012Z"
        fill="#FEAB00" />
    <path fill-rule="evenodd" clip-rule="evenodd"
        d="M13.2926 10.5929C12.6615 11.1583 12.2631 11.8562 12.0973 12.6863C12.0359 12.9212 11.9986 13.1705 11.9852 13.434C11.9716 13.2302 11.9343 13.0308 11.8731 12.8359C11.7486 12.9355 11.6241 12.9355 11.4996 12.8359C11.4249 12.8858 11.3502 12.9355 11.2755 12.9854C11.066 12.9183 10.8543 12.8435 10.6404 12.7611C10.5573 12.8517 10.4701 12.8517 10.3789 12.7611C10.2633 12.9422 10.1388 12.9422 10.0054 12.7611C9.72095 12.9686 9.52169 12.9437 9.40769 12.6863C9.33155 12.7751 9.24437 12.8499 9.1462 12.9106C9.12132 12.8608 9.09637 12.811 9.07149 12.7611C8.93887 12.9513 8.80193 12.9513 8.66058 12.7611C8.56099 12.8608 8.46132 12.8608 8.36173 12.7611C8.33685 12.811 8.3119 12.8608 8.28702 12.9106C8.18743 12.8608 8.08777 12.811 7.98818 12.7611C7.73767 12.8566 7.48866 12.9314 7.24107 12.9854C7.09972 12.7952 6.96277 12.7952 6.83016 12.9854C6.80267 12.88 6.74043 12.8052 6.64338 12.7611C6.55224 12.8517 6.46505 12.8517 6.3819 12.7611C6.35888 12.8215 6.32153 12.8714 6.26983 12.9106C6.09329 12.7399 5.90651 12.7399 5.7095 12.9106C5.54543 12.817 5.39601 12.8419 5.26123 12.9854C5.04734 12.903 4.83568 12.8283 4.62619 12.7611C4.55148 12.8608 4.47677 12.8608 4.40206 12.7611C4.28641 12.9422 4.16194 12.9422 4.0285 12.7611C3.78166 12.9812 3.57 12.9563 3.39346 12.6863C3.34116 12.8009 3.25405 12.8757 3.13197 12.9106C2.96186 12.9469 2.79996 12.8971 2.64635 12.7611C2.5632 12.8517 2.47601 12.8517 2.38487 12.7611C2.28864 12.9088 2.16409 12.9088 2.01131 12.7611C1.76081 12.8566 1.51179 12.9314 1.2642 12.9854C1.15699 12.8433 1.03245 12.8184 0.890648 12.9106C0.752433 12.7679 0.603011 12.718 0.442383 12.7611C0.442383 12.0383 0.442383 11.3157 0.442383 10.5929C0.488479 10.6012 0.525835 10.6261 0.554449 10.6677C0.749295 10.5419 0.948549 10.4921 1.15214 10.5181C1.17515 10.5785 1.2125 10.6284 1.2642 10.6677C1.40107 10.6117 1.52562 10.537 1.63776 10.4434C1.68759 10.4932 1.73735 10.543 1.78718 10.5929C1.94422 10.5945 2.10604 10.5695 2.2728 10.5181C2.35386 10.5774 2.44105 10.6273 2.53429 10.6677C2.81004 10.492 3.05913 10.492 3.2814 10.6677C3.39354 10.5741 3.51808 10.4993 3.65495 10.4434C3.70665 10.4826 3.744 10.5325 3.76702 10.5929C3.92458 10.588 4.0864 10.5631 4.25264 10.5181C4.34588 10.5585 4.43306 10.6084 4.51412 10.6677C4.73198 10.5723 4.94371 10.5225 5.14917 10.5181C5.20087 10.5574 5.23822 10.6072 5.26123 10.6677C5.38578 10.5929 5.51024 10.5181 5.63479 10.4434C5.6578 10.5038 5.69515 10.5536 5.74685 10.5929C5.91914 10.582 6.09344 10.5571 6.26983 10.5181C6.36307 10.5585 6.45026 10.6084 6.53132 10.6677C6.72616 10.5419 6.92542 10.4921 7.129 10.5181C7.15202 10.5785 7.18937 10.6284 7.24107 10.6677C7.37794 10.6117 7.50248 10.537 7.61462 10.4434C7.66446 10.4932 7.71421 10.543 7.76405 10.5929C7.92624 10.5759 8.08814 10.551 8.24967 10.5181C8.48553 10.7253 8.62247 10.7003 8.66058 10.4434C8.71228 10.4826 8.74963 10.5325 8.77264 10.5929C8.97235 10.3752 9.13424 10.4001 9.25826 10.6677C9.3704 10.5741 9.49495 10.4993 9.63182 10.4434C9.68352 10.4826 9.72087 10.5325 9.74388 10.5929C9.90145 10.588 10.0633 10.5631 10.2295 10.5181C10.3291 10.568 10.4288 10.6178 10.5283 10.6677C10.7291 10.5546 10.9283 10.5047 11.126 10.5181C11.1759 10.568 11.2256 10.6178 11.2755 10.6677C11.3876 10.5741 11.5121 10.4993 11.649 10.4434C11.6797 10.5003 11.6921 10.5751 11.6864 10.6677C11.7378 10.6036 11.8001 10.5538 11.8731 10.5181C11.9977 10.6178 12.1222 10.6178 12.2467 10.5181C12.4463 10.667 12.6579 10.667 12.8817 10.5181C13.0087 10.5859 13.1457 10.6108 13.2926 10.5929Z"
        fill="#FEA500" />
    <path fill-rule="evenodd" clip-rule="evenodd"
        d="M32.4186 10.6677C32.4186 11.3904 32.4186 12.1131 32.4186 12.8359C32.3225 12.7411 32.2478 12.766 32.1945 12.9106C32.0179 12.7399 31.8312 12.7399 31.6342 12.9106C31.4928 12.8899 31.3932 12.8152 31.3353 12.6863C31.283 12.8009 31.1959 12.8757 31.0738 12.9106C30.9037 12.9469 30.7418 12.8971 30.5882 12.7611C30.505 12.8517 30.4179 12.8517 30.3267 12.7611C30.2305 12.9088 30.1059 12.9088 29.9532 12.7611C29.7027 12.8566 29.4536 12.9314 29.206 12.9854C29.0068 12.9106 28.8076 12.8359 28.6084 12.7611C28.5172 12.8517 28.43 12.8517 28.3469 12.7611C28.243 12.9267 28.1185 12.9267 27.9733 12.7611C27.723 12.849 27.474 12.9238 27.2262 12.9854C27.0684 12.8043 26.919 12.8043 26.7779 12.9854C26.7505 12.88 26.6882 12.8052 26.5912 12.7611C26.5 12.8517 26.4128 12.8517 26.3297 12.7611C26.3067 12.8215 26.2693 12.8714 26.2176 12.9106C26.0411 12.7399 25.8543 12.7399 25.6573 12.9106C25.5005 12.8076 25.3635 12.8326 25.2464 12.9854C25.0369 12.9183 24.8252 12.8435 24.6113 12.7611C24.5282 12.8517 24.441 12.8517 24.3498 12.7611C24.2342 12.9422 24.1097 12.9422 23.9763 12.7611C23.7218 12.86 23.4728 12.9347 23.2292 12.9854C23.1321 12.9413 23.0699 12.8665 23.0424 12.7611C22.9098 12.9513 22.7728 12.9513 22.6315 12.7611C22.5319 12.8608 22.4322 12.8608 22.3326 12.7611C22.3078 12.811 22.2828 12.8608 22.2579 12.9106C21.9826 12.7112 21.7585 12.7611 21.5855 13.0602C21.1879 12.089 20.5902 11.2665 19.7925 10.5929C19.9331 10.5921 20.0825 10.5672 20.2407 10.5181C20.334 10.5585 20.4212 10.6084 20.5022 10.6677C20.6971 10.5419 20.8963 10.4921 21.0999 10.5181C21.1229 10.5785 21.1603 10.6284 21.212 10.6677C21.3489 10.6117 21.4734 10.537 21.5855 10.4434C21.6354 10.4932 21.6851 10.543 21.735 10.5929C21.8972 10.5759 22.0591 10.551 22.2206 10.5181C22.4564 10.7253 22.5934 10.7003 22.6315 10.4434C22.6832 10.4826 22.7205 10.5325 22.7436 10.5929C22.9433 10.3752 23.1052 10.4001 23.2292 10.6677C23.3661 10.6117 23.4906 10.537 23.6027 10.4434C23.6544 10.4826 23.6918 10.5325 23.7148 10.5929C23.8724 10.588 24.0342 10.5631 24.2004 10.5181C24.3 10.568 24.3997 10.6178 24.4993 10.6677C24.775 10.492 25.0241 10.492 25.2464 10.6677C25.3585 10.5741 25.4831 10.4993 25.6199 10.4434C25.6506 10.5003 25.663 10.5751 25.6573 10.6677C25.7088 10.6036 25.771 10.5538 25.8441 10.5181C25.9686 10.6178 26.0931 10.6178 26.2176 10.5181C26.3109 10.5585 26.398 10.6084 26.4791 10.6677C26.697 10.5723 26.9087 10.5225 27.1141 10.5181C27.1658 10.5574 27.2032 10.6072 27.2262 10.6677C27.3508 10.5929 27.4752 10.5181 27.5998 10.4434C27.6228 10.5038 27.6601 10.5536 27.7118 10.5929C27.8841 10.582 28.0584 10.5571 28.2348 10.5181C28.3095 10.568 28.3842 10.6178 28.4589 10.6677C28.6711 10.5513 28.8828 10.5015 29.094 10.5181C29.117 10.5785 29.1543 10.6284 29.206 10.6677C29.3429 10.6117 29.4675 10.537 29.5796 10.4434C29.6294 10.4932 29.6792 10.543 29.729 10.5929C29.8861 10.5945 30.0479 10.5695 30.2146 10.5181C30.2957 10.5774 30.3829 10.6273 30.4761 10.6677C30.7519 10.492 31.001 10.492 31.2232 10.6677C31.3354 10.5741 31.4599 10.4993 31.5968 10.4434C31.6485 10.4826 31.6859 10.5325 31.7089 10.5929C31.8664 10.588 32.0283 10.5631 32.1945 10.5181C32.2705 10.5699 32.3452 10.6197 32.4186 10.6677Z"
        fill="#FEA500" />
    <path fill-rule="evenodd" clip-rule="evenodd"
        d="M15.9819 11.2656C16.0566 11.2656 16.1313 11.2656 16.206 11.2656C16.2517 12.1882 15.9529 12.9732 15.3095 13.6208C14.8071 14.0137 14.3713 13.9513 14.002 13.4338C13.8958 13.2447 13.8709 13.0453 13.9273 12.8357C14.3582 11.9785 15.043 11.4552 15.9819 11.2656Z"
        fill="#FEA200" />
    <path fill-rule="evenodd" clip-rule="evenodd"
        d="M12.0973 12.6875C12.0013 13.5959 12.2752 14.3685 12.9191 15.0053C12.8315 15.0953 12.7319 15.0953 12.6203 15.0053C12.524 15.1529 12.3995 15.1529 12.2467 15.0053C12.1303 15.0704 12.0058 15.1451 11.8731 15.2296C11.7748 15.0405 11.6876 15.0405 11.6117 15.2296C11.4872 15.0873 11.3502 15.0623 11.2007 15.1548C10.9984 15.1143 10.7993 15.0645 10.6031 15.0053C10.5782 15.0551 10.5532 15.1049 10.5283 15.1548C10.4288 15.1049 10.3291 15.0551 10.2295 15.0053C10.1131 15.0704 9.98856 15.1451 9.85595 15.2296C9.80425 15.1903 9.7669 15.1404 9.74388 15.08C9.72087 15.1404 9.68352 15.1903 9.63182 15.2296C9.56271 15.1442 9.5004 15.1442 9.44504 15.2296C9.41859 15.0571 9.34388 15.0321 9.22091 15.1548C9.03234 15.1096 8.84556 15.0598 8.66058 15.0053C8.54493 15.1863 8.42046 15.1863 8.28702 15.0053C8.17137 15.1863 8.0469 15.1863 7.91347 15.0053C7.76614 15.0654 7.65407 15.1652 7.57727 15.3043C7.54978 15.1989 7.48754 15.1241 7.39049 15.08C7.20132 15.111 7.01455 15.1359 6.83016 15.1548C6.7172 14.9711 6.61753 14.9711 6.53132 15.1548C6.45026 15.0955 6.36307 15.0456 6.26983 15.0053C6.15343 15.0704 6.02889 15.1451 5.89628 15.2296C5.79796 15.0405 5.71077 15.0405 5.63479 15.2296C5.50001 15.0861 5.35059 15.0612 5.18652 15.1548C4.99795 15.1096 4.81118 15.0598 4.62619 15.0053C4.52996 15.1529 4.40542 15.1529 4.25264 15.0053C4.13624 15.0704 4.01169 15.1451 3.87908 15.2296C3.82738 15.1903 3.79003 15.1404 3.76702 15.08C3.66309 15.2456 3.53863 15.2456 3.39346 15.08C3.14124 15.1447 2.89215 15.1198 2.64635 15.0053C2.54243 15.1709 2.41796 15.1709 2.2728 15.0053C2.14826 15.08 2.02379 15.1548 1.89924 15.2296C1.82326 15.0405 1.73608 15.0405 1.63776 15.2296C1.56305 15.1797 1.48833 15.1299 1.41362 15.08C1.05852 15.0675 0.734726 15.0675 0.442383 15.08C0.442383 14.3075 0.442383 13.5348 0.442383 12.7623C0.603011 12.7192 0.752433 12.7691 0.890648 12.9118C1.03245 12.8195 1.15699 12.8444 1.2642 12.9866C1.51179 12.9325 1.76081 12.8577 2.01131 12.7623C2.16409 12.9099 2.28864 12.9099 2.38487 12.7623C2.47601 12.8528 2.5632 12.8528 2.64635 12.7623C2.79996 12.8983 2.96186 12.9481 3.13197 12.9118C3.25405 12.8768 3.34116 12.802 3.39346 12.6875C3.57 12.9574 3.78166 12.9824 4.0285 12.7623C4.16194 12.9434 4.28641 12.9434 4.40206 12.7623C4.47677 12.8619 4.55148 12.8619 4.62619 12.7623C4.83568 12.8294 5.04734 12.9042 5.26123 12.9866C5.39601 12.8431 5.54543 12.8182 5.7095 12.9118C5.90651 12.741 6.09329 12.741 6.26983 12.9118C6.32153 12.8725 6.35889 12.8227 6.3819 12.7623C6.46505 12.8528 6.55224 12.8528 6.64338 12.7623C6.74043 12.8064 6.80267 12.8811 6.83016 12.9866C6.96277 12.7964 7.09972 12.7964 7.24107 12.9866C7.48866 12.9325 7.73767 12.8577 7.98818 12.7623C8.08777 12.8121 8.18743 12.8619 8.28702 12.9118C8.3119 12.8619 8.33686 12.8121 8.36173 12.7623C8.46132 12.8619 8.56099 12.8619 8.66058 12.7623C8.80193 12.9525 8.93888 12.9525 9.07149 12.7623C9.09637 12.8121 9.12132 12.8619 9.1462 12.9118C9.24437 12.851 9.33156 12.7762 9.40769 12.6875C9.52169 12.9448 9.72095 12.9697 10.0054 12.7623C10.1388 12.9434 10.2633 12.9434 10.3789 12.7623C10.4701 12.8528 10.5573 12.8528 10.6404 12.7623C10.8543 12.8447 11.066 12.9194 11.2755 12.9866C11.3502 12.9367 11.4249 12.8869 11.4996 12.837C11.6241 12.9367 11.7486 12.9367 11.8731 12.837C11.9343 13.0319 11.9716 13.2314 11.9852 13.4352C11.9986 13.1716 12.0359 12.9223 12.0973 12.6875Z"
        fill="#FE9F00" />
    <path fill-rule="evenodd" clip-rule="evenodd"
        d="M20.0163 15.2289C19.8935 15.2304 19.7939 15.1805 19.7174 15.0793C19.6212 15.227 19.4967 15.227 19.3439 15.0793C19.0935 15.1345 18.8445 15.1096 18.5968 15.0046C18.5006 15.1522 18.376 15.1522 18.2232 15.0046C18.1068 15.0697 17.9823 15.1444 17.8497 15.2289C17.798 15.1896 17.7606 15.1397 17.7376 15.0793C17.6337 15.2449 17.5092 15.2449 17.3641 15.0793C17.3099 15.1211 17.2477 15.146 17.1773 15.1541C16.9644 15.1194 16.7652 15.0695 16.5796 15.0046C17.4794 14.1001 17.9775 13.0035 18.0738 11.7148C19.4409 12.4817 20.0884 13.6531 20.0163 15.2289Z"
        fill="#FE9E00" />
    <path fill-rule="evenodd" clip-rule="evenodd"
        d="M32.4185 12.837C32.4185 13.6096 32.4185 14.3822 32.4185 15.1548C32.3452 15.1069 32.2704 15.0571 32.1944 15.0053C32.078 15.0704 31.9534 15.1451 31.8208 15.2296C31.7691 15.1903 31.7318 15.1404 31.7088 15.08C31.6048 15.2456 31.4804 15.2456 31.3352 15.08C31.083 15.1447 30.8339 15.1198 30.5881 15.0053C30.4842 15.1709 30.3597 15.1709 30.2146 15.0053C30.09 15.08 29.9655 15.1548 29.841 15.2296C29.765 15.0405 29.6778 15.0405 29.5795 15.2296C29.4624 15.0767 29.3253 15.0518 29.1686 15.1548C28.98 15.1096 28.7933 15.0598 28.6083 15.0053C28.4926 15.1863 28.3681 15.1863 28.2347 15.0053C28.1654 15.1425 28.0783 15.1673 27.9732 15.08C27.8972 15.269 27.8101 15.269 27.7117 15.08C27.6155 15.2277 27.491 15.2277 27.3382 15.08C27.0878 15.1352 26.8388 15.1103 26.5911 15.0053C26.4948 15.1529 26.3703 15.1529 26.2175 15.0053C26.1614 15.0708 26.1241 15.1455 26.1055 15.2296C26.0034 15.0336 25.8665 14.9837 25.6945 15.08C25.5221 15.0491 25.3477 15.0242 25.1716 15.0053C24.0746 15.18 22.9788 15.3545 21.8843 15.5286C21.9506 14.6827 21.851 13.8603 21.5854 13.0613C21.7584 12.7623 21.9825 12.7124 22.2578 12.9118C22.2827 12.8619 22.3077 12.8121 22.3326 12.7623C22.4321 12.8619 22.5318 12.8619 22.6314 12.7623C22.7728 12.9525 22.9097 12.9525 23.0423 12.7623C23.0698 12.8677 23.132 12.9425 23.2291 12.9866C23.4727 12.9359 23.7217 12.8611 23.9762 12.7623C24.1096 12.9434 24.2341 12.9434 24.3498 12.7623C24.4409 12.8528 24.5281 12.8528 24.6112 12.7623C24.8251 12.8447 25.0368 12.9194 25.2463 12.9866C25.3634 12.8337 25.5004 12.8088 25.6572 12.9118C25.8542 12.741 26.041 12.741 26.2175 12.9118C26.2692 12.8725 26.3066 12.8227 26.3296 12.7623C26.4127 12.8528 26.4999 12.8528 26.5911 12.7623C26.6881 12.8064 26.7504 12.8811 26.7779 12.9866C26.9189 12.8055 27.0683 12.8055 27.2261 12.9866C27.4739 12.925 27.7229 12.8502 27.9732 12.7623C28.1184 12.9279 28.2429 12.9279 28.3468 12.7623C28.4299 12.8528 28.5171 12.8528 28.6083 12.7623C28.8075 12.837 29.0067 12.9118 29.206 12.9866C29.4535 12.9325 29.7026 12.8577 29.9531 12.7623C30.1058 12.9099 30.2304 12.9099 30.3266 12.7623C30.4178 12.8528 30.505 12.8528 30.5881 12.7623C30.7417 12.8983 30.9036 12.9481 31.0737 12.9118C31.1958 12.8768 31.2829 12.802 31.3352 12.6875C31.3931 12.8163 31.4927 12.8911 31.6341 12.9118C31.8311 12.741 32.0178 12.741 32.1944 12.9118C32.2477 12.7671 32.3224 12.7422 32.4185 12.837Z"
        fill="#FF9F00" />
    <path fill-rule="evenodd" clip-rule="evenodd"
        d="M12.9191 15.0049C13.4102 15.4684 13.9955 15.6927 14.6748 15.6778C15.3825 15.6536 16.0175 15.4293 16.5799 15.0049C16.7655 15.0699 16.9648 15.1197 17.1776 15.1544C17.248 15.1463 17.3102 15.1214 17.3644 15.0796C17.5096 15.2453 17.634 15.2453 17.7379 15.0796C17.761 15.1401 17.7983 15.1899 17.85 15.2292C17.9826 15.1448 18.1072 15.07 18.2236 15.0049C18.3764 15.1525 18.5009 15.1525 18.5971 15.0049C18.8449 15.1099 19.0939 15.1348 19.3442 15.0796C19.497 15.2273 19.6216 15.2273 19.7178 15.0796C19.7943 15.1808 19.8939 15.2307 20.0166 15.2292C20.016 15.4568 19.9912 15.6811 19.9419 15.9021C15.7593 16.6407 11.5755 17.3759 7.39049 18.1077C7.10106 18.2147 6.85205 18.3766 6.64338 18.5937C6.42852 18.6082 6.21679 18.5335 6.00834 18.3694C5.87282 18.6213 5.73587 18.6338 5.59743 18.4068C5.50987 18.3804 5.42276 18.3928 5.33594 18.4441C5.16187 18.2552 5.01245 18.2802 4.88768 18.5189C4.74252 18.3533 4.61805 18.3533 4.51412 18.5189C4.43814 18.3299 4.35096 18.3299 4.25264 18.5189C4.07258 18.331 3.91076 18.356 3.76702 18.5937C3.66309 18.3916 3.51367 18.3418 3.31875 18.4441C3.15155 18.246 3.0146 18.2709 2.90784 18.5189C2.75506 18.3712 2.63051 18.3712 2.53429 18.5189C2.43597 18.3299 2.34878 18.3299 2.2728 18.5189C2.19174 18.4596 2.10455 18.4097 2.01131 18.3694C1.85987 18.658 1.69797 18.658 1.52569 18.3694C1.37462 18.4808 1.25016 18.4559 1.15214 18.2946C1.00839 18.5323 0.846569 18.5573 0.666515 18.3694C0.614815 18.4086 0.57746 18.4585 0.554449 18.5189C0.533679 18.4504 0.496324 18.4006 0.442383 18.3694C0.442383 17.2728 0.442383 16.1762 0.442383 15.0796C0.734726 15.0671 1.05852 15.0671 1.41362 15.0796C1.48833 15.1295 1.56305 15.1793 1.63776 15.2292C1.73608 15.0402 1.82326 15.0402 1.89924 15.2292C2.02379 15.1544 2.14826 15.0796 2.2728 15.0049C2.41796 15.1705 2.54243 15.1705 2.64635 15.0049C2.89215 15.1194 3.14124 15.1443 3.39346 15.0796C3.53863 15.2453 3.66309 15.2453 3.76702 15.0796C3.79003 15.1401 3.82738 15.1899 3.87908 15.2292C4.01169 15.1448 4.13624 15.07 4.25264 15.0049C4.40542 15.1525 4.52996 15.1525 4.62619 15.0049C4.81118 15.0594 4.99795 15.1093 5.18652 15.1544C5.35059 15.0608 5.50001 15.0857 5.63479 15.2292C5.71077 15.0402 5.79796 15.0402 5.89628 15.2292C6.02889 15.1448 6.15343 15.07 6.26983 15.0049C6.36307 15.0453 6.45026 15.0951 6.53132 15.1544C6.61753 14.9707 6.7172 14.9707 6.83016 15.1544C7.01455 15.1356 7.20132 15.1106 7.39049 15.0796C7.48754 15.1238 7.54978 15.1985 7.57727 15.3039C7.65407 15.1648 7.76614 15.0651 7.91347 15.0049C8.0469 15.186 8.17137 15.186 8.28702 15.0049C8.42046 15.186 8.54493 15.186 8.66058 15.0049C8.84556 15.0594 9.03234 15.1093 9.22091 15.1544C9.34388 15.0317 9.41859 15.0567 9.44504 15.2292C9.5004 15.1439 9.56271 15.1439 9.63182 15.2292C9.68352 15.1899 9.72087 15.1401 9.74388 15.0796C9.7669 15.1401 9.80425 15.1899 9.85595 15.2292C9.98856 15.1448 10.1131 15.07 10.2295 15.0049C10.3291 15.0548 10.4288 15.1045 10.5283 15.1544C10.5532 15.1045 10.5782 15.0548 10.6031 15.0049C10.7993 15.0641 10.9984 15.114 11.2007 15.1544C11.3502 15.0619 11.4872 15.0869 11.6117 15.2292C11.6876 15.0402 11.7748 15.0402 11.8731 15.2292C12.0058 15.1448 12.1303 15.07 12.2467 15.0049C12.3995 15.1525 12.524 15.1525 12.6203 15.0049C12.7319 15.095 12.8315 15.095 12.9191 15.0049Z"
        fill="#FF9901" />
    <path fill-rule="evenodd" clip-rule="evenodd"
        d="M32.4183 15.1544C32.4183 16.2759 32.4183 17.3974 32.4183 18.5189C32.3644 18.4876 32.327 18.4379 32.3062 18.3694C32.2832 18.4298 32.2459 18.4796 32.1942 18.5189C32.0141 18.331 31.8523 18.356 31.7086 18.5937C31.658 18.43 31.5708 18.4051 31.4471 18.5189C31.3012 18.4797 31.1766 18.405 31.0735 18.2946C30.9824 18.3516 30.9077 18.4264 30.8494 18.5189C30.6966 18.3712 30.5721 18.3712 30.4758 18.5189C30.3775 18.3299 30.2903 18.3299 30.2143 18.5189C30.1333 18.4596 30.0461 18.4097 29.9529 18.3694C29.8945 18.4619 29.8198 18.5366 29.7287 18.5937C29.5208 18.5345 29.3091 18.4349 29.0937 18.2946C28.9499 18.5323 28.7881 18.5573 28.6081 18.3694C28.5097 18.5584 28.4226 18.5584 28.3466 18.3694C28.2426 18.535 28.1182 18.535 27.973 18.3694C27.8605 18.5917 27.736 18.6166 27.5995 18.4441C27.4149 18.5116 27.253 18.4619 27.1138 18.2946C26.9918 18.3296 26.9047 18.4044 26.8524 18.5189C26.7713 18.4596 26.6841 18.4097 26.5909 18.3694C26.5138 18.5707 26.3893 18.6206 26.2173 18.5189C26.3473 17.6259 26.3847 16.7287 26.3294 15.8273C26.1816 15.5179 25.9699 15.2687 25.6943 15.0796C25.8662 14.9834 26.0032 15.0332 26.1052 15.2292C26.1238 15.1451 26.1612 15.0704 26.2173 15.0049C26.3701 15.1525 26.4946 15.1525 26.5909 15.0049C26.8386 15.1099 27.0876 15.1348 27.338 15.0796C27.4908 15.2273 27.6153 15.2273 27.7115 15.0796C27.8098 15.2687 27.897 15.2687 27.973 15.0796C28.0781 15.167 28.1652 15.1421 28.2345 15.0049C28.3679 15.186 28.4924 15.186 28.6081 15.0049C28.793 15.0594 28.9798 15.1093 29.1684 15.1544C29.3251 15.0514 29.4622 15.0764 29.5793 15.2292C29.6776 15.0402 29.7648 15.0402 29.8408 15.2292C29.9653 15.1544 30.0898 15.0796 30.2143 15.0049C30.3595 15.1705 30.484 15.1705 30.5879 15.0049C30.8337 15.1194 31.0828 15.1443 31.335 15.0796C31.4802 15.2453 31.6046 15.2453 31.7086 15.0796C31.7316 15.1401 31.7689 15.1899 31.8206 15.2292C31.9532 15.1448 32.0778 15.07 32.1942 15.0049C32.2702 15.0567 32.3449 15.1065 32.4183 15.1544Z"
        fill="#FF9801" />
    <path fill-rule="evenodd" clip-rule="evenodd"
        d="M25.6943 15.0796C25.9699 15.2687 26.1816 15.5179 26.3293 15.8273C26.3846 16.7287 26.3473 17.6259 26.2173 18.5189C25.9237 19.8242 25.4256 21.0454 24.7231 22.1824C22.0221 25.8498 18.4111 27.2829 13.89 26.4815C11.4292 25.8368 9.43692 24.5035 7.91312 22.4815C7.33455 21.5724 6.87381 20.6005 6.53096 19.5656C6.46746 19.2276 6.50482 18.9036 6.64303 18.5937C6.8517 18.3766 7.10071 18.2147 7.39014 18.1077C11.5751 17.3759 15.759 16.6407 19.9416 15.9021C20.5987 15.8189 21.2462 15.6943 21.884 15.5282C22.9786 15.3541 24.0743 15.1796 25.1713 15.0049C25.3475 15.0238 25.5219 15.0487 25.6943 15.0796Z"
        fill="#FFFEFE" />
    <path fill-rule="evenodd" clip-rule="evenodd"
        d="M6.64338 18.594C6.50517 18.9039 6.46781 19.2279 6.53132 19.5659C6.87417 20.6008 7.33491 21.5728 7.91347 22.4818C7.77615 22.5175 7.63913 22.5424 7.50256 22.5566C7.4215 22.4973 7.33431 22.4474 7.24107 22.4071C7.15231 22.5073 7.04025 22.5571 6.90487 22.5566C6.75194 22.4785 6.60252 22.4785 6.45661 22.5566C6.40677 22.5067 6.35702 22.4569 6.30718 22.4071C6.21118 22.4407 6.12399 22.4906 6.0457 22.5566C5.5284 22.5452 4.99302 22.5452 4.43941 22.5566C4.30777 22.5234 4.32025 22.486 4.47677 22.4445C4.30426 22.3879 4.15484 22.4253 4.0285 22.5566C3.52697 22.5531 3.00399 22.5531 2.45958 22.5566C2.26809 22.5389 2.26809 22.5015 2.45958 22.4445C2.29753 22.4124 2.14811 22.4498 2.01131 22.5566C1.50851 22.5519 0.985531 22.5519 0.442383 22.5566C0.442383 21.1609 0.442383 19.7654 0.442383 18.3697C0.496324 18.4009 0.533679 18.4507 0.554449 18.5192C0.57746 18.4588 0.614815 18.4089 0.666515 18.3697C0.846569 18.5576 1.00839 18.5326 1.15214 18.2949C1.25016 18.4563 1.37462 18.4812 1.52569 18.3697C1.69797 18.6584 1.85987 18.6584 2.01131 18.3697C2.10455 18.4101 2.19174 18.4599 2.2728 18.5192C2.34878 18.3302 2.43597 18.3302 2.53429 18.5192C2.63051 18.3716 2.75506 18.3716 2.90784 18.5192C3.0146 18.2712 3.15155 18.2463 3.31875 18.4445C3.51367 18.3421 3.66309 18.3919 3.76702 18.594C3.91076 18.3563 4.07258 18.3313 4.25264 18.5192C4.35096 18.3302 4.43814 18.3302 4.51412 18.5192C4.61805 18.3536 4.74252 18.3536 4.88768 18.5192C5.01245 18.2805 5.16187 18.2555 5.33594 18.4445C5.42276 18.3931 5.50987 18.3807 5.59743 18.4071C5.73587 18.6341 5.87282 18.6217 6.00834 18.3697C6.21678 18.5338 6.42852 18.6086 6.64338 18.594Z"
        fill="#FF9200" />
    <path fill-rule="evenodd" clip-rule="evenodd"
        d="M32.4184 18.5192C32.4184 19.865 32.4184 21.2108 32.4184 22.5566C32.3203 22.5324 32.2581 22.4825 32.2316 22.4071C32.1356 22.4407 32.0484 22.4906 31.9701 22.5566C31.4686 22.5531 30.9456 22.5531 30.4012 22.5566C30.2097 22.5389 30.2097 22.5015 30.4012 22.4445C30.2391 22.4124 30.0897 22.4498 29.9529 22.5566C29.4621 22.5493 28.9516 22.5493 28.4213 22.5566C28.3715 22.5067 28.3217 22.4569 28.2719 22.4071C28.1619 22.4372 28.0623 22.4871 27.9731 22.5566C27.4735 22.5535 26.9505 22.5535 26.4041 22.5566C26.2725 22.5234 26.285 22.486 26.4415 22.4445C26.269 22.3879 26.1196 22.4253 25.9932 22.5566C25.8109 22.3755 25.6366 22.3755 25.4703 22.5566C25.3955 22.5067 25.3208 22.4569 25.2461 22.4071C25.0576 22.5253 24.8584 22.5627 24.6484 22.5192C24.6983 22.4943 24.748 22.4693 24.7979 22.4445C24.7864 22.3541 24.7615 22.2669 24.7231 22.1828C25.4257 21.0457 25.9238 19.8246 26.2174 18.5192C26.3893 18.6209 26.5138 18.571 26.5909 18.3697C26.6842 18.4101 26.7713 18.4599 26.8524 18.5192C26.9047 18.4047 26.9918 18.3299 27.1139 18.2949C27.253 18.4622 27.4149 18.512 27.5995 18.4445C27.7361 18.6169 27.8606 18.592 27.9731 18.3697C28.1182 18.5353 28.2427 18.5353 28.3466 18.3697C28.4226 18.5587 28.5098 18.5587 28.6081 18.3697C28.7882 18.5576 28.95 18.5326 29.0937 18.2949C29.3092 18.4352 29.5209 18.5348 29.7288 18.594C29.8198 18.5369 29.8946 18.4622 29.9529 18.3697C30.0461 18.4101 30.1333 18.4599 30.2144 18.5192C30.2904 18.3302 30.3776 18.3302 30.4759 18.5192C30.5721 18.3716 30.6967 18.3716 30.8494 18.5192C30.9078 18.4267 30.9825 18.352 31.0736 18.2949C31.1767 18.4053 31.3012 18.48 31.4471 18.5192C31.5708 18.4054 31.658 18.4303 31.7086 18.594C31.8524 18.3563 32.0142 18.3313 32.1942 18.5192C32.2459 18.48 32.2833 18.4301 32.3063 18.3697C32.3271 18.4382 32.3644 18.488 32.4184 18.5192Z"
        fill="#FF9200" />
    <path fill-rule="evenodd" clip-rule="evenodd"
        d="M24.7232 22.1816C24.7616 22.2658 24.7865 22.3529 24.7979 22.4433C24.7481 22.4682 24.6983 22.4932 24.6485 22.5181C24.8584 22.5615 25.0577 22.5241 25.2462 22.4059C25.3209 22.4558 25.3956 22.5056 25.4703 22.5555C25.6366 22.3744 25.811 22.3744 25.9933 22.5555C26.1196 22.4242 26.2691 22.3868 26.4416 22.4433C26.285 22.4849 26.2726 22.5223 26.4042 22.5555C26.9506 22.5524 27.4735 22.5524 27.9731 22.5555C28.0623 22.4859 28.1619 22.4361 28.272 22.4059C28.3218 22.4558 28.3716 22.5056 28.4214 22.5555C28.9516 22.5482 29.4621 22.5482 29.953 22.5555C30.0898 22.4486 30.2392 22.4112 30.4012 22.4433C30.2098 22.5004 30.2098 22.5378 30.4012 22.5555C30.9457 22.552 31.4686 22.552 31.9702 22.5555C32.0485 22.4895 32.1356 22.4396 32.2317 22.4059C32.2582 22.4814 32.3204 22.5312 32.4184 22.5555C32.4799 24.1104 32.3927 25.6556 32.1569 27.191C31.9158 28.1721 31.4799 29.0444 30.8495 29.8078C30.7273 29.7095 30.6029 29.7095 30.4759 29.8078C30.4246 29.6542 30.3374 29.5296 30.2145 29.434C30.1684 29.5049 30.1808 29.5672 30.2518 29.6209C30.2126 29.6726 30.1628 29.71 30.1024 29.733C30.0263 29.6443 29.9391 29.5695 29.8409 29.5087C29.6304 29.5404 29.4188 29.5653 29.2059 29.5835C29.1002 29.5114 29.038 29.4366 29.0191 29.3592C28.9481 29.3982 28.8858 29.4481 28.8323 29.5087C28.7885 29.4931 28.7512 29.4681 28.7202 29.434C28.6829 29.5212 28.6207 29.5835 28.5335 29.6209C28.7049 29.6945 28.68 29.7567 28.4588 29.8078C28.4165 29.6575 28.3418 29.533 28.2346 29.434C28.1521 29.5185 28.177 29.5809 28.3093 29.6209C28.2346 29.6583 28.1599 29.6957 28.0852 29.733C28.0269 29.6406 27.9521 29.5658 27.8611 29.5087C27.6481 29.527 27.4365 29.5519 27.226 29.5835C27.0218 29.5191 27.0093 29.4568 27.1887 29.3966C27.0443 29.338 26.9322 29.3754 26.8525 29.5087C26.8215 29.4746 26.7842 29.4496 26.7404 29.434C26.6766 29.5104 26.6019 29.5727 26.5163 29.6209C26.6957 29.6811 26.6832 29.7434 26.4789 29.8078C26.4528 29.5675 26.3408 29.4678 26.1427 29.5087C26.1819 29.5605 26.2318 29.5979 26.2921 29.6209C26.2237 29.6489 26.1614 29.6862 26.1054 29.733C26.0531 29.6185 25.966 29.5437 25.8439 29.5087C25.5377 29.504 25.2389 29.529 24.9473 29.5835C24.7056 29.4058 24.5437 29.4806 24.4617 29.8078C24.4434 29.6461 24.3687 29.5214 24.2376 29.434C24.081 29.5248 24.0935 29.5872 24.2749 29.6209C24.2428 29.6897 24.2179 29.752 24.2002 29.8078C23.9507 29.6326 23.7514 29.4083 23.6025 29.1349C23.5464 29.2004 23.5091 29.2752 23.4905 29.3592C23.4656 29.2346 23.4406 29.11 23.4158 28.9854C23.261 29.1878 23.2983 29.3497 23.5278 29.4714C23.4253 29.5014 23.3257 29.5388 23.229 29.5835C23.1234 29.5114 23.0611 29.4366 23.0422 29.3592C22.9712 29.3982 22.9089 29.4481 22.8554 29.5087C22.7342 29.4358 22.6345 29.4732 22.5566 29.6209C22.7281 29.6945 22.7031 29.7567 22.4819 29.8078C22.4306 29.6542 22.3434 29.5296 22.2204 29.434C22.1743 29.5049 22.1867 29.5672 22.2578 29.6209C22.2185 29.6726 22.1687 29.71 22.1083 29.733C22.05 29.6406 21.9753 29.5658 21.8842 29.5087C21.5414 29.6077 21.5165 29.5703 21.8095 29.3966C21.7146 29.3293 21.6399 29.2421 21.5854 29.1349C21.6133 29.2299 21.5635 29.3172 21.4359 29.3966C21.4608 29.4215 21.4858 29.4465 21.5106 29.4714C21.4081 29.5014 21.3086 29.5388 21.2118 29.5835C21.1062 29.5114 21.0439 29.4366 21.025 29.3592C20.954 29.3982 20.8917 29.4481 20.8382 29.5087C20.7945 29.4931 20.7571 29.4681 20.7262 29.434C20.6888 29.5212 20.6266 29.5835 20.5394 29.6209C20.7188 29.6811 20.7063 29.7434 20.502 29.8078C20.3812 29.7303 20.3688 29.6431 20.4647 29.5461C20.3618 29.4533 20.2622 29.4409 20.1658 29.5087C20.3512 29.6104 20.3263 29.6852 20.0911 29.733C20.0018 29.7072 20.0018 29.6698 20.0911 29.6209C20.0164 29.5835 19.9417 29.5461 19.867 29.5087C19.6541 29.527 19.4424 29.5519 19.232 29.5835C19.0277 29.5191 19.0152 29.4568 19.1946 29.3966C19.0502 29.338 18.9381 29.3754 18.8584 29.5087C18.8275 29.4746 18.7901 29.4496 18.7463 29.434C18.6825 29.5104 18.6078 29.5727 18.5222 29.6209C18.7016 29.6811 18.6891 29.7434 18.4849 29.8078C18.4702 29.6281 18.3831 29.5034 18.2234 29.434C18.1409 29.5185 18.1658 29.5809 18.2981 29.6209C18.2296 29.6489 18.1673 29.6862 18.1113 29.733C18.059 29.6185 17.9719 29.5437 17.8498 29.5087C17.6506 29.5336 17.4514 29.5586 17.2521 29.5835C17.0309 29.5324 17.006 29.4702 17.1774 29.3966C17.0553 29.3562 16.9557 29.3936 16.8786 29.5087C16.8287 29.4838 16.779 29.4589 16.7291 29.434C16.6383 29.5689 16.5636 29.6935 16.505 29.8078C16.4537 29.6542 16.3665 29.5296 16.2435 29.434C16.1974 29.5049 16.2098 29.5672 16.2809 29.6209C16.2417 29.6726 16.1918 29.71 16.1315 29.733C16.0553 29.6443 15.9681 29.5695 15.87 29.5087C15.6595 29.5404 15.4479 29.5653 15.2349 29.5835C15.1293 29.5114 15.0671 29.4366 15.0482 29.3592C14.9772 29.3982 14.9149 29.4481 14.8614 29.5087C14.8176 29.4931 14.7802 29.4681 14.7493 29.434C14.712 29.5212 14.6497 29.5835 14.5625 29.6209C14.734 29.6945 14.709 29.7567 14.4878 29.8078C14.4456 29.6575 14.3709 29.533 14.2637 29.434C14.1812 29.5185 14.2061 29.5809 14.3384 29.6209C14.2637 29.6583 14.189 29.6957 14.1143 29.733C14.0559 29.6406 13.9812 29.5658 13.8901 29.5087C13.6772 29.527 13.4656 29.5519 13.2551 29.5835C13.0508 29.5191 13.0384 29.4568 13.2177 29.3966C13.0733 29.338 12.9613 29.3754 12.8815 29.5087C12.8506 29.4746 12.8133 29.4496 12.7695 29.434C12.7057 29.5104 12.631 29.5727 12.5453 29.6209C12.7247 29.6811 12.7122 29.7434 12.508 29.8078C12.4819 29.5675 12.3698 29.4678 12.1718 29.5087C12.211 29.5605 12.2608 29.5979 12.3212 29.6209C12.2528 29.6489 12.1905 29.6862 12.1344 29.733C12.0821 29.6185 11.995 29.5437 11.8729 29.5087C11.5668 29.504 11.2679 29.529 10.9764 29.5835C10.9017 29.5336 10.827 29.4838 10.7523 29.434C10.6614 29.5689 10.5867 29.6935 10.5281 29.8078C10.4768 29.6542 10.3896 29.5296 10.2667 29.434C10.1101 29.5248 10.1225 29.5872 10.304 29.6209C10.2719 29.6897 10.2469 29.752 10.2293 29.8078C9.97977 29.6326 9.78051 29.4083 9.63162 29.1349C9.57708 29.2421 9.50237 29.3293 9.40748 29.3966C9.45732 29.4215 9.50707 29.4465 9.5569 29.4714C9.4544 29.5014 9.35481 29.5388 9.25806 29.5835C9.15242 29.5114 9.09019 29.4366 9.07128 29.3592C9.00031 29.3982 8.938 29.4481 8.88451 29.5087C8.76325 29.4358 8.66359 29.4732 8.58566 29.6209C8.75712 29.6945 8.73217 29.7567 8.51095 29.8078C8.45963 29.6542 8.37244 29.5296 8.24946 29.434C8.20337 29.5049 8.21577 29.5672 8.28682 29.6209C8.2476 29.6726 8.19776 29.71 8.1374 29.733C8.07905 29.6406 8.00434 29.5658 7.91327 29.5087C7.57049 29.6077 7.54554 29.5703 7.83855 29.3966C7.74367 29.3293 7.66896 29.2421 7.61442 29.1349C7.64236 29.2299 7.59261 29.3172 7.465 29.3966C7.48988 29.4215 7.51483 29.4465 7.53971 29.4714C7.43721 29.5014 7.33762 29.5388 7.24087 29.5835C7.13523 29.5114 7.07299 29.4366 7.05409 29.3592C6.98312 29.3982 6.92081 29.4481 6.86731 29.5087C6.82353 29.4931 6.78618 29.4681 6.75525 29.434C6.71789 29.5212 6.65566 29.5835 6.56847 29.6209C6.74785 29.6811 6.73537 29.7434 6.53111 29.8078C6.41031 29.7303 6.39783 29.6431 6.49376 29.5461C6.39088 29.4533 6.29129 29.4409 6.19492 29.5087C6.38027 29.6104 6.35539 29.6852 6.12021 29.733C6.03085 29.7072 6.03085 29.6698 6.12021 29.6209C6.04549 29.5835 5.97078 29.5461 5.89607 29.5087C5.68315 29.527 5.47149 29.5519 5.26103 29.5835C5.05677 29.5191 5.04429 29.4568 5.22367 29.3966C5.07926 29.338 4.96719 29.3754 4.88748 29.5087C4.85655 29.4746 4.81919 29.4496 4.77541 29.434C4.71161 29.5104 4.6369 29.5727 4.55128 29.6209C4.73066 29.6811 4.71818 29.7434 4.51392 29.8078C4.49928 29.6281 4.41217 29.5034 4.25243 29.434C4.16995 29.5185 4.19483 29.5809 4.32714 29.6209C4.25871 29.6489 4.1964 29.6862 4.14037 29.733C4.08807 29.6185 4.00096 29.5437 3.87888 29.5087C3.67963 29.5336 3.48045 29.5586 3.28119 29.5835C3.05997 29.5324 3.03502 29.4702 3.20648 29.3966C3.08433 29.3562 2.98474 29.3936 2.90764 29.5087C2.85781 29.4838 2.80805 29.4589 2.75822 29.434C2.66737 29.5689 2.59266 29.6935 2.53408 29.8078C2.48276 29.6542 2.39557 29.5296 2.2726 29.434C2.28365 29.533 2.27125 29.6203 2.23524 29.6957C2.14245 29.7189 2.06774 29.6815 2.01111 29.5835C1.95149 29.6177 1.92661 29.6675 1.9364 29.733C1.04592 28.5182 0.560298 27.1475 0.479535 25.6209C0.44218 24.5994 0.429703 23.5776 0.44218 22.5555C0.985328 22.5508 1.5083 22.5508 2.01111 22.5555C2.1479 22.4486 2.29733 22.4112 2.45937 22.4433C2.26789 22.5004 2.26789 22.5378 2.45937 22.5555C3.00379 22.552 3.52677 22.552 4.0283 22.5555C4.15464 22.4242 4.30406 22.3868 4.47657 22.4433C4.32005 22.4849 4.30757 22.5223 4.43921 22.5555C4.99282 22.544 5.5282 22.544 6.04549 22.5555C6.12379 22.4895 6.21098 22.4396 6.30698 22.4059C6.35681 22.4558 6.40657 22.5056 6.4564 22.5555C6.60231 22.4773 6.75174 22.4773 6.90467 22.5555C7.04005 22.556 7.15211 22.5061 7.24087 22.4059C7.33411 22.4463 7.42129 22.4962 7.50236 22.5555C7.63893 22.5413 7.77595 22.5164 7.91327 22.4807C9.43707 24.5027 11.4294 25.836 13.8901 26.4807C18.4113 27.282 22.0223 25.849 24.7232 22.1816Z"
        fill="#FF8B00" />
    <path fill-rule="evenodd" clip-rule="evenodd"
        d="M30.8493 29.8078C29.8944 31.0469 28.6492 31.8568 27.1137 32.2377C26.5919 32.3206 26.0689 32.3954 25.5448 32.462C19.4683 32.5119 13.3918 32.5119 7.31534 32.462C5.09612 32.361 3.30306 31.4514 1.93615 29.733C1.92637 29.6675 1.95125 29.6177 2.01087 29.5835C2.0675 29.6815 2.14221 29.7189 2.235 29.6956C2.27101 29.6203 2.28341 29.533 2.27235 29.4339C2.39533 29.5296 2.48251 29.6541 2.53384 29.8078C2.59241 29.6935 2.66713 29.5688 2.75797 29.4339C2.80781 29.4588 2.85756 29.4838 2.9074 29.5087C2.9845 29.3936 3.08409 29.3562 3.20624 29.3966C3.03478 29.4701 3.05973 29.5324 3.28095 29.5835C3.4802 29.5586 3.67938 29.5336 3.87864 29.5087C4.00071 29.5437 4.08783 29.6185 4.14012 29.733C4.19616 29.6862 4.25847 29.6488 4.3269 29.6209C4.19459 29.5809 4.16971 29.5185 4.25219 29.4339C4.41192 29.5034 4.49904 29.628 4.51368 29.8078C4.71794 29.7433 4.73042 29.6811 4.55103 29.6209C4.63665 29.5726 4.71136 29.5104 4.77517 29.4339C4.81895 29.4496 4.8563 29.4745 4.88723 29.5087C4.96695 29.3754 5.07902 29.338 5.22343 29.3966C5.04405 29.4568 5.05653 29.519 5.26079 29.5835C5.47125 29.5519 5.6829 29.527 5.89583 29.5087C5.97054 29.5461 6.04525 29.5835 6.11996 29.6209C6.03061 29.6698 6.03061 29.7071 6.11996 29.733C6.35515 29.6852 6.38003 29.6104 6.19467 29.5087C6.29105 29.4408 6.39064 29.4533 6.49352 29.5461C6.39759 29.6431 6.41006 29.7303 6.53087 29.8078C6.73513 29.7433 6.74761 29.6811 6.56823 29.6209C6.65542 29.5835 6.71765 29.5212 6.755 29.4339C6.78593 29.4681 6.82329 29.4931 6.86707 29.5087C6.92056 29.4481 6.98287 29.3982 7.05385 29.3592C7.07275 29.4366 7.13498 29.5113 7.24063 29.5835C7.33738 29.5388 7.43697 29.5014 7.53947 29.4713C7.51459 29.4464 7.48964 29.4215 7.46476 29.3966C7.59236 29.3172 7.64212 29.2299 7.61418 29.1349C7.66872 29.2421 7.74343 29.3293 7.83831 29.3966C7.5453 29.5702 7.57025 29.6076 7.91302 29.5087C8.0041 29.5658 8.07881 29.6405 8.13716 29.733C8.19752 29.71 8.24735 29.6726 8.28658 29.6209C8.21553 29.5672 8.20313 29.5049 8.24922 29.4339C8.3722 29.5296 8.45938 29.6541 8.51071 29.8078C8.73193 29.7567 8.75688 29.6944 8.58542 29.6209C8.66334 29.4731 8.76301 29.4357 8.88426 29.5087C8.93776 29.4481 9.00007 29.3982 9.07104 29.3592C9.08994 29.4366 9.15218 29.5113 9.25782 29.5835C9.35457 29.5388 9.45416 29.5014 9.55666 29.4713C9.50683 29.4464 9.45707 29.4215 9.40724 29.3966C9.50212 29.3293 9.57683 29.2421 9.63137 29.1349C9.78027 29.4082 9.97953 29.6325 10.2291 29.8078C10.2467 29.7519 10.2716 29.6897 10.3038 29.6209C10.1223 29.5871 10.1098 29.5248 10.2664 29.4339C10.3894 29.5296 10.4766 29.6541 10.5279 29.8078C10.5865 29.6935 10.6612 29.5688 10.752 29.4339C10.8267 29.4838 10.9015 29.5336 10.9762 29.5835C11.2677 29.529 11.5665 29.504 11.8727 29.5087C11.9948 29.5437 12.0819 29.6185 12.1342 29.733C12.1902 29.6862 12.2525 29.6488 12.321 29.6209C12.2606 29.5978 12.2108 29.5605 12.1715 29.5087C12.3696 29.4678 12.4817 29.5675 12.5077 29.8078C12.712 29.7433 12.7245 29.6811 12.5451 29.6209C12.6307 29.5726 12.7054 29.5104 12.7692 29.4339C12.813 29.4496 12.8504 29.4745 12.8813 29.5087C12.961 29.3754 13.0731 29.338 13.2175 29.3966C13.0381 29.4568 13.0506 29.519 13.2548 29.5835C13.4653 29.5519 13.677 29.527 13.8899 29.5087C13.981 29.5658 14.0557 29.6405 14.114 29.733C14.1887 29.6956 14.2634 29.6582 14.3382 29.6209C14.2058 29.5809 14.181 29.5185 14.2634 29.4339C14.3707 29.5329 14.4454 29.6575 14.4876 29.8078C14.7088 29.7567 14.7338 29.6944 14.5623 29.6209C14.6495 29.5835 14.7117 29.5212 14.7491 29.4339C14.78 29.4681 14.8174 29.4931 14.8611 29.5087C14.9146 29.4481 14.9769 29.3982 15.0479 29.3592C15.0668 29.4366 15.129 29.5113 15.2347 29.5835C15.4476 29.5652 15.6593 29.5403 15.8697 29.5087C15.9679 29.5695 16.0551 29.6443 16.1312 29.733C16.1916 29.71 16.2414 29.6726 16.2806 29.6209C16.2096 29.5672 16.1972 29.5049 16.2433 29.4339C16.3663 29.5296 16.4534 29.6541 16.5048 29.8078C16.5633 29.6935 16.6381 29.5688 16.7289 29.4339C16.7787 29.4588 16.8285 29.4838 16.8783 29.5087C16.9554 29.3936 17.055 29.3562 17.1772 29.3966C17.0057 29.4701 17.0307 29.5324 17.2519 29.5835C17.4511 29.5586 17.6503 29.5336 17.8496 29.5087C17.9716 29.5437 18.0588 29.6185 18.1111 29.733C18.1671 29.6862 18.2294 29.6488 18.2978 29.6209C18.1655 29.5809 18.1406 29.5185 18.2231 29.4339C18.3829 29.5034 18.47 29.628 18.4846 29.8078C18.6889 29.7433 18.7013 29.6811 18.522 29.6209C18.6076 29.5726 18.6823 29.5104 18.7461 29.4339C18.7899 29.4496 18.8272 29.4745 18.8582 29.5087C18.9379 29.3754 19.0499 29.338 19.1944 29.3966C19.015 29.4568 19.0275 29.519 19.2317 29.5835C19.4422 29.5519 19.6538 29.527 19.8668 29.5087C19.9415 29.5461 20.0162 29.5835 20.0909 29.6209C20.0015 29.6698 20.0015 29.7071 20.0909 29.733C20.3261 29.6852 20.351 29.6104 20.1656 29.5087C20.262 29.4408 20.3616 29.4533 20.4644 29.5461C20.3685 29.6431 20.381 29.7303 20.5018 29.8078C20.7061 29.7433 20.7185 29.6811 20.5392 29.6209C20.6263 29.5835 20.6886 29.5212 20.7259 29.4339C20.7569 29.4681 20.7942 29.4931 20.838 29.5087C20.8915 29.4481 20.9538 29.3982 21.0248 29.3592C21.0437 29.4366 21.1059 29.5113 21.2116 29.5835C21.3083 29.5388 21.4079 29.5014 21.5104 29.4713C21.4855 29.4464 21.4606 29.4215 21.4357 29.3966C21.5633 29.3172 21.6131 29.2299 21.5851 29.1349C21.6396 29.2421 21.7144 29.3293 21.8092 29.3966C21.5162 29.5702 21.5412 29.6076 21.884 29.5087C21.975 29.5658 22.0497 29.6405 22.1081 29.733C22.1685 29.71 22.2183 29.6726 22.2575 29.6209C22.1865 29.5672 22.1741 29.5049 22.2202 29.4339C22.3431 29.5296 22.4303 29.6541 22.4816 29.8078C22.7029 29.7567 22.7278 29.6944 22.5564 29.6209C22.6343 29.4731 22.7339 29.4357 22.8552 29.5087C22.9087 29.4481 22.971 29.3982 23.042 29.3592C23.0609 29.4366 23.1231 29.5113 23.2287 29.5835C23.3255 29.5388 23.4251 29.5014 23.5276 29.4713C23.2981 29.3497 23.2607 29.1877 23.4155 28.9854C23.4404 29.11 23.4654 29.2345 23.4902 29.3592C23.5088 29.2751 23.5462 29.2004 23.6023 29.1349C23.7512 29.4082 23.9505 29.6325 24.2 29.8078C24.2176 29.7519 24.2426 29.6897 24.2747 29.6209C24.0932 29.5871 24.0808 29.5248 24.2373 29.4339C24.3685 29.5214 24.4432 29.6461 24.4615 29.8078C24.5434 29.4805 24.7053 29.4058 24.9471 29.5835C25.2386 29.529 25.5375 29.504 25.8436 29.5087C25.9657 29.5437 26.0528 29.6185 26.1051 29.733C26.1612 29.6862 26.2235 29.6488 26.2919 29.6209C26.2315 29.5978 26.1817 29.5605 26.1425 29.5087C26.3405 29.4678 26.4526 29.5675 26.4787 29.8078C26.6829 29.7433 26.6954 29.6811 26.516 29.6209C26.6016 29.5726 26.6764 29.5104 26.7402 29.4339C26.7839 29.4496 26.8213 29.4745 26.8522 29.5087C26.9319 29.3754 27.044 29.338 27.1884 29.3966C27.009 29.4568 27.0215 29.519 27.2258 29.5835C27.4362 29.5519 27.6479 29.527 27.8608 29.5087C27.9519 29.5658 28.0266 29.6405 28.085 29.733C28.1597 29.6956 28.2344 29.6582 28.3091 29.6209C28.1768 29.5809 28.1519 29.5185 28.2344 29.4339C28.3416 29.5329 28.4163 29.6575 28.4585 29.8078C28.6797 29.7567 28.7047 29.6944 28.5332 29.6209C28.6204 29.5835 28.6826 29.5212 28.72 29.4339C28.7509 29.4681 28.7883 29.4931 28.8321 29.5087C28.8856 29.4481 28.9479 29.3982 29.0188 29.3592C29.0377 29.4366 29.1 29.5113 29.2056 29.5835C29.4185 29.5652 29.6302 29.5403 29.8407 29.5087C29.9388 29.5695 30.026 29.6443 30.1021 29.733C30.1625 29.71 30.2123 29.6726 30.2516 29.6209C30.1805 29.5672 30.1681 29.5049 30.2142 29.4339C30.3372 29.5296 30.4244 29.6541 30.4757 29.8078C30.6026 29.7095 30.7271 29.7095 30.8493 29.8078Z"
        fill="#FF8900" />
</svg>