<svg width="32" height="32" viewBox="0 0 32 32" fill="none" xmlns="http://www.w3.org/2000/svg">
    <g clip-path="url(#clip0_4088_147)">
        <path fill-rule="evenodd" clip-rule="evenodd"
            d="M-0.0800781 -0.0800781C10.5866 -0.0800781 21.2532 -0.0800781 31.9199 -0.0800781C31.9199 10.5866 31.9199 21.2532 31.9199 31.9199C21.2532 31.9199 10.5866 31.9199 -0.0800781 31.9199C-0.0800781 21.2532 -0.0800781 10.5866 -0.0800781 -0.0800781Z"
            fill="#FE2000" />
        <path fill-rule="evenodd" clip-rule="evenodd"
            d="M18.1601 10.4801C17.4987 10.6377 16.8052 10.691 16.0801 10.6401C16.1308 9.96784 16.0774 9.32784 15.9201 8.7201C15.894 8.34301 15.9206 7.96967 16.0001 7.6001C16.6367 8.63477 17.3567 9.59477 18.1601 10.4801Z"
            fill="#FCF8F7" />
        <path fill-rule="evenodd" clip-rule="evenodd"
            d="M15.9201 8.72021C16.0774 9.32796 16.1308 9.96796 16.0801 10.6402C16.6271 10.756 17.2671 10.8627 18.0001 10.9602C17.3068 10.9602 16.6134 10.9602 15.9201 10.9602C15.9581 11.1668 15.9047 11.3268 15.7601 11.4402C15.7601 11.3335 15.7068 11.2802 15.6001 11.2802C15.7489 10.6562 15.8022 10.0162 15.7601 9.36021C15.9096 9.1894 15.9629 8.97605 15.9201 8.72021Z"
            fill="#FD8875" />
        <path fill-rule="evenodd" clip-rule="evenodd"
            d="M18.16 10.4802C18.139 10.3399 18.1923 10.2333 18.32 10.1602C19.0224 10.2708 19.0756 10.4308 18.48 10.6402C18.3707 10.5821 18.264 10.5288 18.16 10.4802Z"
            fill="#FFCCC1" />
        <path fill-rule="evenodd" clip-rule="evenodd"
            d="M19.1199 10.4801C19.3079 10.4451 19.4679 10.4984 19.5999 10.6401C19.862 11.347 20.102 12.0403 20.3199 12.7201C19.7009 12.1547 19.1409 11.5414 18.6399 10.8801C18.8113 10.7439 18.9713 10.6105 19.1199 10.4801Z"
            fill="#FEEAE8" />
        <path fill-rule="evenodd" clip-rule="evenodd"
            d="M18 10.96C17.9024 11.1025 17.8491 11.2625 17.84 11.44C17.5259 11.6735 17.2326 11.9402 16.96 12.24C16.4776 12.7804 16.0776 13.3671 15.76 14C15.3737 14.2257 15.1071 14.5457 14.96 14.96C14.8066 15.0324 14.6733 15.1391 14.56 15.28C14.5333 15.2 14.5067 15.12 14.48 15.04C14.9236 13.8423 15.3503 12.6423 15.76 11.44C15.9046 11.3265 15.9579 11.1665 15.92 10.96C16.6133 10.96 17.3067 10.96 18 10.96Z"
            fill="#FCF9F7" />
        <path fill-rule="evenodd" clip-rule="evenodd"
            d="M15.76 9.35994C15.8021 10.016 15.7488 10.656 15.6 11.2799C15.015 12.8774 14.4283 14.4774 13.84 16.0799C13.0266 15.4272 12.3333 14.6805 11.76 13.8399C13.0941 11.7305 14.4008 9.59717 15.68 7.43994C15.7598 8.07773 15.7865 8.71773 15.76 9.35994Z"
            fill="#FCFAF8" />
        <path fill-rule="evenodd" clip-rule="evenodd"
            d="M20.0799 14.8001C19.5908 15.4013 19.1375 16.0414 18.7199 16.7201C18.6401 16.0824 18.6133 15.4423 18.6399 14.8001C18.6913 13.9159 18.638 13.0626 18.4799 12.2401C18.4538 11.863 18.4804 11.4897 18.5599 11.1201C19.1945 11.9149 19.8877 12.6616 20.6399 13.3601C20.7466 13.5201 20.7466 13.6801 20.6399 13.8401C20.3284 14.0903 20.1417 14.4103 20.0799 14.8001Z"
            fill="#FCF8F8" />
        <path fill-rule="evenodd" clip-rule="evenodd"
            d="M17.84 11.4399C17.9741 11.4946 18.0275 11.6013 18 11.7599C17.7506 12.8821 17.3773 13.9488 16.88 14.9599C17.1936 13.8878 17.4869 12.8212 17.76 11.7599C17.1149 12.5377 16.4482 13.2844 15.76 13.9999C16.0776 13.367 16.4776 12.7804 16.96 12.2399C17.2326 11.9402 17.5259 11.6735 17.84 11.4399Z"
            fill="#FD563B" />
        <path fill-rule="evenodd" clip-rule="evenodd"
            d="M18.4799 12.2402C18.638 13.0627 18.6913 13.916 18.6399 14.8002C18.4828 15.3541 18.4295 15.9408 18.4799 16.5602C18.3218 15.7378 18.2686 14.8844 18.3199 14.0002C18.477 13.4463 18.5303 12.8597 18.4799 12.2402Z"
            fill="#FF856F" />
        <path fill-rule="evenodd" clip-rule="evenodd"
            d="M15.6001 11.2798C15.7067 11.2798 15.7601 11.3331 15.7601 11.4398C15.3503 12.6421 14.9237 13.8421 14.4801 15.0398C14.5067 15.1198 14.5334 15.1998 14.5601 15.2798C14.6734 15.1389 14.8067 15.0322 14.9601 14.9598C14.7625 15.5131 14.4425 15.9931 14.0001 16.3998C14.3861 17.5041 14.7061 18.6241 14.9601 19.7598C14.5495 18.7169 14.1495 17.6502 13.7601 16.5598C13.0424 17.1851 12.2958 17.7716 11.5201 18.3198C11.4931 19.1723 11.5197 20.0257 11.6001 20.8798C11.3455 20.2871 11.2122 19.6471 11.2001 18.9598C11.1201 18.0012 11.0935 17.0412 11.1201 16.0798C11.2267 16.6963 11.3333 17.3363 11.4401 17.9998C12.2546 17.5321 13.0013 16.9721 13.6801 16.3198C12.9985 15.557 12.2518 14.8903 11.4401 14.3198C11.5092 14.1263 11.6159 13.9663 11.7601 13.8398C12.3333 14.6804 13.0266 15.427 13.8401 16.0798C14.4284 14.4772 15.0151 12.8772 15.6001 11.2798Z"
            fill="#FD492F" />
        <path fill-rule="evenodd" clip-rule="evenodd"
            d="M15.76 14C15.6129 14.4143 15.3462 14.7343 14.96 14.96C15.1071 14.5457 15.3737 14.2257 15.76 14Z"
            fill="#FE4530" />
        <path fill-rule="evenodd" clip-rule="evenodd"
            d="M11.44 14.3198C12.2517 14.8903 12.9984 15.557 13.68 16.3198C13.0012 16.9721 12.2545 17.5321 11.44 17.9998C11.3333 17.3363 11.2266 16.6963 11.12 16.0798C11.0787 15.4611 11.1853 14.8744 11.44 14.3198Z"
            fill="#FCFAF8" />
        <path fill-rule="evenodd" clip-rule="evenodd"
            d="M16.88 14.9598C16.2086 16.547 15.5687 18.147 14.96 19.7598C14.706 18.6241 14.386 17.5041 14 16.3998C14.4424 15.9931 14.7624 15.5131 14.96 14.9598C15.3462 14.734 15.6129 14.414 15.76 13.9998C16.4482 13.2842 17.1149 12.5375 17.76 11.7598C17.4869 12.821 17.1936 13.8877 16.88 14.9598Z"
            fill="#FCF8F6" />
        <path fill-rule="evenodd" clip-rule="evenodd"
            d="M18.3201 13.9999C18.2688 14.8841 18.322 15.7375 18.4801 16.5599C18.3539 17.3657 18.1939 18.1657 18.0001 18.9599C17.8516 19.4542 17.6916 19.9607 17.5201 20.4799C16.7292 20.862 15.9559 21.262 15.2001 21.6799C15.0934 21.0932 15.0934 20.5067 15.2001 19.9199C15.8735 18.2998 16.4334 16.6465 16.8801 14.9599C17.3774 13.9488 17.7507 12.8821 18.0001 11.7599C18.1156 11.6931 18.1956 11.5865 18.2401 11.4399C18.32 12.2916 18.3467 13.1449 18.3201 13.9999Z"
            fill="#FDFAF9" />
        <path fill-rule="evenodd" clip-rule="evenodd"
            d="M18.1601 22.6402C17.7676 21.4603 17.7676 20.287 18.1601 19.1202C18.3212 18.4227 18.5078 17.7294 18.7201 17.0402C19.2774 16.351 19.7308 15.6044 20.0801 14.8002C20.3478 14.6653 20.5345 14.4519 20.6401 14.1602C20.6358 16.0256 20.5823 17.8923 20.4801 19.7602C19.7286 20.7502 18.9551 21.7102 18.1601 22.6402Z"
            fill="#FDF7F5" />
        <path fill-rule="evenodd" clip-rule="evenodd"
            d="M18.64 14.7998C18.6134 15.442 18.6402 16.082 18.72 16.7198C19.1376 16.0411 19.5909 15.401 20.08 14.7998C19.7307 15.6041 19.2773 16.3507 18.72 17.0398C18.5077 17.7291 18.3211 18.4224 18.16 19.1198C18.0533 19.1198 18 19.0665 18 18.9598C18.1938 18.1656 18.3538 17.3656 18.48 16.5598C18.4296 15.9404 18.4829 15.3537 18.64 14.7998Z"
            fill="#FB3D22" />
        <path fill-rule="evenodd" clip-rule="evenodd"
            d="M14.96 19.7601C14.96 20.4001 14.96 21.0401 14.96 21.6801C13.963 21.6173 13.003 21.4041 12.08 21.0401C11.8734 21.078 11.7134 21.0247 11.6 20.8801C11.5196 20.026 11.4929 19.1725 11.52 18.3201C12.2957 17.7719 13.0423 17.1853 13.76 16.5601C14.1494 17.6505 14.5494 18.7172 14.96 19.7601Z"
            fill="#FDF9F7" />
        <path fill-rule="evenodd" clip-rule="evenodd"
            d="M16.8801 14.96C16.4333 16.6465 15.8734 18.2998 15.2001 19.92C15.0934 20.5067 15.0934 21.0932 15.2001 21.68C15.9558 21.262 16.7292 20.862 17.5201 20.48C17.6916 19.9608 17.8516 19.4542 18.0001 18.96C18.0001 19.0667 18.0533 19.12 18.1601 19.12C17.7676 20.2868 17.7676 21.4601 18.1601 22.64C18.0533 22.7467 17.9468 22.8532 17.8401 22.96C17.8644 22.194 17.7577 21.4473 17.5201 20.72C16.6977 21.1624 15.871 21.5891 15.0401 22C14.9666 22.6142 14.8866 23.2275 14.8001 23.84C14.8024 24.0616 14.8557 24.2481 14.9601 24.4C14.7261 24.5553 14.5128 24.502 14.3201 24.24C14.5833 23.6494 14.7433 23.0094 14.8001 22.32C14.7467 22.2132 14.6934 22.1067 14.6401 22C13.8401 21.7867 13.0401 21.5732 12.2401 21.36C12.143 21.3798 12.0897 21.4331 12.0801 21.52C11.9001 21.3843 11.9001 21.2243 12.0801 21.04C13.0031 21.404 13.9631 21.6172 14.9601 21.68C14.9601 21.04 14.9601 20.4 14.9601 19.76C15.5688 18.1472 16.2087 16.5472 16.8801 14.96Z"
            fill="#FD5237" />
        <path fill-rule="evenodd" clip-rule="evenodd"
            d="M17.84 22.9602C16.8407 23.3809 15.8808 23.8609 14.96 24.4002C14.8557 24.2484 14.8023 24.0618 14.8 23.8402C14.8866 23.2277 14.9666 22.6145 15.04 22.0002C15.871 21.5893 16.6976 21.1626 17.52 20.7202C17.7576 21.4476 17.8644 22.1943 17.84 22.9602Z"
            fill="#FCF8F6" />
        <path fill-rule="evenodd" clip-rule="evenodd"
            d="M14.3201 24.2399C13.5734 23.3331 12.8268 22.4266 12.0801 21.5199C12.0897 21.433 12.143 21.3797 12.2401 21.3599C13.0401 21.5731 13.8401 21.7866 14.6401 21.9999C14.6934 22.1066 14.7468 22.2131 14.8001 22.3199C14.7433 23.0093 14.5833 23.6493 14.3201 24.2399Z"
            fill="#FCF8F5" />
    </g>
    <defs>
        <clipPath id="clip0_4088_147">
            <rect width="32" height="32" fill="white" />
        </clipPath>
    </defs>
</svg>