<svg width="32" height="32" viewBox="0 0 32 32" fill="none" xmlns="http://www.w3.org/2000/svg">
    <path opacity="0.93" fill-rule="evenodd" clip-rule="evenodd"
        d="M12.7713 0.405871C17.0241 -0.208322 20.8759 0.717603 24.3269 3.18365C25.6709 4.57785 26.2264 6.24452 25.9935 8.18365C30.2071 12.3712 31.4664 17.3342 29.7713 23.0725C27.2671 28.757 22.8597 31.6459 16.5491 31.7392C12.7359 31.7663 9.51372 30.433 6.88243 27.7392C6.14245 26.5963 5.95728 25.3741 6.32688 24.0725C1.77803 19.6919 0.481733 14.4696 2.43799 8.40587C4.51365 3.94516 7.9581 1.27848 12.7713 0.405871ZM12.9935 1.96143C16.4149 1.49759 19.6001 2.12722 22.5491 3.85032C23.7329 4.62569 24.2884 5.69976 24.2158 7.07254C20.7304 5.01872 16.9897 4.38907 12.9935 5.18365C7.68096 6.92429 6.0143 10.3687 7.99354 15.517C8.89656 16.4694 9.97063 17.173 11.2158 17.6281C13.1703 18.2709 15.1703 18.7153 17.2158 18.9614C18.169 19.1544 18.3172 19.5988 17.6602 20.2948C15.3506 20.385 13.0543 20.6072 10.7713 20.9614C9.50601 21.2612 8.32083 21.7427 7.21576 22.4059C3.55901 19.0994 2.33678 15.0254 3.5491 10.1836C5.11568 5.60707 8.26383 2.86634 12.9935 1.96143ZM14.3269 6.40587C17.0113 6.236 19.6039 6.6434 22.1047 7.62809C22.6256 7.81414 23.07 8.11045 23.438 8.51698C22.3865 9.065 21.2754 9.43536 20.1047 9.62809C17.8714 9.80127 15.6491 10.0235 13.438 10.2948C12.0748 11.4802 12.0007 12.7395 13.2158 14.0725C15.5944 14.6078 17.9648 15.2004 20.3269 15.8503C23.5403 17.2683 24.318 19.5275 22.6602 22.6281C21.4514 24.2059 19.8588 25.1319 17.8824 25.4059C14.608 25.8239 11.571 25.1943 8.77132 23.517C9.43919 23.0345 10.1799 22.7012 10.9935 22.517C13.3479 22.1301 15.7183 21.9079 18.1047 21.8503C19.384 21.2542 19.8655 20.2542 19.5491 18.8503C19.3748 18.4534 19.1155 18.1201 18.7713 17.8503C16.3907 17.3147 14.0203 16.7221 11.6602 16.0725C8.25159 14.4138 7.62196 12.0063 9.77132 8.85032C11.0725 7.5892 12.591 6.7744 14.3269 6.40587ZM24.5491 9.51698C24.7829 9.48376 25.0051 9.5208 25.2158 9.62809C29.0449 13.7714 29.8967 18.4751 27.7713 23.7392C24.5015 28.7825 19.8719 30.8196 13.8824 29.8503C11.4145 29.5252 9.4515 28.377 7.99354 26.4059C7.73788 25.905 7.66381 25.3865 7.77132 24.8503C11.8092 27.1921 16.0685 27.6736 20.5491 26.2948C24.8942 24.0732 26.0424 20.7769 23.9935 16.4059C23.0905 15.4535 22.0165 14.7498 20.7713 14.2948C18.7343 13.6799 16.6602 13.2355 14.5491 12.9614C13.6602 12.517 13.6602 12.0725 14.5491 11.6281C17.1726 11.5806 19.7652 11.2843 22.3269 10.7392C23.1816 10.4979 23.9224 10.0905 24.5491 9.51698Z"
        fill="#C8FD89" />
</svg>