<svg width="32" height="32" viewBox="0 0 32 32" fill="none" xmlns="http://www.w3.org/2000/svg">
<path fill-rule="evenodd" clip-rule="evenodd" d="M15.7415 0.349609C20.3256 2.86014 24.843 5.48309 29.2935 8.21846C29.4391 13.4653 29.4101 18.7113 29.206 23.9562C24.7762 26.5209 20.3462 29.0854 15.9164 31.6502C11.3998 29.1297 6.91162 26.5651 2.45193 23.9562C2.24795 18.7113 2.2188 13.4653 2.36449 8.21846C6.84894 5.61294 11.308 2.98999 15.7415 0.349609Z" fill="#F26323"/>
<path fill-rule="evenodd" clip-rule="evenodd" d="M15.742 2.97266C19.4694 5.12447 23.2 7.28112 26.9333 9.4426C27.1372 13.813 27.1664 18.1845 27.0207 22.5574C23.3189 24.7582 19.5885 26.9148 15.8295 29.0273C12.0852 26.9368 8.3839 24.7802 4.72564 22.5574C4.49249 18.1858 4.49249 13.8142 4.72564 9.4426C8.43755 7.32543 12.1097 5.16878 15.742 2.97266Z" fill="#FEFDFC"/>
<path fill-rule="evenodd" clip-rule="evenodd" d="M14.6928 9.44248C18.6474 9.17581 21.1829 10.9244 22.2994 14.6884C22.7394 18.7331 21.0199 21.3269 17.1409 22.4698C13.0197 22.8919 10.4258 21.1141 9.35952 17.1365C9.06501 13.0948 10.8428 10.5301 14.6928 9.44248Z" fill="#010101"/>
</svg>
