<svg width="32" height="32" viewBox="0 0 32 32" fill="none" xmlns="http://www.w3.org/2000/svg">
    <rect width="32" height="32" fill="#FAFAFA" />
    <path
        d="M24.3547 9.93759H16.9213V7.66133C16.9213 6.59779 16.8272 5.92165 16.6368 5.6305C16.4463 5.33935 16.1304 5.19498 15.6868 5.19498C15.2046 5.19498 14.8405 5.38988 14.5946 5.78209C14.3486 6.17671 14.2233 6.77104 14.2233 7.56749C14.2233 8.59253 14.3631 9.36492 14.6404 9.88225C14.9056 10.3996 15.6579 11.0276 16.902 11.7615C20.4656 13.8717 22.7079 15.6018 23.6337 16.9565C24.5596 18.3087 25.0225 20.4912 25.0225 23.5013C25.0225 25.6885 24.767 27.3007 24.2534 28.3378C23.7398 29.3748 22.7489 30.2435 21.2781 30.9461C19.8073 31.6487 18.0979 32 16.1449 32C14.0038 32 12.1762 31.5958 10.6597 30.7849C9.1455 29.9764 8.15454 28.9441 7.68438 27.6929C7.21662 26.4417 6.98034 24.6635 6.98034 22.3632V20.3516H14.4137V24.0884C14.4137 25.2386 14.5174 25.9797 14.7272 26.3069C14.9369 26.6366 15.3058 26.8002 15.8387 26.8002C16.3715 26.8002 16.767 26.5909 17.0274 26.1746C17.2878 25.7583 17.418 25.1375 17.418 24.3146C17.418 22.5052 17.172 21.3237 16.6777 20.7679C16.1714 20.212 14.9225 19.2808 12.9333 17.9791C10.9442 16.6629 9.6253 15.7101 8.97913 15.1157C8.33296 14.5214 7.7977 13.6985 7.37334 12.6494C6.94899 11.6003 6.73682 10.26 6.73682 8.62862C6.73682 6.27536 7.0382 4.55734 7.63856 3.46973C8.24134 2.38213 9.21301 1.53275 10.556 0.919167C11.899 0.305587 13.5216 0 15.4216 0C17.4999 0 19.2697 0.334461 20.7356 1.00579C22.1991 1.67712 23.1684 2.51929 23.6434 3.53951C24.1184 4.55734 24.3571 6.28739 24.3571 8.72727V9.9424L24.3547 9.93759Z"
        fill="#30302E" />
</svg>