<svg width="32" height="32" viewBox="0 0 33 33" fill="none" xmlns="http://www.w3.org/2000/svg">
    <path fill-rule="evenodd" clip-rule="evenodd"
        d="M3.14828 0.45129C11.9026 0.414517 20.6567 0.45129 29.4103 0.561587C30.8448 1.11307 31.8379 2.10575 32.3896 3.53961C32.5368 11.9957 32.5368 20.4519 32.3896 28.9079C31.8379 30.6359 30.6976 31.7757 28.9689 32.3271C20.5092 32.4743 12.0494 32.4743 3.58965 32.3271C2.15517 31.7757 1.16207 30.783 0.61035 29.3491C0.463217 20.5988 0.463217 11.8487 0.61035 3.09842C1.20416 1.95378 2.05015 1.0714 3.14828 0.45129Z"
        fill="#15FDA9" />
    <path fill-rule="evenodd" clip-rule="evenodd"
        d="M23.6724 7.06898C23.9118 7.52933 24.2795 7.82345 24.7758 7.95135C28.9449 12.5448 29.4231 17.545 26.2103 22.9518C24.0924 25.7941 21.2603 27.4117 17.7138 27.8048C16.2347 27.841 14.7634 27.7675 13.3 27.5842C9.48288 26.5638 6.83461 24.2109 5.35518 20.5252C5.28988 20.1054 5.14277 19.7377 4.9138 19.4222C4.93377 18.8372 4.78664 18.3226 4.47242 17.8781C4.17471 15.2462 4.68967 12.8197 6.01725 10.5985C6.3276 10.4941 6.47474 10.2735 6.45862 9.9367C8.4191 7.15538 11.0674 5.4274 14.4034 4.75274C16.9486 4.36678 19.3762 4.73445 21.6862 5.85571C22.3606 6.26504 23.0227 6.66946 23.6724 7.06898Z"
        fill="#020704" />
    <path fill-rule="evenodd" clip-rule="evenodd"
        d="M15.0653 8.17171C14.6206 8.48579 14.1058 8.63286 13.5205 8.6129C13.9652 8.29882 14.4801 8.15175 15.0653 8.17171Z"
        fill="#038859" />
    <path fill-rule="evenodd" clip-rule="evenodd"
        d="M15.0655 8.17231C17.0227 7.90495 18.8251 8.27262 20.4723 9.27529C20.6376 9.52566 20.601 9.74625 20.362 9.93707C19.2585 10.893 18.2286 11.9224 17.2723 13.0254C18.0154 14.03 18.8982 14.8021 19.9206 15.3416C20.9905 14.2353 22.094 13.1691 23.231 12.143C23.771 12.5077 24.0652 13.0225 24.1137 13.6872C24.3991 15.38 24.3991 17.0713 24.1137 18.7608C23.1478 21.8214 21.0881 23.6964 17.9344 24.386C13.7467 25.0513 10.8042 23.4705 9.10684 19.6432C9.12295 19.3064 8.97582 19.0858 8.66546 18.9814C8.59191 18.3931 8.51833 17.805 8.44477 17.2167C8.4083 16.4044 8.44508 15.5957 8.55512 14.7901C8.87073 14.1608 9.05463 13.4991 9.10684 12.8048C10.0031 10.806 11.4744 9.40894 13.5206 8.6135C14.1059 8.63347 14.6208 8.4864 15.0655 8.17231Z"
        fill="#0BFBA7" />
    <path fill-rule="evenodd" clip-rule="evenodd"
        d="M6.45868 9.93652C6.47479 10.2733 6.32766 10.4939 6.01731 10.5983C6.0012 10.2615 6.14833 10.0409 6.45868 9.93652Z"
        fill="#026340" />
    <path fill-rule="evenodd" clip-rule="evenodd"
        d="M24.1138 13.6865C24.4569 14.5034 24.6041 15.3858 24.5551 16.3337C24.5183 16.9954 24.4817 17.6572 24.4448 18.319C24.3835 18.5211 24.2731 18.668 24.1138 18.7602C24.3991 17.0707 24.3991 15.3794 24.1138 13.6865Z"
        fill="#059F69" />
    <path fill-rule="evenodd" clip-rule="evenodd"
        d="M8.66574 18.9814C8.9761 19.0858 9.12323 19.3064 9.10712 19.6432C8.79677 19.5389 8.64963 19.3183 8.66574 18.9814Z"
        fill="#038658" />
    <path fill-rule="evenodd" clip-rule="evenodd"
        d="M13.2998 27.584C14.7632 27.7673 16.2345 27.8408 17.7136 27.8046C17.1296 27.9511 16.5044 28.0247 15.8377 28.0252C14.9256 28.0724 14.0797 27.9255 13.2998 27.584Z"
        fill="#014A2F" />
</svg>