<svg width="32" height="32" viewBox="0 0 32 32" fill="none" xmlns="http://www.w3.org/2000/svg">
<mask id="mask0_6064_212" style="mask-type:luminance" maskUnits="userSpaceOnUse" x="0" y="4" width="32" height="24">
<path d="M31.2727 4.36363H0.727272V27.6364H31.2727V4.36363Z" fill="white"/>
</mask>
<g mask="url(#mask0_6064_212)">
<path d="M5.09091 6.54545C5.09091 5.34047 4.11407 4.36363 2.90909 4.36363C1.70411 4.36363 0.727272 5.34047 0.727272 6.54545V15.2727C0.727272 16.4777 1.70411 17.4545 2.90909 17.4545C4.11407 17.4545 5.09091 16.4777 5.09091 15.2727V6.54545Z" fill="#FFCB36"/>
<path d="M22.5455 6.54545C22.5455 5.34047 21.5687 4.36363 20.3636 4.36363C19.1586 4.36363 18.1818 5.34047 18.1818 6.54545V25.4545C18.1818 26.6596 19.1586 27.6364 20.3636 27.6364C21.5687 27.6364 22.5455 26.6596 22.5455 25.4545V6.54545Z" fill="#007D97"/>
<path d="M13.8182 6.54545C13.8182 5.34047 12.8414 4.36363 11.6364 4.36363C10.4313 4.36363 9.45454 5.34047 9.45454 6.54545V8C9.45454 9.20501 10.4313 10.1818 11.6364 10.1818C12.8414 10.1818 13.8182 9.20501 13.8182 8V6.54545Z" fill="#2EAD6D"/>
<path d="M13.8182 16.7273C13.8182 15.5223 12.8414 14.5455 11.6364 14.5455C10.4313 14.5455 9.45454 15.5223 9.45454 16.7273V25.4545C9.45454 26.6596 10.4313 27.6364 11.6364 27.6364C12.8414 27.6364 13.8182 26.6596 13.8182 25.4545V16.7273Z" fill="#E31D65"/>
<path d="M31.2727 6.54545C31.2727 5.34047 30.2959 4.36363 29.0909 4.36363C27.8859 4.36363 26.9091 5.34047 26.9091 6.54545V15.2727C26.9091 16.4777 27.8859 17.4545 29.0909 17.4545C30.2959 17.4545 31.2727 16.4777 31.2727 15.2727V6.54545Z" fill="#E31D65"/>
<path d="M5.09091 24C5.09091 22.795 4.11407 21.8182 2.90909 21.8182C1.70411 21.8182 0.727272 22.795 0.727272 24V25.4545C0.727272 26.6596 1.70411 27.6364 2.90909 27.6364C4.11407 27.6364 5.09091 26.6596 5.09091 25.4545V24Z" fill="#FF7C35"/>
<path d="M31.2727 24C31.2727 22.795 30.2959 21.8182 29.0909 21.8182C27.8859 21.8182 26.9091 22.795 26.9091 24V25.4545C26.9091 26.6596 27.8859 27.6364 29.0909 27.6364C30.2959 27.6364 31.2727 26.6596 31.2727 25.4545V24Z" fill="#553BB8"/>
</g>
</svg>
