<svg width="32" height="32" viewBox="0 0 32 32" fill="none" xmlns="http://www.w3.org/2000/svg">
    <g clip-path="url(#clip0_2414_992)">
        <path fill-rule="evenodd" clip-rule="evenodd"
            d="M-0.0800781 -0.0800781C10.5866 -0.0800781 21.2532 -0.0800781 31.9199 -0.0800781C31.9199 10.5866 31.9199 21.2532 31.9199 31.9199C21.2532 31.9199 10.5866 31.9199 -0.0800781 31.9199C-0.0800781 21.2532 -0.0800781 10.5866 -0.0800781 -0.0800781Z"
            fill="#FEFEFE" />
        <path fill-rule="evenodd" clip-rule="evenodd"
            d="M14.0002 2.80038C20.7706 2.32976 25.5438 5.15643 28.3202 11.2804C30.0853 16.9401 28.832 21.8201 24.5602 25.9204C19.4099 29.7618 14.0765 30.0285 8.56017 26.7204C3.53492 22.7372 1.90826 17.6439 3.68017 11.4404C5.63271 6.77243 9.07271 3.89243 14.0002 2.80038Z"
            fill="#020202" />
        <path fill-rule="evenodd" clip-rule="evenodd"
            d="M10.1599 9.51976C14.0003 9.49311 17.8403 9.51976 21.6799 9.59976C23.2275 10.1609 23.8407 11.2542 23.5199 12.8798C22.8892 14.6388 22.2759 16.3988 21.6799 18.1598C20.8865 17.1753 19.8732 16.5086 18.6399 16.1598C16.5283 15.63 14.3949 15.2033 12.2399 14.8798C10.8743 14.6571 9.72764 14.0438 8.79994 13.0398C8.21492 11.4867 8.66825 10.3133 10.1599 9.51976Z"
            fill="#FCFCFC" />
        <path fill-rule="evenodd" clip-rule="evenodd"
            d="M9.52002 16.0799C9.55765 15.9844 9.63765 15.9311 9.76002 15.9199C11.7989 16.6626 13.9056 17.1159 16.08 17.2799C17.2423 17.5303 18.3623 17.9038 19.44 18.3999C21.0896 19.5431 21.3296 20.9566 20.16 22.6399C19.7747 23.0329 19.3215 23.3262 18.8 23.5199C16.9333 23.6266 15.0667 23.6266 13.2 23.5199C12.3843 23.2906 11.8243 22.7839 11.52 21.9999C10.9242 19.9842 10.2575 18.0108 9.52002 16.0799Z"
            fill="#FBFBFB" />
    </g>
    <defs>
        <clipPath id="clip0_2414_992">
            <rect width="32" height="32" fill="white" />
        </clipPath>
    </defs>
</svg>