<svg width="32" height="32" viewBox="0 0 33 33" fill="none" xmlns="http://www.w3.org/2000/svg">
    <path opacity="0.855" fill-rule="evenodd" clip-rule="evenodd"
        d="M28.2808 0.5C28.7636 0.5 29.2463 0.5 29.7291 0.5C30.7987 1.04949 31.5448 1.89331 31.9674 3.03146C31.473 4.80386 30.31 5.64769 28.4783 5.56291C27.5513 7.1063 26.6077 8.6385 25.6476 10.1595C26.8773 10.2409 28.0623 10.5073 29.2025 10.9589C30.0119 11.8189 30.6044 12.8182 30.9799 13.9567C32.3641 18.2131 32.8029 22.5655 32.2965 27.0137C32.0551 29.6114 30.6726 31.1435 28.1492 31.6103C26.7651 31.9629 25.3607 32.1628 23.936 32.2098C22.2883 32.2319 20.6644 32.3208 19.0644 32.4763C15.4984 32.564 11.9435 32.4085 8.39976 32.01C6.99035 31.8402 5.62983 31.485 4.31822 30.9441C4.02739 30.6945 3.78601 30.4058 3.59407 30.0781C2.34853 26.7793 1.75604 23.3596 1.81663 19.819C1.714 17.7184 1.99927 15.6755 2.67243 13.6902C3.38832 11.7607 4.77078 10.717 6.81981 10.5592C5.76102 8.97189 4.7516 7.35088 3.79157 5.69615C2.32536 5.86456 1.22817 5.28721 0.5 3.9641C0.5 3.51999 0.5 3.07586 0.5 2.63175C1.17879 1.54596 2.14432 0.879784 3.39658 0.633235C4.95719 0.899361 5.70328 1.8098 5.63485 3.36454C7.56104 5.62488 9.53599 7.84546 11.5597 10.0263C13.7952 9.97564 16.0334 9.90902 18.2745 9.82642C19.0269 9.82928 19.7731 9.8737 20.5127 9.95965C22.574 7.7626 24.6148 5.54204 26.635 3.29793C26.5483 1.98595 27.0969 1.05331 28.2808 0.5Z"
        fill="#211E1E" />
    <path fill-rule="evenodd" clip-rule="evenodd"
        d="M29.2025 1.16614C30.1884 1.45287 30.8907 2.07464 31.3091 3.03142C31.1075 3.76804 30.6687 4.30097 29.9925 4.63024C30.2001 4.35262 30.4415 4.08615 30.7166 3.83083C30.8974 3.53833 30.9413 3.22744 30.8483 2.89819C30.3615 2.25036 29.8129 1.67301 29.2025 1.16614Z"
        fill="#E7EAEB" />
    <path fill-rule="evenodd" clip-rule="evenodd"
        d="M28.6759 1.16614C28.8514 1.16614 29.027 1.16614 29.2025 1.16614C29.8129 1.67301 30.3615 2.25036 30.8483 2.89819C30.9413 3.22744 30.8974 3.53833 30.7166 3.83083C30.4415 4.08615 30.2001 4.35262 29.9925 4.63024C29.9486 4.63024 29.9047 4.63024 29.8608 4.63024C29.7223 4.65015 29.5907 4.62794 29.4658 4.56362C28.5037 3.57888 28.2403 2.44639 28.6759 1.16614Z"
        fill="#85CDDD" />
    <path fill-rule="evenodd" clip-rule="evenodd"
        d="M4.05492 4.63022C2.66881 4.42704 1.92273 3.62763 1.81665 2.232C2.3853 1.48755 3.13138 1.24329 4.05492 1.49921C4.91997 1.9862 5.20523 2.71899 4.91072 3.69758C4.69141 4.07479 4.40614 4.38567 4.05492 4.63022Z"
        fill="#85CEDE" />
    <path fill-rule="evenodd" clip-rule="evenodd"
        d="M28.6759 1.16614C28.2403 2.44639 28.5037 3.57888 29.4658 4.56362C29.5907 4.62794 29.7223 4.65015 29.8608 4.63024C29.4916 4.78183 29.0967 4.80404 28.6759 4.69685C27.4374 4.07912 27.0644 3.12429 27.5567 1.83231C27.8671 1.48707 28.2402 1.26501 28.6759 1.16614Z"
        fill="#0A85A9" />
    <path fill-rule="evenodd" clip-rule="evenodd"
        d="M1.81659 2.23206C1.92267 3.62769 2.66875 4.4271 4.05486 4.63028C3.02212 5.27292 2.12243 5.09528 1.35577 4.09734C0.978106 3.32123 1.13171 2.69947 1.81659 2.23206Z"
        fill="#0584A8" />
    <path fill-rule="evenodd" clip-rule="evenodd"
        d="M27.3592 4.49706C26.1362 6.32705 24.8634 8.12571 23.541 9.89305C22.8841 9.95958 22.2258 9.98178 21.566 9.95967C23.2942 7.96614 25.0497 5.98983 26.8325 4.03074C27.1276 4.01419 27.3031 4.16963 27.3592 4.49706Z"
        fill="#1F6E81" />
    <path fill-rule="evenodd" clip-rule="evenodd"
        d="M9.32145 10.3594C7.78158 8.57954 6.24551 6.80309 4.71326 5.03C4.91101 4.80683 5.08656 4.56257 5.23991 4.29721C5.32769 4.20838 5.41545 4.20838 5.50323 4.29721C7.25873 6.25132 9.01424 8.20542 10.7697 10.1595C10.2865 10.2326 9.80372 10.2992 9.32145 10.3594Z"
        fill="#184D56" />
    <path fill-rule="evenodd" clip-rule="evenodd"
        d="M27.3592 4.49707C27.5984 4.67237 27.8178 4.87222 28.0175 5.09663C27.977 5.29108 27.8891 5.44651 27.7542 5.56295C26.6033 6.92582 25.4622 8.3914 24.331 9.95969C24.5344 10.0865 24.7539 10.1309 24.9893 10.0929C24.8874 10.1791 24.7557 10.2236 24.5943 10.2262C23.564 10.1503 22.5546 10.0615 21.566 9.95969C22.2258 9.98179 22.8841 9.95959 23.541 9.89307C24.8634 8.12573 26.1362 6.32706 27.3592 4.49707Z"
        fill="#1B4B54" />
    <path fill-rule="evenodd" clip-rule="evenodd"
        d="M4.71323 5.03002C6.24548 6.8031 7.78155 8.57956 9.32142 10.3594C8.85699 10.3599 8.39617 10.4043 7.93896 10.4926C7.67113 10.5121 7.45169 10.4233 7.28065 10.2262C6.29318 8.58294 5.30571 6.93971 4.31824 5.29649C4.38469 5.10749 4.51635 5.01867 4.71323 5.03002Z"
        fill="#1F6D7F" />
    <path fill-rule="evenodd" clip-rule="evenodd"
        d="M27.7542 5.56287C26.8325 7.07285 25.9109 8.58285 24.9892 10.0928C24.7538 10.1308 24.5344 10.0864 24.3309 9.95961C25.4622 8.39132 26.6033 6.92574 27.7542 5.56287Z"
        fill="#E8EAEA" />
    <path fill-rule="evenodd" clip-rule="evenodd"
        d="M21.8293 10.6258C21.6977 10.6258 21.566 10.6258 21.4343 10.6258C19.9854 10.6037 18.5371 10.6259 17.0895 10.6925C14.6637 11.563 12.601 12.962 10.9013 14.8893C8.50321 14.0179 6.72576 14.7285 5.56897 17.0211C5.20702 19.42 6.10671 21.1298 8.26806 22.1506C8.83692 22.2171 9.40745 22.2394 9.97967 22.2172C9.78855 22.3241 9.56911 22.3907 9.32136 22.4171C9.46176 23.1586 9.63731 23.8913 9.84801 24.6155C9.08656 24.6702 8.34047 24.8035 7.60974 25.0152C7.50003 25.1484 7.3903 25.2816 7.28059 25.4149C6.95405 26.6653 7.08571 27.8644 7.67557 29.0122C7.92223 29.3065 8.20749 29.5507 8.53138 29.745C10.068 29.9679 11.6041 30.1234 13.1396 30.2113C13.7152 30.7941 14.3297 31.327 14.9829 31.8101C11.9701 31.8136 8.98572 31.5249 6.02979 30.9441C5.39547 30.8024 4.84688 30.5138 4.38401 30.0781C3.43202 28.0633 2.86149 25.9316 2.67239 23.6828C2.47718 21.4212 2.43329 19.1562 2.54073 16.8879C2.67799 15.2715 3.20464 13.8059 4.12068 12.4911C4.57113 11.9906 5.11973 11.6575 5.76647 11.4919C7.19594 11.1456 8.64423 10.9236 10.1113 10.8257C14.0354 10.5203 17.9414 10.4536 21.8293 10.6258Z"
        fill="#0584A7" />
    <path fill-rule="evenodd" clip-rule="evenodd"
        d="M21.4344 10.6259C23.7918 10.9059 26.1179 11.4166 28.4125 12.1581C29.0687 12.6465 29.5295 13.2905 29.795 14.09C31.1549 18.3936 31.5499 22.7903 30.9799 27.2802C30.7869 28.3354 30.4139 29.3125 29.8608 30.2113C29.4741 30.4986 29.0351 30.6985 28.5442 30.8109C24.0666 31.6644 19.5461 31.9975 14.9829 31.8102C14.3297 31.3271 13.7153 30.7941 13.1396 30.2113C17.8892 30.3145 22.6291 30.159 27.3592 29.745C27.5476 29.6831 27.7011 29.572 27.82 29.4119C28.5463 27.9634 28.5901 26.4978 27.9517 25.0152C27.7918 24.8088 27.5944 24.6535 27.3592 24.5489C26.5728 24.428 25.7828 24.3393 24.9893 24.2824C19.9336 24.1231 14.8865 24.2342 9.84806 24.6155C9.63736 23.8914 9.46182 23.1586 9.32141 22.4171C9.56916 22.3907 9.7886 22.3241 9.97972 22.2173C11.5137 21.7961 12.3695 20.7747 12.5471 19.1529C12.862 17.3754 12.3134 15.9542 10.9014 14.8894C12.6011 12.962 14.6638 11.563 17.0895 10.6925C18.5371 10.6259 19.9854 10.6037 21.4344 10.6259Z"
        fill="#85CDDC" />
    <path fill-rule="evenodd" clip-rule="evenodd"
        d="M21.4343 10.6259C21.566 10.6259 21.6977 10.6259 21.8293 10.6259C23.9459 10.7112 26.0525 10.9111 28.1491 11.2254C28.6716 11.3539 29.0885 11.6426 29.3999 12.0914C31.0852 15.644 31.8972 19.3968 31.8357 23.3498C32.0474 25.5969 31.6304 27.7065 30.5849 29.6784C30.3938 29.9401 30.1525 30.1177 29.8607 30.2113C30.4139 29.3125 30.7869 28.3354 30.9799 27.2802C31.5498 22.7903 31.1549 18.3936 29.7949 14.09C29.5295 13.2905 29.0687 12.6465 28.4124 12.1581C26.1178 11.4166 23.7917 10.9059 21.4343 10.6259Z"
        fill="#F1F4F5" />
    <path fill-rule="evenodd" clip-rule="evenodd"
        d="M10.9013 14.8893C12.3133 15.9541 12.8619 17.3754 12.5471 19.1528C12.3695 20.7747 11.5137 21.7961 9.97967 22.2172C9.40745 22.2393 8.83692 22.2171 8.26806 22.1506C6.10671 21.1298 5.20702 19.42 5.56897 17.0211C6.72576 14.7285 8.5032 14.0178 10.9013 14.8893Z"
        fill="#1F1B1B" />
    <path fill-rule="evenodd" clip-rule="evenodd"
        d="M11.6913 20.0855C9.98935 20.3776 8.563 19.889 7.41227 18.62C6.86797 17.7253 6.80213 16.7926 7.21478 15.822C9.28955 14.3958 10.8476 14.84 11.8888 17.1544C12.0218 18.1546 11.9559 19.1316 11.6913 20.0855Z"
        fill="#D3D3D3" />
    <path fill-rule="evenodd" clip-rule="evenodd"
        d="M8.26806 15.5555C9.67472 15.2663 10.7061 15.7547 11.3621 17.0211C11.4275 17.3289 11.4495 17.6397 11.428 17.9538C11.2895 17.9736 11.1578 17.9515 11.033 17.8871C10.7308 17.4479 10.3797 17.0482 9.97967 16.688C9.40914 16.6437 8.83859 16.5992 8.26806 16.5548C7.74382 16.1963 7.74382 15.8632 8.26806 15.5555Z"
        fill="#F7F7F7" />
    <path fill-rule="evenodd" clip-rule="evenodd"
        d="M7.21479 15.822C6.80215 16.7926 6.86798 17.7253 7.41229 18.6199C8.56302 19.889 9.98936 20.3776 11.6913 20.0855C11.0426 21.4128 9.98927 21.9235 8.53142 21.6177C6.61484 20.8228 5.80292 19.3795 6.09566 17.2876C6.29974 16.6601 6.67278 16.1716 7.21479 15.822Z"
        fill="#9A9A9A" />
    <path fill-rule="evenodd" clip-rule="evenodd"
        d="M24.1993 14.4896C26.2644 14.2577 27.6031 15.146 28.215 17.1543C28.5539 18.7674 28.2248 20.2109 27.2276 21.4845C25.0654 22.7762 23.2441 22.3986 21.7635 20.352C20.5174 17.5019 21.3293 15.5478 24.1993 14.4896Z"
        fill="#1D1B1B" />
    <path fill-rule="evenodd" clip-rule="evenodd"
        d="M22.4877 16.2217C22.5541 19.0208 23.9586 20.2865 26.7009 20.0189C27.0116 19.8616 27.3188 19.7062 27.6225 19.5525C26.8171 21.6246 25.4128 22.1798 23.4093 21.218C22.077 20.1949 21.5722 18.8403 21.8952 17.1543C22.0303 16.7894 22.2278 16.4786 22.4877 16.2217Z"
        fill="#9B9B9B" />
    <path fill-rule="evenodd" clip-rule="evenodd"
        d="M23.936 15.289C25.5295 15.0825 26.6486 15.7041 27.2934 17.1543C27.3438 17.0802 27.4097 17.0358 27.4909 17.021C27.4572 17.3861 27.3255 17.6971 27.0959 17.9537C26.724 17.5546 26.3728 17.1327 26.0426 16.688C25.4281 16.6436 24.8138 16.5991 24.1993 16.5547C23.6852 16.1739 23.6852 15.8186 24.1993 15.4888C24.0787 15.4518 23.991 15.3852 23.936 15.289Z"
        fill="#F7F7F7" />
    <path fill-rule="evenodd" clip-rule="evenodd"
        d="M23.936 15.2891C23.991 15.3853 24.0787 15.4519 24.1993 15.4889C23.6851 15.8187 23.6851 16.174 24.1993 16.5548C24.8138 16.5992 25.4281 16.6437 26.0426 16.688C26.3728 17.1328 26.7239 17.5547 27.0959 17.9538C27.3255 17.6971 27.4571 17.3862 27.4909 17.0211C27.6891 17.4016 27.7768 17.8236 27.7542 18.2868C27.7336 18.7132 27.6898 19.1351 27.6225 19.5526C27.3188 19.7062 27.0116 19.8617 26.7009 20.0189C23.9586 20.2866 22.5542 19.0208 22.4877 16.2217C22.864 15.7541 23.3466 15.4432 23.936 15.2891Z"
        fill="#D3D3D3" />
    <path fill-rule="evenodd" clip-rule="evenodd"
        d="M27.4908 17.0211C27.4096 17.0359 27.3437 17.0803 27.2933 17.1543C26.6486 15.7042 25.5294 15.0825 23.9359 15.2891C25.6691 14.7188 26.8541 15.2961 27.4908 17.0211Z"
        fill="#CFCECE" />
    <path fill-rule="evenodd" clip-rule="evenodd"
        d="M13.1396 30.2113C11.6041 30.1233 10.068 29.9679 8.5314 29.7449C8.20751 29.5507 7.92225 29.3065 7.6756 29.0122C7.08574 27.8643 6.95407 26.6652 7.28061 25.4148C7.39032 25.2816 7.50005 25.1484 7.60977 25.0151C8.34049 24.8034 9.08659 24.6702 9.84803 24.6154C14.8865 24.2341 19.9335 24.123 24.9892 24.2823C25.7828 24.3392 26.5728 24.428 27.3592 24.5488C27.5943 24.6534 27.7918 24.8087 27.9517 25.0151C28.5901 26.4978 28.5462 27.9633 27.82 29.4119C27.7011 29.5719 27.5476 29.683 27.3592 29.7449C22.6291 30.1589 17.8892 30.3144 13.1396 30.2113Z"
        fill="#201E1E" />
    <path fill-rule="evenodd" clip-rule="evenodd"
        d="M26.8325 27.1469C26.8232 26.5277 26.5598 26.0614 26.0425 25.7479C25.2889 25.4134 24.4989 25.2579 23.6726 25.2816C22.3153 25.4556 20.9547 25.6111 19.5911 25.7479C16.475 25.7923 13.359 25.8368 10.243 25.8812C9.80991 25.9987 9.37104 26.0874 8.92639 26.1476C8.68759 26.4782 8.59981 26.8558 8.66306 27.2801C8.31196 27.2801 7.96087 27.2801 7.60976 27.2801C7.58809 26.878 7.61003 26.4783 7.67559 26.081C7.7116 25.8373 7.82132 25.6375 8.00475 25.4815C13.5147 24.8025 19.0445 24.5804 24.5943 24.8153C25.4307 24.8802 26.2645 24.9689 27.0958 25.0818C27.4374 25.2602 27.6349 25.5489 27.6883 25.9478C27.7539 26.3451 27.7759 26.7448 27.7542 27.1469C27.447 27.1469 27.1397 27.1469 26.8325 27.1469Z"
        fill="#989898" />
    <path fill-rule="evenodd" clip-rule="evenodd"
        d="M26.8325 27.1469C25.8425 27.1036 24.8771 27.148 23.9359 27.2802C18.889 27.3451 13.842 27.3894 8.79472 27.4134C8.79472 27.3245 8.75083 27.2802 8.66306 27.2802C8.5998 26.8558 8.68758 26.4782 8.92638 26.1477C9.37103 26.0875 9.8099 25.9987 10.243 25.8812C13.359 25.8368 16.475 25.7923 19.5911 25.748C20.9547 25.6111 22.3153 25.4557 23.6726 25.2817C24.4989 25.2579 25.2889 25.4134 26.0425 25.748C26.5598 26.0615 26.8232 26.5278 26.8325 27.1469Z"
        fill="#D1D1D1" />
    <path fill-rule="evenodd" clip-rule="evenodd"
        d="M23.936 27.2801C25.2095 27.258 26.4822 27.2801 27.7542 27.3468C23.1899 27.4356 23.1899 27.5244 27.7542 27.6132C26.9843 27.6363 26.2381 27.7029 25.516 27.8131C23.5849 27.8131 21.6539 27.8131 19.7228 27.8131C18.844 27.8352 17.9662 27.8131 17.0895 27.7465C19.0206 27.7021 20.9516 27.6576 22.8827 27.6132C17.5704 27.5946 12.8744 27.528 8.7948 27.4134C13.8421 27.3894 18.8891 27.345 23.936 27.2801Z"
        fill="#161414" />
    <path fill-rule="evenodd" clip-rule="evenodd"
        d="M26.3059 27.8131C26.7448 27.8131 27.1837 27.8131 27.6226 27.8131C27.675 28.3674 27.4995 28.8114 27.0959 29.1455C26.1419 29.3476 25.1763 29.4586 24.1993 29.4785C19.8545 29.5674 15.5096 29.5674 11.1647 29.4785C10.3696 29.4336 9.57966 29.3449 8.79481 29.2121C8.32152 28.977 8.01431 28.5995 7.87317 28.0796C11.2075 27.9463 14.5429 27.902 17.8795 27.9463C15.0932 28.0572 12.2844 28.1238 9.45312 28.1462C9.97565 28.6189 10.5901 28.8854 11.2964 28.9456C14.8161 29.2574 18.3272 29.1685 21.8294 28.6791C23.0623 28.5334 24.2912 28.3558 25.516 28.1462C25.8417 28.1413 26.105 28.0303 26.3059 27.8131Z"
        fill="#9B9B9B" />
    <path fill-rule="evenodd" clip-rule="evenodd"
        d="M19.7228 27.8131C21.6539 27.8131 23.5849 27.8131 25.516 27.8131C25.7793 27.8131 26.0426 27.8131 26.306 27.8131C26.105 28.0303 25.8417 28.1413 25.516 28.1462C24.2912 28.3558 23.0623 28.5334 21.8294 28.6791C18.3272 29.1685 14.8161 29.2574 11.2964 28.9456C10.5901 28.8854 9.97565 28.6189 9.45312 28.1462C12.2844 28.1238 15.0932 28.0572 17.8795 27.9463C18.5198 27.9888 19.1343 27.9445 19.7228 27.8131Z"
        fill="#D1D1D1" />
    <path opacity="0.478" fill-rule="evenodd" clip-rule="evenodd"
        d="M23.936 32.2098C22.3389 32.4213 20.715 32.5101 19.0645 32.4763C20.6644 32.3208 22.2883 32.232 23.936 32.2098Z"
        fill="#155E74" />
</svg>