<svg width="32" height="32" viewBox="0 0 32 32" fill="none" xmlns="http://www.w3.org/2000/svg">
    <path d="M14.2987 24H18.016V28.0002H14.2987V24Z" fill="white" />
    <path
        d="M16.4425 25.3331C20.7856 25.3331 24.3064 21.4527 24.3064 16.6661C24.3064 11.8794 20.7856 7.99902 16.4425 7.99902C12.0995 7.99902 8.57874 11.8794 8.57874 16.6661C8.57874 21.4527 12.0995 25.3331 16.4425 25.3331Z"
        fill="white" />
    <path
        d="M11.5067 19.4738C11.5067 21.3939 9.89075 22.9487 7.89747 22.9487C5.90551 22.9487 4.28955 21.3939 4.28955 19.4738C4.28955 17.5538 5.90685 15.999 7.89747 15.999C9.89075 15.999 11.5054 17.5551 11.5054 19.4738H11.5067ZM26.4517 18.9992C26.4517 20.6566 25.0117 21.9993 23.2344 21.9993C21.4585 21.9993 20.0172 20.6566 20.0172 18.9992C20.0172 17.3417 21.4571 15.999 23.2344 15.999C25.0117 15.999 26.4517 17.3417 26.4517 18.9992Z"
        fill="#FFBDAF" />
    <path fill-rule="evenodd" clip-rule="evenodd"
        d="M15.7732 25.3126C11.692 25.0539 7.88276 20.6697 8.00276 12.9561L8.49608 12.9627C8.37609 20.5831 12.1227 24.6166 15.8052 24.8499C17.6505 24.9659 19.5425 24.1459 21.0211 22.2765C22.5024 20.4057 23.5677 17.4816 23.7184 13.4227L24.2104 13.4387C24.057 17.5603 22.9744 20.5857 21.4158 22.5551C19.8545 24.5286 17.8105 25.4419 15.7732 25.3126Z"
        fill="#171717" />
    <path
        d="M5.96146 25.1638C4.82149 27.6519 12.3773 31.3374 13.6253 24.6118C10.0174 22.565 8.86539 19.1236 8.6934 13.8953C11.0613 13.682 11.9773 12.762 13.2533 10.4245C12.8666 14.5927 15.3812 14.206 16.8785 8.78178C18.4758 11.6206 19.8331 12.5646 23.1571 12.982C23.581 21.2823 20.2238 23.6411 18.3572 24.6958C18.3572 31.0974 27.8716 28.28 26.365 24.1118C28.9436 26.1652 35.0728 25.2212 29.5582 18.6849C26.365 14.9007 27.5263 4.71094 16.3692 4.71094C5.21348 4.71094 5.83346 14.6314 2.68287 18.0088C-4.06897 25.6798 5.05082 26.6452 5.96146 25.1638Z"
        fill="#171717" />
    <path fill-rule="evenodd" clip-rule="evenodd"
        d="M2.9029 18.0683C1.23494 19.979 0.577623 21.4404 0.502958 22.5218C0.428293 23.5845 0.916282 24.3086 1.6256 24.7752C2.34691 25.2526 3.30556 25.4659 4.14554 25.4686C4.56286 25.4686 4.93885 25.4179 5.22951 25.3259C5.52951 25.2326 5.7015 25.1099 5.77083 24.9966L6.21216 25.2033C5.98149 25.71 6.17482 26.3167 6.70948 26.8767C7.2388 27.4314 8.06678 27.8941 8.96809 28.0807C9.8654 28.2674 10.8147 28.1767 11.6094 27.6567C12.3787 27.154 13.0413 26.226 13.3573 24.6699C9.76007 22.5392 8.6321 18.9977 8.4641 13.7921L8.4561 13.5748L8.68676 13.5534C9.8334 13.4494 10.5987 13.1761 11.2334 12.6641C11.876 12.144 12.4053 11.3613 13.04 10.1893L13.5067 10.3146C13.412 11.3493 13.5 12.0667 13.6813 12.4827C13.772 12.6907 13.876 12.8001 13.968 12.8521C14.0506 12.8974 14.1493 12.9107 14.2813 12.8654C14.4213 12.8201 14.5946 12.7094 14.7933 12.5094C14.9893 12.3107 15.1986 12.036 15.4106 11.6773C15.8373 10.9626 16.2666 9.93594 16.6372 8.58655L16.7972 8.00252L17.0946 8.53588C17.8865 9.9506 18.6012 10.864 19.5078 11.4787C20.4118 12.092 21.5345 12.4267 23.1744 12.6347L23.3771 12.6614L23.3877 12.8534C23.6011 17.0549 22.8651 19.779 21.8211 21.5951C20.8185 23.3379 19.5412 24.2219 18.6012 24.7699C18.6319 26.246 19.1905 27.1567 19.9545 27.6634C20.7491 28.1901 21.8131 28.3101 22.8611 28.1047C23.9064 27.9007 24.901 27.378 25.5384 26.6687C26.1717 25.9646 26.4503 25.0846 26.1077 24.1272L25.821 23.3312L26.501 23.8779C27.1037 24.3606 27.921 24.6712 28.7276 24.7659C29.5396 24.8593 30.3023 24.7299 30.8156 24.3766C31.3116 24.0352 31.6156 23.4565 31.4676 22.5472C31.3169 21.6244 30.6969 20.3697 29.3316 18.7417C28.505 17.7536 27.969 16.3602 27.457 14.8695C27.3677 14.6093 27.2793 14.3489 27.1917 14.0881C26.7637 12.8134 26.3183 11.4893 25.7037 10.2453C24.9637 8.74789 23.9877 7.38649 22.5278 6.39845C21.0705 5.41174 19.1092 4.78238 16.3679 4.78238C13.628 4.78238 11.6294 5.39574 10.1201 6.35445C8.6081 7.31449 7.56812 8.63188 6.76548 10.0693C6.08283 11.292 5.5775 12.5894 5.09752 13.8201L4.84019 14.4788C4.2842 15.8842 3.72022 17.1829 2.9029 18.0683ZM9.84274 5.97043C11.4467 4.95172 13.5453 4.31836 16.3693 4.31836C19.1945 4.31836 21.2625 4.96905 22.8171 6.02243C24.3704 7.07315 25.3904 8.51188 26.1517 10.0493C26.781 11.324 27.2383 12.6827 27.6663 13.9561L27.9276 14.7268C28.4423 16.2269 28.9556 17.5403 29.7209 18.455C31.1076 20.111 31.7876 21.4404 31.9569 22.4778C32.1289 23.5312 31.7742 24.2912 31.1089 24.7512C30.4596 25.1979 29.5556 25.3286 28.669 25.2259C27.9868 25.1476 27.3269 24.9346 26.7277 24.5992C26.8437 25.4953 26.5063 26.3113 25.9157 26.9673C25.197 27.7674 24.0997 28.3367 22.9611 28.5594C21.8225 28.7821 20.6065 28.6648 19.6692 28.0434C18.7225 27.4167 18.1052 26.306 18.1052 24.6406V24.5099L18.2252 24.4432C19.1359 23.9232 20.3985 23.0925 21.3851 21.3738C22.3611 19.6804 23.0811 17.1002 22.9024 13.0667C21.3318 12.8534 20.1772 12.5054 19.2185 11.8547C18.3425 11.2613 17.6519 10.428 16.9519 9.26257C16.6132 10.3706 16.2319 11.2507 15.8426 11.904C15.6159 12.284 15.3853 12.5921 15.1559 12.8241C14.9266 13.0561 14.6893 13.2241 14.4466 13.3041C14.3278 13.3477 14.2011 13.3655 14.0749 13.3563C13.9487 13.3471 13.8259 13.3111 13.7146 13.2507C13.4987 13.1307 13.3373 12.9201 13.224 12.6587C13.0773 12.32 12.9907 11.8587 12.976 11.284C12.5267 12.0187 12.0827 12.5907 11.5547 13.0174C10.8694 13.5708 10.0614 13.8654 8.96542 13.9908C9.16009 19.1043 10.3187 22.3911 13.76 24.3579L13.9026 24.4406L13.8746 24.5966C13.5547 26.3273 12.8253 27.4274 11.892 28.0367C10.9587 28.6474 9.8614 28.7421 8.86143 28.5341C7.86412 28.3274 6.94281 27.8167 6.34149 27.186C5.9175 26.742 5.63217 26.214 5.6215 25.6793C5.54446 25.7128 5.46568 25.7422 5.38551 25.7673C4.98184 25.884 4.56301 25.9397 4.14287 25.9326C3.23089 25.93 2.16559 25.6993 1.34027 25.1553C0.504291 24.6032 -0.0770282 23.7312 0.00830314 22.4912C0.0936345 21.2684 0.824284 19.7164 2.52291 17.7709L2.52424 17.7696L2.52691 17.7669C3.27889 16.9549 3.81621 15.7362 4.3762 14.3175C4.4602 14.1041 4.54553 13.8881 4.62953 13.6668C5.10952 12.436 5.62817 11.1067 6.32682 9.85327C7.15347 8.37454 8.24144 6.98648 9.84274 5.97043Z"
        fill="#171717" />
    <path
        d="M13.2893 2.95945C12.0707 2.01007 11.62 0.986027 12.356 0.551341C13.4853 -0.219359 17.2625 1.8714 17.2625 4.9062C17.2625 4.9062 14.6119 3.98882 13.2893 2.95945Z"
        fill="#171717" />
    <path fill-rule="evenodd" clip-rule="evenodd"
        d="M13.5454 0.558597C13.0654 0.423924 12.7214 0.461259 12.5387 0.593265L12.5321 0.598598L12.5241 0.603932C12.4685 0.635323 12.4199 0.677791 12.3814 0.728707C12.3428 0.779623 12.3152 0.837905 12.3001 0.899945C12.2718 1.06224 12.2922 1.22925 12.3587 1.37997C12.5094 1.77465 12.8867 2.25867 13.4707 2.74003C14.096 3.25605 15.0493 3.7534 15.8626 4.12675C16.2244 4.29232 16.5903 4.44882 16.96 4.59611C16.8346 3.25605 16.0146 2.116 15.0667 1.37197C14.552 0.966614 14.0134 0.687936 13.5454 0.558597ZM17.2253 4.95345L17.1373 5.17613H17.1346L17.1279 5.17346L17.1053 5.16413C16.9697 5.11396 16.8351 5.0615 16.7013 5.00679C16.4333 4.90012 16.0613 4.74411 15.648 4.55477C14.8293 4.18009 13.8254 3.6614 13.1467 3.10137C12.5294 2.59069 12.0827 2.04266 11.8934 1.54131C11.7937 1.30716 11.7658 1.04863 11.8134 0.798607C11.8428 0.676987 11.8961 0.562448 11.9703 0.461704C12.0444 0.36096 12.138 0.276038 12.2454 0.211915C12.6187 -0.0547633 13.1547 -0.0440962 13.6827 0.102577C14.2267 0.254583 14.8253 0.569264 15.3813 1.00528C16.4893 1.87865 17.4719 3.27872 17.4719 4.95479V5.30147L17.1359 5.17746L17.2239 4.95479L17.2253 4.95345Z"
        fill="#171717" />
    <path
        d="M17.9973 27.5303C16.8907 27.9623 15.3174 27.893 14.2427 27.5303C13.0027 27.1129 12.1334 28.1036 13.6441 28.717V31.3531C15.088 31.9665 17.068 31.9091 18.5093 31.4478V28.717C19.8372 28.5156 19.5933 27.0863 17.9973 27.5303Z"
        fill="#171717" />
    <path fill-rule="evenodd" clip-rule="evenodd"
        d="M14.0585 27.217V24.7369H14.5612V27.353C15.5505 27.637 16.8945 27.6837 17.8878 27.3597V24.7356H18.3891V27.229C18.6944 27.1824 18.9597 27.1997 19.1797 27.269C19.4784 27.3664 19.6864 27.5624 19.7597 27.8064C19.8971 28.2664 19.5411 28.7171 18.9117 28.8824V31.5812L18.7411 31.6346C17.2264 32.1066 15.1412 32.1719 13.5972 31.5306L13.4505 31.4692V28.8451C13.1199 28.6944 12.8852 28.5158 12.7532 28.3171C12.5932 28.0771 12.5919 27.8157 12.7399 27.5997C12.8812 27.397 13.1319 27.2664 13.4145 27.2157C13.6092 27.1797 13.8279 27.1784 14.0585 27.217ZM14.0585 27.6877C13.88 27.6441 13.6946 27.6368 13.5132 27.6664C13.3225 27.7011 13.2119 27.7784 13.1652 27.8451C13.1265 27.9011 13.1132 27.9731 13.1825 28.0771C13.2585 28.1931 13.4399 28.3437 13.7999 28.4864L13.9519 28.5464V31.1705C15.2825 31.6679 17.0531 31.6319 18.4091 31.2492V28.5024L18.6197 28.4704C19.2157 28.3824 19.3171 28.0677 19.2757 27.9264C19.2517 27.8464 19.1784 27.7571 19.0144 27.7037C18.8097 27.65 18.5949 27.6477 18.3891 27.6971V27.7917H18.0598C16.9451 28.1571 15.4865 28.0997 14.4118 27.7917H14.0585V27.6877ZM21.473 18.786C22.519 18.7804 23.52 18.3597 24.256 17.6163C24.992 16.873 25.4029 15.8679 25.3983 14.8218C25.4032 13.7755 24.9925 12.77 24.2565 12.0264C23.5204 11.2828 22.5193 10.862 21.473 10.8563C20.4268 10.862 19.4256 11.2828 18.6895 12.0264C17.9535 12.77 17.5428 13.7755 17.5478 14.8218C17.5432 15.8679 17.954 16.873 18.69 17.6163C19.426 18.3597 20.427 18.7804 21.473 18.786ZM21.473 19.2393C22.0534 19.2397 22.6281 19.1257 23.1644 18.9039C23.7007 18.682 24.1881 18.3567 24.5987 17.9465C25.0092 17.5363 25.335 17.0492 25.5573 16.5131C25.7796 15.9769 25.8941 15.4022 25.8942 14.8218C25.8941 14.2414 25.7796 13.6667 25.5573 13.1306C25.335 12.5945 25.0092 12.1074 24.5987 11.6971C24.1881 11.2869 23.7007 10.9616 23.1644 10.7398C22.6281 10.5179 22.0534 10.4039 21.473 10.4043C20.8926 10.4039 20.3179 10.5179 19.7816 10.7398C19.2453 10.9616 18.7579 11.2869 18.3474 11.6971C17.9368 12.1074 17.6111 12.5945 17.3888 13.1306C17.1665 13.6667 17.052 14.2414 17.0518 14.8218C17.052 15.4022 17.1665 15.9769 17.3888 16.5131C17.6111 17.0492 17.9368 17.5363 18.3474 17.9465C18.7579 18.3567 19.2453 18.682 19.7816 18.9039C20.3179 19.1257 20.8926 19.2397 21.473 19.2393ZM10.7373 18.786C11.7833 18.7804 12.7843 18.3597 13.5203 17.6163C14.2563 16.873 14.6671 15.8679 14.6625 14.8218C14.6675 13.7755 14.2568 12.77 13.5207 12.0264C12.7847 11.2828 11.7835 10.862 10.7373 10.8563C9.69103 10.862 8.68985 11.2828 7.9538 12.0264C7.21775 12.77 6.80706 13.7755 6.81203 14.8218C6.80742 15.8679 7.21826 16.873 7.95427 17.6163C8.69028 18.3597 9.69126 18.7804 10.7373 18.786ZM10.7373 19.2393C11.3175 19.2395 11.8921 19.1254 12.4283 18.9035C12.9644 18.6816 13.4516 18.3562 13.8621 17.946C14.2725 17.5358 14.5981 17.0488 14.8203 16.5127C15.0425 15.9767 15.157 15.4021 15.1572 14.8218C15.157 14.2415 15.0425 13.667 14.8203 13.1309C14.5981 12.5948 14.2725 12.1078 13.8621 11.6976C13.4516 11.2874 12.9644 10.9621 12.4283 10.7402C11.8921 10.5182 11.3175 10.4041 10.7373 10.4043C10.1569 10.4039 9.58215 10.5179 9.04585 10.7398C8.50954 10.9616 8.02219 11.2869 7.61162 11.6971C7.20105 12.1074 6.87532 12.5945 6.65302 13.1306C6.43072 13.6667 6.31622 14.2414 6.31604 14.8218C6.31622 15.4022 6.43072 15.9769 6.65302 16.5131C6.87532 17.0492 7.20105 17.5363 7.61162 17.9465C8.02219 18.3567 8.50954 18.682 9.04585 18.9039C9.58215 19.1257 10.1569 19.2397 10.7373 19.2393Z"
        fill="#171717" />
    <path fill-rule="evenodd" clip-rule="evenodd"
        d="M17.2625 15.7059H14.9479V15.1152H17.2625V15.7059Z" fill="#171717" />
    <path
        d="M20.6318 15.1168C20.6318 15.5501 20.4425 15.9008 20.2105 15.9008C19.9772 15.9008 19.7892 15.5501 19.7892 15.1168C19.7892 14.6821 19.9772 14.3301 20.2105 14.3301C20.4425 14.3301 20.6318 14.6821 20.6318 15.1168ZM13.0533 15.1168C13.0533 15.5501 12.864 15.9008 12.632 15.9008C12.3987 15.9008 12.2107 15.5501 12.2107 15.1168C12.2107 14.6821 12.3987 14.3301 12.632 14.3301C12.864 14.3301 13.0533 14.6821 13.0533 15.1168Z"
        fill="#171717" />
    <path fill-rule="evenodd" clip-rule="evenodd"
        d="M15.7732 25.3126C11.692 25.0539 7.88276 20.6697 8.00276 12.9561L8.49608 12.9627C8.37609 20.5831 12.1227 24.6166 15.8052 24.8499C17.6505 24.9659 19.5425 24.1459 21.0211 22.2765C22.5024 20.4057 23.5677 17.4816 23.7184 13.4227L24.2104 13.4387C24.057 17.5603 22.9744 20.5857 21.4158 22.5551C19.8545 24.5286 17.8105 25.4419 15.7732 25.3126Z"
        fill="#171717" />
    <path
        d="M5.96146 25.1638C4.82149 27.6519 12.3773 31.3374 13.6253 24.6118C10.0174 22.565 8.86539 19.1236 8.6934 13.8953C11.0613 13.682 11.9773 12.762 13.2533 10.4245C12.8666 14.5927 15.3812 14.206 16.8785 8.78178C18.4758 11.6206 19.8331 12.5646 23.1571 12.982C23.581 21.2823 20.2238 23.6411 18.3572 24.6958C18.3572 31.0974 27.8716 28.28 26.365 24.1118C28.9436 26.1652 35.0728 25.2212 29.5582 18.6849C26.365 14.9007 27.5263 4.71094 16.3692 4.71094C5.21348 4.71094 5.83346 14.6314 2.68287 18.0088C-4.06897 25.6798 5.05082 26.6452 5.96146 25.1638Z"
        fill="#171717" />
    <path fill-rule="evenodd" clip-rule="evenodd"
        d="M2.9029 18.0683C1.23494 19.979 0.577623 21.4404 0.502958 22.5218C0.428293 23.5845 0.916282 24.3086 1.6256 24.7752C2.34691 25.2526 3.30556 25.4659 4.14554 25.4686C4.56286 25.4686 4.93885 25.4179 5.22951 25.3259C5.52951 25.2326 5.7015 25.1099 5.77083 24.9966L6.21216 25.2033C5.98149 25.71 6.17482 26.3167 6.70948 26.8767C7.2388 27.4314 8.06678 27.8941 8.96809 28.0807C9.8654 28.2674 10.8147 28.1767 11.6094 27.6567C12.3787 27.154 13.0413 26.226 13.3573 24.6699C9.76007 22.5392 8.6321 18.9977 8.4641 13.7921L8.4561 13.5748L8.68676 13.5534C9.8334 13.4494 10.5987 13.1761 11.2334 12.6641C11.876 12.144 12.4053 11.3613 13.04 10.1893L13.5067 10.3146C13.412 11.3493 13.5 12.0667 13.6813 12.4827C13.772 12.6907 13.876 12.8001 13.968 12.8521C14.0506 12.8974 14.1493 12.9107 14.2813 12.8654C14.4213 12.8201 14.5946 12.7094 14.7933 12.5094C14.9893 12.3107 15.1986 12.036 15.4106 11.6773C15.8373 10.9626 16.2666 9.93594 16.6372 8.58655L16.7972 8.00252L17.0946 8.53588C17.8865 9.9506 18.6012 10.864 19.5078 11.4787C20.4118 12.092 21.5345 12.4267 23.1744 12.6347L23.3771 12.6614L23.3877 12.8534C23.6011 17.0549 22.8651 19.779 21.8211 21.5951C20.8185 23.3379 19.5412 24.2219 18.6012 24.7699C18.6319 26.246 19.1905 27.1567 19.9545 27.6634C20.7491 28.1901 21.8131 28.3101 22.8611 28.1047C23.9064 27.9007 24.901 27.378 25.5384 26.6687C26.1717 25.9646 26.4503 25.0846 26.1077 24.1272L25.821 23.3312L26.501 23.8779C27.1037 24.3606 27.921 24.6712 28.7276 24.7659C29.5396 24.8593 30.3023 24.7299 30.8156 24.3766C31.3116 24.0352 31.6156 23.4565 31.4676 22.5472C31.3169 21.6244 30.6969 20.3697 29.3316 18.7417C28.505 17.7536 27.969 16.3602 27.457 14.8695C27.3677 14.6093 27.2793 14.3489 27.1917 14.0881C26.7637 12.8134 26.3183 11.4893 25.7037 10.2453C24.9637 8.74789 23.9877 7.38649 22.5278 6.39845C21.0705 5.41174 19.1092 4.78238 16.3679 4.78238C13.628 4.78238 11.6294 5.39574 10.1201 6.35445C8.6081 7.31449 7.56812 8.63188 6.76548 10.0693C6.08283 11.292 5.5775 12.5894 5.09752 13.8201L4.84019 14.4788C4.2842 15.8842 3.72022 17.1829 2.9029 18.0683ZM9.84274 5.97043C11.4467 4.95172 13.5453 4.31836 16.3693 4.31836C19.1945 4.31836 21.2625 4.96905 22.8171 6.02243C24.3704 7.07315 25.3904 8.51188 26.1517 10.0493C26.781 11.324 27.2383 12.6827 27.6663 13.9561L27.9276 14.7268C28.4423 16.2269 28.9556 17.5403 29.7209 18.455C31.1076 20.111 31.7876 21.4404 31.9569 22.4778C32.1289 23.5312 31.7742 24.2912 31.1089 24.7512C30.4596 25.1979 29.5556 25.3286 28.669 25.2259C27.9868 25.1476 27.3269 24.9346 26.7277 24.5992C26.8437 25.4953 26.5063 26.3113 25.9157 26.9673C25.197 27.7674 24.0997 28.3367 22.9611 28.5594C21.8225 28.7821 20.6065 28.6648 19.6692 28.0434C18.7225 27.4167 18.1052 26.306 18.1052 24.6406V24.5099L18.2252 24.4432C19.1359 23.9232 20.3985 23.0925 21.3851 21.3738C22.3611 19.6804 23.0811 17.1002 22.9024 13.0667C21.3318 12.8534 20.1772 12.5054 19.2185 11.8547C18.3425 11.2613 17.6519 10.428 16.9519 9.26257C16.6132 10.3706 16.2319 11.2507 15.8426 11.904C15.6159 12.284 15.3853 12.5921 15.1559 12.8241C14.9266 13.0561 14.6893 13.2241 14.4466 13.3041C14.3278 13.3477 14.2011 13.3655 14.0749 13.3563C13.9487 13.3471 13.8259 13.3111 13.7146 13.2507C13.4987 13.1307 13.3373 12.9201 13.224 12.6587C13.0773 12.32 12.9907 11.8587 12.976 11.284C12.5267 12.0187 12.0827 12.5907 11.5547 13.0174C10.8694 13.5708 10.0614 13.8654 8.96542 13.9908C9.16009 19.1043 10.3187 22.3911 13.76 24.3579L13.9026 24.4406L13.8746 24.5966C13.5547 26.3273 12.8253 27.4274 11.892 28.0367C10.9587 28.6474 9.8614 28.7421 8.86143 28.5341C7.86412 28.3274 6.94281 27.8167 6.34149 27.186C5.9175 26.742 5.63217 26.214 5.6215 25.6793C5.54446 25.7128 5.46568 25.7422 5.38551 25.7673C4.98184 25.884 4.56301 25.9397 4.14287 25.9326C3.23089 25.93 2.16559 25.6993 1.34027 25.1553C0.504291 24.6032 -0.0770282 23.7312 0.00830314 22.4912C0.0936345 21.2684 0.824284 19.7164 2.52291 17.7709L2.52424 17.7696L2.52691 17.7669C3.27889 16.9549 3.81621 15.7362 4.3762 14.3175C4.4602 14.1041 4.54553 13.8881 4.62953 13.6668C5.10952 12.436 5.62817 11.1067 6.32682 9.85327C7.15347 8.37454 8.24144 6.98648 9.84274 5.97043Z"
        fill="#171717" />
    <path
        d="M13.2893 2.95945C12.0707 2.01007 11.62 0.986027 12.356 0.551341C13.4853 -0.219359 17.2625 1.8714 17.2625 4.9062C17.2625 4.9062 14.6119 3.98882 13.2893 2.95945Z"
        fill="#171717" />
    <path fill-rule="evenodd" clip-rule="evenodd"
        d="M13.5454 0.558597C13.0654 0.423924 12.7214 0.461259 12.5387 0.593265L12.5321 0.598598L12.5241 0.603932C12.4685 0.635323 12.4199 0.677791 12.3814 0.728707C12.3428 0.779623 12.3152 0.837905 12.3001 0.899945C12.2718 1.06224 12.2922 1.22925 12.3587 1.37997C12.5094 1.77465 12.8867 2.25867 13.4707 2.74003C14.096 3.25605 15.0493 3.7534 15.8626 4.12675C16.2244 4.29232 16.5903 4.44882 16.96 4.59611C16.8346 3.25605 16.0146 2.116 15.0667 1.37197C14.552 0.966614 14.0134 0.687936 13.5454 0.558597ZM17.2253 4.95345L17.1373 5.17613H17.1346L17.1279 5.17346L17.1053 5.16413C16.9697 5.11396 16.8351 5.0615 16.7013 5.00679C16.4333 4.90012 16.0613 4.74411 15.648 4.55477C14.8293 4.18009 13.8254 3.6614 13.1467 3.10137C12.5294 2.59069 12.0827 2.04266 11.8934 1.54131C11.7937 1.30716 11.7658 1.04863 11.8134 0.798607C11.8428 0.676987 11.8961 0.562448 11.9703 0.461704C12.0444 0.36096 12.138 0.276038 12.2454 0.211915C12.6187 -0.0547633 13.1547 -0.0440962 13.6827 0.102577C14.2267 0.254583 14.8253 0.569264 15.3813 1.00528C16.4893 1.87865 17.4719 3.27872 17.4719 4.95479V5.30147L17.1359 5.17746L17.2239 4.95479L17.2253 4.95345Z"
        fill="#171717" />
    <path
        d="M17.9973 27.5303C16.8907 27.9623 15.3174 27.893 14.2427 27.5303C13.0027 27.1129 12.1334 28.1036 13.6441 28.717V31.3531C15.088 31.9665 17.068 31.9091 18.5093 31.4478V28.717C19.8372 28.5156 19.5933 27.0863 17.9973 27.5303Z"
        fill="#171717" />
    <path fill-rule="evenodd" clip-rule="evenodd"
        d="M14.0585 27.217V24.7369H14.5612V27.353C15.5505 27.637 16.8945 27.6837 17.8878 27.3597V24.7356H18.3891V27.229C18.6944 27.1824 18.9597 27.1997 19.1797 27.269C19.4784 27.3664 19.6864 27.5624 19.7597 27.8064C19.8971 28.2664 19.5411 28.7171 18.9117 28.8824V31.5812L18.7411 31.6346C17.2264 32.1066 15.1412 32.1719 13.5972 31.5306L13.4505 31.4692V28.8451C13.1199 28.6944 12.8852 28.5158 12.7532 28.3171C12.5932 28.0771 12.5919 27.8157 12.7399 27.5997C12.8812 27.397 13.1319 27.2664 13.4145 27.2157C13.6092 27.1797 13.8279 27.1784 14.0585 27.217ZM14.0585 27.6877C13.88 27.6441 13.6946 27.6368 13.5132 27.6664C13.3225 27.7011 13.2119 27.7784 13.1652 27.8451C13.1265 27.9011 13.1132 27.9731 13.1825 28.0771C13.2585 28.1931 13.4399 28.3437 13.7999 28.4864L13.9519 28.5464V31.1705C15.2825 31.6679 17.0531 31.6319 18.4091 31.2492V28.5024L18.6197 28.4704C19.2157 28.3824 19.3171 28.0677 19.2757 27.9264C19.2517 27.8464 19.1784 27.7571 19.0144 27.7037C18.8097 27.65 18.5949 27.6477 18.3891 27.6971V27.7917H18.0598C16.9451 28.1571 15.4865 28.0997 14.4118 27.7917H14.0585V27.6877ZM21.473 18.786C22.519 18.7804 23.52 18.3597 24.256 17.6163C24.992 16.873 25.4029 15.8679 25.3983 14.8218C25.4032 13.7755 24.9925 12.77 24.2565 12.0264C23.5204 11.2828 22.5193 10.862 21.473 10.8563C20.4268 10.862 19.4256 11.2828 18.6895 12.0264C17.9535 12.77 17.5428 13.7755 17.5478 14.8218C17.5432 15.8679 17.954 16.873 18.69 17.6163C19.426 18.3597 20.427 18.7804 21.473 18.786ZM21.473 19.2393C22.0534 19.2397 22.6281 19.1257 23.1644 18.9039C23.7007 18.682 24.1881 18.3567 24.5987 17.9465C25.0092 17.5363 25.335 17.0492 25.5573 16.5131C25.7796 15.9769 25.8941 15.4022 25.8942 14.8218C25.8941 14.2414 25.7796 13.6667 25.5573 13.1306C25.335 12.5945 25.0092 12.1074 24.5987 11.6971C24.1881 11.2869 23.7007 10.9616 23.1644 10.7398C22.6281 10.5179 22.0534 10.4039 21.473 10.4043C20.8926 10.4039 20.3179 10.5179 19.7816 10.7398C19.2453 10.9616 18.7579 11.2869 18.3474 11.6971C17.9368 12.1074 17.6111 12.5945 17.3888 13.1306C17.1665 13.6667 17.052 14.2414 17.0518 14.8218C17.052 15.4022 17.1665 15.9769 17.3888 16.5131C17.6111 17.0492 17.9368 17.5363 18.3474 17.9465C18.7579 18.3567 19.2453 18.682 19.7816 18.9039C20.3179 19.1257 20.8926 19.2397 21.473 19.2393ZM10.7373 18.786C11.7833 18.7804 12.7843 18.3597 13.5203 17.6163C14.2563 16.873 14.6671 15.8679 14.6625 14.8218C14.6675 13.7755 14.2568 12.77 13.5207 12.0264C12.7847 11.2828 11.7835 10.862 10.7373 10.8563C9.69103 10.862 8.68985 11.2828 7.9538 12.0264C7.21775 12.77 6.80706 13.7755 6.81203 14.8218C6.80742 15.8679 7.21826 16.873 7.95427 17.6163C8.69028 18.3597 9.69126 18.7804 10.7373 18.786ZM10.7373 19.2393C11.3175 19.2395 11.8921 19.1254 12.4283 18.9035C12.9644 18.6816 13.4516 18.3562 13.8621 17.946C14.2725 17.5358 14.5981 17.0488 14.8203 16.5127C15.0425 15.9767 15.157 15.4021 15.1572 14.8218C15.157 14.2415 15.0425 13.667 14.8203 13.1309C14.5981 12.5948 14.2725 12.1078 13.8621 11.6976C13.4516 11.2874 12.9644 10.9621 12.4283 10.7402C11.8921 10.5182 11.3175 10.4041 10.7373 10.4043C10.1569 10.4039 9.58215 10.5179 9.04585 10.7398C8.50954 10.9616 8.02219 11.2869 7.61162 11.6971C7.20105 12.1074 6.87532 12.5945 6.65302 13.1306C6.43072 13.6667 6.31622 14.2414 6.31604 14.8218C6.31622 15.4022 6.43072 15.9769 6.65302 16.5131C6.87532 17.0492 7.20105 17.5363 7.61162 17.9465C8.02219 18.3567 8.50954 18.682 9.04585 18.9039C9.58215 19.1257 10.1569 19.2397 10.7373 19.2393Z"
        fill="#171717" />
    <path fill-rule="evenodd" clip-rule="evenodd"
        d="M17.2625 15.7059H14.9479V15.1152H17.2625V15.7059Z" fill="#171717" />
</svg>