<svg width="32" height="32" viewBox="0 0 33 32" fill="none" xmlns="http://www.w3.org/2000/svg">
    <path
        d="M31.5432 11.4016C31.8209 10.8261 31.9796 10.193 32.0094 9.55992C32.049 6.91244 29.9959 4.68702 27.2682 4.42803C26.683 3.87168 26.0482 3.36329 25.3837 2.89326C22.2097 0.715811 18.3315 -0.291381 14.4632 0.0731262C13.7094 0.140272 12.9556 0.25538 12.2216 0.428041H12.1224C11.8744 0.476003 11.6165 0.543149 11.3785 0.62948C7.58956 1.8477 4.83217 5.04194 4.26681 8.86927C4.06843 10.1738 4.12794 11.4976 4.44534 12.7733C5.70501 18.1834 11.2595 21.5887 16.8536 20.38C16.8933 20.3704 16.9429 20.3608 16.9826 20.3513C18.4208 20.0155 19.7697 19.392 20.9302 18.5095C21.0095 18.4424 21.0889 18.5095 21.0095 18.6055C19.7499 19.9772 18.153 21.0227 16.3676 21.6558C16.2089 21.4544 15.9708 21.3201 15.713 21.2913C15.4551 21.2529 15.1972 21.3201 14.9889 21.4736C14.7806 21.627 14.6417 21.8572 14.612 22.1162L14.007 22.2122C13.7491 22.2122 13.5011 22.2697 13.2333 22.2793C13.1341 22.0395 12.9556 21.8573 12.7076 21.7517C12.4696 21.6558 12.2018 21.6558 11.9637 21.7517C11.7157 21.8477 11.5273 22.0299 11.4182 22.2697C10.9619 22.2218 10.5057 22.1546 10.0593 22.0491C10.0296 21.7997 9.91054 21.5599 9.71216 21.3968C9.3055 21.0611 8.69054 21.1091 8.34338 21.5023C8.33347 21.5119 8.33347 21.5119 8.32355 21.5215C7.89704 21.3489 7.48046 21.1474 7.08371 20.9268C7.13331 20.6774 7.07379 20.4184 6.92501 20.2074C6.77623 19.9963 6.55802 19.8525 6.30014 19.8045C6.04225 19.7565 5.78436 19.8141 5.56615 19.958C5.20908 19.6702 4.86193 19.3728 4.53461 19.0563C4.61396 18.8836 4.61396 18.6822 4.53461 18.5095C4.4751 18.3273 4.34616 18.1738 4.16762 18.0875C3.98908 18.0203 3.78079 18.0203 3.60226 18.0875C3.31461 17.723 3.05673 17.3393 2.81868 16.946C2.90795 16.8309 2.94762 16.687 2.9377 16.5431C2.91787 16.3992 2.84844 16.2649 2.73933 16.1786C2.62031 16.0923 2.48144 16.0539 2.33266 16.0635C1.85657 15.0371 1.54909 13.9436 1.41023 12.8213V12.5143C1.3408 12.006 1.31104 11.488 1.31104 10.9796V10.9124C1.2912 10.7302 1.11267 10.6055 0.924211 10.6247C0.914293 10.6247 0.914293 10.6247 0.904374 10.6247C0.78535 10.6438 0.676244 10.7206 0.63657 10.8261V10.9508C0.606814 12.006 0.696082 13.0995 0.914293 14.1738L0.983724 14.5191C2.46161 21.5983 9.59314 26.1738 16.9131 24.7445C16.9627 24.7349 17.0123 24.7253 17.0619 24.7158C19.5912 24.1498 21.8923 22.8644 23.6578 21.0227C23.7273 20.9556 23.8165 21.0227 23.757 21.1186C22.5271 22.8165 20.9104 24.217 19.0159 25.1954C18.8274 25.0227 18.5695 24.9172 18.3017 24.9172C18.0439 24.9268 17.7959 25.0419 17.6273 25.2241C17.4388 25.4064 17.3495 25.6558 17.3595 25.9148C16.923 26.0779 16.4866 26.2122 16.0304 26.3177C15.9014 26.097 15.6733 25.9532 15.4154 25.9052C15.1674 25.8476 14.8996 25.8956 14.6814 26.0299C14.4632 26.1738 14.3045 26.3944 14.2549 26.6438C13.7987 26.6918 13.3424 26.7205 12.8762 26.7205C12.787 26.4807 12.6084 26.2793 12.3704 26.1738C12.1323 26.0779 11.8645 26.0779 11.6265 26.1738C11.3785 26.2601 11.1801 26.4328 11.071 26.663C10.585 26.6054 10.1089 26.5191 9.63281 26.4136C9.61298 26.1642 9.48403 25.934 9.27574 25.7709C9.07737 25.6078 8.80956 25.5311 8.55168 25.5503C8.29379 25.5791 8.05574 25.7038 7.88712 25.9052C7.47054 25.7421 7.04404 25.5695 6.63737 25.368C6.65721 25.1762 6.5977 24.9843 6.47867 24.8309C6.34973 24.687 6.17119 24.5911 5.98274 24.5719C5.79428 24.5431 5.59591 24.6006 5.44713 24.7253C5.0603 24.4855 4.67347 24.2074 4.26681 23.9388C4.32632 23.8045 4.32632 23.6606 4.26681 23.5263C4.12795 23.2577 3.79071 23.1522 3.52291 23.2865C2.46161 22.3273 1.56893 21.205 0.884537 19.9676C0.815106 19.8429 0.666326 19.7757 0.517546 19.7949C0.388603 19.8141 0.279497 19.91 0.249741 20.0347C0.229904 20.0827 0.229904 20.1306 0.249741 20.1882C0.239823 20.2266 0.239823 20.2553 0.249741 20.2937C3.8403 27.7469 13.0052 30.9795 20.712 27.5071C22.8346 26.5479 24.6993 25.1474 26.1672 23.392C26.2367 23.3249 26.3259 23.392 26.2664 23.4592C25.1159 25.5599 23.4099 27.3345 21.3269 28.591C21.1286 28.428 20.8707 28.3608 20.6128 28.3896C20.3549 28.4088 20.1169 28.5335 19.9482 28.7349C19.7796 28.9364 19.7003 29.1858 19.7201 29.4448C19.3035 29.627 18.877 29.7997 18.4406 29.9532C18.2819 29.7517 18.0439 29.6174 17.786 29.5982C17.5281 29.5695 17.2702 29.6366 17.0619 29.7901C16.8536 29.9436 16.7247 30.1834 16.6949 30.4328C16.2486 30.5287 15.7923 30.6054 15.3361 30.663C15.2468 30.4903 15.098 30.3656 14.9096 30.2985C14.731 30.2313 14.5326 30.2313 14.3541 30.2985C14.1756 30.3848 14.0367 30.5383 13.9871 30.7205C13.5209 30.7397 13.0647 30.7397 12.5985 30.7205C12.5489 30.5862 12.4596 30.4711 12.3307 30.404C12.2018 30.356 12.053 30.356 11.9141 30.404C11.7752 30.452 11.6562 30.5479 11.5868 30.663C11.1008 30.5958 10.6247 30.4999 10.1486 30.3848C10.0891 30.3656 10.0196 30.3656 9.96013 30.3848C9.81135 30.452 9.75184 30.6246 9.83119 30.7685C9.83119 30.7685 9.83119 30.7685 9.83119 30.7781C9.86094 30.8261 9.91054 30.874 9.96013 30.9028C13.0448 32.0922 16.4469 32.3225 19.6705 31.5551C28.4783 29.4256 33.884 20.8309 31.7812 12.2841C31.7019 11.958 31.6324 11.6702 31.5432 11.4016ZM15.7824 1.95322C10.337 2.2218 6.07201 6.57671 6.07201 11.8429C6.07201 11.9388 6.01249 11.9388 6.00258 11.8429C4.93136 7.43042 7.75818 3.00837 12.3307 1.96281C12.9556 1.81893 13.5904 1.75178 14.2252 1.74219C14.7509 1.74219 15.2865 1.79974 15.8022 1.90526C15.8816 1.90526 15.8816 1.90526 15.8022 1.90526M26.7624 11.5839C25.3638 11.5359 24.2728 10.4136 24.3125 9.06111C24.3621 7.71819 25.5027 6.64385 26.8913 6.65345C28.2799 6.74937 29.3511 7.88126 29.3214 9.23378C29.2718 10.5671 28.1311 11.6223 26.7525 11.6031"
        fill="#613EA3" />
</svg>