<svg width="32" height="32" viewBox="0 0 33 33" fill="none" xmlns="http://www.w3.org/2000/svg">
    <path fill-rule="evenodd" clip-rule="evenodd"
        d="M32.08 16.1475V16.3755C32.0607 16.3756 32.0531 16.3923 32.0422 16.4032C29.9053 18.5296 27.7683 20.6561 25.6325 22.7835C25.6082 22.8077 25.598 22.8051 25.5754 22.7825C23.4025 20.6187 21.2288 18.4554 19.0552 16.2923C19.0455 16.2826 19.0346 16.274 19.0244 16.2649V16.258C19.034 16.2498 19.0439 16.242 19.0526 16.2332C21.2271 14.0692 23.4016 11.9052 25.5758 9.74108C25.5847 9.73224 25.5926 9.72231 25.6008 9.71289H25.6077C25.6136 9.71989 25.619 9.72736 25.6253 9.73375C27.7666 11.865 29.9081 13.9962 32.0496 16.1273C32.0581 16.1358 32.0646 16.1486 32.08 16.1475Z"
        fill="#E6E6E6" />
    <path fill-rule="evenodd" clip-rule="evenodd"
        d="M0.0800781 16.2719V16.2511C0.102214 16.2379 0.118269 16.2177 0.136064 16.1999C0.763668 15.5755 1.39127 14.9511 2.01866 14.3266C2.64605 13.7021 3.27343 13.0776 3.90104 12.4532C4.76085 11.5975 5.62087 10.7419 6.48025 9.88587C6.53732 9.82898 6.59809 9.77537 6.64952 9.71289H6.66341C6.67751 9.72663 6.69162 9.74021 6.70572 9.7541C8.83181 11.8702 10.9581 13.9863 13.0844 16.1024C13.0933 16.1114 13.1018 16.121 13.1113 16.1293C13.1265 16.1425 13.1317 16.1585 13.1313 16.1784C13.1304 16.2244 13.1283 16.2707 13.1319 16.3165C13.1356 16.3611 13.1185 16.3911 13.0875 16.4219C11.0694 18.4289 9.0523 20.4365 7.03516 22.4442C6.91081 22.568 6.78732 22.6928 6.66341 22.817H6.65647C6.64648 22.8058 6.63715 22.7941 6.62652 22.7835C4.45573 20.6228 2.28472 18.4622 0.113711 16.3016C0.103077 16.2911 0.0913628 16.2818 0.0800781 16.2719Z"
        fill="black" />
    <path fill-rule="evenodd" clip-rule="evenodd"
        d="M16.1634 32.3199H16.1565C16.1471 32.3097 16.1382 32.2991 16.1285 32.2894C13.9542 30.1255 11.7799 27.9615 9.60568 25.7976C9.59744 25.7896 9.58854 25.7823 9.58008 25.7747V25.7678C9.58963 25.7596 9.59961 25.752 9.6085 25.7432C11.7396 23.6224 13.8709 21.5014 16.0017 19.3805C16.054 19.3285 16.1048 19.2753 16.1565 19.2227H16.1634C16.1734 19.2336 16.1827 19.2451 16.1934 19.2556C18.321 21.3734 20.449 23.4911 22.5768 25.6088C22.5883 25.6203 22.6016 25.6304 22.6107 25.6434C22.6191 25.6557 22.6274 25.671 22.6278 25.6853C22.6298 25.7382 22.6272 25.7913 22.6293 25.8443C22.6304 25.8719 22.6217 25.8911 22.602 25.9106C22.3242 26.1859 22.0469 26.462 21.7695 26.738C20.0493 28.4501 18.3292 30.1622 16.6089 31.8745C16.4601 32.0227 16.3118 32.1715 16.1634 32.3199Z"
        fill="#44C4EC" />
    <path fill-rule="evenodd" clip-rule="evenodd"
        d="M16.1982 0.320312H16.2052C16.2134 0.329729 16.2212 0.339607 16.2301 0.348448C18.4037 2.51173 20.5771 4.67495 22.7507 6.83811C22.7605 6.84778 22.7714 6.85636 22.7816 6.86545V6.87236C22.7672 6.88584 22.7527 6.89897 22.7388 6.9128C20.5836 9.05774 18.4285 11.2027 16.2735 13.3478C16.2499 13.3712 16.2284 13.3964 16.2023 13.4249C16.1882 13.4083 16.18 13.3969 16.1702 13.3872C13.996 11.2232 11.8217 9.05921 9.64743 6.8953C9.63919 6.88722 9.63029 6.88001 9.62183 6.87236V6.86545C9.63137 6.85725 9.64136 6.84962 9.65026 6.84079C11.7813 4.72001 13.9126 2.5991 16.0435 0.478124C16.0958 0.426173 16.1466 0.372955 16.1982 0.320312Z"
        fill="#44C4EC" />
</svg>