<svg width="32" height="32" viewBox="0 0 32 32" fill="none" xmlns="http://www.w3.org/2000/svg">
<path fill-rule="evenodd" clip-rule="evenodd" d="M23.2747 8.32229C23.5309 7.73048 23.8541 7.16481 24.2444 6.62532C22.9009 5.22324 21.4464 3.93032 19.8808 2.74653C19.2411 2.652 18.5947 2.73281 17.9414 2.98896C20.4628 1.02019 23.3719 0.212107 26.6687 0.564715C26.6687 2.98896 26.6687 5.4132 26.6687 7.83744C25.524 7.92185 24.3926 8.08345 23.2747 8.32229Z" fill="#1B87F4"/>
<path opacity="0.065" fill-rule="evenodd" clip-rule="evenodd" d="M29.0915 2.98828C29.9822 3.05589 30.1439 3.37913 29.5764 3.95798C29.1897 3.73646 29.0281 3.41322 29.0915 2.98828Z" fill="#AA8D71"/>
<path fill-rule="evenodd" clip-rule="evenodd" d="M23.2741 8.32297C21.5189 9.26978 20.0643 10.5627 18.9105 12.2018C19.014 11.4047 18.8524 10.6774 18.4257 10.0199C18.8175 9.8708 19.1407 9.62837 19.3954 9.29266C18.1911 8.33121 17.0598 7.28074 16.0014 6.14115C15.5418 5.90706 15.0569 5.82624 14.5469 5.89872C15.3902 4.56893 16.5215 3.59924 17.9408 2.98963C18.5941 2.73348 19.2405 2.65268 19.8802 2.74721C21.4458 3.931 22.9003 5.22391 24.2438 6.626C23.8535 7.16549 23.5303 7.73116 23.2741 8.32297Z" fill="#2575FB"/>
<path fill-rule="evenodd" clip-rule="evenodd" d="M14.5488 5.89875C15.0588 5.82627 15.5437 5.90709 16.0033 6.14117C17.0617 7.28076 18.193 8.33124 19.3973 9.29269C19.1426 9.6284 18.8194 9.87082 18.4276 10.02C18.8543 10.6775 19.0159 11.4047 18.9124 12.2018C18.525 13.6223 18.3634 15.0769 18.4276 16.5654C18.1043 17.3735 17.7811 18.1816 17.4579 18.9897C17.3801 17.3492 17.5417 15.733 17.9427 14.1412C16.1547 12.3532 14.377 10.5755 12.6094 8.80784C12.7766 7.49977 13.423 6.53007 14.5488 5.89875Z" fill="#4F54F7"/>
<path fill-rule="evenodd" clip-rule="evenodd" d="M12.6083 8.80664C14.3759 10.5743 16.1537 12.352 17.9416 14.14C17.5407 15.7318 17.379 17.348 17.4568 18.9885C17.1771 21.1621 16.369 23.1015 15.0326 24.8066C13.2673 23.2043 11.4895 21.5881 9.69922 19.9582C10.436 17.4403 10.8401 14.8545 10.9113 12.2006C11.2362 10.9041 11.8019 9.7728 12.6083 8.80664Z" fill="#6445FC"/>
<path opacity="0.926" fill-rule="evenodd" clip-rule="evenodd" d="M9.69851 19.959C11.4888 21.5889 13.2666 23.2051 15.0318 24.8075C14.7362 25.2395 14.5746 25.7243 14.547 26.262C11.2236 29.6191 7.18311 31.2353 2.42578 31.1105C2.42578 28.6863 2.42578 26.262 2.42578 23.8378C5.50622 23.6727 7.93046 22.3797 9.69851 19.959Z" fill="#8054FE"/>
<path opacity="0.939" fill-rule="evenodd" clip-rule="evenodd" d="M18.4257 16.5645C19.1734 21.1881 21.9209 23.6124 26.6681 23.8372C26.6681 26.2614 26.6681 28.6857 26.6681 31.1099C21.8361 31.3866 17.7957 29.7704 14.5469 26.2614C14.5745 25.7237 14.7361 25.2389 15.0317 24.8069C16.3682 23.1017 17.1763 21.1623 17.456 18.9887C17.7792 18.1806 18.1024 17.3726 18.4257 16.5645Z" fill="#FEBB2A"/>
</svg>
