<svg width="32" height="32" viewBox="0 0 32 32" fill="none" xmlns="http://www.w3.org/2000/svg">
    <path fill-rule="evenodd" clip-rule="evenodd"
        d="M1.26071 3.28223H30.7393C31.4356 3.28223 32 3.83335 32 4.51321V9.66876H0V4.51321C0 3.83335 0.564436 3.28223 1.26071 3.28223Z"
        fill="#FECD45" />
    <path fill-rule="evenodd" clip-rule="evenodd" d="M0 9.55859H32V15.9451H0V9.55859Z"
        fill="#FF863C" />
    <path fill-rule="evenodd" clip-rule="evenodd" d="M0 15.9453H32V22.3319H0V15.9453Z"
        fill="#3542FA" />
    <path fill-rule="evenodd" clip-rule="evenodd"
        d="M0 22.3315H32V27.4871C32 28.167 31.4356 28.7181 30.7393 28.7181H1.26071C0.564436 28.7181 0 28.167 0 27.4871V22.3315Z"
        fill="#474C53" />
    <path
        d="M25.0471 10.323C25.549 9.9154 26.2941 9.98226 26.7116 10.4723C27.1199 10.9517 27.0632 11.6584 26.5908 12.0705L26.5586 12.0975L16.7959 20.0256C16.3697 20.3717 15.7566 20.3811 15.3203 20.0537L15.2844 20.0256L5.52164 12.0975C5.01978 11.6899 4.9513 10.9623 5.36869 10.4723C5.77702 9.99291 6.49905 9.9185 7.00009 10.297L7.03316 10.323L16.0401 17.6373L25.0471 10.323Z"
        fill="#F9F9F9" />
</svg>