<svg width="32" height="32" viewBox="0 0 32 28" fill="none" xmlns="http://www.w3.org/2000/svg">
    <path opacity="0.524" fill-rule="evenodd" clip-rule="evenodd"
        d="M7.92188 0.317856C7.92188 0.312653 7.92188 0.307449 7.92188 0.302246C7.99473 0.302246 8.06756 0.302246 8.14041 0.302246C8.09492 0.322853 8.0481 0.328057 7.99992 0.317856C7.9739 0.317856 7.9479 0.317856 7.92188 0.317856Z"
        fill="#731AEA" />
    <path fill-rule="evenodd" clip-rule="evenodd"
        d="M8.1403 0.302246C8.38486 0.302246 8.6294 0.302246 8.87396 0.302246C10.6802 0.440798 12.2568 1.10942 13.6037 2.3081C14.3933 3.10551 15.1894 3.8938 15.992 4.67298C15.0361 5.90211 13.9382 6.98698 12.6984 7.92761C11.7878 8.60921 10.7836 9.11394 9.68567 9.44176C9.06765 9.60732 8.45106 9.68796 7.83591 9.68371C6.42635 9.57291 5.27643 8.97453 4.38616 7.88859C3.60701 6.83465 3.28701 5.67693 3.42616 4.41542C3.70226 2.72254 4.60763 1.49978 6.14226 0.747124C6.46286 0.601928 6.79587 0.495261 7.14128 0.427124C7.29095 0.397192 7.44185 0.373778 7.59396 0.35688C7.57916 0.349344 7.56355 0.346742 7.54713 0.349075C7.5638 0.334488 7.58461 0.329285 7.60957 0.333466C7.60753 0.345 7.61013 0.355406 7.61738 0.364685C7.74663 0.347784 7.87411 0.332175 7.99982 0.317856C8.04799 0.328057 8.09482 0.322853 8.1403 0.302246Z"
        fill="#6701E6" />
    <path fill-rule="evenodd" clip-rule="evenodd"
        d="M23.2039 0.302246C23.4537 0.302246 23.7034 0.302246 23.9532 0.302246C24.9681 0.360851 25.9359 0.605403 26.8566 1.0359C27.3199 2.03334 27.5592 3.06358 27.5746 4.12664C27.5735 4.26519 27.5735 4.40048 27.5746 4.53249C27.5081 6.47124 26.8188 8.16229 25.5063 9.60566C20.878 14.234 16.2497 18.8622 11.6215 23.4905C11.6122 23.4977 11.6018 23.5004 11.5902 23.4983C10.0597 21.9783 8.53517 20.4537 7.01658 18.9247C6.3654 18.2578 5.70459 17.6022 5.03414 16.9579C5.00812 16.9422 4.98731 16.9215 4.9717 16.8954C4.95089 16.8434 4.91446 16.8069 4.86243 16.7861C4.85202 16.7861 4.84682 16.781 4.84682 16.7705C4.83121 16.7237 4.79999 16.6925 4.75316 16.6769C4.55543 16.4896 4.36292 16.2971 4.1756 16.0993C4.1756 16.0681 4.15999 16.0525 4.12877 16.0525C4.04553 15.9381 3.94665 15.8392 3.83219 15.7559C3.26546 15.184 2.69831 14.6116 2.13072 14.0388C2.13072 14.0076 2.11511 13.992 2.08389 13.992C0.830235 12.6311 0.133 11.0232 -0.0078125 9.16859C-0.0078125 8.85119 -0.0078125 8.53379 -0.0078125 8.21639C0.0971915 6.76962 0.557679 5.448 1.37365 4.25151C1.45228 4.1355 1.53814 4.02623 1.63121 3.92371C1.65316 3.91633 1.66357 3.90072 1.66243 3.87688C1.66763 3.86127 1.67804 3.85086 1.69365 3.84566C1.7156 3.83828 1.72601 3.82267 1.72487 3.79883C1.79757 3.70534 1.87561 3.61688 1.95902 3.53347C1.98096 3.52608 1.99138 3.51047 1.99024 3.48664C2.05268 3.41379 2.12031 3.34615 2.19316 3.28371C2.33885 3.14842 2.47934 3.00793 2.61463 2.86225C2.78558 2.68088 2.96249 2.50397 3.14536 2.33151C3.16919 2.33265 3.1848 2.32224 3.19219 2.30029C3.21821 2.26388 3.24943 2.23266 3.28585 2.20664C3.30968 2.20778 3.32529 2.19736 3.33268 2.17542C3.4431 2.06554 3.56278 1.96668 3.6917 1.87883C3.71554 1.87997 3.73115 1.86956 3.73853 1.84761C4.73368 1.09279 5.85239 0.614093 7.09463 0.411514C7.11478 0.40781 7.13039 0.413013 7.14146 0.427124C6.79604 0.495261 6.46304 0.601928 6.14243 0.747124C4.60781 1.49978 3.70244 2.72254 3.42633 4.41542C3.28719 5.67693 3.60719 6.83465 4.38633 7.88859C5.27661 8.97453 6.42653 9.57291 7.83609 9.68371C8.45124 9.68796 9.06782 9.60732 9.68585 9.44176C10.7838 9.11394 11.788 8.60921 12.6985 7.92761C13.9383 6.98698 15.0362 5.90211 15.9922 4.67298C16.4344 4.22029 16.8819 3.77281 17.3346 3.33054C17.371 3.32534 17.3919 3.30452 17.3971 3.2681C17.3971 3.25769 17.4022 3.25249 17.4127 3.25249C17.4647 3.23168 17.5012 3.19525 17.5219 3.14322C17.672 3.0192 17.8124 2.88393 17.9434 2.73737C18.1148 2.55032 18.297 2.3734 18.4897 2.20664C18.5136 2.20778 18.5292 2.19736 18.5366 2.17542C19.5102 1.327 20.6341 0.762451 21.9083 0.481758C22.3383 0.391689 22.7703 0.331851 23.2039 0.302246Z"
        fill="#8A40F1" />
    <path opacity="0.988" fill-rule="evenodd" clip-rule="evenodd"
        d="M7.92176 0.317936C7.94778 0.317936 7.97378 0.317936 7.9998 0.317936C7.8741 0.332255 7.74661 0.347864 7.61737 0.364765C7.61012 0.355486 7.60752 0.34508 7.60956 0.333546C7.71326 0.322424 7.81731 0.317221 7.92176 0.317936Z"
        fill="#7F2DEE" />
    <path opacity="0.988" fill-rule="evenodd" clip-rule="evenodd"
        d="M7.54741 0.348972C7.56383 0.346639 7.57944 0.349241 7.59424 0.356777C7.44212 0.373674 7.29122 0.397089 7.14156 0.42702C7.13049 0.41291 7.11488 0.407706 7.09473 0.411411C7.2416 0.376315 7.39248 0.355503 7.54741 0.348972Z"
        fill="#7E2CEE" />
    <path fill-rule="evenodd" clip-rule="evenodd"
        d="M26.8567 1.03613C27.6812 1.42375 28.4148 1.93888 29.0576 2.5815C29.2826 2.82993 29.5167 3.07188 29.7601 3.30735C29.7693 3.3146 29.7798 3.3172 29.7913 3.31516C31.1056 4.71136 31.829 6.37119 31.9611 8.29467C31.9611 8.56003 31.9611 8.8254 31.9611 9.09077C31.8374 10.9556 31.1533 12.579 29.9084 13.961C25.2665 18.6002 20.6279 23.2415 15.9923 27.8849C15.9818 27.8849 15.9715 27.8849 15.9611 27.8849C14.5042 26.4227 13.0472 24.9607 11.5903 23.4986C11.6019 23.5006 11.6123 23.4979 11.6216 23.4908C16.2498 18.8625 20.8781 14.2342 25.5064 9.60589C26.8189 8.16252 27.5082 6.47147 27.5747 4.53272C27.5955 4.39743 27.5955 4.26215 27.5747 4.12686C27.5593 3.06381 27.32 2.03356 26.8567 1.03613Z"
        fill="#6701E6" />
    <path opacity="0.988" fill-rule="evenodd" clip-rule="evenodd"
        d="M3.73872 1.84774C3.73134 1.86969 3.71573 1.8801 3.69189 1.87896C3.69928 1.85701 3.71489 1.8466 3.73872 1.84774Z"
        fill="#7B26ED" />
    <path opacity="0.988" fill-rule="evenodd" clip-rule="evenodd"
        d="M3.33247 2.17538C3.32509 2.19732 3.30948 2.20774 3.28564 2.2066C3.29303 2.18465 3.30864 2.17424 3.33247 2.17538Z"
        fill="#7C29ED" />
    <path opacity="0.988" fill-rule="evenodd" clip-rule="evenodd"
        d="M18.5366 2.17538C18.5292 2.19732 18.5136 2.20774 18.4897 2.2066C18.4971 2.18465 18.5127 2.17424 18.5366 2.17538Z"
        fill="#7C29ED" />
    <path opacity="0.988" fill-rule="evenodd" clip-rule="evenodd"
        d="M3.19234 2.30038C3.18495 2.32232 3.16934 2.33274 3.14551 2.3316C3.15289 2.30965 3.1685 2.29924 3.19234 2.30038Z"
        fill="#7C29ED" />
    <path opacity="0.906" fill-rule="evenodd" clip-rule="evenodd"
        d="M29.0576 2.58105C29.3074 2.8204 29.552 3.06496 29.7913 3.31471C29.7797 3.31676 29.7693 3.31415 29.7601 3.30691C29.5167 3.07144 29.2826 2.82948 29.0576 2.58105Z"
        fill="#7013EA" />
    <path opacity="0.988" fill-rule="evenodd" clip-rule="evenodd"
        d="M17.9434 2.7373C17.8125 2.88386 17.672 3.01914 17.522 3.14316C17.6529 2.9966 17.7934 2.86132 17.9434 2.7373Z"
        fill="#7C29ED" />
    <path opacity="0.988" fill-rule="evenodd" clip-rule="evenodd"
        d="M2.61482 2.862C2.47953 3.00769 2.33905 3.14818 2.19336 3.28347C2.31419 3.13914 2.44427 3.00126 2.5836 2.86981C2.59288 2.86256 2.60329 2.85996 2.61482 2.862Z"
        fill="#7C29ED" />
    <path opacity="0.988" fill-rule="evenodd" clip-rule="evenodd"
        d="M17.5219 3.14307C17.5011 3.19509 17.4646 3.23153 17.4126 3.25233C17.4438 3.2107 17.4802 3.17429 17.5219 3.14307Z"
        fill="#7C28ED" />
    <path opacity="0.988" fill-rule="evenodd" clip-rule="evenodd"
        d="M17.3969 3.26807C17.3918 3.30448 17.3708 3.32531 17.3345 3.33051C17.3501 3.30448 17.3708 3.28368 17.3969 3.26807Z"
        fill="#7C28ED" />
    <path opacity="0.988" fill-rule="evenodd" clip-rule="evenodd"
        d="M1.99029 3.48682C1.99143 3.51065 1.98102 3.52626 1.95907 3.53365C1.95793 3.50981 1.96834 3.4942 1.99029 3.48682Z"
        fill="#7B27ED" />
    <path opacity="0.988" fill-rule="evenodd" clip-rule="evenodd"
        d="M1.72466 3.79883C1.7258 3.82266 1.71539 3.83827 1.69344 3.84566C1.6923 3.82182 1.70272 3.80621 1.72466 3.79883Z"
        fill="#7B27ED" />
    <path opacity="0.988" fill-rule="evenodd" clip-rule="evenodd"
        d="M1.66265 3.87695C1.66379 3.90079 1.65338 3.9164 1.63143 3.92378C1.63029 3.89995 1.6407 3.88434 1.66265 3.87695Z"
        fill="#7B27ED" />
    <path opacity="0.988" fill-rule="evenodd" clip-rule="evenodd"
        d="M27.5745 4.12646C27.5953 4.26175 27.5953 4.39703 27.5745 4.53232C27.5735 4.40031 27.5735 4.26502 27.5745 4.12646Z"
        fill="#8130EF" />
    <path opacity="0.988" fill-rule="evenodd" clip-rule="evenodd"
        d="M2.08398 13.9922C2.1152 13.9922 2.13081 14.0078 2.13081 14.039C2.11001 14.0286 2.0944 14.013 2.08398 13.9922Z"
        fill="#7A25ED" />
    <path opacity="0.988" fill-rule="evenodd" clip-rule="evenodd"
        d="M3.83203 15.7559C3.9465 15.8391 4.04537 15.938 4.12862 16.0524C4.02455 15.9588 3.92569 15.8599 3.83203 15.7559Z"
        fill="#7A25ED" />
    <path opacity="0.988" fill-rule="evenodd" clip-rule="evenodd"
        d="M4.12891 16.0527C4.16013 16.0527 4.17574 16.0683 4.17574 16.0996C4.15493 16.0891 4.13932 16.0735 4.12891 16.0527Z"
        fill="#7A25ED" />
    <path opacity="0.988" fill-rule="evenodd" clip-rule="evenodd"
        d="M4.75293 16.6768C4.79976 16.6924 4.83098 16.7236 4.84659 16.7704C4.81017 16.7443 4.77895 16.7131 4.75293 16.6768Z"
        fill="#7A25ED" />
    <path opacity="0.988" fill-rule="evenodd" clip-rule="evenodd"
        d="M4.8623 16.7861C4.91433 16.8069 4.95077 16.8434 4.97157 16.8954C4.92994 16.8642 4.89352 16.8278 4.8623 16.7861Z"
        fill="#7A25ED" />
    <path opacity="0.988" fill-rule="evenodd" clip-rule="evenodd"
        d="M5.03418 16.958C5.70463 17.6024 6.36544 18.258 7.01662 18.9248C6.34616 18.2805 5.68536 17.6249 5.03418 16.958Z"
        fill="#7A25ED" />
</svg>