<svg width="32" height="32" viewBox="0 0 32 32" fill="none" xmlns="http://www.w3.org/2000/svg">
    <g clip-path="url(#clip0_3812_189)">
        <path fill-rule="evenodd" clip-rule="evenodd"
            d="M-0.0710449 -0.0712891C10.5956 -0.0712891 21.2623 -0.0712891 31.929 -0.0712891C31.929 10.5954 31.929 21.262 31.929 31.9287C21.2623 31.9287 10.5956 31.9287 -0.0710449 31.9287C-0.0710449 21.262 -0.0710449 10.5954 -0.0710449 -0.0712891Z"
            fill="#FCFEFE" />
        <path fill-rule="evenodd" clip-rule="evenodd"
            d="M6.61327 5.19141C6.25827 5.71488 6.40049 5.92822 7.03994 5.83141C6.96221 5.9629 6.86739 6.08142 6.75549 6.18696C6.05488 5.72441 5.79414 5.91404 5.97327 6.75585C6.25074 6.98868 6.22704 7.20202 5.90216 7.39585C5.98669 7.46188 6.08151 7.48559 6.1866 7.46696C5.60895 8.28815 5.06377 9.14149 4.55105 10.027C4.07389 11.0577 3.67093 12.1007 3.34216 13.1559C3.32795 12.7054 3.42277 12.2788 3.6266 11.8759C3.5792 11.8284 3.53178 11.781 3.48438 11.7336C3.24784 12.279 3.17672 12.2316 3.27105 11.5914C3.36006 11.2371 3.47859 11.2371 3.6266 11.5914C3.86073 11.3223 3.90813 11.0379 3.76882 10.7381C3.81799 10.568 3.8891 10.568 3.98216 10.7381C3.86687 10.4122 3.9854 10.1515 4.33771 9.95585C4.25168 9.61624 4.06206 9.28439 3.76882 8.9603C3.86201 8.74887 4.00423 8.58294 4.19549 8.46252C4.42457 8.84933 4.54308 9.276 4.55105 9.74252C4.58994 9.48241 4.70846 9.26907 4.9066 9.10252C4.81178 9.05511 4.71698 9.0077 4.62216 8.9603C4.8592 8.77067 5.09623 8.58103 5.33327 8.39141C5.17015 8.09493 5.26496 7.8816 5.61771 7.75141C5.53571 7.45986 5.34608 7.31764 5.04882 7.32474C5.04882 7.18252 5.04882 7.0403 5.04882 6.89807C5.2825 6.89526 5.47212 6.99006 5.61771 7.18252C5.74173 6.90294 5.71802 6.61849 5.5466 6.32918C5.4512 6.43619 5.33269 6.48361 5.19105 6.47141C5.57947 5.94031 6.05354 5.51364 6.61327 5.19141Z"
            fill="#23AA9E" />
        <path fill-rule="evenodd" clip-rule="evenodd"
            d="M1.63563 15.2891C1.67919 16.4792 1.774 17.6643 1.92007 18.8446C1.83227 18.8288 1.76116 18.7815 1.70674 18.7024C1.63563 17.8491 1.56452 16.9957 1.49341 16.1424C1.49406 15.8301 1.54148 15.5456 1.63563 15.2891Z"
            fill="#B3EDE8" />
        <path fill-rule="evenodd" clip-rule="evenodd"
            d="M1.91994 19.1289C2.2598 20.3375 2.68646 21.5228 3.19994 22.6845C2.61616 22.048 2.28432 21.2895 2.20439 20.4089C1.99421 20.4462 1.80457 20.3988 1.6355 20.2667C1.88055 19.9299 1.97537 19.5507 1.91994 19.1289Z"
            fill="#D9F8F6" />
        <path fill-rule="evenodd" clip-rule="evenodd"
            d="M27.2354 24.8174C26.9601 25.3301 26.5808 25.7568 26.0977 26.0974C26.3721 25.5854 26.7515 25.1587 27.2354 24.8174Z"
            fill="#D2F4F3" />
        <path fill-rule="evenodd" clip-rule="evenodd"
            d="M27.2355 24.8183C26.7515 25.1596 26.3722 25.5863 26.0977 26.0983C22.3224 29.4733 17.9135 30.7533 12.8711 29.9383C12.3717 29.7727 11.8503 29.6305 11.3066 29.5116C7.82278 28.1609 5.12055 25.8853 3.19994 22.6849C2.68646 21.5232 2.2598 20.338 1.91994 19.1294C1.91994 19.0345 1.91994 18.9398 1.91994 18.8449C1.77387 17.6646 1.67906 16.4795 1.6355 15.2894C1.72484 11.8898 2.91002 8.95056 5.19105 6.47158C5.33269 6.48379 5.45121 6.43637 5.54661 6.32936C5.71803 6.61867 5.74174 6.90311 5.61772 7.18269C5.47213 6.99024 5.2825 6.89543 5.04883 6.89825C5.04883 7.04047 5.04883 7.18269 5.04883 7.32492C5.34609 7.31782 5.53572 7.46004 5.61772 7.75158C5.26497 7.88177 5.17016 8.09511 5.33328 8.39158C5.09623 8.58121 4.85921 8.77085 4.62216 8.96047C4.71698 9.00787 4.81179 9.05529 4.90661 9.10269C4.70847 9.26925 4.58995 9.48258 4.55105 9.74269C4.54309 9.27618 4.42458 8.84951 4.1955 8.46269C4.00424 8.58311 3.86202 8.74904 3.76883 8.96047C4.06207 9.28457 4.25169 9.61642 4.33772 9.95603C3.98541 10.1516 3.86688 10.4124 3.98216 10.7383C3.88911 10.5682 3.818 10.5682 3.76883 10.7383C3.90814 11.0381 3.86074 11.3225 3.62661 11.5916C3.4786 11.2373 3.36007 11.2373 3.27105 11.5916C3.17673 12.2318 3.24784 12.2792 3.48439 11.7338C3.53179 11.7812 3.57921 11.8286 3.62661 11.876C3.42278 12.2789 3.32796 12.7056 3.34216 13.156C2.46316 20.4323 5.40242 25.4338 12.1599 28.1605C12.9073 28.3562 13.6658 28.4746 14.4355 28.516C14.7554 24.7252 15.016 20.9326 15.2177 17.1383C14.5497 16.5418 14.4075 15.8307 14.7911 15.0049C15.6848 14.3558 16.4908 14.4507 17.2088 15.2894C17.4287 16.1023 17.2154 16.7659 16.5688 17.2805C16.7056 18.866 16.8479 20.4304 16.9955 21.9738C16.9972 23.5182 17.0921 25.0353 17.2799 26.5249C17.2856 27.1924 17.333 27.856 17.4222 28.516C22.4325 27.7698 25.8932 25.0676 27.8044 20.4094C28.2298 19.625 28.4906 18.7717 28.5866 17.8494C28.7038 16.5917 28.68 15.3591 28.5155 14.1516C27.6029 8.90041 24.6162 5.41597 19.5555 3.69825C14.3573 2.38991 9.90101 3.6462 6.18661 7.46714C6.08152 7.48577 5.9867 7.46206 5.90216 7.39603C6.22704 7.20219 6.25075 6.98886 5.97328 6.75603C5.79415 5.91421 6.05488 5.72459 6.7555 6.18714C6.8674 6.0816 6.96222 5.96308 7.03994 5.83158C6.4005 5.92839 6.25828 5.71506 6.61328 5.19158C9.15433 2.79979 12.1884 1.61459 15.7155 1.63603C22.2855 1.89537 26.8603 5.02426 29.4399 11.0227C30.9998 16.0107 30.2651 20.6093 27.2355 24.8183Z"
            fill="#19AE9E" />
        <path fill-rule="evenodd" clip-rule="evenodd"
            d="M28.5154 14.1514C28.68 15.3588 28.7037 16.5915 28.5866 17.8491C28.4906 18.7715 28.2297 19.6248 27.8043 20.4091C27.807 20.1873 27.8544 19.9739 27.9466 19.7691C27.8723 19.634 27.7775 19.5154 27.6621 19.4136C28.1317 18.7875 28.3926 18.0764 28.4443 17.2803C28.5154 16.2383 28.5391 15.1954 28.5154 14.1514Z"
            fill="#D3F7F5" />
        <path fill-rule="evenodd" clip-rule="evenodd"
            d="M28.5155 14.1512C28.5391 15.1952 28.5155 16.2382 28.4444 17.2801C28.3927 18.0762 28.1318 18.7873 27.6622 19.4134C27.7775 19.5152 27.8724 19.6339 27.9466 19.769C27.8545 19.9738 27.8071 20.1871 27.8044 20.409C25.8932 25.0672 22.4325 27.7694 17.4222 28.5156C17.333 27.8556 17.2857 27.192 17.28 26.5245C17.3036 25.0541 17.28 23.5845 17.2089 22.1156C17.1544 22.0366 17.0833 21.9892 16.9955 21.9734C16.8479 20.43 16.7057 18.8656 16.5689 17.2801C17.2154 16.7655 17.4287 16.1019 17.2089 15.289C16.4908 14.4503 15.6848 14.3554 14.7911 15.0045C14.4075 15.8303 14.5497 16.5414 15.2178 17.1379C15.0161 20.9322 14.7554 24.7248 14.4355 28.5156C13.6659 28.4742 12.9074 28.3558 12.16 28.1601C5.40246 25.4334 2.46319 20.4319 3.3422 13.1556C3.67097 12.1005 4.07393 11.0575 4.55109 10.0267C5.06381 9.14127 5.60899 8.28793 6.18664 7.46674C9.90104 3.6458 14.3573 2.38951 19.5555 3.69785C24.6162 5.41557 27.6029 8.90001 28.5155 14.1512Z"
            fill="#FAFDFD" />
        <path fill-rule="evenodd" clip-rule="evenodd"
            d="M16.9956 21.9736C17.0834 21.9894 17.1545 22.0368 17.2089 22.1159C17.28 23.5847 17.3037 25.0543 17.28 26.5247C17.0922 25.0351 16.9973 23.518 16.9956 21.9736Z"
            fill="#CFF4F1" />
        <path fill-rule="evenodd" clip-rule="evenodd"
            d="M12.5866 20.6934C13.0736 20.7215 13.1921 20.9112 12.9421 21.2622C12.8947 21.8311 12.8473 22.4 12.7999 22.9689C12.5702 23.1539 12.3568 23.1539 12.1599 22.9689C12.3021 22.9689 12.4444 22.9689 12.5866 22.9689C12.7256 22.2011 12.7256 21.4426 12.5866 20.6934Z"
            fill="#CEF5F2" />
        <path fill-rule="evenodd" clip-rule="evenodd"
            d="M23.6799 14.0088C23.7724 14.052 23.8672 14.0994 23.9644 14.151C24.1301 15.1908 24.1537 16.2337 24.0355 17.2799C23.9153 17.5801 23.7968 17.8646 23.6799 18.1332C23.857 16.755 23.857 15.3802 23.6799 14.0088Z"
            fill="#D7F5F2" />
        <path fill-rule="evenodd" clip-rule="evenodd"
            d="M23.68 14.0086C23.857 15.3801 23.857 16.7548 23.68 18.1331C22.8743 20.3141 21.4521 21.9734 19.4133 23.1109C19.1848 22.4962 19.0425 21.8562 18.9866 21.1909C19.7487 20.4862 20.436 19.7039 21.0489 18.8442C22.5382 15.6822 21.8982 13.051 19.1289 10.9509C16.0456 9.3074 13.3671 9.80518 11.0933 12.4442C9.59832 14.929 9.69314 17.3467 11.3777 19.6975C11.7214 20.1132 12.1244 20.4452 12.5866 20.6931C12.7257 21.4423 12.7257 22.2008 12.5866 22.9686C12.4444 22.9686 12.3022 22.9686 12.16 22.9686C8.68579 20.777 7.3821 17.6481 8.24886 13.582C9.68267 9.73106 12.456 7.85846 16.5689 7.9642C20.2806 8.43026 22.651 10.4451 23.68 14.0086Z"
            fill="#18AE9F" />
        <path fill-rule="evenodd" clip-rule="evenodd"
            d="M11.3066 29.5107C11.8503 29.6296 12.3718 29.7719 12.8711 29.9374C12.4371 29.9568 12.0104 29.9092 11.5911 29.7952C11.4185 29.7601 11.3237 29.6652 11.3066 29.5107Z"
            fill="#D3F8F7" />
    </g>
    <defs>
        <clipPath id="clip0_3812_189">
            <rect width="32" height="32" fill="white" />
        </clipPath>
    </defs>
</svg>