<svg width="32" height="32" viewBox="0 0 32 32" fill="none" xmlns="http://www.w3.org/2000/svg">
    <path fill-rule="evenodd" clip-rule="evenodd"
        d="M0 0C10.6667 0 21.3333 0 32 0C32 10.6667 32 21.3333 32 32C21.3333 32 10.6667 32 0 32C0 21.3333 0 10.6667 0 0Z"
        fill="#FAFAFA" />
    <path fill-rule="evenodd" clip-rule="evenodd"
        d="M22.7266 2.64723C18.3006 0.019275 13.8884 0.019275 9.49023 2.64723C9.68697 2.03131 10.1282 1.73719 10.8139 1.76486C10.8139 1.54426 10.8139 1.32367 10.8139 1.10308C11.6779 0.94983 12.5236 0.729237 13.3508 0.441296C13.4422 0.542185 13.5525 0.615719 13.6817 0.661889C14.8532 0.503731 16.0299 0.356668 17.2114 0.220703C18.8993 0.57513 20.5907 0.90602 22.2854 1.21337C22.6198 1.63184 22.7669 2.1098 22.7266 2.64723Z"
        fill="#E2F6F6" />
    <path fill-rule="evenodd" clip-rule="evenodd"
        d="M22.7265 2.64675C23.4311 3.25825 24.0929 3.92003 24.7119 4.63208C23.9868 4.46355 23.3984 4.05914 22.9471 3.41882C22.4584 3.18857 21.9438 3.0415 21.4028 2.97764C21.15 2.83538 20.9294 2.65153 20.741 2.42615C19.8363 2.63832 18.9539 2.89569 18.0938 3.19823C17.8732 3.38205 17.6525 3.56589 17.4319 3.74971C17.478 3.87898 17.5517 3.98928 17.6525 4.0806C18.4615 4.15413 19.2702 4.22767 20.0792 4.30119C20.5418 5.00937 21.2036 5.41378 22.0647 5.51446C21.4545 5.74271 21.3075 6.11037 21.6234 6.61742C19.0991 4.41414 16.2312 3.86266 13.0198 4.96297C12.2508 5.40328 11.5155 5.88124 10.8138 6.39683C10.4356 6.12365 9.99438 5.9766 9.49014 5.95564C9.49014 5.73505 9.49014 5.51446 9.49014 5.29386C11.4788 4.74141 13.5378 4.37375 15.6671 4.1909C15.6671 3.60264 15.6671 3.01441 15.6671 2.42615C16.4262 2.47003 17.1615 2.35973 17.8732 2.09526C16.3283 1.03192 14.8206 1.06869 13.3507 2.20556C13.3834 2.49785 13.3468 2.75519 13.2404 2.97764C12.8872 3.03795 12.5563 3.14824 12.2477 3.30853C11.2795 2.71074 10.3603 2.82104 9.49014 3.63942C9.56367 3.71294 9.63722 3.78648 9.71074 3.86001C9.12462 4.33567 8.83048 4.88716 8.82832 5.51446C8.68124 5.22034 8.53419 4.9262 8.38711 4.63208C8.04049 5.05452 7.59928 5.27511 7.06348 5.29386C7.72227 4.26773 8.53114 3.38536 9.49014 2.64675C13.8884 0.018793 18.3005 0.018793 22.7265 2.64675Z"
        fill="#1B5870" />
    <path fill-rule="evenodd" clip-rule="evenodd"
        d="M9.49092 2.64648C8.53193 3.3851 7.72305 4.26747 7.06426 5.2936C6.69658 5.73479 6.32892 6.17598 5.96123 6.61716C5.92589 6.24233 5.96267 5.87467 6.07153 5.5142C6.56084 5.041 6.85499 4.45277 6.95396 3.74945C7.75559 3.27416 8.60124 2.9065 9.49092 2.64648Z"
        fill="#DBF2F4" />
    <path fill-rule="evenodd" clip-rule="evenodd"
        d="M21.6241 6.61725C21.8447 6.76432 22.0653 6.91137 22.2859 7.05844C24.1249 9.77996 24.2721 12.5742 22.7272 15.441C22.5681 14.7092 22.5313 13.9739 22.6169 13.235C22.6868 13.6323 22.8339 13.7058 23.0581 13.4556C23.1825 12.87 23.2928 12.2818 23.389 11.6909C23.1132 10.7543 22.9295 9.79834 22.8375 8.82319C22.4269 8.42638 21.9857 8.05872 21.5138 7.72022C21.4536 7.31678 21.2696 6.98589 20.9623 6.72755C19.1209 6.24902 17.3561 5.62401 15.6678 4.85251C14.9943 4.73158 14.5531 4.98894 14.3441 5.62458C13.6102 5.75921 12.8748 5.86951 12.1381 5.95547C12.1381 6.17607 12.1381 6.39666 12.1381 6.61725C11.8351 6.58269 11.541 6.61946 11.2557 6.72755C11.0801 7.30144 10.7859 7.77938 10.3732 8.16141C10.0259 8.25783 9.76854 8.47842 9.60112 8.82319C9.40664 9.54883 9.25956 10.2841 9.15991 11.0291C9.08451 10.5616 8.90068 10.4881 8.6084 10.8085C8.87606 9.09672 9.61143 7.62609 10.8145 6.39666C11.5162 5.88107 12.2515 5.40311 13.0205 4.9628C16.2319 3.86249 19.0997 4.41397 21.6241 6.61725Z"
        fill="#E0F4F7" />
    <path fill-rule="evenodd" clip-rule="evenodd"
        d="M22.7266 2.64781C23.5803 2.63453 24.1687 3.00217 24.4914 3.75077C25.2962 3.96546 25.6637 4.48017 25.5944 5.29493C25.815 5.29493 26.0356 5.29493 26.2563 5.29493C26.2563 5.58904 26.2563 5.88318 26.2563 6.1773C26.5479 6.1398 26.8053 6.21334 27.0284 6.39789C27.4493 7.37243 27.7067 8.40185 27.8005 9.4862C27.7961 9.75667 27.7226 9.97726 27.5799 10.148C27.2353 8.23012 26.4263 6.53889 25.1532 5.07433C25.0798 4.85374 24.9326 4.70667 24.712 4.63315C24.093 3.92109 23.4312 3.25931 22.7266 2.64781Z"
        fill="#E2F4F7" />
    <path fill-rule="evenodd" clip-rule="evenodd"
        d="M19.1972 6.61794C20.2206 7.20011 21.0295 8.00896 21.6238 9.04447C21.6276 9.49995 21.701 9.94114 21.8444 10.368C21.8444 11.471 21.8444 12.574 21.8444 13.6769C21.8444 13.824 21.8444 13.971 21.8444 14.1181C21.418 14.5804 20.9031 14.9113 20.3002 15.1108C20.1325 15.4287 19.9856 15.7596 19.859 16.1035C17.4337 17.4716 14.9704 17.5451 12.4687 16.324C12.2415 16.3982 12.1312 16.5453 12.1378 16.7652C11.9907 16.7652 11.9172 16.8388 11.9172 16.9858C11.4078 17.1816 11.0401 17.5493 10.8142 18.0888C10.6322 18.2842 10.4116 18.3577 10.1523 18.3094C10.1523 17.5005 10.1523 16.6917 10.1523 15.8829C10.2756 13.5471 10.4962 11.1941 10.8142 8.82388C11.0348 8.82388 11.2554 8.82388 11.476 8.82388C11.443 8.59181 11.4798 8.37122 11.5863 8.1621C12.3049 7.63719 13.0035 7.08571 13.682 6.50765C14.639 6.40542 15.5949 6.29513 16.5499 6.17676C17.4259 6.37095 18.3084 6.51802 19.1972 6.61794Z"
        fill="#EE412C" />
    <path fill-rule="evenodd" clip-rule="evenodd"
        d="M10.8138 6.39762C9.61075 7.62705 8.87538 9.09768 8.60772 10.8095C8.20386 10.6877 7.83617 10.6877 7.50469 10.8095C7.72289 11.0231 7.86995 11.2804 7.9459 11.5816C7.76324 16.478 7.68971 21.3677 7.7253 26.251C7.98755 26.4559 8.28171 26.5294 8.60772 26.4716C8.57315 26.7745 8.60992 27.0687 8.71802 27.354C8.94112 27.1693 9.19848 27.0959 9.49014 27.1334C9.49014 26.9128 9.49014 26.6922 9.49014 26.4716C10.3987 26.3657 10.6193 25.8879 10.152 25.0377C10.3565 23.5836 10.9815 22.3703 12.0271 21.398C12.0717 21.0106 12.182 20.6431 12.358 20.295C12.5051 20.3685 12.6521 20.4421 12.7992 20.5156C13.724 20.0232 14.6799 19.6556 15.6671 19.4126C17.3788 19.5422 17.3788 19.7628 15.6671 20.0744C15.6671 20.4421 15.6671 20.8096 15.6671 21.1774C16.9962 20.9557 18.3199 20.6616 19.638 20.295C20.2076 20.3494 20.3914 20.6435 20.1895 21.1774C19.8904 21.3715 19.5595 21.4452 19.1968 21.398C19.1968 21.6185 19.1968 21.8391 19.1968 22.0597C18.0121 22.0359 16.8356 22.1094 15.6671 22.2803C15.7154 22.0211 15.6419 21.8005 15.4465 21.6185C14.0198 21.7068 12.7698 22.2216 11.6962 23.1627C11.8065 23.3833 11.9168 23.6039 12.0271 23.8245C12.3059 22.7431 12.6368 22.7063 13.0198 23.7142C12.9025 24.1598 12.6084 24.3435 12.1374 24.2657C12.1374 25.0009 12.1374 25.7364 12.1374 26.4716C11.9168 26.4716 11.6962 26.4716 11.4756 26.4716C11.4756 27.2068 11.1079 27.5746 10.3726 27.5746C10.1477 28.3184 10.1477 29.0539 10.3726 29.7805C9.97962 30.3812 9.61194 31.0063 9.26954 31.6555C7.80068 31.7658 6.32996 31.8024 4.85742 31.7658C4.85742 24.4128 4.85742 17.0596 4.85742 9.70651C5.15467 8.67242 5.52235 7.64298 5.96045 6.61821C6.32813 6.17702 6.69579 5.73584 7.06348 5.29465C7.59929 5.2759 8.0405 5.05531 8.38711 4.63287C8.53419 4.92699 8.68125 5.22113 8.82832 5.51524C8.83049 4.88794 9.12462 4.33646 9.71075 3.8608C9.63722 3.78727 9.56367 3.71373 9.49014 3.6402C10.3603 2.82182 11.2795 2.71153 12.2477 3.30931C12.5563 3.14903 12.8872 3.03873 13.2404 2.97842C13.3468 2.75598 13.3834 2.49863 13.3507 2.20635C14.8206 1.06948 16.3283 1.0327 17.8732 2.09605C17.1615 2.36052 16.4262 2.47082 15.6671 2.42694C15.6671 3.0152 15.6671 3.60343 15.6671 4.19169C13.5378 4.37454 11.4788 4.7422 9.49014 5.29465C9.49014 5.51524 9.49014 5.73584 9.49014 5.95643C9.99438 5.97739 10.4356 6.12443 10.8138 6.39762Z"
        fill="#0E5673" />
    <path fill-rule="evenodd" clip-rule="evenodd"
        d="M21.8447 10.3682C21.9182 10.3682 21.9919 10.3682 22.0654 10.3682C22.1994 10.8635 22.2729 11.3782 22.2861 11.9123C22.3331 12.58 22.1861 13.1682 21.8447 13.6771C21.8447 12.5741 21.8447 11.4711 21.8447 10.3682Z"
        fill="#D0504B" />
    <path fill-rule="evenodd" clip-rule="evenodd"
        d="M10.8142 8.82422C10.4962 11.1944 10.2756 13.5474 10.1523 15.8832C10.1523 14.1185 10.1523 12.3537 10.1523 10.589C10.2412 9.93038 10.4618 9.34213 10.8142 8.82422Z"
        fill="#C75047" />
    <path fill-rule="evenodd" clip-rule="evenodd"
        d="M4.8575 9.70605C4.8575 17.0592 4.8575 24.4123 4.8575 31.7654C4.68059 31.4451 4.57029 31.0776 4.52659 30.6624C4.48271 24.2623 4.37241 17.8652 4.19568 11.4708C4.16226 10.7591 4.38286 10.1709 4.8575 9.70605Z"
        fill="#D0ECED" />
    <path fill-rule="evenodd" clip-rule="evenodd"
        d="M22.7268 15.4407C22.7647 15.6594 22.691 15.8065 22.5062 15.8819C22.2207 15.7076 21.9633 15.4871 21.734 15.2201C21.682 15.7195 21.5717 16.1975 21.4031 16.654C20.6767 16.8361 19.9414 16.9464 19.1971 16.9849C20.3782 16.3179 21.2606 15.362 21.8443 14.1171C21.8443 13.9701 21.8443 13.823 21.8443 13.676C22.1856 13.1671 22.3325 12.5789 22.2856 11.9112C22.2723 11.3771 22.1989 10.8624 22.065 10.3671C22.1181 9.83799 21.971 9.39681 21.6237 9.04351C21.0294 8.008 20.2205 7.19915 19.1971 6.61698C18.6277 6.39892 18.0393 6.17833 17.4322 5.9552C16.997 5.80901 16.5191 5.73547 15.9983 5.73461C15.2313 5.69656 14.5326 5.84363 13.9025 6.17579C12.5368 6.65865 11.5073 7.54102 10.8141 8.82291C10.4617 9.34082 10.2411 9.92908 10.1522 10.5877C10.0787 10.5877 10.0052 10.5877 9.93164 10.5877C10.0552 9.77296 10.2022 8.96414 10.3729 8.16113C10.7855 7.77911 11.0797 7.30117 11.2553 6.72728C11.5406 6.61919 11.8347 6.58241 12.1377 6.61698C12.1377 6.39639 12.1377 6.17579 12.1377 5.9552C12.8744 5.86924 13.6098 5.75894 14.3438 5.62431C14.5527 4.98867 14.9939 4.73131 15.6674 4.85224C17.3557 5.62374 19.1205 6.24874 20.9619 6.72728C21.2692 6.98561 21.4532 7.3165 21.5134 7.71995C21.9853 8.05845 22.4265 8.42611 22.8371 8.82291C22.9291 9.79807 23.1128 10.754 23.3886 11.6906C23.2924 12.2815 23.1821 12.8698 23.0577 13.4554C22.8335 13.7055 22.6864 13.632 22.6165 13.2348C22.5309 13.9736 22.5677 14.7089 22.7268 15.4407Z"
        fill="#F9EFE9" />
    <path fill-rule="evenodd" clip-rule="evenodd"
        d="M21.624 9.04492C21.9714 9.39822 22.1186 9.83941 22.0654 10.3685C21.9919 10.3685 21.9182 10.3685 21.8447 10.3685C21.7013 9.94159 21.6278 9.5004 21.624 9.04492Z"
        fill="#C67160" />
    <path fill-rule="evenodd" clip-rule="evenodd"
        d="M17.4326 5.95651C18.0397 6.17964 18.6281 6.40024 19.1975 6.61829C18.3086 6.51836 17.4262 6.37129 16.5502 6.17711C15.5952 6.29548 14.6393 6.40577 13.6823 6.508C13.0038 7.08606 12.3052 7.63754 11.5866 8.16244C11.4801 8.37157 11.4433 8.59216 11.4763 8.82422C11.2557 8.82422 11.0351 8.82422 10.8145 8.82422C11.5077 7.54234 12.5372 6.65996 13.9029 6.17711C15.0715 6.00626 16.248 5.93271 17.4326 5.95651Z"
        fill="#C45D4D" />
    <path fill-rule="evenodd" clip-rule="evenodd"
        d="M17.432 5.95703C16.2474 5.93321 15.0709 6.00679 13.9023 6.17772C14.5324 5.8454 15.2311 5.69827 15.9981 5.73634C16.5189 5.7372 16.9968 5.81078 17.432 5.95703Z"
        fill="#E19F97" />
    <path fill-rule="evenodd" clip-rule="evenodd"
        d="M27.5797 10.5879C27.9119 11.2179 28.0588 11.9164 28.0209 12.6835C27.7736 14.0273 27.5164 15.3876 27.2488 16.7645C26.6571 17.1198 26.2527 17.6345 26.0355 18.3087C25.5075 18.6944 24.9929 19.0621 24.4912 19.4116C26.6329 16.8867 27.6622 13.9455 27.5797 10.5879Z"
        fill="#DEF2F6" />
    <path fill-rule="evenodd" clip-rule="evenodd"
        d="M10.3732 8.16211C10.2026 8.96511 10.0555 9.77394 9.93203 10.5886C9.93203 10.6622 9.93203 10.7357 9.93203 10.8092C9.77752 13.7915 9.63044 16.8063 9.49082 19.8535C9.72694 20.3036 10.0946 20.5978 10.5938 20.7359C10.5306 21.0935 10.31 21.3141 9.93203 21.3977C9.97326 21.1072 9.82619 20.8131 9.49082 20.5153C9.23911 20.9391 9.20234 21.3803 9.38052 21.8389C9.5388 21.6291 9.72266 21.5925 9.93203 21.7286C9.56684 22.0471 9.41979 22.4517 9.49082 22.9419C9.19669 22.9419 8.90253 22.9419 8.6084 22.9419C8.6084 19.0447 8.6084 15.1476 8.6084 11.2504C8.6084 11.1033 8.6084 10.9563 8.6084 10.8092C8.90068 10.4888 9.08451 10.5623 9.15991 11.0298C9.25956 10.2848 9.40664 9.54953 9.60112 8.82389C9.76854 8.47912 10.0259 8.25853 10.3732 8.16211Z"
        fill="#F8FBFB" />
    <path fill-rule="evenodd" clip-rule="evenodd"
        d="M24.7116 4.63171C24.9322 4.70524 25.0794 4.85231 25.1528 5.0729C25.0211 5.12478 24.9477 5.23508 24.9322 5.40379C25.6459 6.4378 25.7928 7.50401 25.3734 8.60239C25.5554 8.79777 25.776 8.87129 26.0353 8.82298C26.0436 10.266 26.1906 10.266 26.4765 8.82298C26.8063 10.2846 26.99 11.7552 27.028 13.2348C26.9545 13.0878 26.8808 12.9407 26.8074 12.7937C26.3558 13.7757 26.172 14.8051 26.2559 15.882C25.953 15.8474 25.6587 15.8842 25.3734 15.9923C24.9133 17.1532 24.2514 18.1827 23.388 19.0806C23.1789 19.1871 22.9583 19.2238 22.7262 19.1909C22.5109 18.1485 22.8418 17.3397 23.7189 16.7643C23.9329 16.3731 24.1169 15.9686 24.2704 15.5511C24.1372 14.3029 24.1372 12.9794 24.2704 11.5804C24.5775 9.9368 24.1363 8.57649 22.9468 7.49942C22.7707 7.15139 22.6604 6.78373 22.6159 6.39646C22.3867 6.56054 22.2764 6.78113 22.285 7.05824C22.0644 6.91117 21.8438 6.76412 21.6231 6.61705C21.3072 6.11 21.4542 5.74233 22.0644 5.51409C21.2033 5.41341 20.5415 5.00899 20.0789 4.30082C19.2699 4.2273 18.4612 4.15375 17.6522 4.08023C17.5514 3.9889 17.4777 3.87861 17.4316 3.74934C17.6522 3.56552 17.8729 3.38168 18.0935 3.19786C18.9536 2.89531 19.836 2.63795 20.7407 2.42578C20.9291 2.65116 21.1497 2.835 21.4025 2.97726C21.9435 3.04113 22.4581 3.1882 22.9468 3.41845C23.3981 4.05877 23.9865 4.46318 24.7116 4.63171Z"
        fill="#0B5677" />
    <path fill-rule="evenodd" clip-rule="evenodd"
        d="M25.1533 5.07422C26.4265 6.53878 27.2354 8.23 27.58 10.1479C27.58 10.2949 27.58 10.442 27.58 10.589C27.6625 13.9467 26.6332 16.8879 24.4915 19.4128C21.6067 21.9381 18.2241 23.188 14.3437 23.1629C13.0143 25.3827 11.6907 27.5886 10.3728 29.7807C10.1479 29.054 10.1479 28.3186 10.3728 27.5747C11.1081 27.5747 11.4758 27.207 11.4758 26.4718C11.6964 26.4718 11.917 26.4718 12.1376 26.4718C12.1376 25.7365 12.1376 25.0011 12.1376 24.2658C12.6086 24.3437 12.9027 24.1599 13.02 23.7143C12.637 22.7065 12.3061 22.7433 12.0273 23.8246C11.917 23.604 11.8067 23.3835 11.6964 23.1629C12.77 22.2218 14.02 21.7069 15.4467 21.6187C15.6421 21.8007 15.7156 22.0213 15.6673 22.2805C16.8358 22.1095 18.0123 22.0361 19.197 22.0599C19.197 21.8393 19.197 21.6187 19.197 21.3981C19.5597 21.4453 19.8906 21.3716 20.1897 21.1775C20.3916 20.6437 20.2078 20.3495 19.6382 20.2951C18.3201 20.6618 16.9964 20.9558 15.6673 21.1775C15.6673 20.8098 15.6673 20.4423 15.6673 20.0746C17.379 19.7629 17.379 19.5424 15.6673 19.4128C14.6801 19.6557 13.7242 20.0234 12.7994 20.5157C12.6523 20.4423 12.5053 20.3687 12.3582 20.2951C12.1822 20.6432 12.0719 21.0108 12.0273 21.3981C10.9817 22.3705 10.3567 23.5838 10.1522 25.0379C10.6195 25.8881 10.3989 26.3659 9.49033 26.4718C9.49033 26.6924 9.49033 26.9129 9.49033 27.1335C9.19867 27.096 8.94131 27.1695 8.71821 27.3541C8.61012 27.0689 8.57334 26.7746 8.60791 26.4718C8.2819 26.5296 7.98774 26.4561 7.72549 26.2512C7.6899 21.3679 7.76343 16.4782 7.94609 11.5817C7.87014 11.2806 7.72308 11.0232 7.50488 10.8096C7.83636 10.6878 8.20405 10.6878 8.60791 10.8096C8.60791 10.9567 8.60791 11.1038 8.60791 11.2508C8.31488 15.9944 8.31488 20.7738 8.60791 25.5894C8.74175 25.562 8.81528 25.4886 8.82852 25.3688C10.0961 23.1051 11.4198 20.8623 12.7994 18.6407C13.7606 19.0174 14.7902 19.2012 15.8879 19.1922C17.2373 19.2038 18.4873 18.9097 19.6382 18.3098C20.7895 17.7481 21.7454 16.9392 22.5061 15.8833C22.6909 15.8079 22.7646 15.6608 22.7267 15.4421C24.2716 12.5753 24.1244 9.78108 22.2855 7.05956C22.2769 6.78245 22.3872 6.56186 22.6164 6.39778C22.6609 6.78505 22.7712 7.15271 22.9473 7.50074C24.1368 8.57781 24.578 9.93812 24.2709 11.5817C24.1377 12.9807 24.1377 14.3043 24.2709 15.5524C24.1174 15.9699 23.9334 16.3744 23.7194 16.7657C22.8423 17.341 22.5114 18.1498 22.7267 19.1922C22.9588 19.2252 23.1794 19.1884 23.3885 19.0819C24.2519 18.184 24.9138 17.1546 25.3739 15.9936C25.6592 15.8855 25.9535 15.8487 26.2564 15.8833C26.1725 14.8064 26.3563 13.777 26.8079 12.795C26.8813 12.942 26.955 13.0891 27.0285 13.2362C26.9905 11.7565 26.8068 10.2859 26.477 8.8243C26.1911 10.2673 26.0441 10.2673 26.0358 8.8243C25.7765 8.87261 25.5559 8.79909 25.3739 8.60371C25.7933 7.50533 25.6464 6.43912 24.9327 5.40511C24.9482 5.2364 25.0216 5.1261 25.1533 5.07422Z"
        fill="#18566E" />
    <path fill-rule="evenodd" clip-rule="evenodd"
        d="M12.1385 16.7646C12.9796 16.9102 13.7884 17.1675 14.5651 17.5367C15.6657 17.6469 16.7688 17.6836 17.8742 17.647C18.3329 17.5432 18.7741 17.3961 19.1979 17.2058C18.6786 17.6526 18.0902 18.0203 17.433 18.3088C16.6207 18.3453 15.812 18.3085 15.0064 18.1985C14.1804 17.8174 13.3348 17.4865 12.4694 17.2058C12.182 17.3113 11.9246 17.4584 11.6973 17.647C11.7098 17.4024 11.7833 17.1818 11.9179 16.9852C11.9179 16.8382 11.9914 16.7646 12.1385 16.7646Z"
        fill="#F9E9D6" />
    <path fill-rule="evenodd" clip-rule="evenodd"
        d="M19.1967 16.9863C19.1967 17.0599 19.1967 17.1334 19.1967 17.2069C18.7729 17.3972 18.3317 17.5443 17.873 17.6481C18.2112 17.2632 18.6524 17.0426 19.1967 16.9863Z"
        fill="#F4B29F" />
    <path fill-rule="evenodd" clip-rule="evenodd"
        d="M22.5056 15.8825C21.7449 16.9384 20.789 17.7473 19.6377 18.309C18.9024 18.6031 18.1669 18.6031 17.4316 18.309C18.0888 18.0205 18.6772 17.6528 19.1965 17.206C19.1965 17.1325 19.1965 17.059 19.1965 16.9854C19.9408 16.947 20.6761 16.8367 21.4025 16.6546C21.5711 16.1981 21.6814 15.7201 21.7335 15.2207C21.9627 15.4876 22.2201 15.7082 22.5056 15.8825Z"
        fill="#E2F8F9" />
    <path fill-rule="evenodd" clip-rule="evenodd"
        d="M9.93178 10.5879C10.0053 10.5879 10.0789 10.5879 10.1524 10.5879C10.1524 12.3526 10.1524 14.1174 10.1524 15.8821C10.1524 16.691 10.1524 17.4998 10.1524 18.3087C10.0591 18.8119 10.2062 19.1795 10.5936 19.4116C10.5036 19.6638 10.3565 19.8844 10.1524 20.0734C9.93196 16.9886 9.85841 13.9003 9.93178 10.8085C9.93178 10.735 9.93178 10.6614 9.93178 10.5879Z"
        fill="#D78F87" />
    <path fill-rule="evenodd" clip-rule="evenodd"
        d="M21.8446 14.1182C21.2609 15.363 20.3785 16.3189 19.1974 16.9859C18.6531 17.0421 18.2119 17.2627 17.8737 17.6477C16.7683 17.6843 15.6652 17.6475 14.5646 17.5374C13.7879 17.1681 12.9791 16.9108 12.138 16.7653C12.1314 16.5453 12.2417 16.3982 12.4689 16.3241C14.9706 17.5451 17.4338 17.4716 19.8592 16.1035C19.9858 15.7596 20.1327 15.4287 20.3004 15.1108C20.9033 14.9114 21.4182 14.5805 21.8446 14.1182Z"
        fill="#CE5544" />
    <path fill-rule="evenodd" clip-rule="evenodd"
        d="M8.60755 11.25C8.60755 15.1472 8.60755 19.0443 8.60755 22.9414C8.53803 23.7954 8.61161 24.6043 8.82824 25.368C8.815 25.4877 8.74144 25.5612 8.60755 25.5886C8.31441 20.773 8.31441 15.9936 8.60755 11.25Z"
        fill="#5694AB" />
    <path fill-rule="evenodd" clip-rule="evenodd"
        d="M11.917 16.9863C11.7825 17.1829 11.7089 17.4035 11.6964 17.6481C11.1379 18.1298 10.7702 18.718 10.5933 19.4129C10.206 19.1808 10.0589 18.8131 10.1521 18.3099C10.4113 18.3582 10.632 18.2847 10.814 18.0893C11.0399 17.5498 11.4076 17.1821 11.917 16.9863Z"
        fill="#CC5245" />
    <path fill-rule="evenodd" clip-rule="evenodd"
        d="M17.4316 18.309C18.1669 18.6031 18.9024 18.6031 19.6376 18.309C18.4867 18.9089 17.2368 19.203 15.8873 19.1914C14.7896 19.2004 13.76 19.0166 12.7989 18.6399C11.4192 20.8615 10.0956 23.1043 8.82796 25.368C8.61141 24.6043 8.53786 23.7954 8.60735 22.9415C8.90148 22.9415 9.19564 22.9415 9.48977 22.9415C9.41874 22.4513 9.56579 22.0468 9.93099 21.7282C9.72161 21.5921 9.53776 21.6287 9.37947 21.8385C9.20129 21.3799 9.23806 20.9387 9.48977 20.515C9.82514 20.8128 9.97222 21.1068 9.93099 21.3973C10.3089 21.3137 10.5295 21.0931 10.5928 20.7355C10.9446 20.3801 11.2019 19.9389 11.3649 19.412C11.4521 18.8149 11.5624 18.2267 11.6958 17.6472C11.9232 17.4586 12.1806 17.3116 12.468 17.2061C13.3334 17.4867 14.179 17.8176 15.0049 18.1987C15.8106 18.3087 16.6193 18.3455 17.4316 18.309Z"
        fill="#E8F4F7" />
    <path fill-rule="evenodd" clip-rule="evenodd"
        d="M9.93145 10.8096C9.85807 13.9014 9.93162 16.9897 10.1521 20.0745C10.3562 19.8855 10.5032 19.6649 10.5933 19.4127C10.7701 18.7179 11.1378 18.1296 11.6963 17.648C11.5628 18.2274 11.4525 18.8156 11.3654 19.4127C11.2024 19.9397 10.945 20.3808 10.5933 20.7363C10.094 20.5982 9.72635 20.304 9.49023 19.8539C9.62986 16.8066 9.77693 13.7918 9.93145 10.8096Z"
        fill="#FCE9E0" />
</svg>