<?xml version="1.0" encoding="UTF-8" standalone="no"?>
<!DOCTYPE svg PUBLIC "-//W3C//DTD SVG 1.1//EN" "http://www.w3.org/Graphics/SVG/1.1/DTD/svg11.dtd">
<svg width="100%" height="100%" viewBox="0 0 800 800" version="1.1" xmlns="http://www.w3.org/2000/svg" xmlns:xlink="http://www.w3.org/1999/xlink" xml:space="preserve" xmlns:serif="http://www.serif.com/" style="fill-rule:evenodd;clip-rule:evenodd;stroke-linejoin:round;stroke-miterlimit:2;">
    <g transform="matrix(2,0,0,2,0,0)">
        <g id="_6f7c9d94-fa87-409e-8541-befd9f1e8612" serif:id="6f7c9d94-fa87-409e-8541-befd9f1e8612">
        </g>
        <g id="Artboard1" transform="matrix(1.38285,0,0,1.38285,-1212.26,-252.797)">
            <rect x="876.639" y="182.808" width="289.257" height="289.257" style="fill:none;"/>
            <g id="_6f7c9d94-fa87-409e-8541-befd9f1e86121" serif:id="6f7c9d94-fa87-409e-8541-befd9f1e8612" transform="matrix(0.482096,0,0,0.482096,828.429,182.808)">
                <g transform="matrix(0.271584,0,0,0.271584,400,300)">
                    <g id="_6f7c9d94-fa87-409e-8541-befd9f1e86122" serif:id="6f7c9d94-fa87-409e-8541-befd9f1e8612">
                        <g transform="matrix(1,0,0,1,-1017.5,-754)">
                            <path d="M7.78,562.76C7.78,163.23 628.9,106 628.9,106L2029,10.53L2022,1173.07C2022,1467.49 1324.52,1589.64 660.25,1413.07L660.25,1413.99L8.15,1233.88L7.78,562.76Z" style="fill:rgb(71,174,220);fill-rule:nonzero;"/>
                            <path d="M418.07,938.58C390.76,938.58 353.07,934.58 327.71,927.67C321.76,926.18 318.28,922.22 318.28,916.26L318.28,876.1C318.277,875.998 318.275,875.896 318.275,875.795C318.275,870.791 322.392,866.675 327.395,866.675C327.5,866.675 327.605,866.676 327.71,866.68L329.71,866.68C356.52,870.16 398.22,873.68 414.11,873.68C437.94,873.68 443.4,867.23 443.4,854.34C443.4,846.9 438.93,841.45 425.03,833.52L360.49,796.33C332.69,780.46 316.31,755.18 316.31,722.95C316.31,672.87 349.57,646.1 418.08,646.1C457.3,646.1 481.13,651.1 506.45,657.5C512.45,658.99 515.88,662.96 515.88,668.9L515.88,709C515.88,714.94 512.41,718.42 507.44,718.42L505.95,718.42C491.56,716.42 448.86,711.97 423.54,711.97C404.18,711.97 397.23,714.97 397.23,726.35C397.23,733.78 402.69,737.75 412.62,743.7L474.18,778.91C515.39,802.71 524.32,828.49 524.32,855.26C524.31,901.89 490.55,938.58 418.07,938.58ZM780.48,817.11L622.11,817.11L622.11,818.11C622.11,846.38 634.03,872.11 673.24,872.11C704.52,872.11 748.71,869.63 768.56,867.65L770.06,867.65C775.52,867.65 779.49,870.13 779.49,875.58L779.49,913.26C779.49,921.19 777.49,924.67 769.06,926.65C737.29,934.58 710.48,938.55 667.29,938.55C607.22,938.55 542.68,906.81 542.68,811.12L542.68,776.42C542.68,696.59 589.34,646.02 668.28,646.02C749.7,646.02 790.91,701.55 790.91,776.42L790.91,805.2C790.91,812.64 786.93,817.11 780.48,817.11ZM712.48,765.54C712.48,728.85 695.59,710.54 667.79,710.54C640.49,710.54 622.12,729.38 622.12,765.54L622.12,767.54L712.48,767.54L712.48,765.54ZM966.65,712.48L962.65,712.48C938.32,712.48 916.98,719.92 898.65,729.84L898.65,923.7C898.65,929.16 894.18,934.12 888.72,934.12L828.63,934.12C822.994,933.915 818.415,929.336 818.21,923.7L818.21,659.93C818.253,654.501 822.711,650.048 828.14,650.01L887.22,650.01C892.649,650.048 897.107,654.501 897.15,659.93L897.15,669.85C915.52,654.47 940.34,646.05 964.15,646.05C969.598,646.077 974.073,650.552 974.1,656L974.1,703.1C974.1,707.53 971.12,712.48 966.65,712.48ZM1199.49,934.12L1143.89,934.12C1138.46,934.082 1134,929.629 1133.96,924.2L1133.96,916.26C1114.6,930.15 1094.74,938.58 1064.96,938.58C1021.77,938.58 980.06,917.76 980.06,853.3L980.06,848.84C980.06,790.84 1017.3,765.04 1102.2,765.04L1129,765.04L1129,747.19C1129,718.93 1115.1,712.98 1091.76,712.98C1059.99,712.98 1024.76,714.98 1009.35,716.45L1006.86,716.45C1001.86,716.45 997.93,713.98 997.93,707.53L997.93,667.37C997.93,661.91 1001.4,657.95 1007.36,656.46C1025.73,652 1060.49,646.05 1093.25,646.05C1164.74,646.05 1209.42,674.8 1209.42,747.19L1209.42,924.19C1209.38,929.623 1204.92,934.082 1199.49,934.12ZM1130.49,812.64L1102.19,812.64C1067.43,812.64 1058.5,824.54 1058.5,848.84L1058.5,853.3C1058.5,874.12 1068.92,878.09 1089.77,878.09C1104.67,878.09 1118.57,873.09 1130.49,867.18L1130.49,812.64ZM1493.9,661.42L1431.34,886.52C1418.93,930.64 1388.64,938.58 1359.34,938.58C1330.04,938.58 1300.26,930.64 1287.85,886.52L1225.79,661.42C1225.38,660.476 1225.21,659.446 1225.29,658.42C1225.29,653.42 1228.77,649.99 1233.23,649.99L1298.77,649.99C1303.77,649.99 1307.7,654.45 1309.19,660.41L1351.89,854.77C1353.38,862.2 1355.89,865.18 1359.34,865.18C1362.79,865.18 1365.79,862.18 1367.28,854.77L1410,660.43C1411.48,654.43 1415.45,650.01 1420.42,650.01L1486,650.01C1486.02,650.01 1486.05,650.01 1486.07,650.01C1490.66,650.01 1494.44,653.788 1494.44,658.38C1494.44,658.4 1494.44,658.42 1494.44,658.44C1494.5,659.462 1494.32,660.484 1493.9,661.42ZM1626.45,938.58C1546.02,938.58 1501.83,888.5 1501.83,809.67L1501.83,775C1501.83,696.16 1546.02,646.09 1626.45,646.09C1706.88,646.09 1750.56,696.12 1750.56,775L1750.56,809.71C1750.56,888.5 1706.87,938.58 1626.45,938.58ZM1670.63,775C1670.63,734.84 1655.24,714.51 1626.45,714.51C1597.66,714.51 1581.76,734.84 1581.76,775L1581.76,809.71C1581.76,849.87 1597.65,870.71 1626.45,870.71C1655.25,870.71 1670.63,849.89 1670.63,809.71L1670.63,775Z" style="fill:white;fill-rule:nonzero;"/>
                        </g>
                    </g>
                </g>
            </g>
        </g>
    </g>
</svg>
