<svg width="32" height="32" viewBox="0 0 32 32" fill="none" xmlns="http://www.w3.org/2000/svg">
<path fill-rule="evenodd" clip-rule="evenodd" d="M23.2195 14.5451C23.7172 15.1709 24.031 15.8809 24.1606 16.675C23.7617 18.8646 22.5417 19.4879 20.5005 18.5451C20.305 18.3331 20.0958 18.1427 19.8731 17.9737C18.441 15.8568 17.0467 13.7096 15.6901 11.5321C15.09 10.2151 15.3689 9.12418 16.5267 8.25937C17.7367 7.79368 18.765 8.05342 19.6116 9.03859C20.8153 10.877 22.0179 12.7125 23.2195 14.5451Z" fill="#3EB84C"/>
<path fill-rule="evenodd" clip-rule="evenodd" d="M15.6884 11.5338C17.045 13.7113 18.4393 15.8585 19.8714 17.9754C20.3923 19.0891 20.2529 20.1108 19.4531 21.0403C18.3707 21.6968 17.325 21.6449 16.3158 20.8845C16.2112 20.7113 16.0718 20.5728 15.8975 20.4689C14.538 18.391 13.1786 16.3131 11.8191 14.2351C11.3873 13.2891 11.4048 12.354 11.8714 11.4299C12.7729 10.5078 13.8012 10.3519 14.9563 10.9624C15.2174 11.1355 15.4613 11.326 15.6884 11.5338Z" fill="#FABB0D"/>
<path fill-rule="evenodd" clip-rule="evenodd" d="M7.74208 16.5207C8.5435 17.7666 9.34524 19.0134 10.1473 20.2609C10.5357 21.1527 10.5532 22.0531 10.1996 22.9622C9.58078 23.7266 8.79646 23.9518 7.84665 23.6376C7.18845 23.3995 6.64815 23.0012 6.22574 22.4428C4.64959 19.9696 3.04611 17.5108 1.41528 15.0661C0.836974 14.1224 0.69754 13.118 0.996977 12.0532C1.40145 11.2721 2.04634 10.9431 2.93162 11.0661C3.82731 11.26 4.54191 11.7276 5.07541 12.4687C5.94997 13.8376 6.83886 15.1883 7.74208 16.5207Z" fill="#5394D5"/>
<path fill-rule="evenodd" clip-rule="evenodd" d="M16.3164 20.8843C17.3256 21.6447 18.3713 21.6966 19.4537 21.0401C20.2535 20.1106 20.3929 19.0888 19.872 17.9752C20.0947 18.1442 20.3039 18.3347 20.4994 18.5466C22.5406 19.4895 23.7606 18.8661 24.1595 16.6765C24.0299 15.8824 23.7161 15.1724 23.2184 14.5466C24.5608 13.6197 25.9552 12.7712 27.4014 12.0011C28.721 11.6232 29.854 11.9176 30.8001 12.8843C31.4643 14.4235 31.1681 15.7568 29.9112 16.8843C26.8792 18.91 23.8117 20.8841 20.7086 22.8063C18.56 23.5202 17.0959 22.8795 16.3164 20.8843Z" fill="#5294D5"/>
<path fill-rule="evenodd" clip-rule="evenodd" d="M11.8169 14.2339C13.1764 16.3118 14.5359 18.3898 15.8954 20.4677C16.4871 21.7205 16.2779 22.8114 15.2679 23.7404C14.2279 24.2837 13.2519 24.1798 12.3398 23.4287C11.5667 22.3927 10.8347 21.3364 10.1437 20.2599C9.34168 19.0123 8.53994 17.7655 7.73851 16.5196C7.3182 15.3332 7.5622 14.3115 8.47054 13.4547C9.7857 12.8921 10.9012 13.1518 11.8169 14.2339Z" fill="#EE3232"/>
</svg>
