<svg width="32" height="32" viewBox="0 0 33 33" fill="none" xmlns="http://www.w3.org/2000/svg">
    <path fill-rule="evenodd" clip-rule="evenodd"
        d="M16.9595 0.377112C18.2832 0.270322 19.355 0.565519 20.1746 1.2627C21.3035 0.304318 22.6612 0.132119 24.2471 0.746108C25.6275 1.81223 25.6633 2.91922 24.3543 4.06707C23.1139 4.94636 21.7207 5.68436 20.1746 6.28105C18.0307 5.46888 16.3518 4.33728 15.1376 2.88629C14.8383 1.72404 15.4456 0.887646 16.9595 0.377112Z"
        fill="#FB2C5B" />
    <path fill-rule="evenodd" clip-rule="evenodd"
        d="M8.38581 4.06711C8.91935 4.03727 9.41948 4.11107 9.88621 4.28851C10.7676 4.93663 11.5178 5.65003 12.1368 6.42869C12.343 7.50396 11.6642 7.92215 10.1005 7.68328C8.94381 6.90074 8.08644 5.99054 7.52844 4.95271C7.72812 4.61832 8.01391 4.32312 8.38581 4.06711Z"
        fill="#080808" />
    <path fill-rule="evenodd" clip-rule="evenodd"
        d="M30.4631 4.06703C32.0102 3.92917 32.7604 4.37197 32.7137 5.39541C32.2136 6.08421 31.7133 6.77299 31.2133 7.46179C29.3438 8.28861 28.4864 7.94422 28.6412 6.4286C29.2711 5.63904 29.8783 4.85185 30.4631 4.06703Z"
        fill="#0C0C0C" />
    <path fill-rule="evenodd" clip-rule="evenodd"
        d="M27.0336 10.8566C27.1049 11.2502 27.1765 11.6437 27.2479 12.0373C27.0126 12.1998 26.9768 12.3966 27.1407 12.6277C29.2091 13.3309 29.745 14.4133 28.7483 15.8749C31.1039 16.8297 31.5326 18.1088 30.0344 19.7125C31.9388 20.4598 32.4746 21.5421 31.6419 22.9596C28.1979 25.8247 24.2325 28.26 19.7459 30.2658C18.566 30.6678 17.3513 31.0122 16.1021 31.2989C14.9532 32.2871 13.5244 32.5823 11.8153 32.1845C8.8502 30.1428 5.88512 28.1009 2.92006 26.0592C2.84862 25.4688 2.77716 24.8784 2.70572 24.288C0.203914 23.1099 0.0610114 21.8306 2.27703 20.4505C2.78022 17.678 3.42325 14.9227 4.20611 12.1849C5.9288 10.8764 7.715 10.8272 9.56467 12.0373C9.99974 12.4397 10.3213 12.8825 10.5292 13.3657C12.6012 11.9389 14.6731 10.5122 16.7451 9.08537C18.596 8.08705 20.3465 8.18545 21.9965 9.38057C22.1001 9.52049 22.1356 9.66809 22.1037 9.82337C24.1967 9.18886 25.8401 9.53325 27.0336 10.8566Z"
        fill="#070707" />
    <path fill-rule="evenodd" clip-rule="evenodd"
        d="M18.4599 9.82338C19.8167 9.70031 20.4239 10.0939 20.2818 11.0042C17.6383 12.8245 14.9946 14.645 12.3511 16.4653C12.1398 15.832 11.854 15.2416 11.4938 14.6941C13.8591 13.09 16.1812 11.4664 18.4599 9.82338Z"
        fill="#F6F6F6" />
    <path fill-rule="evenodd" clip-rule="evenodd"
        d="M23.1754 11.0042C24.5324 10.7871 25.2112 11.1315 25.2116 12.0374C25.0031 12.3533 24.6816 12.5993 24.2471 12.7754C23.8701 12.2938 23.37 11.8756 22.7467 11.5208C23.0303 11.4004 23.173 11.2282 23.1754 11.0042Z"
        fill="#EBEBEB" />
    <path fill-rule="evenodd" clip-rule="evenodd"
        d="M27.0336 10.8566C27.4436 11.2315 27.515 11.6251 27.2479 12.0374C27.1765 11.6438 27.1049 11.2502 27.0336 10.8566Z"
        fill="#9E9E9E" />
    <path fill-rule="evenodd" clip-rule="evenodd"
        d="M20.3889 12.7754C21.8572 12.5978 22.4644 12.9914 22.2108 13.9562C20.2942 15.4239 18.2937 16.8508 16.2093 18.2366C15.9973 19.0248 16.4618 19.3937 17.6025 19.3436C20.1746 17.5724 22.7467 15.8012 25.3188 14.03C26.6764 13.8339 27.2839 14.2029 27.1407 15.137C24.5686 16.9082 21.9965 18.6794 19.4244 20.4506C19.2203 21.2437 19.6846 21.6127 20.8176 21.5575C22.7467 20.2292 24.6758 18.9008 26.6049 17.5724C27.4899 17.0425 28.2401 17.1163 28.8555 17.7938C28.9916 18.1089 28.92 18.4041 28.6411 18.6794C26.6407 20.0569 24.64 21.4346 22.6395 22.8121C22.5666 23.5976 23.1025 23.9175 24.2471 23.7715C25.5331 22.8859 26.8192 22.0003 28.1053 21.1147C29.4629 20.9186 30.0703 21.2876 29.9272 22.2217C27.3846 24.0218 24.7767 25.7685 22.1037 27.4615C20.0676 28.6164 17.7812 29.4529 15.2447 29.9707C14.5635 30.3417 13.8848 30.7107 13.2085 31.0776C10.2434 29.2327 7.42122 27.2892 4.74194 25.2475C5.20332 24.831 5.66773 24.4127 6.13517 23.9929C6.79911 21.3478 7.3707 18.691 7.84991 16.0226C8.74217 15.3957 9.5281 15.4449 10.2077 16.1702C10.2791 16.9573 10.3506 17.7446 10.422 18.5318C10.8096 18.8116 11.274 18.8854 11.8152 18.7532C14.7164 16.7801 17.5744 14.7875 20.3889 12.7754Z"
        fill="#FAFAFA" />
    <path fill-rule="evenodd" clip-rule="evenodd"
        d="M6.45669 12.6278C8.00349 12.6346 8.57508 13.1758 8.17143 14.2514C7.13669 14.446 6.38649 14.8889 5.92084 15.5798C5.34492 18.0606 4.80906 20.5453 4.31327 23.0335C4.23827 23.219 4.09539 23.2683 3.88458 23.1811C3.56307 22.9597 3.24156 22.7383 2.92004 22.5169C2.96105 21.8912 3.38973 21.3993 4.2061 21.0409C4.7764 18.5881 5.27652 16.1281 5.70649 13.661C5.73496 13.2323 5.98503 12.8879 6.45669 12.6278Z"
        fill="#EAEAEA" />
</svg>