<svg width="32" height="32" viewBox="0 0 32 32" fill="none" xmlns="http://www.w3.org/2000/svg">
    <g clip-path="url(#clip0_2463_533)">
        <path
            d="M22.3303 23.9971C21.9662 24.6937 21.2591 25.7116 19.6631 26.4504C17.3957 27.1653 17.3468 25.5904 17.3468 25.5904L16.9557 17.3589C19.7543 17.855 21.3878 18.1853 22.253 19.726C23.002 21.0598 23.0309 22.6566 22.3303 23.9971ZM14.7884 3.75113C14.7884 3.18634 15.243 2.72692 15.8017 2.72692C16.3605 2.72692 16.815 3.18634 16.815 3.75113C16.815 4.31592 16.3605 4.77546 15.8017 4.77546C15.243 4.77546 14.7884 4.31592 14.7884 3.75113ZM26.1289 18.4734C25.3536 16.9712 24.003 15.8806 21.9668 15.1391C20.2832 14.5262 18.415 14.259 16.9139 14.0441C16.8745 14.0386 16.8363 14.033 16.7973 14.0275L16.6562 11.0574L25.5502 10.0798V9.13964H16.5651L16.4458 6.62991C17.0809 6.48542 17.6374 6.1316 18.0413 5.644C18.8029 5.95333 19.3595 6.35245 19.6987 6.60423C20.4838 7.1865 20.8409 7.78268 20.9275 8.13292C20.942 8.19179 20.9886 8.28766 21.0628 8.28766H24.0344C24.118 8.28766 24.1647 8.18514 24.1624 8.13388C24.1 6.67391 23.0335 5.13308 21.4827 3.98269C20.5845 3.31633 19.5798 2.8719 18.4939 2.60812C18.0523 1.54585 17.0131 0.800049 15.8017 0.800049C14.5991 0.800049 13.5666 1.53514 13.1193 2.58516C11.9971 2.84621 10.9622 3.29826 10.0423 3.98697C8.53274 5.11727 7.48255 6.62599 7.39431 8.06431C7.38972 8.13887 7.42631 8.28766 7.55256 8.28766H10.6037C10.6801 8.28766 10.7271 8.20786 10.7344 8.16504C10.8513 7.48429 11.8266 6.23138 13.5212 5.5931C13.9249 6.10294 14.4922 6.47459 15.1428 6.62646L15.0228 9.13964H6.05315V10.0798L14.9315 11.0556L14.8076 13.6551C11.8975 13.3882 10.9341 11.8506 10.7163 11.4769C10.715 11.4749 10.7 11.4526 10.6774 11.4394C10.6527 11.425 10.6202 11.4197 10.6136 11.4192C9.98603 11.3672 8.24272 11.0778 7.43702 11.0167C7.42231 11.0157 7.39677 11.0216 7.38136 11.0383C7.36842 11.0525 7.36419 11.0765 7.36525 11.0887C7.51949 12.6765 8.66593 15.8814 14.652 16.9164L14.2428 25.4992L14.238 25.5904C14.238 25.5904 14.2733 27.2005 11.4447 26.5118C9.674 25.8366 8.52133 24.7702 7.75774 23.3484C8.98254 23.3484 10.5597 23.3372 11.5758 23.3355C11.6571 23.3353 11.7011 23.2282 11.6458 23.1729C9.78342 21.3169 6.75579 18.3473 6.01468 17.6208C5.98996 17.5965 5.96744 17.5752 5.94828 17.5556C5.89642 17.5034 5.81705 17.5115 5.78957 17.5659C5.48118 18.1787 4.06279 21.2597 5.29528 24.3307L5.30199 24.3455C5.99156 25.8341 7.0711 27.1436 8.51109 28.2381C9.54881 29.0267 10.7495 29.6891 12.0799 30.2066C12.1401 30.2327 12.1987 30.2563 12.2588 30.279C13.4557 30.7285 14.5518 31.4789 15.4007 32.4491C15.4007 32.4491 15.6384 32.6893 15.6998 32.7524C15.761 32.8154 15.8496 32.816 15.9042 32.7536C15.959 32.6911 16.1706 32.4491 16.1706 32.4491C16.2804 32.3235 16.3846 32.1969 16.5084 32.0725C17.3038 31.2753 18.2375 30.6719 19.2834 30.279C20.638 29.7704 21.8642 29.1111 22.9278 28.3197C24.4197 27.2096 25.4663 25.8738 26.1726 24.3493L26.2228 24.2408L26.2228 24.2268C26.5892 23.3407 26.7831 22.4402 26.7988 21.5481C26.8177 20.4726 26.6266 19.438 26.1289 18.4734Z"
            fill="#1C214A" />
    </g>
    <defs>
        <clipPath id="clip0_2463_533">
            <rect width="32" height="32" fill="white" />
        </clipPath>
    </defs>
</svg>