<svg width="32" height="32" viewBox="0 0 32 32" fill="none" xmlns="http://www.w3.org/2000/svg">
    <g clip-path="url(#clip0_3626_1702)">
        <path fill-rule="evenodd" clip-rule="evenodd"
            d="M-0.071167 -0.0712891C10.5955 -0.0712891 21.2622 -0.0712891 31.9288 -0.0712891C31.9288 0.687229 31.9288 1.44575 31.9288 2.20427C21.2622 2.20427 10.5955 2.20427 -0.071167 2.20427C-0.071167 1.44575 -0.071167 0.687229 -0.071167 -0.0712891Z"
            fill="#0096A8" />
        <path fill-rule="evenodd" clip-rule="evenodd"
            d="M-0.071167 2.20459C10.5955 2.20459 21.2622 2.20459 31.9288 2.20459C31.9288 3.86385 31.9288 5.5231 31.9288 7.18237C25.3866 7.18237 18.8444 7.18237 12.3022 7.18237C11.4625 6.69891 10.7277 6.08261 10.0977 5.33348C10.1925 5.80755 10.2873 6.28163 10.3822 6.7557C10.0997 6.23446 9.72039 5.80779 9.24439 5.4757C9.17328 5.49941 9.10217 5.5231 9.03106 5.54681C9.28573 5.89014 9.52277 6.24569 9.74217 6.61348C9.53018 6.71924 9.31685 6.81405 9.10217 6.89792C9.07502 7.21192 9.00391 7.49637 8.88883 7.75126C8.91162 7.50959 8.88791 7.27255 8.81772 7.04015C5.86552 7.18143 2.90256 7.22883 -0.071167 7.18237C-0.071167 5.5231 -0.071167 3.86385 -0.071167 2.20459Z"
            fill="#0193A5" />
        <path fill-rule="evenodd" clip-rule="evenodd"
            d="M12.3022 7.18239C12.8015 7.44656 13.2044 7.82581 13.5111 8.32016C13.5475 9.64765 13.5238 10.9751 13.44 12.3024C13.4165 12.7788 13.4402 13.2529 13.5111 13.7246C13.5773 13.9281 13.6958 14.094 13.8667 14.2224C14.809 14.1007 15.7572 13.9585 16.7111 13.7957C18.6536 13.5697 20.5498 13.7594 22.4 14.3646C24.1621 15.21 24.897 16.6084 24.6044 18.5602C24.4981 18.2996 24.3558 18.0625 24.1778 17.8491C23.8315 18.5907 23.3812 19.2545 22.8267 19.8402C22.0169 20.322 21.6613 21.0331 21.76 21.9735C22.0806 22.3899 22.2465 22.8641 22.2578 23.3957C22.0911 24.1576 21.9015 24.9162 21.6889 25.6713C21.5599 26.3184 21.1568 26.6028 20.48 26.5246C20.1883 26.5356 19.9276 26.4644 19.6978 26.3113C19.9977 26.149 20.2584 25.9357 20.48 25.6713C20.4927 25.3126 20.374 25.289 20.1244 25.6002C19.7959 25.6708 19.4641 25.6945 19.1289 25.6713C19.1131 25.5835 19.0657 25.5124 18.9867 25.4579C19.2819 25.0188 19.6848 24.7581 20.1956 24.6757C20.2904 24.2964 20.2904 23.9172 20.1956 23.5379C19.7899 23.0111 19.4581 22.4423 19.2 21.8313C19.107 21.1523 19.1781 20.4887 19.4133 19.8402C19.366 19.7453 19.3185 19.6506 19.2711 19.5557C18.6342 20.0265 18.018 20.5243 17.4222 21.0491C16.7334 21.2217 16.1408 21.0557 15.6444 20.5513C15.6632 21.4036 15.6632 22.2569 15.6444 23.1113C15.5095 23.7059 15.3199 24.2748 15.0756 24.8179C14.7248 24.9996 14.3693 24.9996 14.0089 24.8179C14.4422 24.0268 14.5134 23.2208 14.2222 22.4002C14.0921 22.5179 13.9973 22.6601 13.9378 22.8268C13.8015 23.4843 13.7067 24.1481 13.6533 24.8179C13.4015 25.4875 12.9512 25.6772 12.3022 25.3868C12.8001 24.8838 12.9898 24.2675 12.8711 23.5379C12.7924 22.3222 12.5554 21.1371 12.16 19.9824C11.5437 19.247 10.9511 18.4883 10.3822 17.7068C9.92163 16.7652 9.66089 15.7696 9.6 14.7202C9.87225 13.454 10.0145 12.174 10.0267 10.8802C10.1398 10.2979 9.95016 9.84753 9.45778 9.52905C7.61081 9.46556 7.42119 8.87298 8.88889 7.75127C9.00397 7.49638 9.07508 7.21194 9.10223 6.89794C9.31691 6.81407 9.53024 6.71925 9.74223 6.6135C9.52283 6.24571 9.28579 5.89015 9.03112 5.54683C9.10223 5.52312 9.17334 5.49943 9.24445 5.47572C9.72045 5.80781 10.0997 6.23447 10.3822 6.75572C10.2874 6.28165 10.1926 5.80757 10.0978 5.3335C10.7278 6.08262 11.4626 6.69893 12.3022 7.18239Z"
            fill="#FCFDFD" />
        <path fill-rule="evenodd" clip-rule="evenodd"
            d="M8.88883 7.75115C7.42113 8.87286 7.61075 9.46544 9.45772 9.52893C9.9501 9.84741 10.1397 10.2978 10.0266 10.88C9.93033 11.9203 9.7407 12.9633 9.45772 14.0089C6.28284 14.1511 3.10655 14.1985 -0.071167 14.1512C-0.071167 11.8282 -0.071167 9.50522 -0.071167 7.18226C2.90256 7.22873 5.86552 7.18132 8.81772 7.04004C8.88791 7.27244 8.91162 7.50949 8.88883 7.75115Z"
            fill="#018C9E" />
        <path fill-rule="evenodd" clip-rule="evenodd"
            d="M12.3022 7.18213C18.8445 7.18213 25.3867 7.18213 31.9289 7.18213C31.9289 9.17324 31.9289 11.1644 31.9289 13.1555C25.8134 13.1555 19.6978 13.1555 13.5822 13.1555C13.6242 12.8375 13.5768 12.5531 13.44 12.3021C13.5238 10.9748 13.5475 9.64739 13.5111 8.31991C13.2044 7.82556 12.8015 7.44631 12.3022 7.18213Z"
            fill="#008D9F" />
        <path fill-rule="evenodd" clip-rule="evenodd"
            d="M10.0266 10.8799C10.0144 12.1737 9.87219 13.4537 9.59994 14.7199C9.66083 15.7693 9.92157 16.7649 10.3822 17.7065C10.951 18.4881 11.5436 19.2467 12.1599 19.9821C8.09341 20.123 4.01637 20.1705 -0.071167 20.1243C-0.071167 18.1332 -0.071167 16.1421 -0.071167 14.151C3.10655 14.1984 6.28284 14.151 9.45772 14.0088C9.7407 12.9631 9.93033 11.9202 10.0266 10.8799Z"
            fill="#018698" />
        <path fill-rule="evenodd" clip-rule="evenodd"
            d="M13.44 12.3022C13.5768 12.5532 13.6242 12.8377 13.5823 13.1556C19.6978 13.1556 25.8134 13.1556 31.9289 13.1556C31.9289 15.4785 31.9289 17.8016 31.9289 20.1245C28.8945 20.1482 25.8604 20.1245 22.8267 20.0534C23.0028 19.9552 23.0028 19.8841 22.8267 19.84C23.3812 19.2544 23.8315 18.5906 24.1778 17.8489C24.3559 18.0624 24.4981 18.2995 24.6045 18.56C24.897 16.6083 24.1622 15.2098 22.4 14.3645C20.5499 13.7592 18.6536 13.5696 16.7111 13.7956C15.7573 13.9584 14.8091 14.1006 13.8667 14.2222C13.6958 14.0939 13.5773 13.928 13.5111 13.7245C13.4403 13.2527 13.4166 12.7787 13.44 12.3022Z"
            fill="#028799" />
        <path fill-rule="evenodd" clip-rule="evenodd"
            d="M22.8266 19.8398C23.0027 19.8839 23.0027 19.955 22.8266 20.0532C25.8604 20.1243 28.8944 20.148 31.9288 20.1243C31.9288 22.068 31.9288 24.0116 31.9288 25.9554C28.4829 26.0466 25.0696 25.9518 21.6888 25.671C21.9015 24.9159 22.091 24.1573 22.2577 23.3954C22.2465 22.8638 22.0805 22.3896 21.76 21.9732C21.6613 21.0328 22.0168 20.3217 22.8266 19.8398Z"
            fill="#028092" />
        <path fill-rule="evenodd" clip-rule="evenodd"
            d="M19.1288 25.6712C19.0564 25.7908 19.1512 25.8619 19.4133 25.8846C12.9186 25.9557 6.42382 25.9794 -0.071167 25.9557C-0.071167 24.0119 -0.071167 22.0683 -0.071167 20.1246C4.01637 20.1708 8.09341 20.1233 12.1599 19.9823C12.5553 21.137 12.7924 22.3222 12.8711 23.5379C12.9897 24.2675 12.8001 24.8837 12.3022 25.3868C12.9511 25.6772 13.4015 25.4875 13.6533 24.8179C13.7066 24.148 13.8014 23.4843 13.9377 22.8268C13.9973 22.6601 14.0921 22.5179 14.2222 22.4001C14.5133 23.2207 14.4422 24.0267 14.0088 24.8179C14.3692 24.9995 14.7248 24.9995 15.0755 24.8179C15.3198 24.2747 15.5094 23.7059 15.6444 23.1112C15.6632 22.2569 15.6632 21.4036 15.6444 20.5512C16.1407 21.0557 16.7334 21.2217 17.4222 21.049C18.0179 20.5242 18.6342 20.0264 19.2711 19.5557C19.3184 19.6505 19.3659 19.7452 19.4133 19.8401C19.178 20.4886 19.1069 21.1523 19.1999 21.8312C19.4581 22.4422 19.7899 23.0111 20.1955 23.5379C20.2904 23.9172 20.2904 24.2964 20.1955 24.6757C19.6848 24.758 19.2819 25.0187 18.9866 25.4579C19.0657 25.5124 19.113 25.5835 19.1288 25.6712Z"
            fill="#028092" />
        <path fill-rule="evenodd" clip-rule="evenodd"
            d="M21.6888 25.6713C25.0696 25.9522 28.4829 26.0469 31.9288 25.9558C31.9288 27.9469 31.9288 29.938 31.9288 31.9291C21.2622 31.9291 10.5955 31.9291 -0.071167 31.9291C-0.071167 29.938 -0.071167 27.9469 -0.071167 25.9558C6.42382 25.9795 12.9186 25.9558 19.4133 25.8846C19.1512 25.862 19.0564 25.7909 19.1288 25.6713C19.4641 25.6945 19.7959 25.6709 20.1244 25.6002C20.374 25.289 20.4926 25.3126 20.4799 25.6713C20.2584 25.9357 19.9977 26.149 19.6977 26.3113C19.9276 26.4645 20.1882 26.5356 20.4799 26.5246C21.1568 26.6029 21.5598 26.3184 21.6888 25.6713Z"
            fill="#007A8C" />
    </g>
    <defs>
        <clipPath id="clip0_3626_1702">
            <rect width="32" height="32" fill="white" />
        </clipPath>
    </defs>
</svg>