<svg width="32" height="32" viewBox="0 0 32 32" fill="none" xmlns="http://www.w3.org/2000/svg">
    <g clip-path="url(#clip0_4811_2468)">
        <path fill-rule="evenodd" clip-rule="evenodd"
            d="M-0.071106 -0.0710449C10.5956 -0.0710449 21.2622 -0.0710449 31.9289 -0.0710449C31.9289 10.5956 31.9289 21.2623 31.9289 31.929C21.2622 31.929 10.5956 31.929 -0.071106 31.929C-0.071106 21.2623 -0.071106 10.5956 -0.071106 -0.0710449Z"
            fill="#456DF0" />
        <path fill-rule="evenodd" clip-rule="evenodd"
            d="M19.4134 9.74218C19.8326 9.70277 20.2355 9.75017 20.6223 9.8844C20.7171 10.8326 20.7171 11.7807 20.6223 12.7288C19.1406 12.9256 18.145 13.7315 17.6356 15.1466C17.7014 18.7396 16.0185 21.0389 12.5867 22.0444C12.2074 22.1393 11.8282 22.1393 11.4489 22.0444C11.2863 21.1316 11.2626 20.2072 11.3778 19.2711C12.3794 19.0067 13.2327 18.4851 13.9378 17.7066C14.16 17.3572 14.3022 16.9779 14.3645 16.5688C14.4578 13.0897 16.1407 10.8141 19.4134 9.74218Z"
            fill="#FBFCFE" />
        <path fill-rule="evenodd" clip-rule="evenodd"
            d="M8.31999 15.431C8.19142 15.5319 8.14402 15.6741 8.17777 15.8577C7.18221 15.8577 6.18666 15.8577 5.1911 15.8577C5.3376 13.1238 6.66502 11.2038 9.17332 10.0977C9.85534 9.80856 10.5664 9.69005 11.3067 9.74216C11.3067 10.7851 11.3067 11.8281 11.3067 12.871C9.65796 12.9608 8.6624 13.8141 8.31999 15.431Z"
            fill="#FB5E72" />
        <path fill-rule="evenodd" clip-rule="evenodd"
            d="M8.31999 15.4312C8.31999 15.6207 8.31999 15.8105 8.31999 16C7.25061 16.0463 6.20765 15.9989 5.1911 15.8578C6.18666 15.8578 7.18221 15.8578 8.17777 15.8578C8.14402 15.6742 8.19142 15.532 8.31999 15.4312Z"
            fill="#B265B5" />
        <path fill-rule="evenodd" clip-rule="evenodd"
            d="M23.9644 15.8578C24.9017 15.8136 25.8261 15.8609 26.7377 16C26.6676 19.1928 25.0796 21.2075 21.9733 22.0445C21.594 22.1393 21.2148 22.1393 20.8355 22.0445C20.6727 21.0842 20.6491 20.1123 20.7644 19.1289C21.636 18.9655 22.3946 18.5862 23.04 17.9911C23.4469 17.3129 23.7551 16.6018 23.9644 15.8578Z"
            fill="#2FEDD1" />
    </g>
    <defs>
        <clipPath id="clip0_4811_2468">
            <rect width="32" height="32" fill="white" />
        </clipPath>
    </defs>
</svg>