<svg width="32" height="32" viewBox="0 0 32 32" fill="none" xmlns="http://www.w3.org/2000/svg">
    <g clip-path="url(#clip0_3743_1696)">
        <path fill-rule="evenodd" clip-rule="evenodd"
            d="M6.69708 -0.0107422C12.8922 -0.0107422 19.0873 -0.0107422 25.2824 -0.0107422C27.7911 0.260125 29.7051 1.46298 31.0241 3.59781C31.5703 4.56011 31.8921 5.59013 31.9897 6.6879C31.9897 11.2712 31.9897 15.8545 31.9897 20.4377C29.7635 21.4243 27.4585 22.1812 25.0748 22.7086C19.195 23.9671 13.3113 23.9878 7.42388 22.7709C4.85285 22.2134 2.37479 21.3942 -0.0102539 20.3133C-0.0102539 15.7715 -0.0102539 11.2297 -0.0102539 6.6879C0.260965 4.18246 1.46538 2.27105 3.60298 0.953613C4.56654 0.408136 5.59789 0.0866855 6.69708 -0.0107422Z"
            fill="black" />
        <path fill-rule="evenodd" clip-rule="evenodd"
            d="M15.3977 2.41593C17.268 2.35923 19.0054 2.80512 20.6099 3.75358C21.0082 3.99577 21.3784 4.27575 21.7208 4.59351C21.7347 4.60734 21.7347 4.62115 21.7208 4.63498C21.2634 5.09879 20.8134 5.56885 20.3711 6.04522C18.6451 4.65419 16.6827 4.14609 14.484 4.52092C13.8669 4.63563 13.3131 4.88449 12.8227 5.26752C12.1677 5.8408 11.922 6.55629 12.0855 7.41399C12.1946 7.88414 12.4334 8.27471 12.802 8.58573C13.068 8.79816 13.3518 8.98481 13.6533 9.14568C14.0268 9.3287 14.4075 9.49461 14.7955 9.64341C16.1397 10.1439 17.4826 10.6486 18.824 11.1573C19.5997 11.4718 20.3126 11.8866 20.9629 12.4017C22.0691 13.3854 22.5432 14.6193 22.3853 16.1036C22.2298 17.2266 21.7279 18.1634 20.8798 18.9137C20.1046 19.5601 19.2255 20.0163 18.2426 20.2824C15.7418 20.8969 13.3123 20.6895 10.9538 19.6603C10.0353 19.2362 9.2047 18.6866 8.46191 18.0115C8.96721 17.4931 9.47944 16.9815 9.99858 16.4769C11.9727 18.1954 14.2638 18.8832 16.872 18.5404C17.6357 18.4249 18.3209 18.1346 18.9278 17.6693C19.6718 16.9747 19.9314 16.1278 19.7066 15.1288C19.5005 14.4944 19.1095 14.007 18.5333 13.6667C17.9869 13.3594 17.4193 13.0967 16.8305 12.8787C15.5477 12.3936 14.2671 11.9028 12.9888 11.4062C12.2506 11.107 11.5722 10.7129 10.9538 10.2241C9.6504 9.10482 9.19009 7.70495 9.57288 6.02449C9.87421 5.07384 10.4314 4.30994 11.2445 3.73285C12.0981 3.14094 13.0395 2.75381 14.0687 2.57147C14.5119 2.49426 14.9549 2.44241 15.3977 2.41593Z"
            fill="#FEFEFE" />
        <path fill-rule="evenodd" clip-rule="evenodd"
            d="M-0.0102539 20.3135C2.37479 21.3944 4.85285 22.2136 7.42388 22.771C13.3113 23.988 19.195 23.9672 25.0748 22.7088C27.4585 22.1814 29.7635 21.4245 31.9897 20.4379C31.9897 22.0555 31.9897 23.6732 31.9897 25.2908C31.7185 27.7963 30.5141 29.7077 28.3765 31.0251C27.413 31.5705 26.3815 31.892 25.2824 31.9894C19.0873 31.9894 12.8922 31.9894 6.69708 31.9894C4.18839 31.7186 2.2745 30.5157 0.955353 28.3809C0.409168 27.4186 0.0873002 26.3885 -0.0102539 25.2908C-0.0102539 23.6317 -0.0102539 21.9726 -0.0102539 20.3135Z"
            fill="#0BB9B4" />
        <path fill-rule="evenodd" clip-rule="evenodd"
            d="M17.6406 26.0375C17.8207 26.0339 18.0007 26.0375 18.1805 26.0478C18.4307 26.1082 18.5172 26.2637 18.4401 26.5145C18.3774 26.6669 18.2631 26.7463 18.0975 26.7529C17.9453 26.7633 17.7931 26.7668 17.6406 26.7633C17.6406 26.5213 17.6406 26.2795 17.6406 26.0375Z"
            fill="#0FBAB5" />
    </g>
    <defs>
        <clipPath id="clip0_3743_1696">
            <rect width="32" height="32" fill="white" />
        </clipPath>
    </defs>
</svg>