<svg width="32" height="32" viewBox="0 0 32 32" fill="none" xmlns="http://www.w3.org/2000/svg">
<path d="M18.5556 13.5219L16.0613 16.0001L13.5675 18.4783L12.4848 19.5539C11.5202 20.5121 10.2732 21.0266 8.90827 21.0266C8.24448 21.0289 7.58677 20.9 6.97298 20.6473C6.35918 20.3945 5.80141 20.0229 5.33174 19.5539C3.35556 17.5898 3.35556 14.4104 5.33174 12.4698C6.29671 11.5112 7.54365 10.9971 8.90862 10.9971C10.2732 10.9971 11.5202 11.5112 12.4848 12.4698L13.5675 13.5453L16.0613 11.0671L14.979 9.99157C13.3321 8.30837 11.1202 7.49023 8.93209 7.49023C6.65781 7.49038 4.47574 8.38933 2.86134 9.99121C-0.47982 13.311 -0.47982 18.7116 2.86134 22.0314C4.53174 23.6918 6.71982 24.5334 8.93209 24.5334C11.2064 24.533 13.3883 23.6338 15.0025 22.0317L16.0852 20.9565L18.5556 18.4783L21.0498 16.0001L18.5556 13.5219Z" fill="#46EBC8"/>
<path d="M29.2627 9.96849C27.5919 8.3084 25.4038 7.4668 23.1919 7.4668C20.9175 7.46713 18.7354 8.36634 17.1212 9.96849L16.0388 11.0437L13.5684 13.5219L11.0742 16.0001L13.5684 18.4784L16.0623 16.0001L18.5565 13.5219L19.6388 12.4464C20.6038 11.4881 21.8508 10.9736 23.2157 10.9736C24.5804 10.9736 25.8273 11.4881 26.7919 12.4464C27.7565 13.4049 28.2746 14.644 28.2746 16.0001C28.2746 17.3328 27.7565 18.5953 26.7919 19.5539C25.8273 20.5121 24.5804 21.0266 23.2154 21.0266C21.8508 21.0266 20.6038 20.5121 19.6388 19.5539L18.5565 18.4784L16.0623 20.9566L17.145 22.0318C18.8154 23.6919 21.0035 24.5335 23.215 24.5335C25.4894 24.5331 27.6715 23.6339 29.2858 22.0318C32.6269 18.712 32.6269 13.3114 29.2623 9.96849H29.2627Z" fill="#FF00A4"/>
<path d="M15.0022 9.96846C13.3318 8.30837 11.1198 7.49023 8.93175 7.49023C8.76677 7.49023 8.57868 7.49023 8.41406 7.5137V11.0437C8.60251 11.0205 8.76677 11.0205 8.95522 11.0205C10.2964 11.0205 11.5668 11.5347 12.5318 12.4933L13.6141 13.5688L16.1083 11.0906L15.0022 9.96846Z" fill="url(#paint0_linear_115_819)"/>
<path d="M17.1456 22.032C18.816 23.6921 21.004 24.5337 23.2156 24.5337C23.3802 24.5337 23.5687 24.5337 23.7333 24.5102V20.9802C23.5448 21.0033 23.3802 21.0033 23.1921 21.0033C22.5283 21.0057 21.8706 20.8768 21.2568 20.624C20.643 20.3713 20.0853 19.9997 19.6156 19.5306L18.5333 18.4551L16.0391 20.9333L17.1448 22.032H17.1456Z" fill="url(#paint1_linear_115_819)"/>
<defs>
<linearGradient id="paint0_linear_115_819" x1="59.2729" y1="137.402" x2="511.833" y2="587.067" gradientUnits="userSpaceOnUse">
<stop offset="0.4096" stop-color="#4496A0" stop-opacity="0"/>
<stop offset="1" stop-color="#4496A0" stop-opacity="0.95"/>
</linearGradient>
<linearGradient id="paint1_linear_115_819" x1="733.941" y1="495.362" x2="281.371" y2="45.7016" gradientUnits="userSpaceOnUse">
<stop offset="0.4096" stop-color="#BE1E2D" stop-opacity="0"/>
<stop offset="1" stop-color="#BE1E2D" stop-opacity="0.95"/>
</linearGradient>
</defs>
</svg>
