<svg width="32" height="32" viewBox="0 0 32 32" fill="none" xmlns="http://www.w3.org/2000/svg">
<g clip-path="url(#clip0_115_1641)">
<path fill-rule="evenodd" clip-rule="evenodd" d="M31.9219 11.1196C31.9219 11.8129 31.9219 12.5063 31.9219 13.1996C30.758 16.9033 28.8648 20.21 26.2419 23.1196C23.0804 26.4412 19.4272 29.0812 15.2819 31.0396C12.6498 32.0031 10.1965 31.6831 7.92187 30.0796C5.57127 28.046 3.83792 25.566 2.72187 22.6396C1.2277 18.5849 0.294361 14.4249 -0.078125 10.1596C-0.078125 9.30625 -0.078125 8.45291 -0.078125 7.59958C1.13787 2.57121 4.33787 0.0912043 9.52187 0.159579C12.4335 0.453926 15.3135 0.933926 18.1619 1.59958C22.1264 2.54619 25.7531 4.19951 29.0419 6.55958C30.5555 7.7503 31.5155 9.2703 31.9219 11.1196Z" fill="#020202"/>
<path fill-rule="evenodd" clip-rule="evenodd" d="M8.87891 8.24046C12.7726 8.21381 16.6659 8.24046 20.5589 8.32046C21.7672 9.04603 21.8205 9.84603 20.7189 10.7205C16.7727 10.8005 12.8259 10.8271 8.87891 10.8005C8.87891 9.94714 8.87891 9.09379 8.87891 8.24046Z" fill="#FAFAFA"/>
<path fill-rule="evenodd" clip-rule="evenodd" d="M17.8387 22.0002C14.8521 22.0002 11.8654 22.0002 8.87875 22.0002C8.87875 21.2002 8.87875 20.4002 8.87875 19.6002C11.8659 19.6269 14.8526 19.6002 17.8387 19.5202C18.7935 18.9775 19.0335 18.2041 18.5587 17.2002C18.3645 16.9524 18.1245 16.7658 17.8387 16.6402C14.7992 16.5602 11.7592 16.5335 8.71875 16.5602C8.71875 15.7069 8.71875 14.8536 8.71875 14.0002C11.9192 13.9736 15.1192 14.0002 18.3187 14.0802C20.8994 14.8938 21.8859 16.6271 21.2787 19.2802C20.6336 20.8167 19.4869 21.7233 17.8387 22.0002Z" fill="#F9F9F9"/>
<path fill-rule="evenodd" clip-rule="evenodd" d="M8.87815 19.5996C8.87815 20.3996 8.87815 21.1996 8.87815 21.9996C11.8648 21.9996 14.8515 21.9996 17.8382 21.9996C14.826 22.1591 11.786 22.2124 8.71815 22.1596C8.66673 21.2754 8.72006 20.422 8.87815 19.5996Z" fill="#484848"/>
</g>
<defs>
<clipPath id="clip0_115_1641">
<rect width="32" height="32" fill="white"/>
</clipPath>
</defs>
</svg>
