<svg width="32" height="32" viewBox="0 0 33 33" fill="none" xmlns="http://www.w3.org/2000/svg">
    <path fill-rule="evenodd" clip-rule="evenodd"
        d="M0.928833 0.929688C11.5955 0.929688 22.2622 0.929688 32.9288 0.929688C32.9288 11.5964 32.9288 22.263 32.9288 32.9297C22.2622 32.9297 11.5955 32.9297 0.928833 32.9297C0.928833 22.263 0.928833 11.5964 0.928833 0.929688Z"
        fill="#E5FB5D" />
    <path
        d="M23.3715 20.0486C23.2328 19.286 22.9496 18.6061 22.5194 18.0089C22.0904 17.4117 21.5801 16.8756 20.9909 16.3996C20.4005 15.9247 19.7779 15.4762 19.123 15.0553C18.6247 14.7687 18.1526 14.4581 17.7045 14.1259C17.2563 13.7938 16.9205 13.4076 16.6982 12.9651C16.4747 12.5226 16.4329 11.9926 16.5691 11.3726C16.6576 10.9745 16.7926 10.6375 16.9731 10.3605C17.1547 10.0847 17.3949 9.87483 17.6937 9.72973C17.9925 9.58584 18.3032 9.51389 18.6235 9.51389C19.1051 9.51389 19.4636 9.641 19.7026 9.89521C19.9404 10.1495 20.0779 10.4924 20.1161 10.9241C20.1544 11.3558 20.1233 11.8259 20.0241 12.3344C19.9249 12.8428 19.7791 13.3512 19.5855 13.8609L24.7243 13.2973C25.2716 11.7935 25.439 10.4936 25.2262 9.39995C25.0135 8.30511 24.4255 7.45851 23.4623 6.86132C23.1791 6.68624 22.8624 6.53752 22.5122 6.41401L22.8923 4.69679L20.2978 2.91602L17.2933 4.69679L16.9587 6.20535C16.4006 6.32168 15.8736 6.47756 15.3812 6.67903C14.2184 7.15511 13.2648 7.81226 12.5179 8.65289C11.7697 9.49351 11.2738 10.466 11.0288 11.5717C10.8376 12.4339 10.8173 13.187 10.9702 13.8273C11.122 14.4689 11.3885 15.0445 11.7709 15.5529C12.1522 16.0614 12.5991 16.5207 13.1106 16.9296C13.6209 17.3397 14.1324 17.7211 14.6415 18.0736C15.2259 18.4501 15.778 18.8591 16.2955 19.3016C16.8117 19.7441 17.2109 20.2693 17.4905 20.8773C17.7702 21.4865 17.812 22.2324 17.616 23.1161C17.5085 23.603 17.3531 24.0011 17.1511 24.3105C16.9492 24.6199 16.697 24.8525 16.3959 25.0072C16.0935 25.1619 15.7565 25.2399 15.3812 25.2399C14.6594 25.2399 14.1515 24.8586 13.946 24.3393C13.7404 23.8201 13.7583 23.272 13.9125 22.453C14.0666 21.6352 14.4586 20.773 14.847 19.8652H9.75843C9.75843 19.8652 8.58247 21.9194 8.36856 23.7649C8.25144 24.7722 8.408 25.6392 8.83463 26.3695C9.26128 27.0998 9.94486 27.6635 10.8866 28.0615C11.2331 28.2077 11.6192 28.3278 12.041 28.4202L11.4196 31.2237H17.0352L17.6782 28.3205C18.1395 28.2067 18.5685 28.0664 18.9653 27.8961C20.1472 27.3876 21.0937 26.6741 21.8059 25.7567C22.517 24.8394 22.995 23.8273 23.24 22.7216C23.4647 21.7047 23.5077 20.8137 23.3703 20.0511L23.3715 20.0486Z"
        fill="black" />
</svg>