<svg width="32" height="32" viewBox="0 0 32 32" fill="none" xmlns="http://www.w3.org/2000/svg">
<g clip-path="url(#clip0_118_261)">
<path fill-rule="evenodd" clip-rule="evenodd" d="M-0.0703125 -0.0703125C10.5964 -0.0703125 21.263 -0.0703125 31.9297 -0.0703125C31.9297 10.5964 31.9297 21.263 31.9297 31.9297C21.263 31.9297 10.5964 31.9297 -0.0703125 31.9297C-0.0703125 21.263 -0.0703125 10.5964 -0.0703125 -0.0703125Z" fill="#274E4B"/>
<path fill-rule="evenodd" clip-rule="evenodd" d="M16.4261 8.03571C16.0976 7.9413 15.742 7.8939 15.3594 7.89348C14.8183 7.86557 14.3205 7.96039 13.8661 8.17793C12.3263 8.9304 11.9707 10.0682 12.7994 11.5913C13.1681 12.0552 13.6184 12.4108 14.1505 12.6579C16.0361 13.2632 17.885 13.9744 19.6972 14.7913C22.4856 16.0863 23.5049 18.2433 22.755 21.2624C22.4865 22.0368 22.1072 22.7479 21.6172 23.3957C19.3842 25.1517 16.8479 25.7917 14.0083 25.3157C12.3481 25.1263 10.7837 24.6522 9.31498 23.8935C9.0552 23.7656 8.86556 23.5759 8.74609 23.3246C9.33906 21.8779 10.0265 20.4794 10.8083 19.129C11.4509 20.3412 12.2095 21.479 13.0839 22.5424C14.855 24.1343 16.8223 24.395 18.9861 23.3246C20.3135 22.0446 20.3135 20.7646 18.9861 19.4846C17.2471 18.6192 15.4456 17.8607 13.5816 17.209C12.362 16.7458 11.2953 16.0585 10.3816 15.1468C8.50817 12.0482 9.05335 9.46448 12.0172 7.39571C12.6701 7.13065 13.3338 6.8936 14.0083 6.6846C16.9434 6.25241 19.7404 6.67908 22.3994 7.96459C22.5441 8.11386 22.5678 8.27977 22.4705 8.46237C21.852 9.69939 21.2358 10.932 20.6216 12.1602C19.8545 10.3983 18.6456 9.04715 16.995 8.10682C16.8111 8.03713 16.6214 8.01342 16.4261 8.03571Z" fill="#F7FAFA"/>
<path fill-rule="evenodd" clip-rule="evenodd" d="M16.4272 8.03566C15.5687 8.01573 14.7154 8.06313 13.8672 8.17788C14.3216 7.96034 14.8194 7.86552 15.3605 7.89343C15.7431 7.89385 16.0987 7.94125 16.4272 8.03566Z" fill="#637878"/>
</g>
<defs>
<clipPath id="clip0_118_261">
<rect width="32" height="32" fill="white"/>
</clipPath>
</defs>
</svg>
