<svg width="32" height="32" viewBox="0 0 32 32" fill="none" xmlns="http://www.w3.org/2000/svg">
    <rect width="32" height="32" fill="#FAFAFA" />
    <path opacity="0.902" fill-rule="evenodd" clip-rule="evenodd"
        d="M13.3334 1.77734C14.815 1.77734 16.2964 1.77734 17.7779 1.77734C20.7319 3.97318 23.843 6.04726 27.1112 7.99957C27.7038 13.3329 27.7038 18.6662 27.1112 23.9996C23.843 25.9518 20.7319 28.026 17.7779 30.2218C16.2964 30.2218 14.815 30.2218 13.3334 30.2218C10.3794 28.026 7.26828 25.9518 4.00011 23.9996C3.40752 18.6662 3.40752 13.3329 4.00011 7.99957C7.26828 6.04726 10.3794 3.97318 13.3334 1.77734ZM15.1112 7.99957C17.6013 9.09703 19.9716 10.4304 22.2223 11.9996C21.5216 14.7335 21.0772 17.5483 20.889 20.444C20.7238 18.3102 20.2794 16.2362 19.5557 14.2218C18.1034 14.6378 17.0663 15.5267 16.4446 16.8885C16.1483 16.5922 15.8519 16.2958 15.5557 15.9996C15.3942 18.4229 14.9498 20.7933 14.2223 23.1107C9.23326 20.7905 7.75177 16.9387 9.77789 11.5551C11.6138 10.3492 13.3916 9.16397 15.1112 7.99957Z"
        fill="#3E78DF" />
</svg>