<svg width="32" height="32" viewBox="0 0 32 32" fill="none" xmlns="http://www.w3.org/2000/svg">
    <g clip-path="url(#clip0_3646_121)">
        <path fill-rule="evenodd" clip-rule="evenodd"
            d="M-0.0800781 -0.0800781C10.5866 -0.0800781 21.2532 -0.0800781 31.9199 -0.0800781C31.9199 10.5866 31.9199 21.2532 31.9199 31.9199C21.2532 31.9199 10.5866 31.9199 -0.0800781 31.9199C-0.0800781 21.2532 -0.0800781 10.5866 -0.0800781 -0.0800781Z"
            fill="#211F61" />
        <path fill-rule="evenodd" clip-rule="evenodd"
            d="M13.6798 5.04004C15.0664 5.04004 16.4531 5.04004 17.8398 5.04004C18.6771 5.30103 19.5303 5.56769 20.3998 5.84004C20.8254 6.15951 21.3054 6.39951 21.8398 6.56004C22.2927 6.88015 22.7193 7.22681 23.1198 7.60004C24.6663 8.93874 25.7863 10.5921 26.4798 12.56C27.5119 16.5224 26.7119 20.0424 24.0798 23.12C20.9284 26.3202 17.1417 27.3869 12.7198 26.32C11.879 25.9538 11.0256 25.5805 10.1598 25.2C6.5772 22.621 4.87052 19.101 5.03977 14.64C5.49934 12.4945 6.35267 10.5211 7.59977 8.72004C8.1331 8.29337 8.6131 7.81337 9.03977 7.28004C10.4884 6.31564 12.035 5.56897 13.6798 5.04004Z"
            fill="#FAFAFB" />
        <path fill-rule="evenodd" clip-rule="evenodd"
            d="M13.6799 5.04004C12.0351 5.56897 10.4885 6.31564 9.03988 7.28004C9.02217 7.18126 8.96884 7.10126 8.87988 7.04004C9.14655 6.88004 9.35988 6.66671 9.51988 6.40004C10.2112 6.11612 10.8512 5.74278 11.4399 5.28004C12.1849 5.17356 12.9315 5.09356 13.6799 5.04004Z"
            fill="#292655" />
        <path fill-rule="evenodd" clip-rule="evenodd"
            d="M17.8398 5.04004C18.7058 5.06407 19.5592 5.17074 20.3998 5.36004C20.3998 5.52004 20.3998 5.68004 20.3998 5.84004C19.5304 5.56769 18.6771 5.30103 17.8398 5.04004Z"
            fill="#3B3862" />
        <path fill-rule="evenodd" clip-rule="evenodd"
            d="M23.1201 7.59961C23.4401 7.59961 23.7601 7.59961 24.0801 7.59961C24.1123 8.21561 24.4056 8.37561 24.9601 8.07961C25.0374 7.92793 25.064 7.76793 25.0401 7.59961C25.2001 7.59961 25.3601 7.59961 25.5201 7.59961C25.6043 8.12886 25.391 8.47553 24.8801 8.63961C25.3968 9.64663 25.9035 10.58 26.4001 11.4396C26.4499 11.7686 26.5299 12.0886 26.6401 12.3996C26.6203 12.4967 26.567 12.55 26.4801 12.5596C25.7867 10.5916 24.6667 8.93831 23.1201 7.59961Z"
            fill="#26245A" />
        <path fill-rule="evenodd" clip-rule="evenodd"
            d="M7.60004 8.71973C6.35293 10.5208 5.49961 12.4942 5.04004 14.6397C5.14172 13.5707 5.27505 12.5041 5.44004 11.4397C5.60004 11.2264 5.76004 11.0131 5.92004 10.7997C5.96754 10.2535 6.0742 9.72016 6.24004 9.19973C6.29337 9.25305 6.34671 9.3064 6.40004 9.35973C6.74966 9.03329 7.14966 8.81995 7.60004 8.71973Z"
            fill="#2B2759" />
        <path fill-rule="evenodd" clip-rule="evenodd"
            d="M12.3998 10.1602C12.323 11.0117 12.2697 11.865 12.2398 12.7202C12.0798 12.7202 11.9198 12.7202 11.7598 12.7202C11.7334 12.1842 11.7601 11.6508 11.8398 11.1202C11.9544 10.7395 12.1411 10.4195 12.3998 10.1602Z"
            fill="#2A2560" />
        <path fill-rule="evenodd" clip-rule="evenodd"
            d="M11.7598 12.7195C11.9198 12.7195 12.0798 12.7195 12.2398 12.7195C12.2696 11.8644 12.3229 11.0111 12.3998 10.1595C12.7805 9.29781 13.4205 8.68447 14.3198 8.31954C17.4609 7.57245 19.4342 8.74578 20.2398 11.8395C20.1166 12.1705 19.9033 12.4372 19.5998 12.6395C17.2748 14.2201 14.9547 15.7934 12.6398 17.3595C12.2574 17.252 12.1774 17.0387 12.3998 16.7195C12.8484 16.4575 13.2751 16.1642 13.6798 15.8395C12.6148 15.0712 11.9748 14.0312 11.7598 12.7195Z"
            fill="#312C59" />
        <path fill-rule="evenodd" clip-rule="evenodd"
            d="M15.2799 14.8003C14.9752 14.8383 14.7619 14.9983 14.6399 15.2803C14.1356 15.3669 13.7356 15.2069 13.4399 14.8003C11.7151 12.2966 12.1684 10.2966 14.7999 8.80031C17.0076 8.29059 18.5276 9.06392 19.3599 11.1203C19.4788 11.4308 19.452 11.7241 19.2799 12.0003C17.9178 12.9117 16.5845 13.8451 15.2799 14.8003Z"
            fill="#F9F9FA" />
        <path fill-rule="evenodd" clip-rule="evenodd"
            d="M15.2801 14.7998C15.2801 14.9598 15.2801 15.1198 15.2801 15.2798C15.0668 15.2798 14.8535 15.2798 14.6401 15.2798C14.7621 14.9978 14.9754 14.8378 15.2801 14.7998Z"
            fill="#434053" />
        <path fill-rule="evenodd" clip-rule="evenodd"
            d="M19.2798 14.1601C19.5602 14.1469 19.7202 14.2802 19.7598 14.5601C19.3378 15.0366 18.8578 15.4366 18.3198 15.7601C20.3923 17.3847 20.7923 19.3581 19.5198 21.6801C18.0736 23.5481 16.2336 24.0548 13.9998 23.2001C12.6313 22.301 11.9113 21.0477 11.8398 19.4401C14.3446 17.6962 16.8246 15.9362 19.2798 14.1601Z"
            fill="#2F2959" />
        <path fill-rule="evenodd" clip-rule="evenodd"
            d="M19.2799 18.0002C19.4005 18.7943 19.4538 19.5943 19.4399 20.4002C18.2125 22.9074 16.3458 23.5474 13.8399 22.3202C13.1764 21.6598 12.6964 20.8865 12.3999 20.0002C12.4414 19.7985 12.548 19.6385 12.7199 19.5202C14.3631 18.4458 15.9897 17.3524 17.5999 16.2402C18.4063 16.5932 18.9663 17.1799 19.2799 18.0002Z"
            fill="#FAFAFA" />
        <path fill-rule="evenodd" clip-rule="evenodd"
            d="M19.2798 18C19.5183 18.4298 19.6249 18.9098 19.5998 19.44C19.599 19.7914 19.5457 20.1114 19.4398 20.4C19.4537 19.5941 19.4004 18.7941 19.2798 18Z"
            fill="#A09DC9" />
        <path fill-rule="evenodd" clip-rule="evenodd"
            d="M10.1599 25.2002C11.0258 25.5807 11.8791 25.954 12.7199 26.3202C11.9619 26.2592 11.2153 26.126 10.4799 25.9202C10.2229 25.7524 10.1162 25.5124 10.1599 25.2002Z"
            fill="#282852" />
        <path fill-rule="evenodd" clip-rule="evenodd"
            d="M24.0802 23.1201C24.2503 23.6249 24.0369 23.9182 23.4402 24.0001C23.5133 24.0664 23.5668 24.1464 23.6002 24.2401C23.41 24.3888 23.1967 24.442 22.9602 24.4001C22.9602 24.5601 22.9602 24.7201 22.9602 24.8801C22.6402 24.9334 22.3202 24.9868 22.0002 25.0401C21.9905 25.3748 21.8305 25.6148 21.5202 25.7601C21.6554 26.0094 21.5489 26.1694 21.2002 26.2401C20.8217 26.33 20.4484 26.3035 20.0802 26.1601C19.6461 26.2273 19.2729 26.414 18.9602 26.7201C17.3666 26.954 15.7667 27.0073 14.1602 26.8801C13.6052 26.7945 13.1252 26.6078 12.7202 26.3201C17.1421 27.387 20.9289 26.3203 24.0802 23.1201Z"
            fill="#322E5B" />
    </g>
    <defs>
        <clipPath id="clip0_3646_121">
            <rect width="32" height="32" fill="white" />
        </clipPath>
    </defs>
</svg>