<svg width="32" height="32" viewBox="0 0 33 33" fill="none" xmlns="http://www.w3.org/2000/svg">
    <path opacity="0.762" fill-rule="evenodd" clip-rule="evenodd"
        d="M22.957 1.87395C22.957 2.55533 22.957 3.2367 22.957 3.91808C15.6801 1.25775 11.4836 3.75612 10.3675 11.4132C9.54024 9.73566 9.08654 7.91864 9.00644 5.9622C7.56314 9.02642 7.79002 11.9791 9.68696 14.8201C11.2762 16.1148 12.7506 17.4776 14.1103 18.9083C11.8419 20.044 9.57352 21.1796 7.30516 22.3152C6.63036 22.1983 6.17666 22.4254 5.94412 22.9966C3.49049 21.3383 1.67579 19.1806 0.5 16.5235C1.37051 13.5981 3.0718 11.2133 5.60387 9.36908C5.84878 7.93281 6.30248 6.57006 6.9649 5.28083C9.24558 3.41274 11.6274 1.93644 14.1103 0.851892C17.2139 0.208089 20.1628 0.548776 22.957 1.87395Z"
        fill="#2564E3" />
    <path opacity="0.297" fill-rule="evenodd" clip-rule="evenodd"
        d="M22.957 1.87402C24.4926 2.59751 25.2866 3.73315 25.3388 5.2809C24.5816 4.73239 23.7877 4.27812 22.957 3.91815C22.957 3.23677 22.957 2.5554 22.957 1.87402Z"
        fill="#10C9FC" />
    <path opacity="0.873" fill-rule="evenodd" clip-rule="evenodd"
        d="M22.2765 5.2803C21.7343 7.81719 21.0538 10.3156 20.2349 12.7754C19.7812 13.0025 19.3276 13.2297 18.8739 13.4568C15.594 12.3353 14.1195 10.064 14.4505 6.64305C16.8006 4.52819 19.4092 4.07399 22.2765 5.2803Z"
        fill="#2564E3" />
    <path opacity="0.843" fill-rule="evenodd" clip-rule="evenodd"
        d="M22.2764 5.28125C25.638 7.50955 28.5869 10.235 31.1231 13.4577C27.3624 13.6767 23.7331 13.4496 20.2349 12.7764C21.0537 10.3165 21.7342 7.81815 22.2764 5.28125Z"
        fill="#0CCFFE" />
    <path opacity="0.948" fill-rule="evenodd" clip-rule="evenodd"
        d="M20.2351 12.7764C23.7332 13.4496 27.3626 13.6767 31.1233 13.4577C32.1394 14.0111 32.5931 14.9196 32.4843 16.1832C32.4711 17.0187 32.2442 17.7001 31.8038 18.2274C29.0818 18.2274 26.3597 18.2274 23.6376 18.2274C22.1815 16.4822 20.5937 14.8923 18.874 13.4577C19.3277 13.2306 19.7814 13.0035 20.2351 12.7764Z"
        fill="#13BAF9" />
    <path opacity="0.82" fill-rule="evenodd" clip-rule="evenodd"
        d="M23.6375 18.2266C26.3595 18.2266 29.0816 18.2266 31.8036 18.2266C30.4426 19.8164 29.0816 21.4063 27.7205 22.9962C27.04 22.9962 26.3595 22.9962 25.679 22.9962C25.3894 21.2115 24.7089 19.6217 23.6375 18.2266Z"
        fill="#2099F1" />
    <path opacity="0.974" fill-rule="evenodd" clip-rule="evenodd"
        d="M14.1103 18.9092C16.1519 19.5906 17.5129 20.9533 18.1934 22.9974C14.4328 23.2164 10.8034 22.9893 7.30518 22.3161C9.57354 21.1804 11.842 20.0448 14.1103 18.9092Z"
        fill="#258BED" />
    <path opacity="0.887" fill-rule="evenodd" clip-rule="evenodd"
        d="M7.30512 22.3159C10.8033 22.9892 14.4327 23.2163 18.1934 22.9973C19.3128 26.5589 17.8383 28.3759 13.77 28.4483C10.315 27.8248 7.70636 26.0078 5.94409 22.9973C6.17662 22.4262 6.63032 22.199 7.30512 22.3159Z"
        fill="#2D78E6" />
    <path opacity="0.625" fill-rule="evenodd" clip-rule="evenodd"
        d="M25.679 22.9963C26.3596 22.9963 27.0401 22.9963 27.7206 22.9963C25.7868 28.6204 21.8171 31.8002 15.8116 32.5355C13.5087 32.1454 11.3537 31.3505 9.34667 30.1507C8.10181 29.3921 7.53473 28.3701 7.64539 27.0845C15.95 31.9376 21.0539 29.8935 22.957 20.9521C23.516 22.9598 23.8562 25.0039 23.9778 27.0845C24.6163 25.7296 25.1834 24.3669 25.679 22.9963Z"
        fill="#336AE0" />
</svg>