<svg width="32" height="32" viewBox="0 0 33 33" fill="none" xmlns="http://www.w3.org/2000/svg">
    <path fill-rule="evenodd" clip-rule="evenodd"
        d="M0.928711 0.928711C11.5954 0.928711 22.262 0.928711 32.9287 0.928711C32.9287 11.5954 32.9287 22.262 32.9287 32.9287C22.262 32.9287 11.5954 32.9287 0.928711 32.9287C0.928711 22.262 0.928711 11.5954 0.928711 0.928711Z"
        fill="#FEFEFE" />
    <path
        d="M29.3999 4.60969C27.6314 2.84127 25.0209 2.67285 20.9788 2.67285H13.063C9.02092 2.67285 6.4104 2.84127 4.64198 4.60969C2.36829 6.88338 2.68829 10.6729 2.68829 16.9886C2.68829 23.3044 2.43566 27.0939 4.70934 29.3676C6.47776 31.136 9.1725 31.3044 13.1304 31.3044H20.8778C24.9199 31.3044 27.6146 31.136 29.383 29.3676C31.6736 27.0939 31.3199 23.2202 31.3199 16.9886C31.3199 10.7571 31.6736 6.88338 29.3999 4.60969ZM30.0736 19.1781C30.0736 23.8097 30.1578 26.9255 28.4736 28.5255C27.1262 29.8729 24.9367 30.1255 20.8946 30.1255H13.063C9.02092 30.1255 6.91566 29.8729 5.56829 28.5255C3.88408 26.8413 3.88408 23.8097 3.88408 18.7571V14.8834C3.88408 10.0834 3.79987 7.22022 5.48408 5.53601C6.83145 4.18864 9.02092 3.93601 13.063 3.93601H20.9788C25.0209 3.93601 27.2104 4.18864 28.5578 5.53601C30.1578 7.13601 30.0736 10.2518 30.0736 14.8834V19.1781ZM19.9683 13.8729L17.6946 15.6413V8.6518C17.6941 8.56719 17.6756 8.48365 17.6404 8.4067C17.6052 8.32975 17.5541 8.26115 17.4904 8.20543C17.4268 8.14972 17.352 8.10815 17.271 8.08348C17.1901 8.05881 17.1049 8.0516 17.0209 8.06233C16.8525 8.06233 16.7683 8.14654 16.5999 8.23075L9.42513 13.9571C9.01321 14.2447 8.67085 14.6209 8.42314 15.058C8.17544 15.4952 8.02866 15.9822 7.99355 16.4834C7.93716 16.9926 7.98256 17.508 8.12713 17.9995C8.27169 18.491 8.51254 18.9489 8.83566 19.3465C9.12333 19.7585 9.49951 20.1008 9.93664 20.3485C10.3738 20.5962 10.8608 20.743 11.362 20.7781C11.8712 20.8345 12.3866 20.7891 12.8781 20.6445C13.3696 20.5 13.8275 20.2591 14.2251 19.936L16.4146 18.2518V25.2413C16.4074 25.4078 16.4647 25.5707 16.5744 25.6962C16.6842 25.8216 16.8381 25.9 17.0041 25.915C17.1725 25.915 17.2567 25.8307 17.4251 25.7465L24.7514 19.936C25.5462 19.3042 26.0618 18.3862 26.1877 17.3787C26.3137 16.3712 26.0399 15.3545 25.4251 14.5465C24.7784 13.7461 23.8459 13.2284 22.8245 13.1027C21.8032 12.977 20.773 13.2531 19.9514 13.8729H19.9683ZM16.4314 16.6518L13.4841 19.0097C13.2178 19.2303 12.9063 19.3899 12.5717 19.4772C12.2371 19.5645 11.8874 19.5774 11.5472 19.515C10.8882 19.4325 10.2856 19.101 9.86303 18.5886C9.43073 18.0397 9.22035 17.3485 9.27355 16.6518C9.35606 15.9927 9.68746 15.3902 10.1999 14.9676L16.4314 9.99917V16.6518ZM24.9367 17.2413C24.8542 17.9003 24.5228 18.5029 24.0104 18.9255L17.6946 23.8939V17.2413L20.7262 14.7992C20.9888 14.5824 21.2924 14.4209 21.619 14.3244C21.9455 14.228 22.2882 14.1985 22.6265 14.2378C22.9647 14.2772 23.2915 14.3845 23.5872 14.5533C23.8829 14.7221 24.1414 14.949 24.3472 15.2202C24.5804 15.4977 24.7533 15.8207 24.8547 16.1687C24.9562 16.5167 24.9841 16.8819 24.9367 17.2413Z"
        fill="black" />
</svg>