<svg width="32" height="32" viewBox="0 0 33 33" fill="none" xmlns="http://www.w3.org/2000/svg">
    <path opacity="0.989" fill-rule="evenodd" clip-rule="evenodd"
        d="M11.3672 0.5C17.6691 0.5 23.9712 0.5 30.2731 0.5C32.2213 1.20002 32.8912 2.42753 32.2828 4.18254C29.8749 6.85302 27.4682 9.51968 25.0628 12.1825C24.9635 12.2249 24.8644 12.2672 24.7651 12.3095C23.8277 11.9611 22.8352 11.7283 21.7878 11.6111C20.2991 11.5265 18.8105 11.5265 17.3218 11.6111C17.0241 11.7381 16.7264 11.8651 16.4286 11.9921C13.6676 14.918 10.9384 17.8597 8.24101 20.8175C8.14177 20.8175 8.04253 20.8175 7.94328 20.8175C3.8475 19.186 1.36641 16.477 0.5 12.6905C0.5 11.5899 0.5 10.4894 0.5 9.38889C1.78815 4.35365 5.41054 1.39068 11.3672 0.5Z"
        fill="#B4EBF5" />
    <path fill-rule="evenodd" clip-rule="evenodd"
        d="M24.7653 12.3098C22.0747 15.3042 19.2958 18.246 16.4288 21.1352C15.5374 21.5049 14.5946 21.653 13.6004 21.5796C11.7485 21.6252 9.96207 21.3712 8.24121 20.8177C10.9386 17.86 13.6678 14.9183 16.4288 11.9923C16.7266 11.8653 17.0243 11.7383 17.322 11.6113C18.8107 11.5267 20.2993 11.5267 21.788 11.6113C22.8354 11.7286 23.8279 11.9614 24.7653 12.3098Z"
        fill="#2294AA" />
    <path opacity="0.989" fill-rule="evenodd" clip-rule="evenodd"
        d="M25.0628 12.1826C31.2863 15.0001 33.5937 19.36 31.9851 25.262C30.1661 29.3749 26.7175 31.7876 21.6389 32.5001C15.3369 32.5001 9.03496 32.5001 2.73299 32.5001C1.70007 32.1692 0.955746 31.5767 0.5 30.7223C0.5 30.1721 0.5 29.6217 0.5 29.0715C2.94336 26.3022 5.42446 23.5509 7.94328 20.8175C8.04253 20.8175 8.14177 20.8175 8.24101 20.8175C9.96187 21.3711 11.7483 21.625 13.6002 21.5794C14.5944 21.6528 15.5372 21.5048 16.4286 21.135C19.2956 18.2459 22.0745 15.304 24.7651 12.3096C24.8644 12.2673 24.9635 12.2249 25.0628 12.1826Z"
        fill="#E47C23" />
</svg>