<svg width="32" height="32" viewBox="0 0 32 32" fill="none" xmlns="http://www.w3.org/2000/svg">
<g clip-path="url(#clip0_4573_45)">
<path opacity="0.01" fill-rule="evenodd" clip-rule="evenodd" d="M5.24561 3.04497C5.27667 2.96478 5.32877 2.95173 5.40208 3.00585C5.35561 3.04215 5.30342 3.05522 5.24561 3.04497Z" fill="#5678D0"/>
<path opacity="0.01" fill-rule="evenodd" clip-rule="evenodd" d="M26.6016 3.04497C26.6326 2.96478 26.6847 2.95173 26.758 3.00585C26.7116 3.04215 26.6594 3.05522 26.6016 3.04497Z" fill="#5678D0"/>
<path opacity="0.016" fill-rule="evenodd" clip-rule="evenodd" d="M4.30713 3.12321C4.42026 3.03613 4.55069 3.02306 4.69833 3.08409C4.57048 3.12274 4.44006 3.13573 4.30713 3.12321Z" fill="#5677CC"/>
<path opacity="0.01" fill-rule="evenodd" clip-rule="evenodd" d="M6.34091 3.12321C6.20798 3.13573 6.07755 3.12274 5.94971 3.08409C6.09735 3.02306 6.22777 3.03613 6.34091 3.12321Z" fill="#4562C2"/>
<path opacity="0.01" fill-rule="evenodd" clip-rule="evenodd" d="M25.6631 3.12321C25.7762 3.03613 25.9066 3.02306 26.0543 3.08409C25.9264 3.12274 25.796 3.13573 25.6631 3.12321Z" fill="#4D6BC7"/>
<path opacity="0.01" fill-rule="evenodd" clip-rule="evenodd" d="M27.6969 3.12321C27.5639 3.13573 27.4335 3.12274 27.3057 3.08409C27.4533 3.02306 27.5837 3.03613 27.6969 3.12321Z" fill="#4D6CC7"/>
<path opacity="0.01" fill-rule="evenodd" clip-rule="evenodd" d="M3.99414 3.20151C4.0529 3.11755 4.13114 3.10449 4.22886 3.16239C4.15469 3.20018 4.07645 3.21316 3.99414 3.20151Z" fill="#4A69C6"/>
<path opacity="0.016" fill-rule="evenodd" clip-rule="evenodd" d="M6.34082 3.20129C6.34082 3.17523 6.34082 3.1491 6.34082 3.12305C6.65378 3.1491 6.65378 3.17523 6.34082 3.20129Z" fill="#314DB4"/>
<path opacity="0.016" fill-rule="evenodd" clip-rule="evenodd" d="M25.6629 3.12305C25.6629 3.1491 25.6629 3.17523 25.6629 3.20129C25.35 3.17523 25.35 3.1491 25.6629 3.12305Z" fill="#3F5BBD"/>
<path opacity="0.016" fill-rule="evenodd" clip-rule="evenodd" d="M27.6968 3.20129C27.6968 3.17523 27.6968 3.1491 27.6968 3.12305C28.0097 3.1491 28.0097 3.17523 27.6968 3.20129Z" fill="#314DB4"/>
<path opacity="0.01" fill-rule="evenodd" clip-rule="evenodd" d="M3.68115 3.27963C3.73991 3.19568 3.81815 3.18261 3.91587 3.24051C3.8417 3.2783 3.76346 3.29129 3.68115 3.27963Z" fill="#5678D0"/>
<path opacity="0.994" fill-rule="evenodd" clip-rule="evenodd" d="M6.34103 3.20138C6.42458 3.27446 6.52885 3.30059 6.65394 3.27962C6.7949 3.35458 6.95136 3.40677 7.1233 3.43611C7.93584 3.77968 8.63988 4.27528 9.23543 4.92275C9.25185 5.26922 9.33008 5.5822 9.47011 5.86169C6.92163 7.26257 4.78346 9.14044 3.0555 11.4953C3.02875 11.4297 2.97665 11.4036 2.89905 11.417C2.81973 11.3252 2.71545 11.2731 2.58614 11.2605C1.95814 10.6064 1.33232 9.95441 0.708696 9.30444C0.632456 9.12487 0.528156 8.96838 0.395789 8.83497C0.403447 8.67434 0.351301 8.5439 0.239335 8.44375C0.257898 8.34274 0.231825 8.26449 0.161108 8.20902C0.143452 7.63189 0.169525 7.05812 0.239335 6.48764C1.1707 4.59914 2.68306 3.49065 4.77649 3.16226C5.29936 3.11954 5.8209 3.13252 6.34103 3.20138Z" fill="#26489D"/>
<path opacity="0.01" fill-rule="evenodd" clip-rule="evenodd" d="M6.65381 3.27963C6.71257 3.19568 6.79081 3.18261 6.88853 3.24051C6.81436 3.2783 6.73612 3.29129 6.65381 3.27963Z" fill="#5678D0"/>
<path opacity="0.993" fill-rule="evenodd" clip-rule="evenodd" d="M27.6971 3.20127C27.9428 3.30221 28.2036 3.38045 28.4793 3.436C28.7515 3.5849 29.0383 3.71534 29.3398 3.82723C29.4732 3.95962 29.6296 4.06392 29.8092 4.1402C30.2765 4.58142 30.7459 5.02476 31.2173 5.47036C31.3087 5.70595 31.4391 5.91463 31.6084 6.09631C31.6007 6.25695 31.6529 6.38738 31.7648 6.48753C31.7426 6.63737 31.7687 6.76773 31.8431 6.87876C31.8504 7.37662 31.8243 7.87215 31.7648 8.3654C31.6941 8.42087 31.6681 8.49912 31.6866 8.60013C31.6211 8.62689 31.5949 8.679 31.6084 8.75662C31.5428 8.78338 31.5167 8.83549 31.5302 8.91311C31.4646 8.93987 31.4385 8.99198 31.4519 9.0696C31.3998 9.0696 31.3737 9.09565 31.3737 9.14784C31.3082 9.1746 31.282 9.22671 31.2955 9.30433C31.2433 9.30433 31.2173 9.33039 31.2173 9.38257C30.5675 9.98036 29.9417 10.6063 29.3398 11.2604C29.2876 11.2604 29.2616 11.2865 29.2616 11.3387C29.184 11.3252 29.1319 11.3514 29.1051 11.4169C29.0473 11.4067 28.9951 11.4197 28.9487 11.456C29.0075 11.5086 29.0336 11.5737 29.0269 11.6517C27.4392 9.12452 25.3271 7.16842 22.6905 5.78333C22.6905 5.75728 22.6905 5.73115 22.6905 5.70509C22.6905 5.6529 22.6645 5.62685 22.6123 5.62685C22.6123 5.47036 22.6123 5.31387 22.6123 5.15738C23.0597 4.51625 23.6333 4.02065 24.3333 3.67074C24.5147 3.63224 24.6712 3.554 24.8027 3.436C25.1075 3.39258 25.3943 3.31433 25.6632 3.20127C26.3411 3.09697 27.0191 3.09697 27.6971 3.20127Z" fill="#26489D"/>
<path opacity="0.01" fill-rule="evenodd" clip-rule="evenodd" d="M7.12305 3.43609C7.15411 3.3559 7.20622 3.34283 7.27953 3.39697C7.23305 3.43328 7.18087 3.44634 7.12305 3.43609Z" fill="#0C1676"/>
<path opacity="0.016" fill-rule="evenodd" clip-rule="evenodd" d="M24.8028 3.43613C24.7506 3.33184 24.7506 3.33184 24.8028 3.43613Z" fill="#5777CA"/>
<path opacity="0.016" fill-rule="evenodd" clip-rule="evenodd" d="M28.479 3.43609C28.5101 3.3559 28.5622 3.34283 28.6355 3.39697C28.589 3.43328 28.5368 3.44634 28.479 3.43609Z" fill="#5677CB"/>
<path opacity="0.01" fill-rule="evenodd" clip-rule="evenodd" d="M3.05566 3.51422C3.08673 3.43402 3.13883 3.42096 3.21214 3.4751C3.16567 3.5114 3.11348 3.52447 3.05566 3.51422Z" fill="#5678D0"/>
<path opacity="0.01" fill-rule="evenodd" clip-rule="evenodd" d="M24.4897 3.43604C24.594 3.48822 24.594 3.48822 24.4897 3.43604Z" fill="#5678D0"/>
<path opacity="0.01" fill-rule="evenodd" clip-rule="evenodd" d="M28.792 3.43604C28.8963 3.48822 28.8963 3.48822 28.792 3.43604Z" fill="#5678D0"/>
<path opacity="0.016" fill-rule="evenodd" clip-rule="evenodd" d="M24.333 3.51416C24.4373 3.56635 24.4373 3.56635 24.333 3.51416Z" fill="#213FAB"/>
<path opacity="0.01" fill-rule="evenodd" clip-rule="evenodd" d="M24.3333 3.59277C24.3333 3.61883 24.3333 3.64496 24.3333 3.67101C24.1246 3.64496 24.1246 3.61883 24.3333 3.59277Z" fill="#5678D0"/>
<path opacity="0.01" fill-rule="evenodd" clip-rule="evenodd" d="M24.0205 3.6709C24.1248 3.72308 24.1248 3.72308 24.0205 3.6709Z" fill="#5678D0"/>
<path opacity="0.016" fill-rule="evenodd" clip-rule="evenodd" d="M29.3398 3.74902C29.4441 3.80121 29.4441 3.80121 29.3398 3.74902Z" fill="#213FAB"/>
<path opacity="0.01" fill-rule="evenodd" clip-rule="evenodd" d="M23.6289 3.90576C23.7332 3.95795 23.7332 3.95795 23.6289 3.90576Z" fill="#5678D0"/>
<path opacity="0.01" fill-rule="evenodd" clip-rule="evenodd" d="M15.0244 4.1403C15.1375 4.05322 15.268 4.04015 15.4156 4.10118C15.2878 4.13983 15.1573 4.15282 15.0244 4.1403Z" fill="#77A1FC"/>
<path opacity="0.01" fill-rule="evenodd" clip-rule="evenodd" d="M16.8232 4.14032C16.9631 4.05254 17.1196 4.03947 17.2927 4.1012C17.1383 4.13993 16.9818 4.153 16.8232 4.14032Z" fill="#759FFA"/>
<path opacity="0.016" fill-rule="evenodd" clip-rule="evenodd" d="M29.8091 4.06201C29.9134 4.1142 29.9134 4.1142 29.8091 4.06201Z" fill="#213FAB"/>
<path opacity="0.016" fill-rule="evenodd" clip-rule="evenodd" d="M14.2417 4.21845C14.3816 4.13066 14.5381 4.1176 14.7111 4.17933C14.5568 4.21806 14.4003 4.23112 14.2417 4.21845Z" fill="#6589E2"/>
<path opacity="0.01" fill-rule="evenodd" clip-rule="evenodd" d="M17.6055 4.21845C17.7454 4.13066 17.9018 4.1176 18.0749 4.17933C17.9205 4.21806 17.7641 4.23112 17.6055 4.21845Z" fill="#6287DF"/>
<path opacity="0.01" fill-rule="evenodd" clip-rule="evenodd" d="M23.3164 4.14014C23.4207 4.19232 23.4207 4.19232 23.3164 4.14014Z" fill="#5678D0"/>
<path opacity="0.01" fill-rule="evenodd" clip-rule="evenodd" d="M29.9653 4.14014C30.0696 4.19232 30.0696 4.19232 29.9653 4.14014Z" fill="#5678D0"/>
<path opacity="0.016" fill-rule="evenodd" clip-rule="evenodd" d="M14.1637 4.29704C14.0307 4.30956 13.9003 4.29657 13.7725 4.25792C13.9201 4.19689 14.0505 4.20996 14.1637 4.29704Z" fill="#6184E0"/>
<path opacity="0.01" fill-rule="evenodd" clip-rule="evenodd" d="M18.1533 4.29704C18.2665 4.20996 18.3969 4.19689 18.5445 4.25792C18.4167 4.29657 18.2862 4.30956 18.1533 4.29704Z" fill="#698EEB"/>
<path opacity="0.01" fill-rule="evenodd" clip-rule="evenodd" d="M13.3032 4.37506C13.3343 4.29486 13.3864 4.2818 13.4597 4.33594C13.4132 4.37224 13.361 4.38531 13.3032 4.37506Z" fill="#6E95F3"/>
<path opacity="0.01" fill-rule="evenodd" clip-rule="evenodd" d="M18.8574 4.37485C18.9162 4.29089 18.9944 4.27783 19.0921 4.33573C19.018 4.37352 18.9397 4.3865 18.8574 4.37485Z" fill="#688EEE"/>
<path opacity="0.58" fill-rule="evenodd" clip-rule="evenodd" d="M14.1638 4.29688C14.3463 4.29688 14.5289 4.29688 14.7114 4.29688C14.2392 4.45969 13.7438 4.53793 13.2251 4.53159C13.538 4.45335 13.8509 4.37511 14.1638 4.29688Z" fill="#546FC2"/>
<path fill-rule="evenodd" clip-rule="evenodd" d="M14.7114 4.29689C14.7374 4.29689 14.7635 4.29689 14.7896 4.29689C15.6244 4.28383 16.4589 4.29689 17.2928 4.33602C18.4236 4.49196 19.5448 4.68757 20.6566 4.92285C21.3112 5.24983 21.9891 5.53668 22.6905 5.78354C25.3271 7.16862 27.4392 9.12473 29.0269 11.6519C29.0529 11.6519 29.0791 11.6519 29.1051 11.6519C29.1051 11.7041 29.1051 11.7562 29.1051 11.8084C29.0994 11.9278 29.1516 12.0061 29.2616 12.0431C29.2404 12.1902 29.2925 12.2945 29.418 12.3561C29.4305 12.4854 29.4826 12.5897 29.5745 12.669C29.6354 12.9073 29.7398 13.1159 29.8874 13.295C29.8576 13.467 29.9098 13.5974 30.0438 13.6862C30.1594 14.1247 30.3158 14.542 30.5132 14.9381C30.505 15.2322 30.5832 15.493 30.7479 15.7206C30.8565 16.5023 30.9739 17.2848 31.0999 18.0679C31.1704 19.092 31.1313 20.1092 30.9825 21.1194C30.8525 21.2711 30.8004 21.4537 30.8261 21.6671C30.4486 22.4878 30.0053 23.2702 29.4962 24.0145C29.0529 24.4057 28.6357 24.823 28.2446 25.2664C27.6366 25.6885 27.0107 26.0927 26.3672 26.4792C25.6845 26.8144 25.0066 27.1404 24.3333 27.4572C23.9627 27.5251 23.5976 27.6164 23.2381 27.7311C23.1156 27.7786 23.0112 27.8439 22.9252 27.9267C21.9362 28.1217 20.9453 28.3174 19.9526 28.5135C19.482 28.5467 19.0127 28.5858 18.5445 28.6309C17.1376 28.6986 15.7295 28.7248 14.3202 28.7091C13.9515 28.7206 13.5864 28.6946 13.225 28.6309C12.0843 28.4669 10.9369 28.2843 9.78306 28.0832C9.60471 27.9484 9.39608 27.8962 9.15725 27.9267C7.92823 27.4822 6.70272 27.0127 5.48059 26.5183C5.44358 26.4083 5.36536 26.3561 5.2459 26.3618C5.19248 26.2307 5.08812 26.1785 4.933 26.2053C4.83115 26.0236 4.67469 25.9193 4.46364 25.8923C4.42663 25.7823 4.34841 25.7301 4.22895 25.7358C4.19195 25.6258 4.11373 25.5736 3.99427 25.5794C3.93467 25.4415 3.83031 25.3632 3.68137 25.3446C3.59649 25.1813 3.46616 25.077 3.29023 25.0316C2.92515 24.6144 2.53401 24.2231 2.11683 23.858C1.38369 22.8608 0.862148 21.7654 0.552291 20.5717C0.485728 19.7128 0.459647 18.8521 0.474064 17.9897C0.474064 17.9636 0.474064 17.9375 0.474064 17.9114C0.6308 17.5182 0.709058 17.101 0.708745 16.6595C0.982852 15.8245 1.28277 14.9899 1.60835 14.1557C2.03195 13.2296 2.5143 12.3428 3.05555 11.4954C4.78351 9.14053 6.92168 7.26267 9.47016 5.86178C10.4195 5.5107 11.3582 5.14561 12.2863 4.76636C12.5252 4.7968 12.7338 4.74469 12.9121 4.60987C12.9957 4.53679 13.1 4.51066 13.225 4.53163C13.7438 4.53796 14.2392 4.45972 14.7114 4.29689Z" fill="#FEFEFE"/>
<path opacity="0.016" fill-rule="evenodd" clip-rule="evenodd" d="M19.4834 4.45341C19.3759 4.4657 19.2716 4.45263 19.1704 4.41429C19.2929 4.35444 19.3972 4.36751 19.4834 4.45341Z" fill="#668BE5"/>
<path opacity="0.01" fill-rule="evenodd" clip-rule="evenodd" d="M19.4829 4.53136C19.4829 4.50531 19.4829 4.47918 19.4829 4.45312C19.6916 4.47918 19.6916 4.50531 19.4829 4.53136Z" fill="#7AA5FF"/>
<path opacity="0.01" fill-rule="evenodd" clip-rule="evenodd" d="M12.2861 4.60992C12.3172 4.52973 12.3693 4.51666 12.4426 4.5708C12.3961 4.60711 12.344 4.62017 12.2861 4.60992Z" fill="#5678D0"/>
<path opacity="0.01" fill-rule="evenodd" clip-rule="evenodd" d="M19.874 4.60971C19.9328 4.52576 20.011 4.51269 20.1087 4.57059C20.0346 4.60838 19.9563 4.62137 19.874 4.60971Z" fill="#6388E3"/>
<path opacity="0.016" fill-rule="evenodd" clip-rule="evenodd" d="M12.0518 4.68805C12.0828 4.60785 12.1349 4.59479 12.2082 4.64893C12.1618 4.68523 12.1096 4.6983 12.0518 4.68805Z" fill="#6C92EC"/>
<path opacity="0.01" fill-rule="evenodd" clip-rule="evenodd" d="M11.8169 4.76617C11.848 4.68598 11.9001 4.67291 11.9734 4.72705C11.9269 4.76336 11.8747 4.77642 11.8169 4.76617Z" fill="#749DF9"/>
<path opacity="0.941" fill-rule="evenodd" clip-rule="evenodd" d="M12.9119 4.60979C12.7336 4.7446 12.525 4.7967 12.2861 4.76627C12.469 4.64578 12.6777 4.59367 12.9119 4.60979Z" fill="#6277C3"/>
<path opacity="0.612" fill-rule="evenodd" clip-rule="evenodd" d="M14.7896 4.29694C15.8983 4.20571 17.0196 4.20571 18.1533 4.29694C18.5795 4.41586 19.0227 4.4941 19.4832 4.53165C19.752 4.64471 20.0388 4.72295 20.3437 4.76637C20.4479 4.81856 20.5523 4.87067 20.6566 4.92285C19.5448 4.68759 18.4236 4.49199 17.2928 4.33606C16.4588 4.29694 15.6244 4.28387 14.7896 4.29694Z" fill="#5B73C4"/>
<path opacity="0.01" fill-rule="evenodd" clip-rule="evenodd" d="M20.3438 4.76617C20.3748 4.68598 20.4269 4.67291 20.5002 4.72705C20.4538 4.76336 20.4016 4.77642 20.3438 4.76617Z" fill="#7AA5FF"/>
<path opacity="0.01" fill-rule="evenodd" clip-rule="evenodd" d="M9.31359 4.92261C9.28754 4.92261 9.26141 4.92261 9.23535 4.92261C9.26141 4.71395 9.28754 4.71395 9.31359 4.92261Z" fill="#5678D0"/>
<path opacity="0.016" fill-rule="evenodd" clip-rule="evenodd" d="M11.5039 4.84479C11.535 4.76459 11.5871 4.75152 11.6604 4.80567C11.6139 4.84197 11.5617 4.85504 11.5039 4.84479Z" fill="#668AE7"/>
<path opacity="0.01" fill-rule="evenodd" clip-rule="evenodd" d="M20.8913 4.84479C20.8335 4.85504 20.7813 4.84197 20.7349 4.80567C20.8082 4.75152 20.8603 4.76459 20.8913 4.84479Z" fill="#739BF5"/>
<path opacity="0.01" fill-rule="evenodd" clip-rule="evenodd" d="M11.5042 4.84473C11.5042 4.87078 11.5042 4.89691 11.5042 4.92297C11.2955 4.89691 11.2955 4.87078 11.5042 4.84473Z" fill="#6E95ED"/>
<path opacity="0.01" fill-rule="evenodd" clip-rule="evenodd" d="M20.8911 4.92297C20.8911 4.89691 20.8911 4.87078 20.8911 4.84473C21.0998 4.87078 21.0998 4.89691 20.8911 4.92297Z" fill="#6286E1"/>
<path opacity="0.016" fill-rule="evenodd" clip-rule="evenodd" d="M9.31348 4.92285C9.41777 4.97504 9.41777 4.97504 9.31348 4.92285Z" fill="#213FAB"/>
<path opacity="0.01" fill-rule="evenodd" clip-rule="evenodd" d="M11.1128 4.92285C11.2171 4.97504 11.2171 4.97504 11.1128 4.92285Z" fill="#688EEE"/>
<path opacity="0.01" fill-rule="evenodd" clip-rule="evenodd" d="M21.2041 4.92285C21.3084 4.97504 21.3084 4.97504 21.2041 4.92285Z" fill="#688EEE"/>
<path opacity="0.01" fill-rule="evenodd" clip-rule="evenodd" d="M9.47034 5.78326C9.3813 5.56387 9.36823 5.32916 9.43122 5.0791C9.4489 5.28213 9.48802 5.47773 9.54858 5.6659C9.50507 5.69586 9.47902 5.73498 9.47034 5.78326Z" fill="#5B7ED7"/>
<path opacity="0.01" fill-rule="evenodd" clip-rule="evenodd" d="M21.5171 5.15777C21.5482 5.07758 21.6003 5.06451 21.6736 5.11865C21.6271 5.15496 21.5749 5.16802 21.5171 5.15777Z" fill="#7AA5FF"/>
<path opacity="0.016" fill-rule="evenodd" clip-rule="evenodd" d="M22.6124 5.15746C22.5322 5.12639 22.5191 5.07429 22.5732 5.00098C22.6095 5.04745 22.6226 5.09964 22.6124 5.15746Z" fill="#3652B7"/>
<path opacity="0.01" fill-rule="evenodd" clip-rule="evenodd" d="M10.4868 5.15771C10.5911 5.2099 10.5911 5.2099 10.4868 5.15771Z" fill="#5678D0"/>
<path opacity="0.01" fill-rule="evenodd" clip-rule="evenodd" d="M21.8301 5.15771C21.9344 5.2099 21.9344 5.2099 21.8301 5.15771Z" fill="#7AA5FF"/>
<path opacity="0.016" fill-rule="evenodd" clip-rule="evenodd" d="M10.3306 5.23584C10.4349 5.28803 10.4349 5.28803 10.3306 5.23584Z" fill="#6589E4"/>
<path opacity="0.01" fill-rule="evenodd" clip-rule="evenodd" d="M22.0645 5.31406C22.0123 5.20977 22.0123 5.20977 22.0645 5.31406Z" fill="#7AA5FF"/>
<path opacity="0.01" fill-rule="evenodd" clip-rule="evenodd" d="M22.4556 5.5488C22.3773 5.44795 22.3904 5.34365 22.4947 5.23584C22.5546 5.35836 22.5415 5.46266 22.4556 5.5488Z" fill="#597BD3"/>
<path opacity="0.01" fill-rule="evenodd" clip-rule="evenodd" d="M10.2525 5.39218C10.2003 5.28789 10.2003 5.28789 10.2525 5.39218Z" fill="#7AA5FF"/>
<path opacity="0.01" fill-rule="evenodd" clip-rule="evenodd" d="M22.0645 5.3922C22.0645 5.36615 22.0645 5.34002 22.0645 5.31396C22.2731 5.34002 22.2731 5.36615 22.0645 5.3922Z" fill="#749DF9"/>
<path opacity="0.01" fill-rule="evenodd" clip-rule="evenodd" d="M9.93945 5.39209C10.0437 5.44428 10.0437 5.44428 9.93945 5.39209Z" fill="#7AA5FF"/>
<path fill-rule="evenodd" clip-rule="evenodd" d="M12.2864 4.76611C11.3583 5.14534 10.4196 5.51041 9.47021 5.86147C9.47021 5.83541 9.47021 5.80928 9.47021 5.78323C9.59952 5.77071 9.7038 5.7186 9.78312 5.62675C9.96453 5.58826 10.121 5.51002 10.2525 5.39203C10.6913 5.27624 11.1085 5.11976 11.5041 4.92259C11.7648 4.87041 12.0257 4.8183 12.2864 4.76611Z" fill="#7A8ED1"/>
<path opacity="0.016" fill-rule="evenodd" clip-rule="evenodd" d="M31.2955 5.47031C31.2433 5.36602 31.2433 5.36602 31.2955 5.47031Z" fill="#213FAB"/>
<path opacity="0.01" fill-rule="evenodd" clip-rule="evenodd" d="M9.7832 5.4707C9.8875 5.52289 9.8875 5.52289 9.7832 5.4707Z" fill="#688EEE"/>
<path opacity="0.753" fill-rule="evenodd" clip-rule="evenodd" d="M20.6567 4.92285C20.735 4.92285 20.8132 4.92285 20.8914 4.92285C21.082 5.03012 21.2906 5.10836 21.5172 5.15757C21.6853 5.25427 21.8678 5.33251 22.0648 5.39229C22.1767 5.47342 22.3071 5.52561 22.456 5.54877C22.4827 5.61433 22.5348 5.64047 22.6124 5.62701C22.6646 5.62701 22.6906 5.65306 22.6906 5.70525C22.6906 5.7313 22.6906 5.75743 22.6906 5.78349C21.9893 5.53664 21.3113 5.24981 20.6567 4.92285Z" fill="#6579C7"/>
<path opacity="0.01" fill-rule="evenodd" clip-rule="evenodd" d="M31.2954 5.4707C31.3997 5.52289 31.3997 5.52289 31.2954 5.4707Z" fill="#5678D0"/>
<path opacity="0.01" fill-rule="evenodd" clip-rule="evenodd" d="M9.78296 5.54883C9.78296 5.57488 9.78296 5.60101 9.78296 5.62707C9.5743 5.60101 9.5743 5.57488 9.78296 5.54883Z" fill="#749DF9"/>
<path opacity="0.016" fill-rule="evenodd" clip-rule="evenodd" d="M0.317383 5.93994C0.4217 5.99213 0.4217 5.99213 0.317383 5.93994Z" fill="#5777CA"/>
<path opacity="0.01" fill-rule="evenodd" clip-rule="evenodd" d="M31.6084 6.09642C31.5981 6.0386 31.6112 5.98642 31.6475 5.93994C31.7016 6.01325 31.6886 6.06536 31.6084 6.09642Z" fill="#5678D0"/>
<path opacity="0.01" fill-rule="evenodd" clip-rule="evenodd" d="M0.239258 6.09668C0.343575 6.14887 0.343575 6.14887 0.239258 6.09668Z" fill="#5678D0"/>
<path opacity="0.01" fill-rule="evenodd" clip-rule="evenodd" d="M0.239372 6.48755C0.213295 6.48755 0.18721 6.48755 0.161133 6.48755C0.18721 6.27889 0.213295 6.27889 0.239372 6.48755Z" fill="#5677CD"/>
<path opacity="0.01" fill-rule="evenodd" clip-rule="evenodd" d="M31.7646 6.48753C31.7544 6.42971 31.7674 6.37753 31.8037 6.33105C31.8579 6.40437 31.8448 6.45647 31.7646 6.48753Z" fill="#4764C3"/>
<path opacity="0.016" fill-rule="evenodd" clip-rule="evenodd" d="M0.161182 6.48779C0.171432 6.54561 0.158389 6.5978 0.122062 6.64427C0.0679441 6.57096 0.0809867 6.51885 0.161182 6.48779Z" fill="#213FAB"/>
<path opacity="0.01" fill-rule="evenodd" clip-rule="evenodd" d="M31.921 6.87886C31.895 6.87886 31.8688 6.87886 31.8428 6.87886C31.8688 6.46161 31.895 6.46161 31.921 6.87886Z" fill="#5678D0"/>
<path opacity="0.01" fill-rule="evenodd" clip-rule="evenodd" d="M0.0046069 6.72266C0.0916798 6.83579 0.104722 6.96622 0.0437267 7.11385C0.00511546 6.98601 -0.00792708 6.85559 0.0046069 6.72266Z" fill="#5678D0"/>
<path opacity="0.016" fill-rule="evenodd" clip-rule="evenodd" d="M31.9214 6.87891C32.0112 7.2295 32.0242 7.59464 31.9605 7.97426C31.9214 7.61006 31.9084 7.24499 31.9214 6.87891Z" fill="#3753B7"/>
<path opacity="0.01" fill-rule="evenodd" clip-rule="evenodd" d="M0.0044555 7.81787C0.0903861 7.90401 0.103429 8.00831 0.0435753 8.13083C0.0052379 8.02967 -0.00780464 7.92529 0.0044555 7.81787Z" fill="#5678D0"/>
<path opacity="0.01" fill-rule="evenodd" clip-rule="evenodd" d="M31.843 8.05273C31.927 8.11149 31.94 8.18973 31.8821 8.28745C31.8443 8.21328 31.8313 8.13504 31.843 8.05273Z" fill="#5678D0"/>
<path opacity="0.016" fill-rule="evenodd" clip-rule="evenodd" d="M0.161245 8.20898C0.161245 8.28722 0.161245 8.36546 0.161245 8.4437C0.0569286 8.36546 0.0569286 8.28722 0.161245 8.20898Z" fill="#3F5BBB"/>
<path opacity="0.016" fill-rule="evenodd" clip-rule="evenodd" d="M31.7646 8.36572C31.8689 8.44396 31.8689 8.5222 31.7646 8.60044C31.7646 8.5222 31.7646 8.44396 31.7646 8.36572Z" fill="#5677CC"/>
<path opacity="0.01" fill-rule="evenodd" clip-rule="evenodd" d="M0.161133 8.44385C0.18721 8.44385 0.213295 8.44385 0.239372 8.44385C0.213295 8.65251 0.18721 8.65251 0.161133 8.44385Z" fill="#4764C3"/>
<path opacity="0.016" fill-rule="evenodd" clip-rule="evenodd" d="M31.6865 8.6001C31.7126 8.6001 31.7387 8.6001 31.7648 8.6001C31.7503 8.65252 31.7242 8.65252 31.6865 8.6001Z" fill="#213FAB"/>
<path opacity="0.01" fill-rule="evenodd" clip-rule="evenodd" d="M0.317432 8.83519C0.237237 8.80413 0.224194 8.75202 0.278312 8.67871C0.314639 8.72519 0.327682 8.77737 0.317432 8.83519Z" fill="#5678D0"/>
<path opacity="0.01" fill-rule="evenodd" clip-rule="evenodd" d="M31.6084 8.75684C31.7127 8.80902 31.7127 8.86113 31.6084 8.91332C31.6084 8.86113 31.6084 8.80902 31.6084 8.75684Z" fill="#5678D0"/>
<path opacity="0.01" fill-rule="evenodd" clip-rule="evenodd" d="M0.317383 8.83496C0.34346 8.83496 0.369545 8.83496 0.395622 8.83496C0.369545 9.04363 0.34346 9.04363 0.317383 8.83496Z" fill="#4764C3"/>
<path opacity="0.01" fill-rule="evenodd" clip-rule="evenodd" d="M31.5303 8.91309C31.5563 8.91309 31.5825 8.91309 31.6085 8.91309C31.622 8.9907 31.5958 9.04281 31.5303 9.06957C31.5303 9.01738 31.5303 8.96527 31.5303 8.91309Z" fill="#5678D0"/>
<path opacity="0.016" fill-rule="evenodd" clip-rule="evenodd" d="M31.4517 9.06982C31.4777 9.06982 31.5038 9.06982 31.5299 9.06982C31.5154 9.12224 31.4893 9.12224 31.4517 9.06982Z" fill="#5777CA"/>
<path opacity="0.01" fill-rule="evenodd" clip-rule="evenodd" d="M31.3735 9.14795C31.3996 9.14795 31.4257 9.14795 31.4518 9.14795C31.4652 9.22556 31.4391 9.27767 31.3735 9.30443C31.3735 9.25224 31.3735 9.20014 31.3735 9.14795Z" fill="#5678D0"/>
<path opacity="0.01" fill-rule="evenodd" clip-rule="evenodd" d="M0.708555 9.30469C0.656393 9.35687 0.656393 9.35687 0.708555 9.30469Z" fill="#5678D0"/>
<path opacity="0.016" fill-rule="evenodd" clip-rule="evenodd" d="M31.2954 9.30469C31.3215 9.30469 31.3476 9.30469 31.3736 9.30469C31.3592 9.35711 31.333 9.35711 31.2954 9.30469Z" fill="#5777CA"/>
<path opacity="0.01" fill-rule="evenodd" clip-rule="evenodd" d="M31.2173 9.38281C31.2433 9.38281 31.2695 9.38281 31.2955 9.38281C31.2811 9.43523 31.2549 9.43523 31.2173 9.38281Z" fill="#5678D0"/>
<path opacity="0.01" fill-rule="evenodd" clip-rule="evenodd" d="M30.8262 9.85205C30.9305 9.90424 30.9305 9.90424 30.8262 9.85205Z" fill="#5678D0"/>
<path opacity="0.01" fill-rule="evenodd" clip-rule="evenodd" d="M30.8262 9.93066C30.7741 9.98285 30.7741 9.98285 30.8262 9.93066Z" fill="#5678D0"/>
<path opacity="0.01" fill-rule="evenodd" clip-rule="evenodd" d="M30.7476 10.0088C30.6954 10.061 30.6954 10.061 30.7476 10.0088Z" fill="#5678D0"/>
<path opacity="0.01" fill-rule="evenodd" clip-rule="evenodd" d="M30.6695 10.0869C30.6173 10.1391 30.6173 10.1391 30.6695 10.0869Z" fill="#5678D0"/>
<path opacity="0.01" fill-rule="evenodd" clip-rule="evenodd" d="M30.5914 10.165C30.5392 10.2172 30.5392 10.2172 30.5914 10.165Z" fill="#5678D0"/>
<path opacity="0.01" fill-rule="evenodd" clip-rule="evenodd" d="M30.5133 10.2437C30.4611 10.2958 30.4611 10.2958 30.5133 10.2437Z" fill="#5678D0"/>
<path opacity="0.01" fill-rule="evenodd" clip-rule="evenodd" d="M30.4351 10.3218C30.3829 10.374 30.3829 10.374 30.4351 10.3218Z" fill="#5678D0"/>
<path opacity="0.01" fill-rule="evenodd" clip-rule="evenodd" d="M30.3565 10.3999C30.3043 10.4521 30.3043 10.4521 30.3565 10.3999Z" fill="#5678D0"/>
<path opacity="0.01" fill-rule="evenodd" clip-rule="evenodd" d="M30.2784 10.478C30.2262 10.5302 30.2262 10.5302 30.2784 10.478Z" fill="#5678D0"/>
<path opacity="0.01" fill-rule="evenodd" clip-rule="evenodd" d="M30.2003 10.5562C30.1481 10.6083 30.1481 10.6083 30.2003 10.5562Z" fill="#5678D0"/>
<path opacity="0.01" fill-rule="evenodd" clip-rule="evenodd" d="M30.1221 10.6348C30.07 10.687 30.07 10.687 30.1221 10.6348Z" fill="#5678D0"/>
<path opacity="0.01" fill-rule="evenodd" clip-rule="evenodd" d="M30.0435 10.7129C29.9913 10.7651 29.9913 10.7651 30.0435 10.7129Z" fill="#5678D0"/>
<path opacity="0.01" fill-rule="evenodd" clip-rule="evenodd" d="M29.9654 10.791C29.9132 10.8432 29.9132 10.8432 29.9654 10.791Z" fill="#5678D0"/>
<path opacity="0.01" fill-rule="evenodd" clip-rule="evenodd" d="M29.8873 10.8696C29.8351 10.9218 29.8351 10.9218 29.8873 10.8696Z" fill="#5678D0"/>
<path opacity="0.01" fill-rule="evenodd" clip-rule="evenodd" d="M29.8092 10.9478C29.757 10.9999 29.757 10.9999 29.8092 10.9478Z" fill="#5678D0"/>
<path opacity="0.01" fill-rule="evenodd" clip-rule="evenodd" d="M29.731 11.0259C29.6788 11.0781 29.6788 11.0781 29.731 11.0259Z" fill="#5678D0"/>
<path opacity="0.01" fill-rule="evenodd" clip-rule="evenodd" d="M29.6524 11.104C29.6002 11.1562 29.6002 11.1562 29.6524 11.104Z" fill="#5678D0"/>
<path opacity="0.01" fill-rule="evenodd" clip-rule="evenodd" d="M29.5743 11.1821C29.5221 11.2343 29.5221 11.2343 29.5743 11.1821Z" fill="#5678D0"/>
<path opacity="0.01" fill-rule="evenodd" clip-rule="evenodd" d="M2.58601 11.2607C2.53383 11.3129 2.53383 11.3129 2.58601 11.2607Z" fill="#5678D0"/>
<path opacity="0.01" fill-rule="evenodd" clip-rule="evenodd" d="M29.3398 11.2607C29.4441 11.3129 29.4441 11.3129 29.3398 11.2607Z" fill="#5678D0"/>
<path opacity="0.01" fill-rule="evenodd" clip-rule="evenodd" d="M29.2617 11.3389C29.2878 11.3389 29.3139 11.3389 29.34 11.3389C29.3255 11.3913 29.2994 11.3913 29.2617 11.3389Z" fill="#5678D0"/>
<path opacity="0.01" fill-rule="evenodd" clip-rule="evenodd" d="M2.89912 11.417C2.89912 11.4692 2.89912 11.5213 2.89912 11.5735C2.70876 11.4915 2.70876 11.4394 2.89912 11.417Z" fill="#5D7FE1"/>
<path fill-rule="evenodd" clip-rule="evenodd" d="M10.2522 11.4173C12.0299 11.266 12.9426 12.0746 12.9901 13.8429C12.8333 16.3348 11.6078 18.0692 9.31344 19.0461C7.40205 19.3658 6.41115 18.5443 6.34082 16.5814C6.66664 14.0979 7.97044 12.3766 10.2522 11.4173Z" fill="#5674C3"/>
<path fill-rule="evenodd" clip-rule="evenodd" d="M20.891 11.4173C22.3355 11.4028 23.5219 11.9505 24.4504 13.0604C25.3213 14.0726 25.8037 15.2462 25.8976 16.5814C25.68 18.8945 24.4805 19.6379 22.2991 18.8114C20.1749 17.5227 19.1711 15.6317 19.2874 13.1386C19.4923 12.243 20.0268 11.6692 20.891 11.4173Z" fill="#5674C3"/>
<path opacity="0.01" fill-rule="evenodd" clip-rule="evenodd" d="M29.105 11.417C29.1572 11.417 29.2093 11.417 29.2615 11.417C29.2137 11.4867 29.1877 11.5649 29.1832 11.6517C29.1572 11.6517 29.131 11.6517 29.105 11.6517C29.105 11.5735 29.105 11.4952 29.105 11.417Z" fill="#5D80D8"/>
<path opacity="0.01" fill-rule="evenodd" clip-rule="evenodd" d="M29.1831 11.6519C29.2874 11.704 29.2874 11.704 29.1831 11.6519Z" fill="#5678D0"/>
<path opacity="0.01" fill-rule="evenodd" clip-rule="evenodd" d="M2.58594 11.8081C2.69023 11.8603 2.69023 11.8603 2.58594 11.8081Z" fill="#688EEE"/>
<path opacity="0.016" fill-rule="evenodd" clip-rule="evenodd" d="M2.58601 12.0431C2.53383 11.9388 2.53383 11.9388 2.58601 12.0431Z" fill="#5777CA"/>
<path opacity="0.533" fill-rule="evenodd" clip-rule="evenodd" d="M29.1049 11.8081C29.2149 11.8451 29.2671 11.9234 29.2614 12.0428C29.1514 12.0058 29.0992 11.9276 29.1049 11.8081Z" fill="#526CC1"/>
<path opacity="0.016" fill-rule="evenodd" clip-rule="evenodd" d="M29.4181 12.0432C29.392 12.0432 29.3659 12.0432 29.3398 12.0432C29.3659 11.8346 29.392 11.8346 29.4181 12.0432Z" fill="#5C7ED5"/>
<path opacity="0.01" fill-rule="evenodd" clip-rule="evenodd" d="M2.50789 12.043C2.4557 12.0952 2.4557 12.0952 2.50789 12.043Z" fill="#7AA5FF"/>
<path opacity="0.01" fill-rule="evenodd" clip-rule="evenodd" d="M29.418 12.043C29.5223 12.0952 29.5223 12.0952 29.418 12.043Z" fill="#688EEE"/>
<path opacity="0.01" fill-rule="evenodd" clip-rule="evenodd" d="M2.42976 12.2779C2.37758 12.1736 2.37758 12.1736 2.42976 12.2779Z" fill="#688EEE"/>
<path opacity="0.675" fill-rule="evenodd" clip-rule="evenodd" d="M29.2614 12.043C29.2875 12.043 29.3136 12.043 29.3397 12.043C29.3657 12.1473 29.3919 12.2516 29.4179 12.3559C29.2924 12.2944 29.2402 12.1901 29.2614 12.043Z" fill="#5471C4"/>
<path opacity="0.016" fill-rule="evenodd" clip-rule="evenodd" d="M2.35164 12.4342C2.29945 12.3299 2.29945 12.3299 2.35164 12.4342Z" fill="#5777CA"/>
<path opacity="0.016" fill-rule="evenodd" clip-rule="evenodd" d="M29.5742 12.356C29.6785 12.4081 29.6785 12.4081 29.5742 12.356Z" fill="#5777CA"/>
<path opacity="0.01" fill-rule="evenodd" clip-rule="evenodd" d="M2.27303 12.4341C2.22084 12.4863 2.22084 12.4863 2.27303 12.4341Z" fill="#5678D0"/>
<path opacity="0.71" fill-rule="evenodd" clip-rule="evenodd" d="M29.418 12.356C29.4702 12.382 29.5223 12.4081 29.5744 12.4342C29.5744 12.5124 29.5744 12.5907 29.5744 12.6689C29.4826 12.5896 29.4305 12.4853 29.418 12.356Z" fill="#5371C6"/>
<path opacity="0.01" fill-rule="evenodd" clip-rule="evenodd" d="M29.6528 12.5127C29.7571 12.5649 29.7571 12.5649 29.6528 12.5127Z" fill="#7AA5FF"/>
<path opacity="0.01" fill-rule="evenodd" clip-rule="evenodd" d="M2.1949 12.669C2.14272 12.5647 2.14272 12.5647 2.1949 12.669Z" fill="#688EEE"/>
<path opacity="0.01" fill-rule="evenodd" clip-rule="evenodd" d="M29.731 12.6689C29.8353 12.7211 29.8353 12.7211 29.731 12.6689Z" fill="#688EEE"/>
<path opacity="0.016" fill-rule="evenodd" clip-rule="evenodd" d="M2.11678 12.8253C2.06459 12.721 2.06459 12.721 2.11678 12.8253Z" fill="#5777CA"/>
<path opacity="0.753" fill-rule="evenodd" clip-rule="evenodd" d="M29.5742 12.6689C29.6264 12.695 29.6785 12.7211 29.7307 12.7472C29.7172 12.8248 29.7434 12.8769 29.8089 12.9037C29.819 13.0379 29.8451 13.1683 29.8872 13.2949C29.7395 13.1158 29.6352 12.9072 29.5742 12.6689Z" fill="#5B77C7"/>
<path opacity="0.01" fill-rule="evenodd" clip-rule="evenodd" d="M2.03865 12.8257C1.98647 12.8779 1.98647 12.8779 2.03865 12.8257Z" fill="#688EEE"/>
<path opacity="0.016" fill-rule="evenodd" clip-rule="evenodd" d="M29.8091 12.8257C29.9134 12.8779 29.9134 12.8779 29.8091 12.8257Z" fill="#5777CA"/>
<path opacity="0.01" fill-rule="evenodd" clip-rule="evenodd" d="M29.8872 12.9819C29.9915 13.0341 29.9915 13.0341 29.8872 12.9819Z" fill="#688EEE"/>
<path opacity="0.016" fill-rule="evenodd" clip-rule="evenodd" d="M1.96053 13.1383C1.90834 13.034 1.90834 13.034 1.96053 13.1383Z" fill="#6589E4"/>
<path opacity="0.016" fill-rule="evenodd" clip-rule="evenodd" d="M1.88191 13.1387C1.82973 13.1909 1.82973 13.1909 1.88191 13.1387Z" fill="#5777CA"/>
<path opacity="0.01" fill-rule="evenodd" clip-rule="evenodd" d="M30.0436 13.2952C30.0175 13.2952 29.9914 13.2952 29.9653 13.2952C29.9914 13.0865 30.0175 13.0865 30.0436 13.2952Z" fill="#7AA5FF"/>
<path opacity="0.01" fill-rule="evenodd" clip-rule="evenodd" d="M30.0439 13.2949C30.1482 13.3471 30.1482 13.3471 30.0439 13.2949Z" fill="#688EEE"/>
<path opacity="0.016" fill-rule="evenodd" clip-rule="evenodd" d="M1.7257 13.6082C1.69965 13.6082 1.67351 13.6082 1.64746 13.6082C1.67351 13.3995 1.69965 13.3995 1.7257 13.6082Z" fill="#6286DB"/>
<path fill-rule="evenodd" clip-rule="evenodd" d="M10.3308 13.4517C11.3283 13.5185 11.6542 14.0141 11.3086 14.9383C10.6256 15.5375 10.078 15.4331 9.66587 14.6253C9.60407 14.0706 9.82576 13.6794 10.3308 13.4517Z" fill="#27499E"/>
<path fill-rule="evenodd" clip-rule="evenodd" d="M21.4388 13.4517C22.3746 13.4875 22.7266 13.957 22.4948 14.8601C21.8684 15.5247 21.3208 15.4725 20.8521 14.7036C20.7167 14.124 20.9123 13.7067 21.4388 13.4517Z" fill="#27489E"/>
<path fill-rule="evenodd" clip-rule="evenodd" d="M29.8875 13.2949C29.9135 13.2949 29.9397 13.2949 29.9657 13.2949C30.0078 13.4214 30.0339 13.5519 30.044 13.6861C29.9099 13.5973 29.8578 13.4669 29.8875 13.2949Z" fill="#798DD0"/>
<path opacity="0.01" fill-rule="evenodd" clip-rule="evenodd" d="M30.1221 13.5298C30.2264 13.582 30.2264 13.582 30.1221 13.5298Z" fill="#688EEE"/>
<path opacity="0.01" fill-rule="evenodd" clip-rule="evenodd" d="M1.64754 13.6079C1.59535 13.6601 1.59535 13.6601 1.64754 13.6079Z" fill="#5678D0"/>
<path opacity="0.01" fill-rule="evenodd" clip-rule="evenodd" d="M30.2784 13.8425C30.2524 13.8425 30.2262 13.8425 30.2002 13.8425C30.2262 13.6339 30.2524 13.6339 30.2784 13.8425Z" fill="#678CEA"/>
<path opacity="0.01" fill-rule="evenodd" clip-rule="evenodd" d="M30.2783 13.8428C30.3826 13.895 30.3826 13.895 30.2783 13.8428Z" fill="#7AA5FF"/>
<path opacity="0.016" fill-rule="evenodd" clip-rule="evenodd" d="M1.49084 14.0774C1.46478 14.0774 1.43865 14.0774 1.4126 14.0774C1.43865 13.8687 1.46478 13.8687 1.49084 14.0774Z" fill="#6C92EC"/>
<path opacity="0.01" fill-rule="evenodd" clip-rule="evenodd" d="M1.41266 14.0771C1.42291 14.135 1.40984 14.1872 1.37354 14.2336C1.3194 14.1603 1.33246 14.1082 1.41266 14.0771Z" fill="#7AA5FF"/>
<path opacity="0.878" fill-rule="evenodd" clip-rule="evenodd" d="M30.0439 13.686C30.0961 13.7382 30.1482 13.7903 30.2004 13.8425C30.2345 14.0504 30.3127 14.233 30.4351 14.3902C30.4488 14.5749 30.4748 14.7574 30.5134 14.9379C30.316 14.5417 30.1595 14.1245 30.0439 13.686Z" fill="#6880CA"/>
<path opacity="0.016" fill-rule="evenodd" clip-rule="evenodd" d="M30.435 14.3904C30.4248 14.3325 30.4378 14.2804 30.4741 14.2339C30.5283 14.3072 30.5152 14.3593 30.435 14.3904Z" fill="#6C92EC"/>
<path opacity="0.01" fill-rule="evenodd" clip-rule="evenodd" d="M30.5132 14.4688C30.6175 14.5209 30.6175 14.5209 30.5132 14.4688Z" fill="#5678D0"/>
<path opacity="0.016" fill-rule="evenodd" clip-rule="evenodd" d="M1.25646 14.6252C1.23041 14.6252 1.20428 14.6252 1.17822 14.6252C1.20428 14.4166 1.23041 14.4166 1.25646 14.6252Z" fill="#5F83DD"/>
<path opacity="0.431" fill-rule="evenodd" clip-rule="evenodd" d="M3.0553 11.4951C2.51405 12.3426 2.0317 13.2293 1.60811 14.1554C1.28252 14.9897 0.982603 15.8242 0.708496 16.6592C0.708496 16.5549 0.708496 16.4506 0.708496 16.3463C0.795484 16.182 0.847662 15.9994 0.86495 15.7986C1.01366 15.4206 1.14406 15.0294 1.25608 14.6249C1.39635 14.4742 1.47457 14.2916 1.49076 14.0772C1.60873 13.9457 1.68696 13.7892 1.72545 13.6077C1.84341 13.4762 1.92164 13.3197 1.96013 13.1382C2.05196 13.0589 2.10406 12.9546 2.11658 12.8253C2.18213 12.7985 2.20826 12.7464 2.19481 12.6688C2.30479 12.6318 2.35697 12.5535 2.35126 12.434C2.41681 12.4073 2.44294 12.3552 2.42949 12.2776C2.53947 12.2406 2.59165 12.1623 2.58594 12.0428C2.72878 11.914 2.83314 11.7575 2.89885 11.5734C2.95103 11.5473 3.00313 11.5212 3.0553 11.4951Z" fill="#667CC9"/>
<path opacity="0.01" fill-rule="evenodd" clip-rule="evenodd" d="M1.17828 14.625C1.18853 14.6828 1.17547 14.735 1.13916 14.7815C1.08502 14.7082 1.09809 14.6561 1.17828 14.625Z" fill="#688EEE"/>
<path opacity="0.016" fill-rule="evenodd" clip-rule="evenodd" d="M30.5913 14.7031C30.6715 14.7342 30.6845 14.7863 30.6304 14.8596C30.5941 14.8131 30.581 14.7609 30.5913 14.7031Z" fill="#5C7ED5"/>
<path opacity="0.016" fill-rule="evenodd" clip-rule="evenodd" d="M30.6694 15.0945C30.6591 15.0366 30.6722 14.9845 30.7085 14.938C30.7627 15.0113 30.7496 15.0634 30.6694 15.0945Z" fill="#5C7ED5"/>
<path opacity="0.01" fill-rule="evenodd" clip-rule="evenodd" d="M30.7476 15.1729C30.8519 15.225 30.8519 15.225 30.7476 15.1729Z" fill="#7AA5FF"/>
<path opacity="0.01" fill-rule="evenodd" clip-rule="evenodd" d="M0.865234 15.3291C0.969528 15.3813 0.969528 15.3813 0.865234 15.3291Z" fill="#7AA5FF"/>
<path opacity="0.702" fill-rule="evenodd" clip-rule="evenodd" d="M30.5133 14.938C30.5655 14.9902 30.6176 15.0423 30.6698 15.0945C30.6958 15.3031 30.7219 15.5117 30.748 15.7204C30.5833 15.4929 30.5051 15.232 30.5133 14.938Z" fill="#6077C6"/>
<path opacity="0.016" fill-rule="evenodd" clip-rule="evenodd" d="M30.8261 15.4858C30.9063 15.5169 30.9194 15.569 30.8653 15.6423C30.829 15.5958 30.8159 15.5437 30.8261 15.4858Z" fill="#5C7ED5"/>
<path opacity="0.016" fill-rule="evenodd" clip-rule="evenodd" d="M0.865349 15.7987C0.839295 15.7987 0.813163 15.7987 0.787109 15.7987C0.813163 15.4857 0.839295 15.4857 0.865349 15.7987Z" fill="#668BE5"/>
<path opacity="0.01" fill-rule="evenodd" clip-rule="evenodd" d="M30.9043 15.7207C30.9845 15.7518 30.9975 15.8039 30.9434 15.8772C30.9071 15.8307 30.894 15.7785 30.9043 15.7207Z" fill="#7AA5FF"/>
<path opacity="0.01" fill-rule="evenodd" clip-rule="evenodd" d="M0.786681 15.7988C0.79693 15.8566 0.783864 15.9088 0.747561 15.9553C0.693419 15.882 0.706485 15.8299 0.786681 15.7988Z" fill="#7AA5FF"/>
<path opacity="0.01" fill-rule="evenodd" clip-rule="evenodd" d="M30.9824 16.1118C31.0867 16.164 31.0867 16.164 30.9824 16.1118Z" fill="#688EEE"/>
<path opacity="0.01" fill-rule="evenodd" clip-rule="evenodd" d="M0.708845 16.3465C0.624855 16.2878 0.61182 16.2095 0.669725 16.1118C0.707515 16.186 0.720503 16.2642 0.708845 16.3465Z" fill="#7199F3"/>
<path opacity="0.01" fill-rule="evenodd" clip-rule="evenodd" d="M30.9824 16.2681C31.0867 16.3203 31.0867 16.3203 30.9824 16.2681Z" fill="#7AA5FF"/>
<path opacity="0.016" fill-rule="evenodd" clip-rule="evenodd" d="M0.630486 16.6595C0.604408 16.6595 0.578323 16.6595 0.552246 16.6595C0.578323 16.3466 0.604408 16.3466 0.630486 16.6595Z" fill="#6B91ED"/>
<path opacity="0.016" fill-rule="evenodd" clip-rule="evenodd" d="M31.0608 16.4248C31.1447 16.4836 31.1578 16.5618 31.0999 16.6595C31.0621 16.5854 31.0491 16.5071 31.0608 16.4248Z" fill="#6285DF"/>
<path opacity="0.01" fill-rule="evenodd" clip-rule="evenodd" d="M0.552107 16.6597C0.563804 16.742 0.550761 16.8202 0.512987 16.8944C0.455082 16.7967 0.468117 16.7184 0.552107 16.6597Z" fill="#759FFA"/>
<path opacity="0.01" fill-rule="evenodd" clip-rule="evenodd" d="M31.1387 16.7378C31.2246 16.8239 31.2377 16.9282 31.1779 17.0508C31.1395 16.9496 31.1265 16.8452 31.1387 16.7378Z" fill="#6E95F3"/>
<path opacity="0.01" fill-rule="evenodd" clip-rule="evenodd" d="M0.474236 17.52C0.448158 17.52 0.422073 17.52 0.395996 17.52C0.422073 17.1027 0.448158 17.1027 0.474236 17.52Z" fill="#7AA5FF"/>
<path opacity="0.357" fill-rule="evenodd" clip-rule="evenodd" d="M0.6306 16.6597C0.656678 16.6597 0.682786 16.6597 0.70884 16.6597C0.709153 17.1011 0.630882 17.5183 0.474121 17.9115C0.474121 17.7811 0.474121 17.6507 0.474121 17.5203C0.554309 17.2485 0.606471 16.9617 0.6306 16.6597Z" fill="#4B63BB"/>
<path opacity="0.01" fill-rule="evenodd" clip-rule="evenodd" d="M31.217 17.3638C31.3041 17.4769 31.3172 17.6073 31.2561 17.755C31.2175 17.6271 31.2045 17.4967 31.217 17.3638Z" fill="#719AF4"/>
<path opacity="0.016" fill-rule="evenodd" clip-rule="evenodd" d="M0.395656 17.52C0.40819 17.6529 0.395147 17.7834 0.356536 17.9112C0.295541 17.7636 0.308583 17.6332 0.395656 17.52Z" fill="#678CE9"/>
<path opacity="0.016" fill-rule="evenodd" clip-rule="evenodd" d="M31.2953 17.833C31.3844 18.0524 31.3974 18.2871 31.3345 18.5372C31.2955 18.3039 31.2824 18.0691 31.2953 17.833Z" fill="#6C92ED"/>
<path opacity="0.01" fill-rule="evenodd" clip-rule="evenodd" d="M0.239066 18.0679C0.32689 18.2078 0.339924 18.3642 0.278185 18.5373C0.239418 18.3829 0.226383 18.2265 0.239066 18.0679Z" fill="#77A1FC"/>
<path opacity="0.01" fill-rule="evenodd" clip-rule="evenodd" d="M0.239258 18.6157C0.343575 18.6679 0.343575 18.6679 0.239258 18.6157Z" fill="#7AA5FF"/>
<path opacity="0.01" fill-rule="evenodd" clip-rule="evenodd" d="M31.3736 19.0068C31.4595 19.093 31.4726 19.1973 31.4127 19.3198C31.3744 19.2186 31.3613 19.1143 31.3736 19.0068Z" fill="#6085E1"/>
<path opacity="0.441" fill-rule="evenodd" clip-rule="evenodd" d="M0.473922 17.9897C0.459502 18.8522 0.485587 19.7129 0.552161 20.5718C0.430937 20.0955 0.378775 19.6 0.395682 19.0852C0.395745 18.706 0.421822 18.3409 0.473922 17.9897Z" fill="#4765BD"/>
<path fill-rule="evenodd" clip-rule="evenodd" d="M14.5547 19.4761C15.6502 19.463 16.7454 19.4761 17.8403 19.5152C18.2256 19.6993 18.3691 19.9992 18.2705 20.415C17.9092 21.1415 17.3485 21.6501 16.5886 21.9408C16.0065 22.051 15.4849 21.9205 15.0241 21.5496C14.7503 21.2235 14.4765 20.8976 14.2027 20.5715C14.1505 20.3368 14.1505 20.102 14.2027 19.8673C14.3362 19.7471 14.4536 19.6166 14.5547 19.4761Z" fill="#5976C4"/>
<path opacity="0.01" fill-rule="evenodd" clip-rule="evenodd" d="M0.239066 19.7109C0.32689 19.8508 0.339924 20.0073 0.278185 20.1804C0.239418 20.026 0.226383 19.8695 0.239066 19.7109Z" fill="#6F97F3"/>
<path opacity="0.016" fill-rule="evenodd" clip-rule="evenodd" d="M31.2953 19.7109C31.3836 19.8774 31.3967 20.06 31.3344 20.2586C31.2955 20.0779 31.2825 19.8953 31.2953 19.7109Z" fill="#6A90EA"/>
<path opacity="0.396" fill-rule="evenodd" clip-rule="evenodd" d="M30.7476 15.7207C30.8453 15.9231 30.9235 16.1318 30.9822 16.3467C31.2206 17.6688 31.2988 18.9989 31.2169 20.3371C31.1553 20.6021 31.0771 20.8629 30.9822 21.1196C31.131 20.1094 31.1701 19.0922 31.0996 18.068C30.9736 17.2849 30.8562 16.5024 30.7476 15.7207Z" fill="#5C73C4"/>
<path opacity="0.016" fill-rule="evenodd" clip-rule="evenodd" d="M0.317444 20.2588C0.403374 20.3449 0.416417 20.4492 0.356564 20.5717C0.318226 20.4706 0.305184 20.3662 0.317444 20.2588Z" fill="#6286E0"/>
<path opacity="0.01" fill-rule="evenodd" clip-rule="evenodd" d="M31.2174 20.3369C31.3033 20.4231 31.3163 20.5273 31.2565 20.6499C31.2181 20.5487 31.2051 20.4443 31.2174 20.3369Z" fill="#76A0FB"/>
<path opacity="0.01" fill-rule="evenodd" clip-rule="evenodd" d="M0.395749 20.6499C0.47974 20.7087 0.492774 20.7869 0.434869 20.8846C0.397095 20.8105 0.384053 20.7322 0.395749 20.6499Z" fill="#759FFA"/>
<path opacity="0.01" fill-rule="evenodd" clip-rule="evenodd" d="M31.1391 20.9629C31.2193 20.994 31.2324 21.0461 31.1782 21.1194C31.1419 21.0729 31.1289 21.0207 31.1391 20.9629Z" fill="#688EEE"/>
<path opacity="0.01" fill-rule="evenodd" clip-rule="evenodd" d="M0.552296 21.2756C0.4721 21.2446 0.459057 21.1925 0.513176 21.1191C0.549502 21.1656 0.562545 21.2178 0.552296 21.2756Z" fill="#749DF9"/>
<path opacity="0.01" fill-rule="evenodd" clip-rule="evenodd" d="M31.0605 21.1978C31.1407 21.2288 31.1538 21.2809 31.0996 21.3542C31.0633 21.3078 31.0503 21.2556 31.0605 21.1978Z" fill="#6E95ED"/>
<path opacity="0.016" fill-rule="evenodd" clip-rule="evenodd" d="M0.552178 21.2759C0.578255 21.2759 0.60434 21.2759 0.630417 21.2759C0.630417 21.3541 0.630417 21.4324 0.630417 21.5106C0.559689 21.4551 0.533611 21.3769 0.552178 21.2759Z" fill="#6B91ED"/>
<path opacity="0.835" fill-rule="evenodd" clip-rule="evenodd" d="M30.9827 21.1191C30.9654 21.32 30.9132 21.5026 30.8262 21.6668C30.8005 21.4534 30.8526 21.2708 30.9827 21.1191Z" fill="#6078C6"/>
<path opacity="0.01" fill-rule="evenodd" clip-rule="evenodd" d="M30.9824 21.4321C31.0867 21.4843 31.0867 21.4843 30.9824 21.4321Z" fill="#7AA5FF"/>
<path opacity="0.01" fill-rule="evenodd" clip-rule="evenodd" d="M0.630371 21.5107C0.656448 21.5107 0.682557 21.5107 0.708611 21.5107C0.682557 21.7194 0.656448 21.7194 0.630371 21.5107Z" fill="#7AA5FF"/>
<path opacity="0.016" fill-rule="evenodd" clip-rule="evenodd" d="M0.708496 21.8237C0.812789 21.8759 0.812789 21.8759 0.708496 21.8237Z" fill="#6589E4"/>
<path opacity="0.01" fill-rule="evenodd" clip-rule="evenodd" d="M30.9043 21.9016C30.894 21.8438 30.9071 21.7916 30.9434 21.7451C30.9975 21.8184 30.9845 21.8705 30.9043 21.9016Z" fill="#678CEA"/>
<path opacity="0.753" fill-rule="evenodd" clip-rule="evenodd" d="M0.552246 20.5718C0.862103 21.7655 1.38364 22.8609 2.11678 23.858C2.06461 23.832 2.01251 23.8059 1.96033 23.7798C1.88116 23.6724 1.80294 23.5681 1.72565 23.4668C1.69186 23.3721 1.63968 23.2939 1.5692 23.2321C1.52805 23.0967 1.44982 22.9923 1.33451 22.9191C1.34797 22.8415 1.32184 22.7894 1.25629 22.7626C1.24377 22.6333 1.19167 22.529 1.09983 22.4496C1.06135 22.2682 0.98312 22.1117 0.865154 21.9802C0.857722 21.8013 0.805545 21.6448 0.7087 21.5107C0.72724 21.4097 0.70119 21.3315 0.630473 21.276C0.578945 21.0448 0.552864 20.81 0.552246 20.5718Z" fill="#6078C6"/>
<path opacity="0.016" fill-rule="evenodd" clip-rule="evenodd" d="M0.865311 21.98C0.813125 22.0322 0.813125 22.0322 0.865311 21.98Z" fill="#6589E4"/>
<path opacity="0.01" fill-rule="evenodd" clip-rule="evenodd" d="M30.8262 21.9019C30.8522 21.9019 30.8784 21.9019 30.9044 21.9019C30.8784 22.1105 30.8522 22.1105 30.8262 21.9019Z" fill="#739BF5"/>
<path opacity="0.01" fill-rule="evenodd" clip-rule="evenodd" d="M0.865234 22.2148C0.969528 22.267 0.969528 22.267 0.865234 22.2148Z" fill="#688EEE"/>
<path opacity="0.01" fill-rule="evenodd" clip-rule="evenodd" d="M30.748 22.2932C30.7378 22.2354 30.7508 22.1832 30.7871 22.1367C30.8413 22.21 30.8282 22.2621 30.748 22.2932Z" fill="#6286DF"/>
<path opacity="0.01" fill-rule="evenodd" clip-rule="evenodd" d="M1.02156 22.4493C0.969375 22.345 0.969375 22.345 1.02156 22.4493Z" fill="#688EEE"/>
<path opacity="0.01" fill-rule="evenodd" clip-rule="evenodd" d="M30.6694 22.293C30.6955 22.293 30.7216 22.293 30.7477 22.293C30.7611 22.3706 30.735 22.4227 30.6694 22.4494C30.6694 22.3973 30.6694 22.3452 30.6694 22.293Z" fill="#6286DF"/>
<path opacity="0.016" fill-rule="evenodd" clip-rule="evenodd" d="M30.5913 22.4497C30.6174 22.4497 30.6435 22.4497 30.6695 22.4497C30.6551 22.5021 30.6289 22.5021 30.5913 22.4497Z" fill="#6589E4"/>
<path opacity="0.01" fill-rule="evenodd" clip-rule="evenodd" d="M1.02148 22.4497C1.04754 22.4497 1.07367 22.4497 1.09972 22.4497C1.07367 22.6584 1.04754 22.6584 1.02148 22.4497Z" fill="#6286E1"/>
<path opacity="0.01" fill-rule="evenodd" clip-rule="evenodd" d="M1.17781 22.7623C1.12563 22.658 1.12563 22.658 1.17781 22.7623Z" fill="#7AA5FF"/>
<path opacity="0.01" fill-rule="evenodd" clip-rule="evenodd" d="M30.5132 22.6841C30.6175 22.7363 30.6175 22.7363 30.5132 22.6841Z" fill="#7AA5FF"/>
<path fill-rule="evenodd" clip-rule="evenodd" d="M21.2041 22.606C21.9198 22.5791 22.1936 22.9182 22.0255 23.6232C21.6491 24.8111 20.8538 25.3196 19.6396 25.1489C19.3056 24.7805 19.3317 24.4414 19.7178 24.1317C20.487 24.0926 20.8912 23.6883 20.9303 22.919C21.0379 22.8247 21.1292 22.7204 21.2041 22.606Z" fill="#2C4BA0"/>
<path opacity="0.01" fill-rule="evenodd" clip-rule="evenodd" d="M1.17824 22.7627C1.20429 22.7627 1.23042 22.7627 1.25648 22.7627C1.25648 22.8149 1.25648 22.867 1.25648 22.9192C1.19091 22.8924 1.16478 22.8403 1.17824 22.7627Z" fill="#5677CD"/>
<path opacity="0.01" fill-rule="evenodd" clip-rule="evenodd" d="M30.4351 22.7627C30.4611 22.7627 30.4872 22.7627 30.5133 22.7627C30.5268 22.8403 30.5006 22.8924 30.4351 22.9192C30.4351 22.867 30.4351 22.8149 30.4351 22.7627Z" fill="#678CEA"/>
<path opacity="0.01" fill-rule="evenodd" clip-rule="evenodd" d="M1.25635 22.9189C1.2824 22.9189 1.30853 22.9189 1.33459 22.9189C1.32011 22.9714 1.29398 22.9714 1.25635 22.9189Z" fill="#7AA5FF"/>
<path opacity="0.01" fill-rule="evenodd" clip-rule="evenodd" d="M30.3564 22.9189C30.3825 22.9189 30.4086 22.9189 30.4347 22.9189C30.4202 22.9714 30.3941 22.9714 30.3564 22.9189Z" fill="#688EEE"/>
<path opacity="0.01" fill-rule="evenodd" clip-rule="evenodd" d="M1.33447 23.0757C1.43877 23.1279 1.43877 23.1279 1.33447 23.0757Z" fill="#688EEE"/>
<path opacity="0.01" fill-rule="evenodd" clip-rule="evenodd" d="M30.2783 23.0757C30.3826 23.1279 30.3826 23.1279 30.2783 23.0757Z" fill="#688EEE"/>
<path opacity="0.01" fill-rule="evenodd" clip-rule="evenodd" d="M30.2002 23.1538C30.2262 23.1538 30.2524 23.1538 30.2784 23.1538C30.2919 23.2314 30.2658 23.2835 30.2002 23.3103C30.2002 23.2581 30.2002 23.206 30.2002 23.1538Z" fill="#6E95EF"/>
<path opacity="0.01" fill-rule="evenodd" clip-rule="evenodd" d="M1.5694 23.2319C1.57964 23.2898 1.56658 23.3419 1.53028 23.3884C1.47613 23.3151 1.4892 23.263 1.5694 23.2319Z" fill="#6E95F3"/>
<path opacity="0.01" fill-rule="evenodd" clip-rule="evenodd" d="M30.1221 23.3101C30.1481 23.3101 30.1743 23.3101 30.2003 23.3101C30.1858 23.3625 30.1597 23.3625 30.1221 23.3101Z" fill="#5678D0"/>
<path opacity="0.01" fill-rule="evenodd" clip-rule="evenodd" d="M30.0439 23.4668C30.1482 23.519 30.1482 23.519 30.0439 23.4668Z" fill="#5678D0"/>
<path opacity="0.01" fill-rule="evenodd" clip-rule="evenodd" d="M1.72565 23.4668C1.73589 23.5246 1.72283 23.5768 1.68653 23.6233C1.63238 23.55 1.64545 23.4979 1.72565 23.4668Z" fill="#6186E3"/>
<path opacity="0.016" fill-rule="evenodd" clip-rule="evenodd" d="M29.9653 23.5449C29.9914 23.5449 30.0175 23.5449 30.0436 23.5449C30.0291 23.5973 30.003 23.5973 29.9653 23.5449Z" fill="#5777CA"/>
<path opacity="0.01" fill-rule="evenodd" clip-rule="evenodd" d="M29.8872 23.623C29.9133 23.623 29.9394 23.623 29.9654 23.623C29.951 23.6755 29.9248 23.6755 29.8872 23.623Z" fill="#7AA5FF"/>
<path opacity="0.016" fill-rule="evenodd" clip-rule="evenodd" d="M30.826 21.667C30.826 21.7452 30.826 21.8235 30.826 21.9017C30.714 22.0019 30.6618 22.1323 30.6695 22.2929C30.6039 22.3197 30.5778 22.3718 30.5913 22.4494C30.4994 22.5288 30.4473 22.6331 30.4348 22.7624C30.3693 22.7892 30.3431 22.8413 30.3566 22.9189C30.2466 22.9559 30.1944 23.0342 30.2001 23.1536C30.1346 23.1804 30.1085 23.2325 30.1219 23.3101C30.0119 23.3471 29.9597 23.4254 29.9655 23.5449C29.9133 23.5449 29.8872 23.5709 29.8872 23.6231C29.8217 23.6499 29.7955 23.702 29.809 23.7796C29.7568 23.7796 29.7308 23.8056 29.7308 23.8578C29.6786 23.8578 29.6525 23.8839 29.6525 23.9361C29.6004 23.9621 29.5483 23.9883 29.4961 24.0143C30.0052 23.2701 30.4484 22.4876 30.826 21.667Z" fill="#5872C4"/>
<path opacity="0.01" fill-rule="evenodd" clip-rule="evenodd" d="M1.96053 23.7798C1.90834 23.832 1.90834 23.832 1.96053 23.7798Z" fill="#688EEE"/>
<path opacity="0.016" fill-rule="evenodd" clip-rule="evenodd" d="M29.8091 23.7798C29.9134 23.832 29.9134 23.832 29.8091 23.7798Z" fill="#5777CA"/>
<path opacity="0.016" fill-rule="evenodd" clip-rule="evenodd" d="M29.731 23.8579C29.757 23.8579 29.7831 23.8579 29.8092 23.8579C29.7947 23.9103 29.7686 23.9103 29.731 23.8579Z" fill="#6589E4"/>
<path opacity="0.01" fill-rule="evenodd" clip-rule="evenodd" d="M1.96045 23.936C2.06474 23.9882 2.06474 23.9882 1.96045 23.936Z" fill="#688EEE"/>
<path opacity="0.031" fill-rule="evenodd" clip-rule="evenodd" d="M2.1167 23.8579C2.53388 24.2231 2.92502 24.6143 3.2901 25.0315C3.23793 25.0315 3.18583 25.0315 3.13365 25.0315C2.76371 24.6619 2.42468 24.2707 2.1167 23.8579Z" fill="#5974C5"/>
<path opacity="0.01" fill-rule="evenodd" clip-rule="evenodd" d="M29.6528 23.936C29.6789 23.936 29.705 23.936 29.7311 23.936C29.7166 23.9885 29.6905 23.9885 29.6528 23.936Z" fill="#7AA5FF"/>
<path opacity="0.01" fill-rule="evenodd" clip-rule="evenodd" d="M29.5742 24.0928C29.6785 24.145 29.6785 24.145 29.5742 24.0928Z" fill="#5678D0"/>
<path opacity="0.01" fill-rule="evenodd" clip-rule="evenodd" d="M29.4961 24.1709C29.5221 24.1709 29.5483 24.1709 29.5743 24.1709C29.5599 24.2233 29.5337 24.2233 29.4961 24.1709Z" fill="#688EEE"/>
<path opacity="0.01" fill-rule="evenodd" clip-rule="evenodd" d="M29.418 24.249C29.444 24.249 29.4702 24.249 29.4962 24.249C29.4817 24.3014 29.4556 24.3014 29.418 24.249Z" fill="#7AA5FF"/>
<path opacity="0.016" fill-rule="evenodd" clip-rule="evenodd" d="M29.3398 24.3271C29.3659 24.3271 29.392 24.3271 29.4181 24.3271C29.4036 24.3796 29.3775 24.3796 29.3398 24.3271Z" fill="#6589E4"/>
<path opacity="0.016" fill-rule="evenodd" clip-rule="evenodd" d="M29.2617 24.4058C29.2878 24.4058 29.3139 24.4058 29.34 24.4058C29.3255 24.4582 29.2994 24.4582 29.2617 24.4058Z" fill="#6589E4"/>
<path opacity="0.01" fill-rule="evenodd" clip-rule="evenodd" d="M29.1831 24.4839C29.2092 24.4839 29.2353 24.4839 29.2613 24.4839C29.2469 24.5363 29.2207 24.5363 29.1831 24.4839Z" fill="#688EEE"/>
<path opacity="0.01" fill-rule="evenodd" clip-rule="evenodd" d="M29.105 24.562C29.131 24.562 29.1572 24.562 29.1832 24.562C29.1687 24.6144 29.1426 24.6144 29.105 24.562Z" fill="#7AA5FF"/>
<path opacity="0.01" fill-rule="evenodd" clip-rule="evenodd" d="M29.0269 24.6401C29.0529 24.6401 29.079 24.6401 29.1051 24.6401C29.0906 24.6926 29.0645 24.6926 29.0269 24.6401Z" fill="#688EEE"/>
<path opacity="0.01" fill-rule="evenodd" clip-rule="evenodd" d="M28.9487 24.7188C28.9748 24.7188 29.0009 24.7188 29.027 24.7188C29.0125 24.7712 28.9864 24.7712 28.9487 24.7188Z" fill="#7AA5FF"/>
<path opacity="0.357" fill-rule="evenodd" clip-rule="evenodd" d="M29.4963 24.0146C29.4963 24.0668 29.4963 24.1189 29.4963 24.1711C29.4441 24.1711 29.418 24.1972 29.418 24.2494C29.3659 24.2494 29.3398 24.2754 29.3398 24.3276C29.2876 24.3276 29.2616 24.3537 29.2616 24.4058C29.2094 24.4058 29.1834 24.4319 29.1834 24.4841C29.1312 24.4841 29.1051 24.5101 29.1051 24.5623C29.0529 24.5623 29.0269 24.5884 29.0269 24.6406C28.9747 24.6406 28.9487 24.6666 28.9487 24.7188C28.8965 24.7188 28.8704 24.7449 28.8704 24.797C28.8183 24.797 28.7922 24.8231 28.7922 24.8753C28.74 24.8753 28.714 24.9013 28.714 24.9535C28.6618 24.9535 28.6358 24.9796 28.6358 25.0318C28.5836 25.0318 28.5575 25.0578 28.5575 25.11C28.5054 25.11 28.4793 25.1361 28.4793 25.1882C28.4096 25.236 28.3314 25.262 28.2446 25.2665C28.6358 24.8231 29.0529 24.4058 29.4963 24.0146Z" fill="#5972C4"/>
<path opacity="0.01" fill-rule="evenodd" clip-rule="evenodd" d="M28.8701 24.7969C28.8962 24.7969 28.9223 24.7969 28.9484 24.7969C28.9339 24.8493 28.9078 24.8493 28.8701 24.7969Z" fill="#7AA5FF"/>
<path opacity="0.01" fill-rule="evenodd" clip-rule="evenodd" d="M28.792 24.875C28.818 24.875 28.8442 24.875 28.8702 24.875C28.8558 24.9274 28.8296 24.9274 28.792 24.875Z" fill="#688EEE"/>
<path opacity="0.01" fill-rule="evenodd" clip-rule="evenodd" d="M28.7139 24.9531C28.7399 24.9531 28.7661 24.9531 28.7921 24.9531C28.7776 25.0055 28.7515 25.0055 28.7139 24.9531Z" fill="#688EEE"/>
<path opacity="0.016" fill-rule="evenodd" clip-rule="evenodd" d="M3.13355 25.0317C3.13355 25.0578 3.13355 25.0839 3.13355 25.11C3.08113 25.0723 3.08113 25.0462 3.13355 25.0317Z" fill="#5777CA"/>
<path opacity="0.01" fill-rule="evenodd" clip-rule="evenodd" d="M28.6357 25.0317C28.6618 25.0317 28.6879 25.0317 28.714 25.0317C28.6995 25.0842 28.6734 25.0842 28.6357 25.0317Z" fill="#688EEE"/>
<path opacity="0.01" fill-rule="evenodd" clip-rule="evenodd" d="M3.13379 25.1099C3.23808 25.162 3.23808 25.162 3.13379 25.1099Z" fill="#688EEE"/>
<path opacity="0.016" fill-rule="evenodd" clip-rule="evenodd" d="M28.5576 25.1099C28.5837 25.1099 28.6098 25.1099 28.6359 25.1099C28.6214 25.1623 28.5953 25.1623 28.5576 25.1099Z" fill="#5777CA"/>
<path opacity="0.816" fill-rule="evenodd" clip-rule="evenodd" d="M3.29004 25.0317C3.466 25.0771 3.59635 25.1814 3.68124 25.3447C3.62905 25.3447 3.57694 25.3447 3.52476 25.3447C3.44652 25.2404 3.36828 25.136 3.29004 25.0317Z" fill="#637ECA"/>
<path opacity="0.016" fill-rule="evenodd" clip-rule="evenodd" d="M28.479 25.188C28.5051 25.188 28.5312 25.188 28.5572 25.188C28.5428 25.2404 28.5166 25.2404 28.479 25.188Z" fill="#5777CA"/>
<path opacity="0.01" fill-rule="evenodd" clip-rule="evenodd" d="M3.52467 25.3447C3.52467 25.3708 3.52467 25.3969 3.52467 25.423C3.47225 25.3853 3.47225 25.3592 3.52467 25.3447Z" fill="#5678D0"/>
<path opacity="0.01" fill-rule="evenodd" clip-rule="evenodd" d="M3.5249 25.4229C3.6292 25.475 3.6292 25.475 3.5249 25.4229Z" fill="#688EEE"/>
<path opacity="0.816" fill-rule="evenodd" clip-rule="evenodd" d="M3.68115 25.3447C3.83012 25.3633 3.93449 25.4416 3.99411 25.5794C3.94192 25.5794 3.88982 25.5794 3.83763 25.5794C3.78545 25.5012 3.73334 25.423 3.68115 25.3447Z" fill="#607AC7"/>
<path opacity="0.031" fill-rule="evenodd" clip-rule="evenodd" d="M28.2444 25.2661C28.1922 25.3444 28.1401 25.4226 28.0879 25.5008C28.0357 25.5008 28.0097 25.5269 28.0097 25.5791C27.8902 25.5734 27.812 25.6256 27.775 25.7356C27.7228 25.7356 27.6968 25.7616 27.6968 25.8138C27.6192 25.8004 27.5671 25.8265 27.5403 25.8921C27.4881 25.8921 27.4621 25.9181 27.4621 25.9703C27.3845 25.9569 27.3324 25.983 27.3056 26.0486C27.2535 26.0486 27.2274 26.0746 27.2274 26.1268C27.1498 26.1133 27.0977 26.1395 27.0709 26.205C27.0188 26.205 26.9927 26.2311 26.9927 26.2833C26.9151 26.2698 26.863 26.296 26.8363 26.3615C26.7587 26.3481 26.7066 26.3742 26.6798 26.4398C26.5604 26.4341 26.4821 26.4863 26.4451 26.5963C26.3675 26.5828 26.3154 26.6089 26.2887 26.6745C26.2111 26.6611 26.159 26.6872 26.1322 26.7528C26.0546 26.7393 26.0025 26.7654 25.9758 26.831C25.8982 26.8175 25.8461 26.8437 25.8193 26.9092C25.7417 26.8958 25.6896 26.9219 25.6629 26.9875C25.5853 26.974 25.5332 27.0002 25.5064 27.0657C25.4288 27.0523 25.3767 27.0784 25.35 27.144C25.1894 27.1363 25.059 27.1885 24.9588 27.3005C24.8812 27.287 24.8291 27.3131 24.8024 27.3787C24.6459 27.4048 24.4895 27.4309 24.333 27.457C25.0063 27.1401 25.6842 26.8141 26.3669 26.4789C27.0105 26.0925 27.6363 25.6882 28.2444 25.2661Z" fill="#5973C5"/>
<path opacity="0.016" fill-rule="evenodd" clip-rule="evenodd" d="M28.0879 25.501C28.1922 25.5532 28.1922 25.5532 28.0879 25.501Z" fill="#6589E4"/>
<path opacity="0.016" fill-rule="evenodd" clip-rule="evenodd" d="M3.83766 25.5791C3.83766 25.6052 3.83766 25.6313 3.83766 25.6573C3.78523 25.6197 3.78523 25.5936 3.83766 25.5791Z" fill="#5777CA"/>
<path opacity="0.01" fill-rule="evenodd" clip-rule="evenodd" d="M28.0098 25.5791C28.0358 25.5791 28.062 25.5791 28.088 25.5791C28.0735 25.6315 28.0474 25.6315 28.0098 25.5791Z" fill="#7AA5FF"/>
<path opacity="0.01" fill-rule="evenodd" clip-rule="evenodd" d="M3.83789 25.6577C3.94218 25.7099 3.94218 25.7099 3.83789 25.6577Z" fill="#7AA5FF"/>
<path opacity="0.71" fill-rule="evenodd" clip-rule="evenodd" d="M3.99414 25.5795C4.11361 25.5738 4.19185 25.626 4.22886 25.736C4.10939 25.7417 4.03115 25.6895 3.99414 25.5795Z" fill="#5A76C5"/>
<path opacity="0.01" fill-rule="evenodd" clip-rule="evenodd" d="M28.0098 25.6577C27.9577 25.7099 27.9577 25.7099 28.0098 25.6577Z" fill="#5678D0"/>
<path opacity="0.01" fill-rule="evenodd" clip-rule="evenodd" d="M27.7754 25.7358C27.8797 25.788 27.8797 25.788 27.7754 25.7358Z" fill="#688EEE"/>
<path opacity="0.71" fill-rule="evenodd" clip-rule="evenodd" d="M4.229 25.7358C4.34848 25.7301 4.42672 25.7822 4.46372 25.8923C4.34425 25.898 4.26601 25.8458 4.229 25.7358Z" fill="#5874C3"/>
<path opacity="0.01" fill-rule="evenodd" clip-rule="evenodd" d="M27.6968 25.814C27.7228 25.814 27.749 25.814 27.775 25.814C27.7605 25.8664 27.7344 25.8664 27.6968 25.814Z" fill="#7AA5FF"/>
<path opacity="0.01" fill-rule="evenodd" clip-rule="evenodd" d="M27.5405 25.9703C27.5405 25.9443 27.5405 25.9181 27.5405 25.8921C27.5927 25.8921 27.6448 25.8921 27.697 25.8921C27.6702 25.9577 27.6181 25.9838 27.5405 25.9703Z" fill="#688EEE"/>
<path opacity="0.01" fill-rule="evenodd" clip-rule="evenodd" d="M4.30713 25.9707C4.41142 26.0229 4.41142 26.0229 4.30713 25.9707Z" fill="#7AA5FF"/>
<path opacity="0.627" fill-rule="evenodd" clip-rule="evenodd" d="M4.46338 25.8921C4.67447 25.9191 4.83095 26.0234 4.93282 26.205C4.88063 26.205 4.82852 26.205 4.77634 26.205C4.73933 26.095 4.66109 26.0429 4.54162 26.0486C4.51556 25.9964 4.48943 25.9443 4.46338 25.8921Z" fill="#5973C4"/>
<path opacity="0.01" fill-rule="evenodd" clip-rule="evenodd" d="M27.4624 25.9707C27.4885 25.9707 27.5146 25.9707 27.5406 25.9707C27.5262 26.0231 27.5 26.0231 27.4624 25.9707Z" fill="#7AA5FF"/>
<path opacity="0.016" fill-rule="evenodd" clip-rule="evenodd" d="M4.54176 26.0488C4.54176 26.0749 4.54176 26.101 4.54176 26.1271C4.48934 26.0894 4.48934 26.0633 4.54176 26.0488Z" fill="#5777CA"/>
<path opacity="0.01" fill-rule="evenodd" clip-rule="evenodd" d="M27.3057 26.1271C27.3057 26.101 27.3057 26.0749 27.3057 26.0488C27.3578 26.0488 27.41 26.0488 27.4621 26.0488C27.4354 26.1144 27.3833 26.1405 27.3057 26.1271Z" fill="#7AA5FF"/>
<path opacity="0.01" fill-rule="evenodd" clip-rule="evenodd" d="M4.54199 26.127C4.64629 26.1791 4.64629 26.1791 4.54199 26.127Z" fill="#7AA5FF"/>
<path opacity="0.01" fill-rule="evenodd" clip-rule="evenodd" d="M27.2275 26.127C27.2536 26.127 27.2797 26.127 27.3058 26.127C27.2913 26.1794 27.2652 26.1794 27.2275 26.127Z" fill="#5678D0"/>
<path opacity="0.01" fill-rule="evenodd" clip-rule="evenodd" d="M4.77644 26.2051C4.72426 26.2573 4.72426 26.2573 4.77644 26.2051Z" fill="#688EEE"/>
<path fill-rule="evenodd" clip-rule="evenodd" d="M4.93311 26.2833C4.93311 26.2573 4.93311 26.2311 4.93311 26.2051C5.08825 26.1782 5.19263 26.2304 5.24606 26.3616C5.14177 26.3355 5.0374 26.3094 4.93311 26.2833Z" fill="#909FDA"/>
<path opacity="0.01" fill-rule="evenodd" clip-rule="evenodd" d="M27.0713 26.2051C27.1756 26.2573 27.1756 26.2573 27.0713 26.2051Z" fill="#688EEE"/>
<path opacity="0.016" fill-rule="evenodd" clip-rule="evenodd" d="M4.93287 26.2837C4.93287 26.3097 4.93287 26.3359 4.93287 26.3619C4.88045 26.3243 4.88045 26.2982 4.93287 26.2837Z" fill="#5777CA"/>
<path opacity="0.016" fill-rule="evenodd" clip-rule="evenodd" d="M26.9927 26.2837C27.0187 26.2837 27.0449 26.2837 27.0709 26.2837C27.0564 26.3361 27.0303 26.3361 26.9927 26.2837Z" fill="#6589E4"/>
<path opacity="0.01" fill-rule="evenodd" clip-rule="evenodd" d="M4.93311 26.3618C5.0374 26.414 5.0374 26.414 4.93311 26.3618Z" fill="#5678D0"/>
<path opacity="0.01" fill-rule="evenodd" clip-rule="evenodd" d="M26.8364 26.3618C26.8886 26.3618 26.9407 26.3618 26.9929 26.3618C26.9407 26.4661 26.8886 26.4661 26.8364 26.3618Z" fill="#6E95F3"/>
<path opacity="0.357" fill-rule="evenodd" clip-rule="evenodd" d="M5.24561 26.3618C5.36508 26.356 5.44332 26.4082 5.48032 26.5182C5.36085 26.5239 5.28261 26.4718 5.24561 26.3618Z" fill="#4A62BD"/>
<path opacity="0.01" fill-rule="evenodd" clip-rule="evenodd" d="M26.6802 26.4399C26.7845 26.4921 26.7845 26.4921 26.6802 26.4399Z" fill="#7AA5FF"/>
<path opacity="0.016" fill-rule="evenodd" clip-rule="evenodd" d="M26.6803 26.5181C26.6281 26.5703 26.6281 26.5703 26.6803 26.5181Z" fill="#6589E4"/>
<path opacity="0.01" fill-rule="evenodd" clip-rule="evenodd" d="M5.4807 26.5966C5.44964 26.6768 5.39753 26.6899 5.32422 26.6358C5.37069 26.5995 5.42288 26.5864 5.4807 26.5966Z" fill="#5678D0"/>
<path opacity="0.01" fill-rule="evenodd" clip-rule="evenodd" d="M26.4453 26.5967C26.5496 26.6489 26.5496 26.6489 26.4453 26.5967Z" fill="#5678D0"/>
<path opacity="0.016" fill-rule="evenodd" clip-rule="evenodd" d="M26.2891 26.6748C26.3934 26.727 26.3934 26.727 26.2891 26.6748Z" fill="#5777CA"/>
<path opacity="0.016" fill-rule="evenodd" clip-rule="evenodd" d="M5.7932 26.7529C5.76214 26.8331 5.71003 26.8462 5.63672 26.792C5.68319 26.7557 5.73538 26.7426 5.7932 26.7529Z" fill="#5677CB"/>
<path opacity="0.01" fill-rule="evenodd" clip-rule="evenodd" d="M26.1323 26.7529C26.1845 26.7529 26.2366 26.7529 26.2888 26.7529C26.2366 26.8572 26.1845 26.8572 26.1323 26.7529Z" fill="#6E95F3"/>
<path opacity="0.01" fill-rule="evenodd" clip-rule="evenodd" d="M25.9761 26.8311C26.0804 26.8832 26.0804 26.8832 25.9761 26.8311Z" fill="#7AA5FF"/>
<path opacity="0.01" fill-rule="evenodd" clip-rule="evenodd" d="M25.8193 26.9879C25.8193 26.9619 25.8193 26.9357 25.8193 26.9097C25.8715 26.9097 25.9236 26.9097 25.9758 26.9097C25.9491 26.9752 25.8969 27.0014 25.8193 26.9879Z" fill="#678CEA"/>
<path opacity="0.01" fill-rule="evenodd" clip-rule="evenodd" d="M6.26292 26.9878C6.23186 27.068 6.17976 27.081 6.10645 27.0269C6.15292 26.9906 6.20511 26.9775 6.26292 26.9878Z" fill="#688EEE"/>
<path opacity="0.545" fill-rule="evenodd" clip-rule="evenodd" d="M5.48047 26.5963C5.48047 26.5703 5.48047 26.5441 5.48047 26.5181C6.70261 27.0125 7.92811 27.482 9.15713 27.9265C8.8964 27.8743 8.63559 27.8222 8.37486 27.77C8.21724 27.6586 8.03473 27.6064 7.82728 27.6135C7.64798 27.4752 7.43943 27.397 7.20146 27.3788C7.10133 27.2668 6.97093 27.2146 6.81033 27.2223C6.65966 27.082 6.47716 27.0037 6.26274 26.9875C6.13124 26.8695 5.97478 26.7913 5.79338 26.7528C5.71405 26.6609 5.60978 26.6088 5.48047 26.5963Z" fill="#667DC9"/>
<path opacity="0.01" fill-rule="evenodd" clip-rule="evenodd" d="M25.6631 26.9878C25.7153 26.9878 25.7674 26.9878 25.8196 26.9878C25.7674 27.0921 25.7153 27.0921 25.6631 26.9878Z" fill="#7AA5FF"/>
<path opacity="0.01" fill-rule="evenodd" clip-rule="evenodd" d="M25.5063 27.0659C25.6106 27.1181 25.6106 27.1181 25.5063 27.0659Z" fill="#7AA5FF"/>
<path opacity="0.016" fill-rule="evenodd" clip-rule="evenodd" d="M25.3501 27.144C25.4544 27.1962 25.4544 27.1962 25.3501 27.144Z" fill="#6589E4"/>
<path opacity="0.01" fill-rule="evenodd" clip-rule="evenodd" d="M6.81029 27.2226C6.77923 27.3028 6.72712 27.3159 6.65381 27.2617C6.70028 27.2254 6.75247 27.2124 6.81029 27.2226Z" fill="#6186E3"/>
<path opacity="0.01" fill-rule="evenodd" clip-rule="evenodd" d="M25.3503 27.2226C25.3193 27.3028 25.2672 27.3159 25.1938 27.2617C25.2403 27.2254 25.2925 27.2124 25.3503 27.2226Z" fill="#6286DF"/>
<path opacity="0.01" fill-rule="evenodd" clip-rule="evenodd" d="M24.959 27.3008C25.0633 27.353 25.0633 27.353 24.959 27.3008Z" fill="#7AA5FF"/>
<path opacity="0.016" fill-rule="evenodd" clip-rule="evenodd" d="M7.2014 27.3789C7.17034 27.4591 7.11823 27.4721 7.04492 27.418C7.0914 27.3817 7.14358 27.3686 7.2014 27.3789Z" fill="#5F83DD"/>
<path opacity="0.01" fill-rule="evenodd" clip-rule="evenodd" d="M24.8027 27.3789C24.8549 27.3789 24.907 27.3789 24.9592 27.3789C24.907 27.4832 24.8549 27.4832 24.8027 27.3789Z" fill="#678CEA"/>
<path opacity="0.01" fill-rule="evenodd" clip-rule="evenodd" d="M7.27979 27.457C7.38408 27.5092 7.38408 27.5092 7.27979 27.457Z" fill="#688EEE"/>
<path opacity="0.01" fill-rule="evenodd" clip-rule="evenodd" d="M24.646 27.457C24.7503 27.5092 24.7503 27.5092 24.646 27.457Z" fill="#5678D0"/>
<path opacity="0.01" fill-rule="evenodd" clip-rule="evenodd" d="M24.333 27.6139C24.333 27.5878 24.333 27.5617 24.333 27.5356C24.5417 27.5617 24.5417 27.5878 24.333 27.6139Z" fill="#6E95F3"/>
<path opacity="0.016" fill-rule="evenodd" clip-rule="evenodd" d="M7.82738 27.6137C7.79632 27.6939 7.74421 27.707 7.6709 27.6529C7.71737 27.6165 7.76956 27.6035 7.82738 27.6137Z" fill="#668AE7"/>
<path opacity="0.441" fill-rule="evenodd" clip-rule="evenodd" d="M24.3334 27.457C24.3334 27.4831 24.3334 27.5092 24.3334 27.5353C24.2558 27.5218 24.2037 27.5479 24.1769 27.6135C23.9981 27.6209 23.8416 27.6731 23.7076 27.77C23.4468 27.8222 23.186 27.8743 22.9253 27.9265C23.0113 27.8437 23.1157 27.7784 23.2382 27.7309C23.5977 27.6162 23.9628 27.5249 24.3334 27.457Z" fill="#5B72C1"/>
<path opacity="0.01" fill-rule="evenodd" clip-rule="evenodd" d="M24.1768 27.6138C24.2289 27.6138 24.2811 27.6138 24.3332 27.6138C24.2811 27.7181 24.2289 27.7181 24.1768 27.6138Z" fill="#6E95F3"/>
<path opacity="0.01" fill-rule="evenodd" clip-rule="evenodd" d="M7.90576 27.6919C8.01006 27.7441 8.01006 27.7441 7.90576 27.6919Z" fill="#688EEE"/>
<path opacity="0.01" fill-rule="evenodd" clip-rule="evenodd" d="M24.0205 27.6919C24.1248 27.7441 24.1248 27.7441 24.0205 27.6919Z" fill="#688EEE"/>
<path opacity="0.016" fill-rule="evenodd" clip-rule="evenodd" d="M8.37486 27.77C8.37486 27.7961 8.37486 27.8222 8.37486 27.8483C8.0619 27.8222 8.0619 27.7961 8.37486 27.77Z" fill="#668BE8"/>
<path opacity="0.01" fill-rule="evenodd" clip-rule="evenodd" d="M23.7075 27.8483C23.7075 27.8222 23.7075 27.7961 23.7075 27.77C23.9162 27.7961 23.9162 27.8222 23.7075 27.8483Z" fill="#739BF5"/>
<path opacity="0.01" fill-rule="evenodd" clip-rule="evenodd" d="M8.375 27.8486C8.43282 27.8383 8.485 27.8514 8.53148 27.8877C8.45817 27.9419 8.40606 27.9288 8.375 27.8486Z" fill="#7AA5FF"/>
<path opacity="0.01" fill-rule="evenodd" clip-rule="evenodd" d="M23.7073 27.8486C23.6762 27.9288 23.6241 27.9419 23.5508 27.8877C23.5973 27.8514 23.6494 27.8383 23.7073 27.8486Z" fill="#739BF5"/>
<path opacity="0.01" fill-rule="evenodd" clip-rule="evenodd" d="M8.76611 27.9268C8.87041 27.9789 8.87041 27.9789 8.76611 27.9268Z" fill="#7AA5FF"/>
<path opacity="0.01" fill-rule="evenodd" clip-rule="evenodd" d="M23.2378 28.0049C23.2689 27.9247 23.321 27.9117 23.3943 27.9658C23.3478 28.0021 23.2956 28.0152 23.2378 28.0049Z" fill="#6E95F3"/>
<path opacity="0.016" fill-rule="evenodd" clip-rule="evenodd" d="M8.92236 28.0831C8.95342 28.0029 9.00553 27.9898 9.07884 28.0439C9.03237 28.0803 8.98018 28.0933 8.92236 28.0831Z" fill="#6286DB"/>
<path opacity="0.712" fill-rule="evenodd" clip-rule="evenodd" d="M9.15723 27.9264C9.39605 27.8959 9.60468 27.9481 9.78304 28.0829C9.54875 28.099 9.34012 28.0469 9.15723 27.9264Z" fill="#6076C5"/>
<path opacity="0.01" fill-rule="evenodd" clip-rule="evenodd" d="M23.0034 28.0831C23.0345 28.0029 23.0866 27.9898 23.1599 28.0439C23.1134 28.0803 23.0612 28.0933 23.0034 28.0831Z" fill="#5677CD"/>
<path opacity="0.01" fill-rule="evenodd" clip-rule="evenodd" d="M9.15723 28.1612C9.18829 28.081 9.2404 28.0679 9.31371 28.1221C9.26723 28.1584 9.21505 28.1714 9.15723 28.1612Z" fill="#5B7FD9"/>
<path opacity="0.01" fill-rule="evenodd" clip-rule="evenodd" d="M22.7686 28.1612C22.7996 28.081 22.8517 28.0679 22.925 28.1221C22.8786 28.1584 22.8264 28.1714 22.7686 28.1612Z" fill="#6186E3"/>
<path opacity="0.01" fill-rule="evenodd" clip-rule="evenodd" d="M9.54834 28.2398C9.5794 28.1596 9.63151 28.1465 9.70482 28.2007C9.65834 28.237 9.60616 28.2501 9.54834 28.2398Z" fill="#7AA5FF"/>
<path opacity="0.01" fill-rule="evenodd" clip-rule="evenodd" d="M22.3774 28.1616C22.4353 28.1513 22.4874 28.1644 22.5339 28.2007C22.4606 28.2548 22.4085 28.2418 22.3774 28.1616Z" fill="#6E95F3"/>
<path opacity="0.016" fill-rule="evenodd" clip-rule="evenodd" d="M10.0179 28.2397C10.0179 28.2658 10.0179 28.2919 10.0179 28.318C9.70496 28.2919 9.70496 28.2658 10.0179 28.2397Z" fill="#6B91ED"/>
<path opacity="0.01" fill-rule="evenodd" clip-rule="evenodd" d="M22.1431 28.3179C22.1741 28.2377 22.2262 28.2247 22.2995 28.2788C22.2531 28.3151 22.2009 28.3282 22.1431 28.3179Z" fill="#5677CD"/>
<path opacity="0.01" fill-rule="evenodd" clip-rule="evenodd" d="M10.0176 28.3181C10.0999 28.3064 10.1781 28.3194 10.2523 28.3572C10.1546 28.4151 10.0763 28.402 10.0176 28.3181Z" fill="#688EEE"/>
<path opacity="0.01" fill-rule="evenodd" clip-rule="evenodd" d="M21.8301 28.3958C21.8888 28.3119 21.9671 28.2988 22.0648 28.3567C21.9906 28.3945 21.9124 28.4075 21.8301 28.3958Z" fill="#7AA5FF"/>
<path opacity="0.01" fill-rule="evenodd" clip-rule="evenodd" d="M10.4868 28.4745C10.5456 28.3905 10.6238 28.3774 10.7215 28.4353C10.6474 28.4731 10.5691 28.4861 10.4868 28.4745Z" fill="#7098F3"/>
<path fill-rule="evenodd" clip-rule="evenodd" d="M9.7832 28.083C10.937 28.2841 12.0844 28.4667 13.2252 28.6307C13.0166 28.6307 12.808 28.6307 12.5994 28.6307C12.4169 28.6307 12.2343 28.6307 12.0518 28.6307C11.7595 28.5142 11.4466 28.462 11.1131 28.4742C10.7697 28.3376 10.4046 28.2594 10.0179 28.2395C9.93966 28.1873 9.86143 28.1352 9.7832 28.083Z" fill="#7A8CD0"/>
<path opacity="0.016" fill-rule="evenodd" clip-rule="evenodd" d="M21.3604 28.4742C21.3604 28.4482 21.3604 28.422 21.3604 28.396C21.6733 28.422 21.6733 28.4482 21.3604 28.4742Z" fill="#5A7CD4"/>
<path opacity="0.01" fill-rule="evenodd" clip-rule="evenodd" d="M11.1128 28.4742C11.0266 28.5601 10.9223 28.5732 10.7998 28.5133C10.901 28.475 11.0053 28.4619 11.1128 28.4742Z" fill="#6E96F0"/>
<path opacity="0.016" fill-rule="evenodd" clip-rule="evenodd" d="M21.0479 28.4741C21.1521 28.4741 21.2565 28.4741 21.3608 28.4741C21.2565 28.5784 21.1521 28.5784 21.0479 28.4741Z" fill="#6387E3"/>
<path opacity="0.01" fill-rule="evenodd" clip-rule="evenodd" d="M11.1909 28.6307C11.2497 28.5468 11.3279 28.5337 11.4256 28.5916C11.3515 28.6294 11.2732 28.6424 11.1909 28.6307Z" fill="#759FFA"/>
<path opacity="0.01" fill-rule="evenodd" clip-rule="evenodd" d="M20.7349 28.6307C20.7936 28.5468 20.8719 28.5337 20.9696 28.5916C20.8954 28.6294 20.8172 28.6424 20.7349 28.6307Z" fill="#759FFA"/>
<path opacity="0.01" fill-rule="evenodd" clip-rule="evenodd" d="M12.0517 28.6309C11.9656 28.7168 11.8613 28.7299 11.7388 28.67C11.8399 28.6317 11.9443 28.6186 12.0517 28.6309Z" fill="#678CE8"/>
<path opacity="0.749" fill-rule="evenodd" clip-rule="evenodd" d="M22.9251 27.9268C22.7468 28.0168 22.5643 28.0951 22.3775 28.1615C22.0183 28.1914 21.6793 28.2696 21.3605 28.3962C21.2354 28.3752 21.1312 28.4014 21.0476 28.4744C20.7141 28.4622 20.4012 28.5144 20.1089 28.6309C17.8715 28.8749 15.6291 28.9271 13.3814 28.7874C13.1207 28.7352 12.8599 28.6831 12.5991 28.6309C12.8078 28.6309 13.0163 28.6309 13.2249 28.6309C13.5863 28.6946 13.9514 28.7207 14.3201 28.7092C14.9063 28.7613 15.506 28.7874 16.1193 28.7874C16.9445 28.8045 17.7529 28.7524 18.5444 28.6309C19.0126 28.5858 19.4819 28.5467 19.9524 28.5136C20.9452 28.3174 21.9361 28.1218 22.9251 27.9268Z" fill="#546EC2"/>
<path opacity="0.01" fill-rule="evenodd" clip-rule="evenodd" d="M20.1089 28.7091C20.1089 28.683 20.1089 28.6569 20.1089 28.6309C20.5261 28.6569 20.5261 28.683 20.1089 28.7091Z" fill="#6A90E9"/>
<path opacity="0.01" fill-rule="evenodd" clip-rule="evenodd" d="M12.1299 28.7873C12.243 28.7002 12.3734 28.6871 12.5211 28.7482C12.3932 28.7868 12.2628 28.7998 12.1299 28.7873Z" fill="#749DF6"/>
<path fill-rule="evenodd" clip-rule="evenodd" d="M18.5446 28.6309C17.7531 28.7524 16.9447 28.8045 16.1195 28.7873C15.5062 28.7873 14.9065 28.7612 14.3203 28.7091C15.7296 28.7247 17.1377 28.6986 18.5446 28.6309Z" fill="#CDD7F3"/>
<path opacity="0.01" fill-rule="evenodd" clip-rule="evenodd" d="M20.109 28.7092C19.9958 28.7963 19.8654 28.8093 19.7178 28.7483C19.8456 28.7097 19.976 28.6967 20.109 28.7092Z" fill="#597BD3"/>
<path opacity="0.01" fill-rule="evenodd" clip-rule="evenodd" d="M12.7554 28.8656C12.8141 28.7816 12.8924 28.7686 12.9901 28.8264C12.9159 28.8642 12.8377 28.8772 12.7554 28.8656Z" fill="#6388E6"/>
<path opacity="0.01" fill-rule="evenodd" clip-rule="evenodd" d="M13.3817 28.7873C13.3229 28.8713 13.2447 28.8844 13.147 28.8265C13.2211 28.7887 13.2994 28.7757 13.3817 28.7873Z" fill="#7AA5FF"/>
<path opacity="0.01" fill-rule="evenodd" clip-rule="evenodd" d="M18.8574 28.8658C18.8885 28.7856 18.9406 28.7725 19.0139 28.8267C18.9674 28.863 18.9152 28.876 18.8574 28.8658Z" fill="#7AA5FF"/>
<path opacity="0.01" fill-rule="evenodd" clip-rule="evenodd" d="M19.2485 28.8658C19.2796 28.7856 19.3317 28.7725 19.405 28.8267C19.3585 28.863 19.3064 28.876 19.2485 28.8658Z" fill="#5B7FD9"/>
<path opacity="0.016" fill-rule="evenodd" clip-rule="evenodd" d="M13.4595 28.9437C13.6524 28.855 13.861 28.842 14.0853 28.9046C13.8783 28.9435 13.6697 28.9566 13.4595 28.9437Z" fill="#688DE7"/>
<path opacity="0.01" fill-rule="evenodd" clip-rule="evenodd" d="M18.1533 28.9437C18.3462 28.855 18.5549 28.842 18.7791 28.9046C18.5721 28.9435 18.3635 28.9566 18.1533 28.9437Z" fill="#678CE8"/>
<path opacity="0.016" fill-rule="evenodd" clip-rule="evenodd" d="M14.2417 29.022C14.5398 28.9324 14.8527 28.9194 15.1804 28.9829C14.8686 29.0219 14.5557 29.035 14.2417 29.022Z" fill="#6A90EC"/>
<path opacity="0.01" fill-rule="evenodd" clip-rule="evenodd" d="M17.0581 29.022C17.3562 28.9324 17.6691 28.9194 17.9968 28.9829C17.685 29.0219 17.3721 29.035 17.0581 29.022Z" fill="#6990ED"/>
</g>
<defs>
<clipPath id="clip0_4573_45">
<rect width="32" height="32" fill="white"/>
</clipPath>
</defs>
</svg>
