<svg width="32" height="32" viewBox="0 0 35 36" fill="none" xmlns="http://www.w3.org/2000/svg">
    <path
        d="M17.4678 34.1934C26.3043 34.1934 33.4678 27.0299 33.4678 18.1934C33.4678 9.3568 26.3043 2.19336 17.4678 2.19336C8.63122 2.19336 1.46777 9.3568 1.46777 18.1934C1.46777 27.0299 8.63122 34.1934 17.4678 34.1934Z"
        stroke="#E22653" stroke-width="2.79615" />
    <path
        d="M16.94 11.8838C16.0421 11.8838 15.153 12.0607 14.3234 12.4043C13.4939 12.7479 12.7401 13.2516 12.1052 13.8865C11.4703 14.5214 10.9666 15.2752 10.623 16.1048C10.2794 16.9343 10.1025 17.8235 10.1025 18.7214C10.1025 19.6193 10.2794 20.5085 10.623 21.3381C10.9666 22.1676 11.4703 22.9214 12.1052 23.5563C12.7401 24.1913 13.4939 24.6949 14.3234 25.0385C15.153 25.3822 16.0421 25.559 16.94 25.559C18.7534 25.559 20.4926 24.8386 21.7748 23.5563C23.0571 22.274 23.7774 20.5349 23.7774 18.7214C23.7764 17.7507 23.5686 16.7913 23.1679 15.907C22.7673 15.0228 22.1829 14.2341 21.4538 13.5932H24.8458V11.8838H17.1537V11.8938C17.0825 11.8893 17.0113 11.886 16.94 11.8838ZM16.94 13.5932C17.6134 13.5932 18.2803 13.7259 18.9024 13.9836C19.5246 14.2413 20.0899 14.619 20.5661 15.0952C21.0423 15.5714 21.42 16.1368 21.6777 16.7589C21.9354 17.3811 22.0681 18.048 22.0681 18.7214C22.0681 20.0815 21.5278 21.3859 20.5661 22.3476C19.6044 23.3093 18.3001 23.8496 16.94 23.8496C16.2666 23.8496 15.5998 23.717 14.9776 23.4592C14.3554 23.2016 13.7901 22.8238 13.3139 22.3476C12.8377 21.8714 12.46 21.3061 12.2023 20.6839C11.9445 20.0617 11.8119 19.3949 11.8119 18.7214C11.8119 18.048 11.9445 17.3811 12.2023 16.7589C12.46 16.1368 12.8377 15.5714 13.3139 15.0952C13.7901 14.619 14.3554 14.2413 14.9776 13.9836C15.5998 13.7259 16.2666 13.5932 16.94 13.5932Z"
        fill="#E22653" />
</svg>