<svg width="32" height="32" viewBox="0 0 33 33" fill="none" xmlns="http://www.w3.org/2000/svg">
    <path fill-rule="evenodd" clip-rule="evenodd"
        d="M14.2202 0.454917C15.6722 0.385306 17.1014 0.52436 18.5078 0.87208C23.0812 3.18964 27.6546 5.50724 32.228 7.8248C32.5907 8.41954 32.5907 9.02211 32.228 9.63251C29.5142 10.9989 26.8462 12.4357 24.2245 13.9432C26.7267 14.904 28.966 16.2482 30.9417 17.9758C32.7184 21.325 32.099 24.1523 29.0837 26.4581C25.5459 28.55 21.9255 30.4968 18.2219 32.2984C17.2692 32.4839 16.3162 32.4839 15.3635 32.2984C10.4597 29.9592 5.60048 27.5488 0.78583 25.0675C0.404723 24.4187 0.404723 23.7696 0.78583 23.1208C3.54445 21.8718 6.21245 20.4812 8.78928 18.9492C6.28706 17.9884 4.04781 16.6442 2.0721 14.9166C0.107824 11.2273 0.917716 8.30718 4.50172 6.15615C7.78999 4.29376 11.0297 2.39336 14.2202 0.454917Z"
        fill="#4E3CD9" />
    <path fill-rule="evenodd" clip-rule="evenodd"
        d="M14.7918 2.67909C15.5598 2.63345 16.3221 2.67981 17.0785 2.81814C21.0296 4.69388 24.9361 6.64064 28.7978 8.65843C26.3913 10.0378 23.9617 11.382 21.5089 12.691C19.5781 11.6821 17.625 10.7087 15.6493 9.77086C13.6361 9.38034 13.1596 10.0293 14.2201 11.7176C15.7547 12.4611 17.2791 13.2027 18.7935 13.9425C16.3819 15.2315 13.9522 16.483 11.5046 17.697C9.10787 16.6469 6.77344 15.4881 4.5016 14.2206C2.91549 12.2888 3.01067 10.4348 4.78744 8.65843C8.17147 6.70338 11.5061 4.71026 14.7918 2.67909Z"
        fill="#FCFCFE" />
    <path fill-rule="evenodd" clip-rule="evenodd"
        d="M21.0802 15.1953C23.6613 16.1264 26.1387 17.2852 28.512 18.6717C30.0981 20.6034 30.0029 22.4576 28.2262 24.2338C24.7961 26.1806 21.3661 28.1274 17.936 30.0741C17.2692 30.2596 16.602 30.2596 15.9352 30.0741C11.9386 28.2228 8.03204 26.2298 4.21582 24.0948C6.66831 22.8322 9.09792 21.5345 11.5047 20.2013C13.4355 21.2102 15.3886 22.1836 17.3643 23.1214C19.1231 23.6354 19.6948 23.0791 19.0794 21.4528C17.4144 20.6893 15.7945 19.8549 14.2201 18.9498C16.5709 17.7611 18.8576 16.5096 21.0802 15.1953Z"
        fill="#FCFBFE" />
</svg>