<svg width="32" height="32" viewBox="0 0 32 32" fill="none" xmlns="http://www.w3.org/2000/svg">
<g clip-path="url(#clip0_133_14)">
<path d="M2 8.843C2 13.726 5.971 17.686 10.868 17.686V0C5.971 0 2 3.96 2 8.843ZM14.242 7.158C14.242 11.11 17.456 14.316 21.421 14.316V0C17.457 0 14.242 3.205 14.242 7.158ZM24.785 5.47C24.785 8.493 27.243 10.942 30.272 10.942V0C27.241 0 24.785 2.45 24.785 5.47Z" fill="#21FC0D"/>
<path d="M21.414 14.3135V31.9985C26.311 31.9985 30.282 28.0385 30.282 23.1555C30.282 18.2725 26.312 14.3135 21.414 14.3135ZM10.867 17.6855V32.0005C14.831 32.0005 18.046 28.7955 18.046 24.8425C18.046 20.8905 14.831 17.6855 10.867 17.6855ZM2 21.0375V32.0005C5.036 32.0005 7.497 29.5465 7.497 26.5195C7.497 23.4915 5.037 21.0375 2 21.0375Z" fill="#21FC0D"/>
</g>
<defs>
<clipPath id="clip0_133_14">
<rect width="32" height="32" fill="white"/>
</clipPath>
</defs>
</svg>
