<svg width="32" height="32" viewBox="0 0 32 32" fill="none" xmlns="http://www.w3.org/2000/svg">
<path opacity="0.995" fill-rule="evenodd" clip-rule="evenodd" d="M5.30571 5.10938C5.65911 5.10938 6.01255 5.10938 6.36595 5.10938C7.95236 5.30416 9.26157 6.01098 10.2937 7.22986C10.7825 7.91892 11.2403 8.62575 11.6672 9.35034C10.8845 10.5781 10.0893 11.799 9.28161 13.013C7.70441 14.7756 5.7526 15.4101 3.42619 14.9166C2.40608 14.6158 1.52255 14.0937 0.77559 13.3503C0.105682 12.0288 -0.0308643 10.6473 0.365951 9.20576C1.17653 6.82867 2.82311 5.46321 5.30571 5.10938Z" fill="#F6B30C"/>
<path opacity="0.997" fill-rule="evenodd" clip-rule="evenodd" d="M18.7989 5.10938C19.1683 5.10938 19.5378 5.10938 19.9073 5.10938C21.9825 5.42821 23.5327 6.50451 24.5579 8.33829C26.6351 11.4814 28.6994 14.63 30.7507 17.7841C30.7346 17.7841 30.7185 17.7841 30.7025 17.7841C29.7364 16.5053 28.4512 15.7583 26.847 15.5431C24.6289 15.3633 22.8538 16.1584 21.5217 17.9287C21.1643 18.4701 20.8189 19.0163 20.4856 19.5672C20.0929 20.095 19.7234 20.6411 19.3772 21.2058C18.4018 22.6793 17.2612 24.0207 15.9555 25.2299C15.2962 25.8168 14.5573 26.2827 13.7386 26.6274C13.491 26.7295 13.234 26.7858 12.9675 26.7961C11.9273 26.4227 11.0519 25.8123 10.341 24.9648C8.44454 22.103 6.57307 19.2275 4.72656 16.3383C7.03263 16.7022 8.9202 15.9793 10.3892 14.1696C11.1581 13.0326 11.8891 11.8759 12.582 10.6997C13.2875 9.67516 13.9703 8.63099 14.6302 7.56721C15.6691 6.15024 17.0587 5.33097 18.7989 5.10938Z" fill="#DF4B44"/>
<path opacity="0.998" fill-rule="evenodd" clip-rule="evenodd" d="M11.6689 9.34961C11.9973 9.78094 12.3026 10.2307 12.5846 10.699C11.8917 11.8752 11.1607 13.0318 10.3918 14.1689C8.92279 15.9786 7.03522 16.7015 4.72915 16.3376C3.33396 16.0339 2.1934 15.3271 1.30746 14.2171C1.08253 13.9605 0.905826 13.6713 0.777344 13.3496C1.5243 14.0929 2.40784 14.6151 3.42795 14.9159C5.75436 15.4094 7.70616 14.7749 9.28337 13.0123C10.091 11.7982 10.8862 10.5774 11.6689 9.34961Z" fill="#DEA10C"/>
<path opacity="0.988" fill-rule="evenodd" clip-rule="evenodd" d="M1.30469 14.2188C2.19062 15.3288 3.33118 16.0356 4.72637 16.3392C6.57288 19.2284 8.44435 22.104 10.3408 24.9657C11.0517 25.8132 11.9271 26.4237 12.9673 26.7971C12.9673 26.8131 12.9673 26.8292 12.9673 26.8453C12.6621 26.8453 12.3569 26.8453 12.0517 26.8453C10.4901 26.6549 9.19698 25.9641 8.17216 24.773C5.85799 21.2686 3.56884 17.7505 1.30469 14.2188Z" fill="#C9433C"/>
<path fill-rule="evenodd" clip-rule="evenodd" d="M30.7039 17.7834C28.6631 16.5886 26.6069 16.5645 24.5352 17.7111C23.9208 18.1005 23.3988 18.5905 22.9689 19.181C22.4678 19.9307 21.9778 20.6857 21.4991 21.4461C22.0101 22.4429 22.6687 23.3345 23.475 24.1208C25.282 25.5174 27.2579 25.8066 29.4027 24.9882C30.0987 24.6569 30.7252 24.2312 31.2822 23.7111C30.3022 25.5187 28.7922 26.5628 26.7521 26.8437C26.3826 26.8437 26.0131 26.8437 25.6436 26.8437C24.0856 26.6549 22.7924 25.9641 21.7641 24.7714C21.326 24.1357 20.9003 23.4931 20.487 22.8437C20.8429 22.4062 21.1642 21.9403 21.4509 21.4461C21.0975 20.8999 20.744 20.3537 20.3906 19.8075C20.4367 19.7316 20.4688 19.6513 20.487 19.5666C20.8203 19.0156 21.1657 18.4694 21.5232 17.928C22.8553 16.1578 24.6303 15.3626 26.8485 15.5425C28.4526 15.7576 29.7378 16.5046 30.7039 17.7834Z" fill="#7F5BC1"/>
<path opacity="0.998" fill-rule="evenodd" clip-rule="evenodd" d="M30.7048 17.7837C30.7209 17.7837 30.737 17.7837 30.753 17.7837C30.7495 17.8573 30.7816 17.9055 30.8494 17.9283C31.4091 18.6828 31.7385 19.5341 31.8373 20.4825C31.9637 21.615 31.7789 22.6913 31.2831 23.7114C30.7262 24.2315 30.0997 24.6572 29.4036 24.9885C27.2588 25.8069 25.2829 25.5177 23.4759 24.1211C22.6697 23.3348 22.011 22.4432 21.5 21.4464C21.9787 20.686 22.4687 19.931 22.9699 19.1813C23.3997 18.5908 23.9218 18.1008 24.5361 17.7114C26.6078 16.5648 28.664 16.5889 30.7048 17.7837Z" fill="#8C65D7"/>
<path opacity="0.998" fill-rule="evenodd" clip-rule="evenodd" d="M20.4873 19.5664C20.4692 19.6511 20.437 19.7315 20.391 19.8074C20.7444 20.3535 21.0978 20.8998 21.4512 21.4459C21.1645 21.9401 20.8432 22.406 20.4873 22.8435C20.1178 22.2973 19.7484 21.7511 19.3789 21.205C19.7252 20.6403 20.0946 20.0942 20.4873 19.5664Z" fill="#7252AD"/>
</svg>
