<svg width="32" height="32" viewBox="0 0 32 32" fill="none" xmlns="http://www.w3.org/2000/svg">
    <rect width="32" height="32" fill="#067BE0" />
    <path fill-rule="evenodd" clip-rule="evenodd"
        d="M8.5332 27.8163C8.5332 27.6384 8.5332 27.4608 8.5332 27.2829C8.78832 26.6101 9.14388 25.9877 9.59987 25.4163C12.2055 27.0955 14.9611 27.4067 17.8665 26.3496C20.9367 24.1475 21.2922 21.5696 18.9332 18.6163C16.7529 17.3928 14.5307 16.2371 12.2665 15.1496C8.89241 12.5794 8.22574 9.42382 10.2665 5.68294C13.356 2.66976 16.956 1.91422 21.0665 3.41627C21.5259 3.55579 21.8815 3.82246 22.1332 4.21627C21.9441 4.91739 21.6775 5.58406 21.3332 6.21627C19.2971 5.26283 17.1638 4.95174 14.9332 5.28294C11.6593 7.07094 11.126 9.47094 13.3332 12.4829C16.0115 13.8445 18.6338 15.3111 21.1999 16.8829C22.0218 17.7253 22.6441 18.7029 23.0665 19.8163C23.8001 22.9781 22.9556 25.6005 20.5332 27.6829C16.5541 29.5931 12.5541 29.6376 8.5332 27.8163Z"
        fill="#FAFAFA" />
</svg>