<svg width="32" height="32" viewBox="0 0 33 33" fill="none" xmlns="http://www.w3.org/2000/svg">
    <path opacity="0.966" fill-rule="evenodd" clip-rule="evenodd"
        d="M16.3399 0.5C16.4199 0.5 16.4999 0.5 16.5799 0.5C17.5165 2.28997 18.4231 4.1033 19.2999 5.94C18.557 7.47029 17.8236 9.00933 17.0999 10.5571C17.0038 10.7774 16.8705 10.9603 16.6999 11.1057C15.7035 9.33196 14.7568 7.51863 13.8599 5.66571C14.6767 3.93545 15.5035 2.21355 16.3399 0.5Z"
        fill="black" />
    <path opacity="0.978" fill-rule="evenodd" clip-rule="evenodd"
        d="M0.5 32.3172C0.5 32.1648 0.5 32.0125 0.5 31.8601C4.47806 24.0788 8.43806 16.277 12.38 8.45434C12.4391 8.35613 12.5191 8.29517 12.62 8.27148C12.7894 8.41154 12.9227 8.5944 13.02 8.82006C16.8904 16.5852 20.7704 24.3413 24.66 32.0886C24.6412 32.1684 24.6145 32.2447 24.58 32.3172C22.8466 32.4391 21.1134 32.4391 19.38 32.3172C17.1266 27.8372 14.8734 23.3572 12.62 18.8772C11.2567 21.5209 9.88344 24.1571 8.5 26.7858C9.26616 26.8022 10.0262 26.8479 10.78 26.9229C11.353 26.0401 11.8864 25.1258 12.38 24.1801C12.4706 24.0236 12.5906 23.9779 12.74 24.0429C14.0675 26.7115 15.3742 29.3934 16.66 32.0886C16.5772 32.2051 16.4838 32.3117 16.38 32.4086C11.0877 32.4353 5.79431 32.4048 0.5 32.3172Z"
        fill="#C054F8" />
    <path opacity="0.974" fill-rule="evenodd" clip-rule="evenodd"
        d="M32.3401 32.5C30.7135 32.5 29.0867 32.5 27.4601 32.5C27.3651 32.421 27.2717 32.3296 27.1801 32.2257C24.347 26.5118 21.4937 20.8127 18.6201 15.1285C18.5667 15.0067 18.5667 14.8847 18.6201 14.7628C19.4667 13.3461 20.2933 11.9137 21.1001 10.4657C21.1816 10.3572 21.275 10.2657 21.3801 10.1914C21.6255 10.5376 21.8521 10.9034 22.0601 11.2885C25.5616 18.2256 29.0416 25.1742 32.5001 32.1343C32.4799 32.2781 32.4267 32.4 32.3401 32.5Z"
        fill="black" />
</svg>