<svg width="32" height="32" viewBox="0 0 32 32" fill="none" xmlns="http://www.w3.org/2000/svg">
    <rect width="32" height="32" fill="#3A5A91" />
    <path fill-rule="evenodd" clip-rule="evenodd"
        d="M12.1328 13.2965C11.676 10.9783 12.4276 8.30404 14.1936 6.6774C15.5338 5.44274 17.4859 4.86341 19.2937 4.9168C21.2489 4.97475 23.2445 5.90447 23.9534 7.82043C24.3955 9.01564 23.9889 10.1923 23.2501 11.1716C22.9075 11.6259 22.5087 12.0369 22.0963 12.4293C21.7347 12.7737 21.2453 13.0977 20.9792 13.5269C20.4071 14.4502 21.6849 15.4458 22.5082 15.61C23.4606 15.8002 24.5434 15.4044 25.3153 14.8592C26.6562 13.9117 27.1884 12.2836 27.1996 10.7099C27.2275 6.87652 24.7879 3.5821 20.9245 2.85318C16.4937 2.01701 11.735 4.05177 9.37538 7.86059C8.18559 9.78135 7.66822 12.0823 8.04464 14.3138C8.41888 16.5332 9.65654 18.0736 11.0599 19.7594C12.2587 21.1989 13.8966 23.0418 13.6035 25.0604C13.3331 26.9235 11.0755 28.0665 9.4213 27.0423C8.35132 26.3797 8.15108 25.1629 8.23905 24.0078C8.29592 23.2589 8.59944 22.0142 7.43638 22.0745C5.25997 22.1878 4.42255 25.0599 4.95548 26.7861C6.27211 31.0514 12.6242 30.4312 15.0915 27.6932C16.3442 26.303 16.8978 24.4065 16.6925 22.5649C16.4332 20.2384 14.9382 18.5206 13.6755 16.6443C12.9841 15.6172 12.3739 14.5199 12.1328 13.2965Z"
        fill="#FAFAFA" />
</svg>