<svg width="32" height="32" viewBox="0 0 33 33" fill="none" xmlns="http://www.w3.org/2000/svg">
    <path fill-rule="evenodd" clip-rule="evenodd"
        d="M6.36551 0.5C13.0309 0.5 19.6962 0.5 26.3616 0.5C29.2546 1.0866 31.2542 2.77549 32.3604 5.56667C32.4049 9.16667 32.4492 12.7667 32.4937 16.3667C32.5316 20.2507 32.3983 24.1174 32.0938 27.9667C30.8932 30.4075 28.9827 31.9187 26.3616 32.5C19.6962 32.5 13.0309 32.5 6.36551 32.5C3.19616 31.464 1.24099 29.3307 0.5 26.1C0.5 19.5222 0.5 12.9445 0.5 6.36667C1.47528 3.43563 3.43046 1.48008 6.36551 0.5Z"
        fill="#72B6C1" />
    <path fill-rule="evenodd" clip-rule="evenodd"
        d="M14.8973 6.63378C16.4994 6.58946 18.0991 6.63392 19.6963 6.76712C17.6684 10.1278 15.5355 13.4167 13.2976 16.6338C11.6905 16.8552 10.0909 16.8107 8.49854 16.5005C10.7007 13.2494 12.8336 9.96056 14.8973 6.63378Z"
        fill="#FBFDFD" />
    <path fill-rule="evenodd" clip-rule="evenodd"
        d="M8.49854 18.1006C10.0094 18.1006 11.5202 18.1006 13.031 18.1006C13.1643 21.2119 14.764 22.5007 17.83 21.9673C19.5404 21.2592 20.3402 19.9703 20.2296 18.1006C21.7404 18.1006 23.2512 18.1006 24.762 18.1006C24.5304 23.3988 21.7754 26.2433 16.497 26.6339C11.3632 26.121 8.69708 23.2765 8.49854 18.1006Z"
        fill="#FCFDFD" />
</svg>