<svg width="32" height="32" viewBox="0 0 32 32" fill="none" xmlns="http://www.w3.org/2000/svg">
    <path opacity="0.6"
        d="M27.8321 24.7343C30.5332 24.7343 31.5692 19.5799 31.9479 16.3423L23.7329 16.3086C23.8523 17.4726 24.0382 18.6287 24.2899 19.771C24.8468 22.0362 25.8995 24.7343 27.8321 24.7343Z"
        fill="#3A95C9" />
    <path opacity="0.65"
        d="M11.9968 16.0782H12.024C12.2208 14.7614 12.5008 13.4597 12.8619 12.1819C12.1493 9.55381 10.8869 7.04004 8.68352 7.04004C5.23408 7.04004 4.05872 13.393 3.71056 16.1182C3.34608 18.9748 2.39392 23.4482 0 24.8365H7.1056C10.381 24.8479 11.5725 19.3518 11.9968 16.0782Z"
        fill="#3A95C9" />
    <path
        d="M10.9061 7.22853C12.0348 7.98248 13.1471 9.6389 13.8957 12.9403C13.8933 12.9745 13.8933 13.0089 13.8957 13.0431C13.8957 13.1059 13.9229 13.1631 13.9338 13.2259C14.1399 14.1626 14.2865 15.0765 14.3841 15.8647V16.0761V16.2303C14.7693 19.149 15.7893 23.8727 18.3829 24.7351C18.4645 24.764 18.5479 24.7869 18.6325 24.8037H18.7465L18.9146 24.8322C19.0141 24.838 19.1137 24.838 19.2132 24.8322H25.7241C24.6389 24.1068 23.825 22.4561 23.2337 19.8858C22.9261 18.5015 22.7069 17.0971 22.5772 15.682C22.1268 12.2549 20.9169 7.04004 17.6938 7.04004H10.6729L10.8791 7.1657L10.9061 7.22853Z"
        fill="#3A95C9" />
</svg>