<svg width="32" height="32" viewBox="0 0 33 33" fill="none" xmlns="http://www.w3.org/2000/svg">
    <path fill-rule="evenodd" clip-rule="evenodd"
        d="M14.5685 0.446316C23.5316 0.0805513 29.5059 4.0819 32.4917 12.4504C33.9996 22.3413 30.0333 28.8936 20.5931 32.1071C12.818 33.396 6.84361 30.7452 2.66992 24.1544C-1.05891 15.5987 0.798673 8.54628 8.24267 2.99718C10.2571 1.81385 12.3657 0.963541 14.5685 0.446316Z"
        fill="#5C73C7" />
    <path fill-rule="evenodd" clip-rule="evenodd"
        d="M13.6648 2.54735C19.3767 1.72588 24.1462 3.42647 27.9732 7.64909C32.7796 14.9206 32.0266 21.5729 25.714 27.6059C22.1048 30.2047 18.0884 31.1051 13.6648 30.3068C8.09469 28.7589 4.53012 25.2077 2.97113 19.6532C1.96054 11.0555 5.52508 5.35355 13.6648 2.54735Z"
        fill="#5A72C7" />
    <path fill-rule="evenodd" clip-rule="evenodd"
        d="M15.1707 6.14839C16.815 6.02934 18.4215 6.17939 19.9904 6.59854C20.8486 7.36662 21.0996 8.31695 20.7434 9.44951C20.5928 9.99969 20.2414 10.3498 19.6891 10.4999C16.4143 9.87457 14.4061 11.125 13.6645 14.2511C13.6543 15.1315 13.9053 15.9317 14.4176 16.652C14.4968 19.5665 13.1914 20.3668 10.5016 19.0528C7.68072 13.1261 9.23708 8.82467 15.1707 6.14839Z"
        fill="#FAFAFA" />
    <path fill-rule="evenodd" clip-rule="evenodd"
        d="M19.6896 12.4503C21.7213 12.218 22.9764 13.1183 23.4549 15.1512C24.6287 21.5182 22.0181 25.2195 15.623 26.255C12.7143 26.3641 11.6098 25.0636 12.3094 22.3536C13.2194 21.4421 14.2737 21.2421 15.4723 21.7534C18.1587 21.2314 19.4138 19.6309 19.2377 16.9518C18.1122 15.2593 18.2628 13.7588 19.6896 12.4503Z"
        fill="#29AAED" />
</svg>