<svg width="32" height="32" viewBox="0 0 32 32" fill="none" xmlns="http://www.w3.org/2000/svg">
    <path opacity="0.8" fill-rule="evenodd" clip-rule="evenodd"
        d="M16.25 0C16.7407 1.44431 17.074 2.95516 17.25 4.53257C17 4.53257 16.75 4.53257 16.5 4.53257C16.5 5.03619 16.5 5.53981 16.5 6.04343C16 6.04343 15.5 6.04343 15 6.04343C14.9633 4.85635 15.0466 3.68123 15.25 2.5181C15.5 2.5181 15.75 2.5181 16 2.5181C16.0833 1.67873 16.1667 0.839364 16.25 0Z"
        fill="#ECD914" />
    <path opacity="0.769" fill-rule="evenodd" clip-rule="evenodd"
        d="M4.75 5.03516C5.40757 5.57103 6.03257 6.15858 6.625 6.79782C6.73065 6.43116 6.93897 6.30526 7.25 6.42011C7.95832 7.13356 8.66667 7.84704 9.375 8.56049C9.43487 9.1842 9.22655 9.72977 8.75 10.1973C8.07205 9.92784 7.61372 9.38224 7.375 8.56049C7.13367 9.00375 6.842 9.0877 6.5 8.8123C5.84542 7.57808 5.2621 6.31903 4.75 5.03516Z"
        fill="#3EAAE0" />
    <path opacity="0.754" fill-rule="evenodd" clip-rule="evenodd"
        d="M27.5 5.03432C27.6847 5.00134 27.8515 5.04331 28 5.16023C27.343 6.35756 26.718 7.57463 26.125 8.81147C25.7687 8.99083 25.3937 9.03281 25 8.93737C24.0742 10.7816 23.5325 10.6557 23.375 8.55966C23.907 7.77147 24.532 7.05802 25.25 6.41928C25.624 6.29151 25.9157 6.41741 26.125 6.79699C26.5415 6.16855 27 5.581 27.5 5.03432Z"
        fill="#6DC059" />
    <path opacity="0.844" fill-rule="evenodd" clip-rule="evenodd"
        d="M15.25 8.5625C21.4421 8.96363 24.0671 12.2372 23.125 18.3831C22.3952 19.9386 21.4785 21.3655 20.375 22.6638C20.3352 24.0277 20.1685 25.3708 19.875 26.6928C19.5715 27.0828 19.1965 27.3764 18.75 27.5741C17 27.7421 15.25 27.7421 13.5 27.5741C13.1048 27.3961 12.7298 27.1863 12.375 26.9446C12.1123 25.4413 11.8623 23.9304 11.625 22.412C10.1708 20.9094 9.17081 19.1468 8.62499 17.124C8.50676 12.398 10.7151 9.54415 15.25 8.5625ZM15.25 10.0734C19.8743 10.3232 22.0826 12.7573 21.875 17.3758C20.9738 19.0378 19.9738 20.6326 18.875 22.1602C18.7917 23.3353 18.7083 24.5104 18.625 25.6855C18.5 25.8115 18.375 25.9374 18.25 26.0633C16.6878 26.267 15.1461 26.2249 13.625 25.9374C13.5682 24.5783 13.4015 23.2353 13.125 21.9084C12.2917 20.7333 11.4583 19.5582 10.625 18.3831C9.45104 14.0699 10.9927 11.3 15.25 10.0734Z"
        fill="#7DC241" />
    <path opacity="0.783" fill-rule="evenodd" clip-rule="evenodd"
        d="M2.5 13.8477C3.7574 13.9687 5.0074 14.1365 6.25 14.3513C6.3269 14.9617 6.24355 15.5492 6 16.1139C5.44265 15.8427 4.8593 15.6749 4.25 15.6103C4.28737 15.8752 4.2457 16.127 4.125 16.3658C2.75432 15.7372 1.37931 15.1077 0 14.4772C0.837297 14.3796 1.67063 14.4216 2.5 14.6031C2.5 14.3513 2.5 14.0995 2.5 13.8477Z"
        fill="#EE4075" />
    <path opacity="0.78" fill-rule="evenodd" clip-rule="evenodd"
        d="M28.5 13.8477C28.8333 13.8477 29.1668 13.8477 29.5 13.8477C29.5 14.0995 29.5 14.3513 29.5 14.6031C30.3293 14.4216 31.1628 14.3796 32 14.4772C30.7275 15.139 29.4358 15.7685 28.125 16.3658C27.559 15.5191 26.8505 15.4352 26 16.1139C25.7565 15.5492 25.673 14.9617 25.75 14.3513C26.7093 14.2428 27.6258 14.0749 28.5 13.8477Z"
        fill="#28BEC0" />
    <path opacity="0.718" fill-rule="evenodd" clip-rule="evenodd"
        d="M13.75 27.9493C15.3355 27.9075 16.9188 27.9493 18.5 28.0752C18.8067 28.4748 18.7234 28.8107 18.25 29.0824C16.75 29.2504 15.25 29.2504 13.75 29.0824C13.1422 28.7218 13.1422 28.3441 13.75 27.9493Z"
        fill="#7DC241" />
    <path opacity="0.875" fill-rule="evenodd" clip-rule="evenodd"
        d="M13.5 29.461C15.1687 29.4192 16.8354 29.461 18.5 29.5869C18.8333 29.8387 18.8333 30.0905 18.5 30.3423C16.9167 30.5103 15.3333 30.5103 13.75 30.3423C13.2817 30.1023 13.1984 29.8085 13.5 29.461Z"
        fill="#7DC241" />
    <path opacity="0.739" fill-rule="evenodd" clip-rule="evenodd"
        d="M14.5 30.7227C15.5833 30.7227 16.6667 30.7227 17.75 30.7227C17.6055 31.6826 17.0222 32.1023 16 31.9817C15.4665 31.9779 14.9665 31.852 14.5 31.604C14.2039 31.3157 14.2039 31.0218 14.5 30.7227Z"
        fill="#7DC241" />
</svg>