<svg width="32" height="32" viewBox="0 0 32 32" fill="none" xmlns="http://www.w3.org/2000/svg">
    <path
        d="M23.4833 6.4209C24.9264 7.63243 26.0087 9.08626 26.8504 10.6612C27.6922 12.2362 28.1733 14.0535 28.4138 15.8708C28.534 17.6881 28.2935 19.5054 27.8125 21.2016C27.2112 22.8977 26.3694 24.4727 25.1669 25.9265C24.0846 27.2592 22.6415 28.4707 21.0782 29.3188C19.5148 30.1669 17.711 30.6515 15.9072 30.7726C14.1033 30.8938 12.2995 30.7726 10.6159 30.1669C8.9323 29.6823 7.24872 28.713 5.9259 27.6227L10.3754 22.2919C11.0167 22.8573 11.7784 23.3015 12.6602 23.6246C13.5421 23.8669 14.424 23.9477 15.3059 23.8669C16.1877 23.7861 17.0295 23.5438 17.8312 23.14C18.7131 22.7362 19.4347 22.1708 19.9959 21.4439C20.557 20.7977 20.998 20.0304 21.3187 19.142C21.5592 18.2535 21.6394 17.365 21.5592 16.4766C21.479 15.5074 21.2385 14.6189 20.8376 13.8112C20.3566 13.0035 19.7954 12.317 19.1541 11.7516L23.4833 6.4209Z"
        fill="url(#paint0_linear_2256_609)" />
    <path
        d="M15.3059 1.6958C16.9895 2.30157 18.5528 3.27079 19.8756 4.48232C21.1984 5.69385 22.2807 7.14768 23.0023 8.84382C23.7238 10.4188 24.2048 12.2361 24.3251 14.0534C24.3251 15.8707 24.0846 17.688 23.4833 19.3841C22.882 21.0803 21.92 22.6553 20.7174 23.9879C19.5148 25.3206 18.0718 26.411 16.3882 27.1379C14.7046 27.8648 13.021 28.3494 11.2172 28.4706C9.41333 28.4706 7.60949 28.2283 5.9259 27.6225L8.21077 21.0803C9.09264 21.4033 9.97452 21.5649 10.8564 21.5649C11.8184 21.4841 12.7003 21.2418 13.502 20.838C14.3037 20.5149 15.0253 19.9899 15.6666 19.263C16.2278 18.6168 16.6688 17.8495 16.9895 16.9611C17.3101 16.1534 17.4705 15.2649 17.4705 14.2957C17.3903 13.4072 17.1498 12.5592 16.7489 11.7515C16.4283 10.863 15.9072 10.1361 15.1856 9.57074C14.5442 8.92459 13.7826 8.43998 12.9008 8.1169L15.3059 1.6958Z"
        fill="url(#paint1_linear_2256_609)" />
    <path
        d="M5.9259 0C7.72974 0 9.53358 0.363459 11.2172 1.09038C12.7805 1.69614 14.3438 2.78652 15.5464 3.99805C16.8692 5.33073 17.8312 6.90572 18.5528 8.4807C19.2743 10.1768 19.6351 11.9941 19.6351 13.8114C19.6351 15.6287 19.2743 17.446 18.5528 19.1422C17.8312 20.7171 16.8692 22.2921 15.5464 23.5037C14.3438 24.8363 12.7805 25.8056 11.2172 26.5325C9.53358 27.2594 7.72974 27.6229 5.9259 27.6229V20.7171C6.80778 20.7171 7.68966 20.5556 8.57154 20.2325C9.37324 19.8287 10.0948 19.3037 10.7361 18.6575C11.3775 18.0114 11.8986 17.2845 12.2995 16.4768C12.6202 15.5883 12.7805 14.6999 12.7805 13.8114C12.7805 12.923 12.6202 12.0345 12.2995 11.1461C11.8986 10.3384 11.3775 9.61146 10.7361 8.96531C10.0948 8.31917 9.37324 7.79417 8.57154 7.39033C7.68966 7.06725 6.80778 6.90572 5.9259 6.90572V0Z"
        fill="url(#paint2_linear_2256_609)" />
    <defs>
        <linearGradient id="paint0_linear_2256_609" x1="29.9771" y1="-0.969428" x2="2.78923"
            y2="33.8481" gradientUnits="userSpaceOnUse">
            <stop offset="0.2" stop-color="#9CF1FC" />
            <stop offset="0.3" stop-color="#1FDFF9" />
            <stop offset="0.8" stop-color="#1AC8FF" />
        </linearGradient>
        <linearGradient id="paint1_linear_2256_609" x1="26.0087" y1="-3.02916" x2="-2.33488"
            y2="49.1329" gradientUnits="userSpaceOnUse">
            <stop offset="0.1" stop-color="#D49EFA" />
            <stop offset="0.2" stop-color="#BE6EF7" />
            <stop offset="0.7" stop-color="#5B0DF2" />
        </linearGradient>
        <linearGradient id="paint2_linear_2256_609" x1="-1.65022" y1="-16.1133" x2="16.8686"
            y2="33.227" gradientUnits="userSpaceOnUse">
            <stop offset="0.1" stop-color="#37F3FF" />
            <stop offset="0.9" stop-color="#1A15FF" />
        </linearGradient>
    </defs>
</svg>