<svg width="32" height="32" viewBox="0 0 32 32" fill="none" xmlns="http://www.w3.org/2000/svg">
    <g clip-path="url(#clip0_3667_387)">
        <path opacity="0.96" fill-rule="evenodd" clip-rule="evenodd"
            d="M16.0068 8C16.0624 8 16.1181 8 16.1736 8C18.0032 9.71771 19.7818 11.4955 21.5093 13.3333C21.398 13.3333 21.3425 13.3889 21.3425 13.5C19.9748 14.2669 18.5853 14.9891 17.174 15.6667C17.0711 15.6482 16.9878 15.5927 16.9239 15.5C16.6331 12.9966 16.3275 10.4966 16.0068 8Z"
            fill="#FEE505" />
        <path fill-rule="evenodd" clip-rule="evenodd"
            d="M15.8405 8C15.896 8 15.9517 8 16.0072 8C16.3279 10.4966 16.6335 12.9966 16.9243 15.5C16.9882 15.5927 17.0715 15.6482 17.1744 15.6667C16.1988 16.349 15.1427 16.9046 14.0063 17.3333C14.653 14.2838 15.2642 11.2283 15.8405 8.16667C15.8405 8.11111 15.8405 8.05556 15.8405 8Z"
            fill="#DDBF3D" />
        <path opacity="0.94" fill-rule="evenodd" clip-rule="evenodd"
            d="M7.67006 15.9997C7.63123 16.26 7.52008 16.4822 7.33658 16.6663C6.7252 17.2219 6.11383 17.7774 5.50244 18.333C5.57651 16.5003 5.63208 14.667 5.66918 12.833C5.76536 12.6208 5.87652 12.6208 6.00266 12.833C6.60308 13.8667 7.15887 14.9223 7.67006 15.9997Z"
            fill="#B8D3ED" />
        <path opacity="0.93" fill-rule="evenodd" clip-rule="evenodd"
            d="M5.66917 12.833C5.63207 14.667 5.57649 16.5004 5.50243 18.333C5.50243 18.3886 5.50243 18.4441 5.50243 18.4997C3.66829 20.2775 1.83414 22.0552 0 23.833C1.80521 20.1128 3.69493 16.4462 5.66917 12.833Z"
            fill="#6DABDD" />
        <path fill-rule="evenodd" clip-rule="evenodd"
            d="M15.8403 8.16699C15.2641 11.2286 14.6528 14.2842 14.0062 17.3337C14.0062 17.3892 14.0062 17.4448 14.0062 17.5003C13.9507 17.5003 13.895 17.5003 13.8395 17.5003C13.466 17.2325 13.1882 16.8714 13.0058 16.417C12.4052 16.3112 12.2941 16.089 12.6723 15.7503C12.5327 15.3189 12.2549 15.0133 11.8386 14.8337C11.7274 14.8892 11.6163 14.9448 11.5051 15.0003C11.5051 14.7781 11.5051 14.5559 11.5051 14.3337C11.3465 14.4713 11.1798 14.499 11.0049 14.417C11.224 14.0316 11.5019 13.6983 11.8386 13.417C11.7515 13.2586 11.6403 13.1197 11.5051 13.0003C11.5606 12.9448 11.6163 12.8892 11.6718 12.8337C12.2398 13.4589 12.8512 13.4867 13.506 12.917C13.2977 12.613 13.1033 12.6408 12.9224 13.0003C12.8195 12.5778 12.9029 12.1889 13.1725 11.8337C12.8991 11.4865 12.5656 11.431 12.1721 11.667C13.2894 10.3833 14.5121 9.21666 15.8403 8.16699Z"
            fill="#EDA22B" />
        <path fill-rule="evenodd" clip-rule="evenodd"
            d="M21.5092 13.667C21.9985 14.9122 22.3876 16.19 22.6764 17.5003C20.5195 18.8016 18.3519 20.1071 16.1736 21.417C16.0155 21.4975 15.8488 21.5252 15.6733 21.5003C17.5597 18.8382 19.505 16.2271 21.5092 13.667Z"
            fill="#AA4A9B" />
        <path fill-rule="evenodd" clip-rule="evenodd"
            d="M21.3429 13.5C21.4541 13.5 21.5097 13.5556 21.5097 13.6667C19.5054 16.2268 17.5601 18.8379 15.6738 21.5C15.572 21.6485 15.5165 21.8152 15.507 22C15.4515 22 15.3958 22 15.3403 22C14.9631 20.4803 14.5186 18.9803 14.0063 17.5C14.0063 17.4445 14.0063 17.3889 14.0063 17.3333C15.1427 16.9046 16.1988 16.349 17.1744 15.6667C18.5857 14.9891 19.9751 14.2669 21.3429 13.5Z"
            fill="#69609C" />
        <path fill-rule="evenodd" clip-rule="evenodd"
            d="M13.8393 17.5001C13.6726 17.5001 13.5058 17.5001 13.3391 17.5001C11.365 17.1903 9.36415 16.9125 7.33643 16.6667C7.51992 16.4826 7.63107 16.2604 7.66991 16.0001C9.17057 14.5556 10.6712 13.1112 12.1719 11.6667C12.5654 11.4307 12.8989 11.4863 13.1723 11.8334C12.9027 12.1887 12.8193 12.5775 12.9222 13.0001C13.1031 12.6405 13.2976 12.6127 13.5058 12.9167C12.851 13.4864 12.2396 13.4587 11.6717 12.8334C11.6161 12.8889 11.5605 12.9445 11.5049 13.0001C11.6402 13.1195 11.7514 13.2583 11.8384 13.4167C11.5018 13.698 11.2238 14.0314 11.0047 14.4167C11.1796 14.4988 11.3464 14.471 11.5049 14.3334C11.5049 14.5556 11.5049 14.7778 11.5049 15.0001C11.6161 14.9445 11.7272 14.8889 11.8384 14.8334C12.2548 15.0131 12.5326 15.3186 12.6721 15.7501C12.2939 16.0887 12.405 16.311 13.0056 16.4167C13.188 16.8711 13.4658 17.2323 13.8393 17.5001Z"
            fill="#EDA22B" />
        <path fill-rule="evenodd" clip-rule="evenodd"
            d="M7.33658 16.667C9.36431 16.9128 11.3652 17.1906 13.3392 17.5003C10.7619 17.9289 8.14961 18.2623 5.50244 18.5003C5.50244 18.4448 5.50244 18.3892 5.50244 18.3337C6.11383 17.7781 6.7252 17.2225 7.33658 16.667Z"
            fill="#F38324" />
        <path opacity="0.969" fill-rule="evenodd" clip-rule="evenodd"
            d="M13.8396 17.5C13.8951 17.5 13.9508 17.5 14.0063 17.5C14.5185 18.9803 14.9631 20.4803 15.3402 22C12.9443 21.9952 10.5545 22.1063 8.17041 22.3333C9.92452 20.8727 11.6476 19.3727 13.3394 17.8333C13.5411 17.7613 13.7079 17.6502 13.8396 17.5Z"
            fill="#04B7DC" />
        <path opacity="0.968" fill-rule="evenodd" clip-rule="evenodd"
            d="M22.6767 17.5C23.2559 19.0889 23.8117 20.7 24.3441 22.3333C24.3441 22.3889 24.3441 22.4445 24.3441 22.5C21.4164 22.0925 18.4708 21.9258 15.5068 22C15.5163 21.8152 15.5719 21.6485 15.6736 21.5C15.849 21.5249 16.0157 21.4971 16.1738 21.4167C18.3521 20.1068 20.5197 18.8013 22.6767 17.5Z"
            fill="#9A3F8C" />
        <path fill-rule="evenodd" clip-rule="evenodd"
            d="M13.339 17.5C13.5057 17.5 13.6725 17.5 13.8392 17.5C13.7075 17.6502 13.5407 17.7613 13.339 17.8333C10.5854 18.7109 7.91759 19.7664 5.33545 21C5.33593 20.1621 5.39152 19.3288 5.50219 18.5C8.14936 18.2619 10.7617 17.9286 13.339 17.5Z"
            fill="#83D0E6" />
        <path fill-rule="evenodd" clip-rule="evenodd"
            d="M21.3428 13.4997C21.3428 13.3886 21.3983 13.333 21.5095 13.333C24.1774 15.8886 26.7897 18.4997 29.3463 21.1663C27.6992 21.6262 26.0318 22.0151 24.3441 22.333C23.8117 20.6997 23.256 19.0886 22.6767 17.4997C22.3879 16.1893 21.9987 14.9115 21.5095 13.6663C21.5095 13.5552 21.454 13.4997 21.3428 13.4997Z"
            fill="#BD6AA2" />
        <path opacity="0.982" fill-rule="evenodd" clip-rule="evenodd"
            d="M13.339 17.833C11.6472 19.3723 9.92414 20.8723 8.17003 22.333C7.23202 22.5147 6.28715 22.6814 5.33545 22.833C5.33545 22.2219 5.33545 21.6108 5.33545 20.9997C7.91759 19.7661 10.5854 18.7106 13.339 17.833Z"
            fill="#4EC6E0" />
        <path opacity="0.966" fill-rule="evenodd" clip-rule="evenodd"
            d="M5.50243 18.5C5.39176 19.3287 5.33617 20.1621 5.33569 21C5.33569 21.6111 5.33569 22.2222 5.33569 22.8333C3.5831 23.0907 1.86012 23.4796 0.16674 24C0.0655789 23.9794 0.0100044 23.9239 0 23.8333C1.83414 22.0556 3.66829 20.2778 5.50243 18.5Z"
            fill="#5787B1" />
        <path opacity="0.882" fill-rule="evenodd" clip-rule="evenodd"
            d="M29.3464 21.167C30.2298 21.9665 31.0914 22.7998 31.9309 23.667C32.0456 23.8056 32.0178 23.9167 31.8475 24.0003C29.3941 23.2654 26.893 22.7654 24.3442 22.5003C24.3442 22.4448 24.3442 22.3892 24.3442 22.3337C26.032 22.0157 27.6994 21.6268 29.3464 21.167Z"
            fill="#EE4C94" />
    </g>
    <defs>
        <clipPath id="clip0_3667_387">
            <rect width="32" height="32" fill="white" />
        </clipPath>
    </defs>
</svg>