<svg width="32" height="32" viewBox="0 0 32 32" fill="none" xmlns="http://www.w3.org/2000/svg">
    <g clip-path="url(#clip0_2543_425)">
        <path d="M32 0H0V32H32V0Z" fill="#0071BC" />
        <path
            d="M6.77502 20.9875C7.12502 22.35 8.41252 23.125 9.97502 23.125C11.8625 23.125 13.0875 22.1625 13.0875 20.3625C13.0875 19.3625 12.575 18.5875 11.6875 17.85C9.95002 16.4 7.66252 15.3875 7.66252 12.825C7.66252 9.3125 10.8 7 14.2875 7C16.1125 7 17.7125 7.4 17.7125 8.7375C17.7125 9.4875 16.9375 10.3375 16.25 10.65C15.5375 9.5125 14.7625 8.825 13.275 8.825C11.7 8.825 10.65 9.575 10.65 11.0875C10.65 12.45 11.4 12.95 14.4125 15.2625C15.55 16.2875 16.2625 17.375 16.2625 18.95C16.2625 22.575 12.4625 24.975 9.01252 24.975C7.12502 24.975 4.58752 24.2 4.58752 22.6C4.58752 21.7125 5.45002 20.575 6.75002 20.2C6.68752 20.475 6.70002 20.725 6.77502 20.9875Z"
            fill="white" />
        <path
            d="M20.425 8.02495C21.0875 8.02495 21.5125 8.42495 21.5125 9.13745C21.5125 9.02495 20.85 13.425 19.6875 18.0125C22.35 14.325 24.3375 12.45 25.6875 12.45C26.4375 12.45 26.85 13.1875 26.95 14.625C25.6875 14.625 24.2375 15.425 22.4125 17.5125C22.4125 17.575 22.3875 17.6625 22.3875 17.7625C22.3875 17.9625 22.4375 18.1875 22.5 18.4125C23.0375 20.0375 23.7875 21.95 25.3625 21.95C25.9125 21.95 26.5375 21.725 27.275 21.2625C27.325 21.2375 27.3375 21.2125 27.3625 21.2125C27.3875 21.2125 27.4125 21.2625 27.4125 21.3C27.4125 21.3625 27.3875 21.4125 27.3625 21.45C26.7625 22.9875 25.05 24.5 23.675 24.5C22.3625 24.5 21.3 23.1875 20.075 19.625C19.525 20.65 19.1625 21.5875 18.425 23.3625C18.1125 24.1625 17.7125 24.5625 16.575 24.5625C16.125 24.5625 15.575 24.5 14.8625 24.3875C16.55 19.9625 17.6 15.025 18.2375 9.97495C18.2375 9.88745 18.2625 9.82495 18.2625 9.74995C18.2625 9.39995 18.175 9.09995 18 8.72495C18.8625 8.23745 19.575 8.06245 20.2625 8.01245C20.3375 8.02495 20.375 8.02495 20.425 8.02495Z"
            fill="white" />
    </g>
    <defs>
        <clipPath id="clip0_2543_425">
            <rect width="32" height="32" fill="white" />
        </clipPath>
    </defs>
</svg>