<svg width="32" height="32" viewBox="0 0 32 32" fill="none" xmlns="http://www.w3.org/2000/svg">
<path opacity="0.994" fill-rule="evenodd" clip-rule="evenodd" d="M17.9833 0C21.4052 0 24.8269 0 28.2488 0C28.2145 3.23557 28.1645 6.47056 28.0989 9.70492C29.3977 9.70492 30.6965 9.70492 31.9953 9.70492C32.0078 12.7433 31.9953 15.7815 31.9578 18.8197C27.6577 22.7576 23.3617 26.692 19.0698 30.6229C19.0449 28.306 19.0198 25.989 18.9949 23.6721C15.2729 26.4377 11.5639 29.2137 7.8677 32C7.80528 28.2625 7.76782 24.5248 7.7553 20.7869C5.17964 18.7753 2.60701 16.7644 0.0374671 14.7541C-0.012489 14.6667 -0.012489 14.5792 0.0374671 14.4918C2.45615 10.3569 4.86644 6.21482 7.26826 2.06557C10.4906 2.05464 13.7126 2.02186 16.9343 1.96721C17.3274 1.3231 17.6771 0.667364 17.9833 0Z" fill="black"/>
<path fill-rule="evenodd" clip-rule="evenodd" d="M26.6782 0.983162C26.2506 0.961602 25.8261 0.983464 25.4044 1.04874C23.5406 4.29976 21.6924 7.54565 19.8595 10.7864C20.3334 10.8192 20.808 10.8301 21.2832 10.8192C23.9058 10.8192 26.5283 10.8192 29.1509 10.8192C26.2715 15.6188 23.3741 20.4057 20.4589 25.1799C20.4589 20.8739 20.4589 16.5679 20.4589 12.2619C20.4589 12.0433 20.4589 11.8247 20.4589 11.6061C18.0612 11.6061 15.6634 11.6061 13.2656 11.6061C15.2378 8.06683 17.2109 4.52588 19.1851 0.983162C21.7378 0.896238 24.2354 0.896238 26.6782 0.983162Z" fill="#C5FE00"/>
<path fill-rule="evenodd" clip-rule="evenodd" d="M26.678 0.984592C24.8797 4.26328 23.0814 7.54197 21.2831 10.8207C20.8078 10.8315 20.3333 10.8207 19.8594 10.7879C21.6922 7.54708 23.5405 4.30119 25.4042 1.05017C25.8259 0.984893 26.2505 0.963031 26.678 0.984592Z" fill="#19E201"/>
<path fill-rule="evenodd" clip-rule="evenodd" d="M14.1622 3.14648C12.3411 6.39947 10.4928 9.65632 8.61732 12.917C9.06413 12.9823 9.51371 13.0041 9.96607 12.9825C12.5886 12.9825 15.2112 12.9825 17.8338 12.9825C15.0004 17.7667 12.1281 22.5318 9.21676 27.2776C9.21676 23.0153 9.21676 18.753 9.21676 14.4907C9.21676 14.2722 9.21676 14.0536 9.21676 13.835C6.81899 13.835 4.42121 13.835 2.02344 13.835C3.99249 10.2794 5.94065 6.71658 7.86801 3.14648C9.96607 3.14648 12.0641 3.14648 14.1622 3.14648Z" fill="#C5FE00"/>
<path fill-rule="evenodd" clip-rule="evenodd" d="M14.1659 3.14861C14.5913 3.13772 15.0159 3.14865 15.4398 3.1814C13.608 6.45169 11.7847 9.71949 9.96984 12.9847C9.51749 13.0062 9.0679 12.9844 8.62109 12.9191C10.4966 9.65845 12.3448 6.40159 14.1659 3.14861Z" fill="#16E201"/>
<path fill-rule="evenodd" clip-rule="evenodd" d="M29.1497 10.8186C29.5773 10.797 30.0018 10.8189 30.4235 10.8842C27.1141 16.3268 23.8047 21.7694 20.4953 27.212C20.4578 26.5348 20.4453 25.8572 20.4578 25.1792C23.373 20.405 26.2703 15.6181 29.1497 10.8186Z" fill="#17E201"/>
<path fill-rule="evenodd" clip-rule="evenodd" d="M13.2646 11.6074C15.6623 11.6074 18.0601 11.6074 20.4579 11.6074C20.4579 11.826 20.4579 12.0446 20.4579 12.2632C17.9602 12.2632 15.4625 12.2632 12.9648 12.2632C13.023 12.0302 13.1229 11.8116 13.2646 11.6074Z" fill="#15E201"/>
<path fill-rule="evenodd" clip-rule="evenodd" d="M17.8365 12.9826C18.2889 12.9611 18.7384 12.9829 19.1853 13.0482C15.8556 18.4606 12.5462 23.8814 9.25697 29.3105C9.21951 28.6333 9.20707 27.9557 9.21951 27.2777C12.1309 22.5319 15.0032 17.7668 17.8365 12.9826Z" fill="#17E201"/>
<path fill-rule="evenodd" clip-rule="evenodd" d="M2.027 13.8359C4.42477 13.8359 6.82255 13.8359 9.22032 13.8359C9.22032 14.0545 9.22032 14.2731 9.22032 14.4917C6.69719 14.5135 4.17451 14.4917 1.65234 14.4261C1.76031 14.2147 1.8852 14.018 2.027 13.8359Z" fill="#15E302"/>
</svg>
