<svg width="32" height="32" viewBox="0 0 32 32" fill="none" xmlns="http://www.w3.org/2000/svg">
    <g clip-path="url(#clip0_2385_224)">
        <path fill-rule="evenodd" clip-rule="evenodd"
            d="M11.0626 8.09745L11.0343 8.12983C10.3991 8.79251 9.97562 9.629 9.81776 10.5328C9.45225 12.5755 11.3454 14.1615 13.6695 15.6179L18.7916 19.1646C22.026 21.4525 18.5102 25.179 14.9385 22.9089C13.4902 21.9079 9.1957 19.0902 6.09501 16.7857C4.03294 15.2521 1.01018 13.4236 3.41914 10.9428L5.49432 8.80705L10.7998 3.34239L12.8743 1.20668C15.2833 -1.27349 17.9991 0.870482 20.1847 2.27798C23.4633 4.3944 27.5771 7.40093 29.0219 8.4054C32.3578 10.918 28.7198 14.559 25.4288 12.3324L20.3074 8.78639C18.1605 7.1474 15.9488 5.89284 13.6474 6.59281C12.606 6.9111 11.744 7.41953 11.0957 8.07058L11.064 8.10227L11.0626 8.09745Z"
            fill="#FF3B00" />
        <path fill-rule="evenodd" clip-rule="evenodd"
            d="M21.144 24.038L21.1122 24.0704C20.464 24.7242 19.6019 25.2299 18.5605 25.5481C16.2591 26.2509 14.0474 24.997 11.9005 23.3546L6.77776 19.8093C3.48672 17.5799 -0.151207 21.2209 3.18466 23.7362C4.63293 24.7373 8.74328 27.7445 12.0274 29.8602C14.2116 31.2677 16.924 33.4124 19.3378 30.9315C20.0274 30.2192 20.7189 29.5073 21.4122 28.7958C23.1814 26.9747 24.9499 25.1536 26.7178 23.3325L28.7929 21.1968C31.2019 18.7166 28.1791 16.8868 26.1164 15.3532C23.0164 13.0487 18.7184 10.231 17.2736 9.23064C13.7019 6.95714 10.186 10.6864 13.4205 12.975L18.5426 16.521C20.8667 17.9774 22.7598 19.5627 22.3943 21.606C22.2362 22.5095 21.813 23.3456 21.1784 24.0084L21.1474 24.0401L21.144 24.038Z"
            fill="#FF3B00" />
    </g>
    <defs>
        <clipPath id="clip0_2385_224">
            <rect width="32" height="32" fill="white" />
        </clipPath>
    </defs>
</svg>