<svg width="32" height="32" viewBox="0 0 32 32" fill="none" xmlns="http://www.w3.org/2000/svg">
<path d="M15.991 31.9997C18.8362 32.0144 21.4114 31.4867 22.3298 29.9475C22.6719 29.3612 22.6719 28.9654 22.834 28.2764C23.6804 24.8317 25.7513 22.6035 27.48 21.1963C30.0191 19.1881 32 15.9925 32 12.5771C32 5.70219 24.9769 0.0293172 16.009 0C7.02307 0.0293172 0 5.70219 0 12.5771C0 15.9925 1.99887 19.1881 4.51998 21.1963C6.23073 22.5889 8.31964 24.8317 9.16601 28.2764C9.34609 28.98 9.32808 29.3612 9.67023 29.9475C10.5706 31.4867 13.1638 32.0144 16.009 31.9997H15.991ZM22.834 17.3997C22.834 19.2321 20.8351 20.9471 15.919 20.9471C11.0028 20.9471 9.03995 19.2321 9.03995 17.3997V16.6522C9.03995 16.3004 9.22003 16.1244 9.65222 16.1244H11.5791C12.0473 16.1244 12.1913 16.3004 12.1913 16.6522V17.2825C12.1913 18.3526 13.5779 18.8509 15.901 18.8509C18.224 18.8509 19.6106 18.3526 19.6106 17.2825V16.4763C19.6106 15.7726 18.8903 15.3769 17.6837 15.0544L12.2273 13.5152C10.8768 13.1341 9.3821 12.0054 9.3821 10.5249V9.42547C9.3821 7.59315 11.0568 5.77548 15.973 5.77548C20.8891 5.77548 22.5639 7.57849 22.5639 9.42547V10.1291C22.5639 10.5102 22.4198 10.6568 21.9156 10.6568H20.0248C19.5926 10.6568 19.4125 10.5102 19.4125 10.1291V9.42547C19.4125 8.3554 18.206 7.857 15.955 7.857C13.704 7.857 12.5695 8.3554 12.5695 9.42547V9.92387C12.5695 10.7008 13.4339 11.1112 14.1002 11.2871L19.5566 12.8263C21.5554 13.3833 22.834 14.3361 22.834 15.7287V17.3851V17.3997Z" fill="#238740"/>
</svg>
