<svg width="32" height="32" viewBox="0 0 32 32" fill="none" xmlns="http://www.w3.org/2000/svg">
    <g clip-path="url(#clip0_4084_45)">
        <path fill-rule="evenodd" clip-rule="evenodd"
            d="M-0.071167 -0.0712891C10.5955 -0.0712891 21.2622 -0.0712891 31.9288 -0.0712891C31.9288 10.5954 31.9288 21.262 31.9288 31.9287C21.2622 31.9287 10.5955 31.9287 -0.071167 31.9287C-0.071167 21.262 -0.071167 10.5954 -0.071167 -0.0712891Z"
            fill="#010000" />
        <path fill-rule="evenodd" clip-rule="evenodd"
            d="M1.20893 18.1334C2.2993 18.1334 3.38967 18.1334 4.48004 18.1334C4.44195 18.3608 4.48936 18.5504 4.62226 18.7023C5.0899 20.4091 6.22768 21.215 8.0356 21.12C8.85195 21.0926 9.61047 20.8793 10.3112 20.48C11.2952 19.2364 11.1055 18.1934 9.74226 17.3511C7.91835 16.8537 6.11686 16.2848 4.33782 15.6445C2.06377 14.4369 1.23414 12.5642 1.84893 10.0267C2.60016 8.09063 3.99868 6.92916 6.04449 6.54226C8.27636 6.10965 10.3149 6.53631 12.16 7.82226C13.3342 8.91478 13.9031 10.2659 13.8667 11.8756C12.7289 11.8756 11.5912 11.8756 10.4534 11.8756C10.4836 11.0116 10.1517 10.3242 9.45782 9.81337C8.3957 9.33078 7.30533 9.23596 6.18671 9.52892C4.93898 10.2856 4.74934 11.2338 5.61782 12.3734C5.90226 12.5156 6.18671 12.6578 6.47115 12.8C8.12312 13.3033 9.78237 13.7774 11.4489 14.2223C13.8389 15.4233 14.7634 17.3433 14.2223 19.9823C13.495 22.2325 11.9543 23.5361 9.60004 23.8934C6.62666 24.5282 4.13777 23.746 2.13337 21.5467C1.45364 20.5116 1.14549 19.3738 1.20893 18.1334Z"
            fill="#FBFBFB" />
        <path fill-rule="evenodd" clip-rule="evenodd"
            d="M20.2666 13.1554C20.2666 13.2028 20.2666 13.2502 20.2666 13.2976C20.125 11.1893 20.0776 9.05596 20.1244 6.89759C19.034 6.89759 17.9437 6.89759 16.8533 6.89759C16.8533 12.4443 16.8533 17.9909 16.8533 23.5376C17.9437 23.5376 19.034 23.5376 20.1244 23.5376C20.0775 21.1423 20.1248 18.772 20.2666 16.4265C20.2666 18.8443 20.2666 21.262 20.2666 23.6798C19.0815 23.6798 17.8962 23.6798 16.7111 23.6798C16.7111 18.0383 16.7111 12.3969 16.7111 6.75537C17.8962 6.75537 19.0815 6.75537 20.2666 6.75537C20.2666 8.8887 20.2666 11.022 20.2666 13.1554Z"
            fill="#742D1E" />
        <path fill-rule="evenodd" clip-rule="evenodd"
            d="M20.2666 16.4266C20.1248 18.7721 20.0774 21.1424 20.1244 23.5377C19.034 23.5377 17.9437 23.5377 16.8533 23.5377C16.8533 17.991 16.8533 12.4443 16.8533 6.89767C17.9437 6.89767 19.034 6.89767 20.1244 6.89767C20.0776 9.05604 20.125 11.1894 20.2666 13.2977C22.3526 13.2977 24.4384 13.2977 26.5244 13.2977C26.5244 11.1643 26.5244 9.03101 26.5244 6.89767C27.636 6.75653 28.7738 6.70913 29.9377 6.75545C29.9377 12.3969 29.9377 18.0384 29.9377 23.6799C28.7999 23.6799 27.6622 23.6799 26.5244 23.6799C26.5244 21.2621 26.5244 18.8443 26.5244 16.4266C24.4384 16.4266 22.3526 16.4266 20.2666 16.4266Z"
            fill="#AD422D" />
        <path fill-rule="evenodd" clip-rule="evenodd"
            d="M26.5245 6.89795C26.5245 9.03128 26.5245 11.1646 26.5245 13.2979C24.4385 13.2979 22.3527 13.2979 20.2667 13.2979C20.2667 13.2505 20.2667 13.2031 20.2667 13.1557C22.3052 13.1557 24.3438 13.1557 26.3823 13.1557C26.3355 11.0448 26.3828 8.95882 26.5245 6.89795Z"
            fill="#421911" />
        <path fill-rule="evenodd" clip-rule="evenodd"
            d="M1.20886 18.1335C2.32046 17.9924 3.45823 17.9449 4.6222 17.9913C4.6222 18.2284 4.6222 18.4653 4.6222 18.7024C4.48929 18.5505 4.44189 18.3609 4.47997 18.1335C3.3896 18.1335 2.29924 18.1335 1.20886 18.1335Z"
            fill="#AAAAAA" />
    </g>
    <defs>
        <clipPath id="clip0_4084_45">
            <rect width="32" height="32" fill="white" />
        </clipPath>
    </defs>
</svg>