<svg width="32" height="32" viewBox="0 0 32 32" fill="none" xmlns="http://www.w3.org/2000/svg">
    <rect width="32" height="32" fill="black" />
    <path
        d="M17.0045 30.5446C18.4581 30.5446 19.6745 29.3407 19.2462 27.9515C18.845 26.6504 18.1438 25.4537 17.1868 24.4709C15.6183 22.86 13.491 21.9549 11.2728 21.9549C9.05454 21.9549 6.92727 22.86 5.35887 24.4709C4.40169 25.4537 3.70069 26.6504 3.29945 27.9515C2.87102 29.3407 4.0876 30.5446 5.54121 30.5446H17.0045ZM16.4503 2.9082C14.9968 2.9082 13.7802 4.11247 14.2085 5.50153C14.6097 6.80277 15.3109 7.99933 16.2679 8.98217C17.8363 10.5931 19.9637 11.4982 22.182 11.4982C24.4 11.4982 26.5275 10.5931 28.0959 8.98217C29.0529 7.99933 29.754 6.80277 30.1553 5.50153C30.5837 4.11247 29.3671 2.9082 27.9135 2.9082H16.4503ZM22.182 27.9129C22.182 29.3665 23.3898 30.5844 24.7685 30.1238C26.0116 29.7084 27.1545 28.9959 28.0959 28.0289C29.6644 26.4181 30.5455 24.2332 30.5455 21.9551C30.5455 19.6769 29.6644 17.492 28.0959 15.8812C27.1545 14.9142 26.0116 14.2017 24.7685 13.7864C23.3898 13.3259 22.182 14.5436 22.182 15.9974V27.9129ZM11.2728 5.5402C11.2728 4.08659 10.065 2.8688 8.68606 3.3294C7.44315 3.74449 6.30026 4.45719 5.35887 5.42404C3.79033 7.03496 2.90918 9.21989 2.90918 11.498C2.90918 13.7763 3.79033 15.9611 5.35887 17.572C6.30026 18.5388 7.44315 19.2515 8.6862 19.6668C10.065 20.1272 11.2729 18.9094 11.2729 17.4558L11.2728 5.5402Z"
        fill="#FAFAFA" />
</svg>