<svg width="32" height="32" viewBox="0 0 32 32" fill="none" xmlns="http://www.w3.org/2000/svg">
<path d="M3.00161 9.7239C3.03701 7.3955 4.02071 5.1308 5.50691 3.5243C6.81621 2.1585 8.38021 1.38 9.99381 0.8209C12.0036 0.1274 13.8932 0.0495 15.7757 0C17.8705 0.0141 19.838 0.283 21.4798 0.7926C23.1854 1.3375 24.431 2.1019 25.3864 2.9369C26.3206 3.7296 26.9363 4.6001 27.46 5.5201C28.104 6.6595 28.564 8.9171 28.5357 10.0989C28.5923 17.6856 28.5074 23.9771 28.5498 31.592C27.1769 31.6062 25.9596 31.2665 24.8344 30.6791C23.5251 30.028 22.506 29.0443 21.6709 27.8341C21.0269 26.8858 20.5457 25.4703 20.4112 24.3168C20.3546 23.2623 20.4041 23.0217 20.4112 22.1795L20.39 12.7812C20.3263 11.5144 20.0574 10.382 19.4487 9.6885C18.8472 8.8675 18.0121 8.4995 17.1487 8.266C16.2145 8.0678 15.2874 8.0395 14.3886 8.2448C13.5889 8.4217 12.9237 8.8321 12.3363 9.3559C11.7913 9.9645 11.4729 10.6297 11.3242 11.3374C11.1756 12.0381 11.1261 12.7812 11.1473 13.5596V23.3189C11.1544 24.0903 11.0836 24.8476 10.8501 25.5694C10.6095 26.4187 10.199 27.2184 9.71071 27.9969C9.36391 28.4498 8.99591 28.8956 8.57131 29.299C8.02631 29.8086 7.43891 30.2686 6.75951 30.6295C6.31371 30.8631 5.84661 31.0612 5.37241 31.2098C4.62231 31.4292 3.82961 31.5425 3.00161 31.5779C2.98751 20.2404 3.07241 16.9425 3.00161 9.7026V9.7239Z" fill="#26A9CB"/>
</svg>
