<svg width="32" height="32" viewBox="0 0 32 32" fill="none" xmlns="http://www.w3.org/2000/svg">
    <rect width="32" height="32" fill="#FAFAFA" />
    <path fill-rule="evenodd" clip-rule="evenodd"
        d="M28.1846 5.02073C29.3122 4.94552 30.4033 5.07496 31.4581 5.40906C32.0739 5.93301 32.1649 6.52843 31.7309 7.19536C30.8624 8.09344 29.8016 8.68886 28.5483 8.98166C28.3634 8.81864 28.333 8.63743 28.4574 8.438C29.486 7.89542 30.365 7.22231 31.0944 6.41871C31.0564 6.32768 30.9957 6.25002 30.9126 6.18571C28.7148 5.85277 26.5324 5.95632 24.3655 6.49637C18.5434 7.54906 13.0875 9.36126 7.99786 11.9329C7.17037 12.3808 6.53385 12.9762 6.08831 13.7192C5.9737 14.0926 6.12524 14.3773 6.54296 14.5736C7.06371 14.7909 7.6093 14.9462 8.17973 15.0396C11.9978 15.4105 15.8169 15.773 19.6371 16.1269C23.7023 16.8086 24.1871 18.3619 21.092 20.7868C15.0012 24.3676 8.27231 26.4386 0.905222 27C-0.0270516 26.6034 -0.239225 26.0081 0.268702 25.2137C2.43598 23.3938 4.95174 22.0218 7.816 21.0974C11.5892 19.8365 15.4689 18.8786 19.4552 18.2238C19.9875 18.3307 20.1088 18.5896 19.8189 19.0005C14.4714 19.8412 9.37922 21.3168 4.54247 23.4274C3.11658 24.0352 1.90416 24.8637 0.905222 25.9127C1.29248 26.084 1.71682 26.1617 2.17826 26.1457C8.47704 25.3967 14.2966 23.5587 19.6371 20.6314C20.5851 20.0806 21.3429 19.3816 21.9104 18.5345C22.0317 18.2756 22.0317 18.0167 21.9104 17.7578C21.4062 17.4066 20.8305 17.1736 20.1827 17.0588C16.0667 16.6074 11.9445 16.1932 7.816 15.8162C6.68896 15.7112 5.80997 15.2711 5.17899 14.4959C5.01323 13.882 5.13447 13.3124 5.54272 12.7873C7.21222 11.2588 9.18239 10.0938 11.4533 9.29232C16.8379 7.24952 22.415 5.82566 28.1846 5.02073Z"
        fill="#080809" />
</svg>