<svg width="32" height="32" viewBox="0 0 32 32" fill="none" xmlns="http://www.w3.org/2000/svg">
    <g clip-path="url(#clip0_4236_1576)">
        <mask id="mask0_4236_1576" style="mask-type:alpha" maskUnits="userSpaceOnUse" x="0" y="0"
            width="32" height="32">
            <path
                d="M23.0244 0H8.97561C4.01852 0 0 4.01852 0 8.97561V23.0244C0 27.9815 4.01852 32 8.97561 32H23.0244C27.9815 32 32 27.9815 32 23.0244V8.97561C32 4.01852 27.9815 0 23.0244 0Z"
                fill="#C4C4C4" />
        </mask>
        <g mask="url(#mask0_4236_1576)">
            <path
                d="M-26.7307 -13.0771L-33.9199 -5.88789L16.4052 44.4372L23.5944 37.2479L-26.7307 -13.0771Z"
                fill="#F0A323" />
            <path
                d="M-16.1295 -13.2568L-23.6782 -5.70811L26.6469 44.6169L34.1956 37.0684L-16.1295 -13.2568Z"
                fill="#D82339" />
            <path
                d="M-5.88764 -13.0771L-13.0769 -5.88789L37.2484 44.4372L44.4373 37.2479L-5.88764 -13.0771Z"
                fill="#7F287E" />
            <path
                d="M4.71351 -13.2568L-2.83521 -5.70811L47.4899 44.6169L55.0387 37.0684L4.71351 -13.2568Z"
                fill="#2392D0" />
            <path
                d="M14.9549 -13.0771L7.76562 -5.88789L58.0907 44.4372L65.28 37.2479L14.9549 -13.0771Z"
                fill="#80BF42" />
            <path fill-rule="evenodd" clip-rule="evenodd"
                d="M17.5698 6.43881V7.86103C18.4251 8.0675 19.1584 8.41918 19.7696 8.91618C20.2843 9.3288 20.7081 9.84346 21.0142 10.4278C21.3204 11.0121 21.5023 11.6535 21.5486 12.3115H17.9715C17.8959 11.7492 17.6304 11.2295 17.2191 10.8386C16.7569 10.4346 16.1551 10.2275 15.5421 10.2615C15.0051 10.2378 14.4775 10.4088 14.0565 10.743C13.718 11.0877 13.5179 11.5448 13.4944 12.0274C13.4709 12.51 13.6256 12.9844 13.9289 13.3604C14.2394 13.6972 14.616 13.9664 15.0352 14.1511C15.6322 14.412 16.2432 14.6397 16.8652 14.8334C17.7525 15.1387 18.622 15.4931 19.4699 15.895C20.154 16.2408 20.7412 16.7514 21.1788 17.3807C21.6816 18.1498 21.9293 19.0579 21.8865 19.9758C21.8914 20.8004 21.6709 21.6107 21.2489 22.3191C20.7963 23.0597 20.143 23.6566 19.3647 24.0407C18.7943 24.3128 18.1897 24.5004 17.5698 24.5994V26.556L14.2477 25.8801V24.4383C13.8781 24.3451 13.5147 24.2251 13.1606 24.079C12.2745 23.7117 11.5036 23.1126 10.9289 22.3446C10.3632 21.5736 10.0312 20.6562 9.97244 19.7016H13.5081C13.5696 20.3427 13.8578 20.9408 14.3211 21.3882C14.5697 21.6176 14.8617 21.7952 15.1796 21.9107C15.4977 22.0262 15.8354 22.0772 16.1734 22.0609C16.4628 22.0807 16.7531 22.0417 17.0271 21.9463C17.301 21.851 17.5529 21.7013 17.7675 21.5061C17.953 21.3196 18.098 21.0967 18.1935 20.8514C18.2889 20.6062 18.3327 20.344 18.3222 20.081C18.3371 19.6153 18.178 19.1606 17.8759 18.8058C17.5613 18.4567 17.1753 18.1794 16.7441 17.9928C16.2882 17.7888 15.6569 17.5529 14.8567 17.285C13.9825 17.0057 13.1301 16.6626 12.3062 16.2584C11.6342 15.9096 11.0558 15.4045 10.6196 14.7855C10.1269 14.0385 9.88359 13.1545 9.92462 12.2605C9.89795 11.6148 10.0241 10.9719 10.2928 10.3841C10.5615 9.79635 10.9651 9.28026 11.4709 8.87788C12.2181 8.27614 13.1437 7.89395 14.2477 7.73129V5.75977L17.5698 6.43881Z"
                fill="white" />
        </g>
    </g>
    <defs>
        <clipPath id="clip0_4236_1576">
            <rect width="32" height="32" fill="white" />
        </clipPath>
    </defs>
</svg>