<svg width="32" height="32" viewBox="0 0 32 32" fill="none" xmlns="http://www.w3.org/2000/svg">
<g clip-path="url(#clip0_134_2090)">
<path fill-rule="evenodd" clip-rule="evenodd" d="M-0.0703125 -0.0703125C10.5964 -0.0703125 21.263 -0.0703125 31.9297 -0.0703125C31.9297 10.5964 31.9297 21.263 31.9297 31.9297C21.263 31.9297 10.5964 31.9297 -0.0703125 31.9297C-0.0703125 21.263 -0.0703125 10.5964 -0.0703125 -0.0703125Z" fill="#010101"/>
<path fill-rule="evenodd" clip-rule="evenodd" d="M14.7192 0.496895C21.8845 0.438099 27.0282 3.61439 30.1503 10.0258C32.4994 17.007 30.9586 22.9568 25.5281 27.8747C20.2511 31.6985 14.657 32.22 8.74586 29.4391C2.19022 25.3562 -0.346082 19.5013 1.13698 11.8747C2.79672 6.51718 6.28117 2.93791 11.5903 1.1369C12.6435 0.875175 13.6865 0.661842 14.7192 0.496895Z" fill="#EEEEEE"/>
<path fill-rule="evenodd" clip-rule="evenodd" d="M14.5779 1.20798C21.3373 1.01826 26.244 3.91012 29.2979 9.88353C31.6607 16.0841 30.594 21.6072 26.0979 26.4524C21.4719 30.4474 16.2572 31.443 10.4535 29.4391C3.72915 26.1613 0.766186 20.7806 1.56461 13.2969C3.24214 6.38013 7.57991 2.35051 14.5779 1.20798Z" fill="#010101"/>
<path fill-rule="evenodd" clip-rule="evenodd" d="M10.8789 5.90314C12.3572 5.80492 13.8031 5.94714 15.2167 6.3298C15.3349 7.23427 15.3111 8.135 15.1456 9.03203C14.0182 8.47733 12.833 8.264 11.59 8.39203C10.4907 8.81283 10.0878 9.59506 10.3811 10.7387C10.6006 11.0058 10.8613 11.2192 11.1634 11.3787C12.4897 11.5521 13.7223 11.9788 14.8611 12.6587C16.7507 14.4661 16.9167 16.4334 15.3589 18.5609C13.9844 19.8797 12.3488 20.3775 10.4523 20.0542C9.62775 19.9073 8.82182 19.694 8.03448 19.4142C7.86891 18.4696 7.8452 17.5216 7.96337 16.5698C9.04417 17.175 10.2056 17.5068 11.4478 17.5654C13.1218 17.5756 13.8566 16.7696 13.6523 15.1476C13.4863 14.9816 13.3204 14.8158 13.1545 14.6498C11.8369 14.3324 10.5569 13.9057 9.31448 13.3698C7.09466 11.2544 7.04724 9.07367 9.17226 6.82758C9.73175 6.47716 10.3006 6.16901 10.8789 5.90314Z" fill="#F9F9F9"/>
<path fill-rule="evenodd" clip-rule="evenodd" d="M24.2488 17.2805C24.2488 18.0865 24.2488 18.8923 24.2488 19.6983C22.5894 19.6983 20.9303 19.6983 19.271 19.6983C18.584 19.6042 18.1336 19.2249 17.9199 18.5605C17.8488 14.389 17.825 10.217 17.8488 6.04492C18.7021 6.04492 19.5554 6.04492 20.4088 6.04492C20.4088 9.7901 20.4088 13.5353 20.4088 17.2805C21.6888 17.2805 22.9688 17.2805 24.2488 17.2805Z" fill="#FDFDFD"/>
<path fill-rule="evenodd" clip-rule="evenodd" d="M24.2473 17.2793C24.3881 18.1056 24.4355 18.9589 24.3895 19.8393C22.6575 19.8859 20.9509 19.8386 19.2695 19.6971C20.9288 19.6971 22.588 19.6971 24.2473 19.6971C24.2473 18.8911 24.2473 18.0853 24.2473 17.2793Z" fill="#C9C9C9"/>
<path fill-rule="evenodd" clip-rule="evenodd" d="M6.47287 21.9727C6.80472 21.9727 7.13658 21.9727 7.46843 21.9727C7.49072 22.1679 7.46701 22.3577 7.39732 22.5415C7.15183 22.3885 6.89109 22.3648 6.6151 22.4704C6.54087 22.5502 6.49347 22.6451 6.47287 22.7549C6.84311 23.0875 7.24607 23.3957 7.68176 23.6793C7.80341 24.1708 7.63748 24.5264 7.18399 24.746C6.80767 24.8167 6.4284 24.8404 6.04621 24.8171C6.00895 24.6069 6.05635 24.4173 6.18843 24.2482C6.84747 24.5668 7.17934 24.3772 7.18399 23.6793C5.81928 23.5121 5.58225 22.9432 6.47287 21.9727Z" fill="#E5E5E5"/>
<path fill-rule="evenodd" clip-rule="evenodd" d="M14.4375 21.9727C14.5797 21.9727 14.7219 21.9727 14.8642 21.9727C14.8642 22.9209 14.8642 23.8689 14.8642 24.8171C14.7219 24.8171 14.5797 24.8171 14.4375 24.8171C14.4375 23.8689 14.4375 22.9209 14.4375 21.9727Z" fill="#F1F1F1"/>
<path fill-rule="evenodd" clip-rule="evenodd" d="M15.8574 21.9727C15.8574 22.7786 15.8574 23.5845 15.8574 24.3904C16.1418 24.3904 16.4263 24.3904 16.7107 24.3904C16.7107 24.5327 16.7107 24.6749 16.7107 24.8171C16.2915 24.8565 15.8885 24.8091 15.5018 24.6749C15.4307 23.7753 15.4071 22.8746 15.4307 21.9727C15.5729 21.9727 15.7152 21.9727 15.8574 21.9727Z" fill="#F6F6F6"/>
<path fill-rule="evenodd" clip-rule="evenodd" d="M20.4106 21.9727C20.5529 21.9727 20.6951 21.9727 20.8373 21.9727C20.8609 22.7327 20.8372 23.4912 20.7662 24.2482C20.3384 24.8743 19.8169 24.9691 19.2018 24.5327C18.7364 23.4117 19.092 22.9376 20.2684 23.1104C20.4078 22.7426 20.4552 22.3633 20.4106 21.9727Z" fill="#E8E8E8"/>
<path fill-rule="evenodd" clip-rule="evenodd" d="M22.5435 21.9727C22.6857 21.9727 22.8279 21.9727 22.9701 21.9727C22.9937 22.7327 22.97 23.4912 22.899 24.2482C22.4712 24.8743 21.9497 24.9691 21.3346 24.5327C20.8692 23.4117 21.2248 22.9376 22.4012 23.1104C22.5406 22.7426 22.588 22.3633 22.5435 21.9727Z" fill="#E8E8E8"/>
<path fill-rule="evenodd" clip-rule="evenodd" d="M11.4492 22.2578C12.2077 22.4 12.2077 22.5423 11.4492 22.6845C11.4492 22.5423 11.4492 22.4 11.4492 22.2578Z" fill="#ECECEC"/>
<path fill-rule="evenodd" clip-rule="evenodd" d="M15.8594 21.9727C15.9999 22.7037 16.0473 23.4623 16.0016 24.2482C16.274 24.2078 16.5109 24.2552 16.7127 24.3904C16.4283 24.3904 16.1438 24.3904 15.8594 24.3904C15.8594 23.5845 15.8594 22.7786 15.8594 21.9727Z" fill="#424242"/>
<path fill-rule="evenodd" clip-rule="evenodd" d="M8.46276 22.9688C9.64958 22.9959 9.98143 23.5411 9.45832 24.6043C8.38461 25.0287 7.88683 24.6731 7.96498 23.5376C8.06308 23.2745 8.22901 23.0848 8.46276 22.9688Z" fill="#E6E6E6"/>
<path fill-rule="evenodd" clip-rule="evenodd" d="M11.4492 22.9688C11.5914 22.9688 11.7337 22.9688 11.8759 22.9688C11.8759 23.585 11.8759 24.2014 11.8759 24.8176C11.7337 24.8176 11.5914 24.8176 11.4492 24.8176C11.4492 24.2014 11.4492 23.585 11.4492 22.9688Z" fill="#E9E9E9"/>
<path fill-rule="evenodd" clip-rule="evenodd" d="M12.7302 22.9688C13.935 22.9909 14.409 23.6072 14.1525 24.8176C13.6891 24.7369 13.215 24.7132 12.7302 24.7465C12.168 24.1542 12.168 23.5617 12.7302 22.9688Z" fill="#E6E6E6"/>
<path fill-rule="evenodd" clip-rule="evenodd" d="M17.4213 22.9688C18.6251 22.9976 19.0517 23.614 18.7013 24.8176C18.2951 24.7568 17.8684 24.733 17.4213 24.7465C16.6721 24.1545 16.6721 23.562 17.4213 22.9688Z" fill="#EBEBEB"/>
<path fill-rule="evenodd" clip-rule="evenodd" d="M23.6813 22.9681C24.6558 22.8993 25.0825 23.3259 24.9613 24.2481C24.3083 25.0363 23.7157 24.9889 23.1835 24.1059C23.1518 23.6472 23.3176 23.2681 23.6813 22.9681Z" fill="#E7E7E7"/>
<path fill-rule="evenodd" clip-rule="evenodd" d="M25.8142 23.5382C25.7195 23.8978 25.6248 24.2769 25.5298 24.676C25.3899 24.2596 25.3425 23.8329 25.3876 23.396C25.5157 23.0793 25.7527 22.937 26.0987 22.9693C26.0949 23.211 26 23.4007 25.8142 23.5382Z" fill="#FAFAFA"/>
<path fill-rule="evenodd" clip-rule="evenodd" d="M10.4533 22.9688C10.6904 22.9688 10.9274 22.9688 11.1644 22.9688C11.1644 23.111 11.1644 23.2532 11.1644 23.3954C10.4778 23.3791 10.2882 23.6873 10.5955 24.3199C10.7795 24.3896 10.9691 24.4133 11.1644 24.391C11.1644 24.5332 11.1644 24.6754 11.1644 24.8176C10.2958 24.8262 9.89288 24.3995 9.95554 23.5376C10.1512 23.3663 10.3171 23.1767 10.4533 22.9688Z" fill="#E5E5E5"/>
<path fill-rule="evenodd" clip-rule="evenodd" d="M8.60335 23.3965C9.31344 23.4672 9.45566 23.7754 9.03002 24.3209C8.30217 24.2959 8.15995 23.9878 8.60335 23.3965Z" fill="#050505"/>
<path fill-rule="evenodd" clip-rule="evenodd" d="M12.8696 23.3965C13.6541 23.3927 13.8437 23.7009 13.4385 24.321C13.2395 24.4056 13.0499 24.3818 12.8696 24.2499C12.6997 23.9631 12.6997 23.6787 12.8696 23.3965Z" fill="#161616"/>
<path fill-rule="evenodd" clip-rule="evenodd" d="M17.5643 23.3965C18.2723 23.4608 18.4145 23.769 17.991 24.3209C17.2631 24.2959 17.1209 23.9878 17.5643 23.3965Z" fill="#0E0E0E"/>
<path fill-rule="evenodd" clip-rule="evenodd" d="M19.6971 23.3965C20.4073 23.4672 20.5495 23.7754 20.1238 24.3209C19.3959 24.2959 19.2537 23.9878 19.6971 23.3965Z" fill="#0A0A0A"/>
<path fill-rule="evenodd" clip-rule="evenodd" d="M21.8299 23.3965C22.5401 23.4672 22.6823 23.7754 22.2566 24.3209C21.5287 24.2959 21.3865 23.9878 21.8299 23.3965Z" fill="#0A0A0A"/>
<path fill-rule="evenodd" clip-rule="evenodd" d="M23.8219 23.3948C24.0963 23.3565 24.3332 23.4277 24.533 23.6081C24.2486 23.703 23.9641 23.703 23.6797 23.6081C23.7588 23.5537 23.8061 23.4826 23.8219 23.3948Z" fill="#121212"/>
<path fill-rule="evenodd" clip-rule="evenodd" d="M25.3849 23.3965C25.3399 23.8334 25.3872 24.2601 25.5272 24.6765C25.6222 24.2774 25.7169 23.8982 25.8116 23.5387C25.8116 23.9654 25.8116 24.392 25.8116 24.8187C25.622 24.8187 25.4323 24.8187 25.2427 24.8187C25.1982 24.315 25.2457 23.8409 25.3849 23.3965Z" fill="#9C9C9C"/>
<path fill-rule="evenodd" clip-rule="evenodd" d="M23.6797 24.248C23.934 24.0884 24.2184 24.0647 24.533 24.1769C24.2678 24.4329 23.9833 24.4565 23.6797 24.248Z" fill="#151515"/>
</g>
<defs>
<clipPath id="clip0_134_2090">
<rect width="32" height="32" fill="white"/>
</clipPath>
</defs>
</svg>
