<svg width="32" height="32" viewBox="0 0 32 32" fill="none" xmlns="http://www.w3.org/2000/svg">
    <path
        d="M4.15719 29.5253L3.2002 3.19162C3.2002 2.31383 3.83819 1.59563 4.71543 1.51584L27.0452 0.0794516C27.2611 0.057518 27.4792 0.0799011 27.6862 0.145231C27.8931 0.210561 28.0846 0.317463 28.2488 0.459395C28.4131 0.601327 28.5466 0.775303 28.6414 0.970676C28.7361 1.16605 28.79 1.37871 28.7997 1.59563C28.8004 1.62223 28.8004 1.64884 28.7997 1.67543V30.4031C28.7997 30.8264 28.6317 31.2323 28.3325 31.5316C28.0334 31.8309 27.6277 31.9991 27.2047 31.9991C27.1781 31.9998 27.1515 31.9998 27.125 31.9991L5.75217 31.0415C5.32915 31.0415 4.92346 30.8734 4.62435 30.5741C4.32523 30.2747 4.15719 29.8688 4.15719 29.4455V29.5253Z"
        fill="#FF4785" />
    <path
        d="M22.1008 4.06975L22.3401 0.239397L25.4503 0L25.53 3.83036C25.5266 3.87497 25.5108 3.91774 25.4843 3.9538C25.4579 3.98987 25.4218 4.0178 25.3803 4.03442C25.3388 4.05103 25.2935 4.05568 25.2495 4.04782C25.2054 4.03996 25.1645 4.01991 25.1313 3.98996L23.935 3.11217L22.5793 4.22935C22.5416 4.26757 22.4922 4.29202 22.439 4.29877C22.3858 4.30551 22.3319 4.29417 22.2859 4.26655C22.2399 4.23893 22.2045 4.19665 22.1854 4.14649C22.1663 4.09632 22.1646 4.0412 22.1806 3.98996L22.1008 4.06975ZM18.1134 12.0497C18.1134 12.7679 22.3401 12.4487 22.8983 12.0497C22.8983 7.74051 20.6653 5.50614 16.5184 5.50614C12.2917 5.50614 9.97893 7.74051 9.97893 11.1719C9.97893 17.077 17.9539 17.2366 17.9539 20.4286C17.9539 21.3862 17.5551 21.9448 16.5184 21.9448C15.2424 21.9448 14.7639 21.2266 14.8436 19.072C14.8436 18.5932 9.97893 18.4336 9.81943 19.072C9.42069 24.4185 12.7702 25.9347 16.5981 25.9347C20.2666 25.9347 23.2173 23.9397 23.2173 20.3488C23.2173 14.0446 15.0829 14.2042 15.0829 11.0921C15.0829 9.81529 16.0399 9.65569 16.6779 9.65569C17.1564 9.65569 18.2729 9.65569 18.1931 12.0497H18.1134Z"
        fill="white" />
</svg>