<svg width="32" height="32" viewBox="0 0 33 33" fill="none" xmlns="http://www.w3.org/2000/svg">
    <path fill-rule="evenodd" clip-rule="evenodd"
        d="M19.7648 1.35333C18.0363 2.26796 16.2364 3.08575 14.3652 3.80667C14.4742 3.95438 14.6127 4.06105 14.7805 4.12667C16.5369 3.47314 18.2677 2.76204 19.9725 1.99333C20.3125 1.8402 20.6585 1.80465 21.0109 1.88667C24.7307 3.40654 28.4689 4.86431 32.2256 6.26C27.0716 8.72876 21.8796 11.1465 16.6496 13.5133C15.584 13.0547 14.5456 12.5569 13.5345 12.02C15.6061 11.0385 17.6829 10.0785 19.7648 9.14C19.3495 8.99777 18.9341 8.99777 18.5188 9.14C16.6521 9.98009 14.783 10.7979 12.9114 11.5933C8.69731 10.1038 4.61294 8.32596 0.658325 6.26C5.59159 4.44025 10.5067 2.55581 15.4036 0.606667C16.1651 0.464444 16.9265 0.464444 17.688 0.606667C18.3626 0.918031 19.0548 1.16692 19.7648 1.35333Z"
        fill="#C32A2C" />
    <path fill-rule="evenodd" clip-rule="evenodd"
        d="M19.7648 1.35352C19.9526 1.50476 20.0217 1.71809 19.9725 1.99352C18.2677 2.76222 16.5369 3.47332 14.7805 4.12685C14.6127 4.06123 14.4742 3.95456 14.3652 3.80685C16.2364 3.08593 18.0363 2.26814 19.7648 1.35352Z"
        fill="#70172C" />
    <path fill-rule="evenodd" clip-rule="evenodd"
        d="M0.658299 6.25977C4.61291 8.32573 8.69728 10.1035 12.9114 11.5931C13.0096 11.8931 13.2173 12.0353 13.5344 12.0198C14.5456 12.5567 15.584 13.0545 16.6496 13.5131C16.6496 14.8642 16.6496 16.2153 16.6496 17.5664C14.3456 16.6323 12.0612 15.6368 9.7962 14.5798C9.72698 14.6864 9.65774 14.7931 9.58852 14.8998C11.8541 16.1696 14.2079 17.2718 16.6496 18.2064C16.6496 21.1931 16.6496 24.1798 16.6496 27.1664C16.6496 27.3798 16.6496 27.5931 16.6496 27.8064C16.5821 29.3397 16.6515 30.833 16.8573 32.2864C16.8448 32.4023 16.7757 32.4733 16.6496 32.4998C11.4576 30.1175 6.26565 27.7354 1.07366 25.3531C0.900599 25.1754 0.727518 24.9975 0.554459 24.8198C0.450702 23.3994 0.416082 21.9771 0.450619 20.5531C2.78068 21.5897 5.09975 22.6564 7.40788 23.7531C7.54989 23.4792 7.51527 23.2302 7.30404 23.0064C5.26384 22.107 3.25629 21.147 1.28134 20.1264C1.05638 20.118 0.848699 20.0469 0.658299 19.9131C0.382438 15.3272 0.382438 10.7761 0.658299 6.25977Z"
        fill="#A0232D" />
    <path fill-rule="evenodd" clip-rule="evenodd"
        d="M32.2256 6.25977C32.4993 7.64882 32.4993 9.07103 32.2256 10.5264C31.9431 10.6715 31.6663 10.8137 31.3949 10.9531C29.3681 11.8159 27.3605 12.7404 25.3721 13.7264C25.0953 13.9398 25.0953 14.1531 25.3721 14.3664C27.6442 13.3776 29.8593 12.3109 32.0179 11.1664C32.2945 13.2594 32.433 15.4283 32.4332 17.6731C32.4611 20.0699 32.3572 22.4522 32.1217 24.8198C27.0448 27.3384 21.9566 29.8273 16.8573 32.2864C16.6515 30.833 16.5821 29.3397 16.6496 27.8064C18.9891 26.7686 21.3427 25.7729 23.7107 24.8198C23.7107 24.6064 23.7107 24.3931 23.7107 24.1798C21.3427 25.1329 18.9891 26.1286 16.6496 27.1664C16.6496 24.1798 16.6496 21.1931 16.6496 18.2064C16.6496 17.9931 16.6496 17.7798 16.6496 17.5664C16.6496 16.2153 16.6496 14.8642 16.6496 13.5131C21.8796 11.1463 27.0716 8.72852 32.2256 6.25977Z"
        fill="#EA4C49" />
    <path fill-rule="evenodd" clip-rule="evenodd"
        d="M13.5344 12.0199C13.2173 12.0354 13.0096 11.8932 12.9114 11.5932C14.783 10.7978 16.6521 9.97996 18.5187 9.13988C18.9341 8.99765 19.3494 8.99765 19.7648 9.13988C17.6828 10.0784 15.606 11.0384 13.5344 12.0199Z"
        fill="#691429" />
    <path fill-rule="evenodd" clip-rule="evenodd"
        d="M31.3949 10.9531C31.5421 11.146 31.7498 11.2171 32.0179 11.1665C29.8593 12.3109 27.6442 13.3776 25.3722 14.3665C25.0953 14.1531 25.0953 13.9398 25.3722 13.7265C27.3605 12.7404 29.3681 11.816 31.3949 10.9531Z"
        fill="#871F40" />
    <path fill-rule="evenodd" clip-rule="evenodd"
        d="M16.6496 17.5667C16.6496 17.7801 16.6496 17.9934 16.6496 18.2067C14.2079 17.2721 11.8541 16.1699 9.5885 14.9001C9.65772 14.7934 9.72696 14.6867 9.79618 14.5801C12.0611 15.6371 14.3456 16.6326 16.6496 17.5667Z"
        fill="#5A0F22" />
    <path fill-rule="evenodd" clip-rule="evenodd"
        d="M1.28134 20.1265C3.25629 21.1471 5.26384 22.1071 7.30405 23.0065C7.51528 23.2303 7.5499 23.4792 7.40789 23.7531C5.09976 22.6564 2.78068 21.5897 0.450623 20.5531C0.727522 20.4109 1.00444 20.2687 1.28134 20.1265Z"
        fill="#5F1425" />
    <path fill-rule="evenodd" clip-rule="evenodd"
        d="M16.6497 27.8068C16.6497 27.5935 16.6497 27.3802 16.6497 27.1668C18.9892 26.129 21.3428 25.1333 23.7108 24.1802C23.7108 24.3935 23.7108 24.6068 23.7108 24.8202C21.3428 25.7733 18.9892 26.769 16.6497 27.8068Z"
        fill="#821F3E" />
</svg>