<svg width="32" height="32" viewBox="0 0 32 32" fill="none" xmlns="http://www.w3.org/2000/svg">
    <g clip-path="url(#clip0_2067_45)">
        <path fill-rule="evenodd" clip-rule="evenodd"
            d="M-0.0712891 -0.0712891C10.5954 -0.0712891 21.262 -0.0712891 31.9287 -0.0712891C31.9287 0.0235258 31.9287 0.118341 31.9287 0.213155C21.262 0.213155 10.5954 0.213155 -0.0712891 0.213155C-0.0712891 0.118341 -0.0712891 0.0235258 -0.0712891 -0.0712891Z"
            fill="#314D60" />
        <path fill-rule="evenodd" clip-rule="evenodd"
            d="M-0.0712891 0.213379C10.5954 0.213379 21.262 0.213379 31.9287 0.213379C31.9287 10.7852 31.9287 21.3571 31.9287 31.9289C21.262 31.9289 10.5954 31.9289 -0.0712891 31.9289C-0.0712891 21.3571 -0.0712891 10.7852 -0.0712891 0.213379Z"
            fill="#00364B" />
        <path fill-rule="evenodd" clip-rule="evenodd"
            d="M24.7859 4.05312C27.1443 4.00675 28.2633 5.14453 28.143 7.46645C27.5683 8.79714 26.6159 9.74529 25.2859 10.3109C25.1277 10.2988 24.9849 10.2514 24.8573 10.1687C24.8537 9.68274 24.8299 9.20866 24.7859 8.74645C23.031 8.09587 22.531 6.91069 23.2859 5.1909C23.6937 4.66315 24.1937 4.28389 24.7859 4.05312Z"
            fill="#F9FBFB" />
        <path fill-rule="evenodd" clip-rule="evenodd"
            d="M16.4998 7.32424C18.7816 7.20465 20.8769 7.74983 22.7855 8.9598C23.9006 10.0858 24.0673 11.3421 23.2855 12.7287C22.3922 13.5942 21.3685 13.7838 20.2141 13.2976C20.0951 13.1554 19.9759 13.0131 19.8569 12.8709C19.8033 11.266 18.9699 10.5786 17.3569 10.8087C16.1969 11.0584 15.6492 11.7458 15.7141 12.8709C15.8331 12.9894 15.9522 13.108 16.0712 13.2265C17.4689 13.7878 18.8975 14.2618 20.3569 14.6487C22.7172 15.7717 23.5029 17.597 22.7141 20.1242C22.0961 21.7828 20.9771 22.9917 19.3569 23.7509C16.8892 24.7118 14.3653 24.9013 11.7855 24.3198C10.31 23.9541 9.191 23.1244 8.42834 21.8309C7.92186 20.4044 8.279 19.243 9.49977 18.3465C10.613 17.7833 11.6368 17.9019 12.5712 18.702C12.6188 19.3658 12.6664 20.0294 12.7141 20.6931C13.0058 20.9924 13.363 21.1583 13.7855 21.1909C14.7545 21.2831 15.7069 21.1882 16.6426 20.9065C17.4979 20.6021 17.8075 20.0095 17.5712 19.1287C17.4045 18.9627 17.2379 18.7969 17.0712 18.6309C15.7538 18.1134 14.4203 17.6393 13.0712 17.2087C10.6445 16.1451 9.7635 14.32 10.4283 11.7331C11.1151 9.91162 12.377 8.65531 14.2141 7.96424C14.9818 7.70261 15.7436 7.48928 16.4998 7.32424Z"
            fill="#FBFCFC" />
    </g>
    <defs>
        <clipPath id="clip0_2067_45">
            <rect width="32" height="32" fill="white" />
        </clipPath>
    </defs>
</svg>