<svg width="32" height="32" viewBox="0 0 32 32" fill="none" xmlns="http://www.w3.org/2000/svg">
    <rect width="32" height="32" rx="16" fill="#FAFAFA" />
    <path fill-rule="evenodd" clip-rule="evenodd"
        d="M16.3479 18.9374C17.3548 19.5221 18.6424 19.1752 19.2237 18.1624C19.8051 17.1497 19.4601 15.8548 18.4531 15.2702L14.6524 13.0633C13.6454 12.4786 12.3579 12.8257 11.7765 13.8383C11.1952 14.851 11.5402 16.1459 12.5471 16.7305L16.3479 18.9374Z"
        fill="black" />
    <path fill-rule="evenodd" clip-rule="evenodd"
        d="M12.6883 8.15679C12.1135 7.83003 11.4486 7.64341 10.7401 7.64341C8.5596 7.64341 6.79195 9.41115 6.79195 11.5918C6.79195 12.1881 6.92417 12.7536 7.16088 13.2606C5.78625 12.6086 4.83496 11.2022 4.83496 9.57243C4.83496 7.32168 6.64922 5.49707 8.88721 5.49707C10.6303 5.49707 12.1163 6.60388 12.6883 8.15679Z"
        fill="#7542E4" />
    <path
        d="M18.6801 2.8602C16.7021 1.71168 14.2647 1.71338 12.2883 2.86465L6.79297 6.06563C7.55332 5.67549 8.33806 5.60192 9.46715 6.25737L27.0002 16.4379V9.66822C27.0002 8.44481 26.3512 7.31433 25.2977 6.70263L18.6801 2.8602Z"
        fill="#AB71FF" />
    <path fill-rule="evenodd" clip-rule="evenodd"
        d="M18.3145 23.852C18.8827 24.1736 19.5387 24.3571 20.2373 24.3571C22.4056 24.3571 24.1634 22.5894 24.1634 20.4088C24.1634 19.8025 24.0274 19.2281 23.7847 18.7148C25.1884 19.3552 26.1647 20.777 26.1647 22.4282C26.1647 24.6788 24.3505 26.5035 22.1125 26.5035C20.3725 26.5035 18.8887 25.4005 18.3145 23.852Z"
        fill="#E22850" />
    <path
        d="M12.3201 29.1403C14.2981 30.2888 16.7355 30.2871 18.7119 29.1357L24.2072 25.9348C23.4469 26.3249 22.6621 26.3985 21.5331 25.7431L4 15.5625V22.3322C4 23.5556 4.64898 24.6861 5.70248 25.2978L12.3201 29.1403Z"
        fill="#FF4F5E" />
</svg>