<svg width="32" height="32" viewBox="0 0 33 32" fill="none" xmlns="http://www.w3.org/2000/svg">
    <path fill-rule="evenodd" clip-rule="evenodd"
        d="M22.0053 5.86563C22.0053 5.89052 21.9773 5.90001 21.9428 5.8868C21.9085 5.87359 21.8803 5.87783 21.8803 5.89611C21.8803 5.9144 21.8102 5.92625 21.7242 5.92235C21.6383 5.91846 21.5333 5.93268 21.4907 5.95419C21.4402 5.97958 21.3976 5.97738 21.3678 5.94758C21.3128 5.89222 21.2415 5.88663 21.2744 5.9403C21.306 5.99143 21.1063 6.02885 20.9117 6.0082C20.8255 5.99905 20.765 6.00786 20.7773 6.02801C20.7897 6.04798 20.729 6.08388 20.6427 6.10792C20.5398 6.13636 20.4806 6.13704 20.4715 6.11012C20.4639 6.08743 20.4411 6.06881 20.4208 6.06881C20.4005 6.06881 20.3938 6.09454 20.4058 6.12604C20.422 6.1682 20.3997 6.17802 20.3213 6.16295C20.2449 6.14839 20.2147 6.16041 20.2147 6.20578C20.2147 6.25116 20.1747 6.26707 20.0726 6.26216C19.9945 6.25844 19.9381 6.26792 19.9474 6.28299C19.9567 6.29806 19.9354 6.32159 19.9001 6.33514C19.8646 6.34885 19.8464 6.34276 19.8594 6.32159C19.8724 6.30043 19.8639 6.27148 19.8406 6.25708C19.8173 6.24269 19.7984 6.26115 19.7984 6.2984C19.7984 6.35004 19.7688 6.36121 19.6732 6.34614C19.6042 6.33531 19.5573 6.34157 19.5688 6.36003C19.5965 6.40506 19.4422 6.49869 19.2258 6.56794C19.1285 6.5991 19.0487 6.63854 19.0487 6.65565C19.0487 6.67258 18.9919 6.70644 18.9225 6.73065C18.8475 6.75689 18.8061 6.75859 18.8208 6.73488C18.8343 6.7127 18.8257 6.69476 18.8013 6.69476C18.7772 6.69476 18.7572 6.71355 18.7572 6.73641C18.7572 6.75943 18.7187 6.77823 18.6716 6.77823C18.6244 6.77823 18.5974 6.79702 18.6116 6.81988C18.626 6.84341 18.5927 6.8617 18.5352 6.8617C18.479 6.8617 18.4222 6.8898 18.409 6.92417C18.3958 6.95871 18.3482 6.98682 18.3029 6.98682C18.2578 6.98682 18.2091 7.00595 18.1948 7.02932C18.1803 7.05251 18.1531 7.06216 18.1341 7.05031C18.1152 7.03863 18.0892 7.05675 18.0762 7.09078C18.0615 7.12887 18.0255 7.14191 17.9817 7.12515C17.9337 7.10669 17.9206 7.11363 17.9408 7.14665C17.9574 7.17357 17.9511 7.19778 17.927 7.20066C17.9027 7.20354 17.8594 7.20828 17.8308 7.21116C17.8165 7.21303 17.8034 7.22003 17.7938 7.23085C17.7842 7.24167 17.7788 7.2556 17.7786 7.27008C17.7786 7.35203 17.6654 7.40671 17.6031 7.3549C17.5647 7.32307 17.5497 7.32443 17.5497 7.35981C17.5497 7.3869 17.5277 7.39554 17.501 7.37895C17.4694 7.35931 17.4607 7.37048 17.476 7.41078C17.4897 7.44667 17.4647 7.49459 17.4162 7.52489C17.3517 7.56536 17.3398 7.56553 17.3643 7.52591C17.3846 7.49306 17.3787 7.48544 17.348 7.50441C17.3339 7.51435 17.3222 7.52736 17.3139 7.54246C17.3055 7.55756 17.3007 7.57437 17.2998 7.5916C17.2998 7.62309 17.2621 7.66085 17.216 7.67558C17.1699 7.69031 17.1417 7.71774 17.1533 7.73653C17.165 7.7555 17.1455 7.78208 17.1101 7.79562C17.07 7.81103 17.0562 7.80324 17.0737 7.77497C17.0937 7.74246 17.0781 7.74229 17.0188 7.77412C16.9734 7.7985 16.9232 7.80561 16.9075 7.78987C16.8918 7.77429 16.8926 7.79698 16.9093 7.84032C16.9328 7.90195 16.9247 7.91363 16.8727 7.89366C16.824 7.87486 16.8098 7.88875 16.8205 7.94428C16.832 8.00354 16.8159 8.01539 16.7487 7.99778C16.6934 7.98339 16.6721 7.99135 16.6897 8.01996C16.7052 8.04502 16.6623 8.08904 16.5917 8.12036C16.5226 8.15101 16.4748 8.19893 16.4856 8.22686C16.4905 8.24124 16.4906 8.25684 16.4857 8.27124C16.4808 8.28564 16.4714 8.29802 16.4587 8.30644C16.4307 8.32371 16.4243 8.31609 16.4422 8.2868C16.4586 8.26039 16.4543 8.23871 16.4327 8.23871C16.4111 8.23871 16.3837 8.2763 16.3717 8.32218C16.3656 8.3461 16.3516 8.36727 16.3322 8.38239C16.3127 8.3975 16.2887 8.40569 16.2641 8.40566C16.2 8.40566 16.1848 8.42428 16.2043 8.47863C16.2186 8.51876 16.2158 8.5384 16.1979 8.52214C16.1799 8.50589 16.133 8.53247 16.0936 8.58123C16.0081 8.68705 15.8993 8.66013 15.8461 8.51977C15.7998 8.39736 15.6927 8.30678 15.6361 8.34183C15.6121 8.35672 15.5925 8.3464 15.5925 8.31897C15.5925 8.25006 15.3939 8.07177 15.3172 8.07177C15.2828 8.07177 15.266 8.05298 15.2802 8.03012C15.2944 8.00709 15.2679 7.9883 15.2216 7.9883C15.1599 7.9883 15.1442 7.96951 15.1637 7.91888C15.1816 7.87215 15.1743 7.85929 15.1415 7.8796C15.1148 7.8962 15.0929 7.88993 15.0929 7.86555C15.0929 7.84134 15.0481 7.82136 14.9932 7.82136C14.9384 7.82136 14.8823 7.79207 14.8686 7.75617C14.8548 7.72028 14.8261 7.70183 14.8046 7.7152C14.783 7.72841 14.7538 7.72028 14.7394 7.69692C14.7249 7.67355 14.6674 7.65442 14.6115 7.65442C14.5556 7.65442 14.5099 7.63969 14.5099 7.62157C14.5099 7.60362 14.4689 7.58568 14.419 7.58195C14.369 7.57823 14.3113 7.54487 14.2906 7.50796C14.2699 7.47105 14.2124 7.44481 14.1629 7.44972C14.1132 7.45446 14.0195 7.43668 13.9546 7.4101C13.8897 7.38352 13.8206 7.37167 13.801 7.38386C13.7814 7.39605 13.7461 7.37268 13.7226 7.33205C13.6824 7.26297 13.6795 7.26348 13.6783 7.33916C13.6771 7.41924 13.6763 7.41924 13.6112 7.33916C13.5577 7.2733 13.5494 7.27126 13.5675 7.329C13.5829 7.37844 13.5714 7.39283 13.5295 7.37675C13.4964 7.36405 13.4784 7.33899 13.4894 7.32104C13.5192 7.27296 13.37 7.2926 13.3342 7.34153C13.3147 7.36811 13.3032 7.36574 13.3029 7.33526C13.3026 7.30801 13.2368 7.28735 13.1512 7.28735C13.068 7.28735 12.9844 7.26212 12.9655 7.23131C12.9379 7.18678 12.9204 7.18593 12.8793 7.22707C12.8075 7.29903 12.1095 7.29869 12.0806 7.22674C12.0638 7.18508 12.059 7.18508 12.0563 7.22674C12.0541 7.26178 11.9783 7.27888 11.8265 7.27888C11.7018 7.27888 11.5912 7.29311 11.5805 7.31021C11.5699 7.32748 11.4518 7.34712 11.3178 7.35406C11.1823 7.36083 11.0561 7.39029 11.0328 7.42026C11.01 7.44989 10.9672 7.46597 10.9378 7.45598C10.9084 7.44616 10.8586 7.45937 10.8273 7.48544C10.7842 7.52117 10.7648 7.51965 10.7481 7.47884C10.7308 7.43736 10.7133 7.44007 10.671 7.4912C10.6409 7.52777 10.5968 7.5508 10.5729 7.54284C10.549 7.53471 10.4894 7.56536 10.4406 7.6109C10.3872 7.66085 10.3458 7.67541 10.3365 7.64765C10.327 7.6192 10.2934 7.62953 10.2483 7.67474C10.2081 7.71503 10.1645 7.73721 10.1515 7.72401C10.1383 7.71097 10.1025 7.72282 10.0715 7.75042C9.9276 7.87926 9.88654 7.90483 9.82453 7.90483C9.78415 7.90483 9.76979 7.92413 9.78804 7.95376C9.80713 7.98475 9.79648 7.99457 9.75914 7.98068C9.72687 7.96866 9.64408 7.99338 9.57532 8.03554C9.50672 8.0777 9.4094 8.13035 9.35922 8.1527C9.3092 8.17488 9.24889 8.22889 9.2254 8.27292C9.19735 8.32557 9.14683 8.34877 9.07722 8.34115C9.0191 8.33471 8.97162 8.34657 8.97162 8.36756C8.97162 8.4192 8.81635 8.41615 8.78425 8.36384C8.77005 8.34098 8.67527 8.32218 8.57355 8.32218C8.47184 8.32218 8.38854 8.30339 8.38854 8.28036C8.38854 8.25751 8.35931 8.23871 8.32366 8.23871C8.28801 8.23871 8.26723 8.22466 8.27771 8.20739C8.28801 8.19012 8.27044 8.15186 8.23851 8.12223C8.20657 8.09277 8.18039 8.08227 8.18039 8.09903C8.18039 8.11579 8.15521 8.0948 8.12429 8.05247C8.09337 8.01014 8.04657 7.98898 8.02021 8.00523C7.98997 8.02403 7.97223 8.0032 7.97223 7.94902C7.97223 7.90178 7.94874 7.86792 7.92019 7.87351C7.89146 7.87926 7.87119 7.86521 7.87508 7.84235C7.87879 7.81933 7.83419 7.79766 7.7759 7.79427C7.71761 7.79071 7.6583 7.77141 7.64411 7.75126C7.62992 7.73112 7.57653 7.71723 7.52567 7.72062C7.47464 7.72384 7.44305 7.71029 7.45521 7.69048C7.46738 7.67067 7.452 7.65442 7.42074 7.65442C7.38966 7.65442 7.34184 7.63207 7.3143 7.60447C7.28693 7.57704 7.19704 7.55165 7.11442 7.54809C7.03197 7.54453 6.94952 7.51744 6.93144 7.48798C6.91083 7.45463 6.85912 7.44447 6.7934 7.46106C6.72784 7.47749 6.68188 7.46868 6.67158 7.43753C6.66195 7.40858 6.57257 7.38657 6.46004 7.38538C6.35275 7.3842 6.26489 7.36811 6.26489 7.34949C6.26489 7.33086 6.24529 7.32781 6.22147 7.34271C6.19748 7.35744 6.15169 7.34779 6.11959 7.32104C6.08748 7.29429 5.97124 7.27567 5.86125 7.27939C5.75109 7.28329 5.64245 7.28312 5.61947 7.27905C5.59649 7.27516 5.4794 7.27482 5.35927 7.27838C5.20264 7.28312 5.14047 7.2694 5.13996 7.22978C5.13945 7.18559 5.13253 7.18525 5.10549 7.22792C5.08674 7.25755 4.97083 7.28667 4.84344 7.29361C4.7179 7.30039 4.59 7.32155 4.55908 7.34051C4.52157 7.36388 4.51295 7.35948 4.53289 7.32714C4.55029 7.29869 4.53644 7.27888 4.49893 7.27888C4.45652 7.27888 4.44368 7.30326 4.46041 7.35203C4.48119 7.4123 4.47325 7.41044 4.41479 7.34153C4.36477 7.28244 4.33791 7.2733 4.32254 7.31021C4.31054 7.33899 4.25664 7.36235 4.20257 7.36235C4.14868 7.36235 4.09207 7.3825 4.07704 7.40705C4.06183 7.43143 4.02381 7.44176 3.99256 7.42974C3.9613 7.41755 3.92447 7.42602 3.91061 7.44837C3.89693 7.47071 3.87006 7.47935 3.85131 7.46767C3.83238 7.45598 3.73979 7.47376 3.64535 7.50712C3.46811 7.56976 3.46287 7.57112 3.3892 7.57112C3.36487 7.57112 3.35862 7.59296 3.37518 7.61988C3.39545 7.65272 3.38261 7.66001 3.33598 7.64206C3.28935 7.62411 3.26671 7.63698 3.26671 7.68151C3.26671 7.72722 3.24086 7.74094 3.18341 7.72587C3.13762 7.71385 3.10011 7.72214 3.10011 7.74432C3.10011 7.7665 3.08136 7.77294 3.05855 7.75888C3.03557 7.74466 3.01682 7.75499 3.01682 7.78174C3.01682 7.81357 2.97711 7.82119 2.90243 7.80375C2.82032 7.78479 2.80528 7.78868 2.84921 7.81797C2.91983 7.86487 2.83028 7.9199 2.72114 7.89653C2.6892 7.88959 2.66758 7.90754 2.67332 7.93615C2.67907 7.96494 2.65761 7.9883 2.62567 7.9883C2.59391 7.9883 2.55691 8.01658 2.54373 8.05095C2.53055 8.08549 2.45367 8.14525 2.37274 8.18386C2.29181 8.22246 2.22541 8.2741 2.22507 8.29865C2.22473 8.32303 2.20632 8.3149 2.18401 8.28036C2.15056 8.22856 2.14346 8.23211 2.14194 8.30136C2.14059 8.37383 1.84272 8.73937 1.7851 8.73937C1.73255 8.73937 1.55768 8.95304 1.58015 8.98961C1.59485 9.01349 1.57644 9.01941 1.53606 9.00384C1.47928 8.98199 1.47202 8.99452 1.49669 9.07224C1.51713 9.13692 1.51206 9.15808 1.48081 9.13878C1.45462 9.12252 1.4139 9.15622 1.38636 9.217C1.35966 9.27558 1.31979 9.32367 1.29782 9.32367C1.27586 9.32367 1.28346 9.35533 1.31489 9.39427C1.34631 9.43304 1.35324 9.45421 1.33043 9.44134C1.30745 9.42847 1.2419 9.46572 1.18462 9.52447C1.12734 9.58305 1.11332 9.60642 1.15336 9.57645C1.25693 9.49924 1.2495 9.5944 1.14306 9.70885C1.09727 9.75812 1.05976 9.83177 1.05976 9.87258C1.05976 9.92066 1.03813 9.93861 0.998933 9.92354C0.954328 9.90644 0.942839 9.92456 0.955849 9.99194C0.965479 10.0424 0.947569 10.1096 0.916143 10.1413C0.884548 10.1728 0.863765 10.2442 0.869848 10.2999C0.878127 10.3763 0.864442 10.3961 0.814261 10.3807C0.761377 10.3643 0.763234 10.3731 0.823215 10.4223C0.894178 10.4806 0.894516 10.4872 0.827777 10.5246C0.778272 10.5522 0.762897 10.5984 0.777427 10.6748C0.795844 10.7708 0.790099 10.7782 0.731977 10.7323C0.680275 10.6914 0.682641 10.7064 0.742959 10.8011C0.809698 10.9055 0.81105 10.9186 0.75259 10.8962C0.671658 10.8651 0.66169 10.9509 0.737046 11.0322C0.778948 11.0776 0.778272 11.0823 0.733666 11.0569C0.695313 11.0351 0.680782 11.0493 0.686358 11.103C0.704099 11.2704 0.68619 11.3513 0.645639 11.2872C0.620126 11.2469 0.610158 11.295 0.615058 11.4333C0.619113 11.5467 0.641246 11.6536 0.664225 11.6708C0.690414 11.6905 0.682641 11.7188 0.643274 11.747C0.595965 11.7811 0.593599 11.7971 0.633135 11.8132C0.662027 11.8249 0.674869 11.8517 0.662028 11.8727C0.649018 11.8937 0.668786 11.9108 0.705788 11.9108C0.74279 11.9108 0.764418 11.8967 0.753773 11.8794C0.737384 11.8529 6.84949 11.8749 6.87906 11.9014C6.91623 11.9348 6.88024 12.2507 6.8375 12.2672C6.78427 12.2876 6.7716 12.697 6.82161 12.7783C6.83547 12.8007 6.85507 12.9539 6.86537 13.1188C6.87551 13.2835 6.90863 13.449 6.9387 13.4862C6.98584 13.5441 6.98365 13.55 6.92282 13.5272C6.87247 13.5084 6.85878 13.5179 6.87517 13.5609C6.88785 13.5941 6.91066 13.6135 6.92586 13.604C6.94107 13.5947 6.95154 13.7263 6.94901 13.8964C6.94664 14.0666 6.95915 14.2058 6.97672 14.2058C6.99429 14.2058 6.99209 14.2637 6.97182 14.3346C6.9409 14.4423 6.94445 14.4553 6.99294 14.4151C7.04059 14.3754 7.0487 14.3878 7.03771 14.4845C7.03045 14.5493 7.04278 14.6374 7.06525 14.6804C7.09719 14.7415 7.09398 14.7508 7.04988 14.7237C7.01169 14.7002 7.01592 14.723 7.06255 14.7947C7.10057 14.8527 7.12827 14.9697 7.12422 15.0545C7.11966 15.1522 7.13385 15.2024 7.16291 15.1912C7.18809 15.1815 7.2087 15.1991 7.2087 15.2303C7.2087 15.2616 7.19451 15.2782 7.17693 15.2674C7.15936 15.2565 7.13335 15.2667 7.11898 15.2901C7.10462 15.3134 7.12202 15.3326 7.15767 15.3326C7.19349 15.3326 7.22272 15.3497 7.22272 15.3708C7.22272 15.3918 7.23371 15.4435 7.24739 15.4856C7.26801 15.5491 7.26463 15.5515 7.22729 15.4993C7.18978 15.4472 7.18217 15.4519 7.18167 15.5283C7.18133 15.5786 7.20262 15.6331 7.22914 15.6495C7.26125 15.6693 7.26615 15.6598 7.24384 15.6206C7.22036 15.5796 7.22407 15.5745 7.25601 15.6038C7.28101 15.6267 7.30872 15.7159 7.31751 15.8019C7.32629 15.8879 7.34606 15.9707 7.36127 15.9861C7.37665 16.0015 7.38915 16.0679 7.38915 16.1336C7.38915 16.1993 7.41584 16.2634 7.44828 16.2758C7.48495 16.2898 7.50049 16.3373 7.48917 16.3997C7.47904 16.4554 7.49002 16.5008 7.51334 16.5008C7.53665 16.5008 7.55574 16.5667 7.55574 16.6469C7.55574 16.7272 7.5745 16.793 7.59748 16.793C7.62029 16.793 7.63904 16.8399 7.63904 16.8973C7.63904 16.9547 7.65779 17.0016 7.68077 17.0016C7.70358 17.0016 7.72234 17.0485 7.72234 17.1059C7.72234 17.1691 7.74616 17.2102 7.78249 17.2102C7.81999 17.2102 7.83655 17.2414 7.82642 17.2937C7.81763 17.3396 7.82811 17.3772 7.84973 17.3772C7.87119 17.3772 7.88893 17.4053 7.88893 17.4398C7.88893 17.4742 7.90836 17.5023 7.93202 17.5023C7.96125 17.5023 7.96074 17.5292 7.9305 17.5858C7.89856 17.6455 7.8989 17.6692 7.93134 17.6692C7.95635 17.6692 8.01565 17.7629 8.06296 17.8771C8.11635 18.0057 8.16704 18.0742 8.1961 18.057C8.22178 18.0414 8.21722 18.0605 8.18579 18.0995C8.13629 18.1604 8.13798 18.1701 8.19863 18.1701C8.23716 18.1701 8.25996 18.1841 8.24932 18.2014C8.23868 18.2185 8.26486 18.2984 8.30761 18.3787C8.35019 18.4589 8.38584 18.507 8.38686 18.4855C8.38888 18.4399 8.51019 18.5913 8.51222 18.6419C8.5129 18.6606 8.49195 18.6622 8.46542 18.6458C8.43568 18.6274 8.42876 18.6345 8.44717 18.6643C8.46339 18.6909 8.50699 18.7125 8.54382 18.7125C8.58065 18.7125 8.59974 18.7234 8.58656 18.7367C8.57322 18.7501 8.60718 18.8273 8.66226 18.9086C8.71717 18.9897 8.74995 19.0759 8.73508 19.1001C8.71801 19.1279 8.73525 19.1334 8.78205 19.1155C8.83696 19.0943 8.8498 19.1033 8.83172 19.1502C8.81855 19.1849 8.82683 19.2132 8.85048 19.2132C8.87397 19.2132 8.88157 19.232 8.86755 19.255C8.85335 19.2779 8.87295 19.2967 8.91114 19.2967C8.95388 19.2967 8.97179 19.3193 8.95777 19.3558C8.94543 19.3883 8.96486 19.4264 9.00102 19.4402C9.03718 19.4541 9.05509 19.4773 9.04073 19.4917C9.02637 19.5059 9.06354 19.5598 9.12335 19.6112C9.19245 19.6708 9.21999 19.7242 9.19904 19.7582C9.17556 19.7961 9.18603 19.8039 9.23537 19.785C9.28183 19.7672 9.30464 19.7799 9.30464 19.8234C9.30464 19.8889 9.46397 20.1193 9.4959 20.0999C9.53291 20.0772 9.59576 20.0912 9.58951 20.1209C9.57515 20.1889 9.65033 20.2981 9.71167 20.2981C9.74749 20.2981 9.76522 20.3097 9.75137 20.3235C9.72146 20.3535 9.97001 20.5899 10.0324 20.5909C10.0558 20.5912 10.047 20.6097 10.0126 20.632C9.97102 20.6589 9.96747 20.6727 10.0023 20.673C10.0543 20.6737 10.0572 20.7597 10.0063 20.7988C9.99146 20.8103 9.97271 20.8574 9.96477 20.9033C9.95666 20.9491 9.89904 21.035 9.83653 21.0939C9.75593 21.1699 9.73583 21.2141 9.76725 21.2458C9.79868 21.2773 9.79665 21.2996 9.75999 21.3221C9.724 21.3445 9.71842 21.3365 9.74157 21.2956C9.76691 21.2512 9.76269 21.2483 9.72434 21.2837C9.69646 21.3094 9.66706 21.3658 9.65895 21.409C9.65084 21.452 9.64037 21.4921 9.6358 21.4979C9.62861 21.5108 9.62364 21.5249 9.6211 21.5395C9.61772 21.5568 9.57819 21.6259 9.53341 21.6931C9.48847 21.7603 9.44978 21.8355 9.44707 21.86C9.4428 21.9027 9.43891 21.9455 9.43542 21.9882C9.42933 22.059 9.42156 22.0622 9.38372 22.009C9.34806 21.9591 9.34333 21.9659 9.3604 22.0429C9.37307 22.1008 9.35972 22.1477 9.32678 22.1604C9.29434 22.1728 9.27457 22.239 9.27845 22.3214C9.282 22.3985 9.26595 22.4582 9.2428 22.4543C9.21966 22.4504 9.19482 22.5082 9.18755 22.5828C9.18046 22.6573 9.15494 22.7185 9.13112 22.7185C9.10713 22.7185 9.09834 22.7466 9.11152 22.7809C9.1247 22.8155 9.1127 22.8439 9.08483 22.8443C9.04934 22.8446 9.0512 22.8558 9.09074 22.8808C9.13872 22.9113 9.13872 22.9199 9.09074 22.9359C9.05965 22.9464 9.03177 22.9955 9.0289 23.0452C9.01961 23.2069 9.01369 23.2244 8.97686 23.2015C8.94408 23.1812 8.92921 23.2626 8.926 23.4809C8.92533 23.5215 8.91198 23.5467 8.89627 23.5371C8.88039 23.5273 8.86332 23.5772 8.85825 23.6478C8.85301 23.7184 8.83004 23.7878 8.80706 23.8021C8.78408 23.8163 8.76583 23.8928 8.76651 23.972C8.7682 24.1776 8.74522 24.2636 8.67713 24.3068C8.62627 24.3389 8.62678 24.3447 8.68017 24.3457C8.73559 24.3469 8.73559 24.3515 8.68017 24.3875C8.62678 24.4221 8.6283 24.428 8.69047 24.4287C8.77445 24.4294 8.78847 24.4957 8.71126 24.5267C8.6827 24.5382 11.4364 24.5487 14.8306 24.5502C18.2249 24.5518 21.0103 24.5392 21.0206 24.5225C21.0311 24.5055 21.6456 24.5011 22.3865 24.5127C23.5486 24.5308 23.7414 24.525 23.7911 24.471C23.8417 24.4158 23.8458 24.4172 23.8237 24.4813C23.8029 24.5418 23.8235 24.5545 23.943 24.5545C24.0524 24.5545 24.0876 24.5367 24.0879 24.4813C24.0884 24.4334 24.0992 24.4251 24.1197 24.4573C24.1651 24.5289 24.3853 24.578 24.3701 24.513C24.362 24.4783 24.4336 24.4568 24.5914 24.4466C24.7197 24.4385 24.8736 24.4133 24.9334 24.3904C25.0042 24.3635 25.051 24.3632 25.0674 24.3897C25.0812 24.4123 25.1143 24.4172 25.1409 24.4006C25.1676 24.3842 25.274 24.3667 25.3774 24.362C25.6374 24.3501 25.7464 24.3273 25.8003 24.2733C25.8257 24.2479 25.8706 24.2363 25.9 24.2477C25.9296 24.259 26.0092 24.2396 26.0771 24.2043C26.145 24.1693 26.2112 24.1512 26.2244 24.1644C26.2594 24.1994 26.6737 24.0962 26.7887 24.0239C26.8431 23.9895 26.8747 23.9824 26.8592 24.0076C26.8136 24.0816 26.8834 24.0606 26.9487 23.9807C26.9815 23.9406 26.9966 23.9311 26.982 23.9599C26.9675 23.9885 26.9756 24.012 26.9998 24.012C27.0241 24.012 27.0439 23.9956 27.0439 23.9756C27.0439 23.9434 27.3725 23.8303 27.4811 23.8249C27.5041 23.8239 27.6031 23.7802 27.7011 23.7281C27.7993 23.6759 27.8963 23.6436 27.9167 23.6563C27.9373 23.669 27.965 23.6444 27.9785 23.6016C28.0071 23.5115 28.195 23.4137 28.261 23.4545C28.2896 23.4722 28.2938 23.4626 28.2725 23.428C28.2467 23.3862 28.2666 23.3803 28.3597 23.4021C28.4261 23.4175 28.4592 23.4157 28.433 23.3977C28.3927 23.37 28.4895 23.2201 28.5305 23.2467C28.5623 23.2672 28.7054 23.2046 28.6887 23.1775C28.6779 23.1597 28.7052 23.1356 28.7497 23.124C28.7941 23.1123 28.8402 23.1243 28.8521 23.1505C28.8642 23.1771 28.872 23.1707 28.87 23.1356C28.862 23.0012 28.8798 22.9765 28.9766 22.9872C29.047 22.9949 29.0705 22.9812 29.0552 22.9413C29.0403 22.9023 29.0548 22.8925 29.1009 22.9103C29.1526 22.9303 29.1619 22.9189 29.1401 22.8622C29.1229 22.817 29.1282 22.7982 29.1537 22.8141C29.1993 22.8424 29.5007 22.5779 29.5007 22.5099C29.5007 22.4868 29.5522 22.4665 29.6153 22.4647C29.6783 22.463 29.7075 22.4523 29.6803 22.4413C29.6031 22.4096 29.7878 22.2185 29.8663 22.2488C29.9125 22.2666 29.9211 22.2576 29.8962 22.2176C29.8711 22.1768 29.8805 22.1689 29.9312 22.1883C29.9692 22.2031 30.0005 22.1968 30.0005 22.1746C30.0005 22.1524 29.9794 22.1342 29.9537 22.1342C29.9214 22.1342 29.9229 22.1149 29.9588 22.0715C29.9873 22.0371 30.0317 22.0092 30.0576 22.0097C30.0853 22.0101 30.0814 22.025 30.048 22.0461C30.0098 22.0703 30.0061 22.091 30.0365 22.1098C30.0623 22.1259 30.0926 22.0927 30.1078 22.0316C30.1225 21.9733 30.1517 21.9256 30.1728 21.9256C30.1939 21.9256 30.2237 21.8927 30.2387 21.8526C30.2691 21.7717 30.5413 21.4918 30.5423 21.5402C30.5427 21.5571 30.5604 21.5433 30.5817 21.5097C30.6062 21.4708 30.604 21.4288 30.576 21.3949C30.5428 21.355 30.5489 21.3413 30.5991 21.3413C30.6363 21.3413 30.6667 21.3122 30.6667 21.2763C30.6667 21.2405 30.6854 21.2229 30.7083 21.237C30.7312 21.2512 30.75 21.2336 30.75 21.1977C30.75 21.162 30.7687 21.1327 30.7916 21.1327C30.8145 21.1327 30.8333 21.0964 30.8333 21.0521C30.8333 21.0077 30.8708 20.9595 30.9166 20.9449C30.9634 20.93 30.9999 20.8818 30.9999 20.8349C30.9999 20.7516 31.098 20.6192 31.1335 20.6547C31.1437 20.6649 31.1506 20.6312 31.1489 20.5797C31.1469 20.5257 31.1677 20.4903 31.1976 20.4964C31.2263 20.5022 31.2474 20.4927 31.2447 20.4754C31.2271 20.3637 31.2562 20.2138 31.2913 20.2355C31.3141 20.2497 31.3344 20.2274 31.3363 20.1859C31.3381 20.142 31.3483 20.1322 31.3604 20.1625C31.3721 20.1911 31.3998 20.2147 31.4221 20.2147C31.4446 20.2147 31.452 20.1972 31.4388 20.1759C31.4257 20.1544 31.4343 20.1249 31.4579 20.1104C31.4692 20.1038 31.4773 20.093 31.4807 20.0804C31.4841 20.0678 31.4823 20.0543 31.4758 20.043C31.462 20.0206 31.4726 19.9759 31.4995 19.9434C31.5264 19.9111 31.5343 19.8617 31.5171 19.8339C31.4956 19.799 31.5074 19.7916 31.5551 19.8098C31.6102 19.831 31.6244 19.811 31.6244 19.7127C31.6244 19.6444 31.644 19.5887 31.6679 19.5887C31.6918 19.5887 31.7058 19.5559 31.6992 19.5158C31.6918 19.4716 31.7095 19.4475 31.7443 19.455C31.7835 19.4633 31.7945 19.4401 31.7791 19.3811C31.7668 19.3334 31.784 19.2679 31.8182 19.2337C31.8519 19.1998 31.8687 19.1544 31.8553 19.1326C31.8418 19.1109 31.8641 19.0738 31.9047 19.0501C31.9729 19.0102 31.9722 19.007 31.895 19.0056C31.8244 19.0043 31.8308 18.9907 31.9368 18.9164C32.0055 18.8683 32.0327 18.8382 31.9972 18.8495C31.9557 18.8629 31.9309 18.8424 31.927 18.7913C31.9238 18.7479 31.9386 18.7125 31.9601 18.7125C31.9817 18.7125 31.9993 18.7344 31.9993 18.7611C31.9993 18.7879 32.0113 18.7977 32.026 18.783C32.0407 18.7682 32.0267 18.724 31.9947 18.6846C31.9564 18.6372 31.9543 18.6236 31.9888 18.6443C32.018 18.6619 32.0408 18.6553 32.0408 18.6291C32.0408 18.6033 32.0642 18.596 32.0929 18.6128C32.1216 18.6296 32.1096 18.603 32.0664 18.5535C31.9956 18.4726 31.9945 18.4613 32.0557 18.4377C32.0931 18.4233 32.1142 18.3963 32.1027 18.3776C32.0912 18.359 32.1113 18.314 32.1476 18.2777C32.1968 18.2283 32.1995 18.2115 32.1583 18.211C32.1199 18.2107 32.1176 18.2012 32.1505 18.1799C32.1763 18.1629 32.2002 18.0974 32.2034 18.0344C32.2139 17.8267 32.221 17.7945 32.2559 17.7945C32.275 17.7945 32.2907 17.7381 32.2907 17.6692C32.2907 17.5973 32.3129 17.5438 32.3428 17.5434C32.3811 17.5429 32.3799 17.5333 32.3384 17.5069C32.3073 17.4872 32.2987 17.4606 32.3191 17.4479C32.3397 17.4352 32.361 17.353 32.3664 17.2654C32.374 17.1656 32.3919 17.0669 32.4198 16.9708C32.4438 16.8965 32.4599 16.7932 32.4556 16.7414C32.4426 16.5794 32.456 16.4951 32.4913 16.5171C32.5099 16.5286 32.529 16.1072 32.5335 15.5806C32.5399 14.8327 32.5301 14.623 32.4891 14.6225C32.4496 14.622 32.4506 14.6128 32.493 14.5859C32.5323 14.561 32.5356 14.5414 32.5033 14.5215C32.4779 14.5058 32.4575 14.4706 32.4578 14.4433C32.4583 14.4125 32.4757 14.4176 32.5035 14.4562C32.5408 14.5082 32.5442 14.506 32.5237 14.4423C32.51 14.4003 32.4989 14.357 32.4989 14.346C32.4989 14.335 32.4833 14.3358 32.4643 14.3475C32.4452 14.3593 32.4372 14.2827 32.4467 14.1772C32.4583 14.0473 32.446 13.974 32.4085 13.9501C32.3701 13.9257 32.3685 13.9147 32.4031 13.9144C32.4403 13.9139 32.4379 13.8777 32.3943 13.773C32.362 13.6956 32.3473 13.6206 32.3615 13.6062C32.3757 13.592 32.3516 13.5384 32.3078 13.4871C32.2434 13.4114 32.2421 13.4043 32.301 13.4501C32.3634 13.4984 32.374 13.4974 32.374 13.4425C32.374 13.4071 32.3505 13.3687 32.322 13.3572C32.2823 13.3411 32.283 13.3353 32.3249 13.3328C32.3661 13.3304 32.3632 13.3128 32.313 13.2625C32.2764 13.2256 32.2566 13.1627 32.2694 13.1224C32.275 13.1005 32.2746 13.0776 32.2682 13.056C32.2618 13.0344 32.2497 13.015 32.2331 12.9998C32.2003 12.9725 32.1785 12.9051 32.1845 12.8499C32.1905 12.7947 32.1704 12.74 32.1397 12.7282C32.1089 12.7163 32.0944 12.6794 32.1072 12.6459C32.1199 12.6126 32.0988 12.5367 32.0601 12.4774C32.0172 12.4119 32.0079 12.3698 32.0364 12.3698C32.0875 12.3698 32.0135 12.2079 31.9368 12.1513C31.9123 12.1332 31.9209 12.1202 31.9575 12.1193C32.0131 12.1183 32.0131 12.1136 31.9575 12.0777C31.9232 12.0555 31.9124 12.0369 31.9336 12.0366C31.9548 12.0362 31.9303 11.9913 31.8791 11.9368C31.8281 11.8823 31.7786 11.7767 31.7692 11.702C31.7597 11.6273 31.7213 11.5195 31.6838 11.4622C31.6419 11.3979 31.6364 11.3708 31.6693 11.3911C31.6987 11.4094 31.6712 11.3564 31.608 11.2735C31.5449 11.1905 31.4946 11.1123 31.4965 11.0994C31.5068 11.0222 31.4949 10.9907 31.463 11.0104C31.4431 11.0229 31.4267 10.9824 31.4267 10.9208C31.4267 10.859 31.4054 10.8014 31.3795 10.7928C31.3537 10.784 31.343 10.7598 31.3561 10.7388C31.3689 10.7178 31.3503 10.7007 31.3147 10.7007C31.2778 10.7007 31.2496 10.6651 31.2496 10.6186C31.2496 10.5624 31.2297 10.5441 31.1868 10.5605C31.1399 10.5786 31.1312 10.5657 31.1521 10.5107C31.1715 10.4603 31.1651 10.4462 31.1323 10.4665C31.0997 10.4867 31.093 10.473 31.1114 10.4247C31.1273 10.3832 31.122 10.3636 31.0989 10.378C31.0768 10.3917 31.056 10.3649 31.0524 10.3189C31.0491 10.2727 30.9982 10.187 30.9397 10.1282C30.8811 10.0697 30.8333 10.0043 30.8333 9.98314C30.8333 9.96197 30.8098 9.95876 30.7812 9.97603C30.7508 9.99414 30.7552 9.9745 30.7916 9.92862C30.826 9.88544 30.8326 9.86293 30.8064 9.87867C30.7802 9.89442 30.7475 9.87816 30.7338 9.84227C30.7201 9.80654 30.692 9.78775 30.6714 9.80062C30.6349 9.82314 30.5613 9.63148 30.5783 9.5585C30.5829 9.53835 30.5582 9.53311 30.5231 9.54648C30.4881 9.56003 30.4629 9.55766 30.4672 9.54123C30.4972 9.42576 30.3882 9.29979 30.2762 9.32045C30.2561 9.32417 30.2497 9.28879 30.2619 9.24189C30.274 9.19499 30.2661 9.15672 30.244 9.15672C30.2218 9.15672 30.2152 9.13793 30.2294 9.1149C30.2436 9.09205 30.2249 9.07325 30.1879 9.07325C30.1507 9.07325 30.1319 9.05463 30.1458 9.03194C30.161 9.00739 30.1422 9.00197 30.0995 9.0184C30.0431 9.04007 30.0338 9.02991 30.0561 8.9715C30.0774 8.91613 30.0686 8.90326 30.0218 8.92121C29.9833 8.93611 29.9588 8.92172 29.9588 8.88413C29.9588 8.85044 29.939 8.82284 29.9147 8.82284C29.8905 8.82284 29.8815 8.80506 29.8951 8.78339C29.9084 8.76155 29.8832 8.75071 29.839 8.75935C29.7866 8.76934 29.7513 8.74682 29.7378 8.6945C29.7261 8.65031 29.6874 8.61425 29.6518 8.61425C29.6082 8.61425 29.5955 8.59139 29.6132 8.54483C29.6311 8.4981 29.6239 8.48523 29.5911 8.50555C29.561 8.52417 29.5411 8.5069 29.5391 8.46017C29.5372 8.41666 29.5269 8.40684 29.5149 8.43681C29.5016 8.46983 29.436 8.42834 29.3339 8.32202C29.2461 8.23025 29.154 8.15524 29.1292 8.15524C29.1233 8.15529 29.1175 8.15418 29.1121 8.15198C29.1067 8.14979 29.1018 8.14654 29.0976 8.14244C29.0935 8.13834 29.0902 8.13345 29.0879 8.12807C29.0856 8.12268 29.0844 8.1169 29.0844 8.11105C29.0844 8.08667 29.0656 8.07854 29.0427 8.0926C29.0198 8.10682 29.0011 8.09074 29.0011 8.05687C29.0011 8.02301 28.9462 7.97103 28.8791 7.94123C28.812 7.91143 28.7666 7.87198 28.7779 7.85353C28.7892 7.83507 28.819 7.8327 28.8438 7.84811C28.8695 7.86386 28.8771 7.85675 28.8615 7.83152C28.8465 7.80714 28.8029 7.79173 28.7649 7.79732C28.6892 7.80849 28.5731 7.70995 28.5304 7.59821C28.5116 7.54928 28.4707 7.53319 28.3982 7.5464C28.3405 7.55689 28.2931 7.5469 28.2931 7.52405C28.2931 7.50136 28.2763 7.49306 28.2555 7.50593C28.2349 7.5188 28.1789 7.46817 28.1313 7.39368C28.0836 7.31901 28.0438 7.28633 28.0426 7.3207C28.0412 7.35863 28.0169 7.34221 27.9807 7.27888C27.9448 7.21573 27.9204 7.19931 27.9192 7.23723C27.9176 7.28752 27.9101 7.28887 27.8819 7.24401C27.8625 7.21336 27.8299 7.18525 27.8096 7.18153C27.7893 7.17763 27.7773 7.16053 27.7831 7.14326C27.7888 7.12616 27.7793 7.11584 27.7623 7.12058C27.7101 7.13463 27.4186 7.01425 27.4186 6.97852C27.4186 6.96007 27.3671 6.94483 27.3042 6.94449C27.2149 6.94398 27.2034 6.93484 27.252 6.90335C27.3 6.87236 27.2851 6.86271 27.1885 6.86238C27.1106 6.86187 27.0393 6.8297 27.0023 6.77823C26.9692 6.73234 26.9079 6.69476 26.8656 6.69476C26.8178 6.69476 26.8004 6.67647 26.8193 6.64599C26.8399 6.6123 26.8259 6.60621 26.774 6.62602C26.7294 6.64329 26.6711 6.62991 26.6308 6.59334C26.5933 6.55948 26.4937 6.52697 26.4096 6.52138C26.2981 6.51393 26.2675 6.49768 26.2969 6.46229C26.3265 6.4264 26.3038 6.41742 26.2117 6.42809C26.1426 6.43622 26.0862 6.42318 26.0862 6.39931C26.0862 6.3756 26.0674 6.36765 26.0445 6.38187C26.0217 6.39592 26.0029 6.38949 26.0029 6.36731C26.0029 6.34513 25.9625 6.33768 25.913 6.35054C25.8515 6.36663 25.8326 6.35884 25.853 6.32583C25.8819 6.2791 25.8049 6.25742 25.6744 6.27571C25.6349 6.28113 25.6258 6.25996 25.6457 6.20765C25.6665 6.15313 25.6618 6.14415 25.6295 6.17615C25.5697 6.23575 25.3288 6.20037 25.3639 6.13721C25.3833 6.10233 25.3771 6.10199 25.3404 6.13586C25.2911 6.18123 24.9314 6.09031 24.8775 6.01886C24.8655 6.00295 24.8295 6.00599 24.7977 6.02563C24.7649 6.04595 24.696 6.04477 24.6391 6.0231C24.5836 6.0021 24.5211 5.9955 24.5 6.00853C24.4789 6.02174 24.4507 6.00413 24.4375 5.96942C24.4204 5.92506 24.3559 5.90729 24.219 5.90932C23.9093 5.91389 23.8715 5.90678 23.9036 5.84972C23.9271 5.80807 23.9218 5.80807 23.8769 5.84972C23.8122 5.90999 23.6037 5.91981 23.5694 5.86411C23.5346 5.8079 22.0053 5.80925 22.0053 5.86563ZM23.0661 6.7381C23.0488 6.76638 23.0774 6.77196 23.1475 6.75435C23.2984 6.71643 23.6621 6.77349 23.5843 6.82293C23.5412 6.85019 23.5569 6.86051 23.6422 6.86102C23.7066 6.86136 23.7495 6.84595 23.7377 6.82682C23.7258 6.80769 23.7436 6.79211 23.7769 6.79211C23.8101 6.79211 23.8375 6.80566 23.8375 6.82225C23.8375 6.86644 23.9781 6.84781 24.0139 6.79905C24.033 6.77298 24.0447 6.77653 24.045 6.8082C24.0455 6.83613 24.0714 6.84917 24.1028 6.83715C24.1342 6.82496 24.171 6.84443 24.1847 6.88015C24.2119 6.95093 24.3182 6.96786 24.3556 6.90724C24.3684 6.88642 24.3368 6.87744 24.2853 6.88726C24.1988 6.90369 24.1981 6.90216 24.2748 6.86745C24.3324 6.84155 24.3789 6.84815 24.4257 6.8893C24.4628 6.92197 24.5098 6.94568 24.5297 6.94195C24.6176 6.92587 24.7151 6.94805 24.6955 6.97971C24.6838 6.99867 24.7376 7.01222 24.815 7.00951C24.8923 7.00697 24.9452 7.0217 24.9327 7.04202C24.92 7.0625 24.9496 7.06657 24.9983 7.05116C25.0535 7.03355 25.0868 7.041 25.0868 7.07097C25.0868 7.09738 25.1101 7.11059 25.1388 7.10026C25.1674 7.08993 25.2284 7.10127 25.2742 7.12549C25.32 7.1497 25.4158 7.16477 25.4872 7.15884C25.5758 7.15173 25.6255 7.17002 25.6432 7.21624C25.6574 7.25366 25.6859 7.2738 25.7064 7.26111C25.7268 7.24858 25.7667 7.26602 25.7951 7.30022C25.8233 7.33442 25.8829 7.36235 25.9274 7.36235C25.972 7.36235 26.0446 7.38183 26.0889 7.40553C26.1487 7.4377 26.1695 7.43533 26.1695 7.39639C26.1695 7.36743 26.1992 7.3864 26.2356 7.43854C26.2721 7.49069 26.3354 7.52777 26.3766 7.52083C26.4177 7.51406 26.4904 7.55537 26.538 7.61277C26.5856 7.67016 26.6254 7.6937 26.626 7.66492C26.6282 7.58331 26.7267 7.60379 26.7854 7.69793C26.8146 7.74466 26.855 7.77277 26.8751 7.76024C26.8953 7.74771 26.9185 7.75719 26.9264 7.78123C26.9344 7.80544 26.9829 7.8283 27.0341 7.8322C27.0853 7.83609 27.1272 7.85404 27.1272 7.87198C27.1272 7.92142 27.2835 8.06822 27.309 8.04265C27.3554 7.99609 27.5888 8.11427 27.7298 8.25565C27.8106 8.33658 27.878 8.37992 27.8795 8.35198C27.8811 8.32422 27.903 8.34436 27.9284 8.39685C27.9566 8.45577 27.9978 8.48337 28.0355 8.46898C28.0847 8.45002 28.0869 8.4573 28.0468 8.50572C28.0058 8.55533 28.0112 8.56227 28.0779 8.54466C28.1223 8.53315 28.1734 8.5472 28.1911 8.57598C28.2141 8.61323 28.2028 8.62051 28.1521 8.60087C28.1097 8.58462 28.0909 8.59021 28.1061 8.61476C28.12 8.63744 28.1632 8.65658 28.2019 8.65742C28.2905 8.65912 28.4586 8.79694 28.463 8.87126C28.4653 8.91038 28.4724 8.91207 28.4864 8.87736C28.5172 8.80185 28.625 8.86111 28.5958 8.93747C28.5789 8.98132 28.587 8.99334 28.6194 8.97319C28.6473 8.95592 28.6792 8.97099 28.6934 9.00807C28.7073 9.04396 28.7456 9.07325 28.7789 9.07325C28.8122 9.07325 28.8277 9.09205 28.8137 9.1149C28.7995 9.13793 28.8259 9.15672 28.8722 9.15672C28.9589 9.15672 29.0683 9.30437 29.0497 9.39596C29.0435 9.42678 29.0651 9.43761 29.1035 9.42288C29.1469 9.40612 29.1679 9.42305 29.1682 9.47571C29.1687 9.54089 29.1753 9.54326 29.2092 9.49061C29.2442 9.43643 29.2496 9.43727 29.2503 9.49755C29.2506 9.53581 29.2275 9.57645 29.1988 9.58813C29.1702 9.59965 29.1878 9.61065 29.2381 9.61251C29.3059 9.61488 29.3253 9.63689 29.3135 9.69835C29.3044 9.74627 29.3184 9.77692 29.3471 9.77133C29.3743 9.76608 29.3917 9.78995 29.3856 9.82432C29.3774 9.87156 29.3889 9.86868 29.4328 9.81264C29.4843 9.74678 29.4938 9.74593 29.5161 9.80451C29.533 9.8482 29.524 9.86157 29.4899 9.8443C29.4615 9.82991 29.4708 9.84498 29.5105 9.87749C29.5502 9.91016 29.5722 9.94741 29.5593 9.96028C29.5467 9.97315 29.5752 9.99617 29.6232 10.0114C29.671 10.0265 29.6994 10.0564 29.6862 10.0778C29.673 10.0991 29.6822 10.1164 29.7065 10.1164C29.7307 10.1164 29.7506 10.1436 29.7506 10.177C29.7506 10.2102 29.7834 10.2566 29.8234 10.2801C29.8635 10.3035 29.8809 10.3231 29.8619 10.3238C29.843 10.3245 29.8851 10.3737 29.9555 10.4332C30.026 10.4926 30.0838 10.5771 30.0838 10.6209C30.0838 10.6648 30.1106 10.7007 30.1438 10.7007C30.1767 10.7007 30.2171 10.7224 30.2335 10.7488C30.2524 10.7798 30.2448 10.7857 30.212 10.7654C30.1732 10.7413 30.1737 10.7542 30.2139 10.8189C30.2431 10.8656 30.2788 10.8966 30.2933 10.8876C30.3078 10.8786 30.3197 10.8978 30.3197 10.9301C30.3197 10.9626 30.3041 10.9794 30.285 10.9675C30.2659 10.9558 30.2502 10.9785 30.2502 11.0181C30.2502 11.0578 30.2619 11.0784 30.2761 11.0644C30.3072 11.0332 30.4369 11.1561 30.4396 11.2193C30.4406 11.2438 30.4639 11.2592 30.4917 11.2535C30.5569 11.2399 30.5557 11.2843 30.4893 11.3429C30.4602 11.3683 30.4432 11.3861 30.4511 11.3822C30.4835 11.3664 30.6321 11.5467 30.6459 11.6187C30.654 11.6614 30.7093 11.7834 30.7687 11.8899C30.8281 11.9964 30.8576 12.0719 30.8346 12.0577C30.81 12.0425 30.8029 12.0586 30.8174 12.0963C30.8309 12.132 30.86 12.1612 30.8818 12.1612C30.9036 12.1612 30.9098 12.18 30.8956 12.2028C30.8816 12.2258 30.8917 12.2446 30.9186 12.2446C30.9453 12.2446 30.9565 12.2722 30.9436 12.3059C30.9308 12.3396 30.9372 12.3777 30.9581 12.3906C30.9791 12.4036 30.9845 12.4448 30.9701 12.4824C30.9527 12.5277 30.9602 12.5404 30.9928 12.5203C31.0409 12.4903 31.047 12.5032 31.057 12.6584C31.0599 12.7025 31.0763 12.7524 31.0935 12.7697C31.1107 12.7869 31.1247 12.8449 31.1247 12.8984C31.1247 12.9519 31.1459 12.9957 31.1719 12.9957C31.2031 12.9957 31.2111 13.0545 31.1955 13.1709C31.1827 13.2673 31.1873 13.3216 31.2057 13.2917C31.2555 13.2109 31.2961 13.2993 31.2988 13.4942C31.3 13.5844 31.3223 13.6664 31.3483 13.6763C31.3773 13.6875 31.3927 13.7889 31.3882 13.9393C31.3841 14.0739 31.3991 14.1951 31.4213 14.209C31.4436 14.2227 31.464 14.3169 31.4669 14.4181C31.4698 14.5193 31.4905 14.6264 31.5128 14.6558C31.5399 14.6912 31.5363 14.7618 31.5025 14.8644C31.472 14.9572 31.4569 15.1749 31.465 15.4055L31.4787 15.7917L28.0728 15.7916H24.6669L24.4917 15.8833C24.3953 15.934 24.301 15.971 24.2821 15.9658C24.2631 15.9605 24.2596 15.9756 24.2741 15.9991C24.2886 16.0227 24.2787 16.0418 24.252 16.0418C24.2253 16.0418 24.2141 16.0701 24.2273 16.1044C24.2405 16.1388 24.2324 16.1671 24.2092 16.1671C24.1327 16.1671 24.1695 16.9541 24.2486 17.0055C24.3001 17.0391 24.3013 17.0451 24.254 17.0311C24.2059 17.0169 24.191 17.0514 24.1891 17.1808C24.1879 17.2734 24.1942 17.3272 24.2032 17.3005C24.243 17.1803 24.279 17.2719 24.2734 17.4798C24.2702 17.6051 24.2831 17.6978 24.3023 17.686C24.3216 17.6741 24.3388 17.6889 24.3407 17.719C24.3523 17.9031 24.3709 17.9796 24.4067 17.9916C24.429 17.9991 24.4397 18.058 24.4302 18.1227C24.4204 18.1894 24.4383 18.2654 24.4718 18.2989C24.5358 18.3631 24.5455 18.3873 24.5455 18.4855C24.5455 18.5212 24.5629 18.5397 24.5842 18.5265C24.6058 18.5131 24.6159 18.5574 24.607 18.6277C24.597 18.7073 24.6088 18.7493 24.6396 18.743C24.6661 18.7378 24.6931 18.7709 24.6996 18.8168C24.735 19.0674 24.7697 19.1742 24.831 19.2223C24.893 19.2709 24.8939 19.268 24.8389 19.1924C24.7861 19.1194 24.7861 19.1157 24.8389 19.1631C24.9013 19.2191 24.9059 19.2323 24.9157 19.3906C24.9192 19.4492 24.9332 19.466 24.9525 19.4355C24.9734 19.4027 24.9995 19.4199 25.0312 19.4876C25.0588 19.5459 25.0628 19.5985 25.0412 19.6121C24.9893 19.6443 24.9937 19.714 25.0476 19.714C25.0718 19.714 25.0784 19.6923 25.062 19.6658C25.0436 19.6358 25.0505 19.6289 25.0806 19.6475C25.1309 19.6786 25.2693 19.9174 25.2723 19.9781C25.2733 19.9973 25.3585 20.088 25.4616 20.1798C25.5646 20.2716 25.6209 20.3344 25.5864 20.3193C25.5521 20.3042 25.5663 20.3291 25.6178 20.3748C25.6831 20.4324 25.6957 20.4644 25.6596 20.4791C25.6309 20.4907 25.6494 20.5017 25.701 20.5035C25.7858 20.5064 25.8152 20.5494 25.7986 20.6456C25.7953 20.6644 25.8118 20.6681 25.8353 20.6535C25.8588 20.639 25.8779 20.6562 25.8779 20.6921C25.8779 20.7279 25.8997 20.7571 25.926 20.7571C25.9526 20.7571 26.0401 20.8074 26.1205 20.8691C26.2011 20.9305 26.2533 20.9588 26.2366 20.9317C26.2198 20.9044 26.2171 20.8823 26.2305 20.8823C26.2438 20.8823 26.2736 20.9319 26.2966 20.9925C26.3195 21.0529 26.3499 21.0909 26.3643 21.0765C26.3785 21.0622 26.4169 21.0831 26.4495 21.1229C26.4821 21.1627 26.4951 21.1689 26.4784 21.1367C26.4584 21.0981 26.4645 21.0883 26.4961 21.1078C26.5226 21.1242 26.5444 21.1787 26.5448 21.229C26.5453 21.2795 26.5593 21.3011 26.576 21.2774C26.6134 21.2248 26.6916 21.2236 26.7386 21.2751C26.7587 21.2971 26.7514 21.3005 26.7212 21.283C26.6926 21.2664 26.6691 21.2708 26.6691 21.2927C26.6691 21.3145 26.6972 21.3433 26.7316 21.3565C26.7659 21.3697 26.794 21.3592 26.794 21.3331C26.794 21.3071 26.8061 21.2978 26.8208 21.3125C26.8355 21.3272 26.8217 21.3707 26.7899 21.409C26.7384 21.4711 26.7421 21.4754 26.8256 21.449C26.8845 21.4302 26.919 21.4364 26.919 21.4662C26.919 21.492 26.9378 21.5016 26.9606 21.4874C26.9835 21.4732 27.0023 21.5003 27.0023 21.5475C27.0023 21.6379 27.0625 21.663 27.1067 21.591C27.1469 21.526 27.2196 21.5913 27.1907 21.6667C27.1694 21.7224 27.1784 21.7212 27.2461 21.6598C27.3373 21.577 27.4029 21.6305 27.3575 21.7502C27.3358 21.8072 27.3409 21.8109 27.383 21.7691C27.4428 21.7095 27.5185 21.6982 27.484 21.7539C27.4489 21.8111 27.6133 21.8385 27.671 21.785C27.7097 21.7493 27.7151 21.7507 27.6928 21.7903C27.6758 21.8204 27.6906 21.8533 27.7282 21.8677C27.7638 21.8814 27.7826 21.9093 27.7699 21.93C27.7572 21.9505 27.7667 21.9672 27.791 21.9672C27.8503 21.9672 27.8466 21.9122 27.7831 21.848C27.7413 21.8059 27.7454 21.801 27.8038 21.8231C27.8439 21.8385 27.8767 21.8699 27.8767 21.8927C27.8767 21.9158 27.9025 21.9246 27.9341 21.9124C27.9657 21.9003 28.0125 21.9113 28.0382 21.9371C28.0639 21.9628 28.085 21.9679 28.085 21.9483C28.085 21.9286 28.1217 21.9459 28.1666 21.9867C28.2136 22.0292 28.2778 22.0495 28.317 22.0344C28.3661 22.0156 28.379 22.0256 28.3621 22.0698C28.3491 22.1037 28.3563 22.1426 28.3783 22.1562C28.4001 22.1697 28.418 22.1609 28.418 22.1367C28.418 22.1123 28.4363 22.0925 28.4584 22.0925C28.5307 22.0925 28.4579 22.2044 28.347 22.2639C28.2876 22.2959 28.2016 22.3157 28.1561 22.3079C28.0928 22.2972 28.0796 22.3106 28.1005 22.3651C28.1227 22.423 28.1085 22.4325 28.0243 22.4164C27.9674 22.4056 27.928 22.4081 27.9368 22.4223C27.9564 22.4543 27.8821 22.5522 27.775 22.635C27.7047 22.6893 27.6989 22.6895 27.7314 22.6357C27.752 22.6016 27.7177 22.614 27.6553 22.6633C27.593 22.7124 27.497 22.7476 27.4423 22.7417C27.3831 22.7351 27.3498 22.7494 27.3603 22.7767C27.3701 22.8021 27.3411 22.846 27.2958 22.8744C27.2268 22.9174 27.2174 22.9157 27.2373 22.8639C27.2503 22.8297 27.2422 22.8018 27.2194 22.8018C27.1964 22.8018 27.1669 22.83 27.1537 22.8644C27.1405 22.8988 27.0929 22.9271 27.0476 22.9271C27.0025 22.9271 26.954 22.9458 26.9398 22.9687C26.9256 22.9917 26.8683 23.0105 26.8124 23.0105C26.7565 23.0105 26.7108 23.0261 26.7108 23.0452C26.7108 23.0786 26.6842 23.0862 26.5056 23.1038C26.4615 23.1082 26.4344 23.1265 26.4456 23.1446C26.4567 23.1626 26.4028 23.1775 26.326 23.1775C26.2491 23.1775 26.1656 23.198 26.1404 23.2232C26.1154 23.2482 26.0235 23.2736 25.9365 23.2794C25.8493 23.2853 25.7713 23.3102 25.763 23.3349C25.7544 23.3613 25.6915 23.3708 25.6121 23.3578C25.5273 23.3441 25.4536 23.3571 25.4168 23.3922C25.3832 23.4242 25.2673 23.4487 25.1492 23.4487C25.0348 23.4487 24.8754 23.4655 24.7952 23.4861C24.625 23.5298 24.4204 23.5395 22.8694 23.5764C22.1052 23.5947 21.7139 23.5897 21.7139 23.5621C21.7139 23.5342 19.7458 23.5232 15.8253 23.5293L9.93672 23.5384L9.91949 23.4218C9.89685 23.2664 9.99366 23.0358 10.0639 23.0781C10.1013 23.1006 10.0999 23.0893 10.0596 23.0393C10.0146 22.9838 10.0131 22.9558 10.0528 22.9079C10.0805 22.8746 10.0911 22.8278 10.0764 22.8041C10.0606 22.7784 10.0759 22.7711 10.1146 22.7858C10.1755 22.8094 10.1961 22.7498 10.1908 22.5652C10.1902 22.5383 10.2128 22.5253 10.2414 22.5363C10.2757 22.5495 10.2893 22.5212 10.2817 22.4523C10.2729 22.3709 10.2853 22.3541 10.3394 22.3744C10.3978 22.3963 10.4 22.3902 10.354 22.3334C10.3172 22.2879 10.314 22.2581 10.3444 22.2393C10.3687 22.2242 10.3755 22.1897 10.3593 22.1626C10.3382 22.1272 10.3476 22.1277 10.3929 22.1645C10.447 22.2083 10.4534 22.1982 10.4379 22.092C10.4253 22.0067 10.4397 21.9606 10.4838 21.9435C10.5201 21.9296 10.5411 21.8837 10.5323 21.8377C10.5237 21.793 10.5345 21.7674 10.5561 21.7808C10.5778 21.7944 10.5957 21.7754 10.5957 21.739C10.5957 21.7024 10.6235 21.6618 10.6578 21.6486C10.692 21.6355 10.7097 21.6079 10.697 21.5873C10.6844 21.5668 10.6986 21.5497 10.7285 21.5494C10.768 21.5489 10.766 21.5377 10.7205 21.5082C10.668 21.4742 10.6703 21.4678 10.7357 21.4672C10.7918 21.4667 10.8077 21.4442 10.7925 21.3861C10.7783 21.3316 10.7891 21.3127 10.8263 21.3269C10.8645 21.3416 10.8741 21.3216 10.8584 21.2612C10.8459 21.2134 10.8545 21.1745 10.8773 21.1745C10.9003 21.1745 10.9294 21.1351 10.9419 21.0868C10.9566 21.0304 10.9831 21.0104 11.0162 21.0311C11.0522 21.0533 11.0598 21.0419 11.0412 20.9935C11.023 20.9461 11.0373 20.9226 11.0862 20.9192C11.1517 20.9148 11.1519 20.9127 11.0878 20.8958C11.0295 20.8804 11.0382 20.8581 11.1399 20.7605C11.207 20.6964 11.2619 20.6224 11.2619 20.5961C11.2619 20.5699 11.2806 20.5486 11.3034 20.5486C11.3264 20.5486 11.3452 20.5203 11.3452 20.4859C11.3452 20.4515 11.3744 20.4233 11.41 20.4233C11.4457 20.4233 11.4651 20.4073 11.4531 20.3879C11.4411 20.3684 11.4727 20.3081 11.5236 20.2538C11.5743 20.1994 11.6356 20.1168 11.6599 20.0701C11.6841 20.0233 11.7351 19.9876 11.7731 19.9908C11.8112 19.9939 11.8547 19.9563 11.8701 19.9074C11.9085 19.7843 12.0528 19.6041 12.0543 19.6771C12.0551 19.7147 12.0714 19.7078 12.1006 19.6571C12.1724 19.5334 12.2932 19.4264 12.3268 19.4567C12.3439 19.4719 12.3444 19.4475 12.3282 19.4023C12.3118 19.3571 12.3106 19.3322 12.3253 19.3469C12.34 19.3617 12.4098 19.3183 12.4804 19.2506C12.5698 19.1651 12.6183 19.1428 12.6396 19.1771C12.6588 19.2083 12.6754 19.1893 12.6843 19.1262C12.6948 19.0517 12.7202 19.0291 12.7818 19.0398C12.8276 19.0478 12.8516 19.0405 12.8352 19.0239C12.8062 18.9943 12.9729 18.8377 13.0332 18.8377C13.05 18.8377 13.0985 18.7972 13.1412 18.7478C13.184 18.6985 13.2189 18.6712 13.2189 18.6876C13.2189 18.7039 13.2752 18.6839 13.344 18.6433C13.4126 18.6027 13.4688 18.5534 13.4688 18.5337C13.4688 18.5143 13.505 18.5097 13.5491 18.5238C13.6009 18.5402 13.6432 18.5243 13.6689 18.4784C13.6935 18.4342 13.7346 18.4176 13.7782 18.4344C13.8218 18.4511 13.8377 18.4445 13.8208 18.4171C13.8059 18.3929 13.8328 18.3627 13.8806 18.3502C13.9284 18.3377 13.9575 18.3109 13.9451 18.2909C13.9328 18.2708 13.9517 18.2655 13.9872 18.2793C14.0228 18.293 14.0519 18.2823 14.0519 18.2554C14.0519 18.2286 14.0705 18.2185 14.0935 18.2325C14.1164 18.2468 14.1354 18.2339 14.1357 18.2038C14.1362 18.1641 14.1474 18.1663 14.1768 18.2117C14.2036 18.2535 14.2173 18.2569 14.2178 18.2222C14.2182 18.1919 14.2719 18.1701 14.3457 18.1701C14.4201 18.1701 14.4625 18.1526 14.4474 18.1282C14.4332 18.1054 14.4511 18.0866 14.4871 18.0866C14.5231 18.0866 14.5851 18.07 14.625 18.05C14.7722 17.9753 14.9994 17.9196 15.1582 17.919C15.2792 17.9185 15.3056 17.9078 15.2595 17.8778C15.2061 17.8433 15.2076 17.8374 15.2698 17.8369C15.31 17.8365 15.3427 17.855 15.3427 17.8778C15.3427 17.9009 15.3625 17.9196 15.3868 17.9196C15.411 17.9196 15.4193 17.9009 15.4051 17.8778C15.3803 17.8375 15.4311 17.827 15.6967 17.8174C15.7653 17.8148 15.8439 17.7988 15.8711 17.7818C15.9535 17.7304 16.3301 17.6994 16.9668 17.6918L17.5705 17.6843L16.9668 17.7109L16.3629 17.7376L16.9876 17.7302C17.4939 17.7243 18.1563 17.6509 17.8721 17.6323C17.7851 17.6266 17.8635 17.4606 17.9533 17.4606C17.9868 17.4606 17.9983 17.408 17.9873 17.3042C17.9794 17.2311 17.9731 17.1578 17.9685 17.0844C17.966 17.0196 17.6553 16.8059 17.5894 16.8237C17.5691 16.8293 17.5634 16.8057 17.5764 16.7715C17.6004 16.7091 17.5068 16.683 17.4529 16.737C17.4204 16.7695 16.3413 16.7644 16.3087 16.7318C16.2558 16.6788 16.0923 16.7128 16.0923 16.7768C16.0923 16.8279 16.062 16.8398 15.9674 16.8257C15.8986 16.8157 15.8424 16.8217 15.8424 16.8391C15.8424 16.8564 15.7858 16.8543 15.7167 16.8345C15.6457 16.814 15.6007 16.814 15.6133 16.8345C15.6467 16.8889 15.5759 16.9177 15.5097 16.8767C15.475 16.8552 15.4088 16.8614 15.3451 16.8923C15.2865 16.9205 15.1777 16.9414 15.1033 16.9386C15.0288 16.9359 14.968 16.949 14.968 16.9676C14.968 16.9864 14.9249 17.0016 14.8722 17.0016C14.8195 17.0016 14.7516 17.0252 14.7211 17.0538C14.677 17.0954 14.6622 17.0954 14.647 17.0538C14.6365 17.0252 14.6113 17.0016 14.591 17.0016C14.5708 17.0016 14.5637 17.0267 14.5755 17.0572C14.5912 17.0983 14.5635 17.108 14.4701 17.0942C14.4003 17.0839 14.3434 17.0931 14.3434 17.1146C14.3434 17.1359 14.2476 17.1796 14.1305 17.2116C14.0134 17.2434 13.9091 17.2918 13.8987 17.3188C13.8883 17.3458 13.8464 17.3592 13.8056 17.3484C13.7645 17.3377 13.7047 17.3553 13.6724 17.3877C13.6401 17.42 13.5906 17.4386 13.5621 17.4291C13.5337 17.4197 13.5106 17.4324 13.5106 17.4571C13.5106 17.482 13.4739 17.5023 13.4293 17.5023C13.3847 17.5023 13.3308 17.5333 13.3097 17.5712C13.2848 17.6157 13.2399 17.6318 13.1826 17.6167C13.1338 17.604 13.1027 17.6079 13.1135 17.6254C13.1243 17.6428 13.0843 17.6794 13.0245 17.7067C12.9648 17.7339 12.8788 17.8035 12.8334 17.8614C12.7881 17.9191 12.7252 17.9566 12.694 17.9445C12.6627 17.9325 12.574 17.9877 12.497 18.0673C12.4199 18.1467 12.326 18.2117 12.2883 18.2117C12.2505 18.2117 12.2195 18.2305 12.2195 18.2535C12.2195 18.2764 12.1915 18.2952 12.1572 18.2952C12.1227 18.2952 12.0947 18.3152 12.0947 18.3394C12.0947 18.3638 12.0759 18.372 12.0531 18.3578C12.0301 18.3436 12.0114 18.3509 12.0114 18.3739C12.0114 18.3968 11.9556 18.4487 11.8874 18.489C11.8009 18.5402 11.7787 18.5725 11.8144 18.5952C11.8539 18.6203 11.8531 18.6279 11.8106 18.6284C11.7407 18.6292 11.6322 18.7359 11.6664 18.7701C11.6806 18.7843 11.6591 18.796 11.6185 18.796C11.5477 18.796 11.261 19.049 11.2544 19.1172C11.2458 19.2076 11.2027 19.2528 11.0873 19.2933C10.9936 19.326 10.9679 19.3554 10.988 19.4076C11.0228 19.4988 10.9285 19.5566 10.8493 19.4926C10.8052 19.4567 10.7959 19.4563 10.8168 19.491C10.853 19.5516 10.8074 19.6793 10.7599 19.65C10.7406 19.638 10.7322 19.6663 10.7411 19.7128C10.7528 19.774 10.7354 19.7975 10.6778 19.7975C10.6198 19.7975 10.6053 19.8171 10.6246 19.8705C10.6408 19.9158 10.6088 19.8994 10.5399 19.8266C10.4208 19.701 10.3836 19.5825 10.4914 19.6722C10.5894 19.7536 10.5646 19.6945 10.4635 19.6057C10.4137 19.562 10.3883 19.5522 10.4068 19.5838C10.4301 19.6233 10.4225 19.6353 10.3828 19.6222C10.351 19.6118 10.3189 19.5623 10.3116 19.5125C10.3032 19.4553 10.2686 19.4218 10.2179 19.4218C10.1738 19.4218 10.1376 19.4059 10.1376 19.3862C10.1376 19.3666 10.0891 19.2982 10.03 19.2344C9.94601 19.1434 9.93469 19.1104 9.97795 19.0828C10.0171 19.0579 10.0028 19.0464 9.92929 19.0437C9.87201 19.0415 9.84852 19.0303 9.87691 19.0188C9.93841 18.9939 9.87201 18.9133 9.75239 18.868C9.71234 18.8527 9.67956 18.8116 9.67956 18.7764C9.67956 18.669 9.67111 18.6518 9.59052 18.5954C9.54794 18.5654 9.51297 18.5055 9.51297 18.4621C9.51297 18.4189 9.49134 18.3702 9.46481 18.3538C9.43508 18.3353 9.42815 18.3424 9.4464 18.3722C9.46279 18.3986 9.454 18.4203 9.42697 18.4203C9.39368 18.4203 9.38608 18.3761 9.40348 18.2847C9.42004 18.1988 9.41599 18.1702 9.39233 18.207C9.34992 18.2732 9.24044 18.1154 9.282 18.0478C9.2945 18.0275 9.26257 18.0217 9.21104 18.0351C9.12436 18.0575 9.122 18.0536 9.17978 17.9814C9.22979 17.9191 9.23047 17.9107 9.18316 17.9393C9.1394 17.9657 9.13061 17.9579 9.1492 17.9091C9.16424 17.87 9.14836 17.833 9.11034 17.8184C9.07503 17.8049 9.05627 17.7673 9.06877 17.7349C9.08111 17.7026 9.0632 17.6653 9.02873 17.6521C8.99443 17.6389 8.97669 17.6112 8.98953 17.5905C9.00237 17.5698 8.9848 17.5421 8.9505 17.5289C8.91637 17.5157 8.88866 17.481 8.889 17.4515C8.88934 17.4141 8.90167 17.4168 8.92989 17.4606C8.97568 17.5314 8.98413 17.5004 8.94628 17.4014C8.93242 17.3651 8.8939 17.3355 8.86062 17.3355C8.82733 17.3355 8.81094 17.3179 8.82412 17.2966C8.8373 17.2752 8.82868 17.2458 8.80503 17.2311C8.78137 17.2165 8.77276 17.187 8.78594 17.1657C8.79912 17.1444 8.79016 17.1268 8.76583 17.1268C8.7415 17.1268 8.72173 17.1086 8.72173 17.0865C8.72173 17.0641 8.75451 17.0563 8.79455 17.0689C8.83781 17.0824 8.81871 17.0497 8.74758 16.9888C8.68169 16.932 8.6386 16.8682 8.65178 16.8467C8.66496 16.8254 8.64874 16.7555 8.61546 16.6913C8.58234 16.6273 8.5548 16.5254 8.55446 16.4647C8.55395 16.3784 8.54517 16.3682 8.51357 16.4173C8.47894 16.4712 8.47303 16.4698 8.47252 16.4082C8.47218 16.3687 8.43467 16.2702 8.38939 16.1891C8.33634 16.0946 8.32434 16.0418 8.35594 16.0418C8.39344 16.0418 8.39328 16.03 8.35526 15.9919C8.32789 15.9643 8.30525 15.8903 8.30525 15.8273C8.30525 15.7645 8.28666 15.7013 8.26368 15.6871C8.2407 15.673 8.22212 15.6167 8.22212 15.562C8.22212 15.5073 8.20168 15.4501 8.17684 15.4345C8.14423 15.4143 8.14423 15.3938 8.17684 15.3612C8.23361 15.3043 8.23631 15.2352 8.18039 15.2699C8.14423 15.2923 8.12024 15.233 8.14913 15.1929C8.15487 15.1849 8.13392 15.1473 8.1025 15.1094C8.05401 15.051 8.05401 15.0398 8.1025 15.0371C8.14491 15.0346 8.14626 15.0285 8.10723 15.0127C8.0785 15.001 8.06549 14.9743 8.0785 14.9533C8.09151 14.9323 8.08188 14.9152 8.05704 14.9152C8.03187 14.9152 8.02055 14.8693 8.03103 14.8109C8.04252 14.7479 8.03035 14.7063 8.00061 14.7059C7.96834 14.7056 7.96615 14.6948 7.99436 14.6746C8.04252 14.6404 8.04268 14.5952 7.99521 14.487C7.97747 14.4467 7.96057 14.334 7.95753 14.2368C7.95449 14.1394 7.93641 14.0483 7.91732 14.0344C7.89822 14.0206 7.87795 13.9349 7.8722 13.844C7.86629 13.753 7.84787 13.6564 7.83115 13.6293C7.81442 13.6022 7.8205 13.5798 7.84483 13.5798C7.85675 13.5795 7.86807 13.5745 7.87633 13.5659C7.88459 13.5573 7.88911 13.5457 7.88893 13.5338C7.88893 13.5084 7.86393 13.4972 7.83334 13.5089C7.80293 13.5206 7.77792 13.5048 7.77792 13.4738C7.77792 13.443 7.78874 13.4188 7.80209 13.4202C7.87694 13.4283 7.88826 13.4065 7.83622 13.3543C7.79347 13.3115 7.78063 13.2041 7.78857 12.9578C7.79837 12.6517 7.75596 12.5089 7.71 12.6931C7.69987 12.7333 7.69919 12.7099 7.70848 12.641C7.75883 12.2661 7.76981 12.036 7.73771 12.036C7.71777 12.036 7.7051 11.8012 7.7095 11.5144L7.71761 10.9927H1.58809L1.66751 10.9022C1.7111 10.8522 1.72343 10.8253 1.69471 10.8421C1.62712 10.8817 1.63084 10.8309 1.70518 10.7007C1.73796 10.6433 1.76533 10.623 1.76618 10.6555C1.76702 10.688 1.77969 10.7025 1.79439 10.6878C1.80909 10.6731 1.80014 10.6355 1.77429 10.6043C1.73864 10.5613 1.74607 10.528 1.80521 10.4643C1.84795 10.4183 1.89661 10.3165 1.91317 10.2381C1.9299 10.1597 1.97129 10.0639 2.00542 10.0251C2.04141 9.98415 2.05358 9.93201 2.03432 9.90001C2.01235 9.86326 2.02739 9.8658 2.07994 9.90779C2.13248 9.94978 2.14752 9.95232 2.12555 9.91558C2.10629 9.88375 2.11829 9.83143 2.15411 9.79046C2.1879 9.75169 2.24653 9.65907 2.28421 9.58441C2.32189 9.50991 2.38153 9.44879 2.41667 9.44879C2.45165 9.44879 2.46956 9.43118 2.45621 9.40968C2.4334 9.37243 2.63193 9.15672 2.68887 9.15672C2.70356 9.15672 2.72604 9.11727 2.73854 9.06902C2.75121 9.02077 2.77791 8.99165 2.79801 9.00417C2.81829 9.01653 2.8879 8.98098 2.95312 8.92477C3.01817 8.86872 3.09775 8.82284 3.12985 8.82284C3.16466 8.82284 3.17648 8.80168 3.15891 8.77069C3.1361 8.73006 3.14151 8.72955 3.18341 8.76849C3.22599 8.80794 3.25387 8.79744 3.31554 8.71888C3.36352 8.65793 3.42536 8.62559 3.47588 8.63524C3.52116 8.64405 3.55816 8.63389 3.55816 8.61272C3.55816 8.59139 3.60513 8.56227 3.66224 8.54788C3.71952 8.53349 3.76649 8.50809 3.76649 8.4915C3.76649 8.4749 3.78981 8.45916 3.81853 8.45679C3.86939 8.45239 4.01655 8.41988 4.05794 8.40396C4.06943 8.39956 4.09748 8.3916 4.12046 8.38635C4.14327 8.38094 4.17132 8.37213 4.18281 8.36688C4.27979 8.32117 4.43608 8.32506 4.40887 8.37247C4.39164 8.4021 4.42391 8.38432 4.48034 8.33285C4.56296 8.25768 4.59388 8.24938 4.63798 8.2912C4.67515 8.32608 4.6983 8.32845 4.70962 8.29831C4.71875 8.27342 4.7843 8.26191 4.85611 8.27258C4.95512 8.28714 4.97793 8.27884 4.95225 8.23719C4.92809 8.19808 4.93805 8.19029 4.98807 8.20942C5.02608 8.22415 5.05734 8.21704 5.05734 8.19385C5.05734 8.16811 5.1751 8.15643 5.35927 8.16388C5.58365 8.17302 5.66103 8.19097 5.66103 8.23431C5.66103 8.27647 5.73115 8.29543 5.91684 8.30339C6.05741 8.30932 6.20914 8.33404 6.25391 8.35808C6.3122 8.38923 6.3492 8.38788 6.3835 8.35351C6.41966 8.31727 6.43149 8.31829 6.43149 8.35808C6.43149 8.38686 6.44804 8.40024 6.46832 8.38771C6.48876 8.37501 6.52695 8.39093 6.55348 8.42293C6.58 8.45493 6.63356 8.47592 6.67276 8.46949C6.71179 8.46305 6.77599 8.48591 6.81536 8.52028C6.85456 8.55482 6.92485 8.57294 6.97148 8.56075C7.01795 8.54856 7.05613 8.5516 7.05613 8.56735C7.05613 8.58326 7.11222 8.62949 7.18099 8.67012C7.24976 8.71093 7.30585 8.73074 7.30585 8.71448C7.30585 8.69806 7.34032 8.71584 7.38222 8.75393C7.42412 8.79203 7.4689 8.81268 7.48157 8.79998C7.49424 8.78712 7.54223 8.8247 7.58818 8.88329C7.63431 8.94187 7.69784 8.98978 7.72943 8.98978C7.7612 8.98978 7.81915 9.02737 7.85835 9.07325C7.89772 9.11914 7.96361 9.15672 8.00518 9.15672C8.04657 9.15672 8.09861 9.17484 8.12074 9.19702C8.14288 9.2192 8.22161 9.24206 8.29562 9.24765C8.36962 9.25323 8.43028 9.27389 8.43028 9.29353C8.43028 9.45065 9.55504 9.23444 9.75036 9.03973C9.80341 8.9869 9.86576 8.95541 9.88907 8.9698C9.91239 8.9842 9.92624 8.97201 9.91999 8.94271C9.91374 8.91342 9.93655 8.88769 9.97102 8.88566C10.0053 8.88346 10.1177 8.84553 10.2207 8.801C10.3238 8.75664 10.4245 8.72532 10.4446 8.73158C10.4645 8.73785 10.4689 8.71177 10.4544 8.67385C10.4353 8.62407 10.4455 8.61171 10.4911 8.62915C10.5257 8.64252 10.5539 8.63643 10.5539 8.61577C10.5539 8.59495 10.6055 8.57209 10.6685 8.56481C10.7315 8.55753 10.7798 8.53281 10.7761 8.50995C10.7724 8.48693 10.826 8.46407 10.8952 8.45916C10.9645 8.45408 11.0426 8.43393 11.0686 8.41412C11.0948 8.39448 11.1771 8.38178 11.2514 8.38602C11.3301 8.39042 11.3867 8.37366 11.3867 8.34572C11.3867 8.31795 11.4612 8.29543 11.5638 8.29239C11.8343 8.28426 11.9859 8.25294 12.0029 8.2018C12.0197 8.15118 12.3125 8.13696 12.3598 8.18437C12.4022 8.22703 12.6776 8.23245 12.6776 8.19063C12.6776 8.09869 12.9275 8.15643 12.9309 8.24921C12.9325 8.30068 12.9428 8.32168 12.9535 8.2956C12.9658 8.26547 13.0214 8.25852 13.1064 8.27647C13.1797 8.29205 13.2867 8.30119 13.344 8.29696C13.4012 8.29272 13.4808 8.31829 13.5209 8.35385C13.5704 8.39787 13.5938 8.40227 13.5938 8.3679C13.5938 8.33759 13.6146 8.33048 13.6459 8.35029C13.7018 8.38585 13.7246 8.39228 13.8253 8.40041C13.861 8.40329 13.8794 8.42326 13.866 8.44477C13.8524 8.46678 13.888 8.47541 13.9478 8.46458C14.0189 8.45171 14.062 8.46712 14.0789 8.51131C14.0936 8.54991 14.1308 8.56701 14.1683 8.55262C14.2073 8.53772 14.2901 8.58174 14.3797 8.66504C14.4608 8.74039 14.5018 8.76866 14.4709 8.72803C14.4212 8.6625 14.4238 8.65725 14.4936 8.68231C14.6199 8.72786 14.6818 8.79033 14.659 8.84993C14.6473 8.88041 14.6512 8.90326 14.6676 8.90089C14.7617 8.88684 14.8443 8.91207 14.8222 8.94813C14.808 8.97099 14.833 8.98978 14.8778 8.98978C14.9224 8.98978 14.9702 9.01924 14.984 9.05497C14.9977 9.09086 15.0283 9.1083 15.052 9.09374C15.0756 9.07901 15.0898 9.09188 15.0834 9.12235C15.0771 9.15266 15.0954 9.17281 15.1241 9.16722C15.1527 9.16147 15.174 9.17078 15.1713 9.18805C15.1576 9.27406 15.1822 9.32367 15.2387 9.32367C15.2949 9.32367 15.3196 9.37311 15.3059 9.45929C15.3032 9.47639 15.3314 9.49061 15.3686 9.49061C15.4269 9.49061 15.4282 9.50026 15.3791 9.56121C15.3471 9.60049 15.3436 9.61878 15.3708 9.60235C15.4271 9.56849 15.6195 9.81603 15.6007 9.89797C15.594 9.9271 15.6121 9.94589 15.6408 9.93979C15.6693 9.9337 15.693 9.96621 15.6933 10.0121C15.6935 10.058 15.7156 10.1094 15.7425 10.1264C15.7694 10.1431 15.8037 10.2236 15.8189 10.3048C15.8375 10.4042 15.863 10.4428 15.8966 10.4225C15.9307 10.402 15.9297 10.4134 15.893 10.4587C15.8495 10.5126 15.8495 10.5354 15.893 10.5817C16.0478 10.7457 16.0755 10.8013 15.9882 10.7709C15.9172 10.7464 15.9142 10.75 15.9674 10.7945C16.2109 10.9982 16.2937 10.9927 12.9575 10.9927H9.86086L9.86136 11.2406C9.8617 11.4028 9.87725 11.4802 9.90597 11.4641C9.9303 11.4506 9.92675 11.4648 9.89803 11.4958C9.83754 11.5611 9.82808 11.6348 9.88468 11.5997C9.93908 11.566 9.97203 11.6976 9.95057 11.8625C9.93418 11.988 9.93925 11.9964 10.0013 11.946C10.0393 11.9152 10.0584 11.9099 10.0438 11.9343C10.0119 11.9876 10.1527 12.2155 10.1927 12.1754C10.2082 12.16 10.2207 12.1691 10.2207 12.1959C10.2207 12.2226 10.1897 12.2446 10.1515 12.2446C10.1133 12.2446 10.096 12.2587 10.1133 12.276C10.1303 12.2931 10.1584 12.3071 10.1755 12.3071C10.2675 12.3071 10.5059 12.6418 10.4331 12.6688C10.4125 12.6766 10.4218 12.707 10.4539 12.7365C10.5021 12.7809 10.5124 12.779 10.5124 12.7262C10.5124 12.6908 10.5321 12.6618 10.5565 12.6618C10.5806 12.6618 10.5897 12.6794 10.5766 12.7008C10.5634 12.7221 10.5717 12.7514 10.595 12.7658C10.6181 12.7802 10.6376 12.8332 10.6379 12.8835C10.6384 12.9556 10.6465 12.962 10.6769 12.9139C10.7085 12.864 10.7393 12.8779 10.8466 12.9903C10.9185 13.0658 10.9873 13.1178 10.9991 13.1059C11.0111 13.0939 11.06 13.1207 11.1076 13.1652C11.1553 13.2097 11.2188 13.2485 11.2489 13.2514C11.2789 13.2542 11.3176 13.2593 11.3347 13.2629C11.3752 13.271 11.6096 13.4237 11.6366 13.4596C11.6714 13.5057 11.9799 13.5785 12.0244 13.5511C12.0477 13.5365 12.0529 13.5463 12.0362 13.5734C12.0161 13.6059 12.0487 13.6217 12.1364 13.6217C12.2202 13.6217 12.2562 13.6379 12.2378 13.6675C12.218 13.6997 12.2358 13.6994 12.2979 13.666C12.3464 13.6399 12.3861 13.6359 12.3861 13.6569C12.3861 13.7232 12.7291 13.7906 12.7937 13.7368C12.8322 13.705 12.8597 13.7036 12.8786 13.7326C12.894 13.7563 12.9998 13.7788 13.1135 13.7827C13.2272 13.7867 13.3387 13.8084 13.3612 13.8309C13.4166 13.8865 14.7299 13.8851 14.7855 13.8294C14.8119 13.803 15.1932 13.7869 15.7932 13.7869C16.3947 13.7867 16.7585 13.7713 16.7585 13.7459C16.7585 13.6821 17.5387 13.6931 17.5603 13.7573C17.5737 13.7971 17.5958 13.7945 17.6538 13.7468C17.7112 13.6995 17.734 13.6968 17.7472 13.7359C17.7717 13.8093 17.8972 13.678 17.905 13.5709C17.9084 13.5258 17.9299 13.4764 17.9527 13.4613C17.9756 13.4462 17.991 13.354 17.987 13.2564C17.9753 12.9801 17.9687 12.9475 17.9292 12.9718C17.9089 12.9845 17.882 12.9558 17.8697 12.908C17.8525 12.8425 17.8259 12.8279 17.7609 12.8487C17.7134 12.8638 17.6746 12.8608 17.6744 12.842C17.6744 12.8233 17.1123 12.8039 16.4253 12.7991C15.7209 12.7941 15.1762 12.8064 15.1762 12.8272C15.1762 12.876 13.5239 12.8845 13.494 12.8357C13.4812 12.8151 13.3206 12.7981 13.1371 12.7981C12.9309 12.7981 12.7795 12.7781 12.7406 12.7458C12.6896 12.7033 12.6776 12.7043 12.6771 12.7507C12.6766 12.7956 12.6678 12.7946 12.636 12.7453C12.6139 12.7109 12.5953 12.6991 12.595 12.7192C12.5946 12.7392 12.5671 12.7329 12.5338 12.7052C12.5003 12.6774 12.4549 12.6661 12.4326 12.6798C12.4214 12.6863 12.4082 12.6882 12.3957 12.685C12.3832 12.6817 12.3724 12.6736 12.3659 12.6625C12.3513 12.6393 12.2834 12.6202 12.2146 12.6202C12.146 12.6202 12.0999 12.6038 12.1122 12.5836C12.1247 12.5636 12.0884 12.5472 12.0318 12.5472C11.8583 12.5472 11.6811 12.4542 11.7059 12.3764C11.7219 12.3257 11.7176 12.3215 11.6893 12.3608C11.6469 12.4197 11.4981 12.3838 11.5352 12.3237C11.5479 12.3032 11.5197 12.2863 11.4726 12.2863C11.4202 12.2863 11.3867 12.2592 11.3867 12.2167C11.3867 12.1786 11.3754 12.1586 11.3616 12.1725C11.3398 12.1944 11.2661 12.1253 11.0943 11.9213C11.0593 11.8796 11.6417 11.8691 13.9853 11.8691C16.2006 11.8691 16.9276 11.8569 16.9506 11.8197C16.9715 11.7858 16.9908 11.7955 17.0122 11.851C17.0293 11.8953 17.0349 11.8283 17.0246 11.7022C16.9747 11.0916 16.9739 11.0564 17.0087 11.1389C17.0682 11.2789 17.0526 11.15 16.9876 10.9629C16.9539 10.8663 16.9376 10.7582 16.9511 10.723C16.9649 10.6868 16.9534 10.6589 16.9244 10.6589C16.885 10.6589 16.8857 10.644 16.9271 10.594C16.9715 10.5403 16.9705 10.5312 16.9217 10.5419C16.8892 10.5488 16.8676 10.5302 16.8737 10.5002C16.8799 10.4702 16.8548 10.4156 16.8179 10.3787C16.7728 10.3334 16.7586 10.272 16.7748 10.1911C16.7895 10.1169 16.7831 10.0803 16.758 10.0961C16.7171 10.1213 16.6997 10.0642 16.715 9.95435C16.7203 9.91727 16.6992 9.90576 16.6566 9.92202C16.6023 9.94284 16.5978 9.93302 16.6319 9.86936C16.6638 9.80942 16.6581 9.78504 16.6077 9.76557C16.5709 9.75152 16.552 9.71325 16.565 9.67922C16.5778 9.64587 16.5699 9.60693 16.5474 9.59304C16.4646 9.54174 16.5657 9.32367 16.6723 9.32367C16.6968 9.32367 16.7169 9.29607 16.7169 9.26255C16.7169 9.22885 16.7549 9.18094 16.8014 9.15605C16.8478 9.13116 16.8749 9.09323 16.8617 9.07156C16.848 9.04955 16.8686 9.04447 16.9088 9.06005C16.9615 9.0802 16.9713 9.07275 16.9458 9.0316C16.9202 8.98978 16.9305 8.98301 16.9866 9.00451C17.053 9.03008 17.0552 9.02483 17.0051 8.95948C16.9741 8.91884 16.9641 8.89835 16.983 8.91427C17.0018 8.93002 17.0567 8.90614 17.105 8.86111C17.1533 8.81607 17.2123 8.78661 17.2361 8.79575C17.2858 8.81488 17.3895 8.71804 17.3559 8.68434C17.3436 8.67198 17.4007 8.61831 17.4828 8.56515C17.5647 8.51181 17.6335 8.44003 17.6354 8.40566C17.6377 8.3635 17.6506 8.37044 17.6746 8.42648C17.7065 8.50098 17.7107 8.50183 17.7132 8.43444C17.7149 8.39296 17.735 8.37061 17.7579 8.38466C17.7808 8.39888 17.7996 8.3828 17.7996 8.34877C17.7996 8.29594 17.9631 8.22856 18.1118 8.22026C18.1348 8.2189 18.1596 8.1737 18.1674 8.11969C18.1786 8.03994 18.2007 8.02538 18.2852 8.04163C18.356 8.05518 18.3972 8.03977 18.4148 7.99355C18.4469 7.90822 18.5341 7.81831 18.5782 7.82525C18.6395 7.8349 18.799 7.7704 18.799 7.73603C18.799 7.71723 18.8411 7.69556 18.8926 7.68777C18.9441 7.67981 18.9816 7.65035 18.9759 7.62225C18.9701 7.59414 18.9796 7.57399 18.9967 7.57772C19.0139 7.58128 19.0607 7.57196 19.1007 7.55672L19.2466 7.5017C19.2866 7.48646 19.353 7.47224 19.3939 7.47038C19.4348 7.46834 19.4836 7.44159 19.5025 7.41095C19.5215 7.3803 19.549 7.35694 19.5635 7.3588C19.6568 7.37133 19.7169 7.35744 19.6985 7.32765C19.6867 7.30851 19.6997 7.29074 19.7272 7.2882C19.9212 7.26991 20.0209 7.23994 20.0523 7.19033C20.0723 7.15867 20.0888 7.14801 20.0892 7.16663C20.0895 7.18525 20.1131 7.18559 20.1419 7.16731C20.2017 7.12921 20.1831 7.13429 20.4117 7.0923C20.5087 7.07452 20.5788 7.04506 20.5677 7.02695C20.5565 7.009 20.5803 6.99935 20.6205 7.00561C20.6607 7.01188 20.7368 7.00087 20.7897 6.98123C20.8425 6.96142 20.8767 6.96024 20.8654 6.97835C20.8542 6.99647 20.8858 7.01425 20.9355 7.01814C20.9977 7.02271 21.0086 7.01425 20.9706 6.99088C20.9269 6.96362 20.9291 6.9516 20.9816 6.93145C21.0189 6.91706 21.049 6.92807 21.0509 6.95685C21.0532 6.99275 21.0598 6.99376 21.0737 6.9599C21.0843 6.93366 21.1326 6.92265 21.181 6.93518C21.2479 6.95279 21.2609 6.94432 21.2354 6.89945C21.2083 6.85205 21.2126 6.85069 21.258 6.89302C21.3334 6.96312 21.3807 6.95871 21.3807 6.88168C21.3807 6.83495 21.4079 6.82513 21.4848 6.8446C21.5574 6.86288 21.589 6.85357 21.5895 6.81395C21.59 6.76739 21.5964 6.76722 21.6252 6.8126C21.6532 6.85696 21.6743 6.85357 21.7323 6.79533C21.7931 6.73438 21.8105 6.73234 21.8419 6.78195C21.8737 6.83224 21.8791 6.83224 21.8798 6.78212C21.8803 6.73556 21.896 6.73776 21.9565 6.79262C22.0509 6.87829 22.1898 6.8854 22.1584 6.80312C22.14 6.7552 22.2157 6.7442 22.5749 6.74284C22.8163 6.74199 23.0243 6.73065 23.037 6.71795C23.0759 6.67901 23.0946 6.69205 23.0661 6.7381ZM27.6041 12.8345C27.4906 12.895 27.3838 12.9361 27.3666 12.926C27.3495 12.9156 27.3353 12.9366 27.3353 12.9723C27.3353 13.0082 27.308 13.0374 27.2742 13.0374C27.2395 13.0374 27.2226 13.0622 27.235 13.0946C27.247 13.1261 27.2268 13.1633 27.1902 13.1776C27.1376 13.1977 27.1329 13.2207 27.168 13.2862C27.2037 13.3531 27.2007 13.3648 27.1522 13.3462C27.0472 13.3059 27.0836 13.9076 27.1947 14.0492C27.2431 14.1108 27.2975 14.1479 27.3157 14.1315C27.3338 14.115 27.3363 14.1233 27.3211 14.1499C27.272 14.2361 27.3348 14.3235 27.4284 14.2989C27.4952 14.2813 27.5102 14.2911 27.4913 14.3404C27.4725 14.3897 27.4874 14.3996 27.5538 14.3822C27.6254 14.3634 27.6359 14.3736 27.6129 14.4391C27.5859 14.5161 27.5871 14.5161 27.6476 14.4377C27.6972 14.3734 27.7101 14.3702 27.7101 14.4217C27.7101 14.4719 27.7548 14.4855 27.9079 14.4818C28.0458 14.4785 28.1024 14.4608 28.0948 14.4232C28.0862 14.3807 28.1029 14.3793 28.1727 14.4169C28.243 14.4545 28.2546 14.4535 28.2289 14.4115C28.2051 14.3732 28.217 14.3665 28.2715 14.3875C28.354 14.4193 28.5153 14.304 28.4765 14.241C28.4638 14.2205 28.469 14.208 28.4878 14.2131C28.5486 14.2295 28.7095 14.1599 28.7095 14.1171C28.7095 14.0944 28.6889 14.0884 28.6637 14.104C28.6366 14.121 28.6402 14.0922 28.6726 14.0336C28.7027 13.9791 28.7233 13.9205 28.7184 13.9032C28.7135 13.8861 28.733 13.8717 28.7617 13.8714C28.7963 13.8709 28.7928 13.8572 28.7512 13.8302C28.7166 13.8077 28.7101 13.7896 28.7367 13.7891C28.7689 13.7888 28.7826 13.694 28.7784 13.502C28.7737 13.2917 28.7581 13.2206 28.7199 13.2351C28.6748 13.2524 28.647 13.1709 28.663 13.0687C28.6657 13.0516 28.6478 13.0374 28.6233 13.0374C28.5657 13.0374 28.4597 12.9312 28.4597 12.8735C28.4597 12.8489 28.4363 12.8272 28.4077 12.8254C28.2349 12.8137 28.1573 12.7961 28.1331 12.7624C28.0799 12.6887 27.8079 12.7258 27.6041 12.8345ZM28.0433 14.4086C28.0433 14.4284 27.9965 14.4357 27.9392 14.4247C27.8819 14.4137 27.8351 14.3976 27.8351 14.3888C27.8351 14.38 27.8819 14.3727 27.9392 14.3727C27.9965 14.3727 28.0433 14.389 28.0433 14.4086ZM31.5302 15.5085C31.5218 15.6297 31.5149 15.5411 31.5147 15.3116C31.5145 15.0821 31.5215 14.9829 31.5301 15.0911C31.5385 15.1995 31.5387 15.3872 31.5302 15.5085ZM19.7151 23.5947C19.7151 23.6221 18.6194 23.6365 16.5111 23.6365C14.4201 23.6365 13.2982 23.6219 13.2814 23.5947C13.2644 23.5671 14.3428 23.553 16.4854 23.553C18.6108 23.553 19.7151 23.5672 19.7151 23.5947ZM24.3371 23.5947C24.3371 23.6177 24.2998 23.6365 24.254 23.6365C24.208 23.6365 24.1707 23.6177 24.1707 23.5947C24.1707 23.5718 24.208 23.553 24.254 23.553C24.2998 23.553 24.3371 23.5718 24.3371 23.5947Z"
        fill="#4C5CF4" />
</svg>