<svg width="32" height="32" viewBox="0 0 32 32" fill="none" xmlns="http://www.w3.org/2000/svg">
<path fill-rule="evenodd" clip-rule="evenodd" d="M7.28918 5.85586C8.94318 4.24832 10.9432 3.5261 13.2892 3.68919C11.2282 4.31995 9.22818 5.04218 7.28918 5.85586Z" fill="#489651"/>
<path fill-rule="evenodd" clip-rule="evenodd" d="M17.9558 4.18918C18.4135 4.13695 18.8581 4.19251 19.2891 4.35584C19.9715 4.71339 20.6381 5.10227 21.2891 5.52251C17.3085 6.60068 13.4195 7.93401 9.62248 9.52251C9.46048 8.75361 9.46048 8.03138 9.62248 7.35584C12.3975 6.14088 15.1751 5.08532 17.9558 4.18918Z" fill="#3C9A49"/>
<path fill-rule="evenodd" clip-rule="evenodd" d="M7.28918 5.85586C7.12185 6.38409 6.78852 6.55076 6.28918 6.35586C6.53718 6.00966 6.87052 5.84299 7.28918 5.85586Z" fill="#76A77F"/>
<path fill-rule="evenodd" clip-rule="evenodd" d="M22.2891 7.52253C23.6901 7.25656 24.5791 7.81213 24.9558 9.18919C22.5778 9.70036 20.2445 10.367 17.9558 11.1892C17.6538 10.5604 17.3205 9.94929 16.9558 9.35586C17.0668 9.24476 17.1781 9.13363 17.2891 9.02253C19.0675 8.74863 20.7341 8.24863 22.2891 7.52253Z" fill="#3C9848"/>
<path fill-rule="evenodd" clip-rule="evenodd" d="M5.62251 7.5225C8.05551 7.1463 9.11084 8.1463 8.78918 10.5225C8.63418 10.9994 8.35618 11.3883 7.95584 11.6892C5.65318 11.8772 3.70884 12.8217 2.12251 14.5225C1.76751 12.4812 2.54518 11.0368 4.45584 10.1892C4.45684 9.10617 4.84584 8.2173 5.62251 7.5225Z" fill="#43649E"/>
<path fill-rule="evenodd" clip-rule="evenodd" d="M13.2892 8.85585C16.7285 8.79665 17.5062 10.1855 15.6225 13.0225C13.7042 12.9463 11.9265 13.3907 10.2892 14.3558C7.47385 15.9021 4.86285 17.7354 2.45585 19.8559C2.17685 19.0821 2.06585 18.3043 2.12252 17.5225C5.03352 15.0934 8.20018 13.0379 11.6225 11.3558C12.0875 10.4563 12.6432 9.62302 13.2892 8.85585Z" fill="#45669F"/>
<path fill-rule="evenodd" clip-rule="evenodd" d="M22.2891 10.8559C23.4275 10.7763 24.4828 10.9985 25.4558 11.5225C27.1991 11.036 28.9211 11.0915 30.6225 11.6892C31.5248 12.3104 31.8028 13.1438 31.4558 14.1892C31.1781 13.9114 30.9001 13.6336 30.6225 13.3559C29.2891 13.1336 27.9558 13.1336 26.6225 13.3559C25.6665 13.6428 24.8885 14.1984 24.2891 15.0225C21.4038 15.4168 20.4591 14.2501 21.4558 11.5225C21.7875 11.3339 22.0651 11.1117 22.2891 10.8559Z" fill="#4566A0"/>
<path fill-rule="evenodd" clip-rule="evenodd" d="M29.9559 13.8559C30.8706 14.0464 31.1482 14.602 30.7892 15.5225C29.9002 16.8559 28.7892 17.967 27.4559 18.8559C27.2946 18.0516 27.4059 17.2738 27.7892 16.5225C28.7166 15.7657 29.4389 14.8768 29.9559 13.8559Z" fill="#41994B"/>
<path fill-rule="evenodd" clip-rule="evenodd" d="M11.9558 18.8559C10.2965 19.1619 9.35181 20.1619 9.12248 21.8559C7.95715 22.723 6.79048 22.723 5.62248 21.8559C4.79181 18.8544 5.90281 17.5766 8.95581 18.0225C12.4411 15.947 16.1078 14.2247 19.9558 12.8559C20.1991 13.4696 20.4215 14.0807 20.6225 14.6892C17.5708 15.8267 14.6821 17.2156 11.9558 18.8559Z" fill="#4566A0"/>
<path fill-rule="evenodd" clip-rule="evenodd" d="M12.6226 22.5225C12.1782 21.5225 12.1782 20.5225 12.6226 19.5225C13.0622 19.0569 13.6179 18.8347 14.2892 18.8559C15.0666 19.08 15.8446 19.1356 16.6226 19.0225C19.8976 17.3936 23.3422 16.3381 26.9559 15.8559C26.9559 16.5225 26.9559 17.1892 26.9559 17.8559C23.4709 18.499 20.1376 19.6101 16.9559 21.1892C16.0139 23.2759 14.5696 23.7203 12.6226 22.5225Z" fill="#43659E"/>
<path fill-rule="evenodd" clip-rule="evenodd" d="M20.9559 20.1892C22.0775 20.1075 23.1332 20.3298 24.1225 20.8559C26.2945 19.6944 26.7392 20.1389 25.4559 22.1892C24.6225 22.8003 23.9002 23.5225 23.2892 24.3559C19.8232 24.513 19.0452 23.1241 20.9559 20.1892Z" fill="#44659E"/>
<path fill-rule="evenodd" clip-rule="evenodd" d="M5.62252 22.5225C4.53919 23.6657 3.48352 24.8879 2.45585 26.1892C1.85352 26.9358 1.79785 27.7136 2.28919 28.5225C0.910186 27.9866 0.410187 26.9866 0.789187 25.5225C1.76119 23.8826 2.98319 22.4381 4.45585 21.1892C4.67585 21.7971 5.06485 22.2415 5.62252 22.5225Z" fill="#3E9949"/>
<path fill-rule="evenodd" clip-rule="evenodd" d="M11.9559 22.5225C11.9689 22.8836 12.0802 23.2169 12.2892 23.5225C10.9459 24.5255 9.61252 25.5255 8.28919 26.5225C7.68652 26.5254 7.13086 26.3587 6.62252 26.0225C6.30552 25.7834 6.25019 25.5056 6.45586 25.1892C8.02119 24.013 9.63219 22.9019 11.2892 21.8559C11.5165 22.1034 11.7389 22.3257 11.9559 22.5225Z" fill="#3A9847"/>
<path fill-rule="evenodd" clip-rule="evenodd" d="M18.6226 22.8559C19.1536 23.1385 19.5426 23.583 19.7892 24.1892C20.0186 24.4664 19.9629 24.6887 19.6226 24.8559C17.2599 25.9533 14.9822 27.1755 12.7892 28.5225C12.0472 28.3631 11.3252 28.1409 10.6226 27.8559C13.1072 25.839 15.7739 24.1723 18.6226 22.8559Z" fill="#3C9947"/>
<path fill-rule="evenodd" clip-rule="evenodd" d="M20.6225 26.1892C20.9731 26.1393 21.3065 26.1949 21.6225 26.3558C20.5138 27.2625 19.2915 27.8181 17.9558 28.0225C18.9248 27.4861 19.8135 26.875 20.6225 26.1892Z" fill="#6FA872"/>
<path fill-rule="evenodd" clip-rule="evenodd" d="M7.62256 27.1892C7.76189 27.4297 7.98389 27.5964 8.28922 27.6892C6.50956 28.4621 4.73189 28.6288 2.95589 28.1892C2.85456 27.9726 2.74356 27.7504 2.62256 27.5225C3.87223 27.2808 5.09456 26.9475 6.28923 26.5225C6.74256 26.7492 7.18689 26.9714 7.62256 27.1892Z" fill="#349641"/>
</svg>
