<svg width="32" height="32" viewBox="0 0 32 32" fill="none" xmlns="http://www.w3.org/2000/svg">
    <path
        d="M24.0001 0H7.99992C3.58169 0 0 3.58172 0 8V24C0 28.4183 3.58169 32 7.99992 32H24.0001C28.4182 32 32 28.4183 32 24V8C32 3.58172 28.4182 0 24.0001 0Z"
        fill="#4A9DD8" />
    <path opacity="0.776" fill-rule="evenodd" clip-rule="evenodd"
        d="M12.48 6.40105C11.1716 6.08793 9.86496 6.08793 8.56 6.40105C8.69184 6.28689 8.85184 6.22025 9.04 6.20105C10.0534 6.04105 11.0666 6.04105 12.08 6.20105C12.2393 6.23097 12.3726 6.29761 12.48 6.40105Z"
        fill="#8AA8CA" />
    <path opacity="0.776" fill-rule="evenodd" clip-rule="evenodd"
        d="M21.28 6.16095C21.8524 6.06855 22.439 6.05519 23.04 6.12095C23.3691 6.13015 23.6625 6.22351 23.92 6.40095C23.0532 6.19623 22.1732 6.11623 21.28 6.16095Z"
        fill="#82A2C6" />
    <path fill-rule="evenodd" clip-rule="evenodd"
        d="M12.48 6.40095C12.5833 6.38199 12.6633 6.40863 12.72 6.48095C12.783 6.60927 12.8896 6.66263 13.04 6.64095C13.1923 6.65999 13.299 6.73999 13.36 6.88095C13.421 7.02191 13.5277 7.10191 13.68 7.12095C13.7264 7.30087 13.833 7.43415 14 7.52095C14.019 7.67327 14.099 7.77999 14.24 7.84095C14.2402 8.13415 14.3468 8.37415 14.56 8.56095C14.5528 8.77311 14.6061 8.95975 14.72 9.12095C14.7961 9.23447 14.8227 9.36775 14.8 9.52095C14.8 9.68095 14.8 9.84095 14.8 10.001C14.9978 10.0339 15.1045 9.95391 15.12 9.76095C15.28 9.76095 15.36 9.68095 15.36 9.52095C15.44 9.49431 15.4934 9.44095 15.52 9.36095C15.6968 9.32943 15.8034 9.22279 15.84 9.04095C16 9.04095 16.08 8.96095 16.08 8.80095C16.3758 8.55967 16.6958 8.34631 17.04 8.16095C17.1219 8.05279 17.2019 7.94615 17.28 7.84095C17.4323 7.82191 17.539 7.74191 17.6 7.60095C17.7222 7.60679 17.8022 7.55343 17.84 7.44095C18.0139 7.42095 18.1473 7.34095 18.24 7.20095C18.2674 7.13391 18.3206 7.10719 18.4 7.12095C18.7039 7.04727 18.9706 6.91391 19.2 6.72095C19.5086 6.69935 19.7753 6.59271 20 6.40095C20.0534 6.40095 20.1066 6.40095 20.16 6.40095C20.4742 6.36687 20.7674 6.28687 21.04 6.16095C21.12 6.16095 21.2 6.16095 21.28 6.16095C22.1732 6.11623 23.0532 6.19623 23.92 6.40095C23.9466 6.40095 23.9734 6.40095 24 6.40095C24.1469 6.56799 24.3335 6.67463 24.56 6.72095C24.5866 6.72095 24.6134 6.72095 24.64 6.72095C24.874 7.00823 25.1406 7.27495 25.44 7.52095C25.4342 7.64311 25.4875 7.72311 25.6 7.76095C25.5942 7.88311 25.6475 7.96311 25.76 8.00095C25.8539 8.08207 25.9072 8.18871 25.92 8.32095C26.0345 8.73447 26.1678 9.13447 26.32 9.52095C26.3252 9.75519 26.3786 9.96855 26.48 10.161C26.48 10.1876 26.48 10.2143 26.48 10.241C26.48 15.3343 26.48 20.4276 26.48 25.521C25.5734 25.521 24.6666 25.521 23.76 25.521C23.7866 20.8674 23.7599 16.2274 23.68 11.601C23.6534 11.601 23.6266 11.601 23.6 11.601C23.5583 11.2825 23.5317 10.9625 23.52 10.641C23.5242 10.4487 23.4975 10.2621 23.44 10.081C23.4104 9.85959 23.3037 9.69959 23.12 9.60095C23.0934 9.41431 22.9866 9.30759 22.8 9.28095C22.7622 9.16847 22.6822 9.11511 22.56 9.12095C22.5066 9.12095 22.4534 9.12095 22.4 9.12095C22.2762 9.01743 22.1162 8.96407 21.92 8.96095C21.6524 8.97879 21.3858 9.00543 21.12 9.04095C20.9734 9.04775 20.8667 9.10111 20.8 9.20095C20.5165 9.17151 20.2765 9.25151 20.08 9.44095C20.0087 9.48975 19.9287 9.51639 19.84 9.52095C19.5518 9.53631 19.3118 9.64303 19.12 9.84095C19.0926 9.90799 19.0394 9.93471 18.96 9.92095C18.8278 9.93375 18.7211 9.98703 18.64 10.081C18.64 10.1343 18.6134 10.161 18.56 10.161C18.3861 10.181 18.2527 10.261 18.16 10.401C18.099 10.5419 17.9923 10.6219 17.84 10.641C17.7334 10.641 17.68 10.6943 17.68 10.801C17.6266 10.8276 17.5734 10.8543 17.52 10.881C17.3848 10.9094 17.3048 10.9894 17.28 11.121C17.28 11.1743 17.2534 11.201 17.2 11.201C17.0477 11.22 16.941 11.3 16.88 11.441C16.88 11.4943 16.8534 11.521 16.8 11.521C16.6934 11.5743 16.6134 11.6543 16.56 11.761C16.5334 11.841 16.48 11.8943 16.4 11.921C16.2875 11.9588 16.2342 12.0388 16.24 12.161C16.24 12.2143 16.2134 12.241 16.16 12.241C16 12.241 15.92 12.321 15.92 12.481C15.8934 12.561 15.84 12.6143 15.76 12.641C15.619 12.7019 15.539 12.8086 15.52 12.961C15.4666 13.0676 15.3866 13.1476 15.28 13.201C15.1466 13.281 15.04 13.3876 14.96 13.521C14.8801 17.5074 14.8534 21.5074 14.88 25.521C13.9734 25.521 13.0666 25.521 12.16 25.521C12.1866 20.7608 12.1599 16.0141 12.08 11.281C12.0534 11.281 12.0266 11.281 12 11.281C12 11.201 12 11.121 12 11.041C11.9883 10.73 11.935 10.4366 11.84 10.161C11.8775 9.92951 11.7975 9.76951 11.6 9.68095C11.5957 9.51039 11.5157 9.40375 11.36 9.36095C11.3222 9.24847 11.2422 9.19511 11.12 9.20095C10.8586 9.09519 10.5652 9.04183 10.24 9.04095C9.94664 9.05431 9.65336 9.06759 9.36 9.08095C9.0744 9.17759 8.80776 9.29759 8.56 9.44095C8.48872 9.48975 8.40872 9.51639 8.32 9.52095C8.00016 9.56431 7.73344 9.69767 7.52 9.92095C7.31728 9.90167 7.184 9.98167 7.12 10.161C7.06664 10.1876 7.01336 10.2143 6.96 10.241C6.78608 10.261 6.65272 10.341 6.56 10.481C6.56 10.5343 6.53336 10.561 6.48 10.561C6.32768 10.58 6.22096 10.66 6.16 10.801C6.16 10.8543 6.13336 10.881 6.08 10.881C5.92768 10.9 5.82096 10.98 5.76 11.121C5.73336 11.201 5.68 11.2543 5.6 11.281C5.47784 11.2751 5.39784 11.3285 5.36 11.441C5.36 11.4943 5.33336 11.521 5.28 11.521C5.17336 11.5743 5.09336 11.6543 5.04 11.761C4.90664 11.9476 4.74664 12.1076 4.56 12.241C4.45336 12.2943 4.37336 12.3743 4.32 12.481C4.29336 12.5343 4.26664 12.5876 4.24 12.641C4.08 12.641 4 12.721 4 12.881C3.97336 12.961 3.92 13.0143 3.84 13.041C3.72752 13.0788 3.67416 13.1588 3.68 13.281C3.68 13.3343 3.65336 13.361 3.6 13.361C3.49336 13.361 3.44 13.4143 3.44 13.521C3.36008 17.5074 3.33344 21.5074 3.36 25.521C2.42664 25.521 1.49333 25.521 0.559998 25.521C0.559998 19.2276 0.559998 12.9343 0.559998 6.64095C1.49333 6.64095 2.42664 6.64095 3.36 6.64095C3.36 7.70759 3.36 8.77431 3.36 9.84095C3.46328 9.85991 3.54328 9.83327 3.6 9.76095C4 9.41431 4.37336 9.04095 4.72 8.64095C4.77336 8.53431 4.85336 8.45431 4.96 8.40095C5.1436 8.35007 5.27688 8.24343 5.36 8.08095C5.51232 8.06191 5.61904 7.98191 5.68 7.84095C5.86824 7.77375 6.02824 7.66703 6.16 7.52095C6.28216 7.52679 6.36216 7.47343 6.4 7.36095C6.64968 7.34207 6.83632 7.23543 6.96 7.04095C7.22416 7.00799 7.43752 6.90135 7.6 6.72095C7.94136 6.66047 8.26136 6.55383 8.56 6.40095C9.86496 6.08783 11.1716 6.08783 12.48 6.40095Z"
        fill="#FEFEFE" />
    <path opacity="0.647" fill-rule="evenodd" clip-rule="evenodd"
        d="M21.04 6.16103C20.7674 6.28695 20.4742 6.36695 20.16 6.40103C20.421 6.23559 20.7144 6.15559 21.04 6.16103Z"
        fill="#7598C0" />
    <path opacity="0.663" fill-rule="evenodd" clip-rule="evenodd"
        d="M24 6.401C24.2265 6.44732 24.4131 6.55396 24.56 6.721C24.3335 6.67468 24.1469 6.56804 24 6.401Z"
        fill="#789AC1" />
    <path opacity="0.804" fill-rule="evenodd" clip-rule="evenodd"
        d="M8.56 6.401C8.26136 6.55388 7.94136 6.66052 7.6 6.721C7.8868 6.53652 8.2068 6.42988 8.56 6.401Z"
        fill="#8BA8CA" />
    <path opacity="0.533" fill-rule="evenodd" clip-rule="evenodd"
        d="M12.72 6.48096C12.8522 6.49376 12.9589 6.54704 13.04 6.64096C12.8896 6.66264 12.783 6.60928 12.72 6.48096Z"
        fill="#779AC1" />
    <path opacity="0.875" fill-rule="evenodd" clip-rule="evenodd"
        d="M20 6.401C19.7753 6.59276 19.5086 6.6994 19.2 6.721C19.4414 6.569 19.7081 6.46236 20 6.401Z"
        fill="#90ACCC" />
    <path fill-rule="evenodd" clip-rule="evenodd"
        d="M0.48 6.56103C1.45426 6.53479 2.41424 6.56143 3.36 6.64103C2.42664 6.64103 1.49334 6.64103 0.56 6.64103C0.56 12.9344 0.56 19.2277 0.56 25.521C1.49334 25.521 2.42664 25.521 3.36 25.521C2.41424 25.6006 1.45426 25.6273 0.48 25.601C0.373336 19.2544 0.373336 12.9077 0.48 6.56103Z"
        fill="#B6C5DC" />
    <path opacity="0.99" fill-rule="evenodd" clip-rule="evenodd"
        d="M0.479996 6.56096C0.959252 6.50768 1.45259 6.48096 1.96 6.48096C2.48304 6.48128 2.9764 6.53456 3.44 6.64096C3.38816 7.71104 3.44152 8.75104 3.6 9.76096C3.54328 9.83328 3.46328 9.85992 3.36 9.84096C3.36 8.77432 3.36 7.7076 3.36 6.64096C2.41424 6.56136 1.45426 6.53472 0.479996 6.56096Z"
        fill="#85A6C8" />
    <path opacity="0.016" fill-rule="evenodd" clip-rule="evenodd"
        d="M3.44 6.64099C3.49336 7.65435 3.54664 8.66763 3.6 9.68099C3.6 9.70763 3.6 9.73435 3.6 9.76099C3.44152 8.75107 3.38816 7.71107 3.44 6.64099Z"
        fill="#3269A3" />
    <path fill-rule="evenodd" clip-rule="evenodd"
        d="M19.2 6.72095C18.9706 6.91391 18.7039 7.04727 18.4 7.12095C18.6188 6.90487 18.8855 6.77151 19.2 6.72095Z"
        fill="#8AA8C9" />
    <path opacity="0.902" fill-rule="evenodd" clip-rule="evenodd"
        d="M24.64 6.72095C24.9884 6.90935 25.255 7.17599 25.44 7.52095C25.1406 7.27495 24.874 7.00823 24.64 6.72095Z"
        fill="#6F93BD" />
    <path opacity="0.984" fill-rule="evenodd" clip-rule="evenodd"
        d="M7.6 6.72095C7.43752 6.90135 7.22416 7.00799 6.96 7.04095C7.14312 6.88999 7.3564 6.78327 7.6 6.72095Z"
        fill="#97B2CF" />
    <path opacity="0.196" fill-rule="evenodd" clip-rule="evenodd"
        d="M13.36 6.88098C13.5123 6.90002 13.619 6.98002 13.68 7.12098C13.5277 7.10194 13.421 7.02194 13.36 6.88098Z"
        fill="#7296BF" />
    <path fill-rule="evenodd" clip-rule="evenodd"
        d="M6.95999 7.04102C6.83631 7.2355 6.64967 7.34214 6.39999 7.36102C6.54687 7.19398 6.73351 7.08734 6.95999 7.04102Z"
        fill="#A3BAD5" />
    <path opacity="0.875" fill-rule="evenodd" clip-rule="evenodd"
        d="M13.68 7.12097C13.847 7.20777 13.9536 7.34105 14 7.52097C13.833 7.43417 13.7264 7.30089 13.68 7.12097Z"
        fill="#7B9CC2" />
    <path opacity="0.396" fill-rule="evenodd" clip-rule="evenodd"
        d="M18.24 7.20105C18.1473 7.34105 18.0139 7.42105 17.84 7.44105C17.9327 7.30105 18.0661 7.22105 18.24 7.20105Z"
        fill="#6E94BD" />
    <path opacity="0.957" fill-rule="evenodd" clip-rule="evenodd"
        d="M6.4 7.36103C6.36216 7.47351 6.28216 7.52687 6.16 7.52103C6.19784 7.40855 6.27784 7.35519 6.4 7.36103Z"
        fill="#8DAACB" />
    <path opacity="0.804" fill-rule="evenodd" clip-rule="evenodd"
        d="M17.84 7.44098C17.8022 7.55346 17.7222 7.60682 17.6 7.60098C17.6378 7.4885 17.7178 7.43514 17.84 7.44098Z"
        fill="#82A2C6" />
    <path opacity="0.396" fill-rule="evenodd" clip-rule="evenodd"
        d="M6.16 7.521C6.02824 7.66708 5.86824 7.7738 5.68 7.841C5.78416 7.65524 5.94416 7.5486 6.16 7.521Z"
        fill="#7597BF" />
    <path opacity="0.875" fill-rule="evenodd" clip-rule="evenodd"
        d="M25.44 7.521C25.5525 7.55884 25.6058 7.63884 25.6 7.761C25.4875 7.72316 25.4342 7.64316 25.44 7.521Z"
        fill="#89A7C9" />
    <path opacity="0.663" fill-rule="evenodd" clip-rule="evenodd"
        d="M14 7.521C14.141 7.58196 14.221 7.68868 14.24 7.841C14.099 7.78004 14.019 7.67332 14 7.521Z"
        fill="#789AC1" />
    <path opacity="0.718" fill-rule="evenodd" clip-rule="evenodd"
        d="M17.6 7.60095C17.539 7.74191 17.4323 7.82191 17.28 7.84095C17.341 7.69999 17.4477 7.61999 17.6 7.60095Z"
        fill="#84A3C7" />
    <path opacity="0.663" fill-rule="evenodd" clip-rule="evenodd"
        d="M5.68 7.84094C5.61904 7.9819 5.51232 8.0619 5.36 8.08094C5.42096 7.93998 5.52768 7.85998 5.68 7.84094Z"
        fill="#7A9CC2" />
    <path opacity="0.506" fill-rule="evenodd" clip-rule="evenodd"
        d="M25.6 7.76099C25.7125 7.79883 25.7658 7.87883 25.76 8.00099C25.6475 7.96315 25.5942 7.88315 25.6 7.76099Z"
        fill="#799BC2" />
    <path fill-rule="evenodd" clip-rule="evenodd"
        d="M14.24 7.84094C14.3772 8.06518 14.4838 8.30518 14.56 8.56094C14.3468 8.37414 14.2402 8.13414 14.24 7.84094Z"
        fill="#99B2D0" />
    <path opacity="0.718" fill-rule="evenodd" clip-rule="evenodd"
        d="M5.36 8.08105C5.27688 8.24353 5.1436 8.35017 4.96 8.40105C5.04632 8.23761 5.17968 8.13097 5.36 8.08105Z"
        fill="#8AA8C9" />
    <path opacity="0.804" fill-rule="evenodd" clip-rule="evenodd"
        d="M17.28 7.84094C17.2019 7.94614 17.1219 8.05278 17.04 8.16094C16.6958 8.3463 16.3758 8.55966 16.08 8.80094C16.4334 8.4207 16.8334 8.1007 17.28 7.84094Z"
        fill="#98B2D0" />
    <path opacity="0.859" fill-rule="evenodd" clip-rule="evenodd"
        d="M14.56 8.56104C14.6739 8.72224 14.7272 8.90888 14.72 9.12104C14.6061 8.95984 14.5528 8.7732 14.56 8.56104Z"
        fill="#88A7C9" />
    <path fill-rule="evenodd" clip-rule="evenodd"
        d="M16.08 8.80103C16.08 8.96103 16 9.04103 15.84 9.04103C15.8934 8.93439 15.9734 8.85439 16.08 8.80103Z"
        fill="#A0B8D3" />
    <path opacity="0.451" fill-rule="evenodd" clip-rule="evenodd"
        d="M11.12 9.20102C10.6441 9.1147 10.1641 9.10134 9.68 9.16102C9.31192 9.27974 8.93856 9.37302 8.56 9.44102C8.80776 9.29766 9.0744 9.17766 9.36 9.08102C9.65336 9.06766 9.94664 9.05438 10.24 9.04102C10.5652 9.0419 10.8586 9.09526 11.12 9.20102Z"
        fill="#90ACCC" />
    <path fill-rule="evenodd" clip-rule="evenodd"
        d="M22.4 9.12094C21.9171 9.10974 21.4371 9.13638 20.96 9.20094C20.9066 9.20094 20.8534 9.20094 20.8 9.20094C20.8667 9.1011 20.9734 9.04774 21.12 9.04094C21.3858 9.00542 21.6524 8.97878 21.92 8.96094C22.1162 8.96406 22.2762 9.01742 22.4 9.12094Z"
        fill="#B3C6DC" />
    <path fill-rule="evenodd" clip-rule="evenodd"
        d="M4.72 8.64099C4.37336 9.04099 4 9.41435 3.6 9.76099C3.6 9.73435 3.6 9.70763 3.6 9.68099C3.92472 9.27603 4.29808 8.92939 4.72 8.64099Z"
        fill="#93AFCE" />
    <path opacity="0.69" fill-rule="evenodd" clip-rule="evenodd"
        d="M11.12 9.20099C11.2422 9.19515 11.3222 9.24851 11.36 9.36099C11.2378 9.36683 11.1578 9.31347 11.12 9.20099Z"
        fill="#7397BF" />
    <path opacity="0.31" fill-rule="evenodd" clip-rule="evenodd"
        d="M22.56 9.12104C22.6822 9.1152 22.7622 9.16856 22.8 9.28104C22.6778 9.28688 22.5978 9.23352 22.56 9.12104Z"
        fill="#658DB9" />
    <path fill-rule="evenodd" clip-rule="evenodd"
        d="M15.84 9.04102C15.8034 9.22286 15.6968 9.3295 15.52 9.36102C15.5922 9.21374 15.6989 9.1071 15.84 9.04102Z"
        fill="#9FB7D3" />
    <path opacity="0.761" fill-rule="evenodd" clip-rule="evenodd"
        d="M22.8 9.28101C22.9866 9.30765 23.0934 9.41437 23.12 9.60101C22.9866 9.52101 22.88 9.41437 22.8 9.28101Z"
        fill="#7295BE" />
    <path opacity="0.506" fill-rule="evenodd" clip-rule="evenodd"
        d="M15.52 9.36096C15.4934 9.44096 15.44 9.49432 15.36 9.52096C15.36 9.41432 15.4134 9.36096 15.52 9.36096Z"
        fill="#698FBA" />
    <path opacity="0.337" fill-rule="evenodd" clip-rule="evenodd"
        d="M20.8 9.20101C20.8534 9.20101 20.9066 9.20101 20.96 9.20101C20.685 9.31661 20.3918 9.39661 20.08 9.44101C20.2765 9.25157 20.5165 9.17157 20.8 9.20101Z"
        fill="#6C92BC" />
    <path fill-rule="evenodd" clip-rule="evenodd"
        d="M25.92 8.32104C26.1629 8.67688 26.2962 9.07688 26.32 9.52105C26.1678 9.13456 26.0345 8.73456 25.92 8.32104Z"
        fill="#A4BBD5" />
    <path opacity="0.663" fill-rule="evenodd" clip-rule="evenodd"
        d="M11.36 9.36096C11.5157 9.40376 11.5957 9.5104 11.6 9.68096C11.4821 9.60608 11.4021 9.49936 11.36 9.36096Z"
        fill="#81A0C5" />
    <path fill-rule="evenodd" clip-rule="evenodd"
        d="M23.12 9.60095C23.3037 9.69959 23.4104 9.85959 23.44 10.081C23.4134 10.081 23.3866 10.081 23.36 10.081C23.2811 9.92687 23.2011 9.76687 23.12 9.60095Z"
        fill="#A0B7D3" />
    <path fill-rule="evenodd" clip-rule="evenodd"
        d="M11.6 9.68103C11.7975 9.76959 11.8775 9.92959 11.84 10.161C11.8134 10.161 11.7866 10.161 11.76 10.161C11.7223 9.99471 11.669 9.83471 11.6 9.68103Z"
        fill="#A6BCD6" />
    <path fill-rule="evenodd" clip-rule="evenodd"
        d="M15.36 9.521C15.36 9.681 15.28 9.761 15.12 9.761C15.1734 9.65436 15.2534 9.57436 15.36 9.521Z"
        fill="#A2BAD5" />
    <path opacity="0.706" fill-rule="evenodd" clip-rule="evenodd"
        d="M19.84 9.521C19.6195 9.65732 19.3795 9.76396 19.12 9.841C19.3118 9.64308 19.5518 9.53636 19.84 9.521Z"
        fill="#7B9DC3" />
    <path opacity="0.337" fill-rule="evenodd" clip-rule="evenodd"
        d="M8.32 9.521C8.07088 9.68436 7.80416 9.81772 7.52 9.921C7.73344 9.69772 8.00016 9.56436 8.32 9.521Z"
        fill="#779AC1" />
    <path fill-rule="evenodd" clip-rule="evenodd"
        d="M14.8 9.521C14.8586 9.62564 14.9253 9.73236 15 9.841C15.0306 9.79652 15.0706 9.76988 15.12 9.761C15.1045 9.95396 14.9978 10.034 14.8 10.001C14.8 9.841 14.8 9.681 14.8 9.521Z"
        fill="#89A7C9" />
    <path opacity="0.435" fill-rule="evenodd" clip-rule="evenodd"
        d="M7.52 9.92102C7.4028 10.02 7.26944 10.1 7.12 10.161C7.184 9.98174 7.31728 9.90174 7.52 9.92102Z"
        fill="#779AC1" />
    <path opacity="0.424" fill-rule="evenodd" clip-rule="evenodd"
        d="M18.96 9.92102C18.897 10.0493 18.7904 10.1027 18.64 10.081C18.7211 9.9871 18.8278 9.93382 18.96 9.92102Z"
        fill="#7196BE" />
    <path opacity="0.325" fill-rule="evenodd" clip-rule="evenodd"
        d="M26.32 9.521C26.4432 9.70804 26.4965 9.9214 26.48 10.161C26.3786 9.9686 26.3252 9.75524 26.32 9.521Z"
        fill="#628BB8" />
    <path opacity="0.38" fill-rule="evenodd" clip-rule="evenodd"
        d="M18.56 10.161C18.4673 10.301 18.3339 10.381 18.16 10.401C18.2527 10.261 18.3861 10.181 18.56 10.161Z"
        fill="#6E93BD" />
    <path opacity="0.451" fill-rule="evenodd" clip-rule="evenodd"
        d="M6.96 10.241C6.86728 10.381 6.73392 10.461 6.56 10.481C6.65272 10.341 6.78608 10.261 6.96 10.241Z"
        fill="#7397BF" />
    <path opacity="0.071" fill-rule="evenodd" clip-rule="evenodd"
        d="M23.36 10.0811C23.3866 10.0811 23.4134 10.0811 23.44 10.0811C23.4975 10.2622 23.5242 10.4488 23.52 10.6411C23.4061 10.4799 23.3528 10.2932 23.36 10.0811Z"
        fill="#5F87B5" />
    <path opacity="0.169" fill-rule="evenodd" clip-rule="evenodd"
        d="M6.48 10.561C6.41904 10.702 6.31232 10.782 6.16 10.801C6.22096 10.6601 6.32768 10.5801 6.48 10.561Z"
        fill="#5D86B5" />
    <path opacity="0.396" fill-rule="evenodd" clip-rule="evenodd"
        d="M17.84 10.641C17.8134 10.721 17.76 10.7744 17.68 10.801C17.68 10.6944 17.7334 10.641 17.84 10.641Z"
        fill="#769AC1" />
    <path opacity="0.365" fill-rule="evenodd" clip-rule="evenodd"
        d="M11.76 10.161C11.7866 10.161 11.8134 10.161 11.84 10.161C11.935 10.4367 11.9883 10.7301 12 11.041C11.8907 10.7641 11.8107 10.4709 11.76 10.161Z"
        fill="#6089B6" />
    <path opacity="0.071" fill-rule="evenodd" clip-rule="evenodd"
        d="M6.07999 10.881C6.01903 11.0219 5.91231 11.1019 5.75999 11.121C5.82095 10.98 5.92767 10.9 6.07999 10.881Z"
        fill="#5882B2" />
    <path opacity="0.043" fill-rule="evenodd" clip-rule="evenodd"
        d="M17.52 10.881C17.4952 11.0125 17.4152 11.0925 17.28 11.121C17.3048 10.9895 17.3848 10.9095 17.52 10.881Z"
        fill="#638AB7" />
    <path opacity="0.184" fill-rule="evenodd" clip-rule="evenodd"
        d="M17.2 11.201C17.139 11.342 17.0323 11.422 16.88 11.441C16.941 11.3001 17.0477 11.2201 17.2 11.201Z"
        fill="#678DB9" />
    <path opacity="0.157" fill-rule="evenodd" clip-rule="evenodd"
        d="M5.6 11.2809C5.56216 11.3934 5.48216 11.4468 5.36 11.4409C5.39784 11.3285 5.47784 11.2751 5.6 11.2809Z"
        fill="#648BB8" />
    <path opacity="0.549" fill-rule="evenodd" clip-rule="evenodd"
        d="M12 11.281C12.0266 11.281 12.0534 11.281 12.08 11.281C12.0537 16.0867 12.0803 20.8867 12.16 25.681C12.0003 20.9084 11.947 16.1084 12 11.281Z"
        fill="#7FA1C5" />
    <path opacity="0.071" fill-rule="evenodd" clip-rule="evenodd"
        d="M5.28 11.521C5.28 11.681 5.2 11.761 5.04 11.761C5.09336 11.6544 5.17336 11.5744 5.28 11.521Z"
        fill="#5883B2" />
    <path opacity="0.055" fill-rule="evenodd" clip-rule="evenodd"
        d="M16.8 11.521C16.8 11.681 16.72 11.761 16.56 11.761C16.6134 11.6544 16.6934 11.5744 16.8 11.521Z"
        fill="#5882B2" />
    <path fill-rule="evenodd" clip-rule="evenodd"
        d="M26.48 10.241C26.5458 10.5191 26.5858 10.8125 26.6 11.121C26.64 15.9742 26.6534 20.8275 26.64 25.681C25.68 25.681 24.72 25.681 23.76 25.681C23.76 25.6543 23.76 25.6276 23.76 25.601C24.681 25.6272 25.5877 25.6006 26.48 25.521C26.48 20.4276 26.48 15.3343 26.48 10.241Z"
        fill="#A7BED7" />
    <path opacity="0.663" fill-rule="evenodd" clip-rule="evenodd"
        d="M23.6 11.601C23.6266 11.601 23.6534 11.601 23.68 11.601C23.6534 16.2811 23.6801 20.9478 23.76 25.601C23.76 25.6276 23.76 25.6543 23.76 25.681C23.6003 21.015 23.547 16.3217 23.6 11.601Z"
        fill="#8EACCB" />
    <path fill-rule="evenodd" clip-rule="evenodd"
        d="M23.68 11.601C23.7599 16.2274 23.7866 20.8674 23.76 25.521C24.6666 25.521 25.5734 25.521 26.48 25.521C25.5877 25.6006 24.681 25.6272 23.76 25.601C23.6801 20.9478 23.6534 16.2811 23.68 11.601Z"
        fill="#E1E9F1" />
    <path opacity="0.071" fill-rule="evenodd" clip-rule="evenodd"
        d="M16.4 11.921C16.4058 12.0432 16.3525 12.1232 16.24 12.161C16.2342 12.0389 16.2875 11.9589 16.4 11.921Z"
        fill="#5983B3" />
    <path opacity="0.212" fill-rule="evenodd" clip-rule="evenodd"
        d="M16.16 12.241C16.1066 12.3476 16.0266 12.4276 15.92 12.481C15.92 12.321 16 12.241 16.16 12.241Z"
        fill="#6B91BB" />
    <path opacity="0.071" fill-rule="evenodd" clip-rule="evenodd"
        d="M4.56 12.241C4.56 12.401 4.48 12.481 4.32 12.481C4.37336 12.3743 4.45336 12.2943 4.56 12.241Z"
        fill="#5B85B4" />
    <path opacity="0.239" fill-rule="evenodd" clip-rule="evenodd"
        d="M4.24 12.641C4.18664 12.7476 4.10664 12.8276 4 12.881C4 12.721 4.08 12.641 4.24 12.641Z"
        fill="#6C92BC" />
    <path opacity="0.114" fill-rule="evenodd" clip-rule="evenodd"
        d="M15.76 12.641C15.741 12.7933 15.661 12.9 15.52 12.961C15.539 12.8087 15.619 12.702 15.76 12.641Z"
        fill="#5C85B4" />
    <path opacity="0.098" fill-rule="evenodd" clip-rule="evenodd"
        d="M3.84 13.041C3.84584 13.1632 3.79248 13.2432 3.68 13.281C3.67416 13.1589 3.72752 13.0789 3.84 13.041Z"
        fill="#5D86B5" />
    <path opacity="0.016" fill-rule="evenodd" clip-rule="evenodd"
        d="M3.59999 13.361C3.54703 17.4221 3.49367 21.4754 3.43999 25.521C3.43999 21.521 3.43999 17.521 3.43999 13.521C3.43999 13.4143 3.49335 13.361 3.59999 13.361Z"
        fill="#336AA3" />
    <path fill-rule="evenodd" clip-rule="evenodd"
        d="M12.08 11.281C12.1599 16.0141 12.1866 20.7608 12.16 25.521C13.0666 25.521 13.9734 25.521 14.88 25.521C14.8534 21.5075 14.8801 17.5075 14.96 13.521C14.96 17.5744 14.96 21.6276 14.96 25.681C14.0266 25.681 13.0934 25.681 12.16 25.681C12.0803 20.8867 12.0537 16.0867 12.08 11.281Z"
        fill="#D5E1EC" />
    <path opacity="0.478" fill-rule="evenodd" clip-rule="evenodd"
        d="M15.28 13.201C15.2652 13.3367 15.1985 13.4434 15.08 13.521C15.0666 17.5878 15.0266 21.6412 14.96 25.681C14.96 21.6277 14.96 17.5744 14.96 13.521C15.04 13.3877 15.1466 13.281 15.28 13.201Z"
        fill="#7398C0" />
    <path opacity="0.886" fill-rule="evenodd" clip-rule="evenodd"
        d="M3.44 13.521C3.44 17.521 3.44 21.521 3.44 25.521C2.9764 25.6274 2.48304 25.6807 1.96 25.681C1.45259 25.681 0.959252 25.6543 0.479996 25.601C1.45426 25.6272 2.41424 25.6006 3.36 25.521C3.33344 21.5075 3.36008 17.5075 3.44 13.521Z"
        fill="#9CB7D2" />
    <path opacity="0.718" fill-rule="evenodd" clip-rule="evenodd"
        d="M30.7598 9.52099C30.7102 9.52987 30.6702 9.55651 30.6398 9.60099C30.5782 9.49307 30.4846 9.42643 30.3598 9.40099C29.8774 9.34971 29.3974 9.36307 28.9198 9.44099C29.1886 9.31787 29.4822 9.26451 29.7998 9.28099C30.0134 9.29435 30.2262 9.30763 30.4398 9.32099C30.5854 9.33699 30.6918 9.40371 30.7598 9.52099Z"
        fill="#779AC1" />
    <path fill-rule="evenodd" clip-rule="evenodd"
        d="M30.7598 9.521C30.7862 9.521 30.8134 9.521 30.8398 9.521C30.923 9.68348 31.0566 9.79012 31.2398 9.841C31.259 9.99332 31.339 10.1 31.4798 10.161C31.4998 10.3584 31.5798 10.5184 31.7198 10.641C31.763 10.7704 31.7894 10.9037 31.7998 11.041C31.7902 11.3098 31.7638 11.5764 31.7198 11.841C31.7414 11.9689 31.7142 12.0756 31.6398 12.161C31.5254 12.2634 31.4718 12.3968 31.4798 12.561C31.4534 12.641 31.3998 12.6944 31.3198 12.721C31.2134 12.7744 31.1334 12.8544 31.0798 12.961C31.0798 13.0144 31.0534 13.041 30.9998 13.041C30.8774 13.0352 30.7974 13.0885 30.7598 13.201C30.6886 13.2498 30.6086 13.2764 30.5198 13.281C30.0134 13.3876 29.5062 13.3876 28.9998 13.281C28.8678 13.2682 28.7606 13.2149 28.6798 13.121C28.5934 12.954 28.4598 12.8474 28.2798 12.801C28.1998 12.7744 28.1462 12.721 28.1198 12.641C28.139 12.4383 28.059 12.305 27.8798 12.241C27.8782 12.0758 27.8518 11.9158 27.7998 11.761C27.7894 11.3048 27.8166 10.8514 27.8798 10.401C27.8798 10.3476 27.9062 10.321 27.9598 10.321C28.1062 10.1892 28.2126 10.0292 28.2798 9.841C28.455 9.7466 28.6422 9.6666 28.8398 9.601C28.9038 9.56444 28.9302 9.51108 28.9198 9.441C29.3974 9.36308 29.8774 9.34972 30.3598 9.401C30.4846 9.42644 30.5782 9.49308 30.6398 9.601C30.6702 9.55652 30.7102 9.52988 30.7598 9.521Z"
        fill="#FCFDFD" />
    <path fill-rule="evenodd" clip-rule="evenodd"
        d="M28.9198 9.44104C28.9302 9.51112 28.9038 9.56448 28.8398 9.60104C28.6422 9.66664 28.455 9.74664 28.2798 9.84104C28.4382 9.62792 28.6518 9.49456 28.9198 9.44104Z"
        fill="#97B0CF" />
    <path opacity="0.973" fill-rule="evenodd" clip-rule="evenodd"
        d="M30.8398 9.521C31.0198 9.57092 31.1534 9.67756 31.2398 9.841C31.0566 9.79012 30.923 9.68348 30.8398 9.521Z"
        fill="#81A1C5" />
    <path opacity="0.945" fill-rule="evenodd" clip-rule="evenodd"
        d="M28.2798 9.84094C28.2126 10.0292 28.1062 10.1892 27.9598 10.3209C27.987 10.1051 28.0942 9.9451 28.2798 9.84094Z"
        fill="#8BA9CA" />
    <path opacity="0.886" fill-rule="evenodd" clip-rule="evenodd"
        d="M31.2398 9.84094C31.3806 9.9019 31.4606 10.0086 31.4798 10.1609C31.339 10.1 31.259 9.99326 31.2398 9.84094Z"
        fill="#81A1C6" />
    <path opacity="0.718" fill-rule="evenodd" clip-rule="evenodd"
        d="M31.4798 10.161C31.6198 10.2837 31.6998 10.4437 31.7198 10.641C31.5798 10.5184 31.4998 10.3584 31.4798 10.161Z"
        fill="#85A5C8" />
    <path fill-rule="evenodd" clip-rule="evenodd"
        d="M27.8798 10.401C27.8166 10.8514 27.7894 11.3048 27.7998 11.761C27.7734 11.761 27.7462 11.761 27.7198 11.761C27.5894 11.28 27.6422 10.8266 27.8798 10.401Z"
        fill="#8DAACB" />
    <path opacity="0.663" fill-rule="evenodd" clip-rule="evenodd"
        d="M31.7998 11.041C31.9086 11.3177 31.8822 11.5844 31.7198 11.841C31.7638 11.5765 31.7902 11.3098 31.7998 11.041Z"
        fill="#698EBA" />
    <path opacity="0.071" fill-rule="evenodd" clip-rule="evenodd"
        d="M27.7198 11.761C27.7462 11.761 27.7734 11.761 27.7998 11.761C27.8518 11.9158 27.8782 12.0758 27.8798 12.241C27.7542 12.1128 27.7006 11.9528 27.7198 11.761Z"
        fill="#6189B7" />
    <path fill-rule="evenodd" clip-rule="evenodd"
        d="M27.8798 12.241C28.059 12.305 28.139 12.4382 28.1198 12.641C27.9958 12.5395 27.9158 12.4062 27.8798 12.241Z"
        fill="#A4BBD5" />
    <path opacity="0.396" fill-rule="evenodd" clip-rule="evenodd"
        d="M31.6398 12.161C31.6478 12.3253 31.5942 12.4586 31.4798 12.561C31.4718 12.3968 31.5254 12.2634 31.6398 12.161Z"
        fill="#6C92BC" />
    <path fill-rule="evenodd" clip-rule="evenodd"
        d="M28.2798 12.801C28.4598 12.8474 28.5934 12.9541 28.6798 13.121C28.4998 13.0746 28.3662 12.968 28.2798 12.801Z"
        fill="#99B3D0" />
    <path opacity="0.016" fill-rule="evenodd" clip-rule="evenodd"
        d="M31.3198 12.7209C31.3198 12.8809 31.2398 12.9609 31.0798 12.9609C31.1334 12.8543 31.2134 12.7743 31.3198 12.7209Z"
        fill="#5580B1" />
    <path opacity="0.114" fill-rule="evenodd" clip-rule="evenodd"
        d="M30.9998 13.041C30.9622 13.1534 30.8822 13.2068 30.7598 13.201C30.7974 13.0885 30.8774 13.0351 30.9998 13.041Z"
        fill="#5E87B5" />
    <path opacity="0.353" fill-rule="evenodd" clip-rule="evenodd"
        d="M28.9998 13.281C29.5062 13.3876 30.0134 13.3876 30.5198 13.281C30.4862 13.3388 30.4334 13.3788 30.3598 13.401C30.1734 13.4144 29.9862 13.4276 29.7998 13.441C29.5086 13.4558 29.2422 13.4025 28.9998 13.281Z"
        fill="#678EBA" />
    <path opacity="0.157" fill-rule="evenodd" clip-rule="evenodd"
        d="M30.5198 21.921C30.039 21.8183 29.559 21.8183 29.0798 21.921C29.0886 21.8716 29.115 21.8316 29.1598 21.801C29.5598 21.7476 29.9598 21.7476 30.3598 21.801C30.4334 21.8232 30.4862 21.8632 30.5198 21.921Z"
        fill="#5F89B6" />
    <path fill-rule="evenodd" clip-rule="evenodd"
        d="M30.5198 21.921C30.5462 21.921 30.5734 21.921 30.5998 21.921C30.8838 22.0966 31.1502 22.3099 31.3998 22.561C31.4774 22.769 31.5838 22.9558 31.7198 23.121C31.9326 23.5758 31.9326 24.0291 31.7198 24.481C31.5638 24.6266 31.4838 24.8134 31.4798 25.041C31.4534 25.121 31.3998 25.1744 31.3198 25.201C31.1862 25.281 31.0798 25.3877 30.9998 25.521C30.7558 25.5777 30.5422 25.6843 30.3598 25.841C29.9286 25.8597 29.5014 25.833 29.0798 25.761C28.9254 25.6175 28.739 25.5375 28.5198 25.521C28.3886 25.4962 28.3086 25.4162 28.2798 25.281C28.2534 25.201 28.1998 25.1477 28.1198 25.121C27.9798 25.0283 27.8998 24.895 27.8798 24.721C27.8782 24.5558 27.8518 24.3958 27.7998 24.241C27.7998 23.9477 27.7998 23.6544 27.7998 23.361C27.8534 23.1744 27.9062 22.9877 27.9598 22.801C27.9462 22.7217 27.9726 22.6684 28.0398 22.641C28.1998 22.5344 28.3334 22.401 28.4398 22.241C28.6374 22.1772 28.7974 22.0706 28.9198 21.921C28.9734 21.921 29.0262 21.921 29.0798 21.921C29.559 21.8183 30.039 21.8183 30.5198 21.921Z"
        fill="#FBFCFD" />
    <path opacity="0.663" fill-rule="evenodd" clip-rule="evenodd"
        d="M28.9198 21.921C28.7974 22.0705 28.6374 22.1772 28.4398 22.241C28.5438 22.0553 28.7038 21.9486 28.9198 21.921Z"
        fill="#89A7C9" />
    <path opacity="0.408" fill-rule="evenodd" clip-rule="evenodd"
        d="M30.5998 21.921C30.9878 21.9898 31.255 22.2032 31.3998 22.561C31.1502 22.3099 30.8838 22.0965 30.5998 21.921Z"
        fill="#789AC1" />
    <path opacity="0.675" fill-rule="evenodd" clip-rule="evenodd"
        d="M28.4398 22.241C28.3334 22.401 28.1998 22.5343 28.0398 22.641C28.0934 22.4276 28.2262 22.2943 28.4398 22.241Z"
        fill="#7396BF" />
    <path opacity="0.604" fill-rule="evenodd" clip-rule="evenodd"
        d="M31.3998 22.561C31.595 22.6907 31.7022 22.8774 31.7198 23.121C31.5838 22.9558 31.4774 22.769 31.3998 22.561Z"
        fill="#82A2C6" />
    <path opacity="0.522" fill-rule="evenodd" clip-rule="evenodd"
        d="M27.9598 22.801C27.9062 22.9877 27.8534 23.1744 27.7998 23.361C27.7734 23.361 27.7462 23.361 27.7198 23.361C27.6934 23.1217 27.7734 22.9351 27.9598 22.801Z"
        fill="#6F94BD" />
    <path fill-rule="evenodd" clip-rule="evenodd"
        d="M27.7198 23.361C27.7462 23.361 27.7734 23.361 27.7998 23.361C27.7998 23.6543 27.7998 23.9476 27.7998 24.241C27.7734 24.241 27.7462 24.241 27.7198 24.241C27.6134 23.9476 27.6134 23.6543 27.7198 23.361Z"
        fill="#96B1CF" />
    <path opacity="0.424" fill-rule="evenodd" clip-rule="evenodd"
        d="M27.7198 24.241C27.7462 24.241 27.7734 24.241 27.7998 24.241C27.8518 24.3958 27.8782 24.5558 27.8798 24.721C27.7542 24.5928 27.7006 24.4328 27.7198 24.241Z"
        fill="#6D92BC" />
    <path opacity="0.494" fill-rule="evenodd" clip-rule="evenodd"
        d="M31.7198 24.481C31.6854 24.6935 31.6054 24.8802 31.4798 25.041C31.4838 24.8133 31.5638 24.6266 31.7198 24.481Z"
        fill="#81A1C5" />
    <path opacity="0.016" fill-rule="evenodd" clip-rule="evenodd"
        d="M28.1198 25.121C28.1998 25.1476 28.2534 25.201 28.2798 25.281C28.1734 25.281 28.1198 25.2276 28.1198 25.121Z"
        fill="#5B85B4" />
    <path opacity="0.141" fill-rule="evenodd" clip-rule="evenodd"
        d="M31.3198 25.201C31.2934 25.3877 31.1862 25.4944 30.9998 25.521C31.0798 25.3877 31.1862 25.281 31.3198 25.201Z"
        fill="#628AB7" />
    <path fill-rule="evenodd" clip-rule="evenodd"
        d="M28.5198 25.521C28.739 25.5375 28.9254 25.6175 29.0798 25.761C29.0262 25.761 28.9734 25.761 28.9198 25.761C28.7654 25.7122 28.6318 25.6322 28.5198 25.521Z"
        fill="#AFC3DA" />
    <path fill-rule="evenodd" clip-rule="evenodd"
        d="M30.9998 25.521C30.8414 25.732 30.6278 25.8386 30.3598 25.841C30.5422 25.6843 30.7558 25.5776 30.9998 25.521Z"
        fill="#88A4C8" />
    <path opacity="0.733" fill-rule="evenodd" clip-rule="evenodd"
        d="M28.9198 25.761C28.9734 25.761 29.0262 25.761 29.0798 25.761C29.5014 25.833 29.9286 25.8596 30.3598 25.841C30.175 25.8941 29.975 25.9207 29.7598 25.921C29.4558 25.9367 29.1758 25.8834 28.9198 25.761Z"
        fill="#83A4C7" />
</svg>