<svg width="32" height="32" viewBox="0 0 32 32" fill="none" xmlns="http://www.w3.org/2000/svg">
    <path
        d="M26.5779 9.61789C26.5634 9.60544 26.5454 9.61255 26.5309 9.59833V3.55566H5.59488V9.59655C5.58043 9.61078 5.55875 9.60544 5.5461 9.61789C4.39162 10.7539 3.74121 12.2934 3.74121 13.8988C3.74121 15.5059 4.39162 17.0454 5.5461 18.1814C5.55875 18.1939 5.58043 18.1886 5.59488 18.2028V23.3192H13.0367V28.8908L17.9057 23.3192H26.5309V18.201C26.5454 18.1868 26.567 18.1921 26.5797 18.1797C27.736 17.0437 28.3828 15.5041 28.3828 13.8988C28.3828 12.2917 27.7324 10.7521 26.5779 9.61789Z"
        fill="#E65320" />
    <path
        d="M8.70257 11.0898C9.28433 11.0898 9.75768 11.5556 9.75768 12.1281V15.577C9.75768 16.1494 9.28433 16.6152 8.70257 16.6152C8.12082 16.6152 7.64746 16.1494 7.64746 15.577V12.1281C7.64746 11.5556 8.12082 11.0898 8.70257 11.0898Z"
        fill="white" />
    <path
        d="M23.5356 11.0898C24.1173 11.0898 24.5907 11.5556 24.5907 12.1281V15.577C24.5907 16.1494 24.1173 16.6152 23.5356 16.6152C22.9538 16.6152 22.4805 16.1494 22.4805 15.577V12.1281C22.4805 11.5556 22.9538 11.0898 23.5356 11.0898Z"
        fill="white" />
    <path
        d="M12.4102 9.1875C12.992 9.1875 13.4654 9.65328 13.4654 10.2257V17.4791C13.4654 18.0515 12.992 18.5173 12.4102 18.5173C11.8285 18.5173 11.3569 18.0515 11.3569 17.4791V10.2257C11.3569 9.65328 11.8285 9.1875 12.4102 9.1875Z"
        fill="white" />
    <path
        d="M19.8267 9.1875C20.4103 9.1875 20.8819 9.65328 20.8819 10.2257V17.4791C20.8819 18.0515 20.4103 18.5173 19.8267 18.5173C19.245 18.5173 18.7734 18.0515 18.7734 17.4791V10.2257C18.7734 9.65328 19.245 9.1875 19.8267 9.1875Z"
        fill="white" />
    <path
        d="M16.1191 7.09863C16.7008 7.09863 17.1742 7.56263 17.1742 8.13508V19.5697C17.1742 20.1422 16.7008 20.6062 16.1191 20.6062C15.5373 20.6062 15.064 20.1422 15.064 19.5697V8.13508C15.064 7.56263 15.5373 7.09863 16.1191 7.09863Z"
        fill="white" />
    <path
        d="M27.9965 20.1403C27.8159 19.9643 27.7129 19.7243 27.7129 19.4736C27.7129 19.223 27.8159 18.983 27.9965 18.807C30.7716 16.0692 30.7716 11.639 27.9965 8.9012C27.6244 8.5332 27.6244 7.93764 27.9965 7.56787C28.3705 7.19987 28.9758 7.19809 29.3516 7.56253C31.0462 9.23009 32.0002 11.4932 32.0002 13.8523C32.0002 16.2096 31.0462 18.4728 29.3516 20.1403C29.1709 20.3163 28.927 20.4159 28.6722 20.4159C28.4193 20.4159 28.1754 20.3163 27.9965 20.1403Z"
        fill="#414142" />
    <path
        d="M4.00365 7.56437C4.18432 7.74037 4.28549 7.98037 4.28549 8.23104C4.28549 8.48171 4.18432 8.72171 4.00365 8.89771C1.22856 11.6355 1.22856 16.0657 4.00365 18.8035C4.37583 19.1715 4.37583 19.767 4.00184 20.1368C3.62966 20.5048 3.02442 20.5066 2.64863 20.1422C0.952136 18.4746 0 16.2115 0 13.8524C0 11.495 0.952136 9.23193 2.64863 7.56437C2.8293 7.38837 3.0732 7.28882 3.32614 7.28882C3.58088 7.28882 3.82298 7.38837 4.00365 7.56437Z"
        fill="#414142" />
</svg>