<svg width="32" height="32" viewBox="0 0 32 32" fill="none" xmlns="http://www.w3.org/2000/svg">
<g clip-path="url(#clip0_3169_561)">
<rect width="32" height="32" fill="#FAFAFA"/>
<path opacity="0.979" fill-rule="evenodd" clip-rule="evenodd" d="M12.8383 -0.0380859C17.5874 -0.0380859 22.3367 -0.0380859 27.0859 -0.0380859C27.7724 0.178597 28.2168 0.63574 28.4192 1.33334C28.47 11.0857 28.47 20.8381 28.4192 30.5905C28.203 31.3134 27.7332 31.7705 27.0097 31.9619C19.5938 31.9619 12.1779 31.9619 4.76207 31.9619C4.09733 31.7932 3.62748 31.3868 3.35255 30.7429C3.30175 23.6825 3.30175 16.6223 3.35255 9.56191C3.41037 9.31163 3.51196 9.08306 3.65731 8.8762C6.46366 6.01906 9.27004 3.16191 12.0764 0.304771C12.3349 0.18134 12.5888 0.0670548 12.8383 -0.0380859ZM13.6764 2.17144C17.486 2.15874 21.2955 2.17144 25.1049 2.20953C25.6271 2.32505 26.0208 2.61711 26.2859 3.08572C26.4124 11.5894 26.4378 20.0973 26.3621 28.6095C26.1154 29.2626 25.6456 29.6308 24.9525 29.7143C18.8827 29.7651 12.8129 29.7651 6.74303 29.7143C5.96818 29.588 5.49834 29.1436 5.3335 28.381C5.29541 22.6159 5.28271 16.8508 5.29541 11.0857C7.6244 11.0946 9.96093 11.082 12.3049 11.0476C12.9328 10.9951 13.3519 10.6776 13.5621 10.0952C13.5753 7.44854 13.6134 4.80727 13.6764 2.17144Z" fill="#686A6B"/>
<path opacity="0.977" fill-rule="evenodd" clip-rule="evenodd" d="M17.5621 4.91406C19.1621 4.91406 20.7621 4.91406 22.3621 4.91406C20.293 12.2508 18.2358 19.5906 16.1906 26.9331C14.5644 26.9585 12.9391 26.9331 11.3145 26.8569C13.4209 19.5485 15.5034 12.2342 17.5621 4.91406Z" fill="#686A6B"/>
</g>
<defs>
<clipPath id="clip0_3169_561">
<rect width="32" height="32" fill="white"/>
</clipPath>
</defs>
</svg>
