<svg width="32" height="32" viewBox="0 0 32 32" fill="none" xmlns="http://www.w3.org/2000/svg">
    <g clip-path="url(#clip0_3663_302)">
        <path fill-rule="evenodd" clip-rule="evenodd"
            d="M-0.0839844 -0.0839844C4.38374 -0.0839844 8.85144 -0.0839844 13.3192 -0.0839844C6.09696 1.6261 1.62925 6.09381 -0.0839844 13.3192C-0.0839844 8.85144 -0.0839844 4.38374 -0.0839844 -0.0839844Z"
            fill="#DCDCDC" />
        <path fill-rule="evenodd" clip-rule="evenodd"
            d="M13.3192 -0.0839844C14.9387 -0.0839844 16.5582 -0.0839844 18.1778 -0.0839844C20.6145 0.292339 22.8483 1.18588 24.8794 2.59664C24.9775 2.56158 25.0613 2.50574 25.1307 2.4291C25.8712 3.24874 26.7369 4.0306 27.7275 4.77465C26.9971 5.61689 26.2152 6.39875 25.382 7.1202C21.6611 3.32271 17.1933 2.12202 11.9788 3.51811C5.70002 5.9967 2.68432 10.604 2.93172 17.3401C3.11109 18.6032 3.50201 19.8317 4.1045 21.026C2.78637 21.8245 1.3902 22.4946 -0.0839844 23.0364C-0.0839844 19.7974 -0.0839844 16.5582 -0.0839844 13.3192C1.62925 6.09381 6.09696 1.6261 13.3192 -0.0839844Z"
            fill="#E3E3E3" />
        <path fill-rule="evenodd" clip-rule="evenodd"
            d="M18.1782 -0.0839844C20.8589 -0.0839844 23.5395 -0.0839844 26.2201 -0.0839844C27.3999 0.786071 28.5169 1.73546 29.5709 2.76418C28.9518 3.43868 28.3375 4.10884 27.728 4.77465C26.7373 4.0306 25.8716 3.24874 25.1311 2.4291C25.0617 2.50574 24.978 2.56158 24.8798 2.59664C22.8487 1.18588 20.6149 0.292339 18.1782 -0.0839844Z"
            fill="#DDDDDD" />
        <path fill-rule="evenodd" clip-rule="evenodd"
            d="M26.2197 -0.0839844C28.1184 -0.0839844 30.0173 -0.0839844 31.9161 -0.0839844C31.9161 1.81479 31.9161 3.71358 31.9161 5.61235C31.5369 5.00872 31.0901 4.45026 30.5757 3.93696C30.1314 4.54876 29.6288 5.10722 29.0679 5.61235C29.4304 4.7746 29.8773 3.99275 30.4082 3.2668C30.6681 2.88484 30.8916 2.466 31.0784 2.01026C31.0221 1.83771 30.9103 1.75394 30.7433 1.75895C30.7652 1.63515 30.7373 1.52346 30.6595 1.42387C30.3192 1.90224 29.9564 2.34902 29.5705 2.76418C28.5165 1.73546 27.3995 0.786071 26.2197 -0.0839844Z"
            fill="#F0F0F1" />
        <path fill-rule="evenodd" clip-rule="evenodd"
            d="M30.7433 1.759C30.9104 1.75399 31.0221 1.83776 31.0784 2.01031C30.8916 2.46605 30.6681 2.8849 30.4083 3.26685C30.448 3.05056 30.3922 2.88302 30.2407 2.76424C30.3463 2.38734 30.5138 2.05226 30.7433 1.759Z"
            fill="#F0F0F1" />
        <path fill-rule="evenodd" clip-rule="evenodd"
            d="M25.3823 7.1201C24.4953 7.84432 23.6019 8.57032 22.7017 9.29811C22.5839 8.92689 22.3606 8.61974 22.0315 8.37664C18.0265 5.58968 13.9497 5.58968 9.80115 8.37664C6.43046 11.5564 5.48108 15.2702 6.95298 19.518C6.03141 20.0627 5.08202 20.5653 4.10481 21.0259C3.50232 19.8316 3.1114 18.6031 2.93204 17.34C2.68463 10.6039 5.70034 5.9966 11.9792 3.51801C17.1937 2.12192 21.6614 3.3226 25.3823 7.1201Z"
            fill="#EAEAEA" />
        <path fill-rule="evenodd" clip-rule="evenodd"
            d="M30.7432 1.75891C30.5137 2.05217 30.3462 2.38725 30.2406 2.76414C29.1593 4.82451 27.9028 6.77912 26.471 8.62802C22.7104 12.8932 18.4939 16.607 13.8218 19.7694C10.5723 21.896 7.27732 23.9344 3.93696 25.8846C2.59664 26.5547 1.25633 27.2249 -0.0839844 27.895C-0.0839844 26.2754 -0.0839844 24.656 -0.0839844 23.0364C1.3902 22.4946 2.78637 21.8244 4.1045 21.0259C5.0817 20.5654 6.0311 20.0627 6.95266 19.5181C7.79581 19.1532 8.57765 18.7063 9.29821 18.1778C13.3455 16.0151 17.1989 13.5578 20.8584 10.806C21.5256 10.3617 22.1399 9.85913 22.7014 9.29817C23.6015 8.57038 24.495 7.84439 25.382 7.12016C26.2152 6.39871 26.9971 5.61685 27.7275 4.77461C28.337 4.1088 28.9514 3.43864 29.5705 2.76414C29.9563 2.34898 30.3192 1.9022 30.6595 1.42383C30.7372 1.52342 30.7652 1.63511 30.7432 1.75891Z"
            fill="#D9A52B" />
        <path fill-rule="evenodd" clip-rule="evenodd"
            d="M22.7015 9.2988C22.1401 9.85975 21.5257 10.3624 20.8586 10.8067C20.2789 10.2882 19.6925 9.89723 19.0994 9.63388C19.0463 9.33217 18.9346 9.27633 18.7643 9.46634C18.541 9.35464 18.3735 9.1871 18.2617 8.96372C17.9746 9.20255 17.7512 9.14671 17.5916 8.79618C16.6835 8.81386 15.79 8.81386 14.9109 8.79618C14.5633 9.15611 14.1724 9.21196 13.7382 8.96372C13.0201 9.45506 12.2941 9.95768 11.5601 10.4716C11.5043 10.4157 11.4484 10.3599 11.3926 10.304C10.555 11.3103 9.8011 12.3714 9.13083 13.4873C9.20119 14.0212 9.08949 14.5518 8.79575 15.0789C9.07056 15.5855 9.0147 16.0322 8.62821 16.4192C8.97483 16.4735 9.03069 16.6131 8.79575 16.8381C9.0303 17.2628 9.19784 17.7096 9.29837 18.1784C8.5778 18.707 7.79596 19.1538 6.95282 19.5187C5.48092 15.2709 6.43029 11.5571 9.80098 8.37733C13.9496 5.59037 18.0263 5.59037 22.0313 8.37733C22.3604 8.62043 22.5837 8.92758 22.7015 9.2988Z"
            fill="#F1F0F0" />
        <path fill-rule="evenodd" clip-rule="evenodd"
            d="M31.9164 5.61289C31.9164 10.0248 31.9164 14.4366 31.9164 18.8485C31.0747 22.5613 29.2317 25.6608 26.3876 28.1469C26.3318 28.1749 26.2759 28.2027 26.2201 28.2307C26.1081 27.7606 25.9966 27.3139 25.885 26.8904C25.8235 26.054 25.6002 25.2721 25.2148 24.5448C25.5472 24.5644 25.8263 24.4527 26.0525 24.2098C28.8571 20.3181 29.5551 16.0181 28.1468 11.3092C27.9677 11.7629 27.7721 12.2097 27.5604 12.6495C27.4838 12.7832 27.3721 12.839 27.2253 12.8171C27.5812 12.1397 27.8046 11.4137 27.8955 10.6391C27.9067 10.3947 27.8509 10.1713 27.7279 9.96891C27.7529 9.79266 27.7251 9.62512 27.6441 9.4663C26.9133 10.7085 26.1035 11.8813 25.2148 12.9846C25.0362 12.5905 24.8407 12.1996 24.6284 11.8118C24.4393 12.0868 24.188 12.2544 23.8745 12.3145C24.7122 11.3092 25.5499 10.304 26.3876 9.29876C27.0003 8.60221 27.6426 7.93206 28.3143 7.28829C28.708 6.78114 28.9593 6.22269 29.0682 5.61289C29.6292 5.10776 30.1318 4.5493 30.5761 3.9375C31.0904 4.45081 31.5373 5.00927 31.9164 5.61289Z"
            fill="#F0F0F1" />
        <path fill-rule="evenodd" clip-rule="evenodd"
            d="M29.0678 5.6123C28.9589 6.2221 28.7076 6.78056 28.3139 7.2877C27.6422 7.93147 26.9999 8.60162 26.3872 9.29817C27.2172 8.02174 28.1107 6.79312 29.0678 5.6123Z"
            fill="#F0F0F1" />
        <path fill-rule="evenodd" clip-rule="evenodd"
            d="M20.8588 10.8064C17.1992 13.5582 13.3459 16.0154 9.29858 18.1781C9.19805 17.7093 9.03051 17.2625 8.79596 16.8378C9.0309 16.6129 8.97504 16.4733 8.62842 16.4189C9.01491 16.032 9.07077 15.5852 8.79596 15.0786C9.0897 14.5515 9.2014 14.021 9.13104 13.487C9.80131 12.3711 10.5552 11.31 11.3928 10.3038C11.4487 10.3596 11.5045 10.4155 11.5604 10.4713C12.2943 9.9574 13.0204 9.45478 13.7384 8.96344C14.1726 9.21168 14.5635 9.15582 14.9111 8.7959C15.7902 8.81357 16.6838 8.81357 17.5918 8.7959C17.7514 9.14642 17.9748 9.20226 18.2619 8.96344C18.3737 9.18682 18.5412 9.35436 18.7645 9.46606C18.9348 9.27605 19.0465 9.33189 19.0996 9.63359C19.6927 9.89695 20.2791 10.2879 20.8588 10.8064Z"
            fill="#F7F7F6" />
        <path fill-rule="evenodd" clip-rule="evenodd"
            d="M27.7276 9.96844C25.9764 15.3111 23.0723 19.9464 19.0155 23.8742C19.0155 23.93 19.0155 23.9859 19.0155 24.0417C15.9853 26.7937 12.8579 29.4184 9.63331 31.9161C6.84098 31.9161 4.04867 31.9161 1.25635 31.9161C2.93174 30.8551 4.60713 29.7939 6.28253 28.7328C8.37405 27.6447 10.3287 26.3601 12.1464 24.8794C17.131 21.627 21.487 17.6618 25.2145 12.9841C26.1031 11.8808 26.913 10.708 27.6438 9.46582C27.7247 9.62465 27.7525 9.79219 27.7276 9.96844Z"
            fill="#2A2C75" />
        <path opacity="0.996" fill-rule="evenodd" clip-rule="evenodd"
            d="M27.7277 9.96875C27.8506 10.1711 27.9064 10.3945 27.8952 10.6389C27.3557 12.1089 26.7136 13.5609 25.9685 14.9949C25.8864 15.2116 25.8584 15.435 25.8847 15.6651C25.2722 16.2185 24.8256 16.8886 24.5444 17.6756C24.2385 17.9515 24.015 18.2866 23.8743 18.6808C23.2991 19.2003 22.8523 19.8147 22.5339 20.5237C21.9328 20.986 21.4024 21.5444 20.9423 22.1991C20.3678 22.8591 19.7255 23.4175 19.0156 23.8745C23.0724 19.9467 25.9765 15.3114 27.7277 9.96875Z"
            fill="#F0F0F1" />
        <path fill-rule="evenodd" clip-rule="evenodd"
            d="M25.2149 12.9843C21.4875 17.662 17.1314 21.6271 12.1468 24.8796C11.2828 24.4751 10.501 23.9445 9.80127 23.288C10.1898 23.0958 10.4132 22.7885 10.4714 22.3665C10.8281 21.956 11.2749 21.6767 11.8117 21.5288C12.7038 21.4177 13.374 20.9709 13.8222 20.1885C15.7684 18.7478 17.723 17.2958 19.6861 15.8325C20.0935 15.623 20.4846 15.3717 20.8589 15.0785C21.8882 14.189 22.8935 13.2675 23.8746 12.3141C24.188 12.254 24.4393 12.0865 24.6285 11.8115C24.8408 12.1993 25.0363 12.5902 25.2149 12.9843Z"
            fill="#F0F0F1" />
        <path fill-rule="evenodd" clip-rule="evenodd"
            d="M26.3876 9.29883C25.5499 10.3041 24.7122 11.3093 23.8745 12.3145C22.8934 13.2679 21.8882 14.1894 20.8588 15.0789C20.4845 15.3721 20.0935 15.6234 19.686 15.8329C22.0299 13.7683 24.2637 11.5903 26.3876 9.29883Z"
            fill="#F0F0F1" />
        <path fill-rule="evenodd" clip-rule="evenodd"
            d="M27.8955 10.6387C27.8047 11.4133 27.5812 12.1393 27.2254 12.8167C26.9107 13.8366 26.4639 14.7859 25.8851 15.6648C25.8587 15.4348 25.8867 15.2114 25.9688 14.9947C26.7139 13.5606 27.356 12.1086 27.8955 10.6387Z"
            fill="#F0F0F1" />
        <path fill-rule="evenodd" clip-rule="evenodd"
            d="M25.7171 17.675C25.0678 22.9172 23.169 27.6641 20.0208 31.9159C18.3454 31.9159 16.67 31.9159 14.9946 31.9159C15.944 30.9106 16.8934 29.9054 17.8428 28.9002C21.2155 25.4685 23.7844 21.5035 25.5496 17.0049C25.7052 17.2041 25.761 17.4274 25.7171 17.675Z"
            fill="#D9A62C" />
        <path fill-rule="evenodd" clip-rule="evenodd"
            d="M24.5447 17.6758C24.4869 18.1278 24.2635 18.4629 23.8745 18.681C24.0152 18.2868 24.2387 17.9517 24.5447 17.6758Z"
            fill="#F0F0F1" />
        <path fill-rule="evenodd" clip-rule="evenodd"
            d="M31.9162 18.8486C31.9162 23.2047 31.9162 27.5607 31.9162 31.9167C29.85 31.9167 27.7835 31.9167 25.7173 31.9167C25.8506 30.2448 25.9064 28.5694 25.8848 26.8905C25.9964 27.3141 26.108 27.7607 26.2199 28.2308C26.2757 28.2029 26.3317 28.175 26.3874 28.1471C29.2316 25.6609 31.0745 22.5615 31.9162 18.8486Z"
            fill="#F0F0F1" />
        <path fill-rule="evenodd" clip-rule="evenodd"
            d="M23.8745 18.6807C23.9008 18.9107 23.8728 19.1342 23.7907 19.3508C23.3389 19.7194 22.92 20.1103 22.5342 20.5236C22.8525 19.8146 23.2993 19.2002 23.8745 18.6807Z"
            fill="#F0F0F1" />
        <path opacity="0.996" fill-rule="evenodd" clip-rule="evenodd"
            d="M30.2407 2.76465C30.3921 2.88343 30.4479 3.05097 30.4082 3.26727C29.8773 3.99321 29.4305 4.77507 29.0679 5.61282C28.1108 6.79363 27.2173 8.02225 26.3873 9.29868C24.2634 11.5901 22.0296 13.7681 19.6857 15.8327C17.7226 17.296 15.768 18.7481 13.8218 20.1887C13.0349 20.4699 12.3648 20.9165 11.8114 21.529C11.2745 21.677 10.8278 21.9563 10.471 22.3667C8.92879 23.2209 7.42094 24.1143 5.94748 25.0474C5.52795 25.229 5.13703 25.4523 4.77471 25.7175C4.50376 25.8077 4.22453 25.8635 3.93701 25.8851C7.27738 23.9349 10.5723 21.8965 13.8218 19.7699C18.494 16.6075 22.7105 12.8937 26.471 8.62852C27.9028 6.77963 29.1594 4.82501 30.2407 2.76465Z"
            fill="#F0F0F1" />
        <path fill-rule="evenodd" clip-rule="evenodd"
            d="M13.822 20.1885C13.3738 20.9709 12.7036 21.4177 11.8115 21.5288C12.365 20.9163 13.0351 20.4696 13.822 20.1885Z"
            fill="#F0F0F1" />
        <path opacity="0.996" fill-rule="evenodd" clip-rule="evenodd"
            d="M25.7173 17.6758C25.8571 18.6525 25.8571 19.6578 25.7173 20.6915C25.0867 22.1933 24.5841 23.757 24.2095 25.3826C23.9225 25.5727 23.8107 25.852 23.8744 26.2203C23.2875 27.0583 22.7849 27.9518 22.3665 28.9009C21.7006 29.8944 21.0304 30.8997 20.3561 31.9166C20.2443 31.9166 20.1327 31.9166 20.021 31.9166C23.1692 27.6648 25.0679 22.9179 25.7173 17.6758Z"
            fill="#F0F0F1" />
        <path fill-rule="evenodd" clip-rule="evenodd"
            d="M25.2146 24.5442C25.0475 24.5492 24.9358 24.4655 24.8795 24.2929C24.9289 23.5101 25.1802 22.812 25.6334 22.1986C25.7169 21.699 25.7448 21.1964 25.7172 20.6908C25.8569 19.6571 25.8569 18.6518 25.7172 17.6751C25.7611 17.4275 25.7053 17.2041 25.5497 17.0049C23.7845 21.5035 21.2156 25.4685 17.8429 28.9002C16.9226 28.8573 15.9174 28.8014 14.8271 28.7327C15.4393 28.2322 15.9977 27.6738 16.5025 27.0573C18.0091 25.467 19.5447 23.9034 21.1099 22.3662C21.6207 21.7726 22.0953 21.1584 22.534 20.5233C22.9198 20.1099 23.3386 19.7191 23.7905 19.3505C23.8726 19.1339 23.9006 18.9104 23.8743 18.6803C24.2633 18.4622 24.4866 18.1271 24.5444 17.6751C24.8256 16.8882 25.2722 16.218 25.8847 15.6646C26.4636 14.7857 26.9104 13.8363 27.2251 12.8164C27.3718 12.8384 27.4836 12.7825 27.5601 12.6489C27.7719 12.2091 27.9674 11.7623 28.1465 11.3086C29.5549 16.0174 28.8569 20.3175 26.0523 24.2091C25.8261 24.452 25.547 24.5638 25.2146 24.5442Z"
            fill="#F0F0F1" />
        <path fill-rule="evenodd" clip-rule="evenodd"
            d="M10.471 22.3662C10.4127 22.7882 10.1893 23.0955 9.80083 23.2877C10.5005 23.9443 11.2824 24.4749 12.1464 24.8793C10.3286 26.36 8.37403 27.6445 6.2825 28.7327C5.46268 28.1932 4.73668 27.5231 4.10449 26.7222C4.72648 26.1553 5.3408 25.5969 5.94742 25.0468C7.42088 24.1138 8.92873 23.2203 10.471 22.3662Z"
            fill="#F0F0F1" />
        <path fill-rule="evenodd" clip-rule="evenodd"
            d="M24.712 25.7176C24.3426 27.8537 23.7282 29.92 22.869 31.9165C22.0313 31.9165 21.1937 31.9165 20.356 31.9165C21.0303 30.8996 21.7005 29.8943 22.3664 28.9008C23.1207 28.1769 23.6233 27.2834 23.8743 26.2202C23.8106 25.8519 23.9224 25.5727 24.2094 25.3825C24.4255 25.289 24.565 25.1215 24.6282 24.8799C24.711 25.1536 24.7388 25.4329 24.712 25.7176Z"
            fill="#F0F0F1" />
        <path fill-rule="evenodd" clip-rule="evenodd"
            d="M25.2147 25.5495C25.4223 27.6709 25.4223 29.7931 25.2147 31.916C24.4328 31.916 23.651 31.916 22.8691 31.916C23.7283 29.9194 24.3426 27.8532 24.7121 25.717C24.8444 25.5312 24.9282 25.3079 24.9634 25.0469C25.1375 25.1715 25.2212 25.3391 25.2147 25.5495Z"
            fill="#303077" />
        <path fill-rule="evenodd" clip-rule="evenodd"
            d="M4.77465 25.7168C3.35102 26.9047 1.73147 27.7981 -0.0839844 28.3974C-0.0839844 28.3416 -0.0839844 28.2857 -0.0839844 28.2299C1.37227 27.6147 2.71258 26.8328 3.93696 25.8843C4.22447 25.8627 4.50371 25.8069 4.77465 25.7168Z"
            fill="#F0F0F1" />
        <path fill-rule="evenodd" clip-rule="evenodd"
            d="M22.5338 20.5234C22.0952 21.1586 21.6205 21.7728 21.1097 22.3664C19.5446 23.9035 18.0089 25.4672 16.5024 27.0575C15.3901 27.84 14.329 28.7057 13.3191 29.6543C13.0548 29.8376 12.7755 29.9773 12.4814 30.0732C14.7601 28.186 16.9382 26.1755 19.0155 24.0418C19.0155 23.986 19.0155 23.93 19.0155 23.8742C19.7253 23.4172 20.3677 22.8588 20.9422 22.1988C21.4022 21.5441 21.9327 20.9857 22.5338 20.5234Z"
            fill="#F0F0F1" />
        <path fill-rule="evenodd" clip-rule="evenodd"
            d="M3.93696 25.8848C2.71258 26.8332 1.37227 27.6151 -0.0839844 28.2303C-0.0839844 28.1186 -0.0839844 28.007 -0.0839844 27.8952C1.25633 27.2251 2.59664 26.5549 3.93696 25.8848Z"
            fill="#F0F0F1" />
        <path fill-rule="evenodd" clip-rule="evenodd"
            d="M23.8746 26.2197C23.6236 27.2829 23.121 28.1764 22.3667 28.9004C22.785 27.9512 23.2877 27.0578 23.8746 26.2197Z"
            fill="#F0F0F1" />
        <path fill-rule="evenodd" clip-rule="evenodd"
            d="M5.94743 25.0469C5.3408 25.5969 4.72649 26.1553 4.1045 26.7223C4.73669 27.5231 5.46269 28.1933 6.28251 28.7327C4.60712 29.7938 2.93172 30.855 1.25633 31.916C0.809558 31.916 0.362788 31.916 -0.0839844 31.916C-0.0839844 30.7432 -0.0839844 29.5704 -0.0839844 28.3977C1.73147 27.7984 3.35102 26.9049 4.77465 25.717C5.13697 25.4518 5.52789 25.2285 5.94743 25.0469Z"
            fill="#F0F0F1" />
        <path opacity="0.996" fill-rule="evenodd" clip-rule="evenodd"
            d="M25.2148 25.5498C25.5466 27.6087 25.6583 29.7309 25.5499 31.9163C25.4382 31.9163 25.3266 31.9163 25.2148 31.9163C25.4224 29.7934 25.4224 27.6712 25.2148 25.5498Z"
            fill="#F0F0F1" />
        <path fill-rule="evenodd" clip-rule="evenodd"
            d="M25.7173 20.6914C25.745 21.197 25.717 21.6997 25.6336 22.1993C25.1804 22.8126 24.9291 23.5108 24.8796 24.2935C24.9359 24.4661 25.0477 24.5498 25.2147 24.5448C25.6 25.2721 25.8234 26.054 25.8849 26.8904C25.9065 28.5693 25.8507 30.2447 25.7173 31.9165C25.6615 31.9165 25.6056 31.9165 25.5498 31.9165C25.6582 29.7312 25.5464 27.6089 25.2147 25.55C25.2212 25.3396 25.1375 25.1721 24.9634 25.0474C24.9282 25.3085 24.8444 25.5318 24.7121 25.7176C24.7389 25.4329 24.7111 25.1536 24.6283 24.8799C24.5652 25.1215 24.4256 25.289 24.2095 25.3825C24.5841 23.7569 25.0867 22.1932 25.7173 20.6914Z"
            fill="#F0F0F1" />
        <path fill-rule="evenodd" clip-rule="evenodd"
            d="M16.5025 27.0576C15.9977 27.6742 15.4392 28.2326 14.8271 28.733C15.9173 28.8017 16.9225 28.8577 17.8428 28.9005C16.8934 29.9058 15.944 30.911 14.9946 31.9163C13.5985 31.9163 12.2023 31.9163 10.8062 31.9163C11.2835 31.2302 11.842 30.616 12.4815 30.0733C12.7756 29.9775 13.0549 29.8378 13.3192 29.6545C14.3291 28.7059 15.3902 27.8402 16.5025 27.0576Z"
            fill="#F0F0F1" />
        <path opacity="0.996" fill-rule="evenodd" clip-rule="evenodd"
            d="M19.0155 24.042C16.9382 26.1758 14.7601 28.1862 12.4815 30.0734C11.5953 30.5702 10.8134 31.1845 10.1359 31.9163C9.96838 31.9163 9.80084 31.9163 9.6333 31.9163C12.8578 29.4187 15.9853 26.794 19.0155 24.042Z"
            fill="#F0F0F1" />
        <path fill-rule="evenodd" clip-rule="evenodd"
            d="M12.4818 30.0732C11.8422 30.6159 11.2837 31.2301 10.8064 31.9162C10.583 31.9162 10.3596 31.9162 10.1362 31.9162C10.8137 31.1844 11.5956 30.57 12.4818 30.0732Z"
            fill="#F0F0F1" />
    </g>
    <defs>
        <clipPath id="clip0_3663_302">
            <rect width="32" height="32" fill="white" />
        </clipPath>
    </defs>
</svg>