<svg width="32" height="32" viewBox="0 0 32 32" fill="none" xmlns="http://www.w3.org/2000/svg">
    <g clip-path="url(#clip0_2848_69)">
        <path fill-rule="evenodd" clip-rule="evenodd"
            d="M-0.0799561 -0.0800781C10.5867 -0.0800781 21.2533 -0.0800781 31.92 -0.0800781C31.92 10.5866 31.92 21.2532 31.92 31.9199C21.2533 31.9199 10.5867 31.9199 -0.0799561 31.9199C-0.0799561 21.2532 -0.0799561 10.5866 -0.0799561 -0.0800781Z"
            fill="#FEFEFE" />
        <path fill-rule="evenodd" clip-rule="evenodd"
            d="M14.3199 5.83991C18.2703 5.73479 22.1636 5.84146 25.9999 6.15991C25.9467 6.15991 25.8932 6.15991 25.8399 6.15991C22.1342 6.00031 18.4009 5.94697 14.6399 5.99991C14.4813 6.02737 14.3746 5.97402 14.3199 5.83991Z"
            fill="#BDBEBE" />
        <path fill-rule="evenodd" clip-rule="evenodd"
            d="M9.68 6C9.04661 6.51794 8.56661 7.15794 8.24 7.92C7.93803 8.28618 7.7247 8.71285 7.6 9.2C7.22939 9.88701 7.01606 10.6337 6.96 11.44C6.56666 12.2287 6.35333 13.0821 6.32 14C6.21333 14.16 6.10667 14.32 6 14.48C6 11.6533 6 8.82667 6 6C7.22667 6 8.45333 6 9.68 6Z"
            fill="#F7FDFC" />
        <path fill-rule="evenodd" clip-rule="evenodd"
            d="M14.64 6.00025C18.401 5.9473 22.1343 6.00065 25.84 6.16025C25.84 6.21358 25.84 6.26692 25.84 6.32025C25.6203 6.29518 25.4069 6.32185 25.2 6.40025C24.2328 7.50559 23.4863 8.75892 22.96 10.1602C22.4507 11.4149 22.024 12.6949 21.68 14.0002C21.4803 14.1337 21.3736 14.347 21.36 14.6402C21.2392 15.436 21.1858 16.2361 21.2 17.0402C20.6843 18.073 20.4176 19.193 20.4 20.4002C20.2933 20.827 20.1867 21.2535 20.08 21.6802C19.4947 21.8878 19.2282 22.3143 19.28 22.9602C18.8799 23.1724 18.4531 23.2524 18 23.2002C17.5882 22.9223 17.2682 22.5756 17.04 22.1602C16.8336 22.071 16.7003 21.911 16.64 21.6802C16.5493 21.2534 16.4693 20.8268 16.4 20.4002C16.4357 20.1055 16.4891 19.8122 16.56 19.5202C15.9652 18.5089 15.6452 17.4156 15.6 16.2402C15.6703 15.9836 15.7769 15.7436 15.92 15.5202C15.6942 14.5426 15.5342 13.556 15.44 12.5602C15.4953 12.369 15.5753 12.369 15.68 12.5602C15.7136 12.8095 15.7936 13.0229 15.92 13.2002C15.9674 13.5047 16.0741 13.7714 16.24 14.0002C16.4229 14.6793 16.5296 15.3726 16.56 16.0802C16.6488 16.7038 16.8088 17.2903 17.04 17.8402C17.1517 19.2033 17.4184 20.5366 17.84 21.8402C17.9261 22.099 17.9794 22.3657 18 22.6402C18.2667 22.6402 18.5333 22.6402 18.8 22.6402C18.7231 22.0244 18.9898 21.7044 19.6 21.6802C19.6264 21.0911 19.5999 20.5046 19.52 19.9202C19.512 19.5612 19.3787 19.2945 19.12 19.1202C19.0717 18.6606 18.965 18.234 18.8 17.8402C18.7888 16.7593 18.6554 15.6926 18.4 14.6402C18.2624 14.2269 18.0757 13.8536 17.84 13.5202C17.84 13.4669 17.84 13.4136 17.84 13.3602C17.8045 12.4933 17.6712 11.64 17.44 10.8002C17.1277 10.5063 16.9677 10.133 16.96 9.68025C16.8527 9.55986 16.7194 9.50652 16.56 9.52025C16.5344 9.25577 16.4279 9.04244 16.24 8.88025C16.1253 8.42858 15.9654 8.00191 15.76 7.60025C15.76 7.44025 15.76 7.28025 15.76 7.12025C15.6 7.12025 15.44 7.12025 15.28 7.12025C15.2362 6.72335 15.0228 6.45668 14.64 6.32025C14.64 6.21358 14.64 6.10692 14.64 6.00025Z"
            fill="#FCFDFC" />
        <path fill-rule="evenodd" clip-rule="evenodd"
            d="M9.67999 6C10.2667 6 10.8533 6 11.44 6C11.9215 6.48237 12.3482 7.0157 12.72 7.6C11.8792 7.94701 11.4525 7.70701 11.44 6.88C11.1244 6.80072 10.8044 6.77406 10.48 6.8C10.48 6.96 10.48 7.12 10.48 7.28C10.7693 7.27862 11.036 7.35862 11.28 7.52C11.079 7.5867 10.9724 7.72003 10.96 7.92C10.0756 7.90187 9.43559 8.27522 9.03999 9.04C9.15497 8.67779 9.20831 8.30446 9.19999 7.92C9.50857 7.96307 9.77524 7.88307 9.99999 7.68C9.92681 7.61376 9.87348 7.53376 9.83999 7.44C10.1094 7.2233 10.1894 6.95662 10.08 6.64C9.58514 6.97995 9.18514 7.40662 8.87999 7.92C8.67065 8.1001 8.45732 8.1001 8.23999 7.92C8.5666 7.15794 9.0466 6.51794 9.67999 6Z"
            fill="#22E4DF" />
        <path fill-rule="evenodd" clip-rule="evenodd"
            d="M14 6.3204C13.9273 6.60183 13.9273 6.92183 14 7.2804C13.8933 7.22708 13.7866 7.17373 13.68 7.1204C13.6708 6.94296 13.6175 6.78296 13.52 6.6404C13.4928 6.42887 13.5461 6.24221 13.68 6.0804C13.8905 5.99591 13.9972 6.07591 14 6.3204Z"
            fill="#E3E652" />
        <path fill-rule="evenodd" clip-rule="evenodd"
            d="M13.52 5.83984C13.7867 5.83984 14.0533 5.83984 14.32 5.83984C14.3747 5.97396 14.4814 6.0273 14.64 5.99984C14.64 6.10652 14.64 6.21317 14.64 6.31984C14.4267 6.31984 14.2133 6.31984 14 6.31984C13.9973 6.07535 13.8906 5.99535 13.68 6.07984C13.5462 6.24165 13.4928 6.42831 13.52 6.63984C13.3705 6.46903 13.3172 6.25568 13.36 5.99984C13.4667 5.99984 13.52 5.94652 13.52 5.83984Z"
            fill="#E9E8A1" />
        <path fill-rule="evenodd" clip-rule="evenodd"
            d="M13.6799 7.12012C13.7866 7.17345 13.8933 7.22679 13.9999 7.28012C13.9999 7.38679 13.9999 7.49345 13.9999 7.60012C13.7749 7.52442 13.6683 7.36442 13.6799 7.12012Z"
            fill="#EEF3A3" />
        <path fill-rule="evenodd" clip-rule="evenodd"
            d="M14.64 6.32031C15.0228 6.45674 15.2362 6.72342 15.28 7.12031C15.44 7.12031 15.6 7.12031 15.76 7.12031C15.76 7.28031 15.76 7.44031 15.76 7.60031C15.6533 7.60031 15.5467 7.60031 15.44 7.60031C15.1739 7.17494 14.9072 6.74828 14.64 6.32031Z"
            fill="#ECF38C" />
        <path fill-rule="evenodd" clip-rule="evenodd"
            d="M12.72 7.59963C12.9072 8.12947 13.0406 8.66282 13.12 9.19963C12.8995 8.82299 12.6595 8.82299 12.4 9.19963C11.7445 8.95472 11.2645 8.52806 10.96 7.91963C10.9724 7.71966 11.079 7.58634 11.28 7.51963C11.036 7.35826 10.7693 7.27826 10.48 7.27963C10.48 7.11963 10.48 6.95963 10.48 6.79963C10.8043 6.7737 11.1243 6.80035 11.44 6.87963C11.4525 7.70664 11.8792 7.94664 12.72 7.59963Z"
            fill="#13E0E4" />
        <path fill-rule="evenodd" clip-rule="evenodd"
            d="M9.03998 9.03965C8.92692 9.30115 8.74026 9.51448 8.47998 9.67965C8.38484 9.90347 8.41151 10.1168 8.55998 10.3196C8.47998 10.4796 8.39998 10.6396 8.31998 10.7996C8.25209 10.4772 8.11876 10.1838 7.91998 9.91965C8.06543 9.63338 8.0921 9.34003 7.99998 9.03965C7.89265 9.16003 7.75932 9.21338 7.59998 9.19965C7.72468 8.7125 7.93801 8.28582 8.23998 7.91965C8.4573 8.09974 8.67063 8.09974 8.87998 7.91965C9.18513 7.40627 9.58513 6.9796 10.08 6.63965C10.1894 6.95627 10.1094 7.22294 9.83998 7.43965C9.87346 7.53341 9.92679 7.61341 9.99998 7.67965C9.77522 7.88272 9.50855 7.96272 9.19998 7.91965C9.2083 8.30411 9.15495 8.67744 9.03998 9.03965Z"
            fill="#21DEE4" />
        <path fill-rule="evenodd" clip-rule="evenodd"
            d="M14 6.32031C14.2134 6.32031 14.4267 6.32031 14.64 6.32031C14.9072 6.74828 15.1739 7.17494 15.44 7.60031C15.5745 8.10842 15.8412 8.5351 16.24 8.88031C16.2906 9.43684 16.2106 9.97018 16 10.4803C15.862 10.2264 15.7554 9.95974 15.68 9.68031C15.3814 9.51606 15.0881 9.35606 14.8 9.20031C14.7467 9.20031 14.6934 9.20031 14.64 9.20031C14.4071 8.68316 14.1938 8.14983 14 7.60031C14 7.49364 14 7.38698 14 7.28031C13.9274 6.92174 13.9274 6.60174 14 6.32031Z"
            fill="#E3E61E" />
        <path fill-rule="evenodd" clip-rule="evenodd"
            d="M15.4399 7.59961C15.5466 7.59961 15.6533 7.59961 15.7599 7.59961C15.9653 8.00127 16.1252 8.42795 16.2399 8.87961C15.8411 8.53439 15.5744 8.10772 15.4399 7.59961Z"
            fill="#E3E55A" />
        <path fill-rule="evenodd" clip-rule="evenodd"
            d="M11.4399 6C12.0799 6 12.7199 6 13.3599 6C13.3171 6.25584 13.3704 6.46918 13.5199 6.64C13.6175 6.78256 13.6708 6.94256 13.6799 7.12C13.6683 7.3643 13.7749 7.5243 13.9999 7.6C14.1937 8.14952 14.4071 8.68285 14.6399 9.2C14.6283 9.4443 14.7349 9.6043 14.9599 9.68C15.0666 10 15.1733 10.32 15.2799 10.64C15.3482 11.0416 15.4549 11.4149 15.5999 11.76C15.7967 12.0476 15.9034 12.3676 15.9199 12.72C15.9199 12.88 15.9199 13.04 15.9199 13.2C15.7935 13.0226 15.7135 12.8093 15.6799 12.56C15.5753 12.3687 15.4953 12.3687 15.4399 12.56C15.5341 13.5557 15.6941 14.5424 15.9199 15.52C15.7769 15.7433 15.6702 15.9833 15.5999 16.24C15.6451 17.4154 15.9651 18.5086 16.5599 19.52C16.4891 19.812 16.4356 20.1053 16.3999 20.4C16.0372 19.5926 15.7705 18.7394 15.5999 17.84C15.4236 16.0704 15.0503 14.3637 14.4799 12.72C14.2289 11.3085 13.8822 9.92179 13.4399 8.56C13.2218 8.21059 12.9818 7.89059 12.7199 7.6C12.3481 7.0157 11.9214 6.48237 11.4399 6Z"
            fill="#F3FCF9" />
        <path fill-rule="evenodd" clip-rule="evenodd"
            d="M25.84 6.31966C25.84 7.17299 25.84 8.02633 25.84 8.87966C25.4694 9.29479 25.0961 9.72147 24.72 10.1597C24.3524 10.4994 24.1392 10.9261 24.08 11.4397C23.8132 11.4397 23.5467 11.4397 23.28 11.4397C23.3064 10.9037 23.2796 10.3703 23.2 9.83966C23.1555 9.98619 23.0755 10.0929 22.96 10.1597C23.4862 8.75833 24.2328 7.505 25.2 6.39966C25.4068 6.32126 25.6203 6.29459 25.84 6.31966Z"
            fill="#2EDDDB" />
        <path fill-rule="evenodd" clip-rule="evenodd"
            d="M14.64 9.2002C14.6934 9.2002 14.7467 9.2002 14.8 9.2002C14.8976 9.34276 14.9509 9.50276 14.96 9.6802C14.735 9.6045 14.6283 9.4445 14.64 9.2002Z"
            fill="#EFEE9B" />
        <path fill-rule="evenodd" clip-rule="evenodd"
            d="M12.72 7.59961C12.9819 7.8902 13.2219 8.2102 13.44 8.55961C13.8823 9.9214 14.229 11.3081 14.48 12.7196C14.6763 13.96 14.8363 15.2133 14.96 16.4796C14.9334 16.6663 14.9067 16.8529 14.88 17.0396C14.8337 16.6473 14.7271 16.274 14.56 15.9196C14.5917 15.482 14.565 15.0554 14.48 14.6396C14.3315 14.8298 14.2781 15.0432 14.32 15.2796C14.0027 15.2247 13.7894 15.3314 13.68 15.5996C13.4474 14.6305 13.1807 13.6705 12.88 12.7196C12.7279 12.4926 12.6745 12.226 12.72 11.9196C12.5297 11.1082 12.2897 10.3082 12 9.51961C11.8944 9.22782 11.7078 9.01449 11.44 8.87961C11.2267 8.71961 11.0134 8.55961 10.8 8.39961C10.6239 8.22388 10.4106 8.19721 10.16 8.31961C9.75669 8.67478 9.41001 9.07478 9.12005 9.51961C8.65573 10.8692 8.2024 12.2025 7.76005 13.5196C7.65481 13.6634 7.54816 13.8234 7.44005 13.9996C7.33337 13.7329 7.22672 13.4663 7.12005 13.1996C7.00926 13.2837 6.92926 13.3903 6.88005 13.5196C6.79456 12.8222 6.82123 12.1288 6.96005 11.4396C7.01611 10.6333 7.22944 9.88662 7.60005 9.19961C7.75939 9.21334 7.89272 9.15999 8.00005 9.03961C8.09217 9.33999 8.0655 9.63334 7.92005 9.91961C8.11883 10.1838 8.25216 10.4771 8.32005 10.7996C8.40005 10.6396 8.48005 10.4796 8.56005 10.3196C8.41158 10.1168 8.38491 9.90343 8.48005 9.67961C8.74033 9.51444 8.92699 9.30111 9.04005 9.03961C9.43565 8.27483 10.0756 7.90148 10.96 7.91961C11.2646 8.52804 11.7446 8.9547 12.4 9.19961C12.6596 8.82297 12.8996 8.82297 13.12 9.19961C13.0406 8.66279 12.9073 8.12945 12.72 7.59961Z"
            fill="#2DD3D3" />
        <path fill-rule="evenodd" clip-rule="evenodd"
            d="M10.8 8.40008C11.0134 8.56008 11.2267 8.72008 11.44 8.88008C11.8875 9.67053 12.1542 10.5239 12.24 11.4401C12.1952 11.8837 12.3019 12.2837 12.56 12.6401C12.3039 13.4784 12.1439 14.3584 12.08 15.2801C11.8738 14.3697 11.8738 13.463 12.08 12.5601C11.7979 11.7293 11.6113 11.7827 11.52 12.7201C11.4755 12.5736 11.3955 12.4669 11.28 12.4001C11.28 12.3468 11.28 12.2934 11.28 12.2401C11.5517 11.4776 11.445 10.7842 10.96 10.1601C10.713 10.1276 10.4996 10.0209 10.32 9.84008C10.1924 9.91319 10.1391 10.0199 10.16 10.1601C9.91372 10.5342 9.80705 10.9609 9.84004 11.4401C9.59372 11.8142 9.48705 12.2409 9.52004 12.7201C9.24441 13.0849 9.13775 13.5116 9.20004 14.0001C8.95372 14.3742 8.84705 14.8009 8.88004 15.2801C8.88004 15.4934 8.88004 15.7068 8.88004 15.9201C9.32594 16.0764 9.80594 16.1297 10.32 16.0801C9.47081 16.1825 8.61748 16.3425 7.76004 16.5601C7.68881 16.1017 7.79548 15.7017 8.08004 15.3601C7.99802 14.9252 7.99802 14.4718 8.08004 14.0001C8.07665 13.0543 8.34332 12.201 8.88004 11.4401C9.00044 10.8494 9.13377 10.2628 9.28004 9.68008C9.64561 9.29503 9.99226 8.89503 10.32 8.48008C10.4717 8.40284 10.6317 8.37616 10.8 8.40008Z"
            fill="#FAFCF6" />
        <path fill-rule="evenodd" clip-rule="evenodd"
            d="M10.96 10.1602C11.4449 10.7843 11.5516 11.4776 11.28 12.2402C11.2266 12.2402 11.1733 12.2402 11.12 12.2402C11.3753 11.7091 11.3219 11.2291 10.96 10.8002C10.96 10.5868 10.96 10.3735 10.96 10.1602Z"
            fill="#E7E583" />
        <path fill-rule="evenodd" clip-rule="evenodd"
            d="M16.5601 9.51969C16.7194 9.50596 16.8527 9.5593 16.9601 9.67969C16.9677 10.1324 17.1277 10.5057 17.4401 10.7997C17.6713 11.6394 17.8045 12.4928 17.8401 13.3597C17.7333 13.1464 17.6268 12.933 17.5201 12.7197C17.5097 12.2512 17.4029 11.8245 17.2001 11.4397C17.0204 10.7859 16.8071 10.1459 16.5601 9.51969Z"
            fill="#FDFCD4" />
        <path fill-rule="evenodd" clip-rule="evenodd"
            d="M11.4399 8.87988C11.7077 9.01476 11.8943 9.22809 11.9999 9.51988C12.2896 10.3085 12.5296 11.1085 12.7199 11.9199C12.5234 11.7908 12.3634 11.6308 12.2399 11.4399C12.1541 10.5237 11.8874 9.67033 11.4399 8.87988Z"
            fill="#B6F9F9" />
        <path fill-rule="evenodd" clip-rule="evenodd"
            d="M10.8 8.39952C10.6317 8.3756 10.4717 8.40227 10.32 8.47952C9.9922 8.89446 9.64554 9.29446 9.27998 9.67952C9.1337 10.2622 9.00038 10.8489 8.87998 11.4395C8.34326 12.2004 8.07658 13.0537 8.07998 13.9995C7.97711 14.2517 7.81711 14.4651 7.59998 14.6395C7.71495 14.2773 7.7683 13.904 7.75998 13.5195C8.20233 12.2024 8.65566 10.8691 9.11998 9.51952C9.40994 9.07468 9.75662 8.67468 10.16 8.31952C10.4105 8.19712 10.6238 8.22379 10.8 8.39952Z"
            fill="#DDFCFA" />
        <path fill-rule="evenodd" clip-rule="evenodd"
            d="M10.16 10.1602C10.1929 10.6394 10.0863 11.066 9.83995 11.4402C9.80696 10.9609 9.91363 10.5343 10.16 10.1602Z"
            fill="#EBE97F" />
        <path fill-rule="evenodd" clip-rule="evenodd"
            d="M10.96 10.7998C11.3219 11.2288 11.3753 11.7088 11.12 12.2398C11.1579 12.4464 11.1046 12.6064 10.96 12.7198C10.96 12.0798 10.96 11.4398 10.96 10.7998Z"
            fill="#DAD540" />
        <path fill-rule="evenodd" clip-rule="evenodd"
            d="M15.28 10.6396C15.5541 10.8213 15.6608 11.088 15.6 11.4396C15.6 11.5463 15.6 11.653 15.6 11.7596C15.455 11.4146 15.3483 11.0412 15.28 10.6396Z"
            fill="#F7F6BD" />
        <path fill-rule="evenodd" clip-rule="evenodd"
            d="M16.24 8.87988C16.4279 9.04207 16.5344 9.2554 16.56 9.51988C16.8071 10.1461 17.0204 10.7861 17.2 11.4399C17.2 11.7066 17.2 11.9732 17.2 12.2399C17.3248 12.7533 17.2983 13.2333 17.12 13.6799C17.0133 13.4666 16.9068 13.4666 16.8 13.6799C16.6122 13.1126 16.5056 12.5259 16.48 11.9199C16.3652 12.072 16.2319 12.0986 16.08 11.9999C16.0042 11.7233 15.8442 11.5366 15.6 11.4399C15.6608 11.0882 15.5542 10.8215 15.28 10.6399C15.1734 10.3199 15.0667 9.99988 14.96 9.67988C14.9509 9.50244 14.8976 9.34244 14.8 9.19988C15.0881 9.35563 15.3814 9.51563 15.68 9.67988C15.7554 9.95931 15.8621 10.226 16 10.4799C16.2106 9.96975 16.2906 9.43641 16.24 8.87988Z"
            fill="#DADC25" />
        <path fill-rule="evenodd" clip-rule="evenodd"
            d="M24.72 10.1598C24.5275 10.7375 24.3675 11.3241 24.24 11.9198C24.0104 12.146 23.8504 12.4126 23.76 12.7198C23.3637 13.0264 23.2037 13.453 23.28 13.9998C23.12 13.9998 22.96 13.9998 22.8 13.9998C22.8472 14.3575 22.7937 14.6775 22.64 14.9598C22.6304 14.8729 22.5771 14.8196 22.48 14.7998C22.1901 15.6223 22.0301 16.4757 22 17.3598C21.84 17.3598 21.68 17.3598 21.52 17.3598C21.5654 17.0534 21.5121 16.7869 21.36 16.5598C21.5704 15.7208 21.6771 14.8675 21.68 13.9998C22.024 12.6945 22.4507 11.4145 22.96 10.1598C23.0755 10.093 23.1555 9.98637 23.2 9.83984C23.2797 10.3705 23.3064 10.9039 23.28 11.4398C23.5467 11.4398 23.8133 11.4398 24.08 11.4398C24.1392 10.9263 24.3525 10.4996 24.72 10.1598Z"
            fill="#2BCECB" />
        <path fill-rule="evenodd" clip-rule="evenodd"
            d="M13.52 5.83984C13.52 5.94652 13.4666 5.99984 13.36 5.99984C12.72 5.99984 12.08 5.99984 11.44 5.99984C10.8533 5.99984 10.2666 5.99984 9.67997 5.99984C8.45329 5.99984 7.22664 5.99984 5.99997 5.99984C5.99997 8.82652 5.99997 11.6532 5.99997 14.4798C6.04549 14.7862 5.99214 15.0529 5.83997 15.2798C5.83997 12.1332 5.83997 8.98652 5.83997 5.83984C8.39997 5.83984 10.96 5.83984 13.52 5.83984Z"
            fill="#B7C0C0" />
        <path fill-rule="evenodd" clip-rule="evenodd"
            d="M17.2 11.4404C17.4028 11.8253 17.5096 12.2519 17.52 12.7204C17.4132 12.5604 17.3067 12.4004 17.2 12.2404C17.2 11.9738 17.2 11.7071 17.2 11.4404Z"
            fill="#DBDD6F" />
        <path fill-rule="evenodd" clip-rule="evenodd"
            d="M9.84001 11.4404C9.873 11.9196 9.76633 12.3463 9.52001 12.7204C9.48701 12.2412 9.59369 11.8146 9.84001 11.4404Z"
            fill="#E8E58C" />
        <path fill-rule="evenodd" clip-rule="evenodd"
            d="M12.24 11.4404C12.3635 11.6314 12.5235 11.7914 12.72 11.9204C12.6745 12.2268 12.7278 12.4934 12.88 12.7204C13.0095 13.7295 13.1428 14.7428 13.28 15.7604C13.4011 16.0508 13.5344 16.3174 13.68 16.5604C13.7911 17.4092 13.8444 18.2625 13.84 19.1204C14 19.1204 14.16 19.1204 14.32 19.1204C14.32 19.2271 14.32 19.3337 14.32 19.4404C14.3923 20.0265 14.4723 20.6132 14.56 21.2004C14.6963 21.3718 14.8296 21.5318 14.96 21.6804C15.1794 22.0702 15.3394 22.4969 15.44 22.9604C15.534 23.5625 15.534 24.1491 15.44 24.7204C16.1333 24.7737 16.5067 25.1471 16.56 25.8404C13.04 25.8404 9.52 25.8404 6 25.8404C6 22.5871 6 19.3337 6 16.0804C6.5141 16.13 6.9941 16.0767 7.44 15.9204C7.5957 15.5288 7.64902 15.1021 7.6 14.6404C7.81714 14.466 7.97714 14.2527 8.08 14.0004C7.99798 14.4722 7.99798 14.9255 8.08 15.3604C7.79544 15.7021 7.68877 16.102 7.76 16.5604C8.61744 16.3428 9.47077 16.1828 10.32 16.0804C10.545 16.0047 10.6517 15.8447 10.64 15.6004C10.9493 14.5728 11.1626 13.5062 11.28 12.4004C11.3955 12.4672 11.4755 12.5739 11.52 12.7204C11.6112 11.783 11.7979 11.7297 12.08 12.5604C11.8738 13.4634 11.8738 14.37 12.08 15.2804C12.1439 14.3587 12.3039 13.4787 12.56 12.6404C12.3019 12.284 12.1952 11.884 12.24 11.4404Z"
            fill="#FDFEFD" />
        <path fill-rule="evenodd" clip-rule="evenodd"
            d="M24.24 11.9199C23.946 13.152 23.6528 14.3787 23.36 15.5999C23.2627 15.8505 23.1292 16.0639 22.96 16.2399C23.1921 15.0613 23.4588 13.888 23.76 12.7199C23.8504 12.4127 24.0104 12.146 24.24 11.9199Z"
            fill="#CBF9F8" />
        <path fill-rule="evenodd" clip-rule="evenodd"
            d="M10.96 10.1598C10.96 10.3732 10.96 10.5865 10.96 10.7998C10.96 11.4398 10.96 12.0798 10.96 12.7198C10.8445 12.7866 10.7645 12.8933 10.72 13.0398C10.5348 13.9409 10.4015 14.8476 10.32 15.7598C9.85736 15.9042 9.37736 15.9576 8.88 15.9198C8.88 15.7065 8.88 15.4932 8.88 15.2798C9.12632 14.9057 9.233 14.4791 9.2 13.9998C9.36496 13.6061 9.47164 13.1794 9.52 12.7198C9.76632 12.3457 9.873 11.9191 9.84 11.4398C10.0863 11.0657 10.193 10.6391 10.16 10.1598C10.1391 10.0196 10.1924 9.91295 10.32 9.83984C10.4996 10.0207 10.7129 10.1273 10.96 10.1598Z"
            fill="#D2D21F" />
        <path fill-rule="evenodd" clip-rule="evenodd"
            d="M10.9599 12.7197C10.8662 13.4164 10.7596 14.1098 10.6399 14.7997C10.5333 15.1197 10.4266 15.4397 10.3199 15.7597C10.4014 14.8475 10.5348 13.9408 10.7199 13.0397C10.7645 12.8932 10.8445 12.7865 10.9599 12.7197Z"
            fill="#D2D050" />
        <path fill-rule="evenodd" clip-rule="evenodd"
            d="M11.12 12.2402C11.1733 12.2402 11.2267 12.2402 11.28 12.2402C11.28 12.2936 11.28 12.3469 11.28 12.4002C11.1626 13.506 10.9493 14.5727 10.64 15.6002C10.64 15.3336 10.64 15.0669 10.64 14.8002C10.7596 14.1103 10.8663 13.4169 10.96 12.7202C11.1047 12.6068 11.158 12.4468 11.12 12.2402Z"
            fill="#FBFACC" />
        <path fill-rule="evenodd" clip-rule="evenodd"
            d="M15.92 12.7197C16.1664 13.0939 16.273 13.5205 16.24 13.9997C16.0741 13.7709 15.9674 13.5042 15.92 13.1997C15.92 13.0397 15.92 12.8797 15.92 12.7197Z"
            fill="#F0F2AE" />
        <path fill-rule="evenodd" clip-rule="evenodd"
            d="M9.51996 12.7197C9.47159 13.1793 9.36492 13.606 9.19996 13.9997C9.13767 13.5112 9.24433 13.0845 9.51996 12.7197Z"
            fill="#EEEFA0" />
        <path fill-rule="evenodd" clip-rule="evenodd"
            d="M15.6 11.4404C15.8441 11.5372 16.0041 11.7239 16.08 12.0004C16.2318 12.0992 16.3651 12.0725 16.48 11.9204C16.5056 12.5264 16.6121 13.1131 16.8 13.6804C16.9067 13.4671 17.0133 13.4671 17.12 13.6804C17.2982 13.2339 17.3248 12.7539 17.2 12.2404C17.3067 12.4004 17.4133 12.5604 17.52 12.7204C17.5027 13.5796 17.556 14.4329 17.68 15.2804C17.68 15.7071 17.68 16.1337 17.68 16.5604C17.52 16.5604 17.36 16.5604 17.2 16.5604C17.1691 15.5726 16.8491 14.7193 16.24 14.0004C16.2729 13.5212 16.1664 13.0946 15.92 12.7204C15.9034 12.368 15.7967 12.048 15.6 11.7604C15.6 11.6538 15.6 11.5471 15.6 11.4404Z"
            fill="#CFCF1F" />
        <path fill-rule="evenodd" clip-rule="evenodd"
            d="M9.19999 14C9.23298 14.4792 9.12631 14.9059 8.87999 15.28C8.847 14.8008 8.95367 14.3741 9.19999 14Z"
            fill="#EBE389" />
        <path fill-rule="evenodd" clip-rule="evenodd"
            d="M17.52 12.7197C17.6267 12.9331 17.7333 13.1464 17.84 13.3597C17.84 13.4131 17.84 13.4664 17.84 13.5197C17.8759 14.1083 17.9293 14.695 18 15.2797C17.8933 15.2797 17.7867 15.2797 17.68 15.2797C17.556 14.4322 17.5027 13.5789 17.52 12.7197Z"
            fill="#D0CE47" />
        <path fill-rule="evenodd" clip-rule="evenodd"
            d="M6.96003 11.4404C6.82121 12.1296 6.79454 12.823 6.88003 13.5204C6.92925 13.3911 7.00925 13.2845 7.12003 13.2004C7.2267 13.4671 7.33336 13.7338 7.44003 14.0004C7.54814 13.8242 7.6548 13.6642 7.76003 13.5204C7.76835 13.9049 7.71501 14.2782 7.60003 14.6404C7.64905 15.1021 7.59573 15.5288 7.44003 15.9204C7.0667 15.9204 6.69336 15.9204 6.32003 15.9204C6.1067 15.2804 6.1067 14.6404 6.32003 14.0004C6.35336 13.0825 6.56669 12.2292 6.96003 11.4404Z"
            fill="#29C7C6" />
        <path fill-rule="evenodd" clip-rule="evenodd"
            d="M23.7601 12.7197C23.4589 13.8878 23.1922 15.0611 22.9601 16.2397C22.9601 16.3464 22.9601 16.453 22.9601 16.5597C22.7829 17.1424 22.6229 17.7292 22.4801 18.3197C22.3813 18.302 22.3013 18.2487 22.2401 18.1597C22.1609 18.4754 22.1341 18.7954 22.1601 19.1197C22.0001 19.1197 21.8401 19.1197 21.6801 19.1197C21.6801 18.693 21.6801 18.2664 21.6801 17.8397C21.8401 17.8397 22.0001 17.8397 22.1601 17.8397C22.3461 16.8844 22.5061 15.9244 22.6401 14.9597C22.7938 14.6774 22.8473 14.3574 22.8001 13.9997C22.9601 13.9997 23.1201 13.9997 23.2801 13.9997C23.2037 13.4529 23.3637 13.0263 23.7601 12.7197Z"
            fill="#22C0BB" />
        <path fill-rule="evenodd" clip-rule="evenodd"
            d="M12.88 12.7197C13.1807 13.6707 13.4473 14.6307 13.68 15.5997C13.68 15.9197 13.68 16.2397 13.68 16.5597C13.5344 16.3167 13.4011 16.0501 13.28 15.7597C13.1428 14.7421 13.0095 13.7288 12.88 12.7197Z"
            fill="#D4FBFB" />
        <path fill-rule="evenodd" clip-rule="evenodd"
            d="M6.31997 14C6.10664 14.64 6.10664 15.28 6.31997 15.92C6.69329 15.92 7.06664 15.92 7.43997 15.92C6.99406 16.0763 6.51406 16.1296 5.99997 16.08C5.99997 15.9733 5.94664 15.92 5.83997 15.92C5.83997 15.7067 5.83997 15.4933 5.83997 15.28C5.99214 15.053 6.04549 14.7864 5.99997 14.48C6.10664 14.32 6.21329 14.16 6.31997 14Z"
            fill="#6FC9CC" />
        <path fill-rule="evenodd" clip-rule="evenodd"
            d="M21.68 14C21.6771 14.8676 21.5704 15.721 21.36 16.56C21.3979 16.7666 21.3446 16.9266 21.2 17.04C21.1858 16.2358 21.2392 15.4358 21.36 14.64C21.3736 14.3468 21.4803 14.1334 21.68 14Z"
            fill="#D2F9F8" />
        <path fill-rule="evenodd" clip-rule="evenodd"
            d="M10.64 14.7998C10.64 15.0665 10.64 15.3331 10.64 15.5998C10.6517 15.8441 10.545 16.0041 10.32 16.0798C9.80591 16.1294 9.32591 16.0761 8.88 15.9198C9.37736 15.9575 9.85736 15.9042 10.32 15.7598C10.4267 15.4398 10.5333 15.1198 10.64 14.7998Z"
            fill="#E9E6A0" />
        <path fill-rule="evenodd" clip-rule="evenodd"
            d="M16.24 14C16.8491 14.7188 17.1691 15.5722 17.2 16.56C17.36 16.56 17.52 16.56 17.68 16.56C17.68 16.1333 17.68 15.7067 17.68 15.28C17.7867 15.28 17.8933 15.28 18 15.28C18.2464 15.6541 18.353 16.0808 18.32 16.56C18.332 16.993 18.3853 17.4197 18.48 17.84C18.5203 18.2912 18.4403 18.7178 18.24 19.12C18.2042 18.4965 18.0442 17.9098 17.76 17.36C17.7597 17.7682 17.6262 18.0882 17.36 18.32C17.2533 18.16 17.1467 18 17.04 17.84C17.0285 17.4091 16.9752 16.9824 16.88 16.56C16.8576 16.3152 16.7509 16.1552 16.56 16.08C16.5296 15.3724 16.4229 14.6791 16.24 14Z"
            fill="#C9C124" />
        <path fill-rule="evenodd" clip-rule="evenodd"
            d="M17.84 13.5195C18.0756 13.8528 18.2624 14.2262 18.4 14.6395C18.6553 15.6919 18.7888 16.7586 18.8 17.8395C18.7467 17.8395 18.6932 17.8395 18.64 17.8395C18.6729 17.3603 18.5664 16.9336 18.32 16.5595C18.3529 16.0803 18.2464 15.6537 18 15.2795C17.9292 14.6948 17.8758 14.1081 17.84 13.5195Z"
            fill="#FDFCDE" />
        <path fill-rule="evenodd" clip-rule="evenodd"
            d="M25.84 8.87988C25.84 11.2799 25.84 13.6799 25.84 16.0799C25.3235 15.9337 24.7902 15.8803 24.24 15.9199C24.24 16.2399 24.24 16.5599 24.24 16.8799C24.24 17.1999 24.24 17.5199 24.24 17.8399C23.7851 18.6186 23.5186 19.4719 23.44 20.3999C23.3867 20.3999 23.3333 20.3999 23.28 20.3999C23.0336 20.774 22.927 21.2007 22.96 21.6799C22.3461 22.0882 22.0795 22.6749 22.16 23.4399C21.8398 24.2484 21.5198 25.0484 21.2 25.8399C20.5067 25.8399 19.8133 25.8399 19.12 25.8399C19.6546 25.47 20.0813 24.99 20.4 24.3999C20.8454 23.7751 21.1654 23.0818 21.36 22.3199C21.5872 21.6664 21.8539 21.0264 22.16 20.3999C22.7371 19.2151 23.0038 17.9351 22.96 16.5599C22.96 16.4532 22.96 16.3466 22.96 16.2399C23.1293 16.0639 23.2627 15.8505 23.36 15.5999C23.6528 14.3787 23.9461 13.152 24.24 11.9199C24.3675 11.3242 24.5275 10.7375 24.72 10.1599C25.0962 9.72169 25.4694 9.29502 25.84 8.87988Z"
            fill="#F7FCF7" />
        <path fill-rule="evenodd" clip-rule="evenodd"
            d="M14.4801 12.7197C15.0504 14.3634 15.4237 16.0701 15.6001 17.8397C15.4737 17.6623 15.3937 17.449 15.3601 17.1997C15.3334 17.4397 15.3067 17.6797 15.2801 17.9197C15.3808 18.4364 15.4608 18.9429 15.5201 19.4397C15.2993 19.0304 15.0593 19.0304 14.8001 19.4397C14.6333 18.87 14.4199 18.3367 14.1601 17.8397C14.0398 17.4004 13.8798 16.9736 13.6801 16.5597C13.6801 16.2397 13.6801 15.9197 13.6801 15.5997C13.7894 15.3315 14.0027 15.2248 14.3201 15.2797C14.2781 15.0433 14.3315 14.8299 14.4801 14.6397C14.565 15.0555 14.5917 15.4822 14.5601 15.9197C14.7271 16.2741 14.8337 16.6474 14.8801 17.0397C14.9067 16.853 14.9334 16.6664 14.9601 16.4797C14.8363 15.2134 14.6763 13.9601 14.4801 12.7197Z"
            fill="#20BDBC" />
        <path fill-rule="evenodd" clip-rule="evenodd"
            d="M22.64 14.9598C22.5061 15.9245 22.3461 16.8844 22.16 17.8398C22 17.8398 21.84 17.8398 21.68 17.8398C21.68 18.2665 21.68 18.6931 21.68 19.1198C21.84 19.1198 22 19.1198 22.16 19.1198C22.1341 18.7955 22.1608 18.4755 22.24 18.1598C22.3013 18.2488 22.3813 18.302 22.48 18.3198C22.3733 19.0131 22.2667 19.7065 22.16 20.3998C21.8539 21.0264 21.5872 21.6664 21.36 22.3198C21.3859 21.9955 21.3592 21.6755 21.28 21.3598C21.1182 21.2259 20.9315 21.1726 20.72 21.1998C20.8179 20.6884 20.8179 20.2084 20.72 19.7598C20.9414 18.8656 21.1014 17.959 21.2 17.0398C21.3446 16.9264 21.3979 16.7664 21.36 16.5598C21.5121 16.7868 21.5654 17.0534 21.52 17.3598C21.68 17.3598 21.84 17.3598 22 17.3598C22.0301 16.4756 22.1901 15.6223 22.48 14.7998C22.5771 14.8196 22.6304 14.8729 22.64 14.9598Z"
            fill="#22B4B5" />
        <path fill-rule="evenodd" clip-rule="evenodd"
            d="M25.84 6.16016C25.8932 6.16016 25.9467 6.16016 26 6.16016C26 12.7735 26 19.3869 26 26.0002C19.28 26.0002 12.56 26.0002 5.83997 26.0002C5.83997 22.6402 5.83997 19.2802 5.83997 15.9202C5.94664 15.9202 5.99997 15.9735 5.99997 16.0802C5.99997 19.3334 5.99997 22.5869 5.99997 25.8402C9.51997 25.8402 13.04 25.8402 16.56 25.8402C16.8664 25.8856 17.1329 25.8323 17.36 25.6802C17.9302 25.8278 18.5169 25.8811 19.12 25.8402C19.8132 25.8402 20.5067 25.8402 21.2 25.8402C21.4667 25.8402 21.7332 25.8402 22 25.8402C22.16 25.8402 22.32 25.8402 22.48 25.8402C23.6 25.8402 24.72 25.8402 25.84 25.8402C25.84 23.6002 25.84 21.3602 25.84 19.1202C25.84 18.4269 25.84 17.7334 25.84 17.0402C25.84 16.7202 25.84 16.4002 25.84 16.0802C25.84 13.6802 25.84 11.2802 25.84 8.88016C25.84 8.02683 25.84 7.17348 25.84 6.32016C25.84 6.26683 25.84 6.21348 25.84 6.16016Z"
            fill="#B8BEBD" />
        <path fill-rule="evenodd" clip-rule="evenodd"
            d="M24.24 22.96C24.1021 23.651 23.8621 24.291 23.52 24.88C23.1456 25.0628 22.7989 25.3828 22.48 25.84C22.32 25.84 22.16 25.84 22 25.84C22.2622 25.6843 22.4757 25.471 22.64 25.2C23.1773 24.4411 23.7107 23.6944 24.24 22.96Z"
            fill="#F6F2C5" />
        <path fill-rule="evenodd" clip-rule="evenodd"
            d="M15.4399 22.96C15.7016 23.3833 15.9683 23.81 16.2399 24.24C16.431 24.858 16.8043 25.338 17.3599 25.68C17.1329 25.8321 16.8663 25.8854 16.5599 25.84C16.5067 25.1467 16.1332 24.7732 15.4399 24.72C15.5339 24.1486 15.5339 23.562 15.4399 22.96Z"
            fill="#DDF7F6" />
        <path fill-rule="evenodd" clip-rule="evenodd"
            d="M24.88 20.4004C24.7853 20.8207 24.732 21.2474 24.72 21.6804C24.561 22.1002 24.401 22.5268 24.24 22.9604C23.7107 23.6948 23.1773 24.4415 22.64 25.2004C23.0215 24.2774 23.4482 23.3706 23.92 22.4804C24.0387 22.3545 24.172 22.2479 24.32 22.1604C24.3098 21.4918 24.4963 20.9052 24.88 20.4004Z"
            fill="#B3AD2E" />
        <path fill-rule="evenodd" clip-rule="evenodd"
            d="M20.08 21.6797C20.2933 21.6797 20.5068 21.6797 20.72 21.6797C20.6911 22.1432 20.7444 22.5965 20.88 23.0397C20.6498 23.4725 20.4898 23.9258 20.4 24.3997C20.0813 24.9898 19.6546 25.4698 19.12 25.8397C18.517 25.8806 17.9303 25.8274 17.36 25.6797C16.8044 25.3378 16.4311 24.8578 16.24 24.2397C16.2792 23.7013 16.1725 23.1946 15.92 22.7197C16.0743 22.304 16.3408 22.224 16.72 22.4797C16.9304 22.8427 17.1172 23.216 17.28 23.5997C17.3245 23.4531 17.4045 23.3466 17.52 23.2797C18.0228 23.6734 18.556 23.7002 19.12 23.3597C19.4554 22.805 19.7754 22.245 20.08 21.6797Z"
            fill="#17A3A3" />
        <path fill-rule="evenodd" clip-rule="evenodd"
            d="M20.08 21.6797C19.7754 22.245 19.4554 22.805 19.12 23.3597C18.556 23.7002 18.0228 23.6734 17.52 23.2797C17.2325 22.9702 17.0725 22.597 17.04 22.1597C17.2682 22.575 17.5882 22.9218 18 23.1997C18.4532 23.2518 18.8799 23.1718 19.28 22.9597C19.2282 22.3138 19.4948 21.8872 20.08 21.6797Z"
            fill="#D5F9F8" />
        <path fill-rule="evenodd" clip-rule="evenodd"
            d="M22.96 21.6797C22.8453 22.3475 22.5786 22.9341 22.16 23.4397C22.0795 22.6747 22.3461 22.088 22.96 21.6797Z"
            fill="#F9F6D1" />
        <path fill-rule="evenodd" clip-rule="evenodd"
            d="M19.12 19.1201C19.3787 19.2944 19.512 19.5611 19.52 19.9201C19.5998 20.5044 19.6264 21.091 19.6 21.6801C18.9897 21.7043 18.723 22.0243 18.8 22.6401C18.5332 22.6401 18.2667 22.6401 18 22.6401C17.9793 22.3656 17.926 22.0988 17.84 21.8401C17.9467 21.8934 18.0532 21.9468 18.16 22.0001C18.6067 22.0078 18.9 21.7945 19.04 21.3601C19.1198 20.6153 19.1465 19.8688 19.12 19.1201Z"
            fill="#FBF9E3" />
        <path fill-rule="evenodd" clip-rule="evenodd"
            d="M15.6 17.8402C15.7706 18.7396 16.0373 19.5928 16.4 20.4002C16.4693 20.8268 16.5493 21.2533 16.64 21.6802C16.7004 21.9109 16.8336 22.0709 17.04 22.1602C17.0725 22.5975 17.2325 22.9708 17.52 23.2802C17.4045 23.3471 17.3245 23.4536 17.28 23.6002C17.1172 23.2165 16.9304 22.8432 16.72 22.4802C16.3408 22.2245 16.0743 22.3045 15.92 22.7202C16.1725 23.1951 16.2792 23.7018 16.24 24.2402C15.9684 23.8103 15.7017 23.3836 15.44 22.9602C15.3394 22.4967 15.1794 22.07 14.96 21.6802C14.8056 20.9024 14.5923 20.1557 14.32 19.4402C14.32 19.3335 14.32 19.2269 14.32 19.1202C14.2667 18.6935 14.2134 18.2669 14.16 17.8402C14.4199 18.3372 14.6332 18.8704 14.8 19.4402C15.0593 19.0309 15.2993 19.0309 15.52 19.4402C15.4608 18.9434 15.3808 18.4368 15.28 17.9202C15.3067 17.6802 15.3334 17.4402 15.36 17.2002C15.3936 17.4495 15.4736 17.6628 15.6 17.8402Z"
            fill="#23ADAA" />
        <path fill-rule="evenodd" clip-rule="evenodd"
            d="M24.24 18.4805C24.3211 18.6979 24.4811 18.8579 24.72 18.9605C24.651 19.0873 24.5976 19.2208 24.56 19.3605C24.7374 19.688 24.8441 20.0345 24.88 20.4005C24.4963 20.9053 24.3097 21.4918 24.32 22.1605C24.172 22.248 24.0387 22.3545 23.92 22.4805C23.4481 23.3707 23.0214 24.2774 22.64 25.2005C22.4756 25.4715 22.2622 25.6848 22 25.8405C21.7332 25.8405 21.4667 25.8405 21.2 25.8405C21.5198 25.0489 21.8398 24.2489 22.16 23.4405C22.5785 22.9349 22.8452 22.3483 22.96 21.6805C23.2356 21.3157 23.3422 20.8889 23.28 20.4005C23.3332 20.4005 23.3867 20.4005 23.44 20.4005C23.7067 19.7605 23.9732 19.1205 24.24 18.4805Z"
            fill="#BAA913" />
        <path fill-rule="evenodd" clip-rule="evenodd"
            d="M23.2799 20.4004C23.3422 20.8889 23.2356 21.3156 22.9599 21.6804C22.927 21.2012 23.0335 20.7745 23.2799 20.4004Z"
            fill="#EAE697" />
        <path fill-rule="evenodd" clip-rule="evenodd"
            d="M20.72 19.7598C20.8179 20.2084 20.8179 20.6884 20.72 21.1998C20.9315 21.1726 21.1182 21.2258 21.28 21.3598C21.3592 21.6754 21.3859 21.9954 21.36 22.3198C21.1654 23.0817 20.8454 23.775 20.4 24.3998C20.4897 23.9258 20.6497 23.4726 20.88 23.0398C20.7443 22.5966 20.691 22.1433 20.72 21.6798C20.5067 21.6798 20.2932 21.6798 20.08 21.6798C20.1867 21.253 20.2932 20.8265 20.4 20.3998C20.5878 20.2375 20.6944 20.0242 20.72 19.7598Z"
            fill="#2AA6AE" />
        <path fill-rule="evenodd" clip-rule="evenodd"
            d="M18.64 17.8398C18.6933 17.8398 18.7467 17.8398 18.8 17.8398C18.7142 18.3515 18.821 18.7782 19.12 19.1198C19.1466 19.8685 19.1198 20.615 19.04 21.3598C18.9 21.7942 18.6067 22.0075 18.16 21.9998C18.1509 21.8224 18.0976 21.6624 18 21.5198C18.2667 21.5198 18.5333 21.5198 18.8 21.5198C18.8192 21.248 18.8726 20.9814 18.96 20.7198C18.6826 19.7814 18.576 18.8214 18.64 17.8398Z"
            fill="#BDB33B" />
        <path fill-rule="evenodd" clip-rule="evenodd"
            d="M14.3199 19.4404C14.5922 20.1559 14.8055 20.9027 14.9599 21.6804C14.8296 21.5318 14.6962 21.3718 14.5599 21.2004C14.4722 20.6132 14.3922 20.0265 14.3199 19.4404Z"
            fill="#C5F4F5" />
        <path fill-rule="evenodd" clip-rule="evenodd"
            d="M24.88 20.4004C24.9333 20.4004 24.9867 20.4004 25.04 20.4004C25.0296 20.8689 24.9229 21.2956 24.72 21.6804C24.732 21.2474 24.7853 20.8207 24.88 20.4004Z"
            fill="#ECEAA9" />
        <path fill-rule="evenodd" clip-rule="evenodd"
            d="M17.04 17.8398C17.1468 17.9998 17.2533 18.1598 17.36 18.3198C17.5239 19.4008 17.7372 20.4675 18 21.5198C18.0976 21.6624 18.1509 21.8224 18.16 21.9998C18.0533 21.9466 17.9468 21.8931 17.84 21.8398C17.4184 20.5362 17.1517 19.2029 17.04 17.8398Z"
            fill="#F5EFC0" />
        <path fill-rule="evenodd" clip-rule="evenodd"
            d="M25.68 17.04C25.7333 17.04 25.7868 17.04 25.84 17.04C25.84 17.7333 25.84 18.4268 25.84 19.12C25.6098 19.553 25.3431 19.9797 25.04 20.4C25.2789 19.2845 25.4924 18.1645 25.68 17.04Z"
            fill="#F6F3C3" />
        <path fill-rule="evenodd" clip-rule="evenodd"
            d="M24.2399 17.8398C24.2399 18.0531 24.2399 18.2666 24.2399 18.4798C23.9732 19.1198 23.7067 19.7598 23.4399 20.3998C23.5185 19.4718 23.7851 18.6186 24.2399 17.8398Z"
            fill="#D9D879" />
        <path fill-rule="evenodd" clip-rule="evenodd"
            d="M18.48 17.8404C18.5333 17.8404 18.5867 17.8404 18.64 17.8404C18.576 18.822 18.6825 19.782 18.96 20.7204C18.8726 20.982 18.8192 21.2485 18.8 21.5204C18.5333 21.5204 18.2667 21.5204 18 21.5204C17.7371 20.468 17.5238 19.4013 17.36 18.3204C17.6262 18.0885 17.7597 17.7685 17.76 17.3604C18.0441 17.9101 18.2041 18.4968 18.24 19.1204C18.4403 18.7181 18.5203 18.2916 18.48 17.8404Z"
            fill="#BDB213" />
        <path fill-rule="evenodd" clip-rule="evenodd"
            d="M25.84 19.1201C25.84 21.3601 25.84 23.6001 25.84 25.8401C24.72 25.8401 23.6 25.8401 22.48 25.8401C22.7989 25.383 23.1456 25.063 23.52 24.8801C23.8621 24.2912 24.1021 23.6512 24.24 22.9601C24.4009 22.5265 24.5609 22.1 24.72 21.6801C24.9229 21.2953 25.0296 20.8686 25.04 20.4001C25.343 19.9798 25.6097 19.5531 25.84 19.1201Z"
            fill="#FDFDFA" />
        <path fill-rule="evenodd" clip-rule="evenodd"
            d="M22.96 16.5596C23.0039 17.9348 22.7372 19.2148 22.16 20.3996C22.2668 19.7063 22.3733 19.0129 22.48 18.3196C22.6229 17.729 22.7829 17.1423 22.96 16.5596Z"
            fill="#D2F9F9" />
        <path fill-rule="evenodd" clip-rule="evenodd"
            d="M21.2 17.04C21.1015 17.9592 20.9415 18.8658 20.72 19.76C20.6944 20.0245 20.5879 20.2378 20.4 20.4C20.4176 19.1928 20.6843 18.0728 21.2 17.04Z"
            fill="#D5FBFA" />
        <path fill-rule="evenodd" clip-rule="evenodd"
            d="M18.8 17.8398C18.965 18.2336 19.0717 18.6602 19.12 19.1198C18.821 18.7782 18.7143 18.3515 18.8 17.8398Z"
            fill="#F5F1C0" />
        <path fill-rule="evenodd" clip-rule="evenodd"
            d="M13.6801 16.5596C13.8798 16.9735 14.0398 17.4002 14.1601 17.8396C14.2134 18.2663 14.2667 18.6929 14.3201 19.1196C14.1601 19.1196 14.0001 19.1196 13.8401 19.1196C13.8445 18.2617 13.7911 17.4084 13.6801 16.5596Z"
            fill="#C8F3F2" />
        <path fill-rule="evenodd" clip-rule="evenodd"
            d="M25.68 17.0398C25.4923 18.1643 25.2789 19.2843 25.04 20.3998C24.9867 20.3998 24.9333 20.3998 24.88 20.3998C24.8442 20.0339 24.7374 19.6873 24.56 19.3598C24.5976 19.2201 24.651 19.0867 24.72 18.9598C24.4811 18.8572 24.3211 18.6972 24.24 18.4798C24.24 18.2665 24.24 18.0531 24.24 17.8398C24.24 17.5198 24.24 17.1998 24.24 16.8798C24.6259 16.8487 24.7859 16.6355 24.72 16.2398C25.3696 16.1355 25.6896 16.4022 25.68 17.0398Z"
            fill="#C3BA1A" />
        <path fill-rule="evenodd" clip-rule="evenodd"
            d="M18.3199 16.5596C18.5663 16.9337 18.6729 17.3604 18.6399 17.8396C18.5867 17.8396 18.5332 17.8396 18.4799 17.8396C18.3852 17.4193 18.3319 16.9925 18.3199 16.5596Z"
            fill="#D9D777" />
        <path fill-rule="evenodd" clip-rule="evenodd"
            d="M16.5601 16.0801C16.7509 16.1553 16.8577 16.3153 16.8801 16.5601C16.9753 16.9825 17.0285 17.4092 17.0401 17.8401C16.8089 17.2902 16.6489 16.7036 16.5601 16.0801Z"
            fill="#F4EFAF" />
        <path fill-rule="evenodd" clip-rule="evenodd"
            d="M25.84 16.0798C25.84 16.3998 25.84 16.7198 25.84 17.0398C25.7867 17.0398 25.7333 17.0398 25.68 17.0398C25.6896 16.4022 25.3696 16.1355 24.72 16.2398C24.7859 16.6355 24.6259 16.8488 24.24 16.8798C24.24 16.5598 24.24 16.2398 24.24 15.9198C24.7902 15.8803 25.3235 15.9337 25.84 16.0798Z"
            fill="#CECD4D" />
    </g>
    <defs>
        <clipPath id="clip0_2848_69">
            <rect width="32" height="32" fill="white" />
        </clipPath>
    </defs>
</svg>