<svg width="32" height="32" viewBox="0 0 204 192" fill="none" xmlns="http://www.w3.org/2000/svg">
    <g clip-path="url(#clip0_1613_45)">
        <path fill-rule="evenodd" clip-rule="evenodd"
            d="M-0.5 79.5C-0.5 35.3172 35.3172 -0.5 79.5 -0.5C94.1667 -0.5 108.833 -0.5 123.5 -0.5C167.683 -0.5 203.5 35.3172 203.5 79.5C203.5 90.1667 203.5 100.833 203.5 111.5C203.5 155.683 167.683 191.5 123.5 191.5C108.833 191.5 94.1667 191.5 79.5 191.5C35.3172 191.5 -0.5 155.683 -0.5 111.5C-0.5 100.833 -0.5 90.1667 -0.5 79.5Z"
            fill="#EFDA4F" />
        <path fill-rule="evenodd" clip-rule="evenodd"
            d="M91.5 87.5C91.5 87.8333 91.5 88.1667 91.5 88.5C91.6662 111.775 91.5009 135.047 91.0039 158.317C91.0013 158.438 90.9773 158.578 90.9369 158.693V158.693C90.5912 159.674 89.5349 159.161 89.5621 158.121C90.1815 134.45 90.8274 110.909 91.5 87.5Z"
            fill="#B9A944" />
        <path fill-rule="evenodd" clip-rule="evenodd"
            d="M92 88.5C91.7239 88.5 91.5 88.2761 91.5 88V88C91.5 87.7239 91.7239 87.5 92 87.5C95.0222 87.5 98.0446 87.5 101.067 87.5C106.298 87.5 110.563 91.7017 110.597 96.9327C110.73 117.251 110.364 137.44 109.5 157.5C109.5 137.5 109.5 117.5 109.5 97.5C109.5 92.5294 105.471 88.5 100.5 88.5C97.6667 88.5 94.8333 88.5 92 88.5Z"
            fill="#716938" />
        <path fill-rule="evenodd" clip-rule="evenodd"
            d="M139.991 78.5578C144.681 75.8671 150.241 75.1265 155.621 75.665C160.978 76.2013 166.142 77.5944 171.111 79.8445C172.719 80.5726 174.234 81.5127 175.497 82.7459C176.743 83.9625 177.83 85.2935 178.759 86.7389C180.06 88.765 180.484 91.6349 178.5 92.9999V92.9999C177.075 93.8422 175.649 94.6844 174.224 95.5266C170.238 97.882 165.219 97.2637 161.523 94.4742V94.4742C160.209 93.4818 158.648 92.8483 157.005 92.7229C153.879 92.4841 151.416 92.7478 149.614 93.5142C140.237 97.5042 153.103 109.874 162.249 114.37C164.694 115.571 167.137 116.784 169.58 118.009C173.522 119.985 177.377 122.266 180.337 125.535C186.627 132.482 188.779 140.249 186.793 148.834C185.236 155.569 180.864 161.455 175.022 165.149C167.344 170.005 158.503 171.622 148.5 170C138.923 169.063 131.386 165.196 125.89 158.398C122.951 154.763 124.4 149.567 128.368 147.098V147.098C132.579 144.478 137.951 146.047 141.81 149.163C146.208 152.714 151.477 154.199 157.617 153.618C160.213 153.372 162.75 152.469 164.776 150.825C166.769 149.207 167.946 147.493 168.307 145.682C169.768 138.346 160.01 134.464 153.252 131.258C151.113 130.242 148.981 129.215 146.858 128.175C141.282 125.446 135.759 122.235 132.084 117.233C126.774 110.004 125.488 101.988 128.227 93.1832C129.658 88.5811 132.289 84.3499 136.018 81.2971C137.27 80.2726 138.594 79.3595 139.991 78.5578Z"
            fill="#323230" />
        <path fill-rule="evenodd" clip-rule="evenodd"
            d="M91.5478 86.532C91.5306 81.5542 95.5543 77.5 100.532 77.5V77.5C105.485 77.5 109.5 81.5151 109.5 86.4679C109.5 106.479 109.5 126.489 109.5 146.5C108.233 159.935 100.9 167.769 87.5 170C75.1659 171.815 65.3753 168.532 58.1282 160.149C55.1092 156.657 56.3103 151.432 60.2544 149.033V149.033C64.6381 146.367 69.948 148.969 74.2389 151.782C77.0138 153.602 80.3901 154.166 84.3676 153.475C85.7838 153.229 87.1051 152.548 88.0524 151.467C88.2252 151.27 88.3918 151.069 88.5524 150.864C89.226 150.006 90.0728 149.314 90.6244 148.373V148.373C90.9266 147.858 91.0065 147.197 91.0191 146.6C91.4408 126.579 91.617 106.556 91.5478 86.532Z"
            fill="#303230" />
    </g>
    <defs>
        <clipPath id="clip0_1613_45">
            <rect width="204" height="192" rx="50" fill="white" />
        </clipPath>
    </defs>
</svg>