<svg width="32" height="32" viewBox="0 0 32 32" fill="none" xmlns="http://www.w3.org/2000/svg">
    <rect width="32" height="32" fill="#FAFAFA" />
    <path
        d="M2.07444 18.2124C3.35461 18.2124 4.11379 17.4279 4.11379 16.2819C4.11379 14.1488 1.49181 14.3515 1.49181 13.4524C1.49181 13.091 1.75673 12.9236 2.06575 12.9236C2.39231 12.9236 2.65723 13.0822 2.65723 13.3554V13.8314H4.02543V13.4436C4.02543 12.3858 3.32805 11.6895 2.07444 11.6895C0.803283 11.6895 0.114755 12.4564 0.114755 13.5228C0.114755 15.5504 2.73657 15.2858 2.73657 16.4053C2.73657 16.8285 2.40116 17.0136 2.10099 17.0136C1.72132 17.0136 1.36837 16.8198 1.36837 16.3701V15.9822H0V16.229C0 17.4191 0.79443 18.2124 2.07444 18.2124Z"
        fill="#0A1232" />
    <path
        d="M6.6121 11.8223H4.52881V18.0808H5.89701V16.0533H6.62095C7.71555 16.0533 8.48358 15.3481 8.48358 14.3345V13.5322C8.48358 12.5273 7.70669 11.8223 6.6121 11.8223ZM7.11522 14.3962C7.11522 14.6517 6.95636 14.8192 6.70046 14.8192H5.89701V13.0562H6.70915C6.95636 13.0562 7.11522 13.2238 7.11522 13.4705V14.3962Z"
        fill="#0A1232" />
    <path d="M10.1872 16.8467V11.8223H8.81885V18.0808H12.0764V16.8467H10.1872Z" fill="#0A1232" />
    <path d="M13.6831 11.8223H12.3149V18.0808H13.6831V11.8223Z" fill="#0A1232" />
    <path
        d="M23.0753 15.113V13.8789H19.8354V20.1375H23.0753V18.9034H21.2037V17.7135H22.7222V16.4794H21.2037V15.113H23.0753Z"
        fill="#0A1232" />
    <path
        d="M26.1208 20.1375H27.5508L26.7387 17.4931C27.1271 17.1934 27.3654 16.7262 27.3654 16.1708V15.589C27.3654 14.5753 26.5887 13.8789 25.4939 13.8789H23.4106V20.1375H24.7788V17.8809H25.4321L26.1208 20.1375ZM24.7788 15.113H25.5911C25.8382 15.113 25.9972 15.2716 25.9972 15.5273V16.2325C25.9972 16.4882 25.8382 16.6468 25.5823 16.6468H24.7788V15.113Z"
        fill="#0A1232" />
    <path
        d="M29.9258 20.271C31.1881 20.271 32.0002 19.5394 32.0002 18.4903V15.5286C32.0002 14.4796 31.1793 13.748 29.9169 13.748C28.6456 13.748 27.8335 14.4796 27.8335 15.5286V18.4903C27.8335 19.5394 28.6545 20.271 29.9258 20.271ZM29.9169 19.0369C29.4137 19.0369 29.2019 18.8254 29.2019 18.508V15.5109C29.2019 15.1936 29.4137 14.982 29.9258 14.982C30.4201 14.982 30.632 15.1936 30.632 15.5109V18.508C30.632 18.8254 30.4201 19.0369 29.9169 19.0369Z"
        fill="#0A1232" />
    <path d="M14.4004 19.3145H0V20.1378H14.4004V19.3145Z" fill="#238ECE" />
    <path d="M32.0001 11.8203H18.6372V12.6437H32.0001V11.8203Z" fill="#238ECE" />
    <path
        d="M16.5434 18.0808H15.6924L16.5434 16.5917V18.0808ZM17.8411 11.8223V13.0562H16.5434V15.371L15.1752 17.7649V13.0562H13.8687V11.8223H17.8411Z"
        fill="#0A1232" />
    <path
        d="M17.964 13.8789H19.3322V20.1375H17.964V17.7135H16.5427V20.1375H15.1743V18.986L16.6071 16.4794H17.964V13.8789ZM16.5427 15.3715L15.1743 17.7654V13.8789H16.5427V15.3715Z"
        fill="#0A1232" />
</svg>