<svg width="32" height="32" viewBox="0 0 34 34" fill="none" xmlns="http://www.w3.org/2000/svg">
    <path fill-rule="evenodd" clip-rule="evenodd"
        d="M7.39305 12.7793C3.06615 12.7793 0 16.6993 0 20.8893V28.9993H19.8392C24.1661 28.9993 27.2423 25.0693 27.2423 20.8793C27.2222 16.6993 24.1762 12.7793 19.8291 12.7793H7.39305Z"
        fill="#007FFF" />
    <path fill-rule="evenodd" clip-rule="evenodd"
        d="M6.32373 13.1C6.32373 8.8 9.47057 5 13.6361 5H33.9998V13.13C33.9998 17.43 31.0244 21.21 26.8589 21.21H13.6361C9.46048 21.21 6.3439 17.4 6.32373 13.11V13.1Z"
        fill="#CCE5FF" />
    <path fill-rule="evenodd" clip-rule="evenodd"
        d="M6.33398 12.8595C6.33398 12.9395 6.33398 13.0195 6.33398 13.0995C6.35416 17.3995 9.47074 21.1995 13.6464 21.1995H26.8691C27.0002 21.1995 27.1213 21.1995 27.2423 21.1895C27.2423 21.0795 27.2423 20.9795 27.2423 20.8695C27.2221 16.6895 24.1762 12.7695 19.8291 12.7695H7.39302C7.02992 12.7695 6.67691 12.7995 6.33398 12.8495V12.8595Z"
        fill="#4DA5FF" />
</svg>