<svg width="32" height="32" viewBox="0 0 32 32" fill="none" xmlns="http://www.w3.org/2000/svg">
    <rect width="32" height="32" rx="16" fill="#4684FF" />
    <path
        d="M8.11299 21.4345C5.08461 21.4345 2.97243 19.6793 2.83984 17.448H5.91198C6.02203 18.3606 6.87061 19.0516 8.09045 19.0516C9.28377 19.0516 9.94673 18.5096 9.94673 17.816C9.94275 15.6704 3.12359 17.0419 3.12359 12.6361C3.12359 10.6436 4.90959 9.04004 7.89687 9.04004C10.8139 9.04004 12.5813 10.6225 12.7563 13.0054H9.83933C9.75182 12.073 9.01196 11.4453 7.81334 11.4453C6.67968 11.4453 6.08965 11.9003 6.08965 12.5939C6.08965 14.7816 12.7776 13.4168 12.8651 17.816C12.8624 19.8744 11.0605 21.4345 8.11299 21.4345Z"
        fill="#FAFAFA" />
    <path
        d="M20.2095 9.06152C22.018 9.06152 23.3479 9.86329 24.0878 10.7956V9.23559H27.1599V26.9602H24.0838V19.5926C23.3439 20.546 21.9703 21.4137 20.1405 21.4137C17.0909 21.4137 14.585 18.9003 14.585 15.2159C14.585 11.5314 17.0896 9.06152 20.2095 9.06152ZM20.8857 11.7055C19.3171 11.7055 17.7035 12.8923 17.7035 15.2159C17.7035 17.5394 19.3158 18.7698 20.8857 18.7698C22.4768 18.7698 24.0878 17.5566 24.0878 15.237C24.0878 12.9174 22.4715 11.7055 20.8817 11.7055H20.8857Z"
        fill="#FAFAFA" />
</svg>