<svg width="32" height="32" viewBox="0 0 32 32" fill="none" xmlns="http://www.w3.org/2000/svg">
<path fill-rule="evenodd" clip-rule="evenodd" d="M3.9292 0.187134C4.36135 0.0629145 4.8291 0.000542689 5.33246 0C5.88056 0.00464093 6.34831 0.129385 6.73573 0.374268C5.81189 0.20727 4.87638 0.144898 3.9292 0.187134Z" fill="#B0C9D2"/>
<path fill-rule="evenodd" clip-rule="evenodd" d="M28.0653 0.561464C26.5608 0.0819882 25.064 0.0819882 23.5748 0.561464C23.5973 0.358198 23.7221 0.233455 23.949 0.187195C25.1326 -0.0536093 26.3176 -0.0536093 27.504 0.187195C27.7902 0.213375 27.9773 0.338119 28.0653 0.561464Z" fill="#B6CDD5"/>
<path fill-rule="evenodd" clip-rule="evenodd" d="M3.92921 0.187106C4.8764 0.14487 5.81191 0.207242 6.73574 0.37424C7.05355 0.396771 7.36539 0.459143 7.67125 0.561375C9.40613 1.63609 10.9653 2.91485 12.3488 4.39763C16.0289 7.50026 19.6463 10.6504 23.2007 13.8479C23.7281 15.35 23.1979 16.2232 21.6103 16.4678C21.2105 16.3598 20.8051 16.2975 20.3942 16.2807C20.0396 15.9548 19.6031 15.7677 19.0845 15.7192C18.5855 15.6569 18.0866 15.5944 17.5876 15.5321C17.3008 15.2056 16.9266 15.0184 16.465 14.9707C15.7282 15.0512 15.0734 14.864 14.5005 14.4093C12.214 13.8909 9.93756 13.3296 7.67125 12.7251C5.14023 11.8383 3.01973 10.4036 1.30979 8.42101C0.207869 6.81286 -0.0727838 5.06626 0.467828 3.18125C1.13666 1.60689 2.29046 0.608851 3.92921 0.187106Z" fill="#0D5E79"/>
<path fill-rule="evenodd" clip-rule="evenodd" d="M28.0652 0.561389C29.9041 1.27785 31.0892 2.58779 31.6202 4.49121C31.8684 5.68911 31.8061 6.87429 31.4331 8.04676C30.9168 9.04849 30.1684 9.79702 29.1878 10.2924C28.2832 11.3847 27.1293 12.0709 25.7265 12.3508C25.3049 12.3263 24.8997 12.2327 24.5103 12.0701C23.5636 11.0611 22.5034 10.1878 21.3296 9.45026C19.4363 7.46718 19.1556 5.25277 20.4876 2.807C21.3324 1.80622 22.3614 1.05769 23.5748 0.561389C25.0639 0.0819134 26.5607 0.0819134 28.0652 0.561389Z" fill="#0E5E79"/>
<path fill-rule="evenodd" clip-rule="evenodd" d="M31.6202 4.49121C31.7356 4.51193 31.8292 4.5743 31.9009 4.67835C32.0386 5.68254 32.0073 6.68061 31.8073 7.67249C31.7611 7.89954 31.6363 8.02431 31.4331 8.04676C31.8062 6.87429 31.8685 5.68911 31.6202 4.49121Z" fill="#ADC6CF"/>
<path fill-rule="evenodd" clip-rule="evenodd" d="M16.465 14.9707C16.9265 15.0184 17.3007 15.2056 17.5876 15.5321C17.1002 15.5095 16.726 15.3223 16.465 14.9707Z" fill="#A5C3CD"/>
<path fill-rule="evenodd" clip-rule="evenodd" d="M31.6203 25.4503C31.8525 26.3218 31.8525 27.1949 31.6203 28.0702C31.5962 28.3913 31.5339 28.7033 31.4332 29.0058C31.0762 29.1904 30.8891 29.5021 30.8719 29.9415C30.3755 30.5295 29.7832 31.0286 29.0944 31.4386C28.825 31.5599 28.5444 31.6222 28.2525 31.6257C27.0649 31.8668 25.88 31.8668 24.6975 31.6257C23.8309 31.3525 23.0825 30.8847 22.4523 30.2222C22.275 30.1318 22.0879 30.1008 21.891 30.1287C21.891 29.9415 21.891 29.7544 21.891 29.5672C21.6942 29.5951 21.5071 29.5641 21.3297 29.4737C20.4496 28.6473 19.5764 27.8052 18.7103 26.9474C17.7632 26.3744 16.9525 25.6571 16.278 24.7953C16.0909 24.733 15.9038 24.6705 15.7167 24.6082C15.047 23.715 14.2363 22.9977 13.2843 22.4561C11.8853 21.1026 10.4509 19.7927 8.98099 18.5263C8.62735 17.8803 8.5338 17.1943 8.70034 16.4679C9.06923 15.8337 9.63053 15.5842 10.3843 15.7193C15.4875 17.033 20.5703 18.4365 25.6331 19.9298C28.3155 21.022 30.3114 22.8622 31.6203 25.4503Z" fill="#0D5E79"/>
<path fill-rule="evenodd" clip-rule="evenodd" d="M19.0844 15.7192C19.603 15.7677 20.0395 15.9548 20.3941 16.2806C19.8543 16.2539 19.4178 16.0667 19.0844 15.7192Z" fill="#9DBCC7"/>
<path fill-rule="evenodd" clip-rule="evenodd" d="M8.60666 31.4385C7.12067 31.821 5.62386 31.8833 4.11621 31.6256C3.14607 31.1859 2.24175 30.6245 1.40324 29.9414C1.24328 29.3611 0.962629 28.862 0.561277 28.4443C0.438613 28.0789 0.376252 27.7046 0.374175 27.3215C0.136668 26.3833 0.136668 25.4476 0.374175 24.5145C0.409163 24.1283 0.502714 23.754 0.654828 23.3917C2.02731 22.299 3.36822 21.1762 4.67752 20.0233C5.5403 19.8156 6.41345 19.7843 7.29694 19.9297C8.34299 20.9464 9.4656 21.8509 10.6648 22.6432C11.1611 23.2349 11.6289 23.8586 12.068 24.5145C12.6325 26.4381 12.2583 28.1223 10.9454 29.5672C10.8551 29.7446 10.8239 29.9317 10.8519 30.1286C10.655 30.1007 10.4679 30.1317 10.2906 30.2221C9.797 30.7188 9.23569 31.1241 8.60666 31.4385Z" fill="#0E5E79"/>
<path fill-rule="evenodd" clip-rule="evenodd" d="M0.374208 24.5145C0.136701 25.4476 0.136701 26.3832 0.374208 27.3215C0.258692 27.3008 0.165141 27.2385 0.0935556 27.1344C-0.0311852 26.3236 -0.0311852 25.5125 0.0935556 24.7017C0.165141 24.5976 0.258692 24.5353 0.374208 24.5145Z" fill="#90B0BC"/>
<path fill-rule="evenodd" clip-rule="evenodd" d="M31.6202 25.4502C31.9041 25.8174 32.0289 26.2539 31.9944 26.7601C32.0289 27.2663 31.9041 27.7029 31.6202 28.0701C31.8524 27.1948 31.8524 26.3217 31.6202 25.4502Z" fill="#9FBEC8"/>
<path fill-rule="evenodd" clip-rule="evenodd" d="M31.4331 29.0059C31.3864 29.4127 31.1993 29.7246 30.8718 29.9415C30.889 29.5021 31.0761 29.1904 31.4331 29.0059Z" fill="#A4C1CB"/>
<path fill-rule="evenodd" clip-rule="evenodd" d="M8.60666 31.4386C8.58594 31.5541 8.52358 31.6476 8.41955 31.7193C7.05792 31.9938 5.68585 32.0563 4.30331 31.9064C4.19928 31.8348 4.13692 31.7412 4.11621 31.6257C5.62386 31.8834 7.12067 31.8211 8.60666 31.4386Z" fill="#9FBBC5"/>
<path fill-rule="evenodd" clip-rule="evenodd" d="M24.6974 31.6257C25.8799 31.8668 27.0648 31.8668 28.2523 31.6257C28.1741 31.7608 28.0495 31.8544 27.8781 31.9064C26.8803 32.0313 25.8823 32.0313 24.8845 31.9064C24.7805 31.8348 24.7182 31.7412 24.6974 31.6257Z" fill="#95B2BD"/>
</svg>
