<svg width="32" height="32" viewBox="0 0 32 32" fill="none" xmlns="http://www.w3.org/2000/svg">
    <path opacity="0.714" fill-rule="evenodd" clip-rule="evenodd"
        d="M15.6735 0.633789C16.3266 0.633789 16.9797 0.633789 17.6327 0.633789C21.7755 3.09446 25.966 5.52352 30.2042 7.92092C30.4219 13.2015 30.4219 18.482 30.2042 23.7625C25.966 26.1599 21.7755 28.589 17.6327 31.0496C16.9797 31.0496 16.3266 31.0496 15.6735 31.0496C11.6578 28.4659 7.52171 26.0369 3.26538 23.7625C3.26538 18.482 3.26538 13.2015 3.26538 7.92092C7.52171 5.64651 11.6578 3.21748 15.6735 0.633789Z"
        fill="#DEEFFB" />
    <path fill-rule="evenodd" clip-rule="evenodd"
        d="M16.6531 2.53467C18.0681 3.16833 19.4831 3.80199 20.898 4.43566C23.3457 6.09868 25.8491 7.68283 28.4082 9.18813C28.4082 11.6172 28.4082 14.0462 28.4082 16.4753C25.4695 16.4753 22.5307 16.4753 19.5919 16.4753C16.7819 15.1113 14.0608 13.58 11.4286 11.8812C13.2512 10.9179 15.0471 9.91463 16.8164 8.8713C18.7482 9.94036 20.653 11.0493 22.5307 12.198C23.843 12.9292 24.2783 12.6123 23.8368 11.2475C21.503 9.98382 19.1629 8.76931 16.8164 7.60397C16.0586 7.73372 15.3511 7.99773 14.694 8.39605C12.7186 9.45782 10.8683 10.6724 9.14293 12.0396C11.2177 13.5737 13.3946 14.9466 15.6735 16.1584C12.1403 16.4736 8.54845 16.5792 4.89804 16.4753C4.84372 14.0439 4.89814 11.6149 5.0613 9.18813C8.8087 6.76345 12.6726 4.54563 16.6531 2.53467Z"
        fill="#F5FAFD" />
    <path opacity="0.816" fill-rule="evenodd" clip-rule="evenodd"
        d="M16.6532 2.53461C12.6727 4.54557 8.80873 6.76339 5.06133 9.18807C4.89817 11.6148 4.84375 14.0439 4.89806 16.4752C4.84379 18.4846 4.89821 20.4912 5.06133 22.495C8.89829 24.8443 12.8167 27.0622 16.8164 29.1485C20.7831 27.0128 24.7015 24.7949 28.5715 22.495C28.8417 18.0046 28.7873 13.569 28.4083 9.18807C25.8491 7.68277 23.3457 6.09861 20.8981 4.4356C23.6266 5.78644 26.2933 7.265 28.8981 8.87124C29.1158 13.5181 29.1158 18.165 28.8981 22.8118C25.1699 25.0168 21.4148 27.1818 17.6328 29.3069C16.9797 29.5181 16.3266 29.5181 15.6736 29.3069C11.9456 27.2611 8.29931 25.0961 4.7348 22.8118C4.51711 18.165 4.51711 13.5181 4.7348 8.87124C8.40321 6.41823 12.2127 4.20041 16.1634 2.21777C16.4131 2.23993 16.5764 2.34554 16.6532 2.53461Z"
        fill="#CAE2F0" />
    <path fill-rule="evenodd" clip-rule="evenodd"
        d="M28.4082 9.18848C28.7872 13.5694 28.8416 18.005 28.5715 22.4954C24.7014 24.7954 20.783 27.0132 16.8164 29.1489C12.8166 27.0626 8.89824 24.8447 5.06128 22.4954C4.89816 20.4916 4.84374 18.485 4.89801 16.4756C8.54843 16.5795 12.1403 16.4739 15.6735 16.1588C17.841 17.2105 19.9091 18.425 21.8776 19.8023C20.2178 20.8454 18.5307 21.8487 16.8164 22.8122C14.4136 21.4096 11.9646 20.1423 9.46944 19.0103C9.39972 19.5311 9.50856 20.0063 9.79597 20.436C12.0817 21.7561 14.3674 23.0763 16.6531 24.3964C19.1822 23.1435 21.6311 21.7706 24.0001 20.2776C24.2323 19.6861 24.069 19.2109 23.5103 18.8518C22.1282 18.1312 20.8221 17.3391 19.5919 16.4756C22.5307 16.4756 25.4694 16.4756 28.4082 16.4756C28.4082 14.0466 28.4082 11.6175 28.4082 9.18848Z"
        fill="#ECF6FC" />
    <path fill-rule="evenodd" clip-rule="evenodd"
        d="M19.5918 16.4753C20.822 17.3388 22.1282 18.1309 23.5102 18.8515C24.0689 19.2106 24.2322 19.6858 24 20.2773C21.6311 21.7703 19.1821 23.1432 16.653 24.3961C14.3673 23.0759 12.0816 21.7558 9.79588 20.4357C9.50847 20.006 9.39964 19.5308 9.46935 19.0099C11.9645 20.142 14.4135 21.4093 16.8163 22.8119C18.5306 21.8484 20.2177 20.8451 21.8775 19.802C19.909 18.4247 17.8409 17.2102 15.6734 16.1585C13.3945 14.9466 11.2176 13.5737 9.14282 12.0396C10.8681 10.6724 12.7185 9.45785 14.6938 8.39608C15.351 7.99776 16.0585 7.73375 16.8163 7.604C19.1627 8.76934 21.5029 9.98385 23.8367 11.2476C24.2782 12.6124 23.8428 12.9292 22.5306 12.1981C20.6529 11.0493 18.7481 9.94038 16.8163 8.87133C15.047 9.91466 13.2511 10.918 11.4285 11.8812C14.0607 13.58 16.7817 15.1114 19.5918 16.4753Z"
        fill="#6BB5DE" />
</svg>