<svg width="32" height="32" viewBox="0 0 32 32" fill="none" xmlns="http://www.w3.org/2000/svg">
<path d="M23.0617 7.46988C19.9471 7.46988 17.4084 9.16588 16.0537 11.5659C15.7034 12.1573 15.4648 12.8082 15.3497 13.4859C15.2751 13.6245 15.2751 13.8272 15.2111 13.9765C15.1364 14.4672 15.0724 14.8939 15.0724 15.4592V15.5339C15.0724 16.7285 15.3497 17.7952 15.7764 18.8512C16.6647 17.4277 17.2662 15.8442 17.5471 14.1899V14.2539C18.0377 11.5659 20.1604 9.45388 23.0617 9.45388C26.3151 9.45388 28.7897 12.1312 28.7897 15.4592V15.5339C28.7897 18.7765 26.4537 21.4645 23.1364 21.4645C21.9911 21.4698 20.8723 21.1198 19.9343 20.4626C18.9963 19.8054 18.2852 18.8735 17.8991 17.7952C17.5471 18.7125 17.1204 19.4912 16.5551 20.1952C17.2936 21.2307 18.2701 22.0736 19.4025 22.6528C20.5349 23.232 21.7898 23.5305 23.0617 23.5232C24.1177 23.5317 25.1648 23.331 26.1428 22.9327C27.1209 22.5345 28.0103 21.9465 28.76 21.2028C29.5097 20.4591 30.1047 19.5743 30.5107 18.5995C30.9167 17.6247 31.1258 16.5792 31.1257 15.5232V15.3845C31.1174 14.335 30.902 13.2973 30.4919 12.3311C30.0819 11.3649 29.4852 10.4891 28.7361 9.75384C27.987 9.01861 27.1002 8.43841 26.1265 8.04649C25.1528 7.65457 24.1113 7.45862 23.0617 7.46988Z" fill="#01ACC2"/>
<path d="M23.0618 7.46984C21.1847 7.44911 19.362 8.09986 17.9225 9.30469C16.4829 10.5095 15.5213 12.1891 15.2111 14.0405C14.0058 20.0565 10.0485 21.1872 8.49113 21.4645H7.57379C6.74301 21.4033 5.93667 21.1558 5.21465 20.7403C4.49262 20.3248 3.87346 19.7521 3.40312 19.0645C2.68403 18.0296 2.31067 16.7938 2.33646 15.5338V15.3845C2.33646 12.0672 4.74713 9.44317 7.85113 9.44317C9.69646 9.44317 10.9658 10.2965 12.0218 11.2885C12.2351 11.4272 12.4485 11.5658 12.7365 11.5658C13.3018 11.5658 13.8671 11.0752 13.8671 10.4352C13.8671 10.0832 13.6538 9.79517 13.5151 9.6565C12.7655 8.93456 11.8794 8.36933 10.9087 7.99387C9.93796 7.61842 8.90215 7.44026 7.86179 7.46984C6.8202 7.4754 5.78998 7.68678 4.83035 8.09183C3.87073 8.49688 3.00063 9.08761 2.27007 9.83007C1.53952 10.5725 0.96292 11.452 0.573419 12.4181C0.183918 13.3841 -0.0107984 14.4176 0.000461908 15.4592V15.5338C0.000461908 19.8432 3.40313 23.5232 7.85113 23.5232H8.00046C9.58007 23.5257 11.1307 23.0995 12.4871 22.2898C13.8434 21.4802 14.9545 20.3175 15.7018 18.9258C16.5914 17.4991 17.193 15.9119 17.4725 14.2538C17.6755 12.9427 18.3453 11.749 19.3586 10.8925C20.3719 10.036 21.6605 9.57431 22.9871 9.5925C24.3129 9.60746 25.593 10.0794 26.6113 10.9286C27.6295 11.7778 28.3236 12.9523 28.5765 14.2538H30.9765C30.707 12.3543 29.7549 10.618 28.2983 9.36948C26.8417 8.12093 24.9801 7.44563 23.0618 7.46984Z" fill="#01ACC2"/>
</svg>
