<svg width="32" height="32" viewBox="0 0 32 32" fill="none" xmlns="http://www.w3.org/2000/svg">
    <g clip-path="url(#clip0_3342_2492)">
        <path d="M0 0H32V32H0V0Z" fill="#0160FF" />
        <path
            d="M24.3371 14.4009L19.9467 9.15824L22.2229 4.26758H13.8805C12.3351 4.26895 10.8221 4.71129 9.51936 5.54265C8.21659 6.37401 7.1781 7.55985 6.52586 8.96091C5.87473 10.3602 5.63587 11.9162 5.83725 13.4464C6.03863 14.9766 6.67192 16.4177 7.66293 17.6009L12.0533 22.8436L9.77706 27.7342H18.1195C19.665 27.7331 21.178 27.2909 22.4808 26.4595C23.7837 25.6281 24.8221 24.4421 25.4741 23.0409C26.1253 21.6416 26.3641 20.0857 26.1627 18.5555C25.9614 17.0253 25.3281 15.5841 24.3371 14.4009ZM23.008 21.8953C22.8812 22.1671 22.6794 22.397 22.4264 22.558C22.1734 22.719 21.8796 22.8044 21.5797 22.8041H13.5797L15.3237 19.0644L9.21386 11.7854C9.02079 11.5559 8.89733 11.2759 8.858 10.9785C8.81867 10.6812 8.86511 10.3787 8.99185 10.1069C9.1186 9.83499 9.32038 9.60499 9.57343 9.44392C9.82649 9.28286 10.1203 9.19743 10.4203 9.19771H18.4203L16.6763 12.9374L22.7861 20.2153C22.9791 20.4452 23.1025 20.7254 23.1418 21.023C23.1811 21.3206 23.1347 21.6232 23.008 21.8953Z"
            fill="#FAFAFA" />
    </g>
    <defs>
        <clipPath id="clip0_3342_2492">
            <rect width="32" height="32" fill="white" />
        </clipPath>
    </defs>
</svg>