<svg width="32" height="32" viewBox="0 0 32 32" fill="none" xmlns="http://www.w3.org/2000/svg">
    <g clip-path="url(#clip0_2039_502)">
        <path
            d="M16.0285 2.83236C18.2755 2.8366 20.4796 3.44332 22.408 4.58842L23.8174 5.2512L27.5948 4.53178L26.99 8.36679C30.2083 13.3631 29.8431 20.7215 25.5349 25.1683C23.0868 27.592 19.7784 28.9652 16.3212 28.9927C12.8639 29.0202 9.53376 27.6999 7.04678 25.3155C4.5598 22.9312 3.11456 19.6733 3.02178 16.2422C2.92899 12.8112 4.19609 9.48097 6.55062 6.9676C7.76792 5.67948 9.2351 4.64911 10.8639 3.93846C12.4927 3.2278 14.2495 2.85156 16.0285 2.83236ZM16.0285 0C13.8657 0.0145553 11.7285 0.464888 9.74617 1.32371C7.7639 2.18253 5.9779 3.43196 4.49642 4.99628C3.03183 6.50157 1.88024 8.27849 1.1074 10.2256C0.334559 12.1727 -0.0444 14.2519 -0.0078394 16.3444C0.065998 20.5704 1.82785 24.5941 4.89014 27.5305C7.95242 30.4669 12.0643 32.0754 16.3212 32.0021C20.5781 31.9288 24.6313 30.1797 27.5891 27.1397C32.4394 22.1547 33.3809 14.0258 29.9686 7.80598L30.4137 4.97362L31.0414 1.00832L27.0471 1.7504L24.194 2.28855L23.7375 2.07329C21.3974 0.718481 18.7375 0.00313171 16.0285 0Z"
            fill="#00A4FD" />
        <path
            d="M15.8802 26.7149C14.2343 26.7115 12.6129 26.3181 11.151 25.5673C9.68911 24.8165 8.42887 23.7301 7.4751 22.3984L9.79749 20.7556C10.4859 21.7212 11.3976 22.5088 12.456 23.0524C13.5143 23.596 14.6886 23.8797 15.8802 23.8797C17.0719 23.8797 18.2461 23.596 19.3045 23.0524C20.3629 22.5088 21.2745 21.7212 21.963 20.7556L24.2911 22.3984C23.3361 23.7302 22.0748 24.8166 20.612 25.5673C19.1491 26.3181 17.527 26.7115 15.8802 26.7149Z"
            fill="#00A4FD" />
    </g>
    <defs>
        <clipPath id="clip0_2039_502">
            <rect width="32" height="32" fill="white" />
        </clipPath>
    </defs>
</svg>