<svg width="32" height="32" viewBox="0 0 32 32" fill="none" xmlns="http://www.w3.org/2000/svg">
<g clip-path="url(#clip0_2719_3121)">
<path fill-rule="evenodd" clip-rule="evenodd" d="M-0.0800781 -0.0800781C6.26659 -0.0800781 12.6132 -0.0800781 18.9599 -0.0800781C18.8431 0.167128 18.6298 0.300463 18.3199 0.319922C19.2511 0.363877 20.1578 0.523877 21.0399 0.799922C21.5662 1.19633 22.1529 1.463 22.7999 1.59992C22.9338 1.76173 22.9871 1.94839 22.9599 2.15992C18.1231 -0.0262944 13.3232 0.0537056 8.55992 2.39992C4.61527 5.09003 2.32194 8.79671 1.67992 13.5199C1.20948 15.9953 1.31614 18.4486 1.99992 20.8799C2.46272 22.4458 3.10272 23.9393 3.91992 25.3599C4.81882 26.9522 6.04549 28.2322 7.59992 29.1999C8.34829 29.8414 9.20162 30.3214 10.1599 30.6399C10.2132 30.6399 10.2666 30.6399 10.3199 30.6399C12.4908 31.5353 14.7308 31.802 17.0399 31.4399C17.3066 31.4399 17.5732 31.4399 17.8399 31.4399C17.575 31.6895 17.255 31.8495 16.8799 31.9199C11.2266 31.9199 5.57325 31.9199 -0.0800781 31.9199C-0.0800781 21.2532 -0.0800781 10.5866 -0.0800781 -0.0800781Z" fill="#FCFDFD"/>
<path fill-rule="evenodd" clip-rule="evenodd" d="M18.9599 -0.0800781C23.2799 -0.0800781 27.5999 -0.0800781 31.9199 -0.0800781C31.9199 10.5866 31.9199 21.2532 31.9199 31.9199C26.9066 31.9199 21.8932 31.9199 16.8799 31.9199C17.2549 31.8495 17.5749 31.6895 17.8399 31.4399C20.7119 31.0169 23.2719 29.8969 25.5199 28.0799C25.7332 28.0799 25.9466 28.0799 26.1599 28.0799C26.1248 27.8919 26.1781 27.7319 26.3199 27.5999C26.9952 27.0582 27.582 26.4449 28.0799 25.7599C28.0266 25.7066 27.9732 25.6532 27.9199 25.5999C28.0304 25.4292 28.1104 25.2425 28.1599 25.0399C28.2132 25.0932 28.2666 25.1466 28.3199 25.1999C28.9472 24.6188 29.2405 23.9255 29.1999 23.1199C29.5386 22.2402 29.7519 21.3335 29.8399 20.3999C29.8399 20.2932 29.8399 20.1866 29.8399 20.0799C30.0471 19.4772 30.1536 18.8372 30.1599 18.1599C30.2664 17.4151 30.3197 16.6418 30.3199 15.8399C30.3551 14.7606 30.2485 13.7206 29.9999 12.7199C30.0796 12.1248 29.9461 11.5915 29.5999 11.1199C29.4472 9.88589 29.0472 8.76589 28.3999 7.75992C27.2351 5.26181 25.4218 3.39515 22.9599 2.15992C22.9871 1.94839 22.9338 1.76173 22.7999 1.59992C22.1528 1.463 21.5661 1.19633 21.0399 0.799922C20.1578 0.523877 19.2511 0.363877 18.3199 0.319922C18.6298 0.300463 18.8431 0.167128 18.9599 -0.0800781Z" fill="#FDFDFD"/>
<path fill-rule="evenodd" clip-rule="evenodd" d="M28.4 7.75996C29.0474 8.76592 29.4474 9.88592 29.6 11.12C29.9463 11.5915 30.0797 12.1249 30 12.72C29.7173 12.2665 29.4239 11.7865 29.12 11.28C28.9087 10.7399 28.8287 10.2066 28.88 9.67996C28.6888 9.96748 28.4221 10.1275 28.08 10.16C28.08 10.32 28.08 10.48 28.08 10.64C26.3733 10.64 24.6667 10.64 22.96 10.64C22.929 9.38992 22.8223 9.38992 22.64 10.64C22.8903 11.5784 22.997 12.5384 22.96 13.52C22.7056 11.4633 21.8791 9.65002 20.48 8.07996C20.4027 7.92828 20.3762 7.76828 20.4 7.59996C20.2317 7.62388 20.0717 7.5972 19.92 7.51996C19.1232 6.70386 18.1632 6.22386 17.04 6.07996C15.8512 5.95535 14.6779 6.03535 13.52 6.31996C17.2399 4.4734 21.0799 4.28674 25.04 5.75996C26.1842 6.3592 27.2509 7.0792 28.24 7.91996C28.3371 7.90018 28.3904 7.84685 28.4 7.75996Z" fill="#7F99C0"/>
<path fill-rule="evenodd" clip-rule="evenodd" d="M22.9599 13.5204C23.0834 14.1526 23.1367 14.7926 23.1199 15.4404C23.1162 16.6696 23.0627 17.8964 22.9599 19.1204C22.4546 21.304 21.4413 23.224 19.9199 24.8804C19.2351 25.2228 18.5416 25.5695 17.8399 25.9204C16.9992 26.1237 16.1459 26.2037 15.2799 26.1604C13.7243 25.2127 12.9243 23.7992 12.8799 21.9204C12.8691 21.2826 12.9757 20.6693 13.1999 20.0804C14.3242 17.8644 16.1375 16.9044 18.6399 17.2004C19.1266 17.426 19.6333 17.6392 20.1599 17.8404C20.1773 17.2352 19.9373 16.7552 19.4399 16.4004C17.5968 13.4519 14.9835 12.3585 11.5999 13.1204C10.5077 13.6273 9.5744 14.3473 8.79986 15.2804C8.72637 12.0965 9.81971 9.40312 12.0799 7.20035C12.5109 6.82491 12.9909 6.53158 13.5199 6.32035C14.6777 6.03574 15.851 5.95574 17.0399 6.08035C18.1631 6.22426 19.1231 6.70426 19.9199 7.52035C20.0715 7.5976 20.2315 7.62427 20.3999 7.60035C20.376 7.76867 20.4026 7.92867 20.4799 8.08035C21.8789 9.65042 22.7055 11.4637 22.9599 13.5204Z" fill="#FBFCFD"/>
<path fill-rule="evenodd" clip-rule="evenodd" d="M22.96 2.15991C25.422 3.39514 27.2352 5.26179 28.4 7.75991C28.3904 7.8468 28.3372 7.90013 28.24 7.91991C27.2509 7.07915 26.1842 6.35915 25.04 5.75991C21.0799 4.28669 17.2399 4.47335 13.52 6.31991C12.9911 6.53114 12.5111 6.82447 12.08 7.19991C9.8199 9.40267 8.72656 12.096 8.80005 15.2799C9.57459 14.3469 10.5079 13.6269 11.6 13.1199C14.9837 12.3581 17.597 13.4514 19.44 16.3999C19.1527 16.6069 18.8327 16.7669 18.48 16.8799C18.5381 16.9892 18.5914 17.0959 18.64 17.1999C16.1376 16.9039 14.3244 17.8639 13.2 20.0799C13.1904 19.993 13.1371 19.9397 13.04 19.9199C12.2573 20.2629 11.4573 20.5564 10.64 20.7999C9.04005 20.9066 7.44005 20.9066 5.84005 20.7999C4.46781 20.3649 3.13448 19.8581 1.84005 19.2799C1.49667 17.3689 1.44333 15.4488 1.68005 13.5199C2.32206 8.79669 4.61539 5.09002 8.56005 2.39991C13.3233 0.0536889 18.1232 -0.0263111 22.96 2.15991Z" fill="#466185"/>
<path fill-rule="evenodd" clip-rule="evenodd" d="M30.0001 12.7197C29.9737 14.0576 30.027 15.3909 30.1601 16.7197C28.8249 16.188 27.4382 15.788 26.0001 15.5197C25.0416 15.4398 24.0816 15.4131 23.1201 15.4397C23.1369 14.792 23.0837 14.152 22.9601 13.5197C22.9971 12.5381 22.8904 11.5781 22.6401 10.6397C22.8224 9.38966 22.9291 9.38966 22.9601 10.6397C24.6669 10.6397 26.3734 10.6397 28.0801 10.6397C28.0801 10.4797 28.0801 10.3197 28.0801 10.1597C28.4222 10.1272 28.6889 9.96721 28.8801 9.67969C28.8288 10.2063 28.9088 10.7396 29.1201 11.2797C29.424 11.7862 29.7174 12.2662 30.0001 12.7197Z" fill="#738FB8"/>
<path fill-rule="evenodd" clip-rule="evenodd" d="M30.0002 12.7197C30.2489 13.7204 30.3554 14.7604 30.3202 15.8397C30.3201 16.6416 30.2668 17.4149 30.1602 18.1597C30.1602 17.733 30.1602 17.3064 30.1602 16.8797C30.1602 16.8264 30.1602 16.773 30.1602 16.7197C30.0271 15.391 29.9738 14.0576 30.0002 12.7197Z" fill="#92A2B6"/>
<path fill-rule="evenodd" clip-rule="evenodd" d="M19.44 16.4004C19.9374 16.7553 20.1774 17.2353 20.16 17.8404C19.6334 17.6393 19.1267 17.426 18.64 17.2004C18.5913 17.0964 18.5381 16.9897 18.48 16.8804C18.8326 16.7674 19.1526 16.6074 19.44 16.4004Z" fill="#28415A"/>
<path fill-rule="evenodd" clip-rule="evenodd" d="M1.6802 13.5195C1.44348 15.4484 1.49682 17.3685 1.8402 19.2795C1.89353 19.8128 1.94687 20.3463 2.0002 20.8795C1.31642 18.4482 1.20975 15.9949 1.6802 13.5195Z" fill="#74879F"/>
<path fill-rule="evenodd" clip-rule="evenodd" d="M23.12 15.4396C24.0814 15.4131 25.0414 15.4397 26 15.5196C27.438 15.788 28.8248 16.188 30.16 16.7196C30.16 16.7729 30.16 16.8264 30.16 16.8796C29.9619 17.1539 29.8552 17.4739 29.84 17.8396C29.3484 17.7889 28.8684 17.8422 28.4 17.9996C28.7881 18.7822 28.7081 19.5822 28.16 20.3996C28.0804 19.9763 28.0537 19.5496 28.08 19.1196C26.3235 19.08 24.6169 19.08 22.96 19.1196C23.0628 17.8956 23.1163 16.6689 23.12 15.4396Z" fill="#2F5C8B"/>
<path fill-rule="evenodd" clip-rule="evenodd" d="M1.83984 19.2803C3.13428 19.8585 4.4676 20.3652 5.83984 20.8003C7.43984 20.907 9.03984 20.907 10.6398 20.8003C11.4571 20.5568 12.2571 20.2633 13.0398 19.9203C13.1369 19.9401 13.1902 19.9934 13.1998 20.0803C12.9757 20.6692 12.869 21.2825 12.8798 21.9203C12.9242 23.7992 13.7242 25.2126 15.2798 26.1603C15.2976 26.259 15.3509 26.339 15.4398 26.4003C15.8132 26.4536 16.1866 26.507 16.5598 26.5603C16.3618 26.6707 16.3618 26.7507 16.5598 26.8003C16.9446 27.0032 17.3714 27.1099 17.8398 27.1203C17.8398 27.2803 17.8398 27.4403 17.8398 27.6003C18.6526 27.6561 19.4526 27.6561 20.2398 27.6003C20.3816 27.7323 20.4349 27.8923 20.3998 28.0803C18.6466 28.2038 16.9398 28.0438 15.2798 27.6003C15.2798 27.7603 15.2798 27.9203 15.2798 28.0803C14.6376 28.1068 13.9976 28.0801 13.3598 28.0003C13.2265 27.7603 13.0398 27.5736 12.7998 27.4403C12.7199 25.948 12.6932 24.4545 12.7198 22.9603C11.0132 22.9603 9.30652 22.9603 7.59984 22.9603C7.59984 22.8003 7.59984 22.6403 7.59984 22.4803C8.45317 22.4803 9.30652 22.4803 10.1598 22.4803C10.1598 22.0536 10.1598 21.627 10.1598 21.2003C9.31832 21.0819 8.46498 21.0819 7.59984 21.2003C7.59984 21.4136 7.59984 21.627 7.59984 21.8403C6.74652 21.8403 5.89317 21.8403 5.03984 21.8403C4.93317 22.587 4.82652 23.3336 4.71984 24.0803C4.5001 24.0552 4.28676 24.0819 4.07984 24.1603C4.13317 24.2136 4.18652 24.267 4.23984 24.3203C4.14109 24.6846 4.03442 25.0313 3.91984 25.3603C3.10264 23.9396 2.46264 22.4462 1.99984 20.8803C1.94652 20.347 1.89317 19.8136 1.83984 19.2803Z" fill="#042B50"/>
<path fill-rule="evenodd" clip-rule="evenodd" d="M30.1599 16.8799C30.1599 17.3066 30.1599 17.7332 30.1599 18.1599C30.1537 18.8372 30.0471 19.4772 29.8399 20.0799C29.8911 19.5362 29.8378 19.0028 29.6799 18.4799C29.2918 19.8964 28.6518 21.1764 27.7599 22.3199C27.4156 22.2276 27.3623 22.0408 27.5999 21.7599C27.3012 21.6461 27.0612 21.7261 26.8799 21.9999C25.5247 21.7884 24.1647 21.7884 22.7999 21.9999C22.6798 21.8597 22.5998 21.6997 22.5599 21.5199C22.1654 22.2448 21.8188 22.9914 21.5199 23.7599C21.0775 24.2544 20.5442 24.6277 19.9199 24.8799C21.4414 23.2236 22.4546 21.3036 22.9599 19.1199C24.6169 19.0802 26.3234 19.0802 28.0799 19.1199C28.0537 19.5498 28.0804 19.9765 28.1599 20.3999C28.7081 19.5824 28.7881 18.7824 28.3999 17.9999C28.8684 17.8424 29.3484 17.7892 29.8399 17.8399C29.8551 17.4741 29.9618 17.1541 30.1599 16.8799Z" fill="#24527E"/>
<path fill-rule="evenodd" clip-rule="evenodd" d="M29.8399 20.0805C29.8399 20.1872 29.8399 20.2937 29.8399 20.4005C29.1458 23.3894 27.7058 25.9494 25.5199 28.0805C23.2719 29.8974 20.7119 31.0174 17.8399 31.4405C17.5732 31.4405 17.3066 31.4405 17.0399 31.4405C15.1595 31.5939 13.3462 31.3539 11.5999 30.7205C11.1766 30.6409 10.7499 30.6142 10.3199 30.6405C10.2666 30.6405 10.2132 30.6405 10.1599 30.6405C10.1033 30.3139 10.1033 30.0206 10.1599 29.7605C9.88317 29.4641 9.6965 29.4907 9.59992 29.8405C8.9869 29.4851 8.32023 29.2718 7.59992 29.2005C6.04549 28.2328 4.81882 26.9528 3.91992 25.3605C4.0345 25.0315 4.14117 24.6848 4.23992 24.3205C4.18659 24.2672 4.13325 24.2137 4.07992 24.1605C4.28683 24.0821 4.50018 24.0553 4.71992 24.0805C4.82659 23.3337 4.93325 22.5872 5.03992 21.8405C5.89325 21.8405 6.74659 21.8405 7.59992 21.8405C7.59992 21.6272 7.59992 21.4137 7.59992 21.2005C8.46506 21.0821 9.3184 21.0821 10.1599 21.2005C10.1599 21.6272 10.1599 22.0537 10.1599 22.4805C9.30659 22.4805 8.45325 22.4805 7.59992 22.4805C7.59992 22.6405 7.59992 22.8005 7.59992 22.9605C9.30659 22.9605 11.0132 22.9605 12.7199 22.9605C12.6933 24.4547 12.72 25.9481 12.7999 27.4405C13.0399 27.5737 13.2266 27.7605 13.3599 28.0005C13.9977 28.0803 14.6377 28.107 15.2799 28.0805C15.2799 27.9205 15.2799 27.7605 15.2799 27.6005C16.9399 28.044 18.6466 28.204 20.3999 28.0805C20.435 27.8925 20.3817 27.7325 20.2399 27.6005C19.4527 27.6563 18.6527 27.6563 17.8399 27.6005C17.8399 27.4405 17.8399 27.2805 17.8399 27.1205C17.3714 27.1101 16.9447 27.0033 16.5599 26.8005C18.3953 26.8697 20.2086 26.7097 21.9999 26.3205C22.9516 25.7537 23.965 25.3537 25.0399 25.1205C25.278 24.8457 25.5713 24.659 25.9199 24.5605C25.9855 24.3363 26.0655 24.123 26.1599 23.9205C26.7999 23.4937 27.3332 22.9605 27.7599 22.3205C28.6518 21.1769 29.2918 19.8969 29.6799 18.4805C29.8378 19.0033 29.8911 19.5368 29.8399 20.0805Z" fill="#022A53"/>
<path fill-rule="evenodd" clip-rule="evenodd" d="M27.76 22.3195C27.3333 22.9595 26.8 23.4928 26.16 23.9195C25.9624 23.8842 25.8024 23.7775 25.68 23.5995C25.4818 23.8407 25.5352 24.0274 25.84 24.1595C25.5706 24.6307 25.2773 24.6575 24.96 24.2395C24.7544 24.3115 24.5677 24.4183 24.4 24.5595C24.1682 24.3808 23.9015 24.2741 23.6 24.2395C22.9749 24.4493 22.3349 24.556 21.68 24.5595C21.6594 24.285 21.6061 24.0183 21.52 23.7595C21.8189 22.9911 22.1655 22.2445 22.56 21.5195C22.5999 21.6994 22.6799 21.8594 22.8 21.9995C24.1648 21.788 25.5248 21.788 26.88 21.9995C27.0613 21.7258 27.3013 21.6458 27.6 21.7595C27.3624 22.0405 27.4157 22.2272 27.76 22.3195Z" fill="#164974"/>
<path fill-rule="evenodd" clip-rule="evenodd" d="M26.1598 23.9196C26.0654 24.1222 25.9854 24.3354 25.9198 24.5596C25.5711 24.6582 25.2779 24.8449 25.0398 25.1196C23.9649 25.3529 22.9515 25.7529 21.9998 26.3196C20.2084 26.7089 18.3951 26.8689 16.5598 26.7996C16.3617 26.75 16.3617 26.67 16.5598 26.5596C16.1865 26.5063 15.8131 26.4529 15.4398 26.3996C15.3508 26.3383 15.2975 26.2583 15.2798 26.1596C16.1459 26.203 16.9991 26.123 17.8398 25.9196C18.5415 25.5687 19.235 25.222 19.9198 24.8796C20.5441 24.6274 21.0774 24.2542 21.5198 23.7596C21.6059 24.0183 21.6591 24.285 21.6798 24.5596C22.3347 24.5561 22.9747 24.4494 23.5998 24.2396C23.9012 24.2742 24.1679 24.3809 24.3998 24.5596C24.5675 24.4183 24.7542 24.3116 24.9598 24.2396C25.2771 24.6575 25.5703 24.6308 25.8398 24.1596C25.535 24.0274 25.4815 23.8407 25.6798 23.5996C25.8022 23.7775 25.9622 23.8842 26.1598 23.9196Z" fill="#0D4069"/>
<path fill-rule="evenodd" clip-rule="evenodd" d="M29.84 20.4004C29.752 21.334 29.5387 22.2407 29.2 23.1204C29.2407 23.926 28.9474 24.6193 28.32 25.2004C28.2667 25.1471 28.2133 25.0937 28.16 25.0404C28.1106 25.243 28.0306 25.4297 27.92 25.6004C27.9733 25.6537 28.0267 25.7071 28.08 25.7604C27.5821 26.4454 26.9954 27.0586 26.32 27.6004C26.1783 27.7324 26.125 27.8924 26.16 28.0804C25.9467 28.0804 25.7333 28.0804 25.52 28.0804C27.7059 25.9494 29.1459 23.3894 29.84 20.4004Z" fill="#E0EDF3"/>
<path fill-rule="evenodd" clip-rule="evenodd" d="M7.6001 29.2002C8.3204 29.2716 8.98707 29.4848 9.6001 29.8402C9.69667 29.4904 9.88335 29.4639 10.1601 29.7602C10.1034 30.0204 10.1034 30.3136 10.1601 30.6402C9.20179 30.3216 8.34847 29.8416 7.6001 29.2002Z" fill="#1B3955"/>
<path fill-rule="evenodd" clip-rule="evenodd" d="M10.3198 30.6396C10.7498 30.6134 11.1765 30.6401 11.5998 30.7196C13.3461 31.3531 15.1594 31.5931 17.0398 31.4396C14.7307 31.8017 12.4907 31.535 10.3198 30.6396Z" fill="#2C445D"/>
</g>
<defs>
<clipPath id="clip0_2719_3121">
<rect width="32" height="32" fill="white"/>
</clipPath>
</defs>
</svg>

