<svg width="32" height="32" viewBox="0 0 32 32" fill="none" xmlns="http://www.w3.org/2000/svg">
    <g clip-path="url(#clip0_2371_188)">
        <path fill-rule="evenodd" clip-rule="evenodd"
            d="M0.873047 0.873047C11.2165 0.873047 21.5599 0.873047 31.9034 0.873047C31.9034 11.2165 31.9034 21.5599 31.9034 31.9034C21.5599 31.9034 11.2165 31.9034 0.873047 31.9034C0.873047 21.5599 0.873047 11.2165 0.873047 0.873047Z"
            fill="#FEFEFE" />
        <path
            d="M31.7684 12.5779C31.8131 12.5741 31.8557 12.5559 31.8909 12.5254C31.9261 12.4949 31.9523 12.4536 31.9661 12.4067C31.98 12.3598 31.9809 12.3094 31.9687 12.2619C31.9565 12.2144 31.9318 12.172 31.8977 12.1401C31.8636 12.1081 31.8216 12.088 31.7771 12.0824C31.7327 12.0768 31.6877 12.0859 31.6479 12.1085C31.6081 12.1312 31.5754 12.1663 31.5537 12.2095C31.5321 12.2527 31.5226 12.302 31.5265 12.3512C31.5317 12.4165 31.5599 12.4769 31.6052 12.5193C31.6505 12.5617 31.7092 12.5828 31.7684 12.5779ZM17.4073 4.50719C17.4073 4.65047 17.4459 4.79052 17.5181 4.90965C17.5903 5.02878 17.6929 5.12163 17.813 5.17646C17.9331 5.23128 18.0652 5.24563 18.1927 5.21768C18.3202 5.18973 18.4373 5.12073 18.5292 5.01942C18.6211 4.91811 18.6837 4.78904 18.709 4.64852C18.7344 4.508 18.7214 4.36234 18.6717 4.22998C18.6219 4.09761 18.5377 3.98447 18.4296 3.90487C18.3215 3.82527 18.1945 3.78279 18.0645 3.78279C17.8902 3.78279 17.7231 3.85911 17.5998 3.99496C17.4766 4.13081 17.4073 4.31507 17.4073 4.50719ZM21.5802 6.06266C21.5802 6.207 21.6191 6.34809 21.6919 6.46805C21.7647 6.588 21.8682 6.68141 21.9893 6.73644C22.1104 6.79148 22.2435 6.80565 22.3719 6.77716C22.5003 6.74868 22.6181 6.67882 22.7104 6.57644C22.8027 6.47407 22.8653 6.34378 22.8904 6.20211C22.9154 6.06043 22.9018 5.91375 22.8511 5.78065C22.8004 5.64755 22.7151 5.53403 22.6058 5.45448C22.4965 5.37493 22.3683 5.33293 22.2374 5.33381C22.1507 5.33381 22.0649 5.3527 21.9849 5.38938C21.9049 5.42606 21.8323 5.47982 21.7712 5.54756C21.7102 5.61529 21.6618 5.69568 21.6291 5.78408C21.5963 5.87248 21.5797 5.96716 21.5802 6.06266ZM5.85636 25.0349C5.85556 25.1793 5.89366 25.3206 5.96583 25.4411C6.038 25.5615 6.14099 25.6556 6.26173 25.7115C6.38248 25.7673 6.51555 25.7824 6.64408 25.7548C6.7726 25.7271 6.8908 25.6581 6.98367 25.5563C7.07655 25.4546 7.13992 25.3247 7.16576 25.1832C7.19161 25.0417 7.17875 24.8949 7.12882 24.7615C7.0789 24.6281 6.99415 24.514 6.88533 24.4337C6.77651 24.3534 6.64851 24.3105 6.51757 24.3105C6.43093 24.3099 6.34504 24.3282 6.26484 24.3644C6.18464 24.4005 6.11172 24.4538 6.05027 24.5211C5.98882 24.5885 5.94005 24.6685 5.90677 24.7567C5.87349 24.8449 5.85636 24.9394 5.85636 25.0349ZM9.10192 28.0481C9.10192 28.1924 9.14081 28.3335 9.21364 28.4535C9.28648 28.5734 9.38998 28.6669 9.51103 28.7219C9.63209 28.7769 9.76524 28.7911 9.89361 28.7626C10.022 28.7341 10.1398 28.6643 10.2321 28.5619C10.3244 28.4595 10.3871 28.3292 10.4121 28.1875C10.4372 28.0459 10.4235 27.8992 10.3728 27.7661C10.3222 27.633 10.2368 27.5195 10.1275 27.4399C10.0183 27.3604 9.89004 27.3184 9.7591 27.3193C9.58444 27.3204 9.41729 27.3977 9.29416 27.5343C9.17103 27.6708 9.10192 27.8556 9.10192 28.0481ZM13.2506 29.4436C13.2506 29.5877 13.2894 29.7286 13.362 29.8485C13.4347 29.9684 13.5379 30.0618 13.6588 30.1169C13.7796 30.1721 13.9125 30.1865 14.0408 30.1584C14.1691 30.1303 14.2869 30.0609 14.3793 29.959C14.4718 29.857 14.5348 29.7272 14.5603 29.5858C14.5858 29.4444 14.5727 29.2978 14.5227 29.1647C14.4726 29.0315 14.3879 28.9177 14.2791 28.8376C14.1704 28.7575 14.0426 28.7147 13.9118 28.7147C13.7364 28.7147 13.5683 28.7915 13.4443 28.9282C13.3203 29.0649 13.2506 29.2503 13.2506 29.4436ZM17.5001 29.3858C17.5032 29.5281 17.5443 29.6662 17.6183 29.7828C17.6922 29.8995 17.7957 29.9896 17.9158 30.0418C18.0359 30.0941 18.1673 30.1062 18.2936 30.0766C18.4199 30.047 18.5355 29.9771 18.6259 29.8756C18.7164 29.774 18.7777 29.6454 18.8022 29.5056C18.8268 29.3659 18.8134 29.2213 18.7639 29.0899C18.7143 28.9585 18.6307 28.8461 18.5235 28.7667C18.4164 28.6874 18.2904 28.6445 18.1613 28.6436C18.0746 28.6436 17.9888 28.6625 17.9088 28.6992C17.8288 28.7359 17.7562 28.7896 17.6951 28.8574C17.6341 28.9251 17.5857 29.0055 17.553 29.0939C17.5202 29.1823 17.5036 29.277 17.5041 29.3725M21.5842 27.9459C21.5834 28.0904 21.6216 28.2319 21.694 28.3525C21.7663 28.473 21.8695 28.5671 21.9905 28.6228C22.1115 28.6785 22.2448 28.6934 22.3734 28.6654C22.5021 28.6374 22.6202 28.5679 22.713 28.4657C22.8057 28.3635 22.8687 28.2332 22.8941 28.0914C22.9195 27.9496 22.9061 27.8027 22.8555 27.6694C22.805 27.536 22.7196 27.4222 22.6103 27.3425C22.5009 27.2627 22.3725 27.2206 22.2414 27.2215C22.066 27.2215 21.8979 27.2983 21.7739 27.435C21.6499 27.5716 21.5802 27.757 21.5802 27.9503M24.8298 25.0705C24.8298 25.2146 24.8686 25.3556 24.9412 25.4754C25.0139 25.5953 25.1171 25.6887 25.238 25.7439C25.3588 25.799 25.4917 25.8135 25.62 25.7853C25.7482 25.7572 25.8661 25.6878 25.9585 25.5859C26.051 25.4839 26.114 25.3541 26.1395 25.2127C26.165 25.0713 26.1519 24.9248 26.1019 24.7916C26.0518 24.6584 25.9671 24.5446 25.8583 24.4645C25.7496 24.3844 25.6218 24.3416 25.491 24.3416C25.3156 24.3416 25.1474 24.4184 25.0234 24.5551C24.8994 24.6918 24.8298 24.8772 24.8298 25.0705ZM24.7854 8.93806C24.7862 9.08114 24.8254 9.22075 24.8981 9.3393C24.9708 9.45784 25.0737 9.54999 25.1939 9.60414C25.3141 9.65829 25.4461 9.672 25.5733 9.64355C25.7005 9.6151 25.8172 9.54576 25.9087 9.44427C26.0002 9.34279 26.0624 9.21371 26.0874 9.07331C26.1125 8.93291 26.0992 8.78749 26.0494 8.65538C25.9995 8.52327 25.9153 8.41039 25.8073 8.33099C25.6993 8.25159 25.5724 8.20921 25.4426 8.20921C25.356 8.20921 25.2702 8.22809 25.1902 8.26477C25.1102 8.30145 25.0376 8.35521 24.9765 8.42295C24.9154 8.49069 24.8671 8.57107 24.8343 8.65947C24.8015 8.74788 24.7849 8.84255 24.7854 8.93806ZM20.1771 7.01816C20.1763 6.83553 20.1265 6.65725 20.0339 6.50582C19.9412 6.35439 19.81 6.2366 19.6567 6.16731C19.5034 6.09803 19.3349 6.08035 19.1725 6.11652C19.0101 6.15269 18.861 6.24108 18.7441 6.37053C18.6273 6.49999 18.5478 6.6647 18.5158 6.8439C18.4837 7.02309 18.5006 7.20872 18.5642 7.37738C18.6278 7.54603 18.7352 7.69014 18.8731 7.79152C19.0109 7.89289 19.1728 7.947 19.3385 7.947C19.449 7.947 19.5584 7.92295 19.6604 7.87621C19.7624 7.82948 19.855 7.76099 19.9329 7.67468C20.0109 7.58837 20.0726 7.48594 20.1145 7.37328C20.1564 7.26061 20.1777 7.13993 20.1771 7.01816ZM22.9994 8.93361C22.9986 8.75098 22.9487 8.57269 22.8561 8.42126C22.7634 8.26983 22.6322 8.15204 22.4789 8.08276C22.3256 8.01348 22.1571 7.9958 21.9947 8.03197C21.8323 8.06814 21.6832 8.15653 21.5664 8.28598C21.4495 8.41544 21.37 8.58015 21.338 8.75934C21.306 8.93854 21.3228 9.12417 21.3864 9.29283C21.45 9.46148 21.5575 9.60559 21.6953 9.70696C21.8331 9.80834 21.9951 9.86245 22.1608 9.86245C22.2712 9.86245 22.3806 9.83839 22.4826 9.79166C22.5846 9.74493 22.6773 9.67644 22.7552 9.59013C22.8331 9.50382 22.8948 9.40139 22.9367 9.28873C22.9786 9.17606 22.9999 9.05538 22.9994 8.93361ZM25.2007 11.6668C25.2007 11.4829 25.1512 11.3031 25.0584 11.1503C24.9656 10.9975 24.8338 10.8784 24.6796 10.8082C24.5254 10.7381 24.3558 10.7199 24.1922 10.7561C24.0286 10.7923 23.8785 10.8812 23.7608 11.0116C23.6431 11.1419 23.5632 11.3079 23.5311 11.4883C23.4991 11.6688 23.5163 11.8557 23.5807 12.0253C23.6451 12.195 23.7538 12.3397 23.8929 12.4413C24.032 12.5428 24.1953 12.5965 24.3621 12.5956C24.4726 12.5956 24.5819 12.5716 24.684 12.5248C24.786 12.4781 24.8786 12.4096 24.9565 12.3233C25.0344 12.237 25.0961 12.1346 25.138 12.0219C25.1799 11.9092 25.2012 11.7886 25.2007 11.6668ZM19.1652 1.27182C19.1709 1.20715 19.1534 1.14259 19.1165 1.09193C19.0796 1.04127 19.0261 1.00854 18.9676 1.00072C18.9079 0.995744 18.8488 1.01664 18.8029 1.05898C18.7569 1.10131 18.7278 1.16173 18.7217 1.22738C18.7172 1.29318 18.7361 1.35834 18.7745 1.40897C18.8129 1.4596 18.8677 1.49171 18.9273 1.49847C18.9568 1.50151 18.9865 1.49803 19.0147 1.48822C19.0429 1.4784 19.069 1.46247 19.0916 1.44135C19.1141 1.42023 19.1326 1.39435 19.1459 1.36523C19.1593 1.33612 19.1672 1.30435 19.1692 1.27182M24.7895 3.52058C24.7922 3.48811 24.7891 3.45536 24.7802 3.42426C24.7713 3.39316 24.7568 3.36433 24.7376 3.33948C24.7185 3.31463 24.695 3.29426 24.6686 3.27957C24.6422 3.26488 24.6134 3.25616 24.5838 3.25393C24.5281 3.25551 24.4749 3.27973 24.4345 3.32195C24.394 3.36417 24.3691 3.42139 24.3646 3.48261C24.3601 3.54383 24.3763 3.60472 24.4101 3.65357C24.4438 3.70243 24.4928 3.73579 24.5476 3.74724C24.6068 3.75216 24.6655 3.73112 24.7108 3.68869C24.756 3.64626 24.7843 3.58585 24.7895 3.52058ZM29.2042 7.01372C29.207 6.98101 29.2039 6.94802 29.195 6.91666C29.1862 6.88529 29.1718 6.85617 29.1526 6.83097C29.1335 6.80576 29.1101 6.78498 29.0836 6.76982C29.0572 6.75466 29.0283 6.74541 28.9986 6.74262C28.9692 6.73958 28.9394 6.74307 28.9112 6.75288C28.883 6.76269 28.8569 6.77863 28.8343 6.79975C28.8118 6.82087 28.7933 6.84675 28.78 6.87587C28.7666 6.90498 28.7587 6.93674 28.7567 6.96928C28.7508 7.00342 28.7514 7.03855 28.7585 7.07241C28.7657 7.10627 28.7792 7.1381 28.7982 7.16586C28.8172 7.19361 28.8412 7.21668 28.8688 7.23357C28.8963 7.25046 28.9268 7.2608 28.9582 7.26391C28.9896 7.26703 29.0213 7.26287 29.0511 7.25168C29.081 7.24049 29.1084 7.22254 29.1316 7.19896C29.1547 7.17539 29.1732 7.14673 29.1857 7.11483C29.1982 7.08292 29.2045 7.04848 29.2042 7.01372ZM21.5641 3.78723C21.5685 3.69486 21.5482 3.6031 21.5056 3.52338C21.463 3.44366 21.4001 3.37952 21.3247 3.33896C21.2493 3.29839 21.1647 3.2832 21.0815 3.29527C20.9983 3.30734 20.9202 3.34615 20.8569 3.40684C20.7935 3.46754 20.7478 3.54744 20.7254 3.63658C20.703 3.72573 20.7049 3.82017 20.7309 3.90813C20.7569 3.99608 20.8058 4.07367 20.8715 4.1312C20.9372 4.18873 21.0168 4.22367 21.1004 4.23165C21.1575 4.23711 21.215 4.22984 21.2696 4.21028C21.3241 4.19072 21.3745 4.15927 21.4177 4.11781C21.461 4.07634 21.4962 4.02571 21.5214 3.96892C21.5465 3.91212 21.561 3.85034 21.5641 3.78723ZM25.8498 6.15155C25.8548 6.08859 25.8482 6.02518 25.8304 5.96509C25.8127 5.905 25.7842 5.84946 25.7465 5.80177C25.7089 5.75409 25.663 5.71523 25.6115 5.68752C25.5599 5.65981 25.5039 5.6438 25.4466 5.64046C25.3893 5.63207 25.3311 5.63659 25.2754 5.65373C25.2197 5.67087 25.1678 5.70029 25.1227 5.7402C25.0776 5.78012 25.0404 5.82969 25.0132 5.88593C24.986 5.94217 24.9695 6.00391 24.9645 6.0674C24.9596 6.1309 24.9665 6.19483 24.9846 6.25534C25.0028 6.31584 25.0319 6.37166 25.0701 6.41941C25.1084 6.46716 25.1551 6.50585 25.2073 6.53314C25.2596 6.56043 25.3163 6.57576 25.3741 6.57819C25.431 6.58365 25.4883 6.57635 25.5426 6.55675C25.5969 6.53714 25.647 6.50563 25.6899 6.46411C25.7329 6.42258 25.7677 6.37191 25.7924 6.31514C25.8171 6.25837 25.8312 6.19667 25.8337 6.13377M28.7688 9.49803C28.685 9.49314 28.6018 9.51555 28.5294 9.56246C28.4571 9.60938 28.3989 9.67873 28.3621 9.76186C28.3253 9.84499 28.3115 9.93822 28.3225 10.0299C28.3334 10.1216 28.3686 10.2078 28.4237 10.2776C28.4788 10.3474 28.5513 10.3978 28.6321 10.4224C28.713 10.4471 28.7987 10.445 28.8785 10.4164C28.9583 10.3878 29.0287 10.3339 29.0808 10.2615C29.133 10.189 29.1647 10.1013 29.172 10.0091C29.1769 9.94615 29.1703 9.88274 29.1526 9.82265C29.1348 9.76256 29.1063 9.70702 29.0687 9.65934C29.0311 9.61165 28.9851 9.57279 28.9336 9.54508C28.8821 9.51737 28.826 9.50137 28.7688 9.49803ZM15.9841 2.48953C15.8985 2.48865 15.8145 2.5159 15.7429 2.56781C15.6714 2.61973 15.6155 2.69395 15.5823 2.78102C15.5492 2.86809 15.5403 2.96407 15.5568 3.05672C15.5733 3.14938 15.6145 3.23452 15.6751 3.30129C15.7356 3.36806 15.8129 3.41344 15.8969 3.43164C15.981 3.44985 16.0681 3.44006 16.147 3.40352C16.226 3.36698 16.2934 3.30534 16.3405 3.22646C16.3876 3.14758 16.4123 3.05504 16.4115 2.96061C16.4115 2.89875 16.4004 2.83749 16.379 2.78034C16.3575 2.72318 16.326 2.67125 16.2863 2.62751C16.2466 2.58376 16.1995 2.54906 16.1477 2.52539C16.0958 2.50171 16.0402 2.48953 15.9841 2.48953ZM13.9037 3.78279C13.7726 3.78191 13.6442 3.82402 13.5349 3.90377C13.4255 3.98352 13.3402 4.0973 13.2896 4.23066C13.2391 4.36402 13.2256 4.51093 13.251 4.65273C13.2764 4.79452 13.3395 4.9248 13.4322 5.027C13.5249 5.1292 13.6431 5.1987 13.7717 5.22668C13.9003 5.25466 14.0336 5.23986 14.1546 5.18414C14.2756 5.12843 14.3788 5.03432 14.4512 4.91378C14.5235 4.79325 14.5617 4.65172 14.5609 4.50719C14.5609 4.31507 14.4917 4.13081 14.3684 3.99496C14.2452 3.85911 14.078 3.78279 13.9037 3.78279ZM9.73087 5.33381C9.59993 5.33293 9.4717 5.37493 9.36244 5.45448C9.25317 5.53403 9.1678 5.64755 9.11714 5.78065C9.06647 5.91375 9.0528 6.06043 9.07786 6.20211C9.10291 6.34378 9.16557 6.47407 9.25787 6.57644C9.35018 6.67882 9.46799 6.74868 9.59636 6.77716C9.72473 6.80565 9.85788 6.79148 9.97894 6.73644C10.1 6.68141 10.2035 6.588 10.2763 6.46805C10.3492 6.34809 10.388 6.207 10.3881 6.06266C10.3881 5.87013 10.3189 5.68541 10.1958 5.54885C10.0727 5.41229 9.90554 5.33499 9.73087 5.33381ZM3.62277 16.3021C3.49166 16.3012 3.36327 16.3433 3.25392 16.4231C3.14456 16.5028 3.05919 16.6166 3.00865 16.75C2.9581 16.8833 2.94467 17.0302 2.97006 17.172C2.99544 17.3138 3.05849 17.4441 3.15121 17.5463C3.24392 17.6485 3.36211 17.718 3.49075 17.746C3.61938 17.774 3.75266 17.7592 3.87365 17.7034C3.99463 17.6477 4.09785 17.5536 4.17019 17.4331C4.24254 17.3125 4.28075 17.171 4.27995 17.0265C4.27995 16.8344 4.21071 16.6501 4.08747 16.5143C3.96423 16.3784 3.79707 16.3021 3.62277 16.3021ZM4.42912 12.0223C4.29818 12.0214 4.16995 12.0634 4.06068 12.143C3.95142 12.2225 3.86604 12.3361 3.81538 12.4692C3.76472 12.6023 3.75104 12.749 3.7761 12.8906C3.80116 13.0323 3.86381 13.1626 3.95612 13.265C4.04843 13.3673 4.16624 13.4372 4.29461 13.4657C4.42298 13.4942 4.55613 13.48 4.67718 13.425C4.79824 13.3699 4.90175 13.2765 4.97458 13.1566C5.04742 13.0366 5.0863 12.8955 5.0863 12.7512C5.08683 12.6557 5.07023 12.561 5.03744 12.4726C5.00465 12.3842 4.95632 12.3038 4.89525 12.2361C4.83417 12.1683 4.76154 12.1146 4.68155 12.0779C4.60155 12.0412 4.51577 12.0223 4.42912 12.0223ZM6.52966 8.20476C6.39872 8.20388 6.27049 8.24588 6.16123 8.32543C6.05196 8.40498 5.96659 8.5185 5.91592 8.6516C5.86526 8.7847 5.85159 8.93139 5.87664 9.07306C5.9017 9.21473 5.96435 9.34502 6.05666 9.44739C6.14897 9.54977 6.26678 9.61963 6.39515 9.64811C6.52352 9.6766 6.65667 9.66243 6.77773 9.6074C6.89878 9.55236 7.00229 9.45895 7.07512 9.339C7.14796 9.21904 7.18684 9.07795 7.18684 8.93361C7.18684 8.74108 7.11773 8.55636 6.9946 8.4198C6.87147 8.28325 6.70433 8.20594 6.52966 8.20476ZM15.9841 28.5014C16.1509 28.5023 16.3143 28.4486 16.4534 28.347C16.5925 28.2455 16.7011 28.1008 16.7655 27.9311C16.8299 27.7615 16.8471 27.5746 16.8151 27.3941C16.783 27.2136 16.7031 27.0477 16.5854 26.9174C16.4677 26.787 16.3176 26.6981 16.154 26.6619C15.9905 26.6257 15.8208 26.6439 15.6666 26.714C15.5124 26.7842 15.3806 26.9032 15.2878 27.0561C15.195 27.2089 15.1455 27.3887 15.1455 27.5726C15.1455 27.8181 15.2337 28.0537 15.3909 28.2278C15.548 28.4019 15.7613 28.5002 15.9841 28.5014ZM15.9841 7.40036C16.1509 7.40124 16.3143 7.34752 16.4534 7.24599C16.5925 7.14447 16.7011 6.99971 16.7655 6.83007C16.8299 6.66043 16.8471 6.47353 16.8151 6.29306C16.783 6.11259 16.7031 5.94667 16.5854 5.81633C16.4677 5.68598 16.3176 5.59708 16.154 5.56088C15.9905 5.52468 15.8208 5.54281 15.6666 5.61298C15.5124 5.68315 15.3806 5.80219 15.2878 5.95503C15.195 6.10788 15.1455 6.28763 15.1455 6.47153C15.1455 6.7171 15.2337 6.95268 15.3909 7.12675C15.548 7.30081 15.7613 7.39919 15.9841 7.40036ZM12.6378 7.947C12.8046 7.94788 12.9679 7.89415 13.107 7.79263C13.2461 7.6911 13.3547 7.54635 13.4191 7.3767C13.4835 7.20706 13.5008 7.02017 13.4687 6.8397C13.4367 6.65923 13.3567 6.49331 13.2391 6.36296C13.1214 6.23262 12.9712 6.14371 12.8077 6.10751C12.6441 6.07131 12.4745 6.08944 12.3203 6.15961C12.1661 6.22978 12.0342 6.34883 11.9415 6.50167C11.8487 6.65451 11.7992 6.83427 11.7992 7.01816C11.7986 7.13993 11.8199 7.26061 11.8618 7.37328C11.9037 7.48594 11.9654 7.58837 12.0434 7.67468C12.1213 7.76099 12.2139 7.82948 12.3159 7.87621C12.4179 7.92295 12.5273 7.947 12.6378 7.947ZM9.81554 9.86245C9.98237 9.86333 10.1457 9.8096 10.2848 9.70808C10.4239 9.60655 10.5325 9.4618 10.5969 9.29215C10.6613 9.12251 10.6786 8.93561 10.6465 8.75514C10.6145 8.57468 10.5345 8.40876 10.4168 8.27841C10.2992 8.14807 10.149 8.05916 9.98545 8.02296C9.82189 7.98676 9.65225 8.00489 9.49805 8.07506C9.34384 8.14523 9.212 8.26428 9.11923 8.41712C9.02646 8.56996 8.97694 8.74972 8.97694 8.93361C8.97641 9.05538 8.99771 9.17606 9.03961 9.28873C9.08152 9.40139 9.1432 9.50382 9.22113 9.59013C9.29905 9.67644 9.39168 9.74493 9.49369 9.79166C9.5957 9.83839 9.70508 9.86245 9.81554 9.86245ZM7.59002 12.609C7.75696 12.6133 7.92132 12.563 8.06223 12.4642C8.20314 12.3654 8.31425 12.2227 8.38146 12.0542C8.44867 11.8857 8.46894 11.699 8.43971 11.5178C8.41047 11.3366 8.33305 11.169 8.21726 11.0364C8.10148 10.9037 7.95255 10.812 7.78939 10.7728C7.62623 10.7337 7.45618 10.7488 7.30085 10.8164C7.14551 10.8839 7.01189 11.0008 6.91694 11.1522C6.82198 11.3036 6.76999 11.4827 6.76754 11.6668C6.76701 11.7886 6.78831 11.9092 6.83021 12.0219C6.87212 12.1346 6.93381 12.237 7.01173 12.3233C7.08966 12.4096 7.18228 12.4781 7.28429 12.5248C7.3863 12.5716 7.49568 12.5956 7.60615 12.5956M6.69094 16.0488C6.85794 16.0496 7.0214 15.9958 7.16059 15.8941C7.29978 15.7924 7.4084 15.6473 7.47268 15.4774C7.53696 15.3075 7.55398 15.1204 7.5216 14.9398C7.48921 14.7592 7.40888 14.5933 7.29079 14.4632C7.1727 14.333 7.02219 14.2444 6.85836 14.2087C6.69453 14.173 6.52477 14.1918 6.37063 14.2627C6.2165 14.3335 6.08494 14.4533 5.99266 14.6067C5.90038 14.7601 5.85153 14.9403 5.85233 15.1244C5.85233 15.3695 5.94069 15.6047 6.09796 15.778C6.25522 15.9514 6.46853 16.0488 6.69094 16.0488ZM13.045 1.49847C13.1045 1.49171 13.1593 1.4596 13.1977 1.40897C13.2361 1.35834 13.2551 1.29318 13.2506 1.22738C13.2445 1.16173 13.2153 1.10131 13.1694 1.05898C13.1235 1.01664 13.0644 0.995744 13.0047 1.00072C12.9454 1.00746 12.891 1.03974 12.8532 1.09051C12.8155 1.14129 12.7974 1.20646 12.8031 1.27182C12.8051 1.30435 12.813 1.33612 12.8263 1.36523C12.8397 1.39435 12.8581 1.42023 12.8807 1.44135C12.9032 1.46247 12.9294 1.4784 12.9576 1.48822C12.9858 1.49803 13.0155 1.50151 13.045 1.49847ZM7.42471 3.74724C7.45423 3.74501 7.48304 3.73629 7.50946 3.72159C7.53587 3.7069 7.55935 3.68653 7.57851 3.66168C7.59767 3.63683 7.61213 3.60801 7.62103 3.57691C7.62993 3.5458 7.63309 3.51305 7.63034 3.48058C7.6252 3.41531 7.59691 3.35491 7.55163 3.31247C7.50634 3.27004 7.4477 3.249 7.38843 3.25393C7.35891 3.25616 7.3301 3.26488 7.30368 3.27957C7.27727 3.29426 7.2538 3.31463 7.23464 3.33948C7.21547 3.36433 7.20101 3.39316 7.19211 3.42426C7.18321 3.45536 7.18005 3.48811 7.18281 3.52058C7.18795 3.58585 7.21623 3.64626 7.26152 3.68869C7.30681 3.73112 7.36544 3.75216 7.42471 3.74724ZM31.7684 23.1728C31.8001 23.1737 31.8316 23.1673 31.8608 23.1539C31.8901 23.1405 31.9164 23.1204 31.9382 23.0951C31.96 23.0697 31.9767 23.0396 31.9872 23.0067C31.9977 22.9737 32.0018 22.9387 31.9993 22.9039C31.9967 22.8691 31.9875 22.8353 31.9723 22.8047C31.9571 22.774 31.9363 22.7472 31.9111 22.7261C31.8859 22.7049 31.8569 22.6898 31.8261 22.6818C31.7953 22.6738 31.7633 22.673 31.7321 22.6795C31.7026 22.6817 31.6738 22.6905 31.6474 22.7052C31.621 22.7198 31.5975 22.7402 31.5783 22.7651C31.5592 22.7899 31.5447 22.8187 31.5358 22.8498C31.5269 22.8809 31.5238 22.9137 31.5265 22.9462C31.5317 23.0114 31.5599 23.0718 31.6052 23.1143C31.6505 23.1567 31.7092 23.1777 31.7684 23.1728ZM29.0752 27.3059C29.1344 27.2981 29.1886 27.2657 29.2268 27.2153C29.265 27.1649 29.2843 27.1004 29.2808 27.0348C29.2767 26.9859 29.2595 26.9394 29.2314 26.9012C29.2034 26.8631 29.1657 26.8349 29.1231 26.8203C29.0805 26.8057 29.035 26.8053 28.9922 26.8192C28.9495 26.8331 28.9114 26.8606 28.8828 26.8983C28.8542 26.936 28.8364 26.9822 28.8316 27.031C28.8268 27.0799 28.8352 27.1292 28.8557 27.1728C28.8763 27.2164 28.9081 27.2523 28.9472 27.276C28.9862 27.2997 29.0308 27.3101 29.0752 27.3059ZM24.5798 30.7768C24.6093 30.7746 24.6381 30.7659 24.6646 30.7512C24.691 30.7365 24.7144 30.7161 24.7336 30.6913C24.7528 30.6664 24.7672 30.6376 24.7761 30.6065C24.785 30.5754 24.7882 30.5427 24.7854 30.5102C24.7857 30.4754 24.7794 30.441 24.7669 30.4091C24.7544 30.3772 24.7359 30.3485 24.7128 30.3249C24.6896 30.3014 24.6622 30.2834 24.6323 30.2722C24.6025 30.261 24.5708 30.2569 24.5394 30.26C24.508 30.2631 24.4775 30.2734 24.45 30.2903C24.4224 30.3072 24.3984 30.3303 24.3794 30.358C24.3604 30.3858 24.3469 30.4176 24.3397 30.4515C24.3326 30.4854 24.332 30.5205 24.3379 30.5546C24.3404 30.5868 24.3487 30.6181 24.3623 30.6467C24.3758 30.6753 24.3944 30.7006 24.4169 30.7213C24.4394 30.7419 24.4653 30.7575 24.4933 30.767C24.5213 30.7766 24.5507 30.7799 24.5798 30.7768ZM18.9676 32.9989C19.0269 32.9922 19.0813 32.9599 19.1191 32.9091C19.1568 32.8584 19.1748 32.7932 19.1692 32.7278C19.1672 32.6953 19.1593 32.6635 19.1459 32.6344C19.1326 32.6053 19.1141 32.5794 19.0916 32.5583C19.069 32.5372 19.0429 32.5213 19.0147 32.5114C18.9865 32.5016 18.9568 32.4981 18.9273 32.5012C18.8674 32.5071 18.8121 32.539 18.7736 32.5898C18.735 32.6406 18.7163 32.7063 18.7217 32.7723C18.727 32.8383 18.7559 32.8992 18.8021 32.9418C18.8482 32.9843 18.9077 33.0048 18.9676 32.9989ZM13.049 32.9989C13.1089 32.993 13.1642 32.9612 13.2028 32.9103C13.2413 32.8595 13.26 32.7938 13.2546 32.7278C13.2493 32.6618 13.2204 32.6009 13.1742 32.5584C13.1281 32.5159 13.0686 32.4953 13.0087 32.5012C12.9494 32.5079 12.895 32.5402 12.8573 32.591C12.8195 32.6418 12.8015 32.7069 12.8071 32.7723C12.8091 32.8048 12.817 32.8366 12.8304 32.8657C12.8437 32.8948 12.8622 32.9207 12.8847 32.9418C12.9073 32.9629 12.9334 32.9789 12.9616 32.9887C12.9898 32.9985 13.0196 33.002 13.049 32.9989ZM7.42875 30.7457C7.45826 30.7435 7.48708 30.7348 7.51349 30.7201C7.5399 30.7054 7.56338 30.685 7.58254 30.6602C7.6017 30.6353 7.61616 30.6065 7.62506 30.5754C7.63396 30.5443 7.63712 30.5115 7.63436 30.4791C7.62923 30.4138 7.60094 30.3534 7.55566 30.311C7.51037 30.2685 7.45173 30.2475 7.39246 30.2524C7.36294 30.2547 7.33413 30.2634 7.30771 30.2781C7.2813 30.2928 7.25783 30.3131 7.23866 30.338C7.2195 30.3628 7.20505 30.3916 7.19615 30.4228C7.18725 30.4539 7.18408 30.4866 7.18684 30.5191C7.19198 30.5843 7.22026 30.6448 7.26555 30.6872C7.31084 30.7296 7.36948 30.7507 7.42875 30.7457ZM2.99382 27.257C3.03846 27.2533 3.08108 27.2351 3.11629 27.2046C3.1515 27.1741 3.17769 27.1328 3.19154 27.0859C3.20539 27.039 3.20629 26.9886 3.19409 26.9411C3.1819 26.8936 3.15718 26.8512 3.12308 26.8192C3.08897 26.7873 3.04701 26.7672 3.00254 26.7616C2.95807 26.756 2.91308 26.7651 2.87331 26.7877C2.83353 26.8103 2.80075 26.8455 2.77913 26.8887C2.75752 26.9319 2.74805 26.9812 2.75192 27.0304C2.75705 27.0957 2.78534 27.1561 2.83062 27.1985C2.87591 27.2409 2.93455 27.262 2.99382 27.257ZM0.219976 23.1728C0.251642 23.1737 0.283126 23.1673 0.312379 23.1539C0.341632 23.1405 0.367999 23.1204 0.389771 23.0951C0.411542 23.0697 0.428229 23.0396 0.438746 23.0067C0.449263 22.9737 0.453376 22.9387 0.450817 22.9039C0.448257 22.8691 0.439083 22.8353 0.423889 22.8047C0.408696 22.774 0.387822 22.7472 0.362628 22.7261C0.337434 22.7049 0.308486 22.6898 0.277657 22.6818C0.246829 22.6738 0.214813 22.673 0.183692 22.6795C0.128948 22.691 0.0799765 22.7243 0.046202 22.7732C0.0124275 22.822 -0.00376417 22.8829 0.000738961 22.9441C0.00524209 23.0054 0.0301214 23.0626 0.0705945 23.1048C0.111068 23.147 0.164274 23.1712 0.219976 23.1728ZM3.00995 7.2226C3.05458 7.21889 3.09721 7.20064 3.13242 7.17016C3.16763 7.13969 3.19382 7.09836 3.20767 7.05144C3.22152 7.00452 3.22241 6.95412 3.21022 6.90664C3.19803 6.85917 3.17331 6.81676 3.1392 6.7848C3.10509 6.75284 3.06314 6.73278 3.01866 6.72717C2.97419 6.72155 2.92921 6.73064 2.88943 6.75327C2.84965 6.7759 2.81688 6.81105 2.79526 6.85426C2.77365 6.89747 2.76418 6.94678 2.76805 6.99594C2.77318 7.06122 2.80146 7.12162 2.84675 7.16405C2.89204 7.20649 2.95068 7.22752 3.00995 7.2226ZM10.8678 4.1961C10.9514 4.18812 11.031 4.15318 11.0968 4.09565C11.1625 4.03811 11.2114 3.96053 11.2373 3.87257C11.2633 3.78461 11.2652 3.69017 11.2428 3.60103C11.2204 3.51189 11.1747 3.43199 11.1114 3.37129C11.0481 3.31059 10.9699 3.27179 10.8867 3.25972C10.8035 3.24764 10.7189 3.26284 10.6435 3.3034C10.5681 3.34397 10.5052 3.40811 10.4626 3.48783C10.4201 3.56754 10.3997 3.65931 10.4042 3.75168C10.4072 3.81478 10.4217 3.87657 10.4469 3.93336C10.472 3.99015 10.5073 4.04079 10.5505 4.08226C10.5938 4.12372 10.6442 4.15517 10.6987 4.17473C10.7532 4.19428 10.8107 4.20155 10.8678 4.1961ZM6.57805 6.56041C6.68696 6.54447 6.78612 6.48289 6.85494 6.38848C6.92375 6.29406 6.95694 6.17406 6.9476 6.05339C6.93826 5.93271 6.88711 5.82064 6.80479 5.74044C6.72246 5.66024 6.61527 5.61807 6.50547 5.62269C6.4477 5.62512 6.39098 5.64044 6.33874 5.66773C6.2865 5.69503 6.23983 5.73372 6.20154 5.78147C6.16326 5.82922 6.13417 5.88503 6.11602 5.94554C6.09787 6.00604 6.09104 6.06998 6.09596 6.13347C6.10087 6.19696 6.11742 6.2587 6.14461 6.31494C6.17179 6.37118 6.20904 6.42076 6.25411 6.46067C6.29918 6.50058 6.35112 6.53 6.4068 6.54715C6.46248 6.56429 6.52074 6.5688 6.57805 6.56041ZM2.79626 10.0091C2.79569 10.0731 2.80766 10.1365 2.83136 10.1949C2.85505 10.2533 2.88991 10.3054 2.93355 10.3476C2.97719 10.3898 3.02859 10.4211 3.08422 10.4394C3.13985 10.4577 3.1984 10.4625 3.25588 10.4535C3.33974 10.4464 3.41981 10.4122 3.48609 10.3551C3.55237 10.298 3.6019 10.2207 3.62848 10.1327C3.65506 10.0448 3.6575 9.95012 3.63551 9.86064C3.61352 9.77116 3.56806 9.69083 3.50484 9.6297C3.44161 9.56856 3.36343 9.52935 3.28009 9.51697C3.19674 9.50459 3.11193 9.5196 3.03628 9.5601C2.96064 9.60061 2.89751 9.66482 2.85481 9.74469C2.81212 9.82456 2.79175 9.91654 2.79626 10.0091ZM28.793 23.5328C28.7094 23.5408 28.6298 23.5757 28.5641 23.6333C28.4984 23.6908 28.4495 23.7684 28.4235 23.8563C28.3975 23.9443 28.3956 24.0387 28.418 24.1279C28.4404 24.217 28.4861 24.2969 28.5494 24.3576C28.6128 24.4183 28.6909 24.4571 28.7741 24.4692C28.8573 24.4813 28.9419 24.4661 29.0173 24.4255C29.0927 24.3849 29.1556 24.3208 29.1982 24.2411C29.2407 24.1614 29.2611 24.0696 29.2566 23.9772C29.2536 23.9141 29.2391 23.8523 29.214 23.7955C29.1888 23.7387 29.1536 23.6881 29.1103 23.6466C29.067 23.6052 29.0167 23.5737 28.9621 23.5542C28.9076 23.5346 28.8501 23.5273 28.793 23.5328ZM25.4749 27.4215C25.391 27.4286 25.3109 27.4628 25.2447 27.5199C25.1784 27.577 25.1288 27.6543 25.1023 27.7423C25.0757 27.8302 25.0732 27.9249 25.0952 28.0144C25.1172 28.1038 25.1627 28.1842 25.2259 28.2453C25.2891 28.3064 25.3673 28.3456 25.4507 28.358C25.534 28.3704 25.6188 28.3554 25.6945 28.3149C25.7701 28.2744 25.8332 28.2102 25.8759 28.1303C25.9186 28.0504 25.939 27.9585 25.9345 27.8659C25.9351 27.8019 25.9231 27.7385 25.8994 27.6801C25.8757 27.6217 25.8408 27.5696 25.7972 27.5274C25.7536 27.4852 25.7022 27.4539 25.6465 27.4356C25.5909 27.4173 25.5323 27.4125 25.4749 27.4215ZM21.1044 29.7902C21.0472 29.7936 20.9911 29.8096 20.9396 29.8373C20.8881 29.865 20.8422 29.9038 20.8045 29.9515C20.7669 29.9992 20.7384 30.0548 20.7207 30.1149C20.7029 30.1749 20.6963 30.2384 20.7013 30.3013C20.7035 30.365 20.7174 30.4275 20.7421 30.4851C20.7669 30.5427 20.802 30.5941 20.8453 30.6363C20.8886 30.6785 20.9393 30.7106 20.9942 30.7306C21.049 30.7506 21.107 30.7581 21.1646 30.7527C21.2222 30.7473 21.2783 30.7291 21.3293 30.6991C21.3803 30.6691 21.4253 30.6281 21.4615 30.5784C21.4977 30.5287 21.5244 30.4714 21.5399 30.4101C21.5555 30.3487 21.5596 30.2845 21.552 30.2213C21.5495 30.1584 21.5354 30.0967 21.5107 30.0399C21.486 29.9832 21.4511 29.9325 21.4082 29.891C21.3653 29.8495 21.3151 29.8179 21.2609 29.7983C21.2066 29.7787 21.1493 29.7714 21.0923 29.7769M15.9357 30.5546C15.878 30.5571 15.8212 30.5724 15.769 30.5997C15.7168 30.627 15.6701 30.6657 15.6318 30.7134C15.5935 30.7612 15.5644 30.817 15.5463 30.8775C15.5281 30.938 15.5213 31.0019 15.5262 31.0654C15.5311 31.1289 15.5477 31.1906 15.5749 31.2469C15.6021 31.3031 15.6393 31.3527 15.6844 31.3926C15.7294 31.4325 15.7814 31.4619 15.8371 31.4791C15.8927 31.4962 15.951 31.5007 16.0083 31.4924C16.1172 31.4764 16.2164 31.4148 16.2852 31.3204C16.354 31.226 16.3872 31.106 16.3779 30.9853C16.3685 30.8647 16.3174 30.7526 16.235 30.6724C16.1527 30.5922 16.0455 30.55 15.9357 30.5546ZM10.9847 29.9324C10.8714 29.943 10.7665 30.0029 10.6932 30.0987C10.6198 30.1945 10.584 30.3186 10.5937 30.4435C10.6033 30.5685 10.6576 30.6841 10.7445 30.7649C10.8315 30.8458 10.944 30.8852 11.0573 30.8746C11.1707 30.864 11.2755 30.8042 11.3489 30.7083C11.4222 30.6125 11.458 30.4885 11.4484 30.3635C11.4388 30.2386 11.3845 30.123 11.2976 30.0421C11.2106 29.9613 11.0981 29.9218 10.9847 29.9324ZM6.50547 27.4392C6.4477 27.4417 6.39098 27.457 6.33874 27.4843C6.2865 27.5116 6.23983 27.5503 6.20154 27.598C6.16326 27.6458 6.13417 27.7016 6.11602 27.7621C6.09787 27.8226 6.09104 27.8865 6.09596 27.95C6.10087 28.0135 6.11742 28.0753 6.14461 28.1315C6.17179 28.1877 6.20904 28.2373 6.25411 28.2772C6.29918 28.3171 6.35112 28.3466 6.4068 28.3637C6.46248 28.3808 6.52074 28.3854 6.57805 28.377C6.68696 28.361 6.78612 28.2995 6.85494 28.205C6.92375 28.1106 6.95694 27.9906 6.9476 27.8699C6.93826 27.7493 6.88711 27.6372 6.80479 27.557C6.72246 27.4768 6.61527 27.4346 6.50547 27.4392ZM3.17928 23.5461C3.09568 23.5541 3.01606 23.589 2.95035 23.6466C2.88464 23.7041 2.83575 23.7817 2.80978 23.8697C2.78381 23.9576 2.78191 24.0521 2.80431 24.1412C2.8267 24.2303 2.87241 24.3102 2.93574 24.3709C2.99906 24.4316 3.07719 24.4704 3.16039 24.4825C3.24358 24.4946 3.32816 24.4794 3.40358 24.4388C3.479 24.3983 3.54191 24.3341 3.58447 24.2544C3.62704 24.1747 3.64737 24.0829 3.64293 23.9905C3.6399 23.9274 3.62538 23.8657 3.60024 23.8089C3.5751 23.7521 3.53985 23.7014 3.49659 23.66C3.45333 23.6185 3.40295 23.5871 3.34843 23.5675C3.29392 23.5479 3.23639 23.5407 3.17928 23.5461ZM13.4764 26.9637C13.4764 26.7809 13.4272 26.6022 13.335 26.4502C13.2429 26.2981 13.1119 26.1797 12.9587 26.1097C12.8055 26.0397 12.6368 26.0214 12.4742 26.0571C12.3115 26.0928 12.1621 26.1808 12.0448 26.3101C11.9275 26.4394 11.8476 26.6041 11.8153 26.7834C11.7829 26.9627 11.7995 27.1486 11.863 27.3175C11.9265 27.4864 12.034 27.6307 12.1719 27.7323C12.3098 27.8339 12.4719 27.8881 12.6378 27.8881C12.7479 27.8881 12.8569 27.8642 12.9587 27.8177C13.0604 27.7713 13.1529 27.7032 13.2307 27.6174C13.3086 27.5315 13.3704 27.4296 13.4125 27.3175C13.4547 27.2053 13.4764 27.0851 13.4764 26.9637ZM19.266 26.0349C19.0991 26.034 18.9358 26.0877 18.7967 26.1893C18.6576 26.2908 18.549 26.4355 18.4846 26.6052C18.4202 26.7748 18.4029 26.9617 18.435 27.1422C18.4671 27.3227 18.547 27.4886 18.6647 27.6189C18.7824 27.7493 18.9325 27.8382 19.0961 27.8744C19.2596 27.9106 19.4293 27.8924 19.5835 27.8223C19.7377 27.7521 19.8695 27.6331 19.9623 27.4802C20.055 27.3274 20.1046 27.1476 20.1046 26.9637C20.1051 26.8419 20.0838 26.7213 20.0419 26.6086C20 26.4959 19.9383 26.3935 19.8604 26.3072C19.7825 26.2209 19.6898 26.1524 19.5878 26.1057C19.4858 26.0589 19.3764 26.0349 19.266 26.0349ZM22.1406 24.195C21.9754 24.1985 21.8147 24.2555 21.6786 24.3589C21.5426 24.4623 21.4371 24.6075 21.3753 24.7765C21.3135 24.9455 21.2982 25.1307 21.3312 25.3093C21.3643 25.4878 21.4442 25.6516 21.5611 25.7804C21.6779 25.9093 21.8266 25.9973 21.9885 26.0337C22.1504 26.0702 22.3185 26.0533 22.4718 25.9852C22.6251 25.9171 22.7569 25.8008 22.8507 25.6508C22.9445 25.5008 22.9962 25.3237 22.9994 25.1416C22.9994 24.896 22.9111 24.6604 22.754 24.4864C22.5968 24.3123 22.3835 24.2139 22.1608 24.2128M25.1886 22.3329C25.1878 22.1502 25.1379 21.9719 25.0453 21.8205C24.9527 21.6691 24.8214 21.5513 24.6681 21.482C24.5148 21.4127 24.3463 21.3951 24.1839 21.4312C24.0215 21.4674 23.8725 21.5558 23.7556 21.6852C23.6387 21.8147 23.5593 21.9794 23.5272 22.1586C23.4952 22.3378 23.512 22.5234 23.5756 22.6921C23.6392 22.8607 23.7467 23.0048 23.8845 23.1062C24.0223 23.2076 24.1843 23.2617 24.35 23.2617C24.4605 23.2617 24.5698 23.2376 24.6719 23.1909C24.7739 23.1442 24.8665 23.0757 24.9444 22.9894C25.0223 22.9031 25.084 22.8006 25.1259 22.688C25.1678 22.5753 25.1891 22.4546 25.1886 22.3329ZM9.83167 24.155C9.66484 24.1541 9.50153 24.2078 9.36243 24.3094C9.22333 24.4109 9.1147 24.5556 9.05031 24.7253C8.98591 24.8949 8.96865 25.0818 9.0007 25.2623C9.03276 25.4428 9.11269 25.6087 9.23037 25.739C9.34806 25.8694 9.49819 25.9583 9.66176 25.9945C9.82532 26.0307 9.99496 26.0125 10.1492 25.9424C10.3034 25.8722 10.4352 25.7532 10.528 25.6003C10.6207 25.4475 10.6703 25.2677 10.6703 25.0838C10.6708 24.9621 10.6495 24.8414 10.6076 24.7287C10.5657 24.616 10.504 24.5136 10.4261 24.4273C10.3482 24.341 10.2555 24.2725 10.1535 24.2258C10.0515 24.179 9.94213 24.155 9.83167 24.155ZM7.60615 21.4085C7.43915 21.4076 7.27567 21.4614 7.13649 21.5632C6.9973 21.6649 6.88867 21.8099 6.8244 21.9798C6.76012 22.1497 6.7431 22.3368 6.77548 22.5174C6.80787 22.698 6.8882 22.8639 7.00629 22.9941C7.12437 23.1243 7.27488 23.2128 7.43871 23.2485C7.60254 23.2842 7.77231 23.2654 7.92644 23.1946C8.08058 23.1237 8.21214 23.004 8.30442 22.8506C8.3967 22.6971 8.44554 22.5169 8.44474 22.3329C8.44474 22.0877 8.3564 21.8526 8.19913 21.6792C8.04186 21.5059 7.82856 21.4085 7.60615 21.4085ZM16.1131 12.1112L20.5158 20.9996H22.4712L18.0685 12.1334L16.1131 12.1112ZM9.46075 20.9996H11.4161L15.8148 12.1334H13.8594L9.46075 20.9996Z"
            fill="#243882" />
    </g>
    <defs>
        <clipPath id="clip0_2371_188">
            <rect width="32" height="32" fill="white" />
        </clipPath>
    </defs>
</svg>