<svg width="32" height="32" viewBox="0 0 32 32" fill="none" xmlns="http://www.w3.org/2000/svg">
    <rect width="32" height="32" fill="#FAFAFA" />
    <path fill-rule="evenodd" clip-rule="evenodd"
        d="M14.1899 0C15.3295 0 16.4691 0 17.6086 0C21.3615 0.447483 24.7364 1.84639 27.7333 4.19672C27.9915 4.52692 28.0792 4.87664 27.9963 5.2459C26.8363 6.15221 25.6529 7.02652 24.4461 7.86885C23.6174 7.17367 22.8285 6.43048 22.0793 5.63934C21.3213 5.2176 20.5324 4.86786 19.7125 4.59016C16.4135 3.79205 13.2577 4.1418 10.2453 5.63934C6.72525 7.80409 5.62951 10.8205 6.95804 14.6885C9.70963 18.2248 13.3475 20.0609 17.8716 20.1967C18.5729 20.7213 18.5729 21.2459 17.8716 21.7705C11.0856 21.9734 6.5273 18.9133 4.19678 12.5902C4.19678 11.4536 4.19678 10.3169 4.19678 9.18033C5.73168 4.21159 9.06273 1.15148 14.1899 0Z"
        fill="#46D9FF" />
    <path fill-rule="evenodd" clip-rule="evenodd"
        d="M18.1346 32.0002C16.7321 32.0002 15.3295 32.0002 13.927 32.0002C10.404 31.4019 7.29213 29.9157 4.59127 27.5412C4.40425 27.0515 4.53574 26.658 4.98574 26.3609C6.07415 25.6686 7.12606 24.9255 8.14147 24.1313C8.69556 24.6639 9.22152 25.2322 9.71933 25.8363C14.012 28.6853 18.3949 28.7727 22.8682 26.0986C26.555 23.384 27.2124 20.1054 24.8406 16.2625C22.0781 13.448 18.7033 12.0054 14.7159 11.9346C13.9689 10.6125 14.4073 9.95671 16.0308 9.96741C17.4517 10.1897 18.8543 10.4957 20.2384 10.8854C27.4316 13.9073 29.6669 19.0221 26.9444 26.2297C24.8031 29.3733 21.8665 31.2967 18.1346 32.0002Z"
        fill="#45D9FF" />
</svg>