<svg width="32" height="32" viewBox="0 0 32 32" fill="none" xmlns="http://www.w3.org/2000/svg">
    <path fill-rule="evenodd" clip-rule="evenodd"
        d="M0.487348 31.5214C0.487348 31.5214 -2.69687 13.8992 7.2132 3.9827C12.7043 -1.51203 21.8021 -1.28444 27.5532 4.43789C33.3043 10.1602 33.4992 19.2964 28.0081 24.7912C18.1305 34.6752 0.487348 31.5214 0.487348 31.5214Z"
        fill="url(#paint0_linear_1670_92)" />
    <path
        d="M16.2665 7.33207C14.2382 7.64568 13.0501 8.23473 11.519 10.1238C10.5681 11.2822 9.92954 12.9607 9.65223 13.966C11.9062 11.3562 15.9057 11.9126 17.1611 13.5312C12.2656 13.6111 9.37432 16.4944 8.34463 20.5303C7.81226 22.6059 7.66326 24.3272 8.00704 25.9193C8.14767 24.4422 9.39911 23.0869 10.5682 22.2608C12.0952 21.1874 13.8765 21.0744 15.4705 21.0754C18.6108 21.1194 22.5581 20.267 24.0337 16.8874C24.8805 14.924 25.0072 11.7507 23.0014 9.72686C20.983 7.62966 18.4209 7.009 16.2665 7.33207Z"
        fill="white" />
    <defs>
        <linearGradient id="paint0_linear_1670_92" x1="2225.69" y1="1046.64" x2="-8.1503e-05"
            y2="3160.54" gradientUnits="userSpaceOnUse">
            <stop stop-color="#8A24FF" />
            <stop offset="1" stop-color="#5129FF" />
        </linearGradient>
    </defs>
</svg>