<svg width="32" height="32" viewBox="0 0 32 32" fill="none" xmlns="http://www.w3.org/2000/svg">
<path opacity="0.998" fill-rule="evenodd" clip-rule="evenodd" d="M15.4783 0C16.8811 0 18.2839 0 19.6867 0C20.6446 0.304003 21.5798 0.670016 22.4922 1.09804C22.4556 1.19165 22.3777 1.24393 22.2584 1.2549C21.9389 1.05235 21.6011 0.973923 21.2453 1.01961C21.3712 1.06786 21.4752 1.14629 21.557 1.2549C21.1487 1.64413 20.6811 1.93172 20.1543 2.11765C20.4728 2.19581 20.6808 2.37882 20.7777 2.66667C18.3981 1.70132 15.9564 1.49217 13.4521 2.03922C13.4401 1.84317 13.3361 1.71245 13.1404 1.64706C14.0873 1.32842 14.8666 0.779402 15.4783 0Z" fill="#64A2FE"/>
<path opacity="0.995" fill-rule="evenodd" clip-rule="evenodd" d="M12.3611 0C13.4003 0 14.4393 0 15.4784 0C14.8667 0.779402 14.0873 1.32842 13.1405 1.64706C13.3362 1.71245 13.4402 1.84317 13.4522 2.03922C6.74427 3.56127 2.89957 7.74428 1.91825 14.5882C1.95363 14.2996 1.8757 13.9859 1.68445 13.6471C1.626 14.0392 1.49617 14.4052 1.29479 14.7451C0.869125 15.1227 0.453436 15.4887 0.0478775 15.8431C-0.0238199 11.1514 1.63863 7.2037 5.03553 4C5.97445 3.26314 6.90964 2.53112 7.84108 1.80392C9.31119 1.05913 10.8178 0.457823 12.3611 0Z" fill="#6BB0FE"/>
<path opacity="0.998" fill-rule="evenodd" clip-rule="evenodd" d="M22.4923 1.098C24.4228 1.99621 26.1373 3.19883 27.6358 4.70584C27.5206 4.6853 27.4166 4.71144 27.324 4.78428C27.428 4.99342 27.5318 5.20258 27.6358 5.41173C27.3759 5.56859 27.1682 5.77773 27.0123 6.03918C26.8045 6.03918 26.5966 6.03918 26.3889 6.03918C26.5951 6.16716 26.6989 6.35017 26.7006 6.5882C25.0361 4.80933 23.0619 3.50213 20.7778 2.66663C20.6808 2.37879 20.4729 2.19577 20.1543 2.11761C20.6811 1.93168 21.1487 1.64409 21.5571 1.25486C21.4752 1.14626 21.3713 1.06782 21.2453 1.01957C21.6012 0.973885 21.9389 1.05232 22.2585 1.25486C22.3777 1.24389 22.4556 1.19161 22.4923 1.098Z" fill="#5D94FE"/>
<path fill-rule="evenodd" clip-rule="evenodd" d="M17.6605 5.96082C18.3501 5.98466 19.0254 6.08924 19.6867 6.27454C19.6426 6.39832 19.5647 6.5029 19.453 6.58827C19.2366 6.423 19.0028 6.39685 18.7516 6.50984C19.0237 6.5837 19.2835 6.68828 19.5309 6.82356C16.5692 10.1165 13.5298 13.2799 10.4128 16.3138C10.2501 16.1376 10.1463 15.9285 10.1011 15.6863C10.0712 16.227 10.1751 16.7498 10.4128 17.2549C10.749 17.6184 10.9828 18.0367 11.1142 18.5098C10.5316 18.0195 10.1419 17.392 9.94524 16.6275C9.55247 15.6186 9.37073 14.5728 9.39972 13.4902C9.62931 13.4005 9.83723 13.2698 10.0232 13.0981C9.85141 12.7215 9.82538 12.3293 9.94524 11.9216C10.1454 12.0897 10.1973 12.2989 10.1011 12.5491C11.7954 10.5307 13.5878 8.62218 15.4784 6.82356C16.1359 6.46253 16.8112 6.27951 17.5047 6.27454C17.629 6.20287 17.6809 6.09829 17.6605 5.96082Z" fill="#5D99FE"/>
<path fill-rule="evenodd" clip-rule="evenodd" d="M17.6605 5.96078C17.6809 6.09826 17.629 6.20284 17.5046 6.27451C16.8111 6.27948 16.1358 6.46249 15.4784 6.82353C13.5877 8.62215 11.7953 10.5306 10.101 12.549C10.1972 12.2989 10.1453 12.0897 9.94518 11.9216C9.82532 12.3293 9.85135 12.7214 10.0231 13.098C9.83717 13.2697 9.62925 13.4005 9.39966 13.4902C9.72136 10.0987 11.4359 7.71962 14.5432 6.35294C15.5582 6.0325 16.5971 5.90179 17.6605 5.96078Z" fill="#63A0FE"/>
<path fill-rule="evenodd" clip-rule="evenodd" d="M19.6868 6.27454C20.8491 6.60977 21.8103 7.23722 22.5703 8.15689C22.6743 8.31375 22.6743 8.47061 22.5703 8.62748C19.0115 12 15.5564 15.4772 12.2054 19.0588C12.0626 19.1175 11.9326 19.1959 11.8157 19.2941C11.4963 19.1037 11.2626 18.8424 11.1143 18.5098C10.9829 18.0367 10.7491 17.6184 10.4129 17.2549C10.1752 16.7498 10.0713 16.227 10.1012 15.6863C10.1464 15.9285 10.2502 16.1376 10.4129 16.3138C13.5299 13.2799 16.5693 10.1165 19.531 6.82356C19.2836 6.68828 19.0238 6.5837 18.7517 6.50983C19.0029 6.39684 19.2367 6.42299 19.4531 6.58826C19.5648 6.5029 19.6427 6.39832 19.6868 6.27454Z" fill="#5A92FE"/>
<path fill-rule="evenodd" clip-rule="evenodd" d="M27.6358 4.70588C29.2118 6.256 30.3547 8.08607 31.0648 10.1961C30.8865 9.94506 30.7046 9.68362 30.5193 9.41176C30.3321 9.91531 30.0204 10.3336 29.5841 10.6667C29.4242 10.2371 29.1904 9.87106 28.8827 9.56862C28.5334 8.92658 28.1438 8.29913 27.7138 7.68627C27.5955 7.44111 27.4136 7.28425 27.1682 7.21568C26.9385 7.06881 26.7826 6.85965 26.7006 6.58823C26.6989 6.35021 26.5951 6.1672 26.3889 6.03921C26.5967 6.03921 26.8046 6.03921 27.0124 6.03921C27.1682 5.77777 27.376 5.56862 27.6358 5.41176C27.5319 5.20262 27.4281 4.99346 27.3241 4.78431C27.4167 4.71148 27.5206 4.68533 27.6358 4.70588Z" fill="#5686FE"/>
<path opacity="0.027" fill-rule="evenodd" clip-rule="evenodd" d="M27.1682 7.2157C27.4135 7.28426 27.5954 7.44113 27.7137 7.68629C28.1438 8.29915 28.5334 8.9266 28.8827 9.56864C29.2866 10.7093 29.6762 11.8597 30.0517 13.0196C30.1293 13.5399 30.1553 14.0628 30.1296 14.5882C29.6245 11.9483 28.6374 9.49082 27.1682 7.2157Z" fill="#7BA8FE"/>
<path opacity="0.999" fill-rule="evenodd" clip-rule="evenodd" d="M31.0649 10.1961C31.4204 11.8275 31.7322 13.4485 32.0001 15.0588C32.0001 15.6863 32.0001 16.3137 32.0001 16.9412C31.8721 16.4484 31.7942 15.9255 31.7663 15.3725C31.4896 15.6697 31.1779 15.9311 30.8311 16.1568C30.6173 16.5512 30.3835 16.9172 30.1297 17.2549C30.1297 16.3659 30.1297 15.4771 30.1297 14.5882C30.1554 14.0627 30.1294 13.5399 30.0518 13.0196C29.6763 11.8596 29.2867 10.7093 28.8828 9.56861C29.1905 9.87104 29.4243 10.237 29.5842 10.6666C30.0205 10.3336 30.3322 9.91529 30.5194 9.41174C30.7047 9.6836 30.8866 9.94505 31.0649 10.1961Z" fill="#4A76FD"/>
<path fill-rule="evenodd" clip-rule="evenodd" d="M21.8689 15.0588C21.6741 15.0467 21.5442 14.9421 21.4792 14.7451C21.4273 14.9542 21.3753 15.1634 21.3234 15.3725C19.6483 17.1089 17.9338 18.8344 16.1798 20.549C16.1279 20.7059 16.0759 20.8627 16.024 21.0196C15.4657 21.6199 14.8422 22.1427 14.1536 22.5882C13.5967 23.3366 12.9991 24.0687 12.3612 24.7843C12.0937 24.8623 11.8339 24.9147 11.5819 24.9412C11.9793 25.1144 12.3429 25.3235 12.6729 25.5686C11.8233 25.3967 11.044 25.0568 10.3349 24.549C9.86533 24.2856 9.5017 23.9195 9.2439 23.451C10.0514 22.6121 10.8827 21.8017 11.7377 21.0196C13.8721 19.1076 15.9504 17.0944 17.9723 14.9804C18.5808 14.8443 18.8665 14.5045 18.8295 13.9608C19.2139 13.6066 19.5517 13.2406 19.8427 12.8627C20.0884 12.468 20.3741 12.468 20.6999 12.8627C21.2124 13.5284 21.602 14.2604 21.8689 15.0588Z" fill="#5487FD"/>
<path opacity="0.71" fill-rule="evenodd" clip-rule="evenodd" d="M31.0647 10.196C31.4707 11.1084 31.7825 12.0496 31.9999 13.0196C31.9999 13.6993 31.9999 14.3791 31.9999 15.0588C31.732 13.4485 31.4202 11.8275 31.0647 10.196Z" fill="#6D93FE"/>
<path fill-rule="evenodd" clip-rule="evenodd" d="M21.8688 15.0588C22.9965 17.984 22.6068 20.7031 20.6998 23.2157C18.4629 25.5235 15.7873 26.3078 12.6728 25.5686C12.3429 25.3235 11.9792 25.1144 11.5818 24.9412C11.8338 24.9147 12.0936 24.8623 12.3611 24.7843C12.9991 24.0687 13.5966 23.3366 14.1535 22.5883C14.8422 22.1428 15.4656 21.6199 16.0239 21.0196C16.0758 20.8628 16.1279 20.7059 16.1798 20.549C17.9337 18.8344 19.6482 17.1089 21.3233 15.3726C21.3752 15.1634 21.4273 14.9543 21.4792 14.7451C21.5441 14.9421 21.674 15.0467 21.8688 15.0588Z" fill="#507FFE"/>
<path opacity="0.741" fill-rule="evenodd" clip-rule="evenodd" d="M19.8427 12.8628C19.5517 13.2406 19.214 13.6066 18.8296 13.9608C18.8665 14.5045 18.5808 14.8444 17.9724 14.9804C15.9505 17.0945 13.8722 19.1077 11.7378 21.0197C14.3908 18.2451 17.0923 15.5262 19.8427 12.8628Z" fill="#7BA6FE"/>
<path opacity="0.998" fill-rule="evenodd" clip-rule="evenodd" d="M1.91825 14.5883C1.79917 17.3875 2.31866 20.0542 3.47689 22.5883C2.90471 21.7831 2.46315 20.8943 2.15204 19.9216C2.31897 20.5983 2.05915 21.0689 1.37272 21.3334C1.22543 21.2698 1.12147 21.1652 1.06099 21.0196C1.03496 21.0981 1.00909 21.1765 0.983061 21.2549C1.21795 21.7288 1.37381 22.2256 1.45065 22.7451C0.307858 20.6025 -0.159734 18.3018 0.047877 15.8432C0.453435 15.4888 0.869125 15.1227 1.29479 14.7451C1.49617 14.4053 1.626 14.0393 1.68445 13.6471C1.87569 13.9859 1.95363 14.2996 1.91825 14.5883Z" fill="#67A4FE"/>
<path opacity="0.998" fill-rule="evenodd" clip-rule="evenodd" d="M31.9999 16.9412C31.9999 17.3595 31.9999 17.7777 31.9999 18.1961C31.6671 19.1562 31.3814 20.1498 31.1426 21.1765C30.8741 22.0046 30.5363 22.7889 30.1295 23.5294C28.3322 27.1465 25.4748 29.6563 21.557 31.0588C20.8815 31.1901 20.206 31.2686 19.5308 31.2941C20.0942 31.0927 20.5099 30.7268 20.7777 30.1961C21.0634 30.013 21.3492 29.8301 21.6349 29.6471C21.7311 29.4982 21.7052 29.3675 21.557 29.2549C21.6943 29.1439 21.7981 29.013 21.8687 28.8628C23.6333 28.0533 25.14 26.9031 26.3888 25.4118C26.504 25.4323 26.6079 25.4061 26.7005 25.3333C27.4942 24.6143 28.0656 23.7515 28.415 22.7451C29.4197 21.1231 29.9913 19.3453 30.1295 17.4118C30.1295 17.3595 30.1295 17.3071 30.1295 17.2549C30.3833 16.9172 30.6171 16.5512 30.8309 16.1569C31.1777 15.9311 31.4894 15.6697 31.7661 15.3726C31.794 15.9255 31.8719 16.4485 31.9999 16.9412Z" fill="#476BFE"/>
<path opacity="0.2" fill-rule="evenodd" clip-rule="evenodd" d="M32 18.196C32 18.4575 32 18.7189 32 18.9804C31.6945 20.1906 31.3049 21.3931 30.831 22.5882C30.7076 22.997 30.4738 23.3107 30.1296 23.5294C30.5364 22.7888 30.8742 22.0045 31.1428 21.1764C31.3815 20.1498 31.6672 19.1562 32 18.196Z" fill="#7198FE"/>
<path opacity="0.998" fill-rule="evenodd" clip-rule="evenodd" d="M3.47698 22.5882C4.06022 23.4988 4.68368 24.3875 5.34735 25.2548C5.19211 25.2683 5.06227 25.2159 4.95769 25.098C4.88241 25.2467 4.85653 25.4035 4.87976 25.5686C4.72389 25.5686 4.56803 25.5686 4.41216 25.5686C4.41824 25.8602 4.28841 26.0693 4.0225 26.196C3.76268 25.8823 3.50301 25.5686 3.24318 25.2548C3.26407 25.5198 3.342 25.7813 3.47698 26.0392C2.60679 25.074 1.93143 23.9759 1.45075 22.745C1.37391 22.2255 1.21804 21.7287 0.983154 21.2548C1.00918 21.1764 1.03506 21.098 1.06109 21.0195C1.12156 21.1651 1.22552 21.2697 1.37281 21.3333C2.05924 21.0688 2.31907 20.5982 2.15213 19.9215C2.46324 20.8942 2.9048 21.783 3.47698 22.5882Z" fill="#5E98FD"/>
<path opacity="0.086" fill-rule="evenodd" clip-rule="evenodd" d="M30.1295 17.4117C29.9913 19.3452 29.4197 21.1231 28.415 22.7451C29.1174 20.991 29.6889 19.2132 30.1295 17.4117Z" fill="#7AA3FF"/>
<path opacity="0.455" fill-rule="evenodd" clip-rule="evenodd" d="M28.4151 22.7451C28.0657 23.7515 27.4943 24.6143 26.7006 25.3334C26.6081 25.4061 26.5041 25.4323 26.3889 25.4118C27.129 24.5638 27.8043 23.6748 28.4151 22.7451Z" fill="#7298FE"/>
<path opacity="0.989" fill-rule="evenodd" clip-rule="evenodd" d="M5.34733 25.2549C5.95442 25.7997 6.52582 26.3749 7.06183 26.9804C6.82539 26.9786 6.64349 26.8742 6.51631 26.6666C6.42014 26.8155 6.44601 26.9462 6.59424 27.0588C6.24557 27.4343 5.93385 27.8265 5.65906 28.2353C4.77578 27.6601 4.04851 26.9281 3.47696 26.0392C3.34198 25.7813 3.26405 25.5198 3.24316 25.2549C3.50299 25.5686 3.76266 25.8823 4.02248 26.1961C4.28839 26.0693 4.41822 25.8602 4.41214 25.5686C4.56801 25.5686 4.72387 25.5686 4.87974 25.5686C4.85651 25.4036 4.88239 25.2467 4.95767 25.098C5.06225 25.216 5.19209 25.2684 5.34733 25.2549Z" fill="#5C90FE"/>
<path opacity="0.998" fill-rule="evenodd" clip-rule="evenodd" d="M7.06171 26.9804C8.66618 28.2061 10.4326 29.0949 12.3611 29.647C12.4651 29.7516 12.5689 29.8561 12.6728 29.9607C12.5088 29.9374 12.353 29.9634 12.2052 30.0392C13.7062 30.1593 13.7581 30.6037 12.3611 31.3725C12.9287 31.6211 13.5001 31.8304 14.0756 32C13.7639 32 13.4521 32 13.1404 32C10.7965 31.4222 8.61443 30.455 6.59412 29.098C6.2414 28.8444 5.92967 28.5568 5.65894 28.2353C5.93372 27.8265 6.24545 27.4343 6.59412 27.0588C6.44589 26.9462 6.42002 26.8155 6.51619 26.6666C6.64337 26.8742 6.82527 26.9786 7.06171 26.9804Z" fill="#5382FE"/>
<path opacity="0.99" fill-rule="evenodd" clip-rule="evenodd" d="M21.8689 28.8628C21.7983 29.0131 21.6945 29.1439 21.5572 29.2549C21.7054 29.3676 21.7313 29.4982 21.6351 29.6471C21.3494 29.8302 21.0635 30.0131 20.7778 30.1961C20.5101 30.7268 20.0944 31.0928 19.5309 31.2942C20.2061 31.2686 20.8817 31.1902 21.5572 31.0589C20.5883 31.4361 19.6012 31.7499 18.5957 32C17.089 32 15.5824 32 14.0757 32C13.5002 31.8305 12.9288 31.6212 12.3612 31.3726C13.7582 30.6038 13.7063 30.1594 12.2053 30.0393C12.3531 29.9635 12.5089 29.9375 12.6729 29.9608C13.6531 30.0976 14.6402 30.1499 15.6343 30.1177C15.6862 30.1177 15.7383 30.1177 15.7902 30.1177C16.1878 30.1808 16.6033 30.233 17.0371 30.2746C17.424 30.1856 17.7877 30.081 18.1282 29.9608C19.3788 29.6639 20.6257 29.2979 21.8689 28.8628Z" fill="#4A72FD"/>
<path opacity="0.12" fill-rule="evenodd" clip-rule="evenodd" d="M12.3611 29.6471C13.4721 29.8142 14.5631 29.971 15.6342 30.1177C14.6401 30.1498 13.653 30.0976 12.6728 29.9608C12.5689 29.8562 12.465 29.7517 12.3611 29.6471Z" fill="#6C94FF"/>
<path opacity="0.388" fill-rule="evenodd" clip-rule="evenodd" d="M18.128 29.9608C17.7876 30.0809 17.4238 30.1855 17.037 30.2745C16.6032 30.2329 16.1876 30.1807 15.79 30.1176C16.562 29.9876 17.3414 29.9352 18.128 29.9608Z" fill="#7098FF"/>
</svg>
