<svg width="32" height="32" viewBox="0 0 32 32" fill="none" xmlns="http://www.w3.org/2000/svg">
    <g clip-path="url(#clip0_4935_1098)">
        <path fill-rule="evenodd" clip-rule="evenodd"
            d="M-0.0888672 -0.0888672C4.05927 -0.0888672 8.20743 -0.0888672 12.3556 -0.0888672C12.1449 0.610276 11.7004 0.788054 11.0222 0.444466C10.5361 1.04904 9.91389 1.43423 9.15558 1.60002C9.00743 1.86669 8.80002 2.0741 8.53335 2.22224C8.44752 2.39078 8.41789 2.56856 8.44447 2.75558C8.44447 2.8741 8.44447 2.99261 8.44447 3.11113C7.91113 3.28891 7.55558 3.64447 7.3778 4.1778C7.09721 4.27835 6.86018 4.45613 6.66669 4.71113C6.45222 5.31119 6.12628 5.84452 5.68891 6.31113C5.6018 6.54104 5.57216 6.77808 5.60002 7.02224C5.29775 7.44685 5.06071 7.92093 4.88891 8.44447C4.82966 8.44447 4.77039 8.44447 4.71113 8.44447C4.48103 8.71963 4.36253 9.07519 4.35558 9.51113C4.11519 11.5348 4.17444 13.5497 4.53335 15.5556C4.71113 15.5556 4.88891 15.5556 5.06669 15.5556C5.03787 15.916 5.06749 16.2715 5.15558 16.6222C5.29241 16.427 5.44055 16.427 5.60002 16.6222C5.71855 16.7408 5.83705 16.8593 5.95558 16.9778C5.99764 17.5373 6.14578 18.0706 6.40002 18.5778C7.26731 18.8807 7.77103 19.4733 7.91113 20.3556C8.26669 20.4148 8.62224 20.4742 8.9778 20.5334C9.55942 20.7613 10.0335 21.1168 10.4 21.6C10.3767 21.7558 10.436 21.8743 10.5778 21.9556C11.3968 22.128 12.1079 22.4836 12.7111 23.0222C12.7111 23.2 12.7111 23.3778 12.7111 23.5556C12.6284 24.8091 12.9543 25.935 13.6889 26.9334C13.7773 27.4038 13.807 27.8779 13.7778 28.3556C13.9556 28.3556 14.1334 28.3556 14.3111 28.3556C14.3945 29.1088 14.6019 29.8199 14.9334 30.4889C15.0219 30.8523 15.2294 31.0894 15.5556 31.2C15.6148 31.2 15.6741 31.2 15.7334 31.2C15.7334 31.437 15.7334 31.6742 15.7334 31.9111C10.4593 31.9111 5.18521 31.9111 -0.0888672 31.9111C-0.0888672 21.2445 -0.0888672 10.5778 -0.0888672 -0.0888672Z"
            fill="#FEFEFE" />
        <path fill-rule="evenodd" clip-rule="evenodd"
            d="M18.5778 -0.0888672C23.0222 -0.0888672 27.4666 -0.0888672 31.9111 -0.0888672C31.9111 10.5778 31.9111 21.2445 31.9111 31.9111C26.637 31.9111 21.363 31.9111 16.0889 31.9111C16.1845 31.6237 16.2438 31.3273 16.2666 31.0222C16.5413 30.8925 16.6895 30.6555 16.7111 30.3111C16.7703 30.4297 16.8296 30.5481 16.8889 30.6667C17.167 29.8596 17.3448 29.0299 17.4222 28.1778C17.4815 28.237 17.5407 28.2964 17.6 28.3556C17.6997 27.8596 17.9367 27.4448 18.3111 27.1111C18.3938 26.3382 18.4826 25.5678 18.5778 24.8C18.9322 24.2649 19.11 23.6724 19.1111 23.0222C19.4574 22.4939 19.9314 22.1383 20.5333 21.9556C20.5941 21.8066 20.7125 21.7472 20.8889 21.7778C21.6272 21.4025 22.3975 21.0765 23.2 20.8C23.3285 20.4413 23.5063 20.1152 23.7333 19.8222C23.8519 19.5853 24.0297 19.4075 24.2666 19.2889C24.8841 18.909 25.2988 18.3757 25.5111 17.6889C25.7962 17.549 25.9148 17.312 25.8666 16.9778C26.2016 16.4575 26.4979 15.8945 26.7555 15.2889C26.8954 14.9158 26.9546 14.5306 26.9333 14.1334C27.1552 13.9851 27.2738 13.7481 27.2889 13.4222C27.3776 12.7137 27.4368 12.0026 27.4666 11.2889C27.4956 10.5285 27.3772 9.81739 27.1111 9.15558C26.9749 8.62573 26.8268 8.0924 26.6666 7.55558C26.5986 7.45673 26.5097 7.39748 26.4 7.3778C26.4476 7.09353 26.3882 6.85648 26.2222 6.66669C26.1769 6.22804 25.9991 5.87248 25.6889 5.60002C25.1568 4.88985 24.6234 4.17874 24.0889 3.46669C23.8832 3.07949 23.6462 2.72393 23.3778 2.40002C23.0855 1.98196 22.6707 1.74493 22.1333 1.68891C21.9682 1.47756 21.909 1.24052 21.9555 0.9778C20.96 0.429567 19.8341 0.0740118 18.5778 -0.0888672Z"
            fill="#FEFEFD" />
        <path fill-rule="evenodd" clip-rule="evenodd"
            d="M12.3551 -0.0888672C14.4292 -0.0888672 16.5032 -0.0888672 18.5773 -0.0888672C19.8337 0.0740118 20.9596 0.429567 21.9551 0.9778C21.9085 1.24052 21.9677 1.47756 22.1329 1.68891C22.6703 1.74493 23.0851 1.98196 23.3773 2.40002C23.0115 2.14525 22.5965 2.02674 22.1329 2.04447C21.6566 1.80352 21.1825 1.56648 20.7107 1.33336C20.6266 1.08334 20.4488 0.964825 20.1773 0.9778C19.7498 0.752342 19.2756 0.633823 18.7551 0.622244C18.5788 0.652747 18.4604 0.593488 18.3996 0.444466C17.5858 0.179634 16.7266 0.0611152 15.8218 0.0889106C14.917 0.0611152 14.0577 0.179634 13.244 0.444466C13.244 0.503725 13.244 0.562985 13.244 0.622244C12.4504 0.51711 11.7986 0.754146 11.2884 1.33336C10.2895 1.70584 9.34138 2.17992 8.444 2.75558C8.41742 2.56856 8.44705 2.39078 8.53288 2.22224C8.79955 2.0741 9.00696 1.86669 9.15511 1.60002C9.91342 1.43423 10.5356 1.04904 11.0218 0.444466C11.7 0.788054 12.1444 0.610276 12.3551 -0.0888672Z"
            fill="#FBF1E6" />
        <path fill-rule="evenodd" clip-rule="evenodd"
            d="M18.7559 0.62207C19.2764 0.633649 19.7505 0.752168 20.1781 0.977626C19.6456 1.01429 19.1715 0.895766 18.7559 0.62207Z"
            fill="#EC9883" />
        <path fill-rule="evenodd" clip-rule="evenodd"
            d="M18.3997 0.444477C16.6816 0.217248 14.9631 0.217248 13.2441 0.444477C14.0578 0.179645 14.9171 0.0611258 15.8219 0.0889212C16.7267 0.0611258 17.586 0.179645 18.3997 0.444477Z"
            fill="#F6AD97" />
        <path fill-rule="evenodd" clip-rule="evenodd"
            d="M13.2446 0.621884C12.7472 1.1932 12.0954 1.43024 11.2891 1.33299C11.7992 0.753786 12.451 0.516749 13.2446 0.621884Z"
            fill="#D25E42" />
        <path fill-rule="evenodd" clip-rule="evenodd"
            d="M20.1777 0.977523C20.4492 0.964548 20.627 1.08307 20.7111 1.33308C20.4396 1.34605 20.2618 1.22754 20.1777 0.977523Z"
            fill="#E59787" />
        <path fill-rule="evenodd" clip-rule="evenodd"
            d="M18.4002 0.444835C18.461 0.593858 18.5794 0.653116 18.7557 0.622613C19.1714 0.896309 19.6455 1.01483 20.178 0.978169C20.262 1.22818 20.4398 1.3467 20.7113 1.33372C21.1831 1.56685 21.6572 1.80389 22.1335 2.04484C22.2768 2.26316 22.4546 2.44094 22.6668 2.57817C21.8681 2.20972 21.0384 1.8838 20.178 1.60039C18.9132 1.4992 17.6688 1.61772 16.4446 1.95595C16.9899 2.43479 17.6417 2.67182 18.4002 2.66706C17.4389 2.87892 16.4907 2.93817 15.5557 2.84484C16.1269 3.20928 16.601 3.65372 16.978 4.17817C16.2076 4.17817 15.4372 4.17817 14.6668 4.17817C14.248 3.81243 14.0702 3.33835 14.1335 2.75595C13.6486 2.57285 13.1152 2.42471 12.5335 2.3115C12.2359 1.86631 11.8211 1.59965 11.2891 1.5115C11.2891 1.45224 11.2891 1.39298 11.2891 1.33372C12.0954 1.43097 12.7472 1.19393 13.2446 0.622613C13.2446 0.563355 13.2446 0.504094 13.2446 0.444835C14.9636 0.217607 16.6821 0.217607 18.4002 0.444835Z"
            fill="#DC4125" />
        <path fill-rule="evenodd" clip-rule="evenodd"
            d="M22.1338 2.0447C22.5974 2.02697 23.0124 2.14548 23.3782 2.40025C23.6467 2.72416 23.8837 3.07972 24.0893 3.46692C23.6108 3.1637 23.1366 2.86742 22.6671 2.57803C22.4549 2.4408 22.2771 2.26303 22.1338 2.0447Z"
            fill="#FBD0C5" />
        <path fill-rule="evenodd" clip-rule="evenodd"
            d="M8.4446 3.11133C8.14829 3.52614 7.79274 3.88169 7.37793 4.17799C7.55571 3.64466 7.91126 3.28911 8.4446 3.11133Z"
            fill="#C07359" />
        <path fill-rule="evenodd" clip-rule="evenodd"
            d="M14.6665 4.17781C15.4369 4.17781 16.2072 4.17781 16.9776 4.17781C17.4517 4.17781 17.9257 4.17781 18.3998 4.17781C18.3998 4.65189 18.3998 5.12595 18.3998 5.60003C18.8361 5.56812 19.2213 5.68665 19.5554 5.95559C19.7243 5.86273 19.8725 5.74421 19.9998 5.60003C20.2471 6.02497 20.6027 6.32126 21.0665 6.48892C21.224 6.63559 21.2832 6.81337 21.2443 7.02226C21.7612 6.98 22.1762 7.15778 22.4887 7.55559C22.658 7.83031 22.7172 8.12661 22.6665 8.44448C22.0041 8.38713 21.3522 8.4464 20.7109 8.62226C20.8485 8.83758 20.9966 8.83758 21.1554 8.62226C21.2379 8.72793 21.2676 8.84645 21.2443 8.97781C21.0073 9.15559 20.7701 9.33337 20.5332 9.51114C20.2852 9.17703 19.9296 8.99925 19.4665 8.97781C19.166 8.91445 18.9883 8.73667 18.9332 8.44448C18.9332 8.2667 18.9332 8.08892 18.9332 7.91114C18.7461 7.93772 18.5684 7.90809 18.3998 7.82226C18.1266 7.51874 17.8302 7.25207 17.5109 7.02226C17.2395 7.03523 17.0617 6.91671 16.9776 6.6667C16.729 6.24023 16.3735 5.94393 15.9109 5.77781C15.6952 5.82176 15.5767 5.94026 15.5554 6.13337C15.2777 6.17477 15.0407 6.29328 14.8443 6.48892C14.5417 6.18949 14.2751 5.83393 14.0443 5.42225C13.5742 5.10048 13.1297 4.74492 12.7109 4.35559C13.1674 4.11246 13.5822 4.17173 13.9554 4.53337C14.1374 4.2928 14.3744 4.17429 14.6665 4.17781Z"
            fill="#D53624" />
        <path fill-rule="evenodd" clip-rule="evenodd"
            d="M22.6668 2.57816C23.1363 2.86755 23.6104 3.16383 24.089 3.46705C24.6236 4.1791 25.1569 4.89021 25.689 5.60038C25.7343 6.03903 25.9121 6.39459 26.2223 6.66705C26.3884 6.85685 26.4478 7.09389 26.4001 7.37816C26.5528 8.02063 26.5528 8.67249 26.4001 9.33372C26.5779 9.33372 26.7557 9.33372 26.9334 9.33372C26.879 9.84668 26.9382 10.3208 27.1112 10.7559C27.1683 11.6794 27.1089 12.5683 26.9334 13.4226C26.9848 12.8627 26.8959 12.3294 26.6668 11.8226C26.0865 11.0782 25.4643 10.3671 24.8001 9.68927C23.6598 9.22643 22.4748 8.9894 21.2446 8.97816C21.2678 8.8468 21.2382 8.72828 21.1557 8.6226C20.9969 8.83793 20.8488 8.83793 20.7112 8.6226C21.3525 8.44675 22.0044 8.38748 22.6668 8.44483C22.7174 8.12696 22.6582 7.83066 22.489 7.55594C22.1765 7.15812 21.7615 6.98035 21.2446 7.02261C21.2835 6.81372 21.2243 6.63594 21.0668 6.48927C20.603 6.32161 20.2474 6.02533 20.0001 5.60038C19.8728 5.74456 19.7246 5.86309 19.5557 5.95594C19.2216 5.687 18.8364 5.56847 18.4001 5.60038C18.4001 5.1263 18.4001 4.65224 18.4001 4.17816C17.926 4.17816 17.452 4.17816 16.9779 4.17816C16.6009 3.65372 16.1268 3.20927 15.5557 2.84483C16.4907 2.93816 17.4388 2.87891 18.4001 2.66705C17.6417 2.67181 16.9898 2.43478 16.4446 1.95594C17.6687 1.61771 18.9132 1.49919 20.1779 1.60038C21.0383 1.8838 21.868 2.20972 22.6668 2.57816Z"
            fill="#DF3929" />
        <path fill-rule="evenodd" clip-rule="evenodd"
            d="M11.2886 1.51074C11.8206 1.59889 12.2355 1.86555 12.5331 2.31074C13.1148 2.42395 13.6481 2.57209 14.1331 2.75519C14.0698 3.33759 14.2475 3.81167 14.6664 4.17741C14.3743 4.17389 14.1373 4.2924 13.9553 4.53296C13.5821 4.17133 13.1673 4.11206 12.7108 4.35519C13.1296 4.74452 13.5741 5.10008 14.0442 5.42185C14.275 5.83353 14.5416 6.18909 14.8442 6.48852C14.7256 6.6663 14.6071 6.84408 14.4886 7.02185C14.0696 6.99282 13.6548 7.02246 13.2442 7.11074C13.3929 7.29053 13.4522 7.49792 13.4219 7.73296C12.9361 7.78699 12.6398 7.57958 12.5331 7.11074C12.8196 6.84728 12.9974 6.52136 13.0664 6.13296C12.5645 6.26036 12.0905 6.43814 11.6442 6.6663C11.5987 6.23743 11.7764 5.94112 12.1775 5.77741C11.9097 5.55568 11.643 5.55568 11.3775 5.77741C11.2917 5.60888 11.262 5.4311 11.2886 5.24408C10.696 5.24408 10.1034 5.24408 9.51083 5.24408C9.54132 4.88998 9.42281 4.59368 9.15527 4.35519C9.45988 4.11017 9.69691 3.81389 9.86638 3.4663C9.85031 3.12406 9.67254 2.91666 9.33305 2.84408C10.0244 2.41272 10.6763 1.96827 11.2886 1.51074Z"
            fill="#CD3821" />
        <path fill-rule="evenodd" clip-rule="evenodd"
            d="M11.2892 1.33301C11.2892 1.39227 11.2892 1.45153 11.2892 1.51079C10.6769 1.96831 10.025 2.41276 9.33362 2.84412C9.6731 2.91671 9.85088 3.1241 9.86695 3.46634C9.69747 3.81393 9.46044 4.11022 9.15584 4.35523C9.42338 4.59372 9.54188 4.89002 9.51139 5.24412C10.104 5.24412 10.6966 5.24412 11.2892 5.24412C11.2626 5.43114 11.2922 5.60892 11.3781 5.77745C11.6436 5.55573 11.9103 5.55573 12.1781 5.77745C11.777 5.94117 11.5992 6.23747 11.6447 6.66634C12.091 6.43818 12.5651 6.2604 13.0669 6.13301C12.998 6.5214 12.8202 6.84732 12.5336 7.11079C12.6404 7.57962 12.9367 7.78703 13.4225 7.73301C13.4527 7.49797 13.3935 7.29057 13.2447 7.11079C13.6554 7.0225 14.0702 6.99287 14.4892 7.0219C14.4299 7.19967 14.3114 7.3182 14.1336 7.37745C13.7188 7.67375 13.3633 8.02931 13.0669 8.44412C13.0077 8.6219 12.8892 8.74042 12.7114 8.79967C12.2966 9.09598 11.941 9.45153 11.6447 9.86634C11.4028 10.2268 11.1065 10.5231 10.7558 10.7552C10.6373 10.7552 10.5188 10.7552 10.4003 10.7552C10.4003 10.4589 10.4003 10.1626 10.4003 9.86634C10.7743 9.91948 11.1299 9.86023 11.4669 9.68856C11.4273 9.42782 11.3681 9.16115 11.2892 8.88856C10.3834 8.50152 9.4353 8.35338 8.44473 8.44412C8.33074 7.91139 8.0937 7.43731 7.73362 7.0219C7.93175 6.62501 7.93175 6.23982 7.73362 5.86634C8.32661 5.42129 8.50439 4.85832 8.26695 4.17745C8.26912 4.91 7.91356 5.35445 7.20028 5.51079C7.42848 5.74145 7.39884 5.94887 7.11139 6.13301C6.9883 6.03962 6.89941 5.92111 6.84473 5.77745C6.97731 5.55768 7.03658 5.32065 7.0225 5.06634C7.20073 4.79774 7.31925 4.50143 7.37806 4.17745C7.79287 3.88115 8.14842 3.52559 8.44473 3.11079C8.44473 2.99226 8.44473 2.87375 8.44473 2.75523C9.34211 2.17957 10.2903 1.70549 11.2892 1.33301Z"
            fill="#C33620" />
        <path fill-rule="evenodd" clip-rule="evenodd"
            d="M16.9779 6.66623C16.5724 6.32349 16.0983 6.14572 15.5557 6.1329C15.577 5.9398 15.6955 5.82129 15.9112 5.77734C16.3738 5.94346 16.7293 6.23976 16.9779 6.66623Z"
            fill="#F7C0AF" />
        <path fill-rule="evenodd" clip-rule="evenodd"
            d="M15.556 6.13379C16.0987 6.14661 16.5727 6.32438 16.9782 6.66712C17.0623 6.91713 17.2401 7.03566 17.5115 7.02268C17.5529 7.30033 17.6715 7.53736 17.8671 7.73379C17.8671 7.97082 17.8671 8.20787 17.8671 8.4449C18.0449 8.4449 18.2227 8.4449 18.4004 8.4449C18.3432 8.83999 18.4618 9.16591 18.756 9.42268C19.4045 9.7665 20.0563 10.0924 20.7115 10.4005C21.0484 10.6623 21.3446 10.9586 21.6004 11.2893C21.0344 11.6295 20.3825 11.7481 19.6449 11.6449C19.6449 13.1856 19.6449 14.7264 19.6449 16.2671C18.9338 16.2671 18.2227 16.2671 17.5115 16.2671C17.5115 15.2005 17.5115 14.1338 17.5115 13.0671C16.4274 12.9575 15.42 13.076 14.4893 13.4227C14.3627 14.2881 14.2441 15.177 14.1338 16.0893C13.5527 16.2648 12.9601 16.3241 12.356 16.2671C12.414 14.6939 12.3547 13.1531 12.1782 11.6449C11.5158 11.7023 10.864 11.643 10.2227 11.4671C10.4732 11.277 10.651 11.04 10.756 10.756C11.1067 10.5238 11.403 10.2275 11.6449 9.86712C12.1782 9.68934 12.5338 9.33379 12.7115 8.80046C12.8893 8.7412 13.0078 8.62268 13.0671 8.4449C13.6004 8.26712 13.956 7.91157 14.1338 7.37823C14.3115 7.31898 14.4301 7.20046 14.4893 7.02268C14.9496 6.85923 15.3052 6.56294 15.556 6.13379Z"
            fill="#FCFCF9" />
        <path fill-rule="evenodd" clip-rule="evenodd"
            d="M25.6885 5.59961C25.9987 5.87207 26.1765 6.22763 26.2218 6.66628C25.9116 6.39381 25.7338 6.03826 25.6885 5.59961Z"
            fill="#EF9B8C" />
        <path fill-rule="evenodd" clip-rule="evenodd"
            d="M7.37775 4.17773C7.31894 4.50172 7.20041 4.79802 7.02219 5.06662C6.62157 5.58499 6.32527 6.17759 6.1333 6.8444C5.98663 7.00186 5.80886 7.06111 5.59997 7.02218C5.57211 6.77802 5.60175 6.54097 5.68886 6.31107C6.12623 5.84445 6.45216 5.31112 6.66663 4.71107C6.86013 4.45606 7.09716 4.27829 7.37775 4.17773Z"
            fill="#B65439" />
        <path fill-rule="evenodd" clip-rule="evenodd"
            d="M15.5559 6.13379C15.3051 6.56294 14.9496 6.85923 14.4893 7.02268C14.6078 6.8449 14.7263 6.66712 14.8448 6.48934C15.0412 6.2937 15.2783 6.17519 15.5559 6.13379Z"
            fill="#FAB8A7" />
        <path fill-rule="evenodd" clip-rule="evenodd"
            d="M14.1331 7.37793C13.9553 7.91126 13.5997 8.26682 13.0664 8.4446C13.3627 8.02979 13.7183 7.67423 14.1331 7.37793Z"
            fill="#F6B6A8" />
        <path fill-rule="evenodd" clip-rule="evenodd"
            d="M17.5107 7.02246C17.83 7.25227 18.1264 7.51894 18.3996 7.82246C18.5682 7.90829 18.7459 7.93793 18.933 7.91135C18.933 8.08913 18.933 8.26691 18.933 8.44468C18.5323 8.282 18.1767 8.04497 17.8663 7.73357C17.6707 7.53715 17.5521 7.30011 17.5107 7.02246Z"
            fill="#D6635A" />
        <path fill-rule="evenodd" clip-rule="evenodd"
            d="M10.4003 10.7555C10.1896 10.9967 10.0118 11.2634 9.86699 11.5555C9.92674 11.7386 10.0453 11.8275 10.2225 11.8222C10.718 11.9958 11.2513 12.0551 11.8225 12C11.7646 13.5141 11.8238 14.9955 12.0003 16.4444C12.795 16.6197 13.6246 16.679 14.4892 16.6222C13.5753 16.7978 12.6272 16.8571 11.6448 16.8C11.7026 15.4041 11.6433 14.0412 11.467 12.7111C10.8009 12.7302 10.149 12.6413 9.51143 12.4444C8.80032 11.7277 8.08921 11.0166 7.3781 10.3111C6.71837 10.28 6.06653 10.1911 5.42255 10.0444C4.95551 9.73338 4.95551 9.43709 5.42255 9.15551C5.58765 9.36685 5.6469 9.6039 5.60032 9.86662C6.0744 9.86662 6.54847 9.86662 7.02255 9.86662C7.02255 9.68885 7.02255 9.51107 7.02255 9.33329C7.49663 9.33329 7.97069 9.33329 8.44477 9.33329C8.42921 9.8841 8.5181 9.94335 8.71143 9.51107C8.80032 9.59996 8.88921 9.68885 8.9781 9.77773C8.72112 10.221 8.83963 10.5469 9.33366 10.7555C9.39291 10.6074 9.45218 10.4592 9.51143 10.3111C9.35266 9.78911 9.17488 9.28541 8.9781 8.79996C8.33481 8.93215 7.68295 8.99142 7.02255 8.97773C7.02255 8.79996 7.02255 8.62218 7.02255 8.4444C6.6114 8.2367 6.19659 7.99965 5.7781 7.73329C5.613 7.52195 5.55375 7.2849 5.60032 7.02218C5.80921 7.06111 5.98699 7.00186 6.13366 6.8444C6.32562 6.17759 6.62192 5.58499 7.02255 5.06662C7.03663 5.32093 6.97735 5.55797 6.84477 5.77773C6.89945 5.9214 6.98834 6.0399 7.11143 6.13329C7.39888 5.94915 7.42852 5.74173 7.20032 5.51107C7.9136 5.35473 8.26916 4.91029 8.26699 4.17773C8.50443 4.85861 8.32665 5.42157 7.73366 5.86662C7.93179 6.2401 7.93179 6.62529 7.73366 7.02218C8.09375 7.43759 8.33078 7.91167 8.44477 8.4444C9.43535 8.35366 10.3835 8.50181 11.2892 8.88885C11.3681 9.16143 11.4273 9.4281 11.467 9.68885C11.1299 9.86051 10.7744 9.91976 10.4003 9.86662C10.4003 10.1629 10.4003 10.4592 10.4003 10.7555Z"
            fill="#B82E1A" />
        <path fill-rule="evenodd" clip-rule="evenodd"
            d="M17.8662 7.7334C18.1766 8.04479 18.5322 8.28183 18.9329 8.44451C18.988 8.73671 19.1658 8.91448 19.4662 8.97784C19.7588 9.56632 20.1738 10.0404 20.7107 10.4001C20.0554 10.092 19.4036 9.76611 18.7551 9.42229C18.4609 9.16552 18.3423 8.8396 18.3995 8.44451C18.2218 8.44451 18.044 8.44451 17.8662 8.44451C17.8662 8.20748 17.8662 7.97043 17.8662 7.7334Z"
            fill="#FBEBDF" />
        <path fill-rule="evenodd" clip-rule="evenodd"
            d="M26.4004 7.37793C26.5101 7.39761 26.599 7.45686 26.6671 7.55571C26.8272 8.09253 26.9753 8.62586 27.1115 9.15571C27.1115 9.68904 27.1115 10.2224 27.1115 10.7557C26.9385 10.3205 26.8793 9.84645 26.9337 9.33349C26.7559 9.33349 26.5782 9.33349 26.4004 9.33349C26.5531 8.67226 26.5531 8.0204 26.4004 7.37793Z"
            fill="#D34F3E" />
        <path fill-rule="evenodd" clip-rule="evenodd"
            d="M12.7112 8.7998C12.5334 9.33314 12.1779 9.68869 11.6445 9.86647C11.9408 9.45166 12.2964 9.09611 12.7112 8.7998Z"
            fill="#F7A89F" />
        <path fill-rule="evenodd" clip-rule="evenodd"
            d="M21.2447 8.97754C22.4749 8.98877 23.66 9.22581 24.8003 9.68865C25.4644 10.3665 26.0867 11.0776 26.6669 11.822C26.8961 12.3288 26.985 12.8621 26.9336 13.422C26.9336 13.659 26.9336 13.8961 26.9336 14.1331C26.4648 14.4854 26.2278 14.9595 26.2225 15.5553C26.0941 15.6295 26.0052 15.7481 25.9558 15.9109C25.9245 15.3097 25.8356 14.7171 25.6892 14.1331C25.4708 14.797 25.1745 14.8266 24.8003 14.222C24.5704 14.1349 24.3332 14.1052 24.0892 14.1331C24.0892 13.659 24.0892 13.185 24.0892 12.7109C23.615 12.7109 23.1411 12.7109 22.6669 12.7109C22.684 13.5919 22.5062 13.6216 22.1336 12.7998C22.3153 12.4141 22.4931 12.0289 22.6669 11.6442C22.0986 11.0015 21.4467 10.4385 20.7114 9.95532C20.5777 9.83606 20.5183 9.68792 20.5336 9.51087C20.7706 9.33309 21.0077 9.15532 21.2447 8.97754Z"
            fill="#CD1A1D" />
        <path fill-rule="evenodd" clip-rule="evenodd"
            d="M4.711 8.44434C4.77025 8.44434 4.82953 8.44434 4.88878 8.44434C4.76108 10.0411 4.70183 11.6411 4.711 13.2443C4.50519 11.672 4.50519 10.072 4.711 8.44434Z"
            fill="#A3594A" />
        <path fill-rule="evenodd" clip-rule="evenodd"
            d="M27.1114 9.15527C27.3775 9.81709 27.4959 10.5282 27.4669 11.2886C27.4371 12.0023 27.3779 12.7134 27.2891 13.4219C27.274 13.7478 27.1555 13.9848 26.9336 14.1331C26.9336 13.896 26.9336 13.659 26.9336 13.4219C27.1091 12.5676 27.1684 11.6788 27.1114 10.7553C27.1114 10.2219 27.1114 9.68861 27.1114 9.15527Z"
            fill="#E6907E" />
        <path fill-rule="evenodd" clip-rule="evenodd"
            d="M5.59977 7.02246C5.55319 7.28518 5.61245 7.52223 5.77755 7.73357C6.19604 7.99994 6.61085 8.23699 7.02199 8.44468C7.02199 8.62246 7.02199 8.80024 7.02199 8.97802C7.6824 8.99171 8.33426 8.93243 8.97755 8.80024C9.17433 9.2857 9.35211 9.78939 9.51088 10.3113C9.45163 10.4595 9.39236 10.6077 9.33311 10.7558C8.83908 10.5472 8.72057 10.2213 8.97755 9.77802C8.88866 9.68913 8.79977 9.60024 8.71088 9.51135C8.51755 9.94363 8.42866 9.88438 8.44422 9.33357C7.97014 9.33357 7.49607 9.33357 7.02199 9.33357C7.02199 9.51135 7.02199 9.68913 7.02199 9.86691C6.54791 9.86691 6.07385 9.86691 5.59977 9.86691C5.64635 9.60419 5.5871 9.36714 5.42199 9.15579C4.95495 9.43738 4.95495 9.73366 5.42199 10.0447C6.06598 10.1914 6.71782 10.2803 7.37755 10.3113C8.08866 11.0169 8.79977 11.728 9.51088 12.4447C10.1484 12.6416 10.8003 12.7305 11.4664 12.7113C11.4817 12.8884 11.4224 13.0365 11.2887 13.1558C11.0516 13.1854 10.8146 13.215 10.5776 13.2447C9.83353 13.1671 9.12242 12.9894 8.44422 12.7113C8.44422 12.9484 8.44422 13.1854 8.44422 13.4225C8.57565 13.7221 8.22009 13.6925 7.37755 13.3336C7.11563 13.2074 6.99712 13 7.02199 12.7113C6.48866 12.7113 5.95533 12.7113 5.42199 12.7113C5.45117 12.2336 5.42153 11.7595 5.33311 11.2891C5.1855 12.2327 5.09661 13.1808 5.06644 14.1336C5.00719 14.1336 4.94791 14.1336 4.88866 14.1336C4.93924 13.7932 4.87997 13.4969 4.71088 13.2447C4.70171 11.6414 4.76096 10.0414 4.88866 8.44468C5.06047 7.92115 5.2975 7.44707 5.59977 7.02246Z"
            fill="#AC2919" />
        <path fill-rule="evenodd" clip-rule="evenodd"
            d="M4.71113 8.44434C4.50532 10.072 4.50532 11.672 4.71113 13.2443C4.88022 13.4965 4.93949 13.7928 4.88891 14.1332C5.0711 14.9808 5.30815 15.8104 5.60002 16.6221C5.44056 16.4269 5.29241 16.4269 5.15558 16.6221C5.06749 16.2714 5.03787 15.9159 5.06669 15.5554C4.88891 15.5554 4.71113 15.5554 4.53336 15.5554C4.17444 13.5495 4.11519 11.5347 4.35558 9.511C4.36253 9.07506 4.48104 8.7195 4.71113 8.44434Z"
            fill="#FBF3E8" />
        <path fill-rule="evenodd" clip-rule="evenodd"
            d="M22.6666 11.6445C22.4927 12.0292 22.3149 12.4144 22.1332 12.8001C22.5059 13.6219 22.6836 13.5923 22.6666 12.7112C23.1407 12.7112 23.6147 12.7112 24.0888 12.7112C24.0888 13.1853 24.0888 13.6593 24.0888 14.1334C24.3329 14.1056 24.57 14.1352 24.7999 14.2223C25.1741 14.8269 25.4705 14.7973 25.6888 14.1334C25.8353 14.7174 25.9242 15.31 25.9555 15.9112C26.0049 15.7484 26.0938 15.6299 26.2221 15.5556C26.0196 16.0007 25.9011 16.4748 25.8666 16.9779C25.748 16.9779 25.6296 16.9779 25.511 16.9779C24.9892 17.0164 24.4854 17.1349 23.9999 17.3334C23.5804 17.1059 23.1359 16.9873 22.6666 16.9779C22.334 16.1705 21.7414 15.6964 20.8888 15.5556C20.8888 15.0816 20.8888 14.6075 20.8888 14.1334C20.2557 14.0597 20.2854 13.8819 20.9777 13.6001C21.0655 13.3096 21.095 13.0133 21.0666 12.7112C20.8296 12.7112 20.5924 12.7112 20.3555 12.7112C20.3555 12.5334 20.3555 12.3556 20.3555 12.1779C20.951 12.2072 21.5436 12.1776 22.1332 12.089C22.345 11.9649 22.5228 11.8167 22.6666 11.6445Z"
            fill="#C2161B" />
        <path fill-rule="evenodd" clip-rule="evenodd"
            d="M21.6004 11.2891C21.7189 11.2891 21.7781 11.3483 21.7781 11.4668C21.2121 11.807 20.5602 11.9256 19.8226 11.8224C19.8226 13.3631 19.8226 14.9039 19.8226 16.4446C18.9929 16.6816 18.1634 16.6816 17.3337 16.4446C17.3337 15.378 17.3337 14.3113 17.3337 13.2446C16.4102 13.1876 15.5213 13.2469 14.667 13.4224C14.6078 13.4224 14.5485 13.4224 14.4893 13.4224C15.4199 13.0757 16.4274 12.9572 17.5115 13.0668C17.5115 14.1335 17.5115 15.2002 17.5115 16.2668C18.2226 16.2668 18.9337 16.2668 19.6448 16.2668C19.6448 14.7261 19.6448 13.1854 19.6448 11.6446C20.3824 11.7478 21.0343 11.6293 21.6004 11.2891Z"
            fill="#E4ACA3" />
        <path fill-rule="evenodd" clip-rule="evenodd"
            d="M10.3995 10.7559C10.5181 10.7559 10.6366 10.7559 10.7551 10.7559C10.6501 11.0398 10.4723 11.2768 10.2218 11.467C10.8631 11.6428 11.5149 11.7021 12.1773 11.6447C12.1773 13.2447 12.1773 14.8447 12.1773 16.4447C12.1181 16.4447 12.0588 16.4447 11.9995 16.4447C11.9995 14.904 11.9995 13.3633 11.9995 11.8225C11.407 11.8225 10.8144 11.8225 10.2218 11.8225C10.0445 11.8278 9.92596 11.739 9.86621 11.5559C10.011 11.2637 10.1888 10.997 10.3995 10.7559Z"
            fill="#DD9885" />
        <path fill-rule="evenodd" clip-rule="evenodd"
            d="M14.667 13.4224C15.5213 13.2469 16.4102 13.1876 17.3337 13.2446C17.3337 14.3112 17.3337 15.3779 17.3337 16.4446C17.1579 15.4712 17.0986 14.4638 17.1559 13.4224C16.3262 13.4224 15.4966 13.4224 14.667 13.4224Z"
            fill="#D1655E" />
        <path fill-rule="evenodd" clip-rule="evenodd"
            d="M21.7778 11.4668C21.9385 11.5928 21.9977 11.7706 21.9556 12.0001C21.3037 12.0001 20.652 12.0001 20 12.0001C20.058 13.5142 19.9988 14.9957 19.8223 16.4446C19.8223 14.9038 19.8223 13.3631 19.8223 11.8224C20.5599 11.9255 21.2118 11.807 21.7778 11.4668Z"
            fill="#D25F52" />
        <path fill-rule="evenodd" clip-rule="evenodd"
            d="M10.2227 11.8223C10.8152 11.8223 11.4078 11.8223 12.0004 11.8223C12.0004 13.363 12.0004 14.9037 12.0004 16.4445C11.824 14.9956 11.7647 13.5141 11.8227 12C11.2514 12.0552 10.7181 11.9959 10.2227 11.8223Z"
            fill="#D15D4D" />
        <path fill-rule="evenodd" clip-rule="evenodd"
            d="M26.9329 14.1338C26.9542 14.531 26.895 14.9162 26.7551 15.2893C26.4975 15.8949 26.2011 16.4579 25.8662 16.9782C25.9007 16.4752 26.0193 16.0011 26.2218 15.556C26.2271 14.9602 26.4641 14.4861 26.9329 14.1338Z"
            fill="#C75248" />
        <path fill-rule="evenodd" clip-rule="evenodd"
            d="M4.88867 14.1338C4.94793 14.1338 5.0072 14.1338 5.06645 14.1338C5.18497 14.3708 5.30348 14.6079 5.42201 14.8449C5.97738 15.78 6.39221 16.7874 6.66645 17.8671C6.42942 17.5708 6.19237 17.2745 5.95534 16.9782C5.83681 16.8597 5.71831 16.7412 5.59978 16.6227C5.30791 15.811 5.07086 14.9814 4.88867 14.1338Z"
            fill="#9F4031" />
        <path fill-rule="evenodd" clip-rule="evenodd"
            d="M12.1777 11.6445C12.3543 13.1528 12.4135 14.6935 12.3555 16.2668C12.9597 16.3237 13.5523 16.2644 14.1333 16.089C14.2437 15.1766 14.3622 14.2877 14.4888 13.4223C14.5394 14.3817 14.4802 15.3299 14.3111 16.2668C13.6097 16.4429 12.8986 16.5022 12.1777 16.4445C12.1777 14.8445 12.1777 13.2445 12.1777 11.6445Z"
            fill="#EDC6B5" />
        <path fill-rule="evenodd" clip-rule="evenodd"
            d="M14.4889 13.4219C14.5481 13.4219 14.6074 13.4219 14.6667 13.4219C14.718 14.5047 14.6587 15.5713 14.4889 16.6219C13.6243 16.6787 12.7947 16.6194 12 16.4441C12.0593 16.4441 12.1185 16.4441 12.1778 16.4441C12.8986 16.5017 13.6097 16.4425 14.3111 16.2663C14.4802 15.3295 14.5395 14.3813 14.4889 13.4219Z"
            fill="#D7766D" />
        <path fill-rule="evenodd" clip-rule="evenodd"
            d="M19.4668 8.97754C19.9299 8.99898 20.2854 9.17676 20.5334 9.51087C20.5181 9.68792 20.5775 9.83606 20.7112 9.95532C21.4465 10.4385 22.0984 11.0015 22.6668 11.6442C22.5229 11.8164 22.3452 11.9646 22.1334 12.0886C21.5437 12.1772 20.9512 12.2069 20.3556 12.1775C20.3556 12.3553 20.3556 12.5331 20.3556 12.7109C20.5926 12.7109 20.8298 12.7109 21.0668 12.7109C21.0952 13.013 21.0657 13.3093 20.9779 13.5998C20.2856 13.8816 20.2559 14.0593 20.889 14.1331C20.889 14.6072 20.889 15.0812 20.889 15.5553C21.7416 15.6961 22.3341 16.1701 22.6668 16.9775C23.1361 16.987 23.5805 17.1055 24.0001 17.3331C24.4856 17.1346 24.9894 17.0161 25.5112 16.9775C25.5112 17.1553 25.5112 17.3331 25.5112 17.5109C24.6799 17.6311 24.2058 18.1052 24.089 18.9331C23.9112 18.9331 23.7334 18.9331 23.5556 18.9331C23.5556 18.7553 23.5556 18.5775 23.5556 18.3998C23.2196 18.4358 22.953 18.3174 22.7556 18.0442C22.6676 18.395 22.638 18.7505 22.6668 19.1109C22.2477 19.0819 21.833 19.1114 21.4223 19.1998C21.2735 19.3795 21.2143 19.587 21.2445 19.822C20.7704 19.822 20.2964 19.822 19.8223 19.822C19.8223 20.059 19.8223 20.2961 19.8223 20.5331C19.2536 20.3674 18.6908 20.3674 18.1334 20.5331C17.8287 20.4307 17.6212 20.2232 17.5112 19.9109C17.3427 19.825 17.1649 19.7955 16.9779 19.822C16.9779 19.585 16.9779 19.3478 16.9779 19.1109C16.5038 19.1109 16.0297 19.1109 15.5556 19.1109C15.5556 18.8739 15.5556 18.6367 15.5556 18.3998C14.9674 18.4339 14.5229 18.1969 14.2223 17.6886C14.1352 17.4587 14.1056 17.2217 14.1334 16.9775C13.2688 17.0343 12.4392 16.9751 11.6445 16.7998C12.627 16.8569 13.5751 16.7976 14.489 16.622C14.6588 15.5714 14.7181 14.5048 14.6668 13.422C15.4964 13.422 16.326 13.422 17.1556 13.422C17.0984 14.4634 17.1576 15.4708 17.3334 16.4442C18.1631 16.6812 18.9926 16.6812 19.8223 16.4442C19.9988 14.9953 20.058 13.5139 20.0001 11.9998C20.652 11.9998 21.3037 11.9998 21.9556 11.9998C21.9978 11.7703 21.9386 11.5925 21.7779 11.4664C21.7779 11.3479 21.7187 11.2887 21.6001 11.2887C21.3443 10.9579 21.0481 10.6616 20.7112 10.3998C20.1743 10.0401 19.7594 9.56602 19.4668 8.97754Z"
            fill="#B21417" />
        <path fill-rule="evenodd" clip-rule="evenodd"
            d="M25.5107 16.9775C25.6293 16.9775 25.7477 16.9775 25.8663 16.9775C25.9145 17.3117 25.7959 17.5487 25.5107 17.6887C25.5107 17.6294 25.5107 17.5701 25.5107 17.5109C25.5107 17.3331 25.5107 17.1553 25.5107 16.9775Z"
            fill="#CE8381" />
        <path fill-rule="evenodd" clip-rule="evenodd"
            d="M5.95508 16.9775C6.19211 17.2738 6.42916 17.5701 6.66619 17.8664C7.37534 18.8124 8.14571 19.7013 8.9773 20.5331C8.62174 20.4739 8.26619 20.4145 7.91063 20.3553C7.77053 19.473 7.26681 18.8805 6.39952 18.5775C6.14528 18.0703 5.99714 17.5371 5.95508 16.9775Z"
            fill="#EFCEC4" />
        <path fill-rule="evenodd" clip-rule="evenodd"
            d="M5.42188 14.8444C6.02792 14.7999 6.62051 14.8591 7.19965 15.0222C7.74225 15.5206 8.15706 16.1132 8.4441 16.8C9.37453 17.0921 10.3227 17.2698 11.2885 17.3333C11.2885 17.6889 11.2885 18.0444 11.2885 18.4C11.7626 18.4 12.2367 18.4 12.7108 18.4C12.6642 18.6627 12.7234 18.8997 12.8885 19.1111C13.2091 19.2243 13.4461 19.4316 13.5997 19.7333C13.7682 19.8192 13.946 19.8487 14.133 19.8222C14.133 20.1778 14.133 20.5333 14.133 20.8889C14.7256 20.8889 15.3182 20.8889 15.9108 20.8889C15.8829 21.133 15.9125 21.3701 15.9997 21.6C16.4812 21.8547 16.8664 22.2103 17.1552 22.6666C17.2941 22.4482 17.383 22.2112 17.4219 21.9555C17.9426 22.4265 18.4462 22.4857 18.933 22.1333C18.9138 22.5392 18.7657 22.8947 18.4885 23.2C18.4443 23.0002 18.3554 22.8224 18.2219 22.6666C18.0565 23.4147 17.6713 24.0073 17.0663 24.4444C17.0116 24.3008 16.9227 24.1822 16.7997 24.0889C16.0762 24.4668 15.3058 24.7335 14.4885 24.8889C14.2487 25.0261 14.1006 25.2336 14.0441 25.5111C13.956 25.1603 13.9264 24.8048 13.9552 24.4444C13.7774 24.4444 13.5997 24.4444 13.4219 24.4444C13.3262 24.157 13.267 23.8606 13.2441 23.5555C13.2843 23.0668 13.225 22.5927 13.0663 22.1333C12.4318 21.888 11.7799 21.7102 11.1108 21.6C10.8737 21.6 10.6367 21.6 10.3997 21.6C10.0331 21.1168 9.55905 20.7612 8.97743 20.5333C8.14584 19.7015 7.37548 18.8126 6.66632 17.8666C6.39208 16.7869 5.97725 15.7796 5.42188 14.8444Z"
            fill="#9C0F0F" />
        <path fill-rule="evenodd" clip-rule="evenodd"
            d="M25.511 17.6885C25.2988 18.3752 24.884 18.9086 24.2666 19.2885C24.6147 18.7032 25.0294 18.1699 25.511 17.6885Z"
            fill="#E9ACA3" />
        <path fill-rule="evenodd" clip-rule="evenodd"
            d="M11.4664 12.7113C11.6428 14.0414 11.702 15.4043 11.6442 16.8002C12.4389 16.9755 13.2685 17.0348 14.1331 16.978C14.1052 17.2221 14.1349 17.4592 14.222 17.6891C14.5226 18.1973 14.967 18.4343 15.5553 18.4002C15.5553 18.6372 15.5553 18.8743 15.5553 19.1113C16.0294 19.1113 16.5034 19.1113 16.9775 19.1113C16.9775 19.3483 16.9775 19.5854 16.9775 19.8224C17.1645 19.7959 17.3423 19.8254 17.5109 19.9113C17.6209 20.2236 17.8284 20.4311 18.1331 20.5335C18.6904 20.3678 19.2533 20.3678 19.822 20.5335C19.822 20.2965 19.822 20.0594 19.822 19.8224C20.2961 19.8224 20.7701 19.8224 21.2442 19.8224C21.214 19.5874 21.2732 19.3799 21.422 19.2002C21.8326 19.1118 22.2474 19.0823 22.6664 19.1113C22.6376 18.7509 22.6673 18.3954 22.7553 18.0446C22.9526 18.3179 23.2193 18.4363 23.5553 18.4002C23.5553 18.578 23.5553 18.7557 23.5553 18.9335C23.7331 18.9335 23.9109 18.9335 24.0886 18.9335C24.2054 18.1056 24.6796 17.6315 25.5109 17.5113C25.5109 17.5705 25.5109 17.6298 25.5109 17.6891C25.0293 18.1705 24.6145 18.7038 24.2664 19.2891C24.0294 19.4076 23.8517 19.5854 23.7331 19.8224C23.6145 19.8224 23.4961 19.8224 23.3775 19.8224C22.6083 19.6985 22.1341 19.9948 21.9553 20.7113C21.7183 20.7113 21.4812 20.7113 21.2442 20.7113C21.2442 20.8891 21.2442 21.0668 21.2442 21.2446C20.302 21.1378 19.5315 21.434 18.9331 22.1335C18.4463 22.4859 17.9427 22.4267 17.422 21.9557C17.383 22.2114 17.2942 22.4484 17.1553 22.6668C16.8664 22.2105 16.4813 21.8549 15.9997 21.6002C15.9126 21.3703 15.883 21.1332 15.9109 20.8891C15.3183 20.8891 14.7257 20.8891 14.1331 20.8891C14.1331 20.5335 14.1331 20.178 14.1331 19.8224C13.9461 19.8489 13.7683 19.8194 13.5997 19.7335C13.4462 19.4318 13.2092 19.2245 12.8886 19.1113C12.7235 18.8999 12.6643 18.6629 12.7109 18.4002C12.2368 18.4002 11.7627 18.4002 11.2886 18.4002C11.2886 18.0446 11.2886 17.6891 11.2886 17.3335C10.3228 17.27 9.37462 17.0923 8.44418 16.8002C8.15714 16.1134 7.74234 15.5208 7.19974 15.0224C6.62059 14.8593 6.02801 14.8 5.42196 14.8446C5.30344 14.6076 5.18493 14.3705 5.06641 14.1335C5.09658 13.1808 5.18546 12.2326 5.33307 11.2891C5.4215 11.7595 5.45114 12.2335 5.42196 12.7113C5.9553 12.7113 6.48863 12.7113 7.02196 12.7113C6.99709 13 7.1156 13.2074 7.37752 13.3335C8.22006 13.6924 8.57562 13.7221 8.44418 13.4224C8.44418 13.1854 8.44418 12.9483 8.44418 12.7113C9.12239 12.9893 9.8335 13.1671 10.5775 13.2446C10.8145 13.215 11.0516 13.1854 11.2886 13.1557C11.4224 13.0365 11.4817 12.8883 11.4664 12.7113Z"
            fill="#A51213" />
        <path fill-rule="evenodd" clip-rule="evenodd"
            d="M23.3776 19.8223C23.4961 19.8223 23.6145 19.8223 23.7331 19.8223C23.5061 20.1152 23.3283 20.4413 23.1998 20.8C22.3973 21.0765 21.627 21.4025 20.8887 21.7778C21.7829 21.2118 22.6124 20.5599 23.3776 19.8223Z"
            fill="#F0C7BD" />
        <path fill-rule="evenodd" clip-rule="evenodd"
            d="M10.4004 21.5996C10.6375 21.5996 10.8745 21.5996 11.1115 21.5996C11.5135 21.9116 11.9876 22.1191 12.5338 22.2218C12.6902 22.4629 12.7495 22.7296 12.7115 23.0218C12.1083 22.4832 11.3972 22.1276 10.5782 21.9552C10.4364 21.8739 10.3772 21.7553 10.4004 21.5996Z"
            fill="#F4D2CC" />
        <path fill-rule="evenodd" clip-rule="evenodd"
            d="M20.533 21.9551C19.931 22.1378 19.4571 22.4934 19.1108 23.0217C19.0727 22.7295 19.1321 22.4628 19.2885 22.2217C19.6868 22.0481 20.1015 21.9592 20.533 21.9551Z"
            fill="#E4AEA4" />
        <path fill-rule="evenodd" clip-rule="evenodd"
            d="M11.1113 21.5996C11.7805 21.7098 12.4323 21.8876 13.0669 22.1329C13.2256 22.5923 13.2849 23.0665 13.2447 23.5552C13.0263 23.4119 12.8486 23.2341 12.7113 23.0218C12.7493 22.7296 12.69 22.4629 12.5336 22.2218C11.9874 22.1191 11.5133 21.9116 11.1113 21.5996Z"
            fill="#962C21" />
        <path fill-rule="evenodd" clip-rule="evenodd"
            d="M12.7109 23.0225C12.8482 23.2347 13.0259 23.4125 13.2443 23.5558C13.2672 23.8609 13.3264 24.1572 13.422 24.4447C13.422 24.5633 13.422 24.6817 13.422 24.8002C13.2109 24.3654 12.9739 23.9505 12.7109 23.5558C12.7109 23.378 12.7109 23.2002 12.7109 23.0225Z"
            fill="#D4958B" />
        <path fill-rule="evenodd" clip-rule="evenodd"
            d="M19.1115 23.0225C19.1104 23.6726 18.9327 24.2651 18.5782 24.8002C18.519 24.8002 18.4596 24.8002 18.4004 24.8002C18.4596 24.5633 18.519 24.3261 18.5782 24.0891C18.6235 23.6505 18.8013 23.295 19.1115 23.0225Z"
            fill="#D9A39B" />
        <path fill-rule="evenodd" clip-rule="evenodd"
            d="M23.3774 19.8223C22.6123 20.5599 21.7828 21.2118 20.8885 21.7779C20.7122 21.7473 20.5938 21.8067 20.533 21.9557C20.1015 21.9597 19.6868 22.0486 19.2885 22.2223C19.1321 22.4634 19.0727 22.7301 19.1108 23.0223C18.8005 23.2949 18.6228 23.6504 18.5774 24.089C18.2976 24.1667 18.0901 24.3445 17.9552 24.6223C17.9316 25.1601 17.7537 25.6342 17.4219 26.0445C17.2994 25.8922 17.1512 25.7738 16.9774 25.689C16.7181 26.0593 16.4811 26.4445 16.2663 26.8445C15.9758 26.9324 15.6795 26.9619 15.3774 26.9334C15.4053 27.1775 15.3757 27.4147 15.2885 27.6445C15.1517 27.4493 15.0036 27.4493 14.8441 27.6445C14.8445 27.2301 14.6964 26.8746 14.3997 26.5779C14.3171 26.6835 14.2875 26.8021 14.3108 26.9334C14.2515 26.9334 14.1922 26.9334 14.133 26.9334C13.9966 26.1871 13.7596 25.476 13.4219 24.8001C13.4219 24.6815 13.4219 24.5631 13.4219 24.4445C13.5997 24.4445 13.7774 24.4445 13.9552 24.4445C13.9264 24.8049 13.956 25.1605 14.0441 25.5112C14.1006 25.2337 14.2487 25.0262 14.4885 24.889C15.3058 24.7336 16.0762 24.4669 16.7997 24.089C16.9227 24.1823 17.0116 24.3009 17.0663 24.4445C17.6713 24.0074 18.0565 23.4149 18.2219 22.6668C18.3554 22.8225 18.4443 23.0003 18.4885 23.2001C18.7657 22.8949 18.9138 22.5393 18.933 22.1334C19.5314 21.4339 20.3019 21.1377 21.2441 21.2445C21.2441 21.0668 21.2441 20.889 21.2441 20.7112C21.4811 20.7112 21.7182 20.7112 21.9552 20.7112C22.1341 19.9948 22.6082 19.6984 23.3774 19.8223Z"
            fill="#890D0A" />
        <path fill-rule="evenodd" clip-rule="evenodd"
            d="M12.7108 23.5557C12.9737 23.9503 13.2108 24.3653 13.4219 24.8001C13.7596 25.476 13.9966 26.1871 14.133 26.9334C14.0474 27.5256 14.2251 27.9996 14.6664 28.3557C15.1589 29.2273 15.4552 30.1754 15.5552 31.2001C15.229 31.0895 15.0216 30.8524 14.933 30.489C14.6016 29.82 14.3942 29.1089 14.3108 28.3557C14.133 28.3557 13.9552 28.3557 13.7775 28.3557C13.8066 27.878 13.777 27.4038 13.6886 26.9334C12.954 25.935 12.6281 24.8092 12.7108 23.5557Z"
            fill="#F5EAE2" />
        <path fill-rule="evenodd" clip-rule="evenodd"
            d="M18.5781 24.0889C18.5189 24.3258 18.4595 24.563 18.4003 24.8C18.0173 26.0373 17.5433 27.2224 16.9781 28.3555C16.68 28.477 16.5615 28.7141 16.6225 29.0666C16.4447 29.0666 16.2669 29.0666 16.0892 29.0666C16.0892 28.8297 16.0892 28.5925 16.0892 28.3555C15.8803 28.3166 15.7025 28.3758 15.5558 28.5333C15.7495 28.7305 15.7495 28.9082 15.5558 29.0666C15.2227 28.6373 14.9857 28.1634 14.8447 27.6444C15.0042 27.4492 15.1523 27.4492 15.2892 27.6444C15.3763 27.4146 15.4059 27.1774 15.3781 26.9333C15.6801 26.9618 15.9764 26.9322 16.2669 26.8444C16.4817 26.4444 16.7187 26.0592 16.9781 25.6889C17.1519 25.7737 17.3 25.8921 17.4225 26.0444C17.7543 25.6341 17.9322 25.16 17.9558 24.6222C18.0908 24.3443 18.2982 24.1666 18.5781 24.0889Z"
            fill="#720504" />
        <path fill-rule="evenodd" clip-rule="evenodd"
            d="M18.3999 24.7998C18.4591 24.7998 18.5185 24.7998 18.5777 24.7998C18.4826 25.5676 18.3937 26.3379 18.311 27.1109C17.9366 27.4446 17.6997 27.8594 17.5999 28.3554C17.5407 28.2962 17.4814 28.2368 17.4222 28.1776C17.3447 29.0297 17.167 29.8594 16.8888 30.6665C16.8296 30.5479 16.7703 30.4295 16.711 30.3109C16.6894 30.6553 16.5413 30.8922 16.2666 31.022C16.3971 30.8073 16.4564 30.5703 16.4444 30.3109C16.4444 30.2517 16.4444 30.1923 16.4444 30.1331C16.7785 29.8851 16.9563 29.5296 16.9777 29.0665C16.9777 28.8295 16.9777 28.5923 16.9777 28.3554C17.5429 27.2222 18.017 26.0371 18.3999 24.7998Z"
            fill="#F0E0D8" />
        <path fill-rule="evenodd" clip-rule="evenodd"
            d="M14.1332 26.9336C14.1925 26.9336 14.2517 26.9336 14.311 26.9336C14.4657 27.3979 14.5843 27.8721 14.6665 28.3558C14.2253 27.9997 14.0475 27.5258 14.1332 26.9336Z"
            fill="#D6A899" />
        <path fill-rule="evenodd" clip-rule="evenodd"
            d="M14.8447 27.6448C14.9857 28.1637 15.2227 28.6377 15.5558 29.067C15.7495 28.9086 15.7495 28.7308 15.5558 28.5337C15.7025 28.3762 15.8803 28.317 16.0892 28.3559C16.0892 28.5929 16.0892 28.83 16.0892 29.067C16.267 29.067 16.4447 29.067 16.6225 29.067C16.5615 28.7145 16.68 28.4773 16.9781 28.3559C16.9781 28.5929 16.9781 28.83 16.9781 29.067C16.6678 29.3395 16.49 29.6951 16.4447 30.1337C16.4447 30.1929 16.4447 30.2523 16.4447 30.3115C16.2077 30.6078 15.9707 30.904 15.7336 31.2003C15.6744 31.2003 15.6151 31.2003 15.5558 31.2003C15.4558 30.1756 15.1595 29.2275 14.667 28.3559C14.5847 27.8722 14.4662 27.398 14.3114 26.9337C14.2881 26.8023 14.3177 26.6837 14.4003 26.5781C14.697 26.8748 14.8451 27.2304 14.8447 27.6448Z"
            fill="#5E0908" />
        <path fill-rule="evenodd" clip-rule="evenodd"
            d="M16.9777 29.0664C16.9562 29.5295 16.7785 29.8851 16.4443 30.1331C16.4897 29.6945 16.6674 29.3389 16.9777 29.0664Z"
            fill="#A27B78" />
        <path fill-rule="evenodd" clip-rule="evenodd"
            d="M16.4445 30.3115C16.4565 30.5709 16.3972 30.8079 16.2667 31.0226C16.2439 31.3277 16.1846 31.6241 16.089 31.9115C15.9704 31.9115 15.8519 31.9115 15.7334 31.9115C15.7334 31.6745 15.7334 31.4374 15.7334 31.2004C15.9704 30.9041 16.2075 30.6079 16.4445 30.3115Z"
            fill="#5C3631" />
    </g>
    <defs>
        <clipPath id="clip0_4935_1098">
            <rect width="32" height="32" fill="white" />
        </clipPath>
    </defs>
</svg>