<svg width="32" height="32" viewBox="0 0 33 33" fill="none" xmlns="http://www.w3.org/2000/svg">
    <path
        d="M1 1H1.0625H1.125H1.1875H1.25H1.3125H1.375H1.4375H1.5H1.5625H1.625H1.6875H1.75H1.8125H1.875H1.9375H2H2.0625H2.125H2.1875H2.25H2.3125H2.375H2.4375H2.5H2.5625H2.625H2.6875H2.75H2.8125H2.875H2.9375H3H3.0625H3.125H3.1875H3.25H3.3125H3.375H3.4375H3.5H3.5625H3.625H3.6875H3.75H3.8125H3.875H3.9375H4H4.0625H4.125H4.1875H4.25H4.3125H4.375H4.4375H4.5H4.5625H4.625H4.6875H4.75H4.8125H4.875H4.9375H5H5.0625H5.125H5.1875H5.25H5.3125H5.375H5.4375H5.5H5.5625H5.625H5.6875H5.75H5.8125H5.875H5.9375H6H6.0625H6.125H6.1875H6.25H6.3125H6.375H6.4375H6.5H6.5625H6.625H6.6875H6.75H6.8125H6.875H6.9375H7H7.0625H7.125H7.1875H7.25H7.3125H7.375H7.4375H7.5H7.5625H7.625H7.6875H7.75H7.8125H7.875H7.9375H8H8.0625H8.125H8.1875H8.25H8.3125H8.37499H8.43749H8.49999H8.56249H8.62499H8.68749H8.74999H8.81249H8.87499H8.93749H8.99999H9.06249H9.12499H9.18749H9.24999H9.31249H9.37499H9.43749H9.49999H9.56249H9.62499H9.68749H9.74999H9.81249H9.87499H9.93749H9.99999H10.0625H10.125H10.1875H10.25H10.3125H10.375H10.4375H10.5H10.5625H10.625H10.6875H10.75H10.8125H10.875H10.9375H11H11.0625H11.125H11.1875H11.25H11.3125H11.375H11.4375H11.5H11.5625H11.625H11.6875H11.75H11.8125H11.875H11.9375H12H12.0625H12.125H12.1875H12.25H12.3125H12.375H12.4375H12.5H12.5625H12.625H12.6875H12.75H12.8125H12.875H12.9375H13H13.0625H13.125H13.1875H13.25H13.3125H13.375H13.4375H13.5H13.5625H13.625H13.6875H13.75H13.8125H13.875H13.9375H14H14.0625H14.125H14.1875H14.25H14.3125H14.375H14.4375H14.5H14.5625H14.625H14.6875H14.75H14.8125H14.875H14.9375H15H15.0625H15.125H15.1875H15.25H15.3125H15.375H15.4375H15.5H15.5625H15.625H15.6875H15.75H15.8125H15.875H15.9375H16H16.0625H16.125H16.1875H16.25H16.3125H16.375H16.4375H16.5H16.5625H16.625H16.6875H16.75H16.8125H16.875H16.9375H17H17.0625H17.125H17.1875H17.25H17.3125H17.375H17.4375H17.5H17.5625H17.625H17.6875H17.75H17.8125H17.875H17.9375H18H18.0625H18.125H18.1875H18.25H18.3125H18.375H18.4375H18.5H18.5625H18.625H18.6875H18.75H18.8125H18.875H18.9375H19H19.0625H19.125H19.1875H19.25H19.3125H19.375H19.4375H19.5H19.5625H19.625H19.6875H19.75H19.8125H19.875H19.9375H20H20.0625H20.125H20.1875H20.25H20.3125H20.375H20.4375H20.5H20.5625H20.625H20.6875H20.75H20.8125H20.875H20.9375H21H21.0625H21.125H21.1875H21.25H21.3125H21.375H21.4375H21.5H21.5625H21.625H21.6875H21.75H21.8125H21.875H21.9375H22H22.0625H22.125H22.1875H22.25H22.3125H22.375H22.4375H22.5H22.5625H22.625H22.6875H22.75H22.8125H22.875H22.9375H23H23.0625H23.125H23.1875H23.25H23.3125H23.375H23.4375H23.5H23.5625H23.625H23.6875H23.75H23.8125H23.875H23.9375H24H24.0625H24.125H24.1875H24.25H24.3125H24.375H24.4375H24.5H24.5625H24.625H24.6875H24.75H24.8125H24.875H24.9375H25H25.0625H25.125H25.1875H25.25H25.3125H25.375H25.4375H25.5H25.5625H25.625H25.6875H25.75H25.8125H25.875H25.9375H26H26.0625H26.125H26.1875H26.25H26.3125H26.375H26.4375H26.5H26.5625H26.625H26.6875H26.75H26.8125H26.875H26.9375H27H27.0625H27.125H27.1875H27.25H27.3125H27.375H27.4375H27.5H27.5625H27.625H27.6875H27.75H27.8125H27.875H27.9375H28H28.0625H28.125H28.1875H28.25H28.3125H28.375H28.4375H28.5H28.5625H28.625H28.6875H28.75H28.8125H28.875H28.9375H29H29.0625H29.125H29.1875H29.25H29.3125H29.375H29.4375H29.5H29.5625H29.625H29.6875H29.75H29.8125H29.875H29.9375H30H30.0625H30.125H30.1875H30.25H30.3125H30.375H30.4375H30.5H30.5625H30.625H30.6875H30.75H30.8125H30.875H30.9375H31H31.0625H31.125H31.1875H31.25H31.3125H31.375H31.4375H31.5H31.5625H31.625H31.6875H31.75H31.8125H31.875H31.9375H32L32 1.0625V1.125V1.1875V1.25V1.3125V1.375V1.4375V1.5V1.5625V1.625V1.6875V1.75V1.8125V1.875V1.9375V2V2.0625V2.125V2.1875V2.25V2.3125V2.375V2.4375V2.5V2.5625V2.625V2.6875V2.75V2.8125V2.875V2.9375V3V3.0625V3.125V3.1875V3.25V3.3125V3.375V3.4375V3.5V3.5625V3.625V3.6875V3.75V3.8125V3.875V3.9375V4V4.0625V4.125V4.1875V4.25V4.3125V4.375V4.4375V4.5V4.5625V4.625V4.6875V4.75V4.8125V4.875V4.9375V5V5.0625V5.125V5.1875V5.25V5.3125V5.375V5.4375V5.5V5.5625V5.625V5.6875V5.75V5.8125V5.875V5.9375V6V6.0625V6.125V6.1875V6.25V6.3125V6.375V6.4375V6.5V6.5625V6.625V6.6875V6.75V6.8125V6.875V6.9375V7V7.0625V7.125V7.1875V7.25V7.3125V7.375V7.4375V7.5V7.5625V7.625V7.6875V7.75V7.8125V7.875V7.9375V8V8.0625V8.125V8.1875V8.25V8.3125V8.37499V8.43749V8.49999V8.56249V8.62499V8.68749V8.74999V8.81249V8.87499V8.93749V8.99999V9.06249V9.12499V9.18749V9.24999V9.31249V9.37499V9.43749V9.49999V9.56249V9.62499V9.68749V9.74999V9.81249V9.87499V9.93749V9.99999V10.0625V10.125V10.1875V10.25V10.3125V10.375V10.4375V10.5V10.5625V10.625V10.6875V10.75V10.8125V10.875V10.9375V11V11.0625V11.125V11.1875V11.25V11.3125V11.375V11.4375V11.5V11.5625V11.625V11.6875V11.75V11.8125V11.875V11.9375V12V12.0625V12.125V12.1875V12.25V12.3125V12.375V12.4375V12.5V12.5625V12.625V12.6875V12.75V12.8125V12.875V12.9375V13V13.0625V13.125V13.1875V13.25V13.3125V13.375V13.4375V13.5V13.5625V13.625V13.6875V13.75V13.8125V13.875V13.9375V14V14.0625V14.125V14.1875V14.25V14.3125V14.375V14.4375V14.5V14.5625V14.625V14.6875V14.75V14.8125V14.875V14.9375V15V15.0625V15.125V15.1875V15.25V15.3125V15.375V15.4375V15.5V15.5625V15.625V15.6875V15.75V15.8125V15.875V15.9375V16V16.0625V16.125V16.1875V16.25V16.3125V16.375V16.4375V16.5V16.5625V16.625V16.6875V16.75V16.8125V16.875V16.9375V17V17.0625V17.125V17.1875V17.25V17.3125V17.375V17.4375V17.5V17.5625V17.625V17.6875V17.75V17.8125V17.875V17.9375V18V18.0625V18.125V18.1875V18.25V18.3125V18.375V18.4375V18.5V18.5625V18.625V18.6875V18.75V18.8125V18.875V18.9375V19V19.0625V19.125V19.1875V19.25V19.3125V19.375V19.4375V19.5V19.5625V19.625V19.6875V19.75V19.8125V19.875V19.9375V20V20.0625V20.125V20.1875V20.25V20.3125V20.375V20.4375V20.5V20.5625V20.625V20.6875V20.75V20.8125V20.875V20.9375V21V21.0625V21.125V21.1875V21.25V21.3125V21.375V21.4375V21.5V21.5625V21.625V21.6875V21.75V21.8125V21.875V21.9375V22V22.0625V22.125V22.1875V22.25V22.3125V22.375V22.4375V22.5V22.5625V22.625V22.6875V22.75V22.8125V22.875V22.9375V23V23.0625V23.125V23.1875V23.25V23.3125V23.375V23.4375V23.5V23.5625V23.625V23.6875V23.75V23.8125V23.875V23.9375V24V24.0625V24.125V24.1875V24.25V24.3125V24.375V24.4375V24.5V24.5625V24.625V24.6875V24.75V24.8125V24.875V24.9375V25V25.0625V25.125V25.1875V25.25V25.3125V25.375V25.4375V25.5V25.5625V25.625V25.6875V25.75V25.8125V25.875V25.9375V26V26.0625V26.125V26.1875V26.25V26.3125V26.375V26.4375V26.5V26.5625V26.625V26.6875V26.75V26.8125V26.875V26.9375V27V27.0625V27.125V27.1875V27.25V27.3125V27.375V27.4375V27.5V27.5625V27.625V27.6875V27.75V27.8125V27.875V27.9375V28V28.0625V28.125V28.1875V28.25V28.3125V28.375V28.4375V28.5V28.5625V28.625V28.6875V28.75V28.8125V28.875V28.9375V29V29.0625V29.125V29.1875V29.25V29.3125V29.375V29.4375V29.5V29.5625V29.625V29.6875V29.75V29.8125V29.875V29.9375V30V30.0625V30.125V30.1875V30.25V30.3125V30.375V30.4375V30.5V30.5625V30.625V30.6875V30.75V30.8125V30.875V30.9375V31V31.0625V31.125V31.1875V31.25V31.3125V31.375V31.4375V31.5V31.5625V31.625V31.6875V31.75V31.8125V31.875V31.9375V32L31.9375 32H31.875H31.8125H31.75H31.6875H31.625H31.5625H31.5H31.4375H31.375H31.3125H31.25H31.1875H31.125H31.0625H31H30.9375H30.875H30.8125H30.75H30.6875H30.625H30.5625H30.5H30.4375H30.375H30.3125H30.25H30.1875H30.125H30.0625H30H29.9375H29.875H29.8125H29.75H29.6875H29.625H29.5625H29.5H29.4375H29.375H29.3125H29.25H29.1875H29.125H29.0625H29H28.9375H28.875H28.8125H28.75H28.6875H28.625H28.5625H28.5H28.4375H28.375H28.3125H28.25H28.1875H28.125H28.0625H28H27.9375H27.875H27.8125H27.75H27.6875H27.625H27.5625H27.5H27.4375H27.375H27.3125H27.25H27.1875H27.125H27.0625H27H26.9375H26.875H26.8125H26.75H26.6875H26.625H26.5625H26.5H26.4375H26.375H26.3125H26.25H26.1875H26.125H26.0625H26H25.9375H25.875H25.8125H25.75H25.6875H25.625H25.5625H25.5H25.4375H25.375H25.3125H25.25H25.1875H25.125H25.0625H25H24.9375H24.875H24.8125H24.75H24.6875H24.625H24.5625H24.5H24.4375H24.375H24.3125H24.25H24.1875H24.125H24.0625H24H23.9375H23.875H23.8125H23.75H23.6875H23.625H23.5625H23.5H23.4375H23.375H23.3125H23.25H23.1875H23.125H23.0625H23H22.9375H22.875H22.8125H22.75H22.6875H22.625H22.5625H22.5H22.4375H22.375H22.3125H22.25H22.1875H22.125H22.0625H22H21.9375H21.875H21.8125H21.75H21.6875H21.625H21.5625H21.5H21.4375H21.375H21.3125H21.25H21.1875H21.125H21.0625H21H20.9375H20.875H20.8125H20.75H20.6875H20.625H20.5625H20.5H20.4375H20.375H20.3125H20.25H20.1875H20.125H20.0625H20H19.9375H19.875H19.8125H19.75H19.6875H19.625H19.5625H19.5H19.4375H19.375H19.3125H19.25H19.1875H19.125H19.0625H19H18.9375H18.875H18.8125H18.75H18.6875H18.625H18.5625H18.5H18.4375H18.375H18.3125H18.25H18.1875H18.125H18.0625H18H17.9375H17.875H17.8125H17.75H17.6875H17.625H17.5625H17.5H17.4375H17.375H17.3125H17.25H17.1875H17.125H17.0625H17H16.9375H16.875H16.8125H16.75H16.6875H16.625H16.5625H16.5H16.4375H16.375H16.3125H16.25H16.1875H16.125H16.0625H16H15.9375H15.875H15.8125H15.75H15.6875H15.625H15.5625H15.5H15.4375H15.375H15.3125H15.25H15.1875H15.125H15.0625H15H14.9375H14.875H14.8125H14.75H14.6875H14.625H14.5625H14.5H14.4375H14.375H14.3125H14.25H14.1875H14.125H14.0625H14H13.9375H13.875H13.8125H13.75H13.6875H13.625H13.5625H13.5H13.4375H13.375H13.3125H13.25H13.1875H13.125H13.0625H13H12.9375H12.875H12.8125H12.75H12.6875H12.625H12.5625H12.5H12.4375H12.375H12.3125H12.25H12.1875H12.125H12.0625H12H11.9375H11.875H11.8125H11.75H11.6875H11.625H11.5625H11.5H11.4375H11.375H11.3125H11.25H11.1875H11.125H11.0625H11H10.9375H10.875H10.8125H10.75H10.6875H10.625H10.5625H10.5H10.4375H10.375H10.3125H10.25H10.1875H10.125H10.0625H9.99999H9.93749H9.87499H9.81249H9.74999H9.68749H9.62499H9.56249H9.49999H9.43749H9.37499H9.31249H9.24999H9.18749H9.12499H9.06249H8.99999H8.93749H8.87499H8.81249H8.74999H8.68749H8.62499H8.56249H8.49999H8.43749H8.37499H8.3125H8.25H8.1875H8.125H8.0625H8H7.9375H7.875H7.8125H7.75H7.6875H7.625H7.5625H7.5H7.4375H7.375H7.3125H7.25H7.1875H7.125H7.0625H7H6.9375H6.875H6.8125H6.75H6.6875H6.625H6.5625H6.5H6.4375H6.375H6.3125H6.25H6.1875H6.125H6.0625H6H5.9375H5.875H5.8125H5.75H5.6875H5.625H5.5625H5.5H5.4375H5.375H5.3125H5.25H5.1875H5.125H5.0625H5H4.9375H4.875H4.8125H4.75H4.6875H4.625H4.5625H4.5H4.4375H4.375H4.3125H4.25H4.1875H4.125H4.0625H4H3.9375H3.875H3.8125H3.75H3.6875H3.625H3.5625H3.5H3.4375H3.375H3.3125H3.25H3.1875H3.125H3.0625H3H2.9375H2.875H2.8125H2.75H2.6875H2.625H2.5625H2.5H2.4375H2.375H2.3125H2.25H2.1875H2.125H2.0625H2H1.9375H1.875H1.8125H1.75H1.6875H1.625H1.5625H1.5H1.4375H1.375H1.3125H1.25H1.1875H1.125H1.0625H1L1 31.9375V31.875V31.8125V31.75V31.6875V31.625V31.5625V31.5V31.4375V31.375V31.3125V31.25V31.1875V31.125V31.0625V31V30.9375V30.875V30.8125V30.75V30.6875V30.625V30.5625V30.5V30.4375V30.375V30.3125V30.25V30.1875V30.125V30.0625V30V29.9375V29.875V29.8125V29.75V29.6875V29.625V29.5625V29.5V29.4375V29.375V29.3125V29.25V29.1875V29.125V29.0625V29V28.9375V28.875V28.8125V28.75V28.6875V28.625V28.5625V28.5V28.4375V28.375V28.3125V28.25V28.1875V28.125V28.0625V28V27.9375V27.875V27.8125V27.75V27.6875V27.625V27.5625V27.5V27.4375V27.375V27.3125V27.25V27.1875V27.125V27.0625V27V26.9375V26.875V26.8125V26.75V26.6875V26.625V26.5625V26.5V26.4375V26.375V26.3125V26.25V26.1875V26.125V26.0625V26V25.9375V25.875V25.8125V25.75V25.6875V25.625V25.5625V25.5V25.4375V25.375V25.3125V25.25V25.1875V25.125V25.0625V25V24.9375V24.875V24.8125V24.75V24.6875V24.625V24.5625V24.5V24.4375V24.375V24.3125V24.25V24.1875V24.125V24.0625V24V23.9375V23.875V23.8125V23.75V23.6875V23.625V23.5625V23.5V23.4375V23.375V23.3125V23.25V23.1875V23.125V23.0625V23V22.9375V22.875V22.8125V22.75V22.6875V22.625V22.5625V22.5V22.4375V22.375V22.3125V22.25V22.1875V22.125V22.0625V22V21.9375V21.875V21.8125V21.75V21.6875V21.625V21.5625V21.5V21.4375V21.375V21.3125V21.25V21.1875V21.125V21.0625V21V20.9375V20.875V20.8125V20.75V20.6875V20.625V20.5625V20.5V20.4375V20.375V20.3125V20.25V20.1875V20.125V20.0625V20V19.9375V19.875V19.8125V19.75V19.6875V19.625V19.5625V19.5V19.4375V19.375V19.3125V19.25V19.1875V19.125V19.0625V19V18.9375V18.875V18.8125V18.75V18.6875V18.625V18.5625V18.5V18.4375V18.375V18.3125V18.25V18.1875V18.125V18.0625V18V17.9375V17.875V17.8125V17.75V17.6875V17.625V17.5625V17.5V17.4375V17.375V17.3125V17.25V17.1875V17.125V17.0625V17V16.9375V16.875V16.8125V16.75V16.6875V16.625V16.5625V16.5V16.4375V16.375V16.3125V16.25V16.1875V16.125V16.0625V16V15.9375V15.875V15.8125V15.75V15.6875V15.625V15.5625V15.5V15.4375V15.375V15.3125V15.25V15.1875V15.125V15.0625V15V14.9375V14.875V14.8125V14.75V14.6875V14.625V14.5625V14.5V14.4375V14.375V14.3125V14.25V14.1875V14.125V14.0625V14V13.9375V13.875V13.8125V13.75V13.6875V13.625V13.5625V13.5V13.4375V13.375V13.3125V13.25V13.1875V13.125V13.0625V13V12.9375V12.875V12.8125V12.75V12.6875V12.625V12.5625V12.5V12.4375V12.375V12.3125V12.25V12.1875V12.125V12.0625V12V11.9375V11.875V11.8125V11.75V11.6875V11.625V11.5625V11.5V11.4375V11.375V11.3125V11.25V11.1875V11.125V11.0625V11V10.9375V10.875V10.8125V10.75V10.6875V10.625V10.5625V10.5V10.4375V10.375V10.3125V10.25V10.1875V10.125V10.0625V9.99999V9.93749V9.87499V9.81249V9.74999V9.68749V9.62499V9.56249V9.49999V9.43749V9.37499V9.31249V9.24999V9.18749V9.12499V9.06249V8.99999V8.93749V8.87499V8.81249V8.74999V8.68749V8.62499V8.56249V8.49999V8.43749V8.37499V8.3125V8.25V8.1875V8.125V8.0625V8V7.9375V7.875V7.8125V7.75V7.6875V7.625V7.5625V7.5V7.4375V7.375V7.3125V7.25V7.1875V7.125V7.0625V7V6.9375V6.875V6.8125V6.75V6.6875V6.625V6.5625V6.5V6.4375V6.375V6.3125V6.25V6.1875V6.125V6.0625V6V5.9375V5.875V5.8125V5.75V5.6875V5.625V5.5625V5.5V5.4375V5.375V5.3125V5.25V5.1875V5.125V5.0625V5V4.9375V4.875V4.8125V4.75V4.6875V4.625V4.5625V4.5V4.4375V4.375V4.3125V4.25V4.1875V4.125V4.0625V4V3.9375V3.875V3.8125V3.75V3.6875V3.625V3.5625V3.5V3.4375V3.375V3.3125V3.25V3.1875V3.125V3.0625V3V2.9375V2.875V2.8125V2.75V2.6875V2.625V2.5625V2.5V2.4375V2.375V2.3125V2.25V2.1875V2.125V2.0625V2V1.9375V1.875V1.8125V1.75V1.6875V1.625V1.5625V1.5V1.4375V1.375V1.3125V1.25V1.1875V1.125V1.0625L1 1Z"
        fill="#5326D4" stroke="black" />
    <path fill-rule="evenodd" clip-rule="evenodd"
        d="M10.4199 4.02002C15.8599 4.02002 21.2999 4.02002 26.7399 4.02002C26.7399 4.82002 26.7399 5.62002 26.7399 6.42002C21.2999 6.42002 15.8599 6.42002 10.4199 6.42002C10.4199 5.62002 10.4199 4.82002 10.4199 4.02002Z"
        fill="#FAFAFA" />
    <path fill-rule="evenodd" clip-rule="evenodd"
        d="M3.54004 9.78003C8.98004 9.78003 14.42 9.78003 19.86 9.78003C19.86 10.58 19.86 11.38 19.86 12.18C14.42 12.18 8.98004 12.18 3.54004 12.18C3.54004 11.38 3.54004 10.58 3.54004 9.78003Z"
        fill="#FAFAFA" />
    <path fill-rule="evenodd" clip-rule="evenodd"
        d="M19.06 9.62012C19.2181 10.4426 19.2714 11.2959 19.22 12.1801C14.2859 12.2332 9.37928 12.1798 4.5 12.0201C9.35333 12.0201 14.2067 12.0201 19.06 12.0201C19.06 11.2201 19.06 10.4201 19.06 9.62012Z"
        fill="#FAFAFA" />
    <path fill-rule="evenodd" clip-rule="evenodd"
        d="M24.1802 15.3799C24.1802 16.1799 24.1802 16.9799 24.1802 17.7799C18.6869 17.7799 13.1935 17.7799 7.7002 17.7799C7.7002 16.9799 7.7002 16.1799 7.7002 15.3799C13.1935 15.3799 18.6869 15.3799 24.1802 15.3799Z"
        fill="#FAFAFA" />
    <path fill-rule="evenodd" clip-rule="evenodd"
        d="M13.46 20.8201C18.3667 20.8201 23.2732 20.8201 28.18 20.8201C28.18 21.6733 28.18 22.5268 28.18 23.3801C23.2732 23.3801 18.3667 23.3801 13.46 23.3801C13.46 22.5268 13.46 21.6733 13.46 20.8201Z"
        fill="#FAFAFA" />
    <path fill-rule="evenodd" clip-rule="evenodd"
        d="M22.7399 28.9801C17.2999 28.9801 11.8599 28.9801 6.41992 28.9801C6.41992 28.1801 6.41992 27.3801 6.41992 26.5801C11.8599 26.5801 17.2999 26.5801 22.7399 26.5801C22.7399 27.3801 22.7399 28.1801 22.7399 28.9801Z"
        fill="#FAFAFA" />
</svg>