<svg width="32" height="32" viewBox="0 0 32 32" fill="none" xmlns="http://www.w3.org/2000/svg">
    <path
        d="M28.0262 23.0527C29.9085 21.1579 31.0588 18.6316 31.0588 16C31.0588 9.36843 24.1569 4 15.4772 4C7.00654 4 0 9.36843 0 16C0 22.6316 7.00654 28 15.5817 28C16 28 16.4183 28 16.8366 28H32C31.0588 27.5789 30.2223 26.8421 29.4902 26C28.7581 25.0526 28.2353 24.1052 28.0262 23.0527ZM22.6928 17.8947H17.7777V22.8421H13.8039V17.8947H8.99346V14H13.8039V9.05264H17.7777V14H22.6928V17.8947Z"
        fill="#0D6EFD" />
</svg>