<svg width="32" height="32" viewBox="0 0 32 32" fill="none" xmlns="http://www.w3.org/2000/svg">
    <g clip-path="url(#clip0_2171_142)">
        <path fill-rule="evenodd" clip-rule="evenodd"
            d="M5.46286 -0.0229492C12.5333 -0.0229492 19.6038 -0.0229492 26.6743 -0.0229492C28.1748 0.190143 29.4471 0.84538 30.4914 1.94277C30.6748 2.15801 30.8348 2.38658 30.9714 2.62848C31.0049 2.74109 31.0507 2.84776 31.1086 2.94848C31.1036 2.99154 31.0884 3.02964 31.0629 3.06277C31.1256 3.09161 31.1865 3.12208 31.2457 3.15419C31.2391 3.18949 31.2239 3.21996 31.2 3.24562C31.303 3.2938 31.3183 3.36237 31.2457 3.45134C31.2917 3.63333 31.3374 3.63333 31.3829 3.45134C31.4736 3.56769 31.504 3.68959 31.4743 3.81705C31.4756 3.88696 31.5061 3.9403 31.5657 3.97705C31.4116 4.09333 31.3963 4.22286 31.52 4.36562C31.5647 4.34383 31.6028 4.31336 31.6343 4.27419C31.6181 4.46107 31.6866 4.59822 31.84 4.68562C31.8969 4.88571 31.9426 5.08379 31.9771 5.27991C31.9771 12.3808 31.9771 19.4818 31.9771 26.5828C31.8945 27.334 31.6811 28.0502 31.3371 28.7313C31.2574 28.8014 31.2117 28.8928 31.2 29.0056C31.12 29.0586 31.0743 29.1348 31.0629 29.2342C30.9986 29.2558 30.9681 29.3015 30.9714 29.3713C29.8971 30.826 28.4647 31.6945 26.6743 31.9771C19.5429 31.9771 12.4114 31.9771 5.28 31.9771C2.70621 31.5597 1.00716 30.112 0.182857 27.6342C0.133178 27.304 0.0646061 26.984 -0.0228577 26.6742C-0.0228577 19.6037 -0.0228577 12.5333 -0.0228577 5.46277C0.0731615 5.20311 0.118876 4.92882 0.114285 4.63991C0.209461 4.12576 0.37708 3.63814 0.617142 3.17705C0.68143 3.15542 0.711908 3.10971 0.708571 3.03991C1.20845 2.11341 1.90941 1.38198 2.81143 0.845622C2.91875 0.841403 2.99494 0.795688 3.04 0.708479C3.1098 0.711816 3.15551 0.681339 3.17714 0.617051C3.57921 0.401715 4.00587 0.249334 4.45714 0.159908C4.64325 0.157311 4.83374 0.157311 5.02857 0.159908C5.10912 0.139594 5.10149 0.116737 5.00571 0.0913365C5.17179 0.0845283 5.32416 0.0464332 5.46286 -0.0229492Z"
            fill="#2196F2" />
        <path fill-rule="evenodd" clip-rule="evenodd"
            d="M5.23428 -0.0229492C5.31049 -0.0229492 5.38665 -0.0229492 5.46285 -0.0229492C5.32416 0.0464332 5.17179 0.0845283 5.00571 0.0913365C5.10148 0.116737 5.10912 0.139594 5.02857 0.159908C4.83373 0.157311 4.64324 0.157311 4.45714 0.159908C4.71305 0.0842599 4.97211 0.0233074 5.23428 -0.0229492Z"
            fill="#50A6EE" />
        <path fill-rule="evenodd" clip-rule="evenodd"
            d="M3.17714 0.616946C3.15551 0.681234 3.10979 0.711712 3.03999 0.708375C3.06162 0.644087 3.10733 0.613609 3.17714 0.616946Z"
            fill="#90C4EA" />
        <path fill-rule="evenodd" clip-rule="evenodd"
            d="M3.04 0.708496C2.99495 0.795705 2.91876 0.84142 2.81143 0.845639C2.86443 0.765625 2.94062 0.719911 3.04 0.708496Z"
            fill="#6AB7F4" />
        <path fill-rule="evenodd" clip-rule="evenodd"
            d="M0.708573 3.04004C0.71191 3.10984 0.681433 3.15555 0.617145 3.17718C0.613807 3.10738 0.644285 3.06167 0.708573 3.04004Z"
            fill="#99CEF4" />
        <path fill-rule="evenodd" clip-rule="evenodd"
            d="M17.0286 4.0913C16.9781 4.04099 16.9171 4.01052 16.8457 3.99987C14.7656 3.93903 12.678 3.93903 10.5828 3.99987C10.5885 4.02761 10.6037 4.04284 10.6286 4.04559C10.8058 4.20044 10.9734 4.36805 11.1314 4.54844C11.0279 4.51559 10.9213 4.50035 10.8114 4.50273C10.8182 4.45464 10.8106 4.40892 10.7886 4.36559C10.6328 4.33372 10.5795 4.24991 10.6286 4.11416C10.3913 4.06885 10.3609 3.97742 10.5371 3.83987C12.6468 3.84697 14.7497 3.80887 16.8457 3.72559C16.884 3.87415 16.9754 3.9732 17.12 4.02273C17.0781 4.03546 17.0477 4.05831 17.0286 4.0913Z"
            fill="#2997F0" />
        <path fill-rule="evenodd" clip-rule="evenodd"
            d="M16.8457 4.00022C14.7656 3.98504 12.6932 4.00028 10.6286 4.04593C10.6037 4.04319 10.5885 4.02796 10.5829 4.00022C12.678 3.93938 14.7656 3.93938 16.8457 4.00022Z"
            fill="#94CDFB" />
        <path fill-rule="evenodd" clip-rule="evenodd"
            d="M25.9429 4.00021C24.076 3.98504 22.217 4.00028 20.3657 4.04593C20.3409 4.04319 20.3257 4.02795 20.32 4.00021C22.2018 3.93938 24.0761 3.93938 25.9429 4.00021Z"
            fill="#92CBFB" />
        <path fill-rule="evenodd" clip-rule="evenodd"
            d="M10.6286 4.04554C12.6932 3.99988 14.7656 3.98464 16.8457 3.99982C16.9171 4.01047 16.9781 4.04094 17.0286 4.09125C17.0896 4.16029 17.143 4.23648 17.1886 4.31982C18.8517 5.96142 20.5051 7.60714 22.1486 9.25697C22.5648 9.69605 22.9914 10.1303 23.4286 10.5598C23.4755 10.5833 23.5212 10.6061 23.5657 10.6284C23.9035 10.9813 24.2387 11.3318 24.5714 11.6798C24.6476 11.7865 24.7391 11.8779 24.8457 11.9541C25.8578 12.9855 26.8788 14.0065 27.9086 15.017C27.9086 15.0322 27.9086 15.0475 27.9086 15.0627C27.9162 17.1199 27.9086 19.177 27.8857 21.2341C27.855 21.1997 27.817 21.1845 27.7714 21.1884C25.5694 18.9781 23.3599 16.761 21.1429 14.537C21.0296 14.4619 20.923 14.3781 20.8229 14.2855C20.6695 14.4084 20.5324 14.5456 20.4114 14.697C20.1968 14.8811 19.9988 15.0791 19.8171 15.2913C18.5383 16.5512 17.266 17.816 16 19.0855C15.9319 19.0482 15.8633 19.0101 15.7943 18.9713C15.6351 18.8197 15.4827 18.6597 15.3371 18.4913C15.2762 18.3998 15.2 18.3236 15.1086 18.2627C14.3336 17.5182 13.5717 16.7563 12.8229 15.977C14.3918 14.3699 15.9842 12.7852 17.6 11.2227C17.6305 11.1617 17.6305 11.1008 17.6 11.0398C15.4395 8.887 13.2834 6.72316 11.1314 4.54839C10.9734 4.36801 10.8058 4.20039 10.6286 4.04554Z"
            fill="#FEFEFE" />
        <path fill-rule="evenodd" clip-rule="evenodd"
            d="M25.9429 3.99982C27.0298 4.21803 27.7003 4.87328 27.9543 5.96553C27.9695 7.84759 27.9542 9.72188 27.9086 11.5884C26.3836 10.0938 24.875 8.58524 23.3829 7.06268C23.3524 7.00174 23.3067 6.95602 23.2457 6.92553C22.7886 6.49888 22.3467 6.05696 21.92 5.59982C21.8438 5.49317 21.7524 5.40174 21.6457 5.32553C21.6 5.31031 21.5695 5.27982 21.5543 5.2341C21.5238 5.17317 21.4781 5.12745 21.4172 5.09696C21.049 4.75927 20.6985 4.40877 20.3657 4.04553C22.217 3.99988 24.076 3.98465 25.9429 3.99982Z"
            fill="#FDFEFE" />
        <path fill-rule="evenodd" clip-rule="evenodd"
            d="M30.9714 2.62842C31.4284 3.23588 31.7179 3.92159 31.84 4.68556C31.6866 4.59816 31.6181 4.46101 31.6343 4.27413C31.6028 4.3133 31.5647 4.34377 31.52 4.36556C31.3963 4.2228 31.4116 4.09327 31.5657 3.97699C31.5061 3.94024 31.4756 3.8869 31.4743 3.81699C31.5041 3.68953 31.4736 3.56763 31.3829 3.45128C31.3374 3.63327 31.2917 3.63327 31.2457 3.45128C31.3183 3.36231 31.303 3.29374 31.2 3.24556C31.2239 3.2199 31.2391 3.18942 31.2457 3.15413C31.1865 3.12202 31.1256 3.09154 31.0629 3.0627C31.0884 3.02957 31.1036 2.99148 31.1086 2.94842C31.0507 2.8477 31.0049 2.74103 30.9714 2.62842Z"
            fill="#389CF2" />
        <path fill-rule="evenodd" clip-rule="evenodd"
            d="M0.114285 4.64014C0.118876 4.92905 0.0731615 5.20334 -0.0228577 5.46299C-0.0228577 5.38679 -0.0228577 5.31063 -0.0228577 5.23442C0.0186325 5.03552 0.0643469 4.83744 0.114285 4.64014Z"
            fill="#5DAAED" />
        <path fill-rule="evenodd" clip-rule="evenodd"
            d="M21.4171 5.09717C21.4781 5.12766 21.5238 5.17337 21.5543 5.23431C21.4629 5.23431 21.4171 5.1886 21.4171 5.09717Z"
            fill="#7EC1F2" />
        <path fill-rule="evenodd" clip-rule="evenodd"
            d="M21.6457 5.32568C21.7524 5.40189 21.8438 5.49332 21.92 5.59997C21.8092 5.57574 21.7025 5.53762 21.6 5.48568C21.6305 5.47046 21.6609 5.45519 21.6914 5.43997C21.6571 5.4093 21.6418 5.37122 21.6457 5.32568Z"
            fill="#5AABF3" />
        <path fill-rule="evenodd" clip-rule="evenodd"
            d="M27.9543 5.96582C28 7.77135 28.0152 9.5847 28 11.4058C28 11.4668 28 11.5277 28 11.5887C27.9695 11.6496 27.9391 11.6496 27.9086 11.5887C27.9542 9.72216 27.9695 7.84788 27.9543 5.96582Z"
            fill="#89C3F1" />
        <path fill-rule="evenodd" clip-rule="evenodd"
            d="M28 11.5886C28 11.5277 28 11.4667 28 11.4058C28.0381 9.79828 28.0609 8.18301 28.0686 6.56006C28.0763 8.15572 28.0992 9.74808 28.1371 11.3372C28.1022 11.4318 28.0794 11.5308 28.0686 11.6343C28.0511 11.6089 28.0282 11.5937 28 11.5886Z"
            fill="#1A99FE" />
        <path fill-rule="evenodd" clip-rule="evenodd"
            d="M23.2457 6.92578C23.3066 6.95627 23.3524 7.00199 23.3829 7.06292C23.2914 7.06292 23.2457 7.01721 23.2457 6.92578Z"
            fill="#7DC1F2" />
        <path fill-rule="evenodd" clip-rule="evenodd"
            d="M23.5657 10.6284C23.5212 10.6061 23.4755 10.5833 23.4286 10.5598C22.9914 10.1303 22.5648 9.69604 22.1486 9.25696C22.2481 9.25302 22.3395 9.22253 22.4229 9.16553C22.578 9.23698 22.6389 9.35885 22.6057 9.53124C22.8603 9.50386 22.9974 9.61814 23.0171 9.8741C22.8901 9.88091 22.8672 9.91904 22.9486 9.98838C23.2271 9.84658 23.3567 9.93801 23.3371 10.2627C23.4327 10.2544 23.5242 10.2696 23.6114 10.3084C23.6624 10.3643 23.67 10.4252 23.6343 10.4912C23.5825 10.413 23.5139 10.3902 23.4286 10.4227C23.4856 10.4867 23.5313 10.5552 23.5657 10.6284Z"
            fill="#3199F0" />
        <path fill-rule="evenodd" clip-rule="evenodd"
            d="M4.04572 10.6287C4.00006 12.6934 3.98483 14.7657 4.00001 16.8459C3.93917 14.7658 3.93917 12.6782 4.00001 10.583C4.02774 10.5887 4.04298 10.6039 4.04572 10.6287Z"
            fill="#93CBFA" />
        <path fill-rule="evenodd" clip-rule="evenodd"
            d="M4.04572 10.6284C8.41313 14.9838 12.7712 19.3495 17.12 23.7256C17.235 23.8329 17.3569 23.932 17.4857 24.0227C17.5903 24.2035 17.7275 24.3559 17.8971 24.4798C17.9429 24.4951 17.9734 24.5256 17.9886 24.5713C18.0648 24.6779 18.1562 24.7694 18.2629 24.8456C18.9613 25.5136 19.647 26.1993 20.32 26.9027C20.5943 27.2075 20.8838 27.497 21.1886 27.7713C21.1846 27.8168 21.1999 27.8549 21.2343 27.8856C19.1772 27.9084 17.1201 27.9161 15.0629 27.9084C15.0476 27.9084 15.0324 27.9084 15.0171 27.9084C11.5923 24.514 8.17893 21.1007 4.77715 17.6684C4.66835 17.5139 4.53122 17.392 4.36572 17.3027C4.24381 17.1503 4.12191 16.9979 4.00001 16.8456C3.98482 14.7654 4.00006 12.6931 4.04572 10.6284Z"
            fill="#FEFEFE" />
        <path fill-rule="evenodd" clip-rule="evenodd"
            d="M24.5714 11.6802C24.7065 11.7238 24.7979 11.8153 24.8457 11.9545C24.7391 11.8783 24.6476 11.7868 24.5714 11.6802Z"
            fill="#63B3F2" />
        <path fill-rule="evenodd" clip-rule="evenodd"
            d="M20.4114 14.6973C20.4736 14.8836 20.3974 14.9827 20.1829 14.9944C20.1295 15.0478 20.0762 15.1011 20.0229 15.1544C20.0566 15.3251 19.988 15.3708 19.8171 15.2916C19.9988 15.0794 20.1968 14.8814 20.4114 14.6973Z"
            fill="#46A2F0" />
        <path fill-rule="evenodd" clip-rule="evenodd"
            d="M28 15.2456C28.0282 15.2507 28.0511 15.2659 28.0686 15.2913C28.0991 17.257 28.0991 19.2227 28.0686 21.1885C28.0609 19.2303 28.0381 17.2798 28 15.337C28 15.3065 28 15.2761 28 15.2456Z"
            fill="#1A99FE" />
        <path fill-rule="evenodd" clip-rule="evenodd"
            d="M27.9086 15.063C27.9695 17.1506 27.9695 19.2382 27.9086 21.3258C27.8476 21.2954 27.8019 21.2496 27.7714 21.1887C27.817 21.1848 27.855 21.2 27.8857 21.2344C27.9086 19.1773 27.9162 17.1202 27.9086 15.063Z"
            fill="#EDFAFE" />
        <path fill-rule="evenodd" clip-rule="evenodd"
            d="M27.9086 15.0628C27.9086 15.0476 27.9086 15.0323 27.9086 15.0171C27.9888 15.0652 28.0193 15.1414 28 15.2457C28 15.2762 28 15.3066 28 15.3371C28.0152 17.3487 28 19.3602 27.9543 21.3714C27.9265 21.3657 27.9113 21.3505 27.9086 21.3257C27.9695 19.238 27.9695 17.1504 27.9086 15.0628Z"
            fill="#8AC4F1" />
        <path fill-rule="evenodd" clip-rule="evenodd"
            d="M4.36571 17.3027C4.53121 17.392 4.66834 17.5139 4.77714 17.6684C4.61046 17.5778 4.47331 17.4559 4.36571 17.3027Z"
            fill="#67AFF1" />
        <path fill-rule="evenodd" clip-rule="evenodd"
            d="M15.1086 18.2627C15.2 18.3236 15.2762 18.3998 15.3371 18.4913C15.2152 18.4608 15.1391 18.3846 15.1086 18.2627Z"
            fill="#75BCF4" />
        <path fill-rule="evenodd" clip-rule="evenodd"
            d="M4.04571 20.3655C4.00006 22.2168 3.98483 24.0758 4 25.9427C3.93917 24.0759 3.93917 22.2017 4 20.3198C4.02774 20.3255 4.04297 20.3407 4.04571 20.3655Z"
            fill="#90C9F9" />
        <path fill-rule="evenodd" clip-rule="evenodd"
            d="M4.36571 20.6855C4.45714 20.6855 4.50285 20.7313 4.50285 20.8227C4.4419 20.7922 4.39619 20.7465 4.36571 20.6855Z"
            fill="#7EC0F4" />
        <path fill-rule="evenodd" clip-rule="evenodd"
            d="M4.04572 20.3657C4.16762 20.4572 4.27429 20.5638 4.36572 20.6857C4.39619 20.7467 4.44191 20.7924 4.50286 20.8229C4.59429 20.8838 4.67049 20.96 4.73143 21.0514C4.76192 21.1124 4.80764 21.1581 4.86857 21.1886C6.42533 22.7148 7.96439 24.2539 9.48572 25.8057C9.64293 25.9822 9.81052 26.1498 9.98857 26.3086C10.4762 26.7962 10.9638 27.2838 11.4514 27.7714C11.5058 27.9309 11.4677 27.9462 11.3371 27.8172C10.4861 27.8778 9.62519 27.9083 8.75429 27.9086C7.90094 27.9009 7.04764 27.8934 6.19429 27.8857C5.98693 27.8594 5.77362 27.8365 5.55429 27.8172C4.90588 27.5954 4.44876 27.1687 4.18286 26.5372C4.17088 26.4696 4.18612 26.4086 4.22857 26.3543C4.26952 26.4003 4.29999 26.4003 4.32 26.3543C4.19894 26.3091 4.10751 26.2329 4.04572 26.1257C4.05796 26.0526 4.04272 25.9917 4 25.9429C3.98483 24.076 4.00007 22.217 4.04572 20.3657Z"
            fill="#FDFEFE" />
        <path fill-rule="evenodd" clip-rule="evenodd"
            d="M4.73143 21.0513C4.82286 21.0513 4.86857 21.097 4.86857 21.1884C4.80764 21.1579 4.76192 21.1122 4.73143 21.0513Z"
            fill="#7FC0F2" />
        <path fill-rule="evenodd" clip-rule="evenodd"
            d="M17.4857 24.0229C17.705 24.0923 17.8422 24.2447 17.8971 24.4801C17.7275 24.3562 17.5903 24.2038 17.4857 24.0229Z"
            fill="#4BA5F7" />
        <path fill-rule="evenodd" clip-rule="evenodd"
            d="M18.2629 24.8459C18.1562 24.7697 18.0648 24.6782 17.9886 24.5716C18.0539 24.5752 18.1149 24.56 18.1714 24.5259C18.2219 24.5776 18.2067 24.6157 18.1257 24.6402C18.2007 24.6918 18.2464 24.7603 18.2629 24.8459Z"
            fill="#57A9EF" />
        <path fill-rule="evenodd" clip-rule="evenodd"
            d="M9.48572 25.8057C9.61427 25.8683 9.75141 25.914 9.89715 25.9428C9.89381 26.0629 9.9243 26.1847 9.98857 26.3085C9.81052 26.1498 9.64293 25.9821 9.48572 25.8057Z"
            fill="#4BA4F1" />
        <path fill-rule="evenodd" clip-rule="evenodd"
            d="M4.04572 26.1255C4.10751 26.2326 4.19894 26.3088 4.32 26.3541C4.29999 26.4 4.26952 26.4 4.22857 26.3541C4.18612 26.4084 4.17088 26.4694 4.18286 26.5369C4.1001 26.416 4.05438 26.2789 4.04572 26.1255Z"
            fill="#CDE8F6" />
        <path fill-rule="evenodd" clip-rule="evenodd"
            d="M20.32 26.9028C20.4949 26.9674 20.6472 27.0664 20.7772 27.2C20.7619 27.2152 20.7467 27.2305 20.7314 27.2457C20.8101 27.2795 20.8863 27.3176 20.96 27.36C21.0764 27.512 21.1831 27.6643 21.28 27.8171C21.2495 27.8019 21.2191 27.7866 21.1886 27.7714C20.8838 27.4971 20.5943 27.2076 20.32 26.9028Z"
            fill="#47A3F6" />
        <path fill-rule="evenodd" clip-rule="evenodd"
            d="M11.4514 27.7715C11.5124 27.802 11.5581 27.8477 11.5886 27.9086C9.75255 27.9543 7.90871 27.9695 6.05715 27.9543C5.87274 27.9536 5.7051 27.9079 5.55429 27.8172C5.77363 27.8366 5.98693 27.8594 6.19429 27.8858C7.04764 27.8934 7.90094 27.901 8.75429 27.9086C9.62519 27.9084 10.4861 27.8779 11.3371 27.8172C11.4677 27.9462 11.5058 27.931 11.4514 27.7715Z"
            fill="#EDF8FD" />
        <path fill-rule="evenodd" clip-rule="evenodd"
            d="M21.1886 27.7715C21.2191 27.7867 21.2495 27.802 21.28 27.8172C21.2952 27.8477 21.3105 27.8781 21.3257 27.9086C19.2381 27.9696 17.1505 27.9696 15.0629 27.9086C17.12 27.9163 19.1772 27.9086 21.2343 27.8858C21.1999 27.8551 21.1846 27.817 21.1886 27.7715Z"
            fill="#EEFAFE" />
        <path fill-rule="evenodd" clip-rule="evenodd"
            d="M11.5886 27.9087C11.646 27.96 11.6308 27.9905 11.5429 28.0001C11.4971 28.0001 11.4514 28.0001 11.4057 28.0001C9.61509 28.0153 7.83223 28.0001 6.05714 27.9544C7.90871 27.9696 9.75255 27.9544 11.5886 27.9087Z"
            fill="#8BC4F0" />
        <path fill-rule="evenodd" clip-rule="evenodd"
            d="M15.0172 27.9087C15.0324 27.9087 15.0476 27.9087 15.0629 27.9087C17.1505 27.9696 19.2381 27.9696 21.3257 27.9087C21.3505 27.9114 21.3658 27.9267 21.3714 27.9544C20.3124 27.9696 19.2534 27.9849 18.1943 28.0001C17.1196 28.0001 16.0605 27.9696 15.0172 27.9087Z"
            fill="#8BC4F0" />
        <path fill-rule="evenodd" clip-rule="evenodd"
            d="M11.4057 28C11.4514 28 11.4971 28 11.5429 28C11.4983 28.0725 11.4298 28.1182 11.3371 28.1371C9.74802 28.0992 8.15565 28.0763 6.56 28.0686C8.18295 28.0609 9.79821 28.0381 11.4057 28Z"
            fill="#1997FC" />
        <path fill-rule="evenodd" clip-rule="evenodd"
            d="M31.3371 28.7314C31.3255 28.8442 31.2798 28.9357 31.2 29.0057C31.2117 28.893 31.2574 28.8015 31.3371 28.7314Z"
            fill="#9BCEF4" />
        <path fill-rule="evenodd" clip-rule="evenodd"
            d="M31.2 29.0059C31.1886 29.1052 31.1429 29.1814 31.0629 29.2344C31.0743 29.135 31.12 29.0588 31.2 29.0059Z"
            fill="#A1D0F7" />
        <path fill-rule="evenodd" clip-rule="evenodd"
            d="M31.0629 29.2344C31.0662 29.3042 31.0357 29.3499 30.9714 29.3715C30.9681 29.3017 30.9986 29.256 31.0629 29.2344Z"
            fill="#A5D7FA" />
    </g>
    <defs>
        <clipPath id="clip0_2171_142">
            <rect width="32" height="32" fill="white" />
        </clipPath>
    </defs>
</svg>