<svg width="52" height="48" viewBox="0 0 52 48" xmlns="http://www.w3.org/2000/svg"><title>cube</title><defs><linearGradient x1="73.992%" y1="0%" x2="50%" y2="80.436%" id="linearGradient-1"><stop stop-opacity="0" offset="0%"/><stop stop-opacity=".302" offset="100%"/></linearGradient><linearGradient x1="50%" y1="0%" x2="50%" y2="100%" id="linearGradient-2"><stop stop-color="#F8F7F6" offset="0%"/><stop stop-color="#EFEFEF" offset="100%"/></linearGradient><linearGradient x1="30.212%" y1="-13.068%" x2="30.212%" y2="100%" id="linearGradient-3"><stop stop-color="#EEE" offset="0%"/><stop stop-color="#C6C6C6" offset="100%"/></linearGradient></defs><g fill="none" fill-rule="evenodd"><path d="M.154 6.963C.134 5.305 1.45 3.808 3.102 3.62c0 0 13.8-1.61 17.036-1.715.986-.032 2.106-.098 3.712 0 1.69.103 22.596 1.651 22.596 1.651 1.655.122 3.004 1.568 3.013 3.231 0 0 .175 31.785-.016 33.997-.089 1.027-.38 1.592-.762 1.929-.44.388-.998.475-1.504.62-.944.27-16.994 1.98-19.464 2.52-2.47.54-6.053 1.136-8.002.362-1.949-.774-13.988-4.705-16.391-5.792-2.403-1.087-2.855-2.16-2.855-5.02 0-2.86-.311-28.44-.311-28.44z" fill="url(#linearGradient-1)" transform="translate(.56 .983)"/><path d="M2.783 5.042C2.763 3.386 4.08 1.89 5.735 1.7c0 0 13.273-1.55 16.408-1.65.955-.031 2.041-.095 3.597 0 1.637.1 21.798 1.592 21.798 1.592 1.656.123 3.005 1.568 3.014 3.227 0 0 .17 30.706-.016 32.849-.086.995-.368 1.542-.738 1.869-.426.376-.967.46-1.457.6-.915.263-18.64 2.27-21.033 2.794-2.393.522-3.775.968-5.663.218-1.888-.75-13.468-4.777-15.796-5.83-2.328-1.053-2.766-2.093-2.766-4.864s-.3-27.463-.3-27.463z" fill="url(#linearGradient-2)" transform="translate(.56 .983)"/><path d="M6.403 3.81c1.445 0 9.094-1.19 11.361-1.19 2.267 0 3.809 1.865 3.809 4.546V37.75c0 2.76 1.463 3.701 3.398 3.407 1.934-.294 19.76-1.516 25.54-2.941-.075.435-.653 1.77-1.585 1.864-.932.093-21.64 3.24-23.776 3.47-2.137.23-2.76.19-4.192-.466-1.432-.657-14.118-5.117-15.838-6.056-1.316-.718-2.333-1.396-2.333-3.726V6.525c0-1.235 2.17-2.715 3.616-2.715z" fill="url(#linearGradient-3)" transform="translate(.56 .983)"/></g></svg>