<svg width="32" height="32" viewBox="0 0 32 32" fill="none" xmlns="http://www.w3.org/2000/svg">
    <g clip-path="url(#clip0_3667_387)">
        <path fill-rule="evenodd" clip-rule="evenodd"
            d="M-0.0712891 -0.0712891C10.5954 -0.0712891 21.262 -0.0712891 31.9287 -0.0712891C31.9287 10.5954 31.9287 21.262 31.9287 31.9287C21.262 31.9287 10.5954 31.9287 -0.0712891 31.9287C-0.0712891 21.262 -0.0712891 10.5954 -0.0712891 -0.0712891Z"
            fill="#FDFDFD" />
        <path fill-rule="evenodd" clip-rule="evenodd"
            d="M10.169 8.74626C14.6301 8.44624 17.4508 10.4374 18.6312 14.7196C18.9398 19.0541 17.0198 21.8274 12.8712 23.0396C9.85665 23.4628 7.41516 22.491 5.54676 20.124C3.35851 16.3233 3.9037 12.981 7.18232 10.0974C8.10896 9.46581 9.10452 9.01543 10.169 8.74626Z"
            fill="black" />
        <path fill-rule="evenodd" clip-rule="evenodd"
            d="M19.8398 8.74642C21.4507 8.57963 22.1854 9.29074 22.0443 10.8798C21.5879 11.8064 20.853 12.162 19.8398 11.9464C18.9285 11.4738 18.6203 10.739 18.9154 9.74198C19.1563 9.33557 19.4645 9.0037 19.8398 8.74642Z"
            fill="black" />
        <path fill-rule="evenodd" clip-rule="evenodd"
            d="M22.1156 14.2936C24.9002 14.0231 26.7255 15.2082 27.5912 17.8491C27.8554 20.4744 26.7414 22.2048 24.2489 23.0402C21.6739 23.4003 19.8961 22.3812 18.9156 19.9824C18.4746 17.2122 19.5412 15.316 22.1156 14.2936Z"
            fill="black" />
    </g>
    <defs>
        <clipPath id="clip0_3667_387">
            <rect width="32" height="32" fill="white" />
        </clipPath>
    </defs>
</svg>