<svg width="32" height="32" viewBox="0 0 32 32" fill="none" xmlns="http://www.w3.org/2000/svg">
    <g clip-path="url(#clip0_1769_693)">
        <path
            d="M4.0004 32L28 32C30.2091 32 32 30.2091 32 28V4C32 1.79086 30.2091 0 28 0H4.0004C1.79126 0 0.000400543 1.79086 0.000400543 4L0.000400543 28C0.000400543 30.2091 1.79126 32 4.0004 32Z"
            fill="black" />
        <path
            d="M6.94865 16.3515L24.7362 21.0411C25.1165 21.1414 25.4838 20.9093 25.5565 20.5228L26.0424 17.9401C26.1151 17.5536 25.8658 17.159 25.4855 17.0587L7.69791 12.3691C7.31763 12.2688 6.9504 12.5009 6.87768 12.8874L6.39175 15.4701C6.31903 15.8566 6.56837 16.2512 6.94865 16.3515Z"
            fill="#ABAAAA" />
        <path
            d="M7.11493 26.7849L26.3212 20.6928C26.6961 20.5739 26.9296 20.1666 26.8428 19.783L25.9554 15.8628C25.8686 15.4792 25.4943 15.2647 25.1195 15.3836L5.91316 21.4756C5.53829 21.5945 5.30478 22.0019 5.3916 22.3854L6.27895 26.3056C6.36578 26.6892 6.74006 26.9038 7.11493 26.7849Z"
            fill="white" />
        <path
            d="M6.88053 16.4295L25.496 10.5249C25.8709 10.406 26.1044 9.99862 26.0176 9.61505L25.1302 5.69485C25.0434 5.31127 24.6691 5.09672 24.2943 5.21562L5.67876 11.1203C5.30388 11.2392 5.07037 11.6465 5.1572 12.0301L6.04455 15.9503C6.13137 16.3338 6.50565 16.5484 6.88053 16.4295Z"
            fill="white" />
    </g>
    <defs>
        <clipPath id="clip0_1769_693">
            <rect width="32" height="32" fill="white" />
        </clipPath>
    </defs>
</svg>