<svg width="32" height="32" viewBox="0 0 32 32" fill="none" xmlns="http://www.w3.org/2000/svg">
<g clip-path="url(#clip0_139_5135)">
<path opacity="0.865" fill-rule="evenodd" clip-rule="evenodd" d="M28.2276 -0.127991C28.8346 -0.127991 29.4418 -0.127991 30.0487 -0.127991C29.3005 1.46451 28.4334 3.00051 27.4471 4.48001C28.3894 4.69129 29.3434 4.81929 30.3089 4.86401C30.8708 5.205 31.3912 5.589 31.8699 6.01601C31.8699 7.04001 31.8699 8.06401 31.8699 9.08801C31.2832 11.5854 30.6762 14.1027 30.0487 16.64C27.1724 17.1401 24.3107 17.6947 21.4634 18.304C21.3767 18.0907 21.2899 17.8773 21.2032 17.664C21.5248 16.3408 21.7416 15.0181 21.8536 13.696C20.3578 16.2136 18.7968 18.6883 17.1707 21.12C16.7552 19.936 16.3649 18.7414 16 17.536C15.9393 17.1695 15.7658 17.0415 15.4796 17.152C11.8031 22.0435 8.16086 26.9502 4.5528 31.872C4.37935 31.872 4.20592 31.872 4.03247 31.872C6.49257 26.7313 8.92077 21.5687 11.317 16.384C11.0135 15.488 10.71 14.592 10.4065 13.696C9.64023 16.3702 7.86246 17.9062 5.07312 18.304C4.86624 19.322 4.69279 20.346 4.5528 21.376C3.00348 21.698 1.4425 21.954 -0.130127 22.144C-0.130127 21.632 -0.130127 21.12 -0.130127 20.608C0.68361 17.0742 1.42074 13.4902 2.08126 9.85601C2.27649 9.6958 2.49329 9.5678 2.73166 9.47201C2.36893 9.0267 2.19549 8.5147 2.21134 7.93601C2.53115 6.97596 2.74795 5.99463 2.86174 4.99201C2.98277 4.62572 3.19959 4.32705 3.51215 4.09601C8.76889 2.9756 14.0589 1.99427 19.3821 1.15201C20.8157 1.06858 21.5529 1.75124 21.5934 3.20001C21.9837 2.43201 22.3739 1.66401 22.7642 0.896009C24.6196 0.551438 26.4408 0.210105 28.2276 -0.127991Z" fill="#1A1A1A"/>
<path fill-rule="evenodd" clip-rule="evenodd" d="M25.8863 1.15198C24.1346 4.51385 22.3134 7.84185 20.4229 11.136C20.1158 11.9141 19.6822 12.5968 19.1221 13.184C19.1221 12.0747 19.1221 10.9653 19.1221 9.85598C20.3696 7.05956 21.7571 4.32889 23.2847 1.66398C24.0917 1.23319 24.959 1.06253 25.8863 1.15198Z" fill="#F2EC3B"/>
<path fill-rule="evenodd" clip-rule="evenodd" d="M9.75598 7.55202C10.1519 6.33016 10.412 5.05016 10.5365 3.71202C10.5653 3.55397 10.652 3.42597 10.7966 3.32802C11.6595 3.20046 12.5267 3.15778 13.3983 3.20002C13.7823 5.09284 13.0451 6.28749 11.1869 6.78402C11.0594 7.11508 11.016 7.45643 11.0568 7.80802C10.6846 7.78775 10.3378 7.8731 10.0161 8.06402C9.80866 7.94706 9.72193 7.77638 9.75598 7.55202Z" fill="#CF2C20"/>
<path fill-rule="evenodd" clip-rule="evenodd" d="M17.8211 1.91998C18.6883 1.91998 19.5555 1.91998 20.4227 1.91998C19.9996 3.34654 19.8261 4.79719 19.9024 6.27198C19.4688 6.27198 19.0352 6.27198 18.6016 6.27198C18.6433 5.83699 18.5999 5.41031 18.4715 4.99198C18.4101 6.09227 17.8465 6.6896 16.7805 6.78398C17.0317 5.59417 17.1618 4.3995 17.1707 3.19998C16.5003 3.39738 15.8499 3.65338 15.2195 3.96798C15.5805 4.04663 16.0141 4.04663 16.5203 3.96798C16.5986 5.02242 16.0783 5.53442 14.9593 5.50398C15.4526 5.75118 15.9729 5.8365 16.5203 5.75998C16.5645 6.09844 16.4778 6.39709 16.2601 6.65598C15.2925 6.91531 14.3385 7.21396 13.3983 7.55198C13.3116 7.33866 13.2249 7.12531 13.1382 6.91198C13.5386 5.61652 13.8421 4.29385 14.0488 2.94398C15.0124 2.58238 16.0098 2.32639 17.0406 2.17598C17.4 2.79776 17.6601 2.71241 17.8211 1.91998Z" fill="#D63B20"/>
<path fill-rule="evenodd" clip-rule="evenodd" d="M21.9838 11.648C21.4635 11.4773 20.9432 11.3067 20.4229 11.136C22.3134 7.84188 24.1345 4.51388 25.8863 1.15201C26.6691 0.951587 27.493 0.78092 28.3578 0.640015C28.4879 0.725347 28.618 0.810682 28.7481 0.896015C26.4867 4.4964 24.232 8.0804 21.9838 11.648Z" fill="#2FBADB"/>
<path fill-rule="evenodd" clip-rule="evenodd" d="M11.8375 4.224C12.1748 4.56929 12.1314 4.91062 11.7074 5.248C11.5567 4.8823 11.6001 4.54098 11.8375 4.224Z" fill="#431B17"/>
<path fill-rule="evenodd" clip-rule="evenodd" d="M4.29276 4.48002C5.0074 4.39979 5.70115 4.48514 6.37406 4.73602C6.56809 5.05249 6.65482 5.39382 6.63422 5.76002C5.93105 6.09769 5.32399 6.09769 4.81308 5.76002C6.2976 6.63101 6.47105 7.69769 5.33341 8.96002C3.86802 9.46923 3.08753 8.99991 2.99194 7.55202C3.59581 7.48262 4.11613 7.65327 4.55292 8.06402C4.63963 7.9787 4.72637 7.89335 4.81308 7.80802C4.54556 7.33148 4.15531 6.99015 3.64235 6.78402C3.36322 5.8625 3.58004 5.0945 4.29276 4.48002Z" fill="#BB141F"/>
<path fill-rule="evenodd" clip-rule="evenodd" d="M9.49597 3.71199C9.80648 3.83241 9.9799 4.08841 10.0163 4.47999C9.87524 5.34468 9.70179 6.19801 9.49597 7.03999C9.34753 8.10848 8.69712 8.62048 7.54476 8.57599C6.8681 8.55008 6.47785 8.20876 6.37402 7.55199C6.69933 6.46338 6.91612 5.35405 7.02443 4.22399C7.49631 3.90153 7.97327 3.90153 8.45532 4.22399C8.02051 5.21325 7.89043 6.23725 8.06508 7.29599C8.51612 6.24708 8.77629 5.13776 8.84557 3.96799C9.02009 3.77538 9.23688 3.69003 9.49597 3.71199Z" fill="#C4201F"/>
<path fill-rule="evenodd" clip-rule="evenodd" d="M9.49585 3.71203C9.80945 3.40849 10.1563 3.40849 10.5365 3.71203C10.4121 5.05017 10.1519 6.33017 9.75601 7.55203C9.80066 7.29818 9.71392 7.1275 9.49585 7.04003C9.70166 6.19805 9.87511 5.34472 10.0162 4.48003C9.97978 4.08845 9.80635 3.83245 9.49585 3.71203Z" fill="#7E211B"/>
<path fill-rule="evenodd" clip-rule="evenodd" d="M19.122 9.85602C19.122 10.9653 19.122 12.0747 19.122 13.184C18.9152 13.9324 18.5683 14.6151 18.0813 15.232C17.6659 14.1337 17.2756 13.0244 16.9106 11.904C16.7372 11.5627 16.5637 11.5627 16.3903 11.904C13.8691 16.1877 11.2241 20.3691 8.45532 24.448C10.1897 21.0347 11.9241 17.6213 13.6586 14.208C14.1375 13.6068 14.4844 12.9241 14.6992 12.16C15.7083 10.6049 16.6623 8.98357 17.561 7.29602C17.9857 8.3702 18.2893 9.47952 18.4716 10.624C18.6932 10.3499 18.91 10.0939 19.122 9.85602Z" fill="#EADA3D"/>
<path fill-rule="evenodd" clip-rule="evenodd" d="M29.7887 14.464C27.5867 13.4233 25.4188 12.3139 23.2847 11.136C23.9966 9.26605 24.9505 7.5167 26.1465 5.88801C27.6276 5.38914 29.1019 5.38914 30.5692 5.88801C30.9748 6.39893 31.1483 6.99626 31.0895 7.68001C30.7586 9.96319 30.3249 12.2245 29.7887 14.464Z" fill="#24B7E0"/>
<path fill-rule="evenodd" clip-rule="evenodd" d="M27.187 8.32001C27.4471 8.32001 27.7073 8.32001 27.9675 8.32001C27.8257 9.16816 27.6956 10.0215 27.5772 10.88C27.1885 11.1993 26.7983 11.1993 26.4065 10.88C26.5569 9.98501 26.817 9.13168 27.187 8.32001Z" fill="#1A2428"/>
<path fill-rule="evenodd" clip-rule="evenodd" d="M14.6992 12.16C14.4844 12.9241 14.1375 13.6068 13.6585 14.208C13.1232 14.8292 12.6463 15.5118 12.2276 16.256C11.3773 13.9588 10.5534 11.6548 9.7561 9.34399C11.1781 8.8592 12.6524 8.6032 14.1789 8.57599C14.386 9.76562 14.5594 10.9603 14.6992 12.16Z" fill="#1BAADF"/>
<path fill-rule="evenodd" clip-rule="evenodd" d="M8.19517 16C7.4806 15.3071 6.6134 14.8804 5.59354 14.72C6.28105 14.0202 6.54121 13.1669 6.37403 12.16C6.03007 12.1165 5.72656 12.2018 5.46346 12.416C5.29123 13.008 5.16115 13.6054 5.07321 14.208C4.34174 13.7195 3.56125 13.2928 2.73175 12.928C2.55394 13.0208 2.3805 13.1062 2.21143 13.184C2.31657 12.1554 2.57673 11.1741 2.99191 10.24C4.87786 9.74872 6.78573 9.49272 8.71549 9.47198C9.5893 9.76257 9.93617 10.3599 9.75614 11.264C9.63977 12.4339 9.42295 13.5859 9.10573 14.72C8.92435 15.2536 8.62082 15.6803 8.19517 16Z" fill="#11A8E5"/>
<path fill-rule="evenodd" clip-rule="evenodd" d="M20.4228 11.136C20.9431 11.3067 21.4635 11.4773 21.9838 11.648C20.5379 14.2359 19.0202 16.7959 17.4309 19.328C16.9958 17.8733 16.5622 16.4227 16.1301 14.976C13.6074 18.3511 11.0491 21.6791 8.45532 24.96C8.45532 24.7893 8.45532 24.6187 8.45532 24.448C11.2241 20.369 13.8691 16.1877 16.3903 11.904C16.5637 11.5627 16.7372 11.5627 16.9106 11.904C17.2756 13.0243 17.6659 14.1336 18.0813 15.232C18.5683 14.6151 18.9152 13.9324 19.122 13.184C19.6821 12.5968 20.1157 11.9141 20.4228 11.136Z" fill="#23ACE0"/>
<path fill-rule="evenodd" clip-rule="evenodd" d="M5.59357 14.72C5.24669 14.72 5.07324 14.5493 5.07324 14.208C5.16118 13.6054 5.29126 13.0081 5.46349 12.416C5.72659 12.2018 6.03009 12.1165 6.37406 12.16C6.54124 13.1669 6.28107 14.0202 5.59357 14.72Z" fill="#1A252B"/>
<path fill-rule="evenodd" clip-rule="evenodd" d="M23.2845 11.136C25.4185 12.3139 27.5865 13.4232 29.7885 14.464C29.7019 14.976 29.615 15.488 29.5284 16C28.4729 16.089 27.4322 16.2597 26.4064 16.512C26.5258 15.6474 26.6994 14.794 26.9267 13.952C26.5547 13.9317 26.2076 14.0171 25.8861 14.208C25.6417 15.0296 25.3815 15.8402 25.1056 16.64C24.066 17.0275 23.0254 17.1555 21.9836 17.024C22.4508 15.0665 22.8845 13.1039 23.2845 11.136Z" fill="#1CAEDF"/>
<path fill-rule="evenodd" clip-rule="evenodd" d="M5.07325 14.208C5.07325 14.5493 5.2467 14.72 5.59357 14.72C6.61344 14.8804 7.48064 15.3071 8.1952 16C7.83264 16.5653 7.31231 16.9493 6.63422 17.152C5.87195 17.3072 5.13483 17.5205 4.42284 17.792C4.15544 18.809 3.93865 19.833 3.77243 20.864C2.81033 20.8774 1.8564 20.9627 0.910645 21.12C1.17474 18.4475 1.60835 15.8022 2.21146 13.184C2.38053 13.1062 2.55397 13.0208 2.73178 12.928C3.56129 13.2928 4.34177 13.7195 5.07325 14.208Z" fill="#06A2EA"/>
<path fill-rule="evenodd" clip-rule="evenodd" d="M8.45532 24.448C8.45532 24.6187 8.45532 24.7893 8.45532 24.96C8.24331 25.1979 8.02652 25.4539 7.80491 25.728C7.74003 25.173 7.95682 24.7463 8.45532 24.448Z" fill="#ADB75F"/>
</g>
<defs>
<clipPath id="clip0_139_5135">
<rect width="32" height="32" fill="white"/>
</clipPath>
</defs>
</svg>
