<svg width="32" height="32" viewBox="0 0 32 32" fill="none" xmlns="http://www.w3.org/2000/svg">
    <g clip-path="url(#clip0_3719_327)">
        <path fill-rule="evenodd" clip-rule="evenodd"
            d="M-0.0712891 -0.0712891C0.165748 -0.0712891 0.402785 -0.0712891 0.639822 -0.0712891C0.639822 10.5954 0.639822 21.262 0.639822 31.9287C0.402785 31.9287 0.165748 31.9287 -0.0712891 31.9287C-0.0712891 21.262 -0.0712891 10.5954 -0.0712891 -0.0712891Z"
            fill="#FEFEFE" />
        <path fill-rule="evenodd" clip-rule="evenodd"
            d="M0.640137 -0.0712891C0.687544 -0.0712891 0.734952 -0.0712891 0.782359 -0.0712891C0.735265 3.65095 0.782672 7.34873 0.924581 11.022C0.924581 11.3539 0.924581 11.6858 0.924581 12.0176C0.734952 14.625 0.734952 17.2325 0.924581 19.8398C0.924581 20.1716 0.924581 20.5036 0.924581 20.8354C0.782672 24.5087 0.735265 28.2065 0.782359 31.9287C0.734952 31.9287 0.687544 31.9287 0.640137 31.9287C0.640137 21.262 0.640137 10.5954 0.640137 -0.0712891Z"
            fill="#EDEEEE" />
        <path fill-rule="evenodd" clip-rule="evenodd"
            d="M0.78225 -0.0712891C10.88 -0.0712891 20.9778 -0.0712891 31.0756 -0.0712891C31.1227 3.50876 31.0753 7.06431 30.9334 10.5954C30.2959 8.53785 29.2055 6.76007 27.6623 5.26204C26.1317 4.52438 24.6621 4.64291 23.2534 5.6176C22.6486 5.1846 22.0086 4.80534 21.3334 4.47982C21.4661 1.96395 20.3047 0.518023 17.8489 0.142044C16.2782 0.0211325 14.7138 0.0685399 13.1556 0.284267C12.1018 0.626793 11.367 1.3142 10.9511 2.34649C10.8114 3.00438 10.6929 3.66807 10.5956 4.3376C9.97929 4.69316 9.36299 5.04871 8.7467 5.40427C7.86465 5.15058 6.9639 4.93725 6.04447 4.76427C5.05353 4.78169 4.22389 5.16095 3.55558 5.90204C2.26601 7.39068 1.38898 9.09735 0.924472 11.022C0.782563 7.34873 0.735156 3.65095 0.78225 -0.0712891Z"
            fill="#FEFEFE" />
        <path fill-rule="evenodd" clip-rule="evenodd"
            d="M31.0753 -0.0712891C31.1227 -0.0712891 31.1702 -0.0712891 31.2175 -0.0712891C31.2646 3.65095 31.2173 7.34873 31.0753 11.022C30.9886 10.8953 30.9412 10.7531 30.9331 10.5954C31.075 7.06431 31.1224 3.50876 31.0753 -0.0712891Z"
            fill="#EDEEEE" />
        <path fill-rule="evenodd" clip-rule="evenodd"
            d="M30.9332 10.5956C30.9413 10.7533 30.9887 10.8956 31.0754 11.0223C31.0522 12.7262 30.27 13.9588 28.7288 14.7201C28.6339 15.526 28.6339 16.3319 28.7288 17.1378C29.7916 17.7262 30.5501 18.5796 31.0043 19.6978C30.8288 22.443 29.7148 24.7423 27.6621 26.5956C26.8637 27.052 26.0103 27.1942 25.1021 27.0223C24.5169 26.8481 23.948 26.6347 23.3954 26.3823C22.7143 26.6992 22.0507 27.0547 21.4043 27.449C21.2813 28.3411 21.068 29.2182 20.7643 30.0801C20.0626 31.0833 19.0908 31.6286 17.8488 31.7156C16.4739 31.8105 15.0992 31.8105 13.7243 31.7156C12.1524 31.4238 11.1806 30.4993 10.8088 28.9423C10.7839 28.4145 10.7128 27.893 10.5954 27.3778C9.94369 27.0165 9.30369 26.6373 8.67543 26.2401C7.46497 27.0551 6.16127 27.2685 4.76432 26.8801C2.78895 25.327 1.50895 23.3123 0.924316 20.8356C0.924316 20.5038 0.924316 20.1719 0.924316 19.8401C1.36758 18.6609 2.1498 17.7601 3.27098 17.1378C3.3658 16.3319 3.3658 15.526 3.27098 14.7201C2.1498 14.0978 1.36758 13.1971 0.924316 12.0178C0.924316 11.686 0.924316 11.3541 0.924316 11.0223C1.38882 9.0976 2.26586 7.39093 3.55543 5.90229C4.22373 5.1612 5.05337 4.78194 6.04432 4.76451C6.96374 4.9375 7.86449 5.15083 8.74654 5.40451C9.36283 5.04896 9.97914 4.6934 10.5954 4.33785C10.6928 3.66832 10.8113 3.00463 10.951 2.34674C11.3669 1.31445 12.1017 0.62704 13.1554 0.284513C14.7136 0.0687866 16.2781 0.0213792 17.8488 0.142291C20.3045 0.51827 21.4659 1.9642 21.3332 4.48007C22.0085 4.80559 22.6485 5.18485 23.2532 5.61785C24.6619 4.64316 26.1315 4.52463 27.6621 5.26229C29.2053 6.76032 30.2958 8.5381 30.9332 10.5956Z"
            fill="#4FE8EA" />
        <path fill-rule="evenodd" clip-rule="evenodd"
            d="M14.4358 1.63539C15.7811 1.57049 17.1084 1.689 18.418 1.99094C18.924 2.25998 19.2796 2.66296 19.4847 3.19983C19.614 4.05113 19.7326 4.90446 19.8402 5.75983C20.9883 6.2504 22.0549 6.86669 23.0402 7.60872C25.2033 5.83154 26.9575 6.16339 28.3025 8.60427C29.9224 10.9209 29.4721 12.6749 26.9513 13.8665C26.7618 15.2414 26.7618 16.6161 26.9513 17.9909C29.4721 19.1825 29.9224 20.9365 28.3025 23.2532C27.8587 24.0288 27.2661 24.6688 26.5247 25.1732C26.1114 25.3606 25.6847 25.4081 25.2447 25.3154C24.4854 25.0661 23.7505 24.758 23.0402 24.3909C22.0107 25.0601 20.944 25.6765 19.8402 26.2398C19.7447 27.2627 19.5313 28.2582 19.2002 29.2265C18.606 29.8446 17.8712 30.1528 16.9958 30.1509C13.6706 30.8997 12.0824 29.596 12.2313 26.2398C11.0936 25.6476 10.0032 24.9839 8.96024 24.2487C8.10793 24.8052 7.18348 25.1845 6.1869 25.3865C4.94047 25.0651 4.06343 24.3066 3.55579 23.1109C3.07369 22.3202 2.76553 21.4669 2.63135 20.5509C2.79526 19.7451 3.22193 19.1051 3.91135 18.6309C4.32642 18.3879 4.72938 18.1272 5.12024 17.8487C5.21506 16.5687 5.21506 15.2887 5.12024 14.0087C4.30532 13.5765 3.59421 13.0077 2.9869 12.3021C2.5801 11.6152 2.53269 10.904 2.84468 10.1687C3.36017 9.0656 4.00017 8.04634 4.76468 7.11094C5.29766 6.63012 5.91395 6.44049 6.61357 6.54205C7.37291 6.79134 8.10773 7.09949 8.81801 7.4665C9.87261 6.761 10.9867 6.14471 12.1602 5.61761C12.2781 4.91118 12.3493 4.20006 12.3736 3.48427C12.7325 2.48452 13.4199 1.86823 14.4358 1.63539Z"
            fill="#FDFEFE" />
        <path fill-rule="evenodd" clip-rule="evenodd"
            d="M15.1469 5.75977C18.4804 6.12279 21.3722 7.4502 23.8224 9.74199C24.5035 10.4878 25.0013 11.3412 25.3158 12.302C25.7776 14.6707 25.7776 17.0411 25.3158 19.4131C25.033 20.8544 24.2983 22.0159 23.1113 22.8975C20.9864 24.5644 18.5922 25.6311 15.9291 26.0975C12.7492 25.4295 9.99956 23.9599 7.68022 21.6887C6.88248 20.5378 6.45581 19.2578 6.40022 17.8487C6.3054 16.3791 6.3054 14.9093 6.40022 13.4398C6.49636 11.8206 7.13636 10.4695 8.32022 9.38643C10.342 7.68826 12.6176 6.47937 15.1469 5.75977Z"
            fill="#4BE8EA" />
        <path fill-rule="evenodd" clip-rule="evenodd"
            d="M0.924448 12.0176C1.36771 13.1968 2.14993 14.0975 3.27112 14.7198C3.36593 15.5258 3.36593 16.3316 3.27112 17.1376C2.14993 17.7598 1.36771 18.6606 0.924448 19.8398C0.734819 17.2324 0.734819 14.6249 0.924448 12.0176Z"
            fill="#FCFDFD" />
        <path fill-rule="evenodd" clip-rule="evenodd"
            d="M31.2178 -0.0712891C31.4549 -0.0712891 31.6918 -0.0712891 31.9289 -0.0712891C31.9289 10.5954 31.9289 21.262 31.9289 31.9287C21.5467 31.9287 11.1645 31.9287 0.78225 31.9287C0.735156 28.2065 0.782563 24.5087 0.924472 20.8354C1.50911 23.312 2.78911 25.3268 4.76447 26.8798C6.16142 27.2682 7.46513 27.0549 8.67558 26.2398C9.30385 26.637 9.94385 27.0162 10.5956 27.3776C10.713 27.8927 10.7841 28.4143 10.8089 28.942C11.1807 30.4991 12.1526 31.4235 13.7245 31.7154C15.0993 31.8102 16.4741 31.8102 17.8489 31.7154C19.0909 31.6283 20.0627 31.0831 20.7645 30.0798C21.0681 29.218 21.2815 28.3409 21.4045 27.4487C22.0509 27.0545 22.7145 26.6989 23.3956 26.382C23.9481 26.6345 24.517 26.8478 25.1023 27.022C26.0105 27.194 26.8638 27.0518 27.6623 26.5954C29.7149 24.7421 30.829 22.4428 31.0045 19.6976C30.5502 18.5793 29.7917 17.726 28.7289 17.1376C28.6341 16.3316 28.6341 15.5258 28.7289 14.7198C30.2702 13.9585 31.0524 12.7259 31.0756 11.022C31.2175 7.34873 31.2649 3.65095 31.2178 -0.0712891Z"
            fill="#FDFEFE" />
    </g>
    <defs>
        <clipPath id="clip0_3719_327">
            <rect width="32" height="32" fill="white" />
        </clipPath>
    </defs>
</svg>