<svg width="32" height="32" viewBox="0 0 32 33" fill="none" xmlns="http://www.w3.org/2000/svg">
    <path
        d="M26 0.59082H6C2.68629 0.59082 0 3.27711 0 6.59082V26.5908C0 29.9045 2.68629 32.5908 6 32.5908H26C29.3137 32.5908 32 29.9045 32 26.5908V6.59082C32 3.27711 29.3137 0.59082 26 0.59082Z"
        fill="#014744" />
    <path
        d="M16.8298 18.733C16.7579 18.8192 16.7809 18.848 16.8413 18.9227C17.4997 19.7651 18.2242 20.5931 19.1068 21.2112C19.9837 21.8236 21.0819 22.1255 22.1486 22.1255C24.4026 22.1255 26.4208 20.78 27.2862 18.6985C27.3149 18.6352 27.3063 18.5547 27.2661 18.5001V18.4972C27.2287 18.434 27.1568 18.3966 27.0792 18.3966H25.4692C25.3944 18.3966 25.3226 18.4369 25.2823 18.503C25.0811 18.8336 24.8281 19.1297 24.5319 19.3827C23.6924 20.0986 22.5597 20.366 21.4816 20.1647C20.3086 19.9434 19.5611 19.262 18.8394 18.3707C18.5922 18.066 18.3191 17.7756 18.0632 17.4737C18.0258 17.4306 17.9626 17.4306 17.9252 17.4737C17.6952 17.7354 16.9937 18.5375 16.8298 18.733Z"
        fill="#00CC88" />
    <path
        d="M27.2801 14.5207C27.0444 13.9543 26.7195 13.4311 26.3084 12.9653C25.2533 11.7751 23.7324 11.0908 22.1368 11.0908C21.2714 11.0908 20.406 11.2921 19.6355 11.6773C18.9254 12.0252 18.3993 12.5312 17.8243 13.1838C17.1429 13.9601 16.4701 14.7421 15.7974 15.5241C15.231 16.1825 14.6733 16.8466 14.0666 17.4676C13.897 17.6401 12.3733 19.3708 11.2894 19.9401C11.0996 20.0378 10.9013 20.1212 10.6914 20.1615C10.1624 20.2592 9.6219 20.2448 9.11015 20.1212C9.08715 20.1155 9.06415 20.1097 9.04115 20.104C9.0038 20.0953 8.9664 20.081 8.9319 20.0695C8.3799 19.8883 7.8739 19.575 7.46565 19.1638C7.35065 19.0488 7.2443 18.9252 7.14365 18.793C6.8274 18.3761 6.60315 17.8902 6.4939 17.3785C6.38755 16.8926 6.38465 16.3866 6.4824 15.9007C6.5629 15.5011 6.70955 15.1187 6.91655 14.7708C7.12065 14.4287 7.3794 14.1211 7.6813 13.8595C7.98605 13.5978 8.3339 13.3851 8.70765 13.2356C9.0929 13.0803 9.50115 12.9941 9.91515 12.9768C9.9669 12.974 10.0215 12.974 10.0733 12.974C12.0053 12.974 13.0403 14.4603 14.1701 15.78C14.2075 15.8231 14.2708 15.8231 14.3081 15.78L15.4265 14.469C15.4553 14.4345 15.4553 14.3856 15.4265 14.3511C14.7308 13.5346 14.058 12.6261 13.1553 12.0223C12.2496 11.4157 11.1571 11.0908 10.0675 11.0908C7.10055 11.0908 4.66829 13.4167 4.52167 16.3291C4.51592 16.3377 4.51592 16.3463 4.51592 16.355C4.51592 16.355 4.19104 18.6866 6.47665 20.8083C7.27015 21.5443 8.39715 22.0043 9.59315 22.1021C9.7369 22.1165 9.88065 22.1222 10.0273 22.1222C10.0359 22.1222 10.0416 22.1222 10.0503 22.1222C10.056 22.1222 10.0618 22.1222 10.0675 22.1222H10.0848C10.1336 22.1222 10.1825 22.1165 10.2285 22.1165C11.229 22.082 12.2439 21.7858 13.0661 21.2108C13.6153 20.8256 14.1011 20.3541 14.5496 19.8538C14.5669 19.8653 15.6939 18.5227 16.1999 17.942C16.3896 17.7235 16.5851 17.4992 16.7778 17.2778C16.8525 17.1858 16.933 17.0938 17.0106 17.0076L17.0394 16.976L17.0653 16.9443C17.7668 16.1221 18.4683 15.2998 19.1755 14.4718C19.2043 14.4402 19.2359 14.4028 19.2646 14.3683C19.2934 14.3338 19.3221 14.2993 19.3509 14.2677C19.4458 14.1556 19.5636 14.0348 19.7103 13.9026C19.8626 13.7675 20.0323 13.641 20.2249 13.5231C20.8085 13.1666 21.4755 12.9768 22.1569 12.9768C23.4449 12.9768 24.6179 13.6323 25.2935 14.7277C25.3366 14.791 25.4028 14.8283 25.4775 14.8283H27.0731C27.1508 14.8283 27.2226 14.7881 27.2629 14.7248C27.3031 14.6673 27.3118 14.584 27.2801 14.5207Z"
        fill="white" />
</svg>