<svg width="32" height="32" viewBox="0 0 32 32" fill="none" xmlns="http://www.w3.org/2000/svg">
    <path
        d="M2.44859 11.0295C1.34691 11.213 0.585611 11.9469 0.296466 13.0835C0.186664 13.522 0.179343 14.3498 0.281825 14.7615C0.53437 15.7907 1.1273 16.2471 3.00126 16.8602C3.83209 17.1287 4.23836 17.3882 4.38843 17.7417C4.45065 17.8894 4.45797 18.3906 4.39941 18.574C4.34816 18.7396 4.1615 18.9768 4.00046 19.0797C3.53929 19.3661 2.70113 19.3034 2.25094 18.9454C1.92886 18.6948 1.69827 18.2653 1.69461 17.9207V17.7686L1.30299 17.7954C1.08338 17.8133 0.702734 17.8402 0.453849 17.8536L0 17.8849L0.0256205 18.1847C0.051241 18.5159 0.161043 18.9991 0.274505 19.281C0.732014 20.3997 1.95814 21.0665 3.39655 20.9904C4.35548 20.9367 5.1424 20.5474 5.61089 19.8986C6.1416 19.1602 6.28434 17.7596 5.91833 16.8781C5.63285 16.189 4.87887 15.643 3.66007 15.2493C2.41199 14.8421 2.07526 14.6586 1.95082 14.323C1.86664 14.0992 1.85566 13.6831 1.92886 13.4683C2.00938 13.2311 2.22532 12.9716 2.43761 12.8553C2.60231 12.7613 2.68283 12.7479 3.04884 12.7479C3.43315 12.7479 3.48805 12.7613 3.67837 12.8731C4.00412 13.07 4.22006 13.428 4.27862 13.8845L4.30424 14.0769L4.61901 14.05C4.79103 14.0366 5.1607 14.0097 5.43887 13.9963L5.9403 13.965V13.7547C5.9403 13.4459 5.81219 12.8866 5.66579 12.5689C5.32906 11.826 4.68855 11.298 3.88334 11.0922C3.55027 11.0027 2.78531 10.9714 2.44859 11.0295ZM29.1817 12.5778C29.1817 12.9447 29.1708 13.437 29.1561 13.6741L29.1342 14.1127H28.1569V15.7683H29.1451V17.4553C29.1451 19.2766 29.1634 19.4869 29.3428 19.9209C29.5258 20.3684 29.9906 20.7667 30.4994 20.9188C30.719 20.9859 31.5425 20.9994 31.828 20.9412L32 20.9099V19.2184L31.8646 19.2408C31.7877 19.2542 31.6816 19.2721 31.6267 19.281C31.4656 19.3124 31.1545 19.2229 31.0045 19.102C30.9276 19.0394 30.8288 18.9052 30.7849 18.7978C30.708 18.6232 30.7007 18.5427 30.6897 17.6477C30.6824 17.1197 30.686 16.4798 30.7007 16.2248L30.7263 15.7683H32V14.1127H30.719V11.92H29.1817V12.5778ZM18.2564 14.0232C17.2792 14.1306 16.4959 14.757 16.0824 15.7549C16.0421 15.8578 15.9616 16.1174 15.9067 16.3366C15.8152 16.6991 15.8078 16.7931 15.8078 17.4911C15.8115 18.131 15.8225 18.31 15.8884 18.6009C16.1409 19.7285 16.8436 20.5877 17.7513 20.8741C18.3809 21.071 19.1202 21.0307 19.7022 20.7622C20.0974 20.5832 20.3683 20.3595 20.6501 19.9925C20.888 19.6838 21.0125 19.4198 21.104 19.0528L21.1589 18.8201L20.6611 18.7933C20.3829 18.7799 20.0352 18.753 19.8778 18.7396C19.6143 18.7127 19.5997 18.7172 19.5741 18.8157C19.5594 18.8694 19.4826 18.9991 19.402 19.1065C19.2117 19.3616 18.9811 19.4556 18.5639 19.4556C18.2967 19.4556 18.2198 19.4377 18.0441 19.3347C17.7147 19.1334 17.4988 18.762 17.4476 18.3011L17.4219 18.0952H21.2028V17.518C21.2028 16.2964 20.9685 15.4685 20.4525 14.8465C20.1999 14.5512 19.8998 14.3275 19.5558 14.1843C19.3105 14.0858 19.1824 14.059 18.6773 14.0053C18.6078 14.0008 18.4175 14.0053 18.2564 14.0232ZM19.0433 15.5938C19.3618 15.7683 19.5814 16.1532 19.618 16.6006L19.6399 16.8423H17.4256L17.4512 16.6275C17.5061 16.1621 17.6928 15.8399 18.0258 15.6386C18.2235 15.5177 18.2857 15.4998 18.5639 15.4998C18.8018 15.4998 18.9189 15.5222 19.0433 15.5938ZM24.4676 14.0232C23.838 14.1306 23.3622 14.4169 22.9194 14.9629C22.5314 15.4372 22.3374 15.8802 22.2276 16.529C22.1471 17.0078 22.1288 17.8223 22.1947 18.2563C22.3447 19.3034 22.8279 20.1447 23.5452 20.5966C23.9369 20.8472 24.3102 20.9591 24.8446 20.9904C25.2179 21.0128 25.3387 20.9994 25.6461 20.9143C26.3086 20.7309 26.9052 20.2655 27.2163 19.6927C27.3407 19.4645 27.5311 18.8828 27.4981 18.8425C27.4871 18.8291 27.1431 18.7978 26.7295 18.7709C26.0487 18.7262 25.9755 18.7306 25.9426 18.7933C25.6681 19.3392 25.4631 19.46 24.8629 19.4287C24.5627 19.4153 24.4895 19.3974 24.3431 19.29C24.054 19.0842 23.8637 18.7262 23.8161 18.3011L23.7905 18.0952H27.5823L27.5603 17.3658C27.5274 16.1442 27.3444 15.5267 26.821 14.8868C26.3452 14.3006 25.8328 14.0455 25.0459 14.0008C24.8555 13.9918 24.5957 14.0008 24.4676 14.0232ZM25.324 15.567C25.6754 15.6967 25.9279 16.095 25.9828 16.6051L26.0085 16.8423H24.9031C23.6514 16.8423 23.7539 16.8826 23.86 16.4396C24.0064 15.831 24.3688 15.5088 24.9214 15.5043C25.0422 15.4998 25.2252 15.5312 25.324 15.567ZM6.72721 14.4125C6.77845 14.5825 7.25426 16.095 7.78131 17.782L8.74025 20.8472H9.97735L10.3946 19.5048C11.0315 17.4464 11.0717 17.3256 11.09 17.3524C11.101 17.3658 11.3499 18.1534 11.6463 19.111L12.1844 20.8472L12.8066 20.8606L13.4251 20.8696L14.4573 17.5717C15.0246 15.7549 15.5004 14.2335 15.515 14.1887C15.537 14.1171 15.4894 14.1127 14.6879 14.1216L13.8351 14.135L13.3044 16.0458C13.0116 17.0973 12.7663 17.952 12.7553 17.9431C12.748 17.9297 12.4882 17.0705 12.1807 16.0279L11.6207 14.135H10.5373L9.98467 16.0234C9.68089 17.066 9.42468 17.9252 9.4137 17.9341C9.40638 17.9476 9.1575 17.0973 8.86835 16.0458L8.33764 14.135L7.48851 14.1216L6.63571 14.1127L6.72721 14.4125Z"
        fill="black" />
</svg>