<svg width="32" height="32" viewBox="0 0 32 32" fill="none" xmlns="http://www.w3.org/2000/svg">
    <path
        d="M25.0627 16C25.0627 17.1725 24.1118 18.1233 22.9394 18.1233H20.9446C20.9031 18.1233 20.8679 18.088 20.8679 18.0445V9.11655C20.8679 7.97721 21.7898 7.05541 22.929 7.05541H24.986C25.0275 7.05541 25.0627 7.09063 25.0627 7.13206V15.9979V16ZM18.0963 19.4096C18.0963 20.5821 17.1455 21.5329 15.9731 21.5329H13.9783C13.9347 21.5329 13.8995 21.4997 13.8995 21.4563V12.5283C13.8995 11.391 14.8234 10.4671 15.9606 10.4671H18.0196C18.0611 10.4671 18.0963 10.5003 18.0963 10.5437V19.4096ZM11.0885 22.8234C11.0885 23.9959 10.1377 24.9467 8.96324 24.9467H6.96841C6.92698 24.9467 6.89177 24.9114 6.89177 24.87V15.942C6.89177 14.8027 7.81563 13.8809 8.95498 13.8809H11.0099C11.0533 13.8809 11.0885 13.9161 11.0885 13.9596V22.8255V22.8234ZM16 0C7.16312 0 0 7.16312 0 16C0 24.8369 7.16312 32 16 32C24.8368 32 32 24.8369 32 16C32 7.16312 24.8348 0 16 0Z"
        fill="#F01A80" />
</svg>