<svg width="32" height="32" viewBox="0 0 32 32" fill="none" xmlns="http://www.w3.org/2000/svg">
    <g clip-path="url(#clip0_2192_159)">
        <path
            d="M0 0C10.56 0 21.12 0 32 0C32 10.56 32 21.12 32 32C21.44 32 10.88 32 0 32C0 21.44 0 10.88 0 0Z"
            fill="#3BC492" />
        <path
            d="M13.801 9.14126C14.5509 9.55685 15.1356 10.0228 15.6976 10.6687C15.7698 10.7417 15.8419 10.8147 15.9162 10.89C16.0268 10.89 16.1374 10.89 16.2513 10.89C16.4808 10.6506 16.4808 10.6506 16.712 10.3454C17.4876 9.41136 18.4157 8.79126 19.6355 8.64977C21.5925 8.61251 22.7475 9.14668 24.1937 10.4299C25.041 11.3581 25.0157 12.5897 24.998 13.7839C24.8349 15.9326 23.1059 17.7092 21.6577 19.1491C21.5048 19.3031 21.3518 19.4571 21.1943 19.6157C20.8739 19.9378 20.5524 20.2586 20.2299 20.5786C19.8166 20.989 19.4069 21.4027 18.998 21.8175C18.6055 22.2145 18.21 22.6083 17.8148 23.0025C17.668 23.1515 17.5212 23.3005 17.37 23.454C17.233 23.589 17.0959 23.7239 16.9547 23.863C16.8347 23.9828 16.7148 24.1026 16.5911 24.226C16.2513 24.4606 16.2513 24.4606 15.9122 24.4501C15.5097 24.2592 15.2579 24.0337 14.9419 23.7189C14.8188 23.5974 14.6957 23.4759 14.5689 23.3507C14.4373 23.2181 14.3057 23.0855 14.1702 22.9489C14.033 22.8121 13.8958 22.6754 13.7544 22.5346C13.4637 22.2442 13.1737 21.9532 12.8842 21.6616C12.4456 21.2204 12.0044 20.7818 11.5628 20.3435C11.2799 20.0603 10.9972 19.7769 10.7147 19.4934C10.5193 19.2995 10.5193 19.2995 10.32 19.1018C8.70957 17.471 7.03238 15.5081 6.95288 13.1098C7.01472 11.9177 7.35433 10.9074 8.20943 10.0523C9.96033 8.73497 11.7023 8.15128 13.801 9.14126Z"
            fill="#FCFEFD" />
        <path
            d="M9.0471 9.38232C9.15768 9.43761 9.26825 9.4929 9.38218 9.54986C8.93988 9.99217 8.49757 10.4345 8.04187 10.8902C7.93129 10.8349 7.82071 10.7796 7.70679 10.7226C8.15356 10.2759 8.60033 9.8291 9.0471 9.38232Z"
            fill="#D8F3E9" />
    </g>
    <defs>
        <clipPath id="clip0_2192_159">
            <rect width="32" height="32" fill="white" />
        </clipPath>
    </defs>
</svg>