<svg width="32" height="32" viewBox="0 0 32 32" fill="none" xmlns="http://www.w3.org/2000/svg">
    <rect width="32" height="32" fill="#FAFAFA" />
    <path opacity="0.901" fill-rule="evenodd" clip-rule="evenodd"
        d="M20.0988 0C20.2723 0 20.4457 0 20.6192 0C19.4053 0.386007 18.1694 0.743733 16.9116 1.07317C17.6271 1.09485 18.3426 1.11653 19.0581 1.13821C19.0364 1.15989 19.0147 1.18157 18.9931 1.20325C17.9317 1.41614 16.8693 1.62209 15.8058 1.82114C15.7447 2.37037 15.452 2.73893 14.9277 2.92683C14.8952 5.61509 14.8843 8.30341 14.8952 10.9919C14.2648 12.3607 13.4842 13.6398 12.5535 14.8293C9.21796 14.6284 6.20418 13.566 3.5122 11.6423C3.5122 11.4472 3.5122 11.252 3.5122 11.0569C3.56196 10.9815 3.627 10.9164 3.70733 10.8618C4.66229 11.4693 5.68134 11.9355 6.76448 12.2602C6.89457 12.3035 7.02466 12.3035 7.15475 12.2602C7.22652 12.1509 7.20484 12.0533 7.08971 11.9675C6.45191 11.5357 5.82313 11.0913 5.20338 10.6341C4.8233 10.2719 4.77994 9.87083 5.07329 9.43089C5.78724 10.1553 6.58947 10.7515 7.47998 11.2195C7.61519 11.2721 7.74528 11.2612 7.87025 11.187C7.26234 10.6116 6.66609 10.0263 6.0815 9.43089C6.00915 9.1427 6.08504 8.90419 6.30916 8.71545C7.12579 9.61223 8.12316 10.2301 9.30126 10.5691C10.9356 11.0405 12.6051 11.2898 14.3098 11.3171C14.3314 8.52 14.3098 5.72324 14.2447 2.92683C13.7413 2.78125 13.427 2.45605 13.3016 1.95122C12.6231 2.39335 11.9619 2.85947 11.3177 3.34959C11.2438 3.39833 11.1788 3.38749 11.1225 3.31707C11.2433 3.14213 11.395 3.00122 11.5779 2.89431C11.312 2.96137 11.0518 3.06977 10.7973 3.21951C10.7034 3.27028 10.6167 3.25944 10.5371 3.18699C11.383 2.59035 12.272 2.05919 13.204 1.5935C13.5109 0.540286 14.1831 0.193403 15.2204 0.552846C15.3337 0.658185 15.4529 0.755746 15.5782 0.845528C17.0932 0.572096 18.6001 0.290254 20.0988 0ZM14.3098 0.910569C14.5426 0.873028 14.7378 0.938068 14.8952 1.10569C14.7389 1.10713 14.5655 1.11797 14.3748 1.13821C14.2772 1.19241 14.2013 1.26829 14.1472 1.36585C14.1038 1.30081 14.1038 1.23577 14.1472 1.17073C14.2177 1.09037 14.2719 1.00365 14.3098 0.910569Z"
        fill="#F39827" />
    <path opacity="0.909" fill-rule="evenodd" clip-rule="evenodd"
        d="M11.1876 31.9997C11.0792 31.9997 10.9708 31.9997 10.8624 31.9997C11.0506 31.3632 11.3433 30.7778 11.7405 30.2436C12.4451 26.3086 13.1498 22.3737 13.8545 18.4388C13.7143 18.2445 13.5626 18.0602 13.3991 17.8859C13.4756 17.9002 13.5406 17.8785 13.5943 17.8209C15.9353 15.0027 17.7349 11.8807 18.9931 8.45503C19.3218 8.3215 19.6687 8.22394 20.0338 8.16234C22.2653 7.79376 24.4335 8.01054 26.5384 8.81275C27.4673 9.19955 28.1069 9.86082 28.4572 10.7965C28.5289 11.018 28.4746 11.1914 28.2946 11.3168C28.0254 11.145 27.8411 10.9066 27.7417 10.6014C27.6306 10.4685 27.5005 10.3601 27.3514 10.2762C27.4012 10.5724 27.5096 10.8542 27.6767 11.1217C27.7597 11.3556 27.7814 11.5941 27.7417 11.8371C27.6463 11.9558 27.5271 11.9884 27.3839 11.9347C27.1966 11.6578 27.034 11.3651 26.8961 11.0567C26.8094 10.97 26.7226 10.8832 26.6359 10.7965C26.6034 10.829 26.5709 10.8615 26.5384 10.8941C26.7764 11.3359 26.8631 11.802 26.7985 12.2924C26.7375 12.3609 26.6616 12.4043 26.5709 12.4225C26.2909 11.991 25.9114 11.6766 25.4326 11.4794C24.9494 11.299 24.4507 11.1906 23.9365 11.1542C22.2509 11.0014 20.6465 11.2832 19.1232 11.9997C18.3289 12.5121 17.6893 13.1733 17.2043 13.9835C17.1478 14.1188 17.1153 14.2597 17.1067 14.4062C17.2742 15.7281 16.9815 16.9314 16.2286 18.016C16.0378 18.2842 15.7884 18.4576 15.4806 18.5363C15.4723 21.6046 15.4289 24.6723 15.3505 27.7396C15.3722 28.5092 15.3939 29.2789 15.4155 30.0485C15.9503 30.377 16.4381 30.7672 16.8791 31.2193C16.9109 31.3034 16.9218 31.3901 16.9116 31.4794C16.1565 31.3354 15.4518 31.0535 14.7976 30.6339C14.869 26.6675 14.9449 22.7 15.0253 18.7315C14.786 18.7169 14.5475 18.6952 14.3098 18.6664C13.6806 22.3541 13.0301 26.0397 12.3584 29.7233C12.3888 29.8955 12.4647 30.0473 12.5861 30.1786C12.6294 30.3087 12.6294 30.4388 12.5861 30.5688C12.1472 31.0835 11.681 31.5605 11.1876 31.9997Z"
        fill="#F39826" />
    <path fill-rule="evenodd" clip-rule="evenodd"
        d="M18.9931 8.45508C17.7349 11.8808 15.9353 15.0027 13.5943 17.8209C13.5406 17.8786 13.4756 17.9002 13.3991 17.886C13.248 17.6308 13.0963 17.3707 12.9438 17.1055C13.0902 16.9921 13.2311 16.862 13.3666 16.7152C15.2397 14.3149 16.7466 11.6915 17.8873 8.84532C18.2341 8.66145 18.6027 8.53137 18.9931 8.45508Z"
        fill="#E31315" />
    <path opacity="0.999" fill-rule="evenodd" clip-rule="evenodd"
        d="M17.8873 8.8457C16.7466 11.6919 15.2397 14.3152 13.3666 16.7156C13.2311 16.8624 13.0902 16.9924 12.9438 17.1059C12.8161 16.7683 12.7293 16.4214 12.6836 16.0652C13.5536 14.9991 14.345 13.8717 15.0578 12.6831C15.6405 11.6694 16.1718 10.6288 16.6514 9.56115C17.0314 9.27341 17.4434 9.03491 17.8873 8.8457Z"
        fill="#FCFAFA" />
    <path opacity="0.99" fill-rule="evenodd" clip-rule="evenodd"
        d="M16.6514 9.56055C16.1718 10.6282 15.6405 11.6688 15.0578 12.6825C14.345 13.8711 13.5536 14.9985 12.6836 16.0646C12.5699 15.6696 12.5265 15.2577 12.5535 14.8288C13.4842 13.6394 14.2648 12.3603 14.8952 10.9914C15.4211 10.4441 16.0066 9.96712 16.6514 9.56055Z"
        fill="#1254A0" />
</svg>