<svg width="32" height="32" viewBox="0 0 32 32" fill="none" xmlns="http://www.w3.org/2000/svg">
<mask id="mask0_6065_6888" style="mask-type:luminance" maskUnits="userSpaceOnUse" x="4" y="1" width="24" height="30">
<path d="M27.6596 1.16364H4.36363V30.9411H27.6596V1.16364Z" fill="white"/>
</mask>
<g mask="url(#mask0_6065_6888)">
<path d="M4.36363 21.0444L9.96654 20.5207C10.3118 22.4019 10.9993 23.7867 12.0291 24.6749C13.0589 25.5631 14.4572 26.0024 16.224 25.9927C18.0829 25.9927 19.4851 25.5942 20.4364 24.8145C21.3876 24.0349 21.8444 23.104 21.8444 22.0625C21.8643 21.43 21.658 20.8111 21.2625 20.3171C20.864 19.8516 20.1745 19.4444 19.1884 19.0953C18.5076 18.8364 16.9687 18.4233 14.5716 17.8124C11.4676 17.0531 9.30909 16.1018 8.06109 14.9818C7.22624 14.2649 6.5579 13.3744 6.10269 12.3725C5.64747 11.3706 5.41634 10.2815 5.42545 9.18109C5.41701 7.71991 5.84997 6.29027 6.66763 5.07927C7.53757 3.76375 8.78632 2.74327 10.2487 2.15273C11.8022 1.504 13.6727 1.16364 15.8865 1.16364C19.4725 1.16364 22.175 1.95588 23.9942 3.54036C25.8095 5.14909 26.7578 7.25818 26.848 9.90545L21.0473 10.1004C20.7913 8.64582 20.2764 7.58982 19.456 6.93818C18.6356 6.28654 17.4196 5.96654 15.8167 5.96654C14.1411 5.96654 12.8262 6.30982 11.8836 7.01382C11.5954 7.20756 11.3603 7.4704 11.1997 7.77833C11.0392 8.08625 10.9582 8.4295 10.9644 8.77673C10.9629 9.11418 11.0396 9.44739 11.1885 9.75022C11.3374 10.0531 11.5544 10.3173 11.8225 10.5222C12.544 11.1505 14.3185 11.7876 17.1258 12.4422C19.9331 13.0967 22.0102 13.8036 23.3513 14.5193C24.6533 15.1924 25.7467 16.2083 26.5135 17.4575C27.2669 18.6705 27.6596 20.224 27.6596 22.048C27.6599 23.6912 27.1829 25.2991 26.2865 26.6764C25.3583 28.117 24.0067 29.2349 22.4175 29.8764C20.7476 30.56 18.6705 30.9265 16.1833 30.9265C12.5605 30.9265 9.77745 30.08 7.83418 28.3869C5.88509 26.7084 4.74181 24.2589 4.36363 21.0444Z" fill="#4A5158"/>
</g>
</svg>
