<svg width="32" height="32" viewBox="0 0 32 32" fill="none" xmlns="http://www.w3.org/2000/svg">
<path fill-rule="evenodd" clip-rule="evenodd" d="M11.0491 4.40754C15.7388 4.36747 20.408 4.40772 25.0566 4.5283C25.0566 4.56855 25.0566 4.60881 25.0566 4.64905C24.9438 4.77797 24.9035 4.93899 24.9359 5.13207C24.793 5.01077 24.632 4.91015 24.4528 4.83019C19.9046 4.76981 15.3561 4.74969 10.8075 4.76981C10.8881 4.64905 10.9686 4.5283 11.0491 4.40754Z" fill="#AFAFAF"/>
<path fill-rule="evenodd" clip-rule="evenodd" d="M18.1736 6.21886C14.5107 6.21886 10.8478 6.21886 7.18491 6.21886C5.65481 6.19874 4.12526 6.21887 2.59623 6.27924C2.39577 6.45889 2.27502 6.68027 2.23396 6.94339C2.13341 12.035 2.07303 17.1469 2.05283 22.2792C1.69057 22.6415 1.3283 23.0038 0.966037 23.366C0.905661 17.2077 0.885535 11.0492 0.90566 4.89056C7.06428 4.87043 13.2228 4.89056 19.3811 4.95094C18.954 5.35777 18.5514 5.78041 18.1736 6.21886Z" fill="#FDFDFD"/>
<path fill-rule="evenodd" clip-rule="evenodd" d="M11.0491 4.40755C10.9685 4.5283 10.8881 4.64906 10.8075 4.76981C7.46666 4.76981 4.12579 4.76981 0.784906 4.76981C0.784906 8.1107 0.784906 11.4516 0.784906 14.7925C0.664151 14.873 0.543396 14.9534 0.422642 15.034C0.422642 11.4918 0.422642 7.94968 0.422642 4.40755C3.96478 4.40755 7.50692 4.40755 11.0491 4.40755Z" fill="#D5D5D5"/>
<path fill-rule="evenodd" clip-rule="evenodd" d="M25.0566 4.64906C25.0759 4.84867 25.1563 5.00967 25.2981 5.13208C25.2981 5.37359 25.2981 5.6151 25.2981 5.85661C25.2891 6.1834 25.2488 6.5054 25.1774 6.82265C25.0164 6.82265 24.8553 6.82265 24.6943 6.82265C24.6943 6.70189 24.6943 6.58114 24.6943 6.46038C24.6943 6.37988 24.6943 6.29938 24.6943 6.21887C24.834 5.88406 24.9146 5.52179 24.9358 5.13208C24.9035 4.939 24.9438 4.77798 25.0566 4.64906Z" fill="#5F6264"/>
<path fill-rule="evenodd" clip-rule="evenodd" d="M30.6113 10.566C30.2644 10.5295 29.9425 10.449 29.6453 10.3245C28.3182 8.79501 26.8691 7.3057 25.2981 5.85661C25.2981 5.6151 25.2981 5.37359 25.2981 5.13208C27.1658 6.81721 29.0175 8.60842 30.8528 10.5057C30.7811 10.5617 30.7006 10.5819 30.6113 10.566Z" fill="#EAEAEA"/>
<path fill-rule="evenodd" clip-rule="evenodd" d="M7.18491 6.21887C10.8478 6.21887 14.5107 6.21887 18.1736 6.21887C20.3472 6.21887 22.5208 6.21887 24.6943 6.21887C24.6943 6.29938 24.6943 6.37987 24.6943 6.46038C24.2113 6.46038 23.7283 6.46038 23.2453 6.46038C21.3534 6.46038 19.4617 6.46038 17.5698 6.46038C17.5296 6.46038 17.4893 6.46038 17.4491 6.46038C15.517 6.46038 13.5849 6.46038 11.6528 6.46038C11.6126 6.46038 11.5723 6.46038 11.5321 6.46038C10.0428 6.46038 8.55346 6.46038 7.06415 6.46038C7.1044 6.37987 7.14466 6.29938 7.18491 6.21887Z" fill="#B5B5B5"/>
<path fill-rule="evenodd" clip-rule="evenodd" d="M25.2981 5.8566C26.8691 7.30569 28.3182 8.79499 29.6453 10.3245C29.201 10.2974 28.7582 10.2572 28.317 10.2038C27.5316 10.0187 26.7265 9.85771 25.9019 9.72075C25.5714 9.73267 25.2493 9.69241 24.9359 9.59999C24.9629 9.15576 25.0032 8.71299 25.0566 8.27169C25.0742 7.78637 25.1144 7.30335 25.1774 6.82264C25.2488 6.50539 25.2891 6.18338 25.2981 5.8566Z" fill="#FAFBFB"/>
<path fill-rule="evenodd" clip-rule="evenodd" d="M7.18491 6.21886C7.14466 6.29937 7.1044 6.37986 7.06415 6.46037C6.62138 6.46037 6.17862 6.46037 5.73585 6.46037C5.73585 6.58113 5.73585 6.70188 5.73585 6.82263C5.69647 7.85108 5.73673 8.85736 5.8566 9.8415C7.70817 9.8415 9.55975 9.8415 11.4113 9.8415C11.5312 8.85736 11.5715 7.85108 11.5321 6.82263C11.5321 6.70188 11.5321 6.58113 11.5321 6.46037C11.5723 6.46037 11.6126 6.46037 11.6528 6.46037C11.6528 6.58113 11.6528 6.70188 11.6528 6.82263C11.6135 7.85108 11.6537 8.85736 11.7736 9.8415C13.6251 9.8415 15.4768 9.8415 17.3283 9.8415C17.4482 8.85736 17.4884 7.85108 17.4491 6.82263C17.4491 6.70188 17.4491 6.58113 17.4491 6.46037C17.4893 6.46037 17.5296 6.46037 17.5698 6.46037C17.5698 6.54088 17.5698 6.62137 17.5698 6.70188C17.5698 7.1849 17.5698 7.66792 17.5698 8.15094C17.5698 8.55345 17.5698 8.95597 17.5698 9.35848C17.5375 9.55157 17.5778 9.71258 17.6906 9.8415C19.5421 9.8415 21.3938 9.8415 23.2453 9.8415C23.2453 9.72075 23.2453 9.59999 23.2453 9.47924C23.2453 9.43899 23.2453 9.39873 23.2453 9.35848C23.2453 9.07673 23.2453 8.79496 23.2453 8.5132C23.2453 8.31194 23.2453 8.11069 23.2453 7.90943C23.2453 7.74842 23.2453 7.58741 23.2453 7.42641C23.2453 7.22515 23.2453 7.0239 23.2453 6.82263C23.2453 6.78239 23.2453 6.74213 23.2453 6.70188C23.2453 6.62137 23.2453 6.54088 23.2453 6.46037C23.7283 6.46037 24.2113 6.46037 24.6943 6.46037C24.6943 6.58113 24.6943 6.70188 24.6943 6.82263C24.6541 6.82263 24.6138 6.82263 24.5736 6.82263C24.2113 6.82263 23.8491 6.82263 23.4868 6.82263C23.4868 7.30565 23.4868 7.78867 23.4868 8.27169C23.4868 8.63396 23.4868 8.99622 23.4868 9.35848C23.4868 9.39873 23.4868 9.43899 23.4868 9.47924C23.4868 9.59999 23.4868 9.72075 23.4868 9.8415C23.6075 9.8415 23.7283 9.8415 23.8491 9.8415C23.8491 9.92201 23.8491 10.0025 23.8491 10.083C23.7283 10.083 23.6075 10.083 23.4868 10.083C23.4868 11.2906 23.4868 12.4981 23.4868 13.7057C25.3787 13.7057 27.2704 13.7057 29.1623 13.7057C29.1623 13.7862 29.1623 13.8666 29.1623 13.9472C27.2704 13.9472 25.3787 13.9472 23.4868 13.9472C23.4868 15.2353 23.4868 16.5232 23.4868 17.8113C25.3787 17.8113 27.2704 17.8113 29.1623 17.8113C29.2021 20.2876 29.1619 22.7429 29.0415 25.1774C29.0415 24.0503 29.0415 22.9232 29.0415 21.7962C27.19 21.7962 25.3383 21.7962 23.4868 21.7962C23.4868 23.0038 23.4868 24.2113 23.4868 25.4189C23.4063 25.4189 23.3258 25.4189 23.2453 25.4189C23.2453 24.2515 23.2453 23.0843 23.2453 21.917C22.6013 21.917 21.9572 21.917 21.3132 21.917C21.3654 21.7709 21.4459 21.6501 21.5547 21.5547C22.1183 21.5547 22.6817 21.5547 23.2453 21.5547C23.2453 20.3874 23.2453 19.2202 23.2453 18.0528C23.0289 18.0366 22.8277 18.0769 22.6415 18.1736C22.6415 17.8919 22.6415 17.61 22.6415 17.3283C22.7543 17.4573 22.7946 17.6182 22.7623 17.8113C22.9232 17.8113 23.0843 17.8113 23.2453 17.8113C23.2453 16.5232 23.2453 15.2353 23.2453 13.9472C22.698 13.9088 22.1747 13.949 21.6755 14.0679C21.5057 14.0108 21.4251 13.89 21.434 13.7057C22.0377 13.7057 22.6415 13.7057 23.2453 13.7057C23.2453 12.4981 23.2453 11.2906 23.2453 10.083C21.3938 10.083 19.5421 10.083 17.6906 10.083C17.6621 10.4584 17.7023 10.8206 17.8113 11.1698C17.5459 11.1245 17.3044 11.044 17.0868 10.9283C17.3095 10.7135 17.3899 10.4317 17.3283 10.083C15.4768 10.083 13.6251 10.083 11.7736 10.083C11.7348 10.7503 11.775 11.3943 11.8943 12.0151C11.7813 12.1931 11.6203 12.3138 11.4113 12.3774C11.4113 11.6126 11.4113 10.8478 11.4113 10.083C9.55975 10.083 7.70817 10.083 5.8566 10.083C5.8566 11.2906 5.8566 12.4981 5.8566 13.7057C7.30566 13.7057 8.75472 13.7057 10.2038 13.7057C10.1516 13.8516 10.0711 13.9724 9.96227 14.0679C8.61532 13.9478 7.24677 13.9076 5.8566 13.9472C5.8566 15.2353 5.8566 16.5232 5.8566 17.8113C6.86289 17.8113 7.86919 17.8113 8.87547 17.8113C8.84112 17.5801 8.88138 17.3789 8.99623 17.2075C8.99623 17.5698 8.99623 17.9321 8.99623 18.2943C7.98197 18.0619 6.93543 17.9813 5.8566 18.0528C5.8566 19.2202 5.8566 20.3874 5.8566 21.5547C7.24677 21.5943 8.61532 21.5541 9.96227 21.434C10.0816 21.5903 10.2024 21.7513 10.3245 21.917C8.83523 21.917 7.34591 21.917 5.8566 21.917C5.8566 23.0843 5.8566 24.2515 5.8566 25.4189C5.7761 25.4189 5.6956 25.4189 5.6151 25.4189C5.6151 24.2113 5.6151 23.0038 5.6151 21.7962C4.56855 21.7962 3.52202 21.7962 2.47547 21.7962C2.47547 21.756 2.47547 21.7157 2.47547 21.6755C3.52202 21.6755 4.56855 21.6755 5.6151 21.6755C5.6151 20.4679 5.6151 19.2604 5.6151 18.0528C4.56855 18.0528 3.52202 18.0528 2.47547 18.0528C2.47547 17.9723 2.47547 17.8919 2.47547 17.8113C3.52202 17.8113 4.56855 17.8113 5.6151 17.8113C5.6151 16.5232 5.6151 15.2353 5.6151 13.9472C4.56855 13.9472 3.52202 13.9472 2.47547 13.9472C2.47547 13.8666 2.47547 13.7862 2.47547 13.7057C3.52202 13.7057 4.56855 13.7057 5.6151 13.7057C5.6151 12.4981 5.6151 11.2906 5.6151 10.083C4.56855 10.083 3.52202 10.083 2.47547 10.083C2.47547 10.405 2.47547 10.727 2.47547 11.049C2.39497 11.0893 2.31447 11.1296 2.23396 11.1698C2.23396 9.761 2.23396 8.3522 2.23396 6.94339C2.27502 6.68026 2.39577 6.45889 2.59623 6.27924C4.12526 6.21887 5.65481 6.19874 7.18491 6.21886Z" fill="#D2D3D3"/>
<path fill-rule="evenodd" clip-rule="evenodd" d="M5.61509 6.70188C4.60881 6.70188 3.60251 6.70188 2.59623 6.70188C2.64664 6.61475 2.72715 6.55437 2.83774 6.52075C3.30062 6.50062 3.76353 6.4805 4.22641 6.46037C4.73709 6.4616 5.19998 6.5421 5.61509 6.70188Z" fill="#B7E5FA"/>
<path fill-rule="evenodd" clip-rule="evenodd" d="M7.06415 6.46037C8.55345 6.46037 10.0428 6.46037 11.5321 6.46037C11.5321 6.58113 11.5321 6.70188 11.5321 6.82264C11.4918 6.82264 11.4516 6.82264 11.4113 6.82264C9.55975 6.82264 7.70817 6.82264 5.8566 6.82264C5.81635 6.82264 5.7761 6.82264 5.73585 6.82264C5.73585 6.70188 5.73585 6.58113 5.73585 6.46037C6.17862 6.46037 6.62138 6.46037 7.06415 6.46037Z" fill="#AADCFA"/>
<path fill-rule="evenodd" clip-rule="evenodd" d="M11.6528 6.46037C13.5849 6.46037 15.517 6.46037 17.4491 6.46037C17.4491 6.58113 17.4491 6.70188 17.4491 6.82264C17.4088 6.82264 17.3685 6.82264 17.3283 6.82264C15.4768 6.82264 13.6251 6.82264 11.7736 6.82264C11.7333 6.82264 11.6931 6.82264 11.6528 6.82264C11.6528 6.70188 11.6528 6.58113 11.6528 6.46037Z" fill="#A9DCFA"/>
<path fill-rule="evenodd" clip-rule="evenodd" d="M17.5698 6.46037C19.4617 6.46037 21.3534 6.46037 23.2453 6.46037C23.2453 6.54088 23.2453 6.62138 23.2453 6.70188C21.3534 6.70188 19.4617 6.70188 17.5698 6.70188C17.5698 6.62138 17.5698 6.54088 17.5698 6.46037Z" fill="#B5E3F8"/>
<path fill-rule="evenodd" clip-rule="evenodd" d="M23.2453 6.82265C23.2453 7.02391 23.2453 7.22516 23.2453 7.42642C21.3938 7.42642 19.5421 7.42642 17.6906 7.42642C17.6906 7.22516 17.6906 7.02391 17.6906 6.82265C19.5421 6.82265 21.3938 6.82265 23.2453 6.82265Z" fill="#379BFF"/>
<path fill-rule="evenodd" clip-rule="evenodd" d="M17.6906 7.42642C19.5421 7.42642 21.3938 7.42642 23.2453 7.42642C23.2453 7.58742 23.2453 7.74844 23.2453 7.90944C21.3938 7.90944 19.5421 7.90944 17.6906 7.90944C17.6906 7.74844 17.6906 7.58742 17.6906 7.42642Z" fill="#41A8FF"/>
<path fill-rule="evenodd" clip-rule="evenodd" d="M24.5736 6.82265C24.6138 6.82265 24.6541 6.82265 24.6943 6.82265C24.8553 6.82265 25.0164 6.82265 25.1774 6.82265C25.1144 7.30336 25.0742 7.78638 25.0566 8.2717C24.9694 8.32212 24.909 8.40263 24.8755 8.51321C24.5544 8.32481 24.4135 8.04305 24.4528 7.66793C24.5124 7.38952 24.5526 7.10775 24.5736 6.82265Z" fill="#265D8C"/>
<path fill-rule="evenodd" clip-rule="evenodd" d="M17.5698 6.70189C19.4617 6.70189 21.3534 6.70189 23.2453 6.70189C23.2453 6.74214 23.2453 6.7824 23.2453 6.82264C21.3937 6.82264 19.5421 6.82264 17.6906 6.82264C17.6906 7.02391 17.6906 7.22516 17.6906 7.42642C17.6906 7.58742 17.6906 7.74843 17.6906 7.90944C19.5421 7.90944 21.3937 7.90944 23.2453 7.90944C23.2453 8.1107 23.2453 8.31195 23.2453 8.51321C21.3937 8.51321 19.5421 8.51321 17.6906 8.51321C17.7192 8.35732 17.679 8.23656 17.5698 8.15095C17.5698 7.66793 17.5698 7.18491 17.5698 6.70189Z" fill="#55B5FE"/>
<path fill-rule="evenodd" clip-rule="evenodd" d="M24.5736 6.82265C24.5526 7.10775 24.5124 7.38952 24.4528 7.66793C24.3371 7.88558 24.2566 8.12709 24.2113 8.39246C23.9844 8.29086 23.7429 8.25061 23.4868 8.2717C23.4868 7.78868 23.4868 7.30567 23.4868 6.82265C23.8491 6.82265 24.2113 6.82265 24.5736 6.82265Z" fill="#42A7FD"/>
<path fill-rule="evenodd" clip-rule="evenodd" d="M2.59623 6.70189C3.60251 6.70189 4.60881 6.70189 5.6151 6.70189C5.6151 7.18491 5.6151 7.66793 5.6151 8.15095C5.50025 8.32226 5.45999 8.52351 5.49434 8.75472C4.5283 8.75472 3.56226 8.75472 2.59623 8.75472C2.63058 8.52351 2.59032 8.32226 2.47547 8.15095C2.43743 7.68346 2.47769 7.24068 2.59623 6.82264C2.59623 6.7824 2.59623 6.74214 2.59623 6.70189Z" fill="#57B7FD"/>
<path fill-rule="evenodd" clip-rule="evenodd" d="M2.59623 6.82265C3.56226 6.82265 4.5283 6.82265 5.49434 6.82265C5.49434 7.18491 5.49434 7.54718 5.49434 7.90944C4.5283 7.90944 3.56226 7.90944 2.59623 7.90944C2.59623 7.54718 2.59623 7.18491 2.59623 6.82265Z" fill="#3EA3FF"/>
<path fill-rule="evenodd" clip-rule="evenodd" d="M24.4528 7.66792C24.4135 8.04305 24.5544 8.3248 24.8755 8.51321C24.909 8.40262 24.9694 8.32211 25.0566 8.2717C25.0032 8.71299 24.9629 9.15577 24.9359 9.6C24.4649 9.48771 23.9819 9.44745 23.4868 9.47924C23.4868 9.439 23.4868 9.39874 23.4868 9.35849C23.6881 9.35849 23.8893 9.35849 24.0906 9.35849C24.1621 9.04124 24.2023 8.71924 24.2113 8.39245C24.2566 8.12708 24.3371 7.88557 24.4528 7.66792Z" fill="#3C7EAC"/>
<path fill-rule="evenodd" clip-rule="evenodd" d="M5.73585 6.82265C5.7761 6.82265 5.81636 6.82265 5.8566 6.82265C5.8566 7.02391 5.8566 7.22516 5.8566 7.42642C5.8566 7.66793 5.8566 7.90944 5.8566 8.15095C5.8566 8.35221 5.8566 8.55346 5.8566 8.75472C7.70817 8.75472 9.55975 8.75472 11.4113 8.75472C11.4113 8.55346 11.4113 8.35221 11.4113 8.15095C11.4113 7.90944 11.4113 7.66793 11.4113 7.42642C11.4113 7.22516 11.4113 7.02391 11.4113 6.82265C11.4516 6.82265 11.4918 6.82265 11.5321 6.82265C11.5715 7.85109 11.5312 8.85738 11.4113 9.84152C11.4113 9.72076 11.4113 9.60001 11.4113 9.47925C9.55975 9.47925 7.70817 9.47925 5.8566 9.47925C5.8566 9.60001 5.8566 9.72076 5.8566 9.84152C5.73673 8.85738 5.69647 7.85109 5.73585 6.82265Z" fill="#5DBFFC"/>
<path fill-rule="evenodd" clip-rule="evenodd" d="M5.85661 8.15094C7.70817 8.15094 9.55975 8.15094 11.4113 8.15094C11.4113 8.3522 11.4113 8.55345 11.4113 8.75471C9.55975 8.75471 7.70817 8.75471 5.85661 8.75471C5.85661 8.55345 5.85661 8.3522 5.85661 8.15094Z" fill="#50B9FF"/>
<path fill-rule="evenodd" clip-rule="evenodd" d="M5.85661 7.42642C7.70817 7.42642 9.55975 7.42642 11.4113 7.42642C11.4113 7.66793 11.4113 7.90944 11.4113 8.15095C9.55975 8.15095 7.70817 8.15095 5.85661 8.15095C5.85661 7.90944 5.85661 7.66793 5.85661 7.42642Z" fill="#45ACFF"/>
<path fill-rule="evenodd" clip-rule="evenodd" d="M5.85661 6.82265C7.70817 6.82265 9.55975 6.82265 11.4113 6.82265C11.4113 7.02391 11.4113 7.22516 11.4113 7.42642C9.55975 7.42642 7.70817 7.42642 5.85661 7.42642C5.85661 7.22516 5.85661 7.02391 5.85661 6.82265Z" fill="#379BFF"/>
<path fill-rule="evenodd" clip-rule="evenodd" d="M11.6528 6.82265C11.6931 6.82265 11.7333 6.82265 11.7736 6.82265C11.7736 7.02391 11.7736 7.22516 11.7736 7.42642C11.7736 7.66793 11.7736 7.90944 11.7736 8.15095C11.7736 8.35221 11.7736 8.55346 11.7736 8.75472C13.6251 8.75472 15.4768 8.75472 17.3283 8.75472C17.3283 8.55346 17.3283 8.35221 17.3283 8.15095C17.3283 7.90944 17.3283 7.66793 17.3283 7.42642C17.3283 7.22516 17.3283 7.02391 17.3283 6.82265C17.3685 6.82265 17.4088 6.82265 17.4491 6.82265C17.4884 7.85109 17.4482 8.85738 17.3283 9.84152C17.3283 9.72076 17.3283 9.60001 17.3283 9.47925C15.4768 9.47925 13.6251 9.47925 11.7736 9.47925C11.7736 9.60001 11.7736 9.72076 11.7736 9.84152C11.6537 8.85738 11.6135 7.85109 11.6528 6.82265Z" fill="#5DBFFC"/>
<path fill-rule="evenodd" clip-rule="evenodd" d="M11.7736 8.15094C13.6251 8.15094 15.4768 8.15094 17.3283 8.15094C17.3283 8.3522 17.3283 8.55345 17.3283 8.75471C15.4768 8.75471 13.6251 8.75471 11.7736 8.75471C11.7736 8.55345 11.7736 8.3522 11.7736 8.15094Z" fill="#50B9FF"/>
<path fill-rule="evenodd" clip-rule="evenodd" d="M11.7736 7.42642C13.6251 7.42642 15.4768 7.42642 17.3283 7.42642C17.3283 7.66793 17.3283 7.90944 17.3283 8.15095C15.4768 8.15095 13.6251 8.15095 11.7736 8.15095C11.7736 7.90944 11.7736 7.66793 11.7736 7.42642Z" fill="#45ACFF"/>
<path fill-rule="evenodd" clip-rule="evenodd" d="M11.7736 6.82265C13.6251 6.82265 15.4768 6.82265 17.3283 6.82265C17.3283 7.02391 17.3283 7.22516 17.3283 7.42642C15.4768 7.42642 13.6251 7.42642 11.7736 7.42642C11.7736 7.22516 11.7736 7.02391 11.7736 6.82265Z" fill="#379BFF"/>
<path fill-rule="evenodd" clip-rule="evenodd" d="M17.5698 8.15094C17.679 8.23656 17.7192 8.35731 17.6906 8.5132C19.5421 8.5132 21.3937 8.5132 23.2453 8.5132C23.2453 8.79496 23.2453 9.07673 23.2453 9.35849C21.3534 9.35849 19.4617 9.35849 17.5698 9.35849C17.5698 8.95598 17.5698 8.55345 17.5698 8.15094Z" fill="#59C4FE"/>
<path fill-rule="evenodd" clip-rule="evenodd" d="M23.4868 8.27169C23.7429 8.2506 23.9844 8.29084 24.2113 8.39245C24.2023 8.71923 24.1621 9.04124 24.0906 9.35848C23.8893 9.35848 23.6881 9.35848 23.4868 9.35848C23.4868 8.99622 23.4868 8.63396 23.4868 8.27169Z" fill="#57BFFA"/>
<path fill-rule="evenodd" clip-rule="evenodd" d="M2.47547 8.15094C2.59032 8.32225 2.63058 8.5235 2.59623 8.75471C3.56226 8.75471 4.5283 8.75471 5.49434 8.75471C5.45998 8.5235 5.50024 8.32225 5.61509 8.15094C5.61509 8.55345 5.61509 8.95598 5.61509 9.35849C4.56855 9.35849 3.52202 9.35849 2.47547 9.35849C2.47547 8.95598 2.47547 8.55345 2.47547 8.15094Z" fill="#61C6FC"/>
<path fill-rule="evenodd" clip-rule="evenodd" d="M2.47547 9.35849C3.52202 9.35849 4.56855 9.35849 5.6151 9.35849C5.64743 9.55158 5.60719 9.71259 5.49434 9.84151C5.49434 9.72075 5.49434 9.6 5.49434 9.47924C4.5283 9.47924 3.56227 9.47924 2.59623 9.47924C2.59623 9.6 2.59623 9.72075 2.59623 9.84151C2.48338 9.71259 2.44314 9.55158 2.47547 9.35849Z" fill="#3994FB"/>
<path fill-rule="evenodd" clip-rule="evenodd" d="M17.5698 9.35849C19.4617 9.35849 21.3534 9.35849 23.2453 9.35849C23.2453 9.39874 23.2453 9.439 23.2453 9.47924C21.3938 9.47924 19.5421 9.47924 17.6906 9.47924C17.6906 9.6 17.6906 9.72075 17.6906 9.84151C17.5778 9.71259 17.5375 9.55158 17.5698 9.35849Z" fill="#3697FE"/>
<path fill-rule="evenodd" clip-rule="evenodd" d="M5.49434 9.84151C4.5283 9.84151 3.56226 9.84151 2.59623 9.84151C2.59623 9.72076 2.59623 9.6 2.59623 9.47925C3.56226 9.47925 4.5283 9.47925 5.49434 9.47925C5.49434 9.6 5.49434 9.72076 5.49434 9.84151Z" fill="#0460FF"/>
<path fill-rule="evenodd" clip-rule="evenodd" d="M11.4113 9.84151C9.55975 9.84151 7.70817 9.84151 5.85661 9.84151C5.85661 9.72076 5.85661 9.6 5.85661 9.47925C7.70817 9.47925 9.55975 9.47925 11.4113 9.47925C11.4113 9.6 11.4113 9.72076 11.4113 9.84151Z" fill="#0460FF"/>
<path fill-rule="evenodd" clip-rule="evenodd" d="M17.3283 9.84151C15.4768 9.84151 13.6251 9.84151 11.7736 9.84151C11.7736 9.72076 11.7736 9.6 11.7736 9.47925C13.6251 9.47925 15.4768 9.47925 17.3283 9.47925C17.3283 9.6 17.3283 9.72076 17.3283 9.84151Z" fill="#0460FF"/>
<path fill-rule="evenodd" clip-rule="evenodd" d="M23.2453 9.47925C23.2453 9.6 23.2453 9.72076 23.2453 9.84151C21.3938 9.84151 19.5421 9.84151 17.6906 9.84151C17.6906 9.72076 17.6906 9.6 17.6906 9.47925C19.5421 9.47925 21.3938 9.47925 23.2453 9.47925Z" fill="#0460FF"/>
<path fill-rule="evenodd" clip-rule="evenodd" d="M23.4868 9.47924C23.9819 9.44745 24.4649 9.48771 24.9359 9.6C25.2493 9.69241 25.5714 9.73267 25.9019 9.72075C25.2408 9.84017 24.5564 9.88041 23.8491 9.84151C23.7283 9.84151 23.6075 9.84151 23.4868 9.84151C23.4868 9.72075 23.4868 9.6 23.4868 9.47924Z" fill="#0348BF"/>
<path fill-rule="evenodd" clip-rule="evenodd" d="M2.47547 13.7057C2.47547 12.8202 2.47547 11.9346 2.47547 11.0491C2.47547 10.727 2.47547 10.405 2.47547 10.083C3.52202 10.083 4.56855 10.083 5.61509 10.083C5.61509 11.2906 5.61509 12.4981 5.61509 13.7057C4.56855 13.7057 3.52202 13.7057 2.47547 13.7057Z" fill="#FDFDFD"/>
<path fill-rule="evenodd" clip-rule="evenodd" d="M11.4113 12.3774C11.0054 12.8233 10.6029 13.266 10.2038 13.7057C8.75472 13.7057 7.30566 13.7057 5.85661 13.7057C5.85661 12.4981 5.85661 11.2906 5.85661 10.083C7.70817 10.083 9.55975 10.083 11.4113 10.083C11.4113 10.8478 11.4113 11.6126 11.4113 12.3774Z" fill="#FEFEFE"/>
<path fill-rule="evenodd" clip-rule="evenodd" d="M17.0868 10.9283C15.22 10.6605 13.4893 11.0228 11.8943 12.0151C11.775 11.3944 11.7348 10.7503 11.7736 10.083C13.6251 10.083 15.4768 10.083 17.3283 10.083C17.3899 10.4317 17.3095 10.7135 17.0868 10.9283Z" fill="#FDFDFD"/>
<path fill-rule="evenodd" clip-rule="evenodd" d="M21.434 13.7057C20.4941 12.4851 19.2866 11.6398 17.8113 11.1698C17.7023 10.8207 17.6621 10.4584 17.6906 10.083C19.5421 10.083 21.3938 10.083 23.2453 10.083C23.2453 11.2906 23.2453 12.4981 23.2453 13.7057C22.6415 13.7057 22.0377 13.7057 21.434 13.7057Z" fill="#FEFEFE"/>
<path fill-rule="evenodd" clip-rule="evenodd" d="M23.9698 10.083C24.6954 10.0629 25.42 10.0831 26.1434 10.1434C26.5011 10.6327 26.9841 10.8138 27.5925 10.6868C26.571 10.8876 25.5244 10.948 24.4528 10.8679C24.1602 10.6783 23.9993 10.4166 23.9698 10.083Z" fill="#B0B0B0"/>
<path fill-rule="evenodd" clip-rule="evenodd" d="M23.8491 10.083C23.8893 10.083 23.9296 10.083 23.9698 10.083C23.9993 10.4166 24.1602 10.6783 24.4528 10.8679C25.5244 10.948 26.571 10.8876 27.5925 10.6868C28.1157 10.6868 28.639 10.6868 29.1623 10.6868C29.1623 11.6931 29.1623 12.6994 29.1623 13.7057C27.2704 13.7057 25.3787 13.7057 23.4868 13.7057C23.4868 12.4981 23.4868 11.2906 23.4868 10.083C23.6075 10.083 23.7283 10.083 23.8491 10.083Z" fill="#FCFCFC"/>
<path fill-rule="evenodd" clip-rule="evenodd" d="M17.0868 10.9283C17.3044 11.044 17.5459 11.1245 17.8113 11.1698C19.2866 11.6398 20.4941 12.4851 21.434 13.7057C21.4251 13.89 21.5057 14.0108 21.6755 14.0679C22.2771 15.0645 22.5991 16.1513 22.6415 17.3283C22.6415 17.61 22.6415 17.8919 22.6415 18.1736C22.5396 19.387 22.1773 20.5142 21.5547 21.5547C21.4459 21.6501 21.3654 21.7709 21.3132 21.917C19.3676 24.1957 16.9122 25.021 13.9472 24.3924C13.1719 24.1456 12.4474 23.8034 11.7736 23.366C11.7333 23.2453 11.6528 23.1647 11.5321 23.1245C11.086 22.759 10.6835 22.3565 10.3245 21.917C10.2024 21.7513 10.0816 21.5903 9.96226 21.434C9.42118 20.4548 9.09916 19.4082 8.99623 18.2943C8.99623 17.9321 8.99623 17.5698 8.99623 17.2075C9.02997 16.0733 9.35198 15.0267 9.96226 14.0679C10.0711 13.9725 10.1516 13.8516 10.2038 13.7057C10.6029 13.266 11.0054 12.8233 11.4113 12.3774C11.6203 12.3138 11.7813 12.1931 11.8943 12.0151C13.4893 11.0228 15.22 10.6605 17.0868 10.9283Z" fill="#716963"/>
<path fill-rule="evenodd" clip-rule="evenodd" d="M28.317 10.2038C28.7582 10.2572 29.201 10.2974 29.6453 10.3245C29.9425 10.449 30.2644 10.5295 30.6113 10.566C30.7741 10.6989 30.9552 10.8197 31.1547 10.9283C31.1949 11.0893 31.2353 11.2503 31.2755 11.4113C31.3359 16.8048 31.356 22.1986 31.3359 27.5924C26.9485 27.5924 22.561 27.5924 18.1736 27.5924C16.9872 27.4922 15.7796 27.4318 14.5509 27.4113C14.5912 27.3711 14.6315 27.3308 14.6717 27.2906C17.0059 27.2302 19.3406 27.21 21.6755 27.2302C21.6621 27.3047 21.6219 27.3651 21.5547 27.4113C24.7746 27.4717 27.9947 27.4919 31.2151 27.4717C31.2353 24.2513 31.2151 21.0312 31.1547 17.8113C31.0692 17.9177 30.9685 17.9981 30.8528 18.0528C30.8888 15.6336 30.8485 13.2185 30.7321 10.8075C30.2992 10.6768 29.8565 10.5963 29.4038 10.566C29.0393 10.5859 28.6771 10.5658 28.317 10.5057C28.0342 10.3376 28.0342 10.2369 28.317 10.2038Z" fill="#7B7B7A"/>
<path fill-rule="evenodd" clip-rule="evenodd" d="M14.5509 11.2906C18.4522 10.9754 21.0082 12.666 22.2189 16.3623C22.6271 20.3776 20.9164 22.9738 17.0868 24.1509C13.5865 24.5648 11.111 23.1761 9.66038 19.9849C8.74323 16.8598 9.56839 14.3038 12.1358 12.317C12.9078 11.8661 13.7129 11.524 14.5509 11.2906Z" fill="#F9F9F9"/>
<path fill-rule="evenodd" clip-rule="evenodd" d="M25.0566 4.52831C27.1455 6.55677 29.2184 8.6096 31.2755 10.6868C31.3365 10.9305 31.3968 11.172 31.4566 11.4113C31.4967 16.8255 31.4565 22.2192 31.3358 27.5925C31.356 22.1986 31.3358 16.8048 31.2755 11.4113C31.2353 11.2503 31.1949 11.0893 31.1547 10.9283C30.9552 10.8197 30.7741 10.6989 30.6113 10.566C30.7006 10.5819 30.7811 10.5617 30.8528 10.5057C29.0175 8.60841 27.1658 6.81721 25.2981 5.13208C25.1563 5.00967 25.0759 4.84867 25.0566 4.64906C25.0566 4.60881 25.0566 4.56855 25.0566 4.52831Z" fill="#C9C9C9"/>
<path fill-rule="evenodd" clip-rule="evenodd" d="M14.4302 11.8943C16.3411 11.6131 18.0519 12.0558 19.5623 13.2226C19.3483 13.4366 19.1068 13.6781 18.8377 13.9472C18.7486 14.4013 18.7888 14.8441 18.9585 15.2755C19.6865 16.1133 19.928 17.0793 19.683 18.1736C19.361 19.2202 19.039 20.2666 18.717 21.3132C18.0474 19.1637 17.343 17.0303 16.6038 14.9132C16.8855 14.9132 17.1673 14.9132 17.4491 14.9132C17.4491 14.7925 17.4491 14.6717 17.4491 14.5509C16.2817 14.5509 15.1145 14.5509 13.9472 14.5509C13.9472 14.6717 13.9472 14.7925 13.9472 14.9132C14.2239 14.8823 14.4856 14.9225 14.7321 15.034C15.0221 15.8436 15.324 16.6487 15.6377 17.4491C15.1789 18.7252 14.7562 20.0132 14.3698 21.3132C13.6041 19.1971 12.8996 17.0637 12.2566 14.9132C12.5014 14.9328 12.7429 14.9126 12.9811 14.8528C13.0363 14.8028 13.0766 14.7425 13.1019 14.6717C12.3774 14.5912 11.6528 14.5107 10.9283 14.4302C11.8207 13.1997 12.988 12.3544 14.4302 11.8943Z" fill="#675F58"/>
<path fill-rule="evenodd" clip-rule="evenodd" d="M2.47547 13.9472C3.52202 13.9472 4.56855 13.9472 5.61509 13.9472C5.61509 15.2353 5.61509 16.5232 5.61509 17.8113C4.56855 17.8113 3.52202 17.8113 2.47547 17.8113C2.47547 16.5232 2.47547 15.2353 2.47547 13.9472Z" fill="#FDFDFD"/>
<path fill-rule="evenodd" clip-rule="evenodd" d="M9.96227 14.0679C9.35198 15.0267 9.02997 16.0733 8.99623 17.2076C8.88138 17.3789 8.84112 17.5801 8.87547 17.8113C7.86919 17.8113 6.86289 17.8113 5.85661 17.8113C5.85661 16.5232 5.85661 15.2353 5.85661 13.9472C7.24677 13.9076 8.61532 13.9478 9.96227 14.0679Z" fill="#FEFEFE"/>
<path fill-rule="evenodd" clip-rule="evenodd" d="M22.6415 17.3283C22.5991 16.1513 22.2771 15.0645 21.6755 14.0679C22.1747 13.949 22.698 13.9088 23.2453 13.9472C23.2453 15.2353 23.2453 16.5232 23.2453 17.8113C23.0843 17.8113 22.9232 17.8113 22.7623 17.8113C22.7946 17.6182 22.7543 17.4573 22.6415 17.3283Z" fill="#FDFCFC"/>
<path fill-rule="evenodd" clip-rule="evenodd" d="M29.1623 13.9472C29.1623 15.2353 29.1623 16.5232 29.1623 17.8113C27.2704 17.8113 25.3787 17.8113 23.4868 17.8113C23.4868 16.5232 23.4868 15.2353 23.4868 13.9472C25.3787 13.9472 27.2704 13.9472 29.1623 13.9472Z" fill="#FDFDFD"/>
<path fill-rule="evenodd" clip-rule="evenodd" d="M25.9019 9.72075C26.7265 9.85771 27.5316 10.0187 28.317 10.2038C28.0342 10.237 28.0342 10.3376 28.317 10.5057C28.6771 10.5658 29.0393 10.5859 29.4038 10.566C29.4239 15.4769 29.4038 20.3876 29.3434 25.2981C29.2924 25.5307 29.1515 25.6514 28.9208 25.6604C20.8704 25.6805 12.82 25.6604 4.76981 25.6C8.97638 25.5797 13.1625 25.5193 17.3283 25.4189C19.3006 25.4189 21.273 25.4189 23.2453 25.4189C23.3258 25.4189 23.4062 25.4189 23.4868 25.4189C25.2986 25.439 27.1099 25.4189 28.9208 25.3585C28.9879 25.3122 29.0281 25.2519 29.0415 25.1774C29.1619 22.7429 29.2021 20.2876 29.1623 17.8113C29.1623 16.5232 29.1623 15.2353 29.1623 13.9472C29.1623 13.8666 29.1623 13.7862 29.1623 13.7057C29.1623 12.6994 29.1623 11.6931 29.1623 10.6868C28.639 10.6868 28.1157 10.6868 27.5925 10.6868C26.9841 10.8138 26.5011 10.6327 26.1434 10.1434C25.42 10.0831 24.6954 10.0629 23.9698 10.083C23.9296 10.083 23.8893 10.083 23.8491 10.083C23.8491 10.0025 23.8491 9.92201 23.8491 9.8415C24.5564 9.88041 25.2408 9.84016 25.9019 9.72075Z" fill="#8E8E8E"/>
<path fill-rule="evenodd" clip-rule="evenodd" d="M20.9509 14.9132C22.0162 17.1079 21.8754 19.2413 20.5283 21.3132C20.0388 21.8635 19.4954 22.3465 18.8981 22.7623C18.8579 22.7221 18.8176 22.6817 18.7774 22.6415C19.4296 20.705 20.0937 18.7729 20.7698 16.8453C20.9233 16.2108 20.9837 15.5669 20.9509 14.9132Z" fill="#6A625B"/>
<path fill-rule="evenodd" clip-rule="evenodd" d="M10.3245 15.3962C11.3547 17.8387 12.3207 20.3344 13.2226 22.883C13.1824 22.9232 13.1421 22.9636 13.1019 23.0038C10.2449 21.1967 9.31911 18.6608 10.3245 15.3962Z" fill="#69615A"/>
<path fill-rule="evenodd" clip-rule="evenodd" d="M2.47547 18.0528C3.52202 18.0528 4.56855 18.0528 5.61509 18.0528C5.61509 19.2604 5.61509 20.4679 5.61509 21.6755C4.56855 21.6755 3.52202 21.6755 2.47547 21.6755C2.47547 20.4679 2.47547 19.2604 2.47547 18.0528Z" fill="#FCFCFC"/>
<path fill-rule="evenodd" clip-rule="evenodd" d="M8.99623 18.2943C9.09916 19.4082 9.42118 20.4548 9.96227 21.434C8.61532 21.5541 7.24677 21.5943 5.85661 21.5547C5.85661 20.3874 5.85661 19.2202 5.85661 18.0528C6.93543 17.9813 7.98197 18.0619 8.99623 18.2943Z" fill="#FEFEFE"/>
<path fill-rule="evenodd" clip-rule="evenodd" d="M21.5547 21.5547C22.1773 20.5142 22.5396 19.387 22.6415 18.1736C22.8277 18.0769 23.0289 18.0366 23.2453 18.0528C23.2453 19.2202 23.2453 20.3874 23.2453 21.5547C22.6817 21.5547 22.1183 21.5547 21.5547 21.5547Z" fill="#FCFCFC"/>
<path fill-rule="evenodd" clip-rule="evenodd" d="M23.6075 18.0528C25.4189 18.0528 27.2302 18.0528 29.0415 18.0528C29.0415 19.2202 29.0415 20.3874 29.0415 21.5547C27.2302 21.5547 25.4189 21.5547 23.6075 21.5547C23.6075 20.3874 23.6075 19.2202 23.6075 18.0528Z" fill="#FEFFFE"/>
<path fill-rule="evenodd" clip-rule="evenodd" d="M15.8792 18.2943C16.6144 19.9282 17.2182 21.6187 17.6906 23.366C16.5328 23.6364 15.3656 23.6766 14.1887 23.4868C14.6553 21.7246 15.2188 19.9938 15.8792 18.2943Z" fill="#686059"/>
<path fill-rule="evenodd" clip-rule="evenodd" d="M2.47547 11.0491C2.47547 11.9346 2.47547 12.8202 2.47547 13.7057C2.47547 13.7862 2.47547 13.8666 2.47547 13.9472C2.47547 15.2353 2.47547 16.5232 2.47547 17.8113C2.47547 17.8919 2.47547 17.9723 2.47547 18.0528C2.47547 19.2604 2.47547 20.4679 2.47547 21.6755C2.47547 21.7157 2.47547 21.756 2.47547 21.7962C2.45537 22.924 2.4755 24.0511 2.53585 25.1774C2.59623 25.2377 2.6566 25.2981 2.71698 25.3585C3.68219 25.4189 4.64822 25.4389 5.61509 25.4189C5.6956 25.4189 5.7761 25.4189 5.8566 25.4189C7.74843 25.4189 9.64025 25.4189 11.5321 25.4189C11.5321 24.6541 11.5321 23.8893 11.5321 23.1245C11.6528 23.1647 11.7333 23.2453 11.7736 23.366C11.6542 24.0272 11.6139 24.7115 11.6528 25.4189C13.5447 25.4189 15.4364 25.4189 17.3283 25.4189C13.1625 25.5193 8.97639 25.5797 4.76981 25.6C12.82 25.6604 20.8704 25.6805 28.9208 25.6604C25.7214 25.7809 22.5013 25.8211 19.2604 25.7811C13.6552 25.8403 8.06022 25.7799 2.47547 25.6C2.3999 25.5094 2.33953 25.4087 2.29434 25.2981C2.23396 20.5888 2.21383 15.8794 2.23396 11.1698C2.31447 11.1296 2.39496 11.0893 2.47547 11.0491Z" fill="#B8B8B8"/>
<path fill-rule="evenodd" clip-rule="evenodd" d="M2.47547 21.7962C3.52202 21.7962 4.56855 21.7962 5.6151 21.7962C5.6151 23.0038 5.6151 24.2113 5.6151 25.4189C4.64822 25.4389 3.68219 25.4189 2.71698 25.3585C2.6566 25.2981 2.59623 25.2377 2.53585 25.1774C2.4755 24.0511 2.45537 22.924 2.47547 21.7962Z" fill="#FDFDFD"/>
<path fill-rule="evenodd" clip-rule="evenodd" d="M10.3245 21.917C10.6835 22.3565 11.086 22.759 11.5321 23.1245C11.5321 23.8893 11.5321 24.6541 11.5321 25.4189C9.64025 25.4189 7.74843 25.4189 5.85661 25.4189C5.85661 24.2515 5.85661 23.0843 5.85661 21.917C7.34591 21.917 8.83523 21.917 10.3245 21.917Z" fill="#FEFEFE"/>
<path fill-rule="evenodd" clip-rule="evenodd" d="M21.3132 21.917C21.9572 21.917 22.6013 21.917 23.2453 21.917C23.2453 23.0843 23.2453 24.2515 23.2453 25.4189C21.273 25.4189 19.3006 25.4189 17.3283 25.4189C15.4364 25.4189 13.5447 25.4189 11.6528 25.4189C11.6139 24.7115 11.6542 24.0272 11.7736 23.366C12.4474 23.8034 13.1719 24.1456 13.9472 24.3924C16.9122 25.021 19.3676 24.1957 21.3132 21.917Z" fill="#FDFDFD"/>
<path fill-rule="evenodd" clip-rule="evenodd" d="M29.0415 25.1774C29.0281 25.2519 28.9879 25.3122 28.9208 25.3585C27.1099 25.4189 25.2986 25.439 23.4868 25.4189C23.4868 24.2113 23.4868 23.0038 23.4868 21.7962C25.3383 21.7962 27.19 21.7962 29.0415 21.7962C29.0415 22.9232 29.0415 24.0504 29.0415 25.1774Z" fill="#FDFDFD"/>
<path fill-rule="evenodd" clip-rule="evenodd" d="M10.8075 4.76982C15.3561 4.74969 19.9046 4.76982 24.4528 4.83019C24.632 4.91016 24.793 5.01078 24.9358 5.13208C24.9146 5.52179 24.8341 5.88406 24.6943 6.21887C22.5208 6.21887 20.3472 6.21887 18.1736 6.21887C18.5514 5.78043 18.954 5.35778 19.3811 4.95095C13.2228 4.89057 7.06428 4.87044 0.905659 4.89057C0.885534 11.0492 0.90566 17.2077 0.966037 23.366C1.3283 23.0038 1.69056 22.6415 2.05283 22.2793C2.07303 17.1469 2.13341 12.035 2.23396 6.9434C2.23396 8.35221 2.23396 9.76101 2.23396 11.1698C2.21383 15.8794 2.23396 20.5888 2.29434 25.2981C2.33952 25.4087 2.3999 25.5094 2.47547 25.6C8.06022 25.7799 13.6552 25.8403 19.2604 25.7811C18.8579 26.2239 18.4553 26.6666 18.0528 27.1094C16.1208 27.1094 14.1887 27.1094 12.2566 27.1094C8.4327 27.1094 4.60881 27.1094 0.784904 27.1094C0.784904 23.0038 0.784904 18.8981 0.784904 14.7925C0.784904 11.4516 0.784904 8.1107 0.784904 4.76982C4.12579 4.76982 7.46666 4.76982 10.8075 4.76982Z" fill="#F2F2F2"/>
<path fill-rule="evenodd" clip-rule="evenodd" d="M0.784906 14.7924C0.784906 18.8981 0.784906 23.0038 0.784906 27.1094C4.60881 27.1094 8.4327 27.1094 12.2566 27.1094C9.01673 27.2099 5.75635 27.2703 2.47547 27.2906C2.09652 27.4408 1.694 27.5213 1.26792 27.5321C6.903 27.5925 12.5382 27.6126 18.1736 27.5925C22.561 27.5925 26.9485 27.5925 31.3358 27.5925C21.2932 27.7333 11.2303 27.7533 1.14717 27.6528C0.93591 27.4936 0.6944 27.4332 0.422642 27.4717C0.422642 23.3258 0.422642 19.1798 0.422642 15.034C0.543396 14.9534 0.664151 14.873 0.784906 14.7924Z" fill="#B5B5B5"/>
<path fill-rule="evenodd" clip-rule="evenodd" d="M21.6755 27.2302C24.7553 27.2702 27.8145 27.23 30.8528 27.1094C30.8528 24.0906 30.8528 21.0717 30.8528 18.0528C30.9685 17.9981 31.0692 17.9177 31.1547 17.8113C31.2151 21.0312 31.2353 24.2513 31.2151 27.4717C27.9947 27.4919 24.7746 27.4717 21.5547 27.4113C21.6219 27.3651 21.6621 27.3047 21.6755 27.2302Z" fill="#606060"/>
<path fill-rule="evenodd" clip-rule="evenodd" d="M29.4038 10.566C29.8565 10.5963 30.2992 10.6768 30.7321 10.8075C30.8485 13.2185 30.8888 15.6336 30.8528 18.0528C30.8528 21.0717 30.8528 24.0906 30.8528 27.1094C26.5862 27.1094 22.3195 27.1094 18.0528 27.1094C18.4553 26.6666 18.8579 26.2239 19.2604 25.7811C22.5013 25.8211 25.7214 25.7809 28.9208 25.6604C29.1515 25.6514 29.2924 25.5307 29.3434 25.2981C29.4038 20.3876 29.4239 15.4769 29.4038 10.566Z" fill="#E2E2E2"/>
<path fill-rule="evenodd" clip-rule="evenodd" d="M12.2566 27.1094C14.1887 27.1094 16.1208 27.1094 18.0528 27.1094C22.3195 27.1094 26.5862 27.1094 30.8528 27.1094C27.8145 27.2299 24.7553 27.2702 21.6755 27.2302C19.3406 27.21 17.0059 27.2302 14.6717 27.2906C14.6315 27.3308 14.5912 27.3711 14.5509 27.4113C15.7796 27.4319 16.9872 27.4922 18.1736 27.5925C12.5382 27.6126 6.903 27.5925 1.26793 27.5321C1.694 27.5213 2.09652 27.4408 2.47547 27.2906C5.75635 27.2703 9.01673 27.2099 12.2566 27.1094Z" fill="#8E8E8D"/>
<path fill-rule="evenodd" clip-rule="evenodd" d="M31.4566 11.4113C31.4968 11.4113 31.5371 11.4113 31.5774 11.4113C31.5774 16.8453 31.5774 22.2792 31.5774 27.7132C31.4968 27.7132 31.4566 27.7534 31.4566 27.834C21.3132 27.834 11.1698 27.834 1.02642 27.834C0.85575 27.6607 0.654492 27.5399 0.422642 27.4717C0.6944 27.4332 0.93591 27.4936 1.14717 27.6528C11.2303 27.7533 21.2932 27.7332 31.3358 27.5924C31.4565 22.2192 31.4967 16.8255 31.4566 11.4113Z" fill="#F5F5F5"/>
</svg>
