<svg width="32" height="32" viewBox="0 0 32 32" fill="none" xmlns="http://www.w3.org/2000/svg">
    <g clip-path="url(#clip0_4920_466)">
        <path fill-rule="evenodd" clip-rule="evenodd"
            d="M-0.0078125 -0.0078125C10.6589 -0.0078125 21.3255 -0.0078125 31.9922 -0.0078125C31.9922 10.6589 31.9922 21.3255 31.9922 31.9922C21.3255 31.9922 10.6589 31.9922 -0.0078125 31.9922C-0.0078125 21.3255 -0.0078125 10.6589 -0.0078125 -0.0078125Z"
            fill="#FEFEFE" />
        <path fill-rule="evenodd" clip-rule="evenodd"
            d="M9.06356 5.87988C9.06889 5.87988 9.07424 5.87988 9.07956 5.87988C10.8022 5.87988 12.5249 5.87988 14.2476 5.87988C14.2476 7.28255 14.2476 8.68521 14.2476 10.0879C14.2476 10.1039 14.2476 10.1199 14.2476 10.1359C15.6349 10.1306 17.0215 10.136 18.4076 10.1519C18.4119 10.1775 18.4064 10.1988 18.3916 10.2159C18.3816 10.2177 18.3736 10.223 18.3676 10.2319C18.3648 11.4272 18.3568 12.6219 18.3436 13.8159C17.0012 13.8134 15.6571 13.8161 14.3116 13.8239C14.2946 13.8429 14.2732 13.8509 14.2476 13.8479C14.229 16.0556 14.2263 18.2636 14.2396 20.4719C14.2449 20.5306 14.2502 20.5892 14.2556 20.6479C14.2723 20.6736 14.2963 20.6842 14.3276 20.6799C14.3276 20.7919 14.3276 20.9039 14.3276 21.0159C14.3596 21.0212 14.3916 21.0266 14.4236 21.0319C14.4209 21.096 14.4236 21.16 14.4316 21.2239C14.4576 21.2295 14.4869 21.2295 14.5196 21.2239C14.5249 21.2239 14.5302 21.2239 14.5356 21.2239C14.5329 21.2722 14.5356 21.3202 14.5436 21.3679C14.5678 21.4029 14.5998 21.4295 14.6396 21.4479C14.6475 21.474 14.6501 21.5007 14.6476 21.5279C14.715 21.5232 14.7497 21.5552 14.7516 21.6239C14.7969 21.6724 14.8476 21.7098 14.9036 21.7359C14.9694 21.7879 15.0334 21.8439 15.0956 21.9039C15.1593 21.9116 15.2127 21.9383 15.2556 21.9839C15.3239 22.0074 15.3879 22.0394 15.4476 22.0799C15.4976 22.0933 15.5456 22.1066 15.5916 22.1199C15.6311 22.1381 15.6471 22.1701 15.6396 22.2159C15.7992 22.2276 15.9592 22.2356 16.1196 22.2399C16.1589 22.25 16.1856 22.274 16.1996 22.3119C16.2208 22.3172 16.2423 22.3226 16.2636 22.3279C16.4052 22.3279 16.5492 22.3252 16.6956 22.3199C16.6903 22.3146 16.6848 22.3092 16.6796 22.3039C16.6922 22.2864 16.7029 22.2679 16.7116 22.2479C16.8527 22.2372 16.9914 22.2266 17.1276 22.2159C17.1706 22.2184 17.2132 22.2159 17.2556 22.2079C17.2744 22.1663 17.3064 22.1397 17.3516 22.1279C17.4208 22.1226 17.4903 22.1172 17.5596 22.1119C17.6023 22.0799 17.6448 22.0479 17.6876 22.0159C17.7463 22.0106 17.8048 22.0052 17.8636 21.9999C17.9048 21.9826 17.9316 21.9533 17.9436 21.9119C17.9813 21.9144 18.0186 21.9119 18.0556 21.9039C18.1162 21.841 18.1908 21.809 18.2796 21.8079C18.3063 21.7812 18.3328 21.7546 18.3596 21.7279C18.3994 21.7128 18.4314 21.7208 18.4556 21.7519C18.4602 21.8439 18.4602 21.9344 18.4556 22.0239C18.4823 22.0221 18.5117 22.0274 18.5436 22.0399C18.5516 22.1818 18.5623 22.3205 18.5756 22.4559C18.5796 22.425 18.5876 22.3956 18.5996 22.3679C18.5772 22.3464 18.5824 22.333 18.6156 22.3279C18.634 22.333 18.6472 22.3436 18.6556 22.3599C18.6533 22.4933 18.6853 22.6159 18.7516 22.7279C18.7596 22.8023 18.7623 22.877 18.7596 22.9519C18.7911 22.948 18.8204 22.9533 18.8476 22.9679C18.8636 23.0426 18.8796 23.1172 18.8956 23.1919C18.9069 23.206 18.9202 23.2167 18.9356 23.2239C18.9748 23.3412 19.0173 23.4586 19.0636 23.5759C19.0608 23.656 19.0636 23.736 19.0716 23.8159C19.0957 23.84 19.1223 23.8613 19.1516 23.8799C19.1543 23.9922 19.1623 24.1042 19.1756 24.2159C19.185 24.2125 19.193 24.2072 19.1996 24.1999C19.2173 24.2245 19.2413 24.2351 19.2716 24.2319C19.2688 24.3068 19.2716 24.3815 19.2796 24.4559C19.312 24.4936 19.344 24.5309 19.3756 24.5679C19.3783 24.6325 19.3863 24.6965 19.3996 24.7599C19.4119 24.7962 19.4332 24.8255 19.4636 24.8479C19.4722 24.8959 19.4828 24.9412 19.4956 24.9839C19.5493 25.0207 19.5573 25.0687 19.5196 25.1279C19.4952 25.1384 19.4765 25.1544 19.4636 25.1759C19.4048 25.1631 19.3621 25.1816 19.3356 25.2319C19.2333 25.3069 19.1213 25.3604 18.9996 25.3919C18.9258 25.4519 18.8405 25.4784 18.7436 25.4719C18.7168 25.4986 18.6903 25.5252 18.6636 25.5519C18.5352 25.5404 18.4285 25.5804 18.3436 25.6719C18.2629 25.6666 18.1829 25.672 18.1036 25.6879C18.0751 25.7103 18.0485 25.7343 18.0236 25.7599C17.9008 25.7652 17.7783 25.7706 17.6556 25.7759C17.6128 25.8026 17.5703 25.8292 17.5276 25.8559C17.2818 25.8879 17.0365 25.9199 16.7916 25.9519C16.7768 25.9564 16.7663 25.9644 16.7596 25.9759C16.1783 25.9786 15.5969 25.9759 15.0156 25.9679C15.0009 25.9634 14.9903 25.9554 14.9836 25.9439C14.9745 25.9194 14.9638 25.8954 14.9516 25.8719C14.6956 25.8666 14.4396 25.8612 14.1836 25.8559C14.1476 25.8461 14.1209 25.8248 14.1036 25.7919C14.0024 25.7839 13.901 25.7812 13.7996 25.7839C13.7601 25.7708 13.7174 25.7628 13.6716 25.7599C13.6364 25.7351 13.6017 25.7111 13.5676 25.6879C13.4746 25.6764 13.3813 25.6684 13.2876 25.6639C13.2658 25.6386 13.2551 25.6092 13.2556 25.5759C13.1494 25.5645 13.0428 25.5565 12.9356 25.5519C12.9138 25.5266 12.9031 25.4972 12.9036 25.4639C12.8176 25.4656 12.7323 25.4602 12.6476 25.4479C12.6476 25.4212 12.6476 25.3946 12.6476 25.3679C12.5721 25.3677 12.4975 25.3597 12.4236 25.3439C12.4091 25.3167 12.4037 25.2874 12.4076 25.2559C12.3216 25.2576 12.2363 25.2522 12.1516 25.2399C12.1516 25.2186 12.1516 25.1972 12.1516 25.1759C12.1038 25.1679 12.0558 25.1599 12.0076 25.1519C11.9715 25.142 11.9448 25.1205 11.9276 25.0879C11.8437 25.0876 11.7691 25.0636 11.7036 25.0159C11.5998 24.9364 11.4931 24.8591 11.3836 24.7839C11.3252 24.7816 11.2879 24.7522 11.2716 24.6959C11.2352 24.68 11.1979 24.6668 11.1596 24.6559C11.124 24.5936 11.0734 24.5484 11.0076 24.5199C10.9998 24.5047 10.9972 24.4887 10.9996 24.4719C10.9724 24.4744 10.9457 24.4717 10.9196 24.4639C10.904 24.4402 10.8827 24.4269 10.8556 24.4239C10.8107 24.3762 10.7681 24.3256 10.7276 24.2719C10.6498 24.2368 10.5938 24.1808 10.5596 24.1039C10.5029 24.0792 10.4709 24.0365 10.4636 23.9759C10.4075 23.938 10.3515 23.9007 10.2956 23.8639C10.2849 23.8586 10.2742 23.8532 10.2636 23.8479C10.1972 23.7495 10.1332 23.6482 10.0716 23.5439C10.0411 23.5197 10.0145 23.4932 9.99156 23.4639C9.95403 23.3892 9.9167 23.3144 9.87956 23.2399C9.88195 23.2231 9.87929 23.2071 9.87156 23.1919C9.81617 23.1612 9.7895 23.1132 9.79156 23.0479C9.75489 23.0272 9.72289 23.0005 9.69556 22.9679C9.70699 22.8628 9.66964 22.7828 9.58356 22.7279C9.59105 22.6389 9.5564 22.5749 9.47956 22.5359C9.47956 22.5252 9.47956 22.5146 9.47956 22.5039C9.47945 22.4632 9.47411 22.4232 9.46356 22.3839C9.43494 22.3444 9.40561 22.3044 9.37556 22.2639C9.37848 22.1554 9.34915 22.0567 9.28756 21.9679C9.2766 21.9231 9.2686 21.8778 9.26356 21.8319C9.25744 21.8229 9.24944 21.8176 9.23956 21.8159C9.22459 21.7244 9.20593 21.6336 9.18356 21.5439C9.17824 21.4212 9.17289 21.2986 9.16756 21.1759C9.15156 21.1599 9.13556 21.1439 9.11956 21.1279C9.08276 20.8741 9.06944 20.6181 9.07956 20.3599C9.08224 18.1999 9.07956 16.0399 9.07156 13.8799C9.02668 13.8297 8.97068 13.8004 8.90356 13.7919C8.21558 13.7839 7.52758 13.7812 6.83956 13.7839C6.82195 13.8671 6.8006 13.8671 6.77556 13.7839C6.75992 13.7915 6.74659 13.8022 6.73556 13.8159C6.72756 12.5892 6.72489 11.3626 6.72756 10.1359C6.73824 10.1359 6.74889 10.1359 6.75956 10.1359C7.51953 10.1545 8.2822 10.1572 9.04756 10.1439C9.05556 10.1359 9.06356 10.1279 9.07156 10.1199C9.08488 8.74119 9.08222 7.36519 9.06356 5.99188C9.04889 5.95729 9.04889 5.91996 9.06356 5.87988Z"
            fill="#0C646E" />
        <path fill-rule="evenodd" clip-rule="evenodd"
            d="M8.95241 5.87988C8.94729 7.27217 8.95262 8.66417 8.96841 10.0559C8.96308 10.0559 8.95774 10.0559 8.95241 10.0559C8.93123 8.66155 8.93123 7.26955 8.95241 5.87988Z"
            fill="#CADCDE" />
        <path fill-rule="evenodd" clip-rule="evenodd"
            d="M14.2637 5.86426C14.2744 5.86426 14.285 5.86426 14.2957 5.86426C14.2957 7.26159 14.2957 8.65893 14.2957 10.0563C14.2904 10.0563 14.285 10.0563 14.2797 10.0563C14.2637 8.66162 14.2584 7.26429 14.2637 5.86426Z"
            fill="#92B9BD" />
        <path fill-rule="evenodd" clip-rule="evenodd"
            d="M8.95191 5.86426C8.95191 5.86959 8.95191 5.87493 8.95191 5.88026C8.93073 7.26992 8.93073 8.66192 8.95191 10.0563C8.93766 10.066 8.92166 10.0713 8.90391 10.0723C8.17324 10.0723 7.44259 10.0723 6.71191 10.0723C7.44519 10.0563 8.18119 10.0509 8.91991 10.0563C8.90412 8.65922 8.89879 7.26187 8.90391 5.86426C8.91991 5.86426 8.93591 5.86426 8.95191 5.86426Z"
            fill="#E0EBEC" />
        <path fill-rule="evenodd" clip-rule="evenodd"
            d="M8.95208 5.86426C8.96275 5.86426 8.9734 5.86426 8.98408 5.86426C8.9894 7.26429 8.98406 8.66162 8.96808 10.0563C8.95228 8.66455 8.94696 7.27255 8.95208 5.88026C8.95208 5.87493 8.95208 5.86959 8.95208 5.86426Z"
            fill="#ADCACE" />
        <path fill-rule="evenodd" clip-rule="evenodd"
            d="M8.98354 5.86426C8.99421 5.86426 9.00487 5.86426 9.01554 5.86426C9.00224 7.26581 8.99424 8.66847 8.99154 10.0723C8.96559 10.0818 8.94159 10.0925 8.91954 10.1043C8.18887 10.1043 7.45821 10.1043 6.72754 10.1043C7.45287 10.0936 8.17821 10.0829 8.90354 10.0723C8.92128 10.0713 8.93728 10.066 8.95154 10.0563C8.95687 10.0563 8.96221 10.0563 8.96754 10.0563C8.98352 8.66162 8.98887 7.26429 8.98354 5.86426Z"
            fill="#86B2B7" />
        <path fill-rule="evenodd" clip-rule="evenodd"
            d="M9.01592 5.86426C9.03725 5.86426 9.05859 5.86426 9.07992 5.86426C9.07992 5.86959 9.07992 5.87493 9.07992 5.88026C9.07459 5.88026 9.06925 5.88026 9.06392 5.88026C9.03463 7.27216 9.02128 8.66951 9.02392 10.0723C8.9953 10.0999 8.96063 10.1106 8.91992 10.1043C8.94197 10.0925 8.96597 10.0818 8.99192 10.0723C8.99463 8.66847 9.00263 7.26581 9.01592 5.86426Z"
            fill="#59959D" />
        <path fill-rule="evenodd" clip-rule="evenodd"
            d="M9.06354 5.87988C9.04887 5.91996 9.04887 5.95729 9.06354 5.99188C9.07146 7.35852 9.06346 8.72387 9.03954 10.0879C9.01568 10.1119 8.98636 10.1253 8.95154 10.1279C8.2209 10.1359 7.49023 10.1386 6.75954 10.1359C6.74887 10.1359 6.73821 10.1359 6.72754 10.1359C7.45821 10.1252 8.18887 10.1146 8.91954 10.1039C8.96024 10.1102 8.99492 10.0995 9.02354 10.0719C9.0209 8.66913 9.03424 7.27179 9.06354 5.87988Z"
            fill="#398088" />
        <path fill-rule="evenodd" clip-rule="evenodd"
            d="M9.08008 5.88026C9.08008 5.87493 9.08008 5.86959 9.08008 5.86426C10.8081 5.86426 12.5361 5.86426 14.2641 5.86426C14.2587 7.26429 14.2641 8.66162 14.2801 10.0563C14.2801 10.0669 14.2801 10.0776 14.2801 10.0883C14.2694 10.0883 14.2587 10.0883 14.2481 10.0883C14.2481 8.68559 14.2481 7.28293 14.2481 5.88026C12.5254 5.88026 10.8028 5.88026 9.08008 5.88026Z"
            fill="#42858E" />
        <path fill-rule="evenodd" clip-rule="evenodd"
            d="M9.06377 5.99219C9.08242 7.3655 9.08508 8.7415 9.07177 10.1202C9.06377 10.1282 9.05577 10.1362 9.04777 10.1442C8.28241 10.1575 7.51973 10.1548 6.75977 10.1362C7.49045 10.1389 8.22113 10.1362 8.95177 10.1282C8.98658 10.1256 9.01591 10.1123 9.03977 10.0882C9.06369 8.72417 9.07169 7.35883 9.06377 5.99219Z"
            fill="#1B6E77" />
        <path fill-rule="evenodd" clip-rule="evenodd"
            d="M6.71191 10.0723C7.44259 10.0723 8.17324 10.0723 8.90391 10.0723C8.17859 10.0829 7.45324 10.0936 6.72791 10.1043C6.72259 10.1043 6.71724 10.1043 6.71191 10.1043C6.71191 10.0936 6.71191 10.0829 6.71191 10.0723Z"
            fill="#B9D2D6" />
        <path fill-rule="evenodd" clip-rule="evenodd"
            d="M14.2961 5.86426C14.3121 7.2589 14.3174 8.65623 14.3121 10.0563C15.6854 10.0696 17.0614 10.0776 18.4401 10.0803C18.4491 10.0864 18.4544 10.0944 18.4561 10.1043C18.4454 10.1043 18.4348 10.1043 18.4241 10.1043C17.0534 10.1069 15.6828 10.1043 14.3121 10.0963C14.3001 10.0855 14.2947 10.0722 14.2961 10.0563C14.2961 8.65893 14.2961 7.26159 14.2961 5.86426Z"
            fill="#B3CED2" />
        <path fill-rule="evenodd" clip-rule="evenodd"
            d="M6.71191 10.1035C6.71724 10.1035 6.72259 10.1035 6.72791 10.1035C7.45859 10.1035 8.18924 10.1035 8.91991 10.1035C8.18924 10.1142 7.45859 10.1248 6.72791 10.1355C6.72259 10.1355 6.71724 10.1355 6.71191 10.1355C6.71191 10.1248 6.71191 10.1142 6.71191 10.1035Z"
            fill="#659CA3" />
        <path fill-rule="evenodd" clip-rule="evenodd"
            d="M14.248 10.0879C14.2587 10.0879 14.2694 10.0879 14.28 10.0879C14.2818 10.0978 14.2872 10.1058 14.296 10.1119C15.6721 10.1093 17.0428 10.1226 18.408 10.1519C17.022 10.136 15.6354 10.1306 14.248 10.1359C14.248 10.1199 14.248 10.1039 14.248 10.0879Z"
            fill="#3C828A" />
        <path fill-rule="evenodd" clip-rule="evenodd"
            d="M18.4561 10.1041C18.4829 10.1007 18.4989 10.1114 18.5041 10.1361C18.5093 11.3815 18.5041 12.6242 18.4881 13.8641C18.4908 12.6215 18.4881 11.3788 18.4801 10.1361C18.4685 10.1274 18.4605 10.1168 18.4561 10.1041Z"
            fill="#BFD6D9" />
        <path fill-rule="evenodd" clip-rule="evenodd"
            d="M18.5044 10.1357C18.5231 11.3811 18.5257 12.6291 18.5124 13.8797C18.5019 13.9035 18.4884 13.9248 18.4724 13.9437C18.4617 13.9437 18.4511 13.9437 18.4404 13.9437C18.4631 13.921 18.4791 13.8943 18.4884 13.8637C18.5044 12.6238 18.5097 11.3811 18.5044 10.1357Z"
            fill="#D3E2E5" />
        <path fill-rule="evenodd" clip-rule="evenodd"
            d="M14.2803 10.0557C14.2856 10.0557 14.2909 10.0557 14.2963 10.0557C14.2949 10.0716 14.3002 10.0849 14.3123 10.0957C15.6829 10.1037 17.0536 10.1063 18.4243 10.1037C18.4296 10.1143 18.435 10.125 18.4403 10.1357C18.443 11.3623 18.4403 12.589 18.4323 13.8157C18.4264 13.8469 18.4131 13.8736 18.3923 13.8957C17.0376 13.8957 15.6829 13.8957 14.3283 13.8957C15.6749 13.8823 17.0243 13.8743 18.3763 13.8717C18.4003 13.8478 18.4137 13.8185 18.4163 13.7837C18.4296 12.5703 18.427 11.3596 18.4083 10.1517C17.043 10.1224 15.6724 10.109 14.2963 10.1117C14.2874 10.1055 14.282 10.0975 14.2803 10.0877C14.2803 10.077 14.2803 10.0663 14.2803 10.0557Z"
            fill="#5F99A0" />
        <path fill-rule="evenodd" clip-rule="evenodd"
            d="M18.4396 10.1357C18.4583 11.3757 18.4609 12.6184 18.4476 13.8637C18.4345 13.8849 18.4159 13.8956 18.3916 13.8957C18.4124 13.8736 18.4257 13.847 18.4316 13.8157C18.4396 12.5891 18.4423 11.3624 18.4396 10.1357Z"
            fill="#75A6AB" />
        <path fill-rule="evenodd" clip-rule="evenodd"
            d="M18.4236 10.1035C18.4343 10.1035 18.4449 10.1035 18.4556 10.1035C18.4601 10.1161 18.4681 10.1268 18.4796 10.1355C18.4876 11.3782 18.4903 12.6208 18.4876 13.8635C18.4628 13.8937 18.4308 13.9097 18.3916 13.9115C18.3916 13.9062 18.3916 13.9008 18.3916 13.8955C18.4159 13.8953 18.4345 13.8847 18.4476 13.8635C18.4609 12.6182 18.4583 11.3755 18.4396 10.1355C18.4343 10.1248 18.4289 10.1142 18.4236 10.1035Z"
            fill="#A0C2C6" />
        <path fill-rule="evenodd" clip-rule="evenodd"
            d="M14.3115 10.0557C15.6982 10.053 17.0848 10.0557 18.4715 10.0637C18.4952 10.0743 18.5166 10.0876 18.5355 10.1037C18.5382 11.3677 18.5355 12.6317 18.5275 13.8957C18.5208 13.9265 18.5021 13.9425 18.4715 13.9437C18.4875 13.9248 18.501 13.9034 18.5115 13.8797C18.5248 12.629 18.5222 11.381 18.5035 10.1357C18.4984 10.1109 18.4824 10.1002 18.4555 10.1037C18.4538 10.0938 18.4485 10.0858 18.4395 10.0797C17.0608 10.077 15.6848 10.069 14.3115 10.0557Z"
            fill="#E3EDEE" />
        <path fill-rule="evenodd" clip-rule="evenodd"
            d="M6.71191 10.1357C6.71724 10.1357 6.72259 10.1357 6.72791 10.1357C6.72524 11.3624 6.72791 12.5891 6.73591 13.8157C6.74694 13.802 6.76027 13.7914 6.77591 13.7837C6.80095 13.867 6.8223 13.867 6.83991 13.7837C7.52793 13.7811 8.21593 13.7837 8.90391 13.7917C8.97103 13.8003 9.02703 13.8296 9.07191 13.8797C9.07991 16.0397 9.08259 18.1997 9.07991 20.3597C9.06651 20.3543 9.06116 20.3436 9.06391 20.3277C9.06659 18.1837 9.06391 16.0397 9.05591 13.8957C9.03583 13.8844 9.01718 13.871 8.99991 13.8557C8.24236 13.843 7.48503 13.8456 6.72791 13.8637C6.72259 13.8637 6.71724 13.8637 6.71191 13.8637C6.71191 12.6211 6.71191 11.3784 6.71191 10.1357Z"
            fill="#1E6F78" />
        <path fill-rule="evenodd" clip-rule="evenodd"
            d="M18.3917 10.2158C18.3944 11.4212 18.3917 12.6265 18.3837 13.8318C18.3757 13.8398 18.3677 13.8478 18.3597 13.8558C17.0104 13.8611 15.661 13.8665 14.3117 13.8718C14.3028 13.8779 14.2975 13.8859 14.2957 13.8958C14.2757 13.8971 14.2624 13.9077 14.2557 13.9278C14.245 16.0718 14.245 18.2158 14.2557 20.3598C14.261 20.4078 14.2664 20.4558 14.2717 20.5038C14.2774 20.5462 14.296 20.5782 14.3277 20.5998C14.3486 20.707 14.3726 20.8137 14.3997 20.9198C14.411 20.9339 14.4244 20.9446 14.4397 20.9518C14.4217 21.0573 14.4484 21.148 14.5197 21.2238C14.487 21.2294 14.4577 21.2294 14.4317 21.2238C14.4237 21.16 14.421 21.096 14.4237 21.0318C14.3917 21.0265 14.3597 21.0211 14.3277 21.0158C14.3277 20.9038 14.3277 20.7918 14.3277 20.6798C14.2965 20.6841 14.2725 20.6736 14.2557 20.6478C14.2504 20.5891 14.245 20.5305 14.2397 20.4718C14.2265 18.2635 14.2291 16.0555 14.2477 13.8478C14.2734 13.8508 14.2947 13.8428 14.3117 13.8238C15.6573 13.816 17.0013 13.8133 18.3437 13.8158C18.357 12.6218 18.365 11.4271 18.3677 10.2318C18.3738 10.2229 18.3818 10.2176 18.3917 10.2158Z"
            fill="#1E6F78" />
        <path fill-rule="evenodd" clip-rule="evenodd"
            d="M18.4079 10.1523C18.4266 11.3603 18.4292 12.571 18.4159 13.7843C18.4133 13.8192 18.3999 13.8485 18.3759 13.8723C17.0239 13.875 15.6746 13.883 14.3279 13.8963C14.3172 13.8963 14.3066 13.8963 14.2959 13.8963C14.2977 13.8865 14.303 13.8785 14.3119 13.8723C15.6612 13.867 17.0106 13.8617 18.3599 13.8563C18.3679 13.8483 18.3759 13.8403 18.3839 13.8323C18.3919 12.627 18.3946 11.4217 18.3919 10.2163C18.4068 10.1993 18.4122 10.1779 18.4079 10.1523Z"
            fill="#3F848C" />
        <path fill-rule="evenodd" clip-rule="evenodd"
            d="M14.2963 13.8965C14.3069 13.8965 14.3176 13.8965 14.3283 13.8965C15.6829 13.8965 17.0376 13.8965 18.3923 13.8965C18.3923 13.9018 18.3923 13.9072 18.3923 13.9125C17.0323 13.9098 15.6723 13.9125 14.3123 13.9205C14.3036 13.932 14.2929 13.94 14.2803 13.9445C14.2812 13.9267 14.2865 13.9107 14.2963 13.8965Z"
            fill="#7BAAB0" />
        <path fill-rule="evenodd" clip-rule="evenodd"
            d="M6.71191 13.9278C7.45878 13.9172 8.20011 13.9279 8.93591 13.9598C8.18905 13.9704 7.44772 13.9597 6.71191 13.9278Z"
            fill="#C4DADC" />
        <path fill-rule="evenodd" clip-rule="evenodd"
            d="M18.4881 13.8643C18.4788 13.8948 18.4628 13.9215 18.4401 13.9443C18.4294 13.9443 18.4188 13.9443 18.4081 13.9443C17.0481 13.9443 15.6881 13.9443 14.3281 13.9443C15.6828 13.9336 17.0374 13.9229 18.3921 13.9123C18.4313 13.9104 18.4633 13.8944 18.4881 13.8643Z"
            fill="#BBD4D8" />
        <path fill-rule="evenodd" clip-rule="evenodd"
            d="M14.3281 13.9443C15.6881 13.9443 17.0481 13.9443 18.4081 13.9443C17.0481 13.955 15.6881 13.9657 14.3281 13.9763C14.3131 13.9934 14.3078 14.0148 14.3121 14.0403C14.3068 14.0403 14.3014 14.0403 14.2961 14.0403C14.289 14.0002 14.2996 13.9682 14.3281 13.9443Z"
            fill="#D8E6E8" />
        <path fill-rule="evenodd" clip-rule="evenodd"
            d="M18.5361 10.1035C18.5548 11.3702 18.5574 12.6395 18.5441 13.9115C18.5382 13.9262 18.5302 13.9395 18.5201 13.9515C17.1235 13.9754 15.7262 13.9834 14.3281 13.9755C15.6881 13.9648 17.0481 13.9542 18.4081 13.9435C18.4188 13.9435 18.4294 13.9435 18.4401 13.9435C18.4508 13.9435 18.4614 13.9435 18.4721 13.9435C18.5027 13.9423 18.5214 13.9263 18.5281 13.8955C18.5361 12.6315 18.5388 11.3675 18.5361 10.1035Z"
            fill="#F3F7F8" />
        <path fill-rule="evenodd" clip-rule="evenodd"
            d="M9.01562 13.9756C9.02895 16.1063 9.03695 18.2396 9.03963 20.3756C9.06299 20.5713 9.07099 20.7687 9.06363 20.9676C9.05295 20.8983 9.0423 20.8289 9.03163 20.7596C9.035 20.6204 9.02966 20.4817 9.01562 20.3436C9.01562 18.2209 9.01562 16.0983 9.01562 13.9756Z"
            fill="#52919A" />
        <path fill-rule="evenodd" clip-rule="evenodd"
            d="M9.06354 20.3276C9.05021 18.2023 9.04221 16.0743 9.03954 13.9436C9.01695 13.9124 8.98762 13.891 8.95154 13.8796C8.20749 13.8849 7.46616 13.8796 6.72754 13.8636C7.48466 13.8455 8.24199 13.8428 8.99954 13.8556C9.0168 13.8709 9.03546 13.8842 9.05554 13.8956C9.06354 16.0396 9.06621 18.1836 9.06354 20.3276Z"
            fill="#2F7B83" />
        <path fill-rule="evenodd" clip-rule="evenodd"
            d="M14.2961 13.8965C14.2863 13.9107 14.281 13.9267 14.2801 13.9445C14.2587 16.0154 14.2587 18.0846 14.2801 20.1525C14.2711 20.3053 14.2871 20.4546 14.3281 20.6005C14.2964 20.5789 14.2777 20.5469 14.2721 20.5045C14.2667 20.4565 14.2614 20.4085 14.2561 20.3605C14.2454 18.2165 14.2454 16.0725 14.2561 13.9285C14.2627 13.9084 14.2761 13.8977 14.2961 13.8965Z"
            fill="#4B8B94" />
        <path fill-rule="evenodd" clip-rule="evenodd"
            d="M8.93559 13.96C8.963 13.9781 8.97367 14.0048 8.96759 14.04C8.95159 16.1387 8.94626 18.24 8.95159 20.344C8.93559 18.2452 8.93026 16.144 8.93559 14.04C8.93559 14.0133 8.93559 13.9866 8.93559 13.96Z"
            fill="#CADDDE" />
        <path fill-rule="evenodd" clip-rule="evenodd"
            d="M6.71191 13.8643C6.71724 13.8643 6.72259 13.8643 6.72791 13.8643C7.46654 13.8802 8.20787 13.8856 8.95191 13.8803C8.97995 13.9082 9.00127 13.9402 9.01591 13.9763C9.01591 16.099 9.01591 18.2215 9.01591 20.3443C9.00524 18.2163 8.99459 16.0883 8.98391 13.9603C8.97667 13.9449 8.96601 13.9316 8.95191 13.9203C8.20412 13.9175 7.45745 13.9095 6.71191 13.8963C6.71191 13.8856 6.71191 13.8749 6.71191 13.8643Z"
            fill="#6AA0A6" />
        <path fill-rule="evenodd" clip-rule="evenodd"
            d="M14.3115 14.04C14.3249 16.0748 14.3329 18.112 14.3355 20.152C14.3529 20.2031 14.3663 20.2564 14.3755 20.312C14.3862 20.3173 14.3969 20.3228 14.4075 20.328C14.4235 20.461 14.4288 20.5943 14.4235 20.728C14.403 20.6354 14.3897 20.5394 14.3835 20.44C14.376 20.4036 14.36 20.3716 14.3355 20.344C14.3302 20.296 14.3249 20.248 14.3195 20.2C14.3115 18.1468 14.3089 16.0933 14.3115 14.04Z"
            fill="#F0F4F5" />
        <path fill-rule="evenodd" clip-rule="evenodd"
            d="M8.91965 14.04C8.91698 16.1468 8.91965 18.2533 8.92765 20.36C8.93368 20.3831 8.94701 20.3991 8.96765 20.408C8.97832 20.5148 8.98898 20.6213 8.99965 20.728C8.99965 20.7493 9.01032 20.76 9.03165 20.76C9.02899 20.9042 9.03165 21.0482 9.03965 21.192C9.06344 21.276 9.08211 21.3615 9.09565 21.448C9.072 21.4245 9.05067 21.3978 9.03165 21.368C9.00914 21.1767 8.99579 20.9847 8.99165 20.792C8.97832 20.776 8.96498 20.76 8.95165 20.744C8.94219 20.652 8.92886 20.5615 8.91165 20.472C8.89832 18.3253 8.90099 16.1813 8.91965 14.04Z"
            fill="#E8F0F0" />
        <path fill-rule="evenodd" clip-rule="evenodd"
            d="M8.91995 14.04C8.92528 14.04 8.93062 14.04 8.93595 14.04C8.93062 16.144 8.93595 18.2453 8.95195 20.344C8.96689 20.3612 8.97224 20.3824 8.96795 20.408C8.94731 20.3991 8.93398 20.3831 8.92795 20.36C8.91995 18.2533 8.91728 16.1468 8.91995 14.04Z"
            fill="#D9E7E8" />
        <path fill-rule="evenodd" clip-rule="evenodd"
            d="M8.96819 14.04C8.96287 16.1388 8.96819 18.2348 8.98419 20.328C8.99871 20.4607 9.00403 20.5941 9.00019 20.728C8.98952 20.6213 8.97887 20.5148 8.96819 20.408C8.97248 20.3824 8.96714 20.3612 8.95219 20.344C8.94687 18.24 8.95219 16.1388 8.96819 14.04Z"
            fill="#B6CFD3" />
        <path fill-rule="evenodd" clip-rule="evenodd"
            d="M6.71191 13.8965C7.45745 13.9097 8.20412 13.9177 8.95191 13.9205C8.96601 13.9318 8.97667 13.9452 8.98391 13.9605C8.98391 16.0832 8.98391 18.2058 8.98391 20.3285C8.96791 18.2352 8.96259 16.1392 8.96791 14.0405C8.97399 14.0053 8.96332 13.9786 8.93591 13.9605C8.20011 13.9286 7.45878 13.9179 6.71191 13.9285C6.71191 13.9178 6.71191 13.9072 6.71191 13.8965Z"
            fill="#9DC0C4" />
        <path fill-rule="evenodd" clip-rule="evenodd"
            d="M8.98438 13.96C8.99505 16.088 9.0057 18.216 9.01638 20.344C9.03041 20.482 9.03575 20.6208 9.03238 20.76C9.01105 20.76 9.00038 20.7492 9.00038 20.728C9.00422 20.594 8.99889 20.4606 8.98438 20.328C8.98438 18.2052 8.98438 16.0827 8.98438 13.96Z"
            fill="#84B1B6" />
        <path fill-rule="evenodd" clip-rule="evenodd"
            d="M8.95215 13.8799C8.98823 13.8913 9.01756 13.9127 9.04015 13.9439C9.04282 16.0746 9.05082 18.2026 9.06415 20.3279C9.0614 20.3437 9.06674 20.3544 9.08015 20.3599C9.07002 20.6181 9.08335 20.8741 9.12015 21.1279C9.13615 21.1439 9.15215 21.1599 9.16815 21.1759C9.17348 21.2986 9.17882 21.4212 9.18415 21.5439C9.20652 21.6336 9.22517 21.7244 9.24015 21.8159C9.20981 21.7495 9.18314 21.6802 9.16015 21.6079C9.15991 21.4847 9.15191 21.3621 9.13615 21.2399C9.11018 21.1476 9.08618 21.0568 9.06415 20.9679C9.07151 20.769 9.06351 20.5716 9.04015 20.3759C9.03748 18.2399 9.02948 16.1066 9.01615 13.9759C9.00151 13.9398 8.98018 13.9078 8.95215 13.8799Z"
            fill="#3D828A" />
        <path fill-rule="evenodd" clip-rule="evenodd"
            d="M18.3917 13.9121C17.0369 13.9228 15.6823 13.9335 14.3277 13.9441C14.2992 13.968 14.2885 14 14.2957 14.0401C14.2957 16.0774 14.2957 18.1149 14.2957 20.1521C14.2903 20.1521 14.285 20.1521 14.2797 20.1521C14.2583 18.0843 14.2583 16.015 14.2797 13.9441C14.2923 13.9396 14.303 13.9316 14.3117 13.9201C15.6716 13.9121 17.0317 13.9095 18.3917 13.9121Z"
            fill="#94BABE" />
        <path fill-rule="evenodd" clip-rule="evenodd"
            d="M14.2959 14.04C14.3012 14.04 14.3066 14.04 14.3119 14.04C14.3092 16.0933 14.3119 18.1468 14.3199 20.2C14.3252 20.248 14.3306 20.296 14.3359 20.344C14.3603 20.3716 14.3763 20.4036 14.3839 20.44C14.39 20.5394 14.4034 20.6354 14.4239 20.728C14.4239 20.7333 14.4239 20.7388 14.4239 20.744C14.4239 20.7653 14.4239 20.7868 14.4239 20.808C14.414 20.8063 14.406 20.801 14.3999 20.792C14.3782 20.6404 14.3462 20.4909 14.3039 20.344C14.2959 20.2802 14.2933 20.2162 14.2959 20.152C14.2959 18.1148 14.2959 16.0773 14.2959 14.04Z"
            fill="#C7DADC" />
        <path fill-rule="evenodd" clip-rule="evenodd"
            d="M25.0004 21.0476C24.9684 21.0316 24.9364 21.0156 24.9044 20.9996C24.8972 20.9843 24.8865 20.971 24.8724 20.9596C24.7871 20.9614 24.7177 20.9294 24.6644 20.8636C24.5939 20.8603 24.5299 20.839 24.4724 20.7996C24.3772 20.7796 24.2812 20.7662 24.1844 20.7596C24.1791 20.7596 24.1737 20.7596 24.1684 20.7596C24.1524 20.7489 24.1364 20.7383 24.1204 20.7276C24.0755 20.7145 24.0275 20.7065 23.9764 20.7036C23.9657 20.6929 23.9551 20.6823 23.9444 20.6716C23.7524 20.6609 23.5604 20.6609 23.3684 20.6716C23.3361 20.6796 23.3041 20.6876 23.2724 20.6956C23.2699 20.6737 23.2726 20.6523 23.2804 20.6316C23.5518 20.6294 23.8265 20.6321 24.1044 20.6396C24.1161 20.6811 24.1428 20.7078 24.1844 20.7196C24.2969 20.7251 24.4089 20.7356 24.5204 20.7516C24.5311 20.7729 24.5417 20.7943 24.5524 20.8156C24.6276 20.8212 24.7022 20.8292 24.7764 20.8396C24.7817 20.8716 24.7871 20.9036 24.7924 20.9356C24.846 20.9329 24.8993 20.9356 24.9524 20.9436C24.9625 20.9815 24.9785 21.0163 25.0004 21.0476Z"
            fill="#E8F7F8" />
        <path fill-rule="evenodd" clip-rule="evenodd"
            d="M24.1198 20.7281C23.9723 20.7054 23.823 20.6948 23.6718 20.6961C23.5865 20.6988 23.5011 20.7014 23.4158 20.7041C23.3387 20.7343 23.2587 20.7478 23.1758 20.7441C23.2015 20.7187 23.2335 20.7027 23.2718 20.6961C23.3035 20.6881 23.3355 20.6801 23.3678 20.6721C23.5598 20.6614 23.7518 20.6614 23.9438 20.6721C23.9545 20.6828 23.9651 20.6934 23.9758 20.7041C24.0268 20.707 24.0748 20.715 24.1198 20.7281Z"
            fill="#CDEDF0" />
        <path fill-rule="evenodd" clip-rule="evenodd"
            d="M24.1201 20.7284C24.1361 20.7391 24.1521 20.7497 24.1681 20.7604C24.0031 20.7479 23.8377 20.7372 23.6721 20.7284C23.4734 20.7297 23.2761 20.7457 23.0801 20.7764C23.1121 20.7657 23.1441 20.7551 23.1761 20.7444C23.259 20.7481 23.339 20.7346 23.4161 20.7044C23.5014 20.7017 23.5868 20.6991 23.6721 20.6964C23.8233 20.6951 23.9726 20.7057 24.1201 20.7284Z"
            fill="#A1DEE4" />
        <path fill-rule="evenodd" clip-rule="evenodd"
            d="M14.2797 20.1523C14.2851 20.1523 14.2904 20.1523 14.2957 20.1523C14.2931 20.2165 14.2958 20.2805 14.3037 20.3443C14.346 20.4912 14.378 20.6407 14.3997 20.7923C14.4059 20.8013 14.4139 20.8066 14.4237 20.8083C14.4237 20.8191 14.4237 20.8296 14.4237 20.8403C14.4229 20.8787 14.4282 20.9162 14.4397 20.9523C14.4244 20.9451 14.4111 20.9344 14.3997 20.9203C14.3726 20.8143 14.3486 20.7075 14.3277 20.6003C14.2868 20.4544 14.2708 20.3051 14.2797 20.1523Z"
            fill="#6FA2A8" />
        <path fill-rule="evenodd" clip-rule="evenodd"
            d="M24.1836 20.7598C24.2804 20.7663 24.3764 20.7798 24.4716 20.7998C24.529 20.8391 24.593 20.8604 24.6636 20.8638C24.7169 20.9295 24.7863 20.9615 24.8716 20.9598C24.8857 20.9711 24.8964 20.9844 24.9036 20.9998C24.8156 20.9892 24.7356 20.9599 24.6636 20.9118C24.5335 20.8596 24.4001 20.825 24.2636 20.8078C24.2522 20.7934 24.2362 20.7879 24.2156 20.7918C24.2049 20.781 24.1943 20.7705 24.1836 20.7598Z"
            fill="#98DBE1" />
        <path fill-rule="evenodd" clip-rule="evenodd"
            d="M24.2161 20.7918C24.2368 20.7879 24.2528 20.7934 24.2641 20.8078C24.2681 20.8305 24.2814 20.8465 24.3041 20.8558C24.312 20.8764 24.3147 20.8978 24.3121 20.9198C24.4188 20.917 24.5256 20.9198 24.6321 20.9278C24.6928 20.9767 24.762 21.0034 24.8401 21.0078C24.8859 21.0226 24.9232 21.0494 24.9521 21.0878C24.9728 21.0956 24.9942 21.0983 25.0161 21.0958C25.078 21.1015 25.126 21.1308 25.1601 21.1838C25.1942 21.1943 25.2262 21.2076 25.2561 21.2238C25.2734 21.2572 25.3001 21.2785 25.3361 21.2878C25.4686 21.431 25.6073 21.5695 25.7521 21.7038C25.783 21.7708 25.8096 21.8402 25.8321 21.9118C25.8705 21.91 25.9 21.926 25.9201 21.9598C25.9396 22.0257 25.9716 22.0842 26.0161 22.1358C26.0254 22.2489 26.0681 22.3449 26.1441 22.4238C26.1366 22.5372 26.1712 22.6332 26.2481 22.7118C26.2478 22.8786 26.2612 23.0439 26.2881 23.2078C26.2988 23.325 26.2988 23.4425 26.2881 23.5598C26.2736 23.573 26.2628 23.589 26.2561 23.6078C26.2422 23.7514 26.2315 23.8954 26.2241 24.0398C26.2068 24.094 26.1883 24.1474 26.1681 24.1998C26.1424 24.2422 26.1291 24.2902 26.1281 24.3438C26.1014 24.381 26.0748 24.4185 26.0481 24.4558C26.0547 24.5444 26.0172 24.6031 25.9361 24.6318C25.9187 24.6724 25.908 24.7151 25.9041 24.7598C25.8206 24.8487 25.7566 24.95 25.7121 25.0638C25.6729 25.0948 25.6435 25.1321 25.6241 25.1758C25.6134 25.1758 25.6081 25.181 25.6081 25.1918C25.5195 25.2466 25.4448 25.3159 25.3841 25.3998C25.3262 25.4497 25.2622 25.4897 25.1921 25.5198C25.1622 25.547 25.1355 25.5764 25.1121 25.6078C25.1068 25.6078 25.1014 25.6078 25.0961 25.6078C25.0748 25.6078 25.0534 25.6078 25.0321 25.6078C25.0009 25.6186 24.9742 25.6374 24.9521 25.6638C24.8937 25.6718 24.835 25.6745 24.7761 25.6718C24.7795 25.698 24.7742 25.722 24.7601 25.7438C24.6864 25.7623 24.6118 25.7783 24.5361 25.7918C24.5184 25.8169 24.4969 25.8382 24.4721 25.8558C24.3499 25.8734 24.2272 25.8894 24.1041 25.9038C24.0521 25.9266 23.9988 25.9481 23.9441 25.9678C23.7355 25.9814 23.5275 25.9761 23.3201 25.9518C23.2966 25.9404 23.2859 25.9217 23.2881 25.8958C23.1603 25.8818 23.0323 25.8686 22.9041 25.8558C22.8372 25.7804 22.7518 25.7484 22.6481 25.7598C22.5728 25.7025 22.4873 25.6678 22.3921 25.6558C22.3836 25.6362 22.3731 25.6175 22.3601 25.5998C22.2928 25.5748 22.234 25.5375 22.1841 25.4878C22.1574 25.4825 22.1308 25.477 22.1041 25.4718C22.0508 25.4145 21.9976 25.3585 21.9441 25.3038C21.8809 25.2724 21.8224 25.2351 21.7681 25.1918C21.7456 25.1842 21.735 25.1682 21.7361 25.1438C21.6832 25.0772 21.6324 25.0079 21.5841 24.9358C21.5648 24.8436 21.514 24.7742 21.4321 24.7278C21.4214 24.717 21.4108 24.7065 21.4001 24.6958C21.3713 24.6238 21.3473 24.5492 21.3281 24.4718C21.2854 24.4398 21.2588 24.3972 21.2481 24.3438C21.242 24.2774 21.226 24.2134 21.2001 24.1518C21.1934 24.1316 21.1801 24.121 21.1601 24.1198C21.1492 23.9916 21.1358 23.8636 21.1201 23.7358C21.1094 23.7145 21.0988 23.693 21.0881 23.6718C21.0774 23.4585 21.0774 23.245 21.0881 23.0318C21.1132 22.9321 21.1265 22.8308 21.1281 22.7278C21.1281 22.7225 21.1281 22.717 21.1281 22.7118C21.1443 22.6666 21.1576 22.6186 21.1681 22.5678C21.2232 22.5041 21.2499 22.4294 21.2481 22.3438C21.307 22.2796 21.3443 22.205 21.3601 22.1198C21.386 22.0836 21.4153 22.0516 21.4481 22.0238C21.4779 21.9641 21.5126 21.9054 21.5521 21.8478C21.6414 21.7863 21.7054 21.7063 21.7441 21.6078C21.7996 21.5604 21.8449 21.5071 21.8801 21.4478C21.9556 21.4153 22.0196 21.3673 22.0721 21.3038C22.0988 21.3038 22.1254 21.3038 22.1521 21.3038C22.1628 21.2319 22.2054 21.1972 22.2801 21.1998C22.319 21.135 22.3777 21.103 22.4561 21.1038C22.4859 21.074 22.5152 21.0447 22.5441 21.0158C22.6244 21.0154 22.691 20.9862 22.7441 20.9278C22.8617 20.9052 22.9737 20.8679 23.0801 20.8158C23.1772 20.805 23.2732 20.789 23.3681 20.7678C23.4614 20.765 23.5548 20.7625 23.6481 20.7598C23.8384 20.762 24.0278 20.7727 24.2161 20.7918Z"
            fill="#1CB1BF" />
        <path fill-rule="evenodd" clip-rule="evenodd"
            d="M22.8876 20.8242C22.8786 20.8449 22.8626 20.8581 22.8396 20.8642C22.7442 20.8799 22.6588 20.9172 22.5836 20.9762C22.5516 20.9815 22.5196 20.9869 22.4876 20.9922C22.4574 21.0153 22.4254 21.034 22.3916 21.0482C22.4358 20.986 22.497 20.954 22.5756 20.9522C22.6108 20.9172 22.6508 20.8879 22.6956 20.8642C22.7617 20.8589 22.8257 20.8457 22.8876 20.8242Z"
            fill="#A0DEE4" />
        <path fill-rule="evenodd" clip-rule="evenodd"
            d="M24.2637 20.8076C24.4002 20.8249 24.5336 20.8595 24.6637 20.9116C24.7357 20.9598 24.8157 20.9891 24.9037 20.9996C24.932 21.0441 24.9693 21.0761 25.0157 21.0956C24.9938 21.0982 24.9723 21.0955 24.9517 21.0876C24.9227 21.0492 24.8854 21.0225 24.8397 21.0076C24.7616 21.0033 24.6923 20.9766 24.6317 20.9276C24.5251 20.9196 24.4184 20.9169 24.3117 20.9196C24.3142 20.8977 24.3115 20.8763 24.3037 20.8556C24.281 20.8463 24.2677 20.8303 24.2637 20.8076Z"
            fill="#47BEC9" />
        <path fill-rule="evenodd" clip-rule="evenodd"
            d="M23.1764 20.7442C23.1444 20.7549 23.1124 20.7655 23.0804 20.7762C23.0188 20.8002 22.9548 20.8162 22.8884 20.8242C22.8264 20.8456 22.7624 20.8589 22.6964 20.8642C22.6516 20.8879 22.6116 20.9171 22.5764 20.9522C22.4978 20.9539 22.4365 20.9859 22.3924 21.0482C22.3816 21.0482 22.3711 21.0482 22.3604 21.0482C22.4061 20.9712 22.4754 20.9312 22.5684 20.9282C22.6231 20.853 22.6976 20.821 22.7924 20.8322C22.8602 20.8119 22.9242 20.7851 22.9844 20.7522C23.0482 20.7442 23.1122 20.7415 23.1764 20.7442Z"
            fill="#C8ECEF" />
        <path fill-rule="evenodd" clip-rule="evenodd"
            d="M24.1683 20.7595C24.1735 20.7595 24.179 20.7595 24.1843 20.7595C24.195 20.7703 24.2055 20.7808 24.2163 20.7915C24.0279 20.7725 23.8385 20.7618 23.6483 20.7595C23.555 20.7623 23.4615 20.7648 23.3683 20.7675C23.2734 20.7888 23.1774 20.8048 23.0803 20.8155C22.9739 20.8677 22.8619 20.905 22.7443 20.9275C22.6911 20.9859 22.6246 21.0152 22.5443 21.0155C22.5153 21.0445 22.486 21.0738 22.4563 21.1035C22.3779 21.1027 22.3191 21.1347 22.2803 21.1995C22.2055 21.197 22.163 21.2317 22.1523 21.3035C22.1255 21.3035 22.099 21.3035 22.0723 21.3035C22.1164 21.252 22.1699 21.212 22.2323 21.1835C22.2647 21.1114 22.318 21.0661 22.3923 21.0475C22.426 21.0333 22.458 21.0146 22.4883 20.9915C22.5203 20.9863 22.5523 20.9808 22.5843 20.9755C22.6595 20.9165 22.7449 20.8792 22.8403 20.8635C22.8633 20.8575 22.8793 20.8442 22.8883 20.8235C22.9547 20.8155 23.0187 20.7995 23.0803 20.7755C23.2763 20.7448 23.4735 20.7288 23.6723 20.7275C23.8379 20.7363 24.0033 20.7471 24.1683 20.7595Z"
            fill="#5EC7D1" />
        <path fill-rule="evenodd" clip-rule="evenodd"
            d="M14.4238 20.7441C14.4641 20.7497 14.4935 20.771 14.5118 20.8081C14.5172 20.8829 14.5225 20.9574 14.5278 21.0321C14.6089 21.0769 14.6382 21.1462 14.6158 21.2401C14.6476 21.2382 14.6742 21.2489 14.6958 21.2721C14.7177 21.3235 14.7337 21.3768 14.7438 21.4321C14.7948 21.4437 14.8188 21.4757 14.8158 21.5281C14.8589 21.5552 14.8909 21.5926 14.9118 21.6401C14.9685 21.6859 15.0298 21.7259 15.0958 21.7601C15.1145 21.792 15.1358 21.8214 15.1598 21.8481C15.1172 21.8214 15.0745 21.7949 15.0318 21.7681C15.02 21.7702 15.0093 21.7675 14.9998 21.7601C14.8942 21.6625 14.7982 21.5585 14.7118 21.4481C14.656 21.3582 14.6106 21.2622 14.5758 21.1601C14.5574 21.1403 14.536 21.1243 14.5118 21.1121C14.5022 21.0421 14.4889 20.9726 14.4718 20.9041C14.4614 20.8773 14.4454 20.8558 14.4238 20.8401C14.4238 20.8294 14.4238 20.8189 14.4238 20.8081C14.4238 20.7869 14.4238 20.7654 14.4238 20.7441Z"
            fill="#DCE9EA" />
        <path fill-rule="evenodd" clip-rule="evenodd"
            d="M24.9043 21C24.9363 21.016 24.9683 21.032 25.0003 21.048C25.0056 21.048 25.011 21.048 25.0163 21.048C25.1008 21.1005 25.1808 21.1592 25.2563 21.224C25.2264 21.2078 25.1944 21.1946 25.1603 21.184C25.1262 21.131 25.0782 21.1018 25.0163 21.096C24.9699 21.0765 24.9326 21.0445 24.9043 21Z"
            fill="#94DAE0" />
        <path fill-rule="evenodd" clip-rule="evenodd"
            d="M25.0156 21.0478C25.0481 21.0453 25.0801 21.0478 25.1116 21.0558C25.1735 21.1325 25.2483 21.1939 25.3356 21.2398C25.4801 21.3763 25.6268 21.5203 25.7756 21.6718C25.7883 21.6917 25.7963 21.7131 25.7996 21.7358C25.7836 21.7251 25.7676 21.7146 25.7516 21.7038C25.6331 21.5613 25.5051 21.4253 25.3676 21.2958C25.3582 21.2885 25.3475 21.2858 25.3356 21.2878C25.2996 21.2786 25.2729 21.2573 25.2556 21.2238C25.1801 21.159 25.1001 21.1003 25.0156 21.0478Z"
            fill="#C1E9ED" />
        <path fill-rule="evenodd" clip-rule="evenodd"
            d="M9.03225 20.7598C9.04292 20.829 9.05357 20.8985 9.06425 20.9678C9.07639 21.1862 9.10839 21.3994 9.16025 21.6078C9.18324 21.6801 9.20991 21.7494 9.24025 21.8158C9.24025 21.8585 9.24025 21.901 9.24025 21.9438C9.23492 21.9438 9.22957 21.9438 9.22425 21.9438C9.18426 21.7814 9.14159 21.6214 9.09625 21.4638C9.09625 21.4585 9.09625 21.453 9.09625 21.4478C9.08271 21.3612 9.06404 21.2758 9.04025 21.1918C9.03225 21.0479 9.02959 20.9039 9.03225 20.7598Z"
            fill="#9FC1C5" />
        <path fill-rule="evenodd" clip-rule="evenodd"
            d="M9.06445 20.9678C9.08649 21.0567 9.11049 21.1475 9.13645 21.2398C9.15221 21.362 9.16021 21.4846 9.16045 21.6078C9.1086 21.3995 9.0766 21.1862 9.06445 20.9678Z"
            fill="#639BA1" />
        <path fill-rule="evenodd" clip-rule="evenodd"
            d="M14.4239 20.8398C14.4455 20.8555 14.4615 20.877 14.4719 20.9038C14.489 20.9723 14.5023 21.0418 14.5119 21.1118C14.5361 21.124 14.5574 21.14 14.5759 21.1598C14.6107 21.2619 14.656 21.3579 14.7119 21.4478C14.7012 21.4478 14.6906 21.4478 14.6799 21.4478C14.6232 21.3394 14.5618 21.2326 14.4959 21.1278C14.4854 21.0648 14.4667 21.0061 14.4399 20.9518C14.4284 20.9157 14.4231 20.8782 14.4239 20.8398Z"
            fill="#97BDC1" />
        <path fill-rule="evenodd" clip-rule="evenodd"
            d="M14.44 20.9521C14.4668 21.0064 14.4855 21.0651 14.496 21.1281C14.5619 21.2329 14.6233 21.3397 14.68 21.4481C14.6041 21.3888 14.5561 21.3142 14.536 21.2241C14.5307 21.2241 14.5253 21.2241 14.52 21.2241C14.4487 21.1483 14.422 21.0576 14.44 20.9521Z"
            fill="#4C8C94" />
        <path fill-rule="evenodd" clip-rule="evenodd"
            d="M22.3285 21.0482C22.1941 21.1716 22.0501 21.2836 21.8965 21.3842C21.9891 21.3209 22.0691 21.2436 22.1365 21.1522C22.1941 21.1454 22.2368 21.1161 22.2645 21.0642C22.2835 21.0494 22.3048 21.0441 22.3285 21.0482Z"
            fill="#BAE7EB" />
        <path fill-rule="evenodd" clip-rule="evenodd"
            d="M22.3283 21.0479C22.339 21.0479 22.3496 21.0479 22.3603 21.0479C22.371 21.0479 22.3816 21.0479 22.3923 21.0479C22.3181 21.0664 22.2648 21.1117 22.2323 21.1839C22.1699 21.2123 22.1165 21.2523 22.0723 21.3039C22.0198 21.3674 21.9558 21.4154 21.8803 21.4479C21.7576 21.5706 21.6402 21.6986 21.5283 21.8319C21.6379 21.6765 21.7554 21.5272 21.8803 21.3839C21.8856 21.3839 21.891 21.3839 21.8963 21.3839C22.0499 21.2832 22.1939 21.1712 22.3283 21.0479Z"
            fill="#78D0D8" />
        <path fill-rule="evenodd" clip-rule="evenodd"
            d="M25.3359 21.2401C25.3942 21.227 25.4316 21.2482 25.4479 21.3041C25.5329 21.3625 25.6076 21.4318 25.6719 21.5121C25.6935 21.5353 25.7203 21.546 25.7519 21.5441C25.7899 21.6017 25.8191 21.6657 25.8399 21.7361C25.8827 21.7894 25.9307 21.8374 25.9839 21.8801C26.002 21.9097 26.01 21.9417 26.0079 21.9761C25.9486 21.9327 25.9006 21.8794 25.8639 21.8161C25.8305 21.7988 25.8092 21.7721 25.7999 21.7361C25.7966 21.7134 25.7886 21.6919 25.7759 21.6721C25.6271 21.5206 25.4804 21.3766 25.3359 21.2401Z"
            fill="#E8F7F8" />
        <path fill-rule="evenodd" clip-rule="evenodd"
            d="M25.3359 21.2878C25.3478 21.2857 25.3585 21.2884 25.3679 21.2958C25.5054 21.4252 25.6334 21.5612 25.7519 21.7038C25.6071 21.5695 25.4684 21.431 25.3359 21.2878Z"
            fill="#88D6DD" />
        <path fill-rule="evenodd" clip-rule="evenodd"
            d="M14.5361 21.2236C14.5562 21.3137 14.6042 21.3883 14.6801 21.4476C14.6801 21.4689 14.6801 21.4904 14.6801 21.5116C14.697 21.5092 14.713 21.512 14.7281 21.5196C14.7885 21.5894 14.8472 21.6614 14.9041 21.7356C14.8482 21.7096 14.7975 21.6721 14.7521 21.6236C14.7503 21.555 14.7156 21.523 14.6481 21.5276C14.6507 21.5004 14.648 21.4737 14.6401 21.4476C14.6003 21.4292 14.5683 21.4027 14.5441 21.3676C14.5362 21.32 14.5335 21.272 14.5361 21.2236Z"
            fill="#2A767F" />
        <path fill-rule="evenodd" clip-rule="evenodd"
            d="M18.4877 21.6558C18.5189 21.7865 18.5561 21.9145 18.5997 22.0398C18.5889 22.0291 18.5784 22.0185 18.5677 22.0078C18.5742 21.9582 18.5555 21.9209 18.5117 21.8958C18.5037 21.6371 18.4102 21.6024 18.2317 21.7918C18.1664 21.8019 18.1077 21.8259 18.0557 21.8638C18.0627 21.8387 18.0787 21.82 18.1037 21.8078C18.1897 21.7916 18.259 21.7489 18.3117 21.6798C18.3691 21.6488 18.4278 21.6408 18.4877 21.6558Z"
            fill="#7AAAAF" />
        <path fill-rule="evenodd" clip-rule="evenodd"
            d="M18.648 22.0401C18.603 21.9078 18.5497 21.7798 18.488 21.6561C18.392 21.6176 18.3065 21.6416 18.232 21.7281C18.2121 21.7408 18.1907 21.7488 18.168 21.7521C18.2206 21.6917 18.2846 21.6464 18.36 21.6161C18.3872 21.5501 18.4352 21.5288 18.504 21.5521C18.5256 21.5645 18.5388 21.5832 18.544 21.6081C18.543 21.6909 18.5617 21.7683 18.6 21.8401C18.6152 21.8478 18.6312 21.8505 18.648 21.8481C18.648 21.9121 18.648 21.9761 18.648 22.0401Z"
            fill="#E4EEEF" />
        <path fill-rule="evenodd" clip-rule="evenodd"
            d="M15.0322 21.7676C15.0749 21.7943 15.1176 21.8209 15.1602 21.8476C15.1656 21.8476 15.1709 21.8476 15.1762 21.8476C15.2208 21.8882 15.2688 21.9255 15.3202 21.9596C15.2983 21.9621 15.2769 21.9594 15.2562 21.9516C15.2159 21.9074 15.1679 21.8754 15.1122 21.8556C15.0823 21.8284 15.0556 21.7989 15.0322 21.7676Z"
            fill="#AAC9CC" />
        <path fill-rule="evenodd" clip-rule="evenodd"
            d="M21.8802 21.4482C21.845 21.5076 21.7997 21.5609 21.7442 21.6082C21.7055 21.7068 21.6415 21.7868 21.5522 21.8482C21.5127 21.9058 21.478 21.9646 21.4482 22.0242C21.4456 21.997 21.4484 21.9703 21.4562 21.9442C21.4799 21.9287 21.4932 21.9074 21.4962 21.8802C21.5069 21.8642 21.5175 21.8482 21.5282 21.8322C21.64 21.699 21.7575 21.571 21.8802 21.4482Z"
            fill="#4CC1CC" />
        <path fill-rule="evenodd" clip-rule="evenodd"
            d="M14.6797 21.4482C14.6904 21.4482 14.701 21.4482 14.7117 21.4482C14.7981 21.5586 14.8941 21.6626 14.9997 21.7602C15.0092 21.7676 15.0199 21.7703 15.0317 21.7682C15.055 21.7996 15.0817 21.829 15.1117 21.8562C15.1674 21.8761 15.2154 21.9081 15.2557 21.9522C15.2764 21.9601 15.2977 21.9628 15.3197 21.9602C15.3429 21.973 15.3696 21.981 15.3997 21.9842C15.4138 21.9956 15.4244 22.0089 15.4317 22.0242C15.4389 22.0396 15.4496 22.0529 15.4637 22.0642C15.5318 22.0764 15.5958 22.095 15.6557 22.1202C15.6344 22.1202 15.613 22.1202 15.5917 22.1202C15.5457 22.107 15.4977 22.0937 15.4477 22.0802C15.388 22.0398 15.324 22.0078 15.2557 21.9842C15.2128 21.9386 15.1595 21.9119 15.0957 21.9042C15.0335 21.8442 14.9695 21.7882 14.9037 21.7362C14.8467 21.662 14.7881 21.59 14.7277 21.5202C14.7125 21.5126 14.6965 21.5098 14.6797 21.5122C14.6797 21.491 14.6797 21.4695 14.6797 21.4482Z"
            fill="#61999F" />
        <path fill-rule="evenodd" clip-rule="evenodd"
            d="M18.488 21.6555C18.4281 21.6405 18.3694 21.6485 18.312 21.6795C18.2593 21.7486 18.19 21.7914 18.104 21.8075C18.079 21.8197 18.063 21.8384 18.056 21.8635C18.0452 21.8635 18.0347 21.8635 18.024 21.8635C18.0027 21.8635 17.9812 21.8635 17.96 21.8635C17.96 21.8582 17.96 21.8528 17.96 21.8475C18.0088 21.8365 18.0408 21.8072 18.056 21.7595C18.0929 21.7515 18.1302 21.749 18.168 21.7515C18.1907 21.7482 18.2121 21.7402 18.232 21.7275C18.3065 21.641 18.392 21.617 18.488 21.6555Z"
            fill="#B4CFD2" />
        <path fill-rule="evenodd" clip-rule="evenodd"
            d="M18.5683 22.008C18.5546 21.9673 18.5279 21.9353 18.4883 21.912C18.4776 21.8563 18.4671 21.803 18.4563 21.752C18.4322 21.7209 18.4002 21.7129 18.3603 21.728C18.3336 21.7547 18.3071 21.7812 18.2803 21.808C18.1915 21.8091 18.117 21.8411 18.0563 21.904C18.0194 21.912 17.9821 21.9145 17.9443 21.912C17.9725 21.899 17.9992 21.883 18.0243 21.864C18.0351 21.864 18.0456 21.864 18.0563 21.864C18.1083 21.826 18.1671 21.802 18.2323 21.792C18.4109 21.6025 18.5043 21.6372 18.5123 21.896C18.5562 21.9211 18.5749 21.9584 18.5683 22.008Z"
            fill="#42858D" />
        <path fill-rule="evenodd" clip-rule="evenodd"
            d="M17.9599 21.8476C17.9599 21.8529 17.9599 21.8584 17.9599 21.8636C17.9544 21.8771 17.9437 21.8824 17.9279 21.8796C17.9059 21.8771 17.8845 21.8798 17.8639 21.8876C17.8338 21.9214 17.7965 21.9427 17.7519 21.9516C17.6919 21.9558 17.6331 21.9665 17.5759 21.9836C17.5509 21.9958 17.5349 22.0145 17.5279 22.0396C17.3663 22.0585 17.2063 22.0851 17.0479 22.1196C17.0563 22.0857 17.0776 22.0617 17.1119 22.0476C17.2131 22.0424 17.3146 22.0369 17.4159 22.0316C17.5071 21.9544 17.6136 21.9224 17.7359 21.9356C17.7679 21.9089 17.7999 21.8824 17.8319 21.8556C17.8743 21.8476 17.9168 21.8451 17.9599 21.8476Z"
            fill="#D7E5E7" />
        <path fill-rule="evenodd" clip-rule="evenodd"
            d="M17.9283 21.8798C17.8477 21.9504 17.7517 21.985 17.6403 21.9838C17.6045 22.0066 17.5672 22.0251 17.5283 22.0398C17.5354 22.0147 17.5514 21.996 17.5763 21.9838C17.6336 21.9667 17.6923 21.956 17.7523 21.9518C17.797 21.9429 17.8342 21.9216 17.8643 21.8878C17.885 21.88 17.9064 21.8773 17.9283 21.8798Z"
            fill="#AAC8CC" />
        <path fill-rule="evenodd" clip-rule="evenodd"
            d="M25.8642 21.8164C25.9009 21.8798 25.9489 21.933 26.0082 21.9764C26.014 22.0116 26.0353 22.0329 26.0722 22.0404C26.0853 22.0929 26.0933 22.1463 26.0962 22.2004C26.1282 22.2431 26.1602 22.2857 26.1922 22.3284C26.2002 22.3815 26.2029 22.4348 26.2002 22.4884C26.1895 22.4671 26.1789 22.4457 26.1682 22.4244C26.1257 22.3262 26.0911 22.2249 26.0642 22.1204C26.0012 22.0412 25.9372 21.9612 25.8722 21.8804C25.8644 21.8598 25.8617 21.8383 25.8642 21.8164Z"
            fill="#CAEDEF" />
        <path fill-rule="evenodd" clip-rule="evenodd"
            d="M17.9601 21.8643C17.9814 21.8643 18.0028 21.8643 18.0241 21.8643C17.999 21.8833 17.9722 21.8993 17.9441 21.9123C17.8932 21.9383 17.8399 21.9623 17.7841 21.9843C17.7414 21.9895 17.6988 21.995 17.6561 22.0003C17.5642 22.0766 17.4575 22.1113 17.3361 22.1043C17.2574 22.1076 17.1826 22.1262 17.1121 22.1603C17.0322 22.1683 16.9522 22.171 16.8721 22.1683C16.9303 22.1505 16.989 22.1345 17.0481 22.1203C17.2065 22.0857 17.3665 22.0591 17.5281 22.0403C17.567 22.0255 17.6042 22.007 17.6401 21.9843C17.7514 21.9854 17.8474 21.9508 17.9281 21.8803C17.9439 21.883 17.9546 21.8777 17.9601 21.8643Z"
            fill="#8CB5BA" />
        <path fill-rule="evenodd" clip-rule="evenodd"
            d="M15.1758 21.8485C15.2316 21.8429 15.2689 21.8669 15.2878 21.9205C15.3567 21.9366 15.426 21.9501 15.4958 21.9605C15.509 21.9902 15.525 22.0169 15.5438 22.0405C15.6876 22.0422 15.821 22.0795 15.9438 22.1525C15.7725 22.1077 15.6019 22.0649 15.4318 22.0245C15.4245 22.0091 15.4139 21.9958 15.3998 21.9845C15.3697 21.9813 15.343 21.9733 15.3198 21.9605C15.2684 21.9264 15.2204 21.8891 15.1758 21.8485Z"
            fill="#CEE0E2" />
        <path fill-rule="evenodd" clip-rule="evenodd"
            d="M17.9435 21.9121C17.9315 21.9535 17.9048 21.9828 17.8635 22.0001C17.8048 22.0054 17.7463 22.0108 17.6875 22.0161C17.6448 22.0481 17.6023 22.0801 17.5595 22.1121C17.4903 22.1174 17.4208 22.1228 17.3515 22.1281C17.3064 22.1399 17.2744 22.1665 17.2555 22.2081C17.2131 22.2161 17.1706 22.2187 17.1275 22.2161C16.9943 22.2161 16.8608 22.2161 16.7275 22.2161C16.8474 22.2028 16.9701 22.1948 17.0955 22.1921C17.1767 22.1607 17.2567 22.1313 17.3355 22.1041C17.457 22.1111 17.5637 22.0764 17.6555 22.0001C17.6983 21.9948 17.7408 21.9894 17.7835 21.9841C17.8394 21.9622 17.8927 21.9382 17.9435 21.9121Z"
            fill="#398088" />
        <path fill-rule="evenodd" clip-rule="evenodd"
            d="M15.5439 22.0401C15.6454 22.0374 15.7467 22.0401 15.8479 22.0481C15.8851 22.0738 15.9225 22.1004 15.9599 22.1281C16.3228 22.1399 16.6855 22.1374 17.0479 22.1201C16.9889 22.1343 16.9302 22.1503 16.8719 22.1681C16.5598 22.1734 16.2505 22.1681 15.9439 22.1521C15.8211 22.0791 15.6878 22.0418 15.5439 22.0401Z"
            fill="#E6EFF0" />
        <path fill-rule="evenodd" clip-rule="evenodd"
            d="M9.09558 21.4639C9.14093 21.6215 9.1836 21.7815 9.22358 21.9439C9.22094 21.9975 9.22362 22.0507 9.23158 22.1039C9.26274 22.1288 9.28141 22.1608 9.28758 22.1999C9.25765 22.1941 9.23365 22.1781 9.21558 22.1519C9.21026 22.0879 9.20491 22.0239 9.19958 21.9599C9.17187 21.9018 9.14254 21.8458 9.11158 21.7919C9.09781 21.6829 9.09248 21.5736 9.09558 21.4639Z"
            fill="#E1EBED" />
        <path fill-rule="evenodd" clip-rule="evenodd"
            d="M9.24023 21.8164C9.25011 21.8182 9.25811 21.8234 9.26423 21.8324C9.26927 21.8783 9.27727 21.9236 9.28823 21.9684C9.34982 22.0572 9.37915 22.1559 9.37623 22.2644C9.40628 22.3049 9.43561 22.3449 9.46423 22.3844C9.47478 22.4238 9.48012 22.4638 9.48023 22.5044C9.45409 22.4535 9.43009 22.4002 9.40823 22.3444C9.39223 22.3337 9.37623 22.3231 9.36023 22.3124C9.35707 22.2823 9.34907 22.2556 9.33623 22.2324C9.33879 22.2052 9.33614 22.1785 9.32823 22.1524C9.30108 22.0796 9.27175 22.0103 9.24023 21.9444C9.24023 21.9017 9.24023 21.8591 9.24023 21.8164Z"
            fill="#508E95" />
        <path fill-rule="evenodd" clip-rule="evenodd"
            d="M15.4316 22.0244C15.6017 22.0649 15.7724 22.1076 15.9436 22.1524C16.2502 22.1684 16.5595 22.1737 16.8716 22.1684C16.8052 22.1815 16.736 22.1895 16.6636 22.1924C16.4236 22.2031 16.1836 22.2031 15.9436 22.1924C15.8462 22.1732 15.7502 22.1492 15.6556 22.1204C15.5958 22.0951 15.5318 22.0766 15.4636 22.0644C15.4495 22.0531 15.4389 22.0398 15.4316 22.0244Z"
            fill="#99BDC2" />
        <path fill-rule="evenodd" clip-rule="evenodd"
            d="M18.5684 22.0078C18.5791 22.0185 18.5896 22.0291 18.6004 22.0398C18.6666 22.2016 18.7146 22.3723 18.7444 22.5518C18.7154 22.5216 18.6967 22.4843 18.6884 22.4398C18.6407 22.2992 18.6007 22.1552 18.5684 22.0078Z"
            fill="#5E989F" />
        <path fill-rule="evenodd" clip-rule="evenodd"
            d="M25.752 21.7041C25.768 21.7148 25.784 21.7254 25.8 21.7361C25.8092 21.7721 25.8305 21.7988 25.864 21.8161C25.8614 21.838 25.8641 21.8595 25.872 21.8801C25.9369 21.9609 26.0009 22.0409 26.064 22.1201C26.0908 22.2246 26.1254 22.3259 26.168 22.4241C26.1654 22.4566 26.168 22.4886 26.176 22.5201C26.2137 22.5796 26.2377 22.6436 26.248 22.7121C26.171 22.6335 26.1364 22.5375 26.144 22.4241C26.068 22.3452 26.0252 22.2492 26.016 22.1361C25.9715 22.0846 25.9395 22.026 25.92 21.9601C25.8998 21.9263 25.8704 21.9103 25.832 21.9121C25.8094 21.8406 25.7828 21.7711 25.752 21.7041Z"
            fill="#6FCDD6" />
        <path fill-rule="evenodd" clip-rule="evenodd"
            d="M17.3362 22.1035C17.2574 22.1307 17.1774 22.1602 17.0962 22.1915C16.9708 22.1942 16.8481 22.2022 16.7282 22.2155C16.4511 22.2358 16.1737 22.2331 15.8962 22.2075C15.8062 22.2016 15.7262 22.1722 15.6562 22.1195C15.7509 22.1483 15.8469 22.1723 15.9442 22.1915C16.1842 22.2022 16.4242 22.2022 16.6642 22.1915C16.7366 22.1886 16.8058 22.1806 16.8722 22.1675C16.9524 22.1702 17.0324 22.1675 17.1122 22.1595C17.1828 22.1254 17.2575 22.1069 17.3362 22.1035Z"
            fill="#619AA0" />
        <path fill-rule="evenodd" clip-rule="evenodd"
            d="M21.496 21.8799C21.493 21.9071 21.4797 21.9284 21.456 21.9439C21.4482 21.97 21.4455 21.9967 21.448 22.0239C21.4152 22.0517 21.3859 22.0837 21.36 22.1199C21.3442 22.2052 21.3069 22.2797 21.248 22.3439C21.2498 22.4295 21.2231 22.5042 21.168 22.5679C21.1575 22.6188 21.1442 22.6668 21.128 22.7119C21.1151 22.6325 21.1336 22.5632 21.184 22.5039C21.1979 22.4392 21.2139 22.3752 21.232 22.3119C21.2427 22.2906 21.2587 22.2746 21.28 22.2639C21.3215 22.1535 21.3695 22.0468 21.424 21.9439C21.4459 21.9192 21.4699 21.898 21.496 21.8799Z"
            fill="#7AD1D9" />
        <path fill-rule="evenodd" clip-rule="evenodd"
            d="M15.5918 22.1201C15.6131 22.1201 15.6345 22.1201 15.6558 22.1201C15.7257 22.1728 15.8057 22.2022 15.8958 22.2081C16.1732 22.2337 16.4507 22.2364 16.7278 22.2161C16.8611 22.2161 16.9945 22.2161 17.1278 22.2161C16.9916 22.2268 16.8529 22.2374 16.7118 22.2481C16.7032 22.2681 16.6924 22.2867 16.6798 22.3041C16.6851 22.3094 16.6905 22.3148 16.6958 22.3201C16.5494 22.3254 16.4054 22.3281 16.2638 22.3281C16.2425 22.3228 16.2211 22.3174 16.1998 22.3121C16.1859 22.2742 16.1592 22.2502 16.1198 22.2401C15.9594 22.2358 15.7994 22.2278 15.6398 22.2161C15.6473 22.1704 15.6313 22.1384 15.5918 22.1201Z"
            fill="#1C6D77" />
        <path fill-rule="evenodd" clip-rule="evenodd"
            d="M9.22364 21.9443C9.22897 21.9443 9.23431 21.9443 9.23964 21.9443C9.27116 22.0103 9.30049 22.0795 9.32764 22.1523C9.33554 22.1784 9.3382 22.2051 9.33564 22.2323C9.33305 22.2648 9.33572 22.2968 9.34364 22.3283C9.37489 22.3658 9.39354 22.4085 9.39964 22.4563C9.3837 22.4578 9.37038 22.4523 9.35964 22.4403C9.34527 22.3992 9.3266 22.3619 9.30364 22.3283C9.30718 22.2839 9.30185 22.2411 9.28764 22.2003C9.28146 22.1613 9.26279 22.1293 9.23164 22.1043C9.22367 22.0512 9.221 21.9979 9.22364 21.9443Z"
            fill="#C1D7D9" />
        <path fill-rule="evenodd" clip-rule="evenodd"
            d="M9.33592 22.2324C9.34875 22.2556 9.35675 22.2823 9.35992 22.3124C9.37592 22.3231 9.39192 22.3337 9.40792 22.3444C9.42977 22.4003 9.45377 22.4535 9.47992 22.5044C9.47992 22.5151 9.47992 22.5257 9.47992 22.5364C9.50125 22.6004 9.52259 22.6644 9.54392 22.7284C9.5124 22.694 9.48307 22.6567 9.45592 22.6164C9.4447 22.5587 9.42603 22.5054 9.39992 22.4564C9.39382 22.4086 9.37517 22.3659 9.34392 22.3284C9.336 22.2969 9.33333 22.2649 9.33592 22.2324Z"
            fill="#86B2B7" />
        <path fill-rule="evenodd" clip-rule="evenodd"
            d="M26.1679 22.4238C26.1787 22.4451 26.1892 22.4665 26.1999 22.4878C26.2689 22.5878 26.2956 22.6998 26.2799 22.8238C26.2692 22.7865 26.2587 22.7491 26.2479 22.7118C26.2377 22.6433 26.2137 22.5793 26.1759 22.5198C26.1679 22.4883 26.1654 22.4563 26.1679 22.4238Z"
            fill="#9DDDE3" />
        <path fill-rule="evenodd" clip-rule="evenodd"
            d="M26.2002 22.4883C26.2224 22.506 26.2464 22.522 26.2722 22.5363C26.2871 22.6211 26.2978 22.7064 26.3042 22.7923C26.3204 22.8057 26.3391 22.811 26.3602 22.8083C26.3602 22.8296 26.3602 22.851 26.3602 22.8723C26.3208 22.8753 26.2941 22.8593 26.2802 22.8243C26.2959 22.7003 26.2692 22.5883 26.2002 22.4883Z"
            fill="#D1EFF2" />
        <path fill-rule="evenodd" clip-rule="evenodd"
            d="M18.4883 21.6562C18.55 21.7799 18.6033 21.9079 18.6483 22.0403C18.6396 22.0908 18.6531 22.1335 18.6883 22.1683C18.7129 22.2582 18.7344 22.3489 18.7523 22.4403C18.7796 22.4623 18.8011 22.4889 18.8163 22.5203C18.8292 22.6115 18.8452 22.7022 18.8643 22.7923C18.9304 22.8809 18.9678 22.9822 18.9763 23.0963C19.0233 23.1631 19.042 23.2377 19.0323 23.3203C19.027 23.3203 19.0216 23.3203 19.0163 23.3203C18.9619 23.1187 18.8952 22.9214 18.8163 22.7283C18.8113 22.6823 18.8033 22.6371 18.7923 22.5923C18.7822 22.5713 18.7662 22.558 18.7443 22.5523C18.7145 22.3727 18.6665 22.202 18.6003 22.0403C18.5568 21.915 18.5195 21.787 18.4883 21.6562Z"
            fill="#B2CDD0" />
        <path fill-rule="evenodd" clip-rule="evenodd"
            d="M9.48047 22.5361C9.5573 22.5752 9.59196 22.6392 9.58447 22.7281C9.67055 22.783 9.70789 22.863 9.69647 22.9681C9.7238 23.0008 9.7558 23.0275 9.79247 23.0481C9.7904 23.1134 9.81708 23.1614 9.87247 23.1921C9.8802 23.2073 9.88285 23.2233 9.88047 23.2401C9.8528 23.2302 9.8288 23.2142 9.80847 23.1921C9.79328 23.1109 9.75328 23.0469 9.68847 23.0001C9.66482 22.9849 9.64882 22.9637 9.64047 22.9361C9.64298 22.9142 9.64031 22.8928 9.63247 22.8721C9.59599 22.8384 9.56666 22.8009 9.54447 22.7601C9.54447 22.7494 9.54447 22.7389 9.54447 22.7281C9.52314 22.6641 9.5018 22.6001 9.48047 22.5361Z"
            fill="#387F87" />
        <path fill-rule="evenodd" clip-rule="evenodd"
            d="M9.54388 22.7598C9.56607 22.8006 9.5954 22.838 9.63188 22.8718C9.63972 22.8924 9.64239 22.9138 9.63988 22.9358C9.61769 22.895 9.58836 22.8575 9.55188 22.8238C9.54404 22.8031 9.54137 22.7817 9.54388 22.7598Z"
            fill="#97BDC1" />
        <path fill-rule="evenodd" clip-rule="evenodd"
            d="M18.4561 21.752C18.4668 21.803 18.4773 21.8563 18.4881 21.912C18.5276 21.9353 18.5543 21.9673 18.5681 22.008C18.6004 22.1553 18.6404 22.2993 18.6881 22.44C18.6964 22.4844 18.7151 22.5217 18.7441 22.552C18.777 22.6892 18.8225 22.8225 18.8801 22.952C18.8913 22.9996 18.8993 23.0476 18.9041 23.096C18.9007 23.1432 18.9113 23.1859 18.9361 23.224C18.9207 23.2168 18.9074 23.206 18.8961 23.192C18.8801 23.1172 18.8641 23.0427 18.8481 22.968C18.8209 22.9534 18.7916 22.9481 18.7601 22.952C18.7628 22.8771 18.7601 22.8024 18.7521 22.728C18.6858 22.616 18.6538 22.4934 18.6561 22.36C18.6477 22.3436 18.6345 22.3331 18.6161 22.328C18.5829 22.3331 18.5777 22.3465 18.6001 22.368C18.5881 22.3956 18.5801 22.4251 18.5761 22.456C18.5628 22.3206 18.5521 22.1819 18.5441 22.04C18.5122 22.0275 18.4828 22.0222 18.4561 22.024C18.4607 21.9345 18.4607 21.844 18.4561 21.752Z"
            fill="#217079" />
        <path fill-rule="evenodd" clip-rule="evenodd"
            d="M18.7441 22.5518C18.7661 22.5575 18.7821 22.5708 18.7921 22.5918C18.8032 22.6366 18.8112 22.6818 18.8161 22.7278C18.895 22.9209 18.9617 23.1182 19.0161 23.3198C18.9875 23.2414 18.9502 23.1666 18.9041 23.0958C18.8993 23.0474 18.8913 22.9994 18.8801 22.9518C18.8225 22.8223 18.7771 22.689 18.7441 22.5518Z"
            fill="#75A7AC" />
        <path fill-rule="evenodd" clip-rule="evenodd"
            d="M26.2803 22.8242C26.2942 22.8593 26.3209 22.8753 26.3603 22.8722C26.3603 22.9629 26.3603 23.0535 26.3603 23.1442C26.339 23.1442 26.3176 23.1442 26.2963 23.1442C26.2945 23.0373 26.2891 22.9306 26.2803 22.8242Z"
            fill="#97DBE1" />
        <path fill-rule="evenodd" clip-rule="evenodd"
            d="M21.8798 21.3838C21.7549 21.5271 21.6374 21.6764 21.5278 21.8318C21.5171 21.8478 21.5066 21.8638 21.4958 21.8798C21.4698 21.8979 21.4458 21.9191 21.4238 21.9438C21.3693 22.0467 21.3213 22.1534 21.2798 22.2638C21.2586 22.2745 21.2426 22.2905 21.2318 22.3118C21.2138 22.3751 21.1978 22.4391 21.1838 22.5038C21.1334 22.5631 21.1149 22.6324 21.1278 22.7118C21.1278 22.7171 21.1278 22.7225 21.1278 22.7278C21.0922 22.8134 21.0682 22.9041 21.0558 22.9998C21.04 23.31 21.048 23.6195 21.0798 23.9278C21.0653 23.9035 21.052 23.8767 21.0398 23.8478C21.0157 23.5708 21.0104 23.2935 21.0238 23.0158C21.0568 22.9283 21.0755 22.8377 21.0798 22.7438C21.0787 22.6203 21.1134 22.5083 21.1838 22.4078C21.223 22.2867 21.271 22.1694 21.3278 22.0558C21.3619 22.019 21.3859 21.9763 21.3998 21.9278C21.437 21.8987 21.4715 21.8667 21.5038 21.8318C21.5528 21.7113 21.6275 21.61 21.7278 21.5278C21.7357 21.5071 21.7384 21.4857 21.7358 21.4638C21.7526 21.4662 21.7686 21.4635 21.7838 21.4558C21.8101 21.4233 21.8421 21.3993 21.8798 21.3838Z"
            fill="#AEE3E8" />
        <path fill-rule="evenodd" clip-rule="evenodd"
            d="M9.30371 22.3281C9.32667 22.3617 9.34534 22.399 9.35971 22.4401C9.37045 22.4521 9.38378 22.4576 9.39971 22.4561C9.42582 22.5051 9.4445 22.5584 9.45571 22.6161C9.48286 22.6564 9.51219 22.6937 9.54371 22.7281C9.54371 22.7388 9.54371 22.7494 9.54371 22.7601C9.5412 22.782 9.54387 22.8035 9.55171 22.8241C9.58819 22.8579 9.61752 22.8953 9.63971 22.9361C9.64806 22.9636 9.66406 22.9849 9.68771 23.0001C9.69098 23.0352 9.70163 23.0672 9.71971 23.0961C9.71483 23.1704 9.74418 23.2238 9.80771 23.2561C9.8145 23.2966 9.83315 23.3286 9.86371 23.3521C9.90234 23.3747 9.92901 23.4067 9.94371 23.4481C9.96946 23.5033 9.9988 23.5566 10.0317 23.6081C10.0816 23.6497 10.1216 23.6977 10.1517 23.7521C10.1609 23.7827 10.1769 23.8094 10.1997 23.8321C10.1829 23.8345 10.1669 23.8318 10.1517 23.8241C10.1402 23.7923 10.1242 23.763 10.1037 23.7361C10.039 23.682 9.98034 23.6235 9.92771 23.5601C9.91557 23.5176 9.9049 23.475 9.89571 23.4321C9.8817 23.4201 9.8657 23.4121 9.84771 23.4081C9.81802 23.3457 9.77536 23.2952 9.71971 23.2561C9.70669 23.2198 9.69869 23.1825 9.69571 23.1441C9.67266 23.132 9.64866 23.1212 9.62371 23.1121C9.61051 23.0542 9.60251 22.9955 9.59971 22.9361C9.53995 22.8873 9.51062 22.8233 9.51171 22.7441C9.48494 22.7187 9.45294 22.7081 9.41571 22.7121C9.41571 22.6481 9.41571 22.5841 9.41571 22.5201C9.31346 22.4972 9.27613 22.4332 9.30371 22.3281Z"
            fill="#DCE9EA" />
        <path fill-rule="evenodd" clip-rule="evenodd"
            d="M21.1277 22.7275C21.1261 22.8306 21.1129 22.9319 21.0877 23.0315C21.077 23.2448 21.077 23.4583 21.0877 23.6715C21.0985 23.6928 21.109 23.7143 21.1197 23.7355C21.1354 23.8634 21.1489 23.9914 21.1597 24.1195C21.1298 24.0565 21.1033 23.9925 21.0797 23.9275C21.0479 23.6192 21.0399 23.3098 21.0557 22.9995C21.0681 22.9039 21.0921 22.8131 21.1277 22.7275Z"
            fill="#70CDD6" />
        <path fill-rule="evenodd" clip-rule="evenodd"
            d="M9.72025 23.0957C9.78146 23.1731 9.82946 23.2584 9.86425 23.3517C9.83369 23.3282 9.81503 23.2962 9.80825 23.2557C9.74471 23.2234 9.71537 23.1699 9.72025 23.0957Z"
            fill="#AECBCE" />
        <path fill-rule="evenodd" clip-rule="evenodd"
            d="M26.248 22.7119C26.2587 22.7492 26.2692 22.7866 26.28 22.8239C26.2888 22.9303 26.2942 23.037 26.296 23.1439C26.3172 23.1439 26.3387 23.1439 26.36 23.1439C26.36 23.2879 26.36 23.4319 26.36 23.5759C26.3297 23.5727 26.3057 23.5833 26.288 23.6079C26.2782 23.7145 26.2702 23.8212 26.264 23.9279C26.2665 23.9657 26.264 24.003 26.256 24.0399C26.2388 24.1007 26.2096 24.1542 26.168 24.1999C26.1881 24.1476 26.2067 24.0942 26.224 24.0399C26.2313 23.8956 26.242 23.7516 26.256 23.6079C26.2627 23.5892 26.2734 23.5732 26.288 23.5599C26.2987 23.4426 26.2987 23.3252 26.288 23.2079C26.2611 23.0441 26.2476 22.8788 26.248 22.7119Z"
            fill="#57C5CF" />
        <path fill-rule="evenodd" clip-rule="evenodd"
            d="M9.68848 23C9.75329 23.0467 9.79329 23.1107 9.80848 23.192C9.82881 23.2141 9.85281 23.2301 9.88048 23.24C9.91761 23.3146 9.95494 23.3893 9.99248 23.464C9.97822 23.4542 9.96222 23.449 9.94448 23.448C9.92977 23.4066 9.9031 23.3746 9.86448 23.352C9.82969 23.2587 9.78169 23.1734 9.72048 23.096C9.7024 23.067 9.69174 23.035 9.68848 23Z"
            fill="#58949B" />
        <path fill-rule="evenodd" clip-rule="evenodd"
            d="M9.94434 23.4482C9.96208 23.4492 9.97808 23.4545 9.99234 23.4642C10.0152 23.4935 10.0419 23.5201 10.0723 23.5442C10.134 23.6486 10.198 23.7498 10.2643 23.8482C10.227 23.8162 10.1897 23.7842 10.1523 23.7522C10.1222 23.6978 10.0822 23.6498 10.0323 23.6082C9.99942 23.5567 9.97008 23.5034 9.94434 23.4482Z"
            fill="#7CABB0" />
        <path fill-rule="evenodd" clip-rule="evenodd"
            d="M19.0323 23.3359C19.0755 23.3607 19.1049 23.398 19.1203 23.4479C19.1376 23.5531 19.1749 23.6491 19.2323 23.7359C19.2403 23.7675 19.2429 23.7995 19.2403 23.8319C19.1761 23.7227 19.1254 23.6054 19.0883 23.4799C19.0816 23.4598 19.0683 23.4492 19.0483 23.4479C19.0368 23.4118 19.0315 23.3743 19.0323 23.3359Z"
            fill="#D1E1E3" />
        <path fill-rule="evenodd" clip-rule="evenodd"
            d="M26.3597 23.5758C26.3597 23.6558 26.3597 23.7358 26.3597 23.8158C26.3368 23.8145 26.3155 23.8198 26.2957 23.8318C26.285 23.8658 26.2742 23.8978 26.2637 23.9278C26.2699 23.821 26.2779 23.7143 26.2877 23.6078C26.3054 23.5831 26.3294 23.5726 26.3597 23.5758Z"
            fill="#8AD6DD" />
        <path fill-rule="evenodd" clip-rule="evenodd"
            d="M18.9039 23.0957C18.95 23.1666 18.9873 23.2413 19.0159 23.3197C19.0212 23.3197 19.0266 23.3197 19.0319 23.3197C19.0319 23.325 19.0319 23.3304 19.0319 23.3357C19.0311 23.3741 19.0364 23.4115 19.0479 23.4477C19.09 23.5997 19.138 23.7491 19.1919 23.8957C19.1702 23.8445 19.1407 23.7965 19.1039 23.7517C19.0986 23.7037 19.0932 23.6557 19.0879 23.6077C19.0834 23.593 19.0754 23.5824 19.0639 23.5757C19.0177 23.4584 18.9751 23.341 18.9359 23.2237C18.9111 23.1856 18.9006 23.1429 18.9039 23.0957Z"
            fill="#4F8E95" />
        <path fill-rule="evenodd" clip-rule="evenodd"
            d="M10.2637 23.8477C10.2743 23.8529 10.285 23.8584 10.2957 23.8637C10.3342 23.9021 10.3662 23.9448 10.3917 23.9917C10.3372 23.9533 10.2946 23.9053 10.2637 23.8477Z"
            fill="#72A5AB" />
        <path fill-rule="evenodd" clip-rule="evenodd"
            d="M19.2398 23.832C19.2527 23.8607 19.2607 23.8927 19.2638 23.928C19.2911 23.9549 19.3179 23.9815 19.3438 24.008C19.3491 24.088 19.3545 24.168 19.3598 24.248C19.4311 24.3415 19.4631 24.448 19.4558 24.568C19.4612 24.6111 19.4825 24.6431 19.5198 24.664C19.5375 24.7215 19.5455 24.78 19.5438 24.84C19.4916 24.7589 19.4543 24.6682 19.4318 24.568C19.4254 24.4752 19.3961 24.3898 19.3438 24.312C19.3411 24.2527 19.3331 24.194 19.3198 24.136C19.2486 24.0477 19.2219 23.9464 19.2398 23.832Z"
            fill="#D4E3E5" />
        <path fill-rule="evenodd" clip-rule="evenodd"
            d="M19.1919 23.96C19.2158 24.0337 19.2505 24.103 19.2959 24.168C19.3049 24.227 19.3156 24.2856 19.3279 24.344C19.3657 24.4035 19.3897 24.4675 19.3999 24.536C19.3703 24.4851 19.3383 24.4344 19.3039 24.384C19.2948 24.3225 19.2842 24.2611 19.2719 24.2C19.2102 24.1321 19.1836 24.0521 19.1919 23.96Z"
            fill="#4E8E95" />
        <path fill-rule="evenodd" clip-rule="evenodd"
            d="M21.08 22.7441C21.0757 22.8381 21.057 22.9286 21.024 23.0161C21.0106 23.2939 21.0159 23.5712 21.04 23.8481C21.0522 23.8771 21.0655 23.9038 21.08 23.9281C21.1036 23.9931 21.1301 24.0571 21.16 24.1201C21.1908 24.2259 21.2202 24.3326 21.248 24.4401C21.2975 24.5005 21.3269 24.5697 21.336 24.6481C21.3132 24.6256 21.2972 24.5989 21.288 24.5681C21.26 24.5174 21.228 24.4694 21.192 24.4241C21.1863 24.3457 21.1596 24.2737 21.112 24.2081C21.1012 24.1365 21.0932 24.0645 21.088 23.9921C21.0263 23.9075 20.9996 23.8115 21.008 23.7041C20.9973 23.4534 20.9973 23.2029 21.008 22.9521C21.0098 22.8894 21.0231 22.8307 21.048 22.7761C21.0588 22.7654 21.0693 22.7549 21.08 22.7441Z"
            fill="#C5EBEE" />
        <path fill-rule="evenodd" clip-rule="evenodd"
            d="M10.1523 23.752C10.1897 23.784 10.227 23.816 10.2643 23.848C10.2952 23.9056 10.3379 23.9536 10.3923 23.992C10.5316 24.1526 10.6863 24.2966 10.8563 24.424C10.9327 24.511 11.0127 24.591 11.0963 24.664C11.0187 24.6105 10.9387 24.5598 10.8563 24.512C10.8488 24.4843 10.8328 24.4656 10.8083 24.456C10.8006 24.4404 10.7926 24.4244 10.7843 24.408C10.5796 24.2219 10.3849 24.0299 10.2003 23.832C10.1775 23.8092 10.1615 23.7825 10.1523 23.752Z"
            fill="#A3C4C7" />
        <path fill-rule="evenodd" clip-rule="evenodd"
            d="M10.2959 23.8643C10.3518 23.9011 10.4078 23.9383 10.4639 23.9763C10.4712 24.0369 10.5032 24.0796 10.5599 24.1043C10.5942 24.1812 10.6502 24.2372 10.7279 24.2723C10.7684 24.326 10.8111 24.3766 10.8559 24.4243C10.6859 24.2969 10.5312 24.1529 10.3919 23.9923C10.3664 23.9454 10.3344 23.9027 10.2959 23.8643Z"
            fill="#5A959C" />
        <path fill-rule="evenodd" clip-rule="evenodd"
            d="M26.36 23.8156C26.36 23.8263 26.36 23.8369 26.36 23.8476C26.3388 23.8449 26.3201 23.8502 26.304 23.8636C26.288 23.959 26.2774 24.055 26.272 24.1516C26.2241 24.2102 26.1894 24.2742 26.168 24.3436C26.168 24.2956 26.168 24.2476 26.168 24.1996C26.2096 24.1539 26.2388 24.1004 26.256 24.0396C26.264 24.0027 26.2665 23.9654 26.264 23.9276C26.2745 23.8977 26.2852 23.8657 26.296 23.8316C26.3158 23.8196 26.3371 23.8143 26.36 23.8156Z"
            fill="#A9E1E6" />
        <path fill-rule="evenodd" clip-rule="evenodd"
            d="M26.3595 23.8483C26.3595 23.8856 26.3595 23.9231 26.3595 23.9603C26.3435 23.9603 26.3275 23.9603 26.3115 23.9603C26.3142 24.0405 26.3115 24.1205 26.3035 24.2003C26.2675 24.2343 26.2355 24.2717 26.2075 24.3123C26.2022 24.3763 26.1968 24.4403 26.1915 24.5043C26.1685 24.5309 26.139 24.5415 26.1035 24.5363C26.112 24.5037 26.1307 24.477 26.1595 24.4563C26.1675 24.4194 26.1701 24.3821 26.1675 24.3443C26.189 24.2749 26.2237 24.2109 26.2715 24.1523C26.277 24.0557 26.2875 23.9597 26.3035 23.8643C26.3197 23.8509 26.3384 23.8456 26.3595 23.8483Z"
            fill="#E8F7F8" />
        <path fill-rule="evenodd" clip-rule="evenodd"
            d="M21.0482 22.7761C21.0232 22.8306 21.0099 22.8894 21.0082 22.9521C20.9974 23.2028 20.9974 23.4534 21.0082 23.7041C20.9997 23.8114 21.0264 23.9074 21.0882 23.9921C21.0933 24.0644 21.1013 24.1364 21.1122 24.2081C21.1597 24.2737 21.1864 24.3457 21.1922 24.4241C21.1898 24.3703 21.163 24.333 21.1122 24.3121C21.1002 24.298 21.0922 24.282 21.0882 24.2641C21.0854 24.1836 21.0774 24.1036 21.0642 24.0241C21.0429 23.9921 21.0162 23.9654 20.9842 23.9441C20.9819 23.563 20.9846 23.179 20.9922 22.7921C21.0083 22.7786 21.027 22.7734 21.0482 22.7761Z"
            fill="#EDF9FA" />
        <path fill-rule="evenodd" clip-rule="evenodd"
            d="M19.0479 23.4482C19.0679 23.4495 19.0811 23.4601 19.0879 23.4802C19.125 23.6057 19.1757 23.723 19.2399 23.8322C19.2219 23.9466 19.2487 24.0479 19.3199 24.1362C19.3331 24.1942 19.3411 24.2529 19.3439 24.3122C19.3962 24.39 19.4255 24.4754 19.4319 24.5682C19.4266 24.5682 19.4211 24.5682 19.4159 24.5682C19.4024 24.5628 19.3971 24.5521 19.3999 24.5362C19.3896 24.4678 19.3656 24.4038 19.3279 24.3442C19.3155 24.2858 19.3048 24.2273 19.2959 24.1682C19.2504 24.1033 19.2157 24.034 19.1919 23.9602C19.1919 23.939 19.1919 23.9175 19.1919 23.8962C19.1379 23.7497 19.0899 23.6002 19.0479 23.4482Z"
            fill="#8CB5BA" />
        <path fill-rule="evenodd" clip-rule="evenodd"
            d="M19.0635 23.5762C19.075 23.5829 19.083 23.5935 19.0875 23.6082C19.0928 23.6562 19.0982 23.7042 19.1035 23.7522C19.1403 23.797 19.1698 23.845 19.1915 23.8962C19.1915 23.9175 19.1915 23.9389 19.1915 23.9602C19.1832 24.0523 19.2098 24.1323 19.2715 24.2002C19.2838 24.2613 19.2944 24.3227 19.3035 24.3842C19.3379 24.4346 19.3699 24.4853 19.3995 24.5362C19.3968 24.552 19.4021 24.5627 19.4155 24.5682C19.427 24.6623 19.451 24.753 19.4875 24.8402C19.4955 24.8879 19.4981 24.9359 19.4955 24.9842C19.4827 24.9415 19.4722 24.8962 19.4635 24.8482C19.4331 24.8258 19.4118 24.7965 19.3995 24.7602C19.3862 24.6968 19.3782 24.6328 19.3755 24.5682C19.344 24.5312 19.312 24.4939 19.2795 24.4562C19.2715 24.3818 19.2688 24.3071 19.2715 24.2322C19.2413 24.2354 19.2173 24.2248 19.1995 24.2002C19.193 24.2075 19.185 24.2128 19.1755 24.2162C19.1622 24.1045 19.1542 23.9925 19.1515 23.8802C19.1222 23.8616 19.0957 23.8403 19.0715 23.8162C19.0635 23.7363 19.0608 23.6563 19.0635 23.5762Z"
            fill="#207079" />
        <path fill-rule="evenodd" clip-rule="evenodd"
            d="M21.1602 24.1201C21.1802 24.1214 21.1934 24.132 21.2002 24.1521C21.2261 24.2137 21.2421 24.2777 21.2482 24.3441C21.2589 24.3976 21.2854 24.4401 21.3282 24.4721C21.3474 24.5496 21.3714 24.6241 21.4002 24.6961C21.3789 24.6801 21.3574 24.6641 21.3362 24.6481C21.327 24.5697 21.2976 24.5004 21.2482 24.4401C21.2203 24.3326 21.1909 24.2259 21.1602 24.1201Z"
            fill="#70CDD6" />
        <path fill-rule="evenodd" clip-rule="evenodd"
            d="M19.4163 24.5684C19.4216 24.5684 19.427 24.5684 19.4323 24.5684C19.4549 24.6685 19.4922 24.7592 19.5443 24.8404C19.5443 24.8456 19.5443 24.8511 19.5443 24.8564C19.5405 24.8948 19.5512 24.9268 19.5763 24.9524C19.607 25.0573 19.5805 25.1428 19.4963 25.2084C19.4856 25.2084 19.475 25.2084 19.4643 25.2084C19.4189 25.2391 19.3709 25.2658 19.3203 25.2884C19.3642 25.2445 19.4122 25.2071 19.4643 25.1764C19.4773 25.1549 19.496 25.1389 19.5203 25.1284C19.5581 25.0692 19.5501 25.0212 19.4963 24.9844C19.4989 24.936 19.4963 24.888 19.4883 24.8404C19.4518 24.7532 19.4278 24.6624 19.4163 24.5684Z"
            fill="#699FA5" />
        <path fill-rule="evenodd" clip-rule="evenodd"
            d="M10.8564 24.4238C10.8836 24.4269 10.9049 24.4401 10.9204 24.4638C10.9466 24.4717 10.9733 24.4744 11.0004 24.4718C10.9981 24.4886 11.0007 24.5046 11.0084 24.5198C11.0742 24.5483 11.1249 24.5936 11.1604 24.6558C11.1988 24.6667 11.2361 24.68 11.2724 24.6958C11.2888 24.7521 11.3261 24.7816 11.3844 24.7838C11.494 24.859 11.6007 24.9363 11.7044 25.0158C11.6284 25.012 11.5697 24.9773 11.5284 24.9118C11.4713 24.9056 11.4286 24.8789 11.4004 24.8318C11.3362 24.8045 11.2775 24.7697 11.2244 24.7278C11.1803 24.7096 11.1376 24.6881 11.0964 24.6638C11.0128 24.5909 10.9328 24.5109 10.8564 24.4238Z"
            fill="#4C8C93" />
        <path fill-rule="evenodd" clip-rule="evenodd"
            d="M26.1682 24.3438C26.1707 24.3815 26.1682 24.4188 26.1602 24.4557C26.1314 24.4764 26.1127 24.5031 26.1042 24.5357C26.1013 24.5793 26.0933 24.6218 26.0802 24.6637C26.0215 24.7277 25.9629 24.7917 25.9042 24.8557C25.8989 24.8825 25.8935 24.909 25.8882 24.9357C25.8079 25.0277 25.7331 25.1237 25.6642 25.2237C25.6319 25.2353 25.6026 25.2513 25.5762 25.2717C25.5869 25.245 25.5975 25.2185 25.6082 25.1917C25.6082 25.181 25.6135 25.1757 25.6242 25.1757C25.7405 25.0941 25.8232 24.9876 25.8722 24.8557C25.9936 24.7476 26.0683 24.6141 26.0962 24.4557C26.1205 24.4173 26.1445 24.3801 26.1682 24.3438Z"
            fill="#C9ECEF" />
        <path fill-rule="evenodd" clip-rule="evenodd"
            d="M10.8082 24.4561C10.8326 24.4657 10.8486 24.4844 10.8562 24.5121C10.9386 24.5599 11.0186 24.6106 11.0962 24.6641C11.1374 24.6884 11.1801 24.7098 11.2242 24.7281C11.3125 24.8068 11.4032 24.8813 11.4962 24.9521C11.4021 24.9637 11.3381 24.9265 11.3042 24.8401C11.2535 24.8321 11.2162 24.8053 11.1922 24.7601C11.1136 24.7177 11.0336 24.6777 10.9522 24.6401C10.9386 24.5717 10.8959 24.537 10.8242 24.5361C10.809 24.5113 10.8037 24.4847 10.8082 24.4561Z"
            fill="#D4E3E5" />
        <path fill-rule="evenodd" clip-rule="evenodd"
            d="M21.2885 24.5684C21.2976 24.5991 21.3136 24.6258 21.3365 24.6484C21.3896 24.7436 21.4509 24.8343 21.5205 24.9204C21.5283 24.941 21.531 24.9624 21.5285 24.9844C21.4986 24.9514 21.4613 24.93 21.4165 24.9204C21.3915 24.8648 21.3781 24.8061 21.3765 24.7444C21.3096 24.7071 21.2802 24.6484 21.2885 24.5684Z"
            fill="#DFF4F5" />
        <path fill-rule="evenodd" clip-rule="evenodd"
            d="M26.168 24.2002C26.168 24.2482 26.168 24.2962 26.168 24.3442C26.1443 24.3805 26.1203 24.4178 26.096 24.4562C26.0682 24.6146 25.9935 24.748 25.872 24.8562C25.8231 24.988 25.7403 25.0946 25.624 25.1762C25.6434 25.1325 25.6728 25.0952 25.712 25.0642C25.7565 24.9504 25.8205 24.8492 25.904 24.7602C25.9079 24.7156 25.9186 24.6728 25.936 24.6322C26.0171 24.6036 26.0546 24.5448 26.048 24.4562C26.0747 24.4189 26.1013 24.3815 26.128 24.3442C26.129 24.2906 26.1423 24.2426 26.168 24.2002Z"
            fill="#6ACAD4" />
        <path fill-rule="evenodd" clip-rule="evenodd"
            d="M21.4316 24.7275C21.5136 24.7739 21.5643 24.8434 21.5836 24.9355C21.632 25.0077 21.6827 25.077 21.7356 25.1435C21.6028 25.0271 21.5016 24.8885 21.4316 24.7275Z"
            fill="#5BC5D0" />
        <path fill-rule="evenodd" clip-rule="evenodd"
            d="M21.3359 24.6484C21.3572 24.6644 21.3787 24.6804 21.3999 24.6964C21.4107 24.7072 21.4212 24.7177 21.4319 24.7284C21.5019 24.8894 21.6031 25.028 21.7359 25.1444C21.7348 25.1689 21.7454 25.1849 21.7679 25.1924C21.8815 25.282 21.9883 25.3806 22.0879 25.4884C22.1436 25.5083 22.1916 25.5403 22.2319 25.5844C22.2532 25.5897 22.2747 25.5952 22.2959 25.6004C22.3487 25.6667 22.4127 25.7174 22.4879 25.7524C22.4051 25.7363 22.3356 25.6963 22.2799 25.6324C22.1881 25.5998 22.1081 25.5465 22.0399 25.4724C21.9951 25.4528 21.9526 25.4288 21.9119 25.4004C21.8675 25.316 21.8007 25.2572 21.7119 25.2244C21.7067 25.2084 21.7012 25.1924 21.6959 25.1764C21.6427 25.1099 21.5867 25.0459 21.5279 24.9844C21.5305 24.9625 21.5278 24.9411 21.5199 24.9204C21.4503 24.8344 21.3891 24.7436 21.3359 24.6484Z"
            fill="#ADE2E7" />
        <path fill-rule="evenodd" clip-rule="evenodd"
            d="M11.2236 24.7275C11.2767 24.7695 11.3354 24.8042 11.3996 24.8315C11.4278 24.8786 11.4705 24.9053 11.5276 24.9115C11.5689 24.977 11.6276 25.0117 11.7036 25.0155C11.741 25.0842 11.7997 25.1135 11.8796 25.1035C11.8997 25.1103 11.9104 25.1235 11.9116 25.1435C11.9189 25.1589 11.9295 25.1722 11.9436 25.1835C11.9836 25.1968 12.0236 25.2103 12.0636 25.2235C12.1009 25.2685 12.1462 25.3005 12.1996 25.3195C12.1724 25.3221 12.1458 25.3194 12.1196 25.3115C12.1041 25.2879 12.0828 25.2746 12.0556 25.2715C12.0577 25.2575 12.0524 25.2469 12.0396 25.2395C11.9102 25.1922 11.7928 25.1255 11.6876 25.0395C11.6612 25.0298 11.6345 25.0218 11.6076 25.0155C11.5624 25.0075 11.5251 24.9863 11.4956 24.9515C11.4026 24.8808 11.3119 24.8063 11.2236 24.7275Z"
            fill="#8FB7BC" />
        <path fill-rule="evenodd" clip-rule="evenodd"
            d="M11.7041 25.0156C11.7696 25.0633 11.8443 25.0873 11.9281 25.0876C11.9454 25.1203 11.972 25.1417 12.0081 25.1516C12.0563 25.1596 12.1043 25.1676 12.1521 25.1756C12.1521 25.1969 12.1521 25.2183 12.1521 25.2396C12.0721 25.2076 11.9921 25.1756 11.9121 25.1436C11.9109 25.1236 11.9002 25.1103 11.8801 25.1036C11.8002 25.1135 11.7415 25.0843 11.7041 25.0156Z"
            fill="#3C8189" />
        <path fill-rule="evenodd" clip-rule="evenodd"
            d="M11.9121 25.1436C11.9921 25.1756 12.0721 25.2076 12.1521 25.2396C12.1657 25.2631 12.187 25.2764 12.2161 25.2796C12.301 25.2684 12.365 25.2976 12.4081 25.3676C12.3868 25.3676 12.3654 25.3676 12.3441 25.3676C12.3076 25.3367 12.265 25.3207 12.2161 25.3196C12.2108 25.3196 12.2054 25.3196 12.2001 25.3196C12.1467 25.3005 12.1014 25.2685 12.0641 25.2236C12.0241 25.2103 11.9841 25.1968 11.9441 25.1836C11.93 25.1722 11.9194 25.1589 11.9121 25.1436Z"
            fill="#689EA4" />
        <path fill-rule="evenodd" clip-rule="evenodd"
            d="M19.5761 24.9521C19.5915 24.9593 19.6047 24.9701 19.6161 24.9841C19.6356 25.0705 19.6116 25.1425 19.5441 25.2001C19.5289 25.2078 19.5129 25.2105 19.4961 25.2081C19.5803 25.1425 19.6068 25.0571 19.5761 24.9521Z"
            fill="#A9C8CC" />
        <path fill-rule="evenodd" clip-rule="evenodd"
            d="M19.5436 24.8564C19.5872 24.8636 19.622 24.8849 19.6476 24.9204C19.6583 25.0112 19.6583 25.1017 19.6476 25.1924C19.592 25.244 19.5253 25.268 19.4476 25.2644C19.4173 25.2875 19.3853 25.3062 19.3516 25.3204C19.392 25.2867 19.4293 25.2494 19.4636 25.2084C19.4743 25.2084 19.4848 25.2084 19.4956 25.2084C19.5124 25.2108 19.5284 25.2081 19.5436 25.2004C19.6111 25.1428 19.6351 25.0708 19.6156 24.9844C19.6042 24.9704 19.5909 24.9596 19.5756 24.9524C19.5504 24.9268 19.5397 24.8948 19.5436 24.8564Z"
            fill="#E4EDEF" />
        <path fill-rule="evenodd" clip-rule="evenodd"
            d="M11.6084 25.0156C11.6353 25.0219 11.6619 25.0299 11.6884 25.0396C11.7936 25.1255 11.9109 25.1923 12.0404 25.2396C12.0532 25.247 12.0585 25.2575 12.0564 25.2716C11.9918 25.262 11.9278 25.2487 11.8644 25.2316C11.8417 25.1502 11.7884 25.1129 11.7044 25.1196C11.6745 25.0819 11.6425 25.0471 11.6084 25.0156Z"
            fill="#D9E6E8" />
        <path fill-rule="evenodd" clip-rule="evenodd"
            d="M19.4636 25.208C19.4293 25.249 19.392 25.2862 19.3516 25.32C19.3296 25.3174 19.3082 25.3202 19.2876 25.328C19.244 25.3658 19.196 25.395 19.1436 25.416C19.1863 25.3787 19.2288 25.3413 19.2716 25.304C19.2893 25.303 19.3053 25.2978 19.3196 25.288C19.3701 25.2654 19.4181 25.2387 19.4636 25.208Z"
            fill="#9BBFC3" />
        <path fill-rule="evenodd" clip-rule="evenodd"
            d="M25.5764 25.2725C25.5274 25.3587 25.4582 25.4227 25.3684 25.4645C25.367 25.4485 25.3724 25.4352 25.3844 25.4245C25.4559 25.3821 25.5199 25.3313 25.5764 25.2725Z"
            fill="#D8F2F4" />
        <path fill-rule="evenodd" clip-rule="evenodd"
            d="M19.272 25.3037C19.2293 25.341 19.1867 25.3784 19.144 25.4157C19.1387 25.4157 19.1333 25.4157 19.128 25.4157C19.0576 25.4132 18.9989 25.4372 18.952 25.4877C18.8845 25.4999 18.8205 25.5184 18.76 25.5437C18.7586 25.5277 18.764 25.5144 18.776 25.5037C18.8571 25.5036 18.9264 25.477 18.984 25.4237C19.0373 25.4077 19.0907 25.3917 19.144 25.3757C19.185 25.3472 19.2277 25.3232 19.272 25.3037Z"
            fill="#6EA2A8" />
        <path fill-rule="evenodd" clip-rule="evenodd"
            d="M25.6083 25.1924C25.5976 25.2191 25.587 25.2457 25.5763 25.2724C25.5198 25.3313 25.4558 25.382 25.3843 25.4244C25.3723 25.4351 25.3669 25.4484 25.3683 25.4644C25.3339 25.5009 25.2912 25.5221 25.2403 25.5284C25.1976 25.5551 25.155 25.5817 25.1123 25.6084C25.1357 25.577 25.1624 25.5476 25.1923 25.5204C25.2624 25.4903 25.3264 25.4503 25.3843 25.4004C25.4449 25.3165 25.5197 25.2473 25.6083 25.1924Z"
            fill="#93D9E0" />
        <path fill-rule="evenodd" clip-rule="evenodd"
            d="M19.3524 25.3203C19.3359 25.3323 19.3172 25.343 19.2964 25.3523C19.2892 25.3846 19.2759 25.4139 19.2564 25.4403C19.2023 25.4475 19.149 25.4582 19.0964 25.4723C19.0856 25.4935 19.0751 25.515 19.0644 25.5363C18.9994 25.5417 18.9354 25.5524 18.8724 25.5683C18.8527 25.6025 18.8261 25.6292 18.7924 25.6483C18.7231 25.6535 18.6536 25.659 18.5844 25.6643C18.5242 25.7289 18.4495 25.7529 18.3604 25.7363C18.4375 25.7191 18.5068 25.6844 18.5684 25.6323C18.6324 25.627 18.6964 25.6215 18.7604 25.6163C18.7816 25.595 18.8031 25.5735 18.8244 25.5523C18.9316 25.5164 19.0328 25.471 19.1284 25.4163C19.1336 25.4163 19.1391 25.4163 19.1444 25.4163C19.1968 25.3953 19.2448 25.366 19.2884 25.3283C19.309 25.3204 19.3304 25.3177 19.3524 25.3203Z"
            fill="#DFEAEC" />
        <path fill-rule="evenodd" clip-rule="evenodd"
            d="M21.7676 25.1924C21.8218 25.2357 21.8804 25.273 21.9436 25.3044C21.997 25.3591 22.0503 25.4151 22.1036 25.4724C22.1303 25.4777 22.1569 25.4831 22.1836 25.4884C22.2335 25.5381 22.2922 25.5754 22.3596 25.6004C22.3725 25.6181 22.3831 25.6369 22.3916 25.6564C22.4925 25.7092 22.594 25.7625 22.6956 25.8164C22.6529 25.8111 22.6103 25.8057 22.5676 25.8004C22.5428 25.7821 22.5162 25.7661 22.4876 25.7524C22.4124 25.7173 22.3484 25.6666 22.2956 25.6004C22.2743 25.5951 22.2529 25.5897 22.2316 25.5844C22.1913 25.5402 22.1433 25.5082 22.0876 25.4884C21.9879 25.3805 21.8812 25.282 21.7676 25.1924Z"
            fill="#6BCBD5" />
        <path fill-rule="evenodd" clip-rule="evenodd"
            d="M12.3438 25.3682C12.3651 25.3682 12.3864 25.3682 12.4077 25.3682C12.4861 25.3894 12.5608 25.4242 12.6317 25.4722C12.6848 25.4862 12.7382 25.4995 12.7917 25.5122C12.7976 25.523 12.8029 25.5338 12.8077 25.5442C12.7183 25.5424 12.6329 25.5238 12.5517 25.4882C12.5411 25.4722 12.5304 25.4562 12.5197 25.4402C12.4664 25.4242 12.4131 25.4082 12.3597 25.3922C12.3509 25.3861 12.3455 25.3781 12.3438 25.3682Z"
            fill="#80AEB3" />
        <path fill-rule="evenodd" clip-rule="evenodd"
            d="M12.1523 25.2402C12.2371 25.2526 12.3224 25.258 12.4083 25.2562C12.4045 25.2878 12.4098 25.317 12.4243 25.3442C12.4982 25.3601 12.5729 25.3681 12.6483 25.3682C12.6483 25.395 12.6483 25.4215 12.6483 25.4482C12.7331 25.4606 12.8184 25.466 12.9043 25.4642C12.9039 25.4975 12.9146 25.527 12.9363 25.5522C13.0435 25.5569 13.1502 25.5649 13.2563 25.5762C13.2559 25.6095 13.2666 25.639 13.2883 25.6642C13.3821 25.6687 13.4754 25.6767 13.5683 25.6882C13.6025 25.7114 13.6372 25.7354 13.6723 25.7602C13.7182 25.7631 13.7608 25.7711 13.8003 25.7842C13.6945 25.7942 13.5985 25.7702 13.5123 25.7122C13.4754 25.7042 13.4381 25.7017 13.4003 25.7042C13.29 25.7212 13.194 25.6946 13.1123 25.6242C13.1106 25.6143 13.1052 25.6063 13.0963 25.6002C12.996 25.5948 12.9 25.5762 12.8083 25.5442C12.8035 25.5338 12.7982 25.5231 12.7923 25.5122C12.7388 25.4996 12.6854 25.4863 12.6323 25.4722C12.5614 25.4242 12.4867 25.3895 12.4083 25.3682C12.3653 25.2983 12.3013 25.269 12.2163 25.2802C12.1872 25.277 12.1659 25.2638 12.1523 25.2402Z"
            fill="#2D7780" />
        <path fill-rule="evenodd" clip-rule="evenodd"
            d="M12.2158 25.3203C12.2647 25.3214 12.3073 25.3374 12.3438 25.3683C12.3456 25.3782 12.3509 25.3862 12.3598 25.3923C12.4131 25.4083 12.4665 25.4243 12.5198 25.4403C12.5305 25.4563 12.5411 25.4723 12.5518 25.4883C12.633 25.524 12.7183 25.5426 12.8078 25.5443C12.8131 25.555 12.8185 25.5656 12.8238 25.5763C12.8367 25.596 12.8527 25.612 12.8718 25.6243C12.8499 25.6269 12.8285 25.6242 12.8078 25.6163C12.7472 25.5563 12.6725 25.5296 12.5838 25.5363C12.5083 25.477 12.423 25.4395 12.3278 25.4243C12.2818 25.3968 12.2444 25.3622 12.2158 25.3203Z"
            fill="#CADDDF" />
        <path fill-rule="evenodd" clip-rule="evenodd"
            d="M12.8076 25.5439C12.8992 25.5759 12.9952 25.5945 13.0956 25.5999C13.1045 25.606 13.1098 25.614 13.1116 25.6239C13.0134 25.6182 12.9174 25.6022 12.8236 25.5759C12.8183 25.5652 12.8129 25.5547 12.8076 25.5439Z"
            fill="#689EA4" />
        <path fill-rule="evenodd" clip-rule="evenodd"
            d="M19.4638 25.1758C19.4116 25.2065 19.3636 25.244 19.3198 25.2878C19.3055 25.2976 19.2895 25.3028 19.2718 25.3038C19.2274 25.3233 19.1847 25.3473 19.1438 25.3758C19.0905 25.3918 19.037 25.4078 18.9838 25.4238C18.9262 25.4771 18.8569 25.5036 18.7758 25.5038C18.7638 25.5145 18.7583 25.5278 18.7598 25.5438C18.758 25.5537 18.7527 25.5617 18.7438 25.5678C18.6428 25.5878 18.5468 25.6198 18.4558 25.6638C18.4188 25.6718 18.3815 25.6744 18.3438 25.6718C18.4287 25.5803 18.5354 25.5403 18.6638 25.5518C18.6905 25.5251 18.717 25.4985 18.7438 25.4718C18.8407 25.4784 18.926 25.4518 18.9998 25.3918C19.1215 25.3603 19.2335 25.3068 19.3358 25.2318C19.3623 25.1816 19.405 25.163 19.4638 25.1758Z"
            fill="#3E838B" />
        <path fill-rule="evenodd" clip-rule="evenodd"
            d="M25.2399 25.5283C25.219 25.5547 25.1977 25.5813 25.1759 25.6083C25.1108 25.6389 25.0521 25.6789 24.9999 25.7283C24.9738 25.7362 24.9471 25.7389 24.9199 25.7363C24.9377 25.7237 24.959 25.7157 24.9839 25.7123C25.013 25.6658 25.0505 25.631 25.0959 25.6083C25.1012 25.6083 25.1066 25.6083 25.1119 25.6083C25.1546 25.5816 25.1972 25.555 25.2399 25.5283Z"
            fill="#BFE9EC" />
        <path fill-rule="evenodd" clip-rule="evenodd"
            d="M19.128 25.4162C19.0325 25.4709 18.9312 25.5164 18.824 25.5522C18.8028 25.5735 18.7813 25.5949 18.76 25.6162C18.696 25.6215 18.632 25.6269 18.568 25.6322C18.5064 25.6844 18.4372 25.7191 18.36 25.7362C18.3032 25.7564 18.2447 25.7696 18.184 25.7762C18.1437 25.8122 18.0957 25.8255 18.04 25.8162C18.077 25.8031 18.109 25.7816 18.136 25.7522C18.21 25.7327 18.2792 25.7061 18.344 25.6722C18.3818 25.6748 18.4191 25.6722 18.456 25.6642C18.5471 25.6202 18.6431 25.5882 18.744 25.5682C18.753 25.5621 18.7583 25.5541 18.76 25.5442C18.8205 25.5189 18.8845 25.5004 18.952 25.4882C18.9989 25.4376 19.0576 25.4136 19.128 25.4162Z"
            fill="#A3C4C8" />
        <path fill-rule="evenodd" clip-rule="evenodd"
            d="M12.8242 25.5762C12.918 25.6024 13.014 25.6184 13.1122 25.6242C13.1938 25.6946 13.2898 25.7211 13.4002 25.7042C13.3997 25.7202 13.4077 25.7307 13.4242 25.7362C13.5005 25.7503 13.5725 25.7743 13.6402 25.8082C13.7149 25.8135 13.7895 25.8189 13.8642 25.8242C13.9473 25.8546 14.0327 25.8733 14.1202 25.8802C14.3425 25.9109 14.5665 25.9455 14.7922 25.9842C14.9867 25.9981 15.1787 26.0115 15.3682 26.0242C15.1548 26.0269 14.9415 26.0242 14.7282 26.0162C14.6012 26.0157 14.4786 25.9971 14.3602 25.9602C14.2759 25.9458 14.1905 25.9405 14.1042 25.9442C14.0115 25.9275 13.9208 25.8983 13.8322 25.8562C13.7311 25.8389 13.6298 25.8229 13.5282 25.8082C13.4251 25.7472 13.3131 25.7152 13.1922 25.7122C13.1361 25.6677 13.0721 25.6437 13.0002 25.6402C12.9569 25.6389 12.9143 25.6336 12.8722 25.6242C12.8531 25.6119 12.8371 25.5959 12.8242 25.5762Z"
            fill="#A7C6CA" />
        <path fill-rule="evenodd" clip-rule="evenodd"
            d="M25.0319 25.6084C25.0532 25.6084 25.0746 25.6084 25.0959 25.6084C25.0505 25.6311 25.013 25.6658 24.9839 25.7124C24.959 25.7158 24.9377 25.7238 24.9199 25.7364C24.9092 25.7364 24.8986 25.7364 24.8879 25.7364C24.849 25.7564 24.8116 25.7804 24.7759 25.8084C24.7553 25.8162 24.7338 25.819 24.7119 25.8164C24.7614 25.7994 24.8039 25.7702 24.8399 25.7284C24.9278 25.7228 24.9918 25.6828 25.0319 25.6084Z"
            fill="#91D9DF" />
        <path fill-rule="evenodd" clip-rule="evenodd"
            d="M18.3438 25.6719C18.279 25.7058 18.2097 25.7324 18.1358 25.7519C17.8666 25.8005 17.5999 25.854 17.3358 25.9119C17.145 25.9407 16.953 25.962 16.7598 25.9759C16.7665 25.9644 16.777 25.9564 16.7918 25.9519C17.0367 25.9199 17.282 25.8879 17.5278 25.8559C17.5705 25.8292 17.613 25.8026 17.6558 25.7759C17.7785 25.7706 17.901 25.7652 18.0238 25.7599C18.0487 25.7343 18.0753 25.7103 18.1038 25.6879C18.1831 25.672 18.2631 25.6666 18.3438 25.6719Z"
            fill="#3A8088" />
        <path fill-rule="evenodd" clip-rule="evenodd"
            d="M18.1359 25.752C18.1089 25.7814 18.0769 25.8028 18.0399 25.816C17.8815 25.8297 17.727 25.8592 17.5759 25.904C17.4961 25.912 17.4161 25.9147 17.3359 25.912C17.6001 25.854 17.8668 25.8006 18.1359 25.752Z"
            fill="#7BAAB0" />
        <path fill-rule="evenodd" clip-rule="evenodd"
            d="M13.4004 25.7041C13.4381 25.7015 13.4755 25.7041 13.5124 25.7121C13.5986 25.77 13.6946 25.794 13.8004 25.7841C13.8727 25.7978 13.9474 25.8113 14.0244 25.8241C14.0626 25.8359 14.0946 25.8546 14.1204 25.8801C14.0328 25.8732 13.9475 25.8545 13.8644 25.8241C13.7897 25.8188 13.7151 25.8134 13.6404 25.8081C13.5727 25.7742 13.5007 25.7502 13.4244 25.7361C13.4079 25.7306 13.3999 25.7201 13.4004 25.7041Z"
            fill="#679DA4" />
        <path fill-rule="evenodd" clip-rule="evenodd"
            d="M13.7998 25.7842C13.9013 25.7815 14.0026 25.7842 14.1038 25.7922C14.1211 25.8252 14.1478 25.8465 14.1838 25.8562C14.4398 25.8615 14.6958 25.8669 14.9518 25.8722C14.9641 25.8957 14.9747 25.9197 14.9838 25.9442C14.9251 25.9442 14.8665 25.9442 14.8078 25.9442C14.5799 25.9161 14.3506 25.8946 14.1198 25.8802C14.094 25.8548 14.062 25.8361 14.0238 25.8242C13.9468 25.8114 13.8721 25.798 13.7998 25.7842Z"
            fill="#25737C" />
        <path fill-rule="evenodd" clip-rule="evenodd"
            d="M13 25.6396C13.0719 25.6432 13.1359 25.6672 13.192 25.7116C13.3128 25.7147 13.4248 25.7467 13.528 25.8076C13.6296 25.8224 13.7309 25.8384 13.832 25.8556C13.9206 25.8977 14.0113 25.927 14.104 25.9436C14.0451 25.9464 13.9864 25.9436 13.928 25.9356C13.883 25.9065 13.835 25.8851 13.784 25.8716C13.6668 25.8592 13.5495 25.8486 13.432 25.8396C13.4107 25.8129 13.3893 25.7864 13.368 25.7596C13.2773 25.7544 13.1867 25.7489 13.096 25.7436C13.0626 25.7096 13.0306 25.675 13 25.6396Z"
            fill="#E2ECED" />
        <path fill-rule="evenodd" clip-rule="evenodd"
            d="M22.5684 25.7998C22.6111 25.8051 22.6536 25.8105 22.6964 25.8158C22.7183 25.8132 22.7397 25.816 22.7604 25.8238C22.7957 25.8654 22.8384 25.8947 22.8884 25.9118C22.8564 25.9118 22.8244 25.9118 22.7924 25.9118C22.7208 25.8665 22.6461 25.8292 22.5684 25.7998Z"
            fill="#A7E0E5" />
        <path fill-rule="evenodd" clip-rule="evenodd"
            d="M24.8876 25.7363C24.8425 25.8165 24.7732 25.8565 24.6796 25.8563C24.6583 25.8776 24.6369 25.899 24.6156 25.9203C24.5361 25.9346 24.4561 25.9451 24.3756 25.9523C24.3417 25.9565 24.3151 25.9725 24.2956 26.0003C24.2598 26.016 24.2225 26.024 24.1836 26.0243C24.1846 25.9835 24.2058 25.9595 24.2476 25.9523C24.3316 25.9336 24.4169 25.9229 24.5036 25.9203C24.5719 25.8808 24.6412 25.8461 24.7116 25.8163C24.7335 25.8189 24.755 25.8162 24.7756 25.8083C24.8113 25.7803 24.8487 25.7563 24.8876 25.7363Z"
            fill="#C7EBEE" />
        <path fill-rule="evenodd" clip-rule="evenodd"
            d="M24.7117 25.8164C24.6413 25.8462 24.572 25.8809 24.5037 25.9204C24.417 25.923 24.3317 25.9337 24.2477 25.9524C24.2059 25.9596 24.1847 25.9836 24.1837 26.0244C24.1784 26.0244 24.173 26.0244 24.1677 26.0244C23.8093 26.0338 23.452 26.0204 23.0957 25.9844C23.0283 25.9486 22.9589 25.9246 22.8877 25.9124C22.9573 25.9097 23.0266 25.9124 23.0957 25.9204C23.1883 25.9554 23.2843 25.9767 23.3837 25.9844C23.6295 25.9974 23.8747 25.9921 24.1197 25.9684C24.3183 25.9199 24.5157 25.8692 24.7117 25.8164Z"
            fill="#8ED8DE" />
        <path fill-rule="evenodd" clip-rule="evenodd"
            d="M25.0316 25.6084C24.9914 25.6828 24.9274 25.7228 24.8396 25.7284C24.8036 25.7702 24.761 25.7994 24.7116 25.8164C24.5156 25.8692 24.3182 25.9199 24.1196 25.9684C23.8746 25.9921 23.6294 25.9974 23.3836 25.9844C23.2842 25.9767 23.1882 25.9554 23.0956 25.9204C23.0265 25.9124 22.9572 25.9097 22.8876 25.9124C22.8377 25.8953 22.795 25.866 22.7596 25.8244C22.739 25.8166 22.7175 25.8138 22.6956 25.8164C22.594 25.7625 22.4926 25.7092 22.3916 25.6564C22.4868 25.6684 22.5722 25.7031 22.6476 25.7604C22.7513 25.749 22.8367 25.781 22.9036 25.8564C23.0318 25.8692 23.1598 25.8825 23.2876 25.8964C23.2854 25.9223 23.2961 25.941 23.3196 25.9524C23.527 25.9767 23.735 25.982 23.9436 25.9684C23.9983 25.9487 24.0516 25.9273 24.1036 25.9044C24.2266 25.89 24.3494 25.874 24.4716 25.8564C24.4964 25.8388 24.5178 25.8175 24.5356 25.7924C24.6113 25.779 24.6858 25.763 24.7596 25.7444C24.7737 25.7226 24.779 25.6986 24.7756 25.6724C24.8345 25.6751 24.8932 25.6724 24.9516 25.6644C24.9737 25.638 25.0004 25.6193 25.0316 25.6084Z"
            fill="#4AC0CB" />
        <path fill-rule="evenodd" clip-rule="evenodd"
            d="M14.1201 25.8799C14.3509 25.8943 14.5803 25.9157 14.8081 25.9439C14.8656 25.9543 14.9243 25.9677 14.9841 25.9839C15.5789 26.0178 16.1708 26.0151 16.7601 25.9759C16.9534 25.962 17.1454 25.9407 17.3361 25.9119C17.1728 25.9684 17.002 25.9978 16.8241 25.9999C16.3443 26.0196 15.8643 26.0276 15.3841 26.0239C15.3788 26.0239 15.3734 26.0239 15.3681 26.0239C15.1786 26.0112 14.9866 25.9978 14.7921 25.9839C14.5664 25.9452 14.3424 25.9106 14.1201 25.8799Z"
            fill="#689EA4" />
        <path fill-rule="evenodd" clip-rule="evenodd"
            d="M14.8076 25.9443C14.8663 25.9443 14.9249 25.9443 14.9836 25.9443C14.9903 25.9559 15.001 25.9639 15.0156 25.9683C15.5969 25.9763 16.1783 25.9791 16.7596 25.9763C16.1703 26.0155 15.5784 26.0183 14.9836 25.9843C14.9238 25.9682 14.8651 25.9547 14.8076 25.9443Z"
            fill="#3C828A" />
        <path fill-rule="evenodd" clip-rule="evenodd"
            d="M18.0398 25.8164C17.9815 25.8279 17.9228 25.8439 17.8638 25.8644C17.6782 25.925 17.4862 25.9543 17.2878 25.9524C17.2388 25.966 17.1908 25.982 17.1438 26.0004C16.9043 26.0191 16.6643 26.0297 16.4238 26.0324C16.3974 26.0422 16.3707 26.0502 16.3438 26.0564C16.0505 26.0564 15.7571 26.0564 15.4638 26.0564C15.4333 26.0516 15.4067 26.041 15.3838 26.0244C15.864 26.0281 16.3439 26.0201 16.8238 26.0004C17.0017 25.9983 17.1724 25.9689 17.3358 25.9124C17.4159 25.9151 17.4959 25.9124 17.5758 25.9044C17.7268 25.8596 17.8814 25.8302 18.0398 25.8164Z"
            fill="#A5C5C9" />
        <path fill-rule="evenodd" clip-rule="evenodd"
            d="M22.792 25.9121C22.824 25.9121 22.856 25.9121 22.888 25.9121C22.9592 25.9243 23.0286 25.9483 23.096 25.9841C23.4523 26.0201 23.8096 26.0335 24.168 26.0241C23.8454 26.0427 23.52 26.0454 23.192 26.0321C23.1547 26.0268 23.1173 26.0214 23.08 26.0161C23.0574 25.9942 23.0307 25.9807 23 25.9761C22.9243 25.9636 22.8549 25.9422 22.792 25.9121Z"
            fill="#C9ECF0" />
        <path fill-rule="evenodd" clip-rule="evenodd"
            d="M25.368 25.4639C25.3678 25.4882 25.3571 25.5067 25.336 25.5199C25.2608 25.5311 25.2181 25.5738 25.208 25.6479C25.176 25.6531 25.144 25.6586 25.112 25.6639C25.0784 25.6907 25.0571 25.7175 25.048 25.7439C25 25.7491 24.952 25.7546 24.904 25.7599C24.8894 25.7871 24.8842 25.8163 24.888 25.8479C24.823 25.8475 24.759 25.8555 24.696 25.8719C24.6763 25.9061 24.6498 25.9328 24.616 25.9519C24.5328 25.9557 24.4501 25.9637 24.368 25.9759C24.3458 26.0016 24.3218 26.0256 24.296 26.0479C23.8853 26.0586 23.4747 26.0586 23.064 26.0479C23.0298 26.0352 23.0083 26.0112 23 25.9759C23.0307 25.9805 23.0574 25.9939 23.08 26.0159C23.1173 26.0211 23.1547 26.0266 23.192 26.0319C23.52 26.0451 23.8454 26.0424 24.168 26.0239C24.1733 26.0239 24.1787 26.0239 24.184 26.0239C24.2229 26.0235 24.2602 26.0155 24.296 25.9999C24.3155 25.972 24.3421 25.956 24.376 25.9519C24.4565 25.9447 24.5365 25.9341 24.616 25.9199C24.6373 25.8986 24.6587 25.8771 24.68 25.8559C24.7736 25.856 24.8429 25.816 24.888 25.7359C24.8987 25.7359 24.9093 25.7359 24.92 25.7359C24.9472 25.7384 24.9739 25.7357 25 25.7279C25.0522 25.6784 25.1109 25.6384 25.176 25.6079C25.1978 25.5808 25.219 25.5543 25.24 25.5279C25.2909 25.5216 25.3336 25.5003 25.368 25.4639Z"
            fill="#EBF8F9" />
        <path fill-rule="evenodd" clip-rule="evenodd"
            d="M17.8644 25.8643C17.8535 25.9151 17.8215 25.9391 17.7684 25.9363C17.5653 25.9387 17.3679 25.9707 17.1764 26.0323C16.9311 26.0375 16.6856 26.043 16.4404 26.0483C16.4263 26.07 16.421 26.094 16.4244 26.1203C16.0671 26.1203 15.7097 26.1203 15.3524 26.1203C15.3524 26.099 15.3524 26.0775 15.3524 26.0563C15.0801 26.0579 14.8081 26.0499 14.5364 26.0323C14.4688 26.0251 14.4102 26.0011 14.3604 25.9603C14.4787 25.9972 14.6014 26.0158 14.7284 26.0163C14.9416 26.0243 15.155 26.027 15.3684 26.0243C15.3737 26.0243 15.379 26.0243 15.3844 26.0243C15.4072 26.0409 15.4339 26.0515 15.4644 26.0563C15.4644 26.0723 15.4644 26.0883 15.4644 26.1043C15.7577 26.1043 16.0511 26.1043 16.3444 26.1043C16.3444 26.0883 16.3444 26.0723 16.3444 26.0563C16.3712 26.05 16.398 26.042 16.4244 26.0323C16.6648 26.0295 16.9048 26.019 17.1444 26.0003C17.1914 25.9819 17.2394 25.9659 17.2884 25.9523C17.4868 25.9542 17.6788 25.9249 17.8644 25.8643Z"
            fill="#D3E3E4" />
        <path fill-rule="evenodd" clip-rule="evenodd"
            d="M15.4639 26.0557C15.7572 26.0557 16.0506 26.0557 16.3439 26.0557C16.3439 26.0717 16.3439 26.0877 16.3439 26.1037C16.0506 26.1037 15.7572 26.1037 15.4639 26.1037C15.4639 26.0877 15.4639 26.0717 15.4639 26.0557Z"
            fill="#C1D7DA" />
    </g>
    <defs>
        <clipPath id="clip0_4920_466">
            <rect width="32" height="32" fill="white" />
        </clipPath>
    </defs>
</svg>