<svg width="32" height="32" viewBox="0 0 32 32" fill="none" xmlns="http://www.w3.org/2000/svg">
    <path fill-rule="evenodd" clip-rule="evenodd"
        d="M17.2101 0C17.6583 0 18.1065 0 18.5547 0C21.5132 2.64504 24.2471 5.51338 26.7564 8.60504C26.9561 9.48784 26.7768 10.2946 26.2185 11.0252C25.133 12.0656 24.1021 13.1412 23.1261 14.2521C22.0505 15.1484 21.0645 16.1345 20.1681 17.2101C20.1681 17.2997 20.1681 17.3894 20.1681 17.479C19.0197 18.1784 18.0337 19.0747 17.2101 20.1681C16.0993 21.1441 15.0236 22.1749 13.9832 23.2605C10.8389 23.4612 7.70164 23.4164 4.57148 23.126C4.07624 22.6716 3.71769 22.1338 3.49585 21.5126C3.49585 18.7339 3.49585 15.9552 3.49585 13.1765C7.97857 8.69381 12.55 4.30163 17.2101 0Z"
        fill="#1EE76A" />
    <path fill-rule="evenodd" clip-rule="evenodd"
        d="M23.1261 14.252C23.4003 15.5275 23.7588 16.7824 24.2017 18.0167C24.1121 18.1063 24.0224 18.1959 23.9328 18.2856C22.6744 17.9263 21.4196 17.5677 20.1681 17.2099C21.0644 16.1343 22.0504 15.1483 23.1261 14.252Z"
        fill="#F6FCF7" />
    <path fill-rule="evenodd" clip-rule="evenodd"
        d="M23.1262 14.252C24.5032 14.5166 25.8029 14.9648 27.0253 15.5965C27.4638 17.36 27.9568 19.1079 28.5043 20.8402C28.339 21.5164 28.0701 22.1439 27.6976 22.7225C25.7747 23.5612 23.8026 24.2335 21.7816 24.7393C18.4773 25.5878 15.1607 26.3946 11.832 27.1595C11.4735 27.1146 11.1149 27.07 10.7564 27.0251C8.77706 25.6768 6.71545 24.4667 4.57153 23.3948C4.57153 23.3052 4.57153 23.2155 4.57153 23.1259C7.7017 23.4162 10.839 23.461 13.9833 23.2604C15.0237 22.1748 16.0993 21.1439 17.2102 20.1679C18.4455 20.5215 19.7004 20.7904 20.9749 20.9746C20.6504 19.8221 20.3815 18.6568 20.1682 17.4788C20.1682 17.3892 20.1682 17.2996 20.1682 17.2099C21.4196 17.5677 22.6745 17.9263 23.9329 18.2856C24.0225 18.1959 24.1122 18.1063 24.2018 18.0167C23.7589 16.7824 23.4003 15.5275 23.1262 14.252Z"
        fill="#08CA4D" />
    <path fill-rule="evenodd" clip-rule="evenodd"
        d="M8.60514 15.5967C11.3121 15.7463 11.9396 16.9564 10.4875 19.2269C8.11215 19.7199 7.17097 18.7787 7.66396 16.4034C7.97189 16.0978 8.2856 15.8289 8.60514 15.5967Z"
        fill="#F4FDF7" />
    <path fill-rule="evenodd" clip-rule="evenodd"
        d="M20.1681 17.479C20.3814 18.657 20.6503 19.8222 20.9748 20.9748C19.7003 20.7906 18.4454 20.5217 17.2101 20.1681C18.0337 19.0748 19.0197 18.1784 20.1681 17.479Z"
        fill="#FAFDFB" />
    <path fill-rule="evenodd" clip-rule="evenodd"
        d="M4.57153 23.395C6.71545 24.4669 8.77706 25.677 10.7564 27.0253C11.1149 27.0702 11.4735 27.1148 11.832 27.1597C15.1607 26.3948 18.4773 25.588 21.7816 24.7396C21.2632 26.5198 20.7702 28.3125 20.3026 30.1177C20.0288 31.0629 19.4462 31.6903 18.5547 32.0001C18.1065 32.0001 17.6584 32.0001 17.2102 32.0001C14.2317 31.0239 11.1841 30.1723 8.06733 29.4454C6.79806 27.4897 5.6328 25.4728 4.57153 23.395Z"
        fill="#059A39" />
</svg>