<svg width="32" height="32" viewBox="0 0 33 33" fill="none" xmlns="http://www.w3.org/2000/svg">
    <path fill-rule="evenodd" clip-rule="evenodd"
        d="M14.7222 0.5C15.6704 0.5 16.6185 0.5 17.5667 0.5C23.0048 1.03651 27.1766 3.59651 30.0822 8.18C30.354 9.0094 30.7096 9.81531 31.1489 10.5978C31.4797 11.7791 31.7879 12.9642 32.0733 14.1533C32.1868 14.0884 32.2342 13.9935 32.2156 13.8689C32.3104 14.2482 32.4051 14.6274 32.5 15.0067C32.5 15.7651 32.5 16.5238 32.5 17.2822C32.3394 19.3642 31.8179 21.3553 30.9356 23.2556C30.7046 23.2755 30.5388 23.1806 30.4378 22.9711C30.2933 23.1324 30.1984 23.085 30.1533 22.8289C30.1691 23.1109 30.2402 23.3954 30.3667 23.6822C30.269 23.9173 30.1741 24.1543 30.0822 24.3933C29.8926 24.3933 29.7029 24.3933 29.5133 24.3933C29.3065 24.888 29.1643 25.4095 29.0867 25.9578C28.937 25.9366 28.7948 25.9602 28.66 26.0289C28.494 26.3844 28.2333 26.6451 27.8778 26.8111C27.8074 27.0917 27.7836 27.3762 27.8067 27.6644C25.6514 29.9996 22.9966 31.4929 19.8422 32.1444C19.1544 32.2412 18.4907 32.3598 17.8511 32.5C16.9029 32.5 15.9549 32.5 15.0067 32.5C6.56645 31.0289 1.73089 26.0511 0.5 17.5667C0.5 16.8082 0.5 16.0496 0.5 15.2911C0.717023 13.6122 1.11999 11.9529 1.70889 10.3133C4.32174 4.75236 8.65952 1.48125 14.7222 0.5Z"
        fill="#013C6B" />
    <path fill-rule="evenodd" clip-rule="evenodd"
        d="M30.082 8.17969C31.2396 9.89711 31.9507 11.7934 32.2154 13.8686C32.234 13.9932 32.1866 14.088 32.0731 14.153C31.7877 12.9639 31.4795 11.7787 31.1487 10.5975C30.7094 9.815 30.3538 9.00908 30.082 8.17969Z"
        fill="#193A56" />
    <path fill-rule="evenodd" clip-rule="evenodd"
        d="M27.9489 15.86C27.7973 15.6905 27.6789 15.7378 27.5934 16.0022C27.4067 16.5597 27.2644 17.1286 27.1667 17.7089C26.9129 17.1132 26.6995 16.497 26.5267 15.86C26.3845 15.6704 26.2423 15.6704 26.1001 15.86C25.9085 16.4841 25.6951 17.1003 25.4601 17.7089C25.334 17.0144 25.1207 16.3507 24.8201 15.7178C24.7727 15.8126 24.7252 15.9073 24.6778 16.0022C24.8868 16.7238 25.1238 17.435 25.3889 18.1355C25.528 18.0677 25.6465 17.973 25.7445 17.8511C25.8512 17.2937 26.0407 16.7723 26.3134 16.2867C26.4569 16.5035 26.528 16.7406 26.5267 16.9978C26.4343 17.041 26.3394 17.0884 26.2423 17.14C26.1433 17.5746 26.0247 18.0013 25.8867 18.42C25.6883 18.233 25.5461 18.2805 25.4601 18.5622C25.0918 18.4432 24.8311 18.2062 24.6778 17.8511C24.5261 18.1439 24.3365 18.4046 24.1089 18.6333C23.8275 18.7306 23.5904 18.6595 23.3978 18.42C23.2522 18.6124 23.0626 18.7073 22.8289 18.7044C22.6577 18.3867 22.4919 18.0549 22.3312 17.7089C22.3074 17.4955 22.2838 17.2822 22.2601 17.0689C22.2699 16.7864 22.3646 16.5731 22.5445 16.4289C22.469 17.08 22.6586 17.6251 23.1134 18.0644C23.6066 18.2182 24.0333 18.1235 24.3934 17.78C23.977 17.8448 23.5503 17.8448 23.1134 17.78C23.0053 17.575 22.9106 17.3617 22.8289 17.14C23.39 16.999 23.9589 16.9517 24.5356 16.9978C24.5592 15.9172 24.0377 15.5142 22.9712 15.7889C22.8096 15.9517 22.6674 16.1177 22.5445 16.2867C22.5537 16.2244 22.5301 16.1769 22.4734 16.1444C22.1889 16.2393 21.9045 16.334 21.6201 16.4289C21.5569 17.0919 21.7229 17.6846 22.1178 18.2067C21.9393 18.5565 21.6549 18.7225 21.2645 18.7044C21.274 18.4969 21.2267 18.3073 21.1223 18.1355C21.2396 17.5457 21.3107 16.9294 21.3356 16.2867C21.4541 16.1682 21.5727 16.0496 21.6912 15.9311C21.9979 15.92 22.2824 15.8963 22.5445 15.86C22.2255 15.7215 21.8937 15.674 21.5489 15.7178C21.3771 15.6134 21.1876 15.566 20.9801 15.5755C20.9801 16.3815 20.9801 17.1873 20.9801 17.9933C20.5784 18.0629 20.3888 18.3 20.4112 18.7044C19.9814 18.7269 19.6969 18.5373 19.5578 18.1355C20.4961 18.1101 20.8516 17.6361 20.6245 16.7133C20.1505 16.4289 20.1505 16.1444 20.6245 15.86C20.8441 15.1314 20.5833 14.681 19.8423 14.5089C19.3229 14.438 18.8015 14.4143 18.2778 14.4378C19.1425 14.0494 20.0196 14.0968 20.9089 14.58C21.958 14.3493 23.0246 14.207 24.1089 14.1533C24.0866 14.3486 24.1104 14.5383 24.1801 14.7222C24.6807 14.991 25.0837 15.2755 25.3889 15.5755C25.5039 15.849 25.575 16.1335 25.6023 16.4289C25.7682 16.0971 25.9341 15.7651 26.1001 15.4333C26.2692 15.3012 26.4587 15.2538 26.6689 15.2911C26.7531 15.6647 26.8005 16.044 26.8112 16.4289C26.9534 16.4289 27.0956 16.4289 27.2378 16.4289C27.2337 15.9662 27.3995 15.5871 27.7356 15.2911C27.8273 15.4541 27.9458 15.5963 28.0912 15.7178C28.0735 15.8041 28.0262 15.8515 27.9489 15.86Z"
        fill="#133D60" />
    <path fill-rule="evenodd" clip-rule="evenodd"
        d="M20.98 14.8643C21.7385 14.8643 22.4971 14.8643 23.2555 14.8643C23.2797 15.0523 23.2324 15.2182 23.1133 15.362C22.4038 15.433 21.6927 15.4568 20.98 15.4331C20.98 15.2436 20.98 15.0538 20.98 14.8643Z"
        fill="#043972" />
    <path fill-rule="evenodd" clip-rule="evenodd"
        d="M4.90869 14.4375C5.76202 14.4375 6.61536 14.4375 7.46869 14.4375C7.46869 14.6745 7.46869 14.9115 7.46869 15.1486C7.18425 15.1486 6.8998 15.1486 6.61536 15.1486C6.61536 16.1442 6.61536 17.1397 6.61536 18.1353C6.37832 18.1353 6.14129 18.1353 5.90425 18.1353C5.90425 17.1397 5.90425 16.1442 5.90425 15.1486C5.5724 15.1486 5.24054 15.1486 4.90869 15.1486C4.90869 14.9115 4.90869 14.6745 4.90869 14.4375Z"
        fill="#DFECF0" />
    <path fill-rule="evenodd" clip-rule="evenodd"
        d="M15.5757 18.1358C15.5993 17.5177 15.5755 16.9015 15.5046 16.2869C15.2629 16.1581 15.0021 16.1107 14.7223 16.1447C14.7223 16.8085 14.7223 17.4721 14.7223 18.1358C14.4853 18.1358 14.2483 18.1358 14.0112 18.1358C14.0112 17.804 14.0112 17.4721 14.0112 17.1403C14.0112 16.761 14.0112 16.3818 14.0112 16.0025C14.0112 15.8129 14.0112 15.6232 14.0112 15.4336C14.5658 15.5307 15.1346 15.5545 15.7179 15.5047C15.8364 15.6232 15.955 15.7418 16.0735 15.8603C16.1444 16.6173 16.1682 17.3758 16.1446 18.1358C15.955 18.1358 15.7653 18.1358 15.5757 18.1358Z"
        fill="#E4F2F5" />
    <path fill-rule="evenodd" clip-rule="evenodd"
        d="M18.2778 14.4375C18.8015 14.414 19.3229 14.4377 19.8423 14.5086C20.5833 14.6808 20.8441 15.1311 20.6245 15.8597C20.1505 16.1442 20.1505 16.4286 20.6245 16.713C20.8516 17.6358 20.4961 18.1098 19.5578 18.1353C19.4156 18.1353 19.2734 18.1353 19.1312 18.1353C18.8467 18.1353 18.5623 18.1353 18.2778 18.1353C18.2778 16.9501 18.2778 15.7649 18.2778 14.5797C18.2778 14.5323 18.2778 14.4849 18.2778 14.4375Z"
        fill="#C4E3F3" />
    <path fill-rule="evenodd" clip-rule="evenodd"
        d="M22.5445 16.4286C22.5445 16.3812 22.5445 16.3337 22.5445 16.2863C22.6673 16.1174 22.8096 15.9514 22.9711 15.7886C24.0376 15.5139 24.5592 15.9168 24.5356 16.9975C23.9589 16.9514 23.39 16.9987 22.8289 17.1397C22.9105 17.3614 23.0053 17.5747 23.1133 17.7797C23.5503 17.8445 23.9769 17.8445 24.3933 17.7797C24.0332 18.1231 23.6066 18.2179 23.1133 18.0641C22.6585 17.6248 22.4689 17.0797 22.5445 16.4286Z"
        fill="#C0E1F0" />
    <path fill-rule="evenodd" clip-rule="evenodd"
        d="M13.3001 15.718C13.5515 16.0966 13.6463 16.5233 13.5845 16.998C13.0339 16.9532 12.5124 17.0006 12.0201 17.1402C12.0079 17.2819 12.0553 17.4003 12.1623 17.4958C12.5035 17.5969 12.8353 17.5731 13.1579 17.4247C13.5349 17.697 13.4875 17.9103 13.0156 18.0647C11.9515 18.3508 11.3826 17.9479 11.309 16.8558C11.2831 16.3112 11.4728 15.8845 11.8779 15.5758C12.374 15.3738 12.848 15.4213 13.3001 15.718Z"
        fill="#DFF3F5" />
    <path fill-rule="evenodd" clip-rule="evenodd"
        d="M18.562 14.7226C18.9912 14.6992 19.4179 14.7229 19.842 14.7937C20.6005 15.2204 20.6005 15.647 19.842 16.0737C19.4179 16.1445 18.9912 16.1683 18.562 16.1448C18.562 15.6708 18.562 15.1966 18.562 14.7226Z"
        fill="#1D4262" />
    <path fill-rule="evenodd" clip-rule="evenodd"
        d="M23.2558 15.8598C23.781 15.8151 24.1129 16.0521 24.2513 16.5709C23.7773 16.7605 23.3031 16.7605 22.8291 16.5709C22.9372 16.3064 23.0794 16.0693 23.2558 15.8598Z"
        fill="#1A3855" />
    <path fill-rule="evenodd" clip-rule="evenodd"
        d="M12.1625 16.0018C12.5575 15.9339 12.842 16.0761 13.0158 16.4285C12.6968 16.567 12.365 16.6145 12.0203 16.5707C12.0107 16.3632 12.0581 16.1736 12.1625 16.0018Z"
        fill="#2D3E4F" />
    <path fill-rule="evenodd" clip-rule="evenodd"
        d="M21.5489 15.7176C21.4509 15.8988 21.3323 15.8988 21.1933 15.7176C21.1223 16.5222 21.0986 17.3282 21.1222 18.1354C21.0273 18.1354 20.98 18.0881 20.98 17.9932C20.98 17.1872 20.98 16.3814 20.98 15.5754C21.1875 15.5659 21.3771 15.6132 21.5489 15.7176Z"
        fill="#8CA2AA" />
    <path fill-rule="evenodd" clip-rule="evenodd"
        d="M21.5488 15.7179C21.8935 15.6741 22.2253 15.7216 22.5443 15.8601C22.2822 15.8964 21.9978 15.9202 21.691 15.9312C21.5725 16.0497 21.4539 16.1683 21.3354 16.2868C21.3106 16.9295 21.2394 17.5459 21.1221 18.1357C21.0985 17.3284 21.1223 16.5225 21.1932 15.7179C21.3322 15.8991 21.4508 15.8991 21.5488 15.7179Z"
        fill="#DEF8FB" />
    <path fill-rule="evenodd" clip-rule="evenodd"
        d="M27.9488 15.86C27.7504 16.6556 27.466 17.4141 27.0955 18.1356C26.8768 17.7589 26.687 17.3796 26.5266 16.9978C26.5279 16.7406 26.4568 16.5036 26.3133 16.2867C26.0406 16.7724 25.8511 17.2937 25.7444 17.8511C25.6464 17.973 25.5279 18.0677 25.3888 18.1356C25.1237 17.435 24.8867 16.7239 24.6777 16.0022C24.7251 15.9074 24.7726 15.8126 24.82 15.7178C25.1206 16.3507 25.3339 17.0144 25.46 17.7089C25.695 17.1003 25.9084 16.4841 26.1 15.86C26.2422 15.6704 26.3844 15.6704 26.5266 15.86C26.6994 16.497 26.9128 17.1133 27.1666 17.7089C27.2643 17.1286 27.4066 16.5597 27.5933 16.0022C27.6788 15.7378 27.7972 15.6905 27.9488 15.86Z"
        fill="#C4DFEC" />
    <path fill-rule="evenodd" clip-rule="evenodd"
        d="M13.3 15.7174C13.5864 15.7021 13.8235 15.7968 14.0111 16.0019C14.0111 16.3812 14.0111 16.7603 14.0111 17.1396C13.3474 17.1396 12.6837 17.1396 12.02 17.1396C12.5124 17 13.0339 16.9526 13.5845 16.9974C13.6463 16.5227 13.5515 16.096 13.3 15.7174Z"
        fill="#2B4759" />
    <path fill-rule="evenodd" clip-rule="evenodd"
        d="M18.562 16.4286C19.1894 16.3605 19.782 16.4553 20.3398 16.713C20.4871 17.1653 20.3687 17.5209 19.9842 17.7797C19.5125 17.8505 19.0385 17.8743 18.562 17.8508C18.562 17.3768 18.562 16.9026 18.562 16.4286Z"
        fill="#0D3A65" />
    <path fill-rule="evenodd" clip-rule="evenodd"
        d="M9.45992 16.4293C9.45992 16.9508 9.45992 17.4722 9.45992 17.9937C9.05164 18.0156 8.62497 18.0631 8.17992 18.136C7.37608 18.0701 7.11534 17.6434 7.39769 16.856C7.79966 16.5943 8.25002 16.4996 8.74881 16.5715C8.74881 16.3819 8.74881 16.1922 8.74881 16.0026C8.36281 16.0382 7.98356 16.0619 7.61103 16.0737C7.43652 15.848 7.48392 15.6583 7.75325 15.5049C8.28574 15.3727 8.78352 15.4438 9.24658 15.7182C9.39003 15.9351 9.46114 16.1722 9.45992 16.4293Z"
        fill="#E5F3F4" />
    <path fill-rule="evenodd" clip-rule="evenodd"
        d="M8.0376 16.998C8.27464 16.998 8.51167 16.998 8.74871 16.998C8.74871 17.1876 8.74871 17.3774 8.74871 17.5669C8.51167 17.5669 8.27464 17.5669 8.0376 17.5669C8.0376 17.3774 8.0376 17.1876 8.0376 16.998Z"
        fill="#233A4F" />
    <path fill-rule="evenodd" clip-rule="evenodd"
        d="M18.2779 14.58C18.2779 15.7651 18.2779 16.9504 18.2779 18.1355C18.5624 18.1355 18.8468 18.1355 19.1313 18.1355C19.0643 18.3348 18.9694 18.5244 18.8468 18.7044C18.4005 18.5275 17.9264 18.4326 17.4246 18.42C16.9979 18.4437 16.5713 18.4673 16.1446 18.4911C16.0735 18.5622 16.0024 18.6333 15.9313 18.7044C15.7755 18.5348 15.6571 18.345 15.5757 18.1355C15.7653 18.1355 15.955 18.1355 16.1446 18.1355C16.1682 17.3755 16.1445 16.617 16.0735 15.86C15.955 15.7415 15.8364 15.6229 15.7179 15.5044C15.1347 15.5542 14.5658 15.5305 14.0113 15.4333C14.0113 15.6229 14.0113 15.8126 14.0113 16.0022C13.8236 15.7971 13.5866 15.7024 13.3002 15.7178C12.8481 15.4211 12.374 15.3736 11.8779 15.5755C12.0981 15.3915 12.3825 15.2966 12.7313 15.2911C13.0525 15.2956 13.3607 15.3432 13.6557 15.4333C13.9086 15.2176 13.8375 15.099 13.4424 15.0778C13.8926 14.4922 14.1297 14.5159 14.1535 15.1489C14.3431 15.1489 14.5327 15.1489 14.7224 15.1489C14.6523 14.8209 14.6049 14.4891 14.5802 14.1533C14.8646 14.1533 15.149 14.1533 15.4335 14.1533C15.3861 14.4378 15.3386 14.7222 15.2913 15.0067C15.6354 14.9771 15.9672 15.0246 16.2868 15.1489C16.3342 15.054 16.3817 14.9593 16.429 14.8644C16.3225 14.646 16.1803 14.4564 16.0024 14.2955C16.0735 14.2481 16.1446 14.2007 16.2157 14.1533C16.3894 14.2631 16.5316 14.4053 16.6424 14.58C16.7532 14.4053 16.8954 14.2631 17.069 14.1533C17.296 14.295 17.5094 14.461 17.709 14.6511C17.9121 14.7335 18.1019 14.7098 18.2779 14.58Z"
        fill="#123C60" />
    <path fill-rule="evenodd" clip-rule="evenodd"
        d="M17.4246 14.7227C17.4246 15.0071 17.4246 15.2915 17.4246 15.576C17.5668 15.576 17.7091 15.576 17.8513 15.576C17.8513 15.7182 17.8513 15.8604 17.8513 16.0027C17.7091 16.0027 17.5668 16.0027 17.4246 16.0027C17.3801 16.5064 17.4276 16.9804 17.5668 17.4249C17.6677 17.5534 17.8099 17.6008 17.9935 17.5671C17.9935 17.7567 17.9935 17.9464 17.9935 18.136C17.7052 18.159 17.4208 18.1353 17.1402 18.0649C16.952 17.9488 16.8573 17.7829 16.8557 17.5671C16.8938 16.8777 16.7991 16.214 16.5713 15.576C16.8284 15.3743 16.9233 15.0899 16.8557 14.7227C17.0453 14.7227 17.235 14.7227 17.4246 14.7227Z"
        fill="#EBF5F8" />
    <path fill-rule="evenodd" clip-rule="evenodd"
        d="M16.5709 15.5752C16.7988 16.2132 16.8935 16.877 16.8554 17.5663C16.77 17.0015 16.6278 16.4327 16.4287 15.8596C16.4348 15.7294 16.4822 15.6345 16.5709 15.5752Z"
        fill="#67849C" />
    <path fill-rule="evenodd" clip-rule="evenodd"
        d="M17.4244 14.7227C17.5596 14.9245 17.607 15.1614 17.5666 15.4338C17.7088 15.4338 17.851 15.4338 17.9932 15.4338C17.9932 15.6709 17.9932 15.9078 17.9932 16.1449C17.851 16.1449 17.7088 16.1449 17.5666 16.1449C17.5666 16.5715 17.5666 16.9982 17.5666 17.4249C17.4273 16.9804 17.3798 16.5064 17.4244 16.0027C17.5666 16.0027 17.7088 16.0027 17.851 16.0027C17.851 15.8604 17.851 15.7182 17.851 15.576C17.7088 15.576 17.5666 15.576 17.4244 15.576C17.4244 15.2915 17.4244 15.0071 17.4244 14.7227Z"
        fill="#627C8D" />
    <path fill-rule="evenodd" clip-rule="evenodd"
        d="M11.3088 16.8555C11.3825 17.9477 11.9514 18.3506 13.0155 18.0644C13.4873 17.9101 13.5347 17.6968 13.1577 17.4244C12.8352 17.5729 12.5034 17.5967 12.1622 17.4955C12.0552 17.4001 12.0078 17.2816 12.02 17.14C12.6837 17.14 13.3474 17.14 14.0111 17.14C14.0111 17.4718 14.0111 17.8037 14.0111 18.1355C13.618 18.2307 13.2624 18.4203 12.9444 18.7044C12.5926 18.5598 12.2371 18.5598 11.8777 18.7044C11.8777 18.5622 11.8777 18.42 11.8777 18.2778C11.5555 18.2267 11.2947 18.3216 11.0955 18.5622C11.0045 18.2923 10.8149 18.2448 10.5266 18.42C10.2388 18.2759 9.97805 18.0863 9.74441 17.8511C9.6472 17.9027 9.55239 17.9501 9.45996 17.9933C9.45996 17.4718 9.45996 16.9504 9.45996 16.4289C9.55433 16.6482 9.64914 16.8853 9.74441 17.14C9.90961 16.4814 9.93332 15.8176 9.81552 15.1489C9.49274 14.8907 9.39792 14.559 9.53107 14.1533C9.57847 14.2955 9.62589 14.4378 9.67329 14.58C9.81829 14.4111 9.98421 14.2689 10.1711 14.1533C10.3904 14.3306 10.6037 14.3306 10.8111 14.1533C11.076 14.4202 11.2893 14.7283 11.4511 15.0778C11.271 15.1217 11.1051 15.1928 10.9533 15.2911C10.8824 15.8105 10.8587 16.3319 10.8822 16.8555C11.0244 16.8555 11.1666 16.8555 11.3088 16.8555Z"
        fill="#173C61" />
    <path fill-rule="evenodd" clip-rule="evenodd"
        d="M10.0288 14.58C10.2306 14.4448 10.4676 14.3973 10.7399 14.4378C10.7399 15.4334 10.7399 16.4289 10.7399 17.4245C10.599 16.503 10.5516 15.5548 10.5977 14.58C10.4081 14.58 10.2184 14.58 10.0288 14.58Z"
        fill="#98AEBD" />
    <path fill-rule="evenodd" clip-rule="evenodd"
        d="M10.0289 14.5801C10.2185 14.5801 10.4081 14.5801 10.5978 14.5801C10.5517 15.5549 10.5991 16.5031 10.74 17.4245C10.8408 17.5531 10.983 17.6005 11.1667 17.5667C11.1667 17.7563 11.1667 17.9461 11.1667 18.1356C10.7123 18.2123 10.3567 18.0701 10.1 17.709C10.0289 16.667 10.0052 15.6241 10.0289 14.5801Z"
        fill="#EEF9FB" />
    <path fill-rule="evenodd" clip-rule="evenodd"
        d="M30.9357 23.2558C30.2232 24.9633 29.1803 26.4329 27.8069 27.6647C27.7838 27.3764 27.8076 27.0919 27.878 26.8113C28.2335 26.6454 28.4942 26.3847 28.6602 26.0291C28.795 25.9604 28.9372 25.9368 29.0869 25.958C29.1645 25.4097 29.3067 24.8882 29.5135 24.3935C29.7031 24.3935 29.8928 24.3935 30.0824 24.3935C30.1743 24.1545 30.2691 23.9175 30.3669 23.6824C30.2404 23.3956 30.1693 23.1111 30.1535 22.8291C30.1986 23.0852 30.2935 23.1326 30.438 22.9713C30.5389 23.1808 30.7048 23.2757 30.9357 23.2558Z"
        fill="#113C5E" />
</svg>