<svg width="32" height="32" viewBox="0 0 33 33" fill="none" xmlns="http://www.w3.org/2000/svg">
    <path fill-rule="evenodd" clip-rule="evenodd"
        d="M7.4177 0.31543H25.1956C29.1068 0.31543 32.3066 3.51543 32.3066 7.42629V25.2046C32.3066 29.1155 29.1065 32.3154 25.1956 32.3154H7.4177C3.50642 32.3154 0.306641 29.1155 0.306641 25.2046V7.42602C0.306641 3.51543 3.50642 0.31543 7.4177 0.31543Z"
        fill="#DD1D1D" />
    <path fill-rule="evenodd" clip-rule="evenodd"
        d="M12.7512 26.9819H21.6403V21.6484H14.5289C12.5737 21.6484 10.9732 20.0479 10.9732 18.0928V10.9819H5.64014V19.8708C5.64014 23.7819 8.84021 26.9819 12.7512 26.9819Z"
        fill="white" />
    <path fill-rule="evenodd" clip-rule="evenodd"
        d="M19.8624 5.64893H10.9736V10.9821H18.0847C20.0399 10.9821 21.6404 12.5826 21.6404 14.5377V21.6489H26.9738V12.7598C26.9738 8.84893 23.7737 5.64893 19.8624 5.64893Z"
        fill="white" />
</svg>