<svg width="32" height="32" viewBox="0 0 32 32" fill="none" xmlns="http://www.w3.org/2000/svg">
<path opacity="0.702" fill-rule="evenodd" clip-rule="evenodd" d="M12.8 0.75293C13.051 0.75293 13.302 0.75293 13.553 0.75293C14.1457 1.52374 14.5222 2.40218 14.6824 3.38822C15.9002 3.80044 16.5904 4.67887 16.753 6.02352C17.3359 7.52213 17.3987 9.02802 16.9412 10.5412C18.3543 12.1435 19.5464 13.9003 20.5177 15.8118C22.2777 17.7584 24.4738 18.6368 27.1059 18.447C27.0388 22.7227 25.282 26.1109 21.8353 28.6118C22.5882 28.8627 23.3412 29.1137 24.0941 29.3647C23.6484 29.9468 23.2719 30.5742 22.9647 31.247C22.5967 31.0676 22.283 30.8166 22.0235 30.4941C21.9297 30.9173 21.7415 31.2937 21.4588 31.6235C20.9846 30.926 20.9846 30.2358 21.4588 29.5529C21.2611 29.2923 21.0101 29.104 20.7059 28.9882C17.6596 29.9888 14.6479 29.8633 11.6706 28.6118C11.0235 29.6057 10.7098 30.6096 10.7294 31.6235C10.3851 31.3118 10.1341 30.9354 9.97648 30.4941C9.66548 31.2114 9.22625 31.3369 8.65883 30.8706C8.73763 30.65 8.86311 30.4617 9.0353 30.3059C8.50448 30.1674 8.12801 29.8537 7.90589 29.3647C8.91638 29.1857 9.79483 28.8092 10.5412 28.2353C6.58375 25.2129 4.76414 21.1972 5.08236 16.1882C4.47449 15.8546 3.90978 15.4781 3.38824 15.0588C3.38824 14.5569 3.38824 14.0549 3.38824 13.5529C5.99854 13.7031 6.87698 12.5737 6.02354 10.1647C6.2665 9.13757 6.58023 8.13367 6.96472 7.15293C7.61093 6.75677 7.9874 7.00776 8.09413 7.90587C8.59608 6.39999 9.09806 4.89411 9.60001 3.38822C10.3689 2.59612 11.3101 2.1569 12.4235 2.07058C12.7385 1.68986 12.864 1.25065 12.8 0.75293ZM14.6824 3.38822C15.233 4.17818 15.1702 4.93111 14.4941 5.64705C14.099 6.02996 13.6598 6.09271 13.1765 5.83528C13.7881 5.04665 14.2901 4.23096 14.6824 3.38822Z" fill="#281C18"/>
<path opacity="0.984" fill-rule="evenodd" clip-rule="evenodd" d="M4.14117 13.9294C4.64313 13.9294 5.1451 13.9294 5.64706 13.9294C5.36806 15.8128 4.8661 15.8128 4.14117 13.9294Z" fill="#ECC84F"/>
<path opacity="0.999" fill-rule="evenodd" clip-rule="evenodd" d="M10.5412 9.78822C12.5744 9.58734 14.4567 10.0265 16.1882 11.1059C17.9809 13.4342 19.8633 15.693 21.8353 17.8823C23.2233 18.7426 24.7292 19.1818 26.3529 19.2C25.3655 27.0999 20.9733 30.1744 13.1765 28.4235C8.45994 26.646 5.95014 23.195 5.64706 18.0706C5.37389 14.0884 7.00526 11.3276 10.5412 9.78822Z" fill="#FBFAFA"/>
<path fill-rule="evenodd" clip-rule="evenodd" d="M10.9177 21.0823C12.785 25.0279 15.9222 26.5966 20.3294 25.7882C20.7057 25.0011 20.4548 24.3737 19.5765 23.9059C20.4461 23.7189 21.3245 23.6562 22.2118 23.7176C22.1798 22.8033 21.8033 22.0503 21.0824 21.4588C21.2078 21.3333 21.3334 21.2078 21.4588 21.0823C22.5515 21.9673 22.8025 23.034 22.2118 24.2823C21.8549 24.4641 21.4784 24.5269 21.0824 24.4706C21.2839 25.5015 20.9074 26.1917 19.953 26.5412C16.7581 27.0072 14.0601 26.066 11.8588 23.7176C11.3275 22.9081 11.0138 22.0296 10.9177 21.0823Z" fill="#3D3330"/>
<path fill-rule="evenodd" clip-rule="evenodd" d="M9.78824 11.6706C11.0165 12.6705 11.393 13.9254 10.9176 15.4353C9.52768 16.5937 8.52375 16.3428 7.90588 14.6823C8.53971 13.6743 9.16714 12.6703 9.78824 11.6706Z" fill="#FF4412"/>
<path fill-rule="evenodd" clip-rule="evenodd" d="M13.1765 2.25882C13.5854 2.30399 13.8364 2.55497 13.9294 3.01176C13.5912 3.81228 13.152 4.56522 12.6118 5.27058C12.3816 6.62121 12.9463 7.0604 14.3059 6.58823C14.9961 6.4 15.4353 5.96077 15.6235 5.27058C16.4353 6.68672 16.6863 8.1926 16.3765 9.78823C15.7102 10.0805 15.02 10.0178 14.3059 9.6C11.6165 8.99121 9.23224 9.55591 7.15296 11.2941C6.67587 10.2629 6.73862 9.25899 7.34119 8.28235C7.84314 8.7843 8.34513 8.7843 8.84707 8.28235C9.22354 6.90194 9.60001 5.52158 9.97649 4.14117C10.9556 3.32221 12.0223 2.69475 13.1765 2.25882Z" fill="#F53804"/>
<path opacity="0.939" fill-rule="evenodd" clip-rule="evenodd" d="M26.7294 24.847C28.2812 25.4407 28.8459 26.5701 28.4235 28.2353C25.9095 29.6169 25.0311 28.8639 25.7882 25.9765C26.051 25.5282 26.3647 25.1518 26.7294 24.847Z" fill="#F9DDB6"/>
<path opacity="0.692" fill-rule="evenodd" clip-rule="evenodd" d="M26.353 30.4941C27.2291 30.3989 27.9821 30.6498 28.6118 31.247C27.6079 31.749 26.604 31.749 25.6 31.247C25.8796 30.9904 26.1306 30.7394 26.353 30.4941Z" fill="#EBEBEB"/>
</svg>
