<svg width="32" height="32" viewBox="0 0 33 33" fill="none" xmlns="http://www.w3.org/2000/svg">
    <path fill-rule="evenodd" clip-rule="evenodd"
        d="M24.3086 2.52606C19.1082 2.52606 13.9077 2.52606 8.70728 2.52606C12.5322 0.442199 16.5867 -0.0464779 20.871 1.06002C22.1107 1.38223 23.2566 1.8709 24.3086 2.52606Z"
        fill="#FF842F" />
    <path fill-rule="evenodd" clip-rule="evenodd"
        d="M8.70732 2.52539C13.9077 2.52539 19.1082 2.52539 24.3086 2.52539C26.0391 3.34374 27.4934 4.49108 28.6717 5.96741C24.6286 5.96479 20.6181 5.96479 16.6402 5.96741C16.4473 5.95882 16.2711 6.0013 16.1113 6.09489C12.2117 5.96765 8.28926 5.92516 4.34424 5.96741C5.52253 4.49108 6.97689 3.34374 8.70732 2.52539Z"
        fill="#FD7A22" />
    <path fill-rule="evenodd" clip-rule="evenodd"
        d="M4.34416 5.96795C8.28918 5.9257 12.2116 5.96819 16.1113 6.09543C14.7435 7.80013 13.3773 9.49989 12.0126 11.1947C10.2724 11.1097 8.50945 11.0672 6.72402 11.0672C4.88769 11.0695 3.08085 11.1544 1.30322 11.3222C1.90321 9.31496 2.9169 7.53021 4.34416 5.96795Z"
        fill="#FC721F" />
    <path fill-rule="evenodd" clip-rule="evenodd"
        d="M16.6401 5.96876C20.6181 5.96614 24.6285 5.96614 28.6717 5.96876C29.4523 6.7504 30.0693 7.64278 30.5227 8.64588C26.0714 8.64588 21.6203 8.64588 17.169 8.64588C17.2117 7.81443 17.1677 7.00705 17.0368 6.22372C16.9046 6.13873 16.7724 6.05375 16.6401 5.96876Z"
        fill="#FC7420" />
    <path fill-rule="evenodd" clip-rule="evenodd"
        d="M16.6403 5.96788C16.7725 6.05287 16.9047 6.13785 17.0369 6.22285C17.0369 7.66764 17.0369 9.11244 17.0369 10.5572C18.3495 10.4807 19.6276 10.5658 20.8711 10.8122C20.8716 11.2618 20.9157 11.708 21.0033 12.1508C20.9318 12.6388 20.8657 13.1274 20.805 13.6168C20.7683 13.7336 20.7021 13.8185 20.6067 13.8718C17.9624 13.8718 15.3181 13.8718 12.6738 13.8718C12.0113 13.8929 11.3502 13.8716 10.6906 13.808C10.4718 13.6239 10.3836 13.3901 10.4262 13.1069C10.9853 12.4978 11.5142 11.8604 12.0127 11.1946C13.3775 9.49982 14.7436 7.80007 16.1114 6.09536C16.2711 6.00178 16.4474 5.95929 16.6403 5.96788Z"
        fill="#FFFCFC" />
    <path fill-rule="evenodd" clip-rule="evenodd"
        d="M17.0369 6.22363C17.1678 7.00696 17.2118 7.81434 17.1691 8.64579C21.6203 8.64579 26.0715 8.64579 30.5228 8.64579C31.0959 9.45013 31.4925 10.3425 31.7127 11.3229C28.0989 11.153 24.4849 10.9829 20.8711 10.813C19.6276 10.5666 18.3495 10.4815 17.0369 10.558C17.0369 9.11323 17.0369 7.66843 17.0369 6.22363Z"
        fill="#FC6E1D" />
    <path fill-rule="evenodd" clip-rule="evenodd"
        d="M12.0125 11.1949C11.514 11.8606 10.9851 12.498 10.426 13.1071C10.166 13.2033 10.1219 13.352 10.2938 13.5533C7.12087 13.617 3.94772 13.6383 0.774304 13.617C0.805639 13.7816 0.761612 13.9091 0.64209 13.9995C0.713486 13.0579 0.933755 12.1655 1.30316 11.3223C3.08079 11.1546 4.88763 11.0697 6.72396 11.0674C8.50939 11.0674 10.2723 11.1098 12.0125 11.1949Z"
        fill="#FB681C" />
    <path fill-rule="evenodd" clip-rule="evenodd"
        d="M20.8711 10.8125C24.4849 10.9824 28.0989 11.1525 31.7127 11.3224C32.099 12.2056 32.3194 13.1406 32.3738 14.127C32.3738 14.382 32.3738 14.637 32.3738 14.8919C27.3056 14.8919 22.2373 14.8919 17.1691 14.8919C17.1691 14.8069 17.1251 14.7644 17.0369 14.7644C18.2109 14.4071 19.4009 14.1096 20.6067 13.8721C20.7021 13.8188 20.7682 13.7339 20.805 13.6171C20.8657 13.1277 20.9318 12.6391 21.0033 12.1511C20.9156 11.7083 20.8716 11.2621 20.8711 10.8125Z"
        fill="#FA631A" />
    <path fill-rule="evenodd" clip-rule="evenodd"
        d="M12.6736 13.8721C15.3179 13.8721 17.9622 13.8721 20.6065 13.8721C19.4007 14.1096 18.2107 14.4071 17.0367 14.7644C15.5768 15.0353 14.1224 15.3328 12.6736 15.6568C12.6736 15.0619 12.6736 14.467 12.6736 13.8721Z"
        fill="#D1330D" />
    <path fill-rule="evenodd" clip-rule="evenodd"
        d="M17.0367 14.7637C17.0146 16.9738 17.0367 19.1835 17.1028 21.3927C17.2583 22.3076 17.8091 22.8386 18.7555 22.9863C19.4243 23.0319 20.0854 22.9682 20.7387 22.795C20.8709 22.8375 21.0031 22.8801 21.1353 22.9225C21.2925 23.4429 21.4247 23.9528 21.532 24.4523C21.5911 25.0325 21.503 25.5849 21.2675 26.1096C19.654 26.5307 18.0234 26.5944 16.3756 26.3008C15.5491 26.0724 14.7999 25.7111 14.1279 25.2172C13.1712 24.2634 12.6864 23.116 12.6736 21.7752C12.6736 19.7355 12.6736 17.6958 12.6736 15.656C14.1224 15.332 15.5768 15.0346 17.0367 14.7637Z"
        fill="#FFFCFB" />
    <path fill-rule="evenodd" clip-rule="evenodd"
        d="M10.426 13.1064C10.3835 13.3897 10.4717 13.6235 10.6905 13.8076C11.3501 13.8712 12.0112 13.8925 12.6737 13.8713C12.6737 14.4663 12.6737 15.0611 12.6737 15.6561C12.6737 17.6958 12.6737 19.7355 12.6737 21.7752C12.6003 19.4992 12.5121 17.7144 12.4093 16.421C8.48686 16.421 4.56458 16.421 0.642169 16.421C0.642169 16.9309 0.642169 17.4408 0.642169 17.9508C0.46791 16.646 0.46791 15.3286 0.642169 13.9988C0.761691 13.9084 0.805718 13.781 0.774383 13.6164C3.9478 13.6377 7.12095 13.6164 10.2938 13.5526C10.122 13.3513 10.1661 13.2027 10.426 13.1064Z"
        fill="#FA611E" />
    <path opacity="0.694" fill-rule="evenodd" clip-rule="evenodd"
        d="M32.3737 14.127C32.4617 14.7417 32.5058 15.3791 32.5059 16.0392C32.5355 16.9202 32.4474 17.7701 32.2415 18.5888C32.2415 18.3763 32.2415 18.1639 32.2415 17.9514C32.3693 16.9425 32.4135 15.9227 32.3737 14.8918C32.3737 14.6369 32.3737 14.3819 32.3737 14.127Z"
        fill="#FFB392" />
    <path fill-rule="evenodd" clip-rule="evenodd"
        d="M17.1689 14.8916C22.2371 14.8916 27.3054 14.8916 32.3736 14.8916C32.4134 15.9224 32.3693 16.9423 32.2414 17.9512C27.2173 17.9512 22.1931 17.9512 17.1689 17.9512C17.1689 16.9313 17.1689 15.9115 17.1689 14.8916Z"
        fill="#F95A16" />
    <path fill-rule="evenodd" clip-rule="evenodd"
        d="M12.4092 16.4209C12.4092 17.6533 12.4092 18.8855 12.4092 20.1179C8.64041 20.0757 4.89438 20.1181 1.17095 20.2454C0.854955 19.5278 0.678713 18.7629 0.64209 17.9507C0.64209 17.4408 0.64209 16.9308 0.64209 16.4209C4.5645 16.4209 8.48678 16.4209 12.4092 16.4209Z"
        fill="#F85717" />
    <path fill-rule="evenodd" clip-rule="evenodd"
        d="M17.1689 17.9512C22.1931 17.9512 27.2173 17.9512 32.2414 17.9512C32.2414 18.1637 32.2414 18.3761 32.2414 18.5886C32.2581 19.1906 32.1259 19.7429 31.8448 20.2458C26.9753 20.1186 22.0834 20.076 17.1689 20.1184C17.1689 19.3959 17.1689 18.6736 17.1689 17.9512Z"
        fill="#F85516" />
    <path fill-rule="evenodd" clip-rule="evenodd"
        d="M17.0368 14.7637C17.125 14.7637 17.1691 14.8061 17.1691 14.8912C17.1691 15.911 17.1691 16.9309 17.1691 17.9507C17.1691 18.6732 17.1691 19.3955 17.1691 20.1179C22.0835 20.0756 26.9754 20.1182 31.8449 20.2454C31.3368 22.2451 30.4113 24.0298 29.0684 25.5997C26.6484 25.3463 24.1804 25.2613 21.6644 25.3447C21.7043 25.0185 21.6601 24.7209 21.5321 24.4523C21.4249 23.9528 21.2927 23.4429 21.1355 22.9225C21.0033 22.8801 20.8711 22.8375 20.7389 22.795C20.0856 22.9682 19.4245 23.0319 18.7556 22.9863C17.8092 22.8386 17.2584 22.3076 17.103 21.3927C17.0368 19.1835 17.0148 16.9738 17.0368 14.7637Z"
        fill="#F74D14" />
    <path fill-rule="evenodd" clip-rule="evenodd"
        d="M12.6738 21.7751C12.6866 23.116 13.1715 24.2633 14.1282 25.2172C10.5584 25.3022 6.98858 25.3871 3.41879 25.4721C3.40742 25.3452 3.45158 25.239 3.551 25.1534C2.41859 23.6708 1.6253 22.0347 1.17114 20.2454C4.89457 20.1181 8.64061 20.0757 12.4094 20.1179C12.4094 18.8855 12.4094 17.6533 12.4094 16.4209C12.5122 17.7143 12.6004 19.4991 12.6738 21.7751Z"
        fill="#F74B14" />
    <path fill-rule="evenodd" clip-rule="evenodd"
        d="M21.532 24.4531C21.66 24.7217 21.7042 25.0193 21.6642 25.3455C24.1803 25.2621 26.6483 25.3472 29.0683 25.6005C25.1018 30.1557 20.0335 32.0467 13.8636 31.2734C11.9684 30.9743 10.2055 30.3582 8.575 29.4249C8.51246 29.2457 8.38025 29.1607 8.17836 29.17C7.95756 29.138 7.75924 29.0529 7.58339 28.915C5.73913 30.1541 3.86618 31.344 1.96427 32.4845C1.24529 32.3301 0.958779 31.9052 1.10488 31.2097C1.83827 29.2787 2.60961 27.3665 3.41863 25.473C6.98842 25.388 10.5582 25.303 14.128 25.218C14.7999 25.7119 15.5492 26.0732 16.3757 26.3016C18.0234 26.5952 19.6541 26.5315 21.2676 26.1104C21.5031 25.5857 21.5911 25.0333 21.532 24.4531Z"
        fill="#F64414" />
    <path opacity="0.51" fill-rule="evenodd" clip-rule="evenodd"
        d="M8.17847 29.1696C8.38036 29.1603 8.51257 29.2454 8.57511 29.4246C8.37322 29.4339 8.241 29.3489 8.17847 29.1696Z"
        fill="#FFA890" />
</svg>