<svg width="32" height="32" viewBox="0 0 32 32" fill="none" xmlns="http://www.w3.org/2000/svg">
    <path
        d="M6.7838 15.9993C6.7838 15.4233 6.8318 14.8633 6.9438 14.3193H2.7038C2.6398 14.8793 2.5918 15.4393 2.5918 15.9993C2.5918 23.4073 8.5918 29.4073 15.9998 29.4073C16.5598 29.4073 17.1198 29.3753 17.6798 29.2953V25.0553C17.1358 25.1513 16.5758 25.2153 15.9998 25.2153C10.9118 25.2153 6.7838 21.0873 6.7838 15.9993Z"
        fill="#04BDE5" />
    <path
        d="M15.9999 2.5918C10.3679 2.5918 5.56787 6.0638 3.56787 10.9758H8.27187C9.91987 8.4478 12.7679 6.7838 15.9999 6.7838C21.0879 6.7838 25.2159 10.9118 25.2159 15.9998C25.2159 19.2318 23.5519 22.0798 21.0239 23.7278V28.4318C25.9359 26.4478 29.4079 21.6318 29.4079 15.9998C29.4079 8.5918 23.4079 2.5918 15.9999 2.5918Z"
        fill="#E50027" />
</svg>