<svg width="32" height="32" viewBox="0 0 32 32" fill="none" xmlns="http://www.w3.org/2000/svg">
    <g clip-path="url(#clip0_4351_1916)">
        <path fill-rule="evenodd" clip-rule="evenodd"
            d="M-0.0712891 -0.0703125C4.85909 -0.0703125 9.78945 -0.0703125 14.7198 -0.0703125C6.20496 1.1912 1.2746 6.07416 -0.0712891 14.5786C-0.0712891 9.69562 -0.0712891 4.81265 -0.0712891 -0.0703125Z"
            fill="#FEFEFD" />
        <path fill-rule="evenodd" clip-rule="evenodd"
            d="M14.7198 -0.0703125C15.4783 -0.0703125 16.2369 -0.0703125 16.9954 -0.0703125C25.656 1.14742 30.6338 6.0778 31.9287 14.7208C31.9287 15.4793 31.9287 16.2379 31.9287 16.9964C30.7147 25.6534 25.7843 30.6312 17.1376 31.9297C16.2843 31.9297 15.4309 31.9297 14.5776 31.9297C6.07685 30.5874 1.19388 25.6571 -0.0712891 17.1386C-0.0712891 16.2852 -0.0712891 15.4319 -0.0712891 14.5786C1.2746 6.07416 6.20496 1.1912 14.7198 -0.0703125Z"
            fill="#EFAB01" />
        <path fill-rule="evenodd" clip-rule="evenodd"
            d="M16.9956 -0.0703125C21.9734 -0.0703125 26.9512 -0.0703125 31.9289 -0.0703125C31.9289 4.86006 31.9289 9.79042 31.9289 14.7208C30.634 6.0778 25.6562 1.14742 16.9956 -0.0703125Z"
            fill="#FEFEFD" />
        <path fill-rule="evenodd" clip-rule="evenodd"
            d="M23.2532 9.88513C21.4044 9.88513 19.5555 9.88513 17.7066 9.88513C17.7066 15.0051 17.7066 20.1251 17.7066 25.2451C16.4739 25.2451 15.2414 25.2451 14.0088 25.2451C14.0088 20.1251 14.0088 15.0051 14.0088 9.88513C11.7332 9.88513 9.45768 9.88513 7.18213 9.88513C7.18213 8.84218 7.18213 7.7992 7.18213 6.75625C10.4058 6.75625 13.6295 6.75625 16.8532 6.75625C18.5275 6.86633 19.6179 7.71966 20.1244 9.31625C20.3284 6.96217 21.5611 6.13254 23.8221 6.82736C24.6079 7.24247 24.8686 7.88247 24.6044 8.74736C24.3917 9.41037 23.9415 9.78963 23.2532 9.88513Z"
            fill="black" />
        <path fill-rule="evenodd" clip-rule="evenodd"
            d="M16.8534 6.7555C13.6297 6.7555 10.406 6.7555 7.18226 6.7555C7.18226 7.79846 7.18226 8.84143 7.18226 9.88439C9.45782 9.88439 11.7334 9.88439 14.0089 9.88439C14.0089 15.0044 14.0089 20.1244 14.0089 25.2444C13.8669 20.1961 13.8195 15.1234 13.8667 10.0266C11.5912 10.0266 9.31559 10.0266 7.04004 10.0266C7.04004 8.88883 7.04004 7.75106 7.04004 6.61328C10.3357 6.56623 13.6068 6.61363 16.8534 6.7555Z"
            fill="#765401" />
        <path fill-rule="evenodd" clip-rule="evenodd"
            d="M23.2532 9.88477C21.477 10.0263 19.6755 10.0737 17.8488 10.027C17.896 15.1238 17.8485 20.1964 17.7065 25.2448C17.7065 20.1248 17.7065 15.0048 17.7065 9.88477C19.5554 9.88477 21.4043 9.88477 23.2532 9.88477Z"
            fill="#6F4F00" />
        <path fill-rule="evenodd" clip-rule="evenodd"
            d="M-0.0712891 17.1387C1.19388 25.6572 6.07685 30.5875 14.5776 31.9298C9.69464 31.9298 4.81167 31.9298 -0.0712891 31.9298C-0.0712891 26.9994 -0.0712891 22.0691 -0.0712891 17.1387Z"
            fill="#FEFEFD" />
        <path fill-rule="evenodd" clip-rule="evenodd"
            d="M31.9288 16.9961C31.9288 21.9739 31.9288 26.9516 31.9288 31.9294C26.9984 31.9294 22.0681 31.9294 17.1377 31.9294C25.7844 30.6309 30.7148 25.6532 31.9288 16.9961Z"
            fill="#FEFEFD" />
    </g>
    <defs>
        <clipPath id="clip0_4351_1916">
            <rect width="32" height="32" fill="white" />
        </clipPath>
    </defs>
</svg>