<svg width="32" height="32" viewBox="0 0 32 32" fill="none" xmlns="http://www.w3.org/2000/svg">
    <g clip-path="url(#clip0_4834_21484)">
        <path fill-rule="evenodd" clip-rule="evenodd"
            d="M-0.071167 -0.0712891C10.5955 -0.0712891 21.2622 -0.0712891 31.9288 -0.0712891C31.9288 4.85909 31.9288 9.78945 31.9288 14.7198C29.598 14.541 27.275 14.541 24.9599 14.7198C24.8177 14.7198 24.6755 14.7198 24.5333 14.7198C21.648 13.4825 18.6377 12.6291 15.5022 12.1598C15.321 12.3071 15.1551 12.473 15.0044 12.6576C17.9165 13.018 20.7136 13.7528 23.3955 14.862C21.9157 15.1007 20.4461 15.3851 18.9866 15.7154C18.8444 15.7154 18.7022 15.7154 18.5599 15.7154C17.6049 15.3732 16.6331 15.0414 15.6444 14.7198C15.4249 14.9458 15.4249 15.1355 15.6444 15.2887C16.3303 15.4938 17.0177 15.6834 17.7066 15.8576C17.7066 15.905 17.7066 15.9525 17.7066 15.9998C17.1851 16.0947 16.6637 16.1894 16.1422 16.2843C16.1422 16.4265 16.1422 16.5687 16.1422 16.7109C17.046 16.5871 17.9467 16.4448 18.8444 16.2843C19.835 16.5438 20.8305 16.7808 21.8311 16.9954C21.8552 16.8074 21.8079 16.6414 21.6888 16.4976C21.1303 16.3946 20.6088 16.2287 20.1244 15.9998C21.5721 15.6558 23.0417 15.4188 24.5333 15.2887C24.5806 15.2887 24.6281 15.2887 24.6755 15.2887C25.9716 15.8182 27.2516 16.3871 28.5155 16.9954C28.5155 17.0427 28.5155 17.0902 28.5155 17.1376C28.2311 17.185 27.9466 17.2325 27.6622 17.2798C26.3359 17.2878 25.0322 17.1456 23.7511 16.8532C23.6814 17.037 23.6576 17.2268 23.6799 17.422C24.531 17.5354 25.3843 17.6301 26.2399 17.7065C25.9872 17.8629 25.7028 17.9815 25.3866 18.062C26.1482 18.3685 26.8593 18.2974 27.5199 17.8487C27.6622 17.8487 27.8044 17.8487 27.9466 17.8487C28.6577 17.8487 29.3688 17.8487 30.0799 17.8487C30.6369 18.2455 31.2531 18.53 31.9288 18.702C31.9288 23.1109 31.9288 27.5198 31.9288 31.9287C21.2622 31.9287 10.5955 31.9287 -0.071167 31.9287C-0.071167 27.6147 -0.071167 23.3005 -0.071167 18.9865C0.457162 18.9974 0.978642 18.9501 1.49328 18.8443C1.6829 18.8443 1.87254 18.8443 2.06217 18.8443C2.39656 19.0865 2.77581 19.1576 3.19994 19.0576C3.30695 18.9622 3.35437 18.8437 3.34217 18.702C3.45131 18.6065 3.54613 18.488 3.62661 18.3465C3.05968 18.2755 2.4908 18.2518 1.91994 18.2754C1.24127 18.1295 0.577567 17.9399 -0.071167 17.7065C-0.071167 16.7583 -0.071167 15.8102 -0.071167 14.862C1.08318 14.3509 2.26836 13.9242 3.48439 13.582C3.48439 13.3924 3.48439 13.2028 3.48439 13.0132C2.26836 13.3553 1.08318 13.7819 -0.071167 14.2932C-0.071167 13.7243 -0.071167 13.1554 -0.071167 12.5865C1.11402 12.5865 2.29921 12.5865 3.48439 12.5865C3.48439 12.3969 3.48439 12.2072 3.48439 12.0176C2.29921 12.0176 1.11402 12.0176 -0.071167 12.0176C-0.071167 7.98798 -0.071167 3.95834 -0.071167 -0.0712891Z"
            fill="#F4F6F8" />
        <path fill-rule="evenodd" clip-rule="evenodd"
            d="M3.05781 9.74219C4.24299 9.74219 5.42819 9.74219 6.61337 9.74219C6.61337 10.0266 6.61337 10.3111 6.61337 10.5955C6.1867 10.5955 5.76003 10.5955 5.33337 10.5955C5.35705 12.0185 5.33334 13.4408 5.26225 14.8622C4.97201 14.9935 4.66385 15.0408 4.33781 15.0044C4.33781 13.5348 4.33781 12.0651 4.33781 10.5955C3.86374 10.5955 3.38966 10.5955 2.91559 10.5955C2.89074 10.2939 2.93814 10.0095 3.05781 9.74219Z"
            fill="#2E3641" />
        <path fill-rule="evenodd" clip-rule="evenodd"
            d="M12.7289 9.88453C12.6819 10.979 12.7293 12.0694 12.8712 13.1556C12.9575 13.1381 13.0049 13.0907 13.0134 13.0134C13.2686 12.6868 13.553 12.3786 13.8667 12.089C14.1624 11.9741 14.4468 11.9978 14.7201 12.1601C14.4688 12.6251 14.1369 13.0281 13.7245 13.369C14.1343 13.88 14.5611 14.3778 15.0045 14.8623C14.6824 15.0254 14.3506 15.0492 14.0089 14.9334C13.7063 14.4883 13.3507 14.0853 12.9423 13.7245C12.8949 14.1038 12.8475 14.483 12.8001 14.8623C12.5156 15.0519 12.2312 15.0519 11.9467 14.8623C11.8519 13.203 11.8519 11.5438 11.9467 9.88453C12.2231 9.69865 12.4839 9.69865 12.7289 9.88453Z"
            fill="#2F3742" />
        <path fill-rule="evenodd" clip-rule="evenodd"
            d="M12.7289 9.88477C12.8237 10.9277 12.9185 11.9707 13.0133 13.0137C13.0048 13.0909 12.9574 13.1383 12.8711 13.1559C12.7292 12.0696 12.6818 10.9792 12.7289 9.88477Z"
            fill="#757A80" />
        <path fill-rule="evenodd" clip-rule="evenodd"
            d="M-0.071167 12.0176C1.11402 12.0176 2.29921 12.0176 3.48439 12.0176C3.48439 12.2072 3.48439 12.3968 3.48439 12.5865C2.29921 12.5865 1.11402 12.5865 -0.071167 12.5865C-0.071167 12.3968 -0.071167 12.2072 -0.071167 12.0176Z"
            fill="#E25D29" />
        <path fill-rule="evenodd" clip-rule="evenodd"
            d="M6.47106 12.0176C7.04191 11.994 7.6108 12.0178 8.17772 12.0887C8.29624 12.2072 8.41477 12.3257 8.53328 12.4443C8.60432 13.2963 8.62803 14.1496 8.60439 15.0043C8.33553 15.0331 8.1222 14.9384 7.96439 14.7198C6.6987 15.3483 6.12981 14.969 6.25772 13.582C6.32883 13.5109 6.39995 13.4398 6.47106 13.3687C6.93611 13.2272 7.41019 13.1087 7.89328 13.0131C7.86351 12.9298 7.81611 12.8587 7.75106 12.7998C7.32701 12.729 6.90034 12.7053 6.47106 12.7287C6.47106 12.4917 6.47106 12.2546 6.47106 12.0176Z"
            fill="#232C38" />
        <path fill-rule="evenodd" clip-rule="evenodd"
            d="M9.60001 12.0182C10.1129 11.9771 10.6107 12.0245 11.0933 12.1605C11.1906 12.3431 11.1669 12.509 11.0222 12.6582C10.6955 12.6608 10.3637 12.6371 10.0267 12.5871C9.99553 12.7542 10.0429 12.8965 10.1689 13.0138C10.5357 13.1853 10.8913 13.375 11.2356 13.5827C11.5365 14.4956 11.1809 14.9696 10.1689 15.0049C9.78084 15.0341 9.44899 14.9156 9.17334 14.6493C9.2744 14.4709 9.39293 14.305 9.5289 14.1516C9.83304 14.332 10.1412 14.332 10.4533 14.1516C10.0055 13.8692 9.6025 13.5373 9.24445 13.156C9.10482 12.6903 9.22333 12.311 9.60001 12.0182Z"
            fill="#252E3A" />
        <path fill-rule="evenodd" clip-rule="evenodd"
            d="M24.5333 14.7202C24.2784 14.7011 24.0415 14.7485 23.8222 14.8624C23.68 14.8624 23.5377 14.8624 23.3955 14.8624C20.7136 13.7532 17.9165 13.0184 15.0044 12.6579C15.1552 12.4733 15.321 12.3074 15.5022 12.1602C18.6377 12.6295 21.648 13.4828 24.5333 14.7202Z"
            fill="#F4CD1E" />
        <path fill-rule="evenodd" clip-rule="evenodd"
            d="M-0.071167 14.8626C-0.071167 14.673 -0.071167 14.4833 -0.071167 14.2937C1.08318 13.7825 2.26836 13.3558 3.48439 13.0137C3.48439 13.2033 3.48439 13.3929 3.48439 13.5826C2.26836 13.9247 1.08318 14.3514 -0.071167 14.8626Z"
            fill="#F5CD1D" />
        <path fill-rule="evenodd" clip-rule="evenodd"
            d="M7.18227 13.5825C7.90571 13.5518 8.04794 13.8126 7.60894 14.3647C6.86788 14.4424 6.72565 14.1817 7.18227 13.5825Z"
            fill="#E5E8EA" />
        <path fill-rule="evenodd" clip-rule="evenodd"
            d="M31.9288 14.72C31.9288 14.9096 31.9288 15.0993 31.9288 15.2889C29.8978 14.9902 27.8593 14.9427 25.8133 15.1467C25.7184 15.1467 25.6237 15.1467 25.5288 15.1467C25.3393 15.0045 25.1495 14.8622 24.96 14.72C27.2751 14.5412 29.598 14.5412 31.9288 14.72Z"
            fill="#49AC72" />
        <path fill-rule="evenodd" clip-rule="evenodd"
            d="M24.5334 14.7199C24.6756 14.7199 24.8178 14.7199 24.96 14.7199C25.1496 14.8621 25.3394 15.0044 25.5289 15.1466C25.2111 15.1046 24.9266 15.1521 24.6756 15.2888C24.6282 15.2888 24.5807 15.2888 24.5334 15.2888C24.2829 15.1732 24.0458 15.031 23.8223 14.8621C24.0416 14.7482 24.2785 14.7009 24.5334 14.7199Z"
            fill="#4F910B" />
        <path fill-rule="evenodd" clip-rule="evenodd"
            d="M23.3956 14.8623C23.5378 14.8623 23.68 14.8623 23.8223 14.8623C24.0458 15.0311 24.2829 15.1733 24.5334 15.289C23.0417 15.4191 21.5722 15.656 20.1245 16.0001C19.9349 16.0001 19.7452 16.0001 19.5556 16.0001C19.366 15.9052 19.1763 15.8105 18.9867 15.7156C20.4462 15.3854 21.9158 15.101 23.3956 14.8623Z"
            fill="#49A970" />
        <path fill-rule="evenodd" clip-rule="evenodd"
            d="M18.56 15.7153C18.309 15.852 18.0245 15.8995 17.7067 15.8575C17.0177 15.6833 16.3304 15.4937 15.6444 15.2886C15.425 15.1354 15.425 14.9457 15.6444 14.7197C16.6332 15.0413 17.605 15.3731 18.56 15.7153Z"
            fill="#DE571E" />
        <path fill-rule="evenodd" clip-rule="evenodd"
            d="M24.6755 15.2888C24.9266 15.1521 25.211 15.1046 25.5289 15.1466C25.6237 15.1466 25.7185 15.1466 25.8133 15.1466C26.9217 15.6771 28.0119 16.246 29.0844 16.8533C28.9126 16.9577 28.723 17.005 28.5155 16.9955C27.2516 16.3872 25.9716 15.8183 24.6755 15.2888Z"
            fill="#F0CB17" />
        <path fill-rule="evenodd" clip-rule="evenodd"
            d="M31.9289 15.2888C31.9289 15.4783 31.9289 15.6681 31.9289 15.8577C31.0073 16.1646 30.1065 16.4964 29.2267 16.8532C29.1793 16.8532 29.1318 16.8532 29.0845 16.8532C28.012 16.2459 26.9217 15.677 25.8134 15.1465C27.8594 14.9426 29.8978 14.9901 31.9289 15.2888Z"
            fill="#F1F4F4" />
        <path fill-rule="evenodd" clip-rule="evenodd"
            d="M18.56 15.7158C18.7022 15.7158 18.8444 15.7158 18.9867 15.7158C19.1762 15.8107 19.366 15.9054 19.5556 16.0003C19.3537 16.1355 19.1168 16.1829 18.8444 16.1425C18.4651 16.0951 18.086 16.0476 17.7067 16.0003C17.7067 15.9529 17.7067 15.9054 17.7067 15.858C18.0245 15.9 18.309 15.8525 18.56 15.7158Z"
            fill="#423C0D" />
        <path fill-rule="evenodd" clip-rule="evenodd"
            d="M17.7067 16C18.086 16.0474 18.4651 16.0949 18.8444 16.1422C18.8444 16.1896 18.8444 16.2371 18.8444 16.2844C17.9467 16.445 17.046 16.5872 16.1422 16.7111C16.1422 16.5689 16.1422 16.4267 16.1422 16.2844C16.6637 16.1896 17.1851 16.0949 17.7067 16Z"
            fill="#49A971" />
        <path fill-rule="evenodd" clip-rule="evenodd"
            d="M19.5556 16C19.7452 16 19.9349 16 20.1245 16C20.6089 16.2288 21.1304 16.3948 21.6889 16.4978C21.808 16.6416 21.8553 16.8075 21.8311 16.9956C20.8306 16.7809 19.8351 16.544 18.8445 16.2844C18.8445 16.2371 18.8445 16.1896 18.8445 16.1422C19.1168 16.1826 19.3538 16.1353 19.5556 16Z"
            fill="#DE5923" />
        <path fill-rule="evenodd" clip-rule="evenodd"
            d="M31.9289 15.8574C31.9289 16.047 31.9289 16.2367 31.9289 16.4263C31.233 16.6106 30.5693 16.8476 29.9378 17.1374C29.8429 17.1374 29.7482 17.1374 29.6534 17.1374C29.541 17.0093 29.3988 16.9144 29.2267 16.853C30.1065 16.4961 31.0073 16.1643 31.9289 15.8574Z"
            fill="#1962AB" />
        <path fill-rule="evenodd" clip-rule="evenodd"
            d="M5.19108 16.2841C5.33272 16.2719 5.45124 16.3194 5.54664 16.4263C6.32323 18.121 7.05805 19.8277 7.75108 21.5463C7.46276 21.5694 7.17831 21.5456 6.89775 21.4752C6.73747 21.2259 6.59524 20.9651 6.47108 20.693C5.71698 20.5276 4.95845 20.504 4.19553 20.6219C4.02601 20.8938 3.88379 21.1783 3.76886 21.4752C3.4883 21.5456 3.20385 21.5694 2.91553 21.5463C3.63439 19.7765 4.39292 18.0225 5.19108 16.2841Z"
            fill="#252D39" />
        <path fill-rule="evenodd" clip-rule="evenodd"
            d="M14.8622 16.2842C15.1466 16.2842 15.4311 16.2842 15.7155 16.2842C15.7155 18.0382 15.7155 19.7924 15.7155 21.5464C15.4311 21.5464 15.1466 21.5464 14.8622 21.5464C14.8622 19.7924 14.8622 18.0382 14.8622 16.2842Z"
            fill="#202936" />
        <path fill-rule="evenodd" clip-rule="evenodd"
            d="M14.1511 16.5693C14.3894 16.6665 14.4843 16.8562 14.4355 17.1382C12.0961 17.5511 9.74944 17.9303 7.39552 18.276C7.00354 18.2868 6.83761 18.0972 6.89774 17.7071C9.35979 17.4941 11.7776 17.1149 14.1511 16.5693Z"
            fill="#4EAD75" />
        <path fill-rule="evenodd" clip-rule="evenodd"
            d="M22.4 16.5686C23.0575 16.4133 23.3182 16.6503 23.1822 17.2797C22.3886 17.6 22.1279 17.3629 22.4 16.5686Z"
            fill="#272F3B" />
        <path fill-rule="evenodd" clip-rule="evenodd"
            d="M29.0844 16.8535C29.1318 16.8535 29.1793 16.8535 29.2266 16.8535C29.3987 16.915 29.5409 17.0098 29.6533 17.138C29.5584 17.1853 29.4637 17.2328 29.3688 17.2802C29.2111 17.2883 29.0689 17.3356 28.9422 17.4224C28.8749 17.2224 28.7327 17.1276 28.5155 17.138C28.5155 17.0906 28.5155 17.0431 28.5155 16.9957C28.723 17.0053 28.9126 16.9579 29.0844 16.8535Z"
            fill="#11510E" />
        <path fill-rule="evenodd" clip-rule="evenodd"
            d="M31.9289 16.4268C31.9289 16.7586 31.9289 17.0905 31.9289 17.4223C31.3126 17.4223 30.6962 17.4223 30.08 17.4223C30.0326 17.3275 29.9851 17.2327 29.9377 17.1379C30.5692 16.848 31.233 16.6111 31.9289 16.4268Z"
            fill="#F0E7E8" />
        <path fill-rule="evenodd" clip-rule="evenodd"
            d="M27.6622 17.2802C27.3778 17.4224 27.0933 17.5646 26.8089 17.7068C26.6193 17.7068 26.4296 17.7068 26.24 17.7068C25.3844 17.6305 24.531 17.5358 23.68 17.4224C23.6577 17.2271 23.6814 17.0374 23.7511 16.8535C25.0322 17.1459 26.336 17.2881 27.6622 17.2802Z"
            fill="#DF571E" />
        <path fill-rule="evenodd" clip-rule="evenodd"
            d="M29.6533 17.1377C29.7482 17.1377 29.8429 17.1377 29.9378 17.1377C29.9851 17.2326 30.0326 17.3273 30.08 17.4221C29.8077 17.4625 29.5707 17.4152 29.3689 17.2799C29.4638 17.2326 29.5585 17.1851 29.6533 17.1377Z"
            fill="#E2AA11" />
        <path fill-rule="evenodd" clip-rule="evenodd"
            d="M28.5155 17.1375C28.7327 17.1271 28.8749 17.222 28.9422 17.4219C28.5885 17.539 28.2565 17.6812 27.9466 17.8486C27.8044 17.8486 27.6622 17.8486 27.5199 17.8486C27.29 17.7721 27.0529 17.7247 26.8088 17.7064C27.0933 17.5642 27.3777 17.4219 27.6622 17.2797C27.9466 17.2323 28.2311 17.1848 28.5155 17.1375Z"
            fill="#162729" />
        <path fill-rule="evenodd" clip-rule="evenodd"
            d="M29.3689 17.2803C29.5707 17.4155 29.8076 17.4629 30.08 17.4225C30.6962 17.4225 31.3126 17.4225 31.9289 17.4225C31.9289 17.5647 31.9289 17.7069 31.9289 17.8492C31.7393 17.8492 31.5496 17.8492 31.36 17.8492C30.9333 17.8492 30.5067 17.8492 30.08 17.8492C29.3689 17.8492 28.6578 17.8492 27.9467 17.8492C28.2566 17.6818 28.5885 17.5395 28.9422 17.4225C29.0689 17.3357 29.2112 17.2884 29.3689 17.2803Z"
            fill="#DE4D0B" />
        <path fill-rule="evenodd" clip-rule="evenodd"
            d="M-0.071167 17.707C0.577567 17.9404 1.24127 18.13 1.91994 18.2759C1.91994 18.3233 1.91994 18.3708 1.91994 18.4181C1.49328 18.4181 1.06661 18.4181 0.639944 18.4181C0.402907 18.4181 0.165871 18.4181 -0.071167 18.4181C-0.071167 18.1811 -0.071167 17.9441 -0.071167 17.707Z"
            fill="#2364A8" />
        <path fill-rule="evenodd" clip-rule="evenodd"
            d="M20.1244 17.5645C20.4089 17.5645 20.6933 17.5645 20.9778 17.5645C20.9778 17.8963 20.9778 18.2282 20.9778 18.56C21.2148 18.56 21.4518 18.56 21.6889 18.56C21.6889 18.7971 21.6889 19.034 21.6889 19.2711C21.4518 19.2711 21.2148 19.2711 20.9778 19.2711C20.9778 19.7451 20.9778 20.2193 20.9778 20.6933C21.6089 20.5405 21.8934 20.7775 21.8311 21.4045C21.5483 21.451 21.2639 21.4983 20.9778 21.5467C20.696 21.5556 20.4589 21.4608 20.2666 21.2622C20.1325 20.608 20.085 19.9443 20.1244 19.2711C19.9822 19.2711 19.84 19.2711 19.6978 19.2711C19.6978 19.034 19.6978 18.7971 19.6978 18.56C19.84 18.56 19.9822 18.56 20.1244 18.56C20.1244 18.2282 20.1244 17.8963 20.1244 17.5645Z"
            fill="#232C38" />
        <path fill-rule="evenodd" clip-rule="evenodd"
            d="M26.2401 17.707C26.4296 17.707 26.6194 17.707 26.8089 17.707C27.053 17.7254 27.2901 17.7727 27.5201 17.8493C26.8594 18.298 26.1483 18.3691 25.3867 18.0626C25.7029 17.9821 25.9873 17.8635 26.2401 17.707Z"
            fill="#1E5EA1" />
        <path fill-rule="evenodd" clip-rule="evenodd"
            d="M31.36 17.8486C31.5496 17.8486 31.7393 17.8486 31.9289 17.8486C31.9289 17.9435 31.9289 18.0382 31.9289 18.1331C31.6615 18.1716 31.4719 18.0768 31.36 17.8486Z"
            fill="#F2E1D6" />
        <path fill-rule="evenodd" clip-rule="evenodd"
            d="M30.08 17.8486C30.5066 17.8486 30.9333 17.8486 31.36 17.8486C31.4719 18.0768 31.6615 18.1716 31.9288 18.1331C31.9288 18.3227 31.9288 18.5124 31.9288 18.702C31.2531 18.5299 30.6369 18.2454 30.08 17.8486Z"
            fill="#F4C71E" />
        <path fill-rule="evenodd" clip-rule="evenodd"
            d="M-0.071167 18.418C0.165871 18.418 0.402907 18.418 0.639944 18.418C0.942687 18.518 1.22713 18.6602 1.49328 18.8446C0.978642 18.9504 0.457162 18.9978 -0.071167 18.9869C-0.071167 18.7973 -0.071167 18.6076 -0.071167 18.418Z"
            fill="#54AD7A" />
        <path fill-rule="evenodd" clip-rule="evenodd"
            d="M0.640015 18.418C1.06668 18.418 1.49335 18.418 1.92001 18.418C2.33647 18.4272 2.71572 18.5221 3.05779 18.7024C2.74249 18.826 2.41062 18.8734 2.06224 18.8446C1.87261 18.8446 1.68297 18.8446 1.49335 18.8446C1.2272 18.6602 0.942757 18.518 0.640015 18.418Z"
            fill="#084751" />
        <path fill-rule="evenodd" clip-rule="evenodd"
            d="M1.92004 18.4177C1.92004 18.3703 1.92004 18.3228 1.92004 18.2754C2.4909 18.2518 3.05978 18.2756 3.62671 18.3465C3.54623 18.4881 3.45141 18.6065 3.34227 18.7021C3.24745 18.7021 3.15264 18.7021 3.05782 18.7021C2.71575 18.5218 2.3365 18.4269 1.92004 18.4177Z"
            fill="#41A36D" />
        <path fill-rule="evenodd" clip-rule="evenodd"
            d="M5.19108 18.1338C5.58191 18.5825 5.86635 19.104 6.04441 19.6982C5.57959 19.8386 5.10552 19.886 4.62219 19.8405C4.81081 19.273 5.00043 18.7041 5.19108 18.1338Z"
            fill="#E4E6E9" />
        <path fill-rule="evenodd" clip-rule="evenodd"
            d="M8.17773 18.5605C8.45983 18.5438 8.69687 18.6387 8.88885 18.8449C9.48434 18.4922 10.1006 18.4684 10.7377 18.7738C10.8743 18.9756 10.9928 19.1889 11.0933 19.4138C11.1643 20.1233 11.188 20.8344 11.1644 21.5471C10.88 21.5471 10.5955 21.5471 10.3111 21.5471C10.3346 20.8817 10.311 20.2181 10.24 19.556C9.86069 19.1767 9.48144 19.1767 9.10218 19.556C9.03118 20.2181 9.00749 20.8817 9.03107 21.5471C8.74662 21.5471 8.46218 21.5471 8.17773 21.5471C8.17773 20.5516 8.17773 19.556 8.17773 18.5605Z"
            fill="#262F3B" />
        <path fill-rule="evenodd" clip-rule="evenodd"
            d="M12.0178 18.5596C12.5886 18.536 13.1575 18.5598 13.7245 18.6307C13.7956 18.7018 13.8667 18.7729 13.9378 18.8441C14.1391 19.728 14.2102 20.6287 14.1511 21.5463C13.869 21.5629 13.632 21.4681 13.44 21.2618C12.2122 21.8589 11.667 21.4796 11.8045 20.1241C11.923 20.0056 12.0415 19.887 12.16 19.7685C12.5943 19.743 13.021 19.6719 13.44 19.5552C13.3722 19.4161 13.2774 19.2976 13.1556 19.1996C12.7727 19.1385 12.3934 19.1622 12.0178 19.2707C12.0178 19.0336 12.0178 18.7967 12.0178 18.5596Z"
            fill="#222B37" />
        <path fill-rule="evenodd" clip-rule="evenodd"
            d="M16.1422 18.56C16.4682 18.5236 16.7764 18.571 17.0667 18.7022C17.3037 19.2238 17.5407 19.7451 17.7778 20.2667C18.1057 19.7814 18.3666 19.2599 18.56 18.7022C18.8296 18.5648 19.1141 18.5175 19.4133 18.56C18.8067 20.1532 18.1192 21.7176 17.3511 23.2533C17.0469 23.4338 16.7388 23.4338 16.4267 23.2533C16.7404 22.6021 17.0722 21.9621 17.4222 21.3333C16.9756 20.4166 16.549 19.4921 16.1422 18.56Z"
            fill="#242C38" />
        <path fill-rule="evenodd" clip-rule="evenodd"
            d="M22.4 18.5596C22.6845 18.5596 22.9689 18.5596 23.2534 18.5596C23.277 19.5089 23.2534 20.4571 23.1822 21.404C22.9406 21.5329 22.6798 21.5802 22.4 21.5462C22.4 20.5507 22.4 19.5551 22.4 18.5596Z"
            fill="#2A323E" />
        <path fill-rule="evenodd" clip-rule="evenodd"
            d="M24.6755 18.5595C25.1047 18.5361 25.5314 18.5598 25.9555 18.6306C26.5119 18.9549 26.5119 19.2631 25.9555 19.5551C25.2581 19.0738 24.784 19.2396 24.5333 20.0529C24.8257 20.8429 25.3235 21.0087 26.0266 20.5506C26.2306 20.6118 26.3965 20.7304 26.5244 20.9062C25.8535 21.6385 25.0951 21.7334 24.2488 21.1906C23.8421 20.6671 23.7236 20.0745 23.8933 19.4129C24.0867 19.054 24.3474 18.7696 24.6755 18.5595Z"
            fill="#232C38" />
        <path fill-rule="evenodd" clip-rule="evenodd"
            d="M27.2355 18.5602C27.7484 18.5191 28.2461 18.5665 28.7288 18.7024C28.8261 18.8851 28.8024 19.051 28.6577 19.2002C28.331 19.2028 27.9991 19.179 27.6622 19.1291C27.631 19.2962 27.6784 19.4384 27.8044 19.5558C28.1712 19.7273 28.5267 19.9169 28.8711 20.1247C29.1384 21.0662 28.7829 21.5403 27.8044 21.5469C27.4163 21.576 27.0845 21.4576 26.8088 21.1913C26.91 21.0128 27.0284 20.847 27.1644 20.6936C27.4686 20.874 27.7767 20.874 28.0888 20.6936C27.641 20.4111 27.2379 20.0793 26.8799 19.698C26.7403 19.2322 26.8588 18.8531 27.2355 18.5602Z"
            fill="#252D39" />
        <path fill-rule="evenodd" clip-rule="evenodd"
            d="M3.05781 18.7021C3.15263 18.7021 3.24744 18.7021 3.34226 18.7021C3.35446 18.8438 3.30704 18.9623 3.20003 19.0577C2.7759 19.1577 2.39665 19.0866 2.06226 18.8444C2.41064 18.8731 2.7425 18.8257 3.05781 18.7021Z"
            fill="#1F62A7" />
        <path fill-rule="evenodd" clip-rule="evenodd"
            d="M12.7289 20.124C12.9185 20.124 13.1081 20.124 13.2978 20.124C13.453 20.7815 13.216 21.0422 12.5866 20.9062C12.3955 20.6013 12.4429 20.3406 12.7289 20.124Z"
            fill="#E6E9EB" />
    </g>
    <defs>
        <clipPath id="clip0_4834_21484">
            <rect width="32" height="32" fill="white" />
        </clipPath>
    </defs>
</svg>