<svg width="32" height="32" viewBox="0 0 32 32" fill="none" xmlns="http://www.w3.org/2000/svg">
<path opacity="0.605" fill-rule="evenodd" clip-rule="evenodd" d="M12.7783 0C14.8456 0 16.9129 0 18.9802 0C21.7543 0.742892 24.2987 2.00145 26.6133 3.77568C28.6759 5.96179 30.2661 8.47894 31.384 11.327C33.5388 20.8962 30.0402 27.5823 20.8885 31.3853C15.8049 32.6601 11.0342 31.9521 6.57636 29.2615C4.71759 27.3186 2.96832 25.2734 1.32858 23.126C-2.30401 11.6954 1.51254 3.98671 12.7783 0Z" fill="#EFF4F7"/>
<path fill-rule="evenodd" clip-rule="evenodd" d="M13.2553 0.943918C25.8059 1.16706 31.6102 7.45984 30.6684 19.8223C28.1939 26.8336 23.1846 30.6093 15.6407 31.1493C4.31241 29.1466 -0.378766 22.5392 1.56711 11.327C3.77022 5.95787 7.66632 2.49684 13.2553 0.943918Z" fill="#1C6799"/>
<path fill-rule="evenodd" clip-rule="evenodd" d="M13.2553 2.3598C24.5364 1.95718 30.0227 7.30603 29.7143 18.4064C27.4023 26.974 21.757 30.6711 12.7783 29.4975C4.94358 26.8214 1.52455 21.3939 2.52125 13.2149C3.95967 7.46607 7.5377 3.84771 13.2553 2.3598Z" fill="#106EA4"/>
<path fill-rule="evenodd" clip-rule="evenodd" d="M8.00758 21.7101C7.81904 19.24 8.93219 17.5881 11.3471 16.7546C9.50443 15.6253 8.07322 16.0186 7.05343 17.9345C4.96258 18.286 3.7699 17.4994 3.4754 15.5747C5.57952 17.6695 7.09026 17.2763 8.00758 14.3948C9.15279 14.3071 10.2659 14.0711 11.3471 13.6868C10.3035 11.9775 9.03128 11.8202 7.53051 13.2149C5.61049 12.8767 4.89488 11.7754 5.38369 9.91115C5.59961 10.9756 6.23569 11.6049 7.29197 11.799C9.3263 10.4076 11.2346 10.565 13.0168 12.2709C13.4104 11.2323 13.1718 10.367 12.3012 9.67517C9.03271 9.55878 8.15809 8.06423 9.67732 5.19155C9.83633 6.13547 9.99539 7.07939 10.1544 8.02331C11.3018 8.3888 12.4944 8.62478 13.7324 8.73125C14.6806 9.35372 15.2372 10.219 15.4022 11.327C16.5364 9.69905 16.2183 8.44048 14.448 7.55135C13.6763 5.28123 14.3919 3.944 16.5949 3.5397C15.3608 4.25947 14.9632 5.28203 15.4022 6.60743C16.1973 7.2367 16.9924 7.86601 17.7875 8.49527C17.8792 9.47539 18.1178 10.4193 18.5031 11.327C19.2406 10.9912 19.7177 10.4405 19.9343 9.67517C18.3759 6.65019 19.33 5.23431 22.7968 5.42753C21.8336 5.63977 20.959 6.03306 20.1729 6.60743C20.285 7.8425 20.6826 9.0224 21.3656 10.1471C21.2688 11.2826 20.7917 12.2265 19.9343 12.9789C20.5704 13.2935 21.2066 13.2935 21.8426 12.9789C22.4787 11.7203 23.1148 10.4618 23.7509 9.20321C25.2062 8.79888 26.4784 9.11354 27.5675 10.1471C26.4852 9.97043 25.372 9.97043 24.228 10.1471C24.4513 12.7501 23.3382 14.4807 20.8885 15.3387C22.5933 17.0203 23.8655 16.7057 24.7051 14.3948C26.0633 13.9493 27.256 14.1853 28.2831 15.1027C28.6012 15.4174 28.6012 15.732 28.2831 16.0466C27.7135 15.6076 27.0774 15.2929 26.3748 15.1027C25.2386 15.6896 24.364 16.5549 23.7509 17.6985C22.7602 17.7892 21.806 18.0252 20.8885 18.4064C21.228 19.136 21.7846 19.608 22.5582 19.8223C25.616 18.2805 27.0472 19.2245 26.8519 22.6541C26.7214 21.7909 26.3239 21.0829 25.6592 20.5302C24.3622 20.281 23.1695 20.517 22.0812 21.2382C20.9334 21.1424 19.9792 20.6705 19.2187 19.8223C18.908 20.6411 18.9875 21.4278 19.4573 22.1821C20.6641 22.4803 21.7773 22.9523 22.7968 23.598C23.4905 24.6209 23.411 25.5648 22.5582 26.4297C22.3992 25.6431 22.2402 24.8565 22.0812 24.0699C20.7738 23.7008 19.4221 23.4648 18.0261 23.362C17.4455 22.5843 17.0479 21.7191 16.8334 20.7662C16.3164 21.3161 15.9189 21.9454 15.6407 22.6541C16.7443 23.6604 17.5394 24.8403 18.0261 26.1937C17.9734 27.5054 17.3373 28.1347 16.1178 28.0816C16.9884 27.3897 17.2269 26.5245 16.8334 25.4858C16.0383 25.0138 15.2432 24.5419 14.448 24.0699C14.3594 22.937 14.1209 21.8358 13.7324 20.7662C12.9949 21.1021 12.5179 21.6527 12.3012 22.4181C13.9348 25.2023 13.1398 26.6182 9.91586 26.6657C10.5985 26.4462 11.1551 26.0528 11.5856 25.4858C11.8375 24.2027 11.599 23.0228 10.87 21.9461C10.9668 20.8106 11.4439 19.8667 12.3012 19.1144C11.6651 18.7997 11.029 18.7997 10.3929 19.1144C9.68162 20.104 9.20455 21.2053 8.96172 22.4181C7.68951 23.362 6.41736 23.362 5.14515 22.4181C6.19843 22.328 7.15257 22.092 8.00758 21.7101Z" fill="#EEF4F3"/>
<path fill-rule="evenodd" clip-rule="evenodd" d="M14.6866 12.7429C18.0998 12.579 19.6105 14.1522 19.2187 17.4625C18.1662 19.1734 16.6554 19.7241 14.6866 19.1144C12.9576 18.0943 12.4011 16.5998 13.0168 14.6307C13.3459 13.7575 13.9024 13.1282 14.6866 12.7429Z" fill="#1190D1"/>
<path fill-rule="evenodd" clip-rule="evenodd" d="M8.00758 21.7101C8.2631 20.2008 7.94508 18.9422 7.05344 17.9345C8.07322 16.0186 9.50444 15.6253 11.3471 16.7546C8.93219 17.5881 7.81904 19.24 8.00758 21.7101Z" fill="#4893C2"/>
</svg>
