<svg width="32" height="32" viewBox="0 0 32 32" fill="none" xmlns="http://www.w3.org/2000/svg">
<path opacity="0.801" fill-rule="evenodd" clip-rule="evenodd" d="M29.9312 5.83051C31.5651 6.02658 32.0858 6.88529 31.4905 8.40678C30.7976 9.03512 30.0519 9.10292 29.2532 8.61017C28.658 7.91146 28.5902 7.1657 29.0498 6.37288C29.3332 6.15254 29.6275 5.9718 29.9312 5.83051Z" fill="#65B768"/>
<path opacity="0.88" fill-rule="evenodd" clip-rule="evenodd" d="M11.7617 6.1017C14.662 6.09397 16.719 7.40461 17.9312 10.0339C19.5651 14.0728 21.283 18.0955 23.0837 22.1017C24.2986 23.5677 25.7671 23.8614 27.4905 22.9831C28.0722 22.537 28.5007 21.9719 28.7786 21.2881C28.8057 18.5285 28.8966 15.7715 29.0498 13.017C29.8525 12.1154 30.6661 12.1154 31.4905 13.017C31.5813 15.774 31.5813 18.5311 31.4905 21.2881C30.2159 25.4533 27.481 26.9222 23.2871 25.6949C21.8566 25.024 20.8396 23.9619 20.2363 22.5085C18.5929 18.5308 16.921 14.5534 15.2193 10.5763C13.8715 8.69478 12.1766 8.31064 10.1346 9.42373C9.74541 9.76773 9.40643 10.1519 9.11761 10.5763C7.02541 15.6171 4.90202 20.634 2.74473 25.6271C2.01117 26.341 1.28846 26.341 0.57524 25.6271C0.312189 24.9371 0.356935 24.2591 0.710833 23.5932C2.74473 18.8023 4.77863 14.0113 6.81253 9.22034C7.96914 7.36678 9.61931 6.32719 11.7617 6.1017Z" fill="#65B768"/>
<path opacity="0.805" fill-rule="evenodd" clip-rule="evenodd" d="M11.7617 16.9492C13.241 17.0491 13.8051 17.8175 13.4566 19.2542C12.3813 20.3982 11.4322 20.3079 10.6091 18.9831C10.4369 17.9689 10.822 17.291 11.7617 16.9492Z" fill="#65B768"/>
</svg>
