<svg width="32" height="32" viewBox="0 0 32 32" fill="none" xmlns="http://www.w3.org/2000/svg">
    <path
        d="M19.9036 15.4049H31.5294C31.616 15.4045 31.7006 15.3774 31.7726 15.327C31.8446 15.2765 31.9008 15.205 31.9339 15.1213C31.9671 15.0378 31.9761 14.9458 31.9594 14.8569C31.9428 14.768 31.9013 14.6863 31.8404 14.6219L29.2476 11.9149C29.2028 11.8681 29.1488 11.8319 29.0894 11.8089C29.03 11.7859 28.9665 11.7767 28.9033 11.7818L28.6932 11.7991L21.6923 12.4992L25.8091 9.05408C25.8585 9.01356 25.8989 8.9625 25.9279 8.90428C25.9568 8.84608 25.9734 8.78208 25.9768 8.71659C25.98 8.65111 25.9699 8.58564 25.947 8.5246C25.9241 8.46355 25.8889 8.40833 25.8439 8.36264L23.9542 6.39722C23.9103 6.35198 23.8579 6.31684 23.8001 6.29406C23.7425 6.27128 23.681 6.26136 23.6194 6.26495C23.5577 6.26852 23.4977 6.28553 23.4427 6.31487C23.3878 6.34419 23.3395 6.3852 23.3006 6.43525L20.0078 10.7377L20.6697 3.42578L20.6862 3.20797C20.6914 3.14196 20.6827 3.07555 20.6607 3.01342C20.6387 2.9513 20.604 2.89498 20.5588 2.84842L17.9743 0.132804C17.9126 0.0691519 17.8343 0.0259261 17.7493 0.00854847C17.6642 -0.00882918 17.5761 0.000414447 17.496 0.0351206C17.416 0.0698267 17.3476 0.12845 17.2992 0.20364C17.251 0.278829 17.2251 0.367238 17.2246 0.45778V12.6028L19.9036 15.4049Z"
        fill="#004952" />
    <path
        d="M0.438206 15.4049H12.064L14.743 12.6063V0.45778C14.7425 0.367238 14.7166 0.278829 14.6683 0.20364C14.62 0.12845 14.5515 0.0698267 14.4715 0.0351206C14.3914 0.000414447 14.3034 -0.00882918 14.2183 0.00854847C14.1333 0.0259261 14.055 0.0691519 13.9933 0.132804L11.4021 2.84152C11.3558 2.88743 11.3198 2.94347 11.2966 3.00562C11.2734 3.06778 11.2637 3.13451 11.2681 3.20105L11.2846 3.41886L11.9465 10.7308L8.6537 6.43525C8.61488 6.38381 8.56604 6.34159 8.51038 6.31139C8.45475 6.2812 8.39359 6.26371 8.33098 6.26011C8.26837 6.25652 8.20575 6.26689 8.14727 6.29053C8.08879 6.31416 8.0358 6.35054 7.99182 6.39722L6.12535 8.37128C6.08031 8.41697 6.04516 8.47219 6.02224 8.53323C5.99931 8.59428 5.98916 8.65976 5.99244 8.72524C5.99574 8.79073 6.0124 8.85472 6.04131 8.91293C6.07023 8.97113 6.11073 9.0222 6.16009 9.06272L10.2753 12.4992L3.27268 11.7991L3.06253 11.7818C2.99936 11.7767 2.93589 11.7859 2.87648 11.8089C2.81706 11.8319 2.76312 11.8681 2.71836 11.9149L0.127125 14.6219C0.0661945 14.6863 0.0248175 14.768 0.00818294 14.8569C-0.00845165 14.9458 0.00039673 15.0378 0.0336188 15.1213C0.0668409 15.205 0.122958 15.2765 0.194933 15.327C0.266906 15.3774 0.351535 15.4045 0.438206 15.4049Z"
        fill="#004952" />
    <path
        d="M31.5593 17.9981H0.547279C0.460397 17.9981 0.375451 18.0249 0.303219 18.0753C0.230987 18.1257 0.174727 18.1975 0.141576 18.2814C0.108424 18.3653 0.0998763 18.4575 0.117018 18.5465C0.13416 18.6356 0.176217 18.7172 0.237854 18.7812L2.81915 21.4777C2.86391 21.5246 2.91785 21.5608 2.97727 21.5837C3.03668 21.6067 3.10017 21.6159 3.16333 21.6109L3.37182 21.5935L14.8769 20.444L14.0991 31.507C14.0946 31.5698 14.1024 31.633 14.1223 31.6926C14.1423 31.7521 14.1737 31.8066 14.2147 31.853C14.2557 31.8991 14.3054 31.9361 14.3607 31.9614C14.416 31.9866 14.4756 31.9996 14.5359 31.9996H17.2331C17.2935 31.9996 17.3531 31.9866 17.4084 31.9614C17.4637 31.9361 17.5134 31.8991 17.5544 31.853C17.5954 31.8066 17.6268 31.7521 17.6467 31.6926C17.6665 31.633 17.6745 31.5698 17.6699 31.507L16.8922 20.444L28.7348 21.5953L28.9432 21.6126C29.0065 21.6177 29.0699 21.6084 29.1293 21.5854C29.1888 21.5624 29.2427 21.5263 29.2874 21.4795L31.8687 18.7829C31.931 18.719 31.9735 18.6372 31.9909 18.5479C32.0085 18.4586 32 18.366 31.9668 18.2818C31.9336 18.1974 31.8771 18.1255 31.8045 18.075C31.7319 18.0244 31.6466 17.9977 31.5593 17.9981Z"
        fill="#004952" />
</svg>