<svg width="32" height="32" viewBox="0 0 32 32" fill="none" xmlns="http://www.w3.org/2000/svg">
    <g clip-path="url(#clip0_3924_84)">
        <path fill-rule="evenodd" clip-rule="evenodd"
            d="M1.07129 -0.0712891C8.26176 -0.0712891 15.4523 -0.0712891 22.6427 -0.0712891C21.7173 1.18672 21.6934 2.47244 22.5713 3.78585C23.6147 4.68347 24.7814 4.87394 26.0713 4.35728C25.803 4.80517 25.422 4.94803 24.9284 4.78585C24.5049 5.08971 24.5526 5.25638 25.0713 5.28585C24.6933 5.35691 24.3123 5.38073 23.9284 5.35728C23.9371 5.65617 24.08 5.87045 24.357 6.00014C24.6903 5.95253 25.0237 5.9049 25.357 5.85728C25.5474 5.95253 25.5474 6.04775 25.357 6.143C25.5613 6.34877 25.7994 6.39638 26.0713 6.28585C25.6364 6.23458 25.5887 6.13935 25.9284 6.00014C26.426 5.84207 26.807 5.98493 27.0713 6.42871C27.0506 6.539 27.003 6.63424 26.9284 6.71443C27.2367 6.92257 27.4986 7.18447 27.7141 7.50014C27.7031 7.32334 27.7269 7.18048 27.7856 7.07157C28.2676 7.36718 28.5294 7.70051 28.5713 8.07157C28.3819 7.88601 28.1913 7.69554 27.9999 7.50014C28.0337 7.8557 28.1529 8.18903 28.357 8.50014C26.9074 6.80011 25.0503 5.99058 22.7856 6.07157C22.3474 4.02604 21.2046 2.52604 19.357 1.57157C16.0677 0.0605019 13.0439 0.465264 10.2856 2.78585C8.10419 5.10574 7.4137 7.82003 8.21415 10.9287C5.67266 13.8833 4.93456 17.2643 5.99986 21.0716C6.33959 22.0841 6.79196 23.0364 7.357 23.9287C7.06332 27.0333 8.39665 29.0571 11.357 30.0001C13.2393 30.2924 14.8583 29.7924 16.2141 28.5001C16.6236 28.2909 17.0521 28.148 17.4999 28.0716C20.7914 27.6036 23.2914 25.937 24.9999 23.0716C25.5377 21.9569 25.9426 20.814 26.2141 19.643C26.1937 19.8947 26.2414 20.1329 26.357 20.3573C26.6774 20.4964 27.0107 20.5441 27.357 20.5001C27.357 21.262 27.357 22.024 27.357 22.7859C26.976 22.7859 26.5951 22.7859 26.2141 22.7859C26.2141 23.5477 26.2141 24.3097 26.2141 25.0716C25.8331 25.0716 25.4523 25.0716 25.0713 25.0716C25.0713 25.4526 25.0713 25.8334 25.0713 26.2144C24.6903 26.2144 24.3094 26.2144 23.9284 26.2144C23.9284 26.5954 23.9284 26.9763 23.9284 27.3573C23.3269 27.4034 22.7793 27.2606 22.2856 26.9287C22.0799 27.0213 21.8656 27.0689 21.6427 27.0716C21.6427 27.5477 21.6427 28.024 21.6427 28.5001C21.2617 28.5001 20.8809 28.5001 20.4999 28.5001C20.4999 28.8811 20.4999 29.262 20.4999 29.643C19.357 29.643 18.2141 29.643 17.0713 29.643C17.0713 30.024 17.0713 30.4049 17.0713 30.7859C16.6903 30.7859 16.3094 30.7859 15.9284 30.7859C15.9284 31.1669 15.9284 31.5477 15.9284 31.9287C13.6427 31.9287 11.357 31.9287 9.07129 31.9287C9.07129 31.5477 9.07129 31.1669 9.07129 30.7859C8.69033 30.7859 8.30939 30.7859 7.92843 30.7859C7.88266 30.3004 7.93029 29.8241 8.07129 29.3573C8.3584 29.596 8.69173 29.6913 9.07129 29.643C9.0884 29.2566 8.94555 29.1613 8.64272 29.3573C8.50306 29.2891 8.38402 29.194 8.28558 29.0716C8.25669 28.8207 8.18526 28.5827 8.07129 28.3573C7.65398 28.4869 7.2254 28.5344 6.78558 28.5001C6.78558 28.1191 6.78558 27.7383 6.78558 27.3573C6.40462 27.3573 6.02367 27.3573 5.64272 27.3573C5.64272 26.9763 5.64272 26.5954 5.64272 26.2144C5.26176 26.2144 4.88082 26.2144 4.49986 26.2144C4.49986 25.8334 4.49986 25.4526 4.49986 25.0716C4.1189 25.0716 3.73796 25.0716 3.357 25.0716C3.357 23.9287 3.357 22.7859 3.357 21.643C2.97605 21.643 2.5951 21.643 2.21415 21.643C2.21415 21.262 2.21415 20.8811 2.21415 20.5001C2.5951 20.5001 2.97605 20.5001 3.357 20.5001C3.357 19.7383 3.357 18.9763 3.357 18.2144C2.5951 18.2144 1.83319 18.2144 1.07129 18.2144C1.07129 17.4526 1.07129 16.6906 1.07129 15.9287C1.45225 15.9287 1.83319 15.9287 2.21415 15.9287C2.21415 16.3097 2.21415 16.6906 2.21415 17.0716C2.5951 17.0716 2.97605 17.0716 3.357 17.0716C3.357 16.6906 3.357 16.3097 3.357 15.9287C3.73796 15.9287 4.1189 15.9287 4.49986 15.9287C4.49986 15.5477 4.49986 15.1669 4.49986 14.7859C4.1189 14.7859 3.73796 14.7859 3.357 14.7859C3.357 13.643 3.357 12.5001 3.357 11.3573C3.73796 11.3573 4.1189 11.3573 4.49986 11.3573C4.49986 9.07157 4.49986 6.78585 4.49986 4.50014C4.88082 4.50014 5.26176 4.50014 5.64272 4.50014C5.64272 3.73824 5.64272 2.97633 5.64272 2.21443C4.1189 2.21443 2.5951 2.21443 1.07129 2.21443C1.07129 1.45253 1.07129 0.690615 1.07129 -0.0712891Z"
            fill="#C6DDF2" />
        <path fill-rule="evenodd" clip-rule="evenodd"
            d="M22.6431 -0.0712891C24.0241 -0.0712891 25.4049 -0.0712891 26.7859 -0.0712891C27.5708 1.22735 27.5469 2.51307 26.7145 3.78585C26.4764 3.96203 26.2621 4.1525 26.0717 4.35728C24.7818 4.87394 23.6151 4.68347 22.5717 3.78585C21.6938 2.47244 21.7177 1.18672 22.6431 -0.0712891Z"
            fill="#2A988F" />
        <path fill-rule="evenodd" clip-rule="evenodd"
            d="M22.7853 6.0716C22.945 6.86931 22.9689 7.67884 22.8568 8.50017C22.5762 9.41198 22.3142 10.3167 22.071 11.2145C18.6633 9.88793 15.187 9.72127 11.6425 10.7145C10.9163 10.9806 10.2973 11.3853 9.78533 11.9287C9.18253 11.7 8.65873 11.3666 8.21391 10.9287C7.41346 7.82006 8.10395 5.10577 10.2853 2.78588C13.0436 0.465295 16.0675 0.0605327 19.3568 1.5716C21.2043 2.52607 22.3472 4.02607 22.7853 6.0716Z"
            fill="#F7A538" />
        <path fill-rule="evenodd" clip-rule="evenodd"
            d="M22.7856 6.07095C25.0503 5.98997 26.9074 6.7995 28.357 8.49952C29.7493 10.6437 30.0111 12.9294 29.1427 15.3567C28.4954 16.5577 27.5907 17.5101 26.4284 18.2138C26.3887 18.083 26.3173 17.9878 26.2141 17.9281C25.7554 16.0582 24.8507 14.4392 23.4999 13.071C23.705 12.9383 23.8954 12.7716 24.0713 12.571C23.5006 11.9762 22.8339 11.5239 22.0713 11.2138C22.3144 10.3161 22.5764 9.41134 22.857 8.49952C22.9691 7.6782 22.9453 6.86867 22.7856 6.07095Z"
            fill="#D31F26" />
        <path fill-rule="evenodd" clip-rule="evenodd"
            d="M22.0717 11.214C22.8343 11.5241 23.501 11.9765 24.0717 12.5712C23.8959 12.7719 23.7054 12.9385 23.5003 13.0712C22.9613 13.3171 22.4376 13.6028 21.9289 13.9283C19.5467 12.5328 16.9753 12.0328 14.2146 12.4283C13.2593 12.513 12.4736 12.9178 11.8574 13.6426C11.6034 14.4363 11.8653 14.984 12.6432 15.2855C12.9701 15.4029 13.3034 15.4982 13.6432 15.5712C15.9253 15.8522 18.211 16.0903 20.5003 16.2855C23.3463 16.6537 24.5606 18.249 24.1432 21.0712C23.8732 22.1032 23.2779 22.8889 22.3574 23.4283C19.9444 24.498 17.4207 24.8789 14.786 24.5712C13.7082 24.4747 12.6605 24.2605 11.6432 23.9283C10.1651 23.5822 8.85559 22.9155 7.71458 21.9283C7.61634 21.8095 7.64015 21.7143 7.78601 21.6426C8.40505 21.2379 9.02411 20.833 9.64315 20.4283C9.78601 20.333 9.92887 20.333 10.0717 20.4283C12.5208 22.1266 15.235 22.7456 18.2146 22.2855C19.4464 22.2762 20.4703 21.8237 21.286 20.9283C21.6426 20.2346 21.5234 19.6395 20.9289 19.1426C20.416 18.924 19.8922 18.7335 19.3574 18.5712C16.921 18.4057 14.4924 18.1676 12.0717 17.8569C9.12908 17.1073 8.20051 15.3216 9.28601 12.4997C9.48252 12.3276 9.64919 12.1371 9.78601 11.9283C10.298 11.3849 10.917 10.9801 11.6432 10.714C15.1877 9.72084 18.664 9.8875 22.0717 11.214Z"
            fill="#FBFBFB" />
        <path fill-rule="evenodd" clip-rule="evenodd"
            d="M-0.0712891 -0.0712891C0.309664 -0.0712891 0.690615 -0.0712891 1.07157 -0.0712891C1.07157 0.690615 1.07157 1.45253 1.07157 2.21443C2.59538 2.21443 4.11918 2.21443 5.643 2.21443C5.643 2.97633 5.643 3.73824 5.643 4.50014C5.26204 4.50014 4.8811 4.50014 4.50014 4.50014C4.50014 6.78585 4.50014 9.07157 4.50014 11.3573C4.11918 11.3573 3.73824 11.3573 3.35728 11.3573C3.35728 12.5001 3.35728 13.643 3.35728 14.7859C3.73824 14.7859 4.11918 14.7859 4.50014 14.7859C4.50014 15.1669 4.50014 15.5477 4.50014 15.9287C4.11918 15.9287 3.73824 15.9287 3.35728 15.9287C3.35728 16.3097 3.35728 16.6906 3.35728 17.0716C2.97633 17.0716 2.59538 17.0716 2.21443 17.0716C2.21443 16.6906 2.21443 16.3097 2.21443 15.9287C1.83347 15.9287 1.45253 15.9287 1.07157 15.9287C1.07157 16.6906 1.07157 17.4526 1.07157 18.2144C1.83347 18.2144 2.59538 18.2144 3.35728 18.2144C3.35728 18.9763 3.35728 19.7383 3.35728 20.5001C2.97633 20.5001 2.59538 20.5001 2.21443 20.5001C2.21443 20.8811 2.21443 21.262 2.21443 21.643C2.59538 21.643 2.97633 21.643 3.35728 21.643C3.35728 22.7859 3.35728 23.9287 3.35728 25.0716C3.73824 25.0716 4.11918 25.0716 4.50014 25.0716C4.50014 25.4526 4.50014 25.8334 4.50014 26.2144C4.8811 26.2144 5.26204 26.2144 5.643 26.2144C5.643 26.5954 5.643 26.9763 5.643 27.3573C6.02395 27.3573 6.4049 27.3573 6.78585 27.3573C6.78585 27.7383 6.78585 28.1191 6.78585 28.5001C7.22568 28.5344 7.65425 28.4869 8.07157 28.3573C8.18554 28.5827 8.25697 28.8207 8.28585 29.0716C8.3843 29.194 8.50334 29.2891 8.643 29.3573C8.94583 29.1613 9.08868 29.2566 9.07157 29.643C8.69201 29.6913 8.35868 29.596 8.07157 29.3573C7.93057 29.8241 7.88294 30.3004 7.92871 30.7859C8.30967 30.7859 8.69061 30.7859 9.07157 30.7859C9.07157 31.1669 9.07157 31.5477 9.07157 31.9287C6.02395 31.9287 2.97633 31.9287 -0.0712891 31.9287C-0.0712891 21.262 -0.0712891 10.5954 -0.0712891 -0.0712891Z"
            fill="#C7DCF3" />
        <path fill-rule="evenodd" clip-rule="evenodd"
            d="M26.7859 -0.0712891C28.5001 -0.0712891 30.2144 -0.0712891 31.9287 -0.0712891C31.9287 10.5954 31.9287 21.262 31.9287 31.9287C26.5954 31.9287 21.262 31.9287 15.9287 31.9287C15.9287 31.5477 15.9287 31.1669 15.9287 30.7859C16.3097 30.7859 16.6906 30.7859 17.0716 30.7859C17.0716 30.4049 17.0716 30.024 17.0716 29.643C18.2144 29.643 19.3573 29.643 20.5001 29.643C20.5001 29.262 20.5001 28.8811 20.5001 28.5001C20.8811 28.5001 21.262 28.5001 21.643 28.5001C21.643 28.024 21.643 27.5477 21.643 27.0716C21.8659 27.0689 22.0801 27.0213 22.2859 26.9287C22.7796 27.2606 23.3271 27.4034 23.9287 27.3573C23.9287 26.9763 23.9287 26.5954 23.9287 26.2144C24.3097 26.2144 24.6906 26.2144 25.0716 26.2144C25.0716 25.8334 25.0716 25.4526 25.0716 25.0716C25.4526 25.0716 25.8334 25.0716 26.2144 25.0716C26.2144 24.3097 26.2144 23.5477 26.2144 22.7859C26.5954 22.7859 26.9763 22.7859 27.3573 22.7859C27.3573 22.024 27.3573 21.262 27.3573 20.5001C27.011 20.5441 26.6777 20.4964 26.3573 20.3573C26.2417 20.1329 26.194 19.8947 26.2144 19.643C26.2144 19.0716 26.2144 18.5001 26.2144 17.9287C26.3176 17.9884 26.389 18.0836 26.4287 18.2144C27.591 17.5107 28.4957 16.5583 29.143 15.3573C30.0114 12.93 29.7496 10.6443 28.3573 8.50014C28.1531 8.18903 28.034 7.8557 28.0001 7.50014C28.1916 7.69554 28.3821 7.88601 28.5716 8.07157C28.5297 7.70051 28.2679 7.36718 27.7859 7.07157C27.7271 7.18048 27.7034 7.32334 27.7144 7.50014C27.4989 7.18447 27.237 6.92257 26.9287 6.71443C27.0033 6.63424 27.0509 6.539 27.0716 6.42871C26.8073 5.98493 26.4263 5.84207 25.9287 6.00014C25.589 6.13935 25.6367 6.23458 26.0716 6.28585C25.7997 6.39638 25.5616 6.34877 25.3573 6.143C25.5477 6.04775 25.5477 5.95253 25.3573 5.85728C25.024 5.9049 24.6906 5.95253 24.3573 6.00014C24.0803 5.87045 23.9374 5.65617 23.9287 5.35728C24.3126 5.38073 24.6936 5.35691 25.0716 5.28585C24.5529 5.25638 24.5051 5.08971 24.9287 4.78585C25.4223 4.94803 25.8033 4.80517 26.0716 4.35728C26.262 4.1525 26.4763 3.96203 26.7144 3.78585C27.5469 2.51307 27.5707 1.22735 26.7859 -0.0712891Z"
            fill="#C7DCF2" />
        <path fill-rule="evenodd" clip-rule="evenodd"
            d="M8.21457 10.9287C8.6594 11.3666 9.1832 11.6999 9.786 11.9287C9.64919 12.1375 9.48252 12.328 9.286 12.5001C8.2005 15.322 9.12908 17.1077 12.0717 17.8573C14.4924 18.168 16.921 18.4061 19.3574 18.5716C19.8921 18.7339 20.416 18.9244 20.9289 19.143C21.5234 19.6399 21.6426 20.235 21.286 20.9287C20.4703 21.8241 19.4464 22.2766 18.2146 22.2859C15.235 22.746 12.5208 22.127 10.0717 20.4287C9.92886 20.3334 9.786 20.3334 9.64315 20.4287C9.0241 20.8334 8.40505 21.2383 7.786 21.643C7.64015 21.7147 7.61633 21.8099 7.71458 21.9287C8.85559 22.9159 10.1651 23.5826 11.6431 23.9287C11.5835 24.0319 11.4883 24.1033 11.3574 24.143C10.9794 24.214 10.5985 24.2379 10.2146 24.2144C10.2146 24.5001 10.2146 24.7859 10.2146 25.0716C10.5955 25.0716 10.9765 25.0716 11.3574 25.0716C11.3574 25.4526 11.3574 25.8334 11.3574 26.2144C12.1193 26.2144 12.8812 26.2144 13.6431 26.2144C13.6431 26.024 13.6431 25.8334 13.6431 25.643C15.5479 25.643 17.4527 25.643 19.3574 25.643C19.3574 25.8334 19.3574 26.024 19.3574 26.2144C18.5956 26.2144 17.8336 26.2144 17.0717 26.2144C17.0321 26.6356 17.0797 27.0403 17.2146 27.4287C17.7384 27.4763 18.2621 27.524 18.786 27.5716C18.3263 27.7001 17.8977 27.8669 17.5003 28.0716C17.0526 28.148 16.624 28.2909 16.2146 28.5001C13.6561 28.317 11.3228 27.4837 9.21457 26.0001C8.56272 25.3253 7.94368 24.6349 7.35743 23.9287C6.79239 23.0364 6.34002 22.0841 6.00029 21.0716C4.93499 17.2643 5.67309 13.8833 8.21457 10.9287Z"
            fill="#6995C8" />
        <path fill-rule="evenodd" clip-rule="evenodd"
            d="M23.4996 13.0717C24.8504 14.44 25.7552 16.059 26.2139 17.9288C26.2139 18.5003 26.2139 19.0717 26.2139 19.6431C25.9423 20.8141 25.5374 21.957 24.9996 23.0717C23.2912 25.9371 20.7912 27.6037 17.4996 28.0717C17.897 27.867 18.3256 27.7003 18.7853 27.5717C18.2614 27.5241 17.7377 27.4764 17.2139 27.4288C17.079 27.0404 17.0314 26.6357 17.071 26.2146C17.8329 26.2146 18.5949 26.2146 19.3567 26.2146C19.3567 26.0241 19.3567 25.8336 19.3567 25.6431C17.452 25.6431 15.5472 25.6431 13.6424 25.6431C13.6424 25.8336 13.6424 26.0241 13.6424 26.2146C12.8805 26.2146 12.1186 26.2146 11.3567 26.2146C11.3567 25.8336 11.3567 25.4527 11.3567 25.0717C10.9758 25.0717 10.5948 25.0717 10.2139 25.0717C10.2139 24.786 10.2139 24.5003 10.2139 24.2146C10.5978 24.238 10.9787 24.2141 11.3567 24.1431C11.4876 24.1034 11.5828 24.032 11.6424 23.9288C12.6598 24.261 13.7075 24.4753 14.7853 24.5717C17.42 24.8794 19.9437 24.4986 22.3567 23.4288C23.2772 22.8894 23.8724 22.1037 24.1424 21.0717C24.5599 18.2496 23.3456 16.6543 20.4996 16.286C18.2103 16.0908 15.9246 15.8527 13.6424 15.5717C13.3027 15.4987 12.9694 15.4034 12.6424 15.286C11.8646 14.9846 11.6027 14.4368 11.8567 13.6431C12.4729 12.9183 13.2586 12.5136 14.2139 12.4288C16.9746 12.0334 19.546 12.5334 21.9282 13.9288C22.4369 13.6033 22.9606 13.3176 23.4996 13.0717Z"
            fill="#6996C8" />
        <path fill-rule="evenodd" clip-rule="evenodd"
            d="M7.35714 23.9287C7.94338 24.6349 8.56243 25.3253 9.21428 26.0001C11.3225 27.4837 13.6559 28.317 16.2143 28.5001C14.8584 29.7924 13.2394 30.2924 11.3571 30.0001C8.39678 29.0571 7.06346 27.0333 7.35714 23.9287Z"
            fill="#436DA1" />
    </g>
    <defs>
        <clipPath id="clip0_3924_84">
            <rect width="32" height="32" fill="white" />
        </clipPath>
    </defs>
</svg>