<svg width="32" height="32" viewBox="0 0 32 32" fill="none" xmlns="http://www.w3.org/2000/svg">
    <g clip-path="url(#clip0_2346_531)">
        <path fill-rule="evenodd" clip-rule="evenodd"
            d="M-0.0703125 -0.0722656C10.5964 -0.0722656 21.263 -0.0722656 31.9297 -0.0722656C31.9297 10.5944 31.9297 21.2611 31.9297 31.9277C21.263 31.9277 10.5964 31.9277 -0.0703125 31.9277C-0.0703125 21.2611 -0.0703125 10.5944 -0.0703125 -0.0722656Z"
            fill="#FEFEFE" />
        <path fill-rule="evenodd" clip-rule="evenodd"
            d="M3.87668 2.81049C5.64464 2.64304 7.17182 3.17157 8.45817 4.39608C9.15582 5.54134 10.0016 6.55035 10.9956 7.4231C13.8979 6.19998 16.7408 6.34413 19.5243 7.85553C21.3342 6.92634 23.2137 6.18159 25.163 5.6213C26.4527 5.39695 27.6745 5.58914 28.8282 6.19788C29.7575 7.19038 30.063 8.36756 29.7445 9.72941C29.5952 10.1788 29.4073 10.6113 29.1806 11.0267C28.2923 11.7908 27.4464 12.6076 26.6432 13.4772C25.9619 14.4621 25.2804 15.4472 24.5991 16.4321C23.9216 16.7015 23.2168 16.8457 22.4846 16.8645C22.1797 18.9512 21.6392 20.9933 20.8635 22.9907C20.7026 23.2947 20.4912 23.5589 20.2291 23.7835C18.9299 24.664 17.5672 25.4328 16.141 26.0898C12.9239 26.5304 10.081 25.6895 7.61236 23.5672C7.47139 23.327 7.33042 23.0868 7.18945 22.8465C7.12809 21.2673 6.84615 19.7298 6.34364 18.2339C6.13974 17.1331 6.30421 16.1 6.83703 15.1348C6.35115 14.8138 5.83426 14.5255 5.28637 14.2699C4.67614 13.7218 4.41769 13.0251 4.51104 12.1799C3.63484 10.3881 2.83601 8.56229 2.11456 6.70238C1.57785 4.82281 2.16521 3.52552 3.87668 2.81049Z"
            fill="#2BAEBA" />
        <path fill-rule="evenodd" clip-rule="evenodd"
            d="M6.55508 3.82013C6.64664 4.09908 6.69363 4.38737 6.69605 4.685C6.68759 4.76328 6.64061 4.81132 6.55508 4.82914C5.8203 4.57623 5.06846 4.50415 4.29958 4.61292C4.00019 4.77461 3.74175 4.99083 3.52425 5.26157C3.4371 5.95714 3.53108 6.62982 3.80618 7.27959C4.1765 8.42071 4.6229 9.52582 5.14539 10.5949C4.95744 10.5949 4.76947 10.5949 4.58151 10.5949C3.6395 9.19566 2.95816 7.65811 2.53746 5.98229C2.27128 4.72541 2.71769 3.88458 3.87667 3.45977C4.53453 3.36367 5.19238 3.36367 5.85024 3.45977C6.10604 3.56886 6.34098 3.68899 6.55508 3.82013Z"
            fill="#E3EAEE" />
        <path fill-rule="evenodd" clip-rule="evenodd"
            d="M6.55511 3.81934C6.85019 3.89785 7.13213 4.01797 7.40093 4.1797C8.41121 5.40492 9.42148 6.63015 10.4318 7.85537C10.5468 8.04605 10.7112 8.14213 10.9252 8.14366C10.2229 8.83903 9.58856 9.6078 9.02207 10.45C8.33462 11.7607 7.65326 13.058 6.97802 14.3419C6.39892 14.2022 5.85853 13.9619 5.35687 13.6211C5.1994 12.5854 4.94094 11.5764 4.58154 10.5941C4.7695 10.5941 4.95747 10.5941 5.14542 10.5941C5.44642 11.4798 6.01029 12.1525 6.83705 12.6121C8.75732 11.177 9.29769 9.30311 8.45819 6.99051C8.30073 6.78158 8.20675 6.54134 8.17626 6.26979C7.65022 5.75632 7.15682 5.2278 6.69608 4.6842C6.69366 4.38657 6.64667 4.09828 6.55511 3.81934Z"
            fill="#1F2324" />
        <path fill-rule="evenodd" clip-rule="evenodd"
            d="M6.69593 4.68462C7.15667 5.22821 7.65006 5.75673 8.1761 6.2702C8.2066 6.54175 8.30058 6.782 8.45804 6.99092C9.29754 9.30353 8.75717 11.1774 6.8369 12.6125C6.01014 12.1529 5.44627 11.4802 5.14527 10.5945C4.62278 9.52544 4.17637 8.42033 3.80606 7.27921C3.53096 6.62944 3.43698 5.95676 3.52412 5.26119C3.74162 4.99045 4.00006 4.77423 4.29945 4.61254C5.06834 4.50377 5.82017 4.57584 6.55496 4.82876C6.64049 4.81094 6.68747 4.7629 6.69593 4.68462Z"
            fill="#4F4144" />
        <path fill-rule="evenodd" clip-rule="evenodd"
            d="M7.54167 21.6937C8.21926 20.5017 8.9006 19.3004 9.58573 18.0901C10.4883 17.0706 11.4751 16.1577 12.5461 15.3514C13.5429 13.5201 13.7308 11.5982 13.11 9.58563C12.8642 8.90312 12.6058 8.23044 12.3346 7.56761C12.5238 7.38123 12.7588 7.2611 13.0395 7.20725C15.3187 6.89508 17.4566 7.30349 19.4536 8.43247C21.0971 7.67994 22.7652 6.98325 24.458 6.34238C25.7445 6.01851 27.0132 6.06656 28.2641 6.48653C29.6234 7.83786 29.7408 9.30334 28.6166 10.8829C26.8223 12.2841 25.3891 13.9898 24.317 16C23.7227 16.1736 23.1119 16.2696 22.4844 16.2883C22.2326 16.4015 22.0212 16.5696 21.85 16.7928C21.6693 18.8296 21.1993 20.7995 20.4404 22.7027C19.1154 23.994 17.5883 24.9789 15.8589 25.6577C14.4046 25.5531 12.9479 25.4089 11.4888 25.2253C10.0943 24.6689 8.84906 23.8761 7.75313 22.8469C7.57656 22.4845 7.50608 22.1002 7.54167 21.6937Z"
            fill="#E6ECF0" />
        <path fill-rule="evenodd" clip-rule="evenodd"
            d="M26.4317 6.84694C27.7698 6.72511 28.5216 7.34975 28.6872 8.72082C28.5936 9.2722 28.4291 9.80073 28.1938 10.3064C26.5052 11.8895 24.6961 13.3069 22.7665 14.5587C22.5843 14.6293 22.3962 14.6534 22.2027 14.6307C22.3384 14.0115 22.3618 13.3869 22.2731 12.7569C21.9163 11.6909 21.4465 10.6819 20.8634 9.72983C20.7533 9.52173 20.7769 9.32954 20.9339 9.15325C22.6905 8.1552 24.5231 7.38643 26.4317 6.84694Z"
            fill="#504245" />
        <path fill-rule="evenodd" clip-rule="evenodd"
            d="M12.3346 7.56738C12.6057 8.23022 12.8641 8.90289 13.1099 9.5854C13.7308 11.598 13.5428 13.5199 12.546 15.3512C11.475 16.1575 10.4882 17.0704 9.58567 18.0899C8.90054 19.3001 8.2192 20.5014 7.54162 21.6935C7.48674 20.9722 7.41625 20.2515 7.33016 19.5313C7.07488 18.7246 6.86343 17.9077 6.6958 17.0809C6.88904 16.4232 7.12398 15.7745 7.40065 15.135C7.34952 14.819 7.20855 14.5546 6.97774 14.3422C7.65298 13.0583 8.33434 11.761 9.02179 10.4503C9.58828 9.6081 10.2226 8.83933 10.9249 8.14396C11.3639 7.87141 11.8338 7.67922 12.3346 7.56738Z"
            fill="#302F2C" />
        <path fill-rule="evenodd" clip-rule="evenodd"
            d="M18.5375 16.6484C18.3971 16.6608 18.2796 16.6127 18.185 16.5043C18.1373 16.0455 17.9493 15.661 17.6212 15.3511C17.476 14.6621 17.6169 14.0376 18.0441 13.4773C19.318 12.2857 19.8585 10.7962 19.6652 9.00879C21.8284 11.8853 22.2278 15.0085 20.8635 18.3782C20.4773 18.9954 20.0074 19.0914 19.4538 18.6664C19.1873 17.9662 18.8819 17.2935 18.5375 16.6484Z"
            fill="#2F2F2C" />
        <path fill-rule="evenodd" clip-rule="evenodd"
            d="M10.0791 14.9191C9.91135 15.7018 9.44146 16.0142 8.6694 15.856C8.29893 15.2985 8.29893 14.746 8.6694 14.1984C8.41199 14.1378 8.13005 14.1378 7.82359 14.1984C7.80798 14.1094 7.761 14.0373 7.68262 13.9822C8.39206 13.3447 9.1204 13.3207 9.86764 13.9101C10.0371 14.224 10.1076 14.5603 10.0791 14.9191Z"
            fill="#181F22" />
        <path fill-rule="evenodd" clip-rule="evenodd"
            d="M10.0791 14.9185C10.301 15.3408 10.207 15.7012 9.79715 15.9996C8.5395 16.3981 7.83465 15.9176 7.68262 14.5581C7.68656 14.4039 7.73356 14.2838 7.82359 14.1978C8.13005 14.1372 8.41199 14.1372 8.6694 14.1978C8.29893 14.7454 8.29893 15.2979 8.6694 15.8554C9.44146 16.0136 9.91135 15.7012 10.0791 14.9185Z"
            fill="#A1989F" />
        <path fill-rule="evenodd" clip-rule="evenodd"
            d="M9.37459 14.1982C9.75225 14.2018 9.9402 14.394 9.93847 14.7748C9.70351 14.7748 9.46857 14.7748 9.23362 14.7748C9.22412 14.5645 9.2711 14.3724 9.37459 14.1982Z"
            fill="#5D5364" />
        <path fill-rule="evenodd" clip-rule="evenodd"
            d="M19.3835 15.0627C19.9182 15.0541 20.2235 15.2944 20.2998 15.7834C20.2414 15.8493 20.1709 15.8975 20.0883 15.9276C19.8893 15.7393 19.6543 15.6191 19.3835 15.5672C19.2166 15.4022 19.2166 15.234 19.3835 15.0627Z"
            fill="#1BAAB6" />
        <path fill-rule="evenodd" clip-rule="evenodd"
            d="M18.5375 16.6483C18.1692 16.2555 18.1926 15.871 18.6079 15.4951C18.6605 15.8119 18.731 16.1243 18.8194 16.4321C18.772 16.5805 18.678 16.6526 18.5375 16.6483Z"
            fill="#DDE3E6" />
        <path fill-rule="evenodd" clip-rule="evenodd"
            d="M20.6521 15.7842C20.8437 16.263 20.7027 16.6475 20.2292 16.9373C20.1475 16.7825 20.2179 16.6384 20.4407 16.5049C20.5829 16.2851 20.6534 16.0448 20.6521 15.7842Z"
            fill="#C1C5C7" />
        <path fill-rule="evenodd" clip-rule="evenodd"
            d="M12.476 17.6574C13.1824 17.6335 13.8873 17.6575 14.5905 17.7295C15.1131 17.8644 15.5596 18.1286 15.9297 18.5223C16.1341 19.1311 15.9227 19.4915 15.2954 19.6033C15.0447 20.2201 14.6218 20.6766 14.0267 20.9727C13.8649 21.2992 13.8414 21.6355 13.9562 21.9817C14.61 22.5525 15.3384 23.009 16.1412 23.3511C16.3858 23.4449 16.6208 23.421 16.846 23.279C17.0168 23.3906 17.0168 23.5106 16.846 23.6394C16.4701 23.7355 16.0943 23.7355 15.7183 23.6394C14.9817 23.2868 14.2299 22.9744 13.4628 22.7024C12.6887 22.9543 11.9134 23.1945 11.1368 23.4232C10.7094 23.3986 10.5449 23.2065 10.6434 22.8466C11.4393 22.9558 12.1911 22.7878 12.8989 22.3421C13.1435 21.962 13.3314 21.5536 13.4628 21.1168C12.9734 20.6448 12.668 20.0682 12.5465 19.3871C12.2332 19.1154 11.9748 18.8032 11.7712 18.4502C11.8895 18.0653 12.1245 17.8011 12.476 17.6574Z"
            fill="#2F2E2B" />
    </g>
    <defs>
        <clipPath id="clip0_2346_531">
            <rect width="32" height="32" fill="white" />
        </clipPath>
    </defs>
</svg>