<svg width="32" height="32" viewBox="0 0 33 33" fill="none" xmlns="http://www.w3.org/2000/svg">
    <path opacity="0.992" fill-rule="evenodd" clip-rule="evenodd"
        d="M5.21319 0.441384C12.7378 0.431029 20.2623 0.441384 27.7868 0.472388C29.88 0.811014 31.3373 1.95816 32.1589 3.91383C32.3012 4.3175 32.4045 4.73091 32.469 5.15399C32.5103 12.6776 32.5103 20.2013 32.469 27.7249C31.9832 30.3602 30.4225 31.9208 27.7868 32.4065C20.2623 32.4478 12.7377 32.4478 5.21319 32.4065C2.57778 31.921 1.01704 30.3605 0.531023 27.7249C0.489659 20.2013 0.489659 12.6776 0.531023 5.15399C1.0486 2.53855 2.60935 0.967646 5.21319 0.441384ZM13.7713 3.72781C13.914 3.76253 14.0587 3.79353 14.2054 3.82082C14.4535 3.98619 14.7016 4.15151 14.9496 4.31688C15.967 4.19572 16.5975 4.64007 16.8411 5.65005C16.9905 6.17979 17.1042 6.71721 17.1822 7.26226C17.1446 7.57887 16.9689 7.76489 16.655 7.82033C16.4653 7.77742 16.3207 7.67405 16.2209 7.51029C16.0684 6.93374 15.9237 6.35502 15.7868 5.77407C15.7485 5.404 15.5522 5.24898 15.1977 5.30901C15.0195 5.53081 14.8645 5.76855 14.7326 6.0221C14.1141 6.65886 13.4733 6.67957 12.8101 6.08411C12.5157 5.57837 12.4537 5.04101 12.624 4.4719C12.8945 4.04268 13.277 3.79465 13.7713 3.72781ZM6.70156 4.84395C7.69895 4.72136 8.29846 5.14506 8.50001 6.11511C8.40302 6.96654 7.92754 7.4316 7.07365 7.51029C6.66603 7.44084 6.29393 7.28582 5.95737 7.04523C5.82088 6.99407 5.7072 7.02508 5.61629 7.13824C5.57493 7.36563 5.57493 7.59295 5.61629 7.82033C6.38603 11.1724 7.17151 14.5208 7.97288 17.8656C8.10912 18.2827 8.29517 18.6755 8.53102 19.0438C8.89622 19.3825 9.31998 19.5272 9.80233 19.4778C9.83545 16.9338 9.88717 14.3914 9.95737 11.8508C10.3332 10.4416 11.2324 9.58377 12.655 9.27752C16.4586 9.23616 20.2623 9.23616 24.0659 9.27752C25.5923 9.62563 26.5122 10.5661 26.8256 12.0989C26.8462 13.6697 26.8669 15.2406 26.8876 16.8115C26.9423 16.9728 27.0354 17.1072 27.1667 17.2145C28.039 17.5521 28.8142 18.0378 29.4922 18.6717C30.3739 19.9067 30.4359 21.1883 29.6783 22.5162C29.2991 23.0191 28.8134 23.3808 28.2209 23.6014C27.7938 23.6979 27.3701 23.7909 26.9496 23.8804C26.8701 24.4736 26.8287 25.0731 26.8256 25.6786C26.4823 27.4068 25.4383 28.3886 23.6938 28.624C20.0969 28.6654 16.5 28.6654 12.9031 28.624C11.3309 28.3539 10.3283 27.4548 9.89535 25.9267C9.86832 25.1721 9.83731 24.4176 9.80233 23.6634C9.86261 22.7027 9.87297 21.7415 9.83334 20.78C9.8045 20.6913 9.75278 20.619 9.6783 20.563C8.4161 20.4436 7.55824 19.7925 7.10466 18.6097C6.23905 15.1889 5.41213 11.7578 4.62404 8.31639C4.48717 7.69569 4.54919 7.09633 4.81009 6.51816C5.03365 6.25643 5.31272 6.08076 5.6473 5.9911C5.81592 5.79527 5.9503 5.57825 6.0504 5.34001C6.23272 5.12069 6.44978 4.95538 6.70156 4.84395Z"
        fill="#003478" />
    <path opacity="0.97" fill-rule="evenodd" clip-rule="evenodd"
        d="M12.841 10.2393C13.0934 10.2228 13.3415 10.2434 13.5851 10.3013C13.6281 10.3338 13.6591 10.3752 13.6782 10.4253C13.6844 10.763 13.7258 11.0937 13.8022 11.4174C14.0552 11.4874 14.3135 11.4978 14.5774 11.4484C14.6084 11.4174 14.6394 11.3864 14.6704 11.3554C14.6911 11.0247 14.7118 10.694 14.7324 10.3633C14.7789 10.3245 14.8307 10.2935 14.8875 10.2703C16.9753 10.2289 19.0632 10.2289 21.151 10.2703C21.2234 10.3013 21.2751 10.3529 21.3061 10.4253C21.3267 10.756 21.3474 11.0867 21.3681 11.4174C22.1778 11.7662 22.5292 11.4974 22.4223 10.6113C22.4393 10.4979 22.491 10.4049 22.5774 10.3323C24.3241 9.95931 25.4093 10.6311 25.8332 12.3475C25.8746 12.5749 25.8746 12.8022 25.8332 13.0296C25.8022 13.0606 25.7712 13.0916 25.7402 13.1226C20.8203 13.164 15.9004 13.164 10.9805 13.1226C10.754 11.622 11.3742 10.6609 12.841 10.2393Z"
        fill="#003478" />
    <path opacity="0.988" fill-rule="evenodd" clip-rule="evenodd"
        d="M10.9805 14.455C15.9212 14.4344 20.8618 14.455 25.8022 14.517C25.8847 17.0095 25.8847 19.5002 25.8022 21.989C25.4313 21.9846 25.1108 21.8503 24.8409 21.5859C24.7735 20.9265 24.7115 20.265 24.6549 19.6017C24.245 18.0964 23.2838 17.1559 21.7712 16.7803C19.6583 16.6954 18.3249 17.6771 17.7712 19.7257C17.4885 21.3811 17.9949 22.7349 19.2906 23.7872C20.7897 24.6559 22.216 24.5526 23.5696 23.4772C23.797 23.2085 24.0244 22.9397 24.2518 22.6711C24.3758 22.6297 24.4999 22.6297 24.6239 22.6711C24.996 22.8571 25.3681 23.0431 25.7402 23.2291C25.779 23.2756 25.81 23.3274 25.8332 23.3842C25.8746 24.0662 25.8746 24.7483 25.8332 25.4304C25.6978 26.8059 24.9433 27.5604 23.5696 27.6937C20.0968 27.7351 16.6239 27.7351 13.151 27.6937C11.8521 27.5241 11.0975 26.7903 10.8875 25.4924C10.8461 21.8546 10.8461 18.2168 10.8875 14.579C10.9319 14.5453 10.9629 14.5039 10.9805 14.455Z"
        fill="#003478" />
    <path opacity="0.977" fill-rule="evenodd" clip-rule="evenodd"
        d="M20.965 17.7422C22.4701 17.7889 23.39 18.5537 23.7247 20.0365C23.9072 21.3762 23.4421 22.4199 22.3294 23.1679C20.7294 23.7066 19.5821 23.2003 18.8875 21.6487C18.3942 20.1058 18.8179 18.8967 20.1588 18.0212C20.4283 17.9074 20.6971 17.8144 20.965 17.7422Z"
        fill="#003478" />
    <path opacity="0.957" fill-rule="evenodd" clip-rule="evenodd"
        d="M26.9187 18.3623C27.4948 18.5366 28.0322 18.7949 28.5311 19.1374C29.0809 19.6497 29.2979 20.2801 29.1823 21.0286C28.9331 22.2235 28.1993 22.7403 26.9807 22.5788C26.9402 22.4787 26.9092 22.3753 26.8877 22.2688C26.8368 20.9621 26.8471 19.6599 26.9187 18.3623Z"
        fill="#003478" />
</svg>