<svg width="32" height="32" viewBox="0 0 32 32" fill="none" xmlns="http://www.w3.org/2000/svg">
    <path
        d="M13.5572 29.2675C13.7462 28.7338 13.8363 28.1638 13.822 27.5912C13.85 26.0049 14.235 24.4509 14.9426 23.0684C15.6502 21.6858 16.6583 20.5179 17.8766 19.669C18.48 19.3143 18.9845 18.7859 19.3363 18.1402C19.688 17.4946 19.8738 16.756 19.8738 16.0032C19.8738 15.2505 19.688 14.5119 19.3363 13.8662C18.9845 13.2206 18.48 12.6922 17.8766 12.3375C17.5316 12.0744 17.2003 11.7903 16.8842 11.4866L16.092 10.6333C14.6409 8.95416 13.8272 6.72895 13.8169 4.41203C13.8325 3.83867 13.7434 3.26769 13.5547 2.73295C13.366 2.1982 13.0817 1.71059 12.7185 1.29901C12.3573 0.88838 11.9246 0.561865 11.4464 0.338876C10.9681 0.115887 10.454 0.000976563 9.93458 0.000976562C9.41515 0.000976563 8.90103 0.115887 8.42277 0.338876C7.94451 0.561865 7.51189 0.88838 7.15061 1.29901C6.78855 1.71143 6.50491 2.19919 6.31631 2.73373C6.12771 3.26827 6.03794 3.83884 6.05226 4.41203C6.06011 5.15519 6.24575 5.88296 6.59051 6.52207C6.93526 7.16119 7.42695 7.6891 8.01609 8.05266C9.22603 8.91801 10.2264 10.0944 10.9308 11.4801C11.6351 12.8659 12.0224 14.4195 12.0591 16.0068C12.0534 18.3038 11.255 20.5127 9.8254 22.1866L8.02117 23.949C7.43166 24.3124 6.9396 24.8404 6.59458 25.4797C6.24956 26.119 6.06375 26.847 6.05589 27.5904C6.0258 28.599 6.32128 29.5867 6.88994 30.3784C7.4586 31.1701 8.26369 31.7147 9.16247 31.9155C10.0612 32.1164 10.9956 31.9606 11.8 31.4757C12.6043 30.9908 13.2266 30.2082 13.5565 29.2667L13.5572 29.2675Z"
        fill="#4338CA" />
    <path
        d="M18.8228 6.78509C18.3226 5.95859 18.0975 4.96722 18.1857 3.979C18.2739 2.99078 18.6699 2.06651 19.3067 1.36285C19.758 0.864388 20.3143 0.496464 20.9261 0.291842C21.5379 0.0872207 22.1862 0.0522526 22.8133 0.190052C23.4404 0.327852 24.0267 0.634142 24.5202 1.08164C25.0136 1.52915 25.3988 2.10397 25.6415 2.75492C26.0178 3.73632 26.0478 4.83691 25.7255 5.84132C25.4032 6.84573 24.7518 7.68167 23.8989 8.18554C23.046 8.68941 22.0528 8.82495 21.1139 8.56564C20.1749 8.30632 19.3577 7.67082 18.8221 6.78349L18.8228 6.78509Z"
        fill="#4338CA" />
    <path
        d="M19.8941 24.0201C20.5324 23.5488 21.2836 23.297 22.0523 23.2969C23.0186 23.3001 23.9494 23.6984 24.6637 24.4144C25.378 25.1305 25.8249 26.1131 25.9176 27.1714C26.0007 28.087 25.8144 29.0077 25.3861 29.798C24.9579 30.5884 24.3103 31.2066 23.5388 31.5615C22.829 31.8867 22.0472 31.9717 21.2932 31.8058C20.5392 31.6399 19.8473 31.2305 19.3057 30.63C18.899 30.1805 18.5877 29.6376 18.394 29.0402C18.2002 28.4429 18.1289 27.8057 18.1851 27.1745C18.2414 26.5432 18.4237 25.9335 18.7192 25.3888C19.0146 24.8442 19.4158 24.3781 19.8941 24.024V24.0201Z"
        fill="#4338CA" />
    <path
        d="M31.3371 13.6092C31.73 14.2543 31.9564 15.0047 31.9921 15.7803C32.0278 16.5559 31.8716 17.3276 31.54 18.0131C31.2084 18.6986 30.7139 19.2723 30.1092 19.6729C29.5046 20.0735 28.8125 20.286 28.1066 20.2878C27.3372 20.2868 26.5853 20.0344 25.9463 19.5626C25.3074 19.0908 24.8102 18.4209 24.5178 17.6377C24.2238 16.8531 24.147 15.9904 24.2968 15.1579C24.4466 14.3253 24.8165 13.56 25.36 12.9578C25.7654 12.509 26.2566 12.1652 26.7978 11.9512C27.339 11.7373 27.9167 11.6586 28.489 11.7209C29.0613 11.7832 29.6138 11.9849 30.1065 12.3114C30.5991 12.6378 31.0195 13.0817 31.3371 13.6092Z"
        fill="#4338CA" />
    <path
        d="M1.72509 12.4231C2.28422 12.0137 2.9302 11.7708 3.60007 11.718C4.26993 11.6651 4.9408 11.8042 5.54727 12.1216C6.15374 12.439 6.6751 12.9239 7.06052 13.529C7.44594 14.1342 7.68226 14.8388 7.74644 15.5744C7.82862 16.4523 7.66165 17.3367 7.26849 18.106C6.87533 18.8752 6.27527 19.4917 5.5508 19.8705C4.82632 20.2493 4.01299 20.372 3.22259 20.2216C2.43219 20.0712 1.70353 19.6552 1.13674 19.0306C0.729905 18.581 0.418437 18.038 0.224634 17.4405C0.0308312 16.843 -0.0405128 16.2057 0.0157094 15.5743C0.0719317 14.9429 0.254329 14.333 0.549846 13.7882C0.845362 13.2434 1.24669 12.7772 1.72509 12.4231Z"
        fill="#4338CA" />
</svg>