<svg width="32" height="32" viewBox="0 0 33 33" fill="none" xmlns="http://www.w3.org/2000/svg">
    <path fill-rule="evenodd" clip-rule="evenodd"
        d="M11.9657 0.783203C12.403 0.825539 12.8465 0.919954 13.2963 1.06639C12.9787 1.1996 12.8013 1.48279 12.764 1.91595C13.1512 4.63804 13.3286 7.37549 13.2963 10.1283C13.8058 10.0478 14.2493 10.1422 14.6269 10.4115C13.2703 10.6565 11.9397 11.0813 10.6351 11.6859C9.60769 13.0551 8.76499 12.9136 8.10693 11.2611C7.79133 9.88245 8.05746 8.65532 8.90529 7.57966C9.08271 6.91891 9.08271 6.25812 8.90529 5.59736C8.85449 6.22258 8.72143 6.78895 8.50611 7.29648C8.49443 4.39224 9.64764 2.22116 11.9657 0.783203Z"
        fill="#7A7A7A" />
    <path fill-rule="evenodd" clip-rule="evenodd"
        d="M25.8038 3.61523C26.0684 6.20687 26.157 8.84992 26.07 11.5444C24.4168 11.5378 22.8201 11.349 21.2798 10.9781C22.7916 11.0163 24.2997 11.1107 25.8038 11.2613C25.8038 8.71258 25.8038 6.16391 25.8038 3.61523Z"
        fill="#999999" />
    <path fill-rule="evenodd" clip-rule="evenodd"
        d="M6.37705 5.59738C5.39599 7.69213 4.81941 9.95762 4.64726 12.3938C4.46984 14.4705 4.46984 16.5472 4.64726 18.6239C4.7102 19.2881 4.93196 19.8544 5.31256 20.323C3.77026 21.0608 2.39529 22.0991 1.18769 23.4381C0.205434 18.1169 0.826374 13.0195 3.05053 8.14605C3.89557 7.15266 4.827 6.25593 5.8448 5.45578C6.09411 5.2599 6.2715 5.30711 6.37705 5.59738Z"
        fill="#FEBD00" />
    <path fill-rule="evenodd" clip-rule="evenodd"
        d="M13.2964 1.06641C17.4455 2.02496 21.6148 2.87452 25.8041 3.61508C25.8041 6.16375 25.8041 8.71242 25.8041 11.2611C24.3 11.1105 22.7919 11.0161 21.28 10.9779C19.0605 10.8125 16.8428 10.6237 14.627 10.4115C14.2495 10.1422 13.8059 10.0478 13.2964 10.1284C13.3288 7.3755 13.1513 4.63806 12.7642 1.91596C12.8014 1.4828 12.9788 1.19962 13.2964 1.06641Z"
        fill="#DCDCDB" />
    <path fill-rule="evenodd" clip-rule="evenodd"
        d="M14.0949 3.61487C17.5861 3.52606 20.957 4.13961 24.2075 5.45557C24.3741 5.66808 24.5071 5.90408 24.6067 6.16354C24.7395 7.29238 24.7839 8.42512 24.7397 9.56177C23.3985 10.1376 21.9791 10.2792 20.4818 9.98655C18.4662 9.78979 16.5147 9.31781 14.6271 8.57062C14.266 6.95295 14.0886 5.30104 14.0949 3.61487Z"
        fill="#FBFA8A" />
    <path fill-rule="evenodd" clip-rule="evenodd"
        d="M15.9573 4.74756C16.2234 4.74756 16.4895 4.74756 16.7556 4.74756C16.7556 5.40832 16.7556 6.0691 16.7556 6.72986C15.6784 6.51402 15.4123 5.85326 15.9573 4.74756Z"
        fill="#D48A10" />
    <path fill-rule="evenodd" clip-rule="evenodd"
        d="M24.7397 9.56208C24.7838 8.42543 24.7394 7.29268 24.6066 6.16385C24.5071 5.90439 24.374 5.66839 24.2074 5.45588C20.9569 4.13992 17.586 3.52637 14.0948 3.61518C14.072 3.33315 14.1607 3.09717 14.3609 2.90721C17.1378 2.81778 19.8877 3.10097 22.6107 3.75677C24.6156 3.85829 25.5026 4.94383 25.2719 7.01341C25.2275 7.67416 25.1833 8.33495 25.1388 8.99571C25.0649 9.25505 24.9318 9.44385 24.7397 9.56208Z"
        fill="#7F7E7F" />
    <path fill-rule="evenodd" clip-rule="evenodd"
        d="M27.6667 14.9425C27.4437 15.0392 27.3548 15.228 27.4006 15.5088C27.2582 17.5895 27.081 19.6662 26.8683 21.7389C26.6493 22.6405 26.4718 23.5845 26.3361 24.5708C26.1586 25.4204 25.9814 26.2699 25.8039 27.1195C25.5279 27.5244 25.3504 27.9965 25.2716 28.5354C24.6308 29.7321 23.6549 30.4401 22.3443 30.6593C18.3457 30.8765 14.3539 30.8295 10.3688 30.5177C11.5584 30.2385 12.8003 30.1442 14.0945 30.2345C16.9346 30.2818 19.7732 30.2345 22.6104 30.0929C23.3029 29.8429 23.8795 29.4181 24.3402 28.8186C25.0824 27.393 25.6147 25.8825 25.9369 24.2876C26.4889 20.8172 26.7992 17.3246 26.8683 13.8097C22.0904 13.1314 17.3003 12.565 12.4978 12.1106C12.1129 11.7955 11.6694 11.7483 11.1672 11.969C10.4139 12.5356 9.70424 13.1491 9.03824 13.8097C8.94731 13.5724 8.76989 13.478 8.506 13.5265C8.53546 13.3517 8.62416 13.2101 8.77212 13.1018C8.15483 12.4001 7.71128 11.5977 7.44152 10.6947C7.39095 9.69453 7.56838 8.75056 7.97376 7.86283C8.15118 7.67403 8.32858 7.48526 8.506 7.29646C8.72132 6.78893 8.85438 6.22256 8.90518 5.59735C9.0826 6.2581 9.0826 6.91889 8.90518 7.57965C8.05735 8.6553 7.79123 9.88243 8.10682 11.2611C8.76488 12.9135 9.60758 13.0551 10.635 11.6858C11.9396 11.0813 13.2702 10.6565 14.6268 10.4115C16.8426 10.6236 19.0603 10.8124 21.2798 10.9779C22.8201 11.3488 24.4168 11.5376 26.07 11.5442C26.157 8.84973 26.0684 6.20668 25.8039 3.61504C21.6145 2.87448 17.4453 2.02493 13.2962 1.06637C12.8464 0.919936 12.4029 0.825522 11.9656 0.783186C12.2641 0.597473 12.6189 0.503058 13.0301 0.5C14.0945 0.641593 15.159 0.783186 16.2235 0.924779C19.5757 1.72019 22.9465 2.42816 26.3361 3.04867C26.3805 6.0708 26.3361 9.09143 26.203 12.1106C25.8691 12.3119 25.5588 12.5479 25.2716 12.8186C25.9965 12.8949 26.7063 13.0365 27.4006 13.2434C27.6577 13.7803 27.7463 14.3467 27.6667 14.9425Z"
        fill="#606060" />
    <path fill-rule="evenodd" clip-rule="evenodd"
        d="M17.0222 7.29639C17.5546 7.76846 18.1755 8.09885 18.885 8.28754C19.9495 8.38192 21.014 8.47634 22.0785 8.57072C20.4464 9.13545 18.8053 9.08825 17.1553 8.42913C16.9498 8.47014 16.7724 8.56452 16.623 8.71232C16.4599 8.1473 16.593 7.67532 17.0222 7.29639Z"
        fill="#D78E1B" />
    <path fill-rule="evenodd" clip-rule="evenodd"
        d="M22.3444 5.59748C22.6095 5.57318 22.8312 5.6676 23.0097 5.88067C23.2362 6.60364 23.1476 7.2644 22.7436 7.86297C22.0461 7.21968 21.9131 6.46454 22.3444 5.59748Z"
        fill="#D5880F" />
    <path fill-rule="evenodd" clip-rule="evenodd"
        d="M7.44168 10.6948C7.71145 11.5979 8.155 12.4002 8.77229 13.1019C8.62433 13.2103 8.53563 13.3518 8.50617 13.5267C8.09586 13.7534 7.65232 13.8478 7.17556 13.8099C7.09174 12.7135 7.18046 11.6752 7.44168 10.6948Z"
        fill="#F8F3EA" />
    <path fill-rule="evenodd" clip-rule="evenodd"
        d="M12.4977 12.1108C17.3001 12.5652 22.0903 13.1316 26.8682 13.81C26.799 17.3248 26.4887 20.8174 25.9368 24.2878C25.6145 25.8827 25.0823 27.3932 24.34 28.8188C23.8794 29.4183 23.3027 29.8431 22.6103 30.0931C19.773 30.2347 16.9344 30.282 14.0944 30.2347C12.45 30.0458 10.7645 29.8572 9.03809 29.6684C10.9179 28.9434 11.9381 27.5275 12.0985 25.4206C12.2984 20.9715 12.1654 16.5349 11.6993 12.1108C11.9654 12.1108 12.2315 12.1108 12.4977 12.1108Z"
        fill="#DDDDDD" />
    <path fill-rule="evenodd" clip-rule="evenodd"
        d="M6.37701 5.59717C6.78224 6.26761 7.13706 6.97558 7.4415 7.72106C6.72984 9.8673 6.46372 12.0856 6.64313 14.3759C7.26407 14.3759 7.88504 14.3759 8.50598 14.3759C8.88667 14.3535 9.24149 14.4479 9.57047 14.6591C9.83611 17.2008 9.92481 19.7495 9.83659 22.3051C8.29987 21.7236 6.79184 21.0629 5.31253 20.3228C4.93192 19.8542 4.71016 19.2878 4.64723 18.6237C4.4698 16.547 4.4698 14.4703 4.64723 12.3936C4.81938 9.95741 5.39596 7.69192 6.37701 5.59717Z"
        fill="#FDEF01" />
    <path fill-rule="evenodd" clip-rule="evenodd"
        d="M15.9576 14.6592C16.3124 15.6031 16.3124 16.5471 15.9576 17.491C15.3232 17.2291 15.0571 16.7099 15.1592 15.9335C15.0395 15.19 15.3056 14.7652 15.9576 14.6592Z"
        fill="#F1B81D" />
    <path fill-rule="evenodd" clip-rule="evenodd"
        d="M19.4169 15.2256C19.8231 15.5065 20.0005 15.9313 19.9491 16.4999C20.0005 17.0686 19.8231 17.4934 19.4169 17.7743C19.0106 17.4934 18.8332 17.0686 18.8846 16.4999C18.8332 15.9313 19.0106 15.5065 19.4169 15.2256Z"
        fill="#EEB619" />
    <path fill-rule="evenodd" clip-rule="evenodd"
        d="M12.4977 12.1105C12.2316 12.1105 11.9655 12.1105 11.6993 12.1105C12.1654 16.5346 12.2985 20.9712 12.0985 25.4203C11.9381 27.5272 10.918 28.9431 9.03814 29.668C10.7646 29.8569 12.45 30.0455 14.0944 30.2344C12.8002 30.1441 11.5583 30.2384 10.3687 30.5176C8.94667 30.5646 7.52734 30.5173 6.11081 30.376C5.67509 29.4457 5.49769 28.4546 5.57856 27.4026C5.79388 26.8951 5.92694 26.3287 5.97775 25.7034C7.30731 24.5993 8.59355 23.4665 9.8365 22.3052C9.92472 19.7496 9.83602 17.2009 9.57038 14.6592C9.2414 14.448 8.88658 14.3536 8.50589 14.376C8.59459 14.0928 8.77202 13.904 9.03814 13.8096C9.70413 13.1491 10.4138 12.5355 11.1671 11.9689C11.6692 11.7482 12.1128 11.7954 12.4977 12.1105Z"
        fill="#7B7B7C" />
    <path fill-rule="evenodd" clip-rule="evenodd"
        d="M15.9575 14.6592C16.5523 14.8817 16.8184 15.3537 16.7559 16.0751C16.8184 16.7966 16.5523 17.2685 15.9575 17.491C16.3123 16.5471 16.3123 15.6031 15.9575 14.6592Z"
        fill="#616164" />
    <path fill-rule="evenodd" clip-rule="evenodd"
        d="M7.17531 16.3584C7.51467 17.1786 7.51467 18.0281 7.17531 18.9071C7.01101 18.8757 6.87794 18.7813 6.77613 18.6239C6.73176 18.2463 6.68743 17.8687 6.64307 17.4911C6.66579 16.9721 6.84322 16.5945 7.17531 16.3584Z"
        fill="#FEC100" />
    <path fill-rule="evenodd" clip-rule="evenodd"
        d="M19.417 15.2256C19.6005 14.8649 19.8222 14.8649 20.0823 15.2256C20.7222 16.3301 20.5891 17.2741 19.6831 18.0574C19.5217 18.0224 19.433 17.928 19.417 17.7742C19.8232 17.4934 20.0006 17.0686 19.9492 16.4999C20.0006 15.9312 19.8232 15.5065 19.417 15.2256Z"
        fill="#5D5F68" />
    <path fill-rule="evenodd" clip-rule="evenodd"
        d="M23.1426 15.5088C23.8489 16.4649 23.8489 17.4089 23.1426 18.3406C22.9784 18.3093 22.8453 18.2149 22.7434 18.0575C22.566 17.3023 22.566 16.5471 22.7434 15.792C22.8453 15.6345 22.9784 15.5401 23.1426 15.5088Z"
        fill="#ECB51E" />
    <path fill-rule="evenodd" clip-rule="evenodd"
        d="M7.17529 16.3586C7.28084 16.0683 7.45823 16.0211 7.70753 16.217C8.37039 17.0576 8.41472 17.9544 7.8406 18.9073C7.58054 19.2679 7.35876 19.2679 7.17529 18.9073C7.51465 18.0283 7.51465 17.1788 7.17529 16.3586Z"
        fill="#D88900" />
    <path fill-rule="evenodd" clip-rule="evenodd"
        d="M23.1426 15.5088C23.8843 15.7573 24.239 16.3237 24.2071 17.2079C24.2717 17.8936 24.0056 18.3656 23.4087 18.6238C23.2472 18.5888 23.1585 18.4944 23.1426 18.3406C23.8489 17.4089 23.8489 16.4649 23.1426 15.5088Z"
        fill="#66666D" />
    <path fill-rule="evenodd" clip-rule="evenodd"
        d="M19.1511 19.7568C19.5574 20.0377 19.7348 20.4625 19.6834 21.0312C19.6312 21.5631 19.5425 22.0823 19.4173 22.5887C18.7829 22.3267 18.5168 21.8075 18.6189 21.0312C18.5675 20.4625 18.7449 20.0377 19.1511 19.7568Z"
        fill="#F2BA22" />
    <path fill-rule="evenodd" clip-rule="evenodd"
        d="M7.97381 7.86261C7.56842 8.75034 7.391 9.69431 7.44156 10.6945C7.18034 11.6748 7.09162 12.7132 7.17544 13.8095C7.6522 13.8475 8.09574 13.7531 8.50605 13.5263C8.76993 13.4777 8.94736 13.5721 9.03829 13.8095C8.77217 13.9039 8.59475 14.0927 8.50605 14.3759C7.88511 14.3759 7.26414 14.3759 6.6432 14.3759C6.46378 12.0855 6.7299 9.86726 7.44156 7.72102C7.13712 6.97553 6.7823 6.26757 6.37708 5.59712C6.27154 5.30686 6.09414 5.25965 5.84484 5.45553C4.82703 6.25567 3.89561 7.15241 3.05057 8.1458C0.82641 13.0193 0.20547 18.1166 1.18772 23.4378C2.39533 22.0989 3.77029 21.0605 5.3126 20.3228C6.79191 21.0628 8.29994 21.7236 9.83665 22.3051C8.59371 23.4663 7.30747 24.5992 5.9779 25.7033C5.9271 26.3286 5.79404 26.895 5.57872 27.4024C5.43555 26.9445 5.34685 26.4725 5.3126 25.9865C3.67728 25.4232 2.12492 24.668 0.65548 23.721C-0.422469 18.0564 0.287196 12.6759 2.78445 7.57943C3.83517 6.20096 5.12144 5.3042 6.6432 4.88916C7.20238 5.84245 7.64592 6.8336 7.97381 7.86261Z"
        fill="#D3840D" />
    <path fill-rule="evenodd" clip-rule="evenodd"
        d="M19.1509 19.7567C19.4949 19.4325 19.8054 19.5269 20.0823 20.0399C20.2761 20.8131 20.2318 21.5682 19.9492 22.3053C19.8277 22.5312 19.6502 22.6256 19.417 22.5885C19.5422 22.0821 19.6309 21.5629 19.6831 21.031C19.7345 20.4623 19.5571 20.0376 19.1509 19.7567Z"
        fill="#615F60" />
    <path fill-rule="evenodd" clip-rule="evenodd"
        d="M26.8687 21.7388C26.8687 22.022 26.8687 22.3051 26.8687 22.5883C27.6364 22.5016 28.3462 22.5959 28.9976 22.8715C28.1804 23.5505 27.2931 24.1169 26.3364 24.5706C26.4721 23.5843 26.6497 22.6404 26.8687 21.7388Z"
        fill="#C58117" />
    <path fill-rule="evenodd" clip-rule="evenodd"
        d="M28.9972 22.8716C29.1254 23.1311 29.2141 23.4143 29.2633 23.7211C28.978 25.3863 28.5344 26.9911 27.9327 28.5353C26.9991 28.8646 26.2008 29.431 25.5376 30.2344C25.449 30.1401 25.3601 30.0455 25.2715 29.9512C25.7196 29.07 25.8969 28.1258 25.8037 27.1194C25.9812 26.2698 26.1585 25.4203 26.336 24.5707C27.2927 24.1169 28.1799 23.5506 28.9972 22.8716Z"
        fill="#FCBD01" />
    <path fill-rule="evenodd" clip-rule="evenodd"
        d="M19.1509 24.2876C19.5057 25.2315 19.5057 26.1756 19.1509 27.1195C18.3658 26.4367 18.1883 25.5872 18.6187 24.5708C18.7403 24.3448 18.9177 24.2505 19.1509 24.2876Z"
        fill="#F8BE22" />
    <path fill-rule="evenodd" clip-rule="evenodd"
        d="M27.4009 15.5088C28.7182 15.8973 30.0044 16.3693 31.2596 16.9247C31.9257 20.4991 31.6596 23.9917 30.4613 27.4026C30.0988 28.1774 29.6108 28.8381 28.9976 29.3849C28.6378 29.0949 28.2831 28.8117 27.9331 28.5353C28.5348 26.9911 28.9785 25.3863 29.2637 23.7212C29.2145 23.4143 29.1259 23.1311 28.9976 22.8716C28.3462 22.5961 27.6364 22.5017 26.8687 22.5884C26.8687 22.3052 26.8687 22.0221 26.8687 21.7389C27.0813 19.6661 27.2585 17.5894 27.4009 15.5088Z"
        fill="#FDEF01" />
    <path fill-rule="evenodd" clip-rule="evenodd"
        d="M28.9976 18.0576C29.4992 18.7076 29.6323 19.4628 29.3968 20.3231C29.2078 20.7403 28.8975 20.9291 28.4653 20.8895C28.5406 20.666 28.6737 20.4772 28.8645 20.3231C28.8669 19.5106 28.9114 18.7554 28.9976 18.0576Z"
        fill="#D78C00" />
    <path fill-rule="evenodd" clip-rule="evenodd"
        d="M28.9972 18.0575C28.9109 18.7553 28.8665 19.5104 28.8641 20.3229C28.6733 20.4771 28.5402 20.6659 28.4649 20.8893C28.3007 20.858 28.1677 20.7636 28.0657 20.6061C27.8882 19.851 27.8882 19.0958 28.0657 18.3406C28.3428 17.8277 28.6531 17.7333 28.9972 18.0575Z"
        fill="#FBC100" />
    <path fill-rule="evenodd" clip-rule="evenodd"
        d="M19.1509 24.2874C19.4159 24.2631 19.6377 24.3577 19.8162 24.5706C19.9936 25.3259 19.9936 26.0808 19.8162 26.8361C19.6377 27.0491 19.4159 27.1436 19.1509 27.1193C19.5057 26.1754 19.5057 25.2313 19.1509 24.2874Z"
        fill="#65605B" />
    <path fill-rule="evenodd" clip-rule="evenodd"
        d="M27.6666 14.9424C28.8748 15.4495 30.1168 15.8743 31.3923 16.2167C31.614 16.4527 31.8359 16.6887 32.0576 16.9247C32.2668 19.6736 32.1781 22.4111 31.7915 25.1371C31.3843 26.664 30.7634 28.0799 29.9286 29.3849C28.7697 30.4768 27.5721 31.5153 26.336 32.4999C25.4977 32.1267 24.8769 31.5133 24.4731 30.6592C24.7794 29.9611 25.0456 29.2532 25.2715 28.5353C25.3503 27.9964 25.5278 27.5243 25.8037 27.1194C25.8969 28.1258 25.7197 29.07 25.2715 29.9512C25.3601 30.0455 25.449 30.1401 25.5376 30.2344C26.2008 29.431 26.9992 28.8646 27.9327 28.5353C28.2827 28.8117 28.6374 29.0949 28.9972 29.3849C29.6103 28.838 30.0984 28.1774 30.4609 27.4026C31.6592 23.9917 31.9253 20.4991 31.2592 16.9247C30.0039 16.3692 28.7178 15.8973 27.4005 15.5088C27.3547 15.2279 27.4436 15.0391 27.6666 14.9424Z"
        fill="#D58713" />
</svg>