<svg width="32" height="32" viewBox="0 0 32 32" fill="none" xmlns="http://www.w3.org/2000/svg">
    <g clip-path="url(#clip0_3256_66)">
        <path opacity="0.841" fill-rule="evenodd" clip-rule="evenodd"
            d="M16.5625 -0.0625C16.6041 -0.0625 16.6459 -0.0625 16.6875 -0.0625C16.7291 0.4375 16.7709 0.9375 16.8125 1.4375C16.5625 1.3125 16.3125 1.1875 16.0625 1.0625C16.2631 0.702791 16.4299 0.327791 16.5625 -0.0625Z"
            fill="#D22FFE" />
        <path opacity="0.867" fill-rule="evenodd" clip-rule="evenodd"
            d="M16.0625 1.0625C16.3125 1.1875 16.5625 1.3125 16.8125 1.4375C16.9255 1.52612 16.9671 1.65112 16.9375 1.8125C16.6041 1.6875 16.2709 1.5625 15.9375 1.4375C15.9446 1.29888 15.9862 1.17388 16.0625 1.0625Z"
            fill="#CE33FF" />
        <path opacity="0.917" fill-rule="evenodd" clip-rule="evenodd"
            d="M15.9375 1.4375C16.2709 1.5625 16.6041 1.6875 16.9375 1.8125C17.0399 2.09653 17.1231 2.38819 17.1875 2.6875C16.6584 2.44365 16.1168 2.23531 15.5625 2.0625C15.6579 1.82895 15.7829 1.62061 15.9375 1.4375Z"
            fill="#CA36FF" />
        <path opacity="0.944" fill-rule="evenodd" clip-rule="evenodd"
            d="M15.5625 2.0625C16.1168 2.23531 16.6584 2.44365 17.1875 2.6875C17.2964 3.01404 17.3796 3.34738 17.4375 3.6875C16.7163 3.43116 16.0079 3.13949 15.3125 2.8125C15.3714 2.55268 15.4546 2.30267 15.5625 2.0625Z"
            fill="#C43CFE" />
        <path opacity="0.946" fill-rule="evenodd" clip-rule="evenodd"
            d="M15.1875 2.9375C15.1875 2.85416 15.2291 2.8125 15.3125 2.8125C16.0079 3.13949 16.7163 3.43116 17.4375 3.6875C17.4791 3.77084 17.5209 3.85416 17.5625 3.9375C16.7577 3.63943 15.9661 3.30609 15.1875 2.9375Z"
            fill="#C23FFF" />
        <path opacity="0.955" fill-rule="evenodd" clip-rule="evenodd"
            d="M15.1875 2.9375C15.9661 3.30609 16.7577 3.63943 17.5625 3.9375C17.6714 4.26404 17.7546 4.59738 17.8125 4.9375C16.8434 4.50328 15.8851 4.04494 14.9375 3.5625C15.0209 3.35416 15.1041 3.14584 15.1875 2.9375Z"
            fill="#BE42FF" />
        <path opacity="0.951" fill-rule="evenodd" clip-rule="evenodd"
            d="M14.9375 3.5625C15.8851 4.04494 16.8434 4.50328 17.8125 4.9375C17.9596 5.20992 18.0846 5.5016 18.1875 5.8125C17.0195 5.31173 15.8529 4.81172 14.6875 4.3125C14.7005 4.03715 14.7837 3.78715 14.9375 3.5625Z"
            fill="#B947FE" />
        <path opacity="0.961" fill-rule="evenodd" clip-rule="evenodd"
            d="M14.6876 4.3125C15.853 4.81172 17.0196 5.31173 18.1876 5.8125C18.1947 5.95112 18.2364 6.07613 18.3126 6.1875C17.0626 5.64584 15.8126 5.10416 14.5626 4.5625C14.5411 4.43855 14.5829 4.35521 14.6876 4.3125Z"
            fill="#B64BFE" />
        <path opacity="0.968" fill-rule="evenodd" clip-rule="evenodd"
            d="M14.5625 4.5625C15.8125 5.10416 17.0625 5.64584 18.3125 6.1875C18.413 6.57232 18.538 6.94732 18.6875 7.3125C17.2138 6.67976 15.7554 6.0131 14.3125 5.3125C14.3244 5.02679 14.4077 4.77679 14.5625 4.5625Z"
            fill="#B14EFF" />
        <path opacity="0.969" fill-rule="evenodd" clip-rule="evenodd"
            d="M14.1875 5.4375C14.1875 5.35416 14.2291 5.3125 14.3125 5.3125C15.7554 6.0131 17.2138 6.67976 18.6875 7.3125C18.7291 7.39584 18.7709 7.47916 18.8125 7.5625C17.2554 6.88809 15.7136 6.17975 14.1875 5.4375Z"
            fill="#AF52FF" />
        <path opacity="0.972" fill-rule="evenodd" clip-rule="evenodd"
            d="M14.1875 5.4375C15.7136 6.17975 17.2554 6.88809 18.8125 7.5625C18.9376 7.89645 19.0626 8.22978 19.1875 8.5625C17.4375 7.77084 15.6875 6.97916 13.9375 6.1875C13.9964 5.92768 14.0796 5.67767 14.1875 5.4375Z"
            fill="#AB55FF" />
        <path opacity="0.977" fill-rule="evenodd" clip-rule="evenodd"
            d="M13.9375 6.1875C15.6875 6.97916 17.4375 7.77084 19.1875 8.5625C19.3124 8.89522 19.4374 9.22855 19.5625 9.5625C17.5938 8.71176 15.6354 7.83676 13.6875 6.9375C13.7464 6.67768 13.8296 6.42767 13.9375 6.1875Z"
            fill="#A55AFF" />
        <path opacity="0.987" fill-rule="evenodd" clip-rule="evenodd"
            d="M13.6875 6.9375C15.6354 7.83676 17.5938 8.71176 19.5625 9.5625C19.6388 9.67387 19.6804 9.79888 19.6875 9.9375C17.6794 8.97495 15.6794 8.01661 13.6875 7.0625C13.6875 7.02084 13.6875 6.97916 13.6875 6.9375Z"
            fill="#A35EFF" />
        <path opacity="0.979" fill-rule="evenodd" clip-rule="evenodd"
            d="M13.6875 7.0625C15.6794 8.01661 17.6794 8.97495 19.6875 9.9375C19.8831 10.1887 20.0081 10.4803 20.0625 10.8125C17.8346 9.80264 15.6264 8.76098 13.4375 7.6875C13.4745 7.44963 13.5579 7.24129 13.6875 7.0625Z"
            fill="#9F61FF" />
        <path opacity="0.982" fill-rule="evenodd" clip-rule="evenodd"
            d="M13.4375 7.6875C15.6264 8.76098 17.8346 9.80264 20.0625 10.8125C20.2755 11.157 20.4421 11.532 20.5625 11.9375C18.1293 10.8685 15.6709 9.74349 13.1875 8.5625C13.2209 8.25434 13.3043 7.96268 13.4375 7.6875Z"
            fill="#9A66FF" />
        <path opacity="0.976" fill-rule="evenodd" clip-rule="evenodd"
            d="M13.0625 8.6875C13.0625 8.60416 13.1041 8.5625 13.1875 8.5625C15.6709 9.74349 18.1293 10.8685 20.5625 11.9375C20.6755 12.0261 20.7171 12.1511 20.6875 12.3125C18.1351 11.1283 15.5935 9.91995 13.0625 8.6875Z"
            fill="#976BFF" />
        <path opacity="0.983" fill-rule="evenodd" clip-rule="evenodd"
            d="M13.0625 8.6875C15.5935 9.91995 18.1351 11.1283 20.6875 12.3125C20.9176 12.6061 21.0843 12.9394 21.1875 13.3125C18.3988 12.0846 15.6488 10.7929 12.9375 9.4375C12.9396 9.1794 12.9813 8.9294 13.0625 8.6875Z"
            fill="#926DFF" />
        <path opacity="0.293" fill-rule="evenodd" clip-rule="evenodd"
            d="M7.6875 9.06205C7.60416 9.06205 7.52084 9.06205 7.4375 9.06205C7.4732 8.75796 7.55654 8.75796 7.6875 9.06205Z"
            fill="#857EFF" />
        <path opacity="0.807" fill-rule="evenodd" clip-rule="evenodd"
            d="M7.4375 9.0625C7.52084 9.0625 7.60416 9.0625 7.6875 9.0625C7.92979 9.5054 8.13811 9.96374 8.3125 10.4375C7.94924 10.2767 7.57424 10.1517 7.1875 10.0625C7.23229 9.71668 7.31562 9.38334 7.4375 9.0625Z"
            fill="#7F81FF" />
        <path opacity="0.983" fill-rule="evenodd" clip-rule="evenodd"
            d="M12.9376 9.4375C15.6489 10.7929 18.3989 12.0846 21.1876 13.3125C21.2639 13.4239 21.3055 13.5489 21.3126 13.6875C18.4792 12.3542 15.646 11.0208 12.8126 9.6875C12.7911 9.56355 12.8329 9.48021 12.9376 9.4375Z"
            fill="#9071FF" />
        <path opacity="0.986" fill-rule="evenodd" clip-rule="evenodd"
            d="M12.8125 9.6875C15.6459 11.0208 18.4791 12.3542 21.3125 13.6875C21.5089 13.9544 21.6755 14.246 21.8125 14.5625C18.7201 13.2407 15.6785 11.8241 12.6875 10.3125C12.7036 10.098 12.7453 9.88965 12.8125 9.6875Z"
            fill="#8C74FF" />
        <path opacity="0.918" fill-rule="evenodd" clip-rule="evenodd"
            d="M7.0625 10.1875C7.0625 10.1042 7.10416 10.0625 7.1875 10.0625C7.57424 10.1517 7.94924 10.2767 8.3125 10.4375C8.38872 10.5489 8.43039 10.6739 8.4375 10.8125C7.96865 10.6284 7.51031 10.42 7.0625 10.1875Z"
            fill="#7D84FF" />
        <path opacity="0.903" fill-rule="evenodd" clip-rule="evenodd"
            d="M7.0625 10.1875C7.51031 10.42 7.96865 10.6284 8.4375 10.8125C8.67558 11.163 8.88391 11.538 9.0625 11.9375C8.36843 11.6113 7.6601 11.3196 6.9375 11.0625C6.95926 10.7674 7.00093 10.4757 7.0625 10.1875Z"
            fill="#7987FF" />
        <path opacity="0.983" fill-rule="evenodd" clip-rule="evenodd"
            d="M12.6875 10.3125C15.6785 11.8241 18.7201 13.2407 21.8125 14.5625C21.8896 14.835 22.0146 15.085 22.1875 15.3125C22.3031 15.2054 22.3865 15.0804 22.4375 14.9375C23.4066 15.3717 24.3649 15.8301 25.3125 16.3125C25.3125 16.6041 25.3125 16.8959 25.3125 17.1875C21.0052 15.2214 16.7136 13.2214 12.4375 11.1875C12.4908 10.8738 12.5741 10.5821 12.6875 10.3125Z"
            fill="#8779FF" />
        <path opacity="0.694" fill-rule="evenodd" clip-rule="evenodd"
            d="M24.9375 11.1875C24.6809 11.1997 24.4725 11.1164 24.3125 10.9375C24.3494 10.6971 24.4535 10.4888 24.625 10.3125C24.7489 10.601 24.853 10.8926 24.9375 11.1875Z"
            fill="#AB56FF" />
        <path opacity="0.858" fill-rule="evenodd" clip-rule="evenodd"
            d="M24.3125 10.9375C24.4725 11.1164 24.6809 11.1997 24.9375 11.1875C24.9791 11.5208 25.0209 11.8542 25.0625 12.1875C24.6723 12.0548 24.2973 11.8882 23.9375 11.6875C23.999 11.3977 24.124 11.1477 24.3125 10.9375Z"
            fill="#A55BFF" />
        <path opacity="0.977" fill-rule="evenodd" clip-rule="evenodd"
            d="M6.9375 11.0625C7.6601 11.3196 8.36843 11.6113 9.0625 11.9375C9.0625 12.0208 9.0625 12.1042 9.0625 12.1875C8.33044 11.8837 7.6221 11.5504 6.9375 11.1875C6.9375 11.1458 6.9375 11.1042 6.9375 11.0625Z"
            fill="#778AFF" />
        <path opacity="0.691" fill-rule="evenodd" clip-rule="evenodd"
            d="M11.6875 12.0629C11.5208 12.0212 11.3542 11.9795 11.1875 11.9379C11.6073 10.7396 11.7739 10.7812 11.6875 12.0629Z"
            fill="#7F81FF" />
        <path opacity="0.943" fill-rule="evenodd" clip-rule="evenodd"
            d="M6.9375 11.1875C7.6221 11.5504 8.33044 11.8837 9.0625 12.1875C9.34226 12.6215 9.59226 13.0798 9.8125 13.5625C8.7556 13.1382 7.71394 12.6799 6.6875 12.1875C6.74535 11.8337 6.82869 11.5004 6.9375 11.1875Z"
            fill="#738CFF" />
        <path opacity="0.988" fill-rule="evenodd" clip-rule="evenodd"
            d="M12.4375 11.1875C16.7136 13.2214 21.0052 15.2214 25.3125 17.1875C25.334 17.3115 25.2922 17.3947 25.1875 17.4375C20.9764 15.3737 16.7264 13.3737 12.4375 11.4375C12.4375 11.3542 12.4375 11.2708 12.4375 11.1875Z"
            fill="#847DFF" />
        <path opacity="0.993" fill-rule="evenodd" clip-rule="evenodd"
            d="M12.4375 11.4375C16.7264 13.3737 20.9764 15.3737 25.1875 17.4375C25.2252 17.7574 25.1835 18.0491 25.0625 18.3125C20.7552 16.3464 16.4636 14.3464 12.1875 12.3125C12.2408 11.9988 12.3242 11.7071 12.4375 11.4375Z"
            fill="#7F80FF" />
        <path opacity="0.911" fill-rule="evenodd" clip-rule="evenodd"
            d="M23.9375 11.6875C24.2973 11.8882 24.6723 12.0548 25.0625 12.1875C25.1041 12.2708 25.1459 12.3542 25.1875 12.4375C24.7156 12.3056 24.2573 12.139 23.8125 11.9375C23.8541 11.8542 23.8959 11.7708 23.9375 11.6875Z"
            fill="#A35EFF" />
        <path opacity="0.766" fill-rule="evenodd" clip-rule="evenodd"
            d="M11.1875 11.9375C11.3542 11.9792 11.5208 12.0208 11.6875 12.0625C11.6875 12.1458 11.6875 12.2292 11.6875 12.3125C11.4809 12.2925 11.3142 12.2092 11.1875 12.0625C11.1875 12.0208 11.1875 11.9792 11.1875 11.9375Z"
            fill="#7D84FF" />
        <path opacity="0.937" fill-rule="evenodd" clip-rule="evenodd"
            d="M23.8125 11.9375C24.2573 12.139 24.7156 12.3056 25.1875 12.4375C25.1875 12.6875 25.1875 12.9375 25.1875 13.1875C24.636 13.0037 24.0944 12.7954 23.5625 12.5625C23.6116 12.3395 23.6949 12.1312 23.8125 11.9375Z"
            fill="#9F61FF" />
        <path opacity="0.873" fill-rule="evenodd" clip-rule="evenodd"
            d="M11.1875 12.0625C11.3142 12.2092 11.4809 12.2925 11.6875 12.3125C11.5789 12.5896 11.5372 12.8812 11.5625 13.1875C11.3125 13.0625 11.0625 12.9375 10.8125 12.8125C10.8913 12.5312 11.0163 12.2813 11.1875 12.0625Z"
            fill="#7987FF" />
        <path opacity="0.962" fill-rule="evenodd" clip-rule="evenodd"
            d="M6.6875 12.1875C7.71394 12.6799 8.7556 13.1382 9.8125 13.5625C9.8125 13.6459 9.8125 13.7291 9.8125 13.8125C8.7855 13.3199 7.74384 12.8615 6.6875 12.4375C6.6875 12.3542 6.6875 12.2708 6.6875 12.1875Z"
            fill="#7190FF" />
        <path opacity="0.996" fill-rule="evenodd" clip-rule="evenodd"
            d="M12.1875 12.3125C16.4636 14.3464 20.7552 16.3464 25.0625 18.3125C25.0625 18.3959 25.0625 18.4791 25.0625 18.5625C20.7505 16.611 16.4587 14.611 12.1875 12.5625C12.1875 12.4792 12.1875 12.3958 12.1875 12.3125Z"
            fill="#7D84FF" />
        <path opacity="0.969" fill-rule="evenodd" clip-rule="evenodd"
            d="M6.6875 12.4375C7.74384 12.8615 8.7855 13.3199 9.8125 13.8125C9.94481 13.95 10.049 14.1168 10.125 14.3125C10.183 14.2383 10.2039 14.1549 10.1875 14.0625C10.6875 14.2709 11.1875 14.4791 11.6875 14.6875C11.6752 15.0296 11.7168 15.363 11.8125 15.6875C10.0409 14.9441 8.29087 14.1525 6.5625 13.3125C6.58426 13.0174 6.62593 12.7257 6.6875 12.4375Z"
            fill="#6E92FF" />
        <path opacity="0.992" fill-rule="evenodd" clip-rule="evenodd"
            d="M12.1874 12.5625C16.4587 14.611 20.7504 16.611 25.0624 18.5625C25.0407 18.8576 24.9991 19.1493 24.9374 19.4375C20.6613 17.4036 16.3697 15.4036 12.0624 13.4375C12.0559 13.1371 12.0976 12.8455 12.1874 12.5625Z"
            fill="#7986FF" />
        <path opacity="0.935" fill-rule="evenodd" clip-rule="evenodd"
            d="M23.5625 12.5625C24.0944 12.7954 24.636 13.0037 25.1875 13.1875C25.2985 13.5067 25.3401 13.8401 25.3125 14.1875C24.5913 13.9311 23.8829 13.6395 23.1875 13.3125C23.249 13.0226 23.374 12.7726 23.5625 12.5625Z"
            fill="#9A66FF" />
        <path opacity="0.899" fill-rule="evenodd" clip-rule="evenodd"
            d="M10.8125 12.8125C11.0625 12.9375 11.3125 13.0625 11.5625 13.1875C11.5625 13.2709 11.5625 13.3541 11.5625 13.4375C11.2859 13.2784 10.9942 13.1534 10.6875 13.0625C10.7292 12.9791 10.7708 12.8959 10.8125 12.8125Z"
            fill="#778AFF" />
        <path opacity="0.924" fill-rule="evenodd" clip-rule="evenodd"
            d="M10.6875 13.0625C10.9942 13.1534 11.2859 13.2784 11.5625 13.4375C11.5625 13.7709 11.5625 14.1041 11.5625 14.4375C11.1458 14.2709 10.7292 14.1041 10.3125 13.9375C10.4034 13.6308 10.5284 13.3391 10.6875 13.0625Z"
            fill="#738CFF" />
        <path opacity="0.977" fill-rule="evenodd" clip-rule="evenodd"
            d="M23.1875 13.3125C23.8829 13.6395 24.5913 13.9311 25.3125 14.1875C25.3125 14.2709 25.3125 14.3541 25.3125 14.4375C24.5804 14.1337 23.8721 13.8004 23.1875 13.4375C23.1875 13.3959 23.1875 13.3541 23.1875 13.3125Z"
            fill="#976BFF" />
        <path opacity="0.993" fill-rule="evenodd" clip-rule="evenodd"
            d="M12.0625 13.4375C16.3698 15.4036 20.6614 17.4036 24.9375 19.4375C24.9375 19.5209 24.9375 19.6041 24.9375 19.6875C24.8959 19.6875 24.8541 19.6875 24.8125 19.6875C20.5738 17.6635 16.3238 15.6635 12.0625 13.6875C12.0625 13.6041 12.0625 13.5209 12.0625 13.4375Z"
            fill="#778AFF" />
        <path opacity="0.977" fill-rule="evenodd" clip-rule="evenodd"
            d="M23.1875 13.4375C23.8721 13.8004 24.5804 14.1337 25.3125 14.4375C25.3125 14.7291 25.3125 15.0209 25.3125 15.3125C24.4797 14.9378 23.6464 14.5628 22.8125 14.1875C22.874 13.8976 22.999 13.6476 23.1875 13.4375Z"
            fill="#926DFF" />
        <path opacity="0.998" fill-rule="evenodd" clip-rule="evenodd"
            d="M6.5625 13.6875C10.0181 15.2489 13.4348 16.8739 16.8125 18.5625C16.1459 18.5625 15.4791 18.5625 14.8125 18.5625C12.1013 17.2071 9.3513 15.9155 6.5625 14.6875C6.5625 14.3541 6.5625 14.0209 6.5625 13.6875Z"
            fill="#6898FF" />
        <path opacity="0.992" fill-rule="evenodd" clip-rule="evenodd"
            d="M12.0626 13.6875C16.3238 15.6635 20.5738 17.6635 24.8126 19.6875C24.8126 19.8541 24.8126 20.0209 24.8126 20.1875C24.6996 20.2761 24.658 20.4011 24.6876 20.5625C20.4376 18.6041 16.1876 16.6459 11.9376 14.6875C11.8993 14.3269 11.9409 13.9935 12.0626 13.6875Z"
            fill="#748CFF" />
        <path opacity="0.89" fill-rule="evenodd" clip-rule="evenodd"
            d="M10.1875 14.0625C10.1875 13.9791 10.2292 13.9375 10.3125 13.9375C10.7292 14.1041 11.1458 14.2709 11.5625 14.4375C11.6042 14.5209 11.6458 14.6041 11.6875 14.6875C11.1875 14.4791 10.6875 14.2709 10.1875 14.0625Z"
            fill="#7190FF" />
        <path opacity="0.977" fill-rule="evenodd" clip-rule="evenodd"
            d="M22.6875 14.3125C22.6875 14.2291 22.7291 14.1875 22.8125 14.1875C23.6464 14.5628 24.4797 14.9378 25.3125 15.3125C25.3125 15.3959 25.3125 15.4791 25.3125 15.5625C24.4224 15.1799 23.5474 14.7632 22.6875 14.3125Z"
            fill="#9071FF" />
        <path opacity="0.978" fill-rule="evenodd" clip-rule="evenodd"
            d="M22.6875 14.3125C23.5474 14.7632 24.4224 15.1799 25.3125 15.5625C25.3125 15.8125 25.3125 16.0625 25.3125 16.3125C24.3649 15.8301 23.4066 15.3717 22.4375 14.9375C22.5209 14.7291 22.6041 14.5209 22.6875 14.3125Z"
            fill="#8D74FF" />
        <path opacity="0.994" fill-rule="evenodd" clip-rule="evenodd"
            d="M11.9375 14.8125C11.9375 14.7709 11.9375 14.7291 11.9375 14.6875C16.1875 16.6459 20.4375 18.6041 24.6875 20.5625C24.6875 20.6041 24.6875 20.6459 24.6875 20.6875C24.6041 20.6875 24.5625 20.7291 24.5625 20.8125C20.3541 18.8125 16.1459 16.8125 11.9375 14.8125Z"
            fill="#7190FF" />
        <path fill-rule="evenodd" clip-rule="evenodd"
            d="M6.5625 14.6875C9.3513 15.9155 12.1013 17.2071 14.8125 18.5625C14.4791 18.5625 14.1459 18.5625 13.8125 18.5625C11.4332 17.373 9.01649 16.248 6.5625 15.1875C6.5625 15.0209 6.5625 14.8541 6.5625 14.6875Z"
            fill="#649CFF" />
        <path opacity="0.98" fill-rule="evenodd" clip-rule="evenodd"
            d="M11.9375 14.8125C16.1459 16.8125 20.3541 18.8125 24.5625 20.8125C24.5625 20.9375 24.5625 21.0625 24.5625 21.1875C24.4457 21.321 24.404 21.4876 24.4375 21.6875C24.3959 21.6875 24.3541 21.6875 24.3125 21.6875C23.1845 21.0821 22.0178 20.5404 20.8125 20.0625C20.059 18.8946 18.9756 18.3946 17.5625 18.5625C15.711 17.616 13.836 16.6994 11.9375 15.8125C11.9375 15.4791 11.9375 15.1459 11.9375 14.8125Z"
            fill="#6E92FF" />
        <path fill-rule="evenodd" clip-rule="evenodd"
            d="M6.5625 15.3125C6.5625 15.2709 6.5625 15.2291 6.5625 15.1875C9.01649 16.248 11.4332 17.373 13.8125 18.5625C13.6459 18.5625 13.4791 18.5625 13.3125 18.5625C11.1011 17.4152 8.85109 16.3319 6.5625 15.3125Z"
            fill="#649EFF" />
        <path opacity="0.984" fill-rule="evenodd" clip-rule="evenodd"
            d="M6.5625 15.3125C8.85109 16.3319 11.1011 17.4152 13.3125 18.5625C12.9216 18.6406 12.5466 18.7656 12.1875 18.9375C10.3649 17.9639 8.48989 17.0889 6.5625 16.3125C6.5625 15.9791 6.5625 15.6459 6.5625 15.3125Z"
            fill="#60A0FF" />
        <path opacity="0.954" fill-rule="evenodd" clip-rule="evenodd"
            d="M6.5625 13.3125C8.29087 14.1525 10.0409 14.9441 11.8125 15.6875C11.8076 15.903 11.8493 15.9446 11.9375 15.8125C13.836 16.6994 15.711 17.616 17.5625 18.5625C17.3125 18.5625 17.0625 18.5625 16.8125 18.5625C13.4348 16.8739 10.0181 15.2489 6.5625 13.6875C6.5625 13.5625 6.5625 13.4375 6.5625 13.3125Z"
            fill="#6B95FF" />
        <path opacity="0.982" fill-rule="evenodd" clip-rule="evenodd"
            d="M6.5625 16.4375C6.5625 16.3959 6.5625 16.3541 6.5625 16.3125C8.48989 17.0889 10.3649 17.9639 12.1875 18.9375C12.1042 18.9791 12.0208 19.0209 11.9375 19.0625C10.1693 18.1576 8.37762 17.2826 6.5625 16.4375Z"
            fill="#5EA3FF" />
        <path opacity="0.975" fill-rule="evenodd" clip-rule="evenodd"
            d="M6.5625 16.4375C8.37762 17.2826 10.1693 18.1576 11.9375 19.0625C11.6424 19.2743 11.3924 19.5243 11.1875 19.8125C9.75911 18.9735 8.25911 18.2653 6.6875 17.6875C6.61865 17.2741 6.57699 16.8575 6.5625 16.4375Z"
            fill="#5AA6FF" />
        <path opacity="0.977" fill-rule="evenodd" clip-rule="evenodd"
            d="M6.6875 17.8125C6.6875 17.7709 6.6875 17.7291 6.6875 17.6875C8.25911 18.2653 9.75911 18.9735 11.1875 19.8125C11.1875 19.8959 11.1458 19.9375 11.0625 19.9375C9.62759 19.1992 8.16925 18.491 6.6875 17.8125Z"
            fill="#58AAFF" />
        <path opacity="0.97" fill-rule="evenodd" clip-rule="evenodd"
            d="M6.6875 17.8125C8.16925 18.491 9.62759 19.1992 11.0625 19.9375C11.0037 20.1974 10.9203 20.4474 10.8125 20.6875C9.53566 20.0699 8.244 19.4865 6.9375 18.9375C6.81562 18.5861 6.73229 18.2111 6.6875 17.8125Z"
            fill="#54ACFF" />
        <path opacity="0.979" fill-rule="evenodd" clip-rule="evenodd"
            d="M6.9375 18.9375C8.244 19.4865 9.53566 20.0699 10.8125 20.6875C10.8125 20.7709 10.8125 20.8541 10.8125 20.9375C9.51067 20.4202 8.219 19.8785 6.9375 19.3125C6.9375 19.1875 6.9375 19.0625 6.9375 18.9375Z"
            fill="#52B0FF" />
        <path opacity="0.958" fill-rule="evenodd" clip-rule="evenodd"
            d="M6.9375 19.3125C8.219 19.8785 9.51067 20.4202 10.8125 20.9375C10.8125 21.2709 10.8125 21.6041 10.8125 21.9375C9.58938 21.4301 8.38105 20.8885 7.1875 20.3125C7.1875 20.2291 7.14584 20.1875 7.0625 20.1875C7.069 19.8871 7.02732 19.5955 6.9375 19.3125Z"
            fill="#4EB2FF" />
        <path opacity="0.947" fill-rule="evenodd" clip-rule="evenodd"
            d="M24.9375 19.6875C25.0209 19.6875 25.1041 19.6875 25.1875 19.6875C25.5309 20.0259 25.9475 20.2341 26.4375 20.3125C26.6476 20.6978 26.731 21.1144 26.6875 21.5625C26.0475 21.305 25.4225 21.0134 24.8125 20.6875C24.8125 20.5209 24.8125 20.3541 24.8125 20.1875C24.9293 20.054 24.971 19.8874 24.9375 19.6875Z"
            fill="#748CFF" />
        <path opacity="0.635" fill-rule="evenodd" clip-rule="evenodd"
            d="M25.1875 19.6875C25.7092 19.7074 26.126 19.9156 26.4375 20.3125C25.9475 20.2341 25.5309 20.0259 25.1875 19.6875Z"
            fill="#778AFF" />
        <path opacity="0.79" fill-rule="evenodd" clip-rule="evenodd"
            d="M6.3125 19.8125C6.49561 19.9671 6.70395 20.0921 6.9375 20.1875C6.97916 20.1875 7.02084 20.1875 7.0625 20.1875C7.0625 20.3125 7.0625 20.4375 7.0625 20.5625C6.64584 20.3959 6.22916 20.2291 5.8125 20.0625C5.93921 19.9157 6.10588 19.8325 6.3125 19.8125Z"
            fill="#4BB6FF" />
        <path opacity="0.847" fill-rule="evenodd" clip-rule="evenodd"
            d="M6.3125 19.8125C6.52084 19.8125 6.72916 19.8125 6.9375 19.8125C6.9375 19.9375 6.9375 20.0625 6.9375 20.1875C6.70395 20.0921 6.49561 19.9671 6.3125 19.8125Z"
            fill="#4CB4FF" />
        <path opacity="0.926" fill-rule="evenodd" clip-rule="evenodd"
            d="M5.8125 20.0625C6.22916 20.2291 6.64584 20.3959 7.0625 20.5625C7.0625 20.6459 7.10416 20.6875 7.1875 20.6875C7.15402 20.8874 7.19569 21.054 7.3125 21.1875C7.3125 21.3541 7.3125 21.5209 7.3125 21.6875C6.63766 21.3501 5.971 21.0168 5.3125 20.6875C5.38498 20.4064 5.55164 20.1981 5.8125 20.0625Z"
            fill="#48B8FF" />
        <path opacity="0.97" fill-rule="evenodd" clip-rule="evenodd"
            d="M7.1875 20.3125C8.38105 20.8885 9.58938 21.4301 10.8125 21.9375C10.8125 22.0625 10.8125 22.1875 10.8125 22.3125C9.64584 21.8125 8.47916 21.3125 7.3125 20.8125C7.3125 20.7291 7.27084 20.6875 7.1875 20.6875C7.1875 20.5625 7.1875 20.4375 7.1875 20.3125Z"
            fill="#4BB5FF" />
        <path opacity="0.834" fill-rule="evenodd" clip-rule="evenodd"
            d="M14.8125 21.437C14.2466 21.1752 13.7049 20.8835 13.1875 20.562C14.0765 20.2354 14.6182 20.527 14.8125 21.437Z"
            fill="#59A7FF" />
        <path opacity="0.832" fill-rule="evenodd" clip-rule="evenodd"
            d="M17.6875 20.5629C17.7761 20.4499 17.9011 20.4083 18.0625 20.4379C18.3561 20.6681 18.6894 20.8347 19.0625 20.9379C19.1672 20.9807 19.209 21.0639 19.1875 21.1879C18.687 20.9793 18.187 20.7709 17.6875 20.5629Z"
            fill="#649EFF" />
        <path opacity="0.678" fill-rule="evenodd" clip-rule="evenodd"
            d="M18.0625 20.4371C18.5024 20.4069 18.8356 20.5737 19.0625 20.9371C18.6894 20.8338 18.3561 20.6672 18.0625 20.4371Z"
            fill="#649CFF" />
        <path opacity="0.966" fill-rule="evenodd" clip-rule="evenodd"
            d="M13.1875 20.5625C13.7049 20.884 14.2466 21.1756 14.8125 21.4375C14.8125 21.4791 14.8125 21.5209 14.8125 21.5625C14.1855 21.3324 13.6022 21.0407 13.0625 20.6875C13.0625 20.6041 13.1041 20.5625 13.1875 20.5625Z"
            fill="#58AAFF" />
        <path opacity="0.924" fill-rule="evenodd" clip-rule="evenodd"
            d="M17.6875 20.5625C18.187 20.7705 18.687 20.9789 19.1875 21.1875C19.3716 21.5565 19.33 21.8899 19.0625 22.1875C18.435 21.7904 17.7682 21.4571 17.0625 21.1875C17.1486 20.8514 17.357 20.643 17.6875 20.5625Z"
            fill="#60A0FF" />
        <path opacity="0.958" fill-rule="evenodd" clip-rule="evenodd"
            d="M21.0625 20.5625C22.1445 21.02 23.2279 21.4784 24.3125 21.9375C24.3125 22.0209 24.3125 22.1041 24.3125 22.1875C24.1995 22.2761 24.1579 22.4011 24.1875 22.5625C24.0828 22.6053 24.041 22.6885 24.0625 22.8125C23.0899 22.326 22.0899 21.9094 21.0625 21.5625C21.0625 21.2291 21.0625 20.8959 21.0625 20.5625Z"
            fill="#6798FF" />
        <path opacity="0.922" fill-rule="evenodd" clip-rule="evenodd"
            d="M5.3126 20.6875C5.9711 21.0168 6.63776 21.3501 7.3126 21.6875C7.35426 21.6875 7.39593 21.6875 7.4376 21.6875C7.4376 21.7291 7.4376 21.7709 7.4376 21.8125C6.6694 21.5703 5.9194 21.2786 5.1876 20.9375C5.16615 20.8135 5.20782 20.7303 5.3126 20.6875Z"
            fill="#45BCFF" />
        <path opacity="0.944" fill-rule="evenodd" clip-rule="evenodd"
            d="M13.0625 20.6875C13.6022 21.0407 14.1855 21.3324 14.8125 21.5625C14.8865 21.9539 14.7615 22.2455 14.4375 22.4375C13.8275 22.1116 13.2025 21.82 12.5625 21.5625C12.5906 21.1817 12.7573 20.8901 13.0625 20.6875Z"
            fill="#54ACFF" />
        <path opacity="0.953" fill-rule="evenodd" clip-rule="evenodd"
            d="M24.6875 20.8125C24.6875 20.7709 24.6875 20.7291 24.6875 20.6875C24.7291 20.6875 24.7709 20.6875 24.8125 20.6875C25.4225 21.0134 26.0475 21.305 26.6875 21.5625C26.6875 21.6041 26.6875 21.6459 26.6875 21.6875C25.9924 21.465 25.3256 21.1734 24.6875 20.8125Z"
            fill="#7190FF" />
        <path opacity="0.953" fill-rule="evenodd" clip-rule="evenodd"
            d="M7.3125 20.8125C8.47916 21.3125 9.64584 21.8125 10.8125 22.3125C11.0917 22.8835 11.4667 23.3835 11.9375 23.8125C10.4637 23.1798 9.00536 22.5131 7.5625 21.8125C7.5625 21.7291 7.52084 21.6875 7.4375 21.6875C7.47098 21.4876 7.42931 21.321 7.3125 21.1875C7.3125 21.0625 7.3125 20.9375 7.3125 20.8125Z"
            fill="#48B8FF" />
        <path opacity="0.951" fill-rule="evenodd" clip-rule="evenodd"
            d="M24.6875 20.8125C25.3256 21.1734 25.9924 21.465 26.6875 21.6875C26.6231 21.9868 26.5399 22.2785 26.4375 22.5625C25.7601 22.3695 25.1351 22.0777 24.5625 21.6875C24.5625 21.5209 24.5625 21.3541 24.5625 21.1875C24.6755 21.0989 24.7171 20.9739 24.6875 20.8125Z"
            fill="#6E92FF" />
        <path opacity="0.964" fill-rule="evenodd" clip-rule="evenodd"
            d="M5.1875 20.9375C5.9193 21.2786 6.6693 21.5703 7.4375 21.8125C7.40784 21.9739 7.4495 22.0989 7.5625 22.1875C7.52902 22.3874 7.57069 22.554 7.6875 22.6875C7.6875 22.7709 7.6875 22.8541 7.6875 22.9375C6.83259 22.6109 5.99926 22.2359 5.1875 21.8125C5.1875 21.5209 5.1875 21.2291 5.1875 20.9375Z"
            fill="#42BEFF" />
        <path opacity="0.977" fill-rule="evenodd" clip-rule="evenodd"
            d="M17.0625 21.1875C17.7682 21.4571 18.435 21.7904 19.0625 22.1875C19.0625 22.2709 19.0209 22.3125 18.9375 22.3125C18.3361 21.9913 17.7111 21.6996 17.0625 21.4375C17.0625 21.3541 17.0625 21.2709 17.0625 21.1875Z"
            fill="#5EA3FF" />
        <path opacity="0.902" fill-rule="evenodd" clip-rule="evenodd"
            d="M17.0625 21.4375C17.7111 21.6996 18.3361 21.9913 18.9375 22.3125C18.8809 22.4323 18.7976 22.5365 18.6875 22.625C17.6286 22.8902 17.087 22.4944 17.0625 21.4375Z"
            fill="#5BA5FF" />
        <path opacity="0.966" fill-rule="evenodd" clip-rule="evenodd"
            d="M20.8125 20.0625C22.0178 20.5404 23.1845 21.0821 24.3125 21.6875C24.3125 21.7709 24.3125 21.8541 24.3125 21.9375C23.2279 21.4784 22.1445 21.02 21.0625 20.5625C20.9569 20.4161 20.8736 20.2494 20.8125 20.0625Z"
            fill="#6B95FF" />
        <path opacity="0.895" fill-rule="evenodd" clip-rule="evenodd"
            d="M12.5625 21.5625C13.2025 21.82 13.8275 22.1116 14.4375 22.4375C13.4344 22.9821 12.8094 22.6905 12.5625 21.5625Z"
            fill="#51B0FF" />
        <path opacity="0.953" fill-rule="evenodd" clip-rule="evenodd"
            d="M21.0625 21.5625C22.0899 21.9094 23.0899 22.326 24.0625 22.8125C24.0625 22.8959 24.0625 22.9791 24.0625 23.0625C23.9578 23.1053 23.916 23.1885 23.9375 23.3125C22.9944 22.8201 22.036 22.3618 21.0625 21.9375C21.0625 21.8125 21.0625 21.6875 21.0625 21.5625Z"
            fill="#649CFF" />
        <path opacity="0.966" fill-rule="evenodd" clip-rule="evenodd"
            d="M7.5625 21.8125C9.00536 22.5131 10.4637 23.1798 11.9375 23.8125C12.2189 23.9619 12.5106 24.0869 12.8125 24.1875C13.8954 24.7995 15.0204 25.3411 16.1875 25.8125C16.1875 25.8959 16.1875 25.9791 16.1875 26.0625C13.3281 24.6953 10.4531 23.362 7.5625 22.0625C7.5625 21.9791 7.5625 21.8959 7.5625 21.8125Z"
            fill="#45BCFF" />
        <path opacity="0.961" fill-rule="evenodd" clip-rule="evenodd"
            d="M21.0625 21.9375C22.036 22.3618 22.9944 22.8201 23.9375 23.3125C23.9375 23.3959 23.8959 23.4375 23.8125 23.4375C22.9261 22.9526 22.0095 22.536 21.0625 22.1875C21.0625 22.1041 21.0625 22.0209 21.0625 21.9375Z"
            fill="#649EFF" />
        <path opacity="0.939" fill-rule="evenodd" clip-rule="evenodd"
            d="M5.1875 21.8125C5.99926 22.2359 6.83259 22.6109 7.6875 22.9375C7.6875 23.0209 7.72916 23.0625 7.8125 23.0625C7.8125 23.2291 7.8125 23.3959 7.8125 23.5625C7.0057 23.2216 6.21403 22.8466 5.4375 22.4375C5.30781 22.2588 5.22449 22.0504 5.1875 21.8125Z"
            fill="#3FC1FF" />
        <path opacity="0.984" fill-rule="evenodd" clip-rule="evenodd"
            d="M7.5625 22.1875C7.5625 22.1459 7.5625 22.1041 7.5625 22.0625C10.4531 23.362 13.3281 24.6953 16.1875 26.0625C16.2664 26.6166 16.5164 26.7 16.9375 26.3125C18.3763 27.0944 19.8346 27.8444 21.3125 28.5625C20.6875 28.5625 20.0625 28.5625 19.4375 28.5625C15.6429 26.7071 11.8096 24.9154 7.9375 23.1875C7.9375 23.1041 7.89584 23.0625 7.8125 23.0625C7.84216 22.9011 7.8005 22.7761 7.6875 22.6875C7.72098 22.4876 7.67931 22.321 7.5625 22.1875Z"
            fill="#42BEFF" />
        <path opacity="0.918" fill-rule="evenodd" clip-rule="evenodd"
            d="M24.4375 22.0625C25.0519 22.3784 25.6769 22.67 26.3125 22.9375C26.126 23.2904 25.8343 23.4988 25.4375 23.5625C25.06 23.2904 24.6434 23.0821 24.1875 22.9375C24.1875 22.8125 24.1875 22.6875 24.1875 22.5625C24.3005 22.4739 24.3421 22.3489 24.3125 22.1875C24.3959 22.1875 24.4375 22.1459 24.4375 22.0625Z"
            fill="#6898FF" />
        <path opacity="0.962" fill-rule="evenodd" clip-rule="evenodd"
            d="M21.0625 22.1875C22.0095 22.536 22.9261 22.9526 23.8125 23.4375C23.7849 23.7584 23.7015 24.0501 23.5625 24.3125C22.6584 23.7564 21.7001 23.2981 20.6875 22.9375C20.8135 22.682 20.9385 22.432 21.0625 22.1875Z"
            fill="#60A0FF" />
        <path opacity="0.862" fill-rule="evenodd" clip-rule="evenodd"
            d="M5.43751 22.4375C6.21404 22.8466 7.00571 23.2216 7.81251 23.5625C6.98845 23.8372 6.25929 23.6706 5.62501 23.0625C5.49894 22.8719 5.43644 22.6635 5.43751 22.4375Z"
            fill="#3CC4FF" />
        <path opacity="0.975" fill-rule="evenodd" clip-rule="evenodd"
            d="M24.4375 21.6875C24.4791 21.6875 24.5209 21.6875 24.5625 21.6875C25.1351 22.0777 25.7601 22.3695 26.4375 22.5625C26.4304 22.7011 26.3888 22.8261 26.3125 22.9375C25.6769 22.67 25.0519 22.3784 24.4375 22.0625C24.4375 21.9375 24.4375 21.8125 24.4375 21.6875Z"
            fill="#6B95FF" />
        <path opacity="0.981" fill-rule="evenodd" clip-rule="evenodd"
            d="M20.5625 23.0625C20.5625 22.9791 20.6041 22.9375 20.6875 22.9375C21.7001 23.2981 22.6584 23.7564 23.5625 24.3125C23.5625 24.3541 23.5625 24.3959 23.5625 24.4375C22.5625 23.9791 21.5625 23.5209 20.5625 23.0625Z"
            fill="#5EA3FF" />
        <path opacity="0.955" fill-rule="evenodd" clip-rule="evenodd"
            d="M20.5625 23.0625C21.5625 23.5209 22.5625 23.9791 23.5625 24.4375C23.4791 24.7709 23.3959 25.1041 23.3125 25.4375C22.1678 24.8476 21.001 24.306 19.8125 23.8125C20.0209 23.5209 20.2709 23.2709 20.5625 23.0625Z"
            fill="#5AA6FF" />
        <path opacity="0.914" fill-rule="evenodd" clip-rule="evenodd"
            d="M24.1875 22.9375C24.6434 23.0821 25.06 23.2904 25.4375 23.5625C24.9791 23.5625 24.5209 23.5625 24.0625 23.5625C24.0625 23.3959 24.0625 23.2291 24.0625 23.0625C24.1459 23.0625 24.1875 23.0209 24.1875 22.9375Z"
            fill="#649CFF" />
        <path opacity="0.985" fill-rule="evenodd" clip-rule="evenodd"
            d="M7.93759 23.1875C11.8096 24.9154 15.643 26.7071 19.4376 28.5625C19.021 28.5625 18.6042 28.5625 18.1876 28.5625C14.836 26.9076 11.4609 25.2826 8.06259 23.6875C7.97082 23.5365 7.92916 23.3699 7.93759 23.1875Z"
            fill="#3FC1FF" />
        <path opacity="0.986" fill-rule="evenodd" clip-rule="evenodd"
            d="M8.0625 23.6875C11.4609 25.2826 14.8359 26.9076 18.1875 28.5625C17.6875 28.5625 17.1875 28.5625 16.6875 28.5625C13.9191 27.1992 11.1274 25.866 8.3125 24.5625C8.22916 24.2709 8.14584 23.9791 8.0625 23.6875Z"
            fill="#3CC4FF" />
        <path opacity="0.962" fill-rule="evenodd" clip-rule="evenodd"
            d="M19.6875 23.9375C19.6875 23.8541 19.7291 23.8125 19.8125 23.8125C21.001 24.306 22.1678 24.8476 23.3125 25.4375C23.3125 25.5209 23.2709 25.5625 23.1875 25.5625C22.0214 25.0211 20.8548 24.4795 19.6875 23.9375Z"
            fill="#58AAFF" />
        <path opacity="0.973" fill-rule="evenodd" clip-rule="evenodd"
            d="M19.6875 23.9375C20.8548 24.4795 22.0214 25.0211 23.1875 25.5625C23.1599 25.8834 23.0765 26.1751 22.9375 26.4375C21.6041 25.8125 20.2709 25.1875 18.9375 24.5625C19.1825 24.3555 19.4325 24.1471 19.6875 23.9375Z"
            fill="#54ACFF" />
        <path opacity="0.923" fill-rule="evenodd" clip-rule="evenodd"
            d="M12.8125 24.1875C13.5209 24.1875 14.2291 24.1875 14.9375 24.1875C15.3083 24.4985 15.7249 24.7485 16.1875 24.9375C16.1875 25.2291 16.1875 25.5209 16.1875 25.8125C15.0204 25.3411 13.8954 24.7995 12.8125 24.1875Z"
            fill="#48B8FF" />
        <path opacity="0.827" fill-rule="evenodd" clip-rule="evenodd"
            d="M14.9375 24.1875C15.3541 24.1875 15.7709 24.1875 16.1875 24.1875C16.1875 24.4375 16.1875 24.6875 16.1875 24.9375C15.7249 24.7485 15.3083 24.4985 14.9375 24.1875Z"
            fill="#4BB5FF" />
        <path opacity="0.98" fill-rule="evenodd" clip-rule="evenodd"
            d="M8.3125 24.5625C11.1274 25.866 13.9191 27.1992 16.6875 28.5625C16.3959 28.5625 16.1041 28.5625 15.8125 28.5625C13.4083 27.298 10.9499 26.1314 8.4375 25.0625C8.39584 24.8959 8.35416 24.7291 8.3125 24.5625Z"
            fill="#39C7FF" />
        <path opacity="0.976" fill-rule="evenodd" clip-rule="evenodd"
            d="M18.9375 24.5625C20.2709 25.1875 21.6041 25.8125 22.9375 26.4375C22.9375 26.5209 22.9375 26.6041 22.9375 26.6875C21.5209 26.0625 20.1041 25.4375 18.6875 24.8125C18.7291 24.6875 18.8125 24.6041 18.9375 24.5625Z"
            fill="#52B0FF" />
        <path opacity="0.974" fill-rule="evenodd" clip-rule="evenodd"
            d="M18.6875 24.8125C20.1041 25.4375 21.5209 26.0625 22.9375 26.6875C22.8541 26.9791 22.7709 27.2709 22.6875 27.5625C21.1224 26.8424 19.5807 26.0924 18.0625 25.3125C18.2431 25.1171 18.4514 24.9505 18.6875 24.8125Z"
            fill="#4EB2FF" />
        <path opacity="0.976" fill-rule="evenodd" clip-rule="evenodd"
            d="M8.4375 25.0625C10.9499 26.1314 13.4083 27.298 15.8125 28.5625C14.8959 28.5625 13.9791 28.5625 13.0625 28.5625C11.7406 27.8015 10.3656 27.1349 8.9375 26.5625C8.74567 26.0704 8.57901 25.5704 8.4375 25.0625Z"
            fill="#36CBFF" />
        <path opacity="0.963" fill-rule="evenodd" clip-rule="evenodd"
            d="M18.0625 25.3125C19.5807 26.0924 21.1224 26.8424 22.6875 27.5625C22.6459 27.6875 22.5625 27.7709 22.4375 27.8125C20.8541 27.1041 19.2709 26.3959 17.6875 25.6875C17.7709 25.5209 17.8959 25.3959 18.0625 25.3125Z"
            fill="#4BB5FF" />
        <path opacity="0.978" fill-rule="evenodd" clip-rule="evenodd"
            d="M17.6875 25.6875C19.2709 26.3959 20.8541 27.1041 22.4375 27.8125C22.2471 28.1705 21.9554 28.3789 21.5625 28.4375C20.0625 27.6875 18.5625 26.9375 17.0625 26.1875C17.2431 25.9921 17.4514 25.8255 17.6875 25.6875Z"
            fill="#48B8FF" />
        <path opacity="0.964" fill-rule="evenodd" clip-rule="evenodd"
            d="M17.0625 26.1875C18.5625 26.9375 20.0625 27.6875 21.5625 28.4375C21.5197 28.5422 21.4365 28.584 21.3125 28.5625C19.8346 27.8444 18.3763 27.0944 16.9375 26.3125C16.9375 26.2291 16.9791 26.1875 17.0625 26.1875Z"
            fill="#45BCFF" />
        <path opacity="0.969" fill-rule="evenodd" clip-rule="evenodd"
            d="M8.9375 26.5625C10.3656 27.1349 11.7406 27.8015 13.0625 28.5625C12.9791 28.5625 12.8959 28.5625 12.8125 28.5625C11.5349 27.9445 10.2432 27.3611 8.9375 26.8125C8.9375 26.7291 8.9375 26.6459 8.9375 26.5625Z"
            fill="#32CFFF" />
        <path opacity="0.963" fill-rule="evenodd" clip-rule="evenodd"
            d="M8.9375 26.8125C10.2432 27.3611 11.5349 27.9445 12.8125 28.5625C12.6775 28.8745 12.5107 29.1662 12.3125 29.4375C11.3429 28.911 10.3429 28.4526 9.3125 28.0625C9.22587 27.6324 9.10088 27.2156 8.9375 26.8125Z"
            fill="#2FD1FF" />
        <path opacity="0.954" fill-rule="evenodd" clip-rule="evenodd"
            d="M9.3125 28.0625C10.3429 28.4526 11.3429 28.911 12.3125 29.4375C12.3125 29.5209 12.2708 29.5625 12.1875 29.5625C11.3011 29.0776 10.3845 28.661 9.4375 28.3125C9.39584 28.2291 9.35416 28.1459 9.3125 28.0625Z"
            fill="#2CD6FF" />
        <path opacity="0.942" fill-rule="evenodd" clip-rule="evenodd"
            d="M9.4375 28.3125C10.3845 28.661 11.3011 29.0776 12.1875 29.5625C12.1152 29.9164 11.9485 30.208 11.6875 30.4375C11.0781 30.112 10.4531 29.8203 9.8125 29.5625C9.61241 29.1813 9.48741 28.7645 9.4375 28.3125Z"
            fill="#28D7FF" />
        <path opacity="0.937" fill-rule="evenodd" clip-rule="evenodd"
            d="M9.8125 29.5625C10.4531 29.8203 11.0781 30.112 11.6875 30.4375C11.7089 30.5615 11.6673 30.6447 11.5625 30.6875C11.0228 30.3343 10.4395 30.0426 9.8125 29.8125C9.8125 29.7291 9.8125 29.6459 9.8125 29.5625Z"
            fill="#26DBFF" />
        <path opacity="0.918" fill-rule="evenodd" clip-rule="evenodd"
            d="M9.8125 29.8125C10.4395 30.0426 11.0228 30.3343 11.5625 30.6875C11.4671 30.921 11.3421 31.1294 11.1875 31.3125C10.8808 31.1175 10.5475 30.9925 10.1875 30.9375C10.0068 30.5933 9.88176 30.2183 9.8125 29.8125Z"
            fill="#23DDFF" />
        <path opacity="0.796" fill-rule="evenodd" clip-rule="evenodd"
            d="M10.1875 30.9375C10.5475 30.9925 10.8808 31.1175 11.1875 31.3125C11.0939 31.5415 10.9689 31.7499 10.8125 31.9375C10.6875 31.9375 10.5625 31.9375 10.4375 31.9375C10.2783 31.6259 10.195 31.2926 10.1875 30.9375Z"
            fill="#1EE2FF" />
    </g>
    <defs>
        <clipPath id="clip0_3256_66">
            <rect width="32" height="32" fill="white" />
        </clipPath>
    </defs>
</svg>