<svg width="32" height="32" viewBox="0 0 32 32" fill="none" xmlns="http://www.w3.org/2000/svg">
    <path opacity="0.886" fill-rule="evenodd" clip-rule="evenodd"
        d="M13.5199 0.0799737C13.5199 0.613302 13.5199 1.14665 13.5199 1.67997C13.3066 1.67997 13.0932 1.67997 12.8799 1.67997C12.8799 1.19997 12.8799 0.719974 12.8799 0.239974C13.0731 0.122518 13.2865 0.0691897 13.5199 0.0799737Z"
        fill="#B13A8B" />
    <path opacity="0.952" fill-rule="evenodd" clip-rule="evenodd"
        d="M13.8398 0.0799561C13.9998 0.0799561 14.1598 0.0799561 14.3198 0.0799561C14.3198 0.559956 14.3198 1.03996 14.3198 1.51996C14.1598 1.51996 13.9998 1.51996 13.8398 1.51996C13.8398 1.03996 13.8398 0.559956 13.8398 0.0799561Z"
        fill="#BE3887" />
    <path opacity="0.938" fill-rule="evenodd" clip-rule="evenodd"
        d="M14.3198 0.0799561C14.4798 0.0799561 14.6398 0.0799561 14.7998 0.0799561C14.7621 0.577316 14.8153 1.05732 14.9598 1.51996C14.7465 1.51996 14.5331 1.51996 14.3198 1.51996C14.3198 1.03996 14.3198 0.559956 14.3198 0.0799561Z"
        fill="#C43686" />
    <path fill-rule="evenodd" clip-rule="evenodd"
        d="M14.7998 0.0799561C15.0131 0.0799561 15.2266 0.0799561 15.4398 0.0799561C15.4398 0.559956 15.4398 1.03996 15.4398 1.51996C15.2798 1.51996 15.1198 1.51996 14.9598 1.51996C14.8154 1.05732 14.7621 0.577316 14.7998 0.0799561Z"
        fill="#CA3584" />
    <path opacity="0.945" fill-rule="evenodd" clip-rule="evenodd"
        d="M15.4399 0.0799561C15.5467 0.0799561 15.6532 0.0799561 15.7599 0.0799561C15.7599 0.559956 15.7599 1.03996 15.7599 1.51996C15.6532 1.51996 15.5467 1.51996 15.4399 1.51996C15.4399 1.03996 15.4399 0.559956 15.4399 0.0799561Z"
        fill="#D13581" />
    <path opacity="0.945" fill-rule="evenodd" clip-rule="evenodd"
        d="M15.7598 0.0799561C15.9198 0.0799561 16.0798 0.0799561 16.2398 0.0799561C16.2398 0.559956 16.2398 1.03996 16.2398 1.51996C16.0798 1.51996 15.9198 1.51996 15.7598 1.51996C15.7598 1.03996 15.7598 0.559956 15.7598 0.0799561Z"
        fill="#D73380" />
    <path opacity="0.954" fill-rule="evenodd" clip-rule="evenodd"
        d="M16.2402 0.0799561C16.4002 0.0799561 16.5602 0.0799561 16.7202 0.0799561C16.6825 0.577316 16.7358 1.05732 16.8802 1.51996C16.667 1.51996 16.4535 1.51996 16.2402 1.51996C16.2402 1.03996 16.2402 0.559956 16.2402 0.0799561Z"
        fill="#DD327E" />
    <path opacity="0.973" fill-rule="evenodd" clip-rule="evenodd"
        d="M16.7202 0.0799561C16.9335 0.0799561 17.147 0.0799561 17.3602 0.0799561C17.3602 0.559956 17.3602 1.03996 17.3602 1.51996C17.2002 1.51996 17.0402 1.51996 16.8802 1.51996C16.7358 1.05732 16.6825 0.577316 16.7202 0.0799561Z"
        fill="#E4317C" />
    <path opacity="0.904" fill-rule="evenodd" clip-rule="evenodd"
        d="M17.3599 0.0799561C17.5199 0.0799561 17.6799 0.0799561 17.8399 0.0799561C17.6936 0.596436 17.6403 1.12976 17.6799 1.67996C17.5211 1.70741 17.4146 1.65407 17.3599 1.51996C17.3599 1.03996 17.3599 0.559956 17.3599 0.0799561Z"
        fill="#EA307A" />
    <path opacity="0.93" fill-rule="evenodd" clip-rule="evenodd"
        d="M17.8401 0.0799737C18.0735 0.0691897 18.2868 0.122518 18.4801 0.239974C18.4801 0.719974 18.4801 1.19997 18.4801 1.67997C18.2134 1.67997 17.9468 1.67997 17.6801 1.67997C17.6406 1.12978 17.6939 0.596454 17.8401 0.0799737Z"
        fill="#F12F78" />
    <path opacity="0.938" fill-rule="evenodd" clip-rule="evenodd"
        d="M12.3999 0.23999C12.5599 0.23999 12.7199 0.23999 12.8799 0.23999C12.8799 0.71999 12.8799 1.19999 12.8799 1.67999C12.7025 1.68909 12.5425 1.74242 12.3999 1.83999C12.3999 1.30666 12.3999 0.773318 12.3999 0.23999Z"
        fill="#AA3B8D" />
    <path fill-rule="evenodd" clip-rule="evenodd"
        d="M13.52 0.0799561C13.6267 0.0799561 13.7333 0.0799561 13.84 0.0799561C13.84 0.559956 13.84 1.03996 13.84 1.51996C13.7333 1.57328 13.6267 1.62663 13.52 1.67996C13.52 1.14663 13.52 0.613284 13.52 0.0799561Z"
        fill="#B83989" />
    <path opacity="0.923" fill-rule="evenodd" clip-rule="evenodd"
        d="M18.48 0.239963C18.7864 0.194443 19.0529 0.247787 19.28 0.399963C19.28 0.879963 19.28 1.35996 19.28 1.83996C18.9933 1.8614 18.7267 1.80807 18.48 1.67996C18.48 1.19996 18.48 0.719963 18.48 0.239963Z"
        fill="#F33474" />
    <path opacity="0.938" fill-rule="evenodd" clip-rule="evenodd"
        d="M11.6001 0.400024C11.7068 0.400024 11.8134 0.400024 11.9201 0.400024C11.9201 0.880024 11.9201 1.36002 11.9201 1.84002C11.8134 1.89335 11.7068 1.9467 11.6001 2.00002C11.6001 1.4667 11.6001 0.933352 11.6001 0.400024Z"
        fill="#9F3C91" />
    <path fill-rule="evenodd" clip-rule="evenodd"
        d="M12.3999 0.239992C12.3999 0.77332 12.3999 1.30666 12.3999 1.83999C12.2399 1.83999 12.0799 1.83999 11.9199 1.83999C11.9199 1.35999 11.9199 0.879992 11.9199 0.399992C12.0334 0.255352 12.1934 0.202024 12.3999 0.239992Z"
        fill="#A43C8F" />
    <path opacity="0.928" fill-rule="evenodd" clip-rule="evenodd"
        d="M19.2798 0.400024C19.4931 0.400024 19.7065 0.400024 19.9198 0.400024C19.9198 0.933352 19.9198 1.4667 19.9198 2.00002C19.6863 2.01081 19.4731 1.95748 19.2798 1.84002C19.2798 1.36002 19.2798 0.880024 19.2798 0.400024Z"
        fill="#F33B70" />
    <path opacity="0.916" fill-rule="evenodd" clip-rule="evenodd"
        d="M19.9199 0.400024C20.2089 0.48388 20.4754 0.590552 20.7199 0.720024C20.5636 1.16593 20.5103 1.64593 20.5599 2.16002C20.3265 2.17081 20.1132 2.11748 19.9199 2.00002C19.9199 1.4667 19.9199 0.933352 19.9199 0.400024Z"
        fill="#F4416C" />
    <path opacity="0.913" fill-rule="evenodd" clip-rule="evenodd"
        d="M10.96 0.560059C10.96 1.09339 10.96 1.62673 10.96 2.16006C10.7825 2.16916 10.6225 2.22249 10.48 2.32006C10.48 1.78673 10.48 1.25339 10.48 0.720059C10.6225 0.622491 10.7825 0.569163 10.96 0.560059Z"
        fill="#923F95" />
    <path opacity="0.962" fill-rule="evenodd" clip-rule="evenodd"
        d="M11.6 0.400024C11.6 0.933352 11.6 1.4667 11.6 2.00002C11.3666 1.98924 11.1532 2.04257 10.96 2.16002C10.96 1.6267 10.96 1.09335 10.96 0.560024C11.1733 0.506696 11.3866 0.453352 11.6 0.400024Z"
        fill="#983E93" />
    <path opacity="0.949" fill-rule="evenodd" clip-rule="evenodd"
        d="M10.4799 0.719972C10.4799 1.2533 10.4799 1.78664 10.4799 2.31997C10.3732 2.31997 10.2665 2.31997 10.1599 2.31997C10.0036 1.87407 9.95026 1.39407 9.99986 0.879972C10.1133 0.735332 10.2733 0.682004 10.4799 0.719972Z"
        fill="#8C4097" />
    <path opacity="0.898" fill-rule="evenodd" clip-rule="evenodd"
        d="M20.7199 0.719972C20.9265 0.682004 21.0865 0.735332 21.1999 0.879972C21.0436 1.32588 20.9903 1.80588 21.0399 2.31997C20.8334 2.35794 20.6734 2.30461 20.5599 2.15997C20.5103 1.64588 20.5636 1.16588 20.7199 0.719972Z"
        fill="#F44768" />
    <path opacity="0.905" fill-rule="evenodd" clip-rule="evenodd"
        d="M9.67979 0.880005C9.78646 0.880005 9.89312 0.880005 9.99979 0.880005C9.95019 1.3941 10.0035 1.8741 10.1598 2.32C10.1051 2.45412 9.99845 2.50746 9.83979 2.48C9.68309 1.98004 9.62974 1.44671 9.67979 0.880005Z"
        fill="#864198" />
    <path opacity="0.957" fill-rule="evenodd" clip-rule="evenodd"
        d="M21.1999 0.880023C21.4333 0.869239 21.6466 0.922567 21.8399 1.04002C21.6937 1.5565 21.6404 2.08983 21.6799 2.64002C21.4407 2.56183 21.2273 2.45516 21.0399 2.32002C20.9903 1.80593 21.0436 1.32593 21.1999 0.880023Z"
        fill="#F54D64" />
    <path opacity="0.94" fill-rule="evenodd" clip-rule="evenodd"
        d="M9.68004 0.880005C9.62999 1.44671 9.68334 1.98004 9.84004 2.48C9.61119 2.646 9.34452 2.75266 9.04004 2.8C9.04004 2.26668 9.04004 1.73333 9.04004 1.2C9.25337 1.09333 9.46671 0.986677 9.68004 0.880005Z"
        fill="#80429A" />
    <path opacity="0.946" fill-rule="evenodd" clip-rule="evenodd"
        d="M21.8401 1.04004C21.9827 1.13761 22.1427 1.19094 22.3201 1.20004C22.3201 1.78671 22.3201 2.37337 22.3201 2.96004C22.1068 2.85337 21.8934 2.74671 21.6801 2.64004C21.6406 2.08985 21.6939 1.55652 21.8401 1.04004Z"
        fill="#F6545F" />
    <path opacity="0.974" fill-rule="evenodd" clip-rule="evenodd"
        d="M9.04023 1.19995C9.04023 1.73328 9.04023 2.26662 9.04023 2.79995C8.80585 2.99784 8.53918 3.15784 8.24023 3.27995C8.24023 2.69328 8.24023 2.10662 8.24023 1.51995C8.48815 1.36942 8.75483 1.26275 9.04023 1.19995Z"
        fill="#77449D" />
    <path opacity="0.961" fill-rule="evenodd" clip-rule="evenodd"
        d="M22.3198 1.19995C22.5134 1.26909 22.6734 1.37574 22.7998 1.51995C22.7998 2.05328 22.7998 2.58662 22.7998 3.11995C22.6224 3.11085 22.4624 3.05752 22.3198 2.95995C22.3198 2.37328 22.3198 1.78662 22.3198 1.19995Z"
        fill="#F65B5B" />
    <path opacity="0.904" fill-rule="evenodd" clip-rule="evenodd"
        d="M8.23977 1.52002C8.23977 2.10669 8.23977 2.69335 8.23977 3.28002C8.07977 3.38669 7.91977 3.49335 7.75977 3.60002C7.75977 3.01335 7.75977 2.42669 7.75977 1.84002C7.88625 1.69581 8.04625 1.58916 8.23977 1.52002Z"
        fill="#6E459F" />
    <path opacity="0.881" fill-rule="evenodd" clip-rule="evenodd"
        d="M22.7998 1.52002C22.9772 1.52912 23.1372 1.58245 23.2798 1.68002C23.2798 2.26669 23.2798 2.85335 23.2798 3.44002C23.0862 3.37088 22.9262 3.26423 22.7998 3.12002C22.7998 2.58669 22.7998 2.05335 22.7998 1.52002Z"
        fill="#F75F58" />
    <path opacity="0.956" fill-rule="evenodd" clip-rule="evenodd"
        d="M23.2798 1.68005C23.5566 1.76415 23.77 1.92415 23.9198 2.16005C23.9198 2.69338 23.9198 3.22673 23.9198 3.76005C23.6699 3.72279 23.4566 3.61613 23.2798 3.44005C23.2798 2.85338 23.2798 2.26673 23.2798 1.68005Z"
        fill="#F76753" />
    <path opacity="0.905" fill-rule="evenodd" clip-rule="evenodd"
        d="M7.75996 1.83997C7.75996 2.42664 7.75996 3.01329 7.75996 3.59997C7.54663 3.70664 7.33329 3.81329 7.11996 3.91997C7.17001 3.35326 7.11666 2.81993 6.95996 2.31997C7.18385 2.09761 7.4505 1.93761 7.75996 1.83997Z"
        fill="#6647A2" />
    <path opacity="0.956" fill-rule="evenodd" clip-rule="evenodd"
        d="M23.9199 2.16003C24.1844 2.18557 24.3977 2.29224 24.5599 2.48003C24.4033 2.98 24.3498 3.51333 24.3999 4.08003C24.1556 4.09171 23.9956 3.98504 23.9199 3.76003C23.9199 3.22671 23.9199 2.69336 23.9199 2.16003Z"
        fill="#F86E4F" />
    <path opacity="0.941" fill-rule="evenodd" clip-rule="evenodd"
        d="M6.96014 2.31999C7.11684 2.81995 7.17018 3.35328 7.12014 3.91999C7.06681 4.07999 6.96014 4.18666 6.80014 4.23999C6.8411 3.6369 6.78777 3.05024 6.64014 2.47999C6.69481 2.34587 6.80148 2.29253 6.96014 2.31999Z"
        fill="#6048A4" />
    <path opacity="0.925" fill-rule="evenodd" clip-rule="evenodd"
        d="M6.63982 2.47998C6.78746 3.05024 6.84078 3.63689 6.79982 4.23998C6.63982 4.34665 6.47982 4.45331 6.31982 4.55998C6.31982 3.91998 6.31982 3.27998 6.31982 2.63998C6.4265 2.58665 6.53315 2.53331 6.63982 2.47998Z"
        fill="#5A49A5" />
    <path opacity="0.941" fill-rule="evenodd" clip-rule="evenodd"
        d="M24.56 2.47998C24.6667 2.53331 24.7733 2.58665 24.88 2.63998C24.88 3.27998 24.88 3.91998 24.88 4.55998C24.6667 4.45331 24.5067 4.29331 24.4 4.07998C24.3499 3.51328 24.4034 2.97995 24.56 2.47998Z"
        fill="#F8734B" />
    <path opacity="0.922" fill-rule="evenodd" clip-rule="evenodd"
        d="M24.8799 2.64001C25.0399 2.74669 25.1999 2.85334 25.3599 2.96001C25.3599 3.60001 25.3599 4.24001 25.3599 4.88001C25.1663 4.81088 25.0063 4.70422 24.8799 4.56001C24.8799 3.92001 24.8799 3.28001 24.8799 2.64001Z"
        fill="#F97A47" />
    <path opacity="0.964" fill-rule="evenodd" clip-rule="evenodd"
        d="M6.32014 2.64001C6.32014 3.28001 6.32014 3.92001 6.32014 4.56001C6.26681 4.72001 6.16014 4.82669 6.00014 4.88001C5.84309 4.32611 5.78974 3.73944 5.84014 3.12001C5.94681 2.90669 6.10681 2.74669 6.32014 2.64001Z"
        fill="#544AA7" />
    <path opacity="0.972" fill-rule="evenodd" clip-rule="evenodd"
        d="M5.8402 3.12C5.7898 3.73942 5.84314 4.32609 6.0002 4.88C5.78687 5.2 5.5202 5.46667 5.2002 5.68C5.2002 4.98667 5.2002 4.29332 5.2002 3.6C5.32216 3.31801 5.53549 3.15801 5.8402 3.12Z"
        fill="#4E4BAA" />
    <path opacity="0.946" fill-rule="evenodd" clip-rule="evenodd"
        d="M25.3599 2.95996C25.5731 3.06663 25.7331 3.22663 25.8399 3.43996C25.8399 4.07996 25.8399 4.71996 25.8399 5.35996C25.6266 5.25329 25.4666 5.09329 25.3599 4.87996C25.3599 4.23996 25.3599 3.59996 25.3599 2.95996Z"
        fill="#FA8043" />
    <path opacity="0.931" fill-rule="evenodd" clip-rule="evenodd"
        d="M25.8398 3.43994C26.1166 3.52404 26.3301 3.68404 26.4798 3.91994C26.3226 4.52769 26.2691 5.16769 26.3198 5.83994C26.1066 5.73327 25.9466 5.57327 25.8398 5.35994C25.8398 4.71994 25.8398 4.07994 25.8398 3.43994Z"
        fill="#FA8640" />
    <path opacity="0.911" fill-rule="evenodd" clip-rule="evenodd"
        d="M26.4798 3.92004C26.6931 4.02672 26.8531 4.18672 26.9598 4.40004C26.8022 5.06155 26.7489 5.75488 26.7998 6.48004C26.6417 6.27284 26.4817 6.05952 26.3198 5.84004C26.2691 5.16779 26.3225 4.52779 26.4798 3.92004Z"
        fill="#FB8C3B" />
    <path opacity="0.978" fill-rule="evenodd" clip-rule="evenodd"
        d="M5.1999 3.59998C5.1999 4.2933 5.1999 4.98665 5.1999 5.67998C4.93158 6.00634 4.66491 6.32634 4.3999 6.63998C4.3999 5.8933 4.3999 5.14665 4.3999 4.39998C4.61323 4.07998 4.8799 3.8133 5.1999 3.59998Z"
        fill="#434DAC" />
    <path opacity="0.911" fill-rule="evenodd" clip-rule="evenodd"
        d="M4.39977 4.40002C4.39977 5.1467 4.39977 5.89335 4.39977 6.64002C4.30212 6.94948 4.14212 7.21614 3.91977 7.44002C3.97105 6.60889 3.91772 5.80889 3.75977 5.04002C3.91977 4.77335 4.13309 4.56002 4.39977 4.40002Z"
        fill="#3C4EAF" />
    <path opacity="0.886" fill-rule="evenodd" clip-rule="evenodd"
        d="M26.9599 4.40002C27.1732 4.5067 27.3332 4.6667 27.4399 4.88002C27.2823 5.54153 27.229 6.23486 27.2799 6.96002C27.0666 6.85335 26.9066 6.69335 26.7999 6.48002C26.749 5.75486 26.8023 5.06153 26.9599 4.40002Z"
        fill="#FB9237" />
    <path opacity="0.918" fill-rule="evenodd" clip-rule="evenodd"
        d="M27.4399 4.88C27.5999 4.93333 27.7066 5.04 27.7599 5.2C27.7599 6.05333 27.7599 6.90668 27.7599 7.76001C27.5375 7.53612 27.3775 7.26946 27.2799 6.96001C27.229 6.23484 27.2823 5.54151 27.4399 4.88Z"
        fill="#FC9834" />
    <path opacity="0.947" fill-rule="evenodd" clip-rule="evenodd"
        d="M3.7599 5.04004C3.91785 5.8089 3.97118 6.6089 3.9199 7.44004C3.8571 7.72545 3.75043 7.99212 3.5999 8.24004C3.44168 7.36399 3.38835 6.45732 3.4399 5.52004C3.50904 5.32652 3.61569 5.16652 3.7599 5.04004Z"
        fill="#354FB1" />
    <path opacity="0.859" fill-rule="evenodd" clip-rule="evenodd"
        d="M27.7598 5.19995C27.9682 5.46272 28.1815 5.72938 28.3998 5.99995C28.2415 6.876 28.1882 7.78267 28.2398 8.71995C28.081 8.40698 27.921 8.08698 27.7598 7.75995C27.7598 6.90662 27.7598 6.05328 27.7598 5.19995Z"
        fill="#FC9E2F" />
    <path opacity="0.975" fill-rule="evenodd" clip-rule="evenodd"
        d="M28.4002 6C28.4535 6.10667 28.5069 6.21333 28.5602 6.32C28.6117 7.25728 28.5584 8.16395 28.4002 9.04C28.2661 8.98533 28.2127 8.87866 28.2402 8.72C28.1887 7.78272 28.2419 6.87605 28.4002 6Z"
        fill="#FDA32C" />
    <path opacity="0.873" fill-rule="evenodd" clip-rule="evenodd"
        d="M28.5599 6.31995C28.7041 6.44643 28.8108 6.60643 28.8799 6.79995C28.7213 7.83659 28.6681 8.90326 28.7199 9.99995C28.5666 9.71156 28.4599 9.39156 28.3999 9.03995C28.5581 8.1639 28.6114 7.25723 28.5599 6.31995Z"
        fill="#FDA62A" />
    <path opacity="0.954" fill-rule="evenodd" clip-rule="evenodd"
        d="M3.43982 5.52002C3.38827 6.4573 3.4416 7.36397 3.59982 8.24002C3.16008 9.18791 2.78674 10.1479 2.47982 11.12C2.53189 9.86376 2.47854 8.63711 2.31982 7.44002C2.56678 6.71615 2.94011 6.07615 3.43982 5.52002Z"
        fill="#2A51B4" />
    <path opacity="0.973" fill-rule="evenodd" clip-rule="evenodd"
        d="M28.8799 6.80005C29.0677 6.96224 29.1743 7.17557 29.1999 7.44005C29.1999 9.09338 29.1999 10.7467 29.1999 12.4C29.1451 12.5341 29.0386 12.5876 28.8799 12.56C28.7336 12.0436 28.6803 11.5102 28.7199 10.96C28.7199 10.64 28.7199 10.32 28.7199 10C28.668 8.90336 28.7213 7.83669 28.8799 6.80005Z"
        fill="#FDAB27" />
    <path opacity="0.93" fill-rule="evenodd" clip-rule="evenodd"
        d="M29.2002 7.43994C29.4516 7.78156 29.6648 8.15489 29.8402 8.55994C29.6269 9.67994 29.6269 10.7999 29.8402 11.9199C29.6904 12.1558 29.477 12.3158 29.2002 12.3999C29.2002 10.7466 29.2002 9.09327 29.2002 7.43994Z"
        fill="#FEB123" />
    <path opacity="0.932" fill-rule="evenodd" clip-rule="evenodd"
        d="M2.32019 7.43994C2.47891 8.63703 2.53226 9.86369 2.48019 11.1199C2.54543 12.1229 2.11875 12.4428 1.20019 12.0799C1.01538 10.3952 1.38872 8.84853 2.32019 7.43994Z"
        fill="#1D53B8" />
    <path opacity="0.838" fill-rule="evenodd" clip-rule="evenodd"
        d="M29.8401 8.56006C30.075 9.23337 30.235 9.9267 30.3201 10.6401C30.3328 11.1453 30.1728 11.572 29.8401 11.9201C29.6269 10.8001 29.6269 9.68006 29.8401 8.56006Z"
        fill="#FEB81F" />
    <path opacity="0.884" fill-rule="evenodd" clip-rule="evenodd"
        d="M14.4798 10.32C14.3354 10.7826 14.2821 11.2626 14.3198 11.76C14.2064 11.9046 14.0464 11.9579 13.8398 11.92C13.8398 11.44 13.8398 10.96 13.8398 10.48C14.0107 10.3305 14.224 10.2771 14.4798 10.32Z"
        fill="#BE3887" />
    <path opacity="0.971" fill-rule="evenodd" clip-rule="evenodd"
        d="M14.4799 10.3199C14.5866 10.3199 14.6931 10.3199 14.7999 10.3199C14.7999 10.7999 14.7999 11.2799 14.7999 11.7599C14.6399 11.7599 14.4799 11.7599 14.3199 11.7599C14.2821 11.2626 14.3354 10.7826 14.4799 10.3199Z"
        fill="#C43686" />
    <path opacity="0.983" fill-rule="evenodd" clip-rule="evenodd"
        d="M14.7998 10.3199C14.8531 10.3199 14.9065 10.3199 14.9598 10.3199C15.2385 10.7431 15.3452 11.2231 15.2798 11.7599C15.1198 11.7599 14.9598 11.7599 14.7998 11.7599C14.7998 11.2799 14.7998 10.7999 14.7998 10.3199Z"
        fill="#C93684" />
    <path opacity="0.882" fill-rule="evenodd" clip-rule="evenodd"
        d="M14.96 10.3199C15.2267 10.3199 15.4932 10.3199 15.76 10.3199C15.76 10.8533 15.76 11.3866 15.76 11.9199C15.5534 11.9579 15.3934 11.9046 15.28 11.7599C15.3454 11.2231 15.2387 10.7431 14.96 10.3199Z"
        fill="#D03482" />
    <path opacity="0.927" fill-rule="evenodd" clip-rule="evenodd"
        d="M15.7598 10.3199C15.9372 10.3291 16.0972 10.3824 16.2398 10.4799C16.2398 10.9599 16.2398 11.4399 16.2398 11.9199C16.0798 11.9199 15.9198 11.9199 15.7598 11.9199C15.7598 11.3866 15.7598 10.8533 15.7598 10.3199Z"
        fill="#D63380" />
    <path opacity="0.94" fill-rule="evenodd" clip-rule="evenodd"
        d="M13.3599 10.48C13.5061 10.9965 13.5594 11.5298 13.5199 12.08C13.4531 12.1955 13.3464 12.2755 13.1999 12.32C13.3464 12.3645 13.4531 12.4445 13.5199 12.56C13.5199 13.04 13.5199 13.52 13.5199 14C13.264 14.0429 13.0507 13.9894 12.8799 13.84C12.8799 12.8267 12.8799 11.8133 12.8799 10.8C13.0064 10.6558 13.1664 10.5491 13.3599 10.48Z"
        fill="#B23A8B" />
    <path opacity="0.993" fill-rule="evenodd" clip-rule="evenodd"
        d="M13.3599 10.48C13.5199 10.48 13.6799 10.48 13.8399 10.48C13.8399 10.96 13.8399 11.44 13.8399 11.92C13.7851 12.0541 13.6786 12.1074 13.5199 12.08C13.5594 11.5298 13.5061 10.9965 13.3599 10.48Z"
        fill="#B93989" />
    <path opacity="0.919" fill-rule="evenodd" clip-rule="evenodd"
        d="M16.2402 10.48C16.4468 10.442 16.6068 10.4953 16.7202 10.64C16.7202 11.12 16.7202 11.6 16.7202 12.08C16.5137 12.1179 16.3537 12.0646 16.2402 11.92C16.2402 11.44 16.2402 10.96 16.2402 10.48Z"
        fill="#DD327E" />
    <path opacity="0.901" fill-rule="evenodd" clip-rule="evenodd"
        d="M16.7202 10.64C16.9948 10.6606 17.2615 10.7139 17.5202 10.8C17.374 11.3165 17.3207 11.8498 17.3602 12.4C17.0957 12.3744 16.8825 12.2679 16.7202 12.08C16.7202 11.6 16.7202 11.12 16.7202 10.64Z"
        fill="#E4317C" />
    <path opacity="0.959" fill-rule="evenodd" clip-rule="evenodd"
        d="M12.8799 10.8001C12.8799 11.8134 12.8799 12.8268 12.8799 13.8401C12.7025 13.8309 12.5425 13.7777 12.3999 13.6801C12.3999 12.8268 12.3999 11.9734 12.3999 11.1201C12.4756 10.8951 12.6356 10.7884 12.8799 10.8001Z"
        fill="#AB3B8D" />
    <path opacity="0.961" fill-rule="evenodd" clip-rule="evenodd"
        d="M18.0002 11.12C18.1938 11.1891 18.3538 11.2958 18.4802 11.44C18.4802 12.6667 18.4802 13.8933 18.4802 15.12C18.249 15.3701 17.9824 15.5834 17.6802 15.76C17.5778 14.1507 17.6845 12.604 18.0002 11.12Z"
        fill="#F12F78" />
    <path opacity="0.899" fill-rule="evenodd" clip-rule="evenodd"
        d="M28.7202 10.96C28.6807 11.5102 28.734 12.0435 28.8802 12.56C28.687 12.6774 28.4737 12.7307 28.2402 12.72C28.2402 12.24 28.2402 11.76 28.2402 11.28C28.3666 11.1358 28.5266 11.0291 28.7202 10.96Z"
        fill="#FCA42B" />
    <path opacity="0.925" fill-rule="evenodd" clip-rule="evenodd"
        d="M27.6001 11.4399C27.771 11.2904 27.9843 11.2371 28.2401 11.2799C28.2401 11.7599 28.2401 12.2399 28.2401 12.7199C28.1267 12.8646 27.9667 12.9179 27.7601 12.8799C27.8097 12.3659 27.7564 11.8858 27.6001 11.4399Z"
        fill="#FC9E2F" />
    <path fill-rule="evenodd" clip-rule="evenodd"
        d="M12.3998 11.12C12.3998 11.9733 12.3998 12.8267 12.3998 13.68C12.1864 13.5733 12.0264 13.4133 11.9198 13.2C11.9694 12.6859 11.916 12.2059 11.7598 11.76C11.9041 11.4655 12.1175 11.2522 12.3998 11.12Z"
        fill="#A43C8F" />
    <path opacity="0.982" fill-rule="evenodd" clip-rule="evenodd"
        d="M18.48 11.4399C18.6736 11.5091 18.8336 11.6157 18.96 11.7599C18.96 12.7732 18.96 13.7867 18.96 14.7999C18.8843 15.0249 18.7243 15.1316 18.48 15.1199C18.48 13.8932 18.48 12.6667 18.48 11.4399Z"
        fill="#F23275" />
    <path opacity="0.951" fill-rule="evenodd" clip-rule="evenodd"
        d="M27.2799 11.4399C27.2799 11.9733 27.2799 12.5067 27.2799 13.0399C27.2266 13.0399 27.1732 13.0399 27.1199 13.0399C26.7448 12.6283 26.6916 12.1483 26.9599 11.5999C27.0666 11.5466 27.1732 11.4933 27.2799 11.4399Z"
        fill="#FB9237" />
    <path opacity="0.919" fill-rule="evenodd" clip-rule="evenodd"
        d="M27.2798 11.4399C27.3865 11.4399 27.4931 11.4399 27.5998 11.4399C27.7561 11.8858 27.8094 12.3659 27.7598 12.8799C27.6463 13.0246 27.4863 13.0779 27.2798 13.0399C27.2798 12.5067 27.2798 11.9733 27.2798 11.4399Z"
        fill="#FB9734" />
    <path opacity="0.906" fill-rule="evenodd" clip-rule="evenodd"
        d="M26.9598 11.6C26.6915 12.1483 26.7448 12.6283 27.1198 13.04C26.8753 13.1694 26.6088 13.2762 26.3198 13.36C26.3198 12.8267 26.3198 12.2933 26.3198 11.76C26.5131 11.6425 26.7264 11.5892 26.9598 11.6Z"
        fill="#FA8C3B" />
    <path opacity="0.776" fill-rule="evenodd" clip-rule="evenodd"
        d="M11.76 11.76C11.9163 12.2059 11.9696 12.6859 11.92 13.2C11.5553 12.7766 11.5019 12.2966 11.76 11.76Z"
        fill="#9F3D91" />
    <path opacity="0.899" fill-rule="evenodd" clip-rule="evenodd"
        d="M18.96 11.76C19.2419 11.882 19.4019 12.0953 19.44 12.4C19.2824 13.0614 19.2291 13.7549 19.28 14.48C19.2267 14.64 19.12 14.7467 18.96 14.8C18.96 13.7867 18.96 12.7733 18.96 11.76Z"
        fill="#F43673" />
    <path opacity="0.94" fill-rule="evenodd" clip-rule="evenodd"
        d="M26.3198 11.76C26.3198 12.2933 26.3198 12.8267 26.3198 13.36C26.1598 13.36 25.9998 13.36 25.8398 13.36C25.8398 12.88 25.8398 12.4 25.8398 11.92C25.9533 11.7754 26.1133 11.722 26.3198 11.76Z"
        fill="#FA853F" />
    <path opacity="0.924" fill-rule="evenodd" clip-rule="evenodd"
        d="M25.5199 11.9199C25.5199 12.3999 25.5199 12.8799 25.5199 13.3599C25.349 13.5094 25.1357 13.5628 24.8799 13.5199C24.8799 13.0399 24.8799 12.5599 24.8799 12.0799C25.0732 11.9625 25.2864 11.9092 25.5199 11.9199Z"
        fill="#F97A47" />
    <path opacity="0.983" fill-rule="evenodd" clip-rule="evenodd"
        d="M25.52 11.92C25.6267 11.92 25.7333 11.92 25.84 11.92C25.84 12.4 25.84 12.88 25.84 13.36C25.7333 13.36 25.6267 13.36 25.52 13.36C25.52 12.88 25.52 12.4 25.52 11.92Z"
        fill="#FA8143" />
    <path opacity="0.905" fill-rule="evenodd" clip-rule="evenodd"
        d="M24.3999 12.08C24.3999 12.6132 24.3999 13.1467 24.3999 13.68C24.2399 13.68 24.0799 13.68 23.9199 13.68C23.9199 13.2 23.9199 12.72 23.9199 12.24C24.0625 12.1424 24.2225 12.0891 24.3999 12.08Z"
        fill="#F76E4F" />
    <path opacity="0.918" fill-rule="evenodd" clip-rule="evenodd"
        d="M24.3999 12.08C24.5599 12.08 24.7199 12.08 24.8799 12.08C24.8799 12.56 24.8799 13.04 24.8799 13.52C24.7373 13.6176 24.5773 13.6708 24.3999 13.68C24.3999 13.1467 24.3999 12.6132 24.3999 12.08Z"
        fill="#F9734C" />
    <path opacity="0.918" fill-rule="evenodd" clip-rule="evenodd"
        d="M23.2798 12.24C23.191 12.8019 23.2977 13.2819 23.5998 13.68C23.3728 13.8322 23.1062 13.8854 22.7998 13.84C22.7998 13.36 22.7998 12.88 22.7998 12.4C22.9424 12.3024 23.1024 12.2491 23.2798 12.24Z"
        fill="#F66058" />
    <path opacity="0.959" fill-rule="evenodd" clip-rule="evenodd"
        d="M23.2802 12.24C23.4935 12.24 23.707 12.24 23.9202 12.24C23.9202 12.72 23.9202 13.2 23.9202 13.68C23.8135 13.68 23.707 13.68 23.6002 13.68C23.2982 13.2819 23.1914 12.8019 23.2802 12.24Z"
        fill="#F76753" />
    <path opacity="0.985" fill-rule="evenodd" clip-rule="evenodd"
        d="M19.4399 12.4C19.5554 12.5682 19.7154 12.6749 19.9199 12.72C19.9199 13.2 19.9199 13.68 19.9199 14.16C19.648 14.1643 19.4346 14.2711 19.2799 14.48C19.229 13.7549 19.2823 13.0615 19.4399 12.4Z"
        fill="#F33A70" />
    <path opacity="0.916" fill-rule="evenodd" clip-rule="evenodd"
        d="M21.8401 12.4C22.0001 12.4 22.1601 12.4 22.3201 12.4C22.3201 12.88 22.3201 13.36 22.3201 13.84C22.1492 13.9895 21.9359 14.0429 21.6801 14C21.6406 13.4498 21.6939 12.9165 21.8401 12.4Z"
        fill="#F5545F" />
    <path opacity="0.97" fill-rule="evenodd" clip-rule="evenodd"
        d="M22.3198 12.4C22.4798 12.4 22.6398 12.4 22.7998 12.4C22.7998 12.88 22.7998 13.36 22.7998 13.84C22.6398 13.84 22.4798 13.84 22.3198 13.84C22.3198 13.36 22.3198 12.88 22.3198 12.4Z"
        fill="#F75B5B" />
    <path opacity="0.945" fill-rule="evenodd" clip-rule="evenodd"
        d="M20.5599 12.56C20.5599 13.0933 20.5599 13.6267 20.5599 14.16C20.3466 14.16 20.1332 14.16 19.9199 14.16C19.9199 13.68 19.9199 13.2 19.9199 12.72C20.0908 12.5705 20.3041 12.5171 20.5599 12.56Z"
        fill="#F4416C" />
    <path opacity="0.923" fill-rule="evenodd" clip-rule="evenodd"
        d="M20.5601 12.5601C20.7733 12.5601 20.9868 12.5601 21.2001 12.5601C21.0556 13.0226 21.0023 13.5026 21.0401 14.0001C20.8626 14.0092 20.7026 14.0625 20.5601 14.1601C20.5601 13.6268 20.5601 13.0933 20.5601 12.5601Z"
        fill="#F54768" />
    <path opacity="0.956" fill-rule="evenodd" clip-rule="evenodd"
        d="M21.8401 12.4C21.6938 12.9165 21.6405 13.4498 21.6801 14C21.4668 14 21.2533 14 21.0401 14C21.0023 13.5026 21.0556 13.0226 21.2001 12.56C21.4133 12.5067 21.6268 12.4533 21.8401 12.4Z"
        fill="#F54D64" />
    <path opacity="0.98" fill-rule="evenodd" clip-rule="evenodd"
        d="M13.52 12.56C13.8264 12.5146 14.093 12.5678 14.32 12.72C14.3578 13.2174 14.3045 13.6974 14.16 14.16C13.9042 14.2029 13.6909 14.1494 13.52 14C13.52 13.52 13.52 13.04 13.52 12.56Z"
        fill="#BC3888" />
    <path opacity="0.975" fill-rule="evenodd" clip-rule="evenodd"
        d="M14.3202 12.72C14.4802 12.72 14.6402 12.72 14.8002 12.72C14.8002 13.2 14.8002 13.68 14.8002 14.16C14.5869 14.16 14.3734 14.16 14.1602 14.16C14.3046 13.6974 14.3579 13.2174 14.3202 12.72Z"
        fill="#C33786" />
    <path opacity="0.959" fill-rule="evenodd" clip-rule="evenodd"
        d="M14.7998 12.72C15.0131 12.72 15.2265 12.72 15.4398 12.72C15.4793 13.2702 15.426 13.8035 15.2798 14.32C15.1024 14.3109 14.9424 14.2576 14.7998 14.16C14.7998 13.68 14.7998 13.2 14.7998 12.72Z"
        fill="#CA3584" />
    <path opacity="0.801" fill-rule="evenodd" clip-rule="evenodd"
        d="M15.4398 12.72C15.5998 12.72 15.7598 12.72 15.9198 12.72C15.7735 13.2365 15.7203 13.7697 15.7598 14.32C15.5998 14.32 15.4398 14.32 15.2798 14.32C15.426 13.8035 15.4793 13.2702 15.4398 12.72Z"
        fill="#D13482" />
    <path opacity="0.897" fill-rule="evenodd" clip-rule="evenodd"
        d="M15.9202 12.72C16.0269 12.72 16.1335 12.72 16.2402 12.72C16.2402 13.2533 16.2402 13.7867 16.2402 14.32C16.0802 14.32 15.9202 14.32 15.7602 14.32C15.7207 13.7697 15.7739 13.2365 15.9202 12.72Z"
        fill="#D73380" />
    <path opacity="0.875" fill-rule="evenodd" clip-rule="evenodd"
        d="M16.2402 12.72C16.4002 12.72 16.5602 12.72 16.7202 12.72C16.7202 13.2533 16.7202 13.7867 16.7202 14.32C16.5602 14.32 16.4002 14.32 16.2402 14.32C16.2402 13.7867 16.2402 13.2533 16.2402 12.72Z"
        fill="#DC327E" />
    <path opacity="0.983" fill-rule="evenodd" clip-rule="evenodd"
        d="M16.7202 12.72C16.9869 12.72 17.2535 12.72 17.5202 12.72C17.3613 18.575 17.3079 24.4417 17.3602 30.32C17.3719 30.5643 17.2652 30.7243 17.0402 30.8C17.0933 25.3861 17.0399 19.9993 16.8802 14.64C17.1252 14.412 17.0719 14.3054 16.7202 14.32C16.7202 13.7867 16.7202 13.2533 16.7202 12.72Z"
        fill="#E5317B" />
    <path opacity="0.874" fill-rule="evenodd" clip-rule="evenodd"
        d="M17.5197 10.8C17.7133 10.8692 17.8733 10.9758 17.9997 11.12C17.6841 12.604 17.5773 14.1508 17.6797 15.76C17.593 16.1519 17.5397 16.5519 17.5197 16.96C17.7778 20.6631 17.8578 24.3698 17.7597 28.08C17.7412 28.8695 17.6079 29.616 17.3597 30.32C17.3074 24.4418 17.3609 18.5751 17.5197 12.72C17.4665 12.6133 17.413 12.5068 17.3597 12.4C17.3202 11.8499 17.3735 11.3165 17.5197 10.8Z"
        fill="#EA307A" />
    <path opacity="0.995" fill-rule="evenodd" clip-rule="evenodd"
        d="M16.8802 14.64C17.0399 19.9994 17.0933 25.3861 17.0402 30.8C16.9869 30.96 16.8802 31.0667 16.7202 31.12C16.7202 25.68 16.7202 20.24 16.7202 14.8C16.7202 14.6933 16.7735 14.64 16.8802 14.64Z"
        fill="#E1317D" />
    <path opacity="0.891" fill-rule="evenodd" clip-rule="evenodd"
        d="M16.7201 14.8C16.7201 20.24 16.7201 25.68 16.7201 31.12C16.6444 31.345 16.4844 31.4517 16.2401 31.44C16.2401 30.5868 16.2401 29.7333 16.2401 28.88C16.2729 25.252 16.2194 21.6253 16.0801 18C16.0924 17.276 16.1457 16.556 16.2401 15.84C16.2652 15.412 16.4252 15.0655 16.7201 14.8Z"
        fill="#DC327E" />
    <path opacity="0.935" fill-rule="evenodd" clip-rule="evenodd"
        d="M11.7603 28.24C11.9178 28.9015 11.9712 29.5949 11.9203 30.32C11.4607 29.7674 11.2741 29.1274 11.3603 28.4C11.4676 28.2797 11.6009 28.2263 11.7603 28.24Z"
        fill="#9E3D91" />
    <path opacity="0.998" fill-rule="evenodd" clip-rule="evenodd"
        d="M11.7598 28.24C11.9731 28.0268 12.1864 28.0268 12.3998 28.24C12.3998 29.0933 12.3998 29.9468 12.3998 30.8C12.1864 30.6933 12.0264 30.5333 11.9198 30.32C11.9707 29.5949 11.9173 28.9015 11.7598 28.24Z"
        fill="#A43C8F" />
    <path opacity="0.933" fill-rule="evenodd" clip-rule="evenodd"
        d="M12.3999 28.24C12.6905 28.4989 12.9038 28.8189 13.0399 29.2C12.8823 29.8614 12.829 30.5549 12.8799 31.28C12.6666 31.1733 12.5066 31.0133 12.3999 30.8C12.3999 29.9467 12.3999 29.0933 12.3999 28.24Z"
        fill="#AB3B8D" />
    <path opacity="0.89" fill-rule="evenodd" clip-rule="evenodd"
        d="M16.2399 28.88C16.2399 29.7333 16.2399 30.5867 16.2399 31.44C16.1852 31.5741 16.0786 31.6275 15.9199 31.6C15.7632 31.1 15.7098 30.5667 15.7599 30C15.9789 29.6429 16.1389 29.2694 16.2399 28.88Z"
        fill="#D73380" />
    <path opacity="0.951" fill-rule="evenodd" clip-rule="evenodd"
        d="M13.04 29.2C13.2 29.4132 13.36 29.6267 13.52 29.84C13.52 30.4267 13.52 31.0132 13.52 31.6C13.2555 31.5744 13.0422 31.4678 12.88 31.28C12.8291 30.5548 12.8824 29.8614 13.04 29.2Z"
        fill="#B13A8B" />
    <path opacity="0.875" fill-rule="evenodd" clip-rule="evenodd"
        d="M13.52 29.84C13.68 29.8932 13.7867 30 13.84 30.16C13.84 30.6932 13.84 31.2267 13.84 31.76C13.7333 31.7067 13.6267 31.6532 13.52 31.6C13.52 31.0132 13.52 30.4267 13.52 29.84Z"
        fill="#B93989" />
    <path opacity="0.87" fill-rule="evenodd" clip-rule="evenodd"
        d="M15.7598 30C15.7097 30.5667 15.7631 31.1 15.9198 31.6C15.7489 31.7494 15.5356 31.8029 15.2798 31.76C15.2798 31.28 15.2798 30.8 15.2798 30.32C15.4062 30.1758 15.5662 30.0691 15.7598 30Z"
        fill="#D03482" />
    <path opacity="0.96" fill-rule="evenodd" clip-rule="evenodd"
        d="M13.8398 30.16C14.0173 30.1692 14.1773 30.2224 14.3198 30.32C14.3198 30.8 14.3198 31.28 14.3198 31.76C14.1598 31.76 13.9998 31.76 13.8398 31.76C13.8398 31.2268 13.8398 30.6933 13.8398 30.16Z"
        fill="#BE3887" />
    <path opacity="0.94" fill-rule="evenodd" clip-rule="evenodd"
        d="M14.3198 30.3199C14.5331 30.3199 14.7465 30.3199 14.9598 30.3199C14.8153 30.7825 14.7621 31.2625 14.7998 31.7599C14.6398 31.7599 14.4798 31.7599 14.3198 31.7599C14.3198 31.2799 14.3198 30.7999 14.3198 30.3199Z"
        fill="#C43686" />
    <path opacity="0.995" fill-rule="evenodd" clip-rule="evenodd"
        d="M14.9598 30.3199C15.0666 30.3199 15.1731 30.3199 15.2798 30.3199C15.2798 30.7999 15.2798 31.2799 15.2798 31.7599C15.1198 31.7599 14.9598 31.7599 14.7998 31.7599C14.7621 31.2625 14.8154 30.7825 14.9598 30.3199Z"
        fill="#CA3684" />
</svg>