<svg width="33" height="33" viewBox="0 0 33 33" fill="none" xmlns="http://www.w3.org/2000/svg">
<path fill-rule="evenodd" clip-rule="evenodd" d="M20.1023 1.15319C24.0242 0.908154 27.9895 0.826189 31.9982 0.907269C32.1087 7.55631 31.9848 14.1962 31.6264 20.8269C30.7555 24.3664 28.8968 27.2353 26.0502 29.4341C26.0185 27.9881 26.2663 26.5537 26.7937 25.1305C27.7154 19.7338 28.7895 14.2416 30.0155 8.65379C29.5521 8.15221 29.0564 7.70136 28.5285 7.30122C27.8205 6.74586 27.077 6.25401 26.2981 5.82569C25.5496 5.08395 24.7233 4.42815 23.8198 3.85832C22.6515 2.86338 21.4123 1.96166 20.1023 1.15319Z" fill="#34A2A8"/>
<path fill-rule="evenodd" clip-rule="evenodd" d="M10.4369 1.89095C10.6541 1.85876 10.8193 1.94075 10.9325 2.13688C7.4013 8.07983 3.80775 13.9819 0.151905 19.8432C-0.652577 11.4302 2.77576 5.44607 10.4369 1.89095Z" fill="#34A2A8"/>
<path fill-rule="evenodd" clip-rule="evenodd" d="M20.1023 1.15319C21.4123 1.96166 22.6515 2.86338 23.8198 3.85832C22.5697 9.24024 21.4131 14.6505 20.3501 20.0891C21.0022 20.4592 20.9194 20.623 20.1023 20.581C20.1023 14.1051 20.1023 7.62911 20.1023 1.15319Z" fill="#268084"/>
<path fill-rule="evenodd" clip-rule="evenodd" d="M23.8198 3.85832C24.7233 4.42815 25.5496 5.08394 26.2981 5.82569C25.2599 10.8107 24.186 15.8111 23.0763 20.8269C22.0349 20.9048 21.0436 20.8227 20.1023 20.581C20.9194 20.623 21.0022 20.4592 20.3501 20.0891C21.4131 14.6505 22.5697 9.24023 23.8198 3.85832Z" fill="#2A898E"/>
<path fill-rule="evenodd" clip-rule="evenodd" d="M26.2981 5.8257C27.077 6.25402 27.8205 6.74586 28.5286 7.30123C27.0175 13.3116 25.9437 19.2957 25.3068 25.2535C25.3068 23.7779 25.3068 22.3024 25.3068 20.8269C24.5633 20.8269 23.8198 20.8269 23.0763 20.8269C24.1861 15.8111 25.2599 10.8107 26.2981 5.8257Z" fill="#2D9298"/>
<path fill-rule="evenodd" clip-rule="evenodd" d="M13.4109 20.8269C13.4927 16.1935 13.4102 11.603 13.1631 7.0553C13.2332 6.86125 13.3571 6.69729 13.5348 6.56346C13.7403 11.36 13.6989 16.1145 13.4109 20.8269Z" fill="#D6E7EA"/>
<path fill-rule="evenodd" clip-rule="evenodd" d="M28.5286 7.30122C29.0564 7.70136 29.5521 8.15221 30.0155 8.65379C28.7895 14.2416 27.7154 19.7338 26.7937 25.1305C26.2664 26.5537 26.0185 27.9881 26.0503 29.4341C25.4877 30.0428 24.8267 30.5346 24.0676 30.9097C23.9464 28.9671 24.2768 27.0819 25.0589 25.2535C25.1415 25.2535 25.2242 25.2535 25.3068 25.2535C25.9437 19.2957 27.0175 13.3116 28.5286 7.30122Z" fill="#2F9A9F"/>
<path fill-rule="evenodd" clip-rule="evenodd" d="M13.163 7.0553C13.4101 11.603 13.4927 16.1935 13.4109 20.8269C11.2567 20.9083 9.10881 20.8264 6.96729 20.581C9.10339 16.0963 11.1686 11.5878 13.163 7.0553Z" fill="#33A2A8"/>
<path fill-rule="evenodd" clip-rule="evenodd" d="M25.0589 25.2535C24.2768 27.0819 23.9464 28.9671 24.0676 30.9097C22.849 31.6782 21.5273 32.17 20.1023 32.3852C20.1023 30.0079 20.1023 27.6308 20.1023 25.2535C21.7546 25.2535 23.4066 25.2535 25.0589 25.2535Z" fill="#2C9096"/>
<path fill-rule="evenodd" clip-rule="evenodd" d="M2.25842 25.2535C5.97588 25.2535 9.69334 25.2535 13.4108 25.2535C13.4108 27.7946 13.4108 30.3359 13.4108 32.877C9.60603 32.2807 6.42555 30.5592 3.86932 27.7127C3.17299 26.9838 2.63602 26.1639 2.25842 25.2535Z" fill="#32A2A8"/>
</svg>
