<svg width="32" height="32" viewBox="0 0 32 32" fill="none" xmlns="http://www.w3.org/2000/svg">
    <g clip-path="url(#clip0_3198_81)">
        <path fill-rule="evenodd" clip-rule="evenodd"
            d="M-0.0712891 -0.0712891C10.5954 -0.0712891 21.262 -0.0712891 31.9287 -0.0712891C31.9287 10.5954 31.9287 21.262 31.9287 31.9287C21.262 31.9287 10.5954 31.9287 -0.0712891 31.9287C-0.0712891 21.262 -0.0712891 10.5954 -0.0712891 -0.0712891Z"
            fill="#FEFEFE" />
        <path fill-rule="evenodd" clip-rule="evenodd"
            d="M14.7201 1.20852C18.1165 1.02677 20.1787 2.59121 20.9067 5.90186C21.2424 7.72944 21.1475 9.53093 20.6223 11.3063C20.0265 10.521 19.3392 9.83356 18.5601 9.24408C18.8442 7.74432 18.6782 6.29839 18.0623 4.9063C17.3587 3.73765 16.3394 3.33468 15.0045 3.69741C13.6076 4.73052 12.9913 6.12903 13.1556 7.89297C12.9678 9.53426 13.4419 10.9328 14.5778 12.0885C15.2547 12.4666 15.9658 12.5377 16.7112 12.3019C16.9286 12.306 17.0946 12.4008 17.2089 12.5863C17.6073 13.1218 17.868 13.7144 17.9912 14.3641C14.2226 15.3595 11.8759 13.961 10.9512 10.1685C10.5937 8.24493 10.6885 6.34863 11.2356 4.47964C11.8804 2.81491 13.0419 1.72455 14.7201 1.20852Z"
            fill="#78C7CE" />
        <path fill-rule="evenodd" clip-rule="evenodd"
            d="M14.5778 9.17301C18.4153 8.94817 20.5723 10.7497 21.0489 14.5775C21.2304 16.1742 21.0882 17.7386 20.6223 19.2708C20.1548 18.4714 19.5384 17.8076 18.7734 17.2797C18.726 16.3315 18.6785 15.3834 18.6311 14.4352C18.5175 13.1854 17.9249 12.261 16.8534 11.6619C16.2684 11.4198 15.6758 11.3961 15.0756 11.5908C14.3928 11.1773 13.9898 10.561 13.8667 9.7419C14.0319 9.45199 14.2689 9.26235 14.5778 9.17301Z"
            fill="#57BAC3" />
        <path fill-rule="evenodd" clip-rule="evenodd"
            d="M11.1644 12.5869C11.6759 13.3594 12.3159 14.0231 13.0844 14.578C13.1318 15.6209 13.1792 16.664 13.2266 17.7069C13.6362 19.826 14.8925 20.703 16.9955 20.338C17.5373 20.9236 17.8691 21.6111 17.9911 22.4002C13.852 23.1704 11.458 21.4637 10.8089 17.2802C10.6321 15.6858 10.7506 14.1213 11.1644 12.5869Z"
            fill="#58BAC3" />
        <path fill-rule="evenodd" clip-rule="evenodd"
            d="M14.4356 17.1379C18.3633 16.8221 20.5678 18.6235 21.0489 22.5423C21.2975 24.7014 20.9182 26.7398 19.9111 28.6579C18.6865 30.2995 17.0509 30.9395 15.0045 30.5779C12.4884 29.8419 11.0898 28.1589 10.8089 25.529C10.7141 24.3438 10.7141 23.1585 10.8089 21.9734C10.8651 21.4729 11.0074 20.9989 11.2356 20.5512C11.6587 21.3299 12.2513 21.9461 13.0134 22.4001C13.043 23.9 13.2563 25.3697 13.6534 26.809C14.4502 28.2598 15.6118 28.6628 17.1378 28.0179C18.3419 26.8339 18.8634 25.3879 18.7022 23.6801C18.8631 22.0014 18.2942 20.6503 16.9956 19.6267C16.3604 19.3961 15.7204 19.3723 15.0756 19.5556C14.2848 19.0645 13.9056 18.3534 13.9378 17.4223C14.123 17.3391 14.2889 17.2444 14.4356 17.1379Z"
            fill="#51ADB4" />
    </g>
    <defs>
        <clipPath id="clip0_3198_81">
            <rect width="32" height="32" fill="white" />
        </clipPath>
    </defs>
</svg>