<svg width="32" height="32" viewBox="0 0 32 32" fill="none" xmlns="http://www.w3.org/2000/svg">
<g clip-path="url(#clip0_143_61)">
<rect width="32" height="32" fill="white"/>
<path d="M19.9891 10.8293C19.1739 10.8293 18.5128 10.1683 18.5128 9.35308C18.5128 8.53783 19.1739 7.87676 19.9891 7.87676C20.8043 7.87676 21.4655 8.53783 21.4655 9.35308C21.4655 10.1683 20.8043 10.8293 19.9891 10.8293ZM21.301 24.1249H18.6781V12.9453H21.301V24.1249ZM12.0117 24.1249C11.1964 24.1249 10.5354 23.4637 10.5354 22.6486C10.5354 21.8333 11.1964 21.1722 12.0117 21.1722C12.8269 21.1722 13.488 21.8333 13.488 22.6486C13.488 23.4637 12.8269 24.1249 12.0117 24.1249ZM10.6998 7.87595H13.3227V19.0555H10.6998V7.87595ZM28.6467 3.35327C24.1757 -1.11776 7.8243 -1.11776 3.35327 3.35327C-1.11776 7.8243 -1.11776 24.1757 3.35327 28.6467C7.8243 33.1178 24.1757 33.1178 28.6467 28.6467C33.1178 24.1757 33.1178 7.8243 28.6467 3.35327Z" fill="black"/>
</g>
<defs>
<clipPath id="clip0_143_61">
<rect width="32" height="32" fill="white"/>
</clipPath>
</defs>
</svg>
