<svg width="32" height="32" viewBox="0 0 32 32" fill="none" xmlns="http://www.w3.org/2000/svg">
<g clip-path="url(#clip0_146_1050)">
<path opacity="0.993" fill-rule="evenodd" clip-rule="evenodd" d="M8.39998 -0.399994C10.5333 -0.399994 12.6666 -0.399994 14.8 -0.399994C15.3333 0.13334 15.8666 0.666672 16.4 1.20001C14.117 2.80756 11.717 4.27422 9.19998 5.60001C9.99997 5.86667 10.8 6.13334 11.6 6.40001C8.57726 8.08961 5.77725 10.0896 3.19998 12.4C2.39306 13.6199 1.99306 14.9533 1.99998 16.4C0.627414 19.9773 0.0940803 23.7106 0.399976 27.6C0.399976 27.8666 0.399976 28.1334 0.399976 28.4C0.133309 28.4 -0.133358 28.4 -0.400024 28.4C-0.400024 22.8 -0.400024 17.2 -0.400024 11.6C1.55698 6.88684 4.4903 2.88684 8.39998 -0.399994Z" fill="#F0F0F0"/>
<path fill-rule="evenodd" clip-rule="evenodd" d="M16.4 1.20001C18.3827 3.62387 18.516 6.29054 16.8 9.20001C13.9617 11.0864 10.8951 12.4198 7.59997 13.2C8.77493 11.9158 8.50829 11.5158 6.79997 12C4.78188 13.0878 3.18188 14.5544 1.99997 16.4C1.99305 14.9533 2.39305 13.6199 3.19997 12.4C5.77724 10.0896 8.57725 8.08961 11.6 6.40001C10.8 6.13335 9.99997 5.86668 9.19997 5.60001C11.717 4.27423 14.117 2.80756 16.4 1.20001Z" fill="#D6D6D6"/>
<path fill-rule="evenodd" clip-rule="evenodd" d="M22 -0.399994C22.5334 -0.399994 23.0666 -0.399994 23.6 -0.399994C26.1474 3.09473 28.2808 6.82806 30 10.8C28.697 9.89977 27.497 8.83313 26.4 7.60001C26.1334 8.66665 25.8666 9.73337 25.6 10.8C25.1157 9.21505 24.3157 8.94833 23.2 10C23.0143 9.01001 22.6143 8.21001 22 7.60001C22 4.93334 22 2.26667 22 -0.399994Z" fill="#BAE7FD"/>
<path fill-rule="evenodd" clip-rule="evenodd" d="M22 7.60001C22.6143 8.21001 23.0143 9.01001 23.2 10C24.3157 8.94833 25.1157 9.21505 25.6 10.8C25.8666 9.73337 26.1334 8.66665 26.4 7.60001C27.497 8.83313 28.697 9.89977 30 10.8C30.6706 11.0734 30.9373 11.6067 30.8 12.4C29.3032 12.113 28.1032 11.313 27.2 10C27.0706 11.5633 26.9372 12.8966 26.8 14C26.3061 13.9114 25.9061 13.6448 25.6 13.2C24.5542 14.5534 23.3542 15.6201 22 16.4C22 13.4666 22 10.5334 22 7.60001Z" fill="#99D1F6"/>
<path fill-rule="evenodd" clip-rule="evenodd" d="M30.8 12.4C31.0667 12.4 31.3334 12.4 31.6 12.4C31.6 14 31.6 15.6 31.6 17.2C30.3575 15.692 28.7575 14.892 26.8 14.8C26.8 14.5334 26.8 14.2666 26.8 14C26.9372 12.8966 27.0706 11.5633 27.2 10C28.1032 11.313 29.3032 12.113 30.8 12.4Z" fill="#77BFF0"/>
<path fill-rule="evenodd" clip-rule="evenodd" d="M26.8 14.8C28.7575 14.892 30.3575 15.692 31.6 17.2C31.6 18.8 31.6 20.4 31.6 22C31.3334 22 31.0667 22 30.8 22C30.9373 21.2067 30.6706 20.6733 30 20.4C29.5496 18.1641 28.483 16.2974 26.8 14.8Z" fill="#439CE5"/>
<path opacity="0.973" fill-rule="evenodd" clip-rule="evenodd" d="M21.2 17.2C18.2525 18.9363 15.0525 19.7363 11.6 19.6C14.9029 17.5138 17.8362 14.8471 20.4 11.6C21.1793 13.3942 21.4461 15.2608 21.2 17.2Z" fill="#9ECDE9"/>
<path opacity="0.831" fill-rule="evenodd" clip-rule="evenodd" d="M7.60003 13.2C3.66757 16.1654 1.53424 20.1654 1.20003 25.2C1.38988 26.2328 1.12321 27.0328 0.400029 27.6C0.0941341 23.7106 0.627468 19.9773 2.00003 16.4C3.18194 14.5544 4.78194 13.0878 6.80003 12C8.50835 11.5158 8.77499 11.9158 7.60003 13.2Z" fill="#A6A6A6"/>
<path fill-rule="evenodd" clip-rule="evenodd" d="M26.8 14C26.8 14.2667 26.8 14.5334 26.8 14.8C28.483 16.2975 29.5496 18.1642 30 20.4C27.249 20.5977 24.5824 20.331 22 19.6C22 18.5334 22 17.4667 22 16.4C23.3542 15.6201 24.5542 14.5535 25.6 13.2C25.9061 13.6448 26.3061 13.9115 26.8 14Z" fill="#0C7DDC"/>
<path fill-rule="evenodd" clip-rule="evenodd" d="M10.8 20.4C7.77533 20.7792 5.24199 22.1125 3.20001 24.4C2.88099 24.2173 2.74766 23.9505 2.80001 23.6C4.24045 21.0949 6.37379 19.4949 9.20001 18.8C10.1707 18.9977 10.704 19.531 10.8 20.4Z" fill="#69A2D1"/>
<path fill-rule="evenodd" clip-rule="evenodd" d="M22 19.6C24.5824 20.331 27.249 20.5977 30 20.4C30.6706 20.6734 30.9373 21.2067 30.8 22C30.8 22.2666 30.8 22.5334 30.8 22.8C27.7846 23.0048 24.8513 22.7382 22 22C22 21.2 22 20.4 22 19.6Z" fill="#0168D1"/>
<path opacity="0.932" fill-rule="evenodd" clip-rule="evenodd" d="M21.2 17.2C21.2 18.5334 21.2 19.8667 21.2 21.2C20.6666 21.4667 20.1333 21.7334 19.6 22C16.9333 22 14.2666 22 11.6 22C11.6 21.2 11.6 20.4 11.6 19.6C15.0525 19.7363 18.2525 18.9363 21.2 17.2Z" fill="#418AC6"/>
<path opacity="0.924" fill-rule="evenodd" clip-rule="evenodd" d="M11.6 22C14.2666 22 16.9333 22 19.6 22C19.1795 23.3842 18.3795 24.451 17.2 25.2C15.4264 24.5051 13.5597 24.2384 11.6 24.4C11.6 23.6 11.6 22.8 11.6 22Z" fill="#2F73B5"/>
<path opacity="0.899" fill-rule="evenodd" clip-rule="evenodd" d="M10.8 20.4C10.8 22.2666 10.8 24.1334 10.8 26C7.86669 26 4.93336 26 2.00002 26C2.21674 27.5038 1.6834 28.5704 0.400024 29.2C0.400024 28.9334 0.400024 28.6666 0.400024 28.4C0.400024 28.1334 0.400024 27.8666 0.400024 27.6C1.1232 27.0328 1.38987 26.2328 1.20002 25.2C1.73336 24.6666 2.26669 24.1334 2.80002 23.6C2.74767 23.9506 2.88101 24.2173 3.20002 24.4C5.24201 22.1126 7.77534 20.7792 10.8 20.4Z" fill="#396DB0"/>
<path opacity="0.897" fill-rule="evenodd" clip-rule="evenodd" d="M22 22C24.8513 22.7382 27.7846 23.0048 30.8 22.8C28.7736 25.6865 26.107 27.8198 22.8 29.2C22.0127 26.8575 21.7461 24.4575 22 22Z" fill="#0F51C3"/>
<path fill-rule="evenodd" clip-rule="evenodd" d="M11.6 24.4C13.5597 24.2384 15.4264 24.5051 17.2 25.2C16.6666 26 16.1333 26.8 15.6 27.6C14.3062 28.0304 12.9729 28.297 11.6 28.4C11.6 27.0666 11.6 25.7334 11.6 24.4Z" fill="#335BA2"/>
<path opacity="0.799" fill-rule="evenodd" clip-rule="evenodd" d="M21.2 21.2C21.2 23.3334 21.2 25.4667 21.2 27.6C19.3333 27.6 17.4666 27.6 15.6 27.6C16.1333 26.8 16.6666 26 17.2 25.2C18.3795 24.451 19.1795 23.3843 19.6 22C20.1333 21.7334 20.6666 21.4667 21.2 21.2Z" fill="#1460D2"/>
<path fill-rule="evenodd" clip-rule="evenodd" d="M10.8 26C10.8 27.3334 10.8 28.6666 10.8 30C7.34047 30.3418 3.87381 30.6084 0.400024 30.8C0.400024 30.2666 0.400024 29.7334 0.400024 29.2C1.6834 28.5704 2.21674 27.5038 2.00002 26C4.93336 26 7.86669 26 10.8 26Z" fill="#335097"/>
<path opacity="0.76" fill-rule="evenodd" clip-rule="evenodd" d="M15.6 27.6C17.4666 27.6 19.3333 27.6 21.2 27.6C21.2686 28.3967 21.0019 29.0634 20.4 29.6C18.1518 30.2258 16.0185 30.8925 14 31.6C13.2 31.6 12.4 31.6 11.6 31.6C11.6 30.5334 11.6 29.4666 11.6 28.4C12.9729 28.297 14.3062 28.0304 15.6 27.6Z" fill="#214ABB"/>
<path opacity="0.571" fill-rule="evenodd" clip-rule="evenodd" d="M10.8 30C10.8 30.5334 10.8 31.0666 10.8 31.6C7.33336 31.6 3.86669 31.6 0.400024 31.6C0.400024 31.3334 0.400024 31.0666 0.400024 30.8C3.87381 30.6084 7.34047 30.3418 10.8 30Z" fill="#2345B7"/>
</g>
<defs>
<clipPath id="clip0_146_1050">
<rect width="32" height="32" fill="white"/>
</clipPath>
</defs>
</svg>
