<svg width="32" height="32" viewBox="0 0 32 32" fill="none" xmlns="http://www.w3.org/2000/svg">
    <path fill-rule="evenodd" clip-rule="evenodd"
        d="M0 0C10.6667 0 21.3334 0 32 0C32 10.6667 32 21.3333 32 32C21.3334 32 10.6667 32 0 32C0 21.3333 0 10.6667 0 0Z"
        fill="#EC6952" />
    <path opacity="0.856" fill-rule="evenodd" clip-rule="evenodd"
        d="M15.36 4.3418C16.64 4.3418 17.92 4.3418 19.2 4.3418C23.7868 5.29382 26.2993 8.40269 26.7378 13.6684C26.7378 14.4189 26.7378 15.1693 26.7378 15.9197C26.3996 17.2405 25.6411 18.1249 24.4622 18.573C21.9956 18.5998 19.5305 18.6802 17.0667 18.8142C15.4632 21.7445 13.8988 24.6925 12.3733 27.6584C12.3259 27.6584 12.2785 27.6584 12.2311 27.6584C12.2784 25.351 12.231 23.0462 12.0889 20.7438C9.51886 21.8606 7.50406 21.1101 6.04443 18.4926C5.73753 17.7434 5.47679 16.993 5.26221 16.2413C5.26221 15.1157 5.26221 13.99 5.26221 12.8644C6.06958 9.29688 8.01328 6.85801 11.0933 5.54783C12.5048 5.0099 13.9271 4.60789 15.36 4.3418ZM21.0489 16.8845C21.3043 17.0924 21.5414 17.3336 21.76 17.6081C20.8118 17.7153 19.8637 17.7153 18.9155 17.6081C18.1333 16.7237 17.3511 15.8393 16.5689 14.9549C16.498 14.4215 16.4743 13.8855 16.4978 13.3468C17.2309 13.1383 17.4916 12.6023 17.28 11.7388C16.7784 11.0145 16.1858 10.9073 15.5022 11.4172C15.1482 12.1749 15.2904 12.8181 15.9289 13.3468C16.0466 14.0376 16.1177 14.7344 16.1422 15.4373C16.7822 16.1609 17.4222 16.8845 18.0622 17.6081C17.5407 17.6617 17.0192 17.7153 16.4978 17.7689C15.3837 19.779 14.2696 21.789 13.1555 23.7991C13.1081 22.1375 13.0607 20.4758 13.0133 18.8142C12.1821 19.6633 11.2102 20.0654 10.0978 20.0202C10.9075 19.1046 11.7135 18.1934 12.5155 17.2865C13.3622 17.483 13.931 17.1078 14.2222 16.1609C13.9934 15.0667 13.4245 14.7451 12.5155 15.1961C12.1107 15.6096 12.0158 16.092 12.2311 16.6433C11.2484 17.8355 10.2055 18.9343 9.10221 19.9398C8.46672 19.7301 7.92154 19.3549 7.46665 18.8142C6.32745 17.1911 5.94819 15.3687 6.32887 13.3468C7.32648 14.5016 8.34573 15.6272 9.38665 16.7237C9.86357 16.2377 10.3376 15.7553 10.8089 15.2765C11.159 14.7999 11.5383 14.3443 11.9467 13.9096C11.6385 13.5612 11.3304 13.2128 11.0222 12.8644C11.1987 11.5631 10.701 11.0003 9.52887 11.176C8.91861 11.7305 8.82379 12.3737 9.24443 13.1056C9.70112 13.2911 10.1752 13.3982 10.6667 13.4272C10.8355 13.5912 10.9777 13.7788 11.0933 13.99C10.5741 14.6576 10.0289 15.3008 9.45776 15.9197C8.4385 14.7673 7.41925 13.6148 6.39998 12.4624C6.8833 10.6303 7.80774 9.15629 9.17332 8.04029C9.27532 8.1278 9.34643 8.23501 9.38665 8.3619C10.5689 9.64489 11.7541 10.9313 12.9422 12.2212C13.6533 11.5244 14.317 10.774 14.9333 9.96994C14.6489 9.59473 14.3644 9.21951 14.08 8.84431C14.2426 7.608 13.7685 7.0988 12.6578 7.31667C11.9699 7.93318 11.9225 8.60318 12.5155 9.32672C12.9341 9.44628 13.3608 9.52668 13.7955 9.56793C13.9174 9.67874 14.0122 9.81274 14.08 9.96994C13.7481 10.4523 13.3689 10.8812 12.9422 11.2564C11.8302 10.0795 10.7398 8.87345 9.6711 7.63828C11.2091 6.60288 12.8684 5.93286 14.6489 5.62823C15.1579 5.96129 15.6083 6.3901 16 6.91466C16.0709 7.50185 16.0946 8.09147 16.0711 8.68351C16.8825 8.63063 17.6885 8.68425 18.4889 8.84431C18.8202 9.44761 19.2943 9.63522 19.9111 9.40712C20.5417 8.88179 20.6364 8.23858 20.1955 7.47748C19.5962 7.11255 19.0511 7.19295 18.56 7.71868C18.4913 7.87112 18.4676 8.03193 18.4889 8.20109C17.8252 8.20109 17.1615 8.20109 16.4978 8.20109C16.72 7.08814 16.4356 6.20371 15.6444 5.54783C18.0469 5.11196 20.3225 5.54078 22.4711 6.83426C24.6626 8.7889 25.753 11.3618 25.7422 14.5529C25.7234 16.8776 24.6805 17.896 22.6133 17.6081C21.8311 16.7237 21.0489 15.8393 20.2667 14.9549C20.1957 14.2064 20.1719 13.4559 20.1955 12.7036C20.9129 12.6509 21.624 12.7046 22.3289 12.8644C22.3967 13.0216 22.4914 13.1556 22.6133 13.2664C24.0798 13.4855 24.5064 12.8423 23.8933 11.3368C22.9793 10.8187 22.4104 11.1135 22.1867 12.2212C21.3807 12.2212 20.5748 12.2212 19.7689 12.2212C19.7453 13.2946 19.7689 14.3666 19.84 15.4373C20.2721 15.8987 20.675 16.3811 21.0489 16.8845Z"
        fill="#FEFFFE" />
</svg>