<svg width="32" height="32" viewBox="0 0 32 32" fill="none" xmlns="http://www.w3.org/2000/svg">
    <g clip-path="url(#clip0_3505_153)">
        <path
            d="M13.8253 27.2179C13.3603 26.8973 12.8386 26.8086 12.3509 26.9246C11.6988 27.1019 10.9843 26.9996 10.3605 26.563C9.77141 26.1582 9.3287 25.504 9.11858 24.728C8.96547 24.1346 8.6309 23.6093 8.14888 23.275C7.66001 22.9354 7.07904 22.843 6.53358 23.0182C5.98813 23.1934 5.5228 23.6219 5.23979 24.2096C4.95742 24.7977 4.88063 25.4966 5.02629 26.1527C5.17196 26.8089 5.52817 27.3686 6.01668 27.7091C6.49303 28.0365 7.02608 28.1252 7.5251 27.9956C8.17157 27.8319 8.86907 27.941 9.48718 28.3639C10.0996 28.7869 10.5249 29.4554 10.7291 30.2058C10.8539 30.6789 11.0903 31.0983 11.4095 31.4129C11.7287 31.7275 12.117 31.9239 12.5272 31.978C12.9374 32.0322 13.3519 31.9419 13.7202 31.7181C14.0886 31.4943 14.395 31.1467 14.6022 30.7174C15.1919 29.4895 14.8404 27.9274 13.8253 27.2179ZM10.9219 9.76151C11.0636 10.2936 11.3585 10.7643 11.7952 11.0644C12.7138 11.7057 13.8933 11.3236 14.4207 10.2186C14.9538 9.11346 14.6362 7.69457 13.7176 7.06016C13.2979 6.76683 12.8272 6.6918 12.3849 6.79412C11.7794 6.95943 11.1443 6.84775 10.6034 6.48081C10.0626 6.11388 9.65455 5.51795 9.45882 4.80904C9.31491 4.25595 9.00312 3.78834 8.58553 3.4993C7.66687 2.85807 6.48736 3.24008 5.95998 4.34518C5.42693 5.45027 5.74449 6.86916 6.66315 7.50356C7.09413 7.80371 7.57614 7.87875 8.02413 7.76278C8.60821 7.61271 9.23767 7.70821 9.7934 8.09704C10.3491 8.47905 10.7291 9.07935 10.9162 9.76151H10.9219ZM5.51766 19.4891C5.51766 19.4891 5.52333 19.5095 5.52333 19.5164C5.53467 19.5641 5.55168 19.6119 5.5687 19.6596L5.58571 19.721C5.60272 19.7688 5.61973 19.8165 5.64242 19.8643C5.65376 19.8847 5.65943 19.9052 5.67077 19.9256C5.69345 19.9734 5.71046 20.0143 5.73315 20.0553C5.74449 20.0757 5.75583 20.0962 5.76717 20.1235C5.80248 20.1888 5.84232 20.2504 5.88626 20.3077C5.91461 20.3486 5.93729 20.3827 5.96565 20.4168L6.01668 20.4782C6.04504 20.5123 6.07339 20.5396 6.10175 20.5737C6.12443 20.5942 6.14144 20.6146 6.16412 20.6351L6.23784 20.7033C6.2662 20.7306 6.29455 20.7511 6.3229 20.7783C6.34559 20.7988 6.36827 20.8125 6.39662 20.8329L6.44766 20.8738C6.90699 21.1945 7.4287 21.2695 7.91071 21.1399C8.52315 20.9898 9.18096 21.0921 9.75937 21.5014C10.3435 21.9107 10.7518 22.5451 10.9446 23.2614C11.092 23.8208 11.4096 24.3256 11.8689 24.6394C12.8443 25.3147 14.0862 24.9122 14.6476 23.7457C15.209 22.5724 14.8744 21.0785 13.9047 20.4032C13.4624 20.0962 12.9633 20.0143 12.4983 20.1235C11.8746 20.294 11.1941 20.1917 10.593 19.7756C10.0315 19.3873 9.60936 18.7628 9.40779 18.0224C9.40779 18.0224 9.40779 18.0156 9.40779 18.0088L9.35675 17.8451C9.35675 17.8314 9.34541 17.811 9.33974 17.7973C9.32273 17.7427 9.30004 17.695 9.28303 17.6472C9.27736 17.6268 9.26602 17.6131 9.26035 17.5927C9.23767 17.5449 9.21498 17.4972 9.1923 17.4562L9.15827 17.3948C9.13559 17.3539 9.10724 17.313 9.08456 17.2721C9.07321 17.2516 9.0562 17.2311 9.04486 17.2107L8.96547 17.0947L8.91443 17.0333L8.83504 16.9378C8.81236 16.9173 8.79535 16.89 8.77267 16.8696C8.74998 16.8423 8.72163 16.8218 8.69895 16.8014C8.67059 16.7741 8.64224 16.7536 8.61388 16.7263C8.5912 16.7059 8.56285 16.6854 8.53449 16.6649C8.51748 16.6513 8.50614 16.6377 8.48913 16.6308C8.04681 16.3239 7.54778 16.242 7.07711 16.3511C6.60644 16.4603 7.0601 16.3511 7.04876 16.3511H7.03175C6.41931 16.508 5.75583 16.3989 5.17174 15.9964C4.6103 15.6081 4.18813 14.9836 3.98656 14.2433C3.86781 13.7904 3.64214 13.3887 3.33704 13.0873C3.03194 12.7859 2.66057 12.5977 2.26815 12.5457C1.87573 12.4936 1.4792 12.58 1.12684 12.7942C0.774476 13.0084 0.481492 13.3412 0.283564 13.7521C0.0141344 14.314 -0.0589653 14.9816 0.0803079 15.6082C0.219581 16.2349 0.559848 16.7695 1.02643 17.0947C1.48009 17.4085 1.99046 17.4903 2.4668 17.3676C3.08491 17.2107 3.74839 17.313 4.33814 17.7223C4.92223 18.1316 5.33052 18.766 5.52333 19.4822L5.51766 19.4891Z"
            fill="#3A39B6" />
        <path
            d="M12.6571 18.3363C13.8911 18.3363 14.8914 17.133 14.8914 15.6486C14.8914 14.1643 13.8911 12.9609 12.6571 12.9609C11.4232 12.9609 10.4229 14.1643 10.4229 15.6486C10.4229 17.133 11.4232 18.3363 12.6571 18.3363Z"
            fill="#3A39B6" />
        <path
            d="M12.6571 5.3754C13.8911 5.3754 14.8914 4.17208 14.8914 2.6877C14.8914 1.20332 13.8911 0 12.6571 0C11.4232 0 10.4229 1.20332 10.4229 2.6877C10.4229 4.17208 11.4232 5.3754 12.6571 5.3754Z"
            fill="#3A39B6" />
        <path
            d="M5.37012 11.3785C5.37012 12.6473 6.22073 13.6705 7.27549 13.6705C8.33024 13.6705 9.18086 12.6473 9.18086 11.3785C9.18086 10.1097 8.33024 9.08643 7.27549 9.08643C6.22073 9.08643 5.37012 10.1097 5.37012 11.3785Z"
            fill="#3A39B6" />
        <path
            d="M2.29098 23.2206C3.21175 23.2206 3.95818 22.3226 3.95818 21.215C3.95818 20.1074 3.21175 19.2095 2.29098 19.2095C1.37021 19.2095 0.623779 20.1074 0.623779 21.215C0.623779 22.3226 1.37021 23.2206 2.29098 23.2206Z"
            fill="#3A39B6" />
        <path
            d="M18.1747 27.2179C18.6397 26.8973 19.1614 26.8086 19.6491 26.9246C20.3013 27.1019 21.0158 26.9996 21.6395 26.563C22.2286 26.1582 22.6713 25.504 22.8814 24.728C23.0345 24.1346 23.3691 23.6093 23.8455 23.275C24.8662 22.5656 26.1648 22.9885 26.7546 24.2096C27.3443 25.4375 26.9927 26.9996 25.9777 27.7091C25.5013 28.0365 24.9683 28.1252 24.4692 27.9956C23.7998 27.8252 23.1016 27.9563 22.5072 28.3639C21.8947 28.7869 21.4694 29.4554 21.2653 30.2058C21.1404 30.6789 20.9041 31.0983 20.5849 31.4129C20.2656 31.7275 19.8774 31.9239 19.4672 31.978C19.0569 32.0322 18.6425 31.9419 18.2741 31.7181C17.9058 31.4943 17.5994 31.1467 17.3922 30.7174C17.1098 30.1293 17.033 29.4304 17.1787 28.7743C17.3243 28.1181 17.6805 27.5584 18.1691 27.2179H18.1747ZM21.0781 9.76151C20.934 10.3127 20.6221 10.7781 20.2049 11.0644C19.2862 11.7057 18.1067 11.3236 17.5793 10.2186C17.0462 9.11346 17.3638 7.69457 18.2825 7.06016C18.7021 6.76683 19.1728 6.6918 19.6151 6.79412C20.2207 6.95943 20.8557 6.84775 21.3966 6.48081C21.9375 6.11388 22.3455 5.51795 22.5412 4.80904C22.683 4.27696 22.9778 3.79945 23.4145 3.4993C24.3332 2.85807 25.5127 3.24008 26.04 4.34518C26.5731 5.45027 26.2555 6.86916 25.3369 7.50356C24.9059 7.80371 24.4239 7.87875 23.9759 7.76278C23.3721 7.60465 22.741 7.72388 22.2066 8.09704C21.6509 8.47905 21.271 9.07935 21.0838 9.76151H21.0781ZM26.4767 19.4891C26.4767 19.4891 26.471 19.5095 26.471 19.5164C26.4597 19.5641 26.4427 19.6119 26.4257 19.6596L26.4086 19.721C26.3916 19.7688 26.3746 19.8165 26.3519 19.8643C26.3406 19.8847 26.3349 19.9052 26.3236 19.9256C26.3009 19.9734 26.2839 20.0143 26.2612 20.0553C26.2499 20.0757 26.2385 20.0962 26.2272 20.1235C26.2045 20.1644 26.1818 20.2053 26.1535 20.2463C26.1421 20.2667 26.1251 20.2872 26.1081 20.3077C26.0797 20.3486 26.0571 20.3827 26.0287 20.4168L25.9777 20.4782C25.9493 20.5123 25.921 20.5396 25.8926 20.5737C25.8699 20.5942 25.8529 20.6146 25.8302 20.6351L25.7565 20.7033C25.7282 20.7306 25.6998 20.7511 25.6714 20.7783C25.6488 20.7988 25.6261 20.8125 25.5977 20.8329L25.5467 20.8738C25.0874 21.1945 24.5657 21.2695 24.0836 21.1399C23.4515 20.9804 22.7926 21.1093 22.235 21.5014C21.6509 21.9107 21.2426 22.5451 21.0498 23.2614C20.9024 23.8208 20.5848 24.3256 20.1255 24.6394C19.1501 25.3147 17.9082 24.9122 17.3468 23.7457C17.0774 23.1838 17.0043 22.5163 17.1435 21.8896C17.2828 21.263 17.6231 20.7284 18.0897 20.4032C18.532 20.0962 19.031 20.0143 19.496 20.1235C20.1198 20.294 20.8003 20.1917 21.4014 19.7756C21.9628 19.3873 22.385 18.7628 22.5866 18.0224V18.0088L22.6376 17.8451C22.6376 17.8314 22.6489 17.811 22.6546 17.7973C22.6716 17.7427 22.6943 17.695 22.7113 17.6472C22.717 17.6268 22.7283 17.6131 22.734 17.5927C22.7567 17.5449 22.7794 17.4972 22.802 17.4562L22.8361 17.3948C22.8588 17.3539 22.8871 17.313 22.9098 17.2721C22.9211 17.2516 22.9381 17.2311 22.9495 17.2107L23.0289 17.0947L23.0799 17.0333L23.1593 16.9378C23.182 16.9173 23.199 16.89 23.2217 16.8696C23.2444 16.8423 23.2727 16.8218 23.2954 16.8014C23.3238 16.7741 23.3521 16.7536 23.3805 16.7263C23.4031 16.7059 23.4315 16.6854 23.4599 16.6649C23.4769 16.6513 23.4882 16.6377 23.5052 16.6308C23.9475 16.3239 24.4466 16.242 24.9172 16.3511C25.3879 16.4603 24.9343 16.3511 24.9456 16.3511H24.9626C25.575 16.508 26.2385 16.3989 26.8226 15.9964C27.3841 15.6081 27.8062 14.9836 28.0078 14.2433C28.1265 13.7904 28.3522 13.3887 28.6573 13.0873C28.9624 12.7859 29.3338 12.5977 29.7262 12.5457C30.1186 12.4936 30.5152 12.58 30.8675 12.7942C31.2199 13.0084 31.5129 13.3412 31.7108 13.7521C32.2722 14.9254 31.9376 16.4194 30.9679 17.0947C30.5143 17.4085 30.0039 17.4903 29.5276 17.3676C28.8888 17.2028 28.2219 17.3292 27.6562 17.7223C27.0721 18.1316 26.6638 18.766 26.471 19.4822L26.4767 19.4891Z"
            fill="#7F7CF8" />
        <path
            d="M19.3429 18.3363C20.5769 18.3363 21.5772 17.133 21.5772 15.6486C21.5772 14.1643 20.5769 12.9609 19.3429 12.9609C18.109 12.9609 17.1086 14.1643 17.1086 15.6486C17.1086 17.133 18.109 18.3363 19.3429 18.3363Z"
            fill="#7F7CF8" />
        <path
            d="M19.3429 5.3754C20.5769 5.3754 21.5772 4.17208 21.5772 2.6877C21.5772 1.20332 20.5769 0 19.3429 0C18.109 0 17.1086 1.20332 17.1086 2.6877C17.1086 4.17208 18.109 5.3754 19.3429 5.3754Z"
            fill="#7F7CF8" />
        <path
            d="M26.6242 11.3785C26.6242 12.6473 25.7736 13.6705 24.7188 13.6705C23.6641 13.6705 22.8135 12.6473 22.8135 11.3785C22.8135 10.1097 23.6641 9.08643 24.7188 9.08643C25.7736 9.08643 26.6242 10.1097 26.6242 11.3785Z"
            fill="#7F7CF8" />
        <path
            d="M29.7089 23.2206C30.6297 23.2206 31.3761 22.3226 31.3761 21.215C31.3761 20.1074 30.6297 19.2095 29.7089 19.2095C28.7882 19.2095 28.0417 20.1074 28.0417 21.215C28.0417 22.3226 28.7882 23.2206 29.7089 23.2206Z"
            fill="#7F7CF8" />
    </g>
    <defs>
        <clipPath id="clip0_3505_153">
            <rect width="32" height="32" fill="white" />
        </clipPath>
    </defs>
</svg>