<svg width="32" height="32" viewBox="0 0 32 32" fill="none" xmlns="http://www.w3.org/2000/svg">
    <g clip-path="url(#clip0_3573_3177)">
        <path fill-rule="evenodd" clip-rule="evenodd"
            d="M-0.0712891 -0.0712891C10.5954 -0.0712891 21.262 -0.0712891 31.9287 -0.0712891C31.9287 10.5954 31.9287 21.262 31.9287 31.9287C21.262 31.9287 10.5954 31.9287 -0.0712891 31.9287C-0.0712891 21.262 -0.0712891 10.5954 -0.0712891 -0.0712891Z"
            fill="#3069FB" />
        <path fill-rule="evenodd" clip-rule="evenodd"
            d="M15.7157 5.90224C16.0979 5.8789 16.4772 5.90261 16.8535 5.97335C17.6595 6.68446 18.4653 7.39557 19.2713 8.10668C20.2669 8.15409 21.2624 8.2015 22.258 8.2489C22.5919 8.2981 22.8526 8.46402 23.0402 8.74668C23.187 9.97544 23.3292 11.208 23.4669 12.4445C24.0831 13.0608 24.6995 13.6771 25.3157 14.2933C25.5267 14.7487 25.5742 15.2229 25.458 15.7156C24.7469 16.5215 24.0357 17.3274 23.3246 18.1333C23.2773 19.1763 23.2298 20.2193 23.1824 21.2622C23.0228 21.5643 22.8095 21.825 22.5424 22.0445C21.4995 22.0918 20.4564 22.1393 19.4135 22.1867C19.2239 22.2815 19.0342 22.3763 18.8446 22.4711C18.1763 23.1871 17.4652 23.8507 16.7113 24.4622C16.4269 24.5571 16.1424 24.5571 15.858 24.4622C15.3414 24.0882 14.8674 23.6615 14.4357 23.1822C13.8281 22.9425 13.2118 22.9425 12.5869 23.1822C11.5748 23.5698 10.5792 23.9965 9.60019 24.4622C7.53997 24.5821 6.66294 23.6102 6.96908 21.5467C7.67959 20.3637 8.22477 19.1074 8.60463 17.7778C8.27759 17.0219 7.77981 16.3819 7.1113 15.8578C6.82152 15.3125 6.86894 14.791 7.25352 14.2933C7.86981 13.6771 8.48612 13.0608 9.10241 12.4445C9.24008 11.208 9.3823 9.97544 9.52907 8.74668C9.70173 8.52641 9.91507 8.36048 10.1691 8.2489C11.212 8.2015 12.255 8.15409 13.298 8.10668C14.1317 7.39095 14.9376 6.65613 15.7157 5.90224Z"
            fill="#FBFCFE" />
        <path fill-rule="evenodd" clip-rule="evenodd"
            d="M15.7156 8.17757C16.2792 8.1191 16.8008 8.23762 17.2801 8.53313C17.7117 9.01245 18.1857 9.43911 18.7023 9.81313C21.2152 9.4344 22.2345 10.5011 21.7601 13.0131C22.1394 13.3924 22.5185 13.7716 22.8978 14.1509C23.3083 14.7337 23.3556 15.35 23.0401 15.9998C22.5608 16.4314 22.1341 16.9055 21.7601 17.422C21.739 18.2397 21.6443 19.0455 21.4756 19.8398C21.3011 20.1564 21.0403 20.3697 20.6934 20.4798C19.9823 20.5272 19.2712 20.5747 18.5601 20.622C17.9438 21.1435 17.3274 21.6649 16.7112 22.1865C16.2324 22.2334 15.7584 22.186 15.2889 22.0442C14.5265 21.6745 13.7442 21.3663 12.9423 21.1198C11.5243 21.4611 10.1732 21.9827 8.88894 22.6842C8.73496 22.5612 8.71125 22.419 8.81783 22.2576C9.5421 21.0231 10.0873 19.7195 10.4534 18.3465C10.2202 17.6819 9.91208 17.0419 9.52894 16.4265C9.33515 15.8205 9.28775 15.2041 9.38672 14.5776C9.86079 14.0087 10.3349 13.4398 10.8089 12.8709C10.8563 12.1598 10.9038 11.4487 10.9512 10.7376C11.1107 10.4355 11.324 10.1748 11.5912 9.95535C12.4561 9.93575 13.3094 9.84095 14.1512 9.67091C14.6578 9.14019 15.1793 8.64241 15.7156 8.17757Z"
            fill="#336AFB" />
        <path fill-rule="evenodd" clip-rule="evenodd"
            d="M15.9998 10.3108C16.1951 10.2885 16.3848 10.3123 16.5687 10.3819C16.9532 10.814 17.3798 11.1933 17.8487 11.5197C18.4176 11.5671 18.9865 11.6145 19.5554 11.6619C19.6739 11.7805 19.7925 11.899 19.911 12.0175C19.6929 13.2239 20.0722 14.1721 21.0487 14.8619C21.1436 15.099 21.1436 15.336 21.0487 15.5731C20.7169 15.9049 20.385 16.2368 20.0532 16.5686C20.0058 17.1375 19.9583 17.7064 19.911 18.2753C19.8448 18.4788 19.7262 18.6446 19.5554 18.7731C18.3489 18.555 17.4009 18.9343 16.711 19.9108C16.4265 20.0057 16.1421 20.0057 15.8576 19.9108C15.1677 18.9343 14.2196 18.555 13.0132 18.7731C12.8423 18.6446 12.7238 18.4788 12.6576 18.2753C12.6102 17.7064 12.5628 17.1375 12.5154 16.5686C12.0438 16.1939 11.6883 15.7436 11.4487 15.2175C11.6883 14.6914 12.0438 14.2411 12.5154 13.8664C12.5628 13.2501 12.6102 12.6338 12.6576 12.0175C12.7761 11.899 12.8947 11.7805 13.0132 11.6619C14.3344 11.9016 15.33 11.4512 15.9998 10.3108Z"
            fill="#FCFDFE" />
        <path fill-rule="evenodd" clip-rule="evenodd"
            d="M15.2889 14.5781C16.0352 14.598 16.1774 14.9061 15.7156 15.5026C14.9877 15.4775 14.8455 15.1695 15.2889 14.5781Z"
            fill="#3569FB" />
        <path fill-rule="evenodd" clip-rule="evenodd"
            d="M18.1332 14.5776C18.9944 14.4983 19.184 14.8065 18.7021 15.5021C18.0324 15.5137 17.8428 15.2055 18.1332 14.5776Z"
            fill="#396BFB" />
    </g>
    <defs>
        <clipPath id="clip0_3573_3177">
            <rect width="32" height="32" fill="white" />
        </clipPath>
    </defs>
</svg>