<svg width="32" height="32" viewBox="0 0 32 32" fill="none" xmlns="http://www.w3.org/2000/svg">
    <g clip-path="url(#clip0_3868_274)">
        <path fill-rule="evenodd" clip-rule="evenodd"
            d="M-0.0712891 -0.0712891C10.5954 -0.0712891 21.262 -0.0712891 31.9287 -0.0712891C31.9287 4.57464 31.9287 9.22056 31.9287 13.8665C31.1298 13.8349 30.3476 13.9297 29.582 14.1509C29.3851 14.1489 29.2192 14.1015 29.0843 14.0087C29.4141 13.9387 29.6985 13.7964 29.9376 13.582C30.0325 13.582 30.1272 13.582 30.222 13.582C30.9278 13.3027 31.4493 12.8286 31.7865 12.1598C31.7865 11.8754 31.7865 11.5909 31.7865 11.3065C31.2411 9.62946 30.198 8.34946 28.6576 7.46649C28.5057 7.33358 28.3161 7.28618 28.0887 7.32427C28.1199 7.15716 28.0725 7.01493 27.9465 6.8976C27.3887 6.60122 27.128 6.12714 27.1643 5.47538C27.006 5.65463 26.9822 5.82055 27.0932 5.97316C26.7168 6.0439 26.3375 6.06761 25.9554 6.04427C25.6571 5.49354 25.3252 4.97205 24.9598 4.47982C24.5617 3.58793 24.1588 2.68718 23.7509 1.7776C23.4607 1.64631 23.1525 1.59891 22.8265 1.63538C22.8481 2.17272 22.9903 2.6705 23.2532 3.12871C23.2058 3.19982 23.1583 3.27093 23.1109 3.34204C22.839 3.03524 22.6019 2.70338 22.3998 2.34649C22.032 2.20711 21.6527 2.15969 21.262 2.20427C21.4182 3.04956 21.7975 3.78437 22.3998 4.40871C21.8304 4.05546 21.309 3.6051 20.8354 3.0576C20.1593 2.74495 19.8037 2.93459 19.7687 3.62649C20.2427 4.19538 20.7643 4.71686 21.3332 5.19093C21.428 5.28575 21.428 5.38056 21.3332 5.47538C20.656 5.02035 19.9213 4.68849 19.1287 4.47982C18.9111 4.49972 18.7689 4.59452 18.702 4.76427C18.6648 4.97444 18.7121 5.16408 18.8443 5.33316C19.5554 5.68871 20.2665 6.04427 20.9776 6.39982C21.3046 6.79782 21.3046 7.17708 20.9776 7.5376C20.6274 7.72164 20.2956 7.93497 19.982 8.1776C19.7425 8.69391 19.9085 8.97835 20.4798 9.03093C21.1628 8.80238 21.8501 8.63647 22.542 8.53316C23.2278 8.90684 23.6545 9.45204 23.822 10.1687C24.1071 10.4817 24.4389 10.7662 24.8176 11.022C24.766 11.1193 24.7186 11.2141 24.6754 11.3065C23.2755 12.144 22.0192 13.187 20.9065 14.4354C20.803 15.1641 21.0636 15.733 21.6887 16.142C22.7197 17.212 23.573 18.3971 24.2487 19.6976C24.2722 20.2213 24.2486 20.7426 24.1776 21.262C24.0338 21.143 23.8678 21.0956 23.6798 21.1198C23.6798 21.262 23.6798 21.4043 23.6798 21.5465C23.8294 21.5253 23.9717 21.5489 24.1065 21.6176C23.9694 21.8629 23.8745 22.1238 23.822 22.3998C23.7272 22.4947 23.6325 22.5894 23.5376 22.6843C23.3218 22.6858 23.1559 22.7806 23.0398 22.9687C22.7926 23.5008 22.4371 23.9512 21.9732 24.3198C21.5399 24.2752 21.1133 24.2989 20.6932 24.3909C20.7678 24.4894 20.8627 24.5605 20.9776 24.6043C20.8146 24.696 20.6724 24.8145 20.5509 24.9598C20.2682 24.8476 20.2208 24.6818 20.4087 24.462C20.3376 24.4383 20.2665 24.4147 20.1954 24.3909C19.8014 24.5115 19.3985 24.5589 18.9865 24.5332C19.0639 24.829 19.1825 25.1134 19.342 25.3865C19.638 25.7544 19.9936 26.0389 20.4087 26.2398C21.1174 27.7791 22.2552 28.8695 23.822 29.5109C24.6272 29.914 25.4805 30.2222 26.382 30.4354C28.2177 30.8248 30.0666 31.133 31.9287 31.3598C31.9287 31.5494 31.9287 31.7391 31.9287 31.9287C21.262 31.9287 10.5954 31.9287 -0.0712891 31.9287C-0.0712891 21.262 -0.0712891 10.5954 -0.0712891 -0.0712891Z"
            fill="#FEFEFD" />
        <path fill-rule="evenodd" clip-rule="evenodd"
            d="M24.9599 4.48036C25.1367 5.18133 25.2789 5.89244 25.3866 6.61369C25.2693 6.73966 25.127 6.78706 24.9599 6.75591C24.9174 7.05515 24.9648 7.33959 25.1021 7.60925C25.4797 7.3328 25.6695 6.95353 25.671 6.47147C25.9775 6.45327 26.262 6.52438 26.5244 6.6848C26.3021 7.31911 25.9703 7.888 25.5288 8.39147C24.9342 8.47175 24.389 8.35324 23.8933 8.03591C23.5238 8.12095 23.2631 7.95502 23.111 7.53814C22.9762 7.46947 22.834 7.44576 22.6844 7.46703C22.7056 7.31741 22.682 7.17519 22.6133 7.04036C22.2815 7.22998 21.9495 7.22998 21.6177 7.04036C21.5996 6.8588 21.6708 6.69287 21.831 6.54258C21.3715 6.19473 20.8501 5.95771 20.2666 5.83147C19.7793 5.40035 19.258 5.0448 18.7021 4.7648C18.769 4.59506 18.9112 4.50026 19.1288 4.48036C19.9214 4.68903 20.6561 5.02089 21.3333 5.47591C21.4281 5.3811 21.4281 5.28629 21.3333 5.19147C20.7644 4.7174 20.2428 4.19591 19.7688 3.62703C19.8038 2.93513 20.1594 2.74549 20.8355 3.05814C21.3091 3.60564 21.8305 4.056 22.3999 4.40925C21.7976 3.78491 21.4183 3.0501 21.2621 2.2048C21.6528 2.16023 22.0321 2.20765 22.3999 2.34703C22.602 2.70392 22.8391 3.03578 23.111 3.34258C23.1584 3.27147 23.2059 3.20036 23.2533 3.12925C22.9904 2.67104 22.8482 2.17326 22.8266 1.63591C23.1526 1.59945 23.4608 1.64685 23.751 1.77814C24.1589 2.68772 24.5618 3.58847 24.9599 4.48036Z"
            fill="#EBBEA4" />
        <path fill-rule="evenodd" clip-rule="evenodd"
            d="M24.96 4.48047C25.3254 4.9727 25.6573 5.49419 25.9556 6.04491C26.2066 6.18165 26.491 6.22905 26.8089 6.18714C26.7641 6.89079 26.5744 7.5545 26.24 8.17825C26.6388 8.55213 27.0655 8.90769 27.52 9.24491C27.4355 9.31095 27.3407 9.33466 27.2356 9.31602C27.1454 9.11026 26.9794 9.01545 26.7378 9.03158C26.3794 9.3081 26.0001 9.3555 25.6 9.1738C25.1556 9.41522 24.7527 9.72338 24.3911 10.0982C24.2072 10.1679 24.0175 10.1916 23.8222 10.1694C23.6547 9.45269 23.228 8.90749 22.5422 8.5338C21.8503 8.63711 21.163 8.80303 20.48 9.03158C19.9087 8.979 19.7427 8.69456 19.9822 8.17825C20.2958 7.93562 20.6277 7.72228 20.9778 7.53825C21.3048 7.17773 21.3048 6.79846 20.9778 6.40047C20.2667 6.04491 19.5556 5.68936 18.8445 5.3338C18.7123 5.16473 18.665 4.97509 18.7022 4.76491C19.2581 5.04491 19.7794 5.40046 20.2667 5.83158C20.8502 5.95782 21.3716 6.19484 21.8311 6.54269C21.6709 6.69298 21.5997 6.85891 21.6178 7.04047C21.9496 7.23009 22.2816 7.23009 22.6134 7.04047C22.6821 7.1753 22.7057 7.31752 22.6845 7.46714C22.8341 7.44587 22.9763 7.46958 23.1111 7.53825C23.2632 7.95513 23.5239 8.12106 23.8934 8.03602C24.3891 8.35335 24.9343 8.47186 25.5289 8.39158C25.9704 7.88811 26.3022 7.31922 26.5245 6.68491C26.2621 6.52449 25.9776 6.45338 25.6711 6.47158C25.6696 6.95364 25.4798 7.33291 25.1022 7.60936C24.9649 7.3397 24.9175 7.05526 24.96 6.75602C25.1271 6.78717 25.2694 6.73977 25.3867 6.6138C25.279 5.89255 25.1368 5.18144 24.96 4.48047Z"
            fill="#D6B19D" />
        <path fill-rule="evenodd" clip-rule="evenodd"
            d="M28.6578 7.4667C28.6437 7.95643 28.5488 8.47791 28.3733 9.03114C28.326 9.03114 28.2785 9.03114 28.2311 9.03114C28.0889 9.03114 27.9467 9.03114 27.8045 9.03114C27.8116 9.3284 27.6693 9.51803 27.3778 9.60003C27.2643 9.53505 27.2169 9.44023 27.2356 9.31559C27.3407 9.33422 27.4355 9.31051 27.52 9.24447C27.0655 8.90725 26.6388 8.5517 26.24 8.17781C26.5744 7.55406 26.7641 6.89036 26.8089 6.1867C26.491 6.22861 26.2066 6.18121 25.9556 6.04447C26.3377 6.06781 26.717 6.04411 27.0933 5.97336C26.9824 5.82076 27.0062 5.65484 27.1645 5.47559C27.1282 6.12735 27.3889 6.60143 27.9467 6.89781C28.0727 7.01514 28.12 7.15736 28.0889 7.32447C28.3163 7.28639 28.5059 7.33379 28.6578 7.4667Z"
            fill="#E6E4E7" />
        <path fill-rule="evenodd" clip-rule="evenodd"
            d="M28.658 7.4668C30.1984 8.34977 31.2414 9.62977 31.7869 11.3068C31.2119 10.683 30.7378 9.97191 30.3646 9.17346C30.0633 9.02824 29.8262 8.81491 29.6535 8.53346C29.4165 8.43864 29.1795 8.43864 28.9424 8.53346C28.7666 8.7308 28.5771 8.89673 28.3735 9.03124C28.549 8.47801 28.6439 7.95652 28.658 7.4668Z"
            fill="#6167A1" />
        <path fill-rule="evenodd" clip-rule="evenodd"
            d="M27.2356 9.3155C27.217 9.44014 27.2643 9.53496 27.3778 9.59994C27.6694 9.51794 27.8116 9.32831 27.8045 9.03106C27.9467 9.03106 28.0889 9.03106 28.2312 9.03106C27.8127 9.82838 27.2438 10.4921 26.5245 11.0222C25.8745 10.9682 25.2581 11.0631 24.6756 11.3066C24.7188 11.2142 24.7662 11.1194 24.8178 11.0222C24.4391 10.7663 24.1073 10.4819 23.8223 10.1688C24.0175 10.1911 24.2073 10.1674 24.3912 10.0977C24.7527 9.72285 25.1556 9.4147 25.6 9.17328C26.0001 9.35498 26.3794 9.30758 26.7378 9.03106C26.9795 9.01493 27.1454 9.10973 27.2356 9.3155Z"
            fill="#C4C4D5" />
        <path fill-rule="evenodd" clip-rule="evenodd"
            d="M27.2354 15.1466C26.2832 15.0267 25.6195 14.5289 25.2443 13.6532C25.5037 13.3472 25.5511 12.9917 25.3865 12.5866C25.2443 12.5866 25.1021 12.5866 24.9599 12.5866C24.9599 12.8236 24.9599 13.0606 24.9599 13.2977C24.3041 13.4378 23.6403 13.5326 22.9688 13.5821C23.1088 13.0472 23.3933 12.5968 23.8221 12.231C24.3469 11.9411 24.8684 11.6566 25.3865 11.3777C25.751 11.2242 26.1302 11.1531 26.5243 11.1643C26.5328 11.2416 26.5802 11.289 26.6665 11.3066C27.0773 10.8853 27.2668 10.9801 27.2354 11.591C27.808 11.5629 28.1162 11.2785 28.1599 10.7377C28.0299 10.9018 27.9114 10.878 27.8043 10.6666C27.9342 10.3348 28.1475 10.0741 28.4443 9.88434C28.513 9.74952 28.5366 9.60729 28.5154 9.45768C28.7188 9.44641 28.9085 9.49383 29.0843 9.5999C29.3688 10.1688 29.6532 10.7377 29.9376 11.3066C30.3881 11.5183 30.8147 11.7553 31.2176 12.0177C31.0394 12.3342 30.7786 12.5239 30.4354 12.5866C30.1476 12.4425 29.8869 12.2529 29.6532 12.0177C29.2261 12.1009 28.7994 12.1957 28.3732 12.3021C28.0279 12.7359 27.6012 13.0677 27.0932 13.2977C25.9691 12.4496 25.566 12.7341 25.8843 14.151C26.1022 14.4443 26.3866 14.634 26.7376 14.7199C27.6029 14.5575 28.48 14.5337 29.3688 14.6488C29.4878 14.7926 29.5352 14.9585 29.511 15.1466C28.7525 15.1466 27.9939 15.1466 27.2354 15.1466Z"
            fill="#2F3EAC" />
        <path fill-rule="evenodd" clip-rule="evenodd"
            d="M26.5246 11.0225C26.5246 11.0699 26.5246 11.1173 26.5246 11.1647C26.1305 11.1534 25.7514 11.2245 25.3868 11.378C24.8687 11.657 24.3472 11.9414 23.8224 12.2314C23.3936 12.5972 23.1092 13.0475 22.9691 13.5825C22.6606 13.4997 22.3288 13.4997 21.9735 13.5825C21.9947 13.7321 21.9711 13.8743 21.9024 14.0091C21.6022 14.237 21.3888 14.5214 21.2624 14.8625C21.482 15.2687 21.6242 15.6953 21.6891 16.1425C21.064 15.7334 20.8033 15.1646 20.9068 14.4358C22.0196 13.1874 23.2758 12.1444 24.6757 11.3069C25.2583 11.0634 25.8747 10.9685 26.5246 11.0225Z"
            fill="#656CB7" />
        <path fill-rule="evenodd" clip-rule="evenodd"
            d="M15.0042 11.3063C13.2381 11.4315 11.7211 12.0952 10.4531 13.2974C11.4181 11.3506 12.9351 10.6869 15.0042 11.3063Z"
            fill="#BC9E94" />
        <path fill-rule="evenodd" clip-rule="evenodd"
            d="M15.0043 11.3066C16.2044 11.6061 16.9155 12.3646 17.1377 13.5822C16.6767 13.3533 16.416 12.974 16.3554 12.4444C15.7507 11.8247 15.0158 11.6114 14.151 11.8044C12.4106 12.485 10.7514 13.3146 9.17321 14.2933C9.03588 14.563 8.98848 14.8474 9.03099 15.1466C8.69786 14.8882 8.53193 14.5564 8.53321 14.1511C9.15996 13.8498 9.79996 13.5654 10.4532 13.2978C11.7212 12.0955 13.2382 11.4318 15.0043 11.3066Z"
            fill="#926C5E" />
        <path fill-rule="evenodd" clip-rule="evenodd"
            d="M31.7869 11.3064C31.7869 11.5908 31.7869 11.8753 31.7869 12.1597C31.6372 12.1384 31.495 12.1621 31.3602 12.2308C31.1136 12.6148 30.7816 12.8993 30.3646 13.0841C30.2456 13.228 30.1982 13.3939 30.2224 13.5819C30.1275 13.5819 30.0328 13.5819 29.938 13.5819C29.1125 13.5282 28.3067 13.623 27.5202 13.8664C27.2141 13.6432 26.8822 13.5721 26.5246 13.653C26.708 13.9093 26.945 14.0753 27.2357 14.1508C27.5547 14.3374 27.9341 14.4321 28.3735 14.4353C29.5985 14.4281 30.7836 14.2859 31.9291 14.0086C31.9291 14.3879 31.9291 14.7671 31.9291 15.1464C30.4052 15.4705 28.8407 15.6127 27.2357 15.573C27.2357 15.4308 27.2357 15.2886 27.2357 15.1464C27.9942 15.1464 28.7528 15.1464 29.5113 15.1464C29.5355 14.9583 29.4881 14.7924 29.3691 14.6486C28.4803 14.5335 27.6032 14.5573 26.738 14.7197C26.387 14.6338 26.1025 14.4441 25.8846 14.1508C25.5663 12.7339 25.9694 12.4494 27.0935 13.2975C27.6015 13.0675 28.0282 12.7357 28.3735 12.3019C28.7998 12.1955 29.2264 12.1007 29.6535 12.0175C29.8872 12.2527 30.1479 12.4423 30.4357 12.5864C30.7789 12.5237 31.0398 12.334 31.218 12.0175C30.8151 11.7551 30.3884 11.5181 29.938 11.3064C29.6535 10.7375 29.3691 10.1686 29.0846 9.5997C28.9088 9.49363 28.7191 9.44621 28.5157 9.45747C28.5369 9.60709 28.5133 9.74931 28.4446 9.88414C28.1478 10.0739 27.9345 10.3346 27.8046 10.6664C27.9117 10.8778 28.0302 10.9016 28.1602 10.7375C28.1165 11.2783 27.8083 11.5627 27.2357 11.5908C27.2672 10.9799 27.0776 10.8851 26.6669 11.3064C26.5805 11.2888 26.5332 11.2414 26.5246 11.1641C26.5246 11.1167 26.5246 11.0693 26.5246 11.0219C27.244 10.4918 27.8129 9.82813 28.2313 9.03081C28.2787 9.03081 28.3262 9.03081 28.3735 9.03081C28.577 8.89629 28.7666 8.73036 28.9424 8.53303C29.1795 8.43821 29.4164 8.43821 29.6535 8.53303C29.8262 8.81447 30.0633 9.02781 30.3646 9.17303C30.7378 9.97148 31.2119 10.6826 31.7869 11.3064Z"
            fill="#313FA3" />
        <path fill-rule="evenodd" clip-rule="evenodd"
            d="M31.7869 12.1599C31.4497 12.8287 30.9281 13.3027 30.2224 13.5821C30.1983 13.3941 30.2456 13.2282 30.3647 13.0843C30.7817 12.8995 31.1136 12.615 31.3602 12.231C31.495 12.1623 31.6373 12.1386 31.7869 12.1599Z"
            fill="#44477E" />
        <path fill-rule="evenodd" clip-rule="evenodd"
            d="M27.2355 15.1469C27.2355 15.2891 27.2355 15.4314 27.2355 15.5736C27.2355 16.4269 27.2355 17.2802 27.2355 18.1336C26.4771 18.1336 25.7185 18.1336 24.96 18.1336C24.9587 18.7983 24.7927 19.4146 24.4622 19.9825C24.4227 19.8522 24.3516 19.7575 24.2489 19.698C23.5732 18.3975 22.7198 17.2124 21.6889 16.1425C21.624 15.6953 21.4818 15.2687 21.2622 14.8625C21.3886 14.5214 21.602 14.237 21.9022 14.0091C21.9709 13.8743 21.9945 13.7321 21.9733 13.5825C22.3286 13.4997 22.6604 13.4997 22.9689 13.5825C23.6404 13.5329 24.3042 13.4381 24.96 13.298C24.96 13.061 24.96 12.824 24.96 12.5869C25.1022 12.5869 25.2444 12.5869 25.3867 12.5869C25.5512 12.992 25.5038 13.3476 25.2444 13.6536C25.6196 14.5292 26.2834 15.027 27.2355 15.1469Z"
            fill="#2F43BA" />
        <path fill-rule="evenodd" clip-rule="evenodd"
            d="M17.1379 13.5819C17.1852 13.6767 17.2327 13.7715 17.2801 13.8664C16.8856 13.6925 16.5062 13.4791 16.1423 13.2264C15.8105 13.1315 15.4785 13.1315 15.1467 13.2264C14.8321 13.6418 14.5715 14.0922 14.3645 14.5775C13.9823 14.8426 13.6267 15.127 13.2979 15.4308C12.4514 15.9191 11.5507 16.2982 10.5956 16.5686C9.89635 16.2962 9.37487 15.8222 9.03119 15.1464C8.98868 14.8471 9.03608 14.5627 9.17341 14.293C10.7515 13.3143 12.4108 12.4847 14.1512 11.8041C15.016 11.6111 15.7509 11.8244 16.3556 12.4441C16.4162 12.9737 16.6769 13.353 17.1379 13.5819Z"
            fill="#7A4B3A" />
        <path fill-rule="evenodd" clip-rule="evenodd"
            d="M29.9377 13.582C29.6987 13.7964 29.4142 13.9386 29.0844 14.0086C28.4821 14.1418 27.8657 14.1892 27.2355 14.1509C26.9448 14.0753 26.7077 13.9094 26.5244 13.6531C26.882 13.5722 27.2139 13.6433 27.52 13.8664C28.3065 13.623 29.1123 13.5282 29.9377 13.582Z"
            fill="#2B3172" />
        <path fill-rule="evenodd" clip-rule="evenodd"
            d="M31.9287 13.8663C31.9287 13.9137 31.9287 13.9611 31.9287 14.0085C30.7832 14.2858 29.5981 14.428 28.3731 14.4351C27.9337 14.432 27.5544 14.3373 27.2354 14.1507C27.8655 14.189 28.4819 14.1416 29.0842 14.0085C29.2192 14.1013 29.385 14.1487 29.582 14.1507C30.3476 13.9295 31.1298 13.8347 31.9287 13.8663Z"
            fill="#5E68A1" />
        <path fill-rule="evenodd" clip-rule="evenodd"
            d="M17.5647 14.293C17.7069 14.3878 17.8491 14.4826 17.9913 14.5774C17.9997 14.8995 17.8813 14.9469 17.6358 14.7196C17.4852 14.7381 17.3667 14.8092 17.2802 14.933C17.4667 15.2564 17.4667 15.5644 17.2802 15.8574C17.3348 15.5495 17.24 15.3124 16.9958 15.1463C16.791 15.3528 16.554 15.495 16.2847 15.573C16.6946 15.1117 17.1212 14.6851 17.5647 14.293Z"
            fill="#6C5243" />
        <path fill-rule="evenodd" clip-rule="evenodd"
            d="M31.929 15.1465C31.929 16.9005 31.929 18.6547 31.929 20.4087C31.123 20.4087 30.3172 20.4087 29.5112 20.4087C29.5112 20.6458 29.5112 20.8827 29.5112 21.1198C28.7528 21.1198 27.9941 21.1198 27.2357 21.1198C27.2357 21.6413 27.2357 22.1627 27.2357 22.6843C27.0934 22.6843 26.9512 22.6843 26.809 22.6843C26.8343 23.1788 26.9292 23.6528 27.0934 24.1065C27.0455 24.4871 26.9982 24.8664 26.9512 25.2443C26.8504 25.3728 26.7082 25.4202 26.5246 25.3865C26.7247 24.8931 26.6773 24.4189 26.3823 23.9643C26.2438 24.2833 26.1963 24.6151 26.2401 24.9598C26.0979 24.9598 25.9557 24.9598 25.8134 24.9598C25.8369 24.5306 25.8132 24.1039 25.7423 23.6798C25.5053 23.4902 25.2683 23.4902 25.0312 23.6798C24.9604 24.1039 24.9366 24.5306 24.9601 24.9598C24.9601 25.102 24.9601 25.2443 24.9601 25.3865C24.9601 25.4813 24.9601 25.5761 24.9601 25.6709C24.9601 25.7183 24.9601 25.7658 24.9601 25.8132C24.5821 25.9626 24.2265 26.1524 23.8934 26.382C23.8461 26.3347 23.7986 26.2872 23.7512 26.2398C23.707 26.5322 23.6359 26.8167 23.5379 27.0932C23.1215 27.2331 22.6948 27.2805 22.2579 27.2354C22.1171 26.419 22.1407 25.613 22.329 24.8176C22.529 24.6515 22.6948 24.6988 22.8268 24.9598C22.9431 24.589 23.0142 24.2097 23.0401 23.822C23.491 23.4412 23.7517 22.967 23.8223 22.3998C23.8748 22.1238 23.9697 21.8629 24.1068 21.6176C23.972 21.5489 23.8297 21.5253 23.6801 21.5465C23.6801 21.4043 23.6801 21.262 23.6801 21.1198C23.8681 21.0956 24.0341 21.143 24.1779 21.262C24.2489 20.7426 24.2725 20.2213 24.249 19.6976C24.3517 19.757 24.4228 19.8518 24.4623 19.982C24.7929 19.4141 24.9588 18.7979 24.9601 18.1332C25.7186 18.1332 26.4772 18.1332 27.2357 18.1332C27.2357 17.2798 27.2357 16.4265 27.2357 15.5732C28.8406 15.6128 30.4051 15.4706 31.929 15.1465Z"
            fill="#2C40B0" />
        <path fill-rule="evenodd" clip-rule="evenodd"
            d="M17.2801 13.8664C17.4801 13.9337 17.575 14.0759 17.5646 14.2931C17.1211 14.6852 16.6945 15.1118 16.2846 15.5731C15.6258 16.0421 15.0094 16.5635 14.4357 17.1375C14.0675 17.2682 13.783 17.5053 13.5824 17.8486C13.1629 18.0783 12.7836 18.3627 12.4446 18.7019C12.1601 18.5124 11.9231 18.2753 11.7335 17.9908C11.4303 17.5718 11.2881 17.0978 11.3068 16.5686C11.7809 16.4264 12.255 16.2842 12.729 16.1419C12.6885 16.3962 12.7359 16.6333 12.8713 16.8531C13.1256 16.5835 13.41 16.3465 13.7246 16.1419C13.451 16.027 13.1666 15.9559 12.8713 15.9286C13.0434 15.7808 13.1856 15.6149 13.2979 15.4308C13.6268 15.127 13.9823 14.8426 14.3646 14.5775C14.5715 14.0922 14.8322 13.6418 15.1468 13.2264C15.4786 13.1316 15.8106 13.1316 16.1424 13.2264C16.5063 13.4792 16.8856 13.6925 17.2801 13.8664Z"
            fill="#EBC3AB" />
        <path fill-rule="evenodd" clip-rule="evenodd"
            d="M15.2889 14.1507C15.5432 14.1102 15.7803 14.1576 16 14.293C15.6819 14.3829 15.4449 14.5724 15.2889 14.8619C15.1231 14.6248 15.1231 14.3877 15.2889 14.1507Z"
            fill="#794D34" />
        <path fill-rule="evenodd" clip-rule="evenodd"
            d="M17.2798 15.8576C16.8881 16.403 16.3667 16.5452 15.7153 16.2843C15.8814 15.862 16.071 15.8146 16.2842 16.142C16.3316 16.0947 16.3791 16.0472 16.4264 15.9998C16.3373 15.8694 16.2898 15.7272 16.2842 15.5732C16.5536 15.4952 16.7905 15.353 16.9953 15.1465C17.2395 15.3126 17.3344 15.5497 17.2798 15.8576Z"
            fill="#D2B8A8" />
        <path fill-rule="evenodd" clip-rule="evenodd"
            d="M13.2977 15.4307C13.1853 15.6147 13.0431 15.7807 12.871 15.9284C13.1663 15.9557 13.4508 16.0269 13.7243 16.1418C13.4098 16.3463 13.1253 16.5834 12.871 16.8529C12.7356 16.6332 12.6882 16.3961 12.7288 16.1418C12.2547 16.284 11.7806 16.4262 11.3065 16.5684C11.2878 17.0977 11.4301 17.5717 11.7332 17.9907C11.3774 17.6574 11.0218 17.3255 10.6665 16.9951C10.5979 16.8603 10.5742 16.7181 10.5954 16.5684C11.5505 16.2981 12.4512 15.9189 13.2977 15.4307Z"
            fill="#916C5C" />
        <path fill-rule="evenodd" clip-rule="evenodd"
            d="M17.9909 14.5781C18.0936 14.6376 18.1647 14.7323 18.2042 14.8626C18.6017 14.6801 19.0046 14.6801 19.4131 14.8626C19.4824 14.9971 19.5297 15.1393 19.5553 15.2892C19.3758 15.6479 19.281 16.0272 19.2709 16.427C19.0381 16.1687 18.8247 15.8843 18.6309 15.5737C18.5952 15.8486 18.5241 16.1093 18.4175 16.3559C16.6116 17.1664 15.3316 18.4939 14.5775 20.3381C14.2931 20.2908 14.0086 20.2433 13.7242 20.1959C14.0413 20.5372 14.3732 20.8454 14.7198 21.1203C13.6668 21.546 12.9557 21.2378 12.5864 20.1959C12.703 19.9399 12.7978 19.6791 12.8709 19.4137C12.7801 19.1349 12.7801 18.8742 12.8709 18.6315C13.3858 18.6891 13.9073 18.6891 14.4353 18.6315C14.7092 18.5714 14.8515 18.4055 14.862 18.1337C15.0789 17.6715 15.2211 17.1737 15.2886 16.6403C15.9793 16.8214 16.6193 16.7029 17.2086 16.2848C17.2773 16.15 17.301 16.0077 17.2798 15.8581C17.4662 15.5651 17.4662 15.2571 17.2798 14.9337C17.3662 14.8099 17.4847 14.7388 17.6353 14.7203C17.8808 14.9476 17.9993 14.9003 17.9909 14.5781Z"
            fill="#E4BCA5" />
        <path fill-rule="evenodd" clip-rule="evenodd"
            d="M14.4354 17.1377C14.4294 17.3718 14.4294 17.6087 14.4354 17.8488C14.2963 17.781 14.1778 17.6862 14.0798 17.5644C13.9638 17.7525 13.7978 17.8472 13.582 17.8488C13.7827 17.5055 14.0671 17.2684 14.4354 17.1377Z"
            fill="#614535" />
        <path fill-rule="evenodd" clip-rule="evenodd"
            d="M16.2844 15.5732C16.29 15.7273 16.3375 15.8695 16.4267 15.9999C16.3793 16.0473 16.3318 16.0948 16.2844 16.1421C16.0712 15.8147 15.8817 15.8621 15.7155 16.2844C16.3669 16.5453 16.8883 16.4031 17.28 15.8577C17.3012 16.0073 17.2776 16.1495 17.2089 16.2844C16.6195 16.7025 15.9795 16.821 15.2889 16.6399C15.2213 17.1732 15.0791 17.671 14.8622 18.1332C14.8622 17.8014 14.8622 17.4695 14.8622 17.1377C14.72 17.1377 14.5778 17.1377 14.4355 17.1377C15.0093 16.5637 15.6257 16.0423 16.2844 15.5732Z"
            fill="#684C3C" />
        <path fill-rule="evenodd" clip-rule="evenodd"
            d="M14.4356 17.1377C14.5779 17.1377 14.7201 17.1377 14.8623 17.1377C14.8623 17.4695 14.8623 17.8014 14.8623 18.1333C14.3568 18.606 13.8354 18.6535 13.2979 18.2755C13.456 18.1667 13.5508 18.0245 13.5823 17.8488C13.7981 17.8472 13.964 17.7525 14.0801 17.5644C14.1781 17.6862 14.2965 17.781 14.4356 17.8488C14.4297 17.6087 14.4297 17.3718 14.4356 17.1377Z"
            fill="#CBB0A0" />
        <path fill-rule="evenodd" clip-rule="evenodd"
            d="M19.2713 16.4266C19.358 16.5533 19.4054 16.6955 19.4135 16.8532C19.6908 18.3119 19.4064 19.6392 18.5602 20.8355C17.7647 21.7932 16.7692 22.0776 15.5735 21.6888C15.2504 21.555 14.9659 21.3654 14.7202 21.1199C14.3736 20.845 14.0417 20.5368 13.7246 20.1955C14.0091 20.2428 14.2935 20.2903 14.5779 20.3377C15.332 18.4935 16.612 17.166 18.4179 16.3555C18.5245 16.1089 18.5956 15.8482 18.6313 15.5732C18.8251 15.8839 19.0385 16.1683 19.2713 16.4266Z"
            fill="#794A38" />
        <path fill-rule="evenodd" clip-rule="evenodd"
            d="M13.5821 17.8486C13.5506 18.0243 13.4558 18.1665 13.2977 18.2753C13.8352 18.6533 14.3567 18.6058 14.8621 18.1331C14.8516 18.4049 14.7094 18.5708 14.4354 18.6309C13.9074 18.6885 13.3859 18.6885 12.871 18.6309C12.7802 18.8736 12.7802 19.1343 12.871 19.4131C12.6221 19.2482 12.4798 19.0112 12.4443 18.702C12.7834 18.3628 13.1626 18.0783 13.5821 17.8486Z"
            fill="#604639" />
        <path fill-rule="evenodd" clip-rule="evenodd"
            d="M17.4222 17.1379C18.3509 17.1014 18.6591 17.528 18.3467 18.4179C17.979 19.8223 17.1021 20.3201 15.7156 19.9112C15.4971 19.6838 15.426 19.423 15.5022 19.129C16.1751 18.4802 16.8151 17.8164 17.4222 17.1379Z"
            fill="#DFB1A1" />
        <path fill-rule="evenodd" clip-rule="evenodd"
            d="M15.7154 19.4131C16.6646 19.3639 17.281 18.8898 17.5643 17.9909C17.8537 17.2319 18.0433 17.2792 18.1331 18.1331C17.9592 19.5003 17.2006 20.0218 15.8576 19.6976C15.7441 19.6326 15.6967 19.5377 15.7154 19.4131Z"
            fill="#80392A" />
        <path fill-rule="evenodd" clip-rule="evenodd"
            d="M17.5642 17.9908C17.2809 18.8896 16.6645 19.3638 15.7153 19.413C16.0001 19.0099 16.3556 18.6781 16.782 18.4174C17.0076 18.1088 17.1973 17.7769 17.3509 17.4219C17.5198 17.5731 17.591 17.7628 17.5642 17.9908Z"
            fill="#EEE3D5" />
        <path fill-rule="evenodd" clip-rule="evenodd"
            d="M19.4132 16.8535C19.6542 16.9262 19.8912 17.0211 20.1243 17.138C20.3388 17.8448 20.6943 18.4612 21.1909 18.9868C21.2606 19.1707 21.2844 19.3605 21.2621 19.5557C21.8108 19.5941 22.2848 19.7837 22.6843 20.1246C22.7708 20.3095 22.8656 20.4991 22.9687 20.6935C22.9214 20.7884 22.8739 20.8831 22.8265 20.978C21.5151 21.1533 20.7091 21.8644 20.4087 23.1113C20.0894 22.8466 19.7101 22.7044 19.2709 22.6846C19.3209 22.3477 19.3446 22.0158 19.3421 21.6891C19.2947 21.7364 19.2472 21.7839 19.1998 21.8313C19.1525 21.6891 19.105 21.5468 19.0576 21.4046C18.7969 21.4284 18.5361 21.452 18.2754 21.4757C18.4293 21.2866 18.5241 21.0732 18.5598 20.8357C19.4061 19.6395 19.6905 18.3121 19.4132 16.8535Z"
            fill="#F7C9AC" />
        <path fill-rule="evenodd" clip-rule="evenodd"
            d="M31.9291 20.4092C31.9291 21.9263 31.9291 23.4432 31.9291 24.9603C30.9418 24.9064 29.9698 25.0011 29.0135 25.2447C28.6088 25.082 28.1821 24.9872 27.7335 24.9603C27.4319 24.9885 27.1712 25.0832 26.9513 25.2447C26.9982 24.8669 27.0456 24.4875 27.0935 24.107C26.9293 23.6533 26.8344 23.1792 26.8091 22.6847C26.9513 22.6847 27.0935 22.6847 27.2357 22.6847C27.2357 22.1632 27.2357 21.6418 27.2357 21.1203C27.9942 21.1203 28.7528 21.1203 29.5113 21.1203C29.5113 20.8832 29.5113 20.6463 29.5113 20.4092C30.3173 20.4092 31.1231 20.4092 31.9291 20.4092Z"
            fill="#2A3CA4" />
        <path fill-rule="evenodd" clip-rule="evenodd"
            d="M22.6844 20.124C23.6159 20.4554 23.6159 20.8583 22.6844 21.3329C22.2577 21.4751 21.831 21.6174 21.4044 21.7596C20.9299 22.4903 20.4321 23.225 19.911 23.964C19.7189 24.1788 19.4818 24.321 19.1999 24.3907C18.802 23.9876 18.3516 23.6321 17.8488 23.324C16.9454 22.9636 16.1868 22.4184 15.5732 21.6885C16.7689 22.0773 17.7645 21.7929 18.5599 20.8351C18.5242 21.0726 18.4293 21.286 18.2755 21.4751C18.5362 21.4514 18.797 21.4278 19.0577 21.404C19.105 21.5462 19.1525 21.6885 19.1999 21.8307C19.2473 21.7833 19.2948 21.7358 19.3421 21.6885C19.3447 22.0152 19.3209 22.3471 19.271 22.684C19.7102 22.7038 20.0895 22.846 20.4088 23.1107C20.7092 21.8638 21.5151 21.1527 22.8266 20.9774C22.8739 20.8825 22.9214 20.7878 22.9688 20.6929C22.8657 20.4985 22.7708 20.3089 22.6844 20.124Z"
            fill="#D9B29B" />
        <path fill-rule="evenodd" clip-rule="evenodd"
            d="M24.96 25.3871C24.96 25.2448 24.96 25.1026 24.96 24.9604C25.0073 24.9604 25.0548 24.9604 25.1022 24.9604C25.1968 24.6478 25.2916 24.316 25.3866 23.9648C25.6593 24.5858 25.517 25.06 24.96 25.3871Z"
            fill="#D4DC83" />
        <path fill-rule="evenodd" clip-rule="evenodd"
            d="M24.96 25.6712C24.96 25.5763 24.96 25.4816 24.96 25.3867C25.517 25.0596 25.6593 24.5854 25.3866 23.9645C25.2916 24.3156 25.1968 24.6474 25.1022 24.96C25.1022 24.5807 25.1022 24.2016 25.1022 23.8223C25.2918 23.8223 25.4815 23.8223 25.6711 23.8223C25.6711 24.4385 25.6711 25.0549 25.6711 25.6712C25.434 25.6712 25.197 25.6712 24.96 25.6712Z"
            fill="#C1C5AA" />
        <path fill-rule="evenodd" clip-rule="evenodd"
            d="M23.5379 22.6846C23.3609 23.1805 23.0764 23.6072 22.6846 23.9646C21.8786 24.6757 21.1201 25.4342 20.409 26.2401C19.9939 26.0392 19.6383 25.7547 19.3424 25.3868C19.1828 25.1137 19.0642 24.8293 18.9868 24.5335C19.3988 24.5592 19.8017 24.5118 20.1957 24.3912C20.2668 24.415 20.3379 24.4386 20.409 24.4623C20.2212 24.6821 20.2685 24.8479 20.5513 24.9601C20.6727 24.8148 20.8149 24.6963 20.9779 24.6046C20.863 24.5608 20.7681 24.4897 20.6935 24.3912C21.1136 24.2992 21.5403 24.2755 21.9735 24.3201C22.4374 23.9515 22.793 23.5011 23.0401 22.969C23.1562 22.7809 23.3222 22.6861 23.5379 22.6846Z"
            fill="#D3D4DA" />
        <path fill-rule="evenodd" clip-rule="evenodd"
            d="M26.9512 25.2448C27.1711 25.0833 27.4318 24.9886 27.7334 24.9604C28.182 24.9873 28.6087 25.0821 29.0134 25.2448C29.9697 25.0012 30.9417 24.9065 31.929 24.9604C31.929 25.3397 31.929 25.7189 31.929 26.0982C30.74 26.1453 29.5549 26.0979 28.3734 25.956C27.918 25.8782 27.4914 25.7359 27.0934 25.5293C26.7141 25.6242 26.335 25.7189 25.9556 25.8137C25.8183 25.5441 25.7709 25.2596 25.8134 24.9604C25.9556 24.9604 26.0979 24.9604 26.2401 24.9604C26.1963 24.6157 26.2438 24.2838 26.3823 23.9648C26.6773 24.4195 26.7246 24.8937 26.5245 25.3871C26.7081 25.4208 26.8504 25.3734 26.9512 25.2448Z"
            fill="#384293" />
        <path fill-rule="evenodd" clip-rule="evenodd"
            d="M23.8223 22.4004C23.7517 22.9676 23.491 23.4417 23.0401 23.8226C23.0142 24.2103 22.9431 24.5896 22.8268 24.9604C22.6948 24.6994 22.529 24.6521 22.329 24.8182C22.1407 25.6136 22.1171 26.4196 22.2579 27.2359C21.5959 27.3328 21.2165 27.0484 21.1201 26.3826C21.5395 25.4934 22.0611 24.6875 22.6846 23.9648C23.0764 23.6074 23.3608 23.1808 23.5379 22.6848C23.6328 22.59 23.7275 22.4953 23.8223 22.4004Z"
            fill="#33429D" />
        <path fill-rule="evenodd" clip-rule="evenodd"
            d="M22.6842 23.9648C22.0607 24.6875 21.5392 25.4934 21.1198 26.3826C21.2162 27.0484 21.5955 27.3328 22.2576 27.236C22.1981 27.3386 22.1034 27.4098 21.9731 27.4493C22.2072 28.0431 22.6339 28.446 23.2531 28.6582C23.5569 28.8671 23.7466 29.1515 23.822 29.5115C22.2552 28.8701 21.1174 27.7797 20.4087 26.2404C21.1198 25.4344 21.8783 24.676 22.6842 23.9648Z"
            fill="#565C97" />
        <path fill-rule="evenodd" clip-rule="evenodd"
            d="M31.9289 26.6665C31.9289 26.7138 31.9289 26.7613 31.9289 26.8087C30.3058 26.8443 28.694 26.7495 27.0934 26.5243C26.9985 26.7613 26.9038 26.9983 26.8089 27.2354C26.6768 27.0663 26.6295 26.8767 26.6667 26.6665C26.1974 26.894 25.7707 26.8467 25.3867 26.5243C25.6338 26.167 25.9893 26.0248 26.4534 26.0976C28.2637 26.421 30.0889 26.6107 31.9289 26.6665Z"
            fill="#272E6F" />
        <path fill-rule="evenodd" clip-rule="evenodd"
            d="M25.8134 24.9603C25.7708 25.2595 25.8182 25.544 25.9556 25.8136C26.3349 25.7187 26.7141 25.624 27.0934 25.5292C27.4913 25.7358 27.918 25.878 28.3734 25.9558C29.5548 26.0978 30.74 26.1451 31.9289 26.0981C31.9289 26.2876 31.9289 26.4774 31.9289 26.6669C30.0889 26.6112 28.2637 26.4215 26.4534 26.0981C25.9893 26.0252 25.6337 26.1675 25.3867 26.5247C25.2918 26.5247 25.2445 26.5721 25.2445 26.6669C24.9873 26.4653 24.8925 26.1808 24.96 25.8136C24.96 25.7662 24.96 25.7187 24.96 25.6714C25.1971 25.6714 25.4341 25.6714 25.6712 25.6714C25.6712 25.0551 25.6712 24.4387 25.6712 23.8225C25.4816 23.8225 25.2918 23.8225 25.1023 23.8225C25.1023 24.2018 25.1023 24.581 25.1023 24.9603C25.0549 24.9603 25.0074 24.9603 24.96 24.9603C24.9366 24.531 24.9603 24.1044 25.0312 23.6803C25.2682 23.4907 25.5052 23.4907 25.7423 23.6803C25.8131 24.1044 25.8368 24.531 25.8134 24.9603Z"
            fill="#4B5189" />
        <path fill-rule="evenodd" clip-rule="evenodd"
            d="M25.3868 26.5244C25.7708 26.8468 26.1975 26.8942 26.6668 26.6666C26.6296 26.8768 26.6769 27.0664 26.8091 27.2355C26.9039 26.9984 26.9986 26.7615 27.0935 26.5244C28.6941 26.7497 30.3059 26.8444 31.9291 26.8089C31.9291 28.1837 31.9291 29.5584 31.9291 30.9333C31.692 30.9333 31.455 30.9333 31.218 30.9333C29.9021 30.62 28.5748 30.3118 27.2357 30.0089C26.9366 29.652 26.5811 29.3438 26.1691 29.0844C26.1217 29.1318 26.0742 29.1793 26.0268 29.2266C25.9673 29.06 25.8725 28.9177 25.7424 28.8C25.4996 28.8907 25.2389 28.8907 24.9602 28.8C25.0095 28.1894 24.7724 28.0472 24.2491 28.3733C23.9951 28.3454 23.8055 28.227 23.6802 28.0177C23.8753 27.8411 24.0175 27.6278 24.1068 27.3777C24.4258 27.2392 24.7577 27.1917 25.1024 27.2355C25.0929 27.028 25.1402 26.8384 25.2446 26.6666C25.2446 26.5718 25.292 26.5244 25.3868 26.5244Z"
            fill="#2A399E" />
        <path fill-rule="evenodd" clip-rule="evenodd"
            d="M24.9598 25.8135C24.8923 26.1807 24.9871 26.4651 25.2443 26.6668C25.1399 26.8386 25.0925 27.0282 25.102 27.2357C24.7573 27.1919 24.4255 27.2394 24.1065 27.3779C24.0172 27.6279 23.8749 27.8413 23.6798 28.0179C23.8051 28.2271 23.9947 28.3456 24.2487 28.3735C24.7721 28.0474 25.0092 28.1896 24.9598 28.8001C25.2386 28.8909 25.4993 28.8909 25.742 28.8001C25.8722 28.9179 25.9669 29.0601 26.0265 29.2268C26.0738 29.1794 26.1213 29.1319 26.1687 29.0846C26.5807 29.344 26.9363 29.6522 27.2354 30.009C28.5744 30.312 29.9017 30.6202 31.2176 30.9335C29.3265 30.876 27.5249 30.4731 25.8131 29.7246C25.1564 29.5832 24.4926 29.5121 23.822 29.5113C23.7467 29.1513 23.5569 28.8668 23.2531 28.6579C22.6339 28.4457 22.2072 28.0428 21.9731 27.449C22.1034 27.4095 22.1981 27.3384 22.2576 27.2357C22.6945 27.2808 23.1212 27.2334 23.5376 27.0935C23.6356 26.817 23.7067 26.5326 23.7509 26.2401C23.7983 26.2875 23.8458 26.335 23.8931 26.3824C24.2262 26.1527 24.5818 25.963 24.9598 25.8135Z"
            fill="#354399" />
        <path fill-rule="evenodd" clip-rule="evenodd"
            d="M23.8223 29.5107C24.4928 29.5116 25.1566 29.5827 25.8134 29.7241C27.5252 30.4726 29.3267 30.8755 31.2178 30.933C31.4549 30.933 31.6918 30.933 31.9289 30.933C31.9289 31.0752 31.9289 31.2174 31.9289 31.3596C30.0668 31.1328 28.2179 30.8246 26.3823 30.4352C25.4807 30.222 24.6274 29.9138 23.8223 29.5107Z"
            fill="#5F6393" />
    </g>
    <defs>
        <clipPath id="clip0_3868_274">
            <rect width="32" height="32" fill="white" />
        </clipPath>
    </defs>
</svg>