<svg width="32" height="32" viewBox="0 0 32 32" fill="none" xmlns="http://www.w3.org/2000/svg">
    <path fill-rule="evenodd" clip-rule="evenodd"
        d="M25.653 19.4182C23.7408 22.8713 21.4476 24.8129 16.4883 25.3732C11.0237 25.9967 6.5074 22.3701 4.72343 19.6628C6.99847 20.4802 9.4222 20.782 11.8243 20.5468C16.2785 20.1325 18.8203 18.3447 20.6432 15.4165C20.9191 14.9785 21.6653 13.6052 20.3595 13.1435C19.1623 12.7212 18.0624 12.7094 17.2073 13.984C15.8198 16.0637 14.1952 16.8609 10.7944 17.2398C6.26254 17.733 0.821234 14.6865 0.191598 15.3219C-0.935531 16.4583 2.72181 28.9525 16.2007 28.7987C21.0551 28.7433 24.4637 27.0623 27.6547 22.8791C28.432 21.8649 28.191 20.6337 27.3398 19.4774C26.8151 18.763 26.0689 18.7118 25.6686 19.4339"
        fill="#00D075" />
    <path fill-rule="evenodd" clip-rule="evenodd"
        d="M29.1972 11.9234C31.0045 7.14042 29.2594 4.12935 28.5909 4.27142C28.0468 4.39376 27.0363 7.539 25.5981 9.37011C20.7632 7.12068 17.7277 9.1649 17.7976 10.2501C17.856 11.1539 21.8359 10.5027 25.571 13.8019C29.5392 17.2944 29.6558 21.0789 30.7908 21.0632C31.7002 21.0632 33.6319 17.3812 29.1972 11.9234Z"
        fill="#00D075" />
</svg>