<svg width="32" height="32" viewBox="0 0 32 32" fill="none" xmlns="http://www.w3.org/2000/svg">
    <g clip-path="url(#clip0_3707_45)">
        <path fill-rule="evenodd" clip-rule="evenodd"
            d="M22.8267 14.4356C22.404 11.6655 20.8396 9.88775 18.1334 9.10231C16.5697 9.03123 15.0052 9.00752 13.4401 9.0312C11.9704 9.0312 10.5008 9.0312 9.03117 9.0312C6.12413 6.33889 3.23227 3.51816 0.355611 0.568978C0.271072 0.502939 0.176256 0.479235 0.071167 0.497867C0.071167 0.45046 0.071167 0.403052 0.071167 0.355645C10.5945 0.0716342 21.1664 -0.0231807 31.7867 0.0712004C31.8105 4.71737 31.7867 9.36329 31.7156 14.009C28.8824 15.7222 26.0142 17.3814 23.1112 18.9868C23.0163 17.4471 22.9216 15.9301 22.8267 14.4356Z"
            fill="#0B60F7" />
        <path fill-rule="evenodd" clip-rule="evenodd"
            d="M0.071167 0.497849C0.176256 0.479217 0.271072 0.502921 0.355611 0.568961C3.23227 3.51814 6.12413 6.33887 9.03117 9.03118C9.03117 9.60007 9.03117 10.169 9.03117 10.7378C10.7698 11.0865 11.315 12.0821 10.6667 13.7245C10.2465 14.2546 9.70133 14.539 9.03117 14.5778C9.03117 15.0994 9.03117 15.6208 9.03117 16.1423C11.2593 16.1423 13.4875 16.1423 15.7156 16.1423C15.7156 18.3705 15.7156 20.5985 15.7156 22.8267C15.8241 22.936 15.9663 23.0071 16.1423 23.0401C11.1171 25.9319 6.0919 28.8238 1.06672 31.7156C0.738215 31.7863 0.406362 31.8099 0.071167 31.7867C0.071167 21.3572 0.071167 10.9275 0.071167 0.497849Z"
            fill="#1F66F9" />
        <path fill-rule="evenodd" clip-rule="evenodd"
            d="M9.03113 9.03101C10.5008 9.03101 11.9704 9.03101 13.44 9.03101C14.5004 9.30803 15.2353 9.97173 15.6445 11.0221C15.7156 12.7281 15.7393 14.4347 15.7156 16.1421C13.4874 16.1421 11.2593 16.1421 9.03113 16.1421C9.03113 15.6206 9.03113 15.0992 9.03113 14.5777C9.70129 14.5388 10.2465 14.2544 10.6667 13.7243C11.315 12.0819 10.7698 11.0863 9.03113 10.7377C9.03113 10.1688 9.03113 9.59989 9.03113 9.03101Z"
            fill="#C0D5FD" />
        <path fill-rule="evenodd" clip-rule="evenodd"
            d="M13.4399 9.03109C15.0051 9.00741 16.5695 9.03112 18.1333 9.1022C20.8395 9.88764 22.4039 11.6654 22.8266 14.4355C22.8266 17.2326 22.8266 20.0296 22.8266 22.8266C22.3051 22.8266 21.7837 22.8266 21.2622 22.8266C20.8994 21.1749 19.9038 20.6297 18.2755 21.1911C17.6693 21.5738 17.3849 22.1189 17.4222 22.8266C16.8533 22.8266 16.2844 22.8266 15.7155 22.8266C15.7155 20.5985 15.7155 18.3704 15.7155 16.1422C15.7392 14.4348 15.7155 12.7282 15.6444 11.0222C15.2352 9.97182 14.5004 9.30811 13.4399 9.03109Z"
            fill="#FDFDFE" />
        <path fill-rule="evenodd" clip-rule="evenodd"
            d="M-0.071167 -0.0710449C10.5955 -0.0710449 21.2622 -0.0710449 31.9288 -0.0710449C31.9288 10.5956 31.9288 21.2623 31.9288 31.929C31.7866 31.929 31.6444 31.929 31.5022 31.929C28.6896 28.8555 25.7503 25.8926 22.6844 23.0401C22.7635 22.9856 22.8108 22.9145 22.8266 22.8267C22.8266 20.0296 22.8266 17.2327 22.8266 14.4356C22.9215 15.9301 23.0162 17.447 23.1111 18.9867C26.0141 17.3813 28.8823 15.7222 31.7155 14.009C31.7866 9.36327 31.8104 4.71735 31.7866 0.0711773C21.1663 -0.0232038 10.5944 0.0716111 0.0710552 0.355622C0.0236479 0.355622 -0.0237596 0.355622 -0.071167 0.355622C-0.071167 0.2134 -0.071167 0.0711773 -0.071167 -0.0710449Z"
            fill="#1365F7" />
        <path fill-rule="evenodd" clip-rule="evenodd"
            d="M-0.071167 0.355469C-0.0237596 0.355469 0.0236479 0.355469 0.0710552 0.355469C0.0710552 0.402876 0.0710552 0.450284 0.0710552 0.497691C0.0710552 10.9273 0.0710552 21.357 0.0710552 31.7866C0.40625 31.8098 0.738103 31.7862 1.06661 31.7155C6.09179 28.8237 11.117 25.9317 16.1422 23.0399C15.9662 23.0069 15.824 22.9358 15.7155 22.8266C16.2844 22.8266 16.8533 22.8266 17.4222 22.8266C17.3849 22.1189 17.6693 21.5737 18.2755 21.191C19.9038 20.6297 20.8994 21.1748 21.2622 22.8266C21.7837 22.8266 22.3051 22.8266 22.8266 22.8266C22.8108 22.9143 22.7635 22.9854 22.6844 23.0399C25.7503 25.8925 28.6896 28.8554 31.5022 31.9288C20.9777 31.9288 10.4533 31.9288 -0.071167 31.9288C-0.071167 21.4044 -0.071167 10.8799 -0.071167 0.355469Z"
            fill="#266BF9" />
    </g>
    <defs>
        <clipPath id="clip0_3707_45">
            <rect width="32" height="32" fill="white" />
        </clipPath>
    </defs>
</svg>