<svg width="32" height="32" viewBox="0 0 32 32" fill="none" xmlns="http://www.w3.org/2000/svg">
<g clip-path="url(#clip0_147_1229)">
<path fill-rule="evenodd" clip-rule="evenodd" d="M-0.071167 -0.071106C10.5955 -0.071106 21.2622 -0.071106 31.9288 -0.071106C31.9288 10.5956 31.9288 21.2622 31.9288 31.9289C21.2622 31.9289 10.5955 31.9289 -0.071167 31.9289C-0.071167 21.2622 -0.071167 10.5956 -0.071167 -0.071106Z" fill="#5778D8"/>
<path fill-rule="evenodd" clip-rule="evenodd" d="M11.1645 11.0222C12.0136 10.9168 12.867 10.8694 13.7245 10.88C14.5029 10.9416 15.2613 11.1075 16 11.3778C17.8508 11.3018 19.6997 11.3255 21.5467 11.4489C21.6495 10.6895 21.7681 9.93095 21.9023 9.17334C22.0725 8.52593 22.4754 8.21779 23.1111 8.24889C23.4488 8.53888 23.7332 8.87073 23.9645 9.24445C24.5922 9.30365 25.2086 9.42217 25.8134 9.6C26.7024 9.27231 27.5557 8.91675 28.3734 8.53334C28.0222 8.88051 27.7615 9.28347 27.5911 9.74223C27.5593 10.8861 27.4644 12.0239 27.3067 13.1556C26.9809 14.0225 26.4357 14.7099 25.6711 15.2178C25.2101 15.358 24.8309 15.2394 24.5334 14.8622C24.3624 15.3583 24.1491 15.8325 23.8934 16.2844C23.1235 16.8472 22.3413 17.3924 21.5467 17.92C21.202 18.6815 21.1782 19.4637 21.4756 20.2667C21.7418 21.3212 22.2632 22.2219 23.04 22.9689C23.1511 23.1743 23.1274 23.3638 22.9689 23.5378C22.4083 23.6942 21.8394 23.718 21.2623 23.6089C20.9579 23.4705 20.7208 23.2572 20.5511 22.9689C20.132 22.8521 19.7054 22.781 19.2711 22.7556C19.2 22.6844 19.1289 22.6133 19.0578 22.5422C18.9661 21.568 18.9898 20.5962 19.1289 19.6267C19.0935 18.9156 18.9039 18.2519 18.56 17.6356C16.8491 17.7697 15.1424 17.6986 13.44 17.4222C13.2759 18.1265 13.1337 18.8376 13.0134 19.5556C13.1859 20.9843 13.9918 21.7665 15.4311 21.9022C15.8045 22.2145 15.9467 22.6176 15.8578 23.1111C14.4157 23.5948 13.2778 23.2156 12.4445 21.9733C12.3023 21.7363 12.1126 21.5467 11.8756 21.4044C11.5492 21.0067 11.1936 20.6273 10.8089 20.2667C10.7992 19.0386 10.6333 18.9911 10.3111 20.1244C10.5061 20.6283 10.7905 21.0788 11.1645 21.4756C11.3969 21.5458 11.6339 21.5694 11.8756 21.5467C12.1004 21.7802 12.1952 22.0646 12.16 22.4C11.569 22.752 10.9527 22.7756 10.3111 22.4711C9.2013 21.5541 8.5613 20.3927 8.39115 18.9867C9.02691 18.1185 9.57209 17.1941 10.0267 16.2133C9.16299 15.5526 8.73632 14.6755 8.7467 13.5822C6.75983 13.9691 5.02947 13.495 3.55559 12.16C2.79149 10.9245 2.72038 9.64452 3.34226 8.32C3.45959 8.19404 3.60181 8.14663 3.76892 8.17778C3.22639 11.3097 4.5538 12.6608 7.75115 12.2311C8.36744 12.0889 8.98374 11.9467 9.60003 11.8044C10.085 11.4672 10.6065 11.2064 11.1645 11.0222Z" fill="#FCFDFE"/>
<path fill-rule="evenodd" clip-rule="evenodd" d="M13.7244 10.88C12.8669 10.8694 12.0136 10.9168 11.1644 11.0222C11.646 10.8131 12.1675 10.7183 12.7289 10.7378C13.088 10.7383 13.4199 10.7857 13.7244 10.88Z" fill="#C6D0F1"/>
<path fill-rule="evenodd" clip-rule="evenodd" d="M11.8756 21.4045C11.8756 21.4518 11.8756 21.4993 11.8756 21.5467C11.6339 21.5694 11.3969 21.5458 11.1645 21.4756C10.7906 21.0788 10.5061 20.6284 10.3112 20.1245C10.6333 18.9911 10.7992 19.0386 10.8089 20.2667C11.1936 20.6274 11.5492 21.0067 11.8756 21.4045Z" fill="#5F7DD9"/>
<path fill-rule="evenodd" clip-rule="evenodd" d="M11.8756 21.4044C12.1127 21.5466 12.3023 21.7362 12.4445 21.9733C12.3497 22.1155 12.2549 22.2578 12.1601 22.4C12.1953 22.0646 12.1004 21.7802 11.8756 21.5466C11.8756 21.4993 11.8756 21.4518 11.8756 21.4044Z" fill="#B6C2ED"/>
</g>
<defs>
<clipPath id="clip0_147_1229">
<rect width="32" height="32" fill="white"/>
</clipPath>
</defs>
</svg>
