<svg width="32" height="32" viewBox="0 0 32 32" fill="none" xmlns="http://www.w3.org/2000/svg">
    <g clip-path="url(#clip0_2305_118)">
        <mask id="mask0_2305_118" style="mask-type:luminance" maskUnits="userSpaceOnUse" x="0" y="0"
            width="32" height="32">
            <path d="M32 0H0V32H32V0Z" fill="white" />
        </mask>
        <g mask="url(#mask0_2305_118)">
            <path fill-rule="evenodd" clip-rule="evenodd" d="M0 0H32V32H0V0Z" fill="white" />
        </g>
        <path fill-rule="evenodd" clip-rule="evenodd"
            d="M28.9332 0C29.4242 0.520418 29.6653 1.19308 29.6566 2.01802C30.5709 5.23728 29.5583 7.59164 26.6184 9.08108C25.4965 9.7839 24.3391 10.4085 23.1462 10.955C20.9196 9.93776 18.7977 8.73655 16.7805 7.35135C20.898 4.96594 24.9489 2.51549 28.9332 0Z"
            fill="#15B5CA" />
        <path fill-rule="evenodd" clip-rule="evenodd"
            d="M2.60233 0C9.0595 3.83599 15.5216 7.67983 21.9888 11.5315C22.3746 14.03 22.3746 16.5285 21.9888 19.027C16.2495 15.543 10.4625 12.1316 4.62778 8.79279C3.3521 8.14881 2.5805 7.13981 2.31298 5.76577C2.21922 3.78975 2.31567 1.86782 2.60233 0Z"
            fill="#231F20" />
        <path fill-rule="evenodd" clip-rule="evenodd"
            d="M9.54686 12.6846C15.6152 16.2849 21.6915 19.8885 27.7759 23.4954C28.4151 24.0355 28.9455 24.6601 29.3673 25.3693C29.5602 27.5796 29.5602 29.7896 29.3673 31.9999C22.8808 28.1198 16.3705 24.2759 9.83621 20.4684C9.54738 17.8809 9.45094 15.2863 9.54686 12.6846Z"
            fill="#0DB4CA" />
        <path fill-rule="evenodd" clip-rule="evenodd"
            d="M8.3894 20.7568C10.5907 21.8541 12.7126 23.1034 14.7551 24.5046C10.6558 27.0755 6.50848 29.5741 2.31305 32.0001C1.97602 29.7961 1.92779 27.5858 2.16837 25.3694C2.63038 24.5855 3.25731 23.9609 4.04915 23.4956C5.54616 22.6221 6.99291 21.7092 8.3894 20.7568Z"
            fill="#242021" />
    </g>
    <defs>
        <clipPath id="clip0_2305_118">
            <rect width="32" height="32" fill="white" />
        </clipPath>
    </defs>
</svg>