<svg width="32" height="32" viewBox="0 0 32 32" fill="none" xmlns="http://www.w3.org/2000/svg">
    <g clip-path="url(#clip0_2791_305)">
        <path fill-rule="evenodd" clip-rule="evenodd"
            d="M-0.160156 -0.160156C10.5065 -0.160156 21.1732 -0.160156 31.8398 -0.160156C31.8398 10.5065 31.8398 21.1732 31.8398 31.8398C21.1732 31.8398 10.5065 31.8398 -0.160156 31.8398C-0.160156 21.1732 -0.160156 10.5065 -0.160156 -0.160156Z"
            fill="#FCFCFC" />
        <path fill-rule="evenodd" clip-rule="evenodd"
            d="M12.96 0.800193C22.1529 0.133125 28.0729 4.18646 30.72 12.9602C31.523 19.7341 29.123 25.0141 23.52 28.8002C15.9358 32.4639 9.37577 31.1305 3.83996 24.8002C-0.388673 18.3455 -0.17534 12.0522 4.47996 5.92019C6.85705 3.42685 9.6837 1.72017 12.96 0.800193Z"
            fill="#0E0E0E" />
        <path fill-rule="evenodd" clip-rule="evenodd"
            d="M17.4402 2.72022C17.1202 2.72022 16.8002 2.72022 16.4802 2.72022C16.5712 3.33292 16.4645 3.86623 16.1602 4.32022C16.1602 3.68022 16.1602 3.04022 16.1602 2.40022C16.6718 2.31452 17.0985 2.42118 17.4402 2.72022Z"
            fill="#898989" />
        <path fill-rule="evenodd" clip-rule="evenodd"
            d="M14.2402 2.72022C14.5819 2.42118 15.0086 2.31452 15.5202 2.40022C15.5202 3.04022 15.5202 3.68022 15.5202 4.32022C15.2159 3.86623 15.1092 3.33292 15.2002 2.72022C14.8802 2.72022 14.5602 2.72022 14.2402 2.72022Z"
            fill="#8A8A8A" />
        <path fill-rule="evenodd" clip-rule="evenodd"
            d="M14.2402 2.72021C14.5602 2.72021 14.8802 2.72021 15.2002 2.72021C15.1092 3.33292 15.2159 3.86623 15.5202 4.32021C15.7336 4.32021 15.9469 4.32021 16.1602 4.32021C16.4646 3.86623 16.5713 3.33292 16.4802 2.72021C16.8002 2.72021 17.1202 2.72021 17.4402 2.72021C22.7416 3.48428 26.4216 6.36428 28.4802 11.3602C28.8723 12.8275 29.0323 14.3209 28.9602 15.8402C26.4002 16.1602 26.4002 16.4802 28.9602 16.8002C27.9234 24.2367 23.6567 28.2901 16.1602 28.9602C15.9469 26.4002 15.7336 26.4002 15.5202 28.9602C8.03769 28.3046 3.771 24.2513 2.72021 16.8002C5.28021 16.5869 5.28021 16.3736 2.72021 16.1602C3.00801 8.62005 6.84802 4.14005 14.2402 2.72021Z"
            fill="#FAFAFA" />
        <path fill-rule="evenodd" clip-rule="evenodd"
            d="M13.28 11.6802C13.8918 12.3705 14.4252 13.1172 14.88 13.9202C15.4228 14.5681 15.9561 15.2081 16.48 15.8402C16.48 16.0535 16.48 16.2668 16.48 16.4802C14.0637 17.902 11.5037 18.9686 8.79998 19.6802C8.69694 18.969 8.91025 18.3824 9.43998 17.9202C11.0225 17.3422 12.5159 16.5956 13.92 15.6802C11.9466 12.8535 9.97332 10.0268 7.99998 7.20018C7.76807 5.57177 8.30138 5.25177 9.59998 6.24018C10.8299 8.06271 12.0565 9.87606 13.28 11.6802Z"
            fill="#0C0C0C" />
        <path fill-rule="evenodd" clip-rule="evenodd"
            d="M21.6002 4.64014C22.4451 5.05409 22.4451 5.48078 21.6002 5.92014C21.24 5.50145 21.24 5.07479 21.6002 4.64014Z"
            fill="#262626" />
        <path fill-rule="evenodd" clip-rule="evenodd"
            d="M9.43982 4.64014C10.2312 4.78327 10.2846 5.10327 9.59982 5.60014C9.44532 5.29678 9.39198 4.97678 9.43982 4.64014Z"
            fill="#010101" />
        <path fill-rule="evenodd" clip-rule="evenodd"
            d="M16.4802 16.4802C16.4802 16.2669 16.4802 16.0536 16.4802 15.8402C16.8145 15.0038 16.9745 14.1505 16.9602 13.2802C16.1677 14.4972 15.741 14.2839 15.6802 12.6402C15.3812 13.0749 15.1145 13.5016 14.8802 13.9202C14.4254 13.1172 13.892 12.3705 13.2802 11.6802C13.4889 11.3767 13.5956 11.0033 13.6002 10.5602C13.3318 8.68316 13.0118 6.81648 12.6402 4.96022C12.3998 3.79245 12.8264 3.31245 13.9202 3.52022C14.6277 6.19289 15.2143 8.91289 15.6802 11.6802C16.4265 9.12179 17.1732 6.56179 17.9202 4.00022C18.4535 3.57357 18.9868 3.57357 19.5202 4.00022C18.8301 6.86739 18.1901 9.74739 17.6002 12.6402C19.6904 10.657 21.6637 8.57702 23.5202 6.40022C24.6682 6.20457 25.0415 6.68457 24.6402 7.84022C21.9629 10.7835 19.2429 13.6635 16.4802 16.4802Z"
            fill="#949494" />
        <path fill-rule="evenodd" clip-rule="evenodd"
            d="M4.64001 10.0801C5.43144 10.2232 5.48478 10.5432 4.80001 11.0401C4.64552 10.7367 4.59217 10.4167 4.64001 10.0801Z"
            fill="#000100" />
        <path fill-rule="evenodd" clip-rule="evenodd"
            d="M26.4 9.75977C27.2449 10.1737 27.2449 10.6004 26.4 11.0398C26.0398 10.6211 26.0398 10.1944 26.4 9.75977Z"
            fill="#272727" />
        <path fill-rule="evenodd" clip-rule="evenodd"
            d="M16.4799 15.8401C15.956 15.2081 15.4227 14.5681 14.8799 13.9201C15.1142 13.5015 15.3809 13.0748 15.6799 12.6401C15.7407 14.2838 16.1674 14.4972 16.9599 13.2801C16.9742 14.1504 16.8142 15.0037 16.4799 15.8401Z"
            fill="#535353" />
        <path fill-rule="evenodd" clip-rule="evenodd"
            d="M4.96009 20.3198C5.77333 20.6791 5.77333 21.1058 4.96009 21.5998C4.59989 21.1811 4.59989 20.7545 4.96009 20.3198Z"
            fill="#2C2C2C" />
        <path fill-rule="evenodd" clip-rule="evenodd"
            d="M25.7599 21.6001C26.6048 22.014 26.6048 22.4407 25.7599 22.8801C25.3997 22.4614 25.3997 22.0348 25.7599 21.6001Z"
            fill="#262626" />
        <path fill-rule="evenodd" clip-rule="evenodd"
            d="M9.11996 24.7998C9.46754 24.8382 9.68086 25.0515 9.75996 25.4398C9.6533 25.6531 9.54662 25.8665 9.43996 26.0798C9.14278 25.6994 9.03612 25.2727 9.11996 24.7998Z"
            fill="#232323" />
        <path fill-rule="evenodd" clip-rule="evenodd"
            d="M20.9598 25.7598C22.0661 25.8133 22.1727 26.1333 21.2798 26.7198C20.9964 26.4558 20.8897 26.1358 20.9598 25.7598Z"
            fill="#1F1F1F" />
    </g>
    <defs>
        <clipPath id="clip0_2791_305">
            <rect width="32" height="32" fill="white" />
        </clipPath>
    </defs>
</svg>