<svg width="32" height="32" viewBox="0 0 32 32" fill="none" xmlns="http://www.w3.org/2000/svg">
    <path opacity="0.54" fill-rule="evenodd" clip-rule="evenodd"
        d="M8.62468 1.37499C13.4587 1.33334 18.2921 1.37501 23.1247 1.49999C24.97 2.17894 26.3449 3.38727 27.2497 5.12499C28.4667 8.69279 29.6334 12.2761 30.7497 15.875C31.3994 18.6745 30.6909 21.0495 28.6247 23C25.2914 25.3332 21.958 27.6667 18.6247 30C16.3888 30.6207 14.2222 30.4542 12.1247 29.5C9.12468 27.3332 6.12468 25.1667 3.12468 23C1.05838 21.0495 0.350051 18.6745 0.999683 15.875C2.11597 12.2761 3.28263 8.69279 4.49968 5.12499C5.44926 3.38272 6.82426 2.13271 8.62468 1.37499Z"
        fill="#53BA54" />
</svg>