<svg width="32" height="32" viewBox="0 0 32 32" fill="none" xmlns="http://www.w3.org/2000/svg">
    <path d="M32 0H0V32H32V0Z" fill="#FAFAFA" />
    <g clip-path="url(#clip0_2969_832)">
        <path
            d="M15.9998 0C13.0527 0 10.2917 0.796789 7.92053 2.18667C7.44286 2.46667 7.23339 3.08894 7.63907 3.46573C7.99602 3.79726 8.47425 4 8.99982 4H22.9997C23.5253 4 24.0036 3.79726 24.3606 3.46573C24.7663 3.08894 24.5567 2.46667 24.0791 2.18667C21.7079 0.796789 18.9469 0 15.9998 0Z"
            fill="black" />
        <path
            d="M32 16C32 14.8954 31.1046 14 30 14H2C0.895409 14 0 14.8954 0 16C0 17.1046 0.895409 18 2 18H30C31.1046 18 32 17.1046 32 16Z"
            fill="black" />
        <path
            d="M24.3606 28.5342C24.7663 28.911 24.5567 29.5333 24.0791 29.8133C21.7079 31.2032 18.9469 32 15.9998 32C13.0527 32 10.2917 31.2032 7.92054 29.8133C7.44287 29.5333 7.23338 28.911 7.63907 28.5342C7.99602 28.2027 8.47426 28 8.99983 28H22.9997C23.5254 28 24.0036 28.2027 24.3606 28.5342Z"
            fill="black" />
        <path
            d="M2 9C2 7.89541 2.8954 7 3.99999 7H28C29.1046 7 30 7.89541 30 9C30 10.1046 29.1046 11 28 11H3.99999C2.8954 11 2 10.1046 2 9Z"
            fill="black" />
        <path
            d="M2 23C2 21.8954 2.8954 21 3.99999 21H28C29.1046 21 30 21.8954 30 23C30 24.1046 29.1046 25 28 25H3.99999C2.8954 25 2 24.1046 2 23Z"
            fill="black" />
    </g>
    <defs>
        <clipPath id="clip0_2969_832">
            <rect width="32" height="32" fill="white" />
        </clipPath>
    </defs>
</svg>