<svg width="32" height="32" viewBox="0 0 32 32" fill="none" xmlns="http://www.w3.org/2000/svg">
    <g clip-path="url(#clip0_1573_846)">
        <path opacity="0.936" fill-rule="evenodd" clip-rule="evenodd"
            d="M-0.083374 28.0834C-0.083374 27.1945 -0.083374 26.3055 -0.083374 25.4167C0.349209 24.077 0.904764 22.7715 1.58329 21.5C-0.408609 16.1261 0.396946 11.2094 3.99996 6.75005C8.57924 2.28926 13.9404 0.983716 20.0833 2.83338C21.5218 3.4271 22.7718 4.2882 23.8333 5.41671C24.075 6.12078 23.825 6.53745 23.0833 6.66671C22.8055 6.77783 22.5278 6.77783 22.25 6.66671C19.751 4.54138 16.862 3.70805 13.5833 4.16671C8.01259 5.07256 4.42926 8.21146 2.83329 13.5834C2.13793 17.1342 2.86014 20.3565 4.99996 23.25C5.73689 23.9025 6.37578 24.6247 6.91663 25.4167C6.63404 26.2312 6.07849 26.5924 5.24996 26.5C4.27038 25.7984 3.46483 24.9372 2.83329 23.9167C2.04856 25.108 1.82633 26.3859 2.16663 27.75C2.67509 28.1824 3.25843 28.3212 3.91663 28.1667C8.41883 26.6107 12.3633 24.1662 15.75 20.8334C16.3605 20.4625 16.8326 20.6014 17.1666 21.25C17.3835 21.5609 17.4391 21.8942 17.3333 22.25C15.3862 24.1984 13.2473 25.8927 10.9166 27.3334C16.4423 29 21.0256 27.5834 24.6666 23.0834C25.3051 22.1672 25.833 21.1949 26.25 20.1667C27.0425 20.0599 27.6535 20.3377 28.0833 21C25.2846 27.5614 20.2846 30.5614 13.0833 30C11.446 29.7875 9.86268 29.3709 8.33329 28.75C6.44493 29.8402 4.41716 30.3125 2.24996 30.1667C1.11996 29.841 0.342179 29.1467 -0.083374 28.0834Z"
            fill="#1073FF" />
        <path opacity="0.859" fill-rule="evenodd" clip-rule="evenodd"
            d="M31.9167 3.41663C31.9167 3.80551 31.9167 4.19441 31.9167 4.58329C31.0374 9.74768 30.1207 14.9143 29.1667 20.0833C27.037 19.29 24.898 18.5121 22.75 17.75C21.5 19.5833 20.25 21.4166 19 23.25C18.2624 20.4935 17.5124 17.7435 16.75 15C14.3494 14.8538 11.9605 14.6316 9.58337 14.3333C17.0117 10.6468 24.4562 7.00791 31.9167 3.41663Z"
            fill="#1073FF" />
        <path opacity="0.911" fill-rule="evenodd" clip-rule="evenodd"
            d="M8.75 7.58336C9.72673 7.53523 10.0601 7.97968 9.75 8.91669C7.48188 10.4949 6.12077 12.6616 5.66667 15.4167C4.83498 15.9313 4.36275 15.7091 4.25 14.75C4.74412 11.7061 6.24412 9.31719 8.75 7.58336Z"
            fill="#1073FF" />
    </g>
    <defs>
        <clipPath id="clip0_1573_846">
            <rect width="32" height="32" fill="white" />
        </clipPath>
    </defs>
</svg>