<svg width="32" height="32" viewBox="0 0 32 32" fill="none" xmlns="http://www.w3.org/2000/svg">
    <g clip-path="url(#clip0_4492_45)">
        <path fill-rule="evenodd" clip-rule="evenodd"
            d="M19.3582 1.27975C15.4028 1.18993 11.4474 1.18993 7.49198 1.27975C7.45537 1.27571 7.43292 1.25326 7.42456 1.21239C11.4249 1.12256 15.4253 1.12256 19.4256 1.21239C19.4173 1.25326 19.3948 1.27571 19.3582 1.27975Z"
            fill="#D6EED8" />
        <path fill-rule="evenodd" clip-rule="evenodd"
            d="M25.6958 1.21239C24.0502 1.19063 22.4096 1.21308 20.774 1.27976C21.5706 1.18999 22.3909 1.14508 23.2349 1.14502C24.0668 1.14503 24.8871 1.16748 25.6958 1.21239Z"
            fill="#D5EED8" />
        <path fill-rule="evenodd" clip-rule="evenodd"
            d="M1.55882 2.76173C1.80155 2.63173 2.00382 2.45213 2.16562 2.22294C2.736 1.70245 3.41022 1.37692 4.18827 1.24637C4.74732 1.15174 5.30917 1.12928 5.87381 1.17902C7.66076 2.33431 9.29014 3.69252 10.7619 5.25366C12.3073 6.89779 13.712 8.64888 14.9757 10.5069C14.5302 11.8608 14.1368 13.2303 13.7959 14.6152C13.3634 16.4947 12.9701 18.3805 12.616 20.2726C9.67377 16.916 6.30269 14.0986 2.50273 11.8202C1.83674 11.4763 1.16252 11.1508 0.480074 10.8437C0.401427 8.91336 0.390187 6.98265 0.446363 5.05161C0.593275 4.17016 0.964094 3.40687 1.55882 2.76173ZM10.5933 13.3356C11.6221 13.2186 12.2289 13.6676 12.4137 14.6826C12.27 15.7078 11.6857 16.168 10.6608 16.0632C9.66588 15.6413 9.38493 14.9341 9.81798 13.9417C10.0326 13.6698 10.291 13.4677 10.5933 13.3356Z"
            fill="#0BA99E" />
        <path fill-rule="evenodd" clip-rule="evenodd"
            d="M25.6959 1.21262C27.7112 1.41803 29.0709 2.47316 29.7749 4.37804C29.9829 5.19523 30.0616 6.02587 30.0108 6.86997C28.056 7.1168 26.1907 7.66685 24.4148 8.52003C21.8604 9.76094 19.4782 11.2539 17.2681 12.9988C17.2013 13.0103 17.1564 12.9879 17.1333 12.9314C17.6121 9.71184 18.4549 6.59134 19.6616 3.56985C19.9805 2.77568 20.3513 2.01239 20.7741 1.27997C22.4097 1.21331 24.0502 1.19087 25.6959 1.21262ZM20.5718 6.33117C21.3571 6.30671 21.8065 6.67715 21.9202 7.44244C21.8495 8.13061 21.4674 8.52346 20.7741 8.62105C19.7383 8.32539 19.4573 7.69682 19.9313 6.73527C20.123 6.55594 20.3364 6.42124 20.5718 6.33117Z"
            fill="#5FBD65" />
        <path fill-rule="evenodd" clip-rule="evenodd"
            d="M7.49194 1.27975C11.4474 1.18995 15.4027 1.18995 19.3582 1.27975C17.8344 3.49306 16.6096 5.87274 15.6837 8.41879C14.5866 7.13194 13.4292 5.89718 12.2115 4.71457C12.1796 4.61986 12.1122 4.57495 12.0092 4.57987C10.9216 3.59989 9.77538 2.7019 8.57069 1.88589C8.5388 1.79118 8.47138 1.74628 8.36843 1.7512C8.06732 1.61202 7.77518 1.45487 7.49194 1.27975ZM14.8409 3.83903C15.4381 3.75477 15.7976 4.00172 15.9197 4.57987C15.7063 5.3428 15.2568 5.53363 14.5712 5.15234C14.2371 4.62032 14.327 4.18255 14.8409 3.83903Z"
            fill="#5FBD66" />
        <path fill-rule="evenodd" clip-rule="evenodd"
            d="M8.36841 1.75134C8.47136 1.74642 8.53878 1.79134 8.57067 1.88608C8.46772 1.891 8.4003 1.84608 8.36841 1.75134Z"
            fill="#B0DEB3" />
        <path fill-rule="evenodd" clip-rule="evenodd"
            d="M2.16563 2.22266C2.00383 2.45185 1.80157 2.63145 1.55884 2.76145C1.72064 2.53225 1.9229 2.35265 2.16563 2.22266Z"
            fill="#6EC6BD" />
        <path fill-rule="evenodd" clip-rule="evenodd"
            d="M12.0092 4.57995C12.1121 4.57504 12.1795 4.61995 12.2114 4.71469C12.1085 4.71961 12.041 4.67469 12.0092 4.57995Z"
            fill="#B2DFB4" />
        <path fill-rule="evenodd" clip-rule="evenodd"
            d="M29.876 7.47604C29.88 7.43947 29.9025 7.41704 29.9434 7.40869C29.9658 9.38425 29.9884 11.3599 30.0108 13.3354C30.0108 15.334 29.9658 17.3096 29.876 19.2622C29.9657 15.3269 29.9657 11.3982 29.876 7.47604Z"
            fill="#81D4CE" />
        <path fill-rule="evenodd" clip-rule="evenodd"
            d="M29.876 7.47607C29.9657 11.3982 29.9657 15.3269 29.876 19.2622C27.5085 19.7176 25.2611 20.5145 23.1338 21.6531C20.6148 23.0148 18.2326 24.575 15.9871 26.3339C15.9573 22.9525 16.1708 19.585 16.6276 16.2315C18.8871 14.0632 21.303 12.0988 23.8755 10.3384C25.4291 9.32663 27.0696 8.47359 28.7972 7.77915C29.1483 7.6435 29.5079 7.54248 29.876 7.47607ZM18.4817 19.599C19.3721 19.6018 19.9452 20.0283 20.201 20.8786C20.2244 22.1348 19.6064 22.7297 18.3469 22.6634C17.5268 22.3833 17.1336 21.8108 17.167 20.946C17.3478 20.2378 17.7861 19.7888 18.4817 19.599Z"
            fill="#0AA99E" />
        <path fill-rule="evenodd" clip-rule="evenodd"
            d="M0.547454 11.9883C0.412826 16.6798 0.367883 21.3943 0.41261 26.1317C0.345242 21.4061 0.322771 16.6693 0.345188 11.921C0.43223 11.905 0.499652 11.9275 0.547454 11.9883Z"
            fill="#D6EED8" />
        <path fill-rule="evenodd" clip-rule="evenodd"
            d="M0.54745 11.9883C3.71124 14.1151 6.52047 16.652 8.97516 19.5988C8.97024 19.7016 9.01521 19.769 9.11001 19.8008C9.2224 19.8682 9.31227 19.9579 9.37969 20.0702C9.37477 20.1731 9.41974 20.2404 9.51454 20.2723C9.84949 20.6183 10.1753 20.9775 10.4922 21.3498C11.0536 22.0236 11.5818 22.7196 12.0766 23.4377C12.1204 23.568 12.1428 23.7027 12.144 23.8418C11.9161 26.1504 11.7363 28.4628 11.6046 30.7788C9.28969 30.79 6.9749 30.7788 4.66017 30.7451C3.71111 30.652 2.87957 30.304 2.16557 29.7012C2.13367 29.6065 2.06625 29.5616 1.96331 29.5665C0.940134 28.6575 0.423232 27.5126 0.412606 26.1317C0.367879 21.3942 0.412822 16.6798 0.54745 11.9883Z"
            fill="#5DBC64" />
        <path fill-rule="evenodd" clip-rule="evenodd"
            d="M17.1332 12.9316C17.1563 12.9881 17.2012 13.0106 17.2681 12.999C17.0868 13.1926 17.0418 13.1702 17.1332 12.9316Z"
            fill="#CFEBD1" />
        <path fill-rule="evenodd" clip-rule="evenodd"
            d="M8.97522 19.5991C9.07001 19.631 9.11498 19.6984 9.11006 19.8012C9.01527 19.7694 8.9703 19.702 8.97522 19.5991Z"
            fill="#B0DEB2" />
        <path fill-rule="evenodd" clip-rule="evenodd"
            d="M25.6958 30.7115C22.4371 30.7115 19.1784 30.7115 15.9197 30.7115C15.9197 30.3074 15.9197 29.9033 15.9197 29.4992C16.0977 29.344 16.2776 29.1868 16.4591 29.0277C16.6564 28.9431 16.8138 28.8084 16.931 28.6237C16.9984 28.5114 17.0883 28.4216 17.2007 28.3543C17.3752 28.2924 17.5101 28.1801 17.6052 28.0175C17.6502 27.9277 17.7176 27.8604 17.8075 27.8155C17.9591 27.7764 18.0714 27.6866 18.1446 27.5461C18.3051 27.3184 18.5073 27.1388 18.7514 27.0073C18.903 26.9682 19.0153 26.8784 19.0885 26.7379C21.6952 24.4177 24.5719 22.4757 27.7185 20.9121C28.4563 20.5693 29.2092 20.2662 29.9771 20.0029C30.0221 22.203 30.0221 24.4031 29.9771 26.6032C29.6396 28.6466 28.4822 29.9824 26.5049 30.6105C26.2392 30.6788 25.9696 30.7125 25.6958 30.7115Z"
            fill="#5DBC64" />
        <path fill-rule="evenodd" clip-rule="evenodd"
            d="M9.37976 20.0703C9.47455 20.1022 9.51952 20.1695 9.5146 20.2724C9.41981 20.2406 9.37484 20.1732 9.37976 20.0703Z"
            fill="#AEDEB0" />
        <path fill-rule="evenodd" clip-rule="evenodd"
            d="M12.0767 23.438C12.1742 23.4807 12.2191 23.5593 12.2115 23.6737C12.2096 23.7458 12.1872 23.8019 12.1441 23.8421C12.1429 23.703 12.1205 23.5683 12.0767 23.438Z"
            fill="#BCE3BF" />
        <path fill-rule="evenodd" clip-rule="evenodd"
            d="M19.0885 26.7378C19.0153 26.8784 18.903 26.9681 18.7513 27.0072C18.8245 26.8666 18.9368 26.7769 19.0885 26.7378Z"
            fill="#96D399" />
        <path fill-rule="evenodd" clip-rule="evenodd"
            d="M18.1446 27.5464C18.0715 27.6869 17.9591 27.7767 17.8075 27.8158C17.8806 27.6752 17.993 27.5854 18.1446 27.5464Z"
            fill="#96D399" />
        <path fill-rule="evenodd" clip-rule="evenodd"
            d="M17.6052 28.0176C17.5101 28.1802 17.3752 28.2924 17.2007 28.3543C17.2958 28.1917 17.4307 28.0795 17.6052 28.0176Z"
            fill="#97D399" />
        <path fill-rule="evenodd" clip-rule="evenodd"
            d="M16.9309 28.624C16.8137 28.8088 16.6563 28.9435 16.459 29.0281C16.5762 28.8434 16.7336 28.7087 16.9309 28.624Z"
            fill="#95D397" />
        <path fill-rule="evenodd" clip-rule="evenodd"
            d="M15.9197 29.4995C15.9197 29.9036 15.9197 30.3077 15.9197 30.7118C19.1784 30.7118 22.4372 30.7118 25.6959 30.7118C22.4261 30.7791 19.1449 30.8015 15.8523 30.7792C15.8305 30.3399 15.853 29.9134 15.9197 29.4995Z"
            fill="#D6EED8" />
        <path fill-rule="evenodd" clip-rule="evenodd"
            d="M1.96338 29.5668C2.06633 29.5619 2.13375 29.6068 2.16564 29.7015C2.0627 29.7064 1.99528 29.6615 1.96338 29.5668Z"
            fill="#B0DEB2" />
    </g>
    <defs>
        <clipPath id="clip0_4492_45">
            <rect width="32" height="32" fill="white" />
        </clipPath>
    </defs>
</svg>