<svg width="32" height="32" viewBox="0 0 33 33" fill="none" xmlns="http://www.w3.org/2000/svg">
    <path fill-rule="evenodd" clip-rule="evenodd"
        d="M5.07143 0.46344C12.6917 0.394255 20.3108 0.463464 27.9286 0.671063C30.4703 1.68889 31.9249 3.55751 32.2922 6.2769C32.5693 13.0593 32.5693 19.8417 32.2922 26.624C31.9249 29.3434 30.4703 31.2121 27.9286 32.2299C20.3095 32.5067 12.6905 32.5067 5.07143 32.2299C2.83332 31.567 1.37877 30.1136 0.707793 27.8698C0.430736 20.2569 0.430736 12.644 0.707793 5.03116C1.42187 2.75249 2.87641 1.22992 5.07143 0.46344Z"
        fill="#37B49B" />
    <path fill-rule="evenodd" clip-rule="evenodd"
        d="M29.5909 10.4295C29.1753 10.4295 28.7597 10.4295 28.3441 10.4295C27.1691 10.4643 26.0609 10.7411 25.0195 11.26C24.3125 11.0664 23.6891 11.0664 23.1493 11.26C18.205 6.76651 13.4951 7.18175 9.01947 12.5058C8.88096 13.1979 8.7424 13.8899 8.60389 14.582C8.39659 12.9267 8.32732 11.2658 8.39609 9.59903C8.88349 8.76684 9.57615 8.14397 10.474 7.73042C14.5339 6.80143 18.5512 6.93983 22.526 8.14567C23.3247 8.73515 23.8789 9.49643 24.1883 10.4295C24.7709 10.2778 25.1865 9.93173 25.435 9.39141C25.0261 8.70355 24.6105 8.01146 24.1883 7.31517C19.6299 5.39943 14.9199 4.98418 10.0584 6.06943C7.02267 7.36147 5.91443 9.64533 6.73376 12.921C6.45847 19.0151 8.81347 23.7212 13.7987 27.0394C15.0781 28.5011 16.6018 28.8471 18.3701 28.0775C24.1434 24.4995 26.7754 19.3089 26.2662 12.5058C27.5276 12.4894 28.6358 12.0742 29.5909 11.26C30.2525 10.8026 30.5988 11.0794 30.6299 12.0905C32.3741 20.1989 29.8806 26.2892 23.1493 30.3614C22.5155 30.5226 21.8229 30.5226 21.0714 30.3614C20.7943 30.9151 20.3788 31.3303 19.8247 31.6071C19.132 31.4687 18.4394 31.3303 17.7467 31.1919C17.2029 32.1848 16.7873 32.1848 16.5 31.1919C15.9562 32.1848 15.5406 32.1848 15.2532 31.1919C14.5935 31.7014 14.0394 31.563 13.5909 30.7767C13.4524 31.0535 13.3138 31.3303 13.1753 31.6071C12.1595 30.6125 10.9127 29.9204 9.43506 29.5309C5.39391 27.6186 2.90041 24.2966 1.95454 19.565C1.2364 12.3175 3.59137 6.91924 9.01947 3.37032C9.15799 3.50874 9.29654 3.64716 9.43506 3.78557C10.1436 2.7569 10.9748 2.20324 11.9286 2.12458C12.3508 2.59552 12.6279 2.4571 12.7597 1.70933C13.1753 1.84775 13.5909 1.98617 14.0065 2.12458C14.2938 1.13165 14.7094 1.13165 15.2532 2.12458C15.5406 1.13165 15.9562 1.13165 16.5 2.12458C16.7873 1.13165 17.2029 1.13165 17.7467 2.12458C18.0341 1.13165 18.4497 1.13165 18.9935 2.12458C19.4091 1.98617 19.8247 1.84775 20.2402 1.70933C20.3721 2.4571 20.6492 2.59552 21.0714 2.12458C24.9936 3.54088 27.9719 6.23997 30.0065 10.2219C29.9116 10.3875 29.773 10.4567 29.5909 10.4295Z"
        fill="#2FB39D" />
    <path fill-rule="evenodd" clip-rule="evenodd"
        d="M8.39613 9.59876C7.41984 14.015 8.18177 18.1674 10.6818 22.0562C12.324 24.293 14.4711 25.4695 17.1234 25.5858C21.2844 23.2947 23.5008 19.7651 23.7727 14.997C23.8271 14.6331 23.6886 14.3562 23.3572 14.1665C20.5239 16.3673 18.169 18.9972 16.2922 22.0562C16.3194 22.2381 16.2502 22.3766 16.0844 22.4714C14.2492 20.135 12.102 18.1279 9.64288 16.4503C10.2478 15.7258 10.8019 14.9645 11.3052 14.1665C11.5137 13.7425 11.7907 13.6733 12.1364 13.9589C13.5699 14.9893 14.8859 16.1659 16.0844 17.4885C18.778 14.9377 21.7563 12.8615 25.0195 11.2597C26.061 10.7409 27.1691 10.4641 28.3442 10.4293C27.6891 11.3555 26.7887 12.0476 25.6429 12.5055C25.9425 19.9444 22.6871 25.0659 15.8766 27.8696C15.2219 27.4725 14.5293 27.1957 13.7987 27.0391C8.8135 23.7209 6.45851 19.0148 6.73379 12.9207C5.91447 9.64506 7.0227 7.3612 10.0585 6.06916C14.92 4.98391 19.6299 5.39916 24.1883 7.3149C24.6105 8.01119 25.0261 8.70328 25.4351 9.39114C25.1865 9.93146 24.7709 10.2775 24.1883 10.4293C23.8789 9.49615 23.3247 8.73488 22.526 8.14539C18.5513 6.93956 14.5339 6.80115 10.474 7.73015C9.57618 8.14369 8.88352 8.76656 8.39613 9.59876Z"
        fill="#F4F8F7" />
    <path fill-rule="evenodd" clip-rule="evenodd"
        d="M25.0194 11.2599C21.7563 12.8616 18.7779 14.9378 16.0844 17.4886C14.8858 16.166 13.5698 14.9894 12.1363 13.959C11.7907 13.6734 11.5136 13.7426 11.3052 14.1666C10.8019 14.9646 10.2478 15.7259 9.64281 16.4504C12.1019 18.128 14.2491 20.1351 16.0844 22.4715C16.2501 22.3767 16.3193 22.2382 16.2922 22.0563C16.5992 22.1107 16.8763 22.0415 17.1233 21.8487C18.8545 19.081 21.0709 16.7971 23.7727 14.9971C23.5008 19.7652 21.2843 23.2948 17.1233 25.5859C14.4711 25.4696 12.3239 24.2931 10.6818 22.0563C8.1817 18.1675 7.41977 14.0151 8.39606 9.59886C8.32728 11.2656 8.39656 12.9266 8.60385 14.5818C8.74237 13.8897 8.88092 13.1977 9.01944 12.5056C13.495 7.18158 18.205 6.76634 23.1493 11.2599C23.6891 11.0663 24.3124 11.0663 25.0194 11.2599Z"
        fill="#3DB6A2" />
    <path fill-rule="evenodd" clip-rule="evenodd"
        d="M15.461 9.18359C18.0252 9.45836 19.0641 10.8425 18.5779 13.3361C16.9156 15.5507 15.2532 15.5507 13.5909 13.3361C12.9971 11.3775 13.6205 9.99333 15.461 9.18359Z"
        fill="#F7FAF9" />
    <path fill-rule="evenodd" clip-rule="evenodd"
        d="M28.3442 10.4297C28.7597 10.4297 29.1753 10.4297 29.5909 10.4297C29.5909 10.7065 29.5909 10.9833 29.5909 11.2602C28.6358 12.0744 27.5276 12.4896 26.2662 12.5059C26.7754 19.3091 24.1434 24.4997 18.3701 28.0777C16.6019 28.8473 15.0781 28.5013 13.7987 27.0396C14.5293 27.1961 15.2219 27.4729 15.8766 27.8701C22.6871 25.0663 25.9425 19.9449 25.6429 12.5059C26.7887 12.048 27.6891 11.3559 28.3442 10.4297Z"
        fill="#358B7A" />
    <path fill-rule="evenodd" clip-rule="evenodd"
        d="M23.7727 14.9975C21.0709 16.7975 18.8545 19.0814 17.1233 21.8491C16.8763 22.0419 16.5993 22.1111 16.2922 22.0567C18.1689 18.9977 20.5239 16.3678 23.3571 14.167C23.6885 14.3567 23.8271 14.6336 23.7727 14.9975Z"
        fill="#489588" />
</svg>