<svg width="32" height="32" viewBox="0 0 33 33" fill="none" xmlns="http://www.w3.org/2000/svg">
    <path opacity="0.931" fill-rule="evenodd" clip-rule="evenodd"
        d="M12.3245 0.5C15.9379 0.5 19.5503 0.5 23.1637 0.5C31.3847 5.32915 34.1762 12.53 31.5394 22.1026C28.394 29.7486 22.8099 33.1775 14.788 32.3896C9.10037 32.9265 4.33745 31.0406 0.5 26.7317C1.53514 25.3072 2.84904 24.2785 4.44151 23.6457C0.284203 13.3126 2.91191 5.59734 12.3245 0.5Z"
        fill="#20C05C" />
    <path fill-rule="evenodd" clip-rule="evenodd"
        d="M12.3247 21.0742C13.9565 21.7393 15.5991 22.425 17.2516 23.1316C18.7839 22.9032 20.0983 22.2174 21.1931 21.0742C21.5212 21.5886 21.8503 22.1029 22.1785 22.6173C20.0589 25.0498 17.4319 25.7357 14.2955 24.6747C12.9918 23.8353 12.3355 22.6352 12.3247 21.0742Z"
        fill="#EDFAF1" />
</svg>