<svg width="32" height="32" viewBox="0 0 38 38" fill="none" xmlns="http://www.w3.org/2000/svg">
    <path
        d="M17.9036 11.4311L20.5868 11.4082C22.1119 11.4082 23.442 11.6605 24.5747 12.1637C25.7074 12.667 26.5801 13.3907 27.1942 14.3348C27.8083 15.2789 28.1141 16.3797 28.1141 17.6385C28.1141 18.8973 27.8071 19.9981 27.1942 20.9422C26.5801 21.8863 25.7074 22.61 24.5747 23.1133C23.442 23.6165 22.1119 23.8688 20.5868 23.8688H20.2938V19.5738H21.4251C22.1807 19.5738 22.7464 19.4057 23.1248 19.0667C23.5019 18.7291 23.6917 18.2526 23.6917 17.6385C23.6917 17.0244 23.5032 16.5491 23.1248 16.2102C22.7476 15.8726 22.1807 15.7032 21.4251 15.7032H20.4301L17.9036 11.4311Z"
        fill="#6CC24A" />
    <path
        d="M19.4657 15.7311L16.9354 11.4043H10.198V15.7311H15.0485V27.8935H19.4632V15.7311H19.4657Z"
        fill="#004E84" />
    <path
        d="M18.8999 34.9697C27.7365 34.9697 34.8999 27.8063 34.8999 18.9697C34.8999 10.1332 27.7365 2.96973 18.8999 2.96973C10.0633 2.96973 2.8999 10.1332 2.8999 18.9697C2.8999 27.8063 10.0633 34.9697 18.8999 34.9697Z"
        stroke="#6CC24A" stroke-width="5.5" stroke-miterlimit="10" />
</svg>