<svg width="32" height="32" viewBox="0 0 32 32" fill="none" xmlns="http://www.w3.org/2000/svg">
<g clip-path="url(#clip0_147_1993)">
<path fill-rule="evenodd" clip-rule="evenodd" d="M5.61768 0.071106C11.3114 0.0712566 17.0003 0.237183 22.6843 0.568884C21.535 0.593236 20.3973 0.711755 19.271 0.924439C19.6388 1.06382 20.0181 1.11123 20.4088 1.06666C20.4088 1.44593 20.4088 1.82518 20.4088 2.20444C20.0295 2.20444 19.6503 2.20444 19.271 2.20444C19.271 2.5837 19.271 2.96295 19.271 3.34222C18.8917 3.34222 18.5125 3.34222 18.1332 3.34222C18.1332 3.72148 18.1332 4.10073 18.1332 4.47999C17.7539 4.47999 17.3748 4.47999 16.9955 4.47999C16.9955 4.85926 16.9955 5.23851 16.9955 5.61777C16.6161 5.61777 16.237 5.61777 15.8577 5.61777C15.8577 5.85481 15.8577 6.09184 15.8577 6.32888C15.4784 6.32888 15.0992 6.32888 14.7199 6.32888C14.7199 6.47111 14.7199 6.61333 14.7199 6.75555C12.4194 6.70866 10.1438 6.75606 7.89323 6.89777C7.45634 6.85263 7.02967 6.90003 6.61323 7.04C6.70243 7.17038 6.74985 7.31261 6.75545 7.46666C6.45528 7.50536 6.14714 7.55276 5.83101 7.60888C5.7599 7.53777 5.68879 7.46666 5.61768 7.39555C5.80269 7.16579 5.80269 6.95246 5.61768 6.75555C5.61768 6.37629 5.61768 5.99704 5.61768 5.61777C5.99694 5.61777 6.37619 5.61777 6.75545 5.61777C6.75545 5.23851 6.75545 4.85926 6.75545 4.47999C7.13472 4.47999 7.51397 4.47999 7.89323 4.47999C7.89323 4.10073 7.89323 3.72148 7.89323 3.34222C8.2725 3.34222 8.65175 3.34222 9.03101 3.34222C9.03101 2.96295 9.03101 2.5837 9.03101 2.20444C9.41027 2.20444 9.78952 2.20444 10.1688 2.20444C10.1688 1.82518 10.1688 1.44593 10.1688 1.06666C11.6822 0.970932 13.1992 0.970932 14.7199 1.06666C14.7199 0.924439 14.7199 0.782217 14.7199 0.639995C13.7575 0.685611 12.8093 0.590797 11.8755 0.35555C11.126 0.512871 10.3675 0.607685 9.5999 0.639995C8.21282 0.585861 6.88542 0.396232 5.61768 0.071106Z" fill="#2D2D86"/>
<path fill-rule="evenodd" clip-rule="evenodd" d="M-0.0710449 0.071106C1.82525 0.071106 3.72155 0.071106 5.61784 0.071106C6.88558 0.396232 8.21299 0.585861 9.60007 0.639995C10.3677 0.607685 11.1262 0.512871 11.8756 0.35555C12.8095 0.590797 13.7576 0.685611 14.7201 0.639995C14.7201 0.782217 14.7201 0.924439 14.7201 1.06666C13.1994 0.970932 11.6823 0.970932 10.169 1.06666C10.169 1.44593 10.169 1.82518 10.169 2.20444C9.78969 2.20444 9.41044 2.20444 9.03118 2.20444C9.03118 2.5837 9.03118 2.96295 9.03118 3.34222C8.65191 3.34222 8.27266 3.34222 7.8934 3.34222C7.8934 3.72148 7.8934 4.10073 7.8934 4.47999C7.51414 4.47999 7.13489 4.47999 6.75562 4.47999C6.75562 4.85926 6.75562 5.23851 6.75562 5.61777C6.37636 5.61777 5.99711 5.61777 5.61784 5.61777C5.61784 5.99704 5.61784 6.37629 5.61784 6.75555C5.23858 6.75555 4.85933 6.75555 4.48007 6.75555C4.48007 7.13481 4.48007 7.51406 4.48007 7.89333C4.1008 7.89333 3.72155 7.89333 3.34229 7.89333C3.34229 8.27259 3.34229 8.65184 3.34229 9.03111C2.96302 9.03111 2.58377 9.03111 2.20451 9.03111C2.20451 9.41037 2.20451 9.78962 2.20451 10.1689C1.82525 10.1689 1.446 10.1689 1.06673 10.1689C1.06673 10.5481 1.06673 10.9274 1.06673 11.3067C0.687473 11.3067 0.308215 11.3067 -0.0710449 11.3067C-0.0710449 7.56148 -0.0710449 3.81629 -0.0710449 0.071106Z" fill="#2D2E8C"/>
<path fill-rule="evenodd" clip-rule="evenodd" d="M-0.0710449 0.0711163C-0.0710449 0.0237089 -0.0710449 -0.0236986 -0.0710449 -0.071106C10.5956 -0.071106 21.2623 -0.071106 31.929 -0.071106C31.929 -0.0236986 31.929 0.0237089 31.929 0.0711163C27.7094 0.0474155 23.4902 0.0711193 19.2712 0.142227C23.4437 0.339805 27.6155 0.553139 31.7867 0.782227C30.6555 0.806887 29.5177 0.830591 28.3734 0.853339C29.8875 0.971285 29.8875 1.0424 28.3734 1.06667C28.3734 1.44594 28.3734 1.82519 28.3734 2.20445C27.9941 2.20445 27.6149 2.20445 27.2356 2.20445C27.2356 2.58371 27.2356 2.96296 27.2356 3.34223C26.8563 3.34223 26.4772 3.34223 26.0978 3.34223C26.0978 3.72149 26.0978 4.10074 26.0978 4.48001C25.7185 4.48001 25.3394 4.48001 24.9601 4.48001C24.9601 4.85927 24.9601 5.23852 24.9601 5.61778C24.5808 5.61778 24.2016 5.61778 23.8223 5.61778C23.8223 5.99705 23.8223 6.3763 23.8223 6.75556C23.3931 6.73215 22.9664 6.75585 22.5423 6.82667C22.6775 6.92872 22.7012 7.04724 22.6134 7.18223C22.4833 7.06448 22.3885 6.92226 22.329 6.75556C22.2335 6.86257 22.1151 6.90999 21.9734 6.89778C20.7372 6.85065 19.5046 6.89807 18.2756 7.04001C17.9758 7.68776 17.644 8.30405 17.2801 8.88889C17.2923 8.74726 17.2448 8.62874 17.1378 8.53334C17.6639 8.05428 17.9009 7.48539 17.849 6.82667C17.7157 6.7283 17.621 6.75201 17.5645 6.89778C14.3408 6.89778 11.1171 6.89778 7.8934 6.89778C10.144 6.75607 12.4196 6.70867 14.7201 6.75556C14.7201 6.61334 14.7201 6.47112 14.7201 6.32889C15.0994 6.32889 15.4785 6.32889 15.8578 6.32889C15.8578 6.09185 15.8578 5.85482 15.8578 5.61778C16.2372 5.61778 16.6163 5.61778 16.9956 5.61778C16.9956 5.23852 16.9956 4.85927 16.9956 4.48001C17.3749 4.48001 17.7541 4.48001 18.1334 4.48001C18.1334 4.10074 18.1334 3.72149 18.1334 3.34223C18.5127 3.34223 18.8919 3.34223 19.2712 3.34223C19.2712 2.96296 19.2712 2.58371 19.2712 2.20445C19.6505 2.20445 20.0296 2.20445 20.409 2.20445C20.409 1.82519 20.409 1.44594 20.409 1.06667C20.0183 1.11124 19.639 1.06383 19.2712 0.92445C20.3974 0.711765 21.5352 0.593247 22.6845 0.568894C17.0005 0.237193 11.3116 0.0712669 5.61784 0.0711163C3.72155 0.0711163 1.82525 0.0711163 -0.0710449 0.0711163Z" fill="#2C2D80"/>
<path fill-rule="evenodd" clip-rule="evenodd" d="M31.9289 0.0711126C31.9289 1.54074 31.9289 3.01038 31.9289 4.48C31.5022 4.48 31.0755 4.48 30.6489 4.48C30.6489 4.85927 30.6489 5.23852 30.6489 5.61778C30.2695 5.61778 29.8904 5.61778 29.5111 5.61778C29.5111 5.99704 29.5111 6.37629 29.5111 6.75556C29.1318 6.75556 28.7526 6.75556 28.3733 6.75556C28.3733 7.13482 28.3733 7.51407 28.3733 7.89334C27.994 7.89334 27.6148 7.89334 27.2355 7.89334C27.2355 8.2726 27.2355 8.65185 27.2355 9.03111C26.8562 9.03111 26.4771 9.03111 26.0977 9.03111C26.0977 9.41038 26.0977 9.78963 26.0977 10.1689C25.7184 10.1689 25.3393 10.1689 24.96 10.1689C24.96 10.5482 24.96 10.9274 24.96 11.3067C24.5807 11.3067 24.2015 11.3067 23.8222 11.3067C23.8222 11.6859 23.8222 12.0652 23.8222 12.4444C23.4429 12.4444 23.0637 12.4444 22.6844 12.4444C22.6844 12.8237 22.6844 13.203 22.6844 13.5822C22.3051 13.5822 21.9259 13.5822 21.5466 13.5822C21.5466 13.9615 21.5466 14.3407 21.5466 14.72C21.1673 14.72 20.7882 14.72 20.4089 14.72C20.4089 15.0993 20.4089 15.4785 20.4089 15.8578C20.0295 15.8578 19.6504 15.8578 19.2711 15.8578C19.3099 16.1353 19.2152 16.3486 18.9866 16.4978C18.9377 16.99 19.0324 17.4878 19.2711 17.9911C19.2195 18.0883 19.1721 18.1831 19.1289 18.2756C18.8549 17.4465 18.5231 16.7354 18.1333 16.1422C18.3188 15.5819 18.5795 15.0603 18.9155 14.5778C19.0816 14.008 19.2476 13.4391 19.4133 12.8711C20.1066 11.5555 20.8177 10.2518 21.5466 8.96C21.4661 8.81853 21.3713 8.70002 21.2622 8.60445C21.4947 8.03792 21.7318 7.46903 21.9733 6.89778C22.115 6.90998 22.2334 6.86257 22.3289 6.75556C22.3884 6.92226 22.4832 7.06448 22.6133 7.18222C22.7011 7.04724 22.6774 6.92871 22.5422 6.82667C22.9663 6.75584 23.393 6.73215 23.8222 6.75556C23.8222 6.37629 23.8222 5.99704 23.8222 5.61778C24.2015 5.61778 24.5807 5.61778 24.96 5.61778C24.96 5.23852 24.96 4.85927 24.96 4.48C25.3393 4.48 25.7184 4.48 26.0977 4.48C26.0977 4.10074 26.0977 3.72149 26.0977 3.34222C26.4771 3.34222 26.8562 3.34222 27.2355 3.34222C27.2355 2.96296 27.2355 2.58371 27.2355 2.20445C27.6148 2.20445 27.994 2.20445 28.3733 2.20445C28.3733 1.82518 28.3733 1.44593 28.3733 1.06667C29.8874 1.04239 29.8874 0.971281 28.3733 0.853335C29.5176 0.830588 30.6554 0.806884 31.7866 0.782224C27.6154 0.553135 23.4436 0.339802 19.2711 0.142224C23.4901 0.0711156 27.7093 0.0474118 31.9289 0.0711126Z" fill="#2A2978"/>
<path fill-rule="evenodd" clip-rule="evenodd" d="M31.9289 4.48C31.9289 7.51407 31.9289 10.5481 31.9289 13.5822C31.7905 13.9304 31.7431 14.3097 31.7866 14.72C31.4073 14.72 31.0282 14.72 30.6489 14.72C30.6489 15.0993 30.6489 15.4785 30.6489 15.8578C30.2695 15.8578 29.8904 15.8578 29.5111 15.8578C29.5111 16.2371 29.5111 16.6162 29.5111 16.9956C29.1318 16.9956 28.7526 16.9956 28.3733 16.9956C28.3733 17.3749 28.3733 17.754 28.3733 18.1333C27.994 18.1333 27.6148 18.1333 27.2355 18.1333C27.2355 18.5126 27.2355 18.8918 27.2355 19.2711C26.8562 19.2711 26.4771 19.2711 26.0977 19.2711C26.0977 19.6504 26.0977 20.0296 26.0977 20.4089C25.7184 20.4089 25.3393 20.4089 24.96 20.4089C24.96 20.7882 24.96 21.1674 24.96 21.5467C24.2473 21.5231 23.5362 21.5468 22.8266 21.6178C23.1648 21.7563 23.1173 21.8512 22.6844 21.9022C23.0607 21.9729 23.44 21.9967 23.8222 21.9733C23.8222 22.1629 23.8222 22.3526 23.8222 22.5422C24.0496 22.5041 24.2392 22.5516 24.3911 22.6844C24.2506 23.4155 24.2032 24.1741 24.2489 24.96C24.1088 24.372 24.0614 23.7557 24.1066 23.1111C24.1066 22.9689 24.1066 22.8267 24.1066 22.6844C23.68 22.6844 23.2533 22.6844 22.8266 22.6844C22.8266 22.8267 22.8266 22.9689 22.8266 23.1111C22.9689 23.1111 23.1111 23.1111 23.2533 23.1111C23.2533 23.8222 23.2533 24.5333 23.2533 25.2444C22.9643 25.3224 22.8221 25.512 22.8266 25.8133C22.4 25.8133 21.9733 25.8133 21.5466 25.8133C21.5466 25.6711 21.5466 25.5289 21.5466 25.3867C20.3827 25.433 19.2449 25.3855 18.1333 25.2444C19.4169 25.2917 20.6969 25.2442 21.9733 25.1022C21.5536 24.3103 21.1743 23.5045 20.8355 22.6844C20.9526 22.4064 20.9763 22.122 20.9066 21.8311C20.6243 21.3136 20.2925 20.8394 19.9111 20.4089C19.8024 19.6319 19.5417 18.9208 19.1289 18.2756C19.1721 18.1831 19.2195 18.0882 19.2711 17.9911C19.0324 17.4878 18.9377 16.99 18.9866 16.4978C19.2152 16.3486 19.3099 16.1352 19.2711 15.8578C19.6504 15.8578 20.0295 15.8578 20.4089 15.8578C20.4089 15.4785 20.4089 15.0993 20.4089 14.72C20.7882 14.72 21.1673 14.72 21.5466 14.72C21.5466 14.3407 21.5466 13.9615 21.5466 13.5822C21.9259 13.5822 22.3051 13.5822 22.6844 13.5822C22.6844 13.203 22.6844 12.8237 22.6844 12.4444C23.0637 12.4444 23.4429 12.4444 23.8222 12.4444C23.8222 12.0652 23.8222 11.6859 23.8222 11.3067C24.2015 11.3067 24.5807 11.3067 24.96 11.3067C24.96 10.9274 24.96 10.5481 24.96 10.1689C25.3393 10.1689 25.7184 10.1689 26.0977 10.1689C26.0977 9.78962 26.0977 9.41037 26.0977 9.03111C26.4771 9.03111 26.8562 9.03111 27.2355 9.03111C27.2355 8.65184 27.2355 8.27259 27.2355 7.89333C27.6148 7.89333 27.994 7.89333 28.3733 7.89333C28.3733 7.51407 28.3733 7.13482 28.3733 6.75555C28.7526 6.75555 29.1318 6.75555 29.5111 6.75555C29.5111 6.37629 29.5111 5.99704 29.5111 5.61777C29.8904 5.61777 30.2695 5.61777 30.6489 5.61777C30.6489 5.23851 30.6489 4.85926 30.6489 4.48C31.0755 4.48 31.5022 4.48 31.9289 4.48Z" fill="#292673"/>
<path fill-rule="evenodd" clip-rule="evenodd" d="M5.61784 6.75555C5.80286 6.95246 5.80286 7.16579 5.61784 7.39555C5.68896 7.46667 5.76007 7.53778 5.83118 7.60889C6.14731 7.55277 6.45545 7.50536 6.75562 7.46667C7.16689 8.24249 7.54614 9.04842 7.8934 9.88444C8.9807 10.0027 10.0711 10.0738 11.1645 10.0978C11.53 10.8995 11.9092 11.6817 12.3023 12.4444C12.627 13.141 12.9115 13.8521 13.1556 14.5778C12.9722 14.4984 12.8537 14.3562 12.8001 14.1511C12.7589 14.3707 12.6641 14.5603 12.5156 14.72C12.5805 14.3036 12.5805 13.8768 12.5156 13.44C12.1618 13.0201 11.9011 12.546 11.7334 12.0178C11.6971 12.28 11.6734 12.5644 11.6623 12.8711C11.58 12.3184 11.4615 12.3184 11.3067 12.8711C11.6418 13.0352 11.6655 13.2249 11.3778 13.44C11.307 13.864 11.2833 14.2908 11.3067 14.72C10.9275 14.72 10.5482 14.72 10.169 14.72C10.169 15.0993 10.169 15.4785 10.169 15.8578C9.78969 15.8578 9.41044 15.8578 9.03118 15.8578C9.03118 16.2371 9.03118 16.6162 9.03118 16.9956C8.65191 16.9956 8.27266 16.9956 7.8934 16.9956C7.8934 17.3749 7.8934 17.754 7.8934 18.1333C7.51414 18.1333 7.13489 18.1333 6.75562 18.1333C6.75562 18.5126 6.75562 18.8918 6.75562 19.2711C6.37636 19.2711 5.99711 19.2711 5.61784 19.2711C5.61784 19.6504 5.61784 20.0296 5.61784 20.4089C5.23858 20.4089 4.85933 20.4089 4.48007 20.4089C4.48007 20.7882 4.48007 21.1674 4.48007 21.5467C4.1008 21.5467 3.72155 21.5467 3.34229 21.5467C3.34229 21.926 3.34229 22.3051 3.34229 22.6844C2.96302 22.6844 2.58377 22.6844 2.20451 22.6844C2.20451 23.0638 2.20451 23.4429 2.20451 23.8222C1.82525 23.8222 1.446 23.8222 1.06673 23.8222C1.06673 24.2015 1.06673 24.5807 1.06673 24.96C0.687473 24.96 0.308215 24.96 -0.0710449 24.96C-0.0710449 20.4089 -0.0710449 15.8578 -0.0710449 11.3067C0.308215 11.3067 0.687473 11.3067 1.06673 11.3067C1.06673 10.9274 1.06673 10.5482 1.06673 10.1689C1.446 10.1689 1.82525 10.1689 2.20451 10.1689C2.20451 9.78962 2.20451 9.41037 2.20451 9.03111C2.58377 9.03111 2.96302 9.03111 3.34229 9.03111C3.34229 8.65185 3.34229 8.2726 3.34229 7.89333C3.72155 7.89333 4.1008 7.89333 4.48007 7.89333C4.48007 7.51407 4.48007 7.13482 4.48007 6.75555C4.85933 6.75555 5.23858 6.75555 5.61784 6.75555Z" fill="#2C2C84"/>
<path fill-rule="evenodd" clip-rule="evenodd" d="M7.89328 6.89778C11.117 6.89778 14.3406 6.89778 17.5644 6.89778C17.2024 7.85933 16.7994 8.80748 16.3555 9.74222C15.7562 9.78867 15.2109 9.93089 14.7199 10.1689C14.5816 10.517 14.5342 10.8963 14.5777 11.3067C14.2459 11.3067 13.914 11.3067 13.5822 11.3067C13.5203 12.0295 13.4966 12.7406 13.5111 13.44C13.3401 13.1303 13.269 12.7985 13.2977 12.4444C12.9425 12.5272 12.6106 12.5272 12.3022 12.4444C11.9091 11.6817 11.5298 10.8995 11.1644 10.0978C10.0709 10.0738 8.98058 10.0027 7.89328 9.88444C7.54602 9.04842 7.16677 8.24249 6.7555 7.46667C6.7499 7.31261 6.70248 7.17039 6.61328 7.04C7.02972 6.90004 7.45639 6.85264 7.89328 6.89778Z" fill="#F4CE1B"/>
<path fill-rule="evenodd" clip-rule="evenodd" d="M17.28 8.88889C16.8594 10.0144 16.3616 11.1048 15.7866 12.16C15.5376 11.4241 15.1821 10.7604 14.72 10.1689C15.2109 9.93089 15.7562 9.78867 16.3555 9.74222C16.7994 8.80748 17.2025 7.85933 17.5644 6.89778C17.6209 6.752 17.7156 6.72829 17.8489 6.82667C17.9008 7.48538 17.6638 8.05427 17.1377 8.53333C17.2447 8.62874 17.2922 8.74725 17.28 8.88889Z" fill="#443875"/>
<path fill-rule="evenodd" clip-rule="evenodd" d="M21.9734 6.89778C21.7319 7.46903 21.4948 8.03792 21.2622 8.60445C20.7972 9.39234 20.3705 10.1983 19.9822 11.0222C19.84 11.0222 19.6978 11.0222 19.5556 11.0222C19.6153 10.713 19.6153 10.4286 19.5556 10.1689C19.2175 10.5256 18.8856 10.8811 18.56 11.2356C18.4252 11.3042 18.283 11.3279 18.1334 11.3067C18.3704 12.3022 17.9911 12.6815 16.9956 12.4444C17.0168 12.5941 16.9932 12.7363 16.9245 12.8711C16.6163 12.9896 16.4029 13.203 16.2845 13.5111C16.1496 13.5798 16.0074 13.6035 15.8578 13.5822C15.879 13.7318 15.8554 13.8741 15.7867 14.0089C15.4785 14.1274 15.2652 14.3407 15.1467 14.6489C14.8018 14.6906 14.5411 14.8564 14.3645 15.1467C14.3171 15.0993 14.2696 15.0518 14.2222 15.0044C13.9624 15.3011 13.9624 15.5856 14.2222 15.8578C14.4091 15.0992 14.504 15.0992 14.5067 15.8578C14.3171 15.9526 14.1748 16.0949 14.08 16.2844C14.0404 16.1542 13.9693 16.0595 13.8667 16C13.6997 15.4762 13.4626 15.0022 13.1556 14.5778C12.9114 13.8521 12.627 13.141 12.3022 12.4444C12.6107 12.5272 12.9425 12.5272 13.2978 12.4444C13.269 12.7985 13.3402 13.1303 13.5111 13.44C13.4966 12.7406 13.5203 12.0295 13.5822 11.3067C13.9141 11.3067 14.246 11.3067 14.5778 11.3067C14.5343 10.8963 14.5816 10.517 14.72 10.1689C15.1821 10.7604 15.5377 11.4241 15.7867 12.16C16.3617 11.1048 16.8595 10.0145 17.28 8.88889C17.644 8.30404 17.9758 7.68775 18.2756 7.04C19.5045 6.89806 20.7372 6.85065 21.9734 6.89778Z" fill="#EDC327"/>
<path fill-rule="evenodd" clip-rule="evenodd" d="M21.2623 8.60445C21.3714 8.70002 21.4663 8.81853 21.5468 8.96C20.8179 10.2518 20.1068 11.5555 19.4135 12.8711C19.2478 13.4391 19.0818 14.008 18.9157 14.5778C18.5796 15.0603 18.3189 15.5819 18.1335 16.1422C18.5233 16.7354 18.8551 17.4465 19.129 18.2756C19.5419 18.9208 19.8026 19.6319 19.9112 20.4089C20.2927 20.8394 20.6245 21.3136 20.9068 21.8311C20.9765 22.122 20.9527 22.4064 20.8357 22.6844C20.5986 22.2104 20.3616 21.7363 20.1246 21.2622C19.7704 20.3644 19.3438 19.511 18.8446 18.7022C18.3892 17.7904 18.0099 16.8422 17.7068 15.8578C18.5355 14.2945 19.294 12.6826 19.9823 11.0222C20.3706 10.1983 20.7973 9.39234 21.2623 8.60445Z" fill="#463B6D"/>
<path fill-rule="evenodd" clip-rule="evenodd" d="M13.1556 14.5778C13.4627 15.0022 13.6997 15.4762 13.8667 16C13.1458 17.7734 12.3873 19.5275 11.5912 21.2622C11.1066 22.0888 10.6562 22.9422 10.2401 23.8222C10.0315 24.2856 9.86557 24.7598 9.74229 25.2444C10.643 25.2444 11.5438 25.2444 12.4445 25.2444C11.4755 25.3854 10.4799 25.4329 9.45784 25.3867C9.47906 25.9019 9.64498 25.9494 9.95562 25.5289C10.2013 25.5497 10.225 25.6445 10.0267 25.8133C9.73851 26.1225 9.40666 26.17 9.03118 25.9556C9.03118 26.3822 9.03118 26.8089 9.03118 27.2356C8.65191 27.2356 8.27266 27.2356 7.8934 27.2356C7.8934 27.6149 7.8934 27.994 7.8934 28.3733C7.51414 28.3733 7.13489 28.3733 6.75562 28.3733C6.75562 28.7526 6.75562 29.1318 6.75562 29.5111C6.37636 29.5111 5.99711 29.5111 5.61784 29.5111C5.61784 29.8904 5.61784 30.2696 5.61784 30.6489C5.23858 30.6489 4.85933 30.6489 4.48007 30.6489C4.48007 31.0756 4.48007 31.5022 4.48007 31.9289C2.96302 31.9289 1.446 31.9289 -0.0710449 31.9289C-0.0710449 29.606 -0.0710449 27.2829 -0.0710449 24.96C0.308215 24.96 0.687473 24.96 1.06673 24.96C1.06673 24.5807 1.06673 24.2015 1.06673 23.8222C1.446 23.8222 1.82525 23.8222 2.20451 23.8222C2.20451 23.4429 2.20451 23.0638 2.20451 22.6844C2.58377 22.6844 2.96302 22.6844 3.34229 22.6844C3.34229 22.3051 3.34229 21.926 3.34229 21.5467C3.72155 21.5467 4.1008 21.5467 4.48007 21.5467C4.48007 21.1674 4.48007 20.7882 4.48007 20.4089C4.85933 20.4089 5.23858 20.4089 5.61784 20.4089C5.61784 20.0296 5.61784 19.6504 5.61784 19.2711C5.99711 19.2711 6.37636 19.2711 6.75562 19.2711C6.75562 18.8918 6.75562 18.5126 6.75562 18.1333C7.13489 18.1333 7.51414 18.1333 7.8934 18.1333C7.8934 17.754 7.8934 17.3749 7.8934 16.9956C8.27266 16.9956 8.65191 16.9956 9.03118 16.9956C9.03118 16.6162 9.03118 16.2371 9.03118 15.8578C9.41044 15.8578 9.78969 15.8578 10.169 15.8578C10.169 15.4785 10.169 15.0993 10.169 14.72C10.5482 14.72 10.9275 14.72 11.3067 14.72C11.2833 14.2908 11.307 13.864 11.3778 13.44C11.6655 13.2249 11.6418 13.0352 11.3067 12.8711C11.4615 12.3184 11.58 12.3184 11.6623 12.8711C11.6734 12.5644 11.6971 12.28 11.7334 12.0178C11.9011 12.546 12.1618 13.0201 12.5156 13.44C12.5805 13.8768 12.5805 14.3036 12.5156 14.72C12.6641 14.5603 12.7589 14.3707 12.8001 14.1511C12.8537 14.3562 12.9722 14.4984 13.1556 14.5778Z" fill="#2A2A7B"/>
<path fill-rule="evenodd" clip-rule="evenodd" d="M19.9823 11.0222C19.294 12.6826 18.5355 14.2945 17.7068 15.8578C17.6099 16.0936 17.4913 16.3307 17.3512 16.5689C17.2916 16.4022 17.1969 16.26 17.0668 16.1422C16.6155 16.4524 16.3311 16.8791 16.2134 17.4222C15.5972 17.4696 15.2652 17.8015 15.2179 18.4178C15.0058 18.6317 14.7451 18.7502 14.4357 18.7733C14.2218 18.9854 14.1033 19.2461 14.0801 19.5556C13.3453 19.7215 12.8949 20.1718 12.729 20.9067C12.5521 20.9715 12.4335 20.9004 12.3734 20.6933C12.0684 21.034 12.0921 21.3422 12.4446 21.6178C12.0653 21.8074 11.7808 22.0918 11.5912 22.4711C11.4298 22.5776 11.2876 22.554 11.1646 22.4C11.3045 22.1184 11.4941 21.8813 11.7334 21.6889C11.6442 21.5585 11.5968 21.4163 11.5912 21.2622C12.3873 19.5275 13.1458 17.7734 13.8668 16C13.9694 16.0595 14.0405 16.1542 14.0801 16.2844C14.1749 16.0949 14.3172 15.9526 14.5068 15.8578C14.5041 15.0992 14.4092 15.0992 14.2223 15.8578C13.9625 15.5856 13.9625 15.3011 14.2223 15.0044C14.2697 15.0518 14.3172 15.0993 14.3646 15.1467C14.5412 14.8564 14.8019 14.6906 15.1468 14.6489C15.2652 14.3407 15.4786 14.1274 15.7868 14.0089C15.8555 13.8741 15.8791 13.7318 15.8579 13.5822C16.0075 13.6035 16.1497 13.5798 16.2846 13.5111C16.403 13.203 16.6164 12.9896 16.9246 12.8711C16.9932 12.7363 17.0169 12.5941 16.9957 12.4444C17.9912 12.6815 18.3705 12.3022 18.1334 11.3067C18.2831 11.3279 18.4253 11.3042 18.5601 11.2356C18.8857 10.8811 19.2176 10.5256 19.5557 10.1689C19.6154 10.4286 19.6154 10.713 19.5557 11.0222C19.6979 11.0222 19.8401 11.0222 19.9823 11.0222Z" fill="#EBBC32"/>
<path fill-rule="evenodd" clip-rule="evenodd" d="M17.7066 15.8578C18.0097 16.8422 18.389 17.7904 18.8444 18.7022C18.6129 18.9687 18.5654 19.2532 18.7022 19.5556C18.5385 19.7306 18.3727 19.7306 18.2044 19.5556C17.8248 19.8172 17.4693 20.1017 17.1377 20.4089C16.8487 20.2594 16.6592 20.0225 16.5689 19.6978C16.5215 19.8163 16.474 19.9349 16.4266 20.0533C16.6996 20.3537 16.8891 20.7093 16.9955 21.12C16.8536 21.4795 16.7351 21.4795 16.64 21.12C16.5855 21.1991 16.5144 21.2464 16.4266 21.2622C16.3793 21.1674 16.3318 21.0726 16.2844 20.9778C16.1507 20.6774 15.9849 20.393 15.7866 20.1244C15.3905 20.869 15.035 21.6275 14.72 22.4C14.2585 23.2761 13.8317 24.1768 13.44 25.1022C13.121 25.2407 12.7892 25.2883 12.4444 25.2444C11.5437 25.2444 10.6429 25.2444 9.74219 25.2444C9.86547 24.7598 10.0314 24.2856 10.24 23.8222C10.6561 22.9422 11.1065 22.0888 11.5911 21.2622C11.5967 21.4163 11.6441 21.5585 11.7333 21.6889C11.494 21.8813 11.3043 22.1184 11.1644 22.4C11.2874 22.554 11.4297 22.5776 11.5911 22.4711C11.7807 22.0918 12.0651 21.8074 12.4444 21.6178C12.0919 21.3422 12.0682 21.034 12.3733 20.6933C12.4334 20.9004 12.5519 20.9715 12.7289 20.9067C12.8948 20.1718 13.3451 19.7215 14.08 19.5556C14.1031 19.2461 14.2217 18.9854 14.4355 18.7733C14.745 18.7502 15.0057 18.6317 15.2177 18.4178C15.2651 17.8015 15.597 17.4696 16.2133 17.4222C16.3309 16.8791 16.6154 16.4524 17.0666 16.1422C17.1968 16.26 17.2915 16.4022 17.3511 16.5689C17.4912 16.3307 17.6098 16.0936 17.7066 15.8578Z" fill="#E6B63A"/>
<path fill-rule="evenodd" clip-rule="evenodd" d="M16.2844 20.9778C16.1817 21.0372 16.1106 21.1319 16.0711 21.2622C15.995 21.0103 15.8764 20.963 15.7155 21.12C15.5554 21.6303 15.2947 22.1518 14.9333 22.6844C14.8938 22.5542 14.8227 22.4594 14.72 22.4C15.035 21.6274 15.3905 20.869 15.7866 20.1244C15.9849 20.393 16.1507 20.6774 16.2844 20.9778Z" fill="#453B68"/>
<path fill-rule="evenodd" clip-rule="evenodd" d="M18.8445 18.7022C19.3437 19.511 19.7704 20.3644 20.1245 21.2622C20.1476 21.5505 20.1238 21.835 20.0534 22.1156C19.7451 21.955 19.674 21.7417 19.8401 21.4756C19.7511 21.3689 19.6799 21.2503 19.6268 21.12C19.5211 21.532 19.45 21.9587 19.4134 22.4C19.1283 22.0405 18.8913 22.0878 18.7023 22.5422C18.5332 22.6743 18.3436 22.7217 18.1334 22.6844C17.9936 23.0697 17.9699 23.449 18.0623 23.8222C17.8366 23.8447 17.6233 23.7498 17.4223 23.5378C17.0901 22.7786 16.7583 22.0201 16.4268 21.2622C16.5145 21.2464 16.5856 21.1991 16.6401 21.12C16.7352 21.4795 16.8537 21.4795 16.9956 21.12C16.8893 20.7093 16.6997 20.3537 16.4268 20.0533C16.4741 19.9349 16.5216 19.8163 16.569 19.6978C16.6593 20.0225 16.8489 20.2594 17.1379 20.4089C17.4694 20.1017 17.8249 19.8172 18.2045 19.5556C18.3728 19.7306 18.5386 19.7306 18.7023 19.5556C18.5655 19.2532 18.613 18.9687 18.8445 18.7022Z" fill="#E2AE44"/>
<path fill-rule="evenodd" clip-rule="evenodd" d="M31.9289 13.5822C31.9289 19.6978 31.9289 25.8133 31.9289 31.9289C25.8134 31.9289 19.6978 31.9289 13.5823 31.9289C13.9304 31.7905 14.3097 31.7431 14.7201 31.7867C14.7201 31.4074 14.7201 31.0282 14.7201 30.6489C15.0994 30.6489 15.4785 30.6489 15.8578 30.6489C15.8578 30.2696 15.8578 29.8904 15.8578 29.5111C16.2371 29.5111 16.6163 29.5111 16.9956 29.5111C16.9956 29.1318 16.9956 28.7526 16.9956 28.3733C17.3749 28.3733 17.7541 28.3733 18.1334 28.3733C18.1334 27.994 18.1334 27.6149 18.1334 27.2356C18.5127 27.2356 18.8919 27.2356 19.2712 27.2356C19.3406 26.7789 19.2457 26.376 18.9867 26.0267C19.8658 26.0022 20.7191 25.9311 21.5467 25.8133C21.9734 25.8133 22.4001 25.8133 22.8267 25.8133C22.8222 25.512 22.9644 25.3224 23.2534 25.2444C23.3956 25.2444 23.5378 25.2444 23.6801 25.2444C23.6801 24.5333 23.6801 23.8222 23.6801 23.1111C23.8223 23.1111 23.9645 23.1111 24.1067 23.1111C24.0615 23.7557 24.1089 24.3721 24.2489 24.96C24.2946 25.1802 24.4368 25.275 24.6756 25.2444C24.967 24.3624 25.1092 24.3624 25.1023 25.2444C25.2445 25.2444 25.3867 25.2444 25.5289 25.2444C25.5289 24.3911 25.5289 23.5378 25.5289 22.6844C25.3867 22.6844 25.2445 22.6844 25.1023 22.6844C25.0542 23.0192 24.9831 23.351 24.8889 23.68C24.8015 23.2814 24.6355 22.9495 24.3912 22.6844C24.2393 22.5516 24.0497 22.5041 23.8223 22.5422C23.8223 22.3526 23.8223 22.1629 23.8223 21.9733C23.4401 21.9967 23.0608 21.9729 22.6845 21.9022C23.1174 21.8512 23.1649 21.7563 22.8267 21.6178C23.5363 21.5468 24.2474 21.5231 24.9601 21.5467C24.9601 21.1674 24.9601 20.7882 24.9601 20.4089C25.3394 20.4089 25.7185 20.4089 26.0978 20.4089C26.0978 20.0296 26.0978 19.6504 26.0978 19.2711C26.4771 19.2711 26.8563 19.2711 27.2356 19.2711C27.2356 18.8918 27.2356 18.5126 27.2356 18.1333C27.6149 18.1333 27.9941 18.1333 28.3734 18.1333C28.3734 17.754 28.3734 17.3749 28.3734 16.9956C28.7527 16.9956 29.1319 16.9956 29.5112 16.9956C29.5112 16.6162 29.5112 16.2371 29.5112 15.8578C29.8905 15.8578 30.2696 15.8578 30.6489 15.8578C30.6489 15.4785 30.6489 15.0993 30.6489 14.72C31.0282 14.72 31.4074 14.72 31.7867 14.72C31.7432 14.3097 31.7906 13.9304 31.9289 13.5822Z" fill="#27246A"/>
<path fill-rule="evenodd" clip-rule="evenodd" d="M20.1243 21.2622C20.3614 21.7363 20.5984 22.2104 20.8355 22.6844C21.1742 23.5045 21.5535 24.3103 21.9732 25.1022C20.6968 25.2442 19.4168 25.2917 18.1332 25.2444C17.9752 24.6438 17.7381 24.075 17.4221 23.5378C17.6231 23.7498 17.8364 23.8447 18.0621 23.8222C17.9697 23.449 17.9934 23.0697 18.1332 22.6844C18.3434 22.7217 18.533 22.6743 18.7021 22.5422C18.8911 22.0878 19.1281 22.0405 19.4132 22.4C19.4498 21.9587 19.5209 21.532 19.6266 21.12C19.6798 21.2503 19.7509 21.3689 19.8399 21.4756C19.6738 21.7417 19.7449 21.955 20.0532 22.1156C20.1236 21.835 20.1474 21.5505 20.1243 21.2622Z" fill="#DDA74E"/>
<path fill-rule="evenodd" clip-rule="evenodd" d="M16.2844 20.9778C16.3318 21.0726 16.3793 21.1674 16.4266 21.2622C16.7582 22.0201 17.09 22.7786 17.4222 23.5378C17.7382 24.0749 17.9753 24.6438 18.1333 25.2444C19.2449 25.3855 20.3827 25.433 21.5466 25.3867C21.5466 25.5289 21.5466 25.6711 21.5466 25.8133C20.7191 25.9311 19.8657 26.0022 18.9866 26.0267C19.2456 26.376 19.3405 26.7789 19.2711 27.2356C18.8918 27.2356 18.5126 27.2356 18.1333 27.2356C18.1333 27.6149 18.1333 27.994 18.1333 28.3733C17.754 28.3733 17.3748 28.3733 16.9955 28.3733C16.9955 28.7526 16.9955 29.1318 16.9955 29.5111C16.6162 29.5111 16.2371 29.5111 15.8578 29.5111C15.8578 29.8904 15.8578 30.2696 15.8578 30.6489C15.4785 30.6489 15.0993 30.6489 14.72 30.6489C14.72 31.0282 14.72 31.4074 14.72 31.7867C14.3097 31.7431 13.9303 31.7905 13.5822 31.9289C10.5481 31.9289 7.51405 31.9289 4.47998 31.9289C4.47998 31.5022 4.47998 31.0756 4.47998 30.6489C4.85924 30.6489 5.23849 30.6489 5.61776 30.6489C5.61776 30.2696 5.61776 29.8904 5.61776 29.5111C5.99702 29.5111 6.37627 29.5111 6.75554 29.5111C6.75554 29.1318 6.75554 28.7526 6.75554 28.3733C7.1348 28.3733 7.51405 28.3733 7.89331 28.3733C7.89331 27.994 7.89331 27.6149 7.89331 27.2356C8.27258 27.2356 8.65183 27.2356 9.03109 27.2356C9.03109 26.8089 9.03109 26.3822 9.03109 25.9556C9.40657 26.17 9.73842 26.1225 10.0266 25.8133C10.2249 25.6445 10.2012 25.5497 9.95554 25.5289C9.64489 25.9494 9.47898 25.9019 9.45776 25.3867C10.4799 25.4329 11.4754 25.3854 12.4444 25.2444C12.7892 25.2882 13.121 25.2407 13.44 25.1022C13.8318 24.1768 14.2585 23.2761 14.72 22.4C14.8227 22.4594 14.8938 22.5542 14.9333 22.6844C15.2947 22.1518 15.5554 21.6303 15.7155 21.12C15.8764 20.963 15.995 21.0103 16.0711 21.2622C16.1106 21.1319 16.1817 21.0372 16.2844 20.9778Z" fill="#292773"/>
<path fill-rule="evenodd" clip-rule="evenodd" d="M24.3912 22.6844C24.6355 22.9496 24.8015 23.2814 24.889 23.68C24.9831 23.351 25.0542 23.0192 25.1023 22.6844C25.2445 22.6844 25.3868 22.6844 25.529 22.6844C25.529 23.5378 25.529 24.3911 25.529 25.2444C25.3868 25.2444 25.2445 25.2444 25.1023 25.2444C25.1093 24.3624 24.9671 24.3624 24.6756 25.2444C24.4369 25.275 24.2946 25.1802 24.249 24.96C24.2033 24.1741 24.2507 23.4155 24.3912 22.6844Z" fill="#E4E6EB"/>
<path fill-rule="evenodd" clip-rule="evenodd" d="M24.1067 23.1111C23.9644 23.1111 23.8222 23.1111 23.68 23.1111C23.68 23.8222 23.68 24.5333 23.68 25.2444C23.5378 25.2444 23.3955 25.2444 23.2533 25.2444C23.2533 24.5333 23.2533 23.8222 23.2533 23.1111C23.1111 23.1111 22.9689 23.1111 22.8267 23.1111C22.8267 22.9689 22.8267 22.8267 22.8267 22.6844C23.2533 22.6844 23.68 22.6844 24.1067 22.6844C24.1067 22.8267 24.1067 22.9689 24.1067 23.1111Z" fill="#E1E2E9"/>
</g>
<defs>
<clipPath id="clip0_147_1993">
<rect width="32" height="32" fill="white"/>
</clipPath>
</defs>
</svg>
