<svg width="32" height="32" viewBox="0 0 32 32" fill="none" xmlns="http://www.w3.org/2000/svg">
    <path fill-rule="evenodd" clip-rule="evenodd"
        d="M19.883 28.2836L13.8428 32L3.21282 25.467L0 25.8191L1.89099 23.0415C1.89099 18.3863 1.89099 14.2201 1.89099 9.5648V9.467H4.57141V9.5648C4.57141 14.2005 4.57141 18.3667 4.57141 23.022L13.8428 28.7139L16.4682 27.0905L7.21521 21.3986V14.0635C7.21521 10.8949 7.21521 8.21514 7.21521 5.06602V4.9682H9.87718V5.06602C9.87718 8.23475 9.87718 10.9144 9.87718 14.0831V19.7556L14.412 22.5525L19.1486 25.467L21.7739 23.8435L12.521 18.1515V17.33C12.521 11.4425 12.521 6.02444 12.521 0.11736V0H15.1829V0.0977994C15.1829 5.71148 15.1829 10.8557 15.1829 16.4889L19.8462 19.3448L23.1142 21.3594V11.599L17.79 8.35208V5.06602L20.8744 6.96332C21.2783 6.51344 21.572 5.9462 21.7189 5.33985C21.9575 4.36185 21.829 3.32519 21.3517 2.46455L21.2966 2.36675L23.6098 0.938872L23.6649 1.03667C24.4911 2.56235 24.7114 4.38142 24.2891 6.08313C24.0689 6.9242 23.72 7.72615 23.2059 8.41075L25.7211 9.95602V13.066C26.529 12.9486 27.3735 13.0073 28.163 13.242L28.2546 13.2616C29.8152 13.731 31.1371 14.8264 31.9449 16.3325L32 16.4304L29.6868 17.8582L29.6317 17.7603C29.1726 16.8997 28.42 16.2739 27.5203 16L27.4837 15.9804C26.9145 15.824 26.3086 15.8044 25.7396 15.9609V24.6455L19.883 28.2836Z"
        fill="#FEC119" />
</svg>