<svg width="32" height="32" viewBox="0 0 33 33" fill="none" xmlns="http://www.w3.org/2000/svg">
    <path opacity="0.653" fill-rule="evenodd" clip-rule="evenodd"
        d="M14.8696 0.43987C12.4745 0.468114 10.0732 0.493402 7.66577 0.515694C7.89906 0.484303 8.13921 0.465347 8.38615 0.458826C10.5472 0.43987 12.7084 0.43355 14.8696 0.43987Z"
        fill="#FEFFFE" />
    <path fill-rule="evenodd" clip-rule="evenodd"
        d="M14.8697 0.43987C18.1177 0.43355 21.3657 0.43987 24.6137 0.458826C25.0132 0.466598 25.405 0.498216 25.7891 0.553606C26.1736 0.616699 26.5612 0.684645 26.9521 0.757444C27.0352 0.772923 27.1097 0.811439 27.1903 0.83704V0.83704C27.2858 0.867393 27.3896 0.883062 27.4828 0.919837C27.552 0.947124 27.6235 0.969662 27.6974 0.987445C27.7625 1.0031 27.8183 1.04174 27.8801 1.06729V1.06729C27.9448 1.09401 28.0179 1.10891 28.0777 1.14513C28.1304 1.177 28.1857 1.204 28.2434 1.22613C28.3465 1.26559 28.4442 1.31976 28.5386 1.3768C28.5782 1.40069 28.6201 1.42095 28.6644 1.43757C28.7163 1.45703 28.7605 1.49276 28.8044 1.52647C28.8241 1.54156 28.8459 1.55343 28.8699 1.56209C28.9089 1.57616 28.9403 1.60771 28.9732 1.63284C28.9749 1.63415 28.9767 1.63538 28.9785 1.63656C29.0153 1.66068 29.055 1.68758 29.0916 1.71199V1.71199C29.1283 1.7364 29.1692 1.76408 29.206 1.78821C29.2069 1.78881 29.2078 1.78939 29.2087 1.78995C29.2454 1.8121 29.2861 1.83311 29.3155 1.86419C29.3253 1.87454 29.3362 1.88347 29.3481 1.89096C29.3937 1.91965 29.4412 1.94941 29.478 1.98874C29.4917 2.00333 29.5067 2.01622 29.5229 2.02741C29.5788 2.0658 29.6378 2.10249 29.6826 2.15336C29.7424 2.22143 29.8124 2.27708 29.8923 2.32031C29.9101 2.32995 29.9174 2.35211 29.9328 2.36531V2.36531C29.9462 2.37685 29.9655 2.38233 29.9759 2.39669C30.0137 2.44872 30.0579 2.49438 30.1085 2.53363C30.1342 2.55357 30.1522 2.58231 30.174 2.60643V2.60643C30.2003 2.63554 30.2342 2.65898 30.2541 2.69281C30.2952 2.76259 30.3462 2.8243 30.4072 2.87796C30.4581 2.9227 30.4948 2.98176 30.5332 3.03758C30.5444 3.05386 30.5573 3.06882 30.5719 3.08247C30.6112 3.11928 30.641 3.16683 30.6696 3.21243C30.6771 3.22435 30.6861 3.23521 30.6964 3.24499C30.7275 3.27438 30.7485 3.31515 30.7707 3.35175C30.7712 3.35268 30.7718 3.35361 30.7724 3.35452C30.7965 3.39133 30.8242 3.43223 30.8486 3.46885V3.46885C30.873 3.50546 30.8999 3.54518 30.9241 3.58199C30.9249 3.5833 30.9258 3.5846 30.9267 3.58586C30.9511 3.61911 30.9766 3.65612 30.9974 3.69172C31.0014 3.69862 31.0063 3.70492 31.0121 3.7106C31.0346 3.7329 31.0496 3.76605 31.0678 3.792V3.792C31.0813 3.81119 31.0982 3.82866 31.1037 3.85146C31.1123 3.88719 31.1272 3.91872 31.1482 3.94603C31.182 3.98982 31.2193 4.03262 31.2392 4.08421C31.2661 4.15409 31.2983 4.22068 31.3358 4.28397C31.3751 4.3504 31.3986 4.42512 31.4237 4.49814C31.429 4.51357 31.4351 4.52858 31.4421 4.54314C31.4775 4.61679 31.5015 4.7006 31.5392 4.77309V4.77309C31.5645 4.82174 31.5987 4.86527 31.6147 4.91776C31.8766 5.78082 32.0327 6.664 32.0829 7.5673C32.1272 12.3694 32.1335 17.1716 32.1019 21.9738C32.0963 23.0233 32.071 24.0722 32.0261 25.1205C31.962 25.8967 31.8017 26.6511 31.5453 27.3837C31.5252 27.4411 31.4855 27.4882 31.4596 27.5432V27.5432C31.4267 27.6132 31.4149 27.695 31.3757 27.7616C31.3081 27.8764 31.2493 27.9966 31.1993 28.1224C31.1821 28.1658 31.1403 28.1942 31.1142 28.2329V28.2329C31.0879 28.272 31.073 28.3213 31.0498 28.3624C31.0449 28.3712 31.0405 28.3804 31.0367 28.39C31.0216 28.429 30.9903 28.4611 30.9653 28.4946C30.9641 28.4961 30.963 28.4976 30.962 28.4992C30.9378 28.536 30.911 28.5757 30.8865 28.6124V28.6124C30.8621 28.649 30.8344 28.6899 30.8103 28.7267C30.8097 28.7276 30.8091 28.7285 30.8086 28.7295C30.7864 28.7661 30.7654 28.8068 30.7343 28.8362C30.724 28.846 30.7151 28.8569 30.7076 28.8688C30.6789 28.9144 30.6491 28.9619 30.6098 28.9987C30.5976 29.0101 30.5867 29.0224 30.5769 29.0356C30.5332 29.0944 30.4859 29.1538 30.438 29.2092C30.4346 29.2131 30.4313 29.2171 30.4282 29.2212C30.3812 29.2821 30.3362 29.3476 30.2833 29.4034C30.276 29.4112 30.2689 29.4192 30.2621 29.4275C30.2351 29.4606 30.208 29.494 30.1756 29.5219C30.0664 29.6156 29.9654 29.7175 29.8725 29.8275C29.855 29.8483 29.8303 29.8622 29.8089 29.8788V29.8788C29.7739 29.9059 29.745 29.9426 29.7062 29.9637C29.6648 29.9862 29.6283 30.015 29.5968 30.0501C29.5579 30.0935 29.5046 30.123 29.4565 30.1558C29.4519 30.159 29.4474 30.1624 29.4431 30.166C29.4004 30.202 29.3532 30.2374 29.3067 30.2683C29.2961 30.2753 29.2864 30.2835 29.2776 30.2928C29.2482 30.3239 29.2074 30.3449 29.1708 30.3671C29.1699 30.3676 29.169 30.3682 29.1681 30.3688C29.1313 30.393 29.0903 30.4206 29.0537 30.445V30.445C29.0171 30.4695 28.9774 30.4964 28.9406 30.5205C28.939 30.5215 28.9374 30.5226 28.9359 30.5237C28.9025 30.5488 28.8703 30.5801 28.8314 30.5952C28.8218 30.599 28.8125 30.6033 28.8037 30.6083C28.7627 30.6315 28.7143 30.6463 28.6749 30.6723C28.6733 30.6734 28.6717 30.6745 28.6701 30.6757C28.6353 30.7021 28.6108 30.7425 28.5716 30.7618C27.4465 31.3156 26.2536 31.6025 24.9929 31.6224C19.3437 31.6875 13.6944 31.6938 8.04502 31.6413C6.97096 31.594 5.9356 31.3769 4.93893 30.9899C4.88706 30.9697 4.8444 30.9333 4.79495 30.9078V30.9078C4.7219 30.8701 4.63491 30.8559 4.56637 30.8105C4.44723 30.7317 4.32184 30.6622 4.19021 30.6022C4.15827 30.5876 4.13687 30.5576 4.11216 30.5326C4.10761 30.528 4.10266 30.524 4.09732 30.5205C4.06051 30.4964 4.02079 30.4695 3.98417 30.445V30.445C3.94756 30.4206 3.90664 30.393 3.86983 30.3688C3.86648 30.3666 3.86297 30.3646 3.85931 30.3629C3.8261 30.3469 3.7936 30.3244 3.76573 30.3003C3.75342 30.2896 3.73857 30.2825 3.72118 30.279C3.7017 30.275 3.68789 30.2561 3.67148 30.2449V30.2449C3.65915 30.2364 3.64417 30.2288 3.63703 30.2156C3.62735 30.1978 3.61446 30.1845 3.59836 30.1756C3.56349 30.1565 3.52738 30.1331 3.4965 30.108V30.108C3.47488 30.0904 3.45421 30.0698 3.43692 30.0479C3.43197 30.0417 3.42645 30.0362 3.42037 30.0315C3.38074 30.0011 3.32889 29.9831 3.29586 29.9457C3.2803 29.928 3.26338 29.9117 3.24508 29.8968C3.21207 29.8698 3.18184 29.8393 3.15545 29.8058C3.11253 29.7514 3.05918 29.7102 2.99542 29.6822C2.97714 29.6742 2.96858 29.6529 2.95335 29.64V29.64C2.94009 29.6287 2.92149 29.6224 2.91285 29.6073C2.84715 29.4926 2.76088 29.3946 2.65406 29.3134C2.6343 29.2984 2.62039 29.2764 2.60578 29.2563V29.2563C2.57941 29.2201 2.54722 29.1848 2.52628 29.1452C2.52015 29.1336 2.51282 29.1229 2.50427 29.1132C2.46805 29.0718 2.42882 29.0302 2.40069 28.983C2.38444 28.9557 2.36385 28.9318 2.33893 28.9112C2.30686 28.8847 2.28909 28.844 2.26868 28.8078C2.26767 28.806 2.26661 28.8042 2.26549 28.8025C2.24137 28.7657 2.21369 28.7248 2.18927 28.6882V28.6882C2.16486 28.6516 2.13786 28.6111 2.11344 28.5745V28.5745C2.08903 28.5378 2.06213 28.4981 2.038 28.4613C2.03696 28.4597 2.03587 28.4582 2.03473 28.4566C2.00967 28.4232 1.9784 28.3911 1.96324 28.3521C1.9595 28.3425 1.95513 28.3333 1.95013 28.3245C1.92694 28.2834 1.91215 28.235 1.8862 28.1957C1.88527 28.1943 1.88431 28.1929 1.88331 28.1916C1.85698 28.1561 1.81614 28.131 1.79733 28.091C1.19781 26.8183 0.910685 25.4743 0.936015 24.059C0.889607 18.7387 0.87697 13.4184 0.8981 8.09807C0.948411 7.5389 0.999975 6.97645 1.05279 6.41067C1.06333 6.29779 1.09559 6.18818 1.12006 6.07748C1.12555 6.05261 1.13013 6.02738 1.13378 6.00178C1.14694 5.90956 1.1661 5.81788 1.18913 5.72762C1.19424 5.70761 1.19875 5.68733 1.20267 5.66677C1.22078 5.57186 1.25682 5.48284 1.28173 5.38949V5.38949C1.30426 5.30507 1.31877 5.21454 1.35184 5.13366C1.3842 5.05453 1.41028 4.97228 1.43005 4.8869C1.44306 4.83075 1.47569 4.7823 1.50104 4.73053V4.73053C1.535 4.66119 1.56523 4.58515 1.58865 4.51159V4.51159C1.60625 4.45632 1.61877 4.39548 1.64939 4.34623C1.69323 4.27573 1.73037 4.20102 1.7608 4.12212C1.7807 4.07053 1.81797 4.02773 1.85174 3.98394C1.87031 3.95987 1.88404 3.93252 1.89294 3.9019C1.90171 3.8717 1.92591 3.84869 1.93783 3.81959V3.81959C1.94791 3.79498 1.95131 3.76468 1.96885 3.74469C2.08702 3.61002 2.18798 3.4632 2.27174 3.30422C2.30442 3.24218 2.35847 3.19441 2.40571 3.1426C2.41238 3.13528 2.41863 3.12764 2.42445 3.11967C2.4668 3.06167 2.51306 3.00341 2.56053 2.94951C2.57451 2.93364 2.58654 2.91627 2.59663 2.89739C2.61844 2.8566 2.65515 2.82394 2.6821 2.78635V2.78635C2.69635 2.76646 2.70883 2.74407 2.7272 2.72792C2.90046 2.57563 3.06302 2.41263 3.21487 2.23894C3.22441 2.22803 3.24028 2.22387 3.25276 2.21652V2.21652C3.2724 2.20495 3.28338 2.18026 3.30463 2.172C3.3432 2.15702 3.37645 2.13517 3.4044 2.10645C3.44503 2.0647 3.49188 2.02753 3.54146 1.99694C3.55596 1.98799 3.5695 1.97779 3.58207 1.96633C3.63389 1.91909 3.68166 1.86505 3.7437 1.83237C3.86674 1.76755 3.9825 1.69244 4.09097 1.60702C4.1753 1.54061 4.2724 1.49232 4.36861 1.44474C4.41376 1.42241 4.45613 1.39582 4.49573 1.36497C4.53712 1.33273 4.58899 1.31304 4.63655 1.29088V1.29088C4.69062 1.26567 4.7445 1.23831 4.7973 1.21054C4.80129 1.20845 4.80519 1.20623 4.80902 1.20389C4.84685 1.18078 4.8819 1.15195 4.92347 1.13654C5.33899 0.982482 5.75946 0.851592 6.18486 0.743881C6.51267 0.660882 6.85412 0.643689 7.18396 0.569213C7.20569 0.564307 7.2273 0.559105 7.24881 0.553606C7.38007 0.516376 7.5191 0.503752 7.66587 0.515694C10.0733 0.493402 12.4746 0.468114 14.8697 0.43987Z"
        fill="#6254FF" />
    <path opacity="0.517" fill-rule="evenodd" clip-rule="evenodd"
        d="M7.2488 0.553811C7.06719 0.600253 6.87761 0.625541 6.68008 0.629635C6.65479 0.629635 6.62954 0.629635 6.60425 0.629635C6.81009 0.572312 7.02495 0.547025 7.2488 0.553811Z"
        fill="#D5D5D5" />
    <path opacity="0.507" fill-rule="evenodd" clip-rule="evenodd"
        d="M25.7891 0.554688C26.2706 0.574629 26.7382 0.650453 27.1919 0.782159C27.154 0.782159 27.1161 0.782159 27.0782 0.782159C26.6445 0.700383 26.2148 0.624559 25.7891 0.554688Z"
        fill="#BCBCBC" />
    <path opacity="0.5" fill-rule="evenodd" clip-rule="evenodd"
        d="M6.60418 0.630859C6.62947 0.630859 6.65472 0.630859 6.68001 0.630859C6.06318 0.759911 5.45654 0.936846 4.86011 1.16163C5.04513 1.06279 5.2347 0.974341 5.42883 0.896242C5.80449 0.755286 6.1963 0.666838 6.60418 0.630859Z"
        fill="#C2C2C2" />
    <path opacity="0.5" fill-rule="evenodd" clip-rule="evenodd"
        d="M27.0781 0.78125C27.116 0.78125 27.154 0.78125 27.1919 0.78125C27.3029 0.783714 27.404 0.809001 27.4952 0.857074C27.4446 0.857074 27.3941 0.857074 27.3435 0.857074C27.243 0.860486 27.1545 0.835237 27.0781 0.78125Z"
        fill="#959595" />
    <path opacity="0.486" fill-rule="evenodd" clip-rule="evenodd"
        d="M27.3435 0.855469C27.394 0.855469 27.4446 0.855469 27.4952 0.855469C27.5818 0.85907 27.6577 0.884358 27.7227 0.931292C27.7479 0.95658 27.7732 0.981829 27.7985 1.00712C27.6361 0.978265 27.4844 0.927691 27.3435 0.855469Z"
        fill="#B8B8B8" />
    <path opacity="0.099" fill-rule="evenodd" clip-rule="evenodd"
        d="M5.42891 0.894531C5.23479 0.97263 5.04521 1.06108 4.86019 1.15991C4.82174 1.20442 4.7712 1.22967 4.70853 1.23574C4.63725 1.22546 4.58671 1.25075 4.55687 1.31156C4.42447 1.34606 4.31073 1.40922 4.21564 1.50112C4.00525 1.59802 3.81568 1.72442 3.64692 1.88024C3.56165 1.90223 3.49848 1.95277 3.45735 2.03189C3.37208 2.05388 3.30891 2.10441 3.26777 2.18353C3.26777 2.20882 3.25515 2.22145 3.22986 2.22145C3.015 2.36047 2.83809 2.53737 2.69905 2.75221C2.68643 2.79012 2.66114 2.81541 2.62322 2.82804C2.5441 2.86917 2.49355 2.93233 2.47156 3.0176C2.39244 3.05873 2.3419 3.12189 2.31991 3.20716C2.16408 3.3759 2.03767 3.56546 1.94076 3.77583C1.94728 3.81344 1.93462 3.83869 1.90284 3.85166C1.83649 3.8956 1.79858 3.9588 1.7891 4.04122C1.74516 4.17963 1.68195 4.30603 1.59953 4.42034C1.54527 4.46886 1.51998 4.53206 1.5237 4.60989C1.46944 4.65842 1.44415 4.72162 1.44787 4.79945C1.36044 4.93537 1.3099 5.08702 1.29621 5.2544C1.24222 5.33079 1.21697 5.41924 1.22038 5.51978C1.21371 5.64212 1.18842 5.75586 1.14455 5.86099C1.08726 5.97639 1.06197 6.10279 1.06872 6.24011C1.01033 6.86334 0.95346 7.48255 0.898105 8.09779C0.876975 13.4182 0.889612 18.7384 0.93602 24.0587C0.910276 25.4971 1.2073 26.862 1.82701 28.1532C1.82425 28.2111 1.84954 28.249 1.90284 28.2669C1.94736 28.3053 1.97261 28.3559 1.97867 28.4186C1.97591 28.4764 2.00119 28.5144 2.0545 28.5323C2.05174 28.5902 2.07702 28.6281 2.13033 28.646C2.12756 28.7039 2.15285 28.7418 2.20616 28.7598C2.20339 28.8176 2.22868 28.8556 2.28199 28.8735C2.30398 28.9588 2.35452 29.0219 2.43365 29.0631C2.44267 29.1352 2.48059 29.1858 2.54739 29.2147C2.58531 29.2273 2.6106 29.2526 2.62322 29.2905C2.6964 29.427 2.79752 29.5407 2.92654 29.6317C2.95183 29.6317 2.96445 29.6444 2.96445 29.6696C3.01795 29.7612 3.09378 29.8244 3.19194 29.8592C3.25515 29.8971 3.30569 29.9477 3.3436 30.0108C3.36154 30.0642 3.39945 30.0894 3.45735 30.0867C3.49526 30.0993 3.52055 30.1246 3.53318 30.1625C3.55111 30.2158 3.58902 30.2411 3.64692 30.2383C3.67221 30.2383 3.68483 30.2509 3.68483 30.2762C3.70277 30.3295 3.74068 30.3548 3.79858 30.3521C3.81651 30.4054 3.85443 30.4306 3.91232 30.4279C3.93026 30.4812 3.96817 30.5065 4.02607 30.5037C4.044 30.557 4.08191 30.5823 4.13981 30.5795C4.32938 30.6616 4.50633 30.7627 4.67062 30.8828C4.71915 30.9371 4.78235 30.9624 4.86019 30.9586C5.88104 31.365 6.94265 31.5925 8.04502 31.6411C13.6944 31.6936 19.3437 31.6872 24.9929 31.6221C26.2764 31.6018 27.4897 31.3049 28.6327 30.7312C28.6906 30.7339 28.7285 30.7087 28.7464 30.6554C28.7849 30.6108 28.8354 30.5856 28.8981 30.5795C28.956 30.5823 28.9939 30.557 29.0118 30.5037C29.0697 30.5065 29.1076 30.4812 29.1256 30.4279C29.1835 30.4306 29.2214 30.4054 29.2393 30.3521C29.3115 30.343 29.3621 30.3051 29.391 30.2383C29.4632 30.2293 29.5138 30.1914 29.5426 30.1246C29.6408 30.0897 29.7166 30.0265 29.7701 29.935C29.7828 29.8971 29.808 29.8718 29.846 29.8592C30.0102 29.7708 30.1367 29.6444 30.2251 29.4801C30.263 29.4169 30.3136 29.3663 30.3768 29.3284C30.4559 29.2873 30.5064 29.2241 30.5284 29.1389C30.6076 29.0977 30.6581 29.0346 30.6801 28.9493C30.7469 28.9204 30.7848 28.8699 30.7938 28.7977C30.8471 28.7797 30.8724 28.7418 30.8697 28.6839C30.923 28.666 30.9483 28.6281 30.9455 28.5702C30.9988 28.5523 31.0241 28.5144 31.0213 28.4565C31.0274 28.3938 31.0526 28.3433 31.0971 28.3048C31.1505 28.2869 31.1757 28.249 31.173 28.1911C31.2422 28.0021 31.3307 27.8252 31.4384 27.6603C31.4926 27.6118 31.5179 27.5486 31.5142 27.4708C31.7888 26.7108 31.9594 25.9272 32.0261 25.1202C32.071 24.072 32.0963 23.023 32.1019 21.9735C32.1335 17.1713 32.1272 12.3691 32.0829 7.56702C32.0312 6.63575 31.8669 5.72587 31.59 4.83737C31.5938 4.75953 31.5685 4.69633 31.5142 4.64781C31.5064 4.54389 31.4684 4.45544 31.4005 4.38242C31.318 4.26812 31.2548 4.14172 31.2109 4.0033C31.2014 3.92088 31.1635 3.85769 31.0971 3.81375C31.0654 3.80078 31.0527 3.77553 31.0592 3.73792C31.062 3.68003 31.0367 3.64212 30.9834 3.62419C30.9862 3.56629 30.9609 3.52838 30.9076 3.51045C30.9103 3.45256 30.8851 3.41465 30.8317 3.39671C30.8345 3.33882 30.8092 3.30091 30.7559 3.28298C30.7469 3.2108 30.709 3.16022 30.6422 3.13133C30.6202 3.04607 30.5696 2.98291 30.4905 2.94177C30.4301 2.81803 30.3416 2.71692 30.2251 2.63848C30.1872 2.62585 30.1619 2.60057 30.1493 2.56265C30.124 2.46154 30.0608 2.39838 29.9597 2.37309C29.9344 2.37309 29.9218 2.36047 29.9218 2.33518C29.8433 2.21868 29.7422 2.13023 29.6185 2.0698C29.5773 1.99068 29.5142 1.94014 29.4289 1.91815C29.4 1.85135 29.3494 1.81344 29.2772 1.80442C29.2593 1.75111 29.2214 1.72582 29.1635 1.72859C29.1456 1.67529 29.1076 1.65 29.0498 1.65277C29.0318 1.59946 28.9939 1.57418 28.936 1.57694C28.8921 1.5106 28.8289 1.47269 28.7464 1.46321C28.6513 1.37131 28.5376 1.30815 28.4052 1.27365C28.2819 1.1805 28.1429 1.1173 27.9881 1.08409C27.9396 1.02984 27.8764 1.00455 27.7986 1.00827C27.7733 0.98298 27.748 0.95773 27.7227 0.932443C30.0007 1.7002 31.4731 3.24196 32.1398 5.55769C32.3498 6.39115 32.4636 7.23783 32.481 8.09779C32.5063 13.6582 32.5063 19.2186 32.481 24.779C32.4821 26.1005 32.2167 27.3642 31.6848 28.5702C30.5814 30.6615 28.8562 31.8936 26.5095 32.2666C25.9688 32.3468 25.4254 32.3973 24.8791 32.4183C19.3057 32.4435 13.7322 32.4435 8.15877 32.4183C6.75979 32.4191 5.43278 32.1158 4.17772 31.5084C1.96882 30.2082 0.774496 28.2684 0.594788 25.6889C0.556896 25.1588 0.531618 24.628 0.518958 24.0966C0.493681 18.9785 0.493681 13.8604 0.518958 8.74229C0.506765 7.63879 0.63315 6.55201 0.898105 5.48187C1.61579 3.16564 3.12605 1.63654 5.42891 0.894531Z"
        fill="#080808" />
    <path opacity="0.505" fill-rule="evenodd" clip-rule="evenodd"
        d="M27.7986 1.00817C27.8764 1.00445 27.9396 1.02974 27.9882 1.08399C27.9103 1.08771 27.8471 1.06242 27.7986 1.00817Z"
        fill="#FEFFFE" />
    <path opacity="0.521" fill-rule="evenodd" clip-rule="evenodd"
        d="M27.988 1.08398C28.1428 1.1172 28.2818 1.18039 28.4051 1.27354C28.2503 1.24033 28.1113 1.17713 27.988 1.08398Z"
        fill="#FDFDFD" />
    <path opacity="0.465" fill-rule="evenodd" clip-rule="evenodd"
        d="M4.70854 1.23465C4.6701 1.27916 4.61956 1.30441 4.55688 1.31047C4.58672 1.24966 4.63726 1.22437 4.70854 1.23465Z"
        fill="#FDFDFD" />
    <path opacity="0.716" fill-rule="evenodd" clip-rule="evenodd"
        d="M28.4053 1.27539C28.5377 1.30989 28.6514 1.37305 28.7465 1.46495C28.6141 1.43045 28.5004 1.36729 28.4053 1.27539Z"
        fill="#F4F4F4" />
    <path opacity="0.673" fill-rule="evenodd" clip-rule="evenodd"
        d="M4.55681 1.31055C4.46172 1.40245 4.34797 1.46561 4.21558 1.50011C4.31067 1.40821 4.42441 1.34505 4.55681 1.31055Z"
        fill="#F7F7F7" />
    <path opacity="0.773" fill-rule="evenodd" clip-rule="evenodd"
        d="M28.7463 1.46484C28.8288 1.47432 28.892 1.51223 28.9359 1.57858C28.8535 1.5691 28.7903 1.53119 28.7463 1.46484Z"
        fill="#FCFCFC" />
    <path opacity="0.631" fill-rule="evenodd" clip-rule="evenodd"
        d="M28.936 1.57833C28.9939 1.57556 29.0318 1.60085 29.0498 1.65415C28.9919 1.65692 28.954 1.63163 28.936 1.57833Z"
        fill="#FBFBFB" />
    <path opacity="0.341" fill-rule="evenodd" clip-rule="evenodd"
        d="M29.0498 1.65255C29.1077 1.64978 29.1456 1.67507 29.1635 1.72837C29.1057 1.73114 29.0677 1.70585 29.0498 1.65255Z"
        fill="#F9F9F9" />
    <path opacity="0.337" fill-rule="evenodd" clip-rule="evenodd"
        d="M29.1636 1.72872C29.2215 1.72595 29.2594 1.75124 29.2773 1.80454C29.2194 1.80731 29.1815 1.78202 29.1636 1.72872Z"
        fill="#F9F9F9" />
    <path opacity="0.176" fill-rule="evenodd" clip-rule="evenodd"
        d="M29.2773 1.80469C29.3495 1.81371 29.4001 1.85162 29.429 1.91842C29.3568 1.9094 29.3062 1.87149 29.2773 1.80469Z"
        fill="#F7F7F7" />
    <path opacity="0.686" fill-rule="evenodd" clip-rule="evenodd"
        d="M29.429 1.91797C29.5142 1.93996 29.5774 1.99049 29.6185 2.06962C29.5333 2.04763 29.4701 1.99709 29.429 1.91797Z"
        fill="#F1F1F1" />
    <path opacity="0.118" fill-rule="evenodd" clip-rule="evenodd"
        d="M29.6184 2.07031C29.7422 2.13074 29.8433 2.21919 29.9217 2.3357C29.798 2.27526 29.6969 2.18682 29.6184 2.07031Z"
        fill="#F3F3F3" />
    <path opacity="0.039" fill-rule="evenodd" clip-rule="evenodd"
        d="M29.9597 2.37305C30.0608 2.39833 30.124 2.4615 30.1493 2.56261C30.0735 2.51207 30.0103 2.44887 29.9597 2.37305Z"
        fill="#C1C1C1" />
    <path opacity="0.716" fill-rule="evenodd" clip-rule="evenodd"
        d="M30.2251 2.63867C30.3416 2.71711 30.4301 2.81822 30.4905 2.94197C30.374 2.86353 30.2855 2.76242 30.2251 2.63867Z"
        fill="#F5F5F5" />
    <path opacity="0.992" fill-rule="evenodd" clip-rule="evenodd"
        d="M30.4905 2.94336C30.5696 2.98449 30.6201 3.04765 30.6421 3.13292C30.563 3.09178 30.5125 3.02862 30.4905 2.94336Z"
        fill="#EEEEEE" />
    <path opacity="0.98" fill-rule="evenodd" clip-rule="evenodd"
        d="M30.6421 3.13281C30.7089 3.1617 30.7468 3.21228 30.7558 3.28446C30.689 3.25557 30.6511 3.205 30.6421 3.13281Z"
        fill="#F4F4F4" />
    <path opacity="0.973" fill-rule="evenodd" clip-rule="evenodd"
        d="M30.7558 3.2832C30.8091 3.30114 30.8344 3.33905 30.8316 3.39694C30.7783 3.37901 30.7531 3.34109 30.7558 3.2832Z"
        fill="#F8F8F8" />
    <path opacity="0.976" fill-rule="evenodd" clip-rule="evenodd"
        d="M30.8317 3.39844C30.8851 3.41637 30.9103 3.45428 30.9076 3.51217C30.8543 3.49424 30.829 3.45633 30.8317 3.39844Z"
        fill="#F6F6F6" />
    <path opacity="0.976" fill-rule="evenodd" clip-rule="evenodd"
        d="M30.9077 3.51172C30.961 3.52965 30.9863 3.56756 30.9835 3.62545C30.9302 3.60752 30.9049 3.56961 30.9077 3.51172Z"
        fill="#F7F7F7" />
    <path opacity="0.761" fill-rule="evenodd" clip-rule="evenodd"
        d="M30.9834 3.62305C31.0367 3.64098 31.062 3.67889 31.0592 3.73678C31.0059 3.71885 30.9806 3.68094 30.9834 3.62305Z"
        fill="#F6F6F6" />
    <path opacity="0.573" fill-rule="evenodd" clip-rule="evenodd"
        d="M31.0972 3.81445C31.1635 3.85839 31.2014 3.92159 31.2109 4.00401C31.1446 3.96007 31.1066 3.89687 31.0972 3.81445Z"
        fill="#EAEAEA" />
    <path opacity="0.616" fill-rule="evenodd" clip-rule="evenodd"
        d="M31.4004 4.38281C31.4684 4.45583 31.5063 4.54428 31.5141 4.6482C31.4462 4.57518 31.4082 4.48673 31.4004 4.38281Z"
        fill="#E7E7E7" />
    <path opacity="0.475" fill-rule="evenodd" clip-rule="evenodd"
        d="M31.5143 4.64844C31.5685 4.69696 31.5938 4.76016 31.5901 4.838C31.5358 4.78947 31.5106 4.72627 31.5143 4.64844Z"
        fill="#E4E4E4" />
    <path fill-rule="evenodd" clip-rule="evenodd"
        d="M12.1018 14.8451C11.7464 14.2616 11.4051 13.6676 11.0781 13.0633C11.3712 12.5151 11.6745 11.9718 11.988 11.4331C11.3565 11.4015 10.7246 11.3825 10.0923 11.3762C9.74151 10.8011 9.40028 10.2198 9.0686 9.63225C14.0228 9.60696 18.977 9.60696 23.9312 9.63225C23.5995 10.2198 23.2582 10.8011 22.9075 11.3762C19.9627 11.3888 17.0181 11.4015 14.0733 11.4141C13.4075 12.5535 12.7503 13.6972 12.1018 14.8451Z"
        fill="#FEFDFF" />
    <path fill-rule="evenodd" clip-rule="evenodd"
        d="M14.4905 12.194C15.1794 12.1437 15.8745 12.1437 16.5758 12.194C16.5711 12.217 16.5585 12.2296 16.5379 12.2319C15.862 12.1941 15.1795 12.1815 14.4905 12.194Z"
        fill="#BEB8FF" />
    <path fill-rule="evenodd" clip-rule="evenodd"
        d="M20.4053 12.194C21.0816 12.1437 21.7641 12.1437 22.4527 12.194C22.448 12.217 22.4353 12.2296 22.4148 12.2319C21.7515 12.1941 21.0817 12.1815 20.4053 12.194Z"
        fill="#BFB9FF" />
    <path fill-rule="evenodd" clip-rule="evenodd"
        d="M14.4904 12.1922C15.1795 12.1797 15.862 12.1923 16.5378 12.2301C15.5516 13.9498 14.5658 15.6685 13.5805 17.3861C13.059 16.5583 12.5661 15.7116 12.1018 14.846C12.4021 14.8579 12.6991 14.8453 12.9928 14.8081C13.4924 13.9351 13.9917 13.0631 14.4904 12.1922Z"
        fill="#FDFDFF" />
    <path fill-rule="evenodd" clip-rule="evenodd"
        d="M15.0592 19.8891C15.0339 19.8891 15.0087 19.8891 14.9834 19.8891C14.5147 19.0544 14.0471 18.2203 13.5806 17.3869C13.8809 17.3989 14.1778 17.3862 14.4716 17.349C15.4589 15.6209 16.451 13.8959 17.4479 12.174C18.1307 12.1424 18.8131 12.1488 19.4953 12.193C18.0257 14.7656 16.547 17.331 15.0592 19.8891Z"
        fill="#FDFDFF" />
    <path fill-rule="evenodd" clip-rule="evenodd"
        d="M20.4053 12.1922C21.0817 12.1797 21.7516 12.1923 22.4148 12.2301C20.4594 15.6513 18.4878 19.0634 16.5001 22.4663C16.0098 21.65 15.5296 20.8286 15.0593 20.002C15.3374 19.9767 15.6154 19.9515 15.8934 19.9262C17.3974 17.3482 18.9013 14.7702 20.4053 12.1922Z"
        fill="#FEFDFF" />
    <path fill-rule="evenodd" clip-rule="evenodd"
        d="M14.9834 19.8887C15.0087 19.8887 15.0339 19.8887 15.0592 19.8887C15.3302 19.9263 15.6083 19.9389 15.8934 19.9266C15.6153 19.9519 15.3373 19.9771 15.0592 20.0024C15.0251 19.9725 14.9998 19.9345 14.9834 19.8887Z"
        fill="#A39AFF" />
    <path opacity="0.773" fill-rule="evenodd" clip-rule="evenodd"
        d="M31.5142 27.4707C31.5179 27.5485 31.4926 27.6117 31.4383 27.6603C31.4346 27.5824 31.4599 27.5192 31.5142 27.4707Z"
        fill="#D3D3D3" />
    <path opacity="0.694" fill-rule="evenodd" clip-rule="evenodd"
        d="M31.173 28.1914C31.1757 28.2493 31.1504 28.2872 31.0971 28.3051C31.0944 28.2473 31.1196 28.2093 31.173 28.1914Z"
        fill="#CACACA" />
    <path opacity="0.514" fill-rule="evenodd" clip-rule="evenodd"
        d="M31.0213 28.457C31.0241 28.5149 30.9988 28.5528 30.9455 28.5708C30.9427 28.5129 30.968 28.475 31.0213 28.457Z"
        fill="#AAAAAA" />
    <path opacity="0.518" fill-rule="evenodd" clip-rule="evenodd"
        d="M30.9454 28.5703C30.9482 28.6282 30.9229 28.6661 30.8696 28.684C30.8668 28.6262 30.8921 28.5882 30.9454 28.5703Z"
        fill="#A9A9A9" />
    <path opacity="0.514" fill-rule="evenodd" clip-rule="evenodd"
        d="M30.8697 28.6855C30.8725 28.7434 30.8472 28.7814 30.7939 28.7993C30.7911 28.7414 30.8164 28.7035 30.8697 28.6855Z"
        fill="#A8A8A8" />
    <path opacity="0.455" fill-rule="evenodd" clip-rule="evenodd"
        d="M30.7939 28.7969C30.7849 28.8691 30.747 28.9196 30.6802 28.9485C30.6892 28.8763 30.7271 28.8258 30.7939 28.7969Z"
        fill="#ABABAB" />
    <path opacity="0.647" fill-rule="evenodd" clip-rule="evenodd"
        d="M30.68 28.9492C30.658 29.0345 30.6074 29.0976 30.5283 29.1388C30.5503 29.0535 30.6009 28.9904 30.68 28.9492Z"
        fill="#B6B6B6" />
    <path opacity="0.522" fill-rule="evenodd" clip-rule="evenodd"
        d="M30.5284 29.1387C30.5064 29.2239 30.4558 29.2871 30.3767 29.3282C30.3987 29.243 30.4492 29.1798 30.5284 29.1387Z"
        fill="#B8B8B8" />
    <path opacity="0.4" fill-rule="evenodd" clip-rule="evenodd"
        d="M30.2251 29.4805C30.1366 29.6447 30.0102 29.7711 29.8459 29.8596C29.9597 29.7206 30.0861 29.5942 30.2251 29.4805Z"
        fill="#818181" />
    <path opacity="0.29" fill-rule="evenodd" clip-rule="evenodd"
        d="M29.7702 29.9355C29.7167 30.0271 29.6409 30.0903 29.5427 30.1251C29.5962 30.0336 29.6721 29.9704 29.7702 29.9355Z"
        fill="#777777" />
    <path opacity="0.4" fill-rule="evenodd" clip-rule="evenodd"
        d="M29.5425 30.125C29.5136 30.1918 29.4631 30.2297 29.3909 30.2387C29.4198 30.1719 29.4703 30.134 29.5425 30.125Z"
        fill="#8E8E8E" />
    <path opacity="0.482" fill-rule="evenodd" clip-rule="evenodd"
        d="M29.3909 30.2383C29.362 30.3051 29.3114 30.343 29.2393 30.352C29.2681 30.2852 29.3187 30.2473 29.3909 30.2383Z"
        fill="#AAAAAA" />
    <path opacity="0.357" fill-rule="evenodd" clip-rule="evenodd"
        d="M29.2392 30.3537C29.2213 30.407 29.1834 30.4323 29.1255 30.4295C29.1434 30.3762 29.1813 30.351 29.2392 30.3537Z"
        fill="#8D8D8D" />
    <path opacity="0.357" fill-rule="evenodd" clip-rule="evenodd"
        d="M29.1255 30.4279C29.1075 30.4812 29.0696 30.5065 29.0117 30.5038C29.0297 30.4505 29.0676 30.4252 29.1255 30.4279Z"
        fill="#8F8F8F" />
    <path opacity="0.361" fill-rule="evenodd" clip-rule="evenodd"
        d="M29.0119 30.5041C28.994 30.5574 28.9561 30.5827 28.8982 30.5799C28.9161 30.5266 28.954 30.5013 29.0119 30.5041Z"
        fill="#909090" />
    <path opacity="0.42" fill-rule="evenodd" clip-rule="evenodd"
        d="M28.7466 30.6545C28.7286 30.7078 28.6907 30.7331 28.6328 30.7303C28.6507 30.677 28.6887 30.6517 28.7466 30.6545Z"
        fill="#AEAEAE" />
    <path opacity="0.769" fill-rule="evenodd" clip-rule="evenodd"
        d="M4.67065 30.8832C4.74849 30.8795 4.8117 30.9047 4.86023 30.959C4.78239 30.9627 4.71919 30.9374 4.67065 30.8832Z"
        fill="#C4C4C4" />
</svg>