<svg width="32" height="32" viewBox="0 0 32 32" fill="none" xmlns="http://www.w3.org/2000/svg">
    <g clip-path="url(#clip0_2089_634)">
        <path opacity="0.978" fill-rule="evenodd" clip-rule="evenodd"
            d="M9.21875 1.53125C11.0521 1.53125 12.8854 1.53125 14.7188 1.53125C14.7449 1.57635 14.7865 1.6076 14.8438 1.625C13.9781 2.33476 13.1447 3.07434 12.3438 3.84375C11.7393 3.85416 11.1351 3.84374 10.5312 3.8125C10.0693 3.06567 9.63181 2.30526 9.21875 1.53125Z"
            fill="#E10276" />
        <path opacity="0.989" fill-rule="evenodd" clip-rule="evenodd"
            d="M14.7188 1.53124C15.3441 1.52084 15.9691 1.53126 16.5938 1.56249C16.4896 1.58333 16.3854 1.60416 16.2812 1.62499C15.9468 1.85534 15.676 2.14701 15.4688 2.49999C14.9307 2.98677 14.3682 3.43469 13.7812 3.84374C13.3021 3.84374 12.8229 3.84374 12.3438 3.84374C13.1447 3.07433 13.9781 2.33475 14.8438 1.62499C14.7865 1.60759 14.7449 1.57634 14.7188 1.53124Z"
            fill="#D81C77" />
        <path opacity="0.989" fill-rule="evenodd" clip-rule="evenodd"
            d="M9.21875 1.5312C11.7081 1.46879 14.2081 1.44796 16.7188 1.4687C17.0191 1.5304 17.3316 1.55123 17.6562 1.5312C17.5394 1.57274 17.4144 1.61441 17.2812 1.6562C16.5574 2.34919 15.8074 3.00544 15.0312 3.62495C14.9809 3.69449 14.9392 3.76741 14.9062 3.8437C14.5312 3.8437 14.1562 3.8437 13.7812 3.8437C14.3682 3.43464 14.9307 2.98672 15.4688 2.49995C15.676 2.14697 15.9468 1.8553 16.2812 1.62495C16.3854 1.60412 16.4896 1.58328 16.5938 1.56245C15.9691 1.53121 15.3441 1.52079 14.7188 1.5312C12.8854 1.5312 11.0521 1.5312 9.21875 1.5312Z"
            fill="#D42E7C" />
        <path opacity="0.988" fill-rule="evenodd" clip-rule="evenodd"
            d="M17.6562 1.53125C18.0938 1.53125 18.5312 1.53125 18.9688 1.53125C18.8994 1.58063 18.8161 1.61188 18.7188 1.625C18.5284 1.81541 18.3201 1.98208 18.0938 2.125C17.4805 2.68611 16.8763 3.25902 16.2812 3.84375C15.8229 3.84375 15.3646 3.84375 14.9062 3.84375C14.9392 3.76746 14.9809 3.69454 15.0312 3.625C15.8074 3.00549 16.5574 2.34924 17.2812 1.65625C17.4144 1.61446 17.5394 1.57279 17.6562 1.53125Z"
            fill="#CB397C" />
        <path opacity="0.99" fill-rule="evenodd" clip-rule="evenodd"
            d="M18.9688 1.53121C19.2196 1.52086 19.4696 1.53128 19.7188 1.56246C19.6354 1.58329 19.5521 1.60413 19.4688 1.62496C19.2926 1.7859 19.1051 1.93173 18.9062 2.06246C18.2675 2.66175 17.6216 3.2555 16.9688 3.84371C16.7396 3.84371 16.5104 3.84371 16.2812 3.84371C16.8763 3.25898 17.4805 2.68607 18.0938 2.12496C18.3201 1.98204 18.5284 1.81537 18.7188 1.62496C18.8161 1.61183 18.8994 1.58058 18.9688 1.53121Z"
            fill="#C6417F" />
        <path opacity="0.99" fill-rule="evenodd" clip-rule="evenodd"
            d="M16.7188 1.46875C17.8438 1.46875 18.9688 1.46875 20.0938 1.46875C20.1824 1.52819 20.2866 1.54903 20.4062 1.53125C19.4956 2.25394 18.6206 3.02477 17.7812 3.84375C17.5104 3.84375 17.2396 3.84375 16.9688 3.84375C17.6216 3.25554 18.2675 2.66179 18.9062 2.0625C19.1051 1.93177 19.2926 1.78594 19.4688 1.625C19.5521 1.60417 19.6354 1.58333 19.7188 1.5625C19.4696 1.53132 19.2196 1.52091 18.9688 1.53125C18.5312 1.53125 18.0938 1.53125 17.6562 1.53125C17.3316 1.55128 17.0191 1.53045 16.7188 1.46875Z"
            fill="#C34A83" />
        <path opacity="0.99" fill-rule="evenodd" clip-rule="evenodd"
            d="M20.4062 1.53125C20.6562 1.53125 20.9062 1.53125 21.1562 1.53125C20.3144 2.32281 19.4603 3.09364 18.5938 3.84375C18.3229 3.84375 18.0521 3.84375 17.7812 3.84375C18.6206 3.02477 19.4956 2.25394 20.4062 1.53125Z"
            fill="#BD4E84" />
        <path opacity="0.99" fill-rule="evenodd" clip-rule="evenodd"
            d="M21.1562 1.53125C21.5104 1.53125 21.8646 1.53125 22.2188 1.53125C22.1019 1.57279 21.9769 1.61446 21.8438 1.65625C21.0066 2.36901 20.1941 3.09818 19.4062 3.84375C19.1354 3.84375 18.8646 3.84375 18.5938 3.84375C19.4603 3.09364 20.3144 2.32281 21.1562 1.53125Z"
            fill="#B95487" />
        <path opacity="0.99" fill-rule="evenodd" clip-rule="evenodd"
            d="M22.2188 1.5312C22.4489 1.52087 22.678 1.53129 22.9062 1.56245C22.0583 2.33331 21.2041 3.09373 20.3438 3.8437C20.0312 3.8437 19.7188 3.8437 19.4062 3.8437C20.1941 3.09813 21.0066 2.36896 21.8438 1.6562C21.9769 1.61441 22.1019 1.57274 22.2188 1.5312Z"
            fill="#B45A8B" />
        <path fill-rule="evenodd" clip-rule="evenodd"
            d="M23.5312 1.46875C23.6521 1.54011 23.7458 1.64427 23.8125 1.78125C24.1308 2.33801 24.4328 2.90051 24.7188 3.46875C24.8149 3.61083 24.7941 3.73583 24.6562 3.84375C24.0742 4.19594 23.4909 4.55011 22.9062 4.90625C22.7117 4.76531 22.67 4.60906 22.7812 4.4375C22.6443 4.37963 22.5192 4.30671 22.4062 4.21875C22.3005 4.1122 22.2172 3.9872 22.1562 3.84375C22.6139 3.0538 23.0722 2.26213 23.5312 1.46875Z"
            fill="#084481" />
        <path opacity="0.95" fill-rule="evenodd" clip-rule="evenodd"
            d="M9.34375 6.46875C8.72794 6.97481 8.12375 7.49563 7.53125 8.03125C6.74631 6.733 5.97548 5.42047 5.21875 4.09375C5.67176 3.29177 6.14051 2.50011 6.625 1.71875C7.58012 3.27496 8.48637 4.85829 9.34375 6.46875Z"
            fill="#E10276" />
        <path opacity="0.987" fill-rule="evenodd" clip-rule="evenodd"
            d="M20.0938 1.46875C21.2396 1.46875 22.3854 1.46875 23.5312 1.46875C23.0722 2.26213 22.6139 3.0538 22.1562 3.84375C21.5521 3.84375 20.9479 3.84375 20.3438 3.84375C21.2041 3.09378 22.0583 2.33336 22.9062 1.5625C22.678 1.53134 22.4489 1.52092 22.2188 1.53125C21.8646 1.53125 21.5104 1.53125 21.1562 1.53125C20.9062 1.53125 20.6562 1.53125 20.4062 1.53125C20.2866 1.54903 20.1824 1.52819 20.0938 1.46875Z"
            fill="#AD6290" />
        <path fill-rule="evenodd" clip-rule="evenodd"
            d="M24.7188 3.46875C25.0209 3.90598 25.2917 4.36431 25.5312 4.84375C25.3207 4.90316 25.0916 4.97608 24.8438 5.0625C24.399 5.33588 23.9407 5.58588 23.4688 5.8125C23.4268 5.87414 23.4268 5.94706 23.4688 6.03125C23.0675 5.4584 22.7133 4.85423 22.4062 4.21875C22.5192 4.30671 22.6443 4.37963 22.7812 4.4375C22.67 4.60906 22.7117 4.76531 22.9062 4.90625C23.4909 4.55011 24.0742 4.19594 24.6562 3.84375C24.7941 3.73583 24.8149 3.61083 24.7188 3.46875Z"
            fill="#2C477E" />
        <path fill-rule="evenodd" clip-rule="evenodd"
            d="M25.5315 4.84375C26.0628 5.69791 26.5628 6.57288 27.0315 7.46875C26.7776 7.58531 26.538 7.73119 26.3127 7.90625C26.2919 7.86456 26.271 7.82294 26.2502 7.78125C26.1239 7.95538 26.0301 7.93456 25.969 7.71875C25.8374 7.80613 25.7124 7.89988 25.594 8C25.7065 8.01981 25.7273 8.0615 25.6565 8.125C25.5972 8.15519 25.5347 8.16556 25.469 8.15625C25.4853 8.24863 25.4645 8.33194 25.4065 8.40625C25.3023 8.46875 25.219 8.55206 25.1565 8.65625C25.1005 8.59337 25.0588 8.59337 25.0315 8.65625C25.0912 8.75469 25.1329 8.85887 25.1565 8.96875C24.5468 8.02069 23.9843 7.0415 23.469 6.03125C23.427 5.94706 23.427 5.87414 23.469 5.8125C23.9409 5.58588 24.3992 5.33588 24.844 5.0625C25.0918 4.97608 25.321 4.90316 25.5315 4.84375Z"
            fill="#3C4277" />
        <path opacity="0.942" fill-rule="evenodd" clip-rule="evenodd"
            d="M5.78125 9.59375C5.17708 10.1354 4.57292 10.6771 3.96875 11.2188C3.50378 10.4247 3.04544 9.62256 2.59375 8.8125C3.03862 8.02375 3.49695 7.2425 3.96875 6.46875C4.605 7.49119 5.20917 8.53281 5.78125 9.59375Z"
            fill="#E10276" />
        <path opacity="0.962" fill-rule="evenodd" clip-rule="evenodd"
            d="M9.34375 6.46875C9.479 6.61388 9.58319 6.78056 9.65625 6.96875C9.05687 7.50506 8.45275 8.04675 7.84375 8.59375C7.715 8.4225 7.61088 8.235 7.53125 8.03125C8.12375 7.49563 8.72794 6.97481 9.34375 6.46875Z"
            fill="#D91A77" />
        <path opacity="0.958" fill-rule="evenodd" clip-rule="evenodd"
            d="M9.65625 6.96875C9.89606 7.32313 10.1044 7.69813 10.2812 8.09375C9.67706 8.61456 9.07294 9.13544 8.46875 9.65625C8.21338 9.33344 8.005 8.97925 7.84375 8.59375C8.45275 8.04675 9.05687 7.50506 9.65625 6.96875Z"
            fill="#D32979" />
        <path fill-rule="evenodd" clip-rule="evenodd"
            d="M27.0312 7.46875C27.1875 7.65587 27.3125 7.86419 27.4062 8.09375C27.3464 8.06544 27.2943 8.02381 27.25 7.96875C26.7541 8.464 26.2541 8.94319 25.75 9.40625C25.6201 9.54256 25.6306 9.66756 25.7812 9.78125C25.9153 9.67806 26.0611 9.59469 26.2188 9.53125C26.1621 9.68656 26.0476 9.83244 25.875 9.96875C25.8448 10.028 25.8344 10.0905 25.8438 10.1562C25.5674 9.79162 25.3382 9.39575 25.1562 8.96875C25.1327 8.85887 25.091 8.75469 25.0312 8.65625C25.0586 8.59337 25.1002 8.59337 25.1562 8.65625C25.2188 8.55206 25.3021 8.46875 25.4062 8.40625C25.4643 8.33194 25.4851 8.24863 25.4688 8.15625C25.5345 8.16556 25.597 8.15519 25.6562 8.125C25.7271 8.0615 25.7063 8.01981 25.5938 8C25.7122 7.89988 25.8372 7.80613 25.9688 7.71875C26.0299 7.93456 26.1237 7.95538 26.25 7.78125C26.2708 7.82294 26.2917 7.86456 26.3125 7.90625C26.5378 7.73119 26.7774 7.58531 27.0312 7.46875Z"
            fill="#32396F" />
        <path fill-rule="evenodd" clip-rule="evenodd"
            d="M27.4066 8.09375C27.6721 8.52056 27.9221 8.95806 28.1566 9.40625C28.0967 9.37794 28.0446 9.33631 28.0003 9.28125C27.5047 9.58569 26.9943 9.86694 26.4691 10.125C26.3439 10.2501 26.1981 10.3439 26.0316 10.4062C26.0708 10.4636 26.0916 10.5261 26.0941 10.5938C25.9636 10.479 25.8803 10.3332 25.8441 10.1562C25.8348 10.0905 25.8451 10.028 25.8753 9.96875C26.0479 9.83244 26.1624 9.68656 26.2191 9.53125C26.0614 9.59469 25.9156 9.67806 25.7816 9.78125C25.6309 9.66756 25.6204 9.54256 25.7503 9.40625C26.2544 8.94319 26.7544 8.464 27.2503 7.96875C27.2946 8.02381 27.3467 8.06544 27.4066 8.09375Z"
            fill="#20336D" />
        <path opacity="0.966" fill-rule="evenodd" clip-rule="evenodd"
            d="M10.2812 8.09375C10.4375 8.28087 10.5625 8.48919 10.6562 8.71875C10.0521 9.26044 9.44794 9.80206 8.84375 10.3438C8.70312 10.1251 8.57812 9.89594 8.46875 9.65625C9.07294 9.13544 9.67706 8.61456 10.2812 8.09375Z"
            fill="#CB3A7D" />
        <path opacity="0.96" fill-rule="evenodd" clip-rule="evenodd"
            d="M10.6562 8.71875C10.8543 8.98956 11.021 9.28125 11.1562 9.59375C10.6523 10.0868 10.1315 10.5764 9.59375 11.0625C9.51594 11.1119 9.43263 11.1432 9.34375 11.1562C9.13094 10.9191 8.96431 10.6483 8.84375 10.3438C9.44794 9.80206 10.0521 9.26044 10.6562 8.71875Z"
            fill="#C34581" />
        <path fill-rule="evenodd" clip-rule="evenodd"
            d="M28.1562 9.40625C28.2431 9.49369 28.3056 9.59787 28.3438 9.71875C27.7108 10.05 27.0858 10.3938 26.4688 10.75C26.3727 10.8194 26.3311 10.9131 26.3438 11.0312C26.2132 10.9165 26.1299 10.7707 26.0938 10.5938C26.0913 10.5261 26.0704 10.4636 26.0312 10.4062C26.1978 10.3439 26.3436 10.2501 26.4688 10.125C26.9939 9.86694 27.5044 9.58569 28 9.28125C28.0443 9.33631 28.0964 9.37794 28.1562 9.40625Z"
            fill="#052A69" />
        <path fill-rule="evenodd" clip-rule="evenodd"
            d="M28.344 9.71875C28.443 9.85394 28.5263 9.99975 28.594 10.1562C28.5341 10.1279 28.482 10.0863 28.4378 10.0312C28.4087 10.1207 28.3566 10.1936 28.2815 10.25C27.7503 10.5468 27.2295 10.8593 26.719 11.1875C26.6597 11.2261 26.6076 11.2157 26.5628 11.1562C26.564 11.2567 26.5743 11.3609 26.594 11.4688C26.4635 11.354 26.3802 11.2082 26.344 11.0312C26.3313 10.9131 26.373 10.8194 26.469 10.75C27.0861 10.3938 27.7111 10.05 28.344 9.71875Z"
            fill="#082569" />
        <path opacity="0.96" fill-rule="evenodd" clip-rule="evenodd"
            d="M5.78125 9.59375C5.91581 9.73712 6.01998 9.90375 6.09375 10.0938C5.49279 10.6318 4.88863 11.1735 4.28125 11.7188C4.14669 11.5754 4.04252 11.4087 3.96875 11.2188C4.57292 10.6771 5.17708 10.1354 5.78125 9.59375Z"
            fill="#D91A77" />
        <path fill-rule="evenodd" clip-rule="evenodd"
            d="M28.5938 10.1562C28.6927 10.2914 28.776 10.4373 28.8438 10.5938C28.7379 10.5196 28.6337 10.5301 28.5312 10.625C27.9844 10.9424 27.4427 11.2652 26.9062 11.5938C26.8624 11.6995 26.8833 11.8036 26.9688 11.9062C26.9688 11.9688 26.9688 12.0312 26.9688 12.0938C26.8125 11.9066 26.6875 11.6983 26.5938 11.4688C26.5741 11.3609 26.5637 11.2567 26.5625 11.1562C26.6074 11.2157 26.6594 11.2261 26.7188 11.1875C27.2293 10.8593 27.7501 10.5468 28.2812 10.25C28.3563 10.1936 28.4084 10.1207 28.4375 10.0312C28.4818 10.0863 28.5339 10.1279 28.5938 10.1562Z"
            fill="#081E68" />
        <path opacity="0.959" fill-rule="evenodd" clip-rule="evenodd"
            d="M11.1562 9.59375C11.3872 9.90906 11.5955 10.2424 11.7812 10.5938C11.2049 11.0236 10.6633 11.5028 10.1562 12.0312C10.0712 12.0738 9.98794 12.1154 9.90625 12.1562C9.68731 11.8436 9.49981 11.5103 9.34375 11.1562C9.43263 11.1432 9.51594 11.1119 9.59375 11.0625C10.1315 10.5764 10.6523 10.0868 11.1562 9.59375Z"
            fill="#BA5286" />
        <path opacity="0.959" fill-rule="evenodd" clip-rule="evenodd"
            d="M6.09375 10.0938C6.33356 10.4481 6.54188 10.8231 6.71875 11.2188C6.11924 11.7561 5.51508 12.2769 4.90625 12.7812C4.65086 12.4584 4.44252 12.1043 4.28125 11.7188C4.88863 11.1735 5.49279 10.6318 6.09375 10.0938Z"
            fill="#D32979" />
        <path fill-rule="evenodd" clip-rule="evenodd"
            d="M28.8435 10.5937C28.9304 10.6811 28.9929 10.7853 29.031 10.9062C28.9712 10.8778 28.919 10.8362 28.8748 10.7812C28.279 11.2202 27.6436 11.5952 26.9685 11.9062C26.8831 11.8035 26.8622 11.6994 26.906 11.5937C27.4425 11.2652 27.9842 10.9423 28.531 10.6249C28.6335 10.53 28.7377 10.5195 28.8435 10.5937Z"
            fill="#041767" />
        <path opacity="0.963" fill-rule="evenodd" clip-rule="evenodd"
            d="M11.7812 10.5938C11.8654 10.7621 11.9487 10.9287 12.0312 11.0938C11.5604 11.575 11.0604 12.0229 10.5312 12.4375C10.4244 12.5407 10.341 12.6552 10.2812 12.7812C10.125 12.5941 10 12.3858 9.90625 12.1562C9.98794 12.1154 10.0712 12.0738 10.1562 12.0312C10.6633 11.5028 11.2049 11.0236 11.7812 10.5938Z"
            fill="#B45A8B" />
        <path fill-rule="evenodd" clip-rule="evenodd"
            d="M29.0312 10.9062C29.1302 11.0414 29.2135 11.1873 29.2812 11.3438C29.2214 11.3154 29.1693 11.2738 29.125 11.2188C28.5233 11.608 27.9087 11.9726 27.2812 12.3125C27.2289 12.3757 27.2081 12.4486 27.2188 12.5312C27.0882 12.4165 27.0049 12.2707 26.9688 12.0938C26.9688 12.0312 26.9688 11.9688 26.9688 11.9062C27.6438 11.5953 28.2792 11.2203 28.875 10.7812C28.9193 10.8363 28.9714 10.8779 29.0312 10.9062Z"
            fill="#090F69" />
        <path opacity="0.959" fill-rule="evenodd" clip-rule="evenodd"
            d="M12.0312 11.0938C12.1918 11.3101 12.3377 11.5393 12.4688 11.7812C12.403 11.7719 12.3405 11.7823 12.2812 11.8125C11.7456 12.3514 11.1831 12.8618 10.5938 13.3438C10.4422 13.187 10.3381 12.9995 10.2812 12.7812C10.341 12.6552 10.4244 12.5407 10.5312 12.4375C11.0604 12.0229 11.5604 11.575 12.0312 11.0938Z"
            fill="#AD618F" />
        <path opacity="0.964" fill-rule="evenodd" clip-rule="evenodd"
            d="M6.71875 11.2188C6.875 11.4059 7 11.6142 7.09375 11.8438C6.50981 12.4068 5.90565 12.9484 5.28125 13.4688C5.10886 13.2701 4.98386 13.0409 4.90625 12.7812C5.51508 12.2769 6.11924 11.7561 6.71875 11.2188Z"
            fill="#CB3A7D" />
        <path opacity="0.965" fill-rule="evenodd" clip-rule="evenodd"
            d="M12.4688 11.7811C12.6209 12.0169 12.7459 12.2669 12.8438 12.5311C12.2279 13.0372 11.6237 13.558 11.0312 14.0936C10.8541 13.8646 10.7083 13.6146 10.5938 13.3436C11.1831 12.8617 11.7456 12.3513 12.2812 11.8124C12.3405 11.7822 12.403 11.7718 12.4688 11.7811Z"
            fill="#A66794" />
        <path fill-rule="evenodd" clip-rule="evenodd"
            d="M29.281 11.3438C29.7638 12.1189 30.2221 12.9106 30.656 13.7188C29.7835 13.8427 28.8876 13.8844 27.9685 13.8438C27.6713 13.4372 27.4213 12.9997 27.2185 12.5312C27.2079 12.4486 27.2287 12.3757 27.281 12.3125C27.9085 11.9726 28.5231 11.608 29.1248 11.2188C29.169 11.2738 29.2211 11.3154 29.281 11.3438Z"
            fill="#07036E" />
        <path opacity="0.962" fill-rule="evenodd" clip-rule="evenodd"
            d="M7.09375 11.8438C7.29181 12.1146 7.4585 12.4062 7.59375 12.7188C7.02463 13.293 6.44125 13.8555 5.84375 14.4062C5.60929 14.1253 5.42179 13.8128 5.28125 13.4688C5.90565 12.9484 6.50981 12.4068 7.09375 11.8438Z"
            fill="#C34581" />
        <path opacity="0.957" fill-rule="evenodd" clip-rule="evenodd"
            d="M2.09375 12.8438C1.47268 13.372 0.868513 13.9136 0.28125 14.4688C0.161746 14.3339 0.0575789 14.1881 -0.03125 14.0312C-0.03125 13.9688 -0.03125 13.9062 -0.03125 13.8438C0.425492 13.0978 0.883825 12.3478 1.34375 11.5938C1.62499 11.9892 1.87499 12.4059 2.09375 12.8438Z"
            fill="#DF0776" />
        <path opacity="0.961" fill-rule="evenodd" clip-rule="evenodd"
            d="M12.8438 12.5312C12.9783 12.6746 13.0825 12.8413 13.1562 13.0312C12.5537 13.5711 11.9495 14.1128 11.3438 14.6562C11.1922 14.4995 11.0881 14.312 11.0312 14.0938C11.6237 13.5581 12.2279 13.0373 12.8438 12.5312Z"
            fill="#9F6D99" />
        <path opacity="0.959" fill-rule="evenodd" clip-rule="evenodd"
            d="M2.09375 12.8438C2.21355 13.0207 2.31771 13.2082 2.40625 13.4062C1.76322 13.9034 1.15905 14.4451 0.59375 15.0312C0.473952 14.8543 0.369786 14.6668 0.28125 14.4688C0.868513 13.9136 1.47268 13.372 2.09375 12.8438Z"
            fill="#D91A77" />
        <path opacity="0.961" fill-rule="evenodd" clip-rule="evenodd"
            d="M13.1562 13.0312C13.2596 13.1957 13.3637 13.3623 13.4688 13.5312C12.8834 14.1167 12.2793 14.6792 11.6562 15.2188C11.5364 15.0418 11.4323 14.8543 11.3438 14.6562C11.9495 14.1128 12.5537 13.5711 13.1562 13.0312Z"
            fill="#98729D" />
        <path opacity="0.964" fill-rule="evenodd" clip-rule="evenodd"
            d="M7.59375 12.7188C7.81269 13.0314 8.00019 13.3647 8.15625 13.7188C7.55206 14.2604 6.94794 14.8021 6.34375 15.3438C6.16039 15.0395 5.99372 14.727 5.84375 14.4062C6.44125 13.8555 7.02463 13.293 7.59375 12.7188Z"
            fill="#BA5286" />
        <path opacity="0.97" fill-rule="evenodd" clip-rule="evenodd"
            d="M2.40625 13.4062C2.62941 13.7479 2.83774 14.1021 3.03125 14.4688C2.40524 14.9908 1.80107 15.5325 1.21875 16.0938C0.995587 15.7521 0.787256 15.3979 0.59375 15.0312C1.15905 14.4451 1.76322 13.9034 2.40625 13.4062Z"
            fill="#D32979" />
        <path opacity="0.962" fill-rule="evenodd" clip-rule="evenodd"
            d="M8.15625 13.7188C8.29081 13.8621 8.395 14.0288 8.46875 14.2188C8.25537 14.4636 8.02625 14.7032 7.78125 14.9375C7.43525 15.2728 7.06025 15.5749 6.65625 15.8438C6.52169 15.7004 6.4175 15.5337 6.34375 15.3438C6.94794 14.8021 7.55206 14.2604 8.15625 13.7188Z"
            fill="#B45A8B" />
        <path opacity="0.867" fill-rule="evenodd" clip-rule="evenodd"
            d="M30.6562 13.7188C30.7119 13.7663 30.7536 13.8288 30.7812 13.9062C30.3125 13.9271 29.8438 13.9479 29.375 13.9688C28.8835 13.9686 28.4148 13.9269 27.9688 13.8438C28.8879 13.8844 29.7837 13.8427 30.6562 13.7188Z"
            fill="#2444A1" />
        <path opacity="0.96" fill-rule="evenodd" clip-rule="evenodd"
            d="M13.4688 13.5312C13.6521 13.8355 13.8187 14.148 13.9688 14.4688C13.3724 15.0016 12.7683 15.5433 12.1562 16.0938C11.9646 15.8182 11.7979 15.5265 11.6562 15.2188C12.2793 14.6792 12.8834 14.1167 13.4688 13.5312Z"
            fill="#8E78A3" />
        <path opacity="0.958" fill-rule="evenodd" clip-rule="evenodd"
            d="M8.46875 14.2188C8.60938 14.4374 8.73438 14.6666 8.84375 14.9062C8.25375 15.4413 7.64963 15.9621 7.03125 16.4688C6.875 16.2816 6.75 16.0733 6.65625 15.8438C7.06025 15.5749 7.43525 15.2728 7.78125 14.9375C8.02625 14.7032 8.25537 14.4636 8.46875 14.2188Z"
            fill="#AD618F" />
        <path opacity="0.957" fill-rule="evenodd" clip-rule="evenodd"
            d="M3.03125 14.4688C3.20364 14.6674 3.32864 14.8966 3.40625 15.1562C2.81894 15.7023 2.21478 16.2231 1.59375 16.7188C1.43751 16.5316 1.31251 16.3233 1.21875 16.0938C1.80107 15.5325 2.40524 14.9908 3.03125 14.4688Z"
            fill="#CB3A7D" />
        <path opacity="0.965" fill-rule="evenodd" clip-rule="evenodd"
            d="M13.9688 14.4688C14.1459 14.6978 14.2917 14.9478 14.4062 15.2188C14.4169 15.3014 14.3961 15.3743 14.3438 15.4375C13.7534 15.8987 13.1909 16.3882 12.6562 16.9062C12.4748 16.6481 12.3081 16.3773 12.1562 16.0938C12.7683 15.5433 13.3724 15.0016 13.9688 14.4688Z"
            fill="#817EAA" />
        <path opacity="0.963" fill-rule="evenodd" clip-rule="evenodd"
            d="M8.84375 14.9062C9.02094 15.1353 9.16675 15.3853 9.28125 15.6562C8.81075 16.0269 8.35244 16.4124 7.90625 16.8125C7.78887 16.9089 7.69512 17.0235 7.625 17.1562C7.60419 17.1354 7.58331 17.1146 7.5625 17.0938C7.53644 17.1723 7.48438 17.2139 7.40625 17.2188C7.25412 16.983 7.12912 16.733 7.03125 16.4688C7.64963 15.9621 8.25375 15.4413 8.84375 14.9062Z"
            fill="#A66794" />
        <path opacity="0.959" fill-rule="evenodd" clip-rule="evenodd"
            d="M3.40625 15.1562C3.60431 15.4271 3.77098 15.7188 3.90625 16.0312C3.30926 16.568 2.7051 17.0888 2.09375 17.5938C1.89569 17.3229 1.72902 17.0312 1.59375 16.7188C2.21478 16.2231 2.81894 15.7023 3.40625 15.1562Z"
            fill="#C34581" />
        <path opacity="0.957" fill-rule="evenodd" clip-rule="evenodd"
            d="M9.28125 15.6562C9.43275 15.813 9.53687 16.0005 9.59375 16.2188C8.95069 16.7159 8.34656 17.2576 7.78125 17.8438C7.65625 17.6354 7.53125 17.4271 7.40625 17.2188C7.48438 17.2139 7.53644 17.1723 7.5625 17.0938C7.58331 17.1146 7.60419 17.1354 7.625 17.1562C7.69512 17.0235 7.78887 16.9089 7.90625 16.8125C8.35244 16.4124 8.81075 16.0269 9.28125 15.6562Z"
            fill="#9F6D99" />
        <path opacity="0.968" fill-rule="evenodd" clip-rule="evenodd"
            d="M14.4062 15.2188C14.6294 15.5604 14.8378 15.9146 15.0312 16.2812C14.4644 16.8692 13.8602 17.4109 13.2188 17.9062C12.9998 17.5936 12.8123 17.2603 12.6562 16.9062C13.1909 16.3882 13.7534 15.8987 14.3438 15.4375C14.3961 15.3743 14.4169 15.3014 14.4062 15.2188Z"
            fill="#7284B2" />
        <path opacity="0.962" fill-rule="evenodd" clip-rule="evenodd"
            d="M9.59375 16.2188C9.729 16.3639 9.83319 16.5306 9.90625 16.7188C9.30731 17.2546 8.70312 17.7962 8.09375 18.3438C7.99044 18.1793 7.88631 18.0127 7.78125 17.8438C8.34656 17.2576 8.95069 16.7159 9.59375 16.2188Z"
            fill="#98729D" />
        <path opacity="0.969" fill-rule="evenodd" clip-rule="evenodd"
            d="M15.0312 16.2812C16.2557 16.3429 17.4848 16.3638 18.7188 16.3438C18.7188 16.3646 18.7188 16.3854 18.7188 16.4062C18.4896 16.4062 18.2604 16.4062 18.0312 16.4062C17.8021 16.4062 17.5729 16.4062 17.3438 16.4062C17.0729 16.4062 16.8021 16.4062 16.5312 16.4062C16.2396 16.4062 15.9479 16.4062 15.6562 16.4062C15.472 16.3889 15.2949 16.4097 15.125 16.4688C14.7388 17.1579 14.3534 17.8454 13.9688 18.5312C13.9123 18.5756 13.8914 18.6381 13.9062 18.7188C14.4062 18.7188 14.9062 18.7188 15.4062 18.7188C16.4271 18.7188 17.4479 18.7188 18.4688 18.7188C19.4271 18.7188 20.3854 18.7188 21.3438 18.7188C23.2812 18.7188 25.2188 18.7188 27.1562 18.7188C28.3021 18.7188 29.4479 18.7188 30.5938 18.7188C24.9583 18.802 19.3124 18.802 13.6562 18.7188C13.4929 18.4545 13.3471 18.1837 13.2188 17.9062C13.8602 17.4109 14.4644 16.8692 15.0312 16.2812Z"
            fill="#5B8BBD" />
        <path fill-rule="evenodd" clip-rule="evenodd"
            d="M16.531 16.4062C16.8018 16.4062 17.0727 16.4062 17.3435 16.4062C17.1663 16.667 16.9892 16.9378 16.8122 17.2188C16.7609 17.3618 16.7192 17.5076 16.6872 17.6562C16.3422 17.9389 16.0193 18.241 15.7185 18.5625C15.8159 18.5756 15.8992 18.6069 15.9685 18.6562C15.7677 18.6369 15.5802 18.6577 15.406 18.7188C14.906 18.7188 14.406 18.7188 13.906 18.7188C13.8912 18.6381 13.912 18.5756 13.9685 18.5312C14.2532 18.6526 14.5657 18.6942 14.906 18.6562C15.3244 18.3034 15.7307 17.9284 16.1247 17.5312C16.1633 17.4719 16.1529 17.4199 16.0935 17.375C16.4234 17.1225 16.5692 16.7996 16.531 16.4062Z"
            fill="#2E356C" />
        <path opacity="0.639" fill-rule="evenodd" clip-rule="evenodd"
            d="M19.5938 16.3438C23.3228 16.3813 27.0519 16.4022 30.7812 16.4062C30.2092 16.4684 29.6259 16.4892 29.0312 16.4688C28.4896 16.4688 27.9479 16.4688 27.4062 16.4688C26.9062 16.4688 26.4062 16.4688 25.9062 16.4688C25.5312 16.4688 25.1562 16.4688 24.7812 16.4688C24.2396 16.4688 23.6979 16.4688 23.1562 16.4688C22.8646 16.4688 22.5729 16.4688 22.2812 16.4688C21.9271 16.4688 21.5729 16.4688 21.2188 16.4688C20.6658 16.4526 20.1241 16.4109 19.5938 16.3438Z"
            fill="#207EBF" />
        <path fill-rule="evenodd" clip-rule="evenodd"
            d="M18.7188 16.4062C18.7188 16.3854 18.7188 16.3646 18.7188 16.3438C19.0104 16.3438 19.3021 16.3438 19.5938 16.3438C20.1241 16.4109 20.6658 16.4526 21.2188 16.4688C20.9246 16.6072 20.7267 16.8364 20.625 17.1562C20.5978 17.3029 20.5665 17.4488 20.5312 17.5938C20.3381 17.8914 20.1506 18.1936 19.9688 18.5C20.0205 18.5572 20.083 18.5988 20.1562 18.625C19.5828 18.6356 19.0203 18.6669 18.4688 18.7188C17.4479 18.7188 16.4271 18.7188 15.4062 18.7188C15.5804 18.6577 15.7679 18.6369 15.9688 18.6562C16.3229 18.6562 16.6771 18.6562 17.0312 18.6562C17.4068 18.6666 17.7818 18.6562 18.1562 18.625C18.0521 18.6042 17.9479 18.5833 17.8438 18.5625C17.9507 18.4007 18.0653 18.2444 18.1875 18.0938C18.2051 17.7513 18.3301 17.4596 18.5625 17.2188C18.5841 17.1114 18.6154 17.0072 18.6562 16.9062C18.7948 16.7441 18.9407 16.5878 19.0938 16.4375C18.9663 16.4759 18.8413 16.4655 18.7188 16.4062Z"
            fill="#014886" />
        <path fill-rule="evenodd" clip-rule="evenodd"
            d="M21.2188 16.4688C21.5729 16.4688 21.9271 16.4688 22.2812 16.4688C22.3074 16.5139 22.349 16.5451 22.4062 16.5625C22.0034 17.2014 21.6493 17.8681 21.3438 18.5625C21.4411 18.5756 21.5244 18.6069 21.5938 18.6562C21.4938 18.6395 21.4105 18.6604 21.3438 18.7188C20.3854 18.7188 19.4271 18.7188 18.4688 18.7188C19.0203 18.6669 19.5828 18.6356 20.1562 18.625C20.083 18.5988 20.0205 18.5572 19.9688 18.5C20.1506 18.1936 20.3381 17.8914 20.5312 17.5938C20.5665 17.4488 20.5978 17.3029 20.625 17.1562C20.7267 16.8364 20.9246 16.6072 21.2188 16.4688Z"
            fill="#005297" />
        <path fill-rule="evenodd" clip-rule="evenodd"
            d="M23.1562 16.4688C23.6979 16.4688 24.2396 16.4688 24.7812 16.4688C24.7601 16.6159 24.7289 16.7617 24.6875 16.9062C24.3399 17.2828 24.1107 17.7203 24 18.2188C23.9505 18.3492 23.8776 18.4638 23.7812 18.5625C23.8229 18.5833 23.8646 18.6042 23.9062 18.625C23.5318 18.6562 23.1568 18.6666 22.7812 18.6562C22.7336 18.6082 22.6711 18.577 22.5938 18.5625C22.6392 18.4751 22.6704 18.3813 22.6875 18.2812C22.8719 17.7875 23.1219 17.3292 23.4375 16.9062C23.4532 16.7854 23.4844 16.6709 23.5312 16.5625C23.3933 16.5506 23.2683 16.5193 23.1562 16.4688Z"
            fill="#005FAF" />
        <path fill-rule="evenodd" clip-rule="evenodd"
            d="M24.7812 16.4688C25.1562 16.4688 25.5312 16.4688 25.9062 16.4688C25.9132 16.5073 25.934 16.5386 25.9688 16.5625C25.8357 16.8725 25.6794 17.1746 25.5 17.4688C25.4476 17.8446 25.3956 18.2196 25.3438 18.5938C25.9459 18.6495 26.5501 18.6703 27.1562 18.6562C27.1562 18.6771 27.1562 18.6979 27.1562 18.7188C25.2188 18.7188 23.2812 18.7188 21.3438 18.7188C21.4105 18.6604 21.4938 18.6395 21.5938 18.6562C21.9896 18.6562 22.3854 18.6562 22.7812 18.6562C23.1568 18.6666 23.5318 18.6562 23.9062 18.625C23.8646 18.6042 23.8229 18.5833 23.7812 18.5625C23.8776 18.4638 23.9505 18.3492 24 18.2188C24.1107 17.7203 24.3399 17.2828 24.6875 16.9062C24.7289 16.7617 24.7601 16.6159 24.7812 16.4688Z"
            fill="#0067BD" />
        <path fill-rule="evenodd" clip-rule="evenodd"
            d="M25.9062 16.4688C26.4062 16.4688 26.9062 16.4688 27.4062 16.4688C27.4619 16.5163 27.5036 16.5788 27.5312 16.6562C27.4347 17.2919 27.3098 17.9169 27.1562 18.5312C27.3944 18.6086 27.3944 18.6502 27.1562 18.6562C26.5501 18.6703 25.9459 18.6495 25.3438 18.5938C25.3956 18.2196 25.4476 17.8446 25.5 17.4688C25.6794 17.1746 25.8357 16.8725 25.9688 16.5625C25.934 16.5386 25.9132 16.5073 25.9062 16.4688Z"
            fill="#006BC8" />
        <path fill-rule="evenodd" clip-rule="evenodd"
            d="M27.4062 16.4688C27.9479 16.4688 28.4896 16.4688 29.0312 16.4688C29.5828 16.5206 30.1453 16.5519 30.7188 16.5625C30.3698 16.5744 30.0261 16.6057 29.6875 16.6562C29.586 17.2969 29.4714 17.9323 29.3438 18.5625C29.7396 18.6042 30.1354 18.6042 30.5312 18.5625C30.5704 18.5156 30.6016 18.4635 30.625 18.4062C30.6499 18.4205 30.6603 18.4414 30.6562 18.4688C30.6562 18.5104 30.6562 18.5521 30.6562 18.5938C30.667 18.6557 30.6461 18.6974 30.5938 18.7188C29.4479 18.7188 28.3021 18.7188 27.1562 18.7188C27.1562 18.6979 27.1562 18.6771 27.1562 18.6562C27.3944 18.6502 27.3944 18.6086 27.1562 18.5312C27.3098 17.9169 27.4347 17.2919 27.5312 16.6562C27.5036 16.5788 27.4619 16.5163 27.4062 16.4688Z"
            fill="#0073D7" />
        <path opacity="0.96" fill-rule="evenodd" clip-rule="evenodd"
            d="M3.90625 16.0312C4.11812 16.3271 4.30562 16.6396 4.46875 16.9688C3.86298 17.5122 3.25881 18.0539 2.65625 18.5938C2.43731 18.2811 2.24981 17.9478 2.09375 17.5938C2.7051 17.0888 3.30926 16.568 3.90625 16.0312Z"
            fill="#BA5286" />
        <path fill-rule="evenodd" clip-rule="evenodd"
            d="M22.2812 16.4688C22.5729 16.4688 22.8646 16.4688 23.1562 16.4688C23.2683 16.5193 23.3933 16.5506 23.5312 16.5625C23.4844 16.6709 23.4532 16.7854 23.4375 16.9062C23.1219 17.3292 22.8719 17.7875 22.6875 18.2812C22.6704 18.3813 22.6392 18.4751 22.5938 18.5625C22.6711 18.577 22.7336 18.6082 22.7812 18.6562C22.3854 18.6562 21.9896 18.6562 21.5938 18.6562C21.5244 18.6069 21.4411 18.5756 21.3438 18.5625C21.6493 17.8681 22.0034 17.2014 22.4062 16.5625C22.349 16.5451 22.3074 16.5139 22.2812 16.4688Z"
            fill="#0058A3" />
        <path fill-rule="evenodd" clip-rule="evenodd"
            d="M30.7812 16.4061C31.1379 16.3855 31.492 16.4064 31.8438 16.4686C31.5454 17.045 31.2329 17.6075 30.9062 18.1561C30.8079 18.2488 30.7246 18.353 30.6562 18.4686C30.6603 18.4412 30.6499 18.4203 30.625 18.4061C30.6016 18.4633 30.5704 18.5155 30.5312 18.5623C30.1354 18.604 29.7396 18.604 29.3438 18.5623C29.4714 17.9322 29.586 17.2967 29.6875 16.6561C30.0261 16.6055 30.3698 16.5743 30.7188 16.5623C30.1453 16.5517 29.5828 16.5205 29.0312 16.4686C29.6259 16.489 30.2092 16.4682 30.7812 16.4061Z"
            fill="#0179E0" />
        <path fill-rule="evenodd" clip-rule="evenodd"
            d="M15.6562 16.4062C15.9479 16.4062 16.2396 16.4062 16.5312 16.4062C16.5694 16.7996 16.4236 17.1225 16.0938 17.375C16.1532 17.4199 16.1636 17.4719 16.125 17.5312C15.7309 17.9284 15.3247 18.3034 14.9062 18.6562C14.7731 18.6054 14.6273 18.5741 14.4688 18.5625C14.5738 18.416 14.678 18.2702 14.7812 18.125C14.7396 18.0625 14.6979 18 14.6562 17.9375C14.7186 17.8378 14.7914 17.744 14.875 17.6562C14.8958 17.5521 14.9167 17.4479 14.9375 17.3438C15.2421 17.1017 15.5026 16.8204 15.7188 16.5C15.684 16.4761 15.6632 16.4448 15.6562 16.4062Z"
            fill="#3B2F66" />
        <path fill-rule="evenodd" clip-rule="evenodd"
            d="M18.0312 16.4062C18.2604 16.4062 18.4896 16.4062 18.7188 16.4062C18.8413 16.4655 18.9663 16.4759 19.0938 16.4375C18.9407 16.5878 18.7948 16.7441 18.6562 16.9062C18.6154 17.0072 18.5841 17.1114 18.5625 17.2188C18.3301 17.4596 18.2051 17.7513 18.1875 18.0938C18.0653 18.2444 17.9507 18.4007 17.8438 18.5625C17.9479 18.5833 18.0521 18.6042 18.1562 18.625C17.7818 18.6562 17.4068 18.6666 17.0312 18.6562C16.9405 18.6061 16.8364 18.5749 16.7188 18.5625C17.034 18.2362 17.3569 17.9133 17.6875 17.5938C17.8127 17.249 17.9481 16.9053 18.0938 16.5625C18.0786 16.5061 18.0577 16.4541 18.0312 16.4062Z"
            fill="#063F79" />
        <path opacity="0.961" fill-rule="evenodd" clip-rule="evenodd"
            d="M4.46875 16.9688C4.59747 17.14 4.70164 17.3275 4.78125 17.5312C4.16213 18.0896 3.55796 18.6313 2.96875 19.1562C2.84895 18.9793 2.74479 18.7918 2.65625 18.5938C3.25881 18.0539 3.86298 17.5122 4.46875 16.9688Z"
            fill="#B45A8B" />
        <path opacity="0.966" fill-rule="evenodd" clip-rule="evenodd"
            d="M9.90625 16.7188C10.1043 16.9896 10.271 17.2812 10.4062 17.5938C9.97781 18.0119 9.54031 18.4181 9.09375 18.8125C8.92881 18.9677 8.74131 19.0822 8.53125 19.1562C8.36875 18.8937 8.22287 18.6229 8.09375 18.3438C8.70312 17.7962 9.30731 17.2546 9.90625 16.7188Z"
            fill="#8E78A3" />
        <path fill-rule="evenodd" clip-rule="evenodd"
            d="M17.3438 16.4062C17.5729 16.4062 17.8021 16.4062 18.0312 16.4062C18.0577 16.4541 18.0786 16.5061 18.0938 16.5625C17.9481 16.9053 17.8127 17.249 17.6875 17.5938C17.3569 17.9133 17.034 18.2362 16.7188 18.5625C16.8364 18.5749 16.9405 18.6061 17.0312 18.6562C16.6771 18.6562 16.3229 18.6562 15.9688 18.6562C15.8994 18.6069 15.8161 18.5756 15.7188 18.5625C16.0196 18.241 16.3425 17.9389 16.6875 17.6562C16.7194 17.5076 16.7611 17.3618 16.8125 17.2188C16.9894 16.9378 17.1666 16.667 17.3438 16.4062Z"
            fill="#1D3A72" />
        <path fill-rule="evenodd" clip-rule="evenodd"
            d="M15.6562 16.4063C15.6632 16.4448 15.684 16.4761 15.7188 16.5C15.5026 16.8205 15.2421 17.1017 14.9375 17.3438C14.9167 17.448 14.8958 17.5521 14.875 17.6563C14.7914 17.744 14.7186 17.8378 14.6562 17.9375C14.6979 18 14.7396 18.0625 14.7812 18.125C14.678 18.2702 14.5738 18.416 14.4688 18.5625C14.6273 18.5742 14.7731 18.6054 14.9062 18.6563C14.566 18.6943 14.2535 18.6527 13.9688 18.5313C14.3534 17.8455 14.7388 17.158 15.125 16.4688C15.2949 16.4098 15.472 16.389 15.6562 16.4063Z"
            fill="#432B61" />
        <path opacity="0.957" fill-rule="evenodd" clip-rule="evenodd"
            d="M4.78125 17.5312C4.93677 17.7166 5.06177 17.9249 5.15625 18.1562C4.51218 18.6551 3.90802 19.1967 3.34375 19.7812C3.18823 19.5959 3.06323 19.3876 2.96875 19.1562C3.55796 18.6313 4.16213 18.0896 4.78125 17.5312Z"
            fill="#AD618F" />
        <path opacity="0.957" fill-rule="evenodd" clip-rule="evenodd"
            d="M10.4062 17.5938C10.6043 17.8646 10.771 18.1562 10.9062 18.4688C10.4221 18.8888 9.92206 19.2951 9.40625 19.6875C9.30781 19.8347 9.20369 19.9701 9.09375 20.0938C8.89144 19.7938 8.70394 19.4813 8.53125 19.1562C8.74131 19.0822 8.92881 18.9677 9.09375 18.8125C9.54031 18.4181 9.97781 18.0119 10.4062 17.5938Z"
            fill="#817EAA" />
        <path opacity="0.962" fill-rule="evenodd" clip-rule="evenodd"
            d="M5.15625 18.1562C5.30115 18.4041 5.44698 18.6541 5.59375 18.9062C4.94751 19.407 4.34334 19.9486 3.78125 20.5312C3.60409 20.3022 3.45825 20.0522 3.34375 19.7812C3.90802 19.1967 4.51218 18.6551 5.15625 18.1562Z"
            fill="#A66794" />
        <path opacity="0.145" fill-rule="evenodd" clip-rule="evenodd"
            d="M30.9062 18.1562C30.8701 18.3332 30.7868 18.479 30.6562 18.5938C30.6562 18.5521 30.6562 18.5104 30.6562 18.4688C30.7246 18.3532 30.8079 18.249 30.9062 18.1562Z"
            fill="#01A6EC" />
        <path opacity="0.961" fill-rule="evenodd" clip-rule="evenodd"
            d="M10.9062 18.4688C11.0617 18.6541 11.1868 18.8624 11.2812 19.0938C10.694 19.6489 10.0898 20.1905 9.46875 20.7188C9.31325 20.5334 9.18825 20.3251 9.09375 20.0938C9.20369 19.9701 9.30781 19.8347 9.40625 19.6875C9.92206 19.2951 10.4221 18.8888 10.9062 18.4688Z"
            fill="#7583B0" />
        <path opacity="0.96" fill-rule="evenodd" clip-rule="evenodd"
            d="M5.59375 18.9062C5.71355 19.0832 5.81771 19.2707 5.90625 19.4688C5.28185 19.9891 4.67768 20.5307 4.09375 21.0938C3.96503 20.9225 3.86086 20.735 3.78125 20.5312C4.34334 19.9486 4.94751 19.407 5.59375 18.9062Z"
            fill="#9F6D99" />
        <path opacity="0.965" fill-rule="evenodd" clip-rule="evenodd"
            d="M11.2812 19.0938C11.4219 19.3124 11.5469 19.5416 11.6562 19.7812C11.1565 20.2086 10.6773 20.6565 10.2188 21.125C10.0835 21.1889 9.9585 21.2618 9.84375 21.3438C9.6875 21.1566 9.5625 20.9483 9.46875 20.7188C10.0898 20.1905 10.694 19.6489 11.2812 19.0938Z"
            fill="#6987B6" />
        <path opacity="0.961" fill-rule="evenodd" clip-rule="evenodd"
            d="M5.90625 19.4688C6.03497 19.64 6.13914 19.8275 6.21875 20.0312C5.59143 20.5342 4.98726 21.055 4.40625 21.5938C4.27169 21.4504 4.16752 21.2837 4.09375 21.0938C4.67768 20.5307 5.28185 19.9891 5.90625 19.4688Z"
            fill="#98729D" />
        <path opacity="0.959" fill-rule="evenodd" clip-rule="evenodd"
            d="M6.21875 20.0312C6.41681 20.3021 6.5835 20.5938 6.71875 20.9062C6.10544 21.4117 5.50128 21.9325 4.90625 22.4688C4.70819 22.1979 4.54152 21.9062 4.40625 21.5938C4.98726 21.055 5.59143 20.5342 6.21875 20.0312Z"
            fill="#8E78A3" />
        <path opacity="0.962" fill-rule="evenodd" clip-rule="evenodd"
            d="M11.6562 19.7812C11.8637 20.1123 12.0721 20.4457 12.2812 20.7812C12.0103 21.072 11.6978 21.322 11.3438 21.5312C11.2961 21.6018 11.2544 21.6747 11.2188 21.75C10.9354 21.9409 10.6646 22.1388 10.4062 22.3438C10.1873 22.0311 9.99981 21.6978 9.84375 21.3438C9.9585 21.2618 10.0835 21.1889 10.2188 21.125C10.6773 20.6565 11.1565 20.2086 11.6562 19.7812Z"
            fill="#548DBD" />
        <path opacity="0.952" fill-rule="evenodd" clip-rule="evenodd"
            d="M29.2188 21.2186C28.9982 21.0984 28.7482 21.0568 28.4688 21.0936C27.9479 21.0936 27.4271 21.0936 26.9062 21.0936C26.3021 21.0936 25.6979 21.0936 25.0938 21.0936C24.4896 21.0936 23.8854 21.0936 23.2812 21.0936C22.8438 21.0936 22.4062 21.0936 21.9688 21.0936C21.9688 21.0728 21.9688 21.0519 21.9688 21.0311C24.4267 20.981 26.8851 20.9602 29.3438 20.9686C29.3607 21.0861 29.319 21.1694 29.2188 21.2186Z"
            fill="#0788D7" />
        <path fill-rule="evenodd" clip-rule="evenodd"
            d="M12.2812 20.7812C12.3141 20.8894 12.3766 20.9728 12.4688 21.0312C12.1943 21.6009 11.9026 22.1634 11.5938 22.7188C11.4461 22.9093 11.3211 23.1176 11.2188 23.3438C11.1664 23.3651 11.1455 23.4068 11.1562 23.4688C11.0614 23.4681 10.9885 23.4264 10.9375 23.3438C10.7429 23.0169 10.5658 22.6836 10.4062 22.3438C10.6646 22.1388 10.9354 21.9409 11.2188 21.75C11.2544 21.6747 11.2961 21.6018 11.3438 21.5312C11.6978 21.322 12.0103 21.072 12.2812 20.7812Z"
            fill="#3E90C2" />
        <path fill-rule="evenodd" clip-rule="evenodd"
            d="M13.1562 21.0312C16.0938 21.0312 19.0312 21.0312 21.9688 21.0312C21.9688 21.0521 21.9688 21.0729 21.9688 21.0938C21.6979 21.0938 21.4271 21.0938 21.1562 21.0938C21.0916 21.8708 20.9874 22.6416 20.8438 23.4062C20.3322 23.3859 19.8322 23.4068 19.3438 23.4688C17.5938 23.4688 15.8438 23.4688 14.0938 23.4688C14.624 23.4067 15.1657 23.3859 15.7188 23.4062C16.3438 23.4062 16.9688 23.4062 17.5938 23.4062C18.0734 23.4166 18.5526 23.4062 19.0312 23.375C19.0796 23.2247 19.1109 23.0684 19.125 22.9062C19.274 22.65 19.4406 22.4 19.625 22.1562C19.6702 21.7976 19.8056 21.4747 20.0312 21.1875C19.4948 21.0994 18.9531 21.0681 18.4062 21.0938C17.4688 21.0938 16.5312 21.0938 15.5938 21.0938C15.2396 21.0938 14.8854 21.0938 14.5312 21.0938C14.1562 21.0938 13.7812 21.0938 13.4062 21.0938C13.3063 21.1105 13.223 21.0896 13.1562 21.0312Z"
            fill="#175BA3" />
        <path fill-rule="evenodd" clip-rule="evenodd"
            d="M21.9688 21.0938C22.4062 21.0938 22.8438 21.0938 23.2812 21.0938C23.1359 21.1681 23.0629 21.2931 23.0625 21.4688C22.9839 22.1184 22.8902 22.7643 22.7812 23.4062C22.1354 23.4062 21.4896 23.4062 20.8438 23.4062C20.9874 22.6416 21.0916 21.8708 21.1562 21.0938C21.4271 21.0938 21.6979 21.0938 21.9688 21.0938Z"
            fill="#0060AF" />
        <path fill-rule="evenodd" clip-rule="evenodd"
            d="M25.0938 21.0938C25.6979 21.0938 26.3021 21.0938 26.9062 21.0938C26.7753 21.3654 26.6816 21.6571 26.625 21.9688C26.5671 22.4532 26.4942 22.9324 26.4062 23.4062C25.7809 23.4166 25.1559 23.4062 24.5312 23.375C24.692 22.6666 24.8066 21.9479 24.875 21.2188C24.9564 21.1822 25.0293 21.1406 25.0938 21.0938Z"
            fill="#006BC8" />
        <path fill-rule="evenodd" clip-rule="evenodd"
            d="M26.9062 21.0938C27.4271 21.0938 27.9479 21.0938 28.4688 21.0938C28.3742 21.7261 28.2908 22.3511 28.2188 22.9688C28.1826 23.1457 28.0993 23.2915 27.9688 23.4062C27.4479 23.4062 26.9271 23.4062 26.4062 23.4062C26.4942 22.9324 26.5671 22.4532 26.625 21.9688C26.6816 21.6571 26.7753 21.3654 26.9062 21.0938Z"
            fill="#0072D5" />
        <path fill-rule="evenodd" clip-rule="evenodd"
            d="M28.4688 21.0935C28.7482 21.0567 28.9982 21.0983 29.2188 21.2185C28.9168 21.8227 28.5835 22.406 28.2188 22.9685C28.2908 22.3508 28.3742 21.7258 28.4688 21.0935Z"
            fill="#047CDE" />
        <path fill-rule="evenodd" clip-rule="evenodd"
            d="M12.4688 21.0312C12.6979 21.0312 12.9271 21.0312 13.1562 21.0312C13.223 21.0896 13.3063 21.1105 13.4062 21.0938C13.4062 21.1146 13.4062 21.1354 13.4062 21.1562C13.3001 21.1463 13.1959 21.1566 13.0938 21.1875C12.7484 21.8558 12.2484 22.3661 11.5938 22.7188C11.9026 22.1634 12.1943 21.6009 12.4688 21.0312Z"
            fill="#242262" />
        <path fill-rule="evenodd" clip-rule="evenodd"
            d="M13.4062 21.1562C13.4062 21.1354 13.4062 21.1146 13.4062 21.0938C13.7812 21.0938 14.1562 21.0938 14.5312 21.0938C14.5789 21.1418 14.6414 21.173 14.7188 21.1875C14.6396 21.2068 14.5667 21.2381 14.5 21.2812C14.3331 21.8749 14.1977 22.479 14.0938 23.0938C14.0115 23.1754 13.949 23.2692 13.9062 23.375C13.6989 23.4061 13.4906 23.4166 13.2812 23.4062C13.3605 23.3258 13.3397 23.2633 13.2188 23.2188C13.3366 22.9593 13.4408 22.6988 13.5312 22.4375C13.4986 22.4024 13.4778 22.3608 13.4688 22.3125C13.5521 22.0207 13.6355 21.729 13.7188 21.4375C13.7183 21.2289 13.6141 21.1351 13.4062 21.1562Z"
            fill="#012E6C" />
        <path fill-rule="evenodd" clip-rule="evenodd"
            d="M14.5311 21.0938C14.8852 21.0938 15.2394 21.0938 15.5936 21.0938C15.9364 21.1454 16.2906 21.1767 16.6561 21.1875C16.5752 21.2181 16.4919 21.2286 16.4061 21.2188C16.3009 21.5245 16.2071 21.837 16.1248 22.1562C16.0831 22.1979 16.0415 22.2396 15.9998 22.2812C15.9517 22.6801 15.8579 23.0551 15.7186 23.4062C15.1655 23.3859 14.6238 23.4067 14.0936 23.4688C13.1144 23.4688 12.1352 23.4688 11.1561 23.4688C11.1453 23.4068 11.1662 23.3651 11.2186 23.3438C11.6444 23.4057 12.0819 23.4266 12.5311 23.4062C12.7811 23.4062 13.0311 23.4062 13.2811 23.4062C13.4904 23.4166 13.6987 23.4061 13.9061 23.375C13.9488 23.2692 14.0113 23.1754 14.0936 23.0938C14.1975 22.479 14.3329 21.8749 14.4998 21.2812C14.5665 21.2381 14.6394 21.2068 14.7186 21.1875C14.6412 21.173 14.5787 21.1418 14.5311 21.0938Z"
            fill="#003977" />
        <path fill-rule="evenodd" clip-rule="evenodd"
            d="M15.5938 21.0938C16.5312 21.0938 17.4688 21.0938 18.4062 21.0938C18.5394 21.1446 18.6852 21.1759 18.8438 21.1875C18.7229 21.2721 18.6083 21.3658 18.5 21.4688C18.358 21.696 18.2746 21.946 18.25 22.2188C18.2083 22.3021 18.1458 22.3646 18.0625 22.4062C17.8888 22.7282 17.7326 23.0616 17.5938 23.4062C16.9688 23.4062 16.3438 23.4062 15.7188 23.4062C15.8581 23.0551 15.9519 22.6801 16 22.2812C16.0417 22.2396 16.0833 22.1979 16.125 22.1562C16.2073 21.837 16.3011 21.5245 16.4062 21.2188C16.4921 21.2286 16.5754 21.2181 16.6562 21.1875C16.2907 21.1767 15.9366 21.1454 15.5938 21.0938Z"
            fill="#004586" />
        <path fill-rule="evenodd" clip-rule="evenodd"
            d="M18.4062 21.0936C18.9531 21.068 19.4948 21.0992 20.0312 21.1874C19.8056 21.4746 19.6702 21.7974 19.625 22.1561C19.4406 22.3999 19.274 22.6499 19.125 22.9061C19.1109 23.0683 19.0796 23.2246 19.0312 23.3749C18.5526 23.4061 18.0734 23.4165 17.5938 23.4061C17.7326 23.0615 17.8888 22.7281 18.0625 22.4061C18.1458 22.3644 18.2083 22.3019 18.25 22.2186C18.2746 21.9459 18.358 21.6959 18.5 21.4686C18.6083 21.3657 18.7229 21.2719 18.8438 21.1874C18.6852 21.1757 18.5394 21.1445 18.4062 21.0936Z"
            fill="#004F94" />
        <path fill-rule="evenodd" clip-rule="evenodd"
            d="M23.2812 21.0938C23.8854 21.0938 24.4896 21.0938 25.0938 21.0938C25.0293 21.1406 24.9564 21.1822 24.875 21.2188C24.8066 21.9479 24.692 22.6666 24.5312 23.375C25.1559 23.4062 25.7809 23.4166 26.4062 23.4062C26.9271 23.4062 27.4479 23.4062 27.9688 23.4062C25.1044 23.4687 22.2294 23.4895 19.3438 23.4688C19.8322 23.4068 20.3322 23.3859 20.8438 23.4062C21.4896 23.4062 22.1354 23.4062 22.7812 23.4062C22.8902 22.7643 22.9839 22.1184 23.0625 21.4688C23.0629 21.2931 23.1359 21.1681 23.2812 21.0938Z"
            fill="#0067BC" />
        <path opacity="0.96" fill-rule="evenodd" clip-rule="evenodd"
            d="M6.71875 20.9062C6.90019 21.1644 7.06687 21.4352 7.21875 21.7188C6.55512 22.1949 5.95095 22.7366 5.40625 23.3438C5.20819 23.0729 5.04152 22.7812 4.90625 22.4688C5.50128 21.9325 6.10544 21.4117 6.71875 20.9062Z"
            fill="#817EAA" />
        <path fill-rule="evenodd" clip-rule="evenodd"
            d="M13.4062 21.1562C13.6141 21.1351 13.7183 21.2289 13.7188 21.4375C13.6355 21.729 13.5521 22.0207 13.4688 22.3125C13.4778 22.3607 13.4986 22.4024 13.5312 22.4375C13.4408 22.6988 13.3366 22.9592 13.2188 23.2187C13.3397 23.2633 13.3605 23.3258 13.2812 23.4062C13.0312 23.4062 12.7812 23.4062 12.5312 23.4062C12.5699 22.7698 12.7261 22.1657 13 21.5937C13.1514 21.4531 13.2868 21.3073 13.4062 21.1562Z"
            fill="#022867" />
        <path fill-rule="evenodd" clip-rule="evenodd"
            d="M13.4062 21.156C13.2868 21.3071 13.1514 21.4529 13 21.5935C12.7261 22.1655 12.5699 22.7696 12.5312 23.406C12.0821 23.4263 11.6446 23.4055 11.2188 23.3435C11.3211 23.1174 11.4461 22.9091 11.5938 22.7185C12.2484 22.3659 12.7484 21.8555 13.0938 21.1873C13.1959 21.1564 13.3001 21.146 13.4062 21.156Z"
            fill="#062163" />
        <path opacity="0.96" fill-rule="evenodd" clip-rule="evenodd"
            d="M7.21875 21.7188C7.40606 22.0516 7.59356 22.3849 7.78125 22.7188C7.16531 23.2458 6.56112 23.7874 5.96875 24.3438C5.74981 24.0311 5.56231 23.6978 5.40625 23.3438C5.95095 22.7366 6.55512 22.1949 7.21875 21.7188Z"
            fill="#7284B2" />
        <path opacity="0.957" fill-rule="evenodd" clip-rule="evenodd"
            d="M7.78125 22.7188C7.97931 22.9896 8.146 23.2812 8.28125 23.5938C7.65625 24.1146 7.03125 24.6354 6.40625 25.1562C6.24452 24.8954 6.09869 24.6246 5.96875 24.3438C6.56112 23.7874 7.16531 23.2458 7.78125 22.7188Z"
            fill="#5F8AB9" />
        <path opacity="0.956" fill-rule="evenodd" clip-rule="evenodd"
            d="M8.28125 23.5938C8.43275 23.7505 8.53687 23.938 8.59375 24.1562C8.25387 24.5686 7.85806 24.9331 7.40625 25.25C7.21663 25.4483 7.02913 25.6462 6.84375 25.8438C6.68319 25.6274 6.53731 25.3982 6.40625 25.1562C7.03125 24.6354 7.65625 24.1146 8.28125 23.5938Z"
            fill="#4E8EBF" />
        <path opacity="0.99" fill-rule="evenodd" clip-rule="evenodd"
            d="M8.59375 24.1562C8.79181 24.4271 8.9585 24.7188 9.09375 25.0312C8.48044 25.5367 7.87625 26.0575 7.28125 26.5938C7.10406 26.3647 6.95825 26.1147 6.84375 25.8438C7.02913 25.6462 7.21663 25.4483 7.40625 25.25C7.85806 24.9331 8.25387 24.5686 8.59375 24.1562Z"
            fill="#3192C5" />
        <path opacity="0.967" fill-rule="evenodd" clip-rule="evenodd"
            d="M9.09375 25.0312C9.35337 25.3831 9.58256 25.7581 9.78125 26.1562C9.78125 26.1771 9.78125 26.1979 9.78125 26.2188C9.61875 26.4813 9.47287 26.7521 9.34375 27.0312C9.03012 27.5014 8.73844 27.9909 8.46875 28.5C9.01 28.5312 9.55169 28.5416 10.0938 28.5312C10.3021 28.5312 10.5104 28.5312 10.7188 28.5312C11.0938 28.5312 11.4688 28.5312 11.8438 28.5312C12.2604 28.5312 12.6771 28.5312 13.0938 28.5312C13.4271 28.5312 13.7604 28.5312 14.0938 28.5312C14.3854 28.5312 14.6771 28.5312 14.9688 28.5312C15.6771 28.5312 16.3854 28.5312 17.0938 28.5312C17.5729 28.5312 18.0521 28.5312 18.5312 28.5312C19.1146 28.5312 19.6979 28.5312 20.2812 28.5312C20.9479 28.5312 21.6146 28.5312 22.2812 28.5312C22.8229 28.5312 23.3646 28.5312 23.9062 28.5312C24.3854 28.5312 24.8646 28.5312 25.3438 28.5312C19.7084 28.6041 14.0626 28.6145 8.40625 28.5625C7.99025 27.9283 7.61525 27.272 7.28125 26.5938C7.87625 26.0575 8.48044 25.5367 9.09375 25.0312Z"
            fill="#209BD0" />
        <path opacity="0.942" fill-rule="evenodd" clip-rule="evenodd"
            d="M25.7188 26.0937C25.2188 26.1354 24.7188 26.177 24.2188 26.2187C23.6354 26.2187 23.0521 26.2187 22.4688 26.2187C21.8646 26.2187 21.2604 26.2187 20.6562 26.2187C20.1979 26.2187 19.7396 26.2187 19.2812 26.2187C19.2812 26.1979 19.2812 26.177 19.2812 26.1562C21.4164 26.0938 23.5622 26.0729 25.7188 26.0937Z"
            fill="#207DC3" />
        <path fill-rule="evenodd" clip-rule="evenodd"
            d="M14.4062 26.2189C15.1176 26.1966 15.8259 26.2279 16.5312 26.3126C16.3561 26.9993 16.2311 27.6972 16.1562 28.4064C16.48 28.428 16.7925 28.4697 17.0938 28.5314C16.3854 28.5314 15.6771 28.5314 14.9688 28.5314C14.7724 28.48 14.5641 28.4488 14.3438 28.4376C14.2764 28.3955 14.2347 28.333 14.2188 28.2501C14.3247 27.8084 14.3977 27.3605 14.4375 26.9064C14.6182 26.8225 14.7016 26.6767 14.6875 26.4689C14.7188 26.3959 14.7708 26.3439 14.8438 26.3126C14.6852 26.301 14.5394 26.2697 14.4062 26.2189Z"
            fill="#004589" />
        <path fill-rule="evenodd" clip-rule="evenodd"
            d="M9.78125 26.2188C9.78125 26.1979 9.78125 26.1771 9.78125 26.1562C12.9479 26.1562 16.1146 26.1562 19.2812 26.1562C19.2812 26.1771 19.2812 26.1979 19.2812 26.2188C19.0204 26.1847 18.7809 26.2264 18.5625 26.3438C18.4584 27.0306 18.3646 27.7181 18.2812 28.4062C18.4052 28.3848 18.4886 28.4265 18.5312 28.5312C18.0521 28.5312 17.5729 28.5312 17.0938 28.5312C16.7925 28.4696 16.48 28.4279 16.1562 28.4062C16.2311 27.6971 16.3561 26.9992 16.5312 26.3125C15.8259 26.2278 15.1176 26.1965 14.4062 26.2188C14.1562 26.2188 13.9062 26.2188 13.6562 26.2188C13.3229 26.2188 12.9896 26.2188 12.6562 26.2188C12.2396 26.2188 11.8229 26.2188 11.4062 26.2188C11.1354 26.2188 10.8646 26.2188 10.5938 26.2188C10.3229 26.2188 10.0521 26.2188 9.78125 26.2188Z"
            fill="#145196" />
        <path fill-rule="evenodd" clip-rule="evenodd"
            d="M19.2812 26.219C19.7396 26.219 20.1979 26.219 20.6562 26.219C20.5701 26.2649 20.4764 26.3065 20.375 26.344C20.2324 26.9954 20.1178 27.6517 20.0312 28.3127C20.1054 28.401 20.1887 28.4739 20.2812 28.5315C19.6979 28.5315 19.1146 28.5315 18.5312 28.5315C18.4886 28.4267 18.4052 28.385 18.2812 28.4065C18.3646 27.7184 18.4584 27.0309 18.5625 26.344C18.7809 26.2267 19.0204 26.185 19.2812 26.219Z"
            fill="#0058A3" />
        <path fill-rule="evenodd" clip-rule="evenodd"
            d="M22.4688 26.2188C23.0521 26.2188 23.6354 26.2188 24.2188 26.2188C24.1582 26.2693 24.1061 26.3318 24.0625 26.4062C23.9937 27.1032 23.8791 27.7907 23.7188 28.4688C23.7994 28.4539 23.8619 28.4748 23.9062 28.5312C23.3646 28.5312 22.8229 28.5312 22.2812 28.5312C22.2013 28.4418 22.0971 28.4001 21.9688 28.4062C22.0919 27.7218 22.2064 27.0343 22.3125 26.3438C22.3747 26.3084 22.4268 26.2667 22.4688 26.2188Z"
            fill="#0066BC" />
        <path fill-rule="evenodd" clip-rule="evenodd"
            d="M24.2188 26.2188C24.8021 26.2188 25.3854 26.2188 25.9688 26.2188C25.8861 26.5784 25.8236 26.943 25.7812 27.3125C25.7935 27.4299 25.8143 27.5445 25.8438 27.6562C25.7085 27.9688 25.5418 28.2604 25.3438 28.5312C24.8646 28.5312 24.3854 28.5312 23.9062 28.5312C23.8619 28.4748 23.7994 28.4539 23.7188 28.4688C23.8791 27.7907 23.9937 27.1032 24.0625 26.4062C24.1061 26.3318 24.1582 26.2693 24.2188 26.2188Z"
            fill="#006CC9" />
        <path fill-rule="evenodd" clip-rule="evenodd"
            d="M25.7188 26.0938C26.0521 26.0938 26.3854 26.0938 26.7188 26.0938C26.4756 26.6427 26.1839 27.1635 25.8438 27.6562C25.8143 27.5445 25.7935 27.4299 25.7812 27.3125C25.8236 26.943 25.8861 26.5784 25.9688 26.2188C25.3854 26.2188 24.8021 26.2188 24.2188 26.2188C24.7188 26.1771 25.2188 26.1354 25.7188 26.0938Z"
            fill="#0377D2" />
        <path fill-rule="evenodd" clip-rule="evenodd"
            d="M9.78125 26.2188C10.0521 26.2188 10.3229 26.2188 10.5938 26.2188C10.4665 26.3835 10.4248 26.5606 10.4688 26.75C10.2862 27.3021 10.1612 27.8541 10.0938 28.4062C10.3174 28.4093 10.5257 28.4509 10.7188 28.5312C10.5104 28.5312 10.3021 28.5312 10.0938 28.5312C9.97856 28.4823 9.85356 28.4406 9.71875 28.4062C9.69794 28.3646 9.67706 28.3229 9.65625 28.2812C9.73494 27.6206 9.85994 26.9748 10.0312 26.3438C9.96875 26.3438 9.90625 26.3438 9.84375 26.3438C9.87175 26.7119 9.70506 26.9411 9.34375 27.0312C9.47287 26.7521 9.61875 26.4813 9.78125 26.2188Z"
            fill="#011566" />
        <path fill-rule="evenodd" clip-rule="evenodd"
            d="M10.5938 26.2188C10.8646 26.2188 11.1354 26.2188 11.4062 26.2188C11.5606 26.2698 11.7272 26.3011 11.9062 26.3125C11.8678 26.4487 11.7948 26.5632 11.6875 26.6562C11.633 27.0411 11.5393 27.4161 11.4062 27.7812C11.4472 27.9747 11.4055 28.1622 11.2812 28.3438C11.4691 28.4261 11.6566 28.4886 11.8438 28.5312C11.4688 28.5312 11.0938 28.5312 10.7188 28.5312C10.5257 28.4509 10.3174 28.4093 10.0938 28.4062C10.1612 27.8541 10.2862 27.3021 10.4688 26.75C10.4248 26.5606 10.4665 26.3835 10.5938 26.2188Z"
            fill="#00206B" />
        <path fill-rule="evenodd" clip-rule="evenodd"
            d="M11.4062 26.2188C11.8229 26.2188 12.2396 26.2188 12.6562 26.2188C12.8316 26.2699 13.0191 26.3012 13.2188 26.3125C13.0526 26.4896 12.9901 26.6875 13.0312 26.9062C12.9948 27.0001 12.9427 27.0834 12.875 27.1562C12.8116 27.5293 12.7178 27.8939 12.5938 28.25C12.5991 28.3192 12.6199 28.3817 12.6562 28.4375C12.8148 28.4491 12.9606 28.4804 13.0938 28.5312C12.6771 28.5312 12.2604 28.5312 11.8438 28.5312C11.6566 28.4886 11.4691 28.4261 11.2812 28.3438C11.4055 28.1622 11.4472 27.9747 11.4062 27.7812C11.5393 27.4161 11.633 27.0411 11.6875 26.6562C11.7948 26.5632 11.8678 26.4487 11.9062 26.3125C11.7272 26.3011 11.5606 26.2698 11.4062 26.2188Z"
            fill="#002C73" />
        <path fill-rule="evenodd" clip-rule="evenodd"
            d="M12.6562 26.2188C12.9896 26.2188 13.3229 26.2188 13.6562 26.2188C13.7894 26.2696 13.9352 26.3009 14.0938 26.3125C13.9583 26.3646 13.8646 26.4583 13.8125 26.5938C13.7062 26.985 13.6333 27.3808 13.5938 27.7812C13.5312 27.7812 13.4688 27.7812 13.4062 27.7812C13.398 27.9931 13.3876 28.2014 13.375 28.4062C13.6209 28.4461 13.8606 28.4878 14.0938 28.5312C13.7604 28.5312 13.4271 28.5312 13.0938 28.5312C12.9606 28.4804 12.8148 28.4491 12.6562 28.4375C12.6199 28.3817 12.5991 28.3192 12.5938 28.25C12.7178 27.8939 12.8116 27.5293 12.875 27.1562C12.9427 27.0834 12.9948 27.0001 13.0312 26.9062C12.9901 26.6875 13.0526 26.4896 13.2188 26.3125C13.0191 26.3012 12.8316 26.2699 12.6562 26.2188Z"
            fill="#00347A" />
        <path fill-rule="evenodd" clip-rule="evenodd"
            d="M13.6562 26.2188C13.9062 26.2188 14.1562 26.2188 14.4062 26.2188C14.5394 26.2696 14.6852 26.3009 14.8438 26.3125C14.7708 26.3438 14.7188 26.3958 14.6875 26.4688C14.7016 26.6766 14.6182 26.8224 14.4375 26.9062C14.3977 27.3604 14.3247 27.8083 14.2188 28.25C14.2347 28.3329 14.2764 28.3954 14.3438 28.4375C14.5641 28.4487 14.7724 28.4799 14.9688 28.5312C14.6771 28.5312 14.3854 28.5312 14.0938 28.5312C13.8606 28.4878 13.6209 28.4461 13.375 28.4062C13.3876 28.2014 13.398 27.9931 13.4062 27.7812C13.4688 27.7812 13.5312 27.7812 13.5938 27.7812C13.6333 27.3808 13.7062 26.985 13.8125 26.5938C13.8646 26.4583 13.9583 26.3646 14.0938 26.3125C13.9352 26.3009 13.7894 26.2696 13.6562 26.2188Z"
            fill="#003B80" />
        <path fill-rule="evenodd" clip-rule="evenodd"
            d="M20.6562 26.2188C21.2604 26.2188 21.8646 26.2188 22.4688 26.2188C22.4268 26.2667 22.3747 26.3084 22.3125 26.3438C22.2064 27.0343 22.0919 27.7218 21.9688 28.4062C22.0971 28.4001 22.2013 28.4418 22.2812 28.5312C21.6146 28.5312 20.9479 28.5312 20.2812 28.5312C20.1887 28.4737 20.1054 28.4007 20.0312 28.3125C20.1178 27.6514 20.2324 26.9952 20.375 26.3438C20.4764 26.3063 20.5701 26.2646 20.6562 26.2188Z"
            fill="#005EAD" />
        <path fill-rule="evenodd" clip-rule="evenodd"
            d="M10.0938 28.5312C9.55169 28.5416 9.01 28.5312 8.46875 28.5C8.73844 27.9909 9.03012 27.5014 9.34375 27.0312C9.70506 26.9411 9.87175 26.7119 9.84375 26.3438C9.90625 26.3438 9.96875 26.3438 10.0312 26.3438C9.85994 26.9748 9.73494 27.6206 9.65625 28.2812C9.67706 28.3229 9.69794 28.3646 9.71875 28.4062C9.85356 28.4406 9.97856 28.4823 10.0938 28.5312Z"
            fill="#000E65" />
    </g>
    <defs>
        <clipPath id="clip0_2089_634">
            <rect width="32" height="32" fill="white" />
        </clipPath>
    </defs>
</svg>