<svg width="32" height="32" viewBox="0 0 32 32" fill="none" xmlns="http://www.w3.org/2000/svg">
    <g clip-path="url(#clip0_4291_136)">
        <path fill-rule="evenodd" clip-rule="evenodd"
            d="M5.9759 5.58984C6.47711 5.58984 6.97831 5.58984 7.47952 5.58984C8.28981 5.68648 9.07374 5.89853 9.83133 6.22599C10.1308 6.40984 10.4392 6.5769 10.7566 6.72719C11.0198 6.81324 11.2897 6.86465 11.5663 6.88141C15.3767 6.88279 19.1871 6.87636 22.9976 6.86213C25.793 6.85801 28.5882 6.87728 31.3831 6.91996C31.5727 6.92747 31.7591 6.94675 31.9422 6.9778C31.9789 7.23365 31.9982 7.49067 32 7.74888C31.7142 8.73734 31.1873 9.57909 30.4193 10.2742C29.2691 11.2515 27.9904 12.0289 26.5831 12.6067C26.5434 12.6197 26.5241 12.6454 26.5253 12.6838C26.2407 10.5298 25.007 9.39239 22.8241 9.27177C21.4748 9.25249 20.1254 9.24607 18.7759 9.25249C18.6796 9.81689 18.5897 10.3823 18.506 10.9489C19.8812 10.9424 21.2563 10.9489 22.6313 10.9682C23.6767 11.0754 24.2872 11.6473 24.4627 12.6838C24.4819 12.9277 24.4883 13.1718 24.4819 13.4163C23.0828 13.8239 21.6692 14.1709 20.241 14.4573C20.3082 13.9316 20.3982 13.4111 20.5108 12.8959C19.8422 12.8638 19.1739 12.8702 18.506 12.9151C18.3807 13.5631 18.2521 14.2057 18.1205 14.8429C18.0975 14.8182 18.0653 14.8054 18.0241 14.8043C17.2501 14.9195 16.4726 14.9966 15.6916 15.0356C15.918 13.6724 16.1493 12.3102 16.3855 10.9489C16.951 10.9489 17.5165 10.9489 18.0819 10.9489C18.169 10.4235 18.2461 9.89654 18.3133 9.36816C18.3481 9.34082 18.3609 9.30227 18.3518 9.25249C16.2248 9.23968 14.1043 9.25253 11.9904 9.29105C11.8823 9.83944 11.7923 10.3921 11.7205 10.9489C12.6072 10.9489 13.494 10.9489 14.3807 10.9489C14.1406 12.3834 13.8836 13.8099 13.6096 15.2284C13.4753 15.2028 13.3339 15.1899 13.1855 15.1898C12.0997 15.2117 11.0202 15.2374 9.94699 15.267C9.52042 13.9637 9.21843 12.6272 9.04096 11.2573C8.76488 9.99459 7.98095 9.32632 6.68916 9.25249C5.0353 9.33854 4.1871 10.2124 4.14458 11.8742C4.1253 12.3624 4.11886 12.8507 4.1253 13.3392C2.74999 13.3434 1.37489 13.3306 0 13.3007C0 12.9151 0 12.5296 0 12.1441C0.0179375 8.88173 1.58581 6.78053 4.70361 5.84045C5.12871 5.73356 5.55281 5.65003 5.9759 5.58984Z"
            fill="#D4A1FB" />
        <path opacity="0.994" fill-rule="evenodd" clip-rule="evenodd"
            d="M32 7.75C31.9193 9.94913 31.3346 12.0054 30.2458 13.9187C28.5527 16.897 26.1816 19.1652 23.1326 20.7235C21.3146 21.6063 19.3997 21.9533 17.388 21.7645C15.14 21.4277 13.2572 20.4189 11.7398 18.738C10.9297 17.6962 10.3321 16.5396 9.94702 15.2681C11.0202 15.2385 12.0997 15.2128 13.1856 15.191C13.334 15.191 13.4753 15.2039 13.6097 15.2295C13.4082 16.4252 13.2026 17.6204 12.9928 18.8151C13.6739 18.8151 14.355 18.8151 15.0362 18.8151C15.238 17.5524 15.4565 16.293 15.6916 15.0367C16.4726 14.9977 17.2502 14.9206 18.0241 14.8054C18.0654 14.8065 18.0975 14.8193 18.1205 14.844C17.902 16.1549 17.6835 17.4658 17.4651 18.7765C17.4442 18.7788 17.4313 18.7917 17.4265 18.8151C18.6152 18.8663 19.7975 18.8663 20.9735 18.8151C23.7195 18.9374 25.4866 17.6909 26.2747 15.0753C26.4778 14.2913 26.5613 13.4945 26.5253 12.6849C26.5242 12.6465 26.5435 12.6208 26.5832 12.6078C27.9904 12.0301 29.2691 11.2526 30.4193 10.2753C31.1873 9.58021 31.7143 8.73846 32 7.75Z"
            fill="#C480FB" />
        <path opacity="0.855" fill-rule="evenodd" clip-rule="evenodd"
            d="M11.9905 9.2914C14.1044 9.25288 16.2249 9.24003 18.3519 9.25284C18.3611 9.30262 18.3482 9.34117 18.3134 9.36851C16.219 9.29156 14.1113 9.26586 11.9905 9.2914Z"
            fill="#F6EDFE" />
        <path opacity="0.999" fill-rule="evenodd" clip-rule="evenodd"
            d="M26.5253 12.6837C26.5613 13.4933 26.4778 14.2901 26.2747 15.0741C25.4866 17.6897 23.7195 18.9362 20.9735 18.8139C19.7974 18.8266 18.628 18.8138 17.4651 18.7753C17.6835 17.4646 17.902 16.1537 18.1205 14.8428C18.2522 14.2056 18.3807 13.563 18.5061 12.9151C19.174 12.8701 19.8422 12.8637 20.5109 12.8958C20.3982 13.4111 20.3083 13.9315 20.241 14.4572C20.0572 15.3376 19.903 16.2243 19.7783 17.1175C20.4596 17.1239 21.1407 17.1175 21.8217 17.0982C22.8297 16.9764 23.5429 16.456 23.9615 15.5367C24.2697 14.8632 24.4432 14.1564 24.482 13.4163C24.4884 13.1718 24.482 12.9276 24.4627 12.6837C24.2872 11.6472 23.6767 11.0753 22.6314 10.9681C21.2563 10.9488 19.8812 10.9424 18.5061 10.9488C18.5897 10.3822 18.6797 9.81681 18.7759 9.25241C20.1254 9.24598 21.4748 9.25241 22.8241 9.27169C25.007 9.39231 26.2408 10.5297 26.5253 12.6837Z"
            fill="#FEFEFE" />
        <path fill-rule="evenodd" clip-rule="evenodd"
            d="M11.9903 9.2908C14.1112 9.26526 16.2188 9.29096 18.3132 9.36791C18.2461 9.89629 18.169 10.4232 18.0819 10.9486C17.5164 10.9486 16.951 10.9486 16.3855 10.9486C16.1493 12.3099 15.9179 13.6721 15.6915 15.0354C15.4565 16.2916 15.238 17.551 15.0361 18.8137C14.355 18.8137 13.6739 18.8137 12.9927 18.8137C13.2026 17.619 13.4082 16.4239 13.6096 15.2281C13.8835 13.8097 14.1406 12.3832 14.3807 10.9486C13.494 10.9486 12.6072 10.9486 11.7205 10.9486C11.7923 10.3918 11.8823 9.83919 11.9903 9.2908Z"
            fill="#FEFEFE" />
        <path fill-rule="evenodd" clip-rule="evenodd"
            d="M24.4819 13.416C24.4431 14.1561 24.2697 14.863 23.9615 15.5365C23.5429 16.4557 22.8297 16.9762 21.8217 17.0979C21.1407 17.1172 20.4596 17.1237 19.7783 17.1172C19.903 16.2241 20.0572 15.3373 20.241 14.457C21.6692 14.1706 23.0828 13.8236 24.4819 13.416Z"
            fill="#C580FC" />
        <path opacity="0.859" fill-rule="evenodd" clip-rule="evenodd"
            d="M17.4651 18.7754C18.6279 18.8139 19.7974 18.8267 20.9735 18.8139C19.7975 18.8652 18.6152 18.8652 17.4265 18.8139C17.4313 18.7905 17.4441 18.7777 17.4651 18.7754Z"
            fill="#D098FD" />
        <path opacity="0.994" fill-rule="evenodd" clip-rule="evenodd"
            d="M25.4844 26.4487C25.2916 26.4487 25.0988 26.4487 24.906 26.4487C23.7194 26.1589 23.1732 25.4006 23.2675 24.174C23.5081 23.1687 24.1442 22.6289 25.1759 22.5547C26.3745 22.6544 27.0299 23.3034 27.1422 24.5017C27.0614 25.5583 26.5088 26.2074 25.4844 26.4487Z"
            fill="#D4A1FB" />
        <path opacity="0.994" fill-rule="evenodd" clip-rule="evenodd"
            d="M14.1879 26.4481C14.008 26.4481 13.8281 26.4481 13.6481 26.4481C12.4162 26.1437 11.87 25.3598 12.0096 24.0963C12.3704 22.9273 13.1608 22.4325 14.3807 22.612C15.4692 22.9698 15.9511 23.7216 15.8264 24.8674C15.5987 25.7314 15.0525 26.2583 14.1879 26.4481Z"
            fill="#D4A1FB" />
    </g>
    <defs>
        <clipPath id="clip0_4291_136">
            <rect width="32" height="32" fill="white" />
        </clipPath>
    </defs>
</svg>