<svg width="32" height="32" viewBox="0 0 32 32" fill="none" xmlns="http://www.w3.org/2000/svg">
<path d="M8.59799 16.7269L9.82702 20.9334L13.75 21.6094C14.3458 21.7146 14.4825 22.586 13.961 23.0819L10.6091 26.3569L10.6587 30.984C10.6712 31.6901 9.95113 32.231 9.44213 31.9005L6.13981 29.7221L2.25412 31.9005C1.6582 32.231 1.08715 31.6901 1.28575 30.984L2.61414 26.3719L0.156081 23.0968C-0.228804 22.601 0.143647 21.7146 0.776755 21.6245L4.88591 20.9485L7.25728 16.7419C7.6173 16.0959 8.41182 16.0959 8.5981 16.7269H8.59799ZM26.3135 16.7269L27.5425 20.9334L31.4654 21.6094C32.0613 21.7146 32.1979 22.586 31.6766 23.0819L28.3246 26.3569L28.3742 30.984C28.3867 31.6901 27.6665 32.231 27.1575 31.9005L23.8678 29.7221L19.9945 31.9005C19.3986 32.231 18.8275 31.6901 19.0261 30.984L20.3297 26.3569L17.8716 23.0817C17.4991 22.586 17.8592 21.6996 18.4923 21.6094L22.6014 20.9334L24.9727 16.7269C25.3327 16.0959 26.1272 16.0959 26.3134 16.7269H26.3135ZM19.6594 0.471393L20.8883 4.67808L24.8113 5.35409C25.4072 5.45928 25.5437 6.33063 25.0223 6.82649L21.6704 10.1014L21.7201 14.7287C21.7325 15.4346 21.0124 15.9755 20.5034 15.645L17.2261 13.4666L13.3403 15.645C12.7444 15.9755 12.1733 15.4348 12.372 14.7287L13.688 10.1014L11.2297 6.84154C10.8449 6.34582 11.2173 5.45942 11.8505 5.36928L15.9596 4.69327L18.3309 0.486441C18.6786 -0.159617 19.4731 -0.159617 19.6592 0.471393H19.6594Z" fill="#1F00FF"/>
<path d="M8.59799 16.7269L9.82702 20.9334L13.75 21.6094C14.3458 21.7146 14.4825 22.586 13.961 23.0819L10.6091 26.3569L10.6587 30.984C10.6712 31.6901 9.95113 32.231 9.44213 31.9005L6.13981 29.7221L2.25412 31.9005C1.6582 32.231 1.08715 31.6901 1.28575 30.984L2.61414 26.3719L0.156081 23.0968C-0.228804 22.601 0.143647 21.7146 0.776755 21.6245L4.88591 20.9485L7.25728 16.7419C7.6173 16.0959 8.41182 16.0959 8.5981 16.7269H8.59799ZM26.3135 16.7269L27.5425 20.9334L31.4654 21.6094C32.0613 21.7146 32.1979 22.586 31.6766 23.0819L28.3246 26.3569L28.3742 30.984C28.3867 31.6901 27.6665 32.231 27.1575 31.9005L23.8678 29.7221L19.9945 31.9005C19.3986 32.231 18.8275 31.6901 19.0261 30.984L20.3297 26.3569L17.8716 23.0817C17.4991 22.586 17.8592 21.6996 18.4923 21.6094L22.6014 20.9334L24.9727 16.7269C25.3327 16.0959 26.1272 16.0959 26.3134 16.7269H26.3135ZM19.6594 0.471393L20.8883 4.67808L24.8113 5.35409C25.4072 5.45928 25.5437 6.33063 25.0223 6.82649L21.6704 10.1014L21.7201 14.7287C21.7325 15.4346 21.0124 15.9755 20.5034 15.645L17.2261 13.4666L13.3403 15.645C12.7444 15.9755 12.1733 15.4348 12.372 14.7287L13.688 10.1014L11.2297 6.84154C10.8449 6.34582 11.2173 5.45942 11.8505 5.36928L15.9596 4.69327L18.3309 0.486441C18.6786 -0.159617 19.4731 -0.159617 19.6592 0.471393H19.6594Z" fill="#131CAA"/>
</svg>
