<svg width="32" height="32" viewBox="0 0 32 32" fill="none" xmlns="http://www.w3.org/2000/svg">
    <g clip-path="url(#clip0_3980_89)">
        <path
            d="M16 31.984C24.8366 31.984 32 24.8241 32 15.992C32 7.15986 24.8366 0 16 0C7.16344 0 0 7.15986 0 15.992C0 24.8241 7.16344 31.984 16 31.984Z"
            fill="#E8BE10" />
        <path
            d="M5.98403 12.9216C7.52003 13.8491 9.79203 13.5612 10.992 12.2819C11.136 12.122 11.312 11.9301 11.328 11.7381C11.36 11.2744 11.632 11.1464 12 11.1624C12.944 11.1944 13.888 11.1464 14.8 11.3064C16.112 11.5302 16.992 12.4098 17.36 13.6572C17.856 15.3363 17.904 17.0635 17.392 18.7586C17.008 20.07 16.032 20.8696 14.816 21.4133C13.28 22.085 11.744 22.7406 10.032 22.8206C8.36803 22.9006 6.70403 22.7726 5.56803 21.4293C4.88003 20.5977 4.46403 19.5263 4.01603 18.5188C3.20003 16.6477 3.69603 15.0485 5.13603 13.6892C5.32803 13.4973 5.53603 13.3214 5.72803 13.1295C5.84003 13.0495 5.90403 12.9855 5.98403 12.9216Z"
            fill="white" />
        <path
            d="M12.8961 4.35059C13.8721 6.15768 16.3841 6.70141 17.7921 5.53399C19.4081 6.50951 20.9921 7.45303 22.5601 8.42855C22.9121 8.65243 23.2481 8.90831 23.5521 9.18017C24.4961 10.0437 24.8321 11.0992 24.3841 12.3306C23.8881 13.7379 23.1521 15.0013 22.1441 16.0887C21.2321 17.0642 20.0321 17.4161 18.6241 17.432C18.6241 16.6324 18.6561 15.8968 18.6241 15.1612C18.4001 11.483 15.9841 9.96378 12.6401 10.1557C12.2721 10.1717 11.9201 10.2676 11.5521 10.2676C11.1681 10.2676 10.7841 10.2037 10.4001 10.1557C10.0961 10.1077 9.80812 10.0277 9.48812 9.96378C9.04012 7.42105 10.2241 5.47003 12.8961 4.35059Z"
            fill="white" />
        <path
            d="M13.4082 23.045C14.0162 22.7892 14.5282 22.5653 15.0562 22.3414C16.7202 21.6377 17.9362 20.5183 18.3842 18.7112C18.4642 18.3914 18.6722 18.4073 18.9122 18.3914C20.4482 18.2794 21.8242 17.7997 22.9122 16.6642C23.1042 16.4563 23.2802 16.2324 23.5042 15.9766C24.7682 16.6322 25.9522 17.3199 26.7042 18.5833C27.5042 19.9106 27.5202 21.2379 26.7522 22.5493C25.7602 24.2604 24.3202 25.5398 22.6722 26.5633C21.6482 27.2029 20.4962 27.171 19.3442 26.8831C16.9602 26.2914 15.1042 24.8841 13.4082 23.045Z"
            fill="white" />
        <path
            d="M17.1706 4.89105C17.2747 4.57197 16.6168 4.0713 15.7011 3.77277C14.7854 3.47423 13.9587 3.49088 13.8546 3.80996C13.7504 4.12903 14.4083 4.62971 15.324 4.92824C16.2397 5.22677 17.0665 5.21012 17.1706 4.89105Z"
            fill="white" />
        <path
            d="M8.63765 12.2952C9.56731 12.0434 10.2497 11.5766 10.1619 11.2527C10.0741 10.9287 9.24921 10.8703 8.31954 11.1221C7.38987 11.374 6.70744 11.8407 6.79528 12.1647C6.88313 12.4886 7.70798 12.5471 8.63765 12.2952Z"
            fill="white" />
    </g>
    <defs>
        <clipPath id="clip0_3980_89">
            <rect width="32" height="32" fill="white" />
        </clipPath>
    </defs>
</svg>