<svg width="32" height="32" viewBox="0 0 34 34" fill="none" xmlns="http://www.w3.org/2000/svg">
    <path
        d="M26.9498 0.304688H1.56297C0.808711 0.304688 0.197266 0.923787 0.197266 1.68748V27.3921C0.197266 28.1558 0.808711 28.7749 1.56297 28.7749H26.9498C27.7041 28.7749 28.3155 28.1558 28.3155 27.3921V1.68748C28.3155 0.923787 27.7041 0.304688 26.9498 0.304688Z"
        fill="#419DE0" />
    <path
        d="M30.2277 2.61133H4.84089C3.75314 2.61133 2.87134 3.50417 2.87134 4.60554V30.3102C2.87134 31.4116 3.75314 32.3044 4.84089 32.3044H30.2277C31.3155 32.3044 32.1973 31.4116 32.1973 30.3102V4.60554C32.1973 3.50417 31.3155 2.61133 30.2277 2.61133Z"
        fill="#EB4034" stroke="#EEF7FC" stroke-width="2.67618" />
    <path
        d="M12.4437 13.6371H9.67749V11.3362H16.3588H16.4953V11.1979V8.75879H18.6489V11.1979V11.3362H18.7854H25.4667V13.6371H22.7415H22.6345L22.6088 13.7422C22.3448 14.8256 21.8114 16.5332 20.789 18.3547C20.3794 19.0845 19.8681 19.8698 19.2353 20.6553L19.1518 20.759L19.2513 20.8469C20.8518 22.262 22.778 23.2472 25.0109 23.792L24.5006 26.0257C21.5728 25.3142 19.3538 23.9867 17.6831 22.4867L17.5925 22.4054L17.5019 22.4867C15.8312 23.9867 13.6123 25.3142 10.6845 26.0257L10.1741 23.792C12.407 23.2472 14.3333 22.262 15.9338 20.8469L16.0332 20.759L15.9497 20.6554C15.3169 19.8698 14.8057 19.0844 14.396 18.3546C13.3737 16.5332 12.8403 14.8256 12.5763 13.7422L12.5507 13.6371H12.4437ZM15.07 13.6371H14.8876L14.939 13.8143C15.2077 14.7417 15.6624 15.9942 16.4074 17.3026C16.7378 17.8828 17.0969 18.428 17.4843 18.9378L17.5925 19.0803L17.7008 18.9378C18.0881 18.428 18.4472 17.8828 18.7776 17.3026C19.5226 15.9942 19.9773 14.7417 20.2461 13.8143L20.2974 13.6371H20.115H15.07Z"
        fill="white" stroke="#E9564C" stroke-width="0.605263" />
</svg>