<svg width="32" height="32" viewBox="0 0 32 32" fill="none" xmlns="http://www.w3.org/2000/svg">
    <path
        d="M0 6.24391C0 2.7955 2.79549 0 6.24389 0H25.756C29.2045 0 32 2.7955 32 6.24391V25.7561C32 29.2045 29.2045 32 25.756 32H6.24389C2.79549 32 0 29.2045 0 25.7561V6.24391Z"
        fill="#006DFF" />
    <mask id="mask0_4839_92" style="mask-type:alpha" maskUnits="userSpaceOnUse" x="0" y="0"
        width="32" height="32">
        <path
            d="M0 6.24391C0 2.7955 2.79549 0 6.24389 0H25.756C29.2045 0 32 2.7955 32 6.24391V25.7561C32 29.2045 29.2045 32 25.756 32H6.24389C2.79549 32 0 29.2045 0 25.7561V6.24391Z"
            fill="white" />
    </mask>
    <g mask="url(#mask0_4839_92)">
        <path
            d="M29.0687 13.1687C28.5465 11.4723 27.4133 10.1858 25.793 9.44745C23.7327 8.50868 21.3908 8.65398 19.528 9.83552C18.2802 10.627 17.3027 11.8193 16.6227 13.3796C15.9362 14.9553 15.5717 16.8925 15.5399 19.137C15.5366 19.3924 15.5333 19.6392 15.53 19.878C15.526 20.2177 15.1688 20.4386 14.8652 20.2874C14.4504 20.081 14.0714 19.8289 13.7254 19.5291C12.2503 18.2506 11.3292 16.0811 10.9779 13.0638H14.0025C14.5048 13.0638 14.9124 12.6558 14.9124 12.1529V9.59605C14.9124 9.09314 14.5048 8.68511 14.0025 8.68511H10.8341C10.918 5.77926 11.2682 2.50531 11.6582 8.23578e-06L7.23185 0C6.84887 2.61111 6.53105 5.78514 6.45643 8.68511H3.25167C2.74935 8.68511 2.3418 9.09314 2.3418 9.59605V12.1529C2.3418 12.6558 2.74935 13.0638 3.25167 13.0638H6.58168C7.01442 17.4657 8.4498 20.7491 10.8633 22.8403C12.1172 23.9263 13.6055 24.666 15.3092 25.0542C15.5074 25.0993 15.6532 25.2684 15.6671 25.4721C15.7816 27.0992 15.9768 29.1017 16.2992 32.0001H20.6981C20.3769 29.1469 20.1782 27.173 20.0588 25.5942C20.0408 25.362 20.1986 25.1524 20.4273 25.1065C21.1794 24.9579 22.0004 24.7317 22.8487 24.3927C25.1264 23.4831 26.9427 21.9918 28.1018 20.079C29.123 18.3939 29.8188 15.6028 29.0687 13.1687ZM24.3629 17.8074C23.691 18.916 22.6366 19.7632 21.2284 20.3252C20.9799 20.4246 20.7341 20.5096 20.4942 20.5819C20.1966 20.6722 19.8977 20.4452 19.9011 20.1341C19.9044 19.8355 19.9083 19.5257 19.913 19.1986C19.9527 16.3618 20.6658 14.2979 21.8686 13.5349C22.253 13.2914 22.6386 13.2112 22.9799 13.2112C23.4213 13.2112 23.7883 13.3451 23.9812 13.4333C24.457 13.6503 24.7373 13.9668 24.8891 14.4598C25.2059 15.4887 24.8706 16.9694 24.3629 17.8074Z"
            fill="white" />
    </g>
</svg>