<svg width="32" height="32" viewBox="0 0 32 32" fill="none" xmlns="http://www.w3.org/2000/svg">
    <g clip-path="url(#clip0_4404_45)">
        <path fill-rule="evenodd" clip-rule="evenodd"
            d="M-0.0932617 -0.09375C10.5734 -0.09375 21.2401 -0.09375 31.9067 -0.09375C31.9067 10.5729 31.9067 21.2396 31.9067 31.9062C26.6974 31.9062 21.4881 31.9062 16.2788 31.9062C17.2958 31.6785 18.3501 31.5236 19.4416 31.4411C20.1962 31.0197 21.0024 30.7407 21.8602 30.6039C21.9892 30.4145 22.1131 30.2285 22.2323 30.0458C22.2943 29.8597 22.4184 29.7356 22.6044 29.6737C23.6576 29.3956 24.5259 28.8374 25.2091 27.9993C26.0236 27.4674 26.7678 26.8473 27.4416 26.1388C28.6165 25.3967 29.3607 24.3423 29.6742 22.976C29.6193 22.5602 29.6814 22.1881 29.8602 21.8597C30.5477 20.5969 30.9198 19.2324 30.9765 17.7667C31.1611 16.4369 31.223 15.0726 31.1626 13.6737C31.0628 13.1054 30.9079 12.5472 30.6974 11.9993C30.4824 11.7215 30.3272 11.7526 30.2323 12.0923C30.6098 13.3963 30.7028 14.7296 30.5114 16.0923C30.3112 15.1015 29.97 14.1713 29.4881 13.3016C29.3229 12.4509 29.0749 11.6447 28.7439 10.883C28.5259 10.1094 28.1538 9.4272 27.6277 8.83648C27.3175 8.0923 27.0076 7.34811 26.6974 6.60392C27.0666 6.58219 27.3765 6.70623 27.6277 6.97602C27.8178 6.90988 27.9419 6.78584 27.9998 6.60392C27.7339 5.93952 27.2997 5.4434 26.6974 5.11555C26.3328 4.8074 25.9607 4.49732 25.5812 4.18532C25.3951 4.12331 25.271 3.99927 25.2091 3.81323C25.2251 3.62794 25.1629 3.47291 25.023 3.34811C24.6226 3.08528 24.1884 2.93023 23.7207 2.88299C23.3378 2.55886 23.0277 2.15576 22.7905 1.67369C23.0945 1.58188 23.4046 1.55087 23.7207 1.58067C23.7207 1.27059 23.7207 0.960514 23.7207 0.650436C22.9503 0.613902 22.516 0.985995 22.4184 1.76672C21.8839 1.52953 21.3257 1.37449 20.7439 1.3016C19.2987 1.27737 17.8723 1.12234 16.4649 0.836483C15.3202 0.621915 14.1418 0.590907 12.93 0.743459C12.8266 0.814637 12.7645 0.90766 12.7439 1.02253C11.7538 1.12649 10.8236 1.37455 9.95325 1.76672C9.4942 1.81413 9.12211 2.00018 8.83697 2.32485C7.64858 2.70465 6.65632 3.38683 5.86023 4.37137C5.28411 4.77148 4.788 5.26761 4.37185 5.85974C4.30985 5.85974 4.24782 5.85974 4.18581 5.85974C3.66919 6.31565 3.2971 6.87378 3.06953 7.53416C2.68106 7.87566 2.43301 8.30977 2.32534 8.83648C1.96964 9.42837 1.62856 10.0485 1.30209 10.6969C1.15083 11.0571 1.05781 11.4292 1.02302 11.8132C0.836971 11.8132 0.650924 11.8132 0.464878 11.8132C0.228201 14.7907 0.166185 17.7675 0.278831 20.7435C0.588909 20.7435 0.898986 20.7435 1.20906 20.7435C1.48426 21.9159 2.0424 22.9083 2.88348 23.7202C2.85433 23.9756 2.88534 24.2238 2.97651 24.4644C3.61215 25.2529 4.26332 25.997 4.92999 26.6969C5.36415 27.3163 5.92229 27.8125 6.60441 28.1853C7.21898 28.8655 7.96317 29.3615 8.83697 29.6737C9.37416 29.9682 9.9323 30.2473 10.5114 30.5109C10.9281 30.6927 11.3622 30.7857 11.8137 30.79C11.8137 30.8519 11.8137 30.9141 11.8137 30.976C12.5237 31.2382 13.2059 31.5483 13.8602 31.9062C9.20906 31.9062 4.5579 31.9062 -0.0932617 31.9062C-0.0932617 21.2396 -0.0932617 10.5729 -0.0932617 -0.09375Z"
            fill="#FCFCF9" />
        <path fill-rule="evenodd" clip-rule="evenodd"
            d="M16.4651 0.836548C15.5348 0.960579 14.6046 1.08461 13.6744 1.20864C13.8162 1.06577 14.0023 0.97275 14.2325 0.929571C13.7316 0.849612 13.2355 0.880618 12.7441 1.02259C12.7647 0.907725 12.8267 0.814702 12.9302 0.743524C14.142 0.590972 15.3203 0.62198 16.4651 0.836548Z"
            fill="#E3AC84" />
        <path fill-rule="evenodd" clip-rule="evenodd"
            d="M23.349 2.88441C22.8261 2.87114 22.3299 2.74711 21.8607 2.51232C21.4757 2.57263 21.4138 2.72766 21.6746 2.97743C21.3706 3.06925 21.0605 3.10026 20.7444 3.07045C20.7444 2.88441 20.7444 2.69836 20.7444 2.51232C18.0066 2.48192 15.2779 2.60595 12.5583 2.88441C12.5436 3.15055 12.6056 3.3986 12.7444 3.62859C13.1022 3.77888 13.4743 3.87191 13.8607 3.90766C13.9704 4.14932 14.1565 4.30435 14.4188 4.37278C15.3768 4.17989 16.307 3.90082 17.2095 3.53557C18.4213 3.38301 19.5996 3.41403 20.7444 3.62859C17.1806 3.43153 14.0799 4.4858 11.4421 6.79139C11.4137 6.05315 11.5998 5.37099 12.0002 4.74487C12.4523 5.13018 12.9484 5.1922 13.4886 4.93092C13.1785 4.68286 12.8684 4.43479 12.5583 4.18673C12.0002 3.93868 11.4421 3.93868 10.8839 4.18673C11.1036 4.50264 11.1036 4.81272 10.8839 5.11697C10.7387 4.8869 10.5526 4.70085 10.3258 4.55883C9.7814 4.73619 9.28529 4.98424 8.8374 5.30301C9.65707 4.48737 10.5253 3.71217 11.4421 2.97743C12.5583 2.54333 13.6746 2.10921 14.7909 1.67511C16.7739 1.31663 18.7583 1.31663 20.7444 1.67511C21.6871 1.95639 22.5552 2.3595 23.349 2.88441Z"
            fill="#E67B33" />
        <path fill-rule="evenodd" clip-rule="evenodd"
            d="M9.95368 1.76758C9.66855 2.09225 9.29645 2.27829 8.8374 2.32572C9.12254 2.00105 9.49463 1.815 9.95368 1.76758Z"
            fill="#E9A777" />
        <path fill-rule="evenodd" clip-rule="evenodd"
            d="M23.7207 3.06886C23.7207 3.00685 23.7207 2.94482 23.7207 2.88281C24.1884 2.93005 24.6227 3.0851 25.023 3.34793C25.1629 3.47273 25.2251 3.62776 25.2091 3.81305C24.8772 3.74002 24.5672 3.61598 24.2788 3.44095C24.1908 3.17931 24.0048 3.05528 23.7207 3.06886Z"
            fill="#F2C299" />
        <path fill-rule="evenodd" clip-rule="evenodd"
            d="M23.7209 3.06936C24.005 3.05578 24.191 3.17982 24.279 3.44146C23.768 3.38315 23.2718 3.44518 22.7907 3.6275C23.448 3.86135 24.068 4.17141 24.6511 4.55774C23.3185 4.26505 22.0161 3.95498 20.7441 3.6275C21.7728 3.55549 22.765 3.36944 23.7209 3.06936Z"
            fill="#DF833D" />
        <path fill-rule="evenodd" clip-rule="evenodd"
            d="M13.6743 1.209C12.3772 1.52629 11.1369 1.9914 9.95337 2.60435C9.29501 3.23248 8.61284 3.82163 7.90686 4.37179C7.87356 3.98005 7.68751 3.66997 7.34872 3.44156C6.90469 3.84887 6.40856 4.15894 5.86035 4.37179C6.65644 3.38725 7.64871 2.70508 8.8371 2.32528C9.29615 2.27786 9.66824 2.09181 9.95337 1.76714C10.8237 1.37497 11.7539 1.12691 12.7441 1.02295C13.2354 0.880978 13.7316 0.849972 14.2324 0.929931C14.0022 0.973111 13.8162 1.06613 13.6743 1.209Z"
            fill="#E0803E" />
        <path fill-rule="evenodd" clip-rule="evenodd"
            d="M23.349 2.88439C23.4731 2.88439 23.597 2.88439 23.7211 2.88439C23.7211 2.9464 23.7211 3.00843 23.7211 3.07044C22.7652 3.37051 21.773 3.55656 20.7443 3.62858C19.5996 3.41401 18.4213 3.383 17.2094 3.53556C16.3069 3.9008 15.3767 4.17987 14.4187 4.37277C14.1564 4.30434 13.9704 4.14931 13.8606 3.90765C13.4742 3.87189 13.1021 3.77887 12.7443 3.62858C12.6056 3.39859 12.5435 3.15053 12.5583 2.88439C15.2778 2.60594 18.0065 2.4819 20.7443 2.5123C20.7443 2.69835 20.7443 2.88439 20.7443 3.07044C21.0604 3.10024 21.3706 3.06923 21.6746 2.97742C21.4137 2.72765 21.4757 2.57262 21.8606 2.5123C22.3298 2.74709 22.826 2.87113 23.349 2.88439Z"
            fill="#F27322" />
        <path fill-rule="evenodd" clip-rule="evenodd"
            d="M24.2789 3.44111C24.5673 3.61614 24.8772 3.74018 25.2091 3.8132C25.2711 3.99925 25.3952 4.12329 25.5812 4.1853C25.5652 4.37058 25.6274 4.52561 25.7673 4.65041C25.5909 4.74024 25.4049 4.77125 25.2091 4.74344C25.0028 4.73285 24.8168 4.67084 24.651 4.55739C24.0679 4.17106 23.4478 3.861 22.7905 3.62716C23.2716 3.44483 23.7678 3.3828 24.2789 3.44111Z"
            fill="#E7761B" />
        <path fill-rule="evenodd" clip-rule="evenodd"
            d="M25.5816 4.18555C25.9611 4.49755 26.3332 4.80763 26.6978 5.11578C26.8448 5.35656 27.0309 5.57362 27.256 5.76694C27.2136 5.84114 27.1514 5.87213 27.0699 5.85997C26.3797 5.59024 25.7596 5.21814 25.2095 4.74369C25.4052 4.7715 25.5912 4.74049 25.7676 4.65066C25.6277 4.52586 25.5656 4.37083 25.5816 4.18555Z"
            fill="#D38242" />
        <path fill-rule="evenodd" clip-rule="evenodd"
            d="M5.86044 4.37305C5.54215 5.06345 5.04602 5.55958 4.37207 5.86142C4.78822 5.26929 5.28433 4.77316 5.86044 4.37305Z"
            fill="#DD794F" />
        <path fill-rule="evenodd" clip-rule="evenodd"
            d="M20.7443 3.62874C22.0163 3.95622 23.3186 4.26629 24.6513 4.55898C24.8171 4.67243 25.0031 4.73444 25.2094 4.74502C25.7596 5.21948 26.3797 5.59157 27.0699 5.8613C27.2718 6.24956 27.5817 6.49762 28.0001 6.60549C27.9423 6.7874 27.8182 6.91144 27.628 6.97758C27.3769 6.70779 27.0669 6.58376 26.6978 6.60549C27.0079 7.34967 27.3179 8.09386 27.628 8.83805C27.3851 8.47103 27.0749 8.16095 26.6978 7.90781C26.1973 7.40835 25.6392 6.97425 25.0234 6.60549C24.1352 5.78471 23.0809 5.28858 21.8606 5.11712C21.4448 5.17194 21.0727 5.10993 20.7443 4.93107C19.5949 4.68597 18.4166 4.68597 17.2094 4.93107C16.0757 5.23585 15.0214 5.70097 14.0466 6.32642C13.528 6.64616 13.0939 7.04925 12.7443 7.53572C12.1204 7.97535 11.6242 8.53349 11.256 9.21014C11.183 8.89779 11.0899 8.58772 10.9769 8.27991C10.5984 8.53332 10.1953 8.71937 9.76758 8.83805C10.1158 7.9928 10.6739 7.31062 11.442 6.79153C14.0798 4.48595 17.1806 3.43168 20.7443 3.62874Z"
            fill="#F9F0E1" />
        <path fill-rule="evenodd" clip-rule="evenodd"
            d="M26.6978 5.11719C27.3 5.44504 27.7342 5.94115 28.0001 6.60556C27.5817 6.49769 27.2717 6.24963 27.0698 5.86137C27.1513 5.87354 27.2135 5.84255 27.2559 5.76835C27.0308 5.57503 26.8447 5.35797 26.6978 5.11719Z"
            fill="#D8A791" />
        <path fill-rule="evenodd" clip-rule="evenodd"
            d="M20.7441 4.92992C19.7231 4.88301 18.7307 5.00703 17.7674 5.30201C17.7674 5.61209 17.7674 5.92216 17.7674 6.23224C17.3164 6.17501 16.8823 6.23704 16.4651 6.41829C17.9339 6.50638 19.3603 6.69243 20.7441 6.97643C19.2455 6.92618 17.7572 6.98819 16.279 7.16248C15.8983 7.16454 15.5262 7.22655 15.1627 7.34852C14.3446 6.85905 13.9105 7.10711 13.8604 8.09271C13.4883 8.09271 13.1162 8.09271 12.7441 8.09271C12.7441 7.90666 12.7441 7.72061 12.7441 7.53457C13.0937 7.04809 13.5278 6.64501 14.0465 6.32527C15.0212 5.69981 16.0755 5.2347 17.2093 4.92992C18.4164 4.68482 19.5947 4.68482 20.7441 4.92992Z"
            fill="#E97A33" />
        <path fill-rule="evenodd" clip-rule="evenodd"
            d="M7.90708 4.37164C5.72018 6.38889 4.41785 8.8695 4.0001 11.8135C3.93809 11.8135 3.87606 11.8135 3.81406 11.8135C3.66204 10.5936 3.41398 10.5936 3.06987 11.8135C3.00786 11.6895 2.94583 11.5654 2.88382 11.4414C3.09977 10.5477 3.34782 9.67945 3.62801 8.83676C3.44196 8.83676 3.25592 8.83676 3.06987 8.83676C3.00786 9.58094 2.94583 9.58094 2.88382 8.83676C2.69778 8.83676 2.51173 8.83676 2.32568 8.83676C2.43335 8.31004 2.6814 7.87594 3.06987 7.53443C3.58648 7.07852 3.95858 6.52038 4.18615 5.86001C4.24816 5.86001 4.31019 5.86001 4.3722 5.86001C5.04615 5.55817 5.54228 5.06204 5.86057 4.37164C6.40877 4.15878 6.9049 3.84872 7.34894 3.44141C7.68773 3.66982 7.87378 3.9799 7.90708 4.37164Z"
            fill="#E96E2B" />
        <path fill-rule="evenodd" clip-rule="evenodd"
            d="M8.46498 5.48933C8.06443 5.91606 7.75434 6.41219 7.53475 6.9777C7.2867 7.10174 7.10065 7.28778 6.97661 7.53584C6.72856 7.53584 6.48048 7.53584 6.23243 7.53584C6.23131 6.91716 6.51038 6.48306 7.06963 6.23351C7.32132 5.26914 7.91047 4.64899 8.83708 4.37305C8.71304 4.74514 8.58902 5.11723 8.46498 5.48933Z"
            fill="#F6F8F5" />
        <path fill-rule="evenodd" clip-rule="evenodd"
            d="M21.8604 5.11719C23.0806 5.28865 24.135 5.78478 25.0231 6.60556C24.5913 6.55512 24.2192 6.67914 23.9069 6.97765C23.7297 6.69015 23.6678 6.38007 23.7208 6.04742C23.3882 6.10048 23.078 6.03847 22.7906 5.86137C22.5087 5.56701 22.1988 5.31895 21.8604 5.11719Z"
            fill="#D97040" />
        <path fill-rule="evenodd" clip-rule="evenodd"
            d="M4.1861 5.86133C3.95853 6.5217 3.58644 7.07984 3.06982 7.53575C3.2974 6.87537 3.66949 6.31724 4.1861 5.86133Z"
            fill="#E0976C" />
        <path fill-rule="evenodd" clip-rule="evenodd"
            d="M20.7444 4.92957C21.0728 5.10844 21.4449 5.17045 21.8607 5.11562C22.1991 5.31739 22.5091 5.56544 22.7909 5.85981C23.0784 6.0369 23.3885 6.09891 23.7211 6.04585C23.6681 6.3785 23.7301 6.68859 23.9072 6.97609C24.2196 6.67757 24.5917 6.55356 25.0235 6.60399C25.0255 6.8863 25.1494 7.10336 25.3956 7.25516C25.105 7.55908 24.7948 7.83815 24.4653 8.09237C24.2406 7.95579 23.9926 7.89378 23.7211 7.90632C23.7211 7.65826 23.7211 7.41019 23.7211 7.16213C23.4155 7.15845 23.1675 7.28247 22.977 7.53423C22.2534 7.29032 21.5092 7.1663 20.7444 7.16213C20.7444 7.10012 20.7444 7.0381 20.7444 6.97609C19.3606 6.69209 17.9342 6.50604 16.4653 6.41795C16.8826 6.2367 17.3167 6.17467 17.7677 6.2319C17.7677 5.92182 17.7677 5.61175 17.7677 5.30167C18.731 5.00669 19.7234 4.88267 20.7444 4.92957Z"
            fill="#EE6624" />
        <path fill-rule="evenodd" clip-rule="evenodd"
            d="M20.744 6.97585C20.744 7.03786 20.744 7.09989 20.744 7.1619C19.5022 7.13096 18.2618 7.16198 17.0231 7.25492C16.3137 7.5846 15.5695 7.73963 14.7905 7.72004C15.3014 7.58026 15.7975 7.39422 16.2789 7.1619C17.757 6.98761 19.2454 6.9256 20.744 6.97585Z"
            fill="#EAAD81" />
        <path fill-rule="evenodd" clip-rule="evenodd"
            d="M20.7441 7.16219C21.509 7.16636 22.2532 7.29038 22.9767 7.53428C23.1672 7.28252 23.4152 7.15851 23.7209 7.16219C23.7209 7.41024 23.7209 7.65832 23.7209 7.90638C23.9923 7.89384 24.2403 7.95584 24.4651 8.09242C24.527 8.34048 24.5892 8.58855 24.6511 8.83661C23.3819 8.19417 22.0796 7.63603 20.7441 7.16219Z"
            fill="#D86C3F" />
        <path fill-rule="evenodd" clip-rule="evenodd"
            d="M11.4417 6.79069C10.6736 7.30978 10.1155 7.99196 9.76727 8.8372C9.63289 9.03276 9.44684 9.1568 9.20913 9.2093C9.19473 8.97678 9.07071 8.82174 8.83704 8.74418C9.0898 8.52009 9.27585 8.24102 9.39518 7.90697C9.93456 8.09198 10.0586 7.90593 9.76727 7.34883C9.61378 7.18405 9.42774 7.12204 9.20913 7.16279C8.83135 8.31471 8.02513 8.87285 6.79053 8.8372C7.00387 8.19594 7.25192 7.57579 7.53471 6.97674C7.7543 6.41123 8.06439 5.9151 8.46495 5.48837C8.58898 5.42636 8.713 5.36433 8.83704 5.30232C9.28493 4.98355 9.78104 4.73549 10.3254 4.55813C10.5523 4.70016 10.7383 4.88621 10.8836 5.11627C11.1032 4.81203 11.1032 4.50195 10.8836 4.18604C11.4417 3.93799 11.9998 3.93799 12.558 4.18604C12.8681 4.4341 13.1781 4.68217 13.4882 4.93023C12.9481 5.19151 12.4519 5.12948 11.9998 4.74418C11.5994 5.3703 11.4134 6.05246 11.4417 6.79069Z"
            fill="#ED6C26" />
        <path fill-rule="evenodd" clip-rule="evenodd"
            d="M16.2792 7.16305C15.7978 7.39537 15.3017 7.58142 14.7908 7.72119C14.7908 7.7832 14.7908 7.84523 14.7908 7.90724C13.6544 8.30008 12.6621 8.92025 11.8141 9.76771C11.5464 10.1138 11.2363 10.4239 10.8838 10.6979C10.71 10.4993 10.648 10.2512 10.6978 9.95375C10.742 9.59945 10.9281 9.35139 11.2559 9.20957C11.6242 8.53291 12.1204 7.97478 12.7443 7.53515C12.7443 7.72119 12.7443 7.90724 12.7443 8.09329C13.1164 8.09329 13.4885 8.09329 13.8606 8.09329C13.9107 7.10769 14.3448 6.85963 15.1629 7.3491C15.5263 7.22713 15.8984 7.16512 16.2792 7.16305Z"
            fill="#E2883B" />
        <path fill-rule="evenodd" clip-rule="evenodd"
            d="M20.744 7.16198C22.0795 7.63582 23.3818 8.19396 24.651 8.8364C25.9842 9.98375 27.0385 11.3481 27.8138 12.9294C27.7699 13.4365 27.9249 13.8706 28.2789 14.2317C28.3102 15.9096 28.4032 17.584 28.558 19.255C28.8024 19.1037 29.0196 18.9177 29.2091 18.6969C29.3764 19.6334 29.0973 20.4085 28.3719 21.0224C28.2255 21.413 28.1636 21.8161 28.1859 22.2317C27.693 22.9415 27.166 23.6236 26.6045 24.2783C26.357 24.4796 26.078 24.6037 25.7673 24.6504C25.5193 24.6504 25.2711 24.6504 25.0231 24.6504C25.0231 24.8364 25.0231 25.0224 25.0231 25.2085C24.3425 25.6286 23.5983 25.9077 22.7905 26.0457C22.6348 26.2338 22.5729 26.4509 22.6045 26.6969C21.9699 26.9536 21.3498 27.2018 20.744 27.4411C19.1516 27.757 17.5392 27.8811 15.9068 27.8131C14.4011 27.7633 13.0368 27.3912 11.8138 26.6969C11.007 26.2898 10.3249 25.7008 9.76728 24.9294C9.46326 24.8375 9.15317 24.8066 8.83704 24.8364C8.85649 24.1815 8.67044 23.5925 8.2789 23.069C8.39533 22.9294 8.48836 22.7743 8.55797 22.6038C8.68201 22.8518 8.80603 23.1 8.93007 23.348C9.12865 23.2195 9.34571 23.1264 9.58123 23.069C9.33317 22.8829 9.33317 22.6969 9.58123 22.5108C9.35131 22.2526 9.10324 22.0357 8.83704 21.8597C8.71301 21.7356 8.58899 21.6117 8.46495 21.4876C8.03308 20.2543 7.66099 19.0139 7.34867 17.7666C7.04927 15.0592 7.5454 12.5165 8.83704 10.1387C8.96108 9.82864 9.0851 9.51857 9.20914 9.20849C9.44685 9.15599 9.6329 9.03195 9.76728 8.8364C10.195 8.71772 10.5981 8.53167 10.9766 8.27826C11.0896 8.58607 11.1827 8.89614 11.2556 9.20849C10.9278 9.35031 10.7417 9.59837 10.6975 9.95268C10.5251 10.5272 10.277 11.0853 9.95332 11.6271C10.0153 11.6891 10.0774 11.7511 10.1394 11.8131C10.3893 11.4357 10.6374 11.0636 10.8836 10.6969C11.2361 10.4228 11.5461 10.1127 11.8138 9.76663C12.3292 9.78138 12.8254 9.68836 13.3022 9.48756C13.4578 9.29941 13.5198 9.08237 13.4882 8.8364C14.1104 8.62834 14.7306 8.62834 15.3487 8.8364C15.5347 8.77439 15.7208 8.71236 15.9068 8.65035C15.5541 8.47071 15.182 8.4087 14.7905 8.46431C14.7905 8.27826 14.7905 8.09221 14.7905 7.90617C14.7905 7.84416 14.7905 7.78213 14.7905 7.72012C15.5695 7.73971 16.3137 7.58468 17.0231 7.255C18.2618 7.16205 19.5022 7.13104 20.744 7.16198Z"
            fill="#FDFDFB" />
        <path fill-rule="evenodd" clip-rule="evenodd"
            d="M14.7907 7.90625C14.7907 8.0923 14.7907 8.27834 14.7907 8.46439C15.1822 8.40878 15.5542 8.47079 15.907 8.65044C15.7209 8.71245 15.5349 8.77447 15.3488 8.83648C14.7307 8.62843 14.1106 8.62843 13.4884 8.83648C13.52 9.08245 13.458 9.2995 13.3023 9.48765C12.8256 9.68845 12.3294 9.78147 11.814 9.76672C12.662 8.91925 13.6542 8.29909 14.7907 7.90625Z"
            fill="#FBF1DE" />
        <path fill-rule="evenodd" clip-rule="evenodd"
            d="M7.53477 6.97656C7.25198 7.57561 7.00392 8.19576 6.79058 8.83703C6.63765 9.18838 6.48262 9.56047 6.32547 9.95331C6.20067 10.0933 6.04564 10.1553 5.86035 10.1394C6.13044 9.22713 6.50253 8.35891 6.97663 7.5347C7.10067 7.28665 7.28671 7.1006 7.53477 6.97656Z"
            fill="#DD8350" />
        <path fill-rule="evenodd" clip-rule="evenodd"
            d="M26.6978 7.90625C27.0749 8.15938 27.385 8.46947 27.628 8.83648C28.1541 9.4272 28.5262 10.1094 28.7443 10.883C28.4032 10.4039 28.0311 9.93877 27.628 9.48765C27.4516 9.39782 27.2656 9.36681 27.0698 9.39462C27.0542 8.86859 26.9303 8.37248 26.6978 7.90625Z"
            fill="#DB6D41" />
        <path fill-rule="evenodd" clip-rule="evenodd"
            d="M25.0235 6.60547C25.6393 6.97423 26.1974 7.40833 26.6979 7.90779C26.9304 8.37403 27.0544 8.87014 27.07 9.39617C27.2657 9.36835 27.4518 9.39937 27.6281 9.48919C28.0313 9.94032 28.4034 10.4054 28.7444 10.8845C28.9879 11.9846 29.112 13.1009 29.1165 14.2334C29.1133 14.8684 28.9892 15.4266 28.7444 15.9078C28.7993 15.4919 28.7371 15.1198 28.5584 14.7915C28.5876 14.536 28.5565 14.2879 28.4653 14.0473C28.264 13.6533 28.0469 13.2812 27.8142 12.9311C27.0389 11.3497 25.9846 9.98538 24.6514 8.83803C24.5894 8.58997 24.5273 8.3419 24.4653 8.09384C24.7948 7.83963 25.105 7.56056 25.3956 7.25663C25.1494 7.10484 25.0255 6.88778 25.0235 6.60547Z"
            fill="#E85429" />
        <path fill-rule="evenodd" clip-rule="evenodd"
            d="M2.32577 8.83789C1.71663 10.2932 1.2205 11.7816 0.837402 13.303C0.899417 12.8069 0.961434 12.3108 1.02345 11.8146C1.05824 11.4306 1.15126 11.0585 1.30252 10.6984C1.62899 10.0499 1.97007 9.42978 2.32577 8.83789Z"
            fill="#DB7849" />
        <path fill-rule="evenodd" clip-rule="evenodd"
            d="M9.2092 9.20902C9.08516 9.5191 8.96114 9.82917 8.8371 10.1393C8.55347 10.2646 8.30542 10.4507 8.09292 10.6974C7.93788 11.2555 7.78283 11.8137 7.6278 12.3718C7.55078 12.4569 7.45775 12.5189 7.34873 12.5579C7.22469 12.3098 7.10067 12.0617 6.97664 11.8137C6.91463 11.9997 6.8526 12.1858 6.79059 12.3718C7.07254 14.1851 7.25859 15.9835 7.34873 17.7672C7.31141 18.3677 7.37344 18.9569 7.53478 19.5346C7.47277 19.6276 7.41074 19.7206 7.34873 19.8137C7.17816 19.697 6.99212 19.6349 6.79059 19.6276C6.72858 19.4416 6.60454 19.3175 6.4185 19.2555C6.17746 18.4629 5.99141 17.6567 5.86036 16.8369C5.6123 14.7904 5.6123 12.7439 5.86036 10.6974C5.86036 10.5113 5.86036 10.3253 5.86036 10.1393C6.04564 10.1552 6.20067 10.0932 6.32547 9.95321C6.48263 9.56037 6.63766 9.18827 6.79059 8.83693C8.0252 8.87257 8.83141 8.31443 9.2092 7.16251C9.4278 7.12176 9.61385 7.18377 9.76734 7.34855C10.0587 7.90565 9.93463 8.0917 9.39524 7.90669C9.27591 8.24074 9.08987 8.51981 8.8371 8.7439C9.07078 8.82147 9.1948 8.9765 9.2092 9.20902Z"
            fill="#EF6020" />
        <path fill-rule="evenodd" clip-rule="evenodd"
            d="M10.6978 9.95312C10.648 10.2506 10.71 10.4987 10.8838 10.6973C10.6377 11.0641 10.3896 11.4362 10.1397 11.8136C10.0777 11.7516 10.0156 11.6896 9.95361 11.6275C10.2773 11.0858 10.5254 10.5276 10.6978 9.95312Z"
            fill="#D3A471" />
        <path fill-rule="evenodd" clip-rule="evenodd"
            d="M8.83704 10.1387C7.54539 12.5165 7.04926 15.0591 7.34867 17.7666C7.25853 15.983 7.07248 14.1845 6.79053 12.3712C6.85254 12.1852 6.91456 11.9991 6.97657 11.8131C7.10061 12.0611 7.22463 12.3092 7.34867 12.5573C7.45769 12.5183 7.55071 12.4563 7.62774 12.3712C7.78277 11.8131 7.93782 11.255 8.09285 10.6968C8.30536 10.4501 8.55341 10.264 8.83704 10.1387Z"
            fill="#DE6C32" />
        <path fill-rule="evenodd" clip-rule="evenodd"
            d="M2.32572 8.83789C2.51176 8.83789 2.69781 8.83789 2.88386 8.83789C2.94587 9.58208 3.00789 9.58208 3.0699 8.83789C3.25595 8.83789 3.442 8.83789 3.62804 8.83789C3.34786 9.68059 3.0998 10.5488 2.88386 11.4425C2.94587 11.5666 3.00789 11.6906 3.0699 11.8146C3.41402 10.5948 3.66207 10.5948 3.81409 11.8146C3.56762 12.5172 3.44358 13.2924 3.442 14.1402C3.35245 15.4197 3.5385 16.629 4.00014 17.7681C4.00334 18.1523 4.06535 18.5244 4.18618 18.8844C3.89816 18.9441 3.77413 19.1302 3.81409 19.4425C3.62804 19.4425 3.442 19.4425 3.25595 19.4425C3.23095 18.6293 3.0449 17.8541 2.69781 17.117C2.62151 15.6934 2.46648 14.2981 2.23269 12.9309C1.52827 15.6592 1.62129 18.3259 2.51176 20.9309C2.35552 21.1607 2.16948 21.3467 1.95362 21.4891C1.58122 20.738 1.20912 19.9938 0.837345 19.2565C0.480125 17.4136 0.387102 15.5531 0.558276 13.6751C0.610075 13.5047 0.703098 13.3807 0.837345 13.303C1.22044 11.7816 1.71657 10.2932 2.32572 8.83789Z"
            fill="#EC5D24" />
        <path fill-rule="evenodd" clip-rule="evenodd"
            d="M5.8604 10.6973C5.61234 12.7438 5.61234 14.7903 5.8604 16.8368C5.40825 15.8549 5.2222 14.8006 5.30226 13.674C5.21593 12.6047 5.40198 11.6124 5.8604 10.6973Z"
            fill="#D67B51" />
        <path fill-rule="evenodd" clip-rule="evenodd"
            d="M3.81384 11.8145C3.7148 12.6778 3.65279 13.5461 3.62779 14.4191C3.61594 15.5704 3.73996 16.6866 3.99988 17.7679C3.53825 16.6288 3.3522 15.4195 3.44174 14.14C3.44332 13.2922 3.56736 12.517 3.81384 11.8145Z"
            fill="#CA6831" />
        <path fill-rule="evenodd" clip-rule="evenodd"
            d="M23.7208 2.88345C23.5967 2.88345 23.4728 2.88345 23.3487 2.88345C22.5548 2.35853 21.6867 1.95543 20.744 1.67414C18.758 1.31567 16.7736 1.31567 14.7905 1.67414C13.6742 2.10825 12.558 2.54237 11.4417 2.97647C10.5249 3.7112 9.6567 4.4864 8.83703 5.30205C8.71299 5.36406 8.58897 5.42609 8.46494 5.4881C8.58897 5.116 8.71299 4.74391 8.83703 4.37182C7.91043 4.64776 7.32127 5.26791 7.06959 6.23228C6.51033 6.48183 6.23126 6.91593 6.23238 7.53461C6.48044 7.53461 6.72851 7.53461 6.97657 7.53461C6.50246 8.35881 6.13037 9.22704 5.86029 10.1393C5.86029 10.3253 5.86029 10.5114 5.86029 10.6974C5.40187 11.6126 5.21582 12.6048 5.30215 13.6741C5.22209 14.8008 5.40814 15.855 5.86029 16.8369C5.99134 17.6567 6.17738 18.4629 6.41843 19.2555C5.84577 18.6602 5.53569 17.916 5.48819 17.023C5.29774 16.7712 5.04968 16.6472 4.74401 16.6509C4.77296 17.1283 4.71095 17.5934 4.55796 18.0462C4.77502 18.5734 4.99206 19.1006 5.20912 19.6276C5.79783 19.9674 6.32496 20.4946 6.79052 21.209C7.08099 21.244 7.20503 21.089 7.16261 20.7439C7.4684 20.8016 7.65444 20.9876 7.72075 21.3021C8.18271 21.8366 8.64782 22.3947 9.1161 22.9765C9.08814 22.6033 8.99511 22.2312 8.83703 21.8602C9.10323 22.0362 9.3513 22.2531 9.58122 22.5114C9.33316 22.6974 9.33316 22.8834 9.58122 23.0695C9.3457 23.127 9.12864 23.22 8.93005 23.3486C8.80602 23.1006 8.682 22.8524 8.55796 22.6044C8.48834 22.7748 8.39532 22.93 8.27889 23.0695C8.67043 23.593 8.85647 24.1821 8.83703 24.8369C8.69956 24.8613 8.57552 24.8302 8.46494 24.7439C7.69751 23.9182 6.95333 23.081 6.23238 22.2323C6.17037 22.2323 6.10834 22.2323 6.04633 22.2323C5.36207 20.7344 4.6799 19.2461 3.99982 17.7672C3.7399 16.6859 3.61588 15.5696 3.62773 14.4183C3.65273 13.5453 3.71474 12.6771 3.81377 11.8137C3.87578 11.8137 3.93781 11.8137 3.99982 11.8137C4.41757 8.86968 5.7199 6.38906 7.9068 4.37182C8.61277 3.82166 9.29495 3.23251 9.95331 2.60438C11.1368 1.99143 12.3771 1.52632 13.6742 1.20903C14.6045 1.085 15.5347 0.960965 16.4649 0.836934C17.8723 1.12279 19.2988 1.27782 20.744 1.30205C21.3258 1.37494 21.8839 1.52998 22.4184 1.76717C22.5161 0.986446 22.9503 0.614353 23.7208 0.650887C23.7208 0.960965 23.7208 1.27104 23.7208 1.58112C23.4047 1.55132 23.0945 1.58233 22.7905 1.67414C23.0277 2.15621 23.3379 2.55932 23.7208 2.88345Z"
            fill="#F9F0DF" />
        <path fill-rule="evenodd" clip-rule="evenodd"
            d="M3.99999 11.8146C4.42806 10.8479 4.86217 9.85564 5.30232 8.83789C5.36433 9.08595 5.42635 9.33402 5.48836 9.58208C5.27361 10.6648 4.96353 11.719 4.55813 12.7449C4.58914 13.055 4.62014 13.365 4.65115 13.6751C4.87828 13.9121 5.03331 14.1912 5.11627 14.5123C4.91406 15.0153 4.60397 15.4184 4.18604 15.7216C4.00055 14.4252 3.93854 13.1228 3.99999 11.8146Z"
            fill="#FAF7F9" />
        <path fill-rule="evenodd" clip-rule="evenodd"
            d="M28.7441 10.8828C29.0751 11.6445 29.3231 12.4507 29.4883 13.3014C29.5693 14.8349 29.4453 16.3233 29.1162 17.7665C28.9151 17.1848 28.7912 16.5647 28.7441 15.9061C28.989 15.4248 29.1131 14.8667 29.1162 14.2316C29.1118 13.0991 28.9877 11.9829 28.7441 10.8828Z"
            fill="#D35C3A" />
        <path fill-rule="evenodd" clip-rule="evenodd"
            d="M31.1626 13.6753C31.2231 15.0742 31.1612 16.4386 30.9766 17.7684C31.0067 17.3912 30.9757 17.0191 30.8836 16.6521C30.7264 17.0449 30.5714 17.417 30.4185 17.7684C30.7003 16.2407 30.8553 14.6903 30.8836 13.1172C30.9267 13.3474 31.0198 13.5335 31.1626 13.6753Z"
            fill="#D47862" />
        <path fill-rule="evenodd" clip-rule="evenodd"
            d="M1.02328 11.8145C0.961268 12.3106 0.899251 12.8067 0.837237 13.3028C0.702989 13.3805 0.609966 13.5045 0.558167 13.6749C0.386993 15.5529 0.480016 17.4134 0.837237 19.2563C0.961268 19.7525 1.0853 20.2485 1.20933 20.7447C0.899251 20.7447 0.589175 20.7447 0.279097 20.7447C0.16645 17.7687 0.228466 14.792 0.465143 11.8145C0.65119 11.8145 0.837237 11.8145 1.02328 11.8145Z"
            fill="#F9EFD8" />
        <path fill-rule="evenodd" clip-rule="evenodd"
            d="M31.1627 13.6743C31.0199 13.5324 30.9268 13.3464 30.8837 13.1162C30.8554 14.6893 30.7004 16.2397 30.4186 17.7673C30.152 18.7856 29.7799 19.7777 29.3023 20.7441C28.8586 21.1876 28.4865 21.6836 28.186 22.2324C28.1637 21.8168 28.2256 21.4136 28.372 21.0231C29.0974 20.4092 29.3765 19.6341 29.2093 18.6976C29.0197 18.9184 28.8026 19.1044 28.5581 19.2557C28.4033 17.5847 28.3103 15.9103 28.279 14.2324C27.925 13.8713 27.77 13.4372 27.8139 12.9301C28.0467 13.2802 28.2638 13.6523 28.4651 14.0464C28.5562 14.287 28.5873 14.5351 28.5581 14.7906C28.5272 16.1563 28.5581 17.5207 28.6511 18.8836C28.8965 18.5511 29.0515 18.179 29.1162 17.7673C29.4454 16.3241 29.5693 14.8357 29.4883 13.3022C29.9702 14.1719 30.3114 15.1021 30.5116 16.0929C30.703 14.7302 30.61 13.3969 30.2325 12.0929C30.3274 11.7532 30.4826 11.7221 30.6976 11.9999C30.908 12.5478 31.063 13.106 31.1627 13.6743Z"
            fill="#FBE9E2" />
        <path fill-rule="evenodd" clip-rule="evenodd"
            d="M28.558 14.791C28.7368 15.1193 28.7989 15.4914 28.744 15.9073C28.7911 16.5659 28.915 17.186 29.1161 17.7678C29.0514 18.1794 28.8964 18.5515 28.651 18.884C28.558 17.5211 28.5271 16.1568 28.558 14.791Z"
            fill="#D98C6D" />
        <path fill-rule="evenodd" clip-rule="evenodd"
            d="M6.41857 19.2551C6.60462 19.3171 6.72865 19.4412 6.79066 19.6272C6.80834 20.0525 6.93236 20.4246 7.16276 20.7435C7.20518 21.0886 7.08114 21.2436 6.79066 21.2086C6.3251 20.4942 5.79798 19.9669 5.20927 19.6272C4.99221 19.1001 4.77517 18.5729 4.55811 18.0458C4.71109 17.593 4.7731 17.1279 4.74415 16.6505C5.04983 16.6468 5.29788 16.7708 5.48834 17.0226C5.53584 17.9156 5.84592 18.6598 6.41857 19.2551Z"
            fill="#F6F9F7" />
        <path fill-rule="evenodd" clip-rule="evenodd"
            d="M4 17.7676C4.68007 19.2465 5.36225 20.7348 6.04651 22.2327C5.80054 22.2643 5.5835 22.2024 5.39535 22.0466C4.87989 21.0191 4.47678 19.9648 4.18605 18.8839C4.06521 18.5238 4.0032 18.1517 4 17.7676Z"
            fill="#DB6748" />
        <path fill-rule="evenodd" clip-rule="evenodd"
            d="M7.34867 17.7676C7.66098 19.0148 8.03308 20.2552 8.46495 21.4885C8.48932 21.626 8.4583 21.7501 8.37192 21.8606C8.1786 21.6355 7.96154 21.4494 7.72076 21.3025C7.65445 20.988 7.46841 20.802 7.16262 20.7443C6.93222 20.4254 6.8082 20.0533 6.79053 19.628C6.99205 19.6353 7.1781 19.6974 7.34867 19.8141C7.41068 19.7211 7.4727 19.628 7.53471 19.535C7.37337 18.9573 7.31135 18.3682 7.34867 17.7676Z"
            fill="#D86240" />
        <path fill-rule="evenodd" clip-rule="evenodd"
            d="M30.9767 17.7667C30.9199 19.2323 30.5478 20.5968 29.8604 21.8597C29.9223 21.4876 29.9845 21.1155 30.0464 20.7434C29.7984 20.7434 29.5502 20.7434 29.3022 20.7434C29.7798 19.7771 30.1519 18.7849 30.4185 17.7667C30.5715 17.4153 30.7264 17.0432 30.8836 16.6504C30.9757 17.0174 31.0068 17.3895 30.9767 17.7667Z"
            fill="#D56034" />
        <path fill-rule="evenodd" clip-rule="evenodd"
            d="M7.7207 21.3027C7.96148 21.4497 8.17854 21.6358 8.37187 21.8609C8.45825 21.7504 8.48926 21.6263 8.46489 21.4888C8.58893 21.6129 8.71294 21.7368 8.83698 21.8609C8.99507 22.2319 9.08809 22.6039 9.11605 22.9772C8.64777 22.3954 8.18266 21.8372 7.7207 21.3027Z"
            fill="#CC7D62" />
        <path fill-rule="evenodd" clip-rule="evenodd"
            d="M0.837402 19.2559C1.20918 19.9932 1.58127 20.7373 1.95368 21.4884C2.01508 22.1435 2.29415 22.7016 2.79089 23.1628C2.88071 23.3392 2.91173 23.5253 2.88391 23.721C2.04283 22.9091 1.48469 21.9167 1.2095 20.7442C1.08546 20.248 0.961434 19.752 0.837402 19.2559Z"
            fill="#D25B3E" />
        <path fill-rule="evenodd" clip-rule="evenodd"
            d="M6.23242 22.2324C6.95337 23.0812 7.69756 23.9184 8.46498 24.744C8.57557 24.8304 8.6996 24.8614 8.83707 24.8371C9.02312 25.0851 9.20917 25.3333 9.39521 25.5813C9.12907 25.5666 8.88102 25.6285 8.65103 25.7673C8.50571 25.5387 8.41268 25.2907 8.37196 25.0231C7.75227 24.6678 7.28716 24.1718 6.97661 23.5347C6.84945 23.6023 6.72543 23.6642 6.60451 23.7208C6.44146 23.7452 6.31743 23.6832 6.23242 23.5347C6.33521 23.1204 6.33521 22.6862 6.23242 22.2324Z"
            fill="#D86134" />
        <path fill-rule="evenodd" clip-rule="evenodd"
            d="M29.6745 22.9766C29.361 24.3429 28.6168 25.3972 27.4419 26.1394C28.1448 25.0391 28.889 23.9849 29.6745 22.9766Z"
            fill="#F9D3BF" />
        <path fill-rule="evenodd" clip-rule="evenodd"
            d="M4.1858 18.8832C4.47654 19.9641 4.87964 21.0184 5.3951 22.046C5.58325 22.2017 5.8003 22.2636 6.04627 22.232C6.10828 22.232 6.1703 22.232 6.23231 22.232C6.3351 22.6858 6.3351 23.12 6.23231 23.5343C6.31732 23.6828 6.44136 23.7448 6.60441 23.7204C6.55617 24.3842 6.18407 24.6322 5.48813 24.4646C5.43596 25.0019 5.68402 25.2809 6.23231 25.3018C6.48037 25.6119 6.48037 25.9219 6.23231 26.232C6.03715 26.3235 5.8511 26.2927 5.67417 26.139C5.50939 26.2925 5.44738 26.4785 5.48813 26.6971C5.30208 26.6971 5.11603 26.6971 4.92999 26.6971C4.26331 25.9972 3.61215 25.253 2.9765 24.4646C2.88534 24.224 2.85432 23.9758 2.88348 23.7204C2.91129 23.5247 2.88028 23.3386 2.79045 23.1622C2.29371 22.701 2.01464 22.1429 1.95324 21.4878C2.1691 21.3455 2.35514 21.1595 2.51138 20.9297C1.62091 18.3247 1.52789 15.658 2.23231 12.9297C2.4661 14.2968 2.62113 15.6922 2.69743 17.1157C3.04452 17.8529 3.23057 18.6281 3.25557 19.4413C3.44162 19.4413 3.62766 19.4413 3.81371 19.4413C3.77375 19.1289 3.89778 18.9429 4.1858 18.8832Z"
            fill="#F24C23" />
        <path fill-rule="evenodd" clip-rule="evenodd"
            d="M9.39529 25.5817C10.1343 26.0968 10.9405 26.4689 11.8139 26.6979C13.0369 27.3923 14.4012 27.7644 15.9069 27.8142C16.257 27.9513 16.3811 28.1685 16.279 28.4654C16.5271 28.4965 16.7751 28.5273 17.0232 28.5584C17.7557 28.3443 18.4999 28.1893 19.2558 28.0933C19.8145 27.9539 20.3105 27.737 20.7441 27.4421C21.7644 27.3041 22.7566 27.0559 23.7209 26.6979C23.7696 26.9729 23.7077 27.2209 23.5348 27.4421C23.1598 27.2178 22.7877 27.2178 22.4185 27.4421C22.6308 27.6142 22.6308 27.7694 22.4185 27.9072C22.9147 28.0313 22.9147 28.1552 22.4185 28.2793C19.9084 28.7605 17.3657 29.0395 14.7906 29.1166C14.0919 29.4708 13.3477 29.6879 12.5581 29.7677C14.3889 30.0112 16.2493 30.1352 18.1395 30.1398C17.0457 30.4021 15.9294 30.4952 14.7906 30.4189C14.7906 30.6049 14.7906 30.791 14.7906 30.977C13.8005 30.8877 12.8082 30.8258 11.8139 30.791C11.6279 30.6669 11.4418 30.543 11.2558 30.4189C11.4744 30.4596 11.6604 30.3977 11.8139 30.2328C11.552 30.0946 11.3039 29.9394 11.0697 29.7677C11.8275 29.6211 12.5717 29.4351 13.3023 29.2096C13.6475 28.8291 13.8955 28.3949 14.0465 27.9072C13.2816 27.8207 12.5375 27.9138 11.8139 28.1863C11.8139 28.0003 11.8139 27.8142 11.8139 27.6282C12.0325 27.6689 12.2185 27.607 12.372 27.4421C11.9758 27.2046 11.6657 27.2976 11.4418 27.7212C11.2012 27.8124 10.9531 27.8434 10.6976 27.8142C10.5426 27.3952 10.5426 26.9921 10.6976 26.6049C10.0716 26.6784 9.45146 26.6473 8.83715 26.5119C8.25903 26.1945 7.94897 25.6985 7.90692 25.0235C7.49075 24.5925 7.05663 24.5616 6.60459 24.9305C6.84547 25.5086 7.03152 26.0978 7.16273 26.6979C6.305 26.7158 6.24299 26.9019 6.97669 27.2561C6.46216 27.4486 6.33812 27.7586 6.60459 28.1863C5.92247 27.8135 5.36433 27.3173 4.93018 26.6979C5.11622 26.6979 5.30227 26.6979 5.48832 26.6979C5.44757 26.4793 5.50958 26.2933 5.67436 26.1398C5.85129 26.2935 6.03734 26.3244 6.2325 26.2328C6.48056 25.9227 6.48056 25.6127 6.2325 25.3026C5.6842 25.2818 5.43615 25.0027 5.48832 24.4654C6.18426 24.633 6.55635 24.385 6.60459 23.7212C6.72551 23.6646 6.84952 23.6027 6.97669 23.5352C7.28724 24.1722 7.75235 24.6682 8.37204 25.0235C8.41276 25.2911 8.50579 25.5391 8.65111 25.7677C8.8811 25.6289 9.12915 25.567 9.39529 25.5817Z"
            fill="#E84F26" />
        <path fill-rule="evenodd" clip-rule="evenodd"
            d="M8.8374 24.8371C9.15353 24.8074 9.46362 24.8382 9.76763 24.9301C10.3252 25.7015 11.0074 26.2905 11.8141 26.6976C10.9408 26.4686 10.1346 26.0965 9.39554 25.5813C9.2095 25.3333 9.02345 25.0851 8.8374 24.8371Z"
            fill="#F9DDC2" />
        <path fill-rule="evenodd" clip-rule="evenodd"
            d="M25.7675 24.6504C25.1394 25.2789 24.4572 25.837 23.721 26.3248C23.3342 26.4124 22.9621 26.5363 22.6047 26.6969C22.5731 26.4509 22.635 26.2338 22.7907 26.0457C23.5986 25.9077 24.3427 25.6286 25.0233 25.2085C25.0233 25.0225 25.0233 24.8364 25.0233 24.6504C25.2713 24.6504 25.5195 24.6504 25.7675 24.6504Z"
            fill="#FEE2D4" />
        <path fill-rule="evenodd" clip-rule="evenodd"
            d="M29.3021 20.7441C29.5501 20.7441 29.7983 20.7441 30.0463 20.7441C29.9843 21.1162 29.9222 21.4883 29.8602 21.8604C29.6814 22.1888 29.6193 22.5609 29.6742 22.9767C28.8887 23.9851 28.1445 25.0392 27.4416 26.1395C26.7678 26.848 26.0236 27.468 25.2091 28C25.1799 27.7445 25.2109 27.4963 25.3021 27.2558C25.4682 27.4811 25.6232 27.4811 25.7672 27.2558C25.1858 26.7544 24.5036 26.5064 23.7207 26.5116C23.7207 26.4496 23.7207 26.3875 23.7207 26.3255C24.4569 25.8377 25.1391 25.2796 25.7672 24.6511C26.0779 24.6044 26.357 24.4803 26.6044 24.279C27.1659 23.6243 27.693 22.9423 28.1858 22.2325C28.4863 21.6837 28.8584 21.1877 29.3021 20.7441Z"
            fill="#E55328" />
        <path fill-rule="evenodd" clip-rule="evenodd"
            d="M23.7209 26.3262C23.7209 26.3881 23.7209 26.4503 23.7209 26.5122C23.7209 26.5742 23.7209 26.6363 23.7209 26.6983C22.7566 27.0562 21.7644 27.3044 20.7441 27.4425C21.3499 27.2032 21.97 26.955 22.6046 26.6983C22.962 26.5377 23.3341 26.4138 23.7209 26.3262Z"
            fill="#DA7A56" />
        <path fill-rule="evenodd" clip-rule="evenodd"
            d="M11.2558 30.4194C10.4791 30.0987 9.6729 29.8507 8.8372 29.6753C8.8372 29.3651 8.8372 29.0552 8.8372 28.745C8.10196 28.6087 7.35777 28.4226 6.60464 28.1869C6.33816 27.7592 6.4622 27.4492 6.97673 27.2567C6.24304 26.9024 6.30505 26.7164 7.16278 26.6985C7.03156 26.0983 6.84551 25.5091 6.60464 24.9311C7.05668 24.5621 7.4908 24.593 7.90696 25.0241C7.94901 25.6991 8.25908 26.1951 8.8372 26.5125C9.4515 26.6479 10.0717 26.679 10.6977 26.6055C10.5427 26.9927 10.5427 27.3958 10.6977 27.8148C10.9532 27.844 11.2013 27.8129 11.4418 27.7218C11.6658 27.2981 11.9759 27.2051 12.3721 27.4427C12.2186 27.6075 12.0325 27.6695 11.8139 27.6287C11.8139 27.8148 11.8139 28.0008 11.8139 28.1869C12.5375 27.9143 13.2817 27.8213 14.0465 27.9078C13.8956 28.3954 13.6475 28.8297 13.3023 29.2101C12.5718 29.4356 11.8276 29.6217 11.0698 29.7683C11.304 29.94 11.552 30.0952 11.8139 30.2334C11.6605 30.3982 11.4744 30.4602 11.2558 30.4194Z"
            fill="#F24924" />
        <path fill-rule="evenodd" clip-rule="evenodd"
            d="M20.7439 27.4414C20.3103 27.7363 19.8143 27.9532 19.2556 28.0926C18.4997 28.1886 17.7555 28.3435 17.023 28.5577C16.775 28.5266 16.5269 28.4957 16.2788 28.4647C16.3809 28.1677 16.2568 27.9506 15.9067 27.8135C17.5391 27.8814 19.1516 27.7573 20.7439 27.4414Z"
            fill="#DE5D3A" />
        <path fill-rule="evenodd" clip-rule="evenodd"
            d="M25.2091 27.999C24.526 28.8372 23.6577 29.3953 22.6045 29.6735C22.7917 29.2085 22.9157 28.7743 22.9766 28.3711C23.3939 28.1899 23.8279 28.1278 24.2789 28.1851C24.2789 27.999 24.2789 27.813 24.2789 27.627C24.6179 27.6885 24.928 27.8126 25.2091 27.999Z"
            fill="#DE592E" />
        <path fill-rule="evenodd" clip-rule="evenodd"
            d="M6.60449 28.1855C7.35763 28.4213 8.10181 28.6073 8.83705 28.7437C8.83705 29.0538 8.83705 29.3638 8.83705 29.6739C7.96325 29.3617 7.21906 28.8657 6.60449 28.1855Z"
            fill="#DD6041" />
        <path fill-rule="evenodd" clip-rule="evenodd"
            d="M23.7209 26.5118C24.5038 26.5066 25.186 26.7546 25.7674 27.256C25.6234 27.4813 25.4684 27.4813 25.3023 27.256C25.2111 27.4965 25.1801 27.7447 25.2093 28.0002C24.9282 27.8138 24.618 27.6897 24.279 27.6281C24.279 27.8141 24.279 28.0002 24.279 28.1862C23.8281 28.1289 23.394 28.1911 22.9767 28.3723C22.9159 28.7754 22.7918 29.2097 22.6046 29.6746C22.4186 29.7365 22.2945 29.8606 22.2325 30.0467C21.706 30.0828 21.21 30.2069 20.7442 30.4188C20.0591 30.3881 19.3771 30.419 18.6976 30.5118C18.5736 30.6359 18.4496 30.7598 18.3255 30.8839C17.1489 30.9769 15.9706 31.0078 14.7907 30.9769C14.7907 30.7909 14.7907 30.6048 14.7907 30.4188C15.9294 30.4951 17.0457 30.402 18.1395 30.1397C16.2493 30.1351 14.3889 30.0111 12.5581 29.7676C13.3477 29.6878 14.0919 29.4707 14.7907 29.1165C17.3658 29.0394 19.9084 28.7604 22.4186 28.2792C22.9148 28.1551 22.9148 28.0312 22.4186 27.9071C22.6308 27.7693 22.6308 27.6141 22.4186 27.442C22.7877 27.2177 23.1598 27.2177 23.5348 27.442C23.7077 27.2208 23.7696 26.9728 23.7209 26.6978C23.7209 26.6359 23.7209 26.5738 23.7209 26.5118Z"
            fill="#F14A28" />
        <path fill-rule="evenodd" clip-rule="evenodd"
            d="M8.8374 29.6738C9.6731 29.8493 10.4793 30.0973 11.256 30.418C11.4421 30.5421 11.6281 30.666 11.8141 30.7901C11.3627 30.7858 10.9286 30.6928 10.5118 30.511C9.93273 30.2474 9.37459 29.9683 8.8374 29.6738Z"
            fill="#D77953" />
        <path fill-rule="evenodd" clip-rule="evenodd"
            d="M20.7442 30.4177C19.8134 30.8337 18.821 31.1128 17.7675 31.2549C15.7709 31.3969 13.7864 31.3039 11.814 30.9759C11.814 30.9139 11.814 30.8518 11.814 30.7898C12.8083 30.8246 13.8006 30.8866 14.7907 30.9759C15.9706 31.0067 17.1489 30.9759 18.3256 30.8828C18.4496 30.7587 18.5736 30.6348 18.6977 30.5107C19.3771 30.4179 20.0592 30.387 20.7442 30.4177Z"
            fill="#D75D43" />
        <path fill-rule="evenodd" clip-rule="evenodd"
            d="M22.2326 30.0469C22.1133 30.2296 21.9894 30.4156 21.8605 30.605C21.0026 30.7418 20.1965 31.0208 19.4419 31.4422C18.3503 31.5246 17.2961 31.6796 16.2791 31.9073C15.4729 31.9073 14.6667 31.9073 13.8605 31.9073C13.2061 31.5494 12.524 31.2392 11.814 30.9771C13.7864 31.3051 15.7709 31.3981 17.7675 31.2562C18.821 31.114 19.8134 30.835 20.7442 30.419C21.2101 30.2071 21.7061 30.083 22.2326 30.0469Z"
            fill="#FBEED8" />
    </g>
    <defs>
        <clipPath id="clip0_4404_45">
            <rect width="32" height="32" fill="white" />
        </clipPath>
    </defs>
</svg>