<svg width="32" height="32" viewBox="0 0 32 32" fill="none" xmlns="http://www.w3.org/2000/svg">
<path opacity="0.876" fill-rule="evenodd" clip-rule="evenodd" d="M11.0769 14.2263C12.948 11.0519 13.9737 7.5648 14.1538 3.76477C15.5239 2.73093 16.5496 2.93606 17.2308 4.38015C16.0023 9.09237 14.7716 13.8103 13.5385 18.534C12.4515 20.1881 11.4258 21.9317 10.4615 23.7648C9.18234 24.2618 7.95157 24.1593 6.76923 23.4571C7.66689 22.1753 8.48745 20.8419 9.23077 19.4571C6.29705 15.4855 4.24579 11.0753 3.07693 6.22633C2.34536 5.6548 1.5248 5.44969 0.615387 5.61092C0.615387 4.58528 0.615387 3.55964 0.615387 2.534C2.66665 2.534 4.71797 2.534 6.76923 2.534C6.92154 7.19667 8.25483 11.5044 10.7692 15.4571C11.055 15.0913 11.1575 14.681 11.0769 14.2263Z" fill="#002C6A"/>
<path opacity="0.885" fill-rule="evenodd" clip-rule="evenodd" d="M14.1538 2.534C14.1538 2.94426 14.1538 3.35451 14.1538 3.76477C13.9737 7.5648 12.948 11.0519 11.0769 14.2263C9.55243 10.6777 8.52677 6.98536 8 3.14939C10.0113 2.54199 12.0625 2.33686 14.1538 2.534Z" fill="#419DD3"/>
<path opacity="0.749" fill-rule="evenodd" clip-rule="evenodd" d="M14.1538 2.534C15.3846 2.534 16.6154 2.534 17.8461 2.534C17.9922 3.32849 17.7871 3.94387 17.2308 4.38015C16.5496 2.93606 15.5239 2.73093 14.1538 3.76477C14.1538 3.35451 14.1538 2.94426 14.1538 2.534Z" fill="#185792"/>
<path opacity="0.955" fill-rule="evenodd" clip-rule="evenodd" d="M17.8462 2.534C22.359 2.534 26.872 2.534 31.3846 2.534C31.3846 4.17502 31.3846 5.81603 31.3846 7.4571C30.2954 11.3783 28.4492 14.9681 25.8462 18.2263C21.7487 18.5338 17.6462 18.6364 13.5385 18.534C14.7716 13.8103 16.0023 9.09237 17.2308 4.38015C17.7871 3.94387 17.9922 3.32849 17.8462 2.534Z" fill="#429ED5"/>
<path opacity="0.761" fill-rule="evenodd" clip-rule="evenodd" d="M8.61545 29.611C7.58978 29.611 6.56418 29.611 5.5385 29.611C4.4676 26.2729 5.59585 25.0421 8.92314 25.9186C9.34012 27.2095 9.23754 28.4402 8.61545 29.611Z" fill="#002B6A"/>
<path opacity="0.762" fill-rule="evenodd" clip-rule="evenodd" d="M27.0769 29.611C26.0511 29.611 25.0259 29.611 24 29.611C22.6173 25.5538 23.7455 24.5282 27.3846 26.534C27.6209 27.5781 27.5188 28.6037 27.0769 29.611Z" fill="#002B6A"/>
</svg>
