<svg width="32" height="32" viewBox="0 0 32 32" fill="none" xmlns="http://www.w3.org/2000/svg">
    <g clip-path="url(#clip0_4858_556)">
        <path fill-rule="evenodd" clip-rule="evenodd"
            d="M-0.0263672 -0.0263672C10.6403 -0.0263672 21.307 -0.0263672 31.9736 -0.0263672C31.9736 10.6403 31.9736 21.307 31.9736 31.9736C21.307 31.9736 10.6403 31.9736 -0.0263672 31.9736C-0.0263672 21.307 -0.0263672 10.6403 -0.0263672 -0.0263672Z"
            fill="#FEFEFE" />
        <path fill-rule="evenodd" clip-rule="evenodd"
            d="M15.5469 1.57296C18.4334 1.53936 20.6467 2.73048 22.1869 5.14629C22.6219 5.90896 22.8796 6.72672 22.9602 7.59962C22.9602 8.55962 22.9602 9.51962 22.9602 10.4796C23.938 10.4796 24.9158 10.4796 25.8935 10.4796C25.8935 15.5819 25.8935 20.684 25.8935 25.7863C22.5758 27.2851 19.2692 28.814 15.9735 30.373C12.6782 28.8587 9.38937 27.3298 6.10687 25.7863C6.05353 20.6486 6.03577 15.5109 6.05353 10.373C7.01353 10.373 7.97353 10.373 8.93353 10.373C8.91092 9.32192 8.93759 8.27301 9.01353 7.22629C9.57567 4.72646 11.0423 2.99312 13.4135 2.02629C13.8598 1.84362 14.322 1.72807 14.8002 1.67962C15.0623 1.68699 15.3112 1.65144 15.5469 1.57296Z"
            fill="#010101" />
        <path fill-rule="evenodd" clip-rule="evenodd"
            d="M15.5465 1.57321C15.3108 1.65169 15.0619 1.68725 14.7998 1.67988C15.0355 1.6014 15.2844 1.56584 15.5465 1.57321Z"
            fill="#464646" />
        <path fill-rule="evenodd" clip-rule="evenodd"
            d="M19.3862 10.3737C17.1107 10.3737 14.8351 10.3737 12.5596 10.3737C12.5596 9.52032 12.5596 8.66699 12.5596 7.81365C12.7927 6.69989 13.4327 5.9088 14.4796 5.44032C16.155 4.85565 17.6039 5.20232 18.8262 6.48032C19.075 6.81797 19.2528 7.19131 19.3596 7.60032C19.3862 8.52459 19.3951 9.44901 19.3862 10.3737Z"
            fill="#FEFEFE" />
        <path fill-rule="evenodd" clip-rule="evenodd"
            d="M12.5599 7.81348C12.5599 8.66681 12.5599 9.52014 12.5599 10.3735C14.8355 10.3735 17.111 10.3735 19.3866 10.3735C17.1023 10.4268 14.809 10.4445 12.5066 10.4268C12.489 9.54633 12.5068 8.67524 12.5599 7.81348Z"
            fill="#717171" />
        <path fill-rule="evenodd" clip-rule="evenodd"
            d="M22.96 7.59961C23.0131 8.53252 23.0309 9.47476 23.0133 10.4263C23.9826 10.4087 24.9426 10.4264 25.8933 10.4796C24.9155 10.4796 23.9377 10.4796 22.96 10.4796C22.96 9.51961 22.96 8.55961 22.96 7.59961Z"
            fill="#848484" />
        <path fill-rule="evenodd" clip-rule="evenodd"
            d="M21.8402 23.2804C21.8402 20.2226 21.8402 17.1648 21.8402 14.107C17.9291 14.107 14.0179 14.107 10.1068 14.107C10.1068 17.1648 10.1068 20.2226 10.1068 23.2804C10.0536 20.2138 10.0358 17.1383 10.0535 14.0537C14.0002 14.0537 17.9468 14.0537 21.8935 14.0537C21.9112 17.1383 21.8935 20.2138 21.8402 23.2804Z"
            fill="#E7E7E7" />
        <path fill-rule="evenodd" clip-rule="evenodd"
            d="M21.8398 23.2798C19.8955 24.2207 17.931 25.1274 15.9464 25.9998C13.9732 25.1419 12.0265 24.2352 10.1064 23.2798C10.1064 20.222 10.1064 17.1642 10.1064 14.1064C14.0175 14.1064 17.9287 14.1064 21.8398 14.1064C21.8398 17.1642 21.8398 20.222 21.8398 23.2798Z"
            fill="#FEFEFE" />
    </g>
    <defs>
        <clipPath id="clip0_4858_556">
            <rect width="32" height="32" fill="white" />
        </clipPath>
    </defs>
</svg>