<svg width="32" height="32" viewBox="0 0 32 32" fill="none" xmlns="http://www.w3.org/2000/svg">
    <g clip-path="url(#clip0_3687_294)">
        <path fill-rule="evenodd" clip-rule="evenodd"
            d="M25.6088 9.84605C24.954 10.1743 24.2988 10.5024 23.644 10.8307C23.4804 10.8307 23.3163 10.8307 23.1527 10.8307C20.705 9.53196 18.2489 8.21912 15.7844 6.8922C13.1387 8.21809 10.5186 9.53092 7.92485 10.8307C7.11286 10.7521 6.45791 10.4239 5.95996 9.84605C9.06473 7.79657 12.3395 5.99143 15.7844 4.43066C19.2293 5.99143 22.5043 7.79657 25.6088 9.84605Z"
            fill="#6189A3" />
        <path fill-rule="evenodd" clip-rule="evenodd"
            d="M23.1527 10.831C20.8361 12.4865 18.38 13.9634 15.7844 15.2618C13.1774 13.9555 10.5577 12.6427 7.9248 11.3233C7.9248 11.1593 7.9248 10.9951 7.9248 10.831C10.5186 9.5313 13.1386 8.21846 15.7844 6.89258C18.2488 8.2195 20.7049 9.53233 23.1527 10.831Z"
            fill="#ABC6D5" />
        <path fill-rule="evenodd" clip-rule="evenodd"
            d="M2.02984 7.87695C3.25603 8.40884 4.4022 9.06529 5.4684 9.84618C5.38666 14.116 5.46849 18.3827 5.71401 22.6462C9.12299 24.3949 12.4796 26.2002 15.7841 28.0616C15.7841 29.3746 15.7841 30.687 15.7841 32C11.3122 29.8408 6.89117 27.5437 2.52106 25.1077C2.03038 19.3735 1.86666 13.6299 2.02984 7.87695Z"
            fill="#BBC8D5" />
        <path fill-rule="evenodd" clip-rule="evenodd"
            d="M15.7845 32C15.7845 30.687 15.7845 29.3745 15.7845 28.0615C15.7845 27.8976 15.7845 27.7332 15.7845 27.5692C19.2319 25.9643 22.5884 24.1592 25.8545 22.1538C26.2588 17.9641 26.1773 13.8616 25.6089 9.84615C22.5044 7.79668 19.2294 5.99153 15.7845 4.43077C12.3395 5.99153 9.06482 7.79668 5.96005 9.84615C5.79633 9.84615 5.63255 9.84615 5.46883 9.84615C4.40263 9.06526 3.25646 8.40881 2.03027 7.87692C6.54249 5.32657 11.0453 2.7009 15.5389 0C20.0026 2.52406 24.5052 4.9856 29.0475 7.38462C29.7023 13.2923 29.7023 19.2 29.0475 25.1077C24.6776 27.5436 20.2566 29.8407 15.7845 32Z"
            fill="#D3DBE3" />
        <path fill-rule="evenodd" clip-rule="evenodd"
            d="M25.6086 9.8457C26.177 13.8611 26.2585 17.9637 25.8542 22.1534C22.5881 24.1588 19.2316 25.9639 15.7842 27.5688C15.7842 26.5842 15.7842 25.5996 15.7842 24.6149C18.3346 23.3777 20.8723 22.0649 23.3981 20.6765C23.6437 17.3985 23.7253 14.1165 23.6437 10.8303C24.2985 10.5021 24.9538 10.1739 25.6086 9.8457Z"
            fill="#9AB1BD" />
        <path fill-rule="evenodd" clip-rule="evenodd"
            d="M5.46911 9.8457C5.63283 9.8457 5.79661 9.8457 5.96033 9.8457C6.45828 10.4235 7.11323 10.7517 7.92522 10.8303C7.92522 10.9944 7.92522 11.1585 7.92522 11.3226C7.84358 14.4449 7.92546 17.5628 8.17083 20.6765C10.6965 22.0649 13.2343 23.3777 15.7848 24.6149C15.7848 25.5996 15.7848 26.5842 15.7848 27.5688C15.7848 27.7327 15.7848 27.8972 15.7848 28.0611C12.4803 26.1997 9.1237 24.3944 5.71472 22.6457C5.46921 18.3822 5.38737 14.1155 5.46911 9.8457Z"
            fill="#3A7092" />
        <path fill-rule="evenodd" clip-rule="evenodd"
            d="M23.1525 10.8311C23.3161 10.8311 23.4802 10.8311 23.6437 10.8311C23.7253 14.1172 23.6437 17.3993 23.3981 20.6772C20.8723 22.0656 18.3346 23.3784 15.7842 24.6157C15.7842 21.4977 15.7842 18.3798 15.7842 15.2618C18.3798 13.9635 20.8359 12.4865 23.1525 10.8311Z"
            fill="#6397C0" />
        <path fill-rule="evenodd" clip-rule="evenodd"
            d="M7.9251 11.3232C10.558 12.6426 13.1777 13.9554 15.7847 15.2617C15.7847 18.3796 15.7847 21.4976 15.7847 24.6155C13.2342 23.3783 10.6964 22.0655 8.17071 20.6771C7.92535 17.5634 7.84346 14.4455 7.9251 11.3232Z"
            fill="#305D79" />
    </g>
    <defs>
        <clipPath id="clip0_3687_294">
            <rect width="32" height="32" fill="white" />
        </clipPath>
    </defs>
</svg>