<svg width="32" height="32" viewBox="0 0 32 32" fill="none" xmlns="http://www.w3.org/2000/svg">
    <g clip-path="url(#clip0_4928_972)">
        <path fill-rule="evenodd" clip-rule="evenodd"
            d="M13.9999 -0.0800781C15.2799 -0.0800781 16.5599 -0.0800781 17.8399 -0.0800781C25.6825 1.46917 30.3758 6.1625 31.9199 13.9999C31.9199 15.2799 31.9199 16.5599 31.9199 17.8399C30.3722 25.6809 25.679 30.3742 17.8399 31.9199C16.5599 31.9199 15.2799 31.9199 13.9999 31.9199C6.1625 30.3758 1.46917 25.6825 -0.0800781 17.8399C-0.0800781 16.5599 -0.0800781 15.2799 -0.0800781 13.9999C0.136325 12.6551 0.482992 11.3218 0.959922 9.99992C3.52672 4.31053 7.87339 0.950528 13.9999 -0.0800781Z"
            fill="#2B2D42" />
        <path fill-rule="evenodd" clip-rule="evenodd"
            d="M10.3197 10.4796C10.7268 10.4163 11.0735 10.523 11.3597 10.7996C11.4664 14.2129 11.4664 17.6263 11.3597 21.0396C10.8932 21.2817 10.4666 21.2284 10.0797 20.8796C10.0264 19.4929 9.97306 18.1063 9.91973 16.7196C8.7464 16.5063 7.57306 16.5063 6.39973 16.7196C6.3464 18.1063 6.29306 19.4929 6.23973 20.8796C5.75973 21.3063 5.27973 21.3063 4.79973 20.8796C4.69306 19.0129 4.69306 17.1463 4.79973 15.2796C4.87973 15.1996 4.95973 15.1196 5.03973 15.0396C6.64239 15.0128 8.24239 14.9328 9.83973 14.7996C9.96839 13.474 10.0484 12.1406 10.0797 10.7996C10.1945 10.7125 10.2745 10.6059 10.3197 10.4796Z"
            fill="#F6F7F7" />
        <path fill-rule="evenodd" clip-rule="evenodd"
            d="M18.1597 10.4803C18.484 10.4544 18.804 10.481 19.1197 10.5603C19.2198 10.6804 19.2998 10.8137 19.3597 10.9603C19.4664 14.267 19.4664 17.5736 19.3597 20.8803C18.8797 21.307 18.3997 21.307 17.9197 20.8803C17.8664 19.4936 17.813 18.107 17.7597 16.7203C16.5864 16.507 15.413 16.507 14.2397 16.7203C14.2128 18.1632 14.1328 19.6032 13.9997 21.0403C13.6369 21.2073 13.2635 21.2341 12.8797 21.1203C12.695 19.1857 12.6683 17.239 12.7997 15.2803C12.8797 15.2003 12.9597 15.1203 13.0397 15.0403C14.5864 14.987 16.133 14.9336 17.6797 14.8803C17.8104 13.5862 17.8904 12.2795 17.9197 10.9603C18.0018 10.796 18.0818 10.636 18.1597 10.4803Z"
            fill="#F4F4F5" />
        <path fill-rule="evenodd" clip-rule="evenodd"
            d="M26.1596 10.4796C26.5667 10.4163 26.9134 10.523 27.1996 10.7996C27.3063 14.1596 27.3063 17.5196 27.1996 20.8796C26.8127 21.2284 26.3862 21.2817 25.9196 21.0396C25.8927 19.5967 25.8127 18.1567 25.6796 16.7196C24.5676 16.5388 23.4476 16.5121 22.3196 16.6396C22.2396 16.7196 22.1596 16.7996 22.0796 16.8796C22.0263 18.2663 21.9729 19.6529 21.9196 21.0396C21.4531 21.2817 21.0265 21.2284 20.6396 20.8796C20.5329 19.0129 20.5329 17.1463 20.6396 15.2796C20.7196 15.1996 20.7996 15.1196 20.8796 15.0396C22.4263 14.9863 23.9729 14.9329 25.5196 14.8796C25.5996 14.7996 25.6796 14.7196 25.7596 14.6396C25.8129 13.3596 25.8663 12.0796 25.9196 10.7996C26.0343 10.7125 26.1143 10.6059 26.1596 10.4796Z"
            fill="#F7F7F7" />
    </g>
    <defs>
        <clipPath id="clip0_4928_972">
            <rect width="32" height="32" fill="white" />
        </clipPath>
    </defs>
</svg>