<svg width="32" height="32" viewBox="0 0 32 32" fill="none" xmlns="http://www.w3.org/2000/svg">
<path d="M31.19 23.792L19.71 3.904C18.902 2.51199 17.206 1.75999 16.014 1.75999C14.814 1.75999 13.11 2.51199 12.302 3.904L0.82199 23.792C0.0459902 25.128 0.0459902 26.728 0.82199 28.072C1.59799 29.416 2.98199 30.224 4.52599 30.224H13.126V22.68H10.238L16.022 12.792L21.806 22.68H18.91V30.224H27.478C29.022 30.224 30.406 29.424 31.182 28.072C31.958 26.728 31.958 25.128 31.19 23.792ZM22.438 23.536C22.622 23.536 22.79 23.44 22.878 23.28C22.966 23.12 22.966 22.928 22.878 22.768L16.462 11.8C16.374 11.648 16.206 11.552 16.022 11.552C15.846 11.552 15.678 11.648 15.582 11.8L9.15799 22.768C9.06999 22.928 9.06199 23.12 9.15799 23.28C9.24599 23.44 9.41399 23.536 9.59799 23.536H12.246V25.992H4.94199C4.78199 25.992 4.70199 25.88 4.66999 25.832C4.64599 25.784 4.58999 25.664 4.66999 25.52L15.782 6.288C15.854 6.168 15.95 6.136 16.022 6.136C16.118 6.136 16.198 6.192 16.254 6.288C18.43 9.96799 25.278 21.944 27.326 25.52C27.406 25.664 27.35 25.784 27.326 25.832C27.302 25.88 27.222 25.992 27.07 25.992H19.782V23.536H22.438ZM30.438 27.632C29.822 28.704 28.718 29.344 27.486 29.344H19.79V26.864H27.086C27.51 26.856 27.886 26.632 28.094 26.264C28.302 25.896 28.302 25.456 28.094 25.088C26.038 21.512 19.198 9.536 17.014 5.848C16.798 5.48 16.43 5.264 16.03 5.264H16.022C15.614 5.264 15.246 5.488 15.038 5.848L3.93399 25.088C3.72599 25.456 3.71799 25.896 3.92599 26.264C4.13399 26.632 4.50999 26.856 4.94199 26.864H12.254V29.344H4.52599C3.30199 29.344 2.19799 28.704 1.57399 27.632C0.96599 26.56 0.96599 25.288 1.58199 24.224L13.062 4.344C13.67 3.288 15.07 2.632 16.022 2.632C16.982 2.632 18.342 3.272 18.958 4.344L30.438 24.224C31.054 25.288 31.054 26.56 30.438 27.632Z" fill="#D86073"/>
</svg>
