<svg width="32" height="32" viewBox="0 0 32 32" fill="none" xmlns="http://www.w3.org/2000/svg">
<path fill-rule="evenodd" clip-rule="evenodd" d="M19.2001 8.80404C20.9414 8.73564 21.5193 9.53564 20.9334 11.204C19.0667 12.2707 18.2667 11.7374 18.5334 9.60404C18.8121 9.37114 19.0342 9.10447 19.2001 8.80404Z" fill="#F15450"/>
<path fill-rule="evenodd" clip-rule="evenodd" d="M2.13345 9.60404C2.69238 10.3406 3.13665 11.1406 3.46678 12.004C2.48891 12.004 1.51123 12.004 0.533447 12.004C0.533447 11.204 0.533447 10.404 0.533447 9.60404C1.06678 9.60404 1.60011 9.60404 2.13345 9.60404Z" fill="#5AB879"/>
<path fill-rule="evenodd" clip-rule="evenodd" d="M2.13354 9.60404C3.20021 9.60404 4.26688 9.60404 5.33355 9.60404C5.94901 10.7494 6.65995 11.816 7.46688 12.804C7.46688 14.404 7.46688 16.004 7.46688 17.604C6.55435 16.2233 5.57648 14.89 4.53355 13.604C4.53355 13.0707 4.53355 12.5374 4.53355 12.004C4.17808 12.004 3.82234 12.004 3.46688 12.004C3.13674 11.1406 2.69248 10.3406 2.13354 9.60404Z" fill="#89D0C8"/>
<path fill-rule="evenodd" clip-rule="evenodd" d="M5.3335 9.60404C6.31136 9.60404 7.28896 9.60404 8.26683 9.60404C8.67536 10.286 9.1199 10.9527 9.60016 11.604C10.1263 11.7362 10.6596 11.7806 11.2002 11.7374C11.2002 11.0263 11.2002 10.3152 11.2002 9.60404C11.4607 10.3472 11.5495 11.1472 11.4668 12.004C10.1335 12.004 8.80016 12.004 7.46683 12.004C7.46683 12.2707 7.46683 12.5374 7.46683 12.804C6.6599 11.816 5.94896 10.7494 5.3335 9.60404Z" fill="#5EBADF"/>
<path fill-rule="evenodd" clip-rule="evenodd" d="M8.26685 9.60404C9.24471 9.60404 10.2223 9.60404 11.2002 9.60404C11.2002 10.3152 11.2002 11.0263 11.2002 11.7374C10.6596 11.7806 10.1263 11.7362 9.60018 11.604C9.11991 10.9527 8.67538 10.286 8.26685 9.60404Z" fill="#706EB1"/>
<path fill-rule="evenodd" clip-rule="evenodd" d="M14.9335 15.4707C14.8287 14.995 14.6511 14.5506 14.4001 14.1374C15.0156 12.9522 15.9935 12.5078 17.3335 12.804C17.3335 13.604 17.3335 14.404 17.3335 15.204C16.5148 15.1688 15.7148 15.2576 14.9335 15.4707Z" fill="#8555A4"/>
<path fill-rule="evenodd" clip-rule="evenodd" d="M14.1335 13.0707C14.062 13.4971 14.1511 13.8527 14.4001 14.1374C14.6511 14.5506 14.8287 14.995 14.9335 15.4707C14.2153 16.2922 13.9487 17.27 14.1335 18.404C13.2447 17.1596 12.3556 15.9152 11.4668 14.6707C11.4668 14.1374 11.4668 13.604 11.4668 13.0707C12.3556 13.0707 13.2447 13.0707 14.1335 13.0707Z" fill="#7370B2"/>
<path fill-rule="evenodd" clip-rule="evenodd" d="M22.4001 13.3374C23.4271 12.9882 24.4937 12.9882 25.6001 13.3374C26.0889 14.3152 26.578 15.2929 27.0668 16.2707C27.258 16.1256 27.3913 15.9478 27.4668 15.7374C28.1201 16.3051 28.5647 17.0162 28.8001 17.8707C29.7708 19.4662 30.7484 21.0662 31.7335 22.6707C30.7676 22.9798 29.7897 23.024 28.8001 22.804C28.2716 21.6982 27.6492 20.676 26.9335 19.7374C25.8063 17.7522 24.6063 15.7966 23.3335 13.8707C23.1159 13.518 22.8047 13.3402 22.4001 13.3374Z" fill="#F37A51"/>
<path fill-rule="evenodd" clip-rule="evenodd" d="M29.0669 13.0707C29.973 12.9853 30.8621 13.0742 31.7336 13.3374C31.3488 14.0244 30.9042 14.6467 30.4002 15.204C29.9557 14.4929 29.5114 13.7818 29.0669 13.0707Z" fill="#FDC34C"/>
<path fill-rule="evenodd" clip-rule="evenodd" d="M29.0668 13.0707C29.5113 13.7818 29.9556 14.4929 30.4001 15.204C30.0001 16.1835 29.4668 17.0724 28.8001 17.8707C28.5647 17.0162 28.1201 16.3051 27.4668 15.7374C27.9033 14.7726 28.4367 13.8837 29.0668 13.0707Z" fill="#F69F51"/>
<path fill-rule="evenodd" clip-rule="evenodd" d="M4.53345 13.604C5.57638 14.89 6.55425 16.2233 7.46678 17.604C7.46678 19.204 7.46678 20.804 7.46678 22.404C6.48891 20.9819 5.51131 19.5595 4.53345 18.1374C4.53345 16.6263 4.53345 15.1152 4.53345 13.604Z" fill="#53B572"/>
<path fill-rule="evenodd" clip-rule="evenodd" d="M11.4667 14.6707C12.3555 15.9152 13.2446 17.1596 14.1334 18.404C14.1334 19.9152 14.1334 21.4262 14.1334 22.9374C13.2526 21.8304 12.4081 20.6747 11.6001 19.4707C11.467 17.8732 11.4225 16.2732 11.4667 14.6707Z" fill="#51BAE1"/>
<path fill-rule="evenodd" clip-rule="evenodd" d="M18.4002 13.0707C18.4002 14.0485 18.4002 15.0263 18.4002 16.004C18.4002 18.3152 18.4002 20.6262 18.4002 22.9374C19.289 22.9374 20.178 22.9374 21.0668 22.9374C21.0668 21.7819 21.0668 20.6262 21.0668 19.4707C21.0668 17.9596 21.0668 16.4485 21.0668 14.9374C21.0668 14.3152 21.0668 13.6929 21.0668 13.0707C21.3322 16.4011 21.4212 19.779 21.3335 23.204C20.2668 23.204 19.2002 23.204 18.1335 23.204C18.0458 19.779 18.1348 16.4011 18.4002 13.0707Z" fill="#DED0D8"/>
<path fill-rule="evenodd" clip-rule="evenodd" d="M19.7334 13.0707C20.1779 13.0707 20.6222 13.0707 21.0667 13.0707C21.0667 13.6929 21.0667 14.3152 21.0667 14.9374C20.5601 14.3722 20.1158 13.75 19.7334 13.0707Z" fill="#EF4647"/>
<path fill-rule="evenodd" clip-rule="evenodd" d="M18.4001 13.0707C18.8447 13.0707 19.2889 13.0707 19.7335 13.0707C20.1159 13.75 20.5601 14.3722 21.0668 14.9374C21.0668 16.4485 21.0668 17.9596 21.0668 19.4707C20.178 18.3152 19.2889 17.1596 18.4001 16.004C18.4001 15.0263 18.4001 14.0485 18.4001 13.0707Z" fill="#C45082"/>
<path fill-rule="evenodd" clip-rule="evenodd" d="M18.4001 16.004C19.2889 17.1596 20.178 18.3152 21.0668 19.4707C21.0668 20.6262 21.0668 21.7819 21.0668 22.9374C20.178 22.9374 19.2889 22.9374 18.4001 22.9374C18.4001 20.6262 18.4001 18.3152 18.4001 16.004Z" fill="#7F54A6"/>
<path fill-rule="evenodd" clip-rule="evenodd" d="M22.4001 13.3374C22.8047 13.3402 23.1159 13.518 23.3335 13.8707C24.6063 15.7966 25.8063 17.7521 26.9335 19.7374C26.6188 20.548 26.1743 21.259 25.6001 21.8707C25.0935 21.3056 24.6492 20.6832 24.2668 20.004C24.5817 19.3306 24.9372 18.6639 25.3335 18.004C24.3193 16.4635 23.3417 14.9079 22.4001 13.3374Z" fill="#F15251"/>
<path fill-rule="evenodd" clip-rule="evenodd" d="M4.53345 18.1374C5.51131 19.5595 6.48891 20.9819 7.46678 22.404C6.61771 22.9144 5.63985 23.092 4.53345 22.9374C4.53345 21.3374 4.53345 19.7374 4.53345 18.1374Z" fill="#D0DE56"/>
<path fill-rule="evenodd" clip-rule="evenodd" d="M14.1335 13.0707C13.2447 13.0707 12.3557 13.0707 11.4669 13.0707C11.4669 13.604 11.4669 14.1374 11.4669 14.6707C11.4226 16.2732 11.4671 17.8732 11.6002 19.4707C12.4082 20.6747 13.2527 21.8304 14.1335 22.9374C13.2103 23.1992 12.2325 23.288 11.2002 23.204C11.2002 19.7374 11.2002 16.2707 11.2002 12.804C12.2325 12.72 13.2103 12.809 14.1335 13.0707Z" fill="#97CFCE"/>
<path fill-rule="evenodd" clip-rule="evenodd" d="M24.2668 20.004C24.6492 20.6832 25.0935 21.3056 25.6001 21.8707C25.5897 22.1595 25.5007 22.4262 25.3335 22.6707C24.3556 23.0262 23.378 23.0262 22.4001 22.6707C23.0284 21.764 23.6505 20.8752 24.2668 20.004Z" fill="#C14F82"/>
</svg>
