<svg width="32" height="32" viewBox="0 0 32 32" fill="none" xmlns="http://www.w3.org/2000/svg">
<g clip-path="url(#clip0_6076_2)">
<path d="M32 0H0V32H32V0Z" fill="white"/>
<path opacity="0.836" fill-rule="evenodd" clip-rule="evenodd" d="M0.695648 6.95652C5.56521 6.95652 10.4348 6.95652 15.3043 6.95652C15.3043 8.11596 15.3043 9.27534 15.3043 10.4348C13.4492 10.4348 11.5942 10.4348 9.73913 10.4348C9.73913 15.3043 9.73913 20.1739 9.73913 25.0435C8.57968 25.0435 7.42031 25.0435 6.26087 25.0435C6.26087 20.1739 6.26087 15.3043 6.26087 10.4348C4.40579 10.4348 2.55072 10.4348 0.695648 10.4348C0.695648 9.27534 0.695648 8.11596 0.695648 6.95652Z" fill="black"/>
<path opacity="0.794" fill-rule="evenodd" clip-rule="evenodd" d="M18.644 6.95652C21.4266 6.95652 24.2092 6.95652 26.9919 6.95652C27.1407 8.1001 26.9084 9.14358 26.2962 10.087C24.2092 10.3188 22.1223 10.5507 20.0353 10.7826C19.4232 11.726 19.1908 12.7695 19.3397 13.913C21.8941 13.6922 23.0531 14.8517 22.8179 17.3913C21.5602 17.3853 20.4005 17.7331 19.3397 18.4348C18.4972 19.2091 18.4972 20.0207 19.3397 20.8696C25.1199 22.7439 27.4392 20.6569 26.2962 14.6087C27.9192 14.6087 29.5428 14.6087 31.1658 14.6087C31.1658 15.5362 31.1658 16.4638 31.1658 17.3913C29.9866 18.9443 29.1748 20.7994 28.731 22.9565C27.9345 23.7471 27.1226 24.4427 26.2962 25.0435C23.7452 25.0435 21.195 25.0435 18.644 25.0435C14.7169 22.4482 14.2532 19.3178 17.2527 15.6522C14.8102 12.3925 15.274 9.49398 18.644 6.95652Z" fill="black"/>
</g>
<defs>
<clipPath id="clip0_6076_2">
<rect width="32" height="32" fill="white"/>
</clipPath>
</defs>
</svg>
