<svg width="32" height="32" viewBox="0 0 32 32" fill="none" xmlns="http://www.w3.org/2000/svg">
    <g clip-path="url(#clip0_3779_988)">
        <path fill-rule="evenodd" clip-rule="evenodd"
            d="M-0.0710449 -0.0712891C10.5956 -0.0712891 21.2623 -0.0712891 31.929 -0.0712891C31.929 10.5954 31.929 21.262 31.929 31.9287C21.2623 31.9287 10.5956 31.9287 -0.0710449 31.9287C-0.0710449 21.262 -0.0710449 10.5954 -0.0710449 -0.0712891Z"
            fill="#FEFEFE" />
        <path fill-rule="evenodd" clip-rule="evenodd"
            d="M6.61328 5.33301C10.2162 5.33301 13.8192 5.33301 17.4222 5.33301C17.4222 6.94485 17.4222 8.55672 17.4222 10.1686C17.2807 8.62963 17.2333 7.06519 17.2799 5.47523C13.6999 5.52231 10.1443 5.4749 6.61328 5.33301Z"
            fill="black" />
        <path fill-rule="evenodd" clip-rule="evenodd"
            d="M6.61341 5.33301C10.1445 5.4749 13.7 5.52231 17.2801 5.47523C17.2334 7.06519 17.2808 8.62963 17.4223 10.1686C15.8105 12.1123 14.1986 14.056 12.5867 15.9997C12.4451 13.9862 12.3977 11.9477 12.4445 9.88412C10.4534 9.88412 8.4623 9.88412 6.47119 9.88412C6.42457 8.34152 6.47199 6.82448 6.61341 5.33301Z"
            fill="#1D1D1D" />
        <path fill-rule="evenodd" clip-rule="evenodd"
            d="M4.90674 14.1508C6.2558 14.0094 7.63061 13.962 9.03118 14.0086C10.117 15.2138 11.1837 16.4464 12.2312 17.7063C15.769 13.6474 19.2534 9.54664 22.6845 5.40412C24.1541 5.3093 25.6238 5.3093 27.0934 5.40412C22.1926 11.206 17.2384 16.9661 12.2312 22.6841C9.75986 19.8579 7.31837 17.0134 4.90674 14.1508Z"
            fill="#0779B4" />
        <path fill-rule="evenodd" clip-rule="evenodd"
            d="M6.47119 9.88477C8.4623 9.88477 10.4534 9.88477 12.4445 9.88477C12.3977 11.9484 12.4451 13.9869 12.5867 16.0003C12.5782 16.0775 12.5308 16.1249 12.4445 16.1425C12.3024 14.1062 12.255 12.0677 12.3023 10.027C10.3334 10.0738 8.38974 10.0264 6.47119 9.88477Z"
            fill="#BFBFBF" />
        <path fill-rule="evenodd" clip-rule="evenodd"
            d="M9.03107 14.0093C7.63049 13.9628 6.25569 14.0102 4.90663 14.1515C4.82939 14.143 4.78198 14.0956 4.7644 14.0093C6.20923 13.8211 7.63145 13.8211 9.03107 14.0093Z"
            fill="#4F95BC" />
        <path fill-rule="evenodd" clip-rule="evenodd"
            d="M17.2799 18.2754C17.4217 21.0002 17.469 23.75 17.4221 26.5243C15.7628 26.5243 14.1036 26.5243 12.4443 26.5243C12.4443 25.6709 12.4443 24.8176 12.4443 23.9643C12.585 24.7429 12.6324 25.5489 12.5866 26.3821C14.151 26.3821 15.7154 26.3821 17.2799 26.3821C17.3268 23.7498 17.2795 21.1424 17.1377 18.5598C17.185 18.465 17.2325 18.3703 17.2799 18.2754Z"
            fill="black" />
        <path fill-rule="evenodd" clip-rule="evenodd"
            d="M17.28 18.276C17.2886 18.1988 17.3359 18.1514 17.4223 18.1338C17.6111 20.9539 17.6111 23.751 17.4223 26.5249C17.4692 23.7506 17.4218 21.0008 17.28 18.276Z"
            fill="#C1C1C1" />
        <path fill-rule="evenodd" clip-rule="evenodd"
            d="M17.1377 18.5596C17.2795 21.1422 17.3268 23.7495 17.2799 26.3818C15.7154 26.3818 14.151 26.3818 12.5866 26.3818C12.6324 25.5487 12.585 24.7427 12.4443 23.964C14.0102 22.1568 15.5746 20.3553 17.1377 18.5596Z"
            fill="#1D1D1D" />
    </g>
    <defs>
        <clipPath id="clip0_3779_988">
            <rect width="32" height="32" fill="white" />
        </clipPath>
    </defs>
</svg>