<svg width="32" height="32" viewBox="0 0 32 32" fill="none" xmlns="http://www.w3.org/2000/svg">
    <g clip-path="url(#clip0_4568_221)">
        <path fill-rule="evenodd" clip-rule="evenodd"
            d="M-0.0800781 -0.0800781C10.5866 -0.0800781 21.2532 -0.0800781 31.9199 -0.0800781C31.9199 10.5866 31.9199 21.2532 31.9199 31.9199C21.2532 31.9199 10.5866 31.9199 -0.0800781 31.9199C-0.0800781 21.2532 -0.0800781 10.5866 -0.0800781 -0.0800781Z"
            fill="#1B24A6" />
        <path fill-rule="evenodd" clip-rule="evenodd"
            d="M19.2798 12.8798C18.9048 13.9482 18.6914 15.0682 18.6398 16.2398C18.4842 16.6315 18.4309 17.0582 18.4798 17.5198C18.3811 17.5021 18.3011 17.4488 18.2398 17.3598C18.2106 16.9014 18.1306 16.4749 17.9998 16.0798C18.1224 14.1357 17.4824 12.509 16.0798 11.1998C15.8274 11.0247 15.5607 10.8914 15.2798 10.7998C15.1906 10.5935 15.0306 10.4601 14.7998 10.3998C14.4676 10.3691 14.1476 10.2891 13.8398 10.1598C15.7513 9.92269 15.7513 9.73602 13.8398 9.59984C14.2879 9.40274 14.7679 9.29608 15.2798 9.27984C15.4207 9.16652 15.5274 9.03319 15.5998 8.87984C16.4586 8.42016 17.0718 7.72684 17.4398 6.79984C17.7022 5.12429 18.0222 3.47096 18.3998 1.83984C18.6405 3.44498 18.907 5.04498 19.1998 6.63984C19.6088 7.8734 20.4355 8.70007 21.6798 9.11984C23.0843 9.31269 24.4709 9.57935 25.8398 9.91984C24.2149 10.1169 22.6149 10.4369 21.0398 10.8798C20.2504 11.3755 19.6637 12.0422 19.2798 12.8798Z"
            fill="#F7F0F1" />
        <path fill-rule="evenodd" clip-rule="evenodd"
            d="M15.5998 8.87988C15.5274 9.03323 15.4207 9.16655 15.2798 9.27988C14.7679 9.29612 14.2879 9.40278 13.8398 9.59988C15.7513 9.73606 15.7513 9.92273 13.8398 10.1599C14.1475 10.2891 14.4675 10.3691 14.7998 10.3999C15.0306 10.4602 15.1906 10.5935 15.2798 10.7999C13.7883 10.4892 12.2949 10.1958 10.7998 9.91988C12.3792 9.52286 13.9792 9.17619 15.5998 8.87988Z"
            fill="#EBE5F2" />
        <path fill-rule="evenodd" clip-rule="evenodd"
            d="M19.2801 12.8799C19.275 13.7475 19.1685 14.6008 18.9601 15.4399C18.9512 15.7822 18.8445 16.0488 18.6401 16.2399C18.6917 15.0682 18.9051 13.9482 19.2801 12.8799Z"
            fill="#3D389B" />
        <path fill-rule="evenodd" clip-rule="evenodd"
            d="M14.9601 16.5602C13.9468 16.5602 12.9334 16.5602 11.9201 16.5602C11.9201 15.2268 11.9201 13.8935 11.9201 12.5602C10.5868 12.5602 9.25343 12.5602 7.9201 12.5602C7.81343 12.5602 7.7601 12.6135 7.7601 12.7202C7.6732 12.7106 7.61987 12.6572 7.6001 12.5602C9.09058 12.3737 10.5839 12.347 12.0801 12.4802C12.09 13.7532 12.09 15.0599 12.0801 16.4002C12.9351 16.4267 13.7884 16.4 14.6401 16.3202C14.4082 16.1414 14.1415 16.0347 13.8401 16.0002C14.3083 15.9653 14.7616 15.8853 15.2001 15.7602C15.1222 16.0072 15.0422 16.2738 14.9601 16.5602Z"
            fill="#222490" />
        <path fill-rule="evenodd" clip-rule="evenodd"
            d="M7.91986 12.5601C7.91986 13.9467 7.91986 15.3334 7.91986 16.7201C7.06654 16.7201 6.21319 16.7201 5.35986 16.7201C6.12873 16.5621 6.92873 16.5087 7.75986 16.5601C7.75986 15.2801 7.75986 14.0001 7.75986 12.7201C7.75986 12.6134 7.81319 12.5601 7.91986 12.5601Z"
            fill="#53549F" />
        <path fill-rule="evenodd" clip-rule="evenodd"
            d="M18 16.0801C18.1307 16.4751 18.2107 16.9017 18.24 17.3601C18.3013 17.449 18.3813 17.5023 18.48 17.5201C18.4286 17.7678 18.2686 17.8745 18 17.8401C18 17.2534 18 16.6668 18 16.0801Z"
            fill="#504EA1" />
        <path fill-rule="evenodd" clip-rule="evenodd"
            d="M7.91986 12.5601C9.25319 12.5601 10.5865 12.5601 11.9199 12.5601C11.9199 13.8934 11.9199 15.2267 11.9199 16.5601C12.903 16.7185 13.9163 16.7717 14.9599 16.7201C14.9599 17.6801 14.9599 18.6401 14.9599 19.6001C13.9163 19.5484 12.903 19.6017 11.9199 19.7601C11.8932 21.8407 11.9199 23.9207 11.9999 26.0001C12.0978 26.4185 12.3378 26.685 12.7199 26.8001C13.4887 26.958 14.2887 27.0114 15.1199 26.9601C15.1199 28.0268 15.1199 29.0933 15.1199 30.1601C13.7855 30.1866 12.4521 30.1601 11.1199 30.0801C8.89641 29.6418 7.82975 28.2818 7.91986 26.0001C7.91986 23.8668 7.91986 21.7333 7.91986 19.6001C7.06654 19.6001 6.21319 19.6001 5.35986 19.6001C5.35986 18.6401 5.35986 17.6801 5.35986 16.7201C6.21319 16.7201 7.06654 16.7201 7.91986 16.7201C7.91986 15.3334 7.91986 13.9467 7.91986 12.5601Z"
            fill="#F9F2F1" />
        <path fill-rule="evenodd" clip-rule="evenodd"
            d="M11.9199 16.5601C12.9332 16.5601 13.9466 16.5601 14.9599 16.5601C15.1184 17.5967 15.1718 18.6634 15.1199 19.7601C14.1066 19.7601 13.0932 19.7601 12.0799 19.7601C12.0266 19.7601 11.9732 19.7601 11.9199 19.7601C12.9031 19.6017 13.9164 19.5484 14.9599 19.6001C14.9599 18.6401 14.9599 17.6801 14.9599 16.7201C13.9164 16.7717 12.9031 16.7185 11.9199 16.5601Z"
            fill="#8180C2" />
        <path fill-rule="evenodd" clip-rule="evenodd"
            d="M5.35986 19.6001C6.21319 19.6001 7.06654 19.6001 7.91986 19.6001C7.91986 21.7334 7.91986 23.8668 7.91986 26.0001C7.76058 23.9484 7.70726 21.8684 7.75986 19.7601C6.92873 19.8115 6.12873 19.758 5.35986 19.6001Z"
            fill="#5255A5" />
        <path fill-rule="evenodd" clip-rule="evenodd"
            d="M11.9201 19.7598C11.9735 19.7598 12.0268 19.7598 12.0801 19.7598C12.0535 21.7871 12.0802 23.8138 12.1601 25.8398C12.3083 26.1905 12.495 26.5105 12.7201 26.7998C12.3381 26.6847 12.0981 26.4182 12.0001 25.9998C11.9202 23.9204 11.8935 21.8404 11.9201 19.7598Z"
            fill="#2B2881" />
    </g>
    <defs>
        <clipPath id="clip0_4568_221">
            <rect width="32" height="32" fill="white" />
        </clipPath>
    </defs>
</svg>