<svg width="32" height="32" viewBox="0 0 33 33" fill="none" xmlns="http://www.w3.org/2000/svg">
    <path opacity="0.765" fill-rule="evenodd" clip-rule="evenodd"
        d="M11.3132 0.443359C11.3132 3.87123 11.3132 7.29915 11.3132 10.727C11.3132 10.9074 11.3132 11.0879 11.3132 11.2683C10.9519 11.2683 10.7713 11.4487 10.7713 11.8095C7.33938 11.8095 3.90741 11.8095 0.475492 11.8095C0.394508 11.2401 0.484824 10.6989 0.746434 10.1858C4.04645 6.61588 7.5687 3.36841 11.3132 0.443359Z"
        fill="#E42F32" />
    <path opacity="0.945" fill-rule="evenodd" clip-rule="evenodd"
        d="M11.3135 0.443359C14.5648 0.443359 17.8161 0.443359 21.0674 0.443359C18.2089 4.20171 14.9576 7.62958 11.3135 10.727C11.3135 7.29915 11.3135 3.87123 11.3135 0.443359Z"
        fill="#F08A1D" />
    <path opacity="0.785" fill-rule="evenodd" clip-rule="evenodd"
        d="M21.6089 0.443598C25.2394 0.264987 28.852 0.445384 32.4466 0.984843C29.1839 4.60453 25.752 8.0324 22.1508 11.2685C21.9702 11.2685 21.7895 11.2685 21.6089 11.2685C21.6089 7.66018 21.6089 4.05192 21.6089 0.443598Z"
        fill="#9FC423" />
    <path fill-rule="evenodd" clip-rule="evenodd"
        d="M21.0674 0.443359C21.248 0.443359 21.4287 0.443359 21.6093 0.443359C21.6093 4.05168 21.6093 7.65995 21.6093 11.2683C21.4287 11.2683 21.248 11.2683 21.0674 11.2683C17.8161 11.2683 14.5648 11.2683 11.3135 11.2683C11.3135 11.0879 11.3135 10.9074 11.3135 10.727C14.9576 7.62958 18.2089 4.20171 21.0674 0.443359Z"
        fill="#F1D713" />
    <path opacity="0.932" fill-rule="evenodd" clip-rule="evenodd"
        d="M11.3134 11.2686C14.5647 11.2686 17.816 11.2686 21.0673 11.2686C17.816 14.6964 14.5647 18.1243 11.3134 21.5522C11.1328 21.5522 10.9521 21.5522 10.7715 21.5522C10.7715 18.3047 10.7715 15.0573 10.7715 11.8098C10.7715 11.449 10.9521 11.2686 11.3134 11.2686Z"
        fill="#30AB66" />
    <path opacity="0.876" fill-rule="evenodd" clip-rule="evenodd"
        d="M21.0674 11.2686C21.248 11.2686 21.4287 11.2686 21.6093 11.2686C21.7899 11.2686 21.9705 11.2686 22.1512 11.2686C22.3267 14.9784 22.1461 18.5867 21.6093 22.0935C18.2796 21.5575 14.8477 21.3771 11.3135 21.5522C14.5648 18.1243 17.8161 14.6964 21.0674 11.2686Z"
        fill="#35B6B7" />
    <path opacity="0.787" fill-rule="evenodd" clip-rule="evenodd"
        d="M10.7715 21.552C10.9521 21.552 11.1328 21.552 11.3134 21.552C14.8476 21.3769 18.2795 21.5573 21.6092 22.0932C18.4975 26.1047 14.885 29.5326 10.7715 32.3769C10.7715 28.7686 10.7715 25.1603 10.7715 21.552Z"
        fill="#2D69AF" />
</svg>