<svg width="32" height="32" viewBox="0 0 32 32" fill="none" xmlns="http://www.w3.org/2000/svg">
<path fill-rule="evenodd" clip-rule="evenodd" d="M28.8627 8.5C28.5755 8.87928 28.2095 9.18483 27.7647 9.41667C23.9124 11.6494 20.0431 13.8439 16.1568 16C13.7096 14.9007 11.3566 13.5951 9.09799 12.0833C6.97947 11.0978 4.99253 9.90338 3.13721 8.5C7.42634 6.0548 11.7139 3.61035 16 1.16667C20.2859 3.61035 24.5736 6.0548 28.8627 8.5Z" fill="#9604FE"/>
<path fill-rule="evenodd" clip-rule="evenodd" d="M3.13724 8.5C4.99256 9.90338 6.9795 11.0978 9.09802 12.0833C11.3567 13.5951 13.7096 14.9007 16.1568 16C16.1568 16.1111 16.1046 16.1667 16 16.1667C11.6494 18.5617 7.30951 21.006 2.98038 23.5C2.92839 18.4715 2.98067 13.4715 3.13724 8.5Z" fill="#B44CFE"/>
<path fill-rule="evenodd" clip-rule="evenodd" d="M28.8627 8.5C29.0453 13.4718 29.0715 18.4718 28.9411 23.5C24.7153 25.9253 20.506 28.3698 16.3137 30.8333C16.0012 26.0032 15.8966 21.1143 16 16.1667C16.1046 16.1667 16.1568 16.1111 16.1568 16C20.0431 13.8439 23.9124 11.6494 27.7647 9.41667C28.2095 9.18483 28.5755 8.87928 28.8627 8.5Z" fill="#0C364F"/>
<path fill-rule="evenodd" clip-rule="evenodd" d="M16.0001 16.1667C15.8967 21.1143 16.0013 26.0032 16.3138 30.8333C16.2769 30.9328 16.1985 30.9883 16.0785 31C11.6579 28.5552 7.29186 26.0552 2.98047 23.5C7.3096 21.006 11.6495 18.5617 16.0001 16.1667Z" fill="#99CBFE"/>
</svg>
