<svg width="32" height="32" viewBox="0 0 32 32" fill="none" xmlns="http://www.w3.org/2000/svg">
<path opacity="0.913" fill-rule="evenodd" clip-rule="evenodd" d="M14.7879 0C15.4344 0 16.0808 0 16.7273 0C17.0506 0.283587 17.4142 0.52974 17.8182 0.738462C19.371 0.135781 20.6235 0.505012 21.5758 1.84615C23.1346 1.75232 24.1043 2.44976 24.4848 3.93846C26.5932 3.75793 27.6841 4.74255 27.7576 6.89231C29.0827 7.53135 29.729 8.59801 29.697 10.0923C30.409 10.9253 30.7324 11.9099 30.6667 13.0462C31.2078 13.7742 31.6521 14.5126 32 15.2615C32 16.1641 32 17.0667 32 17.9692C30.705 24.0053 27.2303 28.2309 21.5758 30.6462C21.4899 31.0464 21.4899 31.4976 21.5758 32C17.8586 32 14.1414 32 10.4242 32C10.3896 31.5663 10.4704 31.1559 10.6667 30.7692C4.87617 28.27 1.32062 23.9213 0 17.7231C0 16.9026 0 16.082 0 15.2615C0.364259 14.5868 0.768298 13.8893 1.21212 13.1692C0.773767 12.0107 0.975787 10.9851 1.81818 10.0923C1.78608 8.59801 2.43255 7.53135 3.75758 6.89231C3.98095 4.90078 5.07185 3.91616 7.0303 3.93846C7.41653 2.46591 8.38623 1.76847 9.93939 1.84615C10.8917 0.505012 12.1442 0.135781 13.697 0.738462C14.1009 0.52974 14.4646 0.283587 14.7879 0Z" fill="#040507"/>
<path fill-rule="evenodd" clip-rule="evenodd" d="M15.03 0.984485C15.5215 0.944578 16.0063 0.985602 16.4845 1.10756C16.8535 1.48215 17.2171 1.85138 17.5755 2.21525C19.0568 1.02261 20.1477 1.30979 20.8482 3.07679C22.5903 2.54742 23.56 3.20383 23.7573 5.04602C26.0101 4.66687 26.8991 5.61045 26.4239 7.87679C27.9621 7.87696 28.6087 8.61543 28.3633 10.0922C28.6821 10.5392 29.0458 10.9494 29.4542 11.3229C29.5905 11.9054 29.5502 12.4797 29.333 13.046C29.6448 13.4867 30.0084 13.8969 30.4239 14.2768C30.5437 14.679 30.5839 15.0893 30.5452 15.5076C20.8482 15.5076 11.1512 15.5076 1.45424 15.5076C1.44634 14.6209 1.76958 13.8825 2.42394 13.2922C1.63171 12.023 1.87413 10.9974 3.15121 10.2153C2.84016 8.68117 3.48661 7.9017 5.09061 7.87679C4.61516 5.6108 5.50404 4.66722 7.75727 5.04602C7.95456 3.20383 8.92425 2.54742 10.6664 3.07679C11.3465 1.29671 12.4374 1.00953 13.9391 2.21525C14.3474 1.8419 14.711 1.43165 15.03 0.984485Z" fill="#FCFCFC"/>
<path fill-rule="evenodd" clip-rule="evenodd" d="M8.72677 8.12305C9.05 8.12305 9.37324 8.12305 9.69647 8.12305C9.76381 8.57755 9.60221 8.90577 9.21162 9.10766C8.82103 8.90577 8.65943 8.57755 8.72677 8.12305Z" fill="#252525"/>
<path fill-rule="evenodd" clip-rule="evenodd" d="M10.6662 8.61523C10.9894 8.61523 11.3127 8.61523 11.6359 8.61523C11.7033 9.06973 11.5417 9.39795 11.1511 9.59985C10.7605 9.39795 10.5989 9.06973 10.6662 8.61523Z" fill="#242424"/>
<path fill-rule="evenodd" clip-rule="evenodd" d="M7.03051 10.5845C7.27293 10.5845 7.51536 10.5845 7.75778 10.5845C7.73987 11.5792 7.41664 11.7433 6.78809 11.0768C6.87601 10.9085 6.95684 10.7444 7.03051 10.5845Z" fill="#1B1B1B"/>
<path fill-rule="evenodd" clip-rule="evenodd" d="M22.3029 10.5845C22.6262 10.5845 22.9494 10.5845 23.2726 10.5845C23.34 11.039 23.1784 11.3672 22.7878 11.5691C22.3972 11.3672 22.2356 11.039 22.3029 10.5845Z" fill="#222222"/>
<path fill-rule="evenodd" clip-rule="evenodd" d="M8.96996 12.5537C9.21239 12.5537 9.45481 12.5537 9.69724 12.5537C9.67932 13.5485 9.3561 13.7126 8.72754 13.046C8.81547 12.8778 8.89629 12.7137 8.96996 12.5537Z" fill="#171717"/>
<path fill-rule="evenodd" clip-rule="evenodd" d="M10.424 29.2922C9.62782 28.6672 8.65812 28.0518 7.51494 27.446C6.49364 26.6121 5.52394 25.7505 4.60585 24.8614C2.41415 22.5404 1.28283 19.7506 1.21191 16.4922C11.0705 16.4922 20.9291 16.4922 30.7877 16.4922C30.0163 23.6353 26.2185 28.1892 19.3937 30.1537C17.0538 30.629 14.7104 30.629 12.3634 30.1537C11.642 29.9802 10.9956 29.6932 10.424 29.2922Z" fill="#1890FD"/>
</svg>
