<svg width="32" height="32" viewBox="0 0 32 32" fill="none" xmlns="http://www.w3.org/2000/svg">
<g clip-path="url(#clip0_151_466)">
<path fill-rule="evenodd" clip-rule="evenodd" d="M5.61752 -0.0710449C6.7553 -0.0710449 7.89307 -0.0710449 9.03085 -0.0710449C9.03085 0.118585 9.03085 0.308215 9.03085 0.497844C8.65159 0.497844 8.27234 0.497844 7.89307 0.497844C7.89307 0.640066 7.89307 0.782288 7.89307 0.924511C6.37603 0.971918 6.37603 1.01933 7.89307 1.06673C7.89307 1.446 7.89307 1.82525 7.89307 2.20451C8.13011 2.20451 8.36714 2.20451 8.60418 2.20451C8.60418 2.58377 8.60418 2.96302 8.60418 3.34229C8.74641 3.34229 8.88863 3.34229 9.03085 3.34229C9.03085 3.72155 9.03085 4.1008 9.03085 4.48007C9.26789 4.48007 9.50492 4.48007 9.74196 4.48007C9.74196 4.85933 9.74196 5.23858 9.74196 5.61784C10.2634 5.61784 10.7849 5.61784 11.3064 5.61784C11.3064 5.99711 11.3064 6.37636 11.3064 6.75562C11.6857 6.75562 12.0649 6.75562 12.4442 6.75562C12.4442 6.89784 12.4442 7.04007 12.4442 7.18229C12.8234 7.18229 13.2027 7.18229 13.582 7.18229C13.582 7.41933 13.582 7.65636 13.582 7.8934C15.099 7.8934 16.616 7.8934 18.1331 7.8934C18.1331 7.51414 18.1331 7.13489 18.1331 6.75562C18.8915 6.75562 19.6502 6.75562 20.4086 6.75562C20.4086 6.37636 20.4086 5.99711 20.4086 5.61784C20.7879 5.61784 21.1671 5.61784 21.5464 5.61784C21.5464 5.23858 21.5464 4.85933 21.5464 4.48007C21.9257 4.48007 22.3049 4.48007 22.6842 4.48007C22.6842 4.1008 22.6842 3.72155 22.6842 3.34229C22.8264 3.34229 22.9686 3.34229 23.1109 3.34229C23.1109 2.96302 23.1109 2.58377 23.1109 2.20451C23.3479 2.20451 23.5849 2.20451 23.822 2.20451C23.822 1.82525 23.822 1.446 23.822 1.06673C24.7522 1.06136 24.7522 0.966542 23.822 0.782288C24.1971 0.506451 24.5763 0.459044 24.9597 0.640066C25.3109 0.756276 25.6901 0.827387 26.0975 0.8534C24.5834 0.971346 24.5834 1.04246 26.0975 1.06673C26.0975 1.82525 26.0975 2.58377 26.0975 3.34229C25.7182 3.34229 25.339 3.34229 24.9597 3.34229C24.9597 4.1008 24.9597 4.85933 24.9597 5.61784C24.5804 5.61784 24.2013 5.61784 23.822 5.61784C23.822 5.99711 23.822 6.37636 23.822 6.75562C23.4427 6.75562 23.0635 6.75562 22.6842 6.75562C22.7293 7.19251 22.6819 7.61918 22.542 8.03562C22.4471 7.98822 22.3524 7.9408 22.2575 7.8934C22.316 9.24507 21.6996 9.71915 20.4086 9.31562C20.8278 9.1988 21.2544 9.12769 21.6886 9.10229C21.0249 9.00747 20.3613 9.00747 19.6975 9.10229C19.6229 9.20076 19.528 9.27187 19.4131 9.31562C19.0274 9.06527 18.6007 8.97045 18.1331 9.03118C18.1331 9.41044 18.1331 9.78969 18.1331 10.169C16.616 10.169 15.099 10.169 13.582 10.169C13.582 9.78969 13.582 9.41044 13.582 9.03118C13.1079 9.03118 12.6338 9.03118 12.1597 9.03118C12.1597 9.78969 12.1597 10.5482 12.1597 11.3067C12.2065 13.2282 12.1591 15.1245 12.0175 16.9956C12.0645 14.1265 12.0171 11.282 11.8753 8.46229C10.5221 8.4158 9.19465 8.4632 7.89307 8.60451C7.89307 8.74673 7.89307 8.88896 7.89307 9.03118C7.75085 9.03118 7.60863 9.03118 7.46641 9.03118C7.60064 10.5462 7.62434 12.0632 7.53752 13.5823C7.48986 12.4403 7.39504 11.3026 7.25307 10.169C7.22725 10.5567 7.15613 10.9359 7.03974 11.3067C6.92177 10.5526 6.85066 9.79409 6.82641 9.03118C6.75567 9.4075 6.73196 9.78676 6.7553 10.169C6.37603 10.169 5.99678 10.169 5.61752 10.169C5.61752 9.78969 5.61752 9.41044 5.61752 9.03118C5.23825 9.03118 4.859 9.03118 4.47974 9.03118C4.47974 8.27266 4.47974 7.51414 4.47974 6.75562C4.10048 6.75562 3.72123 6.75562 3.34196 6.75562C3.34196 5.99711 3.34196 5.23858 3.34196 4.48007C2.9627 4.48007 2.58345 4.48007 2.20418 4.48007C2.24933 4.04317 2.20192 3.61651 2.06196 3.20007C1.73946 3.34859 1.40761 3.3723 1.06641 3.27118C1.35355 3.20722 1.61429 3.08871 1.84863 2.91562C1.90751 2.98067 1.97862 3.02808 2.06196 3.05784C2.17685 2.78431 2.24796 2.49986 2.2753 2.20451C2.69754 2.0477 2.72123 1.85806 2.34641 1.63562C2.43561 1.50523 2.48302 1.36301 2.48863 1.20896C3.40724 0.464789 4.4502 0.038122 5.61752 -0.0710449Z" fill="#035FE1"/>
<path fill-rule="evenodd" clip-rule="evenodd" d="M9.03142 -0.0710449C10.1692 -0.0710449 11.307 -0.0710449 12.4448 -0.0710449C12.4448 0.687473 12.4448 1.446 12.4448 2.20451C12.824 2.20451 13.2033 2.20451 13.5825 2.20451C13.5825 2.58377 13.5825 2.96302 13.5825 3.34229C15.0996 3.34229 16.6166 3.34229 18.1336 3.34229C18.1336 2.96302 18.1336 2.58377 18.1336 2.20451C18.5129 2.20451 18.8921 2.20451 19.2714 2.20451C19.2714 1.446 19.2714 0.687473 19.2714 -0.0710449C21.1677 -0.0710449 23.0641 -0.0710449 24.9603 -0.0710449C25.7927 0.0468774 26.6461 0.165395 27.5203 0.284511C27.9611 0.339612 28.3404 0.505538 28.6581 0.782288C28.6496 0.859528 28.6022 0.906935 28.5159 0.924511C28.1637 0.820829 27.8082 0.726014 27.4492 0.640066C26.6279 0.697605 25.7983 0.697605 24.9603 0.640066C24.5769 0.459044 24.1977 0.506451 23.8225 0.782288C24.7528 0.966542 24.7528 1.06136 23.8225 1.06673C23.8225 1.446 23.8225 1.82525 23.8225 2.20451C23.5854 2.20451 23.3485 2.20451 23.1114 2.20451C23.1114 2.58377 23.1114 2.96302 23.1114 3.34229C22.9692 3.34229 22.827 3.34229 22.6848 3.34229C22.6848 3.72155 22.6848 4.1008 22.6848 4.48007C22.3054 4.48007 21.9263 4.48007 21.547 4.48007C21.547 4.85933 21.547 5.23858 21.547 5.61784C21.1677 5.61784 20.7885 5.61784 20.4092 5.61784C20.4092 5.99711 20.4092 6.37636 20.4092 6.75562C19.6507 6.75562 18.8921 6.75562 18.1336 6.75562C18.1336 7.13489 18.1336 7.51414 18.1336 7.8934C16.6166 7.8934 15.0996 7.8934 13.5825 7.8934C13.5825 7.65636 13.5825 7.41933 13.5825 7.18229C13.2033 7.18229 12.824 7.18229 12.4448 7.18229C12.4448 7.04007 12.4448 6.89784 12.4448 6.75562C12.0655 6.75562 11.6862 6.75562 11.307 6.75562C11.307 6.37636 11.307 5.99711 11.307 5.61784C10.7855 5.61784 10.264 5.61784 9.74253 5.61784C9.74253 5.23858 9.74253 4.85933 9.74253 4.48007C9.50549 4.48007 9.26846 4.48007 9.03142 4.48007C9.03142 4.1008 9.03142 3.72155 9.03142 3.34229C8.8892 3.34229 8.74697 3.34229 8.60475 3.34229C8.60475 2.96302 8.60475 2.58377 8.60475 2.20451C8.36771 2.20451 8.13068 2.20451 7.89364 2.20451C7.89364 1.82525 7.89364 1.446 7.89364 1.06673C6.3766 1.01933 6.3766 0.971918 7.89364 0.924511C7.89364 0.782288 7.89364 0.640066 7.89364 0.497844C8.2729 0.497844 8.65215 0.497844 9.03142 0.497844C9.03142 0.308215 9.03142 0.118585 9.03142 -0.0710449Z" fill="#0064EC"/>
<path fill-rule="evenodd" clip-rule="evenodd" d="M12.4443 -0.0710449C14.7199 -0.0710449 16.9954 -0.0710449 19.271 -0.0710449C19.271 0.687473 19.271 1.446 19.271 2.20451C18.8917 2.20451 18.5125 2.20451 18.1332 2.20451C18.1332 2.58377 18.1332 2.96302 18.1332 3.34229C16.6161 3.34229 15.0992 3.34229 13.5821 3.34229C13.5821 2.96302 13.5821 2.58377 13.5821 2.20451C13.2028 2.20451 12.8236 2.20451 12.4443 2.20451C12.4443 1.446 12.4443 0.687473 12.4443 -0.0710449Z" fill="#006AF8"/>
<path fill-rule="evenodd" clip-rule="evenodd" d="M31.3603 3.76877C31.5857 4.37481 31.7753 4.99112 31.9292 5.61766C31.9292 7.1347 31.9292 8.65173 31.9292 10.1688C31.6921 10.1688 31.4552 10.1688 31.2181 10.1688C31.2181 10.548 31.2181 10.9273 31.2181 11.3066C31.0285 11.3066 30.8388 11.3066 30.6492 11.3066C30.6492 11.6858 30.6492 12.0651 30.6492 12.4443C30.2699 12.4443 29.8907 12.4443 29.5114 12.4443C29.5114 12.8236 29.5114 13.2028 29.5114 13.5821C29.1321 13.5821 28.7529 13.5821 28.3736 13.5821C28.3736 13.9614 28.3736 14.3406 28.3736 14.7199C27.9943 14.7199 27.6152 14.7199 27.2359 14.7199C27.2359 15.0992 27.2359 15.4784 27.2359 15.8577C26.4299 15.8577 25.6241 15.8577 24.8181 15.8577C24.7938 17.3718 24.7226 17.3718 24.6047 15.8577C24.5784 16.4487 24.46 17.0176 24.2492 17.5643C24.1536 17.3582 24.0588 17.1687 23.9647 16.9954C23.9647 16.4266 23.9647 15.8577 23.9647 15.2888C23.301 15.2888 22.6374 15.2888 21.9736 15.2888C21.9736 14.625 21.9736 13.9614 21.9736 13.2977C22.6374 13.2977 23.301 13.2977 23.9647 13.2977C23.9461 13.4027 23.9699 13.4976 24.0359 13.5821C24.0832 13.2977 24.1307 13.0132 24.1781 12.7288C24.2193 12.9484 24.314 13.138 24.4625 13.2977C24.5099 12.634 24.5574 11.9703 24.6047 11.3066C24.6521 11.6858 24.6996 12.0651 24.747 12.4443C24.865 11.6895 24.9361 10.931 24.9603 10.1688C25.3396 10.1688 25.7188 10.1688 26.0981 10.1688C26.0981 9.78951 26.0981 9.41026 26.0981 9.031C26.4774 9.031 26.8565 9.031 27.2359 9.031C27.2359 8.65173 27.2359 8.27248 27.2359 7.89322C27.6152 7.89322 27.9943 7.89322 28.3736 7.89322C28.3736 6.75544 28.3736 5.61766 28.3736 4.47988C28.7529 4.47988 29.1321 4.47988 29.5114 4.47988C29.4259 3.94089 29.5682 3.49052 29.9381 3.12877C30.2036 3.02762 30.4169 3.09874 30.5781 3.34211C30.6965 3.62655 30.8152 3.911 30.9336 4.19544C31.0817 3.84112 31.2002 3.84112 31.2892 4.19544C31.3579 4.06061 31.3815 3.91839 31.3603 3.76877Z" fill="#0354CC"/>
<path fill-rule="evenodd" clip-rule="evenodd" d="M2.48871 1.20898C2.48311 1.36304 2.43569 1.50526 2.34649 1.63565C2.72132 1.85809 2.69762 2.04773 2.27538 2.20454C2.24804 2.49989 2.17693 2.78434 2.06204 3.05787C1.9787 3.02811 1.90759 2.9807 1.84871 2.91565C1.61437 3.08874 1.35363 3.20725 1.06649 3.27121C1.40769 3.37233 1.73954 3.34862 2.06204 3.2001C2.20201 3.61654 2.24941 4.0432 2.20427 4.4801C2.58353 4.4801 2.96278 4.4801 3.34204 4.4801C3.34204 5.23861 3.34204 5.99714 3.34204 6.75565C3.72131 6.75565 4.10056 6.75565 4.47982 6.75565C4.47982 7.51416 4.47982 8.27269 4.47982 9.03121C4.85909 9.03121 5.23834 9.03121 5.6176 9.03121C5.6176 9.41047 5.6176 9.78972 5.6176 10.169C5.99686 10.169 6.37611 10.169 6.75538 10.169C6.73204 9.78679 6.75575 9.40753 6.82649 9.03121C6.85074 9.79412 6.92185 10.5526 7.03982 11.3068C7.15622 10.936 7.22733 10.5567 7.25316 10.169C7.39512 11.3026 7.48994 12.4404 7.5376 13.5823C7.62443 12.0633 7.60072 10.5462 7.46649 9.03121C7.60871 9.03121 7.75093 9.03121 7.89316 9.03121C7.89316 11.686 7.89316 14.3408 7.89316 16.9957C7.77695 16.6445 7.70583 16.2653 7.67982 15.8579C7.60908 16.2342 7.58537 16.6135 7.60871 16.9957C7.46649 16.9957 7.32427 16.9957 7.18204 16.9957C7.18204 16.6163 7.18204 16.2372 7.18204 15.8579C6.28131 15.8579 5.38056 15.8579 4.47982 15.8579C4.47982 15.4786 4.47982 15.0994 4.47982 14.7201C4.10056 14.7201 3.72131 14.7201 3.34204 14.7201C3.34204 14.3408 3.34204 13.9616 3.34204 13.5823C2.96278 13.5823 2.58353 13.5823 2.20427 13.5823C2.20427 13.2031 2.20427 12.8238 2.20427 12.4445C1.825 12.4445 1.44575 12.4445 1.06649 12.4445C1.06649 11.686 1.06649 10.9275 1.06649 10.169C0.687229 10.169 0.307971 10.169 -0.0712891 10.169C-0.0712891 9.03121 -0.0712891 7.89343 -0.0712891 6.75565C0.0431367 5.87538 0.161655 4.97464 0.284267 4.05343C0.714273 2.85792 1.44908 1.90977 2.48871 1.20898Z" fill="#0254CC"/>
<path fill-rule="evenodd" clip-rule="evenodd" d="M24.9602 0.639893C25.7981 0.697431 26.6277 0.697431 27.449 0.639893C27.808 0.72584 28.1636 0.820656 28.5157 0.924337C28.602 0.906761 28.6494 0.859354 28.6579 0.782115C30.0034 1.36935 30.9042 2.36491 31.3602 3.76878C31.3813 3.9184 31.3577 4.06062 31.289 4.19545C31.2 3.84113 31.0815 3.84113 30.9335 4.19545C30.815 3.911 30.6964 3.62656 30.5779 3.34211C30.4168 3.09874 30.2035 3.02763 29.9379 3.12878C29.568 3.49052 29.4258 3.9409 29.5113 4.47989C29.132 4.47989 28.7528 4.47989 28.3735 4.47989C28.3735 5.61767 28.3735 6.75545 28.3735 7.89323C27.9942 7.89323 27.615 7.89323 27.2357 7.89323C27.2357 8.27249 27.2357 8.65174 27.2357 9.031C26.8564 9.031 26.4772 9.031 26.0979 9.031C26.0979 9.41027 26.0979 9.78952 26.0979 10.1688C25.7186 10.1688 25.3395 10.1688 24.9602 10.1688C24.936 10.931 24.8649 11.6895 24.7468 12.4443C24.6995 12.0651 24.652 11.6858 24.6046 11.3066C24.5572 11.9703 24.5097 12.634 24.4624 13.2977C24.3139 13.138 24.2192 12.9484 24.1779 12.7288C24.1306 13.0132 24.0831 13.2977 24.0357 13.5821C23.9697 13.4976 23.946 13.4028 23.9646 13.2977C23.9646 12.634 23.9646 11.9703 23.9646 11.3066C23.3008 11.3066 22.6372 11.3066 21.9735 11.3066C21.9735 10.7851 21.9735 10.2636 21.9735 9.74212C21.4229 9.69732 20.9014 9.74473 20.409 9.88434C20.409 10.3584 20.409 10.8325 20.409 11.3066C20.8831 11.3066 21.3572 11.3066 21.8313 11.3066C21.8313 11.9703 21.8313 12.634 21.8313 13.2977C21.215 13.2977 20.5986 13.2977 19.9824 13.2977C19.8067 13.3292 19.6645 13.424 19.5557 13.5821C17.1634 13.5772 14.7456 13.5772 12.3024 13.5821C12.3481 12.7962 12.3007 12.0377 12.1602 11.3066C12.1602 10.548 12.1602 9.78952 12.1602 9.031C12.6342 9.031 13.1083 9.031 13.5824 9.031C13.5824 9.41027 13.5824 9.78952 13.5824 10.1688C15.0995 10.1688 16.6164 10.1688 18.1335 10.1688C18.1335 9.78952 18.1335 9.41027 18.1335 9.031C18.6011 8.97028 19.0278 9.06509 19.4135 9.31545C19.5284 9.2717 19.6233 9.20059 19.6979 9.10212C20.3617 9.0073 21.0253 9.0073 21.689 9.10212C21.2548 9.12752 20.8282 9.19863 20.409 9.31545C21.7 9.71898 22.3164 9.24489 22.2579 7.89323C22.3528 7.94063 22.4475 7.98805 22.5424 8.03545C22.6823 7.61901 22.7297 7.19234 22.6846 6.75545C23.0639 6.75545 23.4431 6.75545 23.8224 6.75545C23.8224 6.37618 23.8224 5.99693 23.8224 5.61767C24.2017 5.61767 24.5808 5.61767 24.9602 5.61767C24.9602 4.85916 24.9602 4.10063 24.9602 3.34211C25.3395 3.34211 25.7186 3.34211 26.0979 3.34211C26.0979 2.5836 26.0979 1.82507 26.0979 1.06656C24.5838 1.04228 24.5838 0.971172 26.0979 0.853226C25.6905 0.827213 25.3113 0.756102 24.9602 0.639893Z" fill="#025BDA"/>
<path fill-rule="evenodd" clip-rule="evenodd" d="M22.4004 8.32007C22.7322 8.32007 23.0641 8.32007 23.3959 8.32007C23.3959 8.65192 23.3959 8.98378 23.3959 9.31562C23.0641 9.31562 22.7322 9.31562 22.4004 9.31562C22.4004 8.98378 22.4004 8.65192 22.4004 8.32007Z" fill="#F4FAFA"/>
<path fill-rule="evenodd" clip-rule="evenodd" d="M20.4092 9.88438C20.9016 9.74477 21.4231 9.69735 21.9736 9.74215C21.9736 10.2636 21.9736 10.7851 21.9736 11.3066C21.9736 11.9703 21.9736 12.634 21.9736 13.2977C21.9736 13.9614 21.9736 14.6251 21.9736 15.2888C21.8334 14.6531 21.786 13.9894 21.8314 13.2977C21.8314 12.634 21.8314 11.9703 21.8314 11.3066C21.8314 10.8325 21.8314 10.3584 21.8314 9.88438C21.3574 9.88438 20.8832 9.88438 20.4092 9.88438Z" fill="#B0C7EB"/>
<path fill-rule="evenodd" clip-rule="evenodd" d="M31.9293 10.1689C31.9293 12.8238 31.9293 15.4785 31.9293 18.1334C31.5027 18.1334 31.076 18.1334 30.6493 18.1334C30.6493 18.5127 30.6493 18.8919 30.6493 19.2712C30.27 19.2712 29.8909 19.2712 29.5116 19.2712C29.5116 19.6505 29.5116 20.0296 29.5116 20.4089C28.7531 20.4089 27.9945 20.4089 27.236 20.4089C27.236 20.7883 27.236 21.1674 27.236 21.5467C26.4775 21.5467 25.7189 21.5467 24.9604 21.5467C24.9604 21.926 24.9604 22.3052 24.9604 22.6845C24.1489 22.7313 23.3431 22.6838 22.5427 22.5423C22.683 21.9923 22.6119 21.9923 22.3293 22.5423C22.0742 22.263 22.1453 22.0496 22.5427 21.9023C22.4278 21.8585 22.3329 21.7874 22.2582 21.6889C22.477 21.4411 22.6192 21.1566 22.6849 20.8356C23.3213 19.6136 23.748 18.3336 23.9649 16.9956C24.0589 17.1688 24.1538 17.3584 24.2493 17.5645C24.4601 17.0178 24.5786 16.4489 24.6049 15.8578C24.7228 17.3719 24.7939 17.3719 24.8182 15.8578C25.6242 15.8578 26.43 15.8578 27.236 15.8578C27.236 15.4785 27.236 15.0994 27.236 14.7201C27.6153 14.7201 27.9945 14.7201 28.3738 14.7201C28.3738 14.3407 28.3738 13.9615 28.3738 13.5823C28.7531 13.5823 29.1323 13.5823 29.5116 13.5823C29.5116 13.203 29.5116 12.8238 29.5116 12.4445C29.8909 12.4445 30.27 12.4445 30.6493 12.4445C30.6493 12.0652 30.6493 11.686 30.6493 11.3067C30.8389 11.3067 31.0286 11.3067 31.2182 11.3067C31.2182 10.9275 31.2182 10.5482 31.2182 10.1689C31.4553 10.1689 31.6923 10.1689 31.9293 10.1689Z" fill="#024CBD"/>
<path fill-rule="evenodd" clip-rule="evenodd" d="M21.9736 11.3066C22.6374 11.3066 23.301 11.3066 23.9647 11.3066C23.9647 11.9703 23.9647 12.634 23.9647 13.2978C23.301 13.2978 22.6374 13.2978 21.9736 13.2978C21.9736 12.634 21.9736 11.9703 21.9736 11.3066Z" fill="#FBFDFB"/>
<path fill-rule="evenodd" clip-rule="evenodd" d="M-0.0712891 10.1689C0.307971 10.1689 0.687229 10.1689 1.06649 10.1689C1.06649 10.9275 1.06649 11.686 1.06649 12.4445C1.44575 12.4445 1.825 12.4445 2.20427 12.4445C2.20427 12.8238 2.20427 13.203 2.20427 13.5823C2.58353 13.5823 2.96278 13.5823 3.34204 13.5823C3.34204 13.9615 3.34204 14.3407 3.34204 14.7201C3.72131 14.7201 4.10056 14.7201 4.47982 14.7201C4.47982 15.0994 4.47982 15.4785 4.47982 15.8578C5.38056 15.8578 6.28131 15.8578 7.18204 15.8578C7.18204 16.2371 7.18204 16.6163 7.18204 16.9956C7.32427 16.9956 7.46649 16.9956 7.60871 16.9956C7.58537 16.6135 7.60908 16.2342 7.67982 15.8578C7.70583 16.2653 7.77695 16.6445 7.89316 16.9956C8.16581 19.1359 9.06656 20.9848 10.5954 22.5423C10.4914 22.6051 10.3492 22.6289 10.1687 22.6134C10.3239 22.9069 10.3476 23.2151 10.2398 23.5378C10.1712 23.403 10.1474 23.2608 10.1687 23.1112C9.78945 23.1112 9.4102 23.1112 9.03093 23.1112C9.03093 22.9689 9.03093 22.8267 9.03093 22.6845C8.27242 22.6845 7.51389 22.6845 6.75538 22.6845C6.75538 22.4474 6.75538 22.2105 6.75538 21.9734C6.37611 21.9734 5.99686 21.9734 5.6176 21.9734C5.6176 21.8312 5.6176 21.6889 5.6176 21.5467C5.23834 21.5467 4.85909 21.5467 4.47982 21.5467C4.47982 21.1674 4.47982 20.7883 4.47982 20.4089C3.72131 20.4089 2.96278 20.4089 2.20427 20.4089C2.20427 20.0296 2.20427 19.6505 2.20427 19.2712C1.825 19.2712 1.44575 19.2712 1.06649 19.2712C1.06649 18.8919 1.06649 18.5127 1.06649 18.1334C0.687229 18.1334 0.307971 18.1334 -0.0712891 18.1334C-0.0712891 15.4785 -0.0712891 12.8238 -0.0712891 10.1689Z" fill="#014CBD"/>
<path fill-rule="evenodd" clip-rule="evenodd" d="M7.89355 8.60456C9.19513 8.46324 10.5225 8.41584 11.8758 8.46233C11.8995 11.4494 11.8758 14.4361 11.8047 17.4223C11.7573 17.5646 11.7098 17.7068 11.6624 17.849C11.7428 16.3851 11.7428 14.9154 11.6624 13.4401C11.615 14.6252 11.5676 15.8105 11.5202 16.9957C11.4027 15.8617 11.3316 15.8617 11.3069 16.9957C10.7382 16.8315 10.3115 16.476 10.0269 15.929C9.63915 15.9031 9.2599 15.832 8.88911 15.7157C8.78077 15.2021 8.70965 14.6806 8.67578 14.1512C8.64346 14.9188 8.54866 15.6774 8.39133 16.4268C8.20812 14.1607 8.1133 11.8852 8.10689 9.60011C8.08041 9.23949 8.0093 8.90763 7.89355 8.60456Z" fill="#EFF0F3"/>
<path fill-rule="evenodd" clip-rule="evenodd" d="M12.1598 11.3066C12.3003 12.0377 12.3477 12.7962 12.302 13.5822C14.7453 13.5773 17.163 13.5773 19.5554 13.5822C19.6642 13.4241 19.8064 13.3292 19.982 13.2978C20.0213 14.6317 19.9502 15.959 19.7687 17.28C19.5717 18.0053 19.2635 18.6691 18.8442 19.2711C16.8247 20.8345 14.8572 20.7872 12.942 19.1289C12.482 18.4837 12.1739 17.7726 12.0176 16.9955C12.1592 15.1245 12.2066 13.2281 12.1598 11.3066Z" fill="#0854CB"/>
<path fill-rule="evenodd" clip-rule="evenodd" d="M-0.0712891 18.1333C0.307971 18.1333 0.687229 18.1333 1.06649 18.1333C1.06649 18.5126 1.06649 18.8918 1.06649 19.2711C1.44575 19.2711 1.825 19.2711 2.20427 19.2711C2.20427 19.6504 2.20427 20.0295 2.20427 20.4089C2.96278 20.4089 3.72131 20.4089 4.47982 20.4089C4.47982 20.7882 4.47982 21.1673 4.47982 21.5466C4.85909 21.5466 5.23834 21.5466 5.6176 21.5466C5.6176 21.6889 5.6176 21.8311 5.6176 21.9733C5.99686 21.9733 6.37611 21.9733 6.75538 21.9733C6.75538 22.2104 6.75538 22.4473 6.75538 22.6844C7.51389 22.6844 8.27242 22.6844 9.03093 22.6844C9.03093 22.8266 9.03093 22.9689 9.03093 23.1111C9.4102 23.1111 9.78945 23.1111 10.1687 23.1111C10.1474 23.2607 10.1712 23.4029 10.2398 23.5377C10.3476 23.215 10.3239 22.9068 10.1687 22.6133C10.3492 22.6288 10.4914 22.6051 10.5954 22.5422C13.2487 24.5135 16.1406 24.9164 19.2709 23.7511C19.993 23.4301 20.6092 22.9797 21.1198 22.4C21.6819 21.9328 22.2034 21.4112 22.6843 20.8355C22.6186 21.1565 22.4763 21.441 22.2576 21.6889C22.3323 21.7873 22.4271 21.8584 22.542 21.9022C22.1447 22.0495 22.0736 22.2629 22.3287 22.5422C22.6113 21.9922 22.6824 21.9922 22.542 22.5422C23.3425 22.6837 24.1483 22.7312 24.9598 22.6844C24.9598 22.3051 24.9598 21.9259 24.9598 21.5466C25.7183 21.5466 26.4769 21.5466 27.2354 21.5466C27.2354 21.1673 27.2354 20.7882 27.2354 20.4089C27.9938 20.4089 28.7525 20.4089 29.5109 20.4089C29.5109 20.0295 29.5109 19.6504 29.5109 19.2711C29.8902 19.2711 30.2694 19.2711 30.6487 19.2711C30.6487 18.8918 30.6487 18.5126 30.6487 18.1333C31.0754 18.1333 31.502 18.1333 31.9287 18.1333C31.9287 19.2711 31.9287 20.4089 31.9287 21.5466C31.502 21.5466 31.0754 21.5466 30.6487 21.5466C30.6487 21.9259 30.6487 22.3051 30.6487 22.6844C29.8902 22.6844 29.1316 22.6844 28.3732 22.6844C28.3732 23.0637 28.3732 23.4429 28.3732 23.8222C27.6147 23.8222 26.8561 23.8222 26.0976 23.8222C26.0976 24.2015 26.0976 24.5807 26.0976 24.96C24.9598 24.96 23.822 24.96 22.6843 24.96C22.6843 25.3393 22.6843 25.7184 22.6843 26.0977C22.1022 26.0946 21.5333 25.9998 20.9776 25.8133C19.279 25.9909 17.5724 26.0857 15.8576 26.0977C14.1429 26.0857 12.4362 25.9909 10.7376 25.8133C10.182 25.9998 9.61308 26.0946 9.03093 26.0977C9.03093 25.7184 9.03093 25.3393 9.03093 24.96C7.89316 24.96 6.75538 24.96 5.6176 24.96C5.6176 24.5807 5.6176 24.2015 5.6176 23.8222C4.85909 23.8222 4.10056 23.8222 3.34204 23.8222C3.34204 23.4429 3.34204 23.0637 3.34204 22.6844C2.58353 22.6844 1.825 22.6844 1.06649 22.6844C1.06649 22.3051 1.06649 21.9259 1.06649 21.5466C0.687229 21.5466 0.307971 21.5466 -0.0712891 21.5466C-0.0712891 20.4089 -0.0712891 19.2711 -0.0712891 18.1333Z" fill="#0247B2"/>
<path fill-rule="evenodd" clip-rule="evenodd" d="M19.9821 13.2979C20.5983 13.2979 21.2147 13.2979 21.8309 13.2979C21.7856 13.9895 21.8329 14.6532 21.9732 15.289C22.6369 15.289 23.3005 15.289 23.9643 15.289C23.9643 15.8579 23.9643 16.4267 23.9643 16.9956C23.7474 18.3337 23.3207 19.6137 22.6843 20.8356C22.2034 21.4113 21.6819 21.9329 21.1198 22.4001C20.8859 22.2608 20.6962 22.0713 20.5509 21.8312C20.4561 21.8785 20.3614 21.926 20.2665 21.9734C19.5773 21.5102 18.9137 21.0124 18.2754 20.4801C18.5904 20.4559 18.8749 20.361 19.1287 20.1956C19.0249 19.8893 18.93 19.5811 18.8443 19.2712C19.2636 18.6692 19.5717 18.0054 19.7687 17.2801C19.9502 15.9591 20.0213 14.6318 19.9821 13.2979Z" fill="#F5F6F8"/>
<path fill-rule="evenodd" clip-rule="evenodd" d="M-0.0712891 21.5466C0.307971 21.5466 0.687229 21.5466 1.06649 21.5466C1.06649 21.9259 1.06649 22.3051 1.06649 22.6844C1.825 22.6844 2.58353 22.6844 3.34204 22.6844C3.34204 23.0637 3.34204 23.4429 3.34204 23.8222C4.10056 23.8222 4.85909 23.8222 5.6176 23.8222C5.6176 24.2015 5.6176 24.5807 5.6176 24.96C6.75538 24.96 7.89316 24.96 9.03093 24.96C9.03093 25.3393 9.03093 25.7184 9.03093 26.0977C9.61308 26.0946 10.182 25.9998 10.7376 25.8133C12.4362 25.9909 14.1429 26.0857 15.8576 26.0977C17.5724 26.0857 19.279 25.9909 20.9776 25.8133C21.5333 25.9998 22.1022 26.0946 22.6843 26.0977C22.6843 25.7184 22.6843 25.3393 22.6843 24.96C23.822 24.96 24.9598 24.96 26.0976 24.96C26.0976 24.5807 26.0976 24.2015 26.0976 23.8222C26.8561 23.8222 27.6147 23.8222 28.3732 23.8222C28.3732 23.4429 28.3732 23.0637 28.3732 22.6844C29.1316 22.6844 29.8902 22.6844 30.6487 22.6844C30.6487 22.3051 30.6487 21.9259 30.6487 21.5466C31.0754 21.5466 31.502 21.5466 31.9287 21.5466C31.9287 22.4473 31.9287 23.3482 31.9287 24.2489C31.5525 24.4966 31.1259 24.5915 30.6487 24.5333C30.6487 24.6755 30.6487 24.8177 30.6487 24.96C30.2694 24.96 29.8902 24.96 29.5109 24.96C29.5109 25.3393 29.5109 25.7184 29.5109 26.0977C28.7525 26.0977 27.9938 26.0977 27.2354 26.0977C27.2354 26.477 27.2354 26.8562 27.2354 27.2355C26.0976 27.2355 24.9598 27.2355 23.822 27.2355C23.822 27.4726 23.822 27.7095 23.822 27.9466C23.4427 27.9466 23.0636 27.9466 22.6843 27.9466C22.6843 28.0889 22.6843 28.2311 22.6843 28.3733C21.1672 28.3733 19.6502 28.3733 18.1332 28.3733C18.1332 28.7526 18.1332 29.1318 18.1332 29.5111C16.9954 29.5111 15.8576 29.5111 14.7198 29.5111C14.7198 29.1318 14.7198 28.7526 14.7198 28.3733C12.4443 28.3733 10.1687 28.3733 7.89316 28.3733C7.89316 27.994 7.89316 27.6148 7.89316 27.2355C6.75538 27.2355 5.6176 27.2355 4.47982 27.2355C4.47982 26.8562 4.47982 26.477 4.47982 26.0977C3.72131 26.0977 2.96278 26.0977 2.20427 26.0977C2.20427 25.7184 2.20427 25.3393 2.20427 24.96C1.825 24.96 1.44575 24.96 1.06649 24.96C1.04058 25.7129 0.96947 25.7129 0.853155 24.96C0.805748 25.7184 0.75834 26.477 0.710933 27.2355C0.624434 27.4582 0.505916 27.648 0.355378 27.8044C0.142989 26.8541 0.000766934 25.9059 -0.0712891 24.96C-0.0712891 23.8222 -0.0712891 22.6844 -0.0712891 21.5466Z" fill="#0142AB"/>
<path fill-rule="evenodd" clip-rule="evenodd" d="M11.8758 8.46216C12.0176 11.2819 12.065 14.1264 12.018 16.9955C12.1743 17.7726 12.4824 18.4837 12.9424 19.1288C14.8576 20.7871 16.8251 20.8345 18.8447 19.271C18.9304 19.5809 19.0253 19.8891 19.1291 20.1955C18.8752 20.3609 18.5908 20.4558 18.2758 20.4799C18.9141 21.0123 19.5777 21.5101 20.2669 21.9733C20.3618 21.9259 20.4565 21.8784 20.5513 21.831C20.6965 22.0711 20.8863 22.2607 21.1202 22.3999C20.6096 22.9796 19.9934 23.4301 19.2713 23.751C16.141 24.9164 13.2491 24.5135 10.5958 22.5422C9.06696 20.9847 8.16621 19.1358 7.89355 16.9955C7.89355 14.3406 7.89355 11.6859 7.89355 9.03105C7.89355 8.88882 7.89355 8.7466 7.89355 8.60438C8.0093 8.90746 8.08041 9.23932 8.10689 9.59994C8.1133 11.885 8.20812 14.1605 8.39133 16.4266C8.54866 15.6772 8.64346 14.9186 8.67578 14.151C8.70965 14.6804 8.78077 15.2019 8.88911 15.7155C9.2599 15.8318 9.63915 15.9029 10.0269 15.9288C10.3115 16.4758 10.7382 16.8314 11.3069 16.9955C11.3316 15.8616 11.4027 15.8616 11.5202 16.9955C11.5676 15.8104 11.615 14.6251 11.6624 13.4399C11.7428 14.9152 11.7428 16.3849 11.6624 17.8488C11.7098 17.7066 11.7573 17.5644 11.8047 17.4222C11.8758 14.4359 11.8995 11.4492 11.8758 8.46216Z" fill="#DBDEE8"/>
<path fill-rule="evenodd" clip-rule="evenodd" d="M31.9288 24.2488C31.9288 24.6281 31.9288 25.0073 31.9288 25.3866C31.7965 26.273 31.6306 27.1739 31.431 28.0888C30.2042 30.621 28.1894 31.901 25.3866 31.9288C18.797 31.9288 12.2073 31.9288 5.61769 31.9288C3.03899 31.6108 1.28491 30.2359 0.355469 27.8043C0.506007 27.6479 0.624525 27.4582 0.711024 27.2354C0.758431 26.477 0.80584 25.7184 0.853247 24.9599C0.969562 25.7128 1.04067 25.7128 1.06658 24.9599C1.44584 24.9599 1.82509 24.9599 2.20436 24.9599C2.20436 25.3392 2.20436 25.7184 2.20436 26.0977C2.96287 26.0977 3.7214 26.0977 4.47991 26.0977C4.47991 26.477 4.47991 26.8561 4.47991 27.2354C5.61769 27.2354 6.75547 27.2354 7.89325 27.2354C7.89325 27.6148 7.89325 27.9939 7.89325 28.3732C10.1688 28.3732 12.4444 28.3732 14.7199 28.3732C14.7199 28.7525 14.7199 29.1317 14.7199 29.511C15.8577 29.511 16.9955 29.511 18.1332 29.511C18.1332 29.1317 18.1332 28.7525 18.1332 28.3732C19.6503 28.3732 21.1673 28.3732 22.6844 28.3732C22.6844 28.231 22.6844 28.0888 22.6844 27.9466C23.0637 27.9466 23.4428 27.9466 23.8221 27.9466C23.8221 27.7095 23.8221 27.4725 23.8221 27.2354C24.9599 27.2354 26.0977 27.2354 27.2355 27.2354C27.2355 26.8561 27.2355 26.477 27.2355 26.0977C27.9939 26.0977 28.7526 26.0977 29.511 26.0977C29.511 25.7184 29.511 25.3392 29.511 24.9599C29.8903 24.9599 30.2695 24.9599 30.6488 24.9599C30.6488 24.8177 30.6488 24.6754 30.6488 24.5332C31.126 24.5914 31.5526 24.4965 31.9288 24.2488Z" fill="#023EA2"/>
</g>
<defs>
<clipPath id="clip0_151_466">
<rect width="32" height="32" fill="white"/>
</clipPath>
</defs>
</svg>
