<svg width="32" height="32" viewBox="0 0 32 32" fill="none" xmlns="http://www.w3.org/2000/svg">
    <path d="M32 0H0V32H32V0Z" fill="black" />
    <path
        d="M17.224 5.72516L22.2309 8.649C22.411 8.75166 22.4175 9.03642 22.2309 9.13908L16.2815 12.6159C16.1015 12.7219 15.8888 12.7152 15.7219 12.6159L9.77234 9.13908C9.58907 9.03974 9.5858 8.74834 9.77234 8.649L14.7761 5.72516V0L2 7.46358V22.3908L6.89903 19.5298V13.6821C6.89576 13.4735 7.13791 13.3245 7.31792 13.4371L13.2674 16.9139C13.4474 17.0199 13.5489 17.2086 13.5489 17.404V24.3544C13.5521 24.563 13.31 24.712 13.13 24.5994L8.12296 21.6754L3.22394 24.5364L16 32L28.776 24.5364L23.8772 21.6754L18.8701 24.5994C18.6934 24.7086 18.4446 24.5662 18.4512 24.3544V17.404C18.4512 17.1954 18.5657 17.0099 18.7326 16.9139L24.6822 13.4371C24.8588 13.3278 25.1076 13.4669 25.101 13.6821V19.5298L30 22.3908V7.46358L17.224 0V5.72516Z"
        fill="#FAFAFA" />
</svg>