<svg width="32" height="32" viewBox="0 0 32 32" fill="none" xmlns="http://www.w3.org/2000/svg">
    <g clip-path="url(#clip0_2260_47)">
        <path
            d="M30.6477 9.33706L30.6936 9.3644L30.7394 9.39629L30.7808 9.42818L30.8266 9.46462L30.8679 9.50106L30.9093 9.54207L30.9551 9.58306L30.9964 9.62406L31.0377 9.66962L31.079 9.71517L31.1158 9.76073L31.1571 9.81084L31.1984 9.8655L31.2351 9.92017L31.2718 9.97484L31.3131 10.0341L31.3498 10.0933L31.3865 10.1525L31.4232 10.2163L31.4599 10.2801L31.4921 10.3484L31.5288 10.4167L31.5609 10.4896L31.5976 10.5625L31.6297 10.6354L31.6619 10.7128L31.694 10.7903L31.7261 10.8723L31.7582 10.9543L31.7904 11.0363L31.8225 11.1228L31.85 11.2094L31.8821 11.3005L31.9097 11.3916L31.9418 11.4873L31.9693 11.5829L31.9969 11.6786L32.0244 11.7788L32.0519 11.8791V26.3201L32.0474 26.4431L32.0382 26.5661L32.029 26.6891L32.0106 26.8075L31.9877 26.926L31.9602 27.0444L31.928 27.1583L31.8959 27.2722L31.8546 27.3861L31.8087 27.4954L31.7628 27.6002L31.7078 27.705L31.6527 27.8098L31.593 27.91L31.5288 28.0102L31.4599 28.1013L31.3911 28.197L31.3131 28.2835L31.2351 28.3701L31.1571 28.4567L31.0699 28.5386L30.9827 28.6161L30.8955 28.689L30.7991 28.7573L30.7027 28.8256L30.6064 28.8894L30.5054 28.9486L30.3999 29.0079L30.2943 29.058L30.1888 29.1081L30.074 29.1491L29.9639 29.1901L29.8492 29.2265L29.7344 29.2584L29.6151 29.2812L29.4958 29.304L29.3765 29.3222L29.2526 29.3359L29.1287 29.3404L29.0048 29.345H3.09912L2.97521 29.3404L2.85131 29.3359L2.7274 29.3222L2.60809 29.304L2.48877 29.2812L2.36945 29.2584L2.25472 29.2265L2.14 29.1901L2.02985 29.1491L1.91972 29.1081L1.80958 29.058L1.70403 29.0079L1.59848 28.9486L1.49751 28.8894L1.40115 28.8256L1.30477 28.7573L1.21299 28.689L1.12121 28.6161L1.03401 28.5386L0.94682 28.4567L0.868805 28.3701L0.790791 28.2835L0.712777 28.197L0.643936 28.1013L0.575101 28.0102L0.510854 27.91L0.451193 27.8098L0.396126 27.705L0.341058 27.6002L0.295164 27.4954L0.249277 27.3861L0.20797 27.2722L0.175849 27.1583L0.143722 27.0444L0.116188 26.926L0.0932414 26.8075L0.074888 26.6891L0.0657077 26.5661L0.0565275 26.4431L0.0519409 26.3201V11.8791L0.0565275 11.8016V11.7196L0.0657077 11.6422L0.0702944 11.5647L0.0794746 11.4873L0.0932414 11.4098L0.107008 11.3324L0.125369 11.2549L0.143722 11.1821L0.162083 11.1046L0.185023 11.0317L0.20797 10.9588L0.235503 10.8859L0.263044 10.8131L0.290578 10.7402L0.322698 10.6718L0.354825 10.5989L0.391539 10.5306L0.423659 10.4623L0.46496 10.3939L0.501674 10.3302L0.542981 10.2664L0.584282 10.2026L0.630169 10.1388L0.676063 10.0751L0.721957 10.0158L0.767844 9.95661L0.818325 9.8974L0.868805 9.84273L0.923873 9.78351L0.974353 9.72884L1.02943 9.67873L1.0845 9.62406L1.13956 9.5785L1.19922 9.52839L1.25888 9.48284L1.31854 9.43728L1.3782 9.39173L1.43786 9.35073L1.50211 9.30973L16.0542 2.12109L30.6018 9.30973L30.6477 9.33706ZM16.0542 19.136L28.2934 11.1957L16.0542 5.14597L3.81503 11.1957L16.0542 19.136Z"
            fill="#FF4500" />
    </g>
    <defs>
        <clipPath id="clip0_2260_47">
            <rect width="32" height="32" fill="white" />
        </clipPath>
    </defs>
</svg>