<svg width="32" height="32" viewBox="0 0 32 32" fill="none" xmlns="http://www.w3.org/2000/svg">
<g clip-path="url(#clip0_151_2797)">
<path d="M32 0H0V32H32V0Z" fill="#32048B"/>
<mask id="mask0_151_2797" style="mask-type:luminance" maskUnits="userSpaceOnUse" x="0" y="0" width="32" height="32">
<path d="M31.1355 0.864868H0.865234V32H31.1355V0.864868Z" fill="white"/>
</mask>
<g mask="url(#mask0_151_2797)">
<path d="M26.9841 25.5597C25.8349 27.5184 24.0883 29.0895 21.9808 30.0601C19.6493 31.1031 17.101 31.6186 14.5308 31.567C12.0595 31.6208 9.60844 31.1272 7.36682 30.1239C5.33284 29.1696 3.66034 27.6256 2.58412 25.709C1.36268 23.4152 0.770942 20.8585 0.865201 18.2822V2.40445C0.849727 2.25156 0.867351 2.09723 0.916977 1.95124C0.966594 1.80525 1.04713 1.67073 1.15348 1.55625C1.39608 1.36917 1.70342 1.27792 2.0133 1.30088H7.34665C7.6705 1.27398 7.99303 1.36507 8.25043 1.55625C8.35679 1.67073 8.43731 1.80525 8.48694 1.95124C8.53657 2.09723 8.55419 2.25156 8.53872 2.40445V17.684C8.53872 19.9763 9.0672 21.7311 10.1242 22.9486C10.7077 23.575 11.4317 24.065 12.2414 24.3813C13.0511 24.6976 13.9251 24.8319 14.7967 24.774C15.6678 24.8263 16.54 24.6895 17.3487 24.3735C18.1575 24.0575 18.8821 23.5705 19.4691 22.9486C20.5565 21.7321 21.1002 19.9773 21.1002 17.684V2.40097C21.0847 2.24808 21.1023 2.09376 21.152 1.94777C21.2015 1.80178 21.282 1.66726 21.3884 1.55277C21.631 1.36569 21.9384 1.27445 22.2483 1.2974H27.5816C27.9056 1.27073 28.2283 1.36179 28.4861 1.55277C28.5925 1.66726 28.673 1.80178 28.7226 1.94777C28.7722 2.09376 28.7898 2.24808 28.7744 2.40097V18.1935C28.8613 20.7578 28.2437 23.2988 26.9841 25.5597Z" fill="url(#paint0_linear_151_2797)"/>
<path d="M29.1913 29.0905C29.0591 28.9686 28.9541 28.8222 28.8822 28.6601C28.8103 28.4979 28.7733 28.3236 28.7733 28.1473V2.40173C28.8054 2.25017 28.7979 2.09335 28.7517 1.94523C28.7054 1.7971 28.6217 1.66237 28.508 1.55302C28.3945 1.44369 28.2545 1.36314 28.1007 1.31867C27.9468 1.2742 27.784 1.26717 27.6266 1.29816H16.7394C16.4298 1.27538 16.1227 1.36671 15.8803 1.55362C15.7739 1.6681 15.6934 1.80254 15.6438 1.94853C15.5941 2.09452 15.5765 2.24884 15.592 2.40173V6.9868C15.57 7.13674 15.5845 7.28962 15.6344 7.43323C15.6842 7.57684 15.7681 7.70729 15.8793 7.81433C15.9905 7.92137 16.126 8.00203 16.2751 8.04996C16.4243 8.09788 16.583 8.11175 16.7387 8.09046H20.3971C20.4945 8.06776 20.5963 8.06952 20.6927 8.09562C20.7891 8.12173 20.877 8.17126 20.9478 8.23949C21.0187 8.30771 21.0701 8.39239 21.0972 8.48528C21.1243 8.57816 21.1262 8.67619 21.1026 8.76994V30.4635C21.087 30.6166 21.1045 30.7712 21.1541 30.9174C21.2037 31.0636 21.2843 31.1984 21.3909 31.3131C21.6487 31.5034 21.9711 31.5942 22.2947 31.5677H30.6371C30.7365 31.5675 30.8335 31.5387 30.9158 31.485C30.9981 31.4313 31.0618 31.3552 31.0989 31.2664C31.1359 31.1775 31.1445 31.08 31.1236 30.9864C31.1027 30.8928 31.0533 30.8075 30.9816 30.7411L29.1913 29.0905Z" fill="white"/>
<path d="M30.6361 31.5663H22.2958C21.9726 31.5932 21.6508 31.5026 21.3936 31.3122C21.287 31.1975 21.2063 31.0626 21.1566 30.9163C21.107 30.7699 21.0894 30.6152 21.1053 30.462V30.4342C21.4043 30.3182 21.6962 30.1941 21.9838 30.0595C24.0909 29.0892 25.8371 27.5182 26.9856 25.5597C28.2424 23.2982 28.8582 20.7578 28.7708 18.1941V2.401C28.7864 2.248 28.7688 2.0935 28.7192 1.94738C28.6695 1.80126 28.589 1.66669 28.4826 1.55213C28.2259 1.36121 27.9042 1.26982 27.581 1.296H27.6284C27.7859 1.26496 27.9489 1.272 28.1028 1.3165C28.2567 1.36101 28.3968 1.4416 28.5104 1.55103C28.624 1.66045 28.7076 1.79535 28.7539 1.94356C28.8 2.09177 28.8075 2.24872 28.7752 2.40032V28.1473C28.7751 28.3233 28.8121 28.4975 28.884 28.6594C28.9559 28.8213 29.061 28.9674 29.1931 29.0891L30.9827 30.7375C31.0549 30.8039 31.1047 30.8898 31.1258 30.9838C31.1469 31.0779 31.1383 31.1758 31.101 31.265C31.0637 31.3543 30.9993 31.4307 30.9165 31.4843C30.8336 31.538 30.736 31.5666 30.6361 31.5663Z" fill="white"/>
</g>
</g>
<defs>
<linearGradient id="paint0_linear_151_2797" x1="14.6234" y1="16.4319" x2="22.6106" y2="16.4319" gradientUnits="userSpaceOnUse">
<stop stop-color="white"/>
<stop offset="0.293" stop-color="#EEECEC"/>
<stop offset="0.594" stop-color="#E2E2E2"/>
<stop offset="0.891" stop-color="#D9D9D9"/>
<stop offset="1" stop-color="white"/>
</linearGradient>
<clipPath id="clip0_151_2797">
<rect width="32" height="32" fill="white"/>
</clipPath>
</defs>
</svg>
