<svg width="32" height="32" viewBox="0 0 32 32" fill="none" xmlns="http://www.w3.org/2000/svg">
<path fill-rule="evenodd" clip-rule="evenodd" d="M20.0004 1.44489C20.1616 1.55879 20.3483 1.61212 20.5604 1.60489C21.3844 1.74615 22.1578 2.01282 22.8804 2.40489C22.9615 2.49878 23.0682 2.55212 23.2004 2.56489C23.4759 2.60962 23.7159 2.7163 23.9204 2.88489C23.9461 3.00874 24.0261 3.06207 24.1604 3.04489C24.2927 3.05766 24.3993 3.11099 24.4804 3.20489C24.5061 3.32874 24.5861 3.38207 24.7204 3.36489C25.4572 3.78195 26.1239 4.28862 26.7204 4.88489C26.8072 5.05184 26.9405 5.1585 27.1204 5.20489C27.3017 5.51973 27.5417 5.7864 27.8404 6.00489C27.9738 6.08489 28.0804 6.19155 28.1604 6.32489C28.1546 6.44704 28.2079 6.52704 28.3204 6.56489C28.3471 6.64489 28.4004 6.69822 28.4804 6.72489C28.4995 6.87724 28.5795 6.9839 28.7204 7.04489C28.7395 7.19724 28.8195 7.3039 28.9604 7.36489C28.9795 7.51724 29.0595 7.6239 29.2004 7.68489C29.2675 7.71222 29.2942 7.76556 29.2804 7.84489C29.2746 7.96704 29.3279 8.04704 29.4404 8.08489C29.4346 8.20704 29.4879 8.28704 29.6004 8.32489C29.6675 8.35222 29.6942 8.40556 29.6804 8.48489C29.6746 8.60704 29.7279 8.68704 29.8404 8.72489C29.9343 8.80598 29.9876 8.91265 30.0004 9.04489C29.9946 9.16705 30.0479 9.24705 30.1604 9.28489C30.3647 9.64017 30.5247 10.0135 30.6404 10.4049C30.61 10.5807 30.6634 10.7141 30.8004 10.8049C30.77 10.9807 30.8234 11.1141 30.9604 11.2049C30.9604 11.2315 30.9604 11.2582 30.9604 11.2849C31.064 11.7811 31.1974 12.2611 31.3604 12.7249C31.5311 13.1524 31.6111 13.6058 31.6004 14.0849C31.6649 15.1502 31.6915 16.2169 31.6804 17.2849C31.6708 17.9776 31.5642 18.6442 31.3604 19.2849C31.2323 19.584 31.1523 19.904 31.1204 20.2449C31.1394 20.3482 31.1127 20.4282 31.0404 20.4849C30.8206 20.5956 30.7673 20.7556 30.8804 20.9649C30.488 22.1764 29.928 23.2964 29.2004 24.3249C29.0879 24.3627 29.0346 24.4427 29.0404 24.5649C28.9905 24.7452 28.8839 24.8786 28.7204 24.9649C28.6079 25.0027 28.5546 25.0827 28.5604 25.2049C28.5604 25.2582 28.5338 25.2849 28.4804 25.2849C28.4004 25.3115 28.3471 25.3649 28.3204 25.4449C28.2469 25.652 28.1135 25.812 27.9204 25.9249C27.7795 25.9858 27.6995 26.0926 27.6804 26.2449C27.4938 26.4849 27.2804 26.6982 27.0404 26.8849C26.9183 26.879 26.8383 26.9324 26.8004 27.0449C26.3383 27.5603 25.805 27.987 25.2004 28.3249C25.0783 28.319 24.9983 28.3724 24.9604 28.4849C24.6823 28.7347 24.3623 28.9214 24.0004 29.0449C23.8783 29.039 23.7983 29.0924 23.7604 29.2049C23.6035 29.3498 23.4169 29.4298 23.2004 29.4449C23.0682 29.4577 22.9615 29.511 22.8804 29.6049C22.8531 29.6719 22.7998 29.6986 22.7204 29.6849C22.5562 29.677 22.4228 29.7304 22.3204 29.8449C22.0563 30.0116 21.763 30.1183 21.4404 30.1649C21.2283 30.1577 21.0416 30.211 20.8804 30.3249C20.795 30.3996 20.6883 30.4263 20.5604 30.4049C20.3483 30.3977 20.1616 30.451 20.0004 30.5649C19.4003 30.7382 18.787 30.8182 18.1604 30.8049C17.9738 30.8049 17.7871 30.8049 17.6004 30.8049C17.6004 30.7249 17.6004 30.6449 17.6004 30.5649C17.6352 30.3523 17.7152 30.1656 17.8404 30.0049C17.9775 29.9141 18.0308 29.7807 18.0004 29.6049C18.1871 29.4708 18.2671 29.2842 18.2404 29.0449C18.3775 28.9541 18.4308 28.8207 18.4004 28.6449C18.5375 28.5541 18.5908 28.4207 18.5604 28.2449C18.6627 27.9115 18.7959 27.5915 18.9604 27.2849C19.1535 27.1905 19.2335 27.0305 19.2004 26.8049C19.2191 26.5615 19.2991 26.3482 19.4404 26.1649C19.6271 26.0308 19.7071 25.8442 19.6804 25.6049C19.8671 25.4708 19.9471 25.2842 19.9204 25.0449C19.9126 24.8806 19.9659 24.7473 20.0804 24.6449C20.2671 24.5108 20.3471 24.3242 20.3204 24.0849C20.3204 24.0582 20.3204 24.0315 20.3204 24.0049C20.4545 23.9502 20.5079 23.8435 20.4804 23.6849C20.6641 23.159 20.8774 22.6524 21.1204 22.1649C21.2575 22.0741 21.3108 21.9407 21.2804 21.7649C21.4671 21.6308 21.5471 21.4442 21.5204 21.2049C21.6575 21.1141 21.7108 20.9807 21.6804 20.8049C21.8175 20.7141 21.8708 20.5807 21.8404 20.4049C22.0348 19.8836 22.2482 19.3769 22.4804 18.8849C22.6175 18.7941 22.6708 18.6607 22.6404 18.4849C22.6267 18.4055 22.6534 18.3522 22.7204 18.3249C22.9071 18.1908 22.9871 18.0042 22.9604 17.7649C23.0975 17.6741 23.1508 17.5407 23.1204 17.3649C23.3071 17.2308 23.3871 17.0442 23.3604 16.8049C23.4975 16.7141 23.5508 16.5807 23.5204 16.4049C23.6575 16.3141 23.7108 16.1807 23.6804 16.0049C23.8748 15.4836 24.0882 14.9769 24.3204 14.4849C24.4575 14.3941 24.5108 14.2607 24.4804 14.0849C24.4667 14.0055 24.4934 13.9522 24.5604 13.9249C24.7471 13.7908 24.8271 13.6042 24.8004 13.3649C24.9871 13.2308 25.0671 13.0442 25.0404 12.8049C25.0326 12.6406 25.0859 12.5073 25.2004 12.4049C25.3375 12.3141 25.3908 12.1807 25.3604 12.0049C25.4975 11.9141 25.5508 11.7807 25.5204 11.6049C25.6239 11.361 25.7039 11.1077 25.7604 10.8449C25.7332 10.644 25.6532 10.4706 25.5204 10.3249C25.2804 10.1115 25.0404 10.1115 24.8004 10.3249C24.5371 10.8246 24.2971 11.3312 24.0804 11.8449C23.8787 11.9673 23.7987 12.154 23.8404 12.4049C23.6567 12.9307 23.4435 13.4374 23.2004 13.9249C23.0859 14.0273 23.0326 14.1606 23.0404 14.3249C22.6547 15.3621 22.228 16.3754 21.7604 17.3649C21.6459 17.4673 21.5926 17.6006 21.6004 17.7649C21.5656 17.9774 21.4856 18.1642 21.3604 18.3249C21.2459 18.4273 21.1926 18.5606 21.2004 18.7249C21.1656 18.9374 21.0856 19.1242 20.9604 19.2849C20.9071 19.3115 20.8538 19.3382 20.8004 19.3649C20.4352 18.6441 20.1152 17.8974 19.8404 17.1249C19.8483 16.9606 19.7949 16.8273 19.6804 16.7249C19.5391 16.5415 19.4591 16.3282 19.4404 16.0849C19.4735 15.8593 19.3935 15.6993 19.2004 15.6049C18.9919 15.161 18.8052 14.7077 18.6404 14.2449C18.6483 14.0806 18.5949 13.9473 18.4804 13.8449C18.2567 13.4765 18.0967 13.0765 18.0004 12.6449C17.9692 12.3662 17.8892 12.0996 17.7604 11.8449C17.7058 11.8158 17.6524 11.7892 17.6004 11.7649C17.384 11.3572 17.1974 10.9306 17.0404 10.4849C17.0404 10.3782 16.9871 10.3249 16.8804 10.3249C16.8011 10.3386 16.7478 10.3119 16.7204 10.2449C16.6727 10.1938 16.606 10.1671 16.5204 10.1649C16.3845 10.1558 16.2911 10.2091 16.2404 10.3249C16.0804 10.3249 16.0004 10.4049 16.0004 10.5649C15.9756 10.9009 16.029 11.2209 16.1604 11.5249C16.13 11.7007 16.1834 11.8341 16.3204 11.9249C16.4034 12.0393 16.4567 12.1726 16.4804 12.3249C16.45 12.5007 16.5034 12.6341 16.6404 12.7249C16.8078 12.9319 16.9144 13.1719 16.9604 13.4449C16.93 13.6207 16.9834 13.7541 17.1204 13.8449C17.3527 14.3369 17.566 14.8436 17.7604 15.3649C17.73 15.5407 17.7834 15.6741 17.9204 15.7649C17.89 15.9407 17.9434 16.0741 18.0804 16.1649C18.2167 16.3854 18.3234 16.6254 18.4004 16.8849C18.37 17.0607 18.4234 17.1941 18.5604 17.2849C18.53 17.4607 18.5834 17.5941 18.7204 17.6849C19.1619 18.6219 19.5619 19.5819 19.9204 20.5649C19.893 20.7235 19.9463 20.8302 20.0804 20.8849C20.1634 21.0639 20.1767 21.2506 20.1204 21.4449C19.981 21.7706 19.8343 22.0906 19.6804 22.4049C19.4874 22.4993 19.4074 22.6593 19.4404 22.8849C19.4404 22.9115 19.4404 22.9382 19.4404 22.9649C19.2387 23.0873 19.1587 23.274 19.2004 23.5249C19.1656 23.7374 19.0856 23.9242 18.9604 24.0849C18.8459 24.1873 18.7926 24.3206 18.8004 24.4849C18.7656 24.6974 18.6856 24.8842 18.5604 25.0449C18.4459 25.1473 18.3926 25.2806 18.4004 25.4449C18.308 25.7886 18.1747 26.1086 18.0004 26.4049C17.9484 26.4292 17.8951 26.4558 17.8404 26.4849C17.7116 26.7396 17.6316 27.0062 17.6004 27.2849C17.5818 27.5282 17.5018 27.7415 17.3604 27.9249C17.2459 28.0273 17.1926 28.1606 17.2004 28.3249C16.8651 29.169 16.5184 30.009 16.1604 30.8449C15.2068 30.871 14.2735 30.751 13.3604 30.4849C13.2323 30.359 13.0723 30.3056 12.8804 30.3249C12.64 30.1827 12.3734 30.1027 12.0804 30.0849C12.0538 30.0849 12.0271 30.0849 12.0004 30.0849C11.9096 29.9478 11.7763 29.8945 11.6004 29.9249C10.8632 29.6894 10.1699 29.3694 9.52042 28.9649C9.48258 28.8524 9.40258 28.799 9.28042 28.8049C9.20106 28.8186 9.14778 28.7919 9.12042 28.7249C9.08258 28.6124 9.00258 28.559 8.88042 28.5649C8.84258 28.4524 8.76258 28.399 8.64042 28.4049C8.60258 28.2924 8.52258 28.239 8.40042 28.2449C8.33946 28.1039 8.23274 28.0239 8.08042 28.0049C8.01946 27.8639 7.91274 27.7839 7.76042 27.7649C7.69946 27.6239 7.59274 27.5439 7.44042 27.5249C7.36042 27.4982 7.30706 27.4449 7.28042 27.3649C7.21946 27.2239 7.11274 27.1439 6.96042 27.1249C6.82706 27.0449 6.72042 26.9382 6.64042 26.8049C6.58706 26.6982 6.50706 26.6182 6.40042 26.5649C6.34706 26.4582 6.26706 26.3782 6.16042 26.3249C5.97378 26.1915 5.81378 26.0315 5.68042 25.8449C5.66138 25.6926 5.58138 25.5858 5.44042 25.5249C5.33378 25.4715 5.25378 25.3915 5.20042 25.2849C5.20626 25.1627 5.1529 25.0827 5.04042 25.0449C4.98706 25.0449 4.96042 25.0182 4.96042 24.9649C4.96626 24.8427 4.9129 24.7627 4.80042 24.7249C4.7961 24.5543 4.7161 24.4477 4.56042 24.4049C4.49338 24.3775 4.46666 24.3242 4.48042 24.2449C4.4761 24.0743 4.3961 23.9677 4.24042 23.9249C4.07562 23.7057 3.94234 23.4657 3.84042 23.2049C3.85762 23.0706 3.80426 22.9906 3.68042 22.9649C3.61282 22.8712 3.55954 22.7645 3.52042 22.6449C3.52826 22.4806 3.4749 22.3473 3.36042 22.2449C3.2665 22.1638 3.21322 22.0571 3.20042 21.9249C3.2421 21.674 3.1621 21.4873 2.96042 21.3649C2.80802 21.0676 2.7013 20.7476 2.64042 20.4049C2.64762 20.1927 2.59434 20.0061 2.48042 19.8449C2.4057 19.7594 2.37898 19.6528 2.40042 19.5249C2.40682 19.2624 2.35346 19.0224 2.24042 18.8049C2.16298 18.6363 2.13626 18.4496 2.16042 18.2449C2.15274 17.775 2.09938 17.3217 2.00042 16.8849C1.87866 15.6394 1.95866 14.4127 2.24042 13.2049C2.35346 12.9874 2.40682 12.7474 2.40042 12.4849C2.40042 12.4582 2.40042 12.4315 2.40042 12.4049C2.53346 12.2498 2.58674 12.0631 2.56042 11.8449C2.71818 11.6382 2.79818 11.3982 2.80042 11.1249C2.96818 10.5673 3.18146 10.034 3.44042 9.52489C3.5529 9.48705 3.60626 9.40705 3.60042 9.28489C3.60042 9.25825 3.60042 9.23153 3.60042 9.20489C3.7129 9.16705 3.76626 9.08705 3.76042 8.96489C3.74666 8.88553 3.77338 8.83222 3.84042 8.80489C3.99306 8.72604 4.07306 8.5927 4.08042 8.40489C4.23306 8.32604 4.31306 8.1927 4.32042 8.00489C4.4329 7.96704 4.48626 7.88704 4.48042 7.76489C4.5929 7.72704 4.64626 7.64704 4.64042 7.52489C4.7529 7.48704 4.80626 7.40704 4.80042 7.28489C4.94138 7.2239 5.02138 7.11724 5.04042 6.96489C5.12042 6.93822 5.17378 6.88489 5.20042 6.80489C5.21946 6.65253 5.29946 6.54587 5.44042 6.48489C5.63354 6.37202 5.7669 6.21202 5.84042 6.00489C6.00426 5.78769 6.19098 5.60102 6.40042 5.44489C6.7421 5.23681 7.03538 4.97015 7.28042 4.64489C7.48754 4.57134 7.64754 4.43801 7.76042 4.24489C7.91274 4.22588 8.01946 4.14588 8.08042 4.00489C8.23274 3.98588 8.33946 3.90588 8.40042 3.76489C8.52258 3.77073 8.60258 3.71739 8.64042 3.60489C8.76258 3.61073 8.84258 3.55739 8.88042 3.44489C9.00258 3.45073 9.08258 3.39739 9.12042 3.28489C9.14778 3.21783 9.20106 3.19116 9.28042 3.20489C9.40258 3.21073 9.48258 3.15739 9.52042 3.04489C9.6549 2.92429 9.8149 2.84429 10.0004 2.80489C10.1435 2.8277 10.2768 2.80104 10.4004 2.72489C10.5882 2.67282 10.7215 2.56616 10.8004 2.40489C10.9337 8.71114 11.0137 15.0311 11.0404 21.3649C11.1075 21.3922 11.1342 21.4455 11.1204 21.5249C11.1263 21.6778 11.2063 21.7711 11.3604 21.8049C12.0945 21.8708 12.8145 21.8574 13.5204 21.7649C13.704 21.714 13.8373 21.6074 13.9204 21.4449C13.9726 21.369 13.9993 21.2757 14.0004 21.1649C14.0159 21.0042 13.9625 20.8842 13.8404 20.8049C13.8199 20.6228 13.7132 20.5294 13.5204 20.5249C13.1213 20.485 12.7213 20.4716 12.3204 20.4849C12.3204 14.2715 12.3204 8.05822 12.3204 1.84489C12.5326 1.85213 12.7192 1.79879 12.8804 1.68489C13.2213 1.65302 13.5413 1.57302 13.8404 1.44489C14.8212 1.20171 15.8212 1.09505 16.8404 1.12489C17.9091 1.10444 18.9624 1.21111 20.0004 1.44489Z" fill="#EE0C6A"/>
<path opacity="0.106" fill-rule="evenodd" clip-rule="evenodd" d="M20 1.44486C20.2122 1.43762 20.3988 1.49096 20.56 1.60486C20.3478 1.6121 20.1612 1.55877 20 1.44486Z" fill="#FEE0E8"/>
<path opacity="0.933" fill-rule="evenodd" clip-rule="evenodd" d="M13.8399 1.44495C13.5408 1.57308 13.2208 1.65307 12.8799 1.68495C13.1729 1.53168 13.4929 1.45168 13.8399 1.44495Z" fill="#FEABC4"/>
<path opacity="0.957" fill-rule="evenodd" clip-rule="evenodd" d="M12.8803 1.68485C12.7191 1.79876 12.5325 1.85209 12.3203 1.84485C12.4815 1.73095 12.6682 1.67761 12.8803 1.68485Z" fill="#FE9DBA"/>
<path opacity="0.745" fill-rule="evenodd" clip-rule="evenodd" d="M12.3204 1.84485C12.3204 8.05818 12.3204 14.2715 12.3204 20.4848C12.7213 20.4716 13.1213 20.4849 13.5204 20.5248C13.7132 20.5294 13.82 20.6228 13.8404 20.8048C13.7299 20.7008 13.5966 20.6341 13.4404 20.6048C13.0413 20.5649 12.6413 20.5516 12.2404 20.5648C12.2138 14.3114 12.2405 8.07138 12.3204 1.84485Z" fill="#FC9FBD"/>
<path opacity="0.392" fill-rule="evenodd" clip-rule="evenodd" d="M10.7998 2.40489C10.8565 2.33257 10.9365 2.30591 11.0398 2.32489C11.0398 8.67155 11.0398 15.0183 11.0398 21.3649C11.0131 15.0311 10.9331 8.71114 10.7998 2.40489Z" fill="#FED9E5"/>
<path opacity="0.212" fill-rule="evenodd" clip-rule="evenodd" d="M22.8799 2.40484C23.0303 2.38317 23.1369 2.43651 23.1999 2.56484C23.0676 2.55207 22.961 2.49874 22.8799 2.40484Z" fill="#FFD5E2"/>
<path fill-rule="evenodd" clip-rule="evenodd" d="M10.8 2.40491C10.7211 2.56618 10.5878 2.67284 10.4 2.72491C10.2764 2.80106 10.143 2.82772 10 2.80491C10.2412 2.63096 10.5079 2.49762 10.8 2.40491Z" fill="#FC81A2"/>
<path opacity="0.988" fill-rule="evenodd" clip-rule="evenodd" d="M23.9199 2.88489C24.0167 2.91946 24.0967 2.97278 24.1599 3.04489C24.0256 3.06207 23.9456 3.00874 23.9199 2.88489Z" fill="#FEA1B9"/>
<path opacity="0.765" fill-rule="evenodd" clip-rule="evenodd" d="M9.52027 3.04487C9.48243 3.15737 9.40243 3.21071 9.28027 3.20487C9.31811 3.09236 9.39811 3.03903 9.52027 3.04487Z" fill="#FFCADA"/>
<path opacity="0.992" fill-rule="evenodd" clip-rule="evenodd" d="M24.4805 3.20483C24.5773 3.2394 24.6573 3.29273 24.7205 3.36483C24.5861 3.38202 24.5061 3.32868 24.4805 3.20483Z" fill="#FFA4BB"/>
<path opacity="0.745" fill-rule="evenodd" clip-rule="evenodd" d="M9.11988 3.28486C9.08204 3.39736 9.00204 3.4507 8.87988 3.44486C8.91772 3.33235 8.99772 3.27902 9.11988 3.28486Z" fill="#FFCEDC"/>
<path opacity="0.808" fill-rule="evenodd" clip-rule="evenodd" d="M8.88062 3.44489C8.84278 3.55739 8.76278 3.61073 8.64062 3.60489C8.67846 3.49239 8.75847 3.43905 8.88062 3.44489Z" fill="#FFC2D4"/>
<path opacity="0.808" fill-rule="evenodd" clip-rule="evenodd" d="M8.64039 3.60492C8.60255 3.71743 8.52255 3.77076 8.40039 3.76492C8.43823 3.65242 8.51823 3.59908 8.64039 3.60492Z" fill="#FFC2D4"/>
<path opacity="0.745" fill-rule="evenodd" clip-rule="evenodd" d="M8.40008 3.76489C8.33912 3.90588 8.2324 3.98588 8.08008 4.00489C8.14104 3.8639 8.24776 3.7839 8.40008 3.76489Z" fill="#FFBDD1"/>
<path opacity="0.827" fill-rule="evenodd" clip-rule="evenodd" d="M8.07977 4.00488C8.01881 4.14587 7.91209 4.22587 7.75977 4.24488C7.82073 4.10389 7.92745 4.02389 8.07977 4.00488Z" fill="#FFAFC7"/>
<path opacity="0.973" fill-rule="evenodd" clip-rule="evenodd" d="M7.76027 4.24487C7.64739 4.43799 7.48739 4.57132 7.28027 4.64487C7.39315 4.45175 7.55315 4.31843 7.76027 4.24487Z" fill="#FE99B6"/>
<path opacity="0.016" fill-rule="evenodd" clip-rule="evenodd" d="M26.7197 4.88489C26.8996 4.93127 27.0329 5.03794 27.1197 5.20489C26.9398 5.1585 26.8065 5.05184 26.7197 4.88489Z" fill="#FFDAE5"/>
<path opacity="0.992" fill-rule="evenodd" clip-rule="evenodd" d="M7.28039 4.6449C7.03535 4.97016 6.74207 5.23683 6.40039 5.4449C6.64543 5.11963 6.93871 4.85297 7.28039 4.6449Z" fill="#FC87A9"/>
<path opacity="0.843" fill-rule="evenodd" clip-rule="evenodd" d="M27.1201 5.20483C27.4188 5.42332 27.6588 5.68999 27.8401 6.00483C27.5414 5.78635 27.3014 5.51968 27.1201 5.20483Z" fill="#FFC2D4"/>
<path opacity="0.808" fill-rule="evenodd" clip-rule="evenodd" d="M5.84043 6.00488C5.76691 6.21202 5.63355 6.37202 5.44043 6.48488C5.51395 6.27775 5.64731 6.11775 5.84043 6.00488Z" fill="#FFBDD1"/>
<path opacity="0.902" fill-rule="evenodd" clip-rule="evenodd" d="M28.1606 6.32483C28.2731 6.36268 28.3264 6.44268 28.3206 6.56483C28.2081 6.52698 28.1547 6.44698 28.1606 6.32483Z" fill="#FFB1C8"/>
<path opacity="0.016" fill-rule="evenodd" clip-rule="evenodd" d="M28.3203 6.56494C28.427 6.56494 28.4803 6.61828 28.4803 6.72494C28.4003 6.69828 28.347 6.64494 28.3203 6.56494Z" fill="#FFE1EA"/>
<path opacity="0.957" fill-rule="evenodd" clip-rule="evenodd" d="M28.4805 6.72485C28.6214 6.78584 28.7014 6.8925 28.7205 7.04485C28.5795 6.98387 28.4995 6.87721 28.4805 6.72485Z" fill="#FFAFC6"/>
<path opacity="0.392" fill-rule="evenodd" clip-rule="evenodd" d="M5.20004 6.80493C5.1734 6.88493 5.12004 6.93827 5.04004 6.96493C5.04004 6.85827 5.0934 6.80493 5.20004 6.80493Z" fill="#FFDAE5"/>
<path opacity="0.667" fill-rule="evenodd" clip-rule="evenodd" d="M5.0398 6.96484C5.02076 7.1172 4.94076 7.22386 4.7998 7.28484C4.81884 7.13249 4.89884 7.02583 5.0398 6.96484Z" fill="#FFC7D8"/>
<path opacity="0.961" fill-rule="evenodd" clip-rule="evenodd" d="M28.7197 7.04492C28.8607 7.10591 28.9407 7.21257 28.9597 7.36492C28.8188 7.30394 28.7388 7.19727 28.7197 7.04492Z" fill="#FFAAC3"/>
<path opacity="0.553" fill-rule="evenodd" clip-rule="evenodd" d="M4.80008 7.28491C4.80592 7.40706 4.75256 7.48706 4.64008 7.52491C4.63424 7.40276 4.6876 7.32276 4.80008 7.28491Z" fill="#FFC8D9"/>
<path opacity="0.71" fill-rule="evenodd" clip-rule="evenodd" d="M28.96 7.36487C29.1009 7.42585 29.1809 7.53252 29.2 7.68487C29.059 7.62388 28.979 7.51722 28.96 7.36487Z" fill="#FFC2D4"/>
<path opacity="0.588" fill-rule="evenodd" clip-rule="evenodd" d="M4.63992 7.5249C4.64576 7.64705 4.5924 7.72705 4.47992 7.7649C4.47408 7.64275 4.52744 7.56275 4.63992 7.5249Z" fill="#FFC1D4"/>
<path opacity="0.588" fill-rule="evenodd" clip-rule="evenodd" d="M4.47977 7.76489C4.48561 7.88704 4.43225 7.96704 4.31977 8.00489C4.31393 7.88274 4.36729 7.80274 4.47977 7.76489Z" fill="#FFC1D4"/>
<path opacity="0.651" fill-rule="evenodd" clip-rule="evenodd" d="M29.2797 7.84485C29.3922 7.8827 29.4456 7.9627 29.4397 8.08485C29.3272 8.047 29.2739 7.967 29.2797 7.84485Z" fill="#FFBACF"/>
<path opacity="0.502" fill-rule="evenodd" clip-rule="evenodd" d="M29.4399 8.08484C29.5524 8.12269 29.6057 8.20269 29.5999 8.32484C29.4874 8.28699 29.434 8.20699 29.4399 8.08484Z" fill="#FFCBDA"/>
<path fill-rule="evenodd" clip-rule="evenodd" d="M4.32008 8.00488C4.31272 8.1927 4.23272 8.32603 4.08008 8.40488C4.10008 8.23096 4.18008 8.09763 4.32008 8.00488Z" fill="#FD8FAC"/>
<path opacity="0.459" fill-rule="evenodd" clip-rule="evenodd" d="M29.6801 8.48486C29.7926 8.52271 29.846 8.60271 29.8401 8.72486C29.7276 8.68702 29.6743 8.60702 29.6801 8.48486Z" fill="#FFCDDC"/>
<path fill-rule="evenodd" clip-rule="evenodd" d="M4.07984 8.40491C4.07248 8.59272 3.99248 8.72606 3.83984 8.80491C3.85984 8.63099 3.93984 8.49766 4.07984 8.40491Z" fill="#FD92AE"/>
<path opacity="0.275" fill-rule="evenodd" clip-rule="evenodd" d="M3.76004 8.96484C3.76588 9.087 3.71252 9.167 3.60004 9.20484C3.5942 9.08268 3.64756 9.00268 3.76004 8.96484Z" fill="#FFDCE7"/>
<path opacity="0.212" fill-rule="evenodd" clip-rule="evenodd" d="M30.0004 9.04492C30.1129 9.08276 30.1663 9.16276 30.1604 9.28492C30.048 9.24708 29.9946 9.16708 30.0004 9.04492Z" fill="#FFE1EA"/>
<path opacity="0.306" fill-rule="evenodd" clip-rule="evenodd" d="M3.59989 9.28491C3.60573 9.40707 3.55237 9.48707 3.43989 9.52491C3.43405 9.40275 3.48741 9.32275 3.59989 9.28491Z" fill="#FFD7E3"/>
<path opacity="0.667" fill-rule="evenodd" clip-rule="evenodd" d="M16.7202 10.2449C16.555 10.2463 16.395 10.2729 16.2402 10.3249C16.291 10.2092 16.3843 10.1559 16.5202 10.1649C16.6058 10.1672 16.6725 10.1938 16.7202 10.2449Z" fill="#FEB5CC"/>
<path opacity="0.702" fill-rule="evenodd" clip-rule="evenodd" d="M25.5198 10.3249C25.2798 10.2183 25.0398 10.2183 24.7998 10.3249C25.0398 10.1116 25.2798 10.1116 25.5198 10.3249Z" fill="#FEC2D5"/>
<path opacity="0.765" fill-rule="evenodd" clip-rule="evenodd" d="M16.8799 10.3248C16.9865 10.3248 17.0399 10.3782 17.0399 10.4848C16.9599 10.4582 16.9065 10.4048 16.8799 10.3248Z" fill="#FFCCDB"/>
<path opacity="0.031" fill-rule="evenodd" clip-rule="evenodd" d="M16.24 10.3248C16.1866 10.4315 16.1066 10.5115 16 10.5648C16 10.4048 16.08 10.3248 16.24 10.3248Z" fill="#FFE3EB"/>
<path opacity="0.039" fill-rule="evenodd" clip-rule="evenodd" d="M0.160156 10.5649C0.312476 10.584 0.419196 10.664 0.480156 10.8049C0.327836 10.7859 0.221116 10.7059 0.160156 10.5649Z" fill="#DFDFDF"/>
<path opacity="0.992" fill-rule="evenodd" clip-rule="evenodd" d="M30.6401 10.4049C30.7546 10.5073 30.808 10.6407 30.8001 10.8049C30.6631 10.7141 30.6097 10.5807 30.6401 10.4049Z" fill="#FFA3BB"/>
<path opacity="0.8" fill-rule="evenodd" clip-rule="evenodd" d="M0.480469 10.8049C0.658629 10.877 0.738629 11.0103 0.720469 11.2049C0.609269 11.093 0.529269 10.9597 0.480469 10.8049Z" fill="#D0D0CF"/>
<path opacity="0.976" fill-rule="evenodd" clip-rule="evenodd" d="M30.8003 10.8049C30.8832 10.9193 30.9366 11.0527 30.9603 11.2049C30.8232 11.1141 30.7699 10.9808 30.8003 10.8049Z" fill="#FFAAC2"/>
<path opacity="0.957" fill-rule="evenodd" clip-rule="evenodd" d="M2.80055 11.1249C2.79831 11.3982 2.71831 11.6382 2.56055 11.8449C2.59479 11.5821 2.67479 11.3421 2.80055 11.1249Z" fill="#FFB4C9"/>
<path opacity="0.655" fill-rule="evenodd" clip-rule="evenodd" d="M0.720625 11.2048C0.773265 11.3083 0.799985 11.4283 0.800625 11.5648C0.813745 11.7684 0.760385 11.9416 0.640625 12.0848C0.700145 11.7953 0.726785 11.502 0.720625 11.2048Z" fill="#E2E1E1"/>
<path opacity="0.973" fill-rule="evenodd" clip-rule="evenodd" d="M30.96 11.2849C31.1882 11.7308 31.3216 12.2108 31.36 12.7249C31.1969 12.2612 31.0636 11.7812 30.96 11.2849Z" fill="#FFB4CA"/>
<path opacity="0.976" fill-rule="evenodd" clip-rule="evenodd" d="M16.1606 11.5249C16.2436 11.6393 16.2969 11.7727 16.3206 11.9249C16.1836 11.8341 16.1302 11.7007 16.1606 11.5249Z" fill="#FFABC2"/>
<path fill-rule="evenodd" clip-rule="evenodd" d="M17.6006 11.7649C17.6526 11.7892 17.7059 11.8159 17.7606 11.8449C17.8894 12.0996 17.9694 12.3663 18.0006 12.6449C17.8221 12.378 17.6888 12.0847 17.6006 11.7649Z" fill="#FD91AC"/>
<path opacity="0.984" fill-rule="evenodd" clip-rule="evenodd" d="M25.5204 11.6049C25.5508 11.7807 25.4974 11.9141 25.3604 12.0049C25.384 11.8526 25.4374 11.7193 25.5204 11.6049Z" fill="#FFA2BC"/>
<path fill-rule="evenodd" clip-rule="evenodd" d="M24.0798 11.8448C24.0187 12.0463 23.9387 12.2329 23.8398 12.4048C23.7981 12.154 23.8781 11.9672 24.0798 11.8448Z" fill="#FE97B0"/>
<path opacity="0.039" fill-rule="evenodd" clip-rule="evenodd" d="M0.639924 12.0848C0.645764 12.207 0.592404 12.287 0.479924 12.3248C0.474084 12.2027 0.527444 12.1227 0.639924 12.0848Z" fill="#E4E4E4"/>
<path opacity="0.933" fill-rule="evenodd" clip-rule="evenodd" d="M2.56039 11.8448C2.58671 12.0631 2.53343 12.2498 2.40039 12.4048C2.41807 12.1995 2.47143 12.0128 2.56039 11.8448Z" fill="#FFBCCF"/>
<path opacity="0.996" fill-rule="evenodd" clip-rule="evenodd" d="M25.36 12.0049C25.3904 12.1807 25.337 12.3141 25.2 12.4049C25.1921 12.2406 25.2455 12.1073 25.36 12.0049Z" fill="#FFA2BA"/>
<path opacity="0.996" fill-rule="evenodd" clip-rule="evenodd" d="M16.48 12.3248C16.5944 12.4272 16.6478 12.5606 16.64 12.7248C16.5029 12.634 16.4496 12.5007 16.48 12.3248Z" fill="#FF9FB8"/>
<path opacity="0.89" fill-rule="evenodd" clip-rule="evenodd" d="M2.39977 12.4849C2.40617 12.7473 2.35281 12.9873 2.23977 13.2049C2.23337 12.9424 2.28673 12.7024 2.39977 12.4849Z" fill="#FFC0D3"/>
<path opacity="0.996" fill-rule="evenodd" clip-rule="evenodd" d="M25.0398 12.8049C25.0665 13.0442 24.9865 13.2309 24.7998 13.3649C24.8164 13.1457 24.8964 12.959 25.0398 12.8049Z" fill="#FD8AAA"/>
<path opacity="0.976" fill-rule="evenodd" clip-rule="evenodd" d="M16.9604 13.4449C17.0434 13.5593 17.0967 13.6927 17.1204 13.8449C16.9834 13.7541 16.93 13.6208 16.9604 13.4449Z" fill="#FFA7C0"/>
<path opacity="0.988" fill-rule="evenodd" clip-rule="evenodd" d="M24.8005 13.3649C24.8273 13.6041 24.7473 13.7908 24.5605 13.9249C24.5771 13.7056 24.6571 13.5189 24.8005 13.3649Z" fill="#FE93B1"/>
<path opacity="0.376" fill-rule="evenodd" clip-rule="evenodd" d="M18.4802 13.8448C18.5947 13.9472 18.6481 14.0806 18.6402 14.2448C18.5258 14.1424 18.4724 14.0091 18.4802 13.8448Z" fill="#FFD9E4"/>
<path opacity="0.357" fill-rule="evenodd" clip-rule="evenodd" d="M23.1998 13.9249C23.2077 14.0892 23.1543 14.2225 23.0398 14.3249C23.032 14.1607 23.0853 14.0273 23.1998 13.9249Z" fill="#FFDBE6"/>
<path opacity="0.98" fill-rule="evenodd" clip-rule="evenodd" d="M24.4803 14.0848C24.5107 14.2607 24.4574 14.394 24.3203 14.4848C24.344 14.3326 24.3974 14.1992 24.4803 14.0848Z" fill="#FFA5BE"/>
<path opacity="0.988" fill-rule="evenodd" clip-rule="evenodd" d="M17.7602 15.3649C17.8432 15.4793 17.8965 15.6126 17.9202 15.7649C17.7832 15.6741 17.7298 15.5407 17.7602 15.3649Z" fill="#FFA2BB"/>
<path fill-rule="evenodd" clip-rule="evenodd" d="M19.2002 15.6049C19.3932 15.6993 19.4732 15.8593 19.4402 16.0849C19.3196 15.9504 19.2396 15.7904 19.2002 15.6049Z" fill="#FE92AD"/>
<path opacity="0.992" fill-rule="evenodd" clip-rule="evenodd" d="M17.9204 15.7649C18.0349 15.8673 18.0882 16.0007 18.0804 16.1649C17.9433 16.0741 17.89 15.9407 17.9204 15.7649Z" fill="#FFA5BD"/>
<path opacity="0.525" fill-rule="evenodd" clip-rule="evenodd" d="M31.6006 14.0848C31.7207 14.7071 31.774 15.3471 31.7606 16.0048C31.7605 16.4457 31.7339 16.8724 31.6806 17.2848C31.6917 16.2168 31.6651 15.1502 31.6006 14.0848Z" fill="#FFD7E3"/>
<path opacity="0.988" fill-rule="evenodd" clip-rule="evenodd" d="M23.6805 16.0049C23.7109 16.1807 23.6575 16.3141 23.5205 16.4049C23.5442 16.2526 23.5975 16.1193 23.6805 16.0049Z" fill="#FEA0BA"/>
<path opacity="0.996" fill-rule="evenodd" clip-rule="evenodd" d="M23.5201 16.4049C23.5505 16.5807 23.4972 16.7141 23.3601 16.8049C23.3523 16.6407 23.4056 16.5073 23.5201 16.4049Z" fill="#FFA2BA"/>
<path opacity="0.333" fill-rule="evenodd" clip-rule="evenodd" d="M19.6804 16.7249C19.7949 16.8273 19.8483 16.9606 19.8404 17.1249C19.726 17.0225 19.6726 16.8891 19.6804 16.7249Z" fill="#FFDCE7"/>
<path opacity="0.973" fill-rule="evenodd" clip-rule="evenodd" d="M18.3999 16.8849C18.4828 16.9993 18.5362 17.1326 18.5599 17.2849C18.4228 17.1941 18.3695 17.0607 18.3999 16.8849Z" fill="#FFAEC4"/>
<path opacity="0.984" fill-rule="evenodd" clip-rule="evenodd" d="M23.3601 16.8049C23.3868 17.0442 23.3068 17.2309 23.1201 17.3649C23.1367 17.1457 23.2167 16.959 23.3601 16.8049Z" fill="#FE97B3"/>
<path opacity="0.192" fill-rule="evenodd" clip-rule="evenodd" d="M2.00021 16.8849C2.09917 17.3217 2.15253 17.775 2.16021 18.2449C2.03085 17.8116 1.97749 17.3582 2.00021 16.8849Z" fill="#FFD3E0"/>
<path opacity="0.984" fill-rule="evenodd" clip-rule="evenodd" d="M18.56 17.2849C18.643 17.3993 18.6964 17.5327 18.72 17.6849C18.583 17.5941 18.5296 17.4608 18.56 17.2849Z" fill="#FFA2BC"/>
<path opacity="0.392" fill-rule="evenodd" clip-rule="evenodd" d="M21.7604 17.3649C21.7682 17.5291 21.7148 17.6625 21.6004 17.7649C21.5925 17.6006 21.6459 17.4673 21.7604 17.3649Z" fill="#FFD6E2"/>
<path opacity="0.992" fill-rule="evenodd" clip-rule="evenodd" d="M23.1197 17.3649C23.1501 17.5407 23.0968 17.6741 22.9597 17.7649C22.9519 17.6006 23.0053 17.4673 23.1197 17.3649Z" fill="#FFA1BA"/>
<path opacity="0.984" fill-rule="evenodd" clip-rule="evenodd" d="M22.9597 17.7649C22.9864 18.0042 22.9064 18.1908 22.7197 18.3249C22.7363 18.1056 22.8163 17.919 22.9597 17.7649Z" fill="#FE95B2"/>
<path opacity="0.376" fill-rule="evenodd" clip-rule="evenodd" d="M21.36 18.3248C21.3678 18.4891 21.3145 18.6224 21.2 18.7248C21.1921 18.5606 21.2455 18.4272 21.36 18.3248Z" fill="#FFD9E4"/>
<path opacity="0.976" fill-rule="evenodd" clip-rule="evenodd" d="M22.6405 18.4849C22.6709 18.6607 22.6175 18.7941 22.4805 18.8849C22.5041 18.7326 22.5575 18.5993 22.6405 18.4849Z" fill="#FFA8C0"/>
<path opacity="0.133" fill-rule="evenodd" clip-rule="evenodd" d="M2.23977 18.8049C2.35281 19.0225 2.40617 19.2625 2.39977 19.5249C2.28673 19.3074 2.23337 19.0674 2.23977 18.8049Z" fill="#FFD7E3"/>
<path opacity="0.161" fill-rule="evenodd" clip-rule="evenodd" d="M20.9598 19.2849C20.9172 19.5217 20.8639 19.5484 20.7998 19.3649C20.8532 19.3383 20.9064 19.3116 20.9598 19.2849Z" fill="#FFD8E4"/>
<path opacity="0.106" fill-rule="evenodd" clip-rule="evenodd" d="M31.3601 19.2849C31.3534 19.6319 31.2734 19.9519 31.1201 20.2449C31.152 19.904 31.232 19.584 31.3601 19.2849Z" fill="#FFD3E0"/>
<path opacity="0.016" fill-rule="evenodd" clip-rule="evenodd" d="M2.48014 19.8448C2.59406 20.006 2.64734 20.1927 2.64014 20.4048C2.52622 20.2436 2.47294 20.057 2.48014 19.8448Z" fill="#FFDEE8"/>
<path opacity="0.988" fill-rule="evenodd" clip-rule="evenodd" d="M21.8397 20.4049C21.8701 20.5807 21.8167 20.7141 21.6797 20.8049C21.7034 20.6527 21.7567 20.5193 21.8397 20.4049Z" fill="#FFA1BB"/>
<path fill-rule="evenodd" clip-rule="evenodd" d="M31.0399 20.4849C31.0323 20.6677 30.979 20.8277 30.8799 20.9649C30.7668 20.7556 30.8201 20.5956 31.0399 20.4849Z" fill="#FC86A4"/>
<path opacity="0.996" fill-rule="evenodd" clip-rule="evenodd" d="M19.9201 20.5649C20.014 20.6461 20.0673 20.7527 20.0801 20.8849C19.946 20.8303 19.8926 20.7236 19.9201 20.5649Z" fill="#FFA0B9"/>
<path opacity="0.992" fill-rule="evenodd" clip-rule="evenodd" d="M21.6803 20.8049C21.7107 20.9808 21.6573 21.1141 21.5203 21.2049C21.5124 21.0407 21.5658 20.9073 21.6803 20.8049Z" fill="#FFA3BC"/>
<path opacity="0.145" fill-rule="evenodd" clip-rule="evenodd" d="M13.8398 20.8049C13.9619 20.8843 14.0153 21.0043 13.9998 21.1649C13.9987 21.2757 13.972 21.369 13.9198 21.4449C13.9278 21.226 13.901 21.0126 13.8398 20.8049Z" fill="#FEE1E9"/>
<path fill-rule="evenodd" clip-rule="evenodd" d="M2.95996 21.3649C3.16164 21.4873 3.24164 21.674 3.19996 21.9249C3.10108 21.7529 3.02108 21.5663 2.95996 21.3649Z" fill="#FE94AE"/>
<path opacity="0.984" fill-rule="evenodd" clip-rule="evenodd" d="M21.5203 21.2048C21.547 21.4441 21.467 21.6308 21.2803 21.7648C21.2968 21.5456 21.3768 21.3589 21.5203 21.2048Z" fill="#FE97B3"/>
<path opacity="0.306" fill-rule="evenodd" clip-rule="evenodd" d="M11.1201 21.5249C11.2148 21.6052 11.3214 21.6719 11.4401 21.7249C12.1329 21.7649 12.8263 21.7782 13.5201 21.7649C12.8142 21.8575 12.0942 21.8708 11.3601 21.8049C11.206 21.7711 11.126 21.6778 11.1201 21.5249Z" fill="#FFDEE8"/>
<path opacity="0.992" fill-rule="evenodd" clip-rule="evenodd" d="M21.2799 21.7649C21.3103 21.9407 21.2569 22.0741 21.1199 22.1649C21.1121 22.0007 21.1654 21.8673 21.2799 21.7649Z" fill="#FFA1BA"/>
<path opacity="0.263" fill-rule="evenodd" clip-rule="evenodd" d="M3.36013 22.2449C3.47461 22.3473 3.52797 22.4806 3.52013 22.6449C3.40565 22.5425 3.35229 22.4091 3.36013 22.2449Z" fill="#FFD5E2"/>
<path fill-rule="evenodd" clip-rule="evenodd" d="M19.6799 22.4049C19.6405 22.5904 19.5605 22.7504 19.4399 22.8849C19.4068 22.6593 19.4868 22.4993 19.6799 22.4049Z" fill="#FE96AF"/>
<path opacity="0.988" fill-rule="evenodd" clip-rule="evenodd" d="M3.67969 22.9648C3.80353 22.9905 3.85689 23.0705 3.83969 23.2048C3.76761 23.1416 3.71425 23.0616 3.67969 22.9648Z" fill="#FFA2BA"/>
<path fill-rule="evenodd" clip-rule="evenodd" d="M19.4402 22.9648C19.379 23.1663 19.299 23.3529 19.2002 23.5248C19.1585 23.274 19.2385 23.0872 19.4402 22.9648Z" fill="#FE95AF"/>
<path opacity="0.988" fill-rule="evenodd" clip-rule="evenodd" d="M4.24023 23.9249C4.39591 23.9677 4.47591 24.0744 4.48023 24.2449C4.36231 24.17 4.28231 24.0633 4.24023 23.9249Z" fill="#FFAAC1"/>
<path fill-rule="evenodd" clip-rule="evenodd" d="M20.4803 23.6849C20.5078 23.8436 20.4544 23.9503 20.3203 24.0049C20.3331 23.8727 20.3864 23.7661 20.4803 23.6849Z" fill="#FE9EB6"/>
<path opacity="0.357" fill-rule="evenodd" clip-rule="evenodd" d="M18.9606 24.0848C18.9684 24.2491 18.915 24.3824 18.8006 24.4848C18.7927 24.3206 18.8461 24.1872 18.9606 24.0848Z" fill="#FFD9E4"/>
<path opacity="0.988" fill-rule="evenodd" clip-rule="evenodd" d="M4.56055 24.4049C4.71623 24.4477 4.79623 24.5543 4.80055 24.7249C4.68263 24.65 4.60263 24.5433 4.56055 24.4049Z" fill="#FFACC2"/>
<path opacity="0.016" fill-rule="evenodd" clip-rule="evenodd" d="M29.2005 24.3248C29.2063 24.447 29.153 24.527 29.0405 24.5648C29.0346 24.4427 29.088 24.3627 29.2005 24.3248Z" fill="#FFE6ED"/>
<path opacity="0.996" fill-rule="evenodd" clip-rule="evenodd" d="M20.3201 24.0848C20.3468 24.3241 20.2668 24.5108 20.0801 24.6448C20.0966 24.4256 20.1766 24.2389 20.3201 24.0848Z" fill="#FD8FAD"/>
<path opacity="0.016" fill-rule="evenodd" clip-rule="evenodd" d="M4.80024 24.7249C4.91272 24.7627 4.96608 24.8427 4.96024 24.9649C4.84776 24.927 4.7944 24.847 4.80024 24.7249Z" fill="#FFE5EC"/>
<path opacity="0.031" fill-rule="evenodd" clip-rule="evenodd" d="M28.72 24.9648C28.7258 25.087 28.6725 25.167 28.56 25.2048C28.5542 25.0827 28.6075 25.0027 28.72 24.9648Z" fill="#FFDBE6"/>
<path opacity="0.016" fill-rule="evenodd" clip-rule="evenodd" d="M5.04047 25.0449C5.15295 25.0828 5.20631 25.1628 5.20047 25.2849C5.08799 25.2471 5.03463 25.1671 5.04047 25.0449Z" fill="#FFE8EE"/>
<path opacity="0.357" fill-rule="evenodd" clip-rule="evenodd" d="M18.5602 25.0449C18.568 25.2092 18.5146 25.3425 18.4002 25.4449C18.3923 25.2807 18.4457 25.1473 18.5602 25.0449Z" fill="#FFDAE5"/>
<path opacity="0.016" fill-rule="evenodd" clip-rule="evenodd" d="M28.4803 25.2849C28.4803 25.3916 28.427 25.4449 28.3203 25.4449C28.347 25.3649 28.4003 25.3116 28.4803 25.2849Z" fill="#FFE2EB"/>
<path opacity="0.992" fill-rule="evenodd" clip-rule="evenodd" d="M19.9197 25.0449C19.9464 25.2842 19.8664 25.4708 19.6797 25.6049C19.6962 25.3856 19.7762 25.199 19.9197 25.0449Z" fill="#FD8FAD"/>
<path opacity="0.016" fill-rule="evenodd" clip-rule="evenodd" d="M5.44043 25.5249C5.58139 25.5859 5.66139 25.6926 5.68043 25.8449C5.53947 25.7839 5.45947 25.6772 5.44043 25.5249Z" fill="#FFDBE5"/>
<path opacity="0.984" fill-rule="evenodd" clip-rule="evenodd" d="M19.6804 25.6049C19.7071 25.8441 19.6271 26.0308 19.4404 26.1649C19.457 25.9456 19.537 25.7589 19.6804 25.6049Z" fill="#FE96B3"/>
<path opacity="0.031" fill-rule="evenodd" clip-rule="evenodd" d="M27.9197 25.9249C27.9006 26.0772 27.8206 26.184 27.6797 26.2449C27.6987 26.0926 27.7787 25.9859 27.9197 25.9249Z" fill="#FFE2EA"/>
<path opacity="0.016" fill-rule="evenodd" clip-rule="evenodd" d="M6.16016 26.3248C6.2668 26.3782 6.3468 26.4582 6.40016 26.5648C6.24016 26.5648 6.16016 26.4848 6.16016 26.3248Z" fill="#FFE1EA"/>
<path fill-rule="evenodd" clip-rule="evenodd" d="M18.0006 26.4049C17.9123 26.7247 17.7791 27.018 17.6006 27.2849C17.6318 27.0063 17.7118 26.7396 17.8406 26.4849C17.8952 26.4559 17.9486 26.4292 18.0006 26.4049Z" fill="#FD8EAA"/>
<path opacity="0.016" fill-rule="evenodd" clip-rule="evenodd" d="M6.40039 26.5649C6.50703 26.6183 6.58703 26.6983 6.64039 26.8049C6.48039 26.8049 6.40039 26.7249 6.40039 26.5649Z" fill="#FFE2EB"/>
<path opacity="0.031" fill-rule="evenodd" clip-rule="evenodd" d="M27.0398 26.8848C27.002 26.9973 26.922 27.0507 26.7998 27.0448C26.8376 26.9324 26.9176 26.879 27.0398 26.8848Z" fill="#FFE2EA"/>
<path fill-rule="evenodd" clip-rule="evenodd" d="M19.2 26.8049C19.233 27.0305 19.153 27.1905 18.96 27.2849C18.9993 27.0994 19.0793 26.9394 19.2 26.8049Z" fill="#FC85A5"/>
<path opacity="0.875" fill-rule="evenodd" clip-rule="evenodd" d="M6.95996 27.1249C7.11228 27.1439 7.219 27.2239 7.27996 27.3649C7.12764 27.3458 7.02092 27.2658 6.95996 27.1249Z" fill="#FFBACF"/>
<path opacity="0.875" fill-rule="evenodd" clip-rule="evenodd" d="M7.44043 27.5249C7.59275 27.5439 7.69947 27.6239 7.76043 27.7649C7.60811 27.7459 7.50139 27.6659 7.44043 27.5249Z" fill="#FFC1D3"/>
<path opacity="0.945" fill-rule="evenodd" clip-rule="evenodd" d="M7.75977 27.7649C7.91209 27.7839 8.01881 27.8639 8.07977 28.0049C7.92745 27.9859 7.82073 27.9059 7.75977 27.7649Z" fill="#FFB3C9"/>
<path opacity="0.788" fill-rule="evenodd" clip-rule="evenodd" d="M8.08008 28.0049C8.2324 28.0239 8.33912 28.1039 8.40008 28.2449C8.24776 28.2258 8.14104 28.1458 8.08008 28.0049Z" fill="#FFB8CD"/>
<path opacity="0.333" fill-rule="evenodd" clip-rule="evenodd" d="M17.36 27.9249C17.3678 28.0892 17.3145 28.2225 17.2 28.3249C17.1921 28.1607 17.2455 28.0273 17.36 27.9249Z" fill="#FFDDE7"/>
<path opacity="0.525" fill-rule="evenodd" clip-rule="evenodd" d="M8.40039 28.2449C8.52255 28.2391 8.60255 28.2925 8.64039 28.4049C8.51823 28.4108 8.43823 28.3574 8.40039 28.2449Z" fill="#FFCBDA"/>
<path opacity="0.016" fill-rule="evenodd" clip-rule="evenodd" d="M25.2 28.3249C25.1621 28.4374 25.0821 28.4907 24.96 28.4849C24.9978 28.3724 25.0778 28.3191 25.2 28.3249Z" fill="#FFE9EF"/>
<path opacity="0.478" fill-rule="evenodd" clip-rule="evenodd" d="M8.64062 28.4049C8.76278 28.399 8.84278 28.4524 8.88062 28.5649C8.75847 28.5707 8.67846 28.5173 8.64062 28.4049Z" fill="#FFCFDD"/>
<path opacity="0.984" fill-rule="evenodd" clip-rule="evenodd" d="M18.5604 28.2449C18.5908 28.4207 18.5374 28.5541 18.4004 28.6449C18.4241 28.4926 18.4774 28.3593 18.5604 28.2449Z" fill="#FFA4BD"/>
<path opacity="0.333" fill-rule="evenodd" clip-rule="evenodd" d="M8.87988 28.5649C9.00204 28.559 9.08204 28.6124 9.11988 28.7249C8.99772 28.7307 8.91772 28.6774 8.87988 28.5649Z" fill="#FFDBE5"/>
<path opacity="0.306" fill-rule="evenodd" clip-rule="evenodd" d="M9.28027 28.8049C9.40243 28.799 9.48243 28.8524 9.52027 28.9649C9.39811 28.9707 9.31811 28.9174 9.28027 28.8049Z" fill="#FFDBE6"/>
<path opacity="0.992" fill-rule="evenodd" clip-rule="evenodd" d="M18.4 28.6449C18.4304 28.8207 18.3771 28.9541 18.24 29.0449C18.2322 28.8807 18.2855 28.7473 18.4 28.6449Z" fill="#FFA5BD"/>
<path opacity="0.016" fill-rule="evenodd" clip-rule="evenodd" d="M23.9998 29.0449C23.9619 29.1573 23.8819 29.2107 23.7598 29.2049C23.7976 29.0924 23.8776 29.039 23.9998 29.0449Z" fill="#FFEBF1"/>
<path opacity="0.984" fill-rule="evenodd" clip-rule="evenodd" d="M18.24 29.0449C18.2667 29.2842 18.1867 29.4708 18 29.6049C18.0166 29.3856 18.0966 29.199 18.24 29.0449Z" fill="#FE99B5"/>
<path opacity="0.212" fill-rule="evenodd" clip-rule="evenodd" d="M23.1999 29.4449C23.1369 29.5733 23.0303 29.6266 22.8799 29.6049C22.961 29.511 23.0676 29.4577 23.1999 29.4449Z" fill="#FFDDE7"/>
<path opacity="0.212" fill-rule="evenodd" clip-rule="evenodd" d="M22.7203 29.6848C22.6179 29.7993 22.4846 29.8527 22.3203 29.8448C22.4227 29.7304 22.5561 29.677 22.7203 29.6848Z" fill="#FFDEE7"/>
<path opacity="0.992" fill-rule="evenodd" clip-rule="evenodd" d="M18.0006 29.6049C18.031 29.7807 17.9776 29.9141 17.8406 30.0049C17.8328 29.8406 17.8861 29.7073 18.0006 29.6049Z" fill="#FFA4BC"/>
<path opacity="0.976" fill-rule="evenodd" clip-rule="evenodd" d="M11.6006 29.9249C11.7764 29.8945 11.9098 29.9479 12.0006 30.0849C11.8363 30.0927 11.703 30.0394 11.6006 29.9249Z" fill="#FFAEC4"/>
<path opacity="0.984" fill-rule="evenodd" clip-rule="evenodd" d="M12.0801 30.0848C12.373 30.1027 12.6397 30.1827 12.8801 30.3248C12.5871 30.307 12.3205 30.227 12.0801 30.0848Z" fill="#FE9DB9"/>
<path opacity="0.031" fill-rule="evenodd" clip-rule="evenodd" d="M21.4399 30.1648C21.2787 30.2787 21.092 30.332 20.8799 30.3248C21.0411 30.2109 21.2277 30.1576 21.4399 30.1648Z" fill="#FFE4EB"/>
<path opacity="0.957" fill-rule="evenodd" clip-rule="evenodd" d="M12.8799 30.3249C13.0717 30.3056 13.2317 30.359 13.3599 30.4849C13.177 30.4773 13.017 30.4239 12.8799 30.3249Z" fill="#FFADC5"/>
<path opacity="0.051" fill-rule="evenodd" clip-rule="evenodd" d="M20.56 30.4049C20.3988 30.5189 20.2122 30.5721 20 30.5649C20.1612 30.451 20.3478 30.3977 20.56 30.4049Z" fill="#FEE9EF"/>
<path opacity="0.553" fill-rule="evenodd" clip-rule="evenodd" d="M17.6004 30.5649C17.6004 30.6449 17.6004 30.7249 17.6004 30.8049C17.7871 30.8049 17.9738 30.8049 18.1604 30.8049C17.9361 30.896 17.6961 30.9093 17.4404 30.8449C17.4872 30.7408 17.5405 30.6474 17.6004 30.5649Z" fill="#FFD7E3"/>
</svg>
