<svg width="32" height="32" viewBox="0 0 33 32" fill="none" xmlns="http://www.w3.org/2000/svg">
    <path fill-rule="evenodd" clip-rule="evenodd"
        d="M0.89209 0C11.5588 0 22.2254 0 32.8921 0C32.8921 10.6667 32.8921 21.3333 32.8921 32C22.2254 32 11.5588 32 0.89209 32C0.89209 21.3333 0.89209 10.6667 0.89209 0Z"
        fill="#FAFAFA" />
    <path fill-rule="evenodd" clip-rule="evenodd"
        d="M15.0799 3.9612C15.2439 5.43884 15.6503 6.81026 16.2989 8.07548C16.2989 8.22786 16.2989 8.38025 16.2989 8.53263C13.9864 8.48249 11.7007 8.53324 9.44179 8.68501C9.39105 8.68501 9.34016 8.68501 9.28941 8.68501C9.13703 8.68501 8.98465 8.68501 8.83227 8.68501C8.10907 6.76912 7.44865 4.83891 6.85132 2.89453C9.54343 2.89453 12.2354 2.89453 14.9275 2.89453C14.954 3.2543 15.0048 3.60981 15.0799 3.9612Z"
        fill="#9123FC" />
    <path fill-rule="evenodd" clip-rule="evenodd"
        d="M24.0704 28.7993C21.3393 28.9495 18.5964 29.0003 15.8418 28.9517C15.07 26.8901 14.3589 24.8075 13.7085 22.7041C15.7877 22.8676 17.8703 22.893 19.9561 22.7802C20.1876 22.5744 20.3907 22.3458 20.5656 22.0945C20.3514 21.5047 20.1483 21.5047 19.9561 22.0945C19.9561 21.9421 19.9561 21.7898 19.9561 21.6374C19.9561 21.5357 19.9561 21.4343 19.9561 21.3326C21.5537 15.1972 23.1791 9.05118 24.8323 2.89453C27.2704 2.89453 29.7085 2.89453 32.1466 2.89453C31.8842 4.06375 31.6047 5.2319 31.3085 6.39929C28.8669 13.8596 26.4542 21.3262 24.0704 28.7993Z"
        fill="#222B52" />
    <path fill-rule="evenodd" clip-rule="evenodd"
        d="M15.0801 3.96191C15.6018 5.28458 16.0082 6.65601 16.2991 8.0762C15.6504 6.81098 15.244 5.43955 15.0801 3.96191Z"
        fill="#9123FC" />
    <path fill-rule="evenodd" clip-rule="evenodd"
        d="M16.299 8.07617C16.4414 8.23891 16.4923 8.44204 16.4514 8.6857C14.115 8.6857 11.7784 8.6857 9.44189 8.6857C11.7008 8.53392 13.9865 8.48318 16.299 8.53331C16.299 8.38093 16.299 8.22855 16.299 8.07617Z"
        fill="#8735D7" />
    <path fill-rule="evenodd" clip-rule="evenodd"
        d="M9.28958 8.68555C9.34032 8.68555 9.39122 8.68555 9.44196 8.68555C11.7784 8.68555 14.115 8.68555 16.4515 8.68555C14.0855 8.73705 11.7489 8.88943 9.44196 9.14269C9.30421 9.03465 9.25347 8.88227 9.28958 8.68555Z"
        fill="#9123FC" />
    <path fill-rule="evenodd" clip-rule="evenodd"
        d="M8.83232 8.68555C8.9847 8.68555 9.13708 8.68555 9.28946 8.68555C9.25334 8.88227 9.30409 9.03465 9.44184 9.14269C10.0075 10.9548 10.5154 12.7834 10.9656 14.6284C8.63452 14.9307 6.24732 15.0324 3.80374 14.9332C3.20595 12.8006 2.49479 10.7182 1.67041 8.68555C4.05776 8.68555 6.44496 8.68555 8.83232 8.68555Z"
        fill="#C727FC" />
    <path fill-rule="evenodd" clip-rule="evenodd"
        d="M10.9656 14.6279C13.394 14.8772 15.8321 15.0296 18.2799 15.0851C15.8659 15.0348 13.4785 15.0857 11.118 15.2375C8.66497 15.1379 6.22687 15.0365 3.80371 14.9327C6.24729 15.0319 8.63449 14.9303 10.9656 14.6279Z"
        fill="#9123FC" />
    <path fill-rule="evenodd" clip-rule="evenodd"
        d="M18.2801 15.0852C18.7534 16.2532 19.109 17.4722 19.3467 18.7423C19.3601 19.5097 19.4363 20.2716 19.5753 21.028C19.5939 21.3232 19.7208 21.5263 19.9563 21.6375C19.9563 21.7899 19.9563 21.9423 19.9563 22.0947C17.8229 22.0947 15.6896 22.0947 13.5563 22.0947C12.6889 19.8493 11.8761 17.5636 11.1182 15.2375C13.4787 15.0858 15.866 15.0349 18.2801 15.0852Z"
        fill="#8F24FA" />
    <path fill-rule="evenodd" clip-rule="evenodd"
        d="M19.3467 18.7422C19.6656 19.5617 19.8689 20.4252 19.9562 21.3327C19.9562 21.4343 19.9562 21.5358 19.9562 21.6374C19.7208 21.5262 19.5938 21.3231 19.5753 21.0279C19.4363 20.2715 19.3601 19.5096 19.3467 18.7422Z"
        fill="#9123FC" />
    <path fill-rule="evenodd" clip-rule="evenodd"
        d="M13.5562 22.2475C15.6919 22.1968 17.8253 22.2477 19.9562 22.3999C17.8762 22.5521 15.7936 22.603 13.7085 22.5523C13.6578 22.4506 13.6069 22.3492 13.5562 22.2475Z"
        fill="#1C3044" />
    <path fill-rule="evenodd" clip-rule="evenodd"
        d="M13.7085 22.7052C13.7085 22.6545 13.7085 22.6036 13.7085 22.5529C15.7936 22.6036 17.8762 22.5527 19.9562 22.4005C17.8253 22.2483 15.6919 22.1974 13.5562 22.2481C13.5562 22.1974 13.5562 22.1465 13.5562 22.0957C15.6895 22.0957 17.8228 22.0957 19.9562 22.0957C20.1483 21.5059 20.3514 21.5059 20.5657 22.0957C20.3907 22.347 20.1876 22.5756 19.9562 22.7814C17.8704 22.8942 15.7878 22.8687 13.7085 22.7052Z"
        fill="#24235A" />
    <path fill-rule="evenodd" clip-rule="evenodd"
        d="M24.0704 28.7998C22.7536 29.0028 21.3822 29.1043 19.9561 29.1046C18.5583 29.1046 17.1869 29.0537 15.8418 28.9522C18.5964 29.0008 21.3392 28.9501 24.0704 28.7998Z"
        fill="#222B52" />
</svg>