<svg width="32" height="32" viewBox="0 0 32 32" fill="none" xmlns="http://www.w3.org/2000/svg">
    <path
        d="M1.61069 0H30.3893C30.8319 0.0368119 31.2499 0.457037 31.5516 1.16863C31.8533 1.88023 32.0142 2.8252 31.999 3.79656V28.2034C32.0142 29.1748 31.8533 30.1198 31.5516 30.8314C31.2499 31.543 30.8319 31.9632 30.3893 32H1.61069C1.16806 31.9632 0.750124 31.543 0.448413 30.8314C0.146703 30.1198 -0.0141868 29.1748 0.000983167 28.2034V3.79656C-0.0141868 2.8252 0.146703 1.88023 0.448413 1.16863C0.750124 0.457037 1.16806 0.0368119 1.61069 0Z"
        fill="black" />
    <path
        d="M22.2774 2.67176H19.6428C19.3685 2.66514 19.1025 2.76579 18.9013 2.9523C18.7001 3.1388 18.5796 3.39645 18.5654 3.67043L15.8894 21.0331C15.886 21.0891 15.8614 21.1417 15.8205 21.1801C15.7796 21.2185 15.7255 21.2399 15.6694 21.2398C15.6133 21.2399 15.5593 21.2185 15.5184 21.1801C15.4775 21.1417 15.4528 21.0891 15.4494 21.0331L12.9348 3.66509C12.9193 3.39205 12.7982 3.13575 12.5971 2.95037C12.3961 2.765 12.1308 2.66509 11.8574 2.67176H9.22277C9.04527 2.66144 8.86777 2.69215 8.70406 2.76152C8.54035 2.83089 8.39482 2.93704 8.27877 3.07175C8.16289 3.20689 8.07974 3.36695 8.0358 3.53946C7.99187 3.71198 7.98832 3.89231 8.02544 4.06642L12.0974 28.3784C12.1201 28.6354 12.2405 28.8738 12.4337 29.0447C12.6269 29.2156 12.8783 29.3059 13.1361 29.2971H18.2854C18.5396 29.2929 18.784 29.198 18.9744 29.0296C19.1649 28.8611 19.2889 28.6302 19.3241 28.3784L23.4761 4.06509C23.5092 3.89096 23.5023 3.7116 23.4562 3.54048C23.41 3.36936 23.3256 3.21093 23.2094 3.07708C23.0947 2.94306 22.9511 2.83666 22.7895 2.76579C22.6279 2.69492 22.4524 2.66141 22.2761 2.66775L22.2774 2.67176Z"
        fill="white" />
</svg>