<svg width="32" height="32" viewBox="0 0 33 33" fill="none" xmlns="http://www.w3.org/2000/svg">
    <path
        d="M5.05566 11.434C5.13384 11.5964 5.2527 11.7327 5.39917 11.8279C5.54563 11.9231 5.71399 11.9735 5.88571 11.9736C6.0299 11.9782 6.17302 11.946 6.30312 11.8799C9.79033 10.0315 13.4831 8.65782 17.2941 7.79121C17.4146 7.7652 17.5291 7.714 17.6308 7.64059C17.7325 7.56718 17.8195 7.47303 17.8866 7.3636C17.9538 7.25418 17.9998 7.13167 18.022 7.00319C18.0441 6.87472 18.042 6.74284 18.0158 6.61524C17.9896 6.48763 17.9397 6.36684 17.8691 6.25989C17.7985 6.15293 17.7086 6.06195 17.6046 5.99223C17.5006 5.9225 17.3846 5.87544 17.2633 5.85376C17.1421 5.83208 17.0179 5.83622 16.8982 5.86595C12.9338 6.76275 9.09185 8.18757 5.46353 10.1066C5.24382 10.2253 5.07745 10.4318 5.00098 10.6807C4.9245 10.9296 4.94417 11.2005 5.05566 11.434Z"
        fill="#FCCA46" />
    <path
        d="M13.5067 22.0432H13.521C17.0606 21.5061 20.1471 20.6575 22.7422 19.5302C26.3868 17.9596 29.1083 15.7886 30.8304 13.1084C32.2775 10.8621 33.028 8.19192 32.9771 5.47069C32.9711 4.25764 32.7958 3.05224 32.4571 1.89375C32.398 1.71514 32.2916 1.55845 32.1507 1.44251C32.0098 1.32657 31.8404 1.25631 31.6628 1.24017C29.7357 1.04593 27.8001 0.961366 25.8644 0.986848H25.7595C23.5836 1.01543 21.4115 1.18462 19.255 1.4935C16.0151 1.9661 12.8246 2.76341 9.72615 3.87475C4.49541 5.74935 1.52107 7.83927 1.39704 7.92794C1.25514 8.02778 1.14168 8.16695 1.06894 8.33039C0.996203 8.49382 0.966965 8.67528 0.984396 8.85511C1.37412 11.9061 2.06485 14.905 3.04521 17.8025C3.5448 19.3047 4.13845 20.7696 4.82218 22.1876L4.84365 22.2357C5.33328 23.2477 5.88133 24.2265 6.48466 25.1667C7.29604 26.4416 8.23579 27.619 9.28727 28.6777L9.34929 28.7385C10.281 29.6628 11.3169 30.4609 12.4333 31.1147C14.5829 32.3638 16.9981 33.0066 19.4482 32.9817C22.6325 32.9817 26.1268 32.0014 29.8954 30.0457C30.0888 29.9433 30.2425 29.7723 30.3296 29.5622C30.4167 29.3521 30.4319 29.1163 30.3724 28.8956C30.3343 28.7512 29.4183 25.3339 26.8209 24.3814C25.2347 23.7987 23.4554 24.2623 21.5329 25.7594C19.3051 27.4973 16.9199 28.4143 14.6277 28.4143H14.5514C12.7148 28.3966 11.2813 27.7886 10.5777 27.2541C9.25544 25.9054 8.1192 24.3652 7.20261 22.679C9.42879 22.5608 11.5143 22.3505 13.459 22.0482C13.475 22.0478 13.4909 22.0461 13.5067 22.0432ZM23.3552 13.2554C21.3922 16.6499 17.9599 18.9552 13.1561 20.0951C10.8599 20.4373 8.54885 20.6546 6.23183 20.7462C5.69335 19.587 5.21558 18.3971 4.80071 17.1819C3.94124 14.6051 3.30961 11.9489 2.91402 9.24776C5.28624 7.80448 7.79096 6.62208 10.3892 5.71895C15.1312 4.04486 20.0796 3.12213 25.0749 2.98051C25.3301 4.73858 25.6784 9.23763 23.3552 13.2554Z"
        fill="#FCCA46" />
</svg>