<svg width="32" height="32" viewBox="0 0 32 32" fill="none" xmlns="http://www.w3.org/2000/svg">
<path d="M6 10.0028H22V26.0073C22 26.7986 21.8489 27.5721 21.5467 28.3012C21.2444 29.0303 20.8 29.6883 20.2489 30.2484C19.6889 30.8086 19.0311 31.2443 18.3022 31.5466C17.5733 31.8489 16.7911 32 16.0089 32H6C5.20889 32 4.43556 31.8489 3.70667 31.5466C2.97778 31.2443 2.32 30.7997 1.76 30.2484C1.2 29.6883 0.764444 29.0303 0.462222 28.3012C0.151111 27.5721 0 26.7986 0 26.0073V16.0045C0 15.2131 0.151111 14.4396 0.453333 13.7105C0.755556 12.9814 1.2 12.3235 1.75111 11.7633C2.31111 11.2031 2.96889 10.7675 3.69778 10.4652C4.42667 10.1629 5.20889 10.0117 5.99111 10.0117L6 10.0028Z" fill="url(#paint0_linear_152_3084)"/>
<path d="M24.9956 14.0039H18V7.00639C18 5.61934 18.4089 4.26785 19.1822 3.11198C19.9556 1.96499 21.0489 1.06696 22.32 0.533482C23.6 0 25.0044 -0.13337 26.3644 0.13337C27.7244 0.400111 28.9689 1.06696 29.9467 2.0539C30.9244 3.03195 31.5911 4.27674 31.8667 5.63712C32.1333 6.9975 32 8.40233 31.4667 9.68269C30.9333 10.963 30.0356 12.0567 28.8889 12.8213C27.7333 13.5949 26.3822 14.0039 24.9956 14.0039Z" fill="#09A2DD"/>
<path d="M23.0044 6.00159C23.2711 6.00159 23.5289 6.10828 23.7156 6.295C23.9022 6.48172 24.0089 6.73957 24.0089 7.00631C24.0089 7.27305 23.9022 7.5309 23.7156 7.71762C23.5289 7.90434 23.2711 8.01103 23.0044 8.01103C22.7378 8.01103 22.48 7.90434 22.2933 7.71762C22.1067 7.5309 22 7.27305 22 7.00631C22 6.73957 22.1067 6.48172 22.2933 6.295C22.48 6.10828 22.7378 6.00159 23.0044 6.00159Z" fill="white"/>
<path d="M26.9966 6.00159C27.2633 6.00159 27.5211 6.10828 27.7077 6.295C27.8944 6.48172 28.0011 6.73957 28.0011 7.00631C28.0011 7.27305 27.8944 7.5309 27.7077 7.71762C27.5211 7.90434 27.2633 8.01103 26.9966 8.01103C26.73 8.01103 26.4722 7.90434 26.2855 7.71762C26.0989 7.5309 25.9922 7.27305 25.9922 7.00631C25.9922 6.73957 26.0989 6.48172 26.2855 6.295C26.4722 6.10828 26.73 6.00159 26.9966 6.00159Z" fill="white"/>
<defs>
<linearGradient id="paint0_linear_152_3084" x1="4.048" y1="11.9826" x2="19.5779" y2="28.6144" gradientUnits="userSpaceOnUse">
<stop stop-color="#E91476"/>
<stop offset="1" stop-color="#F82D38"/>
</linearGradient>
</defs>
</svg>
