<svg width="32" height="32" viewBox="0 0 32 32" fill="none" xmlns="http://www.w3.org/2000/svg">
    <g clip-path="url(#clip0_3393_398)">
        <path fill-rule="evenodd" clip-rule="evenodd"
            d="M-0.0268555 -0.0263672C10.6398 -0.0263672 21.3065 -0.0263672 31.9731 -0.0263672C31.9731 10.6403 31.9731 21.307 31.9731 31.9736C21.3065 31.9736 10.6398 31.9736 -0.0268555 31.9736C-0.0268555 21.307 -0.0268555 10.6403 -0.0268555 -0.0263672Z"
            fill="black" />
        <path fill-rule="evenodd" clip-rule="evenodd"
            d="M8.77331 23.1732C13.9108 23.2797 19.0663 23.3153 24.24 23.2798C24.9199 23.5506 25.0888 24.0128 24.7466 24.6665C24.6102 24.8282 24.4413 24.9437 24.24 25.0132C18.7111 25.0488 13.1822 25.0488 7.65331 25.0132C7.32579 24.899 7.1036 24.6768 6.98664 24.3465C6.95107 18.7821 6.95107 13.2176 6.98664 7.65318C7.27592 6.97601 7.74701 6.80715 8.39997 7.14651C8.56227 7.28481 8.67784 7.45371 8.74664 7.65318C8.77331 12.8265 8.78221 17.9998 8.77331 23.1732Z"
            fill="#FBFBFB" />
        <path fill-rule="evenodd" clip-rule="evenodd"
            d="M13.9465 12.4533C14.071 12.4533 14.1955 12.4533 14.3199 12.4533C14.4094 12.4742 14.4983 12.5008 14.5865 12.5333C15.6436 13.5458 16.6925 14.568 17.7332 15.5999C19.0776 14.2822 20.4109 12.9578 21.7332 11.6266C22.2123 11.3944 22.63 11.4744 22.9865 11.8666C23.0325 11.9512 23.0681 12.0402 23.0932 12.1333C23.1288 15.0133 23.1288 17.8933 23.0932 20.7733C22.9955 21.0844 22.791 21.2888 22.4799 21.3866C18.7288 21.4222 14.9776 21.4222 11.2265 21.3866C10.8621 21.3066 10.6399 21.0844 10.5599 20.7199C10.5243 19.0488 10.5243 17.3777 10.5599 15.7066C10.5955 15.6355 10.631 15.5644 10.6665 15.4933C11.6695 14.5437 12.6561 13.5748 13.6265 12.5866C13.7181 12.5035 13.8248 12.459 13.9465 12.4533Z"
            fill="#FEFEFE" />
        <path fill-rule="evenodd" clip-rule="evenodd"
            d="M21.3599 19.5469C18.3732 19.5469 15.3866 19.5469 12.3999 19.5469C12.3999 18.498 12.3999 17.4492 12.3999 16.4002C12.9474 15.7727 13.5251 15.1682 14.1332 14.5869C15.0843 15.6092 16.071 16.5958 17.0932 17.5469C17.4616 17.8196 17.8527 17.8551 18.2666 17.6536C19.2917 16.6285 20.3139 15.6063 21.3332 14.5869C21.3599 16.2401 21.3688 17.8935 21.3599 19.5469Z"
            fill="black" />
    </g>
    <defs>
        <clipPath id="clip0_3393_398">
            <rect width="32" height="32" fill="white" />
        </clipPath>
    </defs>
</svg>