<svg width="32" height="32" viewBox="0 0 32 32" fill="none" xmlns="http://www.w3.org/2000/svg">
    <path
        d="M29.5977 7.89821L29.5799 7.87907C29.5687 7.86893 29.557 7.86048 29.5448 7.85147C29.5203 7.82781 29.4936 7.80698 29.4652 7.78839L16.2938 0.0825768C16.2598 0.0640704 16.224 0.0491605 16.1869 0.0380833L16.1558 0.0251296L16.1329 0.0194975C16.0612 -0.00041404 15.9863 -0.00513913 15.9127 0.00561817C15.8391 0.0163755 15.7685 0.0423835 15.7053 0.0820135L2.53457 7.78839C2.45747 7.83464 2.39268 7.89921 2.34582 7.9765L2.32634 8.00353C2.32077 8.01311 2.3152 8.03001 2.30908 8.04296C2.2683 8.12174 2.24655 8.20917 2.24561 8.29809V23.7108C2.24744 23.7332 2.2506 23.7554 2.25507 23.7773C2.26454 23.9643 2.37032 24.1321 2.53345 24.22L15.7048 31.9252C15.9069 32.0249 16.1435 32.0249 16.3456 31.9252L29.3789 24.251C29.6027 24.1665 29.7519 23.9519 29.7541 23.7103V8.29809C29.7586 8.14884 29.7018 8.0041 29.5977 7.89821ZM3.41481 22.6864V9.32088L14.834 16.0039L3.41481 22.6864ZM17.1886 15.9904L28.5872 9.32088V22.6869L24.4421 20.2618L17.1886 15.9904ZM16.5828 14.9811V1.61507L28.0053 8.29809L16.5828 14.9811ZM15.4136 14.9811L3.9944 8.29809L15.4164 1.61507L15.4136 14.9811ZM15.4136 17.0273V30.3927L3.9944 23.7108L15.4136 17.0273ZM16.6324 17.0577L23.8519 21.2817L27.9786 23.7108L16.6346 30.3894L16.6324 17.0577Z"
        fill="url(#paint0_linear_3758_581)" />
    <defs>
        <linearGradient id="paint0_linear_3758_581" x1="5.18904" y1="26.944" x2="29.5511"
            y2="8.71892" gradientUnits="userSpaceOnUse">
            <stop stop-color="#F2662E" />
            <stop offset="1" stop-color="#EF4177" />
        </linearGradient>
    </defs>
</svg>