<svg width="32" height="32" viewBox="0 0 32 32" fill="none" xmlns="http://www.w3.org/2000/svg">
<path d="M8 2.66675L4 8.00008V26.6667C4 27.374 4.28095 28.0523 4.78105 28.5524C5.28115 29.0525 5.95942 29.3334 6.66667 29.3334H25.3333C26.0406 29.3334 26.7189 29.0525 27.219 28.5524C27.719 28.0523 28 27.374 28 26.6667V8.00008L24 2.66675H8Z" stroke="#00C8F4" stroke-width="2" stroke-linecap="round" stroke-linejoin="round"/>
<path d="M4 8H28" stroke="#00C8F4" stroke-width="2" stroke-linecap="round" stroke-linejoin="round"/>
<path d="M21.3337 13.3333C21.3337 14.7477 20.7718 16.1043 19.7716 17.1045C18.7714 18.1047 17.4148 18.6666 16.0003 18.6666C14.5858 18.6666 13.2293 18.1047 12.2291 17.1045C11.2289 16.1043 10.667 14.7477 10.667 13.3333" stroke="#00C8F4" stroke-width="2" stroke-linecap="round" stroke-linejoin="round"/>
</svg>
