<svg width="32" height="32" viewBox="0 0 33 33" fill="none" xmlns="http://www.w3.org/2000/svg">
    <path fill-rule="evenodd" clip-rule="evenodd"
        d="M0.928955 0.928955C11.5956 0.928955 22.2623 0.928955 32.929 0.928955C32.929 11.5956 32.929 22.2623 32.929 32.929C22.2623 32.929 11.5956 32.929 0.928955 32.929C0.928955 22.2623 0.928955 11.5956 0.928955 0.928955Z"
        fill="#FAFAFA" />
    <path opacity="0.923" fill-rule="evenodd" clip-rule="evenodd"
        d="M17.6038 32.7489C17.4745 32.7489 17.3453 32.7489 17.216 32.7489C16.2722 32.3699 15.6256 31.6912 15.2766 30.7125C15.3698 29.9729 15.7577 29.4558 16.4402 29.161C15.5541 28.6682 15.2632 27.9247 15.5675 26.9307C15.8299 26.7009 16.0562 26.4422 16.2463 26.155C15.212 25.1207 15.212 24.0862 16.2463 23.0519C15.1571 21.8914 15.2864 20.8893 16.6341 20.0459C16.1204 19.6927 15.7971 19.2079 15.6644 18.5913C16.0149 17.9229 16.3382 17.2441 16.6341 16.555C16.4472 13.3597 16.3826 10.1597 16.4402 6.95496C13.2094 7.15179 9.97697 7.24876 6.74322 7.24587C6.10555 5.6365 6.00858 3.98802 6.45231 2.30042C6.5425 2.02293 6.70424 1.79666 6.93716 1.62163C9.6849 1.76377 12.4324 1.99003 15.1796 2.30042C15.8605 2.18248 16.5393 2.05319 17.216 1.91254C17.8327 2.02942 18.4469 2.15872 19.0584 2.30042C22.2008 2.06447 25.3362 1.80589 28.4644 1.52466C28.7164 1.63908 28.8779 1.83302 28.9493 2.10648C29.361 3.79912 29.3288 5.47992 28.8523 7.1489C25.3133 7.26045 21.7902 7.26045 18.2826 7.1489C18.218 10.2519 18.1533 13.355 18.0887 16.458C18.0241 16.7812 17.9593 17.1045 17.8947 17.4277C17.6009 17.8499 17.31 18.2701 17.022 18.6883C17.4976 19.2369 18.047 19.7217 18.6705 20.1428C18.822 20.4229 18.7896 20.6814 18.5735 20.9186C17.9093 21.0332 17.3275 21.2919 16.8281 21.6944C17.324 22.2209 17.9058 22.6412 18.5735 22.955C18.832 23.2783 18.832 23.6014 18.5735 23.9247C17.8936 23.9989 17.3118 24.2577 16.8281 24.7004C17.4745 25.2822 18.1211 25.8641 18.7675 26.4459C18.7172 26.6904 18.5879 26.8844 18.3796 27.0277C17.9184 27.1268 17.4657 27.2562 17.022 27.4156C16.9208 27.5244 16.8562 27.6537 16.8281 27.8034C17.5325 28.3135 18.1789 28.8953 18.7675 29.5489C18.7393 29.6986 18.6748 29.828 18.5735 29.9368C17.9512 30.1486 17.337 30.3749 16.7311 30.6156C16.6017 30.9389 16.6017 31.262 16.7311 31.5853C17.0003 32.0123 17.2912 32.4002 17.6038 32.7489Z"
        fill="#24285E" />
</svg>