<svg width="32" height="32" viewBox="0 0 32 32" fill="none" xmlns="http://www.w3.org/2000/svg">
    <path fill-rule="evenodd" clip-rule="evenodd"
        d="M27.2359 2.00503C27.7774 2.06074 28.295 2.1892 28.7889 2.39053C28.8379 2.52603 28.9414 2.59032 29.0995 2.58328C30.2645 3.21772 31.0928 4.11728 31.5843 5.28178C31.6285 5.52368 31.6974 5.74852 31.7913 5.9564C31.9433 6.36522 32.0123 6.79891 31.9984 7.25746C32 7.79697 31.9309 8.32703 31.7913 8.84765C31.5938 8.94267 31.4903 9.10323 31.4807 9.32952C31.4807 9.36162 31.4807 9.3938 31.4807 9.4259C31.3001 9.57364 31.1965 9.76639 31.1701 10.0041C30.989 10.1158 30.8854 10.2765 30.8595 10.486C30.714 10.5316 30.6449 10.628 30.6525 10.7751C30.5657 10.8081 30.5311 10.8723 30.5489 10.9679C30.4034 11.0135 30.3343 11.1099 30.3419 11.257C30.2203 11.3547 30.1514 11.4832 30.1348 11.6425C29.9536 11.7542 29.8501 11.9149 29.8242 12.1244C29.608 12.3013 29.47 12.5262 29.4101 12.799C29.2346 12.9951 29.0966 13.22 28.996 13.4736C28.8504 13.5192 28.7813 13.6156 28.7889 13.7628C28.3128 14.4887 27.8641 15.2275 27.443 15.9794C27.2974 16.025 27.2283 16.1213 27.2359 16.2685C27.1143 16.3662 27.0454 16.4947 27.0288 16.654C26.8833 16.6996 26.8142 16.796 26.8218 16.9431C26.735 16.9761 26.7004 17.0403 26.7182 17.1359C26.5371 17.2476 26.4335 17.4082 26.4076 17.6178C26.3209 17.6507 26.2863 17.7149 26.3041 17.8105C26.1229 17.9222 26.0194 18.0829 25.9935 18.2924C25.8176 18.4915 25.6796 18.7164 25.5794 18.967C25.2167 19.4491 24.9061 19.963 24.6476 20.509C24.502 20.5546 24.433 20.651 24.4405 20.7981C24.2766 21.0066 24.1386 21.2314 24.0264 21.4728C23.8452 21.5845 23.7417 21.7451 23.7158 21.9546C23.629 21.9876 23.5944 22.0518 23.6123 22.1474C23.4402 22.3999 23.2677 22.6569 23.0946 22.9184C23.0071 23.0312 22.9382 23.1598 22.8875 23.3039C22.7116 23.503 22.5736 23.7279 22.4734 23.9785C22.3866 24.0115 22.3521 24.0757 22.3699 24.1713C22.117 24.3275 21.979 24.5523 21.9557 24.8459C21.8102 24.8915 21.7411 24.9878 21.7487 25.135C21.2421 25.9161 20.7071 26.6871 20.1439 27.448C19.7198 27.8273 19.2539 28.1486 18.7462 28.4117C18.5346 28.5089 18.3275 28.6053 18.125 28.7009C17.8975 28.6643 17.7249 28.7285 17.6074 28.8936C17.3686 28.9411 17.1271 28.9732 16.8826 28.99C16.3305 28.99 15.7782 28.99 15.2261 28.99C14.9947 29.0184 14.7876 28.9862 14.6049 28.8936C14.4391 28.7419 14.232 28.6776 13.9837 28.7009C13.8457 28.6688 13.7076 28.6366 13.5696 28.6045C13.5206 28.469 13.4171 28.4047 13.259 28.4117C12.3639 27.8998 11.6392 27.2252 11.0848 26.3879C10.9804 26.1909 10.8769 25.9981 10.7742 25.8096C10.675 25.636 10.606 25.4432 10.5671 25.2314C10.4049 24.1954 10.4394 23.1674 10.6707 22.1474C10.8276 21.6302 11.0692 21.1484 11.3954 20.7018C11.541 20.6562 11.61 20.5598 11.6025 20.4126C11.8 20.3176 11.9035 20.157 11.9131 19.9308C12.0038 19.9434 12.0728 19.9113 12.1201 19.8344C12.2814 19.5943 12.385 19.3374 12.4307 19.0634C12.5763 19.0178 12.6454 18.9214 12.6378 18.7743C12.9049 18.1798 13.2501 17.6337 13.6731 17.1359C13.8538 16.9881 13.9573 16.7954 13.9837 16.5576C14.1288 16.2556 14.3014 15.9665 14.5014 15.6903C14.6469 15.6447 14.716 15.5483 14.7084 15.4011C14.906 15.3061 15.0095 15.1456 15.019 14.9193C15.1509 14.6051 15.3234 14.316 15.5367 14.0519C15.6823 14.0063 15.7513 13.9099 15.7438 13.7628C15.7603 13.6035 15.8293 13.475 15.9508 13.3773C16.0964 13.3317 16.1655 13.2353 16.1579 13.0881C16.497 12.4524 16.8766 11.842 17.2968 11.257C17.6611 11.1434 17.9717 10.9506 18.2286 10.6788C18.327 10.331 18.2408 10.331 17.9697 10.6788C17.9651 10.4166 18.0168 10.1597 18.125 9.90777C18.3226 9.81275 18.4261 9.65219 18.4356 9.4259C18.5298 9.08936 18.7023 8.80023 18.9533 8.55852C19.0989 8.51294 19.1679 8.41656 19.1604 8.2694C19.4189 7.72343 19.7295 7.20947 20.0921 6.7274C20.345 6.57118 20.483 6.34633 20.5063 6.05278C20.5569 5.9087 20.6259 5.78013 20.7133 5.66728C20.8589 5.62169 20.928 5.52532 20.9204 5.37815C21.066 5.33257 21.135 5.23619 21.1275 5.08903C21.144 4.92972 21.213 4.80125 21.3345 4.70353C21.4801 4.65794 21.5492 4.56157 21.5416 4.4144C21.988 3.67762 22.6092 3.09937 23.4052 2.67966C23.5633 2.68669 23.6668 2.62241 23.7158 2.48691C23.8302 2.38089 23.9682 2.31661 24.1299 2.29416C24.3575 2.33078 24.5301 2.2665 24.6476 2.10141C24.7166 2.10141 24.7856 2.10141 24.8546 2.10141C25.6448 2.01872 26.4386 1.98662 27.2359 2.00503Z"
        fill="#286091" />
    <path fill-rule="evenodd" clip-rule="evenodd"
        d="M11.7056 6.15104C11.7056 6.92204 11.7056 7.69304 11.7056 8.46404C11.341 10.4414 10.1677 11.8388 8.18552 12.6563C7.72304 12.9903 7.29172 13.3597 6.89136 13.7647C6.42578 14.4389 6.02883 15.1456 5.70074 15.8849C4.40761 14.2142 2.97545 12.6401 1.40413 11.1625C1.11786 10.7897 0.859033 10.4042 0.627638 10.006C0.601237 9.76828 0.497704 9.57553 0.31704 9.42778C0.321181 9.14589 0.234938 8.88895 0.058208 8.65678C0.00644168 7.98293 -0.0107447 7.30831 0.00644167 6.63291C0.0703213 6.62221 0.122088 6.59012 0.161741 6.53654C0.212989 6.34639 0.230279 6.15364 0.213507 5.95829C1.34357 3.15118 3.51775 1.85012 6.73606 2.05511C9.25563 2.52166 10.9122 3.8869 11.7056 6.15104Z"
        fill="#12B3E8" />
</svg>