<svg width="32" height="32" viewBox="0 0 33 33" fill="none" xmlns="http://www.w3.org/2000/svg">
    <path fill-rule="evenodd" clip-rule="evenodd"
        d="M0.601562 0.458008C11.2683 0.458008 21.9349 0.458008 32.6016 0.458008C32.6016 11.1247 32.6016 21.7913 32.6016 32.458C21.9349 32.458 11.2683 32.458 0.601562 32.458C0.601562 21.7913 0.601562 11.1247 0.601562 0.458008Z"
        fill="#B32CFB" />
    <path fill-rule="evenodd" clip-rule="evenodd"
        d="M2.87451 3.25958C5.40724 3.13001 7.9006 3.27013 10.3546 3.67993C12.2068 7.88349 14.059 12.087 15.9112 16.2906C17.7343 11.8869 19.8002 7.61329 22.109 3.46975C25.101 3.18952 28.093 3.18952 31.085 3.46975C30.3216 3.79953 29.6805 4.28994 29.1616 4.941C24.8092 13.7815 20.4636 22.6089 16.1249 31.4234C11.4576 22.1311 7.04078 12.7431 2.87451 3.25958Z"
        fill="#FAFAFA" />
</svg>