<svg width="32" height="32" viewBox="0 0 32 32" fill="none" xmlns="http://www.w3.org/2000/svg">
<path fill-rule="evenodd" clip-rule="evenodd" d="M16.1836 0.254259C15.7884 0.244882 15.3937 0.254282 14.9994 0.282453C15.1206 0.305784 15.2427 0.31988 15.366 0.324744C15.2955 0.329444 15.225 0.334141 15.1545 0.338841C15.0012 0.313297 14.8462 0.2945 14.6893 0.282453C14.4636 0.301272 14.2381 0.320069 14.0127 0.338841C14.0188 0.371969 14.0094 0.400162 13.9845 0.423422C13.9274 0.376246 13.8617 0.357452 13.7871 0.367035C14.1266 0.290539 14.4743 0.248248 14.8303 0.240162C15.2862 0.216815 15.7373 0.221515 16.1836 0.254259Z" fill="#4AA0B0"/>
<path fill-rule="evenodd" clip-rule="evenodd" d="M16.1833 0.254245C20.6332 0.484287 24.2373 2.32629 26.9957 5.78024C29.7158 9.48276 30.5427 13.5803 29.4767 18.0727C28.8773 20.334 27.8014 22.3263 26.2485 24.0498C27.0729 25.0573 27.8809 26.077 28.6732 27.1089C27.4431 26.9196 26.555 27.3849 26.0089 28.5045C25.9168 28.7599 25.8604 29.023 25.8397 29.2939C25.0776 28.3206 24.3117 27.3527 23.5419 26.3899C22.8593 25.4767 22.1592 24.5745 21.4415 23.6833C21.3807 23.618 21.3384 23.5428 21.3146 23.4578C23.5589 22.0157 25.0766 20.014 25.8679 17.4525C26.6556 14.5608 26.3267 11.8071 24.8811 9.19169C22.9743 6.05919 20.1878 4.29707 16.5217 3.90535C13.3888 3.71619 10.6728 4.6701 8.37364 6.76702C7.53233 5.88842 6.70532 5.00502 5.89258 4.1168C8.11628 2.03646 10.7477 0.786536 13.7869 0.36702C13.8614 0.357437 13.9272 0.376231 13.9842 0.423408C14.0092 0.400148 14.0186 0.371954 14.0124 0.338826C14.2378 0.320055 14.4634 0.301258 14.6891 0.282439C14.8459 0.294486 15.001 0.313283 15.1543 0.338826C15.2247 0.334126 15.2952 0.329429 15.3657 0.324729C15.2425 0.319866 15.1203 0.305769 14.9992 0.282439C15.3934 0.254267 15.7882 0.244867 16.1833 0.254245Z" fill="#128EA2"/>
<path fill-rule="evenodd" clip-rule="evenodd" d="M21.3137 23.4577C18.5651 25.1143 15.6424 25.4949 12.5454 24.5996C9.11577 23.423 6.79917 21.1252 5.5956 17.7062C5.16125 16.2796 5.0156 14.8229 5.1586 13.3361C5.19528 13.2109 5.21409 13.0793 5.21499 12.9414C5.50048 10.9614 6.27581 9.20395 7.54098 7.66919C7.82703 7.36935 8.10426 7.0686 8.3727 6.76699C10.6719 4.67007 13.3879 3.71616 16.5207 3.90531C20.1868 4.29704 22.9733 6.05915 24.8802 9.19165C26.3257 11.8071 26.6546 14.5607 25.867 17.4524C25.0757 20.0139 23.558 22.0157 21.3137 23.4577Z" fill="#FEFEFE"/>
<path fill-rule="evenodd" clip-rule="evenodd" d="M5.89256 4.11682C6.7053 5.00504 7.53231 5.88844 8.37362 6.76704C8.10518 7.06866 7.82795 7.3694 7.5419 7.66924C6.27673 9.204 5.5014 10.9614 5.21591 12.9415C5.17441 13.0661 5.15563 13.1977 5.15952 13.3362C5.01652 14.823 5.16217 16.2797 5.59652 17.7062C6.80009 21.1253 9.11669 23.4231 12.5463 24.5996C15.6433 25.495 18.566 25.1144 21.3146 23.4578C21.3384 23.5428 21.3806 23.618 21.4415 23.6833C22.1591 24.5745 22.8593 25.4767 23.5419 26.3899C20.9178 28.0618 18.042 28.8327 14.9146 28.7018C14.7133 28.6677 14.5066 28.6491 14.2943 28.6455C10.2148 28.1839 6.91137 26.3514 4.38419 23.1477C2.89561 21.1747 1.96992 18.9568 1.6071 16.4939C1.60099 16.3754 1.58219 16.2626 1.55071 16.1556C1.13154 11.9397 2.28279 8.22754 5.00445 5.01902C5.28656 4.70404 5.5826 4.4033 5.89256 4.11682Z" fill="#FCBF12"/>
<path fill-rule="evenodd" clip-rule="evenodd" d="M10.2631 9.50189C10.3426 9.49478 10.4178 9.50888 10.4886 9.54418C10.595 9.649 10.6843 9.76646 10.7565 9.8966C10.9051 10.1845 11.0461 10.4758 11.1794 10.7706C11.6553 11.9917 12.1534 13.204 12.6737 14.4076C13.0767 15.2895 13.5654 16.1165 14.1397 16.8887C14.441 17.2671 14.8123 17.5537 15.2534 17.7486C15.5541 17.8426 15.8548 17.8426 16.1556 17.7486C16.5515 17.5972 16.8851 17.3576 17.1565 17.0296C17.5399 16.5522 17.8782 16.0447 18.1714 15.5072C18.3679 15.0954 18.5653 14.6819 18.7635 14.2666C19.3269 12.8766 19.8908 11.4857 20.4551 10.094C20.5602 9.87904 20.6965 9.68639 20.864 9.51598C21.0085 9.47175 21.1165 9.51404 21.1882 9.64286C21.2562 9.85363 21.3032 10.0698 21.3292 10.2913C21.3605 11.3755 21.2571 12.4468 21.019 13.5054C20.531 15.5241 19.7416 17.4131 18.6507 19.1724C18.2537 19.7761 17.7604 20.2883 17.1706 20.7089C16.4913 21.1537 15.7676 21.2477 14.9996 20.9909C14.5691 20.8045 14.1838 20.5507 13.8437 20.2296C13.1967 19.5609 12.6563 18.8138 12.2226 17.9882C11.287 16.2529 10.6197 14.4203 10.2208 12.4904C10.1552 12.0217 10.0988 11.5518 10.0516 11.0807C10.0282 10.7039 10.0376 10.3279 10.0798 9.95299C10.1025 9.78572 10.1636 9.63536 10.2631 9.50189Z" fill="#138EA2"/>
<path fill-rule="evenodd" clip-rule="evenodd" d="M5.21509 12.9415C5.21419 13.0794 5.19538 13.211 5.1587 13.3362C5.15481 13.1977 5.17359 13.0661 5.21509 12.9415Z" fill="#FBDE9E"/>
<path fill-rule="evenodd" clip-rule="evenodd" d="M1.55082 16.1556C1.58231 16.2626 1.6011 16.3754 1.60721 16.494C1.56109 16.3894 1.5423 16.2766 1.55082 16.1556Z" fill="#FDE1A1"/>
<path fill-rule="evenodd" clip-rule="evenodd" d="M28.335 27.7997C29.1904 27.778 29.8436 28.1259 30.2945 28.8428C30.6827 29.6661 30.5981 30.4369 30.0407 31.1547C29.3987 31.7967 28.6423 31.98 27.7711 31.7045C26.7421 31.1925 26.3427 30.3701 26.5729 29.2375C26.8773 28.4115 27.4646 27.9322 28.335 27.7997Z" fill="#138EA2"/>
<path fill-rule="evenodd" clip-rule="evenodd" d="M14.2949 28.6455C14.5072 28.6492 14.7139 28.6678 14.9152 28.7019C14.7022 28.7073 14.4954 28.6884 14.2949 28.6455Z" fill="#FBE3AC"/>
</svg>
