<svg width="32" height="32" viewBox="0 0 32 32" fill="none" xmlns="http://www.w3.org/2000/svg">
    <g clip-path="url(#clip0_1971_3063)">
        <path fill-rule="evenodd" clip-rule="evenodd"
            d="M-0.0800781 -0.0800781C10.5866 -0.0800781 21.2532 -0.0800781 31.9199 -0.0800781C31.9199 10.5866 31.9199 21.2532 31.9199 31.9199C21.2532 31.9199 10.5866 31.9199 -0.0800781 31.9199C-0.0800781 21.2532 -0.0800781 10.5866 -0.0800781 -0.0800781Z"
            fill="#3B2CA7" />
        <path fill-rule="evenodd" clip-rule="evenodd"
            d="M23.2799 2.15991C23.8567 2.20769 24.3901 2.39436 24.8799 2.71991C25.7665 3.24226 26.6197 3.80226 27.4399 4.39991C22.5981 12.8579 17.7181 21.2846 12.7999 29.6799C9.98832 24.8578 7.21499 20.0044 4.47991 15.1199C4.37323 14.9599 4.37323 14.7999 4.47991 14.6399C5.75251 13.8571 7.05919 13.1905 8.39991 12.6399C9.87303 15.2397 11.3664 17.8263 12.8799 20.3999C16.4335 14.3581 19.9002 8.27809 23.2799 2.15991Z"
            fill="#FAFAFA" />
    </g>
    <defs>
        <clipPath id="clip0_1971_3063">
            <rect width="32" height="32" fill="white" />
        </clipPath>
    </defs>
</svg>