<svg width="32" height="32" viewBox="0 0 33 33" fill="none" xmlns="http://www.w3.org/2000/svg">
    <path fill-rule="evenodd" clip-rule="evenodd"
        d="M0.928955 0.929688C11.5956 0.929688 22.2623 0.929688 32.929 0.929688C32.929 11.5964 32.929 22.263 32.929 32.9297C22.2623 32.9297 11.5956 32.9297 0.928955 32.9297C0.928955 22.263 0.928955 11.5964 0.928955 0.929688Z"
        fill="#FEFEFE" />
    <path fill-rule="evenodd" clip-rule="evenodd"
        d="M29.5164 14.3195H29.4951C28.8764 14.331 28.3429 14.6092 27.8401 14.9076C27.328 15.2088 26.8678 15.3464 26.2735 15.1456C25.5298 14.6523 25.5176 13.8406 25.6182 13.0862C25.8772 11.1386 26.2125 9.20244 26.5416 7.26346C26.5264 7.04257 26.3375 6.8647 26.1028 6.85042L22.6709 7.41835C21.2537 7.66213 19.6445 8.0035 18.1876 7.83139C17.8097 7.73674 17.4805 7.51869 17.2641 7.21183C17.0812 6.66679 17.2154 6.3083 17.5231 5.82639C17.8005 5.39326 18.1327 4.87409 18.1327 4.22585C18.1388 3.0068 17.0659 1.90249 15.6761 1.90823C14.2985 1.91396 13.2684 3.02975 13.2532 4.22585C13.2532 4.87696 13.5883 5.39326 13.8688 5.82639C14.1614 6.27956 14.3656 6.69553 14.1309 7.21467C13.9084 7.51869 13.5793 7.73958 13.2013 7.83423C11.7293 8.00917 10.1626 7.61627 8.71792 7.42119C7.13608 7.16304 5.55425 6.90489 4.56984 6.69837H4.51191C4.20413 6.63813 3.88103 6.86763 3.85665 7.16304C3.44519 9.09341 3.12822 11.0325 2.86916 12.9829C2.78076 13.7315 2.72896 14.6809 3.57929 15.094C4.11567 15.3607 4.67039 15.1169 5.1306 14.8559C5.64572 14.5634 6.17908 14.2909 6.80392 14.2679C8.1632 14.2679 9.26659 15.3091 9.26659 16.5912C9.26659 17.8734 8.1632 18.9146 6.80392 18.9146C6.37725 18.9089 5.95965 18.7999 5.58779 18.5991C4.5241 18.0254 3.37814 17.6956 2.90573 19.0122C2.85697 19.3879 2.85697 19.7665 2.90573 20.1423C3.12822 22.0498 3.56406 24.5223 3.83832 25.9105C3.92677 26.2576 4.25289 26.3752 4.60339 26.3752C7.30373 25.9249 10.4674 24.9123 13.2378 25.2393C13.6159 25.334 13.945 25.5549 14.1674 25.8589C14.4662 26.3465 14.1828 26.8657 13.9114 27.2988C13.6371 27.7348 13.3141 28.2482 13.3476 28.8478C13.3629 30.1213 14.454 31.151 15.8042 31.1653C17.1879 31.1309 18.2272 30.0725 18.2607 28.8478C18.2607 28.2024 17.9285 27.6831 17.6512 27.2501C17.3585 26.794 17.1604 26.3809 17.386 25.8618C17.6085 25.5577 17.9376 25.3369 18.3156 25.2422C18.7514 25.1906 19.1933 25.1906 19.6292 25.2422C21.6956 25.4975 23.7468 25.8474 25.8011 26.1716C26.1911 26.2633 26.563 26.1314 26.563 25.7069L26.557 25.6667C26.1577 23.5613 25.3804 21.1634 25.6944 19.0122C25.795 18.6852 26.0053 18.3955 26.2918 18.1861C27.3006 17.4517 28.5746 18.7913 29.623 18.8057C31.0128 18.8113 32.0857 17.7071 32.0796 16.488C31.8936 15.2747 30.8147 14.3655 29.5164 14.3195ZM17.6298 21.8977C17.6968 21.8461 17.194 19.3879 17.1422 19.1154C16.6453 19.1154 16.1639 19.0781 15.7189 18.8573C15.3836 18.5274 15.158 18.1173 15.0635 17.6698C14.899 16.904 14.899 16.118 15.0635 15.3521C15.1702 14.9104 15.3958 14.5031 15.7189 14.1704C16.045 13.875 16.7063 13.9639 17.1422 13.9122C17.2641 13.2927 17.5841 11.4971 17.6298 11.2332C17.3707 11.041 16.9958 10.8718 16.6515 10.8718C15.2311 10.7686 14.3717 12.2773 13.9754 13.2927C13.6493 14.3483 13.4848 15.4411 13.4818 16.5396C13.4818 17.6726 13.6311 18.7941 13.9754 19.8841C14.5058 21.2035 16.0114 23.1024 17.6298 21.8977Z"
        fill="#221040" />
</svg>