<svg width="32" height="32" viewBox="0 0 32 32" fill="none" xmlns="http://www.w3.org/2000/svg">
    <g clip-path="url(#clip0_4522_352)">
        <path fill-rule="evenodd" clip-rule="evenodd"
            d="M26.275 9.68359C26.3687 9.68359 26.4624 9.68359 26.556 9.68359C26.556 9.9643 26.556 10.245 26.556 10.5257C26.7434 10.5257 26.9307 10.5257 27.1181 10.5257C27.1181 11.0559 27.1181 11.5861 27.1181 12.1163C26.9738 12.1353 26.8483 12.1977 26.7434 12.3035C26.6788 12.2544 26.6319 12.1919 26.6029 12.1163C26.601 12.3791 26.5073 12.5974 26.3219 12.7713C26.275 11.7425 26.2591 10.7133 26.275 9.68359Z"
            fill="#B15EA4" />
        <path fill-rule="evenodd" clip-rule="evenodd"
            d="M25.8067 10.5259C25.8067 11.4304 25.8067 12.3348 25.8067 13.2393C25.6455 13.382 25.4582 13.4756 25.2446 13.52C25.2446 12.5219 25.2446 11.524 25.2446 10.5259C25.432 10.5259 25.6193 10.5259 25.8067 10.5259Z"
            fill="#B05EA4" />
        <path fill-rule="evenodd" clip-rule="evenodd"
            d="M26.2752 9.68359C26.2592 10.7133 26.2752 11.7425 26.322 12.7713C26.5075 12.5974 26.6011 12.3791 26.603 12.1163C26.6321 12.1919 26.6789 12.2544 26.7435 12.3035C26.8484 12.1977 26.974 12.1353 27.1182 12.1163C27.1182 13.1767 27.1182 14.2372 27.1182 15.2976C26.9487 15.4034 26.7613 15.4657 26.5562 15.4848C26.5918 15.2563 26.529 15.1939 26.3688 15.2976C26.2799 15.4422 26.248 15.5982 26.2752 15.7655C26.2443 15.7655 26.2124 15.7655 26.1815 15.7655C26.1506 13.722 26.1815 11.6947 26.2752 9.68359Z"
            fill="#885196" />
        <path fill-rule="evenodd" clip-rule="evenodd"
            d="M25.8068 13.2393C25.8068 14.1438 25.8068 15.0482 25.8068 15.9527C25.5435 16.1312 25.2625 16.2872 24.9637 16.4205C24.9 16.351 24.8373 16.2887 24.7764 16.2334C24.7764 15.5784 24.7764 14.9235 24.7764 14.2685C24.87 14.2685 24.9637 14.2685 25.0574 14.2685C25.0274 14.6617 25.0593 15.0359 25.1511 15.3913C25.2438 14.7851 25.2747 14.1613 25.2447 13.52C25.4583 13.4755 25.6456 13.3819 25.8068 13.2393Z"
            fill="#8F56A2" />
        <path fill-rule="evenodd" clip-rule="evenodd"
            d="M25.1508 15.3912C25.059 15.0358 25.0272 14.6615 25.0572 14.2684C24.9635 14.2684 24.8698 14.2684 24.7761 14.2684C24.7761 14.9233 24.7761 15.5783 24.7761 16.2333C24.7761 16.8258 24.7761 17.4185 24.7761 18.0111C24.6825 16.7488 24.6516 15.4701 24.6825 14.1748C24.8389 14.1748 24.9944 14.1748 25.1508 14.1748C25.1508 14.5802 25.1508 14.9858 25.1508 15.3912Z"
            fill="#392542" />
        <path fill-rule="evenodd" clip-rule="evenodd"
            d="M30.2091 15.8593C30.1473 15.7753 30.0855 15.6817 30.0218 15.5786C29.7529 15.7594 29.4719 15.9154 29.1787 16.0465C29.1787 15.3915 29.1787 14.7365 29.1787 14.0815C29.3033 14.0815 29.4288 14.0815 29.5534 14.0815C29.5534 14.5182 29.5534 14.9548 29.5534 15.3915C29.7717 15.3915 29.9908 15.3915 30.2091 15.3915C30.2091 15.5475 30.2091 15.7033 30.2091 15.8593Z"
            fill="#7E7BB2" />
        <path fill-rule="evenodd" clip-rule="evenodd"
            d="M22.247 15.3911C22.1543 14.9415 22.1234 14.4737 22.1534 13.9876C22.0597 13.9876 21.966 13.9876 21.8723 13.9876C21.8723 15.2351 21.8723 16.4828 21.8723 17.7303C21.7787 16.4681 21.7478 15.1894 21.7787 13.894C21.9351 13.894 22.0906 13.894 22.247 13.894C22.247 14.393 22.247 14.8921 22.247 15.3911Z"
            fill="#49294A" />
        <path fill-rule="evenodd" clip-rule="evenodd"
            d="M24.3077 15.3915C24.3386 15.8635 24.3068 16.3313 24.2141 16.7951C23.9274 17.0316 23.6146 17.2187 23.2773 17.3565C23.2773 16.6079 23.2773 15.8594 23.2773 15.1108C23.4019 15.1108 23.5274 15.1108 23.652 15.1108C23.652 15.2044 23.652 15.298 23.652 15.3915C23.8703 15.3915 24.0895 15.3915 24.3077 15.3915Z"
            fill="#8C56A3" />
        <path fill-rule="evenodd" clip-rule="evenodd"
            d="M31.8954 15.3915C31.9104 15.5505 31.8945 15.7064 31.8486 15.8593C31.4823 16.0502 31.1226 16.253 30.7713 16.4675C30.717 16.5893 30.6542 16.6985 30.584 16.795C30.584 16.14 30.584 15.485 30.584 14.8301C30.7086 14.8301 30.8341 14.8301 30.9587 14.8301C30.9587 15.0172 30.9587 15.2043 30.9587 15.3915C31.2706 15.3915 31.5835 15.3915 31.8954 15.3915Z"
            fill="#7997C4" />
        <path fill-rule="evenodd" clip-rule="evenodd"
            d="M28.0549 17.2629C27.9874 17.2238 27.9406 17.1615 27.9144 17.0758C27.8478 17.1582 27.7701 17.2205 27.6802 17.2629C27.6802 16.5455 27.6802 15.8282 27.6802 15.1108C27.8048 15.1108 27.9303 15.1108 28.0549 15.1108C28.0549 15.2044 28.0549 15.298 28.0549 15.3915C28.305 15.3915 28.5541 15.3915 28.8042 15.3915C28.8042 16.0154 28.8042 16.6391 28.8042 17.2629C28.5541 17.2629 28.305 17.2629 28.0549 17.2629Z"
            fill="#7979AD" />
        <path fill-rule="evenodd" clip-rule="evenodd"
            d="M30.2091 15.8593C30.2091 16.3272 30.2091 16.795 30.2091 17.2628C29.9908 17.2628 29.7717 17.2628 29.5534 17.2628C29.5534 17.4811 29.5534 17.6995 29.5534 17.9178C29.4288 17.9178 29.3033 17.9178 29.1787 17.9178C29.1787 17.294 29.1787 16.6703 29.1787 16.0464C29.4719 15.9154 29.7529 15.7594 30.0218 15.5786C30.0855 15.6817 30.1473 15.7753 30.2091 15.8593Z"
            fill="#7A95C3" />
        <path fill-rule="evenodd" clip-rule="evenodd"
            d="M22.2472 15.3913C22.4655 15.3913 22.6847 15.3913 22.9029 15.3913C22.9029 16.0151 22.9029 16.6388 22.9029 17.2626C22.6528 17.2626 22.4037 17.2626 22.1536 17.2626C22.1536 17.4186 22.1536 17.5745 22.1536 17.7305C22.0599 17.7305 21.9662 17.7305 21.8726 17.7305C21.8726 16.483 21.8726 15.2353 21.8726 13.9878C21.9662 13.9878 22.0599 13.9878 22.1536 13.9878C22.1236 14.4739 22.1545 14.9417 22.2472 15.3913Z"
            fill="#9456A2" />
        <path fill-rule="evenodd" clip-rule="evenodd"
            d="M31.8954 15.3916C31.9881 15.9978 32.019 16.6216 31.9891 17.2629C31.6453 17.2629 31.3024 17.2629 30.9587 17.2629C30.9587 17.7308 30.9587 18.1986 30.9587 18.6665C30.8341 18.6665 30.7086 18.6665 30.584 18.6665C30.584 18.0426 30.584 17.4189 30.584 16.7951C30.6542 16.6986 30.717 16.5894 30.7713 16.4676C31.1226 16.2531 31.4823 16.0503 31.8486 15.8594C31.8945 15.7065 31.9104 15.5506 31.8954 15.3916Z"
            fill="#6FA8CB" />
        <path fill-rule="evenodd" clip-rule="evenodd"
            d="M20.3735 15.3916C20.7173 15.3916 21.0601 15.3916 21.4039 15.3916C21.4039 16.0154 21.4039 16.6391 21.4039 17.2629C21.0601 17.2629 20.7173 17.2629 20.3735 17.2629C20.3735 16.6391 20.3735 16.0154 20.3735 15.3916Z"
            fill="#96559C" />
        <path fill-rule="evenodd" clip-rule="evenodd"
            d="M27.1181 15.2976C27.2352 15.6164 27.2979 15.9594 27.3054 16.3269C27.3054 16.656 27.2745 16.9679 27.2117 17.2625C27.2267 17.0111 27.2117 16.7616 27.1649 16.514C27.0085 16.6076 26.853 16.7011 26.6965 16.7947C26.6104 16.6769 26.5317 16.5522 26.4624 16.4204C26.3987 16.4544 26.3359 16.4856 26.275 16.514C26.275 16.2645 26.275 16.015 26.275 15.7655C26.2479 15.5982 26.2797 15.4422 26.3687 15.2976C26.5289 15.1939 26.5916 15.2563 26.556 15.4848C26.7612 15.4657 26.9485 15.4034 27.1181 15.2976Z"
            fill="#7E70AA" />
        <path fill-rule="evenodd" clip-rule="evenodd"
            d="M24.3077 15.3916C24.4005 15.9978 24.4314 16.6216 24.4014 17.2629C24.1513 17.2629 23.9021 17.2629 23.652 17.2629C23.652 17.3565 23.652 17.4501 23.652 17.5436C23.5059 17.5654 23.3804 17.6279 23.2773 17.7308C23.2773 17.6061 23.2773 17.4812 23.2773 17.3565C23.6146 17.2188 23.9274 17.0316 24.2141 16.7951C24.3068 16.3314 24.3386 15.8636 24.3077 15.3916Z"
            fill="#7B5C9B" />
        <path fill-rule="evenodd" clip-rule="evenodd"
            d="M27.2118 17.2625C27.1219 17.4277 27.091 17.6148 27.1182 17.8239C26.9805 17.9399 26.824 18.0335 26.6498 18.1046C26.5749 17.957 26.528 17.8011 26.5093 17.6368C26.4709 17.6795 26.4241 17.7108 26.3688 17.7304C26.2761 17.3296 26.2442 16.9242 26.2751 16.514C26.336 16.4855 26.3988 16.4544 26.4625 16.4204C26.5318 16.5522 26.6105 16.6769 26.6966 16.7947C26.8531 16.7011 27.0086 16.6075 27.165 16.514C27.2118 16.7616 27.2268 17.0111 27.2118 17.2625Z"
            fill="#7E87BB" />
        <path fill-rule="evenodd" clip-rule="evenodd"
            d="M25.8068 15.9526C25.8068 16.514 25.8068 17.0754 25.8068 17.6368C25.6194 17.7304 25.4321 17.824 25.2447 17.9175C25.2597 17.697 25.2447 17.4787 25.1979 17.2626C25.1511 17.5102 25.1361 17.7597 25.1511 18.0111C25.0265 18.0111 24.901 18.0111 24.7764 18.0111C24.7764 17.4186 24.7764 16.8259 24.7764 16.2333C24.8373 16.2886 24.9 16.351 24.9637 16.4205C25.2625 16.2871 25.5435 16.1312 25.8068 15.9526Z"
            fill="#8073AE" />
        <path fill-rule="evenodd" clip-rule="evenodd"
            d="M25.8067 10.5259C25.9003 14.3774 25.9312 18.2449 25.9003 22.1282C25.6605 22.1565 25.4423 22.1252 25.2446 22.0347C25.432 22.0347 25.6193 22.0347 25.8067 22.0347C25.8067 21.4421 25.8067 20.8494 25.8067 20.2569C25.8067 19.8202 25.8067 19.3836 25.8067 18.9469C25.8067 18.5103 25.8067 18.0737 25.8067 17.637C25.8067 17.0756 25.8067 16.5142 25.8067 15.9528C25.8067 15.0483 25.8067 14.1438 25.8067 13.2393C25.8067 12.3348 25.8067 11.4304 25.8067 10.5259Z"
            fill="#262735" />
        <path fill-rule="evenodd" clip-rule="evenodd"
            d="M28.0549 17.2628C28.0549 17.8242 28.0549 18.3856 28.0549 18.947C27.9303 18.947 27.8048 18.947 27.6802 18.947C27.6802 18.3856 27.6802 17.8242 27.6802 17.2628C27.7701 17.2204 27.8478 17.1581 27.9144 17.0757C27.9406 17.1614 27.9874 17.2237 28.0549 17.2628Z"
            fill="#709AC0" />
        <path fill-rule="evenodd" clip-rule="evenodd"
            d="M23.652 17.5435C23.652 18.0113 23.652 18.4791 23.652 18.947C23.5274 18.947 23.4019 18.947 23.2773 18.947C23.2773 18.5415 23.2773 18.136 23.2773 17.7306C23.3804 17.6277 23.5059 17.5653 23.652 17.5435Z"
            fill="#8379B5" />
        <path fill-rule="evenodd" clip-rule="evenodd"
            d="M26.1815 15.7656C26.2124 15.7656 26.2443 15.7656 26.2752 15.7656C26.2752 16.0152 26.2752 16.2646 26.2752 16.5142C26.2443 16.9244 26.2761 17.3298 26.3688 17.7305C26.4241 17.711 26.4709 17.6797 26.5094 17.637C26.5281 17.8013 26.5749 17.9572 26.6499 18.1048C26.8241 18.0337 26.9805 17.9401 27.1182 17.8241C27.1182 18.2919 27.1182 18.7598 27.1182 19.2276C26.9365 19.2884 26.7492 19.3196 26.5562 19.3212C26.5834 19.1539 26.5515 18.9979 26.4625 18.8533C26.4316 18.869 26.3998 18.8845 26.3688 18.9001C26.2808 19.1229 26.2499 19.3568 26.2752 19.6019C26.2752 20.8807 26.2752 22.1594 26.2752 23.4381C26.1815 20.8967 26.1506 18.3392 26.1815 15.7656Z"
            fill="#6692B4" />
        <path fill-rule="evenodd" clip-rule="evenodd"
            d="M25.8067 17.6372C25.8067 18.0739 25.8067 18.5105 25.8067 18.9471C25.6193 19.0407 25.432 19.1343 25.2446 19.2279C25.2446 18.7912 25.2446 18.3546 25.2446 17.9179C25.432 17.8243 25.6193 17.7308 25.8067 17.6372Z"
            fill="#7D93C3" />
        <path fill-rule="evenodd" clip-rule="evenodd"
            d="M27.1182 19.2278C27.1182 19.4149 27.1182 19.6021 27.1182 19.7892C26.9411 19.9017 26.7688 20.0264 26.603 20.1635C26.5852 19.9389 26.5383 19.7205 26.4625 19.5085C26.3988 19.5425 26.336 19.5736 26.2751 19.6021C26.2498 19.357 26.2807 19.1231 26.3688 18.9003C26.3997 18.8847 26.4316 18.8691 26.4625 18.8535C26.5515 18.9981 26.5833 19.1541 26.5561 19.3214C26.7491 19.3198 26.9365 19.2886 27.1182 19.2278Z"
            fill="#70B4D5" />
        <path fill-rule="evenodd" clip-rule="evenodd"
            d="M27.2119 17.2627C27.2119 18.8845 27.2119 20.5064 27.2119 22.1282C27.0245 22.1282 26.8372 22.1282 26.6498 22.1282C26.6798 22.5832 26.6489 23.0199 26.5562 23.4381C26.5562 22.9703 26.5562 22.5025 26.5562 22.0346C26.7435 22.0346 26.9308 22.0346 27.1182 22.0346C27.1182 21.2861 27.1182 20.5375 27.1182 19.789C27.1182 19.6019 27.1182 19.4147 27.1182 19.2276C27.1182 18.7598 27.1182 18.2919 27.1182 17.8241C27.091 17.615 27.1219 17.4278 27.2119 17.2627Z"
            fill="#1E343C" />
        <path fill-rule="evenodd" clip-rule="evenodd"
            d="M25.8067 18.9468C25.8067 19.3835 25.8067 19.82 25.8067 20.2567C25.6174 20.353 25.4301 20.4466 25.2446 20.5374C25.2446 20.1007 25.2446 19.6642 25.2446 19.2275C25.432 19.1339 25.6193 19.0403 25.8067 18.9468Z"
            fill="#75ACD2" />
        <path fill-rule="evenodd" clip-rule="evenodd"
            d="M27.1179 19.789C27.1179 20.5375 27.1179 21.2861 27.1179 22.0346C26.9306 22.0346 26.7433 22.0346 26.5559 22.0346C26.5559 22.5025 26.5559 22.9703 26.5559 23.4381C26.4622 23.4381 26.3686 23.4381 26.2749 23.4381C26.2749 22.1593 26.2749 20.8807 26.2749 19.6019C26.3358 19.5734 26.3985 19.5423 26.4622 19.5083C26.5381 19.7203 26.585 19.9387 26.6028 20.1633C26.7686 20.0262 26.9409 19.9015 27.1179 19.789Z"
            fill="#67C9E1" />
        <path fill-rule="evenodd" clip-rule="evenodd"
            d="M25.8067 20.2568C25.8067 20.8494 25.8067 21.4421 25.8067 22.0346C25.6193 22.0346 25.432 22.0346 25.2446 22.0346C25.2446 21.5356 25.2446 21.0365 25.2446 20.5375C25.4301 20.4467 25.6174 20.3531 25.8067 20.2568Z"
            fill="#6AC6E1" />
        <path fill-rule="evenodd" clip-rule="evenodd"
            d="M4.87094 6.17515C3.26213 6.14428 1.66971 6.17543 0.0936719 6.26872C0.0427987 6.26311 0.0115778 6.23195 0 6.17515C1.63883 6.05099 3.26247 6.05099 4.87094 6.17515Z"
            fill="#74395C" />
        <path fill-rule="evenodd" clip-rule="evenodd"
            d="M16.2988 6.17515C17.8761 6.05099 19.4685 6.05099 21.0761 6.17515C21.0645 6.23195 21.0333 6.26311 20.9824 6.26872C20.0627 6.17572 19.1259 6.14456 18.1723 6.17515C17.5478 6.17515 16.9233 6.17515 16.2988 6.17515Z"
            fill="#5E335A" />
        <path fill-rule="evenodd" clip-rule="evenodd"
            d="M4.87102 6.1751C5.01415 6.4791 5.13901 6.79096 5.2457 7.11077C5.2768 10.9941 5.24561 14.8616 5.15203 18.7131C3.44024 14.5759 1.75415 10.4277 0.09375 6.26867C1.66979 6.17538 3.26221 6.14422 4.87102 6.1751Z"
            fill="#D168A8" />
        <path fill-rule="evenodd" clip-rule="evenodd"
            d="M16.2987 6.1748C16.9232 6.1748 17.5476 6.1748 18.1721 6.1748C18.1721 8.48283 18.1721 10.7908 18.1721 13.0988C17.2147 15.5872 16.2155 18.0511 15.1746 20.4906C15.1903 16.7166 15.1746 12.9427 15.1278 9.16896C15.0919 9.22098 15.0451 9.25214 14.9873 9.26252C15.3532 8.19558 15.7904 7.16634 16.2987 6.1748Z"
            fill="#B15EA4" />
        <path fill-rule="evenodd" clip-rule="evenodd"
            d="M18.1724 6.17494C19.126 6.14435 20.0628 6.1755 20.9825 6.26851C20.0673 8.56325 19.1306 10.84 18.1724 13.0989C18.1724 10.7909 18.1724 8.48297 18.1724 6.17494Z"
            fill="#AA5CA2" />
        <path fill-rule="evenodd" clip-rule="evenodd"
            d="M15.1746 20.4906C14.4276 22.3251 13.7094 24.1652 13.0202 26.0111C12.9265 26.0111 12.8329 26.0111 12.7392 26.0111C12.7703 22.346 12.7391 18.6969 12.6455 15.0637C13.3804 13.0988 14.1609 11.1651 14.9873 9.26251C15.0451 9.25213 15.0919 9.22097 15.1278 9.16895C15.1746 12.9427 15.1903 16.7165 15.1746 20.4906Z"
            fill="#B75FA4" />
        <path fill-rule="evenodd" clip-rule="evenodd"
            d="M5.24553 7.11084C6.26627 9.55687 7.26537 12.0209 8.24303 14.5027C8.24303 18.3389 8.24303 22.1752 8.24303 26.0114C7.14332 23.6241 6.11293 21.1914 5.15186 18.7132C5.24543 14.8617 5.27663 10.9942 5.24553 7.11084Z"
            fill="#C966A7" />
        <path fill-rule="evenodd" clip-rule="evenodd"
            d="M8.24316 14.5024C8.98233 16.2614 9.70042 18.0392 10.3976 19.8358C10.3976 21.8943 10.3976 23.9527 10.3976 26.0112C9.67944 26.0112 8.96135 26.0112 8.24316 26.0112C8.24316 22.175 8.24316 18.3387 8.24316 14.5024Z"
            fill="#C364A6" />
        <path fill-rule="evenodd" clip-rule="evenodd"
            d="M12.6456 15.064C12.7392 18.6972 12.7704 22.3463 12.7393 26.0113C11.9587 26.0113 11.178 26.0113 10.3975 26.0113C10.3975 23.9529 10.3975 21.8944 10.3975 19.8359C10.4651 19.875 10.5119 19.9373 10.538 20.023C11.2437 18.3645 11.9462 16.7115 12.6456 15.064Z"
            fill="#BD62A5" />
    </g>
    <defs>
        <clipPath id="clip0_4522_352">
            <rect width="32" height="32" fill="white" />
        </clipPath>
    </defs>
</svg>