<svg width="32" height="32" viewBox="0 0 32 32" fill="none" xmlns="http://www.w3.org/2000/svg">
<path d="M31.9098 17.3167C31.3846 17.9047 28.1526 22.0187 24.6154 20.732C24.1561 20.5629 23.6872 20.306 23.2178 19.9332C23.7075 19.9538 24.1816 19.9384 24.6154 19.8923C25.2962 19.8247 25.8664 19.6957 26.2052 19.5255C26.9865 19.1436 26.7808 17.8375 24.6154 17.4493C24.5605 17.4402 24.5045 17.429 24.4435 17.4243C23.0015 17.2074 21.9459 17.6368 21.4024 18.1062C21.3867 18.0999 21.3661 18.0958 21.3507 18.0851C21.0235 17.9464 20.6856 17.8064 20.3474 17.6774C22.915 17.5588 23.3498 15.8664 20.962 14.2964C19.9993 13.6611 18.8792 13.0945 17.6837 12.582C16.3069 11.9997 14.8278 11.4987 13.3648 11.085C12.3554 10.8011 11.3564 10.5582 10.4085 10.3575C8.82913 10.022 7.39639 9.80104 6.28127 9.69672C3.86463 9.47463 2.19443 9.63496 1.26599 10.1771C0.857499 10.4146 0.64639 10.724 0.640625 11.1009V11.1424C0.64639 11.3433 0.70706 11.566 0.822909 11.8081C1.2056 12.6185 2.24494 13.5423 3.90499 14.5649C5.38275 15.4727 7.588 16.5164 9.47508 17.1665C9.48469 17.27 9.50528 17.3779 9.5503 17.497C9.66176 17.8064 9.94891 18.1633 10.4085 18.5652C10.4785 18.6275 10.5548 18.6896 10.6347 18.756C11.3622 19.3347 12.2653 19.8659 13.3398 20.3205L13.3648 20.3312C14.7673 20.9193 16.2563 21.3785 17.6836 21.7093C19.818 22.2002 21.8097 22.4055 23.1368 22.3386C23.1985 22.3182 23.223 22.2927 23.1919 22.2672C23.1829 22.2562 23.1683 22.2463 23.1417 22.2362C22.4101 22.1889 21.4877 22.086 20.3679 21.9364C19.4293 21.8032 18.5363 21.6426 17.6836 21.4505C16.1295 21.1048 14.7218 20.656 13.4507 20.1089C13.4203 20.0987 13.3953 20.0839 13.3648 20.0737C12.5072 19.6957 12.0235 19.3449 11.9065 19.0198C11.7558 18.5872 12.1489 18.3591 12.5478 18.2506C12.8048 18.3376 13.0771 18.4203 13.3648 18.4985C14.6715 18.8705 16.2105 19.2062 17.6837 19.4525C19.1115 19.7009 20.469 19.8659 21.4671 19.9175C22.4414 20.7798 23.5261 21.2292 24.6154 21.3632C26.5576 21.596 28.5155 20.8317 29.8761 19.5933C30.8095 18.7467 31.5617 17.9256 31.9702 17.4196L31.9098 17.3167ZM13.3648 13.3268C14.4541 13.3627 15.6 13.4912 16.7909 13.7182C17.1137 13.7808 17.4107 13.8423 17.6836 13.9093C18.5363 14.11 19.1562 14.3326 19.5449 14.5701C19.9792 14.8383 20.0643 15.045 19.8126 15.1938C19.6152 15.3083 19.2168 15.3906 18.6123 15.4475C18.309 15.4727 18.0012 15.4941 17.6836 15.4988C17.3753 15.5089 17.0528 15.504 16.7297 15.4941C16.0993 15.4631 15.4682 15.3846 14.833 15.2624C14.2027 15.1375 13.773 15.0096 13.5509 14.8742C13.3802 14.7655 13.3398 14.6889 13.4252 14.6362C13.4708 14.6118 13.5666 14.5909 13.7173 14.5701C13.829 14.5539 13.9141 14.5231 13.991 14.482C14.1368 14.3938 14.1719 14.2706 14.0964 14.1067C14.0102 13.9359 13.8447 13.7748 13.5869 13.6153C13.5207 13.5793 13.4507 13.5329 13.3648 13.4912C13.269 13.4393 13.1581 13.3828 13.0365 13.3207C13.1482 13.3207 13.2534 13.3268 13.3648 13.3268ZM13.3648 15.9685C12.5983 15.9067 11.9065 15.9067 11.2861 15.9795C10.9435 16.0157 10.6509 16.0723 10.4085 16.1497C10.2366 16.2002 10.09 16.2628 9.96977 16.33C9.9286 16.3147 9.88824 16.299 9.84294 16.2837C8.19772 15.7008 6.463 14.4715 7.33599 13.9612C7.95559 13.5996 8.98121 13.3929 10.4085 13.3517C10.666 13.3416 10.938 13.3416 11.2208 13.3416C11.0091 13.9922 11.5637 14.7249 12.8748 15.5306C13.0422 15.6385 13.2083 15.731 13.3648 15.8194C13.476 15.8859 13.5869 15.9432 13.6923 15.9998C13.5817 15.9897 13.4708 15.9795 13.3648 15.9685ZM21.2351 19.6087C20.1461 19.5005 18.8891 19.2414 17.6836 18.9372C16.3212 18.5965 15.0295 18.2042 14.1368 17.9256C14.9546 17.729 16.0381 17.6414 17.4107 17.6725C17.5016 17.6725 17.5922 17.6725 17.6836 17.6774C19.0702 17.7238 20.2515 17.9195 21.2409 18.2709C20.962 18.5965 20.8665 19.036 21.2351 19.6087ZM24.6154 18.0132C24.661 18.0173 24.7115 18.0173 24.7562 18.023C25.2111 18.0697 25.6141 18.137 26.0179 18.4164C26.4665 18.7258 26.4613 18.9841 26.2856 19.2521C26.1134 19.5148 25.3772 19.6227 24.6154 19.6655C24.0298 19.6908 23.425 19.6806 23.0566 19.66C22.4414 19.01 23.178 17.9464 24.6154 18.0132Z" fill="#05579B"/>
</svg>
