<svg width="32" height="32" viewBox="0 0 33 33" fill="none" xmlns="http://www.w3.org/2000/svg">
    <path fill-rule="evenodd" clip-rule="evenodd"
        d="M0.928955 0.928711C11.5956 0.928711 22.2623 0.928711 32.929 0.928711C32.929 11.5954 32.929 22.262 32.929 32.9287C22.2623 32.9287 11.5956 32.9287 0.928955 32.9287C0.928955 22.262 0.928955 11.5954 0.928955 0.928711Z"
        fill="#FEFEFE" />
    <path
        d="M27.9903 20.9962C28.1076 18.332 27.1693 13.9884 24.8237 10.3977C24.7651 10.2818 24.6477 10.3398 24.7064 10.4556C24.8823 10.9768 24.8823 11.9614 24.0027 11.9035C22.4781 11.7876 24.0027 8.5444 20.6015 6.28571C20.5429 6.2278 20.4256 6.28572 20.4843 6.40154C20.7189 6.86486 20.8948 8.1969 20.3084 8.66023C19.8979 9.06563 19.0769 8.9498 18.3145 7.73359C17.0245 5.70656 17.4936 3.50579 18.3145 2.11583C18.3732 2 18.3145 2 18.1973 2C13.506 3.5637 12.6264 9.00772 11.6295 11.0347C11.4536 11.3822 11.3363 11.556 11.0431 11.556C10.1635 11.4981 10.8086 9.70269 11.1018 9.06563C11.1604 8.9498 11.0431 8.9498 10.9845 9.00772C8.58019 11.4981 6.46913 15.7838 6.05864 19.722C6.05864 19.6062 6.11729 19.5482 6.11729 19.4325C6.05865 19.722 6.05864 20.0116 6 20.3591C6 20.4749 6 20.5908 6 20.7066C6 20.8223 6 20.9961 6 21.1699C6 27.1351 10.9258 32 16.9658 32C23.0058 32 27.9316 27.1351 27.9316 21.1699C27.9903 21.054 27.9903 21.054 27.9903 20.9962ZM17.0245 26.1505C14.2097 26.1505 11.9227 23.8918 11.9227 21.112C11.9227 18.332 14.2097 16.0733 17.0245 16.0733C19.8392 16.0733 22.1263 18.332 22.1263 21.112C22.0676 23.8918 19.8392 26.1505 17.0245 26.1505Z"
        fill="#4285F4" />
</svg>