<svg width="32" height="32" viewBox="0 0 32 32" fill="none" xmlns="http://www.w3.org/2000/svg">
    <path
        d="M16 32C24.8366 32 32 24.8366 32 16C32 7.16344 24.8366 0 16 0C7.16344 0 0 7.16344 0 16C0 24.8366 7.16344 32 16 32Z"
        fill="#087443" />
    <path
        d="M20.2313 26.8497L16.6163 26.8134L16.6522 19.3794L12.9676 19.3338L12.9661 19.3281L7.73552 19.2579L6.92076 16.2191L17.6178 5.69336L20.0662 7.11151L20.1438 16.3485L23.4792 16.4068L23.5166 19.464L20.1695 19.4226L20.2313 26.8497ZM16.4906 16.2847L16.5297 11.4219L11.8647 16.2038L16.4906 16.2847ZM11.848 16.2207L11.866 16.2209L11.8622 16.2067L11.848 16.2207Z"
        fill="white" />
</svg>