<svg width="32" height="32" viewBox="0 0 33 33" fill="none" xmlns="http://www.w3.org/2000/svg">
    <path fill-rule="evenodd" clip-rule="evenodd"
        d="M14.0735 0.240032C22.0183 -0.265769 27.744 3.00379 31.2503 10.0487C33.5895 16.5978 32.4115 22.4286 27.7164 27.5408C22.6419 32.17 16.8342 33.3417 10.293 31.0556C2.64043 27.2505 -0.564807 21.1201 0.677295 12.6644C2.64635 5.82797 7.11177 1.68653 14.0735 0.240032Z"
        fill="#269199" />
    <path fill-rule="evenodd" clip-rule="evenodd"
        d="M26.4014 9.23141C26.9599 9.17903 27.5079 9.23354 28.0451 9.39489C27.6013 10.0822 27.1904 10.7906 26.8123 11.5201C26.5128 11.7727 26.1567 11.8817 25.7439 11.8471C25.4699 11.7926 25.1961 11.7381 24.9221 11.6836C25.4584 10.8887 25.9515 10.0714 26.4014 9.23141Z"
        fill="#F4800D" />
    <path fill-rule="evenodd" clip-rule="evenodd"
        d="M9.79991 18.5495C10.2089 19.2534 10.6198 19.9617 11.0327 20.6747C12.4073 18.4849 13.6949 16.2506 14.8954 13.9721C15.0563 13.7652 15.2207 13.5473 15.3885 13.3182C16.8404 15.7703 18.2925 18.2225 19.7444 20.6747C20.1573 19.9617 20.5682 19.2534 20.9772 18.5495C22.0278 16.8483 23.014 15.1046 23.9358 13.3182C24.5475 12.9666 25.2049 12.9121 25.9083 13.1547C23.8864 16.6634 21.8317 20.1511 19.7444 23.6173C18.3337 21.1924 16.8818 18.7948 15.3885 16.4242C13.8977 18.789 12.4457 21.1867 11.0327 23.6173C9.01951 20.1028 6.96487 16.6153 4.86877 13.1547C5.47147 12.9367 6.07416 12.9367 6.67686 13.1547C7.67827 14.9842 8.71929 16.7824 9.79991 18.5495Z"
        fill="#F8FBFB" />
    <path fill-rule="evenodd" clip-rule="evenodd"
        d="M14.8954 13.9721C13.6949 16.2506 12.4073 18.4849 11.0327 20.6747C10.6199 19.9617 10.2089 19.2534 9.79993 18.5495C9.96362 18.5354 10.1006 18.59 10.2109 18.7129C11.3 16.9008 12.3684 15.0754 13.4161 13.2364C13.9516 13.2018 14.472 13.1201 14.9776 12.9912C14.9554 13.3059 14.928 13.6328 14.8954 13.9721Z"
        fill="#449CA3" />
    <path fill-rule="evenodd" clip-rule="evenodd"
        d="M23.9358 13.3181C23.014 15.1046 22.0278 16.8483 20.9772 18.5494C21.0016 18.3774 20.9744 18.214 20.895 18.059C20.5771 18.7552 20.1934 19.4092 19.7444 20.0207C19.5586 19.5752 19.3121 19.1666 19.0047 18.7946C20.0236 16.9042 21.0648 15.0242 22.1278 13.1547C22.7772 12.9151 23.3799 12.9696 23.9358 13.3181Z"
        fill="#459CA4" />
</svg>