<svg width="32" height="32" viewBox="0 0 32 32" fill="none" xmlns="http://www.w3.org/2000/svg">
<path d="M1.55915 16.7345C1.60611 17.4204 1.72173 18.5523 2.18831 19.359C3.34186 21.3585 5.8007 22.1352 7.86883 21.2372L10.5671 19.6795V9.20206C10.8226 6.96206 12.7246 5.22116 15.0337 5.22219C15.9643 5.22116 17.0017 5.68723 17.6201 5.98916L8.66728 0.830452C7.93334 0.309161 7.03786 0 6.06857 0C5.28354 0 4.5465 0.202323 3.90444 0.554839C2.50108 1.31665 1.54883 2.80258 1.54883 4.51148L1.55915 16.7345Z" fill="#FFC10E"/>
<path d="M18.8964 25.2723C19.4673 24.8883 20.3906 24.222 20.8546 23.4152C22.0097 21.4152 21.4533 18.8976 19.6407 17.5562L16.9423 15.9985L7.86984 21.2372C5.80068 22.1347 3.34338 21.359 2.18932 19.3585C1.72325 18.5528 1.60764 17.4209 1.56016 16.7345L1.56893 27.0679C1.48429 27.9634 1.66493 28.894 2.14855 29.7327C2.54184 30.4129 3.08429 30.9502 3.71139 31.3296C5.07242 32.1647 6.83706 32.2462 8.31629 31.392L18.8964 25.2723Z" fill="#F48120"/>
<path d="M17.6223 5.9907C17.0045 5.68876 15.9655 5.22321 15.0349 5.22424C12.7253 5.22373 10.8233 6.96412 10.5684 9.20463V12.3195L19.6414 17.5571C21.453 18.8996 22.0104 21.4162 20.8538 23.4162C20.3913 24.223 19.4669 24.8893 18.8966 25.2733L27.8411 20.0996C28.6597 19.7239 29.3746 19.104 29.8597 18.2642C30.252 17.584 30.445 16.8454 30.4605 16.113C30.5033 14.5166 29.6925 12.9486 28.2127 12.0939L17.6223 5.9907Z" fill="#5476B9"/>
<path opacity="0.6" d="M15.0349 5.22424C12.7253 5.22373 10.8233 6.96412 10.5684 9.20463V12.3195L12.5616 13.4627V10.3179C12.8171 8.07792 13.6992 5.75741 16.0089 5.75844C16.8156 5.75741 17.7033 6.10786 18.3278 6.39792L17.6223 5.9907C17.004 5.68876 15.965 5.22321 15.0349 5.22424Z" fill="#717573"/>
<path opacity="0.6" d="M2.18971 19.359C3.34377 21.3584 5.80261 22.1352 7.87023 21.2371L10.5685 19.6795L10.5613 17.3817L7.83874 18.9538C5.7701 19.8519 3.31952 20.2493 2.16597 18.2482C1.76184 17.5494 1.62145 16.6059 1.56055 15.92V16.735C1.60803 17.4209 1.72364 18.5522 2.18971 19.359Z" fill="#717573"/>
<path opacity="0.6" d="M20.8534 23.4168C22.009 21.4173 21.4526 18.8991 19.6395 17.5577L16.9417 16L14.9551 17.1546L17.6777 18.7267C19.4903 20.0681 21.0593 21.9923 19.9037 23.9917C19.5011 24.6911 18.7533 25.2846 18.1902 25.6805L18.8952 25.2733C19.4666 24.8893 20.3889 24.223 20.8534 23.4168Z" fill="#717573"/>
</svg>
