<svg width="32" height="32" viewBox="0 0 33 33" fill="none" xmlns="http://www.w3.org/2000/svg">
    <path fill-rule="evenodd" clip-rule="evenodd"
        d="M25.0479 0.492999C25.4845 0.455903 25.8498 0.600051 26.1438 0.925355C26.2539 1.7611 26.4731 2.55374 26.8014 3.30331C27.8139 3.51802 28.8367 3.59009 29.8699 3.51949C29.7969 7.41337 29.87 11.3046 30.089 15.1931C30.9823 18.2686 31.786 21.3672 32.5 24.4887C32.4627 24.9675 32.3165 25.3999 32.0616 25.7858C31.3597 25.904 30.7022 26.1202 30.089 26.4343C29.8714 27.433 29.7983 28.4418 29.8699 29.4608C25.6299 29.3888 21.3924 29.4609 17.1575 29.677C13.7813 30.6251 10.4206 31.5619 7.07534 32.4873C7.36106 29.938 6.19214 28.9291 3.56849 29.4608C3.64148 25.4229 3.56841 21.3876 3.34932 17.3549C2.39953 14.0401 1.44979 10.7254 0.5 7.41069C1.46732 6.92005 2.49018 6.6318 3.56849 6.54598C3.56849 5.53716 3.56849 4.5283 3.56849 3.51949C11.0576 4.28856 18.2174 3.27975 25.0479 0.492999Z"
        fill="#F8F8F8" />
    <path fill-rule="evenodd" clip-rule="evenodd"
        d="M14.0896 6.1133C17.7071 5.97676 21.287 6.12086 24.8293 6.54565C27.0771 12.2584 27.8076 18.1672 27.0211 24.2722C21.0442 26.614 14.8342 27.4787 8.39099 26.8664C7.82051 23.9832 7.16297 21.1008 6.41838 18.2193C6.19934 14.9077 6.12626 11.5929 6.1992 8.27507C8.94559 7.81513 11.5757 7.09457 14.0896 6.1133Z"
        fill="#060606" />
    <path fill-rule="evenodd" clip-rule="evenodd"
        d="M15.4043 10.0039C16.281 10.0039 17.1577 10.0039 18.0344 10.0039C18.0344 14.3275 18.0344 18.651 18.0344 22.9746C17.1577 22.9746 16.281 22.9746 15.4043 22.9746C15.4043 18.651 15.4043 14.3275 15.4043 10.0039Z"
        fill="#F9F9F9" />
</svg>