<svg width="32" height="32" viewBox="0 0 33 33" fill="none" xmlns="http://www.w3.org/2000/svg">
    <path opacity="0.997" fill-rule="evenodd" clip-rule="evenodd"
        d="M31.8919 0.5C32.0725 0.5 32.2529 0.5 32.4335 0.5C32.4437 8.29318 32.4333 16.086 32.4023 23.8785C32.1727 25.3444 31.3708 26.355 29.9964 26.9102C28.4315 27.3932 27.0808 27.0494 25.945 25.8788C25.4369 25.2858 25.1384 24.5982 25.0493 23.816C25.0353 18.3221 25.0353 12.8283 25.0493 7.33437C25.2895 4.88841 26.4247 2.98881 28.455 1.63559C29.5084 0.975272 30.654 0.596742 31.8919 0.5Z"
        fill="#2A9D8E" />
    <path opacity="0.998" fill-rule="evenodd" clip-rule="evenodd"
        d="M15.957 7.33444C17.3674 7.23965 18.5027 7.74669 19.3627 8.8555C19.7777 9.44094 20.0068 10.0938 20.0501 10.8141C20.0641 16.8845 20.0641 22.9549 20.0501 29.0252C19.8924 30.5994 19.0836 31.6865 17.6234 32.2861C16.2484 32.7249 15.0055 32.4887 13.8949 31.5777C13.1885 30.9388 12.7823 30.1437 12.6763 29.1919C12.6556 22.9474 12.6625 16.7035 12.6971 10.4599C12.9368 9.14948 13.6554 8.20838 14.853 7.63657C15.2103 7.4865 15.5783 7.3858 15.957 7.33444Z"
        fill="#F1D47C" />
    <path opacity="0.997" fill-rule="evenodd" clip-rule="evenodd"
        d="M0.438683 11.2725C3.04881 11.3327 5.10057 12.4231 6.59395 14.5438C7.3364 15.6745 7.74606 16.9177 7.82292 18.2735C7.83682 20.7531 7.83682 23.2326 7.82292 25.7121C7.66155 27.1576 6.92904 28.1959 5.62536 28.8272C4.1935 29.3815 2.88121 29.18 1.68848 28.2229C0.974035 27.5699 0.560913 26.7608 0.449098 25.7955C0.438683 20.9545 0.435204 16.1135 0.438683 11.2725Z"
        fill="#E66F50" />
</svg>