<svg width="33" height="32" viewBox="0 0 33 32" fill="none" xmlns="http://www.w3.org/2000/svg">
<path fill-rule="evenodd" clip-rule="evenodd" d="M32.5781 13.0169C32.7531 14.81 32.8129 16.6179 32.7578 18.4407C31.6901 18.7885 30.6118 19.1199 29.523 19.435C28.8602 19.5164 28.2013 19.4862 27.5461 19.3446C27.1867 19.224 26.8273 19.1036 26.4678 18.9831C27.8536 13.4262 26.0565 9.29812 21.0765 6.59887C16.0557 4.88866 11.9522 6.12406 8.76619 10.3051C6.09138 15.5513 6.96 20.1012 11.372 23.9548C12.1046 24.4438 12.8834 24.8356 13.7083 25.1299C14.1285 25.4084 14.6077 25.5288 15.146 25.4915C16.7407 25.6246 18.3582 25.6848 19.9982 25.6723C20.2866 26.1811 20.4664 26.7234 20.5373 27.2994C20.5404 27.6728 20.6002 28.0344 20.7171 28.3842C20.4177 29.589 20.1181 30.7943 19.8185 32C18.0214 32 16.2242 32 14.4271 32C14.1957 30.6688 13.8363 29.3731 13.3489 28.113C12.6214 27.7988 11.9025 27.4674 11.1923 27.1186C10.1704 27.5146 9.21197 28.0269 8.31691 28.6554C8.0773 28.776 7.83767 28.776 7.59806 28.6554C6.41121 27.5661 5.24308 26.4512 4.09368 25.3107C4.48674 24.0674 5.05584 22.8923 5.80094 21.7853C5.42331 21.0567 5.12381 20.3035 4.90238 19.5254C3.99615 19.3126 3.09759 19.0715 2.2067 18.8023C1.82941 18.6012 1.41009 18.4806 0.948714 18.4407C0.918792 16.6921 0.94875 14.9444 1.03857 13.1977C1.88085 12.8651 2.74947 12.6241 3.6444 12.4746C3.98639 12.4211 4.28592 12.3006 4.54296 12.113C5.00329 11.3686 5.42263 10.5852 5.80094 9.76271C5.55166 8.9596 5.16228 8.23644 4.63281 7.59322C4.39665 7.1251 4.27684 6.643 4.27339 6.14689C5.40937 4.97403 6.5775 3.82903 7.77778 2.71186C8.81535 3.35429 9.89362 3.89666 11.0126 4.33898C11.835 4.23765 12.6138 3.9966 13.3489 3.61582C13.8143 2.43938 14.1738 1.23412 14.4271 0C16.2242 0 18.0214 0 19.8185 0C20.1774 1.20226 20.5368 2.40754 20.8968 3.61582C21.8447 4.31732 22.8632 4.468 23.9519 4.0678C24.7518 3.59033 25.5605 3.13835 26.378 2.71186C27.5761 3.91714 28.7741 5.1224 29.9722 6.32768C29.4841 7.52107 28.915 8.69621 28.265 9.85311C28.5989 10.5585 28.8983 11.2817 29.1635 12.0226C30.2776 12.4384 31.4157 12.7698 32.5781 13.0169Z" fill="#050504"/>
<path fill-rule="evenodd" clip-rule="evenodd" d="M4.54309 12.113C4.28605 12.3006 3.98652 12.4211 3.64453 12.4746C3.84858 12.1648 4.14808 12.0443 4.54309 12.113Z" fill="#737271"/>
<path fill-rule="evenodd" clip-rule="evenodd" d="M16.0444 10.4859C19.0813 10.2179 21.148 11.4834 22.2444 14.2825C22.2745 14.7043 22.3043 15.1262 22.3343 15.548C22.2955 16.4098 22.2056 17.2536 22.0647 18.0791C22.8463 18.8352 23.595 19.6185 24.3111 20.4294C23.4755 21.3001 22.6069 22.1436 21.7053 22.9604C20.9047 22.3364 20.1558 21.6432 19.4589 20.8813C16.0963 21.8862 13.6104 20.8314 12.0008 17.7175C11.1837 14.0559 12.5315 11.6454 16.0444 10.4859Z" fill="#FF7E12"/>
<path fill-rule="evenodd" clip-rule="evenodd" d="M13.1679 15.1864C13.2294 14.6703 13.5289 14.3991 14.0665 14.3729C14.2017 14.2516 14.2616 14.101 14.2462 13.9209C14.2097 13.6417 14.0899 13.4006 13.8867 13.1977C14.1752 12.5973 14.5346 12.5371 14.965 13.017C15.5532 12.9154 15.7329 12.614 15.5042 12.113C15.8284 11.8837 16.1878 11.7632 16.5824 11.7514C16.5824 11.9322 16.5824 12.113 16.5824 12.2938C17.13 12.4103 17.5193 12.2295 17.7506 11.7514C18.0217 11.858 18.2913 11.9786 18.5593 12.113C18.3305 12.614 18.5102 12.9154 19.0984 13.017C19.4384 12.557 19.7678 12.557 20.0868 13.017C19.6451 13.9359 19.9747 14.3579 21.0752 14.2825C20.8333 14.9218 20.6536 15.5845 20.5361 16.2712C20.7158 16.2712 20.8955 16.2712 21.0752 16.2712C21.2632 17.1357 20.9636 17.4673 20.1767 17.2655C20.0568 17.4463 19.9371 17.6271 19.8173 17.8079C20.3131 18.2733 20.2532 18.6649 19.6375 18.9831C18.7825 18.393 18.423 18.634 18.5593 19.7062C18.2638 19.6675 17.9943 19.7279 17.7506 19.887C17.6298 19.2488 17.2405 19.0078 16.5824 19.1638C16.5824 19.4048 16.5824 19.646 16.5824 19.887C16.2658 19.9129 15.9662 19.8525 15.6839 19.7062C15.488 19.5451 15.488 19.3643 15.6839 19.1638C15.3749 18.5475 14.9855 18.4873 14.5157 18.9831C14.2652 18.7818 14.0555 18.5407 13.8867 18.2599C14.3501 17.8739 14.3202 17.5123 13.7969 17.1751C13.5843 17.3977 13.3747 17.3977 13.1679 17.1751C13.0224 16.8911 12.9625 16.5897 12.9882 16.2712C13.2278 16.2712 13.4674 16.2712 13.707 16.2712C13.7358 15.964 13.7059 15.6627 13.6172 15.3672C13.4966 15.2313 13.3469 15.1709 13.1679 15.1864Z" fill="#FFFAF7"/>
<path fill-rule="evenodd" clip-rule="evenodd" d="M32.5781 13.017C32.8168 13.852 32.9365 14.756 32.9375 15.7288C32.9374 16.665 32.8775 17.5689 32.7578 18.4407C32.813 16.6179 32.7532 14.81 32.5781 13.017Z" fill="#BEBCBB"/>
<path fill-rule="evenodd" clip-rule="evenodd" d="M14.2489 13.9209C14.2643 14.101 14.2044 14.2516 14.0692 14.3729C13.5316 14.3991 13.2321 14.6703 13.1706 15.1864C12.9732 14.9874 12.9433 14.7464 13.0808 14.4633C13.5075 14.3496 13.8969 14.1688 14.2489 13.9209Z" fill="#FFD5B4"/>
<path fill-rule="evenodd" clip-rule="evenodd" d="M0.949219 18.4407C1.41059 18.4806 1.82992 18.6012 2.2072 18.8023C1.71691 18.8617 1.29759 18.7413 0.949219 18.4407Z" fill="#A3A1A0"/>
<path fill-rule="evenodd" clip-rule="evenodd" d="M26.4668 18.983C26.8262 19.1036 27.1857 19.224 27.5451 19.3446C27.1095 19.4003 26.6902 19.3399 26.2871 19.1638C26.3094 19.0541 26.3692 18.9939 26.4668 18.983Z" fill="#A09F9E"/>
<path fill-rule="evenodd" clip-rule="evenodd" d="M25.3892 20.2486C27.1145 20.4211 28.7919 20.8126 30.4212 21.4237C30.7962 21.5669 31.1258 21.7779 31.4096 22.0565C31.7239 23.3976 32.0833 24.7233 32.4878 26.0339C32.6478 26.6135 32.5879 27.1559 32.3081 27.661C30.9278 26.2422 29.5201 24.856 28.0849 23.5028C26.9193 24.5849 25.7812 25.6998 24.6704 26.8475C26.0807 28.2361 27.4586 29.6522 28.8037 31.096C26.7502 31.2736 24.8332 30.8518 23.053 29.8305C22.7485 29.4592 22.5388 29.0372 22.424 28.565C22.2254 27.2924 21.896 26.057 21.4355 24.8588C21.5254 24.5876 21.6153 24.3164 21.7051 24.0452C22.854 22.6788 24.082 21.4132 25.3892 20.2486Z" fill="#FF7C0C"/>
<path fill-rule="evenodd" clip-rule="evenodd" d="M25.0312 22.2373C25.7228 22.4058 26.2019 22.8278 26.4689 23.5028C26.3135 23.6986 26.1338 23.7286 25.9298 23.5932C25.437 23.2522 25.1375 22.8003 25.0312 22.2373Z" fill="#FEEDDF"/>
<path fill-rule="evenodd" clip-rule="evenodd" d="M24.3125 22.9604C25.0344 23.2045 25.5135 23.6867 25.7502 24.4068C25.0977 24.2065 24.5586 23.8149 24.1328 23.2316C24.2327 23.1624 24.2926 23.072 24.3125 22.9604Z" fill="#FFEFE3"/>
<path fill-rule="evenodd" clip-rule="evenodd" d="M23.5938 23.6836C24.0565 23.9056 24.4758 24.207 24.8517 24.5876C25.0895 24.8956 25.0297 25.1366 24.672 25.3107C24.1548 24.855 23.7954 24.3126 23.5938 23.6836Z" fill="#FFEEE0"/>
<path fill-rule="evenodd" clip-rule="evenodd" d="M13.707 25.1299C14.2333 25.1417 14.7125 25.2623 15.1447 25.4915C14.6065 25.5288 14.1273 25.4084 13.707 25.1299Z" fill="#8E8D8C"/>
<path fill-rule="evenodd" clip-rule="evenodd" d="M20.5371 27.2994C20.8895 27.6285 20.9494 27.9901 20.7168 28.3842C20.6 28.0344 20.5402 27.6728 20.5371 27.2994Z" fill="#878686"/>
</svg>
