<svg width="32" height="32" viewBox="0 0 32 32" fill="none" xmlns="http://www.w3.org/2000/svg">
<g clip-path="url(#clip0_157_1934)">
<path fill-rule="evenodd" clip-rule="evenodd" d="M18.7031 0.497778C19.3212 0.474215 19.9375 0.497917 20.552 0.568889C20.6773 0.669625 20.772 0.788143 20.8365 0.924445C20.4667 0.801377 20.0874 0.706562 19.6987 0.64C19.3366 0.719173 19.0048 0.861395 18.7031 1.06667C18.8927 0.877038 18.8927 0.687407 18.7031 0.497778Z" fill="#33281F"/>
<path fill-rule="evenodd" clip-rule="evenodd" d="M20.8359 0.924438C21.1677 0.971845 21.3575 1.16148 21.4048 1.49333C21.1677 1.35111 20.9782 1.16148 20.8359 0.924438Z" fill="#483F46"/>
<path fill-rule="evenodd" clip-rule="evenodd" d="M14.0088 0.355552C16.3758 0.117193 17.7505 1.16016 18.1332 3.48444C17.2258 3.46919 16.3251 3.54031 15.431 3.69777C15.0008 3.71676 14.6215 3.85898 14.2932 4.12444C16.9556 3.49353 19.5631 3.68315 22.1154 4.69333C22.3231 4.80871 22.3704 4.92723 22.2576 5.04889C21.6602 4.81796 21.0439 4.67574 20.4088 4.62222C20.4088 4.66962 20.4088 4.71704 20.4088 4.76444C18.891 4.74076 17.3739 4.76447 15.8576 4.83555C16.0472 4.88295 16.237 4.93037 16.4265 4.97777C15.8926 5.24249 15.466 5.10027 15.1465 4.55111C14.7351 4.38772 14.3084 4.31661 13.8665 4.33777C13.8665 4.19555 13.8665 4.05333 13.8665 3.91111C14.1237 3.91233 14.3608 3.84122 14.5776 3.69777C13.9019 3.38703 13.1908 3.1737 12.4443 3.05777C12.7663 2.79983 13.0982 2.53909 13.4399 2.27555C12.7921 2.38434 12.1758 2.62138 11.591 2.98666C10.2319 4.04528 9.37853 5.42009 9.03098 7.11111C9.04092 7.21988 9.08834 7.29099 9.1732 7.32444C8.92891 7.96178 9.07113 8.0566 9.59987 7.60889C9.71329 7.67387 9.76071 7.76869 9.74209 7.89333C9.32056 8.24347 8.9176 8.62273 8.5332 9.03111C8.56023 5.42641 10.2432 2.96122 13.5821 1.63555C14.3003 1.46453 15.0114 1.2986 15.7154 1.13777C15.2383 1.06014 14.7642 1.08384 14.2932 1.20889C14.0007 1.19974 13.7637 1.29456 13.5821 1.49333C13.2355 1.52978 12.9036 1.62459 12.5865 1.77777C12.5391 1.73037 12.4917 1.68295 12.4443 1.63555C12.8918 1.10562 13.4133 0.678951 14.0088 0.355552Z" fill="#ED9046"/>
<path fill-rule="evenodd" clip-rule="evenodd" d="M13.582 1.63556C13.582 1.58815 13.582 1.54074 13.582 1.49333C13.7636 1.29456 14.0006 1.19974 14.2931 1.20889C14.7642 1.08385 15.2382 1.06014 15.7154 1.13778C15.0114 1.29861 14.3003 1.46453 13.582 1.63556Z" fill="#5D3B1C"/>
<path fill-rule="evenodd" clip-rule="evenodd" d="M18.5607 0.497772C18.6081 0.497772 18.6556 0.497772 18.7029 0.497772C18.8925 0.687402 18.8925 0.877032 18.7029 1.06666C19.0046 0.861389 19.3364 0.719167 19.6985 0.639995C20.0872 0.706556 20.4665 0.801371 20.8363 0.924439C20.9785 1.16148 21.1681 1.35111 21.4052 1.49333C21.4835 1.96361 21.5309 2.4377 21.5474 2.91555C21.5474 3.05777 21.5474 3.19999 21.5474 3.34222C21.4 3.76098 21.0918 3.95062 20.6229 3.91111C19.9189 3.8897 19.3027 3.65267 18.774 3.19999C18.7302 3.31492 18.6591 3.40973 18.5607 3.48444C18.2902 2.68945 17.9346 1.93093 17.494 1.20888C17.1551 0.814527 16.7521 0.506378 16.2852 0.284439C17.0414 0.321081 17.7998 0.392192 18.5607 0.497772Z" fill="#E09248"/>
<path fill-rule="evenodd" clip-rule="evenodd" d="M20.4082 1.20889C20.6926 1.20889 20.8349 1.35112 20.8349 1.63556C20.6453 1.54074 20.5031 1.39852 20.4082 1.20889Z" fill="#43231F"/>
<path fill-rule="evenodd" clip-rule="evenodd" d="M20.4089 1.20888C19.9342 1.14705 19.5075 1.24187 19.1289 1.49333C19.2154 1.13912 19.4525 0.949494 19.84 0.924438C20.0777 0.948362 20.2673 1.04318 20.4089 1.20888Z" fill="#333226"/>
<path fill-rule="evenodd" clip-rule="evenodd" d="M20.4088 1.20889C20.5037 1.39852 20.6459 1.54073 20.8355 1.63555C20.8251 1.85271 20.92 1.99493 21.12 2.06222C21.12 2.10962 21.12 2.15704 21.12 2.20444C21.134 2.59373 21.0865 2.973 20.9777 3.34222C20.7025 3.43459 20.4181 3.482 20.1244 3.48444C19.3422 3.05782 19.0104 2.39411 19.1288 1.49333C19.5074 1.24187 19.9341 1.14706 20.4088 1.20889Z" fill="#F5DDC9"/>
<path fill-rule="evenodd" clip-rule="evenodd" d="M18.7024 1.06667C18.6382 1.58761 18.5671 2.1091 18.4891 2.63111C18.3943 2.20444 18.3943 1.77778 18.4891 1.35111C18.5287 1.22086 18.5998 1.12605 18.7024 1.06667Z" fill="#1F130F"/>
<path fill-rule="evenodd" clip-rule="evenodd" d="M20.8348 1.63556C21.0347 1.70284 21.1296 1.84507 21.1192 2.06223C20.9192 1.99494 20.8244 1.85272 20.8348 1.63556Z" fill="#302424"/>
<path fill-rule="evenodd" clip-rule="evenodd" d="M21.4043 1.49333C21.734 1.733 21.8762 2.06485 21.831 2.48889C21.7361 2.63111 21.6414 2.77333 21.5465 2.91555C21.53 2.4377 21.4827 1.96362 21.4043 1.49333Z" fill="#624938"/>
<path fill-rule="evenodd" clip-rule="evenodd" d="M19.1287 1.49333C19.0102 2.39411 19.342 3.05782 20.1242 3.48444C19.1075 3.15776 18.7757 2.49405 19.1287 1.49333Z" fill="#342722"/>
<path fill-rule="evenodd" clip-rule="evenodd" d="M21.1207 2.20444C21.214 2.36395 21.2614 2.55358 21.263 2.77333C21.2509 3.03399 21.156 3.22362 20.9785 3.34222C21.0873 2.97299 21.1348 2.59373 21.1207 2.20444Z" fill="#363323"/>
<path fill-rule="evenodd" clip-rule="evenodd" d="M14.7209 -0.071106C15.432 -0.071106 16.1431 -0.071106 16.8542 -0.071106C17.436 0.0744903 18.0049 0.26412 18.5609 0.497783C17.8 0.392203 17.0415 0.321092 16.2853 0.28445C16.7522 0.506389 17.1553 0.814537 17.4942 1.20889C17.9348 1.93094 18.2904 2.68946 18.5609 3.48445C18.6593 3.40974 18.7304 3.31494 18.7742 3.20001C19.3029 3.65268 19.9191 3.88971 20.6231 3.91112C21.092 3.95063 21.4002 3.76099 21.5475 3.34223C21.5475 3.43705 21.5475 3.53185 21.5475 3.62667C21.5161 3.80229 21.4213 3.94451 21.2631 4.05334C21.4919 4.25079 21.7526 4.39301 22.0453 4.48001C22.1918 4.4322 22.2629 4.33738 22.2587 4.19556C22.5093 4.30398 22.6515 4.4936 22.6853 4.76445C22.6695 4.85226 22.6222 4.92337 22.5431 4.97778C22.7731 5.13302 22.9153 5.34635 22.9698 5.61778C22.1503 5.25665 21.2969 4.97221 20.4098 4.76445C20.4098 4.71705 20.4098 4.66963 20.4098 4.62223C21.0449 4.67575 21.6612 4.81797 22.2587 5.04889C22.3714 4.92724 22.3241 4.80872 22.1164 4.69334C19.5641 3.68316 16.9566 3.49354 14.2942 4.12445C14.6225 3.85899 15.0018 3.71677 15.432 3.69778C16.3261 3.54031 17.2268 3.4692 18.1342 3.48445C17.7515 1.16016 16.3768 0.117202 14.0098 0.355561C14.2333 0.186702 14.4704 0.04448 14.7209 -0.071106Z" fill="#291912"/>
<path fill-rule="evenodd" clip-rule="evenodd" d="M12.4446 3.05778C11.218 4.37201 10.1276 5.79424 9.17347 7.32445C9.08861 7.291 9.04119 7.21989 9.03125 7.11111C9.3788 5.42009 10.2321 4.04529 11.5913 2.98667C12.176 2.62139 12.7923 2.38434 13.4401 2.27556C13.0985 2.5391 12.7666 2.79983 12.4446 3.05778Z" fill="#FADFCB"/>
<path fill-rule="evenodd" clip-rule="evenodd" d="M0.924724 13.8667C0.817108 15.2863 0.769699 16.7086 0.782502 18.1333C0.687843 17.5902 0.640436 17.0213 0.64028 16.4267C0.616556 15.5392 0.711371 14.6859 0.924724 13.8667Z" fill="#333333"/>
<path fill-rule="evenodd" clip-rule="evenodd" d="M31.0762 14.72C31.2891 15.2495 31.3838 15.8184 31.3606 16.4267C31.3602 16.8327 31.3128 17.212 31.2184 17.5644C31.2339 16.6121 31.1865 15.6639 31.0762 14.72Z" fill="#ADADAD"/>
<path fill-rule="evenodd" clip-rule="evenodd" d="M14.008 0.35556C13.4125 0.678959 12.8911 1.10563 12.4436 1.63556C12.491 1.68296 12.5384 1.73038 12.5858 1.77778C12.9029 1.62459 13.2347 1.52979 13.5813 1.49334C13.5813 1.54074 13.5813 1.58816 13.5813 1.63556C10.2424 2.96123 8.55947 5.42642 8.53245 9.03112C8.91685 8.62274 9.31981 8.24348 9.74134 7.89334C9.94358 7.69067 10.1806 7.54845 10.4525 7.46667C9.28947 8.62806 8.29391 9.90806 7.46578 11.3067C7.44573 11.8176 7.35092 12.3154 7.18134 12.8C7.22874 12.9185 7.27616 13.037 7.32356 13.1556C7.50391 12.8989 7.59873 12.6145 7.60801 12.3022C7.65541 12.3022 7.70282 12.3022 7.75023 12.3022C7.67959 13.4885 8.12995 14.3892 9.10134 15.0044C9.47093 14.5977 9.73167 14.1236 9.88356 13.5822C9.99698 13.6472 10.0444 13.742 10.0258 13.8667C9.46799 15.1559 9.34947 16.4833 9.67023 17.8489C11.0101 20.3247 13.0723 21.818 15.8569 22.3289C16.9947 22.4238 18.1325 22.4238 19.2702 22.3289C19.8698 22.2265 20.4387 22.0369 20.9769 21.76C21.2184 20.5643 21.408 19.3555 21.5458 18.1333C21.6756 17.3426 21.9127 16.584 22.2569 15.8578C21.904 17.3524 21.6907 18.8695 21.6169 20.4089C21.5311 21.0694 21.3178 21.6856 20.9769 22.2578C21.3078 22.494 21.5923 22.7785 21.8302 23.1111C21.5323 22.9814 21.2478 22.8154 20.9769 22.6133C20.7873 22.5185 20.5976 22.5185 20.408 22.6133C18.2983 24.4956 15.833 25.657 13.0125 26.0978C11.9698 26.1621 10.9268 26.2332 9.88356 26.3111C9.61872 26.7759 9.42909 27.2737 9.31467 27.8044C8.96589 28.2802 8.82366 28.8017 8.88801 29.3689C11.0549 30.5833 13.3779 31.1285 15.8569 31.0044C16.1722 30.5237 16.5515 30.1208 16.9947 29.7956C16.7614 30.1723 16.5243 30.5516 16.2836 30.9333C17.7473 31.3404 18.8377 30.89 19.5547 29.5822C20.8452 28.4328 22.1726 27.3424 23.5369 26.3111C23.9364 26.0635 24.3631 25.8975 24.8169 25.8133C22.6716 27.009 20.8227 28.5734 19.2702 30.5067C19.4125 30.554 19.5547 30.6015 19.6969 30.6489C21.4893 30.1082 23.1485 29.3023 24.6747 28.2311C25.5739 27.5688 26.3799 26.8103 27.0925 25.9556C26.9868 25.8586 26.8921 25.7637 26.808 25.6711C26.8554 25.6711 26.9029 25.6711 26.9502 25.6711C27.0998 25.6923 27.2421 25.6687 27.3769 25.6C31.5106 19.6666 31.5342 13.7171 27.448 7.75112C26.0814 6.07479 24.4458 4.74738 22.5413 3.76889C22.3516 3.60504 22.1383 3.46282 21.9013 3.34223C21.7549 3.39003 21.6837 3.48485 21.688 3.62667C21.6406 3.62667 21.5931 3.62667 21.5458 3.62667C21.5458 3.53185 21.5458 3.43705 21.5458 3.34223C21.5458 3.2 21.5458 3.05778 21.5458 2.91556C21.6406 2.77334 21.7354 2.63112 21.8302 2.48889C27.0617 4.9255 30.1433 9.00254 31.0747 14.72C31.185 15.6639 31.2324 16.6121 31.2169 17.5644C31.1459 18.1319 31.0748 18.7008 31.0036 19.2711C29.218 26.5328 24.6432 30.752 17.2791 31.9289C16.1887 31.9289 15.0984 31.9289 14.008 31.9289C12.8886 31.625 11.7509 31.3168 10.5947 31.0044C4.87154 28.577 1.60042 24.2866 0.781339 18.1333C0.768536 16.7086 0.815944 15.2863 0.923561 13.8667C1.08506 12.8462 1.3458 11.8506 1.70578 10.88C3.77089 6.30226 7.20792 3.29188 12.0169 1.84889C12.4672 1.04006 13.1309 0.54228 14.008 0.35556Z" fill="#110E10"/>
<path fill-rule="evenodd" clip-rule="evenodd" d="M21.8303 23.1111C22.0293 23.3088 22.2664 23.451 22.5414 23.5378C22.8866 23.8305 23.2657 24.0912 23.6792 24.32C22.9418 24.8458 22.2307 25.3909 21.5459 25.9556C21.3962 25.9344 21.254 25.958 21.1192 26.0267C19.7018 27.104 18.3507 28.2655 17.0659 29.5111C16.9999 29.5956 16.9761 29.6905 16.9947 29.7956C16.5516 30.1208 16.1723 30.5237 15.857 31.0044C13.3779 31.1285 11.055 30.5833 8.88808 29.3689C8.82374 28.8017 8.96596 28.2802 9.31474 27.8044C9.52341 27.8605 9.73675 27.9078 9.95474 27.9467C10.7899 27.671 11.6196 27.434 12.4436 27.2356C13.2607 27.1945 14.0666 27.2656 14.8614 27.4489C15.2305 27.7636 15.6334 28.0245 16.0703 28.2311C16.5056 28.0094 16.8137 27.6776 16.9947 27.2356C16.6715 27.4158 16.387 27.6527 16.1414 27.9467C15.3915 27.3562 14.5381 27.0717 13.5814 27.0933C12.6044 26.9124 11.6088 26.7702 10.5947 26.6667C10.4371 26.5543 10.2475 26.4832 10.0259 26.4533C10.8318 26.406 11.6377 26.3585 12.4436 26.3111C12.6652 26.2812 12.8549 26.2101 13.0125 26.0978C15.8331 25.657 18.2984 24.4956 20.4081 22.6133C20.5977 22.5185 20.7874 22.5185 20.977 22.6133C21.2479 22.8154 21.5323 22.9814 21.8303 23.1111Z" fill="#F85722"/>
<path fill-rule="evenodd" clip-rule="evenodd" d="M12.4453 27.2356C12.7935 27.0972 13.1727 27.0498 13.5831 27.0933C14.5398 27.0717 15.3932 27.3562 16.1431 27.9467C16.3887 27.6527 16.6732 27.4158 16.9964 27.2356C16.8154 27.6776 16.5073 28.0094 16.072 28.2311C15.6351 28.0245 15.2322 27.7636 14.8631 27.4489C14.0683 27.2656 13.2624 27.1945 12.4453 27.2356Z" fill="#37190D"/>
<path fill-rule="evenodd" clip-rule="evenodd" d="M13.0142 26.0978C12.8565 26.2101 12.6669 26.2812 12.4453 26.3111C11.6394 26.3585 10.8334 26.406 10.0275 26.4533C10.2491 26.4832 10.4388 26.5543 10.5964 26.6667C10.3626 26.6362 10.1493 26.6837 9.95641 26.8089C9.54264 27.8212 9.80339 28.0346 10.7386 27.4489C11.3027 27.3311 11.8716 27.26 12.4453 27.2356C11.6212 27.434 10.7916 27.671 9.95641 27.9467C9.73841 27.9078 9.52507 27.8605 9.31641 27.8044C9.43082 27.2737 9.62045 26.7759 9.8853 26.3111C10.9285 26.2332 11.9715 26.1621 13.0142 26.0978Z" fill="#B44A21"/>
<path fill-rule="evenodd" clip-rule="evenodd" d="M26.8093 25.6711C26.8933 25.7637 26.988 25.8586 27.0937 25.9556C26.3812 26.8103 25.5752 27.5688 24.6759 28.2311C23.1497 29.3023 21.4906 30.1082 19.6982 30.6489C19.5559 30.6015 19.4137 30.554 19.2715 30.5067C20.824 28.5734 22.6729 27.009 24.8182 25.8133C24.8655 25.8133 24.913 25.8133 24.9604 25.8133C25.5716 25.7138 26.1879 25.6664 26.8093 25.6711Z" fill="#F35722"/>
<path fill-rule="evenodd" clip-rule="evenodd" d="M10.596 26.6667C11.6101 26.7702 12.6056 26.9124 13.5827 27.0933C13.1723 27.0498 12.793 27.0972 12.4449 27.2356C11.8712 27.26 11.3023 27.3311 10.7382 27.4489C9.80297 28.0346 9.54222 27.8212 9.95599 26.8089C10.1489 26.6837 10.3622 26.6362 10.596 26.6667Z" fill="#110605"/>
<path fill-rule="evenodd" clip-rule="evenodd" d="M6.04429 21.12C5.63726 21.5548 5.37651 22.0763 5.26207 22.6844C5.02228 23.4823 4.99857 24.2883 5.19095 25.1022C5.49845 24.886 5.8303 24.7438 6.18651 24.6756C6.57361 25.025 6.85806 25.4517 7.03984 25.9556C6.93377 26.1313 6.88636 26.3211 6.89762 26.5244C6.71616 26.6504 6.71616 26.7927 6.89762 26.9511C7.23371 27.0464 7.56555 27.1413 7.89318 27.2356C8.33018 27.6928 8.51981 28.2617 8.46207 28.9422C7.74158 28.6522 7.07789 28.2492 6.47095 27.7333C5.5324 26.7489 4.65536 25.7296 3.83984 24.6756C3.90874 22.9992 4.40651 21.4583 5.33318 20.0533C6.12806 19.511 6.98139 19.2503 7.89318 19.2711C7.12471 19.7551 6.5084 20.3715 6.04429 21.12Z" fill="#F05723"/>
<path fill-rule="evenodd" clip-rule="evenodd" d="M7.89269 26.9511C7.4812 27.0178 7.19675 26.8756 7.03936 26.5244C7.03387 26.3458 7.10498 26.2036 7.25269 26.0978C7.55163 26.3246 7.76496 26.6091 7.89269 26.9511Z" fill="#D75829"/>
<path fill-rule="evenodd" clip-rule="evenodd" d="M6.89781 26.5244C6.94522 26.5244 6.99263 26.5244 7.04004 26.5244C7.19743 26.8756 7.48188 27.0178 7.89337 26.9511C7.89337 27.046 7.89337 27.1407 7.89337 27.2356C7.56575 27.1413 7.2339 27.0464 6.89781 26.9511C6.71635 26.7927 6.71635 26.6505 6.89781 26.5244Z" fill="#511D12"/>
<path fill-rule="evenodd" clip-rule="evenodd" d="M24.9607 25.8133C24.9134 25.8133 24.8658 25.8133 24.8185 25.8133C24.3647 25.8975 23.938 26.0635 23.5385 26.3111C22.1742 27.3424 20.8468 28.4328 19.5563 29.5822C18.8393 30.89 17.7489 31.3404 16.2852 30.9333C16.5259 30.5516 16.763 30.1723 16.9963 29.7956C18.4663 28.4466 19.9834 27.1666 21.5474 25.9556C22.7275 25.2045 23.9128 24.446 25.1029 23.68C25.3949 23.8847 25.5371 24.1691 25.5296 24.5333C25.2474 24.5167 25.0105 24.6116 24.8185 24.8178C25.2363 24.9584 25.663 25.0533 26.0985 25.1022C26.0985 25.2444 26.0985 25.3867 26.0985 25.5289C25.6643 25.4736 25.285 25.5683 24.9607 25.8133Z" fill="#0887E2"/>
<path fill-rule="evenodd" clip-rule="evenodd" d="M21.5475 25.9556C19.9835 27.1666 18.4664 28.4466 16.9964 29.7956C16.9777 29.6905 17.0015 29.5956 17.0675 29.5111C18.3523 28.2655 19.7034 27.104 21.1208 26.0267C21.2556 25.958 21.3979 25.9344 21.5475 25.9556Z" fill="#24171B"/>
<path fill-rule="evenodd" clip-rule="evenodd" d="M16.9961 27.2356C17.3111 26.463 17.6667 25.7045 18.0628 24.96C17.9763 25.8441 17.6207 26.6027 16.9961 27.2356Z" fill="#3D180E"/>
<path fill-rule="evenodd" clip-rule="evenodd" d="M25.3869 23.3956C25.5255 23.722 25.7151 24.0064 25.9558 24.2489C26.2876 24.7229 26.6195 25.1971 26.9513 25.6711C26.904 25.6711 26.8565 25.6711 26.8091 25.6711C26.1877 25.6664 25.5715 25.7138 24.9602 25.8133C25.2845 25.5683 25.6638 25.4736 26.098 25.5289C26.098 25.3867 26.098 25.2444 26.098 25.1022C25.6625 25.0533 25.2358 24.9584 24.818 24.8178C25.01 24.6116 25.2469 24.5167 25.5291 24.5333C25.5366 24.1691 25.3944 23.8847 25.1024 23.68C23.9123 24.446 22.727 25.2045 21.5469 25.9556C22.2317 25.3909 22.9428 24.8458 23.6802 24.32C23.2668 24.0912 22.8876 23.8305 22.5424 23.5378C22.8532 23.5668 23.1376 23.6615 23.3958 23.8222C23.5374 23.9879 23.727 24.0828 23.9647 24.1067C24.403 23.7926 24.8772 23.5556 25.3869 23.3956Z" fill="#131824"/>
<path fill-rule="evenodd" clip-rule="evenodd" d="M21.832 23.1111C22.186 23.0743 22.4231 23.2165 22.5431 23.5378C22.2681 23.451 22.031 23.3088 21.832 23.1111Z" fill="#242831"/>
<path fill-rule="evenodd" clip-rule="evenodd" d="M6.04429 21.12C6.01989 21.2611 6.0673 21.3558 6.18651 21.4044C5.47937 22.3849 5.24234 23.4753 5.4754 24.6756C5.58423 24.5174 5.72645 24.4225 5.90207 24.3911C5.99689 24.486 6.09169 24.5807 6.18651 24.6756C5.8303 24.7438 5.49846 24.886 5.19096 25.1022C4.99857 24.2883 5.02228 23.4823 5.26207 22.6844C5.37652 22.0763 5.63727 21.5548 6.04429 21.12Z" fill="#351710"/>
<path fill-rule="evenodd" clip-rule="evenodd" d="M6.75533 22.1156C6.7211 22.616 6.91072 22.9952 7.32422 23.2533C7.66415 23.5046 7.90119 23.8364 8.03533 24.2489C8.05659 24.3985 8.03288 24.5407 7.96422 24.6756C7.30226 24.2657 6.61486 24.171 5.902 24.3911C5.72638 24.4225 5.58416 24.5174 5.47533 24.6756C5.24227 23.4753 5.4793 22.3849 6.18644 21.4044C6.24448 21.2419 6.3393 21.0997 6.47089 20.9778C6.56583 21.3769 6.66065 21.756 6.75533 22.1156Z" fill="#F05722"/>
<path fill-rule="evenodd" clip-rule="evenodd" d="M6.75588 22.1156C6.97163 22.4761 7.16126 22.8554 7.32477 23.2533C6.91127 22.9952 6.72165 22.616 6.75588 22.1156Z" fill="#38231A"/>
<path fill-rule="evenodd" clip-rule="evenodd" d="M2.48828 21.6889C2.5831 21.4518 2.67791 21.2149 2.77273 20.9778C3.38092 19.9612 4.28166 19.3687 5.47495 19.2C4.93125 20.0266 4.48087 20.9037 4.12384 21.8311C3.86819 22.4744 3.70228 23.1381 3.62606 23.8222C3.45895 23.8534 3.31673 23.806 3.19939 23.68C2.82064 23.0652 2.58361 22.4014 2.48828 21.6889Z" fill="#0A87E1"/>
<path fill-rule="evenodd" clip-rule="evenodd" d="M2.77326 20.9778C2.67844 21.2149 2.58363 21.4518 2.48881 21.6889C2.23796 21.3448 2.04833 20.9419 1.91992 20.48C1.96732 20.4089 2.01474 20.3378 2.06214 20.2667C2.4754 20.3501 2.71244 20.5872 2.77326 20.9778Z" fill="#D15423"/>
<path fill-rule="evenodd" clip-rule="evenodd" d="M8.0362 24.2489C7.90206 23.8364 7.66502 23.5046 7.32509 23.2533C7.16158 22.8554 6.97195 22.4761 6.7562 22.1156C6.68282 20.3147 7.55984 19.3192 9.38731 19.1289C9.5915 19.1373 9.78113 19.1846 9.9562 19.2711C11.4586 22.0501 13.8053 23.425 16.9962 23.3956C17.7682 23.3681 18.5268 23.297 19.2718 23.1822C17.5908 24.4965 15.6946 25.3498 13.5829 25.7422C12.2165 25.9664 10.8417 26.0848 9.45843 26.0978C9.41023 26.7164 9.2206 27.2853 8.88954 27.8044C8.47065 27.1012 7.99658 26.4374 7.46731 25.8133C7.59857 25.4686 7.8119 25.1841 8.10731 24.96C8.21819 24.6916 8.19448 24.4545 8.0362 24.2489Z" fill="#F1CBB1"/>
<path fill-rule="evenodd" clip-rule="evenodd" d="M6.75596 18.1333C7.23628 18.1604 7.61554 18.3737 7.89374 18.7733C7.26859 19.1003 6.60488 19.2663 5.90263 19.2711C5.88034 19.0758 5.90405 18.8861 5.97374 18.7022C6.23146 18.4922 6.49221 18.3026 6.75596 18.1333Z" fill="#196BA9"/>
<path fill-rule="evenodd" clip-rule="evenodd" d="M14.0094 14.72C14.9488 15.9012 16.1814 16.5649 17.7072 16.7111C17.6585 16.8303 17.5638 16.8778 17.4227 16.8533C16.15 16.6438 15.0122 16.1225 14.0094 15.2889C13.962 15.3837 13.9146 15.4785 13.8672 15.5733C14.0384 15.992 14.1806 16.4187 14.2938 16.8533C14.002 16.932 13.9546 17.0742 14.1516 17.28C14.6335 18.743 15.6526 19.4541 17.2094 19.4133C17.9642 19.4202 18.699 19.3017 19.4138 19.0578C19.5943 18.7536 19.5943 18.4455 19.4138 18.1333C19.2335 18.2653 19.0439 18.2891 18.845 18.2044C19.2856 18.071 19.6174 17.8102 19.8405 17.4222C19.7028 17.8411 19.6792 18.2677 19.7694 18.7022C19.8714 18.6249 19.9425 18.53 19.9827 18.4178C20.1285 18.4742 20.1523 18.569 20.0538 18.7022C19.5707 19.335 18.9307 19.6905 18.1338 19.7689C16.3952 20.0489 15.0441 19.4564 14.0805 17.9911C13.821 16.8603 13.6076 15.7225 13.4405 14.5778C13.0491 14.5889 12.6699 14.6126 12.3027 14.6489C12.9133 14.2363 13.577 13.9993 14.2938 13.9378C14.0718 14.0716 13.8822 14.2376 13.725 14.4356C13.7755 14.5809 13.8703 14.6758 14.0094 14.72Z" fill="#292521"/>
<path fill-rule="evenodd" clip-rule="evenodd" d="M17.4227 16.8533C18.2491 16.9941 19.1024 17.0415 19.9827 16.9956C19.896 17.1223 19.8486 17.2645 19.8405 17.4222C19.6174 17.8102 19.2856 18.071 18.845 18.2045C19.0439 18.2891 19.2335 18.2653 19.4139 18.1333C19.5943 18.4455 19.5943 18.7536 19.4139 19.0578C18.699 19.3017 17.9642 19.4202 17.2094 19.4133C15.6526 19.4542 14.6335 18.743 14.1516 17.28C14.133 17.1749 14.1567 17.08 14.2227 16.9956C14.4291 17.2749 14.6898 17.4645 15.005 17.5645C14.8154 17.28 14.5783 17.0429 14.2939 16.8533C14.1806 16.4187 14.0384 15.992 13.8672 15.5733C13.9146 15.4785 13.962 15.3838 14.0094 15.2889C15.0122 16.1225 16.15 16.6438 17.4227 16.8533Z" fill="#F2F2F3"/>
<path fill-rule="evenodd" clip-rule="evenodd" d="M7.75186 10.1689C7.57414 10.5253 7.47934 10.9046 7.46742 11.3067C7.076 11.9042 6.95747 12.5679 7.11186 13.2978C7.72685 13.9556 8.34314 14.6193 8.96075 15.2889C9.09402 16.3406 9.25993 17.3835 9.45853 18.4178C9.11649 18.4698 8.78464 18.5647 8.46298 18.7022C8.03243 18.5798 7.65316 18.3664 7.3252 18.0622C7.10252 17.9534 6.91288 17.9772 6.75631 18.1333C6.56668 18.1333 6.37704 18.1333 6.18742 18.1333C6.17522 17.9917 6.22263 17.8732 6.32964 17.7778C6.67105 17.7513 7.00289 17.6802 7.3252 17.5645C6.58935 17.3127 6.63677 17.1467 7.46742 17.0667C7.23501 16.9964 6.99797 16.9728 6.75631 16.9956C6.75631 16.2371 6.75631 15.4785 6.75631 14.72C7.49326 14.7119 7.49326 14.617 6.75631 14.4356C6.95326 14.2861 7.09548 14.0965 7.18298 13.8667C7.06564 13.7407 6.92342 13.6933 6.75631 13.7245C6.71644 13.0399 6.81125 12.3762 7.04075 11.7333C6.78501 11.3366 6.7139 10.91 6.82742 10.4533C7.13298 11.0385 7.32261 10.9911 7.39631 10.3111C7.49171 10.2041 7.61023 10.1567 7.75186 10.1689Z" fill="#26A4E3"/>
<path fill-rule="evenodd" clip-rule="evenodd" d="M19.8395 17.4222C19.8476 17.2645 19.895 17.1223 19.9817 16.9956C19.8868 16.9007 19.7921 16.806 19.6973 16.7111C20.1979 16.614 20.5534 16.3295 20.7639 15.8578C20.7877 15.9526 20.8113 16.0474 20.835 16.1422C20.5544 16.612 20.2225 17.0386 19.8395 17.4222Z" fill="#1D1914"/>
<path fill-rule="evenodd" clip-rule="evenodd" d="M15.8584 12.16C16.0006 12.16 16.1429 12.16 16.2851 12.16C16.0609 12.2714 15.8714 12.4373 15.7162 12.6578C15.7873 12.7289 15.8584 12.8 15.9295 12.8711C16.0907 12.6277 16.304 12.5566 16.5695 12.6578C16.44 13.0012 16.2029 13.2145 15.8584 13.2978C15.275 13.0178 14.8484 13.1837 14.5784 13.7956C14.7541 14.3743 15.1334 14.7298 15.7162 14.8622C15.7604 15.0013 15.8553 15.0962 16.0006 15.1467C16.2135 14.8695 16.3558 14.6325 16.4273 14.4356C16.8066 14.5778 17.1858 14.72 17.5651 14.8622C17.5595 15.0162 17.512 15.1585 17.4229 15.2889C17.5177 15.3837 17.6124 15.4785 17.7073 15.5733C18.1546 15.7586 18.5813 15.7586 18.9873 15.5733C19.0822 15.5733 19.1769 15.5733 19.2718 15.5733C19.3052 15.6582 19.3763 15.7056 19.4851 15.7156C19.8806 15.4078 20.2835 15.3842 20.694 15.6444C20.4265 16.1525 19.9998 16.4369 19.414 16.4978C18.3264 16.6659 17.2835 16.5237 16.2851 16.0711C16.0955 15.9762 16.0955 15.8815 16.2851 15.7867C16.0006 15.7393 15.7162 15.6918 15.4318 15.6444C14.9284 15.3493 14.4543 15.0411 14.0095 14.72C13.8705 14.6758 13.7756 14.5809 13.7251 14.4356C13.8823 14.2376 14.0719 14.0716 14.294 13.9378C13.5772 13.9993 12.9135 14.2363 12.3029 14.6489C12.67 14.6126 13.0493 14.5889 13.4406 14.5778C13.6078 15.7225 13.8211 16.8603 14.0806 17.9911C15.0442 19.4564 16.3953 20.0489 18.134 19.7689C18.9308 19.6905 19.5708 19.335 20.054 18.7022C20.1524 18.569 20.1286 18.4742 19.9829 18.4178C19.9396 18.3253 19.8923 18.2305 19.8406 18.1333C20.0871 17.7694 20.3004 17.3902 20.4806 16.9956C20.9387 16.5365 21.1521 16.6312 21.1206 17.28C21.2629 17.28 21.4051 17.28 21.5473 17.28C21.5473 17.5644 21.5473 17.8489 21.5473 18.1333C21.4095 19.3554 21.2199 20.5643 20.9784 21.76C20.4403 22.0369 19.8714 22.2265 19.2718 22.3289C18.134 22.4237 16.9962 22.4237 15.8584 22.3289C13.0738 21.818 11.0116 20.3247 9.67175 17.8489C9.351 16.4833 9.46951 15.1559 10.0273 13.8667C10.407 13.6409 10.8336 13.5224 11.3073 13.5111C11.0341 13.4599 10.797 13.3414 10.5962 13.1556C10.7084 12.8728 10.8743 12.8254 11.094 13.0133C11.2362 12.4918 11.568 12.16 12.0895 12.0178C12.1582 11.8829 12.1819 11.7407 12.1606 11.5911C12.5103 11.5524 12.7473 11.6946 12.8718 12.0178C13.8628 12.1596 14.8583 12.207 15.8584 12.16Z" fill="#F0CAB0"/>
<path fill-rule="evenodd" clip-rule="evenodd" d="M15.0039 17.5644C16.1164 18.0999 17.3016 18.3606 18.5595 18.3467C17.54 18.4872 16.5445 18.3925 15.5728 18.0622C15.3134 17.9683 15.1238 17.8024 15.0039 17.5644Z" fill="#575757"/>
<path fill-rule="evenodd" clip-rule="evenodd" d="M14.2926 16.8533C14.577 17.0429 14.8141 17.28 15.0037 17.5644C14.6885 17.4645 14.4278 17.2749 14.2215 16.9956C14.1554 17.08 14.1317 17.1749 14.1503 17.28C13.9533 17.0742 14.0008 16.932 14.2926 16.8533Z" fill="#5E5D5B"/>
<path fill-rule="evenodd" clip-rule="evenodd" d="M17.7063 16.7111C18.3701 16.7111 19.0337 16.7111 19.6974 16.7111C19.7923 16.806 19.887 16.9007 19.9819 16.9955C19.1015 17.0415 18.2482 16.9941 17.4219 16.8533C17.563 16.8778 17.6577 16.8303 17.7063 16.7111Z" fill="#635B53"/>
<path fill-rule="evenodd" clip-rule="evenodd" d="M24.2496 11.0222C24.3805 11.3877 24.2856 11.7195 23.9652 12.0178C24.7367 12.1265 25.0448 12.5531 24.8896 13.2978C24.7743 13.0902 24.6557 13.0428 24.5341 13.1556C24.9191 14.0043 25.0613 14.905 24.9607 15.8578C25.103 15.8578 25.2452 15.8578 25.3874 15.8578C25.3874 16.6163 25.3874 17.3749 25.3874 18.1333C25.2452 18.1333 25.103 18.1333 24.9607 18.1333C24.6443 18.9744 24.3361 19.8278 24.0363 20.6933C23.5678 21.2985 23.2123 21.9621 22.9696 22.6844C22.2112 22.7793 22.2112 22.874 22.9696 22.9689C22.986 23.3169 23.1282 23.6014 23.3963 23.8222C23.1382 23.6615 22.8537 23.5668 22.543 23.5378C22.4229 23.2165 22.1858 23.0743 21.8318 23.1111C21.5939 22.7785 21.3095 22.494 20.9785 22.2578C21.3194 21.6856 21.5328 21.0694 21.6185 20.4089C21.6923 18.8695 21.9057 17.3524 22.2585 15.8578C22.4273 15.5392 22.5222 15.1836 22.543 14.7911C22.3618 13.9957 22.1722 13.2135 21.9741 12.4444C22.1406 11.6851 22.3539 10.9266 22.6141 10.1689C22.8985 9.97927 23.183 9.97927 23.4674 10.1689C23.5623 10.5482 23.5623 10.9274 23.4674 11.3067C23.2396 11.5724 23.0973 11.8569 23.0407 12.16C23.5185 11.8478 23.9215 11.4685 24.2496 11.0222Z" fill="#26A4E4"/>
<path fill-rule="evenodd" clip-rule="evenodd" d="M24.8181 9.31555C24.8469 10.0353 24.9891 10.7227 25.2448 11.3778C25.1959 11.5719 25.101 11.7379 24.9604 11.8756C25.35 12.3772 25.7056 12.8987 26.027 13.44C26.1455 15.5749 26.1217 17.7082 25.9559 19.84C25.7498 20.1402 25.6076 20.472 25.5292 20.8356C25.134 21.1449 24.8258 21.5242 24.6048 21.9733C24.4613 22.1902 24.3902 22.4273 24.3915 22.6844C24.1962 22.6621 24.0065 22.6859 23.8226 22.7556C24.1638 22.8567 24.4956 22.8329 24.8181 22.6844C24.8655 22.7318 24.913 22.7793 24.9604 22.8267C24.8655 22.9215 24.7708 23.0162 24.6759 23.1111C24.9306 23.2064 25.1677 23.3013 25.387 23.3956C24.8773 23.5556 24.4031 23.7926 23.9648 24.1067C23.7271 24.0828 23.5376 23.9879 23.3959 23.8222C23.1278 23.6013 22.9856 23.3169 22.9692 22.9689C22.2108 22.874 22.2108 22.7793 22.9692 22.6844C23.2119 21.9621 23.5674 21.2985 24.0359 20.6933C24.3357 19.8278 24.6439 18.9744 24.9604 18.1333C25.1026 18.1333 25.2448 18.1333 25.387 18.1333C25.387 17.3749 25.387 16.6162 25.387 15.8578C25.2448 15.8578 25.1026 15.8578 24.9604 15.8578C25.0609 14.905 24.9187 14.0043 24.5337 13.1556C24.6553 13.0428 24.7739 13.0902 24.8892 13.2978C25.0444 12.5531 24.7364 12.1264 23.9648 12.0178C24.2852 11.7195 24.3801 11.3876 24.2492 11.0222C24.4091 10.4285 24.5988 9.85958 24.8181 9.31555Z" fill="#1B99E1"/>
<path fill-rule="evenodd" clip-rule="evenodd" d="M22.258 15.8578C21.9138 16.584 21.6767 17.3426 21.5469 18.1333C21.5469 17.8489 21.5469 17.5644 21.5469 17.28C21.4047 17.28 21.2624 17.28 21.1202 17.28C21.1516 16.6312 20.9383 16.5365 20.4802 16.9956C20.3 17.3902 20.0867 17.7694 19.8402 18.1333C19.8918 18.2305 19.9392 18.3253 19.9824 18.4178C19.9422 18.53 19.8711 18.6249 19.7691 18.7022C19.6789 18.2677 19.7025 17.8411 19.8402 17.4222C20.2232 17.0386 20.5552 16.612 20.8358 16.1422C20.812 16.0474 20.7884 15.9526 20.7647 15.8578C20.5542 16.3295 20.1986 16.614 19.698 16.7111C19.0342 16.7111 18.3706 16.7111 17.7069 16.7111C16.1811 16.5649 14.9485 15.9012 14.0091 14.72C14.4538 15.0411 14.928 15.3493 15.4313 15.6444C15.7158 15.6918 16.0002 15.7393 16.2847 15.7867C16.0951 15.8815 16.0951 15.9762 16.2847 16.0711C17.2831 16.5237 18.326 16.6659 19.4135 16.4978C19.9994 16.4369 20.426 16.1525 20.6935 15.6444C20.2831 15.3842 19.8802 15.4078 19.4847 15.7156C19.3759 15.7056 19.3047 15.6582 19.2713 15.5733C19.9145 15.4057 20.4597 15.0738 20.9069 14.5778C21.0017 14.3407 21.0017 14.1037 20.9069 13.8667C19.9538 13.1721 18.8872 12.8639 17.7069 12.9422C18.6515 13.1228 19.5524 13.4309 20.4091 13.8667C20.8049 14.2709 20.7575 14.6264 20.2669 14.9333C19.7243 15.2048 19.1554 15.3944 18.5602 15.5022C18.695 15.5709 18.8373 15.5945 18.9869 15.5733C18.5808 15.7586 18.1542 15.7586 17.7069 15.5733C17.612 15.4785 17.5173 15.3837 17.4224 15.2889C17.5116 15.1585 17.5591 15.0162 17.5647 14.8622C17.2583 14.3066 16.7843 14.0932 16.1424 14.2222C16.2727 14.2618 16.3674 14.3329 16.4269 14.4356C16.3553 14.6325 16.2131 14.8695 16.0002 15.1467C15.8549 15.0962 15.76 15.0013 15.7158 14.8622C15.7781 14.8715 15.8256 14.8479 15.858 14.7911C15.1118 14.6196 14.8747 14.1929 15.1469 13.5111C15.3638 13.3677 15.6009 13.2966 15.858 13.2978C16.2025 13.2145 16.4395 13.0012 16.5691 12.6578C16.3036 12.5566 16.0902 12.6277 15.9291 12.8711C15.858 12.8 15.7869 12.7289 15.7158 12.6578C15.8709 12.4373 16.0605 12.2714 16.2847 12.16C16.555 12.1961 16.6497 12.1486 16.5691 12.0178C16.5691 11.7807 16.5691 11.5437 16.5691 11.3067C17.0861 11.2845 17.1334 11.1186 16.7113 10.8089C15.557 10.3424 14.7037 10.6743 14.1513 11.8044C13.8195 11.8518 13.4876 11.8993 13.1558 11.9467C14.0821 11.9711 14.9829 12.0423 15.858 12.16C14.8579 12.207 13.8624 12.1596 12.8713 12.0178C12.7469 11.6946 12.5098 11.5524 12.1602 11.5911C12.1815 11.7407 12.1578 11.8829 12.0891 12.0178C11.5676 12.16 11.2358 12.4918 11.0935 13.0133C10.8739 12.8254 10.708 12.8728 10.5958 13.1556C10.7966 13.3414 11.0337 13.4599 11.3069 13.5111C10.8332 13.5224 10.4065 13.6409 10.0269 13.8667C10.0455 13.742 9.99808 13.6472 9.88466 13.5822C9.73276 14.1236 9.47203 14.5977 9.10244 15.0044C8.13104 14.3892 7.68068 13.4885 7.75132 12.3022C8.37794 10.8995 9.30239 10.6625 10.5247 11.5911C10.626 12.0142 10.5075 12.3697 10.1691 12.6578C10.5133 12.6543 10.8451 12.5595 11.1647 12.3733C11.8834 11.6185 12.4048 10.7415 12.7291 9.74222C12.8402 9.91697 12.9113 10.1066 12.9424 10.3111C13.2155 9.90737 13.4526 9.4807 13.6535 9.03111C14.1701 8.65709 14.6441 8.23043 15.0758 7.75111C15.1445 7.61628 15.1681 7.47406 15.1469 7.32444C15.8901 7.30878 16.6012 7.45101 17.2802 7.75111C17.3751 7.70371 17.4698 7.65629 17.5647 7.60889C17.4096 7.45122 17.4096 7.309 17.5647 7.18222C17.947 7.25403 18.2551 7.44365 18.4891 7.75111C18.5365 7.9711 18.4654 8.16072 18.2758 8.32C18.9556 8.59129 19.5245 8.44906 19.9824 7.89333C20.0658 7.9231 20.1369 7.9705 20.1958 8.03555C20.2431 8.50962 20.2906 8.98371 20.338 9.45778C20.8346 9.03356 21.1902 8.51207 21.4047 7.89333C21.8037 8.41156 21.8986 8.98045 21.6891 9.6C21.1114 9.65595 20.6847 9.94039 20.4091 10.4533C21.0519 10.444 21.5024 10.7284 21.7602 11.3067C21.7926 12.8454 21.9586 14.3625 22.258 15.8578Z" fill="#EACAB1"/>
<path fill-rule="evenodd" clip-rule="evenodd" d="M21.1191 15.1467C21.2969 15.1576 21.4154 15.2525 21.4747 15.4311C21.5937 15.9708 21.5464 16.4922 21.3325 16.9956C21.2909 16.3723 21.2198 15.7561 21.1191 15.1467Z" fill="#130E0C"/>
<path fill-rule="evenodd" clip-rule="evenodd" d="M17.5648 14.8622C17.1855 14.72 16.8063 14.5778 16.427 14.4356C16.3676 14.3329 16.2729 14.2618 16.1426 14.2222C16.7844 14.0932 17.2585 14.3066 17.5648 14.8622Z" fill="#2A221C"/>
<path fill-rule="evenodd" clip-rule="evenodd" d="M15.8581 13.2978C15.601 13.2965 15.3639 13.3677 15.147 13.5111C14.8748 14.1929 15.1119 14.6196 15.8581 14.7911C15.8257 14.8479 15.7782 14.8715 15.7159 14.8622C15.1331 14.7298 14.7538 14.3743 14.5781 13.7956C14.8481 13.1837 15.2747 13.0178 15.8581 13.2978Z" fill="#29241D"/>
<path fill-rule="evenodd" clip-rule="evenodd" d="M19.2715 15.5733C19.1766 15.5733 19.0819 15.5733 18.987 15.5733C18.8374 15.5945 18.6952 15.5709 18.5604 15.5022C19.1556 15.3944 19.7245 15.2048 20.267 14.9333C20.7577 14.6264 20.8051 14.2709 20.4093 13.8667C19.5525 13.4309 18.6517 13.1228 17.707 12.9422C18.8873 12.8639 19.954 13.1721 20.907 13.8667C21.0019 14.1037 21.0019 14.3407 20.907 14.5778C20.4599 15.0739 19.9146 15.4057 19.2715 15.5733Z" fill="#221C17"/>
<path fill-rule="evenodd" clip-rule="evenodd" d="M20.1241 11.8755C19.9853 12.0626 19.8431 12.2522 19.6974 12.4444C19.9928 12.6694 20.3246 12.8116 20.693 12.8711C20.8826 13.0607 21.0723 13.0607 21.2619 12.8711C21.3848 13.0401 21.527 13.206 21.6885 13.3689C20.9979 13.297 20.3342 13.1074 19.6974 12.8C18.9355 12.6761 18.1769 12.5338 17.4219 12.3733C17.9711 12.2815 18.5164 12.3052 19.0574 12.4444C19.4303 12.2844 19.7859 12.0947 20.1241 11.8755Z" fill="#292622"/>
<path fill-rule="evenodd" clip-rule="evenodd" d="M20.4082 11.8756C20.6965 11.8525 20.9809 11.8762 21.2615 11.9467C21.3806 12.0905 21.4279 12.2564 21.4038 12.4445C21.2752 12.5453 21.2278 12.6875 21.2615 12.8711C21.072 13.0607 20.8822 13.0607 20.6926 12.8711C21.0634 12.4239 20.9687 12.092 20.4082 11.8756Z" fill="#E7ECEB"/>
<path fill-rule="evenodd" clip-rule="evenodd" d="M20.1239 11.8755C20.2188 11.8755 20.3135 11.8755 20.4084 11.8755C20.9689 12.092 21.0636 12.4239 20.6928 12.8711C20.3245 12.8116 19.9927 12.6694 19.6973 12.4444C19.8429 12.2522 19.9851 12.0626 20.1239 11.8755Z" fill="#6FD0D5"/>
<path fill-rule="evenodd" clip-rule="evenodd" d="M9.74219 11.4489C10.0583 11.4572 10.2005 11.6231 10.1689 11.9467C10.1849 12.1831 10.09 12.349 9.88441 12.4444C9.91979 12.1415 9.87239 11.8097 9.74219 11.4489Z" fill="#A1755C"/>
<path fill-rule="evenodd" clip-rule="evenodd" d="M12.0172 7.32444C10.0933 8.58443 8.62369 10.2437 7.60831 12.3022C7.59903 12.6145 7.50421 12.8989 7.32386 13.1555C7.27646 13.037 7.22904 12.9185 7.18164 12.8C7.35123 12.3154 7.44603 11.8176 7.46609 11.3067C8.29422 9.90805 9.28977 8.62805 10.4528 7.46666C10.6276 7.04624 10.912 6.90401 11.3061 7.03999C11.4233 6.72033 11.5655 6.69664 11.7328 6.96888C11.575 7.22673 11.6698 7.34524 12.0172 7.32444Z" fill="#DF8F48"/>
<path fill-rule="evenodd" clip-rule="evenodd" d="M8.46233 6.32889C8.16631 7.61417 7.92928 8.89417 7.75122 10.1689C7.60958 10.1567 7.49106 10.2041 7.39566 10.3111C7.32196 10.9911 7.13234 11.0385 6.82677 10.4533C6.71325 10.91 6.78436 11.3366 7.0401 11.7333C6.8106 12.3762 6.71579 13.0399 6.75566 13.7244C6.92277 13.6933 7.06499 13.7407 7.18233 13.8667C7.09483 14.0965 6.95261 14.2861 6.75566 14.4356C7.49261 14.617 7.49261 14.7119 6.75566 14.72C6.75566 15.4785 6.75566 16.2371 6.75566 16.9956C6.99732 16.9728 7.23437 16.9964 7.46677 17.0667C6.63612 17.1467 6.58871 17.3127 7.32455 17.5644C7.00224 17.6802 6.6704 17.7513 6.32899 17.7778C6.22199 17.8732 6.17457 17.9917 6.18677 18.1333C5.20942 19.0013 4.07164 19.5702 2.77344 19.84C2.88537 19.6119 3.07499 19.517 3.34233 19.5556C3.29121 18.4987 3.38602 17.4558 3.62677 16.4267C3.06258 14.6963 3.32333 13.1319 4.40899 11.7333C4.43633 11.438 4.50744 11.1535 4.62233 10.88C5.03622 10.2968 5.36807 9.6805 5.61788 9.03112C5.7675 9.05238 5.90972 9.02867 6.04455 8.96C6.15678 8.62363 6.32271 8.31548 6.54233 8.03556C7.54219 7.60946 8.11108 6.94575 8.24899 6.04445C8.28859 6.1747 8.3597 6.26952 8.46233 6.32889Z" fill="#1592DE"/>
<path fill-rule="evenodd" clip-rule="evenodd" d="M25.9556 24.2489C25.715 24.0064 25.5254 23.722 25.3867 23.3956C25.1674 23.3013 24.9303 23.2064 24.6756 23.1111C24.7705 23.0163 24.8652 22.9215 24.96 22.8267C24.9127 22.7793 24.8652 22.7318 24.8178 22.6844C24.4953 22.8329 24.1635 22.8567 23.8223 22.7556C24.0062 22.6859 24.1959 22.6621 24.3912 22.6844C24.3899 22.4273 24.461 22.1902 24.6045 21.9733C24.8255 21.5242 25.1337 21.1449 25.5289 20.8356C25.6073 20.472 25.7495 20.1402 25.9556 19.84C26.1214 17.7082 26.1452 15.5749 26.0267 13.44C25.7053 12.8987 25.3497 12.3772 24.96 11.8756C25.1007 11.7379 25.1956 11.5719 25.2445 11.3778C24.9888 10.7227 24.8466 10.0353 24.8178 9.31556C25.1842 8.45981 25.1842 7.60647 24.8178 6.75556C25.1129 6.72734 25.3974 6.70363 25.6712 6.68445C25.2389 7.41203 25.1442 8.19425 25.3867 9.03111C25.4935 8.90653 25.5646 8.76431 25.6 8.60445C25.6828 9.05497 25.825 9.10237 26.0267 8.74667C26.1011 9.26469 26.2671 9.73877 26.5245 10.1689C26.822 10.1776 27.0354 10.3198 27.1645 10.5956C27.277 11.5417 27.6325 12.3951 28.2312 13.1556C28.4207 15.5733 28.4207 17.9911 28.2312 20.4089C27.9584 20.9072 27.6503 21.3813 27.3067 21.8311C27.2052 22.4549 26.9681 23.0238 26.5956 23.5378C26.5956 23.8222 26.5956 24.1067 26.5956 24.3911C26.404 24.1115 26.1907 24.0641 25.9556 24.2489Z" fill="#118EDB"/>
<path fill-rule="evenodd" clip-rule="evenodd" d="M22.542 3.76889C24.4465 4.74738 26.082 6.07478 27.4487 7.75111C31.5348 13.7171 31.5112 19.6666 27.3775 25.6C27.2427 25.6687 27.1005 25.6923 26.9509 25.6711C26.6191 25.1971 26.2871 24.7229 25.9553 24.2489C26.1904 24.0641 26.4037 24.1115 26.5953 24.3911C26.5953 24.1067 26.5953 23.8222 26.5953 23.5378C26.9678 23.0238 27.2049 22.4549 27.3064 21.8311C27.65 21.3813 27.9581 20.9072 28.2309 20.4089C28.4205 17.9911 28.4205 15.5733 28.2309 13.1556C27.6323 12.3951 27.2767 11.5417 27.1642 10.5956C27.0351 10.3198 26.8217 10.1776 26.5242 10.1689C26.2668 9.73877 26.1008 9.26468 26.0264 8.74667C25.8248 9.10237 25.6825 9.05496 25.5998 8.60445C25.5644 8.7643 25.4932 8.90653 25.3864 9.03111C25.1439 8.19425 25.2387 7.41203 25.6709 6.68445C25.3971 6.70363 25.1127 6.72734 24.8175 6.75556C24.1605 6.05163 23.4494 5.38793 22.6842 4.76445C22.6504 4.4936 22.5081 4.30397 22.2575 4.19556C22.227 3.95679 22.3218 3.81457 22.542 3.76889Z" fill="#0982D3"/>
<path fill-rule="evenodd" clip-rule="evenodd" d="M8.46278 6.3289C8.36016 6.26952 8.28904 6.1747 8.24945 6.04445C8.11154 6.94576 7.54265 7.60946 6.54278 8.03556C6.32316 8.31548 6.15723 8.62364 6.04501 8.96001C5.91018 9.02867 5.76796 9.05238 5.61834 9.03112C5.36853 9.6805 5.03668 10.2968 4.62278 10.88C4.5079 11.1535 4.43679 11.438 4.40945 11.7333C3.32378 13.1319 3.06303 14.6963 3.62723 16.4267C3.38647 17.4558 3.29167 18.4987 3.34278 19.5556C3.07545 19.517 2.88582 19.6119 2.77389 19.84C2.47418 19.9777 2.14233 20.0252 1.77834 19.9822C0.563912 13.2137 2.79206 7.92779 8.46278 4.12445C9.10938 3.75251 9.77308 3.46807 10.4539 3.27112C9.55683 4.14145 8.89312 5.1607 8.46278 6.3289Z" fill="#0A83D4"/>
<path fill-rule="evenodd" clip-rule="evenodd" d="M22.6849 4.76445C23.4501 5.38794 24.1612 6.05163 24.8183 6.75556C25.1846 7.60648 25.1846 8.45981 24.8183 9.31556C24.599 9.85959 24.4092 10.4285 24.2494 11.0222C23.9213 11.4685 23.5182 11.8478 23.0405 12.16C23.0971 11.8569 23.2393 11.5724 23.4672 11.3067C23.562 10.9274 23.562 10.5482 23.4672 10.1689C23.1827 9.97927 22.8983 9.97927 22.6138 10.1689C22.3537 10.9266 22.1404 11.6851 21.9738 12.4445C22.1719 13.2135 22.3615 13.9958 22.5427 14.7911C22.5219 15.1837 22.4271 15.5392 22.2583 15.8578C21.9589 14.3625 21.7929 12.8454 21.7605 11.3067C21.5026 10.7285 21.0522 10.444 20.4094 10.4533C20.685 9.9404 21.1117 9.65596 21.6894 9.60001C21.8989 8.98046 21.804 8.41157 21.4049 7.89334C21.1905 8.51208 20.8349 9.03356 20.3383 9.45778C20.2909 8.98371 20.2434 8.50963 20.196 8.03556C20.1372 7.97051 20.0661 7.92311 19.9827 7.89334C19.5248 8.44907 18.9559 8.59129 18.276 8.32001C18.4656 8.16073 18.5367 7.97111 18.4894 7.75112C18.2554 7.44366 17.9472 7.25404 17.5649 7.18223C17.4099 7.309 17.4099 7.45123 17.5649 7.60889C17.4701 7.6563 17.3753 7.70371 17.2805 7.75112C16.6015 7.45101 15.8904 7.30879 15.1472 7.32445C15.1683 7.47407 15.1447 7.61629 15.076 7.75112C14.6444 8.23043 14.1703 8.6571 13.6538 9.03112C13.4528 9.48071 13.2158 9.90738 12.9427 10.3111C12.9116 10.1066 12.8405 9.91698 12.7294 9.74223C12.4051 10.7415 11.8836 11.6186 11.1649 12.3733C10.8454 12.5595 10.5135 12.6543 10.1694 12.6578C10.5078 12.3697 10.6263 12.0142 10.5249 11.5911C9.30266 10.6625 8.37821 10.8995 7.7516 12.3022C7.70419 12.3022 7.65678 12.3022 7.60938 12.3022C8.62476 10.2437 10.0944 8.58444 12.0183 7.32445C15.0449 5.40539 18.2685 5.00242 21.6894 6.11556C22.9931 6.68456 23.9412 7.60901 24.5338 8.88889C24.7459 8.76828 24.8407 8.57865 24.8183 8.32001C24.7056 7.07037 24.0894 6.16963 22.9694 5.61778C22.9149 5.34635 22.7727 5.13302 22.5427 4.97778C22.6218 4.92337 22.6691 4.85226 22.6849 4.76445Z" fill="#0A0707"/>
<path fill-rule="evenodd" clip-rule="evenodd" d="M20.2671 12.16C20.5465 12.2238 20.5939 12.366 20.4093 12.5867C20.2833 12.4693 20.2359 12.3271 20.2671 12.16Z" fill="#361928"/>
<path fill-rule="evenodd" clip-rule="evenodd" d="M21.405 12.4444C21.4292 12.2564 21.3818 12.0905 21.2628 11.9467C20.9822 11.8762 20.6977 11.8525 20.4094 11.8756C20.3146 11.8756 20.2199 11.8756 20.125 11.8756C20.4514 11.6075 20.8307 11.5364 21.2628 11.6622C21.461 11.7982 21.5559 11.9878 21.5472 12.2311C21.5499 12.4859 21.5026 12.5571 21.405 12.4444Z" fill="#463E46"/>
<path fill-rule="evenodd" clip-rule="evenodd" d="M16.1426 10.88C15.9755 10.8489 15.8332 10.8963 15.7159 11.0222C15.8365 11.2937 15.884 11.5781 15.8581 11.8756C15.4315 11.8756 15.0048 11.8756 14.5781 11.8756C14.7861 10.9979 15.3076 10.6661 16.1426 10.88Z" fill="#7BBBC7"/>
<path fill-rule="evenodd" clip-rule="evenodd" d="M15.2891 11.3067C15.5504 11.3265 15.5977 11.4213 15.4313 11.5911C15.3178 11.5261 15.2705 11.4313 15.2891 11.3067Z" fill="#151824"/>
<path fill-rule="evenodd" clip-rule="evenodd" d="M16.1415 10.88C16.3311 10.9748 16.4733 11.117 16.5682 11.3067C16.5682 11.5437 16.5682 11.7807 16.5682 12.0178C16.3489 11.9039 16.1119 11.8565 15.8571 11.8756C15.883 11.5781 15.8354 11.2937 15.7148 11.0222C15.8322 10.8963 15.9744 10.8489 16.1415 10.88Z" fill="#F0F4F6"/>
<path fill-rule="evenodd" clip-rule="evenodd" d="M16.5696 11.3067C16.4747 11.117 16.3325 10.9748 16.1429 10.88C15.3079 10.6661 14.7864 10.9979 14.5785 11.8756C15.0051 11.8756 15.4318 11.8756 15.8585 11.8756C16.1133 11.8565 16.3503 11.9039 16.5696 12.0178C16.6502 12.1487 16.5555 12.1961 16.2851 12.16C16.1429 12.16 16.0007 12.16 15.8585 12.16C14.9834 12.0423 14.0826 11.9711 13.1562 11.9467C13.4881 11.8993 13.82 11.8519 14.1518 11.8045C14.7042 10.6743 15.5575 10.3424 16.7118 10.8089C17.1339 11.1186 17.0866 11.2845 16.5696 11.3067Z" fill="#1D1917"/>
<path fill-rule="evenodd" clip-rule="evenodd" d="M21.9726 8.60445C22.4913 8.62174 22.8943 8.85877 23.1815 9.31556C23.2763 9.45778 23.2763 9.6 23.1815 9.74222C22.8831 9.89403 22.5749 9.96514 22.257 9.95556C22.0114 9.5426 21.9167 9.09223 21.9726 8.60445Z" fill="#E89247"/>
<path fill-rule="evenodd" clip-rule="evenodd" d="M16.2853 8.46222C17.5908 8.22847 18.1834 8.74996 18.0631 10.0267C17.8707 10.1952 17.7047 10.3849 17.5653 10.5955C17.3014 10.213 16.9696 9.90488 16.5698 9.67111C15.69 9.55812 14.8366 9.60553 14.0098 9.81333C14.6286 9.10196 15.387 8.65159 16.2853 8.46222Z" fill="#100E0C"/>
<path fill-rule="evenodd" clip-rule="evenodd" d="M20.408 4.62222C19.0828 4.52964 17.7554 4.45853 16.4258 4.40888C17.5636 4.31406 18.7013 4.31406 19.8391 4.40888C20.0607 4.43875 20.2503 4.50986 20.408 4.62222Z" fill="#1B100A"/>
<path fill-rule="evenodd" clip-rule="evenodd" d="M21.5462 3.62666C21.5935 3.62666 21.641 3.62666 21.6884 3.62666C21.878 3.81629 22.0677 4.00593 22.2573 4.19555C22.2615 4.33738 22.1904 4.4322 22.0439 4.48C21.7512 4.393 21.4906 4.25078 21.2617 4.05333C21.4199 3.9445 21.5147 3.80228 21.5462 3.62666Z" fill="#D48944"/>
<path fill-rule="evenodd" clip-rule="evenodd" d="M22.543 3.76889C22.3228 3.81457 22.2279 3.95679 22.2585 4.19556C22.0689 4.00593 21.8792 3.81629 21.6896 3.62667C21.6854 3.48484 21.7565 3.39003 21.903 3.34222C22.1399 3.46281 22.3532 3.60504 22.543 3.76889Z" fill="#215A8D"/>
<path fill-rule="evenodd" clip-rule="evenodd" d="M20.9783 3.34222C20.9115 3.51197 20.7693 3.60677 20.5517 3.62667C20.3773 3.6239 20.2351 3.57648 20.125 3.48445C20.4187 3.482 20.7031 3.4346 20.9783 3.34222Z" fill="#483621"/>
<path fill-rule="evenodd" clip-rule="evenodd" d="M12.4436 3.05779C13.19 3.17371 13.9011 3.38704 14.5769 3.69779C14.36 3.84123 14.123 3.91234 13.8658 3.91112C13.8658 4.05334 13.8658 4.19556 13.8658 4.33779C14.3077 4.31662 14.7343 4.38773 15.1458 4.55112C15.4652 5.10028 15.8919 5.2425 16.4258 4.97779C16.2362 4.93038 16.0465 4.88297 15.8569 4.83556C17.3731 4.76448 18.8902 4.74077 20.408 4.76445C21.2952 4.97221 22.1485 5.25665 22.968 5.61779C24.088 6.16964 24.7042 7.07037 24.8169 8.32001C24.8394 8.57865 24.7445 8.76828 24.5324 8.8889C23.9398 7.60901 22.9918 6.68457 21.688 6.11556C18.2671 5.00242 15.0435 5.40539 12.0169 7.32445C11.6695 7.34526 11.5747 7.22675 11.7324 6.9689C11.5652 6.69665 11.423 6.72035 11.3058 7.04001C10.9117 6.90403 10.6273 7.04625 10.4524 7.46667C10.1806 7.54845 9.94357 7.69067 9.74133 7.89334C9.75995 7.7687 9.71253 7.67388 9.59911 7.6089C9.07037 8.05661 8.92815 7.96179 9.17244 7.32445C10.1266 5.79424 11.217 4.37202 12.4436 3.05779Z" fill="#F49045"/>
</g>
<defs>
<clipPath id="clip0_157_1934">
<rect width="32" height="32" fill="white"/>
</clipPath>
</defs>
</svg>
