<svg width="32" height="32" viewBox="0 0 32 32" fill="none" xmlns="http://www.w3.org/2000/svg">
<path d="M32 16C32 24.8372 24.8372 32 16 32C7.16279 32 0 24.8372 0 16C0 7.16279 7.16279 0 16 0C24.8372 0 32 7.16279 32 16Z" fill="white"/>
<path d="M22.7623 12.6189H19.7378L29.6551 7.66025C29.8902 8.04526 30.1086 8.44061 30.3114 8.84371L22.7636 12.6189H22.7623ZM22.7623 19.3812L30.3101 23.1551C30.5117 22.752 30.6964 22.3398 30.8644 21.9199L25.7869 19.3812H22.7623ZM1.68867 23.1551C1.89022 23.5595 2.10986 23.9548 2.345 24.3398L12.261 19.3812H9.23648L1.68867 23.1551ZM31.8708 13.9716H18.0285V0.129242C16.6822 -0.0425924 15.3179 -0.0425924 13.9716 0.129242V13.9716H0.129242C-0.0425924 15.3179 -0.0425924 16.6822 0.129242 18.0285H13.9716V31.8708C15.3192 32.0427 16.6822 32.0427 18.0285 31.8708V18.0285H31.8708C32.0427 16.6809 32.0427 15.3179 31.8708 13.9716ZM9.23648 12.6189L1.68867 8.84371C1.48712 9.24811 1.30237 9.66025 1.13441 10.0789L6.21322 12.6176H9.23648V12.6189Z" fill="#C8102E"/>
<path d="M29.2882 7.08791L19.3812 12.0414V0.361816C23.4303 1.23649 26.982 3.64735 29.2882 7.08791ZM31.6396 12.6189C31.5001 11.9742 31.3205 11.3398 31.1034 10.7158L27.2985 12.6189H31.6396ZM31.1034 21.283C31.3205 20.6603 31.5001 20.0259 31.6396 19.3812H27.2985L31.1034 21.283ZM19.3812 31.6383C23.4303 30.7636 26.982 28.3528 29.2882 24.9122L19.3812 19.9587V31.6383ZM12.6189 31.6383V19.9587L2.71195 24.9122C5.01944 28.3515 8.57112 30.7623 12.6189 31.6383ZM0.361816 19.3812C0.500059 20.0259 0.679646 20.6603 0.897992 21.283L4.70161 19.3812H0.361816ZM0.897992 10.7171C0.679646 11.3399 0.501351 11.9755 0.361816 12.6202H4.70161L0.897992 10.7171ZM2.71195 7.08791L12.6189 12.0414V0.361816C8.56983 1.23649 5.01815 3.64735 2.71195 7.08791Z" fill="#012169"/>
</svg>
