<svg width="32" height="32" viewBox="0 0 32 32" fill="none" xmlns="http://www.w3.org/2000/svg">
    <path fill-rule="evenodd" clip-rule="evenodd"
        d="M31.9238 15.9252C31.2633 10.6757 28.7215 6.62588 24.2983 3.77572C18.4827 0.506785 12.7511 0.656317 7.10361 4.22431C2.92776 7.12868 0.585318 11.1287 0.076205 16.2243C-0.0108899 13.022 -0.0233 9.80704 0.0388252 6.57945C0.549658 2.72899 2.73017 0.54828 6.58029 0.0374018C12.8601 -0.0124673 19.1399 -0.0124673 25.4197 0.0374018C28.6689 0.384243 30.7747 2.11635 31.7369 5.23366C31.8278 5.67956 31.9026 6.12816 31.9612 6.57945C32.0233 9.7073 32.0109 12.8226 31.9238 15.9252Z"
        fill="#FEFEFE" />
    <path fill-rule="evenodd" clip-rule="evenodd"
        d="M31.9239 15.9251C32.0126 16.9459 32.0126 17.9677 31.9239 18.9905C31.4126 23.3161 29.5187 26.8924 26.2422 29.7195C25.8539 30.0206 25.4552 30.3072 25.046 30.5793C23.4755 28.3966 21.3574 27.0383 18.6914 26.5046C15.6904 25.8758 12.8496 26.2995 10.1689 27.7756C9.55575 28.1446 8.98257 28.5682 8.44938 29.0466C7.9316 29.5763 7.45807 30.1371 7.02895 30.7288C2.89833 27.8138 0.580784 23.8263 0.0763063 18.7662C-0.0163208 17.9183 -0.0163208 17.071 0.0763063 16.2242C0.585419 11.1286 2.92786 7.12857 7.10371 4.2242C12.7512 0.656208 18.4828 0.506676 24.2984 3.77561C28.7216 6.62577 31.2634 10.6756 31.9239 15.9251Z"
        fill="#FAAC19" />
    <path fill-rule="evenodd" clip-rule="evenodd"
        d="M14.9533 10.0934C18.8529 9.89221 21.5317 11.5869 22.9899 15.1775C23.9107 18.6455 22.9513 21.4742 20.1117 23.6635C16.471 25.7253 13.2189 25.2393 10.3556 22.2055C8.06978 19.1229 8.01999 16.0077 10.206 12.8598C11.4699 11.3868 13.0523 10.4647 14.9533 10.0934Z"
        fill="#FFFEFE" />
    <path fill-rule="evenodd" clip-rule="evenodd"
        d="M0.0764265 18.7664C0.580904 23.8264 2.89845 27.8139 7.02907 30.729C7.45819 30.1372 7.93172 29.5764 8.4495 29.0467C8.98269 28.5683 9.55587 28.1447 10.169 27.7757C12.8497 26.2997 15.6906 25.876 18.6916 26.5047C21.3575 27.0384 23.4757 28.3967 25.0461 30.5794C25.4553 30.3073 25.854 30.0207 26.2423 29.7196C29.5189 26.8925 31.4127 23.3162 31.924 18.9907C32.011 21.1213 32.0234 23.2646 31.9614 25.4206C31.6226 28.6751 29.8907 30.7809 26.7656 31.7383C26.3197 31.8292 25.8712 31.904 25.4199 31.9626C19.1401 32.0125 12.8603 32.0125 6.58051 31.9626C3.33034 31.6155 1.22458 29.8834 0.263325 26.7663C0.172418 26.3204 0.0976582 25.8718 0.0390467 25.4206C-0.0230785 23.1898 -0.0105937 20.9717 0.0764265 18.7664Z"
        fill="#FFFEFE" />
</svg>