<svg width="32" height="32" viewBox="0 0 32 32" fill="none" xmlns="http://www.w3.org/2000/svg">
<path fill-rule="evenodd" clip-rule="evenodd" d="M16.4242 4.8C15.9281 9.74244 15.7281 14.6758 15.8242 19.6C16.6268 17.986 17.4268 16.3859 18.2242 14.8C18.8945 15.8158 18.8278 16.8158 18.0242 17.8C18.5477 18.5004 18.4144 19.1004 17.6242 19.6C18.0383 20.2512 18.0383 20.918 17.6242 21.6C16.9727 21.15 16.3727 20.6164 15.8242 20C13.3521 22.352 11.0187 24.8188 8.82419 27.4C8.44947 27.6768 8.18283 27.61 8.02419 27.2C7.22651 23.2072 6.02651 19.3404 4.42419 15.6C3.54355 16.1119 2.67687 16.1119 1.82418 15.6C1.75102 16.7459 1.55103 17.8124 1.22419 18.8C1.15759 13.9982 1.22423 9.19816 1.42419 4.4C3.85411 6.62816 6.05411 9.02816 8.02419 11.6C7.18231 12.843 6.51567 14.1763 6.02419 15.6C6.27035 17.1852 6.67035 18.7184 7.22419 20.2C7.09087 20.3332 6.95751 20.4668 6.82419 20.6C7.87319 22.2376 8.47319 24.0376 8.62419 26C11.2013 18.896 13.5346 11.6961 15.6242 4.4C15.9551 4.02452 16.2218 4.15784 16.4242 4.8Z" fill="#683679"/>
<path fill-rule="evenodd" clip-rule="evenodd" d="M15.6234 4.39999C13.5339 11.6961 11.2006 18.896 8.62344 26C8.47244 24.0376 7.87244 22.2376 6.82344 20.6C6.95676 20.4668 7.09012 20.3332 7.22344 20.2C6.6696 18.7184 6.2696 17.1852 6.02344 15.6C6.51492 14.1763 7.18156 12.843 8.02344 11.6C8.319 11.6524 8.58568 11.5857 8.82344 11.4C10.9586 8.92115 13.2252 6.58783 15.6234 4.39999Z" fill="#8F5C9E"/>
<path fill-rule="evenodd" clip-rule="evenodd" d="M16.4242 4.8C18.1744 6.14976 19.6411 7.74976 20.8242 9.6C21.2826 15.6532 22.0826 21.6532 23.2242 27.6C21.0752 25.8516 19.2085 23.8516 17.6242 21.6C18.0383 20.918 18.0383 20.2512 17.6242 19.6C18.4144 19.1004 18.5477 18.5004 18.0242 17.8C18.8278 16.8158 18.8945 15.8158 18.2242 14.8C17.4268 16.3859 16.6268 17.986 15.8242 19.6C15.7281 14.6758 15.9281 9.74244 16.4242 4.8Z" fill="#763D8A"/>
<path fill-rule="evenodd" clip-rule="evenodd" d="M30.0242 20C29.917 18.1168 28.9834 16.8501 27.2242 16.2C25.7015 14.6584 24.2348 13.125 22.8242 11.6C25.4697 9.28728 27.9362 6.75392 30.2242 4C30.555 9.40256 30.4882 14.7359 30.0242 20Z" fill="#88539C"/>
<path fill-rule="evenodd" clip-rule="evenodd" d="M20.8242 9.60001C21.6242 10.1333 22.2909 10.8 22.8242 11.6C24.2348 13.125 25.7015 14.6584 27.2242 16.2C28.9834 16.8501 29.917 18.1168 30.0242 20C27.8942 22.6628 25.6277 25.196 23.2242 27.6C22.0826 21.6532 21.2826 15.6532 20.8242 9.60001Z" fill="#633274"/>
<path fill-rule="evenodd" clip-rule="evenodd" d="M8.02433 27.2C5.77073 24.8784 3.57073 22.4784 1.42433 20C1.23121 19.6208 1.16453 19.2208 1.22433 18.8C1.55117 17.8124 1.75117 16.7459 1.82433 15.6C2.67701 16.1119 3.54369 16.1119 4.42433 15.6C6.02665 19.3404 7.22665 23.2072 8.02433 27.2Z" fill="#905E9E"/>
</svg>
