<svg width="32" height="32" viewBox="0 0 32 32" fill="none" xmlns="http://www.w3.org/2000/svg">
    <path
        d="M24.0001 0H7.99992C3.58169 0 0 3.58172 0 8V24C0 28.4183 3.58169 32 7.99992 32H24.0001C28.4182 32 32 28.4183 32 24V8C32 3.58172 28.4182 0 24.0001 0Z"
        fill="#D1FF6E" />
    <path
        d="M19.9834 9.99291H16.9055C16.5977 9.99291 16.3925 10.1749 16.3925 10.4349V10.5389C16.3925 11.1889 17.9571 11.3189 17.4185 12.9049L15.4435 18.6769L13.1094 10.5389C13.0068 10.2269 12.8529 10.0709 12.5195 10.0709L11.1088 10.0969C10.7753 10.0969 10.6214 10.2789 10.5188 10.5909L8.13342 18.6769L6.08147 12.5669C5.64543 11.2669 6.85096 11.1629 6.85096 10.5389V10.4349C6.85096 10.1749 6.67141 9.99291 6.36362 9.99291H1.79802C1.49023 9.99291 1.28503 10.1489 1.28503 10.4089V10.5389C1.28503 11.1629 2.08017 11.4229 2.51621 12.5149L6.26102 21.8489C6.41491 22.2909 6.64576 22.4729 7.0818 22.4729H7.67174C8.10778 22.4729 8.36427 22.2909 8.51817 21.8489L10.9036 14.1529L13.2633 21.8489C13.3916 22.2909 13.648 22.4729 14.1097 22.4729H14.9562C15.3922 22.4729 15.6231 22.2909 15.7769 21.8489L19.0857 12.5149C19.4961 11.3449 20.4964 11.1889 20.4964 10.5389V10.4089C20.4964 10.1489 20.3169 9.99291 19.9834 9.99291ZM30.4121 18.5209C29.9248 19.3269 28.8475 20.0289 27.4881 20.0289C25.9491 20.0289 24.7693 19.1969 24.1024 17.7669L29.7966 15.1409C30.4891 14.8289 30.9251 14.3089 30.9251 13.4249C30.9251 11.7089 29.4375 9.73291 26.0774 9.73291C22.7173 9.73291 19.8702 12.3589 19.8702 16.1289C19.8702 20.1329 22.5121 22.7329 26.0774 22.7329C29.3862 22.7329 31.1303 20.3149 31.2842 18.8069C31.3099 18.2609 30.7199 18.1309 30.4121 18.5209ZM25.6157 10.8769C27.0008 10.8769 27.6677 12.7229 27.6677 13.6589C27.6677 14.2049 27.4625 14.6469 27.0008 14.8809L23.692 16.5709C23.5125 15.8949 23.4355 15.1409 23.4355 14.3349C23.4355 12.3589 24.2563 10.8769 25.6157 10.8769Z"
        fill="black" />
</svg>