<svg width="32" height="32" viewBox="0 0 32 32" fill="none" xmlns="http://www.w3.org/2000/svg">
<path d="M21.7439 30.6156C21.179 30.5578 20.6317 30.395 20.0994 30.1263C19.7611 29.9556 19.6286 29.8773 17.1958 28.4114L15.6209 27.4624L13.5006 28.6681C11.2364 29.9555 11.0194 30.0722 10.6379 30.2075C10.16 30.377 9.89145 30.4243 9.29986 30.4432C8.81542 30.4587 8.68753 30.4515 8.34023 30.389C7.44351 30.2277 6.61059 29.8826 5.93075 29.3906C5.5878 29.1424 4.98683 28.4954 4.75335 28.123C4.11378 27.1029 3.80966 25.9494 3.86112 24.7387C3.87149 24.4948 3.88906 24.2401 3.90016 24.1727C3.91692 24.0709 3.91044 24.0465 3.86203 24.0289C3.62395 23.9422 3.16046 23.7156 2.88771 23.5525C2.45767 23.2954 2.19492 23.0852 1.80518 22.6865C0.596363 21.45 0.0891772 19.876 0.360312 18.2024C0.507132 17.2962 0.827109 16.4765 1.2963 15.8047C1.52215 15.4813 2.00382 14.9826 2.32275 14.742C2.55405 14.5675 4.80552 13.151 6.14343 12.3383L6.68207 12.0111L6.66034 9.38341C6.63666 6.51947 6.64316 6.34928 6.80091 5.70194C7.02641 4.77682 7.4802 3.98331 8.21796 3.22397C9.08934 2.32715 9.96066 1.83719 11.0273 1.64437C11.5674 1.54671 12.5058 1.56926 13.0479 1.69292C13.9039 1.88818 14.7334 2.2794 15.4697 2.83518L15.6783 2.99262L15.9824 2.75245C16.8012 2.10578 17.6018 1.73449 18.5859 1.54499C19.0788 1.45006 20.05 1.44112 20.4858 1.52748C21.5724 1.74285 22.4791 2.26143 23.3049 3.13987C24.1322 4.02002 24.6005 4.95392 24.7968 6.11528C24.8656 6.52209 24.868 7.09301 24.8125 9.80292C24.7854 11.1257 24.7794 11.9748 24.797 11.9928C24.8483 12.0455 25.7273 12.576 27.149 13.4124C29.2895 14.6716 29.4101 14.7542 29.9493 15.3275C30.6406 16.0626 31.0941 16.9916 31.3045 18.1038C31.3997 18.6068 31.4084 19.5785 31.3215 20.0047C31.142 20.8856 30.7936 21.6185 30.197 22.3703C29.6087 23.1117 28.7217 23.7549 27.8155 24.0972L27.5359 24.2027L27.5303 25.0536C27.5241 25.9876 27.4928 26.2275 27.2894 26.9024C26.9732 27.9518 26.2887 28.9566 25.4778 29.5619C25.1175 29.8309 24.4907 30.1559 24.0184 30.3186C23.2205 30.5935 22.4769 30.6905 21.7439 30.6156ZM23.0194 27.1561C23.5625 26.9626 23.9141 26.5967 24.1504 25.9796C24.2556 25.7046 24.2802 25.271 24.2077 24.9686C24.0251 24.2077 23.6917 23.9345 20.9909 22.3324C18.504 20.8573 18.4224 20.8044 18.132 20.4808C17.8225 20.1359 17.6995 19.8235 17.6995 19.3824C17.6995 19.0458 17.7858 18.7605 17.9812 18.4515C18.173 18.1482 18.3333 17.9973 18.6155 17.8544C18.9141 17.7031 19.2132 17.6527 19.5237 17.7011C20.0296 17.7802 20.0316 17.7812 22.7609 19.3829C23.8796 20.0394 24.9019 20.6252 25.0328 20.6845C25.4544 20.8756 25.8911 20.975 26.3164 20.9765C26.6731 20.9777 26.698 20.9734 26.9005 20.8719C27.3002 20.6717 27.7488 20.1167 27.8869 19.6517C28.0177 19.2114 27.9973 18.7108 27.8336 18.3439C27.6865 18.0145 27.3364 17.6816 26.6958 17.2624C26.4324 17.09 24.3144 15.8217 22.9472 15.0176C21.8257 14.3579 21.6379 14.2011 21.4385 13.7568C21.2275 13.2868 21.2291 13.3185 21.2608 10.3578C21.2764 8.90063 21.2789 7.4941 21.2664 7.23208C21.2258 6.38176 21.1058 6.00568 20.7578 5.63757C20.0691 4.90902 18.7604 4.86924 18.1077 5.557C17.8055 5.87541 17.6289 6.26214 17.5076 6.87079C17.4496 7.16179 17.4434 7.37656 17.4161 10.0567C17.3935 12.2658 17.3766 12.9951 17.3427 13.2094C17.2253 13.9524 16.722 14.5244 16.0539 14.6743C15.0361 14.9025 14.1289 14.2685 13.9559 13.2081C13.9167 12.9679 13.9139 12.5575 13.9362 10.3345C13.9505 8.90807 13.9515 7.5188 13.9385 7.24721C13.8968 6.37822 13.7797 6.00773 13.4296 5.63747C12.7409 4.90892 11.4322 4.86914 10.7795 5.5569C10.4779 5.87476 10.3019 6.25937 10.1786 6.87069C10.1192 7.16532 10.1143 7.3474 10.0921 10.1388C10.0764 12.1132 10.0571 13.1459 10.034 13.2487C9.897 13.8578 9.58459 14.3032 9.07417 14.6172C8.95932 14.6879 8.48108 14.9822 8.01143 15.2714C7.54178 15.5605 6.68242 16.0818 6.10175 16.4298C4.57296 17.3459 4.17595 17.6185 3.89153 17.9472C3.64855 18.2281 3.53054 18.5807 3.52999 19.0274C3.52932 19.5299 3.74547 20.0315 4.13897 20.4412C4.613 20.9346 5.17268 21.0013 6.1328 20.6785C6.51864 20.5488 6.85101 20.3699 8.08904 19.6256C9.31818 18.8866 9.52439 18.765 10.4665 18.2242C11.1726 17.8189 11.3852 17.7274 11.7508 17.6715C12.3957 17.5729 12.9393 17.8294 13.3112 18.4078C13.5361 18.7575 13.6119 19.03 13.5954 19.429C13.5844 19.695 13.5689 19.763 13.4685 19.9868C13.3479 20.2553 13.0996 20.5645 12.871 20.7307C12.6793 20.8701 12.2184 21.1445 10.6353 22.0619C8.86867 23.0856 8.47452 23.3252 8.01141 23.6566C7.44424 24.0626 7.2247 24.3406 7.09437 24.8181C7.01335 25.115 7.04254 25.641 7.15465 25.9045C7.33616 26.3312 7.74178 26.7741 8.12007 26.9588C8.32483 27.0588 8.61296 27.1362 8.77999 27.1362C9.09878 27.1362 9.7101 26.9449 10.1695 26.7013C10.4939 26.5293 11.7453 25.8161 13.1815 24.9848C14.9859 23.9403 15.0494 23.9117 15.5725 23.9084C16.0931 23.9051 16.4126 24.0225 17.2493 24.5247C21.2012 26.8969 21.6454 27.1439 22.1188 27.2336C22.3839 27.2839 22.7486 27.2525 23.0194 27.1561Z" fill="#2E609F"/>
</svg>
