<svg width="32" height="32" viewBox="0 0 32 32" fill="none" xmlns="http://www.w3.org/2000/svg">
    <g clip-path="url(#clip0_2594_72)">
        <path opacity="0.983" fill-rule="evenodd" clip-rule="evenodd"
            d="M13.3502 -0.115234C15.1166 -0.115234 16.8831 -0.115234 18.6495 -0.115234C26.0748 1.97883 30.4908 7.2738 31.8979 15.7697C31.8979 17.0742 31.8979 18.3788 31.8979 19.6833C31.4946 23.0422 30.4074 26.1119 28.6368 28.892C27.9882 26.9685 27.2749 25.0501 26.4967 23.1366C26.3607 22.139 26.3607 21.1414 26.4967 20.1438C27.0519 19.8234 27.6293 19.5548 28.2292 19.338C28.0498 19.0258 27.9817 18.6805 28.0253 18.302C28.2398 18.3364 28.4436 18.2981 28.6368 18.1869C28.3651 18.0334 28.3651 17.88 28.6368 17.7265C28.3989 17.6114 28.2292 17.4195 28.1272 17.151C27.9098 15.0089 27.8079 12.8602 27.8215 10.7049C27.6071 10.6705 27.4033 10.7089 27.2101 10.82C26.6135 11.3685 26.0358 11.944 25.4776 12.5466C25.3247 12.4026 25.1547 12.2875 24.968 12.2013C23.881 12.0478 22.7938 12.0478 21.7069 12.2013C21.5202 12.2875 21.3502 12.4026 21.1973 12.5466C20.5547 11.6691 19.7733 11.0551 18.8534 10.7049C18.8719 12.9371 18.77 15.1625 18.5476 17.3812C18.3947 17.5252 18.2248 17.6403 18.0381 17.7265C18.5473 18.1758 18.6832 18.7129 18.4457 19.338C19.162 19.5294 19.8074 19.8747 20.382 20.374C20.4167 24.0167 19.4315 27.2781 17.4266 30.1581C16.7134 30.416 16.1359 30.2242 15.6941 29.5826C14.7319 26.7827 14.0186 23.905 13.554 20.9495C13.588 20.6042 13.6219 20.2589 13.6559 19.9135C14.1599 19.4995 14.4996 18.9623 14.675 18.302C14.7353 16.9029 14.6674 15.5216 14.4712 14.1581C14.6661 14.8205 14.9378 15.4344 15.2865 15.9999C15.5809 16.381 15.9545 16.5344 16.4075 16.4603C16.274 14.9557 16.5797 13.5744 17.3247 12.3164C17.4915 11.6886 17.4575 11.0747 17.2228 10.4747C12.7625 8.9436 8.31238 8.9436 3.87247 10.4747C3.73658 11.0886 3.73658 11.7025 3.87247 12.3164C4.61744 13.5744 4.92317 14.9557 4.78967 16.4603C5.24264 16.5344 5.61631 16.381 5.91069 15.9999C6.25933 15.4344 6.53108 14.8205 6.72597 14.1581C6.49739 15.5174 6.42946 16.8987 6.52215 18.302C6.70429 18.9679 7.044 19.5051 7.54126 19.9135C7.72939 20.2668 7.8313 20.6505 7.84699 21.0646C7.03032 24.4649 6.21503 27.8415 5.40113 31.1941C3.0492 29.0375 1.45258 26.2749 0.611325 22.9063C0.291753 21.5875 0.0539602 20.2829 -0.102051 18.9927C-0.102051 18.2253 -0.102051 17.4579 -0.102051 16.6905C0.955466 7.59188 5.43953 1.98996 13.3502 -0.115234Z"
            fill="#FF6AB4" />
        <path opacity="0.999" fill-rule="evenodd" clip-rule="evenodd"
            d="M28.6368 28.8918C28.8394 29.6552 29.0432 30.4225 29.2482 31.1939C29.2105 31.4435 29.1426 31.6737 29.0444 31.8846C21.0954 31.8846 13.1463 31.8846 5.19726 31.8846C5.32155 31.6794 5.38949 31.4492 5.40109 31.1939C6.21499 27.8413 7.03027 24.4647 7.84695 21.0644C7.83125 20.6503 7.72934 20.2666 7.54121 19.9133C7.04395 19.5049 6.70424 18.9677 6.52211 18.3018C6.42941 16.8985 6.49734 15.5172 6.72593 14.1579C6.53103 14.8203 6.25928 15.4342 5.91064 15.9997C5.61626 16.3808 5.24259 16.5342 4.78962 16.4601C4.92312 14.9555 4.61739 13.5742 3.87242 12.3162C3.73654 11.7023 3.73654 11.0884 3.87242 10.4745C8.31233 8.9434 12.7624 8.9434 17.2227 10.4745C17.4575 11.0745 17.4915 11.6884 17.3247 12.3162C16.5797 13.5742 16.274 14.9555 16.4075 16.4601C15.9545 16.5342 15.5808 16.3808 15.2864 15.9997C14.9378 15.4342 14.666 14.8203 14.4711 14.1579C14.6673 15.5214 14.7352 16.9027 14.675 18.3018C14.4995 18.9621 14.1598 19.4993 13.6559 19.9133C13.6219 20.2587 13.5879 20.604 13.554 20.9493C14.0185 23.9048 14.7319 26.7825 15.6941 29.5824C16.1358 30.224 16.7133 30.4158 17.4266 30.1579C19.4315 27.2779 20.4166 24.0165 20.382 20.3738C19.8074 19.8745 19.1619 19.5292 18.4457 19.3378C18.6831 18.7127 18.5472 18.1756 18.038 17.7263C18.2248 17.6401 18.3946 17.525 18.5476 17.381C18.77 15.1623 18.8719 12.9369 18.8533 10.7047C19.7732 11.0549 20.5546 11.6689 21.1973 12.5464C21.3501 12.4024 21.5201 12.2873 21.7068 12.2011C22.7938 12.0476 23.881 12.0476 24.968 12.2011C25.1547 12.2873 25.3247 12.4024 25.4775 12.5464C26.0358 11.9438 26.6134 11.3683 27.21 10.8198C27.4032 10.7087 27.607 10.6703 27.8215 10.7047C27.8078 12.86 27.9097 15.0087 28.1272 17.1508C28.2291 17.4193 28.3989 17.6112 28.6368 17.7263C28.3651 17.8798 28.3651 18.0332 28.6368 18.1867C28.4435 18.2979 28.2397 18.3362 28.0253 18.3018C27.9817 18.6803 28.0497 19.0256 28.2291 19.3378C27.6293 19.5546 27.0518 19.8232 26.4966 20.1436C26.3607 21.1412 26.3607 22.1388 26.4966 23.1364C27.2748 25.0499 27.9882 26.9683 28.6368 28.8918Z"
            fill="#FFFDFE" />
    </g>
    <defs>
        <clipPath id="clip0_2594_72">
            <rect width="32" height="32" fill="white" />
        </clipPath>
    </defs>
</svg>