<?xml version="1.0" encoding="utf-8"?>
<!-- Generator: Adobe Illustrator 21.0.0, SVG Export Plug-In . SVG Version: 6.00 Build 0)  -->
<svg version="1.1" id="Layer_1" xmlns="http://www.w3.org/2000/svg" xmlns:xlink="http://www.w3.org/1999/xlink" x="0px" y="0px"
	 viewBox="0 0 16 16" style="enable-background:new 0 0 16 16;" xml:space="preserve">
<style type="text/css">
	.st0{fill:#B556D4;}
</style>
<g>
	<path class="st0" d="M6.7,3C4.6,3.4,2.9,5.1,2.5,7.2c0.7-0.5,1.9-0.8,3.2-1C5.9,4.9,6.2,3.7,6.7,3z M6.2,6.7c0,0.5-0.1,1-0.1,1.5
		c0,0.5,0,1,0.1,1.5c0.5,0,1,0.1,1.5,0.1c0.5,0,1,0,1.5-0.1c0-0.5,0.1-1,0.1-1.5c0-0.5,0-1-0.1-1.5c-0.5,0-1-0.1-1.5-0.1
		C7.2,6.7,6.7,6.7,6.2,6.7L6.2,6.7z M5.6,9.7c0-0.5-0.1-1-0.1-1.4s0-1,0.1-1.4C3.6,7.1,2.4,7.7,2.4,8.2C2.4,8.8,3.6,9.4,5.6,9.7z
		 M13.1,8.2c0-0.5-1.2-1.2-3.3-1.4c0,0.5,0.1,1,0.1,1.4s0,1-0.1,1.4C11.9,9.4,13.1,8.8,13.1,8.2z M13,7.2C12.6,5.1,10.9,3.4,8.8,3
		c0.5,0.7,0.8,1.9,1,3.2C11.1,6.4,12.3,6.7,13,7.2L13,7.2z M7.7,6.1c0.5,0,1,0,1.4,0.1C8.9,4.1,8.3,2.9,7.8,2.9S6.6,4.1,6.3,6.1
		C6.8,6.1,7.3,6.1,7.7,6.1L7.7,6.1z M2.5,9.3c0.4,2.1,2.1,3.8,4.2,4.2c-0.5-0.7-0.8-1.9-1-3.2C4.4,10.1,3.2,9.8,2.5,9.3L2.5,9.3z
		 M8.8,13.5c2.1-0.4,3.8-2.1,4.2-4.2c-0.7,0.5-1.9,0.8-3.2,1C9.6,11.6,9.3,12.8,8.8,13.5L8.8,13.5z M7.7,10.4c-0.5,0-1,0-1.4-0.1
		c0.3,2.1,0.9,3.3,1.4,3.3s1.2-1.2,1.4-3.3C8.7,10.4,8.2,10.4,7.7,10.4L7.7,10.4z"/>
	<path class="st0" d="M7.7,1.2c-3.9,0-7,3.1-7,7c0,3.9,3.1,7,7,7c3.9,0,7-3.1,7-7C14.8,4.4,11.6,1.2,7.7,1.2z M7.7,14.3
		c-3.3,0-6-2.7-6-6s2.7-6,6-6s6,2.7,6,6S11.1,14.3,7.7,14.3L7.7,14.3z"/>
</g>
</svg>
