<svg width="32" height="32" viewBox="0 0 32 32" fill="none" xmlns="http://www.w3.org/2000/svg">
    <path d="M32 0H0V32H32V0Z" fill="#FAFAFA" />
    <path fill-rule="evenodd" clip-rule="evenodd"
        d="M18.8398 5.31C18.8836 5.65211 18.8087 5.95097 18.6149 6.20646C18.536 6.4541 18.386 6.65961 18.165 6.82277C18.1871 7.27268 18.1871 7.73962 18.165 8.22348C16.8402 7.89045 15.4905 7.74107 14.1158 7.77525C14.0101 7.14594 13.8789 6.51092 13.7222 5.87029C13.666 5.31124 13.6472 4.75095 13.6659 4.18944C14.0882 4.18899 14.5006 4.2077 14.9032 4.24546C14.4667 4.03738 14.5043 3.888 15.0156 3.79724C16.345 3.46577 17.6947 3.335 19.0648 3.40504C18.9424 4.03301 18.8675 4.66803 18.8398 5.31Z"
        fill="#F99A9E" />
    <path fill-rule="evenodd" clip-rule="evenodd"
        d="M22.7763 3.96458C22.1377 3.89903 21.5003 3.8244 20.8642 3.74047C20.8822 3.93085 20.8635 4.11765 20.808 4.30075C20.602 4.53405 20.4708 4.79548 20.4143 5.08515C20.4602 4.52072 20.5351 3.96043 20.6393 3.4043C21.3988 3.46514 22.1112 3.65194 22.7763 3.96458Z"
        fill="#EA9198" />
    <path fill-rule="evenodd" clip-rule="evenodd"
        d="M18.8397 5.30973C18.8674 4.66776 18.9423 4.03273 19.0646 3.40477C17.6946 3.33473 16.3449 3.4655 15.0155 3.79696C14.5042 3.88773 14.4666 4.0371 14.903 4.24519C14.5005 4.20743 14.088 4.18871 13.6658 4.18916C13.6471 4.75068 13.6659 5.31096 13.722 5.87001C13.8788 6.51064 14.01 7.14567 14.1157 7.77498C15.4904 7.7408 16.8401 7.89017 18.1648 8.22321C18.187 7.73934 18.187 7.2724 18.1648 6.8225C18.3858 6.65934 18.5359 6.45383 18.6147 6.20618C18.5566 6.99809 18.4441 7.78249 18.2773 8.55938C16.8971 8.11664 15.4725 7.92984 14.0032 7.99909C13.7065 6.66707 13.4816 5.32239 13.3284 3.96505C15.2715 3.38448 17.2586 3.16037 19.2896 3.29271C19.1804 3.98746 19.0304 4.6598 18.8397 5.30973Z"
        fill="#EDA4A8" />
    <path fill-rule="evenodd" clip-rule="evenodd"
        d="M22.7764 3.9663C22.773 4.07802 22.8292 4.15276 22.9451 4.19041C23.7099 4.30079 24.4036 4.58093 25.0259 5.03084C24.8602 5.1104 24.7852 5.24106 24.8009 5.42304C24.4635 5.38572 24.3136 5.5351 24.351 5.87127C24.0576 6.10255 23.7389 6.32666 23.395 6.54361C23.3394 6.72671 23.3208 6.9135 23.3388 7.10389C22.5449 7.89434 21.795 8.71616 21.0892 9.56914C20.9413 9.6785 20.7914 9.79056 20.6393 9.90531C20.1675 9.60219 19.755 9.24731 19.4021 8.84077C19.6998 7.56321 20.0373 6.31187 20.4144 5.08687C20.4708 4.7972 20.6021 4.53577 20.808 4.30247C20.8636 4.11937 20.8823 3.93257 20.8643 3.74219C21.5003 3.82612 22.1377 3.90075 22.7764 3.9663Z"
        fill="#F7878D" />
    <path fill-rule="evenodd" clip-rule="evenodd"
        d="M26.7131 5.53413C26.1507 6.13173 25.5883 6.72944 25.026 7.32704C25.0554 7.16142 25.018 7.01205 24.9135 6.87881C24.6068 7.11189 24.3068 7.33601 24.0137 7.55115C25.026 6.50533 26.0382 5.45939 27.0505 4.41357C27.2242 4.39082 27.3742 4.31608 27.5004 4.18945C27.5379 4.24548 27.5754 4.30151 27.6129 4.35754C27.3766 4.79837 27.0766 5.19057 26.7131 5.53413Z"
        fill="#E24B53" />
    <path fill-rule="evenodd" clip-rule="evenodd"
        d="M8.94178 9.3431C8.9609 9.19496 8.92344 9.06419 8.8293 8.9509C8.88835 8.87336 8.96337 8.81733 9.05425 8.78282C9.31733 8.91997 9.57974 8.91997 9.84158 8.78282C10.0646 8.61204 10.327 8.49999 10.6289 8.44665C10.7099 8.12314 10.9161 7.93645 11.2475 7.88636C11.6276 8.02767 12.0025 8.02767 12.3723 7.88636C12.4523 7.67715 12.396 7.50907 12.2036 7.38211C12.0061 7.35947 11.8187 7.30344 11.6412 7.21402C11.6647 7.14836 11.7023 7.09233 11.7537 7.04594C11.5675 6.88413 11.4925 6.67862 11.5287 6.42963C11.2208 6.46896 10.9209 6.5437 10.6289 6.65374C10.5915 6.59771 10.5539 6.54168 10.5164 6.48565C10.7178 6.24316 10.9614 6.03765 11.2475 5.86934C11.3031 5.68624 11.3218 5.49944 11.3038 5.30906C11.1429 5.31791 10.9929 5.2806 10.8539 5.197C10.7653 5.28015 10.6904 5.37349 10.6289 5.47714C9.3837 6.05894 8.25891 6.80602 7.25464 7.71828C6.92316 7.73083 6.7732 7.89891 6.80474 8.22253C6.55618 8.11552 6.51869 7.94743 6.69226 7.71828C8.03027 6.64556 9.455 5.71168 10.9663 4.91686C11.2889 4.76189 11.6264 4.66854 11.9786 4.63672C12.2969 5.83023 12.5781 7.02554 12.8222 8.22253C11.4823 8.45203 10.1888 8.82551 8.94178 9.3431Z"
        fill="#F5B5B9" />
    <path fill-rule="evenodd" clip-rule="evenodd"
        d="M28.5125 7.32637C28.6728 7.48572 28.7853 7.67252 28.8499 7.88666C28.2849 7.32368 27.685 6.80072 27.0503 6.31786C26.5554 6.77416 26.0681 7.22239 25.5881 7.66254C25.9968 7.06864 26.4841 6.54567 27.0503 6.09375C27.57 6.46163 28.0573 6.87243 28.5125 7.32637Z"
        fill="#E79095" />
    <path fill-rule="evenodd" clip-rule="evenodd"
        d="M22.7763 3.96484C23.0012 4.00216 23.2262 4.03959 23.4511 4.0769C24.1147 4.36948 24.7896 4.66822 25.4757 4.97335C24.7892 5.70363 24.0768 6.4134 23.3386 7.10243C23.3206 6.91205 23.3393 6.72525 23.3949 6.54215C23.7388 6.32521 24.0575 6.10109 24.3509 5.86981C24.3135 5.53364 24.4634 5.38427 24.8008 5.42158C24.7851 5.2396 24.8601 5.10894 25.0258 5.02938C24.4035 4.57947 23.7098 4.29933 22.945 4.18896C22.8291 4.15131 22.7729 4.07656 22.7763 3.96484Z"
        fill="#EB9198" />
    <path fill-rule="evenodd" clip-rule="evenodd"
        d="M8.94169 9.34336C8.70425 9.48187 8.4793 9.64995 8.26683 9.84762C8.09313 9.98063 7.90566 10.0179 7.70445 9.95968C7.54069 9.39917 7.33449 8.85749 7.08584 8.33485C7.01039 8.25059 6.91666 8.21316 6.80465 8.2228C6.77311 7.89918 6.92307 7.73109 7.25455 7.71854C8.25882 6.80629 9.38361 6.05921 10.6288 5.47741C10.6903 5.37375 10.7653 5.28041 10.8538 5.19727C10.9928 5.28086 11.1428 5.31817 11.3037 5.30932C11.3217 5.49971 11.303 5.68651 11.2474 5.86961C10.9613 6.03792 10.7177 6.24343 10.5163 6.48592C10.5538 6.54195 10.5914 6.59797 10.6288 6.654C10.9208 6.54396 11.2207 6.46922 11.5286 6.42989C11.4924 6.67888 11.5674 6.88439 11.7536 7.0462C11.7022 7.09259 11.6646 7.14862 11.6411 7.21429C11.8186 7.30371 12.006 7.35974 12.2035 7.38237C12.3959 7.50933 12.4522 7.67742 12.3722 7.88663C12.0024 8.02793 11.6275 8.02793 11.2474 7.88663C10.916 7.93672 10.7098 8.1234 10.6288 8.44691C10.3269 8.50025 10.0645 8.61231 9.84149 8.78308C9.57965 8.92024 9.31724 8.92024 9.05416 8.78308C8.96328 8.81759 8.88826 8.87362 8.82921 8.95117C8.92335 9.06446 8.96081 9.19523 8.94169 9.34336Z"
        fill="#F9AFB3" />
    <path fill-rule="evenodd" clip-rule="evenodd"
        d="M26.713 5.53516C26.713 5.68453 26.713 5.83401 26.713 5.98338C26.9112 5.99941 27.0987 5.96198 27.2754 5.87133C27.827 6.13791 28.2769 6.53011 28.6251 7.04792C28.5405 7.12311 28.5029 7.21646 28.5126 7.32806C28.0574 6.87412 27.5701 6.46332 27.0504 6.09544C26.4842 6.54736 25.9969 7.07033 25.5882 7.66423C24.7278 8.59688 23.903 9.56808 23.1138 10.5777C22.7419 10.8369 22.442 11.1731 22.214 11.5862C22.2905 11.7386 22.3655 11.888 22.4389 12.0344C22.2874 11.9593 22.1562 11.9593 22.0453 12.0344C22.0172 11.9085 21.961 11.7964 21.8765 11.6983C21.5256 11.7944 21.1882 11.9065 20.8643 12.0344C21.0142 11.8103 21.1642 11.5862 21.3142 11.3621C21.3892 11.3621 21.4266 11.3248 21.4266 11.25C22.6264 9.94268 23.8261 8.63543 25.0259 7.32806C25.5882 6.73047 26.1506 6.13275 26.713 5.53516Z"
        fill="#FEF2F1" />
    <path fill-rule="evenodd" clip-rule="evenodd"
        d="M28.85 7.88715C28.9231 8.10398 28.9606 8.3281 28.9625 8.55949C29.1978 8.56633 29.3665 8.67839 29.4686 8.89566C29.6809 9.31845 29.887 9.72937 30.0873 10.1283C30.2082 10.3873 30.2082 10.6487 30.0873 10.9127C29.0388 11.5457 27.989 12.1806 26.9379 12.8176C26.4884 12.7244 26.1884 12.8925 26.0381 13.3219C25.7161 13.4787 25.3787 13.5907 25.0258 13.6581C24.7813 13.9388 24.5001 14.1816 24.1823 14.3864C24.0357 14.3329 23.9046 14.2581 23.7886 14.1623C23.5751 13.6249 23.3314 13.102 23.0575 12.5935C22.9508 12.415 22.8196 12.2657 22.6639 12.1453C22.4839 11.9132 22.4277 11.6517 22.4951 11.3609C22.7685 11.1455 22.9746 10.8841 23.1138 10.5765C23.903 9.56688 24.7278 8.59569 25.5882 7.66304C26.0682 7.22288 26.5555 6.77465 27.0504 6.31836C27.6851 6.80121 28.2849 7.32418 28.85 7.88715Z"
        fill="#F57379" />
    <path fill-rule="evenodd" clip-rule="evenodd"
        d="M23.6762 7.77539C23.3762 8.29836 22.9639 8.70916 22.439 9.00801C22.8138 8.55979 23.2263 8.14888 23.6762 7.77539Z"
        fill="#E26D73" />
    <path fill-rule="evenodd" clip-rule="evenodd"
        d="M23.4513 4.07617C24.2512 4.14273 25.0011 4.36685 25.7008 4.74851C25.747 4.66313 25.7657 4.55107 25.757 4.41234C25.8507 4.5244 25.9445 4.63646 26.0382 4.74851C26.1161 4.68968 26.1723 4.61494 26.2069 4.5244C26.27 4.58289 26.3451 4.62021 26.4319 4.63646C26.6081 4.48451 26.8143 4.40976 27.0505 4.41234C26.0382 5.45817 25.0259 6.50411 24.0137 7.54993C23.9012 7.62467 23.7887 7.6993 23.6762 7.77404C23.2263 8.14753 22.8139 8.55844 22.439 9.00667C22.1016 9.2681 21.8016 9.56695 21.5392 9.90312C20.6768 10.6875 19.8521 11.5092 19.0647 12.3684C18.9897 12.4057 18.9148 12.4431 18.8398 12.4804C18.8494 12.3688 18.8119 12.2755 18.7273 12.2003C19.0409 12.1189 19.2096 11.9134 19.2334 11.584C19.3534 11.5065 19.4847 11.4505 19.6271 11.4159C20.2231 10.8221 20.8231 10.2244 21.4267 9.62298C21.3201 9.56886 21.2076 9.55026 21.0893 9.56695C21.7951 8.71398 22.5449 7.89215 23.3388 7.1017C24.077 6.41267 24.7894 5.7029 25.4758 4.97263C24.7897 4.6675 24.1149 4.36875 23.4513 4.07617Z"
        fill="#FEF2F1" />
    <path fill-rule="evenodd" clip-rule="evenodd"
        d="M25.026 7.32713C23.8262 8.6345 22.6265 9.94175 21.4268 11.2491C21.8553 10.7973 22.1553 10.3118 22.3266 9.79238C22.5364 9.9115 22.5927 9.83676 22.4953 9.56827C22.4198 9.484 22.3261 9.44657 22.2141 9.45621C22.3378 9.33239 22.4128 9.18302 22.439 9.00798C22.964 8.70913 23.3763 8.29833 23.6763 7.77536C23.7888 7.70062 23.9012 7.62599 24.0137 7.55125C24.3068 7.3361 24.6068 7.11198 24.9135 6.87891C25.018 7.01214 25.0555 7.16151 25.026 7.32713Z"
        fill="#EA3E48" />
    <path fill-rule="evenodd" clip-rule="evenodd"
        d="M22.4389 9.00781C22.4127 9.18285 22.3376 9.33222 22.2139 9.45604C22.0175 9.65236 21.7926 9.80173 21.5391 9.90427C21.8015 9.5681 22.1014 9.26924 22.4389 9.00781Z"
        fill="#E16972" />
    <path fill-rule="evenodd" clip-rule="evenodd"
        d="M28.8501 7.88672C29.4929 8.52948 29.999 9.27656 30.3685 10.1279C30.4628 10.4619 30.3691 10.7233 30.0873 10.9123C30.2082 10.6482 30.2082 10.3868 30.0873 10.1279C29.8871 9.72893 29.681 9.31802 29.4687 8.89523C29.3666 8.67795 29.1979 8.56589 28.9626 8.55906C28.9607 8.32766 28.9232 8.10355 28.8501 7.88672Z"
        fill="#E68389" />
    <path fill-rule="evenodd" clip-rule="evenodd"
        d="M23.1137 10.5762C22.9745 10.8838 22.7684 11.1452 22.4951 11.3606C22.4276 11.6514 22.4838 11.9129 22.6638 12.145C22.5887 12.1077 22.5138 12.0702 22.4388 12.0329C22.3654 11.8865 22.2904 11.7371 22.2139 11.5847C22.4419 11.1715 22.7418 10.8354 23.1137 10.5762Z"
        fill="#EEABAE" />
    <path fill-rule="evenodd" clip-rule="evenodd"
        d="M21.5392 9.9043C21.2782 10.2594 21.0345 10.6329 20.8081 11.0249C20.2091 11.4539 19.628 11.9022 19.0647 12.3695C19.852 11.5104 20.6768 10.6887 21.5392 9.9043Z"
        fill="#DB5157" />
    <path fill-rule="evenodd" clip-rule="evenodd"
        d="M21.3142 11.3594C21.1643 11.5835 21.0142 11.8076 20.8643 12.0317C20.4439 12.4141 20.0314 12.7875 19.6271 13.1523C19.595 12.9519 19.6325 12.7651 19.7395 12.592C20.0173 12.4511 20.2797 12.2831 20.5269 12.0877C20.4755 12.0414 20.4379 11.9853 20.4144 11.9197C20.5481 11.8156 20.698 11.7782 20.8643 11.8076C20.8643 11.6582 20.8643 11.5087 20.8643 11.3594C21.0142 11.3594 21.1643 11.3594 21.3142 11.3594Z"
        fill="#E3454E" />
    <path fill-rule="evenodd" clip-rule="evenodd"
        d="M31.212 12.2573C30.9236 12.4104 30.6424 12.5972 30.3684 12.8176C30.3584 12.9983 30.4522 13.1291 30.6496 13.2098C30.6121 13.2471 30.5746 13.2845 30.5371 13.3219C30.1763 13.2525 29.8013 13.1965 29.4124 13.1538C29.948 12.7551 30.5103 12.3816 31.0995 12.0332C31.1892 12.0844 31.2267 12.1592 31.212 12.2573Z"
        fill="#E96B73" />
    <path fill-rule="evenodd" clip-rule="evenodd"
        d="M12.991 12.2559C13.0077 12.3737 12.9891 12.4858 12.9347 12.592C11.957 12.915 11.9757 13.1578 12.991 13.3204C12.826 13.5654 12.601 13.64 12.3161 13.5445C12.0138 13.2215 11.6764 13.1468 11.3038 13.3204C10.8473 13.6611 10.5287 14.0907 10.3478 14.6091C10.1267 14.869 9.88293 15.0931 9.6167 15.2814C9.75819 15.0363 9.87067 14.7749 9.95413 14.497C10.378 14.0184 10.828 13.5515 11.3038 13.0963C11.8309 12.7377 12.3933 12.4576 12.991 12.2559Z"
        fill="#E7444B" />
    <path fill-rule="evenodd" clip-rule="evenodd"
        d="M18.8396 12.4818C18.9146 12.4445 18.9895 12.407 19.0646 12.3697C19.0793 12.4525 19.0605 12.5273 19.0083 12.5938C18.5043 13.1536 17.9607 13.6391 17.3774 14.0506C17.0769 14.0873 16.8894 14.2554 16.815 14.5548C16.635 14.5854 16.4663 14.6415 16.3089 14.7229C16.1956 15.1616 15.9895 15.5351 15.6903 15.8435C15.6153 15.8435 15.5404 15.8435 15.4653 15.8435C15.5861 15.6883 15.7361 15.5576 15.9152 15.4513C15.2749 15.0071 14.5625 14.839 13.7782 14.947C13.8515 14.8098 13.9828 14.735 14.1719 14.7229C14.4528 14.6762 14.734 14.6388 15.0154 14.6109C15.0154 14.4241 15.0154 14.2374 15.0154 14.0506C15.1476 14.0751 15.2601 14.0378 15.3529 13.9385C15.26 13.832 15.2413 13.7199 15.2966 13.6024C15.6628 13.419 15.9815 13.1762 16.2527 12.874C16.1915 12.7936 16.1165 12.7376 16.0277 12.7059C15.9414 12.6306 15.8664 12.5373 15.8028 12.4258C14.9458 12.2907 14.0835 12.2347 13.2158 12.2577C14.9664 11.8641 16.5223 12.275 17.8836 13.4903C18.2253 13.1688 18.5439 12.8326 18.8396 12.4818Z"
        fill="#D73E54" />
    <path fill-rule="evenodd" clip-rule="evenodd"
        d="M31.2122 12.2559C31.1906 12.7747 31.2656 13.2789 31.4371 13.7686C31.41 13.9909 31.335 14.1963 31.2122 14.3849C31.2468 14.4755 31.303 14.5502 31.3809 14.6091C31.4183 14.4597 31.4559 14.3102 31.4933 14.1608C31.5266 14.7467 31.6203 15.3069 31.7745 15.8417C31.7932 16.4405 31.7744 17.0381 31.7183 17.6346C31.6621 17.6906 31.6058 17.7466 31.5496 17.8027C30.548 18.0354 29.5357 18.2221 28.5127 18.363C28.1895 18.4685 27.8896 18.5993 27.6129 18.7551C26.8975 18.8129 26.1852 18.9062 25.4759 19.0353C25.2938 19.0617 25.1813 19.1551 25.1385 19.3154C24.9885 19.3154 24.8385 19.3154 24.6886 19.3154C24.6834 18.3782 24.6646 17.4444 24.6323 16.514C24.8021 16.4479 24.9708 16.3733 25.1385 16.2899C25.4068 15.681 25.8567 15.4196 26.4882 15.5055C26.2205 15.2698 26.2955 15.1391 26.7131 15.1133C26.8865 14.9597 27.0365 14.7916 27.163 14.6091C27.832 14.0134 28.5818 13.5278 29.4125 13.1523C29.8015 13.195 30.1765 13.251 30.5373 13.3204C30.5748 13.2831 30.6123 13.2457 30.6498 13.2083C30.4524 13.1277 30.3586 12.9969 30.3686 12.8161C30.6426 12.5957 30.9238 12.4089 31.2122 12.2559Z"
        fill="#F45E67" />
    <path fill-rule="evenodd" clip-rule="evenodd"
        d="M26.9379 12.8179C25.9357 13.3931 24.9609 14.0281 24.0135 14.7229C23.8941 14.5523 23.8191 14.3656 23.7886 14.1626C23.9045 14.2584 24.0357 14.3331 24.1822 14.3867C24.5001 14.1819 24.7813 13.939 25.0258 13.6583C25.3786 13.591 25.7161 13.4789 26.0381 13.3222C26.1884 12.8928 26.4883 12.7247 26.9379 12.8179Z"
        fill="#E3888D" />
    <path fill-rule="evenodd" clip-rule="evenodd"
        d="M16.0277 12.7051C16.1164 12.7368 16.1915 12.7928 16.2526 12.8732C15.9815 13.1754 15.6628 13.4182 15.2966 13.6015C15.2413 13.7191 15.2599 13.8311 15.3528 13.9377C15.26 14.037 15.1476 14.0743 15.0154 14.0498C15.0154 14.2366 15.0154 14.4232 15.0154 14.61C14.734 14.6379 14.4528 14.6754 14.1718 14.7221C13.9828 14.7342 13.8515 14.8089 13.7782 14.9462C13.7407 14.9462 13.7032 14.9462 13.6657 14.9462C13.6282 14.9462 13.5907 14.9462 13.5532 14.9462C13.5874 14.8734 13.6249 14.7986 13.6657 14.7221C13.9281 14.6474 14.1906 14.5727 14.453 14.498C14.3406 14.3486 14.2281 14.1991 14.1156 14.0498C14.5038 13.3837 15.0849 13.0101 15.859 12.9292C15.9748 12.8915 16.0311 12.8168 16.0277 12.7051Z"
        fill="#E63647" />
    <path fill-rule="evenodd" clip-rule="evenodd"
        d="M31.2121 12.2559C31.4317 12.8233 31.5816 13.4209 31.662 14.0488C31.6831 14.6477 31.7205 15.2453 31.7745 15.8417C31.6203 15.3069 31.5266 14.7467 31.4933 14.1608C31.4559 14.3102 31.4183 14.4597 31.3808 14.6091C31.303 14.5502 31.2468 14.4755 31.2121 14.3849C31.3349 14.1963 31.41 13.9909 31.4371 13.7686C31.2655 13.2789 31.1905 12.7747 31.2121 12.2559Z"
        fill="#EB6B74" />
    <path fill-rule="evenodd" clip-rule="evenodd"
        d="M1.63081 16.8518C1.46014 16.853 1.32892 16.9277 1.23715 17.0759C1.2184 17.0012 1.19966 16.9266 1.18091 16.8518C1.46583 15.9726 1.76577 15.1135 2.08071 14.2745C2.26789 13.8454 2.3991 13.3972 2.47438 12.9298C3.34788 11.5416 4.34141 10.2529 5.45499 9.06387C5.52998 8.98913 5.60495 8.98913 5.67994 9.06387C6.12939 9.47444 6.46682 9.95999 6.69222 10.5206C6.67594 10.658 6.63845 10.7888 6.57975 10.9128C5.64194 11.6792 4.76087 12.501 3.93657 13.3781C3.7945 13.8774 3.49456 14.2509 3.03676 14.4986C2.56533 15.2897 2.09668 16.0741 1.63081 16.8518Z"
        fill="#F9C5C8" />
    <path fill-rule="evenodd" clip-rule="evenodd"
        d="M22.2139 9.45461C22.3259 9.44497 22.4196 9.4824 22.4951 9.56666C22.5925 9.83515 22.5363 9.90989 22.3264 9.79078C22.1551 10.3102 21.8551 10.7957 21.4266 11.2475C21.4266 11.3223 21.3891 11.3596 21.3141 11.3596C21.1642 11.3596 21.0141 11.3596 20.8642 11.3596C20.8642 11.5089 20.8642 11.6584 20.8642 11.8078C20.698 11.7784 20.548 11.8158 20.4143 11.9199C20.4378 11.9855 20.4754 12.0415 20.5268 12.0879C20.2797 12.2833 20.0173 12.4513 19.7394 12.5922C19.6324 12.7653 19.5949 12.9521 19.627 13.1525C19.627 13.2272 19.5895 13.2645 19.5145 13.2645C19.402 13.2645 19.2895 13.2645 19.1771 13.2645C19.1771 13.3766 19.1771 13.4886 19.1771 13.6007C19.0646 13.6007 18.9521 13.6007 18.8396 13.6007C18.8396 13.7128 18.8396 13.8248 18.8396 13.9369C18.6734 13.9075 18.5235 13.9448 18.3897 14.0489C17.8536 14.5035 17.3661 15.0078 16.9275 15.5617C16.6089 15.5804 16.4402 15.7485 16.4214 16.066C16.2245 15.8741 16.1494 15.65 16.1964 15.3936C16.5378 15.016 16.9127 14.6798 17.3212 14.3851C17.3755 14.2789 17.3942 14.1668 17.3774 14.0489C17.9607 13.6375 18.5043 13.1519 19.0083 12.5922C19.0605 12.5256 19.0793 12.4509 19.0646 12.3681C19.6279 11.9007 20.209 11.4525 20.808 11.0234C21.0344 10.6314 21.2781 10.2579 21.539 9.90283C21.7926 9.8003 22.0175 9.65093 22.2139 9.45461Z"
        fill="#F2353E" />
    <path fill-rule="evenodd" clip-rule="evenodd"
        d="M31.6619 14.0488C31.8969 14.8953 32.0094 15.773 31.9993 16.6822C31.9979 17.1194 31.9229 17.5116 31.7743 17.8588C31.9212 17.1753 31.9212 16.503 31.7743 15.8417C31.7204 15.2454 31.6829 14.6478 31.6619 14.0488Z"
        fill="#DA8489" />
    <path fill-rule="evenodd" clip-rule="evenodd"
        d="M13.5534 14.9453C13.5909 14.9453 13.6284 14.9453 13.6659 14.9453C13.1575 15.1885 12.7076 15.5246 12.3162 15.9538C12.3162 15.767 12.3162 15.5803 12.3162 15.3935C12.682 15.1569 13.0945 15.0075 13.5534 14.9453Z"
        fill="#E0545C" />
    <path fill-rule="evenodd" clip-rule="evenodd"
        d="M27.163 14.6094C27.0364 14.7919 26.8864 14.96 26.7131 15.1136C26.2954 15.1394 26.2204 15.2702 26.4881 15.5058C25.8567 15.4199 25.4068 15.6813 25.1384 16.2902C24.9707 16.3736 24.802 16.4482 24.6323 16.5143C24.6645 17.4447 24.6833 18.3785 24.6885 19.3158C24.8384 19.3158 24.9885 19.3158 25.1384 19.3158C24.9788 19.4223 24.7914 19.4596 24.576 19.4278C24.5337 18.3438 24.5149 17.2605 24.5198 16.1782C25.3643 15.5807 26.2453 15.0577 27.163 14.6094Z"
        fill="#E77279" />
    <path fill-rule="evenodd" clip-rule="evenodd"
        d="M19.5146 13.2656C19.3673 13.5988 19.1423 13.8603 18.8397 14.05C18.5516 14.6025 18.1955 15.1254 17.7712 15.6188C17.2757 15.7854 16.8445 16.0469 16.4777 16.4032C16.3733 16.5364 16.3358 16.6858 16.3653 16.8514C16.3653 16.9262 16.3278 16.9635 16.2528 16.9635C16.1041 16.9825 15.9728 16.9452 15.8591 16.8514C15.7246 17.0516 15.5559 17.2009 15.353 17.2997C15.2098 17.235 15.2098 17.1604 15.353 17.0756C15.6162 16.8323 15.916 16.6455 16.2528 16.5153C16.1735 16.1897 15.986 15.9656 15.6904 15.8429C15.9896 15.5345 16.1958 15.1611 16.309 14.7224C16.4664 14.6409 16.6351 14.5849 16.8152 14.5543C16.8895 14.2549 17.077 14.0868 17.3776 14.05C17.3943 14.1679 17.3756 14.28 17.3213 14.3862C16.9128 14.6809 16.5379 15.0171 16.1966 15.3947C16.1495 15.6511 16.2246 15.8752 16.4215 16.067C16.4403 15.7496 16.609 15.5815 16.9277 15.5628C17.3662 15.0089 17.8537 14.5046 18.3898 14.05C18.5236 13.9459 18.6735 13.9086 18.8397 13.938C18.8397 13.8259 18.8397 13.7139 18.8397 13.6018C18.9522 13.6018 19.0647 13.6018 19.1772 13.6018C19.1772 13.4897 19.1772 13.3777 19.1772 13.2656C19.2896 13.2656 19.4021 13.2656 19.5146 13.2656Z"
        fill="#E93843" />
    <path fill-rule="evenodd" clip-rule="evenodd"
        d="M5.11763 16.0661C4.61557 16.1943 4.09068 16.269 3.54297 16.2903C4.03569 16.0985 4.56058 16.0239 5.11763 16.0661Z"
        fill="#F8CDD0" />
    <path fill-rule="evenodd" clip-rule="evenodd"
        d="M3.54297 16.2912C4.09068 16.27 4.61557 16.1953 5.11763 16.0671C6.12923 16.0149 7.14151 15.9775 8.15448 15.9551C8.1349 16.2196 8.09741 16.4811 8.042 16.7395C7.06542 16.7206 6.09062 16.6646 5.11763 16.5714C4.43166 16.5233 3.90677 16.43 3.54297 16.2912Z"
        fill="#DA555C" />
    <path fill-rule="evenodd" clip-rule="evenodd"
        d="M6.01748 16.1777C6.65485 16.1777 7.2922 16.1777 7.92957 16.1777C7.92957 16.3271 7.92957 16.4766 7.92957 16.626C6.99883 16.4796 6.06154 16.3863 5.11768 16.3458C5.43989 16.3253 5.73982 16.2693 6.01748 16.1777Z"
        fill="#EF383D" />
    <path fill-rule="evenodd" clip-rule="evenodd"
        d="M15.4653 15.8418C15.4653 16.0286 15.4653 16.2153 15.4653 16.4021C15.193 16.4444 14.9306 16.5192 14.678 16.6262C14.9029 16.3273 15.1653 16.0659 15.4653 15.8418Z"
        fill="#DD555D" />
    <path fill-rule="evenodd" clip-rule="evenodd"
        d="M19.402 15.9551C19.5622 16.1809 19.6371 16.4423 19.627 16.7395C19.4668 16.5137 19.3919 16.2523 19.402 15.9551Z"
        fill="#D77782" />
    <path fill-rule="evenodd" clip-rule="evenodd"
        d="M18.8397 14.0488C18.8196 14.1827 18.7822 14.3135 18.7272 14.441C19.0289 14.9112 19.2538 15.4155 19.402 15.9538C19.3919 16.251 19.4668 16.5124 19.627 16.7382C19.7743 17.5337 19.7743 18.3181 19.627 19.0914C19.6457 18.4553 19.6269 17.8203 19.5708 17.1864C19.4819 16.7799 19.2382 16.5558 18.8397 16.5141C18.8397 16.8876 18.8397 17.2612 18.8397 17.6346C18.4675 17.6131 18.1863 17.7625 17.9961 18.0829C17.7833 18.0123 17.5958 17.9002 17.4337 17.7467C17.2994 18.3535 17.1307 18.9512 16.9276 19.5396C16.9312 19.7771 16.8187 19.9264 16.5902 19.9878C17.059 18.9403 17.1526 17.8571 16.8713 16.7382C16.6789 16.6171 16.5102 16.6544 16.3652 16.8502C16.3357 16.6846 16.3732 16.5353 16.4777 16.402C16.8445 16.0457 17.2756 15.7843 17.7711 15.6176C18.1954 15.1242 18.5515 14.6013 18.8397 14.0488Z"
        fill="#D63A53" />
    <path fill-rule="evenodd" clip-rule="evenodd"
        d="M15.4654 15.8418C15.5404 15.8418 15.6153 15.8418 15.6904 15.8418C15.986 15.9645 16.1735 16.1886 16.2527 16.5141C15.916 16.6443 15.6161 16.8311 15.3529 17.0744C15.2098 17.1592 15.2098 17.2339 15.3529 17.2985C15.3871 17.3714 15.4246 17.4461 15.4654 17.5226C15.2937 17.8767 15.2188 18.2502 15.2405 18.6432C15.128 18.6432 15.0155 18.6432 14.903 18.6432C14.903 18.7553 14.903 18.8673 14.903 18.9794C14.6352 19.0825 14.3728 19.0825 14.1157 18.9794C13.9844 18.7926 13.8533 18.6059 13.722 18.4191C13.6083 18.5129 13.4771 18.5502 13.3284 18.5312C13.1529 18.0976 13.1905 17.6868 13.4409 17.2985C13.9422 17.2173 14.3546 16.9932 14.6781 16.6262C14.9307 16.5192 15.1931 16.4444 15.4654 16.4021C15.4654 16.2153 15.4654 16.0286 15.4654 15.8418Z"
        fill="#F1363E" />
    <path fill-rule="evenodd" clip-rule="evenodd"
        d="M2.0808 14.2754C1.76586 15.1144 1.46592 15.9735 1.181 16.8527C1.19975 16.9274 1.21848 17.0021 1.23723 17.0768C1.329 16.9286 1.46023 16.8539 1.6309 16.8527C0.991407 18.1829 0.447778 19.5649 0 20.9988C0.00037117 20.248 0.0753588 19.501 0.224952 18.7577C0.579498 17.5861 0.954414 16.4282 1.34971 15.2839C1.62486 14.9564 1.86856 14.6202 2.0808 14.2754Z"
        fill="#F5CED2" />
    <path fill-rule="evenodd" clip-rule="evenodd"
        d="M13.6659 14.9477C13.7034 14.9477 13.7409 14.9477 13.7784 14.9477C14.5627 14.8397 15.2751 15.0078 15.9154 15.452C15.7362 15.5583 15.5863 15.689 15.4655 15.8442C15.1655 16.0683 14.9031 16.3297 14.6782 16.6286C13.8932 16.606 13.3495 16.9422 13.0473 17.6371C13.1243 18.9171 13.7805 19.384 15.0156 19.0378C15.4073 18.6548 15.6509 18.1878 15.7467 17.6371C15.8965 17.395 16.0652 17.1709 16.2528 16.9647C16.3279 16.9647 16.3653 16.9274 16.3653 16.8527C16.5103 16.6568 16.679 16.6195 16.8715 16.7406C17.1528 17.8595 17.0591 18.9428 16.5903 19.9903C16.2125 20.3297 15.8376 20.6659 15.4655 20.9988C14.3002 21.4274 13.2879 21.2033 12.4287 20.3264C12.3601 20.1097 12.2476 19.9229 12.0912 19.7662C11.806 19.0483 11.6935 18.3012 11.7538 17.525C11.8148 16.9558 12.0022 16.4328 12.3162 15.9562C12.7076 15.527 13.1575 15.1909 13.6659 14.9477Z"
        fill="#FCF8F7" />
    <path fill-rule="evenodd" clip-rule="evenodd"
        d="M9.954 14.498C9.87054 14.7759 9.75806 15.0374 9.61657 15.2824C9.24056 16.0408 9.0344 16.8626 8.99795 17.7477C8.61621 17.8548 8.22259 17.8921 7.81696 17.8597C7.19265 17.8628 6.59278 17.9375 6.01734 18.0839C3.9249 18.0852 3.9249 18.1599 6.01734 18.308C6.16255 18.2814 6.27503 18.3187 6.35477 18.42C5.75012 18.3937 5.15025 18.431 4.55516 18.5321C4.22941 18.4734 4.15443 18.3053 4.33021 18.0278C5.81933 17.7895 7.31902 17.6587 8.82924 17.6356C8.85263 17.3645 8.81507 17.103 8.71676 16.8512C9.03068 16.5386 9.1057 16.1837 8.94172 15.7867C9.185 15.4639 9.39117 15.109 9.56033 14.7222C9.65211 14.5739 9.78337 14.4993 9.954 14.498Z"
        fill="#FEECE9" />
    <path fill-rule="evenodd" clip-rule="evenodd"
        d="M12.3161 15.9551C12.0021 16.4317 11.8147 16.9546 11.7538 17.5239C11.6433 17.9118 11.6059 18.3227 11.6413 18.7565C11.4933 18.1387 11.4933 17.5037 11.6413 16.8515C11.8423 16.5873 11.9548 16.2884 11.9787 15.9551C12.0912 15.9551 12.2037 15.9551 12.3161 15.9551Z"
        fill="#DC4A4F" />
    <path fill-rule="evenodd" clip-rule="evenodd"
        d="M7.81719 17.8613C7.24379 18.0246 6.64392 18.0993 6.01758 18.0854C6.59302 17.9391 7.19288 17.8644 7.81719 17.8613Z"
        fill="#D36162" />
    <path fill-rule="evenodd" clip-rule="evenodd"
        d="M6.01758 18.084C6.01758 18.1587 6.01758 18.2334 6.01758 18.3081C3.92513 18.1601 3.92513 18.0853 6.01758 18.084Z"
        fill="#CF6374" />
    <path fill-rule="evenodd" clip-rule="evenodd"
        d="M9.6168 15.2832C9.39793 16.2195 9.21043 17.172 9.05443 18.1406C9.36036 18.7929 9.54774 19.4839 9.6168 20.2137C9.69408 20.444 9.82534 20.6307 10.0105 20.774C10.0664 21.0328 10.085 21.2943 10.0667 21.5584C9.46361 20.6568 9.12619 19.6483 9.05443 18.5328C8.1552 18.4841 7.2554 18.4467 6.35501 18.4208C6.27526 18.3195 6.16278 18.2822 6.01758 18.3087C6.01758 18.234 6.01758 18.1594 6.01758 18.0846C6.64392 18.0985 7.24379 18.0238 7.81719 17.8605C8.22282 17.8929 8.61644 17.8556 8.99819 17.7485C9.03463 16.8633 9.2408 16.0416 9.6168 15.2832Z"
        fill="#E4444B" />
    <path fill-rule="evenodd" clip-rule="evenodd"
        d="M19.6269 19.0929C19.6346 19.549 19.5221 19.9599 19.2895 20.3256C19.3395 20.0045 19.2645 19.7244 19.0645 19.4851C19.3618 18.9122 19.5117 18.2959 19.5144 17.6362C19.3645 17.6362 19.2145 17.6362 19.0645 17.6362C19.0396 18.3158 18.9271 18.3906 18.7271 17.8603C18.4433 18.2555 18.0684 18.5171 17.6023 18.6447C17.3246 18.919 17.0997 19.2179 16.9275 19.5412C17.1306 18.9527 17.2993 18.355 17.4336 17.7482C17.5957 17.9018 17.7832 18.0138 17.996 18.0844C18.1862 17.764 18.4674 17.6147 18.8396 17.6362C18.8396 17.2627 18.8396 16.8891 18.8396 16.5156C19.2381 16.5573 19.4818 16.7814 19.5707 17.188C19.6268 17.8219 19.6456 18.4569 19.6269 19.0929Z"
        fill="#E83847" />
    <path fill-rule="evenodd" clip-rule="evenodd"
        d="M14.678 16.6261C14.3545 16.993 13.9421 17.2172 13.4408 17.2984C13.1904 17.6867 13.1528 18.0975 13.3283 18.531C13.477 18.5501 13.6083 18.5128 13.722 18.419C13.8532 18.6058 13.9844 18.7925 14.1156 18.9793C14.3728 19.0823 14.6352 19.0823 14.903 18.9793C14.903 18.8672 14.903 18.7551 14.903 18.6431C15.0154 18.6431 15.1279 18.6431 15.2404 18.6431C15.2187 18.2501 15.2936 17.8766 15.4653 17.5225C15.4245 17.446 15.3871 17.3712 15.3529 17.2984C15.5558 17.1997 15.7245 17.0503 15.859 16.8502C15.9727 16.944 16.104 16.9813 16.2527 16.9622C16.0651 17.1684 15.8964 17.3925 15.7465 17.6346C15.6507 18.1853 15.4071 18.6523 15.0154 19.0353C13.7803 19.3815 13.1242 18.9146 13.0471 17.6346C13.3493 16.9397 13.893 16.6035 14.678 16.6261Z"
        fill="#E14851" />
    <path fill-rule="evenodd" clip-rule="evenodd"
        d="M31.7744 15.8418C31.9213 16.503 31.9213 17.1754 31.7744 17.8588C30.4073 18.1843 29.0201 18.4832 27.6128 18.7553C27.8895 18.5994 28.1893 18.4686 28.5126 18.3631C29.5356 18.2222 30.5478 18.0355 31.5494 17.8028C31.6057 17.7468 31.6619 17.6907 31.7182 17.6347C31.7743 17.0382 31.7931 16.4406 31.7744 15.8418Z"
        fill="#E66B78" />
    <path fill-rule="evenodd" clip-rule="evenodd"
        d="M12.9909 12.257C13.0659 12.257 13.1408 12.257 13.2158 12.257C14.0835 12.234 14.9458 12.29 15.8028 12.425C15.8664 12.5365 15.9415 12.6299 16.0277 12.7052C16.0311 12.8169 15.9749 12.8917 15.859 12.9293C15.085 13.0102 14.5038 13.3838 14.1156 14.0499C14.2281 14.1992 14.3406 14.3487 14.4531 14.4981C14.1907 14.5728 13.9281 14.6475 13.6657 14.7222C13.6249 14.7987 13.5875 14.8735 13.5533 14.9463C13.0944 15.0085 12.6819 15.1579 12.316 15.3946C12.316 15.5813 12.316 15.768 12.316 15.9548C12.2036 15.9548 12.0911 15.9548 11.9786 15.9548C11.9546 16.2882 11.8422 16.5871 11.6412 16.8513C11.4932 17.5035 11.4932 18.1385 11.6412 18.7563C11.674 19.1558 11.8241 19.492 12.0911 19.7648C12.2474 19.9215 12.3599 20.1083 12.4285 20.325C12.4311 20.597 12.4873 20.8584 12.5972 21.1094C12.6438 21.0582 12.7 21.0208 12.7659 20.9974C13.6033 21.3025 14.4657 21.3959 15.3529 21.2775C15.4375 21.2023 15.475 21.109 15.4654 20.9974C15.9795 20.8216 16.3545 20.4854 16.5901 19.9889C16.8187 19.9275 16.9311 19.7781 16.9275 19.5407C17.0997 19.2174 17.3247 18.9185 17.6024 18.6442C18.0685 18.5166 18.4434 18.255 18.7271 17.8598C18.9271 18.3901 19.0396 18.3153 19.0646 17.6357C19.2145 17.6357 19.3646 17.6357 19.5145 17.6357C19.5118 18.2954 19.3619 18.9117 19.0646 19.4846C19.2646 19.7239 19.3396 20.004 19.2895 20.325C19.0226 20.558 18.8727 20.8569 18.8396 21.2215C18.7271 21.2215 18.6147 21.2215 18.5022 21.2215C18.5022 21.3709 18.5022 21.5204 18.5022 21.6697C18.3897 21.6697 18.2772 21.6697 18.1648 21.6697C18.1648 21.8565 18.1648 22.0432 18.1648 22.23C17.8162 22.7269 17.3663 23.1004 16.8151 23.3506C16.2628 23.5275 15.7004 23.6956 15.1279 23.8548C14.5668 23.9108 14.0044 23.9295 13.4408 23.9109C13.4033 23.9109 13.3658 23.9109 13.3283 23.9109C13.2763 23.7562 13.1639 23.6815 12.9909 23.6867C12.6592 23.5969 12.3218 23.5595 11.9786 23.5747C11.959 23.8393 11.9216 24.1007 11.8661 24.3591C11.8661 24.3964 11.8661 24.4338 11.8661 24.4711C11.572 24.6817 11.3284 24.9431 11.135 25.2555C11.0461 25.3951 10.9898 25.5444 10.9663 25.7038C10.4483 26.2973 9.96078 26.9322 9.50413 27.6087C9.40774 27.7124 9.29526 27.7871 9.1667 27.8328C8.95368 27.8943 8.76629 28.0063 8.60433 28.169C8.23672 28.2796 7.86181 28.3169 7.47957 28.2811C7.47957 28.169 7.47957 28.057 7.47957 27.9449C7.25462 27.9449 7.02966 27.9449 6.80471 27.9449C6.80471 27.9076 6.80471 27.8702 6.80471 27.8328C6.63566 27.4025 6.52319 26.9543 6.46729 26.4882C6.57415 26.0563 6.72411 25.6454 6.91719 25.2555C7.52352 24.7079 8.12339 24.1289 8.7168 23.5187C8.82343 23.4645 8.9359 23.4459 9.05423 23.4626C9.20967 22.913 9.52831 22.4648 10.0103 22.118C10.0646 22.0117 10.0833 21.8997 10.0665 21.7818C10.0665 21.707 10.0665 21.6324 10.0665 21.5577C10.0848 21.2936 10.0662 21.0321 10.0103 20.7733C9.82514 20.63 9.69388 20.4433 9.61661 20.213C9.54755 19.4832 9.36016 18.7922 9.05423 18.1399C9.21023 17.1713 9.39773 16.2188 9.61661 15.2825C9.88284 15.0942 10.1266 14.8701 10.3477 14.6102C10.5286 14.0918 10.8472 13.6622 11.3037 13.3215C11.6763 13.1479 12.0137 13.2226 12.316 13.5456C12.6009 13.6411 12.8259 13.5665 12.9909 13.3215C11.9756 13.1589 11.9569 12.9161 12.9346 12.5931C12.989 12.4869 13.0076 12.3748 12.9909 12.257Z"
        fill="#F0363F" />
    <path fill-rule="evenodd" clip-rule="evenodd"
        d="M27.6129 18.7559C26.8151 19.0038 25.9903 19.1906 25.1384 19.3161C25.1813 19.1558 25.2938 19.0624 25.4759 19.036C26.1851 18.9069 26.8974 18.8136 27.6129 18.7559Z"
        fill="#DF7077" />
    <path fill-rule="evenodd" clip-rule="evenodd"
        d="M11.7538 17.5234C11.6935 18.2997 11.806 19.0467 12.0912 19.7646C11.8242 19.4918 11.6742 19.1557 11.6413 18.7561C11.6059 18.3223 11.6434 17.9114 11.7538 17.5234Z"
        fill="#E58086" />
    <path fill-rule="evenodd" clip-rule="evenodd"
        d="M6.46734 20.3254C6.99223 20.3254 7.51711 20.3254 8.042 20.3254C8.042 20.1386 8.042 19.9519 8.042 19.7651C6.76449 19.7555 5.48977 19.8115 4.21783 19.9332C4.18034 19.9705 4.14284 20.008 4.10535 20.0453C4.77231 20.0508 5.40968 20.1441 6.01744 20.3254C4.8144 20.2529 3.61465 20.1409 2.41821 19.9892C4.32504 19.7795 6.23713 19.6301 8.15448 19.541C8.16293 19.8442 8.20042 20.1431 8.26696 20.4375C7.64539 20.4734 7.04552 20.4361 6.46734 20.3254Z"
        fill="#DA6063" />
    <path fill-rule="evenodd" clip-rule="evenodd"
        d="M31.7743 21.2219C31.6993 21.5207 31.6244 21.8195 31.5494 22.1183C31.5518 21.3626 31.6268 20.6155 31.7743 19.8772C30.9807 19.8934 30.1934 19.9682 29.4124 20.1013C30.2011 19.8117 31.0259 19.6249 31.8868 19.541C31.8966 20.1054 31.8592 20.6657 31.7743 21.2219Z"
        fill="#E45B69" />
    <path fill-rule="evenodd" clip-rule="evenodd"
        d="M6.46746 20.325C6.3175 20.325 6.16752 20.325 6.01756 20.325C5.40979 20.1437 4.77243 20.0504 4.10547 20.0449C4.14296 20.0076 4.18046 19.9701 4.21794 19.9328C5.48989 19.8111 6.76461 19.7551 8.04212 19.7647C8.04212 19.9515 8.04212 20.1382 8.04212 20.325C7.51723 20.325 6.99235 20.325 6.46746 20.325Z"
        fill="#E83B43" />
    <path fill-rule="evenodd" clip-rule="evenodd"
        d="M16.5901 19.9883C16.3545 20.4848 15.9795 20.821 15.4653 20.9968C15.8374 20.6639 16.2123 20.3277 16.5901 19.9883Z"
        fill="#E26A6E" />
    <path fill-rule="evenodd" clip-rule="evenodd"
        d="M28.7377 20.2129C28.347 20.502 27.8971 20.6887 27.3879 20.7732C26.8683 20.8844 26.3435 20.9219 25.8133 20.8852C25.8133 20.9973 25.8133 21.1093 25.8133 21.2214C25.4299 21.1933 25.055 21.2307 24.6885 21.3335C24.5965 21.6256 24.5403 21.9244 24.5198 22.2299C24.4767 22.2922 24.4205 22.3295 24.3511 22.342C24.3326 22.0409 24.3514 21.742 24.4073 21.4455C24.4431 21.2706 24.5368 21.1398 24.6885 21.0533C26.0329 20.7368 27.3827 20.4566 28.7377 20.2129Z"
        fill="#E65C65" />
    <path fill-rule="evenodd" clip-rule="evenodd"
        d="M31.5495 22.1181C31.4683 22.1649 31.4121 22.2396 31.3808 22.3422C31.3192 22.7534 31.2629 23.1644 31.2121 23.5748C28.9626 23.5748 26.7131 23.5748 24.4636 23.5748C24.4138 23.1654 24.3763 22.7545 24.3511 22.3422C24.4205 22.3298 24.4767 22.2924 24.5198 22.2301C24.5403 21.9247 24.5965 21.6258 24.6885 21.3337C25.0549 21.2309 25.4298 21.1935 25.8133 21.2216C25.8133 21.1096 25.8133 20.9975 25.8133 20.8855C26.3435 20.9221 26.8683 20.8847 27.3879 20.7734C27.8971 20.6889 28.347 20.5022 28.7376 20.2131C28.9362 20.1054 29.1611 20.068 29.4125 20.1011C30.1935 19.9679 30.9808 19.8932 31.7745 19.877C31.6269 20.6153 31.5519 21.3624 31.5495 22.1181Z"
        fill="#F34A52" />
    <path fill-rule="evenodd" clip-rule="evenodd"
        d="M12.4287 20.3242C13.2879 21.2011 14.3002 21.4252 15.4656 20.9966C15.4752 21.1082 15.4377 21.2015 15.3531 21.2767C14.4659 21.395 13.6035 21.3017 12.7661 20.9966C12.7002 21.02 12.644 21.0574 12.5974 21.1086C12.4875 20.8576 12.4313 20.5962 12.4287 20.3242Z"
        fill="#E24C55" />
    <path fill-rule="evenodd" clip-rule="evenodd"
        d="M19.2896 20.3242C19.1148 21.0844 18.7398 21.7194 18.1648 22.2292C18.1648 22.0424 18.1648 21.8557 18.1648 21.6689C18.2773 21.6689 18.3897 21.6689 18.5022 21.6689C18.5022 21.5195 18.5022 21.37 18.5022 21.2207C18.6147 21.2207 18.7272 21.2207 18.8396 21.2207C18.8727 20.856 19.0226 20.5572 19.2896 20.3242Z"
        fill="#E14B57" />
    <path fill-rule="evenodd" clip-rule="evenodd"
        d="M31.7744 21.2207C31.8327 21.8288 31.7202 22.3891 31.437 22.9016C31.4566 22.637 31.494 22.3756 31.5495 22.1172C31.6245 21.8183 31.6994 21.5196 31.7744 21.2207Z"
        fill="#FACCCC" />
    <path fill-rule="evenodd" clip-rule="evenodd"
        d="M13.3284 23.9098C13.0268 23.914 12.7457 23.8393 12.4848 23.6857C12.2548 23.8958 12.0486 24.1199 11.8662 24.358C11.9217 24.0996 11.9591 23.8382 11.9787 23.5736C12.3219 23.5584 12.6593 23.5958 12.991 23.6857C13.164 23.6804 13.2764 23.7552 13.3284 23.9098Z"
        fill="#E0575C" />
    <path fill-rule="evenodd" clip-rule="evenodd"
        d="M31.5496 22.1172C31.4941 22.3756 31.4567 22.637 31.4371 22.9016C31.3817 23.16 31.3442 23.4214 31.3246 23.686C28.9261 23.771 26.5266 23.8083 24.1262 23.798C24.1192 23.2853 24.1942 22.7997 24.3511 22.3413C24.3763 22.7536 24.4139 23.1645 24.4636 23.5739C26.7131 23.5739 28.9626 23.5739 31.2122 23.5739C31.263 23.1635 31.3192 22.7525 31.3809 22.3413C31.4121 22.2387 31.4684 22.164 31.5496 22.1172Z"
        fill="#DE6369" />
    <path fill-rule="evenodd" clip-rule="evenodd"
        d="M10.0666 21.7812C10.0833 21.8991 10.0646 22.0112 10.0103 22.1174C9.52836 22.4642 9.20972 22.9125 9.05428 23.4621C8.93595 23.4454 8.82348 23.464 8.71685 23.5181C8.12344 24.1284 7.52357 24.7074 6.91724 25.255C7.97021 24.0942 9.01997 22.9363 10.0666 21.7812Z"
        fill="#DC5860" />
    <path fill-rule="evenodd" clip-rule="evenodd"
        d="M16.8152 23.3496C15.7639 23.9975 14.6391 24.1843 13.4409 23.9099C14.0045 23.9285 14.5669 23.9098 15.1281 23.8539C15.7006 23.6946 16.2629 23.5265 16.8152 23.3496Z"
        fill="#D75C64" />
    <path fill-rule="evenodd" clip-rule="evenodd"
        d="M11.8661 24.4727C11.701 24.9328 11.4948 25.381 11.2475 25.8173C11.209 25.5799 11.1153 25.5425 10.9663 25.7053C10.9898 25.5459 11.0461 25.3966 11.135 25.2571C11.3284 24.9446 11.572 24.6832 11.8661 24.4727Z"
        fill="#FEDFE0" />
    <path fill-rule="evenodd" clip-rule="evenodd"
        d="M25.8132 25.3693C27.4823 25.2207 29.1694 25.2207 30.8746 25.3693C30.8153 25.575 30.7403 25.7618 30.6497 25.9295C30.6497 25.7427 30.6497 25.5561 30.6497 25.3693C30.3873 25.3693 30.1248 25.3693 29.8624 25.3693C29.1125 25.3693 28.3627 25.3693 27.6128 25.3693C27.013 25.3693 26.4131 25.3693 25.8132 25.3693Z"
        fill="#E36D74" />
    <path fill-rule="evenodd" clip-rule="evenodd"
        d="M27.6127 25.3672C28.3626 25.3672 29.1124 25.3672 29.8622 25.3672C30.0218 25.4738 30.2092 25.5111 30.4246 25.4792C30.4246 25.7781 30.4246 26.0768 30.4246 26.3757C30.3121 26.3757 30.1997 26.3757 30.0872 26.3757C30.1058 26.7511 30.087 27.1246 30.031 27.4963C29.872 27.7374 29.7783 27.999 29.7498 28.2807C27.5003 28.2807 25.2507 28.2807 23.0012 28.2807C23.0242 27.9425 23.0616 27.6063 23.1137 27.2722C23.2603 27.2585 23.4102 27.2585 23.5636 27.2722C23.5022 27.1296 23.4647 26.9801 23.4511 26.8239C23.6228 26.3909 23.6977 25.9427 23.6761 25.4792C25.0084 25.516 26.3206 25.4787 27.6127 25.3672Z"
        fill="#F0363F" />
    <path fill-rule="evenodd" clip-rule="evenodd"
        d="M6.91717 25.2559C6.72409 25.6457 6.57413 26.0566 6.46727 26.4885C6.52317 26.9546 6.63564 27.4029 6.80469 27.8332C6.03619 26.9499 6.07368 26.0908 6.91717 25.2559Z"
        fill="#DF585E" />
    <path fill-rule="evenodd" clip-rule="evenodd"
        d="M25.8132 25.3672C26.413 25.3672 27.013 25.3672 27.6128 25.3672C26.3207 25.4787 25.0084 25.516 23.6761 25.4792C23.6977 25.9427 23.6228 26.3909 23.4512 26.8239C23.4648 26.9801 23.5023 27.1296 23.5637 27.2722C23.4103 27.2585 23.2603 27.2585 23.1138 27.2722C23.2808 26.6437 23.4307 26.0087 23.5637 25.3672C24.3135 25.3672 25.0633 25.3672 25.8132 25.3672Z"
        fill="#DD464B" />
    <path fill-rule="evenodd" clip-rule="evenodd"
        d="M9.16668 27.832C8.95916 28.3091 8.58417 28.4959 8.04192 28.3923C7.53913 28.4581 7.12673 28.3087 6.80469 27.9441C7.02964 27.9441 7.25459 27.9441 7.47954 27.9441C7.47954 28.0561 7.47954 28.1682 7.47954 28.2803C7.86178 28.3161 8.2367 28.2788 8.6043 28.1682C8.76627 28.0055 8.95365 27.8934 9.16668 27.832Z"
        fill="#DF565C" />
    <path fill-rule="evenodd" clip-rule="evenodd"
        d="M29.8623 25.3672C30.1247 25.3672 30.3873 25.3672 30.6497 25.3672C30.6497 25.554 30.6497 25.7407 30.6497 25.9275C30.4545 26.7828 30.1921 27.6045 29.8623 28.3927C27.4991 28.43 25.1371 28.3927 22.7764 28.2807C22.8674 28.1046 22.9049 27.9178 22.8888 27.7204C22.9068 27.5351 22.9817 27.3858 23.1138 27.2722C23.0617 27.6063 23.0243 27.9425 23.0013 28.2807C25.2508 28.2807 27.5004 28.2807 29.7499 28.2807C29.7784 27.999 29.8721 27.7374 30.0311 27.4963C30.0871 27.1246 30.1059 26.7511 30.0873 26.3757C30.1998 26.3757 30.3122 26.3757 30.4247 26.3757C30.4247 26.0768 30.4247 25.7781 30.4247 25.4792C30.2093 25.5111 30.0219 25.4738 29.8623 25.3672Z"
        fill="#E2414B" />
    <path fill-rule="evenodd" clip-rule="evenodd"
        d="M22.8888 27.7207C22.9049 27.9181 22.8673 28.1049 22.7763 28.281C25.137 28.393 27.499 28.4304 29.8623 28.393C29.8623 28.4304 29.8623 28.4678 29.8623 28.5051C27.4628 28.5051 25.0633 28.5051 22.6638 28.5051C22.6638 28.393 22.6638 28.281 22.6638 28.1689C22.7188 28.0014 22.7937 27.8519 22.8888 27.7207Z"
        fill="#CD5861" />
    <path fill-rule="evenodd" clip-rule="evenodd"
        d="M22.6638 28.168C22.6638 28.28 22.6638 28.3921 22.6638 28.5041C25.0632 28.5041 27.4628 28.5041 29.8623 28.5041C27.4447 28.6159 25.0078 28.6533 22.5513 28.6162C22.5212 28.437 22.5588 28.2876 22.6638 28.168Z"
        fill="#FED6DA" />
</svg>