<svg width="32" height="32" viewBox="0 0 32 32" fill="none" xmlns="http://www.w3.org/2000/svg">
    <path fill-rule="evenodd" clip-rule="evenodd"
        d="M24.6387 24.3316L29.8813 8.16303C30.2926 6.89535 29.5987 5.53105 28.3337 5.1195C27.0687 4.70794 25.7073 5.40263 25.2966 6.67031L20.0541 22.8382C19.6427 24.1059 20.3366 25.4702 21.6016 25.8818C22.8666 26.2939 24.2281 25.5993 24.6387 24.3316Z"
        fill="url(#paint0_linear_4866_706)" />
    <path fill-rule="evenodd" clip-rule="evenodd"
        d="M24.6387 24.3316L29.8813 8.16303C30.2926 6.89535 29.5987 5.53105 28.3337 5.1195C27.0687 4.70794 25.7073 5.40263 25.2966 6.67031L20.0541 22.8382C19.6427 24.1059 20.3366 25.4702 21.6016 25.8818C22.8666 26.2939 24.2281 25.5993 24.6387 24.3316Z"
        fill="url(#paint1_linear_4866_706)" />
    <path fill-rule="evenodd" clip-rule="evenodd"
        d="M24.6387 24.3316L29.8813 8.16303C30.2926 6.89535 29.5987 5.53105 28.3337 5.1195C27.0687 4.70794 25.7073 5.40263 25.2966 6.67031L20.0541 22.8382C19.6427 24.1059 20.3366 25.4702 21.6016 25.8818C22.8666 26.2939 24.2281 25.5993 24.6387 24.3316Z"
        fill="url(#paint2_linear_4866_706)" fill-opacity="0.8" />
    <path fill-rule="evenodd" clip-rule="evenodd"
        d="M24.6387 24.3316L29.8813 8.16303C30.2926 6.89535 29.5987 5.53105 28.3337 5.1195C27.0687 4.70794 25.7073 5.40263 25.2966 6.67031L20.0541 22.8382C19.6427 24.1059 20.3366 25.4702 21.6016 25.8818C22.8666 26.2939 24.2281 25.5993 24.6387 24.3316Z"
        fill="url(#paint3_radial_4866_706)" />
    <path fill-rule="evenodd" clip-rule="evenodd"
        d="M24.6387 24.3316L29.8813 8.16303C30.2926 6.89535 29.5987 5.53105 28.3337 5.1195C27.0687 4.70794 25.7073 5.40263 25.2966 6.67031L20.0541 22.8382C19.6427 24.1059 20.3366 25.4702 21.6016 25.8818C22.8666 26.2939 24.2281 25.5993 24.6387 24.3316Z"
        fill="url(#paint4_radial_4866_706)" />
    <path fill-rule="evenodd" clip-rule="evenodd"
        d="M24.6387 24.3316L29.8813 8.16303C30.2926 6.89535 29.5987 5.53105 28.3337 5.1195C27.0687 4.70794 25.7073 5.40263 25.2966 6.67031L20.0541 22.8382C19.6427 24.1059 20.3366 25.4702 21.6016 25.8818C22.8666 26.2939 24.2281 25.5993 24.6387 24.3316Z"
        fill="url(#paint5_radial_4866_706)" />
    <path fill-rule="evenodd" clip-rule="evenodd"
        d="M15.9991 14.748C16.594 14.748 17.0328 15.0971 17.4068 15.535C17.8225 16.0224 18.1544 16.6266 18.4363 17.2681C19.7039 20.1477 19.9412 23.7502 19.9412 23.7502C20.0321 25.0802 21.1836 26.0856 22.5109 25.9944C23.8381 25.9033 24.8413 24.7488 24.7505 23.4193C24.7505 23.4193 24.432 18.9198 22.8472 15.3185C21.4881 12.2304 19.1869 9.91699 15.9996 9.91699C12.8124 9.91699 10.5112 12.2304 9.15221 15.3185C7.56682 18.9198 7.24889 23.4193 7.24889 23.4193C7.15796 24.7494 8.16118 25.9033 9.48845 25.9944C10.8157 26.0856 11.9673 25.0802 12.0581 23.7502C12.0581 23.7502 12.2955 20.1483 13.5629 17.2681C13.8449 16.6272 14.1769 16.0224 14.5924 15.535C14.9659 15.0971 15.4047 14.748 15.9991 14.748Z"
        fill="#E63CFE" />
    <path fill-rule="evenodd" clip-rule="evenodd"
        d="M15.9991 14.748C16.594 14.748 17.0328 15.0971 17.4068 15.535C17.8225 16.0224 18.1544 16.6266 18.4363 17.2681C19.7039 20.1477 19.9412 23.7502 19.9412 23.7502C20.0321 25.0802 21.1836 26.0856 22.5109 25.9944C23.8381 25.9033 24.8413 24.7488 24.7505 23.4193C24.7505 23.4193 24.432 18.9198 22.8472 15.3185C21.4881 12.2304 19.1869 9.91699 15.9996 9.91699C12.8124 9.91699 10.5112 12.2304 9.15221 15.3185C7.56682 18.9198 7.24889 23.4193 7.24889 23.4193C7.15796 24.7494 8.16118 25.9033 9.48845 25.9944C10.8157 26.0856 11.9673 25.0802 12.0581 23.7502C12.0581 23.7502 12.2955 20.1483 13.5629 17.2681C13.8449 16.6272 14.1769 16.0224 14.5924 15.535C14.9659 15.0971 15.4047 14.748 15.9991 14.748Z"
        fill="url(#paint6_radial_4866_706)" />
    <path fill-rule="evenodd" clip-rule="evenodd"
        d="M15.9991 14.748C16.594 14.748 17.0328 15.0971 17.4068 15.535C17.8225 16.0224 18.1544 16.6266 18.4363 17.2681C19.7039 20.1477 19.9412 23.7502 19.9412 23.7502C20.0321 25.0802 21.1836 26.0856 22.5109 25.9944C23.8381 25.9033 24.8413 24.7488 24.7505 23.4193C24.7505 23.4193 24.432 18.9198 22.8472 15.3185C21.4881 12.2304 19.1869 9.91699 15.9996 9.91699C12.8124 9.91699 10.5112 12.2304 9.15221 15.3185C7.56682 18.9198 7.24889 23.4193 7.24889 23.4193C7.15796 24.7494 8.16118 25.9033 9.48845 25.9944C10.8157 26.0856 11.9673 25.0802 12.0581 23.7502C12.0581 23.7502 12.2955 20.1483 13.5629 17.2681C13.8449 16.6272 14.1769 16.0224 14.5924 15.535C14.9659 15.0971 15.4047 14.748 15.9991 14.748Z"
        fill="url(#paint7_radial_4866_706)" />
    <path fill-rule="evenodd" clip-rule="evenodd"
        d="M15.9991 14.748C16.594 14.748 17.0328 15.0971 17.4068 15.535C17.8225 16.0224 18.1544 16.6266 18.4363 17.2681C19.7039 20.1477 19.9412 23.7502 19.9412 23.7502C20.0321 25.0802 21.1836 26.0856 22.5109 25.9944C23.8381 25.9033 24.8413 24.7488 24.7505 23.4193C24.7505 23.4193 24.432 18.9198 22.8472 15.3185C21.4881 12.2304 19.1869 9.91699 15.9996 9.91699C12.8124 9.91699 10.5112 12.2304 9.15221 15.3185C7.56682 18.9198 7.24889 23.4193 7.24889 23.4193C7.15796 24.7494 8.16118 25.9033 9.48845 25.9944C10.8157 26.0856 11.9673 25.0802 12.0581 23.7502C12.0581 23.7502 12.2955 20.1483 13.5629 17.2681C13.8449 16.6272 14.1769 16.0224 14.5924 15.535C14.9659 15.0971 15.4047 14.748 15.9991 14.748Z"
        fill="url(#paint8_radial_4866_706)" />
    <path fill-rule="evenodd" clip-rule="evenodd"
        d="M15.9991 14.748C16.594 14.748 17.0328 15.0971 17.4068 15.535C17.8225 16.0224 18.1544 16.6266 18.4363 17.2681C19.7039 20.1477 19.9412 23.7502 19.9412 23.7502C20.0321 25.0802 21.1836 26.0856 22.5109 25.9944C23.8381 25.9033 24.8413 24.7488 24.7505 23.4193C24.7505 23.4193 24.432 18.9198 22.8472 15.3185C21.4881 12.2304 19.1869 9.91699 15.9996 9.91699C12.8124 9.91699 10.5112 12.2304 9.15221 15.3185C7.56682 18.9198 7.24889 23.4193 7.24889 23.4193C7.15796 24.7494 8.16118 25.9033 9.48845 25.9944C10.8157 26.0856 11.9673 25.0802 12.0581 23.7502C12.0581 23.7502 12.2955 20.1483 13.5629 17.2681C13.8449 16.6272 14.1769 16.0224 14.5924 15.535C14.9659 15.0971 15.4047 14.748 15.9991 14.748Z"
        fill="url(#paint9_radial_4866_706)" />
    <path fill-rule="evenodd" clip-rule="evenodd"
        d="M15.9991 14.748C16.594 14.748 17.0328 15.0971 17.4068 15.535C17.8225 16.0224 18.1544 16.6266 18.4363 17.2681C19.7039 20.1477 19.9412 23.7502 19.9412 23.7502C20.0321 25.0802 21.1836 26.0856 22.5109 25.9944C23.8381 25.9033 24.8413 24.7488 24.7505 23.4193C24.7505 23.4193 24.432 18.9198 22.8472 15.3185C21.4881 12.2304 19.1869 9.91699 15.9996 9.91699C12.8124 9.91699 10.5112 12.2304 9.15221 15.3185C7.56682 18.9198 7.24889 23.4193 7.24889 23.4193C7.15796 24.7494 8.16118 25.9033 9.48845 25.9944C10.8157 26.0856 11.9673 25.0802 12.0581 23.7502C12.0581 23.7502 12.2955 20.1483 13.5629 17.2681C13.8449 16.6272 14.1769 16.0224 14.5924 15.535C14.9659 15.0971 15.4047 14.748 15.9991 14.748Z"
        fill="url(#paint10_radial_4866_706)" />
    <path fill-rule="evenodd" clip-rule="evenodd"
        d="M15.9991 14.748C16.594 14.748 17.0328 15.0971 17.4068 15.535C17.8225 16.0224 18.1544 16.6266 18.4363 17.2681C19.7039 20.1477 19.9412 23.7502 19.9412 23.7502C20.0321 25.0802 21.1836 26.0856 22.5109 25.9944C23.8381 25.9033 24.8413 24.7488 24.7505 23.4193C24.7505 23.4193 24.432 18.9198 22.8472 15.3185C21.4881 12.2304 19.1869 9.91699 15.9996 9.91699C12.8124 9.91699 10.5112 12.2304 9.15221 15.3185C7.56682 18.9198 7.24889 23.4193 7.24889 23.4193C7.15796 24.7494 8.16118 25.9033 9.48845 25.9944C10.8157 26.0856 11.9673 25.0802 12.0581 23.7502C12.0581 23.7502 12.2955 20.1483 13.5629 17.2681C13.8449 16.6272 14.1769 16.0224 14.5924 15.535C14.9659 15.0971 15.4047 14.748 15.9991 14.748Z"
        fill="url(#paint11_radial_4866_706)" />
    <path fill-rule="evenodd" clip-rule="evenodd"
        d="M15.9991 14.748C16.594 14.748 17.0328 15.0971 17.4068 15.535C17.8225 16.0224 18.1544 16.6266 18.4363 17.2681C19.7039 20.1477 19.9412 23.7502 19.9412 23.7502C20.0321 25.0802 21.1836 26.0856 22.5109 25.9944C23.8381 25.9033 24.8413 24.7488 24.7505 23.4193C24.7505 23.4193 24.432 18.9198 22.8472 15.3185C21.4881 12.2304 19.1869 9.91699 15.9996 9.91699C12.8124 9.91699 10.5112 12.2304 9.15221 15.3185C7.56682 18.9198 7.24889 23.4193 7.24889 23.4193C7.15796 24.7494 8.16118 25.9033 9.48845 25.9944C10.8157 26.0856 11.9673 25.0802 12.0581 23.7502C12.0581 23.7502 12.2955 20.1483 13.5629 17.2681C13.8449 16.6272 14.1769 16.0224 14.5924 15.535C14.9659 15.0971 15.4047 14.748 15.9991 14.748Z"
        fill="url(#paint12_radial_4866_706)" />
    <path fill-rule="evenodd" clip-rule="evenodd"
        d="M15.9991 14.748C16.594 14.748 17.0328 15.0971 17.4068 15.535C17.8225 16.0224 18.1544 16.6266 18.4363 17.2681C19.7039 20.1477 19.9412 23.7502 19.9412 23.7502C20.0321 25.0802 21.1836 26.0856 22.5109 25.9944C23.8381 25.9033 24.8413 24.7488 24.7505 23.4193C24.7505 23.4193 24.432 18.9198 22.8472 15.3185C21.4881 12.2304 19.1869 9.91699 15.9996 9.91699C12.8124 9.91699 10.5112 12.2304 9.15221 15.3185C7.56682 18.9198 7.24889 23.4193 7.24889 23.4193C7.15796 24.7494 8.16118 25.9033 9.48845 25.9944C10.8157 26.0856 11.9673 25.0802 12.0581 23.7502C12.0581 23.7502 12.2955 20.1483 13.5629 17.2681C13.8449 16.6272 14.1769 16.0224 14.5924 15.535C14.9659 15.0971 15.4047 14.748 15.9991 14.748Z"
        fill="url(#paint13_radial_4866_706)" />
    <path fill-rule="evenodd" clip-rule="evenodd"
        d="M11.9457 22.8381L6.70321 6.66956C6.29251 5.40188 4.93169 4.70659 3.66606 5.11875C2.40104 5.53091 1.7072 6.8946 2.1185 8.16228L7.36104 24.3308C7.77234 25.5985 9.13317 26.2938 10.3982 25.8817C11.6632 25.4694 12.357 24.1058 11.9457 22.8381Z"
        fill="url(#paint14_linear_4866_706)" />
    <path fill-rule="evenodd" clip-rule="evenodd"
        d="M11.9457 22.8381L6.70321 6.66956C6.29251 5.40188 4.93169 4.70659 3.66606 5.11875C2.40104 5.53091 1.7072 6.8946 2.1185 8.16228L7.36104 24.3308C7.77234 25.5985 9.13317 26.2938 10.3982 25.8817C11.6632 25.4694 12.357 24.1058 11.9457 22.8381Z"
        fill="url(#paint15_radial_4866_706)" />
    <path fill-rule="evenodd" clip-rule="evenodd"
        d="M11.9457 22.8381L6.70321 6.66956C6.29251 5.40188 4.93169 4.70659 3.66606 5.11875C2.40104 5.53091 1.7072 6.8946 2.1185 8.16228L7.36104 24.3308C7.77234 25.5985 9.13317 26.2938 10.3982 25.8817C11.6632 25.4694 12.357 24.1058 11.9457 22.8381Z"
        fill="url(#paint16_linear_4866_706)" />
    <path fill-rule="evenodd" clip-rule="evenodd"
        d="M11.9457 22.8381L6.70321 6.66956C6.29251 5.40188 4.93169 4.70659 3.66606 5.11875C2.40104 5.53091 1.7072 6.8946 2.1185 8.16228L7.36104 24.3308C7.77234 25.5985 9.13317 26.2938 10.3982 25.8817C11.6632 25.4694 12.357 24.1058 11.9457 22.8381Z"
        fill="url(#paint17_radial_4866_706)" />
    <path fill-rule="evenodd" clip-rule="evenodd"
        d="M11.9457 22.8381L6.70321 6.66956C6.29251 5.40188 4.93169 4.70659 3.66606 5.11875C2.40104 5.53091 1.7072 6.8946 2.1185 8.16228L7.36104 24.3308C7.77234 25.5985 9.13317 26.2938 10.3982 25.8817C11.6632 25.4694 12.357 24.1058 11.9457 22.8381Z"
        fill="url(#paint18_radial_4866_706)" />
    <defs>
        <linearGradient id="paint0_linear_4866_706" x1="32.6853" y1="-0.296306" x2="24.8347"
            y2="25.0886" gradientUnits="userSpaceOnUse">
            <stop stop-color="#4A4EFA" />
            <stop offset="0.548576" stop-color="#E63CFE" />
        </linearGradient>
        <linearGradient id="paint1_linear_4866_706" x1="22.8255" y1="14.3373" x2="27.2727"
            y2="15.7769" gradientUnits="userSpaceOnUse">
            <stop offset="0.160046" stop-color="#4A4EFA" />
            <stop offset="0.946031" stop-color="#4A4EFA" stop-opacity="0" />
        </linearGradient>
        <linearGradient id="paint2_linear_4866_706" x1="23.4994" y1="12.2029" x2="26.2937"
            y2="13.0966" gradientUnits="userSpaceOnUse">
            <stop stop-color="#39FBBB" />
            <stop offset="1" stop-color="#39FBBB" stop-opacity="0" />
        </linearGradient>
        <radialGradient id="paint3_radial_4866_706" cx="0" cy="0" r="1"
            gradientUnits="userSpaceOnUse"
            gradientTransform="translate(22.4669 18.1154) rotate(-64.1652) scale(14.5707 14.5706)">
            <stop offset="0.832168" stop-color="#4A4EFA" stop-opacity="0" />
            <stop offset="1" stop-color="#4A4EFA" stop-opacity="0.75" />
        </radialGradient>
        <radialGradient id="paint4_radial_4866_706" cx="0" cy="0" r="1"
            gradientUnits="userSpaceOnUse"
            gradientTransform="translate(22.1843 17.1537) scale(3.24848 6.94733)">
            <stop offset="0.169047" stop-color="#11417A" />
            <stop offset="0.926198" stop-color="#4069D4" stop-opacity="0" />
        </radialGradient>
        <radialGradient id="paint5_radial_4866_706" cx="0" cy="0" r="1"
            gradientUnits="userSpaceOnUse"
            gradientTransform="translate(25.9445 26.0005) rotate(-90) scale(10.7448 5.14955)">
            <stop offset="0.34895" stop-color="#E63CFE" />
            <stop offset="1" stop-color="#E63CFE" stop-opacity="0" />
        </radialGradient>
        <radialGradient id="paint6_radial_4866_706" cx="0" cy="0" r="1"
            gradientUnits="userSpaceOnUse"
            gradientTransform="translate(15.1827 18.3974) rotate(-85.7675) scale(11.0703 9.82958)">
            <stop stop-color="#39FBBB" stop-opacity="0.5" />
            <stop offset="0.688731" stop-color="#39FBBB" />
            <stop offset="1" stop-color="#39FBBB" stop-opacity="0" />
        </radialGradient>
        <radialGradient id="paint7_radial_4866_706" cx="0" cy="0" r="1"
            gradientUnits="userSpaceOnUse"
            gradientTransform="translate(30.9553 24.6302) rotate(-122.629) scale(26.5395 6.45663)">
            <stop stop-color="#E63CFE" />
            <stop offset="1" stop-color="#E63CFE" stop-opacity="0" />
        </radialGradient>
        <radialGradient id="paint8_radial_4866_706" cx="0" cy="0" r="1"
            gradientUnits="userSpaceOnUse"
            gradientTransform="translate(15.6226 21.8142) rotate(-85.0199) scale(11.9423 10.2727)">
            <stop offset="0.556793" stop-color="#4A4EFA" />
            <stop offset="0.934777" stop-color="#4A4EFA" stop-opacity="0" />
        </radialGradient>
        <radialGradient id="paint9_radial_4866_706" cx="0" cy="0" r="1"
            gradientUnits="userSpaceOnUse"
            gradientTransform="translate(12.3842 25.4287) rotate(-68.6369) scale(12.4715 7.44265)">
            <stop offset="0.61345" stop-color="#E63CFE" />
            <stop offset="1" stop-color="#E63CFE" stop-opacity="0" />
        </radialGradient>
        <radialGradient id="paint10_radial_4866_706" cx="0" cy="0" r="1"
            gradientUnits="userSpaceOnUse"
            gradientTransform="translate(24.4512 16.9827) rotate(176.233) scale(15.4849 39.1463)">
            <stop offset="0.813918" stop-color="#4A98D0" stop-opacity="0" />
            <stop offset="0.972647" stop-color="#11417A" />
        </radialGradient>
        <radialGradient id="paint11_radial_4866_706" cx="0" cy="0" r="1"
            gradientUnits="userSpaceOnUse"
            gradientTransform="translate(11.4543 26.0001) rotate(-90) scale(11.098 9.20821)">
            <stop offset="0.457769" stop-color="#FFAE3C" />
            <stop offset="1" stop-color="#FFAE3C" stop-opacity="0" />
        </radialGradient>
        <radialGradient id="paint12_radial_4866_706" cx="0" cy="0" r="1"
            gradientUnits="userSpaceOnUse"
            gradientTransform="translate(24.9115 26.0001) rotate(-90) scale(10.0033 10.0032)">
            <stop offset="0.191715" stop-color="#E63CFE" />
            <stop offset="1" stop-color="#E63CFE" stop-opacity="0" />
        </radialGradient>
        <radialGradient id="paint13_radial_4866_706" cx="0" cy="0" r="1"
            gradientUnits="userSpaceOnUse"
            gradientTransform="translate(19.0429 26.0001) rotate(-90) scale(7.52745 3.57566)">
            <stop offset="0.173611" stop-color="#FFAE3C" />
            <stop offset="1" stop-color="#FFAE3C" stop-opacity="0" />
        </radialGradient>
        <linearGradient id="paint14_linear_4866_706" x1="1.1763" y1="6.00911" x2="7.94513"
            y2="27.0677" gradientUnits="userSpaceOnUse">
            <stop offset="0.169527" stop-color="#E63CFE" />
            <stop offset="0.708644" stop-color="#FFAE3C" />
        </linearGradient>
        <radialGradient id="paint15_radial_4866_706" cx="0" cy="0" r="1"
            gradientUnits="userSpaceOnUse"
            gradientTransform="translate(6.71736 11.4185) rotate(161.042) scale(3.37711 16.4907)">
            <stop offset="0.120383" stop-color="#4A4EFA" />
            <stop offset="1" stop-color="#4A4EFA" stop-opacity="0" />
        </radialGradient>
        <linearGradient id="paint16_linear_4866_706" x1="9.68749" y1="15.8516" x2="8.73959"
            y2="16.1619" gradientUnits="userSpaceOnUse">
            <stop stop-color="#E63CFE" stop-opacity="0.33" />
            <stop offset="1" stop-color="#E63CFE" stop-opacity="0" />
        </linearGradient>
        <radialGradient id="paint17_radial_4866_706" cx="0" cy="0" r="1"
            gradientUnits="userSpaceOnUse"
            gradientTransform="translate(12.0642 26.0004) rotate(-90) scale(10.8503 11.853)">
            <stop offset="0.465389" stop-color="#FFAE3C" />
            <stop offset="0.92565" stop-color="#FFAE3C" stop-opacity="0" />
        </radialGradient>
        <radialGradient id="paint18_radial_4866_706" cx="0" cy="0" r="1"
            gradientUnits="userSpaceOnUse"
            gradientTransform="translate(12.0642 26.0004) rotate(-90) scale(23.7408 23.7406)">
            <stop offset="0.843756" stop-color="#E63CFE" stop-opacity="0" />
            <stop offset="1" stop-color="#E63CFE" />
        </radialGradient>
    </defs>
</svg>