<svg width="32" height="32" viewBox="0 0 32 32" fill="none" xmlns="http://www.w3.org/2000/svg">
    <g clip-path="url(#clip0_2209_552)">
        <path fill-rule="evenodd" clip-rule="evenodd"
            d="M-0.071106 -0.0712891C10.5956 -0.0712891 21.2622 -0.0712891 31.9289 -0.0712891C31.9289 10.5954 31.9289 21.262 31.9289 31.9287C21.2622 31.9287 10.5956 31.9287 -0.071106 31.9287C-0.071106 21.262 -0.071106 10.5954 -0.071106 -0.0712891Z"
            fill="#6D6EEA" />
        <path fill-rule="evenodd" clip-rule="evenodd"
            d="M11.8756 1.63549C12.9211 1.4722 13.7033 1.85147 14.2222 2.77327C15.1507 1.60857 16.1462 1.51375 17.2089 2.48882C17.3333 2.68412 17.4045 2.89746 17.4222 3.12882C17.3207 3.73473 17.0836 4.27991 16.7111 4.76438C16.9698 5.10733 17.2543 5.13103 17.5645 4.83549C18.2898 4.66553 18.9535 4.78405 19.5556 5.19104C20.2132 4.75054 20.9243 4.65572 21.6889 4.9066C22.0238 4.11813 22.4505 3.38332 22.9689 2.70216C23.8884 1.83935 24.7654 1.86305 25.6 2.77327C25.7253 3.52457 25.6068 4.23568 25.2445 4.9066C25.35 5.0185 25.4685 5.11332 25.6 5.19104C26.6433 4.70538 27.2833 5.03725 27.52 6.1866C28.6296 5.89739 29.0799 6.32406 28.8711 7.4666C28.1987 7.99646 27.4876 8.47053 26.7378 8.88882C26.3067 10.6962 25.1927 11.3836 23.3956 10.951C22.6121 10.1495 22.6594 9.39099 23.5378 8.67549C23.0158 8.64854 22.5181 8.53002 22.0445 8.31993C21.1335 8.68503 20.2328 8.68503 19.3422 8.31993C18.9208 8.52752 18.4704 8.62234 17.9911 8.60438C17.2315 8.43327 16.4729 8.43327 15.7156 8.60438C15.3414 8.62988 15.0094 8.53507 14.72 8.31993C13.5742 8.84823 12.9342 8.46897 12.8 7.18216C12.0585 8.51254 10.9444 9.10514 9.45778 8.95993C9.10569 8.77379 8.82124 8.51306 8.60445 8.17771C7.55801 9.17648 6.44394 9.27129 5.26223 8.46216C4.86849 7.65783 4.67886 6.8045 4.69334 5.90216C4.03525 5.62879 3.75081 5.15471 3.84001 4.47993C3.93848 4.40522 4.00959 4.31042 4.05334 4.19549C4.85927 3.69771 5.66519 3.19993 6.47112 2.70216C7.33345 2.45256 7.85494 2.76071 8.03556 3.6266C7.81603 4.30331 7.55528 4.96702 7.25334 5.61771C7.15852 5.94956 7.15852 6.28142 7.25334 6.61327C7.99106 5.70713 8.58366 4.71157 9.03112 3.6266C9.53265 3.12052 10.0778 3.0731 10.6667 3.48438C10.719 2.61709 11.122 2.0008 11.8756 1.63549Z"
            fill="#F7F8FD" />
        <path fill-rule="evenodd" clip-rule="evenodd"
            d="M12.16 2.20459C13.254 2.32765 13.7518 2.94396 13.6533 4.05348C13.9501 3.86947 14.2583 3.70354 14.5778 3.5557C14.9689 2.68429 15.6089 2.37615 16.4978 2.63126C16.7775 3.12879 16.73 3.60286 16.3555 4.05348C15.8784 4.74404 15.2857 5.31293 14.5778 5.76015C14.4377 5.98746 14.4141 6.2245 14.5066 6.47126C14.9167 5.68579 15.5567 5.33024 16.4266 5.40459C16.4596 6.0418 16.2699 6.63439 15.8578 7.18237C16.2042 7.30068 16.5124 7.20588 16.7822 6.89792C17.0939 5.60527 17.8524 5.1786 19.0578 5.61792C19.1526 5.90237 19.1526 6.18681 19.0578 6.47126C18.6843 6.85964 18.2339 7.12039 17.7066 7.25348C18.1942 7.35319 18.6683 7.30577 19.1289 7.11126C19.3433 6.16226 19.9122 5.56967 20.8355 5.33348C21.5183 5.42359 21.7792 5.80284 21.6178 6.47126C21.238 6.86231 20.7877 7.12305 20.2666 7.25348C20.8874 7.39158 21.4563 7.27306 21.9733 6.89792C22.1926 5.69496 22.5955 4.55719 23.1822 3.48459C23.5834 2.89253 24.1287 2.6792 24.8178 2.84459C24.9978 3.34359 24.9741 3.84137 24.7466 4.33792C24.3332 5.15374 23.7881 5.86485 23.1111 6.47126C22.9737 6.74091 22.9263 7.02535 22.9689 7.32459C23.2663 7.35042 23.5507 7.303 23.8222 7.18237C24.0095 6.76534 24.1755 6.33868 24.32 5.90237C24.4649 5.73352 24.6309 5.5913 24.8178 5.4757C24.9913 5.53073 25.0861 5.64924 25.1022 5.83126C24.9637 6.17556 24.869 6.53112 24.8178 6.89792C24.8389 7.48978 25.0523 7.5846 25.4578 7.18237C25.6906 6.72491 25.8802 6.25084 26.0266 5.76015C26.2195 5.63496 26.4328 5.58756 26.6666 5.61792C26.5659 6.28442 26.4948 6.94813 26.4533 7.60903C26.9902 7.18636 27.5827 6.90192 28.2311 6.7557C28.26 7.02456 28.1652 7.23789 27.9466 7.3957C27.4005 7.74001 26.8316 8.04814 26.24 8.32014C26.076 9.05107 25.7442 9.69107 25.2444 10.2401C24.7287 10.4733 24.2072 10.497 23.68 10.3113C23.5329 9.7116 23.7225 9.21383 24.2489 8.81792C24.6639 8.57489 25.0669 8.31416 25.4578 8.0357C25.5556 7.91741 25.5319 7.82259 25.3866 7.75126C24.96 7.94088 24.5333 7.94088 24.1066 7.75126C23.3103 8.23231 22.6703 8.09009 22.1866 7.32459C21.3222 8.12918 20.3978 8.22399 19.4133 7.60903C18.5839 8.14777 17.778 8.14777 16.9955 7.60903C16.4692 7.95085 15.9003 8.06936 15.2889 7.96459C15.2062 7.83764 15.1587 7.69542 15.1466 7.53792C15.8354 5.85907 15.6221 5.74056 14.5066 7.18237C14.3631 7.39924 14.292 7.63628 14.2933 7.89348C13.7258 7.98965 13.4887 7.75261 13.5822 7.18237C13.6501 6.30063 13.8397 5.4473 14.1511 4.62237C13.8901 4.52401 13.6294 4.57141 13.3689 4.76459C12.945 5.80241 12.3761 6.75055 11.6622 7.60903C10.2117 8.9793 9.31094 8.69486 8.95998 6.7557C8.44689 7.62586 7.71207 8.19475 6.75553 8.46237C5.8089 8.23377 5.38223 7.61748 5.47553 6.61348C5.46128 5.95948 5.6035 5.34319 5.9022 4.76459C5.87849 4.71719 5.85479 4.66977 5.83109 4.62237C5.49695 4.81299 5.1651 5.00261 4.83553 5.19126C4.47998 5.07274 4.40886 4.85941 4.6222 4.55126C5.37947 4.08972 6.1617 3.68676 6.96886 3.34237C7.12636 3.35448 7.26858 3.4019 7.39553 3.48459C7.08385 4.15968 6.79941 4.87079 6.5422 5.61792C6.44738 6.23421 6.44738 6.85052 6.5422 7.46681C6.85645 7.64442 7.1646 7.62072 7.46664 7.3957C8.35199 6.40794 9.03939 5.29387 9.52886 4.05348C9.92515 3.81395 10.1859 3.90877 10.3111 4.33792C9.77707 5.33062 9.63485 6.37358 9.88442 7.46681C10.0584 7.62523 10.248 7.64893 10.4533 7.53792C11.3401 6.7874 12.0038 5.86296 12.4444 4.76459C12.1761 4.54551 11.9153 4.30847 11.6622 4.05348C11.262 3.26251 11.4279 2.6462 12.16 2.20459Z"
            fill="#3393E3" />
        <path fill-rule="evenodd" clip-rule="evenodd"
            d="M12.4445 2.77336C12.5861 2.76115 12.7046 2.80857 12.8 2.91558C12.9074 3.31427 12.86 3.69352 12.6578 4.05336C12.2797 3.68105 12.2086 3.25438 12.4445 2.77336Z"
            fill="#F4F7FD" />
        <path fill-rule="evenodd" clip-rule="evenodd"
            d="M15.5734 3.2002C15.8356 3.30031 15.9067 3.48993 15.7867 3.76908C15.558 4.27293 15.2261 4.6996 14.7911 5.04908C14.8429 4.34985 15.1036 3.73354 15.5734 3.2002Z"
            fill="#EFF4FC" />
        <path fill-rule="evenodd" clip-rule="evenodd"
            d="M23.9645 3.48438C24.2267 3.58449 24.2978 3.77411 24.1778 4.05326C23.9177 4.66883 23.5859 5.23772 23.1823 5.75993C23.201 4.92129 23.4619 4.16276 23.9645 3.48438Z"
            fill="#EBF2FC" />
        <path fill-rule="evenodd" clip-rule="evenodd"
            d="M11.0222 4.47998C11.2563 4.61917 11.4459 4.8088 11.5911 5.04887C11.3059 5.61966 10.9503 6.14115 10.5245 6.61331C10.4117 5.83749 10.5776 5.12638 11.0222 4.47998Z"
            fill="#7372EB" />
        <path fill-rule="evenodd" clip-rule="evenodd"
            d="M17.9911 6.04423C18.1864 6.02195 18.3761 6.04565 18.56 6.11534C18.3123 6.524 17.9805 6.68994 17.5645 6.61312C17.7101 6.42086 17.8523 6.23124 17.9911 6.04423Z"
            fill="#F5F8FD" />
        <path fill-rule="evenodd" clip-rule="evenodd"
            d="M20.4089 6.04453C20.6191 6.00726 20.8087 6.05467 20.9778 6.18675C20.7767 6.57223 20.4922 6.71445 20.1245 6.61342C20.2212 6.42001 20.316 6.23038 20.4089 6.04453Z"
            fill="#F5F8FD" />
        <path fill-rule="evenodd" clip-rule="evenodd"
            d="M25.1022 8.74658C25.2383 9.16901 25.0961 9.52457 24.6756 9.81325C24.5333 9.90807 24.3911 9.90807 24.2489 9.81325C24.5097 9.43447 24.7942 9.07891 25.1022 8.74658Z"
            fill="#EAF1FB" />
        <path fill-rule="evenodd" clip-rule="evenodd"
            d="M17.4222 9.59985C18.4755 9.4129 19.0444 9.83956 19.1289 10.8798C19.1114 11.3051 19.0165 11.7081 18.8444 12.0887C19.2887 12.1569 19.6916 12.3228 20.0533 12.5865C20.6696 12.0176 21.286 12.0176 21.9022 12.5865C21.9358 12.9085 22.0069 13.2167 22.1155 13.511C23.2175 13.3338 23.7152 13.7842 23.6089 14.8621C23.0502 15.7342 22.2442 16.1608 21.1911 16.1421C20.7253 16.1212 20.275 16.0263 19.84 15.8576C19.1256 16.2258 18.4145 16.2258 17.7066 15.8576C17.094 16.2221 16.4776 16.2221 15.8578 15.8576C15.3523 16.0313 14.8545 16.0313 14.3644 15.8576C13.829 16.212 13.2839 16.212 12.7289 15.8576C11.5318 16.9438 10.157 17.2518 8.60442 16.7821C7.00786 16.1035 6.6286 15.0131 7.46664 13.511C7.71134 13.4058 7.94838 13.2873 8.17776 13.1554C7.47576 12.0035 7.6654 11.0317 8.74664 10.2398C10.1833 9.48997 11.5344 9.60849 12.8 10.5954C13.161 11.2263 13.2558 11.89 13.0844 12.5865C13.8118 12.0809 14.5702 12.0335 15.36 12.4443C15.7262 11.8546 16.058 11.2383 16.3555 10.5954C16.6963 10.2304 17.0519 9.89851 17.4222 9.59985Z"
            fill="#F5F7FD" />
        <path fill-rule="evenodd" clip-rule="evenodd"
            d="M17.5645 10.3112C18.0904 10.1945 18.4222 10.3841 18.56 10.88C18.2854 12.1882 17.6454 13.2786 16.64 14.1512C16.474 14.7438 16.6874 14.9571 17.28 14.7912C17.4257 14.1236 17.7576 13.5547 18.2756 13.0845C19.3219 12.5782 19.7722 12.8863 19.6267 14.0089C19.3003 14.3737 18.8974 14.6107 18.4178 14.72C18.9498 14.9315 19.4239 14.8367 19.84 14.4356C20.1506 13.8125 20.5298 13.2436 20.9778 12.7289C21.3793 12.8548 21.4742 13.0918 21.2622 13.44C21.6361 13.8562 21.8968 14.3302 22.0445 14.8623C22.2815 14.6252 22.5185 14.3882 22.7556 14.1512C23.207 14.5657 23.1359 14.9213 22.5422 15.2178C21.6535 15.5209 20.7764 15.4971 19.9111 15.1467C19.1811 15.6766 18.47 15.6766 17.7778 15.1467C17.126 15.5712 16.5335 15.5239 16 15.0045C15.7035 15.1853 15.3953 15.3275 15.0756 15.4312C14.7478 15.4334 14.5107 15.2912 14.3645 15.0045C14.3113 15.1348 14.2402 15.2534 14.1511 15.36C12.8784 15.4989 12.4754 14.9536 12.9422 13.7245C13.4771 12.8855 14.2119 12.6484 15.1467 13.0134C15.0726 13.5795 15.0252 14.1484 15.0045 14.72C15.3462 14.7353 15.6069 14.593 15.7867 14.2934C15.9384 13.0796 16.3177 11.9418 16.9245 10.88C17.1231 10.6567 17.3365 10.4671 17.5645 10.3112Z"
            fill="#3193E3" />
        <path fill-rule="evenodd" clip-rule="evenodd"
            d="M9.74221 10.4533C10.4175 10.4212 11.0812 10.4923 11.7333 10.6666C12.8721 11.4431 12.8484 12.1779 11.6622 12.871C11.4489 12.8473 11.3304 12.7288 11.3067 12.5155C11.5939 12.1427 11.6413 11.7397 11.4489 11.3066C10.7023 11.0514 10.0149 11.1462 9.38665 11.591C9.26933 11.904 9.34045 12.1648 9.59999 12.3733C10.3585 12.7999 11.117 13.2266 11.8755 13.6533C12.6492 14.8619 12.3647 15.7152 11.0222 16.2133C10.2637 16.3081 9.50517 16.3081 8.74665 16.2133C7.86357 15.9322 7.50801 15.3397 7.67999 14.4355C7.93058 13.8336 8.28614 13.7388 8.74665 14.151C8.35024 14.6458 8.39764 15.0961 8.88888 15.5021C9.75649 15.8651 10.5387 15.7466 11.2355 15.1466C11.3835 14.7006 11.265 14.345 10.88 14.0799C9.9599 13.6566 9.13027 13.1114 8.3911 12.4444C8.28372 12.0457 8.33112 11.6664 8.53332 11.3066C8.86951 10.9058 9.27248 10.6214 9.74221 10.4533Z"
            fill="#3393E3" />
        <path fill-rule="evenodd" clip-rule="evenodd"
            d="M17.5644 11.0222C17.7062 11.0179 17.8011 11.089 17.8489 11.2355C17.6236 11.9944 17.2681 12.6818 16.7822 13.2977C16.8562 12.4835 17.1169 11.725 17.5644 11.0222Z"
            fill="#EDF3FC" />
        <path fill-rule="evenodd" clip-rule="evenodd"
            d="M10.0267 11.8757C10.2917 11.6918 10.5761 11.6918 10.88 11.8757C10.8326 12.0179 10.7378 12.1127 10.5956 12.1601C10.4022 12.0634 10.2125 11.9686 10.0267 11.8757Z"
            fill="#6869EA" />
        <path fill-rule="evenodd" clip-rule="evenodd"
            d="M14.1511 13.2978C14.3182 13.2667 14.4604 13.3141 14.5778 13.4401C14.4595 13.8185 14.3408 14.1978 14.2222 14.5778C13.8621 14.9863 13.6014 14.9389 13.44 14.4356C13.5631 13.9816 13.8002 13.6023 14.1511 13.2978Z"
            fill="#F3F7FD" />
        <path fill-rule="evenodd" clip-rule="evenodd"
            d="M18.7022 13.4399C18.8445 13.4399 18.9867 13.4399 19.1289 13.4399C19.0862 13.8692 18.8492 14.1536 18.4178 14.2933C18.3704 14.2222 18.3229 14.1511 18.2756 14.0799C18.3915 13.8462 18.5337 13.6329 18.7022 13.4399Z"
            fill="#E7EFFB" />
        <path fill-rule="evenodd" clip-rule="evenodd"
            d="M20.8355 14.0088C21.1113 14.0819 21.2535 14.2715 21.2622 14.5777C21.1112 15.0706 20.8741 15.1181 20.5511 14.7199C20.7573 14.5279 20.8522 14.291 20.8355 14.0088Z"
            fill="#F2F6FD" />
        <path fill-rule="evenodd" clip-rule="evenodd"
            d="M9.31555 14.0088C11.1179 14.6316 11.1179 14.9398 9.31555 14.9332C9.19706 14.6373 9.19706 14.3291 9.31555 14.0088Z"
            fill="#6F70EB" />
        <path fill-rule="evenodd" clip-rule="evenodd"
            d="M16.4266 17.5645C18.0712 17.6058 19.4459 18.2222 20.5511 19.4133C20.2453 19.7904 19.9135 20.1459 19.5555 20.48C18.5183 20.3945 17.4754 20.3234 16.4266 20.2667C16.4266 19.366 16.4266 18.4651 16.4266 17.5645Z"
            fill="#FCFCFE" />
        <path fill-rule="evenodd" clip-rule="evenodd"
            d="M15.2889 17.5645C15.5733 17.5645 15.8578 17.5645 16.1422 17.5645C16.1422 18.4651 16.1422 19.366 16.1422 20.2667C15.1282 20.2025 14.1326 20.2974 13.1555 20.5511C12.7141 20.2081 12.2874 19.8288 11.8755 19.4133C12.8169 18.4225 13.9547 17.8061 15.2889 17.5645Z"
            fill="#2B91E3" />
        <path fill-rule="evenodd" clip-rule="evenodd"
            d="M11.4489 19.6978C11.9424 19.8098 12.3217 20.0943 12.5867 20.5511C11.9374 20.8165 11.2974 21.1009 10.6667 21.4044C10.8083 20.7889 11.069 20.22 11.4489 19.6978Z"
            fill="#F5F4FD" />
        <path fill-rule="evenodd" clip-rule="evenodd"
            d="M20.6934 19.6978C20.9595 19.7488 21.1728 19.891 21.3334 20.1244C21.6121 20.5632 21.8728 21.0136 22.1156 21.4755C21.3372 21.2774 20.5787 20.993 19.84 20.6222C20.1538 20.3325 20.4382 20.0244 20.6934 19.6978Z"
            fill="#2D90E3" />
        <path fill-rule="evenodd" clip-rule="evenodd"
            d="M14.5778 20.5513C19.4129 20.15 23.3478 21.8093 26.3822 25.5291C25.7783 25.7069 25.1621 25.8253 24.5333 25.8846C24.2927 26.4641 24.0794 27.0565 23.8933 27.6624C20.9742 24.1171 17.3002 23.0031 12.8711 24.3202C11.1343 25.062 9.68836 26.1761 8.53333 27.6624C8.2217 27.0831 8.00836 26.4669 7.89333 25.8135C7.23024 25.7478 6.56653 25.6767 5.90222 25.6002C8.11664 22.7442 11.0085 21.0613 14.5778 20.5513Z"
            fill="#FBD458" />
        <path fill-rule="evenodd" clip-rule="evenodd"
            d="M16.1422 20.8354C16.4548 20.9086 16.7393 21.0508 16.9955 21.2621C17.1277 21.4312 17.175 21.6208 17.1378 21.831C16.6054 21.8252 16.5817 21.92 17.0666 22.1154C17.1615 22.3525 17.1615 22.5895 17.0666 22.8266C16.7597 23.0151 16.4989 23.2522 16.2844 23.5377C16.0971 23.3017 15.8602 23.1358 15.5733 23.0399C15.3699 22.7725 15.4174 22.5592 15.7155 22.3999C15.8764 22.5778 16.066 22.72 16.2844 22.8266C16.3793 22.7792 16.474 22.7317 16.5689 22.6843C16.3338 22.4538 16.0493 22.2878 15.7155 22.1866C15.5628 22.0815 15.4679 21.9392 15.4311 21.7599C15.6501 21.4242 15.8872 21.1162 16.1422 20.8354Z"
            fill="#4093DC" />
        <path fill-rule="evenodd" clip-rule="evenodd"
            d="M16.1422 21.4043C16.2844 21.4043 16.4267 21.4043 16.5689 21.4043C16.5689 21.5465 16.5689 21.6887 16.5689 21.831C16.1431 21.8813 16.0008 21.7391 16.1422 21.4043Z"
            fill="#F8D558" />
        <path fill-rule="evenodd" clip-rule="evenodd"
            d="M9.88442 22.3999C10.2144 22.5599 10.5463 22.5837 10.88 22.471C11.0487 22.9128 11.2857 23.3632 11.5911 23.8221C11.4759 24.1694 11.381 24.4775 11.3066 24.7466C10.9395 24.7103 10.5602 24.6866 10.1689 24.6755C10.1385 24.4416 10.1859 24.2283 10.3111 24.0355C9.97742 23.8914 9.74038 23.6544 9.59998 23.3243C9.75776 23.0332 9.85258 22.7252 9.88442 22.3999Z"
            fill="#4995D9" />
        <path fill-rule="evenodd" clip-rule="evenodd"
            d="M10.3111 22.8267C10.5134 22.8622 10.6556 22.9807 10.7378 23.1822C10.305 23.3048 10.1628 23.1863 10.3111 22.8267Z"
            fill="#FBD752" />
        <path fill-rule="evenodd" clip-rule="evenodd"
            d="M10.4533 23.8221C10.7076 23.7816 10.9446 23.8289 11.1644 23.9643C10.8377 24.3611 10.6007 24.3136 10.4533 23.8221Z"
            fill="#EDD064" />
        <path fill-rule="evenodd" clip-rule="evenodd"
            d="M22.2578 22.3999C22.3613 22.6896 22.5509 22.9977 22.8267 23.3243C22.7893 23.6011 22.6471 23.6958 22.4 23.6088C22.2749 23.4159 22.2274 23.2026 22.2578 22.9688C22.0907 22.9376 21.9485 22.985 21.8311 23.111C22.7059 24.1125 22.469 24.6814 21.12 24.8177C20.8589 24.4263 20.7167 23.9996 20.6934 23.5377C21.1476 23.4916 21.2898 23.6574 21.12 24.0355C21.2712 24.2044 21.4609 24.2755 21.6889 24.2488C21.6791 23.8813 21.5133 23.5968 21.1911 23.3955C21.0963 23.2059 21.0963 23.0162 21.1911 22.8266C21.5293 22.6179 21.8849 22.4757 22.2578 22.3999Z"
            fill="#4194DB" />
        <path fill-rule="evenodd" clip-rule="evenodd"
            d="M16.7111 24.3912C18.72 24.3589 20.474 25.0463 21.9733 26.4534C21.6819 27.1472 21.2553 27.7397 20.6933 28.2312C19.363 26.9482 18.0356 25.6682 16.7111 24.3912Z"
            fill="#FDFDFE" />
        <path fill-rule="evenodd" clip-rule="evenodd"
            d="M14.5778 24.249C15.007 24.2255 15.4336 24.2493 15.8578 24.3201C14.5778 25.6001 13.2978 26.8801 12.0178 28.1601C11.9229 28.255 11.8281 28.255 11.7333 28.1601C11.2184 27.5813 10.7918 26.9413 10.4533 26.2401C11.671 25.2282 13.0458 24.5644 14.5778 24.249Z"
            fill="#2991E3" />
        <path fill-rule="evenodd" clip-rule="evenodd"
            d="M16 24.5332C16.1633 25.1705 16.187 25.8343 16.0711 26.5243C15.3363 27.2592 14.6015 27.9939 13.8667 28.7288C14.3477 28.7538 14.8217 28.8249 15.2889 28.9421C15.194 29.2265 15.0993 29.511 15.0045 29.7954C14.7806 29.9563 14.5435 29.98 14.2933 29.8665C13.6544 29.5709 13.0381 29.2391 12.4445 28.871C12.2301 28.7519 12.159 28.586 12.2311 28.3732C13.5162 27.112 14.7725 25.832 16 24.5332Z"
            fill="#FBFBFE" />
        <path fill-rule="evenodd" clip-rule="evenodd"
            d="M16.4267 24.5332C17.7986 25.8102 19.1259 27.1376 20.4089 28.5154C19.5843 29.3305 18.5887 29.8047 17.4222 29.9376C17.4116 29.5528 17.3642 29.1735 17.28 28.7999C17.7565 28.8233 18.2305 28.7996 18.7022 28.7288C17.9674 27.9939 17.2326 27.2592 16.4978 26.5243C16.4268 25.8623 16.4031 25.1987 16.4267 24.5332Z"
            fill="#2A91E3" />
        <path fill-rule="evenodd" clip-rule="evenodd"
            d="M16.1422 26.6665C16.8637 27.1737 17.5275 27.7662 18.1333 28.4443C17.757 28.515 17.3777 28.5387 16.9955 28.5154C17.0833 29.1436 17.2255 29.7598 17.4222 30.3643C16.7822 30.6321 16.1185 30.7032 15.4311 30.5776C15.2991 30.5224 15.2043 30.4276 15.1467 30.2932C15.3675 29.7176 15.5098 29.1251 15.5733 28.5154C15.1912 28.5387 14.8119 28.515 14.4355 28.4443C15.0334 27.8703 15.6023 27.2778 16.1422 26.6665Z"
            fill="#FAD35B" />
    </g>
    <defs>
        <clipPath id="clip0_2209_552">
            <rect width="32" height="32" fill="white" />
        </clipPath>
    </defs>
</svg>