<svg width="32" height="32" viewBox="0 0 32 32" fill="none" xmlns="http://www.w3.org/2000/svg">
    <rect width="32" height="32" fill="#FAFAFA" />
    <path
        d="M11.1687 13.0845H2.89876C1.29307 13.0845 0 14.3819 0 15.9929C0 17.6039 1.29307 18.9013 2.89876 18.9013H17.151C17.151 18.9013 15.9858 18.83 14.5506 15.9929C13.1012 13.1558 12.3623 13.0845 11.1687 13.0845Z"
        fill="#009FE3" />
    <path
        d="M31.1759 13.9683C31.3606 14.3532 31.4601 14.7667 31.4601 15.2229C31.4601 16.834 30.167 18.1314 28.5613 18.1314H19.8082C18.6004 18.1314 17.8757 18.0601 16.4264 15.2229C16.128 14.6384 15.8438 14.1679 15.5738 13.7972H27.5383C27.0267 13.3553 26.3731 13.0986 25.6484 13.0986H13.3145C13.3145 13.0986 14.4796 13.1699 15.9148 16.0071C17.3642 18.8442 18.0889 18.9155 19.2967 18.9155H29.1013C30.707 18.9155 32.0001 17.6181 32.0001 16.0071C32.0001 15.2087 31.6875 14.4958 31.1759 13.9683Z"
        fill="#009FE3" />
    <path
        d="M4.06385 15.437L3.5381 17.4044H2.84183L2.13135 14.5103H2.77078L3.21128 16.6631L3.77966 14.5103H4.33383L4.90222 16.6631L5.34271 14.5103H5.98215L5.27167 17.4044H4.5754L4.06385 15.437Z"
        fill="white" />
    <path
        d="M7.64479 16.2068C7.64479 16.0358 7.61637 15.9074 7.55953 15.8362C7.50269 15.7649 7.40322 15.7221 7.27534 15.7221C7.13324 15.7221 7.01956 15.7791 6.93431 15.8789C6.84905 15.9787 6.80642 16.1356 6.80642 16.3494V17.4044H6.23804V14.5103H6.80642V15.6508C6.82063 15.608 6.84905 15.551 6.87747 15.5082C6.90589 15.4655 6.94852 15.4227 7.00535 15.3799C7.06219 15.3372 7.13324 15.3086 7.20429 15.2801C7.28955 15.2516 7.38901 15.2374 7.48848 15.2374C7.71583 15.2374 7.88635 15.3086 8.01424 15.437C8.14212 15.5653 8.21317 15.7649 8.21317 16.05V17.4187H7.64479V16.2068Z"
        fill="white" />
    <path
        d="M9.16511 15.0377H8.58252V14.5244H9.16511V15.0377ZM8.59673 15.2943H9.16511V17.4186H8.59673V15.2943Z"
        fill="white" />
    <path
        d="M9.93244 17.2477C9.83298 17.1194 9.77614 16.934 9.77614 16.6632V15.7792H9.4209V15.3087H9.77614V14.7955L10.3445 14.5674V15.3087H10.8134V15.7792H10.3445V16.6061C10.3445 16.7344 10.3729 16.8342 10.4156 16.8913C10.4582 16.9483 10.5292 16.9768 10.6429 16.9768H10.7282C10.7566 16.9768 10.785 16.9768 10.7992 16.9626H10.8276V17.4188C10.6856 17.433 10.5719 17.433 10.4724 17.433C10.2024 17.433 10.0319 17.376 9.93244 17.2477Z"
        fill="white" />
    <path
        d="M11.5667 16.5203C11.5951 16.6914 11.6377 16.8197 11.723 16.9053C11.8082 16.9908 11.9219 17.0336 12.0498 17.0336C12.1351 17.0336 12.2203 17.0193 12.2914 16.9766C12.3624 16.9338 12.4193 16.8768 12.4619 16.8055H13.0303C12.9592 17.0193 12.8455 17.1762 12.675 17.2902C12.5045 17.4043 12.2914 17.4613 12.0498 17.4613C11.7088 17.4613 11.453 17.3615 11.2683 17.1619C11.0835 16.9623 10.9983 16.6914 10.9983 16.3635C10.9983 16.1497 11.0409 15.9501 11.112 15.7932C11.183 15.6364 11.3109 15.4938 11.4672 15.394C11.6235 15.2942 11.8224 15.2515 12.0356 15.2515C12.3624 15.2515 12.6182 15.3513 12.8029 15.5509C12.9876 15.7505 13.0871 16.0213 13.0871 16.3778V16.5203H11.5667ZM11.723 15.8075C11.6377 15.893 11.5809 16.0213 11.5667 16.1924H12.5329C12.5187 16.0213 12.4619 15.893 12.3766 15.8075C12.2914 15.7219 12.1919 15.6792 12.064 15.6792C11.9219 15.6792 11.8082 15.7219 11.723 15.8075Z"
        fill="white" />
    <path d="M18.6289 14.5244H19.0126V17.0764H20.5188V17.4186H18.6431V14.5244H18.6289Z"
        fill="#3C3C3B" />
    <path
        d="M22.5647 16.8625C22.5647 16.9623 22.5647 17.0621 22.5789 17.1619C22.5931 17.2617 22.6074 17.3187 22.6074 17.3615L22.6216 17.4185H22.2663C22.2379 17.3472 22.2237 17.2332 22.2095 17.0906C22.0674 17.3472 21.8116 17.4756 21.4564 17.4756C21.2148 17.4756 21.0443 17.4185 20.9164 17.3187C20.7885 17.2189 20.7317 17.0621 20.7317 16.8768C20.7317 16.7912 20.7459 16.7057 20.7743 16.6344C20.8027 16.5631 20.8454 16.5061 20.888 16.4633C20.9306 16.4205 20.9875 16.3778 21.0585 16.3493C21.1296 16.3207 21.1864 16.2922 21.2432 16.278C21.3001 16.2637 21.3711 16.2495 21.4422 16.2352C21.4848 16.2352 21.5274 16.2209 21.5985 16.2209C21.6695 16.2209 21.7122 16.2067 21.7548 16.2067C21.7974 16.2067 21.84 16.1924 21.8969 16.1782C21.9537 16.1639 21.9963 16.1497 22.0248 16.1354C22.0532 16.1211 22.0816 16.1069 22.11 16.0784C22.1384 16.0499 22.1669 16.0213 22.1811 15.9928C22.1953 15.9501 22.1953 15.9215 22.1953 15.8645C22.1953 15.8217 22.1811 15.7932 22.1669 15.7505C22.1526 15.7077 22.1242 15.6792 22.0816 15.6364C22.039 15.5936 21.9963 15.5651 21.9253 15.5509C21.8542 15.5366 21.769 15.5223 21.6837 15.5223C21.5274 15.5223 21.3995 15.5509 21.3143 15.6221C21.229 15.6934 21.1722 15.779 21.158 15.893H20.8312C20.8312 15.836 20.8454 15.7647 20.8738 15.7077C20.888 15.6507 20.9306 15.5936 20.9733 15.5366C21.0159 15.4796 21.0727 15.4225 21.1296 15.394C21.2006 15.3513 21.2717 15.3228 21.3711 15.2942C21.4706 15.2657 21.5843 15.2515 21.7122 15.2515C21.8685 15.2515 21.9963 15.2657 22.11 15.3085C22.2237 15.3513 22.309 15.4083 22.38 15.4653C22.451 15.5223 22.4937 15.6079 22.5221 15.6934C22.5505 15.779 22.5647 15.8645 22.5647 15.9643V16.8625ZM21.3995 16.5203C21.3569 16.5346 21.3285 16.5489 21.2859 16.5631C21.2432 16.5774 21.2148 16.6059 21.1864 16.6344C21.158 16.6629 21.1438 16.6914 21.1296 16.7342C21.1153 16.777 21.1011 16.8197 21.1011 16.8625C21.1011 16.9766 21.1438 17.0621 21.2148 17.1191C21.2859 17.1762 21.3995 17.2047 21.5558 17.2047C21.7832 17.2047 21.9395 17.1334 22.0532 17.0051C22.1669 16.8768 22.2237 16.6772 22.2237 16.4205V16.2637C22.1811 16.3065 22.1242 16.3493 22.039 16.3778C21.9537 16.4063 21.8827 16.4348 21.8258 16.4348C21.769 16.4348 21.6695 16.4633 21.5416 16.4776C21.4848 16.4918 21.4422 16.5061 21.3995 16.5203Z"
        fill="#3C3C3B" />
    <path
        d="M23.0195 14.5244H23.3748V15.6507C23.5311 15.3941 23.7726 15.2515 24.1137 15.2515C24.3837 15.2515 24.611 15.3513 24.7673 15.5652C24.9236 15.779 25.0089 16.0357 25.0089 16.3636C25.0089 16.5774 24.9805 16.7628 24.9094 16.9338C24.8384 17.1049 24.7389 17.2332 24.5968 17.333C24.4547 17.4328 24.2984 17.4756 24.1137 17.4756C23.7726 17.4756 23.5311 17.3473 23.3748 17.0907V17.4328H23.0195V14.5244ZM23.5453 16.9624C23.659 17.1049 23.8153 17.1762 24 17.1762C24.1847 17.1762 24.341 17.1049 24.4689 16.9624C24.5826 16.8198 24.6536 16.6202 24.6536 16.3636C24.6536 16.1069 24.5968 15.9073 24.4689 15.7648C24.3552 15.6222 24.1989 15.5509 24 15.5509C23.8153 15.5509 23.659 15.6222 23.5453 15.7648C23.4316 15.9073 23.3606 16.1069 23.3606 16.3636C23.3748 16.6202 23.4316 16.8198 23.5453 16.9624Z"
        fill="#3C3C3B" />
    <path
        d="M25.6482 16.4777C25.6624 16.6915 25.7335 16.8626 25.8471 16.9909C25.9608 17.1192 26.1029 17.1763 26.2734 17.1763C26.3871 17.1763 26.5008 17.1477 26.586 17.0907C26.6713 17.0337 26.7566 16.9481 26.8134 16.8483H27.1828C27.1118 17.0479 26.9981 17.1905 26.8418 17.3046C26.6855 17.4186 26.5008 17.4614 26.2734 17.4614C25.9608 17.4614 25.7193 17.3616 25.5487 17.162C25.3782 16.9624 25.293 16.6915 25.293 16.3636C25.293 16.0357 25.3782 15.7648 25.5487 15.551C25.7193 15.3514 25.9608 15.2373 26.2734 15.2373C26.5718 15.2373 26.8134 15.3371 26.9839 15.5367C27.1544 15.7363 27.2397 16.0072 27.2397 16.3494V16.4634H25.6482V16.4777ZM25.8471 15.722C25.7335 15.8504 25.6624 16.0214 25.6482 16.2353H26.8987C26.8844 16.0072 26.8134 15.8361 26.6997 15.7078C26.586 15.5795 26.4439 15.5224 26.2734 15.5224C26.1029 15.5224 25.9466 15.5937 25.8471 15.722Z"
        fill="#3C3C3B" />
    <path d="M27.6377 14.5244H27.9929V17.4186H27.6377V14.5244Z" fill="#3C3C3B" />
    <path
        d="M29.2434 16.8196H30.0534V17.0477H28.9592V16.734L29.7976 16.4489L28.9592 16.1638V15.8501H30.0534V16.0782H29.2434L30.0534 16.3348V16.5487L29.2434 16.8196Z"
        fill="#3C3C3B" />
    <path
        d="M30.039 15.708H28.9448V15.3088C28.9448 15.1519 28.9875 15.0236 29.0869 14.9238C29.1864 14.824 29.3143 14.7812 29.4848 14.7812C29.6553 14.7812 29.7832 14.824 29.8827 14.9238C29.9821 15.0236 30.0248 15.1519 30.0248 15.3088V15.708H30.039ZM29.84 15.4798V15.323C29.84 15.2945 29.84 15.266 29.8258 15.2375C29.8258 15.209 29.8116 15.1804 29.7974 15.1519C29.7832 15.1234 29.7548 15.1092 29.7406 15.0806C29.7121 15.0664 29.6837 15.0521 29.6411 15.0379C29.5985 15.0236 29.5558 15.0236 29.499 15.0236C29.4422 15.0236 29.3995 15.0236 29.3569 15.0379C29.3143 15.0521 29.2859 15.0664 29.2574 15.0806C29.229 15.0949 29.2148 15.1234 29.2006 15.1519C29.1864 15.1804 29.1722 15.209 29.1722 15.2375C29.1722 15.266 29.158 15.2945 29.158 15.323V15.4798H29.84Z"
        fill="#3C3C3B" />
</svg>