<svg width="32" height="32" viewBox="0 0 32 32" fill="none" xmlns="http://www.w3.org/2000/svg">
    <g clip-path="url(#clip0_2636_89)">
        <path opacity="0.922" fill-rule="evenodd" clip-rule="evenodd"
            d="M8.4528 7.24512C8.93582 7.24512 9.41884 7.24512 9.90186 7.24512C10.5902 10.2664 11.2543 13.2853 11.8943 16.3017C9.7811 13.5445 7.66789 10.7873 5.55469 8.03002C6.51203 7.68252 7.47807 7.42089 8.4528 7.24512Z"
            fill="#FD015E" />
        <path opacity="0.935" fill-rule="evenodd" clip-rule="evenodd"
            d="M17.1475 8.09082C19.0228 8.50503 20.7931 9.18931 22.4607 10.1437C20.3692 12.4561 18.256 14.7505 16.1211 17.0267C16.3831 14.0424 16.7261 11.0638 17.1475 8.09082Z"
            fill="#FD015E" />
        <path opacity="0.892" fill-rule="evenodd" clip-rule="evenodd"
            d="M1.4494 10.5059C3.99841 12.7523 6.53426 15.0266 9.05694 17.3285C6.04375 15.9629 3.06509 14.4937 0.121094 12.921C0.469713 12.0529 0.91252 11.2478 1.4494 10.5059Z"
            fill="#FD015E" />
        <path opacity="0.925" fill-rule="evenodd" clip-rule="evenodd"
            d="M28.498 14.6113C29.6102 15.6442 30.4953 16.8518 31.1546 18.234C30.162 18.454 29.1561 18.5949 28.1357 18.6566C25.24 18.9711 22.3419 19.2126 19.4414 19.3811C22.4675 17.7877 25.4864 16.1978 28.498 14.6113Z"
            fill="#FD015E" />
        <path opacity="0.876" fill-rule="evenodd" clip-rule="evenodd"
            d="M0 16.6641C2.80308 17.565 5.58044 18.5511 8.33208 19.6226C5.91626 19.5622 3.50116 19.4414 1.08679 19.2603C0.865449 19.1999 0.724528 19.059 0.664151 18.8376C0.356951 18.1377 0.135608 17.4132 0 16.6641Z"
            fill="#FD015E" />
        <path opacity="0.907" fill-rule="evenodd" clip-rule="evenodd"
            d="M20.6496 22.2188C24.4316 22.5541 28.2149 22.876 32.0005 23.1848C31.9896 24.2666 31.6274 25.1923 30.9137 25.9621C27.5483 24.807 24.1877 23.6397 20.8307 22.4603C20.7063 22.4197 20.6459 22.3391 20.6496 22.2188Z"
            fill="#FD015E" />
    </g>
    <defs>
        <clipPath id="clip0_2636_89">
            <rect width="32" height="32" fill="white" />
        </clipPath>
    </defs>
</svg>