<svg width="32" height="32" viewBox="0 0 32 32" fill="none" xmlns="http://www.w3.org/2000/svg">
<g clip-path="url(#clip0_4629_1238)">
<path fill-rule="evenodd" clip-rule="evenodd" d="M-0.071106 -0.0710449C4.71705 -0.0710449 9.50519 -0.0710449 14.2933 -0.0710449C6.08126 1.3712 1.29312 6.20676 -0.071106 14.4356C-0.071106 9.60007 -0.071106 4.76451 -0.071106 -0.0710449Z" fill="#FBFBFB"/>
<path fill-rule="evenodd" clip-rule="evenodd" d="M16.9955 -0.0710449C21.9733 -0.0710449 26.9511 -0.0710449 31.9289 -0.0710449C31.9289 4.71711 31.9289 9.50525 31.9289 14.2934C30.8521 7.40849 27.0121 2.83367 20.4089 0.568955C19.2545 0.337456 18.1167 0.124122 16.9955 -0.0710449Z" fill="#FBFBFC"/>
<path fill-rule="evenodd" clip-rule="evenodd" d="M14.2933 -0.0710449C15.194 -0.0710449 16.0949 -0.0710449 16.9956 -0.0710449C18.1167 0.124122 19.2545 0.337456 20.4089 0.568955C27.0121 2.83367 30.8521 7.40849 31.9289 14.2934C31.9289 15.1941 31.9289 16.0949 31.9289 16.9956C31.1171 24.1845 27.2771 28.949 20.4089 31.289C19.3437 31.4895 18.3007 31.7028 17.28 31.929C16.3318 31.929 15.3838 31.929 14.4356 31.929C7.47057 30.9139 2.84835 27.0739 0.568894 20.409C0.307993 19.2604 0.0946599 18.1226 -0.071106 16.9956C-0.071106 16.1423 -0.071106 15.289 -0.071106 14.4356C1.29312 6.20676 6.08126 1.3712 14.2933 -0.0710449Z" fill="#06050A"/>
<path fill-rule="evenodd" clip-rule="evenodd" d="M7.7511 9.45778C8.55703 9.45778 9.36295 9.45778 10.1689 9.45778C10.898 12.4986 11.6565 15.5327 12.4444 18.56C13.2453 15.5934 13.9801 12.6067 14.6489 9.6C15.4667 9.43778 16.2964 9.41409 17.1378 9.52889C17.9191 12.5811 18.7014 15.6389 19.4844 18.7022C20.3126 15.6264 21.0948 12.5449 21.8311 9.45778C22.5896 9.45778 23.3482 9.45778 24.1067 9.45778C23.0827 14.0278 21.9686 18.5789 20.7644 23.1111C19.9771 23.3849 19.1475 23.4797 18.2755 23.3956C17.5573 20.1611 16.7751 16.9374 15.9289 13.7244C15.1098 16.8361 14.3513 19.965 13.6533 23.1111C12.9141 23.3842 12.1319 23.479 11.3067 23.3956C10.0611 18.7688 8.87595 14.1228 7.7511 9.45778Z" fill="#F8F8F8"/>
<path fill-rule="evenodd" clip-rule="evenodd" d="M31.9289 16.9956C31.9289 21.9734 31.9289 26.9512 31.9289 31.9289C27.046 31.9289 22.1629 31.9289 17.28 31.9289C18.3007 31.7028 19.3436 31.4895 20.4089 31.2889C27.2771 28.949 31.1171 24.1845 31.9289 16.9956Z" fill="#FBFBFB"/>
<path fill-rule="evenodd" clip-rule="evenodd" d="M-0.071106 16.9956C0.0946599 18.1226 0.307993 19.2604 0.568894 20.4089C2.84835 27.0739 7.47057 30.9139 14.4356 31.9289C9.60001 31.9289 4.76445 31.9289 -0.071106 31.9289C-0.071106 26.9512 -0.071106 21.9734 -0.071106 16.9956Z" fill="#FBFBFC"/>
</g>
<defs>
<clipPath id="clip0_4629_1238">
<rect width="32" height="32" fill="white"/>
</clipPath>
</defs>
</svg>
