<svg width="32" height="32" viewBox="0 0 32 32" fill="none" xmlns="http://www.w3.org/2000/svg">
<g clip-path="url(#clip0_161_517)">
<path fill-rule="evenodd" clip-rule="evenodd" d="M-0.0703125 -0.071106C10.5964 -0.071106 21.263 -0.071106 31.9297 -0.071106C31.9297 10.5956 31.9297 21.2622 31.9297 31.9289C21.263 31.9289 10.5964 31.9289 -0.0703125 31.9289C-0.0703125 21.2622 -0.0703125 10.5956 -0.0703125 -0.071106Z" fill="#C52C65"/>
<path fill-rule="evenodd" clip-rule="evenodd" d="M11.7331 4.33777C13.3617 5.70512 14.7601 7.26957 15.9286 9.0311C17.0916 7.29801 18.4665 5.73357 20.0531 4.33777C19.4586 6.72982 19.4112 9.1476 19.9109 11.5911C19.916 11.9383 20.0345 12.2227 20.2664 12.4444C23.0297 10.757 26.0163 9.73769 29.2264 9.38666C26.855 11.6384 25.2668 14.3643 24.462 17.5644C24.1551 18.9345 23.8706 20.3092 23.6086 21.6889C21.9253 26.5734 18.5356 28.4459 13.4397 27.3067C11.0493 26.4333 9.41379 24.7977 8.53308 22.4C8.05928 20.4099 7.58521 18.4188 7.11086 16.4267C6.24431 13.6727 4.75098 11.3261 2.63086 9.38666C4.23992 9.47986 5.80436 9.8117 7.32419 10.3822C8.83246 10.9942 10.3021 11.6816 11.7331 12.4444C12.4824 9.73499 12.4824 7.03277 11.7331 4.33777Z" fill="#FEFDFE"/>
</g>
<defs>
<clipPath id="clip0_161_517">
<rect width="32" height="32" fill="white"/>
</clipPath>
</defs>
</svg>
