<svg width="32" height="32" viewBox="0 0 32 32" fill="none" xmlns="http://www.w3.org/2000/svg">
    <path fill-rule="evenodd" clip-rule="evenodd"
        d="M0 16C0 7.16343 7.16343 0 16 0V0C24.8365 0 32 7.16343 32 16V16C32 24.8365 24.8365 32 16 32V32C7.16343 32 0 24.8365 0 16V16Z"
        fill="black" />
    <path fill-rule="evenodd" clip-rule="evenodd"
        d="M3.7334 7.50696C4.72727 6.81746 5.79393 6.81746 6.9334 7.50696C8.39196 11.7938 9.90305 16.0606 11.4667 20.307C13.0046 16.7619 14.3379 13.1177 15.4667 9.37362C15.1213 8.60578 14.9436 7.80578 14.9334 6.97362C15.9826 6.84594 16.9606 7.0237 17.8667 7.50696C19.1558 11.9096 20.7558 16.1763 22.6667 20.307C24.0694 15.7288 25.7585 11.2845 27.7334 6.97362C27.911 7.15138 28.0891 7.3292 28.2667 7.50696C26.0774 13.1331 24.0326 18.8222 22.1334 24.5736C21.9126 24.8174 21.6459 24.9955 21.3334 25.107C19.5659 20.5016 17.7883 15.8792 16.0001 11.2403C14.3433 15.4451 12.8322 19.7118 11.4667 24.0403C11.2413 24.8168 10.7969 25.0835 10.1334 24.8403C8.04918 18.9944 5.91585 13.2167 3.7334 7.50696Z"
        fill="#E8E8E8" />
</svg>