<svg width="32" height="32" viewBox="0 0 33 33" fill="none" xmlns="http://www.w3.org/2000/svg">
    <path
        d="M14.4114 1.51991C14.5736 1.11492 14.9258 0.855469 15.3134 0.855469H19.3405C19.7575 0.855469 20.1303 1.15533 20.2734 1.60607L22.4484 8.45996C22.6849 9.2052 22.2053 9.99401 21.5156 9.99401H12.5691C11.8447 9.99401 11.3641 9.13065 11.6671 8.37382L14.4114 1.51991Z"
        fill="#FF715D" />
    <path
        d="M9.84968 14.0979C10.0094 13.6861 10.3647 13.4209 10.7567 13.4209H13.6702C14.2187 13.4209 14.6633 13.9324 14.6633 14.5631V23.7017C14.6633 24.3326 14.2187 24.844 13.6702 24.844H7.21326C6.49405 24.844 6.01333 23.9919 6.30631 23.2364L9.84968 14.0979Z"
        fill="#6220F7" />
    <path
        d="M17.6425 14.5631C17.6425 13.9324 18.0872 13.4209 18.6356 13.4209H23.7923C24.2041 13.4209 24.5731 13.7131 24.72 14.1555L27.7558 23.294C28.0042 24.0419 27.5241 24.844 26.8282 24.844H18.6356C18.0872 24.844 17.6425 24.3326 17.6425 23.7017V14.5631Z"
        fill="#3371F2" />
    <path
        d="M0.976807 29.4137C0.976807 28.783 1.42142 28.2715 1.96988 28.2715H31.9838C32.5322 28.2715 32.9768 28.783 32.9768 29.4137V31.7136C32.9768 32.3445 32.5322 32.8559 31.9838 32.8559H1.96987C1.42142 32.8559 0.976807 32.3445 0.976807 31.7136V29.4137Z"
        fill="#33ADF2" />
</svg>