<svg width="32" height="32" viewBox="0 0 32 32" fill="none" xmlns="http://www.w3.org/2000/svg">
<path d="M26.9683 17.409C26.8522 17.3353 26.6975 17.3705 26.6233 17.4866C26.6039 17.5151 26.5911 17.5508 26.5881 17.5862C26.5365 17.9656 26.3463 19.6413 26.3301 20.0081C26.3204 20.0887 26.2462 20.1464 26.1658 20.1369C26.1079 20.1306 26.0563 20.0887 26.0401 20.0308C25.8436 19.0945 25.202 15.1127 25.1538 14.7842C24.8765 12.9736 24.6122 11.2622 24.8704 10.397C25.2342 9.15219 26.7202 8.60819 28.3443 8.11969C29.4529 7.78166 30.4133 7.49569 30.7455 6.46946C30.9261 5.89346 30.8099 5.26622 30.4328 4.79391C29.3336 3.35553 23.3972 1.90217 19.1078 3.60343C15.7365 4.94156 12.6942 8.3609 10.4864 11.4613C10.1735 11.9089 9.67713 12.687 8.90406 13.8999C8.23368 14.9517 7.1475 16.9523 6.76067 17.6375C6.71874 17.7051 6.62841 17.7245 6.56421 17.6828C6.51256 17.6504 6.48684 17.5891 6.4998 17.5315C6.99276 15.6946 7.6597 13.9095 8.4913 12.1983C8.5557 12.0792 8.51073 11.9279 8.3882 11.8669C8.35296 11.8475 8.31408 11.8378 8.2756 11.8378C7.87884 11.8313 7.48248 11.8444 7.08916 11.8797C4.95286 12.0217 1.24289 12.6807 0.376051 15.5113C-0.249164 17.5862 0.836819 20.1529 3.37677 22.5557C5.80026 24.8524 9.26496 26.7601 13.126 27.9305C15.9331 28.7737 18.8496 29.2079 21.7794 29.2174C26.6975 29.2174 30.9 27.873 31.7701 25.023C32.6019 22.2728 30.6841 19.7349 26.9683 17.409ZM18.8496 18.4417C17.2188 19.5931 15.1726 20.3299 14.6501 20.4038C14.3538 20.4488 13.9961 20.2722 14.1701 19.9666L15.7105 17.2612C15.8912 16.9428 15.73 16.5405 15.3816 16.4344L13.5868 15.8815C13.4189 15.8363 13.3322 15.6691 13.3674 15.4985C13.4578 15.0517 14.1057 14.1055 15.0468 13.2178C15.8942 12.417 17.2704 11.5068 18.6306 10.9695C19.0302 10.8022 19.3168 11.0627 19.1366 11.3845L17.5801 13.9702C17.4025 14.2858 17.3411 14.6078 17.9088 14.7941C19.0525 15.1639 20.9413 15.46 20.9413 15.46C21.1896 15.492 21.238 15.6658 21.1669 15.8396C20.9413 16.4089 20.326 17.3997 18.8496 18.4417Z" fill="url(#paint0_linear_161_1451)"/>
<defs>
<linearGradient id="paint0_linear_161_1451" x1="22.3537" y1="30.3485" x2="13.3896" y2="5.67177" gradientUnits="userSpaceOnUse">
<stop stop-color="#361AFF"/>
<stop offset="1" stop-color="#FE5C69"/>
</linearGradient>
</defs>
</svg>
