<svg width="32" height="32" viewBox="0 0 33 33" fill="none" xmlns="http://www.w3.org/2000/svg">
    <path opacity="0.903" fill-rule="evenodd" clip-rule="evenodd"
        d="M29.0766 0.498701C31.1394 0.330498 32.3579 1.54896 32.7323 4.1541C30.2538 13.6051 27.573 22.896 24.6898 32.0265C23.511 32.6847 22.4143 32.5324 21.3997 31.5696C20.0121 27.1872 18.4281 22.9225 16.6474 18.7757C14.9463 23.0082 13.2402 27.2727 11.5294 31.5696C10.3109 32.788 9.09236 32.788 7.87378 31.5696C6.82454 28.6973 5.84968 25.8035 4.94925 22.888C1.5323 24.0063 0.191881 22.3309 0.928022 17.8618C1.98455 15.0134 3.69053 13.1857 6.04595 12.3787C6.6552 12.6833 7.26453 12.988 7.87378 13.2926C8.79786 15.6917 9.6508 18.1286 10.4327 20.6034C11.895 16.3387 13.3573 12.0742 14.8195 7.80949C16.0381 6.59103 17.2566 6.59103 18.4752 7.80949C19.9375 12.0742 21.3997 16.3387 22.862 20.6034C24.4613 13.5189 26.5328 6.81728 29.0766 0.498701Z"
        fill="#022167" />
</svg>