<svg width="32" height="32" viewBox="0 0 32 32" fill="none" xmlns="http://www.w3.org/2000/svg">
    <path
        d="M19.7727 0.454736C18.5586 0.162938 17.3019 0 15.9994 0C14.6969 0 13.437 0.161873 12.2261 0.455801V4.68367H19.7727V0.455801V0.454736Z"
        fill="#A0C4E6" />
    <path d="M12.2261 12.2256H19.7727V19.774H12.2261V12.2256Z" fill="#EF3E42" />
    <path d="M12.2261 19.7729H19.7727V27.3203H12.2261V19.7729Z" fill="#9ACD6E" />
    <path
        d="M12.2261 31.5441C13.437 31.8369 14.6969 31.9999 15.9994 31.9999C17.3019 31.9999 18.5596 31.8401 19.7727 31.5526V27.3247H12.2261V31.5526V31.5441Z"
        fill="#429ED6" />
    <path
        d="M12.2264 4.67969H19.7729V12.227H12.2264V4.67969ZM4.67871 12.226H12.2264V19.7744H4.67871V12.226Z"
        fill="#CAE3B2" />
    <path d="M4.67871 19.7729H12.2264V27.3203H4.67871V19.7729Z" fill="#7AC143" />
    <path d="M4.67871 27.3203C6.72351 29.365 9.3221 30.8421 12.2264 31.545V27.3278H4.67871V27.3203Z"
        fill="#007BC6" />
    <path d="M4.67871 4.67969H12.2264V12.227H4.67871V4.67969Z" fill="#9ACD6E" />
    <path d="M12.2264 0.45459C9.3221 1.15746 6.72244 2.63562 4.67871 4.67927H12.2264V0.45459Z"
        fill="#429ED6" />
    <path d="M4.67846 27.3203V19.7729H0.453613C1.15864 22.675 2.63473 25.2788 4.67846 27.3203Z"
        fill="#007BC6" />
    <path
        d="M4.67862 4.67969C2.63382 6.7244 1.1588 9.32289 0.454834 12.227H4.68288V4.68608L4.67862 4.67969Z"
        fill="#429ED6" />
    <path d="M19.7727 12.2256H27.3193V19.774H19.7727V12.2256Z" fill="#9ACD6E" />
    <path d="M19.7727 19.7729H27.3193V27.3203H19.7727V19.7729Z" fill="#7AC143" />
    <path
        d="M27.3204 27.3203H19.7727V31.545C22.6748 30.8421 25.2787 29.3725 27.3204 27.3278V27.3203Z"
        fill="#007BC6" />
    <path d="M19.7727 4.67969H27.3193V12.227H19.7727V4.67969Z" fill="#7AC143" />
    <path
        d="M19.7727 0.45459V4.67927H27.3193C25.2777 2.63455 22.6759 1.15746 19.7727 0.455655V0.45459ZM27.3204 27.3202C29.3651 25.2776 30.8402 22.677 31.5441 19.7729H27.3161V27.3202H27.3204ZM27.3193 4.67927L27.3204 12.2266H31.5441C30.8412 9.32993 29.3609 6.73144 27.3161 4.68672L27.3193 4.67927Z"
        fill="#007BC6" />
    <path
        d="M0.453689 12.2256C0.16188 13.4396 0 14.6963 0 16.0009C0 17.3033 0.16188 18.5621 0.454754 19.774H4.6828V12.2256H0.453689Z"
        fill="#A0C4E6" />
    <path
        d="M31.5453 19.7728C31.8371 18.5609 32.0001 17.3021 32.0001 15.9997C32.0001 14.6973 31.8403 13.4406 31.5528 12.2266H27.3247V19.7771H31.5528L31.5453 19.7728Z"
        fill="#429ED6" />
</svg>