<svg width="32" height="32" viewBox="0 0 32 32" fill="none" xmlns="http://www.w3.org/2000/svg">
<path opacity="0.986" fill-rule="evenodd" clip-rule="evenodd" d="M4.4 0C12.1333 0 19.8667 0 27.6 0C29.4667 1.06667 30.9333 2.53333 32 4.4C32 12.1333 32 19.8667 32 27.6C30.9333 29.4667 29.4667 30.9333 27.6 32C19.8667 32 12.1333 32 4.4 32C2.53333 30.9333 1.06667 29.4667 0 27.6C0 19.8667 0 12.1333 0 4.4C1.06667 2.53333 2.53333 1.06667 4.4 0Z" fill="#6872E5"/>
<path fill-rule="evenodd" clip-rule="evenodd" d="M13.6013 7.20001C16.065 7.01357 18.465 7.28025 20.8013 8.00001C21.3347 9.46669 21.3347 10.9333 20.8013 12.4C19.0441 11.427 17.1775 11.0937 15.2013 11.4C14.6475 12.4339 14.9142 13.2339 16.0013 13.8C21.703 14.6054 23.3697 17.6054 21.0013 22.8C20.0138 23.6606 18.8805 24.2606 17.6013 24.6C15.1408 24.9863 12.7408 24.7863 10.4013 24C9.93738 22.4164 9.87074 20.8164 10.2013 19.2C12.2509 20.5035 14.4509 20.9035 16.8013 20.4C17.3002 19.7974 17.3002 19.1974 16.8013 18.6C15.1689 18.0114 13.5689 17.3447 12.0013 16.6C10.1168 14.9442 9.51678 12.8775 10.2013 10.4C11.0309 8.96925 12.1642 7.90261 13.6013 7.20001Z" fill="#FBFBFE"/>
</svg>
