<svg width="32" height="32" viewBox="0 0 33 33" fill="none" xmlns="http://www.w3.org/2000/svg">
    <path
        d="M8.06445 1.3865C5.03812 2.75864 4.92603 2.95466 5.37437 8.44324C5.71063 13.7358 5.59855 14.1278 3.24473 14.7159C1.78761 15.0426 0.666748 15.6307 0.666748 16.0227C0.666748 16.4148 1.78761 17.0028 3.24473 17.3295C5.59855 17.9176 5.71063 18.3096 5.37437 23.3408C5.03812 28.372 5.1502 28.8294 7.84027 30.3976C10.9787 32.2271 16.3588 32.6191 16.3588 31.051C16.3588 30.5282 15.4621 30.0709 14.2292 30.0709C10.5303 30.0709 9.63366 28.568 9.85783 22.9488C10.1941 18.571 9.85783 17.3949 8.40071 16.7415C6.71941 16.0227 6.71941 15.8267 8.73696 14.4545C10.5303 13.0824 10.7545 12.233 10.082 8.3779C9.2974 3.60807 10.3062 1.97456 14.2292 1.97456C15.4621 1.97456 16.3588 1.51718 16.3588 0.994456C16.3588 -0.443029 11.5391 -0.247008 8.06445 1.3865Z"
        fill="#244092" />
    <path
        d="M26.7976 26.2355C26.3492 26.8889 26.6855 27.8037 27.5822 28.2611C29.7118 29.5025 33.0744 28.5878 32.6261 26.8889C32.1777 25.1247 27.8064 24.6674 26.7976 26.2355Z"
        fill="black" />
</svg>