<svg width="32" height="32" viewBox="0 0 32 32" fill="none" xmlns="http://www.w3.org/2000/svg">
<path opacity="0.961" fill-rule="evenodd" clip-rule="evenodd" d="M7.66314 13.4975C8.16744 14.4418 8.68777 15.3958 9.22412 16.3593C8.71043 18.596 9.10067 20.6773 10.3949 22.6032C11.6636 24.6541 13.2245 26.4752 15.0778 28.0666C15.3131 25.4028 15.0096 22.8012 14.1672 20.2617C14.6423 20.1524 15.1626 20.1524 15.7282 20.2617C16.1821 21.6741 17.0493 22.8014 18.3298 23.6438C18.7463 22.2966 18.963 20.909 18.9802 19.4812C19.5674 19.0791 20.131 18.6455 20.6713 18.1804C21.4314 20.8752 22.4287 23.4769 23.6631 25.9853C24.9109 22.8004 25.4313 19.505 25.2241 16.0991C25.102 14.3731 24.2782 13.159 22.7526 12.4568C22.3915 10.9988 22.1314 9.52454 21.9721 8.03407C22.9548 5.66864 24.5591 5.14832 26.7851 6.47309C27.2865 7.37016 27.6335 8.3241 27.8257 9.33488C28.8367 14.6713 28.6632 19.9613 27.3054 25.2048C26.7614 26.8332 25.6774 27.8738 24.0534 28.3267C22.3519 28.0177 21.0077 27.1506 20.0209 25.7251C19.9497 26.2009 19.7329 26.5912 19.3705 26.8959C18.6693 26.9619 18.0189 27.0054 17.4192 27.0259C17.348 28.4558 16.8711 29.7134 15.9883 30.7983C15.3301 31.1682 14.6364 31.2549 13.907 31.0585C11.083 28.7542 8.61144 26.1093 6.49241 23.1235C5.26684 21.5396 4.3129 19.8052 3.63062 17.9202C2.77881 14.3937 4.12298 12.9195 7.66314 13.4975Z" fill="#7B7BEB"/>
<path fill-rule="evenodd" clip-rule="evenodd" d="M21.9732 8.03406C22.1325 9.52453 22.3927 10.9988 22.7537 12.4568C24.2793 13.159 25.1031 14.3731 25.2252 16.0991C25.4324 19.505 24.9121 22.8004 23.6643 25.9853C22.4298 23.4768 21.4326 20.8752 20.6724 18.1804C20.1322 18.6455 19.5685 19.0791 18.9813 19.4812C18.9642 20.909 18.7474 22.2966 18.3309 23.6438C17.0504 22.8014 16.1832 21.6741 15.7293 20.2617C15.1637 20.1524 14.6434 20.1524 14.1683 20.2617C15.0108 22.8011 15.3143 25.4028 15.0789 28.0666C13.2257 26.4752 11.6647 24.6541 10.396 22.6032C9.10179 20.6773 8.71155 18.596 9.22524 16.3593C8.68889 15.3958 8.16856 14.4418 7.66426 13.4975C6.39834 9.87666 6.70187 6.40784 8.57483 3.09097C12.4765 -0.502013 16.2055 -0.32857 19.7618 3.6113C20.6481 5.03696 21.3852 6.5112 21.9732 8.03406Z" fill="#E6E5F8"/>
<path fill-rule="evenodd" clip-rule="evenodd" d="M10.2653 16.0991C11.6864 15.9128 12.597 16.5198 12.997 17.9202C14.1048 20.9608 14.7119 24.0827 14.8181 27.2861C12.023 24.8169 10.1585 21.7817 9.22461 18.1804C9.23202 17.2759 9.5789 16.5822 10.2653 16.0991Z" fill="#574EC8"/>
<path fill-rule="evenodd" clip-rule="evenodd" d="M21.9727 12.9771C23.6898 13.0915 24.6003 14.0455 24.7044 15.8389C24.9825 18.8782 24.5923 21.8267 23.5337 24.6845C22.0537 21.545 21.0998 18.2497 20.6719 14.7983C20.8175 13.9626 21.2512 13.3556 21.9727 12.9771Z" fill="#564DC8"/>
<path fill-rule="evenodd" clip-rule="evenodd" d="M13.1257 1.00967C16.963 1.15678 19.5213 3.06465 20.8005 6.73325C21.8171 8.62851 22.1207 10.6231 21.7111 12.717C21.128 12.8553 20.7378 13.2022 20.5403 13.7576C20.4166 14.9847 20.4166 16.1988 20.5403 17.3999C18.9251 19.509 16.8438 20.2028 14.2964 19.4812C13.6973 18.2997 13.0468 17.129 12.3452 15.969C11.4891 15.4293 10.6652 15.4727 9.87367 16.0991C7.61668 12.9683 6.92293 9.49943 7.79237 5.6926C8.74082 3.13713 10.5186 1.57615 13.1257 1.00967Z" fill="#4845B7"/>
<path fill-rule="evenodd" clip-rule="evenodd" d="M12.8662 5.43243C15.3364 5.08647 16.5072 6.12712 16.3783 8.55438C15.1796 10.3859 13.7921 10.5594 12.2157 9.07471C11.5761 7.69663 11.7929 6.48252 12.8662 5.43243Z" fill="#DBE818"/>
<path fill-rule="evenodd" clip-rule="evenodd" d="M18.0696 19.7414C18.4103 20.7432 18.4103 21.7838 18.0696 22.8633C17.3346 22.0841 16.6408 21.2602 15.9883 20.3918C16.7746 20.3662 17.4684 20.1494 18.0696 19.7414Z" fill="#5D54CB"/>
</svg>
