<svg width="32" height="32" viewBox="0 0 32 32" fill="none" xmlns="http://www.w3.org/2000/svg">
    <g clip-path="url(#clip0_3235_1668)">
        <path d="M0 0H32V32H0V0Z" fill="#1C3F34" />
        <path
            d="M13.2762 11.0648C14.0756 11.6134 14.7379 12.2705 15.4148 12.9584L15.8572 13.399C16.3177 13.858 16.7753 14.3198 17.233 14.7816C17.5471 15.0957 17.8613 15.4097 18.1755 15.7234C18.9409 16.4881 19.7041 17.2546 20.4656 18.023C20.6741 17.8474 20.8827 17.6717 21.0911 17.4957L21.4427 17.1991C22.2222 16.5287 22.9683 15.8768 23.2098 14.862C23.0155 14.1424 22.7487 13.8606 22.14 13.4253C21.4393 13.2815 21.0393 13.3039 20.4233 13.6745C20.0548 13.9458 19.7009 14.2363 19.3493 14.5287L17.3028 12.5058C18.0873 11.4917 18.8408 10.7027 20.0935 10.2989C21.8944 10.087 23.2243 10.2426 24.6749 11.3218C25.5698 12.1328 26.1229 13.1156 26.3158 14.3031C26.38 15.8117 25.9392 16.9845 24.9655 18.1379C24.7076 18.4078 24.448 18.676 24.1865 18.9425L23.5338 19.648C23.2905 19.9036 23.0468 20.1589 22.8027 20.4138L22.4529 20.795C21.9046 21.3547 21.4646 21.7841 20.6566 21.8621C19.1149 21.6727 17.8181 19.8424 16.7809 18.8061L16.327 18.3551C15.8534 17.8846 15.3802 17.4138 14.9074 16.9425C14.2805 16.318 13.6531 15.694 13.0252 15.0704L12.5889 14.6345L12.1859 14.2343L11.8313 13.881C11.2834 13.378 10.7826 13.3514 10.0427 13.362C9.62203 13.4027 9.62203 13.4027 9.20976 13.8161C8.86669 14.466 8.7731 14.7263 8.93069 15.4483C9.63022 16.4635 10.5796 17.2517 11.5353 18.023L12.4656 17.1035C13.1078 17.3751 13.5167 17.7357 14.0005 18.2299L14.3986 18.6336L14.6981 18.9425C14.4042 19.651 13.9439 20.0991 13.3958 20.6321L12.8957 21.1228C12.3134 21.6568 11.8589 21.8334 11.0488 21.8218C10.1264 21.571 9.50594 20.8006 8.86445 20.1319C8.60611 19.8652 8.34451 19.6017 8.07971 19.3413C6.60101 17.8417 5.67859 16.4894 5.70464 14.3419C5.8438 13.1342 6.42501 12.1381 7.32603 11.3218C9.21348 9.91762 11.2723 9.84167 13.2762 11.0648Z"
            fill="#8ECF8F" />
    </g>
    <defs>
        <clipPath id="clip0_3235_1668">
            <rect width="32" height="32" fill="white" />
        </clipPath>
    </defs>
</svg>