<svg width="32" height="32" viewBox="0 0 32 32" fill="none" xmlns="http://www.w3.org/2000/svg">
    <path fill-rule="evenodd" clip-rule="evenodd"
        d="M16.0001 9.20137C12.6963 9.20137 9.68868 9.34006 7.4176 9.48859C5.52196 9.61254 4.07086 10.6673 3.86336 12.0434C3.70905 13.0679 3.59087 14.259 3.59087 15.5C3.59087 16.741 3.70905 17.9319 3.86359 18.9565C4.07086 20.3327 5.52196 21.3875 7.4176 21.5112C9.68868 21.6598 12.6963 21.7985 16.0001 21.7985C19.3039 21.7985 22.3113 21.6598 24.5824 21.5112C26.478 21.3873 27.9291 20.3327 28.1366 18.9565C28.2909 17.9319 28.4091 16.7409 28.4091 15.5C28.4091 14.2588 28.2909 13.0679 28.1366 12.0432C27.9291 10.6673 26.478 9.61254 24.5822 9.48859C22.3113 9.34006 19.3039 9.20137 16.0001 9.20137ZM7.17987 7.33866C4.62698 7.58181 2.62862 9.09199 2.34181 11.0688C2.30317 11.3348 2.26613 11.612 2.23136 11.8982C2.0975 12.9993 2 14.2356 2 15.5C2 16.7642 2.09772 18.0007 2.23136 19.1018C2.26613 19.388 2.30317 19.6652 2.34181 19.9314C2.62862 21.9082 4.62721 23.4182 7.17987 23.6612C7.23374 23.6663 7.2876 23.6708 7.34192 23.6747C9.63868 23.8432 12.6691 24 16.0001 24C19.3307 24 22.3613 23.8432 24.6581 23.6747C24.7124 23.6708 24.7663 23.6663 24.8201 23.6612C27.373 23.4184 29.3714 21.9082 29.6582 19.9314C29.6968 19.6652 29.7339 19.3882 29.7686 19.1018C29.9025 18.0007 30 16.7642 30 15.5C30 14.2356 29.9025 12.9993 29.7686 11.898C29.7339 11.6118 29.6968 11.3346 29.6582 11.0686C29.3714 9.09182 27.373 7.58164 24.8201 7.33883C24.7663 7.33357 24.7124 7.32918 24.6581 7.32514C22.3613 7.1566 19.3309 7 16.0001 7C12.6693 7 9.6389 7.1566 7.34192 7.32514C7.2876 7.32918 7.23374 7.33357 7.17987 7.33866Z"
        fill="#141414" />
    <path
        d="M7.72729 13.1638C7.72729 12.8899 7.72729 12.7528 7.79684 12.6482C7.85775 12.556 7.95524 12.4814 8.07501 12.4344C8.21092 12.381 8.38932 12.381 8.74545 12.381H9.89088C10.2477 12.381 10.4256 12.381 10.5618 12.4344C10.6815 12.4812 10.7788 12.5562 10.8399 12.6482C10.9093 12.7528 10.9093 12.8898 10.9093 13.1638V15.8789C10.9093 16.1528 10.9093 16.2897 10.8399 16.3945C10.7788 16.4865 10.6815 16.5613 10.5618 16.6083C10.4256 16.6615 10.2475 16.6615 9.89111 16.6615H8.74568C8.38932 16.6615 8.21092 16.6615 8.07501 16.6083C7.95538 16.5615 7.858 16.4867 7.79684 16.3945C7.72752 16.2899 7.72752 16.1529 7.72752 15.8789L7.72729 13.1638ZM21.0911 13.1638C21.0911 12.8899 21.0911 12.7528 21.1604 12.6482C21.2215 12.556 21.3188 12.4814 21.4386 12.4344C21.5747 12.381 21.7529 12.381 22.1092 12.381H23.2546C23.611 12.381 23.7892 12.381 23.9253 12.4344C24.0451 12.4812 24.1426 12.5562 24.2035 12.6482C24.2728 12.7528 24.2728 12.8898 24.2728 13.1638V15.8789C24.2728 16.1528 24.2728 16.2897 24.2035 16.3945C24.1426 16.4865 24.0451 16.5613 23.9253 16.6083C23.7892 16.6615 23.611 16.6615 23.2549 16.6615H22.1092C21.7529 16.6615 21.5747 16.6615 21.4386 16.6083C21.3189 16.5615 21.2215 16.4867 21.1604 16.3945C21.0911 16.2899 21.0911 16.1529 21.0911 15.8789V13.1638Z"
        fill="#141414" />
</svg>