<svg width="32" height="32" viewBox="0 0 32 32" fill="none" xmlns="http://www.w3.org/2000/svg">
<g clip-path="url(#clip0_156_1389)">
<path fill-rule="evenodd" clip-rule="evenodd" d="M12.7542 8.79998C14.997 8.76138 17.2387 8.80003 19.4789 8.91593C19.7254 9.19145 20.0347 9.30739 20.4064 9.26375C20.2518 10.3459 20.0973 11.428 19.9427 12.5101C17.6245 11.9022 15.3057 11.9022 12.9861 12.5101C12.3927 11.4256 12.0834 10.2662 12.0586 9.03187C12.358 9.08689 12.5898 9.00961 12.7542 8.79998Z" fill="#9EC8AC"/>
<path fill-rule="evenodd" clip-rule="evenodd" d="M13.2163 9.26376C15.2275 9.22517 17.2372 9.2638 19.2453 9.3797C19.3612 9.49564 19.4772 9.61158 19.5931 9.72753C19.7086 10.4189 19.7473 11.1146 19.7091 11.8145C19.1141 11.8506 18.5344 11.7733 17.9699 11.5826C16.3827 11.7904 14.7982 11.9063 13.2163 11.9304C12.9149 11.0417 12.9149 10.1528 13.2163 9.26376Z" fill="#8CCEA4"/>
<path fill-rule="evenodd" clip-rule="evenodd" d="M10.2023 9.95941C10.545 9.89865 10.8541 9.97594 11.1298 10.1913C11.2578 10.6164 11.451 11.0029 11.7095 11.3507C11.9792 12.1556 11.786 12.7739 11.1298 13.2058C10.2426 13.5097 9.3923 13.9735 8.57909 14.5971C7.90894 15.3977 7.13607 16.0934 6.26025 16.684C5.4778 15.9862 4.70484 15.2905 3.94141 14.5971C4.43799 13.6214 5.13364 12.8098 6.02836 12.1623C7.05299 11.3681 8.13503 10.6724 9.27474 10.0753C9.57457 9.96173 9.8839 9.92307 10.2023 9.95941Z" fill="#B8DCC4"/>
<path fill-rule="evenodd" clip-rule="evenodd" d="M21.3338 9.95941C22.5948 10.0086 23.7542 10.3951 24.812 11.1188C26.1141 12.0723 27.312 13.1544 28.4062 14.3652C28.5609 14.5198 28.5609 14.6744 28.4062 14.829C27.6519 15.2937 26.995 15.8734 26.4352 16.5681C26.1087 16.6412 25.7996 16.5639 25.5077 16.3362C25.1211 15.6406 24.5802 15.0995 23.8845 14.713C22.816 13.8324 21.6566 13.1368 20.4062 12.6261C20.7858 11.7579 21.0949 10.869 21.3338 9.95941Z" fill="#74BB93"/>
<path fill-rule="evenodd" clip-rule="evenodd" d="M21.3334 10.6551C22.3305 10.7467 23.2194 11.1332 24.0001 11.8145C25.3008 12.0293 26.3827 12.6476 27.2465 13.6696C27.3585 13.8894 27.397 14.1213 27.3624 14.3652C26.6464 14.3937 26.0279 14.1618 25.5074 13.6696C24.9747 13.9385 25.0519 14.1704 25.7392 14.3652C25.9447 14.5565 26.0219 14.7884 25.9711 15.0609C26.2802 15.0609 26.5896 15.0609 26.8987 15.0609C26.9949 15.6284 26.763 15.9376 26.203 15.9884C25.4872 15.6727 25.1006 15.1316 25.0436 14.3652C23.6347 13.9902 22.3206 13.3718 21.1016 12.5101C21.3086 11.9109 21.3859 11.2926 21.3334 10.6551Z" fill="#64C28C"/>
<path fill-rule="evenodd" clip-rule="evenodd" d="M30.608 17.3797C30.9065 18.0536 31.1384 18.7492 31.3037 19.4667C30.1519 19.6548 28.9925 19.8094 27.8254 19.9304C27.5379 19.0842 27.1513 18.2726 26.666 17.4956C26.7261 17.2032 26.8807 16.9713 27.1298 16.8C27.856 16.4209 28.5517 15.9958 29.2167 15.5246C29.7753 16.0817 30.2391 16.7001 30.608 17.3797Z" fill="#46A779"/>
<path fill-rule="evenodd" clip-rule="evenodd" d="M28.5214 16.2203C29.7806 16.8023 30.399 17.8071 30.3765 19.2348C29.4295 19.3407 28.5407 19.1861 27.7098 18.771C27.3915 18.2619 27.3142 17.7208 27.478 17.1478C27.9399 16.9558 28.2877 16.6466 28.5214 16.2203Z" fill="#2BB674"/>
<path fill-rule="evenodd" clip-rule="evenodd" d="M31.3039 19.4667C31.4586 19.4667 31.5358 19.5439 31.5358 19.6985C30.3564 20.0157 29.197 20.3249 28.0575 20.6261C27.9029 20.6261 27.7484 20.6261 27.5938 20.6261C27.7352 20.4195 27.8124 20.1876 27.8256 19.9304C28.9927 19.8094 30.1521 19.6548 31.3039 19.4667Z" fill="#1A5837"/>
<path fill-rule="evenodd" clip-rule="evenodd" d="M26.8984 19.9304C27.2075 19.9304 27.5169 19.9304 27.826 19.9304C27.8128 20.1876 27.7355 20.4195 27.5941 20.6261C26.7046 20.7853 25.8545 21.0172 25.0434 21.3217C22.0008 21.8986 19.0251 22.6715 16.1158 23.6406C14.6849 23.1337 14.4915 22.3221 15.5361 21.2058C16.1137 21.1457 16.6935 21.1843 17.2753 21.3217C19.7038 20.9491 22.1386 20.6399 24.5796 20.3942C25.3937 20.3016 26.1666 20.147 26.8984 19.9304Z" fill="#3B3B3B"/>
<path fill-rule="evenodd" clip-rule="evenodd" d="M28.7539 23.4087C28.7539 22.9449 28.7539 22.4811 28.7539 22.0174C28.7539 21.5536 28.7539 21.0898 28.7539 20.6261C29.5555 20.5663 30.3284 20.4503 31.0727 20.2782C31.4962 21.2738 31.7281 22.3172 31.7684 23.4087C30.7636 23.4087 29.7587 23.4087 28.7539 23.4087Z" fill="#29B675"/>
<path fill-rule="evenodd" clip-rule="evenodd" d="M31.5369 19.6985C32.006 21.0209 32.1606 22.3348 32.0006 23.6406C30.873 23.7145 29.7908 23.6373 28.7542 23.4087C29.759 23.4087 30.764 23.4087 31.7687 23.4087C31.7284 22.3172 31.4965 21.2738 31.0731 20.2782C30.3287 20.4503 29.5559 20.5663 28.7542 20.6261C28.7542 21.0898 28.7542 21.5536 28.7542 22.0174C28.5912 21.5238 28.3593 21.06 28.0586 20.6261C29.1981 20.3249 30.3575 20.0157 31.5369 19.6985Z" fill="#56AB83"/>
</g>
<defs>
<clipPath id="clip0_156_1389">
<rect width="32" height="32" fill="white"/>
</clipPath>
</defs>
</svg>
