<svg width="32" height="32" viewBox="0 0 32 32" fill="none" xmlns="http://www.w3.org/2000/svg">
<path opacity="0.985" fill-rule="evenodd" clip-rule="evenodd" d="M23.025 11.6364C23.0526 14.4765 23.0248 17.3025 22.9418 20.1143C21.5433 18.7902 20.158 17.4465 18.786 16.0831C18.7366 16.0445 18.6812 16.0307 18.6198 16.0415C17.7371 15.1867 16.8505 14.3278 15.96 13.4649C15.0695 14.3278 14.1829 15.1867 13.3003 16.0415C13.2389 16.0307 13.1834 16.0445 13.134 16.0831C11.785 17.4739 10.3997 18.8177 8.9782 20.1143C8.89525 17.3025 8.86749 14.4765 8.89509 11.6364C11.244 9.35697 13.6128 7.08512 16.0016 4.82077C18.3858 7.05264 20.7269 9.3245 23.025 11.6364ZM18.6198 16.0415C17.711 16.8254 16.8382 17.6566 16.0016 18.5351C15.112 17.6868 14.2115 16.8556 13.3003 16.0415C14.1829 15.1867 15.0695 14.3278 15.96 13.4649C16.8505 14.3278 17.7371 15.1867 18.6198 16.0415Z" fill="#AACF37"/>
<path opacity="0.988" fill-rule="evenodd" clip-rule="evenodd" d="M8.8119 11.6364C8.8119 14.49 8.8119 17.3437 8.8119 20.1974C7.58202 19.0646 6.36294 17.9148 5.15475 16.748C4.85875 16.4926 4.55399 16.2572 4.24047 16.0416C2.88807 14.7864 1.54434 13.5119 0.209299 12.2182C0.140046 9.33639 0.153894 6.45501 0.250858 3.57402C3.13351 6.23516 5.98719 8.9226 8.8119 11.6364Z" fill="#77AD44"/>
<path opacity="0.993" fill-rule="evenodd" clip-rule="evenodd" d="M27.6789 15.9584C26.1709 17.3907 24.6471 18.8037 23.1074 20.1974C23.1074 17.3437 23.1074 14.49 23.1074 11.6364C25.9321 8.9226 28.7858 6.23516 31.6685 3.57402C31.7655 6.45501 31.7793 9.33639 31.71 12.2182C30.4021 13.5126 29.0584 14.7593 27.6789 15.9584Z" fill="#77AD44"/>
<path opacity="0.992" fill-rule="evenodd" clip-rule="evenodd" d="M23.0245 11.6364C23.0522 11.6364 23.08 11.6364 23.1076 11.6364C23.1076 14.49 23.1076 17.3437 23.1076 20.1974C23.0252 20.2117 22.9698 20.1839 22.9414 20.1143C23.0244 17.3025 23.0521 14.4765 23.0245 11.6364Z" fill="#92BC4A"/>
<path opacity="0.984" fill-rule="evenodd" clip-rule="evenodd" d="M8.8125 11.6364C8.84018 11.6364 8.86794 11.6364 8.89562 11.6364C8.86802 14.4765 8.89578 17.3025 8.97873 20.1143C8.95031 20.1839 8.89495 20.2117 8.8125 20.1974C8.8125 17.3437 8.8125 14.49 8.8125 11.6364Z" fill="#8FBA4F"/>
<path opacity="0.978" fill-rule="evenodd" clip-rule="evenodd" d="M4.24047 16.0416C4.55399 16.2572 4.85875 16.4926 5.15475 16.7481C6.36294 17.9148 7.58202 19.0646 8.8119 20.1974C8.8119 20.2528 8.8119 20.3082 8.8119 20.3636C5.98719 23.0774 3.13351 25.7648 0.250858 28.426C0.153894 25.545 0.140046 22.6636 0.209299 19.7818C1.5172 18.4874 2.86093 17.2407 4.24047 16.0416Z" fill="#13508C"/>
<path opacity="0.977" fill-rule="evenodd" clip-rule="evenodd" d="M13.3008 16.0416C14.212 16.8556 15.1125 17.6868 16.0021 18.5351C16.8388 17.6566 17.7115 16.8254 18.6203 16.0416C18.6817 16.0307 18.7372 16.0445 18.7865 16.0831C20.1585 17.4465 21.5438 18.7902 22.9424 20.1143C22.9708 20.1839 23.0262 20.2117 23.1086 20.1974C23.0809 20.2528 23.0532 20.3082 23.0255 20.3636C20.7252 22.6778 18.3841 24.9496 16.0021 27.1792C13.6174 24.8914 11.2209 22.6196 8.8125 20.3636C8.8125 20.3082 8.8125 20.2528 8.8125 20.1974C8.89495 20.2117 8.95031 20.1839 8.97873 20.1143C10.4002 18.8177 11.7855 17.4739 13.1346 16.0831C13.1839 16.0445 13.2394 16.0307 13.3008 16.0416Z" fill="#5288C2"/>
<path opacity="0.971" fill-rule="evenodd" clip-rule="evenodd" d="M27.6799 15.9584C29.0059 17.201 30.3358 18.4478 31.6695 19.6987C31.7803 22.6078 31.7803 25.5169 31.6695 28.426C28.7865 25.7367 25.9051 23.0493 23.0254 20.3636C23.0531 20.3082 23.0808 20.2528 23.1085 20.1974C24.6482 18.8037 26.1719 17.3907 27.6799 15.9584Z" fill="#13508C"/>
</svg>
