<svg width="32" height="32" viewBox="0 0 32 32" fill="none" xmlns="http://www.w3.org/2000/svg">
<g clip-path="url(#clip0_162_2)">
<path fill-rule="evenodd" clip-rule="evenodd" d="M3.2008 -0.0711112C11.6393 -0.0711112 20.0779 -0.0711112 28.5164 -0.0711112C30.3017 0.339285 31.4394 1.42966 31.9297 3.2C31.9297 11.6385 31.9297 20.0771 31.9297 28.5156C31.503 30.3644 30.3652 31.5022 28.5164 31.9289C20.1252 31.9289 11.7341 31.9289 3.34302 31.9289C1.55773 31.5184 0.419955 30.4282 -0.0703125 28.6578C-0.0703125 20.2193 -0.0703125 11.7807 -0.0703125 3.34222C0.340084 1.55694 1.43046 0.419156 3.2008 -0.0711112Z" fill="#181818"/>
<path fill-rule="evenodd" clip-rule="evenodd" d="M8.60385 6.89778C7.10859 6.85119 5.63897 6.8986 4.19496 7.04C4.11772 7.03147 4.07031 6.98406 4.05273 6.89778C5.59245 6.70955 7.10947 6.70955 8.60385 6.89778Z" fill="#865423"/>
<path fill-rule="evenodd" clip-rule="evenodd" d="M11.4492 6.89778C12.9407 6.75635 14.4578 6.70893 16.0003 6.75556C16.034 6.93916 15.9867 7.08139 15.8581 7.18222C14.4436 6.90129 12.974 6.80649 11.4492 6.89778Z" fill="#885523"/>
<path fill-rule="evenodd" clip-rule="evenodd" d="M27.8043 11.7333C27.8043 12.2074 27.8043 12.6815 27.8043 13.1556C26.4294 13.1556 25.0547 13.1556 23.6799 13.1556C23.7251 12.511 23.6777 11.8947 23.5376 11.3067C23.5605 10.3107 23.0865 9.81288 22.1154 9.81333C21.8614 9.92491 21.6481 10.0908 21.4754 10.3111C21.3134 12.1268 21.2423 13.952 21.2621 15.7867C21.2464 17.7596 21.3176 19.7269 21.4754 21.6889C22.0917 22.2578 22.7081 22.2578 23.3243 21.6889C23.5073 20.5111 23.5785 19.326 23.5376 18.1333C25.0072 18.1333 26.4769 18.1333 27.9465 18.1333C27.9465 18.6074 27.9465 19.0815 27.9465 19.5556C27.9772 20.5689 27.8588 21.5644 27.591 22.5422C27.0768 24.2588 25.9155 25.1358 24.1065 25.1733C23.0636 25.2682 22.0206 25.2682 20.9776 25.1733C19.3537 25.2279 18.1922 24.5404 17.4932 23.1111C17.1253 22.1491 16.8882 21.1536 16.7821 20.1244C16.6872 17.3749 16.6872 14.6251 16.7821 11.8756C16.8977 8.22773 18.7702 6.47366 22.3999 6.61333C24.011 6.52376 25.4569 6.95043 26.7376 7.89333C27.5108 9.05217 27.8663 10.3322 27.8043 11.7333Z" fill="#FCFCFC"/>
<path fill-rule="evenodd" clip-rule="evenodd" d="M8.60349 6.89778C9.10825 9.01015 9.60603 11.1435 10.0968 13.2978C10.5386 11.1598 10.989 9.0265 11.4479 6.89778C12.9727 6.80649 14.4423 6.90129 15.8568 7.18222C15.0363 9.96676 14.183 12.7401 13.2968 15.5022C14.2565 18.6069 15.2047 21.7121 16.1413 24.8178C14.6498 24.9591 13.1328 25.0066 11.5902 24.96C11.0745 22.621 10.5293 20.298 9.9546 17.9911C9.48329 20.3243 8.98551 22.6472 8.46127 24.96C6.94718 25.1021 5.43014 25.1494 3.91016 25.1022C4.84658 21.9024 5.79471 18.7024 6.7546 15.5022C5.93349 12.6673 5.08016 9.84659 4.1946 7.04C5.63861 6.8986 7.10824 6.85119 8.60349 6.89778Z" fill="#E4882E"/>
<path fill-rule="evenodd" clip-rule="evenodd" d="M23.5371 11.3067C23.6772 11.8947 23.7246 12.511 23.6793 13.1556C25.0542 13.1556 26.4289 13.1556 27.8038 13.1556C27.8038 12.6815 27.8038 12.2074 27.8038 11.7333C27.9434 12.2257 27.9908 12.7472 27.946 13.2978C26.4764 13.2978 25.0067 13.2978 23.5371 13.2978C23.5371 12.6341 23.5371 11.9704 23.5371 11.3067Z" fill="#D4D4D4"/>
<path fill-rule="evenodd" clip-rule="evenodd" d="M23.5371 18.1333C25.0286 17.992 26.5457 17.9445 28.0882 17.9911C28.133 18.5417 28.0857 19.0632 27.946 19.5556C27.946 19.0815 27.946 18.6074 27.946 18.1333C26.4764 18.1333 25.0067 18.1333 23.5371 18.1333Z" fill="#A0A0A0"/>
<path fill-rule="evenodd" clip-rule="evenodd" d="M16.1429 24.8178C16.2201 24.8263 16.2675 24.8737 16.2851 24.96C14.6979 25.1483 13.1335 25.1483 11.5918 24.96C13.1344 25.0066 14.6514 24.9591 16.1429 24.8178Z" fill="#724920"/>
</g>
<defs>
<clipPath id="clip0_162_2">
<rect width="32" height="32" fill="white"/>
</clipPath>
</defs>
</svg>
