<svg width="32" height="32" viewBox="0 0 32 32" fill="none" xmlns="http://www.w3.org/2000/svg">
<g clip-path="url(#clip0_162_523)">
<path fill-rule="evenodd" clip-rule="evenodd" d="M-0.125 -0.125C10.5417 -0.125 21.2083 -0.125 31.875 -0.125C31.875 10.5417 31.875 21.2083 31.875 31.875C21.2083 31.875 10.5417 31.875 -0.125 31.875C-0.125 21.2083 -0.125 10.5417 -0.125 -0.125Z" fill="#0E0E0E"/>
<path fill-rule="evenodd" clip-rule="evenodd" d="M0.125 0.125C10.625 0.125 21.125 0.125 31.625 0.125C31.625 10.625 31.625 21.125 31.625 31.625C21.125 31.625 10.625 31.625 0.125 31.625C0.125 21.125 0.125 10.625 0.125 0.125Z" fill="#020202"/>
<path fill-rule="evenodd" clip-rule="evenodd" d="M27.125 7.875C26.9502 7.361 26.7002 6.861 26.375 6.375C26.2045 6.56067 26.0378 6.72735 25.875 6.875C25.875 6.625 25.875 6.375 25.875 6.125C26.286 6.17837 26.661 6.09505 27 5.875C27.1243 6.5365 27.166 7.20318 27.125 7.875Z" fill="#323232"/>
<path fill-rule="evenodd" clip-rule="evenodd" d="M5.87574 6.375C6.52824 7.74532 7.36159 9.03698 8.37574 10.25C9.65274 10.8481 10.9861 11.2231 12.3757 11.375C13.7295 11.0142 15.1045 10.6808 16.5007 10.375C17.9164 10.743 19.3748 10.993 20.8757 11.125C23.6278 10.9546 25.2945 9.5379 25.8757 6.875C26.0385 6.72735 26.2052 6.56067 26.3757 6.375C26.701 6.861 26.951 7.361 27.1257 7.875C27.39 10.1633 27.015 12.33 26.0007 14.375C25.5007 15.2083 24.8341 15.875 24.0007 16.375C24.0534 20.6388 22.5951 24.2638 19.6257 27.25C18.9266 27.5583 18.2599 27.9333 17.6257 28.375C17.1593 25.4908 17.8259 22.9073 19.6257 20.625C20.0599 19.6144 20.3099 18.5311 20.3757 17.375C19.8262 17.28 19.4096 17.4467 19.1257 17.875C18.125 18.7508 17.1667 19.6675 16.2507 20.625C15.3971 19.6446 14.4387 18.8113 13.3757 18.125C12.9932 17.6634 12.4932 17.4134 11.8757 17.375C11.7506 18.8331 12.1673 20.0831 13.1257 21.125C13.5194 21.8955 14.0611 22.5622 14.7507 23.125C15.0203 24.1995 15.2286 25.2828 15.3757 26.375C15.4166 26.9643 15.3749 27.5475 15.2507 28.125C15.083 27.937 14.8747 27.8535 14.6257 27.875C12.3846 26.4672 10.5513 24.6339 9.12574 22.375C8.87499 21.372 8.62499 20.372 8.37574 19.375C8.41707 18.4546 8.37539 17.5379 8.25074 16.625C8.07367 16.4049 7.86534 16.2382 7.62574 16.125C6.83487 15.2497 6.25152 14.2497 5.87574 13.125C5.80177 12.6493 5.63512 12.2326 5.37574 11.875C5.21827 9.9393 5.38492 8.10595 5.87574 6.375Z" fill="#F7F7F7"/>
<path fill-rule="evenodd" clip-rule="evenodd" d="M5.8754 6.37501C5.38457 8.10596 5.21792 9.93931 5.3754 11.875C5.12817 10.5062 5.04485 9.08951 5.1254 7.62501C5.1254 7.12501 5.1254 6.62501 5.1254 6.12501C5.44815 6.06569 5.69815 6.14901 5.8754 6.37501Z" fill="#A7A7A7"/>
<path fill-rule="evenodd" clip-rule="evenodd" d="M5.125 7.625C5.04445 9.0895 5.12777 10.5062 5.375 11.875C5.63438 12.2326 5.80103 12.6493 5.875 13.125C5.40635 12.8396 4.9897 12.6729 4.625 12.625C4.78312 10.9259 4.94977 9.25917 5.125 7.625Z" fill="#292929"/>
<path fill-rule="evenodd" clip-rule="evenodd" d="M19.625 20.625C19.6151 20.3542 19.5318 20.1042 19.375 19.875C19.7547 19.213 20.0047 18.5046 20.125 17.75C19.7952 17.7013 19.4618 17.7429 19.125 17.875C19.4089 17.4467 19.8255 17.28 20.375 17.375C20.3092 18.5311 20.0592 19.6144 19.625 20.625Z" fill="#4B4B4B"/>
<path fill-rule="evenodd" clip-rule="evenodd" d="M13.3752 18.125C13.1252 18.125 12.8752 18.125 12.6252 18.125C12.3849 18.8321 12.4265 19.4987 12.7502 20.125C12.9801 20.2326 13.1884 20.3159 13.3752 20.375C13.2184 20.6042 13.135 20.8542 13.1252 21.125C12.1667 20.0831 11.7501 18.8331 11.8752 17.375C12.4927 17.4134 12.9927 17.6634 13.3752 18.125Z" fill="#222222"/>
<path fill-rule="evenodd" clip-rule="evenodd" d="M7.625 16.125C7.8646 16.2382 8.07293 16.4049 8.25 16.625C8.37465 17.5379 8.41632 18.4546 8.375 19.375C8.14977 18.3158 7.89977 17.2324 7.625 16.125Z" fill="#2F2F2F"/>
<path fill-rule="evenodd" clip-rule="evenodd" d="M15.375 26.375C15.6183 26.987 15.7016 27.6538 15.625 28.375C15.1551 28.4427 14.8218 28.276 14.625 27.875C14.874 27.8535 15.0823 27.937 15.25 28.125C15.3742 27.5475 15.4158 26.9643 15.375 26.375Z" fill="#8C8C8C"/>
</g>
<defs>
<clipPath id="clip0_162_523">
<rect width="32" height="32" fill="white"/>
</clipPath>
</defs>
</svg>
