<svg width="32" height="32" viewBox="0 0 32 32" fill="none" xmlns="http://www.w3.org/2000/svg">
<path fill-rule="evenodd" clip-rule="evenodd" d="M0 3.58398C0.853332 3.58398 1.70667 3.58398 2.56 3.58398C3.49868 4.69332 4.52268 5.71732 5.632 6.65598C5.80268 6.91198 5.97333 7.16798 6.144 7.42398C4.14313 7.67804 2.09514 7.76336 0 7.67998C0 6.31466 0 4.94932 0 3.58398Z" fill="#275898"/>
<path fill-rule="evenodd" clip-rule="evenodd" d="M28.6719 3.58398C29.5251 3.58398 30.3786 3.58398 31.2319 3.58398C31.2319 4.94932 31.2319 6.31466 31.2319 7.67998C29.1839 7.67998 27.1359 7.67998 25.0879 7.67998C25.3439 7.33866 25.5999 6.99731 25.8559 6.65598C26.8451 5.68893 27.7838 4.66493 28.6719 3.58398Z" fill="#285898"/>
<path fill-rule="evenodd" clip-rule="evenodd" d="M25.0885 6.65598C18.8151 6.57125 12.5857 6.6566 6.40053 6.91198C6.2615 6.89662 6.17617 6.8113 6.14453 6.65598C9.34453 6.57066 12.5445 6.48531 15.7445 6.39998C19.0489 6.39753 22.1635 6.48285 25.0885 6.65598Z" fill="#537AAD"/>
<path fill-rule="evenodd" clip-rule="evenodd" d="M25.0884 6.65599C24.4911 7.33867 23.8937 8.02132 23.2964 8.70399C22.7512 9.12053 22.2392 9.58985 21.7604 10.112C17.6644 10.2827 13.5684 10.2827 9.47239 10.112C8.73782 9.33429 7.96982 8.60896 7.16839 7.93599C6.91239 7.59467 6.65639 7.25332 6.40039 6.91199C12.5856 6.65661 18.8149 6.57125 25.0884 6.65599Z" fill="#255797"/>
<path fill-rule="evenodd" clip-rule="evenodd" d="M6.144 7.42398C6.34601 7.49638 6.51669 7.62438 6.656 7.80798C4.43896 7.93593 2.22031 7.97858 0 7.93598C0 7.85066 0 7.76531 0 7.67998C2.09514 7.76336 4.14313 7.67804 6.144 7.42398Z" fill="#5179AC"/>
<path fill-rule="evenodd" clip-rule="evenodd" d="M31.2319 3.58398C31.3171 3.58398 31.4026 3.58398 31.4879 3.58398C31.5703 5.08363 31.4851 6.53431 31.2319 7.93598C28.9906 8.02108 26.9426 7.93575 25.0879 7.67998C27.1359 7.67998 29.1839 7.67998 31.2319 7.67998C31.2319 6.31466 31.2319 4.94932 31.2319 3.58398Z" fill="#6385B4"/>
<path fill-rule="evenodd" clip-rule="evenodd" d="M0 12.544C3.92904 12.4588 7.85436 12.5441 11.776 12.8C12.1228 13.3174 12.5494 13.7441 13.056 14.08C13.6862 14.8388 14.3689 15.5641 15.104 16.256C10.0701 16.384 5.03539 16.4266 0 16.384C0 15.104 0 13.824 0 12.544Z" fill="#2C5A99"/>
<path fill-rule="evenodd" clip-rule="evenodd" d="M16.1289 16.896C16.139 16.6187 16.2243 16.3627 16.3849 16.128C17.0761 15.4436 17.7587 14.7609 18.4329 14.08C22.6548 13.8249 26.9214 13.7395 31.2329 13.824C31.2329 15.1893 31.2329 16.5546 31.2329 17.92C26.5389 17.9626 21.8455 17.9199 17.1529 17.792C16.8444 17.4398 16.5031 17.1411 16.1289 16.896Z" fill="#255798"/>
<path fill-rule="evenodd" clip-rule="evenodd" d="M15.6164 16.128C14.9861 15.3692 14.3034 14.6439 13.5684 13.952C15.019 13.7813 16.4697 13.7813 17.9204 13.952C17.1858 14.7297 16.4178 15.455 15.6164 16.128Z" fill="#275999"/>
<path fill-rule="evenodd" clip-rule="evenodd" d="M23.5521 24.576C23.7228 24.9173 23.9788 25.1733 24.3201 25.344C18.5617 25.5993 12.759 25.6847 6.91211 25.6C7.25343 25.1733 7.59478 24.7467 7.93611 24.32C8.82292 23.5616 9.67627 22.7509 10.4961 21.888C13.9948 21.7173 17.4934 21.7173 20.9921 21.888C21.725 22.9191 22.5784 23.8151 23.5521 24.576Z" fill="#2A5999"/>
<path fill-rule="evenodd" clip-rule="evenodd" d="M0 24.32C2.47614 24.2774 4.95081 24.32 7.424 24.448C7.11421 24.714 6.85821 25.0127 6.656 25.344C5.632 26.1973 4.69332 27.136 3.84 28.16C2.56 28.16 1.28 28.16 0 28.16C0 26.88 0 25.6 0 24.32Z" fill="#285999"/>
<path fill-rule="evenodd" clip-rule="evenodd" d="M31.2325 24.32C31.2325 25.6 31.2325 26.88 31.2325 28.16C30.0377 28.16 28.8432 28.16 27.6485 28.16C26.8805 27.2213 26.0272 26.368 25.0885 25.6C24.8004 25.183 24.4591 24.799 24.0645 24.448C26.4522 24.32 28.8417 24.2774 31.2325 24.32Z" fill="#265898"/>
<path fill-rule="evenodd" clip-rule="evenodd" d="M24.3203 25.344C24.5348 25.4315 24.6202 25.6021 24.5763 25.856C18.5587 25.9407 12.5854 25.8554 6.65625 25.6C6.74157 25.6 6.82693 25.6 6.91225 25.6C12.7592 25.6847 18.5618 25.5994 24.3203 25.344Z" fill="#6487B5"/>
</svg>
