<svg width="32" height="32" viewBox="0 0 32 32" fill="none" xmlns="http://www.w3.org/2000/svg">
    <g clip-path="url(#clip0_2879_985)">
        <rect width="32" height="32" fill="#FAFAFA" />
        <path
            d="M15.5837 0H16.4116C17.2351 0.0319156 17.9187 0.0926077 18.4622 0.182077C19.1576 0.296135 19.9473 0.484229 20.8315 0.746356C21.3406 0.89704 21.8362 1.07885 22.3187 1.2918C25.1789 2.55169 27.4927 4.46924 29.2601 7.04447C29.6488 7.6111 30.0514 8.32423 30.4679 9.18387C30.7029 9.66993 30.9032 10.1523 31.0691 10.6311C32.3136 14.2218 32.3104 17.8103 31.0588 21.3962C30.8841 21.8965 30.6811 22.385 30.4498 22.8615C28.8049 26.2535 26.2903 28.7758 22.9056 30.4287C22.4264 30.6625 21.9509 30.8632 21.479 31.0307C17.8632 32.3099 14.2482 32.3229 10.634 31.0699C9.41525 30.6469 8.17607 30.0049 7.12916 29.3174C6.46157 28.879 5.7911 28.3458 5.11776 27.718C3.20759 25.9386 1.81407 23.8354 0.937202 21.4088C0.733682 20.8454 0.533038 20.1205 0.335272 19.2341C-0.0218058 17.6348 -0.0751712 15.9277 0.0880642 14.3048C0.169159 13.5016 0.344167 12.6104 0.613086 11.6309C0.939556 10.4411 1.40886 9.3008 2.021 8.20991C2.25068 7.80129 2.47799 7.43138 2.70297 7.1002C3.41451 6.05115 4.22833 5.10101 5.14444 4.24975C5.71027 3.72472 6.35301 3.21773 6.97456 2.78294C7.31672 2.54384 7.74312 2.28224 8.25376 1.99812C9.19445 1.47388 10.1508 1.05923 11.1229 0.754204C12.5769 0.297443 14.0638 0.0460423 15.5837 0ZM25.1549 6.11211C23.9298 4.98513 22.4607 4.02609 20.8824 3.43512C19.8513 3.04847 18.8784 2.78975 17.9639 2.65894C15.6776 2.33193 13.4388 2.56999 11.2477 3.37313C10.7972 3.53871 10.3868 3.74513 9.95832 3.94446C9.53531 4.14145 9.16411 4.38867 8.76073 4.62568C8.60953 4.71463 8.46121 4.81298 8.31575 4.92077C7.95789 5.18682 7.58041 5.45051 7.25473 5.73933C7.06743 5.9057 6.87332 6.07889 6.67241 6.25887C6.23765 6.64891 5.87115 7.11038 5.48896 7.55616C5.48668 7.55896 5.48504 7.56225 5.48424 7.56576C5.48343 7.56927 5.48344 7.5729 5.48429 7.57636C5.48513 7.5798 5.48678 7.58299 5.48909 7.58562C5.49141 7.58824 5.49432 7.59025 5.49758 7.59148L24.1895 14.5865C24.2065 14.5929 24.2245 14.5953 24.2423 14.5937C24.2602 14.592 24.2772 14.5864 24.2924 14.5771L28.7736 11.8185C28.7827 11.813 28.7895 11.8045 28.7933 11.7946C28.7971 11.7846 28.7972 11.7736 28.794 11.7635C28.3063 10.3205 27.6189 9.01068 26.7316 7.83399C26.2764 7.23125 25.7153 6.62774 25.1549 6.11211ZM21.5048 16.2927C21.5242 16.2807 21.5231 16.2704 21.5017 16.2621L4.08655 9.74421C4.06927 9.73794 4.05672 9.74317 4.04888 9.75992C3.93639 9.99902 3.82077 10.2389 3.70201 10.4796C3.59579 10.6946 3.49456 10.9353 3.39829 11.2016C3.12256 11.965 2.91355 12.6998 2.77125 13.4062C2.48088 14.8476 2.44163 16.3489 2.65353 17.9102C2.72416 18.4318 2.83063 18.9445 2.97293 19.4485C3.17384 20.1569 3.36717 20.7311 3.5529 21.1711C3.88669 21.9611 4.28535 22.7151 4.7489 23.4328C4.89174 23.6542 5.09526 23.9331 5.35946 24.2696C5.5295 24.4867 5.70555 24.6939 5.88762 24.8911C6.07231 25.0909 6.25386 25.2947 6.43228 25.5024C6.44286 25.5144 6.45727 25.5224 6.47295 25.5249C6.48864 25.5273 6.50454 25.5241 6.51781 25.5158L21.5048 16.2927ZM11.9838 28.8678C12.9857 29.1775 14.0879 29.3724 15.2901 29.4524C15.7976 29.4864 16.3216 29.4836 16.862 29.4438C17.561 29.392 18.1773 29.3113 18.711 29.2021C19.5047 29.0393 20.3402 28.7757 21.2176 28.4109C21.7159 28.2029 22.2362 27.9731 22.6978 27.689C23.0398 27.4793 23.3923 27.2816 23.7179 27.0438C24.1716 26.7131 24.4748 26.4813 24.6276 26.3484C25.5295 25.5657 26.2638 24.793 26.8304 24.0302C27.2793 23.4263 27.7004 22.7344 28.0939 21.9543C28.4549 21.2377 28.7641 20.3784 28.9729 19.6563C29.4625 17.9597 29.5997 16.2176 29.3842 14.4303C29.3815 14.4063 29.3698 14.4005 29.3487 14.4131L8.57394 27.2C8.56939 27.2026 8.56558 27.2064 8.56294 27.2109C8.56031 27.2155 8.55892 27.2206 8.55892 27.226C8.55892 27.2312 8.56031 27.2362 8.56294 27.2408C8.56558 27.2454 8.56939 27.2491 8.57394 27.2518C9.01735 27.5092 9.43564 27.7894 9.89631 28.0147C10.6628 28.3904 11.3586 28.6746 11.9838 28.8678Z"
            fill="#141414" />
    </g>
    <defs>
        <clipPath id="clip0_2879_985">
            <rect width="32" height="32" fill="white" />
        </clipPath>
    </defs>
</svg>