<svg width="32" height="32" viewBox="0 0 33 33" fill="none" xmlns="http://www.w3.org/2000/svg">
    <path fill-rule="evenodd" clip-rule="evenodd"
        d="M0.833496 0.911133C11.5002 0.911133 22.1669 0.911133 32.8335 0.911133C32.8335 11.5778 32.8335 22.2445 32.8335 32.9111C22.1669 32.9111 11.5002 32.9111 0.833496 32.9111C0.833496 22.2445 0.833496 11.5778 0.833496 0.911133Z"
        fill="#FEFEFE" />
    <path
        d="M8.78803 30.6659C8.58679 30.6661 8.38929 30.6105 8.21674 30.5052C7.9797 30.3665 7.78306 30.1664 7.64688 29.9251C7.51069 29.6839 7.43984 29.4103 7.44155 29.1321C7.44004 28.387 7.51998 27.6439 7.67989 26.9168C7.88027 25.8803 8.0072 24.8305 8.05968 23.7754C8.11246 22.449 7.9557 21.1224 7.59539 19.8465C6.93473 17.702 5.95332 15.6739 4.68566 13.8334C4.17238 13.0937 3.73388 12.3031 3.37683 11.4737C3.23968 11.1745 3.17861 10.845 3.19923 10.5156C3.21985 10.1861 3.32151 9.86722 3.49486 9.58814C3.66832 9.33163 3.9063 9.12721 4.18395 8.99621C4.4616 8.86522 4.76873 8.81246 5.07326 8.84346C5.89256 8.89165 6.70528 9.02105 7.49987 9.22982C7.68357 9.26953 7.86726 9.31017 8.05693 9.35128C9.39128 9.66641 10.7547 9.83664 12.1244 9.85911C13.0091 9.86172 13.8916 9.7706 14.7577 9.58721C17.4212 9.02192 19.5608 7.32045 21.4497 5.81987C23.1948 4.43422 24.7011 3.23731 26.2083 3.23731C26.6052 3.23687 26.9976 3.32222 27.3596 3.48771C27.5479 3.55855 27.7193 3.66921 27.8624 3.8124C28.0055 3.95559 28.1171 4.12804 28.1899 4.31836C28.5339 5.28963 27.7931 6.79441 27.0092 8.38282C26.4598 9.41385 26.0044 10.494 25.649 11.6096C25.3151 12.8164 25.3674 13.7759 25.8088 14.543C25.4023 15.1206 25.0251 15.7189 24.6786 16.3356C24.6351 16.4159 24.6128 16.5064 24.6141 16.5981C24.6154 16.6899 24.6401 16.7797 24.6858 16.8587C24.7316 16.9378 24.7967 17.0033 24.8749 17.049C24.9531 17.0946 25.0417 17.1188 25.1319 17.1191C25.2245 17.119 25.3154 17.0937 25.3953 17.0459C25.4751 16.9981 25.541 16.9295 25.586 16.8472C25.5888 16.842 25.9378 16.2048 26.5086 15.3676C27.9406 16.7777 29.0511 18.4901 29.7619 20.3842C30.4792 22.2464 30.7024 23.9464 30.3589 24.9327C30.2936 25.1852 30.1506 25.4099 29.9508 25.5739C29.751 25.7379 29.5049 25.8326 29.2485 25.8441C29.1764 25.8483 29.1033 25.8507 29.0322 25.8507C28.1409 25.793 27.274 25.5311 26.4962 25.0845C26.3507 25.0158 26.1853 24.9378 26.0173 24.8612C24.6536 24.1992 23.1599 23.8608 21.649 23.8717C21.1757 23.873 20.7028 23.8992 20.2322 23.9502C20.3342 22.9193 20.5398 21.9017 20.8458 20.9135C21.3986 19.308 22.137 17.775 23.0455 16.3468C23.7941 15.1387 24.4366 14.2996 24.4637 14.2646C24.5528 14.1591 24.5973 14.022 24.5876 13.8832C24.5779 13.7445 24.5148 13.6152 24.4119 13.5235C24.309 13.4319 24.1747 13.3852 24.0382 13.3937C23.9017 13.4022 23.7741 13.4652 23.683 13.569C23.2854 14.0372 22.9279 14.539 22.6143 15.0691C22.2197 15.7266 21.7735 16.3506 21.2802 16.935C21.0098 17.3101 20.6051 17.5618 20.1537 17.6358C20.1344 17.6358 20.1156 17.6358 20.0968 17.6334C20.0266 17.6312 19.958 17.6121 19.8965 17.5777C19.835 17.5434 19.7823 17.4948 19.7427 17.4358C19.5325 17.0469 19.4497 16.6 19.5062 16.16C19.5296 16.0576 19.5521 15.9511 19.5682 15.8432C19.6197 15.5402 19.6504 15.2339 19.66 14.9266C19.6877 14.7918 19.6624 14.6514 19.5894 14.5355C19.5164 14.4196 19.4016 14.3374 19.2697 14.3067C19.2307 14.2974 19.1908 14.2927 19.1507 14.2926C19.0336 14.2922 18.9198 14.3323 18.828 14.4063C18.7363 14.4804 18.6719 14.5839 18.6456 14.7L18.6419 14.7168C18.6364 14.7379 18.6318 14.7589 18.6286 14.7785C18.553 15.1528 18.5032 15.532 18.4793 15.9133L18.4743 16.0091C18.4118 16.3249 18.2782 16.6217 18.0839 16.8761C17.8684 17.125 17.6139 17.3359 17.3308 17.5003C17.2019 17.5817 17.0574 17.6341 16.9069 17.654C16.8566 17.4128 16.8753 17.162 16.9606 16.9313C17.0371 16.6637 17.1413 16.4051 17.2715 16.16C17.5439 15.7395 17.7358 15.4003 17.7556 15.3634C17.8229 15.2414 17.8399 15.0972 17.8027 14.9625C17.7656 14.8278 17.6773 14.7136 17.5574 14.6451C17.4375 14.5766 17.2957 14.5594 17.1633 14.5972C17.0309 14.635 16.9187 14.7247 16.8513 14.8467V14.8495C16.8229 14.9004 16.7751 14.9845 16.7085 15.0957C16.6875 15.1179 16.6683 15.1418 16.6511 15.1672C16.5542 15.313 16.4628 15.4653 16.3802 15.6208C16.3159 15.7194 16.247 15.8217 16.1753 15.9245C15.8412 16.4666 15.4063 16.9371 14.895 17.3097C14.6584 17.4655 14.3887 17.5616 14.1083 17.59C14.0789 17.5916 14.0495 17.587 14.022 17.5764C13.9937 17.5438 13.9764 17.5029 13.9724 17.4596C13.9718 17.1926 14.0571 16.9327 14.2153 16.7196C14.4518 16.3421 14.7587 16.0153 15.1186 15.7577C15.3059 15.6207 15.5309 15.5471 15.7616 15.5475C15.8091 15.5476 15.8567 15.5506 15.9039 15.5564C16.0424 15.5732 16.1773 15.6126 16.3035 15.6732H16.3002L16.8082 14.7533C16.582 14.6338 16.3373 14.5548 16.0849 14.5197C15.9773 14.5039 15.8688 14.4959 15.7602 14.4959C15.3172 14.4965 14.8852 14.6368 14.5239 14.8976C14.0479 15.2383 13.6434 15.6721 13.334 16.1735C13.0221 16.6069 12.8871 17.1464 12.9575 17.6788C12.9868 17.8637 13.0595 18.0387 13.1693 18.189C13.2791 18.3393 13.4229 18.4606 13.5884 18.5426C13.7525 18.6178 13.9307 18.6556 14.1106 18.6533C14.2264 18.6525 14.3419 18.6403 14.4555 18.6169C14.7861 18.5401 15.1035 18.4131 15.3969 18.2403C15.5745 18.1375 15.7408 18.0156 15.8929 17.8768C15.919 17.9867 15.9581 18.0929 16.0095 18.1931C16.082 18.3352 16.1882 18.4567 16.3186 18.5464C16.4489 18.6362 16.5992 18.6914 16.7558 18.707C16.8027 18.7128 16.85 18.7156 16.8973 18.7154C17.6029 18.6251 18.252 18.2763 18.7232 17.7344C18.7737 17.8479 18.8352 17.9561 18.9069 18.0572C19.0337 18.2383 19.1982 18.3888 19.3887 18.4978C19.5792 18.6068 19.791 18.6717 20.0091 18.6879C20.06 18.6925 20.111 18.6944 20.1647 18.6944C20.3212 18.6941 20.477 18.6729 20.6281 18.6313C20.333 19.2676 20.0769 19.9218 19.8612 20.5902C19.5937 21.4461 19.3989 22.3237 19.2789 23.2134C19.2389 23.5017 19.2049 23.7993 19.1778 24.0973H19.182L19.2049 24.0936C19.5567 24.0343 19.9034 23.9861 20.2364 23.9506C20.1831 24.4594 20.15 24.9817 20.1386 25.5026C20.1176 26.2113 20.1432 26.9207 20.2152 27.6259C20.2322 27.7648 20.1943 27.9048 20.1099 28.0153C20.0256 28.1258 19.9016 28.1978 19.7652 28.2155C19.7435 28.218 19.7218 28.2193 19.7 28.2193C19.5739 28.219 19.4522 28.1721 19.3576 28.0873C19.263 28.0024 19.2021 27.8854 19.1861 27.7582C19.1088 27.0084 19.0804 26.2543 19.1011 25.5007C19.1112 25.0303 19.1374 24.5584 19.1792 24.0992C17.6294 24.3827 16.1598 25.0091 14.8743 25.9343C13.7603 26.7401 12.7128 27.6371 11.7423 28.6164C10.5552 29.7614 9.6165 30.6654 8.78803 30.6659ZM11.3515 17.0359V17.0397V17.0425L11.3478 17.0532C10.8766 18.3809 10.2766 19.6576 9.5568 20.8645C9.48707 20.9826 9.46551 21.1237 9.4967 21.2578C9.5279 21.3919 9.60939 21.5083 9.72377 21.582C9.83814 21.6558 9.97635 21.6812 10.1089 21.6528C10.2414 21.6243 10.3577 21.5443 10.433 21.4297C11.1948 20.1567 11.8281 18.8086 12.3232 17.4059C12.8328 15.8539 13.2246 14.2644 13.4952 12.6514C13.4965 12.6497 13.4976 12.6478 13.4984 12.6458C13.5479 12.5661 13.5755 12.4743 13.5783 12.38C13.5811 12.2857 13.559 12.1924 13.5143 12.1097C13.4696 12.0271 13.404 11.9581 13.3242 11.91C13.2445 11.8619 13.1535 11.8364 13.0608 11.8362C12.9312 11.838 12.8059 11.8838 12.7048 11.9663C12.6037 12.0488 12.5326 12.1634 12.5028 12.2917C12.5028 12.2917 12.5028 12.2954 12.5028 12.3006C12.3101 12.7402 12.1533 13.1952 12.0339 13.661V13.6638C11.8719 14.3282 11.6311 14.9701 11.3171 15.5755C10.9373 16.2076 10.551 16.2805 10.2939 16.2805H10.2365C10.0738 16.273 9.91439 16.2309 9.76863 16.1569C9.62286 16.083 9.49392 15.9788 9.39009 15.8512C9.13166 15.5381 8.93601 15.1765 8.81421 14.7869C8.63349 14.2438 8.51785 13.6805 8.46978 13.1093C8.46128 12.9755 8.40314 12.8501 8.30713 12.7583C8.21112 12.6665 8.08442 12.6153 7.95268 12.615H7.91916C7.8511 12.6193 7.78456 12.6373 7.72333 12.6678C7.66211 12.6984 7.60741 12.7409 7.56236 12.793C7.51731 12.845 7.48281 12.9056 7.46081 12.9713C7.43882 13.037 7.42978 13.1064 7.4342 13.1756C7.4875 13.8364 7.61981 14.4881 7.82823 15.1163C7.99431 15.6426 8.26121 16.1302 8.61352 16.551C8.80526 16.7718 9.03477 16.9554 9.2909 17.0929C9.56954 17.2395 9.87659 17.3217 10.1901 17.3335C10.2186 17.3335 10.2493 17.3335 10.2842 17.3335C10.66 17.337 11.0291 17.2331 11.3497 17.0336L11.3515 17.0359ZM24.1688 17.9577C24.0651 17.9573 23.9636 17.9888 23.8777 18.048C23.7918 18.1071 23.7254 18.1913 23.6871 18.2894L23.4694 18.8439C23.4441 18.9083 23.4315 18.9772 23.4324 19.0465C23.4332 19.1159 23.4475 19.1844 23.4744 19.2482C23.5013 19.3119 23.5403 19.3697 23.5891 19.4181C23.6379 19.4665 23.6956 19.5047 23.759 19.5304C23.8223 19.5562 23.89 19.569 23.9582 19.5681C24.0263 19.5672 24.0937 19.5527 24.1564 19.5253C24.219 19.498 24.2758 19.4583 24.3234 19.4087C24.371 19.359 24.4085 19.3003 24.4338 19.2359L24.6519 18.6813C24.6834 18.6012 24.695 18.5146 24.6859 18.4288C24.6768 18.3431 24.6472 18.261 24.5997 18.1896C24.5522 18.1182 24.4882 18.0597 24.4133 18.0193C24.3384 17.9789 24.255 17.9577 24.1702 17.9577H24.1688ZM26.5109 15.369C26.4793 15.3391 26.4462 15.3083 26.403 15.269C26.1697 15.0608 25.97 14.8164 25.8115 14.5449C26.2 13.9899 26.5982 13.4741 26.9959 13.0116C27.8527 12.0199 28.7816 11.0951 29.7747 10.245C29.8814 10.1562 30.0185 10.1141 30.1557 10.128C30.2928 10.1419 30.419 10.2107 30.5063 10.3193C30.5936 10.4278 30.635 10.5672 30.6213 10.7068C30.6076 10.8463 30.54 10.9747 30.4333 11.0635C29.4855 11.877 28.5978 12.7603 27.7775 13.7063C27.3257 14.236 26.9033 14.791 26.5123 15.3686L26.5109 15.369Z"
        fill="#2C2C2E" />
</svg>