<svg width="32" height="32" viewBox="0 0 32 32" fill="none" xmlns="http://www.w3.org/2000/svg">
    <rect width="32" height="32" rx="7" fill="#FFE100" />
    <path fill-rule="evenodd" clip-rule="evenodd"
        d="M17.0055 17.042L9.50699 3.27774H4.21094L4.24832 3.35084L14.8996 23.009C14.918 23.0459 14.9277 23.0865 14.9277 23.1277C14.9277 23.1689 14.918 23.2095 14.8996 23.2465L11.9027 30.316H16.9495L28.632 3.32038C26.9881 2.2201 25.132 1.45935 23.1771 1.08471C21.2299 0.73671 19.2319 0.76361 17.2953 1.1639L18.1582 5.37939C19.5385 5.09198 20.9631 5.07128 22.3514 5.31847L22.5883 5.36721C20.9776 8.99185 18.7283 14.2429 17.5259 17.0207C17.505 17.0703 17.4701 17.113 17.4253 17.1438C17.3804 17.1745 17.3274 17.1921 17.2727 17.1943C17.218 17.1966 17.1637 17.1834 17.1164 17.1564C17.069 17.1295 17.0305 17.0897 17.0055 17.042Z"
        fill="#18171D" />
</svg>