<svg width="32" height="32" viewBox="0 0 32 32" fill="none" xmlns="http://www.w3.org/2000/svg">
    <g clip-path="url(#clip0_4752_2436)">
        <path opacity="0.958" fill-rule="evenodd" clip-rule="evenodd"
            d="M5.97019 -0.23877C12.3383 -0.23877 18.7065 -0.23877 25.0747 -0.23877C26.4968 0.468526 27.5316 1.58295 28.1791 3.10451C29.2702 10.5125 30.4642 17.8359 31.7612 25.0747C31.7612 26.1891 31.7612 27.3035 31.7612 28.4179C31.1405 29.8184 30.1853 30.9329 28.8956 31.7612C21.2538 31.7612 13.612 31.7612 5.97019 31.7612C5.80001 30.2978 6.19805 29.0242 7.16422 27.9403C10.1891 24.5971 13.214 21.2538 16.2388 17.9105C16.7961 18.4677 17.3533 19.0249 17.9105 19.5821C18.3638 19.8769 18.7618 19.7973 19.1045 19.3433C19.9879 15.9713 20.7839 12.628 21.4926 9.31347C18.0861 9.66547 14.6632 10.4615 11.2239 11.7015C10.7363 11.9411 10.6567 12.2595 10.9851 12.6568C11.5423 13.214 12.0995 13.7712 12.6568 14.3284C9.31347 17.3533 5.97019 20.3782 2.6269 23.403C1.27061 23.8644 0.315392 23.4664 -0.23877 22.209C-0.23877 22.0498 -0.23877 21.8906 -0.23877 21.7314C0.888462 15.6048 1.92328 9.39586 2.86571 3.10451C3.35205 1.42585 4.38688 0.311421 5.97019 -0.23877Z"
            fill="#05A080" />
        <path opacity="0.827" fill-rule="evenodd" clip-rule="evenodd"
            d="M16.4776 11.2241C17.4328 11.2241 18.388 11.2241 19.3433 11.2241C19.1007 12.99 18.7823 14.7413 18.388 16.4779C17.6029 16.5798 16.8865 16.4206 16.2388 16.0002C15.5934 16.7257 14.877 17.3625 14.0895 17.9107C13.6226 17.683 13.2246 17.3646 12.8955 16.9555C13.5136 15.4885 13.9912 13.8965 14.3283 12.1793C15.1033 11.8933 15.8197 11.5749 16.4776 11.2241Z"
            fill="#05A080" />
    </g>
    <defs>
        <clipPath id="clip0_4752_2436">
            <rect width="32" height="32" fill="white" />
        </clipPath>
    </defs>
</svg>