<svg width="32" height="32" viewBox="0 0 32 32" fill="none" xmlns="http://www.w3.org/2000/svg">
<path d="M10.4438 25.8335L12.873 10.6511H19.5533L17.2642 25.273C17.0773 26.1606 17.381 26.5576 18.1518 26.5576C18.5022 26.5576 18.8058 26.5109 19.0861 26.3941L18.3387 31.1825C17.1007 31.4861 16.0263 31.6496 14.835 31.6496C10.9109 31.673 9.81312 29.8511 10.4438 25.8335Z" fill="#15152C"/>
<path d="M13.1289 4.01752C13.1289 1.35474 14.9975 0 17.5669 0C19.9026 0 21.4676 1.2146 21.4676 3.38686C21.4676 6.11971 19.599 7.35766 17.0296 7.35766C14.7172 7.38102 13.1289 6.21314 13.1289 4.01752Z" fill="#E2626B"/>
</svg>
