<svg width="32" height="32" viewBox="0 0 32 32" fill="none" xmlns="http://www.w3.org/2000/svg">
    <g clip-path="url(#clip0_3338_2391)">
        <rect width="32" height="32" fill="#E60113" />
        <path
            d="M26.9061 8.25792L18.6766 10.0071L18.6487 3.78361L18.5991 3.35795C18.4855 2.82323 18.1584 2.37477 17.7314 2.09748L16.0579 1.02192C16.0579 1.02192 8.7101 11.9211 8.64734 12.1389L12.2511 29.0935L26.5973 26.0441C27.6798 25.814 28.4672 24.9651 28.6588 23.9429L30.6431 13.9111C30.6968 13.5862 30.6954 13.2594 30.6234 12.9203L30.0689 10.3119C29.764 8.87726 28.3407 7.95298 26.9061 8.25792ZM6.03895 12.6934L0.822162 13.8022L4.42596 30.7568L9.64275 29.6479L6.03895 12.6934Z"
            fill="#FAFAFA" />
    </g>
    <defs>
        <clipPath id="clip0_3338_2391">
            <rect width="32" height="32" fill="white" />
        </clipPath>
    </defs>
</svg>