<svg width="32" height="32" viewBox="0 0 32 32" fill="none" xmlns="http://www.w3.org/2000/svg">
<path fill-rule="evenodd" clip-rule="evenodd" d="M8.42103 20.5879C8.42103 20.8373 8.42103 21.0869 8.42103 21.3364C7.54799 21.4079 6.73708 21.2207 5.98828 20.775C6.36066 20.5882 6.73493 20.4011 7.11109 20.2136C7.29179 19.8588 7.35416 19.4845 7.29822 19.0908C7.57477 19.0417 7.8243 19.1041 8.04676 19.2779C7.85963 19.5274 7.67249 19.777 7.48536 20.0264C7.86777 20.1322 8.17966 20.3193 8.42103 20.5879Z" fill="#2A3585"/>
<path fill-rule="evenodd" clip-rule="evenodd" d="M16.2811 13.6639C16.4675 13.6478 16.6234 13.7102 16.749 13.851C16.8425 15.1595 16.8736 16.4694 16.8425 17.7808C17.1861 19.2826 16.7493 20.4677 15.5326 21.3364C15.1129 21.5187 14.6763 21.5812 14.2227 21.5235C14.2562 20.9116 14.5992 20.5996 15.2519 20.5878C15.9813 20.0212 16.262 19.2727 16.094 18.3422C16.2156 18.2853 16.3405 18.223 16.4683 18.1551C16.6863 16.787 16.7173 15.4147 16.5618 14.0381C16.5794 14.8115 16.4234 15.4977 16.094 16.0966C16.0437 15.2673 16.106 14.4564 16.2811 13.6639Z" fill="#343D78"/>
<path fill-rule="evenodd" clip-rule="evenodd" d="M23.5785 14.0381C23.694 14.0588 23.7875 14.1212 23.8592 14.2253C23.9526 15.3464 23.9838 16.4692 23.9528 17.5937C25.1297 17.4305 26.3148 17.3682 27.5083 17.4066C27.5083 17.7808 27.5083 18.1551 27.5083 18.5294C27.2946 18.8911 26.9829 19.1718 26.5727 19.3715C24.8886 20.109 23.2044 20.8262 21.52 21.5235C21.52 21.1492 21.52 20.775 21.52 20.4007C22.1222 20.3724 22.1845 20.2166 21.7072 19.9329C21.832 19.8706 21.9566 19.808 22.0814 19.7457C21.6957 19.367 21.2592 19.0863 20.7715 18.9036C21.4079 18.866 21.8758 18.5541 22.175 17.968C22.4218 18.2954 22.5154 18.6697 22.4557 19.0908C22.8825 19.1699 23.1945 19.0451 23.3914 18.7165C23.5772 17.1913 23.6395 15.6319 23.5785 14.0381Z" fill="#C8CAD2"/>
<path fill-rule="evenodd" clip-rule="evenodd" d="M11.2289 12.3539C11.2289 12.6034 11.2289 12.853 11.2289 13.1025C11.2289 13.1648 11.2289 13.2272 11.2289 13.2896C10.0296 15.625 9.09393 18.0578 8.42191 20.5878C8.18054 20.3193 7.86864 20.1322 7.48623 20.0264C7.67337 19.777 7.8605 19.5274 8.04764 19.2779C7.82517 19.1041 7.57565 19.0417 7.2991 19.0908C7.35503 19.4845 7.29266 19.8588 7.11197 20.2136C6.73581 20.4011 6.36154 20.5882 5.98916 20.775C6.73796 21.2207 7.54887 21.4079 8.42191 21.3364C8.4621 21.6506 8.33734 21.8377 8.04764 21.8978C7.10832 21.8113 6.23503 21.5617 5.42775 21.1492C5.42615 20.8109 5.51971 20.499 5.70846 20.2136C5.91676 20.4402 6.13509 20.4402 6.36343 20.2136C6.54412 19.8588 6.6065 19.4845 6.55056 19.0908C6.7377 19.0908 6.92483 19.0908 7.11197 19.0908C7.06294 18.8142 7.12531 18.5647 7.2991 18.3422C7.62015 18.1459 7.86965 17.8965 8.04764 17.5937C8.18883 17.9616 8.40716 18.0241 8.70261 17.7808C9.55909 15.9809 10.4012 14.1719 11.2289 12.3539Z" fill="#303E81"/>
<path fill-rule="evenodd" clip-rule="evenodd" d="M15.5326 22.8335C15.5326 22.8958 15.5326 22.9583 15.5326 23.0206C13.0973 23.2579 10.6645 23.2579 8.23438 23.0206C8.23438 22.7086 8.23438 22.3969 8.23438 22.0849C8.77125 21.8448 9.2079 21.4706 9.54432 20.9621C9.29356 20.7398 9.16881 20.4591 9.17005 20.12C9.43101 19.6187 9.55577 19.0885 9.54432 18.5294C10.1334 18.9577 10.7571 19.363 11.4157 19.7457C11.9666 20.1554 12.3096 20.6232 12.4449 21.1492C12.5353 20.9718 12.5664 20.7847 12.5385 20.5878C13.4653 20.5545 13.6835 20.9288 13.1934 21.7106C13.0042 21.554 12.7859 21.4917 12.5385 21.5235C12.5385 21.7106 12.5385 21.8978 12.5385 22.0849C12.0394 22.0849 11.5405 22.0849 11.0414 22.0849C11.0414 22.272 11.0414 22.4592 11.0414 22.6463C12.5416 22.6465 14.0387 22.7088 15.5326 22.8335Z" fill="#AEB4BD"/>
<path fill-rule="evenodd" clip-rule="evenodd" d="M17.0282 17.7808C17.7477 17.8459 18.122 18.2515 18.151 18.9972C18.0344 19.6486 17.9409 20.3036 17.8703 20.9621C17.5245 21.2462 17.2438 21.5892 17.0282 21.9913C17.4777 22.1437 17.9143 22.1124 18.3381 21.8978C18.5155 20.9743 18.5779 20.0386 18.5253 19.0908C19.2675 18.9669 20.016 18.9046 20.7709 18.9036C21.2586 19.0863 21.6952 19.367 22.0808 19.7457C21.956 19.8081 21.8314 19.8706 21.7066 19.9329C22.1839 20.2166 22.1216 20.3724 21.5194 20.4007C21.5194 20.775 21.5194 21.1492 21.5194 21.5235C19.6239 22.3417 17.6278 22.8408 15.5311 23.0206C15.5311 22.9583 15.5311 22.8958 15.5311 22.8335C15.5311 22.584 15.5311 22.3344 15.5311 22.0849C14.0391 22.0524 14.0391 21.9588 15.5311 21.8042C16.6038 21.2804 17.1652 20.4071 17.2153 19.1843C17.1373 18.7169 17.0748 18.249 17.0282 17.7808Z" fill="#BCC0C8"/>
<path fill-rule="evenodd" clip-rule="evenodd" d="M10.4801 12.5411C10.0166 13.7787 9.39286 14.9638 8.60878 16.0966C8.45642 16.5207 8.36285 16.9574 8.32808 17.4066C8.25648 17.5106 8.16291 17.5729 8.04738 17.5937C7.86939 17.8965 7.61989 18.1459 7.29884 18.3422C7.12505 18.5647 7.06268 18.8142 7.11171 19.0908C6.92457 19.0908 6.73744 19.0908 6.5503 19.0908C6.60624 19.4845 6.54386 19.8588 6.36317 20.2136C6.13483 20.4402 5.9165 20.4402 5.7082 20.2136C5.51945 20.499 5.42589 20.8109 5.42749 21.1492C4.97867 21.1943 4.6044 21.0695 4.30469 20.775C4.6044 20.4804 4.97867 20.3556 5.42749 20.4007C5.5895 19.6421 5.80781 18.8935 6.08247 18.1551C6.82704 17.677 7.23248 16.9909 7.29884 16.0966C8.01983 15.9384 8.51886 15.5018 8.79592 14.7867C8.9503 14.6209 9.13744 14.5586 9.35732 14.5995C9.58618 14.2418 9.77332 13.7428 9.91872 13.1025C9.66171 13.1318 9.41219 13.1006 9.17018 13.0089C9.5726 12.7448 10.0092 12.5888 10.4801 12.5411Z" fill="#42549C"/>
<path fill-rule="evenodd" clip-rule="evenodd" d="M16.0936 18.3422C15.8861 18.3529 15.699 18.4152 15.5322 18.5294C15.0182 18.5879 14.5191 18.5256 14.0352 18.3422C14.3063 18.2165 14.5558 18.0917 14.7837 17.968C15.093 17.938 15.3425 17.8134 15.5322 17.5937C15.9731 17.2088 16.1603 16.7097 16.0936 16.0966C16.423 15.4977 16.5791 14.8115 16.5615 14.0381C16.717 15.4147 16.6859 16.787 16.4679 18.1551C16.3401 18.223 16.2153 18.2853 16.0936 18.3422Z" fill="#2B3280"/>
<path fill-rule="evenodd" clip-rule="evenodd" d="M11.2282 13.2896C11.0122 14.499 10.5756 15.6218 9.91822 16.658C10.2373 16.6531 10.518 16.8402 10.7603 17.2194C11.2894 17.2518 11.8197 17.1895 12.351 17.0323C12.903 18.5868 13.9635 19.0859 15.5323 18.5294C15.699 18.4152 15.8861 18.3529 16.0937 18.3422C16.2617 19.2727 15.981 20.0212 15.2516 20.5878C14.5988 20.5996 14.2558 20.9116 14.2223 21.5235C14.6759 21.5812 15.1125 21.5186 15.5323 21.3364C16.749 20.4677 17.1858 19.2826 16.8422 17.7808C16.9045 17.7808 16.967 17.7808 17.0293 17.7808C17.0759 18.249 17.1384 18.7169 17.2165 19.1843C17.1663 20.4071 16.6049 21.2804 15.5323 21.8042C14.0402 21.9588 14.0402 22.0524 15.5323 22.0849C15.5323 22.3344 15.5323 22.584 15.5323 22.8335C14.0384 22.7088 12.5413 22.6465 11.041 22.6463C11.041 22.4592 11.041 22.2721 11.041 22.0849C11.5401 22.0849 12.039 22.0849 12.5381 22.0849C12.5381 21.8978 12.5381 21.7106 12.5381 21.5235C12.7855 21.4917 13.0039 21.554 13.1931 21.7106C13.6832 20.9288 13.465 20.5545 12.5381 20.5878C12.566 20.7847 12.5349 20.9718 12.4445 21.1492C12.3092 20.6232 11.9662 20.1554 11.4153 19.7457C10.7568 19.363 10.133 18.9577 9.54395 18.5294C9.5554 19.0885 9.43064 19.6187 9.16968 20.12C9.16845 20.4591 9.29319 20.7398 9.54395 20.9621C9.20754 21.4706 8.77088 21.8448 8.23401 22.0849C8.10925 22.0849 8.04688 22.0226 8.04688 21.8978C8.33658 21.8377 8.46134 21.6506 8.42114 21.3364C8.42114 21.0869 8.42114 20.8373 8.42114 20.5878C9.09316 18.0578 10.0288 15.625 11.2282 13.2896Z" fill="#B0B7C8"/>
<path fill-rule="evenodd" clip-rule="evenodd" d="M13.1001 13.851C13.0309 15.0534 13.1244 16.2385 13.3808 17.4066C13.7266 17.8821 14.1945 18.0692 14.7843 17.968C14.5564 18.0917 14.3069 18.2165 14.0358 18.3422C14.5197 18.5256 15.0188 18.5879 15.5328 18.5294C13.9641 19.0859 12.9036 18.5868 12.3516 17.0323C12.3516 15.9718 12.3516 14.9114 12.3516 13.851C12.601 13.851 12.8507 13.851 13.1001 13.851Z" fill="#33447C"/>
<path fill-rule="evenodd" clip-rule="evenodd" d="M8.04763 13.1025C7.31178 14.0582 6.53206 14.9939 5.70845 15.9095C5.16299 16.9384 4.57039 17.9365 3.93067 18.9036C3.7082 19.0775 3.45868 19.1398 3.18213 19.0908C3.05737 19.0284 2.93263 18.9659 2.80786 18.9036C2.79338 18.6697 2.66863 18.5138 2.43359 18.4358C2.73653 18.0759 3.0796 17.9824 3.46283 18.1551C3.56355 17.6227 3.75068 17.1236 4.02424 16.658C4.12928 16.7557 4.25404 16.818 4.39851 16.8451C4.97112 16.3032 5.43896 15.6794 5.80201 14.9738C5.76285 14.8641 5.70048 14.7706 5.61488 14.6931C6.20241 14.262 6.76381 13.7941 7.29909 13.2896C7.52156 13.1158 7.77108 13.0534 8.04763 13.1025Z" fill="#364785"/>
<path fill-rule="evenodd" clip-rule="evenodd" d="M13.1002 13.851C13.3212 15.0289 13.6019 16.2141 13.9423 17.4066C14.4511 17.5832 14.9813 17.6455 15.533 17.5937C15.3432 17.8134 15.0938 17.938 14.7844 17.968C14.1946 18.0692 13.7267 17.8821 13.3809 17.4066C13.1245 16.2385 13.031 15.0534 13.1002 13.851Z" fill="#BBC8E6"/>
<path fill-rule="evenodd" clip-rule="evenodd" d="M11.2282 11.9797C11.2282 12.1044 11.2282 12.2292 11.2282 12.3539C10.4005 14.1719 9.55832 15.9809 8.70185 17.7808C8.4064 18.0241 8.18807 17.9616 8.04688 17.5937C8.16241 17.5729 8.25598 17.5106 8.32758 17.4066C8.36235 16.9574 8.45591 16.5207 8.60828 16.0966C9.39235 14.9638 10.0161 13.7787 10.4796 12.5411C10.5563 12.0185 10.806 11.8314 11.2282 11.9797Z" fill="#354697"/>
<path fill-rule="evenodd" clip-rule="evenodd" d="M19.0868 17.7808C20.1082 18.2154 20.8255 17.9034 21.2389 16.8452C21.3322 15.8491 21.3635 14.851 21.3324 13.851C21.5196 13.851 21.7067 13.851 21.8938 13.851C21.8938 15.0986 21.8938 16.3461 21.8938 17.5937C20.9913 18.7172 19.8685 18.9979 18.5254 18.4358C18.0931 18.1295 17.8124 17.7239 17.6833 17.2194C17.5899 16.0983 17.5587 14.9755 17.5897 13.851C17.8121 13.6294 18.0304 13.6294 18.2447 13.851C18.2674 15.1135 18.3922 16.361 18.619 17.5937C18.7445 17.7344 18.9004 17.7969 19.0868 17.7808Z" fill="#282D70"/>
<path fill-rule="evenodd" clip-rule="evenodd" d="M23.3915 13.851C23.5163 13.851 23.5786 13.9134 23.5786 14.0381C23.6396 15.6319 23.5773 17.1913 23.3915 18.7165C23.2043 18.7165 23.0172 18.7165 22.8301 18.7165C22.8301 17.0946 22.8301 15.4728 22.8301 13.851C23.0172 13.851 23.2043 13.851 23.3915 13.851Z" fill="#2A306F"/>
<path fill-rule="evenodd" clip-rule="evenodd" d="M21.5204 11.044C25.0504 12.1987 28.3875 13.7582 31.5321 15.7223C31.657 15.8471 31.657 15.9718 31.5321 16.0966C30.275 16.7311 29.1211 17.5108 28.0702 18.4358C27.8927 18.5262 27.7056 18.5572 27.5087 18.5294C27.5087 18.1551 27.5087 17.7808 27.5087 17.4065C26.3152 17.3682 25.1301 17.4305 23.9532 17.5937C23.9843 16.4692 23.953 15.3463 23.8596 14.2253C23.788 14.1212 23.6944 14.0588 23.5789 14.0381C23.5789 13.9134 23.5166 13.851 23.3918 13.851C23.3618 13.5417 23.2372 13.2922 23.0175 13.1025C22.6519 12.5815 22.184 12.1449 21.614 11.7925C21.5223 11.5505 21.4911 11.301 21.5204 11.044Z" fill="#DBDCE0"/>
<path fill-rule="evenodd" clip-rule="evenodd" d="M10.293 10.1083C10.3223 10.3653 10.2911 10.6148 10.1994 10.8568C9.58872 11.4281 8.99612 12.0207 8.42166 12.6346C8.53289 12.7215 8.65765 12.7527 8.79593 12.7282C8.64865 13.0284 8.39915 13.1532 8.04739 13.1025C7.77084 13.0534 7.52132 13.1158 7.29885 13.2896C6.76357 13.7941 6.20217 14.262 5.61464 14.6931C5.70024 14.7706 5.76261 14.8641 5.80177 14.9738C5.43872 15.6794 4.97088 16.3032 4.39827 16.8451C4.2538 16.8181 4.12904 16.7557 4.024 16.658C3.75044 17.1236 3.56331 17.6227 3.46259 18.1551C3.07936 17.9824 2.73629 18.0759 2.43335 18.4358C2.66839 18.5138 2.79314 18.6697 2.80762 18.9036C2.27586 18.6066 1.77683 18.2636 1.31055 17.8744C1.51815 17.4913 1.64292 17.086 1.68482 16.658C1.97452 16.5979 2.09928 16.4108 2.05908 16.0966C2.24622 16.0966 2.43335 16.0966 2.62049 16.0966C2.59251 15.8997 2.62371 15.7126 2.71406 15.5352C3.52714 14.8156 4.30685 14.067 5.05324 13.2896C5.79474 13.2068 6.4809 12.9885 7.11172 12.6346C7.47674 12.3101 7.66388 11.9046 7.67312 11.4182C8.67062 11.1922 9.54392 10.7555 10.293 10.1083Z" fill="#475B99"/>
<path fill-rule="evenodd" clip-rule="evenodd" d="M23.0177 13.1025C23.2374 13.2922 23.362 13.5417 23.392 13.851C23.2048 13.851 23.0177 13.851 22.8306 13.851C22.8306 15.4728 22.8306 17.0946 22.8306 18.7165C22.6792 18.3812 22.5856 18.0069 22.5499 17.5937C22.3094 17.5754 22.0912 17.5754 21.8949 17.5937C21.8949 16.3461 21.8949 15.0986 21.8949 13.851C21.7078 13.851 21.5206 13.851 21.3335 13.851C21.3646 14.851 21.3333 15.8491 21.2399 16.8452C20.8266 17.9034 20.1093 18.2154 19.0879 17.7808C19.4672 17.8111 19.8415 17.7799 20.2107 17.6873C20.3673 17.4981 20.4296 17.2797 20.3978 17.0323C20.0041 17.0882 19.6298 17.0259 19.275 16.8452C19.715 16.5216 20.2141 16.3969 20.7721 16.4709C20.7367 15.3892 20.8616 14.3287 21.1464 13.2896C21.2087 13.2272 21.2712 13.1648 21.3335 13.1025C21.6346 13.3623 21.9776 13.5494 22.3627 13.6639C22.67 13.5745 22.8884 13.3873 23.0177 13.1025Z" fill="#BBBFDB"/>
<path fill-rule="evenodd" clip-rule="evenodd" d="M9.54386 9.73405C10.7464 9.61802 11.8692 9.74278 12.9123 10.1083C12.6271 10.2344 12.3775 10.4215 12.1637 10.6697C11.6461 10.1751 11.0224 9.98801 10.2924 10.1083C9.54332 10.7555 8.67002 11.1922 7.67251 11.4183C7.66327 11.9046 7.47614 12.3101 7.11111 12.6346C6.4803 12.9885 5.79413 13.2068 5.05263 13.2896C4.30625 14.0671 3.52653 14.8156 2.71345 15.5352C2.6231 15.7126 2.59191 15.8998 2.61988 16.0966C2.43275 16.0966 2.24561 16.0966 2.05848 16.0966C2.09868 16.4108 1.97391 16.5979 1.68421 16.658C0.904234 16.2832 0.34283 15.6906 0 14.8802C0.901146 13.5575 2.08633 12.5907 3.55556 11.9797C4.46653 11.6922 5.33983 11.318 6.17544 10.8569C7.23359 11.4607 7.98213 11.2112 8.42105 10.1083C8.90425 10.1971 9.27852 10.0724 9.54386 9.73405Z" fill="#475BA1"/>
<path fill-rule="evenodd" clip-rule="evenodd" d="M11.2284 11.9796C10.8062 11.8314 10.5566 12.0185 10.4799 12.5411C10.009 12.5888 9.57236 12.7448 9.16994 13.0089C9.41195 13.1006 9.66147 13.1318 9.91848 13.1025C9.77308 13.7428 9.58594 14.2418 9.35708 14.5995C9.1372 14.5585 8.95006 14.6209 8.79568 14.7867C8.51862 15.5018 8.01959 15.9384 7.2986 16.0966C7.23224 16.9909 6.8268 17.677 6.08223 18.1551C5.80757 18.8935 5.58926 19.6421 5.42725 20.4007C4.97843 20.3556 4.60416 20.4804 4.30445 20.775C3.91772 20.769 3.66821 20.5818 3.55591 20.2136C3.65814 19.9076 3.72051 19.5958 3.74304 19.2779C3.50145 19.3222 3.31432 19.2599 3.18164 19.0908C3.45819 19.1398 3.70771 19.0775 3.93018 18.9036C4.5699 17.9365 5.1625 16.9384 5.70796 15.9095C6.53157 14.9939 7.31129 14.0582 8.04714 13.1025C8.39889 13.1532 8.6484 13.0284 8.79568 12.7282C9.38461 12.0115 10.1019 11.4501 10.9477 11.044C11.0413 11.1063 11.1349 11.1687 11.2284 11.2311C11.0669 11.4606 11.0669 11.7101 11.2284 11.9796Z" fill="#5064AA"/>
<path fill-rule="evenodd" clip-rule="evenodd" d="M10.2932 10.1083C11.0232 9.988 11.647 10.1751 12.1646 10.6697C12.3783 10.4215 12.6279 10.2344 12.9131 10.1083C12.3384 11.0605 11.8393 12.0585 11.416 13.1025C11.3537 13.1025 11.2912 13.1025 11.2289 13.1025C11.2289 12.853 11.2289 12.6034 11.2289 12.3539C11.2289 12.2292 11.2289 12.1044 11.2289 11.9797C11.0674 11.7101 11.0674 11.4606 11.2289 11.2311C11.1353 11.1687 11.0418 11.1064 10.9482 11.044C10.1024 11.4501 9.38508 12.0115 8.79614 12.7282C8.65787 12.7527 8.53311 12.7215 8.42188 12.6346C8.99634 12.0207 9.58894 11.4281 10.1997 10.8568C10.2913 10.6148 10.3225 10.3653 10.2932 10.1083Z" fill="#3A4987"/>
<path fill-rule="evenodd" clip-rule="evenodd" d="M16.2805 13.6639C16.1054 14.4564 16.0431 15.2673 16.0934 16.0966C16.16 16.7097 15.9729 17.2088 15.532 17.5937C14.9803 17.6455 14.4502 17.5832 13.9414 17.4066C13.601 16.2141 13.3203 15.0289 13.0993 13.851C12.8498 13.851 12.6002 13.851 12.3507 13.851C12.3507 14.9114 12.3507 15.9719 12.3507 17.0323C11.8194 17.1895 11.2891 17.2518 10.7601 17.2194C10.5177 16.8403 10.2371 16.6531 9.91797 16.658C10.5754 15.6218 11.012 14.499 11.2279 13.2896C11.2279 13.2272 11.2279 13.1648 11.2279 13.1025C11.2902 13.1025 11.3527 13.1025 11.415 13.1025C11.6022 13.1025 11.7893 13.1025 11.9764 13.1025C12.0818 12.5647 12.2689 12.0657 12.5379 11.6054C13.4494 11.5338 13.8237 11.0348 13.6607 10.1083C14.1747 10.0497 14.6738 10.1121 15.1577 10.2954C14.6435 10.8869 14.394 11.5731 14.4092 12.3539C14.7835 12.3539 15.1577 12.3539 15.532 12.3539C15.4721 11.718 15.5344 11.0942 15.7191 10.4826C16.129 10.8613 16.5655 11.2044 17.0291 11.5118C16.8524 12.0207 16.7901 12.5509 16.8419 13.1025C16.6548 13.1025 16.4677 13.1025 16.2805 13.1025C16.2805 13.2896 16.2805 13.4767 16.2805 13.6639Z" fill="#C8CCD4"/>
<path fill-rule="evenodd" clip-rule="evenodd" d="M9.54299 9.54691C9.54299 9.60928 9.54299 9.67167 9.54299 9.73404C9.27765 10.0724 8.90338 10.1971 8.42018 10.1083C7.98126 11.2112 7.23272 11.4607 6.17457 10.8568C5.33896 11.318 4.46566 11.6922 3.55469 11.9797C5.27971 10.5915 7.27582 9.78058 9.54299 9.54691Z" fill="#5566A4"/>
<path fill-rule="evenodd" clip-rule="evenodd" d="M15.5312 9.54691C17.635 9.69858 19.6312 10.1976 21.5196 11.044C21.4902 11.301 21.5214 11.5505 21.6131 11.7925C22.1831 12.1449 22.651 12.5816 23.0166 13.1025C22.8873 13.3873 22.6689 13.5745 22.3617 13.6639C21.9765 13.5494 21.6335 13.3623 21.3324 13.1025C21.2701 13.1648 21.2076 13.2272 21.1453 13.2896C20.8605 14.3287 20.7356 15.3892 20.771 16.4709C20.213 16.3969 19.7139 16.5216 19.2739 16.8452C19.6287 17.0259 20.003 17.0882 20.3967 17.0323C20.4286 17.2797 20.3662 17.4981 20.2096 17.6873C19.8404 17.7799 19.4661 17.8111 19.0868 17.7808C18.9004 17.7969 18.7445 17.7344 18.619 17.5937C18.3922 16.361 18.2673 15.1135 18.2447 13.851C18.0304 13.6294 17.812 13.6294 17.5897 13.851C17.1384 13.8147 16.9512 13.5652 17.0283 13.1025C17.2155 13.1025 17.4026 13.1025 17.5897 13.1025C17.5379 12.5509 17.6002 12.0207 17.7769 11.5118C17.0152 11.0081 16.2667 10.5091 15.5312 10.0147C15.8432 9.95237 16.155 9.88998 16.4669 9.82761C16.1147 9.79054 15.803 9.69697 15.5312 9.54691Z" fill="#D1D2D9"/>
<path fill-rule="evenodd" clip-rule="evenodd" d="M10.666 9.35977C11.2553 9.23531 11.879 9.17294 12.5374 9.17264C13.581 9.14798 14.579 9.27274 15.5315 9.54691C15.8032 9.69697 16.115 9.79054 16.4672 9.82761C16.1552 9.88998 15.8435 9.95237 15.5315 10.0147C16.267 10.5091 17.0155 11.0081 17.7771 11.5118C17.6005 12.0207 17.5382 12.5509 17.59 13.1025C17.4029 13.1025 17.2157 13.1025 17.0286 13.1025C16.9515 13.5652 17.1386 13.8147 17.59 13.851C17.5589 14.9755 17.5902 16.0983 17.6836 17.2194C17.8127 17.7239 18.0934 18.1295 18.5257 18.4358C19.8687 18.9979 20.9915 18.7172 21.8941 17.5937C22.0904 17.5754 22.3086 17.5754 22.5491 17.5937C22.5848 18.0069 22.6784 18.3812 22.8298 18.7165C23.0169 18.7165 23.204 18.7165 23.3912 18.7165C23.1943 19.0451 22.8823 19.1699 22.4555 19.0908C22.5152 18.6697 22.4216 18.2954 22.1748 17.968C21.8756 18.5541 21.4077 18.866 20.7713 18.9036C20.0164 18.9046 19.2678 18.9669 18.5257 19.0908C18.5782 20.0386 18.5159 20.9743 18.3385 21.8978C17.9147 22.1124 17.4781 22.1437 17.0286 21.9914C17.2442 21.5892 17.5249 21.2462 17.8707 20.9621C17.9412 20.3036 18.0348 19.6486 18.1514 18.9972C18.1224 18.2515 17.7481 17.8459 17.0286 17.7808C16.9663 17.7808 16.9038 17.7808 16.8415 17.7808C16.8725 16.4694 16.8415 15.1595 16.7479 13.851C16.6223 13.7102 16.4664 13.6478 16.2801 13.6639C16.2801 13.4767 16.2801 13.2896 16.2801 13.1025C16.4672 13.1025 16.6543 13.1025 16.8415 13.1025C16.7896 12.5509 16.8519 12.0207 17.0286 11.5118C16.5651 11.2044 16.1285 10.8613 15.7186 10.4826C15.5339 11.0942 15.4716 11.718 15.5315 12.3539C15.1572 12.3539 14.783 12.3539 14.4087 12.3539C14.3935 11.5731 14.643 10.8869 15.1572 10.2954C14.6733 10.1121 14.1742 10.0497 13.6602 10.1083C13.8232 11.0348 13.4489 11.5338 12.5374 11.6054C12.2684 12.0657 12.0813 12.5647 11.976 13.1025C11.7888 13.1025 11.6017 13.1025 11.4146 13.1025C11.8379 12.0586 12.3369 11.0605 12.9116 10.1083C13.1572 9.98759 13.3443 9.80046 13.473 9.54691C12.5456 9.36088 11.6099 9.29849 10.666 9.35977Z" fill="#C4C7D8"/>
<path fill-rule="evenodd" clip-rule="evenodd" d="M10.6658 9.35978C11.6097 9.29849 12.5454 9.36088 13.4728 9.54691C13.344 9.80046 13.1569 9.98759 12.9114 10.1083C11.8683 9.74278 10.7455 9.61802 9.54297 9.73404C9.54297 9.67167 9.54297 9.60928 9.54297 9.54691C9.87319 9.367 10.2475 9.30463 10.6658 9.35978Z" fill="#384378"/>
</svg>
