<svg xmlns="http://www.w3.org/2000/svg" width="500" height="136" viewBox="0 0 500 136">
<g>
<path d="M 273.00 136.00 L 250.50 136.00 L 249.96 33.00 L 269.75 33.00 L 270.32 35.85 C270.63,37.41 271.20,42.14 271.58,46.35 C272.32,54.46 273.37,56.11 274.40,50.75 C274.74,48.96 276.37,45.14 278.02,42.26 C283.41,32.86 295.05,28.42 307.49,31.00 C312.31,32.00 314.09,33.02 318.49,37.35 C324.76,43.50 327.41,49.85 329.15,62.91 C331.26,78.73 327.82,95.83 320.66,105.23 C316.58,110.57 309.42,114.27 302.12,114.80 C289.96,115.68 282.05,111.03 276.58,99.79 L 273.03 92.50 L 273.02 114.25 L 273.00 136.00 ZM 423.24 112.49 C416.53,114.87 402.82,115.37 396.10,113.48 C379.17,108.73 369.60,97.42 366.79,78.84 C364.64,64.58 369.44,48.35 378.14,40.49 C388.89,30.78 407.78,27.52 423.49,32.68 C431.09,35.18 439.07,43.62 441.75,52.01 C444.14,59.49 445.27,69.47 444.37,75.10 L 443.74 79.00 L 389.75 79.00 L 390.39 82.25 C391.93,90.15 399.82,95.37 409.26,94.75 C415.86,94.32 419.72,92.04 422.00,87.21 C422.83,85.47 424.06,84.03 424.74,84.02 C426.30,83.99 441.08,87.99 442.73,88.89 C443.65,89.39 443.23,91.12 441.13,95.55 C437.70,102.81 429.99,110.11 423.24,112.49 ZM 203.69 111.56 C199.80,113.38 196.88,113.96 192.00,113.91 C174.37,113.73 164.44,101.63 167.98,84.62 C171.01,70.02 180.78,65.00 206.18,65.00 L 218.00 65.00 L 218.00 62.03 C218.00,57.86 215.16,52.39 212.31,51.10 C208.86,49.53 201.40,49.74 197.97,51.52 C195.02,53.04 192.00,57.56 192.00,60.45 C192.00,62.31 189.71,62.34 178.50,60.68 L 170.50 59.50 L 170.72 55.78 C171.20,47.46 178.45,37.97 187.50,33.80 C191.96,31.75 194.00,31.50 206.50,31.50 C220.07,31.50 220.68,31.59 226.42,34.50 C230.26,36.45 233.35,38.93 235.21,41.56 C240.33,48.80 240.98,53.64 240.99,84.79 L 241.00 113.07 L 231.25 112.79 L 221.50 112.50 L 220.08 103.25 C219.29,98.16 218.37,94.00 218.03,94.00 C217.68,94.00 216.85,95.52 216.18,97.38 C213.93,103.60 209.16,109.01 203.69,111.56 ZM 162.79 102.77 L 162.50 112.50 L 126.43 112.76 C106.59,112.91 90.05,112.72 89.68,112.35 C89.31,111.97 89.00,107.50 89.00,102.42 L 89.00 93.17 L 133.02 52.50 L 112.01 52.23 L 91.00 51.96 L 91.00 32.00 L 162.07 32.00 L 161.78 42.21 L 161.50 52.43 L 139.69 72.46 L 117.89 92.50 L 140.48 92.77 L 163.07 93.04 ZM 500.00 31.88 L 500.00 56.00 L 491.75 56.01 C482.23,56.03 479.41,57.14 476.55,62.00 C474.67,65.22 474.47,67.43 474.17,89.28 L 473.84 113.06 L 462.67 112.78 L 451.50 112.50 L 451.24 72.25 L 450.98 32.00 L 470.75 32.00 L 471.41 35.25 C471.78,37.04 472.35,41.99 472.69,46.25 C473.33,54.44 474.49,56.23 475.54,50.64 C475.89,48.79 477.44,45.05 479.00,42.32 C482.24,36.66 487.55,33.43 495.25,32.47 L 500.00 31.88 ZM 359.76 72.22 L 359.50 112.50 L 348.23 112.78 C339.76,113.00 336.84,112.75 336.47,111.78 C336.20,111.07 336.09,92.95 336.24,71.50 L 336.50 32.50 L 348.26 32.22 L 360.02 31.94 ZM 282.41 92.11 C286.63,94.68 294.28,94.61 298.56,91.96 C303.88,88.68 306.48,82.13 306.48,72.00 C306.48,64.80 306.10,62.81 303.99,59.00 C299.62,51.14 290.72,48.81 282.02,53.25 C276.64,56.00 274.02,60.67 273.28,68.87 C272.30,79.61 275.58,87.94 282.41,92.11 ZM 0.00 0.00 L 500.00 0.00 L 425.25 0.14 C384.14,0.21 351.49,0.46 352.70,0.70 C353.91,0.93 356.28,2.69 357.95,4.60 C360.39,7.37 361.00,8.98 361.00,12.58 C361.00,21.01 356.10,26.33 348.34,26.33 C343.52,26.33 337.51,22.46 335.94,18.34 C333.47,11.85 336.41,4.03 342.27,1.48 C345.06,0.27 321.96,0.07 172.75,0.04 L 0.00 0.00 ZM 390.00 61.75 C390.00,62.70 393.96,63.00 406.50,63.00 C417.25,63.00 423.00,62.64 423.00,61.96 C423.00,59.85 418.96,53.08 416.79,51.57 C413.38,49.18 401.43,49.44 397.24,51.99 C394.01,53.97 390.01,59.35 390.00,61.75 ZM 195.01 94.30 C197.49,95.59 199.75,95.95 202.83,95.56 C211.43,94.48 216.32,90.66 217.66,83.96 L 218.26 80.94 L 205.42 81.22 C192.65,81.50 192.56,81.52 191.07,84.18 C188.97,87.93 190.55,92.00 195.01,94.30 Z" fill="rgb(32,22,21)"/>
<path d="M 472.11 40.29 C472.29,41.54 472.46,42.84 472.60,44.00 C473.42,50.79 474.58,53.44 475.47,50.50 C475.54,50.27 475.66,49.94 475.82,49.53 C475.70,49.94 475.60,50.32 475.54,50.64 C474.49,56.23 473.33,54.44 472.69,46.25 C472.53,44.28 472.33,42.17 472.11,40.29 ZM 271.05 41.18 C271.24,42.68 271.43,44.29 271.59,45.75 C271.96,49.19 272.54,51.99 272.88,51.97 C273.10,51.95 273.98,50.55 275.10,48.46 C274.76,49.37 274.51,50.17 274.40,50.75 C273.37,56.11 272.32,54.46 271.58,46.35 C271.43,44.63 271.24,42.82 271.05,41.18 ZM 342.27 1.48 C336.41,4.03 333.47,11.85 335.94,18.34 C333.70,12.46 335.63,5.93 340.72,2.14 L 342.09 1.11 C342.57,1.22 342.58,1.35 342.27,1.48 ZM 353.84 0.61 L 355.60 2.37 C354.49,1.48 353.40,0.84 352.70,0.70 C352.55,0.67 352.95,0.64 353.84,0.61 ZM 279.57 39.91 C280.90,37.84 282.20,36.63 284.37,35.23 C282.55,36.55 280.93,38.12 279.57,39.91 ZM 359.11 6.02 C360.72,7.97 361.00,9.33 361.00,12.43 L 361.00 12.50 C360.99,9.60 360.58,8.00 359.11,6.02 ZM 295.29 30.72 C299.14,30.01 303.19,30.11 307.49,31.00 C303.26,30.12 299.12,30.05 295.29,30.72 ZM 487.76 34.44 C489.94,33.46 492.43,32.80 495.25,32.46 L 500.00 31.88 L 495.25 32.47 C492.44,32.82 489.95,33.47 487.76,34.44 ZM 358.11 22.00 C355.92,24.78 352.56,26.33 348.34,26.33 C352.55,26.33 355.91,24.77 358.11,22.00 ZM 269.98 34.13 L 269.75 33.00 L 269.78 33.00 ZM 470.96 33.03 L 470.75 32.00 L 470.78 32.00 Z" fill="rgb(175,168,166)"/>
<path d="M 0.00 113.00 L 0.00 93.00 L 80.00 93.00 L 80.00 113.00 Z" fill="rgb(250,81,5)"/>
<path d="M 0.00 124.50 L 0.00 113.00 L 40.00 113.00 L 80.00 113.00 L 80.00 103.00 L 80.00 93.00 L 40.00 93.00 L 0.00 93.00 L 0.00 46.50 L 0.00 0.00 L 171.75 0.03 L 343.50 0.06 L 340.72 2.14 C335.63,5.93 333.70,12.46 335.94,18.34 C337.51,22.46 343.52,26.33 348.34,26.33 C356.16,26.33 361.00,21.02 361.00,12.43 C361.00,8.34 360.52,7.28 357.12,3.88 L 353.24 -0.00 L 426.62 -0.00 L 500.00 0.00 L 500.00 15.94 L 500.00 31.88 L 495.25 32.46 C487.30,33.43 481.97,36.87 478.81,43.09 C477.30,46.07 475.80,49.40 475.47,50.50 C474.58,53.44 473.42,50.79 472.60,44.00 C472.23,40.97 471.67,37.04 471.35,35.25 L 470.78 32.00 L 460.88 32.00 L 450.98 32.00 L 451.24 72.25 L 451.50 112.50 L 462.67 112.78 L 473.84 113.06 L 474.17 89.28 C474.47,67.43 474.67,65.22 476.55,62.00 C479.41,57.14 482.23,56.03 491.75,56.01 L 500.00 56.00 L 500.00 96.00 L 500.00 136.00 L 386.50 136.00 L 273.00 136.00 L 273.02 114.25 L 273.03 92.50 L 276.58 99.79 C282.05,111.03 289.96,115.68 302.12,114.80 C309.42,114.27 316.58,110.57 320.66,105.23 C327.82,95.83 331.26,78.73 329.15,62.91 C327.41,49.85 324.76,43.50 318.49,37.35 C314.09,33.02 312.31,32.00 307.49,31.00 C299.51,29.34 292.36,30.44 285.86,34.31 C281.22,37.07 280.03,38.47 277.00,44.72 C275.08,48.69 273.22,51.95 272.88,51.97 C272.54,51.99 271.96,49.19 271.59,45.75 C271.22,42.31 270.66,38.04 270.35,36.25 L 269.78 33.00 L 259.87 33.00 L 249.96 33.00 L 250.23 84.50 L 250.50 136.00 L 125.25 136.00 L 0.00 136.00 L 0.00 124.50 ZM 423.24 112.49 C429.99,110.11 437.70,102.81 441.13,95.55 C443.23,91.12 443.65,89.39 442.73,88.89 C441.08,87.99 426.30,83.99 424.74,84.02 C424.06,84.03 422.83,85.47 422.00,87.21 C419.72,92.04 415.86,94.32 409.26,94.75 C399.82,95.37 391.93,90.15 390.39,82.25 L 389.75 79.00 L 416.75 79.00 L 443.74 79.00 L 444.37 75.10 C445.27,69.47 444.14,59.49 441.75,52.01 C439.07,43.62 431.09,35.18 423.49,32.68 C407.78,27.52 388.89,30.78 378.14,40.49 C369.44,48.35 364.64,64.58 366.79,78.84 C369.60,97.42 379.17,108.73 396.10,113.48 C402.82,115.37 416.53,114.87 423.24,112.49 ZM 203.69 111.56 C209.16,109.01 213.93,103.60 216.18,97.38 C216.85,95.52 217.68,94.00 218.03,94.00 C218.37,94.00 219.29,98.16 220.08,103.25 L 221.50 112.50 L 231.25 112.79 L 241.00 113.07 L 240.99 84.79 C240.98,53.64 240.33,48.80 235.21,41.56 C233.35,38.93 230.26,36.45 226.42,34.50 C220.68,31.59 220.07,31.50 206.50,31.50 C194.00,31.50 191.96,31.75 187.50,33.80 C178.45,37.97 171.20,47.46 170.72,55.78 L 170.50 59.50 L 178.50 60.68 C189.71,62.34 192.00,62.31 192.00,60.45 C192.00,57.56 195.02,53.04 197.97,51.52 C201.40,49.74 208.86,49.53 212.31,51.10 C215.16,52.39 218.00,57.86 218.00,62.03 L 218.00 65.00 L 206.18 65.00 C180.78,65.00 171.01,70.02 167.98,84.62 C164.44,101.63 174.37,113.73 192.00,113.91 C196.88,113.96 199.80,113.38 203.69,111.56 ZM 162.79 102.77 L 163.07 93.04 L 140.48 92.77 L 117.89 92.50 L 139.69 72.46 L 161.50 52.43 L 161.78 42.21 L 162.07 32.00 L 126.53 32.00 L 91.00 32.00 L 91.00 41.98 L 91.00 51.96 L 112.01 52.23 L 133.02 52.50 L 111.01 72.83 L 89.00 93.17 L 89.00 102.42 C89.00,107.50 89.31,111.97 89.68,112.35 C90.05,112.72 106.59,112.91 126.43,112.76 L 162.50 112.50 L 162.79 102.77 ZM 359.76 72.22 L 360.02 31.94 L 348.26 32.22 L 336.50 32.50 L 336.24 71.50 C336.09,92.95 336.20,111.07 336.47,111.78 C336.84,112.75 339.76,113.00 348.23,112.78 L 359.50 112.50 L 359.76 72.22 ZM 282.41 92.11 C275.58,87.94 272.30,79.61 273.28,68.87 C274.02,60.67 276.64,56.00 282.02,53.25 C290.72,48.81 299.62,51.14 303.99,59.00 C306.10,62.81 306.48,64.80 306.48,72.00 C306.48,82.13 303.88,88.68 298.56,91.96 C294.28,94.61 286.63,94.68 282.41,92.11 ZM 390.00 61.75 C390.01,59.35 394.01,53.97 397.24,51.99 C401.43,49.44 413.38,49.18 416.79,51.57 C418.96,53.08 423.00,59.85 423.00,61.96 C423.00,62.64 417.25,63.00 406.50,63.00 C393.96,63.00 390.00,62.70 390.00,61.75 ZM 195.01 94.30 C190.55,92.00 188.97,87.93 191.07,84.18 C192.56,81.52 192.65,81.50 205.42,81.22 L 218.26 80.94 L 217.66 83.96 C216.32,90.66 211.43,94.48 202.83,95.56 C199.75,95.95 197.49,95.59 195.01,94.30 Z" fill="rgb(254,254,253)"/>
</g>
</svg>