<svg width="32" height="32" viewBox="0 0 32 32" fill="none" xmlns="http://www.w3.org/2000/svg">
<path opacity="0.927" fill-rule="evenodd" clip-rule="evenodd" d="M8.50359 0C10.466 0 12.4284 0 14.3908 0C16.3061 0.842668 18.2685 1.696 20.2781 2.56C21.1886 3.87663 21.6248 5.36996 21.5864 7.04C21.6773 8.5648 21.2412 9.8448 20.2781 10.88C14.9425 10.3492 9.4914 10.0292 3.92462 9.92C3.23504 5.65594 4.76136 2.34927 8.50359 0Z" fill="#4A98B2"/>
<path opacity="0.955" fill-rule="evenodd" clip-rule="evenodd" d="M20.277 2.56C24.3067 3.47824 27.9045 5.18491 31.0703 7.68C32.409 10.8241 32.3 13.9175 30.7432 16.96C26.8244 17.2797 22.8996 17.3864 18.9688 17.28C18.9992 15.0601 19.4353 12.9267 20.277 10.88C21.2401 9.8448 21.6762 8.5648 21.5853 7.04C21.6237 5.36996 21.1876 3.87662 20.277 2.56Z" fill="#5FA7C0"/>
<path opacity="0.933" fill-rule="evenodd" clip-rule="evenodd" d="M11.7745 20.48C11.3706 20.5509 11.0436 20.7642 10.7933 21.12C10.036 24.1962 10.5811 26.9696 12.4286 29.44C9.14826 28.3342 5.87756 27.1609 2.61655 25.92C1.58939 25.0261 0.717206 24.0661 0 23.04C0 20.9067 0 18.7733 0 16.64C0.564928 15.8795 1.21907 15.1329 1.96242 14.4C5.45115 13.9733 8.93991 13.9733 12.4286 14.4C12.794 14.8638 13.012 15.3972 13.0828 16C12.6423 17.5047 12.2062 18.998 11.7745 20.48Z" fill="#5FA7C0"/>
<path opacity="0.959" fill-rule="evenodd" clip-rule="evenodd" d="M11.7763 20.48C11.8487 20.8751 12.0667 21.1951 12.4304 21.44C17.824 21.5569 23.1662 21.8769 28.4568 22.4C28.6123 26.7679 26.7589 29.9679 22.8966 32C21.3703 32 19.844 32 18.3177 32C16.5117 30.9088 14.5493 30.0555 12.4304 29.44C10.583 26.9695 10.0378 24.1961 10.7951 21.12C11.0454 20.7641 11.3724 20.5508 11.7763 20.48Z" fill="#4998B2"/>
</svg>
