<svg width="32" height="32" viewBox="0 0 32 32" fill="none" xmlns="http://www.w3.org/2000/svg">
    <g clip-path="url(#clip0_2488_45)">
        <path fill-rule="evenodd" clip-rule="evenodd"
            d="M-0.0710449 -0.071167C10.5956 -0.071167 21.2623 -0.071167 31.929 -0.071167C31.929 10.5955 31.929 21.2622 31.929 31.9288C21.2623 31.9288 10.5956 31.9288 -0.0710449 31.9288C-0.0710449 21.2622 -0.0710449 10.5955 -0.0710449 -0.071167Z"
            fill="#067CFF" />
        <path fill-rule="evenodd" clip-rule="evenodd"
            d="M11.4489 7.60886C12.073 7.52969 12.5234 7.76672 12.8 8.31997C12.8948 9.07849 12.8948 9.83702 12.8 10.5955C12.0681 11.5778 11.4044 11.5304 10.8089 10.4533C10.7141 9.7422 10.7141 9.03109 10.8089 8.31997C10.9547 8.00893 11.168 7.77191 11.4489 7.60886Z"
            fill="#F4F8FF" />
        <path fill-rule="evenodd" clip-rule="evenodd"
            d="M19.5555 7.60893C20.2353 7.48675 20.7331 7.72377 21.0488 8.32004C21.1437 9.03115 21.1437 9.74226 21.0488 10.4534C20.4533 11.5304 19.7896 11.5778 19.0577 10.5956C18.9629 9.83708 18.9629 9.07855 19.0577 8.32004C19.1995 8.06075 19.3655 7.82373 19.5555 7.60893Z"
            fill="#F4F8FF" />
        <path fill-rule="evenodd" clip-rule="evenodd"
            d="M18.5601 10.5956C18.4208 10.1512 18.3733 9.67709 18.4179 9.17335C16.7585 9.17335 15.0994 9.17335 13.4401 9.17335C13.4846 9.67709 13.4371 10.1512 13.2979 10.5956C13.2979 10.0741 13.2979 9.55261 13.2979 9.03113C15.0519 9.03113 16.806 9.03113 18.5601 9.03113C18.5601 9.55261 18.5601 10.0741 18.5601 10.5956Z"
            fill="#C6DCFF" />
        <path fill-rule="evenodd" clip-rule="evenodd"
            d="M8.32011 9.17334C8.9364 9.17334 9.55271 9.17334 10.169 9.17334C10.1249 9.63031 10.1723 10.057 10.3112 10.4533C10.4342 11.3108 10.932 11.7375 11.8046 11.7333C12.6125 11.7545 13.1102 11.3752 13.2979 10.5956C13.4372 10.1511 13.4846 9.67708 13.4401 9.17334C15.0994 9.17334 16.7586 9.17334 18.4179 9.17334C18.3734 9.67708 18.4209 10.1511 18.5601 10.5956C18.7477 11.3752 19.2455 11.7545 20.0534 11.7333C20.926 11.7375 21.4238 11.3108 21.5468 10.4533C21.6857 10.057 21.7331 9.63031 21.689 9.17334C22.3053 9.17334 22.9216 9.17334 23.5379 9.17334C23.7536 9.17485 23.9196 9.26965 24.0357 9.45778C24.1305 14.246 24.1305 19.034 24.0357 23.8222C23.9172 23.9407 23.7986 24.0593 23.6801 24.1778C18.5128 24.2726 13.3453 24.2726 8.17789 24.1778C8.05938 24.0593 7.94085 23.9407 7.82234 23.8222C7.72752 19.034 7.72752 14.246 7.82234 9.45778C7.93837 9.26965 8.10431 9.17485 8.32011 9.17334Z"
            fill="#FEFEFF" />
        <path fill-rule="evenodd" clip-rule="evenodd"
            d="M8.32007 9.1733C8.9558 9.03306 9.61951 8.98564 10.3112 9.03108C10.3112 9.50515 10.3112 9.97923 10.3112 10.4533C10.1723 10.0569 10.1249 9.63028 10.169 9.1733C9.55267 9.1733 8.93636 9.1733 8.32007 9.1733Z"
            fill="#BED8FF" />
        <path fill-rule="evenodd" clip-rule="evenodd"
            d="M23.5377 9.1733C22.9215 9.1733 22.3051 9.1733 21.6889 9.1733C21.7329 9.63028 21.6856 10.0569 21.5466 10.4533C21.5466 9.97923 21.5466 9.50515 21.5466 9.03108C22.2383 8.98564 22.902 9.03306 23.5377 9.1733Z"
            fill="#BED8FF" />
        <path fill-rule="evenodd" clip-rule="evenodd"
            d="M12.5867 13.5822C13.8229 13.5351 15.0555 13.5825 16.2844 13.7244C15.8382 14.4314 15.364 15.1188 14.8622 15.7866C14.1052 15.8576 13.3467 15.8814 12.5867 15.8578C12.5867 15.0993 12.5867 14.3407 12.5867 13.5822Z"
            fill="#0B7BFF" />
        <path fill-rule="evenodd" clip-rule="evenodd"
            d="M17.1377 13.5823C17.9436 13.5823 18.7495 13.5823 19.5554 13.5823C19.5913 13.9833 19.5202 14.3625 19.3421 14.7201C17.825 16.9956 16.3081 19.2712 14.791 21.5467C13.9269 21.6855 13.0499 21.733 12.1599 21.6889C12.1368 21.4007 12.1605 21.1162 12.231 20.8356C13.898 18.4348 15.5335 16.017 17.1377 13.5823Z"
            fill="#107CFF" />
        <path fill-rule="evenodd" clip-rule="evenodd"
            d="M16.9956 19.4133C17.8489 19.4133 18.7023 19.4133 19.5556 19.4133C19.5556 20.1718 19.5556 20.9304 19.5556 21.6889C18.18 21.7125 16.8052 21.6889 15.4312 21.6178C15.9732 20.8859 16.4947 20.1512 16.9956 19.4133Z"
            fill="#0B7CFF" />
        <path fill-rule="evenodd" clip-rule="evenodd"
            d="M16.9956 19.4133C17.8696 19.2725 18.7703 19.2252 19.6978 19.2711C19.7436 20.1043 19.6963 20.9102 19.5556 21.6889C19.5556 20.9304 19.5556 20.1718 19.5556 19.4133C18.7023 19.4133 17.8489 19.4133 16.9956 19.4133Z"
            fill="#8BBAFF" />
    </g>
    <defs>
        <clipPath id="clip0_2488_45">
            <rect width="32" height="32" fill="white" />
        </clipPath>
    </defs>
</svg>