<svg width="32" height="32" viewBox="0 0 33 33" fill="none" xmlns="http://www.w3.org/2000/svg">
    <path fill-rule="evenodd" clip-rule="evenodd"
        d="M0.5 0.5C11.1667 0.5 21.8333 0.5 32.5 0.5C32.5 11.1667 32.5 21.8333 32.5 32.5C21.8333 32.5 11.1667 32.5 0.5 32.5C0.5 21.8333 0.5 11.1667 0.5 0.5Z"
        fill="#797979" />
    <path fill-rule="evenodd" clip-rule="evenodd"
        d="M0.69165 0.691406C11.2306 0.691406 21.7695 0.691406 32.3084 0.691406C32.3084 11.2303 32.3084 21.7692 32.3084 32.3082C21.7695 32.3082 11.2306 32.3082 0.69165 32.3082C0.69165 21.7692 0.69165 11.2303 0.69165 0.691406Z"
        fill="black" />
    <path fill-rule="evenodd" clip-rule="evenodd"
        d="M1.45801 1.45703C11.4859 1.45703 21.514 1.45703 31.5418 1.45703C31.5418 11.485 31.5418 21.513 31.5418 31.5409C21.514 31.5409 11.4859 31.5409 1.45801 31.5409C1.45801 21.513 1.45801 11.485 1.45801 1.45703Z"
        fill="#B8B8B8" />
    <path fill-rule="evenodd" clip-rule="evenodd"
        d="M1.64966 1.64844C11.5499 1.64844 21.45 1.64844 31.3503 1.64844C31.3503 11.5486 31.3503 21.4488 31.3503 31.349C21.45 31.349 11.5499 31.349 1.64966 31.349C1.64966 21.4488 1.64966 11.5486 1.64966 1.64844Z"
        fill="#FCFCFC" />
    <path fill-rule="evenodd" clip-rule="evenodd"
        d="M27.3263 5.67383C27.5173 9.02561 27.5811 12.4108 27.5179 15.8295C19.7254 15.8295 11.933 15.8295 4.14062 15.8295C11.8366 15.6381 19.5652 15.5743 27.3263 15.6379C27.3263 12.3165 27.3263 8.99518 27.3263 5.67383Z"
        fill="#8C8C8C" />
    <path fill-rule="evenodd" clip-rule="evenodd"
        d="M20.0448 3.75609C17.6816 3.75609 15.3182 3.75609 12.955 3.75609C12.955 5.73612 12.955 7.71617 12.955 9.69621C10.464 9.69621 7.97295 9.69621 5.48193 9.69621C5.48193 9.18522 5.48193 8.67426 5.48193 8.16327C5.5458 8.16327 5.60968 8.16327 5.67355 8.16327C5.67355 8.61037 5.67355 9.05749 5.67355 9.50459C8.03682 9.50459 10.4001 9.50459 12.7634 9.50459C12.7634 7.52456 12.7634 5.5445 12.7634 3.56447C15.2245 3.50149 17.6517 3.56535 20.0448 3.75609Z"
        fill="#9C9C9C" />
    <path fill-rule="evenodd" clip-rule="evenodd"
        d="M11.2305 3.75781C11.2305 5.163 11.2305 6.5682 11.2305 7.97338C9.27968 7.91065 7.36351 7.97453 5.48195 8.165C5.48195 8.67598 5.48195 9.18695 5.48195 9.69793C7.97297 9.69793 10.464 9.69793 12.955 9.69793C12.955 7.7179 12.955 5.73785 12.955 3.75781C15.3182 3.75781 17.6816 3.75781 20.0448 3.75781C20.0448 4.20491 20.0448 4.65203 20.0448 5.09913C18.1287 5.09913 16.2125 5.09913 14.2963 5.09913C14.2963 5.61011 14.2963 6.12108 14.2963 6.63206C15.7014 6.63206 17.1068 6.63206 18.5119 6.63206C18.5119 7.07916 18.5119 7.52628 18.5119 7.97338C17.0711 7.91111 15.666 7.97499 14.2963 8.165C14.2963 8.67598 14.2963 9.18695 14.2963 9.69793C16.7235 9.69793 19.1505 9.69793 21.5778 9.69793C21.5778 7.7179 21.5778 5.73785 21.5778 3.75781C24.005 3.75781 26.432 3.75781 28.8592 3.75781C28.8592 8.22886 28.8592 12.6999 28.8592 17.171C21.0667 17.171 13.2744 17.171 5.48195 17.171C5.4182 20.0481 5.48208 22.9224 5.67356 25.7937C6.06191 26.0223 6.34934 26.3418 6.53584 26.7518C6.86531 27.146 7.24854 27.4654 7.68554 27.7099C8.44321 27.1444 9.14579 26.5058 9.79332 25.7937C9.88906 24.454 9.921 23.1126 9.88913 21.7698C16.2125 21.7698 22.5358 21.7698 28.8592 21.7698C28.8592 24.2608 28.8592 26.7518 28.8592 29.2428C28.4121 29.2428 27.9649 29.2428 27.5179 29.2428C27.5179 28.221 27.5179 27.1989 27.5179 26.177C25.9849 26.177 24.452 26.177 22.9191 26.177C22.9191 27.1989 22.9191 28.221 22.9191 29.2428C19.5978 29.2428 16.2763 29.2428 12.955 29.2428C12.955 28.7958 12.955 28.3486 12.955 27.9015C13.9504 27.963 14.9085 27.899 15.8293 27.7099C15.8293 26.2408 15.8293 24.7718 15.8293 23.3027C14.3601 23.3027 12.8911 23.3027 11.4221 23.3027C11.4539 24.3267 11.422 25.3486 11.3263 26.3686C10.4001 27.2947 9.47396 28.221 8.54782 29.147C8.03683 29.2748 7.52587 29.2748 7.01488 29.147C6.08874 28.221 5.16258 27.2947 4.23644 26.3686C4.14065 22.8563 4.10871 19.3432 4.14063 15.8297C11.9331 15.8297 19.7254 15.8297 27.5179 15.8297C27.5811 12.411 27.5173 9.02576 27.3263 5.67398C27.3263 5.48236 27.3263 5.29075 27.3263 5.09913C25.8571 5.09913 24.3882 5.09913 22.9191 5.09913C22.9191 7.07916 22.9191 9.05922 22.9191 11.0392C16.6595 11.0392 10.4001 11.0392 4.14063 11.0392C4.14063 9.57018 4.14063 8.10113 4.14063 6.63206C6.0568 6.63206 7.97297 6.63206 9.88913 6.63206C9.88913 6.12108 9.88913 5.61011 9.88913 5.09913C7.97297 5.09913 6.0568 5.09913 4.14063 5.09913C4.14063 4.65203 4.14063 4.20491 4.14063 3.75781C6.5039 3.75781 8.86718 3.75781 11.2305 3.75781Z"
        fill="#020202" />
    <path fill-rule="evenodd" clip-rule="evenodd"
        d="M15.8294 27.7109C14.9087 27.9001 13.9505 27.9641 12.9551 27.9026C12.9551 28.3496 12.9551 28.7968 12.9551 29.2439C12.7687 28.7748 12.7048 28.2638 12.7635 27.7109C13.7855 27.7109 14.8075 27.7109 15.8294 27.7109Z"
        fill="#555555" />
    <path fill-rule="evenodd" clip-rule="evenodd"
        d="M27.518 29.2436C27.3289 28.3229 27.2649 27.3648 27.3264 26.3694C25.9212 26.3694 24.5159 26.3694 23.1108 26.3694C23.1723 27.3648 23.1083 28.3229 22.9192 29.2436C22.9192 28.2217 22.9192 27.1996 22.9192 26.1777C24.4521 26.1777 25.9851 26.1777 27.518 26.1777C27.518 27.1996 27.518 28.2217 27.518 29.2436Z"
        fill="#939393" />
    <path fill-rule="evenodd" clip-rule="evenodd"
        d="M23.1109 23.3027C23.1109 23.7498 23.1109 24.197 23.1109 24.6441C24.516 24.6441 25.9213 24.6441 27.3264 24.6441C27.3264 24.197 27.3264 23.7498 27.3264 23.3027C27.5129 23.7718 27.5767 24.2829 27.5181 24.8357C25.9851 24.8357 24.4522 24.8357 22.9192 24.8357C22.8606 24.2829 22.9244 23.7718 23.1109 23.3027Z"
        fill="#A6A6A6" />
    <path fill-rule="evenodd" clip-rule="evenodd"
        d="M23.1108 23.3027C24.516 23.3027 25.9213 23.3027 27.3264 23.3027C27.3264 23.7498 27.3264 24.197 27.3264 24.6441C25.9213 24.6441 24.516 24.6441 23.1108 24.6441C23.1108 24.197 23.1108 23.7498 23.1108 23.3027Z"
        fill="#FEFFFE" />
    <path fill-rule="evenodd" clip-rule="evenodd"
        d="M17.1707 23.3027C18.6398 23.3027 20.1087 23.3027 21.5778 23.3027C21.5778 24.7719 21.5778 26.2408 21.5778 27.7099C20.1087 27.7099 18.6398 27.7099 17.1707 27.7099C17.1707 26.2408 17.1707 24.7719 17.1707 23.3027Z"
        fill="#FDFDFD" />
    <path fill-rule="evenodd" clip-rule="evenodd"
        d="M18.512 6.63281C18.6984 7.10187 18.7622 7.61286 18.7036 8.16575C17.2344 8.16575 15.7655 8.16575 14.2964 8.16575C15.6661 7.97574 17.0712 7.91185 18.512 7.97413C18.512 7.52703 18.512 7.07991 18.512 6.63281Z"
        fill="#323232" />
    <path fill-rule="evenodd" clip-rule="evenodd"
        d="M11.2304 3.75781C11.4205 5.19145 11.4844 6.6605 11.4221 8.165C9.50589 8.165 7.58972 8.165 5.67355 8.165C5.60968 8.165 5.5458 8.165 5.48193 8.165C7.3635 7.97453 9.27966 7.91065 11.2304 7.97338C11.2304 6.5682 11.2304 5.163 11.2304 3.75781Z"
        fill="#333333" />
</svg>
    