<svg width="51" height="51" viewBox="0 0 51 51" fill="none" xmlns="http://www.w3.org/2000/svg">
<g clip-path="url(#clip0)">
<path d="M47.482 18.7281L36.7564 28.3488H10.1922C7.71441 28.3455 5.32102 29.2462 3.46332 30.8811L16.8612 18.8604L17.0668 18.6788L33.8526 3.60677C36.5591 1.17906 40.359 0.375582 43.8208 1.49899C47.2826 2.62241 49.8803 5.50204 50.6355 9.05316C51.3907 12.6043 50.1886 16.2874 47.482 18.7151V18.7281Z" fill="#F15B41"/>
<path d="M10.1922 21.3383C15.8212 21.3383 20.3844 16.7881 20.3844 11.1752C20.3844 5.56235 15.8212 1.01221 10.1922 1.01221C4.5632 1.01221 0 5.56235 0 11.1752C0 16.7881 4.5632 21.3383 10.1922 21.3383Z" fill="#F99D1D"/>
<path d="M10.1922 28.3488C7.7144 28.3454 5.321 29.2462 3.4633 30.8811L3.37743 30.9589C-0.807306 34.7118 -1.14864 41.1369 2.61504 45.3096C6.37872 49.4824 12.8222 49.8228 17.0069 46.0698L36.759 28.3514L10.1922 28.3488Z" fill="#272560"/>
<path d="M36.7427 28.3566L16.9885 46.0751C15.118 47.7523 12.6895 48.6769 10.174 48.6698L40.6508 48.6697C46.5294 48.576 50.6799 44.1659 50.6799 38.5079C50.6799 32.8499 46.2155 28.4349 40.6508 28.3462L36.7427 28.3566Z" fill="#00B6BD"/>
</g>
<defs>
<clipPath id="clip0">
<rect width="50.86" height="50.86" fill="white"/>
</clipPath>
</defs>
</svg>
