<svg width="32" height="32" viewBox="0 0 32 32" fill="none" xmlns="http://www.w3.org/2000/svg">
    <rect width="32" height="32" fill="#B7FC33" />
    <mask id="mask0_4165_1245" style="mask-type:luminance" maskUnits="userSpaceOnUse" x="3" y="0"
        width="26" height="32">
        <path d="M28.8 0.799805H3.2V31.1998H28.8V0.799805Z" fill="white" />
    </mask>
    <g mask="url(#mask0_4165_1245)">
        <path
            d="M7.60784 0.799805H16C16 7.78708 10.2624 13.4636 3.2 13.4636V5.16076C3.2 2.75371 5.17491 0.799805 7.60784 0.799805Z"
            fill="#1F2937" />
        <path
            d="M16 0.799805H22.3975C25.9287 0.799805 28.8 3.63564 28.8 7.12928C28.8 10.6229 25.9337 13.4588 22.4025 13.4588H16.005V0.799805H16Z"
            fill="#1F2937" />
        <path d="M28.8 26.1277H16C16 19.1404 21.7326 13.4639 28.8 13.4639V26.1277Z" fill="#1F2937" />
        <path
            d="M16 26.1277H9.60246C6.07126 26.1277 3.20493 23.2919 3.20493 19.7983C3.20493 16.3046 6.07126 13.4688 9.60246 13.4688H16V26.1326V26.1277Z"
            fill="#1F2937" />
        <path d="M15.7784 26.1082C23.8799 26.0887 25.8549 27.3166 28.8 31.1952V22.9082"
            fill="#1F2937" />
    </g>
</svg>