<svg width="32" height="32" viewBox="0 0 32 32" fill="none" xmlns="http://www.w3.org/2000/svg">
<path opacity="0.976" fill-rule="evenodd" clip-rule="evenodd" d="M20.1216 17.1069C17.3822 16.4046 14.6344 15.7337 11.8784 15.0943C13.8383 12.5609 15.9158 10.1123 18.1111 7.74843C13.2863 7.6478 8.461 7.61427 3.63525 7.6478C3.63525 5.09853 3.63525 2.54927 3.63525 0C11.8784 0 20.1216 0 28.3648 0C28.3984 2.55016 28.3648 5.09941 28.2643 7.6478C25.5464 10.8153 22.8322 13.9683 20.1216 17.1069Z" fill="#8BCCCB"/>
<path opacity="0.976" fill-rule="evenodd" clip-rule="evenodd" d="M11.8783 15.0942C14.6343 15.7336 17.382 16.4045 20.1215 17.1068C18.1155 19.4509 16.105 21.7989 14.0899 24.1508C18.8463 24.3521 23.6045 24.4191 28.3647 24.3521C28.3647 26.9014 28.3647 29.4506 28.3647 31.9999C20.1215 31.9999 11.8783 31.9999 3.63511 31.9999C3.60163 29.4498 3.63514 26.9004 3.73564 24.3521C6.42276 21.2272 9.13698 18.1412 11.8783 15.0942Z" fill="#3B3B3A"/>
</svg>
