<?xml version="1.0" encoding="utf-8"?><!-- Uploaded to: SVG Repo, www.svgrepo.com, Generator: SVG Repo Mixer Tools -->
<svg width="800px" height="800px" viewBox="0 0 24 24" fill="none" xmlns="http://www.w3.org/2000/svg">
<path d="M11 3.01254C10.9983 2.46026 11.4446 2.01114 11.9969 2.00941C12.5492 2.00768 12.9983 2.45399 13 3.00627L11 3.01254Z" fill="#000000"/>
<path d="M14.3158 10.2951L13.0269 11.592L13 3.00627L11 3.01254L11.0269 11.5983L9.73003 10.3095C9.33828 9.92018 8.7051 9.92214 8.3158 10.3139C7.9265 10.7056 7.92849 11.3388 8.32024 11.7281L8.32275 11.7306L8.32374 11.7316L12.039 15.4236L15.7206 11.7187L15.7262 11.7131L15.727 11.7123L15.7278 11.7115L15.7337 11.7056L15.7344 11.7049L14.3158 10.2951Z" fill="#000000"/>
<path d="M15.7344 11.7049C16.1237 11.3131 16.1217 10.6799 15.73 10.2906C15.3382 9.90134 14.705 9.90335 14.3158 10.2951L15.7344 11.7049Z" fill="#000000"/>
<path d="M4 12C4 10.8954 4.89543 10 6 10C6.55228 10 7 9.55228 7 9C7 8.44771 6.55228 8 6 8C3.79086 8 2 9.79086 2 12V18C2 20.2091 3.79086 22 6 22H17C19.7614 22 22 19.7614 22 17V12C22 9.79086 20.2091 8 18 8C17.4477 8 17 8.44771 17 9C17 9.55228 17.4477 10 18 10C19.1046 10 20 10.8954 20 12V17C20 18.6569 18.6569 20 17 20H6C4.89543 20 4 19.1046 4 18V12Z" fill="#000000"/>
</svg>