<?xml version="1.0" encoding="utf-8"?>
<!-- Generator: Adobe Illustrator 17.0.0, SVG Export Plug-In . SVG Version: 6.00 Build 0)  -->
<!DOCTYPE svg PUBLIC "-//W3C//DTD SVG 1.1//EN" "http://www.w3.org/Graphics/SVG/1.1/DTD/svg11.dtd">
<svg version="1.1" id="Layer_1" xmlns="http://www.w3.org/2000/svg" xmlns:xlink="http://www.w3.org/1999/xlink" x="0px" y="0px"
	 width="32px" height="32px" viewBox="0 0 32 32" enable-background="new 0 0 32 32" xml:space="preserve">
<linearGradient id="SVGID_1_" gradientUnits="userSpaceOnUse" x1="20.9386" y1="1.0265" x2="11.7312" y2="31.1426">
	<stop  offset="0" style="stop-color:#D61395"/>
	<stop  offset="0.2656" style="stop-color:#BB1089"/>
	<stop  offset="0.8337" style="stop-color:#760769"/>
	<stop  offset="0.9987" style="stop-color:#61045F"/>
</linearGradient>
<circle display="none" fill="url(#SVGID_1_)" cx="16.335" cy="16.085" r="15.742"/>
<rect fill="#FFFFFF" width="32" height="32"/>
<g>
	<linearGradient id="SVGID_2_" gradientUnits="userSpaceOnUse" x1="21.3895" y1="2.3882" x2="8.5565" y2="28.6998">
		<stop  offset="0" style="stop-color:#D61395"/>
		<stop  offset="0.2656" style="stop-color:#BB1089"/>
		<stop  offset="0.8337" style="stop-color:#760769"/>
		<stop  offset="0.9987" style="stop-color:#61045F"/>
	</linearGradient>
	<path fill="url(#SVGID_2_)" d="M15.21,16.909c-0.414-0.414-0.414-1.085,0-1.499c0.414-0.414,1.085-0.414,1.499,0
		c3.125,3.125,8.026,3.415,11.481,0.871c0.174-0.833,0.268-1.695,0.268-2.579c0-1.103-0.143-2.173-0.41-3.192
		c-0.316,0.713-1.029,1.212-1.859,1.212c-1.123,0-2.033-0.91-2.033-2.033s0.91-2.033,2.033-2.033c0.289,0,0.563,0.061,0.812,0.169
		c-2.111-3.988-6.3-6.706-11.126-6.706c-6.95,0-12.583,5.634-12.583,12.583c0,6.311,4.646,11.536,10.704,12.443l-1.168,2.624
		c-0.647,2.232,0.714,3.06,2.542,1.546l8.895-7.176L24.2,23.133c1.217-1.075,2.221-2.383,2.95-3.852
		C23.179,20.921,18.432,20.131,15.21,16.909z M18.318,7.654c1.123,0,2.033,0.91,2.033,2.033s-0.91,2.033-2.033,2.033
		c-1.123,0-2.033-0.91-2.033-2.033S17.195,7.654,18.318,7.654z"/>
</g>
</svg>
